# https://github.com/mikedh/trimesh
v 0.00000000 -4.23420579 1.54940000
v 0.58928755 -4.19299879 1.54940000
v 1.16710529 -4.07017984 1.54940000
v 1.72220665 -3.86813947 1.54940000
v 2.24378722 -3.59081016 1.54940000
v 2.72169502 -3.24358982 1.54940000
v 3.14662812 -2.83323669 1.54940000
v 3.51031569 -2.36773783 1.54940000
v 3.80567895 -1.85615365 1.54940000
v 4.02696901 -1.30844155 1.54940000
v 4.16987869 -0.73526212 1.54940000
v 4.23162643 -0.14777165 1.54940000
v 4.21101037 0.44259502 1.54940000
v 4.10843178 1.02434709 1.54940000
v 3.92588724 1.58616141 1.54940000
v 3.66692978 2.11710289 1.54940000
v 3.33659969 2.60683738 1.54940000
v 2.94132649 3.04583275 1.54940000
v 2.48880372 3.42554444 1.54940000
v 1.98783921 3.73858181 1.54940000
v 1.44818367 3.97885193 1.54940000
v 0.88034088 4.14167823 1.54940000
v 0.29536326 4.22389148 1.54940000
v -0.29536326 4.22389148 1.54940000
v -0.88034088 4.14167823 1.54940000
v -1.44818367 3.97885193 1.54940000
v -1.98783921 3.73858181 1.54940000
v -2.48880372 3.42554444 1.54940000
v -2.94132649 3.04583275 1.54940000
v -3.33659969 2.60683738 1.54940000
v -3.66692978 2.11710289 1.54940000
v -3.92588724 1.58616141 1.54940000
v -4.10843178 1.02434709 1.54940000
v -4.21101037 0.44259502 1.54940000
v -4.23162643 -0.14777165 1.54940000
v -4.16987869 -0.73526212 1.54940000
v -4.02696901 -1.30844155 1.54940000
v -3.80567895 -1.85615365 1.54940000
v -3.51031569 -2.36773783 1.54940000
v -3.14662812 -2.83323669 1.54940000
v -2.72169502 -3.24358982 1.54940000
v -2.24378722 -3.59081016 1.54940000
v -1.72220665 -3.86813947 1.54940000
v -1.16710529 -4.07017984 1.54940000
v -0.58928755 -4.19299879 1.54940000
v 0.00000000 -4.26084999 1.54906280
v 1.10218137 -4.26085000 1.53599571
v 1.83835665 -4.26085000 1.47022407
v 2.15379432 -4.26085000 1.40192104
v 2.46000289 -4.26085000 1.29540000
v 2.60313011 -4.01294639 1.39635450
v 2.75038133 -3.75789980 1.46325593
v 2.95069322 -3.41094943 1.51359301
v 4.38702139 -0.92315605 1.52031378
v 4.65740844 -0.45483195 1.45358157
v 4.78998245 -0.22520703 1.38907388
v 4.92000579 0.00000000 1.29540000
v 4.77687857 0.24790361 1.39635450
v 4.62962735 0.50295020 1.46325593
v 4.42931546 0.84990057 1.51359301
v 2.99298729 3.33769395 1.52031378
v 2.72260024 3.80601805 1.45358157
v 2.59002624 4.03564297 1.38907388
v 2.46000289 4.26085000 1.29540000
v 2.17471914 4.26085000 1.39609417
v 1.88124772 4.26085000 1.46292685
v 1.48184094 4.26085000 1.51333135
v -1.38681422 4.26085000 1.52063829
v -1.93307441 4.26085000 1.45328438
v -2.20007731 4.26085000 1.38871807
v -2.46000289 4.26085000 1.29540000
v -2.60313011 4.01294639 1.39635450
v -2.75038133 3.75789980 1.46325593
v -2.95069322 3.41094943 1.51359301
v -4.38702139 0.92315605 1.52031378
v -4.65740844 0.45483195 1.45358157
v -4.78998245 0.22520703 1.38907388
v -4.92000579 -0.00000000 1.29540000
v -4.77687857 -0.24790361 1.39635450
v -4.62962735 -0.50295020 1.46325593
v -4.42931546 -0.84990057 1.51359301
v -2.99298729 -3.33769395 1.52031378
v -2.72260024 -3.80601805 1.45358157
v -2.59002624 -4.03564297 1.38907388
v -2.46000289 -4.26085000 1.29540000
v -2.17436751 -4.26085000 1.39619414
v -1.88052783 -4.26085000 1.46305440
v -1.47796318 -4.26085000 1.51365670
v -0.94146440 -4.26085000 1.54149280
v 1.09279184 -4.22456202 1.54141678
v 1.78701467 -4.14185275 1.51238608
v 2.11054517 -4.17529927 1.45110296
v 1.72865998 -4.00660117 1.54141678
v 2.39736723 -4.15236184 1.38778188
v 2.03498443 -4.02581718 1.51238608
v 2.33920525 -4.05162235 1.45110296
v 1.96853233 -3.89435473 1.54141678
v 2.25545814 -3.90656809 1.51238608
v 2.54604747 -3.92494167 1.45110296
v 2.18180649 -3.77899970 1.54141678
v 2.45489509 -3.78442277 1.51238608
v 2.37473086 -3.66084302 1.54141678
v 2.66418219 -3.64012347 1.51238608
v 2.57718372 -3.52125579 1.54141678
v 2.89956109 -3.45556234 1.51238608
v 2.80487636 -3.34272148 1.54141678
v 3.24279641 -2.91982700 1.54141678
v 3.61759912 -2.44010142 1.54141678
v 3.92198937 -1.91288203 1.54141678
v 4.15004257 -1.34843057 1.54141678
v 4.27009608 -0.89855313 1.54141678
v 4.79181363 -0.16733382 1.38778188
v 4.48955853 -0.43844022 1.51238608
v 4.67556055 -0.16327417 1.45110296
v 4.34295268 -0.42412302 1.54141678
v 4.50816834 -0.15742871 1.51238608
v 4.36095479 -0.15228790 1.54141678
v 4.67212294 0.24247095 1.45110296
v 4.50485380 0.23379012 1.51238608
v 4.35774849 0.22615574 1.54141678
v 4.48620500 0.47151915 1.51238608
v 4.33970866 0.45612176 1.54141678
v 4.28543406 0.82229754 1.54141678
v 4.23399503 1.05565353 1.54141678
v 4.04587151 1.63463820 1.54141678
v 3.77899970 2.18180649 1.54141678
v 3.43857396 2.68650841 1.54141678
v 3.03122029 3.13892049 1.54141678
v 2.65145006 3.64940793 1.51238608
v 2.52690793 3.93729110 1.45110296
v 2.56486736 3.53023706 1.54141678
v 2.43644077 3.79633007 1.51238608
v 2.25099148 4.23349925 1.38778188
v 2.35687916 3.67236149 1.54141678
v 2.19638069 4.13079130 1.45110296
v 2.11774691 3.98290266 1.51238608
v 2.04859221 3.85284158 1.54141678
v 1.82197113 4.12659506 1.51238608
v 1.76247494 3.99184173 1.54141678
v 1.54282423 4.23887473 1.51238608
v 1.49244354 4.10045492 1.54141678
v 0.90724615 4.26825757 1.54141678
v 0.30439025 4.35298344 1.54141678
v -0.30439025 4.35298344 1.54141678
v -0.90724615 4.26825757 1.54141678
v -1.35052336 4.14936199 1.54141678
v -1.86369281 4.10792097 1.51238608
v -2.14643265 4.15696425 1.45110296
v -1.80283421 3.97377744 1.54141678
v -2.06958708 4.00813859 1.51238608
v -2.00200503 3.87725343 1.54141678
v -2.54604747 3.92494167 1.45110296
v -2.45489509 3.78442277 1.51238608
v -2.37473086 3.66084302 1.54141678
v -2.65145006 3.64940793 1.51238608
v -2.56486736 3.53023706 1.54141678
v -2.85484759 3.30014599 1.54141678
v -3.03122029 3.13892049 1.54141678
v -3.43857396 2.68650841 1.54141678
v -3.77899970 2.18180649 1.54141678
v -4.04587151 1.63463820 1.54141678
v -4.23399503 1.05565353 1.54141678
v -4.48620500 0.47151915 1.51238608
v -4.67324808 0.21972091 1.45110296
v -4.33970866 0.45612176 1.54141678
v -4.50593867 0.21185456 1.51238608
v -4.79181363 -0.16733382 1.38778188
v -4.35879792 0.20493648 1.54141678
v -4.67556055 -0.16327417 1.45110296
v -4.50816834 -0.15742871 1.51238608
v -4.36095479 -0.15228790 1.54141678
v -4.48453049 -0.48718772 1.51238608
v -4.33808883 -0.47127868 1.54141678
v -4.44238532 -0.78331239 1.51238608
v -4.29731990 -0.75773344 1.54141678
v -4.15004257 -1.34843057 1.54141678
v -3.92198937 -1.91288203 1.54141678
v -3.61759912 -2.44010142 1.54141678
v -3.24279641 -2.91982700 1.54141678
v -2.91321788 -3.24873512 1.54141678
v -2.54082215 -4.06616543 1.38778188
v -2.62447964 -3.66885163 1.51238608
v -2.47917985 -3.96751712 1.45110296
v -2.53877765 -3.54904583 1.54141678
v -2.39042143 -3.82547396 1.51238608
v -2.31236258 -3.70055369 1.54141678
v -2.12655598 -4.16716745 1.45110296
v -2.05042203 -4.01797650 1.51238608
v -1.98346581 -3.88677008 1.54141678
v -1.83475494 -4.12092707 1.51238608
v -1.77484130 -3.98635882 1.54141678
v -1.43001776 -4.12264084 1.54141678
v 2.46000289 -4.26085000 -1.29540000
v 4.92000579 0.00000000 -1.29540000
v 4.77687857 -0.24790361 -1.39635450
v 4.62962735 -0.50295020 -1.46325593
v 4.42931546 -0.84990057 -1.51359301
v 2.99298729 -3.33769395 -1.52031378
v 2.72260024 -3.80601805 -1.45358157
v 2.59002624 -4.03564297 -1.38907388
v 2.46000289 4.26085000 -1.29540000
v 2.60313011 4.01294639 -1.39635450
v 2.75038133 3.75789980 -1.46325593
v 2.95069322 3.41094943 -1.51359301
v 4.38702139 0.92315605 -1.52031378
v 4.65740844 0.45483195 -1.45358157
v 4.78998245 0.22520703 -1.38907388
v -4.92000579 0.00000000 -1.29540000
v -2.46000289 -4.26085000 -1.29540000
v -2.60313011 -4.01294639 -1.39635450
v -2.75038133 -3.75789980 -1.46325593
v -2.95069322 -3.41094943 -1.51359301
v -4.38702139 -0.92315605 -1.52031378
v -4.65740844 -0.45483195 -1.45358157
v -4.78998245 -0.22520703 -1.38907388
v 2.17436751 -4.26085000 -1.39619414
v 1.88052783 -4.26085000 -1.46305440
v 1.47796318 -4.26085000 -1.51365670
v 0.94146440 -4.26085000 -1.54149280
v 0.00000000 -4.26084999 -1.54906280
v -1.10218137 -4.26085000 -1.53599571
v -1.83835665 -4.26085000 -1.47022407
v -2.15379432 -4.26085000 -1.40192104
v -2.46000289 4.26085000 -1.29540000
v -2.17471914 4.26085000 -1.39609417
v -1.88124772 4.26085000 -1.46292685
v -1.48184094 4.26085000 -1.51333135
v 1.38681422 4.26085000 -1.52063829
v 1.93307441 4.26085000 -1.45328438
v 2.20007731 4.26085000 -1.38871807
v -4.77687857 0.24790361 -1.39635450
v -4.62962735 0.50295020 -1.46325593
v -4.42931546 0.84990057 -1.51359301
v -2.99298729 3.33769395 -1.52031378
v -2.72260024 3.80601805 -1.45358157
v -2.59002624 4.03564297 -1.38907388
v 0.00000000 2.29870000 1.54940000
v 0.31991721 2.27632921 1.54940000
v 0.63360759 2.20965226 1.54940000
v 0.93496552 2.09996694 1.54940000
v 1.21812541 1.94940816 1.54940000
v 1.47757588 1.76090636 1.54940000
v 1.70826701 1.53813052 1.54940000
v 1.90570867 1.28541673 1.54940000
v 2.06605787 1.00768376 1.54940000
v 2.18619361 0.71033736 1.54940000
v 2.26377758 0.39916507 1.54940000
v 2.29729969 0.08022347 1.54940000
v 2.28610748 -0.24027958 1.54940000
v 2.23041879 -0.55610586 1.54940000
v 2.13131753 -0.86110818 1.54940000
v 1.99073260 -1.14935000 1.54940000
v 1.81140032 -1.41522103 1.54940000
v 1.59681120 -1.65354640 1.54940000
v 1.35114196 -1.85968736 1.54940000
v 1.07917428 -2.02963163 1.54940000
v 0.78620170 -2.16007143 1.54940000
v 0.47792660 -2.24846789 1.54940000
v 0.16034921 -2.29310048 1.54940000
v -0.16034921 -2.29310048 1.54940000
v -0.47792660 -2.24846789 1.54940000
v -0.78620170 -2.16007143 1.54940000
v -1.07917428 -2.02963163 1.54940000
v -1.35114196 -1.85968736 1.54940000
v -1.59681120 -1.65354640 1.54940000
v -1.81140032 -1.41522103 1.54940000
v -1.99073260 -1.14935000 1.54940000
v -2.13131753 -0.86110818 1.54940000
v -2.23041879 -0.55610586 1.54940000
v -2.28610748 -0.24027958 1.54940000
v -2.29729969 0.08022347 1.54940000
v -2.26377758 0.39916507 1.54940000
v -2.18619361 0.71033736 1.54940000
v -2.06605787 1.00768376 1.54940000
v -1.90570867 1.28541673 1.54940000
v -1.70826701 1.53813052 1.54940000
v -1.47757588 1.76090636 1.54940000
v -1.21812541 1.94940816 1.54940000
v -0.93496552 2.09996694 1.54940000
v -0.63360759 2.20965226 1.54940000
v -0.31991721 2.27632921 1.54940000
v 0.00000000 -4.23420579 -1.54940000
v 0.58928755 -4.19299879 -1.54940000
v 1.16710529 -4.07017984 -1.54940000
v 1.72220665 -3.86813947 -1.54940000
v 2.24378722 -3.59081016 -1.54940000
v 2.72169502 -3.24358982 -1.54940000
v 3.14662812 -2.83323669 -1.54940000
v 3.51031569 -2.36773783 -1.54940000
v 3.80567895 -1.85615365 -1.54940000
v 4.02696901 -1.30844155 -1.54940000
v 4.16987869 -0.73526212 -1.54940000
v 4.23162643 -0.14777165 -1.54940000
v 4.21101037 0.44259502 -1.54940000
v 4.10843178 1.02434709 -1.54940000
v 3.92588724 1.58616141 -1.54940000
v 3.66692978 2.11710289 -1.54940000
v 3.33659969 2.60683738 -1.54940000
v 2.94132649 3.04583275 -1.54940000
v 2.48880372 3.42554444 -1.54940000
v 1.98783921 3.73858181 -1.54940000
v 1.44818367 3.97885193 -1.54940000
v 0.88034088 4.14167823 -1.54940000
v 0.29536326 4.22389148 -1.54940000
v -0.29536326 4.22389148 -1.54940000
v -0.88034088 4.14167823 -1.54940000
v -1.44818367 3.97885193 -1.54940000
v -1.98783921 3.73858181 -1.54940000
v -2.48880372 3.42554444 -1.54940000
v -2.94132649 3.04583275 -1.54940000
v -3.33659969 2.60683738 -1.54940000
v -3.66692978 2.11710289 -1.54940000
v -3.92588724 1.58616141 -1.54940000
v -4.10843178 1.02434709 -1.54940000
v -4.21101037 0.44259502 -1.54940000
v -4.23162643 -0.14777165 -1.54940000
v -4.16987869 -0.73526212 -1.54940000
v -4.02696901 -1.30844155 -1.54940000
v -3.80567895 -1.85615365 -1.54940000
v -3.51031569 -2.36773783 -1.54940000
v -3.14662812 -2.83323669 -1.54940000
v -2.72169502 -3.24358982 -1.54940000
v -2.24378722 -3.59081016 -1.54940000
v -1.72220665 -3.86813947 -1.54940000
v -1.16710529 -4.07017984 -1.54940000
v -0.58928755 -4.19299879 -1.54940000
v -1.09279184 -4.22456202 -1.54141678
v -1.78701467 -4.14185275 -1.51238608
v -2.11054517 -4.17529927 -1.45110296
v -1.72865998 -4.00660117 -1.54141678
v -2.39736723 -4.15236184 -1.38778188
v -2.03498443 -4.02581718 -1.51238608
v -2.33920525 -4.05162235 -1.45110296
v -1.96853233 -3.89435473 -1.54141678
v -2.25545814 -3.90656809 -1.51238608
v -2.54604747 -3.92494167 -1.45110296
v -2.18180649 -3.77899970 -1.54141678
v -2.45489509 -3.78442277 -1.51238608
v -2.37473086 -3.66084302 -1.54141678
v -2.66418219 -3.64012347 -1.51238608
v -2.57718372 -3.52125579 -1.54141678
v -2.89956109 -3.45556234 -1.51238608
v -2.80487636 -3.34272148 -1.54141678
v -3.24279641 -2.91982700 -1.54141678
v -3.61759912 -2.44010142 -1.54141678
v -3.92198937 -1.91288203 -1.54141678
v -4.15004257 -1.34843057 -1.54141678
v -4.27009608 -0.89855313 -1.54141678
v -4.79181363 -0.16733382 -1.38778188
v -4.48955853 -0.43844022 -1.51238608
v -4.67556055 -0.16327417 -1.45110296
v -4.34295268 -0.42412302 -1.54141678
v -4.50816834 -0.15742871 -1.51238608
v -4.36095479 -0.15228790 -1.54141678
v -4.67212294 0.24247095 -1.45110296
v -4.50485380 0.23379012 -1.51238608
v -4.35774849 0.22615574 -1.54141678
v -4.48620500 0.47151915 -1.51238608
v -4.33970866 0.45612176 -1.54141678
v -4.28543406 0.82229754 -1.54141678
v -4.23399503 1.05565353 -1.54141678
v -4.04587151 1.63463820 -1.54141678
v -3.77899970 2.18180649 -1.54141678
v -3.43857396 2.68650841 -1.54141678
v -3.03122029 3.13892049 -1.54141678
v -2.65145006 3.64940793 -1.51238608
v -2.52690793 3.93729110 -1.45110296
v -2.56486736 3.53023706 -1.54141678
v -2.43644077 3.79633007 -1.51238608
v -2.25099148 4.23349925 -1.38778188
v -2.35687916 3.67236149 -1.54141678
v -2.19638069 4.13079130 -1.45110296
v -2.11774691 3.98290266 -1.51238608
v -2.04859221 3.85284158 -1.54141678
v -1.82197113 4.12659506 -1.51238608
v -1.76247494 3.99184173 -1.54141678
v -1.54282423 4.23887473 -1.51238608
v -1.49244354 4.10045492 -1.54141678
v -0.90724615 4.26825757 -1.54141678
v -0.30439025 4.35298344 -1.54141678
v 0.30439025 4.35298344 -1.54141678
v 0.90724615 4.26825757 -1.54141678
v 1.35052336 4.14936199 -1.54141678
v 1.86369281 4.10792097 -1.51238608
v 2.14643265 4.15696425 -1.45110296
v 1.80283421 3.97377744 -1.54141678
v 2.06958708 4.00813859 -1.51238608
v 2.00200503 3.87725343 -1.54141678
v 2.54604747 3.92494167 -1.45110296
v 2.45489509 3.78442277 -1.51238608
v 2.37473086 3.66084302 -1.54141678
v 2.65145006 3.64940793 -1.51238608
v 2.56486736 3.53023706 -1.54141678
v 2.85484759 3.30014599 -1.54141678
v 3.03122029 3.13892049 -1.54141678
v 3.43857396 2.68650841 -1.54141678
v 3.77899970 2.18180649 -1.54141678
v 4.04587151 1.63463820 -1.54141678
v 4.23399503 1.05565353 -1.54141678
v 4.48620500 0.47151915 -1.51238608
v 4.67324808 0.21972091 -1.45110296
v 4.33970866 0.45612176 -1.54141678
v 4.50593867 0.21185456 -1.51238608
v 4.79181363 -0.16733382 -1.38778188
v 4.35879792 0.20493648 -1.54141678
v 4.67556055 -0.16327417 -1.45110296
v 4.50816834 -0.15742871 -1.51238608
v 4.36095479 -0.15228790 -1.54141678
v 4.48453049 -0.48718772 -1.51238608
v 4.33808883 -0.47127868 -1.54141678
v 4.44238532 -0.78331239 -1.51238608
v 4.29731990 -0.75773344 -1.54141678
v 4.15004257 -1.34843057 -1.54141678
v 3.92198937 -1.91288203 -1.54141678
v 3.61759912 -2.44010142 -1.54141678
v 3.24279641 -2.91982700 -1.54141678
v 2.91321788 -3.24873512 -1.54141678
v 2.54082215 -4.06616543 -1.38778188
v 2.62447964 -3.66885163 -1.51238608
v 2.47917985 -3.96751712 -1.45110296
v 2.53877765 -3.54904583 -1.54141678
v 2.39042143 -3.82547396 -1.51238608
v 2.31236258 -3.70055369 -1.54141678
v 2.12655598 -4.16716745 -1.45110296
v 2.05042203 -4.01797650 -1.51238608
v 1.98346581 -3.88677008 -1.54141678
v 1.83475494 -4.12092707 -1.51238608
v 1.77484130 -3.98635882 -1.54141678
v 1.43001776 -4.12264084 -1.54141678
v 0.00000000 2.09550000 1.34620000
v -0.29163723 2.07510674 1.34620000
v -0.57759808 2.01432388 1.34620000
v -0.85231664 1.91433451 1.34620000
v -1.11044582 1.77708479 1.34620000
v -1.34696144 1.60524613 1.34620000
v -1.55725998 1.40216319 1.34620000
v -1.73724823 1.17178873 1.34620000
v -1.88342292 0.91860674 1.34620000
v -1.99293893 0.64754511 1.34620000
v -2.06366465 0.36387976 1.34620000
v -2.09422348 0.07313190 1.34620000
v -2.08402063 -0.21903939 1.34620000
v -2.03325469 -0.50694733 1.34620000
v -1.94291377 -0.78498812 1.34620000
v -1.81475623 -1.04775000 1.34620000
v -1.65127653 -1.29011862 1.34620000
v -1.45565662 -1.50737655 1.34620000
v -1.23170400 -1.69529511 1.34620000
v -0.98377766 -1.85021668 1.34620000
v -0.71670321 -1.96912589 1.34620000
v -0.43567895 -2.04970830 1.34620000
v -0.14617469 -2.09039547 1.34620000
v 0.14617469 -2.09039547 1.34620000
v 0.43567895 -2.04970830 1.34620000
v 0.71670321 -1.96912589 1.34620000
v 0.98377766 -1.85021668 1.34620000
v 1.23170400 -1.69529511 1.34620000
v 1.45565662 -1.50737655 1.34620000
v 1.65127653 -1.29011862 1.34620000
v 1.81475623 -1.04775000 1.34620000
v 1.94291377 -0.78498812 1.34620000
v 2.03325469 -0.50694733 1.34620000
v 2.08402063 -0.21903939 1.34620000
v 2.09422348 0.07313190 1.34620000
v 2.06366465 0.36387976 1.34620000
v 1.99293893 0.64754511 1.34620000
v 1.88342292 0.91860674 1.34620000
v 1.73724823 1.17178873 1.34620000
v 1.55725998 1.40216319 1.34620000
v 1.34696144 1.60524613 1.34620000
v 1.11044582 1.77708479 1.34620000
v 0.85231664 1.91433451 1.34620000
v 0.57759808 2.01432388 1.34620000
v 0.29163723 2.07510674 1.34620000
v 0.00000000 2.29870000 -1.54940000
v -0.31991721 2.27632921 -1.54940000
v -0.63360759 2.20965226 -1.54940000
v -0.93496552 2.09996694 -1.54940000
v -1.21812541 1.94940816 -1.54940000
v -1.47757588 1.76090636 -1.54940000
v -1.70826701 1.53813052 -1.54940000
v -1.90570867 1.28541673 -1.54940000
v -2.06605787 1.00768376 -1.54940000
v -2.18619361 0.71033736 -1.54940000
v -2.26377758 0.39916507 -1.54940000
v -2.29729969 0.08022347 -1.54940000
v -2.28610748 -0.24027958 -1.54940000
v -2.23041879 -0.55610586 -1.54940000
v -2.13131753 -0.86110818 -1.54940000
v -1.99073260 -1.14935000 -1.54940000
v -1.81140032 -1.41522103 -1.54940000
v -1.59681120 -1.65354640 -1.54940000
v -1.35114196 -1.85968736 -1.54940000
v -1.07917428 -2.02963163 -1.54940000
v -0.78620170 -2.16007143 -1.54940000
v -0.47792660 -2.24846789 -1.54940000
v -0.16034921 -2.29310048 -1.54940000
v 0.16034921 -2.29310048 -1.54940000
v 0.47792660 -2.24846789 -1.54940000
v 0.78620170 -2.16007143 -1.54940000
v 1.07917428 -2.02963163 -1.54940000
v 1.35114196 -1.85968736 -1.54940000
v 1.59681120 -1.65354640 -1.54940000
v 1.81140032 -1.41522103 -1.54940000
v 1.99073260 -1.14935000 -1.54940000
v 2.13131753 -0.86110818 -1.54940000
v 2.23041879 -0.55610586 -1.54940000
v 2.28610748 -0.24027958 -1.54940000
v 2.29729969 0.08022347 -1.54940000
v 2.26377758 0.39916507 -1.54940000
v 2.18619361 0.71033736 -1.54940000
v 2.06605787 1.00768376 -1.54940000
v 1.90570867 1.28541673 -1.54940000
v 1.70826701 1.53813052 -1.54940000
v 1.47757588 1.76090636 -1.54940000
v 1.21812541 1.94940816 -1.54940000
v 0.93496552 2.09996694 -1.54940000
v 0.63360759 2.20965226 -1.54940000
v 0.31991721 2.27632921 -1.54940000
v 0.00000000 2.09550000 -1.34620000
v 0.29163723 2.07510674 -1.34620000
v 0.57759808 2.01432388 -1.34620000
v 0.85231664 1.91433451 -1.34620000
v 1.11044582 1.77708479 -1.34620000
v 1.34696144 1.60524613 -1.34620000
v 1.55725998 1.40216319 -1.34620000
v 1.73724823 1.17178873 -1.34620000
v 1.88342292 0.91860674 -1.34620000
v 1.99293893 0.64754511 -1.34620000
v 2.06366465 0.36387976 -1.34620000
v 2.09422348 0.07313190 -1.34620000
v 2.08402063 -0.21903939 -1.34620000
v 2.03325469 -0.50694733 -1.34620000
v 1.94291377 -0.78498812 -1.34620000
v 1.81475623 -1.04775000 -1.34620000
v 1.65127653 -1.29011862 -1.34620000
v 1.45565662 -1.50737655 -1.34620000
v 1.23170400 -1.69529511 -1.34620000
v 0.98377766 -1.85021668 -1.34620000
v 0.71670321 -1.96912589 -1.34620000
v 0.43567895 -2.04970830 -1.34620000
v 0.14617469 -2.09039547 -1.34620000
v -0.14617469 -2.09039547 -1.34620000
v -0.43567895 -2.04970830 -1.34620000
v -0.71670321 -1.96912589 -1.34620000
v -0.98377766 -1.85021668 -1.34620000
v -1.23170400 -1.69529511 -1.34620000
v -1.45565662 -1.50737655 -1.34620000
v -1.65127653 -1.29011862 -1.34620000
v -1.81475623 -1.04775000 -1.34620000
v -1.94291377 -0.78498812 -1.34620000
v -2.03325469 -0.50694733 -1.34620000
v -2.08402063 -0.21903939 -1.34620000
v -2.09422348 0.07313190 -1.34620000
v -2.06366465 0.36387976 -1.34620000
v -1.99293893 0.64754511 -1.34620000
v -1.88342292 0.91860674 -1.34620000
v -1.73724823 1.17178873 -1.34620000
v -1.55725998 1.40216319 -1.34620000
v -1.34696144 1.60524613 -1.34620000
v -1.11044582 1.77708479 -1.34620000
v -0.85231664 1.91433451 -1.34620000
v -0.57759808 2.01432388 -1.34620000
v -0.29163723 2.07510674 -1.34620000
f 2 1 46
f 47 2 46
f 19 18 61
f 34 33 75
f 89 44 88
f 45 44 89
f 46 45 89
f 1 45 46
f 90 3 2
f 90 47 3
f 90 2 47
f 91 3 47
f 91 47 48
f 92 48 49
f 93 4 3
f 93 3 91
f 94 49 50
f 94 50 51
f 95 91 48
f 95 48 92
f 96 95 92
f 96 92 49
f 96 94 51
f 96 49 94
f 97 5 4
f 97 4 93
f 97 93 91
f 97 91 95
f 98 95 96
f 99 96 51
f 99 51 52
f 100 5 97
f 100 97 95
f 100 95 98
f 101 98 96
f 101 96 99
f 101 99 52
f 102 100 98
f 102 5 100
f 102 98 101
f 103 101 52
f 104 6 5
f 104 5 102
f 104 101 103
f 104 102 101
f 105 103 52
f 105 52 53
f 106 6 104
f 106 104 103
f 106 105 53
f 106 103 105
f 107 7 6
f 107 6 106
f 107 106 53
f 108 8 7
f 108 9 8
f 108 7 107
f 108 107 53
f 109 108 53
f 109 9 108
f 109 53 54
f 110 10 9
f 110 9 109
f 110 109 54
f 111 11 10
f 111 54 11
f 111 10 110
f 111 110 54
f 112 56 57
f 112 57 58
f 113 11 54
f 113 54 55
f 114 56 112
f 114 112 58
f 114 55 56
f 115 12 11
f 115 11 113
f 116 55 114
f 116 113 55
f 117 113 116
f 117 12 115
f 117 115 113
f 118 114 58
f 118 58 59
f 118 116 114
f 119 116 118
f 120 13 12
f 120 116 119
f 120 12 117
f 120 117 116
f 121 119 118
f 121 118 59
f 121 59 60
f 122 121 60
f 122 13 120
f 122 119 121
f 122 120 119
f 123 14 13
f 123 122 60
f 123 13 122
f 124 14 123
f 124 123 60
f 125 15 14
f 125 16 15
f 125 14 124
f 125 124 60
f 126 16 125
f 126 60 61
f 126 125 60
f 127 17 16
f 127 16 126
f 127 126 61
f 128 18 17
f 128 61 18
f 128 17 127
f 128 127 61
f 129 61 62
f 130 62 63
f 131 19 61
f 131 61 129
f 132 62 130
f 132 129 62
f 133 63 64
f 133 64 65
f 134 131 129
f 134 20 19
f 134 129 132
f 134 19 131
f 135 133 65
f 135 65 66
f 135 130 63
f 135 63 133
f 136 132 130
f 136 134 132
f 136 135 66
f 136 130 135
f 137 20 134
f 137 134 136
f 138 136 66
f 138 137 136
f 139 21 20
f 139 137 138
f 139 20 137
f 140 138 66
f 140 66 67
f 141 21 139
f 141 139 138
f 141 138 140
f 141 140 67
f 142 22 21
f 142 23 22
f 142 21 141
f 142 141 67
f 143 142 67
f 143 23 142
f 144 24 23
f 144 143 67
f 144 67 68
f 144 23 143
f 145 25 24
f 145 24 144
f 145 144 68
f 146 26 25
f 146 145 68
f 146 25 145
f 146 68 26
f 147 68 69
f 147 26 68
f 148 69 70
f 148 70 71
f 149 27 26
f 149 26 147
f 150 147 69
f 150 69 148
f 150 149 147
f 151 27 149
f 151 149 150
f 152 148 71
f 152 150 148
f 152 71 72
f 152 72 73
f 153 151 150
f 153 150 152
f 154 28 27
f 154 27 151
f 154 151 153
f 155 153 152
f 155 152 73
f 155 73 74
f 156 28 154
f 156 154 153
f 156 155 74
f 156 153 155
f 157 29 28
f 157 28 156
f 157 156 74
f 158 157 74
f 158 29 157
f 159 30 29
f 159 158 74
f 159 29 158
f 160 31 30
f 160 74 75
f 160 30 159
f 160 159 74
f 161 160 75
f 161 31 160
f 161 32 31
f 162 161 75
f 162 75 33
f 162 33 32
f 162 32 161
f 163 75 76
f 164 76 77
f 165 34 75
f 165 75 163
f 166 165 163
f 166 163 76
f 166 76 164
f 167 77 78
f 167 78 79
f 168 165 166
f 168 35 34
f 168 34 165
f 169 167 79
f 169 77 167
f 169 79 80
f 169 164 77
f 170 168 166
f 170 169 80
f 170 164 169
f 170 166 164
f 171 168 170
f 171 35 168
f 172 170 80
f 172 171 170
f 173 35 171
f 173 171 172
f 173 36 35
f 174 172 80
f 174 80 81
f 175 172 174
f 175 173 172
f 175 36 173
f 175 174 81
f 176 36 175
f 176 175 81
f 176 37 36
f 177 38 37
f 177 176 81
f 177 37 176
f 178 38 177
f 178 39 38
f 178 177 81
f 178 81 82
f 179 39 178
f 179 40 39
f 179 178 82
f 180 41 40
f 180 40 179
f 180 179 82
f 180 82 41
f 181 84 85
f 181 85 86
f 182 41 82
f 182 82 83
f 183 84 181
f 183 181 86
f 183 83 84
f 184 42 41
f 184 41 182
f 185 182 83
f 185 83 183
f 186 182 185
f 186 42 184
f 186 184 182
f 187 183 86
f 187 86 87
f 188 183 187
f 188 185 183
f 189 43 42
f 189 42 186
f 189 186 185
f 189 185 188
f 190 188 187
f 190 187 87
f 190 189 188
f 190 87 88
f 191 190 88
f 191 43 189
f 191 189 190
f 192 44 43
f 192 88 44
f 192 191 88
f 192 43 191
f 56 194 57
f 56 195 194
f 55 196 195
f 55 197 196
f 55 195 56
f 54 198 197
f 54 197 55
f 53 199 198
f 53 198 54
f 52 199 53
f 51 200 199
f 51 199 52
f 50 193 200
f 50 200 51
f 63 201 64
f 63 202 201
f 62 203 202
f 62 204 203
f 62 202 63
f 61 205 204
f 61 204 62
f 60 206 205
f 60 205 61
f 59 206 60
f 58 207 206
f 58 206 59
f 57 194 207
f 57 207 58
f 84 209 85
f 84 210 209
f 83 211 210
f 83 212 211
f 83 210 84
f 82 213 212
f 82 212 83
f 81 214 213
f 81 213 82
f 80 214 81
f 79 215 214
f 79 214 80
f 78 208 215
f 78 215 79
f 50 216 193
f 49 217 216
f 49 216 50
f 48 218 217
f 48 217 49
f 47 219 218
f 47 218 48
f 46 220 219
f 46 219 47
f 89 221 220
f 89 220 46
f 88 222 221
f 88 221 89
f 87 223 222
f 87 222 88
f 86 209 223
f 86 223 87
f 85 209 86
f 70 224 71
f 70 225 224
f 69 226 225
f 69 227 226
f 69 225 70
f 68 228 227
f 68 227 69
f 67 229 228
f 67 228 68
f 66 229 67
f 65 230 229
f 65 229 66
f 64 201 230
f 64 230 65
f 77 208 78
f 77 231 208
f 76 232 231
f 76 233 232
f 76 231 77
f 75 234 233
f 75 233 76
f 74 235 234
f 74 234 75
f 73 235 74
f 72 236 235
f 72 235 73
f 71 224 236
f 71 236 72
f 265 40 41
f 266 40 265
f 266 39 40
f 264 41 42
f 264 265 41
f 267 39 266
f 267 38 39
f 263 264 42
f 263 42 43
f 268 38 267
f 268 37 38
f 262 263 43
f 262 43 44
f 269 36 37
f 269 37 268
f 261 262 44
f 261 44 45
f 270 36 269
f 270 35 36
f 260 261 45
f 260 45 1
f 271 35 270
f 271 34 35
f 259 1 2
f 259 260 1
f 272 33 34
f 272 34 271
f 258 2 3
f 258 259 2
f 273 32 33
f 273 33 272
f 257 3 4
f 257 258 3
f 274 31 32
f 274 32 273
f 256 4 5
f 256 257 4
f 275 30 31
f 275 31 274
f 255 5 6
f 255 256 5
f 276 30 275
f 254 255 6
f 29 30 276
f 277 29 276
f 7 254 6
f 253 254 7
f 28 277 278
f 28 29 277
f 8 252 253
f 8 253 7
f 27 278 279
f 27 28 278
f 9 251 252
f 9 252 8
f 26 27 279
f 26 279 280
f 10 251 9
f 10 250 251
f 25 26 280
f 25 280 281
f 11 250 10
f 11 249 250
f 24 25 281
f 24 281 237
f 12 249 11
f 12 248 249
f 23 24 237
f 23 237 238
f 13 248 12
f 13 247 248
f 22 23 238
f 22 238 239
f 14 247 13
f 14 246 247
f 21 22 239
f 21 239 240
f 15 245 246
f 15 246 14
f 20 240 241
f 20 21 240
f 16 244 245
f 16 245 15
f 19 241 242
f 19 20 241
f 17 243 244
f 17 244 16
f 18 242 243
f 18 19 242
f 18 243 17
f 326 282 220
f 221 326 220
f 309 310 234
f 294 295 205
f 219 284 218
f 283 284 219
f 220 283 219
f 282 283 220
f 327 221 325
f 327 325 326
f 327 326 221
f 328 325 221
f 328 221 222
f 329 222 223
f 330 324 325
f 330 325 328
f 331 223 209
f 331 209 210
f 332 222 329
f 332 328 222
f 333 329 223
f 333 331 210
f 333 223 331
f 334 330 328
f 334 323 324
f 334 328 332
f 334 324 330
f 335 329 333
f 335 332 329
f 336 333 210
f 336 210 211
f 337 323 334
f 337 334 332
f 337 332 335
f 338 335 333
f 338 336 211
f 338 333 336
f 339 337 335
f 339 323 337
f 339 335 338
f 340 339 338
f 340 338 211
f 341 339 340
f 341 322 323
f 341 323 339
f 342 340 211
f 342 211 212
f 343 341 340
f 343 322 341
f 343 342 212
f 343 340 342
f 344 321 322
f 344 343 212
f 344 322 343
f 345 320 321
f 345 321 344
f 345 344 212
f 346 345 212
f 346 319 320
f 346 320 345
f 346 212 213
f 347 319 346
f 347 346 213
f 347 318 319
f 348 213 317
f 348 317 318
f 348 318 347
f 348 347 213
f 349 215 208
f 349 208 231
f 350 317 213
f 350 213 214
f 351 215 349
f 351 349 231
f 351 214 215
f 351 350 214
f 352 316 317
f 352 317 350
f 353 350 351
f 354 350 353
f 354 352 350
f 354 316 352
f 355 351 231
f 355 231 232
f 356 351 355
f 356 353 351
f 357 316 354
f 357 315 316
f 357 353 356
f 357 354 353
f 358 356 355
f 358 355 232
f 358 232 233
f 359 315 357
f 359 357 356
f 359 356 358
f 359 358 233
f 360 315 359
f 360 314 315
f 360 359 233
f 361 313 314
f 361 314 360
f 361 360 233
f 362 312 313
f 362 313 361
f 362 361 233
f 363 312 362
f 363 233 234
f 363 362 233
f 364 311 312
f 364 312 363
f 364 363 234
f 365 310 311
f 365 311 364
f 365 234 310
f 365 364 234
f 366 234 235
f 367 235 236
f 368 309 234
f 368 234 366
f 369 235 367
f 369 366 235
f 370 236 224
f 370 224 225
f 371 368 366
f 371 308 309
f 371 366 369
f 371 309 368
f 372 370 225
f 372 225 226
f 372 367 236
f 372 236 370
f 373 369 367
f 373 372 226
f 373 367 372
f 374 308 371
f 374 371 369
f 374 369 373
f 375 373 226
f 376 374 373
f 376 373 375
f 376 307 308
f 376 308 374
f 377 375 226
f 377 226 227
f 378 375 377
f 378 307 376
f 378 377 227
f 378 376 375
f 379 305 306
f 379 306 307
f 379 307 378
f 379 378 227
f 380 379 227
f 380 305 379
f 381 304 305
f 381 380 227
f 381 227 228
f 381 305 380
f 382 303 304
f 382 304 381
f 382 381 228
f 383 302 303
f 383 303 382
f 383 382 228
f 383 228 302
f 384 228 229
f 384 302 228
f 385 229 230
f 385 230 201
f 386 301 302
f 386 302 384
f 387 384 229
f 387 229 385
f 388 384 387
f 388 386 384
f 388 301 386
f 389 385 201
f 389 201 202
f 389 202 203
f 390 387 385
f 390 385 389
f 391 300 301
f 391 388 387
f 391 301 388
f 391 387 390
f 392 390 389
f 392 389 203
f 392 203 204
f 393 390 392
f 393 391 390
f 393 392 204
f 393 300 391
f 394 299 300
f 394 300 393
f 394 393 204
f 395 394 204
f 395 299 394
f 396 298 299
f 396 395 204
f 396 299 395
f 397 298 396
f 397 297 298
f 397 204 205
f 397 396 204
f 398 295 296
f 398 296 297
f 398 297 397
f 398 397 205
f 399 295 398
f 399 205 295
f 399 398 205
f 400 205 206
f 401 206 207
f 402 294 205
f 402 205 400
f 403 400 206
f 403 206 401
f 404 207 194
f 404 194 195
f 405 402 400
f 405 293 294
f 405 294 402
f 405 400 403
f 406 404 195
f 406 207 404
f 406 195 196
f 406 401 207
f 407 403 401
f 407 406 196
f 407 401 406
f 408 293 405
f 408 405 403
f 408 403 407
f 409 407 196
f 410 292 293
f 410 408 407
f 410 293 408
f 410 407 409
f 411 409 196
f 411 410 409
f 411 196 197
f 412 292 410
f 412 410 411
f 412 411 197
f 413 291 292
f 413 412 197
f 413 292 412
f 414 290 291
f 414 413 197
f 414 291 413
f 415 289 290
f 415 414 197
f 415 290 414
f 415 197 198
f 416 288 289
f 416 289 415
f 416 415 198
f 417 287 288
f 417 288 416
f 417 416 198
f 417 198 287
f 418 200 193
f 418 193 216
f 419 287 198
f 419 198 199
f 420 200 418
f 420 418 216
f 420 199 200
f 421 286 287
f 421 287 419
f 422 419 199
f 422 199 420
f 423 419 422
f 423 286 421
f 423 421 419
f 424 420 216
f 424 422 420
f 424 216 217
f 425 422 424
f 426 285 286
f 426 286 423
f 426 423 422
f 426 422 425
f 427 424 217
f 427 425 424
f 427 217 218
f 428 285 426
f 428 427 218
f 428 426 425
f 428 425 427
f 429 284 285
f 429 218 284
f 429 285 428
f 429 428 218
f 281 430 237
f 281 431 430
f 280 431 281
f 280 432 431
f 279 432 280
f 279 433 432
f 278 433 279
f 278 434 433
f 277 434 278
f 277 435 434
f 276 435 277
f 276 436 435
f 275 436 276
f 275 437 436
f 274 437 275
f 274 438 437
f 273 438 274
f 273 439 438
f 272 439 273
f 272 440 439
f 271 440 272
f 271 441 440
f 270 441 271
f 270 442 441
f 269 442 270
f 269 443 442
f 268 443 269
f 268 444 443
f 267 444 268
f 267 445 444
f 266 445 267
f 266 446 445
f 265 446 266
f 265 447 446
f 264 448 447
f 264 447 265
f 263 449 448
f 263 448 264
f 262 450 449
f 262 449 263
f 261 451 450
f 261 450 262
f 260 452 451
f 260 451 261
f 259 453 452
f 259 452 260
f 454 453 259
f 258 454 259
f 257 455 454
f 257 454 258
f 256 456 455
f 256 455 257
f 255 456 256
f 255 457 456
f 254 457 255
f 254 458 457
f 253 458 254
f 253 459 458
f 252 459 253
f 252 460 459
f 251 460 252
f 251 461 460
f 250 461 251
f 250 462 461
f 249 462 250
f 249 463 462
f 248 463 249
f 248 464 463
f 247 464 248
f 247 465 464
f 246 465 247
f 246 466 465
f 467 466 246
f 245 467 246
f 244 467 245
f 244 468 467
f 469 468 244
f 243 469 244
f 470 469 243
f 242 470 243
f 241 470 242
f 241 471 470
f 240 471 241
f 240 472 471
f 239 472 240
f 239 473 472
f 474 473 239
f 238 474 239
f 237 474 238
f 237 430 474
f 492 322 321
f 491 492 321
f 491 321 320
f 493 323 322
f 493 322 492
f 490 491 320
f 490 320 319
f 494 323 493
f 494 324 323
f 489 490 319
f 489 319 318
f 495 324 494
f 495 325 324
f 488 318 317
f 488 489 318
f 496 325 495
f 496 326 325
f 487 317 316
f 487 488 317
f 497 326 496
f 497 282 326
f 486 487 316
f 486 316 315
f 498 283 282
f 498 282 497
f 485 486 315
f 485 315 314
f 499 284 283
f 499 283 498
f 484 485 314
f 484 314 313
f 500 285 284
f 500 284 499
f 483 313 312
f 483 484 313
f 501 286 285
f 501 285 500
f 482 312 311
f 482 483 312
f 502 287 286
f 502 286 501
f 481 482 311
f 503 287 502
f 310 481 311
f 480 481 310
f 288 287 503
f 504 288 503
f 309 479 480
f 309 480 310
f 289 504 505
f 289 288 504
f 308 478 479
f 308 479 309
f 290 505 506
f 290 289 505
f 307 478 308
f 307 477 478
f 291 290 506
f 291 506 507
f 306 477 307
f 306 476 477
f 292 291 507
f 292 507 508
f 305 476 306
f 305 475 476
f 293 508 509
f 293 292 508
f 304 475 305
f 304 519 475
f 294 293 509
f 294 509 510
f 303 519 304
f 303 518 519
f 295 294 510
f 295 510 511
f 302 518 303
f 302 517 518
f 296 295 511
f 296 511 512
f 301 517 302
f 301 516 517
f 297 296 512
f 297 512 513
f 300 516 301
f 300 515 516
f 298 297 513
f 298 513 514
f 299 515 300
f 299 298 514
f 299 514 515
f 520 474 430
f 521 474 520
f 521 473 474
f 522 473 521
f 522 472 473
f 523 472 522
f 523 471 472
f 524 471 523
f 524 470 471
f 525 470 524
f 525 469 470
f 526 469 525
f 526 468 469
f 527 468 526
f 527 467 468
f 528 467 527
f 528 466 467
f 529 466 528
f 529 465 466
f 530 465 529
f 530 464 465
f 531 464 530
f 531 463 464
f 532 463 531
f 532 462 463
f 533 462 532
f 533 461 462
f 534 461 533
f 534 460 461
f 535 460 534
f 536 460 535
f 536 458 459
f 536 459 460
f 537 458 536
f 537 457 458
f 538 457 537
f 538 456 457
f 539 455 456
f 539 456 538
f 540 454 455
f 540 455 539
f 541 454 540
f 542 452 453
f 542 453 454
f 542 454 541
f 543 451 452
f 543 452 542
f 544 451 543
f 545 449 450
f 545 450 451
f 545 451 544
f 546 448 449
f 546 449 545
f 547 448 546
f 548 448 547
f 548 447 448
f 549 447 548
f 549 445 446
f 549 446 447
f 550 445 549
f 550 444 445
f 551 444 550
f 551 443 444
f 552 443 551
f 552 442 443
f 553 442 552
f 553 441 442
f 554 441 553
f 555 441 554
f 555 439 440
f 555 440 441
f 556 439 555
f 556 438 439
f 557 438 556
f 557 437 438
f 558 437 557
f 558 436 437
f 559 436 558
f 560 435 436
f 560 436 559
f 561 434 435
f 561 435 560
f 562 432 433
f 562 433 434
f 562 434 561
f 563 432 562
f 564 431 432
f 564 432 563
f 520 430 431
f 520 431 564
f 519 520 475
f 519 521 520
f 518 521 519
f 518 522 521
f 517 522 518
f 517 523 522
f 516 523 517
f 516 524 523
f 515 524 516
f 515 525 524
f 514 525 515
f 514 526 525
f 513 526 514
f 513 527 526
f 512 527 513
f 512 528 527
f 511 528 512
f 511 529 528
f 510 529 511
f 510 530 529
f 509 530 510
f 509 531 530
f 508 531 509
f 508 532 531
f 507 532 508
f 507 533 532
f 506 533 507
f 506 534 533
f 505 534 506
f 505 535 534
f 504 535 505
f 504 536 535
f 503 536 504
f 503 537 536
f 502 538 537
f 502 537 503
f 501 539 538
f 501 538 502
f 500 540 539
f 500 539 501
f 499 541 540
f 499 540 500
f 498 542 541
f 498 541 499
f 497 543 542
f 497 542 498
f 496 544 543
f 496 543 497
f 545 544 496
f 495 545 496
f 494 546 545
f 494 545 495
f 493 546 494
f 493 547 546
f 492 547 493
f 492 548 547
f 491 548 492
f 491 549 548
f 490 549 491
f 490 550 549
f 489 550 490
f 489 551 550
f 488 551 489
f 488 552 551
f 553 552 488
f 487 553 488
f 486 553 487
f 486 554 553
f 485 554 486
f 485 555 554
f 484 555 485
f 484 556 555
f 483 556 484
f 483 557 556
f 482 557 483
f 482 558 557
f 481 558 482
f 481 559 558
f 560 559 481
f 480 560 481
f 479 560 480
f 479 561 560
f 478 561 479
f 478 562 561
f 477 562 478
f 477 563 562
f 476 563 477
f 476 564 563
f 520 564 476
f 475 520 476

