# https://github.com/mikedh/trimesh
v 3.18500000 -5.85000000 -2.06154796
v 3.18500000 -5.85000000 2.06154796
v 3.68500000 -6.35000000 2.06154796
v 3.68500000 -6.35000000 -2.06154796
v 3.57789317 -6.35000000 2.41203348
v 3.61572070 -6.35000000 2.34803813
v 3.64570820 -6.35000000 2.28001552
v 3.66743411 -6.35000000 2.20892184
v 3.68059304 -6.35000000 2.13575649
v 3.18252562 -5.85000000 2.08649532
v 3.17519889 -5.85000000 2.11047056
v 3.16330531 -5.85000000 2.13253945
v 3.34594506 -6.01666667 2.11923463
v 3.32900321 -6.01666667 2.17467343
v 3.50936451 -6.18333333 2.15197394
v 3.48280753 -6.18333333 2.23887631
v 3.16330531 -5.85000000 -2.13253945
v 3.17519889 -5.85000000 -2.11047056
v 3.18252562 -5.85000000 -2.08649532
v 3.68059304 -6.35000000 -2.13575649
v 3.66743411 -6.35000000 -2.20892184
v 3.64570820 -6.35000000 -2.28001552
v 3.61572070 -6.35000000 -2.34803813
v 3.57789317 -6.35000000 -2.41203348
v 3.32900321 -6.01666667 -2.17467343
v 3.34594506 -6.01666667 -2.11923463
v 3.48280753 -6.18333333 -2.23887631
v 3.50936451 -6.18333333 -2.15197394
v 2.41203348 -6.35000000 3.57789317
v 2.84952582 -6.35000000 3.24028203
v 3.24028203 -6.35000000 2.84952582
v 2.86481482 -5.85000000 2.51933743
v 2.51933743 -5.85000000 2.86481482
v 2.13253945 -5.85000000 3.16330531
v 2.13253945 -5.85000000 -3.16330531
v 2.51933743 -5.85000000 -2.86481482
v 2.86481482 -5.85000000 -2.51933743
v 3.24028203 -6.35000000 -2.84952582
v 2.84952582 -6.35000000 -3.24028203
v 2.41203348 -6.35000000 -3.57789317
v 2.06154796 -6.35000000 3.68500000
v 2.13575649 -6.35000000 3.68059304
v 2.20892184 -6.35000000 3.66743411
v 2.28001552 -6.35000000 3.64570820
v 2.34803813 -6.35000000 3.61572070
v 2.11047056 -5.85000000 3.17519889
v 2.08649532 -5.85000000 3.18252562
v 2.06154796 -5.85000000 3.18500000
v 2.17467343 -6.01666667 3.32900321
v 2.11923463 -6.01666667 3.34594506
v 2.23887631 -6.18333333 3.48280753
v 2.15197394 -6.18333333 3.50936451
v 2.06154796 -5.85000000 -3.18500000
v 2.08649532 -5.85000000 -3.18252562
v 2.11047056 -5.85000000 -3.17519889
v 2.34803813 -6.35000000 -3.61572070
v 2.28001552 -6.35000000 -3.64570820
v 2.20892184 -6.35000000 -3.66743411
v 2.13575649 -6.35000000 -3.68059304
v 2.06154796 -6.35000000 -3.68500000
v 2.11923463 -6.01666667 -3.34594506
v 2.17467343 -6.01666667 -3.32900321
v 2.15197394 -6.18333333 -3.50936451
v 2.23887631 -6.18333333 -3.48280753
v -2.06154796 -6.35000000 3.68500000
v -2.06154796 -5.85000000 3.18500000
v -2.06154796 -5.85000000 -3.18500000
v -2.06154796 -6.35000000 -3.68500000
v -2.41203348 -6.35000000 3.57789317
v -2.34803813 -6.35000000 3.61572070
v -2.28001552 -6.35000000 3.64570820
v -2.20892184 -6.35000000 3.66743411
v -2.13575649 -6.35000000 3.68059304
v -2.08649532 -5.85000000 3.18252562
v -2.11047056 -5.85000000 3.17519889
v -2.13253945 -5.85000000 3.16330531
v -2.11923463 -6.01666667 3.34594506
v -2.17467343 -6.01666667 3.32900321
v -2.15197394 -6.18333333 3.50936451
v -2.23887631 -6.18333333 3.48280753
v -2.13253945 -5.85000000 -3.16330531
v -2.11047056 -5.85000000 -3.17519889
v -2.08649532 -5.85000000 -3.18252562
v -2.13575649 -6.35000000 -3.68059304
v -2.20892184 -6.35000000 -3.66743411
v -2.28001552 -6.35000000 -3.64570820
v -2.34803813 -6.35000000 -3.61572070
v -2.41203348 -6.35000000 -3.57789317
v -2.17467343 -6.01666667 -3.32900321
v -2.11923463 -6.01666667 -3.34594506
v -2.23887631 -6.18333333 -3.48280753
v -2.15197394 -6.18333333 -3.50936451
v -3.57789317 -6.35000000 2.41203348
v -3.24028203 -6.35000000 2.84952582
v -2.84952582 -6.35000000 3.24028203
v -2.51933743 -5.85000000 2.86481482
v -2.86481482 -5.85000000 2.51933743
v -3.16330531 -5.85000000 2.13253945
v -3.16330531 -5.85000000 -2.13253945
v -2.86481482 -5.85000000 -2.51933743
v -2.51933743 -5.85000000 -2.86481482
v -2.84952582 -6.35000000 -3.24028203
v -3.24028203 -6.35000000 -2.84952582
v -3.57789317 -6.35000000 -2.41203348
v -3.68500000 -6.35000000 2.06154796
v -3.68059304 -6.35000000 2.13575649
v -3.66743411 -6.35000000 2.20892184
v -3.64570820 -6.35000000 2.28001552
v -3.61572070 -6.35000000 2.34803813
v -3.17519889 -5.85000000 2.11047056
v -3.18252562 -5.85000000 2.08649532
v -3.18500000 -5.85000000 2.06154796
v -3.32900321 -6.01666667 2.17467343
v -3.34594506 -6.01666667 2.11923463
v -3.48280753 -6.18333333 2.23887631
v -3.50936451 -6.18333333 2.15197394
v -3.18500000 -5.85000000 -2.06154796
v -3.18252562 -5.85000000 -2.08649532
v -3.17519889 -5.85000000 -2.11047056
v -3.61572070 -6.35000000 -2.34803813
v -3.64570820 -6.35000000 -2.28001552
v -3.66743411 -6.35000000 -2.20892184
v -3.68059304 -6.35000000 -2.13575649
v -3.68500000 -6.35000000 -2.06154796
v -3.34594506 -6.01666667 -2.11923463
v -3.32900321 -6.01666667 -2.17467343
v -3.50936451 -6.18333333 -2.15197394
v -3.48280753 -6.18333333 -2.23887631
v 3.68500000 6.35000000 -2.06154796
v 3.68500000 6.35000000 2.06154796
v 3.18500000 5.85000000 2.06154796
v 3.18500000 5.85000000 -2.06154796
v 3.16330531 5.85000000 2.13253945
v 3.17519889 5.85000000 2.11047056
v 3.18252562 5.85000000 2.08649532
v 3.68059304 6.35000000 2.13575649
v 3.66743411 6.35000000 2.20892184
v 3.64570820 6.35000000 2.28001552
v 3.61572070 6.35000000 2.34803813
v 3.57789317 6.35000000 2.41203348
v 3.32900321 6.01666667 2.17467343
v 3.34594506 6.01666667 2.11923463
v 3.48280753 6.18333333 2.23887631
v 3.50936451 6.18333333 2.15197394
v 3.57789317 6.35000000 -2.41203348
v 3.61572070 6.35000000 -2.34803813
v 3.64570820 6.35000000 -2.28001552
v 3.66743411 6.35000000 -2.20892184
v 3.68059304 6.35000000 -2.13575649
v 3.18252562 5.85000000 -2.08649532
v 3.17519889 5.85000000 -2.11047056
v 3.16330531 5.85000000 -2.13253945
v 3.34594506 6.01666667 -2.11923463
v 3.32900321 6.01666667 -2.17467343
v 3.50936451 6.18333333 -2.15197394
v 3.48280753 6.18333333 -2.23887631
v 2.13253945 5.85000000 3.16330531
v 2.51933743 5.85000000 2.86481482
v 2.86481482 5.85000000 2.51933743
v 3.24028203 6.35000000 2.84952582
v 2.84952582 6.35000000 3.24028203
v 2.41203348 6.35000000 3.57789317
v 2.41203348 6.35000000 -3.57789317
v 2.84952582 6.35000000 -3.24028203
v 3.24028203 6.35000000 -2.84952582
v 2.86481482 5.85000000 -2.51933743
v 2.51933743 5.85000000 -2.86481482
v 2.13253945 5.85000000 -3.16330531
v 2.06154796 5.85000000 3.18500000
v 2.08649532 5.85000000 3.18252562
v 2.11047056 5.85000000 3.17519889
v 2.34803813 6.35000000 3.61572070
v 2.28001552 6.35000000 3.64570820
v 2.20892184 6.35000000 3.66743411
v 2.13575649 6.35000000 3.68059304
v 2.06154796 6.35000000 3.68500000
v 2.11923463 6.01666667 3.34594506
v 2.17467343 6.01666667 3.32900321
v 2.15197394 6.18333333 3.50936451
v 2.23887631 6.18333333 3.48280753
v 2.06154796 6.35000000 -3.68500000
v 2.13575649 6.35000000 -3.68059304
v 2.20892184 6.35000000 -3.66743411
v 2.28001552 6.35000000 -3.64570820
v 2.34803813 6.35000000 -3.61572070
v 2.11047056 5.85000000 -3.17519889
v 2.08649532 5.85000000 -3.18252562
v 2.06154796 5.85000000 -3.18500000
v 2.17467343 6.01666667 -3.32900321
v 2.11923463 6.01666667 -3.34594506
v 2.23887631 6.18333333 -3.48280753
v 2.15197394 6.18333333 -3.50936451
v -2.06154796 5.85000000 3.18500000
v -2.06154796 6.35000000 3.68500000
v -2.06154796 6.35000000 -3.68500000
v -2.06154796 5.85000000 -3.18500000
v -2.13253945 5.85000000 3.16330531
v -2.11047056 5.85000000 3.17519889
v -2.08649532 5.85000000 3.18252562
v -2.13575649 6.35000000 3.68059304
v -2.20892184 6.35000000 3.66743411
v -2.28001552 6.35000000 3.64570820
v -2.34803813 6.35000000 3.61572070
v -2.41203348 6.35000000 3.57789317
v -2.17467343 6.01666667 3.32900321
v -2.11923463 6.01666667 3.34594506
v -2.23887631 6.18333333 3.48280753
v -2.15197394 6.18333333 3.50936451
v -2.41203348 6.35000000 -3.57789317
v -2.34803813 6.35000000 -3.61572070
v -2.28001552 6.35000000 -3.64570820
v -2.20892184 6.35000000 -3.66743411
v -2.13575649 6.35000000 -3.68059304
v -2.08649532 5.85000000 -3.18252562
v -2.11047056 5.85000000 -3.17519889
v -2.13253945 5.85000000 -3.16330531
v -2.11923463 6.01666667 -3.34594506
v -2.17467343 6.01666667 -3.32900321
v -2.15197394 6.18333333 -3.50936451
v -2.23887631 6.18333333 -3.48280753
v -3.16330531 5.85000000 2.13253945
v -2.86481482 5.85000000 2.51933743
v -2.51933743 5.85000000 2.86481482
v -2.84952582 6.35000000 3.24028203
v -3.24028203 6.35000000 2.84952582
v -3.57789317 6.35000000 2.41203348
v -3.57789317 6.35000000 -2.41203348
v -3.24028203 6.35000000 -2.84952582
v -2.84952582 6.35000000 -3.24028203
v -2.51933743 5.85000000 -2.86481482
v -2.86481482 5.85000000 -2.51933743
v -3.16330531 5.85000000 -2.13253945
v -3.18500000 5.85000000 2.06154796
v -3.18252562 5.85000000 2.08649532
v -3.17519889 5.85000000 2.11047056
v -3.61572070 6.35000000 2.34803813
v -3.64570820 6.35000000 2.28001552
v -3.66743411 6.35000000 2.20892184
v -3.68059304 6.35000000 2.13575649
v -3.68500000 6.35000000 2.06154796
v -3.34594506 6.01666667 2.11923463
v -3.32900321 6.01666667 2.17467343
v -3.50936451 6.18333333 2.15197394
v -3.48280753 6.18333333 2.23887631
v -3.68500000 6.35000000 -2.06154796
v -3.68059304 6.35000000 -2.13575649
v -3.66743411 6.35000000 -2.20892184
v -3.64570820 6.35000000 -2.28001552
v -3.61572070 6.35000000 -2.34803813
v -3.17519889 5.85000000 -2.11047056
v -3.18252562 5.85000000 -2.08649532
v -3.18500000 5.85000000 -2.06154796
v -3.32900321 6.01666667 -2.17467343
v -3.34594506 6.01666667 -2.11923463
v -3.48280753 6.18333333 -2.23887631
v -3.50936451 6.18333333 -2.15197394
v 5.46558069 -6.35000000 5.00108293
v 5.34335919 -6.35000000 4.53023192
v 5.18082373 -6.35000000 4.12377665
v 5.02474701 -6.35000000 3.84540768
v 4.89675290 -6.35000000 3.67211963
v 4.81494113 -6.35000000 3.58453812
v 4.65376969 -6.35000000 3.48283972
v 4.55987252 -6.35000000 3.41262842
v 4.44550217 -6.35000000 3.30671895
v 4.36286896 -6.35000000 3.20650280
v 4.30217503 -6.35000000 3.10661295
v 4.26117844 -6.35000000 3.00609740
v 4.23982795 -6.35000000 2.90826640
v 4.23667081 -6.35000000 2.81407683
v 4.25053027 -6.35000000 2.72471963
v 4.28031938 -6.35000000 2.64174612
v 4.41150446 -6.35000000 2.41149615
v 4.45833821 -6.35000000 2.34691112
v 4.50397109 -6.35000000 2.30114535
v 4.57583737 -6.35000000 2.24923172
v 4.65816606 -6.35000000 2.20984119
v 4.74991723 -6.35000000 2.18386077
v 4.86000773 -6.35000000 2.17170361
v 4.96837929 -6.35000000 2.17612127
v 5.09801477 -6.35000000 2.19935652
v 5.25350846 -6.35000000 2.24970769
v 5.34974862 -6.35000000 2.29215588
v 5.48671687 -6.35000000 2.36821913
v 5.59952079 -6.35000000 2.39898298
v 5.80094459 -6.35000000 2.42614501
v 6.10583698 -6.35000000 2.42839474
v 6.51439153 -6.35000000 2.37837753
v 6.79172315 -6.35000000 2.31542333
v 7.06385521 -6.35000000 2.23279026
v 7.06385521 6.35000000 2.23279026
v 6.59497552 6.35000000 2.36236884
v 6.16170720 6.35000000 2.42483664
v 5.84259424 6.35000000 2.42885472
v 5.62852533 6.35000000 2.40465259
v 5.51177163 6.35000000 2.37759227
v 5.34311252 6.35000000 2.28886291
v 5.23535916 6.35000000 2.24265123
v 5.08645370 6.35000000 2.19655834
v 4.95834736 6.35000000 2.17510395
v 4.84149325 6.35000000 2.17248639
v 4.73394593 6.35000000 2.18724009
v 4.63854656 6.35000000 2.21766551
v 4.55539743 6.35000000 2.26202613
v 4.48494155 6.35000000 2.31870738
v 4.42797894 6.35000000 2.38599226
v 4.29416916 6.35000000 2.61472686
v 4.26165376 6.35000000 2.68757858
v 4.24483588 6.35000000 2.74998071
v 4.23581049 6.35000000 2.83817555
v 4.24286164 6.35000000 2.92916955
v 4.26623752 6.35000000 3.02161860
v 4.31075436 6.35000000 3.12303835
v 4.36876594 6.35000000 3.21468205
v 4.45370600 6.35000000 3.31533204
v 4.57505824 6.35000000 3.42481795
v 4.65993954 6.35000000 3.48694027
v 4.79429636 6.35000000 3.56752663
v 4.87734060 6.35000000 3.64983577
v 5.00157551 6.35000000 3.81069287
v 5.15597003 6.35000000 4.07361257
v 5.31693112 6.35000000 4.45243979
v 5.40107700 6.35000000 4.72409312
v 5.46558069 6.35000000 5.00108293
v 2.23279026 -6.35000000 7.06385521
v 2.36236884 -6.35000000 6.59497552
v 2.42483664 -6.35000000 6.16170720
v 2.42885472 -6.35000000 5.84259424
v 2.40465259 -6.35000000 5.62852533
v 2.37759227 -6.35000000 5.51177163
v 2.28886291 -6.35000000 5.34311252
v 2.24265123 -6.35000000 5.23535916
v 2.19655834 -6.35000000 5.08645370
v 2.17510395 -6.35000000 4.95834736
v 2.17248639 -6.35000000 4.84149325
v 2.18724009 -6.35000000 4.73394593
v 2.21766551 -6.35000000 4.63854656
v 2.26202613 -6.35000000 4.55539743
v 2.31870738 -6.35000000 4.48494155
v 2.38599226 -6.35000000 4.42797894
v 2.61472686 -6.35000000 4.29416916
v 2.68757858 -6.35000000 4.26165376
v 2.74998071 -6.35000000 4.24483588
v 2.83817555 -6.35000000 4.23581049
v 2.92916955 -6.35000000 4.24286164
v 3.02161860 -6.35000000 4.26623752
v 3.12303835 -6.35000000 4.31075436
v 3.21468205 -6.35000000 4.36876594
v 3.31533204 -6.35000000 4.45370600
v 3.42481795 -6.35000000 4.57505824
v 3.48694027 -6.35000000 4.65993954
v 3.56752663 -6.35000000 4.79429636
v 3.64983577 -6.35000000 4.87734060
v 3.81069287 -6.35000000 5.00157551
v 4.07361257 -6.35000000 5.15597003
v 4.45243979 -6.35000000 5.31693112
v 4.72409312 -6.35000000 5.40107700
v 5.00108293 -6.35000000 5.46558069
v 5.00108293 6.35000000 5.46558069
v 4.53023192 6.35000000 5.34335919
v 4.12377665 6.35000000 5.18082373
v 3.84540768 6.35000000 5.02474701
v 3.67211963 6.35000000 4.89675290
v 3.58453812 6.35000000 4.81494113
v 3.48283972 6.35000000 4.65376969
v 3.41262842 6.35000000 4.55987252
v 3.30671895 6.35000000 4.44550217
v 3.20650280 6.35000000 4.36286896
v 3.10661295 6.35000000 4.30217503
v 3.00609740 6.35000000 4.26117844
v 2.90826640 6.35000000 4.23982795
v 2.81407683 6.35000000 4.23667081
v 2.72471963 6.35000000 4.25053027
v 2.64174612 6.35000000 4.28031938
v 2.41149615 6.35000000 4.41150446
v 2.34691112 6.35000000 4.45833821
v 2.30114535 6.35000000 4.50397109
v 2.24923172 6.35000000 4.57583737
v 2.20984119 6.35000000 4.65816606
v 2.18386077 6.35000000 4.74991723
v 2.17170361 6.35000000 4.86000773
v 2.17612127 6.35000000 4.96837929
v 2.19935652 6.35000000 5.09801477
v 2.24970769 6.35000000 5.25350846
v 2.29215588 6.35000000 5.34974862
v 2.36821913 6.35000000 5.48671687
v 2.39898298 6.35000000 5.59952079
v 2.42614501 6.35000000 5.80094459
v 2.42839474 6.35000000 6.10583698
v 2.37837753 6.35000000 6.51439153
v 2.31542333 6.35000000 6.79172315
v 2.23279026 6.35000000 7.06385521
v -1.59827452 -6.35000000 7.23387319
v -1.25161634 -6.35000000 6.89260076
v -0.98088347 -6.35000000 6.54861328
v -0.81784723 -6.35000000 6.27426239
v -0.73177244 -6.35000000 6.07677222
v -0.69683051 -6.35000000 5.96213039
v -0.68934283 -6.35000000 5.77170263
v -0.67548664 -6.35000000 5.65527965
v -0.64095153 -6.35000000 5.50327729
v -0.59547841 -6.35000000 5.38160675
v -0.53931822 -6.35000000 5.27909934
v -0.47276749 -6.35000000 5.19333748
v -0.39871861 -6.35000000 5.12593191
v -0.31872662 -6.35000000 5.07610297
v -0.23441128 -6.35000000 5.04342701
v -0.14765956 -6.35000000 5.02773838
v 0.11733530 -6.35000000 5.02622301
v 0.19668445 -6.35000000 5.03448971
v 0.25913522 -6.35000000 5.05112606
v 0.34002688 -6.35000000 5.08740726
v 0.41530442 -6.35000000 5.13901074
v 0.48367970 -6.35000000 5.20547937
v 0.54925337 -6.35000000 5.29474196
v 0.59961335 -6.35000000 5.39080332
v 0.64430876 -6.35000000 5.51468856
v 0.67845022 -6.35000000 5.67452563
v 0.68980908 -6.35000000 5.77909615
v 0.69242051 -6.35000000 5.93574575
v 0.72218019 -6.35000000 6.04881874
v 0.79936908 -6.35000000 6.23683788
v 0.94986696 -6.35000000 6.50200731
v 1.19746040 -6.35000000 6.83081732
v 1.39064615 -6.35000000 7.03951645
v 1.59827452 -6.35000000 7.23387319
v 1.59827452 6.35000000 7.23387319
v 1.25161634 6.35000000 6.89260076
v 0.98088347 6.35000000 6.54861328
v 0.81784723 6.35000000 6.27426239
v 0.73177244 6.35000000 6.07677222
v 0.69683051 6.35000000 5.96213039
v 0.68934283 6.35000000 5.77170263
v 0.67548664 6.35000000 5.65527965
v 0.64095153 6.35000000 5.50327729
v 0.59547841 6.35000000 5.38160675
v 0.53931822 6.35000000 5.27909934
v 0.47276749 6.35000000 5.19333748
v 0.39871861 6.35000000 5.12593191
v 0.31872662 6.35000000 5.07610297
v 0.23441128 6.35000000 5.04342701
v 0.14765956 6.35000000 5.02773838
v -0.11733530 6.35000000 5.02622301
v -0.19668445 6.35000000 5.03448971
v -0.25913522 6.35000000 5.05112606
v -0.34002688 6.35000000 5.08740726
v -0.41530442 6.35000000 5.13901074
v -0.48367970 6.35000000 5.20547937
v -0.54925337 6.35000000 5.29474196
v -0.59961335 6.35000000 5.39080332
v -0.64430876 6.35000000 5.51468856
v -0.67845022 6.35000000 5.67452563
v -0.68980908 6.35000000 5.77909615
v -0.69242051 6.35000000 5.93574575
v -0.72218019 6.35000000 6.04881874
v -0.79936908 6.35000000 6.23683788
v -0.94986696 6.35000000 6.50200731
v -1.19746040 6.35000000 6.83081732
v -1.39064615 6.35000000 7.03951645
v -1.59827452 6.35000000 7.23387319
v -5.00108293 -6.35000000 5.46558069
v -4.53023192 -6.35000000 5.34335919
v -4.12377665 -6.35000000 5.18082373
v -3.84540768 -6.35000000 5.02474701
v -3.67211963 -6.35000000 4.89675290
v -3.58453812 -6.35000000 4.81494113
v -3.48283972 -6.35000000 4.65376969
v -3.41262842 -6.35000000 4.55987252
v -3.30671895 -6.35000000 4.44550217
v -3.20650280 -6.35000000 4.36286896
v -3.10661295 -6.35000000 4.30217503
v -3.00609740 -6.35000000 4.26117844
v -2.90826640 -6.35000000 4.23982795
v -2.81407683 -6.35000000 4.23667081
v -2.72471963 -6.35000000 4.25053027
v -2.64174612 -6.35000000 4.28031938
v -2.41149615 -6.35000000 4.41150446
v -2.34691112 -6.35000000 4.45833821
v -2.30114535 -6.35000000 4.50397109
v -2.24923172 -6.35000000 4.57583737
v -2.20984119 -6.35000000 4.65816606
v -2.18386077 -6.35000000 4.74991723
v -2.17170361 -6.35000000 4.86000773
v -2.17612127 -6.35000000 4.96837929
v -2.19935652 -6.35000000 5.09801477
v -2.24970769 -6.35000000 5.25350846
v -2.29215588 -6.35000000 5.34974862
v -2.36821913 -6.35000000 5.48671687
v -2.39898298 -6.35000000 5.59952079
v -2.42614501 -6.35000000 5.80094459
v -2.42839474 -6.35000000 6.10583698
v -2.37837753 -6.35000000 6.51439153
v -2.31542333 -6.35000000 6.79172315
v -2.23279026 -6.35000000 7.06385521
v -2.23279026 6.35000000 7.06385521
v -2.36236884 6.35000000 6.59497552
v -2.42483664 6.35000000 6.16170720
v -2.42885472 6.35000000 5.84259424
v -2.40465259 6.35000000 5.62852533
v -2.37759227 6.35000000 5.51177163
v -2.28886291 6.35000000 5.34311252
v -2.24265123 6.35000000 5.23535916
v -2.19655834 6.35000000 5.08645370
v -2.17510395 6.35000000 4.95834736
v -2.17248639 6.35000000 4.84149325
v -2.18724009 6.35000000 4.73394593
v -2.21766551 6.35000000 4.63854656
v -2.26202613 6.35000000 4.55539743
v -2.31870738 6.35000000 4.48494155
v -2.38599226 6.35000000 4.42797894
v -2.61472686 6.35000000 4.29416916
v -2.68757858 6.35000000 4.26165376
v -2.74998071 6.35000000 4.24483588
v -2.83817555 6.35000000 4.23581049
v -2.92916955 6.35000000 4.24286164
v -3.02161860 6.35000000 4.26623752
v -3.12303835 6.35000000 4.31075436
v -3.21468205 6.35000000 4.36876594
v -3.31533204 6.35000000 4.45370600
v -3.42481795 6.35000000 4.57505824
v -3.48694027 6.35000000 4.65993954
v -3.56752663 6.35000000 4.79429636
v -3.64983577 6.35000000 4.87734060
v -3.81069287 6.35000000 5.00157551
v -4.07361257 6.35000000 5.15597003
v -4.45243979 6.35000000 5.31693112
v -4.72409312 6.35000000 5.40107700
v -5.00108293 6.35000000 5.46558069
v -7.06385521 -6.35000000 2.23279026
v -6.59497552 -6.35000000 2.36236884
v -6.16170720 -6.35000000 2.42483664
v -5.84259424 -6.35000000 2.42885472
v -5.62852533 -6.35000000 2.40465259
v -5.51177163 -6.35000000 2.37759227
v -5.34311252 -6.35000000 2.28886291
v -5.23535916 -6.35000000 2.24265123
v -5.08645370 -6.35000000 2.19655834
v -4.95834736 -6.35000000 2.17510395
v -4.84149325 -6.35000000 2.17248639
v -4.73394593 -6.35000000 2.18724009
v -4.63854656 -6.35000000 2.21766551
v -4.55539743 -6.35000000 2.26202613
v -4.48494155 -6.35000000 2.31870738
v -4.42797894 -6.35000000 2.38599226
v -4.29416916 -6.35000000 2.61472686
v -4.26165376 -6.35000000 2.68757858
v -4.24483588 -6.35000000 2.74998071
v -4.23581049 -6.35000000 2.83817555
v -4.24286164 -6.35000000 2.92916955
v -4.26623752 -6.35000000 3.02161860
v -4.31075436 -6.35000000 3.12303835
v -4.36876594 -6.35000000 3.21468205
v -4.45370600 -6.35000000 3.31533204
v -4.57505824 -6.35000000 3.42481795
v -4.65993954 -6.35000000 3.48694027
v -4.79429636 -6.35000000 3.56752663
v -4.87734060 -6.35000000 3.64983577
v -5.00157551 -6.35000000 3.81069287
v -5.15597003 -6.35000000 4.07361257
v -5.31693112 -6.35000000 4.45243979
v -5.40107700 -6.35000000 4.72409312
v -5.46558069 -6.35000000 5.00108293
v -5.46558069 6.35000000 5.00108293
v -5.34335919 6.35000000 4.53023192
v -5.18082373 6.35000000 4.12377665
v -5.02474701 6.35000000 3.84540768
v -4.89675290 6.35000000 3.67211963
v -4.81494113 6.35000000 3.58453812
v -4.65376969 6.35000000 3.48283972
v -4.55987252 6.35000000 3.41262842
v -4.44550217 6.35000000 3.30671895
v -4.36286896 6.35000000 3.20650280
v -4.30217503 6.35000000 3.10661295
v -4.26117844 6.35000000 3.00609740
v -4.23982795 6.35000000 2.90826640
v -4.23667081 6.35000000 2.81407683
v -4.25053027 6.35000000 2.72471963
v -4.28031938 6.35000000 2.64174612
v -4.41150446 6.35000000 2.41149615
v -4.45833821 6.35000000 2.34691112
v -4.50397109 6.35000000 2.30114535
v -4.57583737 6.35000000 2.24923172
v -4.65816606 6.35000000 2.20984119
v -4.74991723 6.35000000 2.18386077
v -4.86000773 6.35000000 2.17170361
v -4.96837929 6.35000000 2.17612127
v -5.09801477 6.35000000 2.19935652
v -5.25350846 6.35000000 2.24970769
v -5.34974862 6.35000000 2.29215588
v -5.48671687 6.35000000 2.36821913
v -5.59952079 6.35000000 2.39898298
v -5.80094459 6.35000000 2.42614501
v -6.10583698 6.35000000 2.42839474
v -6.51439153 6.35000000 2.37837753
v -6.79172315 6.35000000 2.31542333
v -7.06385521 6.35000000 2.23279026
v -7.23387319 -6.35000000 -1.59827452
v -6.89260076 -6.35000000 -1.25161634
v -6.54861328 -6.35000000 -0.98088347
v -6.27426239 -6.35000000 -0.81784723
v -6.07677222 -6.35000000 -0.73177244
v -5.96213039 -6.35000000 -0.69683051
v -5.77170263 -6.35000000 -0.68934283
v -5.65527965 -6.35000000 -0.67548664
v -5.50327729 -6.35000000 -0.64095153
v -5.38160675 -6.35000000 -0.59547841
v -5.27909934 -6.35000000 -0.53931822
v -5.19333748 -6.35000000 -0.47276749
v -5.12593191 -6.35000000 -0.39871861
v -5.07610297 -6.35000000 -0.31872662
v -5.04342701 -6.35000000 -0.23441128
v -5.02773838 -6.35000000 -0.14765956
v -5.02622301 -6.35000000 0.11733530
v -5.03448971 -6.35000000 0.19668445
v -5.05112606 -6.35000000 0.25913522
v -5.08740726 -6.35000000 0.34002688
v -5.13901074 -6.35000000 0.41530442
v -5.20547937 -6.35000000 0.48367970
v -5.29474196 -6.35000000 0.54925337
v -5.39080332 -6.35000000 0.59961335
v -5.51468856 -6.35000000 0.64430876
v -5.67452563 -6.35000000 0.67845022
v -5.77909615 -6.35000000 0.68980908
v -5.93574575 -6.35000000 0.69242051
v -6.04881874 -6.35000000 0.72218019
v -6.23683788 -6.35000000 0.79936908
v -6.50200731 -6.35000000 0.94986696
v -6.83081732 -6.35000000 1.19746040
v -7.03951645 -6.35000000 1.39064615
v -7.23387319 -6.35000000 1.59827452
v -7.23387319 6.35000000 1.59827452
v -6.89260076 6.35000000 1.25161634
v -6.54861328 6.35000000 0.98088347
v -6.27426239 6.35000000 0.81784723
v -6.07677222 6.35000000 0.73177244
v -5.96213039 6.35000000 0.69683051
v -5.77170263 6.35000000 0.68934283
v -5.65527965 6.35000000 0.67548664
v -5.50327729 6.35000000 0.64095153
v -5.38160675 6.35000000 0.59547841
v -5.27909934 6.35000000 0.53931822
v -5.19333748 6.35000000 0.47276749
v -5.12593191 6.35000000 0.39871861
v -5.07610297 6.35000000 0.31872662
v -5.04342701 6.35000000 0.23441128
v -5.02773838 6.35000000 0.14765956
v -5.02622301 6.35000000 -0.11733530
v -5.03448971 6.35000000 -0.19668445
v -5.05112606 6.35000000 -0.25913522
v -5.08740726 6.35000000 -0.34002688
v -5.13901074 6.35000000 -0.41530442
v -5.20547937 6.35000000 -0.48367970
v -5.29474196 6.35000000 -0.54925337
v -5.39080332 6.35000000 -0.59961335
v -5.51468856 6.35000000 -0.64430876
v -5.67452563 6.35000000 -0.67845022
v -5.77909615 6.35000000 -0.68980908
v -5.93574575 6.35000000 -0.69242051
v -6.04881874 6.35000000 -0.72218019
v -6.23683788 6.35000000 -0.79936908
v -6.50200731 6.35000000 -0.94986696
v -6.83081732 6.35000000 -1.19746040
v -7.03951645 6.35000000 -1.39064615
v -7.23387319 6.35000000 -1.59827452
v -5.46558069 -6.35000000 -5.00108293
v -5.34335919 -6.35000000 -4.53023192
v -5.18082373 -6.35000000 -4.12377665
v -5.02474701 -6.35000000 -3.84540768
v -4.89675290 -6.35000000 -3.67211963
v -4.81494113 -6.35000000 -3.58453812
v -4.65376969 -6.35000000 -3.48283972
v -4.55987252 -6.35000000 -3.41262842
v -4.44550217 -6.35000000 -3.30671895
v -4.36286896 -6.35000000 -3.20650280
v -4.30217503 -6.35000000 -3.10661295
v -4.26117844 -6.35000000 -3.00609740
v -4.23982795 -6.35000000 -2.90826640
v -4.23667081 -6.35000000 -2.81407683
v -4.25053027 -6.35000000 -2.72471963
v -4.28031938 -6.35000000 -2.64174612
v -4.41150446 -6.35000000 -2.41149615
v -4.45833821 -6.35000000 -2.34691112
v -4.50397109 -6.35000000 -2.30114535
v -4.57583737 -6.35000000 -2.24923172
v -4.65816606 -6.35000000 -2.20984119
v -4.74991723 -6.35000000 -2.18386077
v -4.86000773 -6.35000000 -2.17170361
v -4.96837929 -6.35000000 -2.17612127
v -5.09801477 -6.35000000 -2.19935652
v -5.25350846 -6.35000000 -2.24970769
v -5.34974862 -6.35000000 -2.29215588
v -5.48671687 -6.35000000 -2.36821913
v -5.59952079 -6.35000000 -2.39898298
v -5.80094459 -6.35000000 -2.42614501
v -6.10583698 -6.35000000 -2.42839474
v -6.51439153 -6.35000000 -2.37837753
v -6.79172315 -6.35000000 -2.31542333
v -7.06385521 -6.35000000 -2.23279026
v -7.06385521 6.35000000 -2.23279026
v -6.59497552 6.35000000 -2.36236884
v -6.16170720 6.35000000 -2.42483664
v -5.84259424 6.35000000 -2.42885472
v -5.62852533 6.35000000 -2.40465259
v -5.51177163 6.35000000 -2.37759227
v -5.34311252 6.35000000 -2.28886291
v -5.23535916 6.35000000 -2.24265123
v -5.08645370 6.35000000 -2.19655834
v -4.95834736 6.35000000 -2.17510395
v -4.84149325 6.35000000 -2.17248639
v -4.73394593 6.35000000 -2.18724009
v -4.63854656 6.35000000 -2.21766551
v -4.55539743 6.35000000 -2.26202613
v -4.48494155 6.35000000 -2.31870738
v -4.42797894 6.35000000 -2.38599226
v -4.29416916 6.35000000 -2.61472686
v -4.26165376 6.35000000 -2.68757858
v -4.24483588 6.35000000 -2.74998071
v -4.23581049 6.35000000 -2.83817555
v -4.24286164 6.35000000 -2.92916955
v -4.26623752 6.35000000 -3.02161860
v -4.31075436 6.35000000 -3.12303835
v -4.36876594 6.35000000 -3.21468205
v -4.45370600 6.35000000 -3.31533204
v -4.57505824 6.35000000 -3.42481795
v -4.65993954 6.35000000 -3.48694027
v -4.79429636 6.35000000 -3.56752663
v -4.87734060 6.35000000 -3.64983577
v -5.00157551 6.35000000 -3.81069287
v -5.15597003 6.35000000 -4.07361257
v -5.31693112 6.35000000 -4.45243979
v -5.40107700 6.35000000 -4.72409312
v -5.46558069 6.35000000 -5.00108293
v -2.23279026 -6.35000000 -7.06385521
v -2.36236884 -6.35000000 -6.59497552
v -2.42483664 -6.35000000 -6.16170720
v -2.42885472 -6.35000000 -5.84259424
v -2.40465259 -6.35000000 -5.62852533
v -2.37759227 -6.35000000 -5.51177163
v -2.28886291 -6.35000000 -5.34311252
v -2.24265123 -6.35000000 -5.23535916
v -2.19655834 -6.35000000 -5.08645370
v -2.17510395 -6.35000000 -4.95834736
v -2.17248639 -6.35000000 -4.84149325
v -2.18724009 -6.35000000 -4.73394593
v -2.21766551 -6.35000000 -4.63854656
v -2.26202613 -6.35000000 -4.55539743
v -2.31870738 -6.35000000 -4.48494155
v -2.38599226 -6.35000000 -4.42797894
v -2.61472686 -6.35000000 -4.29416916
v -2.68757858 -6.35000000 -4.26165376
v -2.74998071 -6.35000000 -4.24483588
v -2.83817555 -6.35000000 -4.23581049
v -2.92916955 -6.35000000 -4.24286164
v -3.02161860 -6.35000000 -4.26623752
v -3.12303835 -6.35000000 -4.31075436
v -3.21468205 -6.35000000 -4.36876594
v -3.31533204 -6.35000000 -4.45370600
v -3.42481795 -6.35000000 -4.57505824
v -3.48694027 -6.35000000 -4.65993954
v -3.56752663 -6.35000000 -4.79429636
v -3.64983577 -6.35000000 -4.87734060
v -3.81069287 -6.35000000 -5.00157551
v -4.07361257 -6.35000000 -5.15597003
v -4.45243979 -6.35000000 -5.31693112
v -4.72409312 -6.35000000 -5.40107700
v -5.00108293 -6.35000000 -5.46558069
v -5.00108293 6.35000000 -5.46558069
v -4.53023192 6.35000000 -5.34335919
v -4.12377665 6.35000000 -5.18082373
v -3.84540768 6.35000000 -5.02474701
v -3.67211963 6.35000000 -4.89675290
v -3.58453812 6.35000000 -4.81494113
v -3.48283972 6.35000000 -4.65376969
v -3.41262842 6.35000000 -4.55987252
v -3.30671895 6.35000000 -4.44550217
v -3.20650280 6.35000000 -4.36286896
v -3.10661295 6.35000000 -4.30217503
v -3.00609740 6.35000000 -4.26117844
v -2.90826640 6.35000000 -4.23982795
v -2.81407683 6.35000000 -4.23667081
v -2.72471963 6.35000000 -4.25053027
v -2.64174612 6.35000000 -4.28031938
v -2.41149615 6.35000000 -4.41150446
v -2.34691112 6.35000000 -4.45833821
v -2.30114535 6.35000000 -4.50397109
v -2.24923172 6.35000000 -4.57583737
v -2.20984119 6.35000000 -4.65816606
v -2.18386077 6.35000000 -4.74991723
v -2.17170361 6.35000000 -4.86000773
v -2.17612127 6.35000000 -4.96837929
v -2.19935652 6.35000000 -5.09801477
v -2.24970769 6.35000000 -5.25350846
v -2.29215588 6.35000000 -5.34974862
v -2.36821913 6.35000000 -5.48671687
v -2.39898298 6.35000000 -5.59952079
v -2.42614501 6.35000000 -5.80094459
v -2.42839474 6.35000000 -6.10583698
v -2.37837753 6.35000000 -6.51439153
v -2.31542333 6.35000000 -6.79172315
v -2.23279026 6.35000000 -7.06385521
v 1.59827452 -6.35000000 -7.23387319
v 1.25161634 -6.35000000 -6.89260076
v 0.98088347 -6.35000000 -6.54861328
v 0.81784723 -6.35000000 -6.27426239
v 0.73177244 -6.35000000 -6.07677222
v 0.69683051 -6.35000000 -5.96213039
v 0.68934283 -6.35000000 -5.77170263
v 0.67548664 -6.35000000 -5.65527965
v 0.64095153 -6.35000000 -5.50327729
v 0.59547841 -6.35000000 -5.38160675
v 0.53931822 -6.35000000 -5.27909934
v 0.47276749 -6.35000000 -5.19333748
v 0.39871861 -6.35000000 -5.12593191
v 0.31872662 -6.35000000 -5.07610297
v 0.23441128 -6.35000000 -5.04342701
v 0.14765956 -6.35000000 -5.02773838
v -0.11733530 -6.35000000 -5.02622301
v -0.19668445 -6.35000000 -5.03448971
v -0.25913522 -6.35000000 -5.05112606
v -0.34002688 -6.35000000 -5.08740726
v -0.41530442 -6.35000000 -5.13901074
v -0.48367970 -6.35000000 -5.20547937
v -0.54925337 -6.35000000 -5.29474196
v -0.59961335 -6.35000000 -5.39080332
v -0.64430876 -6.35000000 -5.51468856
v -0.67845022 -6.35000000 -5.67452563
v -0.68980908 -6.35000000 -5.77909615
v -0.69242051 -6.35000000 -5.93574575
v -0.72218019 -6.35000000 -6.04881874
v -0.79936908 -6.35000000 -6.23683788
v -0.94986696 -6.35000000 -6.50200731
v -1.19746040 -6.35000000 -6.83081732
v -1.39064615 -6.35000000 -7.03951645
v -1.59827452 -6.35000000 -7.23387319
v -1.59827452 6.35000000 -7.23387319
v -1.25161634 6.35000000 -6.89260076
v -0.98088347 6.35000000 -6.54861328
v -0.81784723 6.35000000 -6.27426239
v -0.73177244 6.35000000 -6.07677222
v -0.69683051 6.35000000 -5.96213039
v -0.68934283 6.35000000 -5.77170263
v -0.67548664 6.35000000 -5.65527965
v -0.64095153 6.35000000 -5.50327729
v -0.59547841 6.35000000 -5.38160675
v -0.53931822 6.35000000 -5.27909934
v -0.47276749 6.35000000 -5.19333748
v -0.39871861 6.35000000 -5.12593191
v -0.31872662 6.35000000 -5.07610297
v -0.23441128 6.35000000 -5.04342701
v -0.14765956 6.35000000 -5.02773838
v 0.11733530 6.35000000 -5.02622301
v 0.19668445 6.35000000 -5.03448971
v 0.25913522 6.35000000 -5.05112606
v 0.34002688 6.35000000 -5.08740726
v 0.41530442 6.35000000 -5.13901074
v 0.48367970 6.35000000 -5.20547937
v 0.54925337 6.35000000 -5.29474196
v 0.59961335 6.35000000 -5.39080332
v 0.64430876 6.35000000 -5.51468856
v 0.67845022 6.35000000 -5.67452563
v 0.68980908 6.35000000 -5.77909615
v 0.69242051 6.35000000 -5.93574575
v 0.72218019 6.35000000 -6.04881874
v 0.79936908 6.35000000 -6.23683788
v 0.94986696 6.35000000 -6.50200731
v 1.19746040 6.35000000 -6.83081732
v 1.39064615 6.35000000 -7.03951645
v 1.59827452 6.35000000 -7.23387319
v 5.00108293 -6.35000000 -5.46558069
v 4.53023192 -6.35000000 -5.34335919
v 4.12377665 -6.35000000 -5.18082373
v 3.84540768 -6.35000000 -5.02474701
v 3.67211963 -6.35000000 -4.89675290
v 3.58453812 -6.35000000 -4.81494113
v 3.48283972 -6.35000000 -4.65376969
v 3.41262842 -6.35000000 -4.55987252
v 3.30671895 -6.35000000 -4.44550217
v 3.20650280 -6.35000000 -4.36286896
v 3.10661295 -6.35000000 -4.30217503
v 3.00609740 -6.35000000 -4.26117844
v 2.90826640 -6.35000000 -4.23982795
v 2.81407683 -6.35000000 -4.23667081
v 2.72471963 -6.35000000 -4.25053027
v 2.64174612 -6.35000000 -4.28031938
v 2.41149615 -6.35000000 -4.41150446
v 2.34691112 -6.35000000 -4.45833821
v 2.30114535 -6.35000000 -4.50397109
v 2.24923172 -6.35000000 -4.57583737
v 2.20984119 -6.35000000 -4.65816606
v 2.18386077 -6.35000000 -4.74991723
v 2.17170361 -6.35000000 -4.86000773
v 2.17612127 -6.35000000 -4.96837929
v 2.19935652 -6.35000000 -5.09801477
v 2.24970769 -6.35000000 -5.25350846
v 2.29215588 -6.35000000 -5.34974862
v 2.36821913 -6.35000000 -5.48671687
v 2.39898298 -6.35000000 -5.59952079
v 2.42614501 -6.35000000 -5.80094459
v 2.42839474 -6.35000000 -6.10583698
v 2.37837753 -6.35000000 -6.51439153
v 2.31542333 -6.35000000 -6.79172315
v 2.23279026 -6.35000000 -7.06385521
v 2.23279026 6.35000000 -7.06385521
v 2.36236884 6.35000000 -6.59497552
v 2.42483664 6.35000000 -6.16170720
v 2.42885472 6.35000000 -5.84259424
v 2.40465259 6.35000000 -5.62852533
v 2.37759227 6.35000000 -5.51177163
v 2.28886291 6.35000000 -5.34311252
v 2.24265123 6.35000000 -5.23535916
v 2.19655834 6.35000000 -5.08645370
v 2.17510395 6.35000000 -4.95834736
v 2.17248639 6.35000000 -4.84149325
v 2.18724009 6.35000000 -4.73394593
v 2.21766551 6.35000000 -4.63854656
v 2.26202613 6.35000000 -4.55539743
v 2.31870738 6.35000000 -4.48494155
v 2.38599226 6.35000000 -4.42797894
v 2.61472686 6.35000000 -4.29416916
v 2.68757858 6.35000000 -4.26165376
v 2.74998071 6.35000000 -4.24483588
v 2.83817555 6.35000000 -4.23581049
v 2.92916955 6.35000000 -4.24286164
v 3.02161860 6.35000000 -4.26623752
v 3.12303835 6.35000000 -4.31075436
v 3.21468205 6.35000000 -4.36876594
v 3.31533204 6.35000000 -4.45370600
v 3.42481795 6.35000000 -4.57505824
v 3.48694027 6.35000000 -4.65993954
v 3.56752663 6.35000000 -4.79429636
v 3.64983577 6.35000000 -4.87734060
v 3.81069287 6.35000000 -5.00157551
v 4.07361257 6.35000000 -5.15597003
v 4.45243979 6.35000000 -5.31693112
v 4.72409312 6.35000000 -5.40107700
v 5.00108293 6.35000000 -5.46558069
v 7.06385521 -6.35000000 -2.23279026
v 6.59497552 -6.35000000 -2.36236884
v 6.16170720 -6.35000000 -2.42483664
v 5.84259424 -6.35000000 -2.42885472
v 5.62852533 -6.35000000 -2.40465259
v 5.51177163 -6.35000000 -2.37759227
v 5.34311252 -6.35000000 -2.28886291
v 5.23535916 -6.35000000 -2.24265123
v 5.08645370 -6.35000000 -2.19655834
v 4.95834736 -6.35000000 -2.17510395
v 4.84149325 -6.35000000 -2.17248639
v 4.73394593 -6.35000000 -2.18724009
v 4.63854656 -6.35000000 -2.21766551
v 4.55539743 -6.35000000 -2.26202613
v 4.48494155 -6.35000000 -2.31870738
v 4.42797894 -6.35000000 -2.38599226
v 4.29416916 -6.35000000 -2.61472686
v 4.26165376 -6.35000000 -2.68757858
v 4.24483588 -6.35000000 -2.74998071
v 4.23581049 -6.35000000 -2.83817555
v 4.24286164 -6.35000000 -2.92916955
v 4.26623752 -6.35000000 -3.02161860
v 4.31075436 -6.35000000 -3.12303835
v 4.36876594 -6.35000000 -3.21468205
v 4.45370600 -6.35000000 -3.31533204
v 4.57505824 -6.35000000 -3.42481795
v 4.65993954 -6.35000000 -3.48694027
v 4.79429636 -6.35000000 -3.56752663
v 4.87734060 -6.35000000 -3.64983577
v 5.00157551 -6.35000000 -3.81069287
v 5.15597003 -6.35000000 -4.07361257
v 5.31693112 -6.35000000 -4.45243979
v 5.40107700 -6.35000000 -4.72409312
v 5.46558069 -6.35000000 -5.00108293
v 5.46558069 6.35000000 -5.00108293
v 5.34335919 6.35000000 -4.53023192
v 5.18082373 6.35000000 -4.12377665
v 5.02474701 6.35000000 -3.84540768
v 4.89675290 6.35000000 -3.67211963
v 4.81494113 6.35000000 -3.58453812
v 4.65376969 6.35000000 -3.48283972
v 4.55987252 6.35000000 -3.41262842
v 4.44550217 6.35000000 -3.30671895
v 4.36286896 6.35000000 -3.20650280
v 4.30217503 6.35000000 -3.10661295
v 4.26117844 6.35000000 -3.00609740
v 4.23982795 6.35000000 -2.90826640
v 4.23667081 6.35000000 -2.81407683
v 4.25053027 6.35000000 -2.72471963
v 4.28031938 6.35000000 -2.64174612
v 4.41150446 6.35000000 -2.41149615
v 4.45833821 6.35000000 -2.34691112
v 4.50397109 6.35000000 -2.30114535
v 4.57583737 6.35000000 -2.24923172
v 4.65816606 6.35000000 -2.20984119
v 4.74991723 6.35000000 -2.18386077
v 4.86000773 6.35000000 -2.17170361
v 4.96837929 6.35000000 -2.17612127
v 5.09801477 6.35000000 -2.19935652
v 5.25350846 6.35000000 -2.24970769
v 5.34974862 6.35000000 -2.29215588
v 5.48671687 6.35000000 -2.36821913
v 5.59952079 6.35000000 -2.39898298
v 5.80094459 6.35000000 -2.42614501
v 6.10583698 6.35000000 -2.42839474
v 6.51439153 6.35000000 -2.37837753
v 6.79172315 6.35000000 -2.31542333
v 7.06385521 6.35000000 -2.23279026
v 7.23387319 -6.35000000 1.59827452
v 6.89260076 -6.35000000 1.25161634
v 6.54861328 -6.35000000 0.98088347
v 6.27426239 -6.35000000 0.81784723
v 6.07677222 -6.35000000 0.73177244
v 5.96213039 -6.35000000 0.69683051
v 5.77170263 -6.35000000 0.68934283
v 5.65527965 -6.35000000 0.67548664
v 5.50327729 -6.35000000 0.64095153
v 5.38160675 -6.35000000 0.59547841
v 5.27909934 -6.35000000 0.53931822
v 5.19333748 -6.35000000 0.47276749
v 5.12593191 -6.35000000 0.39871861
v 5.07610297 -6.35000000 0.31872662
v 5.04342701 -6.35000000 0.23441128
v 5.02773838 -6.35000000 0.14765956
v 5.02622301 -6.35000000 -0.11733530
v 5.03448971 -6.35000000 -0.19668445
v 5.05112606 -6.35000000 -0.25913522
v 5.08740726 -6.35000000 -0.34002688
v 5.13901074 -6.35000000 -0.41530442
v 5.20547937 -6.35000000 -0.48367970
v 5.29474196 -6.35000000 -0.54925337
v 5.39080332 -6.35000000 -0.59961335
v 5.51468856 -6.35000000 -0.64430876
v 5.67452563 -6.35000000 -0.67845022
v 5.77909615 -6.35000000 -0.68980908
v 5.93574575 -6.35000000 -0.69242051
v 6.04881874 -6.35000000 -0.72218019
v 6.23683788 -6.35000000 -0.79936908
v 6.50200731 -6.35000000 -0.94986696
v 6.83081732 -6.35000000 -1.19746040
v 7.03951645 -6.35000000 -1.39064615
v 7.23387319 -6.35000000 -1.59827452
v 7.23387319 6.35000000 -1.59827452
v 6.89260076 6.35000000 -1.25161634
v 6.54861328 6.35000000 -0.98088347
v 6.27426239 6.35000000 -0.81784723
v 6.07677222 6.35000000 -0.73177244
v 5.96213039 6.35000000 -0.69683051
v 5.77170263 6.35000000 -0.68934283
v 5.65527965 6.35000000 -0.67548664
v 5.50327729 6.35000000 -0.64095153
v 5.38160675 6.35000000 -0.59547841
v 5.27909934 6.35000000 -0.53931822
v 5.19333748 6.35000000 -0.47276749
v 5.12593191 6.35000000 -0.39871861
v 5.07610297 6.35000000 -0.31872662
v 5.04342701 6.35000000 -0.23441128
v 5.02773838 6.35000000 -0.14765956
v 5.02622301 6.35000000 0.11733530
v 5.03448971 6.35000000 0.19668445
v 5.05112606 6.35000000 0.25913522
v 5.08740726 6.35000000 0.34002688
v 5.13901074 6.35000000 0.41530442
v 5.20547937 6.35000000 0.48367970
v 5.29474196 6.35000000 0.54925337
v 5.39080332 6.35000000 0.59961335
v 5.51468856 6.35000000 0.64430876
v 5.67452563 6.35000000 0.67845022
v 5.77909615 6.35000000 0.68980908
v 5.93574575 6.35000000 0.69242051
v 6.04881874 6.35000000 0.72218019
v 6.23683788 6.35000000 0.79936908
v 6.50200731 6.35000000 0.94986696
v 6.83081732 6.35000000 1.19746040
v 7.03951645 6.35000000 1.39064615
v 7.23387319 6.35000000 1.59827452
v 7.12677398 6.35000000 -2.02299169
v 7.18346316 6.35000000 -1.81142480
v 7.12677398 -6.35000000 -2.02299169
v 7.18346316 -6.35000000 -1.81142480
v 5.16047147 6.35000000 -5.31534918
v 5.31534918 6.35000000 -5.16047147
v 5.16047147 -6.35000000 -5.31534918
v 5.31534918 -6.35000000 -5.16047147
v 1.81142480 6.35000000 -7.18346316
v 2.02299169 6.35000000 -7.12677398
v 1.81142480 -6.35000000 -7.18346316
v 2.02299169 -6.35000000 -7.12677398
v -2.02299169 6.35000000 -7.12677398
v -1.81142480 6.35000000 -7.18346316
v -2.02299169 -6.35000000 -7.12677398
v -1.81142480 -6.35000000 -7.18346316
v -5.31534918 6.35000000 -5.16047147
v -5.16047147 6.35000000 -5.31534918
v -5.31534918 -6.35000000 -5.16047147
v -5.16047147 -6.35000000 -5.31534918
v -7.18346316 6.35000000 -1.81142480
v -7.12677398 6.35000000 -2.02299169
v -7.18346316 -6.35000000 -1.81142480
v -7.12677398 -6.35000000 -2.02299169
v -7.12677398 6.35000000 2.02299169
v -7.18346316 6.35000000 1.81142480
v -7.12677398 -6.35000000 2.02299169
v -7.18346316 -6.35000000 1.81142480
v -5.16047147 6.35000000 5.31534918
v -5.31534918 6.35000000 5.16047147
v -5.16047147 -6.35000000 5.31534918
v -5.31534918 -6.35000000 5.16047147
v -1.81142480 6.35000000 7.18346316
v -2.02299169 6.35000000 7.12677398
v -1.81142480 -6.35000000 7.18346316
v -2.02299169 -6.35000000 7.12677398
v 2.02299169 6.35000000 7.12677398
v 1.81142480 6.35000000 7.18346316
v 2.02299169 -6.35000000 7.12677398
v 1.81142480 -6.35000000 7.18346316
v 5.31534918 6.35000000 5.16047147
v 5.16047147 6.35000000 5.31534918
v 7.18346316 6.35000000 1.81142480
v 7.12677398 6.35000000 2.02299169
v 7.18346316 -6.35000000 1.81142480
v 7.12677398 -6.35000000 2.02299169
v 5.31534918 -6.35000000 5.16047147
v 5.16047147 -6.35000000 5.31534918
f 3 2 1
f 3 1 4
f 13 10 2
f 14 11 10
f 14 12 11
f 14 10 13
f 15 9 8
f 15 3 9
f 15 2 3
f 15 13 2
f 16 6 5
f 16 7 6
f 16 8 7
f 16 5 12
f 16 15 8
f 16 12 14
f 16 14 13
f 16 13 15
f 25 18 17
f 25 19 18
f 26 1 19
f 26 19 25
f 27 23 22
f 27 24 23
f 27 17 24
f 27 25 17
f 28 4 1
f 28 20 4
f 28 21 20
f 28 22 21
f 28 27 22
f 28 1 26
f 28 26 25
f 28 25 27
f 31 12 5
f 31 32 12
f 31 33 32
f 30 34 33
f 30 33 31
f 29 34 30
f 39 36 35
f 39 37 36
f 39 35 40
f 38 17 37
f 38 37 39
f 24 17 38
f 49 46 34
f 50 47 46
f 50 48 47
f 50 46 49
f 51 45 44
f 51 29 45
f 51 34 29
f 51 49 34
f 52 42 41
f 52 43 42
f 52 44 43
f 52 41 48
f 52 50 49
f 52 51 44
f 52 48 50
f 52 49 51
f 61 54 53
f 62 55 54
f 62 35 55
f 62 54 61
f 63 58 57
f 63 59 58
f 63 60 59
f 63 53 60
f 63 61 53
f 64 40 35
f 64 56 40
f 64 57 56
f 64 35 62
f 64 62 61
f 64 61 63
f 64 63 57
f 65 48 41
f 65 66 48
f 60 53 67
f 60 67 68
f 77 74 66
f 78 75 74
f 78 76 75
f 78 74 77
f 79 73 72
f 79 65 73
f 79 66 65
f 79 77 66
f 80 70 69
f 80 71 70
f 80 72 71
f 80 69 76
f 80 79 72
f 80 76 78
f 80 78 77
f 80 77 79
f 89 82 81
f 90 83 82
f 90 67 83
f 90 82 89
f 91 87 86
f 91 88 87
f 91 81 88
f 91 89 81
f 92 68 67
f 92 84 68
f 92 85 84
f 92 86 85
f 92 89 91
f 92 90 89
f 92 91 86
f 92 67 90
f 95 76 69
f 95 96 76
f 94 97 96
f 94 98 97
f 94 96 95
f 93 98 94
f 103 100 99
f 103 99 104
f 102 101 100
f 102 81 101
f 102 100 103
f 88 81 102
f 113 110 98
f 114 111 110
f 114 112 111
f 114 110 113
f 115 109 108
f 115 93 109
f 115 98 93
f 115 113 98
f 116 106 105
f 116 107 106
f 116 108 107
f 116 105 112
f 116 115 108
f 116 112 114
f 116 114 113
f 116 113 115
f 125 118 117
f 126 119 118
f 126 99 119
f 126 118 125
f 127 122 121
f 127 123 122
f 127 124 123
f 127 117 124
f 127 125 117
f 128 104 99
f 128 120 104
f 128 121 120
f 128 99 126
f 128 126 125
f 128 125 127
f 128 127 121
f 124 117 112
f 124 112 105
f 131 130 129
f 131 129 132
f 141 134 133
f 142 135 134
f 142 131 135
f 142 134 141
f 143 139 138
f 143 140 139
f 143 133 140
f 143 141 133
f 144 130 131
f 144 136 130
f 144 137 136
f 144 138 137
f 144 141 143
f 144 143 138
f 144 131 142
f 144 142 141
f 153 150 132
f 154 151 150
f 154 152 151
f 154 150 153
f 155 149 148
f 155 129 149
f 155 132 129
f 155 153 132
f 156 146 145
f 156 147 146
f 156 148 147
f 156 145 152
f 156 155 148
f 156 152 154
f 156 154 153
f 156 153 155
f 161 158 157
f 161 157 162
f 160 159 158
f 160 133 159
f 160 158 161
f 140 133 160
f 165 152 145
f 165 166 152
f 164 167 166
f 164 168 167
f 164 166 165
f 163 168 164
f 177 170 169
f 178 171 170
f 178 157 171
f 178 170 177
f 179 174 173
f 179 175 174
f 179 176 175
f 179 169 176
f 179 177 169
f 180 162 157
f 180 172 162
f 180 173 172
f 180 157 178
f 180 178 177
f 180 177 179
f 180 179 173
f 189 186 168
f 190 187 186
f 190 188 187
f 190 186 189
f 191 185 184
f 191 163 185
f 191 168 163
f 191 189 168
f 192 182 181
f 192 183 182
f 192 184 183
f 192 181 188
f 192 190 189
f 192 191 184
f 192 188 190
f 192 189 191
f 193 176 169
f 193 194 176
f 188 181 195
f 188 195 196
f 205 198 197
f 206 199 198
f 206 193 199
f 206 198 205
f 207 203 202
f 207 204 203
f 207 197 204
f 207 205 197
f 208 194 193
f 208 200 194
f 208 201 200
f 208 202 201
f 208 205 207
f 208 206 205
f 208 207 202
f 208 193 206
f 217 214 196
f 218 215 214
f 218 216 215
f 218 214 217
f 219 213 212
f 219 195 213
f 219 196 195
f 219 217 196
f 220 210 209
f 220 211 210
f 220 212 211
f 220 209 216
f 220 219 212
f 220 216 218
f 220 218 217
f 220 217 219
f 225 222 221
f 225 223 222
f 225 221 226
f 224 197 223
f 224 223 225
f 204 197 224
f 229 216 209
f 229 230 216
f 229 231 230
f 228 232 231
f 228 231 229
f 227 232 228
f 241 234 233
f 242 235 234
f 242 221 235
f 242 234 241
f 243 238 237
f 243 239 238
f 243 240 239
f 243 233 240
f 243 241 233
f 244 226 221
f 244 236 226
f 244 237 236
f 244 221 242
f 244 242 241
f 244 241 243
f 244 243 237
f 253 250 232
f 253 251 250
f 254 252 251
f 254 251 253
f 255 249 248
f 255 227 249
f 255 232 227
f 255 253 232
f 256 246 245
f 256 247 246
f 256 248 247
f 256 245 252
f 256 255 248
f 256 254 253
f 256 253 255
f 256 252 254
f 252 245 240
f 252 240 233
f 118 252 117
f 118 251 252
f 119 250 251
f 119 251 118
f 99 232 250
f 99 250 119
f 81 215 216
f 82 214 215
f 82 215 81
f 83 196 214
f 83 214 82
f 67 196 83
f 53 187 188
f 54 186 187
f 54 187 53
f 55 168 186
f 55 186 54
f 35 168 55
f 18 152 17
f 18 151 152
f 19 150 151
f 19 151 18
f 1 132 150
f 1 150 19
f 2 135 131
f 10 134 135
f 10 135 2
f 11 133 134
f 11 134 10
f 12 133 11
f 34 171 157
f 46 170 171
f 46 171 34
f 47 169 170
f 47 170 46
f 48 169 47
f 98 235 221
f 110 234 235
f 110 235 98
f 111 233 234
f 111 234 110
f 112 233 111
f 66 199 193
f 74 198 199
f 74 199 66
f 75 197 198
f 75 198 74
f 76 197 75
f 112 252 233
f 112 117 252
f 100 232 99
f 100 231 232
f 101 216 230
f 101 230 231
f 101 231 100
f 81 216 101
f 188 67 53
f 188 196 67
f 35 167 168
f 36 167 35
f 37 152 166
f 37 166 167
f 37 167 36
f 17 152 37
f 131 1 2
f 131 132 1
f 12 159 133
f 32 158 159
f 32 159 12
f 33 158 32
f 34 157 158
f 34 158 33
f 48 193 169
f 48 66 193
f 96 197 76
f 96 222 223
f 96 223 197
f 97 221 222
f 97 222 96
f 98 221 97
f 289 290 291
f 289 291 292
f 288 292 293
f 288 289 292
f 287 293 294
f 287 288 293
f 286 294 295
f 286 287 294
f 285 286 295
f 285 295 296
f 284 296 297
f 284 285 296
f 283 284 297
f 282 297 298
f 282 283 297
f 281 298 299
f 281 282 298
f 280 299 300
f 280 281 299
f 279 300 301
f 279 280 300
f 278 301 302
f 278 279 301
f 277 302 303
f 277 278 302
f 276 303 304
f 276 277 303
f 275 304 305
f 275 276 304
f 274 305 306
f 274 275 305
f 273 306 307
f 273 274 306
f 272 307 308
f 272 273 307
f 271 308 309
f 271 272 308
f 270 271 309
f 270 309 310
f 269 310 311
f 269 270 310
f 268 269 311
f 268 311 312
f 267 312 313
f 267 268 312
f 266 267 313
f 266 313 314
f 265 314 315
f 265 266 314
f 264 265 315
f 264 315 316
f 263 316 317
f 263 317 318
f 263 264 316
f 262 263 318
f 262 318 319
f 261 262 319
f 261 319 320
f 260 261 320
f 260 320 321
f 259 260 321
f 259 321 322
f 258 259 322
f 258 322 323
f 257 258 323
f 257 323 324
f 357 358 359
f 357 359 360
f 356 360 361
f 356 357 360
f 355 361 362
f 355 356 361
f 354 362 363
f 354 355 362
f 353 354 363
f 353 363 364
f 352 364 365
f 352 353 364
f 351 352 365
f 350 365 366
f 350 351 365
f 349 366 367
f 349 350 366
f 348 367 368
f 348 349 367
f 347 368 369
f 347 348 368
f 346 369 370
f 346 347 369
f 345 370 371
f 345 346 370
f 344 371 372
f 344 345 371
f 343 372 373
f 343 344 372
f 342 373 374
f 342 343 373
f 341 374 375
f 341 342 374
f 340 375 376
f 340 341 375
f 339 376 377
f 339 340 376
f 338 339 377
f 338 377 378
f 337 378 379
f 337 338 378
f 336 337 379
f 336 379 380
f 335 380 381
f 335 336 380
f 334 335 381
f 334 381 382
f 333 382 383
f 333 334 382
f 332 333 383
f 332 383 384
f 331 384 385
f 331 385 386
f 331 332 384
f 330 331 386
f 330 386 387
f 329 330 387
f 329 387 388
f 328 329 388
f 328 388 389
f 327 328 389
f 327 389 390
f 326 327 390
f 326 390 391
f 325 326 391
f 325 391 392
f 425 426 427
f 425 427 428
f 424 428 429
f 424 425 428
f 423 429 430
f 423 424 429
f 422 430 431
f 422 423 430
f 421 422 431
f 421 431 432
f 420 432 433
f 420 421 432
f 419 420 433
f 418 433 434
f 418 419 433
f 417 434 435
f 417 418 434
f 416 435 436
f 416 417 435
f 415 436 437
f 415 416 436
f 414 437 438
f 414 415 437
f 413 438 439
f 413 414 438
f 412 439 440
f 412 413 439
f 411 440 441
f 411 412 440
f 410 441 442
f 410 411 441
f 409 442 443
f 409 410 442
f 408 443 444
f 408 409 443
f 407 444 445
f 407 408 444
f 406 407 445
f 406 445 446
f 405 446 447
f 405 406 446
f 404 405 447
f 404 447 448
f 403 448 449
f 403 404 448
f 402 403 449
f 402 449 450
f 401 450 451
f 401 402 450
f 400 401 451
f 400 451 452
f 399 452 453
f 399 453 454
f 399 400 452
f 398 399 454
f 398 454 455
f 397 398 455
f 397 455 456
f 396 397 456
f 396 456 457
f 395 396 457
f 395 457 458
f 394 395 458
f 394 458 459
f 393 394 459
f 393 459 460
f 493 494 495
f 493 495 496
f 492 496 497
f 492 493 496
f 491 497 498
f 491 492 497
f 490 498 499
f 490 491 498
f 489 490 499
f 489 499 500
f 488 500 501
f 488 489 500
f 487 488 501
f 486 501 502
f 486 487 501
f 485 502 503
f 485 486 502
f 484 503 504
f 484 485 503
f 483 504 505
f 483 484 504
f 482 505 506
f 482 483 505
f 481 506 507
f 481 482 506
f 480 507 508
f 480 481 507
f 479 508 509
f 479 480 508
f 478 509 510
f 478 479 509
f 477 510 511
f 477 478 510
f 476 511 512
f 476 477 511
f 475 512 513
f 475 476 512
f 474 475 513
f 474 513 514
f 473 514 515
f 473 474 514
f 472 473 515
f 472 515 516
f 471 516 517
f 471 472 516
f 470 471 517
f 470 517 518
f 469 518 519
f 469 470 518
f 468 469 519
f 468 519 520
f 467 520 521
f 467 521 522
f 467 468 520
f 466 467 522
f 466 522 523
f 465 466 523
f 465 523 524
f 464 465 524
f 464 524 525
f 463 464 525
f 463 525 526
f 462 463 526
f 462 526 527
f 461 462 527
f 461 527 528
f 561 562 563
f 561 563 564
f 560 564 565
f 560 561 564
f 559 565 566
f 559 560 565
f 558 566 567
f 558 559 566
f 557 558 567
f 557 567 568
f 556 568 569
f 556 557 568
f 555 556 569
f 554 569 570
f 554 555 569
f 553 570 571
f 553 554 570
f 552 571 572
f 552 553 571
f 551 572 573
f 551 552 572
f 550 573 574
f 550 551 573
f 549 574 575
f 549 550 574
f 548 575 576
f 548 549 575
f 547 576 577
f 547 548 576
f 546 577 578
f 546 547 577
f 545 578 579
f 545 546 578
f 544 579 580
f 544 545 579
f 543 580 581
f 543 544 580
f 542 543 581
f 542 581 582
f 541 582 583
f 541 542 582
f 540 541 583
f 540 583 584
f 539 584 585
f 539 540 584
f 538 539 585
f 538 585 586
f 537 586 587
f 537 538 586
f 536 537 587
f 536 587 588
f 535 588 589
f 535 589 590
f 535 536 588
f 534 535 590
f 534 590 591
f 533 534 591
f 533 591 592
f 532 533 592
f 532 592 593
f 531 532 593
f 531 593 594
f 530 531 594
f 530 594 595
f 529 530 595
f 529 595 596
f 629 630 631
f 629 631 632
f 628 632 633
f 628 629 632
f 627 633 634
f 627 628 633
f 626 634 635
f 626 627 634
f 625 626 635
f 625 635 636
f 624 636 637
f 624 625 636
f 623 624 637
f 622 637 638
f 622 623 637
f 621 638 639
f 621 622 638
f 620 639 640
f 620 621 639
f 619 640 641
f 619 620 640
f 618 641 642
f 618 619 641
f 617 642 643
f 617 618 642
f 616 643 644
f 616 617 643
f 615 644 645
f 615 616 644
f 614 645 646
f 614 615 645
f 613 646 647
f 613 614 646
f 612 647 648
f 612 613 647
f 611 648 649
f 611 612 648
f 610 611 649
f 610 649 650
f 609 650 651
f 609 610 650
f 608 609 651
f 608 651 652
f 607 652 653
f 607 608 652
f 606 607 653
f 606 653 654
f 605 654 655
f 605 606 654
f 604 605 655
f 604 655 656
f 603 656 657
f 603 657 658
f 603 604 656
f 602 603 658
f 602 658 659
f 601 602 659
f 601 659 660
f 600 601 660
f 600 660 661
f 599 600 661
f 599 661 662
f 598 599 662
f 598 662 663
f 597 598 663
f 597 663 664
f 697 698 699
f 697 699 700
f 696 700 701
f 696 697 700
f 695 701 702
f 695 696 701
f 694 702 703
f 694 695 702
f 693 694 703
f 693 703 704
f 692 704 705
f 692 693 704
f 691 692 705
f 690 705 706
f 690 691 705
f 689 706 707
f 689 690 706
f 688 707 708
f 688 689 707
f 687 708 709
f 687 688 708
f 686 709 710
f 686 687 709
f 685 710 711
f 685 686 710
f 684 711 712
f 684 685 711
f 683 712 713
f 683 684 712
f 682 713 714
f 682 683 713
f 681 714 715
f 681 682 714
f 680 715 716
f 680 681 715
f 679 716 717
f 679 680 716
f 678 679 717
f 678 717 718
f 677 718 719
f 677 678 718
f 676 677 719
f 676 719 720
f 675 720 721
f 675 676 720
f 674 675 721
f 674 721 722
f 673 722 723
f 673 674 722
f 672 673 723
f 672 723 724
f 671 724 725
f 671 725 726
f 671 672 724
f 670 671 726
f 670 726 727
f 669 670 727
f 669 727 728
f 668 669 728
f 668 728 729
f 667 668 729
f 667 729 730
f 666 667 730
f 666 730 731
f 665 666 731
f 665 731 732
f 765 766 767
f 765 767 768
f 764 768 769
f 764 765 768
f 763 769 770
f 763 764 769
f 762 770 771
f 762 763 770
f 761 762 771
f 761 771 772
f 760 772 773
f 760 761 772
f 759 760 773
f 758 773 774
f 758 759 773
f 757 774 775
f 757 758 774
f 756 775 776
f 756 757 775
f 755 776 777
f 755 756 776
f 754 777 778
f 754 755 777
f 753 778 779
f 753 754 778
f 752 779 780
f 752 753 779
f 751 780 781
f 751 752 780
f 750 781 782
f 750 751 781
f 749 782 783
f 749 750 782
f 748 783 784
f 748 749 783
f 747 784 785
f 747 748 784
f 746 747 785
f 746 785 786
f 745 786 787
f 745 746 786
f 744 745 787
f 744 787 788
f 743 788 789
f 743 744 788
f 742 743 789
f 742 789 790
f 741 790 791
f 741 742 790
f 740 741 791
f 740 791 792
f 739 792 793
f 739 793 794
f 739 740 792
f 738 739 794
f 738 794 795
f 737 738 795
f 737 795 796
f 736 737 796
f 736 796 797
f 735 736 797
f 735 797 798
f 734 735 798
f 734 798 799
f 733 734 799
f 733 799 800
f 833 834 835
f 833 835 836
f 832 836 837
f 832 833 836
f 831 837 838
f 831 832 837
f 830 838 839
f 830 831 838
f 829 830 839
f 829 839 840
f 828 840 841
f 828 829 840
f 827 828 841
f 826 841 842
f 826 827 841
f 825 842 843
f 825 826 842
f 824 843 844
f 824 825 843
f 823 844 845
f 823 824 844
f 822 845 846
f 822 823 845
f 821 846 847
f 821 822 846
f 820 847 848
f 820 821 847
f 819 848 849
f 819 820 848
f 818 849 850
f 818 819 849
f 817 850 851
f 817 818 850
f 816 851 852
f 816 817 851
f 815 852 853
f 815 816 852
f 814 815 853
f 814 853 854
f 813 854 855
f 813 814 854
f 812 813 855
f 812 855 856
f 811 856 857
f 811 812 856
f 810 811 857
f 810 857 858
f 809 858 859
f 809 810 858
f 808 809 859
f 808 859 860
f 807 860 861
f 807 861 862
f 807 808 860
f 806 807 862
f 806 862 863
f 805 806 863
f 805 863 864
f 804 805 864
f 804 864 865
f 803 804 865
f 803 865 866
f 802 803 866
f 802 866 867
f 801 802 867
f 801 867 868
f 901 902 903
f 901 903 904
f 900 904 905
f 900 901 904
f 899 905 906
f 899 900 905
f 898 906 907
f 898 899 906
f 897 898 907
f 897 907 908
f 896 908 909
f 896 897 908
f 895 896 909
f 894 909 910
f 894 895 909
f 893 910 911
f 893 894 910
f 892 911 912
f 892 893 911
f 891 912 913
f 891 892 912
f 890 913 914
f 890 891 913
f 889 914 915
f 889 890 914
f 888 915 916
f 888 889 915
f 887 916 917
f 887 888 916
f 886 917 918
f 886 887 917
f 885 918 919
f 885 886 918
f 884 919 920
f 884 885 919
f 883 920 921
f 883 884 920
f 882 883 921
f 882 921 922
f 881 922 923
f 881 882 922
f 880 881 923
f 880 923 924
f 879 924 925
f 879 880 924
f 878 879 925
f 878 925 926
f 877 926 927
f 877 878 926
f 876 877 927
f 876 927 928
f 875 928 929
f 875 929 930
f 875 876 928
f 874 875 930
f 874 930 931
f 873 874 931
f 873 931 932
f 872 873 932
f 872 932 933
f 871 872 933
f 871 933 934
f 870 871 934
f 870 934 935
f 869 870 935
f 869 935 936
f 969 970 971
f 969 971 972
f 968 972 973
f 968 969 972
f 967 973 974
f 967 968 973
f 966 974 975
f 966 967 974
f 965 966 975
f 965 975 976
f 964 976 977
f 964 965 976
f 963 964 977
f 962 977 978
f 962 963 977
f 961 978 979
f 961 962 978
f 960 979 980
f 960 961 979
f 959 980 981
f 959 960 980
f 958 981 982
f 958 959 981
f 957 982 983
f 957 958 982
f 956 983 984
f 956 957 983
f 955 984 985
f 955 956 984
f 954 985 986
f 954 955 985
f 953 986 987
f 953 954 986
f 952 987 988
f 952 953 987
f 951 988 989
f 951 952 988
f 950 951 989
f 950 989 990
f 949 990 991
f 949 950 990
f 948 949 991
f 948 991 992
f 947 992 993
f 947 948 992
f 946 947 993
f 946 993 994
f 945 994 995
f 945 946 994
f 944 945 995
f 944 995 996
f 943 996 997
f 943 997 998
f 943 944 996
f 942 943 998
f 942 998 999
f 941 942 999
f 941 999 1000
f 940 941 1000
f 940 1000 1001
f 939 940 1001
f 939 1001 1002
f 938 939 1002
f 938 1002 1003
f 937 938 1003
f 937 1003 1004
f 1037 1038 1039
f 1037 1039 1040
f 1036 1040 1041
f 1036 1037 1040
f 1035 1041 1042
f 1035 1036 1041
f 1034 1042 1043
f 1034 1035 1042
f 1033 1034 1043
f 1033 1043 1044
f 1032 1044 1045
f 1032 1033 1044
f 1031 1032 1045
f 1030 1045 1046
f 1030 1031 1045
f 1029 1046 1047
f 1029 1030 1046
f 1028 1047 1048
f 1028 1029 1047
f 1027 1048 1049
f 1027 1028 1048
f 1026 1049 1050
f 1026 1027 1049
f 1025 1050 1051
f 1025 1026 1050
f 1024 1051 1052
f 1024 1025 1051
f 1023 1052 1053
f 1023 1024 1052
f 1022 1053 1054
f 1022 1023 1053
f 1021 1054 1055
f 1021 1022 1054
f 1020 1055 1056
f 1020 1021 1055
f 1019 1056 1057
f 1019 1020 1056
f 1018 1019 1057
f 1018 1057 1058
f 1017 1058 1059
f 1017 1018 1058
f 1016 1017 1059
f 1016 1059 1060
f 1015 1060 1061
f 1015 1016 1060
f 1014 1015 1061
f 1014 1061 1062
f 1013 1062 1063
f 1013 1014 1062
f 1012 1013 1063
f 1012 1063 1064
f 1011 1064 1065
f 1011 1065 1066
f 1011 1012 1064
f 1010 1011 1066
f 1010 1066 1067
f 1009 1010 1067
f 1009 1067 1068
f 1008 1009 1068
f 1008 1068 1069
f 1007 1008 1069
f 1007 1069 1070
f 1006 1007 1070
f 1006 1070 1071
f 1005 1006 1071
f 1005 1071 1072
f 1075 937 1004
f 1075 1004 1073
f 1076 1073 1074
f 1076 1075 1073
f 1038 1074 1039
f 1038 1076 1074
f 869 936 1077
f 1079 1077 1078
f 1079 869 1077
f 1080 1078 971
f 1080 1079 1078
f 970 1080 971
f 1083 801 868
f 1083 868 1081
f 1084 1081 1082
f 1084 1083 1081
f 902 1082 903
f 902 1084 1082
f 1087 733 800
f 1087 800 1085
f 1088 1085 1086
f 1088 1087 1085
f 834 1086 835
f 834 1088 1086
f 1091 665 732
f 1091 732 1089
f 1092 1089 1090
f 1092 1091 1089
f 766 1090 767
f 766 1092 1090
f 1095 597 664
f 1095 664 1093
f 1096 1093 1094
f 1096 1095 1093
f 698 1094 699
f 698 1096 1094
f 1099 529 596
f 1099 596 1097
f 1100 1097 1098
f 1100 1099 1097
f 630 1098 631
f 630 1100 1098
f 1103 461 528
f 1103 528 1101
f 1104 1101 1102
f 1104 1103 1101
f 562 1102 563
f 562 1104 1102
f 1107 393 460
f 1107 460 1105
f 1108 1105 1106
f 1108 1107 1105
f 494 1106 495
f 494 1108 1106
f 1111 325 392
f 1111 392 1109
f 1112 1109 1110
f 1112 1111 1109
f 426 1110 427
f 426 1112 1110
f 731 1089 732
f 731 1090 1089
f 768 767 1090
f 768 1090 731
f 730 768 731
f 769 768 730
f 729 769 730
f 799 1085 800
f 1086 1085 799
f 700 699 1094
f 770 769 729
f 728 770 729
f 771 770 728
f 727 771 728
f 663 700 1094
f 663 1093 664
f 663 1094 1093
f 725 727 726
f 725 771 727
f 836 1086 799
f 836 799 798
f 836 835 1086
f 773 772 771
f 773 771 725
f 662 700 663
f 662 701 700
f 724 773 725
f 774 773 724
f 723 774 724
f 775 774 723
f 793 795 794
f 705 704 703
f 722 775 723
f 776 775 722
f 837 798 797
f 837 836 798
f 661 701 662
f 661 702 701
f 721 776 722
f 838 837 797
f 838 797 796
f 660 703 702
f 660 702 661
f 839 796 795
f 839 838 796
f 839 795 793
f 659 703 660
f 657 703 659
f 657 659 658
f 657 705 703
f 841 793 792
f 841 840 839
f 841 839 793
f 656 705 657
f 656 706 705
f 842 792 791
f 842 841 792
f 655 706 656
f 655 707 706
f 843 791 790
f 843 842 791
f 229 777 776
f 229 778 777
f 229 779 778
f 229 776 721
f 228 719 718
f 228 720 719
f 228 721 720
f 228 229 721
f 654 707 655
f 654 708 707
f 209 779 229
f 209 780 779
f 209 781 780
f 227 718 717
f 227 228 718
f 227 717 716
f 844 790 789
f 844 843 790
f 210 781 209
f 210 782 781
f 249 227 716
f 249 716 715
f 211 782 210
f 248 249 715
f 212 782 211
f 212 783 782
f 247 248 715
f 247 715 714
f 653 708 654
f 653 709 708
f 845 789 788
f 845 844 789
f 213 784 783
f 213 783 212
f 246 247 714
f 195 784 213
f 195 785 784
f 195 786 785
f 195 787 786
f 245 246 714
f 245 712 711
f 245 713 712
f 245 714 713
f 652 709 653
f 652 710 709
f 846 788 787
f 846 845 788
f 651 710 652
f 651 245 711
f 651 711 710
f 847 787 195
f 847 846 787
f 650 245 651
f 848 847 195
f 1081 868 867
f 1098 632 631
f 649 245 650
f 849 848 195
f 648 245 649
f 850 849 195
f 647 245 648
f 1082 1081 867
f 861 863 862
f 637 636 635
f 851 850 195
f 595 632 1098
f 595 1097 596
f 595 1098 1097
f 904 1082 867
f 904 867 866
f 904 903 1082
f 594 632 595
f 594 633 632
f 905 904 866
f 905 866 865
f 593 634 633
f 593 633 594
f 906 905 865
f 906 865 864
f 592 634 593
f 592 635 634
f 907 906 864
f 907 863 861
f 907 864 863
f 591 635 592
f 589 591 590
f 589 637 635
f 589 635 591
f 909 907 861
f 909 861 860
f 909 908 907
f 588 638 637
f 588 637 589
f 910 909 860
f 910 860 859
f 587 638 588
f 587 639 638
f 911 910 859
f 911 859 858
f 586 639 587
f 586 640 639
f 912 858 857
f 912 911 858
f 585 641 640
f 585 640 586
f 913 912 857
f 913 857 856
f 584 641 585
f 584 642 641
f 914 856 855
f 914 913 856
f 583 643 642
f 583 642 584
f 915 914 855
f 181 916 915
f 181 917 916
f 181 918 917
f 181 851 195
f 181 915 855
f 181 852 851
f 181 853 852
f 181 854 853
f 181 855 854
f 240 581 580
f 240 582 581
f 240 583 582
f 240 245 647
f 240 643 583
f 240 644 643
f 240 645 644
f 240 646 645
f 240 647 646
f 182 918 181
f 239 240 580
f 239 580 579
f 183 919 918
f 183 918 182
f 238 579 578
f 238 239 579
f 184 919 183
f 237 238 578
f 185 920 919
f 185 919 184
f 236 578 577
f 236 237 578
f 929 931 930
f 569 568 567
f 163 920 185
f 163 921 920
f 163 922 921
f 226 236 577
f 226 576 575
f 226 577 576
f 164 923 922
f 164 922 163
f 164 924 923
f 164 925 924
f 225 573 572
f 225 574 573
f 225 575 574
f 225 226 575
f 1077 936 935
f 1102 564 563
f 1078 1077 935
f 165 925 164
f 527 564 1102
f 527 1101 528
f 527 1102 1101
f 972 935 934
f 972 971 1078
f 972 1078 935
f 526 565 564
f 526 564 527
f 973 934 933
f 973 972 934
f 525 566 565
f 525 565 526
f 519 571 570
f 979 927 926
f 978 928 927
f 978 927 979
f 520 519 570
f 520 570 569
f 518 572 571
f 518 571 519
f 980 926 925
f 980 925 165
f 980 979 926
f 977 929 928
f 977 928 978
f 521 569 567
f 521 520 569
f 974 933 932
f 974 973 933
f 517 224 225
f 517 225 572
f 517 572 518
f 524 567 566
f 524 566 525
f 981 980 165
f 975 929 977
f 975 931 929
f 975 932 931
f 975 974 932
f 523 522 521
f 523 521 567
f 523 567 524
f 976 975 977
f 516 224 517
f 982 981 165
f 515 224 516
f 983 982 165
f 983 165 145
f 514 224 515
f 514 204 224
f 984 983 145
f 513 204 514
f 985 984 145
f 985 145 146
f 512 204 513
f 512 203 204
f 986 985 146
f 986 146 147
f 986 147 148
f 511 203 512
f 511 201 202
f 511 202 203
f 987 986 148
f 987 148 149
f 510 201 511
f 510 194 200
f 510 200 201
f 988 987 149
f 988 149 129
f 509 194 510
f 989 988 129
f 508 194 509
f 990 989 129
f 507 194 508
f 991 990 129
f 999 998 997
f 499 501 500
f 1050 992 991
f 448 506 505
f 447 506 448
f 447 194 507
f 447 507 506
f 1051 1050 991
f 1051 991 129
f 1049 993 992
f 1049 992 1050
f 449 448 505
f 449 505 504
f 446 194 447
f 1052 1051 129
f 1048 993 1049
f 1048 994 993
f 450 449 504
f 450 504 503
f 445 194 446
f 1053 1052 129
f 444 194 445
f 1047 994 1048
f 1047 995 994
f 451 450 503
f 451 503 502
f 1054 1053 129
f 443 194 444
f 1046 996 995
f 1046 995 1047
f 452 451 502
f 452 502 501
f 1045 996 1046
f 1045 997 996
f 453 501 499
f 453 452 501
f 1106 496 495
f 1073 1004 1003
f 1055 1054 129
f 455 453 499
f 455 454 453
f 1043 1000 999
f 1043 1045 1044
f 1043 997 1045
f 1043 999 997
f 1074 1073 1003
f 456 499 498
f 456 455 499
f 1042 1001 1000
f 1042 1000 1043
f 457 456 498
f 457 498 497
f 1041 1001 1042
f 1041 1002 1001
f 458 457 497
f 458 497 496
f 1040 1003 1002
f 1040 1039 1074
f 1040 1074 1003
f 1040 1002 1041
f 459 458 496
f 459 1105 460
f 459 1106 1105
f 459 496 1106
f 130 1056 1055
f 130 1057 1056
f 130 1058 1057
f 130 1055 129
f 130 1059 1058
f 176 440 439
f 176 441 440
f 176 442 441
f 176 443 442
f 176 194 443
f 1067 1066 1065
f 376 175 176
f 376 176 377
f 431 433 432
f 306 305 130
f 306 130 136
f 306 136 137
f 304 130 305
f 375 174 175
f 375 175 376
f 378 377 176
f 303 1059 130
f 303 130 304
f 379 176 439
f 379 378 176
f 379 439 438
f 307 306 137
f 307 137 138
f 307 138 139
f 302 1060 1059
f 302 1059 303
f 374 174 375
f 374 172 173
f 374 173 174
f 380 379 438
f 380 438 437
f 308 307 139
f 308 139 140
f 373 162 172
f 373 172 374
f 309 308 140
f 301 1060 302
f 301 1061 1060
f 381 380 437
f 381 437 436
f 372 162 373
f 310 140 160
f 310 309 140
f 300 1061 301
f 300 1062 1061
f 382 436 435
f 382 381 436
f 371 162 372
f 371 161 162
f 311 310 160
f 370 161 371
f 299 1062 300
f 299 1063 1062
f 312 311 160
f 383 382 435
f 383 435 434
f 369 161 370
f 313 312 160
f 313 160 161
f 298 1063 299
f 298 1064 1063
f 384 434 433
f 384 383 434
f 368 161 369
f 368 313 161
f 314 313 368
f 297 1064 298
f 297 1065 1064
f 385 384 433
f 385 433 431
f 367 314 368
f 315 314 367
f 366 315 367
f 387 386 385
f 387 385 431
f 316 315 366
f 295 297 296
f 295 1065 297
f 295 1067 1065
f 295 1068 1067
f 365 316 366
f 317 316 365
f 388 431 430
f 388 387 431
f 294 1068 295
f 294 1069 1068
f 319 318 317
f 389 388 430
f 389 430 429
f 363 319 317
f 363 365 364
f 363 317 365
f 293 1070 1069
f 293 1069 294
f 320 319 363
f 362 320 363
f 390 389 429
f 390 429 428
f 292 1070 293
f 292 1071 1070
f 1115 1072 1071
f 1110 428 427
f 391 390 428
f 391 428 1110
f 1116 1071 292
f 1116 1115 1071
f 1109 391 1110
f 321 320 362
f 392 391 1109
f 291 1116 292
f 361 321 362
f 322 321 361
f 360 322 361
f 323 322 360
f 1114 360 359
f 1114 323 360
f 1113 324 323
f 1113 323 1114
f 1117 1005 1072
f 1117 1072 1115
f 1118 1115 1116
f 1118 1117 1115
f 290 1116 291
f 290 1118 1116
f 1119 257 324
f 1119 324 1113
f 1120 1113 1114
f 1120 1119 1113
f 358 1114 359
f 358 1120 1114
f 969 1079 1080
f 969 1080 970
f 870 869 1079
f 870 1079 969
f 968 870 969
f 871 870 968
f 967 871 968
f 901 1084 902
f 1083 1084 901
f 938 937 1075
f 872 871 967
f 966 872 967
f 873 872 966
f 965 873 966
f 1037 938 1075
f 1037 1075 1076
f 1037 1076 1038
f 963 873 965
f 963 965 964
f 802 901 900
f 802 801 1083
f 802 1083 901
f 875 873 963
f 875 874 873
f 1036 938 1037
f 1036 939 938
f 962 875 963
f 876 875 962
f 961 876 962
f 877 876 961
f 895 897 896
f 943 942 941
f 960 877 961
f 878 877 960
f 803 900 899
f 803 802 900
f 1035 940 939
f 1035 939 1036
f 959 878 960
f 804 899 898
f 804 803 899
f 1034 941 940
f 1034 940 1035
f 805 898 897
f 805 804 898
f 805 897 895
f 1033 941 1034
f 1031 1033 1032
f 1031 943 941
f 1031 941 1033
f 807 895 894
f 807 806 805
f 807 805 895
f 1030 944 943
f 1030 943 1031
f 808 807 894
f 808 894 893
f 1029 944 1030
f 1029 945 944
f 809 808 893
f 809 893 892
f 39 879 878
f 39 880 879
f 39 881 880
f 39 878 959
f 38 39 959
f 38 957 956
f 38 958 957
f 38 959 958
f 1028 946 945
f 1028 945 1029
f 40 881 39
f 40 882 881
f 40 883 882
f 24 955 954
f 24 956 955
f 24 38 956
f 810 809 892
f 810 892 891
f 56 884 883
f 56 883 40
f 23 24 954
f 23 954 953
f 22 23 953
f 57 884 56
f 21 953 952
f 21 22 953
f 58 885 884
f 58 884 57
f 1027 946 1028
f 1027 947 946
f 811 810 891
f 811 891 890
f 59 885 58
f 59 886 885
f 20 21 952
f 4 950 949
f 4 951 950
f 4 952 951
f 4 20 952
f 60 887 886
f 60 886 59
f 60 888 887
f 60 889 888
f 1026 947 1027
f 1026 948 947
f 812 811 890
f 812 890 889
f 1025 4 949
f 1025 948 1026
f 1025 949 948
f 813 889 60
f 813 812 889
f 1024 4 1025
f 814 813 60
f 1088 834 833
f 1117 1006 1005
f 1023 4 1024
f 815 814 60
f 1022 4 1023
f 816 815 60
f 1021 4 1022
f 1087 1088 833
f 827 829 828
f 1011 1010 1009
f 817 816 60
f 289 1117 1118
f 289 1118 290
f 289 1006 1117
f 734 1087 833
f 734 833 832
f 734 733 1087
f 288 1007 1006
f 288 1006 289
f 735 734 832
f 735 832 831
f 287 1008 1007
f 287 1007 288
f 736 735 831
f 736 831 830
f 286 1008 287
f 286 1009 1008
f 737 736 830
f 737 830 829
f 737 829 827
f 285 1009 286
f 283 285 284
f 283 1009 285
f 283 1011 1009
f 739 827 826
f 739 738 737
f 739 737 827
f 282 1012 1011
f 282 1011 283
f 740 826 825
f 740 739 826
f 281 1013 1012
f 281 1012 282
f 741 825 824
f 741 740 825
f 280 1014 1013
f 280 1013 281
f 742 824 823
f 742 741 824
f 279 1015 1014
f 279 1014 280
f 743 823 822
f 743 742 823
f 278 1016 1015
f 278 1015 279
f 744 743 822
f 744 822 821
f 277 1017 1016
f 277 1016 278
f 745 744 821
f 68 818 817
f 68 819 818
f 68 820 819
f 68 821 820
f 68 745 821
f 68 817 60
f 68 746 745
f 68 747 746
f 68 748 747
f 3 275 274
f 3 276 275
f 3 277 276
f 3 1018 1017
f 3 1019 1018
f 3 1020 1019
f 3 1021 1020
f 3 1017 277
f 3 4 1021
f 84 748 68
f 9 274 273
f 9 3 274
f 85 749 748
f 85 748 84
f 8 273 272
f 8 9 273
f 7 8 272
f 86 749 85
f 87 749 86
f 87 750 749
f 6 272 271
f 6 7 272
f 759 761 760
f 263 262 261
f 88 751 750
f 88 752 751
f 88 750 87
f 5 270 269
f 5 271 270
f 5 6 271
f 102 753 752
f 102 754 753
f 102 755 754
f 102 752 88
f 31 267 266
f 31 268 267
f 31 269 268
f 31 5 269
f 1092 766 765
f 1119 258 257
f 1091 1092 765
f 103 755 102
f 357 258 1119
f 357 1119 1120
f 357 1120 358
f 666 1091 765
f 666 765 764
f 666 665 1091
f 356 258 357
f 356 259 258
f 667 764 763
f 667 666 764
f 355 259 356
f 355 260 259
f 349 265 264
f 673 757 756
f 672 757 673
f 672 758 757
f 350 264 263
f 350 349 264
f 348 266 265
f 348 265 349
f 674 755 103
f 674 756 755
f 674 673 756
f 671 758 672
f 671 759 758
f 351 263 261
f 351 350 263
f 668 763 762
f 668 667 763
f 347 30 31
f 347 266 348
f 347 31 266
f 354 260 355
f 354 261 260
f 675 674 103
f 669 759 671
f 669 761 759
f 669 762 761
f 669 668 762
f 353 261 354
f 353 351 261
f 353 352 351
f 670 669 671
f 346 30 347
f 676 675 103
f 345 30 346
f 677 676 103
f 677 103 104
f 344 30 345
f 344 29 30
f 678 677 104
f 343 29 344
f 679 678 104
f 679 104 120
f 342 45 29
f 342 29 343
f 680 679 120
f 680 120 121
f 680 121 122
f 341 43 44
f 341 44 45
f 341 45 342
f 681 680 122
f 681 122 123
f 340 41 42
f 340 42 43
f 340 43 341
f 682 681 123
f 682 123 124
f 339 41 340
f 683 682 124
f 338 41 339
f 684 683 124
f 337 41 338
f 685 684 124
f 693 692 691
f 329 331 330
f 608 686 685
f 414 336 335
f 413 336 414
f 413 337 336
f 413 41 337
f 609 608 685
f 609 685 124
f 607 687 686
f 607 686 608
f 415 335 334
f 415 414 335
f 412 41 413
f 610 609 124
f 606 688 687
f 606 687 607
f 416 415 334
f 416 334 333
f 411 41 412
f 611 610 124
f 410 41 411
f 605 689 688
f 605 688 606
f 417 416 333
f 417 333 332
f 612 611 124
f 409 41 410
f 604 690 689
f 604 689 605
f 418 332 331
f 418 417 332
f 603 691 690
f 603 690 604
f 419 331 329
f 419 418 331
f 1096 698 697
f 1111 326 325
f 613 612 124
f 421 420 419
f 421 419 329
f 601 693 691
f 601 694 693
f 601 603 602
f 601 691 603
f 1095 1096 697
f 422 329 328
f 422 421 329
f 600 695 694
f 600 694 601
f 423 422 328
f 423 328 327
f 599 695 600
f 599 696 695
f 424 423 327
f 424 327 326
f 598 1095 697
f 598 697 696
f 598 696 599
f 598 597 1095
f 425 1111 1112
f 425 1112 426
f 425 326 1111
f 425 424 326
f 105 614 613
f 105 615 614
f 105 616 615
f 105 617 616
f 105 613 124
f 65 406 405
f 65 407 406
f 65 408 407
f 65 409 408
f 65 41 409
f 625 624 623
f 478 73 65
f 478 65 479
f 397 399 398
f 544 105 106
f 544 106 107
f 544 543 105
f 542 105 543
f 477 72 73
f 477 73 478
f 480 479 65
f 541 617 105
f 541 105 542
f 481 480 65
f 481 405 404
f 481 65 405
f 545 544 107
f 545 107 108
f 545 108 109
f 540 617 541
f 540 618 617
f 476 70 71
f 476 71 72
f 476 72 477
f 482 404 403
f 482 481 404
f 546 545 109
f 546 109 93
f 475 69 70
f 475 70 476
f 547 546 93
f 539 618 540
f 539 619 618
f 483 403 402
f 483 482 403
f 474 69 475
f 548 547 93
f 548 93 94
f 538 620 619
f 538 619 539
f 484 402 401
f 484 483 402
f 473 95 69
f 473 69 474
f 549 548 94
f 472 95 473
f 537 621 620
f 537 620 538
f 550 549 94
f 485 484 401
f 485 401 400
f 471 95 472
f 551 550 94
f 551 94 95
f 536 621 537
f 536 622 621
f 486 400 399
f 486 485 400
f 470 551 95
f 470 95 471
f 552 551 470
f 535 623 622
f 535 622 536
f 487 486 399
f 487 399 397
f 469 552 470
f 553 552 469
f 468 553 469
f 489 488 487
f 489 487 397
f 554 553 468
f 533 626 625
f 533 623 535
f 533 535 534
f 533 625 623
f 467 554 468
f 555 554 467
f 490 397 396
f 490 489 397
f 532 627 626
f 532 626 533
f 557 556 555
f 491 396 395
f 491 490 396
f 465 557 555
f 465 555 467
f 465 467 466
f 531 628 627
f 531 627 532
f 558 557 465
f 464 558 465
f 492 395 394
f 492 491 395
f 530 628 531
f 530 629 628
f 1100 630 629
f 1107 394 393
f 493 492 394
f 493 394 1107
f 1099 629 530
f 1099 1100 629
f 1108 493 1107
f 559 558 464
f 494 493 1108
f 529 1099 530
f 463 559 464
f 560 559 463
f 462 560 463
f 561 560 462
f 1104 562 561
f 1103 561 462
f 1103 1104 561
f 1103 462 461

