# https://github.com/mikedh/trimesh
v -4.36791385 247.65000000 1.62560000
v 17.88160000 186.17698505 1.62560000
v 17.88160000 31.75000000 1.62560000
v 17.88160000 31.75000000 0.00000000
v -5.08000000 -6.35000000 -0.00000000
v -5.10540000 -6.35000000 -0.00000000
v -5.10540000 246.84921492 -0.00000000
v -4.36791385 247.65000000 0.00000000
v 17.88160000 186.17698505 -0.00000000
v 14.99409032 201.26511993 -0.00000000
v 15.80151843 209.25668954 0.70196364
v -5.89280000 -6.35000000 2.43840000
v -5.89280000 -4.06400000 25.40000000
v -5.89280000 245.62301495 25.40000000
v -7.51840000 245.62301495 25.40000000
v -7.51840000 246.84921492 2.41300000
v -7.51840000 -6.35000000 2.41300000
v -7.51840000 -4.06400000 25.40000000
v -5.08000000 -6.35000000 1.62560000
v -7.49646526 58.30326373 2.08838342
v -7.50864300 58.18616770 2.19622346
v -7.51595952 56.23140446 2.30450200
v -7.50376636 56.05513562 2.14216658
v -7.47945092 55.88035323 1.98120000
v -7.51595952 246.73140446 2.30450200
v -7.50864300 246.61383230 2.19622346
v -7.49646526 246.49673627 2.08838342
v -7.47945092 246.38035323 1.98120000
v -7.49775645 -6.35000000 2.09804030
v -7.43617902 -6.35000000 1.78846964
v -7.33472131 -6.35000000 1.48958488
v -7.19511930 -6.35000000 1.20650000
v -7.01976161 -6.35000000 0.94405867
v -6.81164866 -6.35000000 0.70675134
v -6.57434133 -6.35000000 0.49863839
v -6.31190000 -6.35000000 0.32328070
v -6.02881512 -6.35000000 0.18367869
v -5.72993036 -6.35000000 0.08222098
v -5.42035970 -6.35000000 0.02064355
v -6.17852214 58.91902731 0.25182674
v -7.06441199 59.21933498 1.00425647
v -7.26657326 58.91902731 1.33987786
v -6.51414353 118.58066502 0.45398801
v -5.32217654 58.18616770 0.00975700
v -5.43001658 58.30326373 0.02193474
v -7.06441199 186.21933498 1.00425647
v -6.81164866 245.27716190 0.70675134
v -7.06441198 245.58066502 1.00425647
v -7.26657326 245.88097269 1.33987786
v -7.39491656 246.13297907 1.65102540
v -6.51414353 245.58066502 0.45398801
v -6.17852214 245.88097269 0.25182674
v -5.86737460 246.13297907 0.12348344
v -5.53720000 246.38035323 0.03894908
v -5.43001658 246.49673627 0.02193474
v -5.32217654 246.61383230 0.00975700
v -5.21389800 246.73140446 0.00244048
v -7.06441196 55.08066499 1.00425644
v -7.26657325 55.38097267 1.33987784
v -7.39491656 55.63297907 1.65102539
v -6.51414356 55.08066499 0.45398804
v -6.17852216 55.38097267 0.25182675
v -5.86737461 55.63297907 0.12348344
v -5.53720000 55.88035323 0.03894908
v -5.37623342 56.05513562 0.01463364
v -5.21389800 56.23140446 0.00244048
f 11 14 2
f 2 9 11
f 13 19 3
f 10 11 9
f 14 11 1
f 1 15 14
f 1 16 15
f 13 18 12
f 12 19 13
f 11 10 8
f 8 1 11
f 8 7 16
f 16 1 8
f 49 59 42
f 47 48 51
f 51 49 52
f 48 49 51
f 17 12 18
f 50 26 25
f 52 37 40
f 40 62 52
f 37 62 40
f 53 37 52
f 53 54 38
f 53 57 56
f 24 28 30
f 30 28 50
f 50 60 30
f 50 28 27
f 27 26 50
f 63 38 37
f 37 53 63
f 63 53 38
f 55 53 56
f 54 53 55
f 31 30 60
f 42 59 31
f 31 49 42
f 50 49 31
f 31 60 50
f 29 20 24
f 24 30 29
f 17 22 29
f 29 22 21
f 6 39 66
f 64 39 38
f 32 31 59
f 32 41 58
f 46 41 32
f 59 49 32
f 32 49 48
f 48 46 32
f 21 26 23
f 23 29 21
f 26 27 23
f 23 27 20
f 20 29 23
f 44 66 39
f 39 64 45
f 33 32 58
f 58 41 33
f 33 41 46
f 33 48 47
f 33 46 48
f 56 44 65
f 65 44 39
f 65 55 56
f 65 45 55
f 39 45 65
f 35 43 61
f 51 43 35
f 47 51 35
f 36 62 37
f 36 35 61
f 61 43 36
f 36 43 51
f 36 51 52
f 52 62 36
f 3 14 13
f 2 14 3
f 3 9 2
f 3 4 9
f 13 14 18
f 14 15 18
f 9 4 5
f 5 10 9
f 7 8 5
f 5 6 7
f 5 8 10
f 4 3 5
f 5 3 19
f 17 18 15
f 15 16 17
f 57 25 16
f 16 7 57
f 53 49 50
f 52 49 53
f 25 57 53
f 50 25 53
f 22 17 16
f 16 25 22
f 22 26 21
f 22 25 26
f 24 20 27
f 27 28 24
f 7 6 66
f 66 57 7
f 38 54 64
f 57 66 44
f 56 57 44
f 45 64 54
f 54 55 45
f 34 5 19
f 19 12 34
f 6 5 34
f 34 39 6
f 37 38 34
f 12 17 34
f 17 29 34
f 38 39 34
f 30 31 34
f 34 29 30
f 31 32 34
f 32 33 34
f 34 36 37
f 35 36 34
f 34 33 47
f 47 35 34

