# https://github.com/mikedh/trimesh

o p00038.obj
v 28.03153991 -77.82746190 9.52250000
v 27.68183500 -77.58092924 9.52250000
v 27.36984412 -77.28812629 9.52250000
v 27.10163980 -76.95475215 9.52250000
v 26.88244234 -76.58729556 9.52250000
v 26.71651817 -76.19290864 9.52250000
v 26.60709682 -75.77926768 9.52250000
v 26.55630803 -75.35442374 9.52250000
v 26.56514038 -74.92664592 9.52250000
v 26.63342193 -74.50426043 9.52250000
v 26.75982366 -74.09548852 9.52250000
v 26.94188532 -73.70828647 9.52250000
v 27.17606328 -73.35019073 9.52250000
v 27.45779953 -73.02817123 9.52250000
v 27.78161039 -72.74849570 9.52250000
v 28.14119326 -72.51660772 9.52250000
v 28.52954926 -72.33702072 9.52250000
v 28.93911949 -72.21323016 9.52250000
v 29.36193212 -72.14764548 9.52250000
v 29.78975760 -72.14154321 9.52250000
v 30.21426878 -72.19504212 9.52250000
v 30.62720303 -72.30710093 9.52250000
v 31.02052307 -72.47553852 9.52250000
v 31.38657336 -72.69707646 9.52250000
v 31.71822915 -72.96740277 9.52250000
v 32.00903514 -73.28125584 9.52250000
v 32.25333112 -73.63252689 9.52250000
v 32.44636215 -74.01437881 9.52250000
v 32.58437109 -74.41937931 9.52250000
v 32.66467177 -74.83964551 9.52250000
v 32.68570122 -75.26699740 9.52250000
v 32.64705012 -75.69311706 9.52250000
v 32.54947078 -76.10971056 9.52250000
v 32.39486246 -76.50866939 9.52250000
v 32.18623444 -76.88222825 9.52250000
v 31.92764744 -77.22311626 9.52250000
v 31.62413454 -77.52469841 9.52250000
v 31.28160328 -77.78110476 9.52250000
v 30.90672065 -77.98734464 9.52250000
v 30.50678331 -78.13940382 9.52250000
v 30.08957558 -78.23432266 9.52250000
v 29.66321794 -78.27025367 9.52250000
v 29.23600896 -78.24649748 9.52250000
v 28.81626376 -78.16351648 9.52250000
v 28.41215222 -78.02292581 9.52250000
v 28.53216008 -77.00028007 9.52250000
v 28.29270463 -76.83147035 9.52250000
v 28.07907333 -76.63097771 9.52250000
v 27.89542424 -76.40270452 9.52250000
v 27.74533191 -76.15109386 9.52250000
v 27.63171770 -75.88104304 9.52250000
v 27.55679299 -75.59780830 9.52250000
v 27.52201610 -75.30690247 9.52250000
v 27.52806391 -75.01398770 9.52250000
v 27.57481873 -74.72476526 9.52250000
v 27.66137052 -74.44486453 9.52250000
v 27.78603464 -74.17973345 9.52250000
v 27.94638466 -73.93453250 9.52250000
v 28.13929954 -73.71403423 9.52250000
v 28.36102441 -73.52253041 9.52250000
v 28.60724365 -73.36374842 9.52250000
v 28.87316488 -73.24077879 9.52250000
v 29.15361225 -73.15601496 9.52250000
v 29.44312717 -73.11110679 9.52250000
v 29.73607457 -73.10692835 9.52250000
v 30.02675254 -73.14356096 9.52250000
v 30.30950338 -73.22029163 9.52250000
v 30.57882367 -73.33562687 9.52250000
v 30.82947138 -73.48732182 9.52250000
v 31.05656796 -73.67242390 9.52250000
v 31.25569321 -73.88733031 9.52250000
v 31.42297140 -74.12785815 9.52250000
v 31.55514664 -74.38932582 9.52250000
v 31.64964630 -74.66664413 9.52250000
v 31.70463104 -74.95441541 9.52250000
v 31.71903066 -75.24703853 9.52250000
v 31.69256487 -75.53881789 9.52250000
v 31.62574881 -75.82407435 9.52250000
v 31.51988297 -76.09725571 9.52250000
v 31.37702791 -76.35304481 9.52250000
v 31.19996414 -76.58646302 9.52250000
v 30.99213801 -76.79296709 9.52250000
v 30.75759462 -76.96853768 9.52250000
v 30.50089909 -77.10975750 9.52250000
v 30.22704770 -77.21387786 9.52250000
v 29.94137066 -77.27887218 9.52250000
v 29.64942834 -77.30347542 9.52250000
v 29.35690308 -77.28720871 9.52250000
v 29.06948855 -77.23038865 9.52250000
v 28.79277893 -77.13412120 9.52250000
v 28.03153991 -77.82746190 -9.52750000
v 27.68183500 -77.58092924 -9.52750000
v 27.36984412 -77.28812629 -9.52750000
v 27.10163980 -76.95475215 -9.52750000
v 26.88244234 -76.58729556 -9.52750000
v 26.71651817 -76.19290864 -9.52750000
v 26.60709682 -75.77926768 -9.52750000
v 26.55630803 -75.35442374 -9.52750000
v 26.56514038 -74.92664592 -9.52750000
v 26.63342193 -74.50426043 -9.52750000
v 26.75982366 -74.09548852 -9.52750000
v 26.94188532 -73.70828647 -9.52750000
v 27.17606328 -73.35019073 -9.52750000
v 27.45779953 -73.02817123 -9.52750000
v 27.78161039 -72.74849570 -9.52750000
v 28.14119326 -72.51660772 -9.52750000
v 28.52954926 -72.33702072 -9.52750000
v 28.93911949 -72.21323016 -9.52750000
v 29.36193212 -72.14764548 -9.52750000
v 29.78975760 -72.14154321 -9.52750000
v 30.21426878 -72.19504212 -9.52750000
v 30.62720303 -72.30710093 -9.52750000
v 31.02052307 -72.47553852 -9.52750000
v 31.38657336 -72.69707646 -9.52750000
v 31.71822915 -72.96740277 -9.52750000
v 32.00903514 -73.28125584 -9.52750000
v 32.25333112 -73.63252689 -9.52750000
v 32.44636215 -74.01437881 -9.52750000
v 32.58437109 -74.41937931 -9.52750000
v 32.66467177 -74.83964551 -9.52750000
v 32.68570122 -75.26699740 -9.52750000
v 32.64705012 -75.69311706 -9.52750000
v 32.54947078 -76.10971056 -9.52750000
v 32.39486246 -76.50866939 -9.52750000
v 32.18623444 -76.88222825 -9.52750000
v 31.92764744 -77.22311626 -9.52750000
v 31.62413454 -77.52469841 -9.52750000
v 31.28160328 -77.78110476 -9.52750000
v 30.90672065 -77.98734464 -9.52750000
v 30.50678331 -78.13940382 -9.52750000
v 30.08957558 -78.23432266 -9.52750000
v 29.66321794 -78.27025367 -9.52750000
v 29.23600896 -78.24649748 -9.52750000
v 28.81626376 -78.16351648 -9.52750000
v 28.41215222 -78.02292581 -9.52750000
v 28.53216008 -77.00028007 -9.52750000
v 28.29270463 -76.83147035 -9.52750000
v 28.07907333 -76.63097771 -9.52750000
v 27.89542424 -76.40270452 -9.52750000
v 27.74533191 -76.15109386 -9.52750000
v 27.63171770 -75.88104304 -9.52750000
v 27.55679299 -75.59780830 -9.52750000
v 27.52201610 -75.30690247 -9.52750000
v 27.52806391 -75.01398770 -9.52750000
v 27.57481873 -74.72476526 -9.52750000
v 27.66137052 -74.44486453 -9.52750000
v 27.78603464 -74.17973345 -9.52750000
v 27.94638466 -73.93453250 -9.52750000
v 28.13929954 -73.71403423 -9.52750000
v 28.36102441 -73.52253041 -9.52750000
v 28.60724365 -73.36374842 -9.52750000
v 28.87316488 -73.24077879 -9.52750000
v 29.15361225 -73.15601496 -9.52750000
v 29.44312717 -73.11110679 -9.52750000
v 29.73607457 -73.10692835 -9.52750000
v 30.02675254 -73.14356096 -9.52750000
v 30.30950338 -73.22029163 -9.52750000
v 30.57882367 -73.33562687 -9.52750000
v 30.82947138 -73.48732182 -9.52750000
v 31.05656796 -73.67242390 -9.52750000
v 31.25569321 -73.88733031 -9.52750000
v 31.42297140 -74.12785815 -9.52750000
v 31.55514664 -74.38932582 -9.52750000
v 31.64964630 -74.66664413 -9.52750000
v 31.70463104 -74.95441541 -9.52750000
v 31.71903066 -75.24703853 -9.52750000
v 31.69256487 -75.53881789 -9.52750000
v 31.62574881 -75.82407435 -9.52750000
v 31.51988297 -76.09725571 -9.52750000
v 31.37702791 -76.35304481 -9.52750000
v 31.19996414 -76.58646302 -9.52750000
v 30.99213801 -76.79296709 -9.52750000
v 30.75759462 -76.96853768 -9.52750000
v 30.50089909 -77.10975750 -9.52750000
v 30.22704770 -77.21387786 -9.52750000
v 29.94137066 -77.27887218 -9.52750000
v 29.64942834 -77.30347542 -9.52750000
v 29.35690308 -77.28720871 -9.52750000
v 29.06948855 -77.23038865 -9.52750000
v 28.79277893 -77.13412120 -9.52750000
v 27.98850106 -77.89857561 -0.00250000
v 27.62931789 -77.64536102 -0.00250000
v 27.30887092 -77.34462206 -0.00250000
v 27.03339730 -77.00221228 -0.00250000
v 26.80825880 -76.62479629 -0.00250000
v 26.63783749 -76.21972006 -0.00250000
v 26.52545042 -75.79486794 -0.00250000
v 26.47328508 -75.35850920 -0.00250000
v 26.48235681 -74.91913705 -0.00250000
v 26.55248903 -74.48530339 -0.00250000
v 26.68231671 -74.06545229 -0.00250000
v 26.86931290 -73.66775567 -0.00250000
v 27.10983793 -73.29995424 -0.00250000
v 27.39921024 -72.96920685 -0.00250000
v 27.73179755 -72.68195111 -0.00250000
v 28.10112641 -72.44377813 -0.00250000
v 28.50000826 -72.25932367 -0.00250000
v 28.92067932 -72.13217794 -0.00250000
v 29.35495170 -72.06481568 -0.00250000
v 29.79437279 -72.05854801 -0.00250000
v 30.23038975 -72.11349694 -0.00250000
v 30.65451601 -72.22859294 -0.00250000
v 31.05849644 -72.40159581 -0.00250000
v 31.43446801 -72.62913822 -0.00250000
v 31.77511287 -72.90679135 -0.00250000
v 32.07380075 -73.22915097 -0.00250000
v 32.32471803 -73.58994273 -0.00250000
v 32.52298090 -73.98214422 -0.00250000
v 32.66473038 -74.39812169 -0.00250000
v 32.74720750 -74.82977862 -0.00250000
v 32.76880692 -75.26871328 -0.00250000
v 32.72910824 -75.70638233 -0.00250000
v 32.62888414 -76.13426702 -0.00250000
v 32.47008539 -76.54403906 -0.00250000
v 32.25580280 -76.92772272 -0.00250000
v 31.99020715 -77.27785002 -0.00250000
v 31.67846796 -77.58760614 -0.00250000
v 31.32665287 -77.85096202 -0.00250000
v 30.94160957 -78.06279174 -0.00250000
v 30.53083248 -78.21897228 -0.00250000
v 30.10231692 -78.31646377 -0.00250000
v 29.66440345 -78.35336863 -0.00250000
v 29.22561556 -78.32896856 -0.00250000
v 28.79449376 -78.24373848 -0.00250000
v 28.37942934 -78.09933729 -0.00250000
v 28.02436677 -77.83931418 -7.94000000
v 28.01719362 -77.85116647 -6.35250000
v 28.01002048 -77.86301875 -4.76500000
v 28.00284734 -77.87487104 -3.17750000
v 27.99567420 -77.88672332 -1.59000000
v 28.79460099 -78.17193395 -7.94000000
v 29.62601257 -78.28441256 -7.94000000
v 28.79089155 -78.18528201 -6.35250000
v 30.45693952 -78.16840801 -7.94000000
v 29.62604195 -78.29826644 -6.35250000
v 31.22575580 -77.83252380 -7.94000000
v 28.78718212 -78.19863007 -4.76500000
v 30.46070555 -78.18174021 -6.35250000
v 31.87544180 -77.30167095 -7.94000000
v 29.62607134 -78.31212031 -4.76500000
v 31.23297915 -77.84434555 -6.35250000
v 32.35781330 -76.61522037 -7.94000000
v 28.78347268 -78.21197813 -3.17750000
v 30.46447157 -78.19507242 -4.76500000
v 31.88558677 -77.31110548 -6.35250000
v 32.63709501 -75.82408297 -7.94000000
v 29.62610072 -78.32597418 -3.17750000
v 31.24020251 -77.85616730 -4.76500000
v 32.37012747 -76.62156796 -6.35250000
v 32.69257388 -74.98693379 -7.94000000
v 28.77976325 -78.22532619 -1.59000000
v 30.46823760 -78.20840462 -3.17750000
v 31.89573173 -77.32054001 -4.76500000
v 32.65066510 -75.82687286 -6.35250000
v 32.52013530 -74.16586035 -7.94000000
v 29.62613011 -78.33982805 -1.59000000
v 31.24742586 -77.86798905 -3.17750000
v 32.38244164 -76.62791556 -4.76500000
v 32.70639345 -74.98595905 -6.35250000
v 32.13256824 -73.42175791 -7.94000000
v 30.47200362 -78.22173682 -1.59000000
v 31.90587670 -77.32997453 -3.17750000
v 32.66423518 -75.82966274 -4.76500000
v 32.53317942 -74.16119328 -6.35250000
v 31.55861679 -72.80981315 -7.94000000
v 31.25464922 -77.87981080 -1.59000000
v 32.39475580 -76.63426315 -3.17750000
v 32.72021302 -74.98498431 -4.76500000
v 32.14386949 -73.41374465 -6.35250000
v 30.84084829 -72.37541122 -7.94000000
v 31.91602166 -77.33940906 -1.59000000
v 32.67780526 -75.83245262 -3.17750000
v 32.54622354 -74.15652621 -4.76500000
v 31.56733700 -72.79904800 -6.35250000
v 30.03249635 -72.15076970 -7.94000000
v 32.40706997 -76.64061074 -1.59000000
v 32.73403259 -74.98400958 -3.17750000
v 32.15517074 -73.40573139 -4.76500000
v 30.84634073 -72.36269258 -6.35250000
v 29.19351275 -72.15254925 -7.94000000
v 32.69137535 -75.83524250 -1.59000000
v 32.55926766 -74.15185915 -3.17750000
v 31.57605722 -72.78828286 -4.76500000
v 30.03435368 -72.13704087 -6.35250000
v 28.38612104 -72.38061787 -7.94000000
v 32.74785216 -74.98303484 -1.59000000
v 32.16647199 -73.39771813 -3.17750000
v 30.85183318 -72.34997395 -4.76500000
v 29.19159720 -72.13882841 -6.35250000
v 27.67020179 -72.81806077 -7.94000000
v 32.57231178 -74.14719208 -1.59000000
v 31.58477744 -72.77751771 -3.17750000
v 30.03621100 -72.12331203 -4.76500000
v 28.38057469 -72.36792265 -6.35250000
v 27.09885145 -73.43243479 -7.94000000
v 32.17777324 -73.38970487 -1.59000000
v 30.85732562 -72.33725531 -3.17750000
v 29.18968165 -72.12510758 -4.76500000
v 27.66143599 -72.80733271 -6.35250000
v 26.71444446 -74.17817464 -7.94000000
v 31.59349765 -72.76675256 -1.59000000
v 30.03806833 -72.10958319 -3.17750000
v 28.37502834 -72.35522743 -4.76500000
v 27.08751631 -73.42446955 -6.35250000
v 26.54549052 -74.99997220 -7.94000000
v 30.86281807 -72.32453668 -1.59000000
v 29.18776611 -72.11138674 -3.17750000
v 27.65267018 -72.79660465 -4.76500000
v 26.70138066 -74.17356295 -6.35250000
v 26.60452019 -75.83687850 -7.94000000
v 30.03992565 -72.09585435 -1.59000000
v 28.36948199 -72.34253221 -3.17750000
v 27.07618117 -73.41650430 -4.76500000
v 26.53166694 -74.99905610 -6.35250000
v 26.88715549 -76.62682404 -7.94000000
v 29.18585056 -72.09766591 -1.59000000
v 27.64390438 -72.78587659 -3.17750000
v 26.68831685 -74.16895126 -4.76500000
v 26.59096206 -75.83972593 -6.35250000
v 27.37243466 -77.31122216 -7.94000000
v 28.36393564 -72.32983699 -1.59000000
v 27.06484603 -73.40853905 -3.17750000
v 26.51784336 -74.99813999 -4.76500000
v 26.87486836 -76.63322381 -6.35250000
v 27.63513857 -72.77514853 -1.59000000
v 26.67525305 -74.16433957 -3.17750000
v 26.57740393 -75.84257335 -4.76500000
v 27.36232981 -77.32069964 -6.35250000
v 27.05351088 -73.40057380 -1.59000000
v 26.50401978 -74.99722389 -3.17750000
v 26.86258123 -76.63962358 -4.76500000
v 26.66218925 -74.15972788 -1.59000000
v 26.56384581 -75.84542078 -3.17750000
v 27.35222496 -77.33017712 -4.76500000
v 26.49019620 -74.99630778 -1.59000000
v 26.85029410 -76.64602336 -3.17750000
v 26.55028768 -75.84826820 -1.59000000
v 27.34212011 -77.33965459 -3.17750000
v 26.83800697 -76.65242313 -1.59000000
v 27.33201526 -77.34913207 -1.59000000
v 28.02436677 -77.83931418 7.93500000
v 28.01719362 -77.85116647 6.34750000
v 28.01002048 -77.86301875 4.76000000
v 28.00284734 -77.87487104 3.17250000
v 27.99567420 -77.88672332 1.58500000
v 27.37243466 -77.31122216 7.93500000
v 26.88715549 -76.62682404 7.93500000
v 27.36232981 -77.32069964 6.34750000
v 26.60452019 -75.83687850 7.93500000
v 26.87486836 -76.63322381 6.34750000
v 26.54549052 -74.99997220 7.93500000
v 27.35222496 -77.33017712 4.76000000
v 26.59096206 -75.83972593 6.34750000
v 26.71444446 -74.17817464 7.93500000
v 26.86258123 -76.63962358 4.76000000
v 26.53166694 -74.99905610 6.34750000
v 27.09885145 -73.43243479 7.93500000
v 27.34212011 -77.33965459 3.17250000
v 26.57740393 -75.84257335 4.76000000
v 26.70138066 -74.17356295 6.34750000
v 27.67020179 -72.81806077 7.93500000
v 26.85029410 -76.64602336 3.17250000
v 26.51784336 -74.99813999 4.76000000
v 27.08751631 -73.42446955 6.34750000
v 28.38612104 -72.38061787 7.93500000
v 27.33201526 -77.34913207 1.58500000
v 26.56384581 -75.84542078 3.17250000
v 26.68831685 -74.16895126 4.76000000
v 27.66143599 -72.80733271 6.34750000
v 29.19351275 -72.15254925 7.93500000
v 26.83800697 -76.65242313 1.58500000
v 26.50401978 -74.99722389 3.17250000
v 27.07618117 -73.41650430 4.76000000
v 28.38057469 -72.36792265 6.34750000
v 30.03249635 -72.15076970 7.93500000
v 26.55028768 -75.84826820 1.58500000
v 26.67525305 -74.16433957 3.17250000
v 27.65267018 -72.79660465 4.76000000
v 29.19159720 -72.13882841 6.34750000
v 30.84084829 -72.37541122 7.93500000
v 26.49019620 -74.99630778 1.58500000
v 27.06484603 -73.40853905 3.17250000
v 28.37502834 -72.35522743 4.76000000
v 30.03435368 -72.13704087 6.34750000
v 31.55861679 -72.80981315 7.93500000
v 26.66218925 -74.15972788 1.58500000
v 27.64390438 -72.78587659 3.17250000
v 29.18968165 -72.12510758 4.76000000
v 30.84634073 -72.36269258 6.34750000
v 32.13256824 -73.42175791 7.93500000
v 27.05351088 -73.40057380 1.58500000
v 28.36948199 -72.34253221 3.17250000
v 30.03621100 -72.12331203 4.76000000
v 31.56733700 -72.79904800 6.34750000
v 32.52013530 -74.16586035 7.93500000
v 27.63513857 -72.77514853 1.58500000
v 29.18776611 -72.11138674 3.17250000
v 30.85183318 -72.34997395 4.76000000
v 32.14386949 -73.41374465 6.34750000
v 32.69257388 -74.98693379 7.93500000
v 28.36393564 -72.32983699 1.58500000
v 30.03806833 -72.10958319 3.17250000
v 31.57605722 -72.78828286 4.76000000
v 32.53317942 -74.16119328 6.34750000
v 32.63709501 -75.82408297 7.93500000
v 29.18585056 -72.09766591 1.58500000
v 30.85732562 -72.33725531 3.17250000
v 32.15517074 -73.40573139 4.76000000
v 32.70639345 -74.98595905 6.34750000
v 32.35781330 -76.61522037 7.93500000
v 30.03992565 -72.09585435 1.58500000
v 31.58477744 -72.77751771 3.17250000
v 32.54622354 -74.15652621 4.76000000
v 32.65066510 -75.82687286 6.34750000
v 31.87544180 -77.30167095 7.93500000
v 30.86281807 -72.32453668 1.58500000
v 32.16647199 -73.39771813 3.17250000
v 32.72021302 -74.98498431 4.76000000
v 32.37012747 -76.62156796 6.34750000
v 31.22575580 -77.83252380 7.93500000
v 31.59349765 -72.76675256 1.58500000
v 32.55926766 -74.15185915 3.17250000
v 32.66423518 -75.82966274 4.76000000
v 31.88558677 -77.31110548 6.34750000
v 30.45693952 -78.16840801 7.93500000
v 32.17777324 -73.38970487 1.58500000
v 32.73403259 -74.98400958 3.17250000
v 32.38244164 -76.62791556 4.76000000
v 31.23297915 -77.84434555 6.34750000
v 29.62601257 -78.28441256 7.93500000
v 32.57231178 -74.14719208 1.58500000
v 32.67780526 -75.83245262 3.17250000
v 31.89573173 -77.32054001 4.76000000
v 30.46070555 -78.18174021 6.34750000
v 28.79460099 -78.17193395 7.93500000
v 32.74785216 -74.98303484 1.58500000
v 32.39475580 -76.63426315 3.17250000
v 31.24020251 -77.85616730 4.76000000
v 29.62604195 -78.29826644 6.34750000
v 32.69137535 -75.83524250 1.58500000
v 31.90587670 -77.32997453 3.17250000
v 30.46447157 -78.19507242 4.76000000
v 28.79089155 -78.18528201 6.34750000
v 32.40706997 -76.64061074 1.58500000
v 31.24742586 -77.86798905 3.17250000
v 29.62607134 -78.31212031 4.76000000
v 31.91602166 -77.33940906 1.58500000
v 30.46823760 -78.20840462 3.17250000
v 28.78718212 -78.19863007 4.76000000
v 31.25464922 -77.87981080 1.58500000
v 29.62610072 -78.32597418 3.17250000
v 30.47200362 -78.22173682 1.58500000
v 28.78347268 -78.21197813 3.17250000
v 29.62613011 -78.33982805 1.58500000
v 28.77976325 -78.22532619 1.58500000
f 75 29 74
f 75 30 29
f 73 74 29
f 73 29 28
f 76 30 75
f 76 31 30
f 72 73 28
f 72 28 27
f 77 31 76
f 77 32 31
f 71 72 27
f 71 27 26
f 78 32 77
f 78 33 32
f 70 71 26
f 70 26 25
f 79 34 33
f 79 33 78
f 69 70 25
f 69 24 23
f 69 25 24
f 80 34 79
f 80 35 34
f 68 23 22
f 68 69 23
f 81 35 80
f 81 36 35
f 67 68 22
f 82 37 36
f 82 38 37
f 82 36 81
f 66 67 22
f 66 22 21
f 83 38 82
f 65 21 20
f 65 66 21
f 84 39 38
f 84 38 83
f 64 20 19
f 64 65 20
f 85 40 39
f 85 39 84
f 63 19 18
f 63 64 19
f 41 40 85
f 41 85 86
f 17 62 63
f 17 63 18
f 42 86 87
f 42 41 86
f 16 61 62
f 16 62 17
f 43 87 88
f 43 42 87
f 15 61 16
f 15 60 61
f 44 43 88
f 44 88 89
f 14 60 15
f 14 58 59
f 14 59 60
f 45 44 89
f 45 89 90
f 45 90 46
f 13 58 14
f 13 57 58
f 1 45 46
f 12 57 13
f 2 46 47
f 2 1 46
f 11 57 12
f 11 56 57
f 3 2 47
f 3 47 48
f 3 48 49
f 10 55 56
f 10 56 11
f 4 3 49
f 4 49 50
f 9 53 54
f 9 54 55
f 9 55 10
f 5 50 51
f 5 4 50
f 8 53 9
f 6 5 51
f 7 51 52
f 7 52 53
f 7 53 8
f 7 6 51
f 165 164 119
f 165 119 120
f 163 119 164
f 163 118 119
f 166 165 120
f 166 120 121
f 162 118 163
f 162 117 118
f 167 166 121
f 167 121 122
f 161 117 162
f 161 116 117
f 168 167 122
f 168 122 123
f 160 116 161
f 160 115 116
f 169 123 124
f 169 168 123
f 159 115 160
f 159 113 114
f 159 114 115
f 170 169 124
f 170 124 125
f 158 112 113
f 158 113 159
f 171 170 125
f 171 125 126
f 157 112 158
f 172 126 127
f 172 127 128
f 172 171 126
f 156 112 157
f 156 111 112
f 173 172 128
f 155 110 111
f 155 111 156
f 174 128 129
f 174 173 128
f 154 109 110
f 154 110 155
f 175 129 130
f 175 174 129
f 153 108 109
f 153 109 154
f 131 175 130
f 131 176 175
f 107 153 152
f 107 108 153
f 132 177 176
f 132 176 131
f 106 152 151
f 106 107 152
f 133 178 177
f 133 177 132
f 105 106 151
f 105 151 150
f 134 178 133
f 134 179 178
f 104 105 150
f 104 149 148
f 104 150 149
f 135 179 134
f 135 180 179
f 135 136 180
f 103 104 148
f 103 148 147
f 91 136 135
f 102 103 147
f 92 137 136
f 92 136 91
f 101 102 147
f 101 147 146
f 93 137 92
f 93 138 137
f 93 139 138
f 100 146 145
f 100 101 146
f 94 139 93
f 94 140 139
f 99 144 143
f 99 145 144
f 99 100 145
f 95 141 140
f 95 140 94
f 98 99 143
f 96 141 95
f 97 142 141
f 97 143 142
f 97 98 143
f 97 141 96
f 226 91 135
f 225 181 230
f 226 92 91
f 181 182 230
f 231 226 135
f 231 134 133
f 231 135 134
f 232 231 133
f 232 132 131
f 232 133 132
f 233 226 231
f 233 227 226
f 233 228 227
f 234 232 131
f 234 130 129
f 234 131 130
f 235 233 231
f 235 231 232
f 236 234 129
f 236 128 127
f 236 129 128
f 237 229 228
f 237 228 233
f 238 232 234
f 238 235 232
f 239 236 127
f 239 126 125
f 239 127 126
f 240 237 233
f 240 233 235
f 241 238 234
f 241 234 236
f 242 239 125
f 242 124 123
f 242 125 124
f 243 230 229
f 243 229 237
f 244 235 238
f 244 240 235
f 245 236 239
f 245 241 236
f 245 239 242
f 246 242 123
f 246 122 121
f 246 123 122
f 247 237 240
f 247 243 237
f 248 244 238
f 248 238 241
f 249 245 242
f 250 246 121
f 250 120 119
f 250 121 120
f 251 223 224
f 251 224 225
f 251 225 230
f 251 230 243
f 252 247 240
f 252 240 244
f 252 244 248
f 253 241 245
f 253 248 241
f 254 242 246
f 254 249 242
f 255 250 119
f 255 118 117
f 255 119 118
f 256 221 222
f 256 222 223
f 256 223 251
f 256 243 247
f 256 251 243
f 257 252 248
f 258 245 249
f 258 253 245
f 259 254 246
f 259 250 255
f 259 246 250
f 260 255 117
f 260 116 115
f 260 117 116
f 261 247 252
f 261 256 247
f 261 219 220
f 261 220 221
f 261 221 256
f 262 248 253
f 262 257 248
f 263 258 249
f 263 249 254
f 264 259 255
f 264 255 260
f 265 115 114
f 265 260 115
f 266 252 257
f 266 217 218
f 266 218 219
f 266 219 261
f 266 261 252
f 267 253 258
f 267 262 253
f 268 254 259
f 268 259 264
f 268 263 254
f 269 260 265
f 269 264 260
f 270 113 112
f 270 114 113
f 270 265 114
f 271 257 262
f 271 215 216
f 271 216 217
f 271 266 257
f 271 217 266
f 272 258 263
f 272 267 258
f 273 268 264
f 274 269 265
f 275 270 112
f 275 111 110
f 275 112 111
f 276 262 267
f 276 213 214
f 276 214 215
f 276 215 271
f 276 271 262
f 277 268 273
f 277 263 268
f 277 272 263
f 278 273 264
f 278 264 269
f 279 274 265
f 279 270 275
f 279 265 270
f 280 275 110
f 280 109 108
f 280 110 109
f 281 213 276
f 281 267 272
f 281 276 267
f 281 211 212
f 281 212 213
f 282 277 273
f 282 273 278
f 283 278 269
f 283 269 274
f 284 279 275
f 284 275 280
f 285 280 108
f 285 107 106
f 285 108 107
f 286 281 272
f 286 209 210
f 286 210 211
f 286 272 277
f 286 211 281
f 286 277 282
f 287 282 278
f 288 274 279
f 288 283 274
f 289 284 280
f 290 105 104
f 290 106 105
f 290 285 106
f 291 207 208
f 291 208 209
f 291 286 282
f 291 209 286
f 292 278 283
f 292 287 278
f 293 288 279
f 293 279 284
f 294 280 285
f 294 289 280
f 295 290 104
f 295 103 102
f 295 104 103
f 296 207 291
f 296 205 206
f 296 206 207
f 296 282 287
f 296 291 282
f 296 287 292
f 297 288 293
f 297 283 288
f 297 292 283
f 298 289 294
f 298 284 289
f 298 293 284
f 299 294 285
f 299 290 295
f 299 285 290
f 300 101 100
f 300 102 101
f 300 295 102
f 301 205 296
f 301 204 205
f 301 296 292
f 302 297 293
f 302 293 298
f 303 298 294
f 304 299 295
f 305 300 100
f 305 99 98
f 305 100 99
f 306 204 301
f 306 301 292
f 306 202 203
f 306 203 204
f 306 297 302
f 306 292 297
f 307 302 298
f 307 298 303
f 308 299 304
f 308 303 294
f 308 294 299
f 309 304 295
f 309 295 300
f 310 305 98
f 310 97 96
f 310 98 97
f 311 200 201
f 311 201 202
f 311 306 302
f 311 202 306
f 312 307 303
f 313 304 309
f 313 308 304
f 314 300 305
f 314 305 310
f 314 309 300
f 315 310 96
f 315 95 94
f 315 96 95
f 316 200 311
f 316 198 199
f 316 199 200
f 316 311 302
f 316 302 307
f 317 303 308
f 317 312 303
f 318 313 309
f 319 314 310
f 320 315 94
f 320 93 92
f 320 94 93
f 320 92 226
f 321 198 316
f 321 196 197
f 321 197 198
f 321 307 312
f 321 316 307
f 322 317 308
f 322 308 313
f 322 313 318
f 323 318 309
f 323 309 314
f 324 310 315
f 324 319 310
f 325 194 195
f 325 195 196
f 325 317 322
f 325 196 321
f 325 312 317
f 325 321 312
f 326 322 318
f 327 323 314
f 327 314 319
f 327 319 324
f 328 315 320
f 328 324 315
f 328 320 226
f 328 226 227
f 328 227 228
f 329 192 193
f 329 193 194
f 329 194 325
f 329 325 322
f 329 322 326
f 330 318 323
f 330 323 327
f 330 326 318
f 331 327 324
f 332 190 191
f 332 191 192
f 332 192 329
f 332 329 326
f 333 330 327
f 334 324 328
f 334 331 324
f 334 328 228
f 335 332 326
f 335 188 189
f 335 189 190
f 335 190 332
f 335 326 330
f 336 333 327
f 336 327 331
f 337 186 187
f 337 187 188
f 337 335 330
f 337 330 333
f 337 188 335
f 338 334 228
f 338 336 331
f 338 228 229
f 338 331 334
f 339 184 185
f 339 185 186
f 339 337 333
f 339 333 336
f 339 186 337
f 340 229 230
f 340 182 183
f 340 183 184
f 340 230 182
f 340 338 229
f 340 184 339
f 340 336 338
f 340 339 336
f 341 1 2
f 182 181 345
f 341 45 1
f 181 225 345
f 346 341 2
f 346 2 3
f 346 3 4
f 347 4 5
f 347 5 6
f 347 346 4
f 348 342 341
f 348 341 346
f 349 347 6
f 349 6 7
f 349 7 8
f 350 346 347
f 350 348 346
f 351 349 8
f 351 8 9
f 351 9 10
f 352 343 342
f 352 342 348
f 353 347 349
f 353 350 347
f 354 351 10
f 354 10 11
f 354 11 12
f 355 348 350
f 355 352 348
f 356 353 349
f 356 349 351
f 357 12 13
f 357 13 14
f 357 354 12
f 358 344 343
f 358 345 344
f 358 343 352
f 359 353 356
f 359 350 353
f 359 355 350
f 360 351 354
f 360 356 351
f 361 357 14
f 361 14 15
f 361 15 16
f 362 352 355
f 362 358 352
f 362 355 359
f 363 359 356
f 364 354 357
f 364 360 354
f 365 361 16
f 365 16 17
f 365 17 18
f 366 183 182
f 366 184 183
f 366 182 345
f 366 345 358
f 367 362 359
f 368 356 360
f 368 363 356
f 369 364 357
f 369 357 361
f 370 365 18
f 370 18 19
f 370 19 20
f 371 185 184
f 371 186 185
f 371 362 367
f 371 184 366
f 371 358 362
f 371 366 358
f 372 363 368
f 372 367 359
f 372 359 363
f 373 368 360
f 373 360 364
f 374 369 361
f 374 361 365
f 375 370 20
f 375 20 21
f 375 21 22
f 376 187 186
f 376 188 187
f 376 186 371
f 376 367 372
f 376 371 367
f 377 372 368
f 378 373 364
f 378 364 369
f 379 374 365
f 379 365 370
f 380 375 22
f 380 22 23
f 380 23 24
f 381 188 376
f 381 189 188
f 381 190 189
f 381 372 377
f 381 376 372
f 382 368 373
f 382 377 368
f 383 378 369
f 383 369 374
f 384 370 375
f 384 379 370
f 385 380 24
f 385 24 25
f 386 191 190
f 386 192 191
f 386 381 377
f 386 190 381
f 387 373 378
f 387 382 373
f 388 383 374
f 388 374 379
f 389 375 380
f 389 380 385
f 389 384 375
f 390 385 25
f 390 25 26
f 390 26 27
f 391 193 192
f 391 194 193
f 391 386 377
f 391 377 382
f 391 192 386
f 392 387 378
f 392 383 388
f 392 378 383
f 393 388 379
f 393 379 384
f 394 385 390
f 394 389 385
f 395 27 28
f 395 28 29
f 395 390 27
f 396 194 391
f 396 195 194
f 396 196 195
f 396 382 387
f 396 387 392
f 396 391 382
f 397 392 388
f 398 393 384
f 398 384 389
f 399 394 390
f 400 395 29
f 400 29 30
f 400 30 31
f 401 197 196
f 401 198 197
f 401 196 396
f 401 396 392
f 402 397 388
f 402 388 393
f 403 398 389
f 403 389 394
f 404 399 390
f 404 390 395
f 405 31 32
f 405 400 31
f 405 32 33
f 406 199 198
f 406 200 199
f 406 198 401
f 406 401 392
f 406 392 397
f 407 393 398
f 407 402 393
f 408 403 394
f 408 394 399
f 409 395 400
f 409 404 395
f 410 405 33
f 410 33 34
f 410 34 35
f 411 201 200
f 411 202 201
f 411 200 406
f 411 397 402
f 411 406 397
f 412 398 403
f 412 407 398
f 413 399 404
f 413 408 399
f 414 409 400
f 414 400 405
f 414 405 410
f 415 410 35
f 415 35 36
f 415 36 37
f 416 203 202
f 416 202 411
f 416 402 407
f 416 411 402
f 416 407 412
f 417 408 413
f 417 403 408
f 417 412 403
f 418 413 404
f 418 404 409
f 419 414 410
f 420 415 37
f 420 37 38
f 420 38 39
f 421 416 412
f 421 204 203
f 421 205 204
f 421 203 416
f 422 417 413
f 422 413 418
f 423 418 409
f 423 409 414
f 424 419 410
f 424 410 415
f 425 420 39
f 425 39 40
f 425 40 41
f 426 206 205
f 426 207 206
f 426 421 412
f 426 412 417
f 426 205 421
f 427 422 418
f 428 414 419
f 428 423 414
f 429 424 415
f 429 415 420
f 430 425 41
f 430 41 42
f 430 42 43
f 431 207 426
f 431 208 207
f 431 209 208
f 431 426 417
f 431 422 427
f 431 417 422
f 432 418 423
f 432 427 418
f 433 428 419
f 433 419 424
f 434 425 430
f 434 429 420
f 434 420 425
f 435 430 43
f 435 45 341
f 435 43 44
f 435 44 45
f 435 341 342
f 436 209 431
f 436 210 209
f 436 211 210
f 436 431 427
f 437 423 428
f 437 432 423
f 438 433 424
f 438 424 429
f 439 434 430
f 440 211 436
f 440 212 211
f 440 213 212
f 440 427 432
f 440 432 437
f 440 436 427
f 441 437 428
f 441 428 433
f 442 429 434
f 442 438 429
f 443 439 430
f 443 430 435
f 443 435 342
f 444 214 213
f 444 215 214
f 444 213 440
f 444 440 437
f 445 438 442
f 445 433 438
f 445 441 433
f 446 434 439
f 446 442 434
f 447 216 215
f 447 217 216
f 447 215 444
f 447 437 441
f 447 444 437
f 447 441 445
f 448 445 442
f 449 439 443
f 449 446 439
f 449 443 342
f 449 342 343
f 450 218 217
f 450 219 218
f 450 217 447
f 450 447 445
f 451 448 442
f 451 442 446
f 452 445 448
f 452 450 445
f 452 219 450
f 452 220 219
f 452 221 220
f 453 344 345
f 453 449 343
f 453 451 446
f 453 343 344
f 453 446 449
f 454 221 452
f 454 222 221
f 454 223 222
f 454 452 448
f 454 448 451
f 455 223 454
f 455 345 225
f 455 454 451
f 455 451 453
f 455 224 223
f 455 225 224
f 455 453 345
f 90 136 46
f 90 180 136
f 89 180 90
f 89 179 180
f 88 179 89
f 88 178 179
f 87 178 88
f 87 177 178
f 86 177 87
f 86 175 176
f 86 176 177
f 85 175 86
f 84 175 85
f 84 174 175
f 83 174 84
f 83 172 173
f 83 173 174
f 82 172 83
f 82 171 172
f 81 171 82
f 80 171 81
f 80 170 171
f 79 170 80
f 79 169 170
f 78 169 79
f 78 168 169
f 77 168 78
f 77 167 168
f 76 167 77
f 76 166 167
f 75 166 76
f 75 165 166
f 74 165 75
f 74 164 165
f 73 164 74
f 73 163 164
f 72 162 163
f 72 163 73
f 71 161 162
f 71 162 72
f 70 160 161
f 70 161 71
f 69 159 160
f 69 160 70
f 68 157 158
f 68 158 159
f 68 159 69
f 67 156 157
f 67 157 68
f 66 156 67
f 65 156 66
f 65 155 156
f 64 155 65
f 64 154 155
f 63 154 64
f 63 153 154
f 62 153 63
f 62 152 153
f 61 152 62
f 61 151 152
f 60 151 61
f 60 150 151
f 59 150 60
f 59 149 150
f 58 149 59
f 58 148 149
f 57 148 58
f 57 146 147
f 57 147 148
f 56 146 57
f 55 146 56
f 55 145 146
f 54 145 55
f 54 143 144
f 54 144 145
f 53 143 54
f 53 142 143
f 52 142 53
f 52 141 142
f 51 141 52
f 50 140 141
f 50 141 51
f 49 138 139
f 49 139 140
f 49 140 50
f 48 137 138
f 48 138 49
f 47 137 48
f 46 136 137
f 46 137 47

