# https://github.com/mikedh/trimesh
v -27.84228141 -46.98186936 9.52250000
v -27.46013044 -47.17430770 9.52250000
v -27.10848079 -47.41805838 9.52250000
v -26.79417690 -47.70837706 9.52250000
v -26.52333634 -48.03961303 9.52250000
v -26.30123073 -48.40531916 9.52250000
v -26.13218309 -48.79837738 9.52250000
v -26.01948373 -49.21113728 9.52250000
v -25.96532624 -49.63556494 9.52250000
v -25.97076472 -50.06339937 9.52250000
v -26.03569331 -50.48631325 9.52250000
v -26.15884826 -50.89607505 9.52250000
v -26.33783250 -51.28470922 9.52250000
v -26.56916229 -51.64465144 9.52250000
v -26.84833508 -51.96889584 9.52250000
v -27.16991707 -52.25113137 9.52250000
v -27.52764904 -52.48586464 9.52250000
v -27.91456815 -52.66852684 9.52250000
v -28.32314345 -52.79556265 9.52250000
v -28.74542249 -52.86449947 9.52250000
v -29.17318610 -52.87399551 9.52250000
v -29.59810833 -52.82386595 9.52250000
v -30.01191856 -52.71508650 9.52250000
v -30.40656244 -52.54977443 9.52250000
v -30.77435868 -52.33114736 9.52250000
v -31.10814855 -52.06346061 9.52250000
v -31.40143521 -51.75192439 9.52250000
v -31.64851015 -51.40260241 9.52250000
v -31.84456436 -51.02229383 9.52250000
v -31.98578185 -50.61840090 9.52250000
v -32.06941400 -50.19878496 9.52250000
v -32.09383299 -49.77161335 9.52250000
v -32.05856354 -49.34520047 9.52250000
v -31.96429213 -48.92784598 9.52250000
v -31.81285364 -48.52767319 9.52250000
v -31.60719565 -48.15247102 9.52250000
v -31.35132106 -47.80954236 9.52250000
v -31.05021018 -47.50556191 9.52250000
v -30.70972379 -47.24644632 9.52250000
v -30.33648907 -47.03723896 9.52250000
v -29.93777061 -46.88201183 9.52250000
v -29.52132901 -46.78378625 9.52250000
v -29.09526983 -46.74447406 9.52250000
v -28.66788582 -46.76484043 9.52250000
v -28.24749554 -46.84448895 9.52250000
v -28.21584520 -47.87366553 9.52250000
v -27.95417278 -48.00543494 9.52250000
v -27.71338569 -48.17233974 9.52250000
v -27.49817059 -48.37113132 9.52250000
v -27.31271638 -48.59794043 9.52250000
v -27.16063273 -48.84835248 9.52250000
v -27.04487977 -49.11749350 9.52250000
v -26.96771050 -49.40012495 9.52250000
v -26.93062692 -49.69074574 9.52250000
v -26.93435084 -49.98369926 9.52250000
v -26.97880977 -50.27328351 9.52250000
v -27.06313837 -50.55386206 9.52250000
v -27.18569527 -50.81997376 9.52250000
v -27.34409505 -51.06643906 9.52250000
v -27.53525463 -51.28846079 9.52250000
v -27.75545331 -51.48171754 9.52250000
v -28.00040518 -51.64244781 9.52250000
v -28.26534252 -51.76752314 9.52250000
v -28.54510863 -51.85450910 9.52250000
v -28.83425818 -51.90171260 9.52250000
v -29.12716321 -51.90821488 9.52250000
v -29.41812265 -51.87388938 9.52250000
v -29.70147330 -51.79940420 9.52250000
v -29.97170007 -51.68620912 9.52250000
v -30.22354330 -51.53650735 9.52250000
v -30.45210115 -51.35321267 9.52250000
v -30.65292501 -51.13989269 9.52250000
v -30.82210605 -50.90069944 9.52250000
v -30.95635137 -50.64028856 9.52250000
v -31.05304804 -50.36372864 9.52250000
v -31.11031396 -50.07640261 9.52250000
v -31.12703451 -49.78390294 9.52250000
v -31.10288426 -49.49192281 9.52250000
v -31.03833326 -49.20614527 9.52250000
v -30.93463791 -48.93213266 9.52250000
v -30.79381654 -48.67521833 9.52250000
v -30.61861006 -48.44040282 9.52250000
v -30.41242868 -48.23225654 9.52250000
v -30.17928548 -48.05483083 9.52250000
v -29.92371833 -47.91157908 9.52250000
v -29.65070155 -47.80528952 9.52250000
v -29.36554910 -47.73803095 9.52250000
v -29.07381115 -47.71111249 9.52250000
v -28.78116605 -47.72505807 9.52250000
v -28.49330981 -47.77959626 9.52250000
v -27.84228141 -46.98186936 -9.52750000
v -27.46013044 -47.17430770 -9.52750000
v -27.10848079 -47.41805838 -9.52750000
v -26.79417690 -47.70837706 -9.52750000
v -26.52333634 -48.03961303 -9.52750000
v -26.30123073 -48.40531916 -9.52750000
v -26.13218309 -48.79837738 -9.52750000
v -26.01948373 -49.21113728 -9.52750000
v -25.96532624 -49.63556494 -9.52750000
v -25.97076472 -50.06339937 -9.52750000
v -26.03569331 -50.48631325 -9.52750000
v -26.15884826 -50.89607505 -9.52750000
v -26.33783250 -51.28470922 -9.52750000
v -26.56916229 -51.64465144 -9.52750000
v -26.84833508 -51.96889584 -9.52750000
v -27.16991707 -52.25113137 -9.52750000
v -27.52764904 -52.48586464 -9.52750000
v -27.91456815 -52.66852684 -9.52750000
v -28.32314345 -52.79556265 -9.52750000
v -28.74542249 -52.86449947 -9.52750000
v -29.17318610 -52.87399551 -9.52750000
v -29.59810833 -52.82386595 -9.52750000
v -30.01191856 -52.71508650 -9.52750000
v -30.40656244 -52.54977443 -9.52750000
v -30.77435868 -52.33114736 -9.52750000
v -31.10814855 -52.06346061 -9.52750000
v -31.40143521 -51.75192439 -9.52750000
v -31.64851015 -51.40260241 -9.52750000
v -31.84456436 -51.02229383 -9.52750000
v -31.98578185 -50.61840090 -9.52750000
v -32.06941400 -50.19878496 -9.52750000
v -32.09383299 -49.77161335 -9.52750000
v -32.05856354 -49.34520047 -9.52750000
v -31.96429213 -48.92784598 -9.52750000
v -31.81285364 -48.52767319 -9.52750000
v -31.60719565 -48.15247102 -9.52750000
v -31.35132106 -47.80954236 -9.52750000
v -31.05021018 -47.50556191 -9.52750000
v -30.70972379 -47.24644632 -9.52750000
v -30.33648907 -47.03723896 -9.52750000
v -29.93777061 -46.88201183 -9.52750000
v -29.52132901 -46.78378625 -9.52750000
v -29.09526983 -46.74447406 -9.52750000
v -28.66788582 -46.76484043 -9.52750000
v -28.24749554 -46.84448895 -9.52750000
v -28.21584520 -47.87366553 -9.52750000
v -27.95417278 -48.00543494 -9.52750000
v -27.71338569 -48.17233974 -9.52750000
v -27.49817059 -48.37113132 -9.52750000
v -27.31271638 -48.59794043 -9.52750000
v -27.16063273 -48.84835248 -9.52750000
v -27.04487977 -49.11749350 -9.52750000
v -26.96771050 -49.40012495 -9.52750000
v -26.93062692 -49.69074574 -9.52750000
v -26.93435084 -49.98369926 -9.52750000
v -26.97880977 -50.27328351 -9.52750000
v -27.06313837 -50.55386206 -9.52750000
v -27.18569527 -50.81997376 -9.52750000
v -27.34409505 -51.06643906 -9.52750000
v -27.53525463 -51.28846079 -9.52750000
v -27.75545331 -51.48171754 -9.52750000
v -28.00040518 -51.64244781 -9.52750000
v -28.26534252 -51.76752314 -9.52750000
v -28.54510863 -51.85450910 -9.52750000
v -28.83425818 -51.90171260 -9.52750000
v -29.12716321 -51.90821488 -9.52750000
v -29.41812265 -51.87388938 -9.52750000
v -29.70147330 -51.79940420 -9.52750000
v -29.97170007 -51.68620912 -9.52750000
v -30.22354330 -51.53650735 -9.52750000
v -30.45210115 -51.35321267 -9.52750000
v -30.65292501 -51.13989269 -9.52750000
v -30.82210605 -50.90069944 -9.52750000
v -30.95635137 -50.64028856 -9.52750000
v -31.05304804 -50.36372864 -9.52750000
v -31.11031396 -50.07640261 -9.52750000
v -31.12703451 -49.78390294 -9.52750000
v -31.10288426 -49.49192281 -9.52750000
v -31.03833326 -49.20614527 -9.52750000
v -30.93463791 -48.93213266 -9.52750000
v -30.79381654 -48.67521833 -9.52750000
v -30.61861006 -48.44040282 -9.52750000
v -30.41242868 -48.23225654 -9.52750000
v -30.17928548 -48.05483083 -9.52750000
v -29.92371833 -47.91157908 -9.52750000
v -29.65070155 -47.80528952 -9.52750000
v -29.36554910 -47.73803095 -9.52750000
v -29.07381115 -47.71111249 -9.52750000
v -28.78116605 -47.72505807 -9.52750000
v -28.49330981 -47.77959626 -9.52750000
v -27.81016573 -46.90520069 -0.00250000
v -27.41765709 -47.10285480 -0.00250000
v -27.05647646 -47.35321200 -0.00250000
v -26.73365380 -47.65139937 -0.00250000
v -26.45547249 -47.99161303 -0.00250000
v -26.22734702 -48.36723111 -0.00250000
v -26.05371757 -48.77094263 -0.00250000
v -25.93796366 -49.19488981 -0.00250000
v -25.88233831 -49.63082099 -0.00250000
v -25.88792419 -50.07025127 -0.00250000
v -25.95461258 -50.50462765 -0.00250000
v -26.08110547 -50.92549547 -0.00250000
v -26.26494083 -51.32466302 -0.00250000
v -26.50254049 -51.69436097 -0.00250000
v -26.78927987 -52.02739357 -0.00250000
v -27.11957789 -52.31727870 -0.00250000
v -27.48700569 -52.55837409 -0.00250000
v -27.88441170 -52.74598709 -0.00250000
v -28.30406087 -52.87646603 -0.00250000
v -28.73778520 -52.94727128 -0.00250000
v -29.17714273 -52.95702470 -0.00250000
v -29.61358189 -52.90553645 -0.00250000
v -30.03860787 -52.79380869 -0.00250000
v -30.44394802 -52.62401607 -0.00250000
v -30.82171287 -52.39946341 -0.00250000
v -31.16454965 -52.12452138 -0.00250000
v -31.46578543 -51.80454141 -0.00250000
v -31.71955700 -51.44575155 -0.00250000
v -31.92092498 -51.05513523 -0.00250000
v -32.06596998 -50.64029535 -0.00250000
v -32.15186886 -50.20930630 -0.00250000
v -32.17694969 -49.77055680 -0.00250000
v -32.14072431 -49.33258660 -0.00250000
v -32.04389780 -48.90392029 -0.00250000
v -31.88835479 -48.49290138 -0.00250000
v -31.67712273 -48.10752988 -0.00250000
v -31.41431301 -47.75530661 -0.00250000
v -31.10504094 -47.44308720 -0.00250000
v -30.75532614 -47.17694863 -0.00250000
v -30.37197542 -46.96207100 -0.00250000
v -29.96245024 -46.80263666 -0.00250000
v -29.53472157 -46.70174881 -0.00250000
v -29.09711465 -46.66137112 -0.00250000
v -28.65814700 -46.68228949 -0.00250000
v -28.22636263 -46.76409677 -0.00250000
v -27.83692879 -46.96909125 -7.94000000
v -27.83157618 -46.95631313 -6.35250000
v -27.82622357 -46.94353502 -4.76500000
v -27.82087095 -46.93075691 -3.17750000
v -27.81551834 -46.91797880 -1.59000000
v -28.64769603 -46.75332947 -7.94000000
v -29.48660965 -46.76431111 -7.94000000
v -28.64598940 -46.73958109 -6.35250000
v -30.29145127 -47.00122171 -7.94000000
v -29.48867558 -46.75061211 -6.35250000
v -31.00252946 -47.44649069 -7.94000000
v -28.64428277 -46.72583271 -4.76500000
v -30.29713653 -46.98858809 -6.35250000
v -31.56710681 -48.06709449 -7.94000000
v -29.49074150 -46.73691311 -4.76500000
v -31.01141241 -47.43585942 -6.35250000
v -31.94331120 -48.81700576 -7.94000000
v -28.64257614 -46.71208432 -3.17750000
v -30.30282179 -46.97595446 -4.76500000
v -31.57852864 -48.05925405 -6.35250000
v -32.10324127 -49.64060702 -7.94000000
v -29.49280743 -46.72321412 -3.17750000
v -31.02029536 -47.42522815 -4.76500000
v -31.95642480 -48.81253764 -6.35250000
v -32.03503574 -50.47681552 -7.94000000
v -28.64086951 -46.69833594 -1.59000000
v -30.30850705 -46.96332084 -3.17750000
v -31.58995046 -48.05141360 -4.76500000
v -32.11707407 -49.63984259 -6.35250000
v -31.74375311 -51.26361352 -7.94000000
v -29.49487335 -46.70951512 -1.59000000
v -31.02917830 -47.41459688 -3.17750000
v -31.96953840 -48.80806951 -4.76500000
v -32.04856182 -50.47981149 -6.35250000
v -31.25099646 -51.94264779 -7.94000000
v -30.31419231 -46.95068722 -1.59000000
v -31.60137229 -48.04357316 -3.17750000
v -32.13090687 -49.63907816 -4.76500000
v -31.75596930 -51.27014768 -6.35250000
v -30.59331131 -52.46355748 -7.94000000
v -31.03806125 -47.40396561 -1.59000000
v -31.98265200 -48.80360138 -3.17750000
v -32.06208790 -50.48280745 -4.76500000
v -31.26099675 -51.95223554 -6.35250000
v -29.81947516 -52.78770910 -7.94000000
v -31.61279411 -48.03573272 -1.59000000
v -32.14473967 -49.63831373 -3.17750000
v -31.76818550 -51.27668183 -4.76500000
v -30.60035402 -52.47548773 -6.35250000
v -28.98687989 -52.89106180 -7.94000000
v -31.99576560 -48.79913326 -1.59000000
v -32.07561398 -50.48580341 -3.17750000
v -31.27099704 -51.96182328 -4.76500000
v -29.82303797 -52.80109704 -6.35250000
v -28.15727529 -52.76595039 -7.94000000
v -32.15857246 -49.63754930 -1.59000000
v -31.78040169 -51.28321599 -3.17750000
v -30.60739673 -52.48741798 -4.76500000
v -28.98669856 -52.90491452 -6.35250000
v -27.39218933 -52.42165380 -7.94000000
v -32.08914006 -50.48879937 -1.59000000
v -31.28099733 -51.97141102 -3.17750000
v -29.82660077 -52.81448499 -4.76500000
v -28.15336326 -52.77924048 -6.35250000
v -26.74836495 -51.88370695 -7.94000000
v -31.79261789 -51.28975014 -1.59000000
v -30.61443945 -52.49934823 -3.17750000
v -28.98651722 -52.91876723 -4.76500000
v -27.38483675 -52.43339561 -6.35250000
v -26.27355164 -51.19200688 -7.94000000
v -31.29099762 -51.98099876 -1.59000000
v -29.83016358 -52.82787293 -3.17750000
v -28.14945123 -52.79253058 -4.76500000
v -26.73811711 -51.89302963 -6.35250000
v -26.00296414 -50.39785383 -7.94000000
v -30.62148216 -52.51127848 -1.59000000
v -28.98633588 -52.93261995 -3.17750000
v -27.37748416 -52.44513742 -4.76500000
v -26.26116859 -51.19821902 -6.35250000
v -25.95667069 -49.56014650 -7.94000000
v -29.83372638 -52.84126087 -1.59000000
v -28.14553920 -52.80582067 -3.17750000
v -26.72786928 -51.90235232 -4.76500000
v -25.98936428 -50.40049470 -6.35250000
v -26.13810466 -48.74101380 -7.94000000
v -28.98615455 -52.94647266 -1.59000000
v -27.37013158 -52.45687923 -3.17750000
v -26.24878554 -51.20443117 -4.76500000
v -25.94286265 -49.55902024 -6.35250000
v -26.53380993 -48.00120706 -7.94000000
v -28.14162717 -52.81911077 -1.59000000
v -26.71762144 -51.91167501 -3.17750000
v -25.97576441 -50.40313558 -4.76500000
v -26.12511252 -48.73620394 -6.35250000
v -27.11443883 -47.39559437 -7.94000000
v -27.36277899 -52.46862104 -1.59000000
v -26.23640250 -51.21064331 -3.17750000
v -25.92905460 -49.55789398 -4.76500000
v -26.52259725 -47.99307033 -6.35250000
v -26.70737361 -51.92099770 -1.59000000
v -25.96216454 -50.40577645 -3.17750000
v -26.11212037 -48.73139408 -4.76500000
v -27.10583722 -47.38473423 -6.35250000
v -26.22401945 -51.21685546 -1.59000000
v -25.91524655 -49.55676773 -3.17750000
v -26.51138457 -47.98493359 -4.76500000
v -25.94856467 -50.40841733 -1.59000000
v -26.09912822 -48.72658422 -3.17750000
v -27.09723560 -47.37387408 -4.76500000
v -25.90143850 -49.55564147 -1.59000000
v -26.50017189 -47.97679686 -3.17750000
v -26.08613608 -48.72177437 -1.59000000
v -27.08863398 -47.36301393 -3.17750000
v -26.48895921 -47.96866012 -1.59000000
v -27.08003236 -47.35215378 -1.59000000
v -27.83692879 -46.96909125 7.93500000
v -27.83157618 -46.95631313 6.34750000
v -27.82622357 -46.94353502 4.76000000
v -27.82087095 -46.93075691 3.17250000
v -27.81551834 -46.91797880 1.58500000
v -27.11443883 -47.39559437 7.93500000
v -26.53380993 -48.00120706 7.93500000
v -27.10583722 -47.38473423 6.34750000
v -26.13810466 -48.74101380 7.93500000
v -26.52259725 -47.99307033 6.34750000
v -25.95667069 -49.56014650 7.93500000
v -27.09723560 -47.37387408 4.76000000
v -26.12511252 -48.73620394 6.34750000
v -26.00296414 -50.39785383 7.93500000
v -26.51138457 -47.98493359 4.76000000
v -25.94286265 -49.55902024 6.34750000
v -26.27355164 -51.19200688 7.93500000
v -27.08863398 -47.36301393 3.17250000
v -26.11212037 -48.73139408 4.76000000
v -25.98936428 -50.40049470 6.34750000
v -26.74836495 -51.88370695 7.93500000
v -26.50017189 -47.97679686 3.17250000
v -25.92905460 -49.55789398 4.76000000
v -26.26116859 -51.19821902 6.34750000
v -27.39218933 -52.42165380 7.93500000
v -27.08003236 -47.35215378 1.58500000
v -26.09912822 -48.72658422 3.17250000
v -25.97576441 -50.40313558 4.76000000
v -26.73811711 -51.89302963 6.34750000
v -28.15727529 -52.76595039 7.93500000
v -26.48895921 -47.96866012 1.58500000
v -25.91524655 -49.55676773 3.17250000
v -26.24878554 -51.20443117 4.76000000
v -27.38483675 -52.43339561 6.34750000
v -28.98687989 -52.89106180 7.93500000
v -26.08613608 -48.72177437 1.58500000
v -25.96216454 -50.40577645 3.17250000
v -26.72786928 -51.90235232 4.76000000
v -28.15336326 -52.77924048 6.34750000
v -29.81947516 -52.78770910 7.93500000
v -25.90143850 -49.55564147 1.58500000
v -26.23640250 -51.21064331 3.17250000
v -27.37748416 -52.44513742 4.76000000
v -28.98669856 -52.90491452 6.34750000
v -30.59331131 -52.46355748 7.93500000
v -25.94856467 -50.40841733 1.58500000
v -26.71762144 -51.91167501 3.17250000
v -28.14945123 -52.79253058 4.76000000
v -29.82303797 -52.80109704 6.34750000
v -31.25099646 -51.94264779 7.93500000
v -26.22401945 -51.21685546 1.58500000
v -27.37013158 -52.45687923 3.17250000
v -28.98651722 -52.91876723 4.76000000
v -30.60035402 -52.47548773 6.34750000
v -31.74375311 -51.26361352 7.93500000
v -26.70737361 -51.92099770 1.58500000
v -28.14553920 -52.80582067 3.17250000
v -29.82660077 -52.81448499 4.76000000
v -31.26099675 -51.95223554 6.34750000
v -32.03503574 -50.47681552 7.93500000
v -27.36277899 -52.46862104 1.58500000
v -28.98633588 -52.93261995 3.17250000
v -30.60739673 -52.48741798 4.76000000
v -31.75596930 -51.27014768 6.34750000
v -32.10324127 -49.64060702 7.93500000
v -28.14162717 -52.81911077 1.58500000
v -29.83016358 -52.82787293 3.17250000
v -31.27099704 -51.96182328 4.76000000
v -32.04856182 -50.47981149 6.34750000
v -31.94331120 -48.81700576 7.93500000
v -28.98615455 -52.94647266 1.58500000
v -30.61443945 -52.49934823 3.17250000
v -31.76818550 -51.27668183 4.76000000
v -32.11707407 -49.63984259 6.34750000
v -31.56710681 -48.06709449 7.93500000
v -29.83372638 -52.84126087 1.58500000
v -31.28099733 -51.97141102 3.17250000
v -32.06208790 -50.48280745 4.76000000
v -31.95642480 -48.81253764 6.34750000
v -31.00252946 -47.44649069 7.93500000
v -30.62148216 -52.51127848 1.58500000
v -31.78040169 -51.28321599 3.17250000
v -32.13090687 -49.63907816 4.76000000
v -31.57852864 -48.05925405 6.34750000
v -30.29145127 -47.00122171 7.93500000
v -31.29099762 -51.98099876 1.58500000
v -32.07561398 -50.48580341 3.17250000
v -31.96953840 -48.80806951 4.76000000
v -31.01141241 -47.43585942 6.34750000
v -29.48660965 -46.76431111 7.93500000
v -31.79261789 -51.28975014 1.58500000
v -32.14473967 -49.63831373 3.17250000
v -31.58995046 -48.05141360 4.76000000
v -30.29713653 -46.98858809 6.34750000
v -28.64769603 -46.75332947 7.93500000
v -32.08914006 -50.48879937 1.58500000
v -31.98265200 -48.80360138 3.17250000
v -31.02029536 -47.42522815 4.76000000
v -29.48867558 -46.75061211 6.34750000
v -32.15857246 -49.63754930 1.58500000
v -31.60137229 -48.04357316 3.17250000
v -30.30282179 -46.97595446 4.76000000
v -28.64598940 -46.73958109 6.34750000
v -31.99576560 -48.79913326 1.58500000
v -31.02917830 -47.41459688 3.17250000
v -29.49074150 -46.73691311 4.76000000
v -31.61279411 -48.03573272 1.58500000
v -30.30850705 -46.96332084 3.17250000
v -28.64428277 -46.72583271 4.76000000
v -31.03806125 -47.40396561 1.58500000
v -29.49280743 -46.72321412 3.17250000
v -30.31419231 -46.95068722 1.58500000
v -28.64257614 -46.71208432 3.17250000
v -29.49487335 -46.70951512 1.58500000
v -28.64086951 -46.69833594 1.58500000
f 75 29 74
f 75 30 29
f 73 74 29
f 73 29 28
f 76 30 75
f 76 31 30
f 72 73 28
f 72 27 26
f 72 28 27
f 77 31 76
f 77 32 31
f 71 72 26
f 78 32 77
f 78 33 32
f 70 71 26
f 70 26 25
f 79 33 78
f 79 34 33
f 69 25 24
f 69 70 25
f 80 35 34
f 80 34 79
f 68 24 23
f 68 69 24
f 81 36 35
f 81 35 80
f 67 23 22
f 67 68 23
f 82 37 36
f 82 36 81
f 66 22 21
f 66 67 22
f 83 37 82
f 83 38 37
f 65 21 20
f 65 66 21
f 84 38 83
f 84 39 38
f 64 20 19
f 64 65 20
f 85 40 39
f 85 39 84
f 18 64 19
f 63 64 18
f 86 40 85
f 62 63 18
f 41 40 86
f 17 62 18
f 42 86 87
f 42 41 86
f 16 61 62
f 16 62 17
f 60 61 16
f 43 87 88
f 43 42 87
f 15 59 60
f 15 60 16
f 44 43 88
f 44 88 89
f 14 59 15
f 45 44 89
f 45 89 90
f 13 59 14
f 13 57 58
f 13 58 59
f 1 45 90
f 1 46 47
f 1 90 46
f 12 57 13
f 12 56 57
f 2 1 47
f 11 56 12
f 3 2 47
f 3 47 48
f 3 48 49
f 10 56 11
f 10 54 55
f 10 55 56
f 4 3 49
f 9 54 10
f 5 49 50
f 5 4 49
f 8 52 53
f 8 53 54
f 8 54 9
f 6 50 51
f 6 5 50
f 7 51 52
f 7 52 8
f 7 6 51
f 165 164 119
f 165 119 120
f 163 119 164
f 163 118 119
f 166 165 120
f 166 120 121
f 162 118 163
f 162 116 117
f 162 117 118
f 167 166 121
f 167 121 122
f 161 116 162
f 168 167 122
f 168 122 123
f 160 116 161
f 160 115 116
f 169 168 123
f 169 123 124
f 159 114 115
f 159 115 160
f 170 124 125
f 170 169 124
f 158 113 114
f 158 114 159
f 171 125 126
f 171 170 125
f 157 112 113
f 157 113 158
f 172 126 127
f 172 171 126
f 156 111 112
f 156 112 157
f 173 172 127
f 173 127 128
f 155 110 111
f 155 111 156
f 174 173 128
f 174 128 129
f 154 109 110
f 154 110 155
f 175 129 130
f 175 174 129
f 108 109 154
f 153 108 154
f 176 175 130
f 152 108 153
f 131 176 130
f 107 108 152
f 132 177 176
f 132 176 131
f 106 152 151
f 106 107 152
f 150 106 151
f 133 178 177
f 133 177 132
f 105 150 149
f 105 106 150
f 134 178 133
f 134 179 178
f 104 105 149
f 135 179 134
f 135 180 179
f 103 104 149
f 103 148 147
f 103 149 148
f 91 180 135
f 91 137 136
f 91 136 180
f 102 103 147
f 102 147 146
f 92 137 91
f 101 102 146
f 93 137 92
f 93 138 137
f 93 139 138
f 100 101 146
f 100 145 144
f 100 146 145
f 94 139 93
f 99 100 144
f 95 140 139
f 95 139 94
f 98 143 142
f 98 144 143
f 98 99 144
f 96 141 140
f 96 140 95
f 97 142 141
f 97 98 142
f 97 141 96
f 226 91 135
f 225 181 230
f 226 92 91
f 181 182 230
f 231 226 135
f 231 134 133
f 231 135 134
f 232 231 133
f 232 132 131
f 232 133 132
f 233 226 231
f 233 227 226
f 233 228 227
f 234 232 131
f 234 130 129
f 234 131 130
f 235 233 231
f 235 231 232
f 236 234 129
f 236 128 127
f 236 129 128
f 237 229 228
f 237 228 233
f 238 232 234
f 238 235 232
f 239 236 127
f 239 126 125
f 239 127 126
f 240 237 233
f 240 233 235
f 241 238 234
f 241 234 236
f 242 239 125
f 242 124 123
f 242 125 124
f 243 230 229
f 243 229 237
f 244 235 238
f 244 240 235
f 245 236 239
f 245 241 236
f 245 239 242
f 246 242 123
f 246 122 121
f 246 123 122
f 247 237 240
f 247 243 237
f 248 244 238
f 248 238 241
f 249 245 242
f 250 246 121
f 250 120 119
f 250 121 120
f 251 223 224
f 251 224 225
f 251 225 230
f 251 230 243
f 252 247 240
f 252 240 244
f 252 244 248
f 253 241 245
f 253 248 241
f 254 242 246
f 254 249 242
f 255 250 119
f 255 118 117
f 255 119 118
f 256 221 222
f 256 222 223
f 256 223 251
f 256 243 247
f 256 251 243
f 257 252 248
f 258 245 249
f 258 253 245
f 259 254 246
f 259 250 255
f 259 246 250
f 260 255 117
f 260 116 115
f 260 117 116
f 261 247 252
f 261 256 247
f 261 219 220
f 261 220 221
f 261 221 256
f 262 248 253
f 262 257 248
f 263 258 249
f 263 249 254
f 264 259 255
f 264 255 260
f 265 115 114
f 265 260 115
f 266 252 257
f 266 217 218
f 266 218 219
f 266 219 261
f 266 261 252
f 267 253 258
f 267 262 253
f 268 254 259
f 268 259 264
f 268 263 254
f 269 260 265
f 269 264 260
f 270 113 112
f 270 114 113
f 270 265 114
f 271 257 262
f 271 215 216
f 271 216 217
f 271 266 257
f 271 217 266
f 272 258 263
f 272 267 258
f 273 268 264
f 274 269 265
f 275 270 112
f 275 111 110
f 275 112 111
f 276 262 267
f 276 213 214
f 276 214 215
f 276 215 271
f 276 271 262
f 277 268 273
f 277 263 268
f 277 272 263
f 278 273 264
f 278 264 269
f 279 274 265
f 279 270 275
f 279 265 270
f 280 275 110
f 280 109 108
f 280 110 109
f 281 213 276
f 281 267 272
f 281 276 267
f 281 211 212
f 281 212 213
f 282 277 273
f 282 273 278
f 283 278 269
f 283 269 274
f 284 279 275
f 284 275 280
f 285 280 108
f 285 107 106
f 285 108 107
f 286 281 272
f 286 209 210
f 286 210 211
f 286 272 277
f 286 211 281
f 286 277 282
f 287 282 278
f 288 274 279
f 288 283 274
f 289 284 280
f 290 105 104
f 290 106 105
f 290 285 106
f 291 207 208
f 291 208 209
f 291 286 282
f 291 209 286
f 292 278 283
f 292 287 278
f 293 288 279
f 293 279 284
f 294 280 285
f 294 289 280
f 295 290 104
f 295 103 102
f 295 104 103
f 296 207 291
f 296 205 206
f 296 206 207
f 296 282 287
f 296 291 282
f 296 287 292
f 297 288 293
f 297 283 288
f 297 292 283
f 298 289 294
f 298 284 289
f 298 293 284
f 299 294 285
f 299 290 295
f 299 285 290
f 300 101 100
f 300 102 101
f 300 295 102
f 301 205 296
f 301 204 205
f 301 296 292
f 302 297 293
f 302 293 298
f 303 298 294
f 304 299 295
f 305 300 100
f 305 99 98
f 305 100 99
f 306 204 301
f 306 301 292
f 306 202 203
f 306 203 204
f 306 297 302
f 306 292 297
f 307 302 298
f 307 298 303
f 308 299 304
f 308 303 294
f 308 294 299
f 309 304 295
f 309 295 300
f 310 305 98
f 310 97 96
f 310 98 97
f 311 200 201
f 311 201 202
f 311 306 302
f 311 202 306
f 312 307 303
f 313 304 309
f 313 308 304
f 314 300 305
f 314 305 310
f 314 309 300
f 315 310 96
f 315 95 94
f 315 96 95
f 316 200 311
f 316 198 199
f 316 199 200
f 316 311 302
f 316 302 307
f 317 303 308
f 317 312 303
f 318 313 309
f 319 314 310
f 320 315 94
f 320 93 92
f 320 94 93
f 320 92 226
f 321 198 316
f 321 196 197
f 321 197 198
f 321 307 312
f 321 316 307
f 322 317 308
f 322 308 313
f 322 313 318
f 323 318 309
f 323 309 314
f 324 310 315
f 324 319 310
f 325 194 195
f 325 195 196
f 325 317 322
f 325 196 321
f 325 312 317
f 325 321 312
f 326 322 318
f 327 323 314
f 327 314 319
f 327 319 324
f 328 315 320
f 328 324 315
f 328 320 226
f 328 226 227
f 328 227 228
f 329 192 193
f 329 193 194
f 329 194 325
f 329 325 322
f 329 322 326
f 330 318 323
f 330 323 327
f 330 326 318
f 331 327 324
f 332 190 191
f 332 191 192
f 332 192 329
f 332 329 326
f 333 330 327
f 334 324 328
f 334 331 324
f 334 328 228
f 335 332 326
f 335 188 189
f 335 189 190
f 335 190 332
f 335 326 330
f 336 333 327
f 336 327 331
f 337 186 187
f 337 187 188
f 337 335 330
f 337 330 333
f 337 188 335
f 338 334 228
f 338 336 331
f 338 228 229
f 338 331 334
f 339 184 185
f 339 185 186
f 339 337 333
f 339 333 336
f 339 186 337
f 340 229 230
f 340 182 183
f 340 183 184
f 340 230 182
f 340 338 229
f 340 184 339
f 340 336 338
f 340 339 336
f 341 1 2
f 182 181 345
f 341 45 1
f 181 225 345
f 346 341 2
f 346 2 3
f 346 3 4
f 347 4 5
f 347 5 6
f 347 346 4
f 348 342 341
f 348 341 346
f 349 347 6
f 349 6 7
f 349 7 8
f 350 346 347
f 350 348 346
f 351 349 8
f 351 8 9
f 351 9 10
f 352 343 342
f 352 342 348
f 353 347 349
f 353 350 347
f 354 351 10
f 354 10 11
f 354 11 12
f 355 348 350
f 355 352 348
f 356 353 349
f 356 349 351
f 357 12 13
f 357 13 14
f 357 354 12
f 358 344 343
f 358 343 352
f 359 350 353
f 359 355 350
f 360 351 354
f 360 356 351
f 361 357 14
f 361 14 15
f 361 15 16
f 362 352 355
f 362 358 352
f 363 353 356
f 363 356 360
f 363 359 353
f 364 360 354
f 364 354 357
f 365 361 16
f 365 16 17
f 365 17 18
f 366 183 182
f 366 184 183
f 366 344 358
f 366 345 344
f 366 182 345
f 367 362 355
f 367 355 359
f 367 359 363
f 368 363 360
f 369 364 357
f 369 357 361
f 370 18 19
f 370 19 20
f 370 365 18
f 371 185 184
f 371 186 185
f 371 366 358
f 371 358 362
f 371 184 366
f 372 363 368
f 372 367 363
f 373 360 364
f 373 368 360
f 373 364 369
f 374 369 361
f 374 361 365
f 375 370 20
f 375 20 21
f 375 21 22
f 376 187 186
f 376 188 187
f 376 362 367
f 376 371 362
f 376 186 371
f 377 372 368
f 378 373 369
f 379 374 365
f 379 365 370
f 380 375 22
f 380 22 23
f 381 189 188
f 381 190 189
f 381 188 376
f 381 376 367
f 381 367 372
f 382 368 373
f 382 377 368
f 383 378 369
f 383 369 374
f 384 370 375
f 384 379 370
f 385 380 23
f 385 23 24
f 385 24 25
f 386 372 377
f 386 377 382
f 386 191 190
f 386 192 191
f 386 190 381
f 386 381 372
f 387 382 373
f 387 378 383
f 387 373 378
f 388 374 379
f 388 383 374
f 389 384 375
f 389 375 380
f 390 25 26
f 390 26 27
f 390 385 25
f 391 193 192
f 391 194 193
f 391 192 386
f 391 386 382
f 392 387 383
f 393 379 384
f 393 388 379
f 394 380 385
f 394 389 380
f 395 390 27
f 395 27 28
f 395 28 29
f 396 382 387
f 396 195 194
f 396 196 195
f 396 194 391
f 396 387 392
f 396 391 382
f 397 383 388
f 397 392 383
f 398 384 389
f 398 393 384
f 399 394 385
f 399 385 390
f 400 395 29
f 400 29 30
f 400 30 31
f 401 197 196
f 401 198 197
f 401 196 396
f 401 396 392
f 402 388 393
f 402 397 388
f 403 398 389
f 403 389 394
f 403 394 399
f 404 399 390
f 404 390 395
f 405 31 32
f 405 400 31
f 405 32 33
f 406 199 198
f 406 200 199
f 406 198 401
f 406 392 397
f 406 401 392
f 407 393 398
f 407 398 403
f 407 402 393
f 408 403 399
f 408 399 404
f 409 404 395
f 409 395 400
f 409 400 405
f 410 405 33
f 410 33 34
f 410 34 35
f 411 200 406
f 411 201 200
f 411 202 201
f 411 397 402
f 411 406 397
f 412 407 403
f 413 404 409
f 413 408 404
f 414 405 410
f 414 409 405
f 415 410 35
f 415 35 36
f 415 36 37
f 416 203 202
f 416 202 411
f 416 402 407
f 416 411 402
f 417 408 413
f 417 403 408
f 417 412 403
f 418 413 409
f 419 414 410
f 420 415 37
f 420 37 38
f 420 38 39
f 421 416 407
f 421 203 416
f 421 204 203
f 421 205 204
f 421 407 412
f 422 417 413
f 423 418 409
f 423 409 414
f 424 419 410
f 424 410 415
f 425 420 39
f 425 39 40
f 425 40 41
f 426 417 422
f 426 421 412
f 426 206 205
f 426 207 206
f 426 205 421
f 426 412 417
f 427 413 418
f 427 422 413
f 428 414 419
f 428 423 414
f 429 424 415
f 429 415 420
f 430 425 41
f 430 41 42
f 430 42 43
f 431 208 207
f 431 209 208
f 431 426 422
f 431 207 426
f 432 418 423
f 432 423 428
f 432 427 418
f 433 428 419
f 433 419 424
f 434 429 420
f 434 420 425
f 435 430 43
f 435 45 341
f 435 43 44
f 435 44 45
f 436 210 209
f 436 211 210
f 436 209 431
f 436 422 427
f 436 431 422
f 437 432 428
f 438 424 429
f 438 433 424
f 439 425 430
f 439 434 425
f 440 212 211
f 440 213 212
f 440 427 432
f 440 436 427
f 440 211 436
f 441 428 433
f 441 437 428
f 442 429 434
f 442 438 429
f 443 439 430
f 443 430 435
f 443 435 341
f 443 341 342
f 444 432 437
f 444 214 213
f 444 215 214
f 444 213 440
f 444 440 432
f 445 433 438
f 445 441 433
f 446 442 434
f 446 434 439
f 447 216 215
f 447 217 216
f 447 215 444
f 447 444 437
f 447 437 441
f 448 438 442
f 448 445 438
f 449 439 443
f 449 446 439
f 449 443 342
f 449 342 343
f 450 447 441
f 450 218 217
f 450 219 218
f 450 217 447
f 450 445 448
f 450 441 445
f 451 448 442
f 451 442 446
f 452 219 450
f 452 450 448
f 452 220 219
f 452 221 220
f 453 449 343
f 453 451 446
f 453 343 344
f 453 446 449
f 454 221 452
f 454 451 453
f 454 222 221
f 454 223 222
f 454 448 451
f 454 452 448
f 455 344 345
f 455 223 454
f 455 345 225
f 455 453 344
f 455 454 453
f 455 224 223
f 455 225 224
f 90 136 46
f 90 180 136
f 89 180 90
f 89 179 180
f 88 179 89
f 88 178 179
f 87 178 88
f 87 177 178
f 86 177 87
f 86 175 176
f 86 176 177
f 85 175 86
f 84 175 85
f 84 173 174
f 84 174 175
f 83 173 84
f 83 172 173
f 82 172 83
f 81 172 82
f 81 171 172
f 80 171 81
f 80 170 171
f 79 170 80
f 79 169 170
f 78 169 79
f 78 168 169
f 77 168 78
f 77 167 168
f 76 167 77
f 76 166 167
f 75 166 76
f 75 165 166
f 74 165 75
f 74 164 165
f 73 164 74
f 73 163 164
f 72 162 163
f 72 163 73
f 71 161 162
f 71 162 72
f 70 159 160
f 70 160 161
f 70 161 71
f 69 159 70
f 68 158 159
f 68 159 69
f 67 157 158
f 67 158 68
f 66 156 157
f 66 157 67
f 65 156 66
f 65 155 156
f 64 155 65
f 64 154 155
f 63 154 64
f 63 153 154
f 62 153 63
f 62 152 153
f 61 152 62
f 61 150 151
f 61 151 152
f 60 150 61
f 60 149 150
f 59 149 60
f 58 149 59
f 58 147 148
f 58 148 149
f 57 147 58
f 56 147 57
f 56 146 147
f 55 146 56
f 55 145 146
f 54 145 55
f 54 144 145
f 53 144 54
f 53 143 144
f 52 142 143
f 52 143 53
f 51 142 52
f 51 141 142
f 50 139 140
f 50 140 141
f 50 141 51
f 49 138 139
f 49 139 50
f 48 138 49
f 47 137 138
f 47 138 48
f 46 136 137
f 46 137 47

