# https://github.com/mikedh/trimesh
v 13.64114731 -104.82527638 -15.28243527
v 19.61151544 -107.58062858 -15.30261525
v 56.08863331 7.78100245 -15.25404248
v 56.08648639 7.83808902 -15.23640653
v 56.08451353 7.89054723 -15.20779260
v 56.08279310 7.93629359 -15.16933714
v 56.08139341 7.97351122 -15.12256747
v 56.08037007 8.00072194 -15.06934115
v 56.07976371 8.01684504 -15.01177214
v 56.07959841 8.02124015 -14.95214692
v 56.09385949 8.02167293 -14.95208306
v 56.08910513 8.02155128 -14.95210417
v 56.08435140 8.02140702 -14.95212545
v 56.96349983 7.55430005 -14.95214692
v 56.88987329 7.65570221 -14.95164588
v 56.80385560 7.74662798 -14.95128130
v 56.70714651 7.82617942 -14.95105315
v 56.60144579 7.89345861 -14.95096145
v 56.48845318 7.94756761 -14.95100619
v 56.36986845 7.98760848 -14.95118738
v 56.24739136 8.01268330 -14.95150500
v 56.17084247 8.02028495 -14.95176821
v 56.95977619 7.55195935 -15.01177214
v 56.94611636 7.54337268 -15.06934115
v 56.92306286 7.52888107 -15.12256747
v 56.89153129 7.50906010 -15.16933714
v 56.85277399 7.48469697 -15.20779260
v 56.80833029 7.45675933 -15.23640653
v 56.67032655 7.61457962 -15.23939307
v 56.70960002 7.39469675 -15.26000000
v 56.33544596 7.76803793 -15.25361301
v 56.58616781 7.89272176 -15.11662242
v 60.24645991 2.33170825 -14.95214692
v 60.22907644 2.32078087 -15.06934115
v 60.20602294 2.30628927 -15.12256747
v 60.17449137 2.28646829 -15.16933714
v 60.13573407 2.26210516 -15.20779260
v 60.09129037 2.23416752 -15.23640653
v 60.04292541 2.20376495 -15.25404248
v 49.92649181 7.48972389 -15.26000000
v 49.92425610 7.54917153 -15.25404248
v 49.92210917 7.60625810 -15.23640653
v 49.92013632 7.65871630 -15.20779260
v 49.91841588 7.70446267 -15.16933714
v 49.91701619 7.74168029 -15.12256747
v 49.91599285 7.76889102 -15.06934115
v 49.91538649 7.78501411 -15.01177214
v 49.91522120 7.78940923 -14.95214692
v 60.07145923 1.44505152 -15.25404248
v 60.01885820 1.47283915 -15.26000000
v 60.37142661 1.57033332 -14.95127425
v 60.39168967 1.69559680 -14.95104801
v 60.39642907 1.82251028 -14.95096184
v 60.38572004 1.94907358 -14.95101574
v 60.35963780 2.07328650 -14.95120969
v 60.31825757 2.19314885 -14.95154372
v 60.28523092 2.26386333 -14.95181881
v 60.34587084 2.11237395 -15.04851204
v 60.15344488 1.98364898 -15.25418450
v 60.36627632 1.58818885 -15.05589041
v 60.29600174 1.81666684 -15.21019254
v 49.33405893 7.11731617 -15.26000000
v 49.28145790 7.14510380 -15.25404248
v 49.78902635 7.77605930 -14.95164055
v 49.66577518 7.74631000 -14.95127425
v 49.54716230 7.70122659 -14.95104801
v 49.43488229 7.64187429 -14.95096184
v 49.33062978 7.56931835 -14.95101574
v 49.46017641 7.58723473 -15.20398272
v 36.05743074 -89.55624582 -15.25404248
v 35.99795725 -89.55763299 -15.26000000
v 35.74531158 -90.97763919 -14.95214692
v 35.74212989 -90.97460254 -15.01177214
v 35.73045815 -90.96346286 -15.06934115
v 35.71075993 -90.94466258 -15.12256747
v 35.68381756 -90.91894839 -15.16933714
v 35.65070112 -90.88734157 -15.20779260
v 35.61272588 -90.85109744 -15.23640653
v 35.57140011 -90.81165551 -15.25404248
v 35.91255792 -90.77679354 -14.95179235
v 36.05186050 -90.55566657 -14.95157962
v 36.16162630 -90.31837301 -14.95150871
v 36.24026230 -90.06902759 -14.95157962
v 35.92436694 -90.64929596 -15.18034231
v 36.17095220 -89.99464981 -15.21579236
v 11.07908049 -19.78307209 -15.26000000
v 11.06234772 -19.72598414 -15.25404248
v 19.97345256 -107.50280086 -14.95214692
v 19.97027087 -107.49976421 -15.01177214
v 19.95859913 -107.48862453 -15.06934115
v 19.93890091 -107.46982425 -15.12256747
v 19.91195854 -107.44411005 -15.16933714
v 10.59594770 -20.28928049 -15.26000000
v 10.53814170 -20.27522753 -15.25404248
v 10.48263156 -20.26173270 -15.23640653
v 10.43162198 -20.24933198 -15.20779260
v 10.38713889 -20.23851789 -15.16933714
v 10.35094902 -20.22971993 -15.12256747
v 10.32448971 -20.22328752 -15.06934115
v 10.30881185 -20.21947615 -15.01177214
v 10.30453810 -20.21843718 -14.95214692
v 10.65949258 -19.67095495 -14.95104801
v 10.56517662 -19.75600785 -14.95096184
v 10.48187850 -19.85189514 -14.95101574
v 10.41098015 -19.95716887 -14.95120969
v 10.35386356 -20.07038107 -14.95154372
v 10.32617017 -20.14334937 -14.95181881
v 10.60308698 -19.80278474 -15.20398272
v 19.01415332 -107.78397648 -14.95214692
v 19.01519229 -107.77970273 -15.01177214
v 19.01900366 -107.76402487 -15.06934115
v 19.02543607 -107.73756557 -15.12256747
v 19.03423403 -107.70137570 -15.16933714
v 19.04504812 -107.65689261 -15.20779260
v 19.05744884 -107.60588302 -15.23640653
v 19.13920856 -107.80552980 -14.95164055
v 19.26590167 -107.81050235 -14.95127425
v 19.39231186 -107.79945713 -14.95104801
v 19.51651832 -107.77295714 -14.95096184
v 19.63660026 -107.73156537 -14.95101574
v 19.75063689 -107.67584482 -14.95120969
v 19.85670741 -107.60635848 -14.95154372
v 19.91717474 -107.55701277 -14.95181881
v 9.08093018 -26.26937689 -15.25404248
v 9.02542004 -26.25588207 -15.23640653
v 8.97441046 -26.24348135 -15.20779260
v 8.89373750 -26.22386930 -15.12256747
v 8.86727820 -26.21743689 -15.06934115
v 8.85160033 -26.21362552 -15.01177214
v 8.84732659 -26.21258654 -14.95214692
v 13.02000395 -106.32676496 -14.95214692
v 13.02104292 -106.32249122 -15.01177214
v 13.02485429 -106.30681336 -15.06934115
v 13.03128670 -106.28035405 -15.12256747
v 13.04008466 -106.24416418 -15.16933714
v 13.05089875 -106.19968109 -15.20779260
v 13.06329947 -106.14867151 -15.23640653
v 9.33555912 -26.95493933 -15.26000000
v 8.82484282 -26.34140531 -14.95145593
v 8.88182149 -26.41197635 -15.17956451
v 12.29684909 -105.63657526 -14.95214692
v 12.30106975 -105.63533817 -15.01177214
v 12.31655287 -105.63079998 -15.06934115
v 12.34268350 -105.62314096 -15.12256747
v 12.37842383 -105.61266528 -15.16933714
v 12.42235436 -105.59978901 -15.20779260
v 12.47273031 -105.58502356 -15.23640653
v 12.58463887 -105.55222257 -15.26000000
v 12.58348119 -105.76111073 -15.25004675
v 12.34071100 -105.75565294 -14.95164055
v 12.39975120 -105.86785867 -14.95127425
v 12.47252172 -105.97181049 -14.95104801
v 12.55757462 -106.06612645 -14.95096184
v 12.65346191 -106.14942457 -14.95101574
v 12.75873564 -106.22032291 -14.95120969
v 12.87194784 -106.27743951 -14.95154372
v 12.94491614 -106.30513290 -14.95181881
v 12.57522227 -106.00024475 -15.19835142
v 23.68944352 -39.05360473 -15.32462785
v 10.56175660 -99.71688388 -14.95214692
v 10.56597726 -99.71564678 -15.01177214
v 10.58146037 -99.71110860 -15.06934115
v 10.60759101 -99.70344957 -15.12256747
v 10.64333133 -99.69297390 -15.16933714
v 10.68726186 -99.68009763 -15.20779260
v 10.73763782 -99.66533217 -15.23640653
v 10.79245842 -99.64926397 -15.25404248
v 10.53329135 -99.58925346 -14.95145593
v 10.57256622 -99.36769363 -15.17025186
v 10.81711729 -99.11896918 -15.25540422
v 50.23479471 -4.07356339 -5.18878769
v 55.83421298 6.35038242 -5.25108905
v 59.97786138 1.33377199 -5.43977535
v 59.95294811 1.34693296 -5.38926996
v 35.74949908 -89.46144265 -5.26000000
v 35.80704733 -89.46010038 -5.26557446
v 59.96243386 2.32102655 -5.55214692
v 59.95644028 2.31725894 -5.49474866
v 59.94123374 2.30770000 -5.43977535
v 59.91737936 2.29270496 -5.38926996
v 59.88576365 2.27283108 -5.34510942
v 59.84756153 2.24881695 -5.30893487
v 59.80419273 2.22155500 -5.28209068
v 60.02253431 2.20926208 -5.55164055
v 60.06742933 2.09068592 -5.55127425
v 60.09704371 1.96729823 -5.55104801
v 60.11130221 1.84109923 -5.55096184
v 60.11012961 1.71408909 -5.55101574
v 60.09345069 1.58826800 -5.55120969
v 60.06119022 1.46563615 -5.55154372
v 59.99698887 1.79353361 -5.25955670
v 35.27990695 -90.67439194 -5.26000000
v 35.32154883 -90.71413557 -5.26557446
v 35.36164318 -90.75240221 -5.28209068
v 35.39869995 -90.78776974 -5.30893487
v 35.43134201 -90.81892381 -5.34510942
v 35.45835628 -90.84470662 -5.38926996
v 35.47873882 -90.86416002 -5.43977535
v 35.49173215 -90.87656105 -5.49474866
v 35.49685341 -90.88144885 -5.55214692
v 35.99180413 -89.97283725 -5.55157962
v 35.91316812 -90.22218267 -5.55150871
v 35.80340233 -90.45947623 -5.55157962
v 35.66409975 -90.68060320 -5.55179235
v 35.87272804 -90.20652634 -5.32138964
v 56.83073743 7.30298543 -5.55214692
v 56.82474385 7.29921782 -5.49474866
v 56.80953731 7.28965888 -5.43977535
v 56.78568293 7.27466384 -5.38926996
v 56.75406721 7.25478996 -5.34510942
v 56.71586510 7.23077583 -5.30893487
v 56.67249630 7.20351388 -5.28209068
v 19.71820293 -107.06273552 -5.26557446
v 19.75829728 -107.10100215 -5.28209068
v 19.79535405 -107.13636969 -5.30893487
v 19.82799611 -107.16752375 -5.34510942
v 19.85501037 -107.19330657 -5.38926996
v 19.87539291 -107.21275997 -5.43977535
v 19.88838625 -107.22516100 -5.49474866
v 19.89350750 -107.23004880 -5.55214692
v 55.94683601 7.76992553 -5.55214692
v 55.94710207 7.76285113 -5.49474866
v 55.94777708 7.74490241 -5.43977535
v 55.94883598 7.71674639 -5.38926996
v 55.95023940 7.67942944 -5.34510942
v 55.95193520 7.63433838 -5.30893487
v 55.95386034 7.58314892 -5.28209068
v 55.95594328 7.52776343 -5.26557446
v 55.95810663 7.47024019 -5.26000000
v 56.41773908 7.60116431 -5.31908946
v 55.96109708 7.77035831 -5.55208306
v 56.08603109 7.76493069 -5.55159755
v 56.20916420 7.74343215 -5.55124848
v 56.32879666 7.70676062 -5.55103585
v 56.44322871 7.65581404 -5.55095966
v 56.55076059 7.59149033 -5.55101992
v 56.64969254 7.51468744 -5.55121662
v 56.73832481 7.42630329 -5.55154977
v 56.78699994 7.36656165 -5.55182252
v 55.95158900 7.77009240 -5.55212545
v 55.95634272 7.77023666 -5.55210417
v 56.51665929 7.35594325 -5.27280867
v 18.99145353 -107.27574957 -5.26557446
v 18.97836082 -107.32960561 -5.28209068
v 18.96626002 -107.37938148 -5.30893487
v 18.95560084 -107.42322737 -5.34510942
v 18.94677940 -107.45951381 -5.38926996
v 18.94012354 -107.48689231 -5.43977535
v 18.93588060 -107.50434538 -5.49474866
v 18.93420826 -107.51122442 -5.55214692
v 19.79987468 -107.31570073 -5.55164055
v 19.69591230 -107.38827962 -5.55127425
v 19.58354116 -107.44722245 -5.55104801
v 19.46468205 -107.49196625 -5.55096184
v 19.34125578 -107.52194801 -5.55101574
v 19.21518313 -107.53660475 -5.55120969
v 19.08838490 -107.53537345 -5.55154372
v 19.01084674 -107.52647787 -5.55181881
v 19.45366657 -107.48474087 -5.40013266
v 50.06648484 7.54877630 -5.55214692
v 50.06675090 7.54170191 -5.49474866
v 50.06742592 7.52375318 -5.43977535
v 50.06848481 7.49559717 -5.38926996
v 50.06988824 7.45828022 -5.34510942
v 50.07158403 7.41318915 -5.30893487
v 50.07350917 7.36199970 -5.28209068
v 50.07559212 7.30661420 -5.26557446
v 13.01266512 -105.54866497 -5.21159500
v 13.26039419 -105.93953567 -5.28209068
v 13.24829339 -105.98931155 -5.30893487
v 13.23763421 -106.03315743 -5.34510942
v 13.22881277 -106.06944388 -5.38926996
v 13.22215690 -106.09682238 -5.43977535
v 13.21791396 -106.11427545 -5.49474866
v 13.21624163 -106.12115449 -5.55214692
v 49.56381157 7.37268751 -5.39364716
v 49.48532257 6.87668324 -5.26000000
v 49.56134723 7.38565271 -5.55096184
v 49.67192754 7.44814228 -5.55101574
v 49.78923125 7.49660845 -5.55120969
v 49.91156378 7.52998599 -5.55154372
v 49.98859062 7.54256233 -5.55181881
v 49.68458674 7.22076862 -5.26845555
v 12.72563661 -105.36280321 -5.26557446
v 12.67244956 -105.37839262 -5.28209068
v 12.62329199 -105.39280096 -5.30893487
v 12.57999075 -105.40549278 -5.34510942
v 12.54415505 -105.41599641 -5.38926996
v 12.51711664 -105.42392151 -5.43977535
v 12.49988037 -105.42897355 -5.49474866
v 12.49308678 -105.43096479 -5.55214692
v 13.09524847 -106.08289205 -5.55164055
v 12.98041212 -106.02914743 -5.55127425
v 12.87318055 -105.96130259 -5.55104801
v 12.77500174 -105.88073948 -5.55096184
v 12.68732363 -105.78884007 -5.55101574
v 12.61159420 -105.68698632 -5.55120969
v 12.54926142 -105.57656019 -5.55154372
v 12.51819614 -105.50496238 -5.55181881
v 12.77563969 -105.86937426 -5.40063068
v 11.07048917 -99.71586388 -5.26557446
v 11.01730212 -99.73145329 -5.28209068
v 10.96814455 -99.74586163 -5.30893487
v 10.92484331 -99.75855345 -5.34510942
v 10.88900761 -99.76905708 -5.38926996
v 10.86196920 -99.77698218 -5.43977535
v 10.84473293 -99.78203422 -5.49474866
v 10.83793934 -99.78402546 -5.55214692
v 10.79787455 -99.52614268 -5.55124175
v 10.80947409 -99.65639504 -5.55145593
v 10.88659665 -99.27974757 -5.31975877
v 10.51014858 -20.41467486 -5.55214692
v 10.51702762 -20.41634719 -5.49474866
v 10.53448069 -20.42059013 -5.43977535
v 10.56185919 -20.42724600 -5.38926996
v 10.59814564 -20.43606744 -5.34510942
v 10.64199152 -20.44672662 -5.30893487
v 10.69176740 -20.45882742 -5.28209068
v 10.80155818 -20.48551817 -5.26000000
v 10.54841102 -20.29368169 -5.55164055
v 10.60215564 -20.17884535 -5.55127425
v 10.67000048 -20.07161378 -5.55104801
v 10.75056359 -19.97343496 -5.55096184
v 10.84246300 -19.88575686 -5.55101574
v 10.94431675 -19.81002743 -5.55120969
v 10.78224795 -20.27049826 -5.27461559
v 11.02484822 -20.02568000 -5.26633998
v 10.80160930 -19.95248606 -5.38923235
v 9.12007865 -26.13264149 -5.55214692
v 9.12695769 -26.13431382 -5.49474866
v 9.14441076 -26.13855676 -5.43977535
v 9.17178925 -26.14521263 -5.38926996
v 9.20807570 -26.15403407 -5.34510942
v 9.25192159 -26.16469325 -5.30893487
v 9.30169746 -26.17679405 -5.28209068
v 9.35555350 -26.18988675 -5.26557446
v 9.41917277 -26.69974548 -5.24857683
v 9.09208071 -26.39211178 -5.55124175
v 9.09759487 -26.26146025 -5.55145593
v 9.14257520 -26.65034880 -5.40521194
v 19.42119118 -107.26380018 -5.25882770
v 29.46042691 -68.82551180 -15.34440980
f 50 71 342
f 171 191 172
f 171 319 337
f 340 338 309
f 342 71 2
f 2 1 342
f 71 50 49
f 171 172 277
f 277 319 171
f 171 337 268
f 268 337 301
f 191 205 174
f 174 173 191
f 205 173 174
f 53 188 52
f 342 1 159
f 159 1 138
f 340 309 311
f 311 334 340
f 310 309 168
f 168 338 139
f 168 309 338
f 30 50 342
f 342 159 30
f 30 159 40
f 283 277 267
f 267 266 283
f 279 276 280
f 280 66 279
f 278 325 276
f 278 276 279
f 189 188 191
f 191 173 189
f 190 51 189
f 189 173 205
f 51 52 189
f 189 52 188
f 187 186 191
f 191 188 187
f 187 188 53
f 54 55 186
f 54 187 53
f 186 187 54
f 192 268 341
f 171 268 192
f 131 109 275
f 72 200 88
f 88 200 220
f 201 51 190
f 190 189 201
f 201 189 205
f 93 159 138
f 93 86 159
f 138 124 93
f 87 86 93
f 325 278 68
f 129 140 139
f 129 128 140
f 318 319 326
f 326 317 318
f 139 338 339
f 320 107 312
f 329 339 330
f 335 311 337
f 334 311 335
f 335 317 334
f 335 318 317
f 140 125 166
f 79 2 71
f 79 78 2
f 61 36 58
f 55 54 58
f 58 56 55
f 58 54 53
f 3 30 40
f 65 64 46
f 66 280 65
f 64 65 281
f 281 65 280
f 281 280 276
f 105 322 104
f 105 104 108
f 325 68 102
f 327 283 276
f 277 283 327
f 319 277 327
f 326 319 327
f 322 105 321
f 56 58 57
f 177 57 33
f 175 191 171
f 171 192 175
f 250 275 109
f 60 52 51
f 53 52 60
f 60 58 53
f 61 58 60
f 62 86 87
f 87 63 62
f 62 63 40
f 40 159 62
f 159 86 62
f 140 128 127
f 127 98 140
f 130 129 139
f 139 339 130
f 130 339 329
f 329 312 130
f 129 130 101
f 101 312 107
f 101 130 312
f 316 317 326
f 320 312 313
f 319 318 336
f 318 335 336
f 336 337 319
f 336 335 337
f 153 158 154
f 158 155 154
f 131 275 157
f 135 134 158
f 133 155 158
f 158 134 133
f 1 2 148
f 170 124 138
f 138 1 170
f 74 84 80
f 75 84 74
f 33 57 34
f 34 57 58
f 30 28 39
f 50 30 39
f 37 36 61
f 30 3 31
f 3 4 31
f 5 32 31
f 31 4 5
f 276 283 265
f 265 283 266
f 46 64 47
f 47 9 46
f 260 261 221
f 64 281 282
f 282 261 260
f 281 261 282
f 106 107 320
f 320 321 106
f 106 321 105
f 108 104 103
f 103 102 108
f 233 230 234
f 267 277 229
f 229 277 172
f 229 172 191
f 238 239 15
f 239 14 15
f 15 16 238
f 206 14 239
f 33 14 206
f 206 177 33
f 186 55 185
f 55 56 185
f 191 186 185
f 56 57 184
f 57 177 184
f 184 185 56
f 176 175 192
f 176 205 191
f 191 175 176
f 284 268 301
f 284 285 268
f 301 337 302
f 337 311 302
f 311 304 303
f 303 302 311
f 306 309 310
f 306 311 309
f 341 268 243
f 285 286 300
f 268 285 300
f 213 192 341
f 341 214 213
f 215 214 341
f 341 259 215
f 215 259 216
f 216 196 215
f 204 203 205
f 205 198 204
f 194 213 214
f 214 215 194
f 200 204 199
f 199 204 198
f 197 196 216
f 205 196 197
f 197 198 205
f 118 256 117
f 2 119 118
f 109 116 258
f 258 250 109
f 202 201 205
f 205 203 202
f 46 7 45
f 45 7 44
f 43 44 5
f 69 45 44
f 108 102 69
f 69 102 68
f 44 43 69
f 66 65 69
f 69 65 46
f 46 45 69
f 87 108 69
f 69 63 87
f 97 98 108
f 108 96 97
f 140 98 97
f 97 96 140
f 126 125 140
f 140 96 126
f 95 96 108
f 124 125 95
f 314 321 320
f 320 313 314
f 314 332 315
f 334 317 333
f 317 316 333
f 340 334 333
f 333 332 340
f 136 158 137
f 136 135 158
f 132 109 131
f 131 157 132
f 158 151 143
f 142 162 143
f 124 170 167
f 1 148 167
f 167 170 1
f 167 125 124
f 167 166 125
f 2 78 77
f 77 84 2
f 78 84 77
f 70 79 71
f 71 49 70
f 78 79 85
f 85 84 78
f 79 70 85
f 61 60 85
f 85 49 61
f 85 70 49
f 84 85 82
f 82 202 203
f 201 202 82
f 73 80 72
f 73 74 80
f 92 91 2
f 35 58 36
f 35 34 58
f 35 36 26
f 25 35 26
f 26 32 25
f 23 14 33
f 33 34 23
f 23 15 14
f 38 39 28
f 29 28 30
f 30 31 29
f 29 31 32
f 29 27 28
f 26 27 29
f 29 32 26
f 264 263 276
f 276 265 264
f 228 266 267
f 267 229 228
f 46 9 8
f 8 7 46
f 32 7 8
f 5 44 6
f 44 7 6
f 6 32 5
f 6 7 32
f 9 47 48
f 260 221 48
f 48 47 64
f 48 282 260
f 64 282 48
f 107 106 100
f 100 101 107
f 129 101 100
f 99 105 108
f 99 106 105
f 108 98 99
f 99 100 106
f 99 127 128
f 98 127 99
f 128 129 99
f 129 100 99
f 104 322 323
f 323 103 104
f 235 236 18
f 234 230 235
f 230 236 235
f 18 32 19
f 19 235 18
f 234 235 19
f 32 8 21
f 21 8 9
f 242 229 191
f 230 228 242
f 242 228 229
f 262 261 281
f 276 263 262
f 262 281 276
f 18 236 17
f 17 32 18
f 17 16 32
f 238 16 237
f 237 236 230
f 237 17 236
f 16 17 237
f 237 208 238
f 230 208 237
f 305 304 311
f 311 306 305
f 269 243 268
f 268 300 269
f 269 300 270
f 152 158 153
f 152 151 158
f 293 273 300
f 288 300 287
f 287 300 286
f 160 142 141
f 160 141 308
f 290 299 298
f 192 213 193
f 213 194 193
f 193 194 205
f 205 176 193
f 193 176 192
f 195 215 196
f 195 194 215
f 195 196 205
f 205 194 195
f 255 259 256
f 256 118 255
f 255 118 119
f 123 88 220
f 251 123 220
f 122 123 251
f 2 91 90
f 216 259 217
f 259 218 217
f 217 197 216
f 257 258 116
f 117 256 257
f 257 116 117
f 256 259 257
f 275 250 274
f 66 69 67
f 67 69 68
f 67 68 278
f 279 66 67
f 67 278 279
f 41 3 40
f 40 63 41
f 63 69 41
f 94 95 108
f 94 108 87
f 87 93 94
f 94 93 124
f 124 95 94
f 332 314 331
f 340 332 331
f 331 338 340
f 331 339 338
f 331 330 339
f 109 132 110
f 110 116 109
f 112 133 134
f 112 113 2
f 112 118 117
f 2 118 112
f 114 136 137
f 2 113 114
f 155 133 156
f 133 132 156
f 156 132 157
f 156 293 155
f 161 142 160
f 161 162 142
f 160 168 161
f 168 162 161
f 163 162 169
f 140 166 169
f 169 162 168
f 139 140 169
f 169 168 139
f 163 169 164
f 166 167 147
f 144 162 163
f 144 143 162
f 163 164 144
f 144 164 145
f 158 143 144
f 144 145 158
f 80 84 81
f 84 82 81
f 81 82 203
f 83 85 60
f 83 82 85
f 83 60 51
f 51 201 83
f 201 82 83
f 75 91 76
f 91 92 76
f 76 84 75
f 2 84 76
f 76 92 2
f 24 23 34
f 34 35 24
f 35 25 24
f 24 25 32
f 32 16 24
f 16 15 24
f 15 23 24
f 59 38 37
f 59 37 61
f 39 38 59
f 61 49 59
f 59 49 50
f 50 39 59
f 226 264 265
f 226 265 266
f 9 48 10
f 10 48 221
f 230 233 223
f 223 224 230
f 263 224 223
f 223 262 263
f 261 262 223
f 102 103 324
f 103 323 324
f 325 102 324
f 233 21 232
f 232 223 233
f 20 21 233
f 20 233 234
f 234 19 20
f 20 19 32
f 32 21 20
f 212 242 191
f 230 210 209
f 209 208 230
f 210 181 209
f 207 239 238
f 238 208 207
f 207 206 239
f 185 184 179
f 191 185 179
f 296 152 153
f 294 154 155
f 155 293 294
f 294 293 300
f 298 299 150
f 299 141 150
f 150 151 298
f 150 141 142
f 142 143 150
f 150 143 151
f 289 290 298
f 289 300 288
f 298 300 289
f 310 308 307
f 307 306 310
f 299 290 291
f 291 141 299
f 291 308 141
f 254 255 119
f 259 255 254
f 254 253 259
f 219 251 220
f 218 251 219
f 220 200 219
f 200 199 219
f 198 218 219
f 219 199 198
f 2 90 121
f 121 90 122
f 89 123 122
f 122 90 89
f 88 123 89
f 248 257 259
f 300 273 272
f 245 259 341
f 245 246 259
f 270 246 245
f 273 293 292
f 292 274 273
f 275 274 292
f 293 156 292
f 292 157 275
f 292 156 157
f 42 69 43
f 42 41 69
f 5 4 42
f 42 43 5
f 42 4 3
f 3 41 42
f 133 112 111
f 111 112 117
f 117 116 111
f 116 110 111
f 137 2 115
f 115 114 137
f 2 114 115
f 149 167 148
f 149 147 167
f 158 147 149
f 137 158 149
f 149 2 137
f 149 148 2
f 158 145 146
f 146 147 158
f 264 226 225
f 225 224 263
f 263 264 225
f 230 224 225
f 225 226 230
f 266 228 227
f 227 226 266
f 227 228 230
f 230 226 227
f 222 232 231
f 223 232 222
f 222 240 221
f 222 221 261
f 261 223 222
f 325 324 328
f 276 325 328
f 328 327 276
f 328 324 323
f 326 327 328
f 328 323 322
f 315 316 328
f 328 316 326
f 322 321 328
f 328 314 315
f 321 314 328
f 183 212 191
f 191 181 182
f 182 183 191
f 178 184 177
f 178 179 184
f 180 209 181
f 180 181 191
f 191 179 180
f 297 300 298
f 297 296 300
f 298 151 297
f 151 152 297
f 152 296 297
f 295 294 300
f 295 296 153
f 300 296 295
f 153 154 295
f 154 294 295
f 120 121 253
f 120 254 119
f 253 254 120
f 120 119 2
f 2 121 120
f 253 121 252
f 259 253 252
f 122 251 252
f 252 121 122
f 252 218 259
f 252 251 218
f 250 258 249
f 249 274 250
f 258 257 249
f 257 248 249
f 259 246 247
f 247 248 259
f 246 272 247
f 273 248 247
f 247 272 273
f 271 246 270
f 271 272 246
f 270 300 271
f 300 272 271
f 341 243 244
f 244 245 341
f 243 269 244
f 244 269 270
f 270 245 244
f 165 169 166
f 165 164 169
f 166 147 165
f 147 146 165
f 241 222 231
f 240 222 241
f 240 241 13
f 13 241 12
f 9 10 13
f 13 12 9
f 9 12 11
f 211 210 230
f 211 181 210
f 211 182 181
f 230 242 211
f 242 212 211
f 22 232 21
f 22 21 9
f 9 11 22
f 22 11 231
f 231 232 22
f 329 330 313
f 313 312 329
f 285 284 302
f 302 284 301
f 285 302 286
f 302 303 286
f 204 200 72
f 72 80 204
f 95 126 96
f 125 126 95
f 315 332 333
f 333 316 315
f 36 37 27
f 26 36 27
f 38 27 37
f 28 27 38
f 304 305 287
f 287 305 288
f 287 286 303
f 287 303 304
f 308 168 160
f 310 168 308
f 90 91 75
f 75 74 90
f 217 218 198
f 198 197 217
f 331 313 330
f 331 314 313
f 135 113 112
f 134 135 112
f 114 113 135
f 135 136 114
f 81 204 80
f 203 204 81
f 288 305 289
f 289 305 306
f 307 289 306
f 290 289 307
f 290 307 291
f 291 307 308
f 89 73 72
f 72 88 89
f 89 90 74
f 74 73 89
f 111 110 132
f 111 132 133
f 206 207 178
f 177 206 178
f 178 207 208
f 208 179 178
f 180 179 208
f 208 209 180
f 249 248 273
f 273 274 249
f 165 146 145
f 145 164 165
f 13 10 221
f 221 240 13
f 12 241 11
f 11 241 231
f 183 182 211
f 212 183 211

