# https://github.com/mikedh/trimesh
v -19.74087818 -98.78291696 -11.75950000
v -19.42556245 -98.49369756 -11.75950000
v -19.07306379 -98.25117628 -11.75950000
v -18.69024318 -98.06007354 -11.75950000
v -18.28455180 -97.92410893 -11.75950000
v -17.86388596 -97.84592884 -11.75950000
v -17.43643345 -97.82705496 -11.75950000
v -17.01051413 -97.86785466 -11.75950000
v -16.59441806 -97.96753381 -11.75950000
v -16.19624406 -98.12415227 -11.75950000
v -15.82374214 -98.33466163 -11.75950000
v -15.48416263 -98.59496459 -11.75950000
v -15.18411505 -98.89999462 -11.75950000
v -14.92943948 -99.24381468 -11.75950000
v -14.72509291 -99.61973269 -11.75950000
v -14.57505270 -100.02043184 -11.75950000
v -14.48223921 -100.43811298 -11.75950000
v -14.44845895 -100.86464641 -11.75950000
v -14.47436943 -101.29173015 -11.75950000
v -14.55946631 -101.71105150 -11.75950000
v -14.70209329 -102.11444885 -11.75950000
v -14.89947429 -102.49407052 -11.75950000
v -15.14776752 -102.84252761 -11.75950000
v -15.44214023 -103.15303781 -11.75950000
v -15.77686279 -103.41955738 -11.75950000
v -16.14542021 -103.63689882 -11.75950000
v -16.54063894 -103.80083183 -11.75950000
v -16.95482649 -103.90816564 -11.75950000
v -17.37992117 -103.95681112 -11.75950000
v -17.80764901 -103.94582144 -11.75950000
v -18.22968476 -103.87541050 -11.75950000
v -18.63781398 -103.74694877 -11.75950000
v -19.02409289 -103.56293661 -11.75950000
v -19.38100302 -103.32695561 -11.75950000
v -19.70159752 -103.04359888 -11.75950000
v -19.97963639 -102.71838162 -11.75950000
v -20.20970790 -102.35763382 -11.75950000
v -20.38733398 -101.96837703 -11.75950000
v -20.50905734 -101.55818769 -11.75950000
v -20.57250878 -101.13504966 -11.75950000
v -20.57645328 -100.70719885 -11.75950000
v -20.52081406 -100.28296289 -11.75950000
v -20.40667410 -99.87059904 -11.75950000
v -20.23625497 -99.47813350 -11.75950000
v -20.01287371 -99.11320517 -11.75950000
v -19.03920303 -99.44812544 -11.75950000
v -18.82329508 -99.25008658 -11.75950000
v -18.58192665 -99.08402359 -11.75950000
v -18.31979570 -98.95316872 -11.75950000
v -18.04200431 -98.86006889 -11.75950000
v -17.75395938 -98.80653619 -11.75950000
v -17.46126737 -98.79361257 -11.75950000
v -17.16962519 -98.82154958 -11.75950000
v -16.88470934 -98.88980346 -11.75950000
v -16.61206538 -98.99704571 -11.75950000
v -16.35700000 -99.14118900 -11.75950000
v -16.12447777 -99.31942773 -11.75950000
v -15.91902447 -99.52829270 -11.75950000
v -15.74463901 -99.76371858 -11.75950000
v -15.60471561 -100.02112308 -11.75950000
v -15.50197771 -100.29549610 -11.75950000
v -15.43842500 -100.58149730 -11.75950000
v -15.41529445 -100.87355999 -11.75950000
v -15.43303628 -101.16599949 -11.75950000
v -15.49130515 -101.45312380 -11.75950000
v -15.58896694 -101.72934438 -11.75950000
v -15.72412077 -101.98928491 -11.75950000
v -15.89413602 -102.22788593 -11.75950000
v -16.09570353 -102.44050336 -11.75950000
v -16.32490003 -102.62299884 -11.75950000
v -16.57726447 -102.77182029 -11.75950000
v -16.84788485 -102.88407108 -11.75950000
v -17.13149387 -102.95756637 -11.75950000
v -17.42257140 -102.99087567 -11.75950000
v -17.71545193 -102.98335065 -11.75950000
v -18.00443489 -102.93513776 -11.75950000
v -18.28389555 -102.84717542 -11.75950000
v -18.54839453 -102.72117572 -11.75950000
v -18.79278365 -102.55959110 -11.75950000
v -19.01230616 -102.36556661 -11.75950000
v -19.20268931 -102.14287873 -11.75950000
v -19.36022750 -101.89586182 -11.75950000
v -19.48185442 -101.62932379 -11.75950000
v -19.56520276 -101.34845249 -11.75950000
v -19.60865022 -101.05871476 -11.75950000
v -19.61135116 -100.76575002 -11.75950000
v -19.57325301 -100.47526049 -11.75950000
v -19.49509729 -100.19290023 -11.75950000
v -19.37840523 -99.92416505 -11.75950000
v -19.22544809 -99.67428558 -11.75950000
v -19.74087818 -98.78291696 -30.80950000
v -19.42556245 -98.49369756 -30.80950000
v -19.07306379 -98.25117628 -30.80950000
v -18.69024318 -98.06007354 -30.80950000
v -18.28455180 -97.92410893 -30.80950000
v -17.86388596 -97.84592884 -30.80950000
v -17.43643345 -97.82705496 -30.80950000
v -17.01051413 -97.86785466 -30.80950000
v -16.59441806 -97.96753381 -30.80950000
v -16.19624406 -98.12415227 -30.80950000
v -15.82374214 -98.33466163 -30.80950000
v -15.48416263 -98.59496459 -30.80950000
v -15.18411505 -98.89999462 -30.80950000
v -14.92943948 -99.24381468 -30.80950000
v -14.72509291 -99.61973269 -30.80950000
v -14.57505270 -100.02043184 -30.80950000
v -14.48223921 -100.43811298 -30.80950000
v -14.44845895 -100.86464641 -30.80950000
v -14.47436943 -101.29173015 -30.80950000
v -14.55946631 -101.71105150 -30.80950000
v -14.70209329 -102.11444885 -30.80950000
v -14.89947429 -102.49407052 -30.80950000
v -15.14776752 -102.84252761 -30.80950000
v -15.44214023 -103.15303781 -30.80950000
v -15.77686279 -103.41955738 -30.80950000
v -16.14542021 -103.63689882 -30.80950000
v -16.54063894 -103.80083183 -30.80950000
v -16.95482649 -103.90816564 -30.80950000
v -17.37992117 -103.95681112 -30.80950000
v -17.80764901 -103.94582144 -30.80950000
v -18.22968476 -103.87541050 -30.80950000
v -18.63781398 -103.74694877 -30.80950000
v -19.02409289 -103.56293661 -30.80950000
v -19.38100302 -103.32695561 -30.80950000
v -19.70159752 -103.04359888 -30.80950000
v -19.97963639 -102.71838162 -30.80950000
v -20.20970790 -102.35763382 -30.80950000
v -20.38733398 -101.96837703 -30.80950000
v -20.50905734 -101.55818769 -30.80950000
v -20.57250878 -101.13504966 -30.80950000
v -20.57645328 -100.70719885 -30.80950000
v -20.52081406 -100.28296289 -30.80950000
v -20.40667410 -99.87059904 -30.80950000
v -20.23625497 -99.47813350 -30.80950000
v -20.01287371 -99.11320517 -30.80950000
v -19.03920303 -99.44812544 -30.80950000
v -18.82329508 -99.25008658 -30.80950000
v -18.58192665 -99.08402359 -30.80950000
v -18.31979570 -98.95316872 -30.80950000
v -18.04200431 -98.86006889 -30.80950000
v -17.75395938 -98.80653619 -30.80950000
v -17.46126737 -98.79361257 -30.80950000
v -17.16962519 -98.82154958 -30.80950000
v -16.88470934 -98.88980346 -30.80950000
v -16.61206538 -98.99704571 -30.80950000
v -16.35700000 -99.14118900 -30.80950000
v -16.12447777 -99.31942773 -30.80950000
v -15.91902447 -99.52829270 -30.80950000
v -15.74463901 -99.76371858 -30.80950000
v -15.60471561 -100.02112308 -30.80950000
v -15.50197771 -100.29549610 -30.80950000
v -15.43842500 -100.58149730 -30.80950000
v -15.41529445 -100.87355999 -30.80950000
v -15.43303628 -101.16599949 -30.80950000
v -15.49130515 -101.45312380 -30.80950000
v -15.58896694 -101.72934438 -30.80950000
v -15.72412077 -101.98928491 -30.80950000
v -15.89413602 -102.22788593 -30.80950000
v -16.09570353 -102.44050336 -30.80950000
v -16.32490003 -102.62299884 -30.80950000
v -16.57726447 -102.77182029 -30.80950000
v -16.84788485 -102.88407108 -30.80950000
v -17.13149387 -102.95756637 -30.80950000
v -17.42257140 -102.99087567 -30.80950000
v -17.71545193 -102.98335065 -30.80950000
v -18.00443489 -102.93513776 -30.80950000
v -18.28389555 -102.84717542 -30.80950000
v -18.54839453 -102.72117572 -30.80950000
v -18.79278365 -102.55959110 -30.80950000
v -19.01230616 -102.36556661 -30.80950000
v -19.20268931 -102.14287873 -30.80950000
v -19.36022750 -101.89586182 -30.80950000
v -19.48185442 -101.62932379 -30.80950000
v -19.56520276 -101.34845249 -30.80950000
v -19.60865022 -101.05871476 -30.80950000
v -19.61135116 -100.76575002 -30.80950000
v -19.57325301 -100.47526049 -30.80950000
v -19.49509729 -100.19290023 -30.80950000
v -19.37840523 -99.92416505 -30.80950000
v -19.22544809 -99.67428558 -30.80950000
v -19.80120194 -98.72572828 -21.28450000
v -19.47734002 -98.42866998 -21.28450000
v -19.11528737 -98.17957551 -21.28450000
v -18.72209095 -97.98329319 -21.28450000
v -18.30540386 -97.84364345 -21.28450000
v -17.87333646 -97.76334440 -21.28450000
v -17.43429845 -97.74395897 -21.28450000
v -16.99683519 -97.78586449 -21.28450000
v -16.56946141 -97.88824530 -21.28450000
v -16.16049546 -98.04910868 -21.28450000
v -15.77789739 -98.26532361 -21.28450000
v -15.42911405 -98.53268171 -21.28450000
v -15.12093410 -98.84597916 -21.28450000
v -14.85935591 -99.19911799 -21.28450000
v -14.64947080 -99.58522473 -21.28450000
v -14.49536396 -99.99678427 -21.28450000
v -14.40003489 -100.42578607 -21.28450000
v -14.36533907 -100.86388010 -21.28450000
v -14.39195181 -101.30253935 -21.28450000
v -14.47935513 -101.73322582 -21.28450000
v -14.62584781 -102.14755669 -21.28450000
v -14.82857855 -102.53746748 -21.28450000
v -15.08360142 -102.89536902 -21.28450000
v -15.38595269 -103.21429516 -21.28450000
v -15.72974744 -103.48803837 -21.28450000
v -16.10829410 -103.71127055 -21.28450000
v -16.51422468 -103.87964673 -21.28450000
v -16.93963820 -103.98988968 -21.28450000
v -17.37625449 -104.03985362 -21.28450000
v -17.81557529 -104.02856608 -21.28450000
v -18.24904973 -103.95624675 -21.28450000
v -18.66824072 -103.82430325 -21.28450000
v -19.06498919 -103.63530370 -21.28450000
v -19.43157287 -103.39292676 -21.28450000
v -19.76085664 -103.10189004 -21.28450000
v -20.04643136 -102.76785822 -21.28450000
v -20.28273864 -102.39733285 -21.28450000
v -20.46517903 -101.99752580 -21.28450000
v -20.59020153 -101.57621885 -21.28450000
v -20.65537273 -101.14161225 -21.28450000
v -20.65942414 -100.70216514 -21.28450000
v -20.60227690 -100.26643086 -21.28450000
v -20.48504333 -99.84289046 -21.28450000
v -20.31000524 -99.43978769 -21.28450000
v -20.08056954 -99.06496849 -21.28450000
v -19.75093214 -98.77338552 -29.22200000
v -19.76098610 -98.76385407 -27.63450000
v -19.77104006 -98.75432262 -26.04700000
v -19.78109402 -98.74479117 -24.45950000
v -19.79114798 -98.73525973 -22.87200000
v -20.23986881 -99.45517550 -29.22200000
v -20.52672966 -100.24359640 -29.22200000
v -20.25212150 -99.44871003 -27.63450000
v -20.59023951 -101.08017465 -29.22200000
v -20.54027234 -100.24067642 -27.63450000
v -20.42568814 -101.90286505 -29.22200000
v -20.26437419 -99.44224456 -26.04700000
v -20.60406780 -101.08101672 -27.63450000
v -20.04527956 -102.65065244 -29.22200000
v -20.55381503 -100.23775645 -26.04700000
v -20.43877644 -101.90740673 -27.63450000
v -19.47722694 -103.26807683 -29.22200000
v -20.27662687 -99.43577909 -24.45950000
v -20.61789608 -101.08185880 -26.04700000
v -20.05665718 -102.65855688 -27.63450000
v -18.76366014 -103.70934669 -29.22200000
v -20.56735772 -100.23483647 -24.45950000
v -20.45186475 -101.91194841 -26.04700000
v -19.48605006 -103.27875780 -27.63450000
v -17.95750116 -103.94173505 -29.22200000
v -20.28887956 -99.42931362 -22.87200000
v -20.63172437 -101.08270088 -24.45950000
v -20.06803481 -102.66646132 -26.04700000
v -18.76927439 -103.72201203 -27.63450000
v -17.11853911 -103.94800673 -29.22200000
v -20.58090040 -100.23191649 -22.87200000
v -20.46495306 -101.91649008 -24.45950000
v -19.49487318 -103.28943877 -26.04700000
v -17.95949014 -103.95544543 -27.63450000
v -16.30899596 -103.72769658 -29.22200000
v -20.64555266 -101.08354295 -22.87200000
v -20.07941244 -102.67436577 -24.45950000
v -18.77488863 -103.73467737 -26.04700000
v -17.11675532 -103.96174531 -27.63450000
v -15.58891184 -103.29714401 -29.22200000
v -20.47804136 -101.92103176 -22.87200000
v -19.50369630 -103.30011975 -24.45950000
v -17.96147913 -103.96915581 -26.04700000
v -16.30357170 -103.74044444 -27.63450000
v -15.01169209 -102.68828112 -29.22200000
v -20.09079007 -102.68227021 -22.87200000
v -18.78050288 -103.74734272 -24.45950000
v -17.11497153 -103.97548390 -26.04700000
v -15.58024939 -103.30795569 -27.63450000
v -14.62014645 -101.94626449 -29.22200000
v -19.51251942 -103.31080072 -22.87200000
v -17.96346811 -103.98286620 -24.45950000
v -16.29814743 -103.75319230 -26.04700000
v -15.00043391 -102.69635478 -27.63450000
v -14.44331408 -101.12612611 -29.22200000
v -18.78611712 -103.76000806 -22.87200000
v -17.11318774 -103.98922248 -24.45950000
v -15.57158694 -103.31876738 -26.04700000
v -14.60712751 -101.95100134 -27.63450000
v -14.49430982 -100.28869188 -29.22200000
v -17.96545710 -103.99657658 -22.87200000
v -16.29272316 -103.76594016 -24.45950000
v -14.98917572 -102.70442843 -26.04700000
v -14.42949992 -101.12717483 -27.63450000
v -14.76935155 -99.49607046 -29.22200000
v -17.11140395 -104.00296107 -22.87200000
v -15.56292449 -103.32957906 -24.45950000
v -14.59410856 -101.95573818 -26.04700000
v -14.48072499 -100.28597469 -27.63450000
v -15.24804068 -98.80704697 -29.22200000
v -16.28729889 -103.77868802 -22.87200000
v -14.97791754 -102.71250209 -24.45950000
v -14.41568577 -101.12822355 -26.04700000
v -14.75700357 -99.48978890 -27.63450000
v -15.89487504 -98.27272312 -29.22200000
v -15.55426203 -103.34039075 -22.87200000
v -14.58108961 -101.96047502 -24.45950000
v -14.46714016 -100.28325751 -26.04700000
v -15.23784535 -98.79766690 -27.63450000
v -16.66188187 -97.93272727 -29.22200000
v -14.96665936 -102.72057575 -22.87200000
v -14.40187162 -101.12927226 -24.45950000
v -14.74465559 -99.48350733 -26.04700000
v -15.88758849 -98.26094022 -27.63450000
v -17.49217579 -97.81227536 -29.22200000
v -14.56807067 -101.96521186 -22.87200000
v -14.45355533 -100.28054032 -24.45950000
v -15.22765001 -98.78828682 -26.04700000
v -16.65804451 -97.91941542 -27.63450000
v -18.32417770 -97.92030075 -29.22200000
v -14.38805747 -101.13032098 -22.87200000
v -14.73230761 -99.47722576 -24.45950000
v -15.88030194 -98.24915732 -26.04700000
v -17.49207223 -97.79842184 -27.63450000
v -19.09618182 -98.24879169 -29.22200000
v -14.43997051 -100.27782314 -22.87200000
v -15.21745468 -98.77890675 -24.45950000
v -16.65420716 -97.90610358 -26.04700000
v -18.32781561 -97.90693302 -27.63450000
v -14.71995964 -99.47094419 -22.87200000
v -15.87301539 -98.23737441 -24.45950000
v -17.49196867 -97.78456833 -26.04700000
v -19.10329140 -98.23690117 -27.63450000
v -15.20725934 -98.76952668 -22.87200000
v -16.65036980 -97.89279173 -24.45950000
v -18.33145352 -97.89356529 -26.04700000
v -15.86572884 -98.22559151 -22.87200000
v -17.49186511 -97.77071481 -24.45950000
v -19.11040098 -98.22501065 -26.04700000
v -16.64653245 -97.87947988 -22.87200000
v -18.33509144 -97.88019756 -24.45950000
v -17.49176154 -97.75686130 -22.87200000
v -19.11751056 -98.21312012 -24.45950000
v -18.33872935 -97.86682983 -22.87200000
v -19.12462013 -98.20122960 -22.87200000
v -19.75093214 -98.77338552 -13.34700000
v -19.76098610 -98.76385407 -14.93450000
v -19.77104006 -98.75432262 -16.52200000
v -19.78109402 -98.74479117 -18.10950000
v -19.79114798 -98.73525973 -19.69700000
v -19.09618182 -98.24879169 -13.34700000
v -18.32417770 -97.92030075 -13.34700000
v -19.10329140 -98.23690117 -14.93450000
v -17.49217579 -97.81227536 -13.34700000
v -18.32781561 -97.90693302 -14.93450000
v -16.66188187 -97.93272727 -13.34700000
v -19.11040098 -98.22501065 -16.52200000
v -17.49207223 -97.79842184 -14.93450000
v -15.89487504 -98.27272312 -13.34700000
v -18.33145352 -97.89356529 -16.52200000
v -16.65804451 -97.91941542 -14.93450000
v -15.24804068 -98.80704697 -13.34700000
v -19.11751056 -98.21312012 -18.10950000
v -17.49196867 -97.78456833 -16.52200000
v -15.88758849 -98.26094022 -14.93450000
v -14.76935155 -99.49607046 -13.34700000
v -18.33509144 -97.88019756 -18.10950000
v -16.65420716 -97.90610358 -16.52200000
v -15.23784535 -98.79766690 -14.93450000
v -14.49430982 -100.28869188 -13.34700000
v -19.12462013 -98.20122960 -19.69700000
v -17.49186511 -97.77071481 -18.10950000
v -15.88030194 -98.24915732 -16.52200000
v -14.75700357 -99.48978890 -14.93450000
v -14.44331408 -101.12612611 -13.34700000
v -18.33872935 -97.86682983 -19.69700000
v -16.65036980 -97.89279173 -18.10950000
v -15.22765001 -98.78828682 -16.52200000
v -14.48072499 -100.28597469 -14.93450000
v -14.62014645 -101.94626449 -13.34700000
v -17.49176154 -97.75686130 -19.69700000
v -15.87301539 -98.23737441 -18.10950000
v -14.74465559 -99.48350733 -16.52200000
v -14.42949992 -101.12717483 -14.93450000
v -15.01169209 -102.68828112 -13.34700000
v -16.64653245 -97.87947988 -19.69700000
v -15.21745468 -98.77890675 -18.10950000
v -14.46714016 -100.28325751 -16.52200000
v -14.60712751 -101.95100134 -14.93450000
v -15.58891184 -103.29714401 -13.34700000
v -15.86572884 -98.22559151 -19.69700000
v -14.73230761 -99.47722576 -18.10950000
v -14.41568577 -101.12822355 -16.52200000
v -15.00043391 -102.69635478 -14.93450000
v -16.30899596 -103.72769658 -13.34700000
v -15.20725934 -98.76952668 -19.69700000
v -14.45355533 -100.28054032 -18.10950000
v -14.59410856 -101.95573818 -16.52200000
v -15.58024939 -103.30795569 -14.93450000
v -17.11853911 -103.94800673 -13.34700000
v -14.71995964 -99.47094419 -19.69700000
v -14.40187162 -101.12927226 -18.10950000
v -14.98917572 -102.70442843 -16.52200000
v -16.30357170 -103.74044444 -14.93450000
v -17.95750116 -103.94173505 -13.34700000
v -14.43997051 -100.27782314 -19.69700000
v -14.58108961 -101.96047502 -18.10950000
v -15.57158694 -103.31876738 -16.52200000
v -17.11675532 -103.96174531 -14.93450000
v -18.76366014 -103.70934669 -13.34700000
v -14.38805747 -101.13032098 -19.69700000
v -14.97791754 -102.71250209 -18.10950000
v -16.29814743 -103.75319230 -16.52200000
v -17.95949014 -103.95544543 -14.93450000
v -19.47722694 -103.26807683 -13.34700000
v -14.56807067 -101.96521186 -19.69700000
v -15.56292449 -103.32957906 -18.10950000
v -17.11497153 -103.97548390 -16.52200000
v -18.76927439 -103.72201203 -14.93450000
v -20.04527956 -102.65065244 -13.34700000
v -14.96665936 -102.72057575 -19.69700000
v -16.29272316 -103.76594016 -18.10950000
v -17.96147913 -103.96915581 -16.52200000
v -19.48605006 -103.27875780 -14.93450000
v -20.42568814 -101.90286505 -13.34700000
v -15.55426203 -103.34039075 -19.69700000
v -17.11318774 -103.98922248 -18.10950000
v -18.77488863 -103.73467737 -16.52200000
v -20.05665718 -102.65855688 -14.93450000
v -20.59023951 -101.08017465 -13.34700000
v -16.28729889 -103.77868802 -19.69700000
v -17.96346811 -103.98286620 -18.10950000
v -19.49487318 -103.28943877 -16.52200000
v -20.43877644 -101.90740673 -14.93450000
v -20.52672966 -100.24359640 -13.34700000
v -17.11140395 -104.00296107 -19.69700000
v -18.78050288 -103.74734272 -18.10950000
v -20.06803481 -102.66646132 -16.52200000
v -20.60406780 -101.08101672 -14.93450000
v -20.23986881 -99.45517550 -13.34700000
v -17.96545710 -103.99657658 -19.69700000
v -19.50369630 -103.30011975 -18.10950000
v -20.45186475 -101.91194841 -16.52200000
v -20.54027234 -100.24067642 -14.93450000
v -18.78611712 -103.76000806 -19.69700000
v -20.07941244 -102.67436577 -18.10950000
v -20.61789608 -101.08185880 -16.52200000
v -20.25212150 -99.44871003 -14.93450000
v -19.51251942 -103.31080072 -19.69700000
v -20.46495306 -101.91649008 -18.10950000
v -20.55381503 -100.23775645 -16.52200000
v -20.09079007 -102.68227021 -19.69700000
v -20.63172437 -101.08270088 -18.10950000
v -20.26437419 -99.44224456 -16.52200000
v -20.47804136 -101.92103176 -19.69700000
v -20.56735772 -100.23483647 -18.10950000
v -20.64555266 -101.08354295 -19.69700000
v -20.27662687 -99.43577909 -18.10950000
v -20.58090040 -100.23191649 -19.69700000
v -20.28887956 -99.42931362 -19.69700000
f 75 29 74
f 75 30 29
f 73 74 29
f 73 29 28
f 76 30 75
f 76 31 30
f 72 73 28
f 72 28 27
f 77 31 76
f 77 32 31
f 71 72 27
f 71 27 26
f 78 32 77
f 78 33 32
f 70 26 25
f 70 71 26
f 79 34 33
f 79 33 78
f 69 70 25
f 69 25 24
f 80 34 79
f 80 35 34
f 68 24 23
f 68 69 24
f 81 36 35
f 81 35 80
f 67 23 22
f 67 68 23
f 82 37 36
f 82 36 81
f 66 22 21
f 66 67 22
f 83 38 37
f 83 37 82
f 65 21 20
f 65 66 21
f 84 39 38
f 84 38 83
f 64 20 19
f 64 65 20
f 85 40 39
f 85 39 84
f 63 19 18
f 63 64 19
f 41 40 85
f 41 85 86
f 17 62 63
f 17 63 18
f 87 41 86
f 42 41 87
f 16 61 62
f 16 62 17
f 60 61 16
f 43 87 88
f 43 42 87
f 15 59 60
f 15 60 16
f 44 43 88
f 44 88 89
f 14 59 15
f 45 44 89
f 45 89 90
f 13 59 14
f 13 57 58
f 13 58 59
f 1 45 90
f 1 46 47
f 1 90 46
f 12 57 13
f 2 1 47
f 2 47 48
f 11 55 56
f 11 56 57
f 11 57 12
f 3 48 49
f 3 2 48
f 10 55 11
f 4 3 49
f 9 55 10
f 9 54 55
f 5 49 50
f 5 4 49
f 8 52 53
f 8 53 54
f 8 54 9
f 6 5 50
f 6 50 51
f 6 51 52
f 7 6 52
f 7 52 8
f 165 164 119
f 165 119 120
f 163 119 164
f 163 118 119
f 166 165 120
f 166 120 121
f 162 118 163
f 162 117 118
f 167 166 121
f 167 121 122
f 161 117 162
f 161 116 117
f 168 167 122
f 168 122 123
f 160 115 116
f 160 116 161
f 169 123 124
f 169 168 123
f 159 115 160
f 159 114 115
f 170 169 124
f 170 124 125
f 158 113 114
f 158 114 159
f 171 125 126
f 171 170 125
f 157 112 113
f 157 113 158
f 172 126 127
f 172 171 126
f 156 111 112
f 156 112 157
f 173 127 128
f 173 172 127
f 155 110 111
f 155 111 156
f 174 128 129
f 174 173 128
f 154 109 110
f 154 110 155
f 175 129 130
f 175 174 129
f 153 108 109
f 153 109 154
f 131 175 130
f 131 176 175
f 107 153 152
f 107 108 153
f 177 176 131
f 132 177 131
f 106 152 151
f 106 107 152
f 150 106 151
f 133 178 177
f 133 177 132
f 105 150 149
f 105 106 150
f 134 178 133
f 134 179 178
f 104 105 149
f 135 179 134
f 135 180 179
f 103 104 149
f 103 148 147
f 103 149 148
f 91 180 135
f 91 137 136
f 91 136 180
f 102 103 147
f 92 137 91
f 92 138 137
f 101 146 145
f 101 147 146
f 101 102 147
f 93 139 138
f 93 138 92
f 100 101 145
f 94 139 93
f 99 100 145
f 99 145 144
f 95 140 139
f 95 139 94
f 98 143 142
f 98 144 143
f 98 99 144
f 96 140 95
f 96 141 140
f 96 142 141
f 97 142 96
f 97 98 142
f 226 91 135
f 225 181 230
f 226 92 91
f 181 182 230
f 231 226 135
f 231 134 133
f 231 135 134
f 232 231 133
f 232 132 131
f 232 133 132
f 233 226 231
f 233 227 226
f 233 228 227
f 234 232 131
f 234 130 129
f 234 131 130
f 235 233 231
f 235 231 232
f 236 234 129
f 236 128 127
f 236 129 128
f 237 228 233
f 238 232 234
f 238 235 232
f 239 236 127
f 239 126 125
f 239 127 126
f 240 237 233
f 240 233 235
f 241 236 239
f 241 238 234
f 241 234 236
f 242 239 125
f 242 124 123
f 242 125 124
f 243 229 228
f 243 230 229
f 243 228 237
f 244 235 238
f 244 240 235
f 244 238 241
f 245 241 239
f 246 242 123
f 246 122 121
f 246 123 122
f 247 237 240
f 247 243 237
f 248 244 241
f 249 245 239
f 249 239 242
f 250 246 121
f 250 120 119
f 250 121 120
f 251 223 224
f 251 224 225
f 251 225 230
f 251 230 243
f 252 240 244
f 252 247 240
f 253 241 245
f 253 248 241
f 254 242 246
f 254 246 250
f 254 249 242
f 255 250 119
f 255 118 117
f 255 119 118
f 256 251 243
f 256 221 222
f 256 222 223
f 256 223 251
f 256 243 247
f 257 244 248
f 257 252 244
f 258 245 249
f 258 253 245
f 259 254 250
f 260 116 115
f 260 117 116
f 260 255 117
f 261 247 252
f 261 221 256
f 261 219 220
f 261 220 221
f 261 256 247
f 262 253 258
f 262 248 253
f 262 257 248
f 263 258 249
f 263 249 254
f 264 259 250
f 264 250 255
f 265 260 115
f 265 115 114
f 266 217 218
f 266 218 219
f 266 257 262
f 266 219 261
f 266 252 257
f 266 261 252
f 267 262 258
f 268 254 259
f 268 263 254
f 269 255 260
f 269 264 255
f 270 265 114
f 270 113 112
f 270 114 113
f 271 217 266
f 271 215 216
f 271 216 217
f 271 266 262
f 272 267 258
f 272 263 268
f 272 258 263
f 273 268 259
f 273 259 264
f 274 269 260
f 274 260 265
f 275 270 112
f 275 111 110
f 275 112 111
f 276 215 271
f 276 271 262
f 276 213 214
f 276 214 215
f 276 262 267
f 277 272 268
f 278 264 269
f 278 273 264
f 279 265 270
f 279 274 265
f 279 270 275
f 280 275 110
f 280 109 108
f 280 110 109
f 281 276 267
f 281 267 272
f 281 211 212
f 281 212 213
f 281 213 276
f 282 277 268
f 282 268 273
f 283 269 274
f 283 278 269
f 284 279 275
f 285 280 108
f 285 107 106
f 285 108 107
f 286 209 210
f 286 210 211
f 286 211 281
f 286 272 277
f 286 281 272
f 287 273 278
f 287 282 273
f 288 274 279
f 288 283 274
f 289 284 275
f 289 275 280
f 290 105 104
f 290 106 105
f 290 285 106
f 291 207 208
f 291 208 209
f 291 209 286
f 291 277 282
f 291 286 277
f 292 278 283
f 292 287 278
f 293 288 279
f 293 279 284
f 294 280 285
f 294 289 280
f 295 290 104
f 295 103 102
f 295 104 103
f 296 205 206
f 296 206 207
f 296 207 291
f 296 282 287
f 296 291 282
f 296 287 292
f 297 283 288
f 297 292 283
f 298 284 289
f 298 293 284
f 299 294 285
f 299 285 290
f 300 101 100
f 300 102 101
f 300 295 102
f 301 205 296
f 301 296 292
f 301 203 204
f 301 204 205
f 302 288 293
f 302 297 288
f 303 298 289
f 303 289 294
f 304 299 290
f 304 295 300
f 304 290 295
f 305 300 100
f 305 99 98
f 305 100 99
f 306 292 297
f 306 203 301
f 306 297 302
f 306 202 203
f 306 301 292
f 307 293 298
f 307 302 293
f 307 298 303
f 308 303 294
f 308 294 299
f 309 304 300
f 310 305 98
f 310 97 96
f 310 98 97
f 311 306 302
f 311 200 201
f 311 201 202
f 311 202 306
f 312 307 303
f 313 299 304
f 313 304 309
f 313 308 299
f 314 305 310
f 314 309 300
f 314 300 305
f 315 310 96
f 315 95 94
f 315 96 95
f 316 198 199
f 316 199 200
f 316 200 311
f 316 311 302
f 316 307 312
f 316 302 307
f 317 312 303
f 317 303 308
f 318 313 309
f 319 314 310
f 319 310 315
f 320 315 94
f 320 93 92
f 320 94 93
f 320 92 226
f 321 196 197
f 321 197 198
f 321 198 316
f 321 316 312
f 322 308 313
f 322 317 308
f 323 314 319
f 323 318 309
f 323 309 314
f 324 319 315
f 325 194 195
f 325 195 196
f 325 196 321
f 325 312 317
f 325 321 312
f 326 313 318
f 326 322 313
f 326 318 323
f 327 323 319
f 328 324 315
f 328 320 226
f 328 315 320
f 328 226 227
f 329 192 193
f 329 193 194
f 329 194 325
f 329 317 322
f 329 325 317
f 329 322 326
f 330 326 323
f 331 319 324
f 331 327 319
f 332 190 191
f 332 191 192
f 332 192 329
f 332 329 326
f 333 323 327
f 333 327 331
f 333 330 323
f 334 324 328
f 334 331 324
f 334 328 227
f 334 227 228
f 334 228 229
f 335 332 326
f 335 188 189
f 335 189 190
f 335 330 333
f 335 190 332
f 335 326 330
f 336 333 331
f 337 186 187
f 337 187 188
f 337 335 333
f 337 188 335
f 338 334 229
f 338 336 331
f 338 331 334
f 339 184 185
f 339 185 186
f 339 337 333
f 339 186 337
f 339 333 336
f 340 229 230
f 340 182 183
f 340 183 184
f 340 230 182
f 340 338 229
f 340 184 339
f 340 336 338
f 340 339 336
f 341 1 2
f 182 181 345
f 341 45 1
f 181 225 345
f 346 341 2
f 346 2 3
f 346 3 4
f 347 4 5
f 347 5 6
f 347 346 4
f 348 342 341
f 348 341 346
f 349 347 6
f 349 6 7
f 349 7 8
f 350 346 347
f 350 348 346
f 351 349 8
f 351 8 9
f 351 9 10
f 352 343 342
f 352 342 348
f 353 347 349
f 353 350 347
f 354 351 10
f 354 10 11
f 354 11 12
f 355 348 350
f 355 352 348
f 356 353 349
f 356 349 351
f 357 12 13
f 357 13 14
f 357 354 12
f 358 344 343
f 358 343 352
f 359 350 353
f 359 355 350
f 360 351 354
f 360 356 351
f 361 357 14
f 361 14 15
f 361 15 16
f 362 352 355
f 362 358 352
f 363 353 356
f 363 359 353
f 364 354 357
f 364 360 354
f 365 361 16
f 365 16 17
f 365 17 18
f 366 183 182
f 366 184 183
f 366 344 358
f 366 345 344
f 366 182 345
f 367 362 355
f 367 355 359
f 368 356 360
f 368 363 356
f 369 357 361
f 369 364 357
f 369 361 365
f 370 365 18
f 370 18 19
f 370 19 20
f 371 185 184
f 371 186 185
f 371 366 358
f 371 358 362
f 371 184 366
f 372 367 359
f 372 359 363
f 372 363 368
f 373 368 360
f 373 360 364
f 373 364 369
f 374 369 365
f 375 370 20
f 375 20 21
f 375 21 22
f 376 187 186
f 376 188 187
f 376 362 367
f 376 186 371
f 376 371 362
f 377 372 368
f 378 373 369
f 379 365 370
f 379 374 365
f 380 22 23
f 380 23 24
f 380 375 22
f 381 189 188
f 381 190 189
f 381 188 376
f 381 367 372
f 381 372 377
f 381 376 367
f 382 368 373
f 382 377 368
f 383 378 369
f 383 369 374
f 384 379 370
f 384 370 375
f 385 380 24
f 385 24 25
f 386 381 377
f 386 191 190
f 386 192 191
f 386 190 381
f 387 382 373
f 387 373 378
f 388 374 379
f 388 383 374
f 389 375 380
f 389 384 375
f 390 385 25
f 390 25 26
f 390 26 27
f 391 193 192
f 391 194 193
f 391 377 382
f 391 192 386
f 391 386 377
f 392 378 383
f 392 387 378
f 392 383 388
f 393 388 379
f 393 379 384
f 394 385 390
f 394 389 380
f 394 380 385
f 395 390 27
f 395 27 28
f 395 28 29
f 396 195 194
f 396 196 195
f 396 194 391
f 396 382 387
f 396 391 382
f 396 387 392
f 397 392 388
f 398 384 389
f 398 393 384
f 399 394 390
f 400 395 29
f 400 29 30
f 400 30 31
f 401 196 396
f 401 197 196
f 401 198 197
f 401 396 392
f 402 388 393
f 402 397 388
f 403 389 394
f 403 394 399
f 403 398 389
f 404 390 395
f 404 395 400
f 404 399 390
f 405 31 32
f 405 400 31
f 405 32 33
f 406 392 397
f 406 401 392
f 406 199 198
f 406 200 199
f 406 198 401
f 407 402 393
f 407 393 398
f 407 398 403
f 408 403 399
f 409 404 400
f 410 405 33
f 410 33 34
f 410 34 35
f 411 406 397
f 411 201 200
f 411 202 201
f 411 200 406
f 411 397 402
f 412 407 403
f 413 399 404
f 413 408 399
f 414 400 405
f 414 409 400
f 415 410 35
f 415 35 36
f 415 36 37
f 416 203 202
f 416 402 407
f 416 202 411
f 416 411 402
f 417 408 413
f 417 403 408
f 417 412 403
f 418 413 404
f 418 404 409
f 419 405 410
f 419 414 405
f 420 415 37
f 420 37 38
f 420 38 39
f 421 416 407
f 421 204 203
f 421 205 204
f 421 407 412
f 421 203 416
f 422 417 413
f 423 418 409
f 423 409 414
f 424 419 410
f 424 410 415
f 425 420 39
f 425 39 40
f 425 40 41
f 426 412 417
f 426 421 412
f 426 206 205
f 426 207 206
f 426 205 421
f 426 417 422
f 427 422 413
f 427 413 418
f 428 423 414
f 428 414 419
f 428 419 424
f 429 424 415
f 429 415 420
f 430 425 41
f 430 41 42
f 430 42 43
f 431 207 426
f 431 208 207
f 431 209 208
f 431 426 422
f 431 422 427
f 432 423 428
f 432 427 418
f 432 418 423
f 433 428 424
f 434 429 420
f 434 420 425
f 435 430 43
f 435 45 341
f 435 43 44
f 435 44 45
f 435 341 342
f 436 210 209
f 436 211 210
f 436 431 427
f 436 209 431
f 437 432 428
f 438 424 429
f 438 433 424
f 439 434 425
f 439 425 430
f 440 212 211
f 440 213 212
f 440 211 436
f 440 427 432
f 440 436 427
f 440 432 437
f 441 428 433
f 441 437 428
f 442 434 439
f 442 438 429
f 442 429 434
f 443 435 342
f 443 430 435
f 443 439 430
f 444 214 213
f 444 215 214
f 444 213 440
f 444 440 437
f 445 441 433
f 445 433 438
f 446 442 439
f 447 216 215
f 447 217 216
f 447 215 444
f 447 437 441
f 447 444 437
f 448 438 442
f 448 445 438
f 449 443 342
f 449 439 443
f 449 446 439
f 449 342 343
f 450 218 217
f 450 219 218
f 450 441 445
f 450 447 441
f 450 217 447
f 451 448 442
f 451 442 446
f 452 220 219
f 452 221 220
f 452 448 451
f 452 450 445
f 452 219 450
f 452 445 448
f 453 449 343
f 453 451 446
f 453 446 449
f 453 343 344
f 454 452 451
f 454 222 221
f 454 223 222
f 454 221 452
f 455 344 345
f 455 345 225
f 455 453 344
f 455 454 451
f 455 451 453
f 455 223 454
f 455 224 223
f 455 225 224
f 90 136 46
f 90 179 180
f 90 180 136
f 89 179 90
f 88 179 89
f 88 178 179
f 87 178 88
f 87 177 178
f 86 177 87
f 86 176 177
f 85 176 86
f 85 174 175
f 85 175 176
f 84 174 85
f 83 174 84
f 83 172 173
f 83 173 174
f 82 172 83
f 81 172 82
f 81 171 172
f 80 171 81
f 80 170 171
f 79 170 80
f 79 169 170
f 78 169 79
f 78 167 168
f 78 168 169
f 77 167 78
f 76 167 77
f 76 166 167
f 75 166 76
f 75 165 166
f 74 165 75
f 74 164 165
f 73 164 74
f 73 163 164
f 72 162 163
f 72 163 73
f 71 161 162
f 71 162 72
f 70 160 161
f 70 161 71
f 69 159 160
f 69 160 70
f 68 158 159
f 68 159 69
f 67 157 158
f 67 158 68
f 66 156 157
f 66 157 67
f 65 156 66
f 65 155 156
f 64 155 65
f 64 154 155
f 63 154 64
f 63 153 154
f 62 153 63
f 62 152 153
f 61 152 62
f 61 150 151
f 61 151 152
f 60 150 61
f 60 149 150
f 59 149 60
f 58 149 59
f 58 148 149
f 57 148 58
f 57 147 148
f 56 147 57
f 56 146 147
f 55 146 56
f 55 145 146
f 54 145 55
f 54 144 145
f 53 144 54
f 53 142 143
f 53 143 144
f 52 142 53
f 52 141 142
f 51 141 52
f 50 141 51
f 50 140 141
f 49 139 140
f 49 140 50
f 48 138 139
f 48 139 49
f 47 136 137
f 47 137 138
f 47 138 48
f 46 136 47

