# https://github.com/mikedh/trimesh
v -2.51878733 -0.63547490 -0.16920129
v -3.21523464 5.51802936 -6.29340919
v -3.25642655 5.54181152 -6.27407114
v -3.29199714 5.56234821 -6.24326039
v -3.31960202 5.57828589 -6.20300761
v -3.33742180 5.58857415 -6.15596580
v -3.34428201 5.59253490 -6.10523539
v -3.20234884 5.68853018 -6.13025024
v -3.17113628 5.68457913 -6.15596580
v -3.17113628 5.66400262 -6.20300761
v -3.17113628 5.63212726 -6.24326039
v -3.17113628 5.59105388 -6.27407114
v -3.17113628 5.54348955 -6.29340919
v -3.26642754 5.64282639 -6.22247562
v 3.17113628 5.69250063 -6.10523539
v 3.17113628 5.68457913 -6.15596580
v 3.17113628 5.66400262 -6.20300761
v 3.17113628 5.63212726 -6.24326039
v 3.17113628 5.59105388 -6.27407114
v 3.17113628 5.54348955 -6.29340919
v 2.66981527 4.62425582 -6.31791830
v -6.34227257 0.00000000 -6.30000000
v -6.38637092 0.02546019 -6.29340919
v -6.42756283 0.04924236 -6.27407114
v -6.46313342 0.06977905 -6.24326039
v -6.49073830 0.08571673 -6.20300761
v -6.50855808 0.09600499 -6.15596580
v 3.34428201 5.59253490 -6.10523539
v 3.31249952 5.63392808 -6.10583881
v 3.22287508 5.68567278 -6.10583881
v 3.33742180 5.58857415 -6.15596580
v 3.31960202 5.57828589 -6.20300761
v 3.29199714 5.56234821 -6.24326039
v 3.25642655 5.54181152 -6.27407114
v 3.21523464 5.51802936 -6.29340919
v 3.26550791 5.64556503 -6.21645502
v -6.38637092 -0.02546019 -6.29340919
v -6.42756283 -0.04924236 -6.27407114
v -6.46313342 -0.06977905 -6.24326039
v -6.49073830 -0.08571673 -6.20300761
v -6.50855808 -0.09600499 -6.15596580
v -6.52924512 -0.06812512 -6.13228102
v -6.52261396 0.07980504 -6.14302900
v -6.51539620 0.00589000 -6.22613895
v 6.50855808 0.09600499 -6.15596580
v 6.49073830 0.08571673 -6.20300761
v 6.46313342 0.06977905 -6.24326039
v 6.42756283 0.04924236 -6.27407114
v 6.38637092 0.02546019 -6.29340919
v 6.34227257 0.00000000 -6.30000000
v -3.17113628 -5.49256916 -6.30000000
v -3.21523464 -5.51802936 -6.29340919
v -3.25642655 -5.54181152 -6.27407114
v -3.29199714 -5.56234821 -6.24326039
v -3.31960202 -5.57828589 -6.20300761
v -3.33742180 -5.58857415 -6.15596580
v -3.34428201 -5.59253490 -6.10523539
v 6.53159267 0.05692297 -6.14398859
v 6.50855808 -0.09600499 -6.15596580
v 6.49073830 -0.08571673 -6.20300761
v 6.46313342 -0.06977905 -6.24326039
v 6.42756283 -0.04924236 -6.27407114
v 6.38637092 -0.02546019 -6.29340919
v 6.52635581 -0.07241320 -6.13689256
v 6.51378733 -0.00534762 -6.22826781
v -3.17113628 -5.59105388 -6.27407114
v -3.17113628 -5.63212726 -6.24326039
v -3.17113628 -5.68457913 -6.15596580
v -3.21373971 -5.68736089 -6.12448852
v -3.27456291 -5.64025964 -6.20766665
v -3.20570386 -5.54894069 -6.28973984
v 3.34428201 -5.59253490 -6.10523539
v 3.33742180 -5.58857415 -6.15596580
v 3.31960202 -5.57828589 -6.20300761
v 3.29199714 -5.56234821 -6.24326039
v 3.25642655 -5.54181152 -6.27407114
v 3.21523464 -5.51802936 -6.29340919
v 3.17113628 -5.49256916 -6.30000000
v 3.17113628 -5.54348955 -6.29340919
v 3.17113628 -5.59105388 -6.27407114
v 3.17113628 -5.66400262 -6.20300761
v 3.27230285 -5.66213343 -6.16802919
v 3.17113628 -5.69250063 -6.10523539
v 3.22287508 -5.68567278 -6.10583881
v 3.31249952 -5.63392808 -6.10583881
v 3.24165733 -5.61842776 -6.24914711
v 8.43638865 -8.13643434 -2.00000000
v 8.48871419 -8.13643434 -1.99303377
v 8.53739462 -8.13643434 -1.97262038
v 8.57903874 -8.13643434 -1.94018185
v 8.63030623 -8.13643434 -1.84894867
v 8.63635819 -8.13643434 -1.79650952
v 8.13643434 -8.63635819 -1.79650952
v 8.23503222 -8.62516207 -1.79589950
v 8.33152207 -8.59205837 -1.79545710
v 8.41456694 -8.54371864 -1.79521487
v 8.47648937 -8.49243381 -1.79514063
v 8.52195234 -8.44313872 -1.79516738
v 8.58299907 -8.35005507 -1.79539098
v 8.62238583 -8.24656879 -1.79583836
v 8.13643434 -8.63030623 -1.84894867
v 8.13643434 -8.61074553 -1.89797794
v 8.13643434 -8.57903874 -1.94018185
v 8.13643434 -8.53739462 -1.97262038
v 8.13643434 -8.43638865 -2.00000000
v 8.36355221 -8.52079887 -1.97197932
v 8.58292841 -8.34279552 -1.87976063
v -8.63635819 -8.13643434 -1.79650952
v -8.62516207 -8.23503222 -1.79589950
v -8.59205837 -8.33152207 -1.79545710
v -8.54371864 -8.41456694 -1.79521487
v -8.49243381 -8.47648937 -1.79514063
v -8.44313872 -8.52195234 -1.79516738
v -8.35005507 -8.58299907 -1.79539098
v -8.24656879 -8.62238583 -1.79583836
v -8.13643434 -8.63635819 -1.79650952
v -8.63030623 -8.13643434 -1.84894867
v -8.61074553 -8.13643434 -1.89797794
v -8.57903874 -8.13643434 -1.94018185
v -8.53739462 -8.13643434 -1.97262038
v -8.43638865 -8.13643434 -2.00000000
v -8.13643434 -8.63030623 -1.84894867
v -8.13643434 -8.61074553 -1.89797794
v -8.13643434 -8.57903874 -1.94018185
v -8.28321224 -8.51483025 -1.96700940
v -8.13643434 -8.48871419 -1.99303377
v -8.46940175 -8.47392444 -1.96830426
v 8.13643434 8.48871419 -1.99303377
v 8.13643434 8.53739462 -1.97262038
v 8.13643434 8.57903874 -1.94018185
v 8.13643434 8.63030623 -1.84894867
v 8.13643434 8.63635819 -1.79650952
v 8.63635819 8.13643434 -1.79650952
v 8.62516207 8.23503222 -1.79589950
v 8.59205837 8.33152207 -1.79545710
v 8.54371864 8.41456694 -1.79521487
v 8.49243381 8.47648937 -1.79514063
v 8.44313872 8.52195234 -1.79516738
v 8.35005507 8.58299907 -1.79539098
v 8.24656879 8.62238583 -1.79583836
v 8.43638865 8.13643434 -2.00000000
v 8.48871419 8.13643434 -1.99303377
v 8.53739462 8.13643434 -1.97262038
v 8.61074553 8.13643434 -1.89797794
v 8.63030623 8.13643434 -1.84894867
v 8.34345510 8.58651912 -1.87282302
v 8.58348226 8.33361187 -1.88664117
v 8.36713160 8.42401561 -1.99451338
v -8.63635819 8.13643434 -1.79650952
v -8.63030623 8.13643434 -1.84894867
v -8.61074553 8.13643434 -1.89797794
v -8.57903874 8.13643434 -1.94018185
v -8.48871419 8.13643434 -1.99303377
v -8.43638865 8.13643434 -2.00000000
v -8.21434143 8.63017909 -1.84195369
v -8.23503222 8.62516207 -1.79589950
v -8.33152207 8.59205837 -1.79545710
v -8.41456694 8.54371864 -1.79521487
v -8.47648937 8.49243381 -1.79514063
v -8.52195234 8.44313872 -1.79516738
v -8.58299907 8.35005507 -1.79539098
v -8.62238583 8.24656879 -1.79583836
v -8.13643434 8.43638865 -2.00000000
v -8.13643434 8.48871419 -1.99303377
v -8.13643434 8.53739462 -1.97262038
v -8.13643434 8.61074553 -1.89797794
v -8.13643434 8.63030623 -1.84894867
v -8.14690336 8.57899085 -1.93931533
v -8.50151394 8.41677014 -1.96223494
v -4.89895292 -0.09996573 -1.71742636
v -2.53604932 -4.19263482 -1.71742636
v -4.04181837 -1.47996438 -1.61677799
v -2.41464239 -4.28577270 -1.71682294
v -2.50426684 -4.23402800 -1.71682294
v -2.43120888 -4.22894131 -1.56352688
v -4.91890923 -0.05174470 -1.71682294
v -4.91890923 0.05174470 -1.71682294
v 2.43868598 -4.22199247 -1.56049564
v -2.42924046 -4.40749937 -6.10523539
v -2.60238619 -4.30753364 -6.10523539
v -2.52921925 -4.38073624 -6.10604462
v -5.03162666 -0.09996573 -6.10523539
v -5.03162666 0.09996573 -6.10523539
v -5.05843850 -0.00000000 -6.10604462
v -4.89454738 0.00358367 -1.57968886
v 2.50426684 -4.23402800 -1.71682294
v 2.41464239 -4.28577270 -1.71682294
v -2.54235439 -4.43424927 -6.22590819
v -2.42924046 -4.41542087 -6.15596580
v -2.42924046 -4.46787274 -6.24326039
v -2.42924046 -4.50894612 -6.27407114
v -2.42924046 -4.55651045 -6.29340919
v -2.54109883 -4.57142391 -6.29815059
v -5.03848687 -0.10392648 -6.15596580
v -5.05630665 -0.11421473 -6.20300761
v -5.08391153 -0.13015242 -6.24326039
v -5.11948212 -0.15068911 -6.27407114
v -5.16067403 -0.17447127 -6.29340919
v -0.81794175 4.43053866 -2.11673078
v -2.50426684 4.23402800 -1.71682294
v -2.41464239 4.28577270 -1.71682294
v 3.72587679 -2.04508206 -1.60320678
v 2.60238619 -4.30753364 -6.10523539
v 2.42924046 -4.40749937 -6.10523539
v 2.52921925 -4.38073624 -6.10604462
v 2.42924046 -4.41542087 -6.15596580
v 2.42924046 -4.43599738 -6.20300761
v 2.42924046 -4.50894612 -6.27407114
v 2.42924046 -4.55651045 -6.29340919
v 2.42924046 -4.60743084 -6.30000000
v -5.22288592 -0.13096251 -6.29500738
v -2.69024166 -4.35825702 -6.27407114
v -2.65467107 -4.33772033 -6.24326039
v -2.62706619 -4.32178264 -6.20300761
v -2.60924641 -4.31149439 -6.15596580
v -2.73529406 4.66465695 -6.33498516
v -2.73143357 4.38203918 -6.29340919
v -2.69024166 4.35825702 -6.27407114
v -2.65467107 4.33772033 -6.24326039
v -2.62706619 4.32178264 -6.20300761
v -2.60924641 4.31149439 -6.15596580
v -2.60238619 4.30753364 -6.10523539
v -5.20477238 0.19993146 -6.30000000
v -5.16067403 0.17447127 -6.29340919
v -5.11948212 0.15068911 -6.27407114
v -5.08391153 0.13015242 -6.24326039
v -5.05630665 0.11421473 -6.20300761
v -2.42924046 4.40749937 -6.10523539
v -2.52921925 4.38073624 -6.10604462
v -2.43484987 4.22789198 -1.56434138
v 4.91890923 0.05174470 -1.71682294
v 4.91890923 -0.05174470 -1.71682294
v 4.88132939 -0.00694072 -1.56778115
v 2.60924641 -4.31149439 -6.15596580
v 2.62706619 -4.32178264 -6.20300761
v 2.65467107 -4.33772033 -6.24326039
v 2.69024166 -4.35825702 -6.27407114
v -2.56280700 4.43919528 -6.24511696
v 2.41464239 4.28577270 -1.71682294
v 2.50426684 4.23402800 -1.71682294
v 2.44756191 4.21603323 -1.56504544
v 5.03162666 -0.09996573 -6.10523539
v 5.05630665 -0.11421473 -6.20300761
v 5.08391153 -0.13015242 -6.24326039
v 5.11948212 -0.15068911 -6.27407114
v 5.16067403 -0.17447127 -6.29340919
v 5.23443368 -0.15609656 -6.29547295
v 2.42924046 4.55651045 -6.29340919
v 2.42924046 4.50894612 -6.27407114
v 2.42924046 4.46787274 -6.24326039
v 2.42924046 4.43599738 -6.20300761
v 2.42924046 4.41542087 -6.15596580
v 2.42924046 4.40749937 -6.10523539
v -2.42924046 4.60743084 -6.30000000
v -2.42924046 4.55651045 -6.29340919
v -2.42924046 4.50894612 -6.27407114
v -2.42924046 4.46787274 -6.24326039
v -2.42924046 4.43599738 -6.20300761
v -2.42924046 4.41542087 -6.15596580
v 2.60238619 4.30753364 -6.10523539
v 2.52921925 4.38073624 -6.10604462
v 5.05843850 0.00000000 -6.10604462
v 5.03162666 0.09996573 -6.10523539
v 5.03848687 0.10392648 -6.15596580
v 5.05630665 0.11421473 -6.20300761
v 5.08391153 0.13015242 -6.24326039
v 5.11948212 0.15068911 -6.27407114
v 5.16067403 0.17447127 -6.29340919
v 5.20477238 0.19993146 -6.30000000
v 5.09000378 -0.01249971 -6.18329751
v 2.55644036 4.42786988 -6.22875348
v 2.73143357 4.38203918 -6.29340919
v 2.69024166 4.35825702 -6.27407114
v 2.65467107 4.33772033 -6.24326039
v 2.62706619 4.32178264 -6.20300761
v 2.60924641 4.31149439 -6.15596580
v -3.32021360 5.66166180 -4.73774619
v -3.21847838 6.77415687 -2.00000000
v -3.21847838 6.64579398 -2.00827273
v -3.21847838 6.51955492 -2.03295406
v -3.21847838 6.39752837 -2.07363562
v -3.21847838 6.28173331 -2.12964430
v -3.21847838 6.17408563 -2.20005343
v -3.21847838 6.07636641 -2.28369806
v -3.21847838 5.99019246 -2.37919423
v -3.21847838 5.91698957 -2.48496193
v -3.21847838 5.85796891 -2.59925117
v -3.21847838 5.78612959 -2.84572071
v -3.92132609 6.60839735 -2.00008859
v -3.55126374 6.15047824 -2.10859034
v -3.32343005 5.78264841 -2.73941945
v -6.61010249 0.09996573 -2.97382305
v -3.39162411 5.67453381 -2.97382305
v -3.40169603 5.68034884 -2.84572071
v -3.42592519 5.69433755 -2.72017099
v -3.46391070 5.71626850 -2.59925117
v -3.51502409 5.74577883 -2.48496193
v -3.57841965 5.78238027 -2.37919423
v -3.65304848 5.82546725 -2.28369806
v -3.73767581 5.87432686 -2.20005343
v -3.83090144 5.92815070 -2.12964430
v -3.93118290 5.98604823 -2.07363562
v -4.03686099 6.04706150 -2.03295406
v -4.14618723 6.11018103 -2.00827273
v -7.47583113 0.59979439 -2.00000000
v -6.62017441 0.10578076 -2.84572071
v -6.64440357 0.11976947 -2.72017099
v -6.68238909 0.14170042 -2.59925117
v -6.73350247 0.17121074 -2.48496193
v -6.79689804 0.20781219 -2.37919423
v -6.87152687 0.25089917 -2.28369806
v -6.95615419 0.29975878 -2.20005343
v -7.04937982 0.35358261 -2.12964430
v -7.14966128 0.41148014 -2.07363562
v -7.25533938 0.47249342 -2.03295406
v -7.36466561 0.53561295 -2.00827273
v 3.21847838 5.77449955 -2.97382305
v 3.21847838 6.64579398 -2.00827273
v 3.21847838 6.51955492 -2.03295406
v 3.21847838 6.39752837 -2.07363562
v 3.21847838 6.28173331 -2.12964430
v 3.21847838 6.17408563 -2.20005343
v 3.21847838 6.07636641 -2.28369806
v 3.21847838 5.99019246 -2.37919423
v 3.21847838 5.91698957 -2.48496193
v 3.21847838 5.85796891 -2.59925117
v 3.21847838 5.81410702 -2.72017099
v -7.68370304 -0.09176935 -2.00008859
v -6.91709056 -0.00023091 -2.21531979
v 3.31850611 5.74782118 -2.96977692
v 3.39162411 5.67453381 -2.97382305
v 4.25735275 6.17436248 -2.00000000
v 4.14618723 6.11018103 -2.00827273
v 4.03686099 6.04706150 -2.03295406
v 3.93118290 5.98604823 -2.07363562
v 3.83090144 5.92815070 -2.12964430
v 3.73767581 5.87432686 -2.20005343
v 3.65304848 5.82546725 -2.28369806
v 3.57841965 5.78238027 -2.37919423
v 3.51502409 5.74577883 -2.48496193
v 3.46391070 5.71626850 -2.59925117
v 3.42592519 5.69433755 -2.72017099
v 3.40169603 5.68034884 -2.84572071
v 3.76237695 6.70016668 -2.00008859
v 3.33188295 5.77840915 -2.73553512
v -3.39162411 -5.67453381 -2.97382305
v -6.61010249 -0.09996573 -2.97382305
v -6.62017441 -0.10578076 -2.84572071
v -6.64440357 -0.11976947 -2.72017099
v -6.68238909 -0.14170042 -2.59925117
v -6.73350247 -0.17121074 -2.48496193
v -6.79689804 -0.20781219 -2.37919423
v -5.30489012 -3.06277486 -2.34576145
v -6.95615419 -0.29975878 -2.20005343
v -7.04937982 -0.35358261 -2.12964430
v -7.14966128 -0.41148014 -2.07363562
v -7.25533938 -0.47249342 -2.03295406
v -7.36466561 -0.53561295 -2.00827273
v -4.25735275 -6.17436248 -2.00000000
v -3.40169603 -5.68034884 -2.84572071
v -3.42592519 -5.69433755 -2.72017099
v -3.46391070 -5.71626850 -2.59925117
v -3.51502409 -5.74577883 -2.48496193
v -3.57841965 -5.78238027 -2.37919423
v -3.73767581 -5.87432686 -2.20005343
v -3.83090144 -5.92815070 -2.12964430
v -3.93118290 -5.98604823 -2.07363562
v -4.03686099 -6.04706150 -2.03295406
v -4.14618723 -6.11018103 -2.00827273
v 6.61010249 0.09996573 -2.97382305
v 7.36466561 0.53561295 -2.00827273
v 7.25533938 0.47249342 -2.03295406
v 7.14966128 0.41148014 -2.07363562
v 7.04937982 0.35358261 -2.12964430
v 6.95615419 0.29975878 -2.20005343
v 6.87152687 0.25089917 -2.28369806
v 6.79689804 0.20781219 -2.37919423
v 6.73350247 0.17121074 -2.48496193
v 6.68238909 0.14170042 -2.59925117
v 6.64440357 0.11976947 -2.72017099
v 6.62017441 0.10578076 -2.84572071
v -3.73652539 -6.64139719 -2.00189786
v -3.45834531 -5.99049160 -2.21531979
v 6.61010249 -0.09996573 -2.97382305
v 7.47583113 -0.59979439 -2.00000000
v 7.36466561 -0.53561295 -2.00827273
v 7.25533938 -0.47249342 -2.03295406
v 7.14966128 -0.41148014 -2.07363562
v 7.04937982 -0.35358261 -2.12964430
v 6.95615419 -0.29975878 -2.20005343
v 6.79689804 -0.20781219 -2.37919423
v 6.73350247 -0.17121074 -2.48496193
v 6.68238909 -0.14170042 -2.59925117
v 6.64440357 -0.11976947 -2.72017099
v 6.62017441 -0.10578076 -2.84572071
v 7.68370304 0.09176935 -2.00008859
v 3.21847838 -5.77449955 -2.97382305
v -3.21847838 -5.77449955 -2.97382305
v -3.21847838 -5.78612959 -2.84572071
v -3.21847838 -5.81410702 -2.72017099
v -3.21847838 -5.85796891 -2.59925117
v -3.21847838 -5.91698957 -2.48496193
v -3.21847838 -5.99019246 -2.37919423
v 0.00000016 -6.12555698 -2.34576148
v -3.21847838 -6.17408563 -2.20005343
v -3.21847838 -6.28173331 -2.12964430
v -3.21847838 -6.39752837 -2.07363562
v -3.21847838 -6.51955492 -2.03295406
v 3.21847838 -5.78612959 -2.84572071
v 3.21847838 -5.81410702 -2.72017099
v 3.21847838 -5.85796891 -2.59925117
v 3.21847838 -5.91698957 -2.48496193
v 3.21847838 -5.99019246 -2.37919423
v 3.21847838 -6.17408563 -2.20005343
v 3.21847838 -6.28173331 -2.12964430
v 3.21847838 -6.39752837 -2.07363562
v 3.21847838 -6.51955492 -2.03295406
v 3.21847838 -6.64579398 -2.00827273
v 3.39162411 -5.67453381 -2.97382305
v 4.14618723 -6.11018103 -2.00827273
v 4.03686099 -6.04706150 -2.03295406
v 3.93118290 -5.98604823 -2.07363562
v 3.83090144 -5.92815070 -2.12964430
v 3.73767581 -5.87432686 -2.20005343
v 5.30488982 -3.06277523 -2.34576151
v 3.57841965 -5.78238027 -2.37919423
v 3.51502409 -5.74577883 -2.48496193
v 3.46391070 -5.71626850 -2.59925117
v 3.42592519 -5.69433755 -2.72017099
v 3.40169603 -5.68034884 -2.84572071
v 3.31850611 -5.74782118 -2.96977692
v 3.26704309 -6.81188445 -2.00000002
v 4.04960711 -6.47571723 -1.99996073
v 3.45874524 -5.99026070 -2.21531979
v 3.96928114 8.60843009 -0.19650952
v 4.04123838 8.59143678 -0.12995368
v 3.96928114 8.58049038 -0.09799148
v 3.96928114 8.54864240 -0.05734991
v 3.96928114 8.50745119 -0.02621608
v 3.96928114 8.45966219 -0.00666508
v 4.31359267 8.58264315 0.03111942
v 4.53851386 8.59926579 0.17555807
v 4.59835393 8.60156991 0.19650952
v 4.04958599 8.52233147 -0.03140406
v -4.17645597 8.60577522 -0.15868950
v -3.96928114 8.60087243 -0.14543200
v -3.96928114 8.58049038 -0.09799148
v -3.96928114 8.54864240 -0.05734991
v -3.96928114 8.45966219 -0.00666508
v -3.96928114 8.40846055 0.00000000
v -4.59835393 8.60156991 0.19650952
v -4.48788929 8.59330342 0.15750656
v 8.60843009 -3.96928114 -0.19650952
v 8.59950686 -4.10199846 -0.15265455
v 8.58049038 -3.96928114 -0.09799148
v 8.54864240 -3.96928114 -0.05734991
v 8.50745119 -3.96928114 -0.02621608
v 8.45966219 -3.96928114 -0.00666508
v 8.40846055 -3.96928114 0.00000000
v 8.59926579 -4.53851386 0.17555807
v 8.60156991 -4.59835393 0.19650952
v 8.59495401 -4.47980125 0.14492754
v 8.60823217 4.06165908 -0.18838998
v 8.60087243 3.96928114 -0.14543200
v 8.58049038 3.96928114 -0.09799148
v 8.54864240 3.96928114 -0.05734991
v 8.45966219 3.96928114 -0.00666508
v 8.40846055 3.96928114 0.00000000
v 8.60156991 4.59835393 0.19650952
v 8.59330342 4.48788929 0.15750656
v -3.96928114 -8.60843009 -0.19650952
v -4.04123838 -8.59143678 -0.12995368
v -3.96928114 -8.58049038 -0.09799148
v -3.96928114 -8.54864240 -0.05734991
v -3.96928114 -8.50745119 -0.02621608
v -3.96928114 -8.45966219 -0.00666508
v -4.31359267 -8.58264315 0.03111942
v -4.53851386 -8.59926579 0.17555807
v -4.59835393 -8.60156991 0.19650952
v -4.04958599 -8.52233147 -0.03140406
v 4.17645597 -8.60577522 -0.15868950
v 3.96928114 -8.60087243 -0.14543200
v 3.96928114 -8.58049038 -0.09799148
v 3.96928114 -8.54864240 -0.05734991
v 3.96928114 -8.45966219 -0.00666508
v 3.96928114 -8.40846055 0.00000000
v 4.59835393 -8.60156991 0.19650952
v 4.48788929 -8.59330342 0.15750656
v -8.60843009 3.96928114 -0.19650952
v -8.59950686 4.10199846 -0.15265455
v -8.58049038 3.96928114 -0.09799148
v -8.54864240 3.96928114 -0.05734991
v -8.50745119 3.96928114 -0.02621608
v -8.45966219 3.96928114 -0.00666508
v -8.40846055 3.96928114 0.00000000
v -8.59926579 4.53851386 0.17555807
v -8.60156991 4.59835393 0.19650952
v -8.59495401 4.47980125 0.14492754
v -8.60823217 -4.06165908 -0.18838998
v -8.60087243 -3.96928114 -0.14543200
v -8.58049038 -3.96928114 -0.09799148
v -8.54864240 -3.96928114 -0.05734991
v -8.45966219 -3.96928114 -0.00666508
v -8.40846055 -3.96928114 0.00000000
v -8.60156991 -4.59835393 0.19650952
v -8.59330342 -4.48788929 0.15750656
v 5.89500000 -5.59500000 2.97500000
v 5.83647290 -5.60076442 2.97500000
v 5.78019497 -5.61783614 2.97500000
v 5.58940077 -5.68319554 3.12691353
v 5.48149684 -6.76787171 3.19185203
v 7.10500000 -5.89500000 2.97500000
v 7.09923558 -5.83647290 2.97500000
v 7.08216386 -5.78019497 2.97500000
v 7.05444088 -5.72832893 2.97500000
v 7.01713203 -5.68286797 2.97500000
v 6.97167107 -5.64555912 2.97500000
v 6.91980503 -5.61783614 2.97500000
v 6.86352710 -5.60076442 2.97500000
v 5.89128407 -5.50218736 3.15016975
v 6.99679668 -5.57985333 3.12636394
v 5.61783614 -6.91980503 2.97500000
v 5.64555912 -6.97167107 2.97500000
v 5.72832893 -7.05444088 2.97500000
v 5.78019497 -7.08216386 2.97500000
v 5.83647290 -7.09923558 2.97500000
v 5.86112118 -7.10822727 3.01954121
v 5.64823026 -7.01775979 3.07347313
v 5.73376328 -7.14544432 3.14172843
v 6.80500000 -7.10500000 2.97500000
v 6.86352710 -7.09923558 2.97500000
v 6.91980503 -7.08216386 2.97500000
v 6.97167107 -7.05444088 2.97500000
v 7.01713203 -7.01713203 2.97500000
v 7.05444088 -6.97167107 2.97500000
v 7.08216386 -6.91980503 2.97500000
v 7.09923558 -6.86352710 2.97500000
v 7.17143169 -5.88284401 3.10485807
v 8.05308641 -8.55301026 2.97849048
v 5.12193151 -8.61437057 2.21575780
v 8.35590782 -8.40322672 3.15363695
v 8.54181413 -8.15168429 2.97910050
v 8.50871043 -8.24817413 2.97954290
v 8.46037071 -8.33121901 2.97978513
v 8.40908588 -8.39314143 2.97985937
v 8.35979079 -8.43860440 2.97983262
v 8.26670713 -8.49965113 2.97960902
v 8.16322085 -8.53903790 2.97916164
v 8.54614414 -8.11130670 3.01500307
v 8.55301026 -4.64691359 2.97849048
v 7.15572801 -7.08974109 3.18396696
v 8.54383889 -4.55305061 2.97944664
v -6.80500000 -5.59500000 2.97500000
v -6.86352710 -5.60076442 2.97500000
v -6.91980503 -5.61783614 2.97500000
v -7.01713203 -5.68286797 2.97500000
v -7.07545032 -5.66705392 3.09784449
v -7.08216386 -5.78019497 2.97500000
v -7.09923558 -5.83647290 2.97500000
v -6.94773634 -5.60871120 3.03915166
v -7.18311308 -5.99170856 3.11763708
v -7.10500000 -6.80500000 2.97500000
v -5.59500000 -5.89500000 2.97500000
v -5.58940887 -5.61335213 3.15579472
v -5.60076442 -5.83647290 2.97500000
v -5.61783614 -5.78019497 2.97500000
v -5.64555912 -5.72832893 2.97500000
v -5.68286797 -5.68286797 2.97500000
v -5.72832893 -5.64555912 2.97500000
v -5.78019497 -5.61783614 2.97500000
v -5.83647290 -5.60076442 2.97500000
v -5.86112118 -5.59177273 3.01954121
v -7.09923558 -6.86352710 2.97500000
v -7.05444088 -6.97167107 2.97500000
v -7.01713203 -7.01713203 2.97500000
v -6.97167107 -7.05444088 2.97500000
v -6.91980503 -7.08216386 2.97500000
v -6.86352710 -7.09923558 2.97500000
v -6.83887882 -7.10822727 3.01954121
v -7.12832398 -6.96672085 3.12567185
v -5.89500000 -7.10500000 2.97500000
v -5.83647290 -7.09923558 2.97500000
v -5.78019497 -7.08216386 2.97500000
v -5.72832893 -7.05444088 2.97500000
v -5.68286797 -7.01713203 2.97500000
v -5.64555912 -6.97167107 2.97500000
v -5.61783614 -6.91980503 2.97500000
v -5.60076442 -6.86352710 2.97500000
v -5.59178843 -6.83950715 3.01985174
v -8.55301026 -8.05308641 2.97849048
v -8.61437057 -5.12193151 2.21575780
v -8.15168429 -8.54181413 2.97910050
v -8.24817413 -8.50871043 2.97954290
v -8.33121901 -8.46037071 2.97978513
v -8.39314143 -8.40908588 2.97985937
v -8.43860440 -8.35979079 2.97983262
v -8.49965113 -8.26670713 2.97960902
v -8.53903790 -8.16322085 2.97916164
v -7.76814546 -8.59719651 3.05371145
v -8.37634509 -8.41027122 3.14878099
v -6.90494418 -7.27610786 3.20749374
v -5.27005220 -7.48159295 3.47397798
v -4.29343004 -8.40656996 2.97993553
v -4.37178599 -8.47011708 2.98023569
v -4.46254010 -8.51721305 2.98003960
v -4.55305061 -8.54383889 2.97944664
v -7.12256300 6.85778519 3.07578754
v -6.80500000 7.10500000 2.97500000
v -6.86352710 7.09923558 2.97500000
v -6.91980503 7.08216386 2.97500000
v -6.97167107 7.05444088 2.97500000
v -7.01713203 7.01713203 2.97500000
v -7.05444088 6.97167107 2.97500000
v -7.08216386 6.91980503 2.97500000
v -7.09923558 6.86352710 2.97500000
v -7.02138260 7.08453748 3.08644855
v -5.85923337 7.11396980 3.04705963
v -7.10500000 5.89500000 2.97500000
v -5.59500000 6.80500000 2.97500000
v -5.60076442 6.86352710 2.97500000
v -5.61783614 6.91980503 2.97500000
v -5.64555912 6.97167107 2.97500000
v -5.68286797 7.01713203 2.97500000
v -5.72832893 7.05444088 2.97500000
v -5.78019497 7.08216386 2.97500000
v -5.83647290 7.09923558 2.97500000
v -7.09881075 5.64826780 3.13045422
v -7.09923558 5.83647290 2.97500000
v -7.08216386 5.78019497 2.97500000
v -7.05444088 5.72832893 2.97500000
v -7.01713203 5.68286797 2.97500000
v -6.97167107 5.64555912 2.97500000
v -6.91980503 5.61783614 2.97500000
v -5.59149852 5.87396913 3.01796031
v -5.89500000 5.59500000 2.97500000
v -5.83647290 5.60076442 2.97500000
v -5.78019497 5.61783614 2.97500000
v -5.72832893 5.64555912 2.97500000
v -5.68286797 5.68286797 2.97500000
v -5.64555912 5.72832893 2.97500000
v -5.61783614 5.78019497 2.97500000
v -5.60076442 5.83647290 2.97500000
v -8.52581188 4.11016001 0.01511559
v -8.05308641 4.15454740 3.02956800
v -6.45428968 5.43543377 3.16058471
v -4.64691359 4.14698974 2.97849048
v -4.64691359 4.15454740 3.02956800
v -8.25833453 4.28094066 3.17999923
v -8.11775655 7.95528124 3.49044034
v -4.28798708 4.25002576 1.58616983
v -4.15746979 4.54657850 2.97950026
v -4.18835131 4.44910875 2.98009659
v -4.33400922 4.33051251 3.15250490
v -5.58054294 5.62342032 3.16150765
v -4.23376172 8.31333531 3.17172554
v -8.05308641 8.55301026 2.97849048
v -8.54181413 8.15168429 2.97910050
v -8.50871043 8.24817413 2.97954290
v -8.46037071 8.33121901 2.97978513
v -8.40908588 8.39314143 2.97985937
v -8.35979079 8.43860440 2.97983262
v -8.26670713 8.49965113 2.97960902
v -8.16322085 8.53903790 2.97916164
v -5.60742494 7.14657939 3.18090375
v -5.12193151 8.61437057 2.21575780
v 8.55301026 8.05308641 2.97849048
v 8.61437057 5.12193151 2.21575780
v 8.15168429 8.54181413 2.97910050
v 8.24817413 8.50871043 2.97954290
v 8.33121901 8.46037071 2.97978513
v 8.39314143 8.40908588 2.97985937
v 8.43860440 8.35979079 2.97983262
v 8.49965113 8.26670713 2.97960902
v 8.53903790 8.16322085 2.97916164
v 7.51298645 7.72766965 3.58290240
v 5.44582068 7.49649557 3.41218847
v 4.29343004 8.40656996 2.97993553
v 4.37178599 8.47011708 2.98023569
v 4.46254010 8.51721305 2.98003960
v 4.55305061 8.54383889 2.97944664
v -7.08216386 -5.78019497 0.20000000
v -6.97167107 -5.64555912 0.20000000
v -6.91980503 -5.61783614 0.20000000
v -6.86352710 -5.60076442 0.20000000
v -6.83226336 -5.60519737 0.13214196
v -6.96547756 -5.70507618 0.03005016
v -7.07128074 -5.83518955 0.07950269
v -5.89500000 -5.59500000 0.20000000
v -6.80500000 -7.10500000 0.20000000
v -6.86352710 -7.09923558 0.20000000
v -6.91980503 -7.08216386 0.20000000
v -6.97167107 -7.05444088 0.20000000
v -7.05444088 -6.97167107 0.20000000
v -7.08216386 -6.91980503 0.20000000
v -7.09923558 -6.86352710 0.20000000
v -6.90083515 -7.03279107 0.04040917
v -7.00467785 -7.01953611 0.11324777
v -7.04378558 -6.84494065 0.02601547
v -5.83647290 -5.60076442 0.20000000
v -5.78019497 -5.61783614 0.20000000
v -5.72832893 -5.64555912 0.20000000
v -5.68286797 -5.68286797 0.20000000
v -5.64555912 -5.72832893 0.20000000
v -5.61783614 -5.78019497 0.20000000
v -5.60076442 -5.83647290 0.20000000
v -5.60093622 -5.86417826 0.15468290
v -5.72220943 -5.69970866 0.03246540
v -5.59500000 -6.80500000 0.20000000
v -5.60076442 -6.86352710 0.20000000
v -5.61783614 -6.91980503 0.20000000
v -5.64555912 -6.97167107 0.20000000
v -5.68286797 -7.01713203 0.20000000
v -5.72832893 -7.05444088 0.20000000
v -5.78019497 -7.08216386 0.20000000
v -5.83647290 -7.09923558 0.20000000
v -5.86242628 -7.04482408 0.02792784
v -5.66769105 -6.95068053 0.05540739
v -7.10500000 6.80500000 0.20000000
v -7.00406612 6.96962085 0.03181670
v -7.09923558 6.86352710 0.20000000
v -7.08216386 6.91980503 0.20000000
v -7.05444088 6.97167107 0.20000000
v -7.01713203 7.01713203 0.20000000
v -6.97167107 7.05444088 0.20000000
v -6.91980503 7.08216386 0.20000000
v -6.86352710 7.09923558 0.20000000
v -6.83226336 7.09480263 0.13214196
v -5.89500000 7.10500000 0.20000000
v -5.94659723 5.57769169 0.16424510
v -6.86352710 5.60076442 0.20000000
v -6.91980503 5.61783614 0.20000000
v -6.97167107 5.64555912 0.20000000
v -7.01713203 5.68286797 0.20000000
v -7.05444088 5.72832893 0.20000000
v -7.08216386 5.78019497 0.20000000
v -7.09923558 5.83647290 0.20000000
v -6.97653745 5.69964359 0.03240330
v -7.09733632 5.83992081 0.15593742
v -5.83647290 7.09923558 0.20000000
v -5.78019497 7.08216386 0.20000000
v -5.72832893 7.05444088 0.20000000
v -5.68286797 7.01713203 0.20000000
v -5.64555912 6.97167107 0.20000000
v -5.61783614 6.91980503 0.20000000
v -5.60076442 6.86352710 0.20000000
v -5.73037915 7.00406612 0.03181670
v -5.60519737 6.83226336 0.13214196
v -5.59500000 5.89500000 0.20000000
v -5.60076442 5.83647290 0.20000000
v -5.61783614 5.78019497 0.20000000
v -5.64555912 5.72832893 0.20000000
v -5.68286797 5.68286797 0.20000000
v -5.72832893 5.64555912 0.20000000
v -5.78019497 5.61783614 0.20000000
v -5.83647290 5.60076442 0.20000000
v -5.69448903 5.73792301 0.03001385
v 6.12247173 -6.43105326 -0.45987465
v 5.72832893 -5.64555912 0.20000000
v 5.78019497 -5.61783614 0.20000000
v 5.83647290 -5.60076442 0.20000000
v 5.86773664 -5.60519737 0.13214196
v 6.80500000 -5.59500000 0.20000000
v 5.89500000 -7.10500000 0.20000000
v 5.83647290 -7.09923558 0.20000000
v 5.78019497 -7.08216386 0.20000000
v 5.68286797 -7.01713203 0.20000000
v 5.64555912 -6.97167107 0.20000000
v 5.63294380 -6.92089973 0.09727121
v 5.75780612 -7.01528395 0.02802524
v 6.86352710 -5.60076442 0.20000000
v 6.91980503 -5.61783614 0.20000000
v 6.97167107 -5.64555912 0.20000000
v 7.01713203 -5.68286797 0.20000000
v 7.05444088 -5.72832893 0.20000000
v 7.08216386 -5.78019497 0.20000000
v 7.09923558 -5.83647290 0.20000000
v 6.97012463 -5.69555978 0.03253350
v 7.09480263 -5.86773664 0.13214196
v 7.10500000 -6.80500000 0.20000000
v 7.09923558 -6.86352710 0.20000000
v 7.08216386 -6.91980503 0.20000000
v 7.05444088 -6.97167107 0.20000000
v 7.01713203 -7.01713203 0.20000000
v 6.97167107 -7.05444088 0.20000000
v 6.91980503 -7.08216386 0.20000000
v 6.86352710 -7.09923558 0.20000000
v 6.85079030 -7.09412623 0.13476350
v 6.31999313 6.25942763 -0.48944296
v 4.49539956 8.59063071 0.19586761
v 4.39594854 8.55828760 0.19539946
v 4.31461424 8.51296911 0.19514822
v 4.24481993 8.45518007 0.19506447
v 3.89846055 4.59835393 0.00000000
v 3.89846055 8.10164607 -0.00000000
v 3.94966219 8.10164607 0.00666508
v 3.99745119 8.10164607 0.02621608
v 4.03864240 8.10164607 0.05734991
v 4.07049038 8.10164607 0.09799148
v 4.09087243 8.10164607 0.14543200
v 4.12313080 8.08601876 1.58824945
v 3.94966219 4.59835393 0.00666508
v 3.99745119 4.59835393 0.02621608
v 4.03864240 4.59835393 0.05734991
v 4.07049038 4.59835393 0.09799148
v 4.59835393 3.89846055 -0.00000000
v 4.59835393 3.94966219 0.00666508
v 4.24106404 4.08356483 0.04233466
v 6.21586601 4.50543611 3.46407331
v 8.10164607 3.94966219 0.00666508
v 8.10164607 3.99745119 0.02621608
v 8.33527536 3.93859711 0.00000000
v 8.18796604 3.90120909 -0.00002779
v 8.31536788 4.10443581 0.08616496
v 8.59063071 -4.49539956 0.19586761
v 4.43649868 -3.97105057 1.57626173
v 8.46647044 -4.14530786 0.05793333
v 8.22679876 -4.41086175 3.29481564
v 3.89846055 -8.10164607 0.00000000
v 4.08665713 -8.30998833 0.05101167
v 4.43102160 -8.53787082 3.09253071
v 3.92781518 -8.30223883 0.00000000
v 3.90579434 -8.20271354 0.00000000
v -4.49539956 -8.59063071 0.19586761
v -4.39594854 -8.55828760 0.19539946
v -4.31461424 -8.51296911 0.19514822
v -4.24481993 -8.45518007 0.19506447
v -3.89846055 -4.59835393 -0.00000000
v -3.89846055 -8.10164607 -0.00000000
v -3.94966219 -8.10164607 0.00666508
v -3.99745119 -8.10164607 0.02621608
v -4.03864240 -8.10164607 0.05734991
v -4.07049038 -8.10164607 0.09799148
v -4.09087243 -8.10164607 0.14543200
v -4.12313080 -8.08601876 1.58824945
v -3.94966219 -4.59835393 0.00666508
v -3.99745119 -4.59835393 0.02621608
v -4.03864240 -4.59835393 0.05734991
v -4.07049038 -4.59835393 0.09799148
v -4.24715430 -4.07332345 0.03091471
v -4.35142670 -4.31206813 3.17853994
v -8.05409715 -5.03989832 3.48948338
v -8.33527536 -3.93859711 0.00000000
v -8.25908736 -3.91639419 0.00000000
v -8.31536788 -4.10443581 0.08616496
v -8.59063071 4.49539956 0.19586761
v -4.59835393 3.89846055 0.00000000
v -8.18796960 3.90119724 -0.00003126
v -8.10164607 3.94966219 0.00666508
v -8.10164607 3.99745119 0.02621608
v -8.10164607 4.03864240 0.05734991
v -8.10164607 4.07049038 0.09799148
v -8.10164607 4.09087243 0.14543200
v -8.10164607 4.09843009 0.19650952
v -4.59835393 4.09843009 0.19650952
v -4.59835393 3.94966219 0.00666508
v -4.59835393 3.99745119 0.02621608
v -4.59835393 4.03864240 0.05734991
v -4.59835393 4.07049038 0.09799148
v -4.59835393 4.09087243 0.14543200
v -4.17982224 4.16962091 0.04100909
v -4.49539956 4.10936929 0.19586761
v -4.39594854 4.14171240 0.19539946
v -4.31461424 4.18703089 0.19514822
v -3.89846055 8.10164607 0.00000000
v -3.89128962 4.31675407 0.00344665
v -3.94966219 4.59835393 0.00666508
v -3.99745119 4.59835393 0.02621608
v -4.03864240 4.59835393 0.05734991
v -4.07049038 4.59835393 0.09799148
v -3.94966219 8.10164607 0.00666508
v -3.99745119 8.10164607 0.02621608
v -4.03864240 8.10164607 0.05734991
v -4.07049038 8.10164607 0.09799148
v -4.09087243 8.10164607 0.14543200
v -3.92781518 8.30223883 0.00000000
v -3.90579434 8.20271354 0.00000000
v -4.10671504 8.30621438 0.09159430
v -8.54383889 4.55305061 2.97944664
v -4.20837663 8.55137255 -0.00071533
v -4.18263162 -8.37884532 0.19516315
v -4.13600939 -8.29067644 0.19545298
v -4.15746979 -8.15342150 2.97950026
v -4.18835131 -8.25089125 2.98009659
v -4.23353470 -8.33371567 2.98023148
v 4.22748634 -8.54718608 0.01184704
v 8.55883398 4.23631472 0.00998872
v 4.18263162 8.37884532 0.19516315
v 4.13600939 8.29067644 0.19545298
v 4.15746979 8.15342150 2.97950026
v 4.18835131 8.25089125 2.98009659
v 4.23353470 8.33371567 2.98023148
v -4.18263162 4.32115468 0.19516315
v -4.13600939 4.40932356 0.19545298
v -4.10214315 4.51834211 0.17559552
v -4.37178599 4.22988292 2.98023569
v -4.46254010 4.18278695 2.98003960
v -4.55305061 4.15616111 2.97944664
v -8.56155409 -4.22964876 0.00446124
v 2.65715872 -4.48827200 -6.29154912
v -8.33527536 3.93859711 0.00000000
v -3.90295777 -8.18087583 0.00000000
v -3.91639419 -8.25908736 0.00000000
v -3.93859711 -8.33527536 0.00000000
v 8.33527536 -3.93859711 0.00000000
v 3.90295777 8.18087583 0.00000000
v 3.91639419 8.25908736 0.00000000
v 3.93859711 8.33527536 0.00000000
v 1.60459688 -1.67394279 -0.19017978
v -3.58293675 1.04811815 -1.34041259
v 0.08966143 -3.52036152 -1.43680312
v 2.20966005 1.98634134 -0.59859839
v -4.09602502 -8.38079203 0.03663764
v -4.08610870 -8.25002816 0.07795201
v 4.09602502 8.38079203 0.03663764
v 4.08610870 8.25002816 0.07795201
v 6.91709056 0.00023091 -2.21531979
v 3.59293542 6.06289583 -2.13665410
v 5.18078038 0.00407134 -6.27969865
v 2.54152091 -4.43646610 -6.22881099
v -5.08581624 0.06168453 -6.19625907
v -5.12381393 -0.02875356 -6.24681790
v -2.67281407 -4.44535856 -6.28630615
f 14 2 3
f 14 4 5
f 14 5 6
f 14 216 2
f 14 13 216
f 14 3 4
f 14 12 13
f 14 6 7
f 14 11 12
f 14 7 277
f 14 10 11
f 14 9 10
f 8 9 14
f 20 21 216
f 20 216 13
f 19 13 12
f 19 20 13
f 18 12 11
f 18 19 12
f 17 11 10
f 17 18 11
f 16 10 9
f 16 17 10
f 15 9 8
f 15 16 9
f 2 22 23
f 2 216 22
f 3 23 24
f 3 2 23
f 4 24 25
f 4 3 24
f 5 25 26
f 5 4 25
f 6 26 27
f 6 5 26
f 7 27 43
f 7 6 27
f 35 21 20
f 36 34 35
f 36 35 20
f 36 20 19
f 36 19 18
f 36 18 17
f 36 33 34
f 36 32 33
f 36 17 16
f 36 15 30
f 36 16 15
f 36 31 32
f 36 29 28
f 36 28 31
f 44 40 41
f 44 41 42
f 44 39 40
f 44 38 39
f 43 27 26
f 43 26 44
f 44 26 25
f 44 25 24
f 44 37 38
f 44 24 23
f 44 22 37
f 44 23 22
f 50 21 35
f 49 35 34
f 49 50 35
f 48 34 33
f 48 49 34
f 47 33 32
f 47 48 33
f 46 32 31
f 46 47 32
f 45 31 28
f 45 46 31
f 58 45 28
f 22 51 52
f 37 52 53
f 37 22 52
f 38 53 54
f 38 37 53
f 39 54 55
f 39 38 54
f 40 55 56
f 40 39 55
f 41 56 57
f 41 40 56
f 42 41 57
f 65 63 50
f 65 50 49
f 65 62 63
f 65 49 48
f 65 61 62
f 65 60 61
f 65 59 60
f 64 59 65
f 65 48 47
f 65 47 46
f 65 46 45
f 58 65 45
f 70 57 56
f 70 56 55
f 70 68 69
f 70 55 54
f 70 54 53
f 70 66 67
f 71 70 53
f 71 66 70
f 71 52 51
f 71 53 52
f 77 78 50
f 77 50 63
f 76 63 62
f 76 77 63
f 75 62 61
f 75 76 62
f 74 61 60
f 74 75 61
f 73 60 59
f 73 74 60
f 72 59 64
f 72 73 59
f 51 78 79
f 71 51 79
f 66 79 80
f 66 71 79
f 67 80 86
f 67 86 81
f 67 66 80
f 70 67 81
f 68 81 82
f 68 82 83
f 68 70 81
f 69 68 83
f 77 79 78
f 82 84 83
f 86 82 81
f 82 73 72
f 82 72 85
f 86 77 76
f 86 80 79
f 86 79 77
f 86 75 74
f 82 74 73
f 82 86 74
f 86 76 75
f 88 106 87
f 106 103 104
f 106 94 93
f 106 93 101
f 106 101 102
f 106 102 103
f 106 95 94
f 106 97 96
f 106 88 89
f 107 98 97
f 107 97 106
f 107 91 92
f 107 92 100
f 106 96 95
f 107 99 98
f 107 100 99
f 107 89 90
f 107 106 89
f 127 109 108
f 127 108 117
f 127 117 118
f 127 110 109
f 127 112 111
f 125 127 126
f 127 113 112
f 127 123 122
f 127 116 115
f 127 122 116
f 127 118 119
f 127 119 120
f 127 111 110
f 127 114 113
f 127 115 114
f 125 123 127
f 125 124 123
f 148 142 141
f 148 143 142
f 147 134 133
f 147 145 144
f 147 133 145
f 147 135 134
f 147 137 136
f 148 128 129
f 148 129 130
f 146 138 137
f 146 137 147
f 146 148 130
f 146 131 132
f 146 132 140
f 147 143 148
f 147 148 146
f 147 136 135
f 146 139 138
f 146 140 139
f 169 164 163
f 153 169 154
f 169 165 164
f 155 167 166
f 155 157 156
f 169 159 158
f 169 160 159
f 169 151 150
f 169 150 149
f 169 149 162
f 168 165 169
f 168 155 166
f 168 169 155
f 169 158 157
f 169 157 155
f 169 161 160
f 169 162 161
f 169 152 151
f 172 171 170
f 185 172 170
f 175 172 909
f 175 171 172
f 172 185 909
f 175 174 171
f 175 910 173
f 185 177 909
f 185 170 176
f 179 173 910
f 181 175 173
f 181 174 175
f 181 173 179
f 180 171 174
f 180 174 181
f 182 176 170
f 184 185 176
f 184 177 185
f 184 176 182
f 183 909 177
f 183 177 184
f 178 187 910
f 178 202 186
f 188 181 179
f 188 179 189
f 188 190 191
f 188 191 192
f 188 192 193
f 921 184 182
f 921 182 194
f 921 194 195
f 921 195 196
f 921 196 197
f 921 197 198
f 921 198 211
f 230 201 199
f 230 909 200
f 203 186 202
f 205 178 186
f 205 187 178
f 205 186 203
f 204 910 187
f 204 187 205
f 179 204 206
f 189 206 207
f 189 179 206
f 188 189 207
f 190 207 919
f 190 919 208
f 190 188 207
f 191 208 209
f 191 190 208
f 192 209 210
f 192 191 209
f 193 192 210
f 194 180 215
f 194 182 180
f 195 215 214
f 195 194 215
f 196 214 213
f 196 195 214
f 197 213 212
f 197 196 213
f 198 922 211
f 198 212 922
f 198 197 212
f 221 222 183
f 221 920 227
f 221 183 920
f 220 227 226
f 220 221 227
f 219 226 225
f 219 220 226
f 218 225 224
f 218 219 225
f 217 224 223
f 217 218 224
f 216 217 223
f 222 200 909
f 229 230 200
f 229 201 230
f 229 200 222
f 228 199 201
f 228 201 229
f 230 199 241
f 233 232 202
f 233 911 231
f 919 205 203
f 919 203 234
f 919 234 235
f 919 235 236
f 899 236 237
f 899 919 236
f 238 229 222
f 238 220 219
f 238 221 220
f 238 222 221
f 238 218 217
f 238 219 218
f 238 217 216
f 241 240 911
f 241 199 239
f 234 242 270
f 234 270 243
f 234 203 242
f 235 243 244
f 235 234 243
f 236 244 245
f 236 235 244
f 237 245 246
f 237 236 245
f 899 237 246
f 247 899 246
f 253 228 259
f 252 259 258
f 252 253 259
f 251 258 257
f 251 252 258
f 250 257 256
f 250 251 257
f 249 256 255
f 249 250 256
f 248 255 254
f 248 249 255
f 21 248 254
f 253 239 199
f 261 241 239
f 261 240 241
f 261 239 253
f 260 911 240
f 260 240 261
f 269 918 268
f 270 262 263
f 270 263 264
f 270 264 265
f 270 265 266
f 918 266 267
f 918 267 268
f 918 270 266
f 271 261 253
f 271 251 250
f 271 252 251
f 271 253 252
f 271 249 248
f 271 250 249
f 271 248 21
f 264 260 276
f 264 263 260
f 265 276 275
f 265 264 276
f 266 275 274
f 266 265 275
f 267 274 273
f 267 266 274
f 268 273 272
f 268 267 273
f 269 272 21
f 269 268 272
f 279 289 278
f 290 279 280
f 290 289 279
f 290 280 281
f 290 281 282
f 290 282 283
f 290 285 286
f 291 288 277
f 290 283 284
f 290 284 285
f 291 286 287
f 291 290 286
f 304 305 289
f 304 316 305
f 303 315 316
f 303 316 304
f 302 314 315
f 302 315 303
f 301 313 314
f 301 314 302
f 300 312 313
f 300 313 301
f 299 311 312
f 299 312 300
f 298 310 311
f 298 311 299
f 297 309 310
f 297 310 298
f 296 308 309
f 296 309 297
f 295 307 308
f 295 308 296
f 294 306 307
f 294 307 295
f 293 292 306
f 293 306 294
f 318 278 344
f 318 279 278
f 319 280 279
f 319 279 318
f 320 281 280
f 320 280 319
f 321 282 281
f 321 281 320
f 322 283 282
f 322 282 321
f 323 284 283
f 323 283 322
f 324 285 284
f 324 284 323
f 325 286 285
f 325 285 324
f 326 287 286
f 326 286 325
f 327 291 287
f 327 288 291
f 327 287 326
f 345 288 327
f 317 277 288
f 317 288 345
f 316 328 305
f 329 316 315
f 329 328 316
f 329 315 314
f 329 314 313
f 329 313 312
f 329 310 309
f 329 307 306
f 329 306 292
f 44 329 292
f 329 311 310
f 329 312 311
f 329 308 307
f 329 309 308
f 333 344 332
f 917 333 334
f 917 344 333
f 917 334 335
f 917 335 336
f 917 336 337
f 917 339 340
f 345 342 343
f 345 343 331
f 330 345 331
f 917 337 338
f 917 338 339
f 345 340 341
f 345 341 342
f 345 917 340
f 358 359 328
f 358 369 359
f 357 368 369
f 357 369 358
f 356 367 368
f 356 368 357
f 355 366 367
f 355 367 356
f 354 365 366
f 354 366 355
f 353 365 354
f 352 364 353
f 351 363 364
f 351 364 352
f 350 362 363
f 350 363 351
f 349 361 362
f 349 362 350
f 348 360 361
f 348 361 349
f 347 346 360
f 347 360 348
f 371 332 396
f 371 333 332
f 372 334 333
f 372 333 371
f 373 335 334
f 373 334 372
f 374 336 335
f 374 335 373
f 375 337 336
f 375 336 374
f 376 338 337
f 376 337 375
f 377 339 338
f 377 338 376
f 378 340 339
f 378 339 377
f 379 341 340
f 379 340 378
f 380 342 341
f 380 341 379
f 381 343 342
f 381 342 380
f 370 331 343
f 370 343 381
f 369 382 359
f 383 369 368
f 383 382 369
f 383 368 367
f 383 367 366
f 383 366 365
f 383 364 363
f 383 361 360
f 383 360 346
f 70 383 346
f 383 353 364
f 383 365 353
f 383 362 361
f 383 363 362
f 386 396 385
f 916 386 387
f 916 396 386
f 916 387 388
f 916 388 389
f 916 389 390
f 916 391 392
f 916 394 395
f 916 395 384
f 65 916 384
f 916 390 425
f 916 425 391
f 916 392 393
f 916 393 394
f 382 418 432
f 408 417 418
f 408 418 382
f 407 416 417
f 407 417 408
f 406 415 416
f 406 416 407
f 405 414 415
f 405 415 406
f 404 414 405
f 403 413 404
f 402 412 413
f 402 413 403
f 401 411 412
f 401 412 402
f 400 410 411
f 400 411 401
f 399 409 410
f 399 410 400
f 398 397 409
f 398 409 399
f 420 385 433
f 420 386 385
f 421 387 386
f 421 386 420
f 422 388 387
f 422 387 421
f 423 389 388
f 423 388 422
f 424 390 389
f 424 389 423
f 425 390 424
f 426 391 425
f 427 392 391
f 427 391 426
f 428 393 392
f 428 392 427
f 429 394 393
f 429 393 428
f 430 395 394
f 430 394 429
f 419 384 395
f 419 395 430
f 434 418 417
f 434 433 432
f 434 432 418
f 434 417 416
f 434 416 415
f 434 415 414
f 434 413 412
f 434 410 409
f 434 409 397
f 431 434 397
f 434 404 413
f 434 414 404
f 434 411 410
f 434 412 411
f 277 8 14
f 293 277 7
f 384 64 65
f 370 65 58
f 397 83 84
f 431 84 82
f 431 82 85
f 431 397 84
f 419 85 72
f 419 431 85
f 346 57 70
f 398 70 69
f 331 28 29
f 330 29 36
f 330 36 30
f 330 331 29
f 317 30 15
f 317 330 30
f 443 442 443
f 443 441 442
f 444 439 440
f 444 440 914
f 436 437 438
f 436 441 435
f 444 438 439
f 444 436 438
f 441 436 444
f 450 914 440
f 449 440 439
f 449 450 440
f 879 449 439
f 448 439 438
f 448 879 439
f 447 438 437
f 447 448 438
f 446 436 435
f 446 437 436
f 446 447 437
f 445 446 435
f 452 879 451
f 451 452 451
f 445 447 446
f 879 450 449
f 879 448 447
f 879 447 445
f 461 462 460
f 461 460 461
f 462 454 816
f 816 457 458
f 816 458 459
f 816 455 456
f 816 456 457
f 816 454 455
f 468 459 458
f 467 458 457
f 467 468 458
f 886 467 457
f 466 457 456
f 466 886 457
f 465 456 455
f 465 466 456
f 464 454 453
f 464 455 454
f 464 465 455
f 463 464 453
f 470 886 469
f 469 470 469
f 886 468 467
f 886 465 464
f 886 466 465
f 886 464 463
f 479 478 479
f 479 477 478
f 480 475 476
f 480 476 912
f 472 473 474
f 472 477 471
f 480 474 475
f 480 472 474
f 477 472 480
f 486 912 476
f 485 476 475
f 485 486 476
f 885 485 475
f 484 475 474
f 484 885 475
f 483 474 473
f 483 484 474
f 482 472 471
f 482 473 472
f 482 483 473
f 481 482 471
f 488 885 487
f 487 488 487
f 481 483 482
f 885 486 485
f 885 484 483
f 885 483 481
f 497 498 496
f 497 496 497
f 498 490 643
f 643 493 494
f 643 494 495
f 643 491 492
f 643 492 493
f 643 490 491
f 504 495 494
f 503 494 493
f 503 504 494
f 898 503 493
f 502 493 492
f 502 898 493
f 501 492 491
f 501 502 492
f 500 490 489
f 500 491 490
f 500 501 491
f 499 500 489
f 506 898 505
f 505 506 505
f 898 504 503
f 898 501 500
f 898 502 501
f 898 500 499
f 520 510 509
f 520 509 508
f 520 508 507
f 521 519 518
f 521 520 519
f 521 518 517
f 521 517 516
f 521 516 515
f 521 515 514
f 538 521 514
f 538 514 513
f 538 513 512
f 817 521 538
f 529 526 525
f 529 527 526
f 529 525 524
f 529 524 528
f 528 523 522
f 511 528 522
f 511 529 528
f 817 538 551
f 551 530 527
f 551 527 529
f 551 537 536
f 551 538 537
f 551 536 535
f 551 535 534
f 551 534 533
f 551 533 532
f 551 532 531
f 551 531 530
f 820 540 539
f 815 820 511
f 549 543 542
f 541 545 544
f 541 546 545
f 541 820 539
f 541 539 548
f 541 543 549
f 541 544 543
f 541 547 546
f 541 548 547
f 549 550 817
f 541 549 817
f 551 541 817
f 817 815 520
f 550 552 817
f 557 559 558
f 557 561 559
f 841 561 557
f 560 557 556
f 841 557 560
f 560 555 554
f 560 554 553
f 560 553 572
f 560 572 564
f 841 560 564
f 561 841 580
f 561 580 562
f 564 571 570
f 564 572 571
f 564 570 569
f 564 569 568
f 564 568 567
f 564 567 566
f 564 566 565
f 564 565 563
f 601 578 577
f 601 579 578
f 601 577 576
f 601 576 575
f 580 601 575
f 580 575 574
f 580 573 562
f 589 602 564
f 589 564 563
f 602 581 579
f 602 579 601
f 602 588 587
f 602 589 588
f 602 587 586
f 602 586 585
f 602 585 584
f 602 584 583
f 602 583 582
f 602 582 581
f 590 841 591
f 590 600 841
f 599 593 592
f 600 595 594
f 600 596 595
f 600 590 598
f 600 593 599
f 600 594 593
f 600 597 596
f 600 598 597
f 600 599 602
f 601 600 602
f 840 564 602
f 604 603 602
f 599 606 602
f 602 605 604
f 602 606 605
f 616 609 608
f 616 610 609
f 616 611 610
f 616 612 611
f 616 613 612
f 616 614 613
f 616 649 607
f 616 615 614
f 607 615 616
f 616 608 617
f 616 617 664
f 649 616 664
f 607 649 627
f 607 627 618
f 664 620 619
f 664 621 620
f 664 622 621
f 664 623 622
f 664 624 623
f 664 625 624
f 664 626 625
f 617 626 664
f 627 628 618
f 627 629 628
f 627 630 629
f 627 631 630
f 627 632 631
f 627 633 632
f 627 645 633
f 634 654 664
f 634 664 619
f 654 635 645
f 654 636 635
f 654 637 636
f 654 638 637
f 654 639 638
f 654 640 639
f 654 641 640
f 654 642 641
f 634 642 654
f 644 648 643
f 644 646 647
f 644 643 646
f 648 644 647
f 645 648 653
f 653 652 651
f 653 651 655
f 653 655 654
f 649 656 663
f 649 661 660
f 649 660 659
f 649 658 657
f 649 663 662
f 649 662 661
f 649 659 658
f 655 665 656
f 655 656 649
f 664 655 649
f 808 675 788
f 808 667 666
f 675 669 668
f 675 671 670
f 675 672 671
f 675 808 666
f 675 666 674
f 675 670 669
f 675 673 672
f 675 674 673
f 678 677 676
f 675 680 676
f 676 679 678
f 676 680 679
f 686 684 683
f 686 685 684
f 686 683 682
f 686 557 681
f 687 686 681
f 687 698 686
f 561 698 687
f 707 685 686
f 688 685 707
f 698 695 694
f 697 696 698
f 697 694 693
f 697 698 694
f 697 692 691
f 697 691 690
f 696 690 689
f 696 697 690
f 707 705 704
f 707 706 705
f 707 704 703
f 707 703 702
f 707 702 701
f 707 701 700
f 707 700 699
f 707 699 688
f 696 716 698
f 689 716 696
f 717 707 716
f 717 706 707
f 708 706 717
f 716 715 714
f 717 714 713
f 717 716 714
f 717 713 712
f 717 712 711
f 717 711 710
f 717 710 709
f 717 709 708
f 719 726 725
f 719 727 726
f 719 725 724
f 719 724 723
f 719 723 722
f 719 722 721
f 719 721 720
f 719 720 718
f 719 738 737
f 718 738 719
f 746 727 719
f 728 727 746
f 738 736 735
f 737 735 734
f 737 738 735
f 737 734 733
f 737 733 732
f 737 732 731
f 737 731 730
f 737 730 729
f 746 745 744
f 746 747 745
f 746 744 743
f 746 743 742
f 746 742 741
f 746 741 740
f 746 740 739
f 746 739 728
f 737 729 756
f 756 747 746
f 748 747 756
f 729 755 754
f 756 754 753
f 756 729 754
f 756 753 752
f 756 752 751
f 756 751 750
f 756 750 749
f 756 749 748
f 757 760 759
f 757 761 760
f 757 759 758
f 757 758 510
f 757 768 769
f 777 761 757
f 762 761 777
f 768 767 766
f 769 768 766
f 769 765 764
f 769 764 763
f 777 776 775
f 777 778 776
f 777 775 774
f 777 774 773
f 777 773 772
f 777 772 771
f 777 771 770
f 777 770 762
f 769 787 757
f 763 787 769
f 757 778 777
f 779 778 757
f 787 786 785
f 757 785 784
f 757 787 785
f 757 784 783
f 757 783 782
f 757 782 781
f 757 781 780
f 757 780 779
f 788 675 676
f 789 443 442
f 441 789 442
f 790 789 441
f 914 792 791
f 441 791 790
f 441 914 791
f 799 804 808
f 799 808 800
f 798 803 804
f 798 804 799
f 797 802 803
f 797 803 798
f 796 801 802
f 796 802 797
f 795 793 801
f 795 801 796
f 794 793 795
f 807 801 793
f 807 802 801
f 807 804 803
f 807 808 804
f 807 803 802
f 807 810 808
f 806 809 810
f 806 810 807
f 805 812 809
f 805 809 806
f 812 810 809
f 813 812 811
f 813 808 810
f 813 810 812
f 886 811 468
f 886 813 811
f 814 461 460
f 462 814 460
f 816 814 462
f 816 815 817
f 815 819 820
f 908 818 819
f 822 819 818
f 819 821 486
f 819 822 821
f 885 819 486
f 823 479 478
f 477 823 478
f 824 823 477
f 912 826 825
f 477 825 824
f 477 912 825
f 833 838 840
f 833 840 834
f 832 837 838
f 832 838 833
f 831 836 837
f 831 837 832
f 830 835 836
f 830 836 831
f 829 827 835
f 829 835 830
f 828 827 829
f 839 835 827
f 839 836 835
f 839 838 837
f 839 840 838
f 839 837 836
f 839 841 840
f 844 843 842
f 844 839 843
f 844 841 839
f 898 842 504
f 898 844 842
f 845 497 496
f 498 845 496
f 643 845 498
f 853 859 854
f 852 858 859
f 852 859 853
f 851 857 858
f 851 858 852
f 850 856 857
f 850 857 851
f 849 855 856
f 849 856 850
f 848 846 855
f 848 855 849
f 847 846 848
f 861 854 859
f 860 855 846
f 860 856 855
f 860 650 863
f 860 858 857
f 860 859 858
f 860 861 859
f 860 857 856
f 860 863 862
f 860 862 861
f 894 874 655
f 869 873 874
f 869 874 894
f 868 872 873
f 868 873 869
f 867 871 872
f 867 872 868
f 866 864 870
f 866 870 871
f 866 871 867
f 865 864 866
f 876 870 864
f 876 871 870
f 877 873 872
f 877 874 873
f 877 655 874
f 877 875 450
f 877 876 875
f 877 872 871
f 877 871 876
f 879 877 450
f 718 615 607
f 720 614 615
f 720 615 718
f 721 613 614
f 721 614 720
f 722 612 613
f 722 613 721
f 723 611 612
f 723 612 722
f 724 610 611
f 724 611 723
f 725 609 610
f 725 610 724
f 726 608 609
f 726 609 725
f 727 608 726
f 728 626 617
f 739 625 626
f 739 626 728
f 740 624 625
f 740 625 739
f 741 623 624
f 741 624 740
f 742 622 623
f 742 623 741
f 743 621 622
f 743 622 742
f 744 620 621
f 744 621 743
f 745 619 620
f 745 620 744
f 747 619 745
f 748 642 634
f 749 641 642
f 749 642 748
f 750 640 641
f 750 641 749
f 751 639 640
f 751 640 750
f 752 638 639
f 752 639 751
f 753 637 638
f 753 638 752
f 754 636 637
f 754 637 753
f 755 635 636
f 755 636 754
f 729 635 755
f 730 633 645
f 730 645 729
f 731 632 633
f 731 633 730
f 732 631 632
f 732 632 731
f 733 630 631
f 733 631 732
f 734 629 630
f 734 630 733
f 735 628 629
f 735 629 734
f 736 618 628
f 736 628 735
f 738 618 736
f 788 676 808
f 757 510 511
f 758 509 510
f 759 508 509
f 759 509 758
f 760 507 508
f 760 508 759
f 761 507 760
f 762 519 520
f 770 518 519
f 770 519 762
f 771 517 518
f 771 518 770
f 772 516 517
f 772 517 771
f 773 515 516
f 773 516 772
f 774 514 515
f 774 515 773
f 775 513 514
f 775 514 774
f 776 512 513
f 776 513 775
f 778 512 776
f 779 537 538
f 780 536 537
f 780 537 779
f 781 535 536
f 781 536 780
f 782 534 535
f 782 535 781
f 783 533 534
f 783 534 782
f 784 532 533
f 784 533 783
f 785 531 532
f 785 532 784
f 786 530 531
f 786 531 785
f 787 530 786
f 763 526 527
f 764 525 526
f 764 526 763
f 765 524 525
f 765 525 764
f 769 524 765
f 766 523 528
f 766 528 524
f 766 524 769
f 767 522 523
f 767 523 766
f 768 522 767
f 768 511 522
f 757 511 768
f 687 559 561
f 681 558 559
f 681 559 687
f 557 558 681
f 686 556 557
f 682 555 560
f 682 560 556
f 682 556 686
f 683 554 555
f 683 555 682
f 684 553 554
f 684 554 683
f 685 553 684
f 688 571 572
f 699 570 571
f 699 571 688
f 700 569 570
f 700 570 699
f 701 568 569
f 701 569 700
f 702 567 568
f 702 568 701
f 703 566 567
f 703 567 702
f 704 565 566
f 704 566 703
f 705 563 565
f 705 565 704
f 706 563 705
f 708 588 589
f 709 587 588
f 709 588 708
f 710 586 587
f 710 587 709
f 711 585 586
f 711 586 710
f 712 584 585
f 712 585 711
f 713 583 584
f 713 584 712
f 714 582 583
f 714 583 713
f 715 581 582
f 715 582 714
f 716 581 715
f 689 578 579
f 690 577 578
f 690 578 689
f 691 576 577
f 691 577 690
f 692 575 576
f 692 576 691
f 697 575 692
f 693 574 575
f 693 575 697
f 694 573 580
f 694 580 574
f 694 574 693
f 695 562 573
f 695 573 694
f 698 562 695
f 656 155 156
f 663 156 157
f 663 656 156
f 662 157 158
f 662 663 157
f 661 158 159
f 661 662 158
f 660 159 160
f 660 661 159
f 659 160 161
f 659 660 160
f 658 161 162
f 658 659 161
f 657 162 149
f 657 658 162
f 649 657 149
f 845 643 878
f 497 878 649
f 497 845 878
f 879 665 655
f 877 879 655
f 913 834 882
f 881 882 883
f 881 913 882
f 880 883 884
f 880 881 883
f 826 884 603
f 826 880 884
f 825 603 604
f 825 826 603
f 824 604 605
f 824 825 604
f 823 605 606
f 823 824 605
f 479 606 599
f 479 823 606
f 885 540 820
f 819 885 820
f 814 817 552
f 814 816 817
f 461 552 550
f 461 814 552
f 886 667 808
f 813 886 808
f 915 800 889
f 888 889 890
f 888 915 889
f 887 890 891
f 887 888 890
f 792 891 677
f 792 887 891
f 791 677 678
f 791 792 677
f 790 678 679
f 790 791 678
f 789 679 680
f 789 790 679
f 443 680 675
f 443 789 680
f 894 655 651
f 893 651 652
f 893 894 651
f 892 652 653
f 892 893 652
f 650 892 653
f 863 650 895
f 862 895 896
f 862 863 895
f 861 896 897
f 861 862 896
f 854 897 646
f 854 861 897
f 898 591 841
f 844 898 841
f 666 133 134
f 674 134 135
f 674 666 134
f 673 135 136
f 673 674 135
f 672 136 137
f 672 673 136
f 671 137 138
f 671 672 137
f 670 138 139
f 670 671 138
f 669 139 140
f 669 670 139
f 668 140 132
f 668 669 140
f 675 668 132
f 539 93 94
f 548 94 95
f 548 539 94
f 547 95 96
f 547 548 95
f 546 96 97
f 546 547 96
f 545 97 98
f 545 546 97
f 544 98 99
f 544 545 98
f 543 99 100
f 543 544 99
f 542 100 92
f 542 543 100
f 549 542 92
f 590 108 109
f 598 109 110
f 598 590 109
f 597 110 111
f 597 598 110
f 596 111 112
f 596 597 111
f 595 112 113
f 595 596 112
f 594 113 114
f 594 595 113
f 593 114 115
f 593 594 114
f 592 115 116
f 592 593 115
f 599 592 116
f 507 762 520
f 507 761 762
f 530 763 527
f 530 787 763
f 512 779 538
f 512 778 779
f 756 719 737
f 756 746 719
f 618 718 607
f 618 738 718
f 635 729 645
f 619 748 634
f 619 747 748
f 608 728 617
f 608 727 728
f 707 686 698
f 716 707 698
f 553 688 572
f 553 685 688
f 562 698 561
f 581 689 579
f 581 716 689
f 563 708 589
f 563 706 708
f 254 238 216
f 223 22 216
f 921 22 223
f 211 22 921
f 21 254 216
f 51 922 193
f 51 211 922
f 51 22 211
f 50 269 21
f 50 918 269
f 50 247 918
f 210 51 193
f 78 247 50
f 78 899 247
f 78 210 899
f 78 51 210
f 317 15 8
f 317 8 277
f 43 293 7
f 292 293 43
f 346 347 42
f 346 42 57
f 83 398 69
f 83 397 398
f 384 419 72
f 384 72 64
f 28 370 58
f 331 370 28
f 840 841 564
f 600 580 841
f 601 580 600
f 648 627 649
f 645 627 648
f 654 655 664
f 653 654 645
f 646 643 853
f 854 646 853
f 510 520 815
f 511 510 815
f 817 520 521
f 820 529 511
f 820 541 551
f 820 551 529
f 479 599 116
f 477 479 116
f 471 477 116
f 539 540 487
f 93 487 885
f 93 885 481
f 93 539 487
f 116 93 481
f 116 481 471
f 469 133 666
f 469 886 133
f 463 133 886
f 667 469 666
f 92 453 454
f 92 454 462
f 92 462 461
f 549 461 550
f 549 92 461
f 92 133 463
f 92 463 453
f 451 155 656
f 451 879 155
f 445 155 879
f 665 451 656
f 132 435 441
f 132 441 443
f 675 132 443
f 132 155 445
f 132 445 435
f 497 649 149
f 498 497 149
f 490 498 149
f 489 490 149
f 590 591 505
f 108 505 898
f 108 898 499
f 108 590 505
f 149 108 499
f 149 499 489
f 1 865 860
f 1 860 846
f 1 846 847
f 842 900 495
f 842 495 504
f 907 914 450
f 907 450 875
f 843 900 842
f 843 847 900
f 843 1 847
f 906 907 875
f 906 875 876
f 839 1 843
f 905 906 876
f 905 876 864
f 794 905 864
f 911 864 865
f 911 794 864
f 793 794 911
f 807 793 911
f 1 839 827
f 828 1 827
f 911 812 805
f 911 805 807
f 815 911 908
f 818 1 828
f 818 828 901
f 818 908 1
f 822 901 902
f 822 818 901
f 815 812 911
f 821 902 903
f 821 822 902
f 904 812 815
f 904 811 812
f 486 903 912
f 486 821 903
f 459 468 811
f 459 811 904
f 154 169 163
f 289 154 163
f 278 289 163
f 305 154 289
f 328 154 305
f 344 278 163
f 148 344 163
f 148 332 344
f 121 154 328
f 141 332 148
f 359 127 121
f 359 121 328
f 382 127 359
f 432 127 382
f 396 332 141
f 87 385 396
f 87 433 385
f 105 433 87
f 105 432 433
f 105 127 432
f 106 105 87
f 87 396 141
f 202 242 203
f 911 260 263
f 253 199 228
f 222 909 183
f 170 171 180
f 170 180 182
f 204 179 910
f 1 911 865
f 909 230 241
f 910 175 909
f 202 178 910
f 911 202 910
f 911 233 202
f 911 909 241
f 910 908 911
f 910 1 908
f 909 1 910
f 909 911 1
f 452 665 879
f 451 665 452
f 892 650 860
f 866 867 865
f 860 893 892
f 860 868 869
f 860 869 894
f 860 894 893
f 860 867 868
f 860 865 867
f 852 853 643
f 848 849 847
f 643 495 900
f 643 850 851
f 643 851 852
f 643 849 850
f 643 900 847
f 643 847 849
f 506 591 898
f 505 591 506
f 880 826 912
f 833 834 913
f 829 830 901
f 828 829 901
f 912 881 880
f 912 477 480
f 913 831 832
f 913 832 833
f 913 881 912
f 913 830 831
f 913 902 901
f 913 903 902
f 913 912 903
f 913 901 830
f 488 540 885
f 487 540 488
f 819 815 908
f 816 459 904
f 816 904 815
f 470 667 886
f 469 667 470
f 805 806 807
f 887 792 914
f 799 800 915
f 795 796 905
f 794 795 905
f 914 888 887
f 914 441 444
f 915 797 798
f 915 798 799
f 915 888 914
f 915 796 797
f 915 906 905
f 915 907 906
f 915 914 907
f 915 905 796
f 889 800 808
f 677 891 676
f 676 890 889
f 676 889 808
f 676 891 890
f 897 647 646
f 653 895 650
f 653 897 896
f 653 648 647
f 653 647 897
f 653 896 895
f 878 648 649
f 648 878 643
f 882 834 840
f 603 884 602
f 602 883 882
f 602 882 840
f 602 884 883
f 292 43 44
f 347 44 42
f 420 433 434
f 421 420 434
f 422 421 434
f 423 422 434
f 424 423 434
f 427 426 434
f 430 429 434
f 419 434 431
f 419 430 434
f 434 425 424
f 434 426 425
f 434 428 427
f 434 429 428
f 371 396 916
f 372 371 916
f 373 372 916
f 374 373 916
f 375 374 916
f 378 377 916
f 381 380 916
f 370 916 65
f 370 381 916
f 916 376 375
f 916 377 376
f 916 379 378
f 916 380 379
f 408 382 383
f 407 408 383
f 406 407 383
f 405 406 383
f 402 403 383
f 399 400 383
f 398 383 70
f 398 399 383
f 383 403 404
f 383 404 405
f 383 400 401
f 383 401 402
f 318 344 917
f 319 318 917
f 320 319 917
f 321 320 917
f 322 321 917
f 325 324 917
f 317 345 330
f 917 323 322
f 917 324 323
f 917 326 325
f 917 327 326
f 917 345 327
f 358 328 329
f 357 358 329
f 356 357 329
f 355 356 329
f 354 355 329
f 351 352 329
f 348 349 329
f 347 329 44
f 347 348 329
f 329 352 353
f 329 353 354
f 329 349 350
f 329 350 351
f 304 289 290
f 303 304 290
f 302 303 290
f 301 302 290
f 300 301 290
f 297 298 290
f 294 295 291
f 293 291 277
f 293 294 291
f 290 298 299
f 290 299 300
f 291 297 290
f 291 295 296
f 291 296 297
f 271 274 275
f 271 275 276
f 271 276 260
f 271 260 261
f 271 272 273
f 271 273 274
f 271 21 272
f 270 244 243
f 270 242 262
f 918 245 244
f 918 246 245
f 918 247 246
f 918 244 270
f 263 231 911
f 262 233 231
f 262 232 233
f 262 231 263
f 242 202 232
f 242 232 262
f 238 254 255
f 238 257 258
f 238 258 259
f 238 259 228
f 238 228 229
f 238 255 256
f 238 256 257
f 899 210 209
f 919 204 205
f 919 206 204
f 919 207 206
f 919 209 208
f 919 899 209
f 921 223 224
f 920 226 227
f 920 183 184
f 920 184 921
f 921 224 225
f 921 225 226
f 921 226 920
f 188 213 214
f 188 214 215
f 188 215 180
f 188 180 181
f 922 212 213
f 922 213 188
f 922 188 193
f 128 163 164
f 128 148 163
f 129 164 165
f 129 128 164
f 130 165 168
f 130 168 166
f 130 129 165
f 146 130 166
f 131 166 167
f 131 146 166
f 132 167 155
f 132 131 167
f 153 127 120
f 153 121 127
f 153 154 121
f 169 153 120
f 152 120 119
f 152 169 120
f 151 119 118
f 151 152 119
f 150 118 117
f 150 151 118
f 149 117 108
f 149 150 117
f 88 141 142
f 88 87 141
f 89 142 143
f 89 88 142
f 90 143 147
f 90 147 144
f 90 89 143
f 107 90 144
f 91 144 145
f 91 107 144
f 92 145 133
f 92 91 145
f 126 106 104
f 126 105 106
f 126 127 105
f 125 126 104
f 124 104 103
f 124 125 104
f 123 103 102
f 123 124 103
f 122 102 101
f 122 123 102
f 116 101 93
f 116 122 101

