# https://github.com/mikedh/trimesh
v -16.59642196 23.71072245 -4.52500000
v -16.85576988 23.38912344 -4.52500000
v -17.15735178 23.10674846 -4.52500000
v -17.49529770 22.86909362 -4.52500000
v -17.86302992 22.68078460 -4.52500000
v -18.25339095 22.54548663 -4.52500000
v -18.65878284 22.46583312 -4.52500000
v -19.07131512 22.44337444 -4.52500000
v -19.48295830 22.47854772 -4.52500000
v -19.88570023 22.57066836 -4.52500000
v -20.27170198 22.71794333 -4.52500000
v -20.63345048 22.91750609 -4.52500000
v -20.96390470 23.16547238 -4.52500000
v -21.25663272 23.45701582 -4.52500000
v -21.50593693 23.78646184 -4.52500000
v -21.70696491 24.14739816 -4.52500000
v -21.85580386 24.53279955 -4.52500000
v -21.94955682 24.93516463 -4.52500000
v -21.98639899 25.34666181 -4.52500000
v -21.96561327 25.75928176 -4.52500000
v -21.88760424 26.16499331 -4.52500000
v -21.75389025 26.55589974 -4.52500000
v -21.56707390 26.92439251 -4.52500000
v -21.33079135 27.26329933 -4.52500000
v -21.04964158 27.56602375 -4.52500000
v -20.72909683 27.82667359 -4.52500000
v -20.37539616 28.04017560 -4.52500000
v -19.99542395 28.20237420 -4.52500000
v -19.59657592 28.31011238 -4.52500000
v -19.18661519 28.36129315 -4.52500000
v -18.77352118 28.35492032 -4.52500000
v -18.36533430 28.29111794 -4.52500000
v -17.96999944 28.17112785 -4.52500000
v -17.59521135 27.99728551 -4.52500000
v -17.24826485 27.77297458 -4.52500000
v -16.93591286 27.50256100 -4.52500000
v -16.66423495 27.19130808 -4.52500000
v -16.43851902 26.84527398 -4.52500000
v -16.26315839 26.47119389 -4.52500000
v -16.14156624 26.07634883 -4.52500000
v -16.07610923 25.66842402 -4.52500000
v -16.06806140 25.25535925 -4.52500000
v -16.11757940 24.84519436 -4.52500000
v -16.22369941 24.44591273 -4.52500000
v -16.38435593 24.06528594 -4.52500000
v -16.79111052 25.80302705 -4.52500000
v -18.62695595 23.16982148 -4.52500000
v -19.42431608 27.63887248 -4.52500000
v -21.26016151 25.00566691 -4.52500000
v -19.42431608 27.63887248 5.00000000
v -16.79111052 25.80302705 5.00000000
v -18.62695595 23.16982148 5.00000000
v -21.26016151 25.00566691 5.00000000
v -16.59642196 23.71072245 5.00000000
v -16.38435593 24.06528594 5.00000000
v -16.22369941 24.44591273 5.00000000
v -16.11757940 24.84519436 5.00000000
v -16.06806140 25.25535925 5.00000000
v -16.07610923 25.66842402 5.00000000
v -16.14156624 26.07634883 5.00000000
v -16.26315839 26.47119389 5.00000000
v -16.43851902 26.84527398 5.00000000
v -16.66423495 27.19130808 5.00000000
v -16.93591286 27.50256100 5.00000000
v -17.24826485 27.77297458 5.00000000
v -17.59521135 27.99728551 5.00000000
v -17.96999944 28.17112785 5.00000000
v -18.36533430 28.29111794 5.00000000
v -18.77352118 28.35492032 5.00000000
v -19.18661519 28.36129315 5.00000000
v -19.59657592 28.31011238 5.00000000
v -19.99542395 28.20237420 5.00000000
v -20.37539616 28.04017560 5.00000000
v -20.72909683 27.82667359 5.00000000
v -21.04964158 27.56602375 5.00000000
v -21.33079135 27.26329933 5.00000000
v -21.56707390 26.92439251 5.00000000
v -21.75389025 26.55589974 5.00000000
v -21.88760424 26.16499331 5.00000000
v -21.96561327 25.75928176 5.00000000
v -21.98639899 25.34666181 5.00000000
v -21.94955682 24.93516463 5.00000000
v -21.85580386 24.53279955 5.00000000
v -21.70696491 24.14739816 5.00000000
v -21.50593693 23.78646184 5.00000000
v -21.25663272 23.45701582 5.00000000
v -20.96390470 23.16547238 5.00000000
v -20.63345048 22.91750609 5.00000000
v -20.27170198 22.71794333 5.00000000
v -19.88570023 22.57066836 5.00000000
v -19.48295830 22.47854772 5.00000000
v -19.07131512 22.44337444 5.00000000
v -18.65878284 22.46583312 5.00000000
v -18.25339095 22.54548663 5.00000000
v -17.86302992 22.68078460 5.00000000
v -17.49529770 22.86909362 5.00000000
v -17.15735178 23.10674846 5.00000000
v -16.85576988 23.38912344 5.00000000
v -11.79733682 27.02764360 3.41250000
v -11.79733682 27.02764360 -2.93750000
v -12.25023488 27.19568998 -2.93750000
v -12.67349637 27.29477198 -2.93750000
v -12.98880435 27.32668370 -2.93750000
v -13.13557384 27.32624244 -2.93750000
v -13.25371044 27.31512147 -2.93750000
v -13.36655903 27.28494875 -2.93750000
v -13.55013686 27.21924453 -2.93750000
v -13.65546987 27.18980034 -2.93750000
v -13.79155483 27.16673875 -2.93750000
v -13.90647643 27.16194368 -2.93750000
v -14.02416034 27.17346359 -2.93750000
v -14.12963553 27.20107398 -2.93750000
v -14.22300910 27.24312778 -2.93750000
v -14.30404989 27.29815429 -2.93750000
v -14.37206580 27.36461145 -2.93750000
v -14.42612005 27.44074243 -2.93750000
v -14.50186738 27.59730185 -2.93750000
v -14.52898106 27.67016569 -2.93750000
v -14.54388941 27.73845312 -2.93750000
v -14.54951201 27.83183910 -2.93750000
v -14.53880397 27.92657002 -2.93750000
v -14.51173632 28.02099023 -2.93750000
v -14.46826580 28.11390678 -2.93750000
v -14.40185743 28.21260263 -2.93750000
v -14.32411358 28.29891467 -2.93750000
v -14.21215088 28.39445314 -2.93750000
v -13.90137938 28.59029743 -2.93750000
v -13.83777305 28.64257836 -2.93750000
v -13.77026714 28.71383874 -2.93750000
v -13.59395086 28.94308741 -2.93750000
v -13.39921294 29.28151726 -2.93750000
v -13.26249249 29.59629391 -2.93750000
v -13.15412768 29.92195596 -2.93750000
v -13.15412768 29.92195596 3.41250000
v -13.31466780 29.46634307 3.41250000
v -13.50925920 29.07762504 3.41250000
v -13.68642541 28.81485210 3.41250000
v -13.78064952 28.70232079 3.41250000
v -13.86476676 28.61862955 3.41250000
v -13.96014539 28.55118986 3.41250000
v -14.12807894 28.45211317 3.41250000
v -14.21809006 28.38998427 3.41250000
v -14.32286652 28.30013525 3.41250000
v -14.40006483 28.21486868 3.41250000
v -14.46648970 28.11704257 3.41250000
v -14.51273708 28.01830793 3.41250000
v -14.54014149 27.91963603 3.41250000
v -14.54968552 27.82214533 3.41250000
v -14.54211174 27.72735420 3.41250000
v -14.51817128 27.63710653 3.41250000
v -14.44628649 27.47873644 3.41250000
v -14.40762406 27.41128639 3.41250000
v -14.36467182 27.35614534 3.41250000
v -14.29648783 27.29208677 3.41250000
v -14.21682374 27.23972035 3.41250000
v -14.12693363 27.20012740 3.41250000
v -14.02770678 27.17410429 3.41250000
v -13.90936491 27.16201534 3.41250000
v -13.79329074 27.16656098 3.41250000
v -13.64823575 27.19150683 3.41250000
v -13.29890799 27.30510275 3.41250000
v -13.21803509 27.32055055 3.41250000
v -13.12007927 27.32685504 3.41250000
v -12.83108321 27.31573470 3.41250000
v -12.44638175 27.24893347 3.41250000
v -12.11697358 27.15266780 3.41250000
v -13.57739360 30.42431269 3.41250000
v -13.57739360 30.42431269 -2.93750000
v -14.05363801 30.34339609 -2.93750000
v -14.46973421 30.21757288 -2.93750000
v -14.75875479 30.08755525 -2.93750000
v -14.88564027 30.01378836 -2.93750000
v -14.98238908 29.94508901 -2.93750000
v -15.06503247 29.86253438 -2.93750000
v -15.19116343 29.71384394 -2.93750000
v -15.26766239 29.63567802 -2.93750000
v -15.37398463 29.54766362 -2.93750000
v -15.47111212 29.48605016 -2.93750000
v -15.57878933 29.43718474 -2.93750000
v -15.68393872 29.40835844 -2.93750000
v -15.78582950 29.39809132 -2.93750000
v -15.88352614 29.40522528 -2.93750000
v -15.97565823 29.42877091 -2.93750000
v -16.06053607 29.46767515 -2.93750000
v -16.20441489 29.56538592 -2.93750000
v -16.26432795 29.61493102 -2.93750000
v -16.31138267 29.66661549 -2.93750000
v -16.36294498 29.74467882 -2.93750000
v -16.40103700 29.83207223 -2.93750000
v -16.42480583 29.92737636 -2.93750000
v -16.43361753 30.02957970 -2.93750000
v -16.42545413 30.14825700 -2.93750000
v -16.40128200 30.26187735 -2.93750000
v -16.35208869 30.40059744 -2.93750000
v -16.18087482 30.72558933 -2.93750000
v -16.15193059 30.80266910 -2.93750000
v -16.12909895 30.89813535 -2.93750000
v -16.09102890 31.18482867 -2.93750000
v -16.09159584 31.57528647 -2.93750000
v -16.13058078 31.91625127 -2.93750000
v -16.19956513 32.25246529 -2.93750000
v -16.19956513 32.25246529 3.41250000
v -16.11079051 31.77762289 3.41250000
v -16.08495259 31.34368750 3.41250000
v -16.10699656 31.02753636 3.41250000
v -16.13233138 30.88296933 3.41250000
v -16.16333342 30.76843197 3.41250000
v -16.21221389 30.66233816 3.41250000
v -16.30811026 30.49256847 3.41250000
v -16.35499773 30.39375770 3.41250000
v -16.40081230 30.26355793 3.41250000
v -16.42503472 30.15111576 3.41250000
v -16.43364728 30.03318343 3.41250000
v -16.42433137 29.92455303 3.41250000
v -16.39872833 29.82539846 3.41250000
v -16.35824835 29.73619702 3.41250000
v -16.30429370 29.65789239 3.41250000
v -16.23843682 29.59170584 3.41250000
v -16.09699772 29.49049571 3.41250000
v -16.02979006 29.45141347 3.41250000
v -15.96502179 29.42513604 3.41250000
v -15.87394345 29.40375169 3.41250000
v -15.77876911 29.39823308 3.41250000
v -15.68112552 29.40888964 3.41250000
v -15.58218099 29.43596639 3.41250000
v -15.47364944 29.48466799 3.41250000
v -15.37539908 29.54664171 3.41250000
v -15.26225070 29.64077294 3.41250000
v -15.01652195 29.91381378 3.41250000
v -14.95420787 29.96762841 3.41250000
v -14.87252788 30.02206617 3.41250000
v -14.61668978 30.15693370 3.41250000
v -14.25012793 30.29143287 3.41250000
v -13.91671925 30.37276844 3.41250000
v -20.64893264 32.63264617 3.41250000
v -20.64893264 32.63264617 -2.93750000
v -20.81697901 32.17974811 -2.93750000
v -20.91606102 31.75648663 -2.93750000
v -20.94797274 31.44117865 -2.93750000
v -20.94753147 31.29440915 -2.93750000
v -20.93641050 31.17627255 -2.93750000
v -20.90623779 31.06342396 -2.93750000
v -20.84053357 30.87984613 -2.93750000
v -20.81108938 30.77451313 -2.93750000
v -20.78802779 30.63842816 -2.93750000
v -20.78323271 30.52350656 -2.93750000
v -20.79475262 30.40582266 -2.93750000
v -20.82236301 30.30034746 -2.93750000
v -20.86441682 30.20697389 -2.93750000
v -20.91944332 30.12593311 -2.93750000
v -20.98590048 30.05791719 -2.93750000
v -21.06203147 30.00386295 -2.93750000
v -21.21859089 29.92811561 -2.93750000
v -21.29145473 29.90100193 -2.93750000
v -21.35974215 29.88609358 -2.93750000
v -21.45312813 29.88047098 -2.93750000
v -21.54785906 29.89117903 -2.93750000
v -21.64227927 29.91824668 -2.93750000
v -21.73519581 29.96171720 -2.93750000
v -21.83389166 30.02812556 -2.93750000
v -21.92020371 30.10586941 -2.93750000
v -22.01574218 30.21783211 -2.93750000
v -22.21158647 30.52860362 -2.93750000
v -22.26386739 30.59220994 -2.93750000
v -22.33512778 30.65971585 -2.93750000
v -22.56437645 30.83603213 -2.93750000
v -22.90280629 31.03077005 -2.93750000
v -23.21758294 31.16749050 -2.93750000
v -23.54324500 31.27585532 -2.93750000
v -23.54324500 31.27585532 3.41250000
v -23.08763211 31.11531519 3.41250000
v -22.69891407 30.92072379 3.41250000
v -22.43614114 30.74355758 3.41250000
v -22.32360983 30.64933347 3.41250000
v -22.23991859 30.56521624 3.41250000
v -22.17247889 30.46983760 3.41250000
v -22.07340221 30.30190406 3.41250000
v -22.01127331 30.21189293 3.41250000
v -21.92142428 30.10711647 3.41250000
v -21.83615772 30.02991816 3.41250000
v -21.73833161 29.96349330 3.41250000
v -21.63959696 29.91724591 3.41250000
v -21.54092506 29.88984150 3.41250000
v -21.44343436 29.88029747 3.41250000
v -21.34864324 29.88787126 3.41250000
v -21.25839557 29.91181171 3.41250000
v -21.10002547 29.98369651 3.41250000
v -21.03257543 30.02235893 3.41250000
v -20.97743437 30.06531118 3.41250000
v -20.91337581 30.13349516 3.41250000
v -20.86100938 30.21315925 3.41250000
v -20.82141644 30.30304936 3.41250000
v -20.79539333 30.40227622 3.41250000
v -20.78330438 30.52061809 3.41250000
v -20.78785002 30.63669226 3.41250000
v -20.81279586 30.78174725 3.41250000
v -20.92639179 31.13107501 3.41250000
v -20.94183959 31.21194790 3.41250000
v -20.94814407 31.30990372 3.41250000
v -20.93702374 31.59889978 3.41250000
v -20.87022250 31.98360124 3.41250000
v -20.77395684 32.31300941 3.41250000
v -16.81730253 32.47588602 3.41250000
v -16.81730253 32.47588602 -2.93750000
v -17.18928399 32.16768798 -2.93750000
v -17.48672227 31.85067378 -2.93750000
v -17.67201262 31.59356492 -2.93750000
v -17.74501522 31.46623818 -2.93750000
v -17.79445247 31.35836840 -2.93750000
v -17.82474643 31.24555229 -2.93750000
v -17.85963383 31.05371712 -2.93750000
v -17.88680091 30.94777397 -2.93750000
v -17.93487147 30.81839013 -2.93750000
v -17.98817961 30.71646757 -2.93750000
v -18.05699810 30.62031028 -2.93750000
v -18.13364700 30.54277127 -2.93750000
v -18.21675344 30.48293429 -2.93750000
v -18.30492819 30.44026417 -2.93750000
v -18.39648974 30.41458924 -2.93750000
v -18.48944822 30.40584238 -2.93750000
v -18.66290632 30.41852297 -2.93750000
v -18.73956510 30.43147376 -2.93750000
v -18.80615793 30.45270646 -2.93750000
v -18.88984386 30.49453013 -2.93750000
v -18.96652922 30.55116904 -2.93750000
v -19.03476569 30.62182041 -2.93750000
v -19.09349852 30.70592526 -2.93750000
v -19.14576746 30.81278452 -2.93750000
v -19.18164395 30.92326869 -2.93750000
v -19.20840135 31.06800046 -2.93750000
v -19.22262172 31.43505863 -2.93750000
v -19.23609517 31.51628379 -2.93750000
v -19.26405552 31.61037581 -2.93750000
v -19.37443255 31.87769452 -2.93750000
v -19.57015243 32.21555743 -2.93750000
v -19.77439679 32.49134914 -2.93750000
v -20.00224599 32.74802685 -2.93750000
v -20.00224599 32.74802685 3.41250000
v -19.68794371 32.38118858 3.41250000
v -19.44859972 32.01830846 3.41250000
v -19.30961479 31.73349156 3.41250000
v -19.25927187 31.59562543 3.41250000
v -19.22885175 31.48093215 3.41250000
v -19.21813658 31.36461198 3.41250000
v -19.21630042 31.16963892 3.41250000
v -19.20750078 31.06062255 3.41250000
v -19.18207747 30.92495896 3.41250000
v -19.14683361 30.81546998 3.41250000
v -19.09532615 30.70903131 3.41250000
v -19.03294313 30.61961257 3.41250000
v -18.96119297 30.54654371 3.41250000
v -18.88153556 30.48953299 3.41250000
v -18.79565715 30.44869652 3.41250000
v -18.70553014 30.42430572 3.41250000
v -18.53243522 30.40737473 3.41250000
v -18.45469056 30.40713235 3.41250000
v -18.38546088 30.41675956 3.41250000
v -18.29589254 30.44377934 3.41250000
v -18.21070984 30.48658726 3.41250000
v -18.13147629 30.54463790 3.41250000
v -18.05932619 30.61755932 3.41250000
v -17.98968591 30.71400191 3.41250000
v -17.93558547 30.81679791 3.41250000
v -17.88466171 30.95489214 3.41250000
v -17.80837479 31.31421682 3.41250000
v -17.78131653 31.39197870 3.41250000
v -17.73779846 31.47996317 3.41250000
v -17.58366994 31.72468093 3.41250000
v -17.33346764 32.02444155 3.41250000
v -17.08539505 32.26158456 3.41250000
v -24.47387843 20.38438127 3.41250000
v -24.47387843 20.38438127 -2.93750000
v -23.99763402 20.46529787 -2.93750000
v -23.58153782 20.59112108 -2.93750000
v -23.29251724 20.72113871 -2.93750000
v -23.16563176 20.79490560 -2.93750000
v -23.06888295 20.86360494 -2.93750000
v -22.98623956 20.94615958 -2.93750000
v -22.86010860 21.09485001 -2.93750000
v -22.78360964 21.17301594 -2.93750000
v -22.67728739 21.26103034 -2.93750000
v -22.58015991 21.32264380 -2.93750000
v -22.47248270 21.37150922 -2.93750000
v -22.36733331 21.40033552 -2.93750000
v -22.26544253 21.41060263 -2.93750000
v -22.16774589 21.40346868 -2.93750000
v -22.07561380 21.37992304 -2.93750000
v -21.99073596 21.34101880 -2.93750000
v -21.84685714 21.24330803 -2.93750000
v -21.78694408 21.19376294 -2.93750000
v -21.73988936 21.14207846 -2.93750000
v -21.68832705 21.06401514 -2.93750000
v -21.65023503 20.97662172 -2.93750000
v -21.62646620 20.88131760 -2.93750000
v -21.61765450 20.77911425 -2.93750000
v -21.62581790 20.66043696 -2.93750000
v -21.64999003 20.54681661 -2.93750000
v -21.69918334 20.40809652 -2.93750000
v -21.87039721 20.08310463 -2.93750000
v -21.89934144 20.00602486 -2.93750000
v -21.92217308 19.91055860 -2.93750000
v -21.96024313 19.62386529 -2.93750000
v -21.95967619 19.23340749 -2.93750000
v -21.92069125 18.89244269 -2.93750000
v -21.85170690 18.55622866 -2.93750000
v -21.85170690 18.55622866 3.41250000
v -21.94048152 19.03107106 3.41250000
v -21.96631944 19.46500646 3.41250000
v -21.94427547 19.78115760 3.41250000
v -21.91894065 19.92572463 3.41250000
v -21.88793861 20.04026199 3.41250000
v -21.83905813 20.14635579 3.41250000
v -21.74316177 20.31612549 3.41250000
v -21.69627429 20.41493626 3.41250000
v -21.65045973 20.54513603 3.41250000
v -21.62623731 20.65757820 3.41250000
v -21.61762475 20.77551053 3.41250000
v -21.62694066 20.88414093 3.41250000
v -21.65254370 20.98329550 3.41250000
v -21.69302368 21.07249694 3.41250000
v -21.74697833 21.15080157 3.41250000
v -21.81283521 21.21698812 3.41250000
v -21.95427431 21.31819825 3.41250000
v -22.02148197 21.35728049 3.41250000
v -22.08625024 21.38355792 3.41250000
v -22.17732858 21.40494227 3.41250000
v -22.27250292 21.41046088 3.41250000
v -22.37014651 21.39980432 3.41250000
v -22.46909104 21.37272757 3.41250000
v -22.57762259 21.32402597 3.41250000
v -22.67587295 21.26205225 3.41250000
v -22.78902133 21.16792101 3.41250000
v -23.03475008 20.89488018 3.41250000
v -23.09706416 20.84106554 3.41250000
v -23.17874415 20.78662779 3.41250000
v -23.43458225 20.65176025 3.41250000
v -23.80114410 20.51726109 3.41250000
v -24.13455278 20.43592552 3.41250000
v -26.25393521 23.78105036 3.41250000
v -26.25393521 23.78105036 -2.93750000
v -25.80103715 23.61300398 -2.93750000
v -25.37777566 23.51392198 -2.93750000
v -25.06246768 23.48201025 -2.93750000
v -24.91569819 23.48245152 -2.93750000
v -24.79756159 23.49357249 -2.93750000
v -24.68471300 23.52374521 -2.93750000
v -24.50113517 23.58944942 -2.93750000
v -24.39580216 23.61889362 -2.93750000
v -24.25971719 23.64195520 -2.93750000
v -24.14479560 23.64675028 -2.93750000
v -24.02711169 23.63523037 -2.93750000
v -23.92163650 23.60761998 -2.93750000
v -23.82826293 23.56556618 -2.93750000
v -23.74722214 23.51053967 -2.93750000
v -23.67920623 23.44408251 -2.93750000
v -23.62515198 23.36795153 -2.93750000
v -23.54940465 23.21139211 -2.93750000
v -23.52229097 23.13852827 -2.93750000
v -23.50738262 23.07024084 -2.93750000
v -23.50176001 22.97685486 -2.93750000
v -23.51246806 22.88212393 -2.93750000
v -23.53953571 22.78770373 -2.93750000
v -23.58300623 22.69478718 -2.93750000
v -23.64941460 22.59609133 -2.93750000
v -23.72715845 22.50977929 -2.93750000
v -23.83912115 22.41424082 -2.93750000
v -24.14989265 22.21839652 -2.93750000
v -24.21349898 22.16611560 -2.93750000
v -24.28100488 22.09485522 -2.93750000
v -24.45732117 21.86560655 -2.93750000
v -24.65205909 21.52717670 -2.93750000
v -24.78877954 21.21240005 -2.93750000
v -24.89714435 20.88673799 -2.93750000
v -24.89714435 20.88673799 3.41250000
v -24.73660423 21.34235089 3.41250000
v -24.54201283 21.73106892 3.41250000
v -24.36484662 21.99384186 3.41250000
v -24.27062251 22.10637317 3.41250000
v -24.18650527 22.19006440 3.41250000
v -24.09112663 22.25750410 3.41250000
v -23.92319309 22.35658079 3.41250000
v -23.83318197 22.41870969 3.41250000
v -23.72840551 22.50855871 3.41250000
v -23.65120720 22.59382528 3.41250000
v -23.58478233 22.69165139 3.41250000
v -23.53853495 22.79038603 3.41250000
v -23.51113054 22.88905793 3.41250000
v -23.50158651 22.98654863 3.41250000
v -23.50916029 23.08133975 3.41250000
v -23.53310075 23.17158743 3.41250000
v -23.60498554 23.32995752 3.41250000
v -23.64364797 23.39740756 3.41250000
v -23.68660021 23.45254862 3.41250000
v -23.75478420 23.51660718 3.41250000
v -23.83444829 23.56897361 3.41250000
v -23.92433840 23.60856655 3.41250000
v -24.02356525 23.63458967 3.41250000
v -24.14190712 23.64667861 3.41250000
v -24.25798129 23.64213298 3.41250000
v -24.40303628 23.61718713 3.41250000
v -24.75236404 23.50359120 3.41250000
v -24.83323694 23.48814340 3.41250000
v -24.93119276 23.48183892 3.41250000
v -25.22018882 23.49295926 3.41250000
v -25.60489028 23.55976049 3.41250000
v -25.93429845 23.65602616 3.41250000
v -26.09717505 27.61268046 3.41250000
v -26.09717505 27.61268046 -2.93750000
v -25.78897701 27.24069900 -2.93750000
v -25.47196282 26.94326073 -2.93750000
v -25.21485396 26.75797038 -2.93750000
v -25.08752722 26.68496778 -2.93750000
v -24.97965743 26.63553052 -2.93750000
v -24.86684133 26.60523656 -2.93750000
v -24.67500616 26.57034917 -2.93750000
v -24.56906300 26.54318208 -2.93750000
v -24.43967917 26.49511152 -2.93750000
v -24.33775661 26.44180338 -2.93750000
v -24.24159931 26.37298489 -2.93750000
v -24.16406031 26.29633600 -2.93750000
v -24.10422333 26.21322955 -2.93750000
v -24.06155320 26.12505480 -2.93750000
v -24.03587827 26.03349326 -2.93750000
v -24.02713141 25.94053477 -2.93750000
v -24.03981201 25.76707667 -2.93750000
v -24.05276279 25.69041789 -2.93750000
v -24.07399550 25.62382507 -2.93750000
v -24.11581917 25.54013914 -2.93750000
v -24.17245807 25.46345377 -2.93750000
v -24.24310945 25.39521730 -2.93750000
v -24.32721430 25.33648447 -2.93750000
v -24.43407355 25.28421554 -2.93750000
v -24.54455772 25.24833904 -2.93750000
v -24.68928950 25.22158165 -2.93750000
v -25.05634767 25.20736127 -2.93750000
v -25.13757282 25.19388782 -2.93750000
v -25.23166484 25.16592747 -2.93750000
v -25.49898356 25.05555044 -2.93750000
v -25.83684647 24.85983056 -2.93750000
v -26.11263818 24.65558621 -2.93750000
v -26.36931589 24.42773700 -2.93750000
v -26.36931589 24.42773700 3.41250000
v -26.00247762 24.74203928 3.41250000
v -25.63959750 24.98138327 3.41250000
v -25.35478060 25.12036821 3.41250000
v -25.21691447 25.17071112 3.41250000
v -25.10222119 25.20113124 3.41250000
v -24.98590101 25.21184641 3.41250000
v -24.79092796 25.21368257 3.41250000
v -24.68191159 25.22248221 3.41250000
v -24.54624800 25.24790552 3.41250000
v -24.43675902 25.28314938 3.41250000
v -24.33032034 25.33465684 3.41250000
v -24.24090161 25.39703986 3.41250000
v -24.16783275 25.46879003 3.41250000
v -24.11082202 25.54844744 3.41250000
v -24.06998555 25.63432585 3.41250000
v -24.04559476 25.72445285 3.41250000
v -24.02866377 25.89754778 3.41250000
v -24.02842139 25.97529244 3.41250000
v -24.03804860 26.04452212 3.41250000
v -24.06506838 26.13409045 3.41250000
v -24.10787629 26.21927315 3.41250000
v -24.16592694 26.29850670 3.41250000
v -24.23884836 26.37065681 3.41250000
v -24.33529095 26.44029708 3.41250000
v -24.43808695 26.49439753 3.41250000
v -24.57618118 26.54532128 3.41250000
v -24.93550585 26.62160821 3.41250000
v -25.01326774 26.64866647 3.41250000
v -25.10125221 26.69218453 3.41250000
v -25.34596997 26.84631306 3.41250000
v -25.64573059 27.09651535 3.41250000
v -25.88287360 27.34458795 3.41250000
v -24.04560172 30.85258939 3.41250000
v -24.04560172 30.85258939 -2.93750000
v -23.96468512 30.37634498 -2.93750000
v -23.83886192 29.96024878 -2.93750000
v -23.70884429 29.67122820 -2.93750000
v -23.63507739 29.54434272 -2.93750000
v -23.56637805 29.44759391 -2.93750000
v -23.48382342 29.36495052 -2.93750000
v -23.33513298 29.23881957 -2.93750000
v -23.25696706 29.16232060 -2.93750000
v -23.16895265 29.05599836 -2.93750000
v -23.10733920 28.95887088 -2.93750000
v -23.05847378 28.85119367 -2.93750000
v -23.02964748 28.74604427 -2.93750000
v -23.01938036 28.64415349 -2.93750000
v -23.02651432 28.54645686 -2.93750000
v -23.05005995 28.45432477 -2.93750000
v -23.08896419 28.36944693 -2.93750000
v -23.18667496 28.22556810 -2.93750000
v -23.23622006 28.16565504 -2.93750000
v -23.28790453 28.11860032 -2.93750000
v -23.36596786 28.06703801 -2.93750000
v -23.45336127 28.02894599 -2.93750000
v -23.54866539 28.00517716 -2.93750000
v -23.65086874 27.99636546 -2.93750000
v -23.76954604 28.00452887 -2.93750000
v -23.88316639 28.02870099 -2.93750000
v -24.02188648 28.07789430 -2.93750000
v -24.34687836 28.24910818 -2.93750000
v -24.42395814 28.27805241 -2.93750000
v -24.51942439 28.30088404 -2.93750000
v -24.80611770 28.33895409 -2.93750000
v -25.19657550 28.33838715 -2.93750000
v -25.53754031 28.29940221 -2.93750000
v -25.87375433 28.23041787 -2.93750000
v -25.87375433 28.23041787 3.41250000
v -25.39891193 28.31919249 3.41250000
v -24.96497653 28.34503040 3.41250000
v -24.64882539 28.32298644 3.41250000
v -24.50425837 28.29765162 3.41250000
v -24.38972101 28.26664958 3.41250000
v -24.28362720 28.21776910 3.41250000
v -24.11385750 28.12187273 3.41250000
v -24.01504673 28.07498526 3.41250000
v -23.88484696 28.02917069 3.41250000
v -23.77240480 28.00494828 3.41250000
v -23.65447247 27.99633571 3.41250000
v -23.54584207 28.00565162 3.41250000
v -23.44668749 28.03125466 3.41250000
v -23.35748605 28.07173464 3.41250000
v -23.27918142 28.12568929 3.41250000
v -23.21299488 28.19154617 3.41250000
v -23.11178475 28.33298527 3.41250000
v -23.07270251 28.40019294 3.41250000
v -23.04642508 28.46496120 3.41250000
v -23.02504072 28.55603954 3.41250000
v -23.01952212 28.65121389 3.41250000
v -23.03017867 28.74885748 3.41250000
v -23.05725542 28.84780201 3.41250000
v -23.10595702 28.95633355 3.41250000
v -23.16793075 29.05458391 3.41250000
v -23.26206198 29.16773229 3.41250000
v -23.53510282 29.41346104 3.41250000
v -23.58891745 29.47577512 3.41250000
v -23.64335521 29.55745511 3.41250000
v -23.77822274 29.81329321 3.41250000
v -23.91272190 30.17985506 3.41250000
v -23.99405748 30.51326374 3.41250000
v -17.40233939 18.17604779 3.41250000
v -17.40233939 18.17604779 -2.93750000
v -17.23429302 18.62894585 -2.93750000
v -17.13521101 19.05220733 -2.93750000
v -17.10329929 19.36751531 -2.93750000
v -17.10374056 19.51428480 -2.93750000
v -17.11486153 19.63242140 -2.93750000
v -17.14503424 19.74527000 -2.93750000
v -17.21073846 19.92884783 -2.93750000
v -17.24018265 20.03418083 -2.93750000
v -17.26324424 20.17026580 -2.93750000
v -17.26803932 20.28518740 -2.93750000
v -17.25651941 20.40287130 -2.93750000
v -17.22890902 20.50834650 -2.93750000
v -17.18685521 20.60172006 -2.93750000
v -17.13182871 20.68276085 -2.93750000
v -17.06537155 20.75077676 -2.93750000
v -16.98924056 20.80483101 -2.93750000
v -16.83268114 20.88057834 -2.93750000
v -16.75981730 20.90769203 -2.93750000
v -16.69152987 20.92260037 -2.93750000
v -16.59814389 20.92822298 -2.93750000
v -16.50341297 20.91751493 -2.93750000
v -16.40899276 20.89044728 -2.93750000
v -16.31607622 20.84697676 -2.93750000
v -16.21738037 20.78056840 -2.93750000
v -16.13106832 20.70282455 -2.93750000
v -16.03552985 20.59086185 -2.93750000
v -15.83968556 20.28009034 -2.93750000
v -15.78740464 20.21648401 -2.93750000
v -15.71614425 20.14897811 -2.93750000
v -15.48689558 19.97266183 -2.93750000
v -15.14846574 19.77792391 -2.93750000
v -14.83368909 19.64120346 -2.93750000
v -14.50802703 19.53283864 -2.93750000
v -14.50802703 19.53283864 3.41250000
v -14.96363992 19.69337876 3.41250000
v -15.35235796 19.88797017 3.41250000
v -15.61513089 20.06513637 3.41250000
v -15.72766220 20.15936048 3.41250000
v -15.81135344 20.24347772 3.41250000
v -15.87879314 20.33885636 3.41250000
v -15.97786982 20.50678990 3.41250000
v -16.03999872 20.59680102 3.41250000
v -16.12984775 20.70157749 3.41250000
v -16.21511431 20.77877580 3.41250000
v -16.31294042 20.84520066 3.41250000
v -16.41167507 20.89144805 3.41250000
v -16.51034697 20.91885245 3.41250000
v -16.60783767 20.92839648 3.41250000
v -16.70262879 20.92082270 3.41250000
v -16.79287646 20.89688224 3.41250000
v -16.95124656 20.82499745 3.41250000
v -17.01869660 20.78633503 3.41250000
v -17.07383766 20.74338278 3.41250000
v -17.13789622 20.67519880 3.41250000
v -17.19026264 20.59553470 3.41250000
v -17.22985559 20.50564460 3.41250000
v -17.25587870 20.40641774 3.41250000
v -17.26796765 20.28807587 3.41250000
v -17.26342201 20.17200170 3.41250000
v -17.23847617 20.02694671 3.41250000
v -17.12488024 19.67761895 3.41250000
v -17.10943244 19.59674606 3.41250000
v -17.10312796 19.49879023 3.41250000
v -17.11424829 19.20979418 3.41250000
v -17.18104953 18.82509272 3.41250000
v -17.27731519 18.49568455 3.41250000
v -21.23396950 18.33280794 3.41250000
v -21.23396950 18.33280794 -2.93750000
v -20.86198804 18.64100598 -2.93750000
v -20.56454976 18.95802017 -2.93750000
v -20.37925941 19.21512903 -2.93750000
v -20.30625681 19.34245577 -2.93750000
v -20.25681955 19.45032556 -2.93750000
v -20.22652560 19.56314166 -2.93750000
v -20.19163820 19.75497684 -2.93750000
v -20.16447112 19.86091999 -2.93750000
v -20.11640056 19.99030382 -2.93750000
v -20.06309242 20.09222639 -2.93750000
v -19.99427393 20.18838368 -2.93750000
v -19.91762503 20.26592269 -2.93750000
v -19.83451859 20.32575966 -2.93750000
v -19.74634384 20.36842979 -2.93750000
v -19.65478229 20.39410472 -2.93750000
v -19.56182381 20.40285158 -2.93750000
v -19.38836571 20.39017098 -2.93750000
v -19.31170693 20.37722020 -2.93750000
v -19.24511410 20.35598750 -2.93750000
v -19.16142817 20.31416382 -2.93750000
v -19.08474281 20.25752492 -2.93750000
v -19.01650634 20.18687355 -2.93750000
v -18.95777351 20.10276870 -2.93750000
v -18.90550457 19.99590944 -2.93750000
v -18.86962808 19.88542527 -2.93750000
v -18.84287068 19.74069349 -2.93750000
v -18.82865031 19.37363533 -2.93750000
v -18.81517686 19.29241017 -2.93750000
v -18.78721651 19.19831815 -2.93750000
v -18.67683948 18.93099943 -2.93750000
v -18.48111960 18.59313653 -2.93750000
v -18.27687524 18.31734482 -2.93750000
v -18.04902604 18.06066711 -2.93750000
v -18.04902604 18.06066711 3.41250000
v -18.36332832 18.42750538 3.41250000
v -18.60267231 18.79038549 3.41250000
v -18.74165724 19.07520240 3.41250000
v -18.79200016 19.21306853 3.41250000
v -18.82242028 19.32776181 3.41250000
v -18.83313545 19.44408198 3.41250000
v -18.83497161 19.63905504 3.41250000
v -18.84377125 19.74807141 3.41250000
v -18.86919456 19.88373500 3.41250000
v -18.90443841 19.99322398 3.41250000
v -18.95594588 20.09966265 3.41250000
v -19.01832889 20.18908138 3.41250000
v -19.09007906 20.26215025 3.41250000
v -19.16973647 20.31916097 3.41250000
v -19.25561488 20.35999744 3.41250000
v -19.34574189 20.38438824 3.41250000
v -19.51883681 20.40131922 3.41250000
v -19.59658147 20.40156161 3.41250000
v -19.66581115 20.39193440 3.41250000
v -19.75537949 20.36491462 3.41250000
v -19.84056219 20.32210670 3.41250000
v -19.91979574 20.26405606 3.41250000
v -19.99194584 20.19113464 3.41250000
v -20.06158611 20.09469204 3.41250000
v -20.11568656 19.99189604 3.41250000
v -20.16661032 19.85380182 3.41250000
v -20.24289724 19.49447714 3.41250000
v -20.26995550 19.41671526 3.41250000
v -20.31347357 19.32873079 3.41250000
v -20.46760209 19.08401303 3.41250000
v -20.71780439 18.78425241 3.41250000
v -20.96587698 18.54710939 3.41250000
v -11.95409698 23.19601349 3.41250000
v -11.95409698 23.19601349 -2.93750000
v -12.26229502 23.56799496 -2.93750000
v -12.57930921 23.86543323 -2.93750000
v -12.83641807 24.05072358 -2.93750000
v -12.96374481 24.12372618 -2.93750000
v -13.07161460 24.17316344 -2.93750000
v -13.18443070 24.20345740 -2.93750000
v -13.37626587 24.23834479 -2.93750000
v -13.48220903 24.26551188 -2.93750000
v -13.61159286 24.31358244 -2.93750000
v -13.71351542 24.36689058 -2.93750000
v -13.80967272 24.43570907 -2.93750000
v -13.88721172 24.51235796 -2.93750000
v -13.94704870 24.59546441 -2.93750000
v -13.98971883 24.68363915 -2.93750000
v -14.01539376 24.77520070 -2.93750000
v -14.02414062 24.86815919 -2.93750000
v -14.01146002 25.04161729 -2.93750000
v -13.99850924 25.11827607 -2.93750000
v -13.97727653 25.18486889 -2.93750000
v -13.93545286 25.26855482 -2.93750000
v -13.87881396 25.34524019 -2.93750000
v -13.80816258 25.41347666 -2.93750000
v -13.72405773 25.47220949 -2.93750000
v -13.61719848 25.52447842 -2.93750000
v -13.50671431 25.56035492 -2.93750000
v -13.36198253 25.58711231 -2.93750000
v -12.99492436 25.60133269 -2.93750000
v -12.91369921 25.61480613 -2.93750000
v -12.81960719 25.64276648 -2.93750000
v -12.55228847 25.75314351 -2.93750000
v -12.21442556 25.94886340 -2.93750000
v -11.93863385 26.15310775 -2.93750000
v -11.68195614 26.38095696 -2.93750000
v -11.68195614 26.38095696 3.41250000
v -12.04879441 26.06665468 3.41250000
v -12.41167453 25.82731069 3.41250000
v -12.69649143 25.68832575 3.41250000
v -12.83435756 25.63798284 3.41250000
v -12.94905084 25.60756271 3.41250000
v -13.06537102 25.59684754 3.41250000
v -13.26034407 25.59501139 3.41250000
v -13.36936044 25.58621174 3.41250000
v -13.50502403 25.56078844 3.41250000
v -13.61451301 25.52554458 3.41250000
v -13.72095169 25.47403711 3.41250000
v -13.81037042 25.41165410 3.41250000
v -13.88343928 25.33990393 3.41250000
v -13.94045001 25.26024652 3.41250000
v -13.98128648 25.17436811 3.41250000
v -14.00567727 25.08424110 3.41250000
v -14.02260826 24.91114618 3.41250000
v -14.02285064 24.83340152 3.41250000
v -14.01322343 24.76417184 3.41250000
v -13.98620365 24.67460351 3.41250000
v -13.94339574 24.58942081 3.41250000
v -13.88534509 24.51018725 3.41250000
v -13.81242367 24.43803715 3.41250000
v -13.71598108 24.36839688 3.41250000
v -13.61318508 24.31429643 3.41250000
v -13.47509085 24.26337268 3.41250000
v -13.11576618 24.18708575 3.41250000
v -13.03800429 24.16002749 3.41250000
v -12.95001982 24.11650943 3.41250000
v -12.70530206 23.96238090 3.41250000
v -12.40554144 23.71217861 3.41250000
v -12.16839843 23.46410601 3.41250000
v -14.00567031 19.95610456 3.41250000
v -14.00567031 19.95610456 -2.93750000
v -14.08658691 20.43234898 -2.93750000
v -14.21241011 20.84844518 -2.93750000
v -14.34242774 21.13746576 -2.93750000
v -14.41619464 21.26435123 -2.93750000
v -14.48489398 21.36110005 -2.93750000
v -14.56744861 21.44374344 -2.93750000
v -14.71613905 21.56987439 -2.93750000
v -14.79430497 21.64637335 -2.93750000
v -14.88231938 21.75269560 -2.93750000
v -14.94393283 21.84982308 -2.93750000
v -14.99279825 21.95750029 -2.93750000
v -15.02162455 22.06264968 -2.93750000
v -15.03189167 22.16454047 -2.93750000
v -15.02475771 22.26223710 -2.93750000
v -15.00121208 22.35436919 -2.93750000
v -14.96230784 22.43924703 -2.93750000
v -14.86459707 22.58312585 -2.93750000
v -14.81505197 22.64303891 -2.93750000
v -14.76336750 22.69009364 -2.93750000
v -14.68530417 22.74165594 -2.93750000
v -14.59791076 22.77974797 -2.93750000
v -14.50260664 22.80351680 -2.93750000
v -14.40040329 22.81232849 -2.93750000
v -14.28172599 22.80416509 -2.93750000
v -14.16810564 22.77999296 -2.93750000
v -14.02938555 22.73079966 -2.93750000
v -13.70439367 22.55958578 -2.93750000
v -13.62731389 22.53064155 -2.93750000
v -13.53184764 22.50780991 -2.93750000
v -13.24515433 22.46973987 -2.93750000
v -12.85469652 22.47030680 -2.93750000
v -12.51373172 22.50929175 -2.93750000
v -12.17751770 22.57827609 -2.93750000
v -12.17751770 22.57827609 3.41250000
v -12.65236010 22.48950147 3.41250000
v -13.08629550 22.46366355 3.41250000
v -13.40244664 22.48570752 3.41250000
v -13.54701366 22.51104234 3.41250000
v -13.66155102 22.54204438 3.41250000
v -13.76764483 22.59092486 3.41250000
v -13.93741453 22.68682123 3.41250000
v -14.03622530 22.73370870 3.41250000
v -14.16642507 22.77952327 3.41250000
v -14.27886723 22.80374568 3.41250000
v -14.39679956 22.81235824 3.41250000
v -14.50542996 22.80304233 3.41250000
v -14.60458454 22.77743930 3.41250000
v -14.69378598 22.73695932 3.41250000
v -14.77209060 22.68300467 3.41250000
v -14.83827715 22.61714779 3.41250000
v -14.93948728 22.47570868 3.41250000
v -14.97856952 22.40850102 3.41250000
v -15.00484695 22.34373276 3.41250000
v -15.02623131 22.25265441 3.41250000
v -15.03174991 22.15748007 3.41250000
v -15.02109336 22.05983648 3.41250000
v -14.99401661 21.96089195 3.41250000
v -14.94531500 21.85236041 3.41250000
v -14.88334128 21.75411005 3.41250000
v -14.78921005 21.64096167 3.41250000
v -14.51616921 21.39523291 3.41250000
v -14.46235458 21.33291883 3.41250000
v -14.40791682 21.25123884 3.41250000
v -14.27304929 20.99540075 3.41250000
v -14.13855013 20.62883890 3.41250000
v -14.05721455 20.29543022 3.41250000
v -12.02247071 22.98792879 3.41250000
v -12.09696599 22.78195631 3.41250000
v -12.02247071 22.98792879 -2.93750000
v -12.09696599 22.78195631 -2.93750000
v -14.16892605 19.81008479 -2.93750000
v -14.33642709 19.66895503 -2.93750000
v -14.16892605 19.81008479 3.41250000
v -14.33642709 19.66895503 3.41250000
v -17.61673290 18.13121883 3.41250000
v -17.83235794 18.09274739 3.41250000
v -17.61673290 18.13121883 -2.93750000
v -17.83235794 18.09274739 -2.93750000
v -26.02880132 27.82076516 3.41250000
v -25.95430604 28.02673765 3.41250000
v -26.02880132 27.82076516 -2.93750000
v -25.95430604 28.02673765 -2.93750000
v -26.29876417 23.99544386 3.41250000
v -26.33723560 24.21106890 3.41250000
v -26.29876417 23.99544386 -2.93750000
v -26.33723560 24.21106890 -2.93750000
v -21.44205420 18.40118167 -2.93750000
v -21.64802668 18.47567695 -2.93750000
v -21.44205420 18.40118167 3.41250000
v -21.64802668 18.47567695 3.41250000
v -24.61989820 20.54763701 3.41250000
v -24.76102796 20.71513806 3.41250000
v -24.61989820 20.54763701 -2.93750000
v -24.76102796 20.71513806 -2.93750000
v -23.88234598 30.99860917 -2.93750000
v -23.71484494 31.13973893 -2.93750000
v -23.88234598 30.99860917 3.41250000
v -23.71484494 31.13973893 3.41250000
v -20.43453913 32.67747513 3.41250000
v -20.21891409 32.71594657 3.41250000
v -20.43453913 32.67747513 -2.93750000
v -20.21891409 32.71594657 -2.93750000
v -16.60921783 32.40751228 -2.93750000
v -16.40324535 32.33301700 -2.93750000
v -16.60921783 32.40751228 3.41250000
v -16.40324535 32.33301700 3.41250000
v -13.43137383 30.26105695 -2.93750000
v -13.29024407 30.09355590 -2.93750000
v -13.43137383 30.26105695 3.41250000
v -13.29024407 30.09355590 3.41250000
v -11.75250786 26.81325010 3.41250000
v -11.71403642 26.59762506 3.41250000
v -11.75250786 26.81325010 -2.93750000
v -11.71403642 26.59762506 -2.93750000
v -16.12281388 23.38052748 3.41250000
v -16.43272518 22.99622840 3.41250000
v -16.79310454 22.65880060 3.41250000
v -17.19693759 22.37481174 3.41250000
v -17.63636417 22.14978934 3.41250000
v -18.10283134 21.98811320 3.41250000
v -18.58725986 21.89293016 3.41250000
v -19.08022088 21.86609286 3.41250000
v -19.57211946 21.90812365 3.41250000
v -20.05338136 22.01820445 3.41250000
v -20.51463937 22.19419267 3.41250000
v -20.94691562 22.43266288 3.41250000
v -21.34179635 22.72897355 3.41250000
v -21.69159566 23.07735731 3.41250000
v -21.98950509 23.47103329 3.41250000
v -22.22972618 23.90233901 3.41250000
v -22.40758330 24.36287962 3.41250000
v -22.51961466 24.84369120 3.41250000
v -22.56363971 25.33541530 3.41250000
v -22.53880153 25.82848109 3.41250000
v -22.44558359 26.31329158 3.41250000
v -22.28580026 26.78041050 3.41250000
v -22.06256153 27.22074592 3.41250000
v -21.78021251 27.62572719 3.41250000
v -21.44424879 27.98747182 3.41250000
v -21.06120952 28.29893887 3.41250000
v -20.63855013 28.55406598 3.41250000
v -20.18449720 28.74788739 3.41250000
v -19.70788836 28.87663059 3.41250000
v -19.21800025 28.93778973 3.41250000
v -18.72436799 28.93017444 3.41250000
v -18.23659957 28.85393292 3.41250000
v -17.76418884 28.71054914 3.41250000
v -17.31633075 28.50281389 3.41250000
v -16.90174234 28.23477051 3.41250000
v -16.52849311 27.91163616 3.41250000
v -16.20384792 27.53970027 3.41250000
v -15.93412563 27.12620216 3.41250000
v -15.72457607 26.67919010 3.41250000
v -15.57927789 26.20736466 3.41250000
v -15.50105915 25.71990940 3.41250000
v -15.49144229 25.22631208 3.41250000
v -15.55061449 24.73618000 3.41250000
v -15.67742403 24.25905304 3.41250000
v -15.86940271 23.80421791 3.41250000
v -21.92845815 27.42816647 -2.93750000
v -22.18186932 27.00447604 -2.93750000
v -22.37384800 26.54964092 -2.93750000
v -22.50065754 26.07251395 -2.93750000
v -22.55982974 25.58238188 -2.93750000
v -22.55021288 25.08878455 -2.93750000
v -22.47199414 24.60132930 -2.93750000
v -22.32669596 24.12950386 -2.93750000
v -22.11714640 23.68249180 -2.93750000
v -21.84742411 23.26899369 -2.93750000
v -21.52277892 22.89705780 -2.93750000
v -21.14952969 22.57392344 -2.93750000
v -20.73494128 22.30588006 -2.93750000
v -20.28708319 22.09814482 -2.93750000
v -19.81467246 21.95476103 -2.93750000
v -19.32690404 21.87851952 -2.93750000
v -18.83327178 21.87090422 -2.93750000
v -18.34338367 21.93206337 -2.93750000
v -17.86677483 22.06080657 -2.93750000
v -17.41272190 22.25462798 -2.93750000
v -16.99006251 22.50975509 -2.93750000
v -16.60702324 22.82122214 -2.93750000
v -16.27105952 23.18296677 -2.93750000
v -15.98871050 23.58794804 -2.93750000
v -15.76547177 24.02828345 -2.93750000
v -15.60568844 24.49540238 -2.93750000
v -15.51247050 24.98021287 -2.93750000
v -15.48763232 25.47327866 -2.93750000
v -15.53165737 25.96500276 -2.93750000
v -15.64368873 26.44581434 -2.93750000
v -15.82154585 26.90635494 -2.93750000
v -16.06176694 27.33766067 -2.93750000
v -16.35967637 27.73133664 -2.93750000
v -16.70947568 28.07972041 -2.93750000
v -17.10435641 28.37603108 -2.93750000
v -17.53663266 28.61450129 -2.93750000
v -17.99789067 28.79048951 -2.93750000
v -18.47915257 28.90057031 -2.93750000
v -18.97105115 28.94260110 -2.93750000
v -19.46401217 28.91576380 -2.93750000
v -19.94844069 28.82058076 -2.93750000
v -20.41490786 28.65890462 -2.93750000
v -20.85433444 28.43388222 -2.93750000
v -21.25816749 28.14989336 -2.93750000
v -21.61854685 27.81246556 -2.93750000
v -16.35961792 23.54562497 4.50000000
v -16.64424753 23.19267592 4.50000000
v -16.97522816 22.88277453 4.50000000
v -17.34611764 22.62195268 4.50000000
v -17.74969704 22.41528697 4.50000000
v -18.17811115 22.26679991 4.50000000
v -18.62302135 22.17938164 4.50000000
v -19.07576800 22.15473365 4.50000000
v -19.52753888 22.19333569 4.50000000
v -19.96954080 22.29443641 4.50000000
v -20.39317068 22.45606800 4.50000000
v -20.79018305 22.67508449 4.50000000
v -21.15285053 22.94722296 4.50000000
v -21.47411419 23.26718657 4.50000000
v -21.74772101 23.62874756 4.50000000
v -21.96834554 24.02486859 4.50000000
v -22.13169358 24.44783959 4.50000000
v -22.23458574 24.88942791 4.50000000
v -22.27501935 25.34103855 4.50000000
v -22.25220740 25.79388142 4.50000000
v -22.16659391 26.23914245 4.50000000
v -22.01984525 26.66815512 4.50000000
v -21.81481772 27.07256921 4.50000000
v -21.55550193 27.44451326 4.50000000
v -21.24694518 27.77674778 4.50000000
v -20.89515318 28.06280623 4.50000000
v -20.50697315 28.29712079 4.50000000
v -20.08996058 28.47513079 4.50000000
v -19.65223214 28.59337148 4.50000000
v -19.20230772 28.64954144 4.50000000
v -18.74894458 28.64254738 4.50000000
v -18.30096693 28.57252543 4.50000000
v -17.86709414 28.44083850 4.50000000
v -17.45577105 28.25004970 4.50000000
v -17.07500360 28.00387255 4.50000000
v -16.73220298 27.70709858 4.50000000
v -16.43404144 27.36550417 4.50000000
v -16.18632233 26.98573807 4.50000000
v -15.99386723 26.57519199 4.50000000
v -15.86042207 26.14185675 4.50000000
v -15.78858419 25.69416671 4.50000000
v -15.77975184 25.24083566 4.50000000
v -15.83409694 24.79068718 4.50000000
v -15.95056172 24.35248289 4.50000000
v -16.12687932 23.93475193 4.50000000
v -16.35961792 23.54562497 3.91250000
v -16.12687932 23.93475193 3.91250000
v -15.95056172 24.35248289 3.91250000
v -15.83409694 24.79068718 3.91250000
v -15.77975184 25.24083566 3.91250000
v -15.78858419 25.69416671 3.91250000
v -15.86042207 26.14185675 3.91250000
v -15.99386723 26.57519199 3.91250000
v -16.18632233 26.98573807 3.91250000
v -16.43404144 27.36550417 3.91250000
v -16.73220298 27.70709858 3.91250000
v -17.07500360 28.00387255 3.91250000
v -17.45577105 28.25004970 3.91250000
v -17.86709414 28.44083850 3.91250000
v -18.30096693 28.57252543 3.91250000
v -18.74894458 28.64254738 3.91250000
v -19.20230772 28.64954144 3.91250000
v -19.65223214 28.59337148 3.91250000
v -20.08996058 28.47513079 3.91250000
v -20.50697315 28.29712079 3.91250000
v -20.89515318 28.06280623 3.91250000
v -21.24694518 27.77674778 3.91250000
v -21.55550193 27.44451326 3.91250000
v -21.81481772 27.07256921 3.91250000
v -22.01984525 26.66815512 3.91250000
v -22.16659391 26.23914245 3.91250000
v -22.25220740 25.79388142 3.91250000
v -22.27501935 25.34103855 3.91250000
v -22.23458574 24.88942791 3.91250000
v -22.13169358 24.44783959 3.91250000
v -21.96834554 24.02486859 3.91250000
v -21.74772101 23.62874756 3.91250000
v -21.47411419 23.26718657 3.91250000
v -21.15285053 22.94722296 3.91250000
v -20.79018305 22.67508449 3.91250000
v -20.39317068 22.45606800 3.91250000
v -19.96954080 22.29443641 3.91250000
v -19.52753888 22.19333569 3.91250000
v -19.07576800 22.15473365 3.91250000
v -18.62302135 22.17938164 3.91250000
v -18.17811115 22.26679991 3.91250000
v -17.74969704 22.41528697 3.91250000
v -17.34611764 22.62195268 3.91250000
v -16.97522816 22.88277453 3.91250000
v -16.64424753 23.19267592 3.91250000
v -21.69165411 27.26306899 -3.43750000
v -21.40702450 27.61601804 -3.43750000
v -21.07604387 27.92591943 -3.43750000
v -20.70515439 28.18674128 -3.43750000
v -20.30157499 28.39340699 -3.43750000
v -19.87316088 28.54189405 -3.43750000
v -19.42825068 28.62931232 -3.43750000
v -18.97550403 28.65396031 -3.43750000
v -18.52373315 28.61535827 -3.43750000
v -18.08173123 28.51425755 -3.43750000
v -17.65810135 28.35262596 -3.43750000
v -17.26108898 28.13360947 -3.43750000
v -16.89842150 27.86147099 -3.43750000
v -16.57715784 27.54150739 -3.43750000
v -16.30355102 27.17994639 -3.43750000
v -16.08292649 26.78382537 -3.43750000
v -15.91957845 26.36085437 -3.43750000
v -15.81668629 25.91926605 -3.43750000
v -15.77625268 25.46765540 -3.43750000
v -15.79906463 25.01481254 -3.43750000
v -15.88467811 24.56955151 -3.43750000
v -16.03142677 24.14053883 -3.43750000
v -16.23645431 23.73612474 -3.43750000
v -16.49577010 23.36418070 -3.43750000
v -16.80432685 23.03194617 -3.43750000
v -17.15611885 22.74588773 -3.43750000
v -17.54429888 22.51157317 -3.43750000
v -17.96131145 22.33356317 -3.43750000
v -18.39903989 22.21532247 -3.43750000
v -18.84896431 22.15915251 -3.43750000
v -19.30232745 22.16614658 -3.43750000
v -19.75030510 22.23616852 -3.43750000
v -20.18417789 22.36785546 -3.43750000
v -20.59550098 22.55864425 -3.43750000
v -20.97626843 22.80482141 -3.43750000
v -21.31906905 23.10159538 -3.43750000
v -21.61723059 23.44318979 -3.43750000
v -21.86494970 23.82295589 -3.43750000
v -22.05740480 24.23350197 -3.43750000
v -22.19084996 24.66683721 -3.43750000
v -22.26268784 25.11452725 -3.43750000
v -22.27152019 25.56785829 -3.43750000
v -22.21717509 26.01800678 -3.43750000
v -22.10071031 26.45621107 -3.43750000
v -21.92439271 26.87394203 -3.43750000
v -21.69165411 27.26306899 -4.02500000
v -21.91991862 26.88273400 -4.02500000
v -22.09426812 26.47485946 -4.02500000
v -22.21145482 26.04704330 -4.02500000
v -22.26929573 25.60725492 -4.02500000
v -22.26671341 25.16368675 -4.02500000
v -22.20375594 24.72460162 -4.02500000
v -22.08159611 24.29817887 -4.02500000
v -21.90250953 23.89236193 -4.02500000
v -21.66983224 23.51471042 -4.02500000
v -21.38789857 23.17225925 -4.02500000
v -21.06196042 22.87138766 -4.02500000
v -20.69808941 22.61770031 -4.02500000
v -20.30306375 22.41592291 -4.02500000
v -19.88424202 22.26981420 -4.02500000
v -19.44942610 22.18209591 -4.02500000
v -19.00671576 22.15440205 -4.02500000
v -18.56435788 22.18724852 -4.02500000
v -18.13059273 22.28002345 -4.02500000
v -17.71350055 22.43099861 -4.02500000
v -17.32085096 22.63736163 -4.02500000
v -16.95995830 22.89526835 -4.02500000
v -16.63754530 23.19991445 -4.02500000
v -16.35961792 23.54562497 -4.02500000
v -16.13135341 23.92595996 -4.02500000
v -15.95700390 24.33383450 -4.02500000
v -15.83981721 24.76165066 -4.02500000
v -15.78197630 25.20143904 -4.02500000
v -15.78455862 25.64500721 -4.02500000
v -15.84751609 26.08409233 -4.02500000
v -15.96967592 26.51051509 -4.02500000
v -16.14876250 26.91633203 -4.02500000
v -16.38143979 27.29398354 -4.02500000
v -16.66337346 27.63643470 -4.02500000
v -16.98931161 27.93730630 -4.02500000
v -17.35318262 28.19099365 -4.02500000
v -17.74820828 28.39277104 -4.02500000
v -18.16703001 28.53887975 -4.02500000
v -18.60184593 28.62659805 -4.02500000
v -19.04455627 28.65429191 -4.02500000
v -19.48691415 28.62144544 -4.02500000
v -19.92067930 28.52867051 -4.02500000
v -20.33777148 28.37769535 -4.02500000
v -20.73042107 28.17133233 -4.02500000
v -21.09131373 27.91342561 -4.02500000
v -21.41372673 27.60877950 -4.02500000
f 48 25 26
f 48 26 27
f 48 27 28
f 48 28 29
f 48 29 30
f 48 30 31
f 48 31 32
f 48 32 33
f 48 33 34
f 24 25 48
f 35 48 34
f 23 24 48
f 49 18 19
f 49 19 20
f 49 20 21
f 49 21 22
f 49 22 23
f 49 23 48
f 46 35 36
f 46 36 37
f 46 37 38
f 46 38 39
f 46 39 40
f 46 48 35
f 41 46 40
f 17 18 49
f 42 46 41
f 16 17 49
f 43 46 42
f 15 16 49
f 44 46 43
f 14 15 49
f 45 46 44
f 13 14 49
f 1 46 45
f 12 13 49
f 47 46 1
f 47 12 49
f 2 47 1
f 11 12 47
f 3 47 2
f 10 11 47
f 4 47 3
f 9 10 47
f 5 47 4
f 8 9 47
f 6 47 5
f 7 8 47
f 7 47 6
f 51 48 46
f 51 50 48
f 52 46 47
f 52 51 46
f 49 53 52
f 47 49 52
f 49 50 53
f 49 48 50
f 50 66 67
f 50 67 68
f 50 68 69
f 50 69 70
f 50 70 71
f 50 71 72
f 50 72 73
f 50 73 74
f 50 74 75
f 76 50 75
f 65 66 50
f 77 50 76
f 53 77 78
f 53 78 79
f 53 79 80
f 53 80 81
f 53 81 82
f 53 50 77
f 51 60 61
f 51 61 62
f 51 62 63
f 51 63 64
f 51 64 65
f 51 65 50
f 59 60 51
f 83 53 82
f 58 59 51
f 84 53 83
f 57 58 51
f 85 53 84
f 56 57 51
f 86 53 85
f 55 56 51
f 87 53 86
f 54 55 51
f 88 53 87
f 52 54 51
f 52 53 88
f 98 54 52
f 89 52 88
f 97 98 52
f 90 52 89
f 96 97 52
f 91 52 90
f 95 96 52
f 92 52 91
f 94 95 52
f 93 52 92
f 93 94 52
f 132 133 134
f 132 134 135
f 131 135 136
f 131 132 135
f 130 136 137
f 130 131 136
f 129 137 138
f 129 130 137
f 128 138 139
f 128 129 138
f 127 128 139
f 127 139 140
f 127 140 141
f 126 141 142
f 126 127 141
f 125 126 142
f 125 142 143
f 125 143 144
f 124 144 145
f 124 125 144
f 123 124 145
f 123 145 146
f 122 123 146
f 121 146 147
f 121 122 146
f 120 147 148
f 120 121 147
f 119 120 148
f 119 148 149
f 118 149 150
f 118 119 149
f 117 118 150
f 117 150 151
f 116 151 152
f 116 117 151
f 115 116 152
f 115 152 153
f 114 115 153
f 114 153 154
f 113 114 154
f 113 154 155
f 112 155 156
f 112 156 157
f 112 113 155
f 111 112 157
f 111 157 158
f 110 158 159
f 110 111 158
f 109 110 159
f 108 159 160
f 108 109 159
f 107 108 160
f 107 160 161
f 106 107 161
f 105 161 162
f 105 106 161
f 104 105 162
f 104 162 163
f 103 104 163
f 103 163 164
f 102 103 164
f 102 164 165
f 101 102 165
f 101 165 166
f 100 101 166
f 100 166 99
f 200 201 202
f 200 202 203
f 199 203 204
f 199 200 203
f 198 204 205
f 198 199 204
f 197 205 206
f 197 198 205
f 196 206 207
f 196 197 206
f 195 196 207
f 195 207 208
f 195 208 209
f 194 209 210
f 194 195 209
f 193 194 210
f 193 210 211
f 193 211 212
f 192 212 213
f 192 193 212
f 191 192 213
f 191 213 214
f 190 191 214
f 189 214 215
f 189 190 214
f 188 215 216
f 188 189 215
f 187 188 216
f 187 216 217
f 186 217 218
f 186 187 217
f 185 186 218
f 185 218 219
f 184 219 220
f 184 185 219
f 183 184 220
f 183 220 221
f 182 183 221
f 182 221 222
f 181 182 222
f 181 222 223
f 180 223 224
f 180 224 225
f 180 181 223
f 179 180 225
f 179 225 226
f 178 226 227
f 178 179 226
f 177 178 227
f 176 227 228
f 176 177 227
f 175 176 228
f 175 228 229
f 174 175 229
f 173 229 230
f 173 174 229
f 172 173 230
f 172 230 231
f 171 172 231
f 171 231 232
f 170 171 232
f 170 232 233
f 169 170 233
f 169 233 234
f 168 169 234
f 168 234 167
f 268 269 270
f 268 270 271
f 267 271 272
f 267 268 271
f 266 272 273
f 266 267 272
f 265 273 274
f 265 266 273
f 264 274 275
f 264 265 274
f 263 264 275
f 263 275 276
f 263 276 277
f 262 277 278
f 262 263 277
f 261 262 278
f 261 278 279
f 261 279 280
f 260 280 281
f 260 261 280
f 259 260 281
f 259 281 282
f 258 259 282
f 257 282 283
f 257 258 282
f 256 283 284
f 256 257 283
f 255 256 284
f 255 284 285
f 254 285 286
f 254 255 285
f 253 254 286
f 253 286 287
f 252 287 288
f 252 253 287
f 251 252 288
f 251 288 289
f 250 251 289
f 250 289 290
f 249 250 290
f 249 290 291
f 248 291 292
f 248 292 293
f 248 249 291
f 247 248 293
f 247 293 294
f 246 294 295
f 246 247 294
f 245 246 295
f 244 295 296
f 244 245 295
f 243 244 296
f 243 296 297
f 242 243 297
f 241 297 298
f 241 242 297
f 240 241 298
f 240 298 299
f 239 240 299
f 239 299 300
f 238 239 300
f 238 300 301
f 237 238 301
f 237 301 302
f 236 237 302
f 236 302 235
f 336 337 338
f 336 338 339
f 335 339 340
f 335 336 339
f 334 340 341
f 334 335 340
f 333 341 342
f 333 334 341
f 332 342 343
f 332 333 342
f 331 332 343
f 331 343 344
f 331 344 345
f 330 345 346
f 330 331 345
f 329 330 346
f 329 346 347
f 329 347 348
f 328 348 349
f 328 329 348
f 327 328 349
f 327 349 350
f 326 327 350
f 325 350 351
f 325 326 350
f 324 351 352
f 324 325 351
f 323 324 352
f 323 352 353
f 322 353 354
f 322 323 353
f 321 322 354
f 321 354 355
f 320 355 356
f 320 321 355
f 319 320 356
f 319 356 357
f 318 319 357
f 318 357 358
f 317 318 358
f 317 358 359
f 316 359 360
f 316 360 361
f 316 317 359
f 315 316 361
f 315 361 362
f 314 362 363
f 314 315 362
f 313 314 363
f 312 363 364
f 312 313 363
f 311 312 364
f 311 364 365
f 310 311 365
f 309 365 366
f 309 310 365
f 308 309 366
f 308 366 367
f 307 308 367
f 307 367 368
f 306 307 368
f 306 368 369
f 305 306 369
f 305 369 370
f 304 305 370
f 304 370 303
f 404 405 406
f 404 406 407
f 403 407 408
f 403 404 407
f 402 408 409
f 402 403 408
f 401 409 410
f 401 402 409
f 400 410 411
f 400 401 410
f 399 400 411
f 399 411 412
f 399 412 413
f 398 413 414
f 398 399 413
f 397 398 414
f 397 414 415
f 397 415 416
f 396 416 417
f 396 397 416
f 395 396 417
f 395 417 418
f 394 395 418
f 393 418 419
f 393 394 418
f 392 419 420
f 392 393 419
f 391 392 420
f 391 420 421
f 390 421 422
f 390 391 421
f 389 390 422
f 389 422 423
f 388 423 424
f 388 389 423
f 387 388 424
f 387 424 425
f 386 387 425
f 386 425 426
f 385 386 426
f 385 426 427
f 384 427 428
f 384 428 429
f 384 385 427
f 383 384 429
f 383 429 430
f 382 430 431
f 382 383 430
f 381 382 431
f 380 431 432
f 380 381 431
f 379 380 432
f 379 432 433
f 378 379 433
f 377 433 434
f 377 378 433
f 376 377 434
f 376 434 435
f 375 376 435
f 375 435 436
f 374 375 436
f 374 436 437
f 373 374 437
f 373 437 438
f 372 373 438
f 372 438 371
f 472 473 474
f 472 474 475
f 471 475 476
f 471 472 475
f 470 476 477
f 470 471 476
f 469 477 478
f 469 470 477
f 468 478 479
f 468 469 478
f 467 468 479
f 467 479 480
f 467 480 481
f 466 481 482
f 466 467 481
f 465 466 482
f 465 482 483
f 465 483 484
f 464 484 485
f 464 465 484
f 463 464 485
f 463 485 486
f 462 463 486
f 461 486 487
f 461 462 486
f 460 487 488
f 460 461 487
f 459 460 488
f 459 488 489
f 458 489 490
f 458 459 489
f 457 458 490
f 457 490 491
f 456 491 492
f 456 457 491
f 455 456 492
f 455 492 493
f 454 455 493
f 454 493 494
f 453 454 494
f 453 494 495
f 452 495 496
f 452 496 497
f 452 453 495
f 451 452 497
f 451 497 498
f 450 498 499
f 450 451 498
f 449 450 499
f 448 499 500
f 448 449 499
f 447 448 500
f 447 500 501
f 446 447 501
f 445 501 502
f 445 446 501
f 444 445 502
f 444 502 503
f 443 444 503
f 443 503 504
f 442 443 504
f 442 504 505
f 441 442 505
f 441 505 506
f 440 441 506
f 440 506 439
f 540 541 542
f 540 542 543
f 539 543 544
f 539 540 543
f 538 544 545
f 538 539 544
f 537 545 546
f 537 538 545
f 536 546 547
f 536 537 546
f 535 536 547
f 535 547 548
f 535 548 549
f 534 549 550
f 534 535 549
f 533 534 550
f 533 550 551
f 533 551 552
f 532 552 553
f 532 533 552
f 531 532 553
f 531 553 554
f 530 531 554
f 529 554 555
f 529 530 554
f 528 555 556
f 528 529 555
f 527 528 556
f 527 556 557
f 526 557 558
f 526 527 557
f 525 526 558
f 525 558 559
f 524 559 560
f 524 525 559
f 523 524 560
f 523 560 561
f 522 523 561
f 522 561 562
f 521 522 562
f 521 562 563
f 520 563 564
f 520 564 565
f 520 521 563
f 519 520 565
f 519 565 566
f 518 566 567
f 518 519 566
f 517 518 567
f 516 567 568
f 516 517 567
f 515 516 568
f 515 568 569
f 514 515 569
f 513 569 570
f 513 514 569
f 512 513 570
f 512 570 571
f 511 512 571
f 511 571 572
f 510 511 572
f 510 572 573
f 509 510 573
f 509 573 574
f 508 509 574
f 508 574 507
f 608 609 610
f 608 610 611
f 607 611 612
f 607 608 611
f 606 612 613
f 606 607 612
f 605 613 614
f 605 606 613
f 604 614 615
f 604 605 614
f 603 604 615
f 603 615 616
f 603 616 617
f 602 617 618
f 602 603 617
f 601 602 618
f 601 618 619
f 601 619 620
f 600 620 621
f 600 601 620
f 599 600 621
f 599 621 622
f 598 599 622
f 597 622 623
f 597 598 622
f 596 623 624
f 596 597 623
f 595 596 624
f 595 624 625
f 594 625 626
f 594 595 625
f 593 594 626
f 593 626 627
f 592 627 628
f 592 593 627
f 591 592 628
f 591 628 629
f 590 591 629
f 590 629 630
f 589 590 630
f 589 630 631
f 588 631 632
f 588 632 633
f 588 589 631
f 587 588 633
f 587 633 634
f 586 634 635
f 586 587 634
f 585 586 635
f 584 635 636
f 584 585 635
f 583 584 636
f 583 636 637
f 582 583 637
f 581 637 638
f 581 582 637
f 580 581 638
f 580 638 639
f 579 580 639
f 579 639 640
f 578 579 640
f 578 640 641
f 577 578 641
f 577 641 642
f 576 577 642
f 576 642 575
f 676 677 678
f 676 678 679
f 675 679 680
f 675 676 679
f 674 680 681
f 674 675 680
f 673 681 682
f 673 674 681
f 672 682 683
f 672 673 682
f 671 672 683
f 671 683 684
f 671 684 685
f 670 685 686
f 670 671 685
f 669 670 686
f 669 686 687
f 669 687 688
f 668 688 689
f 668 669 688
f 667 668 689
f 667 689 690
f 666 667 690
f 665 690 691
f 665 666 690
f 664 691 692
f 664 665 691
f 663 664 692
f 663 692 693
f 662 693 694
f 662 663 693
f 661 662 694
f 661 694 695
f 660 695 696
f 660 661 695
f 659 660 696
f 659 696 697
f 658 659 697
f 658 697 698
f 657 658 698
f 657 698 699
f 656 699 700
f 656 700 701
f 656 657 699
f 655 656 701
f 655 701 702
f 654 702 703
f 654 655 702
f 653 654 703
f 652 703 704
f 652 653 703
f 651 652 704
f 651 704 705
f 650 651 705
f 649 705 706
f 649 650 705
f 648 649 706
f 648 706 707
f 647 648 707
f 647 707 708
f 646 647 708
f 646 708 709
f 645 646 709
f 645 709 710
f 644 645 710
f 644 710 643
f 744 745 746
f 744 746 747
f 743 747 748
f 743 744 747
f 742 748 749
f 742 743 748
f 741 749 750
f 741 742 749
f 740 750 751
f 740 741 750
f 739 740 751
f 739 751 752
f 739 752 753
f 738 753 754
f 738 739 753
f 737 738 754
f 737 754 755
f 737 755 756
f 736 756 757
f 736 737 756
f 735 736 757
f 735 757 758
f 734 735 758
f 733 758 759
f 733 734 758
f 732 759 760
f 732 733 759
f 731 732 760
f 731 760 761
f 730 761 762
f 730 731 761
f 729 730 762
f 729 762 763
f 728 763 764
f 728 729 763
f 727 728 764
f 727 764 765
f 726 727 765
f 726 765 766
f 725 726 766
f 725 766 767
f 724 767 768
f 724 768 769
f 724 725 767
f 723 724 769
f 723 769 770
f 722 770 771
f 722 723 770
f 721 722 771
f 720 771 772
f 720 721 771
f 719 720 772
f 719 772 773
f 718 719 773
f 717 773 774
f 717 718 773
f 716 717 774
f 716 774 775
f 715 716 775
f 715 775 776
f 714 715 776
f 714 776 777
f 713 714 777
f 713 777 778
f 712 713 778
f 712 778 711
f 812 813 814
f 812 814 815
f 811 815 816
f 811 812 815
f 810 816 817
f 810 811 816
f 809 817 818
f 809 810 817
f 808 818 819
f 808 809 818
f 807 808 819
f 807 819 820
f 807 820 821
f 806 821 822
f 806 807 821
f 805 806 822
f 805 822 823
f 805 823 824
f 804 824 825
f 804 805 824
f 803 804 825
f 803 825 826
f 802 803 826
f 801 826 827
f 801 802 826
f 800 827 828
f 800 801 827
f 799 800 828
f 799 828 829
f 798 829 830
f 798 799 829
f 797 798 830
f 797 830 831
f 796 831 832
f 796 797 831
f 795 796 832
f 795 832 833
f 794 795 833
f 794 833 834
f 793 794 834
f 793 834 835
f 792 835 836
f 792 836 837
f 792 793 835
f 791 792 837
f 791 837 838
f 790 838 839
f 790 791 838
f 789 790 839
f 788 839 840
f 788 789 839
f 787 788 840
f 787 840 841
f 786 787 841
f 785 841 842
f 785 786 841
f 784 785 842
f 784 842 843
f 783 784 843
f 783 843 844
f 782 783 844
f 782 844 845
f 781 782 845
f 781 845 846
f 780 781 846
f 780 846 779
f 880 881 882
f 880 882 883
f 879 883 884
f 879 880 883
f 878 884 885
f 878 879 884
f 877 885 886
f 877 878 885
f 876 886 887
f 876 877 886
f 875 876 887
f 875 887 888
f 875 888 889
f 874 889 890
f 874 875 889
f 873 874 890
f 873 890 891
f 873 891 892
f 872 892 893
f 872 873 892
f 871 872 893
f 871 893 894
f 870 871 894
f 869 894 895
f 869 870 894
f 868 895 896
f 868 869 895
f 867 868 896
f 867 896 897
f 866 897 898
f 866 867 897
f 865 866 898
f 865 898 899
f 864 899 900
f 864 865 899
f 863 864 900
f 863 900 901
f 862 863 901
f 862 901 902
f 861 862 902
f 861 902 903
f 860 903 904
f 860 904 905
f 860 861 903
f 859 860 905
f 859 905 906
f 858 906 907
f 858 859 906
f 857 858 907
f 856 907 908
f 856 857 907
f 855 856 908
f 855 908 909
f 854 855 909
f 853 909 910
f 853 854 909
f 852 853 910
f 852 910 911
f 851 852 911
f 851 911 912
f 850 851 912
f 850 912 913
f 849 850 913
f 849 913 914
f 848 849 914
f 848 914 847
f 780 779 915
f 917 915 916
f 917 780 915
f 918 916 882
f 918 917 916
f 881 918 882
f 919 848 847
f 919 847 921
f 920 921 922
f 920 919 921
f 677 922 678
f 677 920 922
f 644 643 923
f 925 923 924
f 925 644 923
f 926 924 746
f 926 925 924
f 745 926 746
f 929 508 507
f 929 507 927
f 930 927 928
f 930 929 927
f 609 928 610
f 609 930 928
f 440 439 931
f 933 931 932
f 933 440 931
f 934 932 542
f 934 933 932
f 541 934 542
f 712 711 937
f 935 937 938
f 935 712 937
f 936 938 406
f 936 935 938
f 405 936 406
f 372 371 939
f 941 939 940
f 941 372 939
f 942 940 474
f 942 941 940
f 473 942 474
f 576 575 945
f 943 945 946
f 943 576 945
f 944 946 270
f 944 943 946
f 269 944 270
f 236 235 947
f 949 947 948
f 949 236 947
f 950 949 948
f 337 948 338
f 337 950 948
f 304 303 953
f 951 304 953
f 952 953 954
f 952 951 953
f 201 954 202
f 201 952 954
f 168 167 957
f 955 957 958
f 955 168 957
f 956 958 134
f 956 955 958
f 133 956 134
f 961 100 99
f 961 99 959
f 962 959 960
f 962 961 959
f 813 960 814
f 813 962 960
f 302 947 235
f 302 948 947
f 339 338 948
f 339 948 302
f 301 339 302
f 340 339 301
f 300 340 301
f 370 953 303
f 954 953 370
f 271 270 946
f 341 340 300
f 299 341 300
f 342 341 299
f 297 299 298
f 642 271 946
f 642 945 575
f 642 946 945
f 344 342 299
f 344 343 342
f 344 299 297
f 203 954 370
f 203 370 369
f 203 202 954
f 345 344 297
f 296 345 297
f 365 367 366
f 346 345 296
f 641 271 642
f 641 272 271
f 276 275 274
f 295 347 346
f 295 346 296
f 348 347 295
f 294 348 295
f 204 203 369
f 204 369 368
f 349 348 294
f 293 349 294
f 640 272 641
f 640 273 272
f 350 293 292
f 350 349 293
f 205 204 368
f 205 368 367
f 639 276 274
f 639 273 640
f 639 274 273
f 206 205 367
f 637 276 639
f 637 639 638
f 637 277 276
f 208 206 367
f 208 367 365
f 208 207 206
f 209 208 365
f 209 365 364
f 636 277 637
f 636 278 277
f 210 364 363
f 210 209 364
f 211 210 363
f 635 278 636
f 635 279 278
f 635 280 279
f 212 363 362
f 212 211 363
f 634 280 635
f 634 281 280
f 213 362 361
f 213 212 362
f 633 282 281
f 633 281 634
f 632 282 633
f 214 213 361
f 214 361 360
f 928 611 610
f 957 167 234
f 229 231 230
f 616 615 614
f 958 957 234
f 991 291 290
f 991 292 291
f 991 351 350
f 991 350 292
f 992 352 351
f 992 353 352
f 992 351 991
f 990 288 287
f 990 289 288
f 990 290 289
f 990 991 290
f 993 353 992
f 993 354 353
f 993 355 354
f 993 356 355
f 989 286 285
f 989 287 286
f 989 990 287
f 994 357 356
f 994 358 357
f 994 359 358
f 994 356 993
f 988 283 282
f 988 284 283
f 988 285 284
f 988 989 285
f 574 611 928
f 574 927 507
f 574 928 927
f 995 360 359
f 995 359 994
f 995 214 360
f 995 215 214
f 995 216 215
f 135 958 234
f 135 234 233
f 135 134 958
f 987 282 632
f 987 988 282
f 987 631 630
f 987 632 631
f 573 612 611
f 573 611 574
f 996 216 995
f 996 217 216
f 996 218 217
f 986 628 627
f 986 629 628
f 986 630 629
f 986 987 630
f 136 135 233
f 136 233 232
f 572 612 573
f 572 613 612
f 137 232 231
f 137 136 232
f 997 218 996
f 997 219 218
f 997 220 219
f 997 221 220
f 571 613 572
f 571 614 613
f 571 616 614
f 138 137 231
f 985 986 627
f 985 625 624
f 985 626 625
f 985 627 626
f 569 571 570
f 569 616 571
f 569 617 616
f 140 139 138
f 140 138 231
f 140 231 229
f 141 140 229
f 141 229 228
f 568 618 617
f 568 617 569
f 142 141 228
f 142 228 227
f 998 222 221
f 998 223 222
f 998 224 223
f 998 221 997
f 143 142 227
f 567 619 618
f 567 620 619
f 567 618 568
f 144 143 227
f 144 227 226
f 566 621 620
f 566 620 567
f 984 985 624
f 984 623 622
f 984 624 623
f 145 144 226
f 145 226 225
f 565 621 566
f 565 622 621
f 564 984 622
f 564 622 565
f 146 145 225
f 146 225 224
f 999 147 146
f 999 146 224
f 999 224 998
f 148 147 999
f 983 562 561
f 983 563 562
f 983 564 563
f 983 984 564
f 1000 149 148
f 1000 150 149
f 1000 151 150
f 1000 148 999
f 982 559 558
f 982 560 559
f 982 561 560
f 982 983 561
f 548 547 546
f 163 162 161
f 1001 152 151
f 1001 153 152
f 1001 154 153
f 1001 151 1000
f 981 557 556
f 981 558 557
f 981 982 558
f 1002 155 154
f 1002 156 155
f 1002 154 1001
f 959 99 166
f 932 543 542
f 980 555 554
f 980 556 555
f 980 981 556
f 960 959 166
f 506 931 439
f 506 932 931
f 506 543 932
f 815 814 960
f 815 166 165
f 815 960 166
f 505 544 543
f 505 543 506
f 816 165 164
f 816 815 165
f 504 545 544
f 504 544 505
f 822 160 159
f 500 550 549
f 823 822 159
f 499 551 550
f 499 552 551
f 499 550 500
f 821 161 160
f 821 160 822
f 824 159 158
f 824 823 159
f 498 553 552
f 498 552 499
f 817 164 163
f 817 816 164
f 503 548 546
f 503 546 545
f 503 545 504
f 820 161 821
f 820 163 161
f 818 817 163
f 818 163 820
f 825 158 157
f 825 824 158
f 497 553 498
f 497 554 553
f 501 500 549
f 501 549 548
f 501 548 503
f 502 501 503
f 819 818 820
f 496 980 554
f 496 554 497
f 826 157 156
f 826 156 1002
f 826 1002 1003
f 826 825 157
f 495 980 496
f 495 979 980
f 827 826 1003
f 494 979 495
f 828 827 1003
f 493 979 494
f 829 828 1003
f 829 1003 1004
f 492 979 493
f 492 978 979
f 830 829 1004
f 491 978 492
f 831 830 1004
f 831 1004 1005
f 490 978 491
f 832 831 1005
f 489 977 978
f 489 978 490
f 833 832 1005
f 488 977 489
f 834 833 1005
f 487 977 488
f 1006 834 1005
f 1006 835 834
f 836 835 1006
f 976 977 487
f 976 487 486
f 478 480 479
f 843 842 841
f 894 837 836
f 894 836 1006
f 428 976 486
f 427 976 428
f 895 894 1006
f 895 1006 1007
f 429 428 486
f 429 486 485
f 893 837 894
f 893 838 837
f 426 976 427
f 426 975 976
f 896 895 1007
f 430 429 485
f 430 485 484
f 892 839 838
f 892 838 893
f 425 975 426
f 897 896 1007
f 897 1007 963
f 431 430 484
f 431 483 482
f 431 484 483
f 891 839 892
f 424 975 425
f 898 897 963
f 890 839 891
f 890 840 839
f 423 975 424
f 423 974 975
f 432 431 482
f 432 482 481
f 889 841 840
f 889 840 890
f 899 898 963
f 915 779 846
f 940 475 474
f 422 974 423
f 900 963 964
f 900 899 963
f 888 843 841
f 888 841 889
f 421 974 422
f 421 973 974
f 901 900 964
f 433 432 481
f 433 481 480
f 420 973 421
f 916 915 846
f 902 901 964
f 886 888 887
f 886 843 888
f 435 434 433
f 435 478 477
f 435 433 480
f 435 480 478
f 885 844 843
f 885 843 886
f 419 973 420
f 903 964 965
f 903 902 964
f 436 477 476
f 436 435 477
f 884 845 844
f 884 844 885
f 437 436 476
f 437 476 475
f 883 846 845
f 883 882 916
f 883 916 846
f 883 845 884
f 418 972 973
f 418 973 419
f 438 437 475
f 438 475 940
f 438 939 371
f 438 940 939
f 904 903 965
f 764 971 765
f 694 966 967
f 694 693 966
f 692 965 966
f 692 966 693
f 766 765 971
f 766 971 972
f 763 970 971
f 763 971 764
f 691 965 692
f 767 766 972
f 695 694 967
f 410 412 411
f 762 970 763
f 696 695 967
f 911 910 909
f 690 905 904
f 690 904 965
f 690 965 691
f 768 972 418
f 768 767 972
f 761 970 762
f 697 967 968
f 697 696 967
f 769 418 417
f 769 768 418
f 689 906 905
f 689 905 690
f 760 969 970
f 760 970 761
f 698 697 968
f 770 417 416
f 770 769 417
f 688 907 906
f 688 906 689
f 759 969 760
f 699 698 968
f 758 969 759
f 771 415 414
f 771 416 415
f 771 770 416
f 700 699 968
f 700 968 969
f 700 969 758
f 687 907 688
f 701 700 758
f 757 701 758
f 686 907 687
f 686 908 907
f 772 771 414
f 772 414 413
f 702 701 757
f 756 702 757
f 685 908 686
f 685 909 908
f 703 702 756
f 755 703 756
f 684 911 909
f 684 909 685
f 754 703 755
f 773 772 413
f 773 413 412
f 704 703 754
f 753 704 754
f 682 911 684
f 682 684 683
f 775 773 412
f 775 412 410
f 775 774 773
f 775 410 409
f 681 911 682
f 681 912 911
f 776 409 408
f 776 775 409
f 705 753 752
f 705 704 753
f 680 912 681
f 680 913 912
f 750 752 751
f 707 706 705
f 707 705 752
f 707 752 750
f 777 776 408
f 777 408 407
f 749 707 750
f 679 914 913
f 679 913 680
f 921 847 914
f 938 407 406
f 778 777 407
f 778 407 938
f 708 707 749
f 922 921 914
f 922 914 679
f 937 778 938
f 711 778 937
f 678 922 679
f 748 708 749
f 709 708 748
f 747 709 748
f 710 709 747
f 923 643 710
f 924 923 710
f 924 747 746
f 924 710 747
f 812 961 962
f 812 962 813
f 101 961 812
f 101 100 961
f 811 101 812
f 102 101 811
f 810 102 811
f 132 956 133
f 955 956 132
f 781 780 917
f 103 102 810
f 809 103 810
f 104 103 809
f 807 809 808
f 880 917 918
f 880 918 881
f 880 781 917
f 106 105 104
f 106 809 807
f 106 104 809
f 169 168 955
f 169 955 132
f 169 132 131
f 107 106 807
f 806 107 807
f 127 129 128
f 108 107 806
f 879 781 880
f 879 782 781
f 786 785 784
f 805 109 108
f 805 108 806
f 110 109 805
f 804 110 805
f 170 169 131
f 170 131 130
f 111 110 804
f 803 111 804
f 878 783 782
f 878 782 879
f 112 111 803
f 112 803 802
f 171 170 130
f 171 130 129
f 877 783 878
f 877 786 784
f 877 784 783
f 172 171 129
f 875 877 876
f 875 787 786
f 875 786 877
f 174 173 172
f 174 172 129
f 174 129 127
f 175 127 126
f 175 174 127
f 874 787 875
f 874 788 787
f 176 126 125
f 176 175 126
f 177 176 125
f 873 788 874
f 873 789 788
f 873 790 789
f 178 125 124
f 178 177 125
f 872 790 873
f 872 791 790
f 179 124 123
f 179 178 124
f 871 791 872
f 871 792 791
f 870 792 871
f 180 123 122
f 180 179 123
f 952 201 200
f 919 849 848
f 195 197 196
f 854 853 852
f 951 952 200
f 1036 113 112
f 1036 801 800
f 1036 802 801
f 1036 112 802
f 1037 114 113
f 1037 115 114
f 1037 113 1036
f 1035 1036 800
f 1035 798 797
f 1035 799 798
f 1035 800 799
f 1038 115 1037
f 1038 116 115
f 1038 117 116
f 1038 118 117
f 1034 796 795
f 1034 797 796
f 1034 1035 797
f 1039 118 1038
f 1039 119 118
f 1039 120 119
f 1039 121 120
f 1033 1034 795
f 1033 793 792
f 1033 794 793
f 1033 795 794
f 676 919 920
f 676 920 677
f 676 849 919
f 1040 181 180
f 1040 122 121
f 1040 182 181
f 1040 121 1039
f 1040 180 122
f 305 951 200
f 305 200 199
f 305 304 951
f 1032 869 868
f 1032 870 869
f 1032 1033 792
f 1032 792 870
f 675 849 676
f 675 850 849
f 1041 183 182
f 1041 184 183
f 1041 182 1040
f 1031 866 865
f 1031 867 866
f 1031 868 867
f 1031 1032 868
f 306 199 198
f 306 305 199
f 674 851 850
f 674 850 675
f 307 198 197
f 307 306 198
f 1042 185 184
f 1042 186 185
f 1042 187 186
f 1042 184 1041
f 673 854 852
f 673 852 851
f 673 851 674
f 308 307 197
f 1030 863 862
f 1030 864 863
f 1030 865 864
f 1030 1031 865
f 671 673 672
f 671 855 854
f 671 854 673
f 310 308 197
f 310 197 195
f 310 309 308
f 311 310 195
f 311 195 194
f 670 856 855
f 670 855 671
f 312 311 194
f 312 194 193
f 1043 188 187
f 1043 189 188
f 1043 190 189
f 1043 187 1042
f 313 312 193
f 669 857 856
f 669 858 857
f 669 856 670
f 314 313 193
f 314 193 192
f 668 858 669
f 668 859 858
f 1029 861 860
f 1029 862 861
f 1029 1030 862
f 315 314 192
f 315 192 191
f 667 860 859
f 667 859 668
f 666 1029 860
f 666 860 667
f 316 191 190
f 316 315 191
f 1044 190 1043
f 1044 316 190
f 1044 317 316
f 318 317 1044
f 1028 664 663
f 1028 665 664
f 1028 666 665
f 1028 1029 666
f 1045 318 1044
f 1045 319 318
f 1045 320 319
f 1045 321 320
f 1027 661 660
f 1027 662 661
f 1027 663 662
f 1027 1028 663
f 650 649 648
f 333 332 331
f 1046 322 321
f 1046 323 322
f 1046 324 323
f 1046 321 1045
f 1026 659 658
f 1026 660 659
f 1026 1027 660
f 1047 325 324
f 1047 326 325
f 1047 324 1046
f 950 337 336
f 925 645 644
f 1025 657 656
f 1025 658 657
f 1025 1026 658
f 949 950 336
f 744 645 925
f 744 925 926
f 744 926 745
f 237 949 336
f 237 336 335
f 237 236 949
f 743 645 744
f 743 646 645
f 238 237 335
f 238 335 334
f 742 646 743
f 742 647 646
f 244 330 329
f 738 652 651
f 245 244 329
f 737 652 738
f 737 653 652
f 737 654 653
f 243 330 244
f 243 331 330
f 246 245 329
f 246 329 328
f 736 654 737
f 736 655 654
f 239 334 333
f 239 238 334
f 741 650 648
f 741 647 742
f 741 648 647
f 242 331 243
f 242 333 331
f 240 239 333
f 240 333 242
f 247 328 327
f 247 246 328
f 735 656 655
f 735 655 736
f 739 650 741
f 739 738 651
f 739 651 650
f 740 739 741
f 241 240 242
f 734 656 735
f 734 1025 656
f 248 326 1047
f 248 327 326
f 248 1047 1048
f 248 247 327
f 733 1025 734
f 733 1024 1025
f 249 248 1048
f 732 1024 733
f 250 249 1048
f 731 1024 732
f 251 250 1048
f 251 1048 1049
f 730 1024 731
f 730 1023 1024
f 252 251 1049
f 729 1023 730
f 253 1049 1050
f 253 252 1049
f 728 1023 729
f 254 253 1050
f 727 1023 728
f 727 1022 1023
f 255 254 1050
f 726 1022 727
f 256 255 1050
f 725 1022 726
f 1051 257 256
f 1051 256 1050
f 258 257 1051
f 1021 1022 725
f 1021 725 724
f 716 718 717
f 265 264 263
f 588 258 1051
f 588 259 258
f 394 1021 724
f 393 1021 394
f 589 588 1051
f 589 1051 1052
f 395 724 723
f 395 394 724
f 587 259 588
f 587 260 259
f 392 1021 393
f 392 1020 1021
f 590 589 1052
f 396 395 723
f 396 723 722
f 586 260 587
f 586 261 260
f 391 1020 392
f 591 590 1052
f 591 1052 1008
f 397 396 722
f 397 721 720
f 397 722 721
f 585 261 586
f 390 1020 391
f 592 591 1008
f 584 262 261
f 584 261 585
f 389 1019 1020
f 389 1020 390
f 398 397 720
f 398 720 719
f 583 263 262
f 583 262 584
f 593 592 1008
f 935 713 712
f 944 269 268
f 388 1019 389
f 594 1008 1009
f 594 593 1008
f 582 263 583
f 582 265 263
f 387 1019 388
f 387 1018 1019
f 595 594 1009
f 399 719 718
f 399 398 719
f 386 1018 387
f 943 944 268
f 596 595 1009
f 580 582 581
f 580 265 582
f 401 718 716
f 401 400 399
f 401 716 715
f 401 399 718
f 579 266 265
f 579 265 580
f 385 1018 386
f 597 1009 1010
f 597 596 1009
f 402 715 714
f 402 401 715
f 578 267 266
f 578 266 579
f 403 402 714
f 403 714 713
f 577 268 267
f 577 576 943
f 577 267 578
f 577 943 268
f 384 1017 1018
f 384 1018 385
f 404 403 713
f 404 935 936
f 404 936 405
f 404 713 935
f 598 597 1010
f 458 1016 459
f 524 1011 1012
f 524 523 1011
f 522 1010 1011
f 522 1011 523
f 460 1016 1017
f 460 459 1016
f 457 1015 1016
f 457 1016 458
f 521 1010 522
f 461 460 1017
f 525 524 1012
f 376 378 377
f 456 1015 457
f 526 525 1012
f 605 604 603
f 520 599 598
f 520 1010 521
f 520 598 1010
f 462 461 1017
f 462 1017 384
f 455 1015 456
f 527 1012 1013
f 527 526 1012
f 463 384 383
f 463 462 384
f 519 600 599
f 519 599 520
f 454 1014 1015
f 454 1015 455
f 528 527 1013
f 464 383 382
f 464 463 383
f 518 601 600
f 518 600 519
f 453 1014 454
f 529 528 1013
f 452 1014 453
f 465 381 380
f 465 382 381
f 465 464 382
f 530 529 1013
f 530 1013 1014
f 530 1014 452
f 517 601 518
f 531 530 452
f 451 531 452
f 516 601 517
f 516 602 601
f 466 380 379
f 466 465 380
f 532 531 451
f 450 532 451
f 515 602 516
f 515 603 602
f 533 532 450
f 449 533 450
f 514 603 515
f 514 605 603
f 448 533 449
f 467 379 378
f 467 466 379
f 534 533 448
f 447 534 448
f 512 605 514
f 512 514 513
f 469 468 467
f 469 376 375
f 469 467 378
f 469 378 376
f 511 606 605
f 511 605 512
f 470 375 374
f 470 469 375
f 535 534 447
f 535 447 446
f 510 607 606
f 510 606 511
f 444 446 445
f 537 535 446
f 537 536 535
f 537 446 444
f 471 374 373
f 471 470 374
f 443 537 444
f 509 608 607
f 509 607 510
f 941 373 372
f 930 609 608
f 472 471 373
f 472 373 941
f 538 537 443
f 942 472 941
f 929 930 608
f 929 608 509
f 508 929 509
f 473 472 942
f 442 538 443
f 539 538 442
f 441 539 442
f 540 539 441
f 933 540 441
f 933 441 440
f 934 540 933
f 934 541 540
f 1097 1053 1098
f 1097 1098 1099
f 1096 1097 1099
f 1096 1099 1100
f 1095 1096 1100
f 1095 1100 1101
f 1094 1095 1101
f 1094 1101 1102
f 1093 1094 1102
f 1093 1102 1103
f 1092 1093 1103
f 1092 1103 1104
f 1091 1092 1104
f 1091 1104 1105
f 1090 1091 1105
f 1090 1105 1106
f 1089 1090 1106
f 1089 1106 1107
f 1088 1089 1107
f 1088 1107 1108
f 1087 1088 1108
f 1087 1108 1109
f 1086 1087 1109
f 1086 1109 1110
f 1085 1086 1110
f 1085 1110 1111
f 1084 1085 1111
f 1084 1111 1112
f 1083 1084 1112
f 1083 1112 1113
f 1082 1113 1114
f 1082 1083 1113
f 1081 1114 1115
f 1081 1082 1114
f 1080 1115 1116
f 1080 1081 1115
f 1079 1116 1117
f 1079 1080 1116
f 1078 1117 1118
f 1078 1079 1117
f 1077 1118 1119
f 1077 1078 1118
f 1076 1119 1120
f 1076 1077 1119
f 1075 1120 1121
f 1075 1076 1120
f 1074 1121 1122
f 1074 1075 1121
f 1073 1122 1123
f 1073 1074 1122
f 1072 1123 1124
f 1072 1073 1123
f 1071 1072 1124
f 1071 1124 1125
f 1070 1071 1125
f 1070 1125 1126
f 1069 1070 1126
f 1069 1126 1127
f 1069 1127 1128
f 1068 1069 1128
f 1067 1068 1128
f 1067 1128 1129
f 1066 1067 1129
f 1066 1129 1130
f 1065 1066 1130
f 1065 1130 1131
f 1064 1065 1131
f 1064 1131 1132
f 1063 1064 1132
f 1063 1132 1133
f 1062 1063 1133
f 1062 1133 1134
f 1061 1062 1134
f 1061 1134 1135
f 1060 1061 1135
f 1060 1135 1136
f 1059 1060 1136
f 1059 1136 1137
f 1058 1059 1137
f 1058 1137 1138
f 1057 1058 1138
f 1057 1138 1139
f 1057 1139 1140
f 1056 1057 1140
f 1055 1056 1140
f 1055 1140 1141
f 1055 1141 1142
f 1054 1055 1142
f 1054 1142 1098
f 1053 1054 1098
f 1143 1188 1189
f 1187 1189 1190
f 1187 1143 1189
f 1186 1187 1190
f 1186 1190 1191
f 1185 1186 1191
f 1185 1191 1192
f 1184 1185 1192
f 1184 1192 1193
f 1183 1184 1193
f 1183 1193 1194
f 1182 1183 1194
f 1182 1194 1195
f 1181 1182 1195
f 1181 1195 1196
f 1180 1181 1196
f 1180 1196 1197
f 1179 1180 1197
f 1179 1197 1198
f 1178 1179 1198
f 1178 1198 1199
f 1177 1178 1199
f 1177 1199 1200
f 1176 1177 1200
f 1176 1200 1201
f 1175 1176 1201
f 1175 1201 1202
f 1174 1175 1202
f 1174 1202 1203
f 1173 1174 1203
f 1173 1203 1204
f 1172 1204 1205
f 1172 1173 1204
f 1171 1205 1206
f 1171 1172 1205
f 1170 1171 1206
f 1170 1206 1207
f 1169 1207 1208
f 1169 1170 1207
f 1168 1208 1209
f 1168 1169 1208
f 1167 1209 1210
f 1167 1168 1209
f 1166 1210 1211
f 1166 1167 1210
f 1165 1211 1212
f 1165 1166 1211
f 1164 1212 1213
f 1164 1165 1212
f 1163 1213 1214
f 1163 1164 1213
f 1162 1163 1214
f 1162 1214 1215
f 1161 1162 1215
f 1161 1215 1216
f 1160 1161 1216
f 1160 1216 1217
f 1159 1160 1217
f 1159 1217 1218
f 1158 1159 1218
f 1158 1218 1219
f 1157 1158 1219
f 1157 1219 1220
f 1156 1157 1220
f 1156 1220 1221
f 1155 1156 1221
f 1155 1221 1222
f 1154 1155 1222
f 1154 1222 1223
f 1153 1154 1223
f 1153 1223 1224
f 1152 1153 1224
f 1152 1224 1225
f 1151 1152 1225
f 1151 1225 1226
f 1150 1151 1226
f 1150 1226 1227
f 1149 1150 1227
f 1149 1227 1228
f 1148 1149 1228
f 1148 1228 1229
f 1147 1148 1229
f 1147 1229 1230
f 1146 1147 1230
f 1146 1230 1231
f 1145 1146 1231
f 1145 1231 1232
f 1144 1145 1232
f 1144 1232 1233
f 1143 1144 1233
f 1143 1233 1188
f 1053 54 98
f 1054 98 97
f 1054 1053 98
f 1055 1054 97
f 1055 97 96
f 1056 1055 96
f 1056 96 95
f 1057 1056 95
f 1057 95 94
f 1058 1057 94
f 1058 94 93
f 1059 1058 93
f 1059 93 92
f 1060 1059 92
f 1060 92 91
f 1061 1060 91
f 1061 91 90
f 1062 1061 90
f 1062 90 89
f 1063 1062 89
f 1063 89 88
f 1064 1063 88
f 1064 88 87
f 1065 1064 87
f 1065 87 86
f 1066 1065 86
f 1066 86 85
f 1067 1066 85
f 1067 85 84
f 1068 1067 84
f 1068 84 83
f 1069 1068 83
f 1069 83 82
f 1070 1069 82
f 1070 82 81
f 1071 1070 81
f 1071 81 80
f 1072 80 79
f 1072 1071 80
f 1073 1072 79
f 1074 79 78
f 1074 1073 79
f 1075 77 76
f 1075 78 77
f 1075 1074 78
f 1076 76 75
f 1076 1075 76
f 1077 1076 75
f 1078 74 73
f 1078 75 74
f 1078 1077 75
f 1079 1078 73
f 1080 1079 73
f 1080 73 72
f 1081 1080 72
f 1081 71 70
f 1081 72 71
f 1082 1081 70
f 1083 1082 70
f 1083 69 68
f 1083 70 69
f 1084 1083 68
f 1085 1084 68
f 1085 68 67
f 1086 1085 67
f 1086 67 66
f 1087 1086 66
f 1087 66 65
f 1088 1087 65
f 1088 64 63
f 1088 65 64
f 1089 1088 63
f 1090 1089 63
f 1090 63 62
f 1091 1090 62
f 1091 61 60
f 1091 62 61
f 1092 1091 60
f 1093 59 58
f 1093 60 59
f 1093 1092 60
f 1094 1093 58
f 1095 57 56
f 1095 58 57
f 1095 1094 58
f 1096 1095 56
f 1097 56 55
f 1097 1096 56
f 1053 55 54
f 1053 1097 55
f 963 1098 1142
f 964 1142 1141
f 964 963 1142
f 965 964 1141
f 965 1141 1140
f 966 965 1140
f 966 1140 1139
f 967 966 1139
f 967 1139 1138
f 968 967 1138
f 968 1138 1137
f 969 968 1137
f 969 1137 1136
f 970 969 1136
f 970 1136 1135
f 971 970 1135
f 971 1135 1134
f 972 971 1134
f 972 1134 1133
f 973 972 1133
f 973 1133 1132
f 974 973 1132
f 974 1132 1131
f 975 974 1131
f 975 1131 1130
f 976 975 1130
f 976 1130 1129
f 977 976 1129
f 977 1129 1128
f 978 977 1128
f 978 1128 1127
f 979 978 1127
f 979 1127 1126
f 980 979 1126
f 981 980 1126
f 981 1126 1125
f 982 1124 1123
f 982 1125 1124
f 982 981 1125
f 983 1123 1122
f 983 982 1123
f 984 1122 1121
f 984 983 1122
f 985 1121 1120
f 985 984 1121
f 986 985 1120
f 987 1119 1118
f 987 1120 1119
f 987 986 1120
f 988 987 1118
f 989 1118 1117
f 989 988 1118
f 990 1116 1115
f 990 1117 1116
f 990 989 1117
f 991 990 1115
f 992 991 1115
f 992 1114 1113
f 992 1115 1114
f 993 992 1113
f 993 1113 1112
f 994 993 1112
f 994 1112 1111
f 995 994 1111
f 996 995 1111
f 996 1110 1109
f 996 1111 1110
f 997 996 1109
f 997 1109 1108
f 998 997 1108
f 998 1108 1107
f 999 998 1107
f 999 1107 1106
f 1000 999 1106
f 1000 1106 1105
f 1001 1000 1105
f 1001 1105 1104
f 1002 1001 1104
f 1002 1104 1103
f 1003 1103 1102
f 1003 1002 1103
f 1004 1003 1102
f 1005 1102 1101
f 1005 1004 1102
f 1006 1100 1099
f 1006 1101 1100
f 1006 1005 1101
f 1007 1099 1098
f 1007 1006 1099
f 963 1007 1098
f 1008 1143 1187
f 1009 1187 1186
f 1009 1008 1187
f 1010 1009 1186
f 1010 1186 1185
f 1011 1010 1185
f 1011 1185 1184
f 1012 1011 1184
f 1012 1184 1183
f 1013 1012 1183
f 1013 1183 1182
f 1014 1013 1182
f 1014 1182 1181
f 1015 1014 1181
f 1015 1181 1180
f 1016 1015 1180
f 1016 1180 1179
f 1017 1016 1179
f 1017 1179 1178
f 1018 1017 1178
f 1018 1178 1177
f 1019 1018 1177
f 1019 1177 1176
f 1020 1019 1176
f 1020 1176 1175
f 1021 1020 1175
f 1021 1175 1174
f 1022 1021 1174
f 1022 1174 1173
f 1023 1022 1173
f 1024 1023 1173
f 1024 1172 1171
f 1024 1173 1172
f 1025 1024 1171
f 1025 1171 1170
f 1026 1025 1170
f 1027 1170 1169
f 1027 1026 1170
f 1028 1169 1168
f 1028 1027 1169
f 1029 1168 1167
f 1029 1028 1168
f 1030 1166 1165
f 1030 1167 1166
f 1030 1029 1167
f 1031 1030 1165
f 1032 1164 1163
f 1032 1165 1164
f 1032 1031 1165
f 1033 1032 1163
f 1034 1162 1161
f 1034 1163 1162
f 1034 1033 1163
f 1035 1034 1161
f 1035 1161 1160
f 1036 1035 1160
f 1037 1036 1160
f 1037 1159 1158
f 1037 1160 1159
f 1038 1037 1158
f 1038 1158 1157
f 1039 1038 1157
f 1039 1157 1156
f 1040 1039 1156
f 1040 1156 1155
f 1041 1040 1155
f 1041 1155 1154
f 1042 1041 1154
f 1043 1042 1154
f 1043 1154 1153
f 1044 1043 1153
f 1044 1153 1152
f 1045 1044 1152
f 1045 1152 1151
f 1046 1045 1151
f 1046 1151 1150
f 1047 1046 1150
f 1047 1150 1149
f 1048 1148 1147
f 1048 1149 1148
f 1048 1047 1149
f 1049 1147 1146
f 1049 1048 1147
f 1050 1049 1146
f 1051 1145 1144
f 1051 1146 1145
f 1051 1050 1146
f 1052 1051 1144
f 1008 1144 1143
f 1008 1052 1144
f 1212 1211 1
f 1212 1 45
f 1213 1212 45
f 1213 45 44
f 1214 1213 44
f 1214 44 43
f 1215 1214 43
f 1215 43 42
f 1216 1215 42
f 1216 42 41
f 1217 1216 41
f 1217 41 40
f 1218 1217 40
f 1218 40 39
f 1219 1218 39
f 1219 39 38
f 1220 1219 38
f 1220 38 37
f 1221 1220 37
f 1221 37 36
f 1222 1221 36
f 1222 36 35
f 1223 1222 35
f 1223 35 34
f 1224 1223 34
f 1224 34 33
f 1225 1224 33
f 1225 33 32
f 1226 32 31
f 1226 1225 32
f 1227 31 30
f 1227 1226 31
f 1228 30 29
f 1228 1227 30
f 1229 29 28
f 1229 1228 29
f 1230 28 27
f 1230 1229 28
f 1231 27 26
f 1231 1230 27
f 1232 26 25
f 1232 1231 26
f 1233 25 24
f 1233 1232 25
f 1188 24 23
f 1188 1233 24
f 1189 23 22
f 1189 1188 23
f 1190 22 21
f 1190 1189 22
f 1191 21 20
f 1191 1190 21
f 1192 1191 20
f 1192 20 19
f 1193 1192 19
f 1193 19 18
f 1194 1193 18
f 1194 18 17
f 1195 1194 17
f 1195 17 16
f 1196 1195 16
f 1196 16 15
f 1197 1196 15
f 1197 15 14
f 1198 1197 14
f 1198 14 13
f 1199 1198 13
f 1199 13 12
f 1200 1199 12
f 1200 12 11
f 1201 11 10
f 1201 1200 11
f 1202 10 9
f 1202 1201 10
f 1203 9 8
f 1203 1202 9
f 1204 8 7
f 1204 1203 8
f 1205 7 6
f 1205 1204 7
f 1206 6 5
f 1206 1205 6
f 1207 5 4
f 1207 1206 5
f 1208 4 3
f 1208 1207 4
f 1209 3 2
f 1209 1208 3
f 1210 2 1
f 1210 1209 2
f 1211 1210 1

