# https://github.com/mikedh/trimesh
v 41.47952433 24.63710664 -9.62500000
v 41.61460703 24.23112076 -9.62500000
v 41.80487743 23.84788578 -9.62500000
v 42.04663213 23.49486094 -9.62500000
v 42.33516565 23.17891746 -9.62500000
v 42.66486202 22.90620483 -9.62500000
v 43.02930406 22.68203108 -9.62500000
v 43.42139834 22.51075951 -9.62500000
v 43.83351318 22.39572372 -9.62500000
v 44.25762723 22.33916274 -9.62500000
v 44.68548560 22.34217749 -9.62500000
v 45.10876052 22.40470927 -9.62500000
v 45.51921340 22.52554098 -9.62500000
v 45.90885527 22.70232076 -9.62500000
v 46.27010217 22.93160780 -9.62500000
v 46.59592286 23.20893929 -9.62500000
v 46.87997560 23.52891728 -9.62500000
v 47.11673163 23.88531376 -9.62500000
v 47.30158276 24.27119190 -9.62500000
v 47.43093108 24.67904100 -9.62500000
v 47.50225896 25.10092274 -9.62500000
v 47.51417810 25.52862569 -9.62500000
v 47.46645649 25.95382508 -9.62500000
v 47.36002299 26.36824489 -9.62500000
v 47.19694920 26.76381892 -9.62500000
v 46.98040917 27.13284777 -9.62500000
v 46.71461761 27.46814871 -9.62500000
v 46.40474784 27.76319548 -9.62500000
v 46.05683112 28.01224534 -9.62500000
v 45.67763927 28.21045082 -9.62500000
v 45.27455281 28.35395407 -9.62500000
v 44.85541737 28.43996196 -9.62500000
v 44.42839094 28.46680046 -9.62500000
v 44.00178511 28.43394716 -9.62500000
v 43.58390327 28.34204154 -9.62500000
v 43.18287902 28.19287243 -9.62500000
v 42.80651784 27.98934323 -9.62500000
v 42.46214517 27.73541541 -9.62500000
v 42.15646383 27.43603139 -9.62500000
v 41.89542356 27.09701833 -9.62500000
v 41.68410522 26.72497474 -9.62500000
v 41.52662188 26.32714202 -9.62500000
v 41.42603876 25.91126354 -9.62500000
v 41.38431361 25.48543390 -9.62500000
v 41.40225856 25.05794138 -9.62500000
v 42.41600915 24.87761966 -9.62500000
v 42.50850510 24.59962661 -9.62500000
v 42.63879004 24.33721192 -9.62500000
v 42.80432813 24.09548320 -9.62500000
v 43.00189734 23.87914541 -9.62500000
v 43.22765223 23.69240932 -9.62500000
v 43.47719872 23.53890955 -9.62500000
v 43.74567968 23.42163378 -9.62500000
v 44.02786944 23.34286466 -9.62500000
v 44.31827549 23.30413534 -9.62500000
v 44.61124541 23.30619965 -9.62500000
v 44.90107687 23.34901739 -9.62500000
v 45.18212863 23.43175518 -9.62500000
v 45.44893034 23.55280261 -9.62500000
v 45.69628900 23.70980365 -9.62500000
v 45.91939007 23.89970243 -9.62500000
v 46.11389114 24.11880279 -9.62500000
v 46.27600645 24.36284020 -9.62500000
v 46.40258063 24.62706475 -9.62500000
v 46.49115004 24.90633360 -9.62500000
v 46.53999079 25.19521111 -9.62500000
v 46.54815225 25.48807460 -9.62500000
v 46.51547556 25.77922382 -9.62500000
v 46.44259674 26.06299188 -9.62500000
v 46.33093429 26.33385556 -9.62500000
v 46.18266159 26.58654280 -9.62500000
v 46.00066461 26.81613533 -9.62500000
v 45.78848570 27.01816440 -9.62500000
v 45.55025469 27.18869774 -9.62500000
v 45.29060848 27.32441612 -9.62500000
v 45.01460078 27.42267792 -9.62500000
v 44.72760376 27.48157060 -9.62500000
v 44.43520351 27.49994787 -9.62500000
v 44.14309125 27.47745205 -9.62500000
v 43.85695262 27.41452099 -9.62500000
v 43.58235698 27.31237956 -9.62500000
v 43.32464903 27.17301585 -9.62500000
v 43.08884476 26.99914240 -9.62500000
v 42.87953382 26.79414346 -9.62500000
v 42.70079022 26.56200910 -9.62500000
v 42.55609300 26.30725756 -9.62500000
v 42.44825852 26.03484728 -9.62500000
v 42.37938567 25.75008042 -9.62500000
v 42.35081497 25.45849964 -9.62500000
v 42.36310252 25.16578024 -9.62500000
v 41.47952433 24.63710664 9.42500000
v 41.61460703 24.23112076 9.42500000
v 41.80487743 23.84788578 9.42500000
v 42.04663213 23.49486094 9.42500000
v 42.33516565 23.17891746 9.42500000
v 42.66486202 22.90620483 9.42500000
v 43.02930406 22.68203108 9.42500000
v 43.42139834 22.51075951 9.42500000
v 43.83351318 22.39572372 9.42500000
v 44.25762723 22.33916274 9.42500000
v 44.68548560 22.34217749 9.42500000
v 45.10876052 22.40470927 9.42500000
v 45.51921340 22.52554098 9.42500000
v 45.90885527 22.70232076 9.42500000
v 46.27010217 22.93160780 9.42500000
v 46.59592286 23.20893929 9.42500000
v 46.87997560 23.52891728 9.42500000
v 47.11673163 23.88531376 9.42500000
v 47.30158276 24.27119190 9.42500000
v 47.43093108 24.67904100 9.42500000
v 47.50225896 25.10092274 9.42500000
v 47.51417810 25.52862569 9.42500000
v 47.46645649 25.95382508 9.42500000
v 47.36002299 26.36824489 9.42500000
v 47.19694920 26.76381892 9.42500000
v 46.98040917 27.13284777 9.42500000
v 46.71461761 27.46814871 9.42500000
v 46.40474784 27.76319548 9.42500000
v 46.05683112 28.01224534 9.42500000
v 45.67763927 28.21045082 9.42500000
v 45.27455281 28.35395407 9.42500000
v 44.85541737 28.43996196 9.42500000
v 44.42839094 28.46680046 9.42500000
v 44.00178511 28.43394716 9.42500000
v 43.58390327 28.34204154 9.42500000
v 43.18287902 28.19287243 9.42500000
v 42.80651784 27.98934323 9.42500000
v 42.46214517 27.73541541 9.42500000
v 42.15646383 27.43603139 9.42500000
v 41.89542356 27.09701833 9.42500000
v 41.68410522 26.72497474 9.42500000
v 41.52662188 26.32714202 9.42500000
v 41.42603876 25.91126354 9.42500000
v 41.38431361 25.48543390 9.42500000
v 41.40225856 25.05794138 9.42500000
v 42.41600915 24.87761966 9.42500000
v 42.50850510 24.59962661 9.42500000
v 42.63879004 24.33721192 9.42500000
v 42.80432813 24.09548320 9.42500000
v 43.00189734 23.87914541 9.42500000
v 43.22765223 23.69240932 9.42500000
v 43.47719872 23.53890955 9.42500000
v 43.74567968 23.42163378 9.42500000
v 44.02786944 23.34286466 9.42500000
v 44.31827549 23.30413534 9.42500000
v 44.61124541 23.30619965 9.42500000
v 44.90107687 23.34901739 9.42500000
v 45.18212863 23.43175518 9.42500000
v 45.44893034 23.55280261 9.42500000
v 45.69628900 23.70980365 9.42500000
v 45.91939007 23.89970243 9.42500000
v 46.11389114 24.11880279 9.42500000
v 46.27600645 24.36284020 9.42500000
v 46.40258063 24.62706475 9.42500000
v 46.49115004 24.90633360 9.42500000
v 46.53999079 25.19521111 9.42500000
v 46.54815225 25.48807460 9.42500000
v 46.51547556 25.77922382 9.42500000
v 46.44259674 26.06299188 9.42500000
v 46.33093429 26.33385556 9.42500000
v 46.18266159 26.58654280 9.42500000
v 46.00066461 26.81613533 9.42500000
v 45.78848570 27.01816440 9.42500000
v 45.55025469 27.18869774 9.42500000
v 45.29060848 27.32441612 9.42500000
v 45.01460078 27.42267792 9.42500000
v 44.72760376 27.48157060 9.42500000
v 44.43520351 27.49994787 9.42500000
v 44.14309125 27.47745205 9.42500000
v 43.85695262 27.41452099 9.42500000
v 43.58235698 27.31237956 9.42500000
v 43.32464903 27.17301585 9.42500000
v 43.08884476 26.99914240 9.42500000
v 42.87953382 26.79414346 9.42500000
v 42.70079022 26.56200910 9.42500000
v 42.55609300 26.30725756 9.42500000
v 42.44825852 26.03484728 9.42500000
v 42.37938567 25.75008042 9.42500000
v 42.35081497 25.45849964 9.42500000
v 42.36310252 25.16578024 9.42500000
v 41.39901373 24.61642948 -0.10000000
v 41.53775765 24.19943992 -0.10000000
v 41.73318506 23.80581789 -0.10000000
v 41.98149219 23.44322480 -0.10000000
v 42.27784601 23.11871811 -0.10000000
v 42.61647834 22.83861399 -0.10000000
v 42.99079808 22.60836432 -0.10000000
v 43.39351953 22.43245067 -0.10000000
v 43.81680416 22.31429700 -0.10000000
v 44.25241324 22.25620302 -0.10000000
v 44.69186811 22.25929947 -0.10000000
v 45.12661530 22.32352609 -0.10000000
v 45.54819294 22.44763277 -0.10000000
v 45.94839551 22.62920392 -0.10000000
v 46.31943351 22.86470547 -0.10000000
v 46.65408511 23.14955364 -0.10000000
v 46.94583670 23.47820419 -0.10000000
v 47.18900968 23.84426031 -0.10000000
v 47.37887094 24.24059713 -0.10000000
v 47.51172506 24.65950041 -0.10000000
v 47.58498619 25.09281667 -0.10000000
v 47.59722837 25.53211191 -0.10000000
v 47.54821334 25.96883573 -0.10000000
v 47.43889511 26.39448782 -0.10000000
v 47.27140143 26.80078334 -0.10000000
v 47.04899239 27.17981419 -0.10000000
v 46.77599691 27.52420300 -0.10000000
v 46.45772855 27.82724660 -0.10000000
v 46.10038204 28.08304661 -0.10000000
v 45.71091272 28.28662417 -0.10000000
v 45.29690116 28.43401688 -0.10000000
v 44.86640564 28.52235590 -0.10000000
v 44.42780526 28.54992181 -0.10000000
v 43.98963687 28.51617807 -0.10000000
v 43.56042893 28.42178148 -0.10000000
v 43.14853547 28.26856935 -0.10000000
v 42.76197355 28.05952377 -0.10000000
v 42.40826713 27.79871359 -0.10000000
v 42.09430073 27.49121518 -0.10000000
v 41.82618533 27.14301365 -0.10000000
v 41.60913950 26.76088633 -0.10000000
v 41.44738779 26.35227092 -0.10000000
v 41.34407851 25.92512063 -0.10000000
v 41.30122245 25.48774947 -0.10000000
v 41.31965378 25.04867036 -0.10000000
v 41.46610590 24.63366045 7.83750000
v 41.45268746 24.63021426 6.25000000
v 41.43926903 24.62676806 4.66250000
v 41.42585059 24.62332187 3.07500000
v 41.41243216 24.61987568 1.48750000
v 41.37000085 25.46712340 7.83750000
v 41.50232525 26.29560810 7.83750000
v 41.35615023 25.46742525 6.25000000
v 41.85326520 27.05766966 7.83750000
v 41.48906969 26.29963561 6.25000000
v 42.39679309 27.69678944 7.83750000
v 41.84158780 27.06512412 6.25000000
v 43.09259794 28.16556685 7.83750000
v 41.47581413 26.30366312 4.66250000
v 42.38755991 27.70711799 6.25000000
v 43.88907510 28.42923482 7.83750000
v 41.32844901 25.46802895 3.07500000
v 41.82991040 27.07257859 4.66250000
v 43.08649377 28.17800347 6.25000000
v 44.72715349 28.46823830 7.83750000
v 41.46255857 26.30769063 3.07500000
v 42.37832674 27.71744655 4.66250000
v 43.88655265 28.44285715 6.25000000
v 45.54467667 28.27968459 7.83750000
v 41.31459839 25.46833080 1.48750000
v 41.81823301 27.08003305 3.07500000
v 43.08038960 28.19044010 4.66250000
v 44.72839984 28.48203603 6.25000000
v 46.28101270 27.87755784 7.83750000
v 41.44930302 26.31171814 1.48750000
v 42.36909356 27.72777510 3.07500000
v 43.88403019 28.45647948 4.66250000
v 45.54959938 28.29263439 6.25000000
v 46.88155088 27.29168196 7.83750000
v 41.80655561 27.08748751 1.48750000
v 43.07428542 28.20287673 3.07500000
v 44.72964618 28.49583375 4.66250000
v 46.28924668 27.88869930 6.25000000
v 47.30175207 26.56550868 7.83750000
v 42.35986038 27.73810366 1.48750000
v 43.88150774 28.47010181 3.07500000
v 45.55452210 28.30558420 4.66250000
v 46.89248546 27.30018876 6.25000000
v 47.51045184 25.75289496 7.83750000
v 43.06818125 28.21531335 1.48750000
v 44.73089253 28.50963148 3.07500000
v 46.29748066 27.89984076 4.66250000
v 47.31457626 26.57074992 6.25000000
v 47.49217191 24.91410863 7.83750000
v 43.87898529 28.48372414 1.48750000
v 45.55944481 28.31853401 3.07500000
v 46.90342003 27.30869557 4.66250000
v 47.52421455 25.75448191 6.25000000
v 47.24826800 24.11135864 7.83750000
v 44.73213888 28.52342920 1.48750000
v 46.30571464 27.91098223 3.07500000
v 47.32740046 26.57599116 4.66250000
v 47.50585241 24.91192360 6.25000000
v 46.79682935 23.40418129 7.83750000
v 45.56436752 28.33148382 1.48750000
v 46.91435460 27.31720238 3.07500000
v 47.53797726 25.75606886 4.66250000
v 47.26085168 24.10556368 6.25000000
v 46.17133711 22.84502468 7.83750000
v 46.31394861 27.92212369 1.48750000
v 47.34022466 26.58123240 3.07500000
v 47.51953292 24.90973857 4.66250000
v 46.80738294 23.39520619 6.25000000
v 45.41818117 22.47535890 7.83750000
v 46.92528917 27.32570918 1.48750000
v 47.55173997 25.75765582 3.07500000
v 47.27343536 24.09976872 4.66250000
v 46.17907788 22.83353507 6.25000000
v 44.59321966 22.32260037 7.83750000
v 47.35304885 26.58647364 1.48750000
v 47.53321343 24.90755354 3.07500000
v 46.81793652 23.38623108 4.66250000
v 45.42253504 22.46220693 6.25000000
v 43.75763620 22.39807850 7.83750000
v 47.56550268 25.75924277 1.48750000
v 47.28601904 24.09397376 3.07500000
v 46.18681866 22.82204547 4.66250000
v 44.59386371 22.30876145 6.25000000
v 42.97340220 22.69619541 7.83750000
v 47.54689393 24.90536851 1.48750000
v 46.82849010 23.37725598 3.07500000
v 45.42688890 22.44905495 4.66250000
v 43.75452268 22.38457900 6.25000000
v 42.29868071 23.19484113 7.83750000
v 47.29860273 24.08817880 1.48750000
v 46.19455943 22.81055586 3.07500000
v 44.59450776 22.29492253 4.66250000
v 42.96676201 22.68403652 6.25000000
v 41.78351272 23.85703341 7.83750000
v 46.83904369 23.36828087 1.48750000
v 45.43124277 22.43590297 3.07500000
v 43.75140915 22.37107949 4.66250000
v 42.28900632 23.18492464 6.25000000
v 46.20230020 22.79906626 1.48750000
v 44.59515182 22.28108360 3.07500000
v 42.96012182 22.67187764 4.66250000
v 41.77152165 23.85009476 6.25000000
v 45.43559663 22.42275100 1.48750000
v 43.74829562 22.35757999 3.07500000
v 42.27933194 23.17500814 4.66250000
v 44.59579587 22.26724468 1.48750000
v 42.95348163 22.65971875 3.07500000
v 41.75953058 23.84315611 4.66250000
v 43.74518209 22.34408049 1.48750000
v 42.26965756 23.16509164 3.07500000
v 42.94684143 22.64755987 1.48750000
v 41.74753951 23.83621746 3.07500000
v 42.25998317 23.15517514 1.48750000
v 41.73554844 23.82927881 1.48750000
v 41.46610590 24.63366045 -8.03750000
v 41.45268746 24.63021426 -6.45000000
v 41.43926903 24.62676806 -4.86250000
v 41.42585059 24.62332187 -3.27500000
v 41.41243216 24.61987568 -1.68750000
v 41.78351272 23.85703341 -8.03750000
v 42.29868071 23.19484113 -8.03750000
v 41.77152165 23.85009476 -6.45000000
v 42.97340220 22.69619541 -8.03750000
v 42.28900632 23.18492464 -6.45000000
v 43.75763620 22.39807850 -8.03750000
v 41.75953058 23.84315611 -4.86250000
v 42.96676201 22.68403652 -6.45000000
v 44.59321966 22.32260037 -8.03750000
v 42.27933194 23.17500814 -4.86250000
v 43.75452268 22.38457900 -6.45000000
v 45.41818117 22.47535890 -8.03750000
v 41.74753951 23.83621746 -3.27500000
v 42.96012182 22.67187764 -4.86250000
v 44.59386371 22.30876145 -6.45000000
v 46.17133711 22.84502468 -8.03750000
v 42.26965756 23.16509164 -3.27500000
v 43.75140915 22.37107949 -4.86250000
v 45.42253504 22.46220693 -6.45000000
v 46.79682935 23.40418129 -8.03750000
v 41.73554844 23.82927881 -1.68750000
v 42.95348163 22.65971875 -3.27500000
v 44.59450776 22.29492253 -4.86250000
v 46.17907788 22.83353507 -6.45000000
v 47.24826800 24.11135864 -8.03750000
v 42.25998317 23.15517514 -1.68750000
v 43.74829562 22.35757999 -3.27500000
v 45.42688890 22.44905495 -4.86250000
v 46.80738294 23.39520619 -6.45000000
v 47.49217191 24.91410863 -8.03750000
v 42.94684143 22.64755987 -1.68750000
v 44.59515182 22.28108360 -3.27500000
v 46.18681866 22.82204547 -4.86250000
v 47.26085168 24.10556368 -6.45000000
v 47.51045184 25.75289496 -8.03750000
v 43.74518209 22.34408049 -1.68750000
v 45.43124277 22.43590297 -3.27500000
v 46.81793652 23.38623108 -4.86250000
v 47.50585241 24.91192360 -6.45000000
v 47.30175207 26.56550868 -8.03750000
v 44.59579587 22.26724468 -1.68750000
v 46.19455943 22.81055586 -3.27500000
v 47.27343536 24.09976872 -4.86250000
v 47.52421455 25.75448191 -6.45000000
v 46.88155088 27.29168196 -8.03750000
v 45.43559663 22.42275100 -1.68750000
v 46.82849010 23.37725598 -3.27500000
v 47.51953292 24.90973857 -4.86250000
v 47.31457626 26.57074992 -6.45000000
v 46.28101270 27.87755784 -8.03750000
v 46.20230020 22.79906626 -1.68750000
v 47.28601904 24.09397376 -3.27500000
v 47.53797726 25.75606886 -4.86250000
v 46.89248546 27.30018876 -6.45000000
v 45.54467667 28.27968459 -8.03750000
v 46.83904369 23.36828087 -1.68750000
v 47.53321343 24.90755354 -3.27500000
v 47.32740046 26.57599116 -4.86250000
v 46.28924668 27.88869930 -6.45000000
v 44.72715349 28.46823830 -8.03750000
v 47.29860273 24.08817880 -1.68750000
v 47.55173997 25.75765582 -3.27500000
v 46.90342003 27.30869557 -4.86250000
v 45.54959938 28.29263439 -6.45000000
v 43.88907510 28.42923482 -8.03750000
v 47.54689393 24.90536851 -1.68750000
v 47.34022466 26.58123240 -3.27500000
v 46.29748066 27.89984076 -4.86250000
v 44.72839984 28.48203603 -6.45000000
v 43.09259794 28.16556685 -8.03750000
v 47.56550268 25.75924277 -1.68750000
v 46.91435460 27.31720238 -3.27500000
v 45.55452210 28.30558420 -4.86250000
v 43.88655265 28.44285715 -6.45000000
v 42.39679309 27.69678944 -8.03750000
v 47.35304885 26.58647364 -1.68750000
v 46.30571464 27.91098223 -3.27500000
v 44.72964618 28.49583375 -4.86250000
v 43.08649377 28.17800347 -6.45000000
v 41.85326520 27.05766966 -8.03750000
v 46.92528917 27.32570918 -1.68750000
v 45.55944481 28.31853401 -3.27500000
v 43.88403019 28.45647948 -4.86250000
v 42.38755991 27.70711799 -6.45000000
v 41.50232525 26.29560810 -8.03750000
v 46.31394861 27.92212369 -1.68750000
v 44.73089253 28.50963148 -3.27500000
v 43.08038960 28.19044010 -4.86250000
v 41.84158780 27.06512412 -6.45000000
v 41.37000085 25.46712340 -8.03750000
v 45.56436752 28.33148382 -1.68750000
v 43.88150774 28.47010181 -3.27500000
v 42.37832674 27.71744655 -4.86250000
v 41.48906969 26.29963561 -6.45000000
v 44.73213888 28.52342920 -1.68750000
v 43.07428542 28.20287673 -3.27500000
v 41.82991040 27.07257859 -4.86250000
v 41.35615023 25.46742525 -6.45000000
v 43.87898529 28.48372414 -1.68750000
v 42.36909356 27.72777510 -3.27500000
v 41.47581413 26.30366312 -4.86250000
v 43.06818125 28.21531335 -1.68750000
v 41.81823301 27.08003305 -3.27500000
v 41.34229962 25.46772710 -4.86250000
v 42.35986038 27.73810366 -1.68750000
v 41.46255857 26.30769063 -3.27500000
v 41.80655561 27.08748751 -1.68750000
v 41.32844901 25.46802895 -3.27500000
v 41.44930302 26.31171814 -1.68750000
v 41.31459839 25.46833080 -1.68750000
f 75 30 29
f 75 29 74
f 73 28 27
f 73 29 28
f 73 74 29
f 76 30 75
f 76 31 30
f 72 73 27
f 77 31 76
f 77 32 31
f 71 72 27
f 71 27 26
f 78 32 77
f 78 33 32
f 78 34 33
f 70 71 26
f 70 26 25
f 79 34 78
f 69 70 25
f 69 25 24
f 80 34 79
f 80 35 34
f 80 36 35
f 68 24 23
f 68 69 24
f 81 36 80
f 67 23 22
f 67 68 23
f 82 37 36
f 82 38 37
f 82 36 81
f 66 22 21
f 66 67 22
f 83 38 82
f 65 21 20
f 65 66 21
f 84 39 38
f 84 38 83
f 64 20 19
f 64 65 20
f 85 40 39
f 85 39 84
f 18 64 19
f 63 64 18
f 41 40 85
f 41 85 86
f 17 62 63
f 17 63 18
f 42 41 86
f 42 86 87
f 16 61 62
f 16 62 17
f 60 61 16
f 43 42 87
f 43 87 88
f 15 60 16
f 44 43 88
f 44 88 89
f 44 89 90
f 14 60 15
f 14 59 60
f 45 44 90
f 13 59 14
f 13 58 59
f 1 45 90
f 1 90 46
f 12 58 13
f 12 57 58
f 2 1 46
f 2 46 47
f 2 47 48
f 11 57 12
f 11 56 57
f 3 2 48
f 10 55 56
f 10 56 11
f 4 3 48
f 4 48 49
f 9 53 54
f 9 54 55
f 9 55 10
f 5 49 50
f 5 50 51
f 5 4 49
f 8 53 9
f 6 51 52
f 6 5 51
f 7 6 52
f 7 52 53
f 7 53 8
f 165 119 120
f 165 164 119
f 163 117 118
f 163 118 119
f 163 119 164
f 166 165 120
f 166 120 121
f 162 117 163
f 167 166 121
f 167 121 122
f 161 117 162
f 161 116 117
f 168 167 122
f 168 122 123
f 168 123 124
f 160 116 161
f 160 115 116
f 169 168 124
f 159 115 160
f 159 114 115
f 170 169 124
f 170 124 125
f 170 125 126
f 158 113 114
f 158 114 159
f 171 170 126
f 157 112 113
f 157 113 158
f 172 126 127
f 172 127 128
f 172 171 126
f 156 111 112
f 156 112 157
f 173 172 128
f 155 110 111
f 155 111 156
f 174 128 129
f 174 173 128
f 154 109 110
f 154 110 155
f 175 129 130
f 175 174 129
f 108 109 154
f 153 108 154
f 131 175 130
f 131 176 175
f 107 153 152
f 107 108 153
f 132 176 131
f 132 177 176
f 106 152 151
f 106 107 152
f 150 106 151
f 133 177 132
f 133 178 177
f 105 106 150
f 134 178 133
f 134 179 178
f 134 180 179
f 104 105 150
f 104 150 149
f 135 180 134
f 103 104 149
f 103 149 148
f 91 180 135
f 91 136 180
f 102 103 148
f 102 148 147
f 92 136 91
f 92 137 136
f 92 138 137
f 101 102 147
f 101 147 146
f 93 138 92
f 100 146 145
f 100 101 146
f 94 138 93
f 94 139 138
f 99 144 143
f 99 145 144
f 99 100 145
f 95 140 139
f 95 141 140
f 95 139 94
f 98 99 143
f 96 142 141
f 96 141 95
f 97 142 96
f 97 143 142
f 97 98 143
f 226 91 135
f 225 181 230
f 226 92 91
f 181 182 230
f 231 226 135
f 231 134 133
f 231 135 134
f 232 231 133
f 232 132 131
f 232 133 132
f 233 226 231
f 233 227 226
f 233 228 227
f 234 232 131
f 234 130 129
f 234 131 130
f 235 233 231
f 235 231 232
f 236 234 129
f 236 128 127
f 236 129 128
f 237 232 234
f 237 235 232
f 238 236 127
f 238 126 125
f 238 127 126
f 239 233 235
f 239 228 233
f 240 237 234
f 240 234 236
f 241 124 123
f 241 125 124
f 241 238 125
f 242 229 228
f 242 228 239
f 243 235 237
f 243 239 235
f 243 237 240
f 244 236 238
f 244 240 236
f 245 241 123
f 245 122 121
f 245 123 122
f 246 242 239
f 247 243 240
f 248 241 245
f 248 238 241
f 248 244 238
f 249 245 121
f 249 120 119
f 249 121 120
f 250 229 242
f 250 223 224
f 250 224 225
f 250 230 229
f 250 225 230
f 251 239 243
f 251 246 239
f 252 247 240
f 252 240 244
f 252 244 248
f 253 248 245
f 254 249 119
f 254 118 117
f 254 119 118
f 255 242 246
f 255 221 222
f 255 223 250
f 255 222 223
f 255 246 251
f 255 250 242
f 256 243 247
f 256 251 243
f 257 252 248
f 258 245 249
f 258 253 245
f 259 116 115
f 259 117 116
f 259 254 117
f 260 255 251
f 260 219 220
f 260 220 221
f 260 221 255
f 261 256 247
f 261 247 252
f 262 248 253
f 262 253 258
f 262 257 248
f 263 258 249
f 263 249 254
f 264 259 115
f 264 115 114
f 265 219 260
f 265 251 256
f 265 217 218
f 265 218 219
f 265 260 251
f 265 256 261
f 266 261 252
f 266 252 257
f 267 262 258
f 268 254 259
f 268 263 254
f 269 264 114
f 269 113 112
f 269 114 113
f 270 215 216
f 270 216 217
f 270 265 261
f 270 217 265
f 271 266 257
f 271 257 262
f 272 267 258
f 272 258 263
f 272 263 268
f 273 264 269
f 273 268 259
f 273 259 264
f 274 269 112
f 274 111 110
f 274 112 111
f 275 270 261
f 275 213 214
f 275 214 215
f 275 261 266
f 275 215 270
f 276 262 267
f 276 267 272
f 276 271 262
f 277 268 273
f 277 272 268
f 278 273 269
f 279 274 110
f 279 109 108
f 279 110 109
f 280 266 271
f 280 275 266
f 280 213 275
f 280 211 212
f 280 212 213
f 281 276 272
f 282 277 273
f 283 269 274
f 283 278 269
f 284 279 108
f 284 107 106
f 284 108 107
f 285 211 280
f 285 209 210
f 285 210 211
f 285 280 271
f 285 271 276
f 286 272 277
f 286 281 272
f 287 273 278
f 287 282 273
f 288 274 279
f 288 283 274
f 289 105 104
f 289 106 105
f 289 284 106
f 290 276 281
f 290 207 208
f 290 208 209
f 290 285 276
f 290 209 285
f 290 281 286
f 291 277 282
f 291 286 277
f 292 287 278
f 292 278 283
f 293 279 284
f 293 288 279
f 294 103 102
f 294 104 103
f 294 289 104
f 295 205 206
f 295 206 207
f 295 207 290
f 295 290 286
f 295 286 291
f 296 282 287
f 296 291 282
f 297 283 288
f 297 292 283
f 298 293 284
f 298 284 289
f 299 101 100
f 299 102 101
f 299 294 102
f 300 203 204
f 300 204 205
f 300 205 295
f 300 295 291
f 301 287 292
f 301 296 287
f 302 293 298
f 302 288 293
f 302 297 288
f 303 298 289
f 303 289 294
f 304 99 98
f 304 100 99
f 304 299 100
f 305 300 291
f 305 202 203
f 305 203 300
f 305 291 296
f 306 292 297
f 306 301 292
f 306 297 302
f 307 302 298
f 308 294 299
f 308 303 294
f 309 304 98
f 309 97 96
f 309 98 97
f 310 202 305
f 310 200 201
f 310 201 202
f 310 305 296
f 310 296 301
f 311 302 307
f 311 306 302
f 312 307 298
f 312 298 303
f 313 299 304
f 313 308 299
f 314 309 96
f 314 95 94
f 314 96 95
f 315 198 199
f 315 199 200
f 315 301 306
f 315 310 301
f 315 306 311
f 315 200 310
f 316 307 312
f 316 311 307
f 317 303 308
f 317 312 303
f 317 308 313
f 318 304 309
f 318 313 304
f 319 92 226
f 319 314 94
f 319 93 92
f 319 94 93
f 319 226 227
f 320 196 197
f 320 197 198
f 320 315 311
f 320 311 316
f 320 198 315
f 321 316 312
f 321 312 317
f 322 317 313
f 323 309 314
f 323 318 309
f 324 194 195
f 324 195 196
f 324 196 320
f 324 320 316
f 325 321 317
f 326 322 313
f 326 313 318
f 327 319 227
f 327 323 314
f 327 314 319
f 328 194 324
f 328 192 193
f 328 193 194
f 328 324 316
f 328 316 321
f 329 325 317
f 329 317 322
f 330 323 327
f 330 326 318
f 330 318 323
f 331 190 191
f 331 191 192
f 331 192 328
f 331 321 325
f 331 328 321
f 331 325 329
f 332 322 326
f 332 329 322
f 333 327 227
f 333 330 327
f 333 227 228
f 334 188 189
f 334 189 190
f 334 331 329
f 334 190 331
f 335 332 326
f 335 326 330
f 336 186 187
f 336 334 329
f 336 187 188
f 336 329 332
f 336 188 334
f 336 332 335
f 337 333 228
f 337 335 330
f 337 330 333
f 337 228 229
f 338 184 185
f 338 185 186
f 338 336 335
f 338 335 337
f 338 186 336
f 339 229 230
f 339 182 183
f 339 183 184
f 339 230 182
f 339 337 229
f 339 184 338
f 339 338 337
f 340 1 2
f 182 181 344
f 340 45 1
f 181 225 344
f 345 340 2
f 345 2 3
f 345 3 4
f 346 4 5
f 346 5 6
f 346 345 4
f 347 341 340
f 347 340 345
f 348 346 6
f 348 6 7
f 348 7 8
f 349 346 348
f 349 345 346
f 349 347 345
f 350 348 8
f 350 8 9
f 350 9 10
f 351 342 341
f 351 341 347
f 352 349 348
f 353 350 10
f 353 10 11
f 353 11 12
f 354 349 352
f 354 347 349
f 354 351 347
f 355 352 348
f 355 350 353
f 355 348 350
f 356 353 12
f 356 12 13
f 356 13 14
f 357 343 342
f 357 342 351
f 358 354 352
f 359 353 356
f 359 355 353
f 360 356 14
f 360 14 15
f 360 15 16
f 361 357 351
f 361 351 354
f 362 355 359
f 362 352 355
f 362 358 352
f 363 359 356
f 364 360 16
f 364 16 17
f 364 17 18
f 365 183 182
f 365 184 183
f 365 357 361
f 365 343 357
f 365 344 343
f 365 182 344
f 366 361 354
f 366 354 358
f 367 359 363
f 367 362 359
f 368 363 356
f 368 356 360
f 369 364 18
f 369 18 19
f 369 19 20
f 370 185 184
f 370 186 185
f 370 184 365
f 370 365 361
f 371 366 358
f 371 358 362
f 372 367 363
f 373 360 364
f 373 364 369
f 373 368 360
f 374 369 20
f 374 20 21
f 374 21 22
f 375 187 186
f 375 188 187
f 375 186 370
f 375 370 361
f 375 361 366
f 376 362 367
f 376 371 362
f 377 363 368
f 377 372 363
f 378 373 369
f 379 374 22
f 379 22 23
f 380 375 366
f 380 189 188
f 380 190 189
f 380 366 371
f 380 188 375
f 380 371 376
f 381 367 372
f 381 376 367
f 382 377 368
f 382 373 378
f 382 368 373
f 383 378 369
f 383 374 379
f 383 369 374
f 384 379 23
f 384 23 24
f 384 24 25
f 385 190 380
f 385 191 190
f 385 192 191
f 385 380 376
f 385 376 381
f 386 381 372
f 386 372 377
f 387 382 378
f 388 383 379
f 388 379 384
f 389 384 25
f 389 25 26
f 389 26 27
f 390 192 385
f 390 193 192
f 390 194 193
f 390 385 381
f 391 377 382
f 391 382 387
f 391 386 377
f 392 383 388
f 392 387 378
f 392 378 383
f 393 388 384
f 394 389 27
f 394 27 28
f 394 28 29
f 395 195 194
f 395 196 195
f 395 390 381
f 395 381 386
f 395 194 390
f 396 391 387
f 397 388 393
f 397 392 388
f 398 384 389
f 398 393 384
f 399 394 29
f 399 29 30
f 399 30 31
f 400 196 395
f 400 197 196
f 400 198 197
f 400 386 391
f 400 395 386
f 400 391 396
f 401 387 392
f 401 396 387
f 402 397 393
f 403 389 394
f 403 398 389
f 404 31 32
f 404 399 31
f 404 32 33
f 405 199 198
f 405 198 400
f 405 200 199
f 405 400 396
f 406 392 397
f 406 401 392
f 406 397 402
f 407 402 393
f 407 393 398
f 408 394 399
f 408 403 394
f 409 404 33
f 409 33 34
f 409 34 35
f 410 201 200
f 410 202 201
f 410 200 405
f 410 396 401
f 410 405 396
f 410 401 406
f 411 406 402
f 412 398 403
f 412 407 398
f 413 408 399
f 413 399 404
f 413 404 409
f 414 409 35
f 414 35 36
f 414 36 37
f 415 203 202
f 415 204 203
f 415 202 410
f 415 410 406
f 415 406 411
f 416 402 407
f 416 411 402
f 417 412 403
f 417 408 413
f 417 403 408
f 418 413 409
f 418 409 414
f 419 414 37
f 419 37 38
f 419 38 39
f 420 415 411
f 420 205 204
f 420 204 415
f 421 407 412
f 421 416 407
f 422 417 413
f 423 418 414
f 424 419 39
f 424 39 40
f 424 40 41
f 425 206 205
f 425 207 206
f 425 416 421
f 425 205 420
f 425 411 416
f 425 420 411
f 426 412 417
f 426 421 412
f 427 422 413
f 427 413 418
f 427 418 423
f 428 419 424
f 428 423 414
f 428 414 419
f 429 424 41
f 429 41 42
f 429 42 43
f 430 425 421
f 430 208 207
f 430 209 208
f 430 207 425
f 431 417 422
f 431 422 427
f 431 426 417
f 432 427 423
f 433 428 424
f 434 429 43
f 434 45 340
f 434 43 44
f 434 44 45
f 435 421 426
f 435 209 430
f 435 210 209
f 435 211 210
f 435 430 421
f 436 431 427
f 436 427 432
f 437 423 428
f 437 432 423
f 437 428 433
f 438 433 424
f 438 429 434
f 438 424 429
f 439 426 431
f 439 211 435
f 439 212 211
f 439 213 212
f 439 435 426
f 439 431 436
f 440 436 432
f 441 437 433
f 442 438 434
f 442 434 340
f 442 340 341
f 443 214 213
f 443 215 214
f 443 213 439
f 443 439 436
f 443 436 440
f 444 432 437
f 444 437 441
f 444 440 432
f 445 433 438
f 445 441 433
f 446 216 215
f 446 217 216
f 446 215 443
f 446 443 440
f 447 444 441
f 448 438 442
f 448 445 438
f 448 442 341
f 448 341 342
f 449 446 440
f 449 218 217
f 449 219 218
f 449 217 446
f 449 440 444
f 450 447 441
f 450 441 445
f 450 445 448
f 451 219 449
f 451 449 444
f 451 220 219
f 451 221 220
f 451 444 447
f 452 448 342
f 452 450 448
f 452 342 343
f 453 221 451
f 453 451 447
f 453 222 221
f 453 223 222
f 453 447 450
f 454 343 344
f 454 453 450
f 454 344 225
f 454 450 452
f 454 223 453
f 454 224 223
f 454 225 224
f 454 452 343
f 46 180 136
f 90 180 46
f 90 179 180
f 89 179 90
f 89 178 179
f 88 178 89
f 88 177 178
f 87 177 88
f 87 176 177
f 86 176 87
f 86 175 176
f 85 175 86
f 85 174 175
f 84 174 85
f 84 173 174
f 83 173 84
f 83 172 173
f 82 172 83
f 82 171 172
f 81 171 82
f 81 170 171
f 80 170 81
f 80 169 170
f 79 169 80
f 79 168 169
f 78 168 79
f 77 168 78
f 77 167 168
f 76 167 77
f 76 166 167
f 75 166 76
f 75 165 166
f 74 165 75
f 74 164 165
f 73 164 74
f 73 163 164
f 72 162 163
f 72 163 73
f 71 161 162
f 71 162 72
f 70 160 161
f 70 161 71
f 69 159 160
f 69 160 70
f 68 157 158
f 68 158 159
f 68 159 69
f 67 156 157
f 67 157 68
f 66 156 67
f 65 156 66
f 65 155 156
f 64 155 65
f 64 153 154
f 64 154 155
f 63 153 64
f 63 152 153
f 62 152 63
f 61 152 62
f 61 150 151
f 61 151 152
f 60 150 61
f 59 150 60
f 59 149 150
f 58 149 59
f 58 148 149
f 57 148 58
f 57 146 147
f 57 147 148
f 56 146 57
f 55 146 56
f 55 145 146
f 54 145 55
f 54 143 144
f 54 144 145
f 53 143 54
f 52 143 53
f 52 141 142
f 52 142 143
f 51 140 141
f 51 141 52
f 50 140 51
f 49 138 139
f 49 139 140
f 49 140 50
f 48 137 138
f 48 138 49
f 47 137 48
f 46 136 137
f 46 137 47

