# https://github.com/mikedh/trimesh
v 8.91256917 4.73850000 -6.00000000
v 8.91256917 4.73273558 -6.05852710
v 8.91256917 4.68794088 -6.16667107
v 8.91256917 4.60517107 -6.24944088
v 8.91256917 4.55330503 -6.27716386
v 8.91256917 4.49702710 -6.29423558
v 9.14876238 4.62030739 -6.03914488
v 9.14238250 4.63133628 -6.00000000
v 9.10540545 4.66831333 -6.00000000
v 9.06256917 4.69830762 -6.00000000
v 9.01517521 4.72040779 -6.00000000
v 8.96466362 4.73394233 -6.00000000
v 9.16738466 4.58561779 -6.05852710
v 9.15260011 4.57708193 -6.11480503
v 9.09628090 4.54456602 -6.21213203
v 9.01199324 4.49590251 -6.27716386
v 8.96325512 4.46776355 -6.29423558
v 8.98946337 4.54617919 -6.27705016
v 8.92403766 4.46752125 -6.29888960
v 8.98160451 4.63617744 -6.22479860
v 9.05217509 4.68593329 -6.13646261
v 11.28135612 0.93564065 -6.00000000
v 11.27636399 0.93275844 -6.05852710
v 11.23757064 0.91036109 -6.16667107
v 11.16588988 0.86897618 -6.24944088
v 11.12097257 0.84304316 -6.27716386
v 11.07223445 0.81490419 -6.29423558
v 10.28931391 0.03337632 -6.31011779
v 11.32154850 0.78564065 -6.00000000
v 11.31699083 0.83773510 -6.00000000
v 11.30345629 0.88824669 -6.00000000
v 11.30080325 0.86665025 -6.09731140
v 11.15945718 -0.06025852 -6.31049166
v 11.31033639 0.86349365 -6.03763484
v 11.31699083 0.82554731 -6.03348567
v 11.32154850 -0.78564065 -6.00000000
v 11.22704295 0.76200055 -6.23773297
v 11.28135612 -0.93564065 -6.00000000
v 11.30345629 -0.88824669 -6.00000000
v 11.31699083 -0.83773510 -6.00000000
v 11.26157944 -0.92422258 -6.11480503
v 11.23757064 -0.91036109 -6.16667107
v 11.20526023 -0.89170666 -6.21213203
v 11.16588988 -0.86897618 -6.24944088
v 11.12097257 -0.84304316 -6.27716386
v 11.07223445 -0.81490419 -6.29423558
v 11.27802587 -0.80374098 -6.18478397
v 11.30550203 -0.88122677 -6.04346397
v 11.31699083 -0.82554731 -6.03348567
v 9.16738466 -4.58561779 -6.05852710
v 9.15260011 -4.57708193 -6.11480503
v 9.12859131 -4.56322044 -6.16667107
v 9.09628090 -4.54456602 -6.21213203
v 9.05691055 -4.52183553 -6.24944088
v 9.01199324 -4.49590251 -6.27716386
v 8.96325512 -4.46776355 -6.29423558
v 8.96466362 -4.73394233 -6.00000000
v 9.01517521 -4.72040779 -6.00000000
v 9.06256917 -4.69830762 -6.00000000
v 9.10540545 -4.66831333 -6.00000000
v 9.14238250 -4.63133628 -6.00000000
v 8.91256917 -4.73273558 -6.05852710
v 8.91256917 -4.71566386 -6.11480503
v 8.91256917 -4.65063203 -6.21213203
v 8.91256917 -4.55330503 -6.27716386
v 8.91256917 -4.49702710 -6.29423558
v 8.95187283 -4.73421816 -6.04582421
v 9.05646832 -4.67973467 -6.14394351
v 9.14793275 -4.62406242 -6.02548844
v 9.01174954 -4.61694430 -6.23344038
v 3.72969580 -4.73850000 -6.00000000
v 3.73383238 -4.71671897 -6.10229640
v 3.74000660 -4.68455180 -6.16617354
v 3.75749674 -4.59515145 -6.25699116
v 3.77259216 -4.51623002 -6.28918065
v 3.78743083 -4.43850000 -6.30000000
v 3.55649072 -4.63850000 -6.00000000
v 3.58827445 -4.67992136 -6.00000000
v 3.62969580 -4.71170508 -6.00000000
v 3.73976859 -4.47967023 -6.29310213
v 3.69104149 -4.52168411 -6.27246924
v 3.62028776 -4.58327261 -6.20634431
v 3.57593013 -4.62174361 -6.11070230
v 3.68675734 -4.68538604 -6.19668366
v 1.39806674 -0.90000000 -6.00000000
v 1.40305887 -0.89711779 -6.05852710
v 1.44185222 -0.87472044 -6.16667107
v 1.51353298 -0.83333553 -6.24944088
v 1.55845029 -0.80740251 -6.27716386
v 1.60718841 -0.77926355 -6.29423558
v 1.17185647 -0.74174159 -6.10269401
v 1.36399200 -0.64783231 -6.27019375
v 1.58018512 -0.63652585 -6.29999186
v 1.19035357 -0.75455767 -6.00000000
v 1.24086516 -0.76809221 -6.00000000
v 1.33109540 -0.82018667 -6.00000000
v 1.36807245 -0.85716372 -6.00000000
v 1.32503224 -0.79084843 -6.09089138
v 0.63101969 -0.60176381 -6.17434210
v 0.63962653 -0.65000000 -6.15631085
v 0.65331805 -0.69142136 -6.12762727
v 0.67116118 -0.72320508 -6.09024611
v 0.69193995 -0.74318517 -6.04671482
v 0.81662978 -0.59442517 -6.26977023
v -4.56859233 -2.35234380 0.04524805
v -8.13000000 -2.28000000 0.00000000
v -5.76439845 -2.33839648 0.00264597
v -1.80013483 -2.86294685 -0.52354267
v -4.27104564 -2.46961355 -0.11625431
v -4.05476054 -2.46786210 -0.13332893
v -4.05040994 -2.43080778 -0.08786797
v -4.04510871 -2.38565697 -0.05055912
v -4.03906058 -2.33414477 -0.02283614
v -4.08353827 -2.09049927 0.04396306
v 0.41363696 -3.28986530 -0.13332893
v 0.42275789 -3.25368853 -0.08786797
v 0.43387178 -3.20960700 -0.05055912
v 0.44655153 -3.15931476 -0.02283614
v 0.46030986 -3.10474449 -0.00576442
v 0.47461804 -3.04799330 0.00000000
v -1.89330259 -2.52929172 -0.00000036
v -1.02487218 -2.76436772 -0.00576442
v -1.03625182 -2.81948314 -0.02283614
v -1.04673936 -2.87027780 -0.05055912
v -1.05593176 -2.91479970 -0.08786797
v -1.06347577 -2.95133787 -0.13332893
v -1.06908148 -2.97848818 -0.18519497
v -2.52341403 -2.48869704 -0.00576442
v -2.53239359 -2.54425397 -0.02283614
v -2.54066920 -2.59545554 -0.05055912
v -2.54792284 -2.64033409 -0.08786797
v -2.55387575 -2.67716496 -0.13332893
v -2.55829915 -2.70453277 -0.18519497
v 1.29444890 -3.65040996 -0.24147290
v 1.30166373 -3.63493773 -0.18519497
v 1.32914736 -3.57599888 -0.08786797
v 1.34836000 -3.53479725 -0.05055912
v 1.39406361 -3.43678552 -0.00576442
v 1.05284174 -3.22514965 -0.00000093
v 0.81109056 -3.42370689 -0.14737265
v 1.05163459 -3.54722466 -0.25342085
v 1.01535726 -3.32007973 -0.01541788
v 3.61422575 -4.73850000 -0.30000000
v 3.61823670 -4.72040779 -0.19739396
v 3.62516719 -4.68914634 -0.13514731
v 3.63999107 -4.62228016 -0.06288220
v 3.65920312 -4.53562018 -0.01615555
v 3.68073415 -4.43850000 0.00000000
v 8.91256917 -4.73850000 -0.30000000
v 8.91256917 -4.73273558 -0.24147290
v 8.91256917 -4.71566386 -0.18519497
v 8.91256917 -4.65063203 -0.08786797
v 8.91256917 -4.60517107 -0.05055912
v 8.91256917 -4.49702710 -0.00576442
v 8.91256917 -4.43850000 0.00000000
v 9.17237679 -4.58850000 -0.30000000
v 9.14238250 -4.63133628 -0.30000000
v 9.06256917 -4.69830762 -0.30000000
v 9.01517521 -4.72040779 -0.30000000
v 8.96466362 -4.73394233 -0.30000000
v 9.16738466 -4.58561779 -0.24147290
v 9.15260011 -4.57708193 -0.18519497
v 9.12859131 -4.56322044 -0.13332893
v 9.09628090 -4.54456602 -0.08786797
v 9.05691055 -4.52183553 -0.05055912
v 9.01199324 -4.49590251 -0.02283614
v 8.96325512 -4.46776355 -0.00576442
v 9.00160657 -4.56996237 -0.03904689
v 9.06099586 -4.68914302 -0.17711876
v 11.28135612 -0.93564065 -0.30000000
v 11.27636399 -0.93275844 -0.24147290
v 11.26157944 -0.92422258 -0.18519497
v 11.23757064 -0.91036109 -0.13332893
v 11.20526023 -0.89170666 -0.08786797
v 11.16588988 -0.86897618 -0.05055912
v 11.12097257 -0.84304316 -0.02283614
v 11.07223445 -0.81490419 -0.00576442
v 11.31699083 -0.83773510 -0.30000000
v 11.30345629 -0.88824669 -0.30000000
v 11.31578409 -0.78564065 -0.24147290
v 11.29871236 -0.78564065 -0.18519497
v 11.27098938 -0.78564065 -0.13332893
v 11.21079892 0.13313894 -0.05182063
v 11.13615048 0.03139627 0.01488014
v 11.27440671 -0.88147871 -0.12802364
v 11.31799636 -0.81820800 -0.26337144
v 11.32154850 0.78564065 -0.30000000
v 11.31578409 0.78564065 -0.24147290
v 11.29871236 0.78564065 -0.18519497
v 11.27098938 0.78564065 -0.13332893
v 11.02154850 0.78564065 0.00000000
v 11.28135612 0.93564065 -0.30000000
v 11.30345629 0.88824669 -0.30000000
v 11.31699083 0.83773510 -0.30000000
v 11.26157944 0.92422258 -0.18519497
v 11.23757064 0.91036109 -0.13332893
v 11.20526023 0.89170666 -0.08786797
v 11.16588988 0.86897618 -0.05055912
v 11.12097257 0.84304316 -0.02283614
v 11.07223445 0.81490419 -0.00576442
v 11.27663027 0.80551732 -0.11277966
v 11.30643995 0.87912595 -0.25719851
v 11.31699083 0.81912632 -0.26009333
v 9.17237679 4.58850000 -0.30000000
v 9.16738466 4.58561779 -0.24147290
v 9.15260011 4.57708193 -0.18519497
v 9.12859131 4.56322044 -0.13332893
v 9.09628090 4.54456602 -0.08786797
v 9.05691055 4.52183553 -0.05055912
v 9.01199324 4.49590251 -0.02283614
v 8.96325512 4.46776355 -0.00576442
v 8.91256917 4.43850000 0.00000000
v 8.91256917 4.73850000 -0.30000000
v 8.96466362 4.73394233 -0.30000000
v 9.01517521 4.72040779 -0.30000000
v 9.06256917 4.69830762 -0.30000000
v 9.10540545 4.66831333 -0.30000000
v 9.14238250 4.63133628 -0.30000000
v 8.91256917 4.71566386 -0.18519497
v 8.91256917 4.68794088 -0.13332893
v 8.91256917 4.65063203 -0.08786797
v 8.91256917 4.55330503 -0.02283614
v 8.91256917 4.49702710 -0.00576442
v 9.06406191 4.69805340 -0.20883742
v 9.01491022 4.61846107 -0.06843726
v 3.68073415 4.73850000 -0.30000000
v 3.65899190 4.73148141 -0.23477326
v 3.63847232 4.71039234 -0.17321452
v 3.60664261 4.66586502 -0.10727990
v 3.55933826 4.59968988 -0.04698257
v 3.50804558 4.52793538 -0.01077501
v 3.44411399 4.43850000 0.00000000
v 3.61548682 4.73147685 -0.27825089
v 3.42223766 4.48541394 -0.00681483
v 3.40185216 4.52913078 -0.02679492
v 3.38434674 4.56667128 -0.05857864
v 3.37091436 4.59547711 -0.10000000
v 3.49094311 4.61728563 -0.06544293
v 3.56574923 4.71189203 -0.19463150
v 3.68073415 4.73850000 -2.02076915
v 3.61719260 4.73168677 -1.98991136
v 3.49744755 4.61055147 -2.08388503
v 3.52588969 4.62789949 -2.11038458
v -7.03721995 -0.75000000 -2.30000000
v -7.56306711 -0.72777353 -2.15059566
v -7.84584940 -0.68719786 -2.07519129
v -7.95258151 -0.65815391 -2.04945423
v -8.02862898 -0.62517331 -2.03218343
v -8.08913142 -0.55000000 -2.01950778
v -8.11677459 -0.55000000 -2.00875029
v -8.14570480 -0.55000000 -2.00219967
v -7.55805274 -1.25380577 -2.00480935
v -7.03721995 -0.75576442 -2.24147290
v -7.03721995 -0.77283614 -2.18519497
v -7.03721995 -0.80055912 -2.13332893
v -7.03721995 -0.88332893 -2.05055912
v -7.03721995 -0.93519497 -2.02283614
v -7.03721995 -0.99147290 -2.00576442
v -7.81808472 -0.78948941 -2.01947458
v -7.18865369 -0.85130154 -2.05853989
v 1.13825912 -0.75000000 -2.30000000
v 1.16585852 -0.75918267 -2.21720181
v 1.18825912 -0.79019238 -2.15000000
v 1.20969049 -0.84248251 -2.08570588
v 1.22486166 -0.90000000 -2.04019238
v 1.25372917 -1.05000000 -2.00000000
v 1.23873718 -0.97209934 -2.01008299
v 1.39806674 -0.90000000 -2.21339746
v 1.35250124 -0.84243323 -2.22858596
v 1.28825912 -0.79019238 -2.25000000
v 1.22099392 -0.75916333 -2.27242173
v 1.32363207 -0.84605618 -2.10606420
v 1.19044656 -0.75689717 -2.24781256
v 1.29855795 -1.02411810 -2.00681483
v 1.34033171 -1.00000000 -2.02679492
v 1.37620366 -0.97928932 -2.05857864
v 1.42103243 -0.95340742 -2.14823619
v 1.42693425 -0.95000000 -2.20000000
v -8.08913142 0.55000000 -2.01950778
v -7.99418603 0.64226320 -2.03987275
v -7.87854075 0.67952486 -2.06715333
v -7.63840220 0.71999319 -2.12960953
v -7.34303666 0.74252279 -2.21413050
v -7.03721995 0.75000000 -2.30000000
v -7.03721995 0.99147290 -2.00576442
v -7.03721995 0.93519497 -2.02283614
v -7.03721995 0.88332893 -2.05055912
v -7.03721995 0.80055912 -2.13332893
v -7.03721995 0.77283614 -2.18519497
v -7.03721995 0.75576442 -2.24147290
v -7.23629049 1.04694411 -2.00031427
v -8.11677459 0.55000000 -2.00875029
v -8.45231748 2.09336993 -1.97441347
v -7.82334319 0.79342216 -2.01958143
v -7.21344130 0.84758157 -2.06441897
v 1.25372917 1.05000000 -2.00000000
v 1.23874186 0.97212363 -2.01007648
v 1.22486166 0.90000000 -2.04019238
v 1.13825912 0.75000000 -2.30000000
v 1.20967316 0.84243322 -2.08575788
v 1.18825912 0.79019238 -2.15000000
v 1.16583739 0.75916333 -2.21726520
v 1.42693425 0.95000000 -2.20000000
v 1.42103243 0.95340742 -2.14823619
v 1.40372917 0.96339746 -2.10000000
v 1.37620366 0.97928932 -2.05857864
v 1.34033171 1.00000000 -2.02679492
v 1.29855795 1.02411810 -2.00681483
v 1.39806674 0.90000000 -2.21339746
v 1.22105731 0.75918267 -2.27240060
v 1.28825912 0.79019238 -2.25000000
v 1.35255324 0.84248251 -2.22856863
v 1.19044656 0.75689717 -2.24781256
v 1.31989580 0.84374046 -2.10649107
v 1.39806674 0.90000000 -6.10000000
v 1.36807245 0.85716372 -6.10000000
v 1.33109540 0.82018667 -6.10000000
v 1.24086516 0.76809221 -6.10000000
v 1.19035357 0.75455767 -6.10000000
v 1.16128031 0.74720516 -6.15911605
v 1.28213903 0.76146776 -6.19817489
v 1.42693425 0.55000000 -6.30000000
v 1.41734866 0.66621921 -6.28903031
v 1.41150532 0.73706589 -6.26803881
v 1.40558117 0.80889235 -6.23487670
v 1.40133772 0.86034154 -6.19347999
v 1.36736993 0.65316844 -6.27902887
v 3.72969580 4.73850000 -6.00000000
v 3.67196078 4.43850000 -6.30000000
v 3.68378412 4.50036182 -6.29310213
v 3.69580566 4.56356767 -6.27246924
v 3.71376600 4.65563645 -6.20634431
v 3.72490405 4.71328679 -6.11070230
v 3.55650604 4.63077641 -6.11047643
v 3.67793199 4.73168517 -6.00000000
v 3.62969580 4.71170508 -6.00000000
v 3.58827445 4.67992136 -6.00000000
v 3.50465752 4.53509258 -6.15176381
v 3.52196078 4.52510254 -6.20000000
v 3.54948629 4.50921068 -6.24142136
v 3.58535824 4.48850000 -6.27320508
v 3.62713200 4.46438190 -6.29318517
v 3.65760172 4.65004745 -6.21511029
v 1.30333678 3.63134985 -0.10000000
v 1.31676916 3.60254402 -0.05857864
v 1.33427458 3.56500352 -0.02679492
v 1.35466008 3.52128668 -0.00681483
v 0.40294275 3.33228223 -0.14823619
v 0.41559750 3.28208911 -0.05857864
v 0.42572383 3.24192462 -0.02679492
v 0.43751618 3.19515208 -0.00681483
v 0.45017093 3.14495896 0.00000000
v 0.98572419 3.30552908 -0.00000150
v 0.62033751 3.39503809 -0.16009219
v 0.71596634 3.37777975 -0.05427024
v -4.13630151 2.50927833 -0.20000000
v -4.13323502 2.48265946 -0.10000000
v -4.12959760 2.45108456 -0.05857864
v -4.11933694 2.36201608 -0.00681483
v -1.05826322 2.79983064 0.00000000
v -2.58044417 2.52152811 0.00000000
v -2.61206838 2.71901206 -0.20000000
v -1.09856160 2.99572868 -0.20000000
v -2.58862912 2.57264072 -0.00681483
v -2.59625628 2.62027008 -0.02679492
v -2.60280586 2.66117035 -0.05857864
v -2.60783154 2.69255423 -0.10000000
v -2.61099081 2.71228295 -0.14823619
v -1.06869321 2.85053278 -0.00681483
v -1.07841241 2.89777966 -0.02679492
v -1.08675848 2.93835147 -0.05857864
v -1.09316264 2.96948332 -0.10000000
v -1.09718847 2.98905361 -0.14823619
v -4.22446476 2.49349384 -0.16550664
v -4.58724181 2.46029754 -0.13572221
v -4.39915879 2.43444649 -0.03254790
v -8.13000000 2.28000000 0.00000000
v -6.94554550 2.29579805 0.00567552
v -5.75978611 2.33225706 0.02423894
v 8.49649856 -2.14567816 0.54020378
v 8.49696095 -2.14517977 -0.03716748
v 4.21000414 -2.15573788 0.54022187
v 4.19832898 -2.13592824 -0.03728688
v 8.49567816 2.14649856 0.54020378
v 8.49498048 2.14709028 -0.03905149
v 4.20350144 2.14567816 0.54020378
v -4.57000000 2.28000000 0.19920230
v -6.94106127 2.28380036 0.04707412
v -5.75226912 2.30641228 0.06156440
v -4.49755103 2.27472330 0.20000000
v -4.07000000 1.78000000 0.20000000
v -4.06318517 1.78000000 0.14823619
v -4.04320508 1.78000000 0.10000000
v -4.01142136 1.78000000 0.05857864
v -3.97000000 1.78000000 0.02679492
v -3.92176381 1.78000000 0.00681483
v -3.89578198 2.01377962 0.00013500
v -4.07419191 1.84460913 0.20000000
v -4.08669736 1.90813492 0.20000000
v -4.10730665 1.96951218 0.20000000
v -4.13567423 2.02771178 0.20000000
v -4.17132442 2.08175783 0.20000000
v -4.21365947 2.13074411 0.20000000
v -4.26196951 2.17384923 0.20000000
v -4.31544450 2.21035043 0.20000000
v -4.37318778 2.23963567 0.20000000
v -4.43423114 2.26121390 0.20000000
v -4.17487837 2.22942706 0.05876449
v -3.87000000 -1.78000000 0.00000000
v -4.06318517 -1.78000000 0.14823619
v -4.04320508 -1.78000000 0.10000000
v -4.01142136 -1.78000000 0.05857864
v -3.97000000 -1.78000000 0.02679492
v -3.92176381 -1.78000000 0.00681483
v -4.49755103 -2.27472330 0.20000000
v -4.43423114 -2.26121390 0.20000000
v -4.37318778 -2.23963567 0.20000000
v -4.31544450 -2.21035043 0.20000000
v -4.26196951 -2.17384923 0.20000000
v -4.21365947 -2.13074411 0.20000000
v -4.17132442 -2.08175783 0.20000000
v -4.13567423 -2.02771178 0.20000000
v -4.10730665 -1.96951218 0.20000000
v -4.08669736 -1.90813492 0.20000000
v -4.07419191 -1.84460913 0.20000000
v -4.37314963 -2.28307543 0.08643261
v -4.06973077 -1.83830750 0.16318721
v -4.57000000 -2.28000000 0.19920230
v -6.94287353 -2.28073282 0.07056105
v -5.75378768 -2.29312946 0.09048708
v -8.41571619 2.07861401 3.16816932
v -8.60320508 -1.78000000 3.07500000
v -8.63000000 -1.78000000 2.97500000
v -8.13000000 -2.28000000 2.97500000
v -8.19526310 -2.27572243 2.97500000
v -8.25940952 -2.26296291 2.97500000
v -8.38000000 -2.21301270 2.97500000
v -8.43438071 -2.17667667 2.97500000
v -8.48355339 -2.13355339 2.97500000
v -8.52667667 -2.08438071 2.97500000
v -8.56301270 -2.03000000 2.97500000
v -8.59193977 -1.97134172 2.97500000
v -8.61296291 -1.90940952 2.97500000
v -8.62572243 -1.84526310 2.97500000
v -8.13000000 -2.27318517 3.02676381
v -8.13000000 -2.25320508 3.07500000
v -8.13000000 -2.22142136 3.11642136
v -8.13000000 -2.18000000 3.14820508
v -8.13000000 -2.13176381 3.16818517
v -8.58611446 -1.97923934 3.05429238
v -8.53041261 -1.95203442 3.13315297
v -8.31845029 -2.22994752 3.07177368
v -8.35066906 -2.10668456 3.16989113
v -4.57000000 -2.28000000 2.97500000
v -4.57000000 -2.27318517 3.02676381
v -4.57000000 -2.25320508 3.07500000
v -4.57000000 -2.22142136 3.11642136
v -4.57000000 -2.13176381 3.16818517
v -4.57000000 -2.08000000 3.17500000
v -8.50259350 2.06805180 3.11707235
v -8.57142136 1.78000000 3.11642136
v -8.62318517 1.78000000 3.02676381
v -8.63000000 1.78000000 2.97500000
v -4.07000000 -1.78000000 2.97500000
v -4.07681483 -1.78000000 3.02676381
v -4.09679492 -1.78000000 3.07500000
v -4.17000000 -1.78000000 3.14820508
v -5.52032574 -0.77897798 3.16702199
v -4.07427757 -1.84526310 2.97500000
v -4.08703709 -1.90940952 2.97500000
v -4.10806023 -1.97134172 2.97500000
v -4.13698730 -2.03000000 2.97500000
v -4.17332333 -2.08438071 2.97500000
v -4.21644661 -2.13355339 2.97500000
v -4.26561929 -2.17667667 2.97500000
v -4.32000000 -2.21301270 2.97500000
v -4.37865828 -2.24193977 2.97500000
v -4.44059048 -2.26296291 2.97500000
v -4.50473690 -2.27572243 2.97500000
v -4.37457393 -2.18748980 3.13899430
v -4.15153551 -1.95386222 3.13363010
v -8.13000000 2.18000000 3.14820508
v -8.13000000 2.22142136 3.11642136
v -8.13000000 2.27318517 3.02676381
v -8.13000000 2.28000000 2.97500000
v -8.61296291 1.90940952 2.97500000
v -8.56301270 2.03000000 2.97500000
v -8.52667667 2.08438071 2.97500000
v -8.48355339 2.13355339 2.97500000
v -8.43438071 2.17667667 2.97500000
v -8.38000000 2.21301270 2.97500000
v -8.32134172 2.24193977 2.97500000
v -8.25940952 2.26296291 2.97500000
v -8.19526310 2.27572243 2.97500000
v -8.24499179 2.25384858 3.05649373
v -8.60174408 1.93509769 3.02172843
v -8.61407899 1.85414240 3.05021154
v -4.07000000 1.78000000 2.97500000
v -4.07681483 1.78000000 3.02676381
v -4.12857864 1.78000000 3.11642136
v -4.17000000 1.78000000 3.14820508
v -4.31648383 2.07855909 3.17054857
v -7.17328002 0.83590555 3.17147548
v -4.57000000 2.13176381 3.16818517
v -4.57000000 2.18000000 3.14820508
v -4.57000000 2.25320508 3.07500000
v -4.57000000 2.27318517 3.02676381
v -4.53388665 2.27508487 3.01499058
v -4.50473690 2.27572243 2.97500000
v -4.44059048 2.26296291 2.97500000
v -4.37865828 2.24193977 2.97500000
v -4.32000000 2.21301270 2.97500000
v -4.26561929 2.17667667 2.97500000
v -4.21644661 2.13355339 2.97500000
v -4.17332333 2.08438071 2.97500000
v -4.13698730 2.03000000 2.97500000
v -4.10806023 1.97134172 2.97500000
v -4.08703709 1.90940952 2.97500000
v -4.07427757 1.84526310 2.97500000
v -4.11765746 1.89649856 3.10220141
v -4.29409743 2.17915820 3.10204883
v 3.55649072 4.63850000 -2.20000000
v 3.58827445 4.67992136 -2.20000000
v 3.62969580 4.71170508 -2.20000000
v 3.67793199 4.73168517 -2.20000000
v 3.71841050 4.73843078 -2.11008708
v 3.62504826 4.71425993 -2.13432730
v 3.12386119 4.28916367 -2.00000000
v 3.27446699 4.41872639 -2.00973208
v 3.39434890 4.52185805 -2.03969958
v 3.54935129 4.69230710 -2.06381190
v 3.10198486 4.33607761 -1.99318517
v 3.08159936 4.37979444 -1.97320508
v 3.06409394 4.41733494 -1.94142136
v 3.27703156 4.53641184 -1.94225083
v 3.13771059 4.63919514 -1.10023568
v 0.86314819 3.25720727 -1.99999503
v 1.35466008 3.52128668 -1.99318517
v 1.33427458 3.56500352 -1.97320508
v 1.31676916 3.60254402 -1.94142136
v 1.30333678 3.63134985 -1.90000000
v 0.84051856 0.60176381 -6.27434210
v 0.84912541 0.65000000 -6.25631085
v 0.86281692 0.69142136 -6.22762727
v 0.88066006 0.72320508 -6.19024611
v 0.90143883 0.74318517 -6.14671482
v 0.90047765 0.64509894 -6.28600784
v 0.43751618 3.19515208 -1.99318517
v 0.42572383 3.24192462 -1.97320508
v 0.41559750 3.28208911 -1.94142136
v 0.40782730 3.31290841 -1.90000000
v 0.40294275 3.33228223 -1.85176381
v 0.40127672 3.33889028 -1.80000000
v 0.84638316 3.43645583 -1.94001448
v -8.13000000 2.08000000 -2.00000000
v -8.13000000 2.18000000 -1.97320508
v -8.13000000 2.22142136 -1.94142136
v -8.13000000 2.25320508 -1.90000000
v -8.13000000 2.27318517 -1.85176381
v -8.13000000 2.28000000 -1.80000000
v -2.41017405 2.75194974 -1.80000000
v -5.26036825 2.39818757 -1.80000000
v -5.24392190 2.19886492 -2.00000000
v -2.37739275 2.55465456 -2.00000000
v -5.25980786 2.39139582 -1.85176381
v -5.25816486 2.37148340 -1.90000000
v -5.25555123 2.33980732 -1.94142136
v -5.25214508 2.29852625 -1.97320508
v -5.24817853 2.25045342 -1.99318517
v -2.40905706 2.74522707 -1.85176381
v -2.40578219 2.72551720 -1.90000000
v -2.40057263 2.69416332 -1.94142136
v -2.39378340 2.65330215 -1.97320508
v -2.38587718 2.60571831 -1.99318517
v -8.48176381 1.78000000 -1.99318517
v -8.53000000 1.78000000 -1.97320508
v -8.57142136 1.78000000 -1.94142136
v -8.60320508 1.78000000 -1.90000000
v -8.63000000 1.78000000 -1.80000000
v -8.25940952 2.26296291 -1.80000000
v -8.32134172 2.24193977 -1.80000000
v -8.38000000 2.21301270 -1.80000000
v -8.43438071 2.17667667 -1.80000000
v -8.48355339 2.13355339 -1.80000000
v -8.52667667 2.08438071 -1.80000000
v -8.56301270 2.03000000 -1.80000000
v -8.59193977 1.97134172 -1.80000000
v -8.62572243 1.84526310 -1.80000000
v -8.23018906 2.26269977 -1.86681679
v -8.60753110 1.90252639 -1.86886457
v -8.42695691 -0.69959241 -1.99837662
v -8.48176381 -1.78000000 -1.99318517
v -8.53000000 -1.78000000 -1.97320508
v -8.57142136 -1.78000000 -1.94142136
v -8.62318517 -1.78000000 -1.85176381
v -8.63000000 -1.78000000 -1.80000000
v -8.13000000 -2.18000000 -1.97320508
v -8.13000000 -2.22142136 -1.94142136
v -8.13000000 -2.25320508 -1.90000000
v -8.13000000 -2.27318517 -1.85176381
v -8.13000000 -2.28000000 -1.80000000
v -8.62572243 -1.84526310 -1.80000000
v -8.59193977 -1.97134172 -1.80000000
v -8.56301270 -2.03000000 -1.80000000
v -8.52667667 -2.08438071 -1.80000000
v -8.48355339 -2.13355339 -1.80000000
v -8.43438071 -2.17667667 -1.80000000
v -8.38000000 -2.21301270 -1.80000000
v -8.32134172 -2.24193977 -1.80000000
v -8.19526310 -2.27572243 -1.80000000
v -8.41576726 -2.10344718 -1.98151245
v -8.58810892 -1.95180310 -1.89518742
v -8.25306689 -2.24820773 -1.89599232
v 0.45017093 -3.14495896 -2.00000000
v 0.42572383 -3.24192462 -1.97320508
v 0.41559750 -3.28208911 -1.94142136
v 0.40782730 -3.31290841 -1.90000000
v 0.40294275 -3.33228223 -1.85176381
v -2.37739275 -2.55465456 -2.00000000
v -2.40905706 -2.74522707 -1.85176381
v -2.40578219 -2.72551720 -1.90000000
v -2.40057263 -2.69416332 -1.94142136
v -2.39378340 -2.65330215 -1.97320508
v -2.38587718 -2.60571831 -1.99318517
v -5.25980786 -2.39139582 -1.85176381
v -5.25816486 -2.37148340 -1.90000000
v -5.25555123 -2.33980732 -1.94142136
v -5.25214508 -2.29852625 -1.97320508
v -5.24817853 -2.25045342 -1.99318517
v 1.35466008 -3.52128668 -1.99318517
v 1.33427458 -3.56500352 -1.97320508
v 1.31676916 -3.60254402 -1.94142136
v 1.30333678 -3.63134985 -1.90000000
v 1.29489283 -3.64945796 -1.85176381
v 1.29201276 -3.65563430 -1.80000000
v 0.87241097 -3.45144915 -1.92853452
v 1.01748457 -3.31877423 -1.99999858
v 0.62635517 -3.26944943 -1.98728624
v 3.12386119 -4.28916367 -2.00000000
v 3.10198486 -4.33607761 -1.99318517
v 3.08159936 -4.37979444 -1.97320508
v 3.06409394 -4.41733494 -1.94142136
v 3.05066156 -4.44614078 -1.90000000
v 3.04221761 -4.46424889 -1.85176381
v 3.05619620 -4.47826884 -1.79488730
v 3.51203377 -4.62309966 -2.09336234
v 3.41815489 -4.54242239 -2.04805871
v 3.31192070 -4.45080285 -2.01712374
v 3.23379641 -4.38350658 -2.00599465
v 3.45063159 -4.66453406 -1.92246614
v 3.55649072 -4.63850000 -2.20000000
v 3.58827445 -4.67992136 -2.20000000
v 3.62969580 -4.71170508 -2.20000000
v 3.67793199 -4.73168517 -2.20000000
v 3.71833489 -4.73843609 -2.08687135
v -7.07368929 -0.69656042 0.06340135
v -6.98176381 -0.77318517 0.20000000
v -7.03000000 -0.75320508 0.20000000
v -7.07142136 -0.72142136 0.20000000
v -7.10320508 -0.68000000 0.20000000
v -7.12318517 -0.63176381 0.20000000
v -7.12827373 -0.59205213 0.17276178
v -7.12996354 0.57944873 0.19950759
v -5.57681483 -0.63176381 0.20000000
v -5.59679492 -0.68000000 0.20000000
v -5.62857864 -0.72142136 0.20000000
v -5.63474504 -0.74356956 2.54910164
v -5.65679278 -0.72946669 0.06506139
v -5.57205694 -0.61027777 0.16827856
v -7.12318517 0.63176381 0.20000000
v -7.10320508 0.68000000 0.20000000
v -7.07142136 0.72142136 0.20000000
v -7.06641596 0.72406599 0.07295599
v -5.57000000 0.58000000 0.20000000
v -5.71823619 0.77318517 0.20000000
v -5.62857864 0.72142136 0.20000000
v -5.59679492 0.68000000 0.20000000
v -5.57681483 0.63176381 0.20000000
v -5.62945956 0.72517513 0.10284815
v -5.62819776 0.62190917 0.03410269
v -5.57384294 0.61016137 0.17524720
v 8.10427879 -3.38673619 -6.29318517
v 8.10427879 -3.33850000 -6.27320508
v 8.10427879 -3.29707864 -6.24142136
v 8.10427879 -3.24531483 -6.15176381
v 8.10427879 -3.23850000 -6.10000000
v 8.25852052 -3.17406918 -6.14490406
v 8.24570015 -3.17992136 -6.10000000
v 8.20427879 -3.21170508 -6.10000000
v 8.15604260 -3.23168517 -6.10000000
v 8.28338569 -3.14190742 -6.15176381
v 8.30068895 -3.15189746 -6.20000000
v 8.32821447 -3.16778932 -6.24142136
v 8.36408641 -3.18850000 -6.27320508
v 8.40586018 -3.21261810 -6.29318517
v 8.23244889 -3.26637100 -6.25280774
v 10.03176267 -0.10000000 -6.10000000
v 10.03766449 -0.10340742 -6.15176381
v 10.05496775 -0.11339746 -6.20000000
v 10.08249326 -0.12928932 -6.24142136
v 10.11836521 -0.15000000 -6.27320508
v 8.47509906 -3.52714518 -6.31435986
v 4.59572121 -3.43850000 -6.30000000
v 4.59572121 -3.38673619 -6.29318517
v 4.59572121 -3.33850000 -6.27320508
v 4.44467835 -3.29630877 -6.27252007
v 4.59572121 -3.26529492 -6.20000000
v 4.47745637 -3.23681890 -6.20488917
v 4.59572121 -3.23850000 -6.10000000
v 10.03176267 0.10000000 -6.10000000
v 10.03766449 0.10340742 -6.15176381
v 10.05496775 0.11339746 -6.20000000
v 10.08249326 0.12928932 -6.24142136
v 10.11836521 0.15000000 -6.27320508
v 10.16013897 0.17411810 -6.29318517
v 10.05174275 0.05176381 -6.10000000
v 10.05855759 -0.00000000 -6.10000000
v 10.05174275 -0.05176381 -6.10000000
v 10.10183555 -0.00127413 -6.22818109
v 4.29413982 -3.21261810 -6.29318517
v 4.33591359 -3.18850000 -6.27320508
v 4.37178553 -3.16778932 -6.24142136
v 4.39931105 -3.15189746 -6.20000000
v 4.41661431 -3.14190742 -6.15176381
v 4.42251613 -3.13850000 -6.10000000
v 4.54395740 -3.23168517 -6.10000000
v 4.49572121 -3.21170508 -6.10000000
v 4.45429985 -3.17992136 -6.10000000
v 4.36636961 -3.38303329 -6.29989189
v 8.27748387 3.13850000 -6.10000000
v 8.28338569 3.14190742 -6.15176381
v 8.30068895 3.15189746 -6.20000000
v 8.32821447 3.16778932 -6.24142136
v 8.36408641 3.18850000 -6.27320508
v 8.40586018 3.21261810 -6.29318517
v 8.45068895 3.23850000 -6.30000000
v 2.49503225 -0.20000000 -6.30000000
v 2.53986103 -0.17411810 -6.29318517
v 2.58163479 -0.15000000 -6.27320508
v 2.61750674 -0.12928932 -6.24142136
v 2.64503225 -0.11339746 -6.20000000
v 2.66233551 -0.10340742 -6.15176381
v 2.66823733 -0.10000000 -6.10000000
v 8.10427879 3.23850000 -6.10000000
v 8.10427879 3.24531483 -6.15176381
v 8.10427879 3.26529492 -6.20000000
v 8.10427879 3.29707864 -6.24142136
v 8.10427879 3.33850000 -6.27320508
v 8.10427879 3.38673619 -6.29318517
v 8.10427879 3.43850000 -6.30000000
v 8.15604260 3.23168517 -6.10000000
v 8.24570015 3.17992136 -6.10000000
v 8.23751871 3.26592584 -6.26281133
v 2.53986103 0.17411810 -6.29318517
v 2.58163479 0.15000000 -6.27320508
v 2.61750674 0.12928932 -6.24142136
v 2.64503225 0.11339746 -6.20000000
v 2.66233551 0.10340742 -6.15176381
v 2.66823733 0.10000000 -6.10000000
v 2.64825725 -0.05176381 -6.10000000
v 2.64144241 0.00000000 -6.10000000
v 2.64825725 0.05176381 -6.10000000
v 2.42825102 0.02636648 -6.29990987
v 2.58297613 0.00140972 -6.25170673
v 4.59572121 3.23850000 -6.10000000
v 4.59572121 3.24531483 -6.15176381
v 4.59572121 3.26529492 -6.20000000
v 4.59572121 3.29707864 -6.24142136
v 4.59572121 3.33850000 -6.27320508
v 4.59572121 3.38673619 -6.29318517
v 4.24931105 3.23850000 -6.30000000
v 4.29413982 3.21261810 -6.29318517
v 4.33591359 3.18850000 -6.27320508
v 4.37178553 3.16778932 -6.24142136
v 4.39931105 3.15189746 -6.20000000
v 4.41661431 3.14190742 -6.15176381
v 4.42251613 3.13850000 -6.10000000
v 4.45429985 3.17992136 -6.10000000
v 4.49572121 3.21170508 -6.10000000
v 4.54395740 3.23168517 -6.10000000
v 4.41202240 3.40939094 -6.29989189
v 4.46808357 3.26286581 -6.25121769
v -5.55841995 0.57922184 3.05898910
v -5.57681483 0.63176381 2.97500000
v -5.59679492 0.68000000 2.97500000
v -5.62857864 0.72142136 2.97500000
v -5.67000000 0.75320508 2.97500000
v -5.71823619 0.77318517 2.97500000
v -5.57660256 0.78599618 3.13757403
v -5.57000000 -0.58000000 2.97500000
v -6.35643348 -0.82026306 3.07013874
v -5.62857864 -0.72142136 2.97500000
v -5.59679492 -0.68000000 2.97500000
v -5.57681483 -0.63176381 2.97500000
v -5.67427568 -0.78479928 3.07372996
v -7.13000000 0.58000000 2.97500000
v -7.07852602 0.76571400 3.05772301
v -7.10320508 0.68000000 2.97500000
v -7.12318517 0.63176381 2.97500000
v -7.19163096 -0.83764837 3.16290962
v -7.12318517 -0.63176381 2.97500000
v -7.10320508 -0.68000000 2.97500000
v -7.07142136 -0.72142136 2.97500000
v -7.03000000 -0.75320508 2.97500000
v -6.98176381 -0.77318517 2.97500000
v -7.04668904 -0.78932672 3.09193117
v -7.14399997 -0.62006551 3.04623065
v 8.27748387 -3.13850000 -1.71237753
v 10.03176267 -0.10000000 -1.71237753
v 9.99712551 -0.01934355 -1.54297283
v 10.00261501 0.10241335 -1.59677146
v 8.25799790 3.15695982 -1.65653780
v 9.03793166 1.63858683 -1.55875262
v 6.36162780 -3.31553188 -1.85990482
v 8.15604260 -3.23168517 -1.71237753
v 8.20427879 -3.21170508 -1.71237753
v 8.24570015 -3.17992136 -1.71237753
v 8.17930241 -3.17138703 -1.55744747
v 4.51075347 -3.17623939 -1.56277309
v 8.09458301 3.26433686 -1.66917406
v 8.17812569 3.13857175 -1.54512107
v 4.42251613 -3.13850000 -1.71237753
v 4.45429985 -3.17992136 -1.71237753
v 4.49572121 -3.21170508 -1.71237753
v 4.54395740 -3.23168517 -1.71237753
v 2.66823733 -0.10000000 -1.71237753
v 3.39482237 -1.15503673 -1.55549007
v 4.42251613 3.13850000 -1.71237753
v 4.51151205 3.17442983 -1.55600466
v 2.64825725 0.05176381 -1.71237753
v 2.64144241 0.00000000 -1.71237753
v 2.64825725 -0.05176381 -1.71237753
v 2.67944613 -0.00094978 -1.56085429
v 10.05174275 -0.05176381 -1.71237753
v 10.05855759 -0.00000000 -1.71237753
v 10.05174275 0.05176381 -1.71237753
v 8.24570015 3.17992136 -1.71237753
v 8.20427879 3.21170508 -1.71237753
v 8.15604260 3.23168517 -1.71237753
v 4.54395740 3.23168517 -1.71237753
v 4.49572121 3.21170508 -1.71237753
v 4.45429985 3.17992136 -1.71237753
v 4.18016684 1.04027824 0.54000000
v 5.33917984 2.15178214 0.54000000
v 4.32023994 1.10925712 -0.06615433
v 8.52385340 -1.01674688 0.54000000
v 7.42096411 -2.17560436 0.54000000
v 7.47767841 -2.06345272 -0.07464204
v 8.51466427 1.03025687 0.54000000
v 7.35953577 2.14866737 0.54000000
v 8.34366640 0.98169272 -0.09748647
v 7.48096762 2.02104699 -0.07918751
v 5.33923803 -2.14145459 0.53972905
v 4.17396720 -1.08193086 0.54002720
v 5.40457662 -2.20527147 -0.09052842
v 10.08949769 -0.00000000 -0.00000000
v 8.21974885 3.23850000 0.00000000
v 8.21974885 -3.23850000 0.00000000
v 4.48025115 -3.23850000 0.00000000
v 2.61050231 0.00000000 -0.00000000
v 4.48025115 3.23850000 0.00000000
v 9.15462327 -1.61925000 -0.02449735
v 9.15462327 1.61925000 -0.02449735
v 6.35000000 3.23850000 -0.02449316
v 3.54537673 1.61925000 -0.02449735
v 3.54537673 -1.61925000 -0.02449735
v 6.35000000 -3.23850000 -0.02449316
v 4.40382244 -1.07133281 -0.09438017
v 4.20304825 2.14517689 -0.03728902
v 5.33964908 -1.96297591 -1.55236757
v 7.96990600 1.46709726 -1.51666193
v 8.40971699 0.51440024 -1.44473350
v 8.45052468 -0.45029631 -1.45185149
v 7.83631941 -1.58047626 -1.53656517
v 6.79309095 -2.12366837 -1.53674691
v 6.99650099 2.03622931 -0.20907235
v 4.59854285 1.27486370 -0.13785383
v 4.89552516 -1.58595373 -0.14131953
v 5.73749583 -2.06960631 -0.14031181
v 8.67435576 -0.18651943 -1.57016015
v 3.12684533 0.78504378 -1.57575932
v 6.98974836 -2.04171282 -0.19278766
v 8.27344875 -1.06978540 -0.10448971
v 8.51378996 -0.21345214 -0.11346649
v 7.97344841 1.40120005 -0.17940282
v 5.94787092 2.13460510 -0.13567444
v 5.33913024 1.99130570 -0.09219278
v 4.17717403 -0.00093660 -0.12277139
v 6.98004219 2.12019005 -1.54154096
v 5.36033076 1.96104930 -1.53603607
v 4.36779916 0.94200753 -1.53304611
v 4.19876004 -0.14310902 -1.53620550
v 4.37443614 -0.88493266 -1.51872438
f 18 17 19
f 18 16 17
f 18 19 6
f 18 6 5
f 21 15 18
f 20 5 4
f 20 18 5
f 21 13 14
f 20 21 18
f 7 13 21
f 21 20 3
f 21 9 8
f 21 8 7
f 21 10 9
f 21 11 10
f 21 2 1
f 21 12 11
f 21 1 12
f 13 7 22
f 13 22 23
f 14 23 32
f 14 32 24
f 14 13 23
f 21 14 24
f 15 24 37
f 15 37 25
f 15 21 24
f 18 15 25
f 16 25 26
f 16 18 25
f 17 26 27
f 17 16 26
f 19 27 28
f 19 17 27
f 33 27 26
f 33 28 27
f 37 26 25
f 37 33 26
f 32 37 24
f 32 23 22
f 35 29 29
f 35 29 32
f 35 32 34
f 34 29 35
f 34 31 30
f 34 22 31
f 34 32 22
f 34 30 29
f 47 33 37
f 36 32 29
f 33 45 46
f 47 44 45
f 47 45 33
f 47 43 44
f 48 39 38
f 48 40 39
f 47 42 43
f 47 41 42
f 47 48 41
f 48 36 40
f 49 36 36
f 49 36 48
f 49 48 47
f 47 36 49
f 47 37 32
f 47 32 36
f 38 69 50
f 48 38 50
f 41 50 51
f 41 48 50
f 42 51 52
f 42 41 51
f 43 52 53
f 43 42 52
f 44 53 54
f 44 43 53
f 45 54 55
f 45 44 54
f 46 55 56
f 46 45 55
f 33 56 702
f 33 46 56
f 56 66 702
f 67 58 57
f 67 62 63
f 68 58 67
f 68 67 63
f 68 59 58
f 68 60 59
f 70 68 64
f 69 61 60
f 69 60 68
f 70 65 66
f 70 56 55
f 70 66 56
f 68 50 69
f 68 52 51
f 70 55 54
f 68 51 50
f 68 53 52
f 68 70 53
f 70 54 53
f 62 67 71
f 62 71 72
f 63 72 73
f 63 62 72
f 68 63 73
f 64 73 74
f 64 68 73
f 70 64 74
f 65 74 75
f 65 70 74
f 66 75 76
f 66 65 75
f 702 66 76
f 80 76 76
f 80 76 75
f 84 72 71
f 77 83 78
f 84 81 80
f 84 75 74
f 84 80 75
f 84 82 81
f 84 74 73
f 84 79 78
f 84 83 82
f 84 73 72
f 84 78 83
f 90 93 76
f 90 76 80
f 89 80 81
f 89 90 80
f 88 81 82
f 88 89 81
f 92 88 82
f 87 82 83
f 87 92 82
f 98 87 83
f 86 83 77
f 86 98 83
f 85 86 77
f 98 86 85
f 98 85 97
f 98 97 96
f 92 87 98
f 98 95 94
f 92 89 88
f 91 98 94
f 92 90 89
f 92 93 90
f 92 98 91
f 92 91 104
f 91 103 102
f 104 100 99
f 104 91 102
f 104 101 100
f 104 102 101
f 107 105 106
f 107 106 106
f 107 106 109
f 107 109 105
f 109 426 105
f 109 110 111
f 109 111 112
f 109 112 113
f 109 113 114
f 109 114 426
f 122 119 120
f 122 120 121
f 123 118 119
f 123 119 122
f 124 117 118
f 124 118 123
f 125 116 117
f 125 117 124
f 126 115 116
f 126 116 125
f 127 140 115
f 127 115 126
f 108 140 127
f 128 114 113
f 128 122 121
f 128 121 114
f 129 122 128
f 129 123 122
f 129 128 113
f 130 113 112
f 130 123 129
f 130 129 113
f 130 124 123
f 131 112 111
f 131 125 124
f 131 124 130
f 131 130 112
f 132 111 110
f 132 126 125
f 132 125 131
f 132 131 111
f 133 109 108
f 133 110 109
f 133 126 132
f 133 127 126
f 133 132 110
f 108 127 133
f 142 138 139
f 140 137 142
f 140 136 137
f 142 139 120
f 142 120 119
f 141 134 135
f 141 135 140
f 142 119 118
f 142 118 117
f 140 117 116
f 140 142 117
f 140 116 115
f 148 139 138
f 147 142 137
f 147 138 142
f 147 148 138
f 146 137 136
f 146 147 137
f 145 140 135
f 145 136 140
f 145 146 136
f 144 135 134
f 144 145 135
f 143 134 141
f 143 144 134
f 154 155 148
f 154 148 147
f 168 154 147
f 153 147 146
f 153 168 147
f 152 146 145
f 152 153 146
f 169 152 145
f 151 145 144
f 151 169 145
f 150 144 143
f 150 151 144
f 149 150 143
f 167 155 154
f 168 166 167
f 168 167 154
f 168 165 166
f 168 153 152
f 169 168 152
f 168 164 165
f 169 151 150
f 169 163 164
f 169 164 168
f 169 160 159
f 169 149 160
f 169 150 149
f 169 162 163
f 169 161 162
f 169 159 158
f 169 156 161
f 169 157 156
f 177 155 167
f 177 184 155
f 176 167 166
f 176 177 167
f 175 166 165
f 175 176 166
f 174 165 164
f 174 175 165
f 173 164 163
f 173 174 164
f 172 163 162
f 172 173 163
f 171 162 161
f 171 172 162
f 170 161 156
f 170 171 161
f 184 177 176
f 185 176 175
f 185 184 176
f 185 175 174
f 185 174 173
f 185 181 182
f 185 173 172
f 185 180 181
f 186 180 185
f 185 172 171
f 185 171 170
f 185 179 178
f 185 170 179
f 185 178 186
f 180 186 187
f 180 187 188
f 181 188 189
f 181 180 188
f 182 189 190
f 182 181 189
f 185 190 183
f 185 182 190
f 183 201 184
f 185 183 184
f 184 199 200
f 184 200 191
f 201 198 199
f 201 199 184
f 201 197 198
f 202 193 192
f 202 194 193
f 201 196 197
f 201 195 196
f 201 202 195
f 202 187 194
f 201 183 190
f 201 190 189
f 203 187 187
f 203 202 201
f 203 187 202
f 201 187 203
f 201 189 188
f 201 188 187
f 211 191 200
f 211 212 191
f 210 200 199
f 210 211 200
f 209 199 198
f 209 210 199
f 208 198 197
f 208 209 198
f 207 197 196
f 207 208 197
f 206 196 195
f 206 207 196
f 205 202 192
f 205 195 202
f 205 206 195
f 204 205 192
f 211 223 212
f 224 214 213
f 224 215 214
f 224 219 220
f 224 216 215
f 224 217 216
f 225 220 221
f 225 224 220
f 224 218 217
f 224 204 218
f 224 205 204
f 225 222 223
f 225 211 210
f 225 223 211
f 224 207 206
f 225 210 209
f 224 206 205
f 225 207 224
f 225 208 207
f 225 209 208
f 232 212 223
f 231 223 222
f 231 232 223
f 230 225 221
f 230 222 225
f 230 231 222
f 229 221 220
f 229 230 221
f 228 220 219
f 228 229 220
f 227 224 213
f 227 219 224
f 227 228 219
f 226 227 213
f 226 227 226
f 226 233 227
f 239 228 227
f 239 227 233
f 231 234 232
f 239 229 228
f 238 235 234
f 238 236 235
f 238 231 230
f 238 234 231
f 238 230 229
f 238 229 239
f 239 237 236
f 239 536 237
f 239 236 238
f 233 240 241
f 233 226 240
f 239 241 531
f 239 233 241
f 527 241 240
f 527 531 241
f 243 242 531
f 194 187 29
f 194 29 30
f 193 30 31
f 193 194 30
f 192 31 22
f 192 193 31
f 36 186 178
f 40 178 179
f 40 36 178
f 39 179 170
f 39 40 179
f 38 39 170
f 149 67 57
f 160 57 58
f 160 149 57
f 159 58 59
f 159 160 58
f 158 59 60
f 158 159 59
f 169 158 60
f 157 60 61
f 157 169 60
f 156 61 69
f 156 157 61
f 248 250 249
f 259 591 251
f 259 248 247
f 259 251 250
f 259 250 248
f 259 247 246
f 260 256 257
f 260 257 258
f 260 258 252
f 259 246 245
f 260 245 244
f 260 259 245
f 260 244 253
f 260 253 254
f 260 254 255
f 260 252 259
f 258 266 252
f 258 267 266
f 257 265 267
f 257 267 258
f 256 264 265
f 256 265 257
f 260 264 256
f 255 263 264
f 255 264 260
f 254 262 263
f 254 263 255
f 253 261 262
f 253 262 254
f 244 261 253
f 269 268 272
f 264 272 265
f 272 264 263
f 272 270 269
f 272 263 262
f 273 261 261
f 273 262 261
f 273 271 270
f 273 261 271
f 273 270 272
f 273 272 262
f 267 265 272
f 274 266 267
f 274 267 272
f 275 274 272
f 277 272 268
f 278 277 268
f 272 276 275
f 94 271 261
f 94 261 91
f 95 270 271
f 95 271 94
f 98 270 95
f 96 269 270
f 96 270 98
f 97 268 269
f 97 269 96
f 85 268 97
f 292 280 279
f 295 286 287
f 295 291 285
f 295 285 286
f 294 281 280
f 294 292 293
f 294 280 292
f 295 288 289
f 295 284 283
f 295 289 290
f 295 290 284
f 295 283 282
f 295 282 294
f 294 291 295
f 294 282 281
f 296 285 291
f 297 286 285
f 297 285 296
f 298 287 286
f 298 286 297
f 300 295 287
f 300 288 295
f 300 287 298
f 301 289 288
f 301 288 300
f 302 290 289
f 302 289 301
f 299 284 290
f 299 290 302
f 297 296 308
f 314 308 307
f 314 298 297
f 314 297 308
f 314 305 304
f 309 304 303
f 309 314 304
f 314 306 305
f 314 307 306
f 314 309 312
f 298 314 300
f 313 302 301
f 313 299 302
f 313 299 299
f 313 310 299
f 314 311 310
f 314 313 301
f 314 310 313
f 314 301 300
f 314 312 311
f 299 319 320
f 310 318 319
f 310 319 299
f 311 317 321
f 311 321 318
f 311 318 310
f 312 316 317
f 312 317 311
f 309 315 316
f 309 316 312
f 327 322 321
f 327 322 322
f 327 323 322
f 327 324 323
f 321 325 324
f 321 326 325
f 321 324 327
f 321 316 315
f 321 317 316
f 321 315 326
f 321 319 318
f 321 320 319
f 328 1 2
f 333 2 21
f 333 21 3
f 333 328 2
f 332 3 20
f 332 20 4
f 332 333 3
f 331 4 5
f 331 332 4
f 330 5 6
f 330 331 5
f 329 6 19
f 329 330 6
f 204 7 8
f 218 8 9
f 218 204 8
f 217 9 10
f 217 218 9
f 216 10 11
f 216 217 10
f 215 11 12
f 215 216 11
f 214 12 1
f 214 215 12
f 213 214 1
f 330 329 342
f 328 333 335
f 334 339 338
f 334 340 339
f 343 332 331
f 343 340 334
f 334 337 336
f 343 336 335
f 343 333 332
f 343 334 336
f 343 335 333
f 343 331 330
f 343 341 340
f 343 342 341
f 343 330 342
f 347 353 232
f 347 232 234
f 346 234 235
f 346 347 234
f 345 235 236
f 345 346 235
f 344 236 237
f 344 345 236
f 536 344 237
f 353 351 352
f 355 351 353
f 355 350 351
f 355 349 350
f 354 348 355
f 355 353 347
f 355 347 346
f 355 346 345
f 355 345 344
f 355 344 536
f 361 359 408
f 354 363 348
f 364 359 361
f 365 358 376
f 365 376 359
f 365 359 364
f 366 358 365
f 367 357 358
f 367 358 366
f 368 356 374
f 368 374 357
f 368 362 356
f 368 357 367
f 369 360 352
f 369 361 360
f 369 352 351
f 369 364 361
f 370 351 350
f 370 369 351
f 370 364 369
f 370 365 364
f 371 350 349
f 371 366 365
f 371 370 350
f 371 365 370
f 372 355 348
f 372 349 355
f 372 371 349
f 372 366 371
f 372 367 366
f 373 363 362
f 373 362 368
f 373 368 367
f 373 348 363
f 373 372 348
f 373 367 372
f 376 408 359
f 376 358 357
f 376 357 374
f 378 375 377
f 378 377 377
f 379 377 376
f 379 376 375
f 379 375 378
f 379 378 377
f 388 377 387
f 388 377 377
f 389 376 377
f 389 387 408
f 389 408 376
f 389 388 387
f 389 377 388
f 408 387 390
f 408 391 392
f 408 398 391
f 408 392 393
f 408 399 398
f 408 393 394
f 408 400 399
f 408 394 395
f 408 395 396
f 408 396 397
f 408 401 400
f 408 402 401
f 408 403 402
f 408 404 403
f 408 405 404
f 408 406 405
f 408 407 406
f 408 390 407
f 396 409 397
f 396 414 409
f 395 413 414
f 395 414 396
f 394 412 413
f 394 413 395
f 393 411 412
f 393 412 394
f 392 410 411
f 392 411 393
f 391 427 410
f 391 410 392
f 426 416 415
f 426 417 416
f 426 418 417
f 426 419 418
f 426 420 419
f 114 420 426
f 114 421 420
f 114 422 421
f 114 423 422
f 114 424 423
f 427 425 424
f 427 424 114
f 114 411 410
f 114 410 427
f 114 412 411
f 114 413 412
f 114 414 413
f 114 409 414
f 426 415 428
f 429 106 106
f 429 428 106
f 430 426 428
f 430 105 426
f 430 106 105
f 430 429 106
f 430 428 429
f 450 433 444
f 450 444 443
f 451 432 450
f 450 443 442
f 450 442 441
f 450 441 440
f 453 431 451
f 450 440 439
f 452 438 437
f 452 439 438
f 452 450 439
f 452 451 450
f 453 451 452
f 452 436 435
f 452 435 434
f 452 434 445
f 452 445 446
f 453 446 447
f 453 452 446
f 453 447 448
f 453 448 449
f 445 454 455
f 445 434 454
f 446 455 456
f 446 445 455
f 447 456 457
f 447 446 456
f 448 457 480
f 448 480 458
f 448 447 457
f 449 458 459
f 449 448 458
f 453 449 459
f 453 503 431
f 431 460 461
f 451 431 461
f 432 461 497
f 432 497 462
f 432 451 461
f 450 432 462
f 433 462 463
f 433 450 462
f 480 455 454
f 480 454 479
f 480 479 478
f 480 456 455
f 480 457 456
f 480 478 477
f 480 477 476
f 480 476 475
f 480 459 458
f 480 475 474
f 481 474 473
f 481 480 474
f 481 473 472
f 481 472 471
f 481 471 470
f 481 470 469
f 481 464 465
f 481 469 464
f 481 465 466
f 481 467 468
f 495 484 485
f 495 485 494
f 495 494 493
f 431 483 495
f 495 493 492
f 431 482 483
f 460 492 491
f 460 495 492
f 460 491 490
f 431 495 460
f 460 490 489
f 460 489 488
f 460 488 487
f 496 460 487
f 496 486 497
f 497 460 496
f 497 463 462
f 460 497 461
f 465 498 499
f 465 464 498
f 466 499 520
f 466 520 500
f 466 465 499
f 481 466 500
f 467 500 501
f 467 481 500
f 468 501 502
f 468 467 501
f 507 508 485
f 507 485 484
f 506 495 483
f 506 484 495
f 506 507 484
f 521 506 483
f 505 483 482
f 505 521 483
f 504 482 431
f 504 505 482
f 503 504 431
f 520 499 498
f 520 498 519
f 520 519 518
f 520 518 517
f 520 501 500
f 521 517 516
f 521 520 517
f 521 516 515
f 502 501 520
f 521 515 514
f 521 514 513
f 521 513 512
f 502 520 521
f 521 512 511
f 521 511 510
f 521 510 509
f 508 521 509
f 521 507 506
f 521 508 507
f 502 521 505
f 502 504 503
f 502 505 504
f 249 104 99
f 248 99 100
f 248 249 99
f 247 100 101
f 247 248 100
f 246 101 102
f 246 247 101
f 245 102 103
f 245 246 102
f 244 103 91
f 244 245 103
f 337 334 522
f 337 522 523
f 336 523 524
f 336 337 523
f 335 524 525
f 335 336 524
f 328 525 526
f 328 335 525
f 526 527 240
f 527 525 524
f 527 526 525
f 527 243 531
f 527 522 243
f 527 523 522
f 527 524 523
f 342 329 322
f 342 322 323
f 341 323 324
f 341 342 323
f 340 324 325
f 340 341 324
f 339 325 326
f 339 340 325
f 338 326 315
f 338 339 326
f 334 338 315
f 529 528 532
f 535 530 529
f 535 532 533
f 535 533 534
f 535 529 532
f 535 536 531
f 535 531 530
f 321 322 547
f 320 321 547
f 528 537 538
f 532 538 539
f 532 528 538
f 533 539 540
f 533 532 539
f 534 540 541
f 534 533 540
f 535 541 536
f 535 534 541
f 320 547 545
f 546 320 545
f 547 542 543
f 547 543 544
f 547 544 545
f 547 104 542
f 554 552 553
f 554 551 552
f 554 550 551
f 554 549 550
f 554 537 548
f 554 548 549
f 554 536 541
f 554 541 540
f 554 540 539
f 554 538 537
f 554 539 538
f 542 104 279
f 542 279 280
f 543 280 281
f 543 542 280
f 544 281 282
f 544 543 281
f 545 282 283
f 545 544 282
f 546 283 284
f 546 545 283
f 320 546 284
f 562 559 560
f 537 564 548
f 565 559 562
f 566 558 559
f 566 559 565
f 567 557 558
f 567 558 566
f 568 556 557
f 568 557 567
f 569 555 293
f 569 293 556
f 569 563 555
f 569 556 568
f 570 561 553
f 570 562 561
f 570 553 552
f 570 565 562
f 571 552 551
f 571 570 552
f 571 565 570
f 571 566 565
f 572 551 550
f 572 566 571
f 572 571 551
f 572 567 566
f 573 550 549
f 573 572 550
f 573 567 572
f 573 568 567
f 574 549 548
f 574 564 563
f 574 563 569
f 574 573 549
f 574 569 568
f 574 548 564
f 574 568 573
f 589 560 559
f 293 557 556
f 589 558 557
f 589 557 293
f 589 559 558
f 589 581 580
f 293 582 581
f 293 581 589
f 293 583 582
f 293 584 583
f 293 585 584
f 293 586 585
f 293 575 576
f 590 587 586
f 590 586 293
f 293 576 577
f 293 577 578
f 590 579 588
f 590 293 578
f 575 591 592
f 575 293 591
f 576 592 593
f 576 575 592
f 577 593 594
f 577 576 593
f 578 594 612
f 578 612 595
f 578 577 594
f 590 578 595
f 579 595 596
f 579 590 595
f 611 592 591
f 611 593 592
f 612 594 593
f 612 593 611
f 612 602 596
f 612 596 595
f 612 604 603
f 612 605 604
f 611 606 605
f 611 605 612
f 611 607 606
f 611 608 607
f 613 609 608
f 613 608 611
f 613 597 598
f 613 611 597
f 613 598 599
f 613 599 600
f 613 600 601
f 613 601 610
f 620 618 108
f 621 617 618
f 621 618 620
f 622 616 617
f 622 617 621
f 623 615 616
f 623 616 622
f 624 614 638
f 624 638 615
f 624 619 614
f 624 615 623
f 625 108 601
f 625 601 600
f 625 620 108
f 626 600 599
f 626 621 620
f 626 625 600
f 626 620 625
f 627 599 598
f 627 626 599
f 627 621 626
f 627 622 621
f 628 598 597
f 628 622 627
f 628 627 598
f 628 623 622
f 629 597 611
f 629 252 619
f 629 628 597
f 629 619 624
f 629 624 623
f 629 611 252
f 629 623 628
f 618 636 108
f 636 634 635
f 636 633 634
f 636 632 633
f 636 631 632
f 636 637 630
f 636 630 631
f 636 618 617
f 636 617 616
f 638 616 615
f 638 636 616
f 638 614 637
f 638 637 636
f 630 639 640
f 630 637 639
f 631 640 641
f 631 630 640
f 632 641 642
f 632 631 641
f 633 642 643
f 633 632 642
f 634 643 644
f 634 633 643
f 635 644 645
f 635 634 644
f 639 649 640
f 650 647 646
f 650 649 648
f 650 648 647
f 650 644 643
f 650 645 644
f 650 641 640
f 650 640 649
f 650 642 641
f 650 643 642
f 650 652 653
f 650 653 654
f 650 654 655
f 650 646 651
f 650 651 652
f 71 655 654
f 84 71 654
f 79 654 653
f 79 84 654
f 78 653 652
f 78 79 653
f 77 652 651
f 77 78 652
f 651 277 278
f 646 276 272
f 646 272 277
f 646 277 651
f 647 275 276
f 647 276 646
f 648 274 275
f 648 275 647
f 649 266 274
f 649 274 648
f 639 266 649
f 250 279 249
f 250 292 279
f 251 293 292
f 251 292 250
f 591 293 251
f 656 662 661
f 656 661 660
f 656 660 659
f 656 659 658
f 656 658 657
f 656 657 668
f 663 662 656
f 663 656 673
f 668 667 666
f 668 666 665
f 669 665 664
f 669 668 665
f 673 670 663
f 673 671 670
f 673 672 671
f 669 674 680
f 669 680 668
f 679 673 680
f 679 675 673
f 679 677 676
f 681 674 674
f 681 679 680
f 681 680 674
f 679 678 677
f 679 681 674
f 679 674 678
f 696 685 686
f 696 686 690
f 696 690 689
f 696 689 688
f 696 683 684
f 687 696 688
f 696 682 683
f 696 702 682
f 696 691 692
f 696 687 691
f 696 692 693
f 696 693 694
f 696 694 695
f 696 695 702
f 28 702 695
f 701 695 694
f 701 28 695
f 700 694 693
f 700 701 694
f 699 693 692
f 699 700 693
f 698 692 691
f 698 699 692
f 697 691 687
f 697 698 691
f 682 703 704
f 682 702 703
f 683 704 705
f 683 682 704
f 684 705 706
f 684 706 707
f 684 683 705
f 696 684 707
f 685 707 708
f 685 708 709
f 685 696 707
f 686 685 709
f 719 698 697
f 719 699 698
f 719 697 718
f 719 700 699
f 719 718 717
f 719 701 700
f 719 717 716
f 719 28 701
f 719 710 711
f 719 711 712
f 719 716 710
f 719 712 713
f 719 713 714
f 719 714 715
f 28 719 715
f 708 724 725
f 708 725 728
f 708 723 724
f 708 728 727
f 708 722 723
f 708 727 726
f 706 721 722
f 706 722 708
f 706 720 721
f 706 729 720
f 708 726 709
f 706 708 707
f 706 704 703
f 706 705 704
f 706 703 729
f 736 28 715
f 735 715 714
f 735 736 715
f 734 714 713
f 734 735 714
f 733 713 712
f 733 734 713
f 732 712 711
f 732 733 712
f 731 711 710
f 731 732 711
f 730 731 710
f 720 737 738
f 720 729 737
f 721 738 739
f 721 720 738
f 722 739 740
f 722 721 739
f 723 740 741
f 723 722 740
f 724 741 742
f 724 723 741
f 725 742 743
f 725 724 742
f 750 753 749
f 753 731 730
f 753 730 752
f 753 732 731
f 753 733 732
f 753 734 733
f 753 735 734
f 753 736 735
f 753 744 745
f 753 751 744
f 753 745 746
f 753 746 747
f 753 747 748
f 753 748 749
f 764 758 759
f 764 759 762
f 764 757 758
f 764 762 761
f 764 756 757
f 764 761 760
f 764 755 756
f 764 763 754
f 764 754 755
f 764 760 743
f 764 743 742
f 764 742 741
f 764 741 740
f 764 740 739
f 764 738 737
f 764 739 738
f 764 737 763
f 770 781 750
f 770 750 749
f 769 749 748
f 769 770 749
f 768 748 747
f 768 769 748
f 767 747 746
f 767 768 747
f 766 746 745
f 766 767 746
f 765 745 744
f 765 766 745
f 754 771 772
f 754 763 771
f 755 772 773
f 755 754 772
f 756 773 774
f 756 755 773
f 757 774 775
f 757 756 774
f 758 775 776
f 758 757 775
f 759 776 777
f 759 758 776
f 782 766 765
f 782 765 780
f 782 767 766
f 782 780 779
f 782 768 767
f 782 779 778
f 782 769 768
f 782 770 769
f 782 781 770
f 782 778 777
f 782 777 776
f 782 776 775
f 782 775 774
f 782 774 773
f 782 772 771
f 782 773 772
f 782 771 781
f 789 784 783
f 789 785 784
f 789 786 785
f 789 787 786
f 789 788 787
f 789 797 788
f 468 789 783
f 790 468 783
f 797 789 503
f 795 791 468
f 795 667 791
f 795 793 792
f 468 793 795
f 468 794 793
f 468 790 794
f 797 799 798
f 797 807 796
f 797 796 799
f 800 468 791
f 806 800 791
f 797 503 800
f 807 797 800
f 807 800 806
f 807 802 801
f 806 803 802
f 806 802 807
f 806 804 803
f 806 805 804
f 806 791 805
f 818 809 808
f 810 809 818
f 813 812 811
f 811 810 813
f 812 813 821
f 818 815 814
f 818 816 815
f 818 817 816
f 818 808 817
f 818 814 819
f 829 820 821
f 819 823 822
f 819 824 823
f 819 825 824
f 819 814 825
f 827 822 826
f 827 826 833
f 819 822 827
f 881 828 829
f 833 830 881
f 833 831 830
f 833 832 831
f 833 826 832
f 709 825 814
f 726 824 825
f 726 825 709
f 727 823 824
f 727 824 726
f 728 822 823
f 728 823 727
f 725 822 728
f 688 808 687
f 688 817 808
f 689 816 817
f 689 817 688
f 690 815 816
f 690 816 689
f 686 814 815
f 686 815 690
f 710 836 811
f 716 835 836
f 716 836 710
f 717 834 835
f 717 835 716
f 718 809 834
f 718 834 717
f 697 809 718
f 744 839 820
f 751 838 839
f 751 839 744
f 753 838 751
f 752 837 838
f 752 838 753
f 730 812 837
f 730 837 752
f 778 828 777
f 778 842 828
f 779 841 842
f 779 842 778
f 780 840 841
f 780 841 779
f 765 820 840
f 765 840 780
f 760 826 743
f 760 832 826
f 761 831 832
f 761 832 760
f 762 830 831
f 762 831 761
f 759 881 830
f 759 830 762
f 670 796 663
f 670 799 796
f 671 798 799
f 671 799 670
f 672 797 798
f 672 798 671
f 673 797 672
f 673 788 797
f 675 787 788
f 675 788 673
f 679 787 675
f 676 786 787
f 676 787 679
f 677 785 786
f 677 786 676
f 678 784 785
f 678 785 677
f 674 783 784
f 674 784 678
f 657 791 668
f 657 805 791
f 658 804 805
f 658 805 657
f 659 803 804
f 659 804 658
f 660 802 803
f 660 803 659
f 661 801 802
f 661 802 660
f 662 807 801
f 662 801 661
f 664 790 669
f 664 794 790
f 665 793 794
f 665 794 664
f 666 792 793
f 666 793 665
f 667 795 792
f 667 792 666
f 668 791 667
f 141 636 635
f 140 636 141
f 108 636 140
f 354 554 553
f 355 554 354
f 536 554 355
f 187 36 29
f 187 186 36
f 844 386 843
f 845 844 843
f 887 844 845
f 869 845 843
f 386 869 843
f 844 887 869
f 844 869 386
f 380 846 847
f 847 848 381
f 847 381 380
f 848 846 883
f 848 847 846
f 381 883 846
f 380 381 846
f 849 384 850
f 852 849 850
f 851 849 852
f 385 852 850
f 384 385 850
f 849 851 385
f 849 385 384
f 853 854 382
f 855 854 853
f 868 854 855
f 382 383 855
f 382 855 853
f 854 868 383
f 854 383 382
f 668 680 673
f 668 673 656
f 783 674 669
f 783 669 790
f 807 662 663
f 807 663 796
f 249 279 104
f 299 320 284
f 261 244 91
f 453 800 503
f 502 503 789
f 468 502 789
f 459 800 453
f 459 468 800
f 481 459 480
f 481 468 459
f 387 377 485
f 508 387 485
f 387 508 509
f 390 509 510
f 390 387 509
f 407 510 511
f 407 390 510
f 406 511 512
f 406 407 511
f 405 512 513
f 405 406 512
f 404 513 514
f 404 405 513
f 403 514 515
f 403 404 514
f 402 515 516
f 402 403 515
f 401 516 517
f 401 402 516
f 400 517 518
f 400 401 517
f 399 518 519
f 399 400 518
f 398 519 498
f 398 399 519
f 391 398 498
f 464 391 498
f 464 427 391
f 425 427 464
f 425 464 469
f 424 469 470
f 424 425 469
f 423 470 471
f 423 424 470
f 422 471 472
f 422 423 471
f 421 472 473
f 421 422 472
f 420 473 474
f 420 421 473
f 419 474 475
f 419 420 474
f 418 475 476
f 418 419 475
f 417 476 477
f 417 418 476
f 416 477 478
f 416 417 477
f 415 478 479
f 415 416 478
f 428 479 454
f 428 415 479
f 434 428 454
f 434 106 428
f 808 809 697
f 808 697 687
f 811 812 730
f 811 730 710
f 820 765 744
f 828 881 759
f 828 759 777
f 826 822 725
f 826 725 743
f 814 686 709
f 278 77 651
f 278 85 77
f 268 85 278
f 771 322 329
f 771 329 781
f 92 547 322
f 92 104 547
f 763 322 771
f 763 92 322
f 763 93 92
f 737 93 763
f 19 781 329
f 750 781 19
f 753 750 19
f 736 753 19
f 729 93 737
f 76 93 729
f 76 729 703
f 28 736 19
f 33 702 28
f 702 76 703
f 109 601 108
f 106 601 109
f 645 141 635
f 143 645 650
f 143 141 645
f 67 655 71
f 143 650 655
f 149 655 67
f 149 143 655
f 170 156 69
f 170 69 38
f 204 192 22
f 204 22 7
f 526 213 1
f 526 1 328
f 226 526 240
f 226 213 526
f 239 531 536
f 374 375 376
f 374 377 375
f 374 560 377
f 356 561 562
f 356 562 560
f 356 560 374
f 362 561 356
f 363 553 561
f 363 561 362
f 354 553 363
f 361 408 397
f 121 409 114
f 121 360 361
f 121 397 409
f 121 361 397
f 861 232 353
f 860 353 352
f 860 352 360
f 860 360 121
f 860 861 353
f 120 860 121
f 139 860 120
f 212 232 861
f 857 212 861
f 859 860 139
f 148 859 139
f 191 212 857
f 191 857 856
f 184 191 856
f 184 856 858
f 155 859 148
f 155 184 858
f 155 858 859
f 858 856 862
f 856 857 863
f 857 861 864
f 861 860 865
f 860 859 866
f 859 858 867
f 589 377 560
f 494 589 580
f 494 485 377
f 494 377 589
f 493 580 581
f 493 494 580
f 492 581 582
f 492 493 581
f 491 582 583
f 491 492 582
f 490 583 584
f 490 491 583
f 489 584 585
f 489 490 584
f 488 585 586
f 488 489 585
f 487 586 587
f 487 488 586
f 496 487 587
f 486 587 590
f 486 590 588
f 486 496 587
f 497 486 588
f 463 588 579
f 463 497 588
f 433 463 579
f 433 579 596
f 444 433 596
f 444 596 602
f 443 602 612
f 443 612 603
f 443 444 602
f 442 603 604
f 442 443 603
f 441 604 605
f 441 442 604
f 440 605 606
f 440 441 605
f 439 606 607
f 439 440 606
f 438 607 608
f 438 439 607
f 437 608 609
f 437 438 608
f 452 437 609
f 436 609 613
f 436 613 610
f 436 452 609
f 106 610 601
f 435 436 610
f 435 610 106
f 434 435 106
f 303 315 309
f 334 315 303
f 522 334 303
f 294 293 555
f 291 294 555
f 563 291 555
f 611 591 259
f 611 259 252
f 296 537 528
f 296 564 537
f 614 619 266
f 637 614 266
f 639 637 266
f 266 619 252
f 291 563 296
f 563 564 296
f 304 522 303
f 304 243 522
f 305 242 243
f 305 243 304
f 306 530 531
f 306 531 242
f 306 242 305
f 307 529 530
f 307 530 306
f 308 528 529
f 308 529 307
f 296 528 308
f 857 385 863
f 865 869 861
f 859 855 383
f 855 859 867
f 855 867 858
f 848 858 381
f 848 855 858
f 381 858 862
f 883 381 862
f 883 862 856
f 884 883 856
f 884 856 863
f 884 863 851
f 385 851 863
f 886 857 864
f 886 385 857
f 886 852 385
f 887 864 861
f 887 886 864
f 869 887 861
f 869 865 845
f 845 865 860
f 888 845 860
f 868 860 866
f 868 888 860
f 868 866 383
f 383 866 859
f 870 879 875
f 870 878 879
f 893 878 870
f 893 868 878
f 892 868 893
f 892 888 868
f 891 888 892
f 891 877 888
f 890 877 891
f 890 886 877
f 889 886 890
f 889 876 886
f 871 876 889
f 871 885 876
f 872 885 871
f 872 851 885
f 873 851 872
f 873 884 851
f 873 883 884
f 874 883 873
f 874 882 883
f 875 882 874
f 875 879 882
f 890 829 821
f 890 821 889
f 829 890 891
f 891 881 829
f 891 833 881
f 892 833 891
f 827 892 893
f 827 833 892
f 827 893 870
f 870 819 827
f 870 818 819
f 818 870 875
f 818 875 874
f 818 874 880
f 810 818 880
f 810 880 871
f 813 810 871
f 813 871 889
f 889 821 813
f 829 828 842
f 829 842 841
f 829 841 840
f 829 840 820
f 820 839 838
f 820 838 837
f 812 820 837
f 812 821 820
f 811 836 835
f 810 835 834
f 810 811 835
f 810 834 809
f 882 855 848
f 883 882 848
f 885 851 852
f 876 885 852
f 886 876 852
f 887 877 886
f 877 887 845
f 888 877 845
f 878 868 855
f 879 878 855
f 879 855 882
f 880 874 873
f 880 873 872
f 871 880 872

