# https://github.com/mikedh/trimesh
v 0.00000000 -1.48748750 -25.40000000
v -0.20701825 -1.47301137 -25.40000000
v -0.41000712 -1.42986476 -25.40000000
v -0.60501567 -1.35888745 -25.40000000
v -0.78824828 -1.26146094 -25.40000000
v -0.95613853 -1.13948153 -25.40000000
v -1.10541864 -0.99532341 -25.40000000
v -1.23318303 -0.83179245 -25.40000000
v -1.33694491 -0.65207160 -25.40000000
v -1.41468468 -0.45965892 -25.40000000
v -1.46488922 -0.25829949 -25.40000000
v -1.48658136 -0.05191257 -25.40000000
v -1.47933889 0.15548478 -25.40000000
v -1.44330276 0.35985580 -25.40000000
v -1.37917439 0.55722263 -25.40000000
v -1.28820196 0.74374375 -25.40000000
v -1.17215615 0.91578875 -25.40000000
v -1.03329564 1.07000896 -25.40000000
v -0.87432322 1.20340267 -25.40000000
v -0.69833308 1.31337351 -25.40000000
v -0.50875069 1.39778103 -25.40000000
v -0.30926604 1.45498233 -25.40000000
v -0.10376188 1.48386406 -25.40000000
v 0.10376188 1.48386406 -25.40000000
v 0.30926604 1.45498233 -25.40000000
v 0.50875069 1.39778103 -25.40000000
v 0.69833308 1.31337351 -25.40000000
v 0.87432322 1.20340267 -25.40000000
v 1.03329564 1.07000896 -25.40000000
v 1.17215615 0.91578875 -25.40000000
v 1.28820196 0.74374375 -25.40000000
v 1.37917439 0.55722263 -25.40000000
v 1.44330276 0.35985580 -25.40000000
v 1.47933889 0.15548478 -25.40000000
v 1.48658136 -0.05191257 -25.40000000
v 1.46488922 -0.25829949 -25.40000000
v 1.41468468 -0.45965892 -25.40000000
v 1.33694491 -0.65207160 -25.40000000
v 1.23318303 -0.83179245 -25.40000000
v 1.10541864 -0.99532341 -25.40000000
v 0.95613853 -1.13948153 -25.40000000
v 0.78824828 -1.26146094 -25.40000000
v 0.60501567 -1.35888745 -25.40000000
v 0.41000712 -1.42986476 -25.40000000
v 0.20701825 -1.47301137 -25.40000000
v 1.42453825 0.58238614 2.13653646
v 1.35595185 0.49526620 2.08570707
v 1.29802754 0.39761368 2.04003816
v 1.25220392 0.29174589 2.00195321
v 1.22908788 0.21774768 1.98197334
v 1.21335629 0.14713612 1.96800620
v 1.20413075 0.08140966 1.95962680
v 1.20048729 -0.02796674 1.95625591
v 1.21055098 -0.13083678 1.96547431
v 1.23646259 -0.24403379 1.98840888
v 1.27322085 -0.34497830 2.01965068
v 1.32607469 -0.44850432 2.06247551
v 1.37244549 -0.51852991 2.09824390
v 1.42453825 -0.58238614 2.13653646
v 1.42453825 0.58238614 0.65978597
v 1.42453825 -0.58238614 0.65978597
v 1.35453364 -0.49360790 0.62439337
v 1.29776666 -0.39831057 0.59387737
v 1.25087217 -0.28992840 0.56725979
v 1.21859084 -0.17591353 0.54801119
v 1.20265887 -0.06675283 0.53810598
v 1.20164221 0.05109869 0.53746068
v 1.21752138 0.16955711 0.54736255
v 1.24767701 0.27994350 0.56539898
v 1.29256988 0.38756262 0.59099964
v 1.35220433 0.49005708 0.62317632
v 1.45180499 0.83820000 2.20980000
v 1.47582556 0.77362581 2.20448799
v 1.47817752 0.70305341 2.18883987
v 1.46010556 0.63752338 2.16551251
v 1.46110009 0.64063237 0.68038460
v 1.47824385 0.71086425 0.69679585
v 1.47435610 0.77850665 0.70655352
v 1.42303408 0.87613281 0.70793338
v 1.32739949 0.93538046 0.69081440
v 1.21663032 0.94249324 0.65978597
v 1.21663032 0.94249324 2.13653646
v 1.28210667 0.94575368 2.16549512
v 1.34794958 0.92865518 2.18885006
v 1.40792626 0.89128930 2.20450188
v 0.00000000 1.67640000 2.20980000
v 0.06793318 1.66491533 2.20448799
v 0.13022665 1.63166599 2.18883987
v 0.17794134 1.58325019 2.16551251
v 0.20790793 1.52487938 2.13653646
v 0.20790793 1.52487938 0.65978597
v 0.17575943 1.58559036 0.68035933
v 0.12336139 1.63562398 0.69679416
v 0.06274969 1.66608231 0.70655321
v -0.04747673 1.67044737 0.70793244
v -0.14646407 1.61723996 0.69081028
v -0.20790793 1.52487938 0.65978597
v -0.20790793 1.52487938 2.13653646
v -0.17799338 1.58321379 2.16549512
v -0.13026419 1.63168617 2.18885006
v -0.06791604 1.66494456 2.20450188
v -1.45180499 0.83820000 2.20980000
v -1.40789238 0.89128952 2.20448799
v -1.34795087 0.92861258 2.18883987
v -1.28216422 0.94572682 2.16551251
v -1.21663032 0.94249324 2.13653646
v -1.21663032 0.94249324 0.65978597
v -1.28535395 0.94503361 0.68038460
v -1.35474843 0.92476460 0.69679585
v -1.41138459 0.88757651 0.70655352
v -1.47027031 0.79431726 0.70793338
v -1.47376298 0.68187145 0.69081440
v -1.42453825 0.58238614 0.65978597
v -1.42453825 0.58238614 2.13653646
v -1.46010005 0.63746010 2.16549512
v -1.47821377 0.70303098 2.18885006
v -1.47584231 0.77365526 2.20450188
v -1.42453825 -0.58238614 2.13653646
v -1.35595185 -0.49526620 2.08570707
v -1.29802754 -0.39761368 2.04003816
v -1.25220392 -0.29174589 2.00195321
v -1.22908788 -0.21774768 1.98197334
v -1.21335629 -0.14713612 1.96800620
v -1.20413075 -0.08140966 1.95962680
v -1.20048729 0.02796674 1.95625591
v -1.21055098 0.13083678 1.96547431
v -1.23646259 0.24403379 1.98840888
v -1.27322085 0.34497830 2.01965068
v -1.32607469 0.44850432 2.06247551
v -1.37244549 0.51852991 2.09824390
v -1.42453825 -0.58238614 0.65978597
v -1.35453364 0.49360790 0.62439337
v -1.29776666 0.39831057 0.59387737
v -1.25087217 0.28992840 0.56725979
v -1.21859084 0.17591353 0.54801119
v -1.20265887 0.06675283 0.53810598
v -1.20164221 -0.05109869 0.53746068
v -1.21752138 -0.16955711 0.54736255
v -1.24767701 -0.27994350 0.56539898
v -1.29256988 -0.38756262 0.59099964
v -1.35220433 -0.49005708 0.62317632
v -0.20790793 -1.52487938 2.13653646
v -0.24906281 -1.42192185 2.08570707
v -0.30467022 -1.32293166 2.04003816
v -0.37344261 -1.23031335 2.00195321
v -0.42596892 -1.17329516 1.98197334
v -0.47925453 -1.12436543 1.96800620
v -0.53156254 -1.08351265 1.95962680
v -0.62446356 -1.02566912 1.95625591
v -0.71858347 -0.98294951 1.96547431
v -0.82957075 -0.94879112 1.98840888
v -0.93537039 -0.93015245 2.01965068
v -1.05145348 -0.92416221 2.06247551
v -1.13528282 -0.92930770 2.09824390
v -1.21663032 -0.94249324 2.13653646
v -0.20790793 -1.52487938 0.65978597
v -1.21663032 -0.94249324 0.65978598
v -1.10474380 -0.92625659 0.62439337
v -0.99383040 -0.92474362 0.59387737
v -0.87652144 -0.93832288 0.56725979
v -0.76164101 -0.96737386 0.54801119
v -0.65913908 -1.00815672 0.53810598
v -0.55656835 -1.06620202 0.53746068
v -0.46191993 -1.13918300 0.54736255
v -0.38140032 -1.22049174 0.56539898
v -0.31064586 -1.31317966 0.59099964
v -0.25170028 -1.41607184 0.62317632
v 1.21663032 -0.94249324 2.13653646
v 1.10688904 -0.92665565 2.08570707
v 0.99335732 -0.92531798 2.04003816
v 0.87876131 -0.93856746 2.00195321
v 0.80311896 -0.95554748 1.98197334
v 0.73410176 -0.97722931 1.96800620
v 0.67256821 -1.00210299 1.95962680
v 0.57602374 -1.05363586 1.95625591
v 0.49196751 -1.11378629 1.96547431
v 0.40689183 -1.19282490 1.98840888
v 0.33785046 -1.27513075 2.01965068
v 0.27462121 -1.37266653 2.06247551
v 0.23716267 -1.44783761 2.09824390
v 0.20790793 -1.52487938 2.13653646
v 1.21663032 -0.94249324 0.65978597
v 0.20790793 -1.52487938 0.65978597
v 0.24978983 -1.41986449 0.62439337
v 0.30393626 -1.32305418 0.59387737
v 0.37435073 -1.22825127 0.56725979
v 0.45694984 -1.14328739 0.54801119
v 0.54351979 -1.07490955 0.53810598
v 0.64507386 -1.01510334 0.53746068
v 0.75560145 -0.96962589 0.54736255
v 0.86627669 -0.94054823 0.56539898
v 0.98192402 -0.92561704 0.59099964
v 1.10050405 -0.92601476 0.62317632
v 1.54879165 0.64153051 2.20980000
v 1.61927806 0.43388425 2.20980000
v 1.66205817 0.21881411 2.20980000
v 1.67640000 -0.00000000 2.20980000
v 1.66205817 -0.21881411 2.20980000
v 1.61927806 -0.43388425 2.20980000
v 1.54879165 -0.64153051 2.20980000
v 1.45180499 -0.83820000 2.20980000
v 1.46010005 -0.63746010 2.16549512
v 1.47821377 -0.70303098 2.18885006
v 1.47584231 -0.77365526 2.20450188
v 1.38959182 -0.37234000 2.08301929
v 1.43861131 0.00000000 2.08301929
v 1.38959182 0.37234000 2.08301929
v 0.21881411 1.66205817 2.20980000
v 0.43388425 1.61927806 2.20980000
v 0.64153051 1.54879165 2.20980000
v 0.83820000 1.45180499 2.20980000
v 1.02052766 1.32997754 2.20980000
v 1.18539381 1.18539381 2.20980000
v 1.32997754 1.02052766 2.20980000
v 0.24889896 1.42215034 2.08579014
v 0.30421789 1.32336834 2.04014710
v 0.37265727 1.23092000 2.00204838
v 0.42497638 1.17398504 1.98204596
v 0.47810420 1.12510568 1.96805359
v 0.53031396 1.08427242 1.95965113
v 0.62318968 1.02639647 1.95625108
v 0.71745479 0.98357414 1.96545774
v 0.82873350 0.94924825 1.98839274
v 0.93485123 0.93043797 2.01964194
v 1.05124833 0.92428103 2.06247578
v 1.13523294 0.92934182 2.09824721
v 1.01724001 1.01724001 2.08301040
v 0.71929731 1.24585949 2.08301040
v 0.37233569 1.38957570 2.08301040
v -1.32997754 1.02052766 2.20980000
v -1.18539381 1.18539381 2.20980000
v -1.02052766 1.32997754 2.20980000
v -0.83820000 1.45180499 2.20980000
v -0.64153051 1.54879165 2.20980000
v -0.43388425 1.61927806 2.20980000
v -0.21881411 1.66205817 2.20980000
v -1.10702335 0.92663972 2.08574529
v -0.99364899 0.92522676 2.04008604
v -0.87920547 0.93837376 2.00199215
v -0.80364826 0.95528626 1.98200089
v -0.73468994 0.97691559 1.96802227
v -0.67318727 1.00175665 1.95963370
v -0.57663163 1.05328408 1.95625544
v -0.49249173 1.11348951 1.96547799
v -0.40726913 1.19263150 1.98842406
v -0.33807545 1.27504199 2.01967621
v -0.27470198 1.37266602 2.06250412
v -0.23717681 1.44786261 2.09826447
v -0.37233828 1.38958539 2.08301575
v -0.71930232 1.24586817 2.08301575
v -1.01724710 1.01724710 2.08301575
v -1.45180499 -0.83820000 2.20980000
v -1.47582556 -0.77362581 2.20448799
v -1.47817752 -0.70305341 2.18883987
v -1.46010556 -0.63752338 2.16551251
v -1.54879165 -0.64153051 2.20980000
v -1.61927806 -0.43388425 2.20980000
v -1.66205817 -0.21881411 2.20980000
v -1.67640000 -0.00000000 2.20980000
v -1.66205817 0.21881411 2.20980000
v -1.61927806 0.43388425 2.20980000
v -1.54879165 0.64153051 2.20980000
v -1.38959182 0.37234000 2.08301929
v -1.43861131 -0.00000000 2.08301929
v -1.38959182 -0.37234000 2.08301929
v 0.00000000 -1.67640000 2.20980000
v -0.06793318 -1.66491533 2.20448799
v -0.13022665 -1.63166599 2.18883987
v -0.17794134 -1.58325019 2.16551251
v -0.21881411 -1.66205817 2.20980000
v -0.43388425 -1.61927806 2.20980000
v -0.64153051 -1.54879165 2.20980000
v -0.83820000 -1.45180499 2.20980000
v -1.02052766 -1.32997754 2.20980000
v -1.18539381 -1.18539381 2.20980000
v -1.32997754 -1.02052766 2.20980000
v -1.26266504 -0.94740000 2.15764153
v -1.36971863 -0.91868988 2.19541925
v -1.23174229 -0.94520625 2.14379907
v -1.24710972 -0.94684424 2.15084441
v -1.01725181 -1.01725181 2.08301929
v -0.71930565 -1.24587394 2.08301929
v -0.37234000 -1.38959182 2.08301929
v 1.32997754 -1.02052766 2.20980000
v 1.18539381 -1.18539381 2.20980000
v 1.02052766 -1.32997754 2.20980000
v 0.83820000 -1.45180499 2.20980000
v 0.64153051 -1.54879165 2.20980000
v 0.43388425 -1.61927806 2.20980000
v 0.21881411 -1.66205817 2.20980000
v 0.17799338 -1.58321379 2.16549512
v 0.13026419 -1.63168617 2.18885006
v 0.06791604 -1.66494456 2.20450188
v 1.26266504 -0.94740000 2.15764153
v 1.24710972 -0.94684424 2.15084441
v 1.23174229 -0.94520625 2.14379907
v 1.36969497 -0.91859820 2.19538659
v 0.37234000 -1.38959182 2.08301929
v 0.71930565 -1.24587394 2.08301929
v 1.01725181 -1.01725181 2.08301929
v 0.00000000 2.08280000 2.20980000
v 0.28986973 2.06253033 2.20980000
v 0.57409748 2.00211586 2.20980000
v 0.84715108 1.90273248 2.20980000
v 1.10371584 1.76631457 2.20980000
v 1.33879803 1.59551737 2.20980000
v 1.54782204 1.39366523 2.20980000
v 1.72671946 1.16468698 2.20980000
v 1.87200824 0.91303942 2.20980000
v 1.98086051 0.64362060 2.20980000
v 2.05115759 0.36167442 2.20980000
v 2.08153121 0.07268867 2.20980000
v 2.07139020 -0.21771188 2.20980000
v 2.02093194 -0.50387492 2.20980000
v 1.93113853 -0.78023061 2.20980000
v 1.80375771 -1.04140000 2.20980000
v 1.64126880 -1.28229972 2.20980000
v 1.44683445 -1.49824094 2.20980000
v 1.22423912 -1.68502060 2.20980000
v 0.97781537 -1.83900325 2.20980000
v 0.71235955 -1.95719179 2.20980000
v 0.43303847 -2.03728582 2.20980000
v 0.14528878 -2.07772640 2.20980000
v -0.14528878 -2.07772640 2.20980000
v -0.43303847 -2.03728582 2.20980000
v -0.71235955 -1.95719179 2.20980000
v -0.97781537 -1.83900325 2.20980000
v -1.22423912 -1.68502060 2.20980000
v -1.44683445 -1.49824094 2.20980000
v -1.64126880 -1.28229972 2.20980000
v -1.80375771 -1.04140000 2.20980000
v -1.93113853 -0.78023061 2.20980000
v -2.02093194 -0.50387492 2.20980000
v -2.07139020 -0.21771188 2.20980000
v -2.08153121 0.07268867 2.20980000
v -2.05115759 0.36167442 2.20980000
v -1.98086051 0.64362060 2.20980000
v -1.87200824 0.91303942 2.20980000
v -1.72671946 1.16468698 2.20980000
v -1.54782204 1.39366523 2.20980000
v -1.33879803 1.59551737 2.20980000
v -1.10371584 1.76631457 2.20980000
v -0.84715108 1.90273248 2.20980000
v -0.57409748 2.00211586 2.20980000
v -0.28986973 2.06253033 2.20980000
v 0.00000000 3.96240000 0.00000000
v 0.55145950 3.92383820 0.00000000
v 1.09218546 3.80890334 0.00000000
v 1.61165327 3.61983252 0.00000000
v 2.09975209 3.36030578 0.00000000
v 2.54698162 3.03537450 0.00000000
v 2.94463706 2.65136311 0.00000000
v 3.28497848 2.21574596 0.00000000
v 3.56138153 1.73700183 0.00000000
v 3.76846634 1.22444894 0.00000000
v 3.90220224 0.68806354 0.00000000
v 3.95998621 0.13828577 0.00000000
v 3.94069356 -0.41418358 0.00000000
v 3.84469979 -0.95859132 0.00000000
v 3.67387331 -1.48434117 0.00000000
v 3.43153906 -1.98120000 0.00000000
v 3.12241381 -2.43949703 0.00000000
v 2.75251433 -2.85031202 0.00000000
v 2.32904028 -3.20564894 0.00000000
v 1.86023412 -3.49859154 0.00000000
v 1.35522062 -3.72343804 0.00000000
v 0.82382928 -3.87581205 0.00000000
v 0.27640305 -3.95274779 0.00000000
v -0.27640305 -3.95274779 0.00000000
v -0.82382928 -3.87581205 0.00000000
v -1.35522062 -3.72343804 0.00000000
v -1.86023412 -3.49859154 0.00000000
v -2.32904028 -3.20564894 0.00000000
v -2.75251433 -2.85031202 0.00000000
v -3.12241381 -2.43949703 0.00000000
v -3.43153906 -1.98120000 0.00000000
v -3.67387331 -1.48434117 0.00000000
v -3.84469979 -0.95859132 0.00000000
v -3.94069356 -0.41418358 0.00000000
v -3.95998621 0.13828577 0.00000000
v -3.90220224 0.68806354 0.00000000
v -3.76846634 1.22444894 0.00000000
v -3.56138153 1.73700183 0.00000000
v -3.28497848 2.21574596 0.00000000
v -2.94463706 2.65136311 0.00000000
v -2.54698162 3.03537450 0.00000000
v -2.09975209 3.36030578 0.00000000
v -1.61165327 3.61983252 0.00000000
v -1.09218546 3.80890334 0.00000000
v -0.55145950 3.92383820 0.00000000
v 0.00000000 2.38280000 0.00000000
v 0.33162166 2.35961075 0.00000000
v 0.65678869 2.29049437 0.00000000
v 0.96917207 2.17679612 0.00000000
v 1.26269162 2.02072900 0.00000000
v 1.53163432 1.82533070 0.00000000
v 1.77076549 1.59440441 0.00000000
v 1.97543073 1.33244485 0.00000000
v 2.14164645 1.04455077 0.00000000
v 2.26617747 0.73632569 0.00000000
v 2.34659991 0.41376888 0.00000000
v 2.38134846 0.08315852 0.00000000
v 2.36974677 -0.24907042 0.00000000
v 2.31202066 -0.57645149 0.00000000
v 2.20929369 -0.89261259 0.00000000
v 2.06356533 -1.19140000 0.00000000
v 1.87767202 -1.46699816 0.00000000
v 1.65523197 -1.71404288 0.00000000
v 1.40057470 -1.92772569 0.00000000
v 1.11865684 -2.10388752 0.00000000
v 0.81496560 -2.23909958 0.00000000
v 0.49541198 -2.33073010 0.00000000
v 0.16621573 -2.37699562 0.00000000
v -0.16621573 -2.37699562 0.00000000
v -0.49541198 -2.33073010 0.00000000
v -0.81496560 -2.23909958 0.00000000
v -1.11865684 -2.10388752 0.00000000
v -1.40057470 -1.92772569 0.00000000
v -1.65523197 -1.71404288 0.00000000
v -1.87767202 -1.46699816 0.00000000
v -2.06356533 -1.19140000 0.00000000
v -2.20929369 -0.89261259 0.00000000
v -2.31202066 -0.57645149 0.00000000
v -2.36974677 -0.24907042 0.00000000
v -2.38134846 0.08315852 0.00000000
v -2.34659991 0.41376888 0.00000000
v -2.26617747 0.73632569 0.00000000
v -2.14164645 1.04455077 0.00000000
v -1.97543073 1.33244485 0.00000000
v -1.77076549 1.59440441 0.00000000
v -1.53163432 1.82533070 0.00000000
v -1.26269162 2.02072900 0.00000000
v -0.96917207 2.17679612 0.00000000
v -0.65678869 2.29049437 0.00000000
v -0.33162166 2.35961075 0.00000000
v 0.00000000 3.96240000 0.33020000
v 0.55145950 3.92383820 0.33020000
v 1.09218546 3.80890334 0.33020000
v 1.61165327 3.61983252 0.33020000
v 2.09975209 3.36030578 0.33020000
v 2.54698162 3.03537450 0.33020000
v 2.94463706 2.65136311 0.33020000
v 3.28497848 2.21574596 0.33020000
v 3.56138153 1.73700183 0.33020000
v 3.76846634 1.22444894 0.33020000
v 3.90220224 0.68806354 0.33020000
v 3.95998621 0.13828577 0.33020000
v 3.94069356 -0.41418358 0.33020000
v 3.84469979 -0.95859132 0.33020000
v 3.67387331 -1.48434117 0.33020000
v 3.43153906 -1.98120000 0.33020000
v 3.12241381 -2.43949703 0.33020000
v 2.75251433 -2.85031202 0.33020000
v 2.32904028 -3.20564894 0.33020000
v 1.86023412 -3.49859154 0.33020000
v 1.35522062 -3.72343804 0.33020000
v 0.82382928 -3.87581205 0.33020000
v 0.27640305 -3.95274779 0.33020000
v -0.27640305 -3.95274779 0.33020000
v -0.82382928 -3.87581205 0.33020000
v -1.35522062 -3.72343804 0.33020000
v -1.86023412 -3.49859154 0.33020000
v -2.32904028 -3.20564894 0.33020000
v -2.75251433 -2.85031202 0.33020000
v -3.12241381 -2.43949703 0.33020000
v -3.43153906 -1.98120000 0.33020000
v -3.67387331 -1.48434117 0.33020000
v -3.84469979 -0.95859132 0.33020000
v -3.94069356 -0.41418358 0.33020000
v -3.95998621 0.13828577 0.33020000
v -3.90220224 0.68806354 0.33020000
v -3.76846634 1.22444894 0.33020000
v -3.56138153 1.73700183 0.33020000
v -3.28497848 2.21574596 0.33020000
v -2.94463706 2.65136311 0.33020000
v -2.54698162 3.03537450 0.33020000
v -2.09975209 3.36030578 0.33020000
v -1.61165327 3.61983252 0.33020000
v -1.09218546 3.80890334 0.33020000
v -0.55145950 3.92383820 0.33020000
v 1.63530127 3.52345103 0.47220386
v 1.20784297 3.52345103 0.73035747
v 2.21970696 2.96971184 0.75586212
v 0.74087865 3.52345103 0.90729873
v 1.73160096 2.96971184 1.11463548
v 2.78620819 2.31922266 0.87359874
v 0.24968174 3.52345103 0.99724026
v 1.18685791 2.96971184 1.37962756
v 2.26763183 2.31922266 1.33248051
v 3.29119599 1.59317571 0.82974190
v -0.24968174 3.52345103 0.99724026
v 0.60329522 2.96971184 1.54217102
v 1.67488598 2.31922266 1.69045574
v 2.77226024 1.59317571 1.38029545
v 3.69440432 0.81522483 0.64019225
v -0.74087865 3.52345103 0.90729873
v -0.00000000 2.96971184 1.59694940
v 1.02735811 2.31922266 1.93581581
v 2.16264966 1.59317571 1.82837852
v 3.20301476 0.81522483 1.26646848
v -1.20784297 3.52345103 0.73035747
v -0.60329522 2.96971184 1.54217102
v 0.34622749 2.31922266 2.06053551
v 1.48230332 1.59317571 2.15933528
v 2.60686128 0.81522483 1.79399729
v 3.52177983 0.01071481 1.01066286
v -1.63530127 3.52345103 0.47220386
v -1.18685791 2.96971184 1.37962756
v -0.34622749 2.31922266 2.06053551
v 2.96648703 0.01071481 1.59978863
v 3.69763759 -0.79414429 0.64228637
v -1.73160096 2.96971184 1.11463548
v -1.02735811 2.31922266 1.93581581
v 2.31416664 0.01071481 2.07926476
v 3.20581797 -0.79414429 1.26911070
v -2.21970696 2.96971184 0.75586212
v -1.67488598 2.31922266 1.69045574
v 2.60914275 -0.79414429 1.79710119
v 3.29715855 -1.57313103 0.83442026
v -2.26763183 2.31922266 1.33248051
v -1.48230332 1.59317571 2.15933528
v 2.77728267 -1.57313103 1.38597122
v -2.78620819 2.31922266 0.87359874
v -2.16264966 1.59317571 1.82837852
v 2.16656767 -1.57313103 1.83486608
v 2.79425548 -2.30086687 0.88118388
v -2.77226024 1.59317571 1.38029545
v 1.48498877 -1.57313103 2.16642242
v 2.27418135 -2.30086687 1.34139102
v -3.29119599 1.59317571 0.82974190
v -2.60686128 0.81522483 1.79399729
v 1.67972349 -2.30086687 1.70040018
v 2.22910263 -2.95364296 0.76648006
v -3.20301476 0.81522483 1.26646848
v -2.31416664 0.01071481 2.07926476
v 1.03032538 -2.30086687 1.94646892
v 1.73893056 -2.95364296 1.12677205
v -3.69440432 0.81522483 0.64019225
v -2.96648703 0.01071481 1.59978863
v 0.34722749 -2.30086687 2.07154884
v 1.19188170 -2.95364296 1.39288580
v 1.64527227 -3.51019256 0.48576927
v -3.52177983 0.01071481 1.01066286
v -2.60914275 -0.79414429 1.79710119
v -1.48498877 -1.57313103 2.16642242
v -0.34722749 -2.30086687 2.07154884
v 0.60584887 -2.95364296 1.55611728
v 1.21520761 -3.51019256 0.74549693
v -3.20581797 -0.79414429 1.26911070
v -2.16656767 -1.57313103 1.83486608
v -1.03032538 -2.30086687 1.94646892
v -0.00000000 -2.95364296 1.61112753
v 0.74539605 -3.51019256 0.92351707
v -3.69763759 -0.79414429 0.64228637
v -2.77728267 -1.57313103 1.38597122
v -1.67972349 -2.30086687 1.70040018
v -0.60584887 -2.95364296 1.55611728
v 0.25120414 -3.51019256 1.01400700
v -3.29715855 -1.57313103 0.83442026
v -2.27418135 -2.30086687 1.34139102
v -1.19188170 -2.95364296 1.39288580
v -0.25120414 -3.51019256 1.01400700
v -2.79425548 -2.30086687 0.88118388
v -1.73893056 -2.95364296 1.12677205
v -0.74539605 -3.51019256 0.92351707
v -2.22910263 -2.95364296 0.76648006
v -1.21520761 -3.51019256 0.74549693
v -1.64527227 -3.51019256 0.48576927
v 0.00000000 2.08280000 -0.30000000
v -0.00000000 2.10089221 -0.19739398
v -0.00000000 2.13215366 -0.13514731
v -0.00000000 2.19901984 -0.06288220
v -0.00000000 2.28567984 -0.01615555
v 0.28360790 2.06340069 -0.30000000
v 0.56193271 2.00556413 -0.30000000
v 0.82978979 1.91036770 -0.30000000
v 1.08218945 1.77958474 -0.30000000
v 1.31442997 1.61565148 -0.30000000
v 1.52218515 1.42162169 -0.30000000
v 1.70158489 1.20110977 -0.30000000
v 1.84928733 0.95822346 -0.30000000
v 1.96254105 0.69748726 -0.30000000
v 2.03923634 0.42375818 -0.30000000
v 2.07794451 0.14213530 -0.30000000
v 2.07794451 -0.14213530 -0.30000000
v 2.03923634 -0.42375818 -0.30000000
v 1.96254105 -0.69748726 -0.30000000
v 1.84928733 -0.95822346 -0.30000000
v 1.70158489 -1.20110977 -0.30000000
v 1.52218515 -1.42162169 -0.30000000
v 1.31442997 -1.61565148 -0.30000000
v 1.08218945 -1.77958474 -0.30000000
v 0.82978979 -1.91036770 -0.30000000
v 0.56193271 -2.00556413 -0.30000000
v 0.28360790 -2.06340069 -0.30000000
v 0.00000000 -2.08280000 -0.30000000
v -0.28360790 -2.06340069 -0.30000000
v -0.56193271 -2.00556413 -0.30000000
v -0.82978979 -1.91036770 -0.30000000
v -1.08218945 -1.77958474 -0.30000000
v -1.31442997 -1.61565148 -0.30000000
v -1.52218515 -1.42162169 -0.30000000
v -1.70158489 -1.20110977 -0.30000000
v -1.84928733 -0.95822346 -0.30000000
v -1.96254105 -0.69748726 -0.30000000
v -2.03923634 -0.42375818 -0.30000000
v -2.07794451 -0.14213530 -0.30000000
v -2.07794451 0.14213530 -0.30000000
v -2.03923634 0.42375818 -0.30000000
v -1.96254105 0.69748726 -0.30000000
v -1.84928733 0.95822346 -0.30000000
v -1.70158489 1.20110977 -0.30000000
v -1.52218515 1.42162169 -0.30000000
v -1.31442997 1.61565148 -0.30000000
v -1.08218945 1.77958474 -0.30000000
v -0.82978979 1.91036770 -0.30000000
v -0.56193271 2.00556413 -0.30000000
v -0.28360790 2.06340069 -0.30000000
v 0.28607145 2.08132439 -0.19739396
v 0.29032822 2.11229466 -0.13514731
v 0.29943316 2.17853805 -0.06288220
v 0.31123336 2.26439087 -0.01615555
v 0.56681394 2.02298543 -0.19739396
v 0.57524817 2.05308762 -0.13514731
v 0.59328845 2.11747422 -0.06288220
v 0.61666903 2.20092061 -0.01615555
v 0.83699775 1.92696208 -0.19739396
v 0.84945234 1.95563543 -0.13514731
v 0.87609190 2.01696585 -0.06288220
v 0.91061733 2.09645136 -0.01615555
v 1.09158988 1.79504307 -0.19739396
v 1.10783282 1.82175346 -0.13514731
v 1.14257541 1.87888522 -0.06288220
v 1.18760255 1.95292919 -0.01615555
v 1.32584775 1.62968581 -0.19739396
v 1.34557647 1.65393566 -0.13514731
v 1.38777491 1.70580452 -0.06288220
v 1.44246498 1.77302764 -0.01615555
v 1.53540759 1.43397058 -0.19739396
v 1.55825457 1.45530818 -0.13514731
v 1.60712278 1.50094790 -0.06288220
v 1.67045701 1.56009794 -0.01615555
v 1.71636569 1.21154320 -0.19739396
v 1.74190534 1.22957106 -0.13514731
v 1.79653300 1.26813147 -0.06288220
v 1.86733160 1.31810657 -0.01615555
v 1.86535114 0.96654706 -0.19739396
v 1.89310772 0.98092935 -0.13514731
v 1.95247721 1.01169214 -0.06288220
v 2.02942132 1.05156137 -0.01615555
v 1.97958863 0.70354597 -0.19739396
v 2.00904507 0.71401479 -0.13514731
v 2.07205046 0.73640691 -0.06288220
v 2.15370677 0.76542757 -0.01615555
v 2.05695014 0.42743915 -0.19739396
v 2.08755772 0.43379948 -0.13514731
v 2.15302533 0.44740381 -0.06288220
v 2.23787274 0.46503530 -0.01615555
v 2.09599455 0.14336995 -0.19739396
v 2.12718311 0.14550331 -0.13514731
v 2.19389341 0.15006642 -0.06288220
v 2.28035137 0.15598031 -0.01615555
v 2.09599455 -0.14336995 -0.19739396
v 2.12718311 -0.14550331 -0.13514731
v 2.19389341 -0.15006642 -0.06288220
v 2.28035137 -0.15598031 -0.01615555
v 2.05695014 -0.42743915 -0.19739396
v 2.08755772 -0.43379948 -0.13514731
v 2.15302533 -0.44740381 -0.06288220
v 2.23787274 -0.46503530 -0.01615555
v 1.97958863 -0.70354597 -0.19739396
v 2.00904507 -0.71401479 -0.13514731
v 2.07205046 -0.73640691 -0.06288220
v 2.15370677 -0.76542757 -0.01615555
v 1.86535114 -0.96654706 -0.19739396
v 1.89310772 -0.98092935 -0.13514731
v 1.95247721 -1.01169214 -0.06288220
v 2.02942132 -1.05156137 -0.01615555
v 1.71636569 -1.21154320 -0.19739396
v 1.74190534 -1.22957106 -0.13514731
v 1.79653300 -1.26813147 -0.06288220
v 1.86733160 -1.31810657 -0.01615555
v 1.53540759 -1.43397058 -0.19739396
v 1.55825457 -1.45530818 -0.13514731
v 1.45940236 -1.51125539 -0.19739396
v 1.60712278 -1.50094790 -0.06288220
v 1.48111838 -1.53374299 -0.13514731
v 1.67045701 -1.56009794 -0.01615555
v 1.52756754 -1.58184249 -0.06288220
v 1.32584775 -1.62968581 -0.19739396
v 1.34557647 -1.65393566 -0.13514731
v 1.58776662 -1.64418046 -0.01615555
v 1.23487346 -1.69965750 -0.19739396
v 1.38777491 -1.70580452 -0.06288220
v 1.25324847 -1.72494854 -0.13514731
v 1.44246498 -1.77302764 -0.01615555
v 1.29255143 -1.77904442 -0.06288220
v 1.09158988 -1.79504307 -0.19739396
v 1.10783282 -1.82175346 -0.13514731
v 1.34348889 -1.84915382 -0.01615555
v 0.98630915 -1.85497772 -0.19739396
v 1.14257541 -1.87888522 -0.06288220
v 1.00098551 -1.88257994 -0.13514731
v 1.18760255 -1.95292919 -0.01615555
v 1.03237728 -1.94161927 -0.06288220
v 0.83699775 -1.92696208 -0.19739396
v 0.84945234 -1.95563543 -0.13514731
v 1.07306168 -2.01813549 -0.01615555
v 0.71854746 -1.97419291 -0.19739396
v 0.87609190 -2.01696585 -0.06288220
v 0.72923950 -2.00356906 -0.13514731
v 0.91061733 -2.09645136 -0.01615555
v 0.56681394 -2.02298543 -0.19739396
v 0.75210908 -2.06640271 -0.06288220
v 0.57524817 -2.05308762 -0.13514731
v 0.78174854 -2.14783646 -0.01615555
v 0.43680005 -2.05498268 -0.19739396
v 0.59328845 -2.11747422 -0.06288220
v 0.44329967 -2.08556098 -0.13514731
v 0.61666903 -2.20092061 -0.01615555
v 0.28607145 -2.08132439 -0.19739396
v 0.45720193 -2.15096598 -0.06288220
v 0.29032822 -2.11229466 -0.13514731
v 0.47521956 -2.23573223 -0.01615555
v 0.14655083 -2.09577455 -0.19739396
v 0.29943316 -2.17853805 -0.06288220
v 0.14873152 -2.12695984 -0.13514731
v 0.31123336 -2.26439087 -0.01615555
v 0.00000000 -2.10089221 -0.19739396
v 0.15339587 -2.19366313 -0.06288220
v 0.00000000 -2.13215366 -0.13514731
v 0.15944096 -2.28011202 -0.01615555
v -0.14655083 -2.09577455 -0.19739396
v 0.00000000 -2.19901984 -0.06288220
v -0.14873152 -2.12695984 -0.13514731
v 0.00000000 -2.28567982 -0.01615555
v -0.28607145 -2.08132439 -0.19739396
v -0.15339587 -2.19366313 -0.06288220
v -0.29032822 -2.11229466 -0.13514731
v -0.15944096 -2.28011202 -0.01615555
v -0.43680005 -2.05498268 -0.19739396
v -0.29943316 -2.17853805 -0.06288220
v -0.44329967 -2.08556098 -0.13514731
v -0.31123336 -2.26439087 -0.01615555
v -0.56681394 -2.02298543 -0.19739396
v -0.45720193 -2.15096598 -0.06288220
v -0.57524817 -2.05308762 -0.13514731
v -0.47521956 -2.23573223 -0.01615555
v -0.71854746 -1.97419291 -0.19739396
v -0.59328845 -2.11747422 -0.06288220
v -0.72923950 -2.00356906 -0.13514731
v -0.61666903 -2.20092061 -0.01615555
v -0.83699775 -1.92696208 -0.19739396
v -0.75210908 -2.06640271 -0.06288220
v -0.84945234 -1.95563543 -0.13514731
v -0.78174854 -2.14783646 -0.01615555
v -0.87609190 -2.01696585 -0.06288220
v -0.98630915 -1.85497772 -0.19739396
v -1.00098551 -1.88257994 -0.13514731
v -0.91061733 -2.09645136 -0.01615555
v -1.09158988 -1.79504307 -0.19739396
v -1.03237728 -1.94161927 -0.06288220
v -1.10783282 -1.82175346 -0.13514731
v -1.07306168 -2.01813549 -0.01615555
v -1.14257541 -1.87888522 -0.06288220
v -1.23487346 -1.69965750 -0.19739396
v -1.25324847 -1.72494854 -0.13514731
v -1.18760255 -1.95292919 -0.01615555
v -1.32584775 -1.62968581 -0.19739396
v -1.29255143 -1.77904442 -0.06288220
v -1.34557647 -1.65393566 -0.13514731
v -1.34348889 -1.84915382 -0.01615555
v -1.38777491 -1.70580452 -0.06288220
v -1.45940236 -1.51125539 -0.19739396
v -1.48111838 -1.53374299 -0.13514731
v -1.44246498 -1.77302764 -0.01615555
v -1.53540759 -1.43397058 -0.19739396
v -1.52756754 -1.58184249 -0.06288220
v -1.55825457 -1.45530818 -0.13514731
v -1.58776662 -1.64418046 -0.01615555
v -1.60712278 -1.50094790 -0.06288220
v -1.65552566 -1.29343840 -0.19739396
v -1.68016001 -1.31268487 -0.13514731
v -1.67045701 -1.56009794 -0.01615555
v -1.73285128 -1.35385180 -0.06288220
v -1.80114028 -1.40720501 -0.01615555
v -1.81942603 -1.05044611 -0.19739396
v -1.84649923 -1.06607683 -0.13514731
v -1.90440704 -1.09950992 -0.06288220
v -1.97945679 -1.14283991 -0.01615555
v -1.94791334 -0.78700808 -0.19739396
v -1.97689845 -0.79871882 -0.13514731
v -2.03889569 -0.82376733 -0.06288220
v -2.11924542 -0.85623073 -0.01615555
v -2.03848674 -0.50825183 -0.19739396
v -2.06881958 -0.51581465 -0.13514731
v -2.13369955 -0.53199105 -0.06288220
v -2.21778536 -0.55295599 -0.01615555
v -2.08938331 -0.21960303 -0.19739396
v -2.12047350 -0.22287075 -0.13514731
v -2.18697338 -0.22986016 -0.06288220
v -2.27315862 -0.23891860 -0.01615555
v -2.09961241 0.07332008 -0.19739396
v -2.13085481 0.07441109 -0.13514731
v -2.19768025 0.07674469 -0.06288220
v -2.28428744 0.07976908 -0.01615555
v -2.06897494 0.36481610 -0.19739396
v -2.09976145 0.37024460 -0.13514731
v -2.16561178 0.38185579 -0.06288220
v -2.25095521 0.39690414 -0.01615555
v -1.99806723 0.64921140 -0.19739396
v -2.02779863 0.65887171 -0.13514731
v -2.09139214 0.67953450 -0.06288220
v -2.17381068 0.70631391 -0.01615555
v -1.88826941 0.92097053 -0.19739396
v -1.91636701 0.93467464 -0.13514731
v -1.97646594 0.96398685 -0.06288220
v -2.05435541 1.00197608 -0.01615555
v -1.74171858 1.17480402 -0.19739396
v -1.76763549 1.19228519 -0.13514731
v -1.82307007 1.22967629 -0.06288220
v -1.89491445 1.27813593 -0.01615555
v -1.56126718 1.40577128 -0.19739396
v -1.58449896 1.42668927 -0.13514731
v -1.63419021 1.47143148 -0.06288220
v -1.69859113 1.52941832 -0.01615555
v -1.35042748 1.60937681 -0.19739396
v -1.37052195 1.63332446 -0.13514731
v -1.41350270 1.68454693 -0.06288220
v -1.46920667 1.75093232 -0.01615555
v -1.11330326 1.78165764 -0.19739396
v -1.12986930 1.80816885 -0.13514731
v -1.16530297 1.86487459 -0.06288220
v -1.21122577 1.93836642 -0.01615555
v -0.85450985 1.91926054 -0.19739396
v -0.86722502 1.94781929 -0.13514731
v -0.89442195 2.00890458 -0.06288220
v -0.92966974 2.08807241 -0.01615555
v -0.57908437 2.01950721 -0.19739396
v -0.58770120 2.04955764 -0.13514731
v -0.60613201 2.11383354 -0.06288220
v -0.63001874 2.19713646 -0.01615555
v -0.29238768 2.08044648 -0.19739396
v -0.29673844 2.11140368 -0.13514731
v -0.30604441 2.17761913 -0.06288220
v -0.31810515 2.26343574 -0.01615555
v 0.00000000 -2.08280000 -24.80468750
v 0.28986973 -2.06253033 -24.80468750
v 0.57409748 -2.00211586 -24.80468750
v 0.84715108 -1.90273248 -24.80468750
v 1.10371584 -1.76631457 -24.80468750
v 1.33879803 -1.59551737 -24.80468750
v 1.54782204 -1.39366523 -24.80468750
v 1.72671946 -1.16468698 -24.80468750
v 1.87200824 -0.91303942 -24.80468750
v 1.98086051 -0.64362060 -24.80468750
v 2.05115759 -0.36167442 -24.80468750
v 2.08153121 -0.07268867 -24.80468750
v 2.07139020 0.21771188 -24.80468750
v 2.02093194 0.50387492 -24.80468750
v 1.93113853 0.78023061 -24.80468750
v 1.80375771 1.04140000 -24.80468750
v 1.64126880 1.28229972 -24.80468750
v 1.44683445 1.49824094 -24.80468750
v 1.22423912 1.68502060 -24.80468750
v 0.97781537 1.83900325 -24.80468750
v 0.71235955 1.95719179 -24.80468750
v 0.43303847 2.03728582 -24.80468750
v 0.14528878 2.07772640 -24.80468750
v -0.14528878 2.07772640 -24.80468750
v -0.43303847 2.03728582 -24.80468750
v -0.71235955 1.95719179 -24.80468750
v -0.97781537 1.83900325 -24.80468750
v -1.22423912 1.68502060 -24.80468750
v -1.44683445 1.49824094 -24.80468750
v -1.64126880 1.28229972 -24.80468750
v -1.80375771 1.04140000 -24.80468750
v -1.93113853 0.78023061 -24.80468750
v -2.02093194 0.50387492 -24.80468750
v -2.07139020 0.21771188 -24.80468750
v -2.08153121 -0.07268867 -24.80468750
v -2.05115759 -0.36167442 -24.80468750
v -1.98086051 -0.64362060 -24.80468750
v -1.87200824 -0.91303942 -24.80468750
v -1.72671946 -1.16468698 -24.80468750
v -1.54782204 -1.39366523 -24.80468750
v -1.33879803 -1.59551737 -24.80468750
v -1.10371584 -1.76631457 -24.80468750
v -0.84715108 -1.90273248 -24.80468750
v -0.57409748 -2.00211586 -24.80468750
v -0.28986973 -2.06253033 -24.80468750
v 1.26266504 -0.94740000 0.67419354
v 1.36914518 -0.91790414 0.69974563
v 1.42742264 -0.87089198 0.70834965
v 1.47502732 -0.77858038 0.70671326
v 1.47267858 -0.67397290 0.68917814
v 1.23179283 -0.94521157 0.66475969
v 1.24716191 -0.94684973 0.66956978
v -0.00000000 -1.67639997 0.70979999
v 0.06560732 -1.66508281 0.70623675
v 0.12748346 -1.63263074 0.69582452
v 0.17724686 -1.58359126 0.67969310
v 0.00000000 0.00000000 0.09964030
v -0.00000000 -0.55879999 0.30302686
v -0.00000000 -1.11759998 0.50641343
v -0.17724376 -1.58362213 0.67970330
v -0.12749928 -1.63266857 0.69583659
v -0.06562087 -1.66511840 0.70624786
v -1.26266504 -0.94740000 0.67419354
v -1.24716217 -0.94684782 0.66956944
v -1.23179318 -0.94520967 0.66475939
v -1.47416751 -0.67993198 0.69057520
v -1.47894127 -0.75399188 0.70387562
v -1.44299984 -0.85126913 0.70949226
v -1.36370171 -0.92087059 0.69870160
v -0.24979551 1.41985655 0.62439139
v -0.30395153 1.32303936 0.59387482
v -0.37437764 1.22823063 0.56725762
v -0.45698699 1.14326296 0.54800992
v -0.54356254 1.07488394 0.53810559
v -0.64511572 1.01507947 0.53746080
v -0.75563522 0.96960660 0.54736263
v -0.86629914 0.94053475 0.56539875
v -0.98193466 0.92560963 0.59099910
v -1.10050588 0.92601236 0.62317575
v 1.10474993 0.92627960 0.62440460
v 0.99377109 0.92480565 0.59388912
v 0.87635101 0.93843605 0.56726602
v 0.76135235 0.96753996 0.54801091
v 0.65876626 1.00836620 0.53810349
v 0.55616631 1.06644377 0.53746472
v 0.46155925 1.13943613 0.54738152
v 0.38112317 1.22073134 0.56543266
v 0.31047372 1.31337653 0.59104090
v 0.25163029 1.41619016 0.62320930
v 0.15076243 -0.53807817 0.30302686
v 0.29034351 -0.47744956 0.30302686
v 0.40839113 -0.38141069 0.30302686
v 0.30152487 -1.07615634 0.50641343
v 0.49615025 -0.25708434 0.30302686
v 0.58068701 -0.95489911 0.50641343
v 0.54711218 -0.11369122 0.30302686
v 0.81678226 -0.76282138 0.50641343
v 0.55749730 0.03813386 0.30302686
v 0.99230050 -0.51416868 0.50641343
v 0.52653539 0.18713072 0.30302686
v 1.09422436 -0.22738244 0.50641343
v 0.45652277 0.32224896 0.30302686
v 1.11499460 0.07626772 0.50641343
v 0.35265194 0.43346746 0.30302686
v 1.05307079 0.37426145 0.50641343
v 0.22262653 0.51253767 0.30302686
v 0.91304554 0.64449792 0.50641343
v 0.07608992 0.55359530 0.30302686
v 0.70530388 0.86693492 0.50641343
v -0.07608992 0.55359530 0.30302686
v 0.44525305 1.02507533 0.50641343
v -0.22262653 0.51253767 0.30302686
v 0.15217984 1.10719060 0.50641343
v -0.35265194 0.43346746 0.30302686
v -0.15217984 1.10719060 0.50641343
v -0.45652277 0.32224896 0.30302686
v -0.44525305 1.02507533 0.50641343
v -0.52653539 0.18713072 0.30302686
v -0.70530388 0.86693492 0.50641343
v -0.55749730 0.03813386 0.30302686
v -0.91304554 0.64449792 0.50641343
v -0.54711218 -0.11369122 0.30302686
v -1.05307079 0.37426145 0.50641343
v -0.49615025 -0.25708434 0.30302686
v -1.11499460 0.07626772 0.50641343
v -0.40839113 -0.38141069 0.30302686
v -1.09422436 -0.22738244 0.50641343
v -0.29034351 -0.47744956 0.30302686
v -0.99230050 -0.51416868 0.50641343
v -0.15076243 -0.53807817 0.30302686
v -0.81678226 -0.76282138 0.50641343
v -0.58068701 -0.95489911 0.50641343
v -0.30152487 -1.07615634 0.50641343
v -0.00000000 -1.78514375 -25.10234375
v 0.48162602 -1.71894578 -25.10234375
v 0.92753204 -1.52526146 -25.10234375
v 1.30464725 -1.21845548 -25.10234375
v 1.58500275 -0.82128223 -25.10234375
v 1.74780584 -0.36319823 -25.10234375
v 1.78098217 0.12182252 -25.10234375
v 1.68207120 0.59780825 -25.10234375
v 1.45840870 1.02945727 -25.10234375
v 1.12658270 1.38475616 -25.10234375
v 0.71120322 1.63735402 -25.10234375
v 0.24307704 1.76851682 -25.10234375
v -0.24307704 1.76851682 -25.10234375
v -0.71120322 1.63735402 -25.10234375
v -1.12658270 1.38475616 -25.10234375
v -1.45840870 1.02945727 -25.10234375
v -1.68207120 0.59780825 -25.10234375
v -1.78098217 0.12182252 -25.10234375
v -1.74780584 -0.36319823 -25.10234375
v -1.58500275 -0.82128223 -25.10234375
v -1.30464725 -1.21845548 -25.10234375
v -0.92753204 -1.52526146 -25.10234375
v -0.48162602 -1.71894578 -25.10234375
f 14 15 16
f 14 16 17
f 14 17 18
f 22 20 21
f 25 23 24
f 10 11 12
f 10 12 13
f 7 8 9
f 29 22 23
f 29 25 26
f 29 26 27
f 29 27 28
f 29 23 25
f 6 9 10
f 6 13 14
f 6 10 13
f 6 7 9
f 31 29 30
f 4 5 6
f 3 14 18
f 3 6 14
f 3 4 6
f 33 31 32
f 45 1 2
f 45 2 3
f 37 34 35
f 37 35 36
f 41 42 43
f 41 43 44
f 40 45 3
f 40 3 18
f 40 18 19
f 40 19 20
f 40 34 37
f 40 41 44
f 40 33 34
f 40 37 38
f 40 38 39
f 40 44 45
f 40 20 22
f 40 22 29
f 40 31 33
f 40 29 31
f 47 46 60
f 47 60 71
f 48 71 70
f 48 47 71
f 49 70 69
f 49 48 70
f 50 69 68
f 50 49 69
f 51 50 68
f 52 68 67
f 52 51 68
f 53 67 66
f 53 52 67
f 54 66 65
f 54 53 66
f 55 65 64
f 55 54 65
f 56 64 63
f 56 55 64
f 57 63 62
f 57 56 63
f 58 62 61
f 58 57 62
f 59 58 61
f 76 60 46
f 75 76 46
f 74 77 76
f 74 76 75
f 73 78 77
f 73 77 74
f 72 79 78
f 72 78 73
f 85 79 72
f 84 80 79
f 84 79 85
f 83 80 84
f 81 80 83
f 82 81 83
f 92 91 90
f 89 92 90
f 88 93 92
f 88 92 89
f 87 94 93
f 87 93 88
f 86 95 94
f 86 94 87
f 101 95 86
f 100 96 95
f 100 95 101
f 99 96 100
f 97 96 99
f 98 97 99
f 108 107 106
f 105 108 106
f 104 109 108
f 104 108 105
f 103 110 109
f 103 109 104
f 102 111 110
f 102 110 103
f 117 111 102
f 116 112 111
f 116 111 117
f 115 112 116
f 113 112 115
f 114 113 115
f 119 118 131
f 119 131 141
f 120 141 140
f 120 119 141
f 121 140 139
f 121 120 140
f 122 139 138
f 122 121 139
f 123 122 138
f 124 138 137
f 124 123 138
f 125 137 136
f 125 124 137
f 126 136 135
f 126 125 136
f 127 135 134
f 127 126 135
f 128 134 133
f 128 127 134
f 129 133 132
f 129 128 133
f 130 132 113
f 130 129 132
f 114 130 113
f 143 142 156
f 143 156 167
f 144 167 166
f 144 143 167
f 145 166 165
f 145 144 166
f 146 165 164
f 146 145 165
f 147 146 164
f 148 164 163
f 148 147 164
f 149 163 162
f 149 148 163
f 150 162 161
f 150 149 162
f 151 161 160
f 151 150 161
f 152 160 159
f 152 151 160
f 153 159 158
f 153 152 159
f 154 158 157
f 154 153 158
f 155 154 157
f 169 168 182
f 169 182 193
f 170 193 192
f 170 169 193
f 171 192 191
f 171 170 192
f 172 191 190
f 172 171 191
f 173 172 190
f 174 190 189
f 174 173 190
f 175 189 188
f 175 174 189
f 176 188 187
f 176 175 188
f 177 187 186
f 177 176 187
f 178 186 185
f 178 177 186
f 179 185 184
f 179 178 185
f 180 184 183
f 180 179 184
f 181 180 183
f 200 59 202
f 200 202 203
f 200 203 204
f 200 204 201
f 199 59 200
f 194 75 46
f 194 46 195
f 74 75 194
f 73 74 194
f 72 73 194
f 205 199 198
f 205 55 56
f 205 56 57
f 205 57 58
f 205 58 59
f 205 59 199
f 206 197 196
f 206 198 197
f 206 50 51
f 206 51 52
f 206 52 53
f 206 53 54
f 206 54 55
f 206 55 205
f 206 205 198
f 207 196 195
f 207 46 47
f 207 47 48
f 207 48 49
f 207 49 50
f 207 206 196
f 207 50 206
f 207 195 46
f 214 82 83
f 214 83 84
f 214 84 85
f 214 85 72
f 213 82 214
f 208 89 90
f 208 90 209
f 88 89 208
f 87 88 208
f 86 87 208
f 227 213 212
f 227 223 224
f 227 224 225
f 227 225 226
f 227 226 82
f 227 82 213
f 228 211 210
f 228 212 211
f 228 218 219
f 228 219 220
f 228 220 221
f 228 221 222
f 228 222 223
f 228 223 227
f 228 227 212
f 229 210 209
f 229 90 215
f 229 215 216
f 229 216 217
f 229 217 218
f 229 228 210
f 229 218 228
f 229 209 90
f 236 98 99
f 236 99 100
f 236 100 101
f 236 101 86
f 235 98 236
f 230 105 106
f 230 106 231
f 104 105 230
f 103 104 230
f 102 103 230
f 249 235 234
f 249 245 246
f 249 246 247
f 249 247 248
f 249 248 98
f 249 98 235
f 250 233 232
f 250 234 233
f 250 240 241
f 250 241 242
f 250 242 243
f 250 243 244
f 250 244 245
f 250 245 249
f 250 249 234
f 251 232 231
f 251 106 237
f 251 237 238
f 251 238 239
f 251 239 240
f 251 250 232
f 251 240 250
f 251 231 106
f 262 114 115
f 262 115 116
f 262 116 117
f 262 117 102
f 261 114 262
f 256 255 118
f 256 118 257
f 254 255 256
f 253 254 256
f 252 253 256
f 263 127 128
f 263 128 129
f 263 129 130
f 263 130 114
f 263 261 260
f 263 114 261
f 264 122 123
f 264 123 124
f 264 124 125
f 264 125 126
f 264 126 127
f 264 259 258
f 264 260 259
f 264 263 260
f 264 127 263
f 265 118 119
f 265 119 120
f 265 120 121
f 265 121 122
f 265 258 257
f 265 122 264
f 265 264 258
f 265 257 118
f 276 277 278
f 276 278 252
f 276 280 277
f 275 155 279
f 275 279 280
f 275 280 276
f 270 269 142
f 270 142 271
f 268 269 270
f 267 268 270
f 266 267 270
f 281 151 152
f 281 152 153
f 281 153 154
f 281 154 155
f 281 275 274
f 281 155 275
f 282 146 147
f 282 147 148
f 282 148 149
f 282 149 150
f 282 150 151
f 282 273 272
f 282 274 273
f 282 281 274
f 282 151 281
f 283 142 143
f 283 143 144
f 283 144 145
f 283 145 146
f 283 272 271
f 283 146 282
f 283 282 272
f 283 271 142
f 290 181 291
f 290 291 292
f 290 292 293
f 290 293 266
f 289 181 290
f 296 168 285
f 295 296 285
f 284 294 295
f 284 295 285
f 297 294 284
f 201 297 284
f 298 289 288
f 298 177 178
f 298 178 179
f 298 179 180
f 298 180 181
f 298 181 289
f 299 287 286
f 299 288 287
f 299 172 173
f 299 173 174
f 299 174 175
f 299 175 176
f 299 176 177
f 299 177 298
f 299 298 288
f 300 286 285
f 300 168 169
f 300 169 170
f 300 170 171
f 300 171 172
f 300 299 286
f 300 172 299
f 300 285 168
f 231 341 340
f 230 231 340
f 230 340 339
f 232 341 231
f 232 342 341
f 102 230 339
f 102 339 338
f 233 342 232
f 233 343 342
f 234 343 233
f 234 344 343
f 262 102 338
f 262 338 337
f 235 344 234
f 235 345 344
f 261 262 337
f 261 337 336
f 236 345 235
f 236 301 345
f 260 261 336
f 260 336 335
f 86 301 236
f 259 335 334
f 259 260 335
f 208 302 301
f 208 301 86
f 258 334 333
f 258 259 334
f 209 303 302
f 209 302 208
f 257 258 333
f 332 257 333
f 210 304 303
f 210 303 209
f 256 257 332
f 331 256 332
f 211 305 304
f 211 304 210
f 252 256 331
f 212 305 211
f 276 331 330
f 276 252 331
f 306 305 212
f 213 306 212
f 275 276 330
f 329 275 330
f 307 306 213
f 214 307 213
f 274 275 329
f 328 274 329
f 308 307 214
f 72 308 214
f 273 274 328
f 327 273 328
f 272 273 327
f 309 72 194
f 309 308 72
f 326 271 272
f 326 272 327
f 310 309 194
f 310 194 195
f 325 271 326
f 325 270 271
f 311 310 195
f 311 195 196
f 324 270 325
f 324 266 270
f 312 311 196
f 312 196 197
f 323 266 324
f 323 290 266
f 313 312 197
f 313 197 198
f 322 290 323
f 322 289 290
f 314 313 198
f 314 198 199
f 321 288 289
f 321 289 322
f 315 314 199
f 315 199 200
f 320 288 321
f 320 287 288
f 316 201 284
f 316 315 200
f 316 200 201
f 319 286 287
f 319 287 320
f 317 316 284
f 317 284 285
f 318 317 285
f 318 286 319
f 318 285 286
f 419 374 375
f 420 419 375
f 418 374 419
f 418 373 374
f 421 420 375
f 421 375 376
f 417 373 418
f 417 372 373
f 422 421 376
f 422 376 377
f 416 372 417
f 416 371 372
f 423 422 377
f 423 377 378
f 415 370 371
f 415 371 416
f 424 423 378
f 424 378 379
f 424 379 380
f 414 370 415
f 414 369 370
f 425 424 380
f 413 369 414
f 413 368 369
f 426 380 381
f 426 425 380
f 412 367 368
f 412 368 413
f 427 426 381
f 427 381 382
f 411 366 367
f 411 367 412
f 428 382 383
f 428 427 382
f 410 365 366
f 410 366 411
f 429 383 384
f 429 428 383
f 409 364 365
f 409 365 410
f 430 384 385
f 430 429 384
f 408 363 364
f 408 364 409
f 386 430 385
f 386 431 430
f 362 408 407
f 362 363 408
f 432 431 386
f 406 362 407
f 387 433 432
f 387 432 386
f 361 362 406
f 388 433 387
f 360 361 406
f 360 406 405
f 389 433 388
f 389 434 433
f 359 360 405
f 359 405 404
f 390 434 389
f 390 435 434
f 390 391 435
f 358 359 404
f 358 404 403
f 346 391 390
f 346 392 391
f 357 358 403
f 357 403 402
f 347 392 346
f 356 357 402
f 356 401 400
f 356 402 401
f 348 392 347
f 348 393 392
f 355 356 400
f 349 394 393
f 349 393 348
f 354 400 399
f 354 355 400
f 350 394 349
f 350 395 394
f 353 354 399
f 353 398 397
f 353 399 398
f 351 396 395
f 351 397 396
f 351 395 350
f 352 353 397
f 352 397 351
f 347 346 436
f 347 436 437
f 348 347 437
f 348 437 438
f 349 348 438
f 349 438 439
f 350 349 439
f 350 439 440
f 351 350 440
f 351 440 441
f 352 351 441
f 352 441 442
f 353 352 442
f 353 442 443
f 354 353 443
f 354 443 444
f 355 354 444
f 355 444 445
f 356 355 445
f 356 445 446
f 357 356 446
f 357 446 447
f 358 357 447
f 358 447 448
f 359 358 448
f 359 448 449
f 360 359 449
f 360 449 450
f 361 360 450
f 361 450 451
f 362 451 452
f 362 361 451
f 362 452 453
f 363 362 453
f 364 363 453
f 364 453 454
f 364 454 455
f 365 455 456
f 365 364 455
f 366 365 456
f 367 366 456
f 367 456 457
f 368 457 458
f 368 458 459
f 368 367 457
f 369 368 459
f 370 459 460
f 370 460 461
f 370 369 459
f 371 370 461
f 372 371 461
f 372 461 462
f 373 372 462
f 373 462 463
f 374 373 463
f 374 463 464
f 375 374 464
f 375 464 465
f 376 375 465
f 376 465 466
f 377 376 466
f 377 466 467
f 378 377 467
f 378 467 468
f 379 378 468
f 379 468 469
f 380 379 469
f 380 469 470
f 380 470 471
f 381 380 471
f 382 381 471
f 382 471 472
f 382 472 473
f 383 382 473
f 384 383 473
f 384 473 474
f 385 384 474
f 385 474 475
f 386 385 475
f 386 475 476
f 387 386 476
f 387 476 477
f 387 477 478
f 388 387 478
f 389 388 478
f 389 478 479
f 390 389 479
f 390 479 480
f 390 480 436
f 346 390 436
f 481 440 439
f 482 439 438
f 482 481 439
f 483 441 440
f 483 442 441
f 483 440 481
f 484 438 437
f 484 482 438
f 485 481 482
f 485 483 481
f 486 443 442
f 486 442 483
f 487 437 436
f 487 484 437
f 488 485 482
f 488 482 484
f 489 483 485
f 489 486 483
f 490 444 443
f 490 445 444
f 490 443 486
f 491 487 436
f 491 436 480
f 492 484 487
f 492 488 484
f 493 489 485
f 493 485 488
f 494 486 489
f 494 490 486
f 495 446 445
f 495 447 446
f 495 445 490
f 496 491 480
f 496 480 479
f 497 487 491
f 497 492 487
f 498 493 488
f 498 305 493
f 498 303 304
f 498 304 305
f 498 488 492
f 499 489 493
f 499 307 308
f 499 494 489
f 500 490 494
f 500 495 490
f 501 479 478
f 501 496 479
f 502 491 496
f 502 497 491
f 503 492 497
f 503 498 492
f 503 301 302
f 503 302 303
f 503 303 498
f 504 499 493
f 504 493 305
f 504 305 306
f 504 306 307
f 504 307 499
f 505 499 308
f 505 308 309
f 505 309 310
f 505 310 311
f 505 500 494
f 505 494 499
f 506 448 447
f 506 447 495
f 506 495 500
f 507 478 477
f 507 501 478
f 508 496 501
f 508 502 496
f 509 497 502
f 509 301 503
f 509 503 497
f 509 344 345
f 509 345 301
f 510 506 500
f 510 500 505
f 511 449 448
f 511 448 506
f 512 508 501
f 512 501 507
f 513 344 509
f 513 502 508
f 513 342 343
f 513 343 344
f 513 509 502
f 514 510 505
f 514 505 311
f 514 311 312
f 514 312 313
f 515 511 506
f 515 506 510
f 516 512 507
f 516 507 477
f 516 476 475
f 516 477 476
f 517 513 508
f 517 508 512
f 517 342 513
f 518 510 514
f 518 515 510
f 518 313 314
f 518 314 315
f 518 315 316
f 518 514 313
f 519 450 449
f 519 451 450
f 519 449 511
f 519 511 515
f 520 512 516
f 520 517 512
f 521 340 341
f 521 341 342
f 521 342 517
f 522 515 518
f 522 519 515
f 523 516 475
f 523 475 474
f 523 520 516
f 524 521 517
f 524 340 521
f 524 339 340
f 524 517 520
f 525 522 518
f 525 316 317
f 525 518 316
f 526 519 522
f 526 452 451
f 526 453 452
f 526 451 519
f 527 520 523
f 527 524 520
f 528 525 317
f 528 317 318
f 528 318 319
f 529 526 522
f 529 522 525
f 530 523 474
f 530 527 523
f 530 473 472
f 530 474 473
f 531 339 524
f 531 336 337
f 531 337 338
f 531 338 339
f 531 524 527
f 532 525 528
f 532 529 525
f 532 528 319
f 532 319 320
f 533 454 453
f 533 455 454
f 533 526 529
f 533 453 526
f 534 527 530
f 534 531 527
f 535 336 531
f 535 334 335
f 535 335 336
f 536 532 320
f 536 320 321
f 537 529 532
f 537 533 529
f 538 530 472
f 538 534 530
f 538 471 470
f 538 472 471
f 539 531 534
f 539 535 531
f 540 536 321
f 540 321 322
f 540 322 323
f 541 532 536
f 541 537 532
f 542 456 455
f 542 455 533
f 542 533 537
f 543 539 534
f 543 470 469
f 543 534 538
f 543 538 470
f 544 334 535
f 544 535 539
f 544 331 332
f 544 332 333
f 544 333 334
f 545 328 329
f 545 329 330
f 546 540 323
f 546 323 324
f 546 324 325
f 546 325 326
f 547 536 540
f 547 541 536
f 548 457 456
f 548 456 542
f 548 537 541
f 548 542 537
f 549 539 543
f 549 544 539
f 550 545 330
f 550 331 544
f 550 330 331
f 551 326 327
f 551 546 326
f 552 540 546
f 552 547 540
f 553 458 457
f 553 457 548
f 553 541 547
f 553 548 541
f 554 469 468
f 554 543 469
f 554 549 543
f 555 544 549
f 555 550 544
f 556 545 550
f 556 328 545
f 556 327 328
f 556 551 327
f 557 552 546
f 557 546 551
f 558 553 547
f 558 547 552
f 558 458 553
f 559 555 549
f 559 467 466
f 559 468 467
f 559 554 468
f 559 549 554
f 560 556 550
f 560 550 555
f 561 551 556
f 561 557 551
f 562 552 557
f 562 458 558
f 562 459 458
f 562 558 552
f 563 559 466
f 563 560 555
f 563 465 464
f 563 466 465
f 563 555 559
f 564 556 560
f 564 561 556
f 565 459 562
f 565 460 459
f 565 557 561
f 565 562 557
f 566 564 560
f 566 563 464
f 566 463 462
f 566 464 463
f 566 560 563
f 567 460 565
f 567 461 460
f 567 561 564
f 567 565 561
f 568 461 567
f 568 462 461
f 568 564 566
f 568 566 462
f 568 567 564
f 570 569 618
f 391 573 435
f 619 569 570
f 619 574 569
f 620 619 570
f 620 570 571
f 621 571 572
f 621 620 571
f 622 391 392
f 622 572 573
f 622 573 391
f 622 621 572
f 623 574 619
f 623 575 574
f 624 623 619
f 624 619 620
f 625 620 621
f 625 624 620
f 626 392 393
f 626 622 392
f 626 625 621
f 626 621 622
f 627 576 575
f 627 575 623
f 628 627 623
f 628 623 624
f 629 624 625
f 629 628 624
f 630 393 394
f 630 626 393
f 630 629 625
f 630 625 626
f 631 577 576
f 631 576 627
f 632 627 628
f 632 631 627
f 633 628 629
f 633 632 628
f 634 394 395
f 634 633 629
f 634 630 394
f 634 629 630
f 635 578 577
f 635 577 631
f 636 631 632
f 636 635 631
f 637 632 633
f 637 633 634
f 637 636 632
f 638 395 396
f 638 637 634
f 638 634 395
f 639 579 578
f 639 578 635
f 640 639 635
f 640 635 636
f 641 640 636
f 641 636 637
f 642 396 397
f 642 638 396
f 642 641 637
f 642 637 638
f 643 580 579
f 643 581 580
f 643 579 639
f 644 639 640
f 644 643 639
f 645 644 640
f 645 640 641
f 646 397 398
f 646 641 642
f 646 645 641
f 646 642 397
f 647 581 643
f 648 643 644
f 648 647 643
f 649 644 645
f 649 648 644
f 650 398 399
f 650 649 645
f 650 645 646
f 650 646 398
f 651 581 647
f 651 647 648
f 651 582 581
f 652 651 648
f 653 652 648
f 653 648 649
f 654 649 650
f 654 399 400
f 654 653 649
f 654 650 399
f 655 582 651
f 655 583 582
f 656 651 652
f 656 655 651
f 657 653 654
f 657 656 652
f 657 652 653
f 658 400 401
f 658 657 654
f 658 654 400
f 659 583 655
f 659 584 583
f 660 656 657
f 660 659 655
f 660 655 656
f 661 657 658
f 661 660 657
f 662 658 401
f 662 401 402
f 662 661 658
f 663 584 659
f 663 585 584
f 664 659 660
f 664 663 659
f 664 660 661
f 665 664 661
f 666 402 403
f 666 662 402
f 666 661 662
f 666 665 661
f 667 585 663
f 667 663 664
f 667 586 585
f 668 667 664
f 669 664 665
f 669 668 664
f 670 403 404
f 670 666 403
f 670 665 666
f 670 669 665
f 671 586 667
f 671 587 586
f 671 588 587
f 672 671 667
f 672 667 668
f 673 668 669
f 673 672 668
f 674 404 405
f 674 673 669
f 674 669 670
f 674 670 404
f 675 588 671
f 675 589 588
f 676 671 672
f 676 672 673
f 676 675 671
f 677 676 673
f 678 405 406
f 678 674 405
f 678 406 677
f 678 673 674
f 678 677 673
f 679 589 675
f 680 675 676
f 680 676 677
f 680 679 675
f 681 677 406
f 681 680 677
f 682 406 407
f 682 681 406
f 682 407 681
f 683 590 589
f 683 679 680
f 683 589 679
f 684 683 680
f 685 591 590
f 685 590 683
f 686 681 407
f 686 680 681
f 686 684 680
f 687 683 684
f 687 685 683
f 688 407 408
f 688 686 407
f 689 687 684
f 689 684 686
f 690 685 687
f 690 591 685
f 691 690 687
f 691 687 689
f 692 688 408
f 692 686 688
f 692 689 686
f 693 591 690
f 693 592 591
f 694 691 689
f 695 690 691
f 695 693 690
f 696 692 408
f 696 689 692
f 696 694 689
f 696 408 409
f 697 691 694
f 697 695 691
f 697 694 696
f 698 592 693
f 699 693 695
f 699 698 693
f 700 696 409
f 700 697 696
f 701 593 592
f 701 592 698
f 702 695 697
f 702 699 695
f 703 698 699
f 703 701 698
f 704 409 410
f 704 700 409
f 704 702 697
f 704 697 700
f 705 703 699
f 705 699 702
f 705 702 704
f 706 593 701
f 706 701 703
f 707 703 705
f 707 706 703
f 708 704 410
f 708 705 704
f 709 593 706
f 709 594 593
f 710 707 705
f 711 706 707
f 711 709 706
f 712 410 411
f 712 708 410
f 712 705 708
f 712 710 705
f 713 594 709
f 714 707 710
f 714 711 707
f 714 710 712
f 715 709 711
f 715 713 709
f 716 712 411
f 716 714 712
f 717 595 594
f 717 594 713
f 718 711 714
f 718 715 711
f 718 714 716
f 719 713 715
f 719 717 713
f 719 715 718
f 720 411 412
f 720 716 411
f 720 718 716
f 721 595 717
f 722 719 718
f 723 721 717
f 723 717 719
f 724 718 720
f 724 722 718
f 724 720 412
f 725 595 721
f 725 596 595
f 726 719 722
f 726 723 719
f 727 721 723
f 727 725 721
f 727 723 726
f 728 726 722
f 728 722 724
f 728 724 412
f 728 412 413
f 729 596 725
f 730 727 726
f 731 729 725
f 731 727 730
f 731 725 727
f 732 726 728
f 732 730 726
f 732 728 413
f 733 596 729
f 733 729 731
f 733 597 596
f 734 731 730
f 735 733 731
f 736 730 732
f 736 413 414
f 736 732 413
f 736 734 730
f 737 597 733
f 738 731 734
f 738 735 731
f 738 734 736
f 739 733 735
f 739 737 733
f 740 736 414
f 740 738 736
f 741 597 737
f 741 598 597
f 742 735 738
f 742 739 735
f 743 741 737
f 743 737 739
f 744 414 415
f 744 740 414
f 744 742 738
f 744 738 740
f 745 598 741
f 745 741 743
f 746 739 742
f 746 743 739
f 747 745 743
f 748 744 415
f 748 746 742
f 748 742 744
f 749 598 745
f 749 599 598
f 750 743 746
f 750 747 743
f 751 749 745
f 751 745 747
f 752 415 416
f 752 748 415
f 752 750 746
f 752 746 748
f 753 599 749
f 754 747 750
f 754 751 747
f 755 751 754
f 755 749 751
f 755 753 749
f 756 752 416
f 756 754 750
f 756 750 752
f 757 755 754
f 758 753 755
f 758 599 753
f 758 600 599
f 759 758 755
f 760 756 416
f 760 416 417
f 760 757 754
f 760 754 756
f 761 600 758
f 762 757 760
f 762 759 755
f 762 755 757
f 763 761 758
f 763 758 759
f 764 762 760
f 764 760 417
f 765 759 762
f 765 763 759
f 766 600 761
f 766 601 600
f 767 761 763
f 767 766 761
f 768 762 764
f 768 417 418
f 768 764 417
f 768 765 762
f 769 601 766
f 770 763 765
f 770 767 763
f 770 765 768
f 771 769 766
f 771 766 767
f 772 768 418
f 772 770 768
f 773 771 767
f 773 767 770
f 773 770 772
f 774 601 769
f 774 602 601
f 775 769 771
f 775 771 773
f 775 774 769
f 776 418 419
f 776 772 418
f 776 773 772
f 777 602 774
f 778 775 773
f 779 774 775
f 779 777 774
f 780 776 419
f 780 773 776
f 780 778 773
f 781 775 778
f 781 779 775
f 782 777 779
f 782 602 777
f 782 603 602
f 783 782 779
f 783 603 782
f 784 419 420
f 784 780 419
f 784 778 780
f 784 781 778
f 785 783 779
f 785 779 781
f 786 784 420
f 786 781 784
f 786 785 781
f 787 604 603
f 788 604 787
f 788 603 783
f 788 787 603
f 789 788 783
f 789 783 785
f 789 785 786
f 790 789 786
f 790 420 421
f 790 421 422
f 790 786 420
f 791 605 604
f 792 605 791
f 792 791 604
f 792 604 788
f 793 789 790
f 793 788 789
f 793 792 788
f 794 793 790
f 794 790 422
f 795 606 605
f 796 605 792
f 796 795 605
f 796 792 793
f 796 606 795
f 797 796 793
f 798 797 793
f 798 793 794
f 798 794 422
f 798 422 423
f 799 607 606
f 800 606 796
f 800 799 606
f 801 797 798
f 801 796 797
f 801 800 796
f 802 801 798
f 802 798 423
f 802 423 424
f 802 424 425
f 803 607 799
f 803 608 607
f 804 799 800
f 804 803 799
f 804 800 801
f 805 804 801
f 806 801 802
f 806 805 801
f 806 802 425
f 807 803 804
f 807 608 803
f 807 609 608
f 808 807 804
f 809 808 804
f 809 804 805
f 810 425 426
f 810 426 427
f 810 806 425
f 810 805 806
f 810 809 805
f 811 807 808
f 811 609 807
f 811 610 609
f 812 808 809
f 812 811 808
f 813 812 809
f 814 427 428
f 814 810 427
f 814 809 810
f 814 813 809
f 815 610 811
f 815 611 610
f 816 815 811
f 816 811 812
f 817 812 813
f 817 813 814
f 817 816 812
f 818 814 428
f 818 817 814
f 819 611 815
f 819 612 611
f 820 815 816
f 820 819 815
f 820 816 817
f 821 820 817
f 822 428 429
f 822 429 430
f 822 818 428
f 822 817 818
f 822 821 817
f 823 613 612
f 823 612 819
f 824 823 819
f 824 819 820
f 825 820 821
f 825 824 820
f 826 821 822
f 826 825 821
f 826 822 430
f 827 613 823
f 827 614 613
f 828 827 823
f 828 824 825
f 828 823 824
f 829 828 825
f 830 829 825
f 830 825 826
f 830 826 430
f 830 430 431
f 831 614 827
f 831 827 828
f 831 615 614
f 832 831 828
f 833 832 828
f 833 829 830
f 833 828 829
f 834 830 431
f 834 833 830
f 834 431 432
f 834 432 433
f 835 615 831
f 835 616 615
f 836 835 831
f 836 831 832
f 837 832 833
f 837 836 832
f 838 833 834
f 838 834 433
f 838 837 833
f 839 616 835
f 839 617 616
f 840 835 836
f 840 839 835
f 841 836 837
f 841 837 838
f 841 840 836
f 842 433 434
f 842 838 433
f 842 841 838
f 843 617 839
f 843 839 840
f 843 570 618
f 843 618 617
f 844 843 840
f 844 570 843
f 844 571 570
f 844 572 571
f 845 840 841
f 845 841 842
f 845 844 840
f 845 572 844
f 846 435 573
f 846 434 435
f 846 842 434
f 846 845 842
f 846 572 845
f 846 573 572
f 595 596 847
f 595 847 848
f 594 595 848
f 594 848 849
f 593 594 849
f 593 849 850
f 592 593 850
f 592 850 851
f 591 592 851
f 591 851 852
f 590 591 852
f 590 852 853
f 589 590 853
f 589 853 854
f 588 589 854
f 588 854 855
f 587 855 856
f 587 588 855
f 586 856 857
f 586 587 856
f 585 857 858
f 585 586 857
f 584 858 859
f 584 585 858
f 583 859 860
f 583 584 859
f 582 860 861
f 582 583 860
f 581 861 862
f 581 582 861
f 580 862 863
f 580 581 862
f 579 863 864
f 579 580 863
f 578 864 865
f 578 579 864
f 577 865 866
f 577 578 865
f 576 866 867
f 576 577 866
f 575 867 868
f 575 576 867
f 574 868 869
f 574 575 868
f 569 869 870
f 569 574 869
f 618 870 871
f 618 569 870
f 617 871 872
f 617 618 871
f 616 872 873
f 616 617 872
f 615 616 873
f 615 873 874
f 614 615 874
f 614 874 875
f 613 614 875
f 613 875 876
f 612 613 876
f 612 876 877
f 611 612 877
f 611 877 878
f 610 611 878
f 610 878 879
f 609 610 879
f 609 879 880
f 608 609 880
f 608 880 881
f 607 608 881
f 607 881 882
f 606 607 882
f 606 882 883
f 605 606 883
f 605 883 884
f 604 605 884
f 604 884 885
f 603 604 885
f 603 885 886
f 602 603 886
f 602 886 887
f 601 602 887
f 601 887 888
f 600 601 888
f 600 888 889
f 599 600 889
f 599 889 890
f 598 890 891
f 598 599 890
f 597 891 847
f 597 598 891
f 596 597 847
f 185 186 905
f 184 185 905
f 183 184 905
f 899 183 905
f 902 183 899
f 901 899 900
f 901 902 899
f 63 192 193
f 62 193 182
f 62 63 193
f 61 182 897
f 61 897 898
f 61 898 892
f 61 62 182
f 896 892 893
f 896 61 892
f 895 893 894
f 895 896 893
f 927 70 71
f 926 71 60
f 926 927 71
f 81 926 60
f 81 60 76
f 79 77 78
f 80 76 77
f 80 77 79
f 80 81 76
f 917 934 935
f 916 935 91
f 916 917 935
f 97 916 91
f 97 91 92
f 95 93 94
f 96 93 95
f 96 97 92
f 96 92 93
f 133 924 925
f 132 133 925
f 132 925 107
f 113 132 107
f 113 107 108
f 111 109 110
f 112 113 108
f 112 108 109
f 112 109 111
f 159 140 141
f 158 159 141
f 158 141 131
f 157 158 131
f 911 157 131
f 910 911 131
f 909 910 131
f 909 131 912
f 915 909 912
f 915 912 913
f 915 913 914
f 166 905 165
f 167 905 166
f 156 905 167
f 899 905 156
f 899 156 906
f 899 906 907
f 899 907 908
f 936 903 904
f 936 904 905
f 937 903 936
f 938 903 937
f 939 905 186
f 939 186 187
f 939 187 188
f 939 936 905
f 940 903 938
f 941 937 936
f 941 188 189
f 941 189 190
f 941 939 188
f 941 936 939
f 942 903 940
f 943 941 190
f 943 190 191
f 943 191 192
f 943 937 941
f 943 938 937
f 944 903 942
f 945 63 64
f 945 938 943
f 945 940 938
f 945 943 192
f 945 192 63
f 946 903 944
f 947 64 65
f 947 65 66
f 947 945 64
f 947 940 945
f 947 942 940
f 948 903 946
f 949 66 67
f 949 67 68
f 949 946 944
f 949 944 942
f 949 947 66
f 949 942 947
f 950 903 948
f 951 68 69
f 951 69 70
f 951 946 949
f 951 949 68
f 952 903 950
f 953 70 927
f 953 927 928
f 953 950 948
f 953 946 951
f 953 948 946
f 953 951 70
f 954 903 952
f 955 928 929
f 955 929 930
f 955 953 928
f 955 950 953
f 956 903 903
f 956 903 954
f 957 930 931
f 957 931 932
f 957 952 950
f 957 955 930
f 957 950 955
f 958 903 956
f 959 932 933
f 959 933 934
f 959 934 917
f 959 957 932
f 959 954 952
f 959 952 957
f 960 903 958
f 961 956 954
f 961 954 959
f 961 959 917
f 961 917 918
f 961 918 919
f 962 903 960
f 963 958 956
f 963 956 961
f 963 961 919
f 963 919 920
f 963 920 921
f 964 903 962
f 965 963 921
f 965 958 963
f 965 960 958
f 965 921 922
f 965 922 923
f 966 903 964
f 967 962 960
f 967 965 923
f 967 924 133
f 967 960 965
f 967 923 924
f 968 903 966
f 969 964 962
f 969 966 964
f 969 962 967
f 969 133 134
f 969 134 135
f 969 967 133
f 970 903 968
f 971 969 135
f 971 966 969
f 971 135 136
f 971 136 137
f 972 903 970
f 973 971 137
f 973 966 971
f 973 137 138
f 973 138 139
f 973 968 966
f 974 903 972
f 975 140 159
f 975 973 139
f 975 968 973
f 975 970 968
f 975 139 140
f 976 903 974
f 976 904 903
f 976 905 904
f 977 972 970
f 977 970 975
f 977 159 160
f 977 160 161
f 977 975 159
f 978 972 977
f 978 977 161
f 978 161 162
f 978 162 163
f 978 974 972
f 979 976 974
f 979 974 978
f 979 165 905
f 979 905 976
f 979 978 163
f 979 163 164
f 979 164 165
f 906 156 142
f 269 906 142
f 907 906 269
f 268 907 269
f 908 907 268
f 267 908 268
f 899 908 267
f 266 899 267
f 293 900 899
f 293 899 266
f 292 901 900
f 292 900 293
f 291 902 901
f 291 901 292
f 181 183 902
f 181 902 291
f 255 131 118
f 255 912 131
f 254 913 912
f 254 912 255
f 253 913 254
f 914 913 253
f 252 914 253
f 278 915 914
f 278 914 252
f 277 909 915
f 277 915 278
f 280 910 909
f 280 909 277
f 279 911 910
f 279 910 280
f 155 157 911
f 155 911 279
f 237 107 925
f 237 106 107
f 238 925 924
f 238 237 925
f 239 924 923
f 239 238 924
f 240 923 922
f 240 239 923
f 241 240 922
f 242 922 921
f 242 241 922
f 243 921 920
f 243 242 921
f 244 920 919
f 244 243 920
f 245 919 918
f 245 244 919
f 246 918 917
f 246 245 918
f 247 917 916
f 247 246 917
f 248 916 97
f 248 247 916
f 98 248 97
f 215 91 935
f 215 90 91
f 216 935 934
f 216 215 935
f 217 934 933
f 217 216 934
f 218 933 932
f 218 217 933
f 219 218 932
f 220 932 931
f 220 219 932
f 221 931 930
f 221 220 931
f 222 930 929
f 222 221 930
f 223 929 928
f 223 222 929
f 224 928 927
f 224 223 928
f 225 927 926
f 225 224 927
f 226 926 81
f 226 225 926
f 82 226 81
f 168 897 182
f 296 898 897
f 296 897 168
f 295 892 898
f 295 898 296
f 294 892 295
f 893 892 294
f 297 893 294
f 894 893 297
f 201 894 297
f 895 894 201
f 204 895 201
f 203 896 895
f 203 895 204
f 202 896 203
f 61 896 202
f 59 61 202
f 980 1 45
f 848 847 980
f 980 2 1
f 847 891 980
f 981 848 980
f 981 849 848
f 981 850 849
f 981 44 43
f 981 45 44
f 981 980 45
f 982 851 850
f 982 852 851
f 982 850 981
f 982 981 43
f 982 42 41
f 982 43 42
f 983 853 852
f 983 854 853
f 983 852 982
f 983 982 41
f 983 40 39
f 983 41 40
f 984 855 854
f 984 856 855
f 984 38 37
f 984 39 38
f 984 854 983
f 984 983 39
f 985 857 856
f 985 858 857
f 985 856 984
f 985 984 37
f 985 36 35
f 985 37 36
f 986 859 858
f 986 860 859
f 986 858 985
f 986 985 35
f 986 34 33
f 986 35 34
f 987 861 860
f 987 862 861
f 987 986 33
f 987 860 986
f 987 32 31
f 987 33 32
f 988 987 31
f 988 863 862
f 988 864 863
f 988 862 987
f 988 30 29
f 988 31 30
f 989 865 864
f 989 866 865
f 989 28 27
f 989 29 28
f 989 988 29
f 989 864 988
f 990 867 866
f 990 868 867
f 990 989 27
f 990 866 989
f 990 26 25
f 990 27 26
f 991 990 25
f 991 869 868
f 991 868 990
f 991 25 24
f 992 869 991
f 992 870 869
f 992 871 870
f 992 23 22
f 992 24 23
f 992 991 24
f 993 872 871
f 993 873 872
f 993 21 20
f 993 22 21
f 993 871 992
f 993 992 22
f 994 873 993
f 994 993 20
f 994 874 873
f 994 875 874
f 994 19 18
f 994 20 19
f 995 994 18
f 995 876 875
f 995 877 876
f 995 875 994
f 995 17 16
f 995 18 17
f 996 878 877
f 996 879 878
f 996 877 995
f 996 995 16
f 996 15 14
f 996 16 15
f 997 880 879
f 997 881 880
f 997 996 14
f 997 879 996
f 997 13 12
f 997 14 13
f 998 997 12
f 998 882 881
f 998 883 882
f 998 881 997
f 998 11 10
f 998 12 11
f 999 884 883
f 999 885 884
f 999 9 8
f 999 10 9
f 999 998 10
f 999 883 998
f 1000 886 885
f 1000 887 886
f 1000 7 6
f 1000 8 7
f 1000 885 999
f 1000 999 8
f 1001 1000 6
f 1001 887 1000
f 1001 888 887
f 1001 889 888
f 1001 5 4
f 1001 6 5
f 1002 889 1001
f 1002 1001 4
f 1002 890 889
f 1002 891 890
f 1002 3 2
f 1002 4 3
f 1002 2 980
f 1002 980 891

