# https://github.com/mikedh/trimesh
v -79.76449685 18.76586755 18.54061733
v -79.76449685 -18.76586755 18.54061733
v -79.55084450 21.49394167 0.99957098
v 80.11659753 19.98933663 0.99869978
v 78.17467321 -22.77401584 1.15496969
v 76.21732900 23.21595830 1.30000000
v -76.21732900 23.21595830 1.30000000
v -79.91163432 20.74774525 1.30000000
v -79.68033310 21.21685553 1.30000000
v -79.04495305 22.04495305 1.30000000
v -78.65173628 22.38978366 1.30000000
v -78.21685553 22.68033310 1.30000000
v -77.74774525 22.91163432 1.30000000
v -76.73936265 23.18175583 1.30000000
v -76.21732900 -23.21595830 1.30000000
v -76.73936265 -23.18175583 1.30000000
v -80.07973314 -20.25242506 1.30000000
v -80.18175583 -19.73936265 1.30000000
v 76.21732900 -23.21595830 1.30000000
v 80.20371438 -19.59529213 1.30000036
v 79.92601141 -20.71946146 1.13272706
v 80.21595830 19.21732900 1.30000000
v 77.86822627 22.87114909 1.11372439
v 79.77848715 21.12587072 1.23825746
v 75.93152666 -22.93015596 12.21435109
v 75.93297297 -22.85851578 12.38283826
v 8.75000000 -22.68571843 18.69094684
v 8.75000000 -22.71844850 18.65372343
v 8.75000000 -22.74319148 18.61077433
v 8.75000000 -22.75897474 18.56378785
v 9.44027307 -22.73115017 18.60598428
v 79.92946811 -18.93083881 12.24061897
v 75.94231613 -22.92188293 12.30991507
v 79.90558908 -18.93291547 12.34115727
v 77.12123678 -22.74263259 12.36278101
v 79.26732030 -21.29552026 12.30046353
v -75.76802108 -22.69356201 18.68281883
v -75.76752921 -22.73125004 18.63270418
v -75.76703709 -22.75579038 18.57496661
v -75.76655548 -22.76518478 18.51434637
v -75.70974327 -22.64628787 18.72098135
v 79.84561695 18.64540099 12.42198837
v 79.92839253 19.06818386 12.30139031
v 79.90558908 18.93291547 12.34115727
v -79.74061725 -18.76794724 18.64115831
v -79.66914696 -18.77259336 18.73234578
v -76.25818397 -22.73373665 18.51130333
v -77.63966716 -22.29383597 18.50728473
v -78.04930858 -22.04573414 18.50749154
v -78.42366409 -21.75375675 18.50839295
v -78.75684751 -21.42203180 18.50994292
v -79.04474341 -21.05545771 18.51216194
v -79.28598092 -20.66012715 18.51517366
v -79.47942525 -20.24223549 18.51911060
v -79.71839531 -19.36355036 18.53029021
v -79.75299141 -19.06467445 18.53514019
v -79.62662521 -19.75141837 18.68435868
v -76.95082358 -22.60282979 18.63887270
v 75.93152666 22.93015596 12.21435109
v 75.93248741 22.89622304 12.33270259
v 75.93200185 22.92076166 12.27496804
v 79.72796544 20.21807177 12.37416009
v 78.33210224 22.13500942 12.35056580
v 76.71750154 22.84354284 12.33561569
v -79.74061725 18.76794724 18.64115831
v -79.68064564 -18.67299382 18.72198837
v -79.65241513 19.64385073 18.69147852
v 21.71346858 23.28676743 4.55733634
v -78.57506101 21.60357240 18.66737030
v -79.73114054 19.27136480 18.53192441
v -79.63093401 19.78525257 18.52493719
v -79.46442740 20.28787672 18.51940145
v -79.23308978 20.76178914 18.51508365
v -78.94206603 21.19836575 18.51183289
v -78.59741997 21.59118847 18.50951895
v -78.20532425 21.93428044 18.50804092
v -77.77238681 22.22342970 18.50741512
v -77.30532444 22.45486551 18.50768715
v -76.81085391 22.62481712 18.50890262
v -76.29569200 22.72951379 18.51110716
v -75.78801591 22.77003988 18.63300752
v 8.75000000 22.68571843 18.69094684
v 8.75000000 22.71844850 18.65372343
v 8.75000000 22.74319148 18.61077433
v 8.75000000 22.75897474 18.56378785
v -75.70974327 22.64628787 18.72098135
v 9.76352479 22.75656286 18.50895452
v 75.46115466 -13.92670387 16.31378419
v 75.42039918 -13.92670387 16.33368043
v 75.37671981 -13.92670387 16.34588626
v 73.05611685 -16.48600178 16.31800700
v 75.48284797 -14.16839252 16.29692706
v 75.40126327 14.55321251 16.33467130
v 75.46115466 13.92670387 16.31378419
v 75.42039918 13.92670387 16.33368043
v 75.37671981 13.92670387 16.34588626
v 75.49764500 13.86540217 16.28685233
v 74.94214499 15.50890767 16.34725155
v 8.75000000 -16.19087202 22.65000000
v 8.75000000 -16.23658463 22.64578519
v 8.75000000 -16.28075587 22.63328286
v 8.75000000 -16.32189637 22.61291458
v 9.31245841 -16.27289090 22.61289463
v 9.47303187 -16.19214397 22.60376385
v -72.76163256 -16.19087202 22.65000000
v -72.76163256 -16.23658463 22.64578519
v -72.76163256 -16.28075587 22.63328286
v -75.16658273 -13.76163256 22.65000000
v -75.21174850 -13.76163256 22.64588626
v -75.25681963 -13.80156644 22.63293440
v -75.29618335 -13.76163256 22.61378419
v 8.75000000 16.28075587 22.63328286
v 8.75000000 16.23658463 22.64578519
v 8.75000000 16.19087202 22.65000000
v 9.15969692 16.19127221 22.63504625
v -75.16658273 13.76163256 22.65000000
v -75.25542787 13.76163256 22.63368043
v -75.31644738 13.79636015 22.59976082
v -72.76163256 16.28075587 22.63328286
v -72.76163256 16.23658463 22.64578519
v -72.76163256 16.19087202 22.65000000
v -73.69567058 16.06721525 22.64642734
v -72.89118816 16.32107705 22.61793380
v -75.20066850 14.38118003 22.63940018
v 74.74704049 -15.64873660 16.34314923
v 75.33515772 -14.62204100 16.33938647
v 73.91580857 -16.21039305 16.34641087
v 79.88222394 -19.33285554 12.37890408
v 73.83446707 16.25126587 16.34605870
v 72.98793108 16.49609386 16.30933525
v 9.58319260 22.59642595 18.72278028
v -76.83855890 22.58315647 18.67999704
v -74.59301614 15.47826974 22.64103145
v -75.33792583 -13.98805612 22.58180632
v -74.89766379 -15.24589919 22.64602292
v -78.55725795 -21.58356222 18.66244021
v -73.66730191 -16.08390074 22.64731440
v -72.82628655 -16.32886110 22.60976525
v -75.81321275 -22.63552345 18.72781148
v 8.75000001 -22.64628787 18.72098135
v -82.05000227 2.27213627 4.30137668
v -82.05000227 10.06786373 4.30137668
v -82.05000116 10.05596446 3.63833744
v -82.06745404 8.64474375 3.41614457
v -82.07162141 3.59904072 3.62122719
v -82.07301814 4.42324420 3.57693910
v -82.05000227 9.91205831 3.34236342
v -82.05000227 9.96685239 3.42437172
v -82.05000166 2.28378346 3.63889092
v -82.05000227 2.37315200 3.42436413
v -82.05000227 2.42794618 3.34235758
v -68.12315854 -2.19055826 22.84741816
v 74.09944690 16.52868636 -7.75000000
v 74.91440440 16.41721719 -7.75047369
v 76.48600485 14.09944690 -7.75000000
v 76.37737093 -15.26282343 -7.74559767
v 74.71687619 -16.54574049 -7.74120102
v -0.00000000 -16.52868636 -7.75000000
v -74.09944690 -16.52868636 -7.75000000
v -76.48600485 14.09944690 -7.75000000
v -74.09944690 16.52868636 -7.75000000
v 74.09944690 -16.65971071 -7.71291458
v 74.09944690 -16.61857021 -7.73328286
v 74.09944690 -16.57439897 -7.74578519
v 76.63509804 -14.09944690 -7.70067690
v 76.58930892 -14.09944690 -7.72765823
v 76.53885105 -14.09944690 -7.74435073
v -74.11890003 -16.65971071 -7.71291458
v -74.09944690 -16.61857021 -7.73328286
v -74.09944690 -16.57439897 -7.74578519
v -76.63509804 -14.09944690 -7.70067690
v -76.58930892 -14.09944690 -7.72765823
v -76.53885105 -14.09944690 -7.74435073
v -76.67805215 -14.40394529 -7.65852428
v -76.36443119 -15.23196090 -7.75044161
v -76.67414902 -0.00000000 -7.66462615
v -76.53885105 14.09944690 -7.74435073
v -76.58930892 14.09944690 -7.72765823
v -76.63509804 14.09944690 -7.70067690
v -75.00561343 16.42293455 -7.74457261
v -74.09944690 16.57439897 -7.74578519
v -74.09944690 16.61857021 -7.73328286
v -76.32510675 15.35885861 -7.74804338
v 74.09944690 16.57439897 -7.74578519
v 74.09944690 16.61857021 -7.73328286
v 76.53885105 14.09944690 -7.74435073
v 76.58930892 14.09944690 -7.72765823
v 76.63509804 14.09944690 -7.70067690
v 75.51917755 16.26059574 -7.71206889
v 76.42180398 15.12235176 -7.74543236
v 76.67414902 0.00000000 -7.66462615
v 76.19893858 -22.98379897 -3.82105044
v -76.19893858 -22.98379897 -3.82105044
v -80.04003836 -0.00000000 -3.81789548
v -79.39922993 21.70493815 -3.93747260
v -76.19893858 22.98379897 -3.82105044
v 76.19893858 22.98379897 -3.82105044
v 80.04003836 -0.00000000 -3.81789548
v 79.79058562 -20.90669216 -3.84801071
v 76.64846059 -14.19682298 -7.69265071
v 77.37896983 -22.94112428 -3.75601006
v 37.69803634 -20.87723049 -5.11751779
v -75.09086458 -19.83970101 -5.75612855
v -75.06986309 -16.40579201 -7.74640332
v -76.64864834 14.20253627 -7.69205878
v -74.22522550 16.65713378 -7.71389200
v -37.43567146 18.76534422 -6.41714011
v 74.16613409 16.64723197 -7.72141196
v 76.66440761 14.22248142 -7.67518884
v -80.08418697 -19.19994331 -3.74523317
v -80.10184116 -19.19764411 -3.65856711
v -80.08418697 19.19994331 -3.74523317
v -76.19861827 23.03152834 -3.78266729
v -76.19829134 23.06911370 -3.73262831
v -76.19796424 23.09359830 -3.67499926
v -76.50279679 23.06837436 -3.72345926
v 76.19764411 23.10299520 -3.61449587
v 76.19796441 23.09358934 -3.67503054
v 76.19829134 23.06911370 -3.73262831
v 76.19861844 23.03150577 -3.78269072
v 80.10184116 19.19764411 -3.65856711
v 79.77758292 21.01104922 -3.78704922
v 80.08418697 19.19994331 -3.74523317
v 80.10184116 -19.19764411 -3.65856711
v 80.08418697 -19.19994331 -3.74523317
v 76.19861827 -23.03152834 -3.78266729
v 76.19829134 -23.06911370 -3.73262831
v 76.19796424 -23.09359830 -3.67499926
v -76.19764411 -23.10299520 -3.61449587
v -76.19796441 -23.09358934 -3.67503054
v -76.19829134 -23.06911370 -3.73262831
v -76.19861844 -23.03150577 -3.78269072
v -79.96689699 -20.34915892 -3.80582133
v -77.02872388 -23.00616185 -3.73066822
v -79.41513871 -22.82999337 -0.90375729
v -80.37623648 19.43415096 0.96912476
v -80.22383003 -19.19764411 1.00000000
v -76.19764411 23.22383003 1.00000000
v -77.22918176 23.14728281 0.98048682
v 76.19764411 23.22383003 1.00000000
v 77.49529524 22.91555843 -3.72888005
v 80.22383003 -19.19764411 1.00000000
v 76.19764411 -23.22383003 1.00000000
v 77.04656295 -23.01511465 -3.63006233
v -77.12178841 -23.15120854 0.99985528
f 164 158 154
f 68 238 81
f 194 205 176
f 157 199 201
f 225 200 198
f 199 200 225
f 194 176 174
f 174 176 205
f 157 164 156
f 156 166 200
f 156 199 157
f 156 200 199
f 228 230 227
f 227 201 228
f 99 114 152
f 115 90 96
f 114 99 115
f 113 114 115
f 85 68 81
f 183 195 180
f 205 195 183
f 198 200 191
f 191 209 198
f 200 209 191
f 188 209 200
f 199 225 224
f 229 230 228
f 155 164 154
f 155 156 164
f 174 172 175
f 175 159 204
f 154 158 175
f 158 159 175
f 193 203 192
f 192 232 193
f 157 201 192
f 103 31 35
f 137 138 107
f 135 136 137
f 135 137 152
f 104 99 103
f 104 115 99
f 90 115 104
f 104 126 90
f 103 125 104
f 125 126 104
f 98 115 93
f 93 115 96
f 96 95 93
f 93 95 94
f 129 115 98
f 129 64 130
f 238 239 14
f 12 195 11
f 239 195 12
f 196 206 180
f 216 195 239
f 213 196 216
f 180 195 216
f 216 196 180
f 238 68 240
f 208 241 154
f 190 155 154
f 22 43 242
f 131 64 83
f 60 64 61
f 130 64 112
f 112 129 130
f 115 129 112
f 113 115 112
f 64 131 112
f 63 129 98
f 64 129 63
f 68 85 59
f 61 64 59
f 177 183 160
f 200 166 165
f 165 188 200
f 171 174 205
f 171 172 174
f 166 156 167
f 156 155 167
f 209 188 187
f 187 190 209
f 168 203 193
f 160 175 173
f 173 175 172
f 173 177 160
f 231 227 230
f 157 192 162
f 203 168 162
f 232 192 226
f 227 231 226
f 226 231 232
f 201 227 226
f 226 192 201
f 103 35 91
f 5 201 199
f 137 136 58
f 58 138 137
f 58 139 138
f 37 58 38
f 139 58 37
f 101 107 138
f 152 137 105
f 105 99 152
f 136 135 57
f 57 235 54
f 108 135 152
f 149 141 145
f 146 151 145
f 56 2 141
f 81 238 7
f 7 14 81
f 238 14 7
f 239 12 13
f 180 206 182
f 182 181 180
f 206 208 182
f 161 183 180
f 180 181 161
f 160 183 161
f 154 175 161
f 161 175 160
f 8 195 236
f 8 3 195
f 215 239 238
f 215 216 239
f 206 196 207
f 207 208 206
f 196 208 207
f 154 241 189
f 189 190 154
f 242 224 221
f 221 22 242
f 126 128 92
f 42 92 128
f 242 43 32
f 36 126 125
f 36 128 126
f 125 35 36
f 35 5 36
f 83 64 87
f 64 60 87
f 87 60 61
f 61 59 87
f 87 59 85
f 82 131 83
f 82 112 131
f 82 83 81
f 82 123 112
f 64 63 23
f 241 240 23
f 24 23 63
f 6 240 68
f 68 59 6
f 6 59 64
f 64 23 6
f 6 23 240
f 205 183 178
f 183 177 178
f 149 145 150
f 150 145 151
f 186 167 155
f 155 190 186
f 190 187 186
f 204 159 170
f 230 229 234
f 234 231 230
f 232 231 234
f 193 232 234
f 204 168 234
f 234 168 193
f 245 229 15
f 245 234 229
f 235 234 245
f 194 174 210
f 163 164 157
f 157 162 163
f 202 192 203
f 203 162 202
f 202 162 192
f 127 35 125
f 127 91 35
f 127 125 103
f 103 91 127
f 33 25 35
f 40 25 30
f 30 33 31
f 25 33 30
f 35 25 19
f 19 5 35
f 136 50 49
f 49 58 136
f 50 235 49
f 40 30 39
f 139 37 41
f 28 37 38
f 138 139 140
f 139 41 140
f 140 31 103
f 103 99 100
f 100 101 103
f 2 56 45
f 45 57 46
f 45 56 57
f 66 45 46
f 124 67 118
f 236 143 142
f 146 145 142
f 142 145 141
f 134 57 135
f 46 57 134
f 134 118 46
f 111 118 134
f 116 108 152
f 111 134 110
f 110 134 135
f 18 56 141
f 18 141 149
f 148 143 236
f 212 205 194
f 212 195 205
f 194 210 212
f 236 195 212
f 151 147 212
f 212 210 151
f 212 148 236
f 147 148 212
f 144 151 146
f 144 147 151
f 144 148 147
f 143 148 144
f 146 142 144
f 144 142 143
f 3 8 9
f 216 215 214
f 213 216 214
f 217 240 241
f 238 240 217
f 217 215 238
f 185 208 154
f 154 184 185
f 185 182 208
f 153 184 154
f 223 225 198
f 198 209 223
f 90 126 89
f 126 92 89
f 44 42 128
f 97 93 94
f 97 42 93
f 92 42 97
f 34 32 43
f 128 32 34
f 43 44 34
f 34 44 128
f 21 5 199
f 21 36 5
f 128 36 21
f 83 87 84
f 84 87 85
f 81 83 84
f 84 85 81
f 43 22 4
f 22 221 4
f 62 24 63
f 62 63 98
f 43 4 62
f 62 4 24
f 98 93 62
f 62 44 43
f 93 42 62
f 42 44 62
f 179 171 205
f 205 178 179
f 47 58 235
f 235 245 47
f 40 39 47
f 15 40 47
f 38 58 47
f 47 39 38
f 53 57 54
f 54 235 53
f 235 52 53
f 136 57 53
f 53 52 136
f 51 50 136
f 136 52 51
f 51 235 50
f 51 52 235
f 169 168 204
f 204 170 169
f 26 35 31
f 31 33 26
f 26 33 35
f 201 5 243
f 5 19 243
f 243 229 228
f 15 229 243
f 243 40 15
f 243 19 25
f 243 25 40
f 235 58 48
f 48 49 235
f 58 49 48
f 29 30 31
f 31 28 29
f 29 28 38
f 38 39 29
f 29 39 30
f 102 101 138
f 138 140 102
f 103 101 102
f 102 140 103
f 27 41 37
f 27 140 41
f 37 28 27
f 27 28 31
f 31 140 27
f 137 107 106
f 106 105 137
f 112 123 119
f 123 120 119
f 152 114 121
f 122 120 123
f 123 132 122
f 122 132 69
f 122 121 120
f 122 116 152
f 152 121 122
f 133 67 124
f 133 69 67
f 133 122 69
f 124 116 133
f 116 122 133
f 10 69 11
f 11 195 10
f 195 3 10
f 67 69 73
f 3 9 73
f 73 9 8
f 45 66 65
f 65 118 67
f 65 66 46
f 46 118 65
f 70 67 236
f 236 142 70
f 70 142 1
f 1 65 70
f 70 65 67
f 135 108 109
f 109 110 135
f 108 116 109
f 124 118 117
f 117 116 124
f 117 118 111
f 111 110 117
f 117 109 116
f 110 109 117
f 57 56 55
f 56 18 55
f 233 234 235
f 233 175 204
f 204 234 233
f 174 175 233
f 233 210 174
f 237 18 149
f 241 208 197
f 197 208 196
f 88 89 92
f 88 97 94
f 92 97 88
f 128 21 20
f 242 32 20
f 20 32 128
f 20 21 199
f 20 224 242
f 199 224 20
f 222 4 221
f 24 4 222
f 221 223 222
f 241 23 222
f 23 24 222
f 222 189 241
f 190 189 222
f 209 190 222
f 222 223 209
f 16 245 15
f 15 47 16
f 16 47 245
f 228 201 244
f 244 243 228
f 201 243 244
f 81 132 86
f 86 132 123
f 86 82 81
f 123 82 86
f 80 132 81
f 81 14 80
f 80 14 239
f 69 132 77
f 75 10 3
f 69 10 75
f 67 73 72
f 72 73 8
f 72 8 236
f 17 233 235
f 18 233 17
f 235 57 17
f 57 55 17
f 17 55 18
f 210 233 211
f 211 233 18
f 18 237 211
f 211 237 149
f 149 150 211
f 211 150 151
f 151 210 211
f 213 214 219
f 78 77 132
f 239 13 78
f 78 13 12
f 12 77 78
f 76 12 11
f 76 77 12
f 11 69 76
f 69 77 76
f 74 73 69
f 69 75 74
f 3 73 74
f 74 75 3
f 236 67 71
f 71 72 236
f 67 72 71
f 218 217 241
f 241 219 218
f 215 217 218
f 218 214 215
f 218 219 214
f 241 197 220
f 220 219 241
f 213 219 220
f 220 196 213
f 220 197 196
f 239 78 79
f 79 78 132
f 79 80 239
f 132 80 79
f 188 165 187
f 187 165 166
f 177 173 178
f 178 173 172
f 186 187 166
f 166 167 186
f 170 159 158
f 158 164 170
f 2 1 142
f 141 2 142
f 185 184 181
f 181 182 185
f 181 184 153
f 153 161 181
f 154 161 153
f 223 221 224
f 223 224 225
f 89 95 96
f 96 90 89
f 179 178 172
f 172 171 179
f 169 170 164
f 164 163 169
f 169 163 162
f 169 162 168
f 101 100 106
f 107 101 106
f 99 105 106
f 106 100 99
f 119 120 113
f 113 112 119
f 113 120 121
f 121 114 113
f 65 1 2
f 2 45 65
f 95 89 88
f 94 95 88

