# https://github.com/mikedh/trimesh

o p00036.obj
v -15.28953225 -103.00292257 11.75950000
v -15.01753671 -102.67263436 11.75950000
v -14.79415545 -102.30770603 11.75950000
v -14.62373633 -101.91524050 11.75950000
v -14.50959636 -101.50287665 11.75950000
v -14.45395714 -101.07864069 11.75950000
v -14.45790164 -100.65078988 11.75950000
v -14.52135308 -100.22765185 11.75950000
v -14.64307644 -99.81746251 11.75950000
v -14.82070252 -99.42820572 11.75950000
v -15.05077404 -99.06745792 11.75950000
v -15.32881290 -98.74224066 11.75950000
v -15.64940740 -98.45888392 11.75950000
v -16.00631753 -98.22290292 11.75950000
v -16.39259644 -98.03889077 11.75950000
v -16.80072566 -97.91042904 11.75950000
v -17.22276141 -97.84001810 11.75950000
v -17.65048925 -97.82902842 11.75950000
v -18.07558393 -97.87767390 11.75950000
v -18.48977148 -97.98500771 11.75950000
v -18.88499021 -98.14894072 11.75950000
v -19.25354763 -98.36628216 11.75950000
v -19.58827019 -98.63280173 11.75950000
v -19.88264290 -98.94331192 11.75950000
v -20.13093613 -99.29176902 11.75950000
v -20.32831713 -99.67139069 11.75950000
v -20.47094411 -100.07478804 11.75950000
v -20.55604099 -100.49410939 11.75950000
v -20.58195147 -100.92119313 11.75950000
v -20.54817121 -101.34772656 11.75950000
v -20.45535772 -101.76540769 11.75950000
v -20.30531751 -102.16610684 11.75950000
v -20.10097094 -102.54202486 11.75950000
v -19.84629537 -102.88584491 11.75950000
v -19.54624779 -103.19087495 11.75950000
v -19.20666828 -103.45117790 11.75950000
v -18.83416636 -103.66168727 11.75950000
v -18.43599236 -103.81830573 11.75950000
v -18.01989629 -103.91798488 11.75950000
v -17.59397698 -103.95878457 11.75950000
v -17.16652446 -103.93991070 11.75950000
v -16.74585862 -103.86173061 11.75950000
v -16.34016724 -103.72576600 11.75950000
v -15.95734664 -103.53466325 11.75950000
v -15.60484797 -103.29214198 11.75950000
v -15.99120739 -102.33771409 11.75950000
v -15.80496233 -102.11155395 11.75950000
v -15.65200519 -101.86167448 11.75950000
v -15.53531313 -101.59293931 11.75950000
v -15.45715741 -101.31057904 11.75950000
v -15.41905926 -101.02008952 11.75950000
v -15.42176020 -100.72712478 11.75950000
v -15.46520766 -100.43738705 11.75950000
v -15.54855600 -100.15651575 11.75950000
v -15.67018293 -99.88997771 11.75950000
v -15.82772111 -99.64296080 11.75950000
v -16.01810426 -99.42027292 11.75950000
v -16.23762677 -99.22624844 11.75950000
v -16.48201589 -99.06466381 11.75950000
v -16.74651487 -98.93866411 11.75950000
v -17.02597553 -98.85070178 11.75950000
v -17.31495849 -98.80248889 11.75950000
v -17.60783902 -98.79496386 11.75950000
v -17.89891655 -98.82827316 11.75950000
v -18.18252557 -98.90176846 11.75950000
v -18.45314595 -99.01401925 11.75950000
v -18.70551039 -99.16284070 11.75950000
v -18.93470689 -99.34533617 11.75950000
v -19.13627441 -99.55795360 11.75950000
v -19.30628965 -99.79655463 11.75950000
v -19.44144348 -100.05649515 11.75950000
v -19.53910527 -100.33271573 11.75950000
v -19.59737414 -100.61984005 11.75950000
v -19.61511597 -100.91227955 11.75950000
v -19.59198542 -101.20434223 11.75950000
v -19.52843271 -101.49034343 11.75950000
v -19.42569481 -101.76471646 11.75950000
v -19.28577141 -102.02212096 11.75950000
v -19.11138595 -102.25754684 11.75950000
v -18.90593265 -102.46641180 11.75950000
v -18.67341042 -102.64465054 11.75950000
v -18.41834504 -102.78879383 11.75950000
v -18.14570108 -102.89603608 11.75950000
v -17.86078523 -102.96428996 11.75950000
v -17.56914305 -102.99222697 11.75950000
v -17.27645104 -102.97930335 11.75950000
v -16.98840611 -102.92577065 11.75950000
v -16.71061472 -102.83267082 11.75950000
v -16.44848377 -102.70181594 11.75950000
v -16.20711534 -102.53575296 11.75950000
v -15.28953225 -103.00292257 30.80950000
v -15.01753671 -102.67263436 30.80950000
v -14.79415545 -102.30770603 30.80950000
v -14.62373633 -101.91524050 30.80950000
v -14.50959636 -101.50287665 30.80950000
v -14.45395714 -101.07864069 30.80950000
v -14.45790164 -100.65078988 30.80950000
v -14.52135308 -100.22765185 30.80950000
v -14.64307644 -99.81746251 30.80950000
v -14.82070252 -99.42820572 30.80950000
v -15.05077404 -99.06745792 30.80950000
v -15.32881290 -98.74224066 30.80950000
v -15.64940740 -98.45888392 30.80950000
v -16.00631753 -98.22290292 30.80950000
v -16.39259644 -98.03889077 30.80950000
v -16.80072566 -97.91042904 30.80950000
v -17.22276141 -97.84001810 30.80950000
v -17.65048925 -97.82902842 30.80950000
v -18.07558393 -97.87767390 30.80950000
v -18.48977148 -97.98500771 30.80950000
v -18.88499021 -98.14894072 30.80950000
v -19.25354763 -98.36628216 30.80950000
v -19.58827019 -98.63280173 30.80950000
v -19.88264290 -98.94331192 30.80950000
v -20.13093613 -99.29176902 30.80950000
v -20.32831713 -99.67139069 30.80950000
v -20.47094411 -100.07478804 30.80950000
v -20.55604099 -100.49410939 30.80950000
v -20.58195147 -100.92119313 30.80950000
v -20.54817121 -101.34772656 30.80950000
v -20.45535772 -101.76540769 30.80950000
v -20.30531751 -102.16610684 30.80950000
v -20.10097094 -102.54202486 30.80950000
v -19.84629537 -102.88584491 30.80950000
v -19.54624779 -103.19087495 30.80950000
v -19.20666828 -103.45117790 30.80950000
v -18.83416636 -103.66168727 30.80950000
v -18.43599236 -103.81830573 30.80950000
v -18.01989629 -103.91798488 30.80950000
v -17.59397698 -103.95878457 30.80950000
v -17.16652446 -103.93991070 30.80950000
v -16.74585862 -103.86173061 30.80950000
v -16.34016724 -103.72576600 30.80950000
v -15.95734664 -103.53466325 30.80950000
v -15.60484797 -103.29214198 30.80950000
v -15.99120739 -102.33771409 30.80950000
v -15.80496233 -102.11155395 30.80950000
v -15.65200519 -101.86167448 30.80950000
v -15.53531313 -101.59293931 30.80950000
v -15.45715741 -101.31057904 30.80950000
v -15.41905926 -101.02008952 30.80950000
v -15.42176020 -100.72712478 30.80950000
v -15.46520766 -100.43738705 30.80950000
v -15.54855600 -100.15651575 30.80950000
v -15.67018293 -99.88997771 30.80950000
v -15.82772111 -99.64296080 30.80950000
v -16.01810426 -99.42027292 30.80950000
v -16.23762677 -99.22624844 30.80950000
v -16.48201589 -99.06466381 30.80950000
v -16.74651487 -98.93866411 30.80950000
v -17.02597553 -98.85070178 30.80950000
v -17.31495849 -98.80248889 30.80950000
v -17.60783902 -98.79496386 30.80950000
v -17.89891655 -98.82827316 30.80950000
v -18.18252557 -98.90176846 30.80950000
v -18.45314595 -99.01401925 30.80950000
v -18.70551039 -99.16284070 30.80950000
v -18.93470689 -99.34533617 30.80950000
v -19.13627441 -99.55795360 30.80950000
v -19.30628965 -99.79655463 30.80950000
v -19.44144348 -100.05649515 30.80950000
v -19.53910527 -100.33271573 30.80950000
v -19.59737414 -100.61984005 30.80950000
v -19.61511597 -100.91227955 30.80950000
v -19.59198542 -101.20434223 30.80950000
v -19.52843271 -101.49034343 30.80950000
v -19.42569481 -101.76471646 30.80950000
v -19.28577141 -102.02212096 30.80950000
v -19.11138595 -102.25754684 30.80950000
v -18.90593265 -102.46641180 30.80950000
v -18.67341042 -102.64465054 30.80950000
v -18.41834504 -102.78879383 30.80950000
v -18.14570108 -102.89603608 30.80950000
v -17.86078523 -102.96428996 30.80950000
v -17.56914305 -102.99222697 30.80950000
v -17.27645104 -102.97930335 30.80950000
v -16.98840611 -102.92577065 30.80950000
v -16.71061472 -102.83267082 30.80950000
v -16.44848377 -102.70181594 30.80950000
v -16.20711534 -102.53575296 30.80950000
v -15.22920848 -103.06011126 21.28450000
v -14.94984088 -102.72087105 21.28450000
v -14.72040519 -102.34605184 21.28450000
v -14.54536709 -101.94294907 21.28450000
v -14.42813352 -101.51940868 21.28450000
v -14.37098628 -101.08367439 21.28450000
v -14.37503769 -100.64422728 21.28450000
v -14.44020889 -100.20962069 21.28450000
v -14.56523139 -99.78831374 21.28450000
v -14.74767178 -99.38850668 21.28450000
v -14.98397906 -99.01798132 21.28450000
v -15.26955378 -98.68394950 21.28450000
v -15.59883755 -98.39291277 21.28450000
v -15.96542123 -98.15053584 21.28450000
v -16.36216970 -97.96153629 21.28450000
v -16.78136069 -97.82959278 21.28450000
v -17.21483513 -97.75727345 21.28450000
v -17.65415593 -97.74598591 21.28450000
v -18.09077222 -97.79594986 21.28450000
v -18.51618574 -97.90619280 21.28450000
v -18.92211632 -98.07456899 21.28450000
v -19.30066298 -98.29780117 21.28450000
v -19.64445773 -98.57154438 21.28450000
v -19.94680900 -98.89047052 21.28450000
v -20.20183187 -99.24837206 21.28450000
v -20.40456261 -99.63828285 21.28450000
v -20.55105530 -100.05261372 21.28450000
v -20.63845861 -100.48330019 21.28450000
v -20.66507135 -100.92195944 21.28450000
v -20.63037553 -101.36005346 21.28450000
v -20.53504646 -101.78905526 21.28450000
v -20.38093962 -102.20061481 21.28450000
v -20.17105451 -102.58672155 21.28450000
v -19.90947632 -102.93986037 21.28450000
v -19.60129637 -103.25315782 21.28450000
v -19.25251303 -103.52051592 21.28450000
v -18.86991496 -103.73673085 21.28450000
v -18.46094901 -103.89759424 21.28450000
v -18.03357523 -103.99997505 21.28450000
v -17.59611197 -104.04188056 21.28450000
v -17.15707396 -104.02249514 21.28450000
v -16.72500656 -103.94219609 21.28450000
v -16.30831947 -103.80254635 21.28450000
v -15.91512305 -103.60626403 21.28450000
v -15.55307040 -103.35716955 21.28450000
v -15.27947828 -103.01245402 29.22200000
v -15.26942432 -103.02198547 27.63450000
v -15.25937036 -103.03151692 26.04700000
v -15.24931640 -103.04104836 24.45950000
v -15.23926244 -103.05057981 22.87200000
v -15.93422860 -103.53704785 29.22200000
v -16.70623272 -103.86553879 29.22200000
v -15.92711902 -103.54893837 27.63450000
v -17.53823463 -103.97356418 29.22200000
v -16.70259481 -103.87890652 27.63450000
v -18.36852855 -103.85311226 29.22200000
v -15.92000944 -103.56082889 26.04700000
v -17.53833819 -103.98741769 27.63450000
v -19.13553538 -103.51311641 29.22200000
v -16.69895690 -103.89227425 26.04700000
v -18.37236591 -103.86642411 27.63450000
v -19.78236974 -102.97879257 29.22200000
v -15.91289987 -103.57271941 24.45950000
v -17.53844175 -104.00127121 26.04700000
v -19.14282193 -103.52489932 27.63450000
v -20.26105888 -102.28976907 29.22200000
v -16.69531898 -103.90564198 24.45950000
v -18.37620326 -103.87973596 26.04700000
v -19.79256507 -102.98817264 27.63450000
v -20.53610061 -101.49714766 29.22200000
v -15.90579029 -103.58460993 22.87200000
v -17.53854532 -104.01512472 24.45950000
v -19.15010848 -103.53668222 26.04700000
v -20.27340685 -102.29605064 27.63450000
v -20.58709634 -100.65971343 29.22200000
v -16.69168107 -103.91900971 22.87200000
v -18.38004062 -103.89304781 24.45950000
v -19.80276041 -102.99755271 26.04700000
v -20.54968543 -101.49986485 27.63450000
v -20.41026397 -99.83957504 29.22200000
v -17.53864888 -104.02897824 22.87200000
v -19.15739503 -103.54846512 24.45950000
v -20.28575483 -102.30233221 26.04700000
v -20.60091050 -100.65866471 27.63450000
v -20.01871833 -99.09755842 29.22200000
v -18.38387797 -103.90635966 22.87200000
v -19.81295574 -103.00693279 24.45950000
v -20.56327026 -101.50258203 26.04700000
v -20.42328292 -99.83483820 27.63450000
v -19.44149858 -98.48869553 29.22200000
v -19.16468158 -103.56024803 22.87200000
v -20.29810281 -102.30861377 24.45950000
v -20.61472465 -100.65761599 26.04700000
v -20.02997651 -99.08948476 27.63450000
v -18.72141446 -98.05814295 29.22200000
v -19.82315108 -103.01631286 22.87200000
v -20.57685509 -101.50529922 24.45950000
v -20.43630186 -99.83010136 26.04700000
v -19.45016103 -98.47788384 27.63450000
v -17.91187132 -97.83783281 29.22200000
v -20.31045078 -102.31489534 22.87200000
v -20.62853880 -100.65656727 24.45950000
v -20.04123470 -99.08141110 26.04700000
v -18.72683873 -98.04539509 27.63450000
v -17.07290926 -97.84410449 29.22200000
v -20.59043991 -101.50801640 22.87200000
v -20.44932081 -99.82536451 24.45950000
v -19.45882348 -98.46707216 26.04700000
v -17.91365510 -97.82409422 27.63450000
v -16.26675028 -98.07649285 29.22200000
v -20.64235295 -100.65551856 22.87200000
v -20.05249288 -99.07333745 24.45950000
v -18.73226299 -98.03264723 26.04700000
v -17.07092028 -97.83039410 27.63450000
v -15.55318348 -98.51776271 29.22200000
v -20.46233975 -99.82062767 22.87200000
v -19.46748594 -98.45626047 24.45950000
v -17.91543889 -97.81035564 26.04700000
v -16.26113603 -98.06382750 27.63450000
v -14.98513086 -99.13518710 29.22200000
v -20.06375106 -99.06526379 22.87200000
v -18.73768726 -98.01989937 24.45950000
v -17.06893129 -97.81668372 26.04700000
v -15.54436036 -98.50708173 27.63450000
v -14.60472229 -99.88297448 29.22200000
v -19.47614839 -98.44544879 22.87200000
v -17.91722268 -97.79661705 24.45950000
v -16.25552179 -98.05116216 26.04700000
v -14.97375324 -99.12728266 27.63450000
v -14.44017091 -100.70566489 29.22200000
v -18.74311153 -98.00715151 22.87200000
v -17.06694231 -97.80297334 24.45950000
v -15.53553724 -98.49640076 26.04700000
v -14.59163398 -99.87843281 27.63450000
v -14.50368076 -101.54224313 29.22200000
v -17.91900647 -97.78287847 22.87200000
v -16.24990755 -98.03849682 24.45950000
v -14.96237561 -99.11937821 26.04700000
v -14.42634262 -100.70482281 27.63450000
v -14.79054161 -102.33066403 29.22200000
v -17.06495333 -97.78926296 22.87200000
v -15.52671412 -98.48571979 24.45950000
v -14.57854567 -99.87389113 26.04700000
v -14.49013808 -101.54516311 27.63450000
v -16.24429330 -98.02583148 22.87200000
v -14.95099798 -99.11147377 24.45950000
v -14.41251434 -100.70398074 26.04700000
v -14.77828892 -102.33712950 27.63450000
v -15.51789100 -98.47503882 22.87200000
v -14.56545736 -99.86934945 24.45950000
v -14.47659539 -101.54808309 26.04700000
v -14.93962035 -99.10356933 22.87200000
v -14.39868605 -100.70313866 24.45950000
v -14.76603623 -102.34359497 26.04700000
v -14.55236906 -99.86480777 22.87200000
v -14.46305270 -101.55100307 24.45950000
v -14.38485776 -100.70229658 22.87200000
v -14.75378355 -102.35006044 24.45950000
v -14.44951002 -101.55392304 22.87200000
v -14.74153086 -102.35652591 22.87200000
v -15.27947828 -103.01245402 13.34700000
v -15.26942432 -103.02198547 14.93450000
v -15.25937036 -103.03151692 16.52200000
v -15.24931640 -103.04104836 18.10950000
v -15.23926244 -103.05057981 19.69700000
v -14.79054161 -102.33066403 13.34700000
v -14.50368076 -101.54224313 13.34700000
v -14.77828892 -102.33712950 14.93450000
v -14.44017091 -100.70566489 13.34700000
v -14.49013808 -101.54516311 14.93450000
v -14.60472229 -99.88297448 13.34700000
v -14.76603623 -102.34359497 16.52200000
v -14.42634262 -100.70482281 14.93450000
v -14.98513086 -99.13518710 13.34700000
v -14.47659539 -101.54808309 16.52200000
v -14.59163398 -99.87843281 14.93450000
v -15.55318348 -98.51776271 13.34700000
v -14.75378355 -102.35006044 18.10950000
v -14.41251434 -100.70398074 16.52200000
v -14.97375324 -99.12728266 14.93450000
v -16.26675028 -98.07649285 13.34700000
v -14.46305270 -101.55100307 18.10950000
v -14.57854567 -99.87389113 16.52200000
v -15.54436036 -98.50708173 14.93450000
v -17.07290926 -97.84410449 13.34700000
v -14.74153086 -102.35652591 19.69700000
v -14.39868605 -100.70313866 18.10950000
v -14.96237561 -99.11937821 16.52200000
v -16.26113603 -98.06382750 14.93450000
v -17.91187132 -97.83783281 13.34700000
v -14.44951002 -101.55392304 19.69700000
v -14.56545736 -99.86934945 18.10950000
v -15.53553724 -98.49640076 16.52200000
v -17.07092028 -97.83039410 14.93450000
v -18.72141446 -98.05814295 13.34700000
v -14.38485776 -100.70229658 19.69700000
v -14.95099798 -99.11147377 18.10950000
v -16.25552179 -98.05116216 16.52200000
v -17.91365510 -97.82409422 14.93450000
v -19.44149858 -98.48869553 13.34700000
v -14.55236906 -99.86480777 19.69700000
v -15.52671412 -98.48571979 18.10950000
v -17.06893129 -97.81668372 16.52200000
v -18.72683873 -98.04539509 14.93450000
v -20.01871833 -99.09755842 13.34700000
v -14.93962035 -99.10356933 19.69700000
v -16.24990755 -98.03849682 18.10950000
v -17.91543889 -97.81035564 16.52200000
v -19.45016103 -98.47788384 14.93450000
v -20.41026397 -99.83957504 13.34700000
v -15.51789100 -98.47503882 19.69700000
v -17.06694231 -97.80297334 18.10950000
v -18.73226299 -98.03264723 16.52200000
v -20.02997651 -99.08948476 14.93450000
v -20.58709634 -100.65971343 13.34700000
v -16.24429330 -98.02583148 19.69700000
v -17.91722268 -97.79661705 18.10950000
v -19.45882348 -98.46707216 16.52200000
v -20.42328292 -99.83483820 14.93450000
v -20.53610061 -101.49714766 13.34700000
v -17.06495333 -97.78926296 19.69700000
v -18.73768726 -98.01989937 18.10950000
v -20.04123470 -99.08141110 16.52200000
v -20.60091050 -100.65866471 14.93450000
v -20.26105888 -102.28976907 13.34700000
v -17.91900647 -97.78287847 19.69700000
v -19.46748594 -98.45626047 18.10950000
v -20.43630186 -99.83010136 16.52200000
v -20.54968543 -101.49986485 14.93450000
v -19.78236974 -102.97879257 13.34700000
v -18.74311153 -98.00715151 19.69700000
v -20.05249288 -99.07333745 18.10950000
v -20.61472465 -100.65761599 16.52200000
v -20.27340685 -102.29605064 14.93450000
v -19.13553538 -103.51311641 13.34700000
v -19.47614839 -98.44544879 19.69700000
v -20.44932081 -99.82536451 18.10950000
v -20.56327026 -101.50258203 16.52200000
v -19.79256507 -102.98817264 14.93450000
v -18.36852855 -103.85311226 13.34700000
v -20.06375106 -99.06526379 19.69700000
v -20.62853880 -100.65656727 18.10950000
v -20.28575483 -102.30233221 16.52200000
v -19.14282193 -103.52489932 14.93450000
v -17.53823463 -103.97356418 13.34700000
v -20.46233975 -99.82062767 19.69700000
v -20.57685509 -101.50529922 18.10950000
v -19.80276041 -102.99755271 16.52200000
v -18.37236591 -103.86642411 14.93450000
v -16.70623272 -103.86553879 13.34700000
v -20.64235295 -100.65551856 19.69700000
v -20.29810281 -102.30861377 18.10950000
v -19.15010848 -103.53668222 16.52200000
v -17.53833819 -103.98741769 14.93450000
v -15.93422860 -103.53704785 13.34700000
v -20.59043991 -101.50801640 19.69700000
v -19.81295574 -103.00693279 18.10950000
v -18.37620326 -103.87973596 16.52200000
v -16.70259481 -103.87890652 14.93450000
v -20.31045078 -102.31489534 19.69700000
v -19.15739503 -103.54846512 18.10950000
v -17.53844175 -104.00127121 16.52200000
v -15.92711902 -103.54893837 14.93450000
v -19.82315108 -103.01631286 19.69700000
v -18.38004062 -103.89304781 18.10950000
v -16.69895690 -103.89227425 16.52200000
v -19.16468158 -103.56024803 19.69700000
v -17.53854532 -104.01512472 18.10950000
v -15.92000944 -103.56082889 16.52200000
v -18.38387797 -103.90635966 19.69700000
v -16.69531898 -103.90564198 18.10950000
v -17.53864888 -104.02897824 19.69700000
v -15.91289987 -103.57271941 18.10950000
v -16.69168107 -103.91900971 19.69700000
v -15.90579029 -103.58460993 19.69700000
f 75 29 74
f 75 30 29
f 73 74 29
f 73 29 28
f 76 30 75
f 76 31 30
f 72 73 28
f 72 27 26
f 72 28 27
f 77 31 76
f 77 32 31
f 71 72 26
f 78 32 77
f 78 33 32
f 70 71 26
f 70 26 25
f 79 33 78
f 79 34 33
f 69 70 25
f 69 24 23
f 69 25 24
f 80 34 79
f 80 35 34
f 68 69 23
f 81 36 35
f 81 35 80
f 67 68 23
f 67 23 22
f 82 37 36
f 82 38 37
f 82 36 81
f 66 22 21
f 66 67 22
f 83 38 82
f 65 21 20
f 65 66 21
f 84 38 83
f 84 39 38
f 64 20 19
f 64 65 20
f 40 39 84
f 85 40 84
f 18 64 19
f 63 64 18
f 86 40 85
f 41 40 86
f 17 62 63
f 17 63 18
f 87 41 86
f 42 41 87
f 16 61 62
f 16 62 17
f 60 61 16
f 43 87 88
f 43 42 87
f 15 59 60
f 15 60 16
f 44 43 88
f 44 88 89
f 14 59 15
f 14 58 59
f 45 89 90
f 45 44 89
f 13 58 14
f 1 45 90
f 1 90 46
f 12 58 13
f 12 57 58
f 2 1 46
f 2 46 47
f 11 57 12
f 11 56 57
f 3 2 47
f 3 47 48
f 3 48 49
f 10 55 56
f 10 56 11
f 4 3 49
f 4 49 50
f 9 54 55
f 9 55 10
f 5 4 50
f 8 54 9
f 8 53 54
f 6 5 50
f 6 50 51
f 7 53 8
f 7 51 52
f 7 52 53
f 7 6 51
f 165 164 119
f 165 119 120
f 163 119 164
f 163 118 119
f 166 165 120
f 166 120 121
f 162 118 163
f 162 116 117
f 162 117 118
f 167 166 121
f 167 121 122
f 161 116 162
f 168 167 122
f 168 122 123
f 160 116 161
f 160 115 116
f 169 168 123
f 169 123 124
f 159 115 160
f 159 113 114
f 159 114 115
f 170 169 124
f 170 124 125
f 158 113 159
f 171 125 126
f 171 170 125
f 157 113 158
f 157 112 113
f 172 126 127
f 172 127 128
f 172 171 126
f 156 111 112
f 156 112 157
f 173 172 128
f 155 110 111
f 155 111 156
f 174 173 128
f 174 128 129
f 154 109 110
f 154 110 155
f 130 174 129
f 175 174 130
f 108 109 154
f 153 108 154
f 176 175 130
f 131 176 130
f 107 153 152
f 107 108 153
f 177 176 131
f 132 177 131
f 106 152 151
f 106 107 152
f 150 106 151
f 133 178 177
f 133 177 132
f 105 150 149
f 105 106 150
f 134 178 133
f 134 179 178
f 104 105 149
f 104 149 148
f 135 180 179
f 135 179 134
f 103 104 148
f 91 180 135
f 91 136 180
f 102 103 148
f 102 148 147
f 92 136 91
f 92 137 136
f 101 102 147
f 101 147 146
f 93 137 92
f 93 138 137
f 93 139 138
f 100 146 145
f 100 101 146
f 94 139 93
f 94 140 139
f 99 145 144
f 99 100 145
f 95 140 94
f 98 99 144
f 98 144 143
f 96 140 95
f 96 141 140
f 97 98 143
f 97 142 141
f 97 143 142
f 97 141 96
f 226 91 135
f 225 181 230
f 226 92 91
f 181 182 230
f 231 226 135
f 231 134 133
f 231 135 134
f 232 231 133
f 232 132 131
f 232 133 132
f 233 226 231
f 233 227 226
f 233 228 227
f 234 232 131
f 234 130 129
f 234 131 130
f 235 233 231
f 235 231 232
f 236 234 129
f 236 128 127
f 236 129 128
f 237 228 233
f 238 232 234
f 238 235 232
f 239 236 127
f 239 126 125
f 239 127 126
f 240 237 233
f 240 233 235
f 241 238 234
f 241 234 236
f 242 239 125
f 242 124 123
f 242 125 124
f 243 229 228
f 243 230 229
f 243 228 237
f 244 235 238
f 244 240 235
f 245 236 239
f 245 241 236
f 245 239 242
f 246 242 123
f 246 122 121
f 246 123 122
f 247 237 240
f 247 243 237
f 248 244 238
f 248 238 241
f 249 245 242
f 250 246 121
f 250 120 119
f 250 121 120
f 251 223 224
f 251 224 225
f 251 225 230
f 251 230 243
f 252 247 240
f 252 240 244
f 253 241 245
f 253 248 241
f 254 246 250
f 254 249 242
f 254 242 246
f 255 250 119
f 255 118 117
f 255 119 118
f 256 243 247
f 256 251 243
f 256 223 251
f 256 221 222
f 256 222 223
f 257 248 253
f 257 252 244
f 257 244 248
f 258 245 249
f 258 253 245
f 259 254 250
f 260 116 115
f 260 117 116
f 260 255 117
f 261 256 247
f 261 247 252
f 261 219 220
f 261 220 221
f 261 221 256
f 261 252 257
f 262 253 258
f 262 257 253
f 263 258 249
f 263 254 259
f 263 249 254
f 264 250 255
f 264 255 260
f 264 259 250
f 265 260 115
f 265 115 114
f 266 217 218
f 266 218 219
f 266 219 261
f 266 261 257
f 267 258 263
f 267 262 258
f 268 263 259
f 268 259 264
f 269 264 260
f 270 265 114
f 270 113 112
f 270 114 113
f 271 266 257
f 271 262 267
f 271 215 216
f 271 216 217
f 271 217 266
f 271 257 262
f 272 267 263
f 273 268 264
f 273 264 269
f 274 269 260
f 274 260 265
f 275 270 112
f 275 111 110
f 275 112 111
f 276 271 267
f 276 213 214
f 276 214 215
f 276 215 271
f 277 272 263
f 277 263 268
f 278 273 269
f 279 274 265
f 279 270 275
f 279 265 270
f 280 275 110
f 280 109 108
f 280 110 109
f 281 267 272
f 281 211 212
f 281 212 213
f 281 213 276
f 281 276 267
f 282 277 268
f 282 273 278
f 282 268 273
f 283 278 269
f 283 269 274
f 284 279 275
f 285 280 108
f 285 107 106
f 285 108 107
f 286 211 281
f 286 272 277
f 286 209 210
f 286 210 211
f 286 281 272
f 287 282 278
f 287 278 283
f 288 274 279
f 288 283 274
f 288 279 284
f 289 275 280
f 289 280 285
f 289 284 275
f 290 105 104
f 290 106 105
f 290 285 106
f 291 277 282
f 291 207 208
f 291 208 209
f 291 286 277
f 291 209 286
f 292 287 283
f 293 288 284
f 293 284 289
f 294 289 285
f 295 103 102
f 295 104 103
f 295 290 104
f 296 205 206
f 296 206 207
f 296 291 282
f 296 207 291
f 296 282 287
f 296 287 292
f 297 283 288
f 297 292 283
f 298 289 294
f 298 293 289
f 299 285 290
f 299 290 295
f 299 294 285
f 300 101 100
f 300 102 101
f 300 295 102
f 301 204 205
f 301 296 292
f 301 205 296
f 302 288 293
f 302 297 288
f 303 298 294
f 304 299 295
f 305 300 100
f 305 99 98
f 305 100 99
f 306 301 292
f 306 202 203
f 306 203 204
f 306 204 301
f 306 292 297
f 307 293 298
f 307 298 303
f 307 302 293
f 308 299 304
f 308 303 294
f 308 294 299
f 309 304 295
f 309 295 300
f 309 300 305
f 310 305 98
f 310 97 96
f 310 98 97
f 311 200 201
f 311 201 202
f 311 306 297
f 311 302 307
f 311 297 302
f 311 202 306
f 312 307 303
f 313 308 304
f 314 305 310
f 314 309 305
f 315 310 96
f 315 95 94
f 315 96 95
f 316 198 199
f 316 199 200
f 316 200 311
f 316 311 307
f 317 312 303
f 317 303 308
f 318 304 309
f 318 313 304
f 319 314 310
f 320 92 226
f 320 315 94
f 320 93 92
f 320 94 93
f 321 196 197
f 321 197 198
f 321 198 316
f 321 307 312
f 321 316 307
f 322 308 313
f 322 317 308
f 323 314 319
f 323 318 309
f 323 309 314
f 324 319 310
f 324 310 315
f 325 194 195
f 325 195 196
f 325 196 321
f 325 317 322
f 325 312 317
f 325 321 312
f 326 318 323
f 326 322 313
f 326 313 318
f 327 323 319
f 328 315 320
f 328 320 226
f 328 324 315
f 328 226 227
f 329 192 193
f 329 193 194
f 329 194 325
f 329 325 322
f 330 326 323
f 331 319 324
f 331 327 319
f 332 190 191
f 332 191 192
f 332 192 329
f 332 329 322
f 332 322 326
f 333 323 327
f 333 330 323
f 333 327 331
f 334 324 328
f 334 331 324
f 334 328 227
f 334 227 228
f 334 228 229
f 335 332 326
f 335 188 189
f 335 189 190
f 335 330 333
f 335 190 332
f 335 326 330
f 336 333 331
f 337 186 187
f 337 187 188
f 337 335 333
f 337 188 335
f 338 334 229
f 338 336 331
f 338 331 334
f 339 184 185
f 339 185 186
f 339 337 333
f 339 186 337
f 339 333 336
f 340 229 230
f 340 182 183
f 340 183 184
f 340 230 182
f 340 338 229
f 340 184 339
f 340 336 338
f 340 339 336
f 341 1 2
f 182 181 345
f 341 45 1
f 181 225 345
f 346 341 2
f 346 2 3
f 346 3 4
f 347 4 5
f 347 5 6
f 347 346 4
f 348 342 341
f 348 341 346
f 349 347 6
f 349 6 7
f 349 7 8
f 350 346 347
f 350 348 346
f 351 349 8
f 351 8 9
f 351 9 10
f 352 343 342
f 352 342 348
f 353 347 349
f 353 350 347
f 354 351 10
f 354 10 11
f 354 11 12
f 355 348 350
f 355 352 348
f 356 353 349
f 356 349 351
f 357 12 13
f 357 13 14
f 357 354 12
f 358 344 343
f 358 343 352
f 359 350 353
f 359 355 350
f 360 351 354
f 360 356 351
f 361 357 14
f 361 14 15
f 361 15 16
f 362 352 355
f 362 358 352
f 363 353 356
f 363 359 353
f 364 354 357
f 364 360 354
f 365 361 16
f 365 16 17
f 365 17 18
f 366 183 182
f 366 184 183
f 366 344 358
f 366 345 344
f 366 182 345
f 367 362 355
f 367 355 359
f 368 356 360
f 368 363 356
f 369 357 361
f 369 364 357
f 369 361 365
f 370 365 18
f 370 18 19
f 370 19 20
f 371 185 184
f 371 186 185
f 371 366 358
f 371 358 362
f 371 184 366
f 372 367 359
f 372 359 363
f 372 363 368
f 373 368 360
f 373 360 364
f 373 364 369
f 374 369 365
f 375 370 20
f 375 20 21
f 375 21 22
f 376 187 186
f 376 188 187
f 376 362 367
f 376 186 371
f 376 371 362
f 377 372 368
f 378 373 369
f 379 365 370
f 379 374 365
f 380 22 23
f 380 23 24
f 380 375 22
f 381 189 188
f 381 190 189
f 381 188 376
f 381 367 372
f 381 372 377
f 381 376 367
f 382 368 373
f 382 377 368
f 383 378 369
f 383 369 374
f 384 379 370
f 384 370 375
f 385 380 24
f 385 24 25
f 386 381 377
f 386 191 190
f 386 192 191
f 386 190 381
f 387 382 373
f 387 373 378
f 388 374 379
f 388 383 374
f 389 375 380
f 389 384 375
f 390 385 25
f 390 25 26
f 390 26 27
f 391 193 192
f 391 194 193
f 391 377 382
f 391 192 386
f 391 386 377
f 392 378 383
f 392 387 378
f 392 383 388
f 393 388 379
f 393 379 384
f 394 385 390
f 394 389 380
f 394 380 385
f 395 390 27
f 395 27 28
f 395 28 29
f 396 195 194
f 396 196 195
f 396 194 391
f 396 382 387
f 396 391 382
f 396 387 392
f 397 392 388
f 398 384 389
f 398 393 384
f 399 394 390
f 400 395 29
f 400 29 30
f 400 30 31
f 401 196 396
f 401 197 196
f 401 198 197
f 401 396 392
f 402 388 393
f 402 397 388
f 403 389 394
f 403 394 399
f 403 398 389
f 404 390 395
f 404 395 400
f 404 399 390
f 405 31 32
f 405 400 31
f 405 32 33
f 406 392 397
f 406 401 392
f 406 199 198
f 406 200 199
f 406 198 401
f 407 402 393
f 407 393 398
f 407 398 403
f 408 403 399
f 409 404 400
f 410 405 33
f 410 33 34
f 410 34 35
f 411 406 397
f 411 201 200
f 411 202 201
f 411 200 406
f 411 397 402
f 412 407 403
f 413 399 404
f 413 408 399
f 414 400 405
f 414 409 400
f 415 410 35
f 415 35 36
f 415 36 37
f 416 203 202
f 416 402 407
f 416 202 411
f 416 411 402
f 417 408 413
f 417 403 408
f 417 412 403
f 418 413 404
f 418 404 409
f 419 405 410
f 419 414 405
f 420 415 37
f 420 37 38
f 420 38 39
f 421 416 407
f 421 204 203
f 421 205 204
f 421 407 412
f 421 203 416
f 422 417 413
f 423 418 409
f 423 409 414
f 424 419 410
f 424 410 415
f 425 420 39
f 425 39 40
f 425 40 41
f 426 412 417
f 426 421 412
f 426 206 205
f 426 207 206
f 426 205 421
f 426 417 422
f 427 422 413
f 427 413 418
f 428 423 414
f 428 414 419
f 428 419 424
f 429 424 415
f 429 415 420
f 430 425 41
f 430 41 42
f 430 42 43
f 431 207 426
f 431 208 207
f 431 209 208
f 431 426 422
f 431 422 427
f 432 423 428
f 432 427 418
f 432 418 423
f 433 428 424
f 434 429 420
f 434 420 425
f 435 430 43
f 435 45 341
f 435 43 44
f 435 44 45
f 435 341 342
f 436 210 209
f 436 211 210
f 436 431 427
f 436 209 431
f 437 432 428
f 438 424 429
f 438 433 424
f 439 434 425
f 439 425 430
f 440 212 211
f 440 213 212
f 440 211 436
f 440 427 432
f 440 436 427
f 440 432 437
f 441 428 433
f 441 437 428
f 442 434 439
f 442 438 429
f 442 429 434
f 443 435 342
f 443 430 435
f 443 439 430
f 444 214 213
f 444 215 214
f 444 213 440
f 444 440 437
f 445 441 433
f 445 433 438
f 446 442 439
f 447 216 215
f 447 217 216
f 447 215 444
f 447 437 441
f 447 444 437
f 448 438 442
f 448 445 438
f 449 443 342
f 449 439 443
f 449 446 439
f 449 342 343
f 450 218 217
f 450 219 218
f 450 441 445
f 450 447 441
f 450 217 447
f 451 448 442
f 451 442 446
f 452 220 219
f 452 221 220
f 452 448 451
f 452 450 445
f 452 219 450
f 452 445 448
f 453 449 343
f 453 451 446
f 453 446 449
f 453 343 344
f 454 452 451
f 454 222 221
f 454 223 222
f 454 221 452
f 455 344 345
f 455 345 225
f 455 453 344
f 455 454 451
f 455 451 453
f 455 223 454
f 455 224 223
f 455 225 224
f 90 136 46
f 90 180 136
f 89 180 90
f 89 179 180
f 88 179 89
f 88 178 179
f 87 178 88
f 87 176 177
f 87 177 178
f 86 176 87
f 85 176 86
f 85 174 175
f 85 175 176
f 84 174 85
f 83 174 84
f 83 173 174
f 82 173 83
f 82 171 172
f 82 172 173
f 81 171 82
f 80 171 81
f 80 170 171
f 79 170 80
f 79 169 170
f 78 169 79
f 78 168 169
f 77 168 78
f 77 167 168
f 76 167 77
f 76 166 167
f 75 166 76
f 75 165 166
f 74 165 75
f 74 164 165
f 73 164 74
f 73 163 164
f 72 162 163
f 72 163 73
f 71 160 161
f 71 161 162
f 71 162 72
f 70 160 71
f 69 159 160
f 69 160 70
f 68 158 159
f 68 159 69
f 67 157 158
f 67 158 68
f 66 156 157
f 66 157 67
f 65 156 66
f 65 155 156
f 64 155 65
f 64 154 155
f 63 154 64
f 63 152 153
f 63 153 154
f 62 152 63
f 61 152 62
f 61 150 151
f 61 151 152
f 60 150 61
f 59 150 60
f 59 149 150
f 58 149 59
f 58 148 149
f 57 148 58
f 57 147 148
f 56 147 57
f 56 146 147
f 55 146 56
f 55 145 146
f 54 145 55
f 54 144 145
f 53 144 54
f 53 142 143
f 53 143 144
f 52 142 53
f 52 141 142
f 51 141 52
f 50 141 51
f 50 140 141
f 49 139 140
f 49 140 50
f 48 138 139
f 48 139 49
f 47 136 137
f 47 137 138
f 47 138 48
f 46 136 47

