# https://github.com/mikedh/trimesh

o p00029.obj
v 19.55417992 3.02515034 -9.62500000
v 19.12825373 3.06587807 -9.62500000
v 18.70080441 3.04693197 -9.62500000
v 18.28015178 2.96868080 -9.62500000
v 17.87448338 2.83264764 -9.62500000
v 17.49169507 2.64148022 -9.62500000
v 17.13923740 2.39889938 -9.62500000
v 16.82397054 2.10962670 -9.62500000
v 16.55203082 1.77929254 -9.62500000
v 16.32871122 1.41432647 -9.62500000
v 16.15835841 1.02183214 -9.62500000
v 16.04428812 0.60944902 -9.62500000
v 15.98872060 0.18520366 -9.62500000
v 15.99273739 -0.24264648 -9.62500000
v 16.05626032 -0.66577378 -9.62500000
v 16.17805299 -1.07594255 -9.62500000
v 16.35574484 -1.46516932 -9.62500000
v 16.58587731 -1.82587824 -9.62500000
v 16.86397112 -2.15104851 -9.62500000
v 17.18461349 -2.43435108 -9.62500000
v 17.54156349 -2.67027176 -9.62500000
v 17.92787349 -2.85421865 -9.62500000
v 18.33602441 -2.98261141 -9.62500000
v 18.75807205 -3.05295104 -9.62500000
v 19.18580174 -3.06386845 -9.62500000
v 19.61088820 -3.01515114 -9.62500000
v 20.02505761 -2.90774735 -9.62500000
v 20.42024863 -2.74374756 -9.62500000
v 20.78876932 -2.52634385 -9.62500000
v 21.12344684 -2.25976772 -9.62500000
v 21.41776708 -1.94920779 -9.62500000
v 21.66600143 -1.60070875 -9.62500000
v 21.86331828 -1.22105373 -9.62500000
v 22.00587710 -0.81763229 -9.62500000
v 22.09090313 -0.39829657 -9.62500000
v 22.11674144 0.02879155 -9.62500000
v 22.08288911 0.45531926 -9.62500000
v 21.99000505 0.87298471 -9.62500000
v 21.83989713 1.27365850 -9.62500000
v 21.63548704 1.64954198 -9.62500000
v 21.38075339 1.99331900 -9.62500000
v 21.08065427 2.29829833 -9.62500000
v 20.74103077 2.55854390 -9.62500000
v 20.36849329 2.76899033 -9.62500000
v 19.97029283 2.92554150 -9.62500000
v 19.39523001 2.07142855 -9.62500000
v 19.10358312 2.09931628 -9.62500000
v 18.81089330 2.08634321 -9.62500000
v 18.52285741 2.03276184 -9.62500000
v 18.24508176 1.93961507 -9.62500000
v 17.98297293 1.80871590 -9.62500000
v 17.74163256 1.64261214 -9.62500000
v 17.52575808 1.44453680 -9.62500000
v 17.33955123 1.21834519 -9.62500000
v 17.18663632 0.96843988 -9.62500000
v 17.06998967 0.69968499 -9.62500000
v 16.99188166 0.41731152 -9.62500000
v 16.95383259 0.12681556 -9.62500000
v 16.95658303 -0.16614872 -9.62500000
v 17.00007945 -0.45587910 -9.62500000
v 17.08347525 -0.73673631 -9.62500000
v 17.20514721 -1.00325380 -9.62500000
v 17.36272713 -1.25024408 -9.62500000
v 17.55314790 -1.47289979 -9.62500000
v 17.77270319 -1.66688718 -9.62500000
v 18.01711962 -1.82843050 -9.62500000
v 18.28163988 -1.95438551 -9.62500000
v 18.56111540 -2.04230063 -9.62500000
v 18.85010650 -2.09046468 -9.62500000
v 19.14298830 -2.09794022 -9.62500000
v 19.43406019 -2.06458174 -9.62500000
v 19.71765679 -1.99103853 -9.62500000
v 19.98825821 -1.87874201 -9.62500000
v 20.24059749 -1.72987792 -9.62500000
v 20.46976315 -1.54734372 -9.62500000
v 20.67129474 -1.33469224 -9.62500000
v 20.84126967 -1.09606249 -9.62500000
v 20.97637957 -0.83609913 -9.62500000
v 21.07399469 -0.55986205 -9.62500000
v 21.13221505 -0.27272789 -9.62500000
v 21.14990746 0.01971460 -9.62500000
v 21.12672756 0.31177337 -9.62500000
v 21.06312652 0.59776383 -9.62500000
v 20.96034227 0.87211949 -9.62500000
v 20.82037538 1.12950034 -9.62500000
v 20.64595014 1.36489676 -9.62500000
v 20.44046155 1.57372700 -9.62500000
v 20.20790920 1.75192645 -9.62500000
v 19.95281948 1.89602663 -9.62500000
v 19.68015739 2.00322282 -9.62500000
v 19.55417992 3.02515034 9.42500000
v 19.12825373 3.06587807 9.42500000
v 18.70080441 3.04693197 9.42500000
v 18.28015178 2.96868080 9.42500000
v 17.87448338 2.83264764 9.42500000
v 17.49169507 2.64148022 9.42500000
v 17.13923740 2.39889938 9.42500000
v 16.82397054 2.10962670 9.42500000
v 16.55203082 1.77929254 9.42500000
v 16.32871122 1.41432647 9.42500000
v 16.15835841 1.02183214 9.42500000
v 16.04428812 0.60944902 9.42500000
v 15.98872060 0.18520366 9.42500000
v 15.99273739 -0.24264648 9.42500000
v 16.05626032 -0.66577378 9.42500000
v 16.17805299 -1.07594255 9.42500000
v 16.35574484 -1.46516932 9.42500000
v 16.58587731 -1.82587824 9.42500000
v 16.86397112 -2.15104851 9.42500000
v 17.18461349 -2.43435108 9.42500000
v 17.54156349 -2.67027176 9.42500000
v 17.92787349 -2.85421865 9.42500000
v 18.33602441 -2.98261141 9.42500000
v 18.75807205 -3.05295104 9.42500000
v 19.18580174 -3.06386845 9.42500000
v 19.61088820 -3.01515114 9.42500000
v 20.02505761 -2.90774735 9.42500000
v 20.42024863 -2.74374756 9.42500000
v 20.78876932 -2.52634385 9.42500000
v 21.12344684 -2.25976772 9.42500000
v 21.41776708 -1.94920779 9.42500000
v 21.66600143 -1.60070875 9.42500000
v 21.86331828 -1.22105373 9.42500000
v 22.00587710 -0.81763229 9.42500000
v 22.09090313 -0.39829657 9.42500000
v 22.11674144 0.02879155 9.42500000
v 22.08288911 0.45531926 9.42500000
v 21.99000505 0.87298471 9.42500000
v 21.83989713 1.27365850 9.42500000
v 21.63548704 1.64954198 9.42500000
v 21.38075339 1.99331900 9.42500000
v 21.08065427 2.29829833 9.42500000
v 20.74103077 2.55854390 9.42500000
v 20.36849329 2.76899033 9.42500000
v 19.97029283 2.92554150 9.42500000
v 19.39523001 2.07142855 9.42500000
v 19.10358312 2.09931628 9.42500000
v 18.81089330 2.08634321 9.42500000
v 18.52285741 2.03276184 9.42500000
v 18.24508176 1.93961507 9.42500000
v 17.98297293 1.80871590 9.42500000
v 17.74163256 1.64261214 9.42500000
v 17.52575808 1.44453680 9.42500000
v 17.33955123 1.21834519 9.42500000
v 17.18663632 0.96843988 9.42500000
v 17.06998967 0.69968499 9.42500000
v 16.99188166 0.41731152 9.42500000
v 16.95383259 0.12681556 9.42500000
v 16.95658303 -0.16614872 9.42500000
v 17.00007945 -0.45587910 9.42500000
v 17.08347525 -0.73673631 9.42500000
v 17.20514721 -1.00325380 9.42500000
v 17.36272713 -1.25024408 9.42500000
v 17.55314790 -1.47289979 9.42500000
v 17.77270319 -1.66688718 9.42500000
v 18.01711962 -1.82843050 9.42500000
v 18.28163988 -1.95438551 9.42500000
v 18.56111540 -2.04230063 9.42500000
v 18.85010650 -2.09046468 9.42500000
v 19.14298830 -2.09794022 9.42500000
v 19.43406019 -2.06458174 9.42500000
v 19.71765679 -1.99103853 9.42500000
v 19.98825821 -1.87874201 9.42500000
v 20.24059749 -1.72987792 9.42500000
v 20.46976315 -1.54734372 9.42500000
v 20.67129474 -1.33469224 9.42500000
v 20.84126967 -1.09606249 9.42500000
v 20.97637957 -0.83609913 9.42500000
v 21.07399469 -0.55986205 9.42500000
v 21.13221505 -0.27272789 9.42500000
v 21.14990746 0.01971460 9.42500000
v 21.12672756 0.31177337 9.42500000
v 21.06312652 0.59776383 9.42500000
v 20.96034227 0.87211949 9.42500000
v 20.82037538 1.12950034 9.42500000
v 20.64595014 1.36489676 9.42500000
v 20.44046155 1.57372700 9.42500000
v 20.20790920 1.75192645 9.42500000
v 19.95281948 1.89602663 9.42500000
v 19.68015739 2.00322282 9.42500000
v 19.56784502 3.10714283 -0.10000000
v 19.13037468 3.14897442 -0.10000000
v 18.69133995 3.12951481 -0.10000000
v 18.25928612 3.04914276 -0.10000000
v 17.84262264 2.90942261 -0.10000000
v 17.44945939 2.71307386 -0.10000000
v 17.08744884 2.46391821 -0.10000000
v 16.76363711 2.16680519 -0.10000000
v 16.48432684 1.82751778 -0.10000000
v 16.25495448 1.45265982 -0.10000000
v 16.07998450 1.04952748 -0.10000000
v 15.96282249 0.62596728 -0.10000000
v 15.90574888 0.19022334 -0.10000000
v 15.90987455 -0.24922307 -0.10000000
v 15.97511918 -0.68381865 -0.10000000
v 16.10021287 -1.10510447 -0.10000000
v 16.28272081 -1.50488069 -0.10000000
v 16.51909070 -1.87536612 -0.10000000
v 16.80472185 -2.20934969 -0.10000000
v 17.13405479 -2.50033077 -0.10000000
v 17.50067942 -2.74264576 -0.10000000
v 17.89745982 -2.93157827 -0.10000000
v 18.31667310 -3.06345094 -0.10000000
v 18.75015975 -3.13569702 -0.10000000
v 19.18948246 -3.14691033 -0.10000000
v 19.62609029 -3.09687261 -0.10000000
v 20.05148519 -2.98655779 -0.10000000
v 20.45738731 -2.81811301 -0.10000000
v 20.83589624 -2.59481688 -0.10000000
v 21.17964473 -2.32101558 -0.10000000
v 21.48194211 -2.00203835 -0.10000000
v 21.73690450 -1.64409373 -0.10000000
v 21.93956936 -1.25414869 -0.10000000
v 22.08599203 -0.83979307 -0.10000000
v 22.17332257 -0.40909184 -0.10000000
v 22.19986119 0.02957190 -0.10000000
v 22.16509134 0.46766006 -0.10000000
v 22.06968979 0.89664574 -0.10000000
v 21.91551340 1.30817924 -0.10000000
v 21.70556306 1.69425052 -0.10000000
v 21.44392521 2.04734513 -0.10000000
v 21.13569232 2.36059051 -0.10000000
v 20.78686381 2.62788967 -0.10000000
v 20.40422921 2.84403995 -0.10000000
v 19.99523609 3.00483423 -0.10000000
v 19.55645744 3.03881576 7.83750000
v 19.55873496 3.05248117 6.25000000
v 19.56101247 3.06614658 4.66250000
v 19.56328999 3.07981200 3.07500000
v 19.56556750 3.09347741 1.48750000
v 20.35753930 2.78948764 7.83750000
v 21.06164696 2.33327599 7.83750000
v 20.36341925 2.80203184 6.25000000
v 21.61655996 1.70401593 7.83750000
v 21.07069324 2.34376863 6.25000000
v 21.98112295 0.94837681 7.83750000
v 20.36929919 2.81457604 4.66250000
v 21.62810166 1.71167882 6.25000000
v 22.12829796 0.12240092 7.83750000
v 21.07973952 2.35426126 4.66250000
v 21.99430408 0.95264162 6.25000000
v 22.04716970 -0.71265289 7.83750000
v 20.37517913 2.82712023 3.07500000
v 21.63964336 1.71934170 4.66250000
v 22.14214093 0.12295135 6.25000000
v 21.74375506 -1.49485250 7.83750000
v 21.08878581 2.36475389 3.07500000
v 22.00748520 0.95690642 4.66250000
v 22.06064783 -0.71585766 6.25000000
v 21.24055694 -2.16618573 7.83750000
v 20.38105908 2.83966443 1.48750000
v 21.65118506 1.72700458 3.07500000
v 22.15598389 0.12350178 4.66250000
v 21.75586876 -1.50157478 6.25000000
v 20.57489523 -2.67686288 7.83750000
v 21.09783209 2.37524653 1.48750000
v 22.02066632 0.96117123 3.07500000
v 22.07412596 -0.71906243 4.66250000
v 21.25040778 -2.17592697 6.25000000
v 19.79613902 -2.98900935 7.83750000
v 21.66272677 1.73466746 1.48750000
v 22.16982685 0.12405221 3.07500000
v 21.76798245 -1.50829706 4.66250000
v 20.58175262 -2.68890060 6.25000000
v 18.96204509 -3.07947467 7.83750000
v 22.03384745 0.96543604 1.48750000
v 22.08760410 -0.72226719 3.07500000
v 21.26025861 -2.18566820 4.66250000
v 19.79949437 -3.00245079 6.25000000
v 18.13447437 -2.94154945 7.83750000
v 22.18366982 0.12460264 1.48750000
v 21.78009614 -1.51501934 3.07500000
v 20.58861000 -2.70093833 4.66250000
v 18.96164956 -3.09332293 6.25000000
v 17.37480400 -2.58546296 7.83750000
v 22.10108223 -0.72547196 1.48750000
v 21.27010944 -2.19540944 3.07500000
v 19.80284973 -3.01589222 4.66250000
v 18.13035730 -2.95477746 6.25000000
v 16.73937526 -2.03762451 7.83750000
v 21.79220983 -1.52174163 1.48750000
v 20.59546738 -2.71297606 3.07500000
v 18.96125403 -3.10717118 4.66250000
v 17.36727072 -2.59708967 6.25000000
v 16.27531498 -1.33866477 7.83750000
v 21.27996028 -2.20515068 1.48750000
v 19.80620508 -3.02933366 3.07500000
v 18.12624022 -2.96800547 4.66250000
v 16.72898448 -2.04678761 6.25000000
v 16.01704039 -0.54042239 7.83750000
v 20.60232477 -2.72501379 1.48750000
v 18.96085850 -3.12101944 3.07500000
v 17.35973745 -2.60871637 4.66250000
v 16.26283735 -1.34468468 6.25000000
v 15.98370655 0.29790065 7.83750000
v 19.80956043 -3.04277510 1.48750000
v 18.12212314 -2.98123348 3.07500000
v 16.71859371 -2.05595071 4.66250000
v 16.00340131 -0.54285264 6.25000000
v 16.17778566 1.11412976 7.83750000
v 18.96046297 -3.13486770 1.48750000
v 17.35220417 -2.62034308 3.07500000
v 16.25035972 -1.35070460 4.66250000
v 15.96991757 0.29924029 6.25000000
v 16.58488377 1.84772896 7.83750000
v 18.11800607 -2.99446150 1.48750000
v 16.70820294 -2.06511382 3.07500000
v 15.98976223 -0.54528290 4.66250000
v 16.16486944 1.11913995 6.25000000
v 17.17480827 2.44429056 7.83750000
v 17.34467089 -2.63196979 1.48750000
v 16.23788209 -1.35672451 3.07500000
v 15.95612859 0.30057994 4.66250000
v 16.57379826 1.85603811 6.25000000
v 17.90380717 2.85957031 7.83750000
v 16.69781217 -2.07427692 1.48750000
v 15.97612316 -0.54771315 3.07500000
v 16.15195323 1.12415014 4.66250000
v 17.16637562 2.45528242 6.25000000
v 18.71781394 3.06276881 7.83750000
v 16.22540446 -1.36274442 1.48750000
v 15.94233961 0.30191959 3.07500000
v 16.56271274 1.86434726 4.66250000
v 17.89865279 2.87242966 6.25000000
v 15.96248408 -0.55014341 1.48750000
v 16.13903701 1.12916033 3.07500000
v 17.15794297 2.46627428 4.66250000
v 18.71632012 3.07654194 6.25000000
v 15.92855063 0.30325923 1.48750000
v 16.55162723 1.87265641 3.07500000
v 17.89349842 2.88528902 4.66250000
v 16.12612080 1.13417052 1.48750000
v 17.14951032 2.47726614 3.07500000
v 18.71482629 3.09031507 4.66250000
v 16.54054172 1.88096557 1.48750000
v 17.88834404 2.89814837 3.07500000
v 17.14107767 2.48825800 1.48750000
v 18.71333247 3.10408820 3.07500000
v 17.88318967 2.91100773 1.48750000
v 18.71183864 3.11786132 1.48750000
v 19.55645744 3.03881576 -8.03750000
v 19.55873496 3.05248117 -6.45000000
v 19.56101247 3.06614658 -4.86250000
v 19.56328999 3.07981200 -3.27500000
v 19.56556750 3.09347741 -1.68750000
v 18.71781394 3.06276881 -8.03750000
v 17.90380717 2.85957031 -8.03750000
v 18.71632012 3.07654194 -6.45000000
v 17.17480827 2.44429056 -8.03750000
v 17.89865279 2.87242966 -6.45000000
v 16.58488377 1.84772896 -8.03750000
v 18.71482629 3.09031507 -4.86250000
v 17.16637562 2.45528242 -6.45000000
v 16.17778566 1.11412976 -8.03750000
v 17.89349842 2.88528902 -4.86250000
v 16.57379826 1.85603811 -6.45000000
v 15.98370655 0.29790065 -8.03750000
v 18.71333247 3.10408820 -3.27500000
v 17.15794297 2.46627428 -4.86250000
v 16.16486944 1.11913995 -6.45000000
v 16.01704039 -0.54042239 -8.03750000
v 17.88834404 2.89814837 -3.27500000
v 16.56271274 1.86434726 -4.86250000
v 15.96991757 0.29924029 -6.45000000
v 16.27531498 -1.33866477 -8.03750000
v 18.71183864 3.11786132 -1.68750000
v 17.14951032 2.47726614 -3.27500000
v 16.15195323 1.12415014 -4.86250000
v 16.00340131 -0.54285264 -6.45000000
v 16.73937526 -2.03762451 -8.03750000
v 17.88318967 2.91100773 -1.68750000
v 16.55162723 1.87265641 -3.27500000
v 15.95612859 0.30057994 -4.86250000
v 16.26283735 -1.34468468 -6.45000000
v 17.37480400 -2.58546296 -8.03750000
v 17.14107767 2.48825800 -1.68750000
v 16.13903701 1.12916033 -3.27500000
v 15.98976223 -0.54528290 -4.86250000
v 16.72898448 -2.04678761 -6.45000000
v 18.13447437 -2.94154945 -8.03750000
v 16.54054172 1.88096557 -1.68750000
v 15.94233961 0.30191959 -3.27500000
v 16.25035972 -1.35070460 -4.86250000
v 17.36727072 -2.59708967 -6.45000000
v 18.96204509 -3.07947467 -8.03750000
v 16.12612080 1.13417052 -1.68750000
v 15.97612316 -0.54771315 -3.27500000
v 16.71859371 -2.05595071 -4.86250000
v 18.13035730 -2.95477746 -6.45000000
v 19.79613902 -2.98900935 -8.03750000
v 15.92855063 0.30325923 -1.68750000
v 16.23788209 -1.35672451 -3.27500000
v 17.35973745 -2.60871637 -4.86250000
v 18.96164956 -3.09332293 -6.45000000
v 20.57489523 -2.67686288 -8.03750000
v 15.96248408 -0.55014341 -1.68750000
v 16.70820294 -2.06511382 -3.27500000
v 18.12624022 -2.96800547 -4.86250000
v 19.79949437 -3.00245079 -6.45000000
v 21.24055694 -2.16618573 -8.03750000
v 16.22540446 -1.36274442 -1.68750000
v 17.35220417 -2.62034308 -3.27500000
v 18.96125403 -3.10717118 -4.86250000
v 20.58175262 -2.68890060 -6.45000000
v 21.74375506 -1.49485250 -8.03750000
v 16.69781217 -2.07427692 -1.68750000
v 18.12212314 -2.98123348 -3.27500000
v 19.80284973 -3.01589222 -4.86250000
v 21.25040778 -2.17592697 -6.45000000
v 22.04716970 -0.71265289 -8.03750000
v 17.34467089 -2.63196979 -1.68750000
v 18.96085850 -3.12101944 -3.27500000
v 20.58861000 -2.70093833 -4.86250000
v 21.75586876 -1.50157478 -6.45000000
v 22.12829796 0.12240092 -8.03750000
v 18.11800607 -2.99446150 -1.68750000
v 19.80620508 -3.02933366 -3.27500000
v 21.26025861 -2.18566820 -4.86250000
v 22.06064783 -0.71585766 -6.45000000
v 21.98112295 0.94837681 -8.03750000
v 18.96046297 -3.13486770 -1.68750000
v 20.59546738 -2.71297606 -3.27500000
v 21.76798245 -1.50829706 -4.86250000
v 22.14214093 0.12295135 -6.45000000
v 21.61655996 1.70401593 -8.03750000
v 19.80956043 -3.04277510 -1.68750000
v 21.27010944 -2.19540944 -3.27500000
v 22.07412596 -0.71906243 -4.86250000
v 21.99430408 0.95264162 -6.45000000
v 21.06164696 2.33327599 -8.03750000
v 20.60232477 -2.72501379 -1.68750000
v 21.78009614 -1.51501934 -3.27500000
v 22.15598389 0.12350178 -4.86250000
v 21.62810166 1.71167882 -6.45000000
v 20.35753930 2.78948764 -8.03750000
v 21.27996028 -2.20515068 -1.68750000
v 22.08760410 -0.72226719 -3.27500000
v 22.00748520 0.95690642 -4.86250000
v 21.07069324 2.34376863 -6.45000000
v 21.79220983 -1.52174163 -1.68750000
v 22.16982685 0.12405221 -3.27500000
v 21.63964336 1.71934170 -4.86250000
v 20.36341925 2.80203184 -6.45000000
v 22.10108223 -0.72547196 -1.68750000
v 22.02066632 0.96117123 -3.27500000
v 21.07973952 2.35426126 -4.86250000
v 22.18366982 0.12460264 -1.68750000
v 21.65118506 1.72700458 -3.27500000
v 20.36929919 2.81457604 -4.86250000
v 22.03384745 0.96543604 -1.68750000
v 21.08878581 2.36475389 -3.27500000
v 21.66272677 1.73466746 -1.68750000
v 20.37517913 2.82712023 -3.27500000
v 21.09783209 2.37524653 -1.68750000
v 20.38105908 2.83966443 -1.68750000
f 75 30 29
f 75 29 74
f 73 29 28
f 73 74 29
f 76 30 75
f 76 31 30
f 72 73 28
f 72 28 27
f 77 31 76
f 77 32 31
f 71 72 27
f 71 27 26
f 78 32 77
f 78 33 32
f 78 34 33
f 70 71 26
f 70 26 25
f 79 34 78
f 69 24 23
f 69 25 24
f 69 70 25
f 80 35 34
f 80 34 79
f 68 69 23
f 81 35 80
f 81 36 35
f 67 23 22
f 67 68 23
f 82 37 36
f 82 36 81
f 66 22 21
f 66 67 22
f 83 38 37
f 83 37 82
f 65 21 20
f 65 66 21
f 84 39 38
f 84 38 83
f 64 65 20
f 64 20 19
f 40 39 84
f 85 40 84
f 63 19 18
f 63 64 19
f 41 40 85
f 41 85 86
f 17 62 63
f 17 63 18
f 42 86 87
f 42 41 86
f 88 42 87
f 16 61 62
f 16 62 17
f 43 42 88
f 15 61 16
f 15 59 60
f 15 60 61
f 44 43 88
f 44 88 89
f 14 59 15
f 45 44 89
f 45 89 90
f 13 59 14
f 13 58 59
f 1 45 90
f 1 46 47
f 1 90 46
f 12 58 13
f 12 57 58
f 2 1 47
f 11 57 12
f 11 55 56
f 11 56 57
f 3 2 47
f 3 47 48
f 10 55 11
f 4 48 49
f 4 3 48
f 9 54 55
f 9 55 10
f 5 4 49
f 5 49 50
f 8 53 54
f 8 54 9
f 6 5 50
f 6 50 51
f 6 51 52
f 7 53 8
f 7 52 53
f 7 6 52
f 165 119 120
f 165 164 119
f 163 118 119
f 163 119 164
f 166 165 120
f 166 120 121
f 162 118 163
f 162 117 118
f 167 166 121
f 167 121 122
f 161 117 162
f 161 116 117
f 168 167 122
f 168 122 123
f 168 123 124
f 160 116 161
f 160 115 116
f 169 168 124
f 159 113 114
f 159 114 115
f 159 115 160
f 170 124 125
f 170 169 124
f 158 113 159
f 171 170 125
f 171 125 126
f 157 112 113
f 157 113 158
f 172 126 127
f 172 171 126
f 156 111 112
f 156 112 157
f 173 127 128
f 173 172 127
f 155 110 111
f 155 111 156
f 174 128 129
f 174 173 128
f 154 110 155
f 154 109 110
f 130 174 129
f 175 174 130
f 153 108 109
f 153 109 154
f 131 175 130
f 131 176 175
f 107 153 152
f 107 108 153
f 132 177 176
f 132 176 131
f 178 177 132
f 106 152 151
f 106 107 152
f 133 178 132
f 105 106 151
f 105 150 149
f 105 151 150
f 134 178 133
f 134 179 178
f 104 105 149
f 135 179 134
f 135 180 179
f 103 104 149
f 103 149 148
f 91 180 135
f 91 137 136
f 91 136 180
f 102 103 148
f 102 148 147
f 92 137 91
f 101 102 147
f 101 146 145
f 101 147 146
f 93 137 92
f 93 138 137
f 100 101 145
f 94 139 138
f 94 138 93
f 99 145 144
f 99 100 145
f 95 139 94
f 95 140 139
f 98 144 143
f 98 99 144
f 96 140 95
f 96 141 140
f 96 142 141
f 97 98 143
f 97 143 142
f 97 142 96
f 226 91 135
f 225 181 230
f 226 92 91
f 181 182 230
f 231 226 135
f 231 134 133
f 231 135 134
f 232 231 133
f 232 132 131
f 232 133 132
f 233 226 231
f 233 227 226
f 234 232 131
f 234 130 129
f 234 131 130
f 235 233 231
f 235 231 232
f 236 234 129
f 236 128 127
f 236 129 128
f 237 227 233
f 237 228 227
f 238 232 234
f 238 235 232
f 239 236 127
f 239 126 125
f 239 127 126
f 240 233 235
f 240 237 233
f 241 238 234
f 241 234 236
f 242 239 125
f 242 124 123
f 242 125 124
f 243 237 240
f 243 228 237
f 243 229 228
f 243 230 229
f 244 235 238
f 244 240 235
f 245 236 239
f 245 241 236
f 246 242 123
f 246 122 121
f 246 123 122
f 247 243 240
f 248 244 238
f 248 238 241
f 249 245 239
f 249 239 242
f 250 246 121
f 250 120 119
f 250 121 120
f 251 223 224
f 251 224 225
f 251 225 230
f 251 243 247
f 251 230 243
f 252 247 240
f 252 240 244
f 252 244 248
f 253 241 245
f 253 248 241
f 254 242 246
f 254 249 242
f 254 246 250
f 255 250 119
f 255 118 117
f 255 119 118
f 256 251 247
f 256 221 222
f 256 222 223
f 256 223 251
f 257 252 248
f 258 245 249
f 258 253 245
f 259 254 250
f 260 255 117
f 260 116 115
f 260 117 116
f 261 247 252
f 261 221 256
f 261 219 220
f 261 220 221
f 261 256 247
f 262 248 253
f 262 257 248
f 262 253 258
f 263 258 249
f 263 249 254
f 264 259 250
f 264 250 255
f 265 115 114
f 265 260 115
f 266 252 257
f 266 217 218
f 266 218 219
f 266 261 252
f 266 219 261
f 267 262 258
f 268 254 259
f 268 259 264
f 268 263 254
f 269 264 255
f 269 255 260
f 269 260 265
f 270 113 112
f 270 114 113
f 270 265 114
f 271 257 262
f 271 215 216
f 271 216 217
f 271 266 257
f 271 217 266
f 272 258 263
f 272 267 258
f 273 264 269
f 273 268 264
f 274 269 265
f 274 265 270
f 275 270 112
f 275 111 110
f 275 112 111
f 276 271 262
f 276 262 267
f 276 213 214
f 276 214 215
f 276 215 271
f 277 263 268
f 277 268 273
f 277 272 263
f 278 273 269
f 279 274 270
f 280 275 110
f 280 109 108
f 280 110 109
f 281 267 272
f 281 276 267
f 281 211 212
f 281 212 213
f 281 213 276
f 282 277 273
f 283 278 269
f 283 269 274
f 284 270 275
f 284 279 270
f 285 280 108
f 285 107 106
f 285 108 107
f 286 209 210
f 286 210 211
f 286 281 272
f 286 272 277
f 286 277 282
f 286 211 281
f 287 273 278
f 287 282 273
f 288 279 284
f 288 283 274
f 288 274 279
f 289 284 275
f 289 275 280
f 289 280 285
f 290 285 106
f 290 105 104
f 290 106 105
f 291 207 208
f 291 208 209
f 291 209 286
f 291 286 282
f 291 282 287
f 292 278 283
f 292 287 278
f 293 284 289
f 293 288 284
f 294 285 290
f 294 289 285
f 295 290 104
f 295 103 102
f 295 104 103
f 296 205 206
f 296 207 291
f 296 206 207
f 296 291 287
f 297 283 288
f 297 292 283
f 298 293 289
f 299 294 290
f 300 295 102
f 300 101 100
f 300 102 101
f 301 203 204
f 301 204 205
f 301 205 296
f 301 287 292
f 301 296 287
f 302 288 293
f 302 297 288
f 303 289 294
f 303 298 289
f 304 299 290
f 304 290 295
f 305 300 100
f 305 99 98
f 305 100 99
f 306 301 292
f 306 202 203
f 306 203 301
f 306 297 302
f 306 292 297
f 307 302 293
f 307 293 298
f 308 299 304
f 308 303 294
f 308 294 299
f 309 304 295
f 309 295 300
f 310 305 98
f 310 97 96
f 310 98 97
f 311 302 307
f 311 202 306
f 311 200 201
f 311 201 202
f 311 306 302
f 312 298 303
f 312 307 298
f 313 308 304
f 314 305 310
f 314 309 300
f 314 300 305
f 315 310 96
f 315 95 94
f 315 96 95
f 316 198 199
f 316 199 200
f 316 200 311
f 316 311 307
f 317 312 303
f 317 303 308
f 318 313 304
f 318 304 309
f 319 314 310
f 320 92 226
f 320 315 94
f 320 93 92
f 320 94 93
f 321 198 316
f 321 196 197
f 321 197 198
f 321 307 312
f 321 316 307
f 322 308 313
f 322 317 308
f 323 309 314
f 323 318 309
f 324 310 315
f 324 319 310
f 325 196 321
f 325 194 195
f 325 195 196
f 325 312 317
f 325 321 312
f 325 317 322
f 326 313 318
f 326 322 313
f 327 319 324
f 327 314 319
f 327 323 314
f 328 315 320
f 328 324 315
f 328 320 226
f 328 226 227
f 329 192 193
f 329 193 194
f 329 194 325
f 329 325 322
f 329 322 326
f 330 318 323
f 330 326 318
f 331 327 324
f 332 190 191
f 332 191 192
f 332 192 329
f 332 329 326
f 333 330 323
f 333 323 327
f 334 324 328
f 334 331 324
f 334 328 227
f 334 227 228
f 335 332 326
f 335 188 189
f 335 189 190
f 335 190 332
f 335 326 330
f 335 330 333
f 336 333 327
f 336 327 331
f 336 331 334
f 337 186 187
f 337 187 188
f 337 335 333
f 337 188 335
f 338 229 230
f 338 336 334
f 338 334 228
f 338 228 229
f 339 184 185
f 339 185 186
f 339 337 333
f 339 186 337
f 339 333 336
f 340 182 183
f 340 183 184
f 340 230 182
f 340 336 338
f 340 184 339
f 340 339 336
f 340 338 230
f 341 1 2
f 182 181 345
f 341 45 1
f 181 225 345
f 346 341 2
f 346 2 3
f 346 3 4
f 347 4 5
f 347 5 6
f 347 346 4
f 348 342 341
f 348 341 346
f 349 347 6
f 349 6 7
f 349 7 8
f 350 346 347
f 350 348 346
f 351 349 8
f 351 8 9
f 351 9 10
f 352 343 342
f 352 342 348
f 353 347 349
f 353 350 347
f 354 351 10
f 354 10 11
f 354 11 12
f 355 348 350
f 355 352 348
f 356 353 349
f 356 349 351
f 357 12 13
f 357 13 14
f 357 354 12
f 358 344 343
f 358 343 352
f 359 350 353
f 359 355 350
f 360 351 354
f 360 356 351
f 361 357 14
f 361 14 15
f 361 15 16
f 362 352 355
f 362 355 359
f 362 358 352
f 363 353 356
f 363 359 353
f 364 360 354
f 364 357 361
f 364 354 357
f 365 361 16
f 365 16 17
f 365 17 18
f 366 183 182
f 366 184 183
f 366 344 358
f 366 345 344
f 366 182 345
f 367 362 359
f 368 356 360
f 368 363 356
f 369 364 361
f 370 365 18
f 370 18 19
f 370 19 20
f 371 185 184
f 371 186 185
f 371 366 358
f 371 358 362
f 371 184 366
f 371 362 367
f 372 363 368
f 372 359 363
f 372 367 359
f 373 360 364
f 373 368 360
f 374 369 361
f 374 361 365
f 375 20 21
f 375 21 22
f 375 370 20
f 376 187 186
f 376 188 187
f 376 371 367
f 376 186 371
f 377 372 368
f 378 373 364
f 378 369 374
f 378 364 369
f 379 365 370
f 379 374 365
f 380 375 22
f 380 22 23
f 381 372 377
f 381 189 188
f 381 190 189
f 381 188 376
f 381 367 372
f 381 376 367
f 382 377 368
f 382 368 373
f 383 378 374
f 384 379 370
f 384 370 375
f 385 380 23
f 385 23 24
f 385 24 25
f 386 191 190
f 386 192 191
f 386 190 381
f 386 381 377
f 387 382 373
f 387 378 383
f 387 373 378
f 388 374 379
f 388 383 374
f 389 380 385
f 389 375 380
f 389 384 375
f 390 385 25
f 390 25 26
f 390 26 27
f 391 377 382
f 391 193 192
f 391 194 193
f 391 192 386
f 391 386 377
f 392 387 383
f 393 388 379
f 393 379 384
f 394 385 390
f 394 389 385
f 395 390 27
f 395 27 28
f 395 28 29
f 396 391 382
f 396 195 194
f 396 196 195
f 396 194 391
f 396 387 392
f 396 382 387
f 397 392 383
f 397 388 393
f 397 383 388
f 398 384 389
f 398 393 384
f 399 394 390
f 400 395 29
f 400 29 30
f 400 30 31
f 401 197 196
f 401 198 197
f 401 196 396
f 401 396 392
f 402 393 398
f 402 397 393
f 403 398 389
f 403 389 394
f 403 394 399
f 404 390 395
f 404 399 390
f 405 400 31
f 405 31 32
f 405 32 33
f 406 198 401
f 406 199 198
f 406 200 199
f 406 392 397
f 406 401 392
f 407 402 398
f 408 403 399
f 408 399 404
f 409 395 400
f 409 404 395
f 410 405 33
f 410 33 34
f 410 34 35
f 411 201 200
f 411 202 201
f 411 397 402
f 411 406 397
f 411 200 406
f 412 398 403
f 412 407 398
f 413 408 404
f 414 400 405
f 414 409 400
f 415 410 35
f 415 35 36
f 415 36 37
f 416 203 202
f 416 202 411
f 416 402 407
f 416 411 402
f 417 412 403
f 417 403 408
f 418 413 404
f 418 404 409
f 419 414 405
f 419 410 415
f 419 405 410
f 420 415 37
f 420 37 38
f 420 38 39
f 421 416 407
f 421 204 203
f 421 205 204
f 421 412 417
f 421 203 416
f 421 407 412
f 422 417 408
f 422 413 418
f 422 408 413
f 423 414 419
f 423 418 409
f 423 409 414
f 424 419 415
f 424 415 420
f 425 420 39
f 425 39 40
f 425 40 41
f 426 421 417
f 426 206 205
f 426 207 206
f 426 205 421
f 427 422 418
f 428 423 419
f 429 424 420
f 430 425 41
f 430 41 42
f 430 42 43
f 431 417 422
f 431 208 207
f 431 209 208
f 431 426 417
f 431 207 426
f 431 422 427
f 432 427 418
f 432 423 428
f 432 418 423
f 433 428 419
f 433 419 424
f 434 429 420
f 434 420 425
f 435 430 43
f 435 45 341
f 435 43 44
f 435 44 45
f 436 210 209
f 436 211 210
f 436 209 431
f 436 427 432
f 436 431 427
f 437 432 428
f 438 433 424
f 438 424 429
f 439 425 430
f 439 434 425
f 440 211 436
f 440 212 211
f 440 213 212
f 440 436 432
f 441 437 428
f 441 428 433
f 441 433 438
f 442 429 434
f 442 438 429
f 443 430 435
f 443 439 430
f 443 435 341
f 443 341 342
f 444 214 213
f 444 215 214
f 444 213 440
f 444 432 437
f 444 440 432
f 445 441 438
f 446 434 439
f 446 442 434
f 447 216 215
f 447 217 216
f 447 215 444
f 447 437 441
f 447 444 437
f 447 441 445
f 448 438 442
f 448 445 438
f 449 439 443
f 449 446 439
f 449 443 342
f 449 342 343
f 450 218 217
f 450 219 218
f 450 217 447
f 450 447 445
f 451 448 442
f 451 442 446
f 452 445 448
f 452 220 219
f 452 221 220
f 452 219 450
f 452 450 445
f 453 449 343
f 453 451 446
f 453 446 449
f 453 343 344
f 454 221 452
f 454 222 221
f 454 223 222
f 454 452 448
f 454 448 451
f 455 344 345
f 455 223 454
f 455 345 225
f 455 453 344
f 455 454 451
f 455 451 453
f 455 224 223
f 455 225 224
f 46 180 136
f 90 180 46
f 89 180 90
f 89 178 179
f 89 179 180
f 88 178 89
f 87 178 88
f 87 176 177
f 87 177 178
f 86 176 87
f 86 175 176
f 85 175 86
f 85 174 175
f 84 174 85
f 83 174 84
f 83 173 174
f 82 173 83
f 82 172 173
f 81 172 82
f 81 171 172
f 80 171 81
f 80 170 171
f 79 170 80
f 79 169 170
f 78 169 79
f 78 168 169
f 77 168 78
f 77 167 168
f 76 167 77
f 76 165 166
f 76 166 167
f 75 165 76
f 75 164 165
f 74 164 75
f 74 163 164
f 73 163 74
f 72 162 163
f 72 163 73
f 71 161 162
f 71 162 72
f 70 159 160
f 70 160 161
f 70 161 71
f 69 159 70
f 68 158 159
f 68 159 69
f 67 157 158
f 67 158 68
f 66 156 157
f 66 157 67
f 65 156 66
f 65 155 156
f 64 155 65
f 64 154 155
f 63 154 64
f 63 152 153
f 63 153 154
f 62 152 63
f 61 152 62
f 61 150 151
f 61 151 152
f 60 150 61
f 59 150 60
f 59 148 149
f 59 149 150
f 58 148 59
f 58 147 148
f 57 147 58
f 56 147 57
f 56 146 147
f 55 146 56
f 55 145 146
f 54 145 55
f 54 144 145
f 53 144 54
f 53 143 144
f 52 141 142
f 52 142 143
f 52 143 53
f 51 140 141
f 51 141 52
f 50 140 51
f 49 139 140
f 49 140 50
f 48 137 138
f 48 138 139
f 48 139 49
f 47 136 137
f 47 137 48
f 46 136 47

