# https://github.com/mikedh/trimesh
v -23.24575186 4.44824325 12.01978915
v -22.22500000 4.30000000 11.76829684
v -22.18357864 4.30000000 11.73651312
v -22.15179492 4.30000000 11.69509176
v -22.13181483 4.30000000 11.64685557
v -22.12500000 4.30000000 11.59509176
v -22.23107801 4.38029346 11.76149870
v -22.27323619 -4.30000000 11.78827693
v -22.22500000 -4.30000000 11.76829684
v -22.18357864 -4.30000000 11.73651312
v -22.15179492 -4.30000000 11.69509176
v -22.13181483 -4.30000000 11.64685557
v -22.08179872 4.53439156 11.22667571
v -22.13162362 -4.34345293 11.63982744
v -22.19200175 -4.53595468 11.53059009
v -23.24766659 -4.39133928 12.03708621
v 22.18357864 4.30000000 11.73651312
v 22.22500000 4.30000000 11.76829684
v 22.24089984 4.38086005 11.76566627
v 22.06829346 4.51838893 11.26711642
v 22.20566934 -4.52630127 11.57241778
v 22.22500000 -4.30000000 11.76829684
v 22.27323619 -4.30000000 11.78827693
v 23.24517863 4.45041900 12.01567356
v 23.25000000 -4.30000000 12.05000000
v 13.00000000 6.01306210 -8.94748143
v 13.00000000 6.05246922 -8.90925992
v 13.00000000 6.08258380 -8.86335875
v 13.00000000 6.10195370 -8.81199133
v 17.82302011 4.49327589 -8.90145123
v 14.54506665 -6.25272165 -1.50406390
v 13.84348762 5.98401550 -8.96468057
v 13.68567775 -6.07076262 -8.81439140
v 13.00000000 -6.08258380 -8.86335875
v 13.00000000 -6.05246922 -8.90925992
v 13.00000000 -6.01306210 -8.94748143
v 13.76283534 -5.96306253 -8.95652234
v 13.00000000 -5.91432770 -8.99397239
v 15.54926571 -5.53424243 -8.96413164
v -13.00000000 -6.10195370 -8.81199133
v -13.00000000 -6.05246922 -8.90925992
v -13.00000000 -6.01306210 -8.94748143
v -13.00000000 -5.96626269 -8.97618022
v -13.00000000 -5.91432770 -8.99397239
v -13.82414039 5.99405988 -8.94999064
v -13.00000000 6.05246922 -8.90925992
v -13.00000000 6.08258380 -8.86335875
v -13.00000000 6.10195370 -8.81199133
v -16.35870499 -5.17203000 -8.96411965
v -13.76030532 -6.04865325 -8.85391218
v -13.91010481 -5.87837179 -8.99309724
v -19.30511691 1.93364767 -9.24613811
v -28.34149902 6.72891869 15.22344153
v -28.01915448 6.83689458 15.04375129
v -28.08736127 6.81336108 14.97628328
v -28.14656695 6.75659635 14.91878419
v -28.18276537 6.67797076 14.88489627
v -28.19592940 6.58695960 14.87461081
v -28.54457598 1.07787228 14.88379628
v -28.38255203 1.23208903 15.40269308
v -28.37652416 1.32770737 15.05520382
v -28.41142852 1.32770737 15.09897250
v -28.43571830 1.32770737 15.14941075
v -28.44817552 1.32770737 15.20398940
v -28.44817552 1.32770737 15.25997163
v -28.43571830 1.32770737 15.31455028
v -28.41142852 1.32770737 15.36498853
v -28.48572751 1.09850736 14.94292192
v -28.43195128 1.14779944 14.99736023
v -28.39199256 1.22391375 15.03834129
v -28.57670755 0.99482457 15.22609622
v -24.86683473 6.74015167 11.89155288
v -25.02984214 6.73704594 11.97703560
v -25.09998846 6.68791638 11.90839033
v -25.12789933 6.64846285 11.88168487
v -25.16265539 6.54930724 11.84995829
v -25.16780515 6.49444201 11.84648481
v -25.16780515 1.28460090 11.84648481
v -25.17238036 1.23036239 11.84263825
v -25.20553338 1.13209812 11.81080533
v -25.23253175 1.09275373 11.78433552
v -25.30100241 1.04292314 11.71653429
v -29.61933018 1.01723088 13.80904208
v -24.47953138 6.70838428 10.83926413
v -24.53509067 6.70206842 10.83751692
v -24.58786774 6.68355557 10.83623952
v -24.63521972 6.65377278 10.83549590
v -24.67477538 6.61421147 10.83532330
v -24.70455392 6.56685272 10.83573035
v -24.72306413 6.51406811 10.83669667
v -24.72937908 6.45850088 10.83817388
v -25.04410704 6.48845182 11.70570643
v -24.93912096 6.48246163 11.55047965
v -24.85400101 6.47647145 11.38345873
v -24.78990131 6.47048126 11.20729795
v -24.74797596 6.46449107 11.02465158
v -24.89874339 6.69405373 11.69971920
v -24.98563776 6.57944476 11.67135720
v -24.68221298 6.67065343 11.13955592
v -24.72937908 1.26310481 10.83817388
v -24.74999910 1.26854435 11.03774147
v -24.79560650 1.27324114 11.22716859
v -24.86319604 1.27719520 11.40460586
v -24.94976249 1.28040651 11.56820390
v -25.05230061 1.28287507 11.71611335
v -24.97969475 1.03428943 11.26410061
v -24.73552974 1.20829665 10.83983234
v -24.75355144 1.15615831 10.84098501
v -24.78256629 1.10922958 10.84157573
v -24.82116091 1.06979646 10.84157573
v -24.86745529 1.03977982 10.84098501
v -24.91919430 1.02064185 10.83983234
v -25.02191120 1.18153238 11.65452347
v -24.86490102 1.09672594 11.30221716
v -24.28875103 6.48654176 3.78327269
v -24.34152811 6.46802891 3.78199529
v -24.38888009 6.43824612 3.78125167
v -24.42843575 6.39868481 3.78107907
v -24.45821428 6.35132607 3.78148612
v -24.47672449 6.29854145 3.78245244
v -24.48303945 6.24297422 3.78392965
v -24.48303945 1.02200326 3.78392965
v -24.72751800 0.77221326 3.78392965
v -24.48919011 0.96719510 3.78558811
v -24.50721180 0.91505676 3.78674078
v -24.53622665 0.86812803 3.78733150
v -24.57482128 0.82869491 3.78733150
v -24.62111565 0.79867827 3.78674078
v -24.67285467 0.77954031 3.78558811
v -26.87112872 0.97991352 11.06046550
v -27.03460790 0.97388172 11.14800820
v -27.07074203 0.95425577 11.11213772
v -27.10307855 0.92405112 11.08020698
v -27.13007693 0.88470674 11.05373716
v -27.15045094 0.83809701 11.03398932
v -27.16322994 0.78644246 11.02190424
v -27.16780515 0.73220396 11.01805768
v -29.65754047 1.00911863 13.77094077
v -29.69367460 0.98949269 13.73507030
v -29.72601113 0.95928804 13.70313955
v -29.75300950 0.91994365 13.67666973
v -29.77338351 0.87333392 13.65692189
v -29.78616252 0.82167938 13.64483682
v -23.63907499 6.46166482 2.76407137
v -23.66776549 6.45418156 2.71767794
v -23.69506439 6.43494094 2.67390509
v -23.71964758 6.40487621 2.63487596
v -23.74032269 6.36544563 2.60248362
v -23.75608689 6.31856174 2.57829923
v -23.76617556 6.26649858 2.56349582
v -23.77009935 6.21178143 2.55879142
v -24.46235159 6.23789421 3.58309264
v -24.41773761 6.23322405 3.39662344
v -24.35362605 6.22896372 3.22586655
v -24.27444549 6.22511324 3.07216650
v -24.10434199 6.43775598 2.93946008
v -24.08781600 6.21864181 2.82001118
v -23.98696142 6.21602087 2.72044131
v -23.87749760 6.21366545 2.63129740
v -24.39722577 6.36694516 3.40533890
v -23.77009935 0.98995698 2.55879142
v -23.92033760 0.99054103 2.66557798
v -24.05970479 0.99229316 2.79433914
v -24.18488230 0.99521338 2.94303269
v -24.29255148 0.99930168 3.10961638
v -24.37939372 1.00455807 3.29204797
v -24.44209037 1.01098255 3.48828524
v -24.46994326 1.01620369 3.63355066
v -23.77321586 0.93575491 2.55372708
v -23.79726552 0.83754202 2.51464638
v -26.33926094 0.60106917 2.14782895
v -24.42124382 0.78418309 2.94110057
v -24.18517031 0.85511550 2.83219740
v -26.53956387 0.94457239 10.00808830
v -26.59130288 0.92543443 10.00693563
v -26.63759726 0.89541779 10.00634491
v -26.67619188 0.85598467 10.00634491
v -26.70520673 0.80905594 10.00693563
v -26.72322843 0.75691760 10.00808830
v -26.72937908 0.70210943 10.00974676
v -26.47105050 0.95713369 10.17046689
v -26.78809348 0.88515021 10.59185797
v -17.43381228 6.33697264 -1.11860095
v -17.46111118 6.31773202 -1.16237381
v -17.48569438 6.28766729 -1.20140294
v -17.50636948 6.24823671 -1.23379528
v -17.52213368 6.20135282 -1.25797967
v -17.53222235 6.14928966 -1.27278308
v -17.53614614 6.09457251 -1.27748748
v -19.29908700 0.95702781 -0.19524049
v -19.29729696 0.96800260 -0.19483864
v -19.32753856 0.87796215 -0.20991193
v -19.38478010 0.80104391 -0.24114751
v -26.22824133 0.70069776 2.65998876
v -26.28290466 0.69337071 2.65833030
v -26.33464368 0.67423274 2.65717764
v -26.38093805 0.64421611 2.65658692
v -26.41953268 0.60478299 2.65658692
v -26.44854753 0.55785425 2.65717764
v -26.46656922 0.50571592 2.65833030
v -27.16780515 -0.73220396 11.01805768
v -27.16322994 -0.78644246 11.02190424
v -27.15045094 -0.83809701 11.03398932
v -27.13007693 -0.88470674 11.05373716
v -27.10307855 -0.92405112 11.08020698
v -27.07074203 -0.95425577 11.11213772
v -27.03460790 -0.97388172 11.14800820
v -29.61933018 -1.01723088 13.80904208
v -29.78616252 -0.82167938 13.64483682
v -29.77338351 -0.87333392 13.65692189
v -29.75300950 -0.91994365 13.67666973
v -29.72601113 -0.95928804 13.70313955
v -29.69367460 -0.98949269 13.73507030
v -29.65754047 -1.00911863 13.77094077
v -28.54457598 -1.07787228 14.88379628
v -28.55181783 -1.04916051 15.17349549
v -29.86235053 -0.90915835 13.81115138
v -16.82037274 5.79525981 -1.67395043
v -17.11761927 6.33230005 -1.27565528
v -19.24642131 0.88980686 -2.21703552
v -25.63412457 0.67780756 1.63904023
v -25.66238017 0.66964500 1.59312489
v -25.68903618 0.64998783 1.54980887
v -25.71282454 0.61977118 1.51115279
v -25.73261360 0.58043251 1.47899557
v -25.74746196 0.53384321 1.45486698
v -26.46108987 0.44664346 2.51268657
v -26.01135570 0.50115494 1.62889285
v -26.72322843 -0.75691760 10.00808830
v -26.70520673 -0.80905594 10.00693563
v -26.67619188 -0.85598467 10.00634491
v -26.63759726 -0.89541779 10.00634491
v -26.59130288 -0.92543443 10.00693563
v -26.53956387 -0.94457239 10.00808830
v -26.49085583 -0.95752252 10.18528679
v -26.73912096 -0.71208294 10.15295347
v -26.88555574 -0.97411018 11.01420345
v -26.79549203 -0.90094507 10.63381532
v -28.37652416 -1.32770737 15.05520382
v -28.41142852 -1.32770737 15.09897250
v -28.43571830 -1.32770737 15.14941075
v -28.44817552 -1.32770737 15.20398940
v -28.44817552 -1.32770737 15.25997163
v -28.43571830 -1.32770737 15.31455028
v -28.41142852 -1.32770737 15.36498853
v -28.38455800 -1.20426471 15.40064053
v -28.39120625 -1.22633024 15.03916006
v -28.43569417 -1.14309097 14.99355409
v -28.48803264 -1.09710138 14.94059791
v -13.00000000 6.33879059 -1.25763463
v -19.26103908 0.41203822 -3.35918156
v -19.29071279 0.52488120 -2.98863985
v -19.42748889 0.69964302 -1.45224242
v -19.82255419 0.67784548 -1.93461836
v -19.87864096 0.66964500 -1.96609923
v -19.90529698 0.64998783 -2.00941525
v -19.92908534 0.61977118 -2.04807134
v -19.94887440 0.58043251 -2.08022856
v -19.96372275 0.53384321 -2.10435714
v -19.97292405 0.48221962 -2.11930925
v -26.47271988 -0.45090775 2.65998876
v -26.46656922 -0.50571592 2.65833030
v -26.44854753 -0.55785425 2.65717764
v -26.41953268 -0.60478299 2.65658692
v -26.38093805 -0.64421611 2.65658692
v -26.33464368 -0.67423274 2.65717764
v -26.22824133 -0.70069776 2.65998876
v -25.16780515 -1.28460090 11.84648481
v -25.30100241 -1.04292314 11.71653429
v -25.23253175 -1.09275373 11.78433552
v -25.20553338 -1.13209812 11.81080533
v -25.17238036 -1.23036239 11.84263825
v -19.84116389 0.44998734 -2.22377085
v -19.30882943 0.64921009 -2.68711273
v -19.41834101 0.58175942 -2.57358778
v -25.75666326 -0.48221962 1.43991487
v -25.74746196 -0.53384321 1.45486698
v -25.73261360 -0.58043251 1.47899557
v -25.71282454 -0.61977118 1.51115279
v -25.68903618 -0.64998783 1.54980887
v -25.66238017 -0.66964500 1.59312489
v -25.63412457 -0.67780756 1.63904023
v -25.86239332 -0.42210970 1.50183873
v -26.28000041 -0.62195050 1.98402433
v -25.05230061 -1.28287507 11.71611335
v -24.94976249 -1.28040651 11.56820390
v -24.86319604 -1.27719520 11.40460586
v -24.79560650 -1.27324114 11.22716859
v -24.74999910 -1.26854435 11.03774147
v -24.72937908 -1.26310481 10.83817388
v -24.91919430 -1.02064185 10.83983234
v -24.86745529 -1.03977982 10.84098501
v -24.82116091 -1.06979646 10.84157573
v -24.78256629 -1.10922958 10.84157573
v -24.75355144 -1.15615831 10.84098501
v -24.73552974 -1.20829665 10.83983234
v -24.96253327 -1.02998232 11.17040073
v -24.87891334 -1.08969038 11.32925996
v -25.00589885 -1.19578466 11.63930057
v -28.37652416 -6.33695957 15.40875721
v -28.37602599 -6.53904044 15.06255285
v -28.41142852 -6.33695957 15.09897250
v -28.43571830 -6.33695957 15.14941075
v -28.44817552 -6.33695957 15.20398940
v -28.44817552 -6.33695957 15.25997163
v -28.43571830 -6.33695957 15.31455028
v -28.41142852 -6.33695957 15.36498853
v -28.34903486 -6.74406006 15.15174850
v -19.97604057 -0.42801755 -2.12437360
v -19.97292405 -0.48221962 -2.11930925
v -19.96372275 -0.53384321 -2.10435714
v -19.94887440 -0.58043251 -2.08022856
v -19.92908534 -0.61977118 -2.04807134
v -19.90529698 -0.64998783 -2.00941525
v -19.87864096 -0.66964500 -1.96609923
v -24.72751800 -0.77221326 3.78392965
v -24.48303945 -1.02200326 3.78392965
v -24.67285467 -0.77954031 3.78558811
v -24.62111565 -0.79867827 3.78674078
v -24.53622665 -0.86812803 3.78733150
v -24.50721180 -0.91505676 3.78674078
v -24.48919011 -0.96719510 3.78558811
v -25.16780515 -6.49444201 11.84648481
v -28.19594815 -6.58695961 14.87459269
v -25.16265539 -6.54930724 11.84995829
v -25.12789933 -6.64846285 11.88168487
v -25.09998846 -6.68791638 11.90839033
v -27.62143320 -6.91167433 15.21934680
v -28.08588117 -6.81420792 14.97771573
v -28.14461169 -6.75408319 14.92082218
v -28.18136007 -6.67680286 14.88643493
v -19.82340834 -0.67777974 -1.93525334
v -19.42657210 -0.68222891 -2.23816311
v -19.26103908 -0.41203822 -3.35918156
v -19.40931403 -0.55665769 -2.58527527
v -23.97881671 -0.74029589 2.40398890
v -24.48547814 -0.80505913 3.29083990
v -24.46360824 -1.01468909 3.59248448
v -24.42056706 -1.00832107 3.40972834
v -24.35633520 -1.00289920 3.23715001
v -24.27333192 -0.99842348 3.07623829
v -24.17397653 -0.99489391 2.92848196
v -23.93588650 -0.99067323 2.67839065
v -23.85443235 -0.99013604 2.61508274
v -23.77009935 -0.98995698 2.55879142
v -23.86749895 -0.74832954 2.40051706
v -23.84084294 -0.76798670 2.44383308
v -23.79726552 -0.83754202 2.51464638
v -23.77321586 -0.93575491 2.55372708
v -24.00465201 -0.91739250 2.70601723
v -24.05840546 -0.77375665 2.62200314
v -24.72937908 -6.45850088 10.83817388
v -24.72306413 -6.51406811 10.83669667
v -24.70455392 -6.56685272 10.83573035
v -24.67477538 -6.61421147 10.83532330
v -24.63521972 -6.65377278 10.83549590
v -24.58786774 -6.68355557 10.83623952
v -24.58073427 -6.69577927 10.98002611
v -24.47953138 -6.70838428 10.83926413
v -24.74797596 -6.46449107 11.02465158
v -24.78990131 -6.47048126 11.20729795
v -24.85400101 -6.47647145 11.38345873
v -24.93912096 -6.48246163 11.55047965
v -25.04410704 -6.48845182 11.70570643
v -24.98557068 -6.57945573 11.67126452
v -24.70796357 -6.67731269 11.27036736
v -19.40504280 -0.69295977 -2.21438163
v -19.24647377 -0.88981417 -2.21704138
v -19.25473185 -0.60007306 -3.06821959
v -19.27904797 -0.79227005 -2.26366542
v -19.30508244 -0.68884075 -2.54543681
v -19.53721672 -0.74019374 -0.32757694
v -19.29729693 -0.96800276 -0.19483872
v -19.29899934 -0.95701473 -0.19523775
v -19.44986729 -0.75626125 -0.27762682
v -19.38476641 -0.80105576 -0.24113989
v -19.32753475 -0.87796042 -0.20990970
v -24.48303945 -6.24297422 3.78392965
v -24.47672449 -6.29854145 3.78245244
v -24.45821428 -6.35132607 3.78148612
v -24.42843575 -6.39868481 3.78107907
v -24.38888009 -6.43824612 3.78125167
v -24.34152811 -6.46802891 3.78199529
v -24.28875103 -6.48654176 3.78327269
v -23.77009935 -6.21178143 2.55879142
v -23.75608689 -6.31856174 2.57829923
v -23.74032269 -6.36544563 2.60248362
v -23.71964758 -6.40487621 2.63487596
v -23.69506439 -6.43494094 2.67390509
v -23.66776549 -6.45418156 2.71767794
v -24.09655622 -6.47805034 3.06648533
v -23.92354922 -6.21460000 2.66671755
v -24.06296859 -6.21795075 2.79365268
v -24.18324459 -6.22162580 2.93501181
v -24.29294000 -6.22592551 3.10446174
v -24.37674635 -6.23032935 3.28059813
v -24.43489080 -6.23472541 3.45670783
v -24.46754939 -6.23870715 3.61539465
v -24.02484938 -6.29891546 2.75785312
v -24.39893575 -6.36458920 3.41506120
v -16.84514574 -5.78026983 -1.66845509
v -17.53222235 -6.14928966 -1.27278308
v -17.52213368 -6.20135282 -1.25797967
v -17.50636948 -6.24823671 -1.23379528
v -17.48569438 -6.28766729 -1.20140294
v -17.43381228 -6.33697264 -1.11860095
v -17.40512178 -6.34445590 -1.07220752
v -17.22960649 -6.32263345 -1.28216070
v -13.00000000 -6.33879059 -1.25763463
v 28.37652416 1.32770737 15.40875721
v 28.41142852 1.32770737 15.36498853
v 28.43571830 1.32770737 15.31455028
v 28.44817552 1.32770737 15.25997163
v 28.44817552 1.32770737 15.20398940
v 28.43571830 1.32770737 15.14941075
v 28.41142852 1.32770737 15.09897250
v 28.37652416 1.32770737 15.05520382
v 28.37652416 6.33695957 15.05520382
v 28.41142852 6.33695957 15.09897250
v 28.43571830 6.33695957 15.14941075
v 28.44817552 6.33695957 15.20398940
v 28.44817552 6.33695957 15.25997163
v 28.43571830 6.33695957 15.31455028
v 28.41142852 6.33695957 15.36498853
v 28.19078039 6.64182483 14.87808329
v 28.17725858 6.69401371 14.89001059
v 28.15602433 6.74098044 14.90980987
v 28.12811346 6.78043396 14.93651533
v 28.09488747 6.81044972 14.96882425
v 28.05796714 6.82956352 15.00516061
v 28.01915346 6.83684300 15.04375188
v 28.37617878 6.48090965 15.38659113
v 28.21332371 6.79762838 15.08163333
v 28.40700726 6.61336639 15.13423101
v 28.71598353 0.82808227 15.06929785
v 28.71307536 0.88399845 15.06323470
v 28.70134347 0.93707692 15.04850793
v 28.68138324 0.98462397 15.02586493
v 28.65420764 1.02422662 14.99645481
v 28.62119582 1.05387506 14.96177012
v 28.58402310 1.07206465 14.92357108
v 28.54457598 1.07787228 14.88379628
v 28.39120625 1.22633024 15.03916006
v 28.43569417 1.14309097 14.99355409
v 28.48803264 1.09710138 14.94059791
v 28.53569388 1.07752044 15.20470456
v 25.16780515 6.49444201 11.84648481
v 25.16265539 6.54930724 11.84995829
v 25.14913358 6.60149612 11.86188558
v 25.12789933 6.64846285 11.88168487
v 25.09998846 6.68791638 11.90839033
v 25.06676247 6.71793213 11.94069925
v 25.02984214 6.73704594 11.97703560
v 29.81045395 0.79490363 13.97082685
v 29.78782956 0.82335705 13.98848050
v 29.77609767 0.87643552 13.97375373
v 29.75613744 0.92398257 13.95111073
v 29.72896184 0.96358523 13.92170061
v 29.69595002 0.99323367 13.88701592
v 29.65877730 1.01142326 13.84881688
v 29.61933018 1.01723088 13.80904208
v 25.16780515 1.28460090 11.84648481
v 25.30100241 1.04292314 11.71653429
v 25.23253175 1.09275373 11.78433552
v 25.20553338 1.13209812 11.81080533
v 25.17238036 1.23036239 11.84263825
v 24.72937908 6.45850088 10.83817388
v 24.72306413 6.51406811 10.83669667
v 24.70455392 6.56685272 10.83573035
v 24.67477538 6.61421147 10.83532330
v 24.63521972 6.65377278 10.83549590
v 24.58786774 6.68355557 10.83623952
v 24.53509067 6.70206842 10.83751692
v 24.51915701 6.71937079 11.23285947
v 24.93358804 6.74240942 11.95961085
v 24.74797596 6.46449107 11.02465158
v 24.78990131 6.47048126 11.20729795
v 24.85400101 6.47647145 11.38345873
v 24.93912096 6.48246163 11.55047965
v 25.04410704 6.48845182 11.70570643
v 24.76130528 6.66125218 11.42329542
v 25.05230061 1.28287507 11.71611335
v 24.94976249 1.28040651 11.56820390
v 24.86319604 1.27719520 11.40460586
v 24.79560650 1.27324114 11.22716859
v 24.74999910 1.26854435 11.03774147
v 24.72937908 1.26310481 10.83817388
v 24.91919430 1.02064185 10.83983234
v 24.86745529 1.03977982 10.84098501
v 24.82116091 1.06979646 10.84157573
v 24.78256629 1.10922958 10.84157573
v 24.75355144 1.15615831 10.84098501
v 24.73552974 1.20829665 10.83983234
v 24.96253327 1.02998232 11.17040073
v 24.87891334 1.08969038 11.32925996
v 25.00589885 1.19578466 11.63930057
v 24.48303945 6.24297422 3.78392965
v 24.47672449 6.29854145 3.78245244
v 24.45821428 6.35132607 3.78148612
v 24.42843575 6.39868481 3.78107907
v 24.38888009 6.43824612 3.78125167
v 24.34152811 6.46802891 3.78199529
v 24.28875103 6.48654176 3.78327269
v 24.23319174 6.49285762 3.78501990
v 29.79073773 -0.76744087 13.99454365
v 29.82564208 -0.76744087 13.95077497
v 29.84993186 -0.76744087 13.90033672
v 29.86238908 -0.76744087 13.84575807
v 29.86238908 -0.76744087 13.78977583
v 29.84993186 -0.76744087 13.73519719
v 29.82564208 -0.76744087 13.68475893
v 29.79073773 -0.76744087 13.64099026
v 29.79073773 0.76744087 13.64099026
v 29.82564208 0.76744087 13.95077497
v 29.84993186 0.76744087 13.90033672
v 29.86238908 0.76744087 13.84575807
v 29.86238908 0.76744087 13.78977583
v 29.84993186 0.76744087 13.73519719
v 29.82564208 0.76744087 13.68475893
v 27.16780515 0.73220396 11.01805768
v 27.16322994 0.78644246 11.02190424
v 27.15045094 0.83809701 11.03398932
v 27.13007693 0.88470674 11.05373716
v 27.10307855 0.92405112 11.08020698
v 27.07074203 0.95425577 11.11213772
v 26.99639761 0.98199396 11.18610951
v 29.78616252 0.82167938 13.64483682
v 29.77338351 0.87333392 13.65692189
v 29.75300950 0.91994365 13.67666973
v 29.72601113 0.95928804 13.70313955
v 29.69367460 0.98949269 13.73507030
v 29.65754047 1.00911863 13.77094077
v 24.72751800 0.77221326 3.78392965
v 24.48303945 1.02200326 3.78392965
v 24.67285467 0.77954031 3.78558811
v 24.62111565 0.79867827 3.78674078
v 24.53622665 0.86812803 3.78733150
v 24.50721180 0.91505676 3.78674078
v 24.48919011 0.96719510 3.78558811
v 23.77009935 6.21178143 2.55879142
v 23.76617556 6.26649858 2.56349582
v 23.75608689 6.31856174 2.57829923
v 23.74032269 6.36544563 2.60248362
v 23.71964758 6.40487621 2.63487596
v 23.69506439 6.43494094 2.67390509
v 23.66776549 6.45418156 2.71767794
v 23.63907499 6.46166482 2.76407137
v 23.92354922 6.21460000 2.66671755
v 24.06296859 6.21795075 2.79365268
v 24.18324459 6.22162580 2.93501181
v 24.29294000 6.22592551 3.10446174
v 24.37674635 6.23032935 3.28059813
v 24.43489080 6.23472541 3.45670783
v 24.46754939 6.23870715 3.61539465
v 24.25720722 6.42569409 3.09046571
v 26.72322843 0.75691760 10.00808830
v 26.70520673 0.80905594 10.00693563
v 26.67619188 0.85598467 10.00634491
v 26.63759726 0.89541779 10.00634491
v 26.64551564 0.91307587 10.19806593
v 26.53956387 0.94457239 10.00808830
v 26.48490053 0.95189944 10.00974676
v 26.73893846 0.70825963 10.14620481
v 26.80409556 0.91646434 10.64320701
v 26.92491909 0.96823282 11.00371516
v 24.17513274 0.74161214 2.54771513
v 24.46360824 1.01468909 3.59248448
v 24.42056706 1.00832107 3.40972834
v 24.35633520 1.00289920 3.23715001
v 24.27333192 0.99842348 3.07623829
v 24.17397653 0.99489391 2.92848196
v 23.93588650 0.99067323 2.67839065
v 23.85443235 0.99013604 2.61508274
v 23.77009935 0.98995698 2.55879142
v 23.86749895 0.74832954 2.40051706
v 23.84084294 0.76798670 2.44383308
v 23.79726552 0.83754202 2.51464638
v 23.77321586 0.93575491 2.55372708
v 24.46717199 0.87246126 3.38074049
v 24.09550412 0.80250351 2.69084648
v 24.00465201 0.91739250 2.70601723
v 24.52943542 0.77103979 3.11860734
v 17.53614614 6.09457251 -1.27748748
v 17.53222235 6.14928966 -1.27278308
v 17.52213368 6.20135282 -1.25797967
v 17.50636948 6.24823671 -1.23379528
v 17.48569438 6.28766729 -1.20140294
v 17.46111118 6.31773202 -1.16237381
v 17.43381228 6.33697264 -1.11860095
v 28.56585740 -0.93817037 15.20734155
v 28.49190731 -1.09877126 15.13410615
v 28.54457598 -1.07787228 14.88379628
v 29.61933018 -1.01723088 13.80904208
v 29.83137968 -0.94094566 13.84947653
v 26.88555574 -0.97411019 11.01420322
v 27.03460790 -0.97388172 11.14800820
v 27.07074203 -0.95425577 11.11213772
v 27.10307855 -0.92405112 11.08020698
v 27.13007693 -0.88470674 11.05373716
v 27.15045094 -0.83809701 11.03398932
v 27.16322994 -0.78644246 11.02190424
v 29.65754047 -1.00911863 13.77094077
v 29.69367460 -0.98949269 13.73507030
v 29.72601113 -0.95928804 13.70313955
v 29.75300950 -0.91994365 13.67666973
v 29.77338351 -0.87333392 13.65692189
v 26.47271988 0.45090775 2.65998876
v 26.46656922 0.50571592 2.65833030
v 26.44854753 0.55785425 2.65717764
v 26.41953268 0.60478299 2.65658692
v 26.33464368 0.67423274 2.65717764
v 26.28290466 0.69337071 2.65833030
v 19.53721785 0.74024955 -0.32757890
v 16.97926271 5.63693673 -1.69474417
v 19.29729693 0.96800278 -0.19483872
v 19.29896645 0.95700974 -0.19523660
v 19.44986729 0.75626125 -0.27762682
v 19.38476640 0.80105577 -0.24113989
v 19.32753474 0.87796043 -0.20990969
v 17.10197538 6.33216519 -1.28008490
v 28.38260549 -1.23190263 15.40263241
v 28.41142852 -1.32770737 15.36498853
v 28.44817552 -1.32770737 15.25997163
v 28.44817552 -1.32770737 15.20398940
v 28.41142852 -1.32770737 15.09897250
v 28.37652416 -1.32770737 15.05520382
v 28.48572751 -1.09850736 14.94292192
v 28.43195128 -1.14779944 14.99736023
v 28.39199256 -1.22391375 15.03834129
v 28.45004200 -1.25399708 15.30373315
v 26.53956387 -0.94457239 10.00808830
v 26.59130288 -0.92543443 10.00693563
v 26.63759726 -0.89541779 10.00634491
v 26.67619188 -0.85598467 10.00634491
v 26.70520673 -0.80905594 10.00693563
v 26.72322843 -0.75691760 10.00808830
v 26.72937908 -0.70210943 10.00974676
v 27.08970594 -0.73231585 10.93592793
v 26.79171691 -0.88172141 10.59557766
v 25.75666326 0.48221962 1.43991487
v 25.74746196 0.53384321 1.45486698
v 25.73261360 0.58043251 1.47899557
v 25.71282454 0.61977118 1.51115279
v 25.68903618 0.64998783 1.54980887
v 25.66238017 0.66964500 1.59312489
v 25.63412457 0.67780756 1.63904023
v 25.86239332 0.42210970 1.50183873
v 26.38697168 0.62416035 2.51157978
v 26.14447857 0.64021204 1.84743179
v 19.24653757 0.88982295 -2.21704999
v 19.40505328 0.69291603 -2.21437967
v 19.27409673 0.80922812 -2.21498022
v 28.37652416 -6.33695957 15.40875721
v 28.43571830 -6.33695957 15.31455028
v 28.44817552 -6.33695957 15.25997163
v 28.43571830 -6.33695957 15.14941075
v 28.37652416 -6.33695957 15.05520382
v 25.16780515 -1.28460090 11.84648481
v 25.17238036 -1.23036239 11.84263825
v 25.20553338 -1.13209812 11.81080533
v 25.23253175 -1.09275373 11.78433552
v 25.30100241 -1.04292314 11.71653429
v 26.22824133 -0.70069776 2.65998876
v 26.28290466 -0.69337071 2.65833030
v 26.33464368 -0.67423274 2.65717764
v 26.38093805 -0.64421611 2.65658692
v 26.41953268 -0.60478299 2.65658692
v 26.44854753 -0.55785425 2.65717764
v 26.46656922 -0.50571592 2.65833030
v 19.97604057 0.42801755 -2.12437360
v 19.97292405 0.48221962 -2.11930925
v 19.96372275 0.53384321 -2.10435714
v 19.94887440 0.58043251 -2.08022856
v 19.92908534 0.61977118 -2.04807134
v 19.90529698 0.64998783 -2.00941525
v 19.87864096 0.66964500 -1.96609923
v 19.26103908 0.41203822 -3.35918156
v 19.26835006 0.46453313 -3.18994473
v 19.29215338 0.74489389 -2.38931864
v 19.27394013 0.57312628 -2.98362984
v 28.01915346 -6.83684300 15.04375188
v 28.05796714 -6.82956352 15.00516061
v 28.09488747 -6.81044972 14.96882425
v 28.12811346 -6.78043396 14.93651533
v 28.15602433 -6.74098044 14.90980987
v 28.17725858 -6.69401371 14.89001059
v 28.19593015 -6.58695960 14.87460981
v 28.38323172 -6.55091735 15.34104897
v 28.36020113 -6.71160393 15.18267185
v 28.38543084 -6.50138600 15.07335923
v 28.29176261 -6.67468818 15.00513071
v 24.72937908 -1.26310481 10.83817388
v 24.74999910 -1.26854435 11.03774147
v 24.79560650 -1.27324114 11.22716859
v 24.86319604 -1.27719520 11.40460586
v 24.94976249 -1.28040651 11.56820390
v 25.05230061 -1.28287507 11.71611335
v 25.04920392 -1.08469220 11.43538489
v 24.73552974 -1.20829665 10.83983234
v 24.75355144 -1.15615831 10.84098501
v 24.78256629 -1.10922958 10.84157573
v 24.82116091 -1.06979646 10.84157573
v 24.86745529 -1.03977982 10.84098501
v 24.91919430 -1.02064185 10.83983234
v 25.00589808 -1.19578798 11.63930190
v 24.87642287 -1.09676617 11.33947243
v 25.63412457 -0.67780756 1.63904023
v 25.66238017 -0.66964500 1.59312489
v 25.68903618 -0.64998783 1.54980887
v 25.71282454 -0.61977118 1.51115279
v 25.73261360 -0.58043251 1.47899557
v 25.75666326 -0.48221962 1.43991487
v 25.75977978 -0.42801755 1.43485053
v 26.46711914 0.42087546 2.34240508
v 26.18520003 -0.53106347 1.79976694
v 19.82340868 0.67777978 -1.93525295
v 19.49021791 0.67510230 -2.21162437
v 19.51550613 0.57489498 -2.46642832
v 24.86683260 -6.74015210 11.89155276
v 25.02984214 -6.73704594 11.97703560
v 25.06676247 -6.71793213 11.94069925
v 25.09998846 -6.68791638 11.90839033
v 25.12789933 -6.64846285 11.88168487
v 25.14913358 -6.60149612 11.86188558
v 25.16265539 -6.54930724 11.84995829
v 25.16780515 -6.49444201 11.84648481
v 24.48303945 -1.02200326 3.78392965
v 24.72751800 -0.77221326 3.78392965
v 24.48919011 -0.96719510 3.78558811
v 24.50721180 -0.91505676 3.78674078
v 24.53622665 -0.86812803 3.78733150
v 24.57482128 -0.82869491 3.78733150
v 24.62111565 -0.79867827 3.78674078
v 24.67285467 -0.77954031 3.78558811
v 19.68932930 -0.67747590 -2.02762337
v 19.87864096 -0.66964500 -1.96609923
v 19.90529698 -0.64998783 -2.00941525
v 19.92908534 -0.61977118 -2.04807134
v 19.94887440 -0.58043251 -2.08022856
v 19.96372275 -0.53384321 -2.10435714
v 19.97292405 -0.48221962 -2.11930925
v 24.47953138 -6.70838428 10.83926413
v 24.53509067 -6.70206842 10.83751692
v 24.58786774 -6.68355557 10.83623952
v 24.63521972 -6.65377278 10.83549590
v 24.67477538 -6.61421147 10.83532330
v 24.70455392 -6.56685272 10.83573035
v 24.72306413 -6.51406811 10.83669667
v 24.72937908 -6.45850088 10.83817388
v 25.04410704 -6.48845182 11.70570643
v 24.93912096 -6.48246163 11.55047965
v 24.85400101 -6.47647145 11.38345873
v 24.78990131 -6.47048126 11.20729795
v 24.74797596 -6.46449107 11.02465158
v 24.75366828 -6.67303534 11.42650578
v 23.77009935 -0.98995698 2.55879142
v 23.92033760 -0.99054103 2.66557798
v 24.05970479 -0.99229316 2.79433914
v 24.18488230 -0.99521338 2.94303269
v 24.29255148 -0.99930168 3.10961638
v 24.37939372 -1.00455807 3.29204797
v 24.44209037 -1.01098255 3.48828524
v 24.46994326 -1.01620369 3.63355066
v 26.34690552 -0.62365787 2.26911478
v 23.77321586 -0.93575491 2.55372708
v 23.79726552 -0.83754202 2.51464638
v 23.84084294 -0.76798670 2.44383308
v 23.86749895 -0.74832954 2.40051706
v 24.39533275 -0.80277779 3.01270119
v 24.11349536 -0.78530666 2.67800890
v 19.48848562 -0.67527094 -2.21598638
v 19.26567329 -0.45225472 -3.22919658
v 19.26103908 -0.41203822 -3.35918156
v 24.28875103 -6.48654176 3.78327269
v 24.34152811 -6.46802891 3.78199529
v 24.38888009 -6.43824612 3.78125167
v 24.42843575 -6.39868481 3.78107907
v 24.45821428 -6.35132607 3.78148612
v 24.47672449 -6.29854145 3.78245244
v 24.48303945 -6.24297422 3.78392965
v 19.29903855 -0.95694779 -0.19520066
v 19.29730397 -0.96795693 -0.19483906
v 19.53722047 -0.74016580 -0.32757894
v 19.32832095 -0.87060516 -0.21223363
v 19.38722472 -0.79904948 -0.24832900
v 19.45744047 -0.75704285 -0.28828185
v 19.24930848 -0.69264095 -2.91025516
v 19.24645502 -0.88981120 -2.21705202
v 19.40512050 -0.69297055 -2.21438479
v 19.27308685 -0.81050112 -2.21511493
v 19.41791718 -0.56732390 -2.58665562
v 19.35350348 -0.71242153 -2.26019785
v 23.63907499 -6.46166482 2.76407137
v 23.66776549 -6.45418156 2.71767794
v 23.69506439 -6.43494094 2.67390509
v 23.71964758 -6.40487621 2.63487596
v 23.74032269 -6.36544563 2.60248362
v 23.75608689 -6.31856174 2.57829923
v 23.76617556 -6.26649858 2.56349582
v 23.77009935 -6.21178143 2.55879142
v 24.46235159 -6.23789421 3.58309264
v 24.41773761 -6.23322405 3.39662344
v 24.35362605 -6.22896372 3.22586655
v 24.27444549 -6.22511324 3.07216650
v 24.10434199 -6.43775598 2.93946008
v 24.08781600 -6.21864181 2.82001118
v 23.98696142 -6.21602087 2.72044131
v 23.87749760 -6.21366545 2.63129740
v 24.39722577 -6.36694516 3.40533890
v 17.43381228 -6.33697264 -1.11860095
v 17.46111118 -6.31773202 -1.16237381
v 17.48569438 -6.28766729 -1.20140294
v 17.50636948 -6.24823671 -1.23379528
v 17.52213368 -6.20135282 -1.25797967
v 17.53222235 -6.14928966 -1.27278308
v 17.53614614 -6.09457251 -1.27748748
v 17.04150643 -5.73066106 -1.62512991
v 17.13854295 -6.33591742 -1.24830484
v 15.08672844 4.38392540 -0.24781837
v 15.08672844 4.39060683 -0.19254823
v 15.08672844 4.40935417 -0.14012718
v 15.08672844 4.43923772 -0.09315481
v 15.08672844 4.47877553 -0.05396054
v 15.08672844 4.52600688 -0.02448803
v 15.08672844 4.57858954 -0.00619886
v 15.21476847 4.61800334 -0.00017712
v -15.08672844 4.63391588 0.00000000
v -15.08672844 4.57858954 -0.00619886
v -15.08672844 4.52600688 -0.02448803
v -15.08672844 4.47877553 -0.05396054
v -15.08672844 4.40935417 -0.14012718
v -15.08672844 4.39060683 -0.19254823
v -15.08672844 4.38392540 -0.24781837
v -15.21172549 4.35043617 -0.24748090
v -15.15141882 4.37536095 -0.24773206
v -15.18832950 4.40219031 -0.11869152
v 15.21172549 4.35043617 -0.24748090
v 15.30322654 4.25893016 -0.24781837
v 15.26346432 4.31067145 -0.24773206
v 15.30901283 4.26227087 -0.19254823
v 15.32524850 4.27164454 -0.14012718
v 15.35112842 4.28658632 -0.09315481
v 15.38536917 4.30635522 -0.05396054
v 15.42627272 4.32997090 -0.02448803
v 15.47181064 4.35626223 -0.00619886
v 15.51972465 4.38392540 0.00000000
v 15.26463752 4.43731670 -0.03191800
v -16.67923945 2.37558685 0.00000000
v -16.63132544 2.34792368 -0.00619886
v -16.58578752 2.32163235 -0.02448803
v -16.54488397 2.29801667 -0.05396054
v -16.51064322 2.27824777 -0.09315481
v -16.48476331 2.26330599 -0.14012718
v -16.46852763 2.25393232 -0.19254823
v -16.46274135 2.25059161 -0.24781837
v -15.30322654 4.25893016 -0.24781837
v -15.51972465 4.38392540 0.00000000
v -15.47181064 4.35626223 -0.00619886
v -15.42627272 4.32997090 -0.02448803
v -15.38536917 4.30635522 -0.05396054
v -15.35112842 4.28658632 -0.09315481
v -15.32524850 4.27164454 -0.14012718
v -15.30901283 4.26227087 -0.19254823
v -15.27045457 4.20216744 -6.75218163
v -15.26346432 4.31067145 -0.24773206
v -15.05395647 4.32716268 -6.75218163
v -15.23973443 4.24444685 -6.75239582
v -15.20089558 4.27941616 -6.75250530
v -15.15563532 4.30554718 -6.75250530
v -15.10593158 4.32169796 -6.75239582
v 15.07174853 4.32358680 -6.79033078
v 15.15141882 4.37536095 -0.24773206
v 15.10593158 4.32169796 -6.75239582
v 15.15563532 4.30554718 -6.75250530
v 15.20089558 4.27941616 -6.75250530
v 15.23973443 4.24444685 -6.75239582
v 16.46274135 2.25059161 -0.24781837
v 16.46852763 2.25393232 -0.19254823
v 16.48476331 2.26330599 -0.14012718
v 16.51064322 2.27824777 -0.09315481
v 16.54488397 2.29801667 -0.05396054
v 16.58578752 2.32163235 -0.02448803
v 16.63132544 2.34792368 -0.00619886
v 16.67923945 2.37558685 0.00000000
v -16.81026381 1.92299972 0.03708542
v -16.77528560 1.89249368 0.00859570
v -16.74818456 1.86343522 -0.02864537
v -16.73024670 1.83720322 -0.07287063
v -16.72479006 1.79800448 -0.17364752
v -16.54711540 2.12567456 -0.18117899
v -16.75734406 2.10545558 0.01234805
v -16.61714176 2.14385120 -0.05968050
v -15.05395647 4.13249854 -6.99380114
v -15.05395647 4.18508119 -6.97551197
v -15.05395647 4.23231255 -6.94603946
v -15.05395647 4.27185036 -6.90684519
v -15.05395647 4.30173391 -6.85987282
v -15.05395647 4.32048125 -6.80745177
v -15.26466828 4.19882672 -6.80745177
v -15.24843261 4.18945305 -6.85987282
v -15.22255270 4.17451128 -6.90684519
v -15.18831195 4.15474237 -6.94603946
v -15.14740840 4.13112670 -6.97551197
v -15.10187048 4.10483537 -6.99380114
v -15.08109196 4.12946264 -6.99570455
v -15.16516473 4.26979056 -6.89598116
v 15.05395647 4.07717220 -7.00000000
v 15.10187048 4.10483537 -6.99380114
v 15.14740840 4.13112670 -6.97551197
v 15.18831195 4.15474237 -6.94603946
v 15.22255270 4.17451128 -6.90684519
v 15.24843261 4.18945305 -6.85987282
v 15.26466828 4.19882672 -6.80745177
v 15.05395647 4.32048125 -6.80745177
v 15.05395647 4.30173391 -6.85987282
v 15.05395647 4.27185036 -6.90684519
v 15.05395647 4.23231255 -6.94603946
v 15.05395647 4.18508119 -6.97551197
v 15.05395647 4.13249854 -6.99380114
v 15.09349818 4.10562663 -6.99528571
v 15.08177784 4.11690524 -6.99524938
v 15.14911698 4.24901163 -6.93475350
v 15.26088410 4.21319966 -6.78804302
v 16.67039090 1.95748119 -0.07095006
v 16.75734406 2.10545558 0.01234805
v -16.67923945 6.11945996 0.00000000
v -16.81026381 6.12172608 0.03708542
v -16.74737355 6.12004195 0.00952431
v -17.83926882 0.13058793 0.67000951
v -17.74722510 0.21948444 0.60671232
v -17.72012407 0.19042598 0.56947125
v -17.70218620 0.16419398 0.52524599
v -17.69426271 0.14203321 0.47613514
v -17.69672957 0.12499524 0.42446910
v -17.62441104 0.12499524 -6.75218163
v -17.40791293 0.00000000 -7.00000000
v -17.61862475 0.12165453 -6.80745177
v -17.60238908 0.11228086 -6.85987282
v -17.57650916 0.09733908 -6.90684519
v -17.54226842 0.07757018 -6.94603946
v -17.50136486 0.05395450 -6.97551197
v -17.45582695 0.02766317 -6.99380114
v 17.62441104 0.12499524 -6.75218163
v 17.45582695 0.02766317 -6.99380114
v 17.50136486 0.05395450 -6.97551197
v 17.54226842 0.07757018 -6.94603946
v 17.57650916 0.09733908 -6.90684519
v 17.60238908 0.11228086 -6.85987282
v 17.61862475 0.12165453 -6.80745177
v 17.69672957 0.12499524 0.42446910
v 17.77623248 0.04784967 0.60052548
v 16.81026381 6.12172608 0.03708542
v 16.67923945 6.11945996 0.00000000
v 16.74737355 6.12004195 0.00952431
v -16.81589514 6.36968281 -0.24044098
v -16.91164801 6.36660629 -0.13514568
v -16.88354356 6.34891552 -0.08893543
v -16.85843093 6.31945376 -0.04722727
v -16.83761124 6.27974745 -0.01218215
v -16.82216320 6.23185384 0.01438420
v -16.81288719 6.17825437 0.03109533
v -16.67923945 6.17615314 -0.00651307
v -16.67923945 6.22989235 -0.02571294
v -16.67923945 6.27787752 -0.05659918
v -16.67923945 6.31760841 -0.09756250
v -16.67923945 6.34701485 -0.14646851
v -16.67923945 6.36456464 -0.20076899
v -16.76714267 6.29971254 -0.06640997
v -17.73064355 0.00000000 0.46628545
v -17.72195723 0.06474282 0.45557511
v -17.76863006 -0.00028631 0.59022841
v -17.62441104 -0.12499524 -6.75218163
v -17.61862475 -0.12165453 -6.80745177
v -17.60238908 -0.11228086 -6.85987282
v -17.57650916 -0.09733908 -6.90684519
v -17.54226842 -0.07757018 -6.94603946
v -17.50136486 -0.05395450 -6.97551197
v -17.45582695 -0.02766317 -6.99380114
v -17.64566601 0.07725111 -6.75239582
v -17.65653090 0.02613102 -6.75250530
v -17.65653090 -0.02613102 -6.75250530
v -17.64566601 -0.07725111 -6.75239582
v -17.45232605 0.02001692 -6.99528571
v -17.45623344 0.00422750 -6.99524938
v -17.61072731 -0.00310070 -6.93044279
v 17.62441104 -0.12499524 -6.75218163
v 17.64566601 -0.07725111 -6.75239582
v 17.65653090 -0.02613102 -6.75250530
v 17.65653090 0.02613102 -6.75250530
v 17.64566601 0.07725111 -6.75239582
v 17.45582695 -0.02766317 -6.99380114
v 17.50136486 -0.05395450 -6.97551197
v 17.54226842 -0.07757018 -6.94603946
v 17.57650916 -0.09733908 -6.90684519
v 17.60238908 -0.11228086 -6.85987282
v 17.61862475 -0.12165453 -6.80745177
v 17.44284522 0.00642616 -6.99851355
v 17.61833920 0.00000000 -6.91839107
v 17.73064355 0.00000000 0.46628545
v 17.69672957 -0.12499524 0.42446910
v 17.72195723 -0.06474282 0.45557511
v 17.69426271 -0.14203321 0.47613514
v 17.70218620 -0.16419398 0.52524599
v 17.72012407 -0.19042598 0.56947125
v 17.74722510 -0.21948444 0.60671232
v 17.83926882 -0.13058793 0.67000951
v 16.67923945 6.36934336 -0.25763463
v 16.82100654 6.36965293 -0.23390986
v 16.67923945 6.34701485 -0.14646851
v 16.67923945 6.31760841 -0.09756250
v 16.67923945 6.27787752 -0.05659918
v 16.67923945 6.22989235 -0.02571294
v 16.67923945 6.17615314 -0.00651307
v 16.81288719 6.17825437 0.03109533
v 16.82216320 6.23185384 0.01438420
v 16.83761124 6.27974745 -0.01218215
v 16.85843093 6.31945376 -0.04722727
v 16.88354356 6.34891552 -0.08893543
v 16.91164801 6.36660629 -0.13514568
v 16.76714267 6.29971251 -0.06640994
v -23.26204871 6.49045053 3.70623501
v -23.23240856 6.48544734 3.75455312
v -23.20430410 6.46775657 3.80076336
v -23.17919147 6.43829480 3.84247153
v -23.15837179 6.39858850 3.87751665
v -23.14292375 6.35069489 3.90408299
v -23.13364774 6.29709541 3.92079413
v -23.13102436 6.24056713 3.92678422
v -16.81026381 -1.92299972 0.03708542
v -16.77528560 -1.89249368 0.00859570
v -16.74818456 -1.86343522 -0.02864537
v -16.73024670 -1.83720322 -0.07287063
v -16.72232320 -1.81504245 -0.12198148
v -17.69672957 -0.12499524 0.42446910
v -17.83786980 -0.13357254 0.66916663
v -17.74722510 -0.21948444 0.60671232
v -17.72012407 -0.19042598 0.56947125
v -17.70218620 -0.16419398 0.52524599
v -17.69426271 -0.14203321 0.47613514
v -15.26088410 -4.21319966 -6.78804302
v -15.05395647 -4.07717220 -7.00000000
v -15.26466828 -4.19882672 -6.80745177
v -15.24843261 -4.18945305 -6.85987282
v -15.22255270 -4.17451128 -6.90684519
v -15.18831195 -4.15474237 -6.94603946
v -15.14740840 -4.13112670 -6.97551197
v -15.10187048 -4.10483537 -6.99380114
v 15.05395647 -4.07717220 -7.00000000
v 15.10187048 -4.10483537 -6.99380114
v 15.14740840 -4.13112670 -6.97551197
v 15.18831195 -4.15474237 -6.94603946
v 15.22255270 -4.17451128 -6.90684519
v 15.24843261 -4.18945305 -6.85987282
v 15.26466828 -4.19882672 -6.80745177
v 17.72195723 0.06474282 0.45557511
v 16.56546318 -2.07306469 -0.24576683
v 16.72232320 -1.81504245 -0.12198148
v 16.73024670 -1.83720322 -0.07287063
v 16.74818456 -1.86343522 -0.02864537
v 16.77528560 -1.89249368 0.00859570
v 16.81026381 -1.92299972 0.03708542
v 23.13102436 6.24056713 3.92678422
v 23.13364774 6.29709541 3.92079413
v 23.14292375 6.35069489 3.90408299
v 23.15837179 6.39858850 3.87751665
v 23.17919147 6.43829480 3.84247153
v 23.20430410 6.46775657 3.80076336
v 23.23240856 6.48544734 3.75455312
v 23.26204871 6.49045053 3.70623501
v -23.44436977 6.49719569 4.13225559
v -23.39152907 6.47871455 4.13282024
v -23.34412755 6.44894409 4.13372981
v -23.30454213 6.40937714 4.13493869
v -23.27475778 6.36199773 4.13638626
v -23.25626802 6.30918167 4.13799993
v -23.25000000 6.25357739 4.13969880
v -23.20924478 6.24522851 4.00306838
v -23.23974400 6.24920151 4.06808696
v -23.45233481 6.49550742 3.89201406
v -23.28101910 6.43556561 3.98202665
v -16.67923945 -2.37558685 0.00000000
v -16.63132544 -2.34792368 -0.00619886
v -16.58578752 -2.32163235 -0.02448803
v -16.54488397 -2.29801667 -0.05396054
v -16.51064322 -2.27824777 -0.09315481
v -16.48476331 -2.26330599 -0.14012718
v -16.46852763 -2.25393232 -0.19254823
v -16.46274135 -2.25059161 -0.24781837
v -16.68393664 -1.86907112 -0.20668183
v -16.75734406 -2.10545558 0.01234805
v -16.66456577 -2.01126224 -0.05872239
v -15.05395647 -4.32716268 -6.75218163
v -15.05395647 -4.32048125 -6.80745177
v -15.05395647 -4.30173391 -6.85987282
v -15.05395647 -4.27185036 -6.90684519
v -15.05395647 -4.23231255 -6.94603946
v -15.05395647 -4.18508119 -6.97551197
v -15.05395647 -4.13249854 -6.99380114
v -15.23973443 -4.24444685 -6.75239582
v -15.20089558 -4.27941616 -6.75250530
v -15.15563532 -4.30554718 -6.75250530
v -15.10593158 -4.32169796 -6.75239582
v -15.09168896 -4.10773671 -6.99542077
v -15.07445560 -4.12113273 -6.99524938
v -15.10597751 -4.21313683 -6.96393488
v -15.17292199 -4.28594269 -6.84851170
v 15.10593158 -4.32169796 -6.75239582
v 15.15563532 -4.30554718 -6.75250530
v 15.20089558 -4.27941616 -6.75250530
v 15.23973443 -4.24444685 -6.75239582
v 15.05395647 -4.13249854 -6.99380114
v 15.05395647 -4.18508119 -6.97551197
v 15.05395647 -4.23231255 -6.94603946
v 15.05395647 -4.27185036 -6.90684519
v 15.05395647 -4.30173391 -6.85987282
v 15.05395647 -4.32048125 -6.80745177
v 15.05882787 -4.12564354 -6.99528571
v 15.07445560 -4.12113273 -6.99524938
v 15.06829584 -4.32439052 -6.78804304
v 15.15519352 -4.24550334 -6.93475350
v 15.26088410 -4.21319966 -6.78804302
v 16.46274135 -2.25059161 -0.24781837
v 15.27527532 -4.34842691 -0.12250824
v 16.54488397 -2.29801667 -0.05396054
v 16.58578752 -2.32163235 -0.02448803
v 16.63132544 -2.34792368 -0.00619886
v 16.67923945 -2.37558685 0.00000000
v 16.75734406 -2.10545558 0.01234805
v 16.54872156 -2.13454256 -0.16386986
v 16.61488930 -2.14985604 -0.05971988
v 23.25000000 6.25357739 4.13969880
v 23.25626802 6.30918167 4.13799993
v 23.30454213 6.40937714 4.13493869
v 23.34412755 6.44894409 4.13372981
v 23.39134637 6.48752674 3.92951800
v 23.44436977 6.49719569 4.13225559
v 23.48735653 6.49954693 4.00590883
v 23.24220993 6.24974452 4.07697351
v 23.21902066 6.24620844 4.01910494
v 23.18071213 6.24304568 3.96734607
v 23.26484178 6.39112689 4.00432438
v -23.50000000 6.74197850 11.93881198
v -23.41449496 6.72798993 11.97466155
v -23.36262276 6.70260681 11.99692619
v -23.31568067 6.66324465 12.01757552
v -23.27994965 6.61347246 12.03389849
v -23.25760303 6.55631758 12.04490227
v -23.25000000 6.49525643 12.04991756
v -23.25000000 -6.25357739 4.13969880
v -23.13102436 -6.24056713 3.92678422
v -23.24220993 -6.24974452 4.07697351
v -23.21902066 -6.24620844 4.01910494
v -23.18071213 -6.24304568 3.96734607
v -16.81026381 -6.12172608 0.03708542
v -16.67923945 -6.11945996 0.00000000
v -16.74737355 -6.12004195 0.00952431
v -15.51972465 -4.38392540 0.00000000
v -15.47181064 -4.35626223 -0.00619886
v -15.42627272 -4.32997090 -0.02448803
v -15.38536917 -4.30635522 -0.05396054
v -15.35112842 -4.28658632 -0.09315481
v -15.32524850 -4.27164454 -0.14012718
v -15.30901283 -4.26227087 -0.19254823
v -15.30322654 -4.25893016 -0.24781837
v -15.08672844 -4.38392540 -0.24781837
v -15.21172549 -4.35043617 -0.24748090
v -15.15141882 -4.37536095 -0.24773206
v -15.26346432 -4.31067145 -0.24773206
v 15.08672844 -4.38392540 -0.24781837
v 15.30322654 -4.25893016 -0.24781837
v 15.21172549 -4.35043617 -0.24748090
v 15.26346432 -4.31067145 -0.24773206
v 15.15141882 -4.37536095 -0.24773206
v 15.30901283 -4.26227087 -0.19254823
v 15.35112842 -4.28658632 -0.09315481
v 15.38536917 -4.30635522 -0.05396054
v 15.42627272 -4.32997090 -0.02448803
v 15.43371325 -4.48685641 -0.00056702
v 15.51972465 -4.38392540 0.00000000
v 16.67923945 -6.11945996 0.00000000
v 16.81026381 -6.12172608 0.03708542
v 16.74737355 -6.12004195 0.00952431
v 23.13102436 -6.24056713 3.92678422
v 23.25000000 -6.25357739 4.13969880
v 23.20924478 -6.24522851 4.00306838
v 23.23974400 -6.24920151 4.06808696
v 23.25000000 6.49525643 12.04991756
v 23.27044597 6.59397164 12.03843138
v 23.32843959 6.67602313 12.01189946
v 23.40769846 6.72549080 11.97755350
v 23.50000000 6.74197850 11.93881198
v -27.31204701 6.85845878 15.75085864
v -27.24374126 6.83877247 15.81976519
v -27.18411763 6.77912292 15.88121128
v -27.14783930 6.70065124 15.91988714
v -27.13526544 6.60856367 15.93527508
v -23.25000000 6.48985793 12.05000000
v -23.25000000 6.49390718 12.04995363
v -23.25000000 6.49255765 12.04997939
v -23.25000000 6.49120789 12.04999485
v -23.26204871 -6.49045053 3.70623501
v -23.23240856 -6.48544734 3.75455312
v -23.20430410 -6.46775657 3.80076336
v -23.17919147 -6.43829480 3.84247153
v -23.15837179 -6.39858850 3.87751665
v -23.14292375 -6.35069489 3.90408299
v -23.13364774 -6.29709541 3.92079413
v -23.25626802 -6.30918167 4.13799993
v -23.30454213 -6.40937714 4.13493869
v -23.34412755 -6.44894409 4.13372981
v -23.39134637 -6.48752674 3.92951800
v -23.26674675 -6.39045190 4.00826034
v -16.67923945 -6.36934336 -0.25763463
v -16.82100654 -6.36965293 -0.23390986
v -16.67923945 -6.34701485 -0.14646851
v -16.67923945 -6.31760841 -0.09756250
v -16.67923945 -6.27787752 -0.05659918
v -16.67923945 -6.22989235 -0.02571294
v -16.67923945 -6.17615314 -0.00651307
v -16.81288719 -6.17825437 0.03109533
v -16.82216320 -6.23185384 0.01438420
v -16.83761124 -6.27974745 -0.01218215
v -16.85843093 -6.31945376 -0.04722727
v -16.88354356 -6.34891552 -0.08893543
v -16.91164801 -6.36660629 -0.13514568
v -16.76714267 -6.29971251 -0.06640994
v -15.26463752 -4.43731670 -0.03191800
v 15.08672844 -4.39060683 -0.19254823
v 15.08672844 -4.40935417 -0.14012718
v 15.17638508 -4.45059192 -0.07192373
v 15.08672844 -4.47877553 -0.05396054
v 15.08672844 -4.52600688 -0.02448803
v 15.08672844 -4.57858954 -0.00619886
v 15.08672844 -4.63391588 0.00000000
v 15.29521988 -4.47548300 -0.01280891
v 16.67923945 -6.36934336 -0.25763463
v 16.81754434 -6.36975588 -0.23925129
v 16.91164801 -6.36660629 -0.13514568
v 16.88354356 -6.34891552 -0.08893543
v 16.85843093 -6.31945376 -0.04722727
v 16.83761124 -6.27974745 -0.01218215
v 16.82216320 -6.23185384 0.01438420
v 16.81288719 -6.17825437 0.03109533
v 16.67923945 -6.17615314 -0.00651307
v 16.67923945 -6.22989235 -0.02571294
v 16.67923945 -6.27787752 -0.05659918
v 16.67923945 -6.31760841 -0.09756250
v 16.67923945 -6.34701485 -0.14646851
v 16.67923945 -6.36456464 -0.20076899
v 16.76714267 -6.29971254 -0.06640997
v 23.26204871 -6.49045053 3.70623501
v 23.45233481 -6.49550742 3.89201406
v 23.44436977 -6.49719569 4.13225559
v 23.39152907 -6.47871455 4.13282024
v 23.34412755 -6.44894409 4.13372981
v 23.30454213 -6.40937714 4.13493869
v 23.27475778 -6.36199773 4.13638626
v 23.25626802 -6.30918167 4.13799993
v 23.13364774 -6.29709541 3.92079413
v 23.14292375 -6.35069489 3.90408299
v 23.15837179 -6.39858850 3.87751665
v 23.17919147 -6.43829480 3.84247153
v 23.20430410 -6.46775657 3.80076336
v 23.23240856 -6.48544734 3.75455312
v 23.28101910 -6.43556561 3.98202665
v 27.13526998 6.60856366 15.93526998
v 27.13896321 6.66493242 15.92985453
v 27.17245496 6.76620165 15.89326873
v 27.23434676 6.83539930 15.82926274
v 27.27216935 6.85322649 15.79089549
v 23.25000000 6.48985793 12.05000000
v 23.25000000 6.49120789 12.04999485
v 23.25000000 6.49255765 12.04997939
v 23.25000000 6.49390718 12.04995363
v -23.25000000 -6.49525643 12.04991756
v -23.27044597 -6.59397164 12.03843138
v -23.32843959 -6.67602313 12.01189946
v -23.40769846 -6.72549080 11.97755350
v -24.33135629 -6.73934913 11.13591047
v -15.21476847 -4.61800334 -0.00017712
v -15.08672844 -4.57858954 -0.00619886
v -15.08672844 -4.52600688 -0.02448803
v -15.08672844 -4.47877553 -0.05396054
v -15.08672844 -4.43923772 -0.09315481
v -15.08672844 -4.40935417 -0.14012718
v -15.08672844 -4.39060683 -0.19254823
v 23.50000000 -6.74197850 11.93881198
v 23.41449496 -6.72798993 11.97466155
v 23.36262276 -6.70260681 11.99692619
v 23.31568067 -6.66324465 12.01757552
v 23.27994965 -6.61347246 12.03389849
v 23.25760303 -6.55631758 12.04490227
v 23.25000000 -6.49525643 12.04991756
v 27.31586399 6.35856364 16.11586399
v 27.35963267 6.35856364 16.15076835
v 27.46464957 6.35856364 16.18751535
v 27.57521045 6.35856364 16.17505813
v 27.62564871 6.35856364 16.15076835
v 27.66941738 6.35856364 16.11586399
v 27.26627520 6.54299585 16.06699643
v 27.24654718 6.68531252 16.01854928
v 27.28689094 6.77251180 15.98088184
v 27.55394719 6.54962312 16.15649084
v 27.43253181 6.83033111 15.92687384
v 27.39745970 6.47231127 16.16409679
v -27.66941738 -6.35856364 16.11586399
v -27.62564871 -6.35856364 16.15076835
v -27.52063181 -6.35856364 16.18751535
v -27.46464957 -6.35856364 16.18751535
v -27.41007092 -6.35856364 16.17505813
v -27.35963267 -6.35856364 16.15076835
v -27.31586399 6.35856364 16.11586399
v -27.62564871 6.35856364 16.15076835
v -27.57521045 6.35856364 16.17505813
v -27.51022787 6.53952043 16.16642439
v -27.46464957 6.35856364 16.18751535
v -27.41007092 6.35856364 16.17505813
v -27.35963267 6.35856364 16.15076835
v -23.25000000 -6.48985793 12.05000000
v -23.25000000 -6.49120789 12.04999485
v -23.25000000 -6.49255765 12.04997939
v -23.25000000 -6.49390718 12.04995363
v -27.13527038 -6.60856367 15.93526978
v -27.14918851 -6.70511706 15.91840148
v -27.19138679 -6.78939828 15.87362818
v -27.24690054 -6.84067966 15.81654763
v 23.25000000 -6.48985793 12.05000000
v 27.13526998 -6.60856366 15.93526998
v 23.25000000 -6.49390718 12.04995363
v 23.25000000 -6.49255765 12.04997939
v 23.25000000 -6.49120789 12.04999485
v 27.46106383 -6.84070674 15.88014003
v 27.27216935 -6.85322649 15.79089549
v 27.23434676 -6.83539930 15.82926274
v 27.20052778 -6.80588409 15.86398350
v 27.17245496 -6.76620165 15.89326873
v 27.15157481 -6.71839668 15.91560945
v 27.13896321 -6.66493242 15.92985453
v 27.28975315 -6.65024934 16.07326562
v 27.35963267 -6.35856364 16.15076835
v 27.41007092 -6.35856364 16.17505813
v 27.52063181 -6.35856364 16.18751535
v 27.57521045 -6.35856364 16.17505813
v 27.62564871 -6.35856364 16.15076835
v 27.66941738 -6.35856364 16.11586399
v -27.31445373 -6.57277893 16.10763384
v -27.55763599 -6.55298159 16.16230152
v -27.30648079 -6.83135445 15.96009223
v 27.49551026 -6.67414528 16.12864056
v -28.37652416 6.33695957 15.40875721
v 19.28565213 -0.23587034 -3.36331264
v 19.81528865 -0.42593507 -2.23251581
v 15.37403740 0.14392162 -8.44709064
v 0.07608407 -0.04127942 -7.95327103
v -14.01069670 -1.85102692 -8.22866664
v -19.24044734 -0.00000000 -4.47643531
v -19.04087175 -1.59295643 -3.86159523
v 23.25000000 4.50000000 11.00000000
v 23.25000000 -4.50000000 11.00000000
v -23.25000000 4.50000000 11.00000000
v -23.25000000 -4.50000000 11.00000000
v 14.82937328 6.23425577 -1.49112674
v -15.30312860 4.47369092 -0.01134312
v 18.63612616 -2.78287648 -8.97323406
v 19.04081635 1.59304773 -3.86181802
v 19.04389870 -1.60004953 -3.70716604
v -27.65298369 6.51663881 16.10847151
v -27.27534436 6.79276809 16.01499825
v -17.72195723 -0.06474282 0.45557511
v 29.82502720 -0.85903523 13.70479282
v 29.84138847 0.92784044 13.80840038
v -29.98052194 0.76887025 13.83207257
v -28.41142852 6.33695957 15.36498853
v -28.43571830 6.33695957 15.31455028
v -28.44817552 6.33695957 15.25997163
v -28.44817552 6.33695957 15.20398940
v -28.43571830 6.33695957 15.14941075
v -28.41142852 6.33695957 15.09897250
v -28.33398456 6.58249352 15.01885005
f 1 7 13
f 13 5 6
f 13 4 5
f 13 3 4
f 7 3 13
f 7 2 3
f 2 8 9
f 2 7 8
f 3 9 10
f 3 2 9
f 4 10 11
f 4 3 10
f 5 11 12
f 5 4 11
f 6 12 14
f 6 5 12
f 14 12 11
f 15 11 10
f 15 14 11
f 15 10 9
f 15 9 8
f 15 8 16
f 20 21 17
f 19 20 17
f 19 17 18
f 17 21 22
f 18 22 23
f 18 17 22
f 19 18 23
f 20 19 24
f 21 23 22
f 25 23 21
f 32 29 30
f 32 28 29
f 32 27 28
f 32 26 27
f 32 1353 26
f 37 34 35
f 37 39 33
f 37 33 34
f 37 35 36
f 39 37 38
f 44 1355 39
f 44 39 38
f 43 37 36
f 43 38 37
f 43 44 38
f 42 43 36
f 41 35 34
f 41 36 35
f 41 42 36
f 50 41 34
f 40 34 33
f 40 50 34
f 401 33 31
f 401 40 33
f 1353 52 45
f 26 45 46
f 26 1353 45
f 27 46 47
f 27 26 46
f 28 47 48
f 28 27 47
f 29 48 218
f 29 28 48
f 30 29 218
f 48 45 218
f 50 40 401
f 51 42 41
f 51 41 50
f 51 43 42
f 51 44 43
f 51 1355 44
f 49 51 50
f 45 48 47
f 45 47 46
f 55 53 54
f 56 53 55
f 57 53 56
f 1379 53 57
f 58 1379 57
f 71 65 64
f 71 68 59
f 71 66 65
f 71 67 66
f 71 60 67
f 71 69 68
f 71 70 69
f 71 62 61
f 71 63 62
f 71 64 63
f 71 61 70
f 54 72 73
f 55 73 97
f 55 97 74
f 55 54 73
f 56 74 75
f 56 55 74
f 57 75 98
f 57 98 76
f 57 56 75
f 58 76 77
f 58 57 76
f 59 82 106
f 68 81 114
f 68 114 82
f 68 82 59
f 69 80 81
f 69 81 68
f 70 79 113
f 70 113 80
f 70 80 69
f 61 78 79
f 61 79 70
f 71 59 83
f 71 83 1372
f 97 73 72
f 98 92 77
f 98 77 76
f 98 93 92
f 97 72 99
f 98 94 93
f 99 95 94
f 99 84 85
f 99 85 86
f 99 96 95
f 99 86 87
f 99 89 90
f 99 90 91
f 99 91 96
f 97 75 74
f 97 98 75
f 99 94 98
f 99 98 97
f 99 87 88
f 99 88 89
f 113 78 105
f 113 79 78
f 113 105 104
f 113 104 103
f 114 103 102
f 114 113 103
f 106 110 111
f 106 111 112
f 114 102 101
f 114 101 100
f 114 100 107
f 114 107 108
f 113 81 80
f 114 81 113
f 114 110 106
f 114 108 109
f 114 109 110
f 114 106 82
f 84 156 115
f 85 115 116
f 85 84 115
f 86 116 117
f 86 85 116
f 87 117 118
f 87 86 117
f 88 118 119
f 88 87 118
f 89 119 120
f 89 88 119
f 90 120 121
f 90 89 120
f 91 90 121
f 112 123 106
f 112 129 123
f 111 128 129
f 111 129 112
f 110 127 128
f 110 128 111
f 109 126 127
f 109 127 110
f 108 125 126
f 108 126 109
f 107 124 125
f 107 125 108
f 100 122 124
f 100 124 107
f 137 1372 143
f 136 143 142
f 136 137 143
f 135 142 141
f 135 136 142
f 134 141 140
f 134 135 141
f 133 140 139
f 133 134 140
f 132 139 138
f 132 133 139
f 131 138 83
f 131 132 138
f 130 131 83
f 156 148 149
f 156 149 150
f 156 150 151
f 156 151 159
f 156 146 147
f 156 144 145
f 156 145 146
f 156 158 157
f 160 155 154
f 160 154 153
f 160 153 152
f 160 152 121
f 160 120 119
f 160 121 120
f 160 118 117
f 160 119 118
f 156 116 115
f 156 117 116
f 156 160 117
f 156 147 148
f 156 159 158
f 160 156 155
f 173 162 161
f 173 161 169
f 173 170 172
f 173 164 163
f 173 165 164
f 173 166 165
f 172 167 166
f 172 166 173
f 172 122 168
f 172 124 122
f 172 125 124
f 172 126 125
f 172 127 126
f 172 128 127
f 172 129 128
f 172 123 129
f 173 163 162
f 172 168 167
f 182 131 130
f 182 132 131
f 182 135 134
f 182 136 135
f 182 137 136
f 182 130 181
f 182 181 174
f 182 174 175
f 182 175 176
f 182 178 179
f 182 179 180
f 182 133 132
f 182 134 133
f 182 176 177
f 182 177 178
f 144 219 183
f 145 183 184
f 145 144 183
f 146 184 185
f 146 145 184
f 147 185 186
f 147 146 185
f 148 186 187
f 148 147 186
f 149 187 188
f 149 148 187
f 150 188 189
f 150 149 188
f 151 150 189
f 172 193 253
f 172 253 171
f 170 192 193
f 170 193 172
f 173 192 170
f 169 191 190
f 169 190 192
f 169 192 173
f 161 218 191
f 161 191 169
f 174 194 195
f 174 181 194
f 175 195 196
f 175 174 195
f 176 196 197
f 176 175 196
f 177 197 198
f 177 176 197
f 178 198 199
f 178 177 198
f 179 199 200
f 179 178 199
f 180 200 227
f 180 179 200
f 207 237 208
f 207 208 214
f 206 214 213
f 206 207 214
f 205 213 212
f 205 206 213
f 204 212 211
f 204 205 212
f 203 211 210
f 203 204 211
f 202 210 209
f 202 203 210
f 201 209 1372
f 201 202 209
f 216 71 1372
f 215 216 208
f 188 218 189
f 218 186 185
f 218 187 186
f 218 188 187
f 219 184 183
f 219 185 184
f 219 218 185
f 192 190 220
f 253 192 220
f 193 192 253
f 228 224 225
f 228 225 226
f 171 224 228
f 171 221 222
f 171 222 223
f 171 223 224
f 171 200 199
f 171 227 200
f 171 198 197
f 171 199 198
f 171 195 194
f 171 196 195
f 171 197 196
f 238 233 234
f 238 234 235
f 238 232 233
f 238 236 229
f 238 229 230
f 237 207 206
f 238 204 203
f 238 202 201
f 238 203 202
f 238 230 231
f 238 231 232
f 238 205 204
f 238 206 205
f 238 237 206
f 216 242 243
f 216 243 244
f 216 244 245
f 216 245 246
f 216 239 240
f 216 240 241
f 216 247 239
f 216 241 242
f 216 248 247
f 216 249 248
f 216 215 249
f 218 219 250
f 251 251 252
f 251 252 274
f 253 220 274
f 253 274 275
f 260 228 226
f 260 273 228
f 259 226 225
f 259 260 226
f 258 225 224
f 258 259 225
f 257 224 223
f 257 258 224
f 256 223 222
f 256 257 223
f 255 222 221
f 255 256 222
f 254 255 221
f 229 261 262
f 229 236 261
f 230 262 263
f 230 229 262
f 231 263 264
f 231 230 263
f 232 264 265
f 232 231 264
f 233 265 266
f 233 232 265
f 234 266 284
f 234 284 267
f 234 233 266
f 235 234 267
f 239 272 268
f 247 299 272
f 247 272 239
f 271 299 247
f 248 270 271
f 248 271 247
f 249 269 298
f 249 298 270
f 249 270 248
f 215 297 269
f 215 269 249
f 251 275 252
f 275 255 254
f 275 256 255
f 275 257 256
f 275 259 258
f 275 260 259
f 275 273 260
f 275 258 257
f 274 252 275
f 284 262 261
f 284 263 262
f 284 264 263
f 284 265 264
f 284 266 265
f 284 283 276
f 284 276 277
f 284 277 278
f 284 278 279
f 284 279 280
f 284 280 281
f 284 281 282
f 297 291 292
f 297 292 293
f 298 290 289
f 298 295 296
f 298 296 290
f 298 289 288
f 298 288 287
f 299 287 286
f 299 298 287
f 298 269 297
f 299 286 285
f 299 268 272
f 299 285 268
f 298 293 294
f 298 294 295
f 298 297 293
f 298 271 270
f 298 299 271
f 307 308 300
f 308 306 305
f 308 307 306
f 308 305 304
f 301 303 302
f 301 304 303
f 301 308 304
f 315 332 282
f 315 282 281
f 314 281 280
f 314 315 281
f 313 280 279
f 313 314 280
f 312 279 278
f 312 313 279
f 311 278 277
f 311 312 278
f 310 277 276
f 310 311 277
f 309 276 283
f 309 310 276
f 296 317 290
f 296 322 317
f 295 321 322
f 295 322 296
f 294 320 321
f 294 321 295
f 293 319 337
f 293 337 320
f 293 320 294
f 292 318 319
f 292 319 293
f 291 316 318
f 291 318 292
f 297 316 291
f 324 323 325
f 331 325 365
f 331 324 325
f 326 331 365
f 330 326 327
f 330 331 326
f 329 327 1279
f 329 1279 328
f 329 330 327
f 335 310 309
f 335 311 310
f 335 312 311
f 335 313 312
f 335 314 313
f 335 315 314
f 335 332 315
f 335 333 332
f 335 371 333
f 338 317 322
f 337 321 320
f 337 318 316
f 337 319 318
f 337 340 339
f 337 341 340
f 350 342 341
f 350 344 343
f 350 345 344
f 350 349 345
f 351 336 346
f 351 346 347
f 337 322 321
f 337 338 322
f 337 339 338
f 337 350 341
f 351 350 337
f 351 348 350
f 358 359 366
f 358 356 357
f 366 352 353
f 366 353 354
f 366 360 352
f 366 361 360
f 366 362 361
f 365 363 362
f 365 364 363
f 365 325 323
f 365 323 364
f 366 354 355
f 366 355 356
f 366 356 358
f 366 365 362
f 1279 365 366
f 1279 326 365
f 1279 327 326
f 335 369 371
f 334 334 369
f 334 369 335
f 370 371 368
f 333 371 367
f 345 373 401
f 349 374 373
f 349 377 374
f 349 373 345
f 350 377 349
f 348 376 377
f 348 377 350
f 351 376 348
f 347 375 376
f 347 376 351
f 346 372 375
f 346 375 347
f 336 372 346
f 352 378 379
f 353 379 380
f 353 352 379
f 354 380 381
f 354 353 380
f 355 381 382
f 355 354 381
f 356 382 383
f 356 355 382
f 357 383 384
f 357 356 383
f 358 357 384
f 359 384 391
f 359 358 384
f 375 372 333
f 367 375 333
f 376 375 367
f 371 376 367
f 370 377 376
f 370 376 371
f 368 374 377
f 368 377 370
f 400 379 378
f 400 380 379
f 400 381 380
f 400 378 398
f 391 382 381
f 391 383 382
f 391 381 400
f 391 384 383
f 400 397 396
f 400 396 395
f 399 395 394
f 399 394 393
f 399 393 392
f 399 392 385
f 399 386 387
f 399 387 388
f 399 388 391
f 391 388 389
f 391 389 390
f 400 398 397
f 400 399 391
f 400 395 399
f 385 401 402
f 399 385 402
f 386 402 403
f 386 399 402
f 387 403 404
f 387 386 403
f 388 404 405
f 388 387 404
f 389 405 408
f 389 408 406
f 389 388 405
f 390 406 407
f 390 389 406
f 391 390 407
f 403 402 401
f 408 407 406
f 401 404 403
f 408 405 404
f 408 404 401
f 408 401 409
f 424 410 411
f 424 432 410
f 423 411 412
f 423 424 411
f 422 412 413
f 422 423 412
f 421 413 414
f 421 422 413
f 420 414 415
f 420 421 414
f 419 415 416
f 419 420 415
f 418 416 417
f 418 419 416
f 430 431 433
f 418 434 419
f 433 427 428
f 433 428 429
f 434 425 426
f 432 424 423
f 434 422 421
f 434 423 422
f 434 432 423
f 434 420 419
f 433 429 430
f 433 426 427
f 433 434 426
f 434 421 420
f 446 411 410
f 436 446 435
f 446 414 413
f 446 438 439
f 446 412 411
f 446 413 412
f 446 443 417
f 446 416 415
f 446 417 416
f 446 415 414
f 446 436 437
f 446 437 438
f 446 444 443
f 446 445 444
f 446 439 440
f 446 440 441
f 446 441 442
f 446 442 445
f 453 475 431
f 453 431 430
f 452 430 429
f 452 453 430
f 451 429 428
f 451 452 429
f 450 428 427
f 450 451 428
f 449 427 426
f 449 450 427
f 448 426 425
f 448 449 426
f 447 425 434
f 447 448 425
f 461 442 441
f 460 441 440
f 460 461 441
f 459 440 439
f 459 460 440
f 458 439 438
f 458 459 439
f 457 438 437
f 457 458 438
f 456 437 436
f 456 457 437
f 455 436 435
f 455 456 436
f 454 455 435
f 463 442 494
f 463 445 442
f 495 445 463
f 464 444 445
f 464 445 495
f 465 444 464
f 443 444 465
f 496 443 465
f 466 417 443
f 466 443 496
f 462 417 466
f 481 472 473
f 481 473 474
f 481 471 472
f 481 467 468
f 481 468 469
f 481 476 467
f 481 477 476
f 481 478 477
f 481 474 475
f 481 479 478
f 481 453 452
f 481 475 453
f 481 450 449
f 481 448 447
f 481 449 448
f 481 447 480
f 481 469 470
f 481 470 471
f 481 451 450
f 481 452 451
f 481 480 479
f 494 488 489
f 494 489 490
f 495 487 486
f 495 492 493
f 495 493 487
f 495 486 485
f 495 485 484
f 496 484 483
f 496 495 484
f 495 463 494
f 496 483 482
f 496 462 466
f 496 482 462
f 495 490 491
f 495 491 492
f 495 494 490
f 495 465 464
f 495 496 465
f 504 474 473
f 503 473 472
f 503 504 473
f 502 472 471
f 502 503 472
f 501 471 470
f 501 502 471
f 500 470 469
f 500 501 470
f 499 469 468
f 499 500 469
f 498 468 467
f 498 499 468
f 497 498 467
f 514 454 505
f 514 505 506
f 515 506 507
f 515 514 506
f 516 507 508
f 516 515 507
f 517 508 509
f 517 516 508
f 518 509 510
f 518 517 509
f 519 510 511
f 519 518 510
f 513 511 512
f 513 519 511
f 527 520 521
f 527 513 520
f 528 521 522
f 528 527 521
f 529 522 523
f 529 528 522
f 530 523 524
f 530 529 523
f 531 524 525
f 531 530 524
f 532 525 565
f 532 565 526
f 532 531 525
f 461 532 526
f 533 488 494
f 535 489 488
f 535 488 533
f 536 490 489
f 536 489 535
f 582 490 536
f 537 491 490
f 537 490 582
f 538 492 491
f 538 491 537
f 539 493 492
f 539 492 538
f 534 487 493
f 534 493 539
f 555 498 497
f 555 499 498
f 555 500 499
f 555 497 554
f 555 501 500
f 555 502 501
f 555 503 502
f 555 504 503
f 555 553 552
f 555 552 551
f 555 551 550
f 555 550 549
f 555 549 548
f 555 540 541
f 555 541 542
f 555 548 540
f 555 542 543
f 555 543 544
f 555 544 545
f 555 545 546
f 555 546 547
f 555 554 553
f 560 561 562
f 560 562 564
f 564 563 556
f 564 556 557
f 564 523 522
f 564 524 523
f 564 521 520
f 564 522 521
f 560 557 558
f 560 558 559
f 560 564 557
f 565 525 524
f 565 524 564
f 579 539 538
f 579 534 539
f 579 567 534
f 579 537 582
f 579 538 537
f 582 535 533
f 582 536 535
f 579 569 568
f 579 570 569
f 581 571 570
f 581 573 572
f 581 574 573
f 581 578 574
f 580 566 575
f 580 575 576
f 579 568 567
f 579 581 570
f 579 580 581
f 582 580 579
f 580 577 581
f 582 566 580
f 589 620 547
f 589 547 546
f 588 546 545
f 588 589 546
f 587 545 544
f 587 588 545
f 586 544 543
f 586 587 544
f 585 543 542
f 585 586 543
f 584 542 541
f 584 585 542
f 583 541 540
f 583 584 541
f 594 505 590
f 594 590 591
f 593 591 592
f 593 594 591
f 593 595 596
f 602 596 597
f 602 593 596
f 603 597 598
f 603 602 597
f 604 598 599
f 604 603 598
f 605 599 600
f 605 604 599
f 606 600 601
f 606 605 600
f 1370 606 601
f 512 601 638
f 512 1370 601
f 612 649 562
f 612 562 561
f 611 560 559
f 611 561 560
f 611 612 561
f 648 611 559
f 610 559 558
f 610 648 559
f 609 558 557
f 609 610 558
f 608 557 556
f 608 609 557
f 607 556 563
f 607 608 556
f 613 575 566
f 617 576 575
f 617 575 613
f 618 580 576
f 618 577 580
f 618 576 617
f 619 581 577
f 619 578 581
f 619 577 618
f 616 578 619
f 615 574 578
f 615 578 616
f 614 574 615
f 614 584 583
f 585 584 614
f 614 586 585
f 620 589 588
f 620 614 1362
f 614 587 586
f 614 588 587
f 614 620 588
f 591 627 592
f 591 628 627
f 630 621 622
f 630 623 624
f 630 591 590
f 591 629 628
f 591 630 624
f 591 625 626
f 591 626 629
f 595 597 596
f 639 600 599
f 639 601 600
f 639 638 601
f 639 595 698
f 639 698 631
f 639 631 632
f 639 632 633
f 639 635 636
f 639 636 637
f 639 598 597
f 639 599 598
f 639 597 595
f 639 633 634
f 639 634 635
f 714 608 607
f 714 609 608
f 714 610 609
f 648 610 714
f 649 611 648
f 649 612 611
f 649 647 640
f 649 640 641
f 649 641 642
f 649 642 643
f 649 643 644
f 649 644 645
f 649 645 646
f 649 648 714
f 652 650 616
f 619 652 616
f 618 679 652
f 618 652 619
f 651 679 618
f 617 651 618
f 717 651 617
f 613 717 617
f 622 653 688
f 622 688 654
f 622 621 653
f 630 622 654
f 623 654 655
f 623 630 654
f 624 655 689
f 624 689 656
f 624 623 655
f 591 624 656
f 625 656 690
f 625 690 657
f 625 591 656
f 626 625 657
f 659 626 658
f 659 629 626
f 705 629 659
f 660 628 629
f 660 629 705
f 661 627 628
f 661 628 660
f 706 627 661
f 662 592 627
f 662 627 706
f 698 592 662
f 669 714 637
f 669 637 636
f 668 636 635
f 668 669 636
f 667 635 634
f 667 668 635
f 666 634 633
f 666 667 634
f 665 633 632
f 665 666 633
f 664 632 631
f 664 665 632
f 663 631 698
f 663 664 631
f 640 670 671
f 640 647 670
f 641 671 672
f 641 640 671
f 642 672 673
f 642 641 672
f 643 673 674
f 643 642 673
f 644 674 675
f 644 643 674
f 645 675 676
f 645 644 675
f 646 676 716
f 646 645 676
f 677 680 678
f 677 677 678
f 679 650 652
f 679 651 717
f 679 717 718
f 679 718 680
f 682 689 681
f 689 654 688
f 689 655 654
f 690 689 691
f 689 683 684
f 689 684 685
f 689 690 656
f 689 682 683
f 691 685 686
f 691 689 685
f 706 698 662
f 705 658 697
f 705 659 658
f 705 697 696
f 705 696 695
f 706 695 694
f 706 705 695
f 698 702 703
f 698 703 704
f 706 694 693
f 706 693 692
f 706 692 699
f 706 699 700
f 706 661 660
f 706 660 705
f 706 702 698
f 706 700 701
f 706 701 702
f 715 712 713
f 715 710 711
f 764 707 708
f 764 708 709
f 764 709 710
f 764 710 715
f 764 667 666
f 764 668 667
f 764 669 668
f 764 714 669
f 764 664 663
f 764 665 664
f 764 666 665
f 764 715 714
f 1351 680 718
f 678 680 1351
f 677 678 1351
f 718 671 670
f 718 672 671
f 718 673 672
f 718 674 673
f 718 675 674
f 718 676 675
f 718 716 676
f 718 717 716
f 725 726 687
f 725 691 686
f 725 687 691
f 724 686 685
f 724 725 686
f 723 685 684
f 723 724 685
f 722 684 683
f 722 723 684
f 721 683 682
f 721 722 683
f 720 682 681
f 720 721 682
f 719 720 681
f 729 692 727
f 729 699 692
f 730 700 699
f 730 699 729
f 731 701 700
f 731 700 730
f 732 702 701
f 732 701 731
f 733 703 702
f 733 702 732
f 734 704 703
f 734 703 733
f 728 698 704
f 728 704 734
f 707 735 736
f 708 736 737
f 708 707 736
f 709 737 738
f 709 708 737
f 710 738 739
f 710 709 738
f 711 739 740
f 711 710 739
f 715 711 740
f 712 740 741
f 712 715 740
f 713 741 1352
f 713 712 741
f 755 720 719
f 755 721 720
f 755 724 723
f 755 750 726
f 755 725 724
f 755 726 725
f 755 751 750
f 755 752 751
f 755 753 752
f 755 742 743
f 755 743 744
f 755 754 753
f 755 744 745
f 755 747 748
f 755 748 749
f 755 749 754
f 755 722 721
f 755 723 722
f 755 745 746
f 755 746 747
f 769 757 756
f 769 756 765
f 769 766 770
f 770 767 768
f 770 768 764
f 769 759 758
f 769 760 759
f 769 761 760
f 769 762 761
f 769 727 763
f 769 729 727
f 769 730 729
f 769 731 730
f 769 732 731
f 769 733 732
f 769 734 733
f 769 728 734
f 769 758 757
f 769 770 764
f 769 763 762
f 773 1351 772
f 791 740 739
f 791 741 740
f 791 1352 741
f 791 739 738
f 791 735 771
f 791 737 736
f 791 738 737
f 791 736 735
f 780 749 748
f 779 748 747
f 779 780 748
f 778 747 746
f 778 779 747
f 777 746 745
f 777 778 746
f 776 745 744
f 776 777 745
f 775 744 743
f 775 776 744
f 774 743 742
f 774 775 743
f 805 774 742
f 782 765 756
f 782 756 817
f 781 765 782
f 784 769 765
f 784 766 769
f 784 765 781
f 785 770 766
f 785 767 770
f 785 766 784
f 786 768 767
f 786 767 785
f 783 764 768
f 783 768 786
f 772 1351 787
f 773 773 772
f 773 772 787
f 790 788 791
f 1351 791 787
f 792 771 789
f 792 790 791
f 791 771 792
f 805 797 798
f 805 798 799
f 805 799 800
f 805 800 808
f 805 795 796
f 805 793 794
f 805 794 795
f 805 807 806
f 809 804 803
f 809 803 802
f 809 802 801
f 809 801 780
f 809 779 778
f 809 780 779
f 809 777 776
f 809 778 777
f 805 775 774
f 805 776 775
f 805 809 776
f 805 796 797
f 805 808 807
f 809 805 804
f 786 771 783
f 786 789 771
f 785 792 789
f 785 789 786
f 784 790 792
f 784 792 785
f 781 788 790
f 781 790 784
f 816 800 799
f 815 799 798
f 815 816 799
f 814 798 797
f 814 815 798
f 813 797 796
f 813 814 797
f 812 796 795
f 812 813 796
f 811 795 794
f 811 812 795
f 810 794 793
f 810 811 794
f 818 810 793
f 815 817 816
f 810 818 811
f 817 812 811
f 817 813 812
f 817 811 818
f 817 814 813
f 817 815 814
f 31 817 818
f 825 826 827
f 825 827 828
f 824 828 829
f 824 825 828
f 823 829 830
f 823 824 829
f 822 830 836
f 822 836 831
f 822 823 830
f 821 831 832
f 821 822 831
f 820 821 832
f 819 832 833
f 819 820 832
f 835 836 834
f 832 835 833
f 831 836 835
f 831 835 832
f 828 1363 829
f 827 1363 828
f 836 829 1363
f 836 830 829
f 839 847 837
f 840 839 838
f 841 847 839
f 841 839 840
f 845 847 844
f 846 847 845
f 847 841 842
f 847 842 843
f 847 843 844
f 857 848 849
f 858 849 850
f 858 857 849
f 859 850 851
f 859 858 850
f 860 851 852
f 860 859 851
f 861 852 853
f 861 860 852
f 862 853 854
f 862 861 853
f 863 854 855
f 863 862 854
f 856 863 855
f 833 870 866
f 835 869 870
f 835 870 833
f 834 868 869
f 834 869 835
f 865 867 868
f 865 868 834
f 856 864 867
f 856 867 865
f 838 876 923
f 839 875 876
f 839 876 838
f 837 874 875
f 837 875 839
f 872 873 874
f 872 874 837
f 819 871 873
f 819 873 872
f 883 884 846
f 883 846 845
f 882 845 844
f 882 883 845
f 881 844 843
f 881 882 844
f 880 843 842
f 880 881 843
f 879 842 841
f 879 880 842
f 878 841 840
f 878 879 841
f 877 840 838
f 877 878 840
f 848 891 849
f 892 887 888
f 890 892 888
f 892 885 886
f 892 886 887
f 892 891 885
f 890 854 853
f 890 855 854
f 892 852 851
f 892 853 852
f 892 890 853
f 892 850 849
f 892 851 850
f 892 849 891
f 905 893 894
f 906 894 895
f 906 905 894
f 906 895 896
f 905 903 904
f 906 896 897
f 906 902 903
f 906 903 905
f 906 897 898
f 906 901 902
f 906 866 870
f 906 898 866
f 906 870 869
f 906 900 901
f 906 899 900
f 906 869 868
f 906 868 867
f 906 867 864
f 906 864 899
f 920 907 908
f 921 907 907
f 921 907 920
f 922 908 909
f 922 920 908
f 922 907 921
f 922 921 920
f 922 909 910
f 922 919 907
f 922 910 911
f 922 918 919
f 922 911 912
f 922 917 918
f 922 912 913
f 922 916 917
f 923 922 913
f 922 876 875
f 922 923 876
f 922 915 916
f 922 914 915
f 922 875 874
f 922 874 873
f 871 922 873
f 871 914 922
f 924 878 877
f 924 879 878
f 924 880 879
f 924 881 880
f 924 882 881
f 924 883 882
f 924 951 925
f 924 925 884
f 924 884 883
f 891 927 885
f 891 928 927
f 848 926 928
f 848 928 891
f 885 929 930
f 886 930 931
f 886 885 930
f 887 931 932
f 887 886 931
f 888 932 933
f 888 887 932
f 890 888 933
f 889 933 934
f 889 890 933
f 904 936 905
f 904 942 936
f 903 941 942
f 903 942 904
f 902 940 941
f 902 941 903
f 901 939 940
f 901 940 902
f 900 938 939
f 900 939 901
f 899 937 938
f 899 938 900
f 864 935 937
f 864 937 899
f 907 893 905
f 919 894 893
f 919 893 907
f 918 895 894
f 918 894 919
f 917 896 895
f 917 895 918
f 916 897 896
f 916 896 917
f 915 898 897
f 915 897 916
f 914 866 898
f 914 898 915
f 871 866 914
f 944 907 997
f 944 908 907
f 945 909 908
f 945 908 944
f 946 910 909
f 946 909 945
f 947 911 910
f 947 910 946
f 948 912 911
f 948 911 947
f 949 913 912
f 949 912 948
f 943 923 913
f 943 913 949
f 950 951 924
f 954 953 884
f 925 952 954
f 925 954 884
f 951 952 925
f 966 967 955
f 957 966 955
f 957 955 956
f 928 926 962
f 928 962 963
f 928 963 960
f 961 928 960
f 927 928 961
f 968 963 964
f 968 964 965
f 968 965 966
f 968 960 963
f 968 957 958
f 968 958 959
f 968 959 960
f 968 966 957
f 970 971 969
f 933 970 934
f 971 932 931
f 971 933 932
f 971 970 933
f 971 931 930
f 971 930 929
f 983 936 942
f 984 936 936
f 984 936 983
f 985 942 941
f 985 983 942
f 985 936 984
f 985 984 983
f 985 941 940
f 985 978 936
f 985 940 939
f 985 977 978
f 985 939 938
f 985 976 977
f 985 938 937
f 985 975 976
f 985 935 979
f 985 937 935
f 985 979 980
f 985 974 975
f 985 973 974
f 985 980 981
f 985 981 982
f 985 972 973
f 985 982 972
f 998 991 992
f 998 997 991
f 998 992 993
f 998 993 994
f 998 945 944
f 998 944 997
f 998 994 995
f 998 946 945
f 998 995 996
f 998 947 946
f 998 986 987
f 998 996 986
f 998 987 988
f 998 948 947
f 998 988 989
f 998 949 948
f 998 989 990
f 998 943 949
f 998 990 943
f 1001 951 999
f 1002 1001 1000
f 951 1002 1003
f 951 1003 1004
f 951 1001 1002
f 951 1004 1005
f 951 1005 1006
f 1018 1019 1008
f 1009 1018 1008
f 954 952 1014
f 954 1014 1015
f 954 1015 1012
f 1013 954 1012
f 953 954 1013
f 1020 1015 1016
f 1020 1016 1017
f 1020 1017 1018
f 1020 1018 1009
f 1020 1009 1010
f 1020 1010 1011
f 1020 1011 1012
f 1020 1012 1015
f 1007 955 967
f 1008 1007 967
f 1009 967 966
f 1009 1008 967
f 1010 966 965
f 1010 1009 966
f 1011 965 964
f 1011 1010 965
f 1012 964 963
f 1012 1011 964
f 1013 963 962
f 1013 1012 963
f 953 962 926
f 953 1013 962
f 956 1021 1022
f 956 955 1021
f 957 1022 1023
f 957 956 1022
f 958 1023 1024
f 958 957 1023
f 959 1024 1025
f 959 958 1024
f 960 1025 1026
f 960 959 1025
f 961 1026 1027
f 961 960 1026
f 927 1027 1028
f 927 961 1027
f 1036 1029 1030
f 1036 1035 1029
f 1037 1030 1031
f 1037 1036 1030
f 1038 1031 1032
f 1038 1037 1031
f 1039 1032 1033
f 1039 1038 1032
f 1034 1033 1089
f 1034 1039 1033
f 978 1041 936
f 978 1047 1041
f 977 1046 1047
f 977 1047 978
f 976 1045 1046
f 976 1046 977
f 975 1044 1045
f 975 1045 976
f 974 1043 1044
f 974 1044 975
f 973 1042 1043
f 973 1043 974
f 972 1040 1042
f 972 1042 973
f 1048 991 997
f 1049 992 991
f 1049 991 1048
f 1050 993 992
f 1050 992 1049
f 1051 994 993
f 1051 993 1050
f 1052 995 994
f 1052 994 1051
f 1053 996 995
f 1053 995 1052
f 1054 986 996
f 1054 996 1053
f 1121 986 1054
f 1000 987 986
f 1001 988 987
f 1001 987 1000
f 999 989 988
f 999 988 1001
f 1055 990 989
f 1055 989 999
f 950 943 990
f 950 990 1055
f 1061 1006 1005
f 1060 1005 1004
f 1060 1061 1005
f 1059 1004 1003
f 1059 1060 1004
f 1058 1003 1002
f 1058 1059 1003
f 1057 1002 1000
f 1057 1058 1002
f 1056 1057 1000
f 1069 1008 1019
f 1068 1019 1018
f 1068 1069 1019
f 1067 1018 1017
f 1067 1068 1018
f 1066 1017 1016
f 1066 1067 1017
f 1065 1016 1015
f 1065 1066 1016
f 1064 1015 1014
f 1064 1065 1015
f 1063 1014 952
f 1063 1064 1014
f 1062 1063 952
f 1079 1022 1021
f 1076 1078 1075
f 1080 1025 1024
f 1080 1072 1073
f 1080 1023 1022
f 1080 1024 1023
f 1080 1022 1079
f 1080 1070 1071
f 1080 1071 1072
f 1080 1079 1070
f 1080 1077 1028
f 1080 1027 1026
f 1080 1028 1027
f 1080 1078 1077
f 1080 1073 1074
f 1080 1074 1075
f 1080 1075 1078
f 1080 1026 1025
f 1089 1087 1088
f 1091 1085 1086
f 1091 1086 1087
f 1091 1087 1089
f 1091 1082 1083
f 1091 1083 1084
f 1091 1084 1085
f 1091 1033 1032
f 1091 1089 1033
f 1091 1030 1029
f 1091 1031 1030
f 1091 1029 1090
f 1091 1081 1082
f 1091 1090 1081
f 1091 1032 1031
f 1103 1041 1047
f 1105 1047 1046
f 1105 1103 1047
f 1104 1041 1041
f 1104 1041 1103
f 1105 1046 1045
f 1105 1041 1104
f 1105 1104 1103
f 1105 1098 1041
f 1105 1045 1044
f 1105 1097 1098
f 1106 1044 1043
f 1106 1105 1044
f 1105 1096 1097
f 1106 1043 1042
f 1105 1095 1096
f 1040 1106 1042
f 1106 1099 1100
f 1106 1040 1099
f 1105 1094 1095
f 1106 1093 1094
f 1106 1094 1105
f 1106 1100 1101
f 1106 1101 1102
f 1106 1092 1093
f 1106 1102 1092
f 1117 1048 1111
f 1118 1048 1048
f 1118 1048 1117
f 1120 1111 1112
f 1120 1117 1111
f 1120 1048 1118
f 1120 1118 1117
f 1120 1112 1113
f 1120 1049 1048
f 1120 1113 1114
f 1120 1050 1049
f 1120 1114 1115
f 1120 1051 1050
f 1120 1115 1116
f 1120 1052 1051
f 1119 1120 1116
f 1120 1107 1108
f 1120 1119 1107
f 1120 1053 1052
f 1120 1108 1109
f 1120 1054 1053
f 1120 1109 1110
f 1121 1120 1110
f 1121 1054 1120
f 1127 1128 1126
f 1130 1059 1058
f 1129 1058 1057
f 1129 1057 1056
f 1129 1130 1058
f 1130 1128 1061
f 1130 1060 1059
f 1130 1061 1060
f 1129 1056 1122
f 1130 1129 1123
f 1130 1124 1125
f 1130 1125 1126
f 1130 1126 1128
f 1068 1135 1069
f 1138 1131 1132
f 1062 1140 1063
f 1141 1133 1134
f 1141 1066 1065
f 1135 1136 1137
f 1135 1141 1134
f 1135 1067 1066
f 1135 1068 1067
f 1135 1066 1141
f 1141 1139 1138
f 1141 1138 1132
f 1141 1140 1139
f 1141 1064 1063
f 1141 1065 1064
f 1141 1063 1140
f 1070 1142 1143
f 1070 1079 1142
f 1071 1143 1144
f 1071 1070 1143
f 1072 1144 1145
f 1072 1071 1144
f 1073 1145 1146
f 1073 1072 1145
f 1074 1146 1147
f 1074 1073 1146
f 1075 1147 1148
f 1075 1074 1147
f 1076 1075 1148
f 1151 1076 1149
f 1151 1078 1076
f 1152 1077 1078
f 1152 1078 1151
f 1153 1077 1152
f 1028 1077 1153
f 1150 1028 1153
f 1154 1090 1029
f 1156 1090 1154
f 1081 1090 1156
f 1155 1081 1156
f 1082 1157 1158
f 1082 1081 1157
f 1083 1158 1159
f 1083 1082 1158
f 1084 1159 1160
f 1084 1083 1159
f 1085 1160 1161
f 1085 1084 1160
f 1086 1161 1162
f 1086 1085 1161
f 1087 1162 1163
f 1087 1086 1162
f 1088 1163 1164
f 1088 1087 1163
f 1164 1099 1040
f 1168 1100 1099
f 1168 1099 1164
f 1166 1101 1100
f 1166 1100 1168
f 1167 1102 1101
f 1167 1101 1166
f 1165 1092 1102
f 1165 1102 1167
f 1098 1048 1041
f 1098 1111 1048
f 1097 1112 1111
f 1097 1111 1098
f 1096 1113 1112
f 1096 1112 1097
f 1095 1114 1113
f 1095 1113 1096
f 1094 1115 1114
f 1094 1114 1095
f 1093 1116 1115
f 1093 1115 1094
f 1092 1119 1116
f 1092 1116 1093
f 1169 1107 1119
f 1173 1108 1107
f 1173 1107 1169
f 1171 1109 1108
f 1171 1108 1173
f 1172 1110 1109
f 1172 1109 1171
f 1170 1121 1110
f 1170 1110 1172
f 1179 1127 1126
f 1178 1179 1126
f 1177 1126 1125
f 1177 1178 1126
f 1176 1125 1124
f 1176 1177 1125
f 1175 1130 1123
f 1175 1124 1130
f 1175 1176 1124
f 1174 1129 1122
f 1174 1123 1129
f 1170 1174 1122
f 1182 1127 1180
f 1182 1128 1127
f 1181 1061 1128
f 1181 1128 1182
f 1140 1062 1183
f 1185 1139 1140
f 1185 1140 1183
f 1186 1138 1139
f 1186 1139 1185
f 1184 1131 1138
f 1184 1138 1186
f 1191 1137 1136
f 1190 1136 1135
f 1190 1191 1136
f 1134 1190 1135
f 1189 1134 1133
f 1189 1190 1134
f 1188 1141 1132
f 1188 1133 1141
f 1188 1189 1133
f 1187 1132 1131
f 1187 1188 1132
f 1143 1192 1193
f 1143 1142 1192
f 1144 1193 1194
f 1144 1143 1193
f 1145 1144 1194
f 1146 1194 1195
f 1146 1145 1194
f 1147 1195 1196
f 1147 1146 1195
f 1148 1147 1196
f 1198 1148 1196
f 1199 1198 1196
f 1200 1199 1196
f 1197 1200 1196
f 1202 1211 1201
f 1151 1149 1208
f 1150 1153 1207
f 1212 1209 1210
f 1212 1204 1205
f 1211 1279 391
f 1211 1212 1210
f 1211 1202 1203
f 1211 1203 1204
f 1211 1204 1212
f 1212 1152 1151
f 1212 1151 1208
f 1212 1153 1152
f 1212 1205 1206
f 1212 1206 1207
f 1212 1207 1153
f 1224 1225 1214
f 1215 1224 1214
f 1156 1154 1220
f 1156 1220 1221
f 1156 1221 1218
f 1219 1156 1218
f 1155 1156 1219
f 1226 1221 1222
f 1226 1222 1223
f 1226 1223 1224
f 1226 1224 1215
f 1226 1215 1216
f 1226 1216 1217
f 1226 1217 1218
f 1226 1218 1221
f 1168 1227 1166
f 1163 1168 1164
f 1162 1227 1168
f 1162 1168 1163
f 1158 1227 1159
f 1157 1227 1158
f 1227 1160 1159
f 1227 1161 1160
f 1227 1162 1161
f 1173 1123 1171
f 1228 1173 1169
f 1229 1123 1173
f 1229 1173 1228
f 1233 1235 1232
f 1234 1235 1233
f 1230 1232 1235
f 1230 1231 1232
f 1230 1123 1229
f 1249 1236 1237
f 1248 1249 1237
f 1239 1248 1237
f 1239 1237 1238
f 1182 1180 1244
f 1182 1244 1245
f 1182 1245 1242
f 1243 1182 1242
f 1181 1182 1243
f 1250 1245 1246
f 1250 1246 1247
f 1250 1247 1248
f 1250 1242 1245
f 1250 1239 1240
f 1250 1240 1241
f 1250 1241 1242
f 1250 1248 1239
f 1252 1264 1251
f 1184 1186 1258
f 1265 1261 1262
f 1265 1255 1256
f 1265 1262 1263
f 1265 1263 1264
f 1265 1264 1252
f 1265 1253 1254
f 1265 1254 1255
f 1265 1252 1253
f 1265 1185 1183
f 1265 1183 1259
f 1265 1259 1260
f 1265 1186 1185
f 1265 1256 1257
f 1265 1257 1258
f 1265 1258 1186
f 1265 1260 1261
f 1270 1304 1191
f 1270 1191 1190
f 1269 1270 1190
f 1189 1269 1190
f 1302 1269 1189
f 1268 1189 1188
f 1268 1302 1189
f 1301 1268 1188
f 1267 1188 1187
f 1267 1301 1188
f 1266 1272 1271
f 1266 1273 1272
f 1266 1274 1273
f 1266 1187 1274
f 1266 1267 1187
f 1368 1196 1195
f 1194 1368 1195
f 1193 1368 1194
f 1192 1368 1193
f 1208 1275 1276
f 1208 1149 1275
f 1212 1208 1276
f 1209 1276 1277
f 1209 1212 1276
f 1210 1209 1277
f 1278 1210 1277
f 1211 1210 1278
f 1279 1211 1278
f 1154 1150 1207
f 1220 1207 1206
f 1220 1154 1207
f 1221 1206 1205
f 1221 1220 1206
f 1222 1205 1204
f 1222 1221 1205
f 1223 1204 1203
f 1223 1222 1204
f 1224 1203 1202
f 1224 1223 1203
f 1225 1202 1201
f 1225 1224 1202
f 1214 1225 1201
f 1244 1155 1219
f 1244 1180 1155
f 1245 1219 1218
f 1245 1244 1219
f 1246 1218 1217
f 1246 1245 1218
f 1247 1217 1216
f 1247 1246 1217
f 1248 1216 1215
f 1248 1247 1216
f 1249 1214 1213
f 1249 1215 1214
f 1249 1248 1215
f 1236 1249 1213
f 1259 1181 1243
f 1259 1183 1181
f 1260 1243 1242
f 1260 1259 1243
f 1261 1242 1241
f 1261 1260 1242
f 1262 1241 1240
f 1262 1261 1241
f 1263 1240 1239
f 1263 1262 1240
f 1264 1239 1238
f 1264 1263 1239
f 1251 1238 1237
f 1251 1264 1238
f 1281 1280 1234
f 1281 1234 1233
f 1282 1233 1232
f 1282 1281 1233
f 1283 1232 1231
f 1283 1282 1232
f 1284 1230 1229
f 1284 1231 1230
f 1284 1283 1231
f 1285 1229 1228
f 1285 1284 1229
f 1286 1285 1228
f 1165 1228 1169
f 1165 1286 1228
f 1293 1184 1258
f 1292 1258 1257
f 1292 1293 1258
f 1291 1257 1256
f 1291 1292 1257
f 1290 1256 1255
f 1290 1291 1256
f 1289 1255 1254
f 1289 1290 1255
f 1288 1254 1253
f 1288 1289 1254
f 1287 1253 1252
f 1287 1288 1253
f 1300 1267 1266
f 1295 1300 1294
f 1299 1303 1298
f 1301 1267 1300
f 1301 1303 1302
f 1305 1303 1301
f 1305 1301 1300
f 1304 1302 1303
f 1305 1300 1295
f 1303 1297 1298
f 1302 1268 1301
f 1304 1270 1269
f 1304 1269 1302
f 1305 1296 1303
f 1311 1346 1312
f 1311 1312 1318
f 1310 1318 1317
f 1310 1311 1318
f 1309 1317 1316
f 1309 1310 1317
f 1308 1315 1314
f 1308 1316 1315
f 1308 1309 1316
f 1347 1308 1314
f 1307 1314 1313
f 1307 1347 1314
f 1306 1313 1367
f 1306 1307 1313
f 1320 1319 1323
f 1321 1320 1323
f 1322 1321 1323
f 1275 1322 1323
f 1324 1275 1323
f 1276 1275 1324
f 1325 1276 1324
f 1277 1276 1325
f 1326 1277 1325
f 1278 1277 1326
f 328 1278 1326
f 1279 1278 328
f 1328 1329 1293
f 1328 1330 1329
f 1328 1331 1330
f 1328 1327 1331
f 1338 1293 1292
f 1338 1328 1293
f 1337 1292 1291
f 1337 1338 1292
f 1336 1291 1290
f 1336 1337 1291
f 1335 1290 1289
f 1335 1336 1290
f 1334 1289 1288
f 1334 1335 1289
f 1333 1288 1287
f 1333 1334 1288
f 1332 1333 1287
f 1344 1345 1299
f 1344 1299 1298
f 1343 1298 1297
f 1343 1344 1298
f 1342 1303 1296
f 1342 1297 1303
f 1342 1343 1297
f 1349 1342 1296
f 1341 1305 1295
f 1341 1296 1305
f 1341 1349 1296
f 1340 1295 1294
f 1340 1341 1295
f 1339 1340 1294
f 1306 1347 1307
f 1346 1310 1309
f 1346 1311 1310
f 1347 1309 1308
f 1347 1346 1309
f 1348 1346 1347
f 1338 1339 1328
f 1339 1341 1340
f 1349 1343 1342
f 1349 1344 1343
f 1349 1345 1344
f 1339 1338 1337
f 1349 1334 1333
f 1349 1335 1334
f 1349 1336 1335
f 1349 1333 1332
f 1349 1341 1339
f 1339 1337 1336
f 1339 1336 1349
f 433 431 1304
f 434 433 1304
f 434 1304 1303
f 432 434 1303
f 432 1303 1299
f 653 1345 1349
f 688 653 1349
f 688 1349 1332
f 689 688 1332
f 681 689 1332
f 1347 1306 300
f 1347 300 308
f 1348 1347 308
f 328 1348 308
f 1192 54 53
f 1368 1192 53
f 1367 1368 53
f 1367 53 1350
f 344 345 385
f 344 385 392
f 343 392 393
f 343 344 392
f 350 343 393
f 342 393 394
f 342 350 393
f 341 394 395
f 341 342 394
f 340 395 396
f 340 341 395
f 339 396 397
f 339 340 396
f 338 397 398
f 338 339 397
f 317 398 378
f 317 338 398
f 763 727 780
f 763 780 801
f 762 801 802
f 762 763 801
f 761 802 803
f 761 762 802
f 760 803 804
f 760 761 803
f 759 804 805
f 759 805 806
f 759 760 804
f 758 806 807
f 758 759 806
f 757 807 808
f 757 758 807
f 756 808 800
f 756 757 808
f 554 497 534
f 554 534 567
f 553 567 568
f 553 554 567
f 552 568 569
f 552 553 568
f 551 569 570
f 551 552 569
f 550 570 571
f 550 551 570
f 549 571 581
f 549 581 572
f 549 550 571
f 548 572 573
f 548 549 572
f 540 573 574
f 540 548 573
f 726 697 658
f 750 696 697
f 750 697 726
f 751 695 696
f 751 696 750
f 752 694 695
f 752 695 751
f 753 693 694
f 753 694 752
f 754 692 693
f 754 693 753
f 749 692 754
f 482 480 447
f 482 447 462
f 483 479 480
f 483 480 482
f 484 478 479
f 484 479 483
f 485 477 478
f 485 478 484
f 486 476 477
f 486 477 485
f 487 467 476
f 487 476 486
f 638 564 520
f 639 564 638
f 639 563 564
f 637 563 639
f 649 714 715
f 647 649 715
f 647 715 713
f 236 182 180
f 238 182 236
f 201 137 182
f 201 182 238
f 228 273 283
f 228 283 284
f 171 228 284
f 227 171 284
f 227 284 261
f 159 151 161
f 159 161 162
f 158 162 163
f 158 159 162
f 157 163 164
f 157 158 163
f 156 157 164
f 155 164 165
f 155 156 164
f 154 165 166
f 154 155 165
f 153 166 167
f 153 154 166
f 152 167 168
f 152 153 167
f 121 168 122
f 121 152 168
f 100 96 91
f 101 95 96
f 101 96 100
f 102 94 95
f 102 95 101
f 103 93 94
f 103 94 102
f 104 92 93
f 104 93 103
f 105 77 92
f 105 92 104
f 78 77 105
f 360 290 352
f 360 289 290
f 361 288 289
f 361 289 360
f 362 287 288
f 362 288 361
f 363 286 287
f 363 287 362
f 364 285 286
f 364 286 363
f 323 268 285
f 323 285 364
f 335 273 275
f 791 718 1352
f 718 791 1351
f 1355 905 936
f 1041 1355 936
f 1354 905 1355
f 1354 1355 1041
f 907 1354 1353
f 997 907 1353
f 1048 997 1353
f 1048 1353 1354
f 1041 1048 1354
f 907 905 1354
f 1355 49 52
f 1355 51 49
f 39 1355 1354
f 1353 39 1354
f 1353 1364 39
f 1353 1354 52
f 30 1364 1353
f 30 1353 32
f 191 218 220
f 190 191 220
f 373 374 368
f 401 373 368
f 218 45 52
f 52 251 274
f 1356 334 335
f 1356 335 275
f 1356 251 52
f 1356 275 251
f 52 274 220
f 52 220 218
f 1357 371 369
f 1357 369 334
f 1357 1356 52
f 1357 334 1356
f 1357 368 371
f 1357 401 368
f 401 1357 52
f 401 49 50
f 401 52 49
f 24 1358 20
f 25 19 23
f 25 24 19
f 1359 21 20
f 1359 20 1358
f 13 1360 1
f 8 1 16
f 8 7 1
f 14 13 6
f 14 15 13
f 15 1361 1360
f 15 1360 13
f 1056 1000 986
f 1122 986 1121
f 1122 1056 986
f 1170 1122 1121
f 1088 1164 1040
f 1088 1040 972
f 1089 1088 972
f 1034 1089 972
f 877 838 923
f 877 923 943
f 924 877 943
f 950 924 943
f 889 934 935
f 890 889 935
f 855 935 864
f 855 890 935
f 856 855 864
f 819 833 866
f 871 819 866
f 1119 1092 1165
f 1169 1119 1165
f 1372 137 201
f 261 236 180
f 261 180 227
f 637 714 607
f 637 607 563
f 638 520 513
f 638 513 512
f 1021 144 156
f 1021 156 1079
f 955 144 1021
f 955 219 144
f 250 219 955
f 84 1079 156
f 1142 1079 84
f 1142 84 99
f 1142 99 72
f 1192 1142 72
f 1192 72 54
f 1362 30 218
f 1362 218 250
f 1007 620 1362
f 1008 620 1007
f 547 620 1008
f 1069 555 547
f 1069 547 1008
f 1135 555 1069
f 555 1135 1137
f 504 555 1137
f 474 504 1137
f 1191 474 1137
f 475 474 1191
f 1304 475 1191
f 1304 431 475
f 955 1007 250
f 250 1007 1362
f 359 1279 366
f 391 1279 359
f 1201 1211 391
f 1214 1201 391
f 407 1214 391
f 408 1214 407
f 408 1213 1214
f 409 1213 408
f 719 681 1332
f 719 1332 1287
f 755 719 1287
f 742 755 1287
f 31 409 401
f 818 1237 1236
f 818 1236 31
f 1252 742 1287
f 805 742 1252
f 793 1251 1237
f 793 1237 818
f 805 1252 1251
f 805 1251 793
f 1236 1213 409
f 1236 409 31
f 1199 1148 1198
f 1200 1148 1199
f 1197 1148 1200
f 1360 1148 1197
f 1360 1197 1
f 1076 1148 1360
f 1361 1076 1360
f 1319 15 16
f 1319 1361 15
f 1275 1319 1320
f 1275 1320 1321
f 1275 1321 1322
f 1275 1361 1319
f 1149 1076 1361
f 1149 1361 1275
f 1273 1274 1187
f 1272 1273 1187
f 1271 1272 1187
f 1358 1187 1131
f 1358 1271 1187
f 24 1271 1358
f 1359 1131 1184
f 1359 1358 1131
f 1327 21 1359
f 1327 25 21
f 1293 1329 1330
f 1293 1330 1331
f 1293 1331 1327
f 1293 1359 1184
f 1293 1327 1359
f 1266 1271 24
f 1294 1266 24
f 1294 1300 1266
f 1328 25 1327
f 1339 24 25
f 1339 1294 24
f 1339 25 1328
f 410 432 1299
f 590 505 454
f 590 454 435
f 590 435 446
f 630 590 446
f 621 630 446
f 1345 653 621
f 1299 1345 410
f 410 1345 446
f 446 1345 621
f 418 447 434
f 462 447 418
f 417 462 418
f 487 534 497
f 487 497 467
f 121 100 91
f 122 100 121
f 77 1379 58
f 78 61 1379
f 78 1379 77
f 60 1367 1350
f 246 60 71
f 246 71 216
f 300 1306 246
f 1306 1367 60
f 1306 60 246
f 1196 1368 1312
f 1 1197 1196
f 1 1196 1312
f 1346 1 1312
f 16 1 1346
f 16 1346 1323
f 1319 16 1323
f 657 726 658
f 657 658 626
f 657 687 726
f 690 691 687
f 690 687 657
f 692 780 727
f 749 780 692
f 378 352 290
f 378 290 317
f 301 239 268
f 323 301 268
f 323 324 301
f 885 927 1028
f 929 885 1028
f 1150 929 1028
f 1035 929 1150
f 1029 1035 1150
f 1154 1029 1150
f 1062 952 951
f 1006 1062 951
f 1183 1061 1181
f 1183 1006 1061
f 1183 1062 1006
f 283 273 309
f 1352 670 647
f 1352 647 713
f 540 614 583
f 574 614 540
f 218 151 189
f 218 161 151
f 800 817 756
f 800 816 817
f 401 385 345
f 237 215 208
f 297 237 238
f 297 215 237
f 297 238 235
f 316 235 267
f 316 297 235
f 337 316 267
f 337 267 284
f 351 284 282
f 351 337 284
f 336 351 282
f 332 372 336
f 332 336 282
f 333 372 332
f 595 592 698
f 593 592 595
f 735 783 771
f 735 764 783
f 663 728 769
f 663 698 728
f 764 663 769
f 707 764 735
f 171 254 221
f 172 171 194
f 123 172 194
f 253 275 254
f 253 254 171
f 181 123 194
f 106 123 181
f 59 130 83
f 106 181 130
f 106 130 59
f 613 716 717
f 566 716 613
f 646 716 566
f 649 646 566
f 649 566 582
f 649 582 533
f 562 533 494
f 562 649 533
f 564 562 494
f 565 564 494
f 526 565 494
f 442 526 494
f 442 461 526
f 1355 52 1354
f 857 1363 926
f 827 926 1363
f 848 857 926
f 826 926 827
f 953 926 826
f 847 953 826
f 846 953 847
f 884 953 846
f 1155 1157 1081
f 1155 1227 1157
f 1155 1280 1227
f 1180 1178 1235
f 1180 1179 1178
f 1180 1127 1179
f 1180 1235 1234
f 1180 1280 1155
f 1180 1234 1280
f 782 817 788
f 781 782 788
f 615 616 650
f 614 615 650
f 31 33 39
f 817 31 39
f 817 39 1364
f 1366 773 787
f 817 1364 1366
f 1365 1364 30
f 1351 1366 1364
f 1351 773 1366
f 1351 1364 1365
f 1366 787 791
f 1366 791 788
f 1366 788 817
f 614 1365 30
f 1365 677 1351
f 1365 680 677
f 1365 614 650
f 1365 650 679
f 1365 679 680
f 1362 614 30
f 718 670 1352
f 335 309 273
f 1324 1346 1348
f 1324 1323 1346
f 1325 1324 1348
f 1326 1325 1348
f 328 1326 1348
f 1368 1318 1312
f 1368 1317 1318
f 1367 1313 1314
f 1367 1314 1315
f 1315 1368 1367
f 1315 1316 1317
f 1315 1317 1368
f 1172 1174 1170
f 1123 1174 1172
f 1123 1172 1171
f 1178 1177 1235
f 1235 1175 1123
f 1235 1176 1175
f 1235 1177 1176
f 1235 1123 1230
f 1167 1286 1165
f 1285 1286 1167
f 1227 1167 1166
f 1227 1285 1167
f 1280 1281 1282
f 1280 1282 1227
f 1227 1282 1283
f 1227 1283 1284
f 1227 1284 1285
f 934 979 935
f 970 980 979
f 970 979 934
f 969 981 980
f 969 980 970
f 1369 982 981
f 1369 981 969
f 1034 972 982
f 1034 982 1369
f 1055 951 950
f 951 1055 999
f 1369 1039 1034
f 971 1369 969
f 929 1035 971
f 971 1037 1038
f 971 1038 1039
f 971 1039 1369
f 971 1036 1037
f 971 1035 1036
f 872 820 819
f 821 820 872
f 847 872 837
f 847 821 872
f 826 825 824
f 826 824 847
f 847 822 821
f 847 823 822
f 847 824 823
f 865 863 856
f 862 863 865
f 836 865 834
f 836 862 865
f 1363 857 858
f 1363 858 859
f 1363 859 860
f 1363 860 861
f 1363 861 862
f 1363 862 836
f 594 602 603
f 594 604 605
f 594 593 602
f 594 605 606
f 594 603 604
f 1370 594 606
f 1370 512 511
f 1370 511 510
f 594 510 509
f 594 1370 510
f 594 509 508
f 594 508 507
f 594 507 506
f 594 506 505
f 1371 519 513
f 1371 513 527
f 1371 518 519
f 1371 527 528
f 1371 517 518
f 1371 528 529
f 1371 516 517
f 1371 529 530
f 1371 515 516
f 1371 514 515
f 1371 530 531
f 454 514 1371
f 1371 531 532
f 1371 456 455
f 1371 455 454
f 1371 461 460
f 1371 532 461
f 1371 457 456
f 1371 460 459
f 1371 458 457
f 1371 459 458
f 329 328 308
f 330 329 308
f 331 330 308
f 324 308 301
f 324 331 308
f 239 301 302
f 240 302 303
f 240 239 302
f 241 303 304
f 241 240 303
f 242 304 305
f 242 241 304
f 243 305 306
f 243 242 305
f 244 306 307
f 244 243 306
f 245 307 300
f 245 244 307
f 246 245 300
f 217 209 210
f 217 1372 209
f 217 210 211
f 217 211 212
f 217 212 213
f 217 213 214
f 217 208 216
f 217 214 208
f 217 216 1372
f 1372 138 139
f 1372 140 141
f 1372 83 138
f 1372 141 142
f 1372 139 140
f 1372 142 143
f 1373 1350 53
f 53 1375 1374
f 53 1376 1375
f 1379 1378 1377
f 53 1374 1373
f 53 1377 1376
f 53 1379 1377
f 1378 61 62
f 1378 1379 61
f 1377 62 63
f 1377 1378 62
f 1376 63 64
f 1376 1377 63
f 1375 64 65
f 1375 1376 64
f 1374 65 66
f 1374 1375 65
f 1373 66 67
f 1373 1374 66
f 1350 67 60
f 1350 1373 67

