# https://github.com/mikedh/trimesh

o p00004.obj
v 4.76250000 0.00000000 -1.58750000
v 4.71682968 0.65796964 -1.58750000
v 4.58069463 1.30331999 -1.58750000
v 4.35670580 1.92367379 -1.58750000
v 4.04915911 2.50713318 -1.58750000
v 3.66395304 3.04250791 -1.58750000
v 3.20847550 3.51952997 -1.58750000
v 2.69146217 3.92905047 -1.58750000
v 2.12282892 4.26321518 -1.58750000
v 1.51348164 4.51561508 -1.58750000
v 0.87510708 4.68140939 -1.58750000
v 0.21994872 4.75741829 -1.58750000
v -0.43942806 4.74218401 -1.58750000
v -1.09037699 4.63599873 -1.58750000
v -1.72041344 4.44089899 -1.58750000
v -2.31745383 4.16062664 -1.58750000
v -2.87004746 3.80055704 -1.58750000
v -3.36759605 3.36759605 -1.58750000
v -3.80055704 2.87004746 -1.58750000
v -4.16062664 2.31745383 -1.58750000
v -4.44089899 1.72041344 -1.58750000
v -4.63599873 1.09037699 -1.58750000
v -4.74218401 0.43942806 -1.58750000
v -4.75741829 -0.21994872 -1.58750000
v -4.68140939 -0.87510708 -1.58750000
v -4.51561508 -1.51348164 -1.58750000
v -4.26321518 -2.12282892 -1.58750000
v -3.92905047 -2.69146217 -1.58750000
v -3.51952997 -3.20847550 -1.58750000
v -3.04250791 -3.66395304 -1.58750000
v -2.50713318 -4.04915911 -1.58750000
v -1.92367379 -4.35670580 -1.58750000
v -1.30331999 -4.58069463 -1.58750000
v -0.65796964 -4.71682968 -1.58750000
v 0.00000000 -4.76250000 -1.58750000
v 0.62163099 -4.72175615 -1.58750000
v 1.23262570 -4.60022175 -1.58750000
v 1.82252985 -4.39997627 -1.58750000
v 2.38125000 -4.12444599 -1.58750000
v 2.89922631 -3.77834528 -1.58750000
v 3.36759605 -3.36759605 -1.58750000
v 3.77834528 -2.89922631 -1.58750000
v 4.12444599 -2.38125000 -1.58750000
v 4.39997627 -1.82252985 -1.58750000
v 4.60022175 -1.23262570 -1.58750000
v 4.72175615 -0.62163099 -1.58750000
v 2.10820000 0.00000000 -1.58750000
v 2.08798327 0.29126123 -1.58750000
v 2.02772082 0.57693632 -1.58750000
v 1.92856843 0.85154626 -1.58750000
v 1.79242777 1.10982429 -1.58750000
v 1.62190988 1.34681684 -1.58750000
v 1.42028516 1.55797860 -1.58750000
v 1.19142059 1.73925968 -1.58750000
v 0.93970560 1.88718325 -1.58750000
v 0.66996787 1.99891228 -1.58750000
v 0.38738073 2.07230389 -1.58750000
v 0.09736397 2.10595050 -1.58750000
v -0.19452016 2.09920679 -1.58750000
v -0.48267355 2.05220211 -1.58750000
v -0.76156968 1.96583795 -1.58750000
v -1.02585956 1.84177072 -1.58750000
v -1.27047434 1.68237992 -1.58750000
v -1.49072252 1.49072252 -1.58750000
v -1.68237992 1.27047434 -1.58750000
v -1.84177072 1.02585956 -1.58750000
v -1.96583795 0.76156968 -1.58750000
v -2.05220211 0.48267355 -1.58750000
v -2.09920679 0.19452016 -1.58750000
v -2.10595050 -0.09736397 -1.58750000
v -2.07230389 -0.38738073 -1.58750000
v -1.99891228 -0.66996787 -1.58750000
v -1.88718325 -0.93970560 -1.58750000
v -1.73925968 -1.19142059 -1.58750000
v -1.55797860 -1.42028516 -1.58750000
v -1.34681684 -1.62190988 -1.58750000
v -1.10982429 -1.79242777 -1.58750000
v -0.85154626 -1.92856843 -1.58750000
v -0.57693632 -2.02772082 -1.58750000
v -0.29126123 -2.08798327 -1.58750000
v 0.00000000 -2.10820000 -1.58750000
v 0.27517532 -2.09016406 -1.58750000
v 0.54564231 -2.03636483 -1.58750000
v 0.80677321 -1.94772283 -1.58750000
v 1.05410000 -1.82575476 -1.58750000
v 1.28339084 -1.67254751 -1.58750000
v 1.49072252 -1.49072252 -1.58750000
v 1.67254751 -1.28339084 -1.58750000
v 1.82575476 -1.05410000 -1.58750000
v 1.94772283 -0.80677321 -1.58750000
v 2.03636483 -0.54564231 -1.58750000
v 2.09016406 -0.27517532 -1.58750000
v 4.76250000 0.00000000 7.93750000
v 4.71615168 0.66281189 7.93750000
v 4.57800883 1.31272291 7.93750000
v 4.35076024 1.93708326 7.93750000
v 4.03882906 2.52374050 7.93750000
v 3.64828666 3.06127599 7.93750000
v 3.18673451 3.53922723 7.93750000
v 2.66315620 3.94829144 7.93750000
v 2.08774259 4.28050665 7.93750000
v 1.47169344 4.52940666 7.93750000
v 0.82699945 4.69014692 7.93750000
v 0.16620885 4.75959881 7.93750000
v -0.49781681 4.73641053 7.93750000
v -1.15215303 4.62103340 7.93750000
v -1.78406390 4.41571311 7.93750000
v -2.38125000 4.12444599 7.93750000
v -2.93208778 3.75290121 7.93750000
v -3.42585580 3.30831049 7.93750000
v -3.85294344 2.79932726 7.93750000
v -4.20503791 2.23585832 7.93750000
v -4.47528611 1.62887093 7.93750000
v -4.65842795 0.99017943 7.93750000
v -4.75089879 0.33221521 7.93750000
v -4.75089879 -0.33221521 7.93750000
v -4.65842795 -0.99017943 7.93750000
v -4.47528611 -1.62887093 7.93750000
v -4.20503791 -2.23585832 7.93750000
v -3.85294344 -2.79932726 7.93750000
v -3.42585580 -3.30831049 7.93750000
v -2.93208778 -3.75290121 7.93750000
v -2.38125000 -4.12444599 7.93750000
v -1.78406390 -4.41571311 7.93750000
v -1.15215303 -4.62103340 7.93750000
v -0.49781681 -4.73641053 7.93750000
v 0.16620885 -4.75959881 7.93750000
v 0.82699945 -4.69014692 7.93750000
v 1.47169344 -4.52940666 7.93750000
v 2.08774259 -4.28050665 7.93750000
v 2.66315620 -3.94829144 7.93750000
v 3.18673451 -3.53922723 7.93750000
v 3.64828666 -3.06127599 7.93750000
v 4.03882906 -2.52374050 7.93750000
v 4.35076024 -1.93708326 7.93750000
v 4.57800883 -1.31272291 7.93750000
v 4.71615168 -0.66281189 7.93750000
v 2.10820000 0.00000000 7.93750000
v 2.08768314 0.29340473 7.93750000
v 2.02653191 0.58109867 7.93750000
v 1.92593653 0.85748219 7.93750000
v 1.78785500 1.11717579 7.93750000
v 1.61497489 1.35512484 7.93750000
v 1.41066114 1.56669792 7.93750000
v 1.17889048 1.74777701 7.93750000
v 0.92417405 1.89483761 7.93750000
v 0.65146963 2.00501735 7.93750000
v 0.36608509 2.07617170 7.93750000
v 0.07357512 2.10691574 7.93750000
v -0.22036691 2.09665106 7.93750000
v -0.51001974 2.04557745 7.93750000
v -0.78974562 1.95468900 7.93750000
v -1.05410000 1.82575476 7.93750000
v -1.29793752 1.66128427 7.93750000
v -1.51651217 1.46447878 7.93750000
v -1.70556963 1.23916887 7.93750000
v -1.86143012 0.98973995 7.93750000
v -1.98105998 0.72104687 7.93750000
v -2.06213077 0.43831943 7.93750000
v -2.10306453 0.14706060 7.93750000
v -2.10306453 -0.14706060 7.93750000
v -2.06213077 -0.43831943 7.93750000
v -1.98105998 -0.72104687 7.93750000
v -1.86143012 -0.98973995 7.93750000
v -1.70556963 -1.23916887 7.93750000
v -1.51651217 -1.46447878 7.93750000
v -1.29793752 -1.66128427 7.93750000
v -1.05410000 -1.82575476 7.93750000
v -0.78974562 -1.95468900 7.93750000
v -0.51001974 -2.04557745 7.93750000
v -0.22036691 -2.09665106 7.93750000
v 0.07357512 -2.10691574 7.93750000
v 0.36608509 -2.07617170 7.93750000
v 0.65146963 -2.00501735 7.93750000
v 0.92417405 -1.89483761 7.93750000
v 1.17889048 -1.74777701 7.93750000
v 1.41066114 -1.56669792 7.93750000
v 1.61497489 -1.35512484 7.93750000
v 1.78785500 -1.11717579 7.93750000
v 1.92593653 -0.85748219 7.93750000
v 2.02653191 -0.58109867 7.93750000
v 2.08768314 -0.29340473 7.93750000
f 63 64 18
f 63 18 17
f 65 18 64
f 65 19 18
f 62 17 16
f 62 63 17
f 66 20 19
f 66 19 65
f 61 16 15
f 61 62 16
f 67 20 66
f 67 21 20
f 67 22 21
f 60 61 15
f 60 14 13
f 60 15 14
f 68 22 67
f 59 60 13
f 69 22 68
f 69 23 22
f 58 13 12
f 58 59 13
f 70 24 23
f 70 23 69
f 57 12 11
f 57 58 12
f 71 25 24
f 71 24 70
f 56 57 11
f 56 11 10
f 72 26 25
f 72 27 26
f 72 25 71
f 55 9 8
f 55 10 9
f 55 56 10
f 73 27 72
f 54 55 8
f 74 28 27
f 74 27 73
f 53 8 7
f 53 54 8
f 75 29 28
f 75 28 74
f 52 53 7
f 76 29 75
f 6 52 7
f 30 29 76
f 5 51 52
f 5 52 6
f 31 76 77
f 31 77 78
f 31 30 76
f 4 51 5
f 4 50 51
f 32 31 78
f 3 50 4
f 3 49 50
f 33 32 78
f 33 78 79
f 33 79 80
f 2 48 49
f 2 49 3
f 34 33 80
f 35 80 81
f 35 34 80
f 1 48 2
f 1 47 48
f 1 92 47
f 46 92 1
f 36 35 81
f 36 81 82
f 36 82 83
f 45 92 46
f 45 91 92
f 37 36 83
f 44 91 45
f 44 90 91
f 38 37 83
f 38 83 84
f 43 90 44
f 43 89 90
f 39 38 84
f 39 84 85
f 42 89 43
f 42 88 89
f 40 39 85
f 40 85 86
f 41 88 42
f 41 40 86
f 41 86 87
f 41 87 88
f 154 109 110
f 154 110 155
f 156 110 111
f 156 155 110
f 153 109 154
f 153 108 109
f 157 111 112
f 157 112 113
f 157 156 111
f 152 107 108
f 152 108 153
f 158 157 113
f 151 106 107
f 151 107 152
f 159 113 114
f 159 158 113
f 150 105 106
f 150 106 151
f 160 159 114
f 160 114 115
f 149 104 105
f 149 105 150
f 161 115 116
f 161 116 117
f 161 160 115
f 148 103 104
f 148 104 149
f 162 161 117
f 147 102 103
f 147 103 148
f 163 117 118
f 163 118 119
f 163 162 117
f 146 101 102
f 146 102 147
f 164 163 119
f 145 100 101
f 145 101 146
f 165 119 120
f 165 164 119
f 144 99 100
f 144 100 145
f 166 120 121
f 166 165 120
f 143 99 144
f 98 99 143
f 122 167 166
f 122 166 121
f 97 142 141
f 97 143 142
f 97 98 143
f 123 168 167
f 123 167 122
f 96 97 141
f 124 168 123
f 124 169 168
f 95 96 141
f 95 140 139
f 95 141 140
f 125 169 124
f 125 170 169
f 125 171 170
f 94 95 139
f 126 171 125
f 126 172 171
f 93 94 139
f 93 139 138
f 93 138 182
f 127 172 126
f 127 173 172
f 137 93 182
f 137 182 181
f 128 173 127
f 128 174 173
f 136 137 181
f 136 181 180
f 129 174 128
f 135 136 180
f 130 174 129
f 130 175 174
f 130 176 175
f 134 135 180
f 134 180 179
f 131 176 130
f 131 177 176
f 133 134 179
f 133 179 178
f 132 177 131
f 132 133 178
f 132 178 177
f 46 1 93
f 46 93 137
f 45 46 137
f 45 137 136
f 44 45 136
f 44 136 135
f 43 44 135
f 43 135 134
f 42 43 134
f 42 134 133
f 41 42 133
f 41 133 132
f 40 41 132
f 40 132 131
f 39 40 131
f 39 131 130
f 38 39 130
f 38 130 129
f 37 38 129
f 37 129 128
f 36 37 128
f 36 128 127
f 35 36 127
f 35 127 126
f 34 126 125
f 34 35 126
f 33 125 124
f 33 34 125
f 32 124 123
f 32 33 124
f 31 123 122
f 31 32 123
f 30 122 121
f 30 31 122
f 29 121 120
f 29 30 121
f 28 120 119
f 28 29 120
f 27 119 118
f 27 28 119
f 26 118 117
f 26 27 118
f 25 117 116
f 25 26 117
f 24 116 115
f 24 25 116
f 23 115 114
f 23 24 115
f 22 114 113
f 22 23 114
f 21 113 112
f 21 22 113
f 20 112 111
f 20 21 112
f 19 20 111
f 19 111 110
f 18 19 110
f 18 110 109
f 17 18 109
f 17 109 108
f 16 17 108
f 16 108 107
f 15 16 107
f 15 107 106
f 14 15 106
f 14 106 105
f 13 105 104
f 13 14 105
f 12 104 103
f 12 13 104
f 11 103 102
f 11 12 103
f 10 102 101
f 10 11 102
f 9 101 100
f 9 10 101
f 8 100 99
f 8 9 100
f 7 99 98
f 7 8 99
f 6 98 97
f 6 7 98
f 5 97 96
f 5 6 97
f 4 96 95
f 4 5 96
f 3 95 94
f 3 4 95
f 2 94 93
f 2 3 94
f 1 2 93
f 92 138 47
f 92 182 138
f 91 182 92
f 91 181 182
f 90 181 91
f 90 180 181
f 89 180 90
f 89 179 180
f 88 179 89
f 88 178 179
f 87 178 88
f 87 177 178
f 86 177 87
f 86 176 177
f 85 176 86
f 85 175 176
f 84 175 85
f 84 174 175
f 83 174 84
f 83 173 174
f 82 173 83
f 82 172 173
f 81 172 82
f 81 171 172
f 80 170 171
f 80 171 81
f 79 169 170
f 79 170 80
f 78 168 169
f 78 169 79
f 77 167 168
f 77 168 78
f 76 166 167
f 76 167 77
f 75 165 166
f 75 166 76
f 74 164 165
f 74 165 75
f 73 163 164
f 73 164 74
f 72 162 163
f 72 163 73
f 71 161 162
f 71 162 72
f 70 160 161
f 70 161 71
f 69 159 160
f 69 160 70
f 68 158 159
f 68 159 69
f 67 157 158
f 67 158 68
f 66 156 157
f 66 157 67
f 65 156 66
f 65 155 156
f 64 155 65
f 64 154 155
f 63 154 64
f 63 153 154
f 62 153 63
f 62 152 153
f 61 152 62
f 61 151 152
f 60 151 61
f 60 150 151
f 59 149 150
f 59 150 60
f 58 148 149
f 58 149 59
f 57 147 148
f 57 148 58
f 56 146 147
f 56 147 57
f 55 145 146
f 55 146 56
f 54 144 145
f 54 145 55
f 53 143 144
f 53 144 54
f 52 142 143
f 52 143 53
f 51 141 142
f 51 142 52
f 50 140 141
f 50 141 51
f 49 139 140
f 49 140 50
f 48 138 139
f 48 139 49
f 47 138 48

