# https://github.com/mikedh/trimesh
v -48.48420489 9.69722396 0.00000000
v -47.21575419 9.58588923 -5.00000000
v -47.13944327 9.60422891 -5.00000000
v -47.06617901 9.63237226 -5.00000000
v -46.99721498 9.66983774 -5.00000000
v -46.93373118 9.71598432 -5.00000000
v -46.87681382 9.77002240 -5.00000000
v -46.82743679 9.83102739 -5.00000000
v -46.78644493 9.89795546 -5.00000000
v -46.75453963 9.96966147 -5.00000000
v -46.75453963 9.96966147 5.00000000
v -46.78644493 9.89795546 5.00000000
v -46.82743679 9.83102739 5.00000000
v -46.87681382 9.77002240 5.00000000
v -46.93373118 9.71598432 5.00000000
v -46.99721498 9.66983774 5.00000000
v -47.06617901 9.63237226 5.00000000
v -47.13944327 9.60422891 5.00000000
v -47.21575419 9.58588923 5.00000000
v -44.97317694 14.80176732 5.00000000
v -44.97317694 14.80176732 -5.00000000
v -44.95090410 14.87702435 -5.00000000
v -44.93864483 14.95454474 -5.00000000
v -44.93660888 15.03300208 -5.00000000
v -44.94483108 15.11105396 -5.00000000
v -44.96317076 15.18736487 -5.00000000
v -44.99131411 15.26062913 -5.00000000
v -45.02877959 15.32959316 -5.00000000
v -45.07492617 15.39307697 -5.00000000
v -45.12896425 15.44999432 -5.00000000
v -45.18996924 15.49937135 -5.00000000
v -45.25689731 15.54036321 -5.00000000
v -45.32860332 15.57226851 -5.00000000
v -45.32860332 15.57226851 5.00000000
v -45.25689731 15.54036321 5.00000000
v -45.18996924 15.49937135 5.00000000
v -45.12896425 15.44999432 5.00000000
v -45.07492617 15.39307697 5.00000000
v -45.02877959 15.32959316 5.00000000
v -44.99131411 15.26062913 5.00000000
v -44.96317076 15.18736487 5.00000000
v -44.94483108 15.11105396 5.00000000
v -44.93660888 15.03300208 5.00000000
v -44.93864483 14.95454474 5.00000000
v -44.95090410 14.87702435 5.00000000
v -40.58030194 26.71783418 5.00000000
v -40.58030194 26.71783418 -5.00000000
v -40.55802911 26.79309121 -5.00000000
v -41.45295873 28.66146921 5.11001929
v -40.54987932 26.83153199 5.00000000
v -43.68264452 21.51166526 -5.00000000
v -42.74656827 21.52029576 -5.00000000
v -42.67330401 21.54843911 -5.00000000
v -42.60433999 21.58590460 -5.00000000
v -42.54085618 21.63205117 -5.00000000
v -42.48393883 21.68608925 -5.00000000
v -42.43456179 21.74709424 -5.00000000
v -42.39356993 21.81402232 -5.00000000
v -42.36166463 21.88572833 -5.00000000
v -42.36166463 21.88572833 5.00000000
v -42.39356993 21.81402232 5.00000000
v -42.43456179 21.74709424 5.00000000
v -42.48393883 21.68608925 5.00000000
v -42.54085618 21.63205117 5.00000000
v -42.60433999 21.58590460 5.00000000
v -42.67330401 21.54843911 5.00000000
v -42.74656827 21.52029576 5.00000000
v -42.82287919 21.50195608 5.00000000
v -48.31969806 24.08216582 5.00000000
v -48.31969806 24.08216582 -5.00000000
v -48.34197089 24.00690879 -5.00000000
v -48.35423017 23.92938841 -5.00000000
v -48.35626612 23.85093107 -5.00000000
v -48.34804392 23.77287919 -5.00000000
v -48.32970424 23.69656827 -5.00000000
v -48.30156089 23.62330401 -5.00000000
v -48.26409540 23.55433999 -5.00000000
v -48.21794883 23.49085618 -5.00000000
v -48.16391075 23.43393883 -5.00000000
v -48.10290576 23.38456179 -5.00000000
v -44.15961920 21.60815702 5.00000000
v -48.10290576 23.38456179 5.00000000
v -48.16391075 23.43393883 5.00000000
v -48.21794883 23.49085618 5.00000000
v -48.26409540 23.55433999 5.00000000
v -48.30156089 23.62330401 5.00000000
v -48.32970424 23.69656827 5.00000000
v -48.34804392 23.77287919 5.00000000
v -48.35626612 23.85093107 5.00000000
v -48.35423017 23.92938841 5.00000000
v -48.34197089 24.00690879 5.00000000
v -46.29566001 29.21409540 -5.00000000
v -46.35914382 29.16794883 -5.00000000
v -46.41606117 29.11391075 -5.00000000
v -46.46543821 29.05290576 -5.00000000
v -46.50643007 28.98597768 -5.00000000
v -46.53833537 28.91427167 -5.00000000
v -46.53833537 28.91427167 5.00000000
v -46.50643007 28.98597768 5.00000000
v -46.46543821 29.05290576 5.00000000
v -46.41606117 29.11391075 5.00000000
v -46.35914382 29.16794883 5.00000000
v -46.29566001 29.21409540 5.00000000
v -46.22669599 29.25156089 5.00000000
v -45.49623778 32.27813708 4.96728219
v -52.71257306 12.16609897 5.00000000
v -52.71257306 12.16609897 -5.00000000
v -52.73484589 12.09084194 -5.00000000
v -52.74710516 12.01332156 -5.00000000
v -52.74914112 11.93486421 -5.00000000
v -52.74091891 11.85681234 -5.00000000
v -52.72257924 11.78050142 -5.00000000
v -52.69443589 11.70723716 -5.00000000
v -52.65697040 11.63827313 -5.00000000
v -52.61082383 11.57478933 -5.00000000
v -52.55678574 11.51787197 -5.00000000
v -52.49578076 11.46849494 -5.00000000
v -52.49578076 11.46849494 5.00000000
v -52.55678574 11.51787197 5.00000000
v -52.61082383 11.57478933 5.00000000
v -52.65697040 11.63827313 5.00000000
v -52.69443589 11.70723716 5.00000000
v -52.72257924 11.78050142 5.00000000
v -52.74091891 11.85681234 5.00000000
v -52.74914112 11.93486421 5.00000000
v -52.74710516 12.01332156 5.00000000
v -52.73484589 12.09084194 5.00000000
v -50.16070917 17.35363121 5.00000000
v -50.16070917 17.35363121 -5.00000000
v -50.23596620 17.37590404 -5.00000000
v -50.31348659 17.38816331 -5.00000000
v -50.39194393 17.39019927 -5.00000000
v -50.46999581 17.38197706 -5.00000000
v -50.54630672 17.36363739 -5.00000000
v -50.61957098 17.33549404 -5.00000000
v -50.68853501 17.29802855 -5.00000000
v -50.75201882 17.25188198 -5.00000000
v -50.80893617 17.19784389 -5.00000000
v -50.85831320 17.13683891 -5.00000000
v -50.89930506 17.06991083 -5.00000000
v -50.93121036 16.99820482 -5.00000000
v -50.93121036 16.99820482 5.00000000
v -50.89930506 17.06991083 5.00000000
v -50.85831320 17.13683891 5.00000000
v -50.80893617 17.19784389 5.00000000
v -50.75201882 17.25188198 5.00000000
v -50.68853501 17.29802855 5.00000000
v -50.61957098 17.33549404 5.00000000
v -50.54630672 17.36363739 5.00000000
v -50.46999581 17.38197706 5.00000000
v -50.39194393 17.39019927 5.00000000
v -50.31348659 17.38816331 5.00000000
v -50.23596620 17.37590404 5.00000000
v -50.79621878 -1.21438936 -5.00000000
v -49.34377910 2.96095750 -5.00000000
v -49.33151983 3.03847788 -5.00000000
v -49.32948388 3.11693523 -5.00000000
v -49.33770608 3.19498710 -5.00000000
v -49.35604575 3.27129802 -5.00000000
v -49.38418911 3.34456228 -5.00000000
v -49.42165459 3.41352631 -5.00000000
v -49.46780117 3.47701011 -5.00000000
v -49.52183925 3.53392747 -5.00000000
v -49.58284424 3.58330450 -5.00000000
v -49.64977231 3.62429636 -5.00000000
v -49.72147832 3.65620166 -5.00000000
v -49.72147832 3.65620166 5.00000000
v -49.64977231 3.62429636 5.00000000
v -49.58284424 3.58330450 5.00000000
v -49.52183925 3.53392747 5.00000000
v -49.46780117 3.47701011 5.00000000
v -49.42165459 3.41352631 5.00000000
v -49.38418911 3.34456228 5.00000000
v -49.35604575 3.27129802 5.00000000
v -49.33770608 3.19498710 5.00000000
v -49.32948388 3.11693523 5.00000000
v -49.33151983 3.03847788 5.00000000
v -49.34377910 2.96095750 5.00000000
v -51.91791582 -2.30183177 5.00000000
v -51.91791582 -2.30183177 -5.00000000
v -51.84265879 -2.32410460 -5.00000000
v -51.76513840 -2.33636387 -5.00000000
v -51.68668106 -2.33839983 -5.00000000
v -51.60862919 -2.33017762 -5.00000000
v -51.53231827 -2.31183795 -5.00000000
v -51.45905401 -2.28369460 -5.00000000
v -51.39008998 -2.24622911 -5.00000000
v -51.32660618 -2.20008254 -5.00000000
v -51.26968882 -2.14604445 -5.00000000
v -51.03365131 -1.82815964 -5.05801192
v -50.72297068 -1.11802921 5.00000000
v -51.22031179 -2.08503947 5.00000000
v -51.26968882 -2.14604445 5.00000000
v -51.32660618 -2.20008254 5.00000000
v -51.39008998 -2.24622911 5.00000000
v -51.45905401 -2.28369460 5.00000000
v -51.53231827 -2.31183795 5.00000000
v -51.60862919 -2.33017762 5.00000000
v -51.68668106 -2.33839983 5.00000000
v -51.76513840 -2.33636387 5.00000000
v -51.84265879 -2.32410460 5.00000000
v -56.89746376 1.03484220 -5.00000000
v -57.13998016 0.09725470 -5.00000000
v -57.14201611 0.01879736 -5.00000000
v -57.13379391 -0.05925452 -5.00000000
v -57.11545423 -0.13556543 -5.00000000
v -57.08731088 -0.20882969 -5.00000000
v -57.04984540 -0.27779372 -5.00000000
v -57.00369882 -0.34127753 -5.00000000
v -56.94966074 -0.39819488 -5.00000000
v -56.88865575 -0.44757191 -5.00000000
v -56.82172768 -0.48856377 -5.00000000
v -56.75002167 -0.52046907 -5.00000000
v -56.75002167 -0.52046907 5.00000000
v -56.82172768 -0.48856377 5.00000000
v -56.88865575 -0.44757191 5.00000000
v -56.94966074 -0.39819488 5.00000000
v -57.00369882 -0.34127753 5.00000000
v -57.04984540 -0.27779372 5.00000000
v -57.08731088 -0.20882969 5.00000000
v -57.11545423 -0.13556543 5.00000000
v -57.13379391 -0.05925452 5.00000000
v -57.14201611 0.01879736 5.00000000
v -57.13998016 0.09725470 5.00000000
v -54.55358417 5.43756435 5.00000000
v -54.55358417 5.43756435 -5.00000000
v -54.62884120 5.45983719 -5.00000000
v -54.70636159 5.47209646 -5.00000000
v -54.78481893 5.47413241 -5.00000000
v -54.86287080 5.46591021 -5.00000000
v -54.93918172 5.44757053 -5.00000000
v -55.01244598 5.41942718 -5.00000000
v -55.08141001 5.38196170 -5.00000000
v -55.14489381 5.33581512 -5.00000000
v -55.20181117 5.28177704 -5.00000000
v -55.25118820 5.22077205 -5.00000000
v -55.29218006 5.15384398 -5.00000000
v -56.89063815 1.15568910 5.00000000
v -55.29218006 5.15384398 5.00000000
v -55.25118820 5.22077205 5.00000000
v -55.20181117 5.28177704 5.00000000
v -55.14489381 5.33581512 5.00000000
v -55.08141001 5.38196170 5.00000000
v -55.01244598 5.41942718 5.00000000
v -54.93918172 5.44757053 5.00000000
v -54.86287080 5.46591021 5.00000000
v -54.78481893 5.47413241 5.00000000
v -54.70636159 5.47209646 5.00000000
v -54.62884120 5.45983719 5.00000000
v -54.55332148 7.33668635 4.92494902
v -54.41669759 7.52139166 4.70785308
v -53.60806883 9.72279912 4.74635774
v -53.62059797 9.92547354 4.93103007
v -53.22048641 9.89920527 4.70785308
v -53.21803768 9.90584768 4.76525134
v -53.21182491 9.92270039 4.82022465
v -53.20207898 9.94913710 4.87073004
v -53.18916208 9.98417533 4.91489058
v -53.17355425 10.02651297 4.95106513
v -53.15583552 10.07457661 4.97790932
v -53.13666438 10.12658006 4.99442554
v -53.11675327 10.18059071 5.00000000
v -53.28577051 10.21997502 4.99996855
v -53.42594183 10.20895664 5.00000000
v -53.50223013 10.19062522 5.00000000
v -53.57547239 10.16249130 5.00000000
v -53.64441497 10.12503643 5.00000000
v -53.70787782 10.07890170 5.00000000
v -53.76477468 10.02487676 5.00000000
v -53.81413169 9.96388634 5.00000000
v -53.85510404 9.89697436 5.00000000
v -53.32229456 9.91574808 4.70998277
v -53.39072079 9.90636033 4.71072647
v -53.48121647 9.86842348 4.71085418
v -53.55589794 9.80541252 4.70989638
v -54.34277844 6.85488765 5.00000000
v -54.32286734 6.90889830 4.99442554
v -54.30369619 6.96090175 4.97790932
v -54.28597746 7.00896539 4.95106513
v -54.27036963 7.05130303 4.91489058
v -54.25745273 7.08634126 4.87073004
v -54.24770681 7.11277797 4.82022465
v -54.24149403 7.12963067 4.76525134
v -54.23904530 7.13627308 4.70785308
v -54.43324040 7.41958351 4.70998277
v -54.42385265 7.35115729 4.71072647
v -54.38591580 7.26066161 4.71085418
v -54.32290484 7.18598014 4.70989638
v -54.71828862 7.60092510 4.99979268
v -54.73466411 7.39396482 5.00000000
v -54.72644896 7.31593625 5.00000000
v -54.70811754 7.23964794 5.00000000
v -54.67998362 7.16640568 5.00000000
v -54.64252875 7.09746311 5.00000000
v -54.59639401 7.03400026 5.00000000
v -54.49691587 6.93463476 4.99996855
v -53.16362418 9.77593806 1.04214692
v -53.52307449 9.65115238 1.04076733
v -53.44364495 9.73704819 1.03911100
v -53.39293345 9.76677933 1.03889786
v -53.27917782 9.79414410 1.03974224
v -53.22050146 9.79072704 1.04076733
v -47.83957970 7.91552636 4.70785308
v -47.83713096 7.92216877 4.76525134
v -47.83091819 7.93902147 4.82022465
v -47.82117226 7.96545818 4.87073004
v -47.80825536 8.00049641 4.91489058
v -47.79264753 8.04283405 4.95106513
v -47.77492880 8.09089769 4.97790932
v -47.75575766 8.14290114 4.99442554
v -48.80470163 4.83147791 4.99993794
v -48.94196062 4.92521938 4.99442554
v -48.92278947 4.97722283 4.97790932
v -48.90507074 5.02528647 4.95106513
v -48.88946291 5.06762411 4.91489058
v -48.87654601 5.10266234 4.87073004
v -48.86680009 5.12909905 4.82022465
v -48.86058731 5.14595176 4.76525134
v -48.85813858 5.15259417 4.70785308
v -54.11577808 7.19313532 1.04214692
v -54.16864470 7.21880358 1.04076733
v -54.25454051 7.29823313 1.03911100
v -54.28427165 7.34894463 1.03889786
v -54.31163642 7.46270026 1.03974224
v -54.30821936 7.52137662 1.04076733
v -53.24744622 9.54856328 0.75557446
v -53.22827507 9.60056673 0.77209068
v -53.21055634 9.64863037 0.79893487
v -53.19494851 9.69096800 0.83510942
v -53.18203162 9.72600624 0.87926996
v -53.17228569 9.75244294 0.92977535
v -53.16607291 9.76929565 0.98474866
v -53.49640822 9.66155621 0.92024984
v -53.36091773 9.58011633 0.76544504
v -53.31621285 9.75693458 0.87396946
v -47.66192740 7.53040778 4.70785308
v -47.51141234 7.68937593 4.92623432
v -48.19177903 5.19504030 4.99981046
v -47.35826627 7.50190588 5.00000000
v -47.34600261 7.57940135 5.00000000
v -47.34396088 7.65783462 5.00000000
v -47.35217603 7.73586319 5.00000000
v -47.37050745 7.81215150 5.00000000
v -47.39864138 7.88539376 5.00000000
v -47.43609625 7.95433633 5.00000000
v -47.48223098 8.01779918 5.00000000
v -47.59050689 8.12516061 4.99994218
v -47.64538459 7.63221593 4.70998277
v -47.65477235 7.70064215 4.71072647
v -47.69270919 7.79113783 4.71085418
v -47.75572015 7.86581930 4.70989638
v -48.56276817 5.06747432 4.93415467
v -48.47302000 5.33024646 4.70785308
v -48.75633043 5.13605136 4.70998277
v -48.68790420 5.14543911 4.71072647
v -48.59740852 5.18337596 4.71085418
v -48.52272705 5.24638692 4.70989638
v -48.65268316 4.84284280 5.00000000
v -48.57639486 4.86117422 5.00000000
v -48.50315260 4.88930814 5.00000000
v -48.43421002 4.92676301 5.00000000
v -48.37074718 4.97289774 5.00000000
v -48.31385031 5.02692268 5.00000000
v -54.01204494 7.47452076 0.75000000
v -54.24187866 7.42447405 0.82135118
v -53.70745041 9.20706675 0.99579224
v -54.11332935 7.19977773 0.98474866
v -54.10711658 7.21663043 0.92977535
v -54.09737065 7.24306714 0.87926996
v -54.08445375 7.27810538 0.83510942
v -54.06884592 7.32044301 0.79893487
v -54.05112719 7.36850665 0.77209068
v -54.06431552 7.45040873 0.75557446
v -54.08191206 7.41687017 0.76181775
v -54.30338857 7.53419413 0.99800538
v -54.20609638 7.29559425 0.86787720
v -48.06658005 7.57727868 0.75000000
v -47.92103049 7.83572415 0.99509321
v -48.04666895 7.63128934 0.75557446
v -48.02749780 7.68329279 0.77209068
v -48.00977907 7.73135643 0.79893487
v -47.99417124 7.77369406 0.83510942
v -47.98125434 7.80873230 0.87926996
v -47.97150842 7.83516901 0.92977535
v -47.96529564 7.85202171 0.98474866
v -47.90998029 7.83299586 1.04076733
v -47.82408448 7.75356631 1.03911100
v -47.79435334 7.70285481 1.03889786
v -47.76698857 7.58909918 1.03974224
v -47.77040563 7.53042282 1.04076733
v -48.52988223 5.45351367 1.04214692
v -48.55555050 5.40064706 1.04076733
v -48.63498004 5.31475125 1.03911100
v -48.68569155 5.28502011 1.03889786
v -48.79944717 5.25765534 1.03974224
v -48.85812353 5.26107240 1.04076733
v -48.91255208 5.28250379 0.98474866
v -48.90633931 5.29935649 0.92977535
v -48.89659338 5.32579320 0.87926996
v -48.88367648 5.36083144 0.83510942
v -48.86806865 5.40316907 0.79893487
v -48.85034992 5.45123271 0.77209068
v -48.83117878 5.50323616 0.75557446
v -48.01256940 7.55736758 0.75557446
v -47.96056595 7.53819643 0.77209068
v -47.91250231 7.52047770 0.79893487
v -47.87016467 7.50486987 0.83510942
v -47.83512643 7.49195298 0.87926996
v -47.80868973 7.48220705 0.92977535
v -47.79183702 7.47599428 0.98474866
v -48.01430947 7.60139071 0.75557446
v -47.89861754 7.73384221 0.82374381
v -47.83923143 7.64609747 0.82182303
v -47.77523642 7.51760530 0.99800539
v -48.53652464 5.45596241 0.98474866
v -48.55337735 5.46217518 0.92977535
v -48.57981406 5.47192111 0.87926996
v -48.61485229 5.48483801 0.83510942
v -48.65718993 5.50044584 0.79893487
v -48.70525357 5.51816457 0.77209068
v -48.75725702 5.53733571 0.75557446
v -48.78586716 5.50331754 0.75477721
v -48.73282105 5.33153968 0.82962187
v -48.86830051 5.26616953 0.99509319
v -48.59184531 5.37158198 0.93847843
v -50.30520803 19.54119166 5.00000000
v -50.25119738 19.52128055 4.99442554
v -50.19919393 19.50210941 4.97790932
v -50.15113029 19.48439068 4.95106513
v -50.10879265 19.46878285 4.91489058
v -50.07375442 19.45586595 4.87073004
v -50.04731771 19.44612002 4.82022465
v -50.03046500 19.43990725 4.76525134
v -50.02382260 19.43745852 4.70785308
v -49.21273000 21.63761983 4.70785308
v -49.21937241 21.64006857 4.76525134
v -49.23622511 21.64628134 4.82022465
v -49.26266182 21.65602727 4.87073004
v -49.29770005 21.66894416 4.91489058
v -49.34003769 21.68455199 4.95106513
v -49.38810133 21.70227072 4.97790932
v -49.44010478 21.72144187 4.99442554
v -49.49411543 21.74135297 5.00000000
v -48.82761142 21.81527213 4.70785308
v -48.82516268 21.82191454 4.76525134
v -48.80920398 21.86520395 4.87073004
v -48.79628708 21.90024218 4.91489058
v -48.78067926 21.94257982 4.95106513
v -48.76296053 21.99064346 4.97790932
v -48.94857415 22.13345214 5.00000000
v -49.06814277 22.11790396 5.00000000
v -49.16561796 22.08607455 5.00000000
v -49.24196310 22.04702403 5.00000000
v -49.30041381 22.00672513 5.00000000
v -49.38443051 21.92693505 5.00000000
v -49.44922701 21.83647112 5.00000000
v -48.92941957 21.83181493 4.70998277
v -48.99784579 21.82242718 4.71072647
v -49.08834147 21.78449033 4.71085418
v -49.16302294 21.72147937 4.70989638
v -48.95996136 21.88738027 4.87930798
v -48.90942651 22.05286738 4.98770819
v -49.19954503 21.81316335 4.93297068
v -49.94990344 18.77095450 5.00000000
v -50.02302765 18.82098945 4.99916698
v -49.91082119 18.87696860 4.97790932
v -49.89310246 18.92503224 4.95106513
v -49.87749463 18.96736988 4.91489058
v -49.86457774 19.00240812 4.87073004
v -49.85483181 19.02884482 4.82022465
v -49.84861903 19.04569753 4.76525134
v -49.84617030 19.05233994 4.70785308
v -50.04036540 19.33565037 4.70998277
v -50.03097765 19.26722414 4.71072647
v -49.99304080 19.17672846 4.71085418
v -49.93002984 19.10204699 4.70989638
v -50.33131882 19.44764252 5.00000000
v -50.34042024 19.38044862 5.00000000
v -50.34200261 19.31649578 5.00000000
v -50.32645443 19.19692716 5.00000000
v -50.29462502 19.09945197 5.00000000
v -50.25557450 19.02310683 5.00000000
v -50.21527560 18.96465612 5.00000000
v -50.13548552 18.88063943 5.00000000
v -50.11183908 19.16177834 4.93188213
v -49.15586776 21.51435262 1.04214692
v -48.77074918 21.69200491 1.04214692
v -49.13019950 21.56721924 1.04076733
v -49.05076995 21.65311505 1.03911100
v -49.00005845 21.68284618 1.03889786
v -48.88630282 21.71021096 1.03974224
v -48.82762646 21.70679390 1.04076733
v -43.44670470 19.83159321 4.70785308
v -43.44425596 19.83823562 4.76525134
v -43.43804319 19.85508833 4.82022465
v -43.42829726 19.88152503 4.87073004
v -43.41538037 19.91656327 4.91489058
v -43.39977254 19.95890090 4.95106513
v -43.21974355 19.91751521 4.97622647
v -43.36288266 20.05896799 4.99442554
v -44.47531736 16.76085289 4.99996154
v -44.54908562 16.84128624 4.99442554
v -44.52991447 16.89328969 4.97790932
v -44.51219574 16.94135333 4.95106513
v -44.49658791 16.98369096 4.91489058
v -44.48367102 17.01872920 4.87073004
v -44.47392509 17.04516590 4.82022465
v -44.46771231 17.06201861 4.76525134
v -44.46526358 17.06866102 4.70785308
v -49.73204779 19.11667958 0.99674862
v -49.77576971 19.13487044 1.04076733
v -49.86166552 19.21429998 1.03911100
v -49.89139665 19.26501148 1.03889786
v -49.91876142 19.37876711 1.03974224
v -49.91534436 19.43744347 1.04076733
v -48.85457122 21.46463013 0.75557446
v -48.83540007 21.51663358 0.77209068
v -48.81768134 21.56469722 0.79893487
v -48.80207351 21.60703486 0.83510942
v -48.78915662 21.64207309 0.87926996
v -48.77941069 21.66850980 0.92977535
v -48.77319792 21.68536251 0.98474866
v -49.14922535 21.51190389 0.98474866
v -49.13237265 21.50569111 0.92977535
v -49.10593594 21.49594518 0.87926996
v -49.07089770 21.48302829 0.83510942
v -49.02856007 21.46742046 0.79893487
v -48.98049643 21.44970173 0.77209068
v -48.92849298 21.43053058 0.75557446
v -48.88932400 21.46196956 0.75390882
v -48.93827216 21.64082916 0.82483824
v -49.09523982 21.59455641 0.93959977
v -43.26905240 19.44647463 4.70785308
v -43.12550347 19.59901776 4.91462832
v -42.95245476 19.50348453 5.00000000
v -42.95087239 19.56743737 5.00000000
v -42.96642057 19.68700598 5.00000000
v -42.99824998 19.78448118 5.00000000
v -43.03730050 19.86082631 5.00000000
v -43.07759940 19.91927703 5.00000000
v -43.15738948 20.00329372 5.00000000
v -43.26855484 20.09113451 4.99850792
v -43.25250959 19.54828278 4.70998277
v -43.26189735 19.61670901 4.71072647
v -43.29983420 19.70720469 4.71085418
v -43.36284516 19.78188616 4.70989638
v -44.16617876 16.98015094 4.94062387
v -44.08014500 17.24631332 4.70785308
v -44.36345543 17.05211821 4.70998277
v -44.29502920 17.06150597 4.71072647
v -44.20453352 17.09944281 4.71085418
v -44.12985205 17.16245377 4.70989638
v -44.36483264 16.74892555 4.99999566
v -44.22473223 16.76602918 5.00000000
v -44.12725703 16.79785860 5.00000000
v -44.05091190 16.83690912 5.00000000
v -43.99246118 16.87720802 5.00000000
v -43.90844449 16.95699809 5.00000000
v -43.84364799 17.04746203 5.00000000
v -49.61916995 19.39058761 0.75000000
v -49.67318060 19.41049871 0.75557446
v -49.72518405 19.42966986 0.77209068
v -49.77324769 19.44738859 0.79893487
v -49.81558533 19.46299642 0.83510942
v -49.85062356 19.47591331 0.87926996
v -49.87706027 19.48565924 0.92977535
v -49.89391297 19.49187202 0.98474866
v -49.72045435 19.11584458 0.98474866
v -49.71424158 19.13269729 0.92977535
v -49.70449565 19.15913399 0.87926996
v -49.69157875 19.19417223 0.83510942
v -49.67597092 19.23650987 0.79893487
v -49.65825220 19.28457351 0.77209068
v -49.63908105 19.33657696 0.75557446
v -49.67144052 19.36647559 0.75557446
v -49.84535376 19.32762125 0.82274308
v -49.78893753 19.22616269 0.82611572
v -49.91024724 19.44762039 0.99509318
v -43.67370505 19.49334554 0.75000000
v -43.56082723 19.76725356 0.99674857
v -43.65379395 19.54735619 0.75557446
v -43.63462280 19.59935964 0.77209068
v -43.61690407 19.64742328 0.79893487
v -43.60129624 19.68976092 0.83510942
v -43.58837935 19.72479915 0.87926996
v -43.57863342 19.75123586 0.92977535
v -43.57242064 19.76808857 0.98474866
v -43.51710529 19.74906271 1.04076733
v -43.43120948 19.66963317 1.03911100
v -43.40147835 19.61892166 1.03889786
v -43.37411357 19.50516604 1.03974224
v -43.37753063 19.44648968 1.04076733
v -44.13700724 17.36958053 1.04214692
v -44.52212582 17.19192823 1.04214692
v -44.16267550 17.31671391 1.04076733
v -44.24210505 17.23081810 1.03911100
v -44.29281655 17.20108696 1.03889786
v -44.40657217 17.17372219 1.03974224
v -44.46524853 17.17713925 1.04076733
v -44.41839267 17.47331367 0.75000000
v -44.51967708 17.19857064 0.98474866
v -44.51346431 17.21542335 0.92977535
v -44.50371838 17.24186005 0.87926996
v -44.49080148 17.27689829 0.83510942
v -44.47519365 17.31923593 0.79893487
v -44.45747492 17.36729957 0.77209068
v -43.97438994 18.45694803 0.75557424
v -43.57792753 19.50186236 0.76352886
v -43.87434505 18.42003525 0.79892915
v -43.47728967 19.42093673 0.83510942
v -43.44225144 19.40801983 0.87926996
v -43.41581473 19.39827390 0.92977535
v -43.39896202 19.39206113 0.98474866
v -43.62143448 19.51745756 0.75557446
v -43.61701172 19.55990262 0.76155325
v -43.43658196 19.57765721 0.84891291
v -43.38262775 19.43631276 0.99509322
v -43.48234680 19.70448501 0.93219568
v -44.14364965 17.37202926 0.98474866
v -44.16050235 17.37824204 0.92977535
v -44.18693906 17.38798796 0.87926996
v -44.22197729 17.40090486 0.83510942
v -44.39428065 17.42104309 0.75557446
v -44.42021732 17.35532753 0.76952256
v -44.35538201 17.40855903 0.76223443
v -44.34150448 17.23180139 0.84538144
v -44.19897031 17.28764883 0.93847845
v -49.04085435 -3.17595169 -5.00000000
v -48.98684370 -3.19586279 -4.99442554
v -48.93484025 -3.21503394 -4.97790932
v -48.88677661 -3.23275267 -4.95106513
v -48.84443897 -3.24836050 -4.91489058
v -48.80940074 -3.26127739 -4.87073004
v -48.78296403 -3.27102332 -4.82022465
v -48.76611133 -3.27723609 -4.76525134
v -48.75946892 -3.27968483 -4.70785308
v -52.34993009 -4.70240336 -5.00000000
v -49.35392618 -3.77134426 -5.00000000
v -49.81042928 -4.26542037 -5.00000000
v -50.08307353 -4.46360632 -5.00000000
v -50.69390215 -4.74537695 -5.00000000
v -51.02163507 -4.82414046 -5.00000000
v -51.39840114 -5.15627334 -4.90959522
v -51.69379608 -4.85070859 -5.00000000
v -52.02672330 -4.79805862 -5.00000000
v -50.37850250 -4.91550808 -4.92707008
v -49.59806459 -4.47384816 -4.83624921
v -49.72281920 -4.32219597 -4.99024448
v -49.09194927 -3.86529393 -4.90552521
v -58.90426982 -2.43177831 -4.92199932
v -57.97956797 -2.62702935 -5.00000000
v -38.17973034 26.28581990 -5.00000000
v -38.12571969 26.26590880 -4.99442554
v -38.07371624 26.24673765 -4.97790932
v -38.02565260 26.22901892 -4.95106513
v -37.98331496 26.21341109 -4.91489058
v -37.94827673 26.20049420 -4.87073004
v -37.92184002 26.19074827 -4.82022465
v -37.90498732 26.18453550 -4.76525134
v -59.78740509 0.78577953 -4.70785308
v -59.78076268 0.78333080 -4.76525134
v -59.76390997 0.77711802 -4.82022465
v -59.73747327 0.76737209 -4.87073004
v -59.70243503 0.75445520 -4.91489058
v -59.66009740 0.73884737 -4.95106513
v -59.61203376 0.72112864 -4.97790932
v -59.56003030 0.70195749 -4.99442554
v -59.50601965 0.68204639 -5.00000000
v -58.28752417 -2.49000548 -5.00000000
v -58.57496055 -2.31395752 -5.00000000
v -59.06903666 -1.85745442 -5.00000000
v -59.26722261 -1.58481017 -5.00000000
v -59.54899324 -0.97398155 -5.00000000
v -59.62775675 -0.64624863 -5.00000000
v -59.96244781 -0.32554571 -4.91450325
v -59.65432488 0.02591237 -5.00000000
v -59.60167491 0.35883960 -5.00000000
v -59.64972835 -1.44792985 -4.90979115
v -41.82658928 31.68517048 0.11833941
v -38.50241265 28.77693373 -5.11374455
v -37.86196685 26.78322165 -4.96513056
v -37.74007312 26.78026582 -4.73957151
v -48.92628108 30.24755112 -4.70785308
v -48.91963867 30.24510239 -4.76525134
v -48.90278596 30.23888961 -4.82022465
v -48.87634926 30.22914368 -4.87073004
v -48.84131102 30.21622679 -4.91489058
v -48.75090975 30.18290023 -4.97790932
v -48.69890629 30.16372908 -4.99442554
v -48.64489564 30.14381798 -5.00000000
v -46.52152348 32.11970805 -4.96393961
v -48.50787177 30.45177417 -5.00000000
v -48.33182381 30.73921055 -5.00000000
v -47.87532071 31.23328666 -5.00000000
v -48.41102210 31.10901462 -4.91333959
v -52.43507150 -4.93335706 5.00000000
v -55.17863013 -6.63262031 0.06982553
v -48.52851521 -3.36482624 4.69214692
v -51.45915753 -5.40397371 4.91144982
v -48.53264195 -3.36330491 4.75177214
v -48.54778051 -3.35772406 4.80934115
v -48.57332964 -3.34830534 4.86256747
v -48.60827462 -3.33542282 4.90933714
v -48.65122755 -3.31958816 4.94779260
v -48.70048246 -3.30143027 4.97640653
v -48.75408311 -3.28167031 4.99404248
v -48.80990065 -3.26109310 5.00000000
v -52.08099081 -5.03814967 5.00000000
v -51.71626115 -5.09582895 5.00000000
v -50.97989284 -5.06672294 5.00000000
v -50.62085366 -4.98043565 5.00000000
v -49.95167645 -4.67174925 5.00000000
v -49.65298822 -4.45463185 5.00000000
v -49.15287826 -3.91335976 5.00000000
v -48.96001355 -3.59846640 5.00000000
v -49.94807338 -5.02094803 4.90099603
v -48.98642100 -4.14440827 4.92936864
v -37.66739121 26.09694535 4.69214692
v -37.67151794 26.09846668 4.75177214
v -37.68665650 26.10404753 4.80934115
v -37.71220563 26.11346626 4.86256747
v -37.74715061 26.12634877 4.90933714
v -37.79010354 26.14218343 4.94779260
v -37.83935845 26.16034132 4.97640653
v -37.94877664 26.20067849 5.00000000
v -58.06470938 -2.85798305 5.00000000
v -39.52440965 30.08796949 4.80934115
v -39.53382837 30.06242035 4.86256747
v -39.54671089 30.02747537 4.90933714
v -38.55114268 29.52765674 4.93281206
v -37.47198776 27.29509788 4.91972642
v -37.82649284 28.53005612 4.94013955
v -59.73697335 0.76718780 5.00000000
v -59.79279090 0.78776502 4.99404248
v -59.84639155 0.80752497 4.97640653
v -59.89564646 0.82568287 4.94779260
v -59.93859938 0.84151752 4.90933714
v -59.97354436 0.85440004 4.86256747
v -59.99909350 0.86381876 4.80934115
v -60.01423206 0.86939962 4.75177214
v -60.01835879 0.87092094 4.69214692
v -60.02813829 -1.26414737 4.90018603
v -60.18385615 0.09105554 4.88064246
v -59.84176596 0.41310711 5.00000000
v -59.89944524 0.04837744 5.00000000
v -59.87033923 -0.68799086 5.00000000
v -59.78405194 -1.04703004 5.00000000
v -59.47536554 -1.71620725 5.00000000
v -59.25824813 -2.01489548 5.00000000
v -58.71697605 -2.51500545 5.00000000
v -58.40208269 -2.70787016 5.00000000
v -60.01032800 -0.34615218 4.98962067
v -59.09370335 -2.59443718 4.92177301
v -45.16346626 32.13779437 4.86256747
v -45.17634877 32.10284939 4.90933714
v -45.19218343 32.05989646 4.94779260
v -48.87584934 30.22895939 5.00000000
v -48.93166689 30.24953661 4.99404248
v -48.98526754 30.26929656 4.97640653
v -49.03452245 30.28745446 4.94779260
v -49.07747537 30.30328911 4.90933714
v -49.11242035 30.31617163 4.86256747
v -49.13796949 30.32559035 4.80934115
v -49.15310805 30.33117121 4.75177214
v -49.15723478 30.33269253 4.69214692
v -47.77231464 31.97019354 4.89792405
v -47.73407355 31.63961554 5.00000000
v -48.03276178 31.42249814 5.00000000
v -48.53287174 30.88122606 5.00000000
v -48.72573645 30.56633269 5.00000000
v -48.67074637 31.15423202 4.92953888
v -50.02382260 19.43745852 -4.70785308
v -49.19022436 21.87008877 -4.92710983
v -49.21273000 21.63761983 -4.70785308
v -48.74378938 22.04264691 -4.99442554
v -48.76296053 21.99064346 -4.97790932
v -48.78067926 21.94257982 -4.95106513
v -48.79628708 21.90024218 -4.91489058
v -48.80920398 21.86520395 -4.87073004
v -48.81894991 21.83876724 -4.82022465
v -48.82516268 21.82191454 -4.76525134
v -48.82761142 21.81527213 -4.70785308
v -49.15923175 21.72580431 -4.70998277
v -49.10767565 21.77176349 -4.71072647
v -49.02007686 21.81598028 -4.71085418
v -48.92366872 21.83189167 -4.70989638
v -50.16860027 19.24972848 -4.93410924
v -49.42125669 21.87995320 -5.00000000
v -49.37189968 21.94094362 -5.00000000
v -49.31500282 21.99496855 -5.00000000
v -49.25153997 22.04110328 -5.00000000
v -49.18259740 22.07855815 -5.00000000
v -49.10935514 22.10669207 -5.00000000
v -49.03306683 22.12502349 -5.00000000
v -48.88104841 22.13638840 -4.99993794
v -49.84617030 19.05233994 -4.70785308
v -49.84861903 19.04569753 -4.76525134
v -49.85483181 19.02884482 -4.82022465
v -49.86457774 19.00240812 -4.87073004
v -49.87749463 18.96736988 -4.91489058
v -49.89310246 18.92503224 -4.95106513
v -49.91082119 18.87696860 -4.97790932
v -49.92999234 18.82496515 -4.99442554
v -50.09525355 18.84274819 -4.99993794
v -50.20351902 18.95006711 -5.00000000
v -50.24965375 19.01352996 -5.00000000
v -50.28710862 19.08247254 -5.00000000
v -50.31524254 19.15571480 -5.00000000
v -50.33357396 19.23200310 -5.00000000
v -50.34178911 19.31003167 -5.00000000
v -50.33974738 19.38846494 -5.00000000
v -50.32253075 19.48806222 -4.99999702
v -49.93435477 19.10583818 -4.70998277
v -49.98031396 19.15739428 -4.71072647
v -50.02453075 19.24499307 -4.71085418
v -50.04044214 19.34140122 -4.70989638
v -43.34297156 20.11297865 -5.00000000
v -43.36288266 20.05896799 -4.99442554
v -43.38205381 20.00696454 -4.97790932
v -43.39977254 19.95890090 -4.95106513
v -43.41538037 19.91656327 -4.91489058
v -43.42829726 19.88152503 -4.87073004
v -43.43804319 19.85508833 -4.82022465
v -43.44425596 19.83823562 -4.76525134
v -43.44670470 19.83159321 -4.70785308
v -48.77074918 21.69200491 -1.04214692
v -48.82762646 21.70679390 -1.04076733
v -48.94452532 21.70212489 -1.03911100
v -49.00005845 21.68284618 -1.03889786
v -49.09471271 21.61407305 -1.03974224
v -49.13019950 21.56721924 -1.04076733
v -49.90055538 19.49432075 -1.04214692
v -49.91534436 19.43744347 -1.04076733
v -49.91067536 19.32054461 -1.03911100
v -49.89139665 19.26501148 -1.03889786
v -49.82262351 19.17035722 -1.03974224
v -49.77576971 19.13487044 -1.04076733
v -44.46526358 17.06866102 -4.70785308
v -44.46771231 17.06201861 -4.76525134
v -44.47392509 17.04516590 -4.82022465
v -44.48367102 17.01872920 -4.87073004
v -44.49658791 16.98369096 -4.91489058
v -44.51219574 16.94135333 -4.95106513
v -44.52991447 16.89328969 -4.97790932
v -44.54908562 16.84128624 -4.99442554
v -44.56899672 16.78727558 -5.00000000
v -43.26905240 19.44647463 -4.70785308
v -43.35852022 19.77809497 -4.70998277
v -43.31256104 19.72653887 -4.71072647
v -43.26834425 19.63894007 -4.71085418
v -43.25243286 19.54253193 -4.70989638
v -43.08935598 19.93386603 -5.00000000
v -43.04322125 19.87040319 -5.00000000
v -43.00576638 19.80146061 -5.00000000
v -42.97763246 19.72821835 -5.00000000
v -42.95930104 19.65193005 -5.00000000
v -42.95108588 19.57390148 -5.00000000
v -42.95312761 19.49546821 -5.00000000
v -43.16256347 19.72055010 -4.94969183
v -49.24815579 20.84918052 -0.78107872
v -49.07089770 21.48302829 -0.83510942
v -49.10593594 21.49594518 -0.87926996
v -49.13237265 21.50569111 -0.92977535
v -49.14922535 21.51190389 -0.98474866
v -48.77319792 21.68536251 -0.98474866
v -48.77941069 21.66850980 -0.92977535
v -48.78915662 21.64207309 -0.87926996
v -48.80207351 21.60703486 -0.83510942
v -48.81768134 21.56469722 -0.79893487
v -48.83540007 21.51663358 -0.77209068
v -48.85457122 21.46463013 -0.75557446
v -48.91265404 21.68492370 -0.89982405
v -49.14839036 21.52349729 -0.99674862
v -48.99670150 21.63113100 -0.83295289
v -48.89863677 21.46481702 -0.75471860
v -49.61916995 19.39058761 -0.75000000
v -49.63908105 19.33657696 -0.75557446
v -49.65825220 19.28457351 -0.77209068
v -49.67597092 19.23650987 -0.79893487
v -49.69157875 19.19417223 -0.83510942
v -49.70449565 19.15913399 -0.87926996
v -49.71424158 19.13269729 -0.92977535
v -49.72045435 19.11584458 -0.98474866
v -49.89391297 19.49187202 -0.98474866
v -49.87706027 19.48565924 -0.92977535
v -49.85062356 19.47591331 -0.87926996
v -49.81558533 19.46299642 -0.83510942
v -49.77980054 19.34936249 -0.78364267
v -49.90555150 19.36197214 -0.93094632
v -49.73204779 19.11667958 -0.99674862
v -49.67144052 19.36647559 -0.75557446
v -49.80124654 19.24193218 -0.82436739
v -44.08014500 17.24631332 -4.70785308
v -44.02829852 17.07203418 -4.92738930
v -43.82007118 17.09092763 -4.99999643
v -43.87161830 17.00397995 -5.00000000
v -43.92097532 16.94298953 -5.00000000
v -43.97787218 16.88896460 -5.00000000
v -44.04133503 16.84282987 -5.00000000
v -44.11027760 16.80537500 -5.00000000
v -44.18351986 16.77724107 -5.00000000
v -44.25980817 16.75890965 -5.00000000
v -44.39997949 16.74789127 -4.99996855
v -44.13364324 17.15812884 -4.70998277
v -44.18519935 17.11216965 -4.71072647
v -44.27279814 17.06795286 -4.71085418
v -44.36920628 17.05204147 -4.70989638
v -43.39231961 19.38961240 -1.04214692
v -43.56082723 19.76725356 -0.99674857
v -43.37753063 19.44648968 -1.04076733
v -43.38219964 19.56338854 -1.03911100
v -43.40147835 19.61892166 -1.03889786
v -43.47025148 19.71357592 -1.03974224
v -43.51710529 19.74906271 -1.04076733
v -43.67370505 19.49334554 -0.75000000
v -43.57242064 19.76808857 -0.98474866
v -43.57863342 19.75123586 -0.92977535
v -43.58837935 19.72479915 -0.87926996
v -43.60129624 19.68976092 -0.83510942
v -43.61690407 19.64742328 -0.79893487
v -43.63462280 19.59935964 -0.77209068
v -43.65379395 19.54735619 -0.75557446
v -44.52212582 17.19192823 -1.04214692
v -44.43830378 17.41930302 -0.75557446
v -44.45747492 17.36729957 -0.77209068
v -44.47519365 17.31923593 -0.79893487
v -44.49080148 17.27689829 -0.83510942
v -44.50371838 17.24186005 -0.87926996
v -44.51346431 17.21542335 -0.92977535
v -44.51967708 17.19857064 -0.98474866
v -44.46524853 17.17713925 -1.04076733
v -44.34834967 17.18180825 -1.03911100
v -44.29281655 17.20108696 -1.03889786
v -44.19816229 17.26986010 -1.03974224
v -44.16267550 17.31671391 -1.04076733
v -43.39896202 19.39206113 -0.98474866
v -43.41581473 19.39827390 -0.92977535
v -43.44225144 19.40801983 -0.87926996
v -43.47728967 19.42093673 -0.83510942
v -43.51307442 19.53457071 -0.78364271
v -43.38732351 19.52196101 -0.93094631
v -43.62143448 19.51745756 -0.75557446
v -43.49162845 19.64200097 -0.82436739
v -44.04471746 18.03475754 -0.78107879
v -44.22197729 17.40090486 -0.83510942
v -44.18693906 17.38798796 -0.87926996
v -44.16050235 17.37824204 -0.92977535
v -44.14364965 17.37202926 -0.98474866
v -44.38502379 17.19833861 -0.90109904
v -44.14448468 17.36043577 -0.99674861
v -44.29531322 17.25729551 -0.83189922
v -44.39307056 17.41948379 -0.75471850
v -54.41669759 7.52139166 -4.70785308
v -53.63373221 9.93492678 -4.92860047
v -53.60560499 9.72155298 -4.70785308
v -53.11675327 10.18059071 -5.00000000
v -53.13666438 10.12658006 -4.99442554
v -53.15583552 10.07457661 -4.97790932
v -53.17355425 10.02651297 -4.95106513
v -53.18916208 9.98417533 -4.91489058
v -53.20207898 9.94913710 -4.87073004
v -53.21182491 9.92270039 -4.82022465
v -53.21803768 9.90584768 -4.76525134
v -53.22048641 9.89920527 -4.70785308
v -53.55210675 9.80973745 -4.70998277
v -53.50055065 9.85569664 -4.71072647
v -53.41295186 9.89991343 -4.71085418
v -53.31654371 9.91582482 -4.70989638
v -53.85510404 9.89697436 -5.00000000
v -53.81413169 9.96388634 -5.00000000
v -53.76477468 10.02487676 -5.00000000
v -53.70787782 10.07890170 -5.00000000
v -53.64441497 10.12503643 -5.00000000
v -53.57547239 10.16249130 -5.00000000
v -53.50223013 10.19062522 -5.00000000
v -53.42594183 10.20895664 -5.00000000
v -53.28577051 10.21997502 -4.99996855
v -54.23904530 7.13627308 -4.70785308
v -54.24149403 7.12963067 -4.76525134
v -54.24770681 7.11277797 -4.82022465
v -54.25745273 7.08634126 -4.87073004
v -54.27036963 7.05130303 -4.91489058
v -54.28597746 7.00896539 -4.95106513
v -54.30369619 6.96090175 -4.97790932
v -54.32286734 6.90889830 -4.99442554
v -54.34277844 6.85488765 -5.00000000
v -54.49691587 6.93463476 -4.99996855
v -54.59639401 7.03400026 -5.00000000
v -54.64252875 7.09746311 -5.00000000
v -54.67998362 7.16640568 -5.00000000
v -54.70811754 7.23964794 -5.00000000
v -54.72644896 7.31593625 -5.00000000
v -54.73466411 7.39396482 -5.00000000
v -54.73254521 7.47757608 -4.99996068
v -54.32722977 7.18977133 -4.70998277
v -54.37318896 7.24132743 -4.71072647
v -54.41740575 7.32892622 -4.71085418
v -54.43331714 7.42533436 -4.70989638
v -54.51346423 7.25463924 -4.93480143
v -47.59049647 8.12511812 -4.99993794
v -47.75575766 8.14290114 -4.99442554
v -47.77492880 8.09089769 -4.97790932
v -47.79264753 8.04283405 -4.95106513
v -47.80825536 8.00049641 -4.91489058
v -47.82117226 7.96545818 -4.87073004
v -47.83091819 7.93902147 -4.82022465
v -47.83713096 7.92216877 -4.76525134
v -47.83957970 7.91552636 -4.70785308
v -53.16362418 9.77593806 -1.04214692
v -53.22050146 9.79072704 -1.04076733
v -53.33740032 9.78605804 -1.03911100
v -53.39293345 9.76677933 -1.03889786
v -53.48758771 9.69800619 -1.03974224
v -53.52307449 9.65115238 -1.04076733
v -54.29343038 7.57825390 -1.04214692
v -54.11577808 7.19313532 -1.04214692
v -54.30821936 7.52137662 -1.04076733
v -54.30355036 7.40447776 -1.03911100
v -54.28427165 7.34894463 -1.03889786
v -54.21549851 7.25429037 -1.03974224
v -54.16864470 7.21880358 -1.04076733
v -48.85813858 5.15259417 -4.70785308
v -48.86058731 5.14595176 -4.76525134
v -48.86680009 5.12909905 -4.82022465
v -48.87654601 5.10266234 -4.87073004
v -48.88946291 5.06762411 -4.91489058
v -48.90507074 5.02528647 -4.95106513
v -48.92278947 4.97722283 -4.97790932
v -48.94196062 4.92521938 -4.99442554
v -47.43455262 7.44658574 -4.99442554
v -47.53059333 7.69339749 -4.90748282
v -47.66192740 7.53040778 -4.70785308
v -47.75139522 7.86202811 -4.70998277
v -47.70543603 7.81047201 -4.71072647
v -47.66121924 7.72287322 -4.71085418
v -47.64530785 7.62646508 -4.70989638
v -47.48223098 8.01779918 -5.00000000
v -47.43609625 7.95433633 -5.00000000
v -47.39864138 7.88539376 -5.00000000
v -47.37050745 7.81215150 -5.00000000
v -47.35217603 7.73586319 -5.00000000
v -47.34396088 7.65783462 -5.00000000
v -47.34600261 7.57940135 -5.00000000
v -47.36322686 7.47980054 -4.99999643
v -53.46377270 9.56696143 -0.83510942
v -53.49881094 9.57987833 -0.87926996
v -53.52524764 9.58962426 -0.92977535
v -53.54210035 9.59583703 -0.98474866
v -53.16607291 9.76929565 -0.98474866
v -53.17228569 9.75244294 -0.92977535
v -53.18203162 9.72600624 -0.87926996
v -53.19494851 9.69096800 -0.83510942
v -53.21055634 9.64863037 -0.79893487
v -53.22827507 9.60056673 -0.77209068
v -53.24744622 9.54856328 -0.75557446
v -53.46206191 9.68933783 -0.90530488
v -53.54126535 9.60743046 -0.99674862
v -53.31518929 9.71580680 -0.80766469
v -53.29759060 9.54006186 -0.75443340
v -54.06280931 7.45093126 -0.75404305
v -54.03195605 7.42051010 -0.75557446
v -54.05112719 7.36850665 -0.77209068
v -54.06884592 7.32044301 -0.79893487
v -54.08445375 7.27810538 -0.83510942
v -54.09737065 7.24306714 -0.87926996
v -54.10711658 7.21663043 -0.92977535
v -54.11332935 7.19977773 -0.98474866
v -54.28678797 7.57580516 -0.98474866
v -54.26993526 7.56959239 -0.92977535
v -54.24349856 7.55984646 -0.87926996
v -54.24628210 7.43062856 -0.82378226
v -54.20126316 7.27029973 -0.90994763
v -48.47302000 5.33024646 -4.70785308
v -48.56083759 5.06695675 -4.93489590
v -48.23053225 5.24533089 -4.99724837
v -48.19163456 5.22651332 -5.00000000
v -48.26449330 5.08791310 -5.00000000
v -48.31385031 5.02692268 -5.00000000
v -48.37074718 4.97289774 -5.00000000
v -48.43421002 4.92676301 -5.00000000
v -48.50315260 4.88930814 -5.00000000
v -48.57639486 4.86117422 -5.00000000
v -48.65268316 4.84284280 -5.00000000
v -48.80473714 4.83145234 -4.99994218
v -48.52651824 5.24206199 -4.70998277
v -48.57807434 5.19610280 -4.71072647
v -48.66567313 5.15188601 -4.71085418
v -48.76208128 5.13597462 -4.70989638
v -47.95370224 7.85118672 -0.99674862
v -47.77040563 7.53042282 -1.04076733
v -47.77507463 7.64732168 -1.03911100
v -47.79435334 7.70285481 -1.03889786
v -47.86312648 7.79750907 -1.03974224
v -47.90998029 7.83299586 -1.04076733
v -48.06658005 7.57727868 -0.75000000
v -47.96529564 7.85202171 -0.98474866
v -47.97150842 7.83516901 -0.92977535
v -47.98125434 7.80873230 -0.87926996
v -47.99417124 7.77369406 -0.83510942
v -48.00977907 7.73135643 -0.79893487
v -48.02749780 7.68329279 -0.77209068
v -48.04666895 7.63128934 -0.75557446
v -48.81126767 5.55724682 -0.75000000
v -48.90319078 5.27561380 -0.99674861
v -48.83117878 5.50323616 -0.75557446
v -48.85034992 5.45123271 -0.77209068
v -48.86806865 5.40316907 -0.79893487
v -48.88367648 5.36083144 -0.83510942
v -48.89659338 5.32579320 -0.87926996
v -48.90633931 5.29935649 -0.92977535
v -48.91255208 5.28250379 -0.98474866
v -48.52988223 5.45351367 -1.04214692
v -48.85812353 5.26107240 -1.04076733
v -48.74122467 5.26574140 -1.03911100
v -48.68569155 5.28502011 -1.03889786
v -48.59103728 5.35379325 -1.03974224
v -48.55555050 5.40064706 -1.04076733
v -47.79183702 7.47599428 -0.98474866
v -47.80868973 7.48220705 -0.92977535
v -47.83512643 7.49195298 -0.87926996
v -47.87016467 7.50486987 -0.83510942
v -47.91250231 7.52047770 -0.79893487
v -47.96056595 7.53819643 -0.77209068
v -48.01256940 7.55736758 -0.75557446
v -47.78415701 7.49022956 -0.99470318
v -47.88450344 7.72593412 -0.82436739
v -47.83225063 7.61019306 -0.82751516
v -48.01430947 7.60139071 -0.75557446
v -48.74968749 5.49389858 -0.76148093
v -48.70525357 5.51816457 -0.77209068
v -48.65718993 5.50044584 -0.79893487
v -48.61485229 5.48483801 -0.83510942
v -48.57981406 5.47192111 -0.87926996
v -48.55337735 5.46217518 -0.92977535
v -48.53652464 5.45596241 -0.98474866
v -48.62672118 5.36908274 -0.87275349
v -48.77835328 5.32291740 -0.82751517
v -48.78715565 5.50497624 -0.75557446
f 19 3 2
f 19 2 1
f 18 4 3
f 18 3 19
f 17 5 4
f 17 4 18
f 16 6 5
f 16 5 17
f 15 7 6
f 15 6 16
f 14 8 7
f 14 7 15
f 13 9 8
f 13 8 14
f 12 10 9
f 12 9 13
f 11 10 12
f 45 21 20
f 45 22 21
f 44 23 22
f 44 22 45
f 43 24 23
f 43 23 44
f 42 25 24
f 42 24 43
f 41 26 25
f 41 25 42
f 40 27 26
f 40 26 41
f 39 28 27
f 39 27 40
f 38 29 28
f 38 28 39
f 37 30 29
f 37 29 38
f 36 31 30
f 36 30 37
f 35 32 31
f 35 33 32
f 35 31 36
f 34 33 35
f 46 48 47
f 50 48 46
f 50 680 48
f 49 680 50
f 68 52 51
f 68 51 81
f 67 53 52
f 67 52 68
f 66 54 53
f 66 53 67
f 65 55 54
f 65 54 66
f 64 56 55
f 64 55 65
f 63 57 56
f 63 56 64
f 62 58 57
f 62 57 63
f 61 59 58
f 61 58 62
f 60 59 61
f 91 70 69
f 91 71 70
f 90 72 71
f 90 71 91
f 89 73 72
f 89 72 90
f 88 74 73
f 88 73 89
f 87 75 74
f 87 74 88
f 86 76 75
f 86 75 87
f 85 77 76
f 85 76 86
f 84 78 77
f 84 77 85
f 83 79 78
f 83 78 84
f 82 80 79
f 82 79 83
f 81 51 80
f 81 80 82
f 105 691 680
f 105 680 49
f 104 92 691
f 104 691 105
f 103 93 92
f 103 92 104
f 102 94 93
f 102 93 103
f 101 95 94
f 101 94 102
f 100 96 95
f 100 95 101
f 99 97 96
f 99 96 100
f 98 97 99
f 127 107 106
f 127 108 107
f 126 109 108
f 126 108 127
f 125 110 109
f 125 109 126
f 124 111 110
f 124 110 125
f 123 112 111
f 123 113 112
f 123 111 124
f 122 114 113
f 122 113 123
f 121 115 114
f 121 114 122
f 120 116 115
f 120 115 121
f 119 117 116
f 119 116 120
f 118 1 117
f 118 117 119
f 128 130 129
f 153 131 130
f 153 130 128
f 152 132 131
f 152 131 153
f 151 133 132
f 151 132 152
f 150 133 151
f 149 134 133
f 149 135 134
f 149 133 150
f 148 136 135
f 148 135 149
f 147 136 148
f 146 137 136
f 146 138 137
f 146 136 147
f 145 139 138
f 145 138 146
f 144 140 139
f 144 139 145
f 143 141 140
f 143 140 144
f 142 141 143
f 191 155 154
f 178 155 191
f 177 156 155
f 177 157 156
f 177 155 178
f 176 158 157
f 176 157 177
f 175 159 158
f 175 158 176
f 174 160 159
f 174 159 175
f 173 161 160
f 173 160 174
f 172 162 161
f 172 161 173
f 171 163 162
f 171 162 172
f 170 164 163
f 170 163 171
f 169 164 170
f 168 165 164
f 168 164 169
f 167 166 165
f 167 165 168
f 201 180 179
f 201 181 180
f 200 182 181
f 200 181 201
f 199 183 182
f 199 182 200
f 198 184 183
f 198 183 199
f 197 185 184
f 197 184 198
f 196 186 185
f 196 185 197
f 195 187 186
f 195 186 196
f 194 188 187
f 194 187 195
f 193 189 188
f 193 188 194
f 192 190 189
f 192 189 193
f 191 154 190
f 191 190 192
f 238 203 202
f 224 204 203
f 224 203 238
f 223 205 204
f 223 204 224
f 222 206 205
f 222 205 223
f 221 207 206
f 221 206 222
f 220 207 221
f 219 208 207
f 219 209 208
f 219 207 220
f 218 209 219
f 217 210 209
f 217 209 218
f 216 211 210
f 216 210 217
f 215 212 211
f 215 211 216
f 214 213 212
f 214 212 215
f 249 226 225
f 249 227 226
f 248 228 227
f 248 227 249
f 247 229 228
f 247 228 248
f 246 230 229
f 246 229 247
f 245 231 230
f 245 230 246
f 244 232 231
f 244 231 245
f 243 233 232
f 243 232 244
f 242 234 233
f 242 233 243
f 241 235 234
f 241 234 242
f 240 236 235
f 240 235 241
f 239 237 236
f 239 236 240
f 238 202 237
f 238 237 239
f 253 289 250
f 252 250 251
f 252 253 250
f 261 262 263
f 272 254 255
f 253 270 271
f 253 271 289
f 253 258 259
f 253 259 260
f 253 260 261
f 253 261 263
f 253 263 264
f 253 264 265
f 253 265 266
f 253 266 267
f 253 255 256
f 253 256 257
f 253 257 258
f 253 273 272
f 253 272 255
f 253 267 268
f 253 268 269
f 253 269 270
f 253 274 273
f 253 275 274
f 253 252 275
f 285 251 250
f 277 296 276
f 284 288 283
f 250 289 290
f 250 290 291
f 250 291 292
f 250 292 293
f 250 293 294
f 250 286 285
f 250 294 295
f 250 295 296
f 250 277 278
f 250 296 277
f 250 287 286
f 250 288 287
f 250 280 281
f 250 281 282
f 250 278 279
f 250 279 280
f 250 283 288
f 250 282 283
f 298 252 366
f 298 275 252
f 333 275 298
f 299 274 275
f 299 275 333
f 300 273 274
f 300 274 299
f 335 273 300
f 301 272 273
f 301 273 335
f 302 254 272
f 302 272 301
f 297 254 302
f 310 347 262
f 310 262 261
f 309 261 260
f 309 310 261
f 308 260 259
f 308 309 260
f 307 259 258
f 307 308 259
f 306 258 257
f 306 307 258
f 305 257 256
f 305 306 257
f 304 256 255
f 304 305 256
f 303 255 254
f 303 304 255
f 276 311 312
f 277 312 313
f 277 276 312
f 278 313 314
f 278 277 313
f 279 314 315
f 279 278 314
f 280 315 316
f 280 279 315
f 281 316 317
f 281 280 316
f 282 317 318
f 282 281 317
f 283 318 319
f 283 282 318
f 284 283 319
f 321 284 320
f 321 288 284
f 376 288 321
f 322 287 288
f 322 288 376
f 323 286 287
f 323 287 322
f 365 286 323
f 324 285 286
f 324 286 365
f 325 251 285
f 325 285 324
f 375 251 325
f 334 326 327
f 335 327 328
f 335 328 329
f 335 334 327
f 335 329 330
f 335 330 331
f 335 297 302
f 335 331 332
f 335 332 297
f 335 302 301
f 333 334 335
f 333 300 299
f 333 335 300
f 333 298 366
f 337 338 339
f 340 337 339
f 348 336 337
f 303 351 304
f 337 340 341
f 337 341 342
f 337 342 343
f 337 343 344
f 337 344 345
f 337 349 348
f 337 345 346
f 337 346 347
f 337 310 309
f 337 347 310
f 337 350 349
f 337 351 350
f 337 306 305
f 337 307 306
f 337 308 307
f 337 309 308
f 337 304 351
f 337 305 304
f 354 319 318
f 353 357 352
f 352 313 312
f 352 312 311
f 352 311 358
f 352 358 359
f 352 359 360
f 352 316 315
f 352 317 316
f 352 360 361
f 352 355 354
f 352 361 362
f 352 362 363
f 352 363 338
f 352 356 355
f 352 357 356
f 352 314 313
f 352 315 314
f 352 318 317
f 352 354 318
f 365 364 334
f 373 364 364
f 373 364 365
f 374 364 373
f 374 373 365
f 376 374 365
f 375 365 366
f 376 370 371
f 376 371 372
f 376 372 374
f 375 325 324
f 365 375 324
f 376 368 369
f 376 369 370
f 376 323 322
f 376 365 323
f 376 321 320
f 376 320 367
f 376 367 368
f 365 333 366
f 365 334 333
f 297 385 378
f 332 384 385
f 332 385 297
f 331 383 384
f 331 384 332
f 330 382 383
f 330 383 331
f 329 381 382
f 329 382 330
f 328 380 381
f 328 381 329
f 327 379 380
f 327 380 328
f 326 377 379
f 326 379 327
f 334 377 326
f 386 303 378
f 386 351 303
f 412 351 386
f 387 350 351
f 387 351 412
f 388 349 350
f 388 350 387
f 413 349 388
f 389 348 349
f 389 349 413
f 390 336 348
f 390 348 389
f 414 336 390
f 352 338 337
f 353 337 336
f 353 352 337
f 392 353 391
f 392 357 353
f 425 357 392
f 393 356 357
f 393 357 425
f 394 355 356
f 394 356 393
f 423 355 394
f 395 354 355
f 395 355 423
f 396 319 354
f 396 354 395
f 424 319 396
f 397 320 424
f 397 367 320
f 398 368 367
f 398 367 397
f 399 369 368
f 399 368 398
f 400 370 369
f 400 369 399
f 401 371 370
f 401 370 400
f 402 372 371
f 402 371 401
f 403 374 372
f 403 364 374
f 403 372 402
f 422 364 403
f 413 377 404
f 413 404 405
f 413 405 406
f 413 406 407
f 411 377 377
f 411 377 413
f 412 377 411
f 413 412 411
f 413 407 408
f 413 408 409
f 412 379 377
f 412 380 379
f 414 409 410
f 414 413 409
f 412 381 380
f 412 382 381
f 414 390 389
f 413 414 389
f 412 383 382
f 412 384 383
f 412 388 387
f 412 413 388
f 378 412 386
f 378 385 384
f 378 384 412
f 422 403 402
f 423 422 402
f 423 401 400
f 423 402 401
f 423 399 398
f 423 400 399
f 422 420 421
f 423 420 422
f 424 398 397
f 424 423 398
f 423 418 419
f 423 419 420
f 424 396 395
f 423 424 395
f 425 416 417
f 425 417 418
f 425 418 423
f 425 394 393
f 425 423 394
f 425 391 415
f 425 415 416
f 425 392 391
f 410 391 414
f 410 415 391
f 409 416 415
f 409 415 410
f 408 417 416
f 408 416 409
f 407 418 417
f 407 417 408
f 406 419 418
f 406 418 407
f 405 420 419
f 405 419 406
f 404 421 420
f 404 420 405
f 377 422 421
f 377 421 404
f 443 426 427
f 442 427 428
f 442 443 427
f 441 428 429
f 441 442 428
f 440 429 430
f 440 441 429
f 439 430 431
f 439 440 430
f 438 431 432
f 438 439 431
f 437 432 433
f 437 438 432
f 436 433 434
f 436 437 433
f 435 436 434
f 457 444 445
f 442 456 443
f 441 456 442
f 435 460 436
f 462 447 448
f 462 448 449
f 462 461 447
f 462 450 451
f 462 451 452
f 463 452 453
f 463 461 462
f 463 462 452
f 463 453 454
f 461 446 447
f 461 458 457
f 461 457 445
f 463 454 455
f 463 455 456
f 463 456 441
f 461 459 458
f 463 459 461
f 463 460 459
f 463 438 437
f 463 439 438
f 463 440 439
f 463 441 440
f 463 437 436
f 463 436 460
f 477 427 426
f 428 427 477
f 473 434 433
f 472 476 471
f 485 477 478
f 485 478 479
f 485 428 477
f 485 479 480
f 485 480 481
f 485 431 430
f 485 432 431
f 485 481 482
f 485 482 483
f 485 474 473
f 485 483 484
f 485 484 465
f 485 465 466
f 485 475 474
f 485 476 475
f 485 468 469
f 485 469 470
f 485 429 428
f 485 430 429
f 485 433 432
f 485 473 433
f 485 466 467
f 485 467 468
f 485 470 471
f 485 471 476
f 488 435 486
f 488 460 435
f 532 460 488
f 489 459 460
f 489 460 532
f 490 458 459
f 490 459 489
f 531 458 490
f 491 457 458
f 491 458 531
f 492 444 457
f 492 457 491
f 487 444 492
f 500 462 449
f 500 542 462
f 499 500 449
f 498 449 448
f 498 499 449
f 497 448 447
f 497 498 448
f 496 447 446
f 496 497 447
f 495 461 445
f 495 446 461
f 495 496 446
f 494 445 444
f 494 495 445
f 493 494 444
f 464 501 502
f 465 464 502
f 466 502 503
f 466 465 502
f 467 503 504
f 467 466 503
f 468 504 505
f 468 467 504
f 469 505 506
f 469 468 505
f 470 506 507
f 470 469 506
f 471 507 508
f 471 470 507
f 472 508 509
f 472 471 508
f 511 472 510
f 511 476 472
f 577 476 511
f 512 475 476
f 512 476 577
f 513 474 475
f 513 475 512
f 576 474 513
f 514 473 474
f 514 474 576
f 515 434 473
f 515 473 514
f 578 434 515
f 530 516 517
f 531 530 517
f 531 517 518
f 531 518 519
f 531 519 520
f 531 520 521
f 531 528 529
f 531 529 530
f 531 487 492
f 531 521 522
f 531 522 487
f 531 526 527
f 531 527 528
f 531 492 491
f 532 524 525
f 532 525 526
f 532 526 531
f 532 490 489
f 532 531 490
f 532 488 486
f 532 486 523
f 532 523 524
f 543 533 534
f 499 542 500
f 493 546 494
f 534 547 535
f 534 535 536
f 534 536 537
f 534 537 538
f 499 538 539
f 499 534 538
f 499 539 540
f 534 544 543
f 499 540 541
f 499 541 542
f 534 545 544
f 534 546 545
f 534 496 495
f 534 497 496
f 534 498 497
f 534 499 498
f 534 495 494
f 534 494 546
f 503 502 501
f 549 509 508
f 548 552 547
f 547 501 553
f 547 503 501
f 547 553 554
f 547 554 555
f 547 506 505
f 547 507 506
f 547 555 556
f 547 556 557
f 547 550 549
f 547 557 558
f 547 558 559
f 547 551 550
f 547 552 551
f 547 504 503
f 547 505 504
f 547 508 507
f 547 549 508
f 576 560 561
f 576 561 562
f 576 562 563
f 576 563 564
f 575 560 560
f 575 560 576
f 577 560 575
f 576 577 575
f 576 564 565
f 576 565 566
f 577 573 574
f 577 574 560
f 578 566 567
f 578 576 566
f 577 571 572
f 577 572 573
f 578 515 514
f 576 578 514
f 577 569 570
f 577 570 571
f 577 513 512
f 577 576 513
f 510 569 577
f 510 568 569
f 510 577 511
f 567 486 578
f 567 523 486
f 566 524 523
f 566 523 567
f 565 525 524
f 565 524 566
f 564 526 525
f 564 525 565
f 563 527 526
f 563 526 564
f 562 528 527
f 562 527 563
f 561 529 528
f 561 528 562
f 560 530 529
f 560 529 561
f 487 587 580
f 522 586 587
f 522 587 487
f 521 585 586
f 521 586 522
f 520 584 585
f 520 585 521
f 519 583 584
f 519 584 520
f 518 582 583
f 518 583 519
f 517 581 582
f 517 582 518
f 516 579 581
f 516 581 517
f 530 579 516
f 588 493 580
f 588 546 493
f 618 546 588
f 589 545 546
f 589 546 618
f 590 544 545
f 590 545 589
f 616 544 590
f 591 543 544
f 591 544 616
f 592 533 543
f 592 543 591
f 617 533 592
f 547 534 533
f 548 547 533
f 595 548 593
f 595 552 548
f 627 552 595
f 596 551 552
f 596 552 627
f 597 550 551
f 597 551 596
f 626 550 597
f 598 549 550
f 598 550 626
f 599 509 549
f 599 549 598
f 594 509 599
f 594 568 510
f 601 569 568
f 601 568 594
f 602 570 569
f 602 569 601
f 603 571 570
f 603 570 602
f 604 572 571
f 604 571 603
f 605 573 572
f 605 572 604
f 606 574 573
f 606 573 605
f 624 574 606
f 600 560 574
f 600 574 624
f 608 579 607
f 616 608 609
f 616 609 610
f 614 579 579
f 614 579 608
f 615 579 614
f 608 615 614
f 616 610 611
f 616 611 612
f 615 581 579
f 615 582 581
f 616 615 608
f 617 612 613
f 617 616 612
f 616 583 582
f 616 584 583
f 616 582 615
f 617 592 591
f 616 617 591
f 618 585 584
f 618 586 585
f 618 584 616
f 618 616 590
f 618 590 589
f 580 618 588
f 580 587 586
f 580 586 618
f 624 605 604
f 624 606 605
f 623 600 600
f 623 600 624
f 625 600 623
f 626 624 604
f 625 623 624
f 626 603 602
f 626 604 603
f 626 625 624
f 625 626 607
f 625 607 600
f 626 601 594
f 626 602 601
f 626 594 599
f 626 622 609
f 626 599 598
f 627 620 621
f 627 621 622
f 627 622 626
f 627 626 597
f 627 597 596
f 627 593 619
f 627 619 620
f 627 595 593
f 613 593 617
f 613 619 593
f 612 620 619
f 612 619 613
f 611 621 620
f 611 620 612
f 610 622 621
f 610 621 611
f 609 622 610
f 608 626 609
f 607 626 608
f 579 600 607
f 645 697 637
f 636 649 635
f 643 697 645
f 643 645 644
f 646 643 642
f 646 642 641
f 648 640 639
f 648 646 640
f 647 646 648
f 649 648 638
f 649 647 648
f 649 628 629
f 649 190 628
f 649 638 190
f 649 629 630
f 649 630 631
f 649 631 632
f 649 632 633
f 649 633 634
f 649 634 635
f 651 637 697
f 650 651 697
f 629 652 653
f 629 628 652
f 630 653 654
f 630 629 653
f 631 654 655
f 631 630 654
f 632 655 656
f 632 631 655
f 633 656 657
f 633 632 656
f 634 657 658
f 634 633 657
f 635 658 659
f 635 634 658
f 636 659 682
f 636 635 659
f 650 669 651
f 675 667 668
f 675 668 677
f 675 666 667
f 675 665 666
f 675 664 665
f 675 663 664
f 675 662 663
f 675 660 661
f 675 661 662
f 675 677 676
f 675 674 673
f 678 675 673
f 650 678 672
f 650 672 671
f 650 670 669
f 681 653 652
f 681 654 653
f 681 655 654
f 681 656 655
f 681 657 656
f 681 658 657
f 682 659 658
f 682 658 681
f 680 682 681
f 690 668 667
f 689 667 666
f 689 690 667
f 688 666 665
f 688 689 666
f 695 688 665
f 687 665 664
f 687 695 665
f 686 664 663
f 686 687 664
f 685 663 662
f 685 686 663
f 684 662 661
f 684 685 662
f 683 661 660
f 683 684 661
f 679 680 691
f 689 692 690
f 683 695 684
f 695 691 694
f 695 692 689
f 695 689 688
f 695 693 692
f 695 686 685
f 695 687 686
f 695 685 684
f 708 696 697
f 700 717 698
f 699 708 697
f 699 709 708
f 699 711 710
f 716 711 699
f 717 712 716
f 717 713 712
f 717 700 701
f 717 701 702
f 717 702 703
f 717 703 704
f 717 704 705
f 717 705 706
f 717 706 707
f 717 715 714
f 717 707 715
f 725 707 706
f 731 725 706
f 724 706 705
f 724 731 706
f 723 705 704
f 723 724 705
f 722 704 703
f 722 723 704
f 721 703 702
f 721 722 703
f 720 702 701
f 720 721 702
f 719 701 700
f 719 720 701
f 718 700 698
f 718 719 700
f 697 726 753
f 697 696 726
f 731 719 718
f 731 720 719
f 731 721 720
f 731 722 721
f 731 723 722
f 731 724 723
f 730 49 732
f 730 679 727
f 730 727 728
f 730 728 729
f 744 733 734
f 743 740 741
f 743 739 740
f 743 738 739
f 743 737 738
f 743 736 737
f 743 735 736
f 743 734 735
f 743 744 734
f 752 745 744
f 752 744 743
f 742 752 743
f 742 746 752
f 742 747 746
f 753 748 742
f 753 749 748
f 753 751 750
f 753 726 751
f 756 730 729
f 756 49 730
f 755 729 728
f 755 756 729
f 754 728 727
f 754 755 728
f 679 754 727
f 734 757 758
f 734 733 757
f 735 758 759
f 735 734 758
f 736 759 760
f 736 735 759
f 737 760 761
f 737 736 760
f 738 761 762
f 738 737 761
f 739 762 763
f 739 738 762
f 740 763 764
f 740 739 763
f 741 764 765
f 741 740 764
f 105 754 679
f 105 755 754
f 105 756 755
f 105 49 756
f 771 767 766
f 771 768 767
f 771 765 764
f 771 764 763
f 771 763 762
f 771 762 761
f 771 761 760
f 771 760 759
f 771 758 757
f 771 759 758
f 771 770 769
f 771 757 770
f 787 773 774
f 772 787 774
f 786 781 782
f 773 783 774
f 787 788 773
f 773 778 779
f 773 779 780
f 773 786 785
f 773 785 784
f 773 775 776
f 773 795 775
f 773 794 795
f 773 793 794
f 773 784 783
f 773 792 793
f 773 791 792
f 773 790 791
f 773 789 790
f 773 788 789
f 773 780 781
f 773 781 786
f 773 776 777
f 773 777 778
f 816 787 772
f 811 812 787
f 797 813 796
f 787 816 815
f 787 815 814
f 787 810 811
f 787 809 810
f 787 808 809
f 787 814 813
f 787 807 808
f 787 798 799
f 787 799 800
f 787 806 807
f 787 805 806
f 787 804 805
f 787 802 803
f 787 803 804
f 787 797 798
f 787 813 797
f 787 800 801
f 787 801 802
f 775 817 818
f 775 795 817
f 776 818 819
f 776 775 818
f 777 819 820
f 777 776 819
f 778 820 821
f 778 777 820
f 779 821 822
f 779 778 821
f 780 822 823
f 780 779 822
f 781 823 824
f 781 780 823
f 782 824 825
f 782 781 824
f 827 782 826
f 827 786 782
f 872 786 827
f 828 785 786
f 828 786 872
f 829 784 785
f 829 785 828
f 874 784 829
f 830 783 784
f 830 784 874
f 831 774 783
f 831 783 830
f 873 774 831
f 833 772 832
f 833 816 772
f 889 816 833
f 834 815 816
f 834 816 889
f 835 814 815
f 835 815 834
f 892 814 835
f 836 813 814
f 836 814 892
f 837 796 813
f 837 813 836
f 890 796 837
f 846 804 803
f 845 803 802
f 845 846 803
f 844 802 801
f 844 845 802
f 843 801 800
f 843 844 801
f 842 800 799
f 842 843 800
f 841 799 798
f 841 842 799
f 840 798 797
f 840 841 798
f 839 797 796
f 839 840 797
f 838 839 796
f 851 859 847
f 824 848 825
f 817 859 818
f 859 851 850
f 859 850 849
f 859 857 858
f 859 858 894
f 859 856 857
f 859 855 856
f 859 849 848
f 859 854 855
f 859 822 821
f 859 823 822
f 859 853 854
f 859 852 853
f 859 819 818
f 859 824 823
f 859 848 824
f 859 820 819
f 859 821 820
f 872 827 826
f 872 826 865
f 872 865 866
f 872 829 828
f 872 866 867
f 872 867 868
f 874 829 872
f 874 831 830
f 874 868 869
f 874 869 870
f 874 872 868
f 873 863 864
f 873 831 874
f 874 863 873
f 875 870 871
f 875 874 870
f 874 861 862
f 874 862 863
f 874 860 861
f 875 888 860
f 875 860 874
f 889 833 832
f 889 832 884
f 889 884 885
f 889 835 834
f 889 885 886
f 889 886 887
f 892 835 889
f 888 889 887
f 892 837 836
f 888 887 860
f 890 882 883
f 890 837 892
f 892 889 888
f 892 882 890
f 892 880 881
f 892 881 882
f 891 876 876
f 891 888 876
f 891 892 888
f 892 878 879
f 892 879 880
f 892 891 876
f 892 876 877
f 892 877 878
f 907 839 838
f 903 846 845
f 894 904 893
f 895 896 894
f 894 840 839
f 894 841 840
f 894 842 841
f 894 907 906
f 894 839 907
f 894 906 905
f 894 843 842
f 894 844 843
f 894 845 844
f 894 903 845
f 894 902 903
f 894 901 902
f 894 905 904
f 894 900 901
f 894 899 900
f 894 898 899
f 894 897 898
f 894 896 897
f 847 894 893
f 847 859 894
f 910 847 908
f 910 851 847
f 941 851 910
f 911 850 851
f 911 851 941
f 912 849 850
f 912 850 911
f 943 849 912
f 913 848 849
f 913 849 943
f 914 825 848
f 914 848 913
f 909 825 914
f 871 915 875
f 871 922 915
f 870 921 922
f 870 922 871
f 869 920 921
f 869 921 870
f 868 919 920
f 868 920 869
f 867 918 919
f 867 919 868
f 866 917 918
f 866 918 867
f 865 916 917
f 865 917 866
f 826 909 916
f 826 916 865
f 888 875 876
f 887 861 860
f 886 862 861
f 886 861 887
f 885 863 862
f 885 862 886
f 884 864 863
f 884 863 885
f 832 873 864
f 832 864 884
f 924 876 952
f 924 877 876
f 925 878 877
f 925 877 924
f 926 879 878
f 926 878 925
f 927 880 879
f 927 879 926
f 928 881 880
f 928 880 927
f 929 882 881
f 929 881 928
f 930 883 882
f 930 882 929
f 923 890 883
f 923 883 930
f 931 838 923
f 931 907 838
f 949 907 931
f 932 906 907
f 932 907 949
f 933 905 906
f 933 906 932
f 951 905 933
f 934 904 905
f 934 905 951
f 935 893 904
f 935 904 934
f 950 893 935
f 941 908 936
f 941 936 937
f 941 910 908
f 941 912 911
f 941 937 938
f 941 938 939
f 943 912 941
f 940 941 939
f 943 914 913
f 940 939 944
f 909 917 916
f 909 914 943
f 943 941 940
f 943 917 909
f 943 918 917
f 943 919 918
f 942 915 915
f 942 940 915
f 942 943 940
f 943 920 919
f 943 921 920
f 943 942 915
f 943 922 921
f 943 915 922
f 949 931 923
f 949 930 929
f 949 923 930
f 949 933 932
f 949 928 927
f 949 929 928
f 951 933 949
f 951 935 934
f 951 926 925
f 951 927 926
f 951 949 927
f 950 947 948
f 950 935 951
f 951 947 950
f 952 925 924
f 952 951 925
f 951 945 946
f 951 946 947
f 951 944 945
f 952 940 944
f 952 944 951
f 940 952 915
f 939 945 944
f 938 946 945
f 938 945 939
f 937 947 946
f 937 946 938
f 936 948 947
f 936 947 937
f 908 950 948
f 908 948 936
f 999 954 955
f 953 999 955
f 968 963 964
f 977 956 957
f 954 965 955
f 969 970 954
f 954 960 961
f 954 961 962
f 954 968 967
f 954 967 966
f 954 957 958
f 954 977 957
f 954 976 977
f 954 975 976
f 954 966 965
f 954 974 975
f 954 973 974
f 954 972 973
f 954 971 972
f 954 970 971
f 954 962 963
f 954 963 968
f 954 958 959
f 954 959 960
f 998 999 953
f 979 995 978
f 986 987 985
f 999 998 997
f 999 997 996
f 999 993 994
f 999 994 954
f 999 992 993
f 999 991 992
f 999 996 995
f 999 990 991
f 999 980 981
f 999 981 982
f 999 989 990
f 999 988 989
f 999 987 988
f 999 984 985
f 999 985 987
f 999 979 980
f 999 995 979
f 999 982 983
f 999 983 984
f 956 1000 1001
f 957 1001 1002
f 957 956 1001
f 958 1002 1003
f 958 957 1002
f 959 1003 1004
f 959 958 1003
f 960 1004 1005
f 960 959 1004
f 961 1005 1006
f 961 960 1005
f 962 1006 1007
f 962 961 1006
f 963 1007 1008
f 963 962 1007
f 964 963 1008
f 1010 964 1009
f 1010 968 964
f 1058 968 1010
f 1011 967 968
f 1011 968 1058
f 1012 966 967
f 1012 967 1011
f 1056 966 1012
f 1013 965 966
f 1013 966 1056
f 1014 955 965
f 1014 965 1013
f 1057 955 1014
f 1017 953 1015
f 1017 998 953
f 1071 998 1017
f 1018 997 998
f 1018 998 1071
f 1019 996 997
f 1019 997 1018
f 1072 996 1019
f 1020 995 996
f 1020 996 1072
f 1021 978 995
f 1021 995 1020
f 1016 978 1021
f 1029 1084 986
f 1029 986 985
f 1028 985 984
f 1028 1029 985
f 1027 984 983
f 1027 1028 984
f 1026 983 982
f 1026 1027 983
f 1025 982 981
f 1025 1026 982
f 1024 981 980
f 1024 1025 981
f 1023 980 979
f 1023 1024 980
f 1022 979 978
f 1022 1023 979
f 1036 1031 1032
f 1043 1044 1030
f 1007 1033 1008
f 1031 1036 1035
f 1031 1035 1034
f 1031 1042 1043
f 1031 1043 1030
f 1031 1041 1042
f 1031 1040 1041
f 1031 1034 1033
f 1031 1039 1040
f 1031 1005 1004
f 1031 1006 1005
f 1031 1038 1039
f 1031 1037 1038
f 1031 1000 1037
f 1031 1002 1001
f 1031 1001 1000
f 1031 1007 1006
f 1031 1033 1007
f 1031 1003 1002
f 1031 1004 1003
f 1058 1010 1009
f 1058 1009 1049
f 1058 1049 1050
f 1058 1012 1011
f 1058 1050 1051
f 1058 1051 1052
f 1056 1012 1058
f 1056 1014 1013
f 1058 1052 1053
f 1058 1053 1054
f 1057 1047 1048
f 1057 1014 1056
f 1056 1047 1057
f 1058 1054 1055
f 1058 1055 1059
f 1056 1045 1046
f 1056 1046 1047
f 1058 1071 1045
f 1058 1045 1056
f 1071 1017 1015
f 1071 1015 1068
f 1071 1068 1069
f 1071 1019 1018
f 1071 1069 1070
f 1072 1019 1071
f 1072 1021 1020
f 1072 1016 1021
f 1072 1066 1067
f 1072 1067 1016
f 1060 1071 1058
f 1072 1064 1065
f 1072 1065 1066
f 1071 1062 1063
f 1071 1063 1064
f 1071 1064 1072
f 1060 1061 1062
f 1060 1062 1071
f 1088 1023 1022
f 1074 1085 1073
f 1074 1025 1024
f 1074 1026 1025
f 1074 1088 1087
f 1074 1087 1086
f 1074 1029 1028
f 1074 1084 1029
f 1074 1083 1084
f 1074 1082 1083
f 1074 1086 1085
f 1074 1081 1082
f 1074 1080 1081
f 1074 1079 1080
f 1074 1078 1079
f 1074 1031 1075
f 1074 1077 1078
f 1074 1075 1077
f 1074 1024 1023
f 1074 1023 1088
f 1074 1027 1026
f 1074 1028 1027
f 1030 1044 1076
f 1030 1075 1031
f 1030 1076 1075
f 1031 1074 1073
f 1032 1031 1073
f 1090 1032 1125
f 1090 1036 1032
f 1127 1036 1090
f 1091 1035 1036
f 1091 1036 1127
f 1092 1034 1035
f 1092 1035 1091
f 1126 1034 1092
f 1093 1033 1034
f 1093 1034 1126
f 1094 1008 1033
f 1094 1033 1093
f 1089 1008 1094
f 1055 1095 1059
f 1055 1102 1095
f 1054 1101 1102
f 1054 1102 1055
f 1053 1100 1101
f 1053 1101 1054
f 1052 1099 1100
f 1052 1100 1053
f 1051 1098 1099
f 1051 1099 1052
f 1050 1097 1098
f 1050 1098 1051
f 1049 1096 1097
f 1049 1097 1050
f 1009 1089 1096
f 1009 1096 1049
f 1058 1059 1060
f 1070 1046 1045
f 1070 1045 1071
f 1069 1047 1046
f 1069 1046 1070
f 1068 1048 1047
f 1068 1047 1069
f 1015 1057 1048
f 1015 1048 1068
f 1103 1061 1060
f 1105 1062 1061
f 1105 1061 1103
f 1106 1063 1062
f 1106 1062 1105
f 1107 1064 1063
f 1107 1063 1106
f 1108 1065 1064
f 1108 1064 1107
f 1109 1066 1065
f 1109 1065 1108
f 1110 1067 1066
f 1110 1066 1109
f 1111 1016 1067
f 1111 1067 1110
f 1104 1016 1111
f 1113 1022 1104
f 1113 1088 1022
f 1137 1088 1113
f 1114 1087 1088
f 1114 1088 1137
f 1115 1086 1087
f 1115 1087 1114
f 1136 1086 1115
f 1116 1085 1086
f 1116 1086 1136
f 1117 1073 1085
f 1117 1085 1116
f 1112 1073 1117
f 1125 1118 1119
f 1127 1090 1125
f 1127 1125 1119
f 1127 1092 1091
f 1127 1119 1120
f 1127 1120 1121
f 1126 1092 1127
f 1126 1094 1093
f 1127 1121 1122
f 1127 1122 1123
f 1089 1097 1096
f 1089 1094 1126
f 1126 1097 1089
f 1127 1123 1124
f 1127 1124 1095
f 1126 1098 1097
f 1126 1099 1098
f 1128 1095 1095
f 1128 1127 1095
f 1128 1126 1127
f 1126 1100 1099
f 1126 1101 1100
f 1126 1128 1095
f 1126 1102 1101
f 1126 1095 1102
f 1104 1111 1110
f 1137 1113 1104
f 1137 1104 1110
f 1137 1115 1114
f 1137 1109 1108
f 1137 1110 1109
f 1136 1115 1137
f 1136 1117 1116
f 1137 1107 1106
f 1137 1108 1107
f 1136 1112 1117
f 1136 1134 1135
f 1136 1135 1112
f 1137 1105 1103
f 1137 1106 1105
f 1136 1132 1133
f 1136 1133 1134
f 1129 1136 1137
f 1138 1103 1103
f 1138 1137 1103
f 1138 1129 1137
f 1136 1130 1131
f 1136 1131 1132
f 1129 1138 1103
f 1129 1130 1136
f 1124 1103 1095
f 1124 1129 1103
f 1124 1130 1129
f 1123 1131 1130
f 1123 1130 1124
f 1122 1132 1131
f 1122 1131 1123
f 1121 1133 1132
f 1121 1132 1122
f 1120 1134 1133
f 1120 1133 1121
f 1119 1135 1134
f 1119 1134 1120
f 1118 1112 1135
f 1118 1135 1119
f 1125 1112 1118
f 364 422 377
f 334 364 377
f 319 424 320
f 319 320 284
f 414 353 336
f 391 353 414
f 303 254 297
f 378 303 297
f 252 375 366
f 251 375 252
f 530 560 600
f 530 600 579
f 509 594 510
f 509 510 472
f 593 548 533
f 593 533 617
f 580 493 444
f 580 444 487
f 434 578 486
f 434 486 435
f 1095 1103 1060
f 1095 1060 1059
f 1089 1009 964
f 1008 1089 964
f 1032 1112 1125
f 1073 1112 1032
f 1104 1022 978
f 1104 978 1016
f 1057 953 955
f 1015 953 1057
f 915 952 876
f 915 876 875
f 909 826 782
f 825 909 782
f 847 950 908
f 893 950 847
f 838 796 890
f 923 838 890
f 873 772 774
f 832 772 873
f 214 180 213
f 214 179 180
f 225 226 166
f 167 225 166
f 106 107 141
f 142 106 141
f 34 128 129
f 34 129 33
f 11 20 21
f 11 21 10
f 69 70 97
f 98 69 97
f 60 47 59
f 60 46 47
f 741 765 683
f 660 741 683
f 636 682 718
f 698 636 718
f 104 105 766
f 104 766 767
f 103 104 767
f 103 767 768
f 102 103 768
f 102 768 771
f 102 771 769
f 101 769 770
f 101 102 769
f 100 770 757
f 100 101 770
f 99 100 757
f 98 99 757
f 69 98 757
f 452 87 88
f 453 452 88
f 453 88 89
f 451 87 452
f 451 85 86
f 451 86 87
f 454 453 89
f 454 89 90
f 731 732 49
f 450 85 451
f 450 84 85
f 455 454 90
f 455 90 91
f 455 91 69
f 462 84 450
f 462 83 84
f 456 69 757
f 456 455 69
f 462 82 83
f 443 456 757
f 542 82 462
f 542 81 82
f 731 49 50
f 725 731 50
f 725 50 46
f 426 443 757
f 477 426 757
f 60 725 46
f 148 483 482
f 147 148 482
f 147 482 481
f 149 483 148
f 149 484 483
f 146 147 481
f 150 484 149
f 150 465 484
f 145 146 481
f 145 481 480
f 151 465 150
f 144 145 480
f 144 480 479
f 152 465 151
f 152 464 465
f 143 144 479
f 143 479 478
f 153 464 152
f 142 143 478
f 142 478 477
f 128 464 153
f 542 68 81
f 541 68 542
f 541 67 68
f 540 67 541
f 540 66 67
f 539 66 540
f 539 65 66
f 538 65 539
f 538 63 64
f 538 64 65
f 537 63 538
f 537 62 63
f 536 62 537
f 536 61 62
f 535 725 60
f 535 61 536
f 535 60 61
f 547 725 535
f 501 464 128
f 34 501 128
f 106 142 477
f 35 501 34
f 36 501 35
f 37 553 501
f 37 501 36
f 38 553 37
f 39 554 553
f 39 553 38
f 40 554 39
f 41 554 40
f 41 555 554
f 42 556 555
f 42 555 41
f 43 556 42
f 43 557 556
f 44 557 43
f 44 558 557
f 45 558 44
f 20 558 45
f 20 559 558
f 266 123 124
f 265 122 123
f 265 123 266
f 267 266 124
f 267 124 125
f 268 267 125
f 268 125 126
f 264 122 265
f 264 121 122
f 269 268 126
f 269 126 127
f 263 120 121
f 263 121 264
f 263 119 120
f 270 127 106
f 270 269 127
f 263 118 119
f 271 270 106
f 271 477 757
f 271 106 477
f 262 1 118
f 262 118 263
f 244 295 294
f 243 294 293
f 243 244 294
f 245 296 295
f 245 295 244
f 242 243 293
f 242 293 292
f 246 296 245
f 241 242 292
f 241 292 291
f 247 296 246
f 240 241 291
f 240 291 290
f 248 296 247
f 248 276 296
f 239 240 290
f 239 290 289
f 249 276 248
f 238 239 289
f 225 276 249
f 347 1 262
f 347 19 1
f 347 18 19
f 346 17 18
f 346 18 347
f 345 16 17
f 345 17 346
f 344 15 16
f 344 16 345
f 343 14 15
f 343 15 344
f 342 14 343
f 342 13 14
f 341 13 342
f 341 12 13
f 340 11 12
f 340 12 341
f 339 11 340
f 733 271 757
f 733 289 271
f 733 238 289
f 167 311 276
f 167 276 225
f 168 311 167
f 224 733 744
f 224 238 733
f 169 311 168
f 223 744 745
f 223 224 744
f 170 311 169
f 222 745 752
f 222 752 746
f 222 223 745
f 171 311 170
f 221 746 747
f 221 222 746
f 172 358 311
f 172 311 171
f 220 221 747
f 173 358 172
f 173 359 358
f 742 220 747
f 174 360 359
f 174 359 173
f 175 361 360
f 175 360 174
f 176 362 361
f 176 361 175
f 177 363 362
f 177 362 176
f 178 338 363
f 178 363 177
f 748 220 742
f 748 219 220
f 191 338 178
f 749 219 748
f 749 218 219
f 753 218 749
f 750 218 753
f 750 217 218
f 751 217 750
f 751 216 217
f 726 216 751
f 726 214 215
f 726 215 216
f 179 214 726
f 696 179 726
f 696 200 201
f 696 201 179
f 707 338 191
f 707 191 192
f 708 199 200
f 708 200 696
f 715 707 192
f 715 192 193
f 714 193 194
f 714 715 193
f 709 198 199
f 709 199 708
f 717 714 194
f 699 198 709
f 713 194 195
f 713 717 194
f 710 198 699
f 710 197 198
f 711 197 710
f 711 196 197
f 712 195 196
f 712 713 195
f 716 196 711
f 716 712 196
f 707 725 338
f 338 725 339
f 339 725 11
f 11 725 20
f 20 725 559
f 559 725 547
f 105 679 691
f 766 105 691
f 695 683 765
f 766 691 695
f 771 766 695
f 771 695 765
f 731 718 682
f 731 682 680
f 732 731 680
f 730 732 680
f 730 680 679
f 699 697 643
f 699 643 646
f 716 699 646
f 649 636 698
f 716 646 647
f 717 649 698
f 717 716 647
f 717 647 649
f 675 741 660
f 743 741 675
f 742 743 675
f 742 675 678
f 753 742 678
f 753 678 650
f 753 650 697
f 92 694 691
f 93 693 695
f 93 695 694
f 93 694 92
f 94 692 693
f 94 693 93
f 95 690 692
f 95 692 94
f 96 690 95
f 97 690 96
f 70 690 97
f 792 74 75
f 793 75 76
f 793 792 75
f 791 73 74
f 791 74 792
f 794 793 76
f 794 76 77
f 790 73 791
f 790 72 73
f 795 77 78
f 795 794 77
f 789 72 790
f 789 71 72
f 795 78 79
f 788 690 70
f 788 71 789
f 788 70 71
f 795 79 80
f 787 690 788
f 795 80 51
f 652 680 681
f 652 47 48
f 652 48 680
f 812 690 787
f 59 47 652
f 135 806 805
f 136 806 135
f 136 807 806
f 134 135 805
f 134 805 804
f 137 807 136
f 137 808 807
f 133 134 804
f 138 808 137
f 138 809 808
f 132 133 804
f 139 809 138
f 139 810 809
f 131 132 804
f 140 810 139
f 140 811 810
f 130 131 804
f 141 811 140
f 141 812 811
f 129 130 804
f 817 795 51
f 859 817 51
f 859 51 52
f 852 859 52
f 852 52 53
f 853 53 54
f 853 852 53
f 854 54 55
f 854 853 54
f 855 55 56
f 855 854 55
f 856 56 57
f 856 855 56
f 857 57 58
f 857 856 57
f 858 857 58
f 858 58 59
f 858 59 652
f 894 858 652
f 846 129 804
f 33 129 846
f 32 33 846
f 31 32 846
f 31 846 903
f 30 31 903
f 29 30 903
f 28 29 903
f 28 903 902
f 27 28 902
f 27 902 901
f 26 27 901
f 26 901 900
f 25 26 900
f 25 900 899
f 24 25 899
f 24 899 898
f 23 24 898
f 23 898 897
f 22 23 897
f 22 897 896
f 21 22 896
f 21 896 895
f 974 111 112
f 973 110 111
f 973 111 974
f 975 112 113
f 975 974 112
f 972 109 110
f 972 110 973
f 976 975 113
f 976 113 114
f 971 108 109
f 971 109 972
f 977 114 115
f 977 976 114
f 970 107 108
f 970 108 971
f 977 115 116
f 969 141 107
f 969 107 970
f 969 812 141
f 969 690 812
f 977 116 117
f 956 117 1
f 956 977 117
f 232 989 988
f 233 989 232
f 233 990 989
f 231 232 988
f 231 988 987
f 234 990 233
f 234 991 990
f 230 231 987
f 235 992 991
f 235 991 234
f 229 230 987
f 236 992 235
f 236 993 992
f 228 229 987
f 228 987 986
f 237 993 236
f 237 994 993
f 227 228 986
f 202 994 237
f 226 227 986
f 1000 956 1
f 1000 1 2
f 1000 2 3
f 1037 3 4
f 1037 1000 3
f 1038 4 5
f 1038 1037 4
f 1039 5 6
f 1039 1038 5
f 1040 6 7
f 1040 1039 6
f 1041 7 8
f 1041 1040 7
f 1042 1041 8
f 1042 8 9
f 1043 1042 9
f 1043 9 10
f 1044 1043 10
f 668 690 969
f 668 994 202
f 668 954 994
f 668 969 954
f 1084 226 986
f 166 226 1084
f 165 166 1084
f 203 668 202
f 203 677 668
f 164 165 1084
f 204 677 203
f 204 676 677
f 163 164 1084
f 205 676 204
f 205 674 675
f 205 675 676
f 162 163 1084
f 206 674 205
f 206 673 674
f 161 162 1084
f 161 1084 1083
f 207 673 206
f 160 161 1083
f 160 1083 1082
f 678 673 207
f 159 160 1082
f 159 1082 1081
f 158 159 1081
f 158 1081 1080
f 157 158 1080
f 157 1080 1079
f 156 157 1079
f 156 1079 1078
f 672 207 208
f 672 678 207
f 155 156 1078
f 155 1078 1077
f 154 155 1077
f 671 208 209
f 671 672 208
f 650 671 209
f 670 209 210
f 670 650 209
f 669 210 211
f 669 670 210
f 651 211 212
f 651 212 213
f 651 669 211
f 180 651 213
f 628 190 154
f 628 1075 1076
f 628 1077 1075
f 628 154 1077
f 637 180 181
f 637 181 182
f 637 651 180
f 645 182 183
f 645 637 182
f 638 189 190
f 638 188 189
f 644 645 183
f 644 183 184
f 643 644 184
f 648 188 638
f 642 184 185
f 642 643 184
f 639 188 648
f 639 187 188
f 641 642 185
f 641 185 186
f 640 187 639
f 640 186 187
f 646 641 186
f 646 186 640
f 628 1076 652
f 1076 1044 652
f 1044 10 652
f 10 21 652
f 21 895 652
f 895 894 652

