# https://github.com/mikedh/trimesh
v -12.90120225 -23.54910606 -30.80950000
v -13.09088508 -23.16557992 -30.80950000
v -13.33209846 -22.81218498 -30.80950000
v -13.62014743 -22.49579967 -30.80950000
v -13.94942546 -22.22258207 -30.80950000
v -14.31352351 -21.99785005 -30.80950000
v -14.70535484 -21.82597776 -30.80950000
v -15.11729289 -21.71031050 -30.80950000
v -15.54131976 -21.65309961 -30.80950000
v -15.96918225 -21.65545862 -30.80950000
v -16.39255250 -21.71734162 -30.80950000
v -16.80319009 -21.83754413 -30.80950000
v -17.19310243 -22.01372654 -30.80950000
v -17.55470031 -22.24245967 -30.80950000
v -17.88094565 -22.51929149 -30.80950000
v -18.16548845 -22.83883377 -30.80950000
v -18.40279041 -23.19486699 -30.80950000
v -18.58823272 -23.58046137 -30.80950000
v -18.71820595 -23.98811175 -30.80950000
v -18.79018032 -24.40988368 -30.80950000
v -18.80275493 -24.83756786 -30.80950000
v -18.75568503 -25.26283989 -30.80950000
v -18.64988679 -25.67742233 -30.80950000
v -18.48741945 -26.07324582 -30.80950000
v -18.27144524 -26.44260610 -30.80950000
v -18.00616786 -26.77831399 -30.80950000
v -17.69675064 -27.07383532 -30.80950000
v -17.34921603 -27.32341811 -30.80950000
v -16.97032838 -27.52220450 -30.80950000
v -16.56746233 -27.66632534 -30.80950000
v -16.14845920 -27.75297549 -30.80950000
v -15.72147440 -27.78046841 -30.80950000
v -15.29481872 -27.74826897 -30.80950000
v -14.87679652 -27.65700389 -30.80950000
v -14.47554413 -27.50844956 -30.80950000
v -14.09887146 -27.30549741 -30.80950000
v -13.75411003 -27.05209767 -30.80950000
v -13.44797022 -26.75318248 -30.80950000
v -13.18641069 -26.41456989 -30.80950000
v -12.97452241 -26.04285060 -30.80950000
v -12.81642954 -25.64525970 -30.80950000
v -12.71520917 -25.22953586 -30.80950000
v -12.67283145 -24.80377067 -30.80950000
v -12.69012121 -24.37625115 -30.80950000
v -12.76674192 -23.95529849 -30.80950000
v -13.79566404 -23.91624150 -30.80950000
v -13.92554666 -23.65362745 -30.80950000
v -14.09071407 -23.41164530 -30.80950000
v -14.28795150 -23.19500498 -30.80950000
v -14.51341993 -23.00792312 -30.80950000
v -14.76273088 -22.85404107 -30.80950000
v -15.03103179 -22.73635398 -30.80950000
v -15.31310050 -22.65715247 -30.80950000
v -15.60344685 -22.61797812 -30.80950000
v -15.89641959 -22.61959342 -30.80950000
v -16.18631633 -22.66196692 -30.80950000
v -16.46749456 -22.74427388 -30.80950000
v -16.73448148 -22.86491228 -30.80950000
v -16.98208047 -23.02153402 -30.80950000
v -17.20547231 -23.21109066 -30.80950000
v -17.40030894 -23.42989268 -30.80950000
v -17.56279807 -23.67368135 -30.80950000
v -17.68977704 -23.93771160 -30.80950000
v -17.77877436 -24.21684438 -30.80950000
v -17.82805778 -24.50564670 -30.80950000
v -17.83666807 -24.79849734 -30.80950000
v -17.80443763 -25.08969630 -30.80950000
v -17.73199379 -25.37357571 -30.80950000
v -17.62074659 -25.64461020 -30.80950000
v -17.47286134 -25.89752439 -30.80950000
v -17.29121644 -26.12739558 -30.80950000
v -17.07934741 -26.32974959 -30.80950000
v -16.84137803 -26.50064784 -30.80950000
v -16.58194013 -26.63676399 -30.80950000
v -16.30608334 -26.73544868 -30.80950000
v -16.01917692 -26.79478114 -30.80950000
v -15.72680518 -26.81360652 -30.80950000
v -15.43465878 -26.79155841 -30.80950000
v -15.14842404 -26.72906596 -30.80950000
v -14.87367219 -26.62734549 -30.80950000
v -14.61575095 -26.48837690 -30.80950000
v -14.37968048 -26.31486504 -30.80950000
v -14.17005561 -26.11018713 -30.80950000
v -13.99095645 -25.87832699 -30.80950000
v -13.84586897 -25.62379751 -30.80950000
v -13.73761713 -25.35155281 -30.80950000
v -13.66830793 -25.06689184 -30.80950000
v -13.63929039 -24.77535520 -30.80950000
v -13.65112931 -24.48261730 -30.80950000
v -13.70359425 -24.19437597 -30.80950000
v -12.90120225 -23.54910606 -11.75950000
v -13.09088508 -23.16557992 -11.75950000
v -13.33209846 -22.81218498 -11.75950000
v -13.62014743 -22.49579967 -11.75950000
v -13.94942546 -22.22258207 -11.75950000
v -14.31352351 -21.99785005 -11.75950000
v -14.70535484 -21.82597776 -11.75950000
v -15.11729289 -21.71031050 -11.75950000
v -15.54131976 -21.65309961 -11.75950000
v -15.96918225 -21.65545862 -11.75950000
v -16.39255250 -21.71734162 -11.75950000
v -16.80319009 -21.83754413 -11.75950000
v -17.19310243 -22.01372654 -11.75950000
v -17.55470031 -22.24245967 -11.75950000
v -17.88094565 -22.51929149 -11.75950000
v -18.16548845 -22.83883377 -11.75950000
v -18.40279041 -23.19486699 -11.75950000
v -18.58823272 -23.58046137 -11.75950000
v -18.71820595 -23.98811175 -11.75950000
v -18.79018032 -24.40988368 -11.75950000
v -18.80275493 -24.83756786 -11.75950000
v -18.75568503 -25.26283989 -11.75950000
v -18.64988679 -25.67742233 -11.75950000
v -18.48741945 -26.07324582 -11.75950000
v -18.27144524 -26.44260610 -11.75950000
v -18.00616786 -26.77831399 -11.75950000
v -17.69675064 -27.07383532 -11.75950000
v -17.34921603 -27.32341811 -11.75950000
v -16.97032838 -27.52220450 -11.75950000
v -16.56746233 -27.66632534 -11.75950000
v -16.14845920 -27.75297549 -11.75950000
v -15.72147440 -27.78046841 -11.75950000
v -15.29481872 -27.74826897 -11.75950000
v -14.87679652 -27.65700389 -11.75950000
v -14.47554413 -27.50844956 -11.75950000
v -14.09887146 -27.30549741 -11.75950000
v -13.75411003 -27.05209767 -11.75950000
v -13.44797022 -26.75318248 -11.75950000
v -13.18641069 -26.41456989 -11.75950000
v -12.97452241 -26.04285060 -11.75950000
v -12.81642954 -25.64525970 -11.75950000
v -12.71520917 -25.22953586 -11.75950000
v -12.67283145 -24.80377067 -11.75950000
v -12.69012121 -24.37625115 -11.75950000
v -12.76674192 -23.95529849 -11.75950000
v -13.79566404 -23.91624150 -11.75950000
v -13.92554666 -23.65362745 -11.75950000
v -14.09071407 -23.41164530 -11.75950000
v -14.28795150 -23.19500498 -11.75950000
v -14.51341993 -23.00792312 -11.75950000
v -14.76273088 -22.85404107 -11.75950000
v -15.03103179 -22.73635398 -11.75950000
v -15.31310050 -22.65715247 -11.75950000
v -15.60344685 -22.61797812 -11.75950000
v -15.89641959 -22.61959342 -11.75950000
v -16.18631633 -22.66196692 -11.75950000
v -16.46749456 -22.74427388 -11.75950000
v -16.73448148 -22.86491228 -11.75950000
v -16.98208047 -23.02153402 -11.75950000
v -17.20547231 -23.21109066 -11.75950000
v -17.40030894 -23.42989268 -11.75950000
v -17.56279807 -23.67368135 -11.75950000
v -17.68977704 -23.93771160 -11.75950000
v -17.77877436 -24.21684438 -11.75950000
v -17.82805778 -24.50564670 -11.75950000
v -17.83666807 -24.79849734 -11.75950000
v -17.80443763 -25.08969630 -11.75950000
v -17.73199379 -25.37357571 -11.75950000
v -17.62074659 -25.64461020 -11.75950000
v -17.47286134 -25.89752439 -11.75950000
v -17.29121644 -26.12739558 -11.75950000
v -17.07934741 -26.32974959 -11.75950000
v -16.84137803 -26.50064784 -11.75950000
v -16.58194013 -26.63676399 -11.75950000
v -16.30608334 -26.73544868 -11.75950000
v -16.01917692 -26.79478114 -11.75950000
v -15.72680518 -26.81360652 -11.75950000
v -15.43465878 -26.79155841 -11.75950000
v -15.14842404 -26.72906596 -11.75950000
v -14.87367219 -26.62734549 -11.75950000
v -14.61575095 -26.48837690 -11.75950000
v -14.37968048 -26.31486504 -11.75950000
v -14.17005561 -26.11018713 -11.75950000
v -13.99095645 -25.87832699 -11.75950000
v -13.84586897 -25.62379751 -11.75950000
v -13.73761713 -25.35155281 -11.75950000
v -13.66830793 -25.06689184 -11.75950000
v -13.63929039 -24.77535520 -11.75950000
v -13.65112931 -24.48261730 -11.75950000
v -13.70359425 -24.19437597 -11.75950000
v -12.82430441 -23.51754303 -21.28450000
v -13.01912833 -23.12362195 -21.28450000
v -13.26687946 -22.76064874 -21.28450000
v -13.56273560 -22.43568824 -21.28450000
v -13.90093825 -22.15506546 -21.28450000
v -14.27490467 -21.92424239 -21.28450000
v -14.67735604 -21.74771174 -21.28450000
v -15.10045910 -21.62890949 -21.28450000
v -15.53597863 -21.57014797 -21.28450000
v -15.97543773 -21.57257091 -21.28450000
v -16.41028284 -21.63613117 -21.28450000
v -16.83205019 -21.75959160 -21.28450000
v -17.23253056 -21.94054919 -21.28450000
v -17.60392905 -22.17548182 -21.28450000
v -17.93901682 -22.45981677 -21.28450000
v -18.23127176 -22.78801980 -21.28450000
v -18.47500545 -23.15370280 -21.28450000
v -18.66547391 -23.54974818 -21.28450000
v -18.79896989 -23.96844736 -21.28450000
v -18.87289502 -24.40165083 -21.28450000
v -18.88581045 -24.84092679 -21.28450000
v -18.83746479 -25.27772523 -21.28450000
v -18.72879904 -25.70354435 -21.28450000
v -18.56192824 -26.11009609 -21.28450000
v -18.34010035 -26.48946736 -21.28450000
v -18.06763300 -26.83427415 -21.28450000
v -17.74982946 -27.13780517 -21.28450000
v -17.39287540 -27.39415255 -21.28450000
v -17.00371854 -27.59832676 -21.28450000
v -16.58993336 -27.74635380 -21.28450000
v -16.15957373 -27.83535249 -21.28450000
v -15.72101611 -27.86359056 -21.28450000
v -15.28279652 -27.83051840 -21.28450000
v -14.85344441 -27.73677971 -21.28450000
v -14.44131663 -27.58419902 -21.28450000
v -14.05443478 -27.37574613 -21.28450000
v -13.70032907 -27.11547835 -21.28450000
v -13.38589176 -26.80846148 -21.28450000
v -13.11724303 -26.46067126 -21.28450000
v -12.89961181 -26.07887704 -21.28450000
v -12.73723405 -25.67051000 -21.28450000
v -12.63327025 -25.24351854 -21.28450000
v -12.58974394 -24.80621357 -21.28450000
v -12.60750231 -24.36710674 -21.28450000
v -12.68619972 -23.93474474 -21.28450000
v -12.88838594 -23.54384555 -13.34700000
v -12.87556964 -23.53858505 -14.93450000
v -12.86275333 -23.53332454 -16.52200000
v -12.84993702 -23.52806404 -18.10950000
v -12.83712072 -23.52280353 -19.69700000
v -12.67846523 -24.35614473 -13.34700000
v -12.69548465 -25.19495758 -13.34700000
v -12.93818193 -25.99807319 -13.34700000
v -12.68180087 -25.19712205 -14.93450000
v -13.38855735 -26.70592816 -13.34700000
v -12.65094461 -24.35292946 -16.52200000
v -12.92558956 -26.00384924 -14.93450000
v -14.01320860 -27.26602410 -13.34700000
v -12.66811710 -25.19928652 -16.52200000
v -13.37799029 -26.71488739 -14.93450000
v -14.76580817 -27.63682128 -13.34700000
v -12.63718430 -24.35132183 -18.10950000
v -12.91299718 -26.00962528 -16.52200000
v -14.00545057 -27.27750206 -14.93450000
v -15.59053918 -27.79081936 -13.34700000
v -12.65443332 -25.20145099 -18.10950000
v -13.36742323 -26.72384662 -16.52200000
v -14.76143454 -27.64996670 -14.93450000
v -16.42623512 -27.71659701 -13.34700000
v -12.62342399 -24.34971420 -19.69700000
v -12.90040480 -26.01540132 -18.10950000
v -13.99769254 -27.28898002 -16.52200000
v -15.58987434 -27.80465730 -14.93450000
v -17.21091624 -27.41965896 -13.34700000
v -12.64074955 -25.20361546 -19.69700000
v -13.35685617 -26.73280586 -18.10950000
v -14.75706092 -27.66311212 -16.52200000
v -16.42932836 -27.73010118 -14.93450000
v -17.88638632 -26.92202775 -13.34700000
v -12.88781243 -26.02117737 -19.69700000
v -13.98993451 -27.30045798 -18.10950000
v -15.58920949 -27.81849525 -16.52200000
v -17.21753815 -27.43182781 -14.93450000
v -18.40254885 -26.26061040 -13.34700000
v -13.34628911 -26.74176509 -19.69700000
v -14.75268729 -27.67625754 -18.10950000
v -16.43242160 -27.74360535 -16.52200000
v -17.89604579 -26.93195877 -14.93450000
v -18.72112241 -25.48446122 -13.34700000
v -13.98217648 -27.31193595 -19.69700000
v -15.58854464 -27.83233319 -18.10950000
v -17.22416006 -27.44399666 -16.52200000
v -18.41452948 -26.26756706 -14.93450000
v -18.81847985 -24.65114364 -13.34700000
v -14.74831367 -27.68940296 -19.69700000
v -16.43551484 -27.75710951 -18.10950000
v -17.90570526 -26.94188980 -16.52200000
v -18.73453565 -25.48792758 -14.93450000
v -18.68740062 -23.82246102 -13.34700000
v -15.58787979 -27.84617113 -19.69700000
v -17.23078198 -27.45616551 -18.10950000
v -18.42651011 -26.27452372 -16.52200000
v -18.83233090 -24.65086261 -14.93450000
v -18.33760626 -23.05987294 -13.34700000
v -16.43860808 -27.77061368 -19.69700000
v -17.91536473 -26.95182082 -18.10950000
v -18.74794889 -25.49139393 -16.52200000
v -18.70066221 -23.81845343 -14.93450000
v -17.79503943 -22.41993709 -13.34700000
v -17.23740389 -27.46833436 -19.69700000
v -18.43849074 -26.28148039 -18.10950000
v -18.84618195 -24.65058157 -16.52200000
v -18.34929485 -23.05243604 -14.93450000
v -17.09993983 -21.95011457 -13.34700000
v -17.92502421 -26.96175185 -19.69700000
v -18.76136213 -25.49486029 -18.10950000
v -18.71392381 -23.81444585 -16.52200000
v -17.80428812 -22.40962242 -14.93450000
v -16.30385980 -21.68524998 -13.34700000
v -18.45047137 -26.28843705 -19.69700000
v -18.86003300 -24.65030053 -18.10950000
v -18.36098344 -23.04499913 -16.52200000
v -17.10606268 -21.93768713 -14.93450000
v -15.46584097 -21.64498710 -13.34700000
v -18.77477537 -25.49832664 -19.69700000
v -18.72718540 -23.81043826 -18.10950000
v -17.81353681 -22.39930775 -16.52200000
v -16.30640272 -21.67163146 -14.93450000
v -14.64803536 -21.83231206 -13.34700000
v -18.87388405 -24.65001950 -19.69700000
v -18.37267202 -23.03756222 -18.10950000
v -17.11218554 -21.92525970 -16.52200000
v -15.46461536 -21.63118752 -14.93450000
v -13.91109586 -22.23333181 -13.34700000
v -18.74044700 -23.80643068 -19.69700000
v -17.82278550 -22.38899308 -18.10950000
v -16.30894565 -21.65801293 -16.52200000
v -14.64313211 -21.81935487 -14.93450000
v -13.30967792 -22.81830456 -13.34700000
v -18.38436061 -23.03012531 -19.69700000
v -17.11830840 -21.91283226 -18.10950000
v -15.46338975 -21.61738794 -16.52200000
v -13.90287864 -22.22217799 -14.93450000
v -17.83203418 -22.37867841 -19.69700000
v -16.31148857 -21.64439441 -18.10950000
v -14.63822887 -21.80639768 -16.52200000
v -13.29875614 -22.80978133 -14.93450000
v -17.12443126 -21.90040482 -19.69700000
v -15.46216414 -21.60358835 -18.10950000
v -13.89466141 -22.21102416 -16.52200000
v -16.31403149 -21.63077589 -19.69700000
v -14.63332563 -21.79344049 -18.10950000
v -13.28783437 -22.80125810 -16.52200000
v -15.46093853 -21.58978877 -19.69700000
v -13.88644418 -22.19987034 -18.10950000
v -14.62842238 -21.78048329 -19.69700000
v -13.27691259 -22.79273487 -18.10950000
v -13.87822696 -22.18871652 -19.69700000
v -13.26599082 -22.78421164 -19.69700000
v -12.88838594 -23.54384555 -29.22200000
v -12.87556964 -23.53858505 -27.63450000
v -12.86275333 -23.53332454 -26.04700000
v -12.84993702 -23.52806404 -24.45950000
v -12.83712072 -23.52280353 -22.87200000
v -13.30967792 -22.81830456 -29.22200000
v -13.91109586 -22.23333181 -29.22200000
v -13.29875614 -22.80978133 -27.63450000
v -14.64803536 -21.83231206 -29.22200000
v -13.90287864 -22.22217799 -27.63450000
v -15.46584097 -21.64498710 -29.22200000
v -13.28783437 -22.80125810 -26.04700000
v -14.64313211 -21.81935487 -27.63450000
v -16.30385980 -21.68524998 -29.22200000
v -13.89466141 -22.21102416 -26.04700000
v -15.46461536 -21.63118752 -27.63450000
v -17.09993983 -21.95011457 -29.22200000
v -13.27691259 -22.79273487 -24.45950000
v -14.63822887 -21.80639768 -26.04700000
v -16.30640272 -21.67163146 -27.63450000
v -17.79503943 -22.41993709 -29.22200000
v -13.88644418 -22.19987034 -24.45950000
v -15.46338975 -21.61738794 -26.04700000
v -17.10606268 -21.93768713 -27.63450000
v -18.33760626 -23.05987294 -29.22200000
v -13.26599082 -22.78421164 -22.87200000
v -14.63332563 -21.79344049 -24.45950000
v -16.30894565 -21.65801293 -26.04700000
v -17.80428812 -22.40962242 -27.63450000
v -18.68740062 -23.82246102 -29.22200000
v -13.87822696 -22.18871652 -22.87200000
v -15.46216414 -21.60358835 -24.45950000
v -17.11218554 -21.92525970 -26.04700000
v -18.34929485 -23.05243604 -27.63450000
v -18.81847985 -24.65114364 -29.22200000
v -14.62842238 -21.78048329 -22.87200000
v -16.31148857 -21.64439441 -24.45950000
v -17.81353681 -22.39930775 -26.04700000
v -18.70066221 -23.81845343 -27.63450000
v -18.72112241 -25.48446122 -29.22200000
v -15.46093853 -21.58978877 -22.87200000
v -17.11830840 -21.91283226 -24.45950000
v -18.36098344 -23.04499913 -26.04700000
v -18.83233090 -24.65086261 -27.63450000
v -18.40254885 -26.26061040 -29.22200000
v -16.31403149 -21.63077589 -22.87200000
v -17.82278550 -22.38899308 -24.45950000
v -18.71392381 -23.81444585 -26.04700000
v -18.73453565 -25.48792758 -27.63450000
v -17.88638632 -26.92202775 -29.22200000
v -17.12443126 -21.90040482 -22.87200000
v -18.37267202 -23.03756222 -24.45950000
v -18.84618195 -24.65058157 -26.04700000
v -18.41452948 -26.26756706 -27.63450000
v -17.21091624 -27.41965896 -29.22200000
v -17.83203418 -22.37867841 -22.87200000
v -18.72718540 -23.81043826 -24.45950000
v -18.74794889 -25.49139393 -26.04700000
v -17.89604579 -26.93195877 -27.63450000
v -16.42623512 -27.71659701 -29.22200000
v -18.38436061 -23.03012531 -22.87200000
v -18.86003300 -24.65030053 -24.45950000
v -18.42651011 -26.27452372 -26.04700000
v -17.21753815 -27.43182781 -27.63450000
v -15.59053918 -27.79081936 -29.22200000
v -18.74044700 -23.80643068 -22.87200000
v -18.76136213 -25.49486029 -24.45950000
v -17.90570526 -26.94188980 -26.04700000
v -16.42932836 -27.73010118 -27.63450000
v -14.76580817 -27.63682128 -29.22200000
v -18.87388405 -24.65001950 -22.87200000
v -18.43849074 -26.28148039 -24.45950000
v -17.22416006 -27.44399666 -26.04700000
v -15.58987434 -27.80465730 -27.63450000
v -14.01320860 -27.26602410 -29.22200000
v -18.77477537 -25.49832664 -22.87200000
v -17.91536473 -26.95182082 -24.45950000
v -16.43242160 -27.74360535 -26.04700000
v -14.76143454 -27.64996670 -27.63450000
v -13.38855735 -26.70592816 -29.22200000
v -18.45047137 -26.28843705 -22.87200000
v -17.23078198 -27.45616551 -24.45950000
v -15.58920949 -27.81849525 -26.04700000
v -14.00545057 -27.27750206 -27.63450000
v -12.93818193 -25.99807319 -29.22200000
v -17.92502421 -26.96175185 -22.87200000
v -16.43551484 -27.75710951 -24.45950000
v -14.75706092 -27.66311212 -26.04700000
v -13.37799029 -26.71488739 -27.63450000
v -12.69548465 -25.19495758 -29.22200000
v -17.23740389 -27.46833436 -22.87200000
v -15.58854464 -27.83233319 -24.45950000
v -13.99769254 -27.28898002 -26.04700000
v -12.92558956 -26.00384924 -27.63450000
v -12.67846523 -24.35614473 -29.22200000
v -16.43860808 -27.77061368 -22.87200000
v -14.75268729 -27.67625754 -24.45950000
v -13.36742323 -26.72384662 -26.04700000
v -12.68180087 -25.19712205 -27.63450000
v -15.58787979 -27.84617113 -22.87200000
v -13.98993451 -27.30045798 -24.45950000
v -12.91299718 -26.00962528 -26.04700000
v -12.66470492 -24.35453710 -27.63450000
v -14.74831367 -27.68940296 -22.87200000
v -13.35685617 -26.73280586 -24.45950000
v -12.66811710 -25.19928652 -26.04700000
v -13.98217648 -27.31193595 -22.87200000
v -12.90040480 -26.01540132 -24.45950000
v -12.65094461 -24.35292946 -26.04700000
v -13.34628911 -26.74176509 -22.87200000
v -12.65443332 -25.20145099 -24.45950000
v -12.88781243 -26.02117737 -22.87200000
v -12.63718430 -24.35132183 -24.45950000
v -12.64074955 -25.20361546 -22.87200000
v -12.62342399 -24.34971420 -22.87200000
f 75 29 74
f 75 30 29
f 73 74 29
f 73 29 28
f 76 30 75
f 76 31 30
f 72 73 28
f 72 27 26
f 72 28 27
f 77 31 76
f 77 32 31
f 71 72 26
f 78 33 32
f 78 32 77
f 70 26 25
f 70 71 26
f 79 34 33
f 79 33 78
f 69 24 23
f 69 25 24
f 69 70 25
f 80 35 34
f 80 34 79
f 68 69 23
f 81 35 80
f 81 36 35
f 67 23 22
f 67 68 23
f 82 36 81
f 82 37 36
f 82 38 37
f 66 22 21
f 66 67 22
f 83 38 82
f 65 21 20
f 65 66 21
f 84 39 38
f 84 38 83
f 64 20 19
f 64 65 20
f 40 39 84
f 85 40 84
f 63 19 18
f 63 64 19
f 41 40 85
f 41 85 86
f 17 62 63
f 17 63 18
f 42 86 87
f 42 41 86
f 16 61 62
f 16 62 17
f 60 61 16
f 43 87 88
f 43 42 87
f 15 60 16
f 44 43 88
f 44 88 89
f 14 60 15
f 14 59 60
f 45 44 89
f 45 89 90
f 45 90 46
f 13 59 14
f 13 58 59
f 1 45 46
f 12 58 13
f 12 57 58
f 2 1 46
f 2 46 47
f 11 57 12
f 11 56 57
f 3 47 48
f 3 2 47
f 10 54 55
f 10 55 56
f 10 56 11
f 4 3 48
f 4 48 49
f 9 54 10
f 5 49 50
f 5 50 51
f 5 4 49
f 8 54 9
f 8 52 53
f 8 53 54
f 6 51 52
f 6 5 51
f 7 6 52
f 7 52 8
f 165 164 119
f 165 119 120
f 163 119 164
f 163 118 119
f 166 165 120
f 166 120 121
f 162 118 163
f 162 116 117
f 162 117 118
f 167 166 121
f 167 121 122
f 161 116 162
f 168 122 123
f 168 167 122
f 160 115 116
f 160 116 161
f 169 123 124
f 169 168 123
f 159 113 114
f 159 114 115
f 159 115 160
f 170 124 125
f 170 169 124
f 158 113 159
f 171 170 125
f 171 125 126
f 157 112 113
f 157 113 158
f 172 171 126
f 172 126 127
f 172 127 128
f 156 111 112
f 156 112 157
f 173 172 128
f 155 110 111
f 155 111 156
f 174 128 129
f 174 173 128
f 154 109 110
f 154 110 155
f 130 174 129
f 175 174 130
f 153 108 109
f 153 109 154
f 131 175 130
f 131 176 175
f 107 153 152
f 107 108 153
f 132 177 176
f 132 176 131
f 106 152 151
f 106 107 152
f 150 106 151
f 133 178 177
f 133 177 132
f 105 106 150
f 134 178 133
f 134 179 178
f 104 105 150
f 104 150 149
f 135 179 134
f 135 180 179
f 135 136 180
f 103 104 149
f 103 149 148
f 91 136 135
f 102 103 148
f 102 148 147
f 92 136 91
f 92 137 136
f 101 102 147
f 101 147 146
f 93 138 137
f 93 137 92
f 100 145 144
f 100 146 145
f 100 101 146
f 94 138 93
f 94 139 138
f 99 100 144
f 95 140 139
f 95 141 140
f 95 139 94
f 98 99 144
f 98 143 142
f 98 144 143
f 96 142 141
f 96 141 95
f 97 142 96
f 97 98 142
f 226 91 135
f 225 181 230
f 226 92 91
f 181 182 230
f 231 226 135
f 231 227 226
f 231 134 133
f 231 135 134
f 232 231 133
f 232 132 131
f 232 133 132
f 233 232 131
f 233 130 129
f 233 131 130
f 234 231 232
f 234 227 231
f 235 233 129
f 235 128 127
f 235 129 128
f 236 227 234
f 236 228 227
f 236 229 228
f 237 234 232
f 237 232 233
f 238 235 127
f 238 126 125
f 238 127 126
f 239 236 234
f 240 237 233
f 240 233 235
f 241 238 125
f 241 124 123
f 241 125 124
f 242 229 236
f 243 234 237
f 243 239 234
f 244 238 241
f 244 235 238
f 244 240 235
f 245 122 121
f 245 123 122
f 245 241 123
f 246 242 236
f 246 236 239
f 247 243 237
f 247 237 240
f 248 244 241
f 249 245 121
f 249 120 119
f 249 121 120
f 250 223 224
f 250 224 225
f 250 230 229
f 250 225 230
f 250 229 242
f 251 246 239
f 251 239 243
f 252 247 240
f 252 240 244
f 253 241 245
f 253 248 241
f 253 245 249
f 254 118 117
f 254 119 118
f 254 249 119
f 255 223 250
f 255 221 222
f 255 222 223
f 255 242 246
f 255 250 242
f 256 251 243
f 256 243 247
f 256 247 252
f 257 252 244
f 257 244 248
f 258 253 249
f 259 116 115
f 259 117 116
f 259 254 117
f 260 255 246
f 260 219 220
f 260 220 221
f 260 251 256
f 260 221 255
f 260 246 251
f 261 252 257
f 261 256 252
f 262 257 248
f 262 253 258
f 262 248 253
f 263 258 249
f 263 254 259
f 263 249 254
f 264 259 115
f 264 115 114
f 265 219 260
f 265 217 218
f 265 260 256
f 265 218 219
f 266 261 257
f 266 257 262
f 267 262 258
f 267 258 263
f 268 263 259
f 269 264 114
f 269 113 112
f 269 114 113
f 270 215 216
f 270 216 217
f 270 265 256
f 270 261 266
f 270 256 261
f 270 217 265
f 271 266 262
f 272 267 263
f 272 263 268
f 273 268 259
f 273 259 264
f 274 269 112
f 274 111 110
f 274 112 111
f 275 270 266
f 275 215 270
f 275 213 214
f 275 214 215
f 276 262 267
f 276 271 262
f 277 272 268
f 278 273 264
f 278 269 274
f 278 264 269
f 279 274 110
f 279 109 108
f 279 110 109
f 280 275 266
f 280 266 271
f 280 211 212
f 280 213 275
f 280 212 213
f 281 276 267
f 281 272 277
f 281 267 272
f 282 277 268
f 282 268 273
f 283 278 274
f 284 279 108
f 284 107 106
f 284 108 107
f 285 209 210
f 285 210 211
f 285 211 280
f 285 271 276
f 285 280 271
f 286 277 282
f 286 281 277
f 287 273 278
f 287 282 273
f 287 278 283
f 288 283 274
f 288 279 284
f 288 274 279
f 289 105 104
f 289 106 105
f 289 284 106
f 290 285 276
f 290 207 208
f 290 208 209
f 290 276 281
f 290 209 285
f 291 286 282
f 292 283 288
f 292 287 283
f 293 288 284
f 294 289 104
f 294 103 102
f 294 104 103
f 295 207 290
f 295 205 206
f 295 206 207
f 295 281 286
f 295 290 281
f 295 286 291
f 296 282 287
f 296 291 282
f 297 288 293
f 297 292 288
f 298 293 284
f 298 284 289
f 298 289 294
f 299 294 102
f 299 101 100
f 299 102 101
f 300 203 204
f 300 204 205
f 300 205 295
f 300 295 291
f 301 287 292
f 301 296 287
f 302 297 293
f 303 298 294
f 304 99 98
f 304 100 99
f 304 299 100
f 305 300 291
f 305 202 203
f 305 203 300
f 305 291 296
f 306 292 297
f 306 301 292
f 306 297 302
f 307 302 293
f 307 298 303
f 307 293 298
f 308 294 299
f 308 303 294
f 308 299 304
f 309 304 98
f 309 97 96
f 309 98 97
f 310 202 305
f 310 200 201
f 310 201 202
f 310 305 296
f 310 301 306
f 310 296 301
f 311 306 302
f 312 307 303
f 313 308 304
f 313 304 309
f 314 309 96
f 314 95 94
f 314 96 95
f 315 200 310
f 315 198 199
f 315 199 200
f 315 310 306
f 316 311 302
f 316 302 307
f 317 303 308
f 317 312 303
f 318 313 309
f 319 314 94
f 319 93 92
f 319 94 93
f 319 92 226
f 320 196 197
f 320 197 198
f 320 315 306
f 320 306 311
f 320 198 315
f 321 307 312
f 321 316 307
f 322 308 313
f 322 317 308
f 322 313 318
f 323 309 314
f 323 318 309
f 324 194 195
f 324 195 196
f 324 320 311
f 324 311 316
f 324 196 320
f 324 316 321
f 325 317 322
f 325 321 312
f 325 312 317
f 326 322 318
f 327 314 319
f 327 323 314
f 327 319 226
f 327 226 227
f 328 192 193
f 328 193 194
f 328 194 324
f 328 324 321
f 329 325 322
f 330 318 323
f 330 326 318
f 331 190 191
f 331 191 192
f 331 321 325
f 331 192 328
f 331 328 321
f 332 326 330
f 332 322 326
f 332 329 322
f 333 323 327
f 333 330 323
f 333 327 227
f 333 227 228
f 334 188 189
f 334 189 190
f 334 329 332
f 334 190 331
f 334 325 329
f 334 331 325
f 335 332 330
f 336 186 187
f 336 187 188
f 336 334 332
f 336 188 334
f 337 333 228
f 337 335 330
f 337 330 333
f 337 228 229
f 338 184 185
f 338 185 186
f 338 336 332
f 338 186 336
f 338 332 335
f 339 229 230
f 339 182 183
f 339 183 184
f 339 230 182
f 339 337 229
f 339 184 338
f 339 335 337
f 339 338 335
f 340 1 2
f 182 181 344
f 340 45 1
f 181 225 344
f 345 340 2
f 345 2 3
f 345 3 4
f 346 4 5
f 346 5 6
f 346 345 4
f 347 341 340
f 347 340 345
f 348 346 6
f 348 6 7
f 348 7 8
f 349 345 346
f 349 347 345
f 350 348 8
f 350 8 9
f 350 9 10
f 351 342 341
f 351 341 347
f 352 346 348
f 352 349 346
f 353 350 10
f 353 10 11
f 353 11 12
f 354 347 349
f 354 351 347
f 355 352 348
f 355 348 350
f 356 12 13
f 356 13 14
f 356 353 12
f 357 343 342
f 357 344 343
f 357 342 351
f 358 349 352
f 358 354 349
f 359 350 353
f 359 355 350
f 360 356 14
f 360 14 15
f 360 15 16
f 361 351 354
f 361 357 351
f 362 352 355
f 362 358 352
f 363 359 353
f 363 353 356
f 364 360 16
f 364 16 17
f 364 17 18
f 365 183 182
f 365 184 183
f 365 182 344
f 365 344 357
f 366 361 354
f 366 354 358
f 367 355 359
f 367 362 355
f 368 363 356
f 368 356 360
f 368 360 364
f 369 18 19
f 369 19 20
f 369 364 18
f 370 185 184
f 370 186 185
f 370 184 365
f 370 365 357
f 370 357 361
f 371 362 367
f 371 358 362
f 371 366 358
f 372 359 363
f 372 363 368
f 372 367 359
f 373 368 364
f 374 369 20
f 374 20 21
f 374 21 22
f 375 187 186
f 375 188 187
f 375 361 366
f 375 186 370
f 375 370 361
f 376 371 367
f 377 372 368
f 378 364 369
f 378 373 364
f 379 374 22
f 379 22 23
f 379 23 24
f 380 371 376
f 380 189 188
f 380 190 189
f 380 375 366
f 380 188 375
f 380 366 371
f 381 376 367
f 381 367 372
f 382 368 373
f 382 377 368
f 383 369 374
f 383 378 369
f 384 379 24
f 384 24 25
f 385 191 190
f 385 192 191
f 385 190 380
f 385 380 376
f 386 381 372
f 386 372 377
f 387 382 373
f 387 373 378
f 388 374 379
f 388 383 374
f 389 384 25
f 389 25 26
f 389 26 27
f 390 376 381
f 390 193 192
f 390 194 193
f 390 385 376
f 390 192 385
f 391 377 382
f 391 386 377
f 391 382 387
f 392 387 378
f 392 378 383
f 393 388 379
f 393 379 384
f 393 384 389
f 394 389 27
f 394 27 28
f 394 28 29
f 395 195 194
f 395 196 195
f 395 194 390
f 395 386 391
f 395 390 381
f 395 381 386
f 396 391 387
f 397 392 383
f 397 383 388
f 398 393 389
f 399 394 29
f 399 29 30
f 399 30 31
f 400 197 196
f 400 198 197
f 400 196 395
f 400 395 391
f 401 396 387
f 401 387 392
f 402 397 388
f 402 388 393
f 402 393 398
f 403 398 389
f 403 389 394
f 403 394 399
f 404 399 31
f 404 31 32
f 404 32 33
f 405 199 198
f 405 200 199
f 405 198 400
f 405 391 396
f 405 400 391
f 406 392 397
f 406 401 392
f 406 397 402
f 407 402 398
f 408 403 399
f 409 404 33
f 409 33 34
f 409 34 35
f 410 201 200
f 410 202 201
f 410 200 405
f 410 396 401
f 410 405 396
f 411 406 402
f 412 398 403
f 412 407 398
f 413 399 404
f 413 408 399
f 414 409 35
f 414 35 36
f 414 36 37
f 415 401 406
f 415 203 202
f 415 202 410
f 415 410 401
f 416 407 412
f 416 402 407
f 416 411 402
f 417 412 403
f 417 403 408
f 418 413 404
f 418 404 409
f 419 414 37
f 419 37 38
f 419 38 39
f 420 204 203
f 420 205 204
f 420 203 415
f 420 415 406
f 420 406 411
f 421 416 412
f 422 417 408
f 422 408 413
f 423 418 409
f 423 409 414
f 424 419 39
f 424 39 40
f 424 40 41
f 425 205 420
f 425 206 205
f 425 420 411
f 425 207 206
f 425 416 421
f 425 411 416
f 426 421 412
f 426 412 417
f 427 413 418
f 427 422 413
f 427 418 423
f 428 423 414
f 428 414 419
f 429 424 41
f 429 41 42
f 429 42 43
f 430 421 426
f 430 207 425
f 430 208 207
f 430 209 208
f 430 425 421
f 431 422 427
f 431 426 417
f 431 417 422
f 432 427 423
f 433 428 419
f 433 419 424
f 434 429 43
f 434 45 340
f 434 43 44
f 434 44 45
f 434 340 341
f 435 210 209
f 435 211 210
f 435 209 430
f 435 430 426
f 436 431 427
f 437 423 428
f 437 432 423
f 438 433 424
f 438 424 429
f 439 431 436
f 439 211 435
f 439 212 211
f 439 213 212
f 439 426 431
f 439 435 426
f 440 427 432
f 440 436 427
f 441 433 438
f 441 428 433
f 441 437 428
f 442 429 434
f 442 434 341
f 442 438 429
f 443 214 213
f 443 215 214
f 443 439 436
f 443 213 439
f 444 432 437
f 444 440 432
f 445 441 438
f 446 215 443
f 446 216 215
f 446 217 216
f 446 436 440
f 446 443 436
f 447 437 441
f 447 444 437
f 448 442 341
f 448 438 442
f 448 445 438
f 448 341 342
f 449 446 440
f 449 218 217
f 449 219 218
f 449 217 446
f 449 440 444
f 450 447 441
f 450 441 445
f 451 219 449
f 451 449 444
f 451 220 219
f 451 221 220
f 451 447 450
f 451 444 447
f 452 448 342
f 452 450 445
f 452 445 448
f 452 342 343
f 453 221 451
f 453 222 221
f 453 223 222
f 453 451 450
f 454 343 344
f 454 344 225
f 454 452 343
f 454 453 450
f 454 450 452
f 454 223 453
f 454 224 223
f 454 225 224
f 46 180 136
f 90 180 46
f 90 179 180
f 89 179 90
f 89 178 179
f 88 178 89
f 88 177 178
f 87 177 88
f 87 176 177
f 86 176 87
f 86 175 176
f 85 175 86
f 85 174 175
f 84 174 85
f 84 173 174
f 83 173 84
f 83 172 173
f 82 172 83
f 82 171 172
f 81 171 82
f 80 171 81
f 80 169 170
f 80 170 171
f 79 169 80
f 79 168 169
f 78 168 79
f 78 167 168
f 77 167 78
f 76 167 77
f 76 165 166
f 76 166 167
f 75 165 76
f 75 164 165
f 74 164 75
f 74 163 164
f 73 163 74
f 73 162 163
f 72 162 73
f 71 160 161
f 71 161 162
f 71 162 72
f 70 160 71
f 69 158 159
f 69 159 160
f 69 160 70
f 68 158 69
f 67 157 158
f 67 158 68
f 66 156 157
f 66 157 67
f 65 156 66
f 65 154 155
f 65 155 156
f 64 154 65
f 63 154 64
f 63 152 153
f 63 153 154
f 62 152 63
f 62 151 152
f 61 151 62
f 61 150 151
f 60 150 61
f 59 150 60
f 59 148 149
f 59 149 150
f 58 148 59
f 57 148 58
f 57 146 147
f 57 147 148
f 56 146 57
f 56 145 146
f 55 145 56
f 54 145 55
f 54 144 145
f 53 144 54
f 53 143 144
f 52 142 143
f 52 143 53
f 51 142 52
f 51 140 141
f 51 141 142
f 50 139 140
f 50 140 51
f 49 139 50
f 48 137 138
f 48 138 139
f 48 139 49
f 47 137 48
f 46 136 137
f 46 137 47

