# https://github.com/mikedh/trimesh
v -11.17427865 56.22407304 0.00000000
v -11.76945000 55.80620001 -0.00018219
v -12.77826956 32.63455961 0.01077883
v -12.70000000 32.66792082 -0.00000000
v -6.35000000 22.08190848 0.00557446
v -9.58959359 23.75379431 0.05374527
v -7.93228200 22.28946736 0.03656467
v -7.29441226 22.16686714 0.00818542
v -12.75265646 57.17395359 0.00263902
v -11.60793792 31.59018790 -0.00204889
v 6.99955212 22.13140572 0.00283516
v 6.35000000 22.08190848 0.00557446
v -4.37296782 22.13269967 0.00007646
v 4.37296782 22.13269967 0.00007646
v -12.70000000 57.42998372 0.30785308
v -12.75852710 57.42422128 0.30770219
v -12.81480503 57.40715541 0.30725530
v -12.70000000 57.42558550 0.24822786
v -12.70000000 57.40945100 0.19065885
v -12.70000000 57.38222104 0.13743253
v -12.70000000 57.34497711 0.09066286
v -12.70000000 57.29919840 0.05220740
v -12.70000000 57.24670311 0.02359347
v -12.70000000 57.18957619 0.00595752
v -12.92797280 57.26395539 0.11343487
v -12.87472409 57.37955497 0.21466746
v 12.70000000 57.42998372 0.30785308
v 12.70000000 57.42558550 0.24822786
v 12.70000000 57.40945100 0.19065885
v 12.70000000 57.38222104 0.13743253
v 12.70000000 57.34497711 0.09066286
v 12.70000000 57.29919840 0.05220740
v 12.70000000 57.24670311 0.02359347
v 12.70000000 57.18957619 0.00595752
v 12.70000000 57.13008652 0.00000000
v 9.52645101 26.82253891 -0.00974231
v 12.70000000 32.66792082 0.00000000
v 12.77826956 32.63455961 0.01077883
v 12.86667107 57.37944193 0.30652960
v 12.81480503 57.40715541 0.30725530
v 12.75852710 57.42422128 0.30770219
v 12.81480503 57.13008652 0.02283614
v 12.75852710 57.13008652 0.00576442
v 12.91392463 57.31721003 0.12061468
v 11.49519132 31.52009133 -0.02284959
v -48.37361265 31.32702445 5.31220740
v -48.41325817 31.34991380 5.35066286
v -48.44551237 31.36853577 5.39743253
v -48.46909420 31.38215075 5.45065885
v -48.48306709 31.39021800 5.50822786
v -48.48687606 31.39241711 5.56785308
v -48.23601353 31.68059586 5.56897844
v -48.34046823 31.58647470 5.56871297
v -48.41920550 31.49443034 5.56834724
v -48.16712130 31.62599105 5.30008769
v -51.79192366 25.40000000 5.56906693
v -51.49929782 24.99181164 5.28359347
v -51.54476007 24.96556400 5.31220740
v -51.58440559 24.94267464 5.35066286
v -51.61665978 24.92405268 5.39743253
v -51.64024162 24.91043770 5.45065885
v -51.65421451 24.90237045 5.50822786
v -51.65802348 24.90017134 5.56785308
v -51.78216233 25.26151403 5.56897844
v -51.75287836 25.12399303 5.56871297
v -51.71253424 25.00978238 5.56834724
v -51.75594950 25.26478728 5.40027286
v 48.10573269 31.50273887 5.26509864
v -48.16023642 19.15713471 5.29847475
v 51.79192366 25.40000000 5.56906693
v 51.65802348 25.89982866 5.56785308
v 51.65421451 25.89762955 5.50822786
v 51.61665978 25.87594732 5.39743253
v 51.58440559 25.85732536 5.35066286
v 51.54476007 25.83443600 5.31220740
v 51.49929782 25.80818836 5.28359347
v 51.44982445 25.77962490 5.26595752
v 51.78216233 25.53848597 5.56897844
v 51.75287836 25.67600697 5.56871297
v 51.71253424 25.79021762 5.56834724
v 51.70604314 25.30946846 5.30139059
v 51.77078092 25.58632808 5.45690090
v 48.48687606 19.40758289 5.56785308
v 48.48306709 19.40978200 5.50822786
v 48.46909420 19.41784925 5.45065885
v 48.44551237 19.43146423 5.39743253
v 48.41325817 19.45008620 5.35066286
v 48.34046823 19.21352530 5.56871297
v 48.41920550 19.30556966 5.56834724
v 48.17603336 19.30194823 5.21596907
v -22.72096183 -6.35829240 5.56906693
v -22.22114742 -6.25183824 5.26595752
v -22.22114742 -6.36146045 5.31220740
v -22.22114742 -6.40723916 5.35066286
v -22.22114742 -6.47171306 5.45065885
v -22.22114742 -6.48784755 5.50822786
v -22.22114742 -6.49224577 5.56785308
v -22.59614880 -6.41908183 5.56897844
v -22.46241014 -6.46248167 5.56871297
v -22.34332874 -6.48464796 5.56834724
v -22.57979218 -6.26252086 5.27885811
v -22.43856354 -6.45029572 5.44207005
v 22.22114742 -6.25183824 5.26595752
v 22.22114742 -6.30896517 5.28359347
v 22.22114742 -6.36146045 5.31220740
v 22.22114742 -6.44448310 5.39743253
v 22.22114742 -6.48784755 5.50822786
v 22.22114742 -6.49224577 5.56785308
v 22.72096183 -6.35829240 5.56906693
v 22.87867703 -5.87221334 5.26595752
v 22.83601353 -6.28059586 5.56897844
v 22.94046823 -6.18647470 5.56871297
v 22.76705354 -6.22611308 5.30012220
v -48.30619060 21.37331112 15.28658714
v -51.34374964 25.29276275 15.27122669
v 37.80196451 25.35301248 15.29527147
v -38.10188046 25.46352727 15.34823452
v 12.70147808 -0.00084160 15.32660560
v 0.02715858 -0.03200227 15.33500535
v 0.04198408 50.36829651 15.30775678
v -12.70000000 57.08938342 13.31485390
v -12.86667107 57.03884163 13.31353041
v -12.81480503 57.06655510 13.31425612
v -12.75852710 57.08362098 13.31470300
v -12.70000000 55.09006877 15.26250000
v -12.70000000 57.06612332 13.57105859
v -12.70000000 57.01016848 13.82215803
v -12.70000000 56.92244468 14.06399767
v -12.70000000 56.80440337 14.29257615
v -12.70000000 56.65799759 14.50411154
v -12.70000000 56.48564969 14.69510389
v -12.70000000 56.29021125 14.86239313
v -12.70000000 56.07491589 15.00321139
v -12.70000000 55.84332577 15.11522877
v -12.70000000 55.59927266 15.19659188
v -12.70000000 55.34679454 15.24595453
v -12.93245821 56.85029722 14.14753029
v -12.87356283 55.80787431 15.11829465
v -47.76827734 31.37116251 15.25660999
v -51.37372105 25.89982866 14.97035308
v -51.36759011 25.89628896 15.02775134
v -51.35203507 25.88730826 15.08272465
v -51.32763400 25.87322030 15.13323004
v -51.29529373 25.85454863 15.17739058
v -51.25621612 25.83198716 15.21356513
v -51.21185341 25.80637434 15.24040932
v -51.16385425 25.77866201 15.25692554
v -48.08500625 30.99625538 15.26250000
v -48.34472484 31.14620398 14.97035308
v -48.33859390 31.14266428 15.02775134
v -48.32303886 31.13368358 15.08272465
v -48.29863780 31.11959562 15.13323004
v -48.26629753 31.10092395 15.17739058
v -48.22721992 31.07836248 15.21356513
v -48.18285721 31.05274966 15.24040932
v -48.13485805 31.02503733 15.25692554
v -51.50762123 25.40000000 14.97156693
v -51.49785990 25.53848597 14.97147844
v -51.46857593 25.67600697 14.97121297
v -51.42823181 25.79021762 14.97084724
v -51.46160447 25.53824443 15.13757964
v -48.34472484 19.65379602 14.97035308
v -48.33859390 19.65733572 15.02775134
v -48.32303886 19.66631642 15.08272465
v -48.29863780 19.68040438 15.13323004
v -48.26629753 19.69907605 15.17739058
v -48.22721992 19.72163752 15.21356513
v -48.18285721 19.74725034 15.24040932
v -51.37372105 24.90017134 14.97035308
v -51.35203507 24.91269174 15.08272465
v -51.32763400 24.92677970 15.13323004
v -51.29529373 24.94545137 15.17739058
v -51.25621612 24.96801284 15.21356513
v -48.19831701 19.45973843 14.97121297
v -48.27705428 19.55178279 14.97084724
v -48.02357119 19.42151284 15.22399351
v -47.96146627 19.54394061 15.25760179
v -22.68500625 -5.59625538 15.26250000
v -22.55601972 -5.86472975 15.25644515
v -22.57881061 -6.11207927 14.97156693
v -22.69386232 -6.03438273 14.97147844
v -22.79831701 -5.94026157 14.97121297
v -22.66731244 -6.00648984 15.14837350
v 22.07899620 -6.24603265 14.97035308
v 22.07899620 -6.23895325 15.02775134
v 22.07899620 -6.22099184 15.08272465
v 22.07899620 -6.19281591 15.13323004
v 22.07899620 -6.15547259 15.17739058
v 22.07899620 -6.05912400 15.24040932
v 22.07899620 -6.00369935 15.25692554
v 22.07899620 -5.94613545 15.26250000
v -22.07899620 -5.94613545 15.26250000
v -22.07899620 -6.24603265 14.97035308
v -22.07899620 -6.23895325 15.02775134
v -22.07899620 -6.22099184 15.08272465
v -22.07899620 -6.19281591 15.13323004
v -22.19904764 -6.14796620 15.17837550
v -22.07899620 -6.11034965 15.21356513
v -22.07899620 -6.00369935 15.25692554
v 22.57881061 -6.11207927 14.97156693
v 22.45399759 -6.17286870 14.97147844
v 22.32025892 -6.21626854 14.97121297
v 22.20117753 -6.23843483 14.97084724
v 22.36984321 -6.09720315 15.19799002
v 22.48265630 -5.94553601 15.25286768
v 22.43987620 -6.16425597 15.08445297
v 22.68500625 -5.59625538 15.26250000
v 47.95312989 19.54072608 15.25879245
v 48.03788277 19.35508347 15.12932649
v 51.37372105 24.90017134 14.97035308
v 51.35203507 24.91269174 15.08272465
v 51.32763400 24.92677970 15.13323004
v 51.29529373 24.94545137 15.17739058
v 51.25621612 24.96801284 15.21356513
v 48.34472484 19.65379602 14.97035308
v 48.33859390 19.65733572 15.02775134
v 48.32303886 19.66631642 15.08272465
v 48.29863780 19.68040438 15.13323004
v 48.26629753 19.69907605 15.17739058
v 48.22721992 19.72163752 15.21356513
v 48.18285721 19.74725034 15.24040932
v 48.13485805 19.77496267 15.25692554
v 51.50762123 25.40000000 14.97156693
v 51.49785990 25.26151403 14.97147844
v 51.46857593 25.12399303 14.97121297
v 51.42823181 25.00978238 14.97084724
v 51.28642702 25.22539210 15.28251970
v 51.48260233 25.17511747 15.04965229
v 48.34472484 31.14620398 14.97035308
v 48.33859390 31.14266428 15.02775134
v 48.32303886 31.13368358 15.08272465
v 48.29863780 31.11959562 15.13323004
v 48.26629753 31.10092395 15.17739058
v 48.22721992 31.07836248 15.21356513
v 48.18285721 31.05274966 15.24040932
v 48.13485805 31.02503733 15.25692554
v 48.08500625 30.99625538 15.26250000
v 51.37372105 25.89982866 14.97035308
v 51.36759011 25.89628896 15.02775134
v 51.35203507 25.88730826 15.08272465
v 51.32763400 25.87322030 15.13323004
v 51.29529373 25.85454863 15.17739058
v 51.25621612 25.83198716 15.21356513
v 51.21185341 25.80637434 15.24040932
v 51.16385425 25.77866201 15.25692554
v 48.09386232 31.43438273 14.97147844
v 48.19831701 31.34026157 14.97121297
v 48.27705428 31.24821721 14.97084724
v 48.02450842 31.36984270 15.22640152
v 12.70000000 55.09006877 15.26250000
v 12.86667107 57.03884163 13.31353041
v 12.81480503 57.06655510 13.31425612
v 12.75852710 57.08362098 13.31470300
v 12.70000000 57.08938342 13.31485390
v 12.70000000 55.59927266 15.19659188
v 12.70000000 55.84332577 15.11522877
v 12.70000000 56.07491589 15.00321139
v 12.70000000 56.29021125 14.86239313
v 12.70000000 56.48564969 14.69510389
v 12.70000000 56.65799759 14.50411154
v 12.70000000 56.80440337 14.29257615
v 12.70000000 56.92244468 14.06399767
v 12.70000000 57.01016848 13.82215803
v 12.70000000 57.06612332 13.57105859
v 12.98361103 56.14786041 14.81723209
v 12.80149403 55.45909472 15.21877880
v 12.88592121 55.70900803 15.13241074
v 12.92342859 56.85229242 14.15271657
v 22.35015667 -6.48377511 5.56837134
v 22.47560766 -6.45909913 5.56874623
v 22.65959674 -6.39088279 5.56904464
v 22.78878889 -5.94999969 14.97124623
v 22.63771726 -6.07523074 14.97154464
v 48.27288440 19.54630606 14.97087134
v 48.18878889 19.45000031 14.97124623
v 48.48687606 31.39241711 5.56785308
v 48.41503562 31.49990707 5.56837134
v 48.33094011 31.59621282 5.56874623
v 48.17986848 31.72144386 5.56904464
v -48.48687606 19.40758289 5.56785308
v -48.41503562 19.30009293 5.56837134
v -48.33094011 19.20378718 5.56874623
v -22.93094011 -6.19621282 5.56874623
v -22.77986848 -6.32144386 5.56904464
v -22.20800546 -6.23756198 14.97087134
v -22.33345644 -6.21288601 14.97124623
v -22.51744552 -6.14466966 14.97154464
v -51.65802348 25.89982866 5.56785308
v -51.71519229 25.78386804 5.56837134
v -51.75654776 25.66288631 5.56874623
v -51.78946522 25.46943892 5.56904464
v -51.43088986 25.01613196 14.97087134
v -51.47224533 25.13711369 14.97124623
v -51.50516278 25.33056108 14.97154464
v -48.27288440 31.25369394 14.97087134
v -48.18878889 31.34999969 14.97124623
v -48.03771726 31.47523074 14.97154464
v 8.67858527 22.67142737 0.09745785
v 9.68170974 24.15652097 0.04406675
v 51.65802348 24.90017134 5.56785308
v -8.21455896 24.43386342 0.00000000
v -8.06563678 24.18897132 0.00000000
v -7.88475552 23.96663840 0.00000000
v -7.67528468 23.77100629 0.00000000
v -7.44112630 23.60571925 0.00000000
v -7.18664229 23.47385627 0.00000000
v 51.43088986 25.78386804 14.97087134
v 51.47224533 25.66288631 14.97124623
v 51.50516278 25.46943892 14.97154464
v 51.71519229 25.01613196 5.56837134
v 51.75654776 25.13711369 5.56874623
v 51.78946522 25.33056108 5.56904464
v 51.44782320 25.62305671 15.12292859
v 22.75747539 -5.93277438 15.12652052
v -22.24936943 -6.04119968 15.24122798
v -22.34689610 -6.19445171 15.06889310
v -51.40595340 25.00392768 15.07189184
v -48.02495881 31.42669136 15.17296457
v 22.47485934 -6.43086348 5.40428046
v 22.34589729 -6.46619788 5.45391235
v -22.87867703 -5.87221334 5.26595752
v -22.83477476 -6.25526563 5.41253595
v 51.65421451 24.90237045 5.50822786
v 51.64024162 24.91043770 5.45065885
v 51.61665978 24.92405268 5.39743253
v 51.58440559 24.94267464 5.35066286
v 51.54476007 24.96556400 5.31220740
v 51.49929782 24.99181164 5.28359347
v 51.44982445 25.02037510 5.26595752
v 48.48306709 31.39021800 5.50822786
v 48.46909420 31.38215075 5.45065885
v 48.44551237 31.36853577 5.39743253
v 48.41325817 31.34991380 5.35066286
v 48.37361265 31.32702445 5.31220740
v 48.32815040 31.30077681 5.28359347
v 48.27867703 31.27221334 5.26595752
v -48.27867703 19.52778666 5.26595752
v -48.32815040 19.49922319 5.28359347
v -48.37361265 19.47297555 5.31220740
v -48.41325817 19.45008620 5.35066286
v -48.44551237 19.43146423 5.39743253
v -48.46909420 19.41784925 5.45065885
v -48.48306709 19.40978200 5.50822786
v 48.28967580 31.59896790 5.41064773
v -51.33148839 25.31805083 5.18668829
v -51.54476007 25.83443600 5.31220740
v -51.58440559 25.85732536 5.35066286
v -51.61665978 25.87594732 5.39743253
v -51.64024162 25.88956230 5.45065885
v -51.65421451 25.89762955 5.50822786
v -51.73830157 25.62577284 5.41064774
f 4 6 3
f 8 6 4
f 131 318 132
f 246 251 268
f 261 260 268
f 268 260 259
f 279 251 246
f 345 3 6
f 6 337 345
f 4 3 345
f 53 55 49
f 25 55 26
f 103 12 11
f 52 55 53
f 52 26 55
f 296 52 53
f 26 52 122
f 120 125 117
f 250 125 120
f 138 132 318
f 133 132 138
f 236 266 250
f 238 71 276
f 246 268 249
f 249 268 259
f 249 258 257
f 266 236 249
f 20 26 19
f 19 26 18
f 6 8 7
f 8 101 7
f 321 337 6
f 6 7 321
f 321 7 101
f 92 8 5
f 92 101 8
f 15 18 16
f 18 26 16
f 16 121 15
f 299 90 298
f 90 110 298
f 298 11 299
f 103 11 113
f 11 298 113
f 113 298 110
f 113 110 90
f 301 8 4
f 301 302 8
f 4 10 301
f 10 302 301
f 5 8 305
f 131 130 137
f 137 318 131
f 295 296 53
f 318 296 295
f 52 296 297
f 297 122 52
f 297 296 318
f 297 137 122
f 318 137 297
f 148 156 115
f 148 115 117
f 117 125 148
f 317 115 161
f 117 118 116
f 116 120 117
f 136 125 250
f 250 266 136
f 232 241 240
f 237 236 250
f 80 71 238
f 238 276 229
f 344 279 278
f 278 279 246
f 259 258 265
f 265 249 259
f 258 249 265
f 235 249 236
f 235 234 249
f 266 249 267
f 267 257 256
f 267 249 257
f 268 264 263
f 101 322 69
f 337 321 69
f 69 321 101
f 199 198 189
f 315 198 199
f 119 191 118
f 119 192 191
f 119 118 117
f 53 49 54
f 54 295 53
f 54 51 149
f 149 295 54
f 150 295 149
f 17 16 26
f 4 345 9
f 345 346 9
f 9 55 25
f 9 346 55
f 304 305 8
f 5 305 306
f 128 137 129
f 129 137 130
f 127 137 128
f 115 156 147
f 117 115 114
f 115 172 173
f 171 172 115
f 115 317 171
f 294 317 161
f 156 148 139
f 136 135 139
f 139 148 125
f 125 136 139
f 139 135 138
f 139 138 318
f 318 155 139
f 139 155 156
f 312 311 81
f 81 325 326
f 79 78 82
f 82 78 70
f 82 80 79
f 70 312 82
f 82 312 81
f 330 331 344
f 276 330 277
f 344 278 277
f 277 330 344
f 252 268 251
f 252 264 268
f 251 40 252
f 261 268 262
f 268 263 262
f 41 28 27
f 41 40 28
f 27 254 41
f 81 75 74
f 74 82 81
f 73 82 74
f 94 105 106
f 48 47 347
f 48 49 55
f 55 47 48
f 46 346 347
f 347 47 46
f 55 346 46
f 46 47 55
f 189 205 190
f 190 205 191
f 190 199 189
f 191 205 207
f 207 205 208
f 118 191 207
f 208 205 209
f 337 69 338
f 338 345 337
f 338 57 345
f 50 54 49
f 51 54 50
f 347 346 351
f 154 155 318
f 299 37 38
f 43 37 35
f 2 10 4
f 4 9 2
f 77 43 336
f 86 326 325
f 86 113 90
f 8 302 303
f 303 304 8
f 45 306 305
f 10 2 45
f 35 37 45
f 305 304 45
f 304 303 45
f 45 302 10
f 45 303 302
f 121 16 124
f 16 17 124
f 137 127 126
f 121 124 126
f 115 147 146
f 196 316 195
f 287 183 180
f 287 316 183
f 197 316 196
f 197 198 315
f 315 183 197
f 183 316 197
f 100 96 97
f 97 193 100
f 102 322 101
f 102 98 322
f 101 94 102
f 96 100 102
f 317 294 293
f 161 159 158
f 138 135 134
f 133 138 134
f 255 267 256
f 266 267 255
f 255 136 266
f 255 135 136
f 232 249 233
f 249 234 233
f 208 221 222
f 220 221 208
f 208 209 220
f 220 209 219
f 313 240 241
f 327 328 81
f 81 326 327
f 90 328 327
f 327 326 90
f 80 82 72
f 72 82 73
f 71 80 72
f 72 73 331
f 331 330 72
f 240 313 239
f 232 240 231
f 231 249 232
f 247 278 246
f 247 277 278
f 246 249 247
f 249 231 247
f 331 73 332
f 344 331 332
f 332 333 344
f 73 74 332
f 332 74 333
f 253 41 254
f 253 254 264
f 264 252 253
f 253 252 40
f 40 41 253
f 95 107 96
f 106 107 95
f 95 94 106
f 96 102 95
f 95 102 94
f 320 107 106
f 103 113 104
f 113 105 104
f 104 92 103
f 101 92 93
f 93 94 101
f 92 104 93
f 105 94 93
f 93 104 105
f 349 351 350
f 49 48 349
f 275 209 314
f 314 272 275
f 314 209 205
f 284 283 322
f 51 288 140
f 149 51 140
f 290 158 159
f 152 142 143
f 161 144 143
f 143 142 161
f 151 142 152
f 151 152 318
f 318 295 151
f 295 150 151
f 318 152 153
f 153 154 318
f 34 43 35
f 35 9 34
f 1 9 35
f 1 2 9
f 35 45 1
f 1 45 2
f 21 22 25
f 25 26 21
f 21 26 20
f 23 9 25
f 25 22 23
f 76 75 81
f 81 77 76
f 37 43 329
f 43 77 329
f 329 77 81
f 329 38 37
f 81 328 329
f 299 38 329
f 329 90 299
f 329 328 90
f 28 40 29
f 39 40 251
f 251 279 39
f 90 326 87
f 87 86 90
f 326 86 87
f 85 88 113
f 113 86 85
f 306 45 13
f 5 306 13
f 299 11 36
f 36 37 299
f 36 45 37
f 123 126 124
f 123 124 17
f 122 137 123
f 137 126 123
f 26 122 123
f 123 17 26
f 115 146 145
f 161 115 145
f 145 144 161
f 179 183 315
f 179 176 183
f 179 199 192
f 315 199 179
f 170 171 317
f 183 176 174
f 115 173 167
f 285 100 193
f 316 287 286
f 286 287 98
f 286 285 316
f 98 102 99
f 99 102 100
f 99 286 98
f 100 285 99
f 285 286 99
f 157 294 161
f 161 158 157
f 56 294 157
f 242 313 241
f 243 313 242
f 243 244 227
f 227 313 243
f 227 244 245
f 227 222 221
f 221 220 227
f 208 222 227
f 245 236 227
f 236 237 227
f 118 207 227
f 227 207 208
f 227 116 118
f 120 116 227
f 250 120 227
f 227 237 250
f 70 78 309
f 219 209 218
f 274 209 275
f 275 88 274
f 216 274 215
f 313 309 308
f 308 78 79
f 308 309 78
f 248 230 229
f 277 247 248
f 248 231 230
f 248 247 231
f 248 229 276
f 276 277 248
f 108 107 269
f 107 320 269
f 269 203 108
f 348 48 347
f 348 349 48
f 347 351 348
f 351 349 348
f 108 203 184
f 180 284 91
f 91 287 180
f 98 287 91
f 322 98 91
f 91 284 322
f 169 63 280
f 169 170 317
f 141 140 160
f 160 142 141
f 160 140 288
f 160 159 161
f 161 142 160
f 291 290 351
f 158 290 291
f 56 157 291
f 291 157 158
f 344 333 334
f 334 74 75
f 333 74 334
f 336 43 335
f 68 334 335
f 335 77 336
f 335 76 77
f 24 34 9
f 9 23 24
f 30 29 44
f 44 29 40
f 40 39 44
f 31 30 44
f 44 279 344
f 44 39 279
f 44 32 31
f 344 334 44
f 44 334 68
f 68 335 44
f 323 310 300
f 324 86 325
f 324 85 86
f 324 325 81
f 81 311 324
f 311 310 324
f 310 323 324
f 14 11 12
f 14 13 45
f 14 36 11
f 45 36 14
f 176 179 177
f 177 114 115
f 183 174 182
f 322 283 282
f 282 69 322
f 282 342 69
f 164 174 176
f 194 195 316
f 316 285 194
f 194 285 193
f 311 312 228
f 312 224 228
f 227 213 228
f 313 227 228
f 70 309 223
f 223 312 70
f 223 224 312
f 223 228 224
f 223 309 313
f 313 228 223
f 217 216 211
f 211 218 217
f 217 218 209
f 209 274 217
f 217 274 216
f 238 239 307
f 307 80 238
f 307 239 313
f 313 308 307
f 79 80 307
f 307 308 79
f 272 314 273
f 314 206 273
f 203 269 202
f 202 206 203
f 204 314 205
f 204 206 314
f 204 205 189
f 64 294 56
f 64 293 294
f 64 65 293
f 63 169 66
f 289 160 288
f 289 288 350
f 289 290 159
f 159 160 289
f 350 351 289
f 351 290 289
f 32 44 33
f 114 177 178
f 178 177 179
f 178 179 192
f 117 114 178
f 178 119 117
f 192 119 178
f 168 177 115
f 176 177 168
f 115 167 168
f 168 167 176
f 180 183 181
f 183 182 181
f 181 284 180
f 181 182 283
f 283 284 181
f 281 282 174
f 280 343 281
f 342 282 281
f 281 343 342
f 170 169 163
f 163 164 170
f 171 170 165
f 170 164 165
f 165 164 176
f 214 227 220
f 214 213 227
f 225 310 311
f 311 228 225
f 211 228 212
f 212 228 213
f 212 218 211
f 89 215 274
f 89 83 215
f 89 274 88
f 89 84 83
f 85 84 89
f 88 85 89
f 270 269 320
f 270 202 269
f 272 273 111
f 185 184 203
f 203 206 185
f 206 186 185
f 188 197 196
f 189 198 188
f 198 197 188
f 188 204 189
f 200 273 206
f 65 64 67
f 67 66 65
f 67 64 56
f 67 59 60
f 56 291 67
f 67 291 351
f 345 57 67
f 67 346 345
f 67 351 346
f 292 66 169
f 317 293 292
f 292 169 317
f 293 65 292
f 65 66 292
f 42 33 44
f 42 335 43
f 42 44 335
f 34 33 42
f 43 34 42
f 162 169 280
f 162 163 169
f 176 167 166
f 166 165 176
f 300 310 226
f 310 225 226
f 226 228 211
f 226 225 228
f 319 270 320
f 271 270 319
f 319 320 106
f 319 105 113
f 106 105 319
f 113 111 109
f 109 319 113
f 271 319 109
f 109 200 271
f 109 111 273
f 273 200 109
f 113 88 112
f 112 111 113
f 272 111 112
f 187 188 196
f 204 188 187
f 187 186 206
f 206 204 187
f 271 200 201
f 201 270 271
f 202 270 201
f 206 202 201
f 201 200 206
f 339 338 69
f 60 59 341
f 69 342 341
f 61 67 60
f 66 67 61
f 61 341 342
f 60 341 61
f 58 67 57
f 59 67 58
f 58 339 59
f 280 281 175
f 175 162 280
f 175 281 174
f 163 162 175
f 174 164 175
f 164 163 175
f 300 226 210
f 210 83 300
f 215 83 210
f 216 215 210
f 211 216 210
f 210 226 211
f 59 339 340
f 340 341 59
f 340 339 69
f 69 341 340
f 63 66 62
f 66 61 62
f 28 18 15
f 15 27 28
f 259 260 130
f 131 259 130
f 258 259 131
f 131 132 258
f 133 257 258
f 258 132 133
f 92 12 103
f 5 12 92
f 254 27 15
f 15 121 254
f 129 130 260
f 129 260 261
f 262 129 261
f 128 129 262
f 262 127 128
f 263 127 262
f 97 96 107
f 107 108 97
f 192 199 190
f 191 192 190
f 288 50 350
f 51 50 288
f 126 254 121
f 264 254 126
f 126 127 263
f 126 263 264
f 146 147 156
f 156 155 146
f 134 257 133
f 256 257 134
f 256 134 255
f 255 134 135
f 244 235 236
f 244 236 245
f 244 243 234
f 234 235 244
f 72 330 276
f 72 276 71
f 229 230 239
f 238 229 239
f 231 239 230
f 240 239 231
f 350 50 349
f 349 50 49
f 141 150 140
f 140 150 149
f 151 150 141
f 141 142 151
f 153 143 144
f 152 143 153
f 21 30 31
f 20 30 21
f 18 28 29
f 29 19 18
f 29 30 20
f 20 19 29
f 145 153 144
f 154 153 145
f 145 146 155
f 155 154 145
f 232 233 242
f 242 241 232
f 234 243 242
f 242 233 234
f 97 108 184
f 184 193 97
f 335 334 75
f 75 76 335
f 32 21 31
f 22 21 32
f 14 12 5
f 5 13 14
f 282 182 174
f 283 182 282
f 33 24 23
f 34 24 33
f 22 32 33
f 33 23 22
f 219 213 214
f 214 220 219
f 212 213 219
f 219 218 212
f 84 324 323
f 85 324 84
f 84 323 300
f 300 83 84
f 193 184 185
f 185 194 193
f 195 194 185
f 185 186 195
f 166 167 173
f 166 173 172
f 172 171 166
f 171 165 166
f 275 272 112
f 112 88 275
f 195 186 187
f 196 195 187
f 338 339 58
f 57 338 58
f 62 343 280
f 280 63 62
f 342 343 62
f 62 61 342

