# https://github.com/mikedh/trimesh
v 127.00000000 -12.90000000 -22.60600000
v -125.37440000 -14.50000000 -24.23160000
v -127.00000000 -14.50000000 -0.81280000
v 127.00000000 -14.50000000 -0.81280000
v 127.00000000 -14.50000000 -22.60600000
v 125.37440000 -14.50000000 -24.23160000
v 127.00000000 -14.47935816 -0.49786640
v 127.00000000 -14.41778583 -0.18832141
v 127.00000000 -14.31633654 0.11053859
v 127.00000000 -14.17674609 0.39360000
v 127.00000000 -14.00140294 0.65601958
v 127.00000000 -13.79330724 0.89330724
v 127.00000000 -13.55601958 1.10140294
v 127.00000000 -13.29360000 1.27674609
v 127.00000000 -13.01053859 1.41633654
v 127.00000000 -12.71167859 1.51778583
v 127.00000000 -12.40213360 1.57935816
v 127.00000000 -12.08720000 1.60000000
v -127.00000000 -12.08720000 1.60000000
v -127.00000000 -12.40213360 1.57935816
v -127.00000000 -12.71167859 1.51778583
v -127.00000000 -13.01053859 1.41633654
v -127.00000000 -13.29360000 1.27674609
v -127.00000000 -13.55601958 1.10140294
v -127.00000000 -13.79330724 0.89330724
v -127.00000000 -14.00140294 0.65601958
v -127.00000000 -14.17674609 0.39360000
v -127.00000000 -14.31633654 0.11053859
v -127.00000000 -14.41778583 -0.18832141
v -127.00000000 -14.47935816 -0.49786640
v 125.37440000 14.50000000 -24.23160000
v 127.00000000 14.50000000 -0.81280000
v -127.00000000 14.50000000 -0.81280000
v -125.37440000 14.50000000 -24.23160000
v 127.00000000 12.08720000 1.60000000
v 127.00000000 12.40213360 1.57935816
v 127.00000000 12.71167859 1.51778583
v 127.00000000 13.01053859 1.41633654
v 127.00000000 13.29360000 1.27674609
v 127.00000000 13.55601958 1.10140294
v 127.00000000 13.79330724 0.89330724
v 127.00000000 14.00140294 0.65601958
v 127.00000000 14.17674609 0.39360000
v 127.00000000 14.31633654 0.11053859
v 127.00000000 14.41778583 -0.18832141
v 127.00000000 14.47935816 -0.49786640
v -127.00000000 14.47935816 -0.49786640
v -127.00000000 14.41778583 -0.18832141
v -127.00000000 14.31633654 0.11053859
v -127.00000000 14.17674609 0.39360000
v -127.00000000 14.00140294 0.65601958
v -127.00000000 13.79330724 0.89330724
v -127.00000000 13.55601958 1.10140294
v -127.00000000 13.29360000 1.27674609
v -127.00000000 13.01053859 1.41633654
v -127.00000000 12.71167859 1.51778583
v -127.00000000 12.40213360 1.57935816
v -127.00000000 12.08720000 1.60000000
f 31 32 1
f 31 2 34
f 6 2 31
f 3 33 34
f 34 2 3
f 32 31 34
f 34 33 32
f 18 35 19
f 19 35 58
f 4 2 6
f 6 5 4
f 4 3 2
f 6 31 1
f 1 5 6
f 47 32 33
f 46 32 47
f 18 19 20
f 20 17 18
f 23 14 15
f 23 15 22
f 13 14 23
f 23 24 13
f 25 12 13
f 13 24 25
f 25 26 11
f 11 12 25
f 3 4 30
f 30 4 7
f 11 26 10
f 26 27 10
f 10 27 28
f 28 9 10
f 52 41 42
f 52 42 51
f 40 41 52
f 52 53 40
f 54 38 39
f 55 38 54
f 39 40 54
f 40 53 54
f 46 47 45
f 47 48 45
f 45 48 49
f 49 44 45
f 43 50 51
f 51 42 43
f 49 50 43
f 43 44 49
f 58 35 36
f 36 57 58
f 15 16 21
f 22 15 21
f 17 20 21
f 21 16 17
f 8 9 29
f 29 9 28
f 29 7 8
f 29 30 7
f 13 12 37
f 37 35 18
f 37 32 46
f 8 7 37
f 5 1 37
f 37 14 13
f 7 4 37
f 39 38 37
f 18 17 37
f 11 10 37
f 37 4 5
f 15 14 37
f 37 40 39
f 37 1 32
f 42 41 37
f 37 9 8
f 46 45 37
f 37 43 42
f 37 12 11
f 37 16 15
f 37 41 40
f 17 16 37
f 37 10 9
f 37 45 44
f 44 43 37
f 37 36 35
f 33 3 56
f 56 47 33
f 55 54 56
f 51 50 56
f 56 19 58
f 58 57 56
f 49 48 56
f 26 25 56
f 56 27 26
f 56 20 19
f 56 23 22
f 3 30 56
f 56 52 51
f 56 48 47
f 56 50 49
f 56 29 28
f 24 23 56
f 56 25 24
f 22 21 56
f 28 27 56
f 53 52 56
f 56 54 53
f 56 21 20
f 30 29 56
f 56 38 55
f 56 37 38
f 57 36 56
f 36 37 56

