# https://github.com/mikedh/trimesh
v 14.54837652 -2.31257266 -45.95515952
v 31.96368185 0.66533718 -34.89682886
v 45.64584182 2.38685670 11.76825389
v 52.25756935 -2.12199852 -8.17393502
v 41.47181955 4.23010911 -9.07078746
v 10.23254007 1.44955656 -46.31602787
v -10.68397140 -0.97143808 -46.71520210
v -42.44150310 -20.63513619 -20.41331224
v -47.82835605 -15.14332108 -2.21200782
v -38.80148722 -12.11914331 -20.08583953
v -47.60650202 5.90316427 -9.27614117
v -46.41886566 1.46331089 10.23723088
v -47.36564096 -8.97049053 -4.31354035
v -42.73785759 -14.62584138 20.15792620
v -47.66562392 -15.50517807 2.16046923
v -38.33469959 -10.75175857 18.49755789
v -41.03982382 -20.88773927 19.33623849
v -48.35799120 -12.89400410 21.62635495
v -35.23785669 0.96205292 32.16728764
v -49.79811532 -0.73494692 19.02220376
v -22.62522212 -16.42413422 40.53878393
v -25.58227445 -14.48387369 -40.04369667
v -40.41001738 -16.03782211 -25.91197766
v -2.07318249 -12.25707018 47.94812773
v 2.19850953 -15.38714109 47.69126254
v 21.97535454 -15.10116844 42.38568162
v 12.88705323 2.78219236 44.74819230
v 32.53459319 0.85528326 35.87991953
v 25.82768705 -15.41248228 40.25702453
v 34.48505501 2.66192511 31.73450263
v 44.00430353 -5.15717078 15.13274633
v 45.35446242 -18.03844844 -22.20380446
v 42.36452986 -15.34291954 21.92925690
v 41.41035672 -15.34059284 -23.89795616
v 22.64915997 -14.80670818 -41.14641197
v 39.89163129 -14.66540039 -23.69880505
v 27.81189715 -16.33696764 -42.03980786
v -0.29525522 -15.33379000 -47.85718195
v -18.21251811 -18.33492814 -36.75427283
v -0.82556853 -15.88796498 -48.09403228
v 23.64905849 -15.33655204 -41.62153151
v 1.55568897 -14.53586148 -43.15748679
v 9.41298358 -5.13649082 46.76561958
v -10.23121797 1.08690523 46.59801297
v -32.23985859 1.38433060 35.39382485
v -14.40800128 1.36551873 45.41972964
v -41.29560163 -15.33540270 24.20578823
v -34.17308139 -13.25706177 23.02305014
v -40.02427660 -20.94150161 28.39456852
v -41.55701550 -10.04999711 29.97149682
v -27.40912659 -12.02044399 41.63935927
v -39.07876945 -15.07665396 26.69420586
v -35.56939349 5.71203914 -31.13004715
v -37.15204010 -5.15574502 -31.58691018
v -45.33284902 1.31713839 -14.12138779
v -5.22618870 0.65238205 -5.49564417
v 3.16742693 -0.19409594 5.86369170
v 40.30264766 -11.63631347 25.54509086
v -26.05167500 -7.04771278 38.84289855
v -40.46029894 -6.25854021 29.64903087
v 32.90585062 -3.68048857 34.82878113
v 47.35254404 -16.15637542 -1.86226064
v 37.73621708 5.35108332 10.03705518
v 10.76188824 5.23423395 37.34093363
v -15.84881448 4.80424708 33.41420862
v -9.95127437 5.30340885 37.77349686
v 27.58627682 5.45518982 -28.16067575
v -27.99267067 5.24824685 26.98316846
v 9.18480506 4.85993261 37.54674747
v 9.06071125 -5.71308437 37.05661238
v 1.73298724 4.82463921 36.87009016
v 4.58924249 -0.29476099 5.76295686
v 5.97861768 0.08110531 4.27406145
v 2.69291839 -0.29476096 -6.85663722
v -7.20980025 -5.95523400 -4.92646635
v -0.66294794 -5.95523400 8.70710238
v -0.20330423 1.72171021 8.38501110
v 7.20839663 -5.95523400 4.92727543
v 0.66154432 -5.95523400 -8.70629329
v 7.21196382 -0.20669990 4.75552507
v -0.50221278 -0.16922918 8.62812395
v 3.62018820 -12.49684231 -36.30600286
v 33.34905049 -15.46381947 19.52829969
v 34.43946663 -15.14833081 -15.09686767
v -4.08447042 -15.13799876 37.45765696
v -9.97930992 -18.74717440 35.34222134
v -38.96964298 -19.22306369 0.22983104
v 33.70974194 -7.88669144 -1.47195108
v 34.81647397 -7.82223229 -0.19860996
v -7.25453152 -13.31474316 -3.12244806
v -0.66294240 -8.04476469 8.70702801
v 0.66153878 -8.04476469 -8.70621892
v 0.51580967 -13.76419636 -8.62765828
v 6.93843356 -13.97963123 3.01696288
v 2.41839342 -14.47440120 6.48709221
v -2.69419817 -13.70524133 6.85739959
v -6.32313606 -7.28128759 0.97533447
v -1.16287605 -15.08687688 -7.82554917
v -0.37766670 -15.60941187 8.77131405
v -3.33313329 -0.00515951 -3.32765098
v -46.50836669 -4.18822359 12.43670154
v 26.59643413 5.49328928 28.44201443
v 47.69312986 -12.97477359 1.72637161
v -41.95983280 -19.49188466 23.21626853
v 34.34775520 -3.78658038 -34.22067512
v -41.65982866 -7.44204821 -24.05146660
v -22.14782128 -10.25885369 -45.49043850
v 45.87830236 -2.35454556 -14.51132634
v 46.31771484 1.37096289 12.08359625
v -38.77899612 -7.74015550 14.04988491
v 36.85398036 4.82185503 3.39068272
v 37.10813852 4.85993263 10.81869353
v 37.26559152 4.88507366 10.60539845
v 37.39195096 4.90128038 10.37568239
v 37.48630132 4.90859616 10.13286253
v 37.54786410 4.90705636 9.88037118
v 37.57586079 4.89669632 9.62164062
v 37.57298896 4.88135077 9.40374199
v 26.72735193 4.85993261 27.92373784
v 26.97019492 4.88509896 27.81804497
v 27.19423340 4.90137747 27.68292774
v 9.44795966 4.88509896 37.57663623
v 9.70954118 4.90137747 37.57164061
v 9.96644409 4.90877590 37.53242269
v 10.21553164 4.90729399 37.45982081
v 10.45366705 4.89693145 37.35467332
v 10.64148401 4.88151198 37.24279400
v -10.81899098 4.85993261 37.10924478
v -10.60603668 4.88509896 37.26670648
v -10.37700239 4.90137748 37.39317087
v -10.13490872 4.90877592 37.48765856
v -21.07581942 4.52049335 30.34400215
v -26.82263476 5.01905988 27.91244287
v -27.92403517 4.85993261 26.72845831
v -27.81834210 4.88509897 26.97130133
v -27.68322457 4.90137748 27.19533992
v -27.52080891 4.90877593 27.39821558
v -27.33338975 4.90729402 27.57763090
v -27.12326167 4.89693147 27.73128846
v -26.93246331 4.88151198 27.83800289
v -29.81174115 0.56502694 -21.87008010
v 10.81758736 4.85993255 -37.10843569
v 26.82123109 5.01905990 -27.91163381
v 18.44202694 4.72494263 -31.69526092
v 27.92263155 4.85993261 -26.72764922
v 27.81693848 4.88509897 -26.97049224
v 27.68182095 4.90137748 -27.19453083
v 27.51940530 4.90877593 -27.39740649
v 27.33198613 4.90729402 -27.57682181
v 27.12185805 4.89693147 -27.73047937
v 26.93105969 4.88151198 -27.83719381
v 31.26075516 4.73964916 -19.27131173
v 4.53186944 0.59187290 -36.09134226
v 10.60436292 4.88506839 -37.26584694
v 10.37470630 4.90127680 -37.39219772
v 10.13192582 4.90859792 -37.48656072
v 9.87944496 4.90706384 -37.54814564
v 9.62068721 4.89670667 -37.57616216
v 10.87657545 6.52207625 -40.15247757
v -46.17935296 1.37180191 -12.38059831
v 37.05532906 -5.71307774 9.06184824
v 37.05550597 -5.71308586 -9.06100852
v 36.36496201 -5.71308597 -3.03320824
v 36.36496201 -5.71308597 3.03401739
v 36.62162208 -5.71308437 10.68109456
v 37.08336758 -5.71384334 9.33670760
v 37.07671907 -5.71435204 9.57692223
v 37.04422028 -5.71459381 9.80141493
v 36.90609951 -5.71434977 10.22648314
v 36.80247312 -5.71392496 10.42497284
v 36.71693236 -5.71353449 10.55685610
v 30.63834307 0.04898145 19.87462499
v 30.99586339 -5.77723042 18.85982306
v 26.37481599 -5.71308586 27.56131531
v 26.93448363 -5.90752256 27.20341327
v 26.76034788 -5.71406325 27.36812710
v 26.57297626 -5.71365633 27.47537031
v 10.67987320 -5.71307774 36.62259050
v 20.80931583 -5.71308597 29.97718684
v 15.55494431 -5.71308597 33.01079966
v 10.47016181 -5.71374004 36.77439349
v 10.24239444 -5.71417590 36.89746333
v 10.00059036 -5.71437663 36.99052339
v 9.74888485 -5.71434120 37.05243618
v 9.49141315 -5.71406859 37.08206420
v 9.27543208 -5.71365949 37.08127157
v -10.68139179 -5.71308586 36.62272838
v -9.83467444 -5.71437253 37.03537080
v -10.08359537 -5.71433567 36.96310003
v -10.32131994 -5.71406325 36.86001469
v -10.50788110 -5.71365633 36.75136771
v -26.37615769 -5.71307774 27.56114681
v -15.55634798 -5.71308597 33.01079963
v -20.81071951 -5.71308597 29.97718682
v -27.56161264 -5.71308437 26.37592236
v -26.61247863 -5.71374004 27.45543291
v -26.83294392 -5.71417590 27.31971550
v -27.03443833 -5.71437663 27.15683706
v -27.21390914 -5.71434120 26.96981008
v -27.36830360 -5.71406859 26.76164706
v -27.47560771 -5.71365949 26.57420566
v -32.55407935 0.03206758 16.53959170
v -31.83171994 -5.77723039 17.41450821
v 26.37475407 -5.71307774 -27.56033772
v 10.67998817 -5.71308586 -36.62191930
v 15.55494436 -5.71308597 -33.00999054
v 20.80931589 -5.71308597 -29.97637773
v 27.56020902 -5.71308437 -26.37511328
v 26.61107501 -5.71374004 -27.45462382
v 26.83154030 -5.71417590 -27.31890641
v 27.03303472 -5.71437663 -27.15602797
v 27.21250552 -5.71434120 -26.96900100
v 27.36689998 -5.71406859 -26.76083797
v 27.47420409 -5.71365949 -26.57339657
v 33.65384269 -0.98553516 -14.06004712
v 31.83031631 -5.77723040 -17.41369913
v 36.84923251 -5.97678817 -10.08129199
v 9.57485548 -5.71435757 -37.07710564
v 9.79980698 -5.71459908 -37.04463358
v 10.22534470 -5.71434918 -36.90639669
v 10.42391711 -5.71392274 -36.80272954
v 10.55579937 -5.71353299 -36.71719049
v -33.80211040 1.37180517 -33.81120504
v 20.49970135 -19.34416894 -32.86256770
v -36.36832713 -18.52107555 -6.52653028
v -33.34388978 -19.14160373 19.61111794
v -20.54875514 -19.47986852 32.96419218
v 17.62991176 -19.15235792 33.70881279
v 36.47463768 -18.82287006 6.42978860
v 36.81625731 -5.99455066 -9.10234670
v 36.87031006 -5.97840007 -9.09300729
v 36.92036128 -5.95213501 -9.08435927
v 36.96459256 -5.91670970 -9.07671684
v 37.00139695 -5.87341116 -9.07035766
v 37.02943733 -5.82381248 -9.06551275
v 37.04769497 -5.76971559 -9.06235813
v 37.04769506 -5.76971518 9.06316720
v 37.02943756 -5.82381197 9.06632180
v 37.00139735 -5.87341059 9.07116668
v 36.92036209 -5.95213448 9.08516822
v 36.87031108 -5.97839966 9.09381620
v 36.76016818 -5.99999999 9.11284706
v 36.06567335 -6.00000000 3.05110348
v 36.06567266 -6.00000000 -3.05029459
v 36.35704790 -5.76971514 -3.03366010
v 36.33854835 -5.82381157 -3.03471630
v 36.31013819 -5.87341001 -3.03633833
v 36.27284940 -5.91670881 -3.03846727
v 36.22803647 -5.95213519 -3.04102579
v 36.17732720 -5.97840229 -3.04392094
v 36.12256357 -5.99455599 -3.04704758
v 36.35704790 -5.76971514 3.03446919
v 36.33854835 -5.82381157 3.03552539
v 36.31013819 -5.87341001 3.03714742
v 36.27284940 -5.91670881 3.03927636
v 36.22803647 -5.95213519 3.04183487
v 36.17732720 -5.97840229 3.04473003
v 36.12256357 -5.99455599 3.04785667
v 36.61553321 -5.76971049 10.67602098
v 36.60130089 -5.82380421 10.66416181
v 36.55075215 -5.91669812 10.62204175
v 36.51627195 -5.95212386 10.59331090
v 36.47725445 -5.97839098 10.56079932
v 36.43511700 -5.99454530 10.52568803
v 36.39139029 -6.00000000 10.48925247
v 36.80651262 -5.85290013 10.36415193
v 36.89140905 -5.97180995 9.96579065
v 37.01666503 -5.90285656 9.46239971
v 37.06787211 -5.82176065 9.56053336
v 30.12944566 -0.11230291 19.91610073
v 30.88247862 -5.92256670 18.88756539
v 30.78076942 -6.00000000 18.65516282
v 30.86688758 -5.98136755 18.70325710
v 30.91907656 -5.95060564 18.73240214
v 30.98124217 -5.88698023 18.76711866
v 31.02431381 -5.80566024 18.79117211
v 32.48111161 -6.00000000 15.81904574
v 34.35371150 -6.00000000 13.09359286
v 34.58931394 -5.76971045 13.26641659
v 34.58007455 -5.80683897 13.25963892
v 34.55143305 -5.87340004 13.23862857
v 34.52132109 -5.91669781 13.21653954
v 34.48513285 -5.95212457 13.18999319
v 34.44418269 -5.97839361 13.15995365
v 34.39995790 -5.99455087 13.12751197
v 32.72693229 -5.76971045 15.97699745
v 32.71729199 -5.80683897 15.97080329
v 32.68740766 -5.87340004 15.95160180
v 32.65598906 -5.91669781 15.93141451
v 32.61823052 -5.95212457 15.90715363
v 32.57550342 -5.97839361 15.87970032
v 32.52935959 -5.99455087 15.85005167
v 26.37207923 -5.76971574 27.55387583
v 26.36568235 -5.82381267 27.53648685
v 26.35585794 -5.87341139 27.50978061
v 26.34296292 -5.91670992 27.47472736
v 26.32746577 -5.95213521 27.43260062
v 10.67491393 -5.76971518 36.61663873
v 10.66305323 -5.82381197 36.60240457
v 10.64483733 -5.87341059 36.58054348
v 10.62092805 -5.91670912 36.55184968
v 10.59219401 -5.95213448 36.51736565
v 10.55967914 -5.97839966 36.47834420
v 20.80575010 -5.76971514 29.97010709
v 20.79741502 -5.82381157 29.95355791
v 20.78461466 -5.87341001 29.92814298
v 20.76781398 -5.91670881 29.89478547
v 20.74762326 -5.95213519 29.85469707
v 20.72477590 -5.97840229 29.80933398
v 28.47961075 -6.05986051 23.67938396
v 15.55059598 -5.76971514 33.00417174
v 15.54043151 -5.82381157 32.98867876
v 15.52482172 -5.87341001 32.96488585
v 15.50433360 -5.91670881 32.93365728
v 15.47971140 -5.95213519 32.89612740
v 15.45184948 -5.97840229 32.85365947
v 15.42175992 -5.99455599 32.80779609
v 9.06206067 -5.76971049 37.04880248
v 9.06521485 -5.82380421 37.03054735
v 9.79198453 -5.98585679 36.94885326
v 9.85806902 -5.93018606 37.00015678
v 2.08308961 -5.73476594 36.33551261
v 5.80560262 -5.76971045 36.58924292
v 5.80685257 -5.80683897 36.57785255
v 5.81072731 -5.87340004 36.54254310
v 2.52752407 -5.80683897 36.32021771
v 2.52921088 -5.87340004 36.28473637
v -10.67631739 -5.76971574 36.61663854
v -10.66445653 -5.82381267 36.60240419
v -10.64624045 -5.87341139 36.58054287
v -10.62233096 -5.91670992 36.55184883
v -10.07603771 -5.88280172 36.95002678
v -26.37348294 -5.76971518 27.55387607
v -26.36708614 -5.82381197 27.53648732
v -26.35726183 -5.87341059 27.50978134
v -26.32886989 -5.95213448 27.43260197
v -26.96477924 -5.99922509 26.82576835
v -15.55199960 -5.76971514 33.00417174
v -15.54183513 -5.82381157 32.98867876
v -15.52622533 -5.87341001 32.96488585
v -15.50573722 -5.91670881 32.93365728
v -15.48111502 -5.95213519 32.89612740
v -14.61229767 -6.71481658 29.29190151
v -20.80715372 -5.76971514 29.97010709
v -20.79881864 -5.82381157 29.95355791
v -20.78601828 -5.87341001 29.92814298
v -20.76921760 -5.91670881 29.89478547
v -20.74902688 -5.95213519 29.85469707
v -20.72617952 -5.97840229 29.80933398
v -21.02753530 -6.38446611 27.54849978
v -27.55417435 -5.76971049 26.37318604
v -27.53678785 -5.82380421 26.36679008
v -27.47503644 -5.91669812 26.34407361
v -27.43291469 -5.95212386 26.32857831
v -27.38525009 -5.97839098 26.31104395
v -27.33377410 -5.99454530 26.29210750
v -27.28035662 -6.00000000 26.27245684
v -27.28825215 -5.88302822 26.82178685
v -26.82628830 -5.88106950 27.28040197
v -26.61683119 -5.82300799 27.42944613
v -37.55887626 2.25851947 13.31439198
v -32.31952078 -0.13357258 16.28707739
v -31.79574969 -5.92096366 17.31747407
v -31.54693199 -6.00000000 17.33056145
v -31.63164193 -5.98136755 17.38109483
v -31.68297678 -5.95060564 17.41171929
v -31.74412497 -5.88698023 17.44819803
v -31.78649168 -5.80566024 17.47347244
v -29.94095365 -6.00000000 20.22115953
v -28.51694216 -6.00000000 23.20560504
v -28.78441312 -5.76971045 23.32323087
v -28.77392380 -5.80683897 23.31861817
v -28.74140755 -5.87340004 23.30431908
v -28.70722191 -5.91669781 23.28928586
v -28.66613797 -5.95212457 23.27121911
v -28.61964789 -5.97839361 23.25077500
v -28.56944017 -5.99455087 23.22869604
v -30.20065418 -5.76971045 20.35507063
v -30.19046973 -5.80683897 20.34981896
v -30.15889859 -5.87340004 20.33353911
v -30.12570658 -5.91669781 20.31642346
v -30.08581677 -5.95212457 20.29585404
v -30.04067796 -5.97839361 20.27257794
v -29.99192956 -5.99455087 20.24744054
v 9.53298371 -5.97209801 -36.99250738
v 10.59219348 -5.95213501 -36.51655593
v 10.62092766 -5.91670970 -36.55104013
v 10.64483707 -5.87341116 -36.57973408
v 10.66305308 -5.82381248 -36.60159530
v 10.67491387 -5.76971559 -36.61582957
v 26.37207932 -5.76971518 -27.55306699
v 26.35585821 -5.87341059 -27.50897226
v 26.34296330 -5.91670912 -27.47391931
v 26.32746627 -5.95213448 -27.43179289
v 26.30993014 -5.97839966 -27.38412346
v 15.55059598 -5.76971514 -33.00336265
v 15.54043151 -5.82381157 -32.98786967
v 15.52482172 -5.87341001 -32.96407676
v 15.50433360 -5.91670881 -32.93284819
v 15.47971140 -5.95213519 -32.89531831
v 15.45184948 -5.97840229 -32.85285038
v 6.21147049 -5.98657984 -36.41805807
v 20.80575010 -5.76971514 -29.96929800
v 20.79741502 -5.82381157 -29.95274882
v 20.78461466 -5.87341001 -29.92733389
v 20.76781398 -5.91670881 -29.89397638
v 20.74762326 -5.95213519 -29.85388798
v 20.72477590 -5.97840229 -29.80852489
v 20.70010183 -5.99455599 -29.75953488
v 27.55277073 -5.76971049 -26.37237696
v 27.18053841 -5.96530235 -26.89456892
v 26.71958159 -5.84939288 -27.36303327
v 31.74272135 -5.88698023 -17.44738894
v 31.78508807 -5.80566024 -17.47266335
v 28.78300950 -5.76971045 -23.32242178
v 28.77252018 -5.80683897 -23.31780908
v 30.19925056 -5.76971045 -20.35426155
v 30.18906612 -5.80683897 -20.34900988
v 30.15749497 -5.87340004 -20.33273003
v 31.56439304 -6.12795695 -15.43107241
v 10.19670562 -5.88953165 -36.88633784
v 35.25006826 -5.99999996 0.90551039
v 29.60964325 -5.99612474 19.33364621
v 31.90387031 -5.99999996 15.01820284
v 33.60816694 -6.00414985 10.46622282
v 34.78991371 -6.00000000 5.74923643
v 29.07251326 0.10202154 22.48878726
v -31.54318129 -5.99617748 15.95337991
v -28.95878270 -5.99999996 20.12167534
v -25.86880070 -6.00414985 23.87362954
v -4.78066877 0.10718352 36.03765535
v 31.67906697 -8.02383931 -16.12172529
v 31.74594850 -8.28691433 -20.41693219
v 31.73237406 -8.18917391 -20.39848169
v 31.71261839 -8.13079004 -20.37162957
v 31.67310833 -8.06242189 -20.31792709
v 31.62368508 -8.01667828 -20.25075047
v 27.33252056 -8.28691399 -24.04467664
v 23.33337784 -8.28691399 -28.12459436
v 19.79446021 -8.28692213 -32.60957417
v 19.78812982 -8.23028431 -32.60510898
v 19.77298898 -8.17618721 -32.59442946
v 19.74973541 -8.12658837 -32.57802768
v 19.71921394 -8.08328974 -32.55649952
v 19.68253345 -8.04786442 -32.53062712
v 27.32716532 -8.23028431 -24.03883163
v 27.31802964 -8.18788678 -24.02886042
v 27.29624943 -8.12832307 -24.00508826
v 27.27019410 -8.08328974 -23.97664998
v 27.25124650 -8.05955470 -23.95596949
v 27.20555833 -8.02159945 -23.90610282
v 23.32742693 -8.23028431 -28.11935705
v 23.31727506 -8.18788678 -28.11042255
v 23.29307217 -8.12832307 -28.08912200
v 23.26411863 -8.08328974 -28.06364048
v 23.24306343 -8.05955470 -28.04511016
v 23.19229323 -8.02159945 -28.00042817
v 31.90480511 -10.10578127 -20.39888017
v 31.82508484 -8.09860962 -20.28891417
v -18.93712928 -8.03301571 -33.21795212
v -18.05614567 -6.95604710 -27.78524259
v -34.89823324 -7.00981609 -0.51201282
v -38.13935281 -8.28692213 -0.83771928
v -38.21153555 -8.01628701 -0.03670650
v -28.53571993 -12.96911200 -23.92162290
v -19.55108979 -8.00000000 32.43773307
v -23.10978764 -8.00000000 27.92739018
v -27.13145192 -8.00000000 23.82449600
v -31.56973950 -8.00000000 20.17632833
v -31.74735212 -8.28691433 20.41774128
v -31.73377768 -8.18917391 20.39929078
v -31.71402201 -8.13079004 20.37243866
v -31.67451195 -8.06242189 20.31873618
v -31.62508870 -8.01667828 20.25155956
v -27.33392418 -8.28691399 24.04548573
v -23.33478146 -8.28691399 28.12540345
v -19.79586383 -8.28692213 32.61038326
v -19.78953344 -8.23028431 32.60591807
v -19.77439260 -8.17618721 32.59523855
v -19.75113903 -8.12658837 32.57883677
v -19.72061756 -8.08328974 32.55730861
v -19.68393706 -8.04786442 32.53143621
v -19.59760491 -8.00544905 32.47054227
v -27.32856894 -8.23028431 24.03964072
v -27.31943326 -8.18788678 24.02966951
v -27.29765305 -8.12832307 24.00589735
v -27.27159772 -8.08328974 23.97745907
v -27.25265012 -8.05955470 23.95677858
v -27.20696195 -8.02159945 23.90691191
v -27.16990589 -8.00544905 23.86646681
v -23.32883055 -8.23028431 28.12016614
v -23.31867868 -8.18788678 28.11123164
v -23.29447579 -8.12832307 28.08993109
v -23.26552225 -8.08328974 28.06444957
v -23.24446705 -8.05955470 28.04591924
v -23.19369685 -8.02159945 28.00123725
v -23.15251893 -8.00544905 27.96499727
v 5.40516251 -6.86260470 34.20195053
v 1.80790533 -8.28691433 37.70247857
v 1.79871394 -8.18917391 37.68149750
v 1.78533716 -8.13079004 37.65096253
v 1.75858448 -8.06242189 37.58989458
v 7.15633815 -8.28691399 35.69421008
v 12.68922190 -8.28691399 34.27080974
v 18.34278717 -8.28692213 33.44850709
v 18.34208539 -8.23028431 33.44079221
v 18.34040708 -8.17618721 33.42234010
v 18.33782950 -8.12658837 33.39400102
v 18.33444630 -8.08328974 33.35680458
v 18.33038040 -8.04786442 33.31210214
v 18.32577950 -8.02159945 33.26151779
v 7.15395384 -8.23028431 35.68664980
v 7.14988636 -8.18788678 35.67375246
v 7.14018917 -8.12832307 35.64300416
v 7.12858857 -8.08328974 35.60622045
v 7.12015254 -8.05955470 35.57947110
v 7.09981081 -8.02159945 35.51497065
v 12.68766171 -8.23028431 34.26303745
v 12.68500014 -8.18788678 34.24977842
v 12.67865477 -8.12832307 34.21816783
v 12.67106390 -8.08328974 34.18035257
v 12.66554376 -8.05955470 34.15285307
v 12.65223312 -8.02159945 34.08654379
v 12.64143733 -8.00544905 34.03276268
v 37.86604271 -8.00000000 0.71287292
v 35.73932012 -8.00000000 6.04996711
v 34.19694167 -8.00000000 11.58427764
v 33.25667958 -8.00000000 17.25203126
v 33.55455564 -8.28691433 17.28514183
v 33.53178981 -8.18917391 17.28261127
v 33.49865736 -8.13079004 17.27892841
v 33.43239462 -8.06242189 17.27156295
v 33.34950633 -8.01667828 17.26234946
v 34.48956052 -8.28691399 11.64912889
v 36.02330155 -8.28691399 6.14581084
v 38.13794919 -8.28692213 0.83852837
v 38.13091702 -8.23028431 0.83527868
v 38.11409787 -8.17618722 0.82750609
v 38.08826672 -8.12658837 0.81556880
v 38.05436205 -8.08328974 0.79990051
v 38.01361565 -8.04786442 0.78107047
v 37.96750788 -8.02159945 0.75976279
v 34.48182097 -8.23028431 11.64741362
v 34.46861781 -8.18788678 11.64448749
v 34.43714041 -8.12832307 11.63751136
v 34.39948447 -8.08328974 11.62916592
v 34.37210084 -8.05955470 11.62309706
v 34.30607096 -8.02159945 11.60846329
v 34.25251645 -8.00544905 11.59659435
v 36.01579045 -8.23028431 6.14327586
v 36.00297701 -8.18788678 6.13895133
v 35.97242875 -8.12832307 6.12864129
v 35.93588433 -8.08328974 6.11630754
v 35.90930900 -8.05955470 6.10733837
v 35.84522817 -8.02159945 6.08571108
v 35.79325446 -8.00544905 6.06816996
v 34.96124992 -6.21919803 0.89809463
v 34.98109509 -6.16731343 0.89860418
v 35.01016336 -6.11997866 0.89935054
v 35.04745797 -6.07881682 0.90030813
v 35.13736918 -6.00930877 0.29892522
v 33.33323689 -6.08815205 -1.83272708
v 34.61626941 -6.27385328 4.91097537
v 33.82198728 -6.27385328 8.85896569
v 29.17431367 -5.96327955 19.66599178
v 29.36317823 -6.07881682 19.15623602
v 28.57696999 -7.65490018 19.86471469
v 30.98881050 -6.07881682 16.39654607
v 30.95583468 -6.11997866 16.37909900
v 31.80103450 -6.01677884 14.98187714
v 31.72049315 -6.07881682 14.93188541
v 31.68673875 -6.11997866 14.91599687
v 31.66042980 -6.16731343 14.90361299
v 33.02080143 -7.71845749 11.46845857
v 32.66862284 -6.07881682 12.72434094
v 32.63385954 -6.11997866 12.71080145
v 32.60676423 -6.16731343 12.70024846
v 32.58826601 -6.21919803 12.69304384
v 33.47387726 -6.07881682 10.42325858
v 33.43825709 -6.11997866 10.41216766
v 33.41049392 -6.16731343 10.40352314
v 33.39153975 -6.21919803 10.39762146
v 33.91503025 -6.07881682 8.88333474
v 33.87894065 -6.11997866 8.87388245
v 33.85081160 -6.16731343 8.86651512
v 33.83160764 -6.21919803 8.86148538
v 34.65654180 -6.02739420 5.68888311
v 34.55314061 -6.11997866 5.71011185
v 34.52445179 -6.16731343 5.70537128
v 34.50486568 -6.21919803 5.70213485
v 34.71149739 -6.07881682 4.92448388
v 34.67456027 -6.11997866 4.91924419
v 34.64577064 -6.16731343 4.91516025
v 34.62611570 -6.21919803 4.91237211
v 31.60478843 -6.91350763 -1.27747479
v 18.05221169 -6.93375075 27.66777539
v -2.09671230 -6.31971434 35.11793652
v -0.31310330 -0.29476424 8.84651402
v -31.59071344 -6.03218935 15.25206197
v -29.69493305 -6.07881682 18.64003869
v -28.87590580 -6.01677884 20.05077977
v -28.79234103 -6.07881682 20.00602478
v -29.32503918 -6.13391836 19.15326015
v -27.72549193 -6.31957328 21.27308234
v -27.35461629 -6.07881682 21.93090142
v -27.32550909 -6.11997866 21.90756526
v -27.30282228 -6.16731343 21.88937653
v -27.28733379 -6.21919803 21.87695892
v -25.76444772 -6.07881682 23.77881338
v -25.73703262 -6.11997866 23.75351087
v -25.71566466 -6.16731343 23.73378952
v -25.70107656 -6.21919803 23.72032557
v -24.65141105 -6.07881682 24.93082500
v -24.62518033 -6.11997866 24.90429663
v -24.60473550 -6.16731343 24.88361982
v -24.59077764 -6.21919803 24.86950358
v -23.91351910 -6.30861083 25.47897081
v -15.56057673 0.12972520 16.60131144
v -8.07799276 0.10181437 -3.94538725
v -21.85357334 -0.62807356 -5.77832393
v 8.03556093 0.11043017 3.57269106
v 0.31169973 -0.29476424 -8.84570457
v -0.28941080 0.25933661 -9.11615984
v 15.97580919 0.28856897 -17.54515508
v 34.87842292 -6.15946354 0.04204397
v -0.35078842 -0.29570856 8.75702390
v -0.41745407 -0.29600566 8.68197030
v -0.49619594 -0.29567336 8.63472764
v -7.40911314 -0.29570856 -4.68108904
v -7.31078206 -0.29600565 -4.70129642
v -7.23049785 -0.29567335 -4.74586754
v -7.21586850 -0.18338679 -4.75029604
v 21.77991612 -0.29107149 5.45739556
v 7.30937845 -0.29600565 4.70210551
v 7.22909423 -0.29567335 4.74667663
v 0.34938494 -0.29570855 -8.75621458
v 0.41605058 -0.29600564 -8.68116110
v 0.49479240 -0.29567334 -8.63391852
v 0.50550772 -0.19868313 -8.62408538
v 16.27448469 -14.66172808 -17.88247815
v -31.59881056 -7.17528945 1.34219820
v 35.25006830 -8.00000000 0.90551040
v 34.78991390 -8.00000000 5.74923646
v 34.98109511 -7.83268661 0.89860419
v 35.01016338 -7.88002138 0.89935055
v 35.04745800 -7.92118321 0.90030813
v 35.09170013 -7.95476066 0.90144410
v 34.55067306 -7.84856480 5.58991632
v 34.71439463 -7.98775218 5.65942459
v 34.66613291 -7.86807347 4.91804876
v 34.68952979 -7.89858178 4.92136771
v 34.71149944 -7.92118288 4.92448421
v 34.74012299 -7.94455118 4.92854458
v 34.79911144 -7.97742146 4.93691236
v 35.15376107 -7.99353388 0.29354090
v 33.39551404 -8.06915795 17.54846501
v -18.40993152 -8.00000000 30.07591403
v -22.37464414 -8.00000000 27.25554561
v -25.91338562 -8.00000001 23.91627428
v -28.95878284 -8.00000004 20.12167549
v -17.55646060 -7.86738668 30.18360387
v -18.30412108 -7.92118321 29.90304950
v -18.32722593 -7.95476066 29.94079632
v -31.58756039 -7.63581448 14.73395658
v -25.98871462 -7.85911799 23.54533058
v -27.42365799 -7.97742146 21.98625422
v -25.76444923 -7.92118288 23.77881481
v -25.78569392 -7.94455118 23.79842240
v -25.81483003 -7.98800540 23.89062291
v -24.65141255 -7.92118288 24.93082644
v -24.67173944 -7.94455118 24.95138397
v -24.71362982 -7.97742146 24.99374968
v -22.24604709 -7.92118288 27.09889323
v -22.26439052 -7.94455118 27.12123855
v -22.30219332 -7.97742146 27.16728857
v -22.33954755 -7.99486190 27.21279216
v -21.62118051 -7.92118288 27.60001281
v -21.63900868 -7.94455118 27.62277135
v -21.67574960 -7.97742146 27.66967296
v -15.28838946 -7.82493527 29.87967816
v -17.83179679 -7.99353388 30.29849428
v -31.90467551 -8.08250840 20.13162087
v 0.86409431 -8.26280211 37.47800836
v -2.44052391 -6.39488879 9.03401192
v -0.56963527 -5.95616491 8.73085713
v -0.48611902 -5.95645699 8.78493048
v -0.42785746 -5.95613014 8.85487850
v -6.81076338 -0.67979530 3.43644594
v 5.70170027 1.07762060 6.41890830
v -7.27702880 -5.95616491 -4.85753258
v -7.36561583 -5.95645700 -4.81224206
v -7.38065274 -6.17025965 -4.85335053
v 6.57525561 -6.35630063 6.55243530
v 7.36032670 -6.16246570 4.86385049
v 7.27562518 -5.95616491 4.85834167
v 0.56823165 -5.95616491 -8.73004804
v 0.48471540 -5.95645699 -8.78412140
v 0.42645384 -5.95613014 -8.85406941
v 2.43667899 -6.42464572 -9.02798734
v -6.46010538 0.15206332 -22.05026326
v 0.54761175 -6.15899402 -8.79561517
v 0.53618549 -6.17634475 -8.93041954
v 7.57984229 -1.29867669 -2.43658801
v 21.40099283 -13.28120367 5.27514055
v -0.50548223 -6.14497876 8.96996502
v -0.53257089 -6.16174804 8.80605844
v -6.40311223 -6.15401891 -6.13731681
v 0.55252977 -7.83246461 -8.79035126
v -0.18772026 -7.82064357 -11.31224776
v -21.76270429 -13.52407804 -5.30451800
v -14.95564766 -14.21944823 16.88834765
v 6.56334389 -13.72481738 21.62948535
v -0.55068602 -7.83296560 8.79448518
v -0.43220586 -7.95557854 8.85918546
v 0.23367307 -7.82211649 11.45720406
v -2.46397093 -7.58547092 9.00992463
v -0.49012783 -8.04350053 8.77874881
v -0.49457719 -7.98590496 8.78392149
v 2.45207989 -7.55602126 -8.98884910
v 0.48872421 -8.04350053 -8.77793972
v 0.49317353 -7.98590496 -8.78311243
v 0.43080068 -7.95557510 -8.85837950
v 10.57669553 -5.02950198 -5.84082545
v -6.17553690 -13.41592796 -20.35208631
v -2.97355981 -13.98513235 6.70441958
v -3.32617559 -13.99512421 3.33472279
v 3.32477198 -13.99512421 -3.33391370
v 0.48968214 -13.70429190 -8.63616656
v 0.40521963 -13.70399401 -8.69042258
v -0.49108576 -13.70429190 8.63697564
v -0.40662324 -13.70399401 8.69123167
v -0.51275008 -13.78710009 8.62372252
v 17.32266065 -7.99353271 30.59164523
v 19.63110942 -8.28626095 -32.81056547
v 19.44289513 -8.28582692 -32.98842516
v 19.23337747 -8.28562799 -33.14089370
v 19.00626421 -8.28566442 -33.26581559
v 18.76526312 -8.28593648 -33.36103532
v 18.55649508 -8.28634339 -33.41614087
v 18.34280339 -8.28691430 -33.44787710
v 18.34208539 -8.23028464 -33.43998315
v 18.34040711 -8.17618789 -33.42153128
v 18.33444640 -8.08329081 -33.35599659
v 18.33038055 -8.04786547 -33.31129468
v 19.27205071 -8.03172702 -33.01761506
v 18.83199268 -8.13940485 -33.30978101
v 18.58952513 -18.85993261 -33.88919365
v 18.50799486 -19.89035688 -35.03574698
v 18.85144884 -18.88509897 -33.84995442
v 19.10282445 -18.90137748 -33.77742641
v 19.34082352 -18.90877592 -33.67305307
v 19.56263303 -18.90729401 -33.53845620
v 19.76543999 -18.89693146 -33.37525756
v 19.91790051 -18.88151198 -33.21858017
v -19.08486837 -8.28562799 -33.22744586
v -19.30661052 -8.28566442 -33.09322094
v -19.50957378 -8.28593648 -32.93211774
v -19.66168060 -8.28634339 -32.77887209
v -19.79601082 -8.28691430 -32.60967777
v -19.78953347 -8.23028464 -32.60510900
v -19.77439282 -8.17618789 -32.59442962
v -19.72061846 -8.08329081 -32.55650016
v -19.68393840 -8.04786547 -32.53062806
v -19.43272900 -8.13970390 -32.96323249
v -20.05484125 -18.85993261 -33.04400331
v -19.88989737 -18.88509896 -33.25121630
v -19.70139867 -18.90137747 -33.43264995
v -19.49200942 -18.90877591 -33.58657650
v -19.26454051 -18.90729400 -33.71137072
v 38.83380220 -18.90928020 0.00040456
v 38.81670017 -18.90484188 0.25821115
v 38.76549624 -18.89151199 0.51444036
v 38.71230367 -18.87769118 0.68211059
v 38.72776885 -19.04595048 0.71955443
v 38.23033736 -8.28626095 0.59656679
v 38.29026123 -8.28582692 0.34463858
v 38.31754403 -8.28562799 0.08695669
v 38.31217292 -8.28566442 -0.17219010
v 38.27413508 -8.28593648 -0.42851304
v 38.21747387 -8.28634339 -0.63686423
v 38.13811240 -8.28691430 -0.83779478
v 38.13091705 -8.23028464 -0.83446961
v 38.11409812 -8.17618789 -0.82669712
v 38.05436306 -8.08329081 -0.79909189
v 38.01361714 -8.04786547 -0.78026207
v 38.23222910 -8.02673252 0.19937811
v 38.09602591 -8.01125767 0.35433609
v 38.26311233 -8.13940485 -0.34509637
v 38.64366465 -18.85993286 -0.84478560
v 38.74056020 -18.88509927 -0.59783653
v 38.80328951 -18.90138378 -0.34320994
v 38.99075693 -19.24323636 -0.17348069
v -38.76690033 -18.89151203 -0.51536546
v -38.71370750 -18.87769120 -0.68187944
v -38.72881939 -19.04600558 -0.71981428
v -38.23349469 -8.28624829 -0.59305732
v -38.31680699 -8.28564114 0.17176071
v -38.27804408 -8.28591843 0.42670833
v -38.22033002 -8.28633293 0.63534835
v -38.13951603 -8.28691430 0.83860387
v -38.01502078 -8.04786550 0.78107117
v -38.05576671 -8.08329084 0.79990099
v -38.08967097 -8.12658934 0.81556909
v -38.11550179 -8.17618795 0.82750623
v -38.13232072 -8.23028471 0.83527872
v -38.64506827 -18.85993286 0.84559469
v -38.74196382 -18.88509927 0.59864562
v -38.80469313 -18.90138378 0.34401902
v -19.63251304 -8.28626095 32.81137455
v -19.44429875 -8.28582692 32.98923425
v -19.23478109 -8.28562799 33.14170279
v -19.00766783 -8.28566442 33.26662468
v -18.76666673 -8.28593648 33.36184441
v -18.55789870 -8.28634339 33.41694996
v -18.34420701 -8.28691430 33.44868618
v -18.34348901 -8.23028464 33.44079224
v -18.34181073 -8.17618789 33.42234037
v -18.33585002 -8.08329081 33.35680568
v -18.33178416 -8.04786547 33.31210376
v -19.27310395 -8.02963119 33.01618291
v -18.83339629 -8.13940485 33.31059009
v -18.59092875 -18.85993261 33.89000274
v -19.10984608 -19.26049031 33.96358428
v -18.85285246 -18.88509897 33.85076350
v -19.10422807 -18.90137748 33.77823549
v -19.34222714 -18.90877592 33.67386216
v -19.56403665 -18.90729401 33.53926529
v -19.76684361 -18.89693146 33.37606665
v -19.91930412 -18.88151198 33.21938926
v 18.59852613 -8.28626095 33.40753680
v 18.84666429 -8.28582692 33.33346829
v 19.08346475 -8.28562799 33.22825494
v 19.30520691 -8.28566442 33.09403003
v 19.50817016 -8.28593648 32.93292683
v 19.66027698 -8.28634339 32.77968118
v 19.79460720 -8.28691430 32.61048686
v 19.78812985 -8.23028464 32.60591809
v 19.77298920 -8.17618789 32.59523871
v 19.71921484 -8.08329081 32.55730925
v 18.93623579 -8.02283969 33.21045024
v 18.74114570 -8.01125981 33.17010977
v 19.43041784 -8.13940485 32.96508917
v 20.05343763 -18.85993261 33.04481239
v 19.82190607 -19.26346020 33.56496929
v 19.88849375 -18.88509896 33.25202539
v 19.69999505 -18.90137747 33.43345904
v 19.49060580 -18.90877591 33.58738559
v 19.26313689 -18.90729400 33.71217981
v 19.02039923 -18.89693146 33.80621647
v 18.80848215 -18.88151198 33.85991247
v -33.04466556 -14.04883076 19.61313009
v 15.32423183 -7.10185561 -29.80265748
v -7.95452569 -8.02748048 35.07499614
v -6.26250793 -6.07677174 36.47262343
v 34.65220208 -8.04939446 -10.33654448
v 34.72131849 -8.11301852 -10.35366028
v 34.76920490 -8.19433874 -10.36551859
v 36.82107896 -8.28691418 -3.94244149
v 36.81368677 -8.23028464 -3.93957844
v 36.80300329 -8.19315966 -3.93544067
v 36.76987431 -8.12658930 -3.92260961
v 36.73504579 -8.08329081 -3.90912030
v 36.69318908 -8.04786548 -3.89290893
v 36.76413412 -8.01734996 -3.61347370
v 35.69576500 -8.23028464 -7.12187641
v 35.68484090 -8.19315966 -7.11842358
v 35.65096578 -8.12658930 -7.10771651
v 35.61535283 -8.08329081 -7.09646016
v 35.57255340 -8.04786548 -7.08293234
v 35.52412243 -8.02160033 -7.06762453
v 33.89003709 -7.97100338 -8.71224820
v 37.93826590 -19.05541565 -1.64190784
v 34.36066009 -8.02902244 -10.66072148
v 8.37368968 -8.04939446 -35.17836505
v 8.39342517 -8.11301852 -35.24677952
v 8.40709878 -8.19433874 -35.29417953
v 14.99558375 -8.28691418 -33.85961603
v 14.99436712 -8.23028464 -33.85178268
v 14.99260881 -8.19315966 -33.84046163
v 14.98715634 -8.12658930 -33.80535557
v 14.98142416 -8.08329081 -33.76844852
v 14.97453526 -8.04786548 -33.72409386
v 11.67945535 -8.23028464 -34.47478301
v 11.67698354 -8.19315966 -34.46359606
v 11.66931858 -8.12658930 -34.42890580
v 11.66126039 -8.08329081 -34.39243591
v 11.65157611 -8.04786548 -34.34860661
v 11.64061757 -8.02160033 -34.29901025
v 7.97510677 -8.02131943 -35.08245837
v -26.40274898 -8.02516887 -24.43851074
v -26.27921421 -8.04939446 -24.84141603
v -26.32859513 -8.11301852 -24.89271469
v -26.36280794 -8.19433874 -24.92825639
v -21.82619702 -8.28691418 -29.91677000
v -21.82002145 -8.23028464 -29.91179970
v -21.81109630 -8.19315966 -29.90461642
v -21.78341978 -8.12658930 -29.88234142
v -21.75432344 -8.08329081 -29.85892368
v -21.71935563 -8.04786548 -29.83078039
v -24.01701145 -8.23028464 -27.35250206
v -24.00855917 -8.19315966 -27.34476793
v -23.98234901 -8.12658930 -27.32078475
v -23.95479425 -8.08329081 -27.29557121
v -23.92167910 -8.04786548 -27.26526972
v -23.88420666 -8.02160033 -27.23098117
v -20.51177399 -19.34883771 -32.91137830
v 4.92712779 -14.83173121 -5.94635639
v -34.59558138 -8.01863501 10.32298452
v -34.65360570 -8.04939446 10.33735357
v -34.72272211 -8.11301852 10.35446937
v -34.77060852 -8.19433874 10.36632768
v -36.82248258 -8.28691418 3.94325057
v -36.81509040 -8.23028471 3.94038754
v -36.80440691 -8.19315966 3.93624975
v -36.77127796 -8.12658934 3.92341870
v -36.73644943 -8.08329084 3.90992940
v -36.69459272 -8.04786550 3.89371803
v -36.64722849 -8.02160033 3.87537357
v -35.69716863 -8.23028471 7.12268551
v -35.68624452 -8.19315966 7.11923267
v -35.65236943 -8.12658934 7.10852561
v -35.61675648 -8.08329084 7.09726926
v -35.57395705 -8.04786550 7.08374144
v -35.52552606 -8.02160033 7.06843363
v -35.47322305 -8.00544958 7.05190197
v -36.49315950 -18.69351610 6.19677728
v -34.21325708 -13.82001528 12.74012302
v -34.35527379 -8.02675967 10.65006120
v -8.37509330 -8.04939446 35.17917414
v -8.39482879 -8.11301852 35.24758860
v -8.40850240 -8.19433874 35.29498861
v -14.99698737 -8.28691418 33.86042512
v -14.99577074 -8.23028464 33.85259177
v -14.99401242 -8.19315966 33.84127072
v -14.98855996 -8.12658930 33.80616465
v -14.98282778 -8.08329081 33.76925761
v -14.97593887 -8.04786548 33.72490295
v -11.68085897 -8.23028464 34.47559210
v -11.67838716 -8.19315966 34.46440515
v -11.67072220 -8.12658930 34.42971489
v -11.66266401 -8.08329081 34.39324500
v -11.65297973 -8.04786548 34.34941570
v -11.64202119 -8.02160033 34.29981934
v 7.15889064 -0.19426526 21.61189179
v 26.27781059 -8.04939446 24.84222511
v 26.32719151 -8.11301852 24.89352378
v 26.36140432 -8.19433874 24.92906548
v 28.09419611 -13.90670094 23.48231414
v 21.82479340 -8.28691418 29.91757909
v 21.81861784 -8.23028464 29.91260878
v 21.80969268 -8.19315966 29.90542551
v 21.78201617 -8.12658930 29.88315050
v 21.75291982 -8.08329081 29.85973277
v 24.01560784 -8.23028464 27.35331114
v 24.00715555 -8.19315966 27.34557702
v 23.98094539 -8.12658930 27.32159384
v 23.95339063 -8.08329081 27.29638029
v 23.92027549 -8.04786548 27.26607881
v 26.43136113 -8.05161928 24.50657317
v 25.45497449 -18.73147888 26.42958362
v 2.87429819 -0.30000000 -3.17459546
v -2.87570181 -0.30000000 -3.17459546
v 2.87429819 -13.70000000 -3.17459546
v -2.87570181 -13.70000000 -3.17459546
v 3.33032865 -0.31770483 2.59429890
v -2.87570181 -0.30000000 3.17540454
v 2.87429819 -0.30000000 3.17540454
v -2.87570181 -13.70000000 3.17540454
v 2.87429819 -13.70000000 3.17540454
v -2.93422891 -0.30000000 -3.16883104
v -2.99050684 -0.30000000 -3.15175932
v -3.04237288 -0.30000000 -3.12403634
v -3.51022925 -0.32001818 -2.28193285
v -3.31914939 -13.93436130 -3.19031243
v -3.04237288 -13.70000000 -3.12403634
v -2.99050684 -13.70000000 -3.15175932
v -2.93422891 -13.70000000 -3.16883104
v -3.15286567 -0.30000000 2.99020957
v -3.12514269 -0.30000000 3.04207561
v -3.08783384 -0.30000000 3.08753658
v -3.04237288 -0.30000000 3.12484543
v -2.99050684 -0.30000000 3.15256840
v -2.93422891 -0.30000000 3.16964013
v -2.93422891 -13.70000000 3.16964013
v -2.99050684 -13.70000000 3.15256840
v -3.04237288 -13.70000000 3.12484543
v -3.08783384 -13.70000000 3.08753658
v -3.12514269 -13.70000000 3.04207561
v -3.15286567 -13.70000000 2.99020957
v -3.16993739 -13.70000000 2.93393164
v 2.93282529 -0.30000000 3.16964013
v 3.01083612 -0.30021595 3.14354450
v 3.04096926 -0.30000000 3.12484543
v 3.08643023 -0.30000000 3.08753658
v 3.08643023 -13.70000000 3.08753658
v 3.04096926 -13.70000000 3.12484543
v 2.98910322 -13.70000000 3.15256840
v 3.16853377 -0.30000000 -2.93312255
v 3.15146205 -0.30000000 -2.98940049
v 3.12373907 -0.30000000 -3.04126653
v 3.08643023 -0.30000000 -3.08672749
v 3.04096926 -0.30000000 -3.12403634
v 2.98910322 -0.30000000 -3.15175932
v 2.93282529 -0.30000000 -3.16883104
v 2.93282529 -13.70000000 -3.16883104
v 2.98910322 -13.70000000 -3.15175932
v 3.04096926 -13.70000000 -3.12403634
v 3.08643023 -13.70000000 -3.08672749
v 3.12373907 -13.70000000 -3.04126653
v 3.15146205 -13.70000000 -2.98940049
v 3.52923923 -13.65570382 1.93221218
v 3.32593825 -0.00505710 -3.33461458
v -3.32890001 -0.00497366 3.33298008
v 3.33444872 -0.00509094 3.33015322
v 3.33825592 -13.99519316 3.31809622
v 2.94364020 -13.69953121 3.16752180
v 2.79120339 -5.95523676 -6.56677916
v 0.76512640 -0.29476462 -6.18053103
v 4.97788361 -6.20601600 3.93018069
v 5.69251293 -0.29476400 4.05625636
v 4.96923128 -0.29476462 3.75409906
v -2.62764375 -7.82786794 6.78546051
v -2.15868110 -7.30711643 5.79292703
v -6.34738652 -14.95730779 4.58745364
v 5.76145459 -7.88501138 -2.13580208
v 5.63196982 -13.70523566 -2.08161286
v 1.00831279 -5.95617476 -6.03733078
v 0.93079283 -5.95646902 -6.10033865
v 0.88030398 -5.95613767 -6.17651634
v 0.93015676 -6.18749487 -6.20111841
v 0.72354742 -0.29789666 -7.16927563
v 0.67336917 -0.29687580 -7.06914792
v 0.57601706 -0.13031700 -6.37183378
v 0.79290970 -0.29380169 -6.08690809
v 0.85161181 -0.29349866 -6.00469077
v 0.92549504 -0.29383569 -5.94917496
v 1.11887250 -6.09882424 -6.04743090
v 0.78130432 -5.95668822 -6.91230755
v 0.80016077 -5.95775249 -6.98200757
v 2.56777931 1.76849905 -8.04623673
v 0.92208811 -6.19803282 -7.07473218
v 3.00148417 -0.11068996 -5.37213332
v 2.80939978 -6.18227171 -5.59382923
v 2.79036249 -5.99699481 -6.56303922
v 2.52169764 -6.18561910 -6.84415072
v 2.66996308 -5.95576239 -6.74964518
v 2.72531955 -5.95594310 -6.69881642
v 2.76688340 -5.95576333 -6.63615704
v 3.07359900 0.02508422 -6.66146708
v 2.88354137 -0.24783177 -6.63273155
v 2.85233885 -0.29528058 -6.70887991
v 2.81137316 -0.29545854 -6.77100666
v 2.75677823 -0.29528280 -6.82163800
v -2.05808622 -4.22352218 6.02334221
v 5.59487939 -5.95668822 4.13399779
v 5.64581315 -5.95775249 4.18517797
v 5.71244800 -5.95840777 4.35254743
v 5.70509784 -5.95737741 4.46506650
v 5.87144521 -0.29725447 4.38960302
v 5.84629872 -0.29789666 4.21246290
v 5.78467471 -0.29687580 4.11894340
v 5.66519717 -6.19583919 4.35776421
v 4.72362304 -5.95617476 3.89310451
v 4.81694943 -5.95646902 3.85747419
v 4.90816567 -5.95613767 3.85183841
v 4.75550911 -6.10064302 5.52344249
v 4.74593706 -0.02858966 3.55765623
v 4.87425979 -0.29380169 3.73134862
v 4.77370645 -0.29349866 3.74107748
v 4.73252779 -6.09707976 3.93762091
v 4.50812981 -5.95575908 5.68958999
v 4.43666092 -5.95593863 5.71210670
v 4.38885141 -6.20166363 5.63852629
v 4.73946946 -0.14538121 3.69851046
v 4.30447091 -0.00630436 5.92782273
v 4.45624285 -0.29545433 5.82262362
v 4.52717336 -0.29527967 5.80066519
v 3.43795610 -6.18013956 5.25717994
v -2.75810909 -13.70471868 6.82235793
v -2.81273420 -13.70454111 6.77180174
v -2.76808429 -8.04423768 6.63699636
v -2.72660729 -8.04405666 6.69968111
v -2.67127007 -8.04423627 6.75060613
v -4.03495397 -7.27639552 -4.93093079
v 4.23235548 -7.26778966 4.88747480
v 6.70513664 -7.71365744 -2.71619586
v 6.34926758 -7.68656821 -0.41856753
v 5.74437265 -8.04353120 -2.22985451
v 5.73285607 -8.04386366 -2.13919495
v 5.61464511 -13.70619846 -2.17772210
v 5.51064896 -13.94629210 -2.33729262
v 7.18833621 1.07607412 3.47047163
v -31.23760234 2.20032197 -33.83236320
v -13.82681693 3.14874592 -44.40355228
v 35.11556860 1.44498307 -32.09428131
f 3 4 5
f 3 5 4
f 8 10 9
f 9 10 8
f 12 13 11
f 11 13 12
f 15 16 17
f 15 17 18
f 16 15 18
f 14 17 16
f 14 18 17
f 18 14 16
f 361 20 19
f 19 20 361
f 30 3 31
f 30 31 3
f 62 36 32
f 62 32 36
f 36 35 37
f 36 37 35
f 40 39 107
f 40 107 39
f 40 35 42
f 35 40 42
f 44 27 43
f 44 43 27
f 21 49 48
f 21 48 51
f 49 21 51
f 50 49 51
f 48 50 51
f 52 48 49
f 50 48 52
f 50 52 49
f 55 54 53
f 53 54 55
f 57 1054 77
f 105 2 1095
f 58 103 3
f 61 30 28
f 61 58 30
f 59 44 46
f 59 24 44
f 60 45 19
f 60 59 45
f 101 361 12
f 106 13 55
f 107 106 53
f 7 107 1094
f 61 43 26
f 108 103 62
f 105 108 36
f 1 105 35
f 7 1 40
f 106 23 8
f 13 9 15
f 101 13 15
f 60 101 104
f 63 5 111
f 66 68 45
f 68 66 65
f 66 27 64
f 66 64 71
f 67 152 5
f 67 159 144
f 1094 153 159
f 854 66 431
f 431 66 71
f 597 431 71
f 70 71 69
f 689 57 77
f 689 1075 57
f 689 1092 73
f 1040 1049 703
f 1040 1045 74
f 1040 74 1049
f 77 1054 688
f 689 1066 72
f 689 72 1075
f 1040 639 623
f 699 639 1040
f 79 639 699
f 907 1040 703
f 621 1092 689
f 689 80 621
f 688 81 77
f 706 76 684
f 56 632 619
f 623 56 1040
f 75 632 707
f 707 632 56
f 76 81 684
f 693 80 689
f 693 78 80
f 81 688 684
f 844 29 228
f 960 29 844
f 58 29 960
f 83 58 960
f 62 83 229
f 792 62 229
f 15 8 87
f 226 15 87
f 104 15 226
f 823 21 227
f 86 21 823
f 85 21 86
f 716 99 732
f 91 716 732
f 91 713 716
f 93 92 719
f 93 719 907
f 99 95 94
f 96 1022 95
f 725 96 95
f 99 725 95
f 99 1024 725
f 90 97 1024
f 90 98 1084
f 688 100 56
f 1033 56 100
f 1012 1033 100
f 1012 1042 1033
f 1013 100 688
f 1012 1049 1042
f 1054 1013 688
f 703 1049 1012
f 1014 1013 1054
f 1014 703 1012
f 57 1014 1054
f 57 1067 1014
f 1067 703 1014
f 1092 703 1067
f 103 63 3
f 101 12 361
f 68 60 19
f 66 59 46
f 24 66 44
f 27 43 64
f 102 61 28
f 63 58 3
f 63 103 5
f 108 5 103
f 58 33 83
f 61 26 29
f 43 228 26
f 43 25 85
f 43 24 25
f 59 227 21
f 52 60 104
f 226 52 104
f 60 52 226
f 110 104 14
f 101 14 104
f 101 110 14
f 141 55 13
f 141 101 361
f 141 13 101
f 68 101 60
f 361 101 68
f 60 47 101
f 101 47 60
f 45 68 19
f 45 59 66
f 66 46 44
f 66 43 27
f 66 24 43
f 64 61 102
f 64 43 61
f 30 102 28
f 30 58 63
f 67 105 1095
f 2 105 67
f 159 6 1
f 1093 107 53
f 53 106 1093
f 141 106 55
f 13 15 9
f 106 8 23
f 107 22 906
f 7 40 82
f 1 82 40
f 1 35 748
f 105 36 84
f 108 84 36
f 108 62 872
f 83 103 58
f 62 103 83
f 58 109 103
f 109 58 103
f 58 83 33
f 29 58 61
f 26 228 29
f 228 43 85
f 25 24 85
f 21 24 59
f 85 24 21
f 226 59 60
f 227 59 226
f 15 110 101
f 104 110 15
f 113 112 63
f 63 111 118
f 63 116 115
f 63 117 116
f 63 118 117
f 63 114 113
f 63 115 114
f 120 119 102
f 102 121 120
f 102 30 121
f 122 69 64
f 64 123 122
f 64 124 123
f 64 125 124
f 64 126 125
f 64 127 126
f 71 64 69
f 129 128 66
f 66 130 129
f 66 131 130
f 68 132 133
f 65 66 128
f 68 65 132
f 135 134 68
f 68 136 135
f 68 137 136
f 68 138 137
f 68 139 138
f 133 140 139
f 133 139 68
f 144 143 67
f 144 159 142
f 146 145 67
f 67 147 146
f 67 148 147
f 67 149 148
f 67 150 149
f 143 151 150
f 143 150 67
f 67 145 152
f 67 108 105
f 5 108 67
f 67 1 159
f 67 105 1
f 159 7 1094
f 159 1 7
f 1094 107 1093
f 1093 106 141
f 154 142 159
f 159 155 154
f 159 156 155
f 159 157 156
f 159 158 157
f 153 158 159
f 105 34 108
f 105 108 34
f 1095 2 67
f 1 41 105
f 105 41 1
f 6 159 1
f 7 38 1
f 1 38 7
f 8 13 106
f 15 13 8
f 106 160 13
f 160 106 13
f 906 106 107
f 8 106 906
f 107 223 106
f 223 107 106
f 39 906 22
f 39 22 107
f 39 7 82
f 39 107 7
f 82 1 748
f 224 748 35
f 84 35 105
f 224 35 84
f 84 108 872
f 164 161 111
f 163 111 5
f 163 164 111
f 162 163 5
f 161 118 111
f 166 117 118
f 166 118 161
f 167 116 117
f 167 117 166
f 168 115 116
f 168 116 167
f 267 115 168
f 169 114 115
f 169 115 267
f 170 113 114
f 170 114 169
f 171 112 113
f 171 113 170
f 165 112 171
f 172 427 30
f 310 30 427
f 63 172 30
f 172 63 112
f 165 172 112
f 175 121 30
f 175 30 310
f 176 120 121
f 176 121 175
f 177 119 120
f 177 120 176
f 174 119 177
f 180 178 64
f 179 64 102
f 179 180 64
f 174 102 119
f 174 179 102
f 178 127 64
f 181 126 127
f 181 127 178
f 182 125 126
f 182 126 181
f 183 124 125
f 183 125 182
f 184 123 124
f 184 124 183
f 185 122 123
f 185 123 184
f 186 69 122
f 186 122 185
f 70 69 186
f 188 131 66
f 188 66 854
f 189 130 131
f 189 131 188
f 190 129 130
f 190 130 189
f 191 128 129
f 191 129 190
f 187 128 191
f 192 133 132
f 194 132 65
f 194 192 132
f 193 194 65
f 187 65 128
f 187 193 65
f 192 140 133
f 196 139 140
f 196 140 192
f 197 138 139
f 197 139 196
f 198 137 138
f 198 138 197
f 199 136 137
f 199 137 198
f 200 135 136
f 200 136 199
f 201 134 135
f 201 135 200
f 195 134 201
f 68 202 361
f 202 68 134
f 195 202 134
f 462 465 141
f 462 141 361
f 204 143 144
f 207 204 144
f 206 207 144
f 205 144 142
f 205 206 144
f 204 151 143
f 209 150 151
f 209 151 204
f 210 149 150
f 210 150 209
f 211 148 149
f 211 149 210
f 212 147 148
f 212 148 211
f 213 146 147
f 213 147 212
f 214 145 146
f 214 146 213
f 208 145 214
f 215 5 152
f 217 5 215
f 215 152 145
f 208 215 145
f 162 5 217
f 461 1093 141
f 461 82 1094
f 461 1094 1093
f 82 153 1094
f 385 158 153
f 385 153 402
f 218 157 158
f 218 158 385
f 219 156 157
f 219 157 218
f 421 156 219
f 220 155 156
f 220 156 421
f 221 154 155
f 221 155 220
f 222 142 154
f 222 154 221
f 205 142 222
f 87 225 795
f 87 8 225
f 229 774 792
f 244 230 217
f 237 161 164
f 245 162 236
f 245 163 162
f 246 236 235
f 246 245 236
f 247 235 234
f 247 246 235
f 248 234 233
f 248 247 234
f 249 233 232
f 249 248 233
f 250 232 231
f 250 249 232
f 251 231 230
f 251 244 243
f 251 230 244
f 251 250 231
f 252 164 163
f 252 163 245
f 252 237 164
f 253 238 237
f 253 237 252
f 253 252 245
f 253 245 246
f 254 239 238
f 254 253 246
f 254 246 247
f 254 238 253
f 255 268 239
f 255 240 268
f 255 247 248
f 255 239 254
f 255 254 247
f 256 255 248
f 256 248 249
f 256 240 255
f 257 241 240
f 257 249 250
f 257 240 256
f 257 256 249
f 258 267 241
f 258 242 267
f 258 243 242
f 258 251 243
f 258 250 251
f 258 241 257
f 258 257 250
f 171 259 165
f 161 237 166
f 267 265 264
f 267 264 263
f 267 263 262
f 266 262 261
f 266 267 262
f 266 171 170
f 266 260 259
f 266 259 171
f 266 170 169
f 267 266 169
f 269 267 168
f 268 267 269
f 267 240 241
f 268 240 267
f 269 168 167
f 269 238 239
f 269 239 268
f 269 237 238
f 269 167 166
f 269 166 237
f 173 270 172
f 271 270 173
f 279 165 259
f 279 172 165
f 280 259 260
f 280 279 259
f 281 260 266
f 281 266 261
f 281 280 260
f 282 261 262
f 282 281 261
f 283 262 263
f 283 282 262
f 284 263 264
f 284 283 263
f 285 265 278
f 285 264 265
f 285 284 264
f 286 276 173
f 286 173 172
f 286 172 279
f 287 279 280
f 287 286 279
f 287 276 286
f 288 275 276
f 288 276 287
f 288 280 281
f 288 287 280
f 289 274 275
f 289 281 282
f 289 288 281
f 289 275 288
f 290 282 283
f 290 289 282
f 290 274 289
f 291 273 274
f 291 290 283
f 291 283 284
f 291 274 290
f 292 272 273
f 292 277 272
f 292 278 277
f 292 285 278
f 292 284 285
f 292 273 291
f 292 291 284
f 175 310 297
f 175 297 296
f 175 296 295
f 175 295 294
f 175 294 293
f 175 174 177
f 175 293 174
f 175 177 176
f 298 178 180
f 304 174 293
f 304 179 174
f 305 293 294
f 305 304 293
f 306 294 295
f 306 305 294
f 307 295 296
f 307 306 295
f 308 296 297
f 308 307 296
f 309 297 310
f 309 308 297
f 311 180 179
f 311 179 304
f 311 298 180
f 312 299 298
f 312 304 305
f 312 311 304
f 312 298 311
f 313 300 299
f 313 305 306
f 313 312 305
f 313 299 312
f 314 301 300
f 314 306 307
f 314 300 313
f 314 313 306
f 315 302 301
f 315 307 308
f 315 301 314
f 315 314 307
f 316 303 302
f 316 308 309
f 316 315 308
f 316 302 315
f 317 320 303
f 317 596 320
f 317 310 596
f 317 309 310
f 317 303 316
f 317 316 309
f 186 318 70
f 178 298 181
f 321 186 185
f 321 319 318
f 321 318 186
f 321 185 184
f 321 184 183
f 320 302 303
f 321 183 182
f 320 301 302
f 321 300 301
f 321 301 320
f 321 299 300
f 321 298 299
f 321 182 181
f 321 181 298
f 323 70 318
f 323 71 70
f 324 318 319
f 324 323 318
f 325 319 321
f 325 321 320
f 325 324 319
f 498 325 320
f 322 71 323
f 326 323 324
f 326 322 323
f 327 597 322
f 327 322 326
f 327 324 325
f 327 326 324
f 498 327 325
f 498 597 327
f 332 854 331
f 332 331 330
f 332 330 329
f 332 329 328
f 332 187 191
f 332 328 187
f 332 191 190
f 332 190 189
f 332 189 188
f 332 188 854
f 333 192 194
f 338 187 328
f 338 193 187
f 339 328 329
f 339 338 328
f 340 329 330
f 340 339 329
f 341 330 331
f 341 340 330
f 342 331 854
f 342 341 331
f 343 342 854
f 344 194 193
f 344 193 338
f 344 333 194
f 345 334 333
f 345 338 339
f 345 344 338
f 345 333 344
f 346 335 334
f 346 339 340
f 346 345 339
f 346 334 345
f 347 359 335
f 347 336 359
f 347 340 341
f 347 335 346
f 347 346 340
f 348 341 342
f 348 336 347
f 348 347 341
f 349 337 336
f 349 342 343
f 349 348 342
f 349 336 348
f 350 337 349
f 350 349 343
f 201 351 195
f 192 333 196
f 337 357 356
f 337 356 355
f 337 355 354
f 358 354 353
f 358 337 354
f 358 201 200
f 358 352 351
f 358 351 201
f 358 200 199
f 358 199 198
f 359 358 198
f 359 337 358
f 359 198 197
f 359 336 337
f 360 334 335
f 360 335 359
f 360 333 334
f 360 197 196
f 360 359 197
f 360 196 333
f 361 641 462
f 203 362 202
f 363 362 203
f 371 195 351
f 371 202 195
f 372 351 352
f 372 371 351
f 373 352 358
f 373 358 353
f 373 372 352
f 374 353 354
f 374 373 353
f 375 354 355
f 375 374 354
f 376 355 356
f 376 375 355
f 377 357 370
f 377 356 357
f 377 376 356
f 378 368 203
f 378 203 202
f 378 202 371
f 379 371 372
f 379 378 371
f 379 368 378
f 380 367 368
f 380 379 372
f 380 372 373
f 380 368 379
f 381 366 367
f 381 373 374
f 381 380 373
f 381 367 380
f 382 374 375
f 382 381 374
f 382 366 381
f 383 365 366
f 383 382 375
f 383 366 382
f 383 375 376
f 384 364 365
f 384 369 364
f 384 370 369
f 384 377 370
f 384 376 377
f 384 365 383
f 384 383 376
f 391 204 207
f 396 205 390
f 396 206 205
f 397 390 389
f 397 396 390
f 398 389 388
f 398 397 389
f 399 388 387
f 399 398 388
f 400 387 386
f 400 399 387
f 401 386 402
f 401 400 386
f 403 207 206
f 403 206 396
f 403 391 207
f 404 412 391
f 404 392 412
f 404 391 403
f 404 403 396
f 404 397 398
f 404 396 397
f 405 404 398
f 405 392 404
f 406 393 392
f 406 392 405
f 406 398 399
f 406 405 398
f 407 394 393
f 407 399 400
f 407 406 399
f 407 393 406
f 408 395 394
f 408 400 401
f 408 394 407
f 408 407 400
f 409 411 395
f 409 852 411
f 409 402 852
f 409 401 402
f 409 395 408
f 409 408 401
f 214 410 208
f 204 391 209
f 411 214 213
f 411 410 214
f 411 213 212
f 411 212 211
f 411 394 395
f 412 211 210
f 412 411 211
f 411 393 394
f 412 392 393
f 412 393 411
f 412 210 209
f 412 209 391
f 420 215 216
f 415 208 410
f 415 215 208
f 416 410 411
f 416 415 410
f 852 416 411
f 417 414 216
f 417 216 215
f 417 215 415
f 418 415 416
f 418 417 415
f 418 414 417
f 419 413 414
f 419 414 418
f 419 416 852
f 419 418 416
f 420 419 852
f 420 413 419
f 217 230 231
f 217 231 232
f 217 232 233
f 217 233 234
f 217 234 235
f 217 235 236
f 217 236 162
f 222 390 205
f 421 402 386
f 421 385 402
f 421 386 387
f 421 387 388
f 421 388 389
f 421 389 390
f 421 222 221
f 421 390 222
f 421 221 220
f 385 219 218
f 385 421 219
f 217 215 595
f 244 217 595
f 244 595 562
f 561 244 562
f 243 561 422
f 243 244 561
f 426 243 422
f 242 426 425
f 242 243 426
f 265 242 425
f 265 267 242
f 278 425 424
f 278 265 425
f 277 278 424
f 272 277 424
f 272 424 423
f 596 498 320
f 271 273 272
f 271 272 423
f 271 274 273
f 271 275 274
f 173 276 275
f 173 275 271
f 429 364 369
f 429 428 364
f 370 429 369
f 430 429 370
f 357 430 370
f 337 430 357
f 597 71 322
f 363 365 364
f 363 364 428
f 363 366 365
f 363 367 366
f 203 368 367
f 203 367 363
f 216 414 413
f 216 413 420
f 441 440 439
f 446 433 434
f 446 438 433
f 447 434 435
f 447 446 434
f 448 447 435
f 449 435 436
f 449 448 435
f 450 449 436
f 451 436 437
f 451 450 436
f 432 451 437
f 452 439 438
f 452 438 446
f 452 441 439
f 453 442 441
f 453 441 452
f 453 446 447
f 453 452 446
f 454 443 442
f 454 448 449
f 454 442 453
f 454 447 448
f 454 453 447
f 455 444 443
f 455 443 454
f 455 454 449
f 456 445 444
f 456 449 450
f 456 444 455
f 456 455 449
f 457 745 445
f 457 450 451
f 457 445 456
f 457 456 450
f 852 745 457
f 852 451 432
f 852 457 451
f 84 432 459
f 459 433 458
f 459 458 84
f 461 460 82
f 478 477 476
f 484 470 471
f 484 475 470
f 485 471 472
f 485 484 471
f 486 485 472
f 487 472 473
f 487 486 472
f 488 487 473
f 489 473 474
f 489 488 473
f 490 469 468
f 490 474 469
f 490 489 474
f 491 476 475
f 491 475 484
f 491 478 476
f 492 479 478
f 492 478 491
f 492 484 485
f 492 491 484
f 493 480 479
f 493 479 492
f 493 485 486
f 493 492 485
f 494 481 480
f 494 480 493
f 494 493 486
f 494 486 487
f 495 482 481
f 495 487 488
f 495 481 494
f 495 494 487
f 496 820 482
f 496 483 820
f 496 488 489
f 496 482 495
f 496 495 488
f 497 467 466
f 497 468 467
f 497 466 483
f 497 490 468
f 497 483 496
f 497 489 490
f 497 496 489
f 682 470 851
f 506 505 504
f 512 499 500
f 512 503 499
f 513 500 501
f 513 512 500
f 514 513 501
f 515 501 502
f 515 514 501
f 516 515 502
f 517 502 683
f 517 516 502
f 498 517 683
f 518 504 503
f 518 503 512
f 518 506 504
f 519 507 506
f 519 506 518
f 519 512 513
f 519 518 512
f 520 508 507
f 520 507 519
f 520 513 514
f 520 519 513
f 521 509 508
f 521 508 520
f 521 520 514
f 521 514 515
f 521 515 516
f 522 510 509
f 522 521 516
f 522 509 521
f 523 511 510
f 523 516 517
f 523 510 522
f 523 522 516
f 524 841 511
f 524 498 841
f 524 511 523
f 524 517 498
f 524 523 517
f 683 499 85
f 537 536 535
f 543 529 530
f 543 534 529
f 544 530 531
f 544 543 530
f 545 544 531
f 546 531 532
f 546 545 531
f 547 546 532
f 548 532 533
f 548 547 532
f 549 528 527
f 549 533 528
f 549 548 533
f 550 535 534
f 550 534 543
f 550 537 535
f 551 538 537
f 551 537 550
f 551 543 544
f 551 550 543
f 552 539 538
f 552 538 551
f 552 544 545
f 552 551 544
f 553 540 539
f 553 539 552
f 553 552 545
f 553 545 546
f 554 541 540
f 554 546 547
f 554 540 553
f 554 553 546
f 555 542 541
f 555 547 548
f 555 541 554
f 555 554 547
f 556 526 525
f 556 527 526
f 556 787 542
f 556 525 787
f 556 549 527
f 556 542 555
f 556 548 549
f 556 555 548
f 656 529 83
f 625 560 561
f 625 559 560
f 625 558 559
f 625 89 557
f 625 557 558
f 625 561 562
f 89 563 557
f 567 565 566
f 568 423 424
f 568 565 423
f 568 566 565
f 569 567 566
f 569 566 568
f 570 568 424
f 571 568 570
f 572 569 568
f 572 568 571
f 573 567 569
f 573 569 572
f 574 567 573
f 575 424 425
f 575 570 424
f 575 571 570
f 576 572 571
f 576 571 575
f 577 572 576
f 577 573 572
f 578 573 577
f 578 574 573
f 579 575 425
f 580 575 579
f 580 576 575
f 581 578 577
f 581 576 580
f 581 577 576
f 582 564 574
f 582 574 578
f 582 578 581
f 583 425 426
f 583 579 425
f 584 580 579
f 584 581 580
f 584 579 583
f 585 581 584
f 586 564 582
f 586 582 581
f 586 581 585
f 587 583 426
f 588 584 583
f 588 583 587
f 589 585 584
f 589 586 585
f 589 584 588
f 590 563 564
f 590 564 586
f 590 586 589
f 591 426 422
f 591 561 560
f 591 422 561
f 591 587 426
f 592 560 559
f 592 591 560
f 592 588 587
f 592 587 591
f 593 559 558
f 593 589 588
f 593 592 559
f 593 588 592
f 594 558 557
f 594 593 558
f 594 563 590
f 594 590 589
f 594 589 593
f 594 557 563
f 565 271 423
f 77 598 944
f 172 270 427
f 565 270 271
f 567 427 270
f 567 270 565
f 944 427 567
f 99 77 944
f 600 428 429
f 600 599 428
f 600 664 599
f 603 664 600
f 601 600 429
f 602 600 601
f 603 600 602
f 604 664 603
f 605 429 430
f 605 601 429
f 605 602 601
f 606 603 602
f 606 604 603
f 606 602 605
f 607 604 606
f 608 604 607
f 609 605 430
f 610 605 609
f 610 606 605
f 611 608 607
f 611 606 610
f 611 607 606
f 612 617 604
f 612 604 608
f 612 608 611
f 613 430 337
f 613 609 430
f 614 609 613
f 614 610 609
f 614 611 610
f 615 611 614
f 616 617 612
f 616 612 611
f 616 611 615
f 350 613 337
f 617 614 613
f 617 613 350
f 617 615 614
f 617 616 615
f 363 428 599
f 711 688 618
f 56 623 90
f 361 202 362
f 599 362 363
f 361 362 599
f 361 599 664
f 620 361 664
f 215 420 633
f 704 621 633
f 724 700 141
f 724 623 700
f 724 90 623
f 82 624 153
f 459 434 433
f 459 435 434
f 459 436 435
f 459 437 436
f 459 432 437
f 682 471 470
f 682 472 471
f 682 473 472
f 682 474 473
f 682 469 474
f 851 664 682
f 683 500 499
f 683 501 500
f 683 502 501
f 656 530 529
f 656 531 530
f 656 532 531
f 656 533 532
f 656 528 533
f 83 567 656
f 562 88 89
f 562 89 625
f 562 595 88
f 563 648 574
f 563 574 564
f 89 648 563
f 688 944 684
f 598 77 626
f 81 628 627
f 77 627 626
f 77 81 627
f 944 598 705
f 712 567 83
f 944 567 712
f 712 99 944
f 99 689 77
f 85 431 597
f 85 597 683
f 711 431 85
f 711 618 431
f 1024 688 711
f 620 707 56
f 632 631 630
f 619 630 629
f 619 632 630
f 664 851 710
f 710 620 664
f 710 619 620
f 90 619 710
f 693 689 633
f 80 635 634
f 621 634 633
f 621 80 634
f 633 420 432
f 84 633 432
f 633 84 704
f 94 621 704
f 700 699 1040
f 622 623 636
f 639 638 637
f 623 637 636
f 623 639 637
f 702 623 622
f 623 702 700
f 724 141 465
f 98 90 724
f 907 703 640
f 624 82 640
f 640 703 624
f 648 643 574
f 649 643 648
f 648 89 644
f 650 644 645
f 650 648 644
f 651 645 646
f 651 650 645
f 651 648 650
f 652 651 646
f 652 648 651
f 653 646 647
f 653 652 646
f 653 648 652
f 654 642 643
f 654 647 655
f 654 655 642
f 654 643 649
f 654 649 648
f 654 648 653
f 654 653 647
f 89 645 644
f 89 646 645
f 89 647 646
f 89 655 647
f 88 655 89
f 664 660 682
f 666 659 660
f 666 664 665
f 666 660 664
f 668 665 667
f 669 665 668
f 669 666 665
f 669 659 666
f 670 667 665
f 671 668 667
f 671 667 670
f 672 658 659
f 672 669 668
f 672 668 671
f 672 659 669
f 673 665 350
f 673 670 665
f 674 671 670
f 674 670 673
f 675 672 671
f 675 671 674
f 676 658 672
f 676 672 675
f 350 661 662
f 677 350 662
f 677 673 350
f 678 662 663
f 678 674 673
f 678 675 674
f 678 677 662
f 678 673 677
f 679 657 658
f 679 663 681
f 679 681 657
f 679 658 676
f 679 676 675
f 679 678 663
f 679 675 678
f 661 350 343
f 661 663 662
f 661 681 663
f 680 681 661
f 498 683 597
f 628 81 76
f 685 628 76
f 627 628 685
f 686 627 685
f 626 627 686
f 687 626 686
f 598 626 687
f 705 598 687
f 665 617 350
f 604 617 665
f 664 604 665
f 631 632 75
f 690 631 75
f 630 631 690
f 691 630 690
f 629 630 691
f 692 629 691
f 619 629 692
f 620 619 692
f 707 692 75
f 420 852 432
f 635 80 78
f 695 635 78
f 634 635 695
f 694 634 695
f 633 634 694
f 638 639 79
f 696 638 79
f 637 638 696
f 697 637 696
f 636 637 697
f 698 636 697
f 622 636 698
f 702 622 698
f 701 79 699
f 693 694 78
f 94 723 640
f 723 907 640
f 907 719 724
f 724 709 98
f 99 716 712
f 712 715 99
f 705 706 684
f 944 705 684
f 706 685 76
f 706 687 686
f 706 686 685
f 705 687 706
f 692 690 75
f 692 691 690
f 692 707 620
f 633 694 693
f 694 695 78
f 701 696 79
f 701 698 697
f 701 697 696
f 702 698 701
f 699 700 702
f 699 702 701
f 722 709 708
f 90 1024 711
f 714 715 713
f 718 717 717
f 718 713 717
f 714 718 717
f 714 713 718
f 721 720 720
f 721 708 720
f 722 721 720
f 722 708 721
f 709 724 719
f 708 709 719
f 715 716 713
f 712 716 715
f 974 90 98
f 907 974 98
f 727 974 907
f 726 90 974
f 726 1024 90
f 1091 727 907
f 95 1024 726
f 94 727 1091
f 1015 95 726
f 1015 727 94
f 95 1015 94
f 621 94 703
f 907 723 94
f 92 708 719
f 728 708 92
f 728 92 93
f 720 708 728
f 729 720 728
f 722 720 729
f 98 722 729
f 709 722 98
f 93 729 728
f 98 729 93
f 907 98 93
f 730 713 91
f 730 91 732
f 717 713 730
f 731 717 730
f 714 717 731
f 99 714 731
f 715 714 99
f 732 731 730
f 99 731 732
f 741 740 739
f 745 734 440
f 745 440 441
f 745 441 442
f 745 442 443
f 745 443 444
f 745 444 445
f 745 735 734
f 745 736 735
f 746 737 736
f 746 736 745
f 746 738 737
f 746 739 738
f 746 741 739
f 746 742 741
f 745 744 743
f 745 743 746
f 745 852 744
f 749 747 748
f 748 750 749
f 748 751 750
f 748 752 751
f 748 753 752
f 224 754 753
f 224 753 748
f 760 759 758
f 764 756 755
f 764 755 460
f 764 757 756
f 764 758 757
f 764 760 758
f 764 761 760
f 460 763 762
f 460 762 764
f 460 461 763
f 766 765 906
f 906 767 766
f 906 768 767
f 906 769 768
f 906 39 769
f 771 770 792
f 792 772 771
f 774 773 772
f 774 772 792
f 782 781 780
f 786 775 536
f 786 536 537
f 786 537 538
f 786 538 539
f 786 539 540
f 787 540 541
f 787 786 540
f 786 776 775
f 787 541 542
f 786 777 776
f 788 778 777
f 788 777 786
f 788 779 778
f 788 780 779
f 788 782 780
f 788 783 782
f 786 785 784
f 786 784 788
f 786 864 785
f 790 789 792
f 792 791 790
f 792 872 62
f 440 224 84
f 439 440 84
f 438 439 84
f 458 438 84
f 433 438 458
f 87 793 464
f 795 794 793
f 795 793 87
f 805 800 799
f 464 796 463
f 464 463 462
f 464 798 797
f 464 799 798
f 464 805 799
f 464 804 805
f 464 803 804
f 464 802 803
f 464 801 802
f 463 795 225
f 462 463 225
f 465 225 8
f 465 462 225
f 807 806 87
f 87 808 807
f 477 227 226
f 476 477 226
f 475 476 226
f 851 475 226
f 470 475 851
f 820 483 466
f 816 815 814
f 820 809 477
f 820 477 478
f 820 478 479
f 820 479 480
f 820 480 481
f 820 481 482
f 820 810 809
f 820 811 810
f 821 812 811
f 821 811 820
f 821 813 812
f 821 814 813
f 821 816 814
f 821 817 816
f 820 819 818
f 820 818 821
f 820 680 819
f 824 822 823
f 823 825 824
f 823 826 825
f 823 827 826
f 823 828 827
f 227 829 828
f 227 828 823
f 504 505 228
f 503 504 228
f 85 503 228
f 499 503 85
f 837 836 835
f 840 830 505
f 840 505 506
f 840 506 507
f 840 507 508
f 840 508 509
f 841 509 510
f 841 840 509
f 840 831 830
f 841 510 511
f 840 832 831
f 842 833 832
f 842 832 840
f 842 834 833
f 842 835 834
f 842 837 835
f 842 838 837
f 840 596 839
f 840 839 842
f 845 843 844
f 844 846 845
f 844 847 846
f 844 848 847
f 844 849 848
f 228 850 849
f 228 849 844
f 536 774 229
f 535 536 229
f 534 229 83
f 534 535 229
f 529 534 83
f 871 88 595
f 786 655 88
f 787 655 786
f 525 642 655
f 525 655 787
f 526 642 525
f 526 643 642
f 574 643 526
f 527 574 526
f 567 574 527
f 528 567 527
f 528 656 567
f 462 641 464
f 660 469 682
f 468 469 660
f 659 468 660
f 467 468 659
f 658 467 659
f 657 467 658
f 466 657 681
f 466 467 657
f 820 466 681
f 820 681 680
f 498 596 733
f 841 498 733
f 840 841 733
f 840 733 596
f 90 620 56
f 361 620 641
f 700 1040 907
f 700 724 461
f 141 700 461
f 624 703 94
f 624 852 402
f 402 153 624
f 689 99 94
f 595 215 633
f 661 343 680
f 90 688 619
f 854 431 618
f 854 618 343
f 858 781 782
f 859 858 782
f 860 782 783
f 860 859 782
f 861 783 788
f 861 788 784
f 861 860 783
f 862 784 785
f 862 861 784
f 863 785 864
f 863 862 785
f 871 786 88
f 871 864 786
f 865 857 84
f 865 84 858
f 865 858 859
f 866 859 860
f 866 865 859
f 866 857 865
f 867 856 857
f 867 857 866
f 867 860 861
f 867 866 860
f 868 855 856
f 868 861 862
f 868 856 867
f 868 867 861
f 869 862 863
f 869 855 868
f 869 868 862
f 870 873 855
f 870 869 863
f 870 855 869
f 870 863 864
f 871 873 870
f 871 870 864
f 536 773 774
f 775 772 773
f 775 773 536
f 776 771 772
f 776 772 775
f 777 770 771
f 777 771 776
f 778 791 792
f 778 792 770
f 778 770 777
f 779 790 791
f 779 791 778
f 780 789 790
f 780 790 779
f 781 789 780
f 792 789 872
f 873 84 857
f 873 857 856
f 873 856 855
f 633 689 94
f 633 94 704
f 595 633 704
f 595 704 84
f 84 871 595
f 84 873 871
f 858 872 789
f 858 84 872
f 781 858 789
f 877 740 741
f 878 877 741
f 879 741 742
f 879 878 741
f 880 742 746
f 880 746 743
f 880 879 742
f 881 743 744
f 881 880 743
f 882 744 852
f 882 881 744
f 883 876 82
f 883 82 877
f 883 877 878
f 884 878 879
f 884 883 878
f 884 876 883
f 885 875 876
f 885 876 884
f 885 879 880
f 885 884 879
f 886 874 875
f 886 880 881
f 886 875 885
f 886 885 880
f 887 881 882
f 887 874 886
f 887 886 881
f 888 889 874
f 888 887 882
f 888 874 887
f 888 882 852
f 852 889 888
f 440 754 224
f 734 753 754
f 734 754 440
f 735 752 753
f 735 753 734
f 736 751 752
f 736 752 735
f 737 750 751
f 737 751 736
f 738 749 750
f 738 750 737
f 739 747 749
f 739 749 738
f 740 747 739
f 82 748 747
f 889 82 876
f 889 876 875
f 889 875 874
f 624 94 640
f 852 624 640
f 640 889 852
f 640 82 889
f 877 82 747
f 740 877 747
f 894 759 760
f 895 894 760
f 896 760 761
f 896 895 760
f 897 761 764
f 897 764 762
f 897 896 761
f 898 762 763
f 898 897 762
f 899 763 461
f 899 898 763
f 900 893 465
f 900 465 894
f 900 894 895
f 901 895 896
f 901 900 895
f 901 893 900
f 902 892 893
f 902 893 901
f 902 896 897
f 902 901 896
f 903 891 892
f 903 897 898
f 903 892 902
f 903 902 897
f 904 898 899
f 904 891 903
f 904 903 898
f 905 890 891
f 905 904 899
f 905 891 904
f 905 899 461
f 461 890 905
f 460 769 39
f 460 39 82
f 755 768 769
f 755 769 460
f 756 767 768
f 756 768 755
f 757 766 767
f 757 767 756
f 758 765 766
f 758 766 757
f 759 765 758
f 906 765 465
f 906 465 8
f 890 465 893
f 890 893 892
f 890 892 891
f 700 907 724
f 465 461 724
f 465 890 461
f 894 465 765
f 759 894 765
f 912 800 805
f 913 912 805
f 914 805 804
f 914 913 805
f 915 804 803
f 915 914 804
f 916 803 802
f 916 915 803
f 917 802 801
f 917 916 802
f 918 801 464
f 918 917 801
f 641 918 464
f 919 911 927
f 919 927 912
f 919 912 913
f 920 913 914
f 920 919 913
f 920 911 919
f 921 910 911
f 921 911 920
f 921 914 915
f 921 920 914
f 922 909 910
f 922 916 917
f 922 915 916
f 922 910 921
f 922 921 915
f 923 922 917
f 923 909 922
f 924 908 909
f 924 917 918
f 924 923 917
f 924 909 923
f 925 928 908
f 925 641 928
f 925 918 641
f 925 924 918
f 925 908 924
f 463 794 795
f 796 793 794
f 796 794 463
f 464 793 796
f 797 808 87
f 797 87 464
f 798 807 808
f 798 808 797
f 799 806 807
f 799 807 798
f 800 806 799
f 87 806 926
f 87 926 226
f 928 927 911
f 928 911 910
f 928 910 909
f 928 909 908
f 851 927 710
f 620 90 710
f 710 641 620
f 927 641 710
f 927 928 641
f 927 851 226
f 926 927 226
f 912 926 806
f 912 927 926
f 800 912 806
f 932 815 816
f 933 932 816
f 934 816 817
f 934 933 816
f 935 817 821
f 935 821 818
f 935 934 817
f 936 818 819
f 936 935 818
f 937 819 680
f 937 936 819
f 938 931 85
f 938 85 932
f 938 932 933
f 939 933 934
f 939 938 933
f 939 931 938
f 940 930 931
f 940 931 939
f 940 934 935
f 940 939 934
f 941 929 930
f 941 935 936
f 941 930 940
f 941 940 935
f 942 936 937
f 942 929 941
f 942 941 936
f 943 853 929
f 943 942 937
f 943 929 942
f 943 937 680
f 343 853 943
f 343 943 680
f 477 829 227
f 809 828 829
f 809 829 477
f 810 827 828
f 810 828 809
f 811 826 827
f 811 827 810
f 812 825 826
f 812 826 811
f 813 824 825
f 813 825 812
f 814 822 824
f 814 824 813
f 815 822 814
f 86 822 85
f 86 823 822
f 853 85 931
f 853 931 930
f 853 930 929
f 90 618 688
f 618 90 711
f 343 618 711
f 85 343 711
f 85 853 343
f 932 85 822
f 815 932 822
f 688 1024 99
f 596 427 944
f 310 427 596
f 949 836 837
f 950 949 837
f 951 837 838
f 951 950 837
f 952 838 842
f 952 842 839
f 952 951 838
f 953 839 596
f 953 952 839
f 954 947 948
f 954 948 949
f 954 949 950
f 955 950 951
f 955 954 950
f 955 947 954
f 956 946 947
f 956 947 955
f 956 951 952
f 956 955 951
f 957 945 946
f 957 952 953
f 957 946 956
f 957 956 952
f 958 953 596
f 958 945 957
f 958 957 953
f 959 958 596
f 959 945 958
f 505 850 228
f 830 849 850
f 830 850 505
f 831 848 849
f 831 849 830
f 832 847 848
f 832 848 831
f 833 846 847
f 833 847 832
f 834 845 846
f 834 846 833
f 835 843 845
f 835 845 834
f 836 843 835
f 960 844 843
f 959 948 947
f 959 947 946
f 959 946 945
f 948 712 83
f 688 99 712
f 712 944 688
f 596 944 712
f 596 712 948
f 959 596 948
f 948 83 960
f 949 960 843
f 949 948 960
f 836 949 843
f 962 963 961
f 962 964 963
f 967 968 966
f 967 969 968
f 974 972 973
f 975 971 972
f 975 972 974
f 976 970 971
f 976 971 975
f 977 962 970
f 977 970 976
f 964 962 977
f 984 983 966
f 984 966 968
f 985 982 983
f 985 983 984
f 986 981 982
f 986 982 985
f 987 980 981
f 987 981 986
f 988 979 980
f 988 980 987
f 989 978 979
f 989 979 988
f 990 973 978
f 990 978 989
f 974 973 990
f 995 994 965
f 995 965 1011
f 996 993 994
f 996 994 995
f 997 991 992
f 997 992 993
f 997 993 996
f 1016 991 997
f 969 967 991
f 969 991 1016
f 963 1004 961
f 1005 1003 1004
f 1005 1004 963
f 1006 1002 1003
f 1006 1003 1005
f 1007 1001 1002
f 1007 1002 1006
f 1008 1000 1001
f 1008 1001 1007
f 1009 999 1000
f 1009 1000 1008
f 1010 998 999
f 1010 999 1009
f 1011 965 998
f 1011 998 1010
f 1012 100 962
f 1012 962 961
f 100 970 962
f 100 971 970
f 100 972 971
f 100 973 972
f 1012 998 965
f 1012 999 998
f 1012 1000 999
f 1012 1001 1000
f 1012 1002 1001
f 1012 1003 1002
f 1012 1004 1003
f 1012 961 1004
f 100 1013 973
f 1014 1012 965
f 1013 978 973
f 1013 979 978
f 1013 980 979
f 1013 981 980
f 1013 982 981
f 1013 983 982
f 1013 966 983
f 1014 991 967
f 1014 992 991
f 1014 994 993
f 1014 965 994
f 1014 993 992
f 1013 1014 967
f 1013 967 966
f 964 974 727
f 964 727 963
f 974 976 975
f 974 977 976
f 974 964 977
f 727 1005 963
f 727 1006 1005
f 727 1007 1006
f 727 1008 1007
f 727 1009 1008
f 727 1010 1009
f 727 1011 1010
f 1011 727 1015
f 726 984 968
f 726 985 984
f 726 986 985
f 726 987 986
f 726 988 987
f 726 989 988
f 726 990 989
f 726 974 990
f 1015 995 1011
f 1015 996 995
f 1015 997 996
f 1016 997 1015
f 1015 969 1016
f 969 1015 726
f 969 726 968
f 1042 1043 1037
f 1044 1050 1017
f 1044 1042 1050
f 1043 1042 1044
f 1033 1018 1030
f 1043 1041 1030
f 1043 1045 1041
f 57 1070 1074
f 57 1078 1070
f 1020 1021 1019
f 1062 1019 1078
f 1062 1078 1073
f 94 1085 95
f 94 1025 1087
f 94 1026 1025
f 56 1033 1040
f 1030 1029 1028
f 1037 1028 1027
f 1037 1030 1028
f 1033 1032 1031
f 1040 1033 1031
f 1029 1030 1018
f 1034 1029 1018
f 1028 1029 1034
f 1035 1028 1034
f 1027 1028 1035
f 1036 1027 1035
f 1037 1027 1036
f 1042 1037 1036
f 1030 1037 1043
f 1038 1033 1030
f 1038 1032 1033
f 1039 1031 1032
f 1039 1032 1038
f 1041 1031 1039
f 1040 1031 1041
f 1033 1042 1036
f 1033 1036 1035
f 1033 1035 1034
f 1033 1034 1018
f 1041 1045 1040
f 1041 1039 1038
f 1030 1041 1038
f 1044 1045 1043
f 1044 1017 1048
f 1045 1044 1048
f 1045 1048 1047
f 1045 1047 1046
f 1050 1042 1049
f 1046 74 1045
f 1046 1053 74
f 1047 1052 1053
f 1047 1053 1046
f 1048 1051 1052
f 1048 1052 1047
f 1017 1050 1051
f 1017 1051 1048
f 1049 74 1053
f 1049 1052 1051
f 1049 1051 1050
f 1049 1053 1052
f 1055 1020 1019
f 1055 1061 1020
f 1056 1060 1061
f 1056 1061 1055
f 1062 1060 1056
f 1057 1059 73
f 1057 73 1060
f 1057 1060 1062
f 1058 689 1059
f 1058 1059 1057
f 1066 689 1058
f 1062 1066 1058
f 1062 1058 1057
f 1062 1056 1055
f 1019 1062 1055
f 73 1059 689
f 1092 1061 1060
f 1092 1020 1061
f 73 1092 1060
f 1019 1065 1064
f 1070 1064 1063
f 1070 1019 1064
f 1066 1062 1073
f 1092 1021 1020
f 1092 1067 1021
f 1065 1019 1021
f 1068 1065 1021
f 1064 1065 1068
f 1069 1064 1068
f 1063 1064 1069
f 1074 1063 1069
f 1070 1063 1074
f 1078 1019 1070
f 1066 1072 1071
f 1066 1073 1072
f 1074 1069 1068
f 1067 1068 1021
f 1067 1074 1068
f 1071 72 1066
f 1071 1077 72
f 1072 1076 1077
f 1072 1077 1071
f 1073 1075 1076
f 1073 1076 1072
f 1078 1075 1073
f 57 1074 1067
f 1078 57 1075
f 1075 72 1077
f 1075 1077 1076
f 1024 97 90
f 1079 96 725
f 725 1080 1079
f 725 1024 1023
f 96 1083 1022
f 1079 1082 1083
f 1079 1083 96
f 1080 1081 1082
f 1080 1082 1079
f 725 1081 1080
f 1023 1022 1081
f 1023 1081 725
f 1022 1082 1081
f 1022 1083 1082
f 95 1023 1024
f 95 1022 1023
f 1084 98 90
f 95 1085 94
f 1087 1086 94
f 1025 1088 1086
f 1025 1089 1088
f 1087 1025 1086
f 1026 94 1091
f 1089 1025 1026
f 1090 1089 1026
f 1088 1089 1090
f 1091 1088 1090
f 1086 1088 1091
f 94 1086 907
f 1091 907 1086
f 1091 1090 1026
f 56 619 688
f 1092 621 703

