# https://github.com/mikedh/trimesh
v -18.94746572 -26.13786257 -29.05081651
v -19.74724820 -26.11920827 -29.05081651
v -19.90233463 -32.76836774 -25.10246722
v -19.10255215 -32.78702204 -25.10246722
v -20.65439623 -99.32062714 -29.05081651
v -21.45417871 -99.30197285 -29.05081651
v -20.49930981 -92.67146767 -25.10246722
v -21.29909229 -92.65281337 -25.10246722
v -20.65439623 -99.32062714 29.16981651
v -21.45417871 -99.30197285 29.16981651
v -21.29909229 -92.65281337 25.22146722
v -20.49930981 -92.67146767 25.22146722
v -18.94746572 -26.13786257 29.16981651
v -19.74724820 -26.11920827 29.16981651
v -19.10255215 -32.78702204 25.22146722
v -19.90233463 -32.76836774 25.22146722
v -20.60071346 -62.71059056 3.16615864
v -19.80093098 -62.72924486 3.16615864
v -20.48699422 -92.14345038 24.87114245
v -21.28677670 -92.12479608 24.87114245
v -19.91465022 -33.29638504 24.87114245
v -19.11486773 -33.31503934 24.87114245
v -20.60071346 -62.71059056 -3.04715864
v -19.80093098 -62.72924486 -3.04715864
v -21.28677670 -92.12479608 -24.75214245
v -20.48699422 -92.14345038 -24.75214245
v -19.11486773 -33.31503934 -24.75214245
v -19.91465022 -33.29638504 -24.75214245
v -14.34106849 -100.96695401 25.05950000
v -12.56424658 -24.78767268 25.05950000
v -19.95441140 -102.92538088 25.05950000
v -19.65950287 -103.23441770 25.05950000
v -19.32577926 -103.50106981 25.05950000
v -18.95928147 -103.72051039 25.05950000
v -18.56664369 -103.88876725 25.05950000
v -18.15497326 -104.00279466 25.05950000
v -17.73172204 -104.06052856 25.05950000
v -17.30455153 -104.06092388 25.05950000
v -16.88119418 -104.00397345 25.05950000
v -16.46931341 -103.89070817 25.05950000
v -16.07636488 -103.72317832 25.05950000
v -15.70946157 -103.50441645 25.05950000
v -15.37524499 -103.23838247 25.05950000
v -15.07976499 -102.92989201 25.05950000
v -14.82837019 -102.58452923 25.05950000
v -14.62561123 -102.20854571 25.05950000
v -14.47515836 -101.80874735 25.05950000
v -14.37973501 -101.39237110 25.05950000
v -20.94494376 -102.90227749 25.05950000
v -20.64028587 -103.34944086 25.05950000
v -20.27772301 -103.75108708 25.05950000
v -19.86397316 -104.09977401 25.05950000
v -19.40670272 -104.38904078 25.05950000
v -18.91438453 -104.61352755 25.05950000
v -18.39614078 -104.76907476 25.05950000
v -17.86157409 -104.85280027 25.05950000
v -17.32058948 -104.86315272 25.05950000
v -16.78321094 -104.79994029 25.05950000
v -16.25939559 -104.66433425 25.05950000
v -15.75884928 -104.45884726 25.05950000
v -15.29084668 -104.18728680 25.05950000
v -14.86405947 -103.85468466 25.05950000
v -14.48639562 -103.46720364 25.05950000
v -14.16485292 -103.03202344 25.05950000
v -13.90538927 -102.55720756 25.05950000
v -13.71281229 -102.05155390 25.05950000
v -13.59069026 -101.52443178 25.05950000
v -13.54128601 -100.98560831 25.05950000
v -11.76446410 -24.80632698 25.05950000
v -11.78869303 -24.26578608 25.05950000
v -11.88610620 -23.73354347 25.05950000
v -12.05489864 -23.21946116 25.05950000
v -12.29194277 -22.73306462 25.05950000
v -12.59284637 -22.28336635 25.05950000
v -12.95203398 -21.87869885 25.05950000
v -13.36285015 -21.52656027 25.05950000
v -13.81768284 -21.23347540 25.05950000
v -14.30810440 -21.00487486 25.05950000
v -14.82502776 -20.84499441 25.05950000
v -15.35887478 -20.75679648 25.05950000
v -15.89975375 -20.74191531 25.05950000
v -16.43764267 -20.80062664 25.05950000
v -16.96257494 -20.93184259 25.05950000
v -17.46482403 -21.13313186 25.05950000
v -17.93508371 -21.40076472 25.05950000
v -18.36464049 -21.72978218 25.05950000
v -18.74553506 -22.11408784 25.05950000
v -19.07070978 -22.54656086 25.05950000
v -18.08017742 -22.56966425 25.05950000
v -12.58303681 -24.36091547 25.05950000
v -12.65894365 -23.94054307 25.05950000
v -12.79059308 -23.53416490 25.05950000
v -12.97560205 -23.14913700 25.05950000
v -13.21062160 -22.79242898 25.05950000
v -13.49139751 -22.47049781 25.05950000
v -13.81284733 -22.18917093 25.05950000
v -14.16915230 -21.95354078 25.05950000
v -14.55386276 -21.76787265 25.05950000
v -14.96001487 -21.63552740 25.05950000
v -15.38025663 -21.55890069 25.05950000
v -15.80698104 -21.53937957 25.05950000
v -16.23246373 -21.57731742 25.05950000
v -16.64900280 -21.67202750 25.05950000
v -17.04905826 -21.82179540 25.05950000
v -17.42538849 -22.02391011 25.05950000
v -17.77118134 -22.27471303 25.05950000
v -13.54128601 -100.98560831 -24.94050000
v -11.76446410 -24.80632698 -24.94050000
v -13.59069026 -101.52443178 -24.94050000
v -13.71281229 -102.05155390 -24.94050000
v -13.90538927 -102.55720756 -24.94050000
v -14.16485292 -103.03202344 -24.94050000
v -14.48639562 -103.46720364 -24.94050000
v -14.86405947 -103.85468466 -24.94050000
v -15.29084668 -104.18728680 -24.94050000
v -15.75884928 -104.45884726 -24.94050000
v -16.25939559 -104.66433425 -24.94050000
v -16.78321094 -104.79994029 -24.94050000
v -17.32058948 -104.86315272 -24.94050000
v -17.86157409 -104.85280027 -24.94050000
v -18.39614078 -104.76907476 -24.94050000
v -18.91438453 -104.61352755 -24.94050000
v -19.40670272 -104.38904078 -24.94050000
v -19.86397316 -104.09977401 -24.94050000
v -20.27772301 -103.75108708 -24.94050000
v -20.64028587 -103.34944086 -24.94050000
v -20.94494376 -102.90227749 -24.94050000
v -19.95441140 -102.92538088 -24.94050000
v -14.34106849 -100.96695401 -24.94050000
v -14.37973501 -101.39237110 -24.94050000
v -14.47515836 -101.80874735 -24.94050000
v -14.62561123 -102.20854571 -24.94050000
v -14.82837019 -102.58452923 -24.94050000
v -15.07976499 -102.92989201 -24.94050000
v -15.37524499 -103.23838247 -24.94050000
v -15.70946157 -103.50441645 -24.94050000
v -16.07636488 -103.72317832 -24.94050000
v -16.46931341 -103.89070817 -24.94050000
v -16.88119418 -104.00397345 -24.94050000
v -17.30455153 -104.06092388 -24.94050000
v -17.73172204 -104.06052856 -24.94050000
v -18.15497326 -104.00279466 -24.94050000
v -18.56664369 -103.88876725 -24.94050000
v -18.95928147 -103.72051039 -24.94050000
v -19.32577926 -103.50106981 -24.94050000
v -19.65950287 -103.23441770 -24.94050000
v -12.56424658 -24.78767268 -24.94050000
v -18.08017742 -22.56966425 -24.94050000
v -17.77118134 -22.27471303 -24.94050000
v -17.42538849 -22.02391011 -24.94050000
v -17.04905826 -21.82179540 -24.94050000
v -16.64900280 -21.67202750 -24.94050000
v -16.23246373 -21.57731742 -24.94050000
v -15.80698104 -21.53937957 -24.94050000
v -15.38025663 -21.55890069 -24.94050000
v -14.96001487 -21.63552740 -24.94050000
v -14.55386276 -21.76787265 -24.94050000
v -14.16915230 -21.95354078 -24.94050000
v -13.81284733 -22.18917093 -24.94050000
v -13.49139751 -22.47049781 -24.94050000
v -13.21062160 -22.79242898 -24.94050000
v -12.97560205 -23.14913700 -24.94050000
v -12.79059308 -23.53416490 -24.94050000
v -12.65894365 -23.94054307 -24.94050000
v -12.58303681 -24.36091547 -24.94050000
v -19.07070978 -22.54656086 -24.94050000
v -18.74553506 -22.11408784 -24.94050000
v -18.36464049 -21.72978218 -24.94050000
v -17.93508371 -21.40076472 -24.94050000
v -17.46482403 -21.13313186 -24.94050000
v -16.96257494 -20.93184259 -24.94050000
v -16.43764267 -20.80062664 -24.94050000
v -15.89975375 -20.74191531 -24.94050000
v -15.35887478 -20.75679648 -24.94050000
v -14.82502776 -20.84499441 -24.94050000
v -14.30810440 -21.00487486 -24.94050000
v -13.81768284 -21.23347540 -24.94050000
v -13.36285015 -21.52656027 -24.94050000
v -12.95203398 -21.87869885 -24.94050000
v -12.59284637 -22.28336635 -24.94050000
v -12.29194277 -22.73306462 -24.94050000
v -12.05489864 -23.21946116 -24.94050000
v -11.88610620 -23.73354347 -24.94050000
v -11.78869303 -24.26578608 -24.94050000
v -20.50251646 -58.50050238 0.05950000
v -19.70273398 -58.51915668 0.05950000
v -18.95171490 -26.32004119 23.81949174
v -19.75149738 -26.30138689 23.81949174
v -19.75149738 -26.30138689 -23.70049174
v -18.95171490 -26.32004119 -23.70049174
v -20.69891046 -66.92067874 0.05950000
v -19.89912798 -66.93933304 0.05950000
v -20.65014706 -99.13844852 -23.70049174
v -21.44992954 -99.11979423 -23.70049174
v -21.44992954 -99.11979423 23.81949174
v -20.65014706 -99.13844852 23.81949174
v -14.34106849 -100.96695401 30.05950000
v -12.56424658 -24.78767268 30.05950000
v -14.34106849 -100.96695401 -29.94050000
v -20.68934193 -100.81888552 -24.58712195
v -20.67549793 -101.18870657 -24.70226964
v -20.61727385 -101.55884066 -24.79262205
v -20.51536144 -101.92343146 -24.85990023
v -20.37045240 -102.27662265 -24.90582525
v -20.18323848 -102.61255790 -24.93211816
v -20.68934193 -100.81888552 -29.69664149
v -20.20900510 -102.57341587 -29.94050000
v -20.36091790 -102.30044419 -29.93440045
v -20.48431882 -102.01594696 -29.91556235
v -20.57903477 -101.72273332 -29.88317656
v -20.64489266 -101.42361243 -29.83643392
v -20.68171941 -101.12139344 -29.77452528
v -19.95879585 -102.92010743 -29.94050000
v -19.66427509 -103.23003844 -29.94050000
v -19.33078359 -103.49758868 -29.94050000
v -18.96436882 -103.71790646 -29.94050000
v -18.57167526 -103.88699659 -29.94050000
v -18.15982391 -104.00179283 -29.94050000
v -17.73628320 -104.06021349 -29.94050000
v -17.30873350 -104.06119918 -29.94050000
v -16.88492792 -104.00473203 -29.94050000
v -16.47255165 -103.89183600 -29.94050000
v -16.07908260 -103.72455831 -29.94050000
v -15.71165588 -103.50593236 -29.94050000
v -15.37693429 -103.23992264 -29.94050000
v -15.08098761 -102.93135292 -29.94050000
v -14.82918247 -102.58581872 -29.94050000
v -14.62608505 -102.20958589 -29.94050000
v -14.47537825 -101.80947694 -29.94050000
v -14.37979497 -101.39274736 -29.94050000
v -19.10674723 -32.96688162 25.11057459
v -19.11085394 -33.14295239 24.99375653
v -20.49100801 -92.31553732 24.99375653
v -20.49511473 -92.49160810 25.11057459
v -20.66559871 -99.80092109 29.42779163
v -20.67727598 -100.30157123 29.64359711
v -20.68934193 -100.81888552 29.81564149
v -20.68934193 -100.81888552 24.70612195
v -20.66249890 -99.66802013 24.17073918
v -20.67560764 -100.23004268 24.46727286
v -20.67560764 -100.23004268 -24.34827286
v -20.66249890 -99.66802013 -24.05173918
v -20.67727598 -100.30157123 -29.52459711
v -20.66559871 -99.80092109 -29.30879163
v -20.49511473 -92.49160810 -24.99157459
v -20.49100801 -92.31553732 -24.87475653
v -19.11085394 -33.14295239 -24.87475653
v -19.10674723 -32.96688162 -24.99157459
v -18.93626324 -25.65756862 -29.30879163
v -18.92458597 -25.15691848 -29.52459711
v -18.91252002 -24.63960419 -29.69664149
v -18.91252002 -24.63960419 -24.58712195
v -18.93936305 -25.79046959 -24.05173918
v -18.92625432 -25.22844704 -24.34827286
v -18.91252002 -24.63960419 24.70612195
v -18.92625432 -25.22844704 24.46727286
v -18.93936305 -25.79046959 24.17073918
v -18.91252002 -24.63960419 29.81564149
v -18.92458597 -25.15691848 29.64359711
v -18.93626324 -25.65756862 29.42779163
v -18.88144888 -24.27083075 24.82126964
v -18.80603134 -23.90381375 24.91162205
v -18.68723140 -23.54437089 24.97890023
v -18.52601310 -23.19831988 25.02482525
v -18.32334043 -22.87147843 25.05111816
v -18.35090395 -22.90937658 30.05950000
v -18.51537833 -23.17496877 30.05340045
v -18.65190919 -23.45340330 30.03456235
v -18.76019265 -23.74188214 30.00217656
v -18.83992486 -24.03760725 29.95543392
v -18.89080194 -24.33778062 29.89352528
v -12.58307915 -24.36053682 30.05950000
v -12.65912928 -23.93980403 30.05950000
v -12.79101789 -23.53310376 30.05950000
v -12.97635333 -23.14781104 30.05950000
v -13.21177478 -22.79091266 30.05950000
v -13.49301317 -22.46888055 30.05950000
v -13.81496857 -22.18755436 30.05950000
v -14.17180273 -21.95203559 30.05950000
v -14.55704490 -21.76659508 30.05950000
v -14.96370918 -21.63459557 30.05950000
v -15.38442122 -21.55843070 30.05950000
v -15.81155193 -21.53948164 30.05950000
v -16.23735582 -21.57809201 30.05950000
v -16.65411145 -21.67356164 30.05950000
v -17.05426149 -21.82415932 30.05950000
v -17.43054969 -22.02715414 30.05950000
v -17.77615254 -22.27886504 30.05950000
v -18.08480296 -22.57472755 30.05950000
v -13.54128601 -100.98560831 30.05950000
v -11.76446410 -24.80632698 30.05950000
v -21.48912441 -100.80023122 -24.58712195
v -21.48912441 -100.80023122 -29.69664149
v -21.47549941 -101.23177747 -29.80314329
v -21.41439185 -101.66339724 -29.87827377
v -21.30551972 -102.08964336 -29.92350821
v -21.22396394 -102.32297344 -29.93629468
v -21.12742002 -102.55199456 -29.94050000
v -20.87256605 -103.02100651 -29.94050000
v -20.55717091 -103.45164400 -29.94050000
v -20.18692190 -103.83614163 -29.94050000
v -19.76849551 -104.16756598 -29.94050000
v -19.30943695 -104.43994070 -29.94050000
v -18.81802413 -104.64835421 -29.94050000
v -18.30311839 -104.78904834 -29.94050000
v -17.77400472 -104.85948602 -29.94050000
v -17.24022427 -104.85839710 -29.94050000
v -16.71140238 -104.78580122 -29.94050000
v -16.19707497 -104.64300746 -29.94050000
v -15.70651657 -104.43259071 -29.94050000
v -15.24857311 -104.15834530 -29.94050000
v -14.83150241 -103.82521653 -29.94050000
v -14.46282524 -103.43921149 -29.94050000
v -14.14918972 -103.00729076 -29.94050000
v -13.89625144 -102.53724292 -29.94050000
v -13.70857149 -102.03754402 -29.94050000
v -13.58953417 -101.51720484 -29.94050000
v -13.54128601 -100.98560831 -29.94050000
v -21.11846294 -102.57049263 -24.93151196
v -21.25874498 -102.22663922 -24.90388543
v -21.36587101 -101.87420181 -24.85662679
v -21.43992216 -101.51666497 -24.78874241
v -21.48097959 -101.15751325 -24.69923867
v -21.29079049 -92.29688302 24.99375653
v -21.29489721 -92.47295380 25.11057459
v -21.46538119 -99.78226679 29.42779163
v -21.47705846 -100.28291694 29.64359711
v -21.48912441 -100.80023122 29.81564149
v -21.48912441 -100.80023122 24.70612195
v -21.46228138 -99.64936583 24.17073918
v -21.47539012 -100.21138838 24.46727286
v -21.47539012 -100.21138838 -24.34827286
v -21.46228138 -99.64936583 -24.05173918
v -21.47705846 -100.28291694 -29.52459711
v -21.46538119 -99.78226679 -29.30879163
v -21.29489721 -92.47295380 -24.99157459
v -21.29079049 -92.29688302 -24.87475653
v -19.91063642 -33.12429809 -24.87475653
v -19.90652971 -32.94822732 -24.99157459
v -19.73604572 -25.63891433 -29.30879163
v -19.72436845 -25.13826418 -29.52459711
v -19.71230250 -24.62094989 -29.69664149
v -19.71230250 -24.62094989 -24.58712195
v -19.73914553 -25.77181529 -24.05173918
v -19.72603680 -25.20979274 -24.34827286
v -19.71230250 -24.62094989 24.70612195
v -19.72603680 -25.20979274 24.46727286
v -19.73914553 -25.77181529 24.17073918
v -19.71230250 -24.62094989 29.81564149
v -19.72436845 -25.13826418 29.64359711
v -19.73604572 -25.63891433 29.42779163
v -19.90652971 -32.94822732 25.11057459
v -19.91063642 -33.12429809 24.99375653
v -19.67857230 -24.19050817 29.92214329
v -19.59740776 -23.76220679 29.99727377
v -19.46878113 -23.34150014 30.04250821
v -19.37643546 -23.11222617 30.05529468
v -19.26931887 -22.88795528 30.05950000
v -11.78787513 -24.27305906 30.05950000
v -11.88252319 -23.74773584 30.05950000
v -12.04670156 -23.23983012 30.05950000
v -12.27744971 -22.75850067 30.05950000
v -12.57060670 -22.31242699 30.05950000
v -12.92088622 -21.90965285 30.05950000
v -13.32197189 -21.55744121 30.05950000
v -13.76663120 -21.26214331 30.05950000
v -14.24684587 -21.02908404 30.05950000
v -14.75395650 -20.86246604 30.05950000
v -15.27881868 -20.76529380 30.05950000
v -15.81196790 -20.73931959 30.05950000
v -16.34379021 -20.78501177 30.05950000
v -16.86469561 -20.90154642 30.05950000
v -17.36529092 -21.08682212 30.05950000
v -17.83654922 -21.33749793 30.05950000
v -18.26997262 -21.64905355 30.05950000
v -18.65774546 -22.01587092 30.05950000
v -18.99287527 -22.43133543 30.05950000
v -19.25950909 -22.86989492 25.05051196
v -19.41567008 -23.20683403 25.02288543
v -19.53911133 -23.55389364 24.97562679
v -19.62975142 -23.90758919 24.90774241
v -19.68750895 -24.26443613 24.81823867
v -12.56424658 -24.78767268 -29.94050000
v -11.76446410 -24.80632698 -29.94050000
v -11.78787513 -24.27305906 -29.94050000
v -11.88252319 -23.74773584 -29.94050000
v -12.04670156 -23.23983012 -29.94050000
v -12.27744971 -22.75850067 -29.94050000
v -12.57060670 -22.31242699 -29.94050000
v -12.92088622 -21.90965285 -29.94050000
v -13.32197189 -21.55744121 -29.94050000
v -13.76663120 -21.26214331 -29.94050000
v -14.24684587 -21.02908404 -29.94050000
v -14.75395650 -20.86246604 -29.94050000
v -15.27881868 -20.76529380 -29.94050000
v -15.81196790 -20.73931959 -29.94050000
v -16.34379021 -20.78501177 -29.94050000
v -16.86469561 -20.90154642 -29.94050000
v -17.36529092 -21.08682212 -29.94050000
v -17.83654922 -21.33749793 -29.94050000
v -18.26997262 -21.64905355 -29.94050000
v -18.65774546 -22.01587092 -29.94050000
v -18.99287527 -22.43133543 -29.94050000
v -19.26931887 -22.88795528 -29.94050000
v -18.35090395 -22.90937658 -29.94050000
v -12.58307915 -24.36053682 -29.94050000
v -12.65912928 -23.93980403 -29.94050000
v -12.79101789 -23.53310376 -29.94050000
v -12.97635333 -23.14781104 -29.94050000
v -13.21177478 -22.79091266 -29.94050000
v -13.49301317 -22.46888055 -29.94050000
v -13.81496857 -22.18755436 -29.94050000
v -14.17180273 -21.95203559 -29.94050000
v -14.55704490 -21.76659508 -29.94050000
v -14.96370918 -21.63459557 -29.94050000
v -15.38442122 -21.55843070 -29.94050000
v -15.81155193 -21.53948164 -29.94050000
v -16.23735582 -21.57809201 -29.94050000
v -16.65411145 -21.67356164 -29.94050000
v -17.05426149 -21.82415932 -29.94050000
v -17.43054969 -22.02715414 -29.94050000
v -17.77615254 -22.27886504 -29.94050000
v -18.08480296 -22.57472755 -29.94050000
v -20.20900510 -102.57341587 30.05950000
v -19.95879585 -102.92010743 30.05950000
v -19.66427509 -103.23003844 30.05950000
v -19.33078359 -103.49758868 30.05950000
v -18.96436882 -103.71790646 30.05950000
v -18.57167526 -103.88699659 30.05950000
v -18.15982391 -104.00179283 30.05950000
v -17.73628320 -104.06021349 30.05950000
v -17.30873350 -104.06119918 30.05950000
v -16.88492792 -104.00473203 30.05950000
v -16.47255165 -103.89183600 30.05950000
v -16.07908260 -103.72455831 30.05950000
v -15.71165588 -103.50593236 30.05950000
v -15.37693429 -103.23992264 30.05950000
v -15.08098761 -102.93135292 30.05950000
v -14.82918247 -102.58581872 30.05950000
v -14.62608505 -102.20958589 30.05950000
v -14.47537825 -101.80947694 30.05950000
v -14.37979497 -101.39274736 30.05950000
v -21.12742002 -102.55199456 30.05950000
v -20.87256605 -103.02100651 30.05950000
v -20.55717091 -103.45164400 30.05950000
v -20.18692190 -103.83614163 30.05950000
v -19.76849551 -104.16756598 30.05950000
v -19.30943695 -104.43994070 30.05950000
v -18.81802413 -104.64835421 30.05950000
v -18.30311839 -104.78904834 30.05950000
v -17.77400472 -104.85948602 30.05950000
v -17.24022427 -104.85839710 30.05950000
v -16.71140238 -104.78580122 30.05950000
v -16.19707497 -104.64300746 30.05950000
v -15.70651657 -104.43259071 30.05950000
v -15.24857311 -104.15834530 30.05950000
v -14.83150241 -103.82521653 30.05950000
v -14.46282524 -103.43921149 30.05950000
v -14.14918972 -103.00729076 30.05950000
v -13.89625144 -102.53724292 30.05950000
v -13.70857149 -102.03754402 30.05950000
v -13.58953417 -101.51720484 30.05950000
v -20.18320884 -102.61260865 25.05112330
v -20.37041512 -102.27671596 25.02484171
v -20.51533090 -101.92355004 24.97892801
v -20.61725686 -101.55895816 24.91165496
v -20.67549365 -101.18878757 24.82129535
v -20.68172112 -101.12137110 29.89351988
v -20.64489897 -101.42357722 29.95542701
v -20.57904589 -101.72269431 30.00217073
v -20.48433228 -102.01591283 30.03455889
v -20.36092855 -102.30042320 30.05339937
v -18.32330845 -22.87142912 -24.93212330
v -18.52597150 -23.19822842 -24.90584171
v -18.68719538 -23.54425386 -24.85992801
v -18.80600888 -23.90369717 -24.79265496
v -18.88144083 -24.27075004 -24.70229535
v -18.89080469 -24.33780286 -29.77451988
v -18.83993281 -24.03764213 -29.83642701
v -18.76020558 -23.74192059 -29.88317073
v -18.65192423 -23.45343677 -29.91555889
v -18.51538995 -23.17498925 -29.93439937
v -21.28986644 -102.13824490 30.04587203
v -21.40426332 -101.71299740 30.00399734
v -21.47087503 -101.28169748 29.93238973
v -21.48736468 -101.04058666 29.87899796
v -21.48098208 -101.15747899 24.81822861
v -21.43993143 -101.51661074 24.90772954
v -21.36588737 -101.87414147 24.97561593
v -21.25876480 -102.22658618 25.02287900
v -21.11847863 -102.57045985 25.05050995
v -19.45087891 -23.29368126 -29.92687203
v -19.58497773 -23.71313279 -29.88499734
v -19.67162554 -24.14085804 -29.81338973
v -19.69933858 -24.38093788 -29.75999796
v -19.68751304 -24.26447024 -24.69922861
v -19.62976320 -23.90764293 -24.78872954
v -19.53913048 -23.55395315 -24.85661593
v -19.41569235 -23.20688609 -24.90387900
v -19.25952629 -22.86992693 -24.93150995
f 2 4 3
f 2 1 4
f 8 5 6
f 8 7 5
f 10 12 11
f 10 9 12
f 15 13 14
f 16 15 14
f 20 18 17
f 20 19 18
f 17 22 21
f 17 18 22
f 24 26 25
f 23 24 25
f 28 24 23
f 28 27 24
f 95 75 74
f 94 74 73
f 94 95 74
f 96 76 75
f 96 75 95
f 93 94 73
f 93 73 72
f 97 76 96
f 97 77 76
f 92 93 72
f 92 72 71
f 98 78 77
f 98 77 97
f 91 92 71
f 91 71 70
f 99 78 98
f 99 79 78
f 90 91 70
f 90 70 69
f 100 79 99
f 100 80 79
f 30 90 69
f 101 80 100
f 101 81 80
f 102 81 101
f 102 82 81
f 103 83 82
f 103 82 102
f 104 83 103
f 104 84 83
f 105 84 104
f 105 85 84
f 106 85 105
f 86 85 106
f 89 86 106
f 87 86 89
f 88 87 89
f 29 30 69
f 29 69 68
f 48 68 67
f 48 29 68
f 47 67 66
f 47 48 67
f 46 66 65
f 46 47 66
f 45 65 64
f 45 46 65
f 44 64 63
f 44 45 64
f 43 44 63
f 62 43 63
f 42 43 62
f 61 42 62
f 41 42 61
f 60 41 61
f 40 41 60
f 59 39 40
f 59 40 60
f 58 38 39
f 58 39 59
f 57 38 58
f 57 37 38
f 56 36 37
f 56 37 57
f 55 35 36
f 55 36 56
f 54 34 35
f 54 35 55
f 53 33 34
f 53 34 54
f 52 32 33
f 52 33 53
f 50 49 31
f 51 32 52
f 51 31 32
f 51 50 31
f 149 169 168
f 148 167 166
f 148 168 167
f 148 149 168
f 150 170 169
f 150 169 149
f 151 171 170
f 151 170 150
f 152 171 151
f 152 172 171
f 153 173 172
f 153 172 152
f 154 173 153
f 154 174 173
f 155 174 154
f 155 175 174
f 156 175 155
f 156 176 175
f 157 176 156
f 177 176 157
f 158 177 157
f 178 177 158
f 159 178 158
f 179 178 159
f 160 179 159
f 180 179 160
f 180 160 161
f 181 180 161
f 181 161 162
f 182 181 162
f 182 162 163
f 183 182 163
f 183 163 164
f 184 183 164
f 184 164 165
f 108 184 165
f 108 165 147
f 128 127 126
f 125 128 126
f 146 128 125
f 124 145 146
f 124 146 125
f 123 144 145
f 123 145 124
f 122 143 144
f 122 144 123
f 121 142 143
f 121 143 122
f 120 141 142
f 120 142 121
f 107 129 130
f 107 147 129
f 107 108 147
f 119 140 141
f 119 141 120
f 109 130 131
f 109 107 130
f 118 139 140
f 118 140 119
f 110 109 131
f 110 131 132
f 117 139 118
f 117 138 139
f 111 132 133
f 111 110 132
f 116 138 117
f 116 137 138
f 112 111 133
f 112 133 134
f 115 137 116
f 115 136 137
f 113 134 135
f 113 112 134
f 114 135 136
f 114 136 115
f 114 113 135
f 187 186 185
f 188 187 185
f 185 190 189
f 185 186 190
f 193 192 191
f 194 193 191
f 191 196 195
f 191 192 196
f 29 198 30
f 197 198 29
f 199 130 129
f 230 131 130
f 230 130 199
f 229 132 131
f 229 131 230
f 228 133 132
f 228 132 229
f 227 134 133
f 227 133 228
f 226 135 134
f 226 134 227
f 225 136 135
f 225 135 226
f 224 137 136
f 224 136 225
f 223 138 137
f 223 137 224
f 222 139 138
f 222 138 223
f 221 140 139
f 221 139 222
f 220 141 140
f 220 140 221
f 219 142 141
f 219 141 220
f 218 142 219
f 218 143 142
f 217 143 218
f 217 144 143
f 216 144 217
f 216 145 144
f 215 146 145
f 215 145 216
f 214 128 146
f 214 146 215
f 213 205 128
f 213 128 214
f 207 204 205
f 207 205 213
f 208 204 207
f 209 203 204
f 209 204 208
f 210 202 203
f 210 203 209
f 211 201 202
f 211 202 210
f 212 201 211
f 206 200 201
f 206 201 212
f 200 206 243
f 200 243 244
f 200 244 5
f 241 200 5
f 242 241 5
f 193 242 5
f 7 193 5
f 245 193 7
f 246 193 245
f 26 193 246
f 236 237 238
f 235 236 238
f 9 239 196
f 9 240 239
f 9 238 240
f 9 235 238
f 12 9 196
f 234 12 196
f 233 234 196
f 19 233 196
f 24 192 26
f 18 19 192
f 18 192 24
f 186 18 24
f 27 186 24
f 190 27 247
f 190 247 248
f 190 248 4
f 190 4 1
f 253 190 1
f 254 253 1
f 252 1 249
f 252 249 250
f 252 250 251
f 252 254 1
f 22 18 186
f 187 15 231
f 187 231 232
f 187 232 22
f 13 15 187
f 13 256 255
f 13 257 256
f 13 187 257
f 260 13 255
f 259 260 255
f 258 259 255
f 196 192 19
f 192 193 26
f 190 186 27
f 186 187 22
f 261 258 255
f 261 270 271
f 261 271 258
f 262 269 270
f 262 270 261
f 263 268 269
f 263 269 262
f 264 266 267
f 264 267 268
f 264 268 263
f 265 289 266
f 265 266 264
f 89 288 289
f 89 289 265
f 106 287 288
f 106 288 89
f 105 286 287
f 105 287 106
f 104 285 286
f 104 286 105
f 103 284 285
f 103 285 104
f 102 283 284
f 102 284 103
f 101 283 102
f 101 282 283
f 100 282 101
f 100 281 282
f 99 281 100
f 99 280 281
f 98 280 99
f 98 279 280
f 97 279 98
f 97 278 279
f 96 278 97
f 96 277 278
f 95 277 96
f 95 276 277
f 94 276 95
f 94 275 276
f 93 274 275
f 93 275 94
f 92 273 274
f 92 274 93
f 91 272 273
f 91 273 92
f 90 198 272
f 90 272 91
f 30 198 90
f 68 69 291
f 290 68 291
f 317 318 107
f 317 107 109
f 316 109 110
f 316 317 109
f 315 110 111
f 315 316 110
f 314 111 112
f 314 315 111
f 313 112 113
f 313 314 112
f 312 113 114
f 312 313 113
f 311 114 115
f 311 312 114
f 310 115 116
f 310 311 115
f 309 116 117
f 309 310 116
f 308 117 118
f 308 309 117
f 307 118 119
f 307 308 118
f 306 307 119
f 306 119 120
f 305 306 120
f 305 120 121
f 304 305 121
f 304 121 122
f 303 304 122
f 303 122 123
f 302 303 123
f 302 123 124
f 301 302 124
f 301 124 125
f 300 301 125
f 300 125 126
f 299 300 126
f 299 126 127
f 298 299 127
f 298 127 319
f 297 298 319
f 297 319 320
f 296 297 320
f 296 320 321
f 295 321 322
f 295 296 321
f 294 322 323
f 294 295 322
f 293 323 292
f 293 294 323
f 292 334 293
f 292 335 334
f 292 6 335
f 332 6 292
f 333 6 332
f 194 6 333
f 8 6 194
f 336 8 194
f 337 336 194
f 25 337 194
f 327 329 328
f 326 329 327
f 10 195 330
f 10 330 331
f 10 331 329
f 10 329 326
f 11 195 10
f 325 195 11
f 324 195 325
f 20 195 324
f 23 25 191
f 17 191 20
f 17 23 191
f 185 23 17
f 28 23 185
f 189 338 28
f 189 339 338
f 189 3 339
f 189 2 3
f 344 2 189
f 345 2 344
f 343 340 2
f 343 341 340
f 343 342 341
f 343 2 345
f 21 185 17
f 188 352 16
f 188 353 352
f 188 21 353
f 14 346 347
f 14 347 348
f 14 348 188
f 14 188 16
f 351 346 14
f 350 346 351
f 349 346 350
f 195 20 191
f 191 25 194
f 189 28 185
f 185 21 188
f 382 346 349
f 382 349 354
f 381 354 355
f 381 382 354
f 380 355 356
f 380 381 355
f 379 356 357
f 379 380 356
f 378 357 358
f 378 379 357
f 88 358 377
f 88 378 358
f 87 377 376
f 87 88 377
f 86 376 375
f 86 87 376
f 85 375 374
f 85 86 375
f 84 374 373
f 84 85 374
f 83 373 372
f 83 84 373
f 82 372 371
f 82 83 372
f 81 82 371
f 81 371 370
f 80 81 370
f 80 370 369
f 79 369 368
f 79 80 369
f 78 368 367
f 78 79 368
f 77 367 366
f 77 78 367
f 76 366 365
f 76 77 366
f 75 365 364
f 75 76 365
f 74 364 363
f 74 75 364
f 73 363 362
f 73 74 363
f 72 362 361
f 72 73 362
f 71 361 360
f 71 72 361
f 70 360 359
f 70 71 360
f 69 359 291
f 69 70 359
f 411 391 390
f 410 411 390
f 410 390 389
f 412 392 391
f 412 391 411
f 409 410 389
f 409 389 388
f 413 392 412
f 413 393 392
f 408 409 388
f 408 388 387
f 414 393 413
f 414 394 393
f 407 408 387
f 407 387 386
f 415 394 414
f 415 395 394
f 406 407 386
f 406 386 385
f 416 395 415
f 416 396 395
f 383 406 385
f 383 385 384
f 417 396 416
f 417 397 396
f 418 397 417
f 418 398 397
f 419 398 418
f 399 398 419
f 420 399 419
f 400 399 420
f 421 400 420
f 401 400 421
f 422 401 421
f 402 401 422
f 402 422 423
f 403 402 423
f 403 423 405
f 404 403 405
f 318 383 384
f 199 318 317
f 199 383 318
f 230 317 316
f 230 199 317
f 229 230 316
f 315 229 316
f 228 229 315
f 314 228 315
f 227 228 314
f 313 227 314
f 226 227 313
f 312 225 226
f 312 226 313
f 311 224 225
f 311 225 312
f 310 223 224
f 310 224 311
f 309 223 310
f 309 222 223
f 308 222 309
f 308 221 222
f 307 220 221
f 307 221 308
f 306 219 220
f 306 220 307
f 305 219 306
f 305 218 219
f 304 217 218
f 304 218 305
f 303 216 217
f 303 217 304
f 302 216 303
f 302 215 216
f 299 207 213
f 299 298 207
f 301 214 215
f 301 215 302
f 300 213 214
f 300 299 213
f 300 214 301
f 277 364 365
f 276 363 364
f 276 364 277
f 278 277 365
f 278 365 366
f 275 362 363
f 275 363 276
f 279 366 367
f 279 278 366
f 274 361 362
f 274 362 275
f 280 279 367
f 280 367 368
f 273 361 274
f 273 360 361
f 281 368 369
f 281 280 368
f 272 359 360
f 272 360 273
f 282 369 370
f 282 281 369
f 198 291 359
f 198 359 272
f 283 370 371
f 283 282 370
f 284 371 372
f 284 283 371
f 285 284 372
f 373 285 372
f 286 285 373
f 374 286 373
f 287 286 374
f 375 287 374
f 288 287 375
f 376 289 288
f 376 288 375
f 377 266 289
f 377 289 376
f 358 266 377
f 290 291 198
f 197 290 198
f 197 462 290
f 442 462 197
f 442 461 462
f 441 461 442
f 460 461 441
f 440 460 441
f 459 460 440
f 439 459 440
f 458 459 439
f 438 458 439
f 457 438 437
f 457 458 438
f 456 437 436
f 456 457 437
f 455 436 435
f 455 456 436
f 454 455 435
f 454 435 434
f 453 454 434
f 453 434 433
f 452 453 433
f 452 433 432
f 451 452 432
f 451 432 431
f 450 451 431
f 450 431 430
f 449 450 430
f 449 430 429
f 448 449 429
f 448 429 428
f 447 448 428
f 447 428 427
f 444 425 424
f 444 424 443
f 446 447 427
f 446 427 426
f 445 426 425
f 445 425 444
f 445 446 426
f 48 197 29
f 48 442 197
f 47 441 442
f 47 442 48
f 46 440 441
f 46 441 47
f 45 439 440
f 45 440 46
f 44 438 439
f 44 439 45
f 43 437 438
f 43 438 44
f 42 436 437
f 42 437 43
f 41 435 436
f 41 436 42
f 40 434 435
f 40 435 41
f 39 433 434
f 39 434 40
f 38 432 433
f 38 433 39
f 37 432 38
f 37 431 432
f 36 431 37
f 36 430 431
f 35 430 36
f 35 429 430
f 34 429 35
f 34 428 429
f 33 428 34
f 33 427 428
f 32 427 33
f 32 426 427
f 31 425 426
f 31 426 32
f 463 424 425
f 463 425 31
f 464 424 463
f 464 471 472
f 464 472 424
f 465 471 464
f 465 470 471
f 466 470 465
f 466 469 470
f 467 237 468
f 467 468 469
f 467 469 466
f 238 237 467
f 251 477 252
f 478 477 251
f 479 476 477
f 479 477 478
f 480 475 476
f 480 476 479
f 481 474 475
f 481 475 480
f 482 474 481
f 405 473 474
f 405 474 482
f 423 148 473
f 423 473 405
f 422 149 148
f 422 148 423
f 421 150 149
f 421 149 422
f 420 151 150
f 420 150 421
f 419 152 151
f 419 151 420
f 418 153 152
f 418 152 419
f 417 153 418
f 417 154 153
f 416 154 417
f 416 155 154
f 415 156 155
f 415 155 416
f 414 157 156
f 414 156 415
f 413 158 157
f 413 157 414
f 412 159 158
f 412 158 413
f 411 160 159
f 411 159 412
f 410 161 160
f 410 160 411
f 409 162 161
f 409 161 410
f 408 163 162
f 408 162 409
f 407 164 163
f 407 163 408
f 406 165 164
f 406 164 407
f 383 147 165
f 383 165 406
f 68 290 462
f 67 462 461
f 67 68 462
f 66 461 460
f 66 67 461
f 65 460 459
f 65 66 460
f 64 459 458
f 64 65 459
f 63 458 457
f 63 64 458
f 62 457 456
f 62 63 457
f 61 456 455
f 61 62 456
f 60 455 454
f 60 61 455
f 59 454 453
f 59 60 454
f 58 453 452
f 58 59 453
f 57 58 452
f 57 452 451
f 56 57 451
f 56 451 450
f 55 450 449
f 55 56 450
f 54 449 448
f 54 55 449
f 53 448 447
f 53 54 448
f 52 447 446
f 52 53 447
f 51 446 445
f 51 52 446
f 50 445 444
f 50 51 445
f 49 444 443
f 49 50 444
f 491 49 443
f 490 443 483
f 490 491 443
f 489 483 484
f 489 490 483
f 488 484 485
f 488 489 484
f 487 485 486
f 487 486 328
f 487 488 485
f 329 487 328
f 342 343 496
f 495 342 496
f 494 496 497
f 494 495 496
f 493 497 498
f 493 494 497
f 492 498 499
f 492 493 498
f 404 499 500
f 404 500 166
f 404 492 499
f 403 166 167
f 403 404 166
f 402 167 168
f 402 403 167
f 401 168 169
f 401 402 168
f 400 169 170
f 400 401 169
f 399 170 171
f 399 400 170
f 398 399 171
f 398 171 172
f 397 398 172
f 397 172 173
f 396 397 173
f 396 173 174
f 395 396 174
f 395 174 175
f 394 395 175
f 394 175 176
f 393 394 176
f 393 176 177
f 392 393 177
f 392 177 178
f 391 392 178
f 391 178 179
f 390 391 179
f 390 179 180
f 389 390 180
f 389 180 181
f 388 389 181
f 388 181 182
f 387 388 182
f 387 182 183
f 386 387 183
f 386 183 184
f 385 184 108
f 385 386 184
f 384 385 108
f 199 147 383
f 129 147 199
f 318 384 108
f 107 318 108
f 348 187 188
f 348 256 257
f 348 257 187
f 347 255 256
f 347 256 348
f 346 255 347
f 382 261 255
f 382 255 346
f 381 262 261
f 381 261 382
f 380 263 262
f 380 262 381
f 379 263 380
f 378 264 263
f 378 263 379
f 88 265 264
f 88 89 265
f 88 264 378
f 231 16 352
f 231 352 353
f 231 15 16
f 232 353 21
f 232 231 353
f 22 232 21
f 267 266 358
f 268 358 357
f 268 267 358
f 269 357 356
f 269 268 357
f 270 356 355
f 270 269 356
f 271 355 354
f 271 270 355
f 258 354 349
f 258 349 350
f 258 271 354
f 259 258 350
f 260 350 351
f 260 259 350
f 13 351 14
f 13 260 351
f 233 20 324
f 233 324 325
f 233 19 20
f 234 325 11
f 234 233 325
f 12 234 11
f 49 463 31
f 464 463 49
f 491 464 49
f 465 464 491
f 490 465 491
f 489 466 465
f 489 465 490
f 488 467 466
f 488 466 489
f 487 238 467
f 487 467 488
f 329 238 487
f 331 240 238
f 331 238 329
f 330 196 239
f 330 239 240
f 330 240 331
f 195 196 330
f 9 10 326
f 235 9 326
f 236 326 327
f 236 235 326
f 237 327 328
f 237 328 486
f 237 236 327
f 468 486 485
f 468 237 486
f 469 485 484
f 469 468 485
f 470 484 483
f 470 469 484
f 471 483 443
f 471 470 483
f 472 471 443
f 424 472 443
f 166 473 148
f 474 473 166
f 500 474 166
f 475 474 500
f 499 475 500
f 498 476 475
f 498 475 499
f 497 477 476
f 497 476 498
f 496 252 477
f 496 477 497
f 343 252 496
f 345 254 252
f 345 252 343
f 344 253 254
f 344 254 345
f 189 190 253
f 189 253 344
f 247 28 338
f 247 27 28
f 248 338 339
f 248 339 3
f 248 247 338
f 4 248 3
f 404 482 481
f 404 405 482
f 492 481 480
f 492 404 481
f 493 480 479
f 493 492 480
f 494 479 478
f 494 493 479
f 495 478 251
f 495 494 478
f 342 495 251
f 341 250 249
f 341 251 250
f 341 342 251
f 340 249 1
f 340 341 249
f 2 340 1
f 245 8 336
f 245 336 337
f 245 7 8
f 246 337 25
f 246 245 337
f 26 246 25
f 6 5 244
f 335 244 243
f 335 6 244
f 334 243 206
f 334 335 243
f 293 334 206
f 294 206 212
f 294 293 206
f 295 212 211
f 295 294 212
f 296 211 210
f 296 295 211
f 297 210 209
f 297 296 210
f 298 208 207
f 298 209 208
f 298 297 209
f 194 242 193
f 333 241 242
f 333 242 194
f 332 200 241
f 332 241 333
f 292 200 332
f 323 201 200
f 323 200 292
f 322 202 201
f 322 201 323
f 321 203 202
f 321 202 322
f 320 203 321
f 319 204 203
f 319 203 320
f 127 205 204
f 127 128 205
f 127 204 319

