# https://github.com/mikedh/trimesh

o p00037.obj
v -31.20741635 -72.57991611 9.52250000
v -30.82680403 -72.38445221 9.52250000
v -30.42269249 -72.24386153 9.52250000
v -30.00294730 -72.16088054 9.52250000
v -29.57573831 -72.13712435 9.52250000
v -29.14938067 -72.17305535 9.52250000
v -28.73217294 -72.26797419 9.52250000
v -28.33223560 -72.42003338 9.52250000
v -27.95735297 -72.62627326 9.52250000
v -27.61482172 -72.88267960 9.52250000
v -27.31130882 -73.18426175 9.52250000
v -27.05272181 -73.52514976 9.52250000
v -26.84409380 -73.89870863 9.52250000
v -26.68948548 -74.29766745 9.52250000
v -26.59190614 -74.71426095 9.52250000
v -26.55325504 -75.14038061 9.52250000
v -26.57428449 -75.56773250 9.52250000
v -26.65458516 -75.98799870 9.52250000
v -26.79259411 -76.39299920 9.52250000
v -26.98562514 -76.77485113 9.52250000
v -27.22992112 -77.12612217 9.52250000
v -27.52072711 -77.43997525 9.52250000
v -27.85238290 -77.71030155 9.52250000
v -28.21843319 -77.93183949 9.52250000
v -28.61175323 -78.10027709 9.52250000
v -29.02468748 -78.21233589 9.52250000
v -29.44919866 -78.26583480 9.52250000
v -29.87702413 -78.25973253 9.52250000
v -30.29983677 -78.19414785 9.52250000
v -30.70940700 -78.07035729 9.52250000
v -31.09776300 -77.89077029 9.52250000
v -31.45734587 -77.65888231 9.52250000
v -31.78115673 -77.37920679 9.52250000
v -32.06289298 -77.05718728 9.52250000
v -32.29707093 -76.69909154 9.52250000
v -32.47913259 -76.31188950 9.52250000
v -32.60553433 -75.90311759 9.52250000
v -32.67381588 -75.48073209 9.52250000
v -32.68264822 -75.05295427 9.52250000
v -32.63185944 -74.62811033 9.52250000
v -32.52243808 -74.21446938 9.52250000
v -32.35651391 -73.82008245 9.52250000
v -32.13731646 -73.45262586 9.52250000
v -31.86911214 -73.11925172 9.52250000
v -31.55712125 -72.82644878 9.52250000
v -30.70679618 -73.40709794 9.52250000
v -30.44617732 -73.27325682 9.52250000
v -30.16946771 -73.17698936 9.52250000
v -29.88205317 -73.12016931 9.52250000
v -29.58952791 -73.10390259 9.52250000
v -29.29758560 -73.12850583 9.52250000
v -29.01190856 -73.19350016 9.52250000
v -28.73805717 -73.29762052 9.52250000
v -28.48136163 -73.43884033 9.52250000
v -28.24681824 -73.61441092 9.52250000
v -28.03899211 -73.82091500 9.52250000
v -27.86192835 -74.05433320 9.52250000
v -27.71907329 -74.31012230 9.52250000
v -27.61320745 -74.58330367 9.52250000
v -27.54639139 -74.86856013 9.52250000
v -27.51992560 -75.16033949 9.52250000
v -27.53432521 -75.45296260 9.52250000
v -27.58930996 -75.74073388 9.52250000
v -27.68380962 -76.01805220 9.52250000
v -27.81598486 -76.27951986 9.52250000
v -27.98326305 -76.52004770 9.52250000
v -28.18238830 -76.73495411 9.52250000
v -28.40948487 -76.92005619 9.52250000
v -28.66013259 -77.07175114 9.52250000
v -28.92945287 -77.18708638 9.52250000
v -29.21220372 -77.26381705 9.52250000
v -29.50288169 -77.30044967 9.52250000
v -29.79582908 -77.29627123 9.52250000
v -30.08534400 -77.25136305 9.52250000
v -30.36579138 -77.16659923 9.52250000
v -30.63171261 -77.04362959 9.52250000
v -30.87793185 -76.88484761 9.52250000
v -31.09965672 -76.69334378 9.52250000
v -31.29257160 -76.47284552 9.52250000
v -31.45292161 -76.22764457 9.52250000
v -31.57758574 -75.96251349 9.52250000
v -31.66413753 -75.68261275 9.52250000
v -31.71089234 -75.39339031 9.52250000
v -31.71694016 -75.10047555 9.52250000
v -31.68216327 -74.80956972 9.52250000
v -31.60723856 -74.52633497 9.52250000
v -31.49362435 -74.25628415 9.52250000
v -31.34353201 -74.00467349 9.52250000
v -31.15988293 -73.77640030 9.52250000
v -30.94625162 -73.57590767 9.52250000
v -31.20741635 -72.57991611 -9.52750000
v -30.82680403 -72.38445221 -9.52750000
v -30.42269249 -72.24386153 -9.52750000
v -30.00294730 -72.16088054 -9.52750000
v -29.57573831 -72.13712435 -9.52750000
v -29.14938067 -72.17305535 -9.52750000
v -28.73217294 -72.26797419 -9.52750000
v -28.33223560 -72.42003338 -9.52750000
v -27.95735297 -72.62627326 -9.52750000
v -27.61482172 -72.88267960 -9.52750000
v -27.31130882 -73.18426175 -9.52750000
v -27.05272181 -73.52514976 -9.52750000
v -26.84409380 -73.89870863 -9.52750000
v -26.68948548 -74.29766745 -9.52750000
v -26.59190614 -74.71426095 -9.52750000
v -26.55325504 -75.14038061 -9.52750000
v -26.57428449 -75.56773250 -9.52750000
v -26.65458516 -75.98799870 -9.52750000
v -26.79259411 -76.39299920 -9.52750000
v -26.98562514 -76.77485113 -9.52750000
v -27.22992112 -77.12612217 -9.52750000
v -27.52072711 -77.43997525 -9.52750000
v -27.85238290 -77.71030155 -9.52750000
v -28.21843319 -77.93183949 -9.52750000
v -28.61175323 -78.10027709 -9.52750000
v -29.02468748 -78.21233589 -9.52750000
v -29.44919866 -78.26583480 -9.52750000
v -29.87702413 -78.25973253 -9.52750000
v -30.29983677 -78.19414785 -9.52750000
v -30.70940700 -78.07035729 -9.52750000
v -31.09776300 -77.89077029 -9.52750000
v -31.45734587 -77.65888231 -9.52750000
v -31.78115673 -77.37920679 -9.52750000
v -32.06289298 -77.05718728 -9.52750000
v -32.29707093 -76.69909154 -9.52750000
v -32.47913259 -76.31188950 -9.52750000
v -32.60553433 -75.90311759 -9.52750000
v -32.67381588 -75.48073209 -9.52750000
v -32.68264822 -75.05295427 -9.52750000
v -32.63185944 -74.62811033 -9.52750000
v -32.52243808 -74.21446938 -9.52750000
v -32.35651391 -73.82008245 -9.52750000
v -32.13731646 -73.45262586 -9.52750000
v -31.86911214 -73.11925172 -9.52750000
v -31.55712125 -72.82644878 -9.52750000
v -30.70679618 -73.40709794 -9.52750000
v -30.44617732 -73.27325682 -9.52750000
v -30.16946771 -73.17698936 -9.52750000
v -29.88205317 -73.12016931 -9.52750000
v -29.58952791 -73.10390259 -9.52750000
v -29.29758560 -73.12850583 -9.52750000
v -29.01190856 -73.19350016 -9.52750000
v -28.73805717 -73.29762052 -9.52750000
v -28.48136163 -73.43884033 -9.52750000
v -28.24681824 -73.61441092 -9.52750000
v -28.03899211 -73.82091500 -9.52750000
v -27.86192835 -74.05433320 -9.52750000
v -27.71907329 -74.31012230 -9.52750000
v -27.61320745 -74.58330367 -9.52750000
v -27.54639139 -74.86856013 -9.52750000
v -27.51992560 -75.16033949 -9.52750000
v -27.53432521 -75.45296260 -9.52750000
v -27.58930996 -75.74073388 -9.52750000
v -27.68380962 -76.01805220 -9.52750000
v -27.81598486 -76.27951986 -9.52750000
v -27.98326305 -76.52004770 -9.52750000
v -28.18238830 -76.73495411 -9.52750000
v -28.40948487 -76.92005619 -9.52750000
v -28.66013259 -77.07175114 -9.52750000
v -28.92945287 -77.18708638 -9.52750000
v -29.21220372 -77.26381705 -9.52750000
v -29.50288169 -77.30044967 -9.52750000
v -29.79582908 -77.29627123 -9.52750000
v -30.08534400 -77.25136305 -9.52750000
v -30.36579138 -77.16659923 -9.52750000
v -30.63171261 -77.04362959 -9.52750000
v -30.87793185 -76.88484761 -9.52750000
v -31.09965672 -76.69334378 -9.52750000
v -31.29257160 -76.47284552 -9.52750000
v -31.45292161 -76.22764457 -9.52750000
v -31.57758574 -75.96251349 -9.52750000
v -31.66413753 -75.68261275 -9.52750000
v -31.71089234 -75.39339031 -9.52750000
v -31.71694016 -75.10047555 -9.52750000
v -31.68216327 -74.80956972 -9.52750000
v -31.60723856 -74.52633497 -9.52750000
v -31.49362435 -74.25628415 -9.52750000
v -31.34353201 -74.00467349 -9.52750000
v -31.15988293 -73.77640030 -9.52750000
v -30.94625162 -73.57590767 -9.52750000
v -31.25045520 -72.50880241 -0.00250000
v -30.85952692 -72.30804072 -0.00250000
v -30.44446250 -72.16363954 -0.00250000
v -30.01334070 -72.07840945 -0.00250000
v -29.57455281 -72.05400939 -0.00250000
v -29.13663934 -72.09091425 -0.00250000
v -28.70812377 -72.18840573 -0.00250000
v -28.29734669 -72.34458627 -0.00250000
v -27.91230339 -72.55641599 -0.00250000
v -27.56048830 -72.81977188 -0.00250000
v -27.24874911 -73.12952799 -0.00250000
v -26.98315346 -73.47965529 -0.00250000
v -26.76887087 -73.86333895 -0.00250000
v -26.61007211 -74.27311100 -0.00250000
v -26.50984802 -74.70099569 -0.00250000
v -26.47014934 -75.13866473 -0.00250000
v -26.49174876 -75.57759939 -0.00250000
v -26.57422587 -76.00925632 -0.00250000
v -26.71597536 -76.42523379 -0.00250000
v -26.91423822 -76.81743529 -0.00250000
v -27.16515551 -77.17822705 -0.00250000
v -27.46384339 -77.50058667 -0.00250000
v -27.80448825 -77.77823979 -0.00250000
v -28.18045982 -78.00578221 -0.00250000
v -28.58444025 -78.17878507 -0.00250000
v -29.00856651 -78.29388107 -0.00250000
v -29.44458347 -78.34883000 -0.00250000
v -29.88400456 -78.34256233 -0.00250000
v -30.31827694 -78.27520007 -0.00250000
v -30.73894800 -78.14805434 -0.00250000
v -31.13782985 -77.96359988 -0.00250000
v -31.50715871 -77.72542690 -0.00250000
v -31.83974601 -77.43817116 -0.00250000
v -32.12911833 -77.10742377 -0.00250000
v -32.36964336 -76.73962235 -0.00250000
v -32.55663954 -76.34192573 -0.00250000
v -32.68646722 -75.92207462 -0.00250000
v -32.75659945 -75.48824096 -0.00250000
v -32.76567118 -75.04886882 -0.00250000
v -32.71350584 -74.61251007 -0.00250000
v -32.60111877 -74.18765796 -0.00250000
v -32.43069745 -73.78258173 -0.00250000
v -32.20555895 -73.40516573 -0.00250000
v -31.93008533 -73.06275595 -0.00250000
v -31.60963837 -72.76201699 -0.00250000
v -31.21458949 -72.56806383 -7.94000000
v -31.22176263 -72.55621154 -6.35250000
v -31.22893578 -72.54435926 -4.76500000
v -31.23610892 -72.53250698 -3.17750000
v -31.24328206 -72.52065469 -1.59000000
v -31.86652160 -73.09615586 -7.94000000
v -32.35180077 -73.78055397 -7.94000000
v -31.87662645 -73.08667838 -6.35250000
v -32.63443607 -74.57049951 -7.94000000
v -32.36408790 -73.77415420 -6.35250000
v -32.69346573 -75.40740581 -7.94000000
v -31.88673130 -73.07720090 -4.76500000
v -32.64799420 -74.56765208 -6.35250000
v -32.52451180 -76.22920337 -7.94000000
v -32.37637503 -73.76775443 -4.76500000
v -32.70728931 -75.40832192 -6.35250000
v -32.14010481 -76.97494322 -7.94000000
v -31.89683615 -73.06772342 -3.17750000
v -32.66155232 -74.56480466 -4.76500000
v -32.53757560 -76.23381506 -6.35250000
v -31.56875446 -77.58931725 -7.94000000
v -32.38866216 -73.76135466 -3.17750000
v -32.72111289 -75.40923802 -4.76500000
v -32.15143995 -76.98290847 -6.35250000
v -30.85283521 -78.02676014 -7.94000000
v -31.90694100 -73.05824594 -1.59000000
v -32.67511045 -74.56195724 -3.17750000
v -32.55063940 -76.23842675 -4.76500000
v -31.57752027 -77.60004531 -6.35250000
v -30.04544351 -78.25482877 -7.94000000
v -32.40094928 -73.75495488 -1.59000000
v -32.73493647 -75.41015413 -3.17750000
v -32.16277509 -76.99087372 -4.76500000
v -30.85838156 -78.03945536 -6.35250000
v -29.20645990 -78.25660831 -7.94000000
v -32.68866858 -74.55910981 -1.59000000
v -32.56370321 -76.24303844 -3.17750000
v -31.58628608 -77.61077337 -4.76500000
v -30.04735906 -78.26854960 -6.35250000
v -28.39810797 -78.03196680 -7.94000000
v -32.74876005 -75.41107023 -1.59000000
v -32.17411023 -76.99883896 -3.17750000
v -30.86392791 -78.05215058 -4.76500000
v -29.20460258 -78.27033715 -6.35250000
v -27.68033947 -77.59756486 -7.94000000
v -32.57676701 -76.24765013 -1.59000000
v -31.59505188 -77.62150143 -3.17750000
v -30.04927460 -78.28227043 -4.76500000
v -28.39261552 -78.04468543 -6.35250000
v -27.10638802 -76.98562010 -7.94000000
v -32.18544537 -77.00680421 -1.59000000
v -30.86947426 -78.06484580 -3.17750000
v -29.20274525 -78.28406598 -4.76500000
v -27.67161925 -77.60833001 -6.35250000
v -26.71882096 -76.24151766 -7.94000000
v -31.60381769 -77.63222949 -1.59000000
v -30.05119015 -78.29599127 -3.17750000
v -28.38712308 -78.05740407 -4.76500000
v -27.09508677 -76.99363336 -6.35250000
v -26.54638238 -75.42044422 -7.94000000
v -30.87502061 -78.07754102 -1.59000000
v -29.20088793 -78.29779482 -3.17750000
v -27.66289904 -77.61909516 -4.76500000
v -26.70577684 -76.24618473 -6.35250000
v -26.60186124 -74.58329504 -7.94000000
v -30.05310570 -78.30971210 -1.59000000
v -28.38163063 -78.07012270 -3.17750000
v -27.08378552 -77.00164662 -4.76500000
v -26.53256281 -75.42141896 -6.35250000
v -26.88114295 -73.79215764 -7.94000000
v -29.19903061 -78.31152366 -1.59000000
v -27.65417882 -77.62986031 -3.17750000
v -26.69273272 -76.25085180 -4.76500000
v -26.58829116 -74.58050516 -6.35250000
v -27.36351445 -73.10570706 -7.94000000
v -28.37613819 -78.08284134 -1.59000000
v -27.07248427 -77.00965989 -3.17750000
v -26.51874324 -75.42239370 -4.76500000
v -26.86882879 -73.78581005 -6.35250000
v -28.01320046 -72.57485421 -7.94000000
v -27.64545860 -77.64062546 -1.59000000
v -26.67968860 -76.25551887 -3.17750000
v -26.57472108 -74.57771527 -4.76500000
v -27.35336949 -73.09627254 -6.35250000
v -28.78201674 -72.23897001 -7.94000000
v -27.06118302 -77.01767315 -1.59000000
v -26.50492367 -75.42336844 -3.17750000
v -26.85651462 -73.77946246 -4.76500000
v -28.00597711 -72.56303246 -6.35250000
v -29.61294369 -72.12296545 -7.94000000
v -26.66664447 -76.26018593 -1.59000000
v -26.56115099 -74.57492539 -3.17750000
v -27.34322453 -73.08683801 -4.76500000
v -28.77825071 -72.22563780 -6.35250000
v -30.44435527 -72.23544407 -7.94000000
v -26.49110410 -75.42434318 -1.59000000
v -26.84420045 -73.77311487 -3.17750000
v -27.99875375 -72.55121071 -4.76500000
v -29.61291430 -72.10911158 -6.35250000
v -26.54758091 -74.57213551 -1.59000000
v -27.33307956 -73.07740348 -3.17750000
v -28.77448468 -72.21230560 -4.76500000
v -30.44806471 -72.22209601 -6.35250000
v -26.83188629 -73.76676727 -1.59000000
v -27.99153039 -72.53938896 -3.17750000
v -29.61288492 -72.09525771 -4.76500000
v -27.32293460 -73.06796895 -1.59000000
v -28.77071866 -72.19897339 -3.17750000
v -30.45177414 -72.20874794 -4.76500000
v -27.98430704 -72.52756722 -1.59000000
v -29.61285553 -72.08140384 -3.17750000
v -28.76695263 -72.18564119 -1.59000000
v -30.45548358 -72.19539988 -3.17750000
v -29.61282615 -72.06754996 -1.59000000
v -30.45919301 -72.18205182 -1.59000000
v -31.21458949 -72.56806383 7.93500000
v -31.22176263 -72.55621154 6.34750000
v -31.22893578 -72.54435926 4.76000000
v -31.23610892 -72.53250698 3.17250000
v -31.24328206 -72.52065469 1.58500000
v -30.44435527 -72.23544407 7.93500000
v -29.61294369 -72.12296545 7.93500000
v -30.44806471 -72.22209601 6.34750000
v -28.78201674 -72.23897001 7.93500000
v -29.61291430 -72.10911158 6.34750000
v -28.01320046 -72.57485421 7.93500000
v -30.45177414 -72.20874794 4.76000000
v -28.77825071 -72.22563780 6.34750000
v -27.36351445 -73.10570706 7.93500000
v -29.61288492 -72.09525771 4.76000000
v -28.00597711 -72.56303246 6.34750000
v -26.88114295 -73.79215764 7.93500000
v -30.45548358 -72.19539988 3.17250000
v -28.77448468 -72.21230560 4.76000000
v -27.35336949 -73.09627254 6.34750000
v -26.60186124 -74.58329504 7.93500000
v -29.61285553 -72.08140384 3.17250000
v -27.99875375 -72.55121071 4.76000000
v -26.86882879 -73.78581005 6.34750000
v -26.54638238 -75.42044422 7.93500000
v -30.45919301 -72.18205182 1.58500000
v -28.77071866 -72.19897339 3.17250000
v -27.34322453 -73.08683801 4.76000000
v -26.58829116 -74.58050516 6.34750000
v -26.71882096 -76.24151766 7.93500000
v -29.61282615 -72.06754996 1.58500000
v -27.99153039 -72.53938896 3.17250000
v -26.85651462 -73.77946246 4.76000000
v -26.53256281 -75.42141896 6.34750000
v -27.10638802 -76.98562010 7.93500000
v -28.76695263 -72.18564119 1.58500000
v -27.33307956 -73.07740348 3.17250000
v -26.57472108 -74.57771527 4.76000000
v -26.70577684 -76.24618473 6.34750000
v -27.68033947 -77.59756486 7.93500000
v -27.98430704 -72.52756722 1.58500000
v -26.84420045 -73.77311487 3.17250000
v -26.51874324 -75.42239370 4.76000000
v -27.09508677 -76.99363336 6.34750000
v -28.39810797 -78.03196680 7.93500000
v -27.32293460 -73.06796895 1.58500000
v -26.56115099 -74.57492539 3.17250000
v -26.69273272 -76.25085180 4.76000000
v -27.67161925 -77.60833001 6.34750000
v -29.20645990 -78.25660831 7.93500000
v -26.83188629 -73.76676727 1.58500000
v -26.50492367 -75.42336844 3.17250000
v -27.08378552 -77.00164662 4.76000000
v -28.39261552 -78.04468543 6.34750000
v -30.04544351 -78.25482877 7.93500000
v -26.54758091 -74.57213551 1.58500000
v -26.67968860 -76.25551887 3.17250000
v -27.66289904 -77.61909516 4.76000000
v -29.20460258 -78.27033715 6.34750000
v -30.85283521 -78.02676014 7.93500000
v -26.49110410 -75.42434318 1.58500000
v -27.07248427 -77.00965989 3.17250000
v -28.38712308 -78.05740407 4.76000000
v -30.04735906 -78.26854960 6.34750000
v -31.56875446 -77.58931725 7.93500000
v -26.66664447 -76.26018593 1.58500000
v -27.65417882 -77.62986031 3.17250000
v -29.20274525 -78.28406598 4.76000000
v -30.85838156 -78.03945536 6.34750000
v -32.14010481 -76.97494322 7.93500000
v -27.06118302 -77.01767315 1.58500000
v -28.38163063 -78.07012270 3.17250000
v -30.04927460 -78.28227043 4.76000000
v -31.57752027 -77.60004531 6.34750000
v -32.52451180 -76.22920337 7.93500000
v -27.64545860 -77.64062546 1.58500000
v -29.20088793 -78.29779482 3.17250000
v -30.86392791 -78.05215058 4.76000000
v -32.15143995 -76.98290847 6.34750000
v -32.69346573 -75.40740581 7.93500000
v -28.37613819 -78.08284134 1.58500000
v -30.05119015 -78.29599127 3.17250000
v -31.58628608 -77.61077337 4.76000000
v -32.53757560 -76.23381506 6.34750000
v -32.63443607 -74.57049951 7.93500000
v -29.19903061 -78.31152366 1.58500000
v -30.86947426 -78.06484580 3.17250000
v -32.16277509 -76.99087372 4.76000000
v -32.70728931 -75.40832192 6.34750000
v -32.35180077 -73.78055397 7.93500000
v -30.05310570 -78.30971210 1.58500000
v -31.59505188 -77.62150143 3.17250000
v -32.55063940 -76.23842675 4.76000000
v -32.64799420 -74.56765208 6.34750000
v -31.86652160 -73.09615586 7.93500000
v -30.87502061 -78.07754102 1.58500000
v -32.17411023 -76.99883896 3.17250000
v -32.72111289 -75.40923802 4.76000000
v -32.36408790 -73.77415420 6.34750000
v -31.60381769 -77.63222949 1.58500000
v -32.56370321 -76.24303844 3.17250000
v -32.66155232 -74.56480466 4.76000000
v -31.87662645 -73.08667838 6.34750000
v -32.18544537 -77.00680421 1.58500000
v -32.73493647 -75.41015413 3.17250000
v -32.37637503 -73.76775443 4.76000000
v -32.57676701 -76.24765013 1.58500000
v -32.67511045 -74.56195724 3.17250000
v -31.88673130 -73.07720090 4.76000000
v -32.74876005 -75.41107023 1.58500000
v -32.38866216 -73.76135466 3.17250000
v -32.68866858 -74.55910981 1.58500000
v -31.89683615 -73.06772342 3.17250000
v -32.40094928 -73.75495488 1.58500000
v -31.90694100 -73.05824594 1.58500000
f 75 29 74
f 75 30 29
f 73 74 29
f 73 28 27
f 73 29 28
f 76 30 75
f 76 31 30
f 72 73 27
f 77 31 76
f 77 32 31
f 71 27 26
f 71 72 27
f 78 33 32
f 78 32 77
f 70 71 26
f 70 26 25
f 79 34 33
f 79 33 78
f 69 70 25
f 69 25 24
f 80 35 34
f 80 34 79
f 68 24 23
f 68 69 24
f 81 36 35
f 81 35 80
f 67 68 23
f 67 23 22
f 82 36 81
f 82 37 36
f 66 67 22
f 66 22 21
f 83 38 37
f 83 37 82
f 65 21 20
f 65 66 21
f 19 65 20
f 84 39 38
f 84 38 83
f 64 65 19
f 85 40 39
f 85 39 84
f 63 19 18
f 63 64 19
f 41 40 85
f 41 85 86
f 17 62 63
f 17 63 18
f 42 86 87
f 42 41 86
f 16 61 62
f 16 62 17
f 60 61 16
f 43 87 88
f 43 42 87
f 15 60 16
f 44 43 88
f 44 88 89
f 14 60 15
f 14 59 60
f 45 44 89
f 45 89 90
f 13 59 14
f 13 57 58
f 13 58 59
f 1 45 90
f 1 46 47
f 1 90 46
f 12 57 13
f 2 1 47
f 2 47 48
f 11 57 12
f 11 56 57
f 3 2 48
f 10 54 55
f 10 55 56
f 10 56 11
f 4 3 48
f 4 48 49
f 9 54 10
f 5 4 49
f 5 49 50
f 8 54 9
f 8 53 54
f 6 50 51
f 6 5 50
f 7 51 52
f 7 52 53
f 7 53 8
f 7 6 51
f 165 164 119
f 165 119 120
f 163 119 164
f 163 117 118
f 163 118 119
f 166 165 120
f 166 120 121
f 162 117 163
f 167 166 121
f 167 121 122
f 161 116 117
f 161 117 162
f 168 122 123
f 168 167 122
f 160 116 161
f 160 115 116
f 169 123 124
f 169 168 123
f 159 115 160
f 159 114 115
f 170 124 125
f 170 169 124
f 158 113 114
f 158 114 159
f 171 125 126
f 171 170 125
f 157 113 158
f 157 112 113
f 172 171 126
f 172 126 127
f 156 112 157
f 156 111 112
f 173 127 128
f 173 172 127
f 155 110 111
f 155 111 156
f 109 110 155
f 174 128 129
f 174 173 128
f 154 109 155
f 175 129 130
f 175 174 129
f 153 108 109
f 153 109 154
f 131 175 130
f 131 176 175
f 107 153 152
f 107 108 153
f 132 177 176
f 132 176 131
f 106 152 151
f 106 107 152
f 150 106 151
f 133 178 177
f 133 177 132
f 105 106 150
f 134 178 133
f 134 179 178
f 104 105 150
f 104 150 149
f 135 179 134
f 135 180 179
f 103 104 149
f 103 148 147
f 103 149 148
f 91 180 135
f 91 137 136
f 91 136 180
f 102 103 147
f 92 137 91
f 92 138 137
f 101 102 147
f 101 147 146
f 93 138 92
f 100 145 144
f 100 146 145
f 100 101 146
f 94 138 93
f 94 139 138
f 99 100 144
f 95 139 94
f 95 140 139
f 98 99 144
f 98 144 143
f 96 141 140
f 96 140 95
f 97 142 141
f 97 143 142
f 97 98 143
f 97 141 96
f 226 91 135
f 225 181 230
f 226 92 91
f 181 182 230
f 231 226 135
f 231 134 133
f 231 135 134
f 232 231 133
f 232 132 131
f 232 133 132
f 233 226 231
f 233 227 226
f 234 232 131
f 234 130 129
f 234 131 130
f 235 233 231
f 235 231 232
f 236 234 129
f 236 128 127
f 236 129 128
f 237 227 233
f 237 228 227
f 238 232 234
f 238 235 232
f 239 236 127
f 239 126 125
f 239 127 126
f 240 233 235
f 240 237 233
f 241 238 234
f 241 234 236
f 242 239 125
f 242 124 123
f 242 125 124
f 243 229 228
f 243 228 237
f 244 235 238
f 244 240 235
f 245 236 239
f 245 241 236
f 246 242 123
f 246 122 121
f 246 123 122
f 247 237 240
f 247 243 237
f 248 244 238
f 248 238 241
f 249 245 239
f 249 239 242
f 250 246 121
f 250 120 119
f 250 121 120
f 251 223 224
f 251 224 225
f 251 230 229
f 251 225 230
f 251 229 243
f 252 247 240
f 252 240 244
f 253 241 245
f 253 248 241
f 254 242 246
f 254 249 242
f 255 250 119
f 255 118 117
f 255 119 118
f 256 251 243
f 256 223 251
f 256 221 222
f 256 222 223
f 256 243 247
f 257 248 253
f 257 244 248
f 257 252 244
f 258 245 249
f 258 253 245
f 258 249 254
f 259 246 250
f 259 250 255
f 259 254 246
f 260 255 117
f 260 116 115
f 260 117 116
f 261 247 252
f 261 256 247
f 261 219 220
f 261 220 221
f 261 252 257
f 261 221 256
f 262 257 253
f 263 258 254
f 264 259 255
f 265 114 113
f 265 115 114
f 265 260 115
f 266 219 261
f 266 261 257
f 266 217 218
f 266 218 219
f 266 257 262
f 267 258 263
f 267 262 253
f 267 253 258
f 268 263 254
f 268 254 259
f 268 259 264
f 269 264 255
f 269 255 260
f 270 265 113
f 270 113 112
f 271 215 216
f 271 216 217
f 271 217 266
f 271 262 267
f 271 266 262
f 272 267 263
f 273 268 264
f 274 260 265
f 274 269 260
f 275 270 112
f 275 111 110
f 275 112 111
f 276 271 267
f 276 215 271
f 276 213 214
f 276 214 215
f 277 263 268
f 277 272 263
f 278 273 264
f 278 264 269
f 279 274 265
f 279 265 270
f 279 270 275
f 280 275 110
f 280 109 108
f 280 110 109
f 281 276 267
f 281 211 212
f 281 212 213
f 281 272 277
f 281 213 276
f 281 267 272
f 282 268 273
f 282 277 268
f 283 269 274
f 283 278 269
f 283 274 279
f 284 279 275
f 285 280 108
f 285 107 106
f 285 108 107
f 286 211 281
f 286 209 210
f 286 210 211
f 286 281 277
f 287 273 278
f 287 278 283
f 287 282 273
f 288 283 279
f 289 284 275
f 289 275 280
f 290 285 106
f 290 105 104
f 290 106 105
f 291 209 286
f 291 207 208
f 291 208 209
f 291 277 282
f 291 286 277
f 292 287 283
f 293 288 279
f 293 279 284
f 294 280 285
f 294 289 280
f 295 290 104
f 295 103 102
f 295 104 103
f 296 205 206
f 296 206 207
f 296 207 291
f 296 282 287
f 296 291 282
f 297 283 288
f 297 292 283
f 298 293 284
f 298 284 289
f 299 294 285
f 299 285 290
f 300 101 100
f 300 102 101
f 300 295 102
f 301 205 296
f 301 203 204
f 301 204 205
f 301 287 292
f 301 296 287
f 301 292 297
f 302 288 293
f 302 297 288
f 303 298 289
f 303 289 294
f 304 299 290
f 304 290 295
f 305 300 100
f 305 99 98
f 305 100 99
f 306 301 297
f 306 202 203
f 306 203 301
f 307 302 293
f 307 293 298
f 308 299 304
f 308 303 294
f 308 294 299
f 309 304 295
f 309 295 300
f 309 300 305
f 310 305 98
f 310 97 96
f 310 98 97
f 311 200 201
f 311 201 202
f 311 202 306
f 311 306 297
f 311 297 302
f 312 307 298
f 312 298 303
f 313 308 304
f 314 309 305
f 314 305 310
f 315 310 96
f 315 95 94
f 315 96 95
f 316 302 307
f 316 307 312
f 316 198 199
f 316 199 200
f 316 311 302
f 316 200 311
f 317 312 303
f 317 303 308
f 318 313 304
f 318 304 309
f 318 309 314
f 319 310 315
f 319 314 310
f 320 92 226
f 320 315 94
f 320 93 92
f 320 94 93
f 321 196 197
f 321 197 198
f 321 198 316
f 321 316 312
f 322 308 313
f 322 317 308
f 323 314 319
f 323 318 314
f 324 319 315
f 325 196 321
f 325 194 195
f 325 195 196
f 325 312 317
f 325 321 312
f 325 317 322
f 326 322 313
f 326 313 318
f 327 323 319
f 328 315 320
f 328 324 315
f 328 320 226
f 328 226 227
f 329 192 193
f 329 193 194
f 329 194 325
f 329 325 322
f 330 318 323
f 330 323 327
f 330 326 318
f 331 324 328
f 331 319 324
f 331 327 319
f 332 192 329
f 332 190 191
f 332 191 192
f 332 329 322
f 332 322 326
f 333 330 327
f 334 331 328
f 334 328 227
f 334 227 228
f 335 190 332
f 335 332 326
f 335 188 189
f 335 189 190
f 335 330 333
f 335 326 330
f 336 333 327
f 336 327 331
f 337 186 187
f 337 187 188
f 337 335 333
f 337 333 336
f 337 188 335
f 338 334 228
f 338 336 331
f 338 228 229
f 338 331 334
f 339 337 336
f 339 184 185
f 339 185 186
f 339 186 337
f 340 229 230
f 340 182 183
f 340 183 184
f 340 338 229
f 340 230 182
f 340 339 336
f 340 336 338
f 340 184 339
f 341 1 2
f 182 181 345
f 341 45 1
f 181 225 345
f 346 341 2
f 346 2 3
f 346 3 4
f 347 4 5
f 347 5 6
f 347 346 4
f 348 342 341
f 348 343 342
f 348 341 346
f 349 347 6
f 349 6 7
f 349 7 8
f 350 346 347
f 350 348 346
f 351 349 8
f 351 8 9
f 351 9 10
f 352 343 348
f 353 347 349
f 353 350 347
f 354 351 10
f 354 10 11
f 354 11 12
f 355 348 350
f 355 352 348
f 356 353 349
f 356 349 351
f 357 354 12
f 357 12 13
f 357 13 14
f 358 352 355
f 358 344 343
f 358 345 344
f 358 343 352
f 359 350 353
f 359 355 350
f 360 351 354
f 360 356 351
f 361 357 14
f 361 14 15
f 361 15 16
f 362 358 355
f 363 359 353
f 363 353 356
f 364 354 357
f 364 360 354
f 364 357 361
f 365 361 16
f 365 16 17
f 365 17 18
f 366 183 182
f 366 184 183
f 366 345 358
f 366 182 345
f 367 362 355
f 367 355 359
f 368 356 360
f 368 363 356
f 369 364 361
f 370 365 18
f 370 18 19
f 370 19 20
f 371 185 184
f 371 186 185
f 371 362 367
f 371 184 366
f 371 366 358
f 371 358 362
f 372 359 363
f 372 367 359
f 373 368 360
f 373 360 364
f 374 369 361
f 374 361 365
f 375 370 20
f 375 20 21
f 375 21 22
f 376 187 186
f 376 188 187
f 376 371 367
f 376 186 371
f 377 372 363
f 377 363 368
f 378 373 364
f 378 364 369
f 379 365 370
f 379 374 365
f 380 375 22
f 380 22 23
f 381 376 367
f 381 189 188
f 381 190 189
f 381 188 376
f 381 367 372
f 382 373 378
f 382 368 373
f 382 377 368
f 383 378 369
f 383 369 374
f 384 370 375
f 384 379 370
f 385 380 23
f 385 23 24
f 385 24 25
f 386 191 190
f 386 192 191
f 386 372 377
f 386 381 372
f 386 190 381
f 387 382 378
f 388 383 374
f 388 374 379
f 389 384 375
f 389 375 380
f 390 385 25
f 390 25 26
f 390 26 27
f 391 192 386
f 391 386 377
f 391 377 382
f 391 193 192
f 391 194 193
f 392 387 378
f 392 378 383
f 393 388 379
f 393 379 384
f 394 380 385
f 394 389 380
f 394 385 390
f 395 390 27
f 395 27 28
f 395 28 29
f 396 391 382
f 396 195 194
f 396 196 195
f 396 382 387
f 396 194 391
f 397 392 383
f 397 383 388
f 397 388 393
f 398 393 384
f 398 384 389
f 398 389 394
f 399 394 390
f 400 395 29
f 400 29 30
f 400 30 31
f 401 197 196
f 401 198 197
f 401 387 392
f 401 196 396
f 401 396 387
f 402 397 393
f 403 398 394
f 404 399 390
f 404 390 395
f 404 395 400
f 405 31 32
f 405 400 31
f 405 32 33
f 406 198 401
f 406 199 198
f 406 200 199
f 406 392 397
f 406 401 392
f 407 402 393
f 407 398 403
f 407 393 398
f 408 394 399
f 408 403 394
f 409 404 400
f 410 405 33
f 410 33 34
f 410 34 35
f 411 201 200
f 411 202 201
f 411 200 406
f 411 397 402
f 411 406 397
f 412 407 403
f 412 403 408
f 413 399 404
f 413 408 399
f 414 400 405
f 414 409 400
f 415 410 35
f 415 35 36
f 415 36 37
f 416 203 202
f 416 202 411
f 416 402 407
f 416 411 402
f 417 412 408
f 418 413 404
f 418 404 409
f 419 414 405
f 419 405 410
f 419 410 415
f 420 415 37
f 420 37 38
f 420 38 39
f 421 416 407
f 421 204 203
f 421 205 204
f 421 203 416
f 421 407 412
f 422 408 413
f 422 417 408
f 423 418 409
f 423 409 414
f 423 414 419
f 424 419 415
f 424 415 420
f 425 420 39
f 425 39 40
f 425 40 41
f 426 412 417
f 426 206 205
f 426 207 206
f 426 421 412
f 426 205 421
f 427 418 423
f 427 413 418
f 427 422 413
f 428 423 419
f 429 420 425
f 429 424 420
f 430 425 41
f 430 41 42
f 430 42 43
f 431 207 426
f 431 208 207
f 431 209 208
f 431 417 422
f 431 426 417
f 432 427 423
f 433 419 424
f 433 428 419
f 433 424 429
f 434 429 425
f 435 430 43
f 435 45 341
f 435 43 44
f 435 44 45
f 436 210 209
f 436 211 210
f 436 209 431
f 436 422 427
f 436 427 432
f 436 431 422
f 437 432 423
f 437 423 428
f 438 429 434
f 438 433 429
f 439 425 430
f 439 434 425
f 440 212 211
f 440 213 212
f 440 211 436
f 440 432 437
f 440 436 432
f 441 437 428
f 441 428 433
f 442 438 434
f 442 434 439
f 443 430 435
f 443 439 430
f 443 435 341
f 443 341 342
f 444 213 440
f 444 214 213
f 444 215 214
f 444 440 437
f 445 433 438
f 445 438 442
f 445 441 433
f 446 442 439
f 447 216 215
f 447 217 216
f 447 215 444
f 447 437 441
f 447 444 437
f 448 445 442
f 449 439 443
f 449 446 439
f 449 443 342
f 449 342 343
f 449 343 344
f 450 447 441
f 450 218 217
f 450 219 218
f 450 217 447
f 450 441 445
f 450 445 448
f 451 448 442
f 451 442 446
f 452 450 448
f 452 220 219
f 452 221 220
f 452 219 450
f 453 449 344
f 453 451 446
f 453 446 449
f 454 452 448
f 454 221 452
f 454 222 221
f 454 223 222
f 454 448 451
f 455 344 345
f 455 345 225
f 455 451 453
f 455 223 454
f 455 224 223
f 455 225 224
f 455 454 451
f 455 453 344
f 90 136 46
f 90 180 136
f 89 180 90
f 89 179 180
f 88 179 89
f 88 178 179
f 87 178 88
f 87 177 178
f 86 177 87
f 86 175 176
f 86 176 177
f 85 175 86
f 84 175 85
f 84 174 175
f 83 174 84
f 83 172 173
f 83 173 174
f 82 172 83
f 82 171 172
f 81 171 82
f 80 171 81
f 80 170 171
f 79 170 80
f 79 169 170
f 78 169 79
f 78 168 169
f 77 168 78
f 77 167 168
f 76 167 77
f 76 166 167
f 75 166 76
f 75 165 166
f 74 165 75
f 74 164 165
f 73 164 74
f 73 163 164
f 72 162 163
f 72 163 73
f 71 161 162
f 71 162 72
f 70 160 161
f 70 161 71
f 69 159 160
f 69 160 70
f 68 157 158
f 68 158 159
f 68 159 69
f 67 156 157
f 67 157 68
f 66 156 67
f 65 156 66
f 65 155 156
f 64 155 65
f 64 154 155
f 63 154 64
f 63 153 154
f 62 153 63
f 62 152 153
f 61 152 62
f 61 151 152
f 60 151 61
f 60 150 151
f 59 150 60
f 59 149 150
f 58 149 59
f 58 148 149
f 57 148 58
f 57 146 147
f 57 147 148
f 56 146 57
f 55 146 56
f 55 145 146
f 54 145 55
f 54 143 144
f 54 144 145
f 53 143 54
f 53 142 143
f 52 142 53
f 52 141 142
f 51 141 52
f 50 140 141
f 50 141 51
f 49 138 139
f 49 139 140
f 49 140 50
f 48 137 138
f 48 138 49
f 47 137 48
f 46 136 137
f 46 137 47

