# https://github.com/mikedh/trimesh

o p00018.obj
v -1.36500000 -1.61500000 0.00000000
v -1.36500000 -1.61500000 5.08000000
v 1.36500000 -1.61500000 0.00000000
v 1.36500000 -1.61500000 5.08000000
v 1.42063023 -1.60873198 0.00000000
v 1.47347093 -1.59024222 0.00000000
v 1.52087245 -1.56045787 0.00000000
v 1.56045787 -1.52087245 0.00000000
v 1.59024222 -1.47347093 0.00000000
v 1.60873198 -1.42063023 0.00000000
v 1.61500000 -1.36500000 0.00000000
v 1.61500000 -1.36500000 5.08000000
v 1.42063023 -1.60873198 5.08000000
v 1.47347093 -1.59024222 5.08000000
v 1.52087245 -1.56045787 5.08000000
v 1.56045787 -1.52087245 5.08000000
v 1.59024222 -1.47347093 5.08000000
v 1.60873198 -1.42063023 5.08000000
v 1.61500000 1.36500000 0.00000000
v 1.61500000 1.36500000 5.08000000
v 1.60873198 1.42063023 0.00000000
v 1.59024222 1.47347093 0.00000000
v 1.56045787 1.52087245 0.00000000
v 1.52087245 1.56045787 0.00000000
v 1.47347093 1.59024222 0.00000000
v 1.42063023 1.60873198 0.00000000
v 1.36500000 1.61500000 0.00000000
v 1.36500000 1.61500000 5.08000000
v 1.60873198 1.42063023 5.08000000
v 1.59024222 1.47347093 5.08000000
v 1.56045787 1.52087245 5.08000000
v 1.52087245 1.56045787 5.08000000
v 1.47347093 1.59024222 5.08000000
v 1.42063023 1.60873198 5.08000000
v -1.36500000 1.61500000 0.00000000
v -1.36500000 1.61500000 5.08000000
v -1.42063023 1.60873198 0.00000000
v -1.47347093 1.59024222 0.00000000
v -1.52087245 1.56045787 0.00000000
v -1.56045787 1.52087245 0.00000000
v -1.59024222 1.47347093 0.00000000
v -1.60873198 1.42063023 0.00000000
v -1.61500000 1.36500000 0.00000000
v -1.61500000 1.36500000 5.08000000
v -1.42063023 1.60873198 5.08000000
v -1.47347093 1.59024222 5.08000000
v -1.52087245 1.56045787 5.08000000
v -1.56045787 1.52087245 5.08000000
v -1.59024222 1.47347093 5.08000000
v -1.60873198 1.42063023 5.08000000
v -1.61500000 -1.36500000 0.00000000
v -1.61500000 -1.36500000 5.08000000
v -1.60873198 -1.42063023 0.00000000
v -1.59024222 -1.47347093 0.00000000
v -1.56045787 -1.52087245 0.00000000
v -1.52087245 -1.56045787 0.00000000
v -1.47347093 -1.59024222 0.00000000
v -1.42063023 -1.60873198 0.00000000
v -1.60873198 -1.42063023 5.08000000
v -1.59024222 -1.47347093 5.08000000
v -1.56045787 -1.52087245 5.08000000
v -1.52087245 -1.56045787 5.08000000
v -1.47347093 -1.59024222 5.08000000
v -1.42063023 -1.60873198 5.08000000
v -3.14960000 2.51460000 1.27000000
v -3.14960000 2.51460000 4.57200000
v -3.14416749 2.59748413 4.57200000
v -3.12796290 2.67895009 4.57200000
v -3.10126350 2.75760398 4.57200000
v -3.06452613 2.83210000 4.57200000
v -3.01837937 2.90116351 4.57200000
v -2.96361281 2.96361281 4.57200000
v -2.90116351 3.01837937 4.57200000
v -2.83210000 3.06452613 4.57200000
v -2.75760398 3.10126350 4.57200000
v -2.67895009 3.12796290 4.57200000
v -2.59748413 3.14416749 4.57200000
v -2.51460000 3.14960000 4.57200000
v -2.51460000 3.14960000 1.27000000
v -2.59748413 3.14416749 1.27000000
v -2.67895009 3.12796290 1.27000000
v -2.75760398 3.10126350 1.27000000
v -2.83210000 3.06452613 1.27000000
v -2.90116351 3.01837937 1.27000000
v -2.96361281 2.96361281 1.27000000
v -3.01837937 2.90116351 1.27000000
v -3.06452613 2.83210000 1.27000000
v -3.10126350 2.75760398 1.27000000
v -3.12796290 2.67895009 1.27000000
v -3.14416749 2.59748413 1.27000000
v 2.51460000 3.14960000 1.27000000
v 2.51460000 3.14960000 4.57200000
v 2.59748413 3.14416749 4.57200000
v 2.67895009 3.12796290 4.57200000
v 2.75760398 3.10126350 4.57200000
v 2.83210000 3.06452613 4.57200000
v 2.90116351 3.01837937 4.57200000
v 2.96361281 2.96361281 4.57200000
v 3.01837937 2.90116351 4.57200000
v 3.06452613 2.83210000 4.57200000
v 3.10126350 2.75760398 4.57200000
v 3.12796290 2.67895009 4.57200000
v 3.14416749 2.59748413 4.57200000
v 3.14960000 2.51460000 4.57200000
v 3.14960000 2.51460000 1.27000000
v 3.14416749 2.59748413 1.27000000
v 3.12796290 2.67895009 1.27000000
v 3.10126350 2.75760398 1.27000000
v 3.06452613 2.83210000 1.27000000
v 3.01837937 2.90116351 1.27000000
v 2.96361281 2.96361281 1.27000000
v 2.90116351 3.01837937 1.27000000
v 2.83210000 3.06452613 1.27000000
v 2.75760398 3.10126350 1.27000000
v 2.67895009 3.12796290 1.27000000
v 2.59748413 3.14416749 1.27000000
v 3.14960000 -2.51460000 1.27000000
v 3.14960000 -2.51460000 4.57200000
v 3.14416749 -2.59748413 4.57200000
v 3.12796290 -2.67895009 4.57200000
v 3.10126350 -2.75760398 4.57200000
v 3.06452613 -2.83210000 4.57200000
v 3.01837937 -2.90116351 4.57200000
v 2.96361281 -2.96361281 4.57200000
v 2.90116351 -3.01837937 4.57200000
v 2.83210000 -3.06452613 4.57200000
v 2.75760398 -3.10126350 4.57200000
v 2.67895009 -3.12796290 4.57200000
v 2.59748413 -3.14416749 4.57200000
v 2.51460000 -3.14960000 4.57200000
v 2.51460000 -3.14960000 1.27000000
v 2.59748413 -3.14416749 1.27000000
v 2.67895009 -3.12796290 1.27000000
v 2.75760398 -3.10126350 1.27000000
v 2.83210000 -3.06452613 1.27000000
v 2.90116351 -3.01837937 1.27000000
v 2.96361281 -2.96361281 1.27000000
v 3.01837937 -2.90116351 1.27000000
v 3.06452613 -2.83210000 1.27000000
v 3.10126350 -2.75760398 1.27000000
v 3.12796290 -2.67895009 1.27000000
v 3.14416749 -2.59748413 1.27000000
v -2.51460000 -3.14960000 1.27000000
v -2.51460000 -3.14960000 4.57200000
v -2.59748413 -3.14416749 4.57200000
v -2.67895009 -3.12796290 4.57200000
v -2.75760398 -3.10126350 4.57200000
v -2.83210000 -3.06452613 4.57200000
v -2.90116351 -3.01837937 4.57200000
v -2.96361281 -2.96361281 4.57200000
v -3.01837937 -2.90116351 4.57200000
v -3.06452613 -2.83210000 4.57200000
v -3.10126350 -2.75760398 4.57200000
v -3.12796290 -2.67895009 4.57200000
v -3.14416749 -2.59748413 4.57200000
v -3.14960000 -2.51460000 4.57200000
v -3.14960000 -2.51460000 1.27000000
v -3.14416749 -2.59748413 1.27000000
v -3.12796290 -2.67895009 1.27000000
v -3.10126350 -2.75760398 1.27000000
v -3.06452613 -2.83210000 1.27000000
v -3.01837937 -2.90116351 1.27000000
v -2.96361281 -2.96361281 1.27000000
v -2.90116351 -3.01837937 1.27000000
v -2.83210000 -3.06452613 1.27000000
v -2.75760398 -3.10126350 1.27000000
v -2.67895009 -3.12796290 1.27000000
v -2.59748413 -3.14416749 1.27000000
v -2.51460000 -3.14525399 4.63830731
v -2.51460000 -3.13229032 4.70348008
v -2.51460000 -3.11093080 4.76640318
v -2.51460000 -3.08154090 4.82600000
v -2.51460000 -3.04462350 4.88125081
v -2.51460000 -3.00081024 4.93121025
v -2.51460000 -2.95085080 4.97502350
v -2.51460000 -2.89560000 5.01194091
v -2.51460000 -2.83600318 5.04133080
v -2.51460000 -2.77308007 5.06269032
v -2.51460000 -2.70790730 5.07565399
v -2.51460000 -2.64160000 5.08000000
v 2.51460000 -2.64160000 5.08000000
v 2.51460000 -2.70790730 5.07565399
v 2.51460000 -2.77308007 5.06269032
v 2.51460000 -2.83600318 5.04133080
v 2.51460000 -2.89560000 5.01194091
v 2.51460000 -2.95085080 4.97502350
v 2.51460000 -3.00081024 4.93121025
v 2.51460000 -3.04462350 4.88125081
v 2.51460000 -3.08154090 4.82600000
v 2.51460000 -3.11093080 4.76640318
v 2.51460000 -3.13229032 4.70348008
v 2.51460000 -3.14525399 4.63830731
v 2.64160000 -2.51460000 5.08000000
v 2.70790731 -2.51460000 5.07565399
v 2.77308007 -2.51460000 5.06269032
v 2.83600318 -2.51460000 5.04133080
v 2.89560000 -2.51460000 5.01194091
v 2.95085081 -2.51460000 4.97502350
v 3.00081024 -2.51460000 4.93121024
v 3.04462350 -2.51460000 4.88125081
v 3.08154091 -2.51460000 4.82600000
v 3.11093080 -2.51460000 4.76640318
v 3.13229032 -2.51460000 4.70348007
v 3.14525399 -2.51460000 4.63830731
v 2.56320080 -2.63193270 5.08000000
v 2.60440256 -2.60440256 5.08000000
v 2.63193270 -2.56320080 5.08000000
v 2.70419296 -2.55231238 5.07565399
v 2.76811345 -2.56502696 5.06269032
v 2.69319266 -2.58857550 5.07565399
v 2.82982751 -2.57730265 5.04133080
v 2.75340445 -2.61351604 5.06269032
v 2.67532915 -2.62199578 5.07565399
v 2.88827919 -2.58892941 5.01194091
v 2.81153782 -2.63759567 5.04133080
v 2.72951833 -2.65820383 5.06269032
v 2.65128891 -2.65128891 5.07565399
v 2.94246837 -2.59970831 4.97502350
v 2.86659810 -2.66040239 5.01194091
v 2.78183698 -2.69316204 5.04133080
v 2.69737301 -2.69737301 5.06269032
v 2.62199578 -2.67532915 5.07565399
v 2.99146785 -2.60945491 4.93121025
v 2.91764319 -2.68154596 4.97502350
v 2.83138992 -2.72627226 5.01194091
v 2.74186637 -2.74186637 5.04133080
v 2.65820383 -2.72951833 5.06269032
v 3.03443924 -2.61800245 4.88125081
v 2.58857550 -2.69319266 5.07565399
v 2.96379969 -2.70066461 4.93121025
v 2.87732929 -2.75696796 4.97502350
v 2.78400768 -2.78400768 5.01194091
v 2.69316204 -2.78183698 5.04133080
v 3.07064729 -2.62520468 4.82600000
v 2.61351604 -2.75340445 5.06269032
v 3.00427786 -2.71743121 4.88125081
v 2.55231238 -2.70419296 5.07565399
v 2.91886904 -2.78472394 4.93121025
v 2.82307590 -2.82307590 4.97502350
v 2.72627226 -2.83138992 5.01194091
v 3.09947247 -2.63093837 4.76640318
v 2.63759567 -2.81153782 5.04133080
v 3.03838510 -2.73155889 4.82600000
v 2.56502696 -2.76811345 5.06269032
v 2.95529843 -2.80906528 4.88125081
v 2.85840256 -2.85840256 4.93121025
v 2.75696796 -2.87732929 4.97502350
v 3.12042157 -2.63510540 4.70348008
v 2.66040239 -2.86659810 5.01194091
v 3.06553782 -2.74280592 4.76640318
v 2.57730265 -2.82982751 5.04133080
v 2.98599413 -2.82957549 4.82600000
v 2.88938321 -2.88938321 4.88125081
v 2.78472394 -2.91886904 4.93121025
v 3.13313615 -2.63763449 4.63830731
v 2.68154596 -2.91764319 4.97502350
v 3.08527144 -2.75097985 4.70348008
v 2.58892941 -2.88827919 5.01194091
v 3.01043094 -2.84590364 4.76640318
v 2.91548776 -2.91548776 4.82600000
v 2.80906528 -2.95529843 4.88125081
v 2.70066461 -2.96379969 4.93121025
v 3.09724831 -2.75594083 4.63830731
v 2.59970831 -2.94246837 4.97502350
v 3.02819073 -2.85777035 4.70348008
v 2.93626955 -2.93626955 4.76640318
v 2.82957549 -2.98599413 4.82600000
v 2.71743121 -3.00427786 4.88125081
v 2.60945491 -2.99146785 4.93121025
v 3.03896963 -2.86497258 4.63830731
v 2.95137301 -2.95137301 4.70348008
v 2.84590364 -3.01043094 4.76640318
v 2.73155889 -3.03838510 4.82600000
v 2.61800245 -3.03443924 4.88125081
v 2.96053971 -2.96053971 4.63830731
v 2.85777035 -3.02819073 4.70348008
v 2.74280592 -3.06553782 4.76640318
v 2.62520468 -3.07064729 4.82600000
v 2.86497258 -3.03896963 4.63830731
v 2.75097985 -3.08527144 4.70348008
v 2.63093837 -3.09947247 4.76640318
v 2.75594083 -3.09724831 4.63830731
v 2.63510540 -3.12042157 4.70348008
v 2.63763449 -3.13313615 4.63830731
v 2.64160000 2.51460000 5.08000000
v 2.70790730 2.51460000 5.07565399
v 2.77308007 2.51460000 5.06269032
v 2.83600318 2.51460000 5.04133080
v 2.89560000 2.51460000 5.01194091
v 2.95085080 2.51460000 4.97502350
v 3.00081024 2.51460000 4.93121025
v 3.04462350 2.51460000 4.88125081
v 3.08154090 2.51460000 4.82600000
v 3.11093080 2.51460000 4.76640318
v 3.13229032 2.51460000 4.70348008
v 3.14525399 2.51460000 4.63830731
v 2.51460000 2.64160000 5.08000000
v 2.51460000 2.70790731 5.07565399
v 2.51460000 2.77308007 5.06269032
v 2.51460000 2.83600318 5.04133080
v 2.51460000 2.89560000 5.01194091
v 2.51460000 2.95085081 4.97502350
v 2.51460000 3.00081024 4.93121024
v 2.51460000 3.04462350 4.88125081
v 2.51460000 3.08154091 4.82600000
v 2.51460000 3.11093080 4.76640318
v 2.51460000 3.13229032 4.70348007
v 2.51460000 3.14525399 4.63830731
v 2.63193270 2.56320080 5.08000000
v 2.60440256 2.60440256 5.08000000
v 2.56320080 2.63193270 5.08000000
v 2.55231238 2.70419296 5.07565399
v 2.56502696 2.76811345 5.06269032
v 2.58857550 2.69319266 5.07565399
v 2.57730265 2.82982751 5.04133080
v 2.61351604 2.75340445 5.06269032
v 2.62199578 2.67532915 5.07565399
v 2.58892941 2.88827919 5.01194091
v 2.63759567 2.81153782 5.04133080
v 2.65820383 2.72951833 5.06269032
v 2.65128891 2.65128891 5.07565399
v 2.59970831 2.94246837 4.97502350
v 2.66040239 2.86659810 5.01194091
v 2.69316204 2.78183698 5.04133080
v 2.69737301 2.69737301 5.06269032
v 2.67532915 2.62199578 5.07565399
v 2.60945491 2.99146785 4.93121025
v 2.68154596 2.91764319 4.97502350
v 2.72627226 2.83138992 5.01194091
v 2.74186637 2.74186637 5.04133080
v 2.72951833 2.65820383 5.06269032
v 2.61800245 3.03443924 4.88125081
v 2.69319266 2.58857550 5.07565399
v 2.70066461 2.96379969 4.93121025
v 2.75696796 2.87732929 4.97502350
v 2.78400768 2.78400768 5.01194091
v 2.78183698 2.69316204 5.04133080
v 2.62520468 3.07064729 4.82600000
v 2.75340445 2.61351604 5.06269032
v 2.71743121 3.00427786 4.88125081
v 2.70419296 2.55231238 5.07565399
v 2.78472394 2.91886904 4.93121025
v 2.82307590 2.82307590 4.97502350
v 2.83138992 2.72627226 5.01194091
v 2.63093837 3.09947247 4.76640318
v 2.81153782 2.63759567 5.04133080
v 2.73155889 3.03838510 4.82600000
v 2.76811345 2.56502696 5.06269032
v 2.80906528 2.95529843 4.88125081
v 2.85840256 2.85840256 4.93121025
v 2.87732929 2.75696796 4.97502350
v 2.63510540 3.12042157 4.70348008
v 2.86659810 2.66040239 5.01194091
v 2.74280592 3.06553782 4.76640318
v 2.82982751 2.57730265 5.04133080
v 2.82957549 2.98599413 4.82600000
v 2.88938321 2.88938321 4.88125081
v 2.91886904 2.78472394 4.93121025
v 2.63763449 3.13313615 4.63830731
v 2.91764319 2.68154596 4.97502350
v 2.75097985 3.08527144 4.70348008
v 2.88827919 2.58892941 5.01194091
v 2.84590364 3.01043094 4.76640318
v 2.91548776 2.91548776 4.82600000
v 2.95529843 2.80906528 4.88125081
v 2.96379969 2.70066461 4.93121025
v 2.75594083 3.09724831 4.63830731
v 2.94246837 2.59970831 4.97502350
v 2.85777035 3.02819073 4.70348008
v 2.93626955 2.93626955 4.76640318
v 2.98599413 2.82957549 4.82600000
v 3.00427786 2.71743121 4.88125081
v 2.99146785 2.60945491 4.93121025
v 2.86497258 3.03896963 4.63830731
v 2.95137301 2.95137301 4.70348008
v 3.01043094 2.84590364 4.76640318
v 3.03838510 2.73155889 4.82600000
v 3.03443924 2.61800245 4.88125081
v 2.96053971 2.96053971 4.63830731
v 3.02819073 2.85777035 4.70348008
v 3.06553782 2.74280592 4.76640318
v 3.07064729 2.62520468 4.82600000
v 3.03896963 2.86497258 4.63830731
v 3.08527144 2.75097985 4.70348008
v 3.09947247 2.63093837 4.76640318
v 3.09724831 2.75594083 4.63830731
v 3.12042157 2.63510540 4.70348008
v 3.13313615 2.63763449 4.63830731
v -2.51460000 2.64160000 5.08000000
v -2.51460000 2.70790730 5.07565399
v -2.51460000 2.77308007 5.06269032
v -2.51460000 2.83600318 5.04133080
v -2.51460000 2.89560000 5.01194091
v -2.51460000 2.95085080 4.97502350
v -2.51460000 3.00081024 4.93121025
v -2.51460000 3.04462350 4.88125081
v -2.51460000 3.08154090 4.82600000
v -2.51460000 3.11093080 4.76640318
v -2.51460000 3.13229032 4.70348008
v -2.51460000 3.14525399 4.63830731
v -2.64160000 2.51460000 5.08000000
v -2.70790731 2.51460000 5.07565399
v -2.77308007 2.51460000 5.06269032
v -2.83600318 2.51460000 5.04133080
v -2.89560000 2.51460000 5.01194091
v -2.95085081 2.51460000 4.97502350
v -3.00081024 2.51460000 4.93121024
v -3.04462350 2.51460000 4.88125081
v -3.08154091 2.51460000 4.82600000
v -3.11093080 2.51460000 4.76640318
v -3.13229032 2.51460000 4.70348007
v -3.14525399 2.51460000 4.63830731
v -2.56320080 2.63193270 5.08000000
v -2.60440256 2.60440256 5.08000000
v -2.63193270 2.56320080 5.08000000
v -2.70419296 2.55231238 5.07565399
v -2.76811345 2.56502696 5.06269032
v -2.69319266 2.58857550 5.07565399
v -2.82982751 2.57730265 5.04133080
v -2.75340445 2.61351604 5.06269032
v -2.67532915 2.62199578 5.07565399
v -2.88827919 2.58892941 5.01194091
v -2.81153782 2.63759567 5.04133080
v -2.72951833 2.65820383 5.06269032
v -2.65128891 2.65128891 5.07565399
v -2.94246837 2.59970831 4.97502350
v -2.86659810 2.66040239 5.01194091
v -2.78183698 2.69316204 5.04133080
v -2.69737301 2.69737301 5.06269032
v -2.62199578 2.67532915 5.07565399
v -2.99146785 2.60945491 4.93121025
v -2.91764319 2.68154596 4.97502350
v -2.83138992 2.72627226 5.01194091
v -2.74186637 2.74186637 5.04133080
v -2.65820383 2.72951833 5.06269032
v -3.03443924 2.61800245 4.88125081
v -2.58857550 2.69319266 5.07565399
v -2.96379969 2.70066461 4.93121025
v -2.87732929 2.75696796 4.97502350
v -2.78400768 2.78400768 5.01194091
v -2.69316204 2.78183698 5.04133080
v -3.07064729 2.62520468 4.82600000
v -2.61351604 2.75340445 5.06269032
v -3.00427786 2.71743121 4.88125081
v -2.55231238 2.70419296 5.07565399
v -2.91886904 2.78472394 4.93121025
v -2.82307590 2.82307590 4.97502350
v -2.72627226 2.83138992 5.01194091
v -3.09947247 2.63093837 4.76640318
v -2.63759567 2.81153782 5.04133080
v -3.03838510 2.73155889 4.82600000
v -2.56502696 2.76811345 5.06269032
v -2.95529843 2.80906528 4.88125081
v -2.85840256 2.85840256 4.93121025
v -2.75696796 2.87732929 4.97502350
v -3.12042157 2.63510540 4.70348008
v -2.66040239 2.86659810 5.01194091
v -3.06553782 2.74280592 4.76640318
v -2.57730265 2.82982751 5.04133080
v -2.98599413 2.82957549 4.82600000
v -2.88938321 2.88938321 4.88125081
v -2.78472394 2.91886904 4.93121025
v -3.13313615 2.63763449 4.63830731
v -2.68154596 2.91764319 4.97502350
v -3.08527144 2.75097985 4.70348008
v -2.58892941 2.88827919 5.01194091
v -3.01043094 2.84590364 4.76640318
v -2.91548776 2.91548776 4.82600000
v -2.80906528 2.95529843 4.88125081
v -2.70066461 2.96379969 4.93121025
v -3.09724831 2.75594083 4.63830731
v -2.59970831 2.94246837 4.97502350
v -3.02819073 2.85777035 4.70348008
v -2.93626955 2.93626955 4.76640318
v -2.82957549 2.98599413 4.82600000
v -2.71743121 3.00427786 4.88125081
v -2.60945491 2.99146785 4.93121025
v -3.03896963 2.86497258 4.63830731
v -2.95137301 2.95137301 4.70348008
v -2.84590364 3.01043094 4.76640318
v -2.73155889 3.03838510 4.82600000
v -2.61800245 3.03443924 4.88125081
v -2.96053971 2.96053971 4.63830731
v -2.85777035 3.02819073 4.70348008
v -2.74280592 3.06553782 4.76640318
v -2.62520468 3.07064729 4.82600000
v -2.86497258 3.03896963 4.63830731
v -2.75097985 3.08527144 4.70348008
v -2.63093837 3.09947247 4.76640318
v -2.75594083 3.09724831 4.63830731
v -2.63510540 3.12042157 4.70348008
v -2.63763449 3.13313615 4.63830731
v -2.64160000 -2.51460000 5.08000000
v -2.70790730 -2.51460000 5.07565399
v -2.77308007 -2.51460000 5.06269032
v -2.83600318 -2.51460000 5.04133080
v -2.89560000 -2.51460000 5.01194091
v -2.95085080 -2.51460000 4.97502350
v -3.00081024 -2.51460000 4.93121025
v -3.04462350 -2.51460000 4.88125081
v -3.08154090 -2.51460000 4.82600000
v -3.11093080 -2.51460000 4.76640318
v -3.13229032 -2.51460000 4.70348008
v -3.14525399 -2.51460000 4.63830731
v -2.63193270 -2.56320080 5.08000000
v -2.60440256 -2.60440256 5.08000000
v -2.56320080 -2.63193270 5.08000000
v -2.55231238 -2.70419296 5.07565399
v -2.56502696 -2.76811345 5.06269032
v -2.58857550 -2.69319266 5.07565399
v -2.57730265 -2.82982751 5.04133080
v -2.61351604 -2.75340445 5.06269032
v -2.62199578 -2.67532915 5.07565399
v -2.58892941 -2.88827919 5.01194091
v -2.63759567 -2.81153782 5.04133080
v -2.65820383 -2.72951833 5.06269032
v -2.65128891 -2.65128891 5.07565399
v -2.59970831 -2.94246837 4.97502350
v -2.66040239 -2.86659810 5.01194091
v -2.69316204 -2.78183698 5.04133080
v -2.69737301 -2.69737301 5.06269032
v -2.67532915 -2.62199578 5.07565399
v -2.60945491 -2.99146785 4.93121025
v -2.68154596 -2.91764319 4.97502350
v -2.72627226 -2.83138992 5.01194091
v -2.74186637 -2.74186637 5.04133080
v -2.72951833 -2.65820383 5.06269032
v -2.61800245 -3.03443924 4.88125081
v -2.69319266 -2.58857550 5.07565399
v -2.70066461 -2.96379969 4.93121025
v -2.75696796 -2.87732929 4.97502350
v -2.78400768 -2.78400768 5.01194091
v -2.78183698 -2.69316204 5.04133080
v -2.62520468 -3.07064729 4.82600000
v -2.75340445 -2.61351604 5.06269032
v -2.71743121 -3.00427786 4.88125081
v -2.70419296 -2.55231238 5.07565399
v -2.78472394 -2.91886904 4.93121025
v -2.82307590 -2.82307590 4.97502350
v -2.83138992 -2.72627226 5.01194091
v -2.63093837 -3.09947247 4.76640318
v -2.81153782 -2.63759567 5.04133080
v -2.73155889 -3.03838510 4.82600000
v -2.76811345 -2.56502696 5.06269032
v -2.80906528 -2.95529843 4.88125081
v -2.85840256 -2.85840256 4.93121025
v -2.87732929 -2.75696796 4.97502350
v -2.63510540 -3.12042157 4.70348008
v -2.86659810 -2.66040239 5.01194091
v -2.74280592 -3.06553782 4.76640318
v -2.82982751 -2.57730265 5.04133080
v -2.82957549 -2.98599413 4.82600000
v -2.88938321 -2.88938321 4.88125081
v -2.91886904 -2.78472394 4.93121025
v -2.63763449 -3.13313615 4.63830731
v -2.91764319 -2.68154596 4.97502350
v -2.75097985 -3.08527144 4.70348008
v -2.88827919 -2.58892941 5.01194091
v -2.84590364 -3.01043094 4.76640318
v -2.91548776 -2.91548776 4.82600000
v -2.95529843 -2.80906528 4.88125081
v -2.96379969 -2.70066461 4.93121025
v -2.75594083 -3.09724831 4.63830731
v -2.94246837 -2.59970831 4.97502350
v -2.85777035 -3.02819073 4.70348008
v -2.93626955 -2.93626955 4.76640318
v -2.98599413 -2.82957549 4.82600000
v -3.00427786 -2.71743121 4.88125081
v -2.99146785 -2.60945491 4.93121025
v -2.86497258 -3.03896963 4.63830731
v -2.95137301 -2.95137301 4.70348008
v -3.01043094 -2.84590364 4.76640318
v -3.03838510 -2.73155889 4.82600000
v -3.03443924 -2.61800245 4.88125081
v -2.96053971 -2.96053971 4.63830731
v -3.02819073 -2.85777035 4.70348008
v -3.06553782 -2.74280592 4.76640318
v -3.07064729 -2.62520468 4.82600000
v -3.03896963 -2.86497258 4.63830731
v -3.08527144 -2.75097985 4.70348008
v -3.09947247 -2.63093837 4.76640318
v -3.09724831 -2.75594083 4.63830731
v -3.12042157 -2.63510540 4.70348008
v -3.13313615 -2.63763449 4.63830731
v 0.00000000 5.01650000 1.27000000
v 0.69816186 4.96767977 1.27000000
v 1.38273480 4.82216930 1.27000000
v 2.04039437 4.58280079 1.27000000
v 2.65833999 4.25423327 1.27000000
v 3.22454404 3.84286195 1.27000000
v 3.72798602 3.35669369 1.27000000
v 4.15886698 2.80519120 1.27000000
v 4.50880033 2.19908886 1.27000000
v 4.77097501 1.55018375 1.27000000
v 4.94028809 0.87110608 1.27000000
v 5.01344408 0.17507333 1.27000000
v 4.98901909 -0.52436704 1.27000000
v 4.86748851 -1.21360119 1.27000000
v 4.65121781 -1.87921398 1.27000000
v 4.34441644 -2.50825000 1.27000000
v 3.95305595 -3.08846579 1.27000000
v 3.48475372 -3.60856811 1.27000000
v 2.94862472 -4.05843375 1.27000000
v 2.35510409 -4.42930660 1.27000000
v 1.71574405 -4.71396803 1.27000000
v 1.04298900 -4.90687744 1.27000000
v 0.34993335 -5.00428006 1.27000000
v -0.34993335 -5.00428006 1.27000000
v -1.04298900 -4.90687744 1.27000000
v -1.71574405 -4.71396803 1.27000000
v -2.35510409 -4.42930660 1.27000000
v -2.94862472 -4.05843375 1.27000000
v -3.48475372 -3.60856811 1.27000000
v -3.95305595 -3.08846579 1.27000000
v -4.34441644 -2.50825000 1.27000000
v -4.65121781 -1.87921398 1.27000000
v -4.86748851 -1.21360119 1.27000000
v -4.98901909 -0.52436704 1.27000000
v -5.01344408 0.17507333 1.27000000
v -4.94028809 0.87110608 1.27000000
v -4.77097501 1.55018375 1.27000000
v -4.50880033 2.19908886 1.27000000
v -4.15886698 2.80519120 1.27000000
v -3.72798602 3.35669369 1.27000000
v -3.22454404 3.84286195 1.27000000
v -2.65833999 4.25423327 1.27000000
v -2.04039437 4.58280079 1.27000000
v -1.38273480 4.82216930 1.27000000
v -0.69816186 4.96767977 1.27000000
v 0.00000000 5.01650000 0.00000000
v -0.69816186 4.96767977 0.00000000
v -1.38273480 4.82216930 0.00000000
v -2.04039437 4.58280079 0.00000000
v -2.65833999 4.25423327 0.00000000
v -3.22454404 3.84286195 0.00000000
v -3.72798602 3.35669369 0.00000000
v -4.15886698 2.80519120 0.00000000
v -4.50880033 2.19908886 0.00000000
v -4.77097501 1.55018375 0.00000000
v -4.94028809 0.87110608 0.00000000
v -5.01344408 0.17507333 0.00000000
v -4.98901909 -0.52436704 0.00000000
v -4.86748851 -1.21360119 0.00000000
v -4.65121781 -1.87921398 0.00000000
v -4.34441644 -2.50825000 0.00000000
v -3.95305595 -3.08846579 0.00000000
v -3.48475372 -3.60856811 0.00000000
v -2.94862472 -4.05843375 0.00000000
v -2.35510409 -4.42930660 0.00000000
v -1.71574405 -4.71396803 0.00000000
v -1.04298900 -4.90687744 0.00000000
v -0.34993335 -5.00428006 0.00000000
v 0.34993335 -5.00428006 0.00000000
v 1.04298900 -4.90687744 0.00000000
v 1.71574405 -4.71396803 0.00000000
v 2.35510409 -4.42930660 0.00000000
v 2.94862472 -4.05843375 0.00000000
v 3.48475372 -3.60856811 0.00000000
v 3.95305595 -3.08846579 0.00000000
v 4.34441644 -2.50825000 0.00000000
v 4.65121781 -1.87921398 0.00000000
v 4.86748851 -1.21360119 0.00000000
v 4.98901909 -0.52436704 0.00000000
v 5.01344408 0.17507333 0.00000000
v 4.94028809 0.87110608 0.00000000
v 4.77097501 1.55018375 0.00000000
v 4.50880033 2.19908886 0.00000000
v 4.15886698 2.80519120 0.00000000
v 3.72798602 3.35669369 0.00000000
v 3.22454404 3.84286195 0.00000000
v 2.65833999 4.25423327 0.00000000
v 2.04039437 4.58280079 0.00000000
v 1.38273480 4.82216930 0.00000000
v 0.69816186 4.96767977 0.00000000
f 4 1 2
f 4 3 1
f 13 3 4
f 13 5 3
f 14 6 5
f 14 5 13
f 15 7 6
f 15 6 14
f 16 8 7
f 16 7 15
f 17 9 8
f 17 8 16
f 18 10 9
f 18 11 10
f 18 9 17
f 12 11 18
f 20 11 12
f 20 19 11
f 29 19 20
f 29 21 19
f 30 22 21
f 30 21 29
f 31 23 22
f 31 22 30
f 32 24 23
f 32 23 31
f 33 25 24
f 33 24 32
f 34 26 25
f 34 27 26
f 34 25 33
f 28 27 34
f 36 27 28
f 36 35 27
f 45 35 36
f 45 37 35
f 46 38 37
f 46 37 45
f 47 39 38
f 47 38 46
f 48 40 39
f 48 39 47
f 49 41 40
f 49 40 48
f 50 42 41
f 50 43 42
f 50 41 49
f 44 43 50
f 52 43 44
f 52 51 43
f 59 51 52
f 59 53 51
f 60 54 53
f 60 53 59
f 61 55 54
f 61 54 60
f 62 56 55
f 62 55 61
f 63 57 56
f 63 56 62
f 64 58 57
f 64 1 58
f 64 57 63
f 2 1 64
f 90 65 66
f 90 66 67
f 89 67 68
f 89 68 69
f 89 90 67
f 88 69 70
f 88 89 69
f 87 70 71
f 87 88 70
f 86 71 72
f 86 87 71
f 85 72 73
f 85 86 72
f 84 73 74
f 84 85 73
f 83 74 75
f 83 84 74
f 82 75 76
f 82 83 75
f 81 82 76
f 80 76 77
f 80 77 78
f 80 81 76
f 79 80 78
f 91 92 93
f 116 93 94
f 116 91 93
f 115 94 95
f 115 116 94
f 114 95 96
f 114 115 95
f 113 96 97
f 113 114 96
f 112 97 98
f 112 113 97
f 111 98 99
f 111 112 98
f 110 99 100
f 110 111 99
f 109 100 101
f 109 110 100
f 108 101 102
f 108 109 101
f 107 102 103
f 107 108 102
f 106 103 104
f 106 107 103
f 105 106 104
f 117 118 119
f 142 119 120
f 142 117 119
f 141 120 121
f 141 142 120
f 140 121 122
f 140 141 121
f 139 122 123
f 139 140 122
f 138 123 124
f 138 139 123
f 137 124 125
f 137 138 124
f 136 125 126
f 136 137 125
f 135 126 127
f 135 136 126
f 134 127 128
f 134 135 127
f 133 128 129
f 133 134 128
f 132 133 129
f 131 129 130
f 131 132 129
f 168 143 144
f 168 144 145
f 167 145 146
f 167 168 145
f 166 146 147
f 166 167 146
f 165 147 148
f 165 166 147
f 164 148 149
f 164 165 148
f 163 149 150
f 163 164 149
f 162 150 151
f 162 163 150
f 161 151 152
f 161 162 151
f 160 152 153
f 160 161 152
f 159 153 154
f 159 160 153
f 158 154 155
f 158 155 156
f 158 159 154
f 157 158 156
f 66 157 156
f 66 65 157
f 92 79 78
f 92 91 79
f 118 105 104
f 118 117 105
f 143 131 130
f 144 143 130
f 144 130 192
f 169 192 191
f 169 144 192
f 170 191 190
f 170 169 191
f 171 190 189
f 171 170 190
f 172 189 188
f 172 171 189
f 173 188 187
f 173 172 188
f 174 173 187
f 175 187 186
f 175 174 187
f 176 186 185
f 176 175 186
f 177 185 184
f 177 176 185
f 178 184 183
f 178 177 184
f 179 183 182
f 179 178 183
f 180 182 181
f 180 179 182
f 119 118 204
f 130 129 192
f 208 194 193
f 208 193 207
f 209 195 194
f 209 194 208
f 210 208 207
f 211 195 209
f 211 196 195
f 212 208 210
f 212 209 208
f 213 210 207
f 213 207 206
f 214 197 196
f 214 196 211
f 215 209 212
f 215 211 209
f 216 212 210
f 216 210 213
f 217 213 206
f 218 198 197
f 218 197 214
f 219 214 211
f 219 211 215
f 220 215 212
f 220 212 216
f 221 216 213
f 221 213 217
f 222 206 205
f 222 217 206
f 223 199 198
f 223 198 218
f 224 218 214
f 224 214 219
f 225 215 220
f 225 219 215
f 226 216 221
f 226 220 216
f 227 217 222
f 227 221 217
f 228 199 223
f 228 200 199
f 229 222 205
f 230 223 218
f 230 218 224
f 231 224 219
f 231 219 225
f 232 225 220
f 232 220 226
f 233 226 221
f 233 221 227
f 234 201 200
f 234 200 228
f 235 222 229
f 235 227 222
f 236 223 230
f 236 228 223
f 237 181 182
f 237 205 181
f 237 229 205
f 238 230 224
f 238 224 231
f 239 225 232
f 239 231 225
f 240 226 233
f 240 232 226
f 241 202 201
f 241 201 234
f 242 233 227
f 242 227 235
f 243 234 228
f 243 228 236
f 244 182 183
f 244 235 229
f 244 229 237
f 244 237 182
f 245 236 230
f 245 230 238
f 246 238 231
f 246 231 239
f 247 239 232
f 247 232 240
f 248 203 202
f 248 202 241
f 249 240 233
f 249 233 242
f 250 241 234
f 250 234 243
f 251 183 184
f 251 244 183
f 251 242 235
f 251 235 244
f 252 236 245
f 252 243 236
f 253 238 246
f 253 245 238
f 254 239 247
f 254 246 239
f 255 120 119
f 255 204 203
f 255 119 204
f 255 203 248
f 256 240 249
f 256 247 240
f 257 241 250
f 257 248 241
f 258 184 185
f 258 242 251
f 258 251 184
f 258 249 242
f 259 250 243
f 259 243 252
f 260 252 245
f 260 245 253
f 261 253 246
f 261 246 254
f 262 254 247
f 262 247 256
f 263 121 120
f 263 122 121
f 263 255 248
f 263 248 257
f 263 120 255
f 264 185 186
f 264 256 249
f 264 249 258
f 264 258 185
f 265 250 259
f 265 257 250
f 266 259 252
f 266 252 260
f 267 260 253
f 267 253 261
f 268 261 254
f 268 254 262
f 269 186 187
f 269 256 264
f 269 262 256
f 269 264 186
f 270 123 122
f 270 263 257
f 270 257 265
f 270 122 263
f 271 265 259
f 271 259 266
f 272 260 267
f 272 266 260
f 272 271 266
f 273 267 261
f 273 261 268
f 274 187 188
f 274 269 187
f 274 268 262
f 274 262 269
f 275 123 270
f 275 124 123
f 275 125 124
f 275 270 265
f 275 265 271
f 276 271 272
f 277 272 267
f 277 267 273
f 278 188 189
f 278 274 188
f 278 273 268
f 278 268 274
f 279 125 275
f 279 126 125
f 279 275 271
f 279 271 276
f 280 272 277
f 280 276 272
f 281 189 190
f 281 278 189
f 281 277 273
f 281 273 278
f 282 127 126
f 282 128 127
f 282 126 279
f 282 279 276
f 282 276 280
f 283 190 191
f 283 280 277
f 283 281 190
f 283 277 281
f 284 191 192
f 284 192 129
f 284 129 128
f 284 128 282
f 284 280 283
f 284 283 191
f 284 282 280
f 204 118 104
f 204 104 296
f 203 296 295
f 203 204 296
f 202 295 294
f 202 203 295
f 201 294 293
f 201 202 294
f 200 293 292
f 200 201 293
f 199 292 291
f 199 200 292
f 198 291 290
f 198 199 291
f 197 290 289
f 197 198 290
f 196 289 288
f 196 197 289
f 195 288 287
f 195 196 288
f 194 287 286
f 194 195 287
f 193 286 285
f 193 194 286
f 93 92 308
f 104 103 296
f 312 298 297
f 312 297 311
f 313 299 298
f 313 298 312
f 314 312 311
f 315 299 313
f 315 300 299
f 316 312 314
f 316 313 312
f 317 314 311
f 317 311 310
f 318 301 300
f 318 300 315
f 319 313 316
f 319 315 313
f 320 316 314
f 320 314 317
f 321 317 310
f 322 302 301
f 322 301 318
f 323 318 315
f 323 315 319
f 324 319 316
f 324 316 320
f 325 320 317
f 325 317 321
f 326 310 309
f 326 321 310
f 327 303 302
f 327 302 322
f 328 322 318
f 328 318 323
f 329 319 324
f 329 323 319
f 330 320 325
f 330 324 320
f 331 321 326
f 331 325 321
f 332 303 327
f 332 304 303
f 333 326 309
f 334 327 322
f 334 322 328
f 335 328 323
f 335 323 329
f 336 329 324
f 336 324 330
f 337 330 325
f 337 325 331
f 338 305 304
f 338 304 332
f 339 326 333
f 339 331 326
f 340 327 334
f 340 332 327
f 341 285 286
f 341 309 285
f 341 333 309
f 342 334 328
f 342 328 335
f 343 329 336
f 343 335 329
f 344 330 337
f 344 336 330
f 345 306 305
f 345 305 338
f 346 337 331
f 346 331 339
f 347 338 332
f 347 332 340
f 348 286 287
f 348 339 333
f 348 333 341
f 348 341 286
f 349 340 334
f 349 334 342
f 350 342 335
f 350 335 343
f 351 343 336
f 351 336 344
f 352 307 306
f 352 306 345
f 353 344 337
f 353 337 346
f 354 345 338
f 354 338 347
f 355 287 288
f 355 348 287
f 355 346 339
f 355 339 348
f 356 340 349
f 356 347 340
f 357 342 350
f 357 349 342
f 358 343 351
f 358 350 343
f 359 94 93
f 359 308 307
f 359 93 308
f 359 307 352
f 360 344 353
f 360 351 344
f 361 345 354
f 361 352 345
f 362 288 289
f 362 346 355
f 362 355 288
f 362 353 346
f 363 354 347
f 363 347 356
f 364 356 349
f 364 349 357
f 365 357 350
f 365 350 358
f 366 358 351
f 366 351 360
f 367 95 94
f 367 96 95
f 367 359 352
f 367 352 361
f 367 94 359
f 368 289 290
f 368 360 353
f 368 353 362
f 368 362 289
f 369 354 363
f 369 361 354
f 370 363 356
f 370 356 364
f 371 364 357
f 371 357 365
f 372 365 358
f 372 358 366
f 373 290 291
f 373 360 368
f 373 366 360
f 373 368 290
f 374 97 96
f 374 367 361
f 374 361 369
f 374 96 367
f 375 369 363
f 375 363 370
f 376 364 371
f 376 370 364
f 377 371 365
f 377 365 372
f 378 291 292
f 378 373 291
f 378 372 366
f 378 366 373
f 379 97 374
f 379 98 97
f 379 99 98
f 379 374 369
f 379 369 375
f 380 375 370
f 380 370 376
f 381 376 371
f 381 371 377
f 382 292 293
f 382 378 292
f 382 377 372
f 382 372 378
f 383 100 99
f 383 99 379
f 383 379 375
f 383 375 380
f 384 380 376
f 384 376 381
f 385 293 294
f 385 382 293
f 385 381 377
f 385 377 382
f 385 384 381
f 386 100 383
f 386 380 384
f 386 101 100
f 386 102 101
f 386 383 380
f 387 294 295
f 387 384 385
f 387 385 294
f 388 384 387
f 388 295 296
f 388 296 103
f 388 103 102
f 388 387 295
f 388 386 384
f 388 102 386
f 308 92 78
f 308 78 400
f 307 400 399
f 307 308 400
f 306 399 398
f 306 307 399
f 305 398 397
f 305 306 398
f 304 397 396
f 304 305 397
f 303 396 395
f 303 304 396
f 302 395 394
f 302 303 395
f 301 394 393
f 301 302 394
f 300 393 392
f 300 301 393
f 299 392 391
f 299 300 392
f 298 391 390
f 298 299 391
f 297 390 389
f 297 298 390
f 67 66 412
f 78 77 400
f 416 402 401
f 416 401 415
f 417 403 402
f 417 402 416
f 418 416 415
f 419 403 417
f 419 404 403
f 420 416 418
f 420 417 416
f 421 418 415
f 421 415 414
f 422 405 404
f 422 404 419
f 423 417 420
f 423 419 417
f 424 420 418
f 424 418 421
f 425 421 414
f 426 406 405
f 426 405 422
f 427 422 419
f 427 419 423
f 428 423 420
f 428 420 424
f 429 424 421
f 429 421 425
f 430 414 413
f 430 425 414
f 431 407 406
f 431 406 426
f 432 426 422
f 432 422 427
f 433 423 428
f 433 427 423
f 434 424 429
f 434 428 424
f 435 425 430
f 435 429 425
f 436 407 431
f 436 408 407
f 437 430 413
f 438 431 426
f 438 426 432
f 439 432 427
f 439 427 433
f 440 433 428
f 440 428 434
f 441 434 429
f 441 429 435
f 442 409 408
f 442 408 436
f 443 430 437
f 443 435 430
f 444 431 438
f 444 436 431
f 445 389 390
f 445 413 389
f 445 437 413
f 446 438 432
f 446 432 439
f 447 433 440
f 447 439 433
f 448 434 441
f 448 440 434
f 449 410 409
f 449 409 442
f 450 441 435
f 450 435 443
f 451 442 436
f 451 436 444
f 452 390 391
f 452 443 437
f 452 437 445
f 452 445 390
f 453 444 438
f 453 438 446
f 454 446 439
f 454 439 447
f 455 447 440
f 455 440 448
f 456 411 410
f 456 410 449
f 457 448 441
f 457 441 450
f 458 449 442
f 458 442 451
f 459 391 392
f 459 452 391
f 459 450 443
f 459 443 452
f 460 444 453
f 460 451 444
f 461 446 454
f 461 453 446
f 462 447 455
f 462 454 447
f 463 68 67
f 463 412 411
f 463 67 412
f 463 411 456
f 464 448 457
f 464 455 448
f 465 449 458
f 465 456 449
f 466 392 393
f 466 450 459
f 466 459 392
f 466 457 450
f 467 458 451
f 467 451 460
f 467 465 458
f 468 460 453
f 468 453 461
f 469 461 454
f 469 454 462
f 470 462 455
f 470 455 464
f 471 69 68
f 471 70 69
f 471 463 456
f 471 456 465
f 471 68 463
f 472 393 394
f 472 464 457
f 472 457 466
f 472 466 393
f 473 465 467
f 474 467 460
f 474 460 468
f 475 468 461
f 475 461 469
f 476 469 462
f 476 462 470
f 477 394 395
f 477 464 472
f 477 470 464
f 477 472 394
f 478 71 70
f 478 471 465
f 478 465 473
f 478 70 471
f 479 473 467
f 479 467 474
f 480 468 475
f 480 474 468
f 481 475 469
f 481 469 476
f 482 395 396
f 482 477 395
f 482 476 470
f 482 470 477
f 483 72 71
f 483 73 72
f 483 71 478
f 483 478 473
f 483 473 479
f 484 479 474
f 484 474 480
f 485 480 475
f 485 475 481
f 486 396 397
f 486 482 396
f 486 481 476
f 486 476 482
f 487 73 483
f 487 74 73
f 487 483 479
f 487 479 484
f 488 484 480
f 488 480 485
f 489 397 398
f 489 485 481
f 489 486 397
f 489 481 486
f 490 75 74
f 490 76 75
f 490 74 487
f 490 487 484
f 490 484 488
f 491 398 399
f 491 488 485
f 491 489 398
f 491 485 489
f 492 399 400
f 492 76 490
f 492 400 77
f 492 77 76
f 492 491 399
f 492 488 491
f 492 490 488
f 412 66 156
f 412 156 504
f 411 504 503
f 411 412 504
f 410 503 502
f 410 411 503
f 409 502 501
f 409 410 502
f 408 501 500
f 408 409 501
f 407 500 499
f 407 408 500
f 406 499 498
f 406 407 499
f 405 498 497
f 405 406 498
f 404 497 496
f 404 405 497
f 403 496 495
f 403 404 496
f 402 495 494
f 402 403 495
f 401 494 493
f 401 402 494
f 145 144 169
f 156 155 504
f 508 179 180
f 508 180 507
f 509 178 179
f 509 179 508
f 510 508 507
f 511 178 509
f 511 177 178
f 512 508 510
f 512 509 508
f 513 510 507
f 513 507 506
f 514 176 177
f 514 177 511
f 515 509 512
f 515 511 509
f 516 512 510
f 516 510 513
f 517 513 506
f 518 175 176
f 518 176 514
f 519 514 511
f 519 511 515
f 520 512 516
f 520 515 512
f 521 513 517
f 521 516 513
f 522 506 505
f 522 517 506
f 523 174 175
f 523 175 518
f 524 514 519
f 524 518 514
f 525 515 520
f 525 519 515
f 526 516 521
f 526 520 516
f 527 521 517
f 527 517 522
f 528 173 174
f 528 174 523
f 529 522 505
f 530 523 518
f 530 518 524
f 531 524 519
f 531 519 525
f 532 520 526
f 532 525 520
f 533 521 527
f 533 526 521
f 534 172 173
f 534 173 528
f 535 522 529
f 535 527 522
f 536 528 523
f 536 523 530
f 537 493 494
f 537 505 493
f 537 529 505
f 538 524 531
f 538 530 524
f 539 531 525
f 539 525 532
f 540 532 526
f 540 526 533
f 541 171 172
f 541 172 534
f 542 533 527
f 542 527 535
f 543 528 536
f 543 534 528
f 544 494 495
f 544 537 494
f 544 535 529
f 544 529 537
f 545 536 530
f 545 530 538
f 546 531 539
f 546 538 531
f 547 532 540
f 547 539 532
f 548 169 170
f 548 170 171
f 548 171 541
f 549 540 533
f 549 533 542
f 550 541 534
f 550 534 543
f 551 495 496
f 551 544 495
f 551 549 542
f 551 542 535
f 551 535 544
f 552 536 545
f 552 543 536
f 553 545 538
f 553 538 546
f 554 546 539
f 554 539 547
f 555 146 145
f 555 145 169
f 555 169 548
f 556 547 540
f 556 540 549
f 557 541 550
f 557 548 541
f 558 496 497
f 558 549 551
f 558 551 496
f 559 550 543
f 559 543 552
f 560 545 553
f 560 552 545
f 561 553 546
f 561 546 554
f 562 547 556
f 562 554 547
f 563 147 146
f 563 148 147
f 563 555 548
f 563 548 557
f 563 146 555
f 564 497 498
f 564 556 549
f 564 549 558
f 564 558 497
f 565 550 559
f 565 557 550
f 566 559 552
f 566 552 560
f 567 553 561
f 567 560 553
f 568 561 554
f 568 554 562
f 569 562 556
f 569 498 499
f 569 556 564
f 569 564 498
f 570 148 563
f 570 149 148
f 570 563 557
f 570 557 565
f 571 565 559
f 571 559 566
f 572 566 560
f 572 560 567
f 573 561 568
f 573 572 567
f 573 567 561
f 574 499 500
f 574 569 499
f 574 562 569
f 574 568 562
f 575 150 149
f 575 151 150
f 575 570 565
f 575 149 570
f 575 565 571
f 576 566 572
f 576 571 566
f 577 572 573
f 578 500 501
f 578 574 500
f 578 573 568
f 578 568 574
f 579 575 571
f 579 571 576
f 579 152 151
f 579 151 575
f 580 576 572
f 580 572 577
f 581 501 502
f 581 578 501
f 581 577 573
f 581 573 578
f 582 153 152
f 582 154 153
f 582 579 576
f 582 152 579
f 582 576 580
f 583 502 503
f 583 580 577
f 583 581 502
f 583 577 581
f 584 503 504
f 584 504 155
f 584 155 154
f 584 583 503
f 584 154 582
f 584 580 583
f 584 582 580
f 84 624 85
f 84 625 624
f 86 85 624
f 87 86 624
f 83 625 84
f 88 87 624
f 82 625 83
f 81 625 82
f 89 88 624
f 89 624 623
f 90 89 623
f 80 625 81
f 80 626 625
f 65 90 623
f 65 621 620
f 65 622 621
f 65 623 622
f 79 626 80
f 79 627 626
f 79 628 627
f 79 629 628
f 619 65 620
f 585 629 79
f 91 586 585
f 91 587 586
f 91 588 587
f 91 589 588
f 91 585 79
f 157 615 614
f 157 616 615
f 157 617 616
f 157 65 619
f 157 618 617
f 157 619 618
f 158 157 614
f 116 590 589
f 116 589 91
f 159 158 614
f 115 590 116
f 160 159 614
f 114 590 115
f 113 590 114
f 161 160 614
f 112 590 113
f 613 162 161
f 613 163 162
f 613 164 163
f 613 161 614
f 165 164 613
f 166 165 613
f 591 109 108
f 591 110 109
f 591 111 110
f 591 112 111
f 591 590 112
f 107 591 108
f 612 167 166
f 612 168 167
f 612 143 168
f 612 166 613
f 592 591 107
f 592 106 105
f 592 107 106
f 611 143 612
f 593 592 105
f 610 143 611
f 594 593 105
f 609 143 610
f 595 594 105
f 608 143 609
f 596 595 105
f 117 597 596
f 117 596 105
f 131 608 607
f 131 143 608
f 606 131 607
f 598 597 117
f 605 131 606
f 599 598 117
f 604 131 605
f 600 599 117
f 603 132 131
f 603 133 132
f 603 134 133
f 603 131 604
f 601 140 139
f 601 141 140
f 601 142 141
f 601 117 142
f 601 600 117
f 602 135 134
f 602 136 135
f 602 137 136
f 602 138 137
f 602 139 138
f 602 134 603
f 602 601 139
f 401 389 413
f 401 413 414
f 401 414 415
f 47 389 401
f 47 401 48
f 46 389 47
f 49 48 401
f 50 49 401
f 45 389 46
f 36 389 45
f 44 50 401
f 28 389 36
f 493 59 52
f 493 52 44
f 493 44 401
f 297 28 34
f 297 389 28
f 33 297 34
f 60 59 493
f 32 297 33
f 61 60 493
f 31 297 32
f 180 493 505
f 180 505 506
f 180 506 507
f 180 62 61
f 180 63 62
f 180 61 493
f 285 297 31
f 285 309 310
f 285 310 311
f 285 311 297
f 285 31 30
f 29 285 30
f 64 63 180
f 20 285 29
f 2 64 180
f 12 285 20
f 193 285 12
f 193 16 15
f 193 17 16
f 193 18 17
f 193 12 18
f 181 2 180
f 181 193 15
f 181 13 4
f 181 14 13
f 181 15 14
f 181 4 2
f 207 193 181
f 206 181 205
f 206 207 181
f 39 636 635
f 39 40 636
f 41 637 636
f 41 636 40
f 38 635 634
f 38 39 635
f 37 634 633
f 37 38 634
f 42 638 637
f 42 637 41
f 43 639 638
f 43 640 639
f 43 641 640
f 43 638 42
f 35 631 630
f 35 632 631
f 35 37 633
f 35 633 632
f 27 35 630
f 27 673 672
f 27 674 673
f 27 630 674
f 51 642 641
f 51 643 642
f 51 644 643
f 51 645 644
f 51 641 43
f 53 645 51
f 26 27 672
f 26 672 671
f 25 671 670
f 25 26 671
f 54 646 645
f 54 645 53
f 55 646 54
f 24 25 670
f 647 646 55
f 647 55 56
f 669 24 670
f 669 22 23
f 669 23 24
f 648 647 56
f 648 56 57
f 648 57 58
f 668 21 22
f 668 22 669
f 649 58 1
f 649 648 58
f 667 19 21
f 667 21 668
f 650 649 1
f 666 19 667
f 651 650 1
f 665 19 666
f 652 651 1
f 652 1 3
f 664 11 19
f 664 19 665
f 653 652 3
f 663 11 664
f 654 653 3
f 662 11 663
f 655 654 3
f 661 11 662
f 656 655 3
f 656 3 5
f 660 11 661
f 660 9 10
f 660 10 11
f 657 656 5
f 657 5 6
f 657 6 7
f 659 9 660
f 659 8 9
f 658 657 7
f 658 8 659
f 658 7 8
f 674 630 585
f 674 585 586
f 673 674 586
f 673 586 587
f 672 673 587
f 672 587 588
f 671 672 588
f 671 588 589
f 670 671 589
f 670 589 590
f 669 670 590
f 669 590 591
f 668 669 591
f 668 591 592
f 667 668 592
f 667 592 593
f 666 667 593
f 666 593 594
f 665 666 594
f 665 594 595
f 664 665 595
f 664 595 596
f 663 664 596
f 663 596 597
f 662 663 597
f 662 597 598
f 661 662 598
f 661 598 599
f 660 661 599
f 660 599 600
f 659 600 601
f 659 660 600
f 658 601 602
f 658 659 601
f 657 602 603
f 657 658 602
f 656 603 604
f 656 657 603
f 655 604 605
f 655 656 604
f 654 605 606
f 654 655 605
f 653 606 607
f 653 654 606
f 652 607 608
f 652 653 607
f 651 608 609
f 651 652 608
f 650 609 610
f 650 651 609
f 649 610 611
f 649 611 612
f 649 650 610
f 648 649 612
f 647 648 612
f 647 612 613
f 646 647 613
f 646 613 614
f 645 646 614
f 645 614 615
f 644 645 615
f 644 615 616
f 643 644 616
f 643 616 617
f 642 643 617
f 642 617 618
f 641 642 618
f 641 618 619
f 640 641 619
f 640 619 620
f 640 620 621
f 639 640 621
f 638 639 621
f 638 621 622
f 637 638 622
f 637 622 623
f 636 637 623
f 636 623 624
f 635 636 624
f 635 624 625
f 634 635 625
f 634 625 626
f 633 634 626
f 633 626 627
f 632 633 627
f 632 627 628
f 631 632 628
f 631 628 629
f 630 631 629
f 630 629 585

