# https://github.com/mikedh/trimesh
v 0.00000000 -1.48748750 -38.10000000
v -0.20701825 -1.47301137 -38.10000000
v -0.41000712 -1.42986476 -38.10000000
v -0.60501567 -1.35888745 -38.10000000
v -0.78824828 -1.26146094 -38.10000000
v -0.95613853 -1.13948153 -38.10000000
v -1.10541864 -0.99532341 -38.10000000
v -1.23318303 -0.83179245 -38.10000000
v -1.33694491 -0.65207160 -38.10000000
v -1.41468468 -0.45965892 -38.10000000
v -1.46488922 -0.25829949 -38.10000000
v -1.48658136 -0.05191257 -38.10000000
v -1.47933889 0.15548478 -38.10000000
v -1.44330276 0.35985580 -38.10000000
v -1.37917439 0.55722263 -38.10000000
v -1.28820196 0.74374375 -38.10000000
v -1.17215615 0.91578875 -38.10000000
v -1.03329564 1.07000896 -38.10000000
v -0.87432322 1.20340267 -38.10000000
v -0.69833308 1.31337351 -38.10000000
v -0.50875069 1.39778103 -38.10000000
v -0.30926604 1.45498233 -38.10000000
v -0.10376188 1.48386406 -38.10000000
v 0.10376188 1.48386406 -38.10000000
v 0.30926604 1.45498233 -38.10000000
v 0.50875069 1.39778103 -38.10000000
v 0.69833308 1.31337351 -38.10000000
v 0.87432322 1.20340267 -38.10000000
v 1.03329564 1.07000896 -38.10000000
v 1.17215615 0.91578875 -38.10000000
v 1.28820196 0.74374375 -38.10000000
v 1.37917439 0.55722263 -38.10000000
v 1.44330276 0.35985580 -38.10000000
v 1.47933889 0.15548478 -38.10000000
v 1.48658136 -0.05191257 -38.10000000
v 1.46488922 -0.25829949 -38.10000000
v 1.41468468 -0.45965892 -38.10000000
v 1.33694491 -0.65207160 -38.10000000
v 1.23318303 -0.83179245 -38.10000000
v 1.10541864 -0.99532341 -38.10000000
v 0.95613853 -1.13948153 -38.10000000
v 0.78824828 -1.26146094 -38.10000000
v 0.60501567 -1.35888745 -38.10000000
v 0.41000712 -1.42986476 -38.10000000
v 0.20701825 -1.47301137 -38.10000000
v 1.32963693 0.45777428 2.06554552
v 1.24179219 0.26484855 1.99304802
v 1.20650362 0.10711094 1.96173437
v 1.20172629 -0.07510921 1.95750781
v 1.25087075 -0.29347235 2.00086029
v 1.32607469 -0.44850432 2.06247551
v 1.40355303 -0.55734446 2.12126115
v 1.42453825 -0.58238614 0.65978597
v 1.31855279 -0.43989895 0.60616541
v 1.23195169 -0.23711397 0.55578515
v 1.19817571 -0.00991583 0.53530170
v 1.22648366 0.21621863 0.55308935
v 1.29256988 0.38756262 0.59099964
v 1.35220433 0.49005708 0.62317632
v 1.45180499 0.83820000 2.20980000
v 1.47582556 0.77362581 2.20448799
v 1.47817752 0.70305341 2.18883987
v 1.45628069 0.62885289 2.16127485
v 1.45695638 0.62886460 0.67716050
v 1.47824385 0.71086425 0.69679585
v 1.47435610 0.77850665 0.70655352
v 1.42303408 0.87613281 0.70793338
v 1.32739949 0.93538046 0.69081440
v 1.21663032 0.94249324 0.65978597
v 1.26920210 0.94734803 2.16000720
v 1.34794958 0.92865518 2.18885006
v 1.40792626 0.89128930 2.20450188
v 0.00000000 1.67640000 2.20980000
v 0.06793318 1.66491533 2.20448799
v 0.13022665 1.63166599 2.18883987
v 0.18357873 1.57553615 2.16124466
v 0.18392840 1.57606113 0.67711701
v 0.12336139 1.63562398 0.69679416
v 0.06274969 1.66608231 0.70655321
v -0.04747673 1.67044737 0.70793244
v -0.14646407 1.61723996 0.69081028
v -0.20790793 1.52487938 0.65978597
v -0.18584180 1.57281052 2.15999591
v -0.13026419 1.63168617 2.18885006
v -0.06791604 1.66494456 2.20450188
v -1.45180499 0.83820000 2.20980000
v -1.40789238 0.89128952 2.20448799
v -1.34795087 0.92861258 2.18883987
v -1.27270365 0.94675287 2.16126036
v -1.27306868 0.94733204 0.67715507
v -1.35474843 0.92476460 0.69679585
v -1.41138459 0.88757651 0.70655352
v -1.47027031 0.79431726 0.70793338
v -1.47376298 0.68187145 0.69081440
v -1.42453825 0.58238614 0.65978597
v -1.45500172 0.62542904 2.15998361
v -1.47821377 0.70303098 2.18885006
v -1.47584231 0.77365526 2.20450188
v -1.37681908 -0.52083141 2.10107989
v -1.24179219 -0.26484855 1.99304802
v -1.20650362 -0.10711094 1.96173437
v -1.20172629 0.07510921 1.95750781
v -1.25087075 0.29347235 2.00086029
v -1.37244549 0.51852991 2.09824390
v -1.42453825 -0.58238614 0.65978597
v -1.31833918 0.43954013 0.60628535
v -1.23162021 0.23590554 0.55612148
v -1.20329350 0.07499281 0.53803711
v -1.20164221 -0.05109869 0.53746068
v -1.22689137 -0.21790187 0.55263179
v -1.29256988 -0.38756262 0.59099964
v -1.35220433 -0.49005708 0.62317632
v -0.20790793 -1.52487938 2.13653646
v -0.26837431 -1.38038648 2.06554551
v -0.39153056 -1.20784781 1.99304801
v -0.51049104 -1.09841824 1.96173437
v -0.62446356 -1.02566912 1.95625591
v -0.71858347 -0.98294951 1.96547431
v -0.82957075 -0.94879112 1.98840888
v -0.99023877 -0.92379509 2.03799021
v -1.14485500 -0.93026014 2.10264846
v -0.20790793 -1.52487938 0.65978597
v -1.11958140 -0.92705438 0.62868586
v -0.99383040 -0.92474362 0.59387737
v -0.81985104 -0.94872057 0.55584693
v -0.60689588 -1.03311115 0.53495473
v -0.46191993 -1.13918300 0.54736255
v -0.34742263 -1.25930164 0.57579982
v -0.25170028 -1.41607184 0.62317632
v 1.12534896 -0.92784122 2.09379163
v 0.99335732 -0.92531798 2.04003816
v 0.85026160 -0.94299931 1.99304800
v 0.69601260 -0.99130732 1.96173437
v 0.57602374 -1.05363586 1.95625591
v 0.49196751 -1.11378629 1.96547431
v 0.40689183 -1.19282490 1.98840888
v 0.33785046 -1.27513075 2.01965068
v 0.25353881 -1.40960367 2.07949263
v 0.20790793 -1.52487938 2.13653646
v 1.11219378 -0.92646020 0.62645966
v 0.20790793 -1.52487938 0.65978597
v 0.24978983 -1.41986449 0.62439337
v 0.33799360 -1.27087853 0.57888255
v 0.49733049 -1.10679297 0.54117690
v 0.63053421 -1.02245862 0.53645650
v 0.80041789 -0.95407455 0.55289756
v 0.98192402 -0.92561704 0.59099964
v 1.54879165 0.64153051 2.20980000
v 1.61927806 0.43388425 2.20980000
v 1.67635546 0.10991376 2.20979137
v 1.64570296 -0.34281724 2.20979120
v 1.54879165 -0.64153051 2.20980000
v 1.45180499 -0.83820000 2.20980000
v 1.46010005 -0.63746010 2.16549512
v 1.47821377 -0.70303098 2.18885006
v 1.47584231 -0.77365526 2.20450188
v 1.38959182 -0.37234000 2.08301929
v 1.43861131 0.00000000 2.08301929
v 1.38959182 0.37234000 2.08301929
v 0.21881411 1.66205817 2.20980000
v 0.43388425 1.61927806 2.20980000
v 0.74298967 1.50672327 2.20979137
v 1.11973992 1.25381194 2.20979120
v 1.32997754 1.02052766 2.20980000
v 0.26821491 1.38050440 2.06555608
v 0.37265727 1.23092000 2.00204838
v 0.47806267 1.12236176 1.96602612
v 0.66464638 1.00387297 1.95749087
v 0.87909151 0.93688654 2.00089972
v 1.13523294 0.92934182 2.09824721
v 1.00174804 0.92407791 2.04155055
v 0.71929731 1.24585949 2.08301040
v 0.37233569 1.38957570 2.08301040
v -1.32997754 1.02052766 2.20980000
v -1.18539381 1.18539381 2.20980000
v -0.93336579 1.39680957 2.20979137
v -0.52596304 1.59662919 2.20979120
v -0.21881411 1.66205817 2.20980000
v -1.06133178 0.92256749 2.06553976
v -0.87920547 0.93837376 2.00199215
v -0.73235468 0.97550137 1.96599875
v -0.53642761 1.07792190 1.95750385
v -0.37152319 1.22994888 2.00090603
v -0.23717681 1.44786261 2.09826447
v -0.29929259 1.32961620 2.04153844
v -0.71930232 1.24586817 2.08301575
v -1.01724710 1.01724710 2.08301575
v -1.45180499 -0.83820000 2.20980000
v -1.47582556 -0.77362581 2.20448799
v -1.47817752 -0.70305341 2.18883987
v -1.46010556 -0.63752338 2.16551251
v -1.54879165 -0.64153051 2.20980000
v -1.61927806 -0.43388425 2.20980000
v -1.67635546 -0.10991376 2.20979137
v -1.66205817 0.21881411 2.20980000
v -1.61927806 0.43388425 2.20980000
v -1.54879165 0.64153051 2.20980000
v -1.30106848 0.40569100 2.04150145
v -1.43861131 -0.00000000 2.08301929
v -1.29080265 -0.38385286 2.03320920
v 0.00000000 -1.67640000 2.20980000
v -0.06793318 -1.66491533 2.20448799
v -0.13022665 -1.63166599 2.18883987
v -0.17794134 -1.58325019 2.16551251
v -0.21881411 -1.66205817 2.20980000
v -0.43388425 -1.61927806 2.20980000
v -0.64153051 -1.54879165 2.20980000
v -0.83820000 -1.45180499 2.20980000
v -1.13126403 -1.24480366 2.20979847
v -1.32997754 -1.02052766 2.20980000
v -1.26266504 -0.94740000 2.15764153
v -1.36971863 -0.91868988 2.19541925
v -1.23174229 -0.94520625 2.14379907
v -1.24710972 -0.94684424 2.15084441
v -1.01725181 -1.01725181 2.08301929
v -0.71930565 -1.24587394 2.08301929
v -0.37234000 -1.38959182 2.08301929
v 1.32997754 -1.02052766 2.20980000
v 1.18539381 -1.18539381 2.20980000
v 1.02052766 -1.32997754 2.20980000
v 0.83820000 -1.45180499 2.20980000
v 0.64153051 -1.54879165 2.20980000
v 0.43388425 -1.61927806 2.20980000
v 0.21881411 -1.66205817 2.20980000
v 0.17799338 -1.58321379 2.16549512
v 0.13026419 -1.63168617 2.18885006
v 0.06791604 -1.66494456 2.20450188
v 1.26266504 -0.94740000 2.15764153
v 1.24710972 -0.94684424 2.15084441
v 1.23174229 -0.94520625 2.14379907
v 1.36969497 -0.91859820 2.19538659
v 0.37234000 -1.38959182 2.08301929
v 0.71930565 -1.24587394 2.08301929
v 1.01725181 -1.01725181 2.08301929
v 0.00000000 2.08280000 2.20980000
v 0.28986973 2.06253033 2.20980000
v 0.57409748 2.00211586 2.20980000
v 0.84715108 1.90273248 2.20980000
v 1.10371584 1.76631457 2.20980000
v 1.33879803 1.59551737 2.20980000
v 1.54782204 1.39366523 2.20980000
v 1.72671946 1.16468698 2.20980000
v 1.87200824 0.91303942 2.20980000
v 1.98086051 0.64362060 2.20980000
v 2.05115759 0.36167442 2.20980000
v 2.08153121 0.07268867 2.20980000
v 2.07139020 -0.21771188 2.20980000
v 2.02093194 -0.50387492 2.20980000
v 1.93113853 -0.78023061 2.20980000
v 1.80375771 -1.04140000 2.20980000
v 1.64126880 -1.28229972 2.20980000
v 1.44683445 -1.49824094 2.20980000
v 1.22423912 -1.68502060 2.20980000
v 0.97781537 -1.83900325 2.20980000
v 0.71235955 -1.95719179 2.20980000
v 0.43303847 -2.03728582 2.20980000
v 0.14528878 -2.07772640 2.20980000
v -0.14528878 -2.07772640 2.20980000
v -0.43303847 -2.03728582 2.20980000
v -0.71235955 -1.95719179 2.20980000
v -0.97781537 -1.83900325 2.20980000
v -1.22423912 -1.68502060 2.20980000
v -1.44683445 -1.49824094 2.20980000
v -1.64126880 -1.28229972 2.20980000
v -1.80375771 -1.04140000 2.20980000
v -1.93113853 -0.78023061 2.20980000
v -2.02093194 -0.50387492 2.20980000
v -2.07139020 -0.21771188 2.20980000
v -2.08153121 0.07268867 2.20980000
v -2.05115759 0.36167442 2.20980000
v -1.98086051 0.64362060 2.20980000
v -1.87200824 0.91303942 2.20980000
v -1.72671946 1.16468698 2.20980000
v -1.54782204 1.39366523 2.20980000
v -1.33879803 1.59551737 2.20980000
v -1.10371584 1.76631457 2.20980000
v -0.84715108 1.90273248 2.20980000
v -0.57409748 2.00211586 2.20980000
v -0.28986973 2.06253033 2.20980000
v 0.00000000 3.96240000 0.00000000
v 0.55145950 3.92383820 0.00000000
v 1.09218546 3.80890334 0.00000000
v 1.61165327 3.61983252 0.00000000
v 2.09975209 3.36030578 0.00000000
v 2.54698162 3.03537450 0.00000000
v 2.94463706 2.65136311 0.00000000
v 3.28497848 2.21574596 0.00000000
v 3.56138153 1.73700183 0.00000000
v 3.76846634 1.22444894 0.00000000
v 3.90220224 0.68806354 0.00000000
v 3.95998621 0.13828577 0.00000000
v 3.94069356 -0.41418358 0.00000000
v 3.84469979 -0.95859132 0.00000000
v 3.67387331 -1.48434117 0.00000000
v 3.43153906 -1.98120000 0.00000000
v 3.12241381 -2.43949703 0.00000000
v 2.75251433 -2.85031202 0.00000000
v 2.32904028 -3.20564894 0.00000000
v 1.86023412 -3.49859154 0.00000000
v 1.35522062 -3.72343804 0.00000000
v 0.82382928 -3.87581205 0.00000000
v 0.27640305 -3.95274779 0.00000000
v -0.27640305 -3.95274779 0.00000000
v -0.82382928 -3.87581205 0.00000000
v -1.35522062 -3.72343804 0.00000000
v -1.86023412 -3.49859154 0.00000000
v -2.32904028 -3.20564894 0.00000000
v -2.75251433 -2.85031202 0.00000000
v -3.12241381 -2.43949703 0.00000000
v -3.43153906 -1.98120000 0.00000000
v -3.67387331 -1.48434117 0.00000000
v -3.84469979 -0.95859132 0.00000000
v -3.94069356 -0.41418358 0.00000000
v -3.95998621 0.13828577 0.00000000
v -3.90220224 0.68806354 0.00000000
v -3.76846634 1.22444894 0.00000000
v -3.56138153 1.73700183 0.00000000
v -3.28497848 2.21574596 0.00000000
v -2.94463706 2.65136311 0.00000000
v -2.54698162 3.03537450 0.00000000
v -2.09975209 3.36030578 0.00000000
v -1.61165327 3.61983252 0.00000000
v -1.09218546 3.80890334 0.00000000
v -0.55145950 3.92383820 0.00000000
v 0.00000000 2.38280000 0.00000000
v 0.33162166 2.35961075 0.00000000
v 0.65678869 2.29049437 0.00000000
v 0.96917207 2.17679612 0.00000000
v 1.26269162 2.02072900 0.00000000
v 1.53163432 1.82533070 0.00000000
v 1.77076549 1.59440441 0.00000000
v 1.97543073 1.33244485 0.00000000
v 2.14164645 1.04455077 0.00000000
v 2.26617747 0.73632569 0.00000000
v 2.34659991 0.41376888 0.00000000
v 2.38134846 0.08315852 0.00000000
v 2.36974677 -0.24907042 0.00000000
v 2.31202066 -0.57645149 0.00000000
v 2.20929369 -0.89261259 0.00000000
v 2.06356533 -1.19140000 0.00000000
v 1.87767202 -1.46699816 0.00000000
v 1.65523197 -1.71404288 0.00000000
v 1.40057470 -1.92772569 0.00000000
v 1.11865684 -2.10388752 0.00000000
v 0.81496560 -2.23909958 0.00000000
v 0.49541198 -2.33073010 0.00000000
v 0.16621573 -2.37699562 0.00000000
v -0.16621573 -2.37699562 0.00000000
v -0.49541198 -2.33073010 0.00000000
v -0.81496560 -2.23909958 0.00000000
v -1.11865684 -2.10388752 0.00000000
v -1.40057470 -1.92772569 0.00000000
v -1.65523197 -1.71404288 0.00000000
v -1.87767202 -1.46699816 0.00000000
v -2.06356533 -1.19140000 0.00000000
v -2.20929369 -0.89261259 0.00000000
v -2.31202066 -0.57645149 0.00000000
v -2.36974677 -0.24907042 0.00000000
v -2.38134846 0.08315852 0.00000000
v -2.34659991 0.41376888 0.00000000
v -2.26617747 0.73632569 0.00000000
v -2.14164645 1.04455077 0.00000000
v -1.97543073 1.33244485 0.00000000
v -1.77076549 1.59440441 0.00000000
v -1.53163432 1.82533070 0.00000000
v -1.26269162 2.02072900 0.00000000
v -0.96917207 2.17679612 0.00000000
v -0.65678869 2.29049437 0.00000000
v -0.33162166 2.35961075 0.00000000
v 0.00000000 3.96240000 0.33020000
v 0.55145950 3.92383820 0.33020000
v 1.09218546 3.80890334 0.33020000
v 1.61165327 3.61983252 0.33020000
v 2.09975209 3.36030578 0.33020000
v 2.54698162 3.03537450 0.33020000
v 2.94463706 2.65136311 0.33020000
v 3.28497848 2.21574596 0.33020000
v 3.56138153 1.73700183 0.33020000
v 3.76846634 1.22444894 0.33020000
v 3.90220224 0.68806354 0.33020000
v 3.95998621 0.13828577 0.33020000
v 3.94069356 -0.41418358 0.33020000
v 3.84469979 -0.95859132 0.33020000
v 3.67387331 -1.48434117 0.33020000
v 3.43153906 -1.98120000 0.33020000
v 3.12241381 -2.43949703 0.33020000
v 2.75251433 -2.85031202 0.33020000
v 2.32904028 -3.20564894 0.33020000
v 1.86023412 -3.49859154 0.33020000
v 1.35522062 -3.72343804 0.33020000
v 0.82382928 -3.87581205 0.33020000
v 0.27640305 -3.95274779 0.33020000
v -0.27640305 -3.95274779 0.33020000
v -0.82382928 -3.87581205 0.33020000
v -1.35522062 -3.72343804 0.33020000
v -1.86023412 -3.49859154 0.33020000
v -2.32904028 -3.20564894 0.33020000
v -2.75251433 -2.85031202 0.33020000
v -3.12241381 -2.43949703 0.33020000
v -3.43153906 -1.98120000 0.33020000
v -3.67387331 -1.48434117 0.33020000
v -3.84469979 -0.95859132 0.33020000
v -3.94069356 -0.41418358 0.33020000
v -3.95998621 0.13828577 0.33020000
v -3.90220224 0.68806354 0.33020000
v -3.76846634 1.22444894 0.33020000
v -3.56138153 1.73700183 0.33020000
v -3.28497848 2.21574596 0.33020000
v -2.94463706 2.65136311 0.33020000
v -2.54698162 3.03537450 0.33020000
v -2.09975209 3.36030578 0.33020000
v -1.61165327 3.61983252 0.33020000
v -1.09218546 3.80890334 0.33020000
v -0.55145950 3.92383820 0.33020000
v 1.63530127 3.52345103 0.47220386
v 1.20784297 3.52345103 0.73035747
v 2.21970696 2.96971184 0.75586212
v 0.74087865 3.52345103 0.90729873
v 1.73160096 2.96971184 1.11463548
v 2.78620819 2.31922266 0.87359874
v 0.24968174 3.52345103 0.99724026
v 1.18685791 2.96971184 1.37962756
v 2.26763183 2.31922266 1.33248051
v 3.29119599 1.59317571 0.82974190
v -0.24968174 3.52345103 0.99724026
v 0.60329522 2.96971184 1.54217102
v 1.67488598 2.31922266 1.69045574
v 2.77226024 1.59317571 1.38029545
v 3.69440432 0.81522483 0.64019225
v -0.74087865 3.52345103 0.90729873
v -0.00000000 2.96971184 1.59694940
v 1.02735811 2.31922266 1.93581581
v 2.16264966 1.59317571 1.82837852
v 3.20301476 0.81522483 1.26646848
v -1.20784297 3.52345103 0.73035747
v -0.60329522 2.96971184 1.54217102
v 0.34622749 2.31922266 2.06053551
v 1.48230332 1.59317571 2.15933528
v 2.60686128 0.81522483 1.79399729
v 3.52177983 0.01071481 1.01066286
v -1.63530127 3.52345103 0.47220386
v -1.18685791 2.96971184 1.37962756
v -0.34622749 2.31922266 2.06053551
v 2.96648703 0.01071481 1.59978863
v 3.69763759 -0.79414429 0.64228637
v -1.73160096 2.96971184 1.11463548
v -1.02735811 2.31922266 1.93581581
v 2.31416664 0.01071481 2.07926476
v 3.20581797 -0.79414429 1.26911070
v -2.21970696 2.96971184 0.75586212
v -1.67488598 2.31922266 1.69045574
v 2.60914275 -0.79414429 1.79710119
v 3.29715855 -1.57313103 0.83442026
v -2.26763183 2.31922266 1.33248051
v -1.48230332 1.59317571 2.15933528
v 2.77728267 -1.57313103 1.38597122
v -2.78620819 2.31922266 0.87359874
v -2.16264966 1.59317571 1.82837852
v 2.16656767 -1.57313103 1.83486608
v 2.79425548 -2.30086687 0.88118388
v -2.77226024 1.59317571 1.38029545
v 1.48498877 -1.57313103 2.16642242
v 2.27418135 -2.30086687 1.34139102
v -3.29119599 1.59317571 0.82974190
v -2.60686128 0.81522483 1.79399729
v 1.67972349 -2.30086687 1.70040018
v 2.22910263 -2.95364296 0.76648006
v -3.20301476 0.81522483 1.26646848
v -2.31416664 0.01071481 2.07926476
v 1.03032538 -2.30086687 1.94646892
v 1.73893056 -2.95364296 1.12677205
v -3.69440432 0.81522483 0.64019225
v -2.96648703 0.01071481 1.59978863
v 0.34722749 -2.30086687 2.07154884
v 1.19188170 -2.95364296 1.39288580
v 1.64527227 -3.51019256 0.48576927
v -3.52177983 0.01071481 1.01066286
v -2.60914275 -0.79414429 1.79710119
v -1.48498877 -1.57313103 2.16642242
v -0.34722749 -2.30086687 2.07154884
v 0.60584887 -2.95364296 1.55611728
v 1.21520761 -3.51019256 0.74549693
v -3.20581797 -0.79414429 1.26911070
v -2.16656767 -1.57313103 1.83486608
v -1.03032538 -2.30086687 1.94646892
v -0.00000000 -2.95364296 1.61112753
v 0.74539605 -3.51019256 0.92351707
v -3.69763759 -0.79414429 0.64228637
v -2.77728267 -1.57313103 1.38597122
v -1.67972349 -2.30086687 1.70040018
v -0.60584887 -2.95364296 1.55611728
v 0.25120414 -3.51019256 1.01400700
v -3.29715855 -1.57313103 0.83442026
v -2.27418135 -2.30086687 1.34139102
v -1.19188170 -2.95364296 1.39288580
v -0.25120414 -3.51019256 1.01400700
v -2.79425548 -2.30086687 0.88118388
v -1.73893056 -2.95364296 1.12677205
v -0.74539605 -3.51019256 0.92351707
v -2.22910263 -2.95364296 0.76648006
v -1.21520761 -3.51019256 0.74549693
v -1.64527227 -3.51019256 0.48576927
v 0.00000000 2.08280000 -0.30000000
v -0.00000000 2.10089221 -0.19739398
v -0.00000000 2.13215366 -0.13514731
v -0.00000000 2.19901984 -0.06288220
v -0.00000000 2.28567984 -0.01615555
v 0.28360790 2.06340069 -0.30000000
v 0.56193271 2.00556413 -0.30000000
v 0.82978979 1.91036770 -0.30000000
v 1.08218945 1.77958474 -0.30000000
v 1.31442997 1.61565148 -0.30000000
v 1.52218515 1.42162169 -0.30000000
v 1.70158489 1.20110977 -0.30000000
v 1.84928733 0.95822346 -0.30000000
v 1.96254105 0.69748726 -0.30000000
v 2.03923634 0.42375818 -0.30000000
v 2.07794451 0.14213530 -0.30000000
v 2.07794451 -0.14213530 -0.30000000
v 2.03923634 -0.42375818 -0.30000000
v 1.96254105 -0.69748726 -0.30000000
v 1.84928733 -0.95822346 -0.30000000
v 1.70158489 -1.20110977 -0.30000000
v 1.52218515 -1.42162169 -0.30000000
v 1.31442997 -1.61565148 -0.30000000
v 1.08218945 -1.77958474 -0.30000000
v 0.82978979 -1.91036770 -0.30000000
v 0.56193271 -2.00556413 -0.30000000
v 0.28360790 -2.06340069 -0.30000000
v 0.00000000 -2.08280000 -0.30000000
v -0.28360790 -2.06340069 -0.30000000
v -0.56193271 -2.00556413 -0.30000000
v -0.82978979 -1.91036770 -0.30000000
v -1.08218945 -1.77958474 -0.30000000
v -1.31442997 -1.61565148 -0.30000000
v -1.52218515 -1.42162169 -0.30000000
v -1.70158489 -1.20110977 -0.30000000
v -1.84928733 -0.95822346 -0.30000000
v -1.96254105 -0.69748726 -0.30000000
v -2.03923634 -0.42375818 -0.30000000
v -2.07794451 -0.14213530 -0.30000000
v -2.07794451 0.14213530 -0.30000000
v -2.03923634 0.42375818 -0.30000000
v -1.96254105 0.69748726 -0.30000000
v -1.84928733 0.95822346 -0.30000000
v -1.70158489 1.20110977 -0.30000000
v -1.52218515 1.42162169 -0.30000000
v -1.31442997 1.61565148 -0.30000000
v -1.08218945 1.77958474 -0.30000000
v -0.82978979 1.91036770 -0.30000000
v -0.56193271 2.00556413 -0.30000000
v -0.28360790 2.06340069 -0.30000000
v 0.28607145 2.08132439 -0.19739396
v 0.29032822 2.11229466 -0.13514731
v 0.29943316 2.17853805 -0.06288220
v 0.31123336 2.26439087 -0.01615555
v 0.56681394 2.02298543 -0.19739396
v 0.57524817 2.05308762 -0.13514731
v 0.59328845 2.11747422 -0.06288220
v 0.61666903 2.20092061 -0.01615555
v 0.83699775 1.92696208 -0.19739396
v 0.84945234 1.95563543 -0.13514731
v 0.87609190 2.01696585 -0.06288220
v 0.91061733 2.09645136 -0.01615555
v 1.09158988 1.79504307 -0.19739396
v 1.10783282 1.82175346 -0.13514731
v 1.14257541 1.87888522 -0.06288220
v 1.18760255 1.95292919 -0.01615555
v 1.32584775 1.62968581 -0.19739396
v 1.34557647 1.65393566 -0.13514731
v 1.38777491 1.70580452 -0.06288220
v 1.44246498 1.77302764 -0.01615555
v 1.53540759 1.43397058 -0.19739396
v 1.55825457 1.45530818 -0.13514731
v 1.60712278 1.50094790 -0.06288220
v 1.67045701 1.56009794 -0.01615555
v 1.71636569 1.21154320 -0.19739396
v 1.74190534 1.22957106 -0.13514731
v 1.79653300 1.26813147 -0.06288220
v 1.86733160 1.31810657 -0.01615555
v 1.86535114 0.96654706 -0.19739396
v 1.89310772 0.98092935 -0.13514731
v 1.95247721 1.01169214 -0.06288220
v 2.02942132 1.05156137 -0.01615555
v 1.97958863 0.70354597 -0.19739396
v 2.00904507 0.71401479 -0.13514731
v 2.07205046 0.73640691 -0.06288220
v 2.15370677 0.76542757 -0.01615555
v 2.05695014 0.42743915 -0.19739396
v 2.08755772 0.43379948 -0.13514731
v 2.15302533 0.44740381 -0.06288220
v 2.23787274 0.46503530 -0.01615555
v 2.09599455 0.14336995 -0.19739396
v 2.12718311 0.14550331 -0.13514731
v 2.19389341 0.15006642 -0.06288220
v 2.28035137 0.15598031 -0.01615555
v 2.09599455 -0.14336995 -0.19739396
v 2.12718311 -0.14550331 -0.13514731
v 2.19389341 -0.15006642 -0.06288220
v 2.28035137 -0.15598031 -0.01615555
v 2.05695014 -0.42743915 -0.19739396
v 2.08755772 -0.43379948 -0.13514731
v 2.15302533 -0.44740381 -0.06288220
v 2.23787274 -0.46503530 -0.01615555
v 1.97958863 -0.70354597 -0.19739396
v 2.00904507 -0.71401479 -0.13514731
v 2.07205046 -0.73640691 -0.06288220
v 2.15370677 -0.76542757 -0.01615555
v 1.86535114 -0.96654706 -0.19739396
v 1.89310772 -0.98092935 -0.13514731
v 1.95247721 -1.01169214 -0.06288220
v 2.02942132 -1.05156137 -0.01615555
v 1.71636569 -1.21154320 -0.19739396
v 1.74190534 -1.22957106 -0.13514731
v 1.79653300 -1.26813147 -0.06288220
v 1.86733160 -1.31810657 -0.01615555
v 1.53540759 -1.43397058 -0.19739396
v 1.55825457 -1.45530818 -0.13514731
v 1.45940236 -1.51125539 -0.19739396
v 1.60712278 -1.50094790 -0.06288220
v 1.48111838 -1.53374299 -0.13514731
v 1.52756754 -1.58184249 -0.06288220
v 1.32584775 -1.62968581 -0.19739396
v 1.34557647 -1.65393566 -0.13514731
v 1.66977772 -1.56252122 -0.01628990
v 1.23487346 -1.69965750 -0.19739396
v 1.38777491 -1.70580452 -0.06288220
v 1.25324847 -1.72494854 -0.13514731
v 1.29255143 -1.77904442 -0.06288220
v 1.09158988 -1.79504307 -0.19739396
v 1.10783282 -1.82175346 -0.13514731
v 1.40305453 -1.80581931 -0.01618948
v 0.98630915 -1.85497772 -0.19739396
v 1.14257541 -1.87888522 -0.06288220
v 1.00098551 -1.88257994 -0.13514731
v 1.03237728 -1.94161927 -0.06288220
v 0.83699775 -1.92696208 -0.19739396
v 0.84945234 -1.95563543 -0.13514731
v 1.14161775 -1.98150318 -0.01618745
v 0.71854746 -1.97419291 -0.19739396
v 0.87609190 -2.01696585 -0.06288220
v 0.72923950 -2.00356906 -0.13514731
v 0.56681394 -2.02298543 -0.19739396
v 0.75210908 -2.06640271 -0.06288220
v 0.57524817 -2.05308762 -0.13514731
v 0.84830657 -2.12437085 -0.01609083
v 0.43680005 -2.05498268 -0.19739396
v 0.59328845 -2.11747422 -0.06288220
v 0.44329967 -2.08556098 -0.13514731
v 0.54768574 -2.21970460 -0.01629227
v 0.28607145 -2.08132439 -0.19739396
v 0.45720193 -2.15096598 -0.06288220
v 0.29032822 -2.11229466 -0.13514731
v 0.14655083 -2.09577455 -0.19739396
v 0.29943316 -2.17853805 -0.06288220
v 0.14873152 -2.12695984 -0.13514731
v 0.24911148 -2.27327321 -0.01617882
v 0.00000000 -2.10089221 -0.19739396
v 0.15339587 -2.19366313 -0.06288220
v 0.00000000 -2.13215366 -0.13514731
v -0.14655083 -2.09577455 -0.19739396
v 0.00000000 -2.19901984 -0.06288220
v -0.14873152 -2.12695984 -0.13514731
v -0.28607145 -2.08132439 -0.19739396
v -0.15339587 -2.19366313 -0.06288220
v -0.29032822 -2.11229466 -0.13514731
v -0.06562402 -2.28594437 -0.01617511
v -0.43680005 -2.05498268 -0.19739396
v -0.29943316 -2.17853805 -0.06288220
v -0.44329967 -2.08556098 -0.13514731
v -0.56681394 -2.02298543 -0.19739396
v -0.45720193 -2.15096598 -0.06288220
v -0.57524817 -2.05308762 -0.13514731
v -0.37911447 -2.25524297 -0.01617098
v -0.71854746 -1.97419291 -0.19739396
v -0.59328845 -2.11747422 -0.06288220
v -0.72923950 -2.00356906 -0.13514731
v -0.83699775 -1.92696208 -0.19739396
v -0.75210908 -2.06640271 -0.06288220
v -0.84945234 -1.95563543 -0.13514731
v -0.68541024 -2.18175202 -0.01616644
v -0.87609190 -2.01696585 -0.06288220
v -0.98630915 -1.85497772 -0.19739396
v -1.00098551 -1.88257994 -0.13514731
v -0.97869848 -2.06686688 -0.01616150
v -1.09158988 -1.79504307 -0.19739396
v -1.03237728 -1.94161927 -0.06288220
v -1.10783282 -1.82175346 -0.13514731
v -1.14257541 -1.87888522 -0.06288220
v -1.23487346 -1.69965750 -0.19739396
v -1.25324847 -1.72494854 -0.13514731
v -1.18760255 -1.95292919 -0.01615555
v -1.32584775 -1.62968581 -0.19739396
v -1.29255143 -1.77904442 -0.06288220
v -1.34557647 -1.65393566 -0.13514731
v -1.38777491 -1.70580452 -0.06288220
v -1.45940236 -1.51125539 -0.19739396
v -1.48111838 -1.53374299 -0.13514731
v -1.39490448 -1.81147624 -0.01628580
v -1.53540759 -1.43397058 -0.19739396
v -1.57149689 -1.53889478 -0.06326444
v -1.55825457 -1.45530818 -0.13514731
v -1.65552566 -1.29343840 -0.19739396
v -1.68016001 -1.31268487 -0.13514731
v -1.62453676 -1.60935545 -0.01622950
v -1.73285128 -1.35385180 -0.06288220
v -1.80114028 -1.40720501 -0.01615555
v -1.81942603 -1.05044611 -0.19739396
v -1.84649923 -1.06607683 -0.13514731
v -1.90440704 -1.09950992 -0.06288220
v -1.97945679 -1.14283991 -0.01615555
v -1.94791334 -0.78700808 -0.19739396
v -1.97689845 -0.79871882 -0.13514731
v -2.03889569 -0.82376733 -0.06288220
v -2.11924542 -0.85623073 -0.01615555
v -2.03848674 -0.50825183 -0.19739396
v -2.06881958 -0.51581465 -0.13514731
v -2.13369955 -0.53199105 -0.06288220
v -2.21778536 -0.55295599 -0.01615555
v -2.08938331 -0.21960303 -0.19739396
v -2.12047350 -0.22287075 -0.13514731
v -2.18697338 -0.22986016 -0.06288220
v -2.27315862 -0.23891860 -0.01615555
v -2.09961241 0.07332008 -0.19739396
v -2.13085481 0.07441109 -0.13514731
v -2.19768025 0.07674469 -0.06288220
v -2.28428744 0.07976908 -0.01615555
v -2.06897494 0.36481610 -0.19739396
v -2.09976145 0.37024460 -0.13514731
v -2.16561178 0.38185579 -0.06288220
v -2.25095521 0.39690414 -0.01615555
v -1.99806723 0.64921140 -0.19739396
v -2.02779863 0.65887171 -0.13514731
v -2.09139214 0.67953450 -0.06288220
v -2.17381068 0.70631391 -0.01615555
v -1.88826941 0.92097053 -0.19739396
v -1.91636701 0.93467464 -0.13514731
v -1.97646594 0.96398685 -0.06288220
v -2.05435541 1.00197608 -0.01615555
v -1.74171858 1.17480402 -0.19739396
v -1.76763549 1.19228519 -0.13514731
v -1.82307007 1.22967629 -0.06288220
v -1.89491445 1.27813593 -0.01615555
v -1.56126718 1.40577128 -0.19739396
v -1.58449896 1.42668927 -0.13514731
v -1.63419021 1.47143148 -0.06288220
v -1.69859113 1.52941832 -0.01615555
v -1.35042748 1.60937681 -0.19739396
v -1.37052195 1.63332446 -0.13514731
v -1.41350270 1.68454693 -0.06288220
v -1.46920667 1.75093232 -0.01615555
v -1.11330326 1.78165764 -0.19739396
v -1.12986930 1.80816885 -0.13514731
v -1.16530297 1.86487459 -0.06288220
v -1.21122577 1.93836642 -0.01615555
v -0.85450985 1.91926054 -0.19739396
v -0.86722502 1.94781929 -0.13514731
v -0.89442195 2.00890458 -0.06288220
v -0.92966974 2.08807241 -0.01615555
v -0.57908437 2.01950721 -0.19739396
v -0.58770120 2.04955764 -0.13514731
v -0.60613201 2.11383354 -0.06288220
v -0.63001874 2.19713646 -0.01615555
v -0.29238768 2.08044648 -0.19739396
v -0.29673844 2.11140368 -0.13514731
v -0.30604441 2.17761913 -0.06288220
v -0.31810515 2.26343574 -0.01615555
v 0.00000000 -2.08280000 -37.50468750
v 0.28986973 -2.06253033 -37.50468750
v 0.57409748 -2.00211586 -37.50468750
v 0.84715108 -1.90273248 -37.50468750
v 1.10371584 -1.76631457 -37.50468750
v 1.33879803 -1.59551737 -37.50468750
v 1.54782204 -1.39366523 -37.50468750
v 1.72671946 -1.16468698 -37.50468750
v 1.87200824 -0.91303942 -37.50468750
v 1.98086051 -0.64362060 -37.50468750
v 2.05115759 -0.36167442 -37.50468750
v 2.08153121 -0.07268867 -37.50468750
v 2.07139020 0.21771188 -37.50468750
v 2.02093194 0.50387492 -37.50468750
v 1.93113853 0.78023061 -37.50468750
v 1.80375771 1.04140000 -37.50468750
v 1.64126880 1.28229972 -37.50468750
v 1.44683445 1.49824094 -37.50468750
v 1.22423912 1.68502060 -37.50468750
v 0.97781537 1.83900325 -37.50468750
v 0.71235955 1.95719179 -37.50468750
v 0.43303847 2.03728582 -37.50468750
v 0.14528878 2.07772640 -37.50468750
v -0.14528878 2.07772640 -37.50468750
v -0.43303847 2.03728582 -37.50468750
v -0.71235955 1.95719179 -37.50468750
v -0.97781537 1.83900325 -37.50468750
v -1.22423912 1.68502060 -37.50468750
v -1.44683445 1.49824094 -37.50468750
v -1.64126880 1.28229972 -37.50468750
v -1.80375771 1.04140000 -37.50468750
v -1.93113853 0.78023061 -37.50468750
v -2.02093194 0.50387492 -37.50468750
v -2.07139020 0.21771188 -37.50468750
v -2.08153121 -0.07268867 -37.50468750
v -2.05115759 -0.36167442 -37.50468750
v -1.98086051 -0.64362060 -37.50468750
v -1.87200824 -0.91303942 -37.50468750
v -1.72671946 -1.16468698 -37.50468750
v -1.54782204 -1.39366523 -37.50468750
v -1.33879803 -1.59551737 -37.50468750
v -1.10371584 -1.76631457 -37.50468750
v -0.84715108 -1.90273248 -37.50468750
v -0.57409748 -2.00211586 -37.50468750
v -0.28986973 -2.06253033 -37.50468750
v 1.26266504 -0.94740000 0.67419354
v 1.36914518 -0.91790414 0.69974563
v 1.42742264 -0.87089198 0.70834965
v 1.47502732 -0.77858038 0.70671326
v 1.47267858 -0.67397290 0.68917814
v 1.23179283 -0.94521157 0.66475969
v 1.24716191 -0.94684973 0.66956978
v -0.00000000 -1.67639997 0.70979999
v 0.06560732 -1.66508281 0.70623675
v 0.12748346 -1.63263074 0.69582452
v 0.17724686 -1.58359126 0.67969310
v 0.00000000 0.00000000 0.09964030
v 0.00000000 -1.11760001 0.50641344
v -0.17724376 -1.58362213 0.67970330
v -0.12749928 -1.63266857 0.69583659
v -0.06562087 -1.66511840 0.70624786
v -1.26266504 -0.94740000 0.67419354
v -1.24716217 -0.94684782 0.66956944
v -1.23179318 -0.94520967 0.66475939
v -1.47416751 -0.67993198 0.69057520
v -1.47894127 -0.75399188 0.70387562
v -1.44299984 -0.85126913 0.70949226
v -1.36370171 -0.92087059 0.69870160
v -0.24979551 1.41985655 0.62439139
v -0.30395153 1.32303936 0.59387482
v -0.37437764 1.22823063 0.56725762
v -0.45698699 1.14326296 0.54800992
v -0.54356254 1.07488394 0.53810559
v -0.64511572 1.01507947 0.53746080
v -0.75563522 0.96960660 0.54736263
v -0.86629914 0.94053475 0.56539875
v -0.98193466 0.92560963 0.59099910
v -1.10050588 0.92601236 0.62317575
v 1.10474993 0.92627960 0.62440460
v 0.99377109 0.92480565 0.59388912
v 0.87635101 0.93843605 0.56726602
v 0.76135235 0.96753996 0.54801091
v 0.65876626 1.00836620 0.53810349
v 0.55616631 1.06644377 0.53746472
v 0.46155925 1.13943613 0.54738152
v 0.38112317 1.22073134 0.56543266
v 0.31047372 1.31337653 0.59104090
v 0.25163029 1.41619016 0.62320930
v 0.81678231 -0.76282143 0.50641345
v 0.30152486 -1.07615635 0.50641343
v 0.00000004 -0.00000001 0.09964031
v 0.99230050 -0.51416868 0.50641343
v 0.52653539 0.18713072 0.30302686
v 1.09422436 -0.22738244 0.50641343
v 0.91304553 0.64449790 0.50641342
v 1.11499460 0.07626772 0.50641343
v 1.05307079 0.37426145 0.50641343
v 0.15217983 1.10719059 0.50641342
v 0.70530391 0.86693494 0.50641344
v -0.07608992 0.55359530 0.30302686
v 0.44525308 1.02507542 0.50641346
v -0.15217984 1.10719060 0.50641343
v -0.44525311 1.02507543 0.50641347
v -1.05307082 0.37426146 0.50641344
v -0.70530391 0.86693496 0.50641345
v -0.91304552 0.64449789 0.50641341
v -1.09422442 -0.22738245 0.50641345
v -0.99230049 -0.51416868 0.50641342
v -0.81678229 -0.76282140 0.50641344
v -0.58068706 -0.95489922 0.50641347
v -0.30152488 -1.07615638 0.50641344
v -0.00000000 -1.78514375 -37.80234375
v 0.48162602 -1.71894578 -37.80234375
v 0.92753204 -1.52526146 -37.80234375
v 1.30464725 -1.21845548 -37.80234375
v 1.58500275 -0.82128223 -37.80234375
v 1.74780584 -0.36319823 -37.80234375
v 1.78098217 0.12182252 -37.80234375
v 1.68207120 0.59780825 -37.80234375
v 1.45840870 1.02945727 -37.80234375
v 1.12658270 1.38475616 -37.80234375
v 0.71120322 1.63735402 -37.80234375
v 0.24307704 1.76851682 -37.80234375
v -0.24307704 1.76851682 -37.80234375
v -0.71120322 1.63735402 -37.80234375
v -1.12658270 1.38475616 -37.80234375
v -1.45840870 1.02945727 -37.80234375
v -1.68207120 0.59780825 -37.80234375
v -1.78098217 0.12182252 -37.80234375
v -1.74780584 -0.36319823 -37.80234375
v -1.58500275 -0.82128223 -37.80234375
v -1.30464725 -1.21845548 -37.80234375
v -0.92753204 -1.52526146 -37.80234375
v -0.48162602 -1.71894578 -37.80234375
f 14 15 16
f 14 16 17
f 14 17 18
f 22 20 21
f 25 23 24
f 10 11 12
f 10 12 13
f 7 8 9
f 29 22 23
f 29 25 26
f 29 26 27
f 29 27 28
f 29 23 25
f 6 9 10
f 6 13 14
f 6 10 13
f 6 7 9
f 31 29 30
f 4 5 6
f 3 14 18
f 3 6 14
f 3 4 6
f 33 31 32
f 45 1 2
f 45 2 3
f 37 34 35
f 37 35 36
f 41 42 43
f 41 43 44
f 40 45 3
f 40 3 18
f 40 18 19
f 40 19 20
f 40 34 37
f 40 41 44
f 40 33 34
f 40 37 38
f 40 38 39
f 40 44 45
f 40 20 22
f 40 22 29
f 40 31 33
f 40 29 31
f 46 63 64
f 46 64 59
f 46 59 58
f 47 58 57
f 47 46 58
f 48 47 57
f 48 57 56
f 49 48 56
f 49 56 55
f 50 49 55
f 50 55 54
f 51 50 54
f 52 54 53
f 52 51 54
f 62 65 64
f 62 64 63
f 61 66 65
f 61 65 62
f 60 67 66
f 60 66 61
f 72 67 60
f 71 68 67
f 71 67 72
f 70 68 71
f 69 68 70
f 75 78 77
f 75 77 76
f 74 79 78
f 74 78 75
f 73 80 79
f 73 79 74
f 85 80 73
f 84 81 80
f 84 80 85
f 83 81 84
f 82 81 83
f 88 91 90
f 88 90 89
f 87 92 91
f 87 91 88
f 86 93 92
f 86 92 87
f 98 93 86
f 97 94 93
f 97 93 98
f 96 94 97
f 95 94 96
f 99 105 112
f 200 112 111
f 200 99 112
f 100 111 110
f 100 200 111
f 101 100 110
f 101 110 109
f 102 109 108
f 102 101 109
f 102 108 107
f 103 102 107
f 103 107 106
f 198 103 106
f 104 106 95
f 104 198 106
f 96 104 95
f 114 113 122
f 114 122 129
f 114 129 128
f 115 114 128
f 115 128 127
f 116 115 127
f 116 127 126
f 117 116 126
f 118 126 125
f 118 117 126
f 119 118 125
f 120 125 124
f 120 119 125
f 120 124 123
f 121 120 123
f 131 140 147
f 131 130 140
f 132 147 146
f 132 131 147
f 133 132 146
f 133 146 145
f 134 145 144
f 134 133 145
f 135 134 144
f 136 144 143
f 136 135 144
f 137 136 143
f 138 143 142
f 138 137 143
f 138 142 141
f 139 138 141
f 152 52 154
f 152 154 155
f 152 155 156
f 152 156 153
f 151 52 152
f 148 63 149
f 62 63 148
f 61 62 148
f 60 61 148
f 157 50 51
f 157 51 52
f 157 52 151
f 158 151 150
f 158 47 48
f 158 48 49
f 158 49 50
f 158 50 157
f 158 157 151
f 159 150 149
f 159 63 46
f 159 46 47
f 159 158 150
f 159 47 158
f 159 149 63
f 164 70 71
f 164 71 72
f 164 72 60
f 163 70 164
f 160 76 161
f 75 76 160
f 74 75 160
f 73 74 160
f 171 170 70
f 171 70 163
f 172 163 162
f 172 167 168
f 172 168 169
f 172 169 171
f 172 171 163
f 173 162 161
f 173 76 165
f 173 165 166
f 173 166 167
f 173 172 162
f 173 167 172
f 173 161 76
f 178 83 84
f 178 84 85
f 178 85 73
f 177 83 178
f 174 89 175
f 88 89 174
f 87 88 174
f 86 87 174
f 185 184 83
f 185 83 177
f 186 177 176
f 186 181 182
f 186 182 183
f 186 183 185
f 186 185 177
f 187 176 175
f 187 89 179
f 187 179 180
f 187 180 181
f 187 186 176
f 187 181 186
f 187 175 89
f 197 96 97
f 197 97 98
f 197 98 86
f 196 96 197
f 192 191 99
f 192 99 193
f 190 191 192
f 189 190 192
f 188 189 192
f 198 104 96
f 198 196 195
f 198 96 196
f 199 100 101
f 199 101 102
f 199 102 103
f 199 195 194
f 199 198 195
f 199 103 198
f 200 194 193
f 200 100 199
f 200 199 194
f 200 193 99
f 210 211 212
f 210 212 188
f 210 214 211
f 209 121 213
f 209 213 214
f 209 214 210
f 205 204 113
f 205 113 206
f 203 204 205
f 202 203 205
f 201 202 205
f 215 119 120
f 215 120 121
f 215 121 209
f 216 115 116
f 216 116 117
f 216 117 118
f 216 118 119
f 216 208 207
f 216 209 208
f 216 215 209
f 216 119 215
f 217 113 114
f 217 114 115
f 217 207 206
f 217 115 216
f 217 216 207
f 217 206 113
f 224 139 225
f 224 225 226
f 224 226 227
f 224 227 201
f 223 139 224
f 230 130 219
f 229 230 219
f 218 228 229
f 218 229 219
f 231 228 218
f 153 231 218
f 232 223 222
f 232 136 137
f 232 137 138
f 232 138 139
f 232 139 223
f 233 221 220
f 233 222 221
f 233 132 133
f 233 133 134
f 233 134 135
f 233 135 136
f 233 136 232
f 233 232 222
f 234 220 219
f 234 130 131
f 234 131 132
f 234 233 220
f 234 132 233
f 234 219 130
f 175 275 274
f 174 175 274
f 174 274 273
f 176 275 175
f 176 276 275
f 86 174 273
f 86 273 272
f 176 277 276
f 177 277 176
f 177 278 277
f 197 86 272
f 197 272 271
f 177 279 278
f 196 197 271
f 196 271 270
f 178 279 177
f 178 235 279
f 195 196 270
f 195 270 269
f 73 235 178
f 194 269 268
f 194 195 269
f 160 236 235
f 160 235 73
f 194 268 267
f 161 237 236
f 161 236 160
f 193 194 267
f 266 193 267
f 162 238 237
f 162 237 161
f 192 193 266
f 265 192 266
f 162 239 238
f 188 192 265
f 163 239 162
f 210 265 264
f 210 188 265
f 240 239 163
f 209 210 264
f 263 209 264
f 241 240 163
f 164 241 163
f 262 209 263
f 242 241 164
f 60 242 164
f 208 209 262
f 261 208 262
f 207 208 261
f 243 60 148
f 243 242 60
f 260 206 207
f 260 207 261
f 244 243 148
f 244 148 149
f 259 206 260
f 259 205 206
f 245 244 149
f 245 149 150
f 258 205 259
f 258 201 205
f 246 245 150
f 257 201 258
f 257 224 201
f 247 246 150
f 247 150 151
f 256 224 257
f 256 223 224
f 248 247 151
f 255 222 223
f 255 223 256
f 249 248 151
f 249 151 152
f 254 222 255
f 254 221 222
f 250 153 218
f 250 249 152
f 250 152 153
f 253 220 221
f 253 221 254
f 251 250 218
f 251 218 219
f 252 251 219
f 252 220 253
f 252 219 220
f 353 308 309
f 354 353 309
f 352 308 353
f 352 307 308
f 355 354 309
f 355 309 310
f 351 307 352
f 351 306 307
f 356 355 310
f 356 310 311
f 350 306 351
f 350 305 306
f 357 356 311
f 357 311 312
f 349 304 305
f 349 305 350
f 358 357 312
f 358 312 313
f 358 313 314
f 348 304 349
f 348 303 304
f 359 358 314
f 347 303 348
f 347 302 303
f 360 314 315
f 360 359 314
f 346 301 302
f 346 302 347
f 361 360 315
f 361 315 316
f 345 300 301
f 345 301 346
f 362 316 317
f 362 361 316
f 344 299 300
f 344 300 345
f 363 317 318
f 363 362 317
f 343 298 299
f 343 299 344
f 364 318 319
f 364 363 318
f 342 297 298
f 342 298 343
f 320 364 319
f 320 365 364
f 296 342 341
f 296 297 342
f 366 365 320
f 340 296 341
f 321 367 366
f 321 366 320
f 295 296 340
f 322 367 321
f 294 295 340
f 294 340 339
f 323 367 322
f 323 368 367
f 293 294 339
f 293 339 338
f 324 368 323
f 324 369 368
f 324 325 369
f 292 293 338
f 292 338 337
f 280 325 324
f 280 326 325
f 291 292 337
f 291 337 336
f 281 326 280
f 290 291 336
f 290 335 334
f 290 336 335
f 282 326 281
f 282 327 326
f 289 290 334
f 283 328 327
f 283 327 282
f 288 334 333
f 288 289 334
f 284 328 283
f 284 329 328
f 287 288 333
f 287 332 331
f 287 333 332
f 285 330 329
f 285 331 330
f 285 329 284
f 286 287 331
f 286 331 285
f 281 280 370
f 281 370 371
f 282 281 371
f 282 371 372
f 283 282 372
f 283 372 373
f 284 283 373
f 284 373 374
f 285 284 374
f 285 374 375
f 286 285 375
f 286 375 376
f 287 286 376
f 287 376 377
f 288 287 377
f 288 377 378
f 289 288 378
f 289 378 379
f 290 289 379
f 290 379 380
f 291 290 380
f 291 380 381
f 292 291 381
f 292 381 382
f 293 292 382
f 293 382 383
f 294 293 383
f 294 383 384
f 295 294 384
f 295 384 385
f 296 385 386
f 296 295 385
f 296 386 387
f 297 296 387
f 298 297 387
f 298 387 388
f 298 388 389
f 299 389 390
f 299 298 389
f 300 299 390
f 301 300 390
f 301 390 391
f 302 391 392
f 302 392 393
f 302 301 391
f 303 302 393
f 304 393 394
f 304 394 395
f 304 303 393
f 305 304 395
f 306 305 395
f 306 395 396
f 307 306 396
f 307 396 397
f 308 307 397
f 308 397 398
f 309 308 398
f 309 398 399
f 310 309 399
f 310 399 400
f 311 310 400
f 311 400 401
f 312 311 401
f 312 401 402
f 313 312 402
f 313 402 403
f 314 313 403
f 314 403 404
f 314 404 405
f 315 314 405
f 316 315 405
f 316 405 406
f 316 406 407
f 317 316 407
f 318 317 407
f 318 407 408
f 319 318 408
f 319 408 409
f 320 319 409
f 320 409 410
f 321 320 410
f 321 410 411
f 321 411 412
f 322 321 412
f 323 322 412
f 323 412 413
f 324 323 413
f 324 413 414
f 324 414 370
f 280 324 370
f 415 374 373
f 416 373 372
f 416 415 373
f 417 375 374
f 417 376 375
f 417 374 415
f 418 372 371
f 418 416 372
f 419 415 416
f 419 417 415
f 420 377 376
f 420 376 417
f 421 371 370
f 421 418 371
f 422 419 416
f 422 416 418
f 423 417 419
f 423 420 417
f 424 378 377
f 424 379 378
f 424 377 420
f 425 421 370
f 425 370 414
f 426 418 421
f 426 422 418
f 427 423 419
f 427 419 422
f 428 420 423
f 428 424 420
f 429 380 379
f 429 381 380
f 429 379 424
f 430 425 414
f 430 414 413
f 431 421 425
f 431 426 421
f 432 427 422
f 432 239 427
f 432 237 238
f 432 238 239
f 432 422 426
f 433 423 427
f 433 241 242
f 433 428 423
f 434 424 428
f 434 429 424
f 435 413 412
f 435 430 413
f 436 425 430
f 436 431 425
f 437 426 431
f 437 432 426
f 437 235 236
f 437 236 237
f 437 237 432
f 438 433 427
f 438 427 239
f 438 239 240
f 438 240 241
f 438 241 433
f 439 433 242
f 439 242 243
f 439 243 244
f 439 244 245
f 439 434 428
f 439 428 433
f 440 382 381
f 440 381 429
f 440 429 434
f 441 412 411
f 441 435 412
f 442 430 435
f 442 436 430
f 443 431 436
f 443 235 437
f 443 437 431
f 443 278 279
f 443 279 235
f 444 440 434
f 444 434 439
f 445 383 382
f 445 382 440
f 446 442 435
f 446 435 441
f 447 278 443
f 447 436 442
f 447 276 277
f 447 277 278
f 447 443 436
f 448 444 439
f 448 439 245
f 448 245 246
f 448 246 247
f 449 445 440
f 449 440 444
f 450 446 441
f 450 441 411
f 450 410 409
f 450 411 410
f 451 447 442
f 451 442 446
f 451 276 447
f 452 444 448
f 452 449 444
f 452 247 248
f 452 248 249
f 452 249 250
f 452 448 247
f 453 384 383
f 453 385 384
f 453 383 445
f 453 445 449
f 454 446 450
f 454 451 446
f 455 274 275
f 455 275 276
f 455 276 451
f 456 449 452
f 456 453 449
f 457 450 409
f 457 409 408
f 457 454 450
f 458 455 451
f 458 274 455
f 458 273 274
f 458 451 454
f 459 456 452
f 459 250 251
f 459 452 250
f 460 453 456
f 460 386 385
f 460 387 386
f 460 385 453
f 461 454 457
f 461 458 454
f 462 459 251
f 462 251 252
f 462 252 253
f 463 460 456
f 463 456 459
f 464 457 408
f 464 461 457
f 464 407 406
f 464 408 407
f 465 273 458
f 465 270 271
f 465 271 272
f 465 272 273
f 465 458 461
f 466 459 462
f 466 463 459
f 466 462 253
f 466 253 254
f 467 388 387
f 467 389 388
f 467 460 463
f 467 387 460
f 468 461 464
f 468 465 461
f 469 270 465
f 469 268 269
f 469 269 270
f 470 466 254
f 470 254 255
f 471 463 466
f 471 467 463
f 472 464 406
f 472 468 464
f 472 405 404
f 472 406 405
f 473 465 468
f 473 469 465
f 474 470 255
f 474 255 256
f 474 256 257
f 475 466 470
f 475 471 466
f 476 390 389
f 476 389 467
f 476 467 471
f 477 473 468
f 477 404 403
f 477 468 472
f 477 472 404
f 478 268 469
f 478 469 473
f 478 265 266
f 478 266 267
f 478 267 268
f 479 262 263
f 479 263 264
f 480 474 257
f 480 257 258
f 480 258 259
f 480 259 260
f 481 470 474
f 481 475 470
f 482 391 390
f 482 390 476
f 482 471 475
f 482 476 471
f 483 473 477
f 483 478 473
f 484 479 264
f 484 265 478
f 484 264 265
f 485 260 261
f 485 480 260
f 486 474 480
f 486 481 474
f 487 392 391
f 487 391 482
f 487 475 481
f 487 482 475
f 488 403 402
f 488 477 403
f 488 483 477
f 489 478 483
f 489 484 478
f 490 479 484
f 490 262 479
f 490 261 262
f 490 485 261
f 491 486 480
f 491 480 485
f 492 487 481
f 492 481 486
f 492 392 487
f 493 489 483
f 493 401 400
f 493 402 401
f 493 488 402
f 493 483 488
f 494 490 484
f 494 484 489
f 495 485 490
f 495 491 485
f 496 486 491
f 496 392 492
f 496 393 392
f 496 492 486
f 497 493 400
f 497 494 489
f 497 399 398
f 497 400 399
f 497 489 493
f 498 490 494
f 498 495 490
f 499 393 496
f 499 394 393
f 499 491 495
f 499 496 491
f 500 498 494
f 500 497 398
f 500 397 396
f 500 398 397
f 500 494 497
f 501 394 499
f 501 395 394
f 501 495 498
f 501 499 495
f 502 395 501
f 502 396 395
f 502 498 500
f 502 500 396
f 502 501 498
f 504 503 552
f 325 507 369
f 553 503 504
f 553 508 503
f 554 553 504
f 554 504 505
f 555 505 506
f 555 554 505
f 556 325 326
f 556 506 507
f 556 507 325
f 556 555 506
f 557 508 553
f 557 509 508
f 558 557 553
f 558 553 554
f 559 554 555
f 559 558 554
f 560 326 327
f 560 556 326
f 560 559 555
f 560 555 556
f 561 510 509
f 561 509 557
f 562 561 557
f 562 557 558
f 563 558 559
f 563 562 558
f 564 327 328
f 564 560 327
f 564 563 559
f 564 559 560
f 565 511 510
f 565 510 561
f 566 561 562
f 566 565 561
f 567 562 563
f 567 566 562
f 568 328 329
f 568 567 563
f 568 564 328
f 568 563 564
f 569 512 511
f 569 511 565
f 570 565 566
f 570 569 565
f 571 566 567
f 571 567 568
f 571 570 566
f 572 329 330
f 572 571 568
f 572 568 329
f 573 513 512
f 573 512 569
f 574 573 569
f 574 569 570
f 575 574 570
f 575 570 571
f 576 330 331
f 576 572 330
f 576 575 571
f 576 571 572
f 577 514 513
f 577 515 514
f 577 513 573
f 578 573 574
f 578 577 573
f 579 578 574
f 579 574 575
f 580 331 332
f 580 575 576
f 580 579 575
f 580 576 331
f 581 515 577
f 582 577 578
f 582 581 577
f 583 578 579
f 583 582 578
f 584 332 333
f 584 583 579
f 584 579 580
f 584 580 332
f 585 515 581
f 585 581 582
f 585 516 515
f 586 585 582
f 587 586 582
f 587 582 583
f 588 583 584
f 588 333 334
f 588 587 583
f 588 584 333
f 589 516 585
f 589 517 516
f 590 585 586
f 590 589 585
f 591 587 588
f 591 590 586
f 591 586 587
f 592 334 335
f 592 591 588
f 592 588 334
f 593 517 589
f 593 518 517
f 594 590 591
f 594 593 589
f 594 589 590
f 595 591 592
f 595 594 591
f 596 592 335
f 596 335 336
f 596 595 592
f 597 518 593
f 597 519 518
f 598 593 594
f 598 597 593
f 598 594 595
f 599 598 595
f 600 336 337
f 600 596 336
f 600 595 596
f 600 599 595
f 601 519 597
f 601 597 598
f 601 520 519
f 602 601 598
f 603 598 599
f 603 602 598
f 604 337 338
f 604 600 337
f 604 599 600
f 604 603 599
f 605 520 601
f 605 521 520
f 605 522 521
f 606 605 601
f 606 601 602
f 607 602 603
f 607 606 602
f 608 338 339
f 608 607 603
f 608 603 604
f 608 604 338
f 609 522 605
f 609 523 522
f 610 605 606
f 610 606 607
f 610 609 605
f 611 610 607
f 612 339 340
f 612 608 339
f 612 340 611
f 612 607 608
f 612 611 607
f 613 523 609
f 614 609 610
f 614 610 611
f 614 613 609
f 615 611 340
f 615 614 611
f 616 340 341
f 616 615 340
f 616 341 615
f 617 524 523
f 617 613 614
f 617 523 613
f 618 617 614
f 619 525 524
f 619 524 617
f 620 615 341
f 620 614 615
f 620 618 614
f 621 617 618
f 621 619 617
f 625 341 342
f 625 620 341
f 622 621 618
f 622 618 620
f 623 619 621
f 623 525 619
f 624 623 621
f 624 621 622
f 625 622 620
f 626 525 623
f 626 526 525
f 627 624 622
f 628 623 624
f 628 626 623
f 632 625 342
f 632 622 625
f 632 627 622
f 632 342 343
f 629 624 627
f 629 628 624
f 629 627 632
f 630 526 626
f 631 626 628
f 631 630 626
f 633 527 526
f 633 526 630
f 634 628 629
f 634 631 628
f 635 630 631
f 635 633 630
f 639 343 344
f 639 632 343
f 639 634 629
f 639 629 632
f 636 635 631
f 636 631 634
f 636 634 639
f 637 527 633
f 637 633 635
f 638 635 636
f 638 637 635
f 640 527 637
f 640 528 527
f 641 638 636
f 642 637 638
f 642 640 637
f 646 344 345
f 646 639 344
f 646 636 639
f 646 641 636
f 643 528 640
f 644 638 641
f 644 642 638
f 644 641 646
f 645 640 642
f 645 643 640
f 647 529 528
f 647 528 643
f 648 642 644
f 648 645 642
f 648 644 646
f 649 643 645
f 649 647 643
f 649 645 648
f 650 345 346
f 650 646 345
f 650 648 646
f 651 529 647
f 652 649 648
f 653 651 647
f 653 647 649
f 650 652 648
f 654 529 651
f 654 530 529
f 655 649 652
f 655 653 649
f 656 651 653
f 656 654 651
f 656 653 655
f 657 655 652
f 657 652 650
f 657 650 346
f 657 346 347
f 658 530 654
f 659 656 655
f 660 658 654
f 660 656 659
f 660 654 656
f 657 659 655
f 661 530 658
f 661 658 660
f 661 531 530
f 662 660 659
f 663 661 660
f 667 659 657
f 667 347 348
f 667 657 347
f 667 662 659
f 664 531 661
f 665 660 662
f 665 663 660
f 665 662 667
f 666 661 663
f 666 664 661
f 668 531 664
f 668 532 531
f 669 663 665
f 669 666 663
f 670 668 664
f 670 664 666
f 674 348 349
f 674 667 348
f 674 669 665
f 674 665 667
f 671 532 668
f 671 668 670
f 672 666 669
f 672 670 666
f 673 671 670
f 674 672 669
f 675 532 671
f 675 533 532
f 676 670 672
f 676 673 670
f 677 675 671
f 677 671 673
f 681 349 350
f 681 674 349
f 681 676 672
f 681 672 674
f 678 533 675
f 679 673 676
f 679 677 673
f 680 677 679
f 680 675 677
f 680 678 675
f 681 679 676
f 682 680 679
f 683 678 680
f 683 533 678
f 683 534 533
f 684 683 680
f 685 681 350
f 685 350 351
f 685 682 679
f 685 679 681
f 686 534 683
f 687 682 685
f 687 684 680
f 687 680 682
f 688 686 683
f 688 683 684
f 689 684 687
f 689 688 684
f 690 534 686
f 690 535 534
f 691 686 688
f 691 690 686
f 692 687 685
f 692 351 352
f 692 685 351
f 692 689 687
f 693 535 690
f 694 688 689
f 694 691 688
f 694 689 692
f 695 693 690
f 695 690 691
f 699 692 352
f 699 694 692
f 696 695 691
f 696 691 694
f 696 694 699
f 697 535 693
f 697 536 535
f 698 693 695
f 698 695 696
f 698 697 693
f 699 352 353
f 700 536 697
f 701 698 696
f 702 697 698
f 702 700 697
f 705 699 353
f 705 696 699
f 705 701 696
f 701 702 698
f 703 700 702
f 703 536 700
f 703 537 536
f 704 703 702
f 704 537 703
f 705 353 354
f 706 704 702
f 706 702 701
f 707 705 354
f 707 701 705
f 707 706 701
f 708 538 537
f 709 538 708
f 709 537 704
f 709 708 537
f 710 709 704
f 710 704 706
f 710 706 707
f 711 710 707
f 711 354 355
f 711 355 356
f 711 707 354
f 712 539 538
f 713 539 712
f 713 712 538
f 713 538 709
f 714 710 711
f 714 709 710
f 714 713 709
f 715 714 711
f 715 711 356
f 716 540 539
f 717 539 713
f 717 716 539
f 717 713 714
f 717 540 716
f 718 717 714
f 719 718 714
f 719 714 715
f 719 715 356
f 719 356 357
f 720 541 540
f 721 540 717
f 721 720 540
f 722 718 719
f 722 717 718
f 722 721 717
f 723 722 719
f 723 719 357
f 723 357 358
f 723 358 359
f 724 541 720
f 724 542 541
f 725 720 721
f 725 724 720
f 725 721 722
f 726 725 722
f 727 722 723
f 727 726 722
f 727 723 359
f 728 724 725
f 728 542 724
f 728 543 542
f 729 728 725
f 730 729 725
f 730 725 726
f 731 359 360
f 731 360 361
f 731 727 359
f 731 726 727
f 731 730 726
f 732 728 729
f 732 543 728
f 732 544 543
f 733 729 730
f 733 732 729
f 734 733 730
f 735 361 362
f 735 731 361
f 735 730 731
f 735 734 730
f 736 544 732
f 736 545 544
f 737 736 732
f 737 732 733
f 738 733 734
f 738 734 735
f 738 737 733
f 739 735 362
f 739 738 735
f 740 545 736
f 740 546 545
f 741 736 737
f 741 740 736
f 741 737 738
f 742 741 738
f 743 362 363
f 743 363 364
f 743 739 362
f 743 738 739
f 743 742 738
f 744 547 546
f 744 546 740
f 745 744 740
f 745 740 741
f 746 741 742
f 746 745 741
f 747 742 743
f 747 746 742
f 747 743 364
f 748 547 744
f 748 548 547
f 749 748 744
f 749 745 746
f 749 744 745
f 750 749 746
f 751 750 746
f 751 746 747
f 751 747 364
f 751 364 365
f 752 548 748
f 752 748 749
f 752 549 548
f 753 752 749
f 754 753 749
f 754 750 751
f 754 749 750
f 755 751 365
f 755 754 751
f 755 365 366
f 755 366 367
f 756 549 752
f 756 550 549
f 757 756 752
f 757 752 753
f 758 753 754
f 758 757 753
f 759 754 755
f 759 755 367
f 759 758 754
f 760 550 756
f 760 551 550
f 761 756 757
f 761 760 756
f 762 757 758
f 762 758 759
f 762 761 757
f 763 367 368
f 763 759 367
f 763 762 759
f 764 551 760
f 764 760 761
f 764 504 552
f 764 552 551
f 765 764 761
f 765 504 764
f 765 505 504
f 765 506 505
f 766 761 762
f 766 762 763
f 766 765 761
f 766 506 765
f 767 369 507
f 767 368 369
f 767 763 368
f 767 766 763
f 767 506 766
f 767 507 506
f 529 530 768
f 529 768 769
f 528 529 769
f 528 769 770
f 527 528 770
f 527 770 771
f 526 527 771
f 526 771 772
f 525 526 772
f 525 772 773
f 524 525 773
f 524 773 774
f 523 524 774
f 523 774 775
f 522 523 775
f 522 775 776
f 521 776 777
f 521 522 776
f 520 777 778
f 520 521 777
f 519 778 779
f 519 520 778
f 518 779 780
f 518 519 779
f 517 780 781
f 517 518 780
f 516 781 782
f 516 517 781
f 515 782 783
f 515 516 782
f 514 783 784
f 514 515 783
f 513 784 785
f 513 514 784
f 512 785 786
f 512 513 785
f 511 786 787
f 511 512 786
f 510 787 788
f 510 511 787
f 509 788 789
f 509 510 788
f 508 789 790
f 508 509 789
f 503 790 791
f 503 508 790
f 552 791 792
f 552 503 791
f 551 792 793
f 551 552 792
f 550 793 794
f 550 551 793
f 549 550 794
f 549 794 795
f 548 549 795
f 548 795 796
f 547 548 796
f 547 796 797
f 546 547 797
f 546 797 798
f 545 546 798
f 545 798 799
f 544 545 799
f 544 799 800
f 543 544 800
f 543 800 801
f 542 543 801
f 542 801 802
f 541 542 802
f 541 802 803
f 540 541 803
f 540 803 804
f 539 540 804
f 539 804 805
f 538 539 805
f 538 805 806
f 537 538 806
f 537 806 807
f 536 537 807
f 536 807 808
f 535 536 808
f 535 808 809
f 534 535 809
f 534 809 810
f 533 534 810
f 533 810 811
f 532 811 812
f 532 533 811
f 531 812 768
f 531 532 812
f 530 531 768
f 142 143 825
f 141 142 825
f 820 141 825
f 823 141 820
f 822 820 821
f 822 823 820
f 54 147 140
f 53 140 818
f 53 818 819
f 53 819 813
f 53 54 140
f 817 813 814
f 817 53 813
f 816 814 815
f 816 817 814
f 847 58 59
f 846 59 64
f 846 847 59
f 69 846 64
f 67 65 66
f 68 64 65
f 68 65 67
f 68 69 64
f 837 854 855
f 836 855 77
f 836 837 855
f 82 836 77
f 80 78 79
f 81 78 80
f 81 82 77
f 81 77 78
f 106 844 845
f 106 845 90
f 95 106 90
f 93 91 92
f 94 95 90
f 94 90 91
f 94 91 93
f 124 111 112
f 123 124 112
f 123 112 105
f 831 123 105
f 830 831 105
f 829 830 105
f 829 105 832
f 835 829 832
f 835 832 833
f 835 833 834
f 129 825 128
f 122 825 129
f 820 825 122
f 820 122 826
f 820 826 827
f 820 827 828
f 857 824 825
f 145 824 857
f 856 824 145
f 857 825 143
f 857 143 144
f 858 824 856
f 145 857 144
f 856 145 146
f 856 146 147
f 859 54 55
f 859 858 856
f 859 856 147
f 859 147 54
f 860 824 858
f 861 55 56
f 861 859 55
f 861 858 859
f 862 824 860
f 863 56 57
f 863 860 858
f 863 861 56
f 863 858 861
f 866 824 862
f 864 57 58
f 864 860 863
f 864 863 57
f 868 824 866
f 862 58 847
f 862 847 848
f 862 860 864
f 862 864 58
f 865 824 868
f 866 848 849
f 866 849 850
f 866 862 848
f 867 824 824
f 867 824 865
f 868 850 851
f 868 851 852
f 868 866 850
f 870 824 867
f 865 852 853
f 865 853 854
f 865 854 837
f 865 868 852
f 872 824 870
f 869 867 865
f 869 865 837
f 869 837 838
f 869 838 839
f 873 824 872
f 870 867 869
f 870 869 839
f 870 839 840
f 870 840 841
f 871 824 873
f 872 870 841
f 872 841 842
f 872 842 843
f 108 824 871
f 873 872 843
f 873 844 106
f 873 843 844
f 874 824 108
f 871 106 107
f 871 873 106
f 875 824 874
f 108 871 107
f 876 824 875
f 874 108 109
f 874 109 110
f 877 824 876
f 875 111 124
f 875 874 110
f 875 110 111
f 878 824 877
f 878 825 824
f 876 124 125
f 876 875 124
f 877 876 125
f 877 125 126
f 878 128 825
f 878 877 126
f 878 126 127
f 878 127 128
f 826 122 113
f 204 826 113
f 827 826 204
f 203 827 204
f 828 827 203
f 202 828 203
f 820 828 202
f 201 820 202
f 227 821 820
f 227 820 201
f 226 822 821
f 226 821 227
f 225 823 822
f 225 822 226
f 139 141 823
f 139 823 225
f 191 105 99
f 191 832 105
f 190 833 832
f 190 832 191
f 189 833 190
f 834 833 189
f 188 834 189
f 212 835 834
f 212 834 188
f 211 829 835
f 211 835 212
f 214 830 829
f 214 829 211
f 213 831 830
f 213 830 214
f 121 123 831
f 121 831 213
f 179 90 845
f 179 89 90
f 179 845 844
f 180 844 843
f 180 179 844
f 181 843 842
f 181 180 843
f 181 842 841
f 182 841 840
f 182 181 841
f 182 840 839
f 183 839 838
f 183 182 839
f 183 838 837
f 185 837 836
f 185 183 837
f 184 836 82
f 184 185 836
f 83 184 82
f 165 77 855
f 165 76 77
f 165 855 854
f 166 854 853
f 166 165 854
f 167 853 852
f 167 166 853
f 167 852 851
f 168 851 850
f 168 167 851
f 168 850 849
f 169 849 848
f 169 168 849
f 169 848 847
f 171 847 846
f 171 169 847
f 170 846 69
f 170 171 846
f 70 170 69
f 130 818 140
f 230 819 818
f 230 818 130
f 229 813 819
f 229 819 230
f 228 813 229
f 814 813 228
f 231 814 228
f 815 814 231
f 153 815 231
f 816 815 153
f 156 816 153
f 155 817 816
f 155 816 156
f 154 817 155
f 53 817 154
f 52 53 154
f 879 1 45
f 769 768 879
f 879 2 1
f 768 812 879
f 880 769 879
f 880 770 769
f 880 771 770
f 880 44 43
f 880 45 44
f 880 879 45
f 881 772 771
f 881 773 772
f 881 771 880
f 881 880 43
f 881 42 41
f 881 43 42
f 882 774 773
f 882 775 774
f 882 773 881
f 882 881 41
f 882 40 39
f 882 41 40
f 883 776 775
f 883 777 776
f 883 38 37
f 883 39 38
f 883 775 882
f 883 882 39
f 884 778 777
f 884 779 778
f 884 777 883
f 884 883 37
f 884 36 35
f 884 37 36
f 885 780 779
f 885 781 780
f 885 779 884
f 885 884 35
f 885 34 33
f 885 35 34
f 886 782 781
f 886 783 782
f 886 885 33
f 886 781 885
f 886 32 31
f 886 33 32
f 887 886 31
f 887 784 783
f 887 785 784
f 887 783 886
f 887 30 29
f 887 31 30
f 888 786 785
f 888 787 786
f 888 28 27
f 888 29 28
f 888 887 29
f 888 785 887
f 889 788 787
f 889 789 788
f 889 888 27
f 889 787 888
f 889 26 25
f 889 27 26
f 890 889 25
f 890 790 789
f 890 789 889
f 890 25 24
f 891 790 890
f 891 791 790
f 891 792 791
f 891 23 22
f 891 24 23
f 891 890 24
f 892 793 792
f 892 794 793
f 892 21 20
f 892 22 21
f 892 792 891
f 892 891 22
f 893 794 892
f 893 892 20
f 893 795 794
f 893 796 795
f 893 19 18
f 893 20 19
f 894 893 18
f 894 797 796
f 894 798 797
f 894 796 893
f 894 17 16
f 894 18 17
f 895 799 798
f 895 800 799
f 895 798 894
f 895 894 16
f 895 15 14
f 895 16 15
f 896 801 800
f 896 802 801
f 896 895 14
f 896 800 895
f 896 13 12
f 896 14 13
f 897 896 12
f 897 803 802
f 897 804 803
f 897 802 896
f 897 11 10
f 897 12 11
f 898 805 804
f 898 806 805
f 898 9 8
f 898 10 9
f 898 897 10
f 898 804 897
f 899 807 806
f 899 808 807
f 899 7 6
f 899 8 7
f 899 806 898
f 899 898 8
f 900 899 6
f 900 808 899
f 900 809 808
f 900 810 809
f 900 5 4
f 900 6 5
f 901 810 900
f 901 900 4
f 901 811 810
f 901 812 811
f 901 3 2
f 901 4 3
f 901 2 879
f 901 879 812

