# https://github.com/mikedh/trimesh
v 44.33722091 -15.27585382 5.18682719
v 13.64114731 -104.82527638 5.23756473
v 19.56280075 -107.58452445 5.21451813
v 56.08863331 7.78100245 5.26595752
v 56.08648639 7.83808902 5.28359347
v 56.08451353 7.89054723 5.31220740
v 56.08279310 7.93629359 5.35066286
v 56.08139341 7.97351122 5.39743253
v 56.08037007 8.00072194 5.45065885
v 56.07976371 8.01684504 5.50822786
v 56.07959841 8.02124015 5.56785308
v 56.09385949 8.02167293 5.56791694
v 56.08910513 8.02155128 5.56789583
v 56.08435140 8.02140702 5.56787455
v 56.96349983 7.55430005 5.56785308
v 56.88987329 7.65570221 5.56835412
v 56.80385560 7.74662798 5.56871870
v 56.70714651 7.82617942 5.56894685
v 56.60144579 7.89345861 5.56903855
v 56.48845318 7.94756761 5.56899381
v 56.36986845 7.98760848 5.56881262
v 56.24739136 8.01268330 5.56849500
v 56.17084247 8.02028495 5.56823179
v 56.95977619 7.55195935 5.50822786
v 56.94611636 7.54337268 5.45065885
v 56.92306286 7.52888107 5.39743253
v 56.89153129 7.50906010 5.35066286
v 56.85277399 7.48469697 5.31220740
v 56.80833029 7.45675933 5.28359347
v 56.67032655 7.61457962 5.28060693
v 56.70960002 7.39469675 5.26000000
v 56.33544596 7.76803793 5.26638699
v 56.58616781 7.89272176 5.40337758
v 60.24645991 2.33170825 5.56785308
v 60.22907644 2.32078087 5.45065885
v 60.20602294 2.30628927 5.39743253
v 60.17449137 2.28646829 5.35066286
v 60.13573407 2.26210516 5.31220740
v 60.09129037 2.23416752 5.28359347
v 60.04292541 2.20376495 5.26595752
v 49.92649181 7.48972389 5.26000000
v 49.92425610 7.54917153 5.26595752
v 49.92210917 7.60625810 5.28359347
v 49.92013632 7.65871630 5.31220740
v 49.91841588 7.70446267 5.35066286
v 49.91701619 7.74168029 5.39743253
v 49.91599285 7.76889102 5.45065885
v 49.91538649 7.78501411 5.50822786
v 49.91522120 7.78940923 5.56785308
v 60.36127332 1.55966065 5.46165748
v 60.20886540 1.37246372 5.35066286
v 60.37142661 1.57033332 5.56872575
v 60.39168967 1.69559680 5.56895199
v 60.39642907 1.82251028 5.56903816
v 60.38572004 1.94907358 5.56898426
v 60.35963780 2.07328650 5.56879031
v 60.31825757 2.19314885 5.56845628
v 60.28523092 2.26386333 5.56818119
v 60.34587084 2.11237395 5.47148796
v 60.21313124 1.78975431 5.25217428
v 49.33405893 7.11731617 5.26000000
v 49.28145790 7.14510380 5.26595752
v 49.78902635 7.77605930 5.56835945
v 49.66577518 7.74631000 5.56872575
v 49.54716230 7.70122659 5.56895199
v 49.43488229 7.64187429 5.56903816
v 49.33062978 7.56931835 5.56898426
v 49.45770581 7.58559121 5.31544348
v 35.99795725 -89.55763299 5.26000000
v 35.74531158 -90.97763919 5.56785308
v 35.74212989 -90.97460254 5.50822786
v 35.73045815 -90.96346286 5.45065885
v 35.71075993 -90.94466258 5.39743253
v 35.68381756 -90.91894839 5.35066286
v 35.65070112 -90.88734157 5.31220740
v 35.61272588 -90.85109744 5.28359347
v 35.57140011 -90.81165551 5.26595752
v 35.91255792 -90.77679354 5.56820765
v 36.05186050 -90.55566657 5.56842038
v 36.16162630 -90.31837301 5.56849129
v 36.24026230 -90.06902759 5.56842038
v 36.02267303 -90.27398502 5.27951538
v 36.24654444 -89.93964332 5.41398766
v 35.95574802 -90.65167559 5.39310775
v 11.07908049 -19.78307209 5.26000000
v 11.06234772 -19.72598414 5.26595752
v 19.97345256 -107.50280086 5.56785308
v 19.97027087 -107.49976421 5.50822786
v 19.95859913 -107.48862453 5.45065885
v 19.93890091 -107.46982425 5.39743253
v 19.91195854 -107.44411005 5.35066286
v 10.59594770 -20.28928049 5.26000000
v 10.53814170 -20.27522753 5.26595752
v 10.48263156 -20.26173270 5.28359347
v 10.43162198 -20.24933198 5.31220740
v 10.38713889 -20.23851789 5.35066286
v 10.35094902 -20.22971993 5.39743253
v 10.32448971 -20.22328752 5.45065885
v 10.30881185 -20.21947615 5.50822786
v 10.30453810 -20.21843718 5.56785308
v 10.65949258 -19.67095495 5.56895199
v 10.56517662 -19.75600785 5.56903816
v 10.48187850 -19.85189514 5.56898426
v 10.41098015 -19.95716887 5.56879031
v 10.35386356 -20.07038107 5.56845628
v 10.32617017 -20.14334937 5.56818119
v 10.60308698 -19.80278474 5.31601728
v 19.01415332 -107.78397648 5.56785308
v 19.01519229 -107.77970273 5.50822786
v 19.01900366 -107.76402487 5.45065885
v 19.02543607 -107.73756557 5.39743253
v 19.03423403 -107.70137570 5.35066286
v 19.04504812 -107.65689261 5.31220740
v 19.05744884 -107.60588302 5.28359347
v 19.13920856 -107.80552980 5.56835945
v 19.26590167 -107.81050235 5.56872575
v 19.39231186 -107.79945713 5.56895199
v 19.51651832 -107.77295714 5.56903816
v 19.63660026 -107.73156537 5.56898426
v 19.75063689 -107.67584482 5.56879031
v 19.85670741 -107.60635848 5.56845628
v 19.91717474 -107.55701277 5.56818119
v 9.08093018 -26.26937689 5.26595752
v 9.02542004 -26.25588207 5.28359347
v 8.97441046 -26.24348135 5.31220740
v 8.89373750 -26.22386930 5.39743253
v 8.86727820 -26.21743689 5.45065885
v 8.85160033 -26.21362552 5.50822786
v 8.84732659 -26.21258654 5.56785308
v 13.02000395 -106.32676496 5.56785308
v 13.02104292 -106.32249122 5.50822786
v 13.02485429 -106.30681336 5.45065885
v 13.03128670 -106.28035405 5.39743253
v 13.04008466 -106.24416418 5.35066286
v 13.05089875 -106.19968109 5.31220740
v 13.06329947 -106.14867151 5.28359347
v 13.07679430 -106.09316137 5.26595752
v 9.33555912 -26.95493933 5.26000000
v 8.82484282 -26.34140531 5.56854407
v 8.88182149 -26.41197635 5.34043549
v 12.29684909 -105.63657526 5.56785308
v 12.39454212 -105.85100214 5.46874903
v 12.31655287 -105.63079998 5.45065885
v 12.34268350 -105.62314096 5.39743253
v 12.37842383 -105.61266528 5.35066286
v 12.42235436 -105.59978901 5.31220740
v 12.47273031 -105.58502356 5.28359347
v 12.58463887 -105.55222257 5.26000000
v 12.34071100 -105.75565294 5.56835945
v 12.39975120 -105.86785867 5.56872575
v 12.47252172 -105.97181049 5.56895199
v 12.55757462 -106.06612645 5.56903816
v 12.65346191 -106.14942457 5.56898426
v 12.75873564 -106.22032291 5.56879031
v 12.87194784 -106.27743951 5.56845628
v 12.94491614 -106.30513290 5.56818119
v 12.67464177 -106.04171967 5.29866468
v 23.75848467 -40.00409874 5.20342761
v 10.56175660 -99.71688388 5.56785308
v 10.56597726 -99.71564678 5.50822786
v 10.58146037 -99.71110860 5.45065885
v 10.64333133 -99.69297390 5.35066286
v 10.68726186 -99.68009763 5.31220740
v 10.73763782 -99.66533217 5.28359347
v 10.79245842 -99.64926397 5.26595752
v 10.53329135 -99.58925346 5.56854407
v 10.74864592 -99.24793476 5.26785333
v 10.54583538 -99.37611664 5.40817640
v 29.17664106 -56.13543965 15.34681344
v 59.96460667 1.62584251 15.26417001
v 59.97786138 1.33377199 15.08022465
v 35.74949908 -89.46144265 15.26000000
v 35.80704733 -89.46010038 15.25442554
v 59.96243386 2.32102655 14.96785308
v 60.05404888 2.10498670 15.06416845
v 59.94123374 2.30770000 15.08022465
v 59.91737936 2.29270496 15.13073004
v 59.88576365 2.27283108 15.17489058
v 59.84756153 2.24881695 15.21106513
v 59.80419273 2.22155500 15.23790932
v 59.75726896 2.19205837 15.25442554
v 60.02253431 2.20926208 14.96835945
v 60.06742933 2.09068592 14.96872575
v 60.09704371 1.96729823 14.96895199
v 60.11130221 1.84109923 14.96903816
v 60.11012961 1.71408909 14.96898426
v 60.09345069 1.58826800 14.96879031
v 60.06119022 1.46563615 14.96845628
v 35.27990695 -90.67439194 15.26000000
v 35.32154883 -90.71413557 15.25442554
v 35.36164318 -90.75240221 15.23790932
v 35.39869995 -90.78776974 15.21106513
v 35.43134201 -90.81892381 15.17489058
v 35.45835628 -90.84470662 15.13073004
v 35.47873882 -90.86416002 15.08022465
v 35.49173215 -90.87656105 15.02525134
v 35.49685341 -90.88144885 14.96785308
v 35.99180413 -89.97283725 14.96842038
v 35.91316812 -90.22218267 14.96849129
v 35.80340233 -90.45947623 14.96842038
v 35.66409975 -90.68060320 14.96820765
v 35.86709183 -90.21680848 15.19902286
v 56.83073743 7.30298543 14.96785308
v 56.82474385 7.29921782 15.02525134
v 56.80953731 7.28965888 15.08022465
v 56.78568293 7.27466384 15.13073004
v 56.75406721 7.25478996 15.17489058
v 56.71586510 7.23077583 15.21106513
v 56.67249630 7.20351388 15.23790932
v 56.57683762 7.14338212 15.26000000
v 19.71820293 -107.06273552 15.25442554
v 19.75829728 -107.10100215 15.23790932
v 19.79535405 -107.13636969 15.21106513
v 19.82799611 -107.16752375 15.17489058
v 19.85501037 -107.19330657 15.13073004
v 19.87539291 -107.21275997 15.08022465
v 19.88838625 -107.22516100 15.02525134
v 19.89350750 -107.23004880 14.96785308
v 55.94683601 7.76992553 14.96785308
v 55.94710207 7.76285113 15.02525134
v 55.94777708 7.74490241 15.08022465
v 55.94883598 7.71674639 15.13073004
v 55.95193520 7.63433838 15.21106513
v 55.95386034 7.58314892 15.23790932
v 55.95594328 7.52776343 15.25442554
v 55.95810663 7.47024019 15.26000000
v 56.45699376 7.47484426 15.23753094
v 55.96109708 7.77035831 14.96791694
v 56.08603109 7.76493069 14.96840245
v 56.20916420 7.74343215 14.96875152
v 56.32879666 7.70676062 14.96896415
v 56.44322871 7.65581404 14.96904034
v 56.55076059 7.59149033 14.96898008
v 56.64969254 7.51468744 14.96878338
v 56.73832481 7.42630329 14.96845023
v 56.78699994 7.36656165 14.96817748
v 55.95158900 7.77009240 14.96787455
v 55.95634272 7.77023666 14.96789583
v 56.42509981 7.65851430 15.11927934
v 18.99145353 -107.27574957 15.25442554
v 18.97836082 -107.32960561 15.23790932
v 18.96626002 -107.37938148 15.21106513
v 18.95560084 -107.42322737 15.17489058
v 18.94677940 -107.45951381 15.13073004
v 18.94012354 -107.48689231 15.08022465
v 18.93588060 -107.50434538 15.02525134
v 18.93420826 -107.51122442 14.96785308
v 19.79987468 -107.31570073 14.96835945
v 19.69591230 -107.38827962 14.96872575
v 19.58354116 -107.44722245 14.96895199
v 19.46468205 -107.49196625 14.96903816
v 19.34125578 -107.52194801 14.96898426
v 19.21518313 -107.53660475 14.96879031
v 19.08838490 -107.53537345 14.96845628
v 19.01084674 -107.52647787 14.96818119
v 19.45366657 -107.48474087 15.11986734
v 50.06648484 7.54877630 14.96785308
v 50.06675090 7.54170191 15.02525134
v 50.06742592 7.52375318 15.08022465
v 50.06848481 7.49559717 15.13073004
v 50.06988824 7.45828022 15.17489058
v 50.07158403 7.41318915 15.21106513
v 50.07350917 7.36199970 15.23790932
v 50.07559212 7.30661420 15.25442554
v 13.01406816 -105.55440895 15.30834688
v 13.26039419 -105.93953567 15.23790932
v 13.24829339 -105.98931155 15.21106513
v 13.23763421 -106.03315743 15.17489058
v 13.22881277 -106.06944388 15.13073004
v 13.22215690 -106.09682238 15.08022465
v 13.21791396 -106.11427545 15.02525134
v 13.21624163 -106.12115449 14.96785308
v 49.56356279 7.37934375 15.11764009
v 49.48532257 6.87668324 15.26000000
v 49.56134723 7.38565271 14.96903816
v 49.67192754 7.44814228 14.96898426
v 49.78923125 7.49660845 14.96879031
v 49.91156378 7.52998599 14.96845628
v 49.98859062 7.54256233 14.96818119
v 49.59896946 7.20102895 15.24557154
v 12.72563661 -105.36280321 15.25442554
v 12.67244956 -105.37839262 15.23790932
v 12.62329199 -105.39280096 15.21106513
v 12.57999075 -105.40549278 15.17489058
v 12.54415505 -105.41599641 15.13073004
v 12.51711664 -105.42392151 15.08022465
v 12.49988037 -105.42897355 15.02525134
v 12.49308678 -105.43096479 14.96785308
v 13.09524847 -106.08289205 14.96835945
v 12.98041212 -106.02914743 14.96872575
v 12.87318055 -105.96130259 14.96895199
v 12.77500174 -105.88073948 14.96903816
v 12.68732363 -105.78884007 14.96898426
v 12.61159420 -105.68698632 14.96879031
v 12.54926142 -105.57656019 14.96845628
v 12.51819614 -105.50496238 14.96818119
v 12.77575134 -105.86758709 15.11986734
v 11.07048917 -99.71586388 15.25442554
v 11.01730212 -99.73145329 15.23790932
v 10.96814455 -99.74586163 15.21106513
v 10.92484331 -99.75855345 15.17489058
v 10.88900761 -99.76905708 15.13073004
v 10.86196920 -99.77698218 15.08022465
v 10.84473293 -99.78203422 15.02525134
v 10.83793934 -99.78402546 14.96785308
v 10.79787455 -99.52614268 14.96875825
v 10.80947409 -99.65639504 14.96854407
v 10.87959591 -99.28263696 15.19129288
v 12.22534071 -20.53629319 15.27304481
v 17.35061152 -18.42775703 15.30872164
v 11.25291045 -19.87088279 15.23790932
v 10.75027270 -20.11014877 15.22446611
v 10.51014858 -20.41467486 14.96785308
v 10.51702762 -20.41634719 15.02525134
v 10.53448069 -20.42059013 15.08022465
v 10.56185919 -20.42724600 15.13073004
v 10.59814564 -20.43606744 15.17489058
v 10.64199152 -20.44672662 15.21106513
v 10.69176740 -20.45882742 15.23790932
v 10.80155818 -20.48551817 15.26000000
v 10.54841102 -20.29368169 14.96835945
v 10.60215564 -20.17884535 14.96872575
v 10.67000048 -20.07161378 14.96895199
v 10.75056359 -19.97343496 14.96903816
v 10.84246300 -19.88575686 14.96898426
v 10.94431675 -19.81002743 14.96879031
v 10.78224795 -20.27049826 15.24538441
v 11.04444162 -19.76939535 15.06571733
v 9.12007865 -26.13264149 14.96785308
v 9.12695769 -26.13431382 15.02525134
v 9.14441076 -26.13855676 15.08022465
v 9.17178925 -26.14521263 15.13073004
v 9.20807570 -26.15403407 15.17489058
v 9.25192159 -26.16469325 15.21106513
v 9.30169746 -26.17679405 15.23790932
v 9.35555350 -26.18988675 15.25442554
v 9.09208071 -26.39211178 14.96875825
v 9.09759487 -26.26146025 14.96854407
v 9.14297496 -26.64657541 15.11796616
v 9.41265488 -26.66402712 15.27144921
v 19.42119118 -107.26380018 15.26117230
v 50.34776477 -3.95377084 15.30444549
f 202 171 170
f 169 170 342
f 172 170 169
f 60 69 1
f 1 69 3
f 202 170 173
f 170 172 173
f 202 173 190
f 187 170 171
f 187 171 202
f 323 322 312
f 308 339 306
f 308 301 300
f 138 3 2
f 1 41 31
f 31 60 1
f 83 50 81
f 170 185 175
f 280 320 274
f 189 173 172
f 189 190 173
f 169 265 189
f 189 172 169
f 186 185 170
f 170 187 186
f 54 185 186
f 53 50 54
f 54 186 53
f 53 186 187
f 81 50 52
f 50 53 52
f 52 53 187
f 81 52 198
f 198 187 202
f 310 265 169
f 169 342 310
f 342 274 310
f 310 274 320
f 280 312 311
f 140 125 124
f 123 167 124
f 124 167 140
f 340 298 265
f 265 310 340
f 339 308 334
f 334 308 335
f 335 308 299
f 298 340 299
f 299 340 335
f 299 308 300
f 108 247 272
f 272 130 108
f 1 3 158
f 3 138 158
f 165 138 2
f 165 167 123
f 123 138 165
f 165 164 167
f 61 62 41
f 61 41 1
f 4 31 41
f 51 60 50
f 50 83 51
f 69 60 82
f 60 51 82
f 82 51 83
f 184 175 185
f 67 66 68
f 68 101 67
f 68 66 65
f 202 190 191
f 191 192 202
f 341 189 265
f 202 200 199
f 199 198 202
f 188 52 187
f 187 198 188
f 188 198 52
f 9 33 8
f 256 253 252
f 256 244 245
f 65 66 276
f 67 101 326
f 95 125 140
f 336 340 320
f 335 340 336
f 320 319 336
f 336 319 335
f 309 310 320
f 320 340 309
f 309 340 310
f 312 319 327
f 327 319 320
f 327 311 312
f 327 320 280
f 280 311 327
f 303 308 306
f 297 284 285
f 297 268 267
f 297 283 284
f 77 3 69
f 69 82 77
f 84 82 83
f 117 253 116
f 117 252 253
f 120 119 3
f 218 197 217
f 195 217 196
f 196 217 197
f 139 140 168
f 307 303 306
f 175 184 183
f 48 63 49
f 41 62 42
f 62 68 42
f 42 4 41
f 64 68 65
f 64 278 63
f 190 189 211
f 189 341 211
f 211 191 190
f 240 341 265
f 60 31 40
f 40 39 60
f 38 37 60
f 60 39 38
f 6 33 32
f 31 4 32
f 254 253 256
f 256 245 254
f 116 253 254
f 254 115 116
f 273 326 328
f 273 312 280
f 273 328 312
f 325 326 101
f 312 328 325
f 328 326 325
f 123 124 94
f 312 316 317
f 332 316 315
f 312 322 315
f 315 316 312
f 301 308 302
f 308 303 302
f 155 289 290
f 292 153 291
f 291 297 292
f 290 297 291
f 265 298 281
f 294 297 295
f 294 295 150
f 150 151 294
f 116 115 110
f 2 3 148
f 3 137 148
f 148 165 2
f 148 137 157
f 142 151 150
f 161 168 162
f 162 168 163
f 167 164 163
f 140 167 163
f 163 168 140
f 145 146 157
f 157 142 145
f 48 49 10
f 280 274 264
f 264 263 280
f 25 33 17
f 80 83 81
f 80 84 83
f 80 199 200
f 81 198 80
f 198 199 80
f 201 196 197
f 195 196 201
f 202 195 201
f 201 200 202
f 82 84 75
f 3 119 118
f 118 117 3
f 252 117 118
f 251 118 119
f 256 252 251
f 252 118 251
f 249 120 121
f 202 192 193
f 166 307 306
f 139 168 166
f 63 278 279
f 279 49 63
f 279 278 258
f 278 64 277
f 277 273 278
f 276 273 277
f 65 276 277
f 277 64 65
f 192 191 213
f 213 193 192
f 213 341 256
f 266 240 265
f 265 297 266
f 266 297 267
f 256 341 242
f 54 50 59
f 50 60 59
f 60 37 59
f 26 33 25
f 26 27 33
f 30 32 33
f 30 27 28
f 33 27 30
f 31 32 30
f 6 32 5
f 5 32 4
f 68 64 47
f 47 63 48
f 47 64 63
f 48 10 47
f 47 10 9
f 9 8 47
f 6 45 7
f 7 45 8
f 7 33 6
f 7 8 33
f 44 45 6
f 68 45 44
f 246 254 245
f 67 326 275
f 326 273 275
f 275 66 67
f 275 276 66
f 275 273 276
f 324 323 312
f 312 325 324
f 92 138 123
f 1 158 92
f 92 158 138
f 96 95 140
f 312 317 318
f 318 319 312
f 335 319 318
f 318 334 335
f 333 332 339
f 339 334 333
f 334 318 333
f 333 318 317
f 332 315 331
f 339 332 331
f 306 339 337
f 339 331 337
f 337 331 338
f 337 338 139
f 139 166 337
f 337 166 306
f 286 287 295
f 286 297 285
f 295 297 286
f 304 307 305
f 303 307 304
f 305 159 141
f 270 245 244
f 270 297 290
f 290 289 270
f 152 153 292
f 151 142 152
f 157 153 152
f 152 142 157
f 154 153 157
f 154 155 290
f 290 291 154
f 154 291 153
f 265 281 282
f 282 297 265
f 283 297 282
f 293 294 151
f 293 152 292
f 151 152 293
f 292 297 293
f 297 294 293
f 115 108 109
f 109 110 115
f 116 110 111
f 111 117 116
f 3 117 111
f 111 112 3
f 155 154 132
f 132 111 110
f 133 111 132
f 157 133 132
f 132 154 157
f 157 146 147
f 147 148 157
f 165 148 147
f 164 165 147
f 146 163 147
f 147 163 164
f 144 142 143
f 144 145 142
f 143 161 144
f 144 161 162
f 162 145 144
f 11 10 49
f 18 17 33
f 234 17 18
f 15 203 34
f 235 17 234
f 34 203 174
f 170 175 178
f 89 120 3
f 3 90 89
f 121 120 89
f 3 77 76
f 76 75 3
f 76 77 82
f 82 75 76
f 91 90 3
f 248 249 121
f 218 217 248
f 119 120 250
f 120 249 250
f 250 251 119
f 256 251 250
f 250 249 256
f 191 211 212
f 212 213 191
f 212 211 341
f 341 213 212
f 267 268 243
f 243 242 267
f 243 244 256
f 256 242 243
f 241 266 267
f 267 242 241
f 240 266 241
f 341 240 241
f 241 242 341
f 58 35 34
f 58 59 35
f 34 174 58
f 56 183 184
f 37 27 36
f 27 26 36
f 36 59 37
f 35 59 36
f 25 35 36
f 36 26 25
f 29 30 28
f 39 40 29
f 29 40 31
f 31 30 29
f 46 45 68
f 68 47 46
f 8 45 46
f 46 47 8
f 43 42 68
f 68 44 43
f 4 42 43
f 43 5 4
f 6 5 43
f 43 44 6
f 255 246 247
f 254 246 255
f 115 254 255
f 247 108 255
f 255 108 115
f 123 94 93
f 93 92 123
f 85 61 1
f 1 92 85
f 128 140 139
f 128 127 140
f 98 127 128
f 140 127 126
f 126 127 98
f 97 96 140
f 140 126 97
f 97 126 98
f 321 315 322
f 323 324 103
f 329 338 330
f 338 331 330
f 160 161 143
f 143 141 160
f 160 141 159
f 159 166 160
f 168 161 160
f 160 166 168
f 305 141 288
f 143 142 149
f 149 141 143
f 149 142 150
f 150 295 149
f 271 289 272
f 271 270 289
f 272 247 271
f 247 246 271
f 268 297 269
f 297 270 269
f 269 270 244
f 244 243 269
f 269 243 268
f 155 132 131
f 131 108 130
f 131 109 108
f 134 133 157
f 157 135 134
f 3 112 113
f 113 114 3
f 3 114 136
f 136 137 3
f 136 113 135
f 114 113 136
f 157 137 136
f 136 135 157
f 49 279 257
f 257 279 258
f 33 21 20
f 20 21 231
f 234 18 233
f 24 15 34
f 24 35 25
f 34 35 24
f 17 235 16
f 15 24 16
f 25 17 16
f 16 24 25
f 9 10 22
f 22 10 23
f 22 33 9
f 22 21 33
f 263 264 225
f 79 80 200
f 84 80 79
f 79 78 84
f 87 70 197
f 87 197 218
f 3 75 74
f 74 91 3
f 74 75 84
f 84 73 74
f 90 91 74
f 74 73 90
f 72 73 84
f 194 195 202
f 202 193 194
f 193 213 214
f 214 194 193
f 215 194 214
f 214 213 256
f 256 215 214
f 216 217 195
f 216 215 256
f 216 248 217
f 256 249 216
f 249 248 216
f 182 58 174
f 175 183 182
f 182 176 175
f 174 176 182
f 55 56 184
f 55 185 54
f 55 184 185
f 54 59 55
f 59 56 55
f 59 58 57
f 57 56 59
f 58 182 57
f 183 56 57
f 57 182 183
f 62 61 86
f 61 85 86
f 86 68 62
f 92 93 86
f 86 85 92
f 100 128 129
f 129 329 313
f 313 100 129
f 129 128 139
f 139 338 129
f 129 338 329
f 98 128 99
f 99 128 100
f 105 321 322
f 98 99 105
f 106 100 313
f 313 321 106
f 321 105 106
f 106 99 100
f 106 105 99
f 96 97 107
f 107 97 98
f 95 96 107
f 107 94 95
f 101 68 107
f 107 93 94
f 107 86 93
f 68 86 107
f 314 321 313
f 315 321 314
f 287 288 296
f 295 287 296
f 296 149 295
f 296 288 141
f 141 149 296
f 156 131 130
f 155 131 156
f 289 155 156
f 156 130 272
f 272 289 156
f 234 233 239
f 239 235 234
f 177 178 175
f 175 176 177
f 261 260 273
f 224 223 263
f 263 225 224
f 226 264 274
f 226 225 264
f 226 274 342
f 218 248 122
f 122 87 218
f 122 248 121
f 71 78 70
f 84 78 71
f 71 72 84
f 104 105 322
f 322 323 104
f 323 103 104
f 103 107 104
f 98 105 104
f 104 107 98
f 101 107 102
f 102 107 103
f 102 103 324
f 102 325 101
f 102 324 325
f 219 11 49
f 49 257 219
f 219 257 258
f 12 228 23
f 23 10 12
f 229 22 23
f 23 228 229
f 236 16 235
f 203 15 236
f 15 16 236
f 19 233 18
f 19 18 33
f 33 20 19
f 263 223 262
f 223 261 262
f 280 263 262
f 262 273 280
f 262 261 273
f 87 122 88
f 121 89 88
f 88 122 121
f 21 22 230
f 22 229 230
f 231 21 230
f 230 239 231
f 230 229 239
f 232 239 233
f 233 19 232
f 232 19 20
f 232 20 231
f 231 239 232
f 178 177 206
f 206 207 178
f 239 207 206
f 13 12 10
f 222 261 223
f 260 261 222
f 223 239 222
f 220 219 258
f 220 237 219
f 220 229 228
f 235 239 205
f 239 206 205
f 178 207 208
f 210 342 170
f 210 226 342
f 238 220 228
f 237 220 238
f 10 11 14
f 14 13 10
f 14 238 13
f 237 238 14
f 239 229 221
f 229 220 221
f 221 222 239
f 260 222 221
f 221 220 258
f 203 236 204
f 204 176 174
f 204 174 203
f 204 205 176
f 204 236 235
f 235 205 204
f 178 208 179
f 170 178 179
f 179 180 170
f 209 208 227
f 227 207 239
f 227 208 207
f 227 239 223
f 223 224 227
f 227 224 225
f 227 210 209
f 225 226 227
f 226 210 227
f 181 180 209
f 209 210 181
f 170 180 181
f 181 210 170
f 259 221 258
f 260 221 259
f 258 278 259
f 278 273 259
f 273 260 259
f 301 284 283
f 300 301 283
f 38 27 37
f 28 27 38
f 125 95 94
f 94 124 125
f 302 284 301
f 285 284 302
f 162 163 145
f 145 163 146
f 305 307 166
f 166 159 305
f 333 317 316
f 333 316 332
f 285 302 286
f 286 302 303
f 304 286 303
f 287 286 304
f 300 283 282
f 282 299 300
f 298 299 282
f 282 281 298
f 197 70 78
f 78 201 197
f 28 38 29
f 29 38 39
f 287 304 288
f 288 304 305
f 245 270 271
f 271 246 245
f 131 132 110
f 110 109 131
f 134 111 133
f 112 111 134
f 112 134 113
f 113 134 135
f 201 78 79
f 200 201 79
f 72 89 90
f 90 73 72
f 216 194 215
f 195 194 216
f 329 330 314
f 313 329 314
f 314 331 315
f 314 330 331
f 89 72 88
f 72 71 88
f 70 87 88
f 88 71 70
f 205 177 176
f 205 206 177
f 12 13 238
f 228 12 238
f 219 237 14
f 11 219 14
f 179 208 209
f 209 180 179

