# https://github.com/mikedh/trimesh

o p00053.obj
v -47.42047567 26.16289336 -9.62500000
v -47.49774144 25.74205862 -9.62500000
v -47.51568639 25.31456610 -9.62500000
v -47.47396124 24.88873646 -9.62500000
v -47.37337812 24.47285798 -9.62500000
v -47.21589478 24.07502526 -9.62500000
v -47.00457644 23.70298167 -9.62500000
v -46.74353617 23.36396861 -9.62500000
v -46.43785483 23.06458459 -9.62500000
v -46.09348216 22.81065677 -9.62500000
v -45.71712098 22.60712757 -9.62500000
v -45.31609673 22.45795846 -9.62500000
v -44.89821489 22.36605284 -9.62500000
v -44.47160906 22.33319954 -9.62500000
v -44.04458263 22.36003804 -9.62500000
v -43.62544719 22.44604593 -9.62500000
v -43.22236073 22.58954918 -9.62500000
v -42.84316888 22.78775466 -9.62500000
v -42.49525216 23.03680452 -9.62500000
v -42.18538239 23.33185129 -9.62500000
v -41.91959083 23.66715223 -9.62500000
v -41.70305080 24.03618108 -9.62500000
v -41.53997701 24.43175511 -9.62500000
v -41.43354351 24.84617492 -9.62500000
v -41.38582190 25.27137431 -9.62500000
v -41.39774104 25.69907726 -9.62500000
v -41.46906892 26.12095900 -9.62500000
v -41.59841724 26.52880810 -9.62500000
v -41.78326837 26.91468624 -9.62500000
v -42.02002440 27.27108272 -9.62500000
v -42.30407714 27.59106071 -9.62500000
v -42.62989783 27.86839220 -9.62500000
v -42.99114473 28.09767924 -9.62500000
v -43.38078660 28.27445902 -9.62500000
v -43.79123948 28.39529073 -9.62500000
v -44.21451440 28.45782251 -9.62500000
v -44.64237277 28.46083726 -9.62500000
v -45.06648682 28.40427628 -9.62500000
v -45.47860166 28.28924049 -9.62500000
v -45.87069594 28.11796892 -9.62500000
v -46.23513798 27.89379517 -9.62500000
v -46.56483435 27.62108254 -9.62500000
v -46.85336787 27.30513906 -9.62500000
v -47.09512257 26.95211422 -9.62500000
v -47.28539297 26.56887924 -9.62500000
v -46.48399085 25.92238034 -9.62500000
v -46.53689748 25.63421976 -9.62500000
v -46.54918503 25.34150036 -9.62500000
v -46.52061433 25.04991958 -9.62500000
v -46.45174148 24.76515272 -9.62500000
v -46.34390700 24.49274244 -9.62500000
v -46.19920978 24.23799090 -9.62500000
v -46.02046618 24.00585654 -9.62500000
v -45.81115524 23.80085760 -9.62500000
v -45.57535097 23.62698415 -9.62500000
v -45.31764302 23.48762044 -9.62500000
v -45.04304738 23.38547901 -9.62500000
v -44.75690875 23.32254795 -9.62500000
v -44.46479649 23.30005213 -9.62500000
v -44.17239624 23.31842940 -9.62500000
v -43.88539922 23.37732208 -9.62500000
v -43.60939152 23.47558388 -9.62500000
v -43.34974531 23.61130226 -9.62500000
v -43.11151430 23.78183560 -9.62500000
v -42.89933539 23.98386467 -9.62500000
v -42.71733841 24.21345720 -9.62500000
v -42.56906571 24.46614444 -9.62500000
v -42.45740326 24.73700812 -9.62500000
v -42.38452444 25.02077618 -9.62500000
v -42.35184775 25.31192540 -9.62500000
v -42.36000921 25.60478889 -9.62500000
v -42.40884996 25.89366640 -9.62500000
v -42.49741937 26.17293525 -9.62500000
v -42.62399355 26.43715980 -9.62500000
v -42.78610886 26.68119721 -9.62500000
v -42.98060993 26.90029757 -9.62500000
v -43.20371100 27.09019635 -9.62500000
v -43.45106966 27.24719739 -9.62500000
v -43.71787137 27.36824482 -9.62500000
v -43.99892313 27.45098261 -9.62500000
v -44.28875459 27.49380035 -9.62500000
v -44.58172451 27.49586466 -9.62500000
v -44.87213056 27.45713534 -9.62500000
v -45.15432032 27.37836622 -9.62500000
v -45.42280128 27.26109045 -9.62500000
v -45.67234777 27.10759068 -9.62500000
v -45.89810266 26.92085459 -9.62500000
v -46.09567187 26.70451680 -9.62500000
v -46.26120996 26.46278808 -9.62500000
v -46.39149490 26.20037339 -9.62500000
v -47.42047567 26.16289336 9.42500000
v -47.49774144 25.74205862 9.42500000
v -47.51568639 25.31456610 9.42500000
v -47.47396124 24.88873646 9.42500000
v -47.37337812 24.47285798 9.42500000
v -47.21589478 24.07502526 9.42500000
v -47.00457644 23.70298167 9.42500000
v -46.74353617 23.36396861 9.42500000
v -46.43785483 23.06458459 9.42500000
v -46.09348216 22.81065677 9.42500000
v -45.71712098 22.60712757 9.42500000
v -45.31609673 22.45795846 9.42500000
v -44.89821489 22.36605284 9.42500000
v -44.47160906 22.33319954 9.42500000
v -44.04458263 22.36003804 9.42500000
v -43.62544719 22.44604593 9.42500000
v -43.22236073 22.58954918 9.42500000
v -42.84316888 22.78775466 9.42500000
v -42.49525216 23.03680452 9.42500000
v -42.18538239 23.33185129 9.42500000
v -41.91959083 23.66715223 9.42500000
v -41.70305080 24.03618108 9.42500000
v -41.53997701 24.43175511 9.42500000
v -41.43354351 24.84617492 9.42500000
v -41.38582190 25.27137431 9.42500000
v -41.39774104 25.69907726 9.42500000
v -41.46906892 26.12095900 9.42500000
v -41.59841724 26.52880810 9.42500000
v -41.78326837 26.91468624 9.42500000
v -42.02002440 27.27108272 9.42500000
v -42.30407714 27.59106071 9.42500000
v -42.62989783 27.86839220 9.42500000
v -42.99114473 28.09767924 9.42500000
v -43.38078660 28.27445902 9.42500000
v -43.79123948 28.39529073 9.42500000
v -44.21451440 28.45782251 9.42500000
v -44.64237277 28.46083726 9.42500000
v -45.06648682 28.40427628 9.42500000
v -45.47860166 28.28924049 9.42500000
v -45.87069594 28.11796892 9.42500000
v -46.23513798 27.89379517 9.42500000
v -46.56483435 27.62108254 9.42500000
v -46.85336787 27.30513906 9.42500000
v -47.09512257 26.95211422 9.42500000
v -47.28539297 26.56887924 9.42500000
v -46.48399085 25.92238034 9.42500000
v -46.53689748 25.63421976 9.42500000
v -46.54918503 25.34150036 9.42500000
v -46.52061433 25.04991958 9.42500000
v -46.45174148 24.76515272 9.42500000
v -46.34390700 24.49274244 9.42500000
v -46.19920978 24.23799090 9.42500000
v -46.02046618 24.00585654 9.42500000
v -45.81115524 23.80085760 9.42500000
v -45.57535097 23.62698415 9.42500000
v -45.31764302 23.48762044 9.42500000
v -45.04304738 23.38547901 9.42500000
v -44.75690875 23.32254795 9.42500000
v -44.46479649 23.30005213 9.42500000
v -44.17239624 23.31842940 9.42500000
v -43.88539922 23.37732208 9.42500000
v -43.60939152 23.47558388 9.42500000
v -43.34974531 23.61130226 9.42500000
v -43.11151430 23.78183560 9.42500000
v -42.89933539 23.98386467 9.42500000
v -42.71733841 24.21345720 9.42500000
v -42.56906571 24.46614444 9.42500000
v -42.45740326 24.73700812 9.42500000
v -42.38452444 25.02077618 9.42500000
v -42.35184775 25.31192540 9.42500000
v -42.36000921 25.60478889 9.42500000
v -42.40884996 25.89366640 9.42500000
v -42.49741937 26.17293525 9.42500000
v -42.62399355 26.43715980 9.42500000
v -42.78610886 26.68119721 9.42500000
v -42.98060993 26.90029757 9.42500000
v -43.20371100 27.09019635 9.42500000
v -43.45106966 27.24719739 9.42500000
v -43.71787137 27.36824482 9.42500000
v -43.99892313 27.45098261 9.42500000
v -44.28875459 27.49380035 9.42500000
v -44.58172451 27.49586466 9.42500000
v -44.87213056 27.45713534 9.42500000
v -45.15432032 27.37836622 9.42500000
v -45.42280128 27.26109045 9.42500000
v -45.67234777 27.10759068 9.42500000
v -45.89810266 26.92085459 9.42500000
v -46.09567187 26.70451680 9.42500000
v -46.26120996 26.46278808 9.42500000
v -46.39149490 26.20037339 9.42500000
v -47.50098627 26.18357052 -0.10000000
v -47.58034622 25.75132964 -0.10000000
v -47.59877755 25.31225053 -0.10000000
v -47.55592149 24.87487937 -0.10000000
v -47.45261221 24.44772908 -0.10000000
v -47.29086050 24.03911367 -0.10000000
v -47.07381467 23.65698635 -0.10000000
v -46.80569927 23.30878482 -0.10000000
v -46.49173287 23.00128641 -0.10000000
v -46.13802645 22.74047623 -0.10000000
v -45.75146453 22.53143065 -0.10000000
v -45.33957107 22.37821852 -0.10000000
v -44.91036313 22.28382193 -0.10000000
v -44.47219474 22.25007819 -0.10000000
v -44.03359436 22.27764410 -0.10000000
v -43.60309884 22.36598312 -0.10000000
v -43.18908728 22.51337583 -0.10000000
v -42.79961796 22.71695339 -0.10000000
v -42.44227145 22.97275340 -0.10000000
v -42.12400309 23.27579700 -0.10000000
v -41.85100761 23.62018581 -0.10000000
v -41.62859857 23.99921666 -0.10000000
v -41.46110489 24.40551218 -0.10000000
v -41.35178666 24.83116427 -0.10000000
v -41.30277163 25.26788809 -0.10000000
v -41.31501381 25.70718333 -0.10000000
v -41.38827494 26.14049959 -0.10000000
v -41.52112906 26.55940287 -0.10000000
v -41.71099032 26.95573969 -0.10000000
v -41.95416330 27.32179581 -0.10000000
v -42.24591489 27.65044636 -0.10000000
v -42.58056649 27.93529453 -0.10000000
v -42.95160449 28.17079608 -0.10000000
v -43.35180706 28.35236723 -0.10000000
v -43.77338470 28.47647391 -0.10000000
v -44.20813189 28.54070053 -0.10000000
v -44.64758676 28.54379698 -0.10000000
v -45.08319584 28.48570300 -0.10000000
v -45.50648047 28.36754933 -0.10000000
v -45.90920192 28.19163568 -0.10000000
v -46.28352166 27.96138601 -0.10000000
v -46.62215399 27.68128189 -0.10000000
v -46.91850781 27.35677520 -0.10000000
v -47.16681494 26.99418211 -0.10000000
v -47.36224235 26.60056008 -0.10000000
v -47.43389410 26.16633955 7.83750000
v -47.44731254 26.16978574 6.25000000
v -47.46073097 26.17323194 4.66250000
v -47.47414941 26.17667813 3.07500000
v -47.48756784 26.18012432 1.48750000
v -47.11648728 26.94296659 7.83750000
v -46.60131929 27.60515887 7.83750000
v -47.12847835 26.94990524 6.25000000
v -45.92659780 28.10380459 7.83750000
v -46.61099368 27.61507536 6.25000000
v -45.14236380 28.40192150 7.83750000
v -47.14046942 26.95684389 4.66250000
v -45.93323799 28.11596348 6.25000000
v -44.30678034 28.47739963 7.83750000
v -46.62066806 27.62499186 4.66250000
v -45.14547732 28.41542100 6.25000000
v -43.48181883 28.32464110 7.83750000
v -47.15246049 26.96378254 3.07500000
v -45.93987818 28.12812236 4.66250000
v -44.30613629 28.49123855 6.25000000
v -42.72866289 27.95497532 7.83750000
v -46.63034244 27.63490836 3.07500000
v -45.14859085 28.42892051 4.66250000
v -43.47746496 28.33779307 6.25000000
v -42.10317065 27.39581871 7.83750000
v -47.16445156 26.97072119 1.48750000
v -45.94651837 28.14028125 3.07500000
v -44.30549224 28.50507747 4.66250000
v -42.72092212 27.96646493 6.25000000
v -41.65173200 26.68864136 7.83750000
v -46.64001683 27.64482486 1.48750000
v -45.15170438 28.44242001 3.07500000
v -43.47311110 28.35094505 4.66250000
v -42.09261706 27.40479381 6.25000000
v -41.40782809 25.88589137 7.83750000
v -45.95315857 28.15244013 1.48750000
v -44.30484818 28.51891640 3.07500000
v -42.71318134 27.97795453 4.66250000
v -41.63914832 26.69443632 6.25000000
v -41.38954816 25.04710504 7.83750000
v -45.15481791 28.45591951 1.48750000
v -43.46875723 28.36409703 3.07500000
v -42.08206348 27.41376892 4.66250000
v -41.39414759 25.88807640 6.25000000
v -41.59824793 24.23449132 7.83750000
v -44.30420413 28.53275532 1.48750000
v -42.70544057 27.98944414 3.07500000
v -41.62656464 26.70023128 4.66250000
v -41.37578545 25.04551809 6.25000000
v -42.01844912 23.50831804 7.83750000
v -43.46440337 28.37724900 1.48750000
v -42.07150990 27.42274402 3.07500000
v -41.38046708 25.89026143 4.66250000
v -41.58542374 24.22925008 6.25000000
v -42.61898730 22.92244216 7.83750000
v -42.69769980 28.00093374 1.48750000
v -41.61398096 26.70602624 3.07500000
v -41.36202274 25.04393114 4.66250000
v -42.00751454 23.49981124 6.25000000
v -43.35532333 22.52031541 7.83750000
v -42.06095631 27.43171913 1.48750000
v -41.36678657 25.89244646 3.07500000
v -41.57259954 24.22400884 4.66250000
v -42.61075332 22.91130070 6.25000000
v -44.17284651 22.33176170 7.83750000
v -41.60139727 26.71182120 1.48750000
v -41.34826003 25.04234418 3.07500000
v -41.99657997 23.49130443 4.66250000
v -43.35040062 22.50736561 6.25000000
v -45.01092490 22.37076518 7.83750000
v -41.35310607 25.89463149 1.48750000
v -41.55977534 24.21876760 3.07500000
v -42.60251934 22.90015924 4.66250000
v -44.17160016 22.31796397 6.25000000
v -45.80740206 22.63443315 7.83750000
v -41.33449732 25.04075723 1.48750000
v -41.98564540 23.48279762 3.07500000
v -43.34547790 22.49441580 4.66250000
v -45.01344735 22.35714285 6.25000000
v -46.50320691 23.10321056 7.83750000
v -41.54695115 24.21352636 1.48750000
v -42.59428536 22.88901777 3.07500000
v -44.17035382 22.30416625 4.66250000
v -45.81350623 22.62199653 6.25000000
v -47.04673480 23.74233034 7.83750000
v -41.97471083 23.47429082 1.48750000
v -43.34055519 22.48146599 3.07500000
v -45.01596981 22.34352052 4.66250000
v -46.51244009 23.09288201 6.25000000
v -47.39767475 24.50439190 7.83750000
v -42.58605139 22.87787631 1.48750000
v -44.16910747 22.29036852 3.07500000
v -45.81961040 22.60955990 4.66250000
v -47.05841220 23.73487588 6.25000000
v -47.52999915 25.33287660 7.83750000
v -43.33563248 22.46851618 1.48750000
v -45.01849226 22.32989819 3.07500000
v -46.52167326 23.08255345 4.66250000
v -47.41093031 24.50036439 6.25000000
v -44.16786112 22.27657080 1.48750000
v -45.82571458 22.59712327 3.07500000
v -47.07008960 23.72742141 4.66250000
v -47.54384977 25.33257475 6.25000000
v -45.02101471 22.31627586 1.48750000
v -46.53090644 23.07222490 3.07500000
v -47.42418587 24.49633688 4.66250000
v -45.83181875 22.58468665 1.48750000
v -47.08176699 23.71996695 3.07500000
v -47.55770038 25.33227290 4.66250000
v -46.54013962 23.06189634 1.48750000
v -47.43744143 24.49230937 3.07500000
v -47.09344439 23.71251249 1.48750000
v -47.57155099 25.33197105 3.07500000
v -47.45069698 24.48828186 1.48750000
v -47.58540161 25.33166920 1.48750000
v -47.43389410 26.16633955 -8.03750000
v -47.44731254 26.16978574 -6.45000000
v -47.46073097 26.17323194 -4.86250000
v -47.47414941 26.17667813 -3.27500000
v -47.48756784 26.18012432 -1.68750000
v -47.52999915 25.33287660 -8.03750000
v -47.39767475 24.50439190 -8.03750000
v -47.54384977 25.33257475 -6.45000000
v -47.04673480 23.74233034 -8.03750000
v -47.41093031 24.50036439 -6.45000000
v -46.50320691 23.10321056 -8.03750000
v -47.55770038 25.33227290 -4.86250000
v -47.05841220 23.73487588 -6.45000000
v -45.80740206 22.63443315 -8.03750000
v -47.42418587 24.49633688 -4.86250000
v -46.51244009 23.09288201 -6.45000000
v -45.01092490 22.37076518 -8.03750000
v -47.57155099 25.33197105 -3.27500000
v -47.07008960 23.72742141 -4.86250000
v -45.81350623 22.62199653 -6.45000000
v -44.17284651 22.33176170 -8.03750000
v -47.43744143 24.49230937 -3.27500000
v -46.52167326 23.08255345 -4.86250000
v -45.01344735 22.35714285 -6.45000000
v -43.35532333 22.52031541 -8.03750000
v -47.58540161 25.33166920 -1.68750000
v -47.08176699 23.71996695 -3.27500000
v -45.81961040 22.60955990 -4.86250000
v -44.17160016 22.31796397 -6.45000000
v -42.61898730 22.92244216 -8.03750000
v -47.45069698 24.48828186 -1.68750000
v -46.53090644 23.07222490 -3.27500000
v -45.01596981 22.34352052 -4.86250000
v -43.35040062 22.50736561 -6.45000000
v -42.01844912 23.50831804 -8.03750000
v -47.09344439 23.71251249 -1.68750000
v -45.82571458 22.59712327 -3.27500000
v -44.17035382 22.30416625 -4.86250000
v -42.61075332 22.91130070 -6.45000000
v -41.59824793 24.23449132 -8.03750000
v -46.54013962 23.06189634 -1.68750000
v -45.01849226 22.32989819 -3.27500000
v -43.34547790 22.49441580 -4.86250000
v -42.00751454 23.49981124 -6.45000000
v -41.38954816 25.04710504 -8.03750000
v -45.83181875 22.58468665 -1.68750000
v -44.16910747 22.29036852 -3.27500000
v -42.60251934 22.90015924 -4.86250000
v -41.58542374 24.22925008 -6.45000000
v -41.40782809 25.88589137 -8.03750000
v -45.02101471 22.31627586 -1.68750000
v -43.34055519 22.48146599 -3.27500000
v -41.99657997 23.49130443 -4.86250000
v -41.37578545 25.04551809 -6.45000000
v -41.65173200 26.68864136 -8.03750000
v -44.16786112 22.27657080 -1.68750000
v -42.59428536 22.88901777 -3.27500000
v -41.57259954 24.22400884 -4.86250000
v -41.39414759 25.88807640 -6.45000000
v -42.10317065 27.39581871 -8.03750000
v -43.33563248 22.46851618 -1.68750000
v -41.98564540 23.48279762 -3.27500000
v -41.36202274 25.04393114 -4.86250000
v -41.63914832 26.69443632 -6.45000000
v -42.72866289 27.95497532 -8.03750000
v -42.58605139 22.87787631 -1.68750000
v -41.55977534 24.21876760 -3.27500000
v -41.38046708 25.89026143 -4.86250000
v -42.09261706 27.40479381 -6.45000000
v -43.48181883 28.32464110 -8.03750000
v -41.97471083 23.47429082 -1.68750000
v -41.34826003 25.04234418 -3.27500000
v -41.62656464 26.70023128 -4.86250000
v -42.72092212 27.96646493 -6.45000000
v -44.30678034 28.47739963 -8.03750000
v -41.54695115 24.21352636 -1.68750000
v -41.36678657 25.89244646 -3.27500000
v -42.08206348 27.41376892 -4.86250000
v -43.47746496 28.33779307 -6.45000000
v -45.14236380 28.40192150 -8.03750000
v -41.33449732 25.04075723 -1.68750000
v -41.61398096 26.70602624 -3.27500000
v -42.71318134 27.97795453 -4.86250000
v -44.30613629 28.49123855 -6.45000000
v -45.92659780 28.10380459 -8.03750000
v -41.35310607 25.89463149 -1.68750000
v -42.07150990 27.42274402 -3.27500000
v -43.47311110 28.35094505 -4.86250000
v -45.14547732 28.41542100 -6.45000000
v -46.60131929 27.60515887 -8.03750000
v -41.60139727 26.71182120 -1.68750000
v -42.70544057 27.98944414 -3.27500000
v -44.30549224 28.50507747 -4.86250000
v -45.93323799 28.11596348 -6.45000000
v -47.11648728 26.94296659 -8.03750000
v -42.06095631 27.43171913 -1.68750000
v -43.46875723 28.36409703 -3.27500000
v -45.14859085 28.42892051 -4.86250000
v -46.61099368 27.61507536 -6.45000000
v -42.69769980 28.00093374 -1.68750000
v -44.30484818 28.51891640 -3.27500000
v -45.93987818 28.12812236 -4.86250000
v -47.12847835 26.94990524 -6.45000000
v -43.46440337 28.37724900 -1.68750000
v -45.15170438 28.44242001 -3.27500000
v -46.62066806 27.62499186 -4.86250000
v -44.30420413 28.53275532 -1.68750000
v -45.94651837 28.14028125 -3.27500000
v -47.14046942 26.95684389 -4.86250000
v -45.15481791 28.45591951 -1.68750000
v -46.63034244 27.63490836 -3.27500000
v -45.95315857 28.15244013 -1.68750000
v -47.15246049 26.96378254 -3.27500000
v -46.64001683 27.64482486 -1.68750000
v -47.16445156 26.97072119 -1.68750000
f 75 29 74
f 75 30 29
f 73 74 29
f 73 29 28
f 76 30 75
f 76 31 30
f 72 73 28
f 72 28 27
f 77 31 76
f 77 32 31
f 71 27 26
f 71 72 27
f 78 32 77
f 78 33 32
f 70 71 26
f 70 26 25
f 79 33 78
f 79 34 33
f 69 70 25
f 69 25 24
f 80 35 34
f 80 36 35
f 80 34 79
f 68 24 23
f 68 69 24
f 81 36 80
f 67 68 23
f 67 23 22
f 82 37 36
f 82 38 37
f 82 36 81
f 66 22 21
f 66 67 22
f 83 38 82
f 65 21 20
f 65 66 21
f 84 38 83
f 84 39 38
f 64 20 19
f 64 65 20
f 85 40 39
f 85 39 84
f 63 19 18
f 63 64 19
f 86 40 85
f 41 40 86
f 17 62 63
f 17 63 18
f 42 86 87
f 42 41 86
f 88 42 87
f 16 61 62
f 16 62 17
f 43 42 88
f 43 88 89
f 15 61 16
f 15 60 61
f 44 43 89
f 14 60 15
f 14 58 59
f 14 59 60
f 45 44 89
f 45 89 90
f 13 58 14
f 1 45 90
f 1 90 46
f 12 56 57
f 12 57 58
f 12 58 13
f 2 1 46
f 2 46 47
f 11 56 12
f 3 2 47
f 3 47 48
f 10 56 11
f 10 54 55
f 10 55 56
f 4 48 49
f 4 3 48
f 9 54 10
f 5 49 50
f 5 50 51
f 5 4 49
f 8 52 53
f 8 53 54
f 8 54 9
f 6 5 51
f 6 51 52
f 7 52 8
f 7 6 52
f 165 164 119
f 165 119 120
f 163 119 164
f 163 118 119
f 166 165 120
f 166 120 121
f 162 118 163
f 162 117 118
f 167 166 121
f 167 121 122
f 161 116 117
f 161 117 162
f 168 167 122
f 168 122 123
f 160 116 161
f 160 115 116
f 169 168 123
f 169 123 124
f 159 115 160
f 159 114 115
f 170 124 125
f 170 125 126
f 170 169 124
f 158 113 114
f 158 114 159
f 171 170 126
f 157 113 158
f 157 112 113
f 172 126 127
f 172 127 128
f 172 171 126
f 156 111 112
f 156 112 157
f 173 172 128
f 155 110 111
f 155 111 156
f 174 173 128
f 174 128 129
f 154 109 110
f 154 110 155
f 175 129 130
f 175 174 129
f 153 108 109
f 153 109 154
f 176 175 130
f 131 176 130
f 107 153 152
f 107 108 153
f 132 177 176
f 132 176 131
f 178 177 132
f 106 152 151
f 106 107 152
f 133 178 132
f 133 179 178
f 105 106 151
f 105 151 150
f 134 179 133
f 104 105 150
f 104 149 148
f 104 150 149
f 135 179 134
f 135 180 179
f 103 104 148
f 91 180 135
f 91 136 180
f 102 147 146
f 102 148 147
f 102 103 148
f 92 136 91
f 92 137 136
f 101 102 146
f 93 137 92
f 93 138 137
f 100 101 146
f 100 145 144
f 100 146 145
f 94 139 138
f 94 138 93
f 99 100 144
f 95 140 139
f 95 141 140
f 95 139 94
f 98 143 142
f 98 144 143
f 98 99 144
f 96 141 95
f 96 142 141
f 97 98 142
f 97 142 96
f 226 91 135
f 225 181 230
f 226 92 91
f 181 182 230
f 231 226 135
f 231 134 133
f 231 135 134
f 232 231 133
f 232 132 131
f 232 133 132
f 233 226 231
f 233 227 226
f 234 232 131
f 234 130 129
f 234 131 130
f 235 233 231
f 235 231 232
f 236 234 129
f 236 128 127
f 236 129 128
f 237 227 233
f 237 228 227
f 238 232 234
f 238 235 232
f 239 236 127
f 239 126 125
f 239 127 126
f 240 233 235
f 240 237 233
f 241 238 234
f 241 234 236
f 242 239 125
f 242 124 123
f 242 125 124
f 243 229 228
f 243 230 229
f 243 228 237
f 244 235 238
f 244 240 235
f 245 236 239
f 245 241 236
f 246 242 123
f 246 122 121
f 246 123 122
f 247 243 237
f 247 237 240
f 248 244 238
f 248 238 241
f 249 245 239
f 249 239 242
f 250 246 121
f 250 120 119
f 250 121 120
f 251 223 224
f 251 224 225
f 251 225 230
f 251 230 243
f 252 247 240
f 252 240 244
f 253 241 245
f 253 245 249
f 253 248 241
f 254 242 246
f 254 249 242
f 255 250 119
f 255 118 117
f 255 119 118
f 256 223 251
f 256 221 222
f 256 222 223
f 256 251 243
f 256 243 247
f 257 248 253
f 257 252 244
f 257 244 248
f 258 253 249
f 259 246 250
f 259 250 255
f 259 254 246
f 260 255 117
f 260 116 115
f 260 117 116
f 261 247 252
f 261 221 256
f 261 219 220
f 261 220 221
f 261 256 247
f 262 257 253
f 263 249 254
f 263 258 249
f 264 259 255
f 265 260 115
f 265 114 113
f 265 115 114
f 266 219 261
f 266 261 252
f 266 217 218
f 266 218 219
f 266 257 262
f 266 252 257
f 267 258 263
f 267 262 253
f 267 253 258
f 268 263 254
f 268 259 264
f 268 254 259
f 269 264 255
f 269 255 260
f 270 113 112
f 270 265 113
f 271 217 266
f 271 215 216
f 271 216 217
f 271 266 262
f 272 263 268
f 272 267 263
f 273 268 264
f 274 269 260
f 274 260 265
f 274 265 270
f 275 270 112
f 275 111 110
f 275 112 111
f 276 271 262
f 276 262 267
f 276 215 271
f 276 267 272
f 276 213 214
f 276 214 215
f 277 272 268
f 278 273 264
f 278 264 269
f 279 274 270
f 280 275 110
f 280 109 108
f 280 110 109
f 281 211 212
f 281 212 213
f 281 213 276
f 281 276 272
f 282 277 268
f 282 268 273
f 283 278 269
f 283 269 274
f 283 274 279
f 284 279 270
f 284 270 275
f 285 280 108
f 285 107 106
f 285 108 107
f 286 272 277
f 286 209 210
f 286 210 211
f 286 211 281
f 286 281 272
f 287 278 283
f 287 273 278
f 287 282 273
f 288 283 279
f 288 279 284
f 289 275 280
f 289 284 275
f 290 105 104
f 290 106 105
f 290 285 106
f 291 207 208
f 291 208 209
f 291 286 277
f 291 277 282
f 291 209 286
f 292 287 283
f 293 288 284
f 294 280 285
f 294 289 280
f 294 285 290
f 295 290 104
f 295 103 102
f 295 104 103
f 296 205 206
f 296 206 207
f 296 207 291
f 296 282 287
f 296 291 282
f 297 283 288
f 297 292 283
f 297 288 293
f 298 284 289
f 298 293 284
f 299 290 295
f 299 294 290
f 300 295 102
f 300 101 100
f 300 102 101
f 301 204 205
f 301 205 296
f 301 287 292
f 301 296 287
f 302 297 293
f 302 293 298
f 303 298 289
f 303 289 294
f 304 299 295
f 305 99 98
f 305 100 99
f 305 300 100
f 306 301 292
f 306 202 203
f 306 203 204
f 306 204 301
f 306 297 302
f 306 292 297
f 307 302 298
f 307 298 303
f 308 294 299
f 308 303 294
f 309 295 300
f 309 304 295
f 310 305 98
f 310 97 96
f 310 98 97
f 311 302 307
f 311 200 201
f 311 201 202
f 311 306 302
f 311 202 306
f 312 307 303
f 312 303 308
f 313 308 299
f 313 304 309
f 313 299 304
f 314 309 300
f 314 300 305
f 315 310 96
f 315 95 94
f 315 96 95
f 316 198 199
f 316 199 200
f 316 311 307
f 316 200 311
f 317 308 313
f 317 312 308
f 318 313 309
f 319 314 305
f 319 305 310
f 320 315 94
f 320 93 92
f 320 94 93
f 320 92 226
f 320 226 227
f 321 196 197
f 321 197 198
f 321 307 312
f 321 316 307
f 321 198 316
f 322 313 318
f 322 317 313
f 323 309 314
f 323 318 309
f 324 310 315
f 324 319 310
f 325 194 195
f 325 195 196
f 325 196 321
f 325 312 317
f 325 321 312
f 325 317 322
f 326 318 323
f 326 322 318
f 327 314 319
f 327 323 314
f 327 319 324
f 328 320 227
f 328 324 315
f 328 315 320
f 329 192 193
f 329 193 194
f 329 194 325
f 329 325 322
f 329 322 326
f 330 326 323
f 331 324 328
f 331 327 324
f 332 190 191
f 332 191 192
f 332 192 329
f 332 329 326
f 333 323 327
f 333 330 323
f 334 328 227
f 334 331 328
f 334 227 228
f 335 332 326
f 335 188 189
f 335 189 190
f 335 190 332
f 335 326 330
f 336 333 327
f 336 327 331
f 337 186 187
f 337 187 188
f 337 335 330
f 337 188 335
f 337 330 333
f 338 334 228
f 338 336 331
f 338 228 229
f 338 331 334
f 339 184 185
f 339 185 186
f 339 337 333
f 339 333 336
f 339 186 337
f 340 229 230
f 340 182 183
f 340 183 184
f 340 230 182
f 340 184 339
f 340 338 229
f 340 336 338
f 340 339 336
f 341 1 2
f 182 181 345
f 341 45 1
f 181 225 345
f 346 341 2
f 346 2 3
f 346 3 4
f 347 4 5
f 347 5 6
f 347 346 4
f 348 342 341
f 348 341 346
f 349 347 6
f 349 6 7
f 349 7 8
f 350 346 347
f 350 348 346
f 351 349 8
f 351 8 9
f 351 9 10
f 352 343 342
f 352 342 348
f 353 347 349
f 353 350 347
f 354 351 10
f 354 10 11
f 354 11 12
f 355 348 350
f 355 352 348
f 356 353 349
f 356 349 351
f 357 12 13
f 357 13 14
f 357 354 12
f 358 344 343
f 358 345 344
f 358 343 352
f 359 350 353
f 359 353 356
f 359 355 350
f 360 351 354
f 360 356 351
f 361 357 14
f 361 14 15
f 361 15 16
f 362 352 355
f 362 358 352
f 363 359 356
f 364 354 357
f 364 360 354
f 365 361 16
f 365 16 17
f 365 17 18
f 366 183 182
f 366 184 183
f 366 182 345
f 366 345 358
f 367 362 355
f 367 355 359
f 368 356 360
f 368 363 356
f 369 364 357
f 369 357 361
f 369 361 365
f 370 365 18
f 370 18 19
f 370 19 20
f 371 185 184
f 371 186 185
f 371 362 367
f 371 358 362
f 371 366 358
f 371 184 366
f 372 359 363
f 372 363 368
f 372 367 359
f 373 360 364
f 373 368 360
f 374 365 370
f 374 369 365
f 375 370 20
f 375 20 21
f 375 21 22
f 376 187 186
f 376 188 187
f 376 371 367
f 376 186 371
f 377 368 373
f 377 372 368
f 378 373 364
f 378 364 369
f 379 370 375
f 379 374 370
f 380 22 23
f 380 375 22
f 381 189 188
f 381 190 189
f 381 188 376
f 381 367 372
f 381 376 367
f 382 377 373
f 383 369 374
f 383 378 369
f 384 379 375
f 385 380 23
f 385 23 24
f 385 24 25
f 386 191 190
f 386 192 191
f 386 372 377
f 386 190 381
f 386 381 372
f 387 382 373
f 387 373 378
f 388 374 379
f 388 383 374
f 389 384 375
f 389 375 380
f 390 385 25
f 390 25 26
f 390 26 27
f 391 192 386
f 391 377 382
f 391 386 377
f 391 193 192
f 391 194 193
f 391 382 387
f 392 378 383
f 392 383 388
f 392 387 378
f 393 388 379
f 393 379 384
f 394 389 380
f 394 380 385
f 395 390 27
f 395 27 28
f 395 28 29
f 396 195 194
f 396 196 195
f 396 194 391
f 396 391 387
f 397 392 388
f 398 393 384
f 398 384 389
f 398 389 394
f 399 385 390
f 399 394 385
f 400 395 29
f 400 29 30
f 400 30 31
f 401 196 396
f 401 197 196
f 401 198 197
f 401 387 392
f 401 396 387
f 402 388 393
f 402 397 388
f 402 393 398
f 403 398 394
f 404 390 395
f 404 399 390
f 405 31 32
f 405 400 31
f 405 32 33
f 406 198 401
f 406 199 198
f 406 200 199
f 406 392 397
f 406 397 402
f 406 401 392
f 407 402 398
f 408 394 399
f 408 403 394
f 409 404 395
f 409 395 400
f 410 405 33
f 410 33 34
f 410 34 35
f 411 200 406
f 411 201 200
f 411 202 201
f 411 406 402
f 412 398 403
f 412 407 398
f 413 399 404
f 413 408 399
f 414 409 400
f 414 405 410
f 414 400 405
f 415 410 35
f 415 35 36
f 415 36 37
f 416 203 202
f 416 204 203
f 416 407 412
f 416 202 411
f 416 402 407
f 416 411 402
f 417 403 408
f 417 412 403
f 418 413 404
f 418 404 409
f 419 414 410
f 420 415 37
f 420 37 38
f 420 38 39
f 421 416 412
f 421 205 204
f 421 204 416
f 421 412 417
f 422 408 413
f 422 417 408
f 423 418 409
f 423 409 414
f 424 415 420
f 424 419 410
f 424 410 415
f 425 420 39
f 425 39 40
f 425 40 41
f 426 206 205
f 426 207 206
f 426 205 421
f 426 421 417
f 427 418 423
f 427 413 418
f 427 422 413
f 428 423 414
f 428 414 419
f 429 420 425
f 429 424 420
f 430 425 41
f 430 41 42
f 430 42 43
f 431 426 417
f 431 207 426
f 431 417 422
f 431 208 207
f 431 209 208
f 432 423 428
f 432 427 423
f 433 419 424
f 433 428 419
f 433 424 429
f 434 429 425
f 435 430 43
f 435 45 341
f 435 43 44
f 435 44 45
f 436 210 209
f 436 211 210
f 436 209 431
f 436 427 432
f 436 422 427
f 436 431 422
f 437 432 428
f 437 428 433
f 438 429 434
f 438 433 429
f 439 434 425
f 439 430 435
f 439 425 430
f 440 212 211
f 440 213 212
f 440 211 436
f 440 436 432
f 440 432 437
f 441 437 433
f 442 438 434
f 443 439 435
f 443 435 341
f 443 341 342
f 444 213 440
f 444 214 213
f 444 215 214
f 444 440 437
f 445 433 438
f 445 441 433
f 446 434 439
f 446 442 434
f 447 216 215
f 447 217 216
f 447 215 444
f 447 437 441
f 447 444 437
f 447 441 445
f 448 438 442
f 448 445 438
f 449 439 443
f 449 446 439
f 449 443 342
f 449 342 343
f 450 447 445
f 450 218 217
f 450 219 218
f 450 217 447
f 450 445 448
f 451 448 442
f 451 442 446
f 452 450 448
f 452 219 450
f 452 220 219
f 452 221 220
f 453 344 345
f 453 449 343
f 453 451 446
f 453 343 344
f 453 446 449
f 454 221 452
f 454 222 221
f 454 223 222
f 454 448 451
f 454 452 448
f 455 223 454
f 455 345 225
f 455 451 453
f 455 224 223
f 455 225 224
f 455 453 345
f 455 454 451
f 46 180 136
f 90 180 46
f 90 179 180
f 89 179 90
f 89 178 179
f 88 178 89
f 88 177 178
f 87 177 88
f 87 176 177
f 86 176 87
f 86 175 176
f 85 175 86
f 85 174 175
f 84 174 85
f 84 173 174
f 83 173 84
f 83 172 173
f 82 172 83
f 82 171 172
f 81 171 82
f 81 170 171
f 80 170 81
f 80 169 170
f 79 169 80
f 79 168 169
f 78 168 79
f 77 168 78
f 77 167 168
f 76 167 77
f 76 166 167
f 75 166 76
f 75 165 166
f 74 165 75
f 74 164 165
f 73 164 74
f 73 163 164
f 72 162 163
f 72 163 73
f 71 161 162
f 71 162 72
f 70 160 161
f 70 161 71
f 69 159 160
f 69 160 70
f 68 157 158
f 68 158 159
f 68 159 69
f 67 156 157
f 67 157 68
f 66 156 67
f 65 156 66
f 65 155 156
f 64 155 65
f 64 153 154
f 64 154 155
f 63 153 64
f 63 152 153
f 62 152 63
f 61 152 62
f 61 150 151
f 61 151 152
f 60 150 61
f 59 150 60
f 59 149 150
f 58 149 59
f 58 148 149
f 57 148 58
f 57 146 147
f 57 147 148
f 56 146 57
f 55 146 56
f 55 145 146
f 54 145 55
f 54 143 144
f 54 144 145
f 53 143 54
f 52 143 53
f 52 141 142
f 52 142 143
f 51 140 141
f 51 141 52
f 50 140 51
f 49 138 139
f 49 139 140
f 49 140 50
f 48 137 138
f 48 138 49
f 47 137 48
f 46 136 137
f 46 137 47

