# https://github.com/mikedh/trimesh
v -44.33722091 -15.27585382 -5.18682719
v -13.80161515 -104.92580437 -5.24584049
v -56.08863331 7.78100245 -5.26595752
v -56.08648639 7.83808902 -5.28359347
v -56.08451353 7.89054723 -5.31220740
v -56.08279310 7.93629359 -5.35066286
v -56.08139341 7.97351122 -5.39743253
v -56.08037007 8.00072194 -5.45065885
v -56.07976371 8.01684504 -5.50822786
v -56.07959841 8.02124015 -5.56785308
v -56.09385949 8.02167293 -5.56791694
v -56.08910513 8.02155128 -5.56789583
v -56.08435140 8.02140702 -5.56787455
v -56.96349983 7.55430005 -5.56785308
v -56.88987329 7.65570221 -5.56835412
v -56.80385560 7.74662798 -5.56871870
v -56.70714651 7.82617942 -5.56894685
v -56.60144579 7.89345861 -5.56903855
v -56.48845318 7.94756761 -5.56899381
v -56.36986845 7.98760848 -5.56881262
v -56.24739136 8.01268330 -5.56849500
v -56.17084247 8.02028495 -5.56823179
v -56.95977619 7.55195935 -5.50822786
v -56.94611636 7.54337268 -5.45065885
v -56.92306286 7.52888107 -5.39743253
v -56.89153129 7.50906010 -5.35066286
v -56.85277399 7.48469697 -5.31220740
v -56.80833029 7.45675933 -5.28359347
v -56.67032655 7.61457962 -5.28060693
v -56.70960002 7.39469675 -5.26000000
v -56.33544596 7.76803793 -5.26638699
v -56.58616781 7.89272176 -5.40337758
v -60.24645991 2.33170825 -5.56785308
v -60.24273627 2.32936754 -5.50822786
v -60.22907644 2.32078087 -5.45065885
v -60.20602294 2.30628927 -5.39743253
v -60.17449137 2.28646829 -5.35066286
v -60.13573407 2.26210516 -5.31220740
v -60.09129037 2.23416752 -5.28359347
v -60.04292541 2.20376495 -5.26595752
v -49.92649181 7.48972389 -5.26000000
v -49.92425610 7.54917153 -5.26595752
v -49.92210917 7.60625810 -5.28359347
v -49.92013632 7.65871630 -5.31220740
v -49.91841588 7.70446267 -5.35066286
v -49.91701619 7.74168029 -5.39743253
v -49.91599285 7.76889102 -5.45065885
v -49.91538649 7.78501411 -5.50822786
v -49.91522120 7.78940923 -5.56785308
v -60.07145923 1.44505152 -5.26595752
v -60.01885820 1.47283915 -5.26000000
v -60.37142661 1.57033332 -5.56872575
v -60.39168967 1.69559680 -5.56895199
v -60.39642907 1.82251028 -5.56903816
v -60.38572004 1.94907358 -5.56898426
v -60.35963780 2.07328650 -5.56879031
v -60.31825757 2.19314885 -5.56845628
v -60.28523092 2.26386333 -5.56818119
v -60.23770235 1.73906620 -5.27730697
v -60.38417456 1.79562935 -5.40066728
v -49.33405893 7.11731617 -5.26000000
v -49.28145790 7.14510380 -5.26595752
v -49.78902635 7.77605930 -5.56835945
v -49.66577518 7.74631000 -5.56872575
v -49.54716230 7.70122659 -5.56895199
v -49.43488229 7.64187429 -5.56903816
v -49.33062978 7.56931835 -5.56898426
v -49.46017641 7.58723473 -5.31601728
v -36.11454214 -89.55491374 -5.28359347
v -35.74531158 -90.97763919 -5.56785308
v -35.74212989 -90.97460254 -5.50822786
v -35.73045815 -90.96346286 -5.45065885
v -35.71075993 -90.94466258 -5.39743253
v -35.68381756 -90.91894839 -5.35066286
v -35.65070112 -90.88734157 -5.31220740
v -35.61272588 -90.85109744 -5.28359347
v -35.57140011 -90.81165551 -5.26595752
v -35.91255792 -90.77679354 -5.56820765
v -36.05186050 -90.55566657 -5.56842038
v -36.16162630 -90.31837301 -5.56849129
v -36.24026230 -90.06902759 -5.56842038
v -35.92181555 -90.65233581 -5.34137310
v -35.85974813 -89.73155025 -5.18939602
v -36.23046135 -89.95892740 -5.39270945
v -11.07908049 -19.78307209 -5.26000000
v -11.06234772 -19.72598414 -5.26595752
v -19.97345256 -107.50280086 -5.56785308
v -19.97027087 -107.49976421 -5.50822786
v -19.95859913 -107.48862453 -5.45065885
v -19.93890091 -107.46982425 -5.39743253
v -19.91195854 -107.44411005 -5.35066286
v -19.87884210 -107.41250323 -5.31220740
v -10.59594770 -20.28928049 -5.26000000
v -10.53814170 -20.27522753 -5.26595752
v -10.48263156 -20.26173270 -5.28359347
v -10.43162198 -20.24933198 -5.31220740
v -10.38713889 -20.23851789 -5.35066286
v -10.35094902 -20.22971993 -5.39743253
v -10.32448971 -20.22328752 -5.45065885
v -10.30881185 -20.21947615 -5.50822786
v -10.30453810 -20.21843718 -5.56785308
v -10.65949258 -19.67095495 -5.56895199
v -10.56517662 -19.75600785 -5.56903816
v -10.48187850 -19.85189514 -5.56898426
v -10.41098015 -19.95716887 -5.56879031
v -10.35386356 -20.07038107 -5.56845628
v -10.32617017 -20.14334937 -5.56818119
v -10.64242738 -19.77639393 -5.31203031
v -19.01415332 -107.78397648 -5.56785308
v -19.01519229 -107.77970273 -5.50822786
v -19.01900366 -107.76402487 -5.45065885
v -19.02543607 -107.73756557 -5.39743253
v -19.03423403 -107.70137570 -5.35066286
v -19.04504812 -107.65689261 -5.31220740
v -19.05744884 -107.60588302 -5.28359347
v -19.13920856 -107.80552980 -5.56835945
v -19.26590167 -107.81050235 -5.56872575
v -19.39231186 -107.79945713 -5.56895199
v -19.51651832 -107.77295714 -5.56903816
v -19.63660026 -107.73156537 -5.56898426
v -19.75063689 -107.67584482 -5.56879031
v -19.85670741 -107.60635848 -5.56845628
v -19.91717474 -107.55701277 -5.56818119
v -19.51371856 -107.65480977 -5.25606213
v -9.08093018 -26.26937689 -5.26595752
v -9.02542004 -26.25588207 -5.28359347
v -8.97441046 -26.24348135 -5.31220740
v -8.89373750 -26.22386930 -5.39743253
v -8.86727820 -26.21743689 -5.45065885
v -8.85160033 -26.21362552 -5.50822786
v -8.84732659 -26.21258654 -5.56785308
v -13.02000395 -106.32676496 -5.56785308
v -13.02104292 -106.32249122 -5.50822786
v -13.02485429 -106.30681336 -5.45065885
v -13.03128670 -106.28035405 -5.39743253
v -13.04008466 -106.24416418 -5.35066286
v -13.05089875 -106.19968109 -5.31220740
v -13.06329947 -106.14867151 -5.28359347
v -13.07679430 -106.09316137 -5.26595752
v -9.33555912 -26.95493933 -5.26000000
v -8.82484282 -26.34140531 -5.56854407
v -8.88182149 -26.41197635 -5.34043549
v -12.29684909 -105.63657526 -5.56785308
v -12.36216265 -105.78148712 -5.47297203
v -12.31655287 -105.63079998 -5.45065885
v -12.34268350 -105.62314096 -5.39743253
v -12.37842383 -105.61266528 -5.35066286
v -12.42235436 -105.59978901 -5.31220740
v -12.47273031 -105.58502356 -5.28359347
v -12.58463887 -105.55222257 -5.26000000
v -12.34071100 -105.75565294 -5.56835945
v -12.39975120 -105.86785867 -5.56872575
v -12.47252172 -105.97181049 -5.56895199
v -12.55757462 -106.06612645 -5.56903816
v -12.65346191 -106.14942457 -5.56898426
v -12.75873564 -106.22032291 -5.56879031
v -12.87194784 -106.27743951 -5.56845628
v -12.94491614 -106.30513290 -5.56818119
v -12.68879253 -106.07437832 -5.30409181
v -10.56175660 -99.71688388 -5.56785308
v -10.56597726 -99.71564678 -5.50822786
v -10.60759101 -99.70344957 -5.39743253
v -10.64333133 -99.69297390 -5.35066286
v -10.68726186 -99.68009763 -5.31220740
v -10.73763782 -99.66533217 -5.28359347
v -10.79245842 -99.64926397 -5.26595752
v -10.53329135 -99.58925346 -5.56854407
v -10.74864592 -99.24793476 -5.26785333
v -10.52427149 -99.37592090 -5.45982811
v -10.59299836 -99.13668898 -5.38391103
v -29.18097757 -56.13988714 -15.33089557
v -50.25744160 -4.08253452 -15.33237873
v -59.96418324 1.61899743 -15.26380225
v -59.97786138 1.33377199 -15.08022465
v -35.74949908 -89.46144265 -15.26000000
v -35.80704733 -89.46010038 -15.25442554
v -59.96243386 2.32102655 -14.96785308
v -60.05404888 2.10498670 -15.06416845
v -59.94123374 2.30770000 -15.08022465
v -59.91737936 2.29270496 -15.13073004
v -59.88576365 2.27283108 -15.17489058
v -59.84756153 2.24881695 -15.21106513
v -59.80419273 2.22155500 -15.23790932
v -59.75726896 2.19205837 -15.25442554
v -60.02253431 2.20926208 -14.96835945
v -60.06742933 2.09068592 -14.96872575
v -60.09704371 1.96729823 -14.96895199
v -60.11130221 1.84109923 -14.96903816
v -60.11012961 1.71408909 -14.96898426
v -60.09345069 1.58826800 -14.96879031
v -60.06119022 1.46563615 -14.96845628
v -35.27990695 -90.67439194 -15.26000000
v -35.32154883 -90.71413557 -15.25442554
v -35.36164318 -90.75240221 -15.23790932
v -35.39869995 -90.78776974 -15.21106513
v -35.43134201 -90.81892381 -15.17489058
v -35.45835628 -90.84470662 -15.13073004
v -35.47873882 -90.86416002 -15.08022465
v -35.49173215 -90.87656105 -15.02525134
v -35.49685341 -90.88144885 -14.96785308
v -35.99180413 -89.97283725 -14.96842038
v -35.91316812 -90.22218267 -14.96849129
v -35.80340233 -90.45947623 -14.96842038
v -35.66409975 -90.68060320 -14.96820765
v -35.87272804 -90.20652634 -15.19861036
v -56.83073743 7.30298543 -14.96785308
v -56.82474385 7.29921782 -15.02525134
v -56.80953731 7.28965888 -15.08022465
v -56.78568293 7.27466384 -15.13073004
v -56.75406721 7.25478996 -15.17489058
v -56.71586510 7.23077583 -15.21106513
v -56.67249630 7.20351388 -15.23790932
v -56.57683762 7.14338212 -15.26000000
v -19.51025368 -107.15601236 -15.28829226
v -19.75829728 -107.10100215 -15.23790932
v -19.79535405 -107.13636969 -15.21106513
v -19.82799611 -107.16752375 -15.17489058
v -19.85501037 -107.19330657 -15.13073004
v -19.87539291 -107.21275997 -15.08022465
v -19.88838625 -107.22516100 -15.02525134
v -19.89350750 -107.23004880 -14.96785308
v -55.94683601 7.76992553 -14.96785308
v -55.94710207 7.76285113 -15.02525134
v -55.94777708 7.74490241 -15.08022465
v -55.94883598 7.71674639 -15.13073004
v -55.95023940 7.67942944 -15.17489058
v -55.95193520 7.63433838 -15.21106513
v -55.95594328 7.52776343 -15.25442554
v -55.95810663 7.47024019 -15.26000000
v -56.39888910 7.61179430 -15.21289163
v -55.96109708 7.77035831 -14.96791694
v -56.08603109 7.76493069 -14.96840245
v -56.20916420 7.74343215 -14.96875152
v -56.32879666 7.70676062 -14.96896415
v -56.44322871 7.65581404 -14.96904034
v -56.55076059 7.59149033 -14.96898008
v -56.64969254 7.51468744 -14.96878338
v -56.73832481 7.42630329 -14.96845023
v -56.78699994 7.36656165 -14.96817748
v -55.95158900 7.77009240 -14.96787455
v -55.95634272 7.77023666 -14.96789583
v -18.96626002 -107.37938148 -15.21106513
v -18.95560084 -107.42322737 -15.17489058
v -18.94677940 -107.45951381 -15.13073004
v -18.94012354 -107.48689231 -15.08022465
v -18.93588060 -107.50434538 -15.02525134
v -18.93420826 -107.51122442 -14.96785308
v -19.79987468 -107.31570073 -14.96835945
v -19.69591230 -107.38827962 -14.96872575
v -19.58354116 -107.44722245 -14.96895199
v -19.46468205 -107.49196625 -14.96903816
v -19.34125578 -107.52194801 -14.96898426
v -19.21518313 -107.53660475 -14.96879031
v -19.08838490 -107.53537345 -14.96845628
v -19.01084674 -107.52647787 -14.96818119
v -19.45366657 -107.48474087 -15.11986734
v -50.06648484 7.54877630 -14.96785308
v -50.06675090 7.54170191 -15.02525134
v -50.06742592 7.52375318 -15.08022465
v -50.06848481 7.49559717 -15.13073004
v -50.06988824 7.45828022 -15.17489058
v -50.07158403 7.41318915 -15.21106513
v -50.07350917 7.36199970 -15.23790932
v -50.07559212 7.30661420 -15.25442554
v -12.84659166 -105.75675880 -15.28256557
v -13.23763421 -106.03315743 -15.17489058
v -13.22881277 -106.06944388 -15.13073004
v -13.22215690 -106.09682238 -15.08022465
v -13.21791396 -106.11427545 -15.02525134
v -13.21624163 -106.12115449 -14.96785308
v -49.56356279 7.37934375 -15.11764009
v -49.48532257 6.87668324 -15.26000000
v -49.56134723 7.38565271 -14.96903816
v -49.67192754 7.44814228 -14.96898426
v -49.78923125 7.49660845 -14.96879031
v -49.91156378 7.52998599 -14.96845628
v -49.98859062 7.54256233 -14.96818119
v -49.59896946 7.20102895 -15.24557154
v -12.62329199 -105.39280096 -15.21106513
v -12.57999075 -105.40549278 -15.17489058
v -12.54415505 -105.41599641 -15.13073004
v -12.51711664 -105.42392151 -15.08022465
v -12.49988037 -105.42897355 -15.02525134
v -12.49308678 -105.43096479 -14.96785308
v -13.09524847 -106.08289205 -14.96835945
v -12.98041212 -106.02914743 -14.96872575
v -12.87318055 -105.96130259 -14.96895199
v -12.77500174 -105.88073948 -14.96903816
v -12.68732363 -105.78884007 -14.96898426
v -12.61159420 -105.68698632 -14.96879031
v -12.54926142 -105.57656019 -14.96845628
v -12.51819614 -105.50496238 -14.96818119
v -11.12572911 -99.69967277 -15.26000000
v -11.07048917 -99.71586388 -15.25442554
v -11.01730212 -99.73145329 -15.23790932
v -10.96814455 -99.74586163 -15.21106513
v -10.92484331 -99.75855345 -15.17489058
v -10.88900761 -99.76905708 -15.13073004
v -10.86196920 -99.77698218 -15.08022465
v -10.84473293 -99.78203422 -15.02525134
v -10.83793934 -99.78402546 -14.96785308
v -10.79787455 -99.52614268 -14.96875825
v -10.80947409 -99.65639504 -14.96854407
v -11.02982271 -99.31417817 -15.25197496
v -10.83684957 -99.26958290 -15.11796616
v -11.26849986 -19.92406984 -15.25442554
v -10.51014858 -20.41467486 -14.96785308
v -10.51702762 -20.41634719 -15.02525134
v -10.53448069 -20.42059013 -15.08022465
v -10.56185919 -20.42724600 -15.13073004
v -10.59814564 -20.43606744 -15.17489058
v -10.74562343 -20.47192012 -15.25442554
v -10.80155818 -20.48551817 -15.26000000
v -10.74677741 -20.14838614 -15.24079193
v -10.54841102 -20.29368169 -14.96835945
v -10.60215564 -20.17884535 -14.96872575
v -10.67000048 -20.07161378 -14.96895199
v -10.75056359 -19.97343496 -14.96903816
v -10.84246300 -19.88575686 -14.96898426
v -10.94431675 -19.81002743 -14.96879031
v -11.04984193 -19.76178345 -15.05695033
v -9.12007865 -26.13264149 -14.96785308
v -9.12695769 -26.13431382 -15.02525134
v -9.14441076 -26.13855676 -15.08022465
v -9.17178925 -26.14521263 -15.13073004
v -9.20807570 -26.15403407 -15.17489058
v -9.25192159 -26.16469325 -15.21106513
v -9.30169746 -26.17679405 -15.23790932
v -9.35555350 -26.18988675 -15.25442554
v -9.09208071 -26.39211178 -14.96875825
v -9.09759487 -26.26146025 -14.96854407
v -9.14297496 -26.64657541 -15.11796616
v -9.41265488 -26.66402712 -15.27144921
v -29.19354662 -56.08890912 -5.17572355
f 175 173 172
f 205 173 176
f 173 175 176
f 171 265 214
f 1 83 334
f 1 51 83
f 334 83 2
f 2 140 334
f 174 173 205
f 205 190 174
f 174 190 173
f 201 190 205
f 314 313 306
f 294 265 293
f 205 176 193
f 256 214 242
f 242 214 265
f 312 313 314
f 81 84 52
f 52 201 81
f 83 51 50
f 50 59 83
f 51 59 50
f 83 59 69
f 69 59 84
f 69 82 83
f 84 82 69
f 84 59 60
f 60 52 84
f 172 229 272
f 272 229 264
f 272 313 172
f 272 306 313
f 173 190 189
f 41 1 61
f 1 85 61
f 93 1 334
f 93 85 1
f 334 140 93
f 140 125 93
f 305 296 332
f 313 312 333
f 333 293 265
f 333 265 171
f 172 313 333
f 333 171 172
f 216 214 256
f 256 217 216
f 214 193 192
f 171 214 192
f 192 176 175
f 192 193 176
f 192 175 172
f 172 171 192
f 314 310 311
f 265 286 267
f 270 158 132
f 124 2 83
f 117 111 124
f 6 32 5
f 102 68 108
f 67 68 102
f 102 320 67
f 218 217 256
f 202 201 205
f 190 201 191
f 191 52 190
f 201 52 191
f 72 82 78
f 80 84 81
f 80 82 84
f 81 201 80
f 201 202 80
f 188 189 54
f 173 189 188
f 190 52 53
f 53 189 190
f 54 189 53
f 53 60 54
f 52 60 53
f 172 173 213
f 213 229 172
f 68 42 62
f 41 61 62
f 62 42 41
f 94 93 125
f 295 265 294
f 295 296 265
f 265 296 279
f 332 296 327
f 214 216 215
f 205 193 194
f 194 195 205
f 194 193 214
f 214 215 194
f 216 195 194
f 194 215 216
f 130 142 141
f 130 129 142
f 142 129 128
f 319 320 102
f 314 271 321
f 271 320 321
f 321 319 314
f 320 319 321
f 104 105 317
f 104 108 105
f 317 105 316
f 314 317 316
f 106 316 105
f 315 316 106
f 309 316 315
f 309 310 314
f 314 316 309
f 266 242 265
f 265 267 266
f 158 270 285
f 142 170 169
f 141 142 169
f 77 124 83
f 83 82 77
f 38 60 59
f 51 1 30
f 30 1 41
f 86 108 68
f 68 62 86
f 86 94 108
f 86 61 85
f 86 62 61
f 85 93 86
f 93 94 86
f 47 46 68
f 6 5 45
f 68 46 45
f 273 320 271
f 273 67 320
f 273 271 274
f 64 47 68
f 117 124 118
f 121 120 124
f 278 272 264
f 264 263 278
f 306 272 278
f 314 306 278
f 278 271 314
f 225 260 226
f 274 271 275
f 55 56 187
f 55 188 54
f 187 188 55
f 54 60 55
f 60 56 55
f 230 226 227
f 225 226 230
f 297 305 298
f 296 305 297
f 287 286 265
f 287 156 286
f 330 305 332
f 330 302 305
f 330 331 141
f 141 169 330
f 330 169 302
f 329 312 314
f 329 333 312
f 314 311 326
f 326 327 314
f 332 327 326
f 296 295 304
f 304 327 296
f 304 295 294
f 294 293 304
f 293 333 304
f 101 130 131
f 307 101 131
f 131 322 307
f 131 130 141
f 141 331 131
f 331 322 131
f 318 104 317
f 318 317 314
f 314 319 318
f 315 106 107
f 107 101 307
f 307 315 107
f 308 315 307
f 308 309 315
f 156 287 155
f 242 266 243
f 243 266 267
f 256 242 243
f 268 267 286
f 286 285 268
f 117 118 253
f 109 270 132
f 154 289 153
f 303 302 167
f 302 169 167
f 95 94 125
f 125 126 95
f 108 94 95
f 75 124 76
f 124 77 76
f 76 82 75
f 76 77 82
f 92 124 75
f 92 91 124
f 89 121 124
f 82 72 73
f 40 59 51
f 51 30 40
f 41 42 3
f 3 30 41
f 43 3 42
f 43 42 68
f 66 273 274
f 67 273 66
f 68 67 66
f 47 64 63
f 124 120 119
f 119 118 124
f 203 80 202
f 203 202 205
f 205 204 203
f 205 195 196
f 196 216 217
f 196 195 216
f 271 278 262
f 262 278 263
f 262 263 227
f 229 213 228
f 213 230 228
f 228 230 227
f 227 263 228
f 264 229 228
f 228 263 264
f 179 185 177
f 33 14 206
f 206 177 33
f 184 213 173
f 173 183 184
f 173 181 182
f 182 183 173
f 17 32 18
f 17 16 32
f 142 128 98
f 98 97 142
f 108 97 98
f 298 305 299
f 303 300 299
f 305 302 299
f 299 302 303
f 265 279 280
f 265 289 288
f 288 287 265
f 288 289 154
f 154 155 288
f 288 155 287
f 314 327 328
f 328 329 314
f 327 304 328
f 333 329 328
f 328 304 333
f 310 309 325
f 332 326 325
f 104 318 103
f 102 108 103
f 108 104 103
f 103 319 102
f 103 318 319
f 156 134 157
f 158 285 157
f 286 156 157
f 157 285 286
f 159 134 156
f 156 155 159
f 159 155 154
f 154 153 159
f 159 137 136
f 139 124 138
f 138 159 139
f 137 159 138
f 112 124 111
f 112 113 124
f 111 134 112
f 124 113 114
f 137 138 114
f 244 243 267
f 267 268 244
f 244 268 245
f 244 245 256
f 256 243 244
f 269 285 270
f 269 268 285
f 256 245 254
f 254 253 256
f 117 253 254
f 256 253 252
f 252 253 118
f 118 119 252
f 116 111 117
f 117 254 116
f 133 109 132
f 132 158 133
f 158 157 133
f 133 157 134
f 142 97 96
f 96 97 108
f 108 95 96
f 82 73 74
f 75 82 74
f 124 91 90
f 90 89 124
f 91 74 90
f 90 74 73
f 32 16 24
f 39 38 59
f 59 40 39
f 30 3 31
f 31 5 32
f 46 47 7
f 7 32 6
f 6 45 7
f 7 45 46
f 44 45 5
f 5 43 44
f 68 45 44
f 44 43 68
f 4 43 5
f 3 43 4
f 5 31 4
f 4 31 3
f 65 64 68
f 68 66 65
f 65 66 274
f 274 275 65
f 65 275 64
f 48 63 49
f 47 63 48
f 49 9 48
f 48 9 47
f 219 218 256
f 256 249 219
f 200 220 221
f 221 87 200
f 87 70 200
f 250 249 256
f 120 121 250
f 121 249 250
f 221 220 248
f 220 219 248
f 248 219 249
f 78 70 71
f 71 72 78
f 80 203 79
f 78 82 79
f 82 80 79
f 261 260 271
f 271 262 261
f 261 226 260
f 227 226 261
f 261 262 227
f 60 38 37
f 37 36 60
f 26 36 37
f 60 36 35
f 35 56 60
f 35 57 56
f 36 24 35
f 33 177 58
f 177 185 58
f 58 185 57
f 185 179 178
f 179 180 178
f 173 188 178
f 178 188 187
f 178 181 173
f 178 180 181
f 211 181 210
f 211 182 181
f 210 230 211
f 233 20 21
f 21 20 32
f 234 20 233
f 234 230 235
f 234 233 230
f 100 107 106
f 101 107 100
f 100 130 101
f 105 108 99
f 108 98 99
f 99 106 105
f 99 100 106
f 99 128 129
f 99 98 128
f 129 130 99
f 130 100 99
f 290 289 265
f 265 282 290
f 290 153 289
f 281 282 265
f 265 280 281
f 323 322 331
f 135 112 134
f 135 159 136
f 134 159 135
f 115 138 124
f 124 114 115
f 115 114 138
f 247 269 270
f 270 109 247
f 111 116 110
f 110 116 109
f 109 133 110
f 139 159 150
f 2 124 150
f 150 124 139
f 142 126 168
f 168 164 142
f 168 126 125
f 301 300 303
f 127 126 142
f 142 96 127
f 25 26 32
f 32 24 25
f 25 36 26
f 25 24 36
f 15 24 16
f 28 40 30
f 28 39 40
f 47 9 8
f 8 7 47
f 9 21 8
f 32 7 8
f 8 21 32
f 198 219 220
f 198 204 205
f 251 250 256
f 256 252 251
f 251 252 119
f 251 119 120
f 120 250 251
f 123 87 221
f 221 248 123
f 88 87 123
f 57 35 34
f 34 58 57
f 33 58 34
f 185 178 186
f 56 57 186
f 57 185 186
f 187 56 186
f 186 178 187
f 210 181 209
f 181 180 209
f 209 230 210
f 209 208 230
f 230 208 237
f 16 17 237
f 177 206 207
f 207 179 177
f 207 208 179
f 213 184 212
f 212 184 183
f 212 230 213
f 212 211 230
f 20 234 19
f 18 32 19
f 32 20 19
f 19 235 18
f 19 234 235
f 276 275 271
f 64 275 276
f 276 63 64
f 22 9 11
f 22 21 9
f 10 9 49
f 224 260 225
f 225 230 224
f 230 233 224
f 258 224 223
f 282 283 291
f 291 290 282
f 324 325 309
f 332 325 324
f 324 323 331
f 324 330 332
f 331 330 324
f 246 254 245
f 269 247 246
f 148 164 149
f 149 159 148
f 149 150 159
f 166 125 140
f 166 168 125
f 140 2 166
f 2 150 166
f 150 149 166
f 144 159 153
f 23 15 14
f 24 15 23
f 23 14 33
f 33 34 23
f 30 31 29
f 29 28 30
f 29 31 32
f 32 26 29
f 27 29 26
f 28 29 27
f 220 200 199
f 199 198 220
f 199 200 204
f 204 198 199
f 217 218 197
f 197 196 217
f 205 196 197
f 197 198 205
f 122 123 248
f 122 249 121
f 122 248 249
f 88 123 122
f 122 89 88
f 121 89 122
f 236 237 17
f 18 235 236
f 236 17 18
f 235 230 236
f 230 237 236
f 239 207 206
f 239 206 14
f 14 15 239
f 238 237 208
f 208 207 238
f 207 239 238
f 238 239 15
f 238 15 16
f 16 237 238
f 277 258 257
f 277 276 258
f 63 276 277
f 49 63 277
f 277 257 49
f 271 260 259
f 259 276 271
f 258 276 259
f 260 224 259
f 259 224 258
f 21 22 232
f 233 21 232
f 232 224 233
f 232 223 224
f 9 10 13
f 222 223 240
f 49 257 222
f 222 10 49
f 257 258 222
f 258 223 222
f 292 283 284
f 292 291 283
f 254 246 255
f 255 246 247
f 255 116 254
f 109 116 255
f 255 247 109
f 165 149 164
f 165 166 149
f 164 168 165
f 168 166 165
f 152 144 153
f 153 290 152
f 290 291 152
f 148 159 147
f 159 144 147
f 161 162 145
f 161 160 167
f 161 167 169
f 169 162 161
f 231 232 22
f 231 22 11
f 223 232 231
f 143 292 284
f 145 144 143
f 284 301 143
f 143 301 160
f 160 161 143
f 143 161 145
f 146 144 145
f 146 147 144
f 145 162 146
f 163 162 169
f 163 146 162
f 147 146 163
f 163 169 170
f 163 170 142
f 142 164 163
f 11 9 12
f 9 13 12
f 291 292 151
f 292 143 151
f 151 152 291
f 144 152 151
f 151 143 144
f 241 13 240
f 241 12 13
f 240 223 241
f 223 231 241
f 282 299 283
f 283 299 300
f 296 297 280
f 280 279 296
f 325 326 311
f 325 311 310
f 114 113 136
f 136 137 114
f 91 92 74
f 74 92 75
f 90 73 72
f 72 89 90
f 200 70 78
f 78 204 200
f 71 89 72
f 88 89 71
f 71 87 88
f 71 70 87
f 79 204 78
f 79 203 204
f 281 299 282
f 298 299 281
f 281 280 297
f 281 297 298
f 323 308 307
f 307 322 323
f 136 113 135
f 113 112 135
f 110 133 134
f 110 134 111
f 301 283 300
f 284 283 301
f 167 160 301
f 303 167 301
f 127 96 95
f 127 95 126
f 179 208 209
f 209 180 179
f 182 211 212
f 183 182 212
f 308 323 324
f 309 308 324
f 268 269 246
f 245 268 246
f 23 34 35
f 23 35 24
f 26 37 27
f 27 37 38
f 38 39 27
f 39 28 27
f 219 198 197
f 218 219 197
f 222 13 10
f 240 13 222
f 148 147 163
f 163 164 148
f 11 12 241
f 241 231 11

