# https://github.com/mikedh/trimesh
v 41.42803586 -5.57790244 13.17852244
v -18.46081415 -5.83634539 39.37956287
v -37.90253887 -6.08251341 19.42954038
v -42.74732348 -5.79215514 -4.44983597
v -37.76256903 -5.54843324 -21.50912357
v -25.12674313 -5.58686428 -34.12169619
v 26.27115864 -5.83538210 -34.62738713
v 16.47128031 -0.96909879 39.81341925
v -0.09959653 -3.01686125 42.36587520
v -40.12930064 -3.13523319 13.14588029
v -41.77574696 -1.95527343 -4.24959224
v -36.58413703 -2.36357651 -20.94889456
v -26.06718316 -0.97025309 -34.08049010
v -9.95176734 -0.97025309 -41.73647634
v 8.61120475 -2.35396054 -41.26673743
v 24.65050989 -2.35401163 -34.19511612
v 42.54793147 -0.97025309 -5.53436076
v -6.76348938 8.18802572 0.14847535
v -7.35697342 9.29502347 -4.28977758
v -8.44278742 8.86995048 1.78065664
v 6.60384183 -8.44619486 3.30584974
v -0.84075204 2.21837261 -6.29756046
v -0.60118745 8.22140879 -7.29521295
v 2.63019109 2.00497269 5.83881106
v 2.60641507 2.01061012 5.78603437
v 2.58353262 2.02731054 5.73524119
v 2.52799301 2.04366358 5.73263619
v 2.57989631 2.02893405 5.73263619
v 2.60544853 2.01087251 5.78502544
v 2.77345068 2.07130394 5.58516833
v 5.68197448 8.02259015 -4.01504406
v 5.64945847 2.29753837 -4.16724217
v 5.68626487 2.29681626 -4.20922276
v 5.70117477 2.20603459 -4.24307221
v 6.48329172 1.95571775 0.37775117
v -0.76277910 -1.88812690 -6.76535144
v -3.21365431 -2.07894385 5.23651813
v 7.79150945 -8.96291262 -1.74273121
v 7.20165530 -2.29933623 1.09398689
v 7.19333850 -2.29910455 1.03493225
v 7.17350653 -2.29910693 0.97868843
v 40.43488638 9.57109822 -6.21897117
v 37.57710768 9.24566197 -16.57811128
v -38.38530206 9.54126671 11.46943613
v -5.59926762 9.54653639 40.82998888
v -40.33751991 9.85107104 -4.94697582
v 32.45507200 9.92554113 24.76959414
v 18.03191749 9.79620254 35.67508438
v 10.68223801 9.93391991 38.78670753
v -15.77199391 9.69392960 36.82784217
v -34.42093225 9.41578569 -23.71083363
v 37.38397265 9.52717412 -17.35275822
v 16.80381039 9.61910394 -37.84572893
v -15.24531037 9.73320826 -37.49827884
v 39.45409947 9.63052007 8.65484477
v -30.77419404 9.83370598 26.82261612
v 37.57462763 0.95898656 1.37715079
v 17.02082618 -0.48877383 31.22090072
v 18.00892913 -0.12212548 -26.55460010
v -15.64087695 0.53044989 -31.47134597
v -13.94510257 -0.16062377 -28.94506206
v 42.46265261 -0.98709304 -3.51458943
v 40.07345669 -2.11314571 12.87029305
v 31.46807665 -3.01921742 28.24918191
v 18.41144640 -0.97025309 38.75548649
v 17.48581361 -5.36116917 38.78810009
v -16.95961067 -2.48669385 38.31440579
v -31.32407142 -3.01322982 28.29117152
v -0.39696538 -9.49904622 41.26913879
v -23.85596379 -0.97812651 -34.61863844
v -8.65268098 -4.72285050 -41.40266851
v 36.59282238 -3.02031865 -21.20059754
v 42.05125434 -5.60740437 -4.91798451
v 7.46850008 9.14245951 -4.05721443
v 6.10277129 7.18595341 -6.49034894
v 20.61889960 -9.51158419 35.68786144
v 31.52539761 -9.82467437 24.37590697
v 38.64116102 -9.57696900 13.33496630
v 39.76273707 -9.75282444 5.96707522
v -41.03710683 -9.63883706 -5.57566555
v -19.72566841 -9.56158887 -36.71028633
v -15.76768317 -0.57413711 -31.63211035
v 35.58333626 0.60580282 1.66877424
v 33.50919688 0.34550568 -12.39148570
v 30.43075424 -0.09470802 -18.75618455
v 35.70162744 -0.74605905 -6.64601325
v 32.25314095 -0.93901124 -18.13229438
v 32.20310391 -0.84753681 -18.10425076
v 32.16414258 -0.80439505 -18.08229886
v 32.11821135 -0.77441992 -18.05642912
v 32.06763664 -0.75616301 -18.02794946
v 32.01348059 -0.75007315 -17.99746004
v 33.86442472 -0.76009408 -13.68823934
v 34.27674088 -0.94007864 -13.92051993
v 34.29317300 -0.56358398 9.14830043
v 34.08038959 -0.75714397 -13.84088608
v 34.13194686 -0.77533691 -13.86182473
v 34.17924862 -0.80399116 -13.88103511
v 34.22049344 -0.84201546 -13.89778561
v 34.25411054 -0.88796168 -13.91143832
v 35.73434020 -0.88796168 -9.48309298
v -32.68649093 -6.99737116 -20.06309859
v -36.71109392 -9.72402572 -17.45192640
v 1.99982934 -7.06531829 38.32697210
v 19.43063277 -8.61419914 33.90333795
v -14.39181544 -9.70791184 37.53279764
v -38.33333801 -9.84471798 12.91082373
v 39.17292936 -9.54450367 -8.03455533
v 34.52981885 -9.66123027 -22.09275429
v -27.53981316 -9.73324574 29.32002072
v -23.21281277 -9.06132464 -31.67025505
v 5.12217748 -9.73766204 -40.13599402
v 18.95599273 -9.57488087 -36.36099664
v -4.61544087 7.96021337 5.77031636
v -5.84039684 7.96035073 4.52667598
v -0.66248575 -1.04480631 -8.70738741
v 7.20939159 -1.04480353 -4.92714414
v 7.75132995 -6.70526222 3.80032109
v -6.16933355 -6.94349951 6.16239430
v -7.47257977 -9.23134749 4.29807042
v 3.54555760 -9.42343505 8.22374196
v -4.04559999 -9.48224972 -7.85806834
v -8.54513267 -0.82982389 -2.45481085
v -7.75169709 -6.70526222 -3.80021704
v 8.79686124 6.87949581 -0.10506631
v 7.22142791 -6.83824358 -4.74715653
v 4.13504488 -8.96104177 -6.22923831
v 4.61436110 -7.96028883 -5.77085725
v 7.30440620 -7.96028930 1.11378247
v -4.58571866 -8.19695949 5.80020605
v -7.30475468 -7.96028937 -1.11380146
v -6.53902965 -8.91337018 -3.58417749
v -3.59825207 -8.92546805 -6.59000593
v -3.43161881 -9.49917854 7.50113570
v 0.32035780 -8.89874688 7.43296217
v 4.15007657 -9.71978083 -7.37561300
v 0.16269553 8.87035000 7.47145248
v 2.34099724 9.56896586 8.52535580
v -4.37010408 9.77069410 6.99270235
v -2.84930904 -8.16870807 5.13856933
v 2.83906085 -8.15797020 -5.16556946
v 5.86337844 -8.05358527 -4.00408200
v 5.61425711 -7.94938002 0.23255049
v -3.33004673 -8.24898410 3.32991518
v 1.77324116 0.68420158 -37.37166218
v -31.96220539 0.61612618 18.12756468
v -28.31851037 0.85413883 23.64154309
v 6.28575444 0.81008493 36.28318270
v 27.48818494 0.76940355 -24.51071137
v 26.29507186 9.73640568 -30.63473524
v -36.60414014 0.86889425 -7.15549012
v 21.97904624 0.97381463 30.37863441
v 16.16744477 0.08593591 31.26506544
v 1.68416499 6.66802564 38.43359601
v -1.47681424 7.13055858 38.44571913
v -1.19568147 0.82942566 37.36906187
v -19.02296136 0.75455651 31.95123618
v -19.04119344 0.63501326 29.98985157
v -32.42031446 6.59247014 20.73844250
v -34.65394059 0.83214405 -12.33913905
v -37.24106219 0.89700207 3.24468826
v 27.99387765 0.76913293 -23.82381546
v 29.64396010 1.95122725 -22.81953764
v 28.12237645 0.87145122 -23.98458916
v 28.32010897 0.90136004 -23.43400582
v 33.50310244 7.21612006 -18.75165914
v -34.54026215 1.26523766 -13.49972825
v -32.63448368 7.25435090 -20.52808212
v -31.60886359 0.81602306 -20.16259450
v 1.49846670 7.33746056 -38.50459894
v 32.58476392 6.93056181 20.38367579
v 13.64194011 7.36045094 -5.04083471
v 6.66039067 6.89686031 32.63466802
v 11.64228310 -6.72981625 23.95900736
v 1.85320087 0.65006139 35.50497395
v 1.36176296 7.38797275 14.03454766
v -31.99114389 0.79264967 -2.86637916
v -34.38923637 1.25514822 -12.29874207
v -34.42424364 1.27706717 -12.20309556
v 27.84541095 1.25514822 -23.63234426
v 27.78118617 1.27813254 -23.71109135
v 27.74815882 1.27820553 -23.77242325
v 27.72661545 1.26745184 -23.83158905
v 27.83102919 1.00511712 -24.12171260
v 28.02111350 0.84479716 -24.03326896
v 27.93482340 0.75299553 -23.75356897
v 9.84733694 6.90736162 -20.71991388
v 3.81446274 6.93356297 -21.22345195
v -25.04683889 6.89488126 5.07742412
v -33.09742691 6.92051358 -7.75964200
v -2.81566625 6.63947923 7.87483491
v -18.68122390 6.81583514 3.44334038
v 31.94742837 -0.02620822 2.36668921
v 34.60328344 1.09575103 13.38463520
v 6.07184820 -7.21439187 -6.59204976
v 34.09906647 6.84525128 17.55310552
v 25.71133680 6.65861647 -4.37563549
v 13.93055358 6.93161421 -8.92115357
v 32.65932554 6.95281495 6.19077414
v 14.16215579 6.91849446 -7.30918110
v 7.50457745 6.70520751 -4.69353174
v 7.52082023 6.96311923 -4.60975241
v 24.21304675 6.92277769 -0.94457462
v 30.22661196 6.81864575 7.44465133
v 8.24457258 6.81611921 -3.18398825
v 19.52864999 -6.73419600 -3.17086016
v 13.47495713 0.69132192 29.14882840
v 11.90311595 6.90311972 30.76256934
v 16.67907038 6.63894230 19.44049434
v 14.66421211 7.41267933 9.56268581
v 14.48275427 6.84152557 15.82059567
v 12.26222024 6.92732325 9.65979969
v 12.40925848 6.84990155 14.39732621
v 12.67188608 6.91920018 21.59141041
v -1.73223537 -6.99736426 38.52980949
v -8.90826952 0.34544807 34.67794555
v -18.10562578 0.01507016 26.48787434
v -0.47618751 -7.40391117 16.87341202
v -15.15698684 6.92342207 25.54720934
v -26.42991568 6.91121310 23.67121627
v -5.44074136 6.71650826 22.53897709
v -6.44689131 6.82680443 20.46542115
v -20.46261963 6.90076166 22.84257173
v -8.93932824 6.80098643 20.16973565
v -33.82336584 7.00086621 18.13721493
v -1.88361730 7.44442914 13.09911783
v -0.64531087 7.26466971 8.82307364
v -10.34516946 -6.91194972 20.91142485
v -33.82985032 -6.94878128 18.18470833
v -35.23229933 0.54905721 -2.31683135
v -1.45969621 7.14679329 -38.20436492
v -12.34487360 6.83314772 -13.65958125
v -11.54619996 6.75022186 -24.72759164
v 19.46668603 0.68242647 -29.87789825
v 24.73806075 -6.87440628 -24.42266995
v 25.05974943 6.93612904 -24.21756157
v -2.73868256 6.82037560 -12.62382164
v 14.01140711 6.85737388 -25.41567686
v 32.23715981 6.85043988 -20.74731584
v 1.16769313 6.94641453 -16.61535821
v 6.45762075 6.84502364 -20.44762221
v 2.46322218 7.46335706 -14.57885318
v 19.64932131 6.90032101 -22.68564438
v 0.61254282 7.26770929 -8.78191023
v -4.45505702 -6.98770349 7.50949771
v -12.94017237 7.41869246 8.06136912
v -20.94411427 6.77489342 4.78209041
v -13.66145292 6.92015913 5.92772384
v -26.01727250 6.79671765 -0.71729928
v -33.80560146 7.16633161 -17.84193054
v -8.09848829 7.03581135 3.81983257
v -8.23995685 -7.02790238 3.41707093
v -28.68379027 -6.96606016 -3.74787347
v -17.35478060 0.90123345 -32.97160546
v -6.02742925 0.93797712 -36.50260452
v -15.12115087 6.82142044 -8.59832988
v -9.52298245 6.94886810 -32.81512686
v -16.24200554 6.79374881 -21.79684938
v 34.60678903 -1.59812982 13.66118268
v 31.68904612 -7.50489264 6.08305155
v 13.82665730 -7.41420852 -8.08900949
v 25.32285925 -6.86916181 -4.50193607
v 2.03034630 -0.21924707 -8.18002694
v 18.19521895 0.60516522 -5.72098973
v 7.23416711 6.70426539 -4.74291116
v 7.32336859 6.70396532 -4.69681096
v 7.41384780 6.70429509 -4.68100902
v 31.82553765 -6.95639331 11.19925030
v 6.48593753 -0.75770969 36.15158932
v 8.96312295 -7.19996053 1.43460370
v 15.25409886 -6.86555610 9.60793008
v 16.33767538 -6.96231696 20.26059435
v 11.99970755 -6.95371603 29.83155147
v 8.45931278 6.87001674 2.23004892
v 7.31901905 7.15122961 5.12761321
v 6.65996550 -6.89153954 32.53265521
v 12.54714385 -6.92371140 13.92848518
v -28.10713336 -0.82759835 23.80839432
v 3.04413000 -7.29621471 8.34146953
v -24.16980105 -6.92822424 24.52391736
v -10.57599033 -6.97485727 24.75491798
v 2.90267603 7.24845938 8.48295692
v 0.53499667 0.78751480 9.69318027
v -29.87783123 0.09082565 19.10638186
v -20.26625315 -6.97061208 22.75037213
v -6.80342154 -6.74735244 -5.59825323
v -12.57722649 -6.87380529 -22.82145493
v -11.61964539 -7.42619541 -9.83871837
v -5.37088557 -6.94780107 -33.78636766
v 0.38977893 -0.92731762 -36.99406500
v -2.71788629 -7.15889801 -8.60333905
v 8.63996896 -6.81672479 -24.41807144
v -2.70990276 7.11913742 -8.53385183
v 34.01964293 -6.97292045 -17.95684171
v 21.77042431 -6.92706226 -22.64755717
v 9.59646166 -6.87793565 -20.60427527
v 32.24737623 -0.99176073 -18.20539450
v -25.10793590 -6.95394455 4.94334945
v -6.18259018 6.86167967 6.27757707
v -6.61199580 0.57293323 5.56035554
v -12.23114356 -7.37172095 4.93304919
v -20.72546688 -6.91069560 2.79602647
v -6.28826231 -0.85995717 -36.42107298
v -2.07009510 -6.99721887 -38.31546170
v -8.88849314 -7.29799344 -1.79761566
v -13.07595209 -6.94474614 -28.57701984
v -16.39926627 -6.92844152 -18.58341278
v -8.77215593 6.89199053 -0.05556222
v -4.50450075 -0.93771587 36.72692312
v 1.78140141 -6.97091234 -38.50892105
v 4.50413246 -0.93768367 -36.72680612
v 32.04417742 -6.77663094 -21.08705310
v 4.32776118 -3.29258030 37.50746471
v 19.50238190 -0.91672253 31.44674210
v -33.31358319 -0.92058106 17.27742214
v 35.82094138 -0.66877338 1.58685357
v 7.33214640 1.04348699 -4.82307801
v 7.38339142 1.04348394 -4.80513276
v 7.41321797 0.97685393 -4.80475482
v 7.49130787 1.04410863 -4.79810311
v 2.07822999 0.77602857 8.57038355
v -0.44720663 9.55353940 -8.55782376
v 20.91714117 6.81902341 -4.57541485
v 9.76397979 0.84798886 -5.42806382
v 7.49660488 0.94054852 -4.81428266
v 12.44988947 0.41426113 -6.40970001
v 13.49242631 -0.79228334 29.09054860
v 10.57037475 -0.75002731 35.16973412
v 17.56424323 -0.63004871 31.08089643
v 17.58259798 -0.67121054 31.11337580
v 17.28380855 -0.74046681 31.39159159
v 14.19937384 0.79031501 12.88891490
v 12.18246905 0.81745370 7.07618501
v -0.42343349 -0.88750286 36.96875859
v -0.42301304 -0.84125145 36.93203467
v -0.44609332 -0.80954076 36.89678843
v -0.38836960 -0.92138318 36.99032907
v -4.87962156 -0.75002731 36.39337050
v 0.15444972 -0.78055757 36.57295973
v -32.19924770 -6.70300691 20.92882996
v -19.33599060 -0.61491607 30.18270311
v -3.89362897 0.42640328 18.62836121
v -10.72417308 0.27760130 -6.07596818
v -8.45437259 6.88904276 -2.23928857
v -1.97100696 0.69772305 -8.55532900
v -13.37338883 6.91503296 -8.55566455
v -7.29302315 7.25802059 -4.97086286
v -11.61982319 6.91675289 -8.69537304
v 0.42306909 -0.88787567 -36.96889442
v 0.42265291 -0.84188550 -36.93254323
v -1.41642953 -0.22937084 -35.52786873
v 9.68332310 -0.89039930 -35.21041343
v 10.21431682 0.22397258 -34.12445502
v 4.87404920 -0.75540043 -36.43700520
v 28.67943925 -0.97338906 -23.62930852
v 0.02886254 -7.40634362 -16.01770950
v 19.30117161 -0.55007454 -30.27428607
v 1.13127352 0.56040077 -14.72372941
v 4.22615390 0.67274691 -18.60921851
v 32.14852155 -0.80516990 -18.14596561
v -34.22675489 -6.68169916 -17.46614057
v -33.41465367 -6.93164667 -8.88454408
v -32.15572920 -0.64281147 -2.93850436
v -18.06380897 0.53067779 5.98470652
v -25.22968740 -0.17197196 -25.34574833
v 25.00458080 -0.85942565 27.08436562
v 23.46175416 -0.85146713 28.53853005
v 22.47442780 -0.80356491 29.25351016
v 22.50150147 -0.84130068 29.28874985
v 22.52361741 -0.88691890 29.31753647
v 19.67666067 -0.84130068 31.25665853
v 19.69600021 -0.88691890 31.28737932
v 18.28265094 -0.77661332 31.98788051
v 14.79437523 -0.76161238 33.72480405
v 14.40794027 -0.80356491 33.96001281
v 15.00310640 -0.84762393 33.77290373
v 11.22197188 -0.80356491 35.14171101
v 11.23549046 -0.84130068 35.18404382
v 32.27809857 -6.88195076 21.32923206
v 34.25508343 -6.87301361 17.22419802
v 1.60751023 -0.70130444 -36.82698635
v 4.50039883 -0.88787567 -36.69636336
v 7.50453506 -6.70526483 -4.69366075
v 20.94208176 -6.79494236 -4.73081366
v 14.34977486 -6.93743624 -5.84951282
v 7.40819856 -6.70432055 -4.68154259
v 7.30987050 -6.70402208 -4.70170049
v 7.22956912 -6.70435286 -4.74621875
v 8.06680095 -7.05544122 -3.82704388
v 7.27617209 -1.04386313 -4.85792097
v 7.36474760 -1.04357133 -4.81263973
v 7.45444185 -1.04389814 -4.79715166
v 1.89728964 -6.86493203 -15.14083115
v -0.41695552 -6.70402080 -8.68147116
v -0.49567645 -6.70435170 -8.63418075
v 0.60601458 -7.01251758 -9.02326974
v -0.50654038 -6.80155210 -8.62433642
v -0.56911145 -1.04386195 -8.73039095
v -0.59366892 -0.81666635 -8.83358514
v -7.75869622 -6.70431929 -4.07499841
v -7.72692856 -6.70401959 -3.97974730
v -7.72529239 -6.70434965 -3.88791394
v -7.63230119 -7.05632383 -4.14661982
v -7.85248727 -1.04415649 -3.83061167
v -7.84330176 -1.04353742 -3.93836671
v -7.85338307 -1.04354339 -3.99171918
v -7.87938375 -0.93510345 -3.82875112
v 6.41033179 0.83135648 -6.15021444
v 7.33872828 0.82622699 -4.88157156
v 8.14259035 0.61772468 2.82793904
v -4.49824712 9.59586364 -6.87677680
v 31.57481244 0.42202266 17.73916783
v 31.82310640 -0.85314873 18.33399717
v 27.92471909 -0.84727930 23.67190220
v 21.33969804 -0.62949735 28.62720634
v 21.06572004 -0.67121054 28.86908091
v 21.04931147 -0.64202571 28.84659436
v 14.56853945 -6.76212795 15.73765257
v 7.59419385 -7.31718184 4.77585742
v -6.55975852 -0.57826778 5.61776464
v 0.34997537 -6.70431931 8.75664659
v 0.41658143 -6.70401961 8.68150929
v -0.79959543 -7.17834848 8.81576306
v 0.51060474 -1.04353742 8.76160106
v 0.46944079 -1.04354339 8.79700802
v 0.31623762 -6.53094475 8.76929166
v 2.05001671 -0.81510641 8.53377564
v 7.75832910 -6.70431930 4.07510250
v 7.72656142 -6.70401959 3.97985138
v 7.72492524 -6.70434965 3.88801800
v 7.85212015 -1.04415649 3.83071561
v 7.84293458 -1.04353742 3.93847044
v 7.85301581 -1.04354339 3.99182282
v 7.87754741 -0.91831834 3.83411221
v -34.88116208 -0.74832714 -12.48179493
v -4.49625423 -0.84115522 36.65968356
v -4.50073259 -0.88745510 36.69619880
v 1.15215759 -0.83983207 36.01519046
v 0.83228381 -0.64191900 35.70026069
v 0.83144475 -0.58760204 35.66427756
v 0.83100733 -0.54260268 35.64551915
v -2.45466120 -0.64191900 35.62551259
v -2.45218727 -0.58760204 35.58960479
v -2.45089758 -0.54260268 35.57088566
v -4.12329510 -0.64191900 35.47113676
v -4.11913931 -0.58760204 35.43538456
v -2.85392451 -0.50110604 35.54506021
v -9.69724825 -0.83921615 35.01881142
v -6.55512093 -0.58760204 35.06658001
v -6.45312101 -6.80811297 20.42250172
v -8.22325455 0.60037614 -2.71250944
v -35.84816027 -0.56441015 -1.10556058
v -14.47990097 -7.37960056 -9.32839513
v 6.42475133 -6.82129317 -20.48166709
v -13.78931215 -7.34899528 7.91490634
v -20.89651320 -6.79617422 4.66410808
v -31.50446636 -0.28543561 -17.68942572
v -12.26018055 -0.49650595 -8.26144179
v -7.83892162 -1.02728021 -3.87412143
v -7.93444854 -0.80817880 -4.01280466
v 0.44402002 -0.98920015 8.83000116
v -1.94718754 -7.32092294 13.61272370
v 7.83700994 -1.03112139 3.92490498
v 8.29357785 -0.83465466 4.31070283
v 7.93171819 -0.80874869 4.01771074
v -14.11587374 0.74662987 -12.95493325
v -14.45814417 6.79591389 -15.79033474
v 6.56620412 -0.60673633 -6.55863040
v 18.24371144 -0.76720038 -5.66915862
v 7.34802568 -0.82112144 -4.88102596
v 7.45471722 -0.95558507 -4.80339680
v 9.75991899 -0.80975965 -5.48640267
v 4.23737336 -0.77390194 -18.63857473
v -2.44611673 -0.63012933 -8.98753804
v -14.02973554 -0.69023654 -12.97404858
v -14.46872185 -6.83861976 -15.79730019
v 14.09412063 -0.65756628 12.90115837
v 8.67180855 -0.77707320 2.42496238
v -18.25515640 -0.71397819 5.59968579
v -12.12035504 -0.83732056 7.05022844
v -4.23858776 -0.78426747 18.65605379
v 0.84855959 -0.12424004 11.02537337
v 3.32854609 8.24941278 3.33283095
v 3.17481643 -7.95502731 -2.87494798
v 3.17481643 -7.95502731 2.87505202
v 3.17481643 7.95497269 -2.87494798
v 3.17481643 7.95497269 2.87505202
v 0.33659502 -7.96003478 -3.51589248
v -3.17518357 -7.95502731 2.87505202
v -3.17518357 -7.95502731 -2.87494798
v -3.17518357 7.95497269 2.87505202
v -3.17518357 7.95497269 -2.87494798
v 2.87481643 -7.95502731 3.17505202
v -2.87518357 -7.95502731 3.17505202
v 2.87481643 7.95497269 3.17505202
v -2.87518357 7.95497269 3.17505202
v -2.93371067 -7.95502731 3.16928761
v -2.98998860 -7.95502731 3.15221588
v -3.04185464 -7.95502731 3.12449291
v -3.08731561 -7.95502731 3.08718406
v -3.12462446 -7.95502731 3.04172309
v -3.15234743 -7.95502731 2.98985705
v -3.16941916 -7.95502731 2.93357912
v -3.16941916 7.95497269 2.93357912
v -3.15234743 7.95497269 2.98985705
v -3.12462446 7.95497269 3.04172309
v -3.08731561 7.95497269 3.08718406
v -3.04185464 7.95497269 3.12449291
v -2.98998860 7.95497269 3.15221588
v -2.93371067 7.95497269 3.16928761
v 3.16905201 -7.95502731 2.93357912
v 3.15198029 -7.95502731 2.98985705
v 3.12425731 -7.95502731 3.04172309
v 3.08694846 -7.95502731 3.08718406
v 3.04148750 -7.95502731 3.12449291
v 2.98962146 -7.95502731 3.15221588
v 2.93334352 -7.95502731 3.16928761
v 2.93334352 7.95497269 3.16928761
v 2.98962146 7.95497269 3.15221588
v 3.04148750 7.95497269 3.12449291
v 3.08694846 7.95497269 3.08718406
v 3.12425731 7.95497269 3.04172309
v 3.15198029 7.95497269 2.98985705
v 3.16905201 7.95497269 2.93357912
v 2.98962146 -7.95502731 -3.15211184
v 3.04148750 -7.95502731 -3.12438886
v 3.08694846 -7.95502731 -3.08708001
v 3.12425731 -7.95502731 -3.04161905
v 3.15198029 -7.95502731 -2.98975301
v 3.16905201 -7.95502731 -2.93347507
v 3.16905201 7.95497269 -2.93347507
v 3.15198029 7.95497269 -2.98975301
v 3.12425731 7.95497269 -3.04161905
v 3.08694846 7.95497269 -3.08708001
v 3.04148750 7.95497269 -3.12438886
v -3.16941916 -7.95502731 -2.93347507
v -3.15234743 -7.95502731 -2.98975301
v -3.12462446 -7.95502731 -3.04161905
v -3.08731561 -7.95502731 -3.08708001
v -3.04185464 -7.95502731 -3.12438886
v -2.98998860 -7.95502731 -3.15211184
v -2.98998860 7.95497269 -3.15211184
v -3.04185464 7.95497269 -3.12438886
v -3.08731561 7.95497269 -3.08708001
v -3.12462446 7.95497269 -3.04161905
v -3.15234743 7.95497269 -2.98975301
v -3.16941916 7.95497269 -2.93347507
v -3.32544477 -8.24987299 -3.33404959
v 3.33116936 -8.24955382 -3.32688998
v 3.33224790 -8.24986780 3.32810756
v -3.33021007 8.24992102 -3.32997445
v -3.33645925 8.24941571 3.32349903
v 1.09660002 7.95672152 -3.60114214
v -7.30369065 -8.23851832 -0.77539132
v -4.33691979 -7.96026292 5.82163094
v -4.38376065 -7.96026491 3.72932044
v -4.60445673 -2.05663961 3.81661955
v 1.03766908 -7.96026491 5.66097534
v 1.20353558 -2.14875981 5.77207385
v -1.03803623 -7.96026491 -5.66087129
v -1.09277953 -2.22822728 -5.76134759
v -0.76612551 7.96021019 -6.18090438
v -4.97007787 7.96021019 3.75385541
v -5.71432263 7.96020867 4.06425607
v -3.16277209 8.14124796 5.28621523
v 0.76575836 7.96021019 6.18100843
v 0.66245084 7.96020867 6.98074363
v 0.86477875 2.23954008 6.24638054
v 5.73565266 7.96021019 2.42720504
v 6.37658991 7.96020867 2.91653958
v 3.16504611 8.14614200 -5.28621728
v 6.09104628 -1.90653007 2.68138756
v 6.04870675 -2.08373333 0.15239703
v 7.17354617 -2.07892608 1.12283856
v 7.29602231 -8.24176277 0.78419067
v 7.28973664 -7.95956881 0.96831650
v 7.30618587 -7.95974423 1.04096316
v 3.53818530 -8.03889687 5.53939851
v 2.97365623 -1.79018508 5.54660192
v 1.02386795 -2.29874306 5.78462218
v 1.07247994 -2.29916378 5.76017269
v 0.76112678 -2.01048028 6.99026613
v 0.74402726 -8.20780131 5.69555785
v 0.95101971 -7.96118734 5.69227816
v 5.20412855 -1.93231628 -3.86986574
v 3.14529598 -2.06912722 -5.18172234
v 4.54588380 -2.29933977 -5.69178725
v 4.49079229 -2.29910988 -5.71406809
v 4.43238974 -2.29911218 -5.72505469
v 4.37296783 -2.29934660 -5.72431592
v 4.52983399 -2.07643176 -5.64858599
v -4.40849724 -7.95975015 5.83473847
v -4.48263981 -7.95957206 5.83016817
v -4.55361213 -7.95974665 5.80809628
v 4.40747595 -7.95975156 -5.83536248
v 4.48152091 -7.95957398 -5.83075288
v 4.55239577 -7.95974808 -5.80868627
v -4.54716040 -2.29933847 5.69114580
v -4.49199176 -2.29910791 5.71344373
v -4.43350737 -2.29911024 5.72441663
v -4.37400813 -2.29934537 5.72363277
v -4.35945103 -2.16200501 3.95779600
v -3.13482075 -2.27210118 5.03489897
v -4.24457635 -8.24622828 5.96622925
v -4.36698886 -2.13714595 5.68263537
v -4.49774252 -2.29874306 3.77919173
v -4.45226265 -2.29916378 3.80906620
v -5.68730797 -2.09970749 4.15707572
v -0.59260877 -8.18960700 -7.33975064
v -4.54954231 -2.08055413 5.64242494
v -4.55657043 -8.21411535 3.47467097
v -4.53940211 -7.96152862 3.63443370
v -4.45424329 -7.96119112 3.66974224
v -1.02423509 -2.29874306 -5.78451813
v -1.07284708 -2.29916378 -5.76006864
v -0.74872504 -8.20477664 -5.69777417
v -0.95138685 -7.96118734 -5.69217411
v -7.25679067 -7.95974739 -0.90167124
v -7.29007045 -7.95956831 -0.96829017
v -7.30653299 -7.95974385 -1.04095895
v -7.20199983 -2.29933588 -1.09400512
v -7.19367507 -2.29910403 -1.03493047
v -7.17382740 -2.29910642 -0.97867001
v -7.14324171 -2.29934296 -0.92744863
v -3.07543045 -8.17088912 -5.03622194
v -2.99131315 -1.78390373 -5.69616400
v -7.16982048 -2.07431963 -1.11755543
v -6.45038421 -1.97814694 -2.76005699
v -5.92181312 -2.00359349 -0.22241217
v -5.52301645 -7.92682012 -0.42407863
v 6.19367950 8.13656721 0.08183848
v 6.72717198 2.06053795 2.72755310
v 5.73811005 2.29846550 2.21117911
v 5.75393968 2.29847447 2.26335027
v 5.85633033 2.05141589 2.28138382
v 5.81230801 2.29912888 2.35491537
v 5.74690554 2.17261443 2.14187122
v 5.61471596 7.96117481 2.17853536
v 5.63021856 7.96148095 2.27827285
v 5.67139811 7.96114245 2.36081802
v 5.03621152 2.04780747 -3.93206204
v 3.43887405 1.98802645 -5.12069262
v 6.38182907 2.29851800 2.78829778
v 6.43362008 2.29753837 2.80913846
v 6.48837954 2.29681626 2.82002345
v 6.29182456 2.23373738 2.73498679
v 5.82517130 7.95773217 -4.14871041
v 5.86103052 7.95716054 -4.20582794
v 5.50485828 8.21091913 2.35339746
v 6.43633398 7.95878022 2.95157637
v 6.50542752 7.95773217 2.97057612
v 4.03042475 8.40538880 -3.41928822
v 7.62226548 8.45747216 1.55288451
v 5.24543687 1.97085814 -5.20009296
v 4.49068091 2.29905925 -5.71416537
v 4.43228904 2.29905356 -5.72515356
v 4.37287724 2.29928006 -5.72442049
v 3.31387774 8.02501345 5.97044855
v 1.87915398 2.01376555 6.02835015
v 4.48133113 7.95951942 -5.83086847
v 4.40726503 7.95969360 -5.83564623
v 0.95407100 2.29846550 6.07512362
v 0.91680427 2.29847447 6.11491806
v 0.86669073 2.29912888 6.21124907
v 1.01307777 2.08429633 6.10994332
v 0.92112282 7.96116754 5.95191641
v 0.84242372 7.96147335 6.01531298
v 0.79125966 7.96113826 6.09230508
v 0.90194608 2.14592556 6.19665172
v 3.87699271 8.36338722 -6.23866145
v 0.70390207 8.21419795 5.94829887
v -0.95443815 2.29846550 -6.07501957
v -0.91717142 2.29847447 -6.11481401
v -0.86705787 2.29912888 -6.21114503
v -0.97069440 2.05862759 -6.17659268
v -1.03536269 2.15702641 -6.06410403
v 0.77613108 2.29851800 6.92115998
v 0.78397803 2.29753837 6.97643265
v 0.80193109 2.29681626 7.02929823
v 2.17056258 1.99615590 7.20101167
v 0.77456075 2.29530138 6.89968833
v 0.88317510 2.05576877 7.04900650
v -1.33537677 1.84400449 -7.21790777
v 0.66198013 7.95878022 7.05000191
v 0.68007264 7.95773217 7.11933855
v 0.71160826 7.95716054 7.17895230
v -0.92148996 7.96116754 -5.95181237
v -0.84279086 7.96147335 -6.01520894
v -0.79162681 7.96113826 -6.09220103
v -0.71873329 8.21652790 -5.93350356
v -4.11030959 8.31586626 6.03935861
v -4.55327506 7.95969553 5.80810961
v -4.48240922 7.95951765 5.83032293
v -4.40825297 7.95969228 5.83506512
v -2.87248236 2.03180084 -5.66452900
v -3.28151291 8.04453842 -5.96797248
v -4.54698674 2.29929574 5.69128865
v -4.49183387 2.29905744 5.71358305
v -4.43336618 2.29905175 5.72455869
v -4.37388270 2.29927887 5.72378401
v -4.78422261 2.29846550 3.86399653
v -4.83731897 2.29847447 3.85161982
v -4.94580085 2.29912888 3.85638572
v -4.92286860 2.22793610 3.85891104
v -4.97477143 2.18042195 3.88633970
v -4.77165075 2.20859564 3.87387174
v -3.43480389 2.09296038 5.25360510
v -4.69399613 7.96116754 3.77385896
v -4.78824872 7.96147335 3.73740183
v -4.88050786 7.96113826 3.73158850
v -4.84872833 1.68406594 5.17419328
v -5.45476644 8.23644171 -2.40748590
v -7.39512585 8.37719421 -0.95276577
v -6.26405684 1.57732442 -2.41097463
v -5.60588155 2.29851800 4.13291422
v -5.64982562 2.29753837 4.16734622
v -5.68663202 2.29681626 4.20932681
v -5.73402336 2.29623490 4.30990583
v -5.74154588 2.29685376 4.42083575
v -5.72916046 2.21804242 4.44771722
v -5.70816628 2.29858783 4.52687920
v -5.58993134 2.21609955 4.13513494
v -5.73062388 2.20513081 4.34824809
v -5.66054470 2.05641085 4.29277360
v -6.47312484 9.05272742 -3.70572127
v -4.79432825 8.21421823 3.58583142
v -5.77453741 7.95878022 4.09847756
v -5.82553845 7.95773217 4.14881445
v -5.86139766 7.95716054 4.20593198
v -5.89359976 7.95708140 4.31413190
v -5.88789072 7.95809654 4.42589840
v -6.63005111 1.98659507 -0.44133813
v -6.53607853 9.04202714 3.66016898
v -6.59276310 -8.86728695 3.62851910
v -7.40561310 -9.22934368 -4.27012542
v 6.97839593 -9.49306457 -3.91075481
v 7.09378711 -9.50419150 3.93882317
v -7.30606209 9.37219413 4.34638486
v 6.50674073 8.64655349 3.54036816
v 7.12853292 9.55566574 4.18467974
v 6.47244233 8.66054350 -3.62633294
v 5.11221488 9.92666862 -6.45041770
v 42.88352468 -9.69687433 4.95895112
v 23.83108030 -9.87176664 35.64711666
v 4.44457099 -7.15352034 42.41637513
v -31.59419124 -9.43418297 29.35713494
v 51.03208357 2.41651174 0.88368550
v -8.41247837 -4.48467543 50.65111118
v 25.43079296 0.10409738 45.36076706
v -47.69770035 -7.47872488 -8.66362571
v 2.84964514 -8.47612879 47.22316124
v -42.89350160 -7.70372688 23.80121124
v 49.42763047 -5.87489786 -8.79644975
v 43.28830835 -6.73396880 23.30666245
v -41.65687050 -9.56918913 -3.95129283
v -48.29412606 7.80773758 -0.10593461
v 40.90719047 9.57964714 1.97955896
v 16.98121149 8.91289414 43.32470213
v -9.15353572 4.18493400 50.41355125
v 42.71951686 5.64122699 27.76525968
v -35.93387433 0.14956210 37.39369129
v -22.39971310 8.78156431 40.91855654
v -42.76665494 5.78794562 26.37590642
v -51.51385855 -0.12280342 2.53025956
v 40.55261972 9.64527949 -6.57307485
v -1.36342161 9.88619876 -39.95173687
v 35.05863107 -6.07957231 24.54780082
v 8.46476056 -5.76659273 -42.02533152
v -24.59482240 -9.51667601 -35.27061411
v 14.18666162 -9.45164615 -39.86907433
v 35.27711647 -9.40036356 -21.96325164
v 22.83540849 0.98271466 -46.50710199
v -25.17468802 2.68955201 -44.82505136
v -7.75866164 8.03536063 -47.54942935
v -45.57524345 4.20188817 -23.07706216
v -34.24553661 8.56122037 -32.19112706
v 16.79702224 7.68651653 -45.55575347
v 42.44273860 6.34430156 -27.27215593
v 46.77882602 8.58324336 0.08013128
v -1.74454573 -6.59175008 -50.08313764
v -32.84889464 -7.33506816 -36.32104050
v 33.48539619 -7.15556233 -35.57416386
v 45.99679594 6.24155832 -1.95077138
v 38.64477782 5.70552228 25.77748523
v 37.94010118 5.73021097 26.79813577
v 37.21043562 5.73021097 27.80243177
v 38.64974846 5.73021097 25.78313713
v 37.94795378 5.73021097 26.80500860
v 37.21913986 5.73021097 27.80778842
v 36.46382581 5.73021097 28.79076235
v 24.79213099 5.95378664 39.17441509
v 23.76020833 5.73021097 39.91303583
v 22.68513718 5.73021097 40.53372596
v 24.82116654 5.73021097 39.27380395
v 21.60106960 5.73021097 41.13292778
v 22.69084620 5.73021097 40.54193867
v 23.76446666 5.73021097 39.92208362
v 15.72142463 6.25015262 43.08568485
v 16.10441819 5.94856834 -43.49275813
v 12.59659599 5.98914793 -44.69033807
v 20.98276653 6.37885561 -40.63917613
v 32.30022558 6.07907108 -33.06353034
v 37.21043562 5.73021097 -27.80232772
v 36.46385014 5.73021097 -28.79066813
v 37.21916096 5.73021097 -27.80769677
v 37.94797179 5.73021097 -26.80491968
v 44.51872271 6.17971786 -11.46401015
v 38.64598475 5.54180710 -25.77854767
v 36.45717038 5.71632572 -28.78744178
v 29.63147857 5.90762583 -35.70895811
v 3.03781408 5.96175552 -46.32588465
v -6.67218770 6.09523118 -45.76891586
v -24.76851756 5.95872364 -39.26062589
v -32.39598881 5.94357785 -33.26494648
v -38.59329619 5.97732991 -25.78884104
v -42.79768889 6.18435524 -17.18178016
v -45.75903874 5.95273459 -7.86876375
v -46.38288414 5.97339835 1.82031208
v -44.97693627 5.98397238 11.42716532
v -41.63253866 5.97341435 20.52843844
v -29.68216610 5.97697695 35.68604635
v -2.96094539 6.16947587 46.02531257
v 24.81973418 5.54180710 39.26880873
v 21.58643134 5.70368029 41.11539971
v 32.41757072 5.90513765 33.21582283
v 36.45898893 5.54180710 28.78880666
v 42.74021772 6.23947554 17.12943947
v -43.26802873 6.23103866 -4.53084848
v -24.99649606 6.20527515 -35.32556244
v 41.80891158 5.98675151 -4.33186618
v -40.06888643 5.75869747 13.06436198
v 17.13721942 5.39403310 38.56694933
v 41.31252862 0.99511191 -3.32482866
v 42.99312674 0.98574115 -5.70927808
v 36.88665786 0.99557903 -19.92883101
v 36.53259504 5.61050300 -20.95611676
v 36.95396601 0.98574114 -22.70263527
v 25.67770407 6.19417712 -35.11758650
v 24.37836975 3.39436851 -33.61637003
v 10.19970894 0.96990156 -41.37813734
v 8.79549808 5.61878624 -40.84898872
v 7.85558435 0.98574114 -42.65329594
v -8.83350304 3.09702409 -41.61464669
v -8.54172931 5.61843565 -40.20726114
v -24.24761438 3.90365448 -33.98808522
v -26.44126365 0.98574114 -34.37858185
v -37.19132891 6.07043658 -22.34955409
v -35.74510143 4.37578184 -20.88292147
v -38.13836230 0.98574114 -20.65183665
v -41.45656276 3.22376617 -4.38576717
v -40.75281251 0.98677215 11.98306579
v -40.86695044 0.98574114 14.52343141
v -31.39733622 4.67190549 28.09750819
v -30.81420002 0.98194911 29.13730461
v -17.45448545 3.18965153 39.21189704
v -16.72061439 5.79257523 37.60711242
v -1.12640549 0.98767715 42.25660983
v 0.12383740 3.84911890 42.00976960
v 18.29336329 0.98902226 38.63562431
v 30.64896914 0.98767715 29.11215416
v 33.01081535 0.98574114 28.13002060
v 39.49197731 0.99557903 14.07729177
v 40.07978117 5.79441010 13.04939598
v 41.10485152 0.96663705 11.64942855
v -42.57777551 6.48679150 16.10198354
v -32.26603034 6.19317474 32.92592573
v -15.78161239 6.22157780 43.25942698
v -6.90278070 6.51044784 44.94019914
v 3.14948614 6.13992406 45.96464742
v 21.36104277 6.18159643 40.83644590
v 28.99701693 6.26933315 35.55285495
v 36.13937039 6.12768188 28.66601810
v 7.29256076 6.37502516 -45.01431376
v -21.39230792 6.15067025 -40.90740076
v -29.19002028 6.28471820 -35.42130962
v -44.42982618 6.27176771 -11.50146015
v 38.34834183 6.23858677 25.51597639
v 31.38491817 6.11205864 28.54209062
v -45.21006050 6.34512554 7.27082738
v 36.38788734 6.06928101 -28.69809593
v 42.75934463 6.16616465 -17.16984492
v 45.71802733 5.96834825 -7.84203581
v 38.14018031 6.26910884 -25.40439814
v 24.79761851 5.93858113 -39.20447841
v -35.52836531 6.41038571 -28.69416572
v -12.61953816 6.24189490 -44.20130859
v -2.10316361 6.47139006 -45.24068061
v -24.53259997 6.32596199 38.69433505
v 44.63076305 6.20248220 11.30429645
v -46.30439924 6.03128219 -1.87330852
v -38.22029873 6.34523033 25.16455754
f 1 63 62
f 767 63 1
f 767 64 63
f 66 64 767
f 66 65 64
f 745 8 66
f 745 9 8
f 2 9 745
f 2 67 9
f 2 68 67
f 3 68 2
f 3 10 68
f 4 11 10
f 4 10 3
f 5 11 4
f 5 12 11
f 6 13 12
f 6 12 5
f 71 14 70
f 71 70 6
f 768 15 71
f 7 15 768
f 7 16 15
f 7 72 16
f 73 72 7
f 73 17 72
f 1 62 73
f 27 30 26
f 28 27 26
f 28 26 25
f 28 30 27
f 29 25 24
f 29 28 25
f 29 30 28
f 30 29 24
f 34 654 641
f 34 32 33
f 641 31 32
f 641 32 34
f 629 628 630
f 736 38 142
f 574 573 41
f 574 41 40
f 574 40 39
f 52 42 43
f 155 45 49
f 54 51 168
f 52 150 166
f 757 42 55
f 155 50 45
f 168 51 46
f 170 53 766
f 170 150 53
f 42 166 55
f 57 84 83
f 57 83 194
f 10 11 80
f 10 80 107
f 68 10 107
f 67 68 110
f 67 110 106
f 9 67 69
f 9 69 76
f 66 9 76
f 8 9 66
f 64 65 66
f 64 66 76
f 64 76 77
f 63 64 77
f 63 77 78
f 79 63 78
f 73 79 108
f 73 63 79
f 62 63 73
f 72 17 73
f 72 73 108
f 72 108 109
f 16 72 109
f 16 109 113
f 15 16 113
f 15 113 112
f 71 15 112
f 71 112 81
f 70 14 71
f 70 71 81
f 6 70 81
f 12 6 81
f 12 13 6
f 12 103 80
f 11 12 80
f 244 322 742
f 75 742 74
f 274 125 74
f 274 74 653
f 275 653 740
f 275 274 653
f 275 740 138
f 227 282 138
f 227 138 139
f 299 191 139
f 251 299 139
f 251 139 738
f 251 738 20
f 344 308 20
f 344 20 19
f 347 344 19
f 347 19 411
f 293 347 411
f 293 411 322
f 244 293 322
f 244 742 75
f 74 125 205
f 282 275 138
f 139 191 227
f 20 308 251
f 106 69 67
f 110 68 107
f 81 103 12
f 357 59 234
f 85 93 86
f 86 84 85
f 316 84 86
f 83 84 316
f 96 92 91
f 96 93 92
f 97 91 90
f 97 93 96
f 97 96 91
f 98 90 89
f 98 97 90
f 98 93 97
f 99 89 88
f 99 93 98
f 99 98 89
f 100 88 87
f 100 87 94
f 100 93 99
f 100 99 88
f 101 94 108
f 101 100 94
f 101 86 93
f 101 108 86
f 101 93 100
f 77 79 78
f 111 102 103
f 111 103 81
f 103 107 80
f 312 112 113
f 109 312 113
f 109 108 312
f 691 114 115
f 691 115 733
f 139 691 733
f 137 691 139
f 740 658 137
f 739 658 740
f 322 670 742
f 411 23 670
f 411 670 322
f 696 23 411
f 725 696 411
f 711 115 114
f 119 252 120
f 119 120 134
f 245 119 134
f 423 245 134
f 423 134 121
f 279 423 121
f 419 121 737
f 270 419 737
f 270 118 419
f 270 737 38
f 389 38 736
f 389 736 136
f 195 389 136
f 195 126 389
f 396 136 122
f 291 396 122
f 291 397 396
f 286 122 735
f 403 286 735
f 305 403 735
f 305 124 403
f 305 735 120
f 123 124 305
f 407 124 123
f 252 305 120
f 245 423 191
f 279 121 419
f 279 419 282
f 478 118 270
f 434 118 478
f 125 270 38
f 125 38 389
f 468 117 126
f 468 126 195
f 136 263 195
f 474 116 397
f 474 397 291
f 293 291 122
f 136 127 609
f 142 128 127
f 736 142 127
f 21 129 575
f 21 575 38
f 737 578 21
f 135 578 737
f 135 582 579
f 135 579 578
f 134 130 604
f 734 130 134
f 132 131 554
f 136 609 133
f 142 591 128
f 142 585 591
f 574 21 572
f 574 129 21
f 610 130 734
f 610 734 608
f 627 132 628
f 627 131 132
f 626 609 36
f 609 626 133
f 133 132 122
f 132 735 122
f 136 133 122
f 736 127 136
f 134 120 734
f 121 134 135
f 121 135 737
f 138 740 137
f 139 733 738
f 138 137 139
f 625 132 133
f 548 132 625
f 548 630 132
f 616 548 625
f 630 734 554
f 141 616 609
f 127 141 609
f 611 734 630
f 549 616 141
f 549 548 616
f 144 630 548
f 144 611 630
f 140 611 144
f 142 549 141
f 134 604 140
f 143 549 142
f 143 142 38
f 583 140 144
f 583 134 140
f 550 583 144
f 550 549 143
f 135 134 583
f 578 583 550
f 575 143 38
f 21 550 143
f 21 578 550
f 42 52 166
f 166 150 239
f 171 55 196
f 155 49 154
f 225 44 159
f 168 46 250
f 766 231 170
f 150 170 145
f 150 145 353
f 234 150 353
f 150 234 149
f 149 163 150
f 239 150 163
f 84 166 85
f 57 55 166
f 57 166 84
f 194 196 55
f 194 55 57
f 171 47 55
f 152 48 47
f 152 47 171
f 152 171 412
f 152 148 48
f 148 154 49
f 148 49 48
f 156 50 155
f 157 50 156
f 56 50 157
f 56 147 159
f 56 157 147
f 159 44 56
f 146 44 225
f 161 44 146
f 161 46 44
f 151 46 161
f 167 250 46
f 167 46 151
f 167 151 160
f 169 54 168
f 254 54 169
f 766 255 231
f 766 54 254
f 255 766 254
f 148 152 153
f 147 157 158
f 177 160 151
f 162 163 149
f 165 163 164
f 194 83 193
f 263 75 198
f 199 193 197
f 194 193 199
f 194 199 196
f 200 198 75
f 205 172 202
f 323 198 200
f 197 198 323
f 203 323 172
f 203 197 323
f 199 197 203
f 204 199 203
f 171 199 204
f 196 199 171
f 412 171 204
f 206 204 203
f 206 203 172
f 172 205 206
f 153 207 148
f 207 327 209
f 207 209 208
f 208 148 207
f 148 208 154
f 125 274 210
f 213 212 275
f 211 212 213
f 214 211 213
f 209 211 214
f 209 210 211
f 208 209 214
f 154 173 155
f 208 214 173
f 208 173 154
f 175 156 155
f 175 155 173
f 173 174 175
f 174 173 214
f 213 174 214
f 158 217 147
f 217 221 219
f 147 219 220
f 147 217 219
f 147 220 159
f 223 225 159
f 219 223 220
f 219 224 223
f 221 224 219
f 221 222 224
f 221 176 222
f 284 146 225
f 223 284 225
f 226 227 191
f 230 177 151
f 161 230 151
f 179 178 179
f 179 178 178
f 351 170 231
f 351 145 170
f 231 233 351
f 347 286 232
f 149 234 59
f 181 180 181
f 181 180 180
f 182 181 182
f 182 181 181
f 184 164 163
f 184 185 164
f 185 185 164
f 185 165 164
f 162 165 184
f 165 185 184
f 182 182 183
f 186 183 182
f 186 182 183
f 186 184 163
f 186 163 162
f 186 162 184
f 188 292 237
f 238 292 188
f 59 238 236
f 236 149 59
f 165 236 163
f 165 149 236
f 163 236 239
f 241 188 240
f 240 188 237
f 187 241 242
f 293 240 237
f 187 188 241
f 187 238 188
f 243 238 187
f 243 236 238
f 166 236 243
f 239 236 166
f 166 243 85
f 187 296 243
f 187 242 296
f 244 263 242
f 177 363 189
f 177 189 190
f 190 167 177
f 190 250 167
f 249 250 190
f 189 249 190
f 247 249 189
f 192 249 247
f 248 192 247
f 251 192 248
f 246 247 189
f 191 299 246
f 457 169 168
f 457 168 250
f 250 249 457
f 252 192 251
f 255 254 60
f 61 255 60
f 61 258 257
f 257 255 61
f 255 257 231
f 261 195 263
f 261 263 198
f 261 198 197
f 262 261 197
f 193 262 197
f 193 260 262
f 95 260 193
f 380 260 95
f 380 95 259
f 263 244 75
f 205 202 74
f 413 268 379
f 412 268 413
f 268 412 204
f 204 260 268
f 260 204 206
f 205 389 206
f 153 152 412
f 270 125 210
f 271 270 210
f 271 210 209
f 209 272 271
f 327 273 272
f 327 272 209
f 104 273 327
f 327 269 313
f 327 313 104
f 438 276 215
f 175 276 438
f 276 175 174
f 213 277 174
f 275 277 213
f 275 419 277
f 216 156 175
f 216 157 156
f 216 158 157
f 279 282 176
f 176 218 279
f 218 176 221
f 221 281 218
f 281 221 217
f 217 280 281
f 280 217 278
f 280 278 340
f 220 223 159
f 224 222 226
f 284 229 315
f 223 285 229
f 223 229 284
f 223 228 285
f 224 228 223
f 226 462 228
f 226 228 224
f 226 423 462
f 191 423 226
f 230 161 146
f 167 160 177
f 286 347 293
f 351 289 310
f 289 351 233
f 287 289 233
f 232 287 233
f 288 287 232
f 288 232 286
f 353 145 351
f 353 357 234
f 149 165 162
f 291 293 237
f 237 356 291
f 356 237 292
f 59 292 238
f 59 235 292
f 59 355 235
f 85 294 297
f 85 295 294
f 243 295 85
f 296 295 243
f 242 396 296
f 263 396 242
f 246 245 191
f 455 245 246
f 455 246 189
f 189 298 455
f 298 189 363
f 363 362 298
f 435 362 363
f 435 361 362
f 252 251 308
f 457 253 102
f 253 457 249
f 253 249 192
f 192 302 253
f 301 192 252
f 301 302 192
f 365 169 457
f 365 60 254
f 254 169 365
f 305 308 256
f 453 305 256
f 453 256 258
f 307 453 258
f 258 306 307
f 61 306 258
f 304 306 61
f 61 303 304
f 83 316 193
f 264 323 200
f 200 326 264
f 200 75 408
f 200 408 326
f 265 75 74
f 202 201 267
f 202 266 265
f 202 267 266
f 202 265 74
f 324 325 201
f 324 202 172
f 324 201 202
f 326 324 172
f 264 172 323
f 264 326 172
f 389 205 125
f 210 332 211
f 333 332 210
f 210 274 410
f 210 410 333
f 211 332 212
f 332 275 212
f 332 410 275
f 419 275 282
f 215 337 438
f 158 341 217
f 282 321 176
f 176 342 222
f 176 321 342
f 227 226 282
f 342 226 222
f 342 283 226
f 230 363 177
f 230 452 363
f 233 231 257
f 233 257 258
f 232 233 258
f 467 232 258
f 256 467 258
f 346 467 256
f 348 232 467
f 347 232 348
f 344 346 256
f 308 344 256
f 286 293 122
f 310 290 351
f 235 355 312
f 293 345 240
f 358 359 240
f 240 345 358
f 244 242 293
f 241 359 242
f 242 359 358
f 360 92 85
f 85 297 360
f 396 263 136
f 364 247 246
f 364 299 300
f 299 364 246
f 251 248 300
f 251 300 299
f 247 364 248
f 364 300 248
f 60 82 61
f 308 305 252
f 93 85 92
f 316 95 193
f 380 259 79
f 379 380 79
f 77 379 79
f 309 337 215
f 106 215 104
f 107 340 110
f 107 229 340
f 102 361 103
f 311 290 310
f 112 310 304
f 94 87 297
f 108 294 312
f 79 259 95
f 379 105 414
f 379 77 105
f 313 105 104
f 215 448 309
f 106 341 448
f 106 448 215
f 110 341 106
f 110 278 341
f 110 340 278
f 315 229 107
f 107 452 315
f 435 452 107
f 435 107 103
f 435 103 361
f 457 102 111
f 111 82 365
f 111 365 457
f 303 82 111
f 304 303 111
f 310 352 311
f 112 357 352
f 112 352 310
f 357 112 312
f 355 357 312
f 294 94 297
f 108 94 294
f 108 316 86
f 316 79 95
f 316 108 79
f 206 389 385
f 262 384 261
f 206 385 384
f 262 206 384
f 260 206 262
f 380 268 260
f 379 268 380
f 75 409 408
f 265 317 409
f 265 409 75
f 266 318 317
f 266 317 265
f 267 319 318
f 267 320 319
f 267 318 266
f 201 325 320
f 201 320 267
f 275 410 274
f 282 283 321
f 226 283 282
f 325 324 409
f 327 207 153
f 328 269 327
f 374 328 327
f 374 327 153
f 331 374 153
f 373 374 331
f 418 277 419
f 418 270 271
f 272 418 271
f 272 277 418
f 272 174 277
f 104 215 276
f 273 174 272
f 273 276 174
f 273 104 276
f 58 330 331
f 58 329 330
f 153 58 331
f 337 334 335
f 337 336 339
f 337 335 336
f 337 339 438
f 447 216 175
f 341 278 217
f 339 338 448
f 280 340 229
f 280 229 285
f 281 285 228
f 281 280 285
f 450 228 462
f 281 228 450
f 281 450 218
f 343 451 344
f 347 343 344
f 293 358 345
f 242 358 293
f 290 349 350
f 290 381 351
f 290 350 381
f 353 351 352
f 353 352 357
f 289 306 304
f 287 306 289
f 310 289 304
f 287 307 306
f 476 307 287
f 453 307 476
f 288 476 287
f 403 288 286
f 352 351 354
f 59 357 355
f 454 356 292
f 296 393 454
f 396 393 296
f 296 454 292
f 295 296 292
f 295 292 235
f 294 295 235
f 294 235 312
f 241 240 359
f 91 360 90
f 92 360 91
f 360 87 88
f 360 297 87
f 360 88 89
f 360 89 90
f 363 452 435
f 362 361 102
f 253 362 102
f 298 362 253
f 302 298 253
f 456 298 302
f 301 456 302
f 455 298 456
f 245 455 119
f 61 82 303
f 304 111 81
f 304 81 112
f 104 69 106
f 76 69 104
f 105 76 104
f 76 105 77
f 414 413 379
f 269 328 313
f 366 414 105
f 367 366 105
f 368 366 367
f 369 368 367
f 370 105 314
f 370 367 105
f 370 369 367
f 373 366 368
f 371 373 368
f 371 368 369
f 372 369 370
f 372 371 369
f 372 370 314
f 314 373 371
f 314 371 372
f 376 374 373
f 105 376 373
f 105 373 314
f 376 105 313
f 376 375 374
f 377 328 374
f 377 374 375
f 378 375 376
f 378 377 375
f 378 328 377
f 313 378 376
f 313 328 378
f 311 349 290
f 352 354 311
f 354 351 381
f 382 350 349
f 382 349 311
f 382 311 354
f 382 354 381
f 382 381 350
f 389 383 385
f 383 389 386
f 126 388 387
f 389 387 386
f 389 126 387
f 388 126 117
f 390 388 117
f 387 388 390
f 391 387 390
f 386 387 391
f 392 386 391
f 383 386 392
f 471 383 392
f 468 470 117
f 397 395 394
f 396 397 394
f 395 397 116
f 398 395 116
f 394 395 398
f 399 394 398
f 396 394 399
f 393 396 399
f 474 399 116
f 288 403 400
f 403 402 401
f 403 124 402
f 403 401 400
f 404 124 407
f 404 402 124
f 459 402 404
f 405 401 402
f 405 402 459
f 406 400 401
f 406 401 405
f 460 400 406
f 288 400 460
f 123 460 407
f 409 317 318
f 319 409 318
f 325 319 320
f 325 409 319
f 725 411 19
f 324 326 408
f 324 408 409
f 412 413 414
f 415 414 366
f 412 414 415
f 416 366 373
f 416 331 330
f 416 373 331
f 416 415 366
f 417 330 329
f 417 416 330
f 417 415 416
f 415 329 58
f 415 153 412
f 415 417 329
f 153 415 58
f 332 333 410
f 119 420 252
f 426 423 421
f 423 279 422
f 423 422 421
f 424 422 279
f 424 279 427
f 425 421 422
f 425 422 424
f 461 421 425
f 426 421 461
f 419 430 429
f 419 118 430
f 419 429 428
f 431 118 434
f 431 430 118
f 463 430 431
f 432 429 430
f 432 430 463
f 433 428 429
f 433 429 432
f 465 428 433
f 419 428 465
f 478 465 434
f 309 334 337
f 448 338 309
f 436 336 335
f 436 338 339
f 436 339 336
f 437 335 334
f 437 334 309
f 437 309 338
f 437 338 436
f 437 436 335
f 440 438 439
f 441 447 175
f 441 175 438
f 441 438 440
f 442 439 438
f 442 438 339
f 443 440 439
f 443 439 442
f 444 440 443
f 444 441 440
f 444 447 441
f 445 442 339
f 446 443 442
f 446 442 445
f 447 444 443
f 447 443 446
f 448 445 339
f 449 445 448
f 449 446 445
f 216 446 449
f 216 447 446
f 216 449 448
f 341 216 448
f 216 341 158
f 423 426 462
f 342 321 283
f 346 466 467
f 346 343 466
f 346 344 451
f 346 451 343
f 343 347 348
f 466 343 348
f 348 467 466
f 146 284 315
f 146 315 452
f 452 230 146
f 365 82 60
f 384 469 468
f 468 261 384
f 261 468 195
f 385 383 471
f 385 471 472
f 385 472 469
f 469 384 385
f 470 390 117
f 470 391 390
f 471 391 470
f 471 392 391
f 399 398 116
f 393 399 473
f 393 473 454
f 356 473 474
f 356 454 473
f 474 291 356
f 460 406 405
f 460 458 288
f 459 404 407
f 459 460 405
f 407 460 459
f 288 458 475
f 476 288 475
f 475 453 476
f 458 453 475
f 123 305 453
f 123 453 458
f 477 270 418
f 478 270 477
f 419 464 477
f 477 418 419
f 301 252 420
f 479 456 301
f 479 301 420
f 479 455 456
f 480 455 479
f 420 455 480
f 420 119 455
f 461 425 424
f 461 482 426
f 427 461 424
f 427 482 461
f 462 426 482
f 462 482 481
f 481 450 462
f 427 279 218
f 481 218 450
f 482 218 481
f 482 427 218
f 465 433 432
f 465 464 419
f 434 463 431
f 463 465 432
f 465 463 434
f 472 471 470
f 472 470 468
f 469 472 468
f 399 474 473
f 123 458 460
f 464 465 478
f 477 464 478
f 480 479 420
f 551 696 725
f 551 725 712
f 551 690 696
f 551 712 18
f 670 23 690
f 571 670 690
f 726 18 733
f 552 551 18
f 552 18 726
f 652 690 551
f 652 571 690
f 565 552 726
f 631 741 652
f 631 653 741
f 483 631 652
f 671 552 565
f 671 565 691
f 671 483 552
f 137 671 691
f 649 631 483
f 658 483 671
f 739 649 483
f 658 739 483
f 487 484 485
f 487 486 484
f 489 492 491
f 489 490 492
f 493 496 495
f 493 494 496
f 491 503 489
f 504 502 503
f 504 503 491
f 505 501 502
f 505 502 504
f 506 500 501
f 506 501 505
f 507 499 500
f 507 500 506
f 508 498 499
f 508 499 507
f 509 497 498
f 509 498 508
f 510 494 497
f 510 497 509
f 496 494 510
f 495 517 493
f 518 516 517
f 518 517 495
f 519 515 516
f 519 516 518
f 520 514 515
f 520 515 519
f 521 513 514
f 521 514 520
f 522 512 513
f 522 513 521
f 523 511 512
f 523 512 522
f 524 485 511
f 524 511 523
f 487 485 524
f 486 530 484
f 531 529 530
f 531 530 486
f 532 528 529
f 532 529 531
f 533 527 528
f 533 528 532
f 534 526 527
f 534 527 533
f 535 525 526
f 535 526 534
f 553 488 525
f 553 525 535
f 553 541 488
f 542 540 541
f 542 541 553
f 543 539 540
f 543 540 542
f 544 538 539
f 544 539 543
f 545 537 538
f 545 538 544
f 546 536 537
f 546 537 545
f 547 490 536
f 547 536 546
f 492 490 547
f 144 548 490
f 144 490 489
f 548 536 490
f 548 537 536
f 548 538 537
f 548 539 538
f 548 540 539
f 548 541 540
f 548 488 541
f 144 497 494
f 144 498 497
f 144 499 498
f 144 500 499
f 144 501 500
f 144 502 501
f 144 503 502
f 144 489 503
f 548 549 488
f 493 144 494
f 550 144 493
f 549 525 488
f 549 526 525
f 549 527 526
f 549 528 527
f 549 529 528
f 549 530 529
f 549 484 530
f 550 511 485
f 550 512 511
f 550 513 512
f 550 514 513
f 550 515 514
f 550 516 515
f 550 517 516
f 550 493 517
f 484 550 485
f 549 550 484
f 492 551 552
f 492 552 491
f 551 542 553
f 551 543 542
f 551 544 543
f 551 545 544
f 551 546 545
f 551 547 546
f 551 492 547
f 552 504 491
f 552 505 504
f 552 506 505
f 552 507 506
f 552 508 507
f 552 509 508
f 552 510 509
f 552 496 510
f 652 551 553
f 496 483 495
f 496 552 483
f 652 531 486
f 652 532 531
f 652 533 532
f 652 534 533
f 652 535 534
f 652 553 535
f 483 518 495
f 483 519 518
f 483 520 519
f 483 521 520
f 483 522 521
f 483 523 522
f 483 524 523
f 483 487 524
f 483 652 486
f 487 483 486
f 629 630 554
f 629 627 628
f 37 604 555
f 37 555 605
f 140 602 556
f 140 603 602
f 610 608 557
f 37 610 557
f 578 559 558
f 578 579 559
f 143 573 572
f 572 573 574
f 586 141 127
f 141 586 585
f 585 586 591
f 625 626 561
f 625 561 560
f 562 23 22
f 696 676 695
f 683 695 675
f 563 564 722
f 563 722 705
f 707 691 565
f 566 567 681
f 566 681 568
f 658 665 30
f 659 682 680
f 659 665 682
f 24 659 680
f 569 570 646
f 35 635 632
f 654 642 641
f 143 572 21
f 39 577 129
f 39 129 574
f 40 576 577
f 40 577 39
f 41 575 576
f 41 576 40
f 573 143 575
f 573 575 41
f 575 129 577
f 575 577 576
f 559 580 581
f 582 559 579
f 582 580 559
f 583 580 582
f 583 582 135
f 584 581 580
f 584 580 583
f 558 559 581
f 558 581 584
f 578 558 583
f 584 583 558
f 142 141 585
f 588 590 589
f 591 590 588
f 591 588 587
f 591 586 590
f 604 592 555
f 604 593 592
f 604 594 593
f 604 130 594
f 587 597 128
f 587 128 591
f 588 596 597
f 588 597 587
f 589 595 596
f 589 596 588
f 590 127 595
f 590 595 589
f 586 127 590
f 598 594 130
f 598 130 610
f 599 593 594
f 599 594 598
f 600 592 593
f 600 593 599
f 601 555 592
f 601 592 600
f 605 555 601
f 37 605 610
f 602 37 557
f 602 603 37
f 603 604 37
f 603 140 604
f 127 128 597
f 127 596 595
f 127 597 596
f 599 601 600
f 610 599 598
f 610 605 601
f 610 601 599
f 602 606 607
f 602 557 606
f 557 608 611
f 611 608 734
f 612 557 611
f 612 606 557
f 613 607 606
f 613 606 612
f 556 602 607
f 556 607 613
f 561 614 615
f 561 36 614
f 140 556 611
f 613 611 556
f 611 613 612
f 616 614 36
f 616 36 609
f 617 615 614
f 617 614 616
f 560 561 615
f 560 615 617
f 626 36 561
f 617 616 560
f 625 560 616
f 621 620 131
f 621 131 627
f 622 619 620
f 622 620 621
f 623 618 619
f 623 619 622
f 624 554 618
f 624 618 623
f 629 554 624
f 627 622 621
f 627 623 622
f 627 624 623
f 629 624 627
f 554 131 620
f 554 619 618
f 554 620 619
f 625 133 626
f 630 628 132
f 35 637 635
f 632 631 35
f 637 633 634
f 635 637 634
f 646 635 636
f 653 631 632
f 631 637 35
f 638 633 637
f 638 637 631
f 639 634 633
f 639 633 638
f 640 635 634
f 640 636 635
f 640 634 639
f 569 646 636
f 569 636 640
f 632 635 646
f 640 649 569
f 649 640 639
f 649 639 638
f 649 638 631
f 646 643 644
f 632 644 645
f 632 646 644
f 741 647 31
f 741 648 647
f 741 742 648
f 649 570 569
f 739 570 649
f 570 643 646
f 650 644 643
f 650 643 570
f 651 645 644
f 651 644 650
f 653 632 645
f 653 645 651
f 647 33 32
f 647 32 31
f 648 34 33
f 648 33 647
f 742 654 34
f 742 34 648
f 652 642 571
f 641 642 652
f 741 31 652
f 739 650 570
f 739 651 650
f 739 653 651
f 641 652 31
f 656 657 655
f 654 657 642
f 654 655 657
f 658 30 680
f 659 24 25
f 659 25 26
f 659 26 30
f 665 659 30
f 680 30 24
f 742 655 654
f 660 656 655
f 660 655 742
f 661 657 656
f 661 656 660
f 571 642 657
f 571 657 661
f 665 662 663
f 669 665 663
f 568 669 664
f 670 660 742
f 670 661 660
f 670 571 661
f 666 662 665
f 666 665 658
f 667 663 662
f 667 662 666
f 668 669 663
f 668 664 669
f 668 663 667
f 566 568 664
f 566 664 668
f 669 568 681
f 669 681 682
f 682 665 669
f 668 671 566
f 671 668 667
f 671 667 666
f 671 666 658
f 675 674 22
f 676 672 673
f 676 673 675
f 681 677 678
f 682 681 678
f 682 678 679
f 671 567 566
f 671 137 567
f 567 677 681
f 684 678 677
f 684 677 567
f 685 679 678
f 685 678 684
f 686 682 679
f 686 679 685
f 658 680 682
f 658 682 686
f 683 22 23
f 696 683 23
f 683 675 22
f 676 675 695
f 687 672 676
f 687 676 696
f 688 673 672
f 688 672 687
f 689 675 673
f 689 674 675
f 689 673 688
f 562 22 674
f 562 674 689
f 690 23 562
f 137 684 567
f 137 685 684
f 137 686 685
f 137 658 686
f 689 690 562
f 690 689 688
f 690 688 687
f 690 687 696
f 692 114 691
f 691 693 692
f 691 694 693
f 114 697 711
f 692 698 697
f 692 697 114
f 693 699 698
f 693 698 692
f 694 700 699
f 694 699 693
f 691 707 700
f 691 700 694
f 705 704 703
f 706 702 704
f 705 706 704
f 711 706 705
f 706 701 702
f 707 706 711
f 699 700 698
f 711 697 698
f 711 698 700
f 711 700 707
f 696 695 683
f 565 706 707
f 708 701 706
f 708 706 565
f 709 702 701
f 709 701 708
f 710 704 702
f 710 703 704
f 710 702 709
f 563 705 703
f 563 703 710
f 724 711 705
f 724 705 722
f 710 726 563
f 726 710 709
f 726 709 708
f 726 708 565
f 722 715 716
f 724 722 716
f 724 716 717
f 723 724 718
f 720 723 719
f 711 720 721
f 724 723 720
f 711 724 720
f 725 714 712
f 725 713 714
f 726 564 563
f 733 564 726
f 564 715 722
f 727 716 715
f 727 715 564
f 728 717 716
f 728 716 727
f 729 724 717
f 729 718 724
f 729 717 728
f 730 723 718
f 730 719 723
f 730 718 729
f 731 720 719
f 731 721 720
f 731 719 730
f 115 711 721
f 115 721 731
f 731 733 115
f 733 731 730
f 733 727 564
f 733 728 727
f 733 729 728
f 733 730 729
f 713 732 714
f 712 714 732
f 732 713 18
f 18 712 732
f 19 713 725
f 20 18 713
f 20 713 19
f 733 18 20
f 738 733 20
f 653 74 741
f 739 740 653
f 132 120 735
f 38 737 21
f 734 120 132
f 132 554 734
f 742 741 74
f 751 745 744
f 749 751 744
f 748 751 749
f 751 746 745
f 752 746 751
f 748 752 751
f 748 759 761
f 761 752 748
f 754 743 753
f 754 747 760
f 754 744 743
f 749 744 754
f 752 761 763
f 752 763 764
f 752 755 746
f 750 755 752
f 764 750 752
f 753 747 754
f 754 760 749
f 759 748 749
f 758 48 49
f 758 759 749
f 758 49 45
f 762 758 45
f 762 759 758
f 779 757 55
f 760 779 55
f 760 55 47
f 758 760 47
f 758 47 48
f 758 749 760
f 762 45 50
f 762 761 759
f 762 50 56
f 763 761 762
f 763 762 56
f 763 56 44
f 756 764 763
f 756 763 44
f 756 44 46
f 747 779 760
f 765 52 43
f 42 765 43
f 757 765 42
f 743 767 73
f 744 767 743
f 744 745 767
f 746 2 745
f 746 3 2
f 755 4 3
f 755 3 746
f 769 4 755
f 769 6 4
f 769 71 6
f 770 71 769
f 770 768 71
f 770 7 768
f 771 7 770
f 771 73 7
f 743 73 771
f 776 51 54
f 774 780 773
f 777 772 780
f 777 780 774
f 774 54 766
f 777 766 53
f 777 774 766
f 756 46 51
f 776 775 756
f 776 756 51
f 774 773 776
f 774 776 54
f 778 53 150
f 778 777 53
f 778 772 777
f 778 150 52
f 779 52 765
f 779 778 52
f 779 765 757
f 756 775 764
f 775 776 773
f 747 753 778
f 747 778 779
f 780 769 781
f 780 781 773
f 780 770 769
f 782 770 780
f 782 780 772
f 750 764 775
f 750 769 755
f 781 769 750
f 781 750 775
f 781 775 773
f 782 771 770
f 782 772 778
f 753 771 782
f 753 782 778
f 753 743 771
f 4 6 5
f 767 1 73
f 66 767 745
f 785 784 787
f 788 785 787
f 786 785 788
f 789 786 788
f 790 872 786
f 790 786 789
f 793 795 824
f 796 795 793
f 792 796 793
f 797 796 792
f 794 792 791
f 794 797 792
f 803 809 804
f 805 803 804
f 806 883 803
f 806 803 805
f 883 809 880
f 883 808 809
f 791 824 823
f 824 791 870
f 872 784 877
f 872 826 784
f 847 829 885
f 828 847 816
f 843 886 829
f 887 886 843
f 801 873 887
f 831 828 879
f 891 831 879
f 853 831 891
f 888 853 891
f 836 802 838
f 881 802 836
f 855 853 888
f 867 855 888
f 868 855 867
f 830 783 881
f 798 868 869
f 863 783 830
f 878 827 863
f 846 845 829
f 849 848 847
f 863 889 783
f 827 889 863
f 877 827 878
f 872 877 878
f 871 825 878
f 832 871 878
f 870 791 871
f 870 871 832
f 798 870 832
f 868 822 869
f 866 821 888
f 891 866 888
f 865 820 891
f 879 865 891
f 819 865 879
f 828 818 879
f 890 818 828
f 876 817 828
f 816 876 828
f 885 815 847
f 875 885 829
f 875 814 885
f 874 813 829
f 886 874 829
f 812 886 887
f 873 811 887
f 799 800 873
f 801 799 873
f 838 884 801
f 802 810 838
f 883 802 881
f 783 807 881
f 783 882 807
f 828 851 850
f 831 851 828
f 853 852 831
f 853 855 854
f 868 857 855
f 868 858 857
f 798 858 868
f 798 832 858
f 832 860 859
f 878 860 832
f 863 861 878
f 863 862 861
f 830 864 863
f 830 833 864
f 881 834 830
f 836 834 881
f 836 835 834
f 838 837 836
f 838 839 837
f 838 840 839
f 801 840 838
f 801 841 840
f 887 841 801
f 887 842 841
f 887 843 842
f 829 845 843
f 847 846 829
f 847 848 846
f 828 849 847
f 828 850 849
f 864 830 863
f 864 833 830
f 878 862 863
f 861 862 878
f 860 878 832
f 859 860 832
f 857 868 856
f 857 858 868
f 855 857 856
f 854 856 853
f 854 855 856
f 852 853 831
f 851 831 850
f 849 850 848
f 846 848 845
f 844 843 845
f 843 844 841
f 842 843 841
f 839 840 841
f 837 839 836
f 835 836 830
f 834 835 830
f 784 788 787
f 826 789 788
f 826 790 789
f 826 788 784
f 823 794 791
f 823 796 797
f 823 797 794
f 824 795 796
f 824 796 823
f 809 805 804
f 808 806 805
f 808 883 806
f 808 805 809
f 826 872 790
f 878 877 872
f 871 878 825
f 870 871 791
f 798 878 871
f 870 798 871
f 822 798 869
f 868 798 822
f 888 868 867
f 866 888 821
f 866 891 888
f 865 891 820
f 879 865 819
f 828 865 879
f 890 879 818
f 828 879 890
f 876 828 817
f 816 828 876
f 885 847 815
f 875 885 814
f 875 829 885
f 874 829 813
f 886 829 874
f 886 887 829
f 812 887 886
f 873 887 811
f 873 801 887
f 800 801 873
f 799 801 800
f 884 838 801
f 802 838 810
f 883 838 802
f 830 881 807
f 783 830 807
f 783 807 882
f 845 885 829
f 848 885 845
f 848 847 885
f 848 816 847
f 848 828 816
f 844 845 829
f 844 829 887
f 850 828 848
f 841 844 887
f 850 865 828
f 841 887 801
f 831 865 850
f 831 891 865
f 838 841 801
f 839 841 838
f 853 891 831
f 883 839 838
f 883 836 839
f 888 891 853
f 881 836 883
f 856 888 853
f 881 830 836
f 868 888 856
f 798 868 858
f 832 798 858
f 889 830 783
f 889 863 830
f 827 863 889
f 827 878 863
f 878 798 832
f 877 878 827
f 880 809 803
f 880 803 883
f 870 791 792
f 870 792 793
f 870 793 824
f 877 784 785
f 877 785 786
f 872 877 786

