# https://github.com/mikedh/trimesh

o p00017.obj
v 6.35000000 0.00000000 -1.58750000
v 6.28820224 0.88374919 -1.58750000
v 6.10401177 1.75029721 -1.58750000
v 5.80101366 2.58277768 -1.58750000
v 5.38510541 3.36498733 -1.58750000
v 4.86438221 4.08170132 -1.58750000
v 4.24897935 4.71896964 -1.58750000
v 3.55087494 5.26438859 -1.58750000
v 2.78365678 5.70734219 -1.58750000
v 1.96225791 6.03920888 -1.58750000
v 1.10266593 6.25352923 -1.58750000
v 0.22161180 6.34613175 -1.58750000
v -0.66375574 6.31521404 -1.58750000
v -1.53620404 6.16137786 -1.58750000
v -2.37875187 5.88761748 -1.58750000
v -3.17500000 5.49926131 -1.58750000
v -3.90945037 5.00386829 -1.58750000
v -4.56780773 4.41108065 -1.58750000
v -5.13725791 3.73243635 -1.58750000
v -5.60671721 2.98114442 -1.58750000
v -5.96704814 2.17182791 -1.58750000
v -6.21123726 1.32023924 -1.58750000
v -6.33453172 0.44295361 -1.58750000
v -6.33453172 -0.44295361 -1.58750000
v -6.21123726 -1.32023924 -1.58750000
v -5.96704814 -2.17182791 -1.58750000
v -5.60671721 -2.98114442 -1.58750000
v -5.13725791 -3.73243635 -1.58750000
v -4.56780773 -4.41108065 -1.58750000
v -3.90945037 -5.00386829 -1.58750000
v -3.17500000 -5.49926131 -1.58750000
v -2.37875187 -5.88761748 -1.58750000
v -1.53620404 -6.16137786 -1.58750000
v -0.66375574 -6.31521404 -1.58750000
v 0.22161180 -6.34613175 -1.58750000
v 1.10266593 -6.25352923 -1.58750000
v 1.96225791 -6.03920888 -1.58750000
v 2.78365678 -5.70734219 -1.58750000
v 3.55087494 -5.26438859 -1.58750000
v 4.24897935 -4.71896964 -1.58750000
v 4.86438221 -4.08170132 -1.58750000
v 5.38510541 -3.36498733 -1.58750000
v 5.80101366 -2.58277768 -1.58750000
v 6.10401177 -1.75029721 -1.58750000
v 6.28820224 -0.88374919 -1.58750000
v 2.10820000 0.00000000 -1.58750000
v 2.08798327 0.29126123 -1.58750000
v 2.02772082 0.57693632 -1.58750000
v 1.92856843 0.85154626 -1.58750000
v 1.79242777 1.10982429 -1.58750000
v 1.62190988 1.34681684 -1.58750000
v 1.42028516 1.55797860 -1.58750000
v 1.19142059 1.73925968 -1.58750000
v 0.93970560 1.88718325 -1.58750000
v 0.66996787 1.99891228 -1.58750000
v 0.38738073 2.07230389 -1.58750000
v 0.09736397 2.10595050 -1.58750000
v -0.19452016 2.09920679 -1.58750000
v -0.48267355 2.05220211 -1.58750000
v -0.76156968 1.96583795 -1.58750000
v -1.02585956 1.84177072 -1.58750000
v -1.27047434 1.68237992 -1.58750000
v -1.49072252 1.49072252 -1.58750000
v -1.68237992 1.27047434 -1.58750000
v -1.84177072 1.02585956 -1.58750000
v -1.96583795 0.76156968 -1.58750000
v -2.05220211 0.48267355 -1.58750000
v -2.09920679 0.19452016 -1.58750000
v -2.10595050 -0.09736397 -1.58750000
v -2.07230389 -0.38738073 -1.58750000
v -1.99891228 -0.66996787 -1.58750000
v -1.88718325 -0.93970560 -1.58750000
v -1.73925968 -1.19142059 -1.58750000
v -1.55797860 -1.42028516 -1.58750000
v -1.34681684 -1.62190988 -1.58750000
v -1.10982429 -1.79242777 -1.58750000
v -0.85154626 -1.92856843 -1.58750000
v -0.57693632 -2.02772082 -1.58750000
v -0.29126123 -2.08798327 -1.58750000
v 0.00000000 -2.10820000 -1.58750000
v 0.27517532 -2.09016406 -1.58750000
v 0.54564231 -2.03636483 -1.58750000
v 0.80677321 -1.94772283 -1.58750000
v 1.05410000 -1.82575476 -1.58750000
v 1.28339084 -1.67254751 -1.58750000
v 1.49072252 -1.49072252 -1.58750000
v 1.67254751 -1.28339084 -1.58750000
v 1.82575476 -1.05410000 -1.58750000
v 1.94772283 -0.80677321 -1.58750000
v 2.03636483 -0.54564231 -1.58750000
v 2.09016406 -0.27517532 -1.58750000
v 6.35000000 0.00000000 11.11250000
v 6.28820224 0.88374919 11.11250000
v 6.10401177 1.75029721 11.11250000
v 5.80101366 2.58277768 11.11250000
v 5.38510541 3.36498733 11.11250000
v 4.86438221 4.08170132 11.11250000
v 4.24897935 4.71896964 11.11250000
v 3.55087494 5.26438859 11.11250000
v 2.78365678 5.70734219 11.11250000
v 1.96225791 6.03920888 11.11250000
v 1.10266593 6.25352923 11.11250000
v 0.22161180 6.34613175 11.11250000
v -0.66375574 6.31521404 11.11250000
v -1.53620404 6.16137786 11.11250000
v -2.37875187 5.88761748 11.11250000
v -3.17500000 5.49926131 11.11250000
v -3.90945037 5.00386829 11.11250000
v -4.56780773 4.41108065 11.11250000
v -5.13725791 3.73243635 11.11250000
v -5.60671721 2.98114442 11.11250000
v -5.96704814 2.17182791 11.11250000
v -6.21123726 1.32023924 11.11250000
v -6.33453172 0.44295361 11.11250000
v -6.33453172 -0.44295361 11.11250000
v -6.21123726 -1.32023924 11.11250000
v -5.96704814 -2.17182791 11.11250000
v -5.60671721 -2.98114442 11.11250000
v -5.13725791 -3.73243635 11.11250000
v -4.56780773 -4.41108065 11.11250000
v -3.90945037 -5.00386829 11.11250000
v -3.17500000 -5.49926131 11.11250000
v -2.37875187 -5.88761748 11.11250000
v -1.53620404 -6.16137786 11.11250000
v -0.66375574 -6.31521404 11.11250000
v 0.22161180 -6.34613175 11.11250000
v 1.10266593 -6.25352923 11.11250000
v 1.96225791 -6.03920888 11.11250000
v 2.78365678 -5.70734219 11.11250000
v 3.55087494 -5.26438859 11.11250000
v 4.24897935 -4.71896964 11.11250000
v 4.86438221 -4.08170132 11.11250000
v 5.38510541 -3.36498733 11.11250000
v 5.80101366 -2.58277768 11.11250000
v 6.10401177 -1.75029721 11.11250000
v 6.28820224 -0.88374919 11.11250000
v 2.10820000 0.00000000 11.11250000
v 2.08768314 0.29340473 11.11250000
v 2.02653191 0.58109867 11.11250000
v 1.92593653 0.85748219 11.11250000
v 1.78785500 1.11717579 11.11250000
v 1.61497489 1.35512484 11.11250000
v 1.41066114 1.56669792 11.11250000
v 1.17889048 1.74777701 11.11250000
v 0.92417405 1.89483761 11.11250000
v 0.65146963 2.00501735 11.11250000
v 0.36608509 2.07617170 11.11250000
v 0.07357512 2.10691574 11.11250000
v -0.22036691 2.09665106 11.11250000
v -0.51001974 2.04557745 11.11250000
v -0.78974562 1.95468900 11.11250000
v -1.05410000 1.82575476 11.11250000
v -1.29793752 1.66128427 11.11250000
v -1.51651217 1.46447878 11.11250000
v -1.70556963 1.23916887 11.11250000
v -1.86143012 0.98973995 11.11250000
v -1.98105998 0.72104687 11.11250000
v -2.06213077 0.43831943 11.11250000
v -2.10306453 0.14706060 11.11250000
v -2.10306453 -0.14706060 11.11250000
v -2.06213077 -0.43831943 11.11250000
v -1.98105998 -0.72104687 11.11250000
v -1.86143012 -0.98973995 11.11250000
v -1.70556963 -1.23916887 11.11250000
v -1.51651217 -1.46447878 11.11250000
v -1.29793752 -1.66128427 11.11250000
v -1.05410000 -1.82575476 11.11250000
v -0.78974562 -1.95468900 11.11250000
v -0.51001974 -2.04557745 11.11250000
v -0.22036691 -2.09665106 11.11250000
v 0.07357512 -2.10691574 11.11250000
v 0.36608509 -2.07617170 11.11250000
v 0.65146963 -2.00501735 11.11250000
v 0.92417405 -1.89483761 11.11250000
v 1.17889048 -1.74777701 11.11250000
v 1.41066114 -1.56669792 11.11250000
v 1.61497489 -1.35512484 11.11250000
v 1.78785500 -1.11717579 11.11250000
v 1.92593653 -0.85748219 11.11250000
v 2.02653191 -0.58109867 11.11250000
v 2.08768314 -0.29340473 11.11250000
f 63 18 17
f 62 17 16
f 62 63 17
f 64 18 63
f 64 19 18
f 61 16 15
f 61 62 16
f 65 20 19
f 65 19 64
f 60 61 15
f 60 15 14
f 66 21 20
f 66 20 65
f 59 14 13
f 59 60 14
f 67 22 21
f 67 21 66
f 58 13 12
f 58 59 13
f 68 22 67
f 68 23 22
f 57 12 11
f 57 58 12
f 69 24 23
f 69 23 68
f 56 11 10
f 56 57 11
f 70 25 24
f 70 24 69
f 55 56 10
f 55 10 9
f 71 26 25
f 71 25 70
f 54 9 8
f 54 55 9
f 72 26 71
f 72 27 26
f 53 54 8
f 73 28 27
f 73 27 72
f 7 53 8
f 52 53 7
f 74 29 28
f 74 28 73
f 75 29 74
f 6 51 52
f 6 52 7
f 30 75 76
f 30 29 75
f 5 50 51
f 5 51 6
f 31 30 76
f 31 76 77
f 4 50 5
f 4 49 50
f 32 77 78
f 32 31 77
f 3 48 49
f 3 49 4
f 33 32 78
f 33 78 79
f 2 48 3
f 2 47 48
f 34 33 79
f 34 79 80
f 1 47 2
f 1 46 47
f 1 91 46
f 35 34 80
f 35 80 81
f 45 91 1
f 45 90 91
f 36 35 81
f 36 81 82
f 44 90 45
f 44 89 90
f 37 36 82
f 37 82 83
f 43 89 44
f 43 88 89
f 38 37 83
f 38 83 84
f 42 88 43
f 42 87 88
f 39 38 84
f 39 84 85
f 41 87 42
f 41 86 87
f 40 39 85
f 40 86 41
f 40 85 86
f 153 109 154
f 153 107 108
f 153 108 109
f 155 154 109
f 155 109 110
f 152 107 153
f 152 106 107
f 156 110 111
f 156 155 110
f 151 106 152
f 157 156 111
f 157 111 112
f 150 105 106
f 150 106 151
f 158 112 113
f 158 157 112
f 149 104 105
f 149 105 150
f 159 113 114
f 159 158 113
f 148 103 104
f 148 104 149
f 160 114 115
f 160 159 114
f 160 115 116
f 147 102 103
f 147 103 148
f 161 160 116
f 146 101 102
f 146 102 147
f 162 116 117
f 162 161 116
f 145 100 101
f 145 101 146
f 163 117 118
f 163 162 117
f 144 99 100
f 144 100 145
f 164 118 119
f 164 163 118
f 143 98 99
f 143 99 144
f 165 119 120
f 165 164 119
f 166 165 120
f 97 142 141
f 97 143 142
f 97 98 143
f 121 166 120
f 96 141 140
f 96 97 141
f 122 167 166
f 122 166 121
f 95 96 140
f 95 140 139
f 123 167 122
f 123 168 167
f 94 95 139
f 94 139 138
f 124 168 123
f 124 169 168
f 124 170 169
f 93 94 138
f 125 170 124
f 125 171 170
f 92 93 138
f 92 138 137
f 92 137 181
f 126 171 125
f 126 172 171
f 136 92 181
f 127 172 126
f 135 136 181
f 135 181 180
f 128 172 127
f 128 173 172
f 128 174 173
f 134 135 180
f 134 179 178
f 134 180 179
f 129 174 128
f 129 175 174
f 133 134 178
f 130 175 129
f 132 133 178
f 132 178 177
f 131 175 130
f 131 132 177
f 131 176 175
f 131 177 176
f 45 1 92
f 45 92 136
f 44 45 136
f 44 136 135
f 43 44 135
f 43 135 134
f 42 43 134
f 42 134 133
f 41 42 133
f 41 132 131
f 41 133 132
f 40 41 131
f 39 40 131
f 39 131 130
f 38 39 130
f 38 130 129
f 37 38 129
f 37 129 128
f 36 37 128
f 36 127 126
f 36 128 127
f 35 36 126
f 34 35 126
f 34 126 125
f 33 34 125
f 33 125 124
f 32 33 124
f 32 124 123
f 31 32 123
f 31 123 122
f 30 31 122
f 30 122 121
f 29 30 121
f 29 121 120
f 28 29 120
f 28 120 119
f 27 119 118
f 27 28 119
f 26 118 117
f 26 27 118
f 25 117 116
f 25 26 117
f 24 115 114
f 24 116 115
f 24 25 116
f 23 114 113
f 23 24 114
f 22 23 113
f 21 113 112
f 21 22 113
f 20 21 112
f 20 112 111
f 19 20 111
f 19 111 110
f 18 19 110
f 18 110 109
f 17 18 109
f 17 109 108
f 16 17 108
f 16 108 107
f 15 16 107
f 15 107 106
f 14 15 106
f 14 105 104
f 14 106 105
f 13 14 104
f 12 13 104
f 12 103 102
f 12 104 103
f 11 12 102
f 10 11 102
f 10 101 100
f 10 102 101
f 9 10 100
f 9 100 99
f 8 9 99
f 7 8 99
f 7 99 98
f 6 98 97
f 6 7 98
f 5 96 95
f 5 97 96
f 5 6 97
f 4 5 95
f 3 95 94
f 3 4 95
f 2 94 93
f 2 3 94
f 1 93 92
f 1 2 93
f 91 137 46
f 91 181 137
f 90 181 91
f 90 180 181
f 89 180 90
f 89 179 180
f 88 179 89
f 88 178 179
f 87 178 88
f 87 177 178
f 86 177 87
f 86 176 177
f 85 176 86
f 85 175 176
f 84 175 85
f 84 174 175
f 83 174 84
f 83 173 174
f 82 173 83
f 82 172 173
f 81 172 82
f 81 171 172
f 80 171 81
f 80 170 171
f 79 169 170
f 79 170 80
f 78 168 169
f 78 169 79
f 77 167 168
f 77 168 78
f 76 166 167
f 76 167 77
f 75 165 166
f 75 166 76
f 74 164 165
f 74 165 75
f 73 163 164
f 73 164 74
f 72 162 163
f 72 163 73
f 71 161 162
f 71 162 72
f 70 160 161
f 70 161 71
f 69 159 160
f 69 160 70
f 68 158 159
f 68 159 69
f 67 157 158
f 67 158 68
f 66 156 157
f 66 157 67
f 65 155 156
f 65 156 66
f 64 155 65
f 64 154 155
f 63 154 64
f 63 153 154
f 62 153 63
f 62 152 153
f 61 152 62
f 61 151 152
f 60 151 61
f 60 150 151
f 59 150 60
f 59 149 150
f 58 148 149
f 58 149 59
f 57 147 148
f 57 148 58
f 56 146 147
f 56 147 57
f 55 145 146
f 55 146 56
f 54 144 145
f 54 145 55
f 53 143 144
f 53 144 54
f 52 142 143
f 52 143 53
f 51 141 142
f 51 142 52
f 50 140 141
f 50 141 51
f 49 139 140
f 49 140 50
f 48 138 139
f 48 139 49
f 47 137 138
f 47 138 48
f 46 137 47

