# https://github.com/mikedh/trimesh

o p00056.obj
v 30.21212691 -52.63932110 9.52250000
v 29.80691277 -52.77670151 9.52250000
v 29.38652249 -52.85635003 9.52250000
v 28.95913849 -52.87671640 9.52250000
v 28.53307931 -52.83740421 9.52250000
v 28.11663771 -52.73917863 9.52250000
v 27.71791924 -52.58395150 9.52250000
v 27.34468452 -52.37474415 9.52250000
v 27.00419813 -52.11562855 9.52250000
v 26.70308725 -51.81164810 9.52250000
v 26.44721267 -51.46871944 9.52250000
v 26.24155468 -51.09351727 9.52250000
v 26.09011619 -50.69334448 9.52250000
v 25.99584478 -50.27598999 9.52250000
v 25.96057533 -49.84957711 9.52250000
v 25.98499432 -49.42240550 9.52250000
v 26.06862646 -49.00278956 9.52250000
v 26.20984396 -48.59889663 9.52250000
v 26.40589817 -48.21858805 9.52250000
v 26.65297311 -47.86926607 9.52250000
v 26.94625976 -47.55772985 9.52250000
v 27.28004963 -47.29004310 9.52250000
v 27.64784588 -47.07141603 9.52250000
v 28.04248976 -46.90610396 9.52250000
v 28.45629999 -46.79732451 9.52250000
v 28.88122222 -46.74719495 9.52250000
v 29.30898582 -46.75669100 9.52250000
v 29.73126487 -46.82562781 9.52250000
v 30.13984017 -46.95266362 9.52250000
v 30.52675927 -47.13532582 9.52250000
v 30.88449125 -47.37005909 9.52250000
v 31.20607324 -47.65229462 9.52250000
v 31.48524602 -47.97653902 9.52250000
v 31.71657582 -48.33648124 9.52250000
v 31.89556005 -48.72511541 9.52250000
v 32.01871500 -49.13487721 9.52250000
v 32.08364360 -49.55779109 9.52250000
v 32.08908208 -49.98562552 9.52250000
v 32.03492458 -50.41005318 9.52250000
v 31.92222523 -50.82281308 9.52250000
v 31.75317759 -51.21587130 9.52250000
v 31.53107197 -51.58157743 9.52250000
v 31.26023142 -51.91281340 9.52250000
v 30.94592753 -52.20313208 9.52250000
v 30.59427787 -52.44688276 9.52250000
v 29.83856311 -51.74752493 9.52250000
v 29.56109851 -51.84159420 9.52250000
v 29.27324226 -51.89613239 9.52250000
v 28.98059716 -51.91007797 9.52250000
v 28.68885922 -51.88315951 9.52250000
v 28.40370677 -51.81590094 9.52250000
v 28.13068999 -51.70961138 9.52250000
v 27.87512283 -51.56635963 9.52250000
v 27.64197964 -51.38893392 9.52250000
v 27.43579826 -51.18078764 9.52250000
v 27.26059178 -50.94597213 9.52250000
v 27.11977041 -50.68905780 9.52250000
v 27.01607506 -50.41504519 9.52250000
v 26.95152406 -50.12926765 9.52250000
v 26.92737380 -49.83728752 9.52250000
v 26.94409436 -49.54478785 9.52250000
v 27.00136028 -49.25746182 9.52250000
v 27.09805694 -48.98090190 9.52250000
v 27.23230227 -48.72049102 9.52250000
v 27.40148331 -48.48129777 9.52250000
v 27.60230716 -48.26797779 9.52250000
v 27.83086502 -48.08468311 9.52250000
v 28.08270825 -47.93498134 9.52250000
v 28.35293502 -47.82178626 9.52250000
v 28.63628567 -47.74730108 9.52250000
v 28.92724511 -47.71297558 9.52250000
v 29.22015013 -47.71947786 9.52250000
v 29.50929969 -47.76668136 9.52250000
v 29.78906580 -47.85366732 9.52250000
v 30.05400314 -47.97874265 9.52250000
v 30.29895500 -48.13947292 9.52250000
v 30.51915369 -48.33272967 9.52250000
v 30.71031327 -48.55475140 9.52250000
v 30.86871305 -48.80121670 9.52250000
v 30.99126995 -49.06732841 9.52250000
v 31.07559854 -49.34790695 9.52250000
v 31.12005747 -49.63749120 9.52250000
v 31.12378139 -49.93044472 9.52250000
v 31.08669782 -50.22106551 9.52250000
v 31.00952855 -50.50369696 9.52250000
v 30.89377559 -50.77283798 9.52250000
v 30.74169193 -51.02325003 9.52250000
v 30.55623773 -51.25005914 9.52250000
v 30.34102262 -51.44885072 9.52250000
v 30.10023554 -51.61575552 9.52250000
v 30.21212691 -52.63932110 -9.52750000
v 29.80691277 -52.77670151 -9.52750000
v 29.38652249 -52.85635003 -9.52750000
v 28.95913849 -52.87671640 -9.52750000
v 28.53307931 -52.83740421 -9.52750000
v 28.11663771 -52.73917863 -9.52750000
v 27.71791924 -52.58395150 -9.52750000
v 27.34468452 -52.37474415 -9.52750000
v 27.00419813 -52.11562855 -9.52750000
v 26.70308725 -51.81164810 -9.52750000
v 26.44721267 -51.46871944 -9.52750000
v 26.24155468 -51.09351727 -9.52750000
v 26.09011619 -50.69334448 -9.52750000
v 25.99584478 -50.27598999 -9.52750000
v 25.96057533 -49.84957711 -9.52750000
v 25.98499432 -49.42240550 -9.52750000
v 26.06862646 -49.00278956 -9.52750000
v 26.20984396 -48.59889663 -9.52750000
v 26.40589817 -48.21858805 -9.52750000
v 26.65297311 -47.86926607 -9.52750000
v 26.94625976 -47.55772985 -9.52750000
v 27.28004963 -47.29004310 -9.52750000
v 27.64784588 -47.07141603 -9.52750000
v 28.04248976 -46.90610396 -9.52750000
v 28.45629999 -46.79732451 -9.52750000
v 28.88122222 -46.74719495 -9.52750000
v 29.30898582 -46.75669100 -9.52750000
v 29.73126487 -46.82562781 -9.52750000
v 30.13984017 -46.95266362 -9.52750000
v 30.52675927 -47.13532582 -9.52750000
v 30.88449125 -47.37005909 -9.52750000
v 31.20607324 -47.65229462 -9.52750000
v 31.48524602 -47.97653902 -9.52750000
v 31.71657582 -48.33648124 -9.52750000
v 31.89556005 -48.72511541 -9.52750000
v 32.01871500 -49.13487721 -9.52750000
v 32.08364360 -49.55779109 -9.52750000
v 32.08908208 -49.98562552 -9.52750000
v 32.03492458 -50.41005318 -9.52750000
v 31.92222523 -50.82281308 -9.52750000
v 31.75317759 -51.21587130 -9.52750000
v 31.53107197 -51.58157743 -9.52750000
v 31.26023142 -51.91281340 -9.52750000
v 30.94592753 -52.20313208 -9.52750000
v 30.59427787 -52.44688276 -9.52750000
v 29.83856311 -51.74752493 -9.52750000
v 29.56109851 -51.84159420 -9.52750000
v 29.27324226 -51.89613239 -9.52750000
v 28.98059716 -51.91007797 -9.52750000
v 28.68885922 -51.88315951 -9.52750000
v 28.40370677 -51.81590094 -9.52750000
v 28.13068999 -51.70961138 -9.52750000
v 27.87512283 -51.56635963 -9.52750000
v 27.64197964 -51.38893392 -9.52750000
v 27.43579826 -51.18078764 -9.52750000
v 27.26059178 -50.94597213 -9.52750000
v 27.11977041 -50.68905780 -9.52750000
v 27.01607506 -50.41504519 -9.52750000
v 26.95152406 -50.12926765 -9.52750000
v 26.92737380 -49.83728752 -9.52750000
v 26.94409436 -49.54478785 -9.52750000
v 27.00136028 -49.25746182 -9.52750000
v 27.09805694 -48.98090190 -9.52750000
v 27.23230227 -48.72049102 -9.52750000
v 27.40148331 -48.48129777 -9.52750000
v 27.60230716 -48.26797779 -9.52750000
v 27.83086502 -48.08468311 -9.52750000
v 28.08270825 -47.93498134 -9.52750000
v 28.35293502 -47.82178626 -9.52750000
v 28.63628567 -47.74730108 -9.52750000
v 28.92724511 -47.71297558 -9.52750000
v 29.22015013 -47.71947786 -9.52750000
v 29.50929969 -47.76668136 -9.52750000
v 29.78906580 -47.85366732 -9.52750000
v 30.05400314 -47.97874265 -9.52750000
v 30.29895500 -48.13947292 -9.52750000
v 30.51915369 -48.33272967 -9.52750000
v 30.71031327 -48.55475140 -9.52750000
v 30.86871305 -48.80121670 -9.52750000
v 30.99126995 -49.06732841 -9.52750000
v 31.07559854 -49.34790695 -9.52750000
v 31.12005747 -49.63749120 -9.52750000
v 31.12378139 -49.93044472 -9.52750000
v 31.08669782 -50.22106551 -9.52750000
v 31.00952855 -50.50369696 -9.52750000
v 30.89377559 -50.77283798 -9.52750000
v 30.74169193 -51.02325003 -9.52750000
v 30.55623773 -51.25005914 -9.52750000
v 30.34102262 -51.44885072 -9.52750000
v 30.10023554 -51.61575552 -9.52750000
v 30.24424259 -52.71598977 -0.00250000
v 29.82804569 -52.85709369 -0.00250000
v 29.39626132 -52.93890097 -0.00250000
v 28.95729367 -52.95981934 -0.00250000
v 28.51968674 -52.91944165 -0.00250000
v 28.09195807 -52.81855380 -0.00250000
v 27.68243290 -52.65911946 -0.00250000
v 27.29908217 -52.44424183 -0.00250000
v 26.94936737 -52.17810326 -0.00250000
v 26.64009530 -51.86588385 -0.00250000
v 26.37728559 -51.51366058 -0.00250000
v 26.16605353 -51.12828908 -0.00250000
v 26.01051051 -50.71727017 -0.00250000
v 25.91368401 -50.28860386 -0.00250000
v 25.87745863 -49.85063366 -0.00250000
v 25.90253946 -49.41188416 -0.00250000
v 25.98843834 -48.98089511 -0.00250000
v 26.13348334 -48.56605523 -0.00250000
v 26.33485132 -48.17543891 -0.00250000
v 26.58862289 -47.81664905 -0.00250000
v 26.88985867 -47.49666908 -0.00250000
v 27.23269544 -47.22172705 -0.00250000
v 27.61046029 -46.99717439 -0.00250000
v 28.01580045 -46.82738177 -0.00250000
v 28.44082643 -46.71565401 -0.00250000
v 28.87726558 -46.66416576 -0.00250000
v 29.31662312 -46.67391918 -0.00250000
v 29.75034745 -46.74472443 -0.00250000
v 30.16999662 -46.87520337 -0.00250000
v 30.56740263 -47.06281637 -0.00250000
v 30.93483043 -47.30391176 -0.00250000
v 31.26512845 -47.59379689 -0.00250000
v 31.55186782 -47.92682949 -0.00250000
v 31.78946749 -48.29652744 -0.00250000
v 31.97330284 -48.69569499 -0.00250000
v 32.09979574 -49.11656281 -0.00250000
v 32.16648413 -49.55093919 -0.00250000
v 32.17207001 -49.99036947 -0.00250000
v 32.11644465 -50.42630065 -0.00250000
v 32.00069074 -50.85024783 -0.00250000
v 31.82706130 -51.25395935 -0.00250000
v 31.59893582 -51.62957743 -0.00250000
v 31.32075451 -51.96979109 -0.00250000
v 30.99793186 -52.26797846 -0.00250000
v 30.63675122 -52.51833566 -0.00250000
v 30.21747952 -52.65209921 -7.94000000
v 30.22283214 -52.66487733 -6.35250000
v 30.22818475 -52.67765544 -4.76500000
v 30.23353736 -52.69043355 -3.17750000
v 30.23888998 -52.70321166 -1.59000000
v 30.93996948 -52.22559609 -7.94000000
v 31.52059839 -51.61998340 -7.94000000
v 30.94857110 -52.23645623 -6.35250000
v 31.91630365 -50.88017666 -7.94000000
v 31.53181107 -51.62812013 -6.35250000
v 32.09773762 -50.06104396 -7.94000000
v 30.95717272 -52.24731638 -4.76500000
v 31.92929580 -50.88498652 -6.35250000
v 32.05144417 -49.22333663 -7.94000000
v 31.54302375 -51.63625687 -4.76500000
v 32.11154567 -50.06217022 -6.35250000
v 31.78085668 -48.42918358 -7.94000000
v 30.96577434 -52.25817653 -3.17750000
v 31.94228795 -50.88979638 -4.76500000
v 32.06504404 -49.22069576 -6.35250000
v 31.30604337 -47.73748351 -7.94000000
v 31.55423643 -51.64439360 -3.17750000
v 32.12535372 -50.06329648 -4.76500000
v 31.79323973 -48.42297144 -6.35250000
v 30.66221898 -47.19953666 -7.94000000
v 30.97437595 -52.26903668 -1.59000000
v 31.95528009 -50.89460624 -3.17750000
v 32.07864391 -49.21805488 -4.76500000
v 31.31629120 -47.72816083 -6.35250000
v 29.89713303 -46.85524007 -7.94000000
v 31.56544911 -51.65253034 -1.59000000
v 32.13916177 -50.06442273 -3.17750000
v 31.80562277 -48.41675929 -4.76500000
v 30.66957157 -47.18779485 -6.35250000
v 29.06752843 -46.73012866 -7.94000000
v 31.96827224 -50.89941609 -1.59000000
v 32.09224378 -49.21541401 -3.17750000
v 31.32653904 -47.71883814 -4.76500000
v 29.90104506 -46.84194998 -6.35250000
v 28.23493316 -46.83348136 -7.94000000
v 32.15296981 -50.06554899 -1.59000000
v 31.81800582 -48.41054715 -3.17750000
v 30.67692416 -47.17605304 -4.76500000
v 29.06770976 -46.71627594 -6.35250000
v 27.46109701 -47.15763298 -7.94000000
v 32.10584364 -49.21277313 -1.59000000
v 31.33678687 -47.70951545 -3.17750000
v 29.90495709 -46.82865988 -4.76500000
v 28.23137035 -46.82009342 -6.35250000
v 26.80341186 -47.67854267 -7.94000000
v 31.83038887 -48.40433500 -1.59000000
v 30.68427674 -47.16431123 -3.17750000
v 29.06789110 -46.70242323 -4.76500000
v 27.45405430 -47.14570273 -6.35250000
v 26.31065521 -48.35757694 -7.94000000
v 31.34703471 -47.70019276 -1.59000000
v 29.90886912 -46.81536979 -3.17750000
v 28.22780755 -46.80670547 -4.76500000
v 26.79341157 -47.66895492 -6.35250000
v 26.01937257 -49.14437494 -7.94000000
v 30.69162933 -47.15256942 -1.59000000
v 29.06807243 -46.68857051 -3.17750000
v 27.44701158 -47.13377248 -4.76500000
v 26.29843902 -48.35104278 -6.35250000
v 25.95116704 -49.98058344 -7.94000000
v 29.91278115 -46.80207969 -1.59000000
v 28.22424474 -46.79331753 -3.17750000
v 26.78341128 -47.65936718 -4.76500000
v 26.00584649 -49.14137897 -6.35250000
v 26.11109711 -50.80418470 -7.94000000
v 29.06825377 -46.67471780 -1.59000000
v 27.43996887 -47.12184223 -3.17750000
v 26.28622282 -48.34450863 -4.76500000
v 25.93733425 -49.98134787 -6.35250000
v 26.48730150 -51.55409597 -7.94000000
v 28.22068193 -46.77992959 -1.59000000
v 26.77341098 -47.64977944 -3.17750000
v 25.99232041 -49.13838301 -4.76500000
v 26.09798351 -50.80865283 -6.35250000
v 27.05187885 -52.17469977 -7.94000000
v 27.43292616 -47.10991198 -1.59000000
v 26.27400663 -48.33797447 -3.17750000
v 25.92350145 -49.98211230 -4.76500000
v 26.47587968 -51.56193641 -6.35250000
v 27.76295705 -52.61996875 -7.94000000
v 26.76341069 -47.64019170 -1.59000000
v 25.97879433 -49.13538705 -3.17750000
v 26.08486992 -50.81312095 -4.76500000
v 27.04299591 -52.18533104 -6.35250000
v 28.56779866 -52.85687935 -7.94000000
v 26.26179043 -48.33144032 -1.59000000
v 25.90966865 -49.98287673 -3.17750000
v 26.46445785 -51.56977686 -4.76500000
v 27.75727179 -52.63260237 -6.35250000
v 29.40671228 -52.86786099 -7.94000000
v 25.96526825 -49.13239109 -1.59000000
v 26.07175632 -50.81758908 -3.17750000
v 27.03411296 -52.19596231 -4.76500000
v 28.56573274 -52.87057835 -6.35250000
v 25.89583586 -49.98364116 -1.59000000
v 26.45303603 -51.57761730 -3.17750000
v 27.75158652 -52.64523600 -4.76500000
v 29.40841891 -52.88160937 -6.35250000
v 26.05864272 -50.82205720 -1.59000000
v 27.02523001 -52.20659358 -3.17750000
v 28.56366681 -52.88427735 -4.76500000
v 26.44161420 -51.58545774 -1.59000000
v 27.74590126 -52.65786962 -3.17750000
v 29.41012555 -52.89535775 -4.76500000
v 27.01634707 -52.21722485 -1.59000000
v 28.56160089 -52.89797634 -3.17750000
v 27.74021600 -52.67050324 -1.59000000
v 29.41183218 -52.90910614 -3.17750000
v 28.55953496 -52.91167534 -1.59000000
v 29.41353881 -52.92285452 -1.59000000
v 30.21747952 -52.65209921 7.93500000
v 30.22283214 -52.66487733 6.34750000
v 30.22818475 -52.67765544 4.76000000
v 30.23353736 -52.69043355 3.17250000
v 30.23888998 -52.70321166 1.58500000
v 29.40671228 -52.86786099 7.93500000
v 28.56779866 -52.85687935 7.93500000
v 29.40841891 -52.88160937 6.34750000
v 27.76295705 -52.61996875 7.93500000
v 28.56573274 -52.87057835 6.34750000
v 27.05187885 -52.17469977 7.93500000
v 29.41012555 -52.89535775 4.76000000
v 27.75727179 -52.63260237 6.34750000
v 26.48730150 -51.55409597 7.93500000
v 28.56366681 -52.88427735 4.76000000
v 27.04299591 -52.18533104 6.34750000
v 26.11109711 -50.80418470 7.93500000
v 29.41183218 -52.90910614 3.17250000
v 27.75158652 -52.64523600 4.76000000
v 26.47587968 -51.56193641 6.34750000
v 25.95116704 -49.98058344 7.93500000
v 28.56160089 -52.89797634 3.17250000
v 27.03411296 -52.19596231 4.76000000
v 26.09798351 -50.80865283 6.34750000
v 26.01937257 -49.14437494 7.93500000
v 29.41353881 -52.92285452 1.58500000
v 27.74590126 -52.65786962 3.17250000
v 26.46445785 -51.56977686 4.76000000
v 25.93733425 -49.98134787 6.34750000
v 26.31065521 -48.35757694 7.93500000
v 28.55953496 -52.91167534 1.58500000
v 27.02523001 -52.20659358 3.17250000
v 26.08486992 -50.81312095 4.76000000
v 26.00584649 -49.14137897 6.34750000
v 26.80341186 -47.67854267 7.93500000
v 27.74021600 -52.67050324 1.58500000
v 26.45303603 -51.57761730 3.17250000
v 25.92350145 -49.98211230 4.76000000
v 26.29843902 -48.35104278 6.34750000
v 27.46109701 -47.15763298 7.93500000
v 27.01634707 -52.21722485 1.58500000
v 26.07175632 -50.81758908 3.17250000
v 25.99232041 -49.13838301 4.76000000
v 26.79341157 -47.66895492 6.34750000
v 28.23493316 -46.83348136 7.93500000
v 26.44161420 -51.58545774 1.58500000
v 25.90966865 -49.98287673 3.17250000
v 26.28622282 -48.34450863 4.76000000
v 27.45405430 -47.14570273 6.34750000
v 29.06752843 -46.73012866 7.93500000
v 26.05864272 -50.82205720 1.58500000
v 25.97879433 -49.13538705 3.17250000
v 26.78341128 -47.65936718 4.76000000
v 28.23137035 -46.82009342 6.34750000
v 29.89713303 -46.85524007 7.93500000
v 25.89583586 -49.98364116 1.58500000
v 26.27400663 -48.33797447 3.17250000
v 27.44701158 -47.13377248 4.76000000
v 29.06770976 -46.71627594 6.34750000
v 30.66221898 -47.19953666 7.93500000
v 25.96526825 -49.13239109 1.58500000
v 26.77341098 -47.64977944 3.17250000
v 28.22780755 -46.80670547 4.76000000
v 29.90104506 -46.84194998 6.34750000
v 31.30604337 -47.73748351 7.93500000
v 26.26179043 -48.33144032 1.58500000
v 27.43996887 -47.12184223 3.17250000
v 29.06789110 -46.70242323 4.76000000
v 30.66957157 -47.18779485 6.34750000
v 31.78085668 -48.42918358 7.93500000
v 26.76341069 -47.64019170 1.58500000
v 28.22424474 -46.79331753 3.17250000
v 29.90495709 -46.82865988 4.76000000
v 31.31629120 -47.72816083 6.34750000
v 32.05144417 -49.22333663 7.93500000
v 27.43292616 -47.10991198 1.58500000
v 29.06807243 -46.68857051 3.17250000
v 30.67692416 -47.17605304 4.76000000
v 31.79323973 -48.42297144 6.34750000
v 32.09773762 -50.06104396 7.93500000
v 28.22068193 -46.77992959 1.58500000
v 29.90886912 -46.81536979 3.17250000
v 31.32653904 -47.71883814 4.76000000
v 32.06504404 -49.22069576 6.34750000
v 31.91630365 -50.88017666 7.93500000
v 29.06825377 -46.67471780 1.58500000
v 30.68427674 -47.16431123 3.17250000
v 31.80562277 -48.41675929 4.76000000
v 32.11154567 -50.06217022 6.34750000
v 31.52059839 -51.61998340 7.93500000
v 29.91278115 -46.80207969 1.58500000
v 31.33678687 -47.70951545 3.17250000
v 32.07864391 -49.21805488 4.76000000
v 31.92929580 -50.88498652 6.34750000
v 30.93996948 -52.22559609 7.93500000
v 30.69162933 -47.15256942 1.58500000
v 31.81800582 -48.41054715 3.17250000
v 32.12535372 -50.06329648 4.76000000
v 31.53181107 -51.62812013 6.34750000
v 31.34703471 -47.70019276 1.58500000
v 32.09224378 -49.21541401 3.17250000
v 31.94228795 -50.88979638 4.76000000
v 30.94857110 -52.23645623 6.34750000
v 31.83038887 -48.40433500 1.58500000
v 32.13916177 -50.06442273 3.17250000
v 31.54302375 -51.63625687 4.76000000
v 32.10584364 -49.21277313 1.58500000
v 31.95528009 -50.89460624 3.17250000
v 30.95717272 -52.24731638 4.76000000
v 32.15296981 -50.06554899 1.58500000
v 31.55423643 -51.64439360 3.17250000
v 31.96827224 -50.89941609 1.58500000
v 30.96577434 -52.25817653 3.17250000
v 31.56544911 -51.65253034 1.58500000
v 30.97437595 -52.26903668 1.58500000
f 75 30 29
f 75 29 74
f 73 29 28
f 73 74 29
f 76 30 75
f 76 31 30
f 72 73 28
f 72 28 27
f 77 31 76
f 77 32 31
f 71 72 27
f 71 27 26
f 78 32 77
f 78 33 32
f 70 71 26
f 70 26 25
f 79 33 78
f 79 34 33
f 79 35 34
f 69 25 24
f 69 70 25
f 80 35 79
f 68 23 22
f 68 24 23
f 68 69 24
f 81 35 80
f 81 36 35
f 67 68 22
f 82 36 81
f 82 37 36
f 66 22 21
f 66 67 22
f 83 38 37
f 83 37 82
f 65 21 20
f 65 66 21
f 84 39 38
f 84 38 83
f 64 20 19
f 64 65 20
f 85 40 39
f 85 39 84
f 18 64 19
f 63 64 18
f 41 40 85
f 41 85 86
f 17 62 63
f 17 63 18
f 87 41 86
f 42 41 87
f 16 61 62
f 16 62 17
f 43 87 88
f 43 42 87
f 15 61 16
f 15 59 60
f 15 60 61
f 44 43 88
f 44 88 89
f 44 89 90
f 14 59 15
f 45 44 90
f 13 59 14
f 13 58 59
f 1 45 90
f 1 90 46
f 12 58 13
f 12 56 57
f 12 57 58
f 2 1 46
f 2 46 47
f 11 56 12
f 3 2 47
f 3 47 48
f 3 48 49
f 10 56 11
f 10 55 56
f 4 3 49
f 9 53 54
f 9 54 55
f 9 55 10
f 5 49 50
f 5 4 49
f 8 53 9
f 6 50 51
f 6 5 50
f 7 51 52
f 7 52 53
f 7 53 8
f 7 6 51
f 165 119 120
f 165 164 119
f 163 118 119
f 163 119 164
f 166 165 120
f 166 120 121
f 162 118 163
f 162 117 118
f 167 166 121
f 167 121 122
f 161 117 162
f 161 116 117
f 168 167 122
f 168 122 123
f 160 116 161
f 160 115 116
f 169 168 123
f 169 123 124
f 169 124 125
f 159 114 115
f 159 115 160
f 170 169 125
f 158 112 113
f 158 113 114
f 158 114 159
f 171 170 125
f 171 125 126
f 157 112 158
f 172 171 126
f 172 126 127
f 156 111 112
f 156 112 157
f 173 127 128
f 173 172 127
f 155 110 111
f 155 111 156
f 174 128 129
f 174 173 128
f 154 109 110
f 154 110 155
f 175 129 130
f 175 174 129
f 108 109 154
f 153 108 154
f 131 175 130
f 131 176 175
f 107 153 152
f 107 108 153
f 177 176 131
f 132 177 131
f 106 152 151
f 106 107 152
f 133 178 177
f 133 177 132
f 105 106 151
f 105 150 149
f 105 151 150
f 134 178 133
f 134 179 178
f 134 180 179
f 104 105 149
f 135 180 134
f 103 104 149
f 103 149 148
f 91 180 135
f 91 136 180
f 102 103 148
f 102 147 146
f 102 148 147
f 92 136 91
f 92 137 136
f 101 102 146
f 93 137 92
f 93 138 137
f 93 139 138
f 100 101 146
f 100 146 145
f 94 139 93
f 99 144 143
f 99 145 144
f 99 100 145
f 95 140 139
f 95 139 94
f 98 99 143
f 96 141 140
f 96 140 95
f 97 142 141
f 97 143 142
f 97 98 143
f 97 141 96
f 226 91 135
f 225 181 230
f 226 92 91
f 181 182 230
f 231 226 135
f 231 134 133
f 231 135 134
f 232 231 133
f 232 132 131
f 232 133 132
f 233 226 231
f 233 227 226
f 234 232 131
f 234 130 129
f 234 131 130
f 235 232 234
f 235 233 231
f 235 231 232
f 236 234 129
f 236 128 127
f 236 129 128
f 237 227 233
f 237 228 227
f 237 229 228
f 238 235 234
f 239 236 127
f 239 126 125
f 239 127 126
f 240 233 235
f 240 237 233
f 241 238 234
f 241 234 236
f 242 239 125
f 242 124 123
f 242 125 124
f 243 229 237
f 243 230 229
f 244 235 238
f 244 240 235
f 245 236 239
f 245 241 236
f 246 242 123
f 246 122 121
f 246 123 122
f 247 237 240
f 247 243 237
f 247 240 244
f 248 241 245
f 248 244 238
f 248 238 241
f 249 245 239
f 249 239 242
f 250 246 121
f 250 120 119
f 250 121 120
f 251 223 224
f 251 224 225
f 251 225 230
f 251 230 243
f 252 247 244
f 253 245 249
f 253 248 245
f 254 242 246
f 254 249 242
f 255 250 119
f 255 118 117
f 255 119 118
f 256 243 247
f 256 223 251
f 256 221 222
f 256 251 243
f 256 222 223
f 257 244 248
f 257 248 253
f 257 252 244
f 258 253 249
f 259 250 255
f 259 254 246
f 259 246 250
f 260 116 115
f 260 117 116
f 260 255 117
f 261 252 257
f 261 219 220
f 261 220 221
f 261 247 252
f 261 221 256
f 261 256 247
f 262 257 253
f 263 258 249
f 263 249 254
f 264 259 255
f 265 260 115
f 265 114 113
f 265 115 114
f 266 219 261
f 266 217 218
f 266 218 219
f 266 261 257
f 267 253 258
f 267 262 253
f 268 254 259
f 268 263 254
f 269 255 260
f 269 264 255
f 270 265 113
f 270 113 112
f 271 217 266
f 271 215 216
f 271 216 217
f 271 266 257
f 271 257 262
f 272 267 258
f 272 258 263
f 273 259 264
f 273 268 259
f 274 269 260
f 274 260 265
f 275 270 112
f 275 111 110
f 275 112 111
f 276 271 262
f 276 215 271
f 276 213 214
f 276 214 215
f 276 262 267
f 277 272 263
f 277 263 268
f 278 273 264
f 278 269 274
f 278 264 269
f 279 265 270
f 279 274 265
f 279 270 275
f 280 275 110
f 280 109 108
f 280 110 109
f 281 267 272
f 281 276 267
f 281 211 212
f 281 212 213
f 281 213 276
f 282 277 268
f 282 273 278
f 282 268 273
f 283 278 274
f 284 279 275
f 285 280 108
f 285 107 106
f 285 108 107
f 286 272 277
f 286 209 210
f 286 210 211
f 286 281 272
f 286 277 282
f 286 211 281
f 287 282 278
f 288 274 279
f 288 283 274
f 289 284 275
f 289 275 280
f 290 105 104
f 290 106 105
f 290 285 106
f 291 207 208
f 291 208 209
f 291 286 282
f 291 209 286
f 292 278 283
f 292 287 278
f 292 283 288
f 293 279 284
f 293 288 279
f 294 285 290
f 294 289 280
f 294 280 285
f 295 103 102
f 295 104 103
f 295 290 104
f 296 205 206
f 296 206 207
f 296 207 291
f 296 282 287
f 296 291 282
f 297 292 288
f 298 284 289
f 298 293 284
f 299 294 290
f 300 101 100
f 300 102 101
f 300 295 102
f 301 203 204
f 301 204 205
f 301 205 296
f 301 287 292
f 301 296 287
f 302 297 288
f 302 288 293
f 303 289 294
f 303 298 289
f 304 295 300
f 304 299 290
f 304 290 295
f 305 99 98
f 305 100 99
f 305 300 100
f 306 301 292
f 306 202 203
f 306 203 301
f 306 292 297
f 307 293 298
f 307 302 293
f 308 299 304
f 308 303 294
f 308 294 299
f 309 304 300
f 310 305 98
f 310 97 96
f 310 98 97
f 311 297 302
f 311 306 297
f 311 200 201
f 311 201 202
f 311 202 306
f 312 298 303
f 312 307 298
f 312 303 308
f 313 308 304
f 314 300 305
f 314 309 300
f 315 310 96
f 315 95 94
f 315 96 95
f 316 198 199
f 316 199 200
f 316 302 307
f 316 311 302
f 316 200 311
f 317 312 308
f 318 313 304
f 318 304 309
f 318 309 314
f 319 305 310
f 319 314 305
f 320 315 94
f 320 93 92
f 320 94 93
f 320 92 226
f 321 196 197
f 321 197 198
f 321 198 316
f 321 307 312
f 321 316 307
f 321 312 317
f 322 317 308
f 322 308 313
f 323 318 314
f 324 310 315
f 324 319 310
f 325 194 195
f 325 195 196
f 325 196 321
f 325 321 317
f 326 322 313
f 326 313 318
f 327 314 319
f 327 323 314
f 328 315 320
f 328 324 315
f 328 320 226
f 328 226 227
f 329 192 193
f 329 193 194
f 329 194 325
f 329 317 322
f 329 325 317
f 330 318 323
f 330 326 318
f 331 319 324
f 331 327 319
f 332 190 191
f 332 191 192
f 332 192 329
f 332 322 326
f 332 329 322
f 333 323 327
f 333 330 323
f 334 324 328
f 334 331 324
f 334 328 227
f 334 227 228
f 334 228 229
f 335 332 326
f 335 188 189
f 335 189 190
f 335 190 332
f 335 326 330
f 336 333 327
f 336 327 331
f 337 186 187
f 337 187 188
f 337 335 330
f 337 330 333
f 337 188 335
f 338 229 230
f 338 336 331
f 338 334 229
f 338 331 334
f 339 184 185
f 339 185 186
f 339 337 333
f 339 186 337
f 339 333 336
f 340 182 183
f 340 183 184
f 340 230 182
f 340 184 339
f 340 336 338
f 340 339 336
f 340 338 230
f 341 1 2
f 182 181 345
f 341 45 1
f 181 225 345
f 346 341 2
f 346 2 3
f 346 3 4
f 347 4 5
f 347 5 6
f 347 346 4
f 348 342 341
f 348 341 346
f 349 347 6
f 349 6 7
f 349 7 8
f 350 346 347
f 350 348 346
f 351 349 8
f 351 8 9
f 351 9 10
f 352 343 342
f 352 342 348
f 353 347 349
f 353 350 347
f 354 351 10
f 354 10 11
f 354 11 12
f 355 348 350
f 355 352 348
f 356 353 349
f 356 349 351
f 357 12 13
f 357 13 14
f 357 354 12
f 358 344 343
f 358 343 352
f 359 350 353
f 359 355 350
f 360 351 354
f 360 356 351
f 361 357 14
f 361 14 15
f 361 15 16
f 362 352 355
f 362 358 352
f 363 353 356
f 363 356 360
f 363 359 353
f 364 354 357
f 364 357 361
f 364 360 354
f 365 361 16
f 365 16 17
f 365 17 18
f 366 183 182
f 366 184 183
f 366 344 358
f 366 345 344
f 366 182 345
f 366 358 362
f 367 362 355
f 367 355 359
f 368 363 360
f 369 364 361
f 369 361 365
f 370 18 19
f 370 19 20
f 370 365 18
f 371 185 184
f 371 186 185
f 371 366 362
f 371 184 366
f 372 367 359
f 372 359 363
f 373 368 360
f 373 364 369
f 373 360 364
f 374 369 365
f 375 370 20
f 375 20 21
f 375 21 22
f 376 187 186
f 376 188 187
f 376 362 367
f 376 371 362
f 376 367 372
f 376 186 371
f 377 363 368
f 377 372 363
f 378 373 369
f 379 365 370
f 379 374 365
f 380 375 22
f 380 22 23
f 381 189 188
f 381 190 189
f 381 376 372
f 381 188 376
f 382 368 373
f 382 377 368
f 383 369 374
f 383 374 379
f 383 378 369
f 384 379 370
f 384 370 375
f 384 375 380
f 385 380 23
f 385 23 24
f 385 24 25
f 386 377 382
f 386 191 190
f 386 192 191
f 386 381 372
f 386 372 377
f 386 190 381
f 387 373 378
f 387 382 373
f 388 379 384
f 388 383 379
f 389 380 385
f 389 384 380
f 390 385 25
f 390 25 26
f 390 26 27
f 391 382 387
f 391 386 382
f 391 193 192
f 391 194 193
f 391 192 386
f 392 378 383
f 392 383 388
f 392 387 378
f 393 388 384
f 394 389 385
f 395 27 28
f 395 28 29
f 395 390 27
f 396 391 387
f 396 195 194
f 396 196 195
f 396 194 391
f 397 392 388
f 398 384 389
f 398 393 384
f 399 394 385
f 399 385 390
f 400 395 29
f 400 29 30
f 400 30 31
f 401 387 392
f 401 197 196
f 401 198 197
f 401 396 387
f 401 392 397
f 401 196 396
f 402 388 393
f 402 397 388
f 403 398 389
f 403 389 394
f 403 394 399
f 404 390 395
f 404 395 400
f 404 399 390
f 405 31 32
f 405 400 31
f 405 32 33
f 406 199 198
f 406 200 199
f 406 198 401
f 406 401 397
f 406 397 402
f 407 393 398
f 407 402 393
f 408 403 399
f 409 400 405
f 409 404 400
f 410 33 34
f 410 34 35
f 410 405 33
f 411 201 200
f 411 202 201
f 411 200 406
f 411 406 402
f 412 398 403
f 412 407 398
f 413 399 404
f 413 408 399
f 414 409 405
f 415 410 35
f 415 35 36
f 415 36 37
f 416 203 202
f 416 202 411
f 416 402 407
f 416 411 402
f 417 408 413
f 417 412 403
f 417 403 408
f 418 404 409
f 418 413 404
f 419 414 405
f 419 405 410
f 420 415 37
f 420 37 38
f 420 38 39
f 421 416 407
f 421 204 203
f 421 205 204
f 421 412 417
f 421 203 416
f 421 407 412
f 422 417 413
f 423 418 409
f 423 414 419
f 423 409 414
f 424 419 410
f 424 410 415
f 425 420 39
f 425 39 40
f 425 40 41
f 426 417 422
f 426 421 417
f 426 206 205
f 426 207 206
f 426 205 421
f 427 413 418
f 427 422 413
f 428 423 419
f 429 424 415
f 429 415 420
f 430 425 41
f 430 41 42
f 430 42 43
f 431 426 422
f 431 208 207
f 431 209 208
f 431 207 426
f 432 418 423
f 432 427 418
f 433 428 419
f 433 424 429
f 433 419 424
f 434 429 420
f 434 425 430
f 434 420 425
f 435 430 43
f 435 45 341
f 435 43 44
f 435 44 45
f 436 431 422
f 436 210 209
f 436 211 210
f 436 209 431
f 436 422 427
f 437 423 428
f 437 432 423
f 438 433 429
f 439 434 430
f 440 212 211
f 440 213 212
f 440 211 436
f 440 427 432
f 440 436 427
f 440 432 437
f 441 437 428
f 441 428 433
f 442 429 434
f 442 438 429
f 442 434 439
f 443 439 430
f 443 435 341
f 443 430 435
f 443 341 342
f 444 214 213
f 444 215 214
f 444 213 440
f 444 440 437
f 444 437 441
f 445 433 438
f 445 441 433
f 446 442 439
f 447 216 215
f 447 217 216
f 447 215 444
f 447 444 441
f 448 438 442
f 448 445 438
f 449 439 443
f 449 446 439
f 449 443 342
f 449 342 343
f 449 343 344
f 450 447 441
f 450 217 447
f 450 218 217
f 450 219 218
f 450 441 445
f 451 442 446
f 451 448 442
f 452 219 450
f 452 450 445
f 452 220 219
f 452 221 220
f 452 445 448
f 453 449 344
f 453 451 446
f 453 446 449
f 454 448 451
f 454 221 452
f 454 451 453
f 454 222 221
f 454 223 222
f 454 452 448
f 455 344 345
f 455 345 225
f 455 454 453
f 455 223 454
f 455 224 223
f 455 225 224
f 455 453 344
f 90 136 46
f 90 180 136
f 89 180 90
f 89 179 180
f 88 179 89
f 88 178 179
f 87 178 88
f 87 177 178
f 86 177 87
f 86 176 177
f 85 176 86
f 85 175 176
f 84 175 85
f 84 174 175
f 83 174 84
f 83 173 174
f 82 173 83
f 82 172 173
f 81 172 82
f 81 171 172
f 80 171 81
f 80 170 171
f 79 170 80
f 79 169 170
f 78 169 79
f 78 168 169
f 77 168 78
f 77 167 168
f 76 167 77
f 76 166 167
f 75 166 76
f 75 165 166
f 74 165 75
f 74 164 165
f 73 164 74
f 73 163 164
f 72 162 163
f 72 163 73
f 71 161 162
f 71 162 72
f 70 159 160
f 70 160 161
f 70 161 71
f 69 159 70
f 68 158 159
f 68 159 69
f 67 157 158
f 67 158 68
f 66 156 157
f 66 157 67
f 65 156 66
f 65 155 156
f 64 155 65
f 64 154 155
f 63 154 64
f 63 153 154
f 62 153 63
f 62 152 153
f 61 152 62
f 61 151 152
f 60 151 61
f 60 149 150
f 60 150 151
f 59 149 60
f 59 148 149
f 58 148 59
f 57 148 58
f 57 147 148
f 56 147 57
f 56 146 147
f 55 146 56
f 55 145 146
f 54 145 55
f 54 143 144
f 54 144 145
f 53 143 54
f 52 143 53
f 52 141 142
f 52 142 143
f 51 141 52
f 50 140 141
f 50 141 51
f 49 139 140
f 49 140 50
f 48 138 139
f 48 139 49
f 47 137 138
f 47 138 48
f 46 136 137
f 46 137 47

