# https://github.com/mikedh/trimesh
v -19.35000000 64.10981462 33.85832199
v -19.34404248 64.10981462 33.91781165
v -19.32640653 64.10981462 33.97493858
v -19.29779260 64.10981462 34.02743387
v -19.25933714 64.10981462 34.07321257
v -19.21256747 64.10981462 34.11045651
v -19.15934115 64.10981462 34.13768647
v -19.10177214 64.10981462 34.15382096
v -19.04214692 64.10981462 34.15821919
v -19.04214692 69.85000000 34.15821919
v -19.10177214 69.85000000 34.15382096
v -19.15934115 69.85000000 34.13768647
v -19.21256747 69.85000000 34.11045651
v -19.25933714 69.85000000 34.07321257
v -19.29779260 69.85000000 34.02743387
v -19.32640653 69.85000000 33.97493858
v -19.34404248 69.85000000 33.91781165
v -19.23176014 71.01734240 34.04370930
v -19.34841614 70.94136740 33.82565127
v -19.28761312 74.92830027 32.70263035
v -19.35000000 63.75993456 33.76457191
v -19.34404248 63.73018973 33.81609147
v -19.32640653 63.70162626 33.86556484
v -19.29779260 63.67537862 33.91102709
v -19.25933714 63.65248927 33.95067261
v -19.21256747 63.63386730 33.98292681
v -19.15934115 63.62025232 34.00650864
v -19.04214692 63.60998596 34.02429050
v -19.04194439 63.98299170 34.15003092
v -19.04187189 63.85822112 34.12583273
v -19.04192941 63.73747678 34.08615352
v -19.04201795 63.67262743 34.05750071
v -19.32294039 63.89159911 33.97924621
v -19.14456594 63.80934982 34.10423616
v -19.34404248 44.91181324 22.95129674
v -19.32640653 44.88324978 23.00077011
v -19.29779260 44.85700214 23.04623236
v -19.25933714 44.83411278 23.08587788
v -19.21256747 44.81549082 23.11813208
v -19.15934115 44.80187584 23.14171392
v -19.10177214 44.79380859 23.15568680
v -19.04214692 44.79160948 23.15949577
v -19.34404248 44.53218835 22.29376713
v -19.32640653 44.47506142 22.29376713
v -19.29779260 44.42256613 22.29376713
v -19.21256747 44.33954349 22.29376713
v -19.15934115 44.31231353 22.29376713
v -19.10177214 44.29617904 22.29376713
v -19.04214692 44.29178081 22.29376713
v -19.04164055 44.68626319 23.08874607
v -19.04127425 44.59117987 23.00487097
v -19.04104801 44.50736030 22.90960392
v -19.04096184 44.43580530 22.80467835
v -19.04101574 44.37751566 22.69182770
v -19.04120969 44.33349218 22.57278541
v -19.04154372 44.30473567 22.44928492
v -19.04181881 44.29506301 22.37183986
v -19.21200890 44.43162208 22.78096062
v -19.35000000 44.59167801 -22.29376713
v -19.34404248 44.53218835 -22.29376713
v -19.32640653 44.47506142 -22.29376713
v -19.25933714 44.37678743 -22.29376713
v -19.21256747 44.33954349 -22.29376713
v -19.15934115 44.31231353 -22.29376713
v -19.04214692 44.29178081 -22.29376713
v -19.35000000 44.94155808 -22.89977718
v -19.34404248 44.91181324 -22.95129674
v -19.32640653 44.88324978 -23.00077011
v -19.29779260 44.85700214 -23.04623236
v -19.25933714 44.83411278 -23.08587788
v -19.21256747 44.81549082 -23.11813208
v -19.15934115 44.80187584 -23.14171392
v -19.10177214 44.79380859 -23.15568680
v -19.04214692 44.79160948 -23.15949577
v -19.04164055 44.30037871 -22.42037454
v -19.04127425 44.32547501 -22.54465667
v -19.04104801 44.36606892 -22.66488007
v -19.04096184 44.42115963 -22.77931130
v -19.04101574 44.48974634 -22.88621694
v -19.04120969 44.57082824 -22.98386353
v -19.04154372 44.66340455 -23.07051764
v -19.04181881 44.72563761 -23.11761694
v -19.24199006 44.45057098 -22.74748785
v -19.14125095 44.32521750 -22.52701550
v -19.33820124 44.59268305 -22.69306950
v -19.35000000 63.75993456 -33.76457191
v -19.34404248 63.73018973 -33.81609147
v -19.32640653 63.70162626 -33.86556484
v -19.29779260 63.67537862 -33.91102709
v -19.25933714 63.65248927 -33.95067261
v -19.21256747 63.63386730 -33.98292681
v -19.15934115 63.62025232 -34.00650864
v -19.10177214 63.61218507 -34.02048153
v -19.04214692 63.60998596 -34.02429050
v -19.34404248 64.10981462 -33.91781165
v -19.32640653 64.10981462 -33.97493858
v -19.29779260 64.10981462 -34.02743387
v -19.25933714 64.10981462 -34.07321257
v -19.21256747 64.10981462 -34.11045651
v -19.15934115 64.10981462 -34.13768647
v -19.04214692 64.10981462 -34.15821919
v -19.04194439 63.72391197 -34.08061071
v -19.04187189 63.84406555 -34.12203976
v -19.04192941 63.96847282 -34.14804873
v -19.04201795 64.03896041 -34.15565933
v -19.35023415 63.95435205 -33.83876449
v -19.30637595 63.88369383 -33.99815805
v -19.14456595 63.89718759 -34.12777222
v -19.35000000 69.85000000 -33.85832199
v -19.34404248 69.85000000 -33.91781165
v -19.32640653 69.85000000 -33.97493858
v -19.29779260 69.85000000 -34.02743387
v -19.25933714 69.85000000 -34.07321257
v -19.21256747 69.85000000 -34.11045651
v -19.10177214 69.85000000 -34.15382096
v -19.04214692 69.85000000 -34.15821919
v -19.26476550 75.42550712 -32.50074018
v -19.33271001 71.03812221 -33.90295870
v -19.34852475 70.96312449 -17.27513008
v -19.14685980 70.89885191 -34.08845973
v -13.29214692 64.15015948 34.00765014
v -13.23474866 64.15015948 34.00057074
v -13.17977535 64.15015948 33.98260933
v -13.12926996 64.15015948 33.95443340
v -13.08510942 64.15015948 33.91709008
v -13.04893487 64.15015948 33.87196714
v -13.02209068 64.15015948 33.82074149
v -13.00557446 64.15015948 33.76531684
v -13.00015702 63.82064978 33.65185197
v -13.00000000 69.85000000 33.70775294
v -13.00557446 69.85000000 33.76531684
v -13.02209068 69.85000000 33.82074149
v -13.04893487 69.85000000 33.87196714
v -13.08510942 69.85000000 33.91709008
v -13.12926996 69.85000000 33.95443340
v -13.17977535 69.85000000 33.98260933
v -13.23474866 69.85000000 34.00057074
v -13.29214692 69.85000000 34.00765014
v -13.05960473 70.98228882 33.86142798
v -12.39002334 79.92805949 25.82902852
v -13.29214692 63.65033081 33.87372145
v -13.23474866 63.65387051 33.86759051
v -13.17977535 63.66285122 33.85203547
v -13.12926996 63.67693918 33.82763441
v -13.08510942 63.69561084 33.79529414
v -13.04893487 63.71817231 33.75621652
v -13.02209068 63.74378514 33.71185381
v -13.29194439 63.76425682 33.93004166
v -13.29187189 63.88441041 33.97147071
v -13.29192941 64.00881768 33.99747968
v -13.29201795 64.07930526 34.00509028
v -13.07528757 63.92040181 33.90589919
v -13.29214692 44.94217853 23.07256469
v -13.23474866 44.94571823 23.06643375
v -13.17977535 44.95469893 23.05087871
v -13.12926996 44.96878689 23.02647765
v -13.08510942 44.98745856 22.99413738
v -13.04893487 45.01002003 22.95505976
v -13.00557446 45.06334517 22.86269790
v -13.00257240 44.72879564 22.48100507
v -13.29214692 44.44234986 22.20683605
v -13.23474866 44.44942926 22.20683605
v -13.17977535 44.46739067 22.20683605
v -13.12926996 44.49556660 22.20683605
v -13.08510942 44.53290992 22.20683605
v -13.04893487 44.57803286 22.20683605
v -13.02209068 44.62925851 22.20683605
v -13.00557446 44.68468316 22.20683605
v -13.29164055 44.45094776 22.33344346
v -13.29127425 44.47604406 22.45772559
v -13.29104801 44.51663797 22.57794899
v -13.29096184 44.57172868 22.69238022
v -13.29101574 44.64031538 22.79928586
v -13.29120969 44.72139729 22.89693245
v -13.29154372 44.81397360 22.98358656
v -13.29181881 44.87620666 23.03068586
v -13.14013266 44.58468590 22.69475874
v -13.02225348 44.87307377 22.79075295
v -13.29214692 44.44234986 -22.20683605
v -13.23474866 44.44942926 -22.20683605
v -13.17977535 44.46739067 -22.20683605
v -13.12926996 44.49556660 -22.20683605
v -13.08510942 44.53290992 -22.20683605
v -13.04893487 44.57803286 -22.20683605
v -13.02209068 44.62925851 -22.20683605
v -13.00557446 44.68468316 -22.20683605
v -13.00000000 44.74224706 -22.20683605
v -13.29214692 44.94217853 -23.07256469
v -13.23474866 44.94571823 -23.06643375
v -13.17977535 44.95469893 -23.05087871
v -13.12926996 44.96878689 -23.02647765
v -13.08510942 44.98745856 -22.99413738
v -13.04893487 45.01002003 -22.95505976
v -13.02209068 45.03563285 -22.91069705
v -13.00000000 45.09212713 -22.81284610
v -13.00565230 44.85335377 -22.70451970
v -13.29164055 44.83683224 -23.00181499
v -13.29127425 44.74174892 -22.91793989
v -13.29104801 44.65792935 -22.82267284
v -13.29096184 44.58637435 -22.71774727
v -13.29101574 44.52808470 -22.60489662
v -13.29120969 44.48406123 -22.48585433
v -13.29154372 44.45530472 -22.36235384
v -13.29181881 44.44563206 -22.28490878
v -13.09811676 44.60973969 -22.68993009
v -13.29214692 63.65033081 -33.87372145
v -13.23474866 63.65387051 -33.86759051
v -13.17977535 63.66285122 -33.85203547
v -13.12926996 63.67693918 -33.82763441
v -13.08510942 63.69561084 -33.79529414
v -13.04893487 63.71817231 -33.75621652
v -13.02209068 63.74378514 -33.71185381
v -13.00557446 63.77149746 -33.66385466
v -13.00000000 63.80027941 -33.61400286
v -13.29214692 64.15015948 -34.00765014
v -13.23474866 64.15015948 -34.00057074
v -13.17977535 64.15015948 -33.98260933
v -13.08510942 64.15015948 -33.91709008
v -13.04893487 64.15015948 -33.87196714
v -13.00557446 64.15015948 -33.76531684
v -13.00000000 64.15015948 -33.70775294
v -13.01237968 63.97694148 -33.78346129
v -13.29194439 64.02333655 -33.99946187
v -13.29187189 63.89856597 -33.97526368
v -13.29192941 63.77782163 -33.93558447
v -13.29201795 63.71297229 -33.90693166
v -13.13350903 63.91085928 -33.93885096
v -13.29214692 69.85000000 -34.00765014
v -13.23474866 69.85000000 -34.00057074
v -13.17977535 69.85000000 -33.98260933
v -13.12926996 69.85000000 -33.95443340
v -13.08510942 69.85000000 -33.91709008
v -13.04893487 69.85000000 -33.87196714
v -13.02209068 69.85000000 -33.82074149
v -13.00557446 69.85000000 -33.76531684
v -13.16349580 70.99264919 -33.90875644
v -13.03677812 75.31262412 -32.27923675
v -13.00515364 70.96923547 -33.71559042
v -19.35653067 55.55697108 -26.44642196
v -15.77609311 78.10940690 -24.02398755
v -17.97390935 78.33688372 26.52754333
v -19.42741122 44.83368672 22.54593283
f 140 160 187
f 140 20 139
f 20 18 139
f 19 18 20
f 242 1 19
f 236 117 237
f 188 74 206
f 44 58 242
f 241 20 140
f 241 117 20
f 52 51 58
f 52 174 51
f 18 19 16
f 21 1 242
f 242 22 21
f 21 22 1
f 35 22 242
f 1 22 2
f 25 34 33
f 33 2 22
f 196 187 186
f 140 214 221
f 94 206 74
f 43 44 242
f 20 117 119
f 119 19 20
f 242 19 119
f 240 241 140
f 117 241 240
f 140 237 240
f 237 117 240
f 140 139 131
f 131 130 140
f 138 139 18
f 58 51 40
f 51 50 40
f 159 160 140
f 140 129 159
f 26 34 25
f 27 34 26
f 26 40 27
f 25 38 26
f 7 34 8
f 9 8 29
f 8 34 29
f 17 16 19
f 17 19 1
f 1 2 17
f 24 38 25
f 25 33 24
f 4 33 5
f 85 59 66
f 66 59 242
f 242 239 66
f 201 205 202
f 201 200 205
f 72 73 81
f 178 177 160
f 160 159 178
f 178 159 158
f 174 52 173
f 173 177 174
f 202 205 203
f 205 181 203
f 187 196 195
f 140 187 195
f 195 214 140
f 194 195 196
f 58 46 47
f 58 44 45
f 45 46 58
f 106 239 242
f 86 66 106
f 106 66 239
f 242 119 109
f 109 106 242
f 130 131 128
f 128 129 140
f 140 130 128
f 41 50 42
f 41 40 50
f 42 28 41
f 41 28 27
f 27 40 41
f 10 138 18
f 39 26 38
f 40 26 39
f 39 38 58
f 58 40 39
f 34 7 6
f 5 33 6
f 6 33 34
f 242 58 36
f 36 35 242
f 33 4 3
f 2 33 3
f 18 16 15
f 15 14 18
f 67 66 86
f 67 68 85
f 85 66 67
f 69 89 70
f 85 68 69
f 72 71 91
f 91 71 70
f 82 73 74
f 82 81 73
f 197 81 82
f 82 74 188
f 188 197 82
f 198 81 197
f 200 201 78
f 72 81 80
f 81 198 80
f 177 156 155
f 157 156 177
f 157 178 158
f 177 178 157
f 157 145 156
f 56 47 48
f 56 55 58
f 58 47 56
f 55 56 170
f 58 55 54
f 185 184 205
f 185 196 186
f 205 196 185
f 205 184 183
f 234 220 222
f 103 104 224
f 218 227 217
f 61 45 44
f 106 109 95
f 118 119 117
f 118 109 119
f 115 116 101
f 111 118 112
f 132 131 139
f 139 133 132
f 124 123 152
f 32 31 34
f 32 34 27
f 27 28 32
f 30 29 34
f 34 31 30
f 23 24 33
f 23 33 22
f 22 35 23
f 35 36 23
f 38 24 37
f 58 38 37
f 37 36 58
f 68 67 88
f 93 73 72
f 93 102 94
f 70 89 90
f 90 91 70
f 202 203 76
f 203 75 76
f 200 78 79
f 174 177 175
f 177 155 175
f 51 174 175
f 175 50 51
f 57 56 48
f 169 170 56
f 169 57 161
f 56 57 169
f 53 52 58
f 58 54 53
f 53 173 52
f 172 53 54
f 177 173 172
f 173 53 172
f 55 170 171
f 171 54 55
f 171 172 54
f 171 170 177
f 177 172 171
f 65 75 204
f 204 179 65
f 204 75 203
f 182 181 205
f 205 183 182
f 186 187 168
f 168 187 160
f 101 215 105
f 108 104 103
f 103 102 108
f 102 93 108
f 108 105 104
f 238 236 237
f 238 237 140
f 238 232 236
f 140 221 238
f 219 234 222
f 222 227 219
f 219 227 218
f 211 212 194
f 222 212 211
f 211 227 222
f 210 227 211
f 213 212 222
f 222 220 213
f 194 212 213
f 213 221 214
f 213 220 221
f 214 195 213
f 195 194 213
f 205 198 190
f 190 191 205
f 190 198 197
f 209 227 210
f 209 208 227
f 210 191 209
f 206 94 226
f 94 102 226
f 225 102 103
f 103 224 225
f 225 226 102
f 225 224 227
f 227 224 223
f 223 224 104
f 223 105 215
f 104 105 223
f 236 230 229
f 229 228 236
f 60 43 242
f 242 59 60
f 60 59 85
f 85 61 60
f 84 76 75
f 46 45 62
f 45 61 62
f 110 95 109
f 110 118 111
f 109 118 110
f 120 115 114
f 116 115 120
f 120 228 116
f 236 228 120
f 117 236 120
f 120 118 117
f 113 112 118
f 113 120 114
f 118 120 113
f 126 152 127
f 133 152 126
f 124 152 125
f 127 152 147
f 147 128 127
f 129 128 147
f 147 159 129
f 158 159 147
f 141 32 28
f 141 28 42
f 139 138 137
f 137 136 139
f 134 133 139
f 134 152 133
f 134 125 152
f 18 14 13
f 13 12 18
f 11 10 18
f 18 12 11
f 87 67 86
f 87 88 67
f 86 106 87
f 106 95 87
f 89 88 107
f 107 90 89
f 107 96 97
f 88 87 107
f 91 90 107
f 107 108 91
f 95 96 107
f 107 87 95
f 72 91 92
f 92 93 72
f 91 108 92
f 92 108 93
f 199 80 198
f 199 79 80
f 200 79 199
f 205 200 199
f 199 198 205
f 42 50 176
f 50 175 176
f 161 57 49
f 48 65 49
f 49 57 48
f 179 204 180
f 180 203 181
f 180 204 203
f 167 168 160
f 101 105 100
f 105 108 100
f 100 115 101
f 114 115 100
f 231 217 230
f 218 217 231
f 231 232 218
f 231 230 236
f 236 232 231
f 233 238 234
f 232 238 233
f 234 219 233
f 221 220 235
f 235 238 221
f 220 234 235
f 234 238 235
f 193 211 194
f 193 196 205
f 193 194 196
f 189 197 188
f 189 190 197
f 226 225 207
f 206 226 207
f 227 208 207
f 207 225 227
f 208 190 207
f 190 189 207
f 216 223 215
f 216 217 227
f 227 223 216
f 76 84 77
f 77 78 201
f 77 201 202
f 202 76 77
f 46 62 63
f 63 62 84
f 84 62 83
f 83 61 85
f 83 62 61
f 83 79 78
f 70 71 83
f 80 79 83
f 78 77 83
f 83 77 84
f 85 69 83
f 83 69 70
f 83 71 72
f 72 80 83
f 146 152 145
f 146 147 152
f 158 147 146
f 29 30 150
f 123 122 150
f 150 152 123
f 139 136 135
f 135 134 139
f 154 175 155
f 154 176 175
f 162 169 161
f 108 107 99
f 99 100 108
f 114 100 99
f 192 191 210
f 205 191 192
f 192 193 205
f 64 65 48
f 48 47 64
f 64 63 84
f 64 75 65
f 64 84 75
f 29 150 151
f 151 121 9
f 9 29 151
f 151 122 121
f 151 150 122
f 149 30 31
f 149 150 30
f 152 150 149
f 145 152 144
f 152 143 144
f 156 145 144
f 176 154 153
f 153 141 42
f 42 176 153
f 166 167 160
f 160 177 166
f 177 165 166
f 164 165 177
f 98 107 97
f 98 99 107
f 148 149 31
f 31 32 148
f 32 141 148
f 148 143 152
f 152 149 148
f 163 164 177
f 169 162 163
f 177 170 163
f 170 169 163
f 142 148 141
f 143 148 142
f 155 143 142
f 142 154 155
f 121 138 10
f 9 121 10
f 3 17 2
f 16 17 3
f 16 3 15
f 15 3 4
f 5 14 15
f 15 4 5
f 101 116 228
f 228 215 101
f 132 128 131
f 127 128 132
f 37 23 36
f 24 23 37
f 89 69 88
f 88 69 68
f 74 73 93
f 93 94 74
f 209 190 208
f 191 190 209
f 60 61 44
f 44 43 60
f 96 112 97
f 111 112 96
f 111 96 110
f 110 96 95
f 127 132 126
f 126 132 133
f 137 138 121
f 121 122 137
f 137 122 123
f 123 136 137
f 13 14 5
f 5 6 13
f 13 6 7
f 7 12 13
f 9 10 11
f 11 8 9
f 11 12 7
f 11 7 8
f 49 179 161
f 65 179 49
f 186 168 167
f 167 185 186
f 233 219 218
f 218 232 233
f 207 189 188
f 188 206 207
f 215 228 216
f 228 229 216
f 230 217 216
f 216 229 230
f 145 157 146
f 146 157 158
f 135 136 123
f 135 123 124
f 124 125 135
f 125 134 135
f 161 179 162
f 179 180 162
f 211 193 192
f 210 211 192
f 46 63 64
f 64 47 46
f 144 143 155
f 144 155 156
f 185 167 166
f 184 185 166
f 166 183 184
f 166 165 183
f 183 165 164
f 164 182 183
f 97 112 98
f 112 113 98
f 98 113 114
f 114 99 98
f 163 162 180
f 163 180 181
f 182 164 163
f 181 182 163
f 142 153 154
f 141 153 142

