# https://github.com/mikedh/trimesh

o p00014.obj
v 6.35000000 0.00000000 -1.58750000
v 6.28820224 0.88374919 -1.58750000
v 6.10401177 1.75029721 -1.58750000
v 5.80101366 2.58277768 -1.58750000
v 5.38510541 3.36498733 -1.58750000
v 4.86438221 4.08170132 -1.58750000
v 4.24897935 4.71896964 -1.58750000
v 3.55087494 5.26438859 -1.58750000
v 2.78365678 5.70734219 -1.58750000
v 1.96225791 6.03920888 -1.58750000
v 1.10266593 6.25352923 -1.58750000
v 0.22161180 6.34613175 -1.58750000
v -0.66375574 6.31521404 -1.58750000
v -1.53620404 6.16137786 -1.58750000
v -2.37875187 5.88761748 -1.58750000
v -3.17500000 5.49926131 -1.58750000
v -3.90945037 5.00386829 -1.58750000
v -4.56780773 4.41108065 -1.58750000
v -5.13725791 3.73243635 -1.58750000
v -5.60671721 2.98114442 -1.58750000
v -5.96704814 2.17182791 -1.58750000
v -6.21123726 1.32023924 -1.58750000
v -6.33453172 0.44295361 -1.58750000
v -6.33453172 -0.44295361 -1.58750000
v -6.21123726 -1.32023924 -1.58750000
v -5.96704814 -2.17182791 -1.58750000
v -5.60671721 -2.98114442 -1.58750000
v -5.13725791 -3.73243635 -1.58750000
v -4.56780773 -4.41108065 -1.58750000
v -3.90945037 -5.00386829 -1.58750000
v -3.17500000 -5.49926131 -1.58750000
v -2.37875187 -5.88761748 -1.58750000
v -1.53620404 -6.16137786 -1.58750000
v -0.66375574 -6.31521404 -1.58750000
v 0.22161180 -6.34613175 -1.58750000
v 1.10266593 -6.25352923 -1.58750000
v 1.96225791 -6.03920888 -1.58750000
v 2.78365678 -5.70734219 -1.58750000
v 3.55087494 -5.26438859 -1.58750000
v 4.24897935 -4.71896964 -1.58750000
v 4.86438221 -4.08170132 -1.58750000
v 5.38510541 -3.36498733 -1.58750000
v 5.80101366 -2.58277768 -1.58750000
v 6.10401177 -1.75029721 -1.58750000
v 6.28820224 -0.88374919 -1.58750000
v 0.00000000 -2.10820000 -1.58750000
v 0.29340473 -2.08768314 -1.58750000
v 0.58109867 -2.02653191 -1.58750000
v 0.85748219 -1.92593653 -1.58750000
v 1.11717579 -1.78785500 -1.58750000
v 1.35512484 -1.61497489 -1.58750000
v 1.56669792 -1.41066114 -1.58750000
v 1.74777701 -1.17889048 -1.58750000
v 1.89483761 -0.92417405 -1.58750000
v 2.00501735 -0.65146963 -1.58750000
v 2.07617170 -0.36608509 -1.58750000
v 2.10691574 -0.07357512 -1.58750000
v 2.09665106 0.22036691 -1.58750000
v 2.04557745 0.51001974 -1.58750000
v 1.95468900 0.78974562 -1.58750000
v 1.82575476 1.05410000 -1.58750000
v 1.66128427 1.29793752 -1.58750000
v 1.46447878 1.51651217 -1.58750000
v 1.23916887 1.70556963 -1.58750000
v 0.98973995 1.86143012 -1.58750000
v 0.72104687 1.98105998 -1.58750000
v 0.43831943 2.06213077 -1.58750000
v 0.14706060 2.10306453 -1.58750000
v -0.14706060 2.10306453 -1.58750000
v -0.43831943 2.06213077 -1.58750000
v -0.72104687 1.98105998 -1.58750000
v -0.98973995 1.86143012 -1.58750000
v -1.23916887 1.70556963 -1.58750000
v -1.46447878 1.51651217 -1.58750000
v -1.66128427 1.29793752 -1.58750000
v -1.82575476 1.05410000 -1.58750000
v -1.95468900 0.78974562 -1.58750000
v -2.04557745 0.51001974 -1.58750000
v -2.09665106 0.22036691 -1.58750000
v -2.10691574 -0.07357512 -1.58750000
v -2.07617170 -0.36608509 -1.58750000
v -2.00501735 -0.65146963 -1.58750000
v -1.89483761 -0.92417405 -1.58750000
v -1.74777701 -1.17889048 -1.58750000
v -1.56669792 -1.41066114 -1.58750000
v -1.35512484 -1.61497489 -1.58750000
v -1.11717579 -1.78785500 -1.58750000
v -0.85748219 -1.92593653 -1.58750000
v -0.58109867 -2.02653191 -1.58750000
v -0.29340473 -2.08768314 -1.58750000
v 6.35000000 0.00000000 1.58750000
v 6.28820224 0.88374919 1.58750000
v 6.10401177 1.75029721 1.58750000
v 5.80101366 2.58277768 1.58750000
v 5.38510541 3.36498733 1.58750000
v 4.86438221 4.08170132 1.58750000
v 4.24897935 4.71896964 1.58750000
v 3.55087494 5.26438859 1.58750000
v 2.78365678 5.70734219 1.58750000
v 1.96225791 6.03920888 1.58750000
v 1.10266593 6.25352923 1.58750000
v 0.22161180 6.34613175 1.58750000
v -0.66375574 6.31521404 1.58750000
v -1.53620404 6.16137786 1.58750000
v -2.37875187 5.88761748 1.58750000
v -3.17500000 5.49926131 1.58750000
v -3.90945037 5.00386829 1.58750000
v -4.56780773 4.41108065 1.58750000
v -5.13725791 3.73243635 1.58750000
v -5.60671721 2.98114442 1.58750000
v -5.96704814 2.17182791 1.58750000
v -6.21123726 1.32023924 1.58750000
v -6.33453172 0.44295361 1.58750000
v -6.33453172 -0.44295361 1.58750000
v -6.21123726 -1.32023924 1.58750000
v -5.96704814 -2.17182791 1.58750000
v -5.60671721 -2.98114442 1.58750000
v -5.13725791 -3.73243635 1.58750000
v -4.56780773 -4.41108065 1.58750000
v -3.90945037 -5.00386829 1.58750000
v -3.17500000 -5.49926131 1.58750000
v -2.37875187 -5.88761748 1.58750000
v -1.53620404 -6.16137786 1.58750000
v -0.66375574 -6.31521404 1.58750000
v 0.22161180 -6.34613175 1.58750000
v 1.10266593 -6.25352923 1.58750000
v 1.96225791 -6.03920888 1.58750000
v 2.78365678 -5.70734219 1.58750000
v 3.55087494 -5.26438859 1.58750000
v 4.24897935 -4.71896964 1.58750000
v 4.86438221 -4.08170132 1.58750000
v 5.38510541 -3.36498733 1.58750000
v 5.80101366 -2.58277768 1.58750000
v 6.10401177 -1.75029721 1.58750000
v 6.28820224 -0.88374919 1.58750000
v 0.00000000 -2.10820000 1.58750000
v 0.29340473 -2.08768314 1.58750000
v 0.58109867 -2.02653191 1.58750000
v 0.85748219 -1.92593653 1.58750000
v 1.11717579 -1.78785500 1.58750000
v 1.35512484 -1.61497489 1.58750000
v 1.56669792 -1.41066114 1.58750000
v 1.74777701 -1.17889048 1.58750000
v 1.89483761 -0.92417405 1.58750000
v 2.00501735 -0.65146963 1.58750000
v 2.07617170 -0.36608509 1.58750000
v 2.10691574 -0.07357512 1.58750000
v 2.09665106 0.22036691 1.58750000
v 2.04557745 0.51001974 1.58750000
v 1.95468900 0.78974562 1.58750000
v 1.82575476 1.05410000 1.58750000
v 1.66128427 1.29793752 1.58750000
v 1.46447878 1.51651217 1.58750000
v 1.23916887 1.70556963 1.58750000
v 0.98973995 1.86143012 1.58750000
v 0.72104687 1.98105998 1.58750000
v 0.43831943 2.06213077 1.58750000
v 0.14706060 2.10306453 1.58750000
v -0.14706060 2.10306453 1.58750000
v -0.43831943 2.06213077 1.58750000
v -0.72104687 1.98105998 1.58750000
v -0.98973995 1.86143012 1.58750000
v -1.23916887 1.70556963 1.58750000
v -1.46447878 1.51651217 1.58750000
v -1.66128427 1.29793752 1.58750000
v -1.82575476 1.05410000 1.58750000
v -1.95468900 0.78974562 1.58750000
v -2.04557745 0.51001974 1.58750000
v -2.09665106 0.22036691 1.58750000
v -2.10691574 -0.07357512 1.58750000
v -2.07617170 -0.36608509 1.58750000
v -2.00501735 -0.65146963 1.58750000
v -1.89483761 -0.92417405 1.58750000
v -1.74777701 -1.17889048 1.58750000
v -1.56669792 -1.41066114 1.58750000
v -1.35512484 -1.61497489 1.58750000
v -1.11717579 -1.78785500 1.58750000
v -0.85748219 -1.92593653 1.58750000
v -0.58109867 -2.02653191 1.58750000
v -0.29340473 -2.08768314 1.58750000
f 74 18 17
f 75 18 74
f 75 19 18
f 73 74 17
f 73 17 16
f 76 20 19
f 76 19 75
f 72 73 16
f 72 16 15
f 77 21 20
f 77 20 76
f 71 72 15
f 71 15 14
f 78 22 21
f 78 21 77
f 70 14 13
f 70 71 14
f 79 23 22
f 79 22 78
f 69 13 12
f 69 70 13
f 80 24 23
f 80 23 79
f 68 12 11
f 68 69 12
f 81 25 24
f 81 24 80
f 67 11 10
f 67 68 11
f 82 25 81
f 82 26 25
f 66 10 9
f 66 67 10
f 83 27 26
f 83 26 82
f 65 9 8
f 65 66 9
f 84 28 27
f 84 27 83
f 64 8 7
f 64 65 8
f 85 29 28
f 85 28 84
f 63 64 7
f 86 29 85
f 6 62 63
f 6 63 7
f 30 29 86
f 30 86 87
f 5 61 62
f 5 62 6
f 31 87 88
f 31 30 87
f 4 61 5
f 4 60 61
f 32 31 88
f 32 88 89
f 3 60 4
f 3 59 60
f 33 32 89
f 33 89 90
f 2 59 3
f 2 58 59
f 34 33 90
f 34 90 46
f 1 58 2
f 1 57 58
f 35 34 46
f 35 46 47
f 45 57 1
f 45 56 57
f 36 35 47
f 36 47 48
f 44 56 45
f 44 55 56
f 37 36 48
f 37 48 49
f 43 54 55
f 43 55 44
f 38 49 50
f 38 37 49
f 42 53 54
f 42 54 43
f 39 50 51
f 39 38 50
f 41 52 53
f 41 53 42
f 40 39 51
f 40 52 41
f 40 51 52
f 164 107 108
f 165 164 108
f 165 108 109
f 163 107 164
f 163 106 107
f 166 109 110
f 166 165 109
f 162 106 163
f 162 105 106
f 167 110 111
f 167 166 110
f 161 105 162
f 161 104 105
f 168 111 112
f 168 167 111
f 160 103 104
f 160 104 161
f 169 112 113
f 169 168 112
f 159 102 103
f 159 103 160
f 170 113 114
f 170 169 113
f 158 101 102
f 158 102 159
f 171 114 115
f 171 170 114
f 157 100 101
f 157 101 158
f 172 171 115
f 172 115 116
f 156 99 100
f 156 100 157
f 173 116 117
f 173 172 116
f 155 98 99
f 155 99 156
f 174 117 118
f 174 173 117
f 154 97 98
f 154 98 155
f 175 118 119
f 175 174 118
f 153 97 154
f 176 175 119
f 96 153 152
f 96 97 153
f 120 176 119
f 120 177 176
f 95 152 151
f 95 96 152
f 121 178 177
f 121 177 120
f 94 95 151
f 94 151 150
f 122 178 121
f 122 179 178
f 93 94 150
f 93 150 149
f 123 179 122
f 123 180 179
f 92 93 149
f 92 149 148
f 124 180 123
f 124 136 180
f 91 92 148
f 91 148 147
f 125 136 124
f 125 137 136
f 135 91 147
f 135 147 146
f 126 137 125
f 126 138 137
f 134 135 146
f 134 146 145
f 127 138 126
f 127 139 138
f 133 145 144
f 133 134 145
f 128 140 139
f 128 139 127
f 132 144 143
f 132 133 144
f 129 141 140
f 129 140 128
f 131 143 142
f 131 132 143
f 130 141 129
f 130 131 142
f 130 142 141
f 45 1 91
f 45 91 135
f 44 45 135
f 44 135 134
f 43 44 134
f 43 134 133
f 42 43 133
f 42 133 132
f 41 42 132
f 41 132 131
f 40 41 131
f 40 131 130
f 39 40 130
f 39 130 129
f 38 39 129
f 38 129 128
f 37 38 128
f 37 128 127
f 36 37 127
f 36 126 125
f 36 127 126
f 35 36 125
f 34 35 125
f 34 125 124
f 33 34 124
f 33 124 123
f 32 33 123
f 32 123 122
f 31 32 122
f 31 122 121
f 30 31 121
f 30 121 120
f 29 30 120
f 29 120 119
f 28 29 119
f 28 119 118
f 27 118 117
f 27 28 118
f 26 117 116
f 26 27 117
f 25 116 115
f 25 26 116
f 24 114 113
f 24 115 114
f 24 25 115
f 23 113 112
f 23 24 113
f 22 23 112
f 21 112 111
f 21 22 112
f 20 21 111
f 20 111 110
f 19 20 110
f 19 110 109
f 18 19 109
f 18 109 108
f 17 18 108
f 17 108 107
f 16 17 107
f 16 107 106
f 15 16 106
f 15 106 105
f 14 15 105
f 14 104 103
f 14 105 104
f 13 14 103
f 12 13 103
f 12 102 101
f 12 103 102
f 11 12 101
f 10 11 101
f 10 100 99
f 10 101 100
f 9 10 99
f 9 99 98
f 8 9 98
f 7 8 98
f 7 98 97
f 6 97 96
f 6 7 97
f 5 95 94
f 5 96 95
f 5 6 96
f 4 5 94
f 3 94 93
f 3 4 94
f 2 93 92
f 2 3 93
f 1 92 91
f 1 2 92
f 90 136 46
f 90 180 136
f 89 180 90
f 89 179 180
f 88 179 89
f 88 178 179
f 87 178 88
f 87 177 178
f 86 177 87
f 86 176 177
f 85 176 86
f 85 175 176
f 84 175 85
f 84 174 175
f 83 174 84
f 83 173 174
f 82 173 83
f 82 172 173
f 81 172 82
f 81 170 171
f 81 171 172
f 80 170 81
f 79 170 80
f 79 169 170
f 78 169 79
f 78 168 169
f 77 168 78
f 77 167 168
f 76 167 77
f 76 166 167
f 75 166 76
f 75 165 166
f 74 165 75
f 74 164 165
f 73 164 74
f 73 163 164
f 72 162 163
f 72 163 73
f 71 161 162
f 71 162 72
f 70 160 161
f 70 161 71
f 69 158 159
f 69 159 160
f 69 160 70
f 68 157 158
f 68 158 69
f 67 157 68
f 66 156 157
f 66 157 67
f 65 156 66
f 65 155 156
f 64 155 65
f 64 154 155
f 63 154 64
f 63 153 154
f 62 153 63
f 62 152 153
f 61 152 62
f 61 151 152
f 60 151 61
f 60 150 151
f 59 150 60
f 59 148 149
f 59 149 150
f 58 148 59
f 57 148 58
f 57 146 147
f 57 147 148
f 56 146 57
f 55 146 56
f 55 144 145
f 55 145 146
f 54 144 55
f 54 143 144
f 53 143 54
f 52 143 53
f 52 142 143
f 51 141 142
f 51 142 52
f 50 139 140
f 50 140 141
f 50 141 51
f 49 138 139
f 49 139 50
f 48 138 49
f 47 137 138
f 47 138 48
f 46 136 137
f 46 137 47

