# https://github.com/mikedh/trimesh
v -13.64114731 -104.82527638 15.28243527
v -19.61151544 -107.58062858 15.30261525
v -56.08863331 7.78100245 15.25404248
v -56.08648639 7.83808902 15.23640653
v -56.08451353 7.89054723 15.20779260
v -56.08279310 7.93629359 15.16933714
v -56.08139341 7.97351122 15.12256747
v -56.08037007 8.00072194 15.06934115
v -56.07976371 8.01684504 15.01177214
v -56.07959841 8.02124015 14.95214692
v -56.09385949 8.02167293 14.95208306
v -56.08910513 8.02155128 14.95210417
v -56.08435140 8.02140702 14.95212545
v -56.96349983 7.55430005 14.95214692
v -56.88987329 7.65570221 14.95164588
v -56.80385560 7.74662798 14.95128130
v -56.70714651 7.82617942 14.95105315
v -56.60144579 7.89345861 14.95096145
v -56.48845318 7.94756761 14.95100619
v -56.36986845 7.98760848 14.95118738
v -56.24739136 8.01268330 14.95150500
v -56.17084247 8.02028495 14.95176821
v -56.95977619 7.55195935 15.01177214
v -56.94611636 7.54337268 15.06934115
v -56.92306286 7.52888107 15.12256747
v -56.89153129 7.50906010 15.16933714
v -56.85277399 7.48469697 15.20779260
v -56.80833029 7.45675933 15.23640653
v -56.67032655 7.61457962 15.23939307
v -56.70960002 7.39469675 15.26000000
v -56.33544596 7.76803793 15.25361301
v -56.58616781 7.89272176 15.11662242
v -60.24645991 2.33170825 14.95214692
v -60.22907644 2.32078087 15.06934115
v -60.20602294 2.30628927 15.12256747
v -60.17449137 2.28646829 15.16933714
v -60.13573407 2.26210516 15.20779260
v -60.09129037 2.23416752 15.23640653
v -60.04292541 2.20376495 15.25404248
v -49.92649181 7.48972389 15.26000000
v -49.92425610 7.54917153 15.25404248
v -49.92210917 7.60625810 15.23640653
v -49.92013632 7.65871630 15.20779260
v -49.91841588 7.70446267 15.16933714
v -49.91701619 7.74168029 15.12256747
v -49.91599285 7.76889102 15.06934115
v -49.91538649 7.78501411 15.01177214
v -49.91522120 7.78940923 14.95214692
v -60.07145923 1.44505152 15.25404248
v -60.37142661 1.57033332 14.95127425
v -60.39168967 1.69559680 14.95104801
v -60.39642907 1.82251028 14.95096184
v -60.38572004 1.94907358 14.95101574
v -60.35963780 2.07328650 14.95120969
v -60.31825757 2.19314885 14.95154372
v -60.28523092 2.26386333 14.95181881
v -60.00538030 1.97441873 15.29620590
v -60.34587084 2.11237395 15.04851204
v -60.36627632 1.58818885 15.05589041
v -60.29600174 1.81666684 15.21019254
v -49.33405893 7.11731617 15.26000000
v -49.28145790 7.14510380 15.25404248
v -49.78902635 7.77605930 14.95164055
v -49.66577518 7.74631000 14.95127425
v -49.54716230 7.70122659 14.95104801
v -49.43488229 7.64187429 14.95096184
v -49.33062978 7.56931835 14.95101574
v -49.46017641 7.58723473 15.20398272
v -36.05743074 -89.55624582 15.25404248
v -35.99795725 -89.55763299 15.26000000
v -35.74531158 -90.97763919 14.95214692
v -35.74212989 -90.97460254 15.01177214
v -35.73045815 -90.96346286 15.06934115
v -35.71075993 -90.94466258 15.12256747
v -35.68381756 -90.91894839 15.16933714
v -35.65070112 -90.88734157 15.20779260
v -35.61272588 -90.85109744 15.23640653
v -35.57140011 -90.81165551 15.25404248
v -35.91255792 -90.77679354 14.95179235
v -36.05186050 -90.55566657 14.95157962
v -36.16162630 -90.31837301 14.95150871
v -36.24026230 -90.06902759 14.95157962
v -35.92767964 -90.69588917 15.11904336
v -36.14105141 -90.09705948 15.22152476
v -11.07908049 -19.78307209 15.26000000
v -11.06234772 -19.72598414 15.25404248
v -19.97345256 -107.50280086 14.95214692
v -19.97027087 -107.49976421 15.01177214
v -19.95859913 -107.48862453 15.06934115
v -19.93890091 -107.46982425 15.12256747
v -19.91195854 -107.44411005 15.16933714
v -10.59594770 -20.28928049 15.26000000
v -10.53814170 -20.27522753 15.25404248
v -10.48263156 -20.26173270 15.23640653
v -10.43162198 -20.24933198 15.20779260
v -10.38713889 -20.23851789 15.16933714
v -10.35094902 -20.22971993 15.12256747
v -10.32448971 -20.22328752 15.06934115
v -10.30881185 -20.21947615 15.01177214
v -10.30453810 -20.21843718 14.95214692
v -10.65949258 -19.67095495 14.95104801
v -10.56517662 -19.75600785 14.95096184
v -10.48187850 -19.85189514 14.95101574
v -10.41098015 -19.95716887 14.95120969
v -10.35386356 -20.07038107 14.95154372
v -10.32617017 -20.14334937 14.95181881
v -10.60308698 -19.80278474 15.20398272
v -19.01415332 -107.78397648 14.95214692
v -19.01519229 -107.77970273 15.01177214
v -19.01900366 -107.76402487 15.06934115
v -19.02543607 -107.73756557 15.12256747
v -19.03423403 -107.70137570 15.16933714
v -19.04504812 -107.65689261 15.20779260
v -19.05744884 -107.60588302 15.23640653
v -19.13920856 -107.80552980 14.95164055
v -19.26590167 -107.81050235 14.95127425
v -19.39231186 -107.79945713 14.95104801
v -19.51651832 -107.77295714 14.95096184
v -19.63660026 -107.73156537 14.95101574
v -19.75063689 -107.67584482 14.95120969
v -19.85670741 -107.60635848 14.95154372
v -19.91717474 -107.55701277 14.95181881
v -9.04023077 -26.46919597 15.25267039
v -9.08093018 -26.26937689 15.25404248
v -9.02542004 -26.25588207 15.23640653
v -8.97441046 -26.24348135 15.20779260
v -8.92992737 -26.23266726 15.16933714
v -8.89373750 -26.22386930 15.12256747
v -8.86727820 -26.21743689 15.06934115
v -8.85160033 -26.21362552 15.01177214
v -8.84732659 -26.21258654 14.95214692
v -13.02000395 -106.32676496 14.95214692
v -13.02104292 -106.32249122 15.01177214
v -13.02485429 -106.30681336 15.06934115
v -13.03128670 -106.28035405 15.12256747
v -13.04008466 -106.24416418 15.16933714
v -13.05089875 -106.19968109 15.20779260
v -13.06329947 -106.14867151 15.23640653
v -13.07679430 -106.09316137 15.25404248
v -9.33555912 -26.95493933 15.26000000
v -8.82484282 -26.34140531 14.95145593
v -8.89811595 -26.57764900 15.20888688
v -12.29684909 -105.63657526 14.95214692
v -12.30106975 -105.63533817 15.01177214
v -12.31655287 -105.63079998 15.06934115
v -12.34268350 -105.62314096 15.12256747
v -12.37842383 -105.61266528 15.16933714
v -12.42235436 -105.59978901 15.20779260
v -12.47273031 -105.58502356 15.23640653
v -12.58463887 -105.55222257 15.26000000
v -12.58348119 -105.76111073 15.25004675
v -12.34071100 -105.75565294 14.95164055
v -12.39975120 -105.86785867 14.95127425
v -12.47252172 -105.97181049 14.95104801
v -12.55757462 -106.06612645 14.95096184
v -12.65346191 -106.14942457 14.95101574
v -12.75873564 -106.22032291 14.95120969
v -12.87194784 -106.27743951 14.95154372
v -12.94491614 -106.30513290 14.95181881
v -12.59715504 -106.03967743 15.18705681
v -10.56175660 -99.71688388 14.95214692
v -10.56597726 -99.71564678 15.01177214
v -10.58146037 -99.71110860 15.06934115
v -10.60759101 -99.70344957 15.12256747
v -10.64333133 -99.69297390 15.16933714
v -10.68726186 -99.68009763 15.20779260
v -10.73763782 -99.66533217 15.23640653
v -10.79245842 -99.64926397 15.25404248
v -10.75988005 -99.22101779 15.25305341
v -10.53329135 -99.58925346 14.95145593
v -10.54546641 -99.36281882 15.10727420
v -50.25527032 -4.08782222 5.18766652
v -59.76303922 1.55212458 5.22272861
v -56.40690276 7.58661380 5.29916527
v -59.91992897 1.36437604 5.34510942
v -59.88003107 1.38545297 5.30893487
v -35.74949908 -89.46144265 5.26000000
v -35.80704733 -89.46010038 5.26557446
v -59.96243386 2.32102655 5.55214692
v -59.95644028 2.31725894 5.49474866
v -59.94123374 2.30770000 5.43977535
v -59.91737936 2.29270496 5.38926996
v -59.88576365 2.27283108 5.34510942
v -59.84756153 2.24881695 5.30893487
v -59.80419273 2.22155500 5.28209068
v -59.75726896 2.19205837 5.26557446
v -60.02253431 2.20926208 5.55164055
v -60.06742933 2.09068592 5.55127425
v -60.09704371 1.96729823 5.55104801
v -60.11130221 1.84109923 5.55096184
v -60.11012961 1.71408909 5.55101574
v -60.09345069 1.58826800 5.55120969
v -60.06119022 1.46563615 5.55154372
v -60.10152833 1.83040017 5.40037066
v -35.27990695 -90.67439194 5.26000000
v -35.32154883 -90.71413557 5.26557446
v -35.36164318 -90.75240221 5.28209068
v -35.39869995 -90.78776974 5.30893487
v -35.43134201 -90.81892381 5.34510942
v -35.45835628 -90.84470662 5.38926996
v -35.47873882 -90.86416002 5.43977535
v -35.49173215 -90.87656105 5.49474866
v -35.49685341 -90.88144885 5.55214692
v -35.99180413 -89.97283725 5.55157962
v -35.91316812 -90.22218267 5.55150871
v -35.80340233 -90.45947623 5.55157962
v -35.66409975 -90.68060320 5.55179235
v -35.87765681 -90.20013551 5.32223858
v -56.83073743 7.30298543 5.55214692
v -56.82474385 7.29921782 5.49474866
v -56.80953731 7.28965888 5.43977535
v -56.78568293 7.27466384 5.38926996
v -56.75406721 7.25478996 5.34510942
v -56.71586510 7.23077583 5.30893487
v -56.67249630 7.20351388 5.28209068
v -19.71820293 -107.06273552 5.26557446
v -19.75829728 -107.10100215 5.28209068
v -19.79535405 -107.13636969 5.30893487
v -19.82799611 -107.16752375 5.34510942
v -19.85501037 -107.19330657 5.38926996
v -19.87539291 -107.21275997 5.43977535
v -19.88838625 -107.22516100 5.49474866
v -19.89350750 -107.23004880 5.55214692
v -55.94683601 7.76992553 5.55214692
v -55.94710207 7.76285113 5.49474866
v -55.94777708 7.74490241 5.43977535
v -55.94883598 7.71674639 5.38926996
v -55.95023940 7.67942944 5.34510942
v -55.95193520 7.63433838 5.30893487
v -55.95386034 7.58314892 5.28209068
v -55.95594328 7.52776343 5.26557446
v -55.95810663 7.47024019 5.26000000
v -55.96109708 7.77035831 5.55208306
v -56.08603109 7.76493069 5.55159755
v -56.20916420 7.74343215 5.55124848
v -56.32879666 7.70676062 5.55103585
v -56.44322871 7.65581404 5.55095966
v -56.55076059 7.59149033 5.55101992
v -56.64969254 7.51468744 5.55121662
v -56.73832481 7.42630329 5.55154977
v -56.78699994 7.36656165 5.55182252
v -55.95158900 7.77009240 5.55212545
v -55.95634272 7.77023666 5.55210417
v -18.99145353 -107.27574957 5.26557446
v -18.97836082 -107.32960561 5.28209068
v -18.96626002 -107.37938148 5.30893487
v -18.95560084 -107.42322737 5.34510942
v -18.94677940 -107.45951381 5.38926996
v -18.94012354 -107.48689231 5.43977535
v -18.93588060 -107.50434538 5.49474866
v -18.93420826 -107.51122442 5.55214692
v -19.79987468 -107.31570073 5.55164055
v -19.69591230 -107.38827962 5.55127425
v -19.58354116 -107.44722245 5.55104801
v -19.46468205 -107.49196625 5.55096184
v -19.34125578 -107.52194801 5.55101574
v -19.21518313 -107.53660475 5.55120969
v -19.08838490 -107.53537345 5.55154372
v -19.01084674 -107.52647787 5.55181881
v -19.45366657 -107.48474087 5.40013266
v -50.06648484 7.54877630 5.55214692
v -50.06675090 7.54170191 5.49474866
v -50.06742592 7.52375318 5.43977535
v -50.06848481 7.49559717 5.38926996
v -50.06988824 7.45828022 5.34510942
v -50.07158403 7.41318915 5.30893487
v -50.07350917 7.36199970 5.28209068
v -50.07559212 7.30661420 5.26557446
v -13.01406816 -105.55440895 5.21165312
v -13.26039419 -105.93953567 5.28209068
v -13.24829339 -105.98931155 5.30893487
v -13.23763421 -106.03315743 5.34510942
v -13.22881277 -106.06944388 5.38926996
v -13.22215690 -106.09682238 5.43977535
v -13.21791396 -106.11427545 5.49474866
v -13.21624163 -106.12115449 5.55214692
v -49.48532257 6.87668324 5.26000000
v -49.60512875 7.13694640 5.26505241
v -49.56134723 7.38565271 5.55096184
v -49.67192754 7.44814228 5.55101574
v -49.78923125 7.49660845 5.55120969
v -49.91156378 7.52998599 5.55154372
v -49.98859062 7.54256233 5.55181881
v -49.59152674 7.36578797 5.35868510
v -12.72563661 -105.36280321 5.26557446
v -12.67244956 -105.37839262 5.28209068
v -12.62329199 -105.39280096 5.30893487
v -12.57999075 -105.40549278 5.34510942
v -12.54415505 -105.41599641 5.38926996
v -12.51711664 -105.42392151 5.43977535
v -12.49988037 -105.42897355 5.49474866
v -12.49308678 -105.43096479 5.55214692
v -13.09524847 -106.08289205 5.55164055
v -12.98041212 -106.02914743 5.55127425
v -12.87318055 -105.96130259 5.55104801
v -12.77500174 -105.88073948 5.55096184
v -12.68732363 -105.78884007 5.55101574
v -12.61159420 -105.68698632 5.55120969
v -12.54926142 -105.57656019 5.55154372
v -12.51819614 -105.50496238 5.55181881
v -12.77575134 -105.86758709 5.40013266
v -11.07048917 -99.71586388 5.26557446
v -11.01730212 -99.73145329 5.28209068
v -10.96814455 -99.74586163 5.30893487
v -10.92484331 -99.75855345 5.34510942
v -10.88900761 -99.76905708 5.38926996
v -10.86196920 -99.77698218 5.43977535
v -10.84473293 -99.78203422 5.49474866
v -10.83793934 -99.78402546 5.55214692
v -10.79787455 -99.52614268 5.55124175
v -10.80947409 -99.65639504 5.55145593
v -10.88659665 -99.27974757 5.31975877
v -10.51014858 -20.41467486 5.55214692
v -10.51702762 -20.41634719 5.49474866
v -10.53448069 -20.42059013 5.43977535
v -10.56185919 -20.42724600 5.38926996
v -10.59814564 -20.43606744 5.34510942
v -10.64199152 -20.44672662 5.30893487
v -10.69176740 -20.45882742 5.28209068
v -10.80155818 -20.48551817 5.26000000
v -10.54841102 -20.29368169 5.55164055
v -10.60215564 -20.17884535 5.55127425
v -10.67000048 -20.07161378 5.55104801
v -10.75056359 -19.97343496 5.55096184
v -10.84246300 -19.88575686 5.55101574
v -10.94431675 -19.81002743 5.55120969
v -10.78224795 -20.27049826 5.27461559
v -10.76371596 -19.97418459 5.40013266
v -11.02484822 -20.02568000 5.26633998
v -9.12007865 -26.13264149 5.55214692
v -9.12695769 -26.13431382 5.49474866
v -9.14441076 -26.13855676 5.43977535
v -9.17178925 -26.14521263 5.38926996
v -9.20807570 -26.15403407 5.34510942
v -9.25192159 -26.16469325 5.30893487
v -9.30169746 -26.17679405 5.28209068
v -9.35555350 -26.18988675 5.26557446
v -9.09208071 -26.39211178 5.55124175
v -9.09759487 -26.26146025 5.55145593
v -9.14297496 -26.64657541 5.40203384
v -9.41265488 -26.66402712 5.24855079
v -19.42119118 -107.26380018 5.25882770
v -29.46042691 -68.82551180 15.34440980
f 57 70 343
f 1 140 343
f 50 204 82
f 40 57 61
f 59 50 82
f 82 84 59
f 172 177 173
f 173 232 172
f 218 342 260
f 172 320 341
f 170 338 141
f 310 312 340
f 338 170 310
f 340 338 310
f 343 70 2
f 2 1 343
f 192 194 208
f 208 204 192
f 70 57 69
f 57 84 69
f 60 59 84
f 85 61 57
f 85 57 343
f 208 173 178
f 178 173 177
f 178 196 208
f 185 173 194
f 176 173 208
f 194 173 176
f 195 177 172
f 195 178 177
f 196 178 195
f 216 195 342
f 196 195 216
f 269 341 302
f 269 244 342
f 172 341 269
f 269 195 172
f 342 195 269
f 340 312 335
f 323 104 322
f 295 294 301
f 296 297 155
f 301 297 296
f 296 295 301
f 78 2 70
f 70 69 78
f 78 69 84
f 117 257 116
f 129 142 141
f 204 50 193
f 193 192 204
f 50 192 193
f 194 192 191
f 205 204 208
f 76 84 83
f 49 84 57
f 57 60 49
f 49 60 84
f 52 59 58
f 59 60 58
f 65 66 280
f 65 68 66
f 277 320 172
f 172 232 277
f 266 284 267
f 267 284 278
f 173 185 186
f 208 194 175
f 175 176 208
f 194 176 175
f 218 198 197
f 196 216 197
f 208 196 197
f 197 198 208
f 280 66 279
f 279 284 280
f 326 284 279
f 101 326 67
f 67 68 101
f 66 68 67
f 67 279 66
f 326 279 67
f 325 326 101
f 101 102 325
f 321 322 105
f 105 322 104
f 103 104 323
f 312 341 336
f 336 335 312
f 335 336 318
f 141 338 339
f 258 257 260
f 116 257 258
f 244 269 270
f 270 269 301
f 157 158 294
f 294 295 157
f 132 276 159
f 301 294 274
f 77 84 76
f 77 78 84
f 76 2 77
f 2 78 77
f 260 257 256
f 257 117 256
f 111 112 2
f 111 117 116
f 2 117 111
f 130 129 141
f 127 126 142
f 190 191 52
f 194 191 190
f 51 192 50
f 51 191 192
f 52 191 51
f 51 59 52
f 50 59 51
f 79 83 80
f 75 2 76
f 76 83 75
f 61 85 86
f 41 3 40
f 268 277 232
f 278 277 268
f 268 267 278
f 262 224 261
f 218 197 217
f 217 197 216
f 342 218 217
f 217 216 342
f 324 325 102
f 324 103 323
f 102 103 324
f 321 105 106
f 106 313 321
f 100 313 106
f 337 341 320
f 337 336 341
f 327 318 319
f 319 318 336
f 336 337 319
f 319 320 327
f 319 337 320
f 321 313 314
f 335 318 334
f 340 335 334
f 334 333 340
f 249 258 260
f 244 270 245
f 342 244 245
f 156 157 295
f 156 296 155
f 295 296 156
f 157 156 160
f 160 151 139
f 160 156 155
f 148 151 160
f 158 159 293
f 293 159 276
f 294 158 293
f 293 274 294
f 158 157 134
f 157 160 134
f 273 247 272
f 273 272 301
f 301 274 273
f 301 269 286
f 286 287 301
f 301 287 288
f 219 218 260
f 260 220 219
f 201 207 208
f 301 290 299
f 290 291 299
f 2 112 113
f 113 114 2
f 100 130 131
f 131 313 100
f 330 313 131
f 131 130 141
f 141 339 131
f 131 339 330
f 142 129 128
f 128 127 142
f 52 58 53
f 53 190 52
f 81 83 84
f 81 80 83
f 81 84 82
f 82 204 81
f 204 205 81
f 74 75 83
f 83 73 74
f 38 60 57
f 38 37 60
f 61 86 62
f 62 86 68
f 68 41 62
f 40 61 62
f 62 41 40
f 101 68 107
f 68 86 107
f 107 102 101
f 107 103 102
f 104 103 107
f 278 284 329
f 329 277 278
f 327 320 329
f 320 277 329
f 281 65 280
f 280 284 281
f 284 282 281
f 231 268 232
f 267 268 231
f 231 230 267
f 228 264 265
f 265 284 266
f 265 264 284
f 206 205 208
f 208 207 206
f 206 81 205
f 80 81 206
f 315 333 316
f 315 322 321
f 321 314 315
f 330 339 331
f 317 334 318
f 260 247 248
f 248 249 260
f 247 273 248
f 274 249 248
f 248 273 274
f 258 249 250
f 272 247 271
f 271 245 270
f 301 272 271
f 271 270 301
f 149 151 148
f 275 293 276
f 274 293 275
f 275 276 251
f 251 250 275
f 133 159 158
f 158 134 133
f 132 159 133
f 135 160 136
f 135 134 160
f 111 134 135
f 312 304 303
f 302 341 303
f 303 341 312
f 312 306 305
f 305 304 312
f 285 269 302
f 285 286 269
f 289 290 301
f 301 288 289
f 311 310 170
f 255 254 260
f 260 256 255
f 87 71 203
f 203 223 87
f 203 207 202
f 207 201 202
f 200 219 220
f 200 201 208
f 222 252 223
f 222 202 201
f 222 223 203
f 203 202 222
f 144 143 161
f 161 170 162
f 162 144 161
f 292 143 300
f 300 291 292
f 300 299 291
f 169 167 142
f 142 123 169
f 142 126 125
f 125 123 142
f 110 111 116
f 110 134 111
f 116 258 115
f 109 110 115
f 115 110 116
f 136 160 137
f 54 53 58
f 39 38 57
f 229 265 266
f 228 265 229
f 266 267 229
f 267 230 229
f 215 186 185
f 232 173 215
f 173 186 215
f 209 14 241
f 209 33 14
f 179 33 209
f 98 105 104
f 104 107 98
f 98 128 129
f 129 130 98
f 68 65 64
f 64 46 68
f 65 281 64
f 64 281 282
f 325 324 328
f 327 329 328
f 328 329 284
f 328 324 323
f 326 325 328
f 328 284 326
f 316 317 328
f 323 322 328
f 328 318 327
f 328 317 318
f 328 315 316
f 322 315 328
f 225 224 262
f 225 242 224
f 225 243 242
f 233 243 225
f 333 315 332
f 340 333 332
f 332 331 339
f 332 338 340
f 332 339 338
f 259 250 251
f 258 250 259
f 259 115 258
f 246 271 247
f 245 271 246
f 246 247 260
f 260 342 246
f 342 245 246
f 312 310 307
f 307 306 312
f 310 311 307
f 311 308 307
f 161 143 309
f 309 143 292
f 309 308 311
f 79 71 72
f 72 83 79
f 72 73 83
f 2 75 91
f 260 254 253
f 254 120 253
f 219 200 199
f 199 198 218
f 218 219 199
f 208 198 199
f 199 200 208
f 221 222 201
f 221 220 260
f 252 222 221
f 260 253 221
f 221 253 252
f 145 146 160
f 160 153 145
f 166 149 148
f 167 149 166
f 142 167 166
f 146 165 147
f 148 160 147
f 160 146 147
f 171 162 170
f 171 166 165
f 142 166 171
f 141 142 171
f 171 170 141
f 152 300 143
f 299 300 152
f 152 153 299
f 143 144 152
f 144 145 152
f 152 145 153
f 299 153 298
f 298 297 301
f 301 299 298
f 154 160 155
f 154 153 160
f 155 297 154
f 297 298 154
f 154 298 153
f 167 169 168
f 168 149 167
f 151 149 168
f 140 1 168
f 168 169 123
f 92 86 85
f 343 140 92
f 92 85 343
f 109 115 108
f 108 259 251
f 115 259 108
f 108 276 132
f 251 276 108
f 108 133 109
f 132 133 108
f 138 160 139
f 138 137 160
f 138 139 2
f 2 114 138
f 113 137 138
f 114 113 138
f 55 54 58
f 54 55 188
f 174 231 232
f 232 215 174
f 230 231 174
f 174 229 230
f 228 229 174
f 36 58 60
f 60 37 36
f 58 36 35
f 99 106 105
f 105 98 99
f 100 106 99
f 99 130 100
f 99 98 130
f 283 282 262
f 262 261 283
f 48 283 261
f 48 261 224
f 224 10 48
f 48 10 9
f 42 41 68
f 3 41 42
f 68 46 45
f 45 44 68
f 45 46 7
f 7 44 45
f 242 243 13
f 9 10 13
f 262 282 263
f 263 282 284
f 284 264 263
f 2 120 119
f 254 255 119
f 119 120 254
f 89 120 2
f 162 171 163
f 144 162 163
f 163 145 144
f 146 145 163
f 150 168 1
f 151 168 150
f 139 151 150
f 1 2 150
f 2 139 150
f 123 125 124
f 124 92 140
f 140 168 124
f 124 168 123
f 56 33 179
f 56 55 58
f 194 190 189
f 189 188 194
f 190 53 189
f 53 54 189
f 54 188 189
f 187 188 55
f 187 56 179
f 55 56 187
f 184 185 194
f 194 188 181
f 188 187 181
f 214 174 215
f 213 174 214
f 228 174 227
f 227 264 228
f 235 174 236
f 25 35 26
f 26 35 36
f 38 39 28
f 28 39 57
f 3 42 4
f 20 235 236
f 24 35 25
f 107 95 96
f 93 107 86
f 86 92 93
f 92 124 93
f 46 64 63
f 63 64 282
f 282 283 63
f 283 48 63
f 68 44 43
f 43 42 68
f 12 13 243
f 11 9 12
f 9 13 12
f 118 117 2
f 2 119 118
f 118 119 255
f 118 256 117
f 118 255 256
f 120 89 121
f 252 253 121
f 121 253 120
f 2 91 90
f 90 89 2
f 75 74 90
f 90 91 75
f 164 165 146
f 146 163 164
f 164 171 165
f 164 163 171
f 180 187 179
f 180 181 187
f 183 214 184
f 213 214 183
f 183 184 194
f 226 227 174
f 174 235 226
f 226 225 262
f 262 263 226
f 226 263 264
f 264 227 226
f 233 225 234
f 225 226 234
f 234 226 235
f 236 174 237
f 174 238 237
f 237 238 18
f 25 26 32
f 32 24 25
f 16 24 32
f 30 28 57
f 30 57 40
f 40 3 30
f 22 9 11
f 11 233 22
f 233 234 22
f 240 16 239
f 239 238 174
f 239 211 240
f 174 211 239
f 35 24 34
f 58 35 34
f 34 56 58
f 33 56 34
f 15 24 16
f 15 16 240
f 15 240 241
f 241 14 15
f 128 98 97
f 97 98 107
f 107 96 97
f 94 95 107
f 107 93 94
f 94 124 125
f 94 93 124
f 46 63 47
f 47 63 48
f 9 46 47
f 47 48 9
f 88 121 89
f 241 240 210
f 240 211 210
f 210 209 241
f 213 183 212
f 212 174 213
f 212 211 174
f 17 32 18
f 16 32 17
f 18 238 17
f 238 239 17
f 17 239 16
f 18 32 19
f 19 32 20
f 19 20 236
f 236 237 19
f 19 237 18
f 8 32 7
f 7 46 8
f 8 46 9
f 5 43 44
f 5 4 42
f 42 43 5
f 3 4 31
f 4 5 31
f 31 5 32
f 31 30 3
f 23 15 14
f 24 15 23
f 14 33 23
f 33 34 23
f 23 34 24
f 122 88 87
f 121 88 122
f 252 121 122
f 122 87 223
f 223 252 122
f 182 212 183
f 194 181 182
f 182 183 194
f 20 32 21
f 32 8 21
f 21 22 234
f 9 22 21
f 21 8 9
f 235 20 21
f 21 234 235
f 7 32 6
f 32 5 6
f 6 44 7
f 6 5 44
f 28 30 29
f 30 31 29
f 29 31 32
f 27 28 29
f 29 26 27
f 29 32 26
f 206 207 79
f 79 80 206
f 331 314 313
f 331 313 330
f 333 334 317
f 316 333 317
f 275 250 249
f 275 249 274
f 112 111 135
f 135 136 112
f 287 286 303
f 303 304 287
f 287 304 305
f 305 288 287
f 285 303 286
f 302 303 285
f 288 305 289
f 289 305 306
f 79 207 71
f 71 207 203
f 109 133 110
f 110 133 134
f 112 136 137
f 137 113 112
f 314 331 332
f 332 315 314
f 307 289 306
f 290 289 307
f 307 291 290
f 307 308 291
f 291 308 309
f 292 291 309
f 309 311 170
f 309 170 161
f 201 200 221
f 221 200 220
f 165 166 147
f 147 166 148
f 13 10 224
f 224 242 13
f 185 184 214
f 214 215 185
f 37 27 26
f 26 36 37
f 28 27 37
f 37 38 28
f 96 95 126
f 126 127 96
f 12 243 233
f 12 233 11
f 73 89 90
f 90 74 73
f 97 96 127
f 127 128 97
f 126 95 94
f 94 125 126
f 88 72 71
f 71 87 88
f 88 89 73
f 73 72 88
f 210 180 179
f 179 209 210
f 181 180 210
f 210 211 181
f 181 211 182
f 211 212 182

