# https://github.com/mikedh/trimesh

o p00055.obj
v -18.57556435 -25.87817082 30.80950000
v -18.71002468 -25.47197839 30.80950000
v -18.78664540 -25.05102573 30.80950000
v -18.80393515 -24.62350621 30.80950000
v -18.76155743 -24.19774101 30.80950000
v -18.66033706 -23.78201717 30.80950000
v -18.50224419 -23.38442628 30.80950000
v -18.29035591 -23.01270699 30.80950000
v -18.02879638 -22.67409440 30.80950000
v -17.72265657 -22.37517921 30.80950000
v -17.37789514 -22.12177947 30.80950000
v -17.00122247 -21.91882732 30.80950000
v -16.59997008 -21.77027298 30.80950000
v -16.18194788 -21.67900791 30.80950000
v -15.75529220 -21.64680847 30.80950000
v -15.32830740 -21.67430138 30.80950000
v -14.90930427 -21.76095154 30.80950000
v -14.50643822 -21.90507238 30.80950000
v -14.12755057 -22.10385877 30.80950000
v -13.78001596 -22.35344155 30.80950000
v -13.47059874 -22.64896288 30.80950000
v -13.20532136 -22.98467077 30.80950000
v -12.98934715 -23.35403105 30.80950000
v -12.82687981 -23.74985454 30.80950000
v -12.72108157 -24.16443699 30.80950000
v -12.67401167 -24.58970902 30.80950000
v -12.68658628 -25.01739320 30.80950000
v -12.75856065 -25.43916513 30.80950000
v -12.88853388 -25.84681551 30.80950000
v -13.07397619 -26.23240989 30.80950000
v -13.31127815 -26.58844311 30.80950000
v -13.59582095 -26.90798539 30.80950000
v -13.92206629 -27.18481720 30.80950000
v -14.28366417 -27.41355033 30.80950000
v -14.67357651 -27.58973275 30.80950000
v -15.08421410 -27.70993526 30.80950000
v -15.50758435 -27.77181826 30.80950000
v -15.93544684 -27.77417727 30.80950000
v -16.35947371 -27.71696637 30.80950000
v -16.77141176 -27.60129911 30.80950000
v -17.16324309 -27.42942682 30.80950000
v -17.52734114 -27.20469480 30.80950000
v -17.85661917 -26.93147720 30.80950000
v -18.14466814 -26.61509189 30.80950000
v -18.38588152 -26.26169696 30.80950000
v -17.68110256 -25.51103538 30.80950000
v -17.77317235 -25.23290090 30.80950000
v -17.82563729 -24.94465957 30.80950000
v -17.83747621 -24.65192168 30.80950000
v -17.80845867 -24.36038504 30.80950000
v -17.73914947 -24.07572406 30.80950000
v -17.63089763 -23.80347937 30.80950000
v -17.48581015 -23.54894989 30.80950000
v -17.30671099 -23.31708975 30.80950000
v -17.09708612 -23.11241183 30.80950000
v -16.86101565 -22.93889998 30.80950000
v -16.60309441 -22.79993138 30.80950000
v -16.32834256 -22.69821092 30.80950000
v -16.04210782 -22.63571846 30.80950000
v -15.74996143 -22.61367036 30.80950000
v -15.45758968 -22.63249574 30.80950000
v -15.17068326 -22.69182819 30.80950000
v -14.89482648 -22.79051289 30.80950000
v -14.63538857 -22.92662903 30.80950000
v -14.39741919 -23.09752728 30.80950000
v -14.18555016 -23.29988130 30.80950000
v -14.00390526 -23.52975249 30.80950000
v -13.85602001 -23.78266667 30.80950000
v -13.74477281 -24.05370116 30.80950000
v -13.67232897 -24.33758058 30.80950000
v -13.64009853 -24.62877954 30.80950000
v -13.64870882 -24.92163018 30.80950000
v -13.69799224 -25.21043249 30.80950000
v -13.78698956 -25.48956528 30.80950000
v -13.91396853 -25.75359553 30.80950000
v -14.07645766 -25.99738420 30.80950000
v -14.27129429 -26.21618622 30.80950000
v -14.49468613 -26.40574285 30.80950000
v -14.74228513 -26.56236460 30.80950000
v -15.00927204 -26.68300300 30.80950000
v -15.29045027 -26.76530995 30.80950000
v -15.58034701 -26.80768346 30.80950000
v -15.87331975 -26.80929875 30.80950000
v -16.16366610 -26.77012441 30.80950000
v -16.44573481 -26.69092290 30.80950000
v -16.71403572 -26.57323580 30.80950000
v -16.96334667 -26.41935376 30.80950000
v -17.18881510 -26.23227190 30.80950000
v -17.38605253 -26.01563157 30.80950000
v -17.55121994 -25.77364943 30.80950000
v -18.57556435 -25.87817082 11.75950000
v -18.71002468 -25.47197839 11.75950000
v -18.78664540 -25.05102573 11.75950000
v -18.80393515 -24.62350621 11.75950000
v -18.76155743 -24.19774101 11.75950000
v -18.66033706 -23.78201717 11.75950000
v -18.50224419 -23.38442628 11.75950000
v -18.29035591 -23.01270699 11.75950000
v -18.02879638 -22.67409440 11.75950000
v -17.72265657 -22.37517921 11.75950000
v -17.37789514 -22.12177947 11.75950000
v -17.00122247 -21.91882732 11.75950000
v -16.59997008 -21.77027298 11.75950000
v -16.18194788 -21.67900791 11.75950000
v -15.75529220 -21.64680847 11.75950000
v -15.32830740 -21.67430138 11.75950000
v -14.90930427 -21.76095154 11.75950000
v -14.50643822 -21.90507238 11.75950000
v -14.12755057 -22.10385877 11.75950000
v -13.78001596 -22.35344155 11.75950000
v -13.47059874 -22.64896288 11.75950000
v -13.20532136 -22.98467077 11.75950000
v -12.98934715 -23.35403105 11.75950000
v -12.82687981 -23.74985454 11.75950000
v -12.72108157 -24.16443699 11.75950000
v -12.67401167 -24.58970902 11.75950000
v -12.68658628 -25.01739320 11.75950000
v -12.75856065 -25.43916513 11.75950000
v -12.88853388 -25.84681551 11.75950000
v -13.07397619 -26.23240989 11.75950000
v -13.31127815 -26.58844311 11.75950000
v -13.59582095 -26.90798539 11.75950000
v -13.92206629 -27.18481720 11.75950000
v -14.28366417 -27.41355033 11.75950000
v -14.67357651 -27.58973275 11.75950000
v -15.08421410 -27.70993526 11.75950000
v -15.50758435 -27.77181826 11.75950000
v -15.93544684 -27.77417727 11.75950000
v -16.35947371 -27.71696637 11.75950000
v -16.77141176 -27.60129911 11.75950000
v -17.16324309 -27.42942682 11.75950000
v -17.52734114 -27.20469480 11.75950000
v -17.85661917 -26.93147720 11.75950000
v -18.14466814 -26.61509189 11.75950000
v -18.38588152 -26.26169696 11.75950000
v -17.68110256 -25.51103538 11.75950000
v -17.77317235 -25.23290090 11.75950000
v -17.82563729 -24.94465957 11.75950000
v -17.83747621 -24.65192168 11.75950000
v -17.80845867 -24.36038504 11.75950000
v -17.73914947 -24.07572406 11.75950000
v -17.63089763 -23.80347937 11.75950000
v -17.48581015 -23.54894989 11.75950000
v -17.30671099 -23.31708975 11.75950000
v -17.09708612 -23.11241183 11.75950000
v -16.86101565 -22.93889998 11.75950000
v -16.60309441 -22.79993138 11.75950000
v -16.32834256 -22.69821092 11.75950000
v -16.04210782 -22.63571846 11.75950000
v -15.74996143 -22.61367036 11.75950000
v -15.45758968 -22.63249574 11.75950000
v -15.17068326 -22.69182819 11.75950000
v -14.89482648 -22.79051289 11.75950000
v -14.63538857 -22.92662903 11.75950000
v -14.39741919 -23.09752728 11.75950000
v -14.18555016 -23.29988130 11.75950000
v -14.00390526 -23.52975249 11.75950000
v -13.85602001 -23.78266667 11.75950000
v -13.74477281 -24.05370116 11.75950000
v -13.67232897 -24.33758058 11.75950000
v -13.64009853 -24.62877954 11.75950000
v -13.64870882 -24.92163018 11.75950000
v -13.69799224 -25.21043249 11.75950000
v -13.78698956 -25.48956528 11.75950000
v -13.91396853 -25.75359553 11.75950000
v -14.07645766 -25.99738420 11.75950000
v -14.27129429 -26.21618622 11.75950000
v -14.49468613 -26.40574285 11.75950000
v -14.74228513 -26.56236460 11.75950000
v -15.00927204 -26.68300300 11.75950000
v -15.29045027 -26.76530995 11.75950000
v -15.58034701 -26.80768346 11.75950000
v -15.87331975 -26.80929875 11.75950000
v -16.16366610 -26.77012441 11.75950000
v -16.44573481 -26.69092290 11.75950000
v -16.71403572 -26.57323580 11.75950000
v -16.96334667 -26.41935376 11.75950000
v -17.18881510 -26.23227190 11.75950000
v -17.38605253 -26.01563157 11.75950000
v -17.55121994 -25.77364943 11.75950000
v -18.65246219 -25.90973385 21.28450000
v -18.79056688 -25.49253214 21.28450000
v -18.86926429 -25.06017014 21.28450000
v -18.88702266 -24.62106330 21.28450000
v -18.84349635 -24.18375833 21.28450000
v -18.73953255 -23.75676688 21.28450000
v -18.57715479 -23.34839984 21.28450000
v -18.35952357 -22.96660562 21.28450000
v -18.09087484 -22.61881540 21.28450000
v -17.77643753 -22.31179853 21.28450000
v -17.42233182 -22.05153074 21.28450000
v -17.03544997 -21.84307786 21.28450000
v -16.62332219 -21.69049716 21.28450000
v -16.19397008 -21.59675848 21.28450000
v -15.75575049 -21.56368632 21.28450000
v -15.31719287 -21.59192439 21.28450000
v -14.88683324 -21.68092307 21.28450000
v -14.47304806 -21.82895011 21.28450000
v -14.08389120 -22.03312433 21.28450000
v -13.72693714 -22.28947171 21.28450000
v -13.40913360 -22.59300273 21.28450000
v -13.13666625 -22.93780951 21.28450000
v -12.91483836 -23.31718079 21.28450000
v -12.74796756 -23.72373252 21.28450000
v -12.63930181 -24.14955165 21.28450000
v -12.59095615 -24.58635009 21.28450000
v -12.60387158 -25.02562605 21.28450000
v -12.67779671 -25.45882952 21.28450000
v -12.81129269 -25.87752870 21.28450000
v -13.00176115 -26.27357407 21.28450000
v -13.24549485 -26.63925708 21.28450000
v -13.53774978 -26.96746011 21.28450000
v -13.87283755 -27.25179506 21.28450000
v -14.24423604 -27.48672768 21.28450000
v -14.64471641 -27.66768528 21.28450000
v -15.06648376 -27.79114571 21.28450000
v -15.50132887 -27.85470596 21.28450000
v -15.94078797 -27.85712891 21.28450000
v -16.37630750 -27.79836739 21.28450000
v -16.79941056 -27.67956513 21.28450000
v -17.20186193 -27.50303448 21.28450000
v -17.57582835 -27.27221141 21.28450000
v -17.91403100 -26.99158863 21.28450000
v -18.20988714 -26.66662814 21.28450000
v -18.45763827 -26.30365493 21.28450000
v -18.58838066 -25.88343133 13.34700000
v -18.60119696 -25.88869183 14.93450000
v -18.61401327 -25.89395234 16.52200000
v -18.62682958 -25.89921284 18.10950000
v -18.63964588 -25.90447334 19.69700000
v -18.16708868 -26.60897232 13.34700000
v -17.56567074 -27.19394507 13.34700000
v -18.17801046 -26.61749555 14.93450000
v -16.82873124 -27.59496482 13.34700000
v -17.57388796 -27.20509889 14.93450000
v -16.01092563 -27.78228977 13.34700000
v -18.18893223 -26.62601877 16.52200000
v -16.83363449 -27.60792201 14.93450000
v -15.17290680 -27.74202690 13.34700000
v -17.58210519 -27.21625271 16.52200000
v -16.01215124 -27.79608936 14.93450000
v -14.37682677 -27.47716230 13.34700000
v -18.19985401 -26.63454200 18.10950000
v -16.83853773 -27.62087920 16.52200000
v -15.17036388 -27.75564542 14.93450000
v -13.68172717 -27.00733979 13.34700000
v -17.59032242 -27.22740654 18.10950000
v -16.01337685 -27.80988894 16.52200000
v -14.37070392 -27.48958974 14.93450000
v -13.13916034 -26.36740394 13.34700000
v -18.21077578 -26.64306523 19.69700000
v -16.84344097 -27.63383639 18.10950000
v -15.16782095 -27.76926394 16.52200000
v -13.67247848 -27.01765446 14.93450000
v -12.78936598 -25.60481586 13.34700000
v -17.59853964 -27.23856036 19.69700000
v -16.01460246 -27.82368852 18.10950000
v -14.36458106 -27.50201718 16.52200000
v -13.12747175 -26.37484084 14.93450000
v -12.65828675 -24.77613323 13.34700000
v -16.84834422 -27.64679358 19.69700000
v -15.16527803 -27.78288247 18.10950000
v -13.66322979 -27.02796913 16.52200000
v -12.77610439 -25.60882344 14.93450000
v -12.75564420 -23.94281566 13.34700000
v -16.01582807 -27.83748811 19.69700000
v -14.35845820 -27.51444462 18.10950000
v -13.11578317 -26.38227775 16.52200000
v -12.64443570 -24.77641427 14.93450000
v -13.07421775 -23.16666648 13.34700000
v -15.16273511 -27.79650099 19.69700000
v -13.65398110 -27.03828379 18.10950000
v -12.76284279 -25.61283103 16.52200000
v -12.74223096 -23.93934930 14.93450000
v -13.59038028 -22.50524913 13.34700000
v -14.35233535 -27.52687206 19.69700000
v -13.10409458 -26.38971466 18.10950000
v -12.63058465 -24.77669531 16.52200000
v -13.06223712 -23.15970981 14.93450000
v -14.26585036 -22.00761791 13.34700000
v -13.64473242 -27.04859846 19.69700000
v -12.74958120 -25.61683861 18.10950000
v -12.72881772 -23.93588295 16.52200000
v -13.58072081 -22.49531810 14.93450000
v -15.05053148 -21.71067986 13.34700000
v -13.09240599 -26.39715156 19.69700000
v -12.61673360 -24.77697634 18.10950000
v -13.05025649 -23.15275315 16.52200000
v -14.25922845 -21.99544907 14.93450000
v -15.88622742 -21.63645751 13.34700000
v -12.73631961 -25.62084620 19.69700000
v -12.71540448 -23.93241659 18.10950000
v -13.57106134 -22.48538708 16.52200000
v -15.04743824 -21.69717570 14.93450000
v -16.71095843 -21.79045559 13.34700000
v -12.60288255 -24.77725738 19.69700000
v -13.03827586 -23.14579649 18.10950000
v -14.25260654 -21.98328022 16.52200000
v -15.88689226 -21.62261957 14.93450000
v -17.46355800 -22.16125277 13.34700000
v -12.70199124 -23.92895024 19.69700000
v -13.56140187 -22.47545605 18.10950000
v -15.04434500 -21.68367153 16.52200000
v -16.71533206 -21.77731018 14.93450000
v -18.08820925 -22.72134872 13.34700000
v -13.02629523 -23.13883983 19.69700000
v -14.24598462 -21.97111137 18.10950000
v -15.88755711 -21.60878163 16.52200000
v -17.47131603 -22.14977481 14.93450000
v -18.53858467 -23.42920368 13.34700000
v -13.55174240 -22.46552503 19.69700000
v -15.04125176 -21.67016737 18.10950000
v -16.71970568 -21.76416476 16.52200000
v -18.09877631 -22.71238949 14.93450000
v -18.78128195 -24.23231930 13.34700000
v -14.23936271 -21.95894252 19.69700000
v -15.88822196 -21.59494369 18.10950000
v -17.47907406 -22.13829685 16.52200000
v -18.55117704 -23.42342764 14.93450000
v -18.79830137 -25.07113215 13.34700000
v -15.03815853 -21.65666320 19.69700000
v -16.72407931 -21.75101934 18.10950000
v -18.10934337 -22.70343025 16.52200000
v -18.79496573 -24.23015483 14.93450000
v -15.88888681 -21.58110575 19.69700000
v -17.48683209 -22.12681889 18.10950000
v -18.56376942 -23.41765160 16.52200000
v -18.81206168 -25.07273978 14.93450000
v -16.72845293 -21.73787392 19.69700000
v -18.11991043 -22.69447102 18.10950000
v -18.80864950 -24.22799036 16.52200000
v -17.49459013 -22.11534093 19.69700000
v -18.57636180 -23.41187555 18.10950000
v -18.82582199 -25.07434741 16.52200000
v -18.13047749 -22.68551178 19.69700000
v -18.82233328 -24.22582589 18.10950000
v -18.58895417 -23.40609951 19.69700000
v -18.83958230 -25.07595505 18.10950000
v -18.83601705 -24.22366142 19.69700000
v -18.85334261 -25.07756268 19.69700000
v -18.58838066 -25.88343133 29.22200000
v -18.60119696 -25.88869183 27.63450000
v -18.61401327 -25.89395234 26.04700000
v -18.62682958 -25.89921284 24.45950000
v -18.63964588 -25.90447334 22.87200000
v -18.79830137 -25.07113215 29.22200000
v -18.78128195 -24.23231930 29.22200000
v -18.81206168 -25.07273978 27.63450000
v -18.53858467 -23.42920368 29.22200000
v -18.79496573 -24.23015483 27.63450000
v -18.08820925 -22.72134872 29.22200000
v -18.82582199 -25.07434741 26.04700000
v -18.55117704 -23.42342764 27.63450000
v -17.46355800 -22.16125277 29.22200000
v -18.80864950 -24.22799036 26.04700000
v -18.09877631 -22.71238949 27.63450000
v -16.71095843 -21.79045559 29.22200000
v -18.83958230 -25.07595505 24.45950000
v -18.56376942 -23.41765160 26.04700000
v -17.47131603 -22.14977481 27.63450000
v -15.88622742 -21.63645751 29.22200000
v -18.82233328 -24.22582589 24.45950000
v -18.10934337 -22.70343025 26.04700000
v -16.71533206 -21.77731018 27.63450000
v -15.05053148 -21.71067986 29.22200000
v -18.85334261 -25.07756268 22.87200000
v -18.57636180 -23.41187555 24.45950000
v -17.47907406 -22.13829685 26.04700000
v -15.88689226 -21.62261957 27.63450000
v -14.26585036 -22.00761791 29.22200000
v -18.83601705 -24.22366142 22.87200000
v -18.11991043 -22.69447102 24.45950000
v -16.71970568 -21.76416476 26.04700000
v -15.04743824 -21.69717570 27.63450000
v -13.59038028 -22.50524913 29.22200000
v -18.58895417 -23.40609951 22.87200000
v -17.48683209 -22.12681889 24.45950000
v -15.88755711 -21.60878163 26.04700000
v -14.25922845 -21.99544907 27.63450000
v -13.07421775 -23.16666648 29.22200000
v -18.13047749 -22.68551178 22.87200000
v -16.72407931 -21.75101934 24.45950000
v -15.04434500 -21.68367153 26.04700000
v -13.58072081 -22.49531810 27.63450000
v -12.75564420 -23.94281566 29.22200000
v -17.49459013 -22.11534093 22.87200000
v -15.88822196 -21.59494369 24.45950000
v -14.25260654 -21.98328022 26.04700000
v -13.06223712 -23.15970981 27.63450000
v -12.65828675 -24.77613323 29.22200000
v -16.72845293 -21.73787392 22.87200000
v -15.04125176 -21.67016737 24.45950000
v -13.57106134 -22.48538708 26.04700000
v -12.74223096 -23.93934930 27.63450000
v -12.78936598 -25.60481586 29.22200000
v -15.88888681 -21.58110575 22.87200000
v -14.24598462 -21.97111137 24.45950000
v -13.05025649 -23.15275315 26.04700000
v -12.64443570 -24.77641427 27.63450000
v -13.13916034 -26.36740394 29.22200000
v -15.03815853 -21.65666320 22.87200000
v -13.56140187 -22.47545605 24.45950000
v -12.72881772 -23.93588295 26.04700000
v -12.77610439 -25.60882344 27.63450000
v -13.68172717 -27.00733979 29.22200000
v -14.23936271 -21.95894252 22.87200000
v -13.03827586 -23.14579649 24.45950000
v -12.63058465 -24.77669531 26.04700000
v -13.12747175 -26.37484084 27.63450000
v -14.37682677 -27.47716230 29.22200000
v -13.55174240 -22.46552503 22.87200000
v -12.71540448 -23.93241659 24.45950000
v -12.76284279 -25.61283103 26.04700000
v -13.67247848 -27.01765446 27.63450000
v -15.17290680 -27.74202690 29.22200000
v -13.02629523 -23.13883983 22.87200000
v -12.61673360 -24.77697634 24.45950000
v -13.11578317 -26.38227775 26.04700000
v -14.37070392 -27.48958974 27.63450000
v -16.01092563 -27.78228977 29.22200000
v -12.70199124 -23.92895024 22.87200000
v -12.74958120 -25.61683861 24.45950000
v -13.66322979 -27.02796913 26.04700000
v -15.17036388 -27.75564542 27.63450000
v -16.82873124 -27.59496482 29.22200000
v -12.60288255 -24.77725738 22.87200000
v -13.10409458 -26.38971466 24.45950000
v -14.36458106 -27.50201718 26.04700000
v -16.01215124 -27.79608936 27.63450000
v -17.56567074 -27.19394507 29.22200000
v -12.73631961 -25.62084620 22.87200000
v -13.65398110 -27.03828379 24.45950000
v -15.16782095 -27.76926394 26.04700000
v -16.83363449 -27.60792201 27.63450000
v -18.16708868 -26.60897232 29.22200000
v -13.09240599 -26.39715156 22.87200000
v -14.35845820 -27.51444462 24.45950000
v -16.01337685 -27.80988894 26.04700000
v -17.57388796 -27.20509889 27.63450000
v -13.64473242 -27.04859846 22.87200000
v -15.16527803 -27.78288247 24.45950000
v -16.83853773 -27.62087920 26.04700000
v -18.17801046 -26.61749555 27.63450000
v -14.35233535 -27.52687206 22.87200000
v -16.01460246 -27.82368852 24.45950000
v -17.58210519 -27.21625271 26.04700000
v -15.16273511 -27.79650099 22.87200000
v -16.84344097 -27.63383639 24.45950000
v -18.18893223 -26.62601877 26.04700000
v -16.01582807 -27.83748811 22.87200000
v -17.59032242 -27.22740654 24.45950000
v -16.84834422 -27.64679358 22.87200000
v -18.19985401 -26.63454200 24.45950000
v -17.59853964 -27.23856036 22.87200000
v -18.21077578 -26.64306523 22.87200000
f 74 29 28
f 75 29 74
f 75 30 29
f 73 74 28
f 76 30 75
f 76 31 30
f 72 73 28
f 72 27 26
f 72 28 27
f 77 31 76
f 77 32 31
f 71 72 26
f 78 33 32
f 78 32 77
f 70 71 26
f 70 26 25
f 79 33 78
f 79 34 33
f 69 70 25
f 69 25 24
f 80 35 34
f 80 34 79
f 68 24 23
f 68 69 24
f 81 36 35
f 81 35 80
f 67 23 22
f 67 68 23
f 82 36 81
f 82 37 36
f 82 38 37
f 66 22 21
f 66 67 22
f 83 38 82
f 65 21 20
f 65 66 21
f 84 39 38
f 84 38 83
f 64 20 19
f 64 65 20
f 85 40 39
f 85 39 84
f 63 19 18
f 63 64 19
f 86 40 85
f 41 40 86
f 17 62 63
f 17 63 18
f 42 41 86
f 42 86 87
f 88 42 87
f 16 61 62
f 16 62 17
f 60 61 16
f 43 42 88
f 15 59 60
f 15 60 16
f 44 43 88
f 44 88 89
f 14 59 15
f 45 44 89
f 45 89 90
f 13 59 14
f 13 57 58
f 13 58 59
f 1 45 90
f 1 90 46
f 12 57 13
f 2 46 47
f 2 1 46
f 11 57 12
f 11 55 56
f 11 56 57
f 3 2 47
f 3 47 48
f 3 48 49
f 10 55 11
f 4 3 49
f 9 54 55
f 9 55 10
f 5 49 50
f 5 50 51
f 5 4 49
f 8 53 54
f 8 54 9
f 6 51 52
f 6 5 51
f 7 52 53
f 7 53 8
f 7 6 52
f 164 118 119
f 165 164 119
f 165 119 120
f 163 118 164
f 166 165 120
f 166 120 121
f 162 118 163
f 162 116 117
f 162 117 118
f 167 166 121
f 167 121 122
f 161 116 162
f 168 122 123
f 168 167 122
f 160 116 161
f 160 115 116
f 169 168 123
f 169 123 124
f 159 115 160
f 159 114 115
f 170 124 125
f 170 169 124
f 158 113 114
f 158 114 159
f 171 125 126
f 171 170 125
f 157 112 113
f 157 113 158
f 172 171 126
f 172 126 127
f 172 127 128
f 156 111 112
f 156 112 157
f 173 172 128
f 155 110 111
f 155 111 156
f 174 128 129
f 174 173 128
f 154 109 110
f 154 110 155
f 175 129 130
f 175 174 129
f 153 108 109
f 153 109 154
f 176 175 130
f 131 176 130
f 107 153 152
f 107 108 153
f 132 176 131
f 132 177 176
f 178 177 132
f 106 152 151
f 106 107 152
f 150 106 151
f 133 178 132
f 105 150 149
f 105 106 150
f 134 178 133
f 134 179 178
f 104 105 149
f 135 179 134
f 135 180 179
f 103 104 149
f 103 148 147
f 103 149 148
f 91 180 135
f 91 136 180
f 102 103 147
f 92 137 136
f 92 136 91
f 101 102 147
f 101 146 145
f 101 147 146
f 93 137 92
f 93 138 137
f 93 139 138
f 100 101 145
f 94 139 93
f 99 145 144
f 99 100 145
f 95 140 139
f 95 141 140
f 95 139 94
f 98 144 143
f 98 99 144
f 96 142 141
f 96 141 95
f 97 143 142
f 97 98 143
f 97 142 96
f 226 91 135
f 225 181 230
f 226 92 91
f 181 182 230
f 231 226 135
f 231 134 133
f 231 135 134
f 232 231 133
f 232 132 131
f 232 133 132
f 233 226 231
f 233 227 226
f 234 232 131
f 234 130 129
f 234 131 130
f 235 233 231
f 235 231 232
f 236 234 129
f 236 128 127
f 236 129 128
f 237 227 233
f 237 228 227
f 237 229 228
f 238 232 234
f 238 235 232
f 239 236 127
f 239 126 125
f 239 127 126
f 240 237 233
f 240 233 235
f 241 236 239
f 241 238 234
f 241 234 236
f 242 239 125
f 242 124 123
f 242 125 124
f 243 229 237
f 244 240 235
f 244 235 238
f 244 238 241
f 245 241 239
f 246 242 123
f 246 122 121
f 246 123 122
f 247 243 237
f 247 237 240
f 248 244 241
f 249 245 239
f 249 239 242
f 250 246 121
f 250 120 119
f 250 121 120
f 251 223 224
f 251 224 225
f 251 230 229
f 251 225 230
f 251 229 243
f 252 247 240
f 252 240 244
f 253 241 245
f 253 248 241
f 254 242 246
f 254 249 242
f 254 246 250
f 255 250 119
f 255 118 117
f 255 119 118
f 256 221 222
f 256 222 223
f 256 223 251
f 256 243 247
f 256 251 243
f 257 244 248
f 257 252 244
f 258 253 245
f 258 245 249
f 259 254 250
f 260 255 117
f 260 116 115
f 260 117 116
f 261 256 247
f 261 221 256
f 261 219 220
f 261 220 221
f 261 247 252
f 262 253 258
f 262 257 248
f 262 248 253
f 263 258 249
f 263 249 254
f 264 250 255
f 264 259 250
f 265 115 114
f 265 260 115
f 266 257 262
f 266 219 261
f 266 217 218
f 266 218 219
f 266 252 257
f 266 261 252
f 267 262 258
f 268 263 254
f 268 254 259
f 269 264 255
f 269 255 260
f 270 113 112
f 270 114 113
f 270 265 114
f 271 215 216
f 271 216 217
f 271 217 266
f 271 266 262
f 272 258 263
f 272 263 268
f 272 267 258
f 273 268 259
f 273 259 264
f 274 269 260
f 274 260 265
f 275 270 112
f 275 111 110
f 275 112 111
f 276 262 267
f 276 271 262
f 276 213 214
f 276 214 215
f 276 215 271
f 277 272 268
f 278 273 264
f 278 264 269
f 279 265 270
f 279 274 265
f 279 270 275
f 280 275 110
f 280 109 108
f 280 110 109
f 281 276 267
f 281 211 212
f 281 212 213
f 281 213 276
f 281 267 272
f 282 268 273
f 282 277 268
f 283 269 274
f 283 278 269
f 284 279 275
f 285 280 108
f 285 107 106
f 285 108 107
f 286 211 281
f 286 209 210
f 286 210 211
f 286 281 272
f 286 272 277
f 287 273 278
f 287 282 273
f 288 274 279
f 288 283 274
f 289 275 280
f 289 284 275
f 290 105 104
f 290 106 105
f 290 285 106
f 291 277 282
f 291 207 208
f 291 208 209
f 291 286 277
f 291 209 286
f 292 278 283
f 292 287 278
f 293 288 279
f 293 279 284
f 294 280 285
f 294 289 280
f 295 103 102
f 295 104 103
f 295 290 104
f 296 291 282
f 296 205 206
f 296 206 207
f 296 207 291
f 296 282 287
f 296 287 292
f 297 292 283
f 297 283 288
f 298 284 289
f 298 293 284
f 299 294 285
f 299 285 290
f 300 101 100
f 300 102 101
f 300 295 102
f 301 204 205
f 301 205 296
f 301 296 292
f 302 288 293
f 302 297 288
f 303 298 289
f 303 289 294
f 304 295 300
f 304 299 290
f 304 290 295
f 305 99 98
f 305 100 99
f 305 300 100
f 306 301 292
f 306 202 203
f 306 203 204
f 306 297 302
f 306 204 301
f 306 292 297
f 307 302 293
f 307 293 298
f 307 298 303
f 308 303 294
f 308 294 299
f 309 304 300
f 310 97 96
f 310 98 97
f 310 305 98
f 311 200 201
f 311 201 202
f 311 306 302
f 311 202 306
f 312 307 303
f 313 299 304
f 313 308 299
f 313 304 309
f 314 309 300
f 314 300 305
f 314 305 310
f 315 310 96
f 315 95 94
f 315 96 95
f 316 200 311
f 316 198 199
f 316 199 200
f 316 311 302
f 316 307 312
f 316 302 307
f 317 303 308
f 317 312 303
f 318 313 309
f 319 310 315
f 319 314 310
f 320 92 226
f 320 315 94
f 320 93 92
f 320 94 93
f 321 198 316
f 321 196 197
f 321 197 198
f 321 316 312
f 322 308 313
f 322 317 308
f 323 309 314
f 323 318 309
f 323 314 319
f 324 319 315
f 325 194 195
f 325 195 196
f 325 312 317
f 325 321 312
f 325 196 321
f 326 313 318
f 326 322 313
f 326 318 323
f 327 323 319
f 328 315 320
f 328 320 226
f 328 324 315
f 328 226 227
f 329 192 193
f 329 193 194
f 329 194 325
f 329 317 322
f 329 325 317
f 329 322 326
f 330 326 323
f 331 319 324
f 331 327 319
f 332 190 191
f 332 191 192
f 332 192 329
f 332 329 326
f 333 327 331
f 333 323 327
f 333 330 323
f 334 331 324
f 334 324 328
f 334 328 227
f 334 227 228
f 335 332 326
f 335 188 189
f 335 189 190
f 335 330 333
f 335 190 332
f 335 326 330
f 336 333 331
f 337 186 187
f 337 187 188
f 337 335 333
f 337 188 335
f 338 229 230
f 338 334 228
f 338 336 331
f 338 228 229
f 338 331 334
f 339 184 185
f 339 185 186
f 339 337 333
f 339 186 337
f 339 333 336
f 340 182 183
f 340 183 184
f 340 230 182
f 340 184 339
f 340 336 338
f 340 339 336
f 340 338 230
f 341 1 2
f 182 181 345
f 341 45 1
f 181 225 345
f 346 341 2
f 346 2 3
f 346 3 4
f 347 4 5
f 347 5 6
f 347 346 4
f 348 342 341
f 348 341 346
f 349 347 6
f 349 6 7
f 349 7 8
f 350 346 347
f 350 348 346
f 351 349 8
f 351 8 9
f 351 9 10
f 352 343 342
f 352 342 348
f 353 347 349
f 353 350 347
f 354 351 10
f 354 10 11
f 354 11 12
f 355 348 350
f 355 352 348
f 356 353 349
f 356 349 351
f 357 12 13
f 357 13 14
f 357 354 12
f 358 344 343
f 358 345 344
f 358 343 352
f 359 350 353
f 359 355 350
f 360 351 354
f 360 356 351
f 361 357 14
f 361 14 15
f 361 15 16
f 362 352 355
f 362 358 352
f 363 353 356
f 363 359 353
f 364 360 354
f 364 354 357
f 365 361 16
f 365 16 17
f 365 17 18
f 366 183 182
f 366 184 183
f 366 182 345
f 366 345 358
f 367 362 355
f 367 355 359
f 368 356 360
f 368 363 356
f 369 364 357
f 369 357 361
f 369 361 365
f 370 18 19
f 370 19 20
f 370 365 18
f 371 185 184
f 371 186 185
f 371 184 366
f 371 366 358
f 371 358 362
f 372 363 368
f 372 359 363
f 372 367 359
f 373 360 364
f 373 364 369
f 373 368 360
f 374 369 365
f 375 370 20
f 375 20 21
f 375 21 22
f 376 187 186
f 376 188 187
f 376 362 367
f 376 186 371
f 376 371 362
f 377 372 368
f 378 373 369
f 379 365 370
f 379 374 365
f 380 375 22
f 380 22 23
f 380 23 24
f 381 372 377
f 381 189 188
f 381 190 189
f 381 376 367
f 381 188 376
f 381 367 372
f 382 377 368
f 382 368 373
f 383 369 374
f 383 378 369
f 384 370 375
f 384 379 370
f 385 380 24
f 385 24 25
f 386 191 190
f 386 192 191
f 386 190 381
f 386 381 377
f 387 382 373
f 387 373 378
f 388 383 374
f 388 374 379
f 389 375 380
f 389 384 375
f 390 385 25
f 390 25 26
f 390 26 27
f 391 377 382
f 391 193 192
f 391 194 193
f 391 386 377
f 391 192 386
f 392 378 383
f 392 387 378
f 392 383 388
f 393 388 379
f 393 379 384
f 394 389 380
f 394 380 385
f 394 385 390
f 395 390 27
f 395 27 28
f 395 28 29
f 396 195 194
f 396 196 195
f 396 194 391
f 396 387 392
f 396 391 382
f 396 382 387
f 397 392 388
f 398 393 384
f 398 384 389
f 399 394 390
f 400 395 29
f 400 29 30
f 400 30 31
f 401 197 196
f 401 198 197
f 401 196 396
f 401 396 392
f 402 397 388
f 402 388 393
f 403 398 389
f 403 389 394
f 403 394 399
f 404 399 390
f 404 390 395
f 404 395 400
f 405 400 31
f 405 31 32
f 405 32 33
f 406 199 198
f 406 200 199
f 406 198 401
f 406 392 397
f 406 401 392
f 407 393 398
f 407 402 393
f 407 398 403
f 408 403 399
f 409 404 400
f 410 405 33
f 410 33 34
f 410 34 35
f 411 201 200
f 411 202 201
f 411 200 406
f 411 397 402
f 411 406 397
f 412 407 403
f 413 399 404
f 413 408 399
f 414 400 405
f 414 409 400
f 415 410 35
f 415 35 36
f 415 36 37
f 416 402 407
f 416 203 202
f 416 202 411
f 416 411 402
f 417 408 413
f 417 403 408
f 417 412 403
f 418 413 404
f 418 404 409
f 419 414 405
f 419 405 410
f 420 415 37
f 420 37 38
f 420 38 39
f 421 204 203
f 421 205 204
f 421 203 416
f 421 416 407
f 421 407 412
f 422 417 413
f 423 418 409
f 423 409 414
f 424 419 410
f 424 410 415
f 425 420 39
f 425 39 40
f 425 40 41
f 426 205 421
f 426 206 205
f 426 421 412
f 426 207 206
f 426 417 422
f 426 412 417
f 427 422 413
f 427 413 418
f 428 414 419
f 428 423 414
f 428 419 424
f 429 424 415
f 429 415 420
f 430 425 41
f 430 41 42
f 430 42 43
f 431 422 427
f 431 207 426
f 431 208 207
f 431 209 208
f 431 426 422
f 432 423 428
f 432 427 418
f 432 418 423
f 433 428 424
f 434 429 420
f 434 420 425
f 435 430 43
f 435 45 341
f 435 43 44
f 435 44 45
f 435 341 342
f 436 210 209
f 436 211 210
f 436 209 431
f 436 431 427
f 437 432 428
f 438 424 429
f 438 433 424
f 439 434 425
f 439 425 430
f 440 432 437
f 440 211 436
f 440 212 211
f 440 213 212
f 440 427 432
f 440 436 427
f 441 428 433
f 441 437 428
f 442 434 439
f 442 429 434
f 442 438 429
f 443 430 435
f 443 435 342
f 443 439 430
f 444 214 213
f 444 215 214
f 444 440 437
f 444 213 440
f 445 433 438
f 445 441 433
f 446 442 439
f 447 215 444
f 447 216 215
f 447 217 216
f 447 437 441
f 447 444 437
f 448 438 442
f 448 445 438
f 449 443 342
f 449 439 443
f 449 446 439
f 449 342 343
f 450 447 441
f 450 218 217
f 450 219 218
f 450 217 447
f 450 441 445
f 451 448 442
f 451 442 446
f 452 219 450
f 452 450 445
f 452 220 219
f 452 221 220
f 452 448 451
f 452 445 448
f 453 449 343
f 453 451 446
f 453 446 449
f 453 343 344
f 454 221 452
f 454 222 221
f 454 223 222
f 454 452 451
f 455 344 345
f 455 345 225
f 455 453 344
f 455 454 451
f 455 451 453
f 455 223 454
f 455 224 223
f 455 225 224
f 46 180 136
f 90 180 46
f 90 179 180
f 89 179 90
f 89 178 179
f 88 178 89
f 88 177 178
f 87 177 88
f 87 176 177
f 86 176 87
f 86 175 176
f 85 175 86
f 85 174 175
f 84 174 85
f 84 173 174
f 83 173 84
f 83 172 173
f 82 172 83
f 82 171 172
f 81 171 82
f 80 171 81
f 80 169 170
f 80 170 171
f 79 169 80
f 79 168 169
f 78 168 79
f 78 167 168
f 77 167 78
f 76 167 77
f 76 165 166
f 76 166 167
f 75 165 76
f 75 164 165
f 74 164 75
f 74 163 164
f 73 163 74
f 73 162 163
f 72 162 73
f 71 160 161
f 71 161 162
f 71 162 72
f 70 160 71
f 69 158 159
f 69 159 160
f 69 160 70
f 68 158 69
f 67 157 158
f 67 158 68
f 66 156 157
f 66 157 67
f 65 156 66
f 65 154 155
f 65 155 156
f 64 154 65
f 63 154 64
f 63 152 153
f 63 153 154
f 62 152 63
f 62 151 152
f 61 151 62
f 61 150 151
f 60 150 61
f 59 150 60
f 59 148 149
f 59 149 150
f 58 148 59
f 57 148 58
f 57 146 147
f 57 147 148
f 56 146 57
f 56 145 146
f 55 145 56
f 54 145 55
f 54 144 145
f 53 144 54
f 53 143 144
f 52 142 143
f 52 143 53
f 51 142 52
f 51 140 141
f 51 141 142
f 50 139 140
f 50 140 51
f 49 139 50
f 48 137 138
f 48 138 139
f 48 139 49
f 47 137 48
f 46 136 137
f 46 137 47

