# https://github.com/mikedh/trimesh
v 17.20341309 -6.94215345 34.80304732
v 45.26503915 6.35000000 4.69942243
v 45.45987863 -6.35000000 2.09947025
v 44.78728064 6.35000000 8.06894250
v 45.17586998 -6.35000000 5.49082069
v 44.05905350 6.35000000 11.39333777
v 44.63921954 -6.35000000 8.85146424
v 43.08443025 6.35000000 14.65401688
v 43.85292848 -6.35000000 12.16260680
v 41.86886139 6.35000000 17.83274478
v 42.82139405 -6.35000000 15.40573113
v 40.41914487 6.35000000 20.91174474
v 41.55038502 -6.35000000 18.56270037
v 38.74338811 6.35000000 23.87379774
v 40.04700938 -6.35000000 21.61585946
v 36.85096260 6.35000000 26.70233878
v 38.31967462 -6.35000000 24.54813389
v 34.75245155 6.35000000 29.38154951
v 36.37804070 -6.35000000 27.34312520
v 32.45959071 6.35000000 31.89644669
v 34.23296601 -6.35000000 29.98520266
v 29.98520266 6.35000000 34.23296601
v 31.89644669 -6.35000000 32.45959071
v 27.34312520 6.35000000 36.37804070
v 29.38154951 -6.35000000 34.75245155
v 24.54813389 6.35000000 38.31967462
v 26.70233878 -6.35000000 36.85096260
v 21.61585946 6.35000000 40.04700938
v 23.87379774 -6.35000000 38.74338811
v 18.56270037 6.35000000 41.55038502
v 20.91174474 -6.35000000 40.41914487
v 15.40573113 6.35000000 42.82139405
v 17.83274478 -6.35000000 41.86886139
v 12.16260680 6.35000000 43.85292848
v 14.65401688 -6.35000000 43.08443025
v 8.85146424 6.35000000 44.63921954
v 11.39333777 -6.35000000 44.05905350
v 5.49082069 6.35000000 45.17586998
v 8.06894250 -6.35000000 44.78728064
v 2.09947025 6.35000000 45.45987863
v 4.69942243 -6.35000000 45.26503915
v -1.30362128 6.35000000 45.48965720
v 1.30362128 -6.35000000 45.48965720
v -4.69942243 6.35000000 45.26503915
v -2.09947025 -6.35000000 45.45987863
v -8.06894250 6.35000000 44.78728064
v -5.49082069 -6.35000000 45.17586998
v -11.39333777 6.35000000 44.05905350
v -8.85146424 -6.35000000 44.63921954
v -14.65401688 6.35000000 43.08443025
v -12.16260680 -6.35000000 43.85292848
v -17.83274478 6.35000000 41.86886139
v -15.40573113 -6.35000000 42.82139405
v -20.91174474 6.35000000 40.41914487
v -18.56270037 -6.35000000 41.55038502
v -23.87379774 6.35000000 38.74338811
v -21.61585946 -6.35000000 40.04700938
v -26.70233878 6.35000000 36.85096260
v -24.54813389 -6.35000000 38.31967462
v -29.38154951 6.35000000 34.75245155
v -27.34312520 -6.35000000 36.37804070
v -31.89644669 6.35000000 32.45959071
v -29.98520266 -6.35000000 34.23296601
v -29.98520266 6.35000000 34.23296601
v -34.23296601 6.35000000 29.98520266
v -32.45959071 -6.35000000 31.89644669
v -36.37804070 6.35000000 27.34312520
v -34.75245155 -6.35000000 29.38154951
v -38.31967462 6.35000000 24.54813389
v -36.85096260 -6.35000000 26.70233878
v -40.04700938 6.35000000 21.61585946
v -38.74338811 -6.35000000 23.87379774
v -41.55038502 6.35000000 18.56270037
v -40.41914487 -6.35000000 20.91174474
v -42.82139405 6.35000000 15.40573113
v -41.86886139 -6.35000000 17.83274478
v -43.85292848 6.35000000 12.16260680
v -43.08443025 -6.35000000 14.65401688
v -44.63921954 6.35000000 8.85146424
v -44.05905350 -6.35000000 11.39333777
v -45.17586998 6.35000000 5.49082069
v -44.78728064 -6.35000000 8.06894250
v -45.45987863 6.35000000 2.09947025
v -45.26503915 -6.35000000 4.69942243
v -45.26503915 6.35000000 4.69942243
v -45.48965720 6.35000000 -1.30362128
v -45.48965720 -6.35000000 1.30362128
v -45.26503915 6.35000000 -4.69942243
v -45.45987863 -6.35000000 -2.09947025
v -44.78728064 6.35000000 -8.06894250
v -45.17586998 -6.35000000 -5.49082069
v -44.05905350 6.35000000 -11.39333777
v -44.63921954 -6.35000000 -8.85146424
v -44.63921954 6.35000000 -8.85146424
v -43.08443025 6.35000000 -14.65401688
v -43.85292848 -6.35000000 -12.16260680
v -41.86886139 6.35000000 -17.83274478
v -42.82139405 -6.35000000 -15.40573113
v -40.41914487 6.35000000 -20.91174474
v -41.55038502 -6.35000000 -18.56270037
v -38.74338811 6.35000000 -23.87379774
v -40.04700938 -6.35000000 -21.61585946
v -40.04700938 6.35000000 -21.61585946
v -36.85096260 6.35000000 -26.70233878
v -38.31967462 -6.35000000 -24.54813389
v -34.75245155 6.35000000 -29.38154951
v -36.37804070 -6.35000000 -27.34312520
v -32.45959071 6.35000000 -31.89644669
v -34.23296601 -6.35000000 -29.98520266
v -29.98520266 6.35000000 -34.23296601
v -31.89644669 -6.35000000 -32.45959071
v -27.34312520 6.35000000 -36.37804070
v -29.38154951 -6.35000000 -34.75245155
v -24.54813389 6.35000000 -38.31967462
v -26.70233878 -6.35000000 -36.85096260
v -21.61585946 6.35000000 -40.04700938
v -23.87379774 -6.35000000 -38.74338811
v -18.56270037 6.35000000 -41.55038502
v -20.91174474 -6.35000000 -40.41914487
v -20.91174474 6.35000000 -40.41914487
v -15.40573113 6.35000000 -42.82139405
v -17.83274478 -6.35000000 -41.86886139
v -12.16260680 6.35000000 -43.85292848
v -14.65401688 -6.35000000 -43.08443025
v -8.85146424 6.35000000 -44.63921954
v -11.39333777 -6.35000000 -44.05905350
v -5.49082069 6.35000000 -45.17586998
v -8.06894250 -6.35000000 -44.78728064
v -2.09947025 6.35000000 -45.45987863
v -4.69942243 -6.35000000 -45.26503915
v 1.30362128 6.35000000 -45.48965720
v -1.30362128 -6.35000000 -45.48965720
v 4.69942243 6.35000000 -45.26503915
v 2.09947025 -6.35000000 -45.45987863
v 8.06894250 6.35000000 -44.78728064
v 5.49082069 -6.35000000 -45.17586998
v 11.39333777 6.35000000 -44.05905350
v 8.85146424 -6.35000000 -44.63921954
v 14.65401688 6.35000000 -43.08443025
v 12.16260680 -6.35000000 -43.85292848
v 17.83274478 6.35000000 -41.86886139
v 15.40573113 -6.35000000 -42.82139405
v 20.91174474 6.35000000 -40.41914487
v 18.56270037 -6.35000000 -41.55038502
v 23.87379774 6.35000000 -38.74338811
v 21.61585946 -6.35000000 -40.04700938
v 21.61585946 6.35000000 -40.04700938
v 26.70233878 6.35000000 -36.85096260
v 24.54813389 -6.35000000 -38.31967462
v 29.38154951 6.35000000 -34.75245155
v 27.34312520 -6.35000000 -36.37804070
v 27.34312520 6.35000000 -36.37804070
v 31.89644669 6.35000000 -32.45959071
v 29.98520266 -6.35000000 -34.23296601
v 34.23296601 6.35000000 -29.98520266
v 32.45959071 -6.35000000 -31.89644669
v 36.37804070 6.35000000 -27.34312520
v 34.75245155 -6.35000000 -29.38154951
v 38.31967462 6.35000000 -24.54813389
v 36.85096260 -6.35000000 -26.70233878
v 40.04700938 6.35000000 -21.61585946
v 38.74338811 -6.35000000 -23.87379774
v 41.55038502 6.35000000 -18.56270037
v 40.41914487 -6.35000000 -20.91174474
v 40.41914487 6.35000000 -20.91174474
v 42.82139405 6.35000000 -15.40573113
v 41.86886139 -6.35000000 -17.83274478
v 43.85292848 6.35000000 -12.16260680
v 43.08443025 -6.35000000 -14.65401688
v 44.63921954 6.35000000 -8.85146424
v 44.05905350 -6.35000000 -11.39333777
v 45.17586998 6.35000000 -5.49082069
v 44.78728064 -6.35000000 -8.06894250
v 45.45987863 6.35000000 -2.09947025
v 45.26503915 -6.35000000 -4.69942243
v 45.48965720 6.35000000 1.30362128
v 45.48965720 -6.35000000 -1.30362128
v 45.47135230 6.35000000 -1.83424667
v 45.48127860 6.35000000 -1.56896067
v 45.47135230 -6.35000000 -1.83424667
v 45.48127860 -6.35000000 -1.56896067
v 45.20713175 6.35000000 -5.22719616
v 45.23685514 6.35000000 -4.96339374
v 45.20713175 -6.35000000 -5.22719616
v 45.23685514 -6.35000000 -4.96339374
v 44.69009458 6.35000000 -8.59091304
v 44.73944884 6.35000000 -8.33006951
v 44.69009458 -6.35000000 -8.59091304
v 44.73944884 -6.35000000 -8.33006951
v 43.92313228 6.35000000 -11.90658606
v 43.99184139 6.35000000 -11.65016014
v 43.92313228 -6.35000000 -11.90658606
v 43.99184139 -6.35000000 -11.65016014
v 42.91053400 6.35000000 -15.15567261
v 42.99821373 6.35000000 -14.90509835
v 42.91053400 -6.35000000 -15.15567261
v 42.99821373 -6.35000000 -14.90509835
v 41.65796261 6.35000000 -18.32000250
v 41.76412260 6.35000000 -18.07668121
v 41.65796261 -6.35000000 -18.32000250
v 41.76412260 -6.35000000 -18.07668121
v 40.17242300 6.35000000 -21.38187950
v 40.29646957 6.35000000 -21.14717194
v 40.17242300 -6.35000000 -21.38187950
v 40.29646957 -6.35000000 -21.14717194
v 38.46222290 6.35000000 -24.32418036
v 38.60346233 6.35000000 -24.09939910
v 38.46222290 -6.35000000 -24.32418036
v 38.60346233 -6.35000000 -24.09939910
v 36.53692645 6.35000000 -27.13045054
v 36.69456887 6.35000000 -26.91685264
v 36.53692645 -6.35000000 -27.13045054
v 36.69456887 -6.35000000 -26.91685264
v 34.40730068 6.35000000 -29.78499623
v 34.58046450 6.35000000 -29.58377623
v 34.40730068 -6.35000000 -29.78499623
v 34.58046450 -6.35000000 -29.58377623
v 32.08525534 6.35000000 -32.27297214
v 32.27297214 6.35000000 -32.08525534
v 32.08525534 -6.35000000 -32.27297214
v 32.27297214 -6.35000000 -32.08525534
v 29.58377623 6.35000000 -34.58046450
v 29.78499623 6.35000000 -34.40730068
v 29.58377623 -6.35000000 -34.58046450
v 29.78499623 -6.35000000 -34.40730068
v 26.91685264 6.35000000 -36.69456887
v 27.13045054 6.35000000 -36.53692645
v 26.91685264 -6.35000000 -36.69456887
v 27.13045054 -6.35000000 -36.53692645
v 24.09939910 6.35000000 -38.60346233
v 24.32418036 6.35000000 -38.46222290
v 24.09939910 -6.35000000 -38.60346233
v 24.32418036 -6.35000000 -38.46222290
v 21.38187950 6.35000000 -40.17242300
v 21.14717194 -6.35000000 -40.29646957
v 21.38187950 -6.35000000 -40.17242300
v 18.07668121 6.35000000 -41.76412260
v 18.32000250 6.35000000 -41.65796261
v 18.07668121 -6.35000000 -41.76412260
v 18.32000250 -6.35000000 -41.65796261
v 14.90509835 6.35000000 -42.99821373
v 15.15567261 6.35000000 -42.91053400
v 14.90509835 -6.35000000 -42.99821373
v 15.15567261 -6.35000000 -42.91053400
v 11.65016014 6.35000000 -43.99184139
v 11.90658606 6.35000000 -43.92313228
v 11.65016014 -6.35000000 -43.99184139
v 11.90658606 -6.35000000 -43.92313228
v 8.33006951 6.35000000 -44.73944884
v 8.59091304 6.35000000 -44.69009458
v 8.33006951 -6.35000000 -44.73944884
v 8.59091304 -6.35000000 -44.69009458
v 4.96339374 6.35000000 -45.23685514
v 5.22719616 6.35000000 -45.20713175
v 4.96339374 -6.35000000 -45.23685514
v 5.22719616 -6.35000000 -45.20713175
v 1.56896067 6.35000000 -45.48127860
v 1.83424667 6.35000000 -45.47135230
v 1.56896067 -6.35000000 -45.48127860
v 1.83424667 -6.35000000 -45.47135230
v -1.83424667 6.35000000 -45.47135230
v -1.56896067 6.35000000 -45.48127860
v -1.83424667 -6.35000000 -45.47135230
v -1.56896067 -6.35000000 -45.48127860
v -5.22719616 6.35000000 -45.20713175
v -4.96339374 6.35000000 -45.23685514
v -5.22719616 -6.35000000 -45.20713175
v -4.96339374 -6.35000000 -45.23685514
v -8.59091304 6.35000000 -44.69009458
v -8.33006951 6.35000000 -44.73944884
v -8.59091304 -6.35000000 -44.69009458
v -8.33006951 -6.35000000 -44.73944884
v -11.90658606 6.35000000 -43.92313228
v -11.65016014 6.35000000 -43.99184139
v -11.90658606 -6.35000000 -43.92313228
v -11.65016014 -6.35000000 -43.99184139
v -15.15567261 6.35000000 -42.91053400
v -14.90509835 6.35000000 -42.99821373
v -15.15567261 -6.35000000 -42.91053400
v -14.90509835 -6.35000000 -42.99821373
v -18.32000250 6.35000000 -41.65796261
v -18.07668121 6.35000000 -41.76412260
v -18.32000250 -6.35000000 -41.65796261
v -18.07668121 -6.35000000 -41.76412260
v -21.38187950 6.35000000 -40.17242300
v -21.14717194 6.35000000 -40.29646957
v -21.38187950 -6.35000000 -40.17242300
v -21.14717194 -6.35000000 -40.29646957
v -24.32418036 6.35000000 -38.46222290
v -24.09939910 6.35000000 -38.60346233
v -24.32418036 -6.35000000 -38.46222290
v -24.09939910 -6.35000000 -38.60346233
v -27.13045054 6.35000000 -36.53692645
v -26.91685264 6.35000000 -36.69456887
v -27.13045054 -6.35000000 -36.53692645
v -26.91685264 -6.35000000 -36.69456887
v -29.78499623 6.35000000 -34.40730068
v -29.58377623 6.35000000 -34.58046450
v -29.78499623 -6.35000000 -34.40730068
v -29.58377623 -6.35000000 -34.58046450
v -32.27297214 6.35000000 -32.08525534
v -32.08525534 6.35000000 -32.27297214
v -32.27297214 -6.35000000 -32.08525534
v -32.08525534 -6.35000000 -32.27297214
v -34.58046450 6.35000000 -29.58377623
v -34.40730068 6.35000000 -29.78499623
v -34.58046450 -6.35000000 -29.58377623
v -34.40730068 -6.35000000 -29.78499623
v -36.69456887 6.35000000 -26.91685264
v -36.53692645 6.35000000 -27.13045054
v -36.69456887 -6.35000000 -26.91685264
v -36.53692645 -6.35000000 -27.13045054
v -38.60346233 6.35000000 -24.09939910
v -38.46222290 6.35000000 -24.32418036
v -38.60346233 -6.35000000 -24.09939910
v -38.46222290 -6.35000000 -24.32418036
v -40.17242300 6.35000000 -21.38187950
v -40.29646957 -6.35000000 -21.14717194
v -40.17242300 -6.35000000 -21.38187950
v -41.76412260 6.35000000 -18.07668121
v -41.65796261 6.35000000 -18.32000250
v -41.76412260 -6.35000000 -18.07668121
v -41.65796261 -6.35000000 -18.32000250
v -42.99821373 6.35000000 -14.90509835
v -42.91053400 6.35000000 -15.15567261
v -42.99821373 -6.35000000 -14.90509835
v -42.91053400 -6.35000000 -15.15567261
v -43.99184139 6.35000000 -11.65016014
v -43.92313228 6.35000000 -11.90658606
v -43.99184139 -6.35000000 -11.65016014
v -43.92313228 -6.35000000 -11.90658606
v -44.73944884 6.35000000 -8.33006951
v -44.69009458 6.35000000 -8.59091304
v -44.73944884 -6.35000000 -8.33006951
v -44.69009458 -6.35000000 -8.59091304
v -45.23685514 6.35000000 -4.96339374
v -45.20713175 6.35000000 -5.22719616
v -45.23685514 -6.35000000 -4.96339374
v -45.20713175 -6.35000000 -5.22719616
v -45.48127860 6.35000000 -1.56896067
v -45.47135230 6.35000000 -1.83424667
v -45.48127860 -6.35000000 -1.56896067
v -45.47135230 -6.35000000 -1.83424667
v -45.47135230 6.35000000 1.83424667
v -45.48127860 6.35000000 1.56896067
v -45.47135230 -6.35000000 1.83424667
v -45.48127860 -6.35000000 1.56896067
v -45.20713175 6.35000000 5.22719616
v -45.23685514 6.35000000 4.96339374
v -45.20713175 -6.35000000 5.22719616
v -45.23685514 -6.35000000 4.96339374
v -44.69009458 6.35000000 8.59091304
v -44.73944884 6.35000000 8.33006951
v -44.69009458 -6.35000000 8.59091304
v -44.73944884 -6.35000000 8.33006951
v -43.92313228 6.35000000 11.90658606
v -43.99184139 6.35000000 11.65016014
v -43.92313228 -6.35000000 11.90658606
v -43.99184139 -6.35000000 11.65016014
v -42.91053400 6.35000000 15.15567261
v -42.99821373 6.35000000 14.90509835
v -42.91053400 -6.35000000 15.15567261
v -42.99821373 -6.35000000 14.90509835
v -41.65796261 6.35000000 18.32000250
v -41.76412260 6.35000000 18.07668121
v -41.65796261 -6.35000000 18.32000250
v -41.76412260 -6.35000000 18.07668121
v -40.29646957 6.35000000 21.14717194
v -40.17242300 -6.35000000 21.38187950
v -38.46222290 6.35000000 24.32418036
v -38.60346233 6.35000000 24.09939910
v -38.46222290 -6.35000000 24.32418036
v -38.60346233 -6.35000000 24.09939910
v -36.53692645 6.35000000 27.13045054
v -36.69456887 6.35000000 26.91685264
v -36.53692645 -6.35000000 27.13045054
v -36.69456887 -6.35000000 26.91685264
v -34.40730068 6.35000000 29.78499623
v -34.58046450 6.35000000 29.58377623
v -34.40730068 -6.35000000 29.78499623
v -34.58046450 -6.35000000 29.58377623
v -32.08525534 6.35000000 32.27297214
v -32.27297214 6.35000000 32.08525534
v -32.08525534 -6.35000000 32.27297214
v -32.27297214 -6.35000000 32.08525534
v -29.58377623 6.35000000 34.58046450
v -29.78499623 6.35000000 34.40730068
v -29.58377623 -6.35000000 34.58046450
v -29.78499623 -6.35000000 34.40730068
v -26.91685264 6.35000000 36.69456887
v -27.13045054 6.35000000 36.53692645
v -26.91685264 -6.35000000 36.69456887
v -27.13045054 -6.35000000 36.53692645
v -24.09939910 6.35000000 38.60346233
v -24.32418036 6.35000000 38.46222290
v -24.09939910 -6.35000000 38.60346233
v -24.32418036 -6.35000000 38.46222290
v -21.14717194 6.35000000 40.29646957
v -21.38187950 6.35000000 40.17242300
v -21.14717194 -6.35000000 40.29646957
v -21.38187950 -6.35000000 40.17242300
v -18.07668121 6.35000000 41.76412260
v -18.32000250 6.35000000 41.65796261
v -18.07668121 -6.35000000 41.76412260
v -18.32000250 -6.35000000 41.65796261
v -14.90509835 6.35000000 42.99821373
v -15.15567261 6.35000000 42.91053400
v -14.90509835 -6.35000000 42.99821373
v -15.15567261 -6.35000000 42.91053400
v -11.65016014 6.35000000 43.99184139
v -11.90658606 6.35000000 43.92313228
v -11.65016014 -6.35000000 43.99184139
v -11.90658606 -6.35000000 43.92313228
v -8.33006951 6.35000000 44.73944884
v -8.59091304 6.35000000 44.69009458
v -8.33006951 -6.35000000 44.73944884
v -8.59091304 -6.35000000 44.69009458
v -4.96339374 6.35000000 45.23685514
v -5.22719616 6.35000000 45.20713175
v -4.96339374 -6.35000000 45.23685514
v -5.22719616 -6.35000000 45.20713175
v -1.56896067 6.35000000 45.48127860
v -1.83424667 6.35000000 45.47135230
v -1.56896067 -6.35000000 45.48127860
v -1.83424667 -6.35000000 45.47135230
v 1.83424667 6.35000000 45.47135230
v 1.56896067 6.35000000 45.48127860
v 1.83424667 -6.35000000 45.47135230
v 1.56896067 -6.35000000 45.48127860
v 5.22719616 6.35000000 45.20713175
v 4.96339374 6.35000000 45.23685514
v 5.22719616 -6.35000000 45.20713175
v 4.96339374 -6.35000000 45.23685514
v 8.59091304 6.35000000 44.69009458
v 8.33006951 6.35000000 44.73944884
v 8.59091304 -6.35000000 44.69009458
v 8.33006951 -6.35000000 44.73944884
v 11.90658606 6.35000000 43.92313228
v 11.65016014 6.35000000 43.99184139
v 11.90658606 -6.35000000 43.92313228
v 11.65016014 -6.35000000 43.99184139
v 15.15567261 6.35000000 42.91053400
v 14.90509835 6.35000000 42.99821373
v 15.15567261 -6.35000000 42.91053400
v 14.90509835 -6.35000000 42.99821373
v 18.32000250 6.35000000 41.65796261
v 18.07668121 6.35000000 41.76412260
v 18.32000250 -6.35000000 41.65796261
v 18.07668121 -6.35000000 41.76412260
v 21.38187950 6.35000000 40.17242300
v 21.14717194 6.35000000 40.29646957
v 21.38187950 -6.35000000 40.17242300
v 21.14717194 -6.35000000 40.29646957
v 24.32418036 6.35000000 38.46222290
v 24.09939910 6.35000000 38.60346233
v 24.32418036 -6.35000000 38.46222290
v 24.09939910 -6.35000000 38.60346233
v 27.13045054 6.35000000 36.53692645
v 26.91685264 6.35000000 36.69456887
v 27.13045054 -6.35000000 36.53692645
v 26.91685264 -6.35000000 36.69456887
v 29.78499623 6.35000000 34.40730068
v 29.58377623 6.35000000 34.58046450
v 29.78499623 -6.35000000 34.40730068
v 29.58377623 -6.35000000 34.58046450
v 32.27297214 6.35000000 32.08525534
v 32.08525534 6.35000000 32.27297214
v 32.27297214 -6.35000000 32.08525534
v 32.08525534 -6.35000000 32.27297214
v 34.58046450 6.35000000 29.58377623
v 34.40730068 6.35000000 29.78499623
v 34.58046450 -6.35000000 29.58377623
v 34.40730068 -6.35000000 29.78499623
v 36.69456887 6.35000000 26.91685264
v 36.53692645 6.35000000 27.13045054
v 36.69456887 -6.35000000 26.91685264
v 36.53692645 -6.35000000 27.13045054
v 38.60346233 6.35000000 24.09939910
v 38.46222290 6.35000000 24.32418036
v 38.60346233 -6.35000000 24.09939910
v 38.46222290 -6.35000000 24.32418036
v 40.29646957 6.35000000 21.14717194
v 40.17242300 6.35000000 21.38187950
v 40.29646957 -6.35000000 21.14717194
v 40.17242300 -6.35000000 21.38187950
v 41.76412260 6.35000000 18.07668121
v 41.65796261 6.35000000 18.32000250
v 41.76412260 -6.35000000 18.07668121
v 41.65796261 -6.35000000 18.32000250
v 42.99821373 6.35000000 14.90509835
v 42.91053400 6.35000000 15.15567261
v 42.99821373 -6.35000000 14.90509835
v 42.91053400 -6.35000000 15.15567261
v 43.99184139 6.35000000 11.65016014
v 43.92313228 6.35000000 11.90658606
v 43.99184139 -6.35000000 11.65016014
v 43.92313228 -6.35000000 11.90658606
v 44.73944884 6.35000000 8.33006951
v 44.69009458 6.35000000 8.59091304
v 44.73944884 -6.35000000 8.33006951
v 44.69009458 -6.35000000 8.59091304
v 45.48127860 -6.35000000 1.56896067
v 45.47135230 -6.35000000 1.83424667
v 45.48127860 6.35000000 1.56896067
v 45.47135230 6.35000000 1.83424667
v 45.23685514 6.35000000 4.96339374
v 45.20713175 6.35000000 5.22719616
v 45.23685514 -6.35000000 4.96339374
v 45.20713175 -6.35000000 5.22719616
v 35.47817650 6.42471816 20.58153725
v -19.05107599 6.90166155 32.97109134
v -19.25119713 -7.58931892 33.10708454
v 15.33487764 -6.56852979 -34.47687904
f 511 510 2
f 511 2 505
f 81 353 511
f 176 511 504
f 511 505 504
f 512 429 43
f 184 1 512
f 511 83 85
f 85 83 84
f 345 511 86
f 511 46 419
f 419 46 47
f 511 44 423
f 511 48 415
f 511 56 399
f 511 58 395
f 511 54 403
f 511 40 431
f 427 511 42
f 42 43 427
f 427 43 429
f 511 36 439
f 421 47 512
f 512 420 421
f 421 419 47
f 512 425 45
f 45 420 512
f 44 420 45
f 425 423 45
f 45 423 44
f 424 43 42
f 424 425 512
f 512 43 424
f 511 95 329
f 329 95 96
f 512 98 322
f 96 95 326
f 512 96 326
f 512 304 111
f 111 304 302
f 107 307 512
f 507 4 5
f 510 4 507
f 510 6 499
f 510 8 495
f 469 467 23
f 23 1 469
f 1 468 469
f 21 468 1
f 176 504 502
f 348 81 511
f 344 83 511
f 511 345 344
f 81 348 350
f 87 345 86
f 86 342 87
f 87 342 512
f 49 415 48
f 511 52 407
f 50 51 411
f 511 50 411
f 511 71 371
f 511 69 375
f 418 44 511
f 511 419 418
f 418 420 44
f 414 46 511
f 511 415 414
f 398 54 511
f 511 399 398
f 402 52 511
f 511 403 402
f 426 40 511
f 511 427 426
f 438 34 511
f 511 439 438
f 38 39 435
f 511 38 435
f 41 431 40
f 34 438 440
f 422 424 42
f 42 511 422
f 511 423 422
f 140 243 513
f 139 243 140
f 511 150 152
f 511 135 254
f 135 136 254
f 511 133 258
f 511 137 250
f 250 137 138
f 511 143 238
f 511 141 242
f 289 114 511
f 511 290 289
f 511 285 116
f 116 290 511
f 511 114 294
f 294 293 511
f 112 298 511
f 511 293 112
f 129 266 511
f 511 261 129
f 511 131 262
f 262 261 511
f 263 129 261
f 86 511 340
f 511 341 340
f 340 342 86
f 88 341 511
f 89 338 512
f 89 88 338
f 341 88 89
f 511 94 333
f 333 332 511
f 92 94 511
f 323 100 512
f 512 322 323
f 98 325 97
f 320 322 97
f 97 322 98
f 511 320 97
f 97 325 511
f 324 95 511
f 511 325 324
f 324 326 95
f 327 325 98
f 327 98 512
f 512 326 327
f 299 300 512
f 512 111 299
f 512 311 312
f 312 107 512
f 303 304 512
f 512 109 303
f 512 307 308
f 308 109 512
f 108 303 109
f 107 312 310
f 101 103 511
f 511 313 101
f 511 104 314
f 314 313 511
f 321 99 100
f 100 323 321
f 321 320 511
f 511 99 321
f 511 103 317
f 317 99 511
f 506 2 510
f 510 507 506
f 498 4 510
f 510 499 498
f 490 8 510
f 510 491 490
f 494 6 510
f 510 495 494
f 471 510 511
f 3 505 2
f 511 85 349
f 349 348 511
f 362 76 75
f 512 76 362
f 368 73 74
f 368 71 511
f 511 73 368
f 74 73 366
f 512 74 366
f 75 76 365
f 511 75 365
f 512 355 82
f 82 350 512
f 81 350 82
f 353 81 82
f 82 355 353
f 512 358 359
f 359 80 512
f 354 355 512
f 512 80 354
f 79 354 80
f 77 356 358
f 511 356 77
f 77 361 511
f 83 344 346
f 84 83 346
f 512 84 346
f 334 335 512
f 512 91 334
f 337 91 339
f 512 338 339
f 339 91 512
f 90 91 337
f 90 337 511
f 511 332 90
f 332 334 90
f 90 334 91
f 511 65 383
f 511 67 379
f 511 62 64
f 511 60 391
f 512 49 412
f 412 49 48
f 47 46 416
f 512 47 416
f 46 414 416
f 57 399 56
f 406 50 511
f 511 407 406
f 370 69 511
f 511 371 370
f 72 371 71
f 374 67 511
f 511 375 374
f 377 375 70
f 70 375 69
f 512 377 70
f 434 36 511
f 511 435 434
f 428 41 40
f 40 426 428
f 428 429 512
f 512 41 428
f 512 39 432
f 432 39 38
f 512 1 436
f 36 434 436
f 513 136 251
f 251 136 135
f 513 138 247
f 138 137 247
f 139 140 246
f 511 139 246
f 144 235 513
f 143 235 144
f 144 238 143
f 141 239 142
f 142 242 141
f 142 239 513
f 148 228 149
f 149 228 513
f 163 165 511
f 166 199 511
f 167 199 166
f 511 152 227
f 511 159 211
f 211 210 511
f 157 210 212
f 157 215 511
f 511 210 157
f 165 163 164
f 512 513 208
f 253 133 511
f 511 254 253
f 253 255 133
f 259 131 257
f 257 131 511
f 511 258 257
f 249 135 511
f 511 250 249
f 249 251 135
f 237 141 511
f 511 238 237
f 237 239 141
f 241 243 139
f 241 139 511
f 511 242 241
f 113 300 298
f 298 112 113
f 512 300 113
f 295 112 293
f 295 113 112
f 295 296 512
f 512 113 295
f 259 513 132
f 132 131 259
f 132 262 131
f 511 123 278
f 278 277 511
f 121 282 511
f 511 277 121
f 121 277 279
f 281 283 118
f 511 282 281
f 281 118 511
f 282 121 122
f 122 121 279
f 122 279 512
f 118 283 119
f 119 283 512
f 511 269 125
f 125 274 511
f 269 271 125
f 511 337 336
f 336 88 511
f 338 88 336
f 341 89 343
f 512 342 343
f 343 89 512
f 94 92 93
f 92 330 93
f 512 335 93
f 93 330 512
f 110 299 111
f 110 111 302
f 110 302 511
f 109 308 306
f 306 108 109
f 306 305 511
f 511 108 306
f 511 302 301
f 301 108 511
f 303 108 301
f 309 104 511
f 511 310 309
f 311 104 309
f 511 305 106
f 106 310 511
f 107 310 106
f 106 305 307
f 307 107 106
f 103 101 102
f 510 479 478
f 510 18 475
f 475 474 510
f 16 17 479
f 16 479 510
f 510 474 16
f 470 18 510
f 510 471 470
f 472 18 470
f 20 471 511
f 468 21 20
f 21 471 20
f 473 471 21
f 1 472 473
f 473 21 1
f 26 459 511
f 458 24 511
f 511 459 458
f 458 460 24
f 447 446 511
f 511 32 447
f 447 32 33
f 27 456 1
f 27 26 456
f 459 26 27
f 177 502 1
f 176 502 177
f 175 180 1
f 505 3 503
f 1 502 503
f 503 3 1
f 508 3 2
f 2 506 508
f 1 3 508
f 512 167 196
f 167 166 196
f 512 193 171
f 173 184 512
f 512 189 173
f 168 195 511
f 511 190 168
f 168 169 195
f 174 183 511
f 511 178 174
f 174 175 183
f 174 178 180
f 180 175 174
f 1 5 500
f 500 501 1
f 5 4 500
f 4 498 500
f 1 501 7
f 7 501 499
f 7 499 6
f 488 489 1
f 492 493 1
f 8 490 492
f 351 84 512
f 512 350 351
f 360 362 75
f 360 75 511
f 511 361 360
f 78 77 358
f 361 77 78
f 78 358 512
f 364 73 511
f 511 365 364
f 364 366 73
f 367 365 76
f 367 76 512
f 512 366 367
f 357 79 80
f 80 359 357
f 357 356 511
f 511 79 357
f 511 353 352
f 352 79 511
f 354 79 352
f 345 87 347
f 347 87 512
f 512 346 347
f 384 62 382
f 382 62 511
f 511 383 382
f 378 65 511
f 511 379 378
f 376 377 512
f 67 374 376
f 386 60 511
f 413 51 512
f 512 412 413
f 413 411 51
f 410 412 48
f 410 48 511
f 511 411 410
f 417 49 512
f 512 416 417
f 415 49 417
f 396 57 56
f 512 57 396
f 399 57 401
f 401 57 512
f 369 72 71
f 369 368 74
f 71 368 369
f 369 74 512
f 512 72 369
f 371 72 373
f 373 72 512
f 433 41 512
f 512 432 433
f 431 41 433
f 430 432 38
f 430 38 511
f 511 431 430
f 35 440 1
f 1 445 35
f 34 440 35
f 33 32 444
f 1 33 444
f 444 445 1
f 37 436 1
f 36 436 37
f 37 439 36
f 437 39 512
f 512 436 437
f 437 435 39
f 256 136 513
f 513 255 256
f 256 254 136
f 134 258 133
f 133 255 134
f 134 255 513
f 252 138 513
f 513 251 252
f 252 250 138
f 248 140 513
f 513 247 248
f 248 246 140
f 245 137 511
f 511 246 245
f 245 247 137
f 513 239 240
f 240 144 513
f 238 144 240
f 242 142 244
f 513 243 244
f 244 142 513
f 513 232 233
f 233 149 513
f 234 235 143
f 234 143 511
f 511 147 234
f 146 232 513
f 232 146 145
f 145 146 147
f 145 147 511
f 511 199 198
f 198 163 511
f 511 195 194
f 194 166 511
f 194 196 166
f 226 228 148
f 226 148 511
f 511 227 226
f 154 220 513
f 220 154 153
f 512 164 200
f 200 164 163
f 163 198 200
f 512 162 204
f 162 161 204
f 209 162 512
f 512 208 209
f 160 208 513
f 159 208 160
f 160 211 159
f 207 161 162
f 162 209 207
f 511 161 207
f 511 165 203
f 267 513 512
f 270 269 511
f 511 127 270
f 513 263 264
f 264 132 513
f 262 132 264
f 282 122 284
f 512 283 284
f 284 122 512
f 118 119 120
f 511 118 120
f 287 116 285
f 331 96 512
f 512 330 331
f 331 329 96
f 328 330 92
f 511 329 328
f 328 92 511
f 299 110 297
f 511 298 297
f 297 110 511
f 99 317 318
f 100 99 318
f 512 100 318
f 315 101 313
f 315 102 101
f 512 102 315
f 1 15 480
f 510 12 487
f 487 486 510
f 19 18 472
f 19 475 18
f 19 472 1
f 511 467 466
f 466 20 511
f 468 20 466
f 511 455 454
f 454 26 511
f 456 26 454
f 25 460 1
f 1 465 25
f 24 460 25
f 23 467 22
f 22 467 511
f 1 460 461
f 461 27 1
f 459 27 461
f 449 447 33
f 449 33 1
f 1 448 449
f 1 456 457
f 457 29 1
f 455 29 457
f 452 453 1
f 1 29 452
f 511 451 450
f 446 448 30
f 511 446 30
f 30 451 511
f 1 180 181
f 181 177 1
f 183 175 185
f 1 184 185
f 185 175 1
f 509 507 5
f 509 5 1
f 1 508 509
f 197 169 512
f 512 196 197
f 195 169 197
f 188 189 512
f 512 171 188
f 188 171 170
f 191 171 193
f 170 171 191
f 511 170 191
f 191 190 511
f 186 170 511
f 186 188 170
f 184 173 172
f 192 168 190
f 169 168 192
f 192 193 512
f 512 169 192
f 12 484 13
f 489 487 13
f 13 487 12
f 1 489 13
f 13 484 1
f 496 497 1
f 1 7 496
f 496 7 6
f 6 494 496
f 1 493 11
f 11 488 1
f 11 493 491
f 8 492 9
f 9 497 495
f 9 495 8
f 1 497 9
f 9 492 1
f 361 78 363
f 512 362 363
f 363 78 512
f 511 64 387
f 387 386 511
f 394 396 56
f 394 56 511
f 511 395 394
f 59 395 58
f 54 398 400
f 400 401 512
f 69 370 372
f 372 70 69
f 512 70 372
f 372 373 512
f 443 35 445
f 34 35 443
f 511 34 443
f 1 440 441
f 441 37 1
f 439 37 441
f 258 134 260
f 260 513 259
f 260 134 513
f 513 235 236
f 236 146 513
f 235 234 236
f 232 145 230
f 230 145 511
f 511 153 223
f 223 153 154
f 156 216 513
f 215 157 158
f 158 157 212
f 158 212 513
f 201 167 512
f 512 200 201
f 201 199 167
f 205 164 512
f 512 204 205
f 513 212 213
f 213 160 513
f 211 160 213
f 206 208 159
f 206 159 511
f 511 207 206
f 202 161 511
f 511 203 202
f 202 204 161
f 126 271 512
f 126 125 271
f 274 125 126
f 124 278 123
f 123 275 124
f 124 275 512
f 273 275 123
f 273 123 511
f 511 274 273
f 128 267 512
f 127 267 128
f 128 270 127
f 130 263 513
f 266 129 130
f 129 263 130
f 265 267 127
f 511 266 265
f 265 127 511
f 286 285 511
f 511 120 286
f 290 116 117
f 116 287 117
f 117 287 512
f 319 318 317
f 319 102 512
f 512 318 319
f 105 314 104
f 105 104 311
f 105 311 512
f 15 483 14
f 14 480 15
f 478 480 14
f 510 478 14
f 14 483 510
f 482 484 12
f 482 12 510
f 510 483 482
f 485 483 15
f 485 15 1
f 1 484 485
f 481 17 1
f 1 480 481
f 479 17 481
f 475 19 477
f 477 19 1
f 23 22 464
f 464 1 23
f 464 465 1
f 463 25 465
f 24 25 463
f 511 24 463
f 28 455 511
f 511 450 28
f 28 29 455
f 28 450 452
f 28 452 29
f 453 451 31
f 451 30 31
f 31 30 448
f 1 453 31
f 31 448 1
f 177 181 179
f 176 177 179
f 179 511 176
f 179 178 511
f 187 172 173
f 187 173 189
f 187 186 511
f 511 172 187
f 511 183 182
f 182 172 511
f 184 172 182
f 486 488 10
f 488 11 10
f 10 11 491
f 10 491 510
f 510 486 10
f 68 379 67
f 68 381 379
f 67 376 68
f 68 376 512
f 512 381 68
f 66 383 65
f 395 59 397
f 512 396 397
f 397 59 512
f 392 59 58
f 512 59 392
f 55 403 54
f 54 400 55
f 55 400 512
f 442 444 32
f 442 32 511
f 511 443 442
f 149 233 231
f 148 149 231
f 511 148 231
f 231 230 511
f 151 224 513
f 151 152 150
f 150 224 151
f 222 224 150
f 222 150 511
f 511 223 222
f 225 223 154
f 225 154 513
f 513 224 225
f 220 153 218
f 218 153 511
f 511 219 218
f 511 215 214
f 219 156 221
f 513 220 221
f 221 156 513
f 215 158 217
f 513 216 217
f 217 158 513
f 512 275 276
f 276 126 512
f 274 126 276
f 278 124 280
f 512 279 280
f 280 124 512
f 270 128 272
f 512 271 272
f 272 128 512
f 513 267 268
f 268 130 513
f 266 130 268
f 288 119 512
f 512 287 288
f 290 117 292
f 292 117 512
f 314 105 316
f 512 315 316
f 316 105 512
f 476 16 474
f 17 16 476
f 1 17 476
f 476 477 1
f 462 464 22
f 462 22 511
f 511 463 462
f 380 66 65
f 65 378 380
f 380 381 512
f 512 66 380
f 383 66 385
f 512 384 385
f 385 66 512
f 390 392 58
f 390 58 511
f 511 391 390
f 61 391 60
f 403 55 405
f 405 55 512
f 513 228 229
f 229 151 513
f 155 156 219
f 155 219 511
f 511 214 155
f 155 214 216
f 216 156 155
f 114 289 291
f 291 292 512
f 391 61 393
f 512 392 393
f 393 61 512
f 60 386 388
f 388 61 60
f 512 61 388
f 52 402 404
f 404 405 512
f 114 291 115
f 296 294 115
f 115 294 114
f 512 296 115
f 115 291 512
f 63 62 384
f 63 64 62
f 63 384 512
f 53 407 52
f 52 404 53
f 53 404 512
f 512 388 389
f 389 63 512
f 50 406 408
f 408 51 50
f 512 51 408
f 407 53 409
f 409 53 512
f 512 408 409
f 419 421 418
f 418 421 420
f 425 424 422
f 422 423 425
f 327 324 325
f 326 324 327
f 321 323 322
f 321 322 320
f 332 333 334
f 334 333 335
f 428 426 427
f 428 427 429
f 293 294 295
f 295 294 296
f 337 339 336
f 336 339 338
f 343 340 341
f 342 340 343
f 335 333 93
f 93 333 94
f 306 308 307
f 307 305 306
f 304 303 301
f 302 304 301
f 309 310 312
f 309 312 311
f 473 470 471
f 472 470 473
f 503 502 504
f 503 504 505
f 499 501 500
f 500 498 499
f 491 493 492
f 492 490 491
f 351 349 85
f 351 85 84
f 351 350 348
f 348 349 351
f 367 364 365
f 366 364 367
f 357 359 358
f 358 356 357
f 355 354 352
f 353 355 352
f 347 346 344
f 347 344 345
f 376 374 375
f 376 375 377
f 410 413 412
f 411 413 410
f 417 416 414
f 417 414 415
f 430 433 432
f 431 433 430
f 437 436 434
f 437 434 435
f 255 253 256
f 256 253 254
f 251 249 252
f 252 249 250
f 246 248 245
f 245 248 247
f 240 237 238
f 239 237 240
f 244 241 242
f 243 241 244
f 264 263 261
f 261 262 264
f 283 281 284
f 284 281 282
f 328 331 330
f 329 331 328
f 300 299 297
f 298 300 297
f 487 488 486
f 489 488 487
f 466 469 468
f 467 469 466
f 460 458 461
f 461 458 459
f 449 448 446
f 446 447 449
f 456 454 457
f 457 454 455
f 450 451 453
f 453 452 450
f 509 508 506
f 509 506 507
f 196 194 197
f 197 194 195
f 190 191 192
f 192 191 193
f 496 494 495
f 495 497 496
f 362 360 363
f 363 360 361
f 399 401 400
f 400 398 399
f 371 373 372
f 372 370 371
f 441 440 438
f 441 438 439
f 260 257 258
f 259 257 260
f 147 146 236
f 236 234 147
f 201 200 198
f 201 198 199
f 205 203 165
f 165 164 205
f 210 211 213
f 212 210 213
f 206 207 209
f 206 209 208
f 203 205 202
f 202 205 204
f 103 102 319
f 319 317 103
f 485 482 483
f 484 482 485
f 481 480 478
f 481 478 479
f 179 181 180
f 180 178 179
f 188 186 187
f 189 188 187
f 183 185 182
f 182 185 184
f 396 394 397
f 397 394 395
f 442 443 445
f 445 444 442
f 232 230 231
f 231 233 232
f 225 222 223
f 224 222 225
f 221 218 219
f 220 218 221
f 216 214 217
f 217 214 215
f 275 273 276
f 276 273 274
f 277 278 280
f 279 277 280
f 269 270 272
f 272 271 269
f 267 265 268
f 268 265 266
f 288 286 120
f 288 120 119
f 288 287 285
f 285 286 288
f 316 315 313
f 313 314 316
f 475 477 476
f 474 475 476
f 462 463 465
f 465 464 462
f 379 381 380
f 380 378 379
f 385 382 383
f 384 382 385
f 229 226 227
f 228 226 229
f 229 227 152
f 152 151 229
f 290 292 291
f 291 289 290
f 392 390 393
f 393 390 391
f 403 405 404
f 404 402 403
f 389 388 386
f 386 387 389
f 389 387 64
f 64 63 389
f 409 408 406
f 409 406 407

