# https://github.com/mikedh/trimesh

o p00059.obj
v 13.51520521 -100.89291977 10.99750000
v 13.55413294 -101.44961217 10.99750000
v 13.67015843 -101.99546919 10.99750000
v 13.86102338 -102.51986634 10.99750000
v 14.12301283 -103.01259683 10.99750000
v 14.45102744 -103.46407021 10.99750000
v 14.83868278 -103.86549907 10.99750000
v 15.27843360 -104.20907006 10.99750000
v 15.76172062 -104.48809595 10.99750000
v 16.27913723 -104.69714583 10.99750000
v 16.82061250 -104.83215078 10.99750000
v 17.37560722 -104.89048308 10.99750000
v 17.93331906 -104.87100735 10.99750000
v 18.48289279 -104.77410267 10.99750000
v 19.01363158 -104.60165519 10.99750000
v 19.51520521 -104.35702138 10.99750000
v 19.97785111 -104.04496278 10.99750000
v 20.39256441 -103.67155325 10.99750000
v 20.75127319 -103.24406078 10.99750000
v 21.04699558 -102.77080602 10.99750000
v 21.27397569 -102.26100034 10.99750000
v 21.42779561 -101.72456653 10.99750000
v 21.50546141 -101.17194566 10.99750000
v 21.50546141 -100.61389387 10.99750000
v 21.42779561 -100.06127300 10.99750000
v 21.27397569 -99.52483919 10.99750000
v 21.04699558 -99.01503352 10.99750000
v 20.75127319 -98.54177876 10.99750000
v 20.39256441 -98.11428629 10.99750000
v 19.97785111 -97.74087675 10.99750000
v 19.51520521 -97.42881815 10.99750000
v 19.01363158 -97.18418435 10.99750000
v 18.48289279 -97.01173686 10.99750000
v 17.93331906 -96.91483219 10.99750000
v 17.37560722 -96.89535646 10.99750000
v 16.82061250 -96.95368876 10.99750000
v 16.27913723 -97.08869370 10.99750000
v 15.76172062 -97.29774358 10.99750000
v 15.27843360 -97.57676948 10.99750000
v 14.83868278 -97.92034047 10.99750000
v 14.45102744 -98.32176933 10.99750000
v 14.12301283 -98.77324271 10.99750000
v 13.86102338 -99.26597320 10.99750000
v 13.67015843 -99.79037034 10.99750000
v 13.55413294 -100.33622736 10.99750000
v 15.41520521 -100.89291977 10.99750000
v 15.43564227 -101.18518328 10.99750000
v 15.49655565 -101.47175822 10.99750000
v 15.59675975 -101.74706672 10.99750000
v 15.73430421 -102.00575022 10.99750000
v 15.90651188 -102.24277375 10.99750000
v 16.11003094 -102.45352390 10.99750000
v 16.34090011 -102.63389867 10.99750000
v 16.59462580 -102.78038727 10.99750000
v 16.86626952 -102.89013845 10.99750000
v 17.15054404 -102.96101605 10.99750000
v 17.44191627 -102.99164050 10.99750000
v 17.73471498 -102.98141575 10.99750000
v 18.02324119 -102.93054079 10.99750000
v 18.30187906 -102.84000586 10.99750000
v 18.56520521 -102.71157312 10.99750000
v 18.80809431 -102.54774235 10.99750000
v 19.02581879 -102.35170235 10.99750000
v 19.21414090 -102.12726880 10.99750000
v 19.36939516 -101.87881005 10.99750000
v 19.48855971 -101.61116207 10.99750000
v 19.56931517 -101.32953432 10.99750000
v 19.61008972 -101.03940836 10.99750000
v 19.61008972 -100.74643117 10.99750000
v 19.56931517 -100.45630522 10.99750000
v 19.48855971 -100.17467747 10.99750000
v 19.36939516 -99.90702949 10.99750000
v 19.21414090 -99.65857074 10.99750000
v 19.02581879 -99.43413719 10.99750000
v 18.80809431 -99.23809719 10.99750000
v 18.56520521 -99.07426642 10.99750000
v 18.30187906 -98.94583367 10.99750000
v 18.02324119 -98.85529874 10.99750000
v 17.73471498 -98.80442379 10.99750000
v 17.44191627 -98.79419903 10.99750000
v 17.15054404 -98.82482349 10.99750000
v 16.86626952 -98.89570108 10.99750000
v 16.59462580 -99.00545227 10.99750000
v 16.34090011 -99.15194087 10.99750000
v 16.11003094 -99.33231563 10.99750000
v 15.90651188 -99.54306579 10.99750000
v 15.73430421 -99.78008931 10.99750000
v 15.59675975 -100.03877282 10.99750000
v 15.49655565 -100.31408132 10.99750000
v 15.43564227 -100.60065626 10.99750000
v 13.51520521 -100.89291977 11.75950000
v 13.55413294 -101.44961217 11.75950000
v 13.67015843 -101.99546919 11.75950000
v 13.86102338 -102.51986634 11.75950000
v 14.12301283 -103.01259683 11.75950000
v 14.45102744 -103.46407021 11.75950000
v 14.83868278 -103.86549907 11.75950000
v 15.27843360 -104.20907006 11.75950000
v 15.76172062 -104.48809595 11.75950000
v 16.27913723 -104.69714583 11.75950000
v 16.82061250 -104.83215078 11.75950000
v 17.37560722 -104.89048308 11.75950000
v 17.93331906 -104.87100735 11.75950000
v 18.48289279 -104.77410267 11.75950000
v 19.01363158 -104.60165519 11.75950000
v 19.51520521 -104.35702138 11.75950000
v 19.97785111 -104.04496278 11.75950000
v 20.39256441 -103.67155325 11.75950000
v 20.75127319 -103.24406078 11.75950000
v 21.04699558 -102.77080602 11.75950000
v 21.27397569 -102.26100034 11.75950000
v 21.42779561 -101.72456653 11.75950000
v 21.50546141 -101.17194566 11.75950000
v 21.50546141 -100.61389387 11.75950000
v 21.42779561 -100.06127300 11.75950000
v 21.27397569 -99.52483919 11.75950000
v 21.04699558 -99.01503352 11.75950000
v 20.75127319 -98.54177876 11.75950000
v 20.39256441 -98.11428629 11.75950000
v 19.97785111 -97.74087675 11.75950000
v 19.51520521 -97.42881815 11.75950000
v 19.01363158 -97.18418435 11.75950000
v 18.48289279 -97.01173686 11.75950000
v 17.93331906 -96.91483219 11.75950000
v 17.37560722 -96.89535646 11.75950000
v 16.82061250 -96.95368876 11.75950000
v 16.27913723 -97.08869370 11.75950000
v 15.76172062 -97.29774358 11.75950000
v 15.27843360 -97.57676948 11.75950000
v 14.83868278 -97.92034047 11.75950000
v 14.45102744 -98.32176933 11.75950000
v 14.12301283 -98.77324271 11.75950000
v 13.86102338 -99.26597320 11.75950000
v 13.67015843 -99.79037034 11.75950000
v 13.55413294 -100.33622736 11.75950000
v 15.41520521 -100.89291977 11.75950000
v 15.43564227 -101.18518328 11.75950000
v 15.49655565 -101.47175822 11.75950000
v 15.59675975 -101.74706672 11.75950000
v 15.73430421 -102.00575022 11.75950000
v 15.90651188 -102.24277375 11.75950000
v 16.11003094 -102.45352390 11.75950000
v 16.34090011 -102.63389867 11.75950000
v 16.59462580 -102.78038727 11.75950000
v 16.86626952 -102.89013845 11.75950000
v 17.15054404 -102.96101605 11.75950000
v 17.44191627 -102.99164050 11.75950000
v 17.73471498 -102.98141575 11.75950000
v 18.02324119 -102.93054079 11.75950000
v 18.30187906 -102.84000586 11.75950000
v 18.56520521 -102.71157312 11.75950000
v 18.80809431 -102.54774235 11.75950000
v 19.02581879 -102.35170235 11.75950000
v 19.21414090 -102.12726880 11.75950000
v 19.36939516 -101.87881005 11.75950000
v 19.48855971 -101.61116207 11.75950000
v 19.56931517 -101.32953432 11.75950000
v 19.61008972 -101.03940836 11.75950000
v 19.61008972 -100.74643117 11.75950000
v 19.56931517 -100.45630522 11.75950000
v 19.48855971 -100.17467747 11.75950000
v 19.36939516 -99.90702949 11.75950000
v 19.21414090 -99.65857074 11.75950000
v 19.02581879 -99.43413719 11.75950000
v 18.80809431 -99.23809719 11.75950000
v 18.56520521 -99.07426642 11.75950000
v 18.30187906 -98.94583367 11.75950000
v 18.02324119 -98.85529874 11.75950000
v 17.73471498 -98.80442379 11.75950000
v 17.44191627 -98.79419903 11.75950000
v 17.15054404 -98.82482349 11.75950000
v 16.86626952 -98.89570108 11.75950000
v 16.59462580 -99.00545227 11.75950000
v 16.34090011 -99.15194087 11.75950000
v 16.11003094 -99.33231563 11.75950000
v 15.90651188 -99.54306579 11.75950000
v 15.73430421 -99.78008931 11.75950000
v 15.59675975 -100.03877282 11.75950000
v 15.49655565 -100.31408132 11.75950000
v 15.43564227 -100.60065626 11.75950000
f 75 29 74
f 75 30 29
f 73 74 29
f 73 29 28
f 76 30 75
f 76 31 30
f 72 28 27
f 72 73 28
f 77 31 76
f 77 32 31
f 71 72 27
f 71 27 26
f 78 32 77
f 78 33 32
f 70 26 25
f 70 71 26
f 79 33 78
f 79 34 33
f 79 35 34
f 69 25 24
f 69 70 25
f 80 36 35
f 80 35 79
f 68 69 24
f 68 24 23
f 81 36 80
f 67 23 22
f 67 68 23
f 82 37 36
f 82 36 81
f 66 22 21
f 66 67 22
f 83 38 37
f 83 37 82
f 65 21 20
f 65 66 21
f 84 39 38
f 84 38 83
f 64 20 19
f 64 65 20
f 85 40 39
f 85 39 84
f 63 19 18
f 63 64 19
f 41 40 85
f 41 85 86
f 87 41 86
f 17 62 63
f 17 63 18
f 42 87 88
f 42 41 87
f 16 61 62
f 16 62 17
f 43 42 88
f 15 61 16
f 15 59 60
f 15 60 61
f 44 43 88
f 44 88 89
f 44 89 90
f 14 59 15
f 45 44 90
f 13 59 14
f 13 58 59
f 1 45 90
f 1 90 46
f 12 58 13
f 12 56 57
f 12 57 58
f 2 1 46
f 2 46 47
f 11 56 12
f 11 55 56
f 3 47 48
f 3 48 49
f 3 2 47
f 10 55 11
f 4 3 49
f 4 49 50
f 9 55 10
f 9 54 55
f 5 4 50
f 8 54 9
f 8 53 54
f 6 50 51
f 6 5 50
f 7 51 52
f 7 52 53
f 7 53 8
f 7 6 51
f 165 164 119
f 165 119 120
f 163 119 164
f 163 118 119
f 166 165 120
f 166 120 121
f 162 117 118
f 162 118 163
f 167 166 121
f 167 121 122
f 161 117 162
f 161 116 117
f 168 167 122
f 168 122 123
f 160 115 116
f 160 116 161
f 169 168 123
f 169 123 124
f 169 124 125
f 159 114 115
f 159 115 160
f 170 125 126
f 170 169 125
f 158 114 159
f 158 113 114
f 171 170 126
f 157 112 113
f 157 113 158
f 172 126 127
f 172 171 126
f 156 111 112
f 156 112 157
f 173 127 128
f 173 172 127
f 155 110 111
f 155 111 156
f 174 128 129
f 174 173 128
f 154 109 110
f 154 110 155
f 175 129 130
f 175 174 129
f 153 108 109
f 153 109 154
f 131 175 130
f 131 176 175
f 177 176 131
f 107 153 152
f 107 108 153
f 132 178 177
f 132 177 131
f 106 152 151
f 106 107 152
f 133 178 132
f 105 106 151
f 105 150 149
f 105 151 150
f 134 178 133
f 134 179 178
f 134 180 179
f 104 105 149
f 135 180 134
f 103 104 149
f 103 149 148
f 91 180 135
f 91 136 180
f 102 103 148
f 102 147 146
f 102 148 147
f 92 136 91
f 92 137 136
f 101 102 146
f 101 146 145
f 93 138 137
f 93 139 138
f 93 137 92
f 100 101 145
f 94 139 93
f 94 140 139
f 99 100 145
f 99 145 144
f 95 140 94
f 98 99 144
f 98 144 143
f 96 141 140
f 96 140 95
f 97 142 141
f 97 143 142
f 97 98 143
f 97 141 96
f 45 1 91
f 45 91 135
f 44 45 135
f 44 135 134
f 43 44 134
f 43 134 133
f 42 43 133
f 42 133 132
f 41 42 132
f 41 132 131
f 40 41 131
f 40 131 130
f 39 40 130
f 39 130 129
f 38 39 129
f 38 129 128
f 37 38 128
f 37 128 127
f 36 37 127
f 36 127 126
f 35 36 126
f 35 125 124
f 35 126 125
f 34 35 124
f 34 124 123
f 33 34 123
f 32 33 123
f 32 123 122
f 31 32 122
f 31 122 121
f 30 31 121
f 30 121 120
f 29 30 120
f 29 120 119
f 28 29 119
f 28 119 118
f 27 118 117
f 27 28 118
f 26 117 116
f 26 27 117
f 25 116 115
f 25 26 116
f 24 115 114
f 24 25 115
f 23 114 113
f 23 24 114
f 22 113 112
f 22 23 113
f 21 112 111
f 21 22 112
f 20 21 111
f 20 111 110
f 19 20 110
f 19 109 108
f 19 110 109
f 18 19 108
f 17 18 108
f 17 108 107
f 16 17 107
f 16 107 106
f 15 16 106
f 15 106 105
f 14 15 105
f 14 105 104
f 13 14 104
f 13 104 103
f 12 13 103
f 12 103 102
f 11 12 102
f 11 101 100
f 11 102 101
f 10 11 100
f 10 100 99
f 9 10 99
f 8 9 99
f 8 99 98
f 7 97 96
f 7 98 97
f 7 8 98
f 6 96 95
f 6 7 96
f 5 6 95
f 4 94 93
f 4 95 94
f 4 5 95
f 3 4 93
f 2 93 92
f 2 3 93
f 1 92 91
f 1 2 92
f 90 136 46
f 90 180 136
f 89 180 90
f 89 179 180
f 88 179 89
f 88 178 179
f 87 178 88
f 87 177 178
f 86 177 87
f 86 176 177
f 85 176 86
f 85 175 176
f 84 175 85
f 84 174 175
f 83 174 84
f 83 173 174
f 82 173 83
f 82 172 173
f 81 172 82
f 81 171 172
f 80 171 81
f 80 169 170
f 80 170 171
f 79 169 80
f 79 168 169
f 78 168 79
f 77 168 78
f 77 167 168
f 76 167 77
f 76 166 167
f 75 166 76
f 75 165 166
f 74 165 75
f 74 164 165
f 73 164 74
f 73 163 164
f 72 162 163
f 72 163 73
f 71 161 162
f 71 162 72
f 70 160 161
f 70 161 71
f 69 159 160
f 69 160 70
f 68 158 159
f 68 159 69
f 67 157 158
f 67 158 68
f 66 156 157
f 66 157 67
f 65 156 66
f 65 155 156
f 64 155 65
f 64 153 154
f 64 154 155
f 63 153 64
f 62 153 63
f 62 152 153
f 61 152 62
f 61 151 152
f 60 151 61
f 60 150 151
f 59 150 60
f 59 149 150
f 58 149 59
f 58 148 149
f 57 148 58
f 57 147 148
f 56 147 57
f 56 145 146
f 56 146 147
f 55 145 56
f 55 144 145
f 54 144 55
f 53 144 54
f 53 143 144
f 52 141 142
f 52 142 143
f 52 143 53
f 51 140 141
f 51 141 52
f 50 140 51
f 49 138 139
f 49 139 140
f 49 140 50
f 48 138 49
f 47 137 138
f 47 138 48
f 46 136 137
f 46 137 47

