# https://github.com/mikedh/trimesh
v -116.41265081 14.50000000 -10.49357650
v -116.46261024 14.50000000 -10.53738976
v -116.50642350 14.50000000 -10.58734919
v -116.54334091 14.50000000 -10.64260000
v -116.57273080 14.50000000 -10.70219682
v -116.59409032 14.50000000 -10.76511993
v -116.72729279 13.74705882 -12.65370209
v -73.88860000 14.50000000 -10.89660000
v -73.89294601 14.50000000 -10.83029269
v -73.90590968 14.50000000 -10.76511993
v -73.92726920 14.50000000 -10.70219682
v -73.95665909 14.50000000 -10.64260000
v -73.99357650 14.50000000 -10.58734919
v -74.03738976 14.50000000 -10.53738976
v -74.08734919 14.50000000 -10.49357650
v -74.14260000 14.50000000 -10.45665909
v -74.20219682 14.50000000 -10.42726920
v -65.81140000 14.50000000 -10.89660000
v -65.74334091 14.50000000 -10.64260000
v -65.77273080 14.50000000 -10.70219682
v -65.79409032 14.50000000 -10.76511993
v -65.80705399 14.50000000 -10.83029269
v -64.58738505 14.50000000 -0.81280000
v -127.00000000 14.50000000 -0.81280000
v -118.71511993 14.50000000 -8.64409032
v -118.65219682 14.50000000 -8.62273080
v -118.59260000 14.50000000 -8.59334091
v -118.53734919 14.50000000 -8.55642350
v -118.48738976 14.50000000 -8.51261024
v -118.44357650 14.50000000 -8.46265081
v -118.35590968 14.50000000 -4.41511993
v -118.37726920 14.50000000 -4.35219682
v -118.40665909 14.50000000 -4.29260000
v -118.44357650 14.50000000 -4.23734919
v -118.48738976 14.50000000 -4.18738976
v -118.53734919 14.50000000 -4.14357650
v -118.59260000 14.50000000 -4.10665909
v -118.65219682 14.50000000 -4.07726920
v -118.71511993 14.50000000 -4.05590968
v -118.78029269 14.50000000 -4.04294601
v -109.75340000 14.50000000 -4.03860000
v -109.81970731 14.50000000 -4.04294601
v -109.88488007 14.50000000 -4.05590968
v -109.94780318 14.50000000 -4.07726920
v -110.00740000 14.50000000 -4.10665909
v -110.06265081 14.50000000 -4.14357650
v -110.11261024 14.50000000 -4.18738976
v -110.15642350 14.50000000 -4.23734919
v -110.19334091 14.50000000 -4.29260000
v -110.22273080 14.50000000 -4.35219682
v -110.24409032 14.50000000 -4.41511993
v -106.14660000 14.50000000 -4.03860000
v -105.64294601 14.50000000 -4.48029269
v -105.65590968 14.50000000 -4.41511993
v -105.67726920 14.50000000 -4.35219682
v -105.70665909 14.50000000 -4.29260000
v -105.74357650 14.50000000 -4.23734919
v -105.78738976 14.50000000 -4.18738976
v -105.83734919 14.50000000 -4.14357650
v -105.89260000 14.50000000 -4.10665909
v -105.95219682 14.50000000 -4.07726920
v -106.01511993 14.50000000 -4.05590968
v -106.08029269 14.50000000 -4.04294601
v -97.05340000 14.50000000 -4.03860000
v -97.11970731 14.50000000 -4.04294601
v -97.18488007 14.50000000 -4.05590968
v -97.24780318 14.50000000 -4.07726920
v -97.30740000 14.50000000 -4.10665909
v -97.36265081 14.50000000 -4.14357650
v -97.41261024 14.50000000 -4.18738976
v -97.45642350 14.50000000 -4.23734919
v -97.49334091 14.50000000 -4.29260000
v -97.52273080 14.50000000 -4.35219682
v -97.54409032 14.50000000 -4.41511993
v -97.55705399 14.50000000 -4.48029269
v -93.44660000 14.50000000 -4.03860000
v -92.94294601 14.50000000 -4.48029269
v -92.95590968 14.50000000 -4.41511993
v -92.97726920 14.50000000 -4.35219682
v -93.00665909 14.50000000 -4.29260000
v -93.04357650 14.50000000 -4.23734919
v -93.08738976 14.50000000 -4.18738976
v -93.13734919 14.50000000 -4.14357650
v -93.19260000 14.50000000 -4.10665909
v -93.25219682 14.50000000 -4.07726920
v -93.31511993 14.50000000 -4.05590968
v -93.38029269 14.50000000 -4.04294601
v -89.63063333 13.72727273 -9.08052241
v -84.41970731 14.50000000 -4.04294601
v -84.48488007 14.50000000 -4.05590968
v -84.54780318 14.50000000 -4.07726920
v -84.60740000 14.50000000 -4.10665909
v -84.66265081 14.50000000 -4.14357650
v -84.71261024 14.50000000 -4.18738976
v -84.75642350 14.50000000 -4.23734919
v -84.79334091 14.50000000 -4.29260000
v -84.82273080 14.50000000 -4.35219682
v -84.84409032 14.50000000 -4.41511993
v -84.85705399 14.50000000 -4.48029269
v -68.04660000 14.50000000 -8.66140000
v -67.98029269 14.50000000 -8.65705399
v -67.91511993 14.50000000 -8.64409032
v -67.85219682 14.50000000 -8.62273080
v -67.79260000 14.50000000 -8.59334091
v -71.65340000 14.50000000 -8.66140000
v -72.12273080 14.50000000 -8.34780318
v -72.09334091 14.50000000 -8.40740000
v -72.05642350 14.50000000 -8.46265081
v -72.01261024 14.50000000 -8.51261024
v -71.96265081 14.50000000 -8.55642350
v -71.90740000 14.50000000 -8.59334091
v -71.84780318 14.50000000 -8.62273080
v -71.78488007 14.50000000 -8.64409032
v -71.71970731 14.50000000 -8.65705399
v -127.00000000 -12.90000000 -0.81280000
v -127.00000000 -12.08720000 0.00000000
v -127.00000000 -12.19329169 -0.00695362
v -127.00000000 -12.29756812 -0.02769549
v -127.00000000 -12.39824509 -0.06187072
v -127.00000000 -12.49360000 -0.10889455
v -127.00000000 -12.58200129 -0.16796241
v -127.00000000 -12.66193639 -0.23806361
v -127.00000000 -12.73203759 -0.31799871
v -127.00000000 -12.79110545 -0.40640000
v -127.00000000 -12.83812928 -0.50175491
v -127.00000000 -12.87230451 -0.60243188
v -127.00000000 -12.89304638 -0.70670831
v -127.00000000 12.08720000 0.00000000
v -127.00000000 12.90000000 -0.81280000
v -127.00000000 12.89304638 -0.70670831
v -127.00000000 12.87230451 -0.60243188
v -127.00000000 12.83812928 -0.50175491
v -127.00000000 12.79110545 -0.40640000
v -127.00000000 12.73203759 -0.31799871
v -127.00000000 12.66193639 -0.23806361
v -127.00000000 12.58200129 -0.16796241
v -127.00000000 12.49360000 -0.10889455
v -127.00000000 12.39824509 -0.06187072
v -127.00000000 12.29756812 -0.02769549
v -127.00000000 12.19329169 -0.00695362
v -127.00000000 14.47935816 -0.49786640
v -127.00000000 14.41778583 -0.18832141
v -127.00000000 14.31633654 0.11053859
v -127.00000000 14.17674609 0.39360000
v -127.00000000 14.00140294 0.65601958
v -127.00000000 13.79330724 0.89330724
v -127.00000000 13.55601958 1.10140294
v -127.00000000 13.29360000 1.27674609
v -127.00000000 13.01053859 1.41633654
v -127.00000000 12.71167859 1.51778583
v -127.00000000 12.40213360 1.57935816
v -127.00000000 12.08720000 1.60000000
v -127.00000000 -12.08720000 1.60000000
v -127.00000000 -12.40213360 1.57935816
v -127.00000000 -12.71167859 1.51778583
v -127.00000000 -13.01053859 1.41633654
v -127.00000000 -13.29360000 1.27674609
v -127.00000000 -13.55601958 1.10140294
v -127.00000000 -13.79330724 0.89330724
v -127.00000000 -14.00140294 0.65601958
v -127.00000000 -14.17674609 0.39360000
v -127.00000000 -14.31633654 0.11053859
v -127.00000000 -14.41778583 -0.18832141
v -127.00000000 -14.47935816 -0.49786640
v -127.00000000 -14.50000000 -0.81280000
v -64.58738505 -12.90000000 -0.81280000
v -86.54942404 -13.62727273 -12.69486455
v -86.59294601 -12.90000000 -10.83029269
v -86.60590968 -12.90000000 -10.76511993
v -86.62726920 -12.90000000 -10.70219682
v -86.65665909 -12.90000000 -10.64260000
v -86.69357650 -12.90000000 -10.58734919
v -86.73738976 -12.90000000 -10.53738976
v -86.78734919 -12.90000000 -10.49357650
v -86.84260000 -12.90000000 -10.45665909
v -86.90219682 -12.90000000 -10.42726920
v -86.96511993 -12.90000000 -10.40590968
v -87.03029269 -12.90000000 -10.39294601
v -87.09660000 -12.90000000 -10.38860000
v -90.70340000 -12.90000000 -10.38860000
v -90.76970731 -12.90000000 -10.39294601
v -90.83488007 -12.90000000 -10.40590968
v -100.69872333 -13.68964401 -9.83828577
v -112.05665909 -12.90000000 -10.64260000
v -112.09357650 -12.90000000 -10.58734919
v -112.13738976 -12.90000000 -10.53738976
v -112.18734919 -12.90000000 -10.49357650
v -112.24260000 -12.90000000 -10.45665909
v -84.86140000 -12.90000000 -8.15340000
v -84.86140000 -12.90000000 -4.54660000
v -84.85705399 -12.90000000 -8.21970731
v -84.84409032 -12.90000000 -8.28488007
v -84.82273080 -12.90000000 -8.34780318
v -84.79334091 -12.90000000 -8.40740000
v -84.75642350 -12.90000000 -8.46265081
v -84.71261024 -12.90000000 -8.51261024
v -84.66265081 -12.90000000 -8.55642350
v -84.60740000 -12.90000000 -8.59334091
v -84.54780318 -12.90000000 -8.62273080
v -84.48488007 -12.90000000 -8.64409032
v -84.41970731 -12.90000000 -8.65705399
v -84.54780318 -12.90000000 -4.07726920
v -84.60740000 -12.90000000 -4.10665909
v -84.66265081 -12.90000000 -4.14357650
v -84.71261024 -12.90000000 -4.18738976
v -84.75642350 -12.90000000 -4.23734919
v -84.79334091 -12.90000000 -4.29260000
v -84.82273080 -12.90000000 -4.35219682
v -84.84409032 -12.90000000 -4.41511993
v -84.85705399 -12.90000000 -4.48029269
v -92.97726920 -12.90000000 -8.34780318
v -92.95590968 -12.90000000 -8.28488007
v -92.94294601 -12.90000000 -8.21970731
v -92.93860000 -12.90000000 -8.15340000
v -92.93860000 -12.90000000 -4.54660000
v -92.94294601 -12.90000000 -4.48029269
v -92.95590968 -12.90000000 -4.41511993
v -92.97726920 -12.90000000 -4.35219682
v -93.00665909 -12.90000000 -4.29260000
v -93.04357650 -12.90000000 -4.23734919
v -93.08738976 -12.90000000 -4.18738976
v -93.13734919 -12.90000000 -4.14357650
v -93.19260000 -12.90000000 -4.10665909
v -93.25219682 -12.90000000 -4.07726920
v -95.25000000 -13.50689655 -3.83101780
v -110.19334091 -12.90000000 -8.40740000
v -110.15642350 -12.90000000 -8.46265081
v -110.11261024 -12.90000000 -8.51261024
v -110.06265081 -12.90000000 -8.55642350
v -110.00740000 -12.90000000 -8.59334091
v -106.08029269 -12.90000000 -4.04294601
v -69.85000000 13.70000000 -12.70000000
v -65.81140000 12.90000000 -10.89660000
v -65.80705399 12.90000000 -10.83029269
v -65.79409032 12.90000000 -10.76511993
v -65.77273080 12.90000000 -10.70219682
v -65.69236223 13.67647059 -9.93101677
v -64.58738505 12.90000000 -0.81280000
v -116.59409032 12.90000000 -10.76511993
v -116.57273080 12.90000000 -10.70219682
v -116.54334091 12.90000000 -10.64260000
v -116.50642350 12.90000000 -10.58734919
v -116.46261024 12.90000000 -10.53738976
v -116.41265081 12.90000000 -10.49357650
v -114.42789684 13.68674033 -9.20825339
v -103.26612909 13.70000000 -9.42481287
v -74.20219682 12.90000000 -10.42726920
v -74.14260000 12.90000000 -10.45665909
v -74.08734919 12.90000000 -10.49357650
v -74.03738976 12.90000000 -10.53738976
v -73.99357650 12.90000000 -10.58734919
v -73.95665909 12.90000000 -10.64260000
v -73.92726920 12.90000000 -10.70219682
v -73.90590968 12.90000000 -10.76511993
v -73.89294601 12.90000000 -10.83029269
v -73.88860000 12.90000000 -10.89660000
v -76.85449197 13.70000000 -8.69973121
v -67.12005982 13.68509317 -5.04504191
v -67.85219682 12.90000000 -8.62273080
v -67.91511993 12.90000000 -8.64409032
v -67.98029269 12.90000000 -8.65705399
v -68.04660000 12.90000000 -8.66140000
v -71.65340000 12.90000000 -8.66140000
v -71.71970731 12.90000000 -8.65705399
v -71.78488007 12.90000000 -8.64409032
v -71.84780318 12.90000000 -8.62273080
v -71.90740000 12.90000000 -8.59334091
v -71.96265081 12.90000000 -8.55642350
v -72.01261024 12.90000000 -8.51261024
v -72.05642350 12.90000000 -8.46265081
v -72.09334091 12.90000000 -8.40740000
v -72.12273080 12.90000000 -8.34780318
v -84.85705399 12.90000000 -4.48029269
v -84.84409032 12.90000000 -4.41511993
v -84.82273080 12.90000000 -4.35219682
v -84.79334091 12.90000000 -4.29260000
v -84.75642350 12.90000000 -4.23734919
v -84.71261024 12.90000000 -4.18738976
v -84.66265081 12.90000000 -4.14357650
v -84.60740000 12.90000000 -4.10665909
v -84.54780318 12.90000000 -4.07726920
v -84.48488007 12.90000000 -4.05590968
v -84.41970731 12.90000000 -4.04294601
v -97.55705399 12.90000000 -4.48029269
v -97.54409032 12.90000000 -4.41511993
v -97.52273080 12.90000000 -4.35219682
v -97.49334091 12.90000000 -4.29260000
v -97.45642350 12.90000000 -4.23734919
v -97.41261024 12.90000000 -4.18738976
v -97.36265081 12.90000000 -4.14357650
v -97.30740000 12.90000000 -4.10665909
v -97.24780318 12.90000000 -4.07726920
v -97.18488007 12.90000000 -4.05590968
v -97.11970731 12.90000000 -4.04294601
v -97.05340000 12.90000000 -4.03860000
v -93.44660000 12.90000000 -4.03860000
v -93.38029269 12.90000000 -4.04294601
v -93.31511993 12.90000000 -4.05590968
v -93.25219682 12.90000000 -4.07726920
v -93.19260000 12.90000000 -4.10665909
v -93.13734919 12.90000000 -4.14357650
v -93.08738976 12.90000000 -4.18738976
v -93.04357650 12.90000000 -4.23734919
v -93.00665909 12.90000000 -4.29260000
v -92.97726920 12.90000000 -4.35219682
v -92.95590968 12.90000000 -4.41511993
v -92.94294601 12.90000000 -4.48029269
v -110.24409032 12.90000000 -4.41511993
v -110.22273080 12.90000000 -4.35219682
v -110.19334091 12.90000000 -4.29260000
v -110.15642350 12.90000000 -4.23734919
v -110.11261024 12.90000000 -4.18738976
v -110.06265081 12.90000000 -4.14357650
v -110.00740000 12.90000000 -4.10665909
v -109.94780318 12.90000000 -4.07726920
v -109.88488007 12.90000000 -4.05590968
v -109.81970731 12.90000000 -4.04294601
v -109.75340000 12.90000000 -4.03860000
v -106.14660000 12.90000000 -4.03860000
v -106.08029269 12.90000000 -4.04294601
v -106.01511993 12.90000000 -4.05590968
v -105.95219682 12.90000000 -4.07726920
v -105.89260000 12.90000000 -4.10665909
v -105.83734919 12.90000000 -4.14357650
v -105.78738976 12.90000000 -4.18738976
v -105.74357650 12.90000000 -4.23734919
v -105.70665909 12.90000000 -4.29260000
v -105.67726920 12.90000000 -4.35219682
v -105.65590968 12.90000000 -4.41511993
v -105.64294601 12.90000000 -4.48029269
v -118.78029269 12.90000000 -4.04294601
v -118.71511993 12.90000000 -4.05590968
v -118.65219682 12.90000000 -4.07726920
v -118.59260000 12.90000000 -4.10665909
v -118.53734919 12.90000000 -4.14357650
v -118.48738976 12.90000000 -4.18738976
v -118.44357650 12.90000000 -4.23734919
v -118.40665909 12.90000000 -4.29260000
v -118.37726920 12.90000000 -4.35219682
v -118.35590968 12.90000000 -4.41511993
v -118.44357650 12.90000000 -8.46265081
v -118.48738976 12.90000000 -8.51261024
v -118.53734919 12.90000000 -8.55642350
v -118.59260000 12.90000000 -8.59334091
v -118.65219682 12.90000000 -8.62273080
v -118.71511993 12.90000000 -8.64409032
v -124.21718492 13.69477124 -6.72213649
v -63.50513545 -2.15057596 0.80000000
v -65.81140000 -1.60340000 0.00000000
v -65.80705399 -1.66970731 0.00000000
v -65.79409032 -1.73488007 0.00000000
v -65.77273080 -1.79780318 0.00000000
v -65.74334091 -1.85740000 0.00000000
v -65.70642350 -1.91265081 0.00000000
v -65.66261024 -1.96261024 0.00000000
v -65.61265081 -2.00642350 0.00000000
v -65.55740000 -2.04334091 0.00000000
v -65.49780318 -2.07273080 0.00000000
v -65.43488007 -2.09409032 0.00000000
v -65.36970731 -2.10705399 0.00000000
v -65.37719469 5.58098631 0.83063830
v -64.58738505 12.08720000 -0.00000000
v -64.58738505 -12.08720000 0.00000000
v -63.53990164 -10.97618842 1.24104771
v -74.33029269 -2.10705399 0.00000000
v -74.26511993 -2.09409032 0.00000000
v -74.20219682 -2.07273080 0.00000000
v -74.14260000 -2.04334091 0.00000000
v -74.08734919 -2.00642350 0.00000000
v -74.03738976 -1.96261024 0.00000000
v -73.99357650 -1.91265081 0.00000000
v -73.95665909 -1.85740000 0.00000000
v -73.92726920 -1.79780318 0.00000000
v -73.90590968 -1.73488007 0.00000000
v -73.89294601 -1.66970731 0.00000000
v -73.88860000 -1.60340000 0.00000000
v -76.20000000 -2.17037386 0.73846154
v -78.51140000 -1.60340000 0.00000000
v -78.50705399 -1.66970731 0.00000000
v -78.49409032 -1.73488007 0.00000000
v -78.47273080 -1.79780318 0.00000000
v -78.44334091 -1.85740000 0.00000000
v -78.40642350 -1.91265081 0.00000000
v -78.36261024 -1.96261024 0.00000000
v -78.31265081 -2.00642350 0.00000000
v -78.25740000 -2.04334091 0.00000000
v -78.19780318 -2.07273080 0.00000000
v -78.13488007 -2.09409032 0.00000000
v -78.06970731 -2.10705399 0.00000000
v -78.00340000 2.51140000 0.00000000
v -78.06970731 2.50705399 0.00000000
v -78.13488007 2.49409032 0.00000000
v -78.19780318 2.47273080 0.00000000
v -78.25740000 2.44334091 0.00000000
v -78.31265081 2.40642350 0.00000000
v -78.36261024 2.36261024 0.00000000
v -78.40642350 2.31265081 0.00000000
v -78.44334091 2.25740000 0.00000000
v -78.47273080 2.19780318 0.00000000
v -78.49409032 2.13488007 0.00000000
v -78.50705399 2.06970731 0.00000000
v -74.39660000 2.51140000 0.00000000
v -73.88860000 2.00340000 0.00000000
v -73.89294601 2.06970731 0.00000000
v -73.90590968 2.13488007 0.00000000
v -73.92726920 2.19780318 0.00000000
v -73.95665909 2.25740000 0.00000000
v -73.99357650 2.31265081 0.00000000
v -74.03738976 2.36261024 0.00000000
v -74.08734919 2.40642350 0.00000000
v -74.14260000 2.44334091 0.00000000
v -74.20219682 2.47273080 0.00000000
v -74.26511993 2.49409032 0.00000000
v -74.33029269 2.50705399 0.00000000
v -86.96511993 -2.09409032 0.00000000
v -86.90219682 -2.07273080 0.00000000
v -86.84260000 -2.04334091 0.00000000
v -86.78734919 -2.00642350 0.00000000
v -86.73738976 -1.96261024 0.00000000
v -86.69357650 -1.91265081 0.00000000
v -86.65665909 -1.85740000 0.00000000
v -86.62726920 -1.79780318 0.00000000
v -86.60590968 -1.73488007 0.00000000
v -86.59294601 -1.66970731 0.00000000
v -86.58860000 -1.60340000 0.00000000
v -86.58860000 2.00340000 0.00000000
v -86.59294601 2.06970731 0.00000000
v -86.60590968 2.13488007 0.00000000
v -86.62726920 2.19780318 0.00000000
v -86.65665909 2.25740000 0.00000000
v -86.69357650 2.31265081 0.00000000
v -86.73738976 2.36261024 0.00000000
v -86.78734919 2.40642350 0.00000000
v -86.84260000 2.44334091 0.00000000
v -86.90219682 2.47273080 0.00000000
v -86.96511993 2.49409032 0.00000000
v -87.03029269 2.50705399 0.00000000
v -103.76261024 -1.96261024 0.00000000
v -103.71265081 -2.00642350 0.00000000
v -72.16140000 -7.95340000 0.00000000
v -72.15705399 -8.01970731 0.00000000
v -72.14409032 -8.08488007 0.00000000
v -72.12273080 -8.14780318 0.00000000
v -72.09334091 -8.20740000 0.00000000
v -72.05642350 -8.26265081 0.00000000
v -72.01261024 -8.31261024 0.00000000
v -71.96265081 -8.35642350 0.00000000
v -71.90740000 -8.39334091 0.00000000
v -71.84780318 -8.42273080 0.00000000
v -71.78488007 -8.44409032 0.00000000
v -67.68679679 -8.47059813 0.80000000
v -72.16140000 -4.34660000 0.00000000
v -71.65340000 -3.83860000 0.00000000
v -71.71970731 -3.84294601 0.00000000
v -71.78488007 -3.85590968 0.00000000
v -71.84780318 -3.87726920 0.00000000
v -71.90740000 -3.90665909 0.00000000
v -71.96265081 -3.94357650 0.00000000
v -72.01261024 -3.98738976 0.00000000
v -72.05642350 -4.03734919 0.00000000
v -72.09334091 -4.09260000 0.00000000
v -72.12273080 -4.15219682 0.00000000
v -72.14409032 -4.21511993 0.00000000
v -72.15705399 -4.28029269 0.00000000
v -68.04660000 -3.83860000 0.00000000
v -67.54294601 -4.28029269 0.00000000
v -67.55590968 -4.21511993 0.00000000
v -67.57726920 -4.15219682 0.00000000
v -67.60665909 -4.09260000 0.00000000
v -67.64357650 -4.03734919 0.00000000
v -67.68738976 -3.98738976 0.00000000
v -67.73734919 -3.94357650 0.00000000
v -67.79260000 -3.90665909 0.00000000
v -67.85219682 -3.87726920 0.00000000
v -67.91511993 -3.85590968 0.00000000
v -67.98029269 -3.84294601 0.00000000
v -72.16140000 4.74660000 0.00000000
v -72.15705399 4.68029269 0.00000000
v -72.14409032 4.61511993 0.00000000
v -72.12273080 4.55219682 0.00000000
v -72.09334091 4.49260000 0.00000000
v -72.05642350 4.43734919 0.00000000
v -72.01261024 4.38738976 0.00000000
v -71.96265081 4.34357650 0.00000000
v -71.90740000 4.30665909 0.00000000
v -71.84780318 4.27726920 0.00000000
v -71.78488007 4.25590968 0.00000000
v -71.71970731 4.24294601 0.00000000
v -72.16140000 8.35340000 0.00000000
v -71.78488007 8.84409032 0.00000000
v -71.84780318 8.82273080 0.00000000
v -71.90740000 8.79334091 0.00000000
v -71.96265081 8.75642350 0.00000000
v -72.01261024 8.71261024 0.00000000
v -72.05642350 8.66265081 0.00000000
v -72.09334091 8.60740000 0.00000000
v -72.12273080 8.54780318 0.00000000
v -72.14409032 8.48488007 0.00000000
v -72.15705399 8.41970731 0.00000000
v -80.55219682 -8.42273080 0.00000000
v -80.49260000 -8.39334091 0.00000000
v -80.43734919 -8.35642350 0.00000000
v -80.38738976 -8.31261024 0.00000000
v -80.34357650 -8.26265081 0.00000000
v -80.30665909 -8.20740000 0.00000000
v -80.27726920 -8.14780318 0.00000000
v -80.25590968 -8.08488007 0.00000000
v -80.24294601 -8.01970731 0.00000000
v -80.23860000 -7.95340000 0.00000000
v -84.66265081 -8.35642350 0.00000000
v -84.60740000 -8.39334091 0.00000000
v -84.54780318 -8.42273080 0.00000000
v -84.48488007 -8.44409032 0.00000000
v -81.79503628 -8.63862451 0.80000000
v -84.35340000 -3.83860000 0.00000000
v -84.41970731 -3.84294601 0.00000000
v -84.48488007 -3.85590968 0.00000000
v -84.54780318 -3.87726920 0.00000000
v -84.60740000 -3.90665909 0.00000000
v -84.66265081 -3.94357650 0.00000000
v -84.71261024 -3.98738976 0.00000000
v -84.75642350 -4.03734919 0.00000000
v -84.79334091 -4.09260000 0.00000000
v -84.82273080 -4.15219682 0.00000000
v -84.84409032 -4.21511993 0.00000000
v -80.74660000 -3.83860000 0.00000000
v -80.23860000 -4.34660000 0.00000000
v -80.24294601 -4.28029269 0.00000000
v -80.25590968 -4.21511993 0.00000000
v -80.27726920 -4.15219682 0.00000000
v -80.30665909 -4.09260000 0.00000000
v -80.34357650 -4.03734919 0.00000000
v -80.38738976 -3.98738976 0.00000000
v -80.43734919 -3.94357650 0.00000000
v -80.49260000 -3.90665909 0.00000000
v -80.55219682 -3.87726920 0.00000000
v -80.61511993 -3.85590968 0.00000000
v -80.68029269 -3.84294601 0.00000000
v -80.74660000 4.23860000 0.00000000
v -80.68029269 4.24294601 0.00000000
v -80.61511993 4.25590968 0.00000000
v -80.55219682 4.27726920 0.00000000
v -80.49260000 4.30665909 0.00000000
v -80.43734919 4.34357650 0.00000000
v -80.38738976 4.38738976 0.00000000
v -80.34357650 4.43734919 0.00000000
v -80.30665909 4.49260000 0.00000000
v -80.27726920 4.55219682 0.00000000
v -80.25590968 4.61511993 0.00000000
v -80.24294601 4.68029269 0.00000000
v -80.23860000 4.74660000 0.00000000
v -84.35340000 4.23860000 0.00000000
v -84.86724310 8.54751735 0.66909091
v -84.85705399 4.68029269 0.00000000
v -84.84409032 4.61511993 0.00000000
v -84.82273080 4.55219682 0.00000000
v -84.79334091 4.49260000 0.00000000
v -84.75642350 4.43734919 0.00000000
v -84.71261024 4.38738976 0.00000000
v -84.66265081 4.34357650 0.00000000
v -84.60740000 4.30665909 0.00000000
v -84.54780318 4.27726920 0.00000000
v -84.48488007 4.25590968 0.00000000
v -84.41970731 4.24294601 0.00000000
v -84.35340000 8.86140000 0.00000000
v -84.41970731 8.85705399 0.00000000
v -84.48488007 8.84409032 0.00000000
v -84.54780318 8.82273080 0.00000000
v -80.74660000 8.86140000 0.00000000
v -80.23860000 8.35340000 0.00000000
v -80.24294601 8.41970731 0.00000000
v -80.25590968 8.48488007 0.00000000
v -80.27726920 8.54780318 0.00000000
v -80.30665909 8.60740000 0.00000000
v -80.34357650 8.66265081 0.00000000
v -80.38738976 8.71261024 0.00000000
v -80.43734919 8.75642350 0.00000000
v -80.49260000 8.79334091 0.00000000
v -80.55219682 8.82273080 0.00000000
v -80.61511993 8.84409032 0.00000000
v -80.68029269 8.85705399 0.00000000
v -93.31511993 -8.44409032 0.00000000
v -93.25219682 -8.42273080 0.00000000
v -93.19260000 -8.39334091 0.00000000
v -93.13734919 -8.35642350 0.00000000
v -93.08738976 -8.31261024 0.00000000
v -95.19451279 -0.74982264 0.76270677
v -96.77636540 -8.62260250 0.76363636
v -97.05340000 8.86140000 0.00000000
v -97.11970731 8.85705399 0.00000000
v -93.44660000 8.86140000 0.00000000
v -93.19260000 8.79334091 0.00000000
v -93.25219682 8.82273080 0.00000000
v -93.31511993 8.84409032 0.00000000
v -93.38029269 8.85705399 0.00000000
v -105.74357650 -4.03734919 0.00000000
v -105.78738976 -3.98738976 0.00000000
v -112.87982126 -3.39989739 0.80198511
v -110.25705399 4.68029269 0.00000000
v -110.24409032 4.61511993 0.00000000
v -110.22273080 4.55219682 0.00000000
v -110.19334091 4.49260000 0.00000000
v -110.15642350 4.43734919 0.00000000
v -110.11261024 4.38738976 0.00000000
v -109.75340000 8.86140000 0.00000000
v -109.81970731 8.85705399 0.00000000
v -109.88488007 8.84409032 0.00000000
v -109.94780318 8.82273080 0.00000000
v -106.14660000 8.86140000 0.00000000
v -106.08029269 8.85705399 0.00000000
v -116.61140000 -1.60340000 0.00000000
v -116.60705399 -1.66970731 0.00000000
v -116.59409032 -1.73488007 0.00000000
v -116.57273080 -1.79780318 0.00000000
v -116.54334091 -1.85740000 0.00000000
v -116.50642350 -1.91265081 0.00000000
v -116.46261024 -1.96261024 0.00000000
v -116.41265081 -2.00642350 0.00000000
v -116.35740000 -2.04334091 0.00000000
v -116.61140000 2.00340000 0.00000000
v -116.10340000 2.51140000 0.00000000
v -116.16970731 2.50705399 0.00000000
v -116.23488007 2.49409032 0.00000000
v -116.29780318 2.47273080 0.00000000
v -116.35740000 2.44334091 0.00000000
v -116.41265081 2.40642350 0.00000000
v -116.46261024 2.36261024 0.00000000
v -116.50642350 2.31265081 0.00000000
v -116.54334091 2.25740000 0.00000000
v -116.57273080 2.19780318 0.00000000
v -116.59409032 2.13488007 0.00000000
v -116.60705399 2.06970731 0.00000000
v -112.49660000 2.51140000 0.00000000
v -112.13738976 2.36261024 0.00000000
v -112.18734919 2.40642350 0.00000000
v -112.24260000 2.44334091 0.00000000
v -112.30219682 2.47273080 0.00000000
v -112.36511993 2.49409032 0.00000000
v -112.43029269 2.50705399 0.00000000
v -122.45340000 -3.83860000 0.00000000
v -122.51970731 -3.84294601 0.00000000
v -122.58488007 -3.85590968 0.00000000
v -122.64780318 -3.87726920 0.00000000
v -122.70740000 -3.90665909 0.00000000
v -122.76265081 -3.94357650 0.00000000
v -122.81261024 -3.98738976 0.00000000
v -122.85642350 -4.03734919 0.00000000
v -122.89334091 -4.09260000 0.00000000
v -122.92273080 -4.15219682 0.00000000
v -122.94409032 -4.21511993 0.00000000
v -122.80463263 -8.58267405 0.73513514
v -118.84660000 -3.83860000 0.00000000
v -118.40665909 -4.09260000 0.00000000
v -118.44357650 -4.03734919 0.00000000
v -118.48738976 -3.98738976 0.00000000
v -118.53734919 -3.94357650 0.00000000
v -118.59260000 -3.90665909 0.00000000
v -118.65219682 -3.87726920 0.00000000
v -118.71511993 -3.85590968 0.00000000
v -118.78029269 -3.84294601 0.00000000
v -118.84660000 4.23860000 0.00000000
v -118.78029269 4.24294601 0.00000000
v -118.71511993 4.25590968 0.00000000
v -118.65219682 4.27726920 0.00000000
v -118.59260000 4.30665909 0.00000000
v -118.53734919 4.34357650 0.00000000
v -118.48738976 4.38738976 0.00000000
v -118.44357650 4.43734919 0.00000000
v -118.40665909 4.49260000 0.00000000
v -118.37726920 4.55219682 0.00000000
v -118.35590968 4.61511993 0.00000000
v -118.34294601 4.68029269 0.00000000
v -122.45340000 4.23860000 0.00000000
v -122.94409032 4.61511993 0.00000000
v -122.92273080 4.55219682 0.00000000
v -122.89334091 4.49260000 0.00000000
v -122.85642350 4.43734919 0.00000000
v -122.81261024 4.38738976 0.00000000
v -122.76265081 4.34357650 0.00000000
v -122.70740000 4.30665909 0.00000000
v -122.64780318 4.27726920 0.00000000
v -122.58488007 4.25590968 0.00000000
v -122.51970731 4.24294601 0.00000000
v -118.59260000 8.79334091 0.00000000
v -118.65219682 8.82273080 0.00000000
v -118.71511993 8.84409032 0.00000000
v -118.78029269 8.85705399 0.00000000
v -65.36970731 -2.10705399 1.60000000
v -65.43488007 -2.09409032 1.60000000
v -65.49780318 -2.07273080 1.60000000
v -65.55740000 -2.04334091 1.60000000
v -65.61265081 -2.00642350 1.60000000
v -65.66261024 -1.96261024 1.60000000
v -65.70642350 -1.91265081 1.60000000
v -65.74334091 -1.85740000 1.60000000
v -65.77273080 -1.79780318 1.60000000
v -65.79409032 -1.73488007 1.60000000
v -65.80705399 -1.66970731 1.60000000
v -65.81140000 -1.60340000 1.60000000
v -64.58738505 12.08720000 1.60000000
v -78.55560670 0.76446796 1.20000000
v -78.50705399 2.06970731 1.60000000
v -78.49409032 2.13488007 1.60000000
v -78.47273080 2.19780318 1.60000000
v -78.44334091 2.25740000 1.60000000
v -78.40642350 2.31265081 1.60000000
v -78.36261024 2.36261024 1.60000000
v -78.31265081 2.40642350 1.60000000
v -78.25740000 2.44334091 1.60000000
v -78.19780318 2.47273080 1.60000000
v -78.13488007 2.49409032 1.60000000
v -78.06970731 2.50705399 1.60000000
v -78.00340000 2.51140000 1.60000000
v -74.39660000 2.51140000 1.60000000
v -74.33029269 2.50705399 1.60000000
v -74.26511993 2.49409032 1.60000000
v -74.20219682 2.47273080 1.60000000
v -74.14260000 2.44334091 1.60000000
v -74.08734919 2.40642350 1.60000000
v -74.03738976 2.36261024 1.60000000
v -73.99357650 2.31265081 1.60000000
v -73.95665909 2.25740000 1.60000000
v -73.92726920 2.19780318 1.60000000
v -73.90590968 2.13488007 1.60000000
v -73.89294601 2.06970731 1.60000000
v -73.88860000 2.00340000 1.60000000
v -73.88860000 -1.60340000 1.60000000
v -73.89294601 -1.66970731 1.60000000
v -73.90590968 -1.73488007 1.60000000
v -73.92726920 -1.79780318 1.60000000
v -73.95665909 -1.85740000 1.60000000
v -73.99357650 -1.91265081 1.60000000
v -74.03738976 -1.96261024 1.60000000
v -74.08734919 -2.00642350 1.60000000
v -74.14260000 -2.04334091 1.60000000
v -74.20219682 -2.07273080 1.60000000
v -74.26511993 -2.09409032 1.60000000
v -74.33029269 -2.10705399 1.60000000
v -78.06970731 -2.10705399 1.60000000
v -78.13488007 -2.09409032 1.60000000
v -78.19780318 -2.07273080 1.60000000
v -78.25740000 -2.04334091 1.60000000
v -78.31265081 -2.00642350 1.60000000
v -78.36261024 -1.96261024 1.60000000
v -78.40642350 -1.91265081 1.60000000
v -78.44334091 -1.85740000 1.60000000
v -78.47273080 -1.79780318 1.60000000
v -78.49409032 -1.73488007 1.60000000
v -78.50705399 -1.66970731 1.60000000
v -93.71556010 1.67192801 1.60000000
v -93.32257058 2.12742942 1.60000000
v -91.30077943 4.25111326 0.87272727
v -87.03029269 2.50705399 1.60000000
v -86.96511993 2.49409032 1.60000000
v -86.90219682 2.47273080 1.60000000
v -86.84260000 2.44334091 1.60000000
v -86.78734919 2.40642350 1.60000000
v -86.73738976 2.36261024 1.60000000
v -86.69357650 2.31265081 1.60000000
v -86.65665909 2.25740000 1.60000000
v -86.62726920 2.19780318 1.60000000
v -86.60590968 2.13488007 1.60000000
v -86.59294601 2.06970731 1.60000000
v -86.58860000 2.00340000 1.60000000
v -86.58860000 -1.60340000 1.60000000
v -86.59294601 -1.66970731 1.60000000
v -86.60590968 -1.73488007 1.60000000
v -86.62726920 -1.79780318 1.60000000
v -86.65665909 -1.85740000 1.60000000
v -86.69357650 -1.91265081 1.60000000
v -86.73738976 -1.96261024 1.60000000
v -86.78734919 -2.00642350 1.60000000
v -86.84260000 -2.04334091 1.60000000
v -86.90219682 -2.07273080 1.60000000
v -86.96511993 -2.09409032 1.60000000
v -94.06068398 -1.41148431 1.60000000
v -103.71265081 -2.00642350 1.60000000
v -103.76261024 -1.96261024 1.60000000
v -102.97272180 4.07741270 0.80189125
v -72.16140000 -4.34660000 1.60000000
v -72.16140000 -7.95340000 1.60000000
v -72.15705399 -4.28029269 1.60000000
v -72.14409032 -4.21511993 1.60000000
v -72.12273080 -4.15219682 1.60000000
v -72.09334091 -4.09260000 1.60000000
v -72.05642350 -4.03734919 1.60000000
v -72.01261024 -3.98738976 1.60000000
v -71.96265081 -3.94357650 1.60000000
v -71.90740000 -3.90665909 1.60000000
v -71.84780318 -3.87726920 1.60000000
v -71.78488007 -3.85590968 1.60000000
v -71.71970731 -3.84294601 1.60000000
v -71.65340000 -3.83860000 1.60000000
v -68.04660000 -3.83860000 1.60000000
v -67.98029269 -3.84294601 1.60000000
v -67.91511993 -3.85590968 1.60000000
v -67.85219682 -3.87726920 1.60000000
v -67.79260000 -3.90665909 1.60000000
v -67.73734919 -3.94357650 1.60000000
v -67.68738976 -3.98738976 1.60000000
v -67.64357650 -4.03734919 1.60000000
v -67.60665909 -4.09260000 1.60000000
v -67.57726920 -4.15219682 1.60000000
v -67.55590968 -4.21511993 1.60000000
v -67.54294601 -4.28029269 1.60000000
v -71.78488007 -8.44409032 1.60000000
v -71.84780318 -8.42273080 1.60000000
v -71.90740000 -8.39334091 1.60000000
v -71.96265081 -8.35642350 1.60000000
v -72.01261024 -8.31261024 1.60000000
v -72.05642350 -8.26265081 1.60000000
v -72.09334091 -8.20740000 1.60000000
v -72.12273080 -8.14780318 1.60000000
v -72.14409032 -8.08488007 1.60000000
v -72.15705399 -8.01970731 1.60000000
v -72.16140000 8.35340000 1.60000000
v -72.16140000 4.74660000 1.60000000
v -72.15705399 8.41970731 1.60000000
v -72.14409032 8.48488007 1.60000000
v -72.12273080 8.54780318 1.60000000
v -72.09334091 8.60740000 1.60000000
v -72.05642350 8.66265081 1.60000000
v -72.01261024 8.71261024 1.60000000
v -71.96265081 8.75642350 1.60000000
v -71.90740000 8.79334091 1.60000000
v -71.84780318 8.82273080 1.60000000
v -71.78488007 8.84409032 1.60000000
v -71.71970731 4.24294601 1.60000000
v -71.78488007 4.25590968 1.60000000
v -71.84780318 4.27726920 1.60000000
v -71.90740000 4.30665909 1.60000000
v -71.96265081 4.34357650 1.60000000
v -72.01261024 4.38738976 1.60000000
v -72.05642350 4.43734919 1.60000000
v -72.09334091 4.49260000 1.60000000
v -72.12273080 4.55219682 1.60000000
v -72.14409032 4.61511993 1.60000000
v -72.15705399 4.68029269 1.60000000
v -84.84409032 -4.21511993 1.60000000
v -84.82273080 -4.15219682 1.60000000
v -84.79334091 -4.09260000 1.60000000
v -84.75642350 -4.03734919 1.60000000
v -84.71261024 -3.98738976 1.60000000
v -84.66265081 -3.94357650 1.60000000
v -84.60740000 -3.90665909 1.60000000
v -84.54780318 -3.87726920 1.60000000
v -84.48488007 -3.85590968 1.60000000
v -84.41970731 -3.84294601 1.60000000
v -84.35340000 -3.83860000 1.60000000
v -80.74660000 -3.83860000 1.60000000
v -80.68029269 -3.84294601 1.60000000
v -80.61511993 -3.85590968 1.60000000
v -80.55219682 -3.87726920 1.60000000
v -80.49260000 -3.90665909 1.60000000
v -80.43734919 -3.94357650 1.60000000
v -80.38738976 -3.98738976 1.60000000
v -80.34357650 -4.03734919 1.60000000
v -80.30665909 -4.09260000 1.60000000
v -80.27726920 -4.15219682 1.60000000
v -80.25590968 -4.21511993 1.60000000
v -80.24294601 -4.28029269 1.60000000
v -80.23860000 -4.34660000 1.60000000
v -80.23860000 -7.95340000 1.60000000
v -80.24294601 -8.01970731 1.60000000
v -80.25590968 -8.08488007 1.60000000
v -80.27726920 -8.14780318 1.60000000
v -80.30665909 -8.20740000 1.60000000
v -80.34357650 -8.26265081 1.60000000
v -80.38738976 -8.31261024 1.60000000
v -80.43734919 -8.35642350 1.60000000
v -80.49260000 -8.39334091 1.60000000
v -80.55219682 -8.42273080 1.60000000
v -84.48488007 -8.44409032 1.60000000
v -84.54780318 -8.42273080 1.60000000
v -84.60740000 -8.39334091 1.60000000
v -84.99740482 -7.88314056 0.91851852
v -84.54780318 8.82273080 1.60000000
v -84.48488007 8.84409032 1.60000000
v -84.41970731 8.85705399 1.60000000
v -84.35340000 8.86140000 1.60000000
v -80.74660000 8.86140000 1.60000000
v -80.68029269 8.85705399 1.60000000
v -80.61511993 8.84409032 1.60000000
v -80.55219682 8.82273080 1.60000000
v -80.49260000 8.79334091 1.60000000
v -80.43734919 8.75642350 1.60000000
v -80.38738976 8.71261024 1.60000000
v -80.34357650 8.66265081 1.60000000
v -80.30665909 8.60740000 1.60000000
v -80.27726920 8.54780318 1.60000000
v -80.25590968 8.48488007 1.60000000
v -80.24294601 8.41970731 1.60000000
v -80.23860000 8.35340000 1.60000000
v -80.23860000 4.74660000 1.60000000
v -80.24294601 4.68029269 1.60000000
v -80.25590968 4.61511993 1.60000000
v -80.27726920 4.55219682 1.60000000
v -80.30665909 4.49260000 1.60000000
v -80.34357650 4.43734919 1.60000000
v -80.38738976 4.38738976 1.60000000
v -80.43734919 4.34357650 1.60000000
v -80.49260000 4.30665909 1.60000000
v -80.55219682 4.27726920 1.60000000
v -80.61511993 4.25590968 1.60000000
v -80.68029269 4.24294601 1.60000000
v -80.74660000 4.23860000 1.60000000
v -84.35340000 4.23860000 1.60000000
v -84.41970731 4.24294601 1.60000000
v -84.48488007 4.25590968 1.60000000
v -84.54780318 4.27726920 1.60000000
v -84.60740000 4.30665909 1.60000000
v -84.66265081 4.34357650 1.60000000
v -84.71261024 4.38738976 1.60000000
v -84.75642350 4.43734919 1.60000000
v -84.79334091 4.49260000 1.60000000
v -84.82273080 4.55219682 1.60000000
v -84.84409032 4.61511993 1.60000000
v -84.85705399 4.68029269 1.60000000
v -93.13734919 -8.35642350 1.60000000
v -93.19260000 -8.39334091 1.60000000
v -93.25219682 -8.42273080 1.60000000
v -93.31511993 -8.44409032 1.60000000
v -97.11970731 8.85705399 1.60000000
v -97.05340000 8.86140000 1.60000000
v -93.44660000 8.86140000 1.60000000
v -93.38029269 8.85705399 1.60000000
v -93.31511993 8.84409032 1.60000000
v -93.25219682 8.82273080 1.60000000
v -93.19260000 8.79334091 1.60000000
v -94.31930324 1.00465483 1.60000000
v -105.78738976 -3.98738976 1.60000000
v -105.74357650 -4.03734919 1.60000000
v -104.55033112 -7.32052346 0.82836879
v -110.26260362 8.56707843 0.75636364
v -109.94780318 8.82273080 1.60000000
v -109.88488007 8.84409032 1.60000000
v -109.81970731 8.85705399 1.60000000
v -109.75340000 8.86140000 1.60000000
v -106.14660000 8.86140000 1.60000000
v -106.08029269 8.85705399 1.60000000
v -110.11261024 4.38738976 1.60000000
v -110.15642350 4.43734919 1.60000000
v -110.19334091 4.49260000 1.60000000
v -110.22273080 4.55219682 1.60000000
v -110.24409032 4.61511993 1.60000000
v -110.25705399 4.68029269 1.60000000
v -116.61140000 2.00340000 1.60000000
v -116.61140000 -1.60340000 1.60000000
v -116.60705399 2.06970731 1.60000000
v -116.59409032 2.13488007 1.60000000
v -116.57273080 2.19780318 1.60000000
v -116.54334091 2.25740000 1.60000000
v -116.50642350 2.31265081 1.60000000
v -116.46261024 2.36261024 1.60000000
v -116.41265081 2.40642350 1.60000000
v -116.35740000 2.44334091 1.60000000
v -116.29780318 2.47273080 1.60000000
v -116.23488007 2.49409032 1.60000000
v -116.16970731 2.50705399 1.60000000
v -116.10340000 2.51140000 1.60000000
v -112.49660000 2.51140000 1.60000000
v -112.43029269 2.50705399 1.60000000
v -112.36511993 2.49409032 1.60000000
v -112.30219682 2.47273080 1.60000000
v -112.24260000 2.44334091 1.60000000
v -112.18734919 2.40642350 1.60000000
v -112.13738976 2.36261024 1.60000000
v -116.35740000 -2.04334091 1.60000000
v -116.41265081 -2.00642350 1.60000000
v -116.46261024 -1.96261024 1.60000000
v -116.50642350 -1.91265081 1.60000000
v -116.54334091 -1.85740000 1.60000000
v -116.57273080 -1.79780318 1.60000000
v -116.59409032 -1.73488007 1.60000000
v -116.60705399 -1.66970731 1.60000000
v -122.94409032 -4.21511993 1.60000000
v -122.92273080 -4.15219682 1.60000000
v -122.89334091 -4.09260000 1.60000000
v -122.85642350 -4.03734919 1.60000000
v -122.81261024 -3.98738976 1.60000000
v -122.76265081 -3.94357650 1.60000000
v -122.70740000 -3.90665909 1.60000000
v -122.64780318 -3.87726920 1.60000000
v -122.58488007 -3.85590968 1.60000000
v -122.51970731 -3.84294601 1.60000000
v -122.45340000 -3.83860000 1.60000000
v -118.84660000 -3.83860000 1.60000000
v -118.78029269 -3.84294601 1.60000000
v -118.71511993 -3.85590968 1.60000000
v -118.65219682 -3.87726920 1.60000000
v -118.59260000 -3.90665909 1.60000000
v -118.53734919 -3.94357650 1.60000000
v -118.48738976 -3.98738976 1.60000000
v -118.44357650 -4.03734919 1.60000000
v -118.40665909 -4.09260000 1.60000000
v -118.78029269 8.85705399 1.60000000
v -118.71511993 8.84409032 1.60000000
v -118.65219682 8.82273080 1.60000000
v -118.59260000 8.79334091 1.60000000
v -116.98966709 5.85594480 0.82758621
v -118.33860000 4.74660000 1.60000000
v -118.34294601 4.68029269 1.60000000
v -118.35590968 4.61511993 1.60000000
v -118.37726920 4.55219682 1.60000000
v -118.40665909 4.49260000 1.60000000
v -118.44357650 4.43734919 1.60000000
v -118.48738976 4.38738976 1.60000000
v -118.53734919 4.34357650 1.60000000
v -118.59260000 4.30665909 1.60000000
v -118.65219682 4.27726920 1.60000000
v -118.71511993 4.25590968 1.60000000
v -118.78029269 4.24294601 1.60000000
v -118.84660000 4.23860000 1.60000000
v -122.45340000 4.23860000 1.60000000
v -122.51970731 4.24294601 1.60000000
v -122.58488007 4.25590968 1.60000000
v -122.64780318 4.27726920 1.60000000
v -122.70740000 4.30665909 1.60000000
v -122.76265081 4.34357650 1.60000000
v -122.81261024 4.38738976 1.60000000
v -122.85642350 4.43734919 1.60000000
v -122.89334091 4.49260000 1.60000000
v -122.92273080 4.55219682 1.60000000
v -122.94409032 4.61511993 1.60000000
v -122.97059813 8.71320321 0.80000000
v -66.74346425 -13.81607806 -4.24547464
v -87.09660000 -14.50000000 -10.38860000
v -87.03029269 -14.50000000 -10.39294601
v -86.96511993 -14.50000000 -10.40590968
v -86.90219682 -14.50000000 -10.42726920
v -86.84260000 -14.50000000 -10.45665909
v -86.78734919 -14.50000000 -10.49357650
v -86.73738976 -14.50000000 -10.53738976
v -86.69357650 -14.50000000 -10.58734919
v -86.65665909 -14.50000000 -10.64260000
v -86.62726920 -14.50000000 -10.70219682
v -86.60590968 -14.50000000 -10.76511993
v -86.59294601 -14.50000000 -10.83029269
v -90.70340000 -14.50000000 -10.38860000
v -90.83488007 -14.50000000 -10.40590968
v -90.76970731 -14.50000000 -10.39294601
v -112.24260000 -14.50000000 -10.45665909
v -112.18734919 -14.50000000 -10.49357650
v -112.13738976 -14.50000000 -10.53738976
v -112.09357650 -14.50000000 -10.58734919
v -112.05665909 -14.50000000 -10.64260000
v -117.68282395 -13.70000000 -7.58709483
v -101.42598047 -14.50000000 -5.45269457
v -110.00740000 -14.50000000 -8.59334091
v -110.06265081 -14.50000000 -8.55642350
v -110.11261024 -14.50000000 -8.51261024
v -110.15642350 -14.50000000 -8.46265081
v -110.19334091 -14.50000000 -8.40740000
v -92.93860000 -14.50000000 -8.15340000
v -92.94294601 -14.50000000 -8.21970731
v -92.95590968 -14.50000000 -8.28488007
v -92.97726920 -14.50000000 -8.34780318
v -92.93860000 -14.50000000 -4.54660000
v -93.31511993 -14.50000000 -4.05590968
v -93.25219682 -14.50000000 -4.07726920
v -93.19260000 -14.50000000 -4.10665909
v -93.13734919 -14.50000000 -4.14357650
v -93.08738976 -14.50000000 -4.18738976
v -93.04357650 -14.50000000 -4.23734919
v -93.00665909 -14.50000000 -4.29260000
v -92.97726920 -14.50000000 -4.35219682
v -92.95590968 -14.50000000 -4.41511993
v -92.94294601 -14.50000000 -4.48029269
v -84.86140000 -14.50000000 -4.54660000
v -84.85705399 -14.50000000 -4.48029269
v -84.84409032 -14.50000000 -4.41511993
v -84.82273080 -14.50000000 -4.35219682
v -84.79334091 -14.50000000 -4.29260000
v -84.75642350 -14.50000000 -4.23734919
v -84.71261024 -14.50000000 -4.18738976
v -84.66265081 -14.50000000 -4.14357650
v -84.60740000 -14.50000000 -4.10665909
v -84.54780318 -14.50000000 -4.07726920
v -84.48488007 -14.50000000 -4.05590968
v -81.93731124 -13.60588235 -3.79670363
v -84.86140000 -14.50000000 -8.15340000
v -84.41970731 -14.50000000 -8.65705399
v -84.48488007 -14.50000000 -8.64409032
v -84.54780318 -14.50000000 -8.62273080
v -84.60740000 -14.50000000 -8.59334091
v -84.66265081 -14.50000000 -8.55642350
v -84.71261024 -14.50000000 -8.51261024
v -84.75642350 -14.50000000 -8.46265081
v -84.79334091 -14.50000000 -8.40740000
v -84.82273080 -14.50000000 -8.34780318
v -84.84409032 -14.50000000 -8.28488007
v -84.85705399 -14.50000000 -8.21970731
v -76.03834961 -13.70640000 -8.31625756
v -65.78098502 -12.66193638 -0.23806359
v -65.38299969 -12.49331753 -0.10938004
v -64.98537035 -12.29742453 -0.02823851
v -64.98537034 -12.87176149 -0.60257548
v -65.38299969 -12.79061996 -0.40668248
v -64.78695688 -14.47884949 -0.49702196
v -64.98576251 -14.41661410 -0.18794269
v -65.18418504 -14.31511799 0.11003382
v -65.38260757 -14.17618537 0.39250363
v -65.58141320 -14.00164040 0.65506274
v -65.78098503 -13.79330724 0.89330724
v -65.58141320 -13.55506274 1.10164040
v -65.38260757 -13.29250363 1.27618537
v -65.18418504 -13.01003383 1.41511799
v -64.98576251 -12.71205731 1.51661410
v -64.78695688 -12.40297804 1.57884949
v -65.78098502 12.66193641 -0.23806362
v -65.38299969 12.79061996 -0.40668247
v -64.98537035 12.87176149 -0.60257547
v -64.98537034 12.29742452 -0.02823851
v -65.38299969 12.49331752 -0.10938004
v -64.78695688 12.40297804 1.57884949
v -64.98576251 12.71205731 1.51661410
v -65.18418504 13.01003382 1.41511799
v -65.38260757 13.29250363 1.27618537
v -65.58141320 13.55506274 1.10164040
v -65.78098503 13.79330724 0.89330724
v -65.58141320 14.00164040 0.65506274
v -65.38260757 14.17618537 0.39250363
v -65.18418504 14.31511799 0.11003383
v -64.98576251 14.41661410 -0.18794269
v -64.78695688 14.47884949 -0.49702196
f 40 347 24
f 3 27 28
f 3 28 29
f 3 29 2
f 1 29 30
f 1 2 29
f 48 35 47
f 48 34 35
f 46 47 35
f 46 35 36
f 4 27 3
f 245 1 30
f 45 46 36
f 45 36 37
f 49 34 48
f 49 33 34
f 5 27 4
f 5 25 26
f 5 26 27
f 44 45 37
f 44 37 38
f 44 38 39
f 50 33 49
f 50 31 32
f 50 32 33
f 6 25 5
f 51 31 50
f 43 44 39
f 7 25 6
f 7 347 25
f 245 31 51
f 42 40 24
f 42 43 39
f 42 39 40
f 41 42 24
f 71 57 58
f 71 58 70
f 69 58 59
f 69 70 58
f 68 59 60
f 68 69 59
f 72 56 57
f 72 57 71
f 73 56 72
f 73 55 56
f 67 60 61
f 67 61 62
f 67 68 60
f 74 53 54
f 74 54 55
f 74 55 73
f 66 62 63
f 66 67 62
f 75 53 74
f 65 66 63
f 246 53 75
f 95 82 94
f 95 81 82
f 93 94 82
f 93 82 83
f 92 93 83
f 92 83 84
f 92 84 85
f 96 81 95
f 96 80 81
f 97 80 96
f 97 78 79
f 97 79 80
f 91 92 85
f 90 91 85
f 90 85 86
f 98 78 97
f 98 77 78
f 99 77 98
f 89 90 86
f 89 86 87
f 88 77 99
f 106 17 257
f 16 17 106
f 107 16 106
f 15 16 107
f 108 15 107
f 109 14 15
f 109 15 108
f 13 14 109
f 110 13 109
f 111 12 13
f 111 13 110
f 11 12 111
f 112 11 111
f 113 10 11
f 113 11 112
f 114 10 113
f 114 9 10
f 8 9 114
f 105 8 114
f 232 8 105
f 19 103 104
f 19 104 237
f 20 103 19
f 21 103 20
f 21 102 103
f 22 100 101
f 22 101 102
f 22 102 21
f 18 100 22
f 232 105 100
f 232 100 18
f 23 41 24
f 23 52 41
f 23 63 52
f 23 65 63
f 23 64 65
f 23 76 64
f 23 87 76
f 23 89 87
f 23 258 89
f 115 165 164
f 115 1047 165
f 127 115 164
f 126 164 163
f 126 127 164
f 125 162 161
f 125 163 162
f 125 126 163
f 124 125 161
f 123 161 160
f 123 124 161
f 122 160 159
f 122 123 160
f 158 120 121
f 158 121 122
f 158 122 159
f 157 120 158
f 156 119 120
f 156 120 157
f 155 118 119
f 155 119 156
f 154 118 155
f 154 116 117
f 154 117 118
f 153 116 154
f 24 347 129
f 152 116 153
f 152 128 116
f 152 140 128
f 141 129 130
f 141 24 129
f 151 139 140
f 151 140 152
f 150 139 151
f 150 138 139
f 142 130 131
f 142 131 132
f 142 141 130
f 149 138 150
f 143 142 132
f 148 136 137
f 148 137 138
f 148 138 149
f 144 132 133
f 144 133 134
f 144 143 132
f 147 136 148
f 145 144 134
f 146 134 135
f 146 135 136
f 146 136 147
f 146 145 134
f 228 185 186
f 228 186 187
f 229 185 228
f 227 187 188
f 227 228 187
f 230 183 184
f 230 184 185
f 230 185 229
f 226 188 1047
f 226 227 188
f 225 183 231
f 182 183 211
f 212 182 211
f 181 182 212
f 213 181 212
f 180 181 213
f 214 180 213
f 196 173 174
f 197 173 196
f 197 171 172
f 197 172 173
f 195 196 174
f 198 171 197
f 194 174 175
f 194 195 174
f 199 171 198
f 199 169 170
f 199 170 171
f 193 194 175
f 193 175 176
f 193 176 177
f 200 169 199
f 192 193 177
f 201 167 168
f 201 168 169
f 201 169 200
f 191 177 178
f 191 192 177
f 1093 167 201
f 189 180 214
f 189 178 179
f 189 179 180
f 189 191 178
f 190 214 215
f 190 189 214
f 210 215 216
f 210 190 215
f 209 210 216
f 209 216 217
f 208 209 217
f 208 217 218
f 208 218 219
f 207 208 219
f 206 207 219
f 206 219 220
f 205 220 221
f 205 206 220
f 204 205 221
f 204 221 222
f 204 222 223
f 203 204 223
f 202 203 223
f 202 223 224
f 202 224 225
f 1080 202 225
f 166 1093 1080
f 166 1026 1093
f 115 166 1080
f 115 1080 225
f 115 225 231
f 115 231 1047
f 331 129 347
f 243 341 342
f 242 342 343
f 242 343 344
f 242 243 342
f 244 341 243
f 313 335 336
f 313 336 312
f 311 336 337
f 311 312 336
f 241 242 344
f 245 341 244
f 314 333 334
f 314 334 335
f 314 335 313
f 310 311 337
f 310 337 338
f 240 241 344
f 240 344 345
f 309 310 338
f 309 338 339
f 315 333 314
f 239 345 346
f 239 346 347
f 239 240 345
f 308 309 339
f 308 339 340
f 316 333 315
f 316 332 333
f 7 239 347
f 245 308 340
f 317 129 331
f 317 332 316
f 317 331 332
f 318 129 317
f 289 325 326
f 288 289 326
f 290 323 324
f 290 324 325
f 290 325 289
f 291 323 290
f 287 326 327
f 287 327 328
f 287 288 326
f 292 321 322
f 292 322 323
f 292 323 291
f 286 287 328
f 293 321 292
f 285 328 329
f 285 286 328
f 284 329 330
f 284 285 329
f 294 320 321
f 294 321 293
f 246 284 330
f 278 301 302
f 279 301 278
f 277 278 302
f 277 302 303
f 276 277 303
f 276 303 304
f 280 301 279
f 280 300 301
f 275 276 304
f 275 304 305
f 281 300 280
f 281 299 300
f 282 299 281
f 282 298 299
f 274 275 305
f 274 305 306
f 283 297 298
f 283 298 282
f 273 274 306
f 273 306 307
f 88 273 307
f 272 257 247
f 271 247 248
f 271 272 247
f 249 271 248
f 270 271 249
f 269 249 250
f 269 270 249
f 268 250 251
f 268 269 250
f 267 251 252
f 267 268 251
f 253 267 252
f 266 267 253
f 265 253 254
f 265 266 253
f 264 254 255
f 264 265 254
f 263 264 255
f 263 255 256
f 232 263 256
f 236 237 259
f 236 259 260
f 235 236 260
f 235 260 261
f 234 235 261
f 233 234 261
f 233 261 262
f 232 233 262
f 232 262 263
f 238 129 318
f 238 318 319
f 238 319 320
f 238 320 294
f 238 294 295
f 238 295 296
f 238 296 297
f 238 297 283
f 238 283 258
f 687 1025 128
f 674 128 1025
f 646 678 679
f 627 666 667
f 647 678 646
f 647 677 678
f 645 646 679
f 626 667 668
f 626 668 669
f 626 627 667
f 628 666 627
f 648 676 677
f 648 677 647
f 934 1000 684
f 644 679 680
f 644 680 681
f 644 645 679
f 629 665 666
f 629 666 628
f 625 626 669
f 649 675 676
f 649 676 648
f 608 934 684
f 608 684 685
f 643 681 682
f 643 644 681
f 624 669 670
f 624 670 671
f 624 625 669
f 630 664 665
f 630 665 629
f 650 674 675
f 650 675 649
f 650 128 674
f 642 643 682
f 607 685 686
f 607 608 685
f 631 663 664
f 631 664 630
f 623 671 672
f 623 624 671
f 641 682 683
f 641 642 682
f 606 607 686
f 606 686 687
f 606 687 128
f 632 662 663
f 632 663 631
f 622 623 672
f 640 641 683
f 640 683 673
f 605 606 128
f 621 672 1000
f 621 622 672
f 620 661 662
f 620 662 632
f 611 673 661
f 611 640 673
f 611 661 620
f 633 1000 934
f 633 621 1000
f 652 640 611
f 599 633 934
f 639 633 599
f 612 660 652
f 612 652 611
f 116 128 650
f 116 650 651
f 638 639 599
f 638 599 600
f 659 612 613
f 659 660 612
f 601 637 638
f 601 638 600
f 658 613 614
f 658 659 613
f 602 636 637
f 602 637 601
f 615 658 614
f 615 657 658
f 603 635 636
f 603 636 602
f 616 657 615
f 616 656 657
f 634 635 603
f 634 603 604
f 617 656 616
f 617 655 656
f 779 634 604
f 779 598 634
f 618 655 617
f 618 654 655
f 653 618 619
f 653 654 618
f 598 653 619
f 590 779 610
f 597 598 779
f 597 779 438
f 596 597 438
f 596 438 439
f 933 596 439
f 933 651 598
f 933 116 651
f 553 752 592
f 568 553 592
f 568 592 593
f 568 593 594
f 567 568 594
f 567 594 595
f 566 567 595
f 437 553 554
f 437 752 553
f 436 554 555
f 436 437 554
f 556 435 436
f 556 436 555
f 434 556 557
f 434 435 556
f 433 434 557
f 433 557 558
f 559 433 558
f 559 432 433
f 560 432 559
f 560 431 432
f 430 431 560
f 430 560 561
f 429 561 562
f 429 430 561
f 428 429 562
f 428 562 563
f 427 428 563
f 427 563 564
f 426 427 564
f 552 426 564
f 539 426 552
f 425 426 539
f 494 575 576
f 396 545 546
f 495 575 494
f 493 494 576
f 493 576 577
f 493 577 578
f 397 543 544
f 397 544 545
f 397 545 396
f 395 396 546
f 522 419 521
f 522 418 419
f 520 521 419
f 520 419 420
f 520 420 421
f 496 575 495
f 496 574 575
f 523 418 522
f 523 417 418
f 398 543 397
f 492 493 578
f 519 520 421
f 394 546 547
f 394 395 546
f 497 574 496
f 497 573 574
f 491 578 579
f 491 492 578
f 524 417 523
f 524 415 416
f 524 416 417
f 399 541 542
f 399 542 543
f 399 543 398
f 393 394 547
f 393 547 548
f 518 519 421
f 518 421 422
f 518 422 423
f 490 491 579
f 490 579 580
f 525 415 524
f 517 518 423
f 498 573 497
f 498 572 573
f 392 548 549
f 392 393 548
f 400 541 399
f 400 540 541
f 499 572 498
f 499 571 572
f 876 415 525
f 876 587 415
f 401 539 540
f 401 540 400
f 391 392 549
f 391 549 550
f 391 550 551
f 516 517 423
f 516 423 424
f 515 516 424
f 515 424 425
f 489 571 499
f 489 570 571
f 489 551 570
f 390 391 551
f 701 539 401
f 477 551 489
f 378 526 515
f 378 515 425
f 378 539 701
f 378 425 539
f 402 390 551
f 402 551 477
f 538 526 378
f 538 378 379
f 414 477 478
f 414 402 477
f 537 379 380
f 537 538 379
f 413 478 479
f 413 414 478
f 536 380 381
f 536 537 380
f 480 413 479
f 412 413 480
f 362 490 580
f 362 361 490
f 362 569 565
f 362 580 581
f 362 581 569
f 535 536 381
f 535 381 382
f 411 412 480
f 411 480 481
f 534 535 382
f 534 382 383
f 410 411 481
f 410 481 482
f 533 534 383
f 533 383 384
f 409 410 482
f 409 482 483
f 532 533 384
f 532 384 385
f 408 409 483
f 408 483 484
f 510 585 586
f 510 586 587
f 531 385 386
f 531 532 385
f 511 585 510
f 511 583 584
f 511 584 585
f 407 408 484
f 407 484 485
f 530 386 387
f 530 531 386
f 512 583 511
f 512 582 583
f 406 485 486
f 406 407 485
f 388 530 387
f 529 530 388
f 513 582 512
f 513 588 582
f 405 486 487
f 405 406 486
f 488 405 487
f 528 529 388
f 528 388 389
f 514 588 513
f 404 405 488
f 403 404 488
f 403 488 361
f 527 528 389
f 527 389 377
f 509 527 377
f 460 369 370
f 460 370 459
f 458 370 371
f 458 371 372
f 458 459 370
f 461 367 368
f 461 368 369
f 461 369 460
f 457 458 372
f 462 367 461
f 456 372 373
f 456 457 372
f 463 366 367
f 463 367 462
f 455 456 373
f 455 373 374
f 455 374 375
f 464 366 463
f 464 365 366
f 454 455 375
f 453 375 376
f 453 454 375
f 452 365 464
f 452 377 365
f 440 377 452
f 440 509 377
f 349 465 453
f 349 403 361
f 349 453 376
f 349 376 403
f 476 465 349
f 441 508 509
f 441 509 440
f 350 476 349
f 442 507 508
f 442 508 441
f 475 476 350
f 351 475 350
f 474 475 351
f 443 506 507
f 443 507 442
f 352 474 351
f 353 473 474
f 353 474 352
f 444 505 506
f 444 506 443
f 445 505 444
f 445 504 505
f 354 472 473
f 354 473 353
f 471 472 354
f 446 504 445
f 446 503 504
f 355 471 354
f 447 502 503
f 447 503 446
f 356 471 355
f 356 470 471
f 448 502 447
f 448 501 502
f 357 469 470
f 357 470 356
f 449 501 448
f 449 500 501
f 358 469 357
f 358 468 469
f 359 467 468
f 359 468 358
f 450 500 449
f 450 514 500
f 466 467 359
f 360 466 359
f 348 451 466
f 348 466 360
f 363 450 451
f 363 514 450
f 364 451 348
f 364 363 451
f 362 605 128
f 362 609 605
f 362 610 609
f 362 590 610
f 362 589 590
f 362 591 589
f 362 595 591
f 362 566 595
f 362 565 566
f 116 514 363
f 116 588 514
f 116 933 588
f 996 152 1025
f 1024 1025 152
f 980 1019 1020
f 954 1007 1008
f 979 980 1020
f 979 1020 1021
f 979 1021 1022
f 981 1019 980
f 955 1007 954
f 955 1006 1007
f 953 954 1008
f 934 999 1000
f 978 979 1022
f 982 1018 1019
f 982 1019 981
f 952 1008 1009
f 952 1009 1010
f 952 953 1008
f 956 1006 955
f 956 1005 1006
f 983 1018 982
f 983 1017 1018
f 935 997 998
f 935 998 999
f 935 999 934
f 977 1022 1023
f 977 978 1022
f 951 952 1010
f 957 1003 1004
f 957 1004 1005
f 957 1005 956
f 984 1016 1017
f 984 1017 983
f 976 1023 1024
f 976 977 1023
f 976 1024 152
f 936 997 935
f 950 1010 1011
f 950 951 1010
f 958 1003 957
f 985 1016 984
f 985 1014 1015
f 985 1015 1016
f 937 996 997
f 937 997 936
f 937 152 996
f 949 1011 1012
f 949 950 1011
f 959 1003 958
f 959 1001 1002
f 959 1002 1003
f 986 1014 985
f 986 1013 1014
f 938 152 937
f 960 1001 959
f 947 949 1012
f 947 1012 1013
f 934 1000 1001
f 934 1001 960
f 961 934 960
f 987 1013 986
f 987 947 1013
f 948 947 987
f 946 961 962
f 946 934 961
f 988 975 948
f 988 948 987
f 153 976 152
f 153 651 976
f 963 946 962
f 963 945 946
f 974 975 988
f 974 988 989
f 964 945 963
f 964 944 945
f 990 973 974
f 990 974 989
f 965 944 964
f 965 943 944
f 972 990 991
f 972 973 990
f 942 965 966
f 942 943 965
f 992 972 991
f 971 972 992
f 941 966 967
f 941 942 966
f 970 992 993
f 970 971 992
f 779 941 967
f 779 967 598
f 969 970 993
f 969 993 994
f 968 969 994
f 968 994 995
f 598 968 995
f 598 651 153
f 923 940 779
f 931 779 598
f 931 778 779
f 777 778 931
f 932 777 931
f 933 777 932
f 933 598 153
f 877 929 752
f 877 927 928
f 877 928 929
f 878 927 877
f 879 927 878
f 879 926 927
f 918 553 752
f 753 918 752
f 917 753 754
f 917 918 753
f 916 754 755
f 916 917 754
f 915 755 756
f 915 916 755
f 757 915 756
f 914 915 757
f 913 757 758
f 913 914 757
f 912 758 759
f 912 913 758
f 911 759 760
f 911 912 759
f 910 760 761
f 910 911 760
f 762 910 761
f 762 909 910
f 908 762 763
f 908 909 762
f 907 763 764
f 907 908 763
f 906 907 764
f 765 906 764
f 823 887 888
f 707 899 900
f 824 885 886
f 824 886 887
f 824 887 823
f 822 823 888
f 708 899 707
f 706 707 900
f 706 900 901
f 706 901 902
f 844 769 770
f 844 770 771
f 844 771 843
f 842 771 772
f 842 843 771
f 821 822 888
f 821 888 889
f 825 885 824
f 705 902 903
f 705 706 902
f 841 772 773
f 841 773 774
f 841 842 772
f 709 899 708
f 709 898 899
f 845 769 844
f 826 885 825
f 826 884 885
f 820 821 889
f 820 889 890
f 710 898 709
f 710 897 898
f 704 705 903
f 840 841 774
f 846 767 768
f 846 768 769
f 846 769 845
f 827 884 826
f 827 883 884
f 819 890 891
f 819 820 890
f 711 897 710
f 711 896 897
f 847 767 846
f 703 704 903
f 703 903 904
f 703 904 905
f 839 774 775
f 839 840 774
f 818 891 892
f 818 819 891
f 712 896 711
f 712 895 896
f 848 767 847
f 848 766 767
f 702 703 905
f 702 905 906
f 876 839 775
f 876 775 587
f 816 818 892
f 816 892 893
f 816 893 894
f 713 895 712
f 713 894 895
f 849 765 766
f 849 766 848
f 701 702 906
f 817 816 894
f 850 765 849
f 701 906 765
f 701 765 850
f 714 894 713
f 714 817 894
f 749 701 850
f 851 749 850
f 715 817 714
f 715 838 817
f 852 749 851
f 852 748 749
f 716 837 838
f 716 838 715
f 853 747 748
f 853 748 852
f 836 837 716
f 717 836 716
f 700 883 827
f 700 827 361
f 700 880 881
f 700 881 882
f 700 882 883
f 854 747 853
f 854 746 747
f 718 836 717
f 718 835 836
f 855 746 854
f 855 745 746
f 719 835 718
f 719 834 835
f 744 855 856
f 744 745 855
f 720 834 719
f 720 833 834
f 857 744 856
f 857 743 744
f 721 833 720
f 721 832 833
f 876 587 919
f 858 743 857
f 858 742 743
f 722 832 721
f 722 831 832
f 875 919 920
f 875 920 921
f 875 876 919
f 874 875 921
f 741 858 859
f 741 742 858
f 723 830 831
f 723 831 722
f 860 741 859
f 740 741 860
f 873 921 922
f 873 922 588
f 873 874 921
f 724 830 723
f 724 829 830
f 861 740 860
f 828 829 724
f 514 873 588
f 739 740 861
f 725 828 724
f 726 361 828
f 726 828 725
f 862 377 739
f 862 739 861
f 788 731 732
f 788 732 733
f 788 733 787
f 786 733 734
f 786 787 733
f 785 786 734
f 785 734 735
f 789 731 788
f 790 730 731
f 790 731 789
f 784 785 735
f 784 735 736
f 791 730 790
f 791 728 729
f 791 729 730
f 783 784 736
f 783 736 737
f 792 728 791
f 782 783 737
f 782 737 738
f 793 726 727
f 793 727 728
f 793 728 792
f 780 782 738
f 780 738 377
f 699 361 726
f 794 699 726
f 794 726 793
f 781 377 862
f 781 780 377
f 815 781 864
f 795 698 699
f 795 699 794
f 814 864 865
f 814 815 864
f 796 697 698
f 796 698 795
f 797 697 796
f 813 865 866
f 813 814 865
f 696 697 797
f 812 866 867
f 812 813 866
f 695 797 798
f 695 696 797
f 811 867 868
f 811 812 867
f 694 798 799
f 694 695 798
f 810 868 869
f 810 811 868
f 693 799 800
f 693 694 799
f 809 869 870
f 809 810 869
f 692 800 801
f 692 693 800
f 808 870 871
f 808 871 872
f 808 809 870
f 691 801 802
f 691 692 801
f 807 808 872
f 803 691 802
f 803 690 691
f 806 807 872
f 806 872 514
f 804 689 690
f 804 690 803
f 688 804 805
f 688 689 804
f 348 688 805
f 348 805 451
f 364 806 514
f 364 451 806
f 364 348 451
f 700 152 938
f 700 938 939
f 700 939 940
f 700 940 923
f 700 923 924
f 700 924 925
f 700 925 926
f 700 926 879
f 700 879 880
f 153 364 514
f 153 514 588
f 153 588 933
f 862 863 781
f 781 863 864
f 1051 1043 1044
f 1051 1044 1045
f 1050 1045 1046
f 1050 1051 1045
f 1052 1043 1051
f 1049 1046 183
f 1049 1050 1046
f 1053 1042 1043
f 1053 1043 1052
f 1047 1042 1053
f 1040 1057 183
f 1056 1057 1040
f 1055 1040 1041
f 1055 1056 1040
f 1054 1041 1039
f 1054 1055 1041
f 1087 1032 1033
f 1086 1087 1033
f 1086 1033 1034
f 1088 1032 1087
f 1088 1031 1032
f 1085 1086 1034
f 1085 1034 1035
f 1085 1035 1036
f 1089 1031 1088
f 1084 1085 1036
f 1084 1036 1037
f 1090 1031 1089
f 1090 1029 1030
f 1090 1030 1031
f 1083 1037 1038
f 1083 1084 1037
f 1091 1028 1029
f 1091 1029 1090
f 1082 1083 1038
f 1092 1028 1091
f 1093 1038 167
f 1093 1082 1038
f 1081 1027 1028
f 1081 1039 1027
f 1081 1028 1092
f 1081 1054 1039
f 1069 1058 1054
f 1069 1054 1081
f 1070 1068 1058
f 1070 1058 1069
f 1071 1068 1070
f 1071 1067 1068
f 1072 1067 1071
f 1072 1065 1066
f 1072 1066 1067
f 1073 1065 1072
f 1074 1065 1073
f 1074 1063 1064
f 1074 1064 1065
f 1075 1063 1074
f 1076 1062 1063
f 1076 1063 1075
f 1077 1062 1076
f 1077 1061 1062
f 1078 1061 1077
f 1078 1060 1061
f 1079 1059 1060
f 1079 1060 1078
f 1080 1059 1079
f 1080 225 1059
f 1026 1080 1093
f 165 1080 1026
f 165 225 1080
f 165 1048 225
f 165 1047 1048
f 182 1041 1040
f 182 1040 183
f 181 1039 1041
f 181 1041 182
f 180 1039 181
f 179 1039 180
f 1027 1039 179
f 179 1028 1027
f 178 1029 1028
f 178 1028 179
f 177 1030 1029
f 177 1029 178
f 176 1031 1030
f 176 1030 177
f 175 1031 176
f 174 1032 1031
f 174 1033 1032
f 174 1031 175
f 173 1033 174
f 172 1034 1033
f 172 1033 173
f 171 1035 1034
f 171 1034 172
f 170 1036 1035
f 170 1035 171
f 169 1037 1036
f 169 1036 170
f 168 1038 1037
f 168 1037 169
f 167 1038 168
f 201 1082 1093
f 200 1083 1082
f 200 1082 201
f 199 1084 1083
f 199 1083 200
f 198 1085 1084
f 198 1084 199
f 197 1086 1085
f 197 1085 198
f 196 1087 1086
f 196 1086 197
f 195 1088 1087
f 195 1087 196
f 194 1089 1088
f 194 1088 195
f 193 1090 1089
f 193 1089 194
f 192 1091 1090
f 192 1090 193
f 191 1092 1091
f 191 1091 192
f 189 1081 1092
f 189 1092 191
f 1069 1081 189
f 1069 189 190
f 190 1070 1069
f 210 1071 1070
f 210 1070 190
f 209 1072 1071
f 209 1071 210
f 208 1073 1072
f 208 1072 209
f 207 1074 1073
f 207 1073 208
f 206 1075 1074
f 206 1074 207
f 205 1076 1075
f 205 1075 206
f 204 1077 1076
f 204 1076 205
f 203 1078 1077
f 203 1077 204
f 202 1079 1078
f 202 1078 203
f 1080 1079 202
f 225 1048 183
f 224 1060 1059
f 224 1059 225
f 223 1061 1060
f 223 1060 224
f 222 1062 1061
f 222 1061 223
f 221 1063 1062
f 221 1062 222
f 220 1064 1063
f 220 1063 221
f 219 1065 1064
f 219 1064 220
f 218 1066 1065
f 218 1065 219
f 217 1067 1066
f 217 1066 218
f 216 1068 1067
f 216 1067 217
f 215 1058 1068
f 215 1068 216
f 1058 214 1054
f 215 214 1058
f 213 1054 214
f 213 1055 1054
f 212 1056 1055
f 212 1055 213
f 211 1057 1056
f 211 1056 212
f 183 1057 211
f 230 1049 183
f 229 1050 1049
f 229 1049 230
f 228 1051 1050
f 228 1050 229
f 227 1052 1051
f 227 1051 228
f 226 1053 1052
f 226 1052 227
f 1047 1053 226
f 231 1048 1047
f 183 1048 231
f 188 1042 1047
f 187 1043 1042
f 187 1044 1043
f 187 1042 188
f 186 1044 187
f 185 1045 1044
f 185 1044 186
f 184 1046 1045
f 184 1045 185
f 183 1046 184
f 363 117 116
f 1096 118 117
f 1096 119 118
f 1096 117 363
f 1095 120 119
f 1095 121 120
f 1095 119 1096
f 1094 122 121
f 1094 123 122
f 1094 121 1095
f 1098 124 123
f 1098 125 124
f 1098 123 1094
f 1097 126 125
f 1097 127 126
f 1097 125 1098
f 166 115 127
f 166 127 1097
f 1109 153 154
f 1109 364 153
f 1108 154 155
f 1108 1109 154
f 1107 155 156
f 1107 1108 155
f 1106 156 157
f 1106 1107 156
f 1105 157 158
f 1105 1106 157
f 1104 158 159
f 1104 159 160
f 1104 1105 158
f 1103 160 161
f 1103 1104 160
f 1102 161 162
f 1102 1103 161
f 1101 162 163
f 1101 1102 162
f 1100 163 164
f 1100 1101 163
f 1099 164 165
f 1099 1100 164
f 1026 1099 165
f 1094 1105 1104
f 1095 1106 1105
f 1095 1107 1106
f 1095 1105 1094
f 1096 1108 1107
f 1096 1109 1108
f 1096 1107 1095
f 363 364 1109
f 363 1109 1096
f 166 1099 1026
f 1097 1100 1099
f 1097 1101 1100
f 1097 1099 166
f 1098 1102 1101
f 1098 1103 1102
f 1098 1101 1097
f 1094 1104 1103
f 1094 1103 1098
f 238 258 23
f 8 232 256
f 17 248 247
f 17 247 257
f 16 249 248
f 16 248 17
f 15 250 249
f 15 249 16
f 14 251 250
f 14 250 15
f 13 252 251
f 13 251 14
f 12 253 252
f 12 252 13
f 11 254 253
f 11 253 12
f 10 255 254
f 10 254 11
f 9 256 255
f 9 255 10
f 8 256 9
f 18 234 233
f 22 235 234
f 22 234 18
f 21 236 235
f 21 235 22
f 20 237 236
f 20 236 21
f 19 237 20
f 233 232 18
f 105 264 263
f 114 265 264
f 114 264 105
f 113 266 265
f 113 265 114
f 112 267 266
f 112 266 113
f 111 268 267
f 111 267 112
f 110 269 268
f 110 268 111
f 109 270 269
f 109 269 110
f 108 270 109
f 107 271 270
f 107 272 271
f 107 270 108
f 106 272 107
f 257 272 106
f 100 263 262
f 100 105 263
f 104 259 237
f 103 260 259
f 103 259 104
f 102 261 260
f 102 260 103
f 101 262 261
f 101 261 102
f 100 262 101
f 99 274 273
f 99 273 88
f 98 275 274
f 98 274 99
f 97 276 275
f 97 275 98
f 96 277 276
f 96 276 97
f 95 278 277
f 95 277 96
f 94 279 278
f 94 278 95
f 93 279 94
f 92 280 279
f 92 281 280
f 92 279 93
f 91 281 92
f 90 282 281
f 90 283 282
f 90 281 91
f 89 258 283
f 89 283 90
f 76 297 296
f 87 298 297
f 87 297 76
f 86 299 298
f 86 298 87
f 85 300 299
f 85 299 86
f 84 301 300
f 84 300 85
f 83 302 301
f 83 301 84
f 82 303 302
f 82 302 83
f 81 303 82
f 80 304 303
f 80 305 304
f 80 303 81
f 79 306 305
f 79 305 80
f 78 307 306
f 78 306 79
f 77 88 307
f 77 307 78
f 296 295 64
f 296 64 76
f 75 285 284
f 75 284 246
f 74 286 285
f 74 285 75
f 73 287 286
f 73 286 74
f 72 288 287
f 72 287 73
f 71 289 288
f 71 288 72
f 70 290 289
f 70 289 71
f 69 290 70
f 68 291 290
f 68 292 291
f 68 290 69
f 67 292 68
f 66 293 292
f 66 294 293
f 66 292 67
f 65 295 294
f 65 294 66
f 64 295 65
f 52 320 319
f 63 321 320
f 63 320 52
f 62 322 321
f 62 321 63
f 61 323 322
f 61 322 62
f 60 324 323
f 60 323 61
f 59 325 324
f 59 324 60
f 58 326 325
f 58 325 59
f 57 327 326
f 57 326 58
f 56 328 327
f 56 327 57
f 55 329 328
f 55 328 56
f 54 330 329
f 54 329 55
f 53 246 330
f 53 330 54
f 319 318 41
f 319 41 52
f 51 309 308
f 51 308 245
f 50 310 309
f 50 309 51
f 49 311 310
f 49 310 50
f 48 312 311
f 48 311 49
f 47 313 312
f 47 312 48
f 46 313 47
f 45 314 313
f 45 315 314
f 45 313 46
f 44 315 45
f 43 316 315
f 43 317 316
f 43 315 44
f 42 318 317
f 42 317 43
f 41 318 42
f 6 240 239
f 6 239 7
f 5 241 240
f 5 240 6
f 4 242 241
f 4 241 5
f 3 243 242
f 3 242 4
f 2 244 243
f 2 243 3
f 1 244 2
f 245 244 1
f 40 332 331
f 40 331 347
f 39 333 332
f 39 332 40
f 38 334 333
f 38 333 39
f 37 335 334
f 37 334 38
f 36 336 335
f 36 335 37
f 35 337 336
f 35 336 36
f 34 338 337
f 34 337 35
f 33 339 338
f 33 338 34
f 32 340 339
f 32 339 33
f 31 245 340
f 31 340 32
f 30 342 341
f 30 341 245
f 29 343 342
f 29 342 30
f 28 344 343
f 28 343 29
f 27 345 344
f 27 344 28
f 26 346 345
f 26 345 27
f 25 347 346
f 25 346 26
f 140 362 128
f 140 1113 362
f 139 1113 140
f 138 1114 1113
f 138 1113 139
f 137 1114 138
f 136 1110 1114
f 136 1114 137
f 135 1110 136
f 134 1111 1110
f 134 1110 135
f 133 1111 134
f 132 1112 1111
f 132 1111 133
f 131 1112 132
f 130 238 1112
f 130 1112 131
f 129 238 130
f 152 700 1115
f 151 1115 1116
f 151 152 1115
f 150 1116 1117
f 150 151 1116
f 149 1117 1118
f 149 150 1117
f 148 1118 1119
f 148 149 1118
f 147 1119 1120
f 147 148 1119
f 146 147 1120
f 145 1120 1121
f 145 146 1120
f 144 1121 1122
f 144 145 1121
f 143 1122 1123
f 143 144 1122
f 142 1123 1124
f 142 143 1123
f 141 1124 1125
f 141 142 1124
f 24 1125 23
f 24 141 1125
f 1110 1121 1120
f 1111 1122 1121
f 1111 1123 1122
f 1111 1121 1110
f 1112 1124 1123
f 1112 1125 1124
f 1112 1123 1111
f 238 23 1125
f 238 1125 1112
f 362 1115 700
f 1113 1116 1115
f 1113 1117 1116
f 1113 1115 362
f 1114 1118 1117
f 1114 1119 1118
f 1114 1117 1113
f 1110 1120 1119
f 1110 1119 1114
f 361 362 700
f 360 689 688
f 360 688 348
f 359 690 689
f 359 689 360
f 358 691 690
f 358 690 359
f 357 692 691
f 357 691 358
f 356 693 692
f 356 692 357
f 355 694 693
f 355 693 356
f 354 695 694
f 354 694 355
f 353 696 695
f 353 695 354
f 352 697 696
f 352 696 353
f 351 698 697
f 351 697 352
f 350 698 351
f 349 699 698
f 349 698 350
f 401 703 702
f 401 702 701
f 400 704 703
f 400 703 401
f 399 705 704
f 399 704 400
f 398 706 705
f 398 705 399
f 397 707 706
f 397 706 398
f 396 708 707
f 396 707 397
f 395 709 708
f 395 708 396
f 394 710 709
f 394 709 395
f 393 711 710
f 393 710 394
f 392 712 711
f 392 711 393
f 391 713 712
f 391 712 392
f 390 713 391
f 402 715 714
f 414 716 715
f 414 715 402
f 413 717 716
f 413 716 414
f 412 718 717
f 412 717 413
f 411 719 718
f 411 718 412
f 410 720 719
f 410 719 411
f 409 721 720
f 409 720 410
f 408 722 721
f 408 721 409
f 407 723 722
f 407 722 408
f 406 724 723
f 406 723 407
f 405 725 724
f 405 724 406
f 404 725 405
f 403 726 725
f 403 725 404
f 375 727 376
f 375 728 727
f 374 729 728
f 374 730 729
f 374 728 375
f 373 731 730
f 373 730 374
f 372 732 731
f 372 731 373
f 371 733 732
f 371 732 372
f 370 734 733
f 370 733 371
f 369 735 734
f 369 734 370
f 368 736 735
f 368 735 369
f 367 737 736
f 367 736 368
f 366 738 737
f 366 737 367
f 365 738 366
f 377 738 365
f 389 740 739
f 389 739 377
f 388 741 740
f 388 740 389
f 387 742 741
f 387 741 388
f 386 743 742
f 386 742 387
f 385 744 743
f 385 743 386
f 384 745 744
f 384 744 385
f 383 746 745
f 383 745 384
f 382 747 746
f 382 746 383
f 381 748 747
f 381 747 382
f 380 749 748
f 380 748 381
f 379 749 380
f 378 701 749
f 378 749 379
f 587 750 930
f 587 751 750
f 752 751 587
f 437 754 753
f 437 753 752
f 436 755 754
f 436 754 437
f 435 756 755
f 435 755 436
f 434 757 756
f 434 756 435
f 433 758 757
f 433 757 434
f 432 759 758
f 432 758 433
f 431 760 759
f 431 759 432
f 430 761 760
f 430 760 431
f 429 762 761
f 429 761 430
f 428 763 762
f 428 762 429
f 427 763 428
f 426 764 763
f 426 763 427
f 424 765 425
f 424 766 765
f 423 767 766
f 423 768 767
f 423 766 424
f 422 769 768
f 422 768 423
f 421 770 769
f 421 769 422
f 420 771 770
f 420 770 421
f 419 772 771
f 419 771 420
f 418 773 772
f 418 772 419
f 417 774 773
f 417 773 418
f 416 775 774
f 416 774 417
f 415 587 775
f 415 775 416
f 587 776 779
f 439 778 777
f 439 777 933
f 438 779 778
f 438 778 439
f 699 349 361
f 403 376 727
f 726 403 727
f 713 402 714
f 713 390 402
f 426 425 765
f 764 426 765
f 489 818 816
f 499 819 818
f 499 818 489
f 498 820 819
f 498 819 499
f 497 821 820
f 497 820 498
f 496 822 821
f 496 821 497
f 495 823 822
f 495 822 496
f 494 824 823
f 494 823 495
f 493 825 824
f 493 824 494
f 492 826 825
f 492 825 493
f 491 827 826
f 491 826 492
f 490 361 827
f 490 827 491
f 488 829 828
f 488 828 361
f 487 830 829
f 487 829 488
f 486 831 830
f 486 830 487
f 485 832 831
f 485 831 486
f 484 833 832
f 484 832 485
f 483 834 833
f 483 833 484
f 482 835 834
f 482 834 483
f 481 836 835
f 481 835 482
f 480 837 836
f 480 836 481
f 479 838 837
f 479 837 480
f 478 838 479
f 477 817 838
f 477 838 478
f 465 795 794
f 476 796 795
f 476 795 465
f 475 797 796
f 475 796 476
f 474 798 797
f 474 797 475
f 473 799 798
f 473 798 474
f 472 800 799
f 472 799 473
f 471 801 800
f 471 800 472
f 470 802 801
f 470 801 471
f 469 803 802
f 469 802 470
f 468 804 803
f 468 803 469
f 467 805 804
f 467 804 468
f 466 805 467
f 451 805 466
f 450 807 806
f 450 806 451
f 449 808 807
f 449 807 450
f 448 809 808
f 448 808 449
f 447 810 809
f 447 809 448
f 446 811 810
f 446 810 447
f 445 812 811
f 445 811 446
f 444 813 812
f 444 812 445
f 443 814 813
f 443 813 444
f 442 815 814
f 442 814 443
f 441 815 442
f 440 781 815
f 440 815 441
f 452 782 780
f 464 783 782
f 464 782 452
f 463 784 783
f 463 783 464
f 462 785 784
f 462 784 463
f 461 786 785
f 461 785 462
f 460 787 786
f 460 786 461
f 459 788 787
f 459 787 460
f 458 789 788
f 458 788 459
f 457 790 789
f 457 789 458
f 456 791 790
f 456 790 457
f 455 792 791
f 455 791 456
f 454 793 792
f 454 792 455
f 453 793 454
f 553 877 752
f 568 878 877
f 568 877 553
f 567 879 878
f 567 878 568
f 566 880 879
f 566 879 567
f 565 880 566
f 569 882 881
f 581 883 882
f 581 882 569
f 580 884 883
f 580 883 581
f 579 885 884
f 579 884 580
f 578 886 885
f 578 885 579
f 577 887 886
f 577 886 578
f 576 888 887
f 576 887 577
f 575 889 888
f 575 888 576
f 574 890 889
f 574 889 575
f 573 891 890
f 573 890 574
f 572 892 891
f 572 891 573
f 571 892 572
f 570 893 892
f 570 892 571
f 550 894 551
f 550 895 894
f 549 896 895
f 549 897 896
f 549 895 550
f 548 898 897
f 548 897 549
f 547 899 898
f 547 898 548
f 546 900 899
f 546 899 547
f 545 901 900
f 545 900 546
f 544 902 901
f 544 901 545
f 543 903 902
f 543 902 544
f 542 904 903
f 542 903 543
f 541 905 904
f 541 904 542
f 540 905 541
f 539 906 905
f 539 905 540
f 552 908 907
f 564 909 908
f 564 908 552
f 563 910 909
f 563 909 564
f 562 911 910
f 562 910 563
f 561 912 911
f 561 911 562
f 560 913 912
f 560 912 561
f 559 914 913
f 559 913 560
f 558 915 914
f 558 914 559
f 557 916 915
f 557 915 558
f 556 917 916
f 556 916 557
f 555 918 917
f 555 917 556
f 554 918 555
f 553 918 554
f 526 851 850
f 538 852 851
f 538 851 526
f 537 853 852
f 537 852 538
f 536 854 853
f 536 853 537
f 535 855 854
f 535 854 536
f 534 856 855
f 534 855 535
f 533 857 856
f 533 856 534
f 532 858 857
f 532 857 533
f 531 859 858
f 531 858 532
f 530 860 859
f 530 859 531
f 529 861 860
f 529 860 530
f 528 861 529
f 527 862 861
f 527 861 528
f 508 863 509
f 508 864 863
f 507 865 864
f 507 866 865
f 507 864 508
f 506 867 866
f 506 866 507
f 505 868 867
f 505 867 506
f 504 869 868
f 504 868 505
f 503 870 869
f 503 869 504
f 502 871 870
f 502 870 503
f 501 872 871
f 501 871 502
f 500 514 872
f 500 872 501
f 513 874 873
f 513 873 514
f 512 875 874
f 512 874 513
f 511 876 875
f 511 875 512
f 510 876 511
f 587 876 510
f 525 840 839
f 525 839 876
f 524 841 840
f 524 840 525
f 523 842 841
f 523 841 524
f 522 843 842
f 522 842 523
f 521 844 843
f 521 843 522
f 520 845 844
f 520 844 521
f 519 846 845
f 519 845 520
f 518 847 846
f 518 846 519
f 517 848 847
f 517 847 518
f 516 849 848
f 516 848 517
f 515 849 516
f 590 924 923
f 590 923 779
f 589 924 590
f 591 926 925
f 595 927 926
f 595 926 591
f 594 928 927
f 594 927 595
f 593 929 928
f 593 928 594
f 592 752 929
f 592 929 593
f 587 751 752
f 587 750 751
f 587 930 750
f 587 779 776
f 586 919 587
f 585 920 919
f 585 919 586
f 584 921 920
f 584 920 585
f 583 922 921
f 583 921 584
f 582 588 922
f 582 922 583
f 608 936 935
f 608 935 934
f 607 937 936
f 607 936 608
f 606 938 937
f 606 937 607
f 605 938 606
f 609 940 939
f 610 779 940
f 610 940 609
f 604 942 941
f 604 941 779
f 603 943 942
f 603 942 604
f 602 944 943
f 602 943 603
f 601 945 944
f 601 944 602
f 600 946 945
f 600 945 601
f 599 946 600
f 934 946 599
f 597 932 931
f 597 931 598
f 596 933 932
f 596 932 597
f 793 465 794
f 793 453 465
f 781 452 780
f 781 440 452
f 817 489 816
f 817 477 489
f 862 509 863
f 862 527 509
f 849 526 850
f 849 515 526
f 906 552 907
f 906 539 552
f 893 551 894
f 893 570 551
f 880 569 881
f 880 565 569
f 924 591 925
f 924 589 591
f 938 609 939
f 938 605 609
f 620 949 947
f 632 950 949
f 632 949 620
f 631 951 950
f 631 950 632
f 630 952 951
f 630 951 631
f 629 953 952
f 629 952 630
f 628 954 953
f 628 953 629
f 627 955 954
f 627 954 628
f 626 956 955
f 626 955 627
f 625 957 956
f 625 956 626
f 624 958 957
f 624 957 625
f 623 959 958
f 623 958 624
f 622 960 959
f 622 959 623
f 621 960 622
f 633 962 961
f 639 963 962
f 639 962 633
f 638 964 963
f 638 963 639
f 637 965 964
f 637 964 638
f 636 966 965
f 636 965 637
f 635 967 966
f 635 966 636
f 634 598 967
f 634 967 635
f 619 969 968
f 619 968 598
f 618 970 969
f 618 969 619
f 617 971 970
f 617 970 618
f 616 972 971
f 616 971 617
f 615 973 972
f 615 972 616
f 614 974 973
f 614 973 615
f 613 975 974
f 613 974 614
f 612 975 613
f 611 948 975
f 611 975 612
f 687 997 996
f 687 996 1025
f 686 998 997
f 686 997 687
f 685 999 998
f 685 998 686
f 684 1000 999
f 684 999 685
f 672 1001 1000
f 672 1002 1001
f 671 1003 1002
f 671 1004 1003
f 671 1002 672
f 670 1005 1004
f 670 1004 671
f 669 1006 1005
f 669 1005 670
f 668 1007 1006
f 668 1006 669
f 667 1008 1007
f 667 1007 668
f 666 1009 1008
f 666 1008 667
f 665 1010 1009
f 665 1009 666
f 664 1011 1010
f 664 1010 665
f 663 1012 1011
f 663 1011 664
f 662 1012 663
f 661 1013 1012
f 661 1012 662
f 673 1015 1014
f 683 1016 1015
f 683 1015 673
f 682 1017 1016
f 682 1016 683
f 681 1018 1017
f 681 1017 682
f 680 1019 1018
f 680 1018 681
f 679 1020 1019
f 679 1019 680
f 678 1021 1020
f 678 1020 679
f 677 1022 1021
f 677 1021 678
f 676 1023 1022
f 676 1022 677
f 675 1024 1023
f 675 1023 676
f 674 1025 1024
f 674 1024 675
f 652 988 987
f 660 989 988
f 660 988 652
f 659 990 989
f 659 989 660
f 658 991 990
f 658 990 659
f 657 992 991
f 657 991 658
f 656 993 992
f 656 992 657
f 655 994 993
f 655 993 656
f 654 995 994
f 654 994 655
f 653 598 995
f 653 995 654
f 650 977 976
f 650 976 651
f 649 978 977
f 649 977 650
f 648 979 978
f 648 978 649
f 647 980 979
f 647 979 648
f 646 981 980
f 646 980 647
f 645 982 981
f 645 981 646
f 644 983 982
f 644 982 645
f 643 984 983
f 643 983 644
f 642 985 984
f 642 984 643
f 641 986 985
f 641 985 642
f 640 986 641
f 960 633 961
f 960 621 633
f 948 620 947
f 948 611 620
f 986 652 987
f 986 640 652
f 1013 673 1014
f 1013 661 673

