# https://github.com/mikedh/trimesh
v -56.96100000 49.59394297 7.19324314
v -68.75207321 37.93656240 7.48472127
v -68.67030674 39.33638980 7.37362721
v -68.74132526 37.48444163 7.53125398
v -68.74132526 -37.48444163 7.53125398
v -57.05113498 -49.59358793 7.19344812
v -56.96100000 -49.59394297 7.19324314
v 56.96100000 -49.59394297 7.19324314
v 68.67030674 -39.33638980 7.37362721
v 68.74132526 37.48444163 7.53125398
v 65.41714301 -47.97208141 -3.32714722
v -62.70561169 47.50762118 -6.30880535
v -58.72881162 -49.82677834 -4.45777641
v -45.01394364 -50.00922698 -6.62782299
v 56.96100000 -49.91100000 -4.42608151
v 56.96099993 -49.91099828 -6.95393655
v 42.51286512 -50.55632358 -13.05856582
v -42.36227955 -49.91100000 -14.03095659
v -68.96004982 -37.91101438 -7.00982709
v -68.96100000 -37.91100000 -4.42608151
v -56.96100000 -49.89760254 -4.37608151
v -61.68830376 -48.93831824 -4.20794023
v -68.84505549 -39.47556559 -4.37608151
v -68.96100000 37.91100000 -4.42608151
v -56.96100000 49.91100000 -4.42608151
v -68.85833834 39.47731431 -4.42608151
v -58.52556559 49.79505549 -4.37608151
v -61.93275099 48.75581414 -4.17101864
v -67.30202769 44.05436654 -4.34889809
v -68.96010726 37.91101437 -7.01000209
v -56.96099993 49.91099828 -6.95393655
v -68.42153976 41.87986059 -7.02463382
v -48.99994754 37.60767541 -14.72848936
v -44.45000000 29.91100000 -15.12608151
v 44.45000000 -29.91100000 -15.12608151
v 48.96100000 -25.40000000 -15.12608151
v 48.96100000 25.40000000 -15.12608151
v 44.45000000 29.91100000 -15.12608151
v -45.96663067 37.56047168 -14.74360793
v -44.45000000 37.55963037 -14.74365008
v -42.36227955 49.81599376 -14.13083182
v 42.36227955 49.81599376 -14.13083182
v 44.45000000 37.55963037 -14.74364999
v 48.94353851 37.55906216 -14.74233035
v 63.96427588 36.69963634 -14.37899299
v 65.84336736 33.24210233 -14.27016453
v 65.89773646 32.08568245 -14.27924469
v 68.90289892 23.56698686 -14.10846327
v 68.86599376 -23.31664690 -14.13083182
v 65.87200264 -33.84238413 -14.28453478
v 53.85265990 -37.59910296 -14.69560809
v 42.36227955 -49.81599376 -14.13083182
v -42.36227955 -49.81599376 -14.13083182
v -65.82673905 -33.30407350 -14.27121886
v -68.86599376 -23.31664690 -14.13083182
v 68.96100000 37.91100000 -4.42608151
v 68.96010850 37.91103726 -7.00999728
v 68.96100000 23.31664690 -14.03095659
v 68.94842313 23.31664690 -14.07950755
v 68.91385609 23.31664690 -14.11584613
v 68.94338827 24.15734277 -13.93158822
v 68.86792360 -40.88788566 -6.57433692
v 58.52556559 -49.79505549 -4.37608151
v 65.86223190 44.12498781 6.36316970
v 68.95922403 37.91100000 -3.92217325
v 56.96100000 49.90922403 -3.92217325
v 68.71548870 40.42750512 -3.93130552
v 68.84388079 39.47541093 -3.97290746
v 68.76098409 37.91129564 7.43081884
v 59.09125285 49.55334402 6.43230897
v -56.96100000 49.90922403 -3.92217325
v -56.96100000 49.71890671 6.98109884
v -58.52708250 49.80657756 -3.92217325
v -68.95922403 37.91100000 -3.92217325
v -68.76125070 37.91100000 7.41971110
v -60.17282469 49.33342633 2.36294034
v -68.95922403 -37.91100000 -3.92217325
v -68.76125070 -37.91100000 7.41971110
v 58.46944868 6.35091682 16.37111379
v 58.42000096 6.35088313 16.37281614
v 58.48825605 6.35090411 16.36917197
v 58.50697664 6.35089648 16.36652103
v 58.52558043 27.58578852 16.36316542
v 58.43891357 27.58571736 16.37274531
v 58.48245623 27.58575280 16.36984819
v 57.95646997 -29.23042175 16.37217768
v 58.34599362 -28.09561899 16.37217642
v -56.57921306 -30.12719469 16.36173736
v -55.97188304 -30.22885100 16.34744780
v -58.46109253 -27.58623341 16.36596881
v 56.11705950 -30.16241877 16.36564222
v 58.52547681 -27.62436854 16.36318615
v 58.49964847 -27.93544358 16.36451634
v 58.43671888 -28.23783537 16.36554215
v 58.43891357 -27.58571735 16.37274531
v 58.48245623 -27.58575280 16.36984819
v 58.52558372 -6.35089393 16.36316477
v 58.50697480 -6.35089648 16.36652133
v 58.46944309 -6.35091682 16.37111426
v 58.41999910 -6.35088263 16.37281611
v -64.24769343 39.72466999 13.30414852
v 62.37068180 -4.74999775 15.59414515
v 55.97677513 30.20111968 16.35299406
v -55.97474721 30.22870372 16.34747726
v -57.18701979 30.04489943 16.37139495
v -58.51293856 -28.18412250 16.35917289
v -58.42774626 27.62237244 16.36535196
v 56.96913484 30.04004945 16.37271292
v 58.44907182 27.99052499 16.37177998
v -60.25521160 37.24270179 14.94467764
v 60.46173467 37.24228364 14.94398012
v -65.67465205 32.09994602 14.91948886
v -65.61760312 -32.08641487 14.94398209
v -64.73561859 -35.73943533 14.54899545
v -60.46173467 -37.24228364 14.94398012
v 60.25521160 -37.24270179 14.94467764
v 60.46173467 -37.24228364 14.94398012
v 65.64674341 -32.74488955 14.90405933
v 65.59999773 -32.50450300 14.94120241
v 65.61760312 -32.08641487 14.94398209
v 65.61760312 32.08641487 14.94398209
v 33.46999684 31.34392337 16.12443333
v 33.89396589 36.38438462 15.11634108
v 38.33085000 36.41354605 15.11050879
v 38.44196846 30.89978586 16.21326083
v 29.60879514 36.40974222 15.11126956
v -44.61640486 36.40974222 15.11126956
v -49.11963411 36.38438462 15.11634108
v -49.44046518 36.15480202 15.16225760
v -49.27528913 -36.53292365 15.08663324
v 38.66781888 36.37475461 15.11826704
v 37.51621813 35.18609987 15.35599803
v 37.86072000 35.06913387 15.37939123
v 38.13968854 34.80024917 15.43316817
v 38.28833293 34.49472892 15.49427222
v 38.37751956 34.10733482 15.57175104
v 38.20213265 32.55550387 15.88211723
v 37.79027133 32.16794772 15.95962846
v 60.46136733 37.29935250 14.90993469
v 61.51063878 37.20322026 14.90792058
v 61.76839034 -37.17542550 14.90871247
v 64.75856541 -35.72868929 14.42233934
v 65.74010873 32.35445860 14.90997516
v 65.67505880 -32.08615348 14.91007941
v 60.48603598 -37.29521157 14.91857743
v -65.71679999 -32.15056965 14.90690074
v -60.80717814 -37.32859046 14.91472600
v -65.46924198 33.73297056 14.90659023
v -60.46136733 37.29935250 14.90993469
v -61.54101088 37.19853148 14.91172832
v -68.85657756 -39.47708250 -3.92217325
v -68.55039446 -41.01636889 -3.92217325
v -56.96100000 -49.71890671 6.98109884
v -65.21792492 -48.79996239 4.40127672
v -68.73876258 -38.86767804 7.37367746
v 60.70295219 -49.72033350 6.25398062
v 66.25656749 -45.85176857 7.34477789
v 57.78742387 -49.66504348 7.10927902
v -56.96100000 -49.89641770 -3.97290746
v -68.89871114 42.05612463 5.19996256
v -66.35254224 45.59805263 -4.14103265
v -59.38015977 49.66934900 -3.95884874
v 68.84505549 39.47556559 -4.37608151
v 58.73566467 49.82519601 -4.45910933
v 68.38806445 42.74824077 -6.61802576
v 61.94053396 49.20055602 -6.99392488
v 56.96100000 49.91109964 -6.95393694
v 42.61531274 49.81610274 -14.11427783
v 42.86635471 49.81615124 -14.06543518
v 42.36227955 49.91100000 -14.03095659
v 42.36227955 49.89842313 -14.07950755
v 43.25022162 49.89041791 -13.90971175
v 42.53120271 49.88940054 -14.08748314
v 53.43726319 37.60839559 -14.68267869
v 68.94842313 -23.31664690 -14.07950755
v 68.91385609 -23.31664690 -14.11584613
v 68.94152846 -23.80196346 -14.04934974
v -42.36227955 49.91100000 -14.03095659
v -42.36227955 49.89842313 -14.07950755
v -42.36227955 49.86385609 -14.11584613
v -42.89161516 49.81615125 -14.05868790
v -42.66611796 49.81611851 -14.10700749
v -42.51418359 49.81606437 -14.12482986
v -43.09597628 49.89368072 -13.97630643
v -44.54796080 49.91102882 -6.95487871
v -46.61035898 -22.90157485 -16.58552142
v -68.91385609 23.31664690 -14.11584613
v -68.94842313 23.31664690 -14.07950755
v -68.96100000 23.31664690 -14.03095659
v -68.93704283 23.87825712 -14.02452319
v -68.89683283 23.50195881 -14.11726456
v -68.91385609 -23.31664690 -14.11584613
v -68.94842313 -23.31664690 -14.07950755
v -68.96100000 -23.31664690 -14.03095659
v -68.93102356 -23.90786639 -14.03485238
v -53.43726320 -37.60839559 -14.68267869
v -67.98192459 -43.88552230 -6.69786846
v -42.61531274 -49.81610274 -14.11427783
v -42.86635471 -49.81615124 -14.06543518
v 42.66611796 -49.81611851 -14.10700749
v 42.51418359 -49.81606437 -14.12482986
v 68.13722007 -42.21342759 -7.05522728
v 68.45393123 -41.34352061 -7.01827785
v 68.34063941 -41.72506661 -7.00447526
v 63.57051721 -48.67270438 -6.87576678
v -65.84083133 33.26956502 -14.27641856
v -58.15470587 -49.85172745 -7.01604395
v -68.96151019 -21.70946152 -11.06068161
v 42.36227955 -49.89842313 -14.07950755
v 42.36227955 -49.86385609 -14.11584613
v 42.89349307 -49.88756277 -14.03835155
v -42.36227955 -49.89842313 -14.07950755
v -42.36227955 -49.86385609 -14.11584613
v -43.21995317 -49.87906563 -13.97352839
v 70.96382175 -18.30381952 5.80582893
v 71.00000227 -18.60213627 7.24014477
v 71.00000227 -25.39786373 7.24014477
v 71.00000227 -25.46312683 7.23586720
v 71.00000227 -25.52727325 7.22310768
v 71.00000227 -25.58920545 7.20208453
v 71.00000227 -25.64786373 7.17315747
v 71.00000227 -25.70224445 7.13682144
v 71.00000227 -25.75141712 7.09369816
v 71.00000227 -25.79454040 7.04452548
v 71.00000227 -25.83087643 6.99014477
v 71.00000227 -25.85980350 6.93148648
v 71.00000227 -25.88082665 6.86955429
v 71.00000227 -25.89358616 6.80540786
v 71.00000227 -18.10641384 6.80540786
v 71.00000227 -18.11917335 6.86955429
v 71.00000227 -18.14019650 6.93148648
v 71.00000227 -18.16912357 6.99014477
v 71.00000227 -18.20545960 7.04452548
v 71.00000227 -18.24858288 7.09369816
v 71.00000227 -18.29775555 7.13682144
v 71.00000227 -18.35213627 7.17315747
v 71.00000227 -18.41079455 7.20208453
v 71.00000227 -18.47272675 7.22310768
v 71.00000227 -18.53687317 7.23586720
v 65.96237371 46.15325326 -5.07530389
v 65.42886042 38.28309439 14.20731921
v 56.96100000 -49.71273203 7.03212328
v 56.96100000 -49.69625346 7.08080670
v 56.96100000 -49.67016749 7.12509148
v 56.96100000 -49.63557665 7.16310586
v -56.96100000 -49.71273203 7.03212328
v -56.96100000 -49.69625346 7.08080670
v -56.96100000 -49.63557665 7.16310586
v -59.00743916 -49.54679631 7.11490639
v -57.00565964 -49.67778591 7.11817149
v -68.75829206 -36.72630369 7.47011969
v -56.96100000 49.63557665 7.16310586
v -56.96100000 49.67016749 7.12509148
v -56.96100000 49.69625346 7.08080670
v -62.66767589 48.64222947 7.21791265
v -57.54170292 49.70176951 7.03914377
v 57.08047504 49.74064994 7.10674867
f 241 70 257
f 141 156 157
f 170 178 167
f 66 71 257
f 157 156 11
f 51 36 50
f 186 191 206
f 206 34 186
f 33 34 206
f 25 66 167
f 71 66 25
f 72 71 256
f 257 71 72
f 39 34 33
f 33 41 39
f 167 66 164
f 164 257 70
f 164 66 257
f 64 70 241
f 241 69 64
f 257 1 149
f 37 36 186
f 37 50 36
f 35 51 186
f 186 36 35
f 35 36 51
f 15 156 17
f 17 16 15
f 15 16 156
f 205 11 156
f 202 11 205
f 205 50 202
f 211 50 205
f 205 16 17
f 17 211 205
f 186 51 52
f 62 9 157
f 62 228 9
f 157 11 62
f 62 11 202
f 62 177 228
f 157 9 118
f 172 170 167
f 167 164 166
f 166 172 167
f 166 164 70
f 154 114 155
f 17 156 242
f 242 153 17
f 246 153 242
f 245 244 158
f 156 141 158
f 158 242 156
f 143 69 241
f 143 10 69
f 141 86 91
f 187 191 186
f 186 55 187
f 54 55 186
f 167 178 185
f 185 25 167
f 40 41 42
f 40 39 41
f 34 39 40
f 70 64 240
f 240 166 70
f 110 149 150
f 150 105 110
f 256 253 254
f 254 253 257
f 254 72 256
f 257 72 254
f 252 1 257
f 257 253 252
f 252 253 256
f 256 255 252
f 252 255 1
f 101 255 160
f 1 255 101
f 150 149 101
f 101 149 1
f 26 30 160
f 190 206 191
f 69 10 239
f 239 143 216
f 10 143 239
f 235 234 69
f 34 40 38
f 186 34 38
f 38 37 186
f 49 50 45
f 50 37 45
f 172 166 45
f 156 16 63
f 63 205 156
f 16 205 63
f 51 50 201
f 201 52 51
f 228 177 175
f 175 215 228
f 50 177 203
f 177 62 203
f 142 141 157
f 157 118 142
f 142 118 141
f 216 143 217
f 228 215 229
f 229 215 57
f 251 160 78
f 152 155 151
f 146 155 114
f 112 4 146
f 209 211 17
f 17 212 209
f 17 153 14
f 249 147 114
f 249 114 154
f 249 153 246
f 154 13 249
f 249 13 153
f 115 147 116
f 116 147 145
f 145 158 141
f 243 158 244
f 242 158 243
f 121 143 109
f 109 143 108
f 148 112 107
f 107 105 148
f 148 105 150
f 150 101 148
f 102 97 92
f 141 91 117
f 117 91 116
f 117 145 141
f 116 145 117
f 196 54 186
f 198 54 196
f 152 151 197
f 154 155 197
f 197 155 152
f 31 185 178
f 25 185 31
f 32 12 206
f 206 190 32
f 32 190 30
f 30 26 32
f 32 26 160
f 68 67 69
f 165 240 64
f 165 64 69
f 69 67 165
f 166 240 165
f 165 45 166
f 104 110 105
f 30 190 189
f 238 237 69
f 69 239 238
f 69 237 236
f 236 235 69
f 37 38 174
f 174 45 37
f 38 44 174
f 42 45 174
f 174 44 42
f 172 45 169
f 200 50 211
f 200 201 50
f 176 175 177
f 176 50 49
f 176 177 50
f 49 60 176
f 204 62 202
f 204 203 62
f 202 50 204
f 50 203 204
f 144 217 143
f 77 151 155
f 155 78 77
f 77 78 160
f 5 78 155
f 155 146 5
f 251 78 5
f 5 4 251
f 5 146 4
f 114 147 113
f 113 146 114
f 107 112 113
f 112 146 113
f 53 213 198
f 53 196 186
f 198 196 53
f 186 52 53
f 52 201 210
f 211 209 210
f 210 200 211
f 201 200 210
f 154 197 22
f 147 249 6
f 116 91 130
f 130 115 116
f 245 158 8
f 158 145 8
f 8 145 147
f 83 121 109
f 83 92 97
f 83 97 102
f 102 121 83
f 124 131 111
f 111 110 124
f 140 143 241
f 140 108 143
f 241 111 140
f 140 111 108
f 3 101 160
f 3 148 101
f 112 148 3
f 105 100 80
f 107 113 106
f 106 113 147
f 214 197 54
f 214 213 212
f 198 213 214
f 23 151 19
f 19 197 23
f 23 197 151
f 184 31 178
f 12 31 184
f 206 12 184
f 29 32 160
f 65 68 69
f 69 231 65
f 67 68 163
f 163 165 67
f 57 165 163
f 105 108 103
f 103 104 105
f 108 111 103
f 103 111 131
f 103 131 124
f 188 189 190
f 191 187 188
f 188 190 191
f 208 189 194
f 42 44 43
f 43 44 38
f 43 40 42
f 43 38 40
f 49 45 47
f 47 60 49
f 57 215 58
f 215 175 58
f 168 45 42
f 168 169 45
f 172 169 173
f 173 171 170
f 170 172 173
f 169 168 173
f 173 168 42
f 143 121 120
f 120 144 143
f 120 121 102
f 102 92 120
f 219 118 9
f 232 231 69
f 19 151 20
f 151 77 20
f 208 194 20
f 20 194 19
f 159 14 153
f 159 21 14
f 153 13 159
f 13 21 159
f 250 244 245
f 250 243 244
f 115 130 89
f 89 130 91
f 147 6 7
f 7 8 147
f 241 257 139
f 139 111 241
f 257 149 139
f 149 110 139
f 110 111 139
f 2 4 112
f 112 3 2
f 2 3 160
f 251 4 2
f 109 108 84
f 84 108 105
f 105 80 84
f 95 100 105
f 95 80 100
f 95 84 80
f 199 54 198
f 198 214 199
f 199 214 54
f 197 214 207
f 207 22 197
f 207 13 154
f 154 22 207
f 207 21 13
f 14 21 207
f 171 173 180
f 42 41 180
f 180 173 42
f 206 184 181
f 25 31 73
f 71 25 73
f 256 71 73
f 73 162 256
f 28 31 12
f 28 162 31
f 255 162 28
f 76 255 256
f 256 162 76
f 76 162 255
f 12 32 161
f 32 29 161
f 161 28 12
f 255 28 161
f 160 255 161
f 161 29 160
f 229 65 230
f 230 65 231
f 68 65 56
f 56 163 68
f 57 163 56
f 56 229 57
f 56 65 229
f 104 103 125
f 195 197 19
f 19 194 195
f 54 197 195
f 60 47 46
f 45 165 46
f 46 47 45
f 93 120 92
f 9 228 227
f 223 222 9
f 9 222 221
f 118 219 218
f 218 144 118
f 217 144 218
f 69 234 233
f 233 232 69
f 208 20 24
f 24 74 160
f 160 30 24
f 30 189 24
f 24 189 208
f 243 250 247
f 247 249 246
f 247 250 249
f 147 115 88
f 115 89 88
f 88 106 147
f 88 91 86
f 88 89 91
f 248 7 6
f 248 6 249
f 249 250 248
f 248 250 245
f 75 160 251
f 251 2 75
f 75 2 160
f 86 94 87
f 87 95 86
f 94 95 87
f 92 83 82
f 79 84 99
f 84 95 99
f 85 83 109
f 85 82 83
f 81 82 85
f 109 84 85
f 85 84 79
f 18 214 212
f 18 207 214
f 14 207 18
f 18 212 17
f 17 14 18
f 179 184 178
f 179 180 184
f 171 180 179
f 184 180 182
f 182 181 184
f 206 181 182
f 31 162 27
f 27 73 31
f 162 73 27
f 138 125 103
f 55 54 192
f 54 195 192
f 192 187 55
f 61 46 165
f 61 165 57
f 57 58 61
f 119 93 94
f 120 93 119
f 119 94 86
f 118 144 119
f 144 120 119
f 119 86 141
f 141 118 119
f 96 95 94
f 94 93 96
f 96 93 92
f 96 99 95
f 81 85 96
f 79 99 96
f 96 85 79
f 226 225 9
f 9 227 226
f 9 225 224
f 224 223 9
f 220 219 9
f 9 221 220
f 106 88 90
f 90 105 107
f 107 106 90
f 90 95 105
f 86 95 90
f 90 88 86
f 183 180 41
f 183 182 180
f 206 182 183
f 183 41 33
f 33 206 183
f 104 125 122
f 125 138 122
f 124 110 123
f 110 104 129
f 129 128 110
f 110 128 127
f 193 195 194
f 193 192 195
f 60 46 48
f 46 61 48
f 98 82 81
f 81 96 98
f 92 82 98
f 98 96 92
f 126 123 110
f 133 103 124
f 59 61 58
f 59 48 61
f 60 48 59
f 59 58 175
f 124 123 132
f 132 133 124
f 137 138 103
f 103 136 137
f 103 133 134
f 135 136 103
f 103 134 135
f 160 74 77
f 213 53 210
f 210 53 52
f 210 209 212
f 212 213 210
f 24 77 74
f 24 20 77
f 242 243 247
f 246 242 247
f 8 7 248
f 245 8 248
f 170 171 179
f 178 170 179
f 216 217 220
f 234 235 220
f 220 239 216
f 220 221 222
f 237 238 220
f 220 236 237
f 228 229 220
f 220 238 239
f 235 236 220
f 229 230 220
f 217 218 220
f 220 227 228
f 222 223 220
f 231 232 220
f 220 230 231
f 220 233 234
f 225 226 220
f 220 224 225
f 220 218 219
f 232 233 220
f 220 226 227
f 223 224 220
f 193 194 189
f 189 188 193
f 193 188 187
f 187 192 193
f 110 127 126
f 59 176 60
f 175 176 59
f 104 122 135
f 135 126 127
f 135 129 104
f 135 122 138
f 123 126 135
f 128 129 135
f 135 127 128
f 135 132 123
f 133 132 135
f 138 137 135
f 135 137 136
f 135 134 133

