# https://github.com/mikedh/trimesh
v 0.68580000 -1.72896631 -10.46334800
v 0.68580000 -1.83166401 -10.47383310
v 0.68580000 -1.93009939 -10.50485591
v 0.68580000 -2.01616575 -10.55233330
v 0.68580000 -2.07978336 -10.60398138
v 0.68580000 -2.12587642 -10.65439401
v 0.68580000 -2.18637260 -10.75066490
v 0.68580000 -2.22392649 -10.85800521
v 0.68580000 -2.23665704 -10.97103833
v 0.68580000 -2.23665731 -11.68545048
v 0.68580000 -2.10346608 -11.68545053
v 0.68580000 -1.94855603 -11.41275194
v 0.68580000 -1.75850340 -11.16326919
v 0.68580000 -1.53673582 -10.94150179
v 0.68580000 -1.28725293 -10.75144934
v 0.68580000 -1.01455422 -10.59653951
v 0.68580000 -1.01455417 -10.46334827
v 0.68580000 2.23664564 -10.97104005
v 0.68580000 2.22616054 -10.86834235
v 0.68580000 2.19513772 -10.76990697
v 0.68580000 2.14766033 -10.68384062
v 0.68580000 2.09601225 -10.62022300
v 0.68580000 2.04559962 -10.57412995
v 0.68580000 1.94932874 -10.51363377
v 0.68580000 1.84198842 -10.47607988
v 0.68580000 1.72895530 -10.46334933
v 0.68580000 1.01454316 -10.46334905
v 0.68580000 1.01454311 -10.59654029
v 0.68580000 1.28724170 -10.75145033
v 0.68580000 1.53672444 -10.94150297
v 0.68580000 1.75849185 -11.16327055
v 0.68580000 1.94854429 -11.41275344
v 0.68580000 2.10345412 -11.68545215
v 0.68580000 2.23664536 -11.68545220
v 0.68580000 1.72895358 -14.93665200
v 0.68580000 1.83165128 -14.92616690
v 0.68580000 1.93008666 -14.89514409
v 0.68580000 2.01615301 -14.84766670
v 0.68580000 2.07977063 -14.79601862
v 0.68580000 2.12586369 -14.74560599
v 0.68580000 2.18635986 -14.64933510
v 0.68580000 2.22391376 -14.54199479
v 0.68580000 2.23664430 -14.42896167
v 0.68580000 2.23664458 -13.71454952
v 0.68580000 2.10345334 -13.71454947
v 0.68580000 1.94854330 -13.98724806
v 0.68580000 1.75849067 -14.23673081
v 0.68580000 1.53672309 -14.45849821
v 0.68580000 1.28724020 -14.64855066
v 0.68580000 1.01454149 -14.80346049
v 0.68580000 1.01454144 -14.93665173
v 0.68580000 -2.23665837 -14.42895995
v 0.68580000 -2.22617327 -14.53165765
v 0.68580000 -2.19515046 -14.63009303
v 0.68580000 -2.14767306 -14.71615938
v 0.68580000 -2.09602499 -14.77977700
v 0.68580000 -2.04561236 -14.82587005
v 0.68580000 -1.94934147 -14.88636623
v 0.68580000 -1.84200115 -14.92392012
v 0.68580000 -1.72896803 -14.93665067
v 0.68580000 -1.01455589 -14.93665095
v 0.68580000 -1.01455584 -14.80345971
v 0.68580000 -1.28725443 -14.64854967
v 0.68580000 -1.53673717 -14.45849703
v 0.68580000 -1.75850458 -14.23672945
v 0.68580000 -1.94855702 -13.98724656
v 0.68580000 -2.10346686 -13.71454785
v 0.68580000 -2.23665809 -13.71454780
v 0.68580000 -1.72895654 14.93665200
v 0.68580000 -1.83165424 14.92616690
v 0.68580000 -1.93008962 14.89514409
v 0.68580000 -2.01615597 14.84766670
v 0.68580000 -2.07977359 14.79601862
v 0.68580000 -2.12586665 14.74560599
v 0.68580000 -2.18636282 14.64933510
v 0.68580000 -2.22391672 14.54199479
v 0.68580000 -2.23664726 14.42896167
v 0.68580000 -2.23664754 13.71454952
v 0.68580000 -2.10345630 13.71454947
v 0.68580000 -1.94854626 13.98724806
v 0.68580000 -1.75849363 14.23673081
v 0.68580000 -1.53672605 14.45849821
v 0.68580000 -1.28724316 14.64855066
v 0.68580000 -1.01454445 14.80346049
v 0.68580000 -1.01454440 14.93665173
v 0.68580000 2.23665541 14.42895995
v 0.68580000 2.22617031 14.53165765
v 0.68580000 2.19514750 14.63009303
v 0.68580000 2.14767010 14.71615938
v 0.68580000 2.09602203 14.77977700
v 0.68580000 2.04560940 14.82587005
v 0.68580000 1.94933851 14.88636623
v 0.68580000 1.84199819 14.92392012
v 0.68580000 1.72896507 14.93665067
v 0.68580000 1.01455293 14.93665095
v 0.68580000 1.01455288 14.80345971
v 0.68580000 1.28725147 14.64854967
v 0.68580000 1.53673421 14.45849703
v 0.68580000 1.75850162 14.23672945
v 0.68580000 1.94855406 13.98724656
v 0.68580000 2.10346390 13.71454785
v 0.68580000 2.23665513 13.71454780
v 0.68580000 1.72896335 10.46334800
v 0.68580000 1.83166105 10.47383310
v 0.68580000 1.93009643 10.50485591
v 0.68580000 2.01616279 10.55233330
v 0.68580000 2.07978040 10.60398138
v 0.68580000 2.12587346 10.65439401
v 0.68580000 2.18636964 10.75066490
v 0.68580000 2.22392353 10.85800521
v 0.68580000 2.23665408 10.97103833
v 0.68580000 2.23665435 11.68545048
v 0.68580000 2.10346312 11.68545053
v 0.68580000 1.94855307 11.41275194
v 0.68580000 1.75850044 11.16326919
v 0.68580000 1.53673286 10.94150179
v 0.68580000 1.28724997 10.75144934
v 0.68580000 1.01455126 10.59653951
v 0.68580000 1.01455121 10.46334827
v 0.68580000 -2.23664860 10.97104005
v 0.68580000 -2.22616350 10.86834235
v 0.68580000 -2.19514068 10.76990697
v 0.68580000 -2.14766329 10.68384062
v 0.68580000 -2.09601521 10.62022300
v 0.68580000 -2.04560258 10.57412995
v 0.68580000 -1.94933170 10.51363377
v 0.68580000 -1.84199138 10.47607988
v 0.68580000 -1.72895826 10.46334933
v 0.68580000 -1.01454612 10.46334905
v 0.68580000 -1.01454607 10.59654029
v 0.68580000 -1.28724466 10.75145033
v 0.68580000 -1.53672740 10.94150297
v 0.68580000 -1.75849481 11.16327055
v 0.68580000 -1.94854725 11.41275344
v 0.68580000 -2.10345708 11.68545215
v 0.68580000 -2.23664832 11.68545220
v 0.68580000 -1.72896143 2.23665200
v 0.68580000 -1.83165913 2.22616690
v 0.68580000 -1.93009451 2.19514409
v 0.68580000 -2.01616086 2.14766670
v 0.68580000 -2.07977848 2.09601862
v 0.68580000 -2.12587153 2.04560599
v 0.68580000 -2.18636771 1.94933510
v 0.68580000 -2.22392160 1.84199479
v 0.68580000 -2.23665215 1.72896167
v 0.68580000 -2.23665243 1.01454952
v 0.68580000 -2.10346119 1.01454947
v 0.68580000 -1.94855115 1.28724806
v 0.68580000 -1.75849851 1.53673081
v 0.68580000 -1.53673093 1.75849821
v 0.68580000 -1.28724804 1.94855066
v 0.68580000 -1.01454933 2.10346049
v 0.68580000 -1.01454928 2.23665173
v 0.68580000 2.23665052 1.72895995
v 0.68580000 2.22616542 1.83165765
v 0.68580000 2.19514261 1.93009303
v 0.68580000 2.14766522 2.01615938
v 0.68580000 2.09601714 2.07977700
v 0.68580000 2.04560451 2.12587005
v 0.68580000 1.94933362 2.18636623
v 0.68580000 1.84199331 2.22392012
v 0.68580000 1.72896019 2.23665067
v 0.68580000 1.01454804 2.23665095
v 0.68580000 1.01454799 2.10345971
v 0.68580000 1.28724658 1.94854967
v 0.68580000 1.53672933 1.75849703
v 0.68580000 1.75849673 1.53672945
v 0.68580000 1.94854918 1.28724656
v 0.68580000 2.10345901 1.01454785
v 0.68580000 2.23665025 1.01454780
v 0.68580000 1.72895847 -2.23665200
v 0.68580000 1.83165617 -2.22616690
v 0.68580000 1.93009155 -2.19514409
v 0.68580000 2.01615790 -2.14766670
v 0.68580000 2.07977552 -2.09601862
v 0.68580000 2.12586857 -2.04560599
v 0.68580000 2.18636475 -1.94933510
v 0.68580000 2.22391864 -1.84199479
v 0.68580000 2.23664919 -1.72896167
v 0.68580000 2.23664947 -1.01454952
v 0.68580000 2.10345823 -1.01454947
v 0.68580000 1.94854819 -1.28724806
v 0.68580000 1.75849555 -1.53673081
v 0.68580000 1.53672797 -1.75849821
v 0.68580000 1.28724508 -1.94855066
v 0.68580000 1.01454637 -2.10346049
v 0.68580000 1.01454632 -2.23665173
v 0.68580000 -2.23665348 -1.72895995
v 0.68580000 -2.22616838 -1.83165765
v 0.68580000 -2.19514557 -1.93009303
v 0.68580000 -2.14766818 -2.01615938
v 0.68580000 -2.09602010 -2.07977700
v 0.68580000 -2.04560747 -2.12587005
v 0.68580000 -1.94933658 -2.18636623
v 0.68580000 -1.84199627 -2.22392012
v 0.68580000 -1.72896315 -2.23665067
v 0.68580000 -1.01455100 -2.23665095
v 0.68580000 -1.01455095 -2.10345971
v 0.68580000 -1.28724954 -1.94854967
v 0.68580000 -1.53673229 -1.75849703
v 0.68580000 -1.75849969 -1.53672945
v 0.68580000 -1.94855214 -1.28724656
v 0.68580000 -2.10346197 -1.01454785
v 0.68580000 -2.23665321 -1.01454780
v -2.03200000 -3.60000148 10.05000000
v -2.03200000 -3.60000148 3.85000000
v -2.03200000 3.59999852 3.85000000
v -2.03200000 3.59999852 10.05000000
v -2.03200000 -3.60000148 -10.05000000
v -2.03200000 3.59999852 -10.05000000
v -2.03200000 3.59999852 -3.85000000
v -2.03200000 -3.60000148 -3.85000000
v 0.45719973 -2.09844751 -11.69343343
v 0.22859973 -2.09341687 -11.70141632
v -0.00000000 -2.08837415 -11.70939920
v -0.00000000 -0.99060556 -10.61163145
v 0.22859973 -0.99858844 -10.60658873
v 0.45719973 -1.00657133 -10.60155808
v 0.00000000 -1.93352485 -11.43347868
v 0.00000000 -1.74244478 -11.18129057
v 0.00000000 -1.51871446 -10.95756042
v -0.00000000 -1.26652620 -10.76648055
v 0.34290000 -1.44503798 -10.88067267
v 0.34290000 -1.81933258 -11.25496699
v -0.00000000 -0.99060550 -10.43939962
v 0.00000000 -1.75291497 -10.43939933
v 0.00000000 -2.26060569 -10.94708966
v -0.00000000 -1.85561267 -10.44988442
v -0.00000000 -1.95404805 -10.48090724
v -0.00000000 -2.04011440 -10.52838463
v 0.00000000 -2.10373202 -10.58003271
v 0.00000000 -2.14982508 -10.63044534
v 0.00000000 -2.21032125 -10.72671622
v 0.00000000 -2.24787514 -10.83405654
v 0.00000000 -2.26060599 -11.70939913
v 0.00000000 1.75290397 -10.43940067
v -0.00000000 0.99059450 -10.43940038
v -0.00000000 0.99059444 -10.61163221
v 0.22859973 0.99857732 -10.60658950
v 0.45719973 1.00656021 -10.60155886
v -0.00000000 2.08836218 -11.70940080
v 0.22859973 2.09340490 -11.70141793
v 0.45719973 2.09843555 -11.69343504
v -0.00000000 1.26651495 -10.76648152
v -0.00000000 1.51870307 -10.95756159
v -0.00000000 1.74243322 -11.18129191
v -0.00000000 1.93351309 -11.43348017
v 0.34290000 1.81932096 -11.25496839
v 0.34290000 1.44502665 -10.88067378
v -0.00000000 2.26059401 -11.70940087
v 0.00000000 2.26059431 -10.94709140
v -0.00000000 2.25010921 -10.84439370
v -0.00000000 2.21908640 -10.74595832
v -0.00000000 2.17160900 -10.65989197
v -0.00000000 2.11996093 -10.59627435
v -0.00000000 2.06954830 -10.55018129
v -0.00000000 1.97327741 -10.48968511
v -0.00000000 1.86593709 -10.45213122
v -0.00000000 2.08836142 -13.69060080
v -0.00000000 1.93351211 -13.96652132
v -0.00000000 1.74243205 -14.21870943
v -0.00000000 1.51870172 -14.44243958
v 0.00000000 1.26651346 -14.63351945
v -0.00000000 0.99059283 -14.78836855
v 0.45719973 2.09843478 -13.70656657
v 0.22859973 2.09340413 -13.69858368
v 0.22859973 0.99857571 -14.79341127
v 0.45719973 1.00655859 -14.79844192
v 0.34290000 1.44502525 -14.51932733
v 0.34290000 1.81931985 -14.14503301
v -0.00000000 0.99059276 -14.96060038
v -0.00000000 1.75290224 -14.96060067
v -0.00000000 2.26059296 -14.45291034
v 0.00000000 1.85559994 -14.95011558
v 0.00000000 1.95403532 -14.91909276
v 0.00000000 2.04010167 -14.87161537
v -0.00000000 2.10371928 -14.81996729
v -0.00000000 2.14981234 -14.76955466
v -0.00000000 2.21030852 -14.67328378
v -0.00000000 2.24786241 -14.56594346
v -0.00000000 2.26059325 -13.69060087
v -0.00000000 -1.75291671 -14.96059933
v -0.00000000 -0.99060724 -14.96059962
v -0.00000000 -0.99060717 -14.78836779
v 0.22859973 -0.99859005 -14.79341050
v 0.45719973 -1.00657294 -14.79844114
v -0.00000000 -2.08837491 -13.69059920
v 0.22859973 -2.09341764 -13.69858207
v 0.45719973 -2.09844828 -13.70656496
v -0.00000000 -1.26652768 -14.63351848
v -0.00000000 -1.51871580 -14.44243841
v -0.00000000 -1.74244595 -14.21870809
v -0.00000000 -1.93352582 -13.96651983
v 0.34290000 -1.81933369 -14.14503161
v 0.34290000 -1.44503938 -14.51932622
v -0.00000000 -2.26060675 -13.69059913
v -0.00000000 -2.26060704 -14.45290860
v 0.00000000 -2.25012194 -14.55560630
v 0.00000000 -2.21909913 -14.65404168
v 0.00000000 -2.17162174 -14.74010803
v 0.00000000 -2.11997366 -14.80372565
v 0.00000000 -2.06956103 -14.84981871
v 0.00000000 -1.97329014 -14.91031489
v 0.00000000 -1.86594983 -14.94786878
v 0.45719973 -2.09843774 13.70656657
v 0.22859973 -2.09340709 13.69858368
v -0.00000000 -2.08836438 13.69060080
v -0.00000000 -0.99059579 14.78836855
v 0.22859973 -0.99857867 14.79341127
v 0.45719973 -1.00656155 14.79844192
v 0.00000000 -1.93351507 13.96652132
v 0.00000000 -1.74243501 14.21870943
v 0.00000000 -1.51870468 14.44243958
v -0.00000000 -1.26651642 14.63351945
v 0.34290000 -1.44502821 14.51932733
v 0.34290000 -1.81932281 14.14503301
v 0.00000000 -0.99059572 14.96060038
v -0.00000000 -1.75290520 14.96060067
v -0.00000000 -2.26059592 14.45291034
v -0.00000000 -1.85560290 14.95011558
v -0.00000000 -1.95403828 14.91909276
v -0.00000000 -2.04010463 14.87161537
v 0.00000000 -2.10372224 14.81996729
v 0.00000000 -2.14981530 14.76955466
v 0.00000000 -2.21031148 14.67328378
v 0.00000000 -2.24786537 14.56594346
v 0.00000000 -2.26059621 13.69060087
v -0.00000000 2.08837195 13.69059920
v 0.22859973 2.09341468 13.69858207
v 0.45719973 2.09844532 13.70656496
v -0.00000000 0.99060421 14.78836779
v -0.00000000 1.26652472 14.63351848
v -0.00000000 1.51871284 14.44243841
v -0.00000000 1.74244299 14.21870809
v -0.00000000 1.93352286 13.96651983
v 0.45719973 1.00656998 14.79844114
v 0.22859973 0.99858709 14.79341050
v 0.34290000 1.81933073 14.14503161
v 0.34290000 1.44503642 14.51932622
v 0.00000000 2.26060379 13.69059913
v 0.00000000 2.26060408 14.45290860
v -0.00000000 2.25011898 14.55560630
v -0.00000000 2.21909617 14.65404168
v -0.00000000 2.17161878 14.74010803
v -0.00000000 2.11997070 14.80372565
v -0.00000000 2.06955807 14.84981871
v -0.00000000 1.97328718 14.91031489
v -0.00000000 1.86594687 14.94786878
v 0.00000000 1.75291375 14.96059933
v -0.00000000 0.99060428 14.96059962
v -0.00000000 2.08837119 11.70939920
v -0.00000000 1.93352189 11.43347868
v -0.00000000 1.74244182 11.18129057
v -0.00000000 1.51871150 10.95756042
v 0.00000000 1.26652324 10.76648055
v -0.00000000 0.99060260 10.61163145
v 0.45719973 2.09844455 11.69343343
v 0.22859973 2.09341391 11.70141632
v 0.22859973 0.99858548 10.60658873
v 0.45719973 1.00656837 10.60155808
v 0.34290000 1.44503502 10.88067267
v 0.34290000 1.81932962 11.25496699
v 0.00000000 0.99060254 10.43939962
v -0.00000000 1.75291201 10.43939933
v -0.00000000 2.26060273 10.94708966
v 0.00000000 1.85560971 10.44988442
v 0.00000000 1.95404509 10.48090724
v 0.00000000 2.04011144 10.52838463
v -0.00000000 2.10372906 10.58003271
v -0.00000000 2.14982212 10.63044534
v -0.00000000 2.21031829 10.72671622
v -0.00000000 2.24787218 10.83405654
v 0.00000000 2.26060303 11.70939913
v -0.00000000 -2.08836514 11.70940080
v 0.22859973 -2.09340786 11.70141793
v 0.45719973 -2.09843851 11.69343504
v -0.00000000 -0.99059740 10.61163221
v -0.00000000 -1.26651791 10.76648152
v -0.00000000 -1.51870603 10.95756159
v -0.00000000 -1.74243618 11.18129191
v -0.00000000 -1.93351605 11.43348017
v 0.45719973 -1.00656317 10.60155886
v 0.22859973 -0.99858028 10.60658950
v 0.34290000 -1.81932392 11.25496839
v 0.34290000 -1.44502961 10.88067378
v 0.00000000 -2.26059697 11.70940087
v -0.00000000 -2.26059727 10.94709140
v 0.00000000 -2.25011217 10.84439370
v 0.00000000 -2.21908936 10.74595832
v 0.00000000 -2.17161196 10.65989197
v 0.00000000 -2.11996389 10.59627435
v 0.00000000 -2.06955126 10.55018129
v 0.00000000 -1.97328037 10.48968511
v 0.00000000 -1.86594005 10.45213122
v 0.00000000 -1.75290693 10.43940067
v -0.00000000 -0.99059746 10.43940038
v 0.45719973 -2.09844262 1.00656657
v 0.22859973 -2.09341198 0.99858368
v -0.00000000 -2.08836927 0.99060080
v -0.00000000 -0.99060068 2.08836855
v 0.22859973 -0.99858355 2.09341127
v 0.45719973 -1.00656644 2.09844192
v 0.00000000 -1.93351996 1.26652132
v 0.00000000 -1.74243989 1.51870943
v 0.00000000 -1.51870957 1.74243958
v -0.00000000 -1.26652131 1.93351945
v 0.34290000 -1.44503309 1.81932733
v 0.34290000 -1.81932770 1.44503301
v 0.00000000 -0.99060061 2.26060038
v -0.00000000 -1.75291008 2.26060067
v -0.00000000 -2.26060081 1.75291034
v -0.00000000 -1.85560778 2.25011558
v -0.00000000 -1.95404316 2.21909276
v -0.00000000 -2.04010951 2.17161537
v 0.00000000 -2.10372713 2.11996729
v 0.00000000 -2.14982019 2.06955466
v 0.00000000 -2.21031637 1.97328378
v 0.00000000 -2.24787026 1.86594346
v 0.00000000 -2.26060110 0.99060087
v -0.00000000 2.08836707 0.99059920
v 0.22859973 2.09340979 0.99858207
v 0.45719973 2.09844044 1.00656496
v -0.00000000 0.99059932 2.08836779
v -0.00000000 1.26651984 1.93351848
v -0.00000000 1.51870795 1.74243841
v -0.00000000 1.74243810 1.51870809
v -0.00000000 1.93351797 1.26651983
v 0.45719973 1.00656509 2.09844114
v 0.22859973 0.99858220 2.09341050
v 0.34290000 1.81932585 1.44503161
v 0.34290000 1.44503153 1.81932622
v 0.00000000 2.26059890 0.99059913
v 0.00000000 2.26059919 1.75290860
v -0.00000000 2.25011410 1.85560630
v -0.00000000 2.21909128 1.95404168
v -0.00000000 2.17161389 2.04010803
v -0.00000000 2.11996581 2.10372565
v -0.00000000 2.06955318 2.14981871
v -0.00000000 1.97328230 2.21031489
v -0.00000000 1.86594198 2.24786878
v 0.00000000 1.75290886 2.26059933
v 0.00000000 0.99059939 2.26059962
v -0.00000000 2.08836631 -0.99060080
v -0.00000000 1.93351700 -1.26652132
v -0.00000000 1.74243693 -1.51870943
v -0.00000000 1.51870661 -1.74243958
v 0.00000000 1.26651835 -1.93351945
v -0.00000000 0.99059772 -2.08836855
v 0.45719973 2.09843966 -1.00656657
v 0.22859973 2.09340902 -0.99858368
v 0.22859973 0.99858059 -2.09341127
v 0.45719973 1.00656348 -2.09844192
v 0.34290000 1.44503013 -1.81932733
v 0.34290000 1.81932474 -1.44503301
v 0.00000000 0.99059765 -2.26060038
v -0.00000000 1.75290712 -2.26060067
v 0.00000000 2.26059785 -1.75291034
v 0.00000000 1.85560482 -2.25011558
v 0.00000000 1.95404020 -2.21909276
v 0.00000000 2.04010655 -2.17161537
v -0.00000000 2.10372417 -2.11996729
v -0.00000000 2.14981723 -2.06955466
v -0.00000000 2.21031341 -1.97328378
v -0.00000000 2.24786730 -1.86594346
v 0.00000000 2.26059814 -0.99060087
v -0.00000000 -2.08837003 -0.99059920
v 0.22859973 -2.09341275 -0.99858207
v 0.45719973 -2.09844340 -1.00656496
v -0.00000000 -0.99060228 -2.08836779
v -0.00000000 -1.26652280 -1.93351848
v -0.00000000 -1.51871091 -1.74243841
v -0.00000000 -1.74244106 -1.51870809
v -0.00000000 -1.93352093 -1.26651983
v 0.45719973 -1.00656805 -2.09844114
v 0.22859973 -0.99858516 -2.09341050
v 0.34290000 -1.81932881 -1.44503161
v 0.34290000 -1.44503449 -1.81932622
v -0.00000000 -2.26060186 -0.99059913
v -0.00000000 -2.26060215 -1.75290860
v 0.00000000 -2.25011706 -1.85560630
v 0.00000000 -2.21909424 -1.95404168
v 0.00000000 -2.17161685 -2.04010803
v 0.00000000 -2.11996877 -2.10372565
v 0.00000000 -2.06955614 -2.14981871
v 0.00000000 -1.97328526 -2.21031489
v 0.00000000 -1.86594494 -2.24786878
v -0.00000000 -1.75291182 -2.26059933
v -0.00000000 -0.99060235 -2.26059962
v 0.00000000 -3.60000148 3.85000000
v 0.00000000 -3.60000148 10.05000000
v 0.00000000 3.59999852 3.85000000
v 0.00000000 3.59999852 10.05000000
v 0.00000000 3.59999852 -10.05000000
v 0.00000000 -3.60000148 -10.05000000
v 0.00000000 3.59999852 -3.85000000
v 0.00000000 -3.60000148 -3.85000000
v -6.35000000 2.31980187 -4.96924712
v -3.17500000 2.43067527 -5.08012061
v -3.17500000 0.99999852 -5.08012006
v -6.35000000 0.99999852 -4.96924661
v -6.35000000 0.99999852 -7.61974628
v -3.17500000 0.99999852 -7.50887284
v -3.17500000 2.43067434 -7.50887339
v -6.35000000 2.38474901 -7.61974682
v -6.35000000 -2.38474806 -7.61974498
v -3.17500000 -2.43067330 -7.50887152
v -3.17500000 -1.00000148 -7.50887207
v -6.35000000 -1.00000148 -7.61974552
v -6.35000000 -1.00000148 -4.96924584
v -3.17500000 -1.00000148 -5.08011929
v -3.17500000 -2.43067237 -5.08011874
v -6.35000000 -2.31979888 -4.96924533
v -6.35000000 -2.31979506 4.96925689
v -3.17500000 -2.43066846 5.08013038
v -3.17500000 -1.00000148 5.08012983
v -6.35000000 -1.00000148 4.96925638
v -6.35000000 -1.00000148 7.61975606
v -3.17500000 -1.00000148 7.50888261
v -3.17500000 -2.43066752 7.50888316
v -6.35000000 -2.38474220 7.61975659
v -3.17500000 -4.96912217 2.54167862
v -3.17500000 -4.96911928 10.04733688
v -3.17500000 -4.96912702 -10.04732328
v -3.17500000 -4.96912413 -2.54166502
v -3.17500000 4.96912899 -2.54166884
v -3.17500000 4.96912610 -10.04732711
v -6.35000000 2.38475487 7.61975475
v -3.17500000 2.43068011 7.50888129
v -3.17500000 0.99999852 7.50888184
v -6.35000000 0.99999852 7.61975529
v -3.17500000 0.99999852 5.08012906
v -3.17500000 2.43067918 5.08012851
v -3.17500000 4.96913383 10.04733306
v -3.17500000 4.96913094 2.54167479
v -6.35000000 0.99999852 4.96925562
v -6.35000000 2.31980569 4.96925511
v 0.00000000 2.54154383 -17.77999609
v 0.00000000 5.07999754 -15.24154433
v 0.00000000 -2.54155070 -17.77999414
v 0.00000000 -5.08000246 -15.24154042
v 0.00000000 -5.07999073 15.24155410
v 0.00000000 -2.54153701 17.78000586
v 0.00000000 2.54155751 17.78000391
v 0.00000000 5.08000927 15.24155019
v 0.00000000 -2.12000148 -12.69999511
v 0.00000000 -2.09936979 -12.99504209
v 0.00000000 -2.03787628 -13.28434631
v 0.00000000 -1.93671785 -13.56227680
v 0.00000000 -1.79786344 -13.82342395
v 0.00000000 -1.62401570 -14.06270485
v 0.00000000 -1.41855837 -14.27546214
v 0.00000000 -1.18549044 -14.45755477
v 0.00000000 -0.92934831 -14.60543849
v 0.00000000 -0.65511751 -14.71623493
v 0.00000000 -0.36813562 -14.78778755
v 0.00000000 -0.07398841 -14.81870367
v 0.00000000 0.22159886 -14.80838153
v 0.00000000 0.51287294 -14.75702205
v 0.00000000 0.79416450 -14.66562489
v 0.00000000 1.05999852 -14.53596897
v 0.00000000 1.30520085 -14.37057791
v -0.00000000 1.52499890 -14.17267086
v -0.00000000 1.71511455 -13.94609985
v -0.00000000 1.87184742 -13.69527483
v -0.00000000 1.99214688 -13.42507782
v -0.00000000 2.07367143 -13.14076790
v -0.00000000 2.11483431 -12.84787884
v -0.00000000 2.11483431 -12.55211139
v -0.00000000 2.07367143 -12.25922233
v -0.00000000 1.99214688 -11.97491241
v -0.00000000 1.87184742 -11.70471540
v -0.00000000 1.71511455 -11.45389038
v -0.00000000 1.52499890 -11.22731937
v -0.00000000 1.30520085 -11.02941232
v -0.00000000 1.05999852 -10.86402126
v -0.00000000 0.79416450 -10.73436534
v -0.00000000 0.51287294 -10.64296817
v -0.00000000 0.22159886 -10.59160870
v -0.00000000 -0.07398841 -10.58128656
v -0.00000000 -0.36813562 -10.61220268
v -0.00000000 -0.65511751 -10.68375530
v -0.00000000 -0.92934831 -10.79455174
v -0.00000000 -1.18549044 -10.94243546
v 0.00000000 -1.41855837 -11.12452808
v 0.00000000 -1.62401570 -11.33728538
v 0.00000000 -1.79786344 -11.57656627
v 0.00000000 -1.93671785 -11.83771343
v 0.00000000 -2.03787628 -12.11564392
v 0.00000000 -2.09936979 -12.40494814
v 0.00000000 -2.12000148 -0.00000000
v 0.00000000 -2.09936979 -0.29504697
v 0.00000000 -2.03787628 -0.58435119
v 0.00000000 -1.93671785 -0.86228168
v 0.00000000 -1.79786344 -1.12342884
v 0.00000000 -1.62401570 -1.36270973
v 0.00000000 -1.41855837 -1.57546703
v 0.00000000 -1.18549044 -1.75755965
v 0.00000000 -0.92934831 -1.90544338
v 0.00000000 -0.65511751 -2.01623981
v 0.00000000 -0.36813562 -2.08779244
v 0.00000000 -0.07398841 -2.11870855
v 0.00000000 0.22159886 -2.10838642
v 0.00000000 0.51287294 -2.05702694
v 0.00000000 0.79416450 -1.96562977
v 0.00000000 1.05999852 -1.83597386
v 0.00000000 1.30520085 -1.67058280
v -0.00000000 1.52499890 -1.47267575
v -0.00000000 1.71511455 -1.24610473
v -0.00000000 1.87184742 -0.99527971
v -0.00000000 1.99214688 -0.72508270
v -0.00000000 2.07367143 -0.44077278
v -0.00000000 2.11483431 -0.14788372
v -0.00000000 2.11483431 0.14788372
v -0.00000000 2.07367143 0.44077278
v -0.00000000 1.99214688 0.72508270
v -0.00000000 1.87184742 0.99527971
v -0.00000000 1.71511455 1.24610473
v -0.00000000 1.52499890 1.47267575
v -0.00000000 1.30520085 1.67058280
v -0.00000000 1.05999852 1.83597386
v -0.00000000 0.79416450 1.96562977
v -0.00000000 0.51287294 2.05702694
v -0.00000000 0.22159886 2.10838642
v -0.00000000 -0.07398841 2.11870855
v -0.00000000 -0.36813562 2.08779244
v -0.00000000 -0.65511751 2.01623981
v -0.00000000 -0.92934831 1.90544338
v -0.00000000 -1.18549044 1.75755965
v 0.00000000 -1.41855837 1.57546703
v 0.00000000 -1.62401570 1.36270973
v 0.00000000 -1.79786344 1.12342884
v 0.00000000 -1.93671785 0.86228168
v 0.00000000 -2.03787628 0.58435119
v 0.00000000 -2.09936979 0.29504697
v 0.00000000 -2.11999171 12.70000489
v 0.00000000 -2.09936001 12.40495791
v 0.00000000 -2.03786650 12.11565369
v 0.00000000 -1.93670808 11.83772320
v 0.00000000 -1.79785367 11.57657605
v 0.00000000 -1.62400593 11.33729515
v 0.00000000 -1.41854859 11.12453786
v 0.00000000 -1.18548066 10.94244523
v 0.00000000 -0.92933854 10.79456151
v 0.00000000 -0.65510774 10.68376507
v 0.00000000 -0.36812584 10.61221245
v 0.00000000 -0.07397864 10.58129633
v 0.00000000 0.22160863 10.59161847
v 0.00000000 0.51288271 10.64297795
v 0.00000000 0.79417427 10.73437511
v 0.00000000 1.06000829 10.86403103
v 0.00000000 1.30521062 11.02942209
v -0.00000000 1.52500867 11.22732914
v -0.00000000 1.71512432 11.45390015
v -0.00000000 1.87185719 11.70472517
v -0.00000000 1.99215665 11.97492218
v -0.00000000 2.07368121 12.25923210
v -0.00000000 2.11484408 12.55212116
v -0.00000000 2.11484408 12.84788861
v -0.00000000 2.07368121 13.14077767
v -0.00000000 1.99215665 13.42508759
v -0.00000000 1.87185719 13.69528460
v -0.00000000 1.71512432 13.94610962
v -0.00000000 1.52500867 14.17268063
v -0.00000000 1.30521062 14.37058768
v -0.00000000 1.06000829 14.53597874
v -0.00000000 0.79417427 14.66563466
v -0.00000000 0.51288271 14.75703183
v -0.00000000 0.22160863 14.80839130
v -0.00000000 -0.07397864 14.81871344
v -0.00000000 -0.36812584 14.78779732
v -0.00000000 -0.65510774 14.71624470
v -0.00000000 -0.92933854 14.60544826
v -0.00000000 -1.18548066 14.45756454
v 0.00000000 -1.41854859 14.27547192
v 0.00000000 -1.62400593 14.06271462
v 0.00000000 -1.79785367 13.82343373
v 0.00000000 -1.93670808 13.56228657
v 0.00000000 -2.03786650 13.28435608
v 0.00000000 -2.09936001 12.99505186
v -6.35000000 4.85825746 2.43080139
v -6.35000000 4.85825558 -2.43079536
v -6.35000000 4.85825264 -10.09325235
v -6.35000000 4.85825074 -15.01979736
v -6.35000000 2.31979703 -17.55824912
v -6.35000000 -2.31980372 -17.55824733
v -6.35000000 -4.85825549 -15.01979362
v -6.35000000 -4.85825359 -10.09324861
v -6.35000000 -4.85825064 -2.43079162
v -6.35000000 -4.85824877 2.43080513
v -6.35000000 -4.85824582 10.09326212
v -6.35000000 -4.85824393 15.01980713
v -6.35000000 -2.31979021 17.55825889
v -6.35000000 2.31981054 17.55825711
v -6.35000000 4.85826230 15.01980339
v -6.35000000 4.85826040 10.09325838
v -6.35000000 -2.12000148 -12.69999511
v -6.35000000 -2.09936979 -12.40494814
v -6.35000000 -2.03787628 -12.11564392
v -6.35000000 -1.93671785 -11.83771343
v -6.35000000 -1.79786344 -11.57656627
v -6.35000000 -1.62401570 -11.33728538
v -6.35000000 -1.41855837 -11.12452808
v -6.35000000 -1.18549044 -10.94243546
v -6.35000000 -0.92934831 -10.79455174
v -6.35000000 -0.65511751 -10.68375530
v -6.35000000 -0.36813562 -10.61220268
v -6.35000000 -0.07398841 -10.58128656
v -6.35000000 0.22159886 -10.59160870
v -6.35000000 0.51287294 -10.64296817
v -6.35000000 0.79416450 -10.73436534
v -6.35000000 1.05999852 -10.86402126
v -6.35000000 1.30520085 -11.02941232
v -6.35000000 1.52499890 -11.22731937
v -6.35000000 1.71511455 -11.45389038
v -6.35000000 1.87184742 -11.70471540
v -6.35000000 1.99214688 -11.97491241
v -6.35000000 2.07367143 -12.25922233
v -6.35000000 2.11483431 -12.55211139
v -6.35000000 2.11483431 -12.84787884
v -6.35000000 2.07367143 -13.14076790
v -6.35000000 1.99214688 -13.42507782
v -6.35000000 1.87184742 -13.69527483
v -6.35000000 1.71511455 -13.94609985
v -6.35000000 1.52499890 -14.17267086
v -6.35000000 1.30520085 -14.37057791
v -6.35000000 1.05999852 -14.53596897
v -6.35000000 0.79416450 -14.66562489
v -6.35000000 0.51287294 -14.75702205
v -6.35000000 0.22159886 -14.80838153
v -6.35000000 -0.07398841 -14.81870367
v -6.35000000 -0.36813562 -14.78778755
v -6.35000000 -0.65511751 -14.71623493
v -6.35000000 -0.92934831 -14.60543849
v -6.35000000 -1.18549044 -14.45755477
v -6.35000000 -1.41855837 -14.27546214
v -6.35000000 -1.62401570 -14.06270485
v -6.35000000 -1.79786344 -13.82342395
v -6.35000000 -1.93671785 -13.56227680
v -6.35000000 -2.03787628 -13.28434631
v -6.35000000 -2.09936979 -12.99504209
v -6.35000000 -2.12000148 -0.00000000
v -6.35000000 -2.09936979 0.29504697
v -6.35000000 -2.03787628 0.58435119
v -6.35000000 -1.93671785 0.86228168
v -6.35000000 -1.79786344 1.12342884
v -6.35000000 -1.62401570 1.36270973
v -6.35000000 -1.41855837 1.57546703
v -6.35000000 -1.18549044 1.75755965
v -6.35000000 -0.92934831 1.90544338
v -6.35000000 -0.65511751 2.01623981
v -6.35000000 -0.36813562 2.08779244
v -6.35000000 -0.07398841 2.11870855
v -6.35000000 0.22159886 2.10838642
v -6.35000000 0.51287294 2.05702694
v -6.35000000 0.79416450 1.96562977
v -6.35000000 1.05999852 1.83597386
v -6.35000000 1.30520085 1.67058280
v -6.35000000 1.52499890 1.47267575
v -6.35000000 1.71511455 1.24610473
v -6.35000000 1.87184742 0.99527971
v -6.35000000 1.99214688 0.72508270
v -6.35000000 2.07367143 0.44077278
v -6.35000000 2.11483431 0.14788372
v -6.35000000 2.11483431 -0.14788372
v -6.35000000 2.07367143 -0.44077278
v -6.35000000 1.99214688 -0.72508270
v -6.35000000 1.87184742 -0.99527971
v -6.35000000 1.71511455 -1.24610473
v -6.35000000 1.52499890 -1.47267575
v -6.35000000 1.30520085 -1.67058280
v -6.35000000 1.05999852 -1.83597386
v -6.35000000 0.79416450 -1.96562977
v -6.35000000 0.51287294 -2.05702694
v -6.35000000 0.22159886 -2.10838642
v -6.35000000 -0.07398841 -2.11870855
v -6.35000000 -0.36813562 -2.08779244
v -6.35000000 -0.65511751 -2.01623981
v -6.35000000 -0.92934831 -1.90544338
v -6.35000000 -1.18549044 -1.75755965
v -6.35000000 -1.41855837 -1.57546703
v -6.35000000 -1.62401570 -1.36270973
v -6.35000000 -1.79786344 -1.12342884
v -6.35000000 -1.93671785 -0.86228168
v -6.35000000 -2.03787628 -0.58435119
v -6.35000000 -2.09936979 -0.29504697
v -6.35000000 -2.11999171 12.70000489
v -6.35000000 -2.09936001 12.99505186
v -6.35000000 -2.03786650 13.28435608
v -6.35000000 -1.93670808 13.56228657
v -6.35000000 -1.79785367 13.82343373
v -6.35000000 -1.62400593 14.06271462
v -6.35000000 -1.41854859 14.27547192
v -6.35000000 -1.18548066 14.45756454
v -6.35000000 -0.92933854 14.60544826
v -6.35000000 -0.65510774 14.71624470
v -6.35000000 -0.36812584 14.78779732
v -6.35000000 -0.07397864 14.81871344
v -6.35000000 0.22160863 14.80839130
v -6.35000000 0.51288271 14.75703183
v -6.35000000 0.79417427 14.66563466
v -6.35000000 1.06000829 14.53597874
v -6.35000000 1.30521062 14.37058768
v -6.35000000 1.52500867 14.17268063
v -6.35000000 1.71512432 13.94610962
v -6.35000000 1.87185719 13.69528460
v -6.35000000 1.99215665 13.42508759
v -6.35000000 2.07368121 13.14077767
v -6.35000000 2.11484408 12.84788861
v -6.35000000 2.11484408 12.55212116
v -6.35000000 2.07368121 12.25923210
v -6.35000000 1.99215665 11.97492218
v -6.35000000 1.87185719 11.70472517
v -6.35000000 1.71512432 11.45390015
v -6.35000000 1.52500867 11.22732914
v -6.35000000 1.30521062 11.02942209
v -6.35000000 1.06000829 10.86403103
v -6.35000000 0.79417427 10.73437511
v -6.35000000 0.51288271 10.64297795
v -6.35000000 0.22160863 10.59161847
v -6.35000000 -0.07397864 10.58129633
v -6.35000000 -0.36812584 10.61221245
v -6.35000000 -0.65510774 10.68376507
v -6.35000000 -0.92933854 10.79456151
v -6.35000000 -1.18548066 10.94244523
v -6.35000000 -1.41854859 11.12453786
v -6.35000000 -1.62400593 11.33729515
v -6.35000000 -1.79785367 11.57657605
v -6.35000000 -1.93670808 11.83772320
v -6.35000000 -2.03786650 12.11565369
v -6.35000000 -2.09936001 12.40495791
f 12 10 11
f 9 10 12
f 13 7 8
f 13 8 9
f 13 9 12
f 6 7 13
f 5 6 13
f 14 4 5
f 14 5 13
f 3 4 14
f 2 3 14
f 1 2 14
f 15 1 14
f 17 15 16
f 17 1 15
f 34 32 33
f 27 28 29
f 18 31 32
f 18 32 34
f 26 29 30
f 26 27 29
f 19 31 18
f 25 26 30
f 20 31 19
f 24 25 30
f 21 31 20
f 23 24 30
f 22 30 31
f 22 31 21
f 22 23 30
f 49 50 51
f 35 49 51
f 48 35 36
f 48 36 37
f 48 49 35
f 38 48 37
f 39 48 38
f 47 39 40
f 47 48 39
f 41 47 40
f 42 47 41
f 43 47 42
f 46 47 43
f 44 45 46
f 44 46 43
f 65 52 53
f 65 53 54
f 65 54 55
f 65 55 56
f 64 56 57
f 64 57 58
f 64 58 59
f 64 59 60
f 64 65 56
f 66 68 52
f 66 52 65
f 63 60 61
f 63 64 60
f 67 68 66
f 62 63 61
f 80 78 79
f 77 78 80
f 81 75 76
f 81 76 77
f 81 77 80
f 74 75 81
f 73 74 81
f 82 72 73
f 82 73 81
f 71 72 82
f 70 71 82
f 69 70 82
f 83 69 82
f 85 83 84
f 85 69 83
f 95 96 97
f 102 100 101
f 86 99 100
f 86 100 102
f 94 97 98
f 94 95 97
f 87 99 86
f 93 94 98
f 88 99 87
f 92 93 98
f 89 99 88
f 91 92 98
f 90 98 99
f 90 99 89
f 90 91 98
f 117 118 119
f 103 117 119
f 116 103 104
f 116 104 105
f 116 117 103
f 106 116 105
f 107 116 106
f 115 107 108
f 115 116 107
f 109 115 108
f 110 115 109
f 111 115 110
f 114 115 111
f 112 113 114
f 112 114 111
f 132 124 125
f 132 125 126
f 132 126 127
f 132 127 128
f 133 120 121
f 133 121 122
f 133 122 123
f 133 123 124
f 133 124 132
f 131 128 129
f 131 132 128
f 134 136 120
f 134 120 133
f 130 131 129
f 135 136 134
f 148 146 147
f 145 146 148
f 149 143 144
f 149 144 145
f 149 145 148
f 142 143 149
f 141 142 149
f 150 140 141
f 150 141 149
f 139 140 150
f 138 139 150
f 137 138 150
f 151 137 150
f 153 151 152
f 153 137 151
f 163 164 165
f 170 168 169
f 154 167 168
f 154 168 170
f 162 165 166
f 162 163 165
f 155 167 154
f 161 162 166
f 156 167 155
f 160 161 166
f 157 167 156
f 159 160 166
f 158 166 167
f 158 167 157
f 158 159 166
f 185 186 187
f 171 185 187
f 184 171 172
f 184 172 173
f 184 185 171
f 174 184 173
f 175 184 174
f 183 175 176
f 183 184 175
f 177 183 176
f 178 183 177
f 179 183 178
f 182 183 179
f 180 181 182
f 180 182 179
f 200 192 193
f 200 193 194
f 200 194 195
f 200 195 196
f 201 188 189
f 201 189 190
f 201 190 191
f 201 191 192
f 201 192 200
f 199 196 197
f 199 200 196
f 202 204 188
f 202 188 201
f 198 199 197
f 203 204 202
f 208 205 206
f 208 206 207
f 211 209 210
f 211 212 209
f 222 216 217
f 15 218 16
f 214 215 219
f 11 213 12
f 223 14 13
f 223 15 14
f 223 217 218
f 223 221 222
f 223 222 217
f 223 218 15
f 224 213 214
f 224 13 12
f 224 219 220
f 224 220 221
f 224 221 223
f 224 214 219
f 224 223 13
f 224 12 213
f 217 216 225
f 218 217 225
f 17 16 218
f 17 218 225
f 226 1 17
f 226 17 225
f 2 1 226
f 2 226 228
f 3 228 229
f 3 2 228
f 4 229 230
f 4 3 229
f 5 230 231
f 5 231 232
f 5 4 230
f 6 232 233
f 6 5 232
f 7 233 234
f 7 6 233
f 8 234 227
f 8 7 234
f 9 8 227
f 227 235 10
f 9 227 10
f 213 11 10
f 235 214 213
f 235 215 214
f 235 213 10
f 27 26 236
f 237 27 236
f 240 28 27
f 237 238 239
f 237 239 240
f 237 240 27
f 247 241 242
f 32 243 33
f 239 238 244
f 28 240 29
f 248 32 31
f 248 242 243
f 248 246 247
f 248 247 242
f 248 243 32
f 249 30 29
f 249 31 30
f 249 244 245
f 249 245 246
f 249 240 239
f 249 246 248
f 249 239 244
f 249 248 31
f 249 29 240
f 243 34 33
f 250 243 242
f 250 34 243
f 241 250 242
f 251 18 34
f 251 34 250
f 236 26 25
f 258 25 24
f 258 236 25
f 257 24 23
f 257 258 24
f 256 23 22
f 256 257 23
f 255 256 22
f 254 22 21
f 254 255 22
f 253 21 20
f 253 254 21
f 252 20 19
f 252 253 20
f 251 19 18
f 251 252 19
f 263 264 267
f 49 268 50
f 266 259 260
f 45 265 46
f 269 261 262
f 269 262 263
f 269 48 47
f 269 49 48
f 269 267 268
f 269 263 267
f 269 268 49
f 270 260 261
f 270 265 266
f 270 47 46
f 270 261 269
f 270 266 260
f 270 269 47
f 270 46 265
f 268 51 50
f 271 268 267
f 271 51 268
f 264 271 267
f 51 272 35
f 51 271 272
f 36 35 272
f 36 272 274
f 37 274 275
f 37 36 274
f 38 275 276
f 38 37 275
f 39 276 277
f 39 277 278
f 39 38 276
f 40 278 279
f 40 39 278
f 41 279 280
f 41 40 279
f 42 280 273
f 42 41 280
f 43 42 273
f 281 44 43
f 281 43 273
f 266 281 259
f 265 281 266
f 44 281 265
f 45 44 265
f 60 282 283
f 60 283 61
f 285 283 284
f 286 283 285
f 61 283 286
f 62 61 286
f 293 287 288
f 66 289 67
f 285 284 290
f 62 286 63
f 294 65 64
f 294 66 65
f 294 288 289
f 294 291 292
f 294 292 293
f 294 293 288
f 294 289 66
f 295 64 63
f 295 290 291
f 295 286 285
f 295 291 294
f 295 285 290
f 295 294 64
f 295 63 286
f 288 287 296
f 289 288 296
f 68 67 289
f 68 289 296
f 296 297 52
f 68 296 52
f 282 60 59
f 304 59 58
f 304 282 59
f 303 58 57
f 303 304 58
f 302 57 56
f 302 303 57
f 301 302 56
f 300 56 55
f 300 301 56
f 299 55 54
f 299 300 55
f 298 54 53
f 298 299 54
f 297 53 52
f 297 298 53
f 314 308 309
f 83 310 84
f 306 307 311
f 79 305 80
f 315 82 81
f 315 83 82
f 315 309 310
f 315 313 314
f 315 314 309
f 315 310 83
f 316 305 306
f 316 81 80
f 316 311 312
f 316 312 313
f 316 313 315
f 316 306 311
f 316 315 81
f 316 80 305
f 309 308 317
f 310 309 317
f 85 84 310
f 85 310 317
f 318 69 85
f 318 85 317
f 70 69 318
f 70 318 320
f 71 320 321
f 71 70 320
f 72 321 322
f 72 71 321
f 73 322 323
f 73 323 324
f 73 72 322
f 74 324 325
f 74 73 324
f 75 325 326
f 75 74 325
f 76 326 319
f 76 75 326
f 77 76 319
f 77 319 327
f 77 327 78
f 305 79 78
f 327 306 305
f 327 307 306
f 327 305 78
f 335 328 329
f 100 330 101
f 337 331 332
f 96 336 97
f 338 100 99
f 338 329 330
f 338 334 335
f 338 335 329
f 338 330 100
f 339 98 97
f 339 99 98
f 339 332 333
f 339 333 334
f 339 336 337
f 339 334 338
f 339 337 332
f 339 338 99
f 339 97 336
f 330 102 101
f 340 330 329
f 340 102 330
f 328 340 329
f 86 102 340
f 341 86 340
f 349 94 93
f 348 93 92
f 348 349 93
f 347 92 91
f 347 348 92
f 346 91 90
f 346 347 91
f 345 346 90
f 344 90 89
f 344 345 90
f 343 89 88
f 343 344 89
f 342 88 87
f 342 343 88
f 341 87 86
f 341 342 87
f 350 95 94
f 350 94 349
f 336 96 95
f 350 337 336
f 350 331 337
f 350 336 95
f 355 356 359
f 117 360 118
f 358 351 352
f 113 357 114
f 361 353 354
f 361 354 355
f 361 117 116
f 361 359 360
f 361 355 359
f 361 360 117
f 362 352 353
f 362 357 358
f 362 115 114
f 362 116 115
f 362 353 361
f 362 361 116
f 362 358 352
f 362 114 357
f 360 119 118
f 363 360 359
f 363 119 360
f 356 363 359
f 119 364 103
f 119 363 364
f 104 103 364
f 104 364 366
f 105 366 367
f 105 104 366
f 106 367 368
f 106 105 367
f 107 368 369
f 107 369 370
f 107 106 368
f 108 370 371
f 108 107 370
f 109 371 372
f 109 108 371
f 110 372 365
f 110 109 372
f 111 110 365
f 112 111 365
f 373 112 365
f 358 373 351
f 357 373 358
f 112 373 357
f 113 112 357
f 381 374 375
f 134 376 135
f 383 377 378
f 130 382 131
f 384 133 132
f 384 134 133
f 384 375 376
f 384 379 380
f 384 380 381
f 384 381 375
f 384 376 134
f 385 132 131
f 385 378 379
f 385 382 383
f 385 379 384
f 385 383 378
f 385 384 132
f 385 131 382
f 375 374 386
f 376 375 386
f 136 135 376
f 136 376 386
f 386 387 120
f 136 386 120
f 395 128 127
f 394 127 126
f 394 395 127
f 393 126 125
f 393 394 126
f 392 125 124
f 392 393 125
f 391 392 124
f 390 124 123
f 390 391 124
f 389 123 122
f 389 390 123
f 388 122 121
f 388 389 122
f 387 121 120
f 387 388 121
f 395 396 129
f 128 395 129
f 383 396 377
f 382 396 383
f 129 396 382
f 130 129 382
f 406 400 401
f 151 402 152
f 398 399 403
f 147 397 148
f 407 150 149
f 407 151 150
f 407 401 402
f 407 405 406
f 407 406 401
f 407 402 151
f 408 397 398
f 408 149 148
f 408 403 404
f 408 404 405
f 408 405 407
f 408 398 403
f 408 407 149
f 408 148 397
f 401 400 409
f 402 401 409
f 153 152 402
f 153 402 409
f 410 137 153
f 410 153 409
f 138 137 410
f 138 410 412
f 139 412 413
f 139 138 412
f 140 413 414
f 140 139 413
f 141 414 415
f 141 415 416
f 141 140 414
f 142 416 417
f 142 141 416
f 143 417 418
f 143 142 417
f 144 418 411
f 144 143 418
f 145 144 411
f 145 411 419
f 145 419 146
f 397 147 146
f 419 398 397
f 419 399 398
f 419 397 146
f 427 420 421
f 168 422 169
f 429 423 424
f 164 428 165
f 430 168 167
f 430 421 422
f 430 425 426
f 430 426 427
f 430 427 421
f 430 422 168
f 431 166 165
f 431 167 166
f 431 424 425
f 431 428 429
f 431 425 430
f 431 429 424
f 431 430 167
f 431 165 428
f 422 170 169
f 432 422 421
f 432 170 422
f 420 432 421
f 154 170 432
f 433 154 432
f 441 162 161
f 440 161 160
f 440 441 161
f 439 160 159
f 439 440 160
f 438 159 158
f 438 439 159
f 437 438 158
f 436 158 157
f 436 437 158
f 435 157 156
f 435 436 157
f 434 156 155
f 434 435 156
f 433 155 154
f 433 434 155
f 442 163 162
f 442 162 441
f 428 164 163
f 442 429 428
f 442 423 429
f 442 428 163
f 447 448 451
f 185 452 186
f 450 443 444
f 181 449 182
f 453 446 447
f 453 185 184
f 453 451 452
f 453 447 451
f 453 452 185
f 454 444 445
f 454 445 446
f 454 449 450
f 454 183 182
f 454 184 183
f 454 446 453
f 454 453 184
f 454 450 444
f 454 182 449
f 452 187 186
f 455 452 451
f 455 187 452
f 448 455 451
f 187 456 171
f 187 455 456
f 172 171 456
f 172 456 458
f 173 458 459
f 173 172 458
f 174 459 460
f 174 173 459
f 175 460 461
f 175 461 462
f 175 174 460
f 176 462 463
f 176 175 462
f 177 463 464
f 177 176 463
f 178 464 457
f 178 177 464
f 179 178 457
f 180 179 457
f 465 180 457
f 450 465 443
f 449 465 450
f 180 465 449
f 181 180 449
f 473 466 467
f 202 468 203
f 475 469 470
f 198 474 199
f 476 202 201
f 476 467 468
f 476 472 473
f 476 473 467
f 476 468 202
f 477 200 199
f 477 201 200
f 477 470 471
f 477 471 472
f 477 474 475
f 477 472 476
f 477 475 470
f 477 476 201
f 477 199 474
f 467 466 478
f 468 467 478
f 204 203 468
f 204 468 478
f 478 479 188
f 204 478 188
f 487 196 195
f 486 195 194
f 486 487 195
f 485 194 193
f 485 486 194
f 484 193 192
f 484 485 193
f 483 484 192
f 482 192 191
f 482 483 192
f 481 191 190
f 481 482 191
f 480 190 189
f 480 481 190
f 479 189 188
f 479 480 189
f 487 488 197
f 196 487 197
f 475 488 469
f 474 488 475
f 197 488 474
f 198 197 474
f 489 206 205
f 489 205 490
f 491 207 206
f 491 206 489
f 492 208 207
f 492 207 491
f 490 208 492
f 490 205 208
f 493 210 209
f 493 209 494
f 495 211 210
f 495 210 493
f 496 211 495
f 496 212 211
f 494 209 212
f 494 212 496
f 499 497 498
f 499 500 497
f 504 502 503
f 501 502 504
f 505 506 507
f 505 507 508
f 510 512 509
f 511 512 510
f 513 514 515
f 513 515 516
f 518 520 517
f 519 520 518
f 518 515 514
f 519 514 521
f 519 518 514
f 522 519 521
f 510 507 506
f 511 506 523
f 511 510 506
f 524 511 523
f 498 503 502
f 498 526 503
f 525 526 498
f 499 498 502
f 529 527 528
f 529 530 527
f 528 532 531
f 528 534 532
f 533 534 528
f 529 528 531
f 536 531 532
f 535 531 536
f 277 537 538
f 278 277 538
f 276 537 277
f 279 278 538
f 275 537 276
f 280 279 538
f 274 537 275
f 272 537 274
f 273 280 538
f 271 537 272
f 281 273 538
f 562 262 261
f 561 263 262
f 561 262 562
f 563 261 260
f 563 562 261
f 560 264 263
f 560 263 561
f 564 260 259
f 564 563 260
f 559 264 560
f 559 271 264
f 565 564 259
f 565 259 281
f 558 271 559
f 566 565 281
f 557 271 558
f 567 281 538
f 567 566 281
f 556 539 537
f 556 271 557
f 556 537 271
f 568 567 538
f 283 539 556
f 283 555 554
f 283 556 555
f 250 568 538
f 250 569 568
f 570 569 250
f 241 570 250
f 284 283 554
f 553 284 554
f 493 250 538
f 571 570 241
f 247 571 241
f 290 284 553
f 552 290 553
f 282 539 283
f 251 250 493
f 572 571 247
f 252 251 493
f 304 539 282
f 253 252 493
f 303 539 304
f 246 572 247
f 291 290 552
f 551 291 552
f 254 253 493
f 302 539 303
f 573 572 246
f 255 254 493
f 301 539 302
f 256 255 493
f 245 573 246
f 292 291 551
f 257 256 493
f 550 292 551
f 574 573 245
f 258 257 493
f 236 258 493
f 244 574 245
f 293 292 550
f 549 293 550
f 575 574 244
f 287 293 549
f 287 549 548
f 238 575 244
f 576 575 238
f 237 576 238
f 547 296 287
f 547 287 548
f 577 576 237
f 546 296 547
f 578 577 237
f 545 296 546
f 579 578 237
f 540 297 296
f 540 296 545
f 540 539 301
f 540 298 297
f 540 299 298
f 540 300 299
f 540 301 300
f 216 582 581
f 215 587 586
f 215 588 587
f 219 215 586
f 219 586 585
f 222 582 216
f 222 583 582
f 235 540 545
f 235 589 588
f 235 545 589
f 235 588 215
f 225 579 237
f 225 580 579
f 225 581 580
f 225 216 581
f 220 585 584
f 220 219 585
f 221 584 583
f 221 583 222
f 221 220 584
f 495 493 538
f 494 228 226
f 494 229 228
f 494 230 229
f 494 231 230
f 494 232 231
f 494 233 232
f 494 234 233
f 494 227 234
f 494 235 227
f 494 540 235
f 462 461 495
f 460 495 461
f 463 462 495
f 459 495 460
f 464 463 495
f 458 495 459
f 457 464 495
f 456 495 458
f 465 457 495
f 455 495 456
f 607 446 445
f 606 447 446
f 606 446 607
f 608 607 445
f 608 445 444
f 605 448 447
f 605 447 606
f 609 444 443
f 609 608 444
f 604 455 448
f 604 448 605
f 610 443 465
f 610 609 443
f 603 455 604
f 611 610 465
f 602 455 603
f 612 611 465
f 601 455 602
f 432 612 465
f 432 465 495
f 432 613 612
f 432 614 613
f 488 455 601
f 488 600 599
f 488 601 600
f 615 614 432
f 420 615 432
f 469 488 599
f 598 469 599
f 616 615 420
f 427 616 420
f 470 469 598
f 597 470 598
f 617 616 427
f 496 487 486
f 496 488 487
f 496 540 494
f 485 496 486
f 426 617 427
f 471 470 597
f 596 471 597
f 484 496 485
f 618 617 426
f 483 496 484
f 482 496 483
f 425 618 426
f 472 471 596
f 491 433 432
f 491 434 433
f 491 435 434
f 491 436 435
f 491 437 436
f 491 438 437
f 491 439 438
f 491 432 495
f 595 472 596
f 481 496 482
f 619 618 425
f 440 439 491
f 480 496 481
f 441 440 491
f 479 496 480
f 424 619 425
f 473 472 595
f 594 473 595
f 620 619 424
f 423 620 424
f 466 473 594
f 466 594 593
f 621 620 423
f 442 621 423
f 442 441 491
f 478 496 479
f 592 478 466
f 592 466 593
f 622 621 442
f 591 478 592
f 623 622 442
f 590 478 591
f 624 623 442
f 400 627 626
f 399 632 631
f 399 633 632
f 406 628 627
f 406 627 400
f 403 631 630
f 403 399 631
f 419 478 590
f 419 634 633
f 419 633 399
f 419 590 634
f 409 624 442
f 409 400 626
f 409 625 624
f 409 626 625
f 405 629 628
f 405 628 406
f 404 629 405
f 404 403 630
f 404 630 629
f 489 496 478
f 489 478 419
f 489 410 409
f 489 412 410
f 489 413 412
f 489 414 413
f 489 415 414
f 489 416 415
f 489 417 416
f 489 418 417
f 489 411 418
f 489 419 411
f 370 369 492
f 368 492 369
f 371 370 492
f 367 492 368
f 372 371 492
f 366 492 367
f 364 492 366
f 365 372 492
f 373 365 492
f 652 354 353
f 651 355 354
f 651 354 652
f 653 353 352
f 653 652 353
f 650 356 355
f 650 355 651
f 654 352 351
f 654 653 352
f 649 356 650
f 649 363 356
f 655 351 373
f 655 654 351
f 648 363 649
f 544 492 491
f 544 373 492
f 656 655 373
f 647 363 648
f 657 373 544
f 657 656 373
f 646 363 647
f 658 657 544
f 396 645 644
f 396 646 645
f 396 363 646
f 340 659 658
f 340 658 544
f 660 659 340
f 328 660 340
f 377 396 644
f 643 377 644
f 661 660 328
f 335 661 328
f 378 377 643
f 642 378 643
f 341 340 544
f 662 661 335
f 342 341 544
f 343 342 544
f 334 662 335
f 379 378 642
f 641 379 642
f 344 343 544
f 663 662 334
f 345 344 544
f 333 663 334
f 380 379 641
f 640 380 641
f 664 663 333
f 332 664 333
f 381 380 640
f 639 381 640
f 665 664 332
f 490 388 387
f 490 389 388
f 490 390 389
f 490 391 390
f 490 392 391
f 490 393 392
f 490 394 393
f 490 395 394
f 331 665 332
f 374 639 638
f 374 381 639
f 666 665 331
f 386 490 387
f 350 666 331
f 637 386 374
f 637 374 638
f 667 666 350
f 636 386 637
f 668 667 350
f 635 386 636
f 669 668 350
f 543 669 350
f 543 346 345
f 543 347 346
f 543 348 347
f 543 349 348
f 543 350 349
f 543 345 544
f 308 672 671
f 307 677 676
f 307 678 677
f 314 672 308
f 314 673 672
f 311 307 676
f 311 676 675
f 327 678 307
f 327 679 678
f 327 635 679
f 317 670 669
f 317 671 670
f 317 308 671
f 313 673 314
f 313 674 673
f 312 311 675
f 312 675 674
f 312 674 313
f 541 386 635
f 541 324 323
f 541 325 324
f 541 326 325
f 541 319 326
f 541 327 319
f 541 489 490
f 541 635 327
f 541 490 386
f 542 318 317
f 542 320 318
f 542 321 320
f 542 322 321
f 542 323 322
f 542 317 669
f 542 541 323
f 542 669 543
f 540 489 541
f 540 496 489
f 544 495 538
f 544 491 495
f 489 409 491
f 409 442 491
f 492 364 490
f 364 363 490
f 363 396 490
f 396 395 490
f 494 226 493
f 226 225 493
f 225 237 493
f 237 236 493
f 495 455 496
f 455 488 496
f 536 534 680
f 532 534 536
f 498 497 681
f 498 681 525
f 499 502 501
f 499 501 500
f 503 526 682
f 503 682 504
f 538 684 683
f 537 684 538
f 539 685 684
f 539 684 537
f 540 686 685
f 539 540 685
f 523 506 505
f 523 505 687
f 507 510 509
f 507 509 508
f 512 524 688
f 511 524 512
f 513 689 521
f 514 513 521
f 515 518 517
f 515 517 516
f 520 522 690
f 519 522 520
f 523 687 686
f 523 686 540
f 524 523 540
f 521 689 688
f 521 688 524
f 691 690 522
f 541 522 521
f 541 691 522
f 540 541 521
f 540 521 524
f 542 691 541
f 542 692 691
f 693 542 543
f 692 542 693
f 543 544 694
f 543 694 693
f 526 538 683
f 682 526 683
f 525 538 526
f 534 525 681
f 680 534 681
f 544 534 533
f 694 533 695
f 694 544 533
f 544 538 525
f 544 525 534
f 533 528 527
f 533 527 695
f 531 535 530
f 529 531 530
f 724 683 684
f 725 724 684
f 723 683 724
f 726 725 684
f 722 683 723
f 727 726 684
f 721 683 722
f 728 727 684
f 720 683 721
f 729 728 684
f 719 683 720
f 730 684 685
f 730 729 684
f 718 682 683
f 718 683 719
f 731 730 685
f 717 682 718
f 732 731 685
f 716 682 717
f 733 732 685
f 715 682 716
f 734 733 685
f 714 682 715
f 735 734 685
f 713 682 714
f 686 735 685
f 686 736 735
f 686 737 736
f 686 738 737
f 686 739 738
f 686 740 739
f 686 696 740
f 504 682 713
f 504 711 710
f 504 712 711
f 504 713 712
f 501 504 710
f 501 708 707
f 501 709 708
f 501 710 709
f 508 501 707
f 508 705 704
f 508 706 705
f 508 707 706
f 500 501 508
f 505 703 702
f 505 704 703
f 505 508 704
f 687 697 696
f 687 698 697
f 687 696 686
f 687 699 698
f 687 700 699
f 687 701 700
f 687 702 701
f 687 505 702
f 509 500 508
f 769 681 497
f 770 769 497
f 768 681 769
f 771 770 497
f 767 681 768
f 772 497 500
f 772 771 497
f 766 681 767
f 773 772 500
f 765 681 766
f 774 773 500
f 764 681 765
f 775 500 509
f 775 774 500
f 763 681 764
f 763 680 681
f 776 775 509
f 762 680 763
f 777 776 509
f 761 680 762
f 778 777 509
f 778 509 512
f 760 680 761
f 779 778 512
f 759 680 760
f 780 779 512
f 758 680 759
f 688 781 780
f 688 782 781
f 688 783 782
f 688 784 783
f 688 785 784
f 688 741 785
f 688 780 512
f 536 680 758
f 536 756 755
f 536 757 756
f 536 758 757
f 535 536 755
f 535 753 752
f 535 754 753
f 535 755 754
f 516 535 752
f 516 750 749
f 516 751 750
f 516 752 751
f 530 535 516
f 513 516 749
f 513 748 747
f 513 749 748
f 689 741 688
f 689 513 747
f 689 742 741
f 689 743 742
f 689 744 743
f 689 745 744
f 689 746 745
f 689 747 746
f 517 530 516
f 814 695 527
f 815 814 527
f 813 695 814
f 816 815 527
f 812 695 813
f 817 816 527
f 817 527 530
f 811 695 812
f 818 817 530
f 810 695 811
f 819 818 530
f 809 695 810
f 809 694 695
f 820 819 530
f 820 530 517
f 808 694 809
f 821 820 517
f 807 694 808
f 822 821 517
f 806 694 807
f 823 822 517
f 823 517 520
f 805 694 806
f 824 823 520
f 804 694 805
f 825 824 520
f 803 694 804
f 690 825 520
f 690 826 825
f 690 827 826
f 690 828 827
f 690 829 828
f 690 830 829
f 690 786 830
f 693 798 797
f 693 799 798
f 693 800 799
f 693 801 800
f 693 802 801
f 693 803 802
f 693 694 803
f 692 793 792
f 692 794 793
f 692 795 794
f 692 796 795
f 692 797 796
f 692 693 797
f 691 787 786
f 691 788 787
f 691 789 788
f 691 790 789
f 691 791 790
f 691 792 791
f 691 786 690
f 691 692 792
f 786 679 635
f 787 679 786
f 787 678 679
f 788 678 787
f 788 677 678
f 789 677 788
f 789 676 677
f 790 676 789
f 790 675 676
f 791 675 790
f 791 674 675
f 792 674 791
f 792 673 674
f 793 673 792
f 793 672 673
f 794 672 793
f 794 671 672
f 795 671 794
f 795 670 671
f 796 670 795
f 796 669 670
f 797 669 796
f 797 668 669
f 798 668 797
f 798 667 668
f 799 667 798
f 799 666 667
f 800 666 799
f 800 665 666
f 801 665 800
f 801 664 665
f 802 664 801
f 803 664 802
f 803 662 663
f 803 663 664
f 804 662 803
f 804 661 662
f 805 660 661
f 805 661 804
f 806 659 660
f 806 660 805
f 807 658 659
f 807 659 806
f 808 658 807
f 809 656 657
f 809 657 658
f 809 658 808
f 810 656 809
f 811 654 655
f 811 655 656
f 811 656 810
f 812 654 811
f 813 654 812
f 813 653 654
f 814 653 813
f 814 651 652
f 814 652 653
f 815 651 814
f 816 651 815
f 816 649 650
f 816 650 651
f 817 649 816
f 817 648 649
f 818 648 817
f 818 647 648
f 819 647 818
f 820 647 819
f 820 645 646
f 820 646 647
f 821 645 820
f 821 644 645
f 822 644 821
f 822 643 644
f 823 643 822
f 824 643 823
f 824 642 643
f 825 640 641
f 825 641 642
f 825 642 824
f 826 640 825
f 827 640 826
f 827 638 639
f 827 639 640
f 828 638 827
f 829 636 637
f 829 637 638
f 829 638 828
f 830 636 829
f 786 635 636
f 786 636 830
f 741 634 590
f 742 634 741
f 742 633 634
f 743 633 742
f 743 632 633
f 744 632 743
f 744 631 632
f 745 631 744
f 745 630 631
f 746 630 745
f 746 629 630
f 747 629 746
f 747 628 629
f 748 628 747
f 748 627 628
f 749 627 748
f 749 626 627
f 750 626 749
f 750 625 626
f 751 625 750
f 751 624 625
f 752 624 751
f 752 623 624
f 753 623 752
f 753 622 623
f 754 622 753
f 754 621 622
f 755 621 754
f 755 620 621
f 756 620 755
f 756 619 620
f 757 619 756
f 758 619 757
f 758 617 618
f 758 618 619
f 759 617 758
f 759 616 617
f 760 615 616
f 760 616 759
f 761 614 615
f 761 615 760
f 762 613 614
f 762 614 761
f 763 613 762
f 764 611 612
f 764 612 613
f 764 613 763
f 765 611 764
f 766 609 610
f 766 610 611
f 766 611 765
f 767 609 766
f 768 609 767
f 768 608 609
f 769 608 768
f 769 606 607
f 769 607 608
f 770 606 769
f 771 606 770
f 771 604 605
f 771 605 606
f 772 604 771
f 772 603 604
f 773 603 772
f 773 602 603
f 774 602 773
f 775 602 774
f 775 600 601
f 775 601 602
f 776 600 775
f 776 599 600
f 777 599 776
f 777 598 599
f 778 598 777
f 779 598 778
f 779 597 598
f 780 595 596
f 780 596 597
f 780 597 779
f 781 595 780
f 782 595 781
f 782 593 594
f 782 594 595
f 783 593 782
f 784 591 592
f 784 592 593
f 784 593 783
f 785 591 784
f 741 590 591
f 741 591 785
f 696 589 545
f 697 589 696
f 697 588 589
f 698 588 697
f 698 587 588
f 699 587 698
f 699 586 587
f 700 586 699
f 700 585 586
f 701 585 700
f 701 584 585
f 702 584 701
f 702 583 584
f 703 583 702
f 703 582 583
f 704 582 703
f 704 581 582
f 705 581 704
f 705 580 581
f 706 580 705
f 706 579 580
f 707 579 706
f 707 578 579
f 708 578 707
f 708 577 578
f 709 577 708
f 709 576 577
f 710 576 709
f 710 575 576
f 711 575 710
f 711 574 575
f 712 574 711
f 713 574 712
f 713 572 573
f 713 573 574
f 714 572 713
f 714 571 572
f 715 570 571
f 715 571 714
f 716 569 570
f 716 570 715
f 717 568 569
f 717 569 716
f 718 568 717
f 719 566 567
f 719 567 568
f 719 568 718
f 720 566 719
f 721 564 565
f 721 565 566
f 721 566 720
f 722 564 721
f 723 564 722
f 723 563 564
f 724 563 723
f 724 561 562
f 724 562 563
f 725 561 724
f 726 561 725
f 726 559 560
f 726 560 561
f 727 559 726
f 727 558 559
f 728 558 727
f 728 557 558
f 729 557 728
f 730 557 729
f 730 555 556
f 730 556 557
f 731 555 730
f 731 554 555
f 732 554 731
f 732 553 554
f 733 553 732
f 734 553 733
f 734 552 553
f 735 550 551
f 735 551 552
f 735 552 734
f 736 550 735
f 737 550 736
f 737 548 549
f 737 549 550
f 738 548 737
f 739 546 547
f 739 547 548
f 739 548 738
f 740 546 739
f 696 545 546
f 696 546 740

