# https://github.com/mikedh/trimesh
v 17.12174196 -8.25986453 5.00002796
v 24.00602925 4.05229680 5.00000000
v 24.06247201 4.06360245 4.99442554
v 24.11681719 4.07448794 4.97790932
v 20.85865323 6.24522713 4.97790932
v 20.86953872 6.19088195 4.99442554
v 20.88084437 6.13443919 5.00000000
v 23.91568237 4.38768141 5.00000000
v 23.78233194 4.70840413 5.00000000
v 23.39644385 5.28425802 5.00000000
v 23.15050884 5.52953618 5.00000000
v 22.57362499 5.91388282 5.00000000
v 22.25254679 6.04637503 5.00000000
v 21.57249251 6.18070114 5.00000000
v 21.22515236 6.18023667 5.00000000
v 22.19859729 6.22556859 4.97630774
v 21.51971247 6.34978904 4.96402623
v 14.96545126 5.11704514 4.95106513
v 14.97551206 5.06681719 4.97790932
v 14.98639755 5.01247201 4.99442554
v 14.99770320 4.95602925 5.00000000
v 35.15771532 -51.62182913 5.00000000
v 35.21415808 -51.61052348 4.99442554
v 35.26850325 -51.59963799 4.97790932
v 35.31873120 -51.58957719 4.95106513
v 35.36297531 -51.58071497 4.91489058
v 35.39959132 -51.57338068 4.87073004
v 35.44483006 -51.56431923 4.76525134
v 12.75454492 1.79859243 4.95106513
v 12.80477287 1.80865323 4.97790932
v 12.85911805 1.81953872 4.99442554
v 12.91556081 1.83084437 5.00000000
v 13.67191886 4.59854688 4.93591741
v 13.76574198 4.34644385 5.00000000
v 13.52046382 4.10050884 5.00000000
v 13.13611718 3.52362499 5.00000000
v 13.00362497 3.20254679 5.00000000
v 12.86929886 2.52249251 5.00000000
v 12.86976333 2.17515236 5.00000000
v 14.61110471 4.92252195 4.99453313
v 14.44678286 5.01495979 4.92247565
v 13.06904314 3.94663924 4.92105845
v 12.61532260 2.84863785 4.91410322
v 33.07557293 -54.74701401 5.00000000
v 33.41095754 -54.65666713 5.00000000
v 33.73168026 -54.52331670 5.00000000
v 34.30753415 -54.13742861 5.00000000
v 34.55281230 -53.89149360 5.00000000
v 34.93715895 -53.31460975 5.00000000
v 35.06965116 -52.99353155 5.00000000
v 35.15910077 -52.65790651 5.00000000
v 35.20351280 -51.96613712 5.00000000
v 33.90939004 -54.71368056 4.94075867
v 35.09760377 -53.79368963 4.84084953
v 35.45738368 -52.69228169 4.90921513
v 23.82537087 -53.89173001 4.87073004
v 23.86198688 -53.88439572 4.91489058
v 23.95645894 -53.86547270 4.97790932
v 24.01080411 -53.85458721 4.99442554
v 24.06724687 -53.84328156 5.00000000
v 27.19243176 -55.92542395 5.00000000
v 25.28767194 -55.96667129 4.88284753
v 24.17328128 -54.96076602 4.88843107
v 24.15759376 -54.17866617 5.00000000
v 24.46501650 -54.79996206 5.00000000
v 24.67683228 -55.07524278 5.00000000
v 24.92276728 -55.32052094 5.00000000
v 25.49965114 -55.70486758 5.00000000
v 25.82072934 -55.83735979 5.00000000
v 26.50078361 -55.97168590 5.00000000
v 26.84812377 -55.97122143 5.00000000
v 26.31689559 -56.21070613 4.94349223
v 13.06961628 1.86170212 -5.00000000
v 13.01317352 1.85039647 -4.99442554
v 15.00636981 4.91276171 -4.97790932
v 15.01725530 4.85841654 -4.99442554
v 13.02652858 2.18563784 -5.00000000
v 13.02609160 2.51242632 -5.00000000
v 13.15246980 3.15224265 -5.00000000
v 13.27712261 3.45432306 -5.00000000
v 13.35765321 4.10677636 -4.90948615
v 13.63872795 3.99707343 -5.00000000
v 15.78347699 2.60237986 -5.05322562
v 14.18641050 4.67454309 -4.97061967
v 20.88951098 6.09117165 -4.97790932
v 20.91170212 5.98038372 -5.00000000
v 24.22130234 -53.81242381 -5.00000000
v 24.16485958 -53.82372946 -4.99442554
v 24.11051441 -53.83461495 -4.97790932
v 23.90841654 4.03274470 -4.99442554
v 23.85197378 4.02143905 -5.00000000
v 21.23563784 6.02347142 -5.00000000
v 21.56242632 6.02390840 -5.00000000
v 22.20224265 5.89753020 -5.00000000
v 22.50432306 5.77287739 -5.00000000
v 23.04707343 5.41127205 -5.00000000
v 23.27845677 5.18050669 -5.00000000
v 23.64151235 4.63872534 -5.00000000
v 23.76697261 4.33697938 -5.00000000
v 23.66059501 4.97782210 -4.97226769
v 23.05284749 5.82613549 -4.88422542
v 21.76710467 6.23979902 -4.94453769
v 27.16157401 -55.77136848 -5.00000000
v 26.14905206 -56.06673237 -4.92384048
v 26.83763829 -55.81445618 -5.00000000
v 26.51084981 -55.81489316 -5.00000000
v 25.87103348 -55.68851496 -5.00000000
v 25.56895307 -55.56386215 -5.00000000
v 25.02620270 -55.20225681 -5.00000000
v 24.79481936 -54.97149145 -5.00000000
v 24.43176378 -54.42971010 -5.00000000
v 24.30630352 -54.12796414 -5.00000000
v 24.29654403 -54.78860264 -4.90774592
v 25.02696443 -55.54140717 -4.92469922
v 35.16467573 -51.62043494 -4.95106513
v 35.11444778 -51.63049574 -4.97790932
v 35.06010261 -51.64138123 -4.99442554
v 35.00365985 -51.65268688 -5.00000000
v 33.04471518 -54.59295854 -5.00000000
v 30.68368185 -57.24896536 0.75279369
v 35.04674755 -51.97662260 -5.00000000
v 35.04718453 -52.30341108 -5.00000000
v 34.92080633 -52.94322741 -5.00000000
v 34.79615351 -53.24530782 -5.00000000
v 34.43454817 -53.78805818 -5.00000000
v 34.20378282 -54.01944153 -5.00000000
v 34.10794129 -54.47305512 -4.90477222
v 33.66200147 -54.38249711 -5.00000000
v 33.36025551 -54.50795737 -5.00000000
v 34.86870342 -53.64143212 -4.93401854
v 35.30913777 -52.57518562 -4.90741845
v 23.72933993 -53.91096528 3.00000000
v 35.56669726 -52.19024208 3.03315575
v 23.05787991 6.00574765 4.87436201
v 23.98930695 4.87325641 4.93377766
v 35.29736492 -9.41638057 -3.19789257
v 4.77626724 8.00312992 0.58058966
v 3.31599116 1.95390608 -1.06935747
v 34.13825240 7.34154162 0.24198525
v 1.91486712 -2.96226629 -3.27252591
v 8.24346003 -11.77034981 0.62104897
v 18.64622301 16.08259741 -0.15781415
v 33.74139443 -8.41157977 2.58479336
f 140 63 56
f 132 63 140
f 140 113 132
f 132 113 63
f 138 137 140
f 140 141 138
f 138 141 137
f 142 137 41
f 104 127 120
f 142 139 101
f 143 139 135
f 136 139 28
f 63 64 58
f 120 53 72
f 120 127 54
f 54 53 120
f 127 130 54
f 33 41 137
f 140 137 81
f 131 136 133
f 131 54 130
f 63 113 114
f 28 139 55
f 139 143 55
f 133 136 55
f 55 136 28
f 55 131 133
f 54 131 55
f 60 64 1
f 1 32 60
f 57 56 63
f 63 58 57
f 57 58 141
f 57 141 140
f 140 56 57
f 62 104 120
f 120 72 62
f 62 114 104
f 63 114 62
f 1 22 2
f 1 51 52
f 52 22 1
f 51 55 52
f 42 33 137
f 122 131 123
f 123 131 130
f 123 83 122
f 127 104 119
f 116 131 122
f 142 101 102
f 102 85 142
f 139 136 100
f 100 101 139
f 1 36 37
f 37 38 1
f 36 42 37
f 39 32 1
f 1 38 39
f 38 30 39
f 141 58 29
f 58 30 29
f 137 141 29
f 59 30 58
f 59 58 64
f 64 60 59
f 63 62 67
f 1 45 46
f 46 45 53
f 61 72 53
f 1 21 34
f 1 15 7
f 7 21 1
f 41 33 40
f 33 34 40
f 40 34 21
f 11 12 1
f 14 15 1
f 135 9 8
f 8 9 1
f 1 2 8
f 4 143 135
f 89 113 140
f 140 88 89
f 113 89 111
f 140 78 77
f 83 73 77
f 77 78 83
f 130 125 124
f 124 123 130
f 124 125 83
f 83 123 124
f 127 119 129
f 129 119 83
f 136 131 115
f 115 116 136
f 131 116 115
f 83 91 118
f 90 100 136
f 85 86 76
f 76 86 83
f 101 100 96
f 43 42 137
f 43 37 42
f 38 37 43
f 43 30 38
f 137 29 43
f 43 29 30
f 30 59 31
f 32 39 31
f 31 39 30
f 68 62 72
f 68 67 62
f 1 67 68
f 1 64 65
f 65 64 63
f 53 54 48
f 53 45 44
f 44 61 53
f 44 45 1
f 1 61 44
f 35 36 1
f 1 34 35
f 35 42 36
f 33 42 35
f 35 34 33
f 19 5 142
f 6 7 15
f 1 9 10
f 10 11 1
f 10 9 135
f 1 12 13
f 13 14 1
f 12 16 13
f 13 16 14
f 12 11 134
f 134 16 12
f 135 139 134
f 134 139 142
f 142 16 134
f 134 10 135
f 11 10 134
f 14 16 17
f 15 14 17
f 142 5 17
f 17 16 142
f 17 6 15
f 5 6 17
f 3 8 2
f 135 8 3
f 3 4 135
f 143 25 26
f 26 25 55
f 24 52 55
f 55 25 24
f 143 4 24
f 24 25 143
f 112 89 88
f 112 111 89
f 83 111 112
f 104 114 108
f 140 77 74
f 74 77 73
f 74 88 140
f 83 125 126
f 126 130 127
f 126 125 130
f 122 83 121
f 83 118 121
f 121 116 122
f 136 116 117
f 117 90 136
f 116 121 117
f 117 121 118
f 82 76 83
f 140 81 82
f 85 76 75
f 142 85 75
f 95 102 101
f 101 96 95
f 95 96 83
f 66 67 1
f 1 65 66
f 63 67 66
f 66 65 63
f 47 46 53
f 53 48 47
f 1 46 47
f 47 48 1
f 54 55 49
f 49 48 54
f 1 48 49
f 142 41 18
f 18 19 142
f 41 40 18
f 40 19 18
f 20 19 40
f 20 40 21
f 27 55 143
f 143 26 27
f 27 26 55
f 22 52 23
f 52 24 23
f 4 3 23
f 23 24 4
f 87 112 88
f 87 73 83
f 83 112 87
f 109 108 114
f 83 108 109
f 128 129 83
f 83 126 128
f 127 129 128
f 128 126 127
f 140 82 80
f 80 82 83
f 76 82 84
f 84 75 76
f 84 82 81
f 84 137 142
f 84 81 137
f 142 75 84
f 99 91 83
f 83 98 99
f 99 90 91
f 100 90 99
f 99 98 100
f 83 96 97
f 97 98 83
f 97 96 100
f 100 98 97
f 85 102 92
f 102 93 92
f 92 86 85
f 83 86 92
f 92 93 83
f 94 93 102
f 102 95 94
f 83 93 94
f 94 95 83
f 72 61 71
f 71 70 72
f 71 61 1
f 1 70 71
f 69 68 72
f 72 70 69
f 1 68 69
f 69 70 1
f 50 55 51
f 50 49 55
f 50 51 1
f 1 49 50
f 110 114 113
f 110 109 114
f 113 111 110
f 110 111 83
f 83 109 110
f 103 119 104
f 104 105 103
f 83 119 103
f 103 105 83
f 106 105 104
f 83 105 106
f 79 78 140
f 140 80 79
f 83 78 79
f 79 80 83
f 104 108 107
f 107 106 104
f 107 108 83
f 83 106 107
f 31 59 60
f 31 60 32
f 91 90 117
f 117 118 91
f 20 6 5
f 5 19 20
f 21 7 20
f 7 6 20
f 23 3 2
f 23 2 22
f 88 74 87
f 87 74 73

