# https://github.com/mikedh/trimesh
v -11.73838330 -24.71363844 11.75950000
v -11.77731103 -25.27033084 11.75950000
v -11.89333652 -25.81618786 11.75950000
v -12.08420147 -26.34058501 11.75950000
v -12.34619092 -26.83331550 11.75950000
v -12.67420553 -27.28478888 11.75950000
v -13.06186087 -27.68621774 11.75950000
v -13.50161169 -28.02978873 11.75950000
v -13.98489871 -28.30881462 11.75950000
v -14.50231532 -28.51786450 11.75950000
v -15.04379059 -28.65286945 11.75950000
v -15.59878531 -28.71120175 11.75950000
v -16.15649715 -28.69172602 11.75950000
v -16.70607088 -28.59482134 11.75950000
v -17.23680967 -28.42237386 11.75950000
v -17.73838330 -28.17774005 11.75950000
v -18.20102920 -27.86568145 11.75950000
v -18.61574250 -27.49227192 11.75950000
v -18.97445128 -27.06477945 11.75950000
v -19.27017367 -26.59152469 11.75950000
v -19.49715378 -26.08171901 11.75950000
v -19.65097370 -25.54528520 11.75950000
v -19.72863950 -24.99266433 11.75950000
v -19.72863950 -24.43461254 11.75950000
v -19.65097370 -23.88199168 11.75950000
v -19.49715378 -23.34555787 11.75950000
v -19.27017367 -22.83575219 11.75950000
v -18.97445128 -22.36249743 11.75950000
v -18.61574250 -21.93500496 11.75950000
v -18.20102920 -21.56159542 11.75950000
v -17.73838330 -21.24953682 11.75950000
v -17.23680967 -21.00490302 11.75950000
v -16.70607088 -20.83245553 11.75950000
v -16.15649715 -20.73555086 11.75950000
v -15.59878531 -20.71607513 11.75950000
v -15.04379059 -20.77440743 11.75950000
v -14.50231532 -20.90941237 11.75950000
v -13.98489871 -21.11846225 11.75950000
v -13.50161169 -21.39748815 11.75950000
v -13.06186087 -21.74105914 11.75950000
v -12.67420553 -22.14248800 11.75950000
v -12.34619092 -22.59396138 11.75950000
v -12.08420147 -23.08669187 11.75950000
v -11.89333652 -23.61108902 11.75950000
v -11.77731103 -24.15694603 11.75950000
v -13.63838330 -24.71363844 11.75950000
v -13.65882036 -25.00590195 11.75950000
v -13.71973374 -25.29247689 11.75950000
v -13.81993784 -25.56778539 11.75950000
v -13.95748230 -25.82646889 11.75950000
v -14.12968997 -26.06349242 11.75950000
v -14.33320903 -26.27424257 11.75950000
v -14.56407820 -26.45461734 11.75950000
v -14.81780389 -26.60110594 11.75950000
v -15.08944761 -26.71085712 11.75950000
v -15.37372213 -26.78173472 11.75950000
v -15.66509436 -26.81235918 11.75950000
v -15.95789307 -26.80213442 11.75950000
v -16.24641928 -26.75125946 11.75950000
v -16.52505715 -26.66072453 11.75950000
v -16.78838330 -26.53229179 11.75950000
v -17.03127240 -26.36846102 11.75950000
v -17.24899688 -26.17242102 11.75950000
v -17.43731899 -25.94798747 11.75950000
v -17.59257325 -25.69952872 11.75950000
v -17.71173780 -25.43188074 11.75950000
v -17.79249326 -25.15025299 11.75950000
v -17.83326781 -24.86012703 11.75950000
v -17.83326781 -24.56714984 11.75950000
v -17.79249326 -24.27702389 11.75950000
v -17.71173780 -23.99539614 11.75950000
v -17.59257325 -23.72774816 11.75950000
v -17.43731899 -23.47928941 11.75950000
v -17.24899688 -23.25485586 11.75950000
v -17.03127240 -23.05881586 11.75950000
v -16.78838330 -22.89498509 11.75950000
v -16.52505715 -22.76655234 11.75950000
v -16.24641928 -22.67601741 11.75950000
v -15.95789307 -22.62514246 11.75950000
v -15.66509436 -22.61491770 11.75950000
v -15.37372213 -22.64554216 11.75950000
v -15.08944761 -22.71641975 11.75950000
v -14.81780389 -22.82617094 11.75950000
v -14.56407820 -22.97265954 11.75950000
v -14.33320903 -23.15303431 11.75950000
v -14.12968997 -23.36378446 11.75950000
v -13.95748230 -23.60080798 11.75950000
v -13.81993784 -23.85949149 11.75950000
v -13.71973374 -24.13479999 11.75950000
v -13.65882036 -24.42137493 11.75950000
v -11.73838330 -24.71363844 10.99750000
v -11.77731103 -25.27033084 10.99750000
v -11.89333652 -25.81618786 10.99750000
v -12.08420147 -26.34058501 10.99750000
v -12.34619092 -26.83331550 10.99750000
v -12.67420553 -27.28478888 10.99750000
v -13.06186087 -27.68621774 10.99750000
v -13.50161169 -28.02978873 10.99750000
v -13.98489871 -28.30881462 10.99750000
v -14.50231532 -28.51786450 10.99750000
v -15.04379059 -28.65286945 10.99750000
v -15.59878531 -28.71120175 10.99750000
v -16.15649715 -28.69172602 10.99750000
v -16.70607088 -28.59482134 10.99750000
v -17.23680967 -28.42237386 10.99750000
v -17.73838330 -28.17774005 10.99750000
v -18.20102920 -27.86568145 10.99750000
v -18.61574250 -27.49227192 10.99750000
v -18.97445128 -27.06477945 10.99750000
v -19.27017367 -26.59152469 10.99750000
v -19.49715378 -26.08171901 10.99750000
v -19.65097370 -25.54528520 10.99750000
v -19.72863950 -24.99266433 10.99750000
v -19.72863950 -24.43461254 10.99750000
v -19.65097370 -23.88199168 10.99750000
v -19.49715378 -23.34555787 10.99750000
v -19.27017367 -22.83575219 10.99750000
v -18.97445128 -22.36249743 10.99750000
v -18.61574250 -21.93500496 10.99750000
v -18.20102920 -21.56159542 10.99750000
v -17.73838330 -21.24953682 10.99750000
v -17.23680967 -21.00490302 10.99750000
v -16.70607088 -20.83245553 10.99750000
v -16.15649715 -20.73555086 10.99750000
v -15.59878531 -20.71607513 10.99750000
v -15.04379059 -20.77440743 10.99750000
v -14.50231532 -20.90941237 10.99750000
v -13.98489871 -21.11846225 10.99750000
v -13.50161169 -21.39748815 10.99750000
v -13.06186087 -21.74105914 10.99750000
v -12.67420553 -22.14248800 10.99750000
v -12.34619092 -22.59396138 10.99750000
v -12.08420147 -23.08669187 10.99750000
v -11.89333652 -23.61108902 10.99750000
v -11.77731103 -24.15694603 10.99750000
v -13.63838330 -24.71363844 10.99750000
v -13.65882036 -25.00590195 10.99750000
v -13.71973374 -25.29247689 10.99750000
v -13.81993784 -25.56778539 10.99750000
v -13.95748230 -25.82646889 10.99750000
v -14.12968997 -26.06349242 10.99750000
v -14.33320903 -26.27424257 10.99750000
v -14.56407820 -26.45461734 10.99750000
v -14.81780389 -26.60110594 10.99750000
v -15.08944761 -26.71085712 10.99750000
v -15.37372213 -26.78173472 10.99750000
v -15.66509436 -26.81235918 10.99750000
v -15.95789307 -26.80213442 10.99750000
v -16.24641928 -26.75125946 10.99750000
v -16.52505715 -26.66072453 10.99750000
v -16.78838330 -26.53229179 10.99750000
v -17.03127240 -26.36846102 10.99750000
v -17.24899688 -26.17242102 10.99750000
v -17.43731899 -25.94798747 10.99750000
v -17.59257325 -25.69952872 10.99750000
v -17.71173780 -25.43188074 10.99750000
v -17.79249326 -25.15025299 10.99750000
v -17.83326781 -24.86012703 10.99750000
v -17.83326781 -24.56714984 10.99750000
v -17.79249326 -24.27702389 10.99750000
v -17.71173780 -23.99539614 10.99750000
v -17.59257325 -23.72774816 10.99750000
v -17.43731899 -23.47928941 10.99750000
v -17.24899688 -23.25485586 10.99750000
v -17.03127240 -23.05881586 10.99750000
v -16.78838330 -22.89498509 10.99750000
v -16.52505715 -22.76655234 10.99750000
v -16.24641928 -22.67601741 10.99750000
v -15.95789307 -22.62514246 10.99750000
v -15.66509436 -22.61491770 10.99750000
v -15.37372213 -22.64554216 10.99750000
v -15.08944761 -22.71641975 10.99750000
v -14.81780389 -22.82617094 10.99750000
v -14.56407820 -22.97265954 10.99750000
v -14.33320903 -23.15303431 10.99750000
v -14.12968997 -23.36378446 10.99750000
v -13.95748230 -23.60080798 10.99750000
v -13.81993784 -23.85949149 10.99750000
v -13.71973374 -24.13479999 10.99750000
v -13.65882036 -24.42137493 10.99750000
f 75 29 74
f 75 30 29
f 73 74 29
f 73 29 28
f 76 30 75
f 76 31 30
f 72 28 27
f 72 73 28
f 77 31 76
f 77 32 31
f 71 72 27
f 71 27 26
f 78 33 32
f 78 32 77
f 70 26 25
f 70 71 26
f 79 33 78
f 79 34 33
f 69 70 25
f 69 25 24
f 80 34 79
f 80 35 34
f 68 69 24
f 68 24 23
f 81 35 80
f 81 36 35
f 67 23 22
f 67 68 23
f 82 37 36
f 82 36 81
f 66 22 21
f 66 67 22
f 83 37 82
f 83 38 37
f 65 21 20
f 65 66 21
f 84 39 38
f 84 38 83
f 64 20 19
f 64 65 20
f 85 40 39
f 85 39 84
f 63 19 18
f 63 64 19
f 41 40 85
f 41 85 86
f 87 41 86
f 17 62 63
f 17 63 18
f 42 41 87
f 16 61 62
f 16 62 17
f 43 42 87
f 43 87 88
f 15 61 16
f 15 60 61
f 44 88 89
f 44 43 88
f 14 60 15
f 14 58 59
f 14 59 60
f 45 44 89
f 45 89 90
f 13 58 14
f 13 57 58
f 1 45 90
f 1 90 46
f 12 57 13
f 2 1 46
f 2 46 47
f 11 57 12
f 11 56 57
f 3 2 47
f 3 47 48
f 3 48 49
f 10 55 56
f 10 56 11
f 4 3 49
f 9 53 54
f 9 54 55
f 9 55 10
f 5 49 50
f 5 4 49
f 8 52 53
f 8 53 9
f 6 5 50
f 6 50 51
f 7 52 8
f 7 51 52
f 7 6 51
f 165 164 119
f 165 119 120
f 163 119 164
f 163 118 119
f 166 165 120
f 166 120 121
f 162 117 118
f 162 118 163
f 167 166 121
f 167 121 122
f 161 117 162
f 161 116 117
f 168 122 123
f 168 167 122
f 160 115 116
f 160 116 161
f 169 168 123
f 169 123 124
f 159 115 160
f 159 114 115
f 170 169 124
f 170 124 125
f 158 114 159
f 158 113 114
f 171 170 125
f 171 125 126
f 157 112 113
f 157 113 158
f 172 126 127
f 172 171 126
f 156 111 112
f 156 112 157
f 173 172 127
f 173 127 128
f 155 110 111
f 155 111 156
f 174 128 129
f 174 173 128
f 154 109 110
f 154 110 155
f 175 129 130
f 175 174 129
f 153 108 109
f 153 109 154
f 131 175 130
f 131 176 175
f 177 176 131
f 107 153 152
f 107 108 153
f 132 177 131
f 106 152 151
f 106 107 152
f 133 177 132
f 133 178 177
f 105 106 151
f 105 151 150
f 134 179 178
f 134 178 133
f 104 105 150
f 104 149 148
f 104 150 149
f 135 179 134
f 135 180 179
f 103 104 148
f 103 148 147
f 91 180 135
f 91 136 180
f 102 103 147
f 92 136 91
f 92 137 136
f 101 102 147
f 101 147 146
f 93 137 92
f 93 138 137
f 93 139 138
f 100 146 145
f 100 101 146
f 94 139 93
f 99 144 143
f 99 145 144
f 99 100 145
f 95 140 139
f 95 139 94
f 98 143 142
f 98 99 143
f 96 140 95
f 96 141 140
f 97 98 142
f 97 142 141
f 97 141 96
f 45 1 91
f 45 91 135
f 44 45 135
f 44 135 134
f 43 44 134
f 43 134 133
f 42 43 133
f 42 133 132
f 41 42 132
f 41 132 131
f 40 41 131
f 40 131 130
f 39 40 130
f 39 130 129
f 38 39 129
f 38 129 128
f 37 38 128
f 37 128 127
f 36 37 127
f 36 127 126
f 35 36 126
f 35 125 124
f 35 126 125
f 34 35 124
f 34 124 123
f 33 34 123
f 32 33 123
f 32 123 122
f 31 32 122
f 31 122 121
f 30 31 121
f 30 121 120
f 29 30 120
f 29 120 119
f 28 29 119
f 28 119 118
f 27 118 117
f 27 28 118
f 26 117 116
f 26 27 117
f 25 116 115
f 25 26 116
f 24 115 114
f 24 25 115
f 23 114 113
f 23 24 114
f 22 113 112
f 22 23 113
f 21 112 111
f 21 22 112
f 20 21 111
f 20 111 110
f 19 20 110
f 19 109 108
f 19 110 109
f 18 19 108
f 17 18 108
f 17 108 107
f 16 17 107
f 16 107 106
f 15 16 106
f 15 106 105
f 14 15 105
f 14 105 104
f 13 14 104
f 13 104 103
f 12 13 103
f 12 103 102
f 11 12 102
f 11 101 100
f 11 102 101
f 10 11 100
f 10 100 99
f 9 10 99
f 8 9 99
f 8 99 98
f 7 97 96
f 7 98 97
f 7 8 98
f 6 96 95
f 6 7 96
f 5 6 95
f 4 94 93
f 4 95 94
f 4 5 95
f 3 4 93
f 2 93 92
f 2 3 93
f 1 92 91
f 1 2 92
f 90 136 46
f 90 180 136
f 89 180 90
f 89 179 180
f 88 179 89
f 88 178 179
f 87 178 88
f 87 177 178
f 86 177 87
f 86 176 177
f 85 176 86
f 85 175 176
f 84 175 85
f 84 174 175
f 83 174 84
f 83 173 174
f 82 173 83
f 82 172 173
f 81 172 82
f 81 171 172
f 80 171 81
f 80 169 170
f 80 170 171
f 79 169 80
f 79 168 169
f 78 168 79
f 77 168 78
f 77 167 168
f 76 167 77
f 76 166 167
f 75 166 76
f 75 165 166
f 74 165 75
f 74 164 165
f 73 164 74
f 73 163 164
f 72 162 163
f 72 163 73
f 71 161 162
f 71 162 72
f 70 160 161
f 70 161 71
f 69 159 160
f 69 160 70
f 68 158 159
f 68 159 69
f 67 157 158
f 67 158 68
f 66 156 157
f 66 157 67
f 65 156 66
f 65 155 156
f 64 155 65
f 64 153 154
f 64 154 155
f 63 153 64
f 62 153 63
f 62 152 153
f 61 152 62
f 61 151 152
f 60 151 61
f 60 150 151
f 59 150 60
f 59 149 150
f 58 149 59
f 58 148 149
f 57 148 58
f 57 147 148
f 56 147 57
f 56 145 146
f 56 146 147
f 55 145 56
f 55 144 145
f 54 144 55
f 53 144 54
f 53 143 144
f 52 141 142
f 52 142 143
f 52 143 53
f 51 140 141
f 51 141 52
f 50 140 51
f 49 138 139
f 49 139 140
f 49 140 50
f 48 138 49
f 47 137 138
f 47 138 48
f 46 136 137
f 46 137 47

