# https://github.com/mikedh/trimesh
v 4.21578464 2.13568642 0.54017965
v 8.48568642 2.13421536 0.54017965
v 4.21431358 -2.13421536 0.54017965
v 4.20366000 -2.16604562 -0.13005899
v 8.48421536 -2.13568642 0.54017965
v 8.50444181 -2.15308326 -0.11071712
v 16.91961614 2.13418020 0.66040380
v 16.89640877 2.15616483 -0.00001351
v 16.91581980 -2.13038386 0.66040380
v 16.89383514 -2.15359123 -0.00001388
v 21.18038386 -2.13418020 0.66040380
v 21.20359124 -2.15616486 -0.00001413
v 21.18418020 2.13038386 0.66040380
v 21.20616486 2.15359124 -0.00001409
v 8.87921925 -4.38073624 -6.10604462
v 8.91214039 -4.42061199 -6.22533090
v 8.95924641 -4.31149439 -6.15596580
v 8.97706619 -4.32178264 -6.20300761
v 9.00467107 -4.33772033 -6.24326039
v 9.04024166 -4.35825702 -6.27407114
v 9.08143357 -4.38203918 -6.29340919
v 11.38162666 -0.09996573 -6.10523539
v 11.38848687 -0.10392648 -6.15596580
v 11.40630665 -0.11421473 -6.20300761
v 11.43391153 -0.13015242 -6.24326039
v 11.46948212 -0.15068911 -6.27407114
v 9.07710547 -4.45886243 -6.29567508
v 3.92075954 -4.50894612 -6.27407114
v 3.92075954 -4.46787274 -6.24326039
v 3.92075954 -4.43599738 -6.20300761
v 3.92075954 -4.40749937 -6.10523539
v 8.77924046 -4.40749937 -6.10523539
v 8.83196290 -4.61307140 -6.29592121
v 8.77924046 -4.55651045 -6.29340919
v 8.86004576 -4.50799079 -6.26839312
v 8.77924046 -4.46787274 -6.24326039
v 8.77924046 -4.43599738 -6.20300761
v 8.77924046 -4.41542087 -6.15596580
v 11.40843850 -0.00000000 -6.10604462
v 11.45943292 0.00857400 -6.22533228
v 11.38162666 0.09996573 -6.10523539
v 11.38848687 0.10392648 -6.15596580
v 11.40630665 0.11421473 -6.20300761
v 11.43391153 0.13015242 -6.24326039
v 11.46948212 0.15068911 -6.27407114
v 11.51067403 0.17447127 -6.29340919
v 3.82078075 -4.38073624 -6.10604462
v 3.73779323 -4.40380107 -6.24508256
v 3.83477905 -4.54813804 -6.29185612
v 3.85941508 -4.43015042 -6.19115319
v 8.95238619 4.30753364 -6.10523539
v 8.95924641 4.31149439 -6.15596580
v 8.97706619 4.32178264 -6.20300761
v 9.00467107 4.33772033 -6.24326039
v 9.04024166 4.35825702 -6.27407114
v 9.08143357 4.38203918 -6.29340919
v 9.12553192 4.40749937 -6.30000000
v 1.14522762 -0.19993146 -6.30000000
v 1.18932597 -0.17447127 -6.29340919
v 1.23051788 -0.15068911 -6.27407114
v 1.26608847 -0.13015242 -6.24326039
v 1.29369335 -0.11421473 -6.20300761
v 1.31151313 -0.10392648 -6.15596580
v 1.31837334 -0.09996573 -6.10523539
v 3.74761381 -4.30753364 -6.10523539
v 3.63738122 -4.48978942 -6.29987347
v 3.61856643 -4.38203918 -6.29340919
v 3.65975834 -4.35825702 -6.27407114
v 3.69532893 -4.33772033 -6.24326039
v 3.72293381 -4.32178264 -6.20300761
v 3.74075359 -4.31149439 -6.15596580
v 8.87921925 4.38073624 -6.10604462
v 8.85960557 4.49114242 -6.26162052
v 8.77924046 4.40749937 -6.10523539
v 8.77924046 4.41542087 -6.15596580
v 8.77924046 4.43599738 -6.20300761
v 8.77924046 4.46787274 -6.24326039
v 8.77924046 4.55651045 -6.29340919
v 8.92323299 4.43233890 -6.24612361
v 1.29156150 -0.00000000 -6.10604462
v 1.25999622 0.01249970 -6.18329751
v 3.92075954 4.40749937 -6.10523539
v 3.92075954 4.41542087 -6.15596580
v 3.92075954 4.46787274 -6.24326039
v 3.92075954 4.50894612 -6.27407114
v 8.84797745 4.58999453 -6.29536515
v 3.66071373 4.48707628 -6.29848393
v 3.61856643 4.38203918 -6.29340919
v 3.65975834 4.35825702 -6.27407114
v 3.69532893 4.33772033 -6.24326039
v 3.72293381 4.32178264 -6.20300761
v 3.74075359 4.31149439 -6.15596580
v 3.74761381 4.30753364 -6.10523539
v 1.31837334 0.09996573 -6.10523539
v 1.14522762 0.19993146 -6.30000000
v 1.18932597 0.17447127 -6.29340919
v 1.23051788 0.15068911 -6.27407114
v 1.26608847 0.13015242 -6.24326039
v 1.29369335 0.11421473 -6.20300761
v 3.82078075 4.38073624 -6.10604462
v 3.79544538 4.42703722 -6.22440324
v 3.98709640 -4.29260055 -1.71742636
v 8.72667750 -4.26289897 -1.60854491
v 4.04541256 -4.19896795 -1.55121688
v 3.93248845 -4.20548575 -1.55153824
v 6.83662532 -4.20427470 -1.58029148
v 10.01686245 -2.24654378 -1.61332221
v 11.26890923 -0.05174470 -1.71682294
v 11.26890923 0.05174470 -1.71682294
v 10.65515192 1.04354752 -1.60024321
v 1.45104708 -0.09996573 -1.71742636
v 3.81395068 -4.19263482 -1.71742636
v 3.88641767 -4.25598585 -1.62569504
v 2.87052298 -2.23832394 -1.55982266
v 3.23634608 -3.16070627 -1.66753999
v 2.05592112 -1.11615026 -1.66753999
v 1.99363552 -0.87173284 -1.57481036
v 2.92824224 -2.50056977 -1.60077384
v 11.23124947 0.00467403 -1.56830348
v 8.79972275 4.23736270 -1.58065102
v 8.82836343 4.15322078 -1.56094555
v 8.85426684 4.23402800 -1.71682294
v 8.76464239 4.28577270 -1.71682294
v 8.71290360 4.29260055 -1.71742636
v 3.81395068 4.19263482 -1.71742636
v 3.99233000 4.08360423 -1.52293584
v 3.86721007 4.15757073 -1.57632295
v 3.90411745 4.13530425 -1.54575291
v 3.29589455 3.12489874 -1.58270326
v 3.31642219 3.11279044 -1.56849840
v 3.33804318 3.10010549 -1.55789997
v 3.24591302 3.06303494 -1.58968211
v 2.03571024 1.03584318 -1.61128673
v 2.73440939 1.98378696 -1.55871389
v 1.45187546 0.00703792 -1.57839970
v 1.51240145 0.02057918 -1.54192115
v 3.98709640 4.29260055 -1.71742636
v 3.89051905 4.26051818 -1.63528754
v 5.66124924 4.22131824 -1.59696383
v 7.33902763 4.22915474 -1.59371262
v 5.79964020 4.12049634 -1.55549677
v 3.93535761 4.28577270 -1.71682294
v 3.84573316 4.23402800 -1.71682294
v 3.94164994 4.19125330 -1.54565017
v 20.26944363 3.76171280 -0.00377664
v 19.73088807 3.88813229 -0.00704254
v 19.73932330 3.93630071 -0.02767417
v 20.53456186 3.81350302 -0.09780716
v 19.75198721 4.00861650 -0.10303808
v 19.75532403 4.02767101 -0.15246282
v 19.75630088 4.03324917 -0.20523539
v 9.69816454 5.79462572 -0.20523539
v 9.69697503 5.78093724 -0.12710590
v 9.69323991 5.73795465 -0.06044191
v 9.68754666 5.67243865 -0.01572898
v 9.68079078 5.59469426 0.00000000
v 3.95647475 5.79462572 -0.20523539
v 3.95647475 5.78896267 -0.15246282
v 3.95647475 5.76961820 -0.10303808
v 3.95647475 5.69620193 -0.02767417
v 3.95647475 5.64730050 -0.00704254
v 3.88569788 5.63872147 -0.00342077
v 19.73088807 -3.88813229 -0.00704254
v 19.73932330 -3.93630071 -0.02767417
v 19.75198721 -4.00861650 -0.10303808
v 19.75532403 -4.02767101 -0.15246282
v 20.30685312 -3.90584328 -0.20301658
v 21.48190697 3.26687847 -0.04341485
v 23.00573370 -1.04720712 -0.05128788
v 21.97737661 -2.88547070 -0.04399926
v 20.61000965 -3.63314962 -0.00275138
v 20.58288169 -3.78574730 -0.08531066
v 23.10580378 0.18642542 -0.02782270
v 22.64686989 1.99514349 -0.04382894
v 3.78552328 5.76448237 -0.20523539
v 3.81312255 5.77362654 -0.20528018
v 3.84120671 5.78115094 -0.20530711
v 3.85522097 5.78170525 -0.16328681
v 3.79407636 5.74098298 -0.10303808
v 3.80490593 5.71122897 -0.06044191
v 3.81918620 5.67199425 -0.02767417
v 3.83591147 5.62604194 -0.00704254
v 3.87773795 5.73990759 -0.06780042
v 9.68079078 -5.59469426 0.00000000
v 9.68754666 -5.67243865 -0.01572898
v 9.69323991 -5.73795465 -0.06044191
v 9.69697503 -5.78093724 -0.12710590
v 9.69816454 -5.79462572 -0.20523539
v -3.61396981 3.06526064 -0.15246282
v -3.60735361 3.04708278 -0.10303808
v -3.59652403 3.01732877 -0.06044191
v -3.56551849 2.93214174 -0.00704254
v -3.54752610 2.88270804 0.00000000
v 3.95647475 -5.64730050 -0.00704254
v 3.95647475 -5.69620193 -0.02767417
v 3.95647475 -5.76961820 -0.10303808
v 3.95647475 -5.78896267 -0.15246282
v 3.95647475 -5.79462572 -0.20523539
v 3.87979176 -5.76117327 -0.08479981
v 3.92741243 -5.79377893 -0.20528018
v 3.89844845 -5.79124421 -0.20530711
v 3.91505651 -5.61997973 -0.00151485
v -5.75260897 2.44115894 -0.05616064
v -3.54752610 -2.88270804 0.00000000
v -3.56551849 -2.93214174 -0.00704254
v -3.59652403 -3.01732877 -0.06044191
v -3.60735361 -3.04708278 -0.10303808
v -3.61396981 -3.06526064 -0.15246282
v -3.61590668 -3.07058217 -0.20523539
v 3.78552328 -5.76448237 -0.20523539
v 3.83591147 -5.62604194 -0.00704254
v 3.81918620 -5.67199425 -0.02767417
v 3.80490593 -5.71122897 -0.06044191
v 3.79407636 -5.74098298 -0.10303808
v 3.78746016 -5.75916084 -0.15246282
v -8.09486478 2.27987057 0.00435492
v -8.17498801 2.28479657 -0.05977816
v -6.79964901 2.32254867 0.02133112
v -5.84995718 -2.41684517 -0.03951065
v -8.62986291 1.78000000 -0.00523539
v -8.62992383 1.77995653 -0.00174531
v -8.62992383 1.77995653 0.00174531
v -8.62986291 1.78000000 0.00523539
v -8.61867090 1.87858710 0.00523547
v -8.09486478 -2.27991736 0.00435541
v -8.62272555 -1.86488342 -0.00553135
v -8.62992383 -1.77995653 -0.00174531
v -8.62992383 -1.77995653 0.00174531
v -8.61887429 -1.88750585 0.00458938
v -8.61990902 -1.87952739 0.00174531
v -6.98567606 2.27656376 0.13122484
v -4.07510009 1.78000000 0.19476461
v -3.88786175 1.93793743 0.00001224
v -4.06717860 1.77483137 0.14403420
v -4.04660209 1.77483137 0.09699239
v -4.01472672 1.77483137 0.05673961
v -3.97365334 1.77483137 0.02592886
v -3.92608902 1.77483137 0.00659081
v -4.09722678 2.03092267 0.05713430
v -4.40603502 2.29075228 0.05342140
v -3.87517101 -1.77483137 0.00000000
v -4.06717871 -1.77483137 0.14403458
v -4.04660250 -1.77483137 0.09699307
v -4.01472757 -1.77483137 0.05674044
v -3.97365472 -1.77483137 0.02592964
v -3.92609094 -1.77483137 0.00659132
v -4.57000000 -2.27489991 0.19476461
v -4.30077472 -2.36769967 0.00869720
v -4.57516863 -2.28282140 0.14403420
v -4.18918908 -2.17475781 0.08035562
v -5.87105278 -2.27489991 0.19476461
v -5.87105278 -2.28242775 0.14540288
v -5.73199750 -2.32250163 0.08836814
v -6.61140328 -2.28094429 0.12517073
v -7.16312007 -2.28770700 0.05217144
v -6.40778867 -2.31753058 0.07383265
v -7.30239646 -2.28598537 0.04339114
v -7.33724479 -2.28556752 0.04121256
v -6.59980617 -2.31149776 0.05501296
v 2.67589054 5.22160545 -2.06746868
v 2.98123178 5.41630303 -2.19476461
v 2.90224134 5.38266758 -2.16474580
v 2.37041532 4.99207621 -2.00000000
v 2.35299952 5.03992572 -1.99340919
v 2.33673157 5.08462157 -1.97407114
v 2.32268364 5.12321792 -1.94326039
v 2.31178163 5.15317097 -1.90300761
v 2.44536408 5.22067171 -1.86014605
v 2.48975877 5.08248728 -2.00771221
v 2.58853903 5.15662542 -2.03164542
v -3.53319632 2.84333730 -2.00000000
v -3.55061211 2.89118681 -1.99340919
v -3.56688007 2.93588265 -1.97407114
v -3.58092799 2.97447901 -1.94326039
v -3.59183001 3.00443205 -1.90300761
v -3.59886759 3.02376765 -1.85596580
v -6.47936497 2.19680385 -1.99401358
v -8.13000000 2.17235487 -1.94326039
v -8.13000000 2.20423024 -1.90300761
v -6.56969326 2.12367430 -2.00000000
v -5.03048699 2.39507790 -2.00000000
v -5.27624663 2.52340581 -1.67055864
v -6.58959547 2.29394859 -1.90300761
v -6.58589496 2.26228875 -1.94326039
v -6.58112664 2.22149310 -1.97407114
v -5.07002227 2.56189034 -1.90300761
v -5.06267130 2.53087418 -1.94326039
v -5.05319913 2.49090794 -1.97407114
v -5.04223004 2.44462572 -1.99340919
v -8.43371717 1.78000000 -1.99340919
v -8.48128149 1.78000000 -1.97407114
v -8.52235487 1.78000000 -1.94326039
v -8.55423024 1.78000000 -1.90300761
v -8.57480675 1.78000000 -1.85596580
v -8.41665349 2.03098884 -1.98390448
v -8.38647736 2.16652258 -1.87398869
v -8.38279678 -1.78000000 -2.00000000
v -8.43371717 -1.78000000 -1.99340919
v -8.48128149 -1.78000000 -1.97407114
v -8.52235487 -1.78000000 -1.94326039
v -8.55423024 -1.78000000 -1.90300761
v -8.58272825 -1.78000000 -1.80523539
v -6.72325877 -2.12529546 -2.00003382
v -8.19065146 -2.06973001 -1.99634606
v -8.13000000 -2.13128149 -1.97407114
v -8.13000000 -2.17235487 -1.94326039
v -8.35327972 -2.16973830 -1.95089125
v -3.53319632 -2.84333730 -2.00000000
v -3.55061211 -2.89118681 -1.99340919
v -3.56688007 -2.93588265 -1.97407114
v -3.58092799 -2.97447901 -1.94326039
v -3.59183001 -3.00443205 -1.90300761
v -3.59886759 -3.02376765 -1.85596580
v -3.60157690 -3.03121142 -1.80523539
v -5.03048699 -2.39507790 -2.00000000
v -5.07476754 -2.58191221 -1.85596580
v -5.07002227 -2.56189034 -1.90300761
v -5.06267130 -2.53087418 -1.94326039
v -5.05319913 -2.49090794 -1.97407114
v -5.04223004 -2.44462572 -1.99340919
v -3.80106655 -3.01824474 -0.20815467
v -6.58959547 -2.29394859 -1.90300761
v -6.58589496 -2.26228875 -1.94326039
v -6.58112664 -2.22149310 -1.97407114
v -6.57560475 -2.17425039 -1.99340919
v 2.37041532 -4.99207621 -2.00000000
v 2.35299952 -5.03992572 -1.99340919
v 2.33673157 -5.08462157 -1.97407114
v 2.32268364 -5.12321792 -1.94326039
v 2.31178163 -5.15317097 -1.90300761
v 2.30474405 -5.17250656 -1.85596580
v 2.67589054 -5.22160545 -2.06746868
v 2.49100114 -5.24839741 -1.81336020
v 2.58058536 -5.15067764 -2.02916929
v 2.48574879 -5.07946351 -2.00709760
v 2.90223430 -5.38266407 -2.16474303
v 2.98123178 -5.41630303 -2.19476461
v 2.86547986 -5.36806204 -2.13009349
v -7.16285985 0.77627765 3.15772451
v -8.45051304 -1.78000000 3.14907114
v -8.49158642 -1.78000000 3.11826039
v -8.52346178 -1.78000000 3.07800761
v -8.54403830 -1.78000000 3.03096580
v -8.13000000 -2.19403830 3.03096580
v -8.13000000 -2.17346178 3.07800761
v -8.13000000 -2.14158642 3.11826039
v -8.13000000 -2.10051304 3.14907114
v -8.30782832 -2.01457644 3.17124203
v -4.37074924 -2.16031896 3.05177339
v -4.57000000 -2.17346178 3.07800761
v -4.57000000 -2.14158642 3.11826039
v -4.57000000 -2.10051304 3.14907114
v -4.57000000 -2.05294871 3.16840919
v -8.36087814 1.96767454 3.17146331
v -8.45051304 1.78000000 3.14907114
v -8.49158642 1.78000000 3.11826039
v -8.52346178 1.78000000 3.07800761
v -8.64758357 -1.66631795 2.92772534
v -4.15596170 -1.78000000 3.03096580
v -4.17653822 -1.78000000 3.07800761
v -4.20841358 -1.78000000 3.11826039
v -4.24948696 -1.78000000 3.14907114
v -4.29705129 -1.78000000 3.16840919
v -4.34797168 -1.78000000 3.17500000
v -4.15266731 -1.81703635 3.01310651
v -8.13000000 2.10051304 3.14907114
v -8.13000000 2.17346178 3.07800761
v -8.13000000 2.20195979 2.98023539
v -8.41882371 2.07649380 3.10695757
v -4.14804021 1.78000000 2.98023539
v -4.15596170 1.78000000 3.03096580
v -4.17653822 1.78000000 3.07800761
v -4.20841358 1.78000000 3.11826039
v -4.24948696 1.78000000 3.14907114
v -4.29705129 1.78000000 3.16840919
v -5.63657417 0.83501936 3.15189350
v -4.57000000 2.05294871 3.16840919
v -4.57000000 2.14158642 3.11826039
v -4.57000000 2.19403830 3.03096580
v -4.33585155 1.95696650 3.17118089
v -4.42848060 2.18301878 3.00939126
v -4.43449070 2.09528133 3.14056517
v -4.42874813 2.16725760 3.06407018
v -8.18157619 0.89245953 -2.00000000
v -8.13146745 0.79224206 -2.00624738
v -8.08485596 0.69901907 -2.02494230
v -8.07293500 0.78228518 -2.02200492
v -8.06620258 0.83477273 -2.00836787
v -8.13150907 0.84239241 -2.00433491
v -7.37339976 0.69252807 -2.19476461
v -7.39808230 0.68474275 -2.23923463
v -7.42113121 0.66424014 -2.28041488
v -7.44102100 0.63237721 -2.31557980
v -7.45643523 0.59126282 -2.34240200
v -7.46635371 0.54361816 -2.35910623
v -7.47011999 0.49259660 -2.36458692
v -7.63673515 0.70799304 -2.12184419
v -7.83346099 0.74295038 -2.06763448
v -7.91921215 0.76715870 -2.04392368
v -7.69405739 0.61683690 -2.21056481
v -0.29568694 0.59012878 -6.10523539
v -0.32036948 0.58234347 -6.14970541
v -0.34341839 0.56184086 -6.19088566
v -0.36330817 0.52997793 -6.22605058
v -0.37872240 0.48886354 -6.25287278
v -0.38864089 0.44121888 -6.26957701
v -0.34871581 -0.43910311 -6.29072986
v -0.37230823 0.43576279 -6.28158098
v -0.08903317 0.48872648 -6.30654295
v -0.39240717 -0.39019732 -6.27505770
v 0.32233937 0.84004312 -6.10523539
v 0.32919959 0.83608237 -6.15596580
v 0.34701937 0.82579411 -6.20300761
v 0.37462425 0.80985643 -6.24326039
v 0.41019484 0.78931974 -6.27407114
v 0.45138675 0.76553758 -6.29340919
v 0.41992604 0.59505354 -6.30022938
v 0.23876123 0.70554214 -6.17927466
v 0.19498224 0.69601111 -6.10597291
v 0.10148231 0.63889546 -6.10600569
v -0.00184251 0.60274162 -6.10575985
v -0.07511877 -0.53735477 -6.25968154
v -0.29568694 -0.59012878 -6.10523539
v -0.32036948 -0.58234347 -6.14970541
v -0.34341839 -0.56184086 -6.19088566
v -0.36330817 -0.52997793 -6.22605058
v -0.37872240 -0.48886354 -6.25287278
v -0.38864089 -0.44121888 -6.26957701
v 2.78936417 5.11305540 -6.10523539
v 2.79622438 5.10909465 -6.15596580
v 2.81404416 5.09880640 -6.20300761
v 2.84164904 5.08286871 -6.24326039
v 2.87721963 5.06233202 -6.27407114
v 2.91841154 5.03854986 -6.29340919
v 2.96250989 5.01308967 -6.30000000
v -0.11052494 -0.59012878 -6.10523539
v -7.37339976 -0.69252807 -2.19476461
v -7.39808230 -0.68474275 -2.23923463
v -7.42113121 -0.66424014 -2.28041488
v -7.44102100 -0.63237721 -2.31557980
v -7.45643523 -0.59126282 -2.34240200
v -7.46635371 -0.54361816 -2.35910623
v -7.47011999 -0.49259660 -2.36458692
v 2.90095038 5.24602541 -6.10557113
v 2.83935937 5.18440538 -6.10561097
v 0.45138675 -0.76553758 -6.29340919
v 0.41019484 -0.78931974 -6.27407114
v 0.37462425 -0.80985643 -6.24326039
v 0.34701937 -0.82579411 -6.20300761
v 0.32919959 -0.83608237 -6.15596580
v 0.32233937 -0.84004312 -6.10523539
v 0.07788900 -0.62840729 -6.10597291
v 0.17410257 -0.68082278 -6.10600569
v 0.25707512 -0.75222778 -6.10575985
v 0.43861394 -0.64993561 -6.30005379
v 0.19494497 -0.57059408 -6.27398370
v -7.98813573 -0.79573930 -2.02494230
v -8.08485596 -0.69901907 -2.02494230
v -7.89523865 -0.75945368 -2.05053505
v -7.76407263 -0.72786859 -2.08684940
v -7.63675338 -0.70799465 -2.12183954
v -7.52267780 -0.69815378 -2.15337163
v -7.84010562 -0.65094220 -2.13078690
v 3.87269449 5.59167557 -6.22665396
v 3.06025688 5.32633431 -6.18005989
v 2.96250989 -5.01308967 -6.30000000
v 2.91841154 -5.03854986 -6.29340919
v 2.87721963 -5.06233202 -6.27407114
v 2.84164904 -5.08286871 -6.24326039
v 2.81404416 -5.09880640 -6.20300761
v 2.79622438 -5.10909465 -6.15596580
v 2.78936417 -5.11305540 -6.10523539
v -8.18157619 -0.89245953 -2.00000000
v -8.08135871 -0.84235079 -2.00624738
v -8.12388938 -0.77708593 -2.00836787
v -8.13150907 -0.84239241 -2.00433491
v 2.98258728 5.18821922 -6.29066127
v 3.89692276 5.63253319 -6.10531610
v 3.86844869 5.62665401 -6.10530711
v 3.84036453 5.61912960 -6.10528018
v 2.90095038 -5.24602541 -6.10557113
v 3.05529503 -5.31676572 -6.19180904
v 2.97232942 -5.29598050 -6.10561097
v 9.50244244 5.64012878 -6.10523539
v 9.50159039 5.62537098 -6.17002726
v 9.49947210 5.58868104 -6.23058850
v 9.32699024 5.54129918 -6.31081093
v 9.49089939 5.44019732 -6.30000000
v 3.98371673 5.64012878 -6.10523539
v 3.98371673 5.63220729 -6.15596580
v 3.98371673 5.61163078 -6.20300761
v 3.98371673 5.53868203 -6.27407114
v 3.80719805 -5.60384793 -6.14448111
v 9.65827359 5.55015963 -6.10523539
v 9.62966935 5.58741349 -6.10577846
v 9.54900735 5.63398372 -6.10577846
v 9.55926038 5.48510945 -6.28234166
v 9.61520370 5.52186336 -6.23058850
v 9.64589552 5.54202742 -6.17009554
v 9.52509857 5.49943204 -6.28830120
v 9.58113403 5.59650664 -6.20107876
v 3.90183471 -5.59187891 -6.23182069
v 3.89692276 -5.63253319 -6.10531610
v 3.98371673 -5.53868203 -6.27407114
v 3.98371673 -5.61163078 -6.20300761
v 3.98371673 -5.63220729 -6.15596580
v 3.98371673 -5.64012878 -6.10523539
v 3.92569043 -5.63674727 -6.10530711
v 3.95465441 -5.63928199 -6.10528018
v 12.37766063 0.84004312 -6.10523539
v 12.37080041 0.83608237 -6.15596580
v 12.35298063 0.82579411 -6.20300761
v 12.28980516 0.78931974 -6.27407114
v 12.24861325 0.76553758 -6.29340919
v 9.49089939 -5.44019732 -6.30000000
v 9.31453869 -5.56118894 -6.30096077
v 9.49947210 -5.58868104 -6.23058850
v 9.50158878 -5.62534295 -6.17009554
v 9.50244244 -5.64012878 -6.10523539
v 12.56059633 0.65706839 -6.10604462
v 12.81052494 0.59012878 -6.10523539
v 12.74474502 0.59451593 -6.10558678
v 12.67973830 0.60762093 -6.10584231
v 12.61839223 0.62856376 -6.10599374
v 12.81052494 0.58220729 -6.15596580
v 12.81052494 0.56163078 -6.20300761
v 12.81052494 0.52975541 -6.24326039
v 12.81052494 0.48868203 -6.27407114
v 12.81052494 0.44111771 -6.29340919
v 12.20271903 0.04401905 -6.36863380
v 12.66357496 0.54942340 -6.23594170
v 9.65827359 -5.55015963 -6.10523539
v 9.64591898 -5.54204283 -6.17002726
v 9.61520370 -5.52186336 -6.23058850
v 9.55926038 -5.48510945 -6.28234166
v 9.54900735 -5.63398372 -6.10577846
v 9.62966935 -5.58741349 -6.10577846
v 9.52509857 -5.49943204 -6.28830120
v 9.58298855 -5.59461945 -6.20558632
v 14.74590745 0.59035061 -6.10524091
v 14.74590719 0.58220736 -6.15596557
v 14.74590719 0.56163088 -6.20300745
v 14.74590719 0.52975552 -6.24326029
v 14.74590719 0.48868212 -6.27407109
v 14.74590719 0.44111776 -6.29340918
v 14.74590719 0.39019732 -6.30000000
v 12.30410983 -0.59423527 -6.29966119
v 12.24861325 -0.76553758 -6.29340919
v 12.28980516 -0.78931974 -6.27407114
v 12.35298063 -0.82579411 -6.20300761
v 12.37080041 -0.83608237 -6.15596580
v 12.37766063 -0.84004312 -6.10523539
v 15.34456364 1.31357810 -6.18387102
v 15.17337275 0.71079377 -6.25422108
v 15.05805353 0.70462527 -6.10658322
v 14.96319240 0.64345043 -6.10645407
v 14.85767693 0.60428673 -6.10600873
v 14.92620071 0.52442068 -6.27441022
v 12.56059633 -0.65706839 -6.10604462
v 12.41434997 -0.78526960 -6.10558678
v 12.45820259 -0.73552463 -6.10584231
v 12.50701264 -0.69286879 -6.10599374
v 12.40799826 -0.69780581 -6.23542035
v 12.81052494 -0.59012878 -6.10523539
v 12.81052494 -0.44111771 -6.29340919
v 12.81052494 -0.48868203 -6.27407114
v 12.81052494 -0.52975541 -6.24326039
v 12.81052494 -0.56163078 -6.20300761
v 12.81052494 -0.58220729 -6.15596580
v 14.74590719 -0.39019732 -6.30000000
v 14.74590719 -0.44111775 -6.29340918
v 14.74590719 -0.48868211 -6.27407110
v 14.74590719 -0.52975551 -6.24326030
v 14.74590719 -0.56163087 -6.20300746
v 14.74590719 -0.58220735 -6.15596559
v 15.23013887 -0.96733133 -6.10524318
v 14.82959831 -0.59775577 -6.10583199
v 14.91245553 -0.62093489 -6.10626658
v 14.98593089 -0.65541765 -6.10650713
v 15.04262815 -0.69260650 -6.10658273
v 15.12522477 -0.76956353 -6.10645595
v 15.18910551 -0.86229610 -6.10601248
v 15.15302413 -0.63471254 -6.26216127
v 14.77013940 -0.58750396 -6.13369625
v -5.51048306 0.61897125 3.13785501
v -5.57000000 -0.58000000 2.97500000
v -5.77000000 -0.78000000 2.97500000
v -5.71823619 -0.77318517 2.97500000
v -5.62857864 -0.72142136 2.97500000
v -5.59679492 -0.68000000 2.97500000
v -5.57681483 -0.63176381 2.97500000
v -5.68120100 -0.78919301 3.07363630
v -5.55583705 -0.77855613 3.14529566
v -6.93000000 -0.78000000 2.97500000
v -7.17285046 0.42371857 3.03851629
v -7.12318517 -0.63176381 2.97500000
v -7.10320508 -0.68000000 2.97500000
v -7.07142136 -0.72142136 2.97500000
v -7.03000000 -0.75320508 2.97500000
v -6.98176381 -0.77318517 2.97500000
v -7.13188292 -0.78399519 3.13918221
v -5.54330277 0.16829074 0.69919555
v -5.59679492 0.68000000 2.97500000
v -5.62857864 0.72142136 2.97500000
v -5.67000000 0.75320508 2.97500000
v -7.13000000 0.58000000 2.97500000
v -6.98176381 0.77318517 2.97500000
v -7.03000000 0.75320508 2.97500000
v -7.07142136 0.72142136 2.97500000
v -7.10320508 0.68000000 2.97500000
v -7.12318517 0.63176381 2.97500000
v -6.21414528 0.85988349 3.04563489
v -5.62857864 0.72142136 0.20000000
v -5.59679492 0.68000000 0.20000000
v -5.69470854 0.74161476 0.05378204
v -5.58241449 0.63361922 0.13039280
v -7.12318517 0.63176381 0.20000000
v -7.10320508 0.68000000 0.20000000
v -7.07142136 0.72142136 0.20000000
v -7.03000000 0.75320508 0.20000000
v -6.98176381 0.77318517 0.20000000
v -7.12812478 0.61037819 0.17242375
v -7.05095773 0.70474160 0.05324589
v -5.57681483 -0.63176381 0.20000000
v -5.59679492 -0.68000000 0.20000000
v -5.62857864 -0.72142136 0.20000000
v -5.67000000 -0.75320508 0.20000000
v -5.77000000 -0.78000000 0.20000000
v -5.70521361 -0.74394181 0.07666031
v -5.59152618 -0.66392417 0.13772454
v -5.60073872 -0.58249534 0.05004862
v -6.94882023 -0.77331733 0.13938785
v -6.98176381 -0.77318517 0.20000000
v -7.03000000 -0.75320508 0.20000000
v -7.07142136 -0.72142136 0.20000000
v -7.10320508 -0.68000000 0.20000000
v -7.12318517 -0.63176381 0.20000000
v -7.12815025 -0.59257088 0.17296334
v -7.07831403 -0.68028590 0.05992683
v 9.56534931 5.74908669 -1.94430084
v 9.66479807 5.71705962 -2.00080386
v 9.69522780 5.68916413 -2.06311018
v 9.76967955 5.66283558 -1.97333127
v 9.82170509 5.67453129 -1.93687637
v 9.70125642 5.71718451 -1.91734056
v 9.63309819 5.75105627 -1.86908581
v 10.04282411 5.48876008 -2.00000000
v 9.95202092 5.56754067 -1.99028219
v 9.80989464 5.53997037 -2.07993974
v 9.86967838 5.38879435 -2.19476461
v 9.99872576 5.46329988 -2.00659081
v 9.95753385 5.43951772 -2.02592886
v 9.92196326 5.41898103 -2.05673961
v 9.89435838 5.40304335 -2.09699239
v 9.87653860 5.39275509 -2.14403420
v 12.60992661 1.04240813 -2.00000000
v 12.43678088 0.94244240 -2.19476461
v 12.56582825 1.01694793 -2.00659081
v 12.52463634 0.99316577 -2.02592886
v 12.48906575 0.97262908 -2.05673961
v 12.46146087 0.95669140 -2.09699239
v 12.44364109 0.94640314 -2.14403420
v 12.47302606 0.88829635 -2.19419748
v 12.51629668 0.83901230 -2.19386583
v 12.56557679 0.79575733 -2.19378285
v 14.71921212 0.70122419 -2.14887624
v 12.68456515 0.79246047 -2.02803479
v 14.57144882 0.73905840 -1.99282098
v 12.86964520 0.69252807 -2.19476461
v 14.74992122 0.70001845 -2.19417695
v 14.83203255 0.72274115 -2.19375897
v 14.90480728 0.75650350 -2.19353146
v 15.01750683 0.87075945 -2.06971514
v 16.29290482 3.01161270 -2.05003686
v 17.96514050 4.10140741 -2.00000000
v 15.50907574 1.97051378 -2.12630173
v 19.36366876 4.03718944 -1.92801116
v 19.53371957 4.02199303 -1.87473302
v 19.74907379 3.99197972 -1.80523539
v 19.09147587 4.07810790 -1.90325845
v 18.51773265 4.11010564 -1.97082919
v 17.96514050 -4.10140741 -2.00000000
v 18.30701793 -4.00913631 -2.07717038
v 18.51771625 -4.11010491 -1.97083128
v 19.09142423 -4.07811285 -1.90326519
v 19.74907379 -3.99197972 -1.80523539
v 19.41719943 -4.03333942 -1.91150488
v 15.63063462 -2.31889442 -2.04208372
v 17.00998059 -3.56465916 -2.04798605
v 15.12014487 -0.98325615 -2.19418217
v 15.07681027 -0.91008486 -2.19376331
v 15.02524630 -0.84871047 -2.19353401
v 14.97546053 -0.80398083 -2.19346478
v 14.88136777 -0.74439381 -2.19359526
v 14.77709560 -0.70631339 -2.19403262
v 14.66693170 -0.69275131 -2.19477074
v 15.06746562 -1.01897544 -2.02137838
v 14.84682481 -0.75157906 -2.06245458
v 12.86964520 -0.69252807 -2.19476461
v 12.68277454 -0.79290316 -2.03003852
v 12.80463076 -0.69684429 -2.19419748
v 12.74031421 -0.70967572 -2.19386583
v 12.67821425 -0.73072606 -2.19378285
v 10.04282411 -5.48876008 -2.00000000
v 12.60992661 -1.04240813 -2.00000000
v 12.56582825 -1.01694793 -2.00659081
v 12.52463634 -0.99316577 -2.02592886
v 12.48906575 -0.97262908 -2.05673961
v 12.46146087 -0.95669140 -2.09699239
v 12.44364109 -0.94640314 -2.14403420
v 12.43678088 -0.94244240 -2.19476461
v 9.86967838 -5.38879435 -2.19476461
v 9.99872576 -5.46329988 -2.00659081
v 9.95753385 -5.43951772 -2.02592886
v 9.92196326 -5.41898103 -2.05673961
v 9.89435838 -5.40304335 -2.09699239
v 9.87653860 -5.39275509 -2.14403420
v 9.94021684 -5.57785517 -1.98743408
v 9.80578756 -5.56454468 -2.04955371
v 9.63350257 -5.75087786 -1.87089817
v 9.82175881 -5.67449859 -1.93690233
v 9.69547708 -5.68819260 -2.06401606
v 9.66487059 -5.71700603 -2.00093773
v 9.56534931 -5.74908669 -1.94430084
v 9.76442754 -5.66717729 -1.96980482
v 9.70211320 -5.71551713 -1.92090647
v 8.48942409 2.17121528 -0.14460249
v 4.19720378 2.15919629 -0.12630770
v 3.99120781 -0.99718250 -0.15841385
v 8.83616991 -4.05862435 -0.02359569
v 9.69193349 -5.75224799 -1.82357107
v 9.65980921 -5.75146303 -1.85355192
v 9.69193349 5.75224799 -1.82357107
v 9.65980921 5.75146303 -1.85355192
v 2.76930812 -5.26788921 -2.19480444
v 2.71931893 -5.19653206 -2.19476461
v 2.69886437 -5.20834150 -2.10558667
v 2.71360544 -5.19983075 -2.14879522
v 2.67083565 -5.26544305 -1.99784742
v 0.26321912 -0.94244240 -2.19476461
v -0.00037885 -0.80098040 -2.02165322
v 0.13417175 -1.01694793 -2.00659081
v 0.17536366 -0.99316577 -2.02592886
v 0.21093425 -0.97262908 -2.05673961
v 0.23853913 -0.95669140 -2.09699239
v 0.25635891 -0.94640314 -2.14403420
v -0.16964520 -0.89245953 -2.00000000
v 0.17428136 -0.84321908 -2.13304302
v 0.13582297 -0.79847798 -2.19292080
v 0.04232130 -0.74136534 -2.19283885
v -0.06099051 -0.70518897 -2.19345346
v -0.16964520 -0.69252807 -2.19476461
v -0.16964520 -0.84153914 -2.00659081
v -0.16964520 -0.79397482 -2.02592886
v -0.16964520 -0.75290144 -2.05673961
v -0.16964520 -0.72102607 -2.09699239
v -0.16964520 -0.70044956 -2.14403420
v -0.16964520 0.69252807 -2.19476461
v 0.01102046 0.87943465 -2.00502817
v -0.16964520 0.84153914 -2.00659081
v -0.16964520 0.79397482 -2.02592886
v -0.16964520 0.75290144 -2.05673961
v -0.16964520 0.72102607 -2.09699239
v -0.16964520 0.70044956 -2.14403420
v -0.00559177 0.72930854 -2.12936630
v 0.01872972 0.73087417 -2.19292080
v 0.11494156 0.78329266 -2.19283885
v 0.19792711 0.85467513 -2.19345346
v 0.26321912 0.94244240 -2.19476461
v 0.13417175 1.01694793 -2.00659081
v 0.17536366 0.99316577 -2.02592886
v 0.21093425 0.97262908 -2.05673961
v 0.23853913 0.95669140 -2.09699239
v 0.25635891 0.94640314 -2.14403420
v 0.09305470 0.80577341 -2.07541479
v 2.71931893 5.19653206 -2.19476461
v 2.69886437 5.20834150 -2.10558667
v 2.71360544 5.19983075 -2.14879522
v 2.74428233 5.31740038 -2.01881173
v 2.90227818 5.37946433 -2.19480444
v 8.76464239 -4.28577270 -1.71682294
v 8.95533745 -4.29362348 -5.87207715
v 1.43109077 0.05174470 -1.71682294
v 1.43109077 -0.05174470 -1.71682294
v 3.84573316 -4.23402800 -1.71682294
v 3.93535761 -4.28577270 -1.71682294
v 2.97232942 5.29598050 -6.10561097
v 2.76930812 5.26788921 -2.19480444
v 3.89844845 5.79124421 -0.20530711
v 3.92741243 5.79377893 -0.20528018
v 3.95465441 5.63928199 -6.10528018
v 3.92569043 5.63674727 -6.10530711
v 2.83935937 -5.18440538 -6.10561097
v 2.90227818 -5.37946433 -2.19480444
v 3.84120671 -5.78115094 -0.20530711
v 3.81312255 -5.77362654 -0.20528018
v 3.84036453 -5.61912960 -6.10528018
v 3.86844869 -5.62665401 -6.10530711
v 12.67820122 0.73073145 -2.19378285
v 12.74031421 0.70967572 -2.19386583
v 12.80461678 0.69684615 -2.19419738
v 12.50699454 0.69288266 -6.10599370
v 12.45820259 0.73552463 -6.10584231
v 12.41431407 0.78531619 -6.10558651
v 12.61841330 -0.62855502 -6.10599370
v 12.67973830 -0.60762093 -6.10584231
v 12.74480332 -0.59450814 -6.10558651
v 12.56558797 -0.79574874 -2.19378285
v 12.51629668 -0.83901230 -2.19386583
v 12.47303465 -0.88828518 -2.19419738
v 18.12899325 -2.14758623 0.66160984
v 16.89603042 -0.96805008 0.66061398
v 17.91950147 -1.94077648 0.00010461
v 16.97391731 -0.86296592 -0.00021800
v 19.97100675 -2.14758623 0.66160984
v 21.06948148 -0.91556899 -0.00026016
v 20.05441003 -2.01491847 -0.00015390
v 21.20396958 -0.96805008 0.66061398
v 19.97100675 2.14758623 0.66160984
v 21.20396958 0.96805008 0.66061398
v 16.90241377 0.92100675 0.66160984
v 18.08194992 2.15396958 0.66061398
v 17.06952083 1.04520449 -0.00038131
v 5.33507885 -2.11342765 0.54083324
v 4.21958865 -0.99529943 0.54301848
v 5.35924613 -2.08985887 -0.14897374
v 4.46986648 -1.17705242 -0.15729873
v 8.46342761 -1.01492116 0.54083324
v 7.34529943 -2.13041135 0.54301848
v 7.36128159 -2.08945842 -0.15035501
v 7.34529943 2.13041135 0.54301848
v 8.45922717 1.08366867 0.54113699
v 4.21958865 0.99529943 0.54301848
v 5.25738596 1.94579745 -0.15678276
v 5.26633133 2.10922717 0.54113699
v 4.30958422 0.96802316 -0.15652214
v -4.19950224 1.98879843 3.05838923
v -4.23836145 -1.98800017 3.14481485
v -4.09992193 -1.95203563 0.19067725
v 17.63942291 3.70923256 -6.25888293
v 20.45983085 -1.60994449 -6.30000000
v 21.27017625 0.44395296 -6.30000000
v 19.35569854 2.17515816 -6.30000000
v 17.21436196 1.23815351 -6.30000000
v 17.14774516 -1.09826735 -6.30000000
v 18.89895635 -2.16002469 -6.30000000
v -8.53305332 1.90776771 3.01919734
v -8.60446953 1.90713373 0.33579082
v -8.53037386 2.10250913 0.00061056
v -8.29679853 2.16970198 3.03860193
v -8.39831407 -2.10493954 3.10243164
v -8.24170341 -2.28494643 0.03246269
v -8.54195533 -2.07429096 0.00224554
v -3.95083524 -2.82595917 -0.00855033
v 21.03738168 0.92248429 -0.00011649
v 20.04895197 2.02606981 -0.00041767
v 18.13552997 1.98329694 -0.00023991
v -8.55400407 -1.94433891 -1.86019414
v -8.57169938 1.88200496 -1.83445852
v 7.32971001 2.02283016 -0.15700240
v 8.33670359 1.03082830 -0.15440101
v 8.37695086 -0.81644498 -0.15778966
v 8.29087830 -1.04276590 -0.15694035
v 6.45367191 -2.17775203 -0.16022059
v 11.25390595 0.14208548 -0.01541659
v 17.39722811 -3.57933314 -6.25334561
v 19.62704296 -3.90735614 -6.25626880
v 22.12314210 -2.47474560 -6.19995646
v 20.08689429 3.80302209 -6.25340675
v 17.78112313 3.90398017 -2.05739220
v 19.05204654 4.05108405 -2.08741072
v 7.98276504 -1.46928015 -1.66130407
v 5.73920807 -2.12825283 -1.66040712
v 4.22329571 -0.48007919 -1.66169899
v 4.95343964 1.74259387 -1.65951844
v 7.38083886 1.93959145 -1.66160957
v 8.46304891 0.37266061 -1.66100191
v 15.83792167 -2.28857564 -6.26767230
v 21.25336680 -3.23602186 -6.27027270
v 23.01683883 0.14400027 -6.18342478
v 22.70760407 -1.37802587 -6.28053825
v 22.61804328 1.60782206 -6.27387098
v 21.62404295 2.98685898 -6.26857627
v 15.94563723 2.37699880 -6.27769873
v 12.66476123 -0.54435583 -6.24067902
v 12.40251549 0.69788603 -6.23971307
v 2.98403466 -5.19181371 -6.29018349
v 8.78556267 -4.23579266 -1.56178778
v 3.83627698 4.54043770 -6.28804112
v 1.15885440 0.00000819 -6.28594784
v 11.53899591 -0.09327084 -6.28804112
v -4.25864841 2.84655442 -0.13952429
v -3.92905719 2.87414419 -0.03711863
f 16 15 782
f 16 782 17
f 16 17 18
f 16 18 19
f 16 19 20
f 16 20 21
f 16 21 27
f 17 22 23
f 17 782 22
f 18 23 24
f 18 17 23
f 19 24 25
f 19 18 24
f 20 25 26
f 20 19 25
f 21 26 891
f 21 891 27
f 21 20 26
f 31 32 38
f 50 31 38
f 30 38 37
f 30 50 38
f 29 37 36
f 29 30 37
f 28 35 34
f 28 36 35
f 28 29 36
f 49 28 34
f 33 49 34
f 40 39 41
f 40 41 42
f 40 42 43
f 40 43 44
f 40 44 45
f 40 45 46
f 40 46 530
f 50 47 31
f 50 30 29
f 49 29 28
f 49 50 29
f 49 48 50
f 41 51 52
f 42 52 53
f 42 41 52
f 43 53 54
f 43 42 53
f 44 54 55
f 44 43 54
f 45 55 56
f 45 44 55
f 46 56 57
f 46 45 56
f 530 46 57
f 63 64 65
f 63 65 71
f 62 71 70
f 62 63 71
f 61 70 69
f 61 62 70
f 60 69 68
f 60 61 69
f 59 68 67
f 59 60 68
f 58 67 66
f 58 59 67
f 79 72 74
f 79 74 75
f 79 75 76
f 79 76 77
f 73 79 77
f 73 78 86
f 58 890 59
f 81 80 64
f 81 62 61
f 81 63 62
f 81 64 63
f 890 60 59
f 890 61 60
f 890 81 61
f 75 82 83
f 75 74 82
f 76 83 101
f 76 101 84
f 76 75 83
f 77 84 85
f 77 76 84
f 73 77 85
f 78 85 889
f 78 889 86
f 78 73 85
f 92 93 94
f 92 81 99
f 92 94 81
f 91 99 98
f 91 92 99
f 90 98 97
f 90 91 98
f 89 97 96
f 89 90 97
f 88 96 95
f 88 89 96
f 87 88 95
f 101 100 93
f 101 91 90
f 101 92 91
f 101 93 92
f 101 89 88
f 101 90 89
f 101 88 87
f 106 103 102
f 106 102 104
f 113 104 102
f 105 104 113
f 888 103 106
f 119 110 109
f 119 108 107
f 115 112 111
f 115 116 118
f 115 111 116
f 135 116 111
f 117 116 135
f 117 136 114
f 117 135 136
f 113 112 115
f 113 115 118
f 105 114 104
f 118 117 114
f 118 114 105
f 105 113 118
f 117 118 116
f 120 124 123
f 120 122 121
f 132 125 138
f 132 138 127
f 129 127 128
f 129 132 127
f 130 129 128
f 131 126 134
f 131 128 144
f 131 144 126
f 131 130 128
f 133 134 136
f 132 130 131
f 132 129 130
f 134 132 131
f 133 125 132
f 133 132 134
f 136 135 133
f 139 137 124
f 139 124 140
f 120 140 124
f 140 121 141
f 140 120 121
f 139 140 141
f 138 137 139
f 138 139 144
f 144 141 126
f 139 141 144
f 138 125 143
f 138 142 137
f 144 127 138
f 144 128 127
f 156 145 146
f 155 146 147
f 155 156 146
f 154 147 148
f 154 148 149
f 154 155 147
f 153 149 150
f 153 154 149
f 152 150 151
f 152 153 150
f 161 162 156
f 161 156 155
f 160 155 154
f 160 161 155
f 183 160 154
f 159 154 153
f 159 183 154
f 158 153 152
f 158 159 153
f 157 158 152
f 172 165 166
f 172 166 167
f 171 163 164
f 171 164 172
f 170 171 172
f 148 151 150
f 148 150 149
f 145 148 147
f 145 168 148
f 145 147 146
f 178 177 176
f 178 176 175
f 183 178 179
f 183 179 180
f 162 180 181
f 162 181 182
f 162 183 180
f 163 184 185
f 163 171 184
f 164 185 186
f 164 163 185
f 172 164 186
f 165 186 187
f 165 172 186
f 166 187 188
f 166 165 187
f 167 166 188
f 193 162 182
f 192 182 181
f 192 193 182
f 893 192 181
f 191 181 180
f 191 893 181
f 190 180 179
f 190 191 180
f 189 178 175
f 189 179 178
f 189 190 179
f 282 189 175
f 184 202 194
f 185 194 195
f 185 184 194
f 186 195 199
f 186 199 196
f 186 185 195
f 187 196 197
f 187 186 196
f 188 197 198
f 188 187 197
f 199 201 200
f 197 200 198
f 197 199 200
f 199 197 196
f 199 195 194
f 199 194 202
f 211 202 204
f 211 204 205
f 212 205 854
f 212 854 206
f 212 211 205
f 213 206 207
f 213 212 206
f 214 207 208
f 214 213 207
f 215 208 209
f 215 214 208
f 210 215 209
f 217 216 218
f 218 216 203
f 217 218 203
f 220 224 849
f 221 224 220
f 222 224 221
f 223 224 222
f 219 225 307
f 230 228 227
f 230 229 228
f 230 227 226
f 230 226 229
f 216 216 231
f 203 231 240
f 203 216 231
f 239 232 234
f 239 234 235
f 239 235 236
f 239 236 237
f 239 237 238
f 239 238 233
f 242 232 839
f 242 234 232
f 243 235 234
f 243 234 242
f 244 236 235
f 244 235 243
f 245 237 236
f 245 236 244
f 246 238 237
f 246 237 245
f 241 233 238
f 241 238 246
f 250 247 249
f 250 249 253
f 248 250 253
f 250 243 242
f 250 242 839
f 250 244 243
f 250 245 244
f 250 246 245
f 250 241 246
f 252 249 247
f 252 247 251
f 253 249 252
f 219 248 253
f 254 251 225
f 256 251 254
f 255 254 225
f 255 256 254
f 256 219 253
f 256 252 251
f 256 253 252
f 257 255 225
f 258 225 225
f 258 257 225
f 259 225 219
f 259 258 225
f 259 256 255
f 259 219 256
f 259 255 257
f 259 257 258
f 262 779 261
f 261 262 261
f 269 263 264
f 260 270 779
f 268 266 267
f 779 264 265
f 779 265 266
f 779 270 269
f 779 266 268
f 779 269 264
f 263 271 272
f 264 272 273
f 264 263 272
f 265 273 274
f 265 264 273
f 266 274 275
f 266 265 274
f 267 275 276
f 267 266 275
f 268 267 276
f 282 268 276
f 282 296 217
f 283 279 296
f 283 296 282
f 284 278 279
f 284 279 283
f 285 277 278
f 285 278 284
f 286 276 275
f 286 282 276
f 286 283 282
f 287 275 274
f 287 284 283
f 287 286 275
f 287 283 286
f 288 274 273
f 288 285 284
f 288 287 274
f 288 284 287
f 289 272 271
f 289 273 272
f 289 281 280
f 289 271 281
f 289 280 277
f 289 285 288
f 289 277 285
f 289 288 273
f 295 278 277
f 296 279 278
f 296 278 295
f 295 290 291
f 295 291 292
f 295 292 293
f 859 296 295
f 859 293 294
f 859 295 293
f 290 297 298
f 290 295 297
f 291 298 299
f 291 290 298
f 292 299 300
f 292 291 299
f 293 300 301
f 293 292 300
f 294 301 858
f 294 858 302
f 294 293 301
f 859 294 302
f 307 298 297
f 307 299 298
f 307 300 299
f 858 301 300
f 858 300 307
f 307 304 305
f 307 305 306
f 315 308 309
f 316 313 314
f 316 314 321
f 317 312 313
f 317 313 316
f 318 311 312
f 318 312 317
f 319 310 311
f 319 311 318
f 320 309 310
f 320 315 309
f 320 310 319
f 322 307 306
f 322 321 307
f 322 316 321
f 322 317 316
f 323 322 306
f 323 318 317
f 323 317 322
f 324 306 305
f 324 319 318
f 324 323 306
f 324 318 323
f 325 304 303
f 325 305 304
f 325 303 315
f 325 320 319
f 325 315 320
f 325 319 324
f 325 324 305
f 309 326 327
f 309 308 326
f 310 327 328
f 310 309 327
f 311 328 329
f 311 310 328
f 312 329 330
f 312 311 329
f 313 330 331
f 313 312 330
f 314 331 333
f 314 313 331
f 330 333 331
f 326 335 327
f 739 338 333
f 739 334 332
f 739 330 329
f 739 333 330
f 739 328 327
f 739 329 328
f 739 335 334
f 739 327 335
f 337 336 337
f 337 338 336
f 851 342 343
f 851 343 358
f 851 341 342
f 851 340 341
f 348 339 340
f 348 340 851
f 851 852 344
f 851 344 345
f 851 345 346
f 348 346 347
f 348 851 346
f 353 348 347
f 353 838 348
f 352 347 346
f 352 353 347
f 351 346 345
f 351 352 346
f 350 345 344
f 350 351 345
f 349 350 344
f 349 344 852
f 340 354 355
f 340 339 354
f 341 355 356
f 341 340 355
f 342 356 357
f 342 341 356
f 343 357 847
f 343 847 358
f 343 342 357
f 349 351 350
f 838 352 351
f 838 351 349
f 838 353 352
f 838 359 360
f 838 365 359
f 838 360 361
f 838 361 362
f 838 362 363
f 838 363 364
f 369 367 850
f 354 366 369
f 369 847 357
f 369 357 356
f 354 356 355
f 354 369 356
f 375 380 364
f 375 364 363
f 374 363 362
f 374 375 363
f 373 362 361
f 373 374 362
f 372 361 360
f 372 373 361
f 371 360 359
f 371 372 360
f 370 359 365
f 370 371 359
f 354 376 377
f 366 377 382
f 366 382 378
f 366 354 377
f 369 366 378
f 367 378 383
f 367 383 379
f 367 369 378
f 850 367 379
f 368 379 381
f 368 850 379
f 837 371 370
f 837 372 371
f 837 373 372
f 380 374 373
f 380 373 837
f 380 375 374
f 382 837 383
f 382 380 837
f 383 381 379
f 382 383 378
f 380 377 376
f 380 382 377
f 387 386 385
f 389 385 384
f 389 384 384
f 389 384 388
f 389 387 385
f 389 388 387
f 400 399 398
f 400 387 399
f 400 398 397
f 400 390 391
f 400 391 392
f 400 392 393
f 400 397 390
f 400 393 394
f 400 394 395
f 400 395 396
f 391 401 402
f 391 390 401
f 392 402 403
f 392 391 402
f 393 403 404
f 393 392 403
f 394 404 405
f 394 393 404
f 395 405 406
f 395 394 405
f 396 406 408
f 396 395 406
f 401 409 402
f 408 405 409
f 409 405 404
f 408 406 405
f 409 404 403
f 408 409 407
f 409 403 402
f 408 407 410
f 412 418 411
f 413 418 412
f 416 417 415
f 409 421 420
f 418 413 414
f 409 414 415
f 409 418 414
f 409 415 417
f 409 420 419
f 409 419 418
f 423 424 422
f 407 428 410
f 407 409 422
f 407 427 428
f 422 426 427
f 422 427 407
f 422 425 426
f 422 424 425
f 435 417 416
f 434 416 415
f 434 435 416
f 433 415 414
f 433 434 415
f 432 414 413
f 432 433 414
f 431 413 412
f 431 432 413
f 430 412 411
f 430 431 412
f 429 430 411
f 422 409 456
f 423 422 436
f 443 410 428
f 442 428 427
f 442 443 428
f 441 427 426
f 441 442 427
f 440 426 425
f 440 441 426
f 439 425 424
f 439 440 425
f 438 424 423
f 438 439 424
f 437 438 423
f 434 477 435
f 445 444 477
f 429 445 430
f 477 433 432
f 477 434 433
f 477 431 430
f 477 432 431
f 477 430 445
f 455 446 447
f 456 454 453
f 456 447 448
f 456 455 447
f 456 448 449
f 456 449 450
f 456 450 451
f 456 451 454
f 422 453 452
f 456 453 422
f 463 459 457
f 463 461 460
f 463 460 459
f 463 438 437
f 463 439 438
f 463 440 439
f 463 437 462
f 463 462 461
f 463 441 440
f 463 442 441
f 463 443 442
f 464 477 465
f 446 466 467
f 446 455 466
f 447 467 468
f 447 446 467
f 448 468 469
f 448 447 468
f 449 469 470
f 449 448 469
f 450 470 471
f 450 449 470
f 451 471 472
f 451 450 471
f 476 474 473
f 476 473 473
f 476 473 475
f 463 457 474
f 463 475 458
f 463 476 475
f 463 474 476
f 479 478 464
f 480 479 464
f 465 480 464
f 483 481 887
f 482 483 887
f 488 477 487
f 486 464 491
f 486 492 464
f 486 487 492
f 485 491 490
f 485 486 491
f 484 490 489
f 484 485 490
f 482 887 502
f 482 502 493
f 496 485 484
f 494 499 495
f 500 497 488
f 500 498 497
f 500 488 488
f 500 487 486
f 500 488 487
f 501 499 498
f 501 486 485
f 501 500 486
f 501 498 500
f 501 485 496
f 501 495 499
f 504 502 887
f 504 887 516
f 506 502 505
f 508 503 502
f 509 508 502
f 509 502 506
f 507 509 506
f 514 530 488
f 514 488 497
f 513 497 498
f 513 514 497
f 886 513 498
f 512 498 499
f 512 886 498
f 511 499 494
f 511 512 499
f 510 511 494
f 516 887 515
f 504 516 517
f 502 504 517
f 505 517 518
f 505 502 517
f 506 518 519
f 506 505 518
f 507 506 519
f 524 531 520
f 525 522 521
f 531 524 523
f 531 523 522
f 531 525 526
f 531 526 527
f 531 522 525
f 531 527 528
f 531 528 529
f 531 529 530
f 537 533 532
f 519 518 536
f 538 515 515
f 538 515 535
f 538 516 515
f 538 517 516
f 539 535 534
f 539 518 517
f 539 517 538
f 539 538 535
f 539 534 533
f 539 533 537
f 539 536 518
f 521 540 541
f 525 541 542
f 525 521 541
f 526 542 543
f 526 525 542
f 527 543 544
f 527 526 543
f 528 544 545
f 528 527 544
f 529 545 546
f 529 528 545
f 530 529 546
f 515 547 548
f 535 548 549
f 535 515 548
f 534 549 563
f 534 563 550
f 534 535 549
f 533 550 551
f 533 534 550
f 532 551 552
f 532 533 551
f 558 546 545
f 558 541 540
f 558 542 541
f 558 540 557
f 558 557 556
f 558 545 544
f 554 556 555
f 554 558 556
f 558 543 542
f 558 544 543
f 562 563 559
f 551 560 552
f 563 562 561
f 563 547 530
f 563 561 560
f 563 551 550
f 563 560 551
f 563 549 548
f 563 548 547
f 565 530 570
f 565 570 571
f 566 571 572
f 566 565 571
f 567 572 573
f 567 566 572
f 568 573 574
f 568 567 573
f 569 574 575
f 569 568 574
f 564 575 584
f 564 569 575
f 570 583 571
f 583 576 582
f 583 582 581
f 583 581 580
f 584 583 577
f 583 574 573
f 583 575 574
f 583 584 575
f 583 572 571
f 583 580 579
f 583 579 578
f 583 578 577
f 583 573 572
f 592 588 587
f 592 590 589
f 593 590 592
f 593 591 590
f 593 585 586
f 593 586 591
f 601 593 592
f 601 592 587
f 594 601 587
f 601 596 595
f 601 597 596
f 601 598 597
f 601 599 598
f 601 600 599
f 601 594 600
f 585 603 602
f 376 604 603
f 376 603 585
f 376 605 604
f 376 612 605
f 595 339 601
f 612 376 339
f 339 608 607
f 339 607 612
f 339 609 608
f 339 610 609
f 339 611 610
f 595 611 339
f 595 606 611
f 616 614 613
f 616 613 615
f 616 615 631
f 631 602 616
f 622 618 617
f 623 619 618
f 623 618 622
f 623 620 619
f 623 621 620
f 623 615 621
f 629 627 626
f 630 629 626
f 630 626 625
f 630 625 624
f 630 624 631
f 630 631 629
f 622 638 639
f 622 639 623
f 639 629 631
f 632 629 639
f 632 628 629
f 639 638 637
f 639 637 636
f 639 636 635
f 639 635 634
f 639 634 633
f 632 639 633
f 640 646 641
f 643 649 642
f 643 642 641
f 643 645 644
f 645 643 641
f 645 641 646
f 648 647 651
f 649 655 650
f 649 651 652
f 649 652 653
f 649 648 651
f 649 653 654
f 649 654 655
f 649 643 648
f 656 651 647
f 658 652 651
f 658 651 656
f 659 653 652
f 659 652 658
f 660 654 653
f 660 653 659
f 661 655 654
f 661 654 660
f 662 650 655
f 662 655 661
f 657 650 662
f 663 657 662
f 667 658 656
f 667 661 660
f 667 662 661
f 667 664 663
f 667 663 662
f 667 665 664
f 667 659 658
f 667 660 659
f 667 668 666
f 667 666 669
f 666 671 670
f 673 676 554
f 673 672 671
f 673 666 668
f 673 671 666
f 676 668 674
f 676 673 668
f 680 871 681
f 677 871 680
f 679 678 677
f 679 679 678
f 679 677 680
f 871 870 681
f 870 675 681
f 687 685 683
f 686 685 687
f 686 686 687
f 683 685 684
f 683 684 682
f 683 682 689
f 697 691 690
f 698 696 695
f 698 691 697
f 698 692 691
f 698 693 692
f 698 694 693
f 698 695 694
f 700 698 697
f 699 696 698
f 699 698 700
f 701 699 700
f 700 702 701
f 700 703 702
f 713 705 704
f 713 706 705
f 714 707 706
f 714 706 713
f 715 708 707
f 715 707 714
f 716 709 708
f 716 708 715
f 717 710 709
f 717 709 716
f 712 711 710
f 712 710 717
f 713 704 719
f 712 717 719
f 719 718 725
f 719 714 713
f 719 715 714
f 719 716 715
f 719 717 716
f 720 724 723
f 725 722 719
f 725 721 726
f 725 723 722
f 726 723 725
f 726 720 723
f 719 704 682
f 718 682 684
f 718 719 682
f 725 718 684
f 721 684 685
f 721 725 684
f 726 721 685
f 720 726 685
f 732 685 686
f 732 720 685
f 731 732 686
f 648 675 647
f 681 648 643
f 681 643 644
f 681 675 648
f 680 644 645
f 680 645 646
f 680 646 734
f 680 681 644
f 679 734 733
f 679 680 734
f 739 736 735
f 739 332 737
f 739 737 738
f 739 738 736
f 739 735 338
f 742 326 741
f 742 335 326
f 743 334 335
f 743 335 742
f 744 332 334
f 744 334 743
f 745 737 332
f 745 332 744
f 746 738 737
f 746 737 745
f 740 736 738
f 740 738 746
f 748 740 746
f 757 752 751
f 747 753 741
f 748 745 744
f 748 746 745
f 748 744 741
f 741 750 749
f 741 749 748
f 741 743 742
f 741 744 743
f 741 751 750
f 741 755 756
f 741 756 757
f 741 757 751
f 741 753 754
f 741 754 755
f 474 753 747
f 474 747 473
f 457 754 753
f 457 753 474
f 459 755 754
f 459 754 457
f 460 756 755
f 460 755 459
f 461 757 756
f 461 756 460
f 462 752 757
f 462 757 461
f 437 752 462
f 475 386 458
f 475 385 386
f 473 384 385
f 473 385 475
f 390 764 758
f 397 763 764
f 397 764 390
f 398 762 763
f 398 763 397
f 399 761 762
f 399 762 398
f 387 761 399
f 388 760 761
f 388 761 387
f 384 759 760
f 384 760 388
f 765 758 764
f 774 769 768
f 765 763 762
f 765 764 763
f 765 762 775
f 765 767 766
f 759 761 760
f 759 762 761
f 759 775 762
f 775 768 767
f 775 772 773
f 775 773 774
f 775 774 768
f 775 767 765
f 759 770 771
f 759 771 772
f 759 772 775
f 263 770 759
f 269 771 770
f 269 770 263
f 270 772 771
f 270 771 269
f 260 773 772
f 260 772 270
f 777 774 773
f 777 773 260
f 778 769 774
f 778 774 777
f 776 769 778
f 780 262 261
f 779 262 780
f 15 781 888
f 15 888 782
f 32 103 781
f 32 781 15
f 74 123 124
f 72 122 120
f 72 120 123
f 72 123 74
f 51 121 122
f 51 122 72
f 93 143 125
f 100 142 138
f 100 138 143
f 100 143 93
f 82 137 142
f 82 142 100
f 64 784 111
f 80 783 135
f 80 135 784
f 80 784 64
f 94 133 783
f 94 783 80
f 31 786 102
f 47 785 113
f 47 113 786
f 47 786 31
f 65 112 785
f 65 785 47
f 724 519 536
f 723 536 539
f 723 539 537
f 723 724 536
f 722 537 532
f 722 723 537
f 719 722 532
f 642 649 494
f 642 494 495
f 641 495 501
f 641 642 495
f 496 641 501
f 640 496 484
f 640 641 496
f 261 465 787
f 780 787 444
f 780 261 787
f 779 780 444
f 788 444 445
f 788 779 444
f 776 445 429
f 776 788 445
f 157 489 791
f 790 791 792
f 790 157 791
f 789 792 478
f 789 790 792
f 178 789 478
f 177 478 479
f 177 178 478
f 176 479 480
f 176 177 479
f 175 480 465
f 175 176 480
f 758 421 409
f 765 421 758
f 766 420 421
f 766 421 765
f 767 419 420
f 767 420 766
f 768 411 418
f 768 418 419
f 768 419 767
f 769 411 768
f 740 454 451
f 748 454 740
f 749 453 454
f 749 454 748
f 750 452 453
f 750 453 749
f 751 436 422
f 751 422 452
f 751 452 750
f 752 436 751
f 736 472 793
f 735 793 481
f 735 736 793
f 338 735 481
f 794 481 483
f 794 338 481
f 337 483 482
f 337 794 483
f 210 493 797
f 796 797 798
f 796 210 797
f 795 798 503
f 795 796 798
f 199 795 503
f 201 503 508
f 201 199 503
f 200 508 509
f 200 201 508
f 198 509 507
f 198 200 509
f 690 576 697
f 690 582 576
f 691 581 582
f 691 582 690
f 692 580 581
f 692 581 691
f 693 579 580
f 693 580 692
f 694 578 579
f 694 579 693
f 695 577 578
f 695 578 694
f 696 584 577
f 696 577 695
f 554 676 553
f 555 672 673
f 555 673 554
f 556 671 672
f 556 672 555
f 557 670 671
f 557 671 556
f 540 666 670
f 540 670 557
f 522 801 669
f 522 669 521
f 523 800 801
f 523 801 522
f 524 799 800
f 524 800 523
f 520 667 799
f 520 665 667
f 520 799 524
f 802 664 665
f 802 665 520
f 803 663 664
f 803 664 802
f 804 657 663
f 804 663 803
f 510 657 804
f 560 711 552
f 560 810 711
f 561 809 810
f 561 810 560
f 562 808 809
f 562 809 561
f 559 700 808
f 559 703 700
f 559 808 562
f 805 702 703
f 805 703 559
f 806 701 702
f 806 702 805
f 807 699 701
f 807 701 806
f 564 699 807
f 617 611 606
f 617 606 622
f 618 610 611
f 618 611 617
f 619 609 610
f 619 610 618
f 620 608 609
f 620 609 619
f 621 607 608
f 621 608 620
f 615 612 607
f 615 607 621
f 633 600 594
f 633 594 632
f 634 599 600
f 634 600 633
f 635 598 599
f 635 599 634
f 636 597 598
f 636 598 635
f 637 596 597
f 637 597 636
f 638 595 596
f 638 596 637
f 624 591 586
f 624 586 631
f 625 590 591
f 625 591 624
f 626 589 590
f 626 590 625
f 627 588 592
f 627 592 589
f 627 589 626
f 629 588 627
f 628 587 588
f 628 588 629
f 615 605 612
f 613 604 605
f 613 605 615
f 614 603 604
f 614 604 613
f 616 602 603
f 616 603 614
f 666 540 521
f 666 521 669
f 564 696 699
f 584 696 564
f 443 408 410
f 443 396 408
f 443 400 396
f 463 400 443
f 463 387 400
f 458 386 387
f 458 387 463
f 758 409 401
f 758 401 390
f 423 752 437
f 436 752 423
f 811 812 9
f 811 9 10
f 813 811 10
f 10 9 812
f 10 812 814
f 812 813 814
f 813 812 811
f 11 818 815
f 12 816 818
f 11 12 818
f 12 11 815
f 12 815 817
f 817 815 818
f 818 816 817
f 820 13 819
f 14 856 819
f 13 14 819
f 820 14 13
f 820 855 14
f 820 856 855
f 856 820 819
f 821 822 7
f 822 823 857
f 823 822 821
f 821 7 8
f 823 821 8
f 822 8 7
f 822 857 8
f 631 615 623
f 631 623 639
f 585 631 586
f 585 602 631
f 595 622 606
f 595 638 622
f 587 632 594
f 587 628 632
f 824 825 3
f 824 3 4
f 826 824 4
f 4 3 825
f 4 825 729
f 825 827 729
f 827 825 824
f 824 826 827
f 5 828 829
f 828 862 863
f 6 862 828
f 5 6 828
f 6 5 829
f 6 829 830
f 830 829 828
f 828 863 830
f 832 2 831
f 727 860 831
f 2 727 831
f 832 727 2
f 832 861 727
f 832 860 861
f 832 831 860
f 833 835 1
f 835 836 834
f 835 833 836
f 833 1 728
f 836 833 728
f 835 728 1
f 835 834 728
f 376 354 339
f 348 601 339
f 380 376 585
f 838 601 348
f 593 380 585
f 364 380 593
f 838 364 593
f 838 593 601
f 368 240 231
f 368 231 216
f 368 216 217
f 381 240 368
f 381 383 837
f 239 381 837
f 239 240 381
f 837 370 232
f 239 837 232
f 365 839 232
f 365 232 370
f 839 365 838
f 250 838 349
f 250 839 838
f 250 349 247
f 225 852 307
f 251 349 852
f 251 852 225
f 247 349 251
f 87 435 477
f 889 87 477
f 86 889 477
f 417 435 87
f 456 409 417
f 95 417 87
f 890 417 95
f 890 456 417
f 890 455 456
f 58 455 890
f 86 477 488
f 79 86 488
f 57 79 488
f 66 466 455
f 66 455 58
f 887 466 66
f 49 887 66
f 887 49 33
f 530 57 488
f 547 27 891
f 547 891 530
f 515 33 27
f 515 27 547
f 515 887 33
f 570 546 558
f 570 530 546
f 583 570 558
f 844 884 840
f 844 554 884
f 843 844 840
f 844 558 554
f 843 840 869
f 845 583 558
f 845 558 844
f 843 869 883
f 845 878 583
f 842 843 883
f 882 842 883
f 878 845 846
f 866 878 846
f 881 842 882
f 867 866 846
f 867 846 841
f 879 867 841
f 881 841 842
f 879 841 881
f 712 719 532
f 552 712 532
f 711 712 552
f 472 740 451
f 736 740 472
f 167 188 731
f 167 731 686
f 733 151 679
f 152 151 733
f 640 489 157
f 640 484 489
f 733 734 646
f 152 646 640
f 152 640 157
f 152 733 646
f 175 261 779
f 175 779 268
f 175 268 282
f 175 465 261
f 282 203 892
f 282 217 203
f 848 223 358
f 848 358 847
f 849 848 847
f 849 847 369
f 850 849 369
f 850 368 217
f 848 224 223
f 848 849 224
f 217 849 850
f 229 358 223
f 853 851 358
f 853 852 851
f 229 853 358
f 321 219 307
f 314 209 321
f 333 209 314
f 337 482 493
f 210 333 338
f 210 338 337
f 210 209 333
f 210 337 493
f 720 731 188
f 724 188 198
f 724 198 507
f 724 720 188
f 732 731 720
f 519 724 507
f 384 295 277
f 280 384 277
f 473 295 384
f 297 295 473
f 304 307 297
f 303 297 473
f 303 304 297
f 759 271 263
f 741 308 747
f 326 308 741
f 747 303 473
f 747 315 303
f 747 308 315
f 384 280 759
f 280 281 759
f 281 271 759
f 688 700 697
f 688 705 700
f 688 704 705
f 689 704 688
f 682 704 689
f 107 22 782
f 41 121 51
f 110 121 41
f 124 137 82
f 74 124 82
f 93 133 94
f 125 133 93
f 111 112 65
f 111 65 64
f 103 31 102
f 103 32 31
f 239 193 240
f 233 193 239
f 854 248 219
f 204 250 248
f 204 241 250
f 204 248 854
f 728 162 193
f 729 233 241
f 729 193 233
f 729 241 204
f 729 728 193
f 727 156 162
f 727 162 728
f 4 729 204
f 202 4 204
f 865 156 727
f 730 4 202
f 8 156 865
f 184 730 202
f 184 865 730
f 823 8 865
f 145 156 8
f 145 8 857
f 856 145 857
f 814 823 865
f 856 168 145
f 10 814 865
f 14 168 856
f 10 865 184
f 14 174 168
f 174 14 855
f 173 174 855
f 173 855 816
f 171 10 184
f 171 813 10
f 171 817 813
f 169 173 816
f 169 816 12
f 171 12 817
f 170 169 12
f 170 12 171
f 769 776 429
f 769 429 411
f 650 657 510
f 650 510 494
f 649 650 494
f 674 656 647
f 668 656 674
f 870 674 647
f 668 667 656
f 675 870 647
f 858 226 302
f 853 226 858
f 853 858 307
f 852 853 307
f 853 229 226
f 849 296 859
f 849 859 220
f 296 849 217
f 226 220 859
f 302 226 859
f 864 827 826
f 830 863 864
f 727 834 860
f 728 834 727
f 836 728 729
f 729 827 836
f 4 864 826
f 864 4 730
f 730 830 864
f 730 6 830
f 730 862 6
f 865 862 730
f 865 861 862
f 865 727 861
f 878 697 576
f 878 688 697
f 878 689 688
f 683 866 867
f 866 689 878
f 683 689 866
f 867 686 687
f 867 687 683
f 167 867 879
f 167 686 867
f 170 172 167
f 170 167 879
f 170 879 868
f 881 169 170
f 881 170 868
f 169 881 880
f 880 174 173
f 880 173 169
f 174 880 882
f 174 882 883
f 871 869 840
f 869 678 679
f 168 174 883
f 870 871 840
f 871 678 869
f 871 677 678
f 148 679 151
f 148 168 883
f 148 869 679
f 148 883 869
f 674 840 884
f 840 674 870
f 676 674 884
f 676 884 553
f 817 841 846
f 816 841 817
f 816 842 841
f 855 842 816
f 856 843 842
f 856 842 855
f 857 843 856
f 857 844 843
f 823 844 857
f 814 844 823
f 814 845 844
f 813 845 814
f 813 846 845
f 817 846 813
f 877 860 876
f 877 861 860
f 877 862 861
f 872 862 877
f 872 863 862
f 872 864 863
f 873 864 872
f 873 827 864
f 874 827 873
f 874 836 827
f 875 836 874
f 875 834 836
f 875 860 834
f 876 860 875
f 141 876 875
f 875 126 141
f 875 134 126
f 874 134 875
f 874 136 134
f 874 114 136
f 873 104 114
f 873 114 874
f 873 106 104
f 888 106 873
f 888 873 872
f 872 107 888
f 872 119 107
f 877 119 872
f 877 110 119
f 876 110 877
f 876 121 110
f 121 876 141
f 41 109 110
f 39 108 119
f 39 119 109
f 39 109 41
f 22 107 108
f 22 108 39
f 779 777 260
f 779 778 777
f 779 776 778
f 779 788 776
f 337 336 794
f 338 794 336
f 710 711 810
f 705 706 700
f 700 809 808
f 700 708 709
f 700 709 710
f 700 810 809
f 700 710 810
f 700 706 707
f 700 707 708
f 667 669 801
f 667 800 799
f 667 801 800
f 878 576 583
f 868 879 881
f 882 880 881
f 884 554 553
f 807 569 564
f 563 805 559
f 885 807 806
f 885 567 568
f 885 568 569
f 885 569 807
f 885 565 566
f 885 566 567
f 885 530 565
f 885 806 805
f 885 805 563
f 885 563 530
f 804 511 510
f 531 802 520
f 886 804 803
f 886 512 511
f 886 511 804
f 886 514 513
f 886 530 514
f 886 803 802
f 886 802 531
f 886 531 530
f 798 797 493
f 798 493 502
f 503 798 502
f 467 466 887
f 793 472 471
f 481 793 887
f 887 468 467
f 887 469 468
f 887 470 469
f 887 471 470
f 887 793 471
f 477 492 487
f 464 492 477
f 464 490 491
f 791 489 490
f 792 791 490
f 792 490 464
f 478 792 464
f 444 787 477
f 465 477 787
f 220 226 227
f 221 227 228
f 221 220 227
f 222 221 228
f 223 228 229
f 223 222 228
f 215 796 795
f 215 210 796
f 199 214 215
f 199 215 795
f 199 211 212
f 202 211 199
f 199 212 213
f 199 213 214
f 158 790 789
f 158 157 790
f 178 159 158
f 178 158 789
f 183 159 178
f 162 161 160
f 183 162 160
f 135 783 133
f 135 111 784
f 113 785 112
f 113 102 786
f 888 781 103
f 888 107 782
f 101 82 100
f 101 83 82
f 889 85 84
f 889 84 101
f 889 101 87
f 890 95 96
f 81 98 99
f 81 94 80
f 890 96 97
f 890 97 98
f 890 98 81
f 79 57 56
f 79 52 51
f 79 53 52
f 79 54 53
f 79 51 72
f 79 55 54
f 79 56 55
f 79 73 86
f 48 69 70
f 48 70 71
f 48 71 65
f 48 65 47
f 48 47 50
f 48 67 68
f 48 68 69
f 48 66 67
f 48 49 66
f 40 23 22
f 40 24 23
f 40 25 24
f 40 22 39
f 891 26 25
f 891 25 40
f 891 40 530
f 16 32 15
f 16 36 37
f 16 37 38
f 16 38 32
f 35 36 16
f 35 33 34
f 35 16 27
f 35 27 33
f 854 205 204
f 321 207 206
f 321 206 854
f 321 208 207
f 321 209 208
f 321 854 219
f 192 240 193
f 893 203 240
f 893 240 192
f 892 191 190
f 892 203 893
f 892 893 191
f 892 189 282
f 892 190 189

