# https://github.com/mikedh/trimesh
v -16.39492757 -5.43153037 -5.00005126
v -23.59470849 -3.98728589 -5.00013493
v -31.68246087 -44.37954882 -5.00010929
v -24.48257587 -45.82306523 -5.00010539
v -25.40733033 -16.25333151 5.00006539
v -24.60827580 -45.63622314 5.00009189
v -12.91556081 1.83084437 5.00000000
v -12.85911805 1.81953872 4.99442554
v -13.97091885 4.85010647 4.92379218
v -14.99770320 4.95602925 5.00000000
v -12.86976333 2.17515236 5.00000000
v -12.86929886 2.52249251 5.00000000
v -13.00362497 3.20254679 5.00000000
v -13.13611718 3.52362499 5.00000000
v -13.52046382 4.10050884 5.00000000
v -13.76574198 4.34644385 5.00000000
v -14.34159587 4.73233194 5.00000000
v -14.66231859 4.86568237 5.00000000
v -21.82594928 6.43879091 4.92395385
v -20.88084437 6.13443919 5.00000000
v -24.06724687 -53.84328156 5.00000000
v -24.01080411 -53.85458721 4.99442554
v -23.95645894 -53.86547270 4.97790932
v -24.16704514 4.08454874 4.95106513
v -24.11681719 4.07448794 4.97790932
v -24.06247201 4.06360245 4.99442554
v -24.00602925 4.05229680 5.00000000
v -21.22515236 6.18023667 5.00000000
v -21.57249251 6.18070114 5.00000000
v -22.25254679 6.04637503 5.00000000
v -22.57362499 5.91388282 5.00000000
v -23.15050884 5.52953618 5.00000000
v -23.39644385 5.28425802 5.00000000
v -23.78233194 4.70840413 5.00000000
v -23.91568237 4.38768141 5.00000000
v -22.81745966 6.06109989 4.93061593
v -23.85415362 5.17585390 4.91824402
v -27.19243176 -55.92542395 5.00000000
v -24.81584903 -55.57447648 4.94823831
v -26.84812377 -55.97122143 5.00000000
v -26.50078361 -55.97168590 5.00000000
v -25.82072934 -55.83735979 5.00000000
v -25.49965114 -55.70486758 5.00000000
v -24.92276728 -55.32052094 5.00000000
v -24.67683228 -55.07524278 5.00000000
v -24.46501650 -54.79996206 5.00000000
v -24.15759376 -54.17866617 5.00000000
v -26.00695570 -56.22469873 4.89847341
v -24.05845001 -54.63136795 4.92232417
v -35.36297531 -51.58071497 4.91489058
v -35.26850325 -51.59963799 4.97790932
v -35.21415808 -51.61052348 4.99442554
v -35.15771532 -51.62182913 5.00000000
v -33.07557293 -54.74701401 5.00000000
v -35.20351280 -51.96613712 5.00000000
v -35.15910077 -52.65790651 5.00000000
v -35.06965116 -52.99353155 5.00000000
v -34.93715895 -53.31460975 5.00000000
v -34.55281230 -53.89149360 5.00000000
v -34.30753415 -54.13742861 5.00000000
v -33.73168026 -54.52331670 5.00000000
v -33.41095754 -54.65666713 5.00000000
v -35.39135942 -52.09847371 4.94779025
v -35.29066189 -52.11087096 4.99262429
v -33.95599621 -54.76511139 4.90868822
v -23.85197378 4.02143905 -5.00000000
v -23.90841654 4.03274470 -4.99442554
v -23.96276171 4.04363019 -4.97790932
v -24.01298967 4.05369099 -4.95106513
v -20.88951098 6.09117165 -4.97790932
v -20.90039647 6.03682648 -4.99442554
v -20.91170212 5.98038372 -5.00000000
v -23.76697261 4.33697938 -5.00000000
v -23.64151235 4.63872534 -5.00000000
v -23.27845677 5.18050669 -5.00000000
v -23.04707343 5.41127205 -5.00000000
v -22.50432306 5.77287739 -5.00000000
v -22.20224265 5.89753020 -5.00000000
v -21.56242632 6.02390840 -5.00000000
v -21.23563784 6.02347142 -5.00000000
v -22.93029003 5.83182404 -4.92156083
v -23.81110656 4.90287214 -4.92082940
v -15.00636981 4.91276171 -4.97790932
v -15.01725530 4.85841654 -4.99442554
v -15.02856095 4.80197378 -5.00000000
v -35.00365985 -51.65268688 -5.00000000
v -35.06010261 -51.64138123 -4.99442554
v -35.11444778 -51.63049574 -4.97790932
v -35.16467573 -51.62043494 -4.95106513
v -35.20891984 -51.61157272 -4.91489058
v -35.24553585 -51.60423843 -4.87073004
v -35.29771611 -51.59378657 -4.70785308
v -12.95882835 1.83951098 -4.97790932
v -13.01317352 1.85039647 -4.99442554
v -13.06961628 1.86170212 -5.00000000
v -14.71302062 4.71697261 -5.00000000
v -14.41127466 4.59151235 -5.00000000
v -13.86949331 4.22845677 -5.00000000
v -13.63872795 3.99707343 -5.00000000
v -13.27712261 3.45432306 -5.00000000
v -13.15246980 3.15224265 -5.00000000
v -13.02609160 2.51242632 -5.00000000
v -13.02652858 2.18563784 -5.00000000
v -14.08937560 4.73926657 -4.91914944
v -33.04471518 -54.59295854 -5.00000000
v -33.61024060 -57.02579687 -0.20380063
v -33.36025551 -54.50795737 -5.00000000
v -33.66200147 -54.38249711 -5.00000000
v -34.20378282 -54.01944153 -5.00000000
v -34.43454817 -53.78805818 -5.00000000
v -34.79615351 -53.24530782 -5.00000000
v -34.92080633 -52.94322741 -5.00000000
v -35.30010054 -52.68885804 -4.90563322
v -35.04718453 -52.30341108 -5.00000000
v -35.04674755 -51.97662260 -5.00000000
v -34.84923281 -53.67847159 -4.92557943
v -34.02434982 -54.50825426 -4.91903373
v -24.06028646 -53.84467575 -4.95106513
v -24.11051441 -53.83461495 -4.97790932
v -24.16485958 -53.82372946 -4.99442554
v -24.22130234 -53.81242381 -5.00000000
v -27.16157401 -55.77136848 -5.00000000
v -24.30630352 -54.12796414 -5.00000000
v -24.43176378 -54.42971010 -5.00000000
v -24.79481936 -54.97149145 -5.00000000
v -25.02620270 -55.20225681 -5.00000000
v -25.42333217 -55.58126575 -4.99330461
v -25.56895307 -55.56386215 -5.00000000
v -25.87103348 -55.68851496 -5.00000000
v -25.95526726 -56.06587308 -4.90824924
v -26.51084981 -55.81489316 -5.00000000
v -26.83763829 -55.81445618 -5.00000000
v -24.36788155 -54.90734889 -4.92162471
v -21.77190639 6.29699069 -4.91101968
v -35.49562226 -51.55414540 3.00000000
v -35.00320362 -53.89072981 4.89696510
v -35.53227337 -52.34984758 4.77359195
v -24.24047206 -55.21620182 3.04728913
v -13.13541483 4.03122042 4.92242204
v -12.62062868 2.92310904 4.91409227
v -8.99685312 -15.99158385 -3.19595242
v -1.21642723 0.48058883 1.77743265
v -3.01994470 -6.62847858 -1.63305377
v -4.86390959 10.14086456 -2.26189125
v -34.93485588 -0.25507959 -0.11627034
v -25.82493257 15.34327002 0.15622760
f 82 145 146
f 146 145 37
f 9 144 146
f 142 144 9
f 143 144 142
f 142 49 143
f 81 82 146
f 146 37 36
f 146 36 19
f 19 36 30
f 133 143 138
f 138 143 49
f 82 81 75
f 137 145 135
f 135 113 137
f 137 113 136
f 136 113 106
f 29 19 30
f 10 9 146
f 142 9 139
f 139 14 142
f 143 141 93
f 144 143 93
f 32 36 37
f 145 50 51
f 146 144 134
f 134 81 146
f 145 82 69
f 106 117 130
f 130 48 106
f 133 138 130
f 106 113 116
f 116 117 106
f 145 113 92
f 92 135 145
f 113 135 92
f 65 136 106
f 106 48 65
f 39 138 49
f 39 130 138
f 48 130 39
f 23 49 142
f 18 17 9
f 9 10 18
f 146 19 20
f 20 10 146
f 9 17 16
f 16 139 9
f 119 141 143
f 30 36 31
f 36 32 31
f 37 34 33
f 33 32 37
f 85 96 2
f 91 113 145
f 145 90 91
f 91 90 113
f 89 88 113
f 113 90 89
f 145 88 89
f 89 90 145
f 133 130 127
f 117 116 109
f 62 65 54
f 137 136 63
f 63 51 50
f 63 145 137
f 63 50 145
f 136 65 60
f 142 140 12
f 22 47 49
f 49 23 22
f 22 21 47
f 142 8 22
f 22 23 142
f 19 29 28
f 28 20 19
f 14 139 15
f 139 16 15
f 141 119 120
f 118 143 133
f 133 119 118
f 118 119 143
f 145 51 25
f 51 52 25
f 25 52 26
f 98 99 2
f 144 99 98
f 74 75 2
f 2 73 74
f 82 75 74
f 74 73 82
f 68 88 145
f 145 69 68
f 68 69 82
f 82 73 68
f 87 115 88
f 2 1 4
f 4 3 2
f 125 124 133
f 125 4 124
f 112 116 113
f 122 130 117
f 3 4 122
f 38 65 48
f 38 54 65
f 56 63 136
f 61 65 62
f 61 60 65
f 59 58 136
f 136 60 59
f 11 7 8
f 11 8 142
f 142 12 11
f 13 12 140
f 142 14 13
f 13 140 142
f 94 93 141
f 141 120 94
f 103 93 94
f 123 120 119
f 133 124 123
f 123 119 133
f 123 121 120
f 124 4 123
f 4 121 123
f 26 27 35
f 35 25 26
f 35 34 37
f 37 25 35
f 53 52 55
f 24 37 145
f 145 25 24
f 24 25 37
f 2 101 102
f 102 1 2
f 103 1 102
f 102 101 144
f 144 93 102
f 102 93 103
f 2 99 100
f 100 101 2
f 100 99 144
f 144 101 100
f 2 96 97
f 97 98 2
f 70 134 144
f 115 87 86
f 2 3 86
f 86 3 115
f 67 68 73
f 133 127 126
f 126 125 133
f 4 125 126
f 116 112 111
f 111 112 3
f 115 3 114
f 3 112 114
f 114 112 113
f 113 88 114
f 88 115 114
f 105 122 117
f 3 122 105
f 64 56 55
f 63 56 64
f 55 52 64
f 51 63 64
f 64 52 51
f 136 58 57
f 57 56 136
f 103 94 95
f 95 121 4
f 95 1 103
f 95 4 1
f 144 98 104
f 98 97 104
f 104 96 144
f 104 97 96
f 76 75 81
f 81 77 76
f 2 75 76
f 76 77 2
f 81 134 78
f 78 77 81
f 2 77 78
f 83 70 144
f 144 96 83
f 80 70 71
f 66 67 73
f 66 73 2
f 2 86 66
f 110 109 116
f 116 111 110
f 3 109 110
f 110 111 3
f 129 127 130
f 130 131 129
f 129 131 4
f 130 122 132
f 132 131 130
f 132 122 4
f 4 131 132
f 117 109 108
f 108 109 3
f 48 42 41
f 79 78 134
f 134 70 79
f 79 70 80
f 79 80 2
f 2 78 79
f 80 71 72
f 72 85 2
f 2 80 72
f 96 85 84
f 84 83 96
f 128 126 127
f 127 129 128
f 4 126 128
f 128 129 4
f 107 105 117
f 117 108 107
f 3 105 107
f 107 108 3
f 40 38 48
f 48 41 40
f 49 47 46
f 46 39 49
f 39 44 43
f 48 39 43
f 43 42 48
f 45 44 39
f 39 46 45
f 55 56 6
f 47 21 6
f 62 54 6
f 7 11 6
f 6 61 62
f 58 59 6
f 6 21 7
f 54 38 6
f 38 40 6
f 60 61 6
f 6 59 60
f 6 11 12
f 12 13 6
f 6 57 58
f 56 57 6
f 6 41 42
f 6 46 47
f 6 40 41
f 42 43 6
f 6 43 44
f 6 45 46
f 44 45 6
f 5 53 55
f 55 6 5
f 27 53 5
f 5 35 27
f 34 35 5
f 5 33 34
f 32 33 5
f 5 31 32
f 30 31 5
f 5 29 30
f 5 28 29
f 20 28 5
f 10 20 5
f 5 18 10
f 17 18 5
f 5 16 17
f 5 15 16
f 14 15 5
f 5 13 14
f 5 6 13
f 7 21 22
f 8 7 22
f 53 27 26
f 26 52 53
f 67 87 88
f 88 68 67
f 120 121 95
f 95 94 120
f 87 67 66
f 66 86 87
f 84 72 71
f 85 72 84
f 70 83 84
f 84 71 70

