# https://github.com/mikedh/trimesh

o p00064.obj
v 53.56196472 -1.48161168 9.52250000
v 53.13438472 -1.49733469 9.52250000
v 52.70877767 -1.45339704 9.52250000
v 52.29342754 -1.35065394 9.52250000
v 51.89641865 -1.19110517 9.52250000
v 51.52547831 -0.97785615 9.52250000
v 51.18782647 -0.71505754 9.52250000
v 50.89003514 -0.40782442 9.52250000
v 50.63790047 -0.06213672 9.52250000
v 50.43632999 0.31527713 9.52250000
v 50.28924703 0.71707121 9.52250000
v 50.19951441 1.13542504 9.52250000
v 50.16887865 1.56219585 9.52250000
v 50.19793606 1.98907703 9.52250000
v 50.28612106 2.40775982 9.52250000
v 50.43171723 2.81009504 9.52250000
v 50.63189072 3.18825169 9.52250000
v 50.88274536 3.53486938 9.52250000
v 51.17939855 3.84320159 9.52250000
v 51.51607629 4.10724699 9.52250000
v 51.88622553 4.32186624 9.52250000
v 52.28264172 4.48288200 9.52250000
v 52.69760908 4.58716031 9.52250000
v 53.12305074 4.63267148 9.52250000
v 53.55068596 4.61852972 9.52250000
v 53.97219132 4.54501025 9.52250000
v 54.37936268 4.41354407 9.52250000
v 54.76427492 4.22669001 9.52250000
v 55.11943616 3.98808496 9.52250000
v 55.43793359 3.70237312 9.52250000
v 55.71356803 3.37511552 9.52250000
v 55.94097455 3.01268188 9.52250000
v 56.11572696 2.62212654 9.52250000
v 56.23442389 2.21105123 9.52250000
v 56.29475504 1.78745705 9.52250000
v 56.29554614 1.35958879 9.52250000
v 56.23678179 0.93577442 9.52250000
v 56.11960577 0.52426299 9.52250000
v 55.94629878 0.13306411 9.52250000
v 55.72023403 -0.23020797 9.52250000
v 55.44581163 -0.55848258 9.52250000
v 55.12837290 -0.84537023 9.52250000
v 54.77409641 -1.08528698 9.52250000
v 54.38987776 -1.27356311 9.52250000
v 53.98319533 -1.40653406 9.52250000
v 53.45912088 -0.52022026 9.52250000
v 53.16634157 -0.53098636 9.52250000
v 52.87491321 -0.50090069 9.52250000
v 52.59050813 -0.43054881 9.52250000
v 52.31866196 -0.32130007 9.52250000
v 52.06466585 -0.17528084 9.52250000
v 51.83346357 0.00466676 9.52250000
v 51.62955520 0.21504026 9.52250000
v 51.45690958 0.45174498 9.52250000
v 51.31888707 0.71017373 9.52250000
v 51.21817412 0.98529649 9.52250000
v 51.15673098 1.27175831 9.52250000
v 51.13575358 1.56398354 9.52250000
v 51.15565023 1.85628434 9.52250000
v 51.21603365 2.14297141 9.52250000
v 51.31572855 2.41846471 9.52250000
v 51.45279449 2.67740208 9.52250000
v 51.62456363 2.91474360 9.52250000
v 51.82769267 3.12586969 9.52250000
v 52.05822796 3.30667101 9.52250000
v 52.31168236 3.45362848 9.52250000
v 52.58312270 3.56388173 9.52250000
v 52.86726568 3.63528481 9.52250000
v 53.15858079 3.66644794 9.52250000
v 53.45139791 3.65676456 9.52250000
v 53.74001769 3.60642316 9.52250000
v 54.01882247 3.51640356 9.52250000
v 54.28238564 3.38845791 9.52250000
v 54.52557723 3.22507651 9.52250000
v 54.74366381 3.02943940 9.52250000
v 54.93240055 2.80535443 9.52250000
v 55.08811393 2.55718316 9.52250000
v 55.20777315 2.28975596 9.52250000
v 55.28904918 2.00827800 9.52250000
v 55.33036007 1.71822793 9.52250000
v 55.33090177 1.42525124 9.52250000
v 55.29066372 1.13505040 9.52250000
v 55.21042911 0.85327382 9.52250000
v 55.09175961 0.58540597 9.52250000
v 54.93696500 0.33666059 9.52250000
v 54.74905818 0.11187923 9.52250000
v 54.53169654 -0.08456300 9.52250000
v 54.28911076 -0.24884257 9.52250000
v 54.02602252 -0.37776197 9.52250000
v 53.74755253 -0.46881193 9.52250000
v 53.56196472 -1.48161168 -9.52750000
v 53.13438472 -1.49733469 -9.52750000
v 52.70877767 -1.45339704 -9.52750000
v 52.29342754 -1.35065394 -9.52750000
v 51.89641865 -1.19110517 -9.52750000
v 51.52547831 -0.97785615 -9.52750000
v 51.18782647 -0.71505754 -9.52750000
v 50.89003514 -0.40782442 -9.52750000
v 50.63790047 -0.06213672 -9.52750000
v 50.43632999 0.31527713 -9.52750000
v 50.28924703 0.71707121 -9.52750000
v 50.19951441 1.13542504 -9.52750000
v 50.16887865 1.56219585 -9.52750000
v 50.19793606 1.98907703 -9.52750000
v 50.28612106 2.40775982 -9.52750000
v 50.43171723 2.81009504 -9.52750000
v 50.63189072 3.18825169 -9.52750000
v 50.88274536 3.53486938 -9.52750000
v 51.17939855 3.84320159 -9.52750000
v 51.51607629 4.10724699 -9.52750000
v 51.88622553 4.32186624 -9.52750000
v 52.28264172 4.48288200 -9.52750000
v 52.69760908 4.58716031 -9.52750000
v 53.12305074 4.63267148 -9.52750000
v 53.55068596 4.61852972 -9.52750000
v 53.97219132 4.54501025 -9.52750000
v 54.37936268 4.41354407 -9.52750000
v 54.76427492 4.22669001 -9.52750000
v 55.11943616 3.98808496 -9.52750000
v 55.43793359 3.70237312 -9.52750000
v 55.71356803 3.37511552 -9.52750000
v 55.94097455 3.01268188 -9.52750000
v 56.11572696 2.62212654 -9.52750000
v 56.23442389 2.21105123 -9.52750000
v 56.29475504 1.78745705 -9.52750000
v 56.29554614 1.35958879 -9.52750000
v 56.23678179 0.93577442 -9.52750000
v 56.11960577 0.52426299 -9.52750000
v 55.94629878 0.13306411 -9.52750000
v 55.72023403 -0.23020797 -9.52750000
v 55.44581163 -0.55848258 -9.52750000
v 55.12837290 -0.84537023 -9.52750000
v 54.77409641 -1.08528698 -9.52750000
v 54.38987776 -1.27356311 -9.52750000
v 53.98319533 -1.40653406 -9.52750000
v 53.45912088 -0.52022026 -9.52750000
v 53.16634157 -0.53098636 -9.52750000
v 52.87491321 -0.50090069 -9.52750000
v 52.59050813 -0.43054881 -9.52750000
v 52.31866196 -0.32130007 -9.52750000
v 52.06466585 -0.17528084 -9.52750000
v 51.83346357 0.00466676 -9.52750000
v 51.62955520 0.21504026 -9.52750000
v 51.45690958 0.45174498 -9.52750000
v 51.31888707 0.71017373 -9.52750000
v 51.21817412 0.98529649 -9.52750000
v 51.15673098 1.27175831 -9.52750000
v 51.13575358 1.56398354 -9.52750000
v 51.15565023 1.85628434 -9.52750000
v 51.21603365 2.14297141 -9.52750000
v 51.31572855 2.41846471 -9.52750000
v 51.45279449 2.67740208 -9.52750000
v 51.62456363 2.91474360 -9.52750000
v 51.82769267 3.12586969 -9.52750000
v 52.05822796 3.30667101 -9.52750000
v 52.31168236 3.45362848 -9.52750000
v 52.58312270 3.56388173 -9.52750000
v 52.86726568 3.63528481 -9.52750000
v 53.15858079 3.66644794 -9.52750000
v 53.45139791 3.65676456 -9.52750000
v 53.74001769 3.60642316 -9.52750000
v 54.01882247 3.51640356 -9.52750000
v 54.28238564 3.38845791 -9.52750000
v 54.52557723 3.22507651 -9.52750000
v 54.74366381 3.02943940 -9.52750000
v 54.93240055 2.80535443 -9.52750000
v 55.08811393 2.55718316 -9.52750000
v 55.20777315 2.28975596 -9.52750000
v 55.28904918 2.00827800 -9.52750000
v 55.33036007 1.71822793 -9.52750000
v 55.33090177 1.42525124 -9.52750000
v 55.29066372 1.13505040 -9.52750000
v 55.21042911 0.85327382 -9.52750000
v 55.09175961 0.58540597 -9.52750000
v 54.93696500 0.33666059 -9.52750000
v 54.74905818 0.11187923 -9.52750000
v 54.53169654 -0.08456300 -9.52750000
v 54.28911076 -0.24884257 -9.52750000
v 54.02602252 -0.37776197 -9.52750000
v 53.74755253 -0.46881193 -9.52750000
v 53.57080632 -1.56426354 -0.00250000
v 53.13163735 -1.58041269 -0.00250000
v 52.69449482 -1.53528418 -0.00250000
v 52.26788720 -1.42975637 -0.00250000
v 51.86011794 -1.26588324 -0.00250000
v 51.47912378 -1.04685441 -0.00250000
v 51.13232036 -0.77693301 -0.00250000
v 50.82645780 -0.46137276 -0.00250000
v 50.56748938 -0.10631568 -0.00250000
v 50.36045561 0.28132745 -0.00250000
v 50.20938618 0.69401159 -0.00250000
v 50.11722147 1.12370432 -0.00250000
v 50.08575538 1.56204216 -0.00250000
v 50.11560035 2.00049336 -0.00250000
v 50.20617548 2.43052397 -0.00250000
v 50.35571783 2.84376392 -0.00250000
v 50.56131674 3.23216998 -0.00250000
v 50.81897044 3.58818226 -0.00250000
v 51.12366401 3.90487139 -0.00250000
v 51.46946694 4.17607337 -0.00250000
v 51.84964855 4.39650957 -0.00250000
v 52.25680905 4.56188944 -0.00250000
v 52.68302352 4.66899406 -0.00250000
v 53.11999618 4.71573876 -0.00250000
v 53.55922187 4.70121370 -0.00250000
v 53.99215153 4.62570159 -0.00250000
v 54.41035871 4.49067220 -0.00250000
v 54.80570346 4.29875372 -0.00250000
v 55.17049085 4.05368162 -0.00250000
v 55.49762071 3.76022595 -0.00250000
v 55.78072583 3.42409849 -0.00250000
v 56.01429589 3.05184159 -0.00250000
v 56.19378472 2.65070080 -0.00250000
v 56.31569877 2.22848386 -0.00250000
v 56.37766511 1.79340875 -0.00250000
v 56.37847765 1.35394372 -0.00250000
v 56.31812058 0.91864245 -0.00250000
v 56.19776866 0.49597758 -0.00250000
v 56.01976442 0.09417580 -0.00250000
v 55.78757251 -0.27894227 -0.00250000
v 55.50571227 -0.61611430 -0.00250000
v 55.17966981 -0.91077764 -0.00250000
v 54.81579115 -1.15719700 -0.00250000
v 54.42115879 -1.35057610 -0.00250000
v 54.00345379 -1.48715104 -0.00250000
v 53.56343832 -1.49538699 -7.94000000
v 53.56491192 -1.50916230 -6.35250000
v 53.56638552 -1.52293761 -4.76500000
v 53.56785912 -1.53671292 -3.17750000
v 53.56933272 -1.55048823 -1.59000000
v 54.37774260 -1.29338400 -7.94000000
v 55.10735050 -0.87917516 -7.94000000
v 54.38287808 -1.30625091 -6.35250000
v 55.69815036 -0.28348045 -7.94000000
v 55.11576700 -0.89017939 -6.35250000
v 56.10632525 0.44952018 -7.94000000
v 54.38801357 -1.31911782 -4.76500000
v 55.70922366 -0.29180587 -6.35250000
v 56.30160270 1.26546342 -7.94000000
v 55.12418350 -0.90118362 -4.76500000
v 56.11923409 0.44449103 -6.35250000
v 56.26949989 2.10383450 -7.94000000
v 54.39314906 -1.33198473 -3.17750000
v 55.72029696 -0.30013129 -4.76500000
v 56.31538970 1.26410353 -6.35250000
v 56.01239772 2.90245527 -7.94000000
v 55.13260001 -0.91218786 -3.17750000
v 56.13214294 0.43946187 -4.76500000
v 56.28314252 2.10624472 -6.35250000
v 55.54936429 3.60209568 -7.94000000
v 54.39828455 -1.34485164 -1.59000000
v 55.73137026 -0.30845671 -3.17750000
v 56.32917670 1.26274364 -4.76500000
v 56.02488418 2.90845686 -6.35250000
v 54.91474068 4.15086661 -7.94000000
v 55.14101651 -0.92319209 -1.59000000
v 56.14505178 0.43443272 -3.17750000
v 56.29678515 2.10865495 -4.76500000
v 55.55976851 3.61124352 -6.35250000
v 54.15559401 4.50806821 -7.94000000
v 55.74244356 -0.31678213 -1.59000000
v 56.34296370 1.26138374 -3.17750000
v 56.03737063 2.91445844 -4.76500000
v 54.92229102 4.16248224 -6.35250000
v 53.32822671 4.64720849 -7.94000000
v 56.15796063 0.42940357 -1.59000000
v 56.31042779 2.11106517 -3.17750000
v 55.57017273 3.62039135 -4.76500000
v 54.15973050 4.52129016 -6.35250000
v 52.49400084 4.55796805 -7.94000000
v 56.35675070 1.26002385 -1.59000000
v 56.04985709 2.92046003 -3.17750000
v 54.92984137 4.17409787 -4.76500000
v 53.32864257 4.66105615 -6.35250000
v 51.71478711 4.24696544 -7.94000000
v 56.32407042 2.11347540 -1.59000000
v 55.58057694 3.62953919 -3.17750000
v 54.16386700 4.53451212 -4.76500000
v 52.49066523 4.57141440 -6.35250000
v 51.04837624 3.73726630 -7.94000000
v 56.06234355 2.92646161 -1.59000000
v 54.93739171 4.18571350 -3.17750000
v 53.32905844 4.67490381 -4.76500000
v 51.70794741 4.25901322 -6.35250000
v 50.54419288 3.06667269 -7.94000000
v 55.59098116 3.63868702 -1.59000000
v 54.16800349 4.54773407 -3.17750000
v 52.48732962 4.58486075 -4.76500000
v 51.03853972 3.74702199 -6.35250000
v 50.23962999 2.28491946 -7.94000000
v 54.94494205 4.19732914 -1.59000000
v 53.32947430 4.68875147 -3.17750000
v 51.70110771 4.27106101 -4.76500000
v 50.53208907 3.07341275 -6.35250000
v 50.15727562 1.44998568 -7.94000000
v 54.17213999 4.56095602 -1.59000000
v 52.48399400 4.59830710 -3.17750000
v 51.02870320 3.75677768 -4.76500000
v 50.22615658 2.28814402 -6.35250000
v 50.30323761 0.62379457 -7.94000000
v 53.32989016 4.70259913 -1.59000000
v 51.69426801 4.28310879 -3.17750000
v 50.51998526 3.08015281 -4.76500000
v 50.14343186 1.44945558 -6.35250000
v 50.66669062 -0.13237907 -7.94000000
v 52.48065839 4.61175345 -1.59000000
v 51.01886668 3.76653338 -3.17750000
v 50.21268316 2.29136857 -4.76500000
v 50.29005023 0.61954912 -6.35250000
v 51.22067902 -0.76245328 -7.94000000
v 51.68742831 4.29515658 -1.59000000
v 50.50788145 3.08689288 -3.17750000
v 50.12958810 1.44892547 -4.76500000
v 50.65513768 -0.14002499 -6.35250000
v 51.92411602 -1.21969835 -7.94000000
v 51.00903017 3.77628907 -1.59000000
v 50.19920975 2.29459313 -3.17750000
v 50.27686286 0.61530367 -4.76500000
v 51.21161734 -0.77293262 -6.35250000
v 52.72483090 -1.47020250 -7.94000000
v 50.49577764 3.09363294 -1.59000000
v 50.11574435 1.44839537 -3.17750000
v 50.64358474 -0.14767092 -4.76500000
v 51.91821766 -1.23223390 -6.35250000
v 50.18573634 2.29781768 -1.59000000
v 50.26367549 0.61105823 -3.17750000
v 51.20255566 -0.78341196 -4.76500000
v 52.72253332 -1.48386456 -6.35250000
v 50.10190059 1.44786527 -1.59000000
v 50.63203180 -0.15531684 -3.17750000
v 51.91231930 -1.24476945 -4.76500000
v 50.25048812 0.60681278 -1.59000000
v 51.19349398 -0.79389130 -3.17750000
v 52.72023574 -1.49752661 -4.76500000
v 50.62047886 -0.16296277 -1.59000000
v 51.90642095 -1.25730500 -3.17750000
v 51.18443230 -0.80437064 -1.59000000
v 52.71793817 -1.51118867 -3.17750000
v 51.90052259 -1.26984055 -1.59000000
v 52.71564059 -1.52485072 -1.59000000
v 53.56343832 -1.49538699 7.93500000
v 53.56491192 -1.50916230 6.34750000
v 53.56638552 -1.52293761 4.76000000
v 53.56785912 -1.53671292 3.17250000
v 53.56933272 -1.55048823 1.58500000
v 52.72483090 -1.47020250 7.93500000
v 51.92411602 -1.21969835 7.93500000
v 52.72253332 -1.48386456 6.34750000
v 51.22067902 -0.76245328 7.93500000
v 51.91821766 -1.23223390 6.34750000
v 50.66669062 -0.13237907 7.93500000
v 52.72023574 -1.49752661 4.76000000
v 51.21161734 -0.77293262 6.34750000
v 50.30323761 0.62379457 7.93500000
v 51.91231930 -1.24476945 4.76000000
v 50.65513768 -0.14002499 6.34750000
v 50.15727562 1.44998568 7.93500000
v 52.71793817 -1.51118867 3.17250000
v 51.20255566 -0.78341196 4.76000000
v 50.29005023 0.61954912 6.34750000
v 50.23962999 2.28491946 7.93500000
v 51.90642095 -1.25730500 3.17250000
v 50.64358474 -0.14767092 4.76000000
v 50.14343186 1.44945558 6.34750000
v 50.54419288 3.06667269 7.93500000
v 52.71564059 -1.52485072 1.58500000
v 51.19349398 -0.79389130 3.17250000
v 50.27686286 0.61530367 4.76000000
v 50.22615658 2.28814402 6.34750000
v 51.04837624 3.73726630 7.93500000
v 51.90052259 -1.26984055 1.58500000
v 50.63203180 -0.15531684 3.17250000
v 50.12958810 1.44892547 4.76000000
v 50.53208907 3.07341275 6.34750000
v 51.71478711 4.24696544 7.93500000
v 51.18443230 -0.80437064 1.58500000
v 50.26367549 0.61105823 3.17250000
v 50.21268316 2.29136857 4.76000000
v 51.03853972 3.74702199 6.34750000
v 52.49400084 4.55796805 7.93500000
v 50.62047886 -0.16296277 1.58500000
v 50.11574435 1.44839537 3.17250000
v 50.51998526 3.08015281 4.76000000
v 51.70794741 4.25901322 6.34750000
v 53.32822671 4.64720849 7.93500000
v 50.25048812 0.60681278 1.58500000
v 50.19920975 2.29459313 3.17250000
v 51.02870320 3.75677768 4.76000000
v 52.49066523 4.57141440 6.34750000
v 54.15559401 4.50806821 7.93500000
v 50.10190059 1.44786527 1.58500000
v 50.50788145 3.08689288 3.17250000
v 51.70110771 4.27106101 4.76000000
v 53.32864257 4.66105615 6.34750000
v 54.91474068 4.15086661 7.93500000
v 50.18573634 2.29781768 1.58500000
v 51.01886668 3.76653338 3.17250000
v 52.48732962 4.58486075 4.76000000
v 54.15973050 4.52129016 6.34750000
v 55.54936429 3.60209568 7.93500000
v 50.49577764 3.09363294 1.58500000
v 51.69426801 4.28310879 3.17250000
v 53.32905844 4.67490381 4.76000000
v 54.92229102 4.16248224 6.34750000
v 56.01239772 2.90245527 7.93500000
v 51.00903017 3.77628907 1.58500000
v 52.48399400 4.59830710 3.17250000
v 54.16386700 4.53451212 4.76000000
v 55.55976851 3.61124352 6.34750000
v 56.26949989 2.10383450 7.93500000
v 51.68742831 4.29515658 1.58500000
v 53.32947430 4.68875147 3.17250000
v 54.92984137 4.17409787 4.76000000
v 56.02488418 2.90845686 6.34750000
v 56.30160270 1.26546342 7.93500000
v 52.48065839 4.61175345 1.58500000
v 54.16800349 4.54773407 3.17250000
v 55.57017273 3.62039135 4.76000000
v 56.28314252 2.10624472 6.34750000
v 56.10632525 0.44952018 7.93500000
v 53.32989016 4.70259913 1.58500000
v 54.93739171 4.18571350 3.17250000
v 56.03737063 2.91445844 4.76000000
v 56.31538970 1.26410353 6.34750000
v 55.69815036 -0.28348045 7.93500000
v 54.17213999 4.56095602 1.58500000
v 55.58057694 3.62953919 3.17250000
v 56.29678515 2.10865495 4.76000000
v 56.11923409 0.44449103 6.34750000
v 55.10735050 -0.87917516 7.93500000
v 54.94494205 4.19732914 1.58500000
v 56.04985709 2.92046003 3.17250000
v 56.32917670 1.26274364 4.76000000
v 55.70922366 -0.29180587 6.34750000
v 54.37774260 -1.29338400 7.93500000
v 55.59098116 3.63868702 1.58500000
v 56.31042779 2.11106517 3.17250000
v 56.13214294 0.43946187 4.76000000
v 55.11576700 -0.89017939 6.34750000
v 56.06234355 2.92646161 1.58500000
v 56.34296370 1.26138374 3.17250000
v 55.72029696 -0.30013129 4.76000000
v 54.38287808 -1.30625091 6.34750000
v 56.32407042 2.11347540 1.58500000
v 56.14505178 0.43443272 3.17250000
v 55.12418350 -0.90118362 4.76000000
v 56.35675070 1.26002385 1.58500000
v 55.73137026 -0.30845671 3.17250000
v 54.38801357 -1.31911782 4.76000000
v 56.15796063 0.42940357 1.58500000
v 55.13260001 -0.91218786 3.17250000
v 55.74244356 -0.31678213 1.58500000
v 54.39314906 -1.33198473 3.17250000
v 55.14101651 -0.92319209 1.58500000
v 54.39828455 -1.34485164 1.58500000
f 75 30 29
f 75 29 74
f 73 29 28
f 73 74 29
f 76 30 75
f 76 31 30
f 72 73 28
f 72 28 27
f 77 31 76
f 77 32 31
f 71 27 26
f 71 72 27
f 78 32 77
f 78 33 32
f 70 71 26
f 70 26 25
f 79 33 78
f 79 34 33
f 69 25 24
f 69 70 25
f 80 35 34
f 80 34 79
f 68 24 23
f 68 69 24
f 81 36 35
f 81 35 80
f 67 23 22
f 67 68 23
f 82 37 36
f 82 36 81
f 66 21 20
f 66 22 21
f 66 67 22
f 83 37 82
f 83 38 37
f 65 66 20
f 84 38 83
f 84 39 38
f 64 20 19
f 64 65 20
f 85 40 39
f 85 39 84
f 63 19 18
f 63 64 19
f 62 63 18
f 41 40 85
f 41 85 86
f 17 62 18
f 87 41 86
f 42 41 87
f 16 61 62
f 16 62 17
f 43 87 88
f 43 42 87
f 15 61 16
f 15 60 61
f 44 43 88
f 44 88 89
f 44 89 90
f 14 60 15
f 14 59 60
f 45 44 90
f 13 59 14
f 13 58 59
f 1 45 90
f 1 90 46
f 12 58 13
f 12 56 57
f 12 57 58
f 2 1 46
f 2 46 47
f 2 47 48
f 11 56 12
f 3 2 48
f 10 56 11
f 10 55 56
f 4 48 49
f 4 49 50
f 4 3 48
f 9 53 54
f 9 54 55
f 9 55 10
f 5 4 50
f 8 52 53
f 8 53 9
f 6 5 50
f 6 50 51
f 6 51 52
f 7 6 52
f 7 52 8
f 165 119 120
f 165 164 119
f 163 118 119
f 163 119 164
f 166 165 120
f 166 120 121
f 162 118 163
f 162 117 118
f 167 166 121
f 167 121 122
f 161 116 117
f 161 117 162
f 168 167 122
f 168 122 123
f 160 116 161
f 160 115 116
f 169 168 123
f 169 123 124
f 159 114 115
f 159 115 160
f 170 124 125
f 170 169 124
f 158 113 114
f 158 114 159
f 171 125 126
f 171 170 125
f 157 112 113
f 157 113 158
f 172 126 127
f 172 171 126
f 156 110 111
f 156 111 112
f 156 112 157
f 173 172 127
f 173 127 128
f 155 110 156
f 174 173 128
f 174 128 129
f 154 109 110
f 154 110 155
f 175 129 130
f 175 174 129
f 153 108 109
f 153 109 154
f 152 108 153
f 131 175 130
f 131 176 175
f 107 108 152
f 177 176 131
f 132 177 131
f 106 152 151
f 106 107 152
f 133 178 177
f 133 177 132
f 105 106 151
f 105 151 150
f 134 178 133
f 134 179 178
f 134 180 179
f 104 105 150
f 104 150 149
f 135 180 134
f 103 104 149
f 103 149 148
f 91 180 135
f 91 136 180
f 102 103 148
f 102 147 146
f 102 148 147
f 92 136 91
f 92 137 136
f 92 138 137
f 101 102 146
f 93 138 92
f 100 101 146
f 100 146 145
f 94 139 138
f 94 140 139
f 94 138 93
f 99 144 143
f 99 145 144
f 99 100 145
f 95 140 94
f 98 143 142
f 98 99 143
f 96 140 95
f 96 141 140
f 96 142 141
f 97 142 96
f 97 98 142
f 226 91 135
f 225 181 230
f 226 92 91
f 181 182 230
f 231 226 135
f 231 134 133
f 231 135 134
f 232 231 133
f 232 132 131
f 232 133 132
f 233 226 231
f 233 227 226
f 234 232 131
f 234 130 129
f 234 131 130
f 235 233 231
f 235 231 232
f 236 234 129
f 236 128 127
f 236 129 128
f 237 227 233
f 237 228 227
f 238 232 234
f 238 234 236
f 238 235 232
f 239 236 127
f 239 126 125
f 239 127 126
f 240 233 235
f 240 237 233
f 241 238 236
f 242 239 125
f 242 124 123
f 242 125 124
f 243 229 228
f 243 228 237
f 244 235 238
f 244 240 235
f 244 238 241
f 245 236 239
f 245 241 236
f 246 242 123
f 246 122 121
f 246 123 122
f 247 243 237
f 247 237 240
f 248 241 245
f 248 244 241
f 249 245 239
f 249 239 242
f 250 246 121
f 250 120 119
f 250 121 120
f 251 223 224
f 251 224 225
f 251 230 229
f 251 225 230
f 251 229 243
f 252 247 240
f 252 240 244
f 253 248 245
f 254 242 246
f 254 249 242
f 255 250 119
f 255 118 117
f 255 119 118
f 256 221 222
f 256 222 223
f 256 223 251
f 256 243 247
f 256 251 243
f 257 252 244
f 257 244 248
f 258 253 245
f 258 249 254
f 258 245 249
f 259 254 246
f 259 246 250
f 260 255 117
f 260 116 115
f 260 117 116
f 261 247 252
f 261 219 220
f 261 220 221
f 261 221 256
f 261 252 257
f 261 256 247
f 262 257 248
f 262 248 253
f 263 258 254
f 264 259 250
f 264 250 255
f 265 260 115
f 265 114 113
f 265 115 114
f 266 261 257
f 266 219 261
f 266 217 218
f 266 218 219
f 267 262 253
f 267 253 258
f 268 254 259
f 268 263 254
f 269 264 255
f 269 255 260
f 270 113 112
f 270 265 113
f 271 217 266
f 271 262 267
f 271 215 216
f 271 216 217
f 271 266 257
f 271 257 262
f 272 258 263
f 272 267 258
f 273 268 259
f 273 259 264
f 274 269 260
f 274 260 265
f 275 270 112
f 275 111 110
f 275 112 111
f 276 215 271
f 276 213 214
f 276 214 215
f 276 271 267
f 277 263 268
f 277 272 263
f 278 273 264
f 278 264 269
f 279 265 270
f 279 274 265
f 280 275 110
f 280 109 108
f 280 110 109
f 281 276 267
f 281 267 272
f 281 211 212
f 281 212 213
f 281 213 276
f 282 273 278
f 282 277 268
f 282 268 273
f 283 278 269
f 283 274 279
f 283 269 274
f 284 279 270
f 284 270 275
f 284 275 280
f 285 280 108
f 285 107 106
f 285 108 107
f 286 281 272
f 286 209 210
f 286 210 211
f 286 272 277
f 286 211 281
f 287 282 278
f 288 279 284
f 288 283 279
f 289 284 280
f 289 280 285
f 290 105 104
f 290 106 105
f 290 285 106
f 291 207 208
f 291 208 209
f 291 286 277
f 291 282 287
f 291 209 286
f 291 277 282
f 292 278 283
f 292 287 278
f 292 283 288
f 293 288 284
f 294 289 285
f 295 103 102
f 295 104 103
f 295 290 104
f 296 205 206
f 296 206 207
f 296 207 291
f 296 291 287
f 296 287 292
f 297 292 288
f 297 288 293
f 298 284 289
f 298 293 284
f 299 285 290
f 299 294 285
f 300 101 100
f 300 102 101
f 300 295 102
f 301 292 297
f 301 204 205
f 301 205 296
f 301 296 292
f 302 297 293
f 303 298 289
f 303 289 294
f 304 295 300
f 304 299 290
f 304 290 295
f 305 99 98
f 305 100 99
f 305 300 100
f 306 204 301
f 306 297 302
f 306 202 203
f 306 203 204
f 306 301 297
f 307 293 298
f 307 302 293
f 308 294 299
f 308 303 294
f 309 304 300
f 310 305 98
f 310 97 96
f 310 98 97
f 311 200 201
f 311 201 202
f 311 202 306
f 311 306 302
f 312 307 298
f 312 303 308
f 312 298 303
f 313 304 309
f 313 308 299
f 313 299 304
f 314 309 300
f 314 300 305
f 315 310 96
f 315 95 94
f 315 96 95
f 316 198 199
f 316 199 200
f 316 200 311
f 316 302 307
f 316 311 302
f 317 312 308
f 318 313 309
f 318 309 314
f 319 305 310
f 319 314 305
f 320 315 94
f 320 93 92
f 320 94 93
f 320 92 226
f 320 226 227
f 321 196 197
f 321 197 198
f 321 198 316
f 321 316 307
f 321 307 312
f 322 308 313
f 322 317 308
f 323 318 314
f 324 315 320
f 324 310 315
f 324 319 310
f 325 194 195
f 325 195 196
f 325 196 321
f 325 312 317
f 325 321 312
f 326 322 313
f 326 313 318
f 327 319 324
f 327 323 314
f 327 314 319
f 328 320 227
f 328 324 320
f 329 192 193
f 329 193 194
f 329 194 325
f 329 317 322
f 329 325 317
f 329 322 326
f 330 318 323
f 330 326 318
f 331 327 324
f 331 324 328
f 332 190 191
f 332 191 192
f 332 192 329
f 332 329 326
f 332 326 330
f 333 323 327
f 333 330 323
f 334 328 227
f 334 227 228
f 334 331 328
f 335 332 330
f 335 188 189
f 335 189 190
f 335 190 332
f 336 333 327
f 336 327 331
f 337 186 187
f 337 187 188
f 337 188 335
f 337 335 330
f 337 333 336
f 337 330 333
f 338 334 228
f 338 336 331
f 338 331 334
f 338 228 229
f 339 184 185
f 339 185 186
f 339 186 337
f 339 337 336
f 340 229 230
f 340 339 336
f 340 182 183
f 340 183 184
f 340 230 182
f 340 338 229
f 340 184 339
f 340 336 338
f 341 1 2
f 182 181 345
f 341 45 1
f 181 225 345
f 346 341 2
f 346 2 3
f 346 3 4
f 347 4 5
f 347 5 6
f 347 346 4
f 348 342 341
f 348 341 346
f 349 347 6
f 349 6 7
f 349 7 8
f 350 346 347
f 350 348 346
f 351 349 8
f 351 8 9
f 351 9 10
f 352 343 342
f 352 342 348
f 353 347 349
f 353 350 347
f 354 351 10
f 354 10 11
f 354 11 12
f 355 348 350
f 355 352 348
f 356 353 349
f 356 349 351
f 357 12 13
f 357 13 14
f 357 354 12
f 358 344 343
f 358 343 352
f 359 350 353
f 359 355 350
f 360 351 354
f 360 356 351
f 361 357 14
f 361 14 15
f 361 15 16
f 362 352 355
f 362 358 352
f 362 355 359
f 363 353 356
f 363 359 353
f 364 360 354
f 364 357 361
f 364 354 357
f 365 361 16
f 365 16 17
f 365 17 18
f 366 183 182
f 366 184 183
f 366 344 358
f 366 345 344
f 366 182 345
f 367 362 359
f 368 356 360
f 368 363 356
f 369 364 361
f 370 18 19
f 370 19 20
f 370 365 18
f 371 185 184
f 371 186 185
f 371 184 366
f 371 366 358
f 371 362 367
f 371 358 362
f 372 363 368
f 372 359 363
f 372 367 359
f 373 360 364
f 373 368 360
f 374 369 361
f 374 361 365
f 375 20 21
f 375 21 22
f 375 370 20
f 376 187 186
f 376 188 187
f 376 371 367
f 376 186 371
f 377 372 368
f 378 373 364
f 378 364 369
f 378 369 374
f 379 374 365
f 379 365 370
f 380 375 22
f 380 22 23
f 381 376 367
f 381 189 188
f 381 190 189
f 381 188 376
f 381 372 377
f 381 367 372
f 382 368 373
f 382 377 368
f 383 378 374
f 384 379 370
f 384 370 375
f 385 380 23
f 385 23 24
f 385 24 25
f 386 191 190
f 386 192 191
f 386 190 381
f 386 381 377
f 387 382 373
f 387 373 378
f 387 378 383
f 388 383 374
f 388 374 379
f 389 380 385
f 389 375 380
f 389 384 375
f 390 385 25
f 390 25 26
f 390 26 27
f 391 386 377
f 391 377 382
f 391 193 192
f 391 194 193
f 391 192 386
f 392 387 383
f 393 388 379
f 393 379 384
f 394 389 385
f 394 385 390
f 395 390 27
f 395 27 28
f 395 28 29
f 396 195 194
f 396 196 195
f 396 194 391
f 396 382 387
f 396 387 392
f 396 391 382
f 397 388 393
f 397 392 383
f 397 383 388
f 398 384 389
f 398 393 384
f 399 394 390
f 400 395 29
f 400 29 30
f 400 30 31
f 401 197 196
f 401 198 197
f 401 196 396
f 401 396 392
f 402 397 393
f 402 393 398
f 403 389 394
f 403 398 389
f 403 394 399
f 404 390 395
f 404 399 390
f 405 31 32
f 405 400 31
f 405 32 33
f 406 199 198
f 406 200 199
f 406 392 397
f 406 401 392
f 406 198 401
f 407 402 398
f 408 403 399
f 408 399 404
f 409 395 400
f 409 404 395
f 410 405 33
f 410 33 34
f 410 34 35
f 411 201 200
f 411 202 201
f 411 397 402
f 411 200 406
f 411 406 397
f 412 398 403
f 412 407 398
f 413 408 404
f 414 409 400
f 414 400 405
f 415 410 35
f 415 35 36
f 415 36 37
f 416 202 411
f 416 203 202
f 416 402 407
f 416 411 402
f 417 412 403
f 417 403 408
f 418 404 409
f 418 413 404
f 419 405 410
f 419 414 405
f 419 410 415
f 420 415 37
f 420 37 38
f 420 38 39
f 421 416 407
f 421 204 203
f 421 205 204
f 421 407 412
f 421 412 417
f 421 203 416
f 422 417 408
f 422 408 413
f 422 413 418
f 423 409 414
f 423 414 419
f 423 418 409
f 424 419 415
f 424 415 420
f 425 420 39
f 425 39 40
f 425 40 41
f 426 206 205
f 426 421 417
f 426 207 206
f 426 205 421
f 427 422 418
f 428 423 419
f 429 424 420
f 430 425 41
f 430 41 42
f 430 42 43
f 431 417 422
f 431 426 417
f 431 208 207
f 431 209 208
f 431 207 426
f 431 422 427
f 432 418 423
f 432 423 428
f 432 427 418
f 433 419 424
f 433 428 419
f 434 420 425
f 434 429 420
f 435 430 43
f 435 45 341
f 435 43 44
f 435 44 45
f 436 210 209
f 436 211 210
f 436 431 427
f 436 209 431
f 436 427 432
f 437 432 428
f 438 424 429
f 438 433 424
f 439 434 425
f 439 425 430
f 440 212 211
f 440 213 212
f 440 211 436
f 440 436 432
f 441 437 428
f 441 428 433
f 441 433 438
f 442 429 434
f 442 438 429
f 443 430 435
f 443 439 430
f 443 435 341
f 443 341 342
f 444 214 213
f 444 215 214
f 444 213 440
f 444 432 437
f 444 440 432
f 445 441 438
f 446 434 439
f 446 442 434
f 447 215 444
f 447 216 215
f 447 217 216
f 447 437 441
f 447 444 437
f 447 441 445
f 448 438 442
f 448 445 438
f 449 439 443
f 449 446 439
f 449 443 342
f 449 342 343
f 450 447 445
f 450 218 217
f 450 219 218
f 450 217 447
f 451 448 442
f 451 442 446
f 452 220 219
f 452 221 220
f 452 219 450
f 452 445 448
f 452 450 445
f 453 449 343
f 453 451 446
f 453 446 449
f 453 343 344
f 454 452 448
f 454 222 221
f 454 223 222
f 454 221 452
f 454 448 451
f 455 344 345
f 455 345 225
f 455 453 344
f 455 454 451
f 455 451 453
f 455 223 454
f 455 224 223
f 455 225 224
f 90 136 46
f 90 180 136
f 89 180 90
f 89 179 180
f 88 179 89
f 88 178 179
f 87 178 88
f 87 177 178
f 86 177 87
f 86 175 176
f 86 176 177
f 85 175 86
f 84 175 85
f 84 174 175
f 83 174 84
f 83 172 173
f 83 173 174
f 82 172 83
f 82 171 172
f 81 171 82
f 80 171 81
f 80 170 171
f 79 170 80
f 79 169 170
f 78 169 79
f 78 168 169
f 77 168 78
f 77 167 168
f 76 167 77
f 76 166 167
f 75 166 76
f 75 165 166
f 74 165 75
f 74 164 165
f 73 164 74
f 73 163 164
f 72 162 163
f 72 163 73
f 71 161 162
f 71 162 72
f 70 160 161
f 70 161 71
f 69 159 160
f 69 160 70
f 68 157 158
f 68 158 159
f 68 159 69
f 67 156 157
f 67 157 68
f 66 156 67
f 65 156 66
f 65 155 156
f 64 155 65
f 64 154 155
f 63 154 64
f 63 153 154
f 62 153 63
f 62 152 153
f 61 152 62
f 61 151 152
f 60 151 61
f 60 150 151
f 59 150 60
f 59 149 150
f 58 149 59
f 58 148 149
f 57 148 58
f 57 146 147
f 57 147 148
f 56 146 57
f 55 146 56
f 55 145 146
f 54 145 55
f 54 143 144
f 54 144 145
f 53 143 54
f 53 142 143
f 52 142 53
f 52 141 142
f 51 141 52
f 50 140 141
f 50 141 51
f 49 138 139
f 49 139 140
f 49 140 50
f 48 137 138
f 48 138 49
f 47 137 48
f 46 136 137
f 46 137 47

