# https://github.com/mikedh/trimesh
v 11.11503519 -18.75000000 -1.56496011
v 11.11503519 -18.75000000 1.56503989
v 7.98503519 -18.75000000 1.56503989
v 7.98503519 -18.75000000 -1.56496011
v 5.92364738 -25.23316452 0.90720081
v 6.45928921 -25.02077275 2.28698423
v 10.12570865 -25.19989563 3.72370094
v 11.99736510 -25.19331447 2.87034666
v 13.14183873 -25.19409475 1.15361558
v 12.46047524 -20.25000271 -2.66526848
v 13.08823670 -20.25000550 1.60502834
v 8.10469792 -25.23279152 -3.49573307
v 6.10852339 -25.15313831 -1.67862658
v 10.84979603 -25.15900369 -3.59475817
v 13.09621104 -25.21984259 -1.42297781
v 8.07410099 -25.19174122 3.47019231
v 7.87928486 -25.26746144 1.67079022
v 11.22344694 -25.27367143 1.71681634
v 11.26937929 -25.27795084 -1.71930421
v 7.83435143 -25.27185029 -1.67259137
v -3.14996481 -21.07500000 -1.67496011
v -2.91684987 -21.07500000 -1.65865913
v -2.68827224 -21.07500000 -1.61007345
v -2.46868094 -21.07500000 -1.53014876
v -2.26235005 -21.07500000 -1.42044067
v -2.07329557 -21.07500000 -1.28308456
v -1.90519723 -21.07500000 -1.12075388
v -1.76132688 -21.07500000 -0.93660823
v -1.64448479 -21.07500000 -0.73423178
v -1.55694515 -21.07500000 -0.51756358
v -1.50041183 -21.07500000 -0.29082081
v -1.47598518 -21.07500000 -0.05841677
v -1.48414064 -21.07500000 0.17512506
v -1.52471947 -21.07500000 0.40525906
v -1.59693186 -21.07500000 0.62750593
v -1.69937226 -21.07500000 0.83753989
v -1.83004680 -21.07500000 1.03127286
v -1.98641204 -21.07500000 1.20493405
v -2.16542452 -21.07500000 1.35514335
v -2.36359995 -21.07500000 1.47897710
v -2.57708107 -21.07500000 1.57402503
v -2.80171273 -21.07500000 1.63843712
v -3.03312272 -21.07500000 1.67095967
v -3.26680691 -21.07500000 1.67095967
v -3.49821689 -21.07500000 1.63843712
v -3.72284855 -21.07500000 1.57402503
v -3.93632968 -21.07500000 1.47897710
v -4.13450511 -21.07500000 1.35514335
v -4.31351758 -21.07500000 1.20493405
v -4.46988283 -21.07500000 1.03127286
v -4.60055736 -21.07500000 0.83753989
v -4.70299777 -21.07500000 0.62750593
v -4.77521015 -21.07500000 0.40525906
v -4.81578899 -21.07500000 0.17512506
v -4.82394445 -21.07500000 -0.05841677
v -4.79951780 -21.07500000 -0.29082081
v -4.74298448 -21.07500000 -0.51756358
v -4.65544484 -21.07500000 -0.73423178
v -4.53860275 -21.07500000 -0.93660823
v -4.39473240 -21.07500000 -1.12075388
v -4.22663406 -21.07500000 -1.28308456
v -4.03757958 -21.07500000 -1.42044067
v -3.83124869 -21.07500000 -1.53014876
v -3.61165738 -21.07500000 -1.61007345
v -3.38307976 -21.07500000 -1.65865913
v -0.73819571 -40.12500000 -0.25344724
v -1.87512295 -40.12500000 2.04021333
v -4.11454816 -40.12500000 2.16652960
v -5.57189850 -40.12500000 0.25459538
v -4.58084261 -40.12500000 -1.88179719
v -2.37516689 -40.12500000 -2.28750184
v -3.14996481 -40.12500000 -1.67496011
v -2.91684987 -40.12500000 -1.65865913
v -2.68827224 -40.12500000 -1.61007345
v -2.46868094 -40.12500000 -1.53014876
v -2.26235005 -40.12500000 -1.42044067
v -2.07329557 -40.12500000 -1.28308456
v -1.90519723 -40.12500000 -1.12075388
v -1.76132688 -40.12500000 -0.93660823
v -1.64448479 -40.12500000 -0.73423178
v -1.55694515 -40.12500000 -0.51756358
v -1.50041183 -40.12500000 -0.29082081
v -1.47598518 -40.12500000 -0.05841677
v -1.48414064 -40.12500000 0.17512506
v -1.52471947 -40.12500000 0.40525906
v -1.59693186 -40.12500000 0.62750593
v -1.69937226 -40.12500000 0.83753989
v -1.83004680 -40.12500000 1.03127286
v -1.98641204 -40.12500000 1.20493405
v -2.16542452 -40.12500000 1.35514335
v -2.36359995 -40.12500000 1.47897710
v -2.57708107 -40.12500000 1.57402503
v -2.80171273 -40.12500000 1.63843712
v -3.03312272 -40.12500000 1.67095967
v -3.26680691 -40.12500000 1.67095967
v -3.49821689 -40.12500000 1.63843712
v -3.72284855 -40.12500000 1.57402503
v -3.93632968 -40.12500000 1.47897710
v -4.13450511 -40.12500000 1.35514335
v -4.31351758 -40.12500000 1.20493405
v -4.46988283 -40.12500000 1.03127286
v -4.60055736 -40.12500000 0.83753989
v -4.70299777 -40.12500000 0.62750593
v -4.77521015 -40.12500000 0.40525906
v -4.81578899 -40.12500000 0.17512506
v -4.82394445 -40.12500000 -0.05841677
v -4.79951780 -40.12500000 -0.29082081
v -4.74298448 -40.12500000 -0.51756358
v -4.65544484 -40.12500000 -0.73423178
v -4.53860275 -40.12500000 -0.93660823
v -4.39473240 -40.12500000 -1.12075388
v -4.22663406 -40.12500000 -1.28308456
v -4.03757958 -40.12500000 -1.42044067
v -3.83124869 -40.12500000 -1.53014876
v -3.61165738 -40.12500000 -1.61007345
v -3.38307976 -40.12500000 -1.65865913
v -2.92735089 -39.07500000 -2.40487217
v -0.98104077 -39.07500000 -0.99881866
v -1.25724025 -39.07500000 1.54920628
v -3.64471150 -39.07500000 2.32764003
v -5.45632803 -39.07500000 0.74942275
v -4.98071862 -39.07500000 -1.49564141
v -15.84996481 -21.07500000 -1.67496011
v -15.61684987 -21.07500000 -1.65865913
v -15.38827224 -21.07500000 -1.61007345
v -15.16868094 -21.07500000 -1.53014876
v -14.96235005 -21.07500000 -1.42044067
v -14.77329557 -21.07500000 -1.28308456
v -14.60519723 -21.07500000 -1.12075388
v -14.46132688 -21.07500000 -0.93660823
v -14.34448479 -21.07500000 -0.73423178
v -14.25694515 -21.07500000 -0.51756358
v -14.20041183 -21.07500000 -0.29082081
v -14.17598518 -21.07500000 -0.05841677
v -14.18414064 -21.07500000 0.17512506
v -14.22471947 -21.07500000 0.40525906
v -14.29693186 -21.07500000 0.62750593
v -14.39937226 -21.07500000 0.83753989
v -14.53004680 -21.07500000 1.03127286
v -14.68641204 -21.07500000 1.20493405
v -14.86542452 -21.07500000 1.35514335
v -15.06359995 -21.07500000 1.47897710
v -15.27708107 -21.07500000 1.57402503
v -15.50171273 -21.07500000 1.63843712
v -15.73312272 -21.07500000 1.67095967
v -15.96680691 -21.07500000 1.67095967
v -16.19821689 -21.07500000 1.63843712
v -16.42284855 -21.07500000 1.57402503
v -16.63632968 -21.07500000 1.47897710
v -16.83450511 -21.07500000 1.35514335
v -17.01351758 -21.07500000 1.20493405
v -17.16988283 -21.07500000 1.03127286
v -17.30055736 -21.07500000 0.83753989
v -17.40299777 -21.07500000 0.62750593
v -17.47521015 -21.07500000 0.40525906
v -17.51578899 -21.07500000 0.17512506
v -17.52394445 -21.07500000 -0.05841677
v -17.49951780 -21.07500000 -0.29082081
v -17.44298448 -21.07500000 -0.51756358
v -17.35544484 -21.07500000 -0.73423178
v -17.23860275 -21.07500000 -0.93660823
v -17.09473240 -21.07500000 -1.12075388
v -16.92663406 -21.07500000 -1.28308456
v -16.73757958 -21.07500000 -1.42044067
v -16.53124869 -21.07500000 -1.53014876
v -16.31165738 -21.07500000 -1.61007345
v -16.08307976 -21.07500000 -1.65865913
v -13.87222010 -40.12500256 1.25792081
v -15.28824870 -40.12500435 2.29622570
v -16.86950103 -40.12500281 2.09207496
v -18.16895983 -40.12500932 0.67213157
v -17.58088808 -40.12500633 -1.64388774
v -15.38558797 -40.12503735 -2.35355426
v -13.56508400 -40.12498066 -0.75848857
v -14.17496481 -40.12500000 0.00003989
v -14.19102734 -40.12500000 0.23145178
v -14.23890686 -40.12500000 0.45842539
v -14.31768508 -40.12500000 0.67660757
v -14.42585111 -40.12500000 0.88181376
v -14.56133041 -40.12500000 1.07010829
v -14.72152461 -40.12500000 1.23787982
v -14.90336132 -40.12500000 1.38191066
v -15.10335307 -40.12500000 1.49943840
v -15.31766419 -40.12500000 1.58820897
v -15.54218437 -40.12500000 1.64651983
v -15.77260752 -40.12500000 1.67325262
v -16.00451431 -40.12500000 1.66789463
v -16.23345698 -40.12500000 1.63054863
v -16.45504460 -40.12500000 1.56193087
v -16.66502731 -40.12500000 1.46335739
v -16.85937783 -40.12500000 1.33671874
v -17.03436867 -40.12500000 1.18444374
v -17.18664367 -40.12500000 1.00945290
v -17.31328232 -40.12500000 0.81510239
v -17.41185580 -40.12500000 0.60511968
v -17.48047355 -40.12500000 0.38353206
v -17.51781956 -40.12500000 0.15458939
v -17.52317755 -40.12500000 -0.07731741
v -17.49644475 -40.12500000 -0.30774056
v -17.43813390 -40.12500000 -0.53226074
v -17.34936333 -40.12500000 -0.74657186
v -17.23183558 -40.12500000 -0.94656361
v -17.08780475 -40.12500000 -1.12840032
v -16.92003321 -40.12500000 -1.28859452
v -16.73173869 -40.12500000 -1.42407382
v -16.52653250 -40.12500000 -1.53223984
v -16.30835032 -40.12500000 -1.61101807
v -16.08137671 -40.12500000 -1.65889759
v -15.84996481 -40.12500000 -1.67496011
v -15.63133344 -40.12500000 -1.66063026
v -15.41644291 -40.12500000 -1.61788587
v -15.20897006 -40.12500000 -1.54745833
v -15.01246481 -40.12500000 -1.45055267
v -14.83028942 -40.12500000 -1.32882696
v -14.66556095 -40.12500000 -1.18436397
v -14.52109797 -40.12500000 -1.01963551
v -14.39937226 -40.12500000 -0.83746011
v -14.30246660 -40.12500000 -0.64095486
v -14.23203905 -40.12500000 -0.43348201
v -14.18929467 -40.12500000 -0.21859149
v -14.73802146 -39.07501372 -2.14989601
v -13.41775713 -39.07496378 0.23795787
v -15.30684169 -39.07498763 2.38474586
v -17.58071955 -39.07499824 1.61042463
v -18.20872495 -39.07500051 -0.37048410
v -17.00204446 -39.07500317 -2.06402233
v 14.74251233 24.27460000 0.12798622
v 13.88951118 24.28655294 -1.51730380
v 12.68544164 24.28476000 -3.38319051
v 10.41924666 24.28476000 -4.52374573
v 7.89221140 24.28614545 -4.29880419
v 5.86310104 24.28548571 -2.77590664
v 5.05542954 24.28241538 -0.91897868
v 5.04078250 24.28614545 0.85932412
v 5.32081247 24.28730000 1.76906312
v 5.60284801 24.28476000 2.33734027
v 6.22564913 24.28241538 3.19899221
v 7.69293955 24.27460000 4.22540908
v 9.53605352 24.27460000 4.62919141
v 9.55052916 24.27460000 3.83398343
v 13.35986983 24.27968000 -0.04689442
v 13.15329441 24.28548571 -1.34749390
v 9.94551356 24.28548571 -3.81070754
v 6.30297545 24.28548571 -2.05309683
v 5.69609407 24.28548571 -0.04080553
v 6.23500275 24.28548571 1.99074527
v 12.81232511 24.27460000 -0.11614947
v 13.39159541 24.27460000 1.84543014
v 13.39159541 24.30000000 1.84543014
v 14.74251233 24.30000000 0.12798622
v 12.81232511 24.30000000 -0.11614947
v 11.89836984 24.28548571 -3.03355016
v 7.87524209 24.28476000 -3.44794409
v 7.75950264 24.28476000 3.43764590
v 9.53370326 24.29153333 3.86280562
v 9.55052916 24.30000000 4.59598343
v 14.12245762 24.30000000 0.04955990
v 14.13886401 24.28476000 0.04169319
v 4.98303292 24.30000000 0.22686790
v 6.16874130 24.30000000 3.10078288
v 7.14112352 24.30000000 3.90959129
v 7.70173808 24.30000000 4.20550893
v 8.54852925 24.30000000 4.49504719
v 7.64552916 24.27460000 -0.35701657
v 9.16952916 24.27460000 -0.35701657
v 7.64552916 24.27460000 0.40498343
v 9.16952916 24.27460000 0.40498343
v 9.16952916 24.27460000 1.92898343
v 9.93152916 24.27460000 1.92898343
v 9.93152916 24.27460000 0.40498343
v 11.45552916 24.27460000 0.40498343
v 11.45552916 24.27460000 -0.35701657
v 9.93152916 24.27460000 -0.35701657
v 9.93152916 24.27460000 -1.88101657
v 9.16952916 24.27460000 -1.88101657
v 9.16952916 24.30000000 -1.88101657
v 9.16952916 24.30000000 -0.35701657
v 9.93152916 24.30000000 -1.88101657
v 9.93152916 24.30000000 -0.35701657
v 11.45552916 24.30000000 -0.35701657
v 11.45552916 24.30000000 0.40498343
v 9.93152916 24.30000000 0.40498343
v 9.93152916 24.30000000 1.92898343
v 9.16952916 24.30000000 1.92898343
v 9.16952916 24.30000000 0.40498343
v 7.64552916 24.30000000 0.40498343
v 7.64552916 24.30000000 -0.35701657
v -14.43551436 24.27460000 -0.42262478
v -11.98608876 24.27460000 1.21912396
v -11.88231950 24.27460000 -2.31529352
v -13.36911234 24.27460000 -2.31529352
v -15.30577699 24.27460000 -1.01722725
v -17.24244165 24.27460000 -2.31529352
v -18.72923449 24.27460000 -2.31529352
v -16.17603963 24.27460000 -0.42262478
v -18.62546523 24.27460000 1.21912396
v -17.09424644 24.27460000 1.37071485
v -15.30577699 24.27460000 0.17197770
v -13.51730755 24.27460000 1.37071485
v -12.03190822 24.27460000 1.37071485
v -16.17603963 24.30000000 -0.42262478
v -18.77505395 24.30000000 -2.16463666
v -18.82028038 24.28845455 -2.26068742
v -17.24244165 24.30000000 -2.31529352
v -15.30577699 24.30000000 -1.01722725
v -13.36911234 24.30000000 -2.31529352
v -11.83650004 24.30000000 -2.16463666
v -11.78947762 24.28790476 -2.26123363
v -14.43551436 24.30000000 -0.42262478
v -11.93944286 24.29576667 1.31449252
v -13.51730755 24.30000000 1.37071485
v -15.30577699 24.30000000 0.17197770
v -17.09424644 24.30000000 1.37071485
v -18.57964576 24.30000000 1.37071485
v -18.62546523 24.30000000 1.21912396
v -18.65679172 24.28306667 1.33555634
v -18.65703028 24.30000000 1.26041404
v -7.69938740 24.27460000 3.83846559
v -7.85143662 24.27460000 3.85690648
v -11.32391322 24.28525161 -0.85595093
v -7.85143662 24.27460000 -0.09718299
v -7.85143662 24.27460000 0.88820217
v -7.61999085 24.28764324 0.60231314
v -7.66828144 24.28548571 0.09836267
v -11.08826487 24.28349000 1.87032760
v -7.85143662 24.27460000 1.88508372
v -7.85143662 24.27460000 2.87798852
v -7.60087436 24.28666500 2.51764722
v -7.76834821 24.28925385 1.94714411
v -11.14163073 24.27460000 2.93105196
v -11.13108702 24.27460000 3.81255009
v -7.79744652 24.30000000 3.85452729
v -11.05582408 24.30000000 3.85690648
v -11.05582408 24.30000000 2.87798852
v -11.35022468 24.29249545 3.35179164
v -7.84538304 24.30000000 2.87641791
v -11.05626846 24.30000000 1.88508372
v -11.05626846 24.30000000 0.88820217
v -11.33041563 24.28627027 1.44937880
v -11.14070209 24.28796842 0.94558468
v -7.84558409 24.30000000 0.88675803
v -7.85143662 24.30000000 -0.09718299
v -11.05582408 24.30000000 -0.09718299
v -11.11181621 24.28655294 -0.12966716
v -7.58060158 24.28888750 -1.03625288
v -6.98799125 24.28403429 -0.03789932
v -7.20450102 24.28580588 1.38664294
v -6.97756437 24.28412500 2.54051405
v -7.37983738 24.28773793 3.63665749
v -7.64081565 24.30000000 3.81466783
v -7.70895490 24.30000000 3.83799681
v -2.93621403 24.27460000 -1.39946325
v -5.21349562 24.27460000 1.37071485
v -0.72349429 24.27460000 1.37071485
v 0.57019344 24.27460000 1.37071485
v -2.29865805 24.27460000 -2.31529352
v -3.57218133 24.27460000 -2.31529352
v -6.55822741 24.27460000 1.23545115
v -5.21349562 24.30000000 1.37071485
v -6.49524286 24.30000000 1.37071485
v -6.58024202 24.29032381 1.32799808
v -3.57218133 24.30000000 -2.31529352
v -2.29865805 24.30000000 -2.31529352
v 0.63365264 24.30000000 1.23602075
v 0.57019344 24.30000000 1.37071485
v 0.65658830 24.28790476 1.31874231
v -0.72349429 24.30000000 1.37071485
v -2.93621403 24.30000000 -1.39946325
v 8.62075850 -20.25000729 3.76856428
v 6.42283066 -20.25000724 2.39921604
v 5.66996944 -20.25001058 0.27780032
v 6.09844962 -20.25001560 -1.77022737
v 7.47203309 -20.25000493 -3.28681164
v 9.82496059 -20.25000302 -3.90103338
v 13.40363347 -20.25000242 -0.33675214
v 11.23172297 -20.25000632 3.56997258
v 7.75721014 -25.25000000 3.55662864
v 5.82109229 -25.25000000 1.29922884
v 6.02216136 -25.25000000 -1.93362193
v 8.64774400 -25.25000000 -3.84427770
v 12.09482729 -25.25000000 -3.17508387
v 13.49844411 -25.25000000 0.05457517
v 12.49234164 -25.25000000 2.64930451
v 10.36363813 -25.25000000 3.82774087
v -20.60877075 -25.25000000 4.05173904
v -22.03433191 -25.25206196 1.65957345
v -21.68535016 -25.25043616 -2.41673260
v -20.60877075 -25.25000000 -4.05165927
v -20.38577077 -25.25000000 4.29991946
v -20.14984439 -25.25000000 4.53584584
v -11.79826566 -25.25000000 4.75884582
v -15.00670712 -25.25618119 6.44123761
v -19.89815797 -25.25928208 4.84280346
v -11.55008524 -25.25000000 4.53584584
v -11.31415886 -25.25000000 4.29991946
v -11.09115888 -25.25000000 4.05173904
v -9.45865702 -24.27992435 4.08016888
v -12.37511111 -24.30142742 6.45707606
v -16.82764761 -24.30106064 7.22529157
v -20.50016636 -24.30041191 5.59684717
v -22.72297774 -24.30082919 2.39694629
v -22.98214496 -24.30072358 -1.45559422
v -21.21746189 -24.30047570 -4.90786376
v -16.84260634 -24.30357942 -7.33460922
v -11.99167165 -24.30056655 -6.17692658
v -11.09115888 -25.25000000 -4.05165927
v -11.31415886 -25.25000000 -4.29983969
v -11.55008524 -25.25000000 -4.53576607
v -12.01166782 -25.27558994 -5.15090244
v -19.89815796 -25.25928208 -4.84272370
v -16.66503462 -25.25054133 -6.25073360
v -20.14984439 -25.25000000 -4.53576607
v -20.38577077 -25.25000000 -4.29983969
v -5.61521262 -39.07515130 4.43930388
v -7.98696308 -39.07522840 1.71511381
v -7.74204366 -39.07522145 -2.31663615
v -5.27572412 -39.07505922 -4.57506077
v -6.18446441 -25.24999032 4.13938009
v -6.70631635 -36.83772721 3.55861969
v -7.08022850 -25.24999300 3.19421953
v -8.18468785 -25.24998906 0.54107931
v -8.12490200 -37.07500000 0.50003989
v -8.14343381 -37.07503152 -0.49059689
v -8.18468785 -25.24998906 -0.54099953
v -7.08022850 -25.24999300 -3.19413975
v -6.70631635 -36.83772723 -3.55853991
v -6.18446442 -25.24998952 -4.13930031
v -24.89996481 -21.25504135 -12.69996011
v -24.89996481 21.25504135 -12.69996011
v -25.30601025 -21.23051105 -12.67634233
v -25.70558413 -21.22524957 -12.60683462
v -26.09419853 -21.23451365 -12.49345545
v -26.46736552 -21.25356002 -12.33822328
v -26.82059720 -21.27764540 -12.14315657
v -27.14940565 -21.30202654 -11.91027379
v -27.44931586 -21.32199345 -11.64160783
v -27.71662680 -21.33483449 -11.34005696
v -27.94883716 -21.34093534 -11.00986086
v -28.14354882 -21.34094817 -10.65537459
v -28.29836368 -21.33552510 -10.28095318
v -28.41088360 -21.32531829 -9.89095170
v -28.46121545 -21.31617816 -9.62444577
v -28.49097318 -21.30539498 -9.35424131
v -28.49996481 -21.30000000 -9.09996011
v -28.49940262 -21.30033732 -9.16358008
v -28.49771620 -21.30134917 -9.22718018
v -28.49490610 -21.30303523 -9.29074054
v -28.49996481 21.30000000 -9.09996011
v -28.49097318 21.30539498 -9.35424131
v -28.49490610 21.30303523 -9.29074054
v -28.49771620 21.30134917 -9.22718018
v -28.49940262 21.30033732 -9.16358008
v -28.43000161 21.32247333 -9.80255338
v -28.31334718 21.33463764 -10.23804588
v -28.14422089 21.34098951 -10.65481786
v -27.92583370 21.34063053 -11.04696838
v -27.66139661 21.33266227 -11.40859651
v -27.35412060 21.31618633 -11.73380129
v -27.00772269 21.29153892 -12.01719231
v -26.62794401 21.26399488 -12.25542125
v -26.22103171 21.24006364 -12.44565030
v -25.79323298 21.22625467 -12.58504166
v -25.35079495 21.22907742 -12.67075753
v -25.12603845 21.23875990 -12.69260035
v -28.49996481 21.30000000 9.10003989
v -28.49996481 -21.30000000 9.10003989
v -28.49097318 -21.30539498 9.35432108
v -28.49490610 -21.30303523 9.29082031
v -28.49771620 -21.30134917 9.22725995
v -28.49940262 -21.30033732 9.16365985
v -28.43000161 -21.32247333 9.80263315
v -28.31334718 -21.33463764 10.23812565
v -28.14422089 -21.34098951 10.65489763
v -27.92583370 -21.34063053 11.04704815
v -27.66139661 -21.33266227 11.40867628
v -27.35412060 -21.31618633 11.73388106
v -27.00772269 -21.29153892 12.01727209
v -26.62794401 -21.26399488 12.25550102
v -26.22103171 -21.24006364 12.44573007
v -25.79323298 -21.22625467 12.58512144
v -25.35079495 -21.22907742 12.67083731
v -25.12603845 -21.23875990 12.69268012
v -24.89996481 -21.25504135 12.70003989
v -24.89996481 21.25504135 12.70003989
v -25.30601025 21.23051105 12.67642210
v -25.70558413 21.22524957 12.60691439
v -26.09419853 21.23451365 12.49353522
v -26.46736552 21.25356002 12.33830305
v -26.82059720 21.27764540 12.14323635
v -27.14940565 21.30202654 11.91035357
v -27.44931586 21.32199345 11.64168760
v -27.71662680 21.33483449 11.34013673
v -27.94883716 21.34093534 11.00994064
v -28.14354882 21.34094817 10.65545436
v -28.29836368 21.33552510 10.28103296
v -28.41088360 21.32531829 9.89103148
v -28.46121545 21.31617816 9.62452554
v -28.49097318 21.30539498 9.35432108
v -28.49940262 21.30033732 9.16365985
v -28.49771620 21.30134917 9.22725995
v -28.49490610 21.30303523 9.29082031
v -24.30381973 21.29531342 12.70004013
v 23.90919921 21.30000000 12.70003989
v 24.90003519 21.25504135 12.70003989
v 24.64586306 21.27470098 12.70003989
v 24.39588970 21.28875288 12.70003989
v 24.15028082 21.29718776 12.70003989
v 24.90003519 -21.25504135 12.70003989
v 23.90919921 -21.30000000 12.70003989
v 24.15028082 -21.29718776 12.70003989
v 24.39588970 -21.28875288 12.70003989
v 24.64586306 -21.27470098 12.70003989
v -23.90912884 -21.30000000 12.70003989
v -24.37653076 -21.29049216 12.70004340
v -22.04996481 -10.30000000 12.70003989
v -24.04996481 -10.30000000 12.70003989
v -24.04996481 10.27400000 12.70003989
v -16.04996481 -10.30000000 12.70003989
v -18.54996481 10.27400000 12.70003989
v -18.04996481 -10.30000000 12.70003989
v -10.04996481 -10.30000000 12.70003989
v -12.54996481 10.27400000 12.70003989
v -12.04996481 -10.30000000 12.70003989
v -4.04996481 -10.30000000 12.70003989
v -6.54996481 10.27400000 12.70003989
v -6.04996481 -10.30000000 12.70003989
v 1.95003519 10.27400000 12.70003989
v 1.95003519 -10.30000000 12.70003989
v -0.71663148 -10.30000000 12.70003989
v -0.38329814 10.27400000 12.70003989
v -3.54996481 10.27400000 12.70003989
v -3.04996481 -10.30000000 12.70003989
v -7.04996481 -10.30000000 12.70003989
v -9.54996481 10.27400000 12.70003989
v -9.04996481 -10.30000000 12.70003989
v -13.04996481 -10.30000000 12.70003989
v -15.54996481 10.27400000 12.70003989
v -15.04996481 -10.30000000 12.70003989
v -19.04996481 -10.30000000 12.70003989
v -21.54996481 10.27400000 12.70003989
v -21.04996481 -10.30000000 12.70003989
v 25.30608063 -21.23051105 12.67642210
v 25.70565450 -21.22524957 12.60691439
v 26.09426890 -21.23451365 12.49353522
v 26.46743590 -21.25356002 12.33830305
v 26.82066758 -21.27764540 12.14323635
v 27.14947603 -21.30202654 11.91035357
v 27.44938623 -21.32199345 11.64168760
v 27.71669717 -21.33483449 11.34013673
v 27.94890753 -21.34093534 11.00994064
v 28.14361920 -21.34094817 10.65545436
v 28.29843405 -21.33552510 10.28103296
v 28.41095398 -21.32531829 9.89103148
v 28.46128583 -21.31617816 9.62452554
v 28.49104355 -21.30539498 9.35432108
v 28.50003519 -21.30000000 9.10003989
v 28.49947299 -21.30033732 9.16365985
v 28.49778658 -21.30134917 9.22725995
v 28.49497647 -21.30303523 9.29082031
v 28.50003519 21.30000000 9.10003989
v 28.49104355 21.30539498 9.35432108
v 28.49497647 21.30303523 9.29082031
v 28.49778658 21.30134917 9.22725995
v 28.49947299 21.30033732 9.16365985
v 28.43007198 21.32247333 9.80263315
v 28.31341756 21.33463764 10.23812565
v 28.14429126 21.34098951 10.65489763
v 27.92590408 21.34063053 11.04704815
v 27.66146699 21.33266227 11.40867628
v 27.35419098 21.31618633 11.73388106
v 27.00779307 21.29153892 12.01727209
v 26.62801438 21.26399488 12.25550102
v 26.22110209 21.24006364 12.44573007
v 25.79330335 21.22625467 12.58512144
v 25.35086533 21.22907742 12.67083731
v 25.12610883 21.23875990 12.69268012
v 28.50003519 21.30000000 -9.09996011
v 28.50003519 -21.30000000 -9.09996011
v 28.50003519 17.30000000 -4.24996011
v 28.50003519 17.30000000 4.25003989
v 28.50003519 17.28000000 4.25003989
v 28.50003519 16.98588171 -3.97746011
v 28.50003519 16.83882256 3.91503989
v 28.50003519 10.00882256 3.91503989
v 28.50003519 10.00882256 2.81503989
v 28.50003519 8.31882256 2.81503989
v 28.50003519 8.31882256 1.53503989
v 28.50003519 6.81882256 1.53503989
v 28.50003519 6.81882256 -1.53496011
v 28.50003519 8.31882256 -1.53496011
v 28.50003519 8.31882256 -2.81496011
v 28.50003519 10.00882256 -3.25996011
v 28.49104355 -21.30539498 -9.35424131
v 28.49497647 -21.30303523 -9.29074054
v 28.49778658 -21.30134917 -9.22718018
v 28.49947299 -21.30033732 -9.16358008
v 28.43007198 -21.32247333 -9.80255338
v 28.31341756 -21.33463764 -10.23804588
v 28.14429126 -21.34098951 -10.65481786
v 27.92590408 -21.34063053 -11.04696838
v 27.66146699 -21.33266227 -11.40859651
v 27.35419098 -21.31618633 -11.73380129
v 27.00779307 -21.29153892 -12.01719231
v 26.62801438 -21.26399488 -12.25542125
v 26.22110209 -21.24006364 -12.44565030
v 25.79330335 -21.22625467 -12.58504166
v 25.35086533 -21.22907742 -12.67075753
v 25.12610883 -21.23875990 -12.69260035
v 24.90003519 -21.25504135 -12.69996011
v 24.90003519 21.25504135 -12.69996011
v 25.30608063 21.23051105 -12.67634233
v 25.70565450 21.22524957 -12.60683462
v 26.09426890 21.23451365 -12.49345545
v 26.46743590 21.25356002 -12.33822328
v 26.82066758 21.27764540 -12.14315657
v 27.14947603 21.30202654 -11.91027379
v 27.44938623 21.32199345 -11.64160783
v 27.71669717 21.33483449 -11.34005696
v 27.94890753 21.34093534 -11.00986086
v 28.14361920 21.34094817 -10.65537459
v 28.29843405 21.33552510 -10.28095318
v 28.41095398 21.32531829 -9.89095170
v 28.46128583 21.31617816 -9.62444577
v 28.49104355 21.30539498 -9.35424131
v 28.49947299 21.30033732 -9.16358008
v 28.49778658 21.30134917 -9.22718018
v 28.49497647 21.30303523 -9.29074054
v 24.64586306 -21.27470098 -12.69996011
v 24.39588970 -21.28875288 -12.69996011
v 24.15028082 -21.29718776 -12.69996011
v 23.90919921 -21.30000000 -12.69996011
v -23.90912884 -21.30000000 -12.69996011
v -24.37888726 -21.29116105 -12.69995990
v -24.26851903 21.29642197 -12.69996184
v 23.90919921 21.30000000 -12.69996011
v 24.15028082 21.29718776 -12.69996011
v 24.39588970 21.28875288 -12.69996011
v 24.64586306 21.27470098 -12.69996011
v -24.04996481 -10.30000000 -12.69996011
v -24.04996481 10.27400000 -12.69996011
v -22.04996481 -10.30000000 -12.69996011
v -21.54996481 10.27400000 -12.69996011
v -19.04996481 -10.30000000 -12.69996011
v -21.04996481 -10.30000000 -12.69996011
v -18.54996481 10.27400000 -12.69996011
v -16.04996481 -10.30000000 -12.69996011
v -18.04996481 -10.30000000 -12.69996011
v -15.54996481 10.27400000 -12.69996011
v -13.04996481 -10.30000000 -12.69996011
v -15.04996481 -10.30000000 -12.69996011
v -12.54996481 10.27400000 -12.69996011
v -10.04996481 -10.30000000 -12.69996011
v -12.04996481 -10.30000000 -12.69996011
v -9.54996481 10.27400000 -12.69996011
v -7.04996481 -10.30000000 -12.69996011
v -9.04996481 -10.30000000 -12.69996011
v -6.54996481 10.27400000 -12.69996011
v -4.04996481 -10.30000000 -12.69996011
v -6.04996481 -10.30000000 -12.69996011
v -3.54996481 10.27400000 -12.69996011
v -1.04996481 -10.30000000 -12.69996011
v -3.04996481 -10.30000000 -12.69996011
v -0.54996481 10.27400000 -12.69996011
v 1.95003519 -10.30000000 -12.69996011
v -0.04996481 -10.30000000 -12.69996011
v 1.95003519 10.27400000 -12.69996011
v 17.85003519 17.28000000 4.25003989
v 17.85003519 17.28000000 -4.24996011
v 18.45003519 10.00882256 -3.25996011
v 18.45003519 8.31882256 -2.81496011
v 18.45003519 8.31882256 -1.53496011
v 18.45003519 6.81882256 -1.53496011
v 18.45003519 6.81882256 1.53503989
v 18.45003519 8.31882256 1.53503989
v 18.45003519 8.31882256 2.81503989
v 18.45003519 10.00882256 3.36503989
v 18.45003519 16.83882256 3.91503989
v 18.45003519 16.83882256 -3.70496011
v 17.85003519 17.30000000 -4.24996011
v -10.81010777 -25.24998998 0.52108877
v -11.91970112 -25.24999300 3.19421954
v -7.90770448 -25.24934849 4.04285471
v -10.54508279 -25.24864419 3.50291321
v -12.29361327 -36.83772720 3.55861969
v -12.74774476 -25.24999357 4.05427574
v -13.77843062 -39.07505555 4.60851133
v -13.38471703 -39.07515130 -4.43922411
v -11.01296654 -39.07521571 -1.71503404
v -11.25788595 -39.07523448 2.31671588
v -12.81546520 -25.24998952 -4.13930031
v -12.29361327 -36.83772722 -3.55853991
v -11.91970112 -25.24999300 -3.19413976
v -10.81010777 -25.24998998 -0.52100899
v -10.81912689 -37.07489190 0.00003989
v -11.09115888 -33.07500000 4.05173904
v -11.79826566 -33.07500000 4.75884582
v -11.79826566 -33.07500000 -4.75876605
v -11.09115888 -33.07500000 -4.05165927
v -19.90404564 -25.24999386 -3.10192278
v -19.40763291 -36.83661717 -3.55762821
v -20.60877075 -33.07500000 -4.05165927
v -19.90166397 -33.07500000 -4.75876605
v -18.88416910 -25.24999047 4.13929456
v -19.40763291 -36.83661715 3.55770799
v -19.90166397 -33.07500000 4.75884582
v -20.60877075 -33.07500000 4.05173904
v 0.72140040 -25.25000000 3.16429832
v 1.60884112 -25.25000000 4.05173904
v 0.40705418 -36.83648438 3.55851688
v 1.60884112 -33.07500000 4.05173904
v 0.90173434 -33.07500000 4.75884582
v 0.89815888 -25.25933021 4.84328325
v 0.72140040 -25.25000000 -3.16421854
v 1.60884112 -33.07500000 -4.05165927
v 1.81575785 -25.23593619 -3.77782977
v -0.04774476 -25.24999357 -4.05419597
v 0.40705418 -36.83648440 -3.55843711
v -7.90877075 -25.25000000 -4.05165927
v -7.90877075 -33.07500000 -4.05165927
v -7.20166397 -25.25000000 -4.75876605
v -7.20166397 -33.07500000 -4.75876605
v -7.90877075 -33.07500000 4.05173904
v -7.20166397 -25.25000000 4.75884582
v -7.20166397 -33.07500000 4.75884582
v -3.99519128 -25.25616301 -6.44070807
v -8.27713115 -25.24962542 -3.65424056
v 7.26018447 -25.25460572 -6.05496578
v 11.96051822 -25.25058448 -5.84221127
v 14.91853708 -25.25127011 -3.41464205
v 15.82052603 -25.25438655 1.60951056
v 12.94281488 -25.25058448 5.33214762
v 9.68134991 -25.25058448 6.31866975
v 6.16453093 -25.25133612 5.30875915
v 3.71686913 -25.24921774 3.28902731
v 2.29358981 -25.24698873 3.39545594
v 1.58221968 -25.25000405 -1.78337912
v 1.76492932 -25.25000654 1.37571808
v 3.80650739 -25.24344044 -3.24997127
v -0.04774476 -25.24999303 4.05427574
v -3.99519127 -25.25616301 6.44078785
v -1.07843062 -39.07505555 4.60851133
v -1.18837051 -39.07496588 -4.63464437
v 0.66942491 -39.07485616 -3.30104521
v 2.00984892 -39.07501188 0.00003989
v 0.80923041 -39.07502504 3.10719602
v -19.98921948 -25.24999121 3.03424419
v -18.95192748 -25.24999434 -4.05404094
v -20.42019832 -39.07505571 2.13975345
v -18.41006573 -39.07516461 4.39642852
v -23.49996481 -24.30000000 6.35971607
v -23.49996481 -24.30000000 -6.35963629
v -18.90912884 -24.30000000 9.70003989
v -20.00275223 -24.30000000 9.63477107
v -22.92481082 -24.30004587 8.63205273
v 18.90919921 -24.30000000 9.70003989
v 23.50003519 -24.30000000 6.35971607
v 23.46582747 -24.30000000 6.86106411
v 22.62241536 -24.29997039 8.83451834
v 20.07270586 -24.30000000 9.62561989
v 19.50778765 -24.30000000 9.68141445
v 23.50003519 -24.30000000 -6.35963629
v 18.90919921 -24.30000000 -9.69996011
v 20.00282261 -24.30000000 -9.63469130
v 22.92489209 -24.30003931 -8.63197952
v -20.73097378 -24.30001686 -9.58790780
v -23.46575710 -24.30000000 -6.86098433
v -23.05738591 -24.30001474 -8.14475341
v -8.94291612 -24.29880833 -4.43004400
v -4.12072394 -24.30073022 -7.22616096
v 0.32754729 -24.30132164 -6.45538809
v 3.17103289 -24.28614169 -4.07769797
v 6.22440343 -24.30033616 -6.44560367
v 10.21012746 -24.30182887 -7.29935311
v 14.25766413 -24.30100994 -5.55341803
v 16.45693727 -24.30080798 -2.30220742
v 16.64830121 -24.30089774 1.61835285
v 14.77655572 -24.30073453 5.06859034
v 10.40901265 -24.30340345 7.33809968
v 5.65797568 -24.30067333 6.15304685
v 0.71046816 -24.30056198 6.17547374
v -3.14996481 -24.30094244 7.29067743
v -7.01042065 -24.30051876 6.17551074
v -9.81393025 -24.29619496 -4.17980783
v 23.50003519 24.30000000 6.35971607
v 23.50003519 24.30000000 -6.35963629
v -23.49996481 24.30000000 -6.35963629
v -23.49996481 24.30000000 6.35971607
v -10.16122457 -25.24257821 -3.24440985
v -8.99175413 -25.24891958 3.27506414
v 0.86589306 -25.26587937 -4.83243569
v -7.44984439 -25.25000000 -4.53576607
v -7.68577077 -25.25000000 -4.29983969
v -7.68577077 -25.25000000 4.29991946
v -7.44984439 -25.25000000 4.53584584
v 1.14991476 -25.25000000 4.53584584
v 1.38584114 -25.25000000 4.29991946
v 3.16823057 -24.28179098 4.06037033
v 18.90919921 24.30000000 9.70003989
v -18.90912884 24.30000000 9.70003989
v -18.90912884 24.30000000 -9.69996011
v 18.90919921 24.30000000 -9.69996011
v -23.46575710 24.30000000 6.86106411
v -23.21463772 24.30000898 7.79039001
v -21.31399412 24.30006350 9.47452349
v -20.00275223 24.30000000 -9.63469130
v -22.92482397 24.30003796 -8.63198088
v 23.46582747 24.30000000 -6.86098433
v 22.62241536 24.29997039 -8.83443857
v 20.07270586 24.30000000 -9.62554012
v 19.50778765 24.30000000 -9.68133467
v 20.00282261 24.30000000 9.63477107
v 22.92489210 24.30003931 8.63205929
v -17.93266541 -39.07505721 -4.60557638
v -20.33913744 -39.07519608 -2.44138936
v -7.68577077 -33.07500000 4.29991946
v -7.44984439 -33.07500000 4.53584584
v -7.44984439 -33.07500000 -4.53576607
v -7.68577077 -33.07500000 -4.29983969
v 0.91563050 -33.07499375 -4.76656543
v 1.14991476 -33.07500000 4.53584584
v 1.38584114 -33.07500000 4.29991946
v -20.38577077 -33.07500000 4.29991946
v -20.14984439 -33.07500000 4.53584584
v -20.14984439 -33.07500000 -4.53576607
v -20.38577077 -33.07500000 -4.29983969
v -11.31415886 -33.07500000 -4.29983969
v -11.55008524 -33.07500000 -4.53576607
v -11.55008524 -33.07500000 4.53584584
v -11.31415886 -33.07500000 4.29991946
v 17.85003519 17.30000000 4.25003989
v 1.95003519 -10.30000000 -8.94996011
v -0.04996481 -10.30000000 -8.94996011
v 1.95003519 10.27400000 -8.94996011
v -0.04996481 10.27400000 -8.94996011
v -1.04996481 -10.30000000 -8.94996011
v -3.04996481 -10.30000000 -8.94996011
v -1.04996481 10.27400000 -8.94996011
v -3.04996481 10.27400000 -8.94996011
v -4.04996481 -10.30000000 -8.94996011
v -6.04996481 -10.30000000 -8.94996011
v -4.04996481 10.27400000 -8.94996011
v -6.04996481 10.27400000 -8.94996011
v -7.04996481 -10.30000000 -8.94996011
v -9.04996481 -10.30000000 -8.94996011
v -7.04996481 10.27400000 -8.94996011
v -9.04996481 10.27400000 -8.94996011
v -10.04996481 -10.30000000 -8.94996011
v -12.04996481 -10.30000000 -8.94996011
v -10.04996481 10.27400000 -8.94996011
v -12.04996481 10.27400000 -8.94996011
v -13.04996481 -10.30000000 -8.94996011
v -15.04996481 -10.30000000 -8.94996011
v -13.04996481 10.27400000 -8.94996011
v -15.04996481 10.27400000 -8.94996011
v -16.04996481 -10.30000000 -8.94996011
v -18.04996481 -10.30000000 -8.94996011
v -16.04996481 10.27400000 -8.94996011
v -18.04996481 10.27400000 -8.94996011
v -19.04996481 -10.30000000 -8.94996011
v -21.04996481 -10.30000000 -8.94996011
v -19.04996481 10.27400000 -8.94996011
v -21.04996481 10.27400000 -8.94996011
v -24.04996481 -10.30000000 -8.94996011
v -24.04996481 10.27400000 -8.94996011
v -22.04996481 -10.30000000 -8.94996011
v -22.04996481 10.27400000 -8.94996011
v -0.04996481 -10.30000000 8.95003989
v 1.95003519 -10.30000000 8.95003989
v -0.04996481 10.27400000 8.95003989
v 1.95003519 10.27400000 8.95003989
v -3.04996481 -10.30000000 8.95003989
v -1.04996481 -10.30000000 8.95003989
v -3.04996481 10.27400000 8.95003989
v -1.04996481 10.27400000 8.95003989
v -6.04996481 -10.30000000 8.95003989
v -4.04996481 -10.30000000 8.95003989
v -6.04996481 10.27400000 8.95003989
v -4.04996481 10.27400000 8.95003989
v -9.04996481 -10.30000000 8.95003989
v -7.04996481 -10.30000000 8.95003989
v -9.04996481 10.27400000 8.95003989
v -7.04996481 10.27400000 8.95003989
v -12.04996481 -10.30000000 8.95003989
v -10.04996481 -10.30000000 8.95003989
v -12.04996481 10.27400000 8.95003989
v -10.04996481 10.27400000 8.95003989
v -15.04996481 -10.30000000 8.95003989
v -13.04996481 -10.30000000 8.95003989
v -15.04996481 10.27400000 8.95003989
v -13.04996481 10.27400000 8.95003989
v -18.04996481 -10.30000000 8.95003989
v -16.04996481 -10.30000000 8.95003989
v -18.04996481 10.27400000 8.95003989
v -16.04996481 10.27400000 8.95003989
v -21.04996481 -10.30000000 8.95003989
v -19.04996481 -10.30000000 8.95003989
v -21.04996481 10.27400000 8.95003989
v -19.04996481 10.27400000 8.95003989
v -24.04996481 10.27400000 8.95003989
v -24.04996481 -10.30000000 8.95003989
v -22.04996481 10.27400000 8.95003989
v -22.04996481 -10.30000000 8.95003989
f 2 3 4
f 2 4 1
f 14 374 10
f 15 14 10
f 15 10 375
f 9 15 375
f 9 375 11
f 8 9 11
f 8 11 376
f 7 8 376
f 7 376 369
f 16 7 369
f 16 369 370
f 6 16 370
f 5 6 370
f 5 370 371
f 13 5 371
f 13 371 372
f 13 372 373
f 12 13 373
f 12 373 374
f 14 12 374
f 16 6 5
f 20 13 12
f 5 13 20
f 19 12 14
f 19 14 15
f 19 20 12
f 17 5 20
f 16 5 17
f 7 16 17
f 18 7 17
f 18 19 15
f 9 18 15
f 8 7 18
f 8 18 9
f 1 19 18
f 1 18 2
f 1 4 20
f 1 20 19
f 4 17 20
f 4 3 17
f 2 17 3
f 2 18 17
f 56 57 58
f 56 58 59
f 53 54 55
f 53 55 56
f 53 59 60
f 53 60 61
f 53 61 62
f 53 56 59
f 23 21 22
f 25 23 24
f 50 51 52
f 50 52 53
f 47 48 49
f 46 49 50
f 46 47 49
f 30 26 27
f 30 27 28
f 30 28 29
f 31 26 30
f 42 43 44
f 41 42 44
f 41 44 45
f 41 45 46
f 41 53 62
f 41 50 53
f 41 46 50
f 35 32 33
f 35 33 34
f 39 40 41
f 37 35 36
f 38 25 26
f 38 31 32
f 38 39 41
f 38 32 35
f 38 62 63
f 38 63 64
f 38 64 65
f 38 65 21
f 38 41 62
f 38 21 23
f 38 35 37
f 38 23 25
f 38 26 31
f 112 111 70
f 110 70 111
f 113 112 70
f 109 70 110
f 109 69 70
f 114 113 70
f 108 69 109
f 115 114 70
f 107 69 108
f 116 115 70
f 116 70 71
f 106 69 107
f 72 116 71
f 105 69 106
f 73 72 71
f 104 69 105
f 74 73 71
f 103 69 104
f 75 74 71
f 102 69 103
f 76 75 71
f 101 69 102
f 77 76 71
f 68 101 100
f 68 69 101
f 78 77 71
f 68 100 99
f 66 79 78
f 66 78 71
f 68 99 98
f 66 80 79
f 81 80 66
f 68 98 97
f 68 97 96
f 66 82 81
f 68 96 95
f 66 83 82
f 67 68 95
f 67 94 93
f 67 95 94
f 66 84 83
f 66 85 84
f 66 86 85
f 67 93 92
f 67 92 91
f 67 86 66
f 67 87 86
f 67 91 90
f 67 88 87
f 67 89 88
f 67 90 89
f 71 117 118
f 66 71 118
f 66 118 119
f 67 66 119
f 67 119 120
f 68 67 120
f 68 120 121
f 69 68 121
f 69 121 122
f 70 69 122
f 70 122 117
f 71 70 117
f 73 21 72
f 73 22 21
f 74 22 73
f 74 23 22
f 75 23 74
f 75 24 23
f 76 24 75
f 76 25 24
f 77 25 76
f 77 26 25
f 78 26 77
f 78 27 26
f 78 28 27
f 79 28 78
f 80 28 79
f 80 29 28
f 81 29 80
f 81 30 29
f 81 31 30
f 82 31 81
f 83 31 82
f 83 32 31
f 84 32 83
f 84 33 32
f 85 33 84
f 85 34 33
f 86 34 85
f 86 35 34
f 86 36 35
f 87 36 86
f 87 37 36
f 88 37 87
f 89 38 37
f 89 37 88
f 90 39 38
f 90 38 89
f 91 40 39
f 91 39 90
f 92 41 40
f 92 40 91
f 93 42 41
f 93 43 42
f 93 41 92
f 94 43 93
f 95 44 43
f 95 45 44
f 95 43 94
f 96 45 95
f 97 46 45
f 97 45 96
f 98 47 46
f 98 48 47
f 98 46 97
f 99 48 98
f 99 49 48
f 100 49 99
f 101 49 100
f 101 50 49
f 102 50 101
f 102 51 50
f 103 51 102
f 103 52 51
f 104 52 103
f 104 53 52
f 105 53 104
f 105 54 53
f 106 54 105
f 106 55 54
f 107 55 106
f 107 56 55
f 107 57 56
f 108 57 107
f 109 57 108
f 109 58 57
f 109 59 58
f 110 59 109
f 110 60 59
f 111 60 110
f 111 61 60
f 112 61 111
f 113 61 112
f 113 62 61
f 113 63 62
f 114 63 113
f 115 63 114
f 115 64 63
f 116 64 115
f 116 65 64
f 116 21 65
f 72 21 116
f 164 162 163
f 160 161 162
f 165 162 164
f 159 160 162
f 157 158 159
f 155 156 157
f 127 125 126
f 152 153 154
f 152 154 155
f 128 123 124
f 128 124 125
f 128 165 166
f 128 166 167
f 128 167 123
f 128 162 165
f 128 125 127
f 130 128 129
f 131 159 162
f 131 162 128
f 131 128 130
f 148 149 150
f 148 150 151
f 133 131 132
f 135 133 134
f 135 157 159
f 135 155 157
f 135 159 131
f 135 131 133
f 144 145 146
f 137 135 136
f 141 142 143
f 141 143 144
f 140 137 138
f 140 138 139
f 140 155 135
f 140 144 146
f 140 135 137
f 140 146 147
f 140 147 148
f 140 151 152
f 140 141 144
f 140 152 155
f 140 148 151
f 204 203 172
f 202 172 203
f 205 204 172
f 201 172 202
f 206 205 172
f 200 172 201
f 207 206 172
f 207 172 173
f 199 171 172
f 199 172 200
f 208 207 173
f 198 171 199
f 209 208 173
f 197 171 198
f 210 209 173
f 196 171 197
f 211 210 173
f 195 171 196
f 212 211 173
f 194 171 195
f 213 212 173
f 193 171 194
f 214 213 173
f 192 171 193
f 174 214 173
f 174 215 214
f 216 215 174
f 170 192 191
f 170 171 192
f 174 217 216
f 170 191 190
f 218 217 174
f 189 170 190
f 170 189 188
f 174 219 218
f 174 220 219
f 169 170 188
f 169 187 186
f 169 188 187
f 174 175 220
f 174 176 175
f 169 186 185
f 168 176 174
f 168 177 176
f 169 185 184
f 168 178 177
f 169 184 183
f 168 179 178
f 169 183 182
f 168 180 179
f 168 181 180
f 168 182 181
f 168 169 182
f 174 173 221
f 174 221 222
f 168 174 222
f 168 222 223
f 169 168 223
f 170 169 223
f 170 223 224
f 171 170 224
f 171 224 225
f 172 171 225
f 172 225 226
f 173 172 226
f 173 226 221
f 210 123 209
f 210 124 123
f 211 124 210
f 211 125 124
f 212 125 211
f 212 126 125
f 213 126 212
f 213 127 126
f 214 127 213
f 214 128 127
f 215 129 128
f 215 128 214
f 216 130 129
f 216 129 215
f 217 131 130
f 217 130 216
f 218 132 131
f 218 131 217
f 219 133 132
f 219 132 218
f 220 134 133
f 220 133 219
f 175 135 134
f 175 134 220
f 176 136 135
f 176 135 175
f 177 137 136
f 177 136 176
f 178 138 137
f 178 137 177
f 179 139 138
f 179 138 178
f 180 140 139
f 180 139 179
f 181 141 140
f 181 140 180
f 182 142 141
f 182 141 181
f 183 143 142
f 183 142 182
f 184 144 143
f 184 143 183
f 185 145 144
f 185 144 184
f 186 146 145
f 186 145 185
f 187 147 146
f 187 146 186
f 188 148 147
f 188 147 187
f 189 149 148
f 189 148 188
f 190 149 189
f 190 150 149
f 191 150 190
f 191 151 150
f 192 151 191
f 192 152 151
f 193 152 192
f 193 153 152
f 194 153 193
f 194 154 153
f 195 154 194
f 195 155 154
f 196 155 195
f 196 156 155
f 197 156 196
f 197 157 156
f 198 157 197
f 198 158 157
f 199 158 198
f 199 159 158
f 200 159 199
f 200 160 159
f 201 160 200
f 201 161 160
f 202 161 201
f 202 162 161
f 203 162 202
f 203 163 162
f 204 164 163
f 204 163 203
f 205 165 164
f 205 164 204
f 206 166 165
f 206 165 205
f 207 167 166
f 207 166 206
f 208 123 167
f 208 167 207
f 209 123 208
f 252 229 230
f 242 229 252
f 242 228 229
f 243 252 230
f 243 230 231
f 241 258 228
f 241 228 242
f 253 243 231
f 248 227 258
f 248 258 241
f 248 241 247
f 232 253 231
f 244 253 232
f 233 244 232
f 233 245 244
f 239 240 255
f 234 245 233
f 239 255 254
f 238 239 254
f 235 246 245
f 235 245 234
f 236 246 235
f 237 246 236
f 237 238 254
f 237 254 246
f 250 248 249
f 250 227 248
f 249 247 251
f 249 248 247
f 251 247 241
f 256 255 240
f 256 240 239
f 259 234 233
f 260 237 236
f 261 238 237
f 262 238 261
f 263 238 262
f 263 239 238
f 256 239 263
f 257 227 250
f 257 258 227
f 273 274 275
f 265 273 275
f 270 271 272
f 270 272 273
f 270 273 265
f 267 270 265
f 266 265 264
f 266 267 265
f 268 269 270
f 268 270 267
f 277 275 276
f 277 265 275
f 278 276 275
f 278 275 274
f 279 278 274
f 279 274 273
f 280 279 273
f 280 273 272
f 281 280 272
f 281 272 271
f 281 270 282
f 281 271 270
f 283 282 270
f 283 270 269
f 283 268 284
f 283 269 268
f 284 267 285
f 284 268 267
f 285 266 286
f 285 267 266
f 286 264 287
f 286 266 264
f 277 287 264
f 277 264 265
f 291 308 290
f 300 310 289
f 288 308 291
f 292 288 291
f 299 289 288
f 299 300 289
f 298 299 288
f 298 288 292
f 295 292 293
f 295 298 292
f 303 293 294
f 303 295 293
f 297 298 295
f 296 297 295
f 316 297 296
f 302 301 295
f 302 295 303
f 304 303 294
f 304 294 293
f 305 304 293
f 305 293 292
f 305 291 306
f 305 292 291
f 290 306 291
f 308 306 290
f 307 288 309
f 307 308 288
f 289 309 288
f 310 309 289
f 311 310 300
f 311 300 299
f 312 311 299
f 312 299 298
f 312 297 313
f 312 298 297
f 314 313 297
f 314 297 316
f 317 296 315
f 317 316 296
f 296 295 301
f 315 296 301
f 321 346 345
f 321 324 346
f 321 345 320
f 323 346 324
f 323 347 346
f 322 347 323
f 326 347 322
f 326 329 347
f 329 348 347
f 328 348 329
f 328 349 348
f 327 349 328
f 344 321 320
f 318 349 327
f 319 318 327
f 325 322 340
f 325 340 339
f 325 326 322
f 330 319 327
f 331 319 330
f 331 330 335
f 333 332 319
f 333 319 331
f 335 330 334
f 333 331 335
f 334 327 336
f 334 330 327
f 336 327 328
f 337 329 326
f 337 326 325
f 338 322 341
f 338 340 322
f 341 322 323
f 342 324 321
f 343 342 321
f 343 321 344
f 332 318 319
f 351 318 332
f 350 318 351
f 349 318 350
f 352 356 357
f 354 366 356
f 354 355 366
f 354 356 352
f 353 352 357
f 358 353 357
f 361 353 358
f 360 359 353
f 360 353 361
f 362 361 358
f 362 358 357
f 363 362 357
f 363 357 356
f 364 363 356
f 364 356 366
f 366 355 365
f 367 365 355
f 367 355 354
f 368 367 354
f 368 354 352
f 359 368 352
f 359 352 353
f 377 369 384
f 377 370 369
f 378 370 377
f 378 371 370
f 379 371 378
f 379 372 371
f 379 373 372
f 380 373 379
f 380 374 373
f 381 374 380
f 381 10 374
f 382 10 381
f 382 375 10
f 382 11 375
f 383 11 382
f 383 376 11
f 384 376 383
f 384 369 376
f 783 788 406
f 783 406 407
f 405 783 407
f 405 407 408
f 405 408 409
f 404 405 409
f 404 409 411
f 404 411 410
f 403 404 410
f 403 410 412
f 403 412 413
f 403 388 387
f 403 413 388
f 402 403 387
f 402 387 386
f 401 402 386
f 400 386 385
f 400 385 389
f 400 401 386
f 400 389 390
f 400 390 393
f 399 400 393
f 399 393 392
f 398 399 392
f 398 392 391
f 398 391 394
f 398 394 395
f 397 395 396
f 397 396 683
f 397 398 395
f 416 426 417
f 427 417 426
f 425 426 416
f 424 425 416
f 423 416 415
f 424 416 423
f 422 423 415
f 421 422 415
f 420 421 415
f 414 419 415
f 420 415 419
f 418 419 414
f 464 429 428
f 464 428 430
f 463 430 431
f 463 464 430
f 462 431 432
f 462 463 431
f 461 432 433
f 461 462 432
f 460 433 434
f 460 461 433
f 459 434 435
f 459 460 434
f 458 435 436
f 458 459 435
f 457 436 437
f 457 458 436
f 456 437 438
f 456 457 437
f 455 438 439
f 455 439 440
f 455 456 438
f 454 440 441
f 454 455 440
f 453 441 442
f 453 454 441
f 449 442 443
f 449 453 442
f 450 449 443
f 450 443 447
f 451 450 447
f 451 447 446
f 452 451 446
f 452 445 444
f 452 446 445
f 448 452 444
f 448 466 465
f 448 444 466
f 482 483 484
f 482 484 485
f 481 485 486
f 481 482 485
f 480 486 487
f 480 481 486
f 479 487 488
f 479 480 487
f 478 488 489
f 478 479 488
f 477 489 490
f 477 478 489
f 476 490 491
f 476 477 490
f 475 491 492
f 475 476 491
f 474 492 493
f 474 475 492
f 473 493 494
f 473 494 495
f 473 474 493
f 472 495 496
f 472 473 495
f 471 496 497
f 471 472 496
f 467 497 498
f 467 498 501
f 467 471 497
f 468 467 501
f 469 500 499
f 469 501 500
f 469 468 501
f 470 469 499
f 470 499 465
f 466 470 465
f 509 510 511
f 509 511 512
f 509 512 508
f 529 509 528
f 503 504 505
f 503 505 506
f 503 506 507
f 503 508 504
f 503 509 508
f 513 535 521
f 513 521 523
f 513 524 526
f 513 529 532
f 513 533 535
f 513 509 529
f 513 532 524
f 513 526 533
f 536 513 523
f 538 513 536
f 518 513 538
f 520 513 518
f 527 528 509
f 527 509 503
f 539 513 520
f 530 527 503
f 541 513 539
f 515 513 541
f 516 483 514
f 516 514 513
f 516 513 515
f 531 524 532
f 525 533 526
f 534 521 535
f 522 536 523
f 537 518 538
f 519 539 520
f 540 515 541
f 502 517 540
f 502 519 537
f 502 522 534
f 502 525 531
f 502 531 530
f 502 534 525
f 502 537 522
f 502 540 519
f 484 517 502
f 502 530 503
f 483 517 484
f 483 516 517
f 576 504 508
f 576 508 542
f 575 542 543
f 575 576 542
f 574 543 544
f 574 575 543
f 573 544 545
f 573 574 544
f 572 545 546
f 572 573 545
f 571 546 547
f 571 572 546
f 570 547 548
f 570 571 547
f 569 548 549
f 569 570 548
f 568 549 550
f 568 569 549
f 567 550 551
f 567 551 552
f 567 568 550
f 566 552 553
f 566 567 552
f 565 553 554
f 565 566 553
f 561 554 555
f 561 565 554
f 562 561 555
f 562 555 559
f 563 562 559
f 563 558 557
f 563 559 558
f 564 563 557
f 560 564 557
f 560 557 556
f 586 556 588
f 584 556 586
f 587 586 588
f 585 584 586
f 589 556 578
f 589 588 556
f 591 590 589
f 591 589 578
f 560 556 584
f 581 584 583
f 581 560 584
f 580 560 581
f 592 591 578
f 579 560 580
f 577 579 582
f 577 582 592
f 577 560 579
f 577 592 578
f 581 583 582
f 608 609 610
f 608 610 611
f 607 611 612
f 607 608 611
f 606 612 613
f 606 607 612
f 605 613 614
f 605 606 613
f 604 614 615
f 604 605 614
f 603 615 616
f 603 604 615
f 602 616 617
f 602 603 616
f 601 617 618
f 601 602 617
f 600 618 619
f 600 601 618
f 599 619 620
f 599 620 621
f 599 600 619
f 598 621 622
f 598 599 621
f 597 622 623
f 597 598 622
f 593 623 624
f 593 597 623
f 594 593 624
f 594 627 626
f 594 624 627
f 595 594 626
f 596 595 626
f 596 626 625
f 578 596 625
f 578 625 577
f 631 609 628
f 631 628 629
f 631 629 630
f 665 664 631
f 635 610 609
f 635 636 637
f 635 637 638
f 635 638 610
f 635 609 631
f 632 652 656
f 632 653 652
f 632 656 655
f 632 659 658
f 632 662 661
f 632 665 631
f 632 661 665
f 632 658 662
f 632 655 659
f 649 653 632
f 650 649 632
f 646 650 632
f 647 646 632
f 666 631 664
f 666 635 631
f 643 647 632
f 663 635 666
f 663 665 661
f 644 643 632
f 641 644 632
f 639 632 633
f 639 633 428
f 639 641 632
f 660 662 658
f 657 659 655
f 654 656 652
f 651 653 649
f 648 650 646
f 645 647 643
f 642 644 641
f 634 642 640
f 634 645 642
f 634 648 645
f 634 651 648
f 634 654 651
f 634 657 654
f 634 660 657
f 634 663 660
f 429 634 640
f 428 429 639
f 639 429 640
f 634 635 663
f 668 667 581
f 668 581 582
f 670 592 669
f 670 591 592
f 671 591 670
f 671 590 591
f 672 590 671
f 672 589 590
f 673 589 672
f 673 588 589
f 673 587 588
f 673 674 587
f 675 587 674
f 675 586 587
f 675 585 586
f 675 676 585
f 676 584 585
f 677 584 676
f 677 583 584
f 677 582 583
f 677 678 582
f 678 592 582
f 678 669 592
f 676 675 674
f 672 674 673
f 671 674 672
f 671 676 674
f 669 671 670
f 669 676 671
f 678 677 676
f 678 676 669
f 668 579 679
f 668 582 579
f 396 681 683
f 683 681 680
f 789 683 680
f 789 680 421
f 420 789 421
f 682 789 420
f 689 684 686
f 685 686 684
f 681 684 689
f 680 681 689
f 694 689 688
f 680 689 694
f 693 694 688
f 692 693 688
f 687 691 688
f 692 688 691
f 690 691 687
f 681 396 695
f 684 681 695
f 685 696 391
f 684 696 685
f 690 409 697
f 691 690 697
f 692 698 406
f 691 698 692
f 388 701 699
f 699 701 700
f 410 747 702
f 747 700 702
f 393 705 703
f 703 705 704
f 385 746 706
f 746 704 706
f 708 710 707
f 707 710 709
f 712 739 711
f 739 709 711
f 715 713 714
f 713 717 714
f 790 819 716
f 716 819 717
f 425 718 719
f 426 425 719
f 427 721 720
f 426 721 427
f 420 722 682
f 419 722 420
f 418 723 724
f 419 418 724
f 427 720 725
f 716 725 790
f 716 427 725
f 788 692 406
f 693 692 788
f 425 726 718
f 425 788 726
f 424 788 425
f 424 693 788
f 736 713 715
f 738 736 715
f 379 738 727
f 380 379 727
f 379 736 738
f 379 737 736
f 735 707 737
f 708 707 735
f 378 737 379
f 380 727 728
f 381 380 728
f 734 735 737
f 734 737 378
f 733 734 378
f 729 381 728
f 377 733 378
f 729 382 381
f 732 733 377
f 730 382 729
f 732 377 384
f 731 732 384
f 730 383 382
f 731 384 383
f 731 383 730
f 740 723 418
f 740 418 739
f 712 740 739
f 745 709 741
f 739 741 709
f 737 707 709
f 737 709 745
f 737 745 744
f 736 737 744
f 736 744 743
f 736 743 717
f 713 736 717
f 742 717 743
f 716 717 742
f 392 393 703
f 685 392 703
f 391 392 685
f 699 387 388
f 699 386 387
f 746 386 699
f 385 386 746
f 747 410 411
f 690 411 409
f 690 747 411
f 749 704 748
f 746 748 704
f 703 704 749
f 444 445 446
f 444 446 447
f 444 447 443
f 444 443 751
f 466 751 750
f 466 444 751
f 469 470 466
f 468 469 466
f 467 466 750
f 467 468 466
f 763 764 761
f 775 762 763
f 775 763 761
f 775 774 762
f 773 762 774
f 776 761 756
f 776 775 761
f 758 756 757
f 777 776 756
f 759 777 756
f 759 756 758
f 760 777 759
f 755 777 760
f 770 772 771
f 778 777 755
f 770 773 772
f 769 762 773
f 769 773 770
f 780 797 779
f 783 405 768
f 405 769 768
f 781 779 778
f 781 780 779
f 765 762 769
f 765 769 405
f 765 405 404
f 403 767 765
f 403 765 404
f 398 397 782
f 766 767 403
f 751 766 403
f 402 751 403
f 752 398 782
f 752 782 781
f 752 399 398
f 753 399 752
f 753 400 399
f 750 401 400
f 750 402 401
f 754 750 400
f 754 400 753
f 752 778 755
f 752 781 778
f 751 402 750
f 578 593 594
f 578 594 595
f 578 595 596
f 761 593 578
f 558 556 557
f 559 556 558
f 555 556 559
f 756 578 556
f 756 761 578
f 756 556 555
f 577 624 785
f 577 625 626
f 577 626 627
f 577 627 624
f 560 785 784
f 560 577 785
f 563 564 560
f 562 563 560
f 561 560 784
f 561 562 560
f 448 449 450
f 448 450 451
f 448 451 452
f 786 449 448
f 500 465 499
f 501 465 500
f 498 465 501
f 787 448 465
f 787 786 448
f 787 465 498
f 768 726 788
f 783 768 788
f 397 683 789
f 397 789 682
f 770 715 790
f 770 771 715
f 770 790 725
f 769 770 725
f 768 769 725
f 768 725 720
f 768 720 791
f 768 791 792
f 768 792 718
f 768 718 726
f 397 682 793
f 782 793 794
f 782 794 723
f 782 397 793
f 782 723 740
f 781 782 740
f 780 740 712
f 780 781 740
f 780 712 795
f 780 795 796
f 797 780 796
f 797 796 708
f 797 708 735
f 715 771 738
f 734 797 735
f 797 734 733
f 779 797 733
f 778 733 732
f 778 779 733
f 778 732 731
f 777 778 731
f 777 731 730
f 776 777 730
f 775 776 730
f 775 730 729
f 774 775 729
f 774 729 728
f 773 774 728
f 773 728 727
f 772 773 727
f 771 772 727
f 771 727 738
f 502 503 798
f 502 798 799
f 635 634 801
f 801 634 800
f 632 631 762
f 632 762 765
f 509 752 755
f 509 513 752
f 787 498 497
f 802 497 496
f 802 787 497
f 803 496 495
f 803 802 496
f 803 495 494
f 803 494 493
f 803 493 492
f 804 492 491
f 804 803 492
f 804 491 490
f 804 490 489
f 804 489 488
f 804 487 486
f 804 488 487
f 804 486 485
f 804 484 502
f 804 485 484
f 799 804 502
f 805 634 429
f 805 464 463
f 805 429 464
f 805 800 634
f 806 462 461
f 806 463 462
f 806 805 463
f 806 461 460
f 806 460 459
f 806 459 458
f 806 458 457
f 806 457 456
f 806 456 455
f 806 455 454
f 806 454 453
f 806 453 449
f 786 806 449
f 635 801 810
f 636 635 810
f 637 810 809
f 637 636 810
f 638 637 809
f 610 638 809
f 611 809 808
f 611 610 809
f 612 611 808
f 613 612 808
f 614 613 808
f 615 614 808
f 616 615 808
f 617 616 808
f 618 617 808
f 619 618 808
f 620 619 808
f 621 620 808
f 622 808 807
f 622 621 808
f 623 807 785
f 623 622 807
f 624 623 785
f 561 784 812
f 565 561 812
f 566 565 812
f 567 566 812
f 568 567 812
f 569 568 812
f 570 569 812
f 571 570 812
f 572 571 812
f 573 572 812
f 574 573 812
f 575 812 811
f 575 574 812
f 576 575 811
f 504 576 811
f 505 504 811
f 506 505 811
f 507 811 798
f 507 506 811
f 503 507 798
f 633 632 765
f 428 633 765
f 430 428 765
f 431 430 765
f 432 431 765
f 433 432 765
f 434 433 765
f 435 765 767
f 435 434 765
f 436 435 767
f 437 436 767
f 438 437 767
f 439 438 767
f 440 439 767
f 441 767 766
f 441 440 767
f 442 766 751
f 442 441 766
f 443 442 751
f 467 750 754
f 471 467 754
f 472 471 754
f 473 472 754
f 474 473 754
f 475 474 754
f 476 475 754
f 477 476 754
f 478 477 754
f 479 478 754
f 480 479 754
f 481 754 753
f 481 480 754
f 482 481 753
f 483 482 753
f 514 483 753
f 514 753 752
f 513 514 752
f 756 555 554
f 757 554 553
f 757 756 554
f 758 553 552
f 758 757 553
f 758 552 551
f 758 551 550
f 758 550 549
f 758 549 548
f 758 548 547
f 758 547 546
f 758 546 545
f 758 544 543
f 758 545 544
f 758 543 542
f 759 512 511
f 759 508 512
f 759 542 508
f 759 758 542
f 760 510 509
f 760 511 510
f 760 759 511
f 755 760 509
f 762 631 630
f 763 628 609
f 763 629 628
f 763 630 629
f 763 608 607
f 763 609 608
f 763 762 630
f 764 606 605
f 764 607 606
f 764 763 607
f 764 605 604
f 764 604 603
f 764 603 602
f 764 602 601
f 764 601 600
f 764 600 599
f 764 599 598
f 764 598 597
f 764 597 593
f 761 764 593
f 703 686 685
f 703 749 686
f 746 699 814
f 746 814 748
f 814 700 813
f 747 813 700
f 699 700 814
f 690 687 813
f 747 690 813
f 226 814 813
f 225 814 226
f 225 748 814
f 221 813 687
f 221 226 813
f 224 748 225
f 749 748 224
f 688 221 687
f 688 222 221
f 749 224 223
f 689 222 688
f 686 749 223
f 689 686 223
f 689 223 222
f 418 741 739
f 418 414 741
f 427 716 742
f 427 742 417
f 122 416 417
f 117 122 417
f 121 416 122
f 121 415 416
f 117 417 742
f 117 742 743
f 118 117 743
f 414 415 121
f 414 121 120
f 744 118 743
f 744 119 118
f 741 120 119
f 741 414 120
f 745 119 744
f 745 741 119
f 793 682 722
f 793 722 815
f 793 815 816
f 794 793 816
f 723 816 724
f 723 794 816
f 791 720 721
f 791 721 817
f 792 817 818
f 792 791 817
f 718 818 719
f 718 792 818
f 715 714 819
f 790 715 819
f 795 712 711
f 795 711 820
f 796 820 821
f 796 795 820
f 708 821 710
f 708 796 821
f 385 706 822
f 389 822 823
f 389 385 822
f 390 823 705
f 390 389 823
f 393 390 705
f 412 410 702
f 412 702 824
f 413 824 825
f 413 412 824
f 388 825 701
f 388 413 825
f 406 698 826
f 407 826 827
f 407 406 826
f 408 827 697
f 408 407 827
f 409 408 697
f 394 391 696
f 394 696 828
f 395 828 829
f 395 394 828
f 396 829 695
f 396 395 829
f 826 698 691
f 827 826 691
f 697 827 691
f 824 702 700
f 825 824 700
f 701 825 700
f 822 706 704
f 823 822 704
f 705 823 704
f 828 696 684
f 829 828 684
f 695 829 684
f 820 711 709
f 821 820 709
f 710 821 709
f 815 722 419
f 816 815 419
f 724 816 419
f 817 721 426
f 818 817 426
f 719 818 426
f 819 714 717
f 830 580 581
f 830 581 667
f 830 579 580
f 830 679 579
f 679 830 667
f 679 667 668
f 422 694 423
f 680 422 421
f 680 694 422
f 693 424 423
f 693 423 694
f 831 665 832
f 831 664 665
f 666 831 833
f 666 664 831
f 834 666 833
f 834 663 666
f 834 832 665
f 834 665 663
f 833 832 834
f 833 831 832
f 835 662 836
f 835 661 662
f 837 661 835
f 663 661 837
f 838 663 837
f 838 660 663
f 838 836 662
f 838 662 660
f 837 836 838
f 837 835 836
f 839 659 840
f 839 658 659
f 841 658 839
f 660 658 841
f 842 660 841
f 842 657 660
f 842 840 659
f 842 659 657
f 841 840 842
f 841 839 840
f 843 656 844
f 843 655 656
f 845 655 843
f 657 655 845
f 846 657 845
f 846 654 657
f 846 844 656
f 846 656 654
f 845 844 846
f 845 843 844
f 848 652 653
f 847 652 848
f 849 652 847
f 654 652 849
f 850 654 849
f 850 651 654
f 850 848 653
f 850 653 651
f 849 848 850
f 849 847 848
f 852 649 650
f 851 649 852
f 853 649 851
f 651 649 853
f 853 648 651
f 854 648 853
f 854 852 650
f 854 650 648
f 853 852 854
f 853 851 852
f 856 646 647
f 855 646 856
f 857 646 855
f 648 646 857
f 857 645 648
f 858 645 857
f 858 856 647
f 858 647 645
f 857 856 858
f 857 855 856
f 860 643 644
f 859 643 860
f 861 643 859
f 645 643 861
f 861 642 645
f 862 642 861
f 862 860 644
f 862 644 642
f 861 860 862
f 861 859 860
f 864 863 639
f 864 639 640
f 863 641 639
f 865 641 863
f 866 641 865
f 642 641 866
f 866 640 642
f 864 640 866
f 866 865 863
f 866 863 864
f 528 867 529
f 528 868 867
f 530 867 869
f 530 529 867
f 530 870 527
f 530 869 870
f 870 868 528
f 870 528 527
f 867 870 869
f 868 870 867
f 532 872 871
f 529 872 532
f 873 532 871
f 531 532 873
f 530 873 874
f 531 873 530
f 874 872 529
f 874 529 530
f 872 873 871
f 872 874 873
f 524 875 526
f 524 876 875
f 877 526 875
f 525 526 877
f 525 878 531
f 525 877 878
f 878 876 524
f 878 524 531
f 876 877 875
f 876 878 877
f 533 879 535
f 533 880 879
f 881 535 879
f 534 535 881
f 525 881 882
f 534 881 525
f 882 880 533
f 882 533 525
f 880 881 879
f 880 882 881
f 521 883 523
f 521 884 883
f 885 523 883
f 522 523 885
f 522 886 534
f 522 885 886
f 886 884 521
f 886 521 534
f 884 885 883
f 884 886 885
f 536 887 538
f 536 888 887
f 889 538 887
f 537 538 889
f 537 890 522
f 537 889 890
f 890 888 536
f 890 536 522
f 888 889 887
f 888 890 889
f 518 891 520
f 518 892 891
f 893 520 891
f 519 520 893
f 519 894 537
f 519 893 894
f 894 892 518
f 894 518 537
f 892 893 891
f 892 894 893
f 539 895 541
f 539 896 895
f 897 541 895
f 540 541 897
f 540 898 519
f 540 897 898
f 898 896 539
f 898 539 519
f 896 897 895
f 896 898 897
f 899 516 900
f 517 516 899
f 517 901 540
f 517 899 901
f 901 902 515
f 901 515 540
f 515 900 516
f 515 902 900
f 900 901 899
f 902 901 900
f 303 800 805
f 303 805 806
f 303 806 786
f 304 800 303
f 317 303 786
f 317 315 302
f 317 302 303
f 787 317 786
f 787 314 316
f 787 316 317
f 301 302 315
f 306 800 304
f 306 304 305
f 308 800 306
f 804 802 803
f 804 787 802
f 311 312 313
f 320 308 307
f 310 320 309
f 310 344 320
f 804 314 787
f 340 344 310
f 338 343 344
f 338 344 340
f 339 340 310
f 325 339 310
f 799 314 804
f 799 313 314
f 345 308 320
f 335 325 310
f 334 337 325
f 334 325 335
f 335 310 311
f 335 311 313
f 335 313 799
f 333 335 799
f 323 324 342
f 341 343 338
f 341 342 343
f 341 323 342
f 329 337 334
f 362 345 346
f 362 308 345
f 362 800 308
f 361 346 347
f 360 361 347
f 336 329 334
f 336 328 329
f 348 360 347
f 363 800 362
f 332 333 799
f 351 332 799
f 359 348 349
f 359 360 348
f 367 368 359
f 367 359 349
f 231 363 232
f 232 363 364
f 231 800 363
f 233 232 364
f 259 364 366
f 259 233 364
f 234 259 366
f 287 244 245
f 276 243 253
f 276 253 244
f 276 244 287
f 235 234 366
f 286 287 245
f 286 245 246
f 278 252 243
f 278 243 276
f 236 235 366
f 277 276 287
f 801 800 231
f 801 230 229
f 801 231 230
f 260 366 365
f 260 236 366
f 237 367 349
f 237 260 365
f 237 365 367
f 261 349 350
f 261 237 349
f 228 801 229
f 284 246 254
f 284 286 246
f 284 285 286
f 280 242 252
f 280 252 278
f 280 278 279
f 281 282 283
f 262 350 351
f 262 261 350
f 251 242 280
f 251 280 281
f 263 262 351
f 255 284 254
f 241 242 251
f 255 283 284
f 250 258 257
f 250 228 258
f 249 251 281
f 249 255 256
f 249 283 255
f 249 281 283
f 785 808 809
f 785 809 810
f 785 810 801
f 785 228 250
f 785 807 808
f 785 801 228
f 798 249 256
f 798 250 249
f 798 256 263
f 784 785 250
f 784 798 811
f 784 250 798
f 812 784 811
f 798 263 799
f 263 351 799
f 309 320 307
f 362 346 361

