# https://github.com/mikedh/trimesh
v 45.22603574 16.10563580 -5.00000000
v 44.97317694 14.80176732 5.00000000
v 45.27697110 16.07776038 4.99562787
v 46.75453963 9.96966147 5.00000000
v 46.75453963 9.96966147 -5.00000000
v 46.78644493 9.89795546 -5.00000000
v 46.82743679 9.83102739 -5.00000000
v 46.87681382 9.77002240 -5.00000000
v 46.93373118 9.71598432 -5.00000000
v 46.99721498 9.66983774 -5.00000000
v 47.06617901 9.63237226 -5.00000000
v 47.13944327 9.60422891 -5.00000000
v 47.21575419 9.58588923 -5.00000000
v 47.29380606 9.57766703 -5.00000000
v 47.37226341 9.57970298 -5.00000000
v 48.06111117 9.70003879 5.00000000
v 47.29380606 9.57766703 5.00000000
v 47.21575419 9.58588923 5.00000000
v 47.13944327 9.60422891 5.00000000
v 47.06617901 9.63237226 5.00000000
v 46.99721498 9.66983774 5.00000000
v 46.93373118 9.71598432 5.00000000
v 46.87681382 9.77002240 5.00000000
v 46.82743679 9.83102739 5.00000000
v 46.78644493 9.89795546 5.00000000
v 54.01686863 -6.10902990 4.13321750
v 49.72147832 3.65620166 5.00000000
v 49.72147832 3.65620166 -5.00000000
v 49.64977231 3.62429636 -5.00000000
v 49.58284424 3.58330450 -5.00000000
v 49.52183925 3.53392747 -5.00000000
v 49.46780117 3.47701011 -5.00000000
v 49.42165459 3.41352631 -5.00000000
v 49.38418911 3.34456228 -5.00000000
v 49.35604575 3.27129802 -5.00000000
v 49.33770608 3.19498710 -5.00000000
v 49.32948388 3.11693523 -5.00000000
v 49.33151983 3.03847788 -5.00000000
v 49.34377910 2.96095750 -5.00000000
v 50.33987726 0.01501678 -5.00000000
v 49.36605193 2.88570047 5.00000000
v 49.34377910 2.96095750 5.00000000
v 49.33151983 3.03847788 5.00000000
v 49.32948388 3.11693523 5.00000000
v 49.33770608 3.19498710 5.00000000
v 49.35604575 3.27129802 5.00000000
v 49.38418911 3.34456228 5.00000000
v 49.42165459 3.41352631 5.00000000
v 49.46780117 3.47701011 5.00000000
v 49.52183925 3.53392747 5.00000000
v 49.58284424 3.58330450 5.00000000
v 49.64977231 3.62429636 5.00000000
v 55.32408536 5.08213797 5.00000000
v 55.32408536 5.08213797 -5.00000000
v 55.29218006 5.15384398 -5.00000000
v 55.25118820 5.22077205 -5.00000000
v 55.20181117 5.28177704 -5.00000000
v 55.14489381 5.33581512 -5.00000000
v 55.08141001 5.38196170 -5.00000000
v 55.01244598 5.41942718 -5.00000000
v 54.93918172 5.44757053 -5.00000000
v 54.86287080 5.46591021 -5.00000000
v 54.78481893 5.47413241 -5.00000000
v 54.70636159 5.47209646 -5.00000000
v 54.62884120 5.45983719 -5.00000000
v 54.55358417 5.43756435 -5.00000000
v 54.55358417 5.43756435 5.00000000
v 54.62884120 5.45983719 5.00000000
v 54.70636159 5.47209646 5.00000000
v 54.78481893 5.47413241 5.00000000
v 54.86287080 5.46591021 5.00000000
v 54.93918172 5.44757053 5.00000000
v 55.01244598 5.41942718 5.00000000
v 55.08141001 5.38196170 5.00000000
v 55.14489381 5.33581512 5.00000000
v 55.20181117 5.28177704 5.00000000
v 55.25118820 5.22077205 5.00000000
v 55.29218006 5.15384398 5.00000000
v 54.55443490 -5.25549406 -5.00928757
v 57.14201611 0.01879736 -5.00000000
v 57.13998016 0.09725470 -5.00000000
v 57.12772089 0.17477509 -5.00000000
v 57.10544806 0.25003212 -5.00000000
v 57.10544806 0.25003212 5.00000000
v 57.12772089 0.17477509 5.00000000
v 57.13998016 0.09725470 5.00000000
v 57.14201611 0.01879736 5.00000000
v 57.13379391 -0.05925452 5.00000000
v 50.93121036 16.99820482 5.00000000
v 50.93121036 16.99820482 -5.00000000
v 50.89930506 17.06991083 -5.00000000
v 50.85831320 17.13683891 -5.00000000
v 50.80893617 17.19784389 -5.00000000
v 50.75201882 17.25188198 -5.00000000
v 50.68853501 17.29802855 -5.00000000
v 50.61957098 17.33549404 -5.00000000
v 50.54630672 17.36363739 -5.00000000
v 50.46999581 17.38197706 -5.00000000
v 50.46999581 17.38197706 5.00000000
v 50.54630672 17.36363739 5.00000000
v 50.61957098 17.33549404 5.00000000
v 50.68853501 17.29802855 5.00000000
v 50.75201882 17.25188198 5.00000000
v 50.80893617 17.19784389 5.00000000
v 50.85831320 17.13683891 5.00000000
v 50.89930506 17.06991083 5.00000000
v 49.60451125 10.16215712 -5.00000000
v 52.49578076 11.46849494 -5.00000000
v 52.55678574 11.51787197 -5.00000000
v 52.61082383 11.57478933 -5.00000000
v 52.65697040 11.63827313 -5.00000000
v 52.69443589 11.70723716 -5.00000000
v 52.72257924 11.78050142 -5.00000000
v 52.74091891 11.85681234 -5.00000000
v 52.74914112 11.93486421 -5.00000000
v 52.74710516 12.01332156 -5.00000000
v 52.73484589 12.09084194 -5.00000000
v 52.71257306 12.16609897 -5.00000000
v 52.71257306 12.16609897 5.00000000
v 52.73484589 12.09084194 5.00000000
v 52.74710516 12.01332156 5.00000000
v 52.74914112 11.93486421 5.00000000
v 52.74091891 11.85681234 5.00000000
v 52.72257924 11.78050142 5.00000000
v 52.69443589 11.70723716 5.00000000
v 52.65697040 11.63827313 5.00000000
v 52.61082383 11.57478933 5.00000000
v 52.55678574 11.51787197 5.00000000
v 52.46338495 11.44625490 5.00000000
v 42.39356993 21.81402232 -5.00000000
v 42.43456179 21.74709424 -5.00000000
v 42.48393883 21.68608925 -5.00000000
v 42.54085618 21.63205117 -5.00000000
v 42.60433999 21.58590460 -5.00000000
v 42.67330401 21.54843911 -5.00000000
v 42.74656827 21.52029576 -5.00000000
v 42.82287919 21.50195608 -5.00000000
v 42.90093107 21.49373388 -5.00000000
v 42.97938841 21.49576983 -5.00000000
v 43.05690879 21.50802911 -5.00000000
v 43.13216582 21.53030194 -5.00000000
v 43.13216582 21.53030194 5.00000000
v 43.05690879 21.50802911 5.00000000
v 42.97938841 21.49576983 5.00000000
v 42.90093107 21.49373388 5.00000000
v 42.82287919 21.50195608 5.00000000
v 42.74656827 21.52029576 5.00000000
v 42.67330401 21.54843911 5.00000000
v 42.60433999 21.58590460 5.00000000
v 42.54085618 21.63205117 5.00000000
v 42.48393883 21.68608925 5.00000000
v 42.43456179 21.74709424 5.00000000
v 42.39356993 21.81402232 5.00000000
v 40.93572833 27.48833537 5.00000000
v 40.93572833 27.48833537 -5.00000000
v 40.86402232 27.45643007 -5.00000000
v 40.79709424 27.41543821 -5.00000000
v 40.73608925 27.36606117 -5.00000000
v 40.68205117 27.30914382 -5.00000000
v 40.63590460 27.24566001 -5.00000000
v 40.59843911 27.17669599 -5.00000000
v 40.57029576 27.10343173 -5.00000000
v 40.55195608 27.02712081 -5.00000000
v 40.54373388 26.94906893 -5.00000000
v 40.54576983 26.87061159 -5.00000000
v 40.71953280 26.12364513 -5.00000000
v 40.65845150 26.19478005 5.03528777
v 40.54373388 26.94906893 5.00000000
v 40.55195608 27.02712081 5.00000000
v 40.57029576 27.10343173 5.00000000
v 40.59843911 27.17669599 5.00000000
v 40.63590460 27.24566001 5.00000000
v 40.68205117 27.30914382 5.00000000
v 40.73608925 27.36606117 5.00000000
v 40.79709424 27.41543821 5.00000000
v 40.86402232 27.45643007 5.00000000
v 46.88953121 28.18225568 -5.00000000
v 46.46543821 29.05290576 -5.00000000
v 46.41606117 29.11391075 -5.00000000
v 46.35914382 29.16794883 -5.00000000
v 46.29566001 29.21409540 -5.00000000
v 46.22669599 29.25156089 -5.00000000
v 46.15343173 29.27970424 -5.00000000
v 46.07712081 29.29804392 -5.00000000
v 45.99906893 29.30626612 -5.00000000
v 45.92061159 29.30423017 -5.00000000
v 45.84309121 29.29197089 -5.00000000
v 45.76783418 29.26969806 -5.00000000
v 45.76783418 29.26969806 5.00000000
v 45.84309121 29.29197089 5.00000000
v 45.92061159 29.30423017 5.00000000
v 45.99906893 29.30626612 5.00000000
v 46.07712081 29.29804392 5.00000000
v 46.15343173 29.27970424 5.00000000
v 46.22669599 29.25156089 5.00000000
v 46.29566001 29.21409540 5.00000000
v 46.35914382 29.16794883 5.00000000
v 46.41606117 29.11391075 5.00000000
v 46.46543821 29.05290576 5.00000000
v 47.96427167 23.31166463 5.00000000
v 47.96427167 23.31166463 -5.00000000
v 48.03597768 23.34356993 -5.00000000
v 48.10290576 23.38456179 -5.00000000
v 48.16391075 23.43393883 -5.00000000
v 48.21794883 23.49085618 -5.00000000
v 48.26409540 23.55433999 -5.00000000
v 48.30156089 23.62330401 -5.00000000
v 48.32970424 23.69656827 -5.00000000
v 48.34804392 23.77287919 -5.00000000
v 48.35626612 23.85093107 -5.00000000
v 48.35423017 23.92938841 -5.00000000
v 48.34197089 24.00690879 -5.00000000
v 46.96277930 28.08589553 5.00000000
v 48.34197089 24.00690879 5.00000000
v 48.35423017 23.92938841 5.00000000
v 48.35626612 23.85093107 5.00000000
v 48.34804392 23.77287919 5.00000000
v 48.32970424 23.69656827 5.00000000
v 48.30156089 23.62330401 5.00000000
v 48.26409540 23.55433999 5.00000000
v 48.21794883 23.49085618 5.00000000
v 48.16391075 23.43393883 5.00000000
v 48.10290576 23.38456179 5.00000000
v 48.03597768 23.34356993 5.00000000
v 50.17765168 19.30055078 4.92136434
v 49.37786844 21.78828431 4.93617703
v 49.84617030 19.05233994 4.70785308
v 49.84861903 19.04569753 4.76525134
v 49.85483181 19.02884482 4.82022465
v 49.86457774 19.00240812 4.87073004
v 49.87749463 18.96736988 4.91489058
v 49.89310246 18.92503224 4.95106513
v 49.91082119 18.87696860 4.97790932
v 49.92999234 18.82496515 4.99442554
v 50.09525355 18.84274819 4.99993794
v 50.20351902 18.95006711 5.00000000
v 50.24965375 19.01352996 5.00000000
v 50.28710862 19.08247254 5.00000000
v 50.31524254 19.15571480 5.00000000
v 50.33357396 19.23200310 5.00000000
v 50.34178911 19.31003167 5.00000000
v 50.33974738 19.38846494 5.00000000
v 50.32126544 19.49373576 4.99999679
v 49.93435477 19.10583818 4.70998277
v 48.72387828 22.09665756 5.00000000
v 48.74378938 22.04264691 4.99442554
v 48.76296053 21.99064346 4.97790932
v 48.78067926 21.94257982 4.95106513
v 48.79628708 21.90024218 4.91489058
v 48.80920398 21.86520395 4.87073004
v 48.81894991 21.83876724 4.82022465
v 48.82516268 21.82191454 4.76525134
v 48.82761142 21.81527213 4.70785308
v 49.43294783 21.86493292 4.99991740
v 49.37189968 21.94094362 5.00000000
v 49.31500282 21.99496855 5.00000000
v 49.25153997 22.04110328 5.00000000
v 49.18259740 22.07855815 5.00000000
v 49.10935514 22.10669207 5.00000000
v 49.03306683 22.12502349 5.00000000
v 48.89289554 22.13604189 4.99996855
v 49.72290309 19.10920217 1.04214692
v 49.77576971 19.13487044 1.04076733
v 44.46526358 17.06866102 4.70785308
v 44.46771231 17.06201861 4.76525134
v 44.47392509 17.04516590 4.82022465
v 44.48367102 17.01872920 4.87073004
v 44.49658791 16.98369096 4.91489058
v 44.51219574 16.94135333 4.95106513
v 44.52991447 16.89328969 4.97790932
v 44.54908562 16.84128624 4.99442554
v 44.56899672 16.78727558 5.00000000
v 43.19763188 20.04122747 4.99994218
v 43.36288266 20.05896799 4.99442554
v 43.38205381 20.00696454 4.97790932
v 43.39977254 19.95890090 4.95106513
v 43.41538037 19.91656327 4.91489058
v 43.42829726 19.88152503 4.87073004
v 43.43804319 19.85508833 4.82022465
v 43.44425596 19.83823562 4.76525134
v 43.44670470 19.83159321 4.70785308
v 48.77074918 21.69200491 1.04214692
v 49.86078340 19.47622694 0.74583824
v 49.63908105 19.33657696 0.75557446
v 49.65825220 19.28457351 0.77209068
v 49.67597092 19.23650987 0.79893487
v 49.69157875 19.19417223 0.83510942
v 49.70449565 19.15913399 0.87926996
v 49.71424158 19.13269729 0.92977535
v 49.72045435 19.11584458 0.98474866
v 44.08014500 17.24631332 4.70785308
v 44.04178466 17.01801996 4.94946174
v 44.13364324 17.15812884 4.70998277
v 44.18519935 17.11216965 4.71072647
v 44.27279814 17.06795286 4.71085418
v 44.36920628 17.05204147 4.70989638
v 43.17061201 19.71459993 4.93739464
v 43.26905240 19.44647463 4.70785308
v 43.35852022 19.77809497 4.70998277
v 43.31256104 19.72653887 4.71072647
v 43.26834425 19.63894007 4.71085418
v 43.25243286 19.54253193 4.70989638
v 43.08935598 19.93386603 5.00000000
v 43.04322125 19.87040319 5.00000000
v 43.00576638 19.80146061 5.00000000
v 42.97763246 19.72821835 5.00000000
v 42.95930104 19.65193005 5.00000000
v 42.95108588 19.57390148 5.00000000
v 42.95320478 19.49029023 4.99996068
v 48.77319792 21.68536251 0.98474866
v 48.77941069 21.66850980 0.92977535
v 48.78915662 21.64207309 0.87926996
v 48.80207351 21.60703486 0.83510942
v 48.81768134 21.56469722 0.79893487
v 48.83540007 21.51663358 0.77209068
v 48.85457122 21.46463013 0.75557446
v 48.97097134 21.62014503 0.81726321
v 44.47806606 17.18197004 0.99800538
v 44.43830378 17.41930302 0.75557446
v 44.45747492 17.36729957 0.77209068
v 44.47519365 17.31923593 0.79893487
v 44.49080148 17.27689829 0.83510942
v 44.50371838 17.24186005 0.87926996
v 44.51346431 17.21542335 0.92977535
v 44.51967708 17.19857064 0.98474866
v 44.13700724 17.36958053 1.04214692
v 44.46524853 17.17713925 1.04076733
v 44.40931861 17.18846117 0.93142170
v 44.34834967 17.18180825 1.03911100
v 44.29281655 17.20108696 1.03889786
v 44.19816229 17.26986010 1.03974224
v 44.16267550 17.31671391 1.04076733
v 43.37753063 19.44648968 1.04076733
v 43.38219964 19.56338854 1.03911100
v 43.40147835 19.61892166 1.03889786
v 43.47025148 19.71357592 1.03974224
v 43.51710529 19.74906271 1.04076733
v 43.67370505 19.49334554 0.75000000
v 43.57242064 19.76808857 0.98474866
v 43.57863342 19.75123586 0.92977535
v 43.58837935 19.72479915 0.87926996
v 43.60129624 19.68976092 0.83510942
v 43.61690407 19.64742328 0.79893487
v 43.63462280 19.59935964 0.77209068
v 43.65379395 19.54735619 0.75557446
v 44.26431493 17.41651269 0.79893487
v 44.22197729 17.40090486 0.83510942
v 44.18693906 17.38798796 0.87926996
v 44.16050235 17.37824204 0.92977535
v 44.14364965 17.37202926 0.98474866
v 44.38605609 17.43125130 0.75390409
v 44.31256659 17.37049217 0.78450345
v 44.24823335 17.25355239 0.89779487
v 44.39004903 17.34000712 0.77220199
v 43.39896202 19.39206113 0.98474866
v 43.41581473 19.39827390 0.92977535
v 43.44225144 19.40801983 0.87926996
v 43.47728967 19.42093673 0.83510942
v 43.51962731 19.43654456 0.79893487
v 43.56769095 19.45426329 0.77209068
v 43.97438994 18.45694803 0.75557424
v 43.62143448 19.51745756 0.75557446
v 43.58627523 19.49327138 0.76155325
v 43.47378424 19.62162291 0.82182303
v 43.52815552 19.75179102 0.99509319
v 43.41409839 19.52143535 0.87197988
v 43.39128204 19.40629633 0.99470319
v 53.88699043 9.82528612 5.00000000
v 53.83297978 9.80537502 4.99442554
v 53.78097633 9.78620387 4.97790932
v 53.78112586 9.82886539 4.91866312
v 54.59206893 7.58604255 4.97790932
v 54.64407238 7.60521370 4.99442554
v 54.69808303 7.62512480 5.00000000
v 54.23904530 7.13627308 4.70785308
v 54.24770681 7.11277797 4.82022465
v 54.25745273 7.08634126 4.87073004
v 54.27036963 7.05130303 4.91489058
v 54.28597746 7.00896539 4.95106513
v 54.30369619 6.96090175 4.97790932
v 54.32286734 6.90889830 4.99442554
v 54.43115304 6.89561051 4.99995649
v 54.52298114 6.95823497 4.99999566
v 54.61845551 7.06218359 5.00000000
v 54.67194597 7.14966670 5.00000000
v 54.70467539 7.22892771 5.00000000
v 54.72298199 7.29752331 5.00000000
v 54.73510366 7.41275493 5.00000000
v 54.72567600 7.52363067 5.00000000
v 54.32722977 7.18977133 4.70998277
v 54.37318896 7.24132743 4.71072647
v 54.51304298 7.24309033 4.93552674
v 54.36606105 7.18501142 4.81442157
v 53.13666438 10.12658006 4.99442554
v 53.15583552 10.07457661 4.97790932
v 53.17355425 10.02651297 4.95106513
v 53.18916208 9.98417533 4.91489058
v 53.20207898 9.94913710 4.87073004
v 53.21182491 9.92270039 4.82022465
v 53.21803768 9.90584768 4.76525134
v 53.22048641 9.89920527 4.70785308
v 54.13185888 8.48444385 0.77812675
v 53.31654371 9.91582482 4.70989638
v 53.84613151 9.91339833 5.00000000
v 53.80944023 9.97042120 5.00000000
v 53.76913287 10.02009801 5.00000000
v 53.67969449 10.10096319 5.00000000
v 53.59221138 10.15445365 5.00000000
v 53.51295036 10.18718307 5.00000000
v 53.44435477 10.20548967 5.00000000
v 53.32912315 10.21761134 5.00000000
v 53.21818939 10.20844792 4.99995338
v 54.21539884 7.34493799 0.82660462
v 54.21549851 7.25429037 1.03974224
v 54.16864470 7.21880358 1.04076733
v 48.85813858 5.15259417 4.70785308
v 48.86058731 5.14595176 4.76525134
v 48.86680009 5.12909905 4.82022465
v 48.87654601 5.10266234 4.87073004
v 48.88946291 5.06762411 4.91489058
v 48.90507074 5.02528647 4.95106513
v 48.92278947 4.97722283 4.97790932
v 48.87376809 4.86180681 4.99916698
v 48.96187172 4.87120873 5.00000000
v 47.73584655 8.19691179 5.00000000
v 47.75575766 8.14290114 4.99442554
v 47.77492880 8.09089769 4.97790932
v 47.79264753 8.04283405 4.95106513
v 47.80825536 8.00049641 4.91489058
v 47.82117226 7.96545818 4.87073004
v 47.83091819 7.93902147 4.82022465
v 47.83713096 7.92216877 4.76525134
v 47.83957970 7.91552636 4.70785308
v 53.16362418 9.77593806 1.04214692
v 53.22050146 9.79072704 1.04076733
v 54.01204494 7.47452076 0.75000000
v 54.03195605 7.42051010 0.75557446
v 54.05112719 7.36850665 0.77209068
v 54.06884592 7.32044301 0.79893487
v 54.08445375 7.27810538 0.83510942
v 54.09737065 7.24306714 0.87926996
v 54.10711658 7.21663043 0.92977535
v 54.11332935 7.19977773 0.98474866
v 54.06431552 7.45040873 0.75557446
v 54.15759452 7.21607530 0.99509320
v 48.47302000 5.33024646 4.70785308
v 48.45559355 5.12787860 4.91142981
v 47.56328366 7.79349659 4.93653165
v 48.26918476 5.08137824 5.00000000
v 48.30949212 5.03170143 5.00000000
v 48.39893050 4.95083625 5.00000000
v 48.48641362 4.89734579 5.00000000
v 48.56567463 4.86461637 5.00000000
v 48.63427022 4.84630977 5.00000000
v 48.74950184 4.83418810 5.00000000
v 48.52651824 5.24206199 4.70998277
v 48.57807434 5.19610280 4.71072647
v 48.66567313 5.15188601 4.71085418
v 48.76208128 5.13597462 4.70989638
v 47.66192740 7.53040778 4.70785308
v 47.75139522 7.86202811 4.70998277
v 47.70543603 7.81047201 4.71072647
v 47.66121924 7.72287322 4.71085418
v 47.64530785 7.62646508 4.70989638
v 47.54103466 8.07905423 5.00000000
v 47.46016949 7.98961585 5.00000000
v 47.40667903 7.90213274 5.00000000
v 47.37394961 7.82287173 5.00000000
v 47.35564300 7.75427613 5.00000000
v 47.34352133 7.63904451 5.00000000
v 47.35358213 7.51372620 4.99894599
v 47.61380360 8.04022772 4.98903332
v 53.16607291 9.76929565 0.98474866
v 53.17228569 9.75244294 0.92977535
v 53.18203162 9.72600624 0.87926996
v 53.19494851 9.69096800 0.83510942
v 53.21055634 9.64863037 0.79893487
v 53.22827507 9.60056673 0.77209068
v 53.24744622 9.54856328 0.75557446
v 53.37622137 9.73101397 0.83428800
v 48.91500081 5.27586138 1.04214692
v 48.83117878 5.50323616 0.75557446
v 48.85034992 5.45123271 0.77209068
v 48.86806865 5.40316907 0.79893487
v 48.88367648 5.36083144 0.83510942
v 48.89659338 5.32579320 0.87926996
v 48.90633931 5.29935649 0.92977535
v 48.91255208 5.28250379 0.98474866
v 48.85812353 5.26107240 1.04076733
v 48.74122467 5.26574140 1.03911100
v 48.68569155 5.28502011 1.03889786
v 48.59103728 5.35379325 1.03974224
v 48.55555050 5.40064706 1.04076733
v 47.78519461 7.47354554 1.04214692
v 47.77040563 7.53042282 1.04076733
v 47.77507463 7.64732168 1.03911100
v 47.79435334 7.70285481 1.03889786
v 47.86312648 7.79750907 1.03974224
v 47.90998029 7.83299586 1.04076733
v 47.96529564 7.85202171 0.98474866
v 47.97150842 7.83516901 0.92977535
v 47.98125434 7.80873230 0.87926996
v 47.99417124 7.77369406 0.83510942
v 48.00977907 7.73135643 0.79893487
v 48.02749780 7.68329279 0.77209068
v 48.04666895 7.63128934 0.75557446
v 48.75521766 5.52808393 0.75334701
v 48.70525357 5.51816457 0.77209068
v 48.65718993 5.50044584 0.79893487
v 48.61485229 5.48483801 0.83510942
v 48.57981406 5.47192111 0.87926996
v 48.55337735 5.46217518 0.92977535
v 48.53652464 5.45596241 0.98474866
v 48.69393575 5.36578248 0.81096033
v 48.55090563 5.41353310 0.99800538
v 48.81245477 5.26981649 0.93847843
v 47.79183702 7.47599428 0.98474866
v 47.80868973 7.48220705 0.92977535
v 47.83512643 7.49195298 0.87926996
v 47.87016467 7.50486987 0.83510942
v 47.91250231 7.52047770 0.79893487
v 48.02306649 7.60168235 0.75381921
v 47.92194949 7.58021425 0.77929116
v 47.87547722 7.71204903 0.82431779
v 47.92103049 7.83572415 0.99509321
v 47.77914972 7.57609158 0.93847845
v 38.17973034 26.28581990 -5.00000000
v 38.12571969 26.26590880 -4.99442554
v 38.07371624 26.24673765 -4.97790932
v 38.02565260 26.22901892 -4.95106513
v 37.98331496 26.21341109 -4.91489058
v 37.94827673 26.20049420 -4.87073004
v 37.92184002 26.19074827 -4.82022465
v 37.90498732 26.18453550 -4.76525134
v 37.89834491 26.18208676 -4.70785308
v 39.66709977 29.70090975 -4.97790932
v 39.68627092 29.64890629 -4.99442554
v 39.70618202 29.59489564 -5.00000000
v 38.08407508 26.60902669 -5.00000000
v 38.03142512 26.94195392 -5.00000000
v 38.05799325 27.61411493 -5.00000000
v 38.13675675 27.94184785 -5.00000000
v 38.41852739 28.55267646 -5.00000000
v 38.61671334 28.82532071 -5.00000000
v 39.11078945 29.28182381 -5.00000000
v 39.39822583 29.45787177 -5.00000000
v 38.61487724 29.27806569 -4.91523521
v 38.05290027 28.27093105 -4.97205793
v 37.76629163 26.96694516 -4.93199180
v 46.21959579 32.11864024 -4.91462817
v 45.29673765 31.77628376 -4.97790932
v 45.31590880 31.72428031 -4.99442554
v 45.33581990 31.67026966 -5.00000000
v 49.04085435 -3.17595169 -5.00000000
v 48.98684370 -3.19586279 -4.99442554
v 48.93484025 -3.21503394 -4.97790932
v 48.88677661 -3.23275267 -4.95106513
v 48.84443897 -3.24836050 -4.91489058
v 48.80940074 -3.26127739 -4.87073004
v 48.78296403 -3.27102332 -4.82022465
v 48.75946892 -3.27968483 -4.70785308
v 49.80731281 28.83109532 -2.79184790
v 48.90278596 30.23888961 -4.82022465
v 48.87634926 30.22914368 -4.87073004
v 48.84131102 30.21622679 -4.91489058
v 48.79897339 30.20061896 -4.95106513
v 48.75090975 30.18290023 -4.97790932
v 48.64489564 30.14381798 -5.00000000
v 45.65902669 31.76592492 -5.00000000
v 45.99195392 31.81857488 -5.00000000
v 46.66411493 31.79200675 -5.00000000
v 46.99184785 31.71324325 -5.00000000
v 47.39572341 31.84927733 -4.93099105
v 47.60267646 31.43147261 -5.00000000
v 47.87532071 31.23328666 -5.00000000
v 48.29058451 31.26348993 -4.92011770
v 48.33182381 30.73921055 -5.00000000
v 48.50787177 30.45177417 -5.00000000
v 49.28949289 -4.01002607 -4.97610089
v 49.17638125 -4.15358684 -4.76899852
v 59.86550882 0.46031788 -4.83403018
v 59.73747327 0.76737209 -4.87073004
v 59.70243503 0.75445520 -4.91489058
v 59.66009740 0.73884737 -4.95106513
v 59.61203376 0.72112864 -4.97790932
v 59.56003030 0.70195749 -4.99442554
v 59.50601965 0.68204639 -5.00000000
v 59.60167491 0.35883960 -5.00000000
v 58.93943324 -2.67058265 -4.97124095
v 39.62104061 29.82584934 5.00000000
v 37.66739121 26.09694535 4.69214692
v 37.47404763 27.19100118 4.89856713
v 38.58522027 29.56302834 4.90489816
v 37.67151794 26.09846668 4.75177214
v 37.68665650 26.10404753 4.80934115
v 37.71220563 26.11346626 4.86256747
v 37.74715061 26.12634877 4.90933714
v 37.83935845 26.16034132 4.97640653
v 37.89295910 26.18010128 4.99404248
v 37.94877664 26.20067849 5.00000000
v 39.28366731 29.67573645 5.00000000
v 38.96877394 29.48287174 5.00000000
v 38.42750186 28.98276178 5.00000000
v 38.21038446 28.68407355 5.00000000
v 37.90169806 28.01489633 5.00000000
v 37.81541077 27.65585715 5.00000000
v 37.78630475 26.91948885 5.00000000
v 37.78641202 28.48104170 4.92408338
v 37.66878362 26.52980717 4.95761018
v 48.53264195 -3.36330491 4.75177214
v 48.54778051 -3.35772406 4.80934115
v 48.57332964 -3.34830534 4.86256747
v 48.60827462 -3.33542282 4.90933714
v 48.65122755 -3.31958816 4.94779260
v 48.70048246 -3.30143027 4.97640653
v 48.80990065 -3.26109310 5.00000000
v 45.25067849 31.90122336 5.00000000
v 38.77424005 32.20028861 1.51345187
v 49.16116309 -4.40360220 4.92554756
v 48.87584934 30.22895939 5.00000000
v 48.93166689 30.24953661 4.99404248
v 48.98526754 30.26929656 4.97640653
v 49.03452245 30.28745446 4.94779260
v 49.07747537 30.30328911 4.90933714
v 49.11242035 30.31617163 4.86256747
v 49.13796949 30.32559035 4.80934115
v 49.15310805 30.33117121 4.75177214
v 46.18756549 32.37777344 4.91686149
v 48.77622262 31.03497077 4.88034666
v 48.72573645 30.56633269 5.00000000
v 48.53287174 30.88122606 5.00000000
v 48.03276178 31.42249814 5.00000000
v 47.73407355 31.63961554 5.00000000
v 47.06489633 31.94830194 5.00000000
v 46.70585715 32.03458923 5.00000000
v 45.96948885 32.06369525 5.00000000
v 45.60475919 32.00601596 5.00000000
v 48.36113673 31.25332241 4.98962067
v 47.77341469 31.96537095 4.89963576
v 59.73697335 0.76718780 5.00000000
v 59.79279090 0.78776502 4.99404248
v 59.84639155 0.80752497 4.97640653
v 59.89564646 0.82568287 4.94779260
v 59.93859938 0.84151752 4.90933714
v 59.97354436 0.85440004 4.86256747
v 59.99909350 0.86381876 4.80934115
v 60.01652232 1.32791335 4.22761082
v 59.58576064 -1.93082762 4.98363037
v 59.89944524 0.04837744 5.00000000
v 59.84176596 0.41310711 5.00000000
v 60.19233941 -0.29864322 4.92613694
v 53.50961042 9.99510318 -4.94487964
v 54.54890139 7.40391697 -4.90480009
v 54.34277844 6.85488765 -5.00000000
v 54.32286734 6.90889830 -4.99442554
v 54.30369619 6.96090175 -4.97790932
v 54.28597746 7.00896539 -4.95106513
v 54.27036963 7.05130303 -4.91489058
v 54.25745273 7.08634126 -4.87073004
v 54.24770681 7.11277797 -4.82022465
v 54.24149403 7.12963067 -4.76525134
v 54.23904530 7.13627308 -4.70785308
v 54.32290484 7.18598014 -4.70989638
v 54.73262238 7.47239808 -5.00000000
v 54.73466411 7.39396482 -5.00000000
v 54.72644896 7.31593625 -5.00000000
v 54.70811754 7.23964794 -5.00000000
v 54.67998362 7.16640568 -5.00000000
v 54.64252875 7.09746311 -5.00000000
v 54.59639401 7.03400026 -5.00000000
v 54.49691587 6.93463476 -4.99996855
v 53.22048641 9.89920527 -4.70785308
v 53.21803768 9.90584768 -4.76525134
v 53.21182491 9.92270039 -4.82022465
v 53.20207898 9.94913710 -4.87073004
v 53.18916208 9.98417533 -4.91489058
v 53.17355425 10.02651297 -4.95106513
v 53.15583552 10.07457661 -4.97790932
v 53.13666438 10.12658006 -4.99442554
v 53.27392336 10.22032153 -4.99993794
v 53.42594183 10.20895664 -5.00000000
v 53.50223013 10.19062522 -5.00000000
v 53.57547239 10.16249130 -5.00000000
v 53.64441497 10.12503643 -5.00000000
v 53.70787782 10.07890170 -5.00000000
v 53.76477468 10.02487676 -5.00000000
v 53.81413169 9.96388634 -5.00000000
v 53.86568230 9.87694630 -4.99999702
v 53.32229456 9.91574808 -4.70998277
v 53.39072079 9.90636033 -4.71072647
v 53.48121647 9.86842348 -4.71085418
v 53.55589794 9.80541252 -4.70989638
v 48.80473714 4.83145234 -4.99994218
v 48.94196062 4.92521938 -4.99442554
v 48.92278947 4.97722283 -4.97790932
v 48.90507074 5.02528647 -4.95106513
v 48.88946291 5.06762411 -4.91489058
v 48.87654601 5.10266234 -4.87073004
v 48.86680009 5.12909905 -4.82022465
v 48.86058731 5.14595176 -4.76525134
v 48.85813858 5.15259417 -4.70785308
v 54.12914329 7.20317541 -0.99470319
v 54.16864470 7.21880358 -1.04076733
v 54.26633311 7.60909209 -0.84434242
v 53.43832825 9.66106312 -0.82515687
v 53.44364495 9.73704819 -1.03911100
v 53.39293345 9.76677933 -1.03889786
v 53.27917782 9.79414410 -1.03974224
v 53.22050146 9.79072704 -1.04076733
v 47.83957970 7.91552636 -4.70785308
v 47.83713096 7.92216877 -4.76525134
v 47.83091819 7.93902147 -4.82022465
v 47.82117226 7.96545818 -4.87073004
v 47.80825536 8.00049641 -4.91489058
v 47.79264753 8.04283405 -4.95106513
v 47.77492880 8.09089769 -4.97790932
v 47.75575766 8.14290114 -4.99442554
v 47.73584655 8.19691179 -5.00000000
v 48.47890739 5.12101065 -4.90748283
v 48.47302000 5.33024646 -4.70785308
v 48.75633043 5.13605136 -4.70998277
v 48.68790420 5.14543911 -4.71072647
v 48.59740852 5.18337596 -4.71085418
v 48.52272705 5.24638692 -4.70989638
v 48.65268316 4.84284280 -5.00000000
v 48.57639486 4.86117422 -5.00000000
v 48.50315260 4.88930814 -5.00000000
v 48.43421002 4.92676301 -5.00000000
v 48.37074718 4.97289774 -5.00000000
v 48.31385031 5.02692268 -5.00000000
v 48.26449330 5.08791310 -5.00000000
v 54.01204494 7.47452076 -0.75000000
v 54.11332935 7.19977773 -0.98474866
v 54.10711658 7.21663043 -0.92977535
v 54.09737065 7.24306714 -0.87926996
v 54.08445375 7.27810538 -0.83510942
v 54.06884592 7.32044301 -0.79893487
v 54.05112719 7.36850665 -0.77209068
v 54.03195605 7.42051010 -0.75557446
v 54.18918399 7.31762783 -0.82751517
v 54.06431552 7.45040873 -0.75557446
v 53.26735732 9.49455262 -0.75000000
v 53.24744622 9.54856328 -0.75557446
v 53.22827507 9.60056673 -0.77209068
v 53.21055634 9.64863037 -0.79893487
v 53.19494851 9.69096800 -0.83510942
v 53.18203162 9.72600624 -0.87926996
v 53.17228569 9.75244294 -0.92977535
v 53.16607291 9.76929565 -0.98474866
v 53.18030819 9.77697566 -0.99470318
v 53.29146934 9.54682320 -0.75557446
v 53.30937463 9.72582060 -0.82436739
v 47.66192740 7.53040778 -4.70785308
v 47.55129298 7.78947520 -4.94284017
v 47.36322686 7.47980054 -4.99999643
v 47.34600261 7.57940135 -5.00000000
v 47.34396088 7.65783462 -5.00000000
v 47.35217603 7.73586319 -5.00000000
v 47.37050745 7.81215150 -5.00000000
v 47.39864138 7.88539376 -5.00000000
v 47.43609625 7.95433633 -5.00000000
v 47.48223098 8.01779918 -5.00000000
v 47.58170912 8.11716468 -4.99996855
v 47.64538459 7.63221593 -4.70998277
v 47.65477235 7.70064215 -4.71072647
v 47.69270919 7.79113783 -4.71085418
v 47.75572015 7.86581930 -4.70989638
v 48.91500081 5.27586138 -1.04214692
v 48.55555050 5.40064706 -1.04076733
v 48.63498004 5.31475125 -1.03911100
v 48.68569155 5.28502011 -1.03889786
v 48.79944717 5.25765534 -1.03974224
v 48.85812353 5.26107240 -1.04076733
v 48.81126767 5.55724682 -0.75000000
v 48.91255208 5.28250379 -0.98474866
v 48.90633931 5.29935649 -0.92977535
v 48.89659338 5.32579320 -0.87926996
v 48.88367648 5.36083144 -0.83510942
v 48.86806865 5.40316907 -0.79893487
v 48.85034992 5.45123271 -0.77209068
v 48.83117878 5.50323616 -0.75557446
v 47.96284691 7.85866412 -1.04214692
v 48.04666895 7.63128934 -0.75557446
v 48.02749780 7.68329279 -0.77209068
v 48.00977907 7.73135643 -0.79893487
v 47.99417124 7.77369406 -0.83510942
v 47.98125434 7.80873230 -0.87926996
v 47.97150842 7.83516901 -0.92977535
v 47.96529564 7.85202171 -0.98474866
v 47.78519461 7.47354554 -1.04214692
v 47.90998029 7.83299586 -1.04076733
v 47.82408448 7.75356631 -1.03911100
v 47.79435334 7.70285481 -1.03889786
v 47.76698857 7.58909918 -1.03974224
v 47.77040563 7.53042282 -1.04076733
v 48.53652464 5.45596241 -0.98474866
v 48.55337735 5.46217518 -0.92977535
v 48.57981406 5.47192111 -0.87926996
v 48.61485229 5.48483801 -0.83510942
v 48.65718993 5.50044584 -0.79893487
v 48.70525357 5.51816457 -0.77209068
v 48.75725702 5.53733571 -0.75557446
v 48.53992232 5.44014847 -0.99470319
v 48.79018282 5.32026434 -0.82728708
v 48.65437474 5.38010778 -0.82751516
v 48.78715565 5.50497624 -0.75557446
v 48.01256940 7.55736758 -0.75557446
v 47.96056595 7.53819643 -0.77209068
v 47.91250231 7.52047770 -0.79893487
v 47.87016467 7.50486987 -0.83510942
v 47.83512643 7.49195298 -0.87926996
v 47.80868973 7.48220705 -0.92977535
v 47.79183702 7.47599428 -0.98474866
v 47.85949446 7.76116845 -0.89982404
v 48.02236458 7.60296891 -0.75363613
v 47.83319703 7.63889371 -0.82101571
v 49.21273000 21.63761983 -4.70785308
v 49.13588247 21.89556367 -4.93306462
v 49.41378829 21.87335814 -4.99929770
v 50.16970390 19.26379579 -4.92955289
v 50.02382260 19.43745852 -4.70785308
v 49.92999234 18.82496515 -4.99442554
v 49.91082119 18.87696860 -4.97790932
v 49.89310246 18.92503224 -4.95106513
v 49.87749463 18.96736988 -4.91489058
v 49.86457774 19.00240812 -4.87073004
v 49.85483181 19.02884482 -4.82022465
v 49.84861903 19.04569753 -4.76525134
v 49.84617030 19.05233994 -4.70785308
v 50.04036540 19.33565037 -4.70998277
v 50.03097765 19.26722414 -4.71072647
v 49.99304080 19.17672846 -4.71085418
v 49.93002984 19.10204699 -4.70989638
v 50.32748372 19.46596041 -5.00000000
v 50.33974738 19.38846494 -5.00000000
v 50.34178911 19.31003167 -5.00000000
v 50.33357396 19.23200310 -5.00000000
v 50.31524254 19.15571480 -5.00000000
v 50.28710862 19.08247254 -5.00000000
v 50.24965375 19.01352996 -5.00000000
v 50.20351902 18.95006711 -5.00000000
v 50.09525355 18.84274819 -4.99993794
v 48.82761142 21.81527213 -4.70785308
v 48.82516268 21.82191454 -4.76525134
v 48.81894991 21.83876724 -4.82022465
v 48.80920398 21.86520395 -4.87073004
v 48.79628708 21.90024218 -4.91489058
v 48.78067926 21.94257982 -4.95106513
v 48.76296053 21.99064346 -4.97790932
v 48.74378938 22.04264691 -4.99442554
v 48.72387828 22.09665756 -5.00000000
v 48.89289554 22.13604189 -4.99996855
v 49.03306683 22.12502349 -5.00000000
v 49.10935514 22.10669207 -5.00000000
v 49.18259740 22.07855815 -5.00000000
v 49.25153997 22.04110328 -5.00000000
v 49.31500282 21.99496855 -5.00000000
v 49.37189968 21.94094362 -5.00000000
v 48.92941957 21.83181493 -4.70998277
v 48.99784579 21.82242718 -4.71072647
v 49.08834147 21.78449033 -4.71085418
v 49.16302294 21.72147937 -4.70989638
v 44.56899672 16.78727558 -5.00000000
v 44.54908562 16.84128624 -4.99442554
v 44.52991447 16.89328969 -4.97790932
v 44.51219574 16.94135333 -4.95106513
v 44.49658791 16.98369096 -4.91489058
v 44.48367102 17.01872920 -4.87073004
v 44.47392509 17.04516590 -4.82022465
v 44.46526358 17.06866102 -4.70785308
v 49.73626830 19.11924226 -0.99470319
v 49.90055538 19.49432075 -1.04214692
v 49.77576971 19.13487044 -1.04076733
v 49.86166552 19.21429998 -1.03911100
v 49.89139665 19.26501148 -1.03889786
v 49.91876142 19.37876711 -1.03974224
v 49.91534436 19.43744347 -1.04076733
v 49.14839036 21.52349729 -0.99674862
v 49.13019950 21.56721924 -1.04076733
v 49.05076995 21.65311505 -1.03911100
v 49.00005845 21.68284618 -1.03889786
v 48.88630282 21.71021096 -1.03974224
v 48.82762646 21.70679390 -1.04076733
v 43.44670470 19.83159321 -4.70785308
v 43.44425596 19.83823562 -4.76525134
v 43.43804319 19.85508833 -4.82022465
v 43.42829726 19.88152503 -4.87073004
v 43.41538037 19.91656327 -4.91489058
v 43.39977254 19.95890090 -4.95106513
v 43.38205381 20.00696454 -4.97790932
v 43.36288266 20.05896799 -4.99442554
v 43.79875956 17.14258017 -5.00000000
v 43.85277022 17.16249128 -4.99442554
v 43.90477367 17.18166242 -4.97790932
v 43.95283731 17.19938115 -4.95106513
v 43.99517494 17.21498898 -4.91489058
v 44.03021318 17.22790588 -4.87073004
v 44.05664989 17.23765181 -4.82022465
v 44.07350259 17.24386458 -4.76525134
v 44.08014500 17.24631332 -4.70785308
v 44.36345543 17.05211821 -4.70998277
v 44.29502920 17.06150597 -4.71072647
v 44.20453352 17.09944281 -4.71085418
v 44.12985205 17.16245377 -4.70989638
v 44.20396208 16.91346275 -4.97454941
v 44.33700605 17.02329308 -4.81441969
v 49.67318060 19.41049871 -0.75557446
v 49.72518405 19.42966986 -0.77209068
v 49.77324769 19.44738859 -0.79893487
v 49.81558533 19.46299642 -0.83510942
v 49.85062356 19.47591331 -0.87926996
v 49.87706027 19.48565924 -0.92977535
v 49.89391297 19.49187202 -0.98474866
v 49.72045435 19.11584458 -0.98474866
v 49.71424158 19.13269729 -0.92977535
v 49.70449565 19.15913399 -0.87926996
v 49.69157875 19.19417223 -0.83510942
v 49.67597092 19.23650987 -0.79893487
v 49.65825220 19.28457351 -0.77209068
v 49.63908105 19.33657696 -0.75557446
v 49.82590098 19.21052279 -0.89777062
v 49.85059665 19.33263540 -0.82024077
v 49.66320966 19.36480199 -0.75362073
v 48.87448232 21.41061948 -0.75000000
v 48.85457122 21.46463013 -0.75557446
v 48.83540007 21.51663358 -0.77209068
v 48.81768134 21.56469722 -0.79893487
v 48.80207351 21.60703486 -0.83510942
v 48.78915662 21.64207309 -0.87926996
v 48.77941069 21.66850980 -0.92977535
v 48.77319792 21.68536251 -0.98474866
v 49.14922535 21.51190389 -0.98474866
v 49.13237265 21.50569111 -0.92977535
v 49.10593594 21.49594518 -0.87926996
v 49.07089770 21.48302829 -0.83510942
v 49.02856007 21.46742046 -0.79893487
v 48.98049643 21.44970173 -0.77209068
v 48.92849298 21.43053058 -0.75557446
v 48.91649964 21.64188744 -0.82436739
v 48.78743313 21.69304249 -0.99470318
v 49.03137524 21.58775853 -0.82751516
v 48.89859435 21.46289005 -0.75557446
v 43.26905240 19.44647463 -4.70785308
v 43.26240999 19.44402590 -4.76525134
v 43.24555729 19.43781312 -4.82022465
v 43.21912058 19.42806719 -4.87073004
v 43.18408235 19.41515030 -4.91489058
v 43.14174471 19.39954247 -4.95106513
v 43.09368107 19.38182374 -4.97790932
v 43.04167762 19.36265259 -4.99442554
v 42.95392743 19.47639196 -4.99992600
v 42.95108588 19.57390148 -5.00000000
v 42.95930104 19.65193005 -5.00000000
v 42.97763246 19.72821835 -5.00000000
v 43.00576638 19.80146061 -5.00000000
v 43.04322125 19.87040319 -5.00000000
v 43.08935598 19.93386603 -5.00000000
v 43.19762146 20.04118497 -4.99993794
v 43.25250959 19.54828278 -4.70998277
v 43.26189735 19.61670901 -4.71072647
v 43.29983420 19.70720469 -4.71085418
v 43.36284516 19.78188616 -4.70989638
v 43.17961220 19.72329698 -4.93372328
v 44.13700724 17.36958053 -1.04214692
v 44.52212582 17.19192823 -1.04214692
v 44.16267550 17.31671391 -1.04076733
v 44.24210505 17.23081810 -1.03911100
v 44.29281655 17.20108696 -1.03889786
v 44.40657217 17.17372219 -1.03974224
v 44.46524853 17.17713925 -1.04076733
v 44.41839267 17.47331367 -0.75000000
v 44.51967708 17.19857064 -0.98474866
v 44.51346431 17.21542335 -0.92977535
v 44.50371838 17.24186005 -0.87926996
v 44.49080148 17.27689829 -0.83510942
v 44.47519365 17.31923593 -0.79893487
v 44.43830378 17.41930302 -0.75557446
v 43.56997191 19.77473097 -1.04214692
v 43.65379395 19.54735619 -0.75557446
v 43.63462280 19.59935964 -0.77209068
v 43.61690407 19.64742328 -0.79893487
v 43.60129624 19.68976092 -0.83510942
v 43.58837935 19.72479915 -0.87926996
v 43.57863342 19.75123586 -0.92977535
v 43.57242064 19.76808857 -0.98474866
v 43.51710529 19.74906271 -1.04076733
v 43.43120948 19.66963317 -1.03911100
v 43.40147835 19.61892166 -1.03889786
v 43.37411357 19.50516604 -1.03974224
v 43.37753063 19.44648968 -1.04076733
v 44.14364965 17.37202926 -0.98474866
v 44.16050235 17.37824204 -0.92977535
v 44.18693906 17.38798796 -0.87926996
v 44.22197729 17.40090486 -0.83510942
v 44.32295775 17.33768962 -0.78364269
v 44.21911268 17.26565838 -0.93094631
v 44.40700966 17.19514073 -0.90994763
v 44.39428065 17.42104309 -0.75557446
v 44.40704742 17.35065026 -0.77158322
v 43.75387080 18.82370550 -0.78107875
v 43.47728967 19.42093673 -0.83510942
v 43.44225144 19.40801983 -0.87926996
v 43.41581473 19.39827390 -0.92977535
v 43.39896202 19.39206113 -0.98474866
v 43.46983760 19.68086309 -0.90109905
v 43.39128204 19.40629633 -0.99470319
v 43.43986197 19.57778366 -0.83189921
v 43.62153818 19.51866475 -0.75439198
v 59.93906904 -0.36328700 -4.92971235
v 37.82198901 27.99618526 -4.77629339
f 2 1 3
f 4 6 5
f 25 7 6
f 25 6 4
f 24 8 7
f 24 7 25
f 23 9 8
f 23 8 24
f 22 10 9
f 22 9 23
f 21 11 10
f 21 10 22
f 20 12 11
f 20 11 21
f 19 13 12
f 19 12 20
f 18 14 13
f 18 13 19
f 17 15 14
f 17 14 18
f 16 107 15
f 16 15 17
f 26 79 40
f 52 28 27
f 52 29 28
f 51 30 29
f 51 29 52
f 50 31 30
f 50 30 51
f 49 32 31
f 49 31 50
f 48 33 32
f 48 32 49
f 47 34 33
f 47 33 48
f 46 35 34
f 46 34 47
f 45 36 35
f 45 35 46
f 44 37 36
f 44 36 45
f 43 38 37
f 43 37 44
f 42 39 38
f 42 38 43
f 41 40 39
f 41 39 42
f 78 54 53
f 78 55 54
f 77 56 55
f 77 55 78
f 76 57 56
f 76 56 77
f 75 58 57
f 75 57 76
f 74 59 58
f 74 58 75
f 73 60 59
f 73 59 74
f 72 61 60
f 72 62 61
f 72 60 73
f 71 62 72
f 70 63 62
f 70 62 71
f 69 64 63
f 69 65 64
f 69 63 70
f 68 65 69
f 67 66 65
f 67 65 68
f 648 79 26
f 88 80 589
f 88 589 79
f 87 81 80
f 87 80 88
f 86 82 81
f 86 81 87
f 85 82 86
f 84 83 82
f 84 82 85
f 89 91 90
f 106 92 91
f 106 91 89
f 105 93 92
f 105 92 106
f 104 94 93
f 104 93 105
f 103 95 94
f 103 94 104
f 102 96 95
f 102 95 103
f 101 97 96
f 101 96 102
f 100 98 97
f 100 97 101
f 99 1 98
f 99 98 100
f 3 1 99
f 129 108 107
f 129 107 16
f 128 109 108
f 128 110 109
f 128 108 129
f 127 111 110
f 127 110 128
f 126 111 127
f 125 112 111
f 125 111 126
f 124 113 112
f 124 112 125
f 123 114 113
f 123 115 114
f 123 113 124
f 122 115 123
f 121 116 115
f 121 115 122
f 120 117 116
f 120 118 117
f 120 116 121
f 119 118 120
f 167 130 166
f 153 131 130
f 153 130 167
f 152 132 131
f 152 131 153
f 151 133 132
f 151 132 152
f 150 134 133
f 150 133 151
f 149 135 134
f 149 134 150
f 148 136 135
f 148 135 149
f 147 137 136
f 147 136 148
f 146 138 137
f 146 137 147
f 145 139 138
f 145 138 146
f 144 140 139
f 144 139 145
f 143 140 144
f 142 141 140
f 142 140 143
f 154 156 155
f 176 157 156
f 176 156 154
f 175 158 157
f 175 157 176
f 174 159 158
f 174 158 175
f 173 160 159
f 173 159 174
f 172 161 160
f 172 160 173
f 171 162 161
f 171 161 172
f 170 163 162
f 170 162 171
f 169 164 163
f 169 163 170
f 168 165 164
f 168 164 169
f 167 166 165
f 167 165 168
f 213 178 177
f 199 179 178
f 199 178 213
f 198 180 179
f 198 179 199
f 197 181 180
f 197 180 198
f 196 182 181
f 196 181 197
f 195 183 182
f 195 182 196
f 194 184 183
f 194 183 195
f 193 185 184
f 193 184 194
f 192 186 185
f 192 185 193
f 191 187 186
f 191 186 192
f 190 188 187
f 190 187 191
f 189 188 190
f 224 201 200
f 224 202 201
f 223 203 202
f 223 202 224
f 222 204 203
f 222 203 223
f 221 205 204
f 221 204 222
f 220 206 205
f 220 205 221
f 219 207 206
f 219 206 220
f 218 208 207
f 218 207 219
f 217 209 208
f 217 208 218
f 216 210 209
f 216 209 217
f 215 211 210
f 215 210 216
f 214 212 211
f 214 211 215
f 213 177 212
f 213 212 214
f 243 254 225
f 244 227 228
f 225 242 243
f 225 232 233
f 225 233 234
f 225 234 235
f 225 235 236
f 225 236 237
f 225 237 238
f 225 229 230
f 225 230 231
f 225 231 232
f 225 238 239
f 225 283 244
f 225 239 240
f 225 240 241
f 225 241 242
f 225 226 283
f 225 228 229
f 225 244 228
f 246 261 245
f 253 226 252
f 226 254 255
f 226 225 254
f 226 255 256
f 226 256 257
f 226 257 258
f 226 258 259
f 226 317 283
f 226 259 260
f 226 260 261
f 226 246 247
f 226 261 246
f 226 249 250
f 226 250 251
f 226 247 248
f 226 248 249
f 226 251 252
f 263 227 244
f 263 244 283
f 262 227 263
f 272 235 234
f 271 234 233
f 271 272 234
f 270 233 232
f 270 271 233
f 269 232 231
f 269 270 232
f 268 231 230
f 268 269 231
f 267 230 229
f 267 268 230
f 266 229 228
f 266 267 229
f 265 228 227
f 265 266 228
f 264 265 227
f 245 273 274
f 246 274 275
f 246 245 274
f 247 275 276
f 247 246 275
f 248 276 277
f 248 247 276
f 249 277 278
f 249 248 277
f 250 278 279
f 250 249 278
f 251 279 280
f 251 250 279
f 252 280 281
f 252 251 280
f 253 252 281
f 317 253 282
f 317 226 253
f 283 284 285
f 283 285 286
f 283 286 287
f 283 287 288
f 283 288 289
f 283 262 263
f 283 289 290
f 283 290 262
f 293 291 292
f 271 292 272
f 264 296 265
f 292 294 293
f 292 271 270
f 292 295 294
f 292 296 295
f 292 267 266
f 292 268 267
f 292 269 268
f 292 270 269
f 292 265 296
f 292 266 265
f 299 281 280
f 297 309 292
f 298 302 297
f 297 275 274
f 297 274 273
f 297 273 303
f 297 303 304
f 297 304 305
f 297 278 277
f 297 279 278
f 297 305 306
f 297 300 299
f 297 306 307
f 297 307 308
f 297 308 309
f 297 301 300
f 297 302 301
f 297 276 275
f 297 277 276
f 297 280 279
f 297 299 280
f 317 315 316
f 317 316 283
f 317 313 314
f 317 314 315
f 317 311 312
f 317 312 313
f 317 282 310
f 317 310 311
f 262 325 318
f 290 324 325
f 290 325 262
f 289 323 324
f 289 324 290
f 288 322 323
f 288 323 289
f 287 321 322
f 287 322 288
f 286 320 321
f 286 321 287
f 285 319 320
f 285 320 286
f 284 351 319
f 284 319 285
f 283 351 284
f 327 264 318
f 327 296 264
f 328 296 327
f 329 295 296
f 329 296 328
f 330 294 295
f 330 295 329
f 353 294 330
f 331 293 294
f 331 294 353
f 332 291 293
f 332 293 331
f 326 291 332
f 297 292 291
f 298 297 291
f 333 298 367
f 333 302 298
f 366 302 333
f 334 301 302
f 334 302 366
f 335 300 301
f 335 301 334
f 364 300 335
f 336 299 300
f 336 300 364
f 337 281 299
f 337 299 336
f 365 281 337
f 339 282 365
f 339 310 282
f 340 311 310
f 340 310 339
f 341 312 311
f 341 311 340
f 342 313 312
f 342 312 341
f 343 314 313
f 343 313 342
f 344 315 314
f 344 314 343
f 345 316 315
f 345 315 344
f 338 283 316
f 338 316 345
f 354 351 361
f 354 361 352
f 352 346 347
f 353 352 347
f 353 347 348
f 353 348 349
f 354 319 351
f 354 320 319
f 353 354 352
f 353 326 332
f 353 349 350
f 353 350 326
f 354 321 320
f 354 322 321
f 353 332 331
f 328 354 353
f 328 323 322
f 328 324 323
f 328 322 354
f 328 353 330
f 328 330 329
f 318 328 327
f 318 325 324
f 318 324 328
f 364 345 344
f 364 338 345
f 364 343 342
f 364 344 343
f 362 338 338
f 362 338 364
f 363 338 362
f 364 363 362
f 364 341 340
f 364 342 341
f 363 360 361
f 363 361 338
f 366 363 364
f 365 340 339
f 365 364 340
f 366 358 359
f 366 359 360
f 366 360 363
f 365 337 336
f 364 365 336
f 366 356 357
f 366 357 358
f 366 335 334
f 366 364 335
f 367 355 356
f 367 356 366
f 367 366 333
f 326 355 367
f 350 356 355
f 350 355 326
f 349 357 356
f 349 356 350
f 348 358 357
f 348 357 349
f 347 359 358
f 347 358 348
f 346 360 359
f 346 359 347
f 352 361 360
f 352 360 346
f 351 338 361
f 374 368 369
f 373 369 370
f 373 374 369
f 372 370 371
f 372 373 370
f 380 381 382
f 390 375 393
f 373 389 374
f 372 389 373
f 392 382 383
f 392 380 382
f 392 383 384
f 392 384 385
f 392 376 377
f 392 377 378
f 392 385 386
f 392 386 387
f 393 391 390
f 392 387 388
f 392 388 389
f 392 389 372
f 393 392 391
f 392 378 379
f 392 379 380
f 393 376 392
f 392 372 371
f 404 369 368
f 370 369 404
f 395 412 394
f 401 403 400
f 371 404 405
f 371 405 406
f 371 370 404
f 371 406 407
f 371 407 408
f 371 408 409
f 371 409 410
f 371 410 411
f 371 411 412
f 371 412 395
f 371 403 402
f 371 397 398
f 371 398 399
f 371 395 396
f 371 396 397
f 371 399 400
f 371 400 403
f 392 371 402
f 413 391 392
f 414 390 391
f 414 391 413
f 415 375 390
f 415 390 414
f 445 375 415
f 424 382 381
f 423 424 381
f 422 381 380
f 422 423 381
f 421 380 379
f 421 422 380
f 420 379 378
f 420 421 379
f 419 378 377
f 419 420 378
f 418 377 376
f 418 419 377
f 417 393 375
f 417 376 393
f 417 418 376
f 416 417 375
f 394 425 426
f 394 412 425
f 395 426 427
f 395 394 426
f 396 427 428
f 396 395 427
f 397 428 429
f 397 396 428
f 398 429 430
f 398 397 429
f 399 430 431
f 399 398 430
f 400 431 432
f 400 399 431
f 401 432 433
f 401 400 432
f 435 401 434
f 435 403 401
f 480 403 435
f 480 402 403
f 413 436 437
f 413 437 438
f 413 438 439
f 413 439 440
f 444 436 436
f 444 436 413
f 402 436 444
f 413 402 444
f 413 440 441
f 413 441 442
f 445 442 443
f 445 413 442
f 445 415 414
f 413 445 414
f 402 413 392
f 456 446 447
f 416 459 417
f 447 448 449
f 447 449 450
f 447 450 451
f 447 451 452
f 447 452 453
f 447 453 454
f 447 457 456
f 447 454 455
f 447 455 423
f 447 423 422
f 447 458 457
f 447 459 458
f 447 419 418
f 447 420 419
f 447 421 420
f 447 422 421
f 447 418 417
f 447 417 459
f 472 426 425
f 427 426 472
f 461 433 432
f 460 464 448
f 472 465 466
f 472 466 467
f 448 430 429
f 448 431 430
f 448 467 468
f 448 472 467
f 448 468 469
f 448 462 461
f 448 469 470
f 448 470 471
f 448 463 462
f 448 464 463
f 448 428 427
f 448 429 428
f 448 427 472
f 448 432 431
f 448 461 432
f 480 478 479
f 480 479 402
f 480 476 477
f 480 477 478
f 480 474 475
f 480 475 476
f 480 435 434
f 480 434 473
f 480 473 474
f 443 481 445
f 443 488 481
f 442 487 488
f 442 488 443
f 441 486 487
f 441 487 442
f 440 485 486
f 440 486 441
f 439 484 485
f 439 485 440
f 438 483 484
f 438 484 439
f 437 482 483
f 437 483 438
f 436 507 482
f 436 482 437
f 489 416 481
f 489 459 416
f 516 459 489
f 490 458 459
f 490 459 516
f 491 457 458
f 491 458 490
f 514 457 491
f 492 456 457
f 492 457 514
f 493 446 456
f 493 456 492
f 515 446 493
f 460 447 446
f 460 448 447
f 495 460 494
f 495 464 460
f 526 464 495
f 496 463 464
f 496 464 526
f 497 462 463
f 497 463 496
f 524 462 497
f 498 461 462
f 498 462 524
f 499 433 461
f 499 461 498
f 525 433 499
f 500 434 525
f 500 473 434
f 501 474 473
f 501 473 500
f 502 475 474
f 502 474 501
f 503 476 475
f 503 475 502
f 504 477 476
f 504 476 503
f 505 478 477
f 505 477 504
f 506 479 478
f 506 478 505
f 522 402 479
f 522 479 506
f 514 507 508
f 514 508 509
f 514 509 510
f 514 510 511
f 514 511 512
f 514 482 507
f 514 483 482
f 515 512 513
f 515 514 512
f 514 484 483
f 514 485 484
f 515 493 492
f 514 515 492
f 516 486 485
f 516 487 486
f 516 485 514
f 516 491 490
f 516 514 491
f 516 489 481
f 516 488 487
f 516 481 488
f 524 506 505
f 524 522 506
f 524 504 503
f 524 505 504
f 524 523 522
f 524 502 501
f 524 503 502
f 523 507 522
f 525 501 500
f 525 524 501
f 523 520 521
f 525 499 498
f 524 525 498
f 526 523 524
f 526 518 519
f 526 519 520
f 526 520 523
f 526 497 496
f 526 524 497
f 526 494 517
f 526 517 518
f 526 495 494
f 513 494 515
f 513 517 494
f 512 518 517
f 512 517 513
f 511 519 518
f 511 518 512
f 510 520 519
f 510 519 511
f 509 521 520
f 509 520 510
f 508 523 521
f 508 521 509
f 507 523 508
f 546 537 538
f 535 549 534
f 547 537 546
f 547 536 537
f 547 618 536
f 547 546 545
f 548 547 544
f 548 544 543
f 549 548 542
f 548 1010 547
f 549 542 541
f 1010 548 549
f 549 527 528
f 549 539 527
f 549 540 539
f 549 528 529
f 549 529 530
f 549 530 531
f 549 531 532
f 549 532 533
f 549 533 534
f 552 553 538
f 552 538 537
f 551 537 536
f 551 552 537
f 550 536 618
f 550 551 536
f 528 554 555
f 528 527 554
f 529 555 556
f 529 528 555
f 530 556 557
f 530 529 556
f 531 557 558
f 531 530 557
f 532 558 559
f 532 531 558
f 533 559 560
f 533 532 559
f 534 560 580
f 534 580 561
f 534 533 560
f 535 534 561
f 576 568 578
f 576 566 567
f 576 565 566
f 576 564 565
f 576 563 564
f 576 562 563
f 576 578 577
f 573 575 574
f 573 576 575
f 550 572 571
f 550 573 572
f 550 569 553
f 550 570 569
f 550 553 552
f 550 552 551
f 579 555 554
f 579 556 555
f 579 557 556
f 579 558 557
f 579 559 558
f 579 560 559
f 580 560 579
f 79 580 579
f 586 587 568
f 586 576 567
f 586 568 576
f 585 567 566
f 585 586 567
f 584 566 565
f 584 585 566
f 583 565 564
f 583 584 565
f 582 564 563
f 582 583 564
f 581 582 563
f 581 563 562
f 647 581 562
f 1009 587 586
f 1009 588 587
f 1009 585 584
f 1009 586 585
f 581 584 583
f 581 1009 584
f 581 583 582
f 594 592 591
f 593 590 618
f 593 601 590
f 593 602 601
f 608 603 593
f 608 604 603
f 592 605 608
f 592 606 605
f 592 594 595
f 609 592 595
f 609 595 596
f 609 596 597
f 609 598 599
f 609 599 600
f 609 167 607
f 609 600 167
f 609 607 592
f 616 600 599
f 619 616 599
f 615 599 598
f 615 619 599
f 614 609 597
f 614 598 609
f 614 615 598
f 613 597 596
f 613 614 597
f 612 596 595
f 612 613 596
f 611 595 594
f 611 612 595
f 610 594 591
f 610 611 594
f 580 610 591
f 618 590 617
f 619 610 580
f 619 611 610
f 619 612 611
f 619 613 612
f 619 614 613
f 619 615 614
f 630 620 621
f 629 627 562
f 629 626 627
f 629 625 626
f 629 624 625
f 629 623 624
f 629 622 623
f 629 621 622
f 629 630 621
f 638 631 630
f 638 630 629
f 639 638 629
f 639 632 638
f 639 633 632
f 628 634 639
f 628 635 634
f 628 637 636
f 628 618 617
f 628 617 637
f 621 640 641
f 621 620 640
f 622 641 642
f 622 621 641
f 623 642 643
f 623 622 642
f 624 643 644
f 624 623 643
f 625 644 645
f 625 624 644
f 626 645 646
f 626 625 645
f 627 646 647
f 627 626 646
f 562 627 647
f 651 647 646
f 651 646 645
f 651 645 644
f 651 643 642
f 651 644 643
f 651 642 641
f 651 641 640
f 651 650 649
f 651 640 650
f 663 661 662
f 671 654 655
f 652 664 653
f 653 658 659
f 653 659 660
f 653 663 704
f 653 655 656
f 653 671 655
f 653 670 671
f 653 669 670
f 653 668 669
f 653 667 668
f 653 666 667
f 653 665 666
f 653 664 665
f 653 660 661
f 653 661 663
f 653 656 657
f 653 657 658
f 692 652 653
f 687 688 652
f 673 689 672
f 652 692 691
f 652 691 690
f 652 686 687
f 652 685 686
f 652 684 685
f 652 690 689
f 652 683 684
f 652 674 675
f 652 675 676
f 652 682 683
f 652 681 682
f 652 680 681
f 652 678 679
f 652 679 680
f 652 673 674
f 652 689 673
f 652 676 677
f 652 677 678
f 654 693 694
f 655 694 695
f 655 654 694
f 656 695 696
f 656 655 695
f 657 696 697
f 657 656 696
f 658 697 698
f 658 657 697
f 659 698 699
f 659 658 698
f 660 699 700
f 660 659 699
f 661 700 701
f 661 660 700
f 662 661 701
f 703 662 702
f 703 663 662
f 740 663 703
f 704 663 740
f 705 653 704
f 705 692 653
f 706 691 692
f 706 692 705
f 707 690 691
f 707 691 706
f 752 690 707
f 708 689 690
f 708 690 752
f 709 672 689
f 709 689 708
f 750 672 709
f 718 680 679
f 717 679 678
f 717 718 679
f 716 678 677
f 716 717 678
f 715 677 676
f 715 716 677
f 714 676 675
f 714 715 676
f 713 675 674
f 713 714 675
f 712 674 673
f 712 713 674
f 711 673 672
f 711 712 673
f 710 711 672
f 724 719 720
f 700 721 701
f 719 724 723
f 719 723 722
f 719 730 731
f 719 731 754
f 719 729 730
f 719 728 729
f 719 722 721
f 719 727 728
f 719 698 697
f 719 699 698
f 719 726 727
f 719 725 726
f 719 693 725
f 719 695 694
f 719 694 693
f 719 700 699
f 719 721 700
f 719 696 695
f 719 697 696
f 702 733 734
f 740 703 702
f 740 702 734
f 740 734 735
f 740 735 736
f 740 736 737
f 740 737 738
f 740 738 739
f 740 739 732
f 741 732 732
f 741 704 740
f 741 740 732
f 704 741 732
f 704 732 705
f 705 707 706
f 752 707 705
f 752 709 708
f 750 748 749
f 750 709 752
f 752 748 750
f 752 746 747
f 752 747 748
f 751 742 742
f 751 705 742
f 751 752 705
f 752 744 745
f 752 745 746
f 752 751 742
f 752 742 743
f 752 743 744
f 767 711 710
f 763 718 717
f 754 764 753
f 755 756 754
f 754 713 712
f 754 714 713
f 754 767 766
f 754 766 765
f 754 717 716
f 754 763 717
f 754 762 763
f 754 761 762
f 754 765 764
f 754 760 761
f 754 759 760
f 754 758 759
f 754 757 758
f 754 756 757
f 754 712 711
f 754 711 767
f 754 715 714
f 754 716 715
f 719 754 753
f 720 719 753
f 769 720 803
f 769 724 720
f 805 724 769
f 770 723 724
f 770 724 805
f 771 722 723
f 771 723 770
f 804 722 771
f 772 721 722
f 772 722 804
f 773 701 721
f 773 721 772
f 768 701 773
f 732 781 774
f 739 780 781
f 739 781 732
f 738 779 780
f 738 780 739
f 737 778 779
f 737 779 738
f 736 777 778
f 736 778 737
f 735 776 777
f 735 777 736
f 734 775 776
f 734 776 735
f 733 768 775
f 733 775 734
f 702 768 733
f 742 705 732
f 783 742 815
f 783 743 742
f 784 744 743
f 784 743 783
f 785 745 744
f 785 744 784
f 786 746 745
f 786 745 785
f 787 747 746
f 787 746 786
f 788 748 747
f 788 747 787
f 789 749 748
f 789 748 788
f 782 750 749
f 782 749 789
f 791 710 782
f 791 767 710
f 814 767 791
f 792 766 767
f 792 767 814
f 793 765 766
f 793 766 792
f 816 765 793
f 794 764 765
f 794 765 816
f 795 753 764
f 795 764 794
f 790 753 795
f 803 796 797
f 805 769 803
f 805 803 797
f 805 771 770
f 805 797 798
f 805 798 799
f 804 771 805
f 804 773 772
f 805 799 800
f 805 800 801
f 804 775 768
f 804 776 775
f 804 768 773
f 805 801 802
f 805 802 774
f 804 777 776
f 804 778 777
f 806 774 774
f 806 805 774
f 806 804 805
f 804 779 778
f 804 780 779
f 804 806 774
f 804 781 780
f 804 774 781
f 814 791 782
f 814 789 788
f 814 782 789
f 814 793 792
f 814 787 786
f 814 788 787
f 816 793 814
f 816 795 794
f 816 785 784
f 816 786 785
f 816 814 786
f 816 790 795
f 816 812 813
f 816 813 790
f 815 784 783
f 815 816 784
f 816 810 811
f 816 811 812
f 816 808 809
f 816 809 810
f 816 815 807
f 816 807 808
f 774 807 815
f 802 808 807
f 802 807 774
f 801 809 808
f 801 808 802
f 800 810 809
f 800 809 801
f 799 811 810
f 799 810 800
f 798 812 811
f 798 811 799
f 797 813 812
f 797 812 798
f 796 790 813
f 796 813 797
f 803 790 796
f 818 819 820
f 818 820 821
f 817 818 821
f 833 828 829
f 820 830 821
f 834 835 820
f 820 825 826
f 820 826 827
f 820 833 832
f 820 832 831
f 820 822 823
f 820 842 822
f 820 841 842
f 820 840 841
f 820 831 830
f 820 839 840
f 820 838 839
f 820 837 838
f 820 836 837
f 820 835 836
f 820 827 828
f 820 828 833
f 820 823 824
f 820 824 825
f 862 818 817
f 844 859 843
f 851 852 850
f 818 862 861
f 818 861 860
f 818 857 858
f 818 858 819
f 818 856 857
f 818 860 859
f 818 855 856
f 818 845 846
f 818 846 847
f 818 854 855
f 818 853 854
f 818 852 853
f 818 849 850
f 818 850 852
f 818 844 845
f 818 859 844
f 818 847 848
f 818 848 849
f 822 863 864
f 822 842 863
f 823 864 865
f 823 822 864
f 824 865 866
f 824 823 865
f 825 866 867
f 825 824 866
f 826 867 868
f 826 825 867
f 827 868 869
f 827 826 868
f 828 869 906
f 828 906 870
f 828 827 869
f 829 828 870
f 873 829 871
f 873 833 829
f 921 833 873
f 874 832 833
f 874 833 921
f 875 831 832
f 875 832 874
f 922 831 875
f 876 830 831
f 876 831 922
f 877 821 830
f 877 830 876
f 872 821 877
f 879 817 878
f 879 862 817
f 941 862 879
f 880 861 862
f 880 862 941
f 881 860 861
f 881 861 880
f 939 860 881
f 882 859 860
f 882 860 939
f 883 843 859
f 883 859 882
f 940 843 883
f 891 958 851
f 891 851 850
f 890 850 849
f 890 891 850
f 889 849 848
f 889 890 849
f 888 848 847
f 888 889 848
f 887 847 846
f 887 888 847
f 886 846 845
f 886 887 846
f 885 845 844
f 885 886 845
f 884 844 843
f 884 885 844
f 904 899 900
f 905 892 893
f 906 901 870
f 863 905 864
f 905 896 897
f 905 897 898
f 905 898 899
f 905 904 903
f 905 899 904
f 906 903 902
f 906 905 903
f 905 893 894
f 905 894 895
f 905 895 896
f 906 902 901
f 905 868 867
f 905 869 868
f 905 865 864
f 906 869 905
f 905 866 865
f 905 867 866
f 871 914 915
f 921 873 871
f 921 871 915
f 921 875 874
f 921 915 916
f 921 916 917
f 922 875 921
f 922 877 876
f 922 917 918
f 922 918 919
f 922 921 917
f 922 872 877
f 922 912 913
f 922 913 872
f 923 919 920
f 923 922 919
f 922 910 911
f 922 911 912
f 922 908 909
f 922 909 910
f 922 923 907
f 922 907 908
f 878 932 933
f 941 879 878
f 941 878 933
f 941 881 880
f 941 933 934
f 941 934 935
f 939 881 941
f 939 883 882
f 941 935 936
f 941 936 937
f 940 930 931
f 940 883 939
f 939 930 940
f 941 937 938
f 941 938 924
f 939 928 929
f 939 929 930
f 942 924 924
f 942 941 924
f 942 939 941
f 939 926 927
f 939 927 928
f 939 942 924
f 939 924 925
f 939 925 926
f 962 885 884
f 944 959 943
f 963 887 886
f 963 888 887
f 963 962 961
f 963 961 960
f 963 891 890
f 963 958 891
f 963 957 958
f 963 956 957
f 963 960 959
f 963 955 956
f 963 945 946
f 963 946 947
f 963 954 955
f 963 953 954
f 963 952 953
f 963 949 950
f 963 951 952
f 963 950 951
f 963 886 885
f 963 885 962
f 963 889 888
f 963 890 889
f 963 944 945
f 963 959 944
f 963 947 948
f 963 948 949
f 892 951 950
f 893 950 949
f 893 892 950
f 894 949 948
f 894 893 949
f 895 948 947
f 895 894 948
f 896 947 946
f 896 895 947
f 897 946 945
f 897 896 946
f 898 945 944
f 898 897 945
f 899 944 943
f 899 898 944
f 900 899 943
f 966 900 964
f 966 904 900
f 996 904 966
f 967 903 904
f 967 904 996
f 968 902 903
f 968 903 967
f 997 902 968
f 969 901 902
f 969 902 997
f 970 870 901
f 970 901 969
f 965 870 970
f 920 971 923
f 920 977 971
f 919 976 999
f 919 999 977
f 919 977 920
f 918 975 976
f 918 976 919
f 917 974 975
f 917 975 918
f 916 973 974
f 916 974 917
f 915 972 973
f 915 973 916
f 914 965 972
f 914 972 915
f 871 965 914
f 924 907 923
f 938 908 907
f 938 907 924
f 937 909 908
f 937 908 938
f 936 910 909
f 936 909 937
f 935 911 910
f 935 910 936
f 934 912 911
f 934 911 935
f 933 913 912
f 933 912 934
f 932 872 913
f 932 913 933
f 878 872 932
f 979 924 1008
f 979 925 924
f 980 926 925
f 980 925 979
f 981 927 926
f 981 926 980
f 982 928 927
f 982 927 981
f 983 929 928
f 983 928 982
f 984 930 929
f 984 929 983
f 985 931 930
f 985 930 984
f 978 940 931
f 978 931 985
f 986 884 978
f 986 962 884
f 1005 962 986
f 987 961 962
f 987 962 1005
f 988 960 961
f 988 961 987
f 1007 960 988
f 989 959 960
f 989 960 1007
f 990 943 959
f 990 959 989
f 1006 943 990
f 996 964 991
f 996 991 992
f 996 966 964
f 996 968 967
f 996 992 993
f 996 993 994
f 997 968 996
f 995 996 994
f 997 970 969
f 995 994 1000
f 997 972 965
f 997 973 972
f 997 965 970
f 997 996 995
f 997 974 973
f 997 975 974
f 999 997 995
f 998 971 971
f 998 995 971
f 998 999 995
f 999 976 975
f 999 975 997
f 999 998 971
f 999 971 977
f 1005 986 978
f 1005 985 984
f 1005 978 985
f 1005 988 987
f 1005 983 982
f 1005 984 983
f 1007 988 1005
f 1007 990 989
f 1007 981 980
f 1007 982 981
f 1007 1005 982
f 1006 1003 1004
f 1006 990 1007
f 1007 1003 1006
f 1008 980 979
f 1008 1007 980
f 1007 1001 1002
f 1007 1002 1003
f 1007 1000 1001
f 1008 995 1000
f 1008 1000 1007
f 995 1008 971
f 994 1001 1000
f 993 1002 1001
f 993 1001 994
f 992 1003 1002
f 992 1002 993
f 991 1004 1003
f 991 1003 992
f 964 1006 1004
f 964 1004 991
f 283 338 351
f 281 365 282
f 281 282 253
f 326 298 291
f 367 298 326
f 318 264 227
f 318 227 262
f 402 522 507
f 436 402 507
f 433 525 434
f 433 434 401
f 515 460 446
f 494 460 515
f 481 416 375
f 481 375 445
f 1008 924 923
f 971 1008 923
f 965 871 829
f 870 965 829
f 943 1006 964
f 943 964 900
f 978 884 843
f 978 843 940
f 878 817 821
f 878 821 872
f 815 742 732
f 774 815 732
f 768 702 662
f 701 768 662
f 720 790 803
f 753 790 720
f 782 710 672
f 782 672 750
f 154 155 188
f 189 154 188
f 142 200 201
f 142 201 141
f 119 90 118
f 119 89 90
f 2 4 5
f 2 5 1
f 67 28 66
f 67 27 28
f 84 54 83
f 84 53 54
f 41 26 40
f 591 561 580
f 591 535 561
f 79 648 651
f 88 79 651
f 88 651 649
f 87 649 650
f 87 88 649
f 86 650 640
f 86 87 650
f 85 86 640
f 84 85 640
f 53 84 640
f 385 74 75
f 386 385 75
f 386 75 76
f 384 74 385
f 384 72 73
f 384 73 74
f 387 386 76
f 387 76 77
f 383 72 384
f 383 71 72
f 388 387 77
f 388 77 78
f 388 78 53
f 383 70 71
f 389 388 53
f 389 53 640
f 382 70 383
f 382 69 70
f 382 67 68
f 382 68 69
f 374 389 640
f 616 619 26
f 368 374 640
f 404 368 640
f 41 616 26
f 125 410 409
f 126 410 125
f 126 411 410
f 124 125 409
f 124 409 408
f 127 411 126
f 127 412 411
f 123 124 408
f 128 412 127
f 122 123 408
f 122 408 407
f 129 412 128
f 121 122 407
f 121 407 406
f 120 121 406
f 120 406 405
f 16 412 129
f 119 120 405
f 119 405 404
f 424 67 382
f 424 51 52
f 424 52 27
f 424 27 67
f 423 49 50
f 423 50 51
f 423 51 424
f 455 48 49
f 455 49 423
f 454 48 455
f 454 47 48
f 453 47 454
f 453 46 47
f 452 46 453
f 452 44 45
f 452 45 46
f 451 43 44
f 451 44 452
f 450 43 451
f 450 42 43
f 449 42 450
f 449 41 42
f 449 616 41
f 448 616 449
f 471 616 448
f 425 412 16
f 89 119 404
f 16 472 425
f 17 472 16
f 18 465 472
f 18 472 17
f 19 466 465
f 19 465 18
f 20 466 19
f 21 467 466
f 21 466 20
f 22 467 21
f 22 468 467
f 23 469 468
f 23 468 22
f 24 469 23
f 24 470 469
f 25 470 24
f 4 470 25
f 4 471 470
f 238 102 103
f 237 102 238
f 237 101 102
f 239 103 104
f 239 238 103
f 236 101 237
f 236 100 101
f 240 104 105
f 240 239 104
f 235 99 100
f 235 100 236
f 241 240 105
f 241 105 106
f 235 3 99
f 242 241 106
f 242 106 89
f 243 89 404
f 243 404 640
f 243 242 89
f 219 260 259
f 220 261 260
f 220 260 219
f 218 259 258
f 218 219 259
f 221 261 220
f 217 258 257
f 217 218 258
f 222 261 221
f 216 217 257
f 216 257 256
f 223 245 261
f 223 261 222
f 215 216 256
f 215 256 255
f 224 245 223
f 214 215 255
f 214 255 254
f 200 245 224
f 213 214 254
f 272 3 235
f 292 3 272
f 292 2 3
f 620 213 254
f 620 254 243
f 620 243 640
f 273 245 200
f 142 273 200
f 143 273 142
f 199 620 630
f 199 213 620
f 144 273 143
f 198 630 631
f 198 199 630
f 145 273 144
f 197 631 638
f 197 638 632
f 197 198 631
f 146 273 145
f 196 632 633
f 196 197 632
f 147 273 146
f 147 303 273
f 195 196 633
f 195 633 639
f 148 303 147
f 148 304 303
f 149 305 304
f 149 304 148
f 150 306 305
f 150 305 149
f 151 307 306
f 151 306 150
f 152 308 307
f 152 307 151
f 153 309 308
f 153 308 152
f 634 194 195
f 634 195 639
f 167 309 153
f 635 194 634
f 635 193 194
f 628 193 635
f 636 193 628
f 636 192 193
f 637 192 636
f 637 191 192
f 617 191 637
f 617 189 190
f 617 190 191
f 590 189 617
f 590 175 176
f 590 176 154
f 590 154 189
f 600 292 309
f 600 309 167
f 601 175 590
f 601 174 175
f 602 173 174
f 602 174 601
f 607 168 169
f 607 167 168
f 593 173 602
f 592 607 169
f 603 172 173
f 603 173 593
f 606 169 170
f 606 592 169
f 604 171 172
f 604 172 603
f 605 606 170
f 605 170 171
f 608 605 171
f 608 171 604
f 600 616 471
f 600 471 4
f 600 4 2
f 600 2 292
f 1009 581 647
f 648 26 79
f 648 79 589
f 651 648 589
f 651 589 1009
f 651 1009 647
f 26 580 79
f 26 619 580
f 593 618 547
f 608 547 1010
f 608 593 547
f 549 535 591
f 592 608 1010
f 592 1010 549
f 592 549 591
f 629 562 576
f 639 629 576
f 639 576 573
f 550 618 628
f 628 639 573
f 628 573 550
f 80 588 1009
f 80 1009 589
f 81 587 588
f 81 588 80
f 82 587 81
f 83 587 82
f 54 587 83
f 668 58 59
f 669 59 60
f 669 668 59
f 667 57 58
f 667 58 668
f 670 669 60
f 670 60 61
f 666 57 667
f 666 56 57
f 671 61 62
f 671 670 61
f 665 56 666
f 665 55 56
f 671 62 63
f 664 587 54
f 664 55 665
f 664 54 55
f 671 63 64
f 652 587 664
f 654 671 64
f 654 64 65
f 654 65 66
f 554 79 579
f 554 40 79
f 688 587 652
f 112 682 681
f 111 112 681
f 111 681 680
f 113 682 112
f 113 683 682
f 110 111 680
f 114 683 113
f 114 684 683
f 109 110 680
f 115 684 114
f 115 685 684
f 108 109 680
f 116 685 115
f 116 686 685
f 107 108 680
f 117 686 116
f 117 687 686
f 118 687 117
f 118 688 687
f 693 66 28
f 693 654 66
f 693 28 29
f 693 29 30
f 693 30 31
f 693 31 32
f 693 32 33
f 725 693 33
f 725 33 34
f 726 34 35
f 726 725 34
f 727 35 36
f 727 726 35
f 728 36 37
f 728 727 36
f 729 37 38
f 729 728 37
f 730 38 39
f 730 729 38
f 731 39 40
f 731 40 554
f 731 730 39
f 754 731 554
f 718 107 680
f 15 107 718
f 15 718 763
f 14 15 763
f 13 14 763
f 12 13 763
f 12 763 762
f 11 12 762
f 11 762 761
f 10 11 761
f 10 761 760
f 9 10 760
f 9 760 759
f 8 9 759
f 8 759 758
f 7 8 758
f 7 758 757
f 6 7 757
f 6 757 756
f 5 6 756
f 5 756 755
f 839 94 95
f 838 93 94
f 838 94 839
f 840 839 95
f 840 95 96
f 837 92 93
f 837 93 838
f 841 840 96
f 841 96 97
f 836 91 92
f 836 92 837
f 842 97 98
f 842 841 97
f 835 90 91
f 835 91 836
f 842 98 1
f 834 118 90
f 834 90 835
f 834 688 118
f 834 587 688
f 207 854 853
f 206 207 853
f 206 853 852
f 208 854 207
f 208 855 854
f 205 206 852
f 209 855 208
f 209 856 855
f 204 205 852
f 210 856 209
f 210 857 856
f 203 204 852
f 203 852 851
f 211 857 210
f 211 858 857
f 202 203 851
f 212 858 211
f 212 819 858
f 201 202 851
f 177 819 212
f 863 842 1
f 905 863 1
f 568 819 177
f 568 587 834
f 568 820 819
f 568 834 820
f 141 201 851
f 141 851 958
f 140 141 958
f 178 568 177
f 178 578 568
f 139 140 958
f 179 578 178
f 179 577 578
f 138 139 958
f 180 577 179
f 180 575 576
f 180 576 577
f 137 138 958
f 181 575 180
f 181 574 575
f 136 137 958
f 136 958 957
f 182 574 181
f 573 574 182
f 135 136 957
f 135 957 956
f 134 135 956
f 134 956 955
f 133 134 955
f 133 955 954
f 132 133 954
f 132 954 953
f 131 132 953
f 131 953 952
f 572 182 183
f 572 573 182
f 130 131 952
f 130 952 951
f 166 130 951
f 571 183 184
f 571 572 183
f 550 571 184
f 570 184 185
f 570 550 184
f 569 185 186
f 569 570 185
f 553 186 187
f 553 187 188
f 553 569 186
f 155 553 188
f 538 155 156
f 538 156 157
f 538 553 155
f 527 165 166
f 527 166 951
f 546 157 158
f 546 538 157
f 539 164 165
f 539 165 527
f 545 158 159
f 545 546 158
f 540 164 539
f 540 163 164
f 547 545 159
f 549 163 540
f 544 159 160
f 544 547 159
f 541 162 163
f 541 163 549
f 543 544 160
f 543 160 161
f 542 162 541
f 542 161 162
f 548 543 161
f 548 161 542
f 527 951 554
f 951 892 554
f 892 905 554
f 905 1 554
f 1 5 554
f 5 755 554
f 755 754 554

