# https://github.com/mikedh/trimesh
v -112.09357650 14.50000000 -10.58734919
v -91.17273080 14.50000000 -10.70219682
v -65.80705399 14.50000000 -10.83029269
v -23.08860000 14.50000000 -10.89660000
v 48.48860000 14.50000000 -10.89660000
v 78.50705399 14.50000000 -10.83029269
v 78.55057596 13.70000000 -12.69486455
v 112.05665909 14.50000000 -10.64260000
v 127.00000000 14.50000000 -0.81280000
v -127.00000000 14.50000000 -0.81280000
v -127.00000000 14.47935816 -0.49786640
v -127.00000000 14.41778583 -0.18832141
v -127.00000000 14.31633654 0.11053859
v -127.00000000 14.17674609 0.39360000
v -127.00000000 14.00140294 0.65601958
v -127.00000000 13.79330724 0.89330724
v -127.00000000 13.55601958 1.10140294
v -127.00000000 13.29360000 1.27674609
v -127.00000000 13.01053859 1.41633654
v -127.00000000 12.71167859 1.51778583
v -127.00000000 12.40213360 1.57935816
v -127.00000000 12.08720000 1.60000000
v -127.00000000 -12.08720000 1.60000000
v -127.00000000 -12.40213360 1.57935816
v -127.00000000 -12.71167859 1.51778583
v -127.00000000 -13.01053859 1.41633654
v -127.00000000 -13.29360000 1.27674609
v -127.00000000 -13.55601958 1.10140294
v -127.00000000 -13.79330724 0.89330724
v -127.00000000 -14.00140294 0.65601958
v -127.00000000 -14.17674609 0.39360000
v -127.00000000 -14.31633654 0.11053859
v -127.00000000 -14.41778583 -0.18832141
v -127.00000000 -14.47935816 -0.49786640
v -127.00000000 -14.50000000 -0.81280000
v -119.95035325 -13.70219178 -8.31415655
v 127.00000000 -14.50000000 -0.81280000
v 115.75994587 -13.70722892 -7.76301136
v 103.84334091 -14.50000000 -10.64260000
v -53.11140000 -14.50000000 -10.89660000
v -57.15000000 -13.70000000 -12.70000000
v -106.95694995 -13.83333333 -12.73181862
v -111.98860000 -14.50000000 -10.89660000
v 127.00000000 -14.47935816 -0.49786640
v 127.00000000 -14.41778583 -0.18832141
v 127.00000000 -14.31633654 0.11053859
v 127.00000000 -14.17674609 0.39360000
v 127.00000000 -14.00140294 0.65601958
v 127.00000000 -13.79330724 0.89330724
v 127.00000000 -13.55601958 1.10140294
v 127.00000000 -13.29360000 1.27674609
v 127.00000000 -13.01053859 1.41633654
v 127.00000000 -12.71167859 1.51778583
v 127.00000000 -12.40213360 1.57935816
v 127.00000000 -12.08720000 1.60000000
v -65.85057596 13.70000000 -12.69486455
v -19.05000000 13.70000000 -12.70000000
v -5.35694995 13.56666667 -12.73181862
v 44.45000000 13.70000000 -12.70000000
v 121.07221454 13.17654321 -10.13470616
v -123.85363160 13.70919540 -7.34117998
v 127.00000000 12.08720000 1.60000000
v 127.00000000 12.40213360 1.57935816
v 127.00000000 12.71167859 1.51778583
v 127.00000000 13.01053859 1.41633654
v 127.00000000 13.29360000 1.27674609
v 127.00000000 13.55601958 1.10140294
v 127.00000000 13.79330724 0.89330724
v 127.00000000 14.00140294 0.65601958
v 127.00000000 14.17674609 0.39360000
v 127.00000000 14.31633654 0.11053859
v 127.00000000 14.41778583 -0.18832141
v 127.00000000 14.47935816 -0.49786640
f 9 37 60
f 35 36 43
f 43 36 42
f 42 40 43
f 42 36 61
f 61 35 10
f 61 36 35
f 9 60 8
f 39 40 42
f 57 56 4
f 7 8 60
f 60 39 7
f 37 39 38
f 38 60 37
f 38 39 60
f 1 61 10
f 1 56 42
f 42 61 1
f 58 7 42
f 42 56 58
f 58 56 57
f 41 39 42
f 42 7 41
f 41 7 39
f 3 4 56
f 8 7 6
f 7 5 6
f 59 5 7
f 59 58 57
f 7 58 59
f 56 1 2
f 2 3 56
f 35 43 39
f 39 37 35
f 39 43 40
f 22 23 62
f 62 23 55
f 4 5 59
f 57 4 59
f 17 18 67
f 67 18 66
f 30 31 48
f 48 31 47
f 9 8 2
f 10 9 2
f 2 1 10
f 2 5 4
f 4 3 2
f 8 6 2
f 2 6 5
f 22 62 63
f 63 21 22
f 63 20 21
f 64 20 63
f 65 18 19
f 66 18 65
f 19 20 65
f 65 20 64
f 35 37 44
f 44 34 35
f 44 33 34
f 45 33 44
f 46 31 32
f 47 31 46
f 32 33 46
f 46 33 45
f 29 48 49
f 30 48 29
f 54 23 24
f 55 23 54
f 51 26 27
f 52 26 51
f 73 9 10
f 10 11 73
f 11 12 73
f 12 72 73
f 71 12 13
f 71 72 12
f 16 17 68
f 17 67 68
f 68 15 16
f 68 69 15
f 25 23 22
f 10 35 25
f 25 11 10
f 16 15 25
f 25 17 16
f 35 34 25
f 24 23 25
f 19 18 25
f 25 14 13
f 22 21 25
f 13 12 25
f 30 29 25
f 25 33 32
f 15 14 25
f 25 20 19
f 25 31 30
f 25 18 17
f 25 12 11
f 32 31 25
f 25 28 27
f 21 20 25
f 34 33 25
f 25 29 28
f 27 26 25
f 28 29 50
f 50 29 49
f 27 28 50
f 50 51 27
f 70 14 15
f 15 69 70
f 13 14 70
f 70 71 13
f 53 62 55
f 53 37 9
f 47 46 53
f 49 48 53
f 53 67 66
f 72 71 53
f 53 63 62
f 66 65 53
f 53 44 37
f 53 48 47
f 55 54 53
f 64 63 53
f 53 65 64
f 52 51 53
f 9 73 53
f 45 44 53
f 53 46 45
f 53 70 69
f 53 68 67
f 53 73 72
f 53 50 49
f 69 68 53
f 51 50 53
f 71 70 53
f 53 26 52
f 53 25 26
f 53 54 24
f 24 25 53

