# https://github.com/mikedh/trimesh
v 19.35000000 64.10981462 -33.85832199
v 19.34404248 64.10981462 -33.91781165
v 19.32640653 64.10981462 -33.97493858
v 19.29779260 64.10981462 -34.02743387
v 19.25933714 64.10981462 -34.07321257
v 19.21256747 64.10981462 -34.11045651
v 19.15934115 64.10981462 -34.13768647
v 19.10177214 64.10981462 -34.15382096
v 19.04214692 64.10981462 -34.15821919
v 19.04214692 69.85000000 -34.15821919
v 19.10177214 69.85000000 -34.15382096
v 19.15934115 69.85000000 -34.13768647
v 19.21256747 69.85000000 -34.11045651
v 19.25933714 69.85000000 -34.07321257
v 19.29779260 69.85000000 -34.02743387
v 19.32640653 69.85000000 -33.97493858
v 19.34404248 69.85000000 -33.91781165
v 19.23176014 71.01734240 -34.04370930
v 19.34841614 70.94136740 -33.82565127
v 19.35000000 63.75993456 -33.76457191
v 19.34404248 63.73018973 -33.81609147
v 19.32640653 63.70162626 -33.86556484
v 19.29779260 63.67537862 -33.91102709
v 19.25933714 63.65248927 -33.95067261
v 19.21256747 63.63386730 -33.98292681
v 19.15934115 63.62025232 -34.00650864
v 19.04214692 63.60998596 -34.02429050
v 19.04194439 63.98299170 -34.15003092
v 19.04187189 63.85822112 -34.12583273
v 19.04192941 63.73747678 -34.08615352
v 19.04201795 63.67262743 -34.05750071
v 19.32294039 63.89159911 -33.97924621
v 19.14456594 63.80934982 -34.10423616
v 19.34404248 44.91181324 -22.95129674
v 19.32640653 44.88324978 -23.00077011
v 19.29779260 44.85700214 -23.04623236
v 19.25933714 44.83411278 -23.08587788
v 19.21256747 44.81549082 -23.11813208
v 19.15934115 44.80187584 -23.14171392
v 19.10177214 44.79380859 -23.15568680
v 19.04214692 44.79160948 -23.15949577
v 19.34404248 44.53218835 -22.29376713
v 19.32640653 44.47506142 -22.29376713
v 19.29779260 44.42256613 -22.29376713
v 19.21256747 44.33954349 -22.29376713
v 19.15934115 44.31231353 -22.29376713
v 19.10177214 44.29617904 -22.29376713
v 19.04214692 44.29178081 -22.29376713
v 19.04164055 44.68626319 -23.08874607
v 19.04127425 44.59117987 -23.00487097
v 19.04104801 44.50736030 -22.90960392
v 19.04096184 44.43580530 -22.80467835
v 19.04101574 44.37751566 -22.69182770
v 19.04120969 44.33349218 -22.57278541
v 19.04154372 44.30473567 -22.44928492
v 19.04181881 44.29506301 -22.37183986
v 19.21200890 44.43162208 -22.78096062
v 19.35000000 44.59167801 22.29376713
v 19.34404248 44.53218835 22.29376713
v 19.32640653 44.47506142 22.29376713
v 19.26402484 44.41560449 22.56634809
v 19.25933714 44.37678743 22.29376713
v 19.21256747 44.33954349 22.29376713
v 19.15934115 44.31231353 22.29376713
v 19.10177214 44.29617904 22.29376713
v 19.04214692 44.29178081 22.29376713
v 19.35000000 44.94155808 22.89977718
v 19.34404248 44.91181324 22.95129674
v 19.32640653 44.88324978 23.00077011
v 19.29779260 44.85700214 23.04623236
v 19.25933714 44.83411278 23.08587788
v 19.21256747 44.81549082 23.11813208
v 19.15934115 44.80187584 23.14171392
v 19.10177214 44.79380859 23.15568680
v 19.04214692 44.79160948 23.15949577
v 19.04164055 44.30037871 22.42037454
v 19.04127425 44.32547501 22.54465667
v 19.04104801 44.36606892 22.66488007
v 19.04096184 44.42115963 22.77931130
v 19.04101574 44.48974634 22.88621694
v 19.04120969 44.57082824 22.98386353
v 19.04154372 44.66340455 23.07051764
v 19.04181881 44.72563761 23.11761694
v 19.33749629 44.59372393 22.69737800
v 19.21055588 44.41820754 22.74980157
v 19.35000000 63.75993456 33.76457191
v 19.34404248 63.73018973 33.81609147
v 19.32640653 63.70162626 33.86556484
v 19.29779260 63.67537862 33.91102709
v 19.25933714 63.65248927 33.95067261
v 19.21256747 63.63386730 33.98292681
v 19.15934115 63.62025232 34.00650864
v 19.10177214 63.61218507 34.02048153
v 19.04214692 63.60998596 34.02429050
v 19.34404248 64.10981462 33.91781165
v 19.32640653 64.10981462 33.97493858
v 19.29779260 64.10981462 34.02743387
v 19.21256747 64.10981462 34.11045651
v 19.15934115 64.10981462 34.13768647
v 19.10177214 64.10981462 34.15382096
v 19.04214692 64.10981462 34.15821919
v 19.04194439 63.72391197 34.08061071
v 19.04187189 63.84406555 34.12203976
v 19.04192941 63.96847282 34.14804873
v 19.04201795 64.03896041 34.15565933
v 19.35023415 63.95435205 33.83876449
v 19.26900291 63.87262836 34.06132485
v 19.35000000 69.85000000 33.85832199
v 19.34404248 69.85000000 33.91781165
v 19.32640653 69.85000000 33.97493858
v 19.28461436 71.00730360 34.01746448
v 19.25933714 69.85000000 34.07321257
v 19.21256747 69.85000000 34.11045651
v 19.15934115 69.85000000 34.13768647
v 19.10177214 69.85000000 34.15382096
v 18.59744122 71.58393390 34.00422033
v 19.32271311 74.89782995 18.40556910
v 18.76178824 75.44355800 31.34604216
v 13.29214692 64.15015948 -34.00765014
v 13.23474866 64.15015948 -34.00057074
v 13.17977535 64.15015948 -33.98260933
v 13.12926996 64.15015948 -33.95443340
v 13.08510942 64.15015948 -33.91709008
v 13.04893487 64.15015948 -33.87196714
v 13.02209068 64.15015948 -33.82074149
v 13.00557446 64.15015948 -33.76531684
v 12.99982521 63.99530226 -33.68880805
v 13.00000000 69.85000000 -33.70775294
v 13.00557446 69.85000000 -33.76531684
v 13.02209068 69.85000000 -33.82074149
v 13.04893487 69.85000000 -33.87196714
v 13.08510942 69.85000000 -33.91709008
v 13.12926996 69.85000000 -33.95443340
v 13.17977535 69.85000000 -33.98260933
v 13.23474866 69.85000000 -34.00057074
v 13.29214692 69.85000000 -34.00765014
v 13.05960473 70.98228882 -33.86142798
v 17.14199032 79.36226388 -29.50808177
v 13.04900329 75.16097000 -18.66790454
v 13.00266534 70.96527345 -17.40941604
v 13.29214692 63.65033081 -33.87372145
v 13.23474866 63.65387051 -33.86759051
v 13.17977535 63.66285122 -33.85203547
v 13.12926996 63.67693918 -33.82763441
v 13.08510942 63.69561084 -33.79529414
v 13.04893487 63.71817231 -33.75621652
v 13.02209068 63.74378514 -33.71185381
v 13.00557446 63.77149746 -33.66385466
v 13.00000000 63.80027941 -33.61400286
v 13.29194439 63.76425682 -33.93004166
v 13.29187189 63.88441041 -33.97147071
v 13.29192941 64.00881768 -33.99747968
v 13.29201795 64.07930526 -34.00509028
v 13.07528757 63.92040181 -33.90589919
v 13.29214692 44.94217853 -23.07256469
v 13.23474866 44.94571823 -23.06643375
v 13.17977535 44.95469893 -23.05087871
v 13.12926996 44.96878689 -23.02647765
v 13.08510942 44.98745856 -22.99413738
v 13.04893487 45.01002003 -22.95505976
v 13.02209068 45.03563285 -22.91069705
v 13.00557446 45.06334517 -22.86269790
v 13.00635831 44.77776635 -22.62169622
v 13.29214692 44.44234986 -22.20683605
v 13.23474866 44.44942926 -22.20683605
v 13.17977535 44.46739067 -22.20683605
v 13.12926996 44.49556660 -22.20683605
v 13.08510942 44.53290992 -22.20683605
v 13.04893487 44.57803286 -22.20683605
v 13.02209068 44.62925851 -22.20683605
v 13.00557446 44.68468316 -22.20683605
v 13.00000000 44.74224706 -22.20683605
v 13.29164055 44.45094776 -22.33344346
v 13.29127425 44.47604406 -22.45772559
v 13.29104801 44.51663797 -22.57794899
v 13.29096184 44.57172868 -22.69238022
v 13.29101574 44.64031538 -22.79928586
v 13.29120969 44.72139729 -22.89693245
v 13.29154372 44.81397360 -22.98358656
v 13.29181881 44.87620666 -23.03068586
v 13.14037066 44.58569743 -22.69623669
v 13.29214692 44.44234986 22.20683605
v 13.23474866 44.44942926 22.20683605
v 13.17977535 44.46739067 22.20683605
v 13.12926996 44.49556660 22.20683605
v 13.08510942 44.53290992 22.20683605
v 13.04893487 44.57803286 22.20683605
v 13.02209068 44.62925851 22.20683605
v 13.00557446 44.68468316 22.20683605
v 13.00000000 44.74224706 22.20683605
v 13.29214692 44.94217853 23.07256469
v 13.23474866 44.94571823 23.06643375
v 13.17977535 44.95469893 23.05087871
v 13.12926996 44.96878689 23.02647765
v 13.08510942 44.98745856 22.99413738
v 13.04893487 45.01002003 22.95505976
v 13.00557446 45.06334517 22.86269790
v 13.00000000 45.09212713 22.81284610
v 13.05275595 44.64121947 22.68042628
v 13.29164055 44.83683224 23.00181499
v 13.29127425 44.74174892 22.91793989
v 13.29104801 44.65792935 22.82267284
v 13.29096184 44.58637435 22.71774727
v 13.29101574 44.52808470 22.60489662
v 13.29120969 44.48406123 22.48585433
v 13.29154372 44.45530472 22.36235384
v 13.29181881 44.44563206 22.28490878
v 13.29214692 63.65033081 33.87372145
v 13.23474866 63.65387051 33.86759051
v 13.17977535 63.66285122 33.85203547
v 13.12926996 63.67693918 33.82763441
v 13.08510942 63.69561084 33.79529414
v 13.04893487 63.71817231 33.75621652
v 13.02209068 63.74378514 33.71185381
v 13.00557446 63.77149746 33.66385466
v 13.00000000 63.80027941 33.61400286
v 13.29214692 64.15015948 34.00765014
v 13.23474866 64.15015948 34.00057074
v 13.17977535 64.15015948 33.98260933
v 13.08510942 64.15015948 33.91709008
v 13.04893487 64.15015948 33.87196714
v 13.00557446 64.15015948 33.76531684
v 13.00000000 64.15015948 33.70775294
v 13.01156598 63.97736336 33.78160831
v 13.29194439 64.02333655 33.99946187
v 13.29187189 63.89856597 33.97526368
v 13.29192941 63.77782163 33.93558447
v 13.29201795 63.71297229 33.90693166
v 13.13350903 63.91085928 33.93885096
v 13.29214692 69.85000000 34.00765014
v 13.23474866 69.85000000 34.00057074
v 13.12926996 69.85000000 33.95443340
v 13.08510942 69.85000000 33.91709008
v 13.02209068 69.85000000 33.82074149
v 13.00557446 69.85000000 33.76531684
v 15.74954826 79.16262889 24.45856147
v 13.18780452 70.85493263 33.93778064
v 13.06834909 73.20610930 33.29888919
v 13.00273358 70.99899090 33.68914961
v 13.08547552 70.90968402 33.86346155
v 19.38652277 55.70630587 22.07905004
v 19.68980862 73.61082468 -32.14548829
v 19.42672733 44.83266094 -22.54661126
v 14.40491745 74.94686252 -28.41161442
v 13.00000000 68.24130667 26.74985398
f 242 18 138
f 118 138 236
f 238 118 236
f 242 243 20
f 242 138 117
f 138 118 117
f 236 138 139
f 139 238 236
f 111 117 118
f 19 18 242
f 242 17 19
f 238 139 239
f 118 238 116
f 116 111 118
f 127 148 149
f 41 27 40
f 15 14 18
f 40 27 26
f 141 41 155
f 27 41 141
f 21 20 243
f 243 57 35
f 51 57 52
f 147 148 125
f 137 138 18
f 216 223 127
f 127 198 216
f 223 239 245
f 127 223 245
f 140 239 139
f 237 116 238
f 117 111 108
f 111 109 108
f 242 117 108
f 108 106 242
f 106 108 95
f 95 108 109
f 110 109 111
f 92 107 102
f 107 103 102
f 189 188 199
f 199 188 187
f 155 41 180
f 52 176 177
f 177 51 52
f 163 161 160
f 162 161 163
f 162 149 148
f 18 19 16
f 16 15 18
f 16 19 17
f 9 28 153
f 25 26 33
f 27 141 31
f 31 30 33
f 33 26 31
f 31 26 27
f 34 21 243
f 243 35 34
f 21 34 22
f 22 34 35
f 179 180 49
f 49 180 41
f 49 41 40
f 45 57 44
f 45 46 57
f 52 57 53
f 57 54 53
f 54 175 53
f 53 176 52
f 53 175 176
f 48 164 56
f 57 46 55
f 55 54 57
f 146 161 147
f 146 160 161
f 154 122 121
f 147 125 154
f 154 146 147
f 244 139 138
f 138 137 244
f 244 137 139
f 18 10 136
f 136 137 18
f 104 103 107
f 107 99 104
f 238 239 240
f 240 237 238
f 116 237 115
f 111 116 115
f 58 243 242
f 163 170 171
f 169 170 163
f 179 157 156
f 156 180 179
f 155 180 156
f 51 177 178
f 7 6 33
f 18 14 13
f 13 12 18
f 11 10 18
f 18 12 11
f 152 153 28
f 152 154 121
f 32 22 23
f 33 6 32
f 21 22 32
f 39 49 40
f 40 26 39
f 26 25 39
f 36 35 57
f 57 37 36
f 36 37 23
f 23 37 24
f 24 37 25
f 24 32 23
f 24 25 33
f 33 32 24
f 47 55 46
f 56 55 47
f 48 56 47
f 122 154 123
f 124 154 125
f 124 131 154
f 9 153 119
f 197 216 198
f 199 196 197
f 197 189 199
f 101 217 105
f 230 115 237
f 230 217 101
f 101 115 230
f 100 115 101
f 101 105 100
f 100 104 99
f 100 105 104
f 112 110 111
f 97 96 110
f 107 96 97
f 97 112 107
f 110 112 97
f 91 107 92
f 88 96 107
f 84 58 67
f 106 86 67
f 67 58 242
f 71 91 72
f 43 57 243
f 44 57 43
f 172 162 163
f 163 171 172
f 127 149 172
f 149 162 172
f 173 56 164
f 173 55 56
f 181 169 163
f 168 169 181
f 176 175 181
f 181 177 176
f 159 158 181
f 181 178 177
f 163 160 181
f 181 160 159
f 181 158 157
f 181 157 179
f 179 178 181
f 51 178 50
f 57 51 50
f 179 49 50
f 50 178 179
f 50 39 57
f 49 39 50
f 8 28 9
f 33 28 8
f 8 7 33
f 29 152 28
f 33 30 29
f 29 28 33
f 30 31 150
f 150 31 141
f 5 32 6
f 38 37 57
f 57 39 38
f 25 37 38
f 38 39 25
f 154 144 145
f 146 154 145
f 145 158 159
f 145 144 158
f 126 148 127
f 126 125 148
f 137 131 130
f 130 129 137
f 127 245 128
f 129 126 128
f 128 126 127
f 128 140 139
f 128 245 239
f 239 140 128
f 139 137 128
f 137 129 128
f 137 136 135
f 135 134 137
f 137 134 133
f 214 197 196
f 234 240 239
f 111 115 114
f 98 99 107
f 107 112 98
f 92 102 93
f 73 91 92
f 72 91 73
f 92 93 73
f 73 93 74
f 68 69 84
f 84 67 68
f 68 88 69
f 68 67 86
f 242 106 241
f 241 67 242
f 106 67 241
f 107 91 90
f 91 71 90
f 89 90 71
f 89 88 107
f 107 90 89
f 42 43 243
f 84 61 60
f 44 43 60
f 190 197 198
f 189 197 190
f 190 198 127
f 127 172 190
f 165 173 164
f 166 173 165
f 168 181 167
f 167 181 166
f 174 173 166
f 166 181 174
f 174 181 175
f 174 175 54
f 54 55 174
f 55 173 174
f 154 152 151
f 151 150 154
f 152 29 151
f 151 29 30
f 30 150 151
f 143 144 154
f 154 150 143
f 2 17 242
f 21 32 2
f 32 3 2
f 4 3 32
f 32 5 4
f 120 119 153
f 120 152 121
f 153 152 120
f 154 131 132
f 132 123 154
f 132 131 137
f 137 133 132
f 216 197 215
f 197 214 215
f 235 239 223
f 235 234 239
f 103 104 226
f 212 229 213
f 213 214 196
f 195 194 212
f 195 196 199
f 199 194 195
f 113 98 112
f 113 112 111
f 111 114 113
f 102 228 94
f 94 93 102
f 72 73 85
f 85 71 72
f 85 61 84
f 87 68 86
f 88 68 87
f 87 86 106
f 106 95 87
f 95 96 87
f 96 88 87
f 70 89 71
f 84 69 70
f 70 85 84
f 71 85 70
f 59 58 84
f 84 60 59
f 243 58 59
f 59 42 243
f 62 60 61
f 44 60 62
f 62 45 44
f 205 204 199
f 142 150 141
f 142 143 150
f 157 143 142
f 142 156 157
f 242 20 1
f 1 2 242
f 20 21 1
f 21 2 1
f 223 216 224
f 216 215 224
f 221 234 224
f 224 215 214
f 214 213 224
f 224 229 221
f 224 213 229
f 227 226 229
f 227 228 102
f 227 102 103
f 103 226 227
f 225 226 104
f 225 105 217
f 104 105 225
f 229 226 225
f 211 229 212
f 211 210 229
f 212 194 211
f 218 225 217
f 218 219 229
f 229 225 218
f 237 240 232
f 208 94 228
f 75 208 191
f 94 208 75
f 81 85 73
f 63 62 61
f 61 85 63
f 63 85 64
f 45 62 63
f 207 183 182
f 184 205 199
f 199 185 184
f 199 187 186
f 186 185 199
f 222 235 223
f 223 224 222
f 234 235 222
f 222 224 234
f 229 210 209
f 209 227 229
f 228 227 209
f 209 208 228
f 231 230 237
f 237 232 231
f 231 232 219
f 219 218 231
f 219 232 220
f 221 229 220
f 229 219 220
f 193 194 199
f 192 209 193
f 193 209 210
f 82 73 74
f 82 81 73
f 66 207 182
f 206 184 183
f 183 207 206
f 205 184 206
f 221 220 233
f 233 220 232
f 233 234 221
f 240 234 233
f 233 232 240
f 74 75 83
f 83 82 74
f 83 75 191
f 191 192 200
f 192 193 200
f 200 83 191
f 82 83 200
f 205 206 77
f 207 66 76
f 76 206 207
f 76 77 206
f 66 65 76
f 76 65 64
f 64 85 76
f 85 77 76
f 81 82 201
f 82 200 201
f 201 202 81
f 199 202 201
f 201 193 199
f 201 200 193
f 81 202 80
f 85 81 80
f 80 79 85
f 204 79 203
f 199 204 203
f 203 202 199
f 203 80 202
f 79 80 203
f 85 79 78
f 78 77 85
f 78 79 204
f 204 205 78
f 205 77 78
f 147 161 162
f 162 148 147
f 109 110 96
f 96 95 109
f 188 189 171
f 171 170 188
f 188 170 169
f 169 187 188
f 13 7 12
f 6 7 13
f 36 22 35
f 23 22 36
f 119 136 10
f 119 10 9
f 9 10 8
f 10 11 8
f 12 7 8
f 8 11 12
f 6 13 5
f 5 13 14
f 160 146 145
f 159 160 145
f 131 124 130
f 130 124 125
f 125 126 130
f 130 126 129
f 133 134 121
f 121 122 133
f 115 100 114
f 114 100 99
f 190 171 189
f 190 172 171
f 182 183 165
f 164 182 165
f 158 144 143
f 157 158 143
f 2 3 16
f 2 16 17
f 16 3 4
f 15 16 4
f 4 5 14
f 14 15 4
f 121 134 120
f 134 135 120
f 136 119 120
f 120 135 136
f 132 133 122
f 122 123 132
f 212 213 195
f 195 213 196
f 113 114 99
f 99 98 113
f 88 89 70
f 69 88 70
f 59 60 43
f 43 42 59
f 155 156 142
f 142 141 155
f 93 94 75
f 74 93 75
f 63 64 46
f 46 45 63
f 184 165 183
f 166 165 184
f 184 167 166
f 184 185 167
f 187 169 186
f 186 169 168
f 167 185 186
f 168 167 186
f 191 208 209
f 209 192 191
f 231 218 217
f 217 230 231
f 210 211 193
f 193 211 194
f 66 182 164
f 66 164 48
f 46 64 65
f 65 47 46
f 65 66 48
f 48 47 65

