# https://github.com/mikedh/trimesh
v 3.18500000 -5.85000000 -2.06154796
v 3.18500000 -5.85000000 2.06154796
v 3.68500000 -6.35000000 2.06154796
v 3.68500000 -6.35000000 -2.06154796
v 3.65250358 -6.34993307 2.28320505
v 3.18252562 -5.85000000 2.08649532
v 3.17519889 -5.85000000 2.11047056
v 3.16330531 -5.85000000 2.13253945
v 3.26153622 -5.93571106 2.12374776
v 3.17299466 -5.85128172 -2.11765124
v 3.17519889 -5.85000000 -2.11047056
v 3.18252562 -5.85000000 -2.08649532
v 3.50936435 -6.18333317 -2.15197391
v 2.53086657 -6.34938325 3.56495205
v 2.86481482 -5.85000000 2.51933743
v 2.51933743 -5.85000000 2.86481482
v 2.13253945 -5.85000000 3.16330531
v 2.13253945 -5.85000000 -3.16330531
v 2.51933743 -5.85000000 -2.86481482
v 2.86481482 -5.85000000 -2.51933743
v 3.56495205 -6.34938325 -2.53086657
v 2.06154796 -6.35000000 3.68500000
v 2.11047056 -5.85000000 3.17519889
v 2.08649532 -5.85000000 3.18252562
v 2.06154796 -5.85000000 3.18500000
v 2.12374777 -5.93571107 3.26153623
v 2.06154796 -5.85000000 -3.18500000
v 2.08649532 -5.85000000 -3.18252562
v 2.11047056 -5.85000000 -3.17519889
v 2.28320505 -6.34993307 -3.65250358
v 2.06154796 -6.35000000 -3.68500000
v 2.12374777 -5.93571107 -3.26153623
v -2.06154796 -6.35000000 3.68500000
v -2.06154796 -5.85000000 3.18500000
v -2.06154796 -5.85000000 -3.18500000
v -2.06154796 -6.35000000 -3.68500000
v -2.28320505 -6.34993307 3.65250358
v -2.08649532 -5.85000000 3.18252562
v -2.11047056 -5.85000000 3.17519889
v -2.13253945 -5.85000000 3.16330531
v -2.12374776 -5.93571106 3.26153622
v -2.13253945 -5.85000000 -3.16330531
v -2.11047056 -5.85000000 -3.17519889
v -2.08649532 -5.85000000 -3.18252562
v -2.28320334 -6.34992830 -3.65249903
v -2.12374777 -5.93571107 -3.26153623
v -3.56495205 -6.34938325 2.53086657
v -2.51933743 -5.85000000 2.86481482
v -2.86481482 -5.85000000 2.51933743
v -3.16330531 -5.85000000 2.13253945
v -3.16330531 -5.85000000 -2.13253945
v -2.86481482 -5.85000000 -2.51933743
v -2.51933743 -5.85000000 -2.86481482
v -3.68500000 -6.35000000 2.06154796
v -3.17519889 -5.85000000 2.11047056
v -3.18252562 -5.85000000 2.08649532
v -3.18500000 -5.85000000 2.06154796
v -3.26153623 -5.93571107 2.12374777
v -3.18397042 -5.85177329 -2.08368923
v -3.18252562 -5.85000000 -2.08649532
v -3.17519889 -5.85000000 -2.11047056
v -3.35960521 -6.34984494 -2.76863560
v -3.67019357 -6.34998520 -2.20811100
v -3.68500000 -6.35000000 -2.06154796
v -3.48280742 -6.18333322 -2.23887627
v 3.68500000 6.35000000 -2.06154796
v 3.68500000 6.35000000 2.06154796
v 3.18500000 5.85000000 2.06154796
v 3.18385328 5.85182732 -2.08587796
v 3.16330531 5.85000000 2.13253945
v 3.17519889 5.85000000 2.11047056
v 3.18252562 5.85000000 2.08649532
v 3.26153623 5.93571107 2.12374777
v 3.44271017 6.34973740 -2.67830721
v 3.67548032 6.34998889 -2.17820328
v 3.18252562 5.85000000 -2.08649532
v 3.17519889 5.85000000 -2.11047056
v 3.16330531 5.85000000 -2.13253945
v 3.48280739 6.18333318 -2.23887626
v 2.51933743 5.85000000 2.86481482
v 2.86481482 5.85000000 2.51933743
v 3.56495205 6.34938325 2.53086657
v 2.28320334 6.34992830 -3.65249903
v 2.86481482 5.85000000 -2.51933743
v 2.51933743 5.85000000 -2.86481482
v 2.13253945 5.85000000 -3.16330531
v 2.06154796 5.85000000 3.18500000
v 2.08649532 5.85000000 3.18252562
v 2.11047056 5.85000000 3.17519889
v 2.28320505 6.34993307 3.65250358
v 2.06154796 6.35000000 3.68500000
v 2.11765124 5.85128172 3.17299466
v 2.15197391 6.18333316 3.50936434
v 2.06154796 6.35000000 -3.68500000
v 2.11047056 5.85000000 -3.17519889
v 2.08649532 5.85000000 -3.18252562
v 2.06154796 5.85000000 -3.18500000
v 2.12374777 5.93571107 -3.26153623
v -2.06154796 5.85000000 3.18500000
v -2.06154796 6.35000000 3.68500000
v -2.06154796 6.35000000 -3.68500000
v -2.06154796 5.85000000 -3.18500000
v -2.13253945 5.85000000 3.16330531
v -2.11047056 5.85000000 3.17519889
v -2.08649532 5.85000000 3.18252562
v -2.12374777 5.93571107 3.26153623
v -2.28320505 6.34993307 -3.65250358
v -2.08649532 5.85000000 -3.18252562
v -2.11047056 5.85000000 -3.17519889
v -2.13253945 5.85000000 -3.16330531
v -2.12374776 5.93571106 -3.26153622
v -3.16330531 5.85000000 2.13253945
v -2.86481482 5.85000000 2.51933743
v -2.51933743 5.85000000 2.86481482
v -2.53086657 6.34938325 3.56495205
v -3.56495205 6.34938325 -2.53086657
v -2.51933743 5.85000000 -2.86481482
v -2.86481482 5.85000000 -2.51933743
v -3.16330531 5.85000000 -2.13253945
v -3.18500000 5.85000000 2.06154796
v -3.18252562 5.85000000 2.08649532
v -3.17519889 5.85000000 2.11047056
v -3.65250358 6.34993307 2.28320505
v -3.68500000 6.35000000 2.06154796
v -3.26153623 5.93571107 2.12374777
v -3.68500000 6.35000000 -2.06154796
v -3.17519889 5.85000000 -2.11047056
v -3.18252562 5.85000000 -2.08649532
v -3.18500000 5.85000000 -2.06154796
v -3.26153625 5.93571109 -2.12374777
v 5.46558069 -6.35000000 5.00108293
v 5.34335919 -6.35000000 4.53023192
v 5.18082373 -6.35000000 4.12377665
v 5.02474701 -6.35000000 3.84540768
v 4.89675290 -6.35000000 3.67211963
v 4.81494113 -6.35000000 3.58453812
v 4.65376969 -6.35000000 3.48283972
v 4.55987252 -6.35000000 3.41262842
v 4.44550217 -6.35000000 3.30671895
v 4.36286896 -6.35000000 3.20650280
v 4.30217503 -6.35000000 3.10661295
v 4.26117844 -6.35000000 3.00609740
v 4.23982795 -6.35000000 2.90826640
v 4.23667081 -6.35000000 2.81407683
v 4.25053027 -6.35000000 2.72471963
v 4.28031938 -6.35000000 2.64174612
v 4.41150446 -6.35000000 2.41149615
v 4.45833821 -6.35000000 2.34691112
v 4.50397109 -6.35000000 2.30114535
v 4.57583737 -6.35000000 2.24923172
v 4.65816606 -6.35000000 2.20984119
v 4.74991723 -6.35000000 2.18386077
v 4.86000773 -6.35000000 2.17170361
v 4.96837929 -6.35000000 2.17612127
v 5.09801477 -6.35000000 2.19935652
v 5.25350846 -6.35000000 2.24970769
v 5.34974862 -6.35000000 2.29215588
v 5.48671687 -6.35000000 2.36821913
v 5.59952079 -6.35000000 2.39898298
v 5.80094459 -6.35000000 2.42614501
v 6.10583698 -6.35000000 2.42839474
v 6.51439153 -6.35000000 2.37837753
v 6.79172315 -6.35000000 2.31542333
v 7.06385521 -6.35000000 2.23279026
v 7.06385521 6.35000000 2.23279026
v 6.59497552 6.35000000 2.36236884
v 6.16170720 6.35000000 2.42483664
v 5.84259424 6.35000000 2.42885472
v 5.62852533 6.35000000 2.40465259
v 5.51177163 6.35000000 2.37759227
v 5.34311252 6.35000000 2.28886291
v 5.23535916 6.35000000 2.24265123
v 5.08645370 6.35000000 2.19655834
v 4.95834736 6.35000000 2.17510395
v 4.84149325 6.35000000 2.17248639
v 4.73394593 6.35000000 2.18724009
v 4.63854656 6.35000000 2.21766551
v 4.55539743 6.35000000 2.26202613
v 4.48494155 6.35000000 2.31870738
v 4.42797894 6.35000000 2.38599226
v 4.29416916 6.35000000 2.61472686
v 4.26165376 6.35000000 2.68757858
v 4.24483588 6.35000000 2.74998071
v 4.23581049 6.35000000 2.83817555
v 4.24286164 6.35000000 2.92916955
v 4.26623752 6.35000000 3.02161860
v 4.31075436 6.35000000 3.12303835
v 4.36876594 6.35000000 3.21468205
v 4.45370600 6.35000000 3.31533204
v 4.57505824 6.35000000 3.42481795
v 4.65993954 6.35000000 3.48694027
v 4.79429636 6.35000000 3.56752663
v 4.87734060 6.35000000 3.64983577
v 5.00157551 6.35000000 3.81069287
v 5.15597003 6.35000000 4.07361257
v 5.31693112 6.35000000 4.45243979
v 5.40107700 6.35000000 4.72409312
v 5.46558069 6.35000000 5.00108293
v 2.23279026 -6.35000000 7.06385521
v 2.36236884 -6.35000000 6.59497552
v 2.42483664 -6.35000000 6.16170720
v 2.42885472 -6.35000000 5.84259424
v 2.40465259 -6.35000000 5.62852533
v 2.37759227 -6.35000000 5.51177163
v 2.28886291 -6.35000000 5.34311252
v 2.24265123 -6.35000000 5.23535916
v 2.19655834 -6.35000000 5.08645370
v 2.17510395 -6.35000000 4.95834736
v 2.17248639 -6.35000000 4.84149325
v 2.18724009 -6.35000000 4.73394593
v 2.21766551 -6.35000000 4.63854656
v 2.26202613 -6.35000000 4.55539743
v 2.31870738 -6.35000000 4.48494155
v 2.38599226 -6.35000000 4.42797894
v 2.61472686 -6.35000000 4.29416916
v 2.68757858 -6.35000000 4.26165376
v 2.74998071 -6.35000000 4.24483588
v 2.83817555 -6.35000000 4.23581049
v 2.92916955 -6.35000000 4.24286164
v 3.02161860 -6.35000000 4.26623752
v 3.12303835 -6.35000000 4.31075436
v 3.21468205 -6.35000000 4.36876594
v 3.31533204 -6.35000000 4.45370600
v 3.42481795 -6.35000000 4.57505824
v 3.48694027 -6.35000000 4.65993954
v 3.56752663 -6.35000000 4.79429636
v 3.64983577 -6.35000000 4.87734060
v 3.81069287 -6.35000000 5.00157551
v 4.07361257 -6.35000000 5.15597003
v 4.45243979 -6.35000000 5.31693112
v 4.72409312 -6.35000000 5.40107700
v 5.00108293 -6.35000000 5.46558069
v 5.00108293 6.35000000 5.46558069
v 4.53023192 6.35000000 5.34335919
v 4.12377665 6.35000000 5.18082373
v 3.84540768 6.35000000 5.02474701
v 3.67211963 6.35000000 4.89675290
v 3.58453812 6.35000000 4.81494113
v 3.48283972 6.35000000 4.65376969
v 3.41262842 6.35000000 4.55987252
v 3.30671895 6.35000000 4.44550217
v 3.20650280 6.35000000 4.36286896
v 3.10661295 6.35000000 4.30217503
v 3.00609740 6.35000000 4.26117844
v 2.90826640 6.35000000 4.23982795
v 2.81407683 6.35000000 4.23667081
v 2.72471963 6.35000000 4.25053027
v 2.64174612 6.35000000 4.28031938
v 2.41149615 6.35000000 4.41150446
v 2.34691112 6.35000000 4.45833821
v 2.30114535 6.35000000 4.50397109
v 2.24923172 6.35000000 4.57583737
v 2.20984119 6.35000000 4.65816606
v 2.18386077 6.35000000 4.74991723
v 2.17170361 6.35000000 4.86000773
v 2.17612127 6.35000000 4.96837929
v 2.19935652 6.35000000 5.09801477
v 2.24970769 6.35000000 5.25350846
v 2.29215588 6.35000000 5.34974862
v 2.36821913 6.35000000 5.48671687
v 2.39898298 6.35000000 5.59952079
v 2.42614501 6.35000000 5.80094459
v 2.42839474 6.35000000 6.10583698
v 2.37837753 6.35000000 6.51439153
v 2.31542333 6.35000000 6.79172315
v 2.23279026 6.35000000 7.06385521
v -1.59827452 -6.35000000 7.23387319
v -1.25161634 -6.35000000 6.89260076
v -0.98088347 -6.35000000 6.54861328
v -0.81784723 -6.35000000 6.27426239
v -0.73177244 -6.35000000 6.07677222
v -0.69683051 -6.35000000 5.96213039
v -0.68934283 -6.35000000 5.77170263
v -0.67548664 -6.35000000 5.65527965
v -0.64095153 -6.35000000 5.50327729
v -0.59547841 -6.35000000 5.38160675
v -0.53931822 -6.35000000 5.27909934
v -0.47276749 -6.35000000 5.19333748
v -0.39871861 -6.35000000 5.12593191
v -0.31872662 -6.35000000 5.07610297
v -0.23441128 -6.35000000 5.04342701
v -0.14765956 -6.35000000 5.02773838
v 0.11733530 -6.35000000 5.02622301
v 0.19668445 -6.35000000 5.03448971
v 0.25913522 -6.35000000 5.05112606
v 0.34002688 -6.35000000 5.08740726
v 0.41530442 -6.35000000 5.13901074
v 0.48367970 -6.35000000 5.20547937
v 0.54925337 -6.35000000 5.29474196
v 0.59961335 -6.35000000 5.39080332
v 0.64430876 -6.35000000 5.51468856
v 0.67845022 -6.35000000 5.67452563
v 0.68980908 -6.35000000 5.77909615
v 0.69242051 -6.35000000 5.93574575
v 0.72218019 -6.35000000 6.04881874
v 0.79936908 -6.35000000 6.23683788
v 0.94986696 -6.35000000 6.50200731
v 1.19746040 -6.35000000 6.83081732
v 1.39064615 -6.35000000 7.03951645
v 1.59827452 -6.35000000 7.23387319
v 1.59827452 6.35000000 7.23387319
v 1.25161634 6.35000000 6.89260076
v 0.98088347 6.35000000 6.54861328
v 0.81784723 6.35000000 6.27426239
v 0.73177244 6.35000000 6.07677222
v 0.69683051 6.35000000 5.96213039
v 0.68934283 6.35000000 5.77170263
v 0.67548664 6.35000000 5.65527965
v 0.64095153 6.35000000 5.50327729
v 0.59547841 6.35000000 5.38160675
v 0.53931822 6.35000000 5.27909934
v 0.47276749 6.35000000 5.19333748
v 0.39871861 6.35000000 5.12593191
v 0.31872662 6.35000000 5.07610297
v 0.23441128 6.35000000 5.04342701
v 0.14765956 6.35000000 5.02773838
v -0.11733530 6.35000000 5.02622301
v -0.19668445 6.35000000 5.03448971
v -0.25913522 6.35000000 5.05112606
v -0.34002688 6.35000000 5.08740726
v -0.41530442 6.35000000 5.13901074
v -0.48367970 6.35000000 5.20547937
v -0.54925337 6.35000000 5.29474196
v -0.59961335 6.35000000 5.39080332
v -0.64430876 6.35000000 5.51468856
v -0.67845022 6.35000000 5.67452563
v -0.68980908 6.35000000 5.77909615
v -0.69242051 6.35000000 5.93574575
v -0.72218019 6.35000000 6.04881874
v -0.79936908 6.35000000 6.23683788
v -0.94986696 6.35000000 6.50200731
v -1.19746040 6.35000000 6.83081732
v -1.39064615 6.35000000 7.03951645
v -1.59827452 6.35000000 7.23387319
v -5.00108293 -6.35000000 5.46558069
v -4.53023192 -6.35000000 5.34335919
v -4.12377665 -6.35000000 5.18082373
v -3.84540768 -6.35000000 5.02474701
v -3.67211963 -6.35000000 4.89675290
v -3.58453812 -6.35000000 4.81494113
v -3.48283972 -6.35000000 4.65376969
v -3.41262842 -6.35000000 4.55987252
v -3.30671895 -6.35000000 4.44550217
v -3.20650280 -6.35000000 4.36286896
v -3.10661295 -6.35000000 4.30217503
v -3.00609740 -6.35000000 4.26117844
v -2.90826640 -6.35000000 4.23982795
v -2.81407683 -6.35000000 4.23667081
v -2.72471963 -6.35000000 4.25053027
v -2.64174612 -6.35000000 4.28031938
v -2.41149615 -6.35000000 4.41150446
v -2.34691112 -6.35000000 4.45833821
v -2.30114535 -6.35000000 4.50397109
v -2.24923172 -6.35000000 4.57583737
v -2.20984119 -6.35000000 4.65816606
v -2.18386077 -6.35000000 4.74991723
v -2.17170361 -6.35000000 4.86000773
v -2.17612127 -6.35000000 4.96837929
v -2.19935652 -6.35000000 5.09801477
v -2.24970769 -6.35000000 5.25350846
v -2.29215588 -6.35000000 5.34974862
v -2.36821913 -6.35000000 5.48671687
v -2.39898298 -6.35000000 5.59952079
v -2.42614501 -6.35000000 5.80094459
v -2.42839474 -6.35000000 6.10583698
v -2.37837753 -6.35000000 6.51439153
v -2.31542333 -6.35000000 6.79172315
v -2.23279026 -6.35000000 7.06385521
v -2.23279026 6.35000000 7.06385521
v -2.36236884 6.35000000 6.59497552
v -2.42483664 6.35000000 6.16170720
v -2.42885472 6.35000000 5.84259424
v -2.40465259 6.35000000 5.62852533
v -2.37759227 6.35000000 5.51177163
v -2.28886291 6.35000000 5.34311252
v -2.24265123 6.35000000 5.23535916
v -2.19655834 6.35000000 5.08645370
v -2.17510395 6.35000000 4.95834736
v -2.17248639 6.35000000 4.84149325
v -2.18724009 6.35000000 4.73394593
v -2.21766551 6.35000000 4.63854656
v -2.26202613 6.35000000 4.55539743
v -2.31870738 6.35000000 4.48494155
v -2.38599226 6.35000000 4.42797894
v -2.61472686 6.35000000 4.29416916
v -2.68757858 6.35000000 4.26165376
v -2.74998071 6.35000000 4.24483588
v -2.83817555 6.35000000 4.23581049
v -2.92916955 6.35000000 4.24286164
v -3.02161860 6.35000000 4.26623752
v -3.12303835 6.35000000 4.31075436
v -3.21468205 6.35000000 4.36876594
v -3.31533204 6.35000000 4.45370600
v -3.42481795 6.35000000 4.57505824
v -3.48694027 6.35000000 4.65993954
v -3.56752663 6.35000000 4.79429636
v -3.64983577 6.35000000 4.87734060
v -3.81069287 6.35000000 5.00157551
v -4.07361257 6.35000000 5.15597003
v -4.45243979 6.35000000 5.31693112
v -4.72409312 6.35000000 5.40107700
v -5.00108293 6.35000000 5.46558069
v -7.06385521 -6.35000000 2.23279026
v -6.59497552 -6.35000000 2.36236884
v -6.16170720 -6.35000000 2.42483664
v -5.84259424 -6.35000000 2.42885472
v -5.62852533 -6.35000000 2.40465259
v -5.51177163 -6.35000000 2.37759227
v -5.34311252 -6.35000000 2.28886291
v -5.23535916 -6.35000000 2.24265123
v -5.08645370 -6.35000000 2.19655834
v -4.95834736 -6.35000000 2.17510395
v -4.84149325 -6.35000000 2.17248639
v -4.73394593 -6.35000000 2.18724009
v -4.63854656 -6.35000000 2.21766551
v -4.55539743 -6.35000000 2.26202613
v -4.48494155 -6.35000000 2.31870738
v -4.42797894 -6.35000000 2.38599226
v -4.29416916 -6.35000000 2.61472686
v -4.26165376 -6.35000000 2.68757858
v -4.24483588 -6.35000000 2.74998071
v -4.23581049 -6.35000000 2.83817555
v -4.24286164 -6.35000000 2.92916955
v -4.26623752 -6.35000000 3.02161860
v -4.31075436 -6.35000000 3.12303835
v -4.36876594 -6.35000000 3.21468205
v -4.45370600 -6.35000000 3.31533204
v -4.57505824 -6.35000000 3.42481795
v -4.65993954 -6.35000000 3.48694027
v -4.79429636 -6.35000000 3.56752663
v -4.87734060 -6.35000000 3.64983577
v -5.00157551 -6.35000000 3.81069287
v -5.15597003 -6.35000000 4.07361257
v -5.31693112 -6.35000000 4.45243979
v -5.40107700 -6.35000000 4.72409312
v -5.46558069 -6.35000000 5.00108293
v -5.46558069 6.35000000 5.00108293
v -5.34335919 6.35000000 4.53023192
v -5.18082373 6.35000000 4.12377665
v -5.02474701 6.35000000 3.84540768
v -4.89675290 6.35000000 3.67211963
v -4.81494113 6.35000000 3.58453812
v -4.65376969 6.35000000 3.48283972
v -4.55987252 6.35000000 3.41262842
v -4.44550217 6.35000000 3.30671895
v -4.36286896 6.35000000 3.20650280
v -4.30217503 6.35000000 3.10661295
v -4.26117844 6.35000000 3.00609740
v -4.23982795 6.35000000 2.90826640
v -4.23667081 6.35000000 2.81407683
v -4.25053027 6.35000000 2.72471963
v -4.28031938 6.35000000 2.64174612
v -4.41150446 6.35000000 2.41149615
v -4.45833821 6.35000000 2.34691112
v -4.50397109 6.35000000 2.30114535
v -4.57583737 6.35000000 2.24923172
v -4.65816606 6.35000000 2.20984119
v -4.74991723 6.35000000 2.18386077
v -4.86000773 6.35000000 2.17170361
v -4.96837929 6.35000000 2.17612127
v -5.09801477 6.35000000 2.19935652
v -5.25350846 6.35000000 2.24970769
v -5.34974862 6.35000000 2.29215588
v -5.48671687 6.35000000 2.36821913
v -5.59952079 6.35000000 2.39898298
v -5.80094459 6.35000000 2.42614501
v -6.10583698 6.35000000 2.42839474
v -6.51439153 6.35000000 2.37837753
v -6.79172315 6.35000000 2.31542333
v -7.06385521 6.35000000 2.23279026
v -7.23387319 -6.35000000 -1.59827452
v -6.89260076 -6.35000000 -1.25161634
v -6.54861328 -6.35000000 -0.98088347
v -6.27426239 -6.35000000 -0.81784723
v -6.07677222 -6.35000000 -0.73177244
v -5.96213039 -6.35000000 -0.69683051
v -5.77170263 -6.35000000 -0.68934283
v -5.65527965 -6.35000000 -0.67548664
v -5.50327729 -6.35000000 -0.64095153
v -5.38160675 -6.35000000 -0.59547841
v -5.27909934 -6.35000000 -0.53931822
v -5.19333748 -6.35000000 -0.47276749
v -5.12593191 -6.35000000 -0.39871861
v -5.07610297 -6.35000000 -0.31872662
v -5.04342701 -6.35000000 -0.23441128
v -5.02773838 -6.35000000 -0.14765956
v -5.02622301 -6.35000000 0.11733530
v -5.03448971 -6.35000000 0.19668445
v -5.05112606 -6.35000000 0.25913522
v -5.08740726 -6.35000000 0.34002688
v -5.13901074 -6.35000000 0.41530442
v -5.20547937 -6.35000000 0.48367970
v -5.29474196 -6.35000000 0.54925337
v -5.39080332 -6.35000000 0.59961335
v -5.51468856 -6.35000000 0.64430876
v -5.67452563 -6.35000000 0.67845022
v -5.77909615 -6.35000000 0.68980908
v -5.93574575 -6.35000000 0.69242051
v -6.04881874 -6.35000000 0.72218019
v -6.23683788 -6.35000000 0.79936908
v -6.50200731 -6.35000000 0.94986696
v -6.83081732 -6.35000000 1.19746040
v -7.03951645 -6.35000000 1.39064615
v -7.23387319 -6.35000000 1.59827452
v -7.23387319 6.35000000 1.59827452
v -6.89260076 6.35000000 1.25161634
v -6.54861328 6.35000000 0.98088347
v -6.27426239 6.35000000 0.81784723
v -6.07677222 6.35000000 0.73177244
v -5.96213039 6.35000000 0.69683051
v -5.77170263 6.35000000 0.68934283
v -5.65527965 6.35000000 0.67548664
v -5.50327729 6.35000000 0.64095153
v -5.38160675 6.35000000 0.59547841
v -5.27909934 6.35000000 0.53931822
v -5.19333748 6.35000000 0.47276749
v -5.12593191 6.35000000 0.39871861
v -5.07610297 6.35000000 0.31872662
v -5.04342701 6.35000000 0.23441128
v -5.02773838 6.35000000 0.14765956
v -5.02622301 6.35000000 -0.11733530
v -5.03448971 6.35000000 -0.19668445
v -5.05112606 6.35000000 -0.25913522
v -5.08740726 6.35000000 -0.34002688
v -5.13901074 6.35000000 -0.41530442
v -5.20547937 6.35000000 -0.48367970
v -5.29474196 6.35000000 -0.54925337
v -5.39080332 6.35000000 -0.59961335
v -5.51468856 6.35000000 -0.64430876
v -5.67452563 6.35000000 -0.67845022
v -5.77909615 6.35000000 -0.68980908
v -5.93574575 6.35000000 -0.69242051
v -6.04881874 6.35000000 -0.72218019
v -6.23683788 6.35000000 -0.79936908
v -6.50200731 6.35000000 -0.94986696
v -6.83081732 6.35000000 -1.19746040
v -7.03951645 6.35000000 -1.39064615
v -7.23387319 6.35000000 -1.59827452
v -5.46558069 -6.35000000 -5.00108293
v -5.34335919 -6.35000000 -4.53023192
v -5.18082373 -6.35000000 -4.12377665
v -5.02474701 -6.35000000 -3.84540768
v -4.89675290 -6.35000000 -3.67211963
v -4.81494113 -6.35000000 -3.58453812
v -4.65376969 -6.35000000 -3.48283972
v -4.55987252 -6.35000000 -3.41262842
v -4.44550217 -6.35000000 -3.30671895
v -4.36286896 -6.35000000 -3.20650280
v -4.30217503 -6.35000000 -3.10661295
v -4.26117844 -6.35000000 -3.00609740
v -4.23982795 -6.35000000 -2.90826640
v -4.23667081 -6.35000000 -2.81407683
v -4.25053027 -6.35000000 -2.72471963
v -4.28031938 -6.35000000 -2.64174612
v -4.41150446 -6.35000000 -2.41149615
v -4.45833821 -6.35000000 -2.34691112
v -4.50397109 -6.35000000 -2.30114535
v -4.57583737 -6.35000000 -2.24923172
v -4.65816606 -6.35000000 -2.20984119
v -4.74991723 -6.35000000 -2.18386077
v -4.86000773 -6.35000000 -2.17170361
v -4.96837929 -6.35000000 -2.17612127
v -5.09801477 -6.35000000 -2.19935652
v -5.25350846 -6.35000000 -2.24970769
v -5.34974862 -6.35000000 -2.29215588
v -5.48671687 -6.35000000 -2.36821913
v -5.59952079 -6.35000000 -2.39898298
v -5.80094459 -6.35000000 -2.42614501
v -6.10583698 -6.35000000 -2.42839474
v -6.51439153 -6.35000000 -2.37837753
v -6.79172315 -6.35000000 -2.31542333
v -7.06385521 -6.35000000 -2.23279026
v -7.06385521 6.35000000 -2.23279026
v -6.59497552 6.35000000 -2.36236884
v -6.16170720 6.35000000 -2.42483664
v -5.84259424 6.35000000 -2.42885472
v -5.62852533 6.35000000 -2.40465259
v -5.51177163 6.35000000 -2.37759227
v -5.34311252 6.35000000 -2.28886291
v -5.23535916 6.35000000 -2.24265123
v -5.08645370 6.35000000 -2.19655834
v -4.95834736 6.35000000 -2.17510395
v -4.84149325 6.35000000 -2.17248639
v -4.73394593 6.35000000 -2.18724009
v -4.63854656 6.35000000 -2.21766551
v -4.55539743 6.35000000 -2.26202613
v -4.48494155 6.35000000 -2.31870738
v -4.42797894 6.35000000 -2.38599226
v -4.29416916 6.35000000 -2.61472686
v -4.26165376 6.35000000 -2.68757858
v -4.24483588 6.35000000 -2.74998071
v -4.23581049 6.35000000 -2.83817555
v -4.24286164 6.35000000 -2.92916955
v -4.26623752 6.35000000 -3.02161860
v -4.31075436 6.35000000 -3.12303835
v -4.36876594 6.35000000 -3.21468205
v -4.45370600 6.35000000 -3.31533204
v -4.57505824 6.35000000 -3.42481795
v -4.65993954 6.35000000 -3.48694027
v -4.79429636 6.35000000 -3.56752663
v -4.87734060 6.35000000 -3.64983577
v -5.00157551 6.35000000 -3.81069287
v -5.15597003 6.35000000 -4.07361257
v -5.31693112 6.35000000 -4.45243979
v -5.40107700 6.35000000 -4.72409312
v -5.46558069 6.35000000 -5.00108293
v -2.23279026 -6.35000000 -7.06385521
v -2.36236884 -6.35000000 -6.59497552
v -2.42483664 -6.35000000 -6.16170720
v -2.42885472 -6.35000000 -5.84259424
v -2.40465259 -6.35000000 -5.62852533
v -2.37759227 -6.35000000 -5.51177163
v -2.28886291 -6.35000000 -5.34311252
v -2.24265123 -6.35000000 -5.23535916
v -2.19655834 -6.35000000 -5.08645370
v -2.17510395 -6.35000000 -4.95834736
v -2.17248639 -6.35000000 -4.84149325
v -2.18724009 -6.35000000 -4.73394593
v -2.21766551 -6.35000000 -4.63854656
v -2.26202613 -6.35000000 -4.55539743
v -2.31870738 -6.35000000 -4.48494155
v -2.38599226 -6.35000000 -4.42797894
v -2.61472686 -6.35000000 -4.29416916
v -2.68757858 -6.35000000 -4.26165376
v -2.74998071 -6.35000000 -4.24483588
v -2.83817555 -6.35000000 -4.23581049
v -2.92916955 -6.35000000 -4.24286164
v -3.02161860 -6.35000000 -4.26623752
v -3.12303835 -6.35000000 -4.31075436
v -3.21468205 -6.35000000 -4.36876594
v -3.31533204 -6.35000000 -4.45370600
v -3.42481795 -6.35000000 -4.57505824
v -3.48694027 -6.35000000 -4.65993954
v -3.56752663 -6.35000000 -4.79429636
v -3.64983577 -6.35000000 -4.87734060
v -3.81069287 -6.35000000 -5.00157551
v -4.07361257 -6.35000000 -5.15597003
v -4.45243979 -6.35000000 -5.31693112
v -4.72409312 -6.35000000 -5.40107700
v -5.00108293 -6.35000000 -5.46558069
v -5.00108293 6.35000000 -5.46558069
v -4.53023192 6.35000000 -5.34335919
v -4.12377665 6.35000000 -5.18082373
v -3.84540768 6.35000000 -5.02474701
v -3.67211963 6.35000000 -4.89675290
v -3.58453812 6.35000000 -4.81494113
v -3.48283972 6.35000000 -4.65376969
v -3.41262842 6.35000000 -4.55987252
v -3.30671895 6.35000000 -4.44550217
v -3.20650280 6.35000000 -4.36286896
v -3.10661295 6.35000000 -4.30217503
v -3.00609740 6.35000000 -4.26117844
v -2.90826640 6.35000000 -4.23982795
v -2.81407683 6.35000000 -4.23667081
v -2.72471963 6.35000000 -4.25053027
v -2.64174612 6.35000000 -4.28031938
v -2.41149615 6.35000000 -4.41150446
v -2.34691112 6.35000000 -4.45833821
v -2.30114535 6.35000000 -4.50397109
v -2.24923172 6.35000000 -4.57583737
v -2.20984119 6.35000000 -4.65816606
v -2.18386077 6.35000000 -4.74991723
v -2.17170361 6.35000000 -4.86000773
v -2.17612127 6.35000000 -4.96837929
v -2.19935652 6.35000000 -5.09801477
v -2.24970769 6.35000000 -5.25350846
v -2.29215588 6.35000000 -5.34974862
v -2.36821913 6.35000000 -5.48671687
v -2.39898298 6.35000000 -5.59952079
v -2.42614501 6.35000000 -5.80094459
v -2.42839474 6.35000000 -6.10583698
v -2.37837753 6.35000000 -6.51439153
v -2.31542333 6.35000000 -6.79172315
v -2.23279026 6.35000000 -7.06385521
v 1.59827452 -6.35000000 -7.23387319
v 1.25161634 -6.35000000 -6.89260076
v 0.98088347 -6.35000000 -6.54861328
v 0.81784723 -6.35000000 -6.27426239
v 0.73177244 -6.35000000 -6.07677222
v 0.69683051 -6.35000000 -5.96213039
v 0.68934283 -6.35000000 -5.77170263
v 0.67548664 -6.35000000 -5.65527965
v 0.64095153 -6.35000000 -5.50327729
v 0.59547841 -6.35000000 -5.38160675
v 0.53931822 -6.35000000 -5.27909934
v 0.47276749 -6.35000000 -5.19333748
v 0.39871861 -6.35000000 -5.12593191
v 0.31872662 -6.35000000 -5.07610297
v 0.23441128 -6.35000000 -5.04342701
v 0.14765956 -6.35000000 -5.02773838
v -0.11733530 -6.35000000 -5.02622301
v -0.19668445 -6.35000000 -5.03448971
v -0.25913522 -6.35000000 -5.05112606
v -0.34002688 -6.35000000 -5.08740726
v -0.41530442 -6.35000000 -5.13901074
v -0.48367970 -6.35000000 -5.20547937
v -0.54925337 -6.35000000 -5.29474196
v -0.59961335 -6.35000000 -5.39080332
v -0.64430876 -6.35000000 -5.51468856
v -0.67845022 -6.35000000 -5.67452563
v -0.68980908 -6.35000000 -5.77909615
v -0.69242051 -6.35000000 -5.93574575
v -0.72218019 -6.35000000 -6.04881874
v -0.79936908 -6.35000000 -6.23683788
v -0.94986696 -6.35000000 -6.50200731
v -1.19746040 -6.35000000 -6.83081732
v -1.39064615 -6.35000000 -7.03951645
v -1.59827452 -6.35000000 -7.23387319
v -1.59827452 6.35000000 -7.23387319
v -1.25161634 6.35000000 -6.89260076
v -0.98088347 6.35000000 -6.54861328
v -0.81784723 6.35000000 -6.27426239
v -0.73177244 6.35000000 -6.07677222
v -0.69683051 6.35000000 -5.96213039
v -0.68934283 6.35000000 -5.77170263
v -0.67548664 6.35000000 -5.65527965
v -0.64095153 6.35000000 -5.50327729
v -0.59547841 6.35000000 -5.38160675
v -0.53931822 6.35000000 -5.27909934
v -0.47276749 6.35000000 -5.19333748
v -0.39871861 6.35000000 -5.12593191
v -0.31872662 6.35000000 -5.07610297
v -0.23441128 6.35000000 -5.04342701
v -0.14765956 6.35000000 -5.02773838
v 0.11733530 6.35000000 -5.02622301
v 0.19668445 6.35000000 -5.03448971
v 0.25913522 6.35000000 -5.05112606
v 0.34002688 6.35000000 -5.08740726
v 0.41530442 6.35000000 -5.13901074
v 0.48367970 6.35000000 -5.20547937
v 0.54925337 6.35000000 -5.29474196
v 0.59961335 6.35000000 -5.39080332
v 0.64430876 6.35000000 -5.51468856
v 0.67845022 6.35000000 -5.67452563
v 0.68980908 6.35000000 -5.77909615
v 0.69242051 6.35000000 -5.93574575
v 0.72218019 6.35000000 -6.04881874
v 0.79936908 6.35000000 -6.23683788
v 0.94986696 6.35000000 -6.50200731
v 1.19746040 6.35000000 -6.83081732
v 1.39064615 6.35000000 -7.03951645
v 1.59827452 6.35000000 -7.23387319
v 5.00108293 -6.35000000 -5.46558069
v 4.53023192 -6.35000000 -5.34335919
v 4.12377665 -6.35000000 -5.18082373
v 3.84540768 -6.35000000 -5.02474701
v 3.67211963 -6.35000000 -4.89675290
v 3.58453812 -6.35000000 -4.81494113
v 3.48283972 -6.35000000 -4.65376969
v 3.41262842 -6.35000000 -4.55987252
v 3.30671895 -6.35000000 -4.44550217
v 3.20650280 -6.35000000 -4.36286896
v 3.10661295 -6.35000000 -4.30217503
v 3.00609740 -6.35000000 -4.26117844
v 2.90826640 -6.35000000 -4.23982795
v 2.81407683 -6.35000000 -4.23667081
v 2.72471963 -6.35000000 -4.25053027
v 2.64174612 -6.35000000 -4.28031938
v 2.41149615 -6.35000000 -4.41150446
v 2.34691112 -6.35000000 -4.45833821
v 2.30114535 -6.35000000 -4.50397109
v 2.24923172 -6.35000000 -4.57583737
v 2.20984119 -6.35000000 -4.65816606
v 2.18386077 -6.35000000 -4.74991723
v 2.17170361 -6.35000000 -4.86000773
v 2.17612127 -6.35000000 -4.96837929
v 2.19935652 -6.35000000 -5.09801477
v 2.24970769 -6.35000000 -5.25350846
v 2.29215588 -6.35000000 -5.34974862
v 2.36821913 -6.35000000 -5.48671687
v 2.39898298 -6.35000000 -5.59952079
v 2.42614501 -6.35000000 -5.80094459
v 2.42839474 -6.35000000 -6.10583698
v 2.37837753 -6.35000000 -6.51439153
v 2.31542333 -6.35000000 -6.79172315
v 2.23279026 -6.35000000 -7.06385521
v 2.23279026 6.35000000 -7.06385521
v 2.36236884 6.35000000 -6.59497552
v 2.42483664 6.35000000 -6.16170720
v 2.42885472 6.35000000 -5.84259424
v 2.40465259 6.35000000 -5.62852533
v 2.37759227 6.35000000 -5.51177163
v 2.28886291 6.35000000 -5.34311252
v 2.24265123 6.35000000 -5.23535916
v 2.19655834 6.35000000 -5.08645370
v 2.17510395 6.35000000 -4.95834736
v 2.17248639 6.35000000 -4.84149325
v 2.18724009 6.35000000 -4.73394593
v 2.21766551 6.35000000 -4.63854656
v 2.26202613 6.35000000 -4.55539743
v 2.31870738 6.35000000 -4.48494155
v 2.38599226 6.35000000 -4.42797894
v 2.61472686 6.35000000 -4.29416916
v 2.68757858 6.35000000 -4.26165376
v 2.74998071 6.35000000 -4.24483588
v 2.83817555 6.35000000 -4.23581049
v 2.92916955 6.35000000 -4.24286164
v 3.02161860 6.35000000 -4.26623752
v 3.12303835 6.35000000 -4.31075436
v 3.21468205 6.35000000 -4.36876594
v 3.31533204 6.35000000 -4.45370600
v 3.42481795 6.35000000 -4.57505824
v 3.48694027 6.35000000 -4.65993954
v 3.56752663 6.35000000 -4.79429636
v 3.64983577 6.35000000 -4.87734060
v 3.81069287 6.35000000 -5.00157551
v 4.07361257 6.35000000 -5.15597003
v 4.45243979 6.35000000 -5.31693112
v 4.72409312 6.35000000 -5.40107700
v 5.00108293 6.35000000 -5.46558069
v 7.06385521 -6.35000000 -2.23279026
v 6.59497552 -6.35000000 -2.36236884
v 6.16170720 -6.35000000 -2.42483664
v 5.84259424 -6.35000000 -2.42885472
v 5.62852533 -6.35000000 -2.40465259
v 5.51177163 -6.35000000 -2.37759227
v 5.34311252 -6.35000000 -2.28886291
v 5.23535916 -6.35000000 -2.24265123
v 5.08645370 -6.35000000 -2.19655834
v 4.95834736 -6.35000000 -2.17510395
v 4.84149325 -6.35000000 -2.17248639
v 4.73394593 -6.35000000 -2.18724009
v 4.63854656 -6.35000000 -2.21766551
v 4.55539743 -6.35000000 -2.26202613
v 4.48494155 -6.35000000 -2.31870738
v 4.42797894 -6.35000000 -2.38599226
v 4.29416916 -6.35000000 -2.61472686
v 4.26165376 -6.35000000 -2.68757858
v 4.24483588 -6.35000000 -2.74998071
v 4.23581049 -6.35000000 -2.83817555
v 4.24286164 -6.35000000 -2.92916955
v 4.26623752 -6.35000000 -3.02161860
v 4.31075436 -6.35000000 -3.12303835
v 4.36876594 -6.35000000 -3.21468205
v 4.45370600 -6.35000000 -3.31533204
v 4.57505824 -6.35000000 -3.42481795
v 4.65993954 -6.35000000 -3.48694027
v 4.79429636 -6.35000000 -3.56752663
v 4.87734060 -6.35000000 -3.64983577
v 5.00157551 -6.35000000 -3.81069287
v 5.15597003 -6.35000000 -4.07361257
v 5.31693112 -6.35000000 -4.45243979
v 5.40107700 -6.35000000 -4.72409312
v 5.46558069 -6.35000000 -5.00108293
v 5.46558069 6.35000000 -5.00108293
v 5.34335919 6.35000000 -4.53023192
v 5.18082373 6.35000000 -4.12377665
v 5.02474701 6.35000000 -3.84540768
v 4.89675290 6.35000000 -3.67211963
v 4.81494113 6.35000000 -3.58453812
v 4.65376969 6.35000000 -3.48283972
v 4.55987252 6.35000000 -3.41262842
v 4.44550217 6.35000000 -3.30671895
v 4.36286896 6.35000000 -3.20650280
v 4.30217503 6.35000000 -3.10661295
v 4.26117844 6.35000000 -3.00609740
v 4.23982795 6.35000000 -2.90826640
v 4.23667081 6.35000000 -2.81407683
v 4.25053027 6.35000000 -2.72471963
v 4.28031938 6.35000000 -2.64174612
v 4.41150446 6.35000000 -2.41149615
v 4.45833821 6.35000000 -2.34691112
v 4.50397109 6.35000000 -2.30114535
v 4.57583737 6.35000000 -2.24923172
v 4.65816606 6.35000000 -2.20984119
v 4.74991723 6.35000000 -2.18386077
v 4.86000773 6.35000000 -2.17170361
v 4.96837929 6.35000000 -2.17612127
v 5.09801477 6.35000000 -2.19935652
v 5.25350846 6.35000000 -2.24970769
v 5.34974862 6.35000000 -2.29215588
v 5.48671687 6.35000000 -2.36821913
v 5.59952079 6.35000000 -2.39898298
v 5.80094459 6.35000000 -2.42614501
v 6.10583698 6.35000000 -2.42839474
v 6.51439153 6.35000000 -2.37837753
v 6.79172315 6.35000000 -2.31542333
v 7.06385521 6.35000000 -2.23279026
v 7.23387319 -6.35000000 1.59827452
v 6.89260076 -6.35000000 1.25161634
v 6.54861328 -6.35000000 0.98088347
v 6.27426239 -6.35000000 0.81784723
v 6.07677222 -6.35000000 0.73177244
v 5.96213039 -6.35000000 0.69683051
v 5.77170263 -6.35000000 0.68934283
v 5.65527965 -6.35000000 0.67548664
v 5.50327729 -6.35000000 0.64095153
v 5.38160675 -6.35000000 0.59547841
v 5.27909934 -6.35000000 0.53931822
v 5.19333748 -6.35000000 0.47276749
v 5.12593191 -6.35000000 0.39871861
v 5.07610297 -6.35000000 0.31872662
v 5.04342701 -6.35000000 0.23441128
v 5.02773838 -6.35000000 0.14765956
v 5.02622301 -6.35000000 -0.11733530
v 5.03448971 -6.35000000 -0.19668445
v 5.05112606 -6.35000000 -0.25913522
v 5.08740726 -6.35000000 -0.34002688
v 5.13901074 -6.35000000 -0.41530442
v 5.20547937 -6.35000000 -0.48367970
v 5.29474196 -6.35000000 -0.54925337
v 5.39080332 -6.35000000 -0.59961335
v 5.51468856 -6.35000000 -0.64430876
v 5.67452563 -6.35000000 -0.67845022
v 5.77909615 -6.35000000 -0.68980908
v 5.93574575 -6.35000000 -0.69242051
v 6.04881874 -6.35000000 -0.72218019
v 6.23683788 -6.35000000 -0.79936908
v 6.50200731 -6.35000000 -0.94986696
v 6.83081732 -6.35000000 -1.19746040
v 7.03951645 -6.35000000 -1.39064615
v 7.23387319 -6.35000000 -1.59827452
v 7.23387319 6.35000000 -1.59827452
v 6.89260076 6.35000000 -1.25161634
v 6.54861328 6.35000000 -0.98088347
v 6.27426239 6.35000000 -0.81784723
v 6.07677222 6.35000000 -0.73177244
v 5.96213039 6.35000000 -0.69683051
v 5.77170263 6.35000000 -0.68934283
v 5.65527965 6.35000000 -0.67548664
v 5.50327729 6.35000000 -0.64095153
v 5.38160675 6.35000000 -0.59547841
v 5.27909934 6.35000000 -0.53931822
v 5.19333748 6.35000000 -0.47276749
v 5.12593191 6.35000000 -0.39871861
v 5.07610297 6.35000000 -0.31872662
v 5.04342701 6.35000000 -0.23441128
v 5.02773838 6.35000000 -0.14765956
v 5.02622301 6.35000000 0.11733530
v 5.03448971 6.35000000 0.19668445
v 5.05112606 6.35000000 0.25913522
v 5.08740726 6.35000000 0.34002688
v 5.13901074 6.35000000 0.41530442
v 5.20547937 6.35000000 0.48367970
v 5.29474196 6.35000000 0.54925337
v 5.39080332 6.35000000 0.59961335
v 5.51468856 6.35000000 0.64430876
v 5.67452563 6.35000000 0.67845022
v 5.77909615 6.35000000 0.68980908
v 5.93574575 6.35000000 0.69242051
v 6.04881874 6.35000000 0.72218019
v 6.23683788 6.35000000 0.79936908
v 6.50200731 6.35000000 0.94986696
v 6.83081732 6.35000000 1.19746040
v 7.03951645 6.35000000 1.39064615
v 7.23387319 6.35000000 1.59827452
v 7.12677398 6.35000000 -2.02299169
v 7.18346316 6.35000000 -1.81142480
v 7.12677398 -6.35000000 -2.02299169
v 7.18346316 -6.35000000 -1.81142480
v 5.16047147 6.35000000 -5.31534918
v 5.31534918 6.35000000 -5.16047147
v 5.16047147 -6.35000000 -5.31534918
v 5.31534918 -6.35000000 -5.16047147
v 1.81142480 6.35000000 -7.18346316
v 2.02299169 6.35000000 -7.12677398
v 1.81142480 -6.35000000 -7.18346316
v 2.02299169 -6.35000000 -7.12677398
v -2.02299169 6.35000000 -7.12677398
v -1.81142480 6.35000000 -7.18346316
v -2.02299169 -6.35000000 -7.12677398
v -1.81142480 -6.35000000 -7.18346316
v -5.31534918 6.35000000 -5.16047147
v -5.16047147 6.35000000 -5.31534918
v -5.31534918 -6.35000000 -5.16047147
v -5.16047147 -6.35000000 -5.31534918
v -7.18346316 6.35000000 -1.81142480
v -7.12677398 6.35000000 -2.02299169
v -7.18346316 -6.35000000 -1.81142480
v -7.12677398 -6.35000000 -2.02299169
v -7.12677398 6.35000000 2.02299169
v -7.18346316 6.35000000 1.81142480
v -7.12677398 -6.35000000 2.02299169
v -7.18346316 -6.35000000 1.81142480
v -5.16047147 6.35000000 5.31534918
v -5.31534918 6.35000000 5.16047147
v -5.16047147 -6.35000000 5.31534918
v -5.31534918 -6.35000000 5.16047147
v -1.81142480 6.35000000 7.18346316
v -2.02299169 6.35000000 7.12677398
v -1.81142480 -6.35000000 7.18346316
v -2.02299169 -6.35000000 7.12677398
v 2.02299169 6.35000000 7.12677398
v 1.81142480 6.35000000 7.18346316
v 2.02299169 -6.35000000 7.12677398
v 1.81142480 -6.35000000 7.18346316
v 5.31534918 6.35000000 5.16047147
v 5.16047147 6.35000000 5.31534918
v 7.18346316 6.35000000 1.81142480
v 7.12677398 6.35000000 2.02299169
v 7.18346316 -6.35000000 1.81142480
v 7.12677398 -6.35000000 2.02299169
v 5.31534918 -6.35000000 5.16047147
v 5.16047147 -6.35000000 5.31534918
f 3 2 1
f 3 1 4
f 9 6 2
f 9 7 6
f 9 8 7
f 9 3 5
f 9 2 3
f 9 5 8
f 10 12 11
f 13 1 12
f 13 12 10
f 13 4 1
f 13 21 4
f 13 10 21
f 14 8 5
f 14 15 8
f 14 16 15
f 14 17 16
f 21 19 18
f 21 20 19
f 21 18 30
f 21 10 20
f 26 23 17
f 26 24 23
f 26 25 24
f 26 17 14
f 26 14 22
f 26 22 25
f 32 28 27
f 32 29 28
f 32 18 29
f 32 31 30
f 32 27 31
f 32 30 18
f 33 25 22
f 33 34 25
f 31 27 35
f 31 35 36
f 41 38 34
f 41 39 38
f 41 40 39
f 41 33 37
f 41 34 33
f 41 37 40
f 46 43 42
f 46 44 43
f 46 35 44
f 46 42 45
f 46 36 35
f 46 45 36
f 47 40 37
f 47 48 40
f 47 49 48
f 47 50 49
f 62 52 51
f 62 53 52
f 62 42 53
f 45 42 62
f 58 55 50
f 58 56 55
f 58 57 56
f 58 50 47
f 58 47 54
f 58 54 57
f 65 61 60
f 65 51 61
f 65 60 59
f 59 64 63
f 65 62 51
f 65 63 62
f 65 59 63
f 64 59 57
f 64 57 54
f 68 67 66
f 68 66 69
f 73 71 70
f 73 72 71
f 73 68 72
f 73 70 82
f 73 67 68
f 73 82 67
f 79 77 76
f 79 78 77
f 79 76 69
f 69 66 75
f 79 75 74
f 79 74 78
f 79 69 75
f 82 80 92
f 82 92 90
f 82 81 80
f 82 70 81
f 74 84 78
f 74 85 84
f 74 86 85
f 83 86 74
f 93 88 87
f 92 89 88
f 92 88 93
f 93 91 90
f 93 87 91
f 92 93 90
f 98 95 86
f 98 96 95
f 98 97 96
f 98 86 83
f 98 83 94
f 98 94 97
f 99 91 87
f 99 100 91
f 97 94 101
f 97 101 102
f 106 104 103
f 106 105 104
f 106 99 105
f 106 103 115
f 106 100 99
f 106 115 100
f 111 108 102
f 111 109 108
f 111 110 109
f 111 101 107
f 111 102 101
f 111 107 110
f 115 113 112
f 115 114 113
f 115 112 123
f 115 103 114
f 116 110 107
f 116 117 110
f 116 118 117
f 116 119 118
f 125 121 120
f 125 122 121
f 125 112 122
f 125 124 123
f 125 120 124
f 125 123 112
f 130 127 119
f 130 128 127
f 130 129 128
f 130 119 116
f 130 116 126
f 130 126 129
f 129 126 124
f 129 124 120
f 60 129 59
f 60 128 129
f 61 127 128
f 61 128 60
f 51 119 127
f 51 127 61
f 42 109 110
f 43 108 109
f 43 109 42
f 44 102 108
f 44 108 43
f 35 102 44
f 27 96 97
f 28 95 96
f 28 96 27
f 29 86 95
f 29 95 28
f 18 86 29
f 11 78 10
f 11 77 78
f 12 76 77
f 12 77 11
f 1 69 76
f 1 76 12
f 2 72 68
f 6 71 72
f 6 72 2
f 7 70 71
f 7 71 6
f 8 70 7
f 17 89 92
f 23 88 89
f 23 89 17
f 24 87 88
f 24 88 23
f 25 87 24
f 50 122 112
f 55 121 122
f 55 122 50
f 56 120 121
f 56 121 55
f 57 120 56
f 34 105 99
f 38 104 105
f 38 105 34
f 39 103 104
f 39 104 38
f 40 103 39
f 57 129 120
f 57 59 129
f 52 119 51
f 52 118 119
f 53 110 117
f 53 117 118
f 53 118 52
f 42 110 53
f 97 35 27
f 97 102 35
f 18 85 86
f 19 85 18
f 20 78 84
f 20 84 85
f 20 85 19
f 10 78 20
f 68 1 2
f 68 69 1
f 8 81 70
f 15 80 81
f 15 81 8
f 16 80 15
f 17 92 80
f 17 80 16
f 25 99 87
f 25 34 99
f 48 103 40
f 48 113 114
f 48 114 103
f 49 112 113
f 49 113 48
f 50 112 49
f 163 164 165
f 163 165 166
f 162 166 167
f 162 163 166
f 161 167 168
f 161 162 167
f 160 168 169
f 160 161 168
f 159 160 169
f 159 169 170
f 158 170 171
f 158 159 170
f 157 158 171
f 156 171 172
f 156 157 171
f 155 172 173
f 155 156 172
f 154 173 174
f 154 155 173
f 153 174 175
f 153 154 174
f 152 175 176
f 152 153 175
f 151 176 177
f 151 152 176
f 150 177 178
f 150 151 177
f 149 178 179
f 149 150 178
f 148 179 180
f 148 149 179
f 147 180 181
f 147 148 180
f 146 181 182
f 146 147 181
f 145 182 183
f 145 146 182
f 144 145 183
f 144 183 184
f 143 184 185
f 143 144 184
f 142 143 185
f 142 185 186
f 141 186 187
f 141 142 186
f 140 141 187
f 140 187 188
f 139 188 189
f 139 140 188
f 138 139 189
f 138 189 190
f 137 190 191
f 137 191 192
f 137 138 190
f 136 137 192
f 136 192 193
f 135 136 193
f 135 193 194
f 134 135 194
f 134 194 195
f 133 134 195
f 133 195 196
f 132 133 196
f 132 196 197
f 131 132 197
f 131 197 198
f 231 232 233
f 231 233 234
f 230 234 235
f 230 231 234
f 229 235 236
f 229 230 235
f 228 236 237
f 228 229 236
f 227 228 237
f 227 237 238
f 226 238 239
f 226 227 238
f 225 226 239
f 224 239 240
f 224 225 239
f 223 240 241
f 223 224 240
f 222 241 242
f 222 223 241
f 221 242 243
f 221 222 242
f 220 243 244
f 220 221 243
f 219 244 245
f 219 220 244
f 218 245 246
f 218 219 245
f 217 246 247
f 217 218 246
f 216 247 248
f 216 217 247
f 215 248 249
f 215 216 248
f 214 249 250
f 214 215 249
f 213 250 251
f 213 214 250
f 212 213 251
f 212 251 252
f 211 252 253
f 211 212 252
f 210 211 253
f 210 253 254
f 209 254 255
f 209 210 254
f 208 209 255
f 208 255 256
f 207 256 257
f 207 208 256
f 206 207 257
f 206 257 258
f 205 258 259
f 205 259 260
f 205 206 258
f 204 205 260
f 204 260 261
f 203 204 261
f 203 261 262
f 202 203 262
f 202 262 263
f 201 202 263
f 201 263 264
f 200 201 264
f 200 264 265
f 199 200 265
f 199 265 266
f 299 300 301
f 299 301 302
f 298 302 303
f 298 299 302
f 297 303 304
f 297 298 303
f 296 304 305
f 296 297 304
f 295 296 305
f 295 305 306
f 294 306 307
f 294 295 306
f 293 294 307
f 292 307 308
f 292 293 307
f 291 308 309
f 291 292 308
f 290 309 310
f 290 291 309
f 289 310 311
f 289 290 310
f 288 311 312
f 288 289 311
f 287 312 313
f 287 288 312
f 286 313 314
f 286 287 313
f 285 314 315
f 285 286 314
f 284 315 316
f 284 285 315
f 283 316 317
f 283 284 316
f 282 317 318
f 282 283 317
f 281 318 319
f 281 282 318
f 280 281 319
f 280 319 320
f 279 320 321
f 279 280 320
f 278 279 321
f 278 321 322
f 277 322 323
f 277 278 322
f 276 277 323
f 276 323 324
f 275 324 325
f 275 276 324
f 274 275 325
f 274 325 326
f 273 326 327
f 273 327 328
f 273 274 326
f 272 273 328
f 272 328 329
f 271 272 329
f 271 329 330
f 270 271 330
f 270 330 331
f 269 270 331
f 269 331 332
f 268 269 332
f 268 332 333
f 267 268 333
f 267 333 334
f 367 368 369
f 367 369 370
f 366 370 371
f 366 367 370
f 365 371 372
f 365 366 371
f 364 372 373
f 364 365 372
f 363 364 373
f 363 373 374
f 362 374 375
f 362 363 374
f 361 362 375
f 360 375 376
f 360 361 375
f 359 376 377
f 359 360 376
f 358 377 378
f 358 359 377
f 357 378 379
f 357 358 378
f 356 379 380
f 356 357 379
f 355 380 381
f 355 356 380
f 354 381 382
f 354 355 381
f 353 382 383
f 353 354 382
f 352 383 384
f 352 353 383
f 351 384 385
f 351 352 384
f 350 385 386
f 350 351 385
f 349 386 387
f 349 350 386
f 348 349 387
f 348 387 388
f 347 388 389
f 347 348 388
f 346 347 389
f 346 389 390
f 345 390 391
f 345 346 390
f 344 345 391
f 344 391 392
f 343 392 393
f 343 344 392
f 342 343 393
f 342 393 394
f 341 394 395
f 341 395 396
f 341 342 394
f 340 341 396
f 340 396 397
f 339 340 397
f 339 397 398
f 338 339 398
f 338 398 399
f 337 338 399
f 337 399 400
f 336 337 400
f 336 400 401
f 335 336 401
f 335 401 402
f 435 436 437
f 435 437 438
f 434 438 439
f 434 435 438
f 433 439 440
f 433 434 439
f 432 440 441
f 432 433 440
f 431 432 441
f 431 441 442
f 430 442 443
f 430 431 442
f 429 430 443
f 428 443 444
f 428 429 443
f 427 444 445
f 427 428 444
f 426 445 446
f 426 427 445
f 425 446 447
f 425 426 446
f 424 447 448
f 424 425 447
f 423 448 449
f 423 424 448
f 422 449 450
f 422 423 449
f 421 450 451
f 421 422 450
f 420 451 452
f 420 421 451
f 419 452 453
f 419 420 452
f 418 453 454
f 418 419 453
f 417 454 455
f 417 418 454
f 416 417 455
f 416 455 456
f 415 456 457
f 415 416 456
f 414 415 457
f 414 457 458
f 413 458 459
f 413 414 458
f 412 413 459
f 412 459 460
f 411 460 461
f 411 412 460
f 410 411 461
f 410 461 462
f 409 462 463
f 409 463 464
f 409 410 462
f 408 409 464
f 408 464 465
f 407 408 465
f 407 465 466
f 406 407 466
f 406 466 467
f 405 406 467
f 405 467 468
f 404 405 468
f 404 468 469
f 403 404 469
f 403 469 470
f 503 504 505
f 503 505 506
f 502 506 507
f 502 503 506
f 501 507 508
f 501 502 507
f 500 508 509
f 500 501 508
f 499 500 509
f 499 509 510
f 498 510 511
f 498 499 510
f 497 498 511
f 496 511 512
f 496 497 511
f 495 512 513
f 495 496 512
f 494 513 514
f 494 495 513
f 493 514 515
f 493 494 514
f 492 515 516
f 492 493 515
f 491 516 517
f 491 492 516
f 490 517 518
f 490 491 517
f 489 518 519
f 489 490 518
f 488 519 520
f 488 489 519
f 487 520 521
f 487 488 520
f 486 521 522
f 486 487 521
f 485 522 523
f 485 486 522
f 484 485 523
f 484 523 524
f 483 524 525
f 483 484 524
f 482 483 525
f 482 525 526
f 481 526 527
f 481 482 526
f 480 481 527
f 480 527 528
f 479 528 529
f 479 480 528
f 478 479 529
f 478 529 530
f 477 530 531
f 477 531 532
f 477 478 530
f 476 477 532
f 476 532 533
f 475 476 533
f 475 533 534
f 474 475 534
f 474 534 535
f 473 474 535
f 473 535 536
f 472 473 536
f 472 536 537
f 471 472 537
f 471 537 538
f 571 572 573
f 571 573 574
f 570 574 575
f 570 571 574
f 569 575 576
f 569 570 575
f 568 576 577
f 568 569 576
f 567 568 577
f 567 577 578
f 566 578 579
f 566 567 578
f 565 566 579
f 564 579 580
f 564 565 579
f 563 580 581
f 563 564 580
f 562 581 582
f 562 563 581
f 561 582 583
f 561 562 582
f 560 583 584
f 560 561 583
f 559 584 585
f 559 560 584
f 558 585 586
f 558 559 585
f 557 586 587
f 557 558 586
f 556 587 588
f 556 557 587
f 555 588 589
f 555 556 588
f 554 589 590
f 554 555 589
f 553 590 591
f 553 554 590
f 552 553 591
f 552 591 592
f 551 592 593
f 551 552 592
f 550 551 593
f 550 593 594
f 549 594 595
f 549 550 594
f 548 549 595
f 548 595 596
f 547 596 597
f 547 548 596
f 546 547 597
f 546 597 598
f 545 598 599
f 545 599 600
f 545 546 598
f 544 545 600
f 544 600 601
f 543 544 601
f 543 601 602
f 542 543 602
f 542 602 603
f 541 542 603
f 541 603 604
f 540 541 604
f 540 604 605
f 539 540 605
f 539 605 606
f 639 640 641
f 639 641 642
f 638 642 643
f 638 639 642
f 637 643 644
f 637 638 643
f 636 644 645
f 636 637 644
f 635 636 645
f 635 645 646
f 634 646 647
f 634 635 646
f 633 634 647
f 632 647 648
f 632 633 647
f 631 648 649
f 631 632 648
f 630 649 650
f 630 631 649
f 629 650 651
f 629 630 650
f 628 651 652
f 628 629 651
f 627 652 653
f 627 628 652
f 626 653 654
f 626 627 653
f 625 654 655
f 625 626 654
f 624 655 656
f 624 625 655
f 623 656 657
f 623 624 656
f 622 657 658
f 622 623 657
f 621 658 659
f 621 622 658
f 620 621 659
f 620 659 660
f 619 660 661
f 619 620 660
f 618 619 661
f 618 661 662
f 617 662 663
f 617 618 662
f 616 617 663
f 616 663 664
f 615 664 665
f 615 616 664
f 614 615 665
f 614 665 666
f 613 666 667
f 613 667 668
f 613 614 666
f 612 613 668
f 612 668 669
f 611 612 669
f 611 669 670
f 610 611 670
f 610 670 671
f 609 610 671
f 609 671 672
f 608 609 672
f 608 672 673
f 607 608 673
f 607 673 674
f 707 708 709
f 707 709 710
f 706 710 711
f 706 707 710
f 705 711 712
f 705 706 711
f 704 712 713
f 704 705 712
f 703 704 713
f 703 713 714
f 702 714 715
f 702 703 714
f 701 702 715
f 700 715 716
f 700 701 715
f 699 716 717
f 699 700 716
f 698 717 718
f 698 699 717
f 697 718 719
f 697 698 718
f 696 719 720
f 696 697 719
f 695 720 721
f 695 696 720
f 694 721 722
f 694 695 721
f 693 722 723
f 693 694 722
f 692 723 724
f 692 693 723
f 691 724 725
f 691 692 724
f 690 725 726
f 690 691 725
f 689 726 727
f 689 690 726
f 688 689 727
f 688 727 728
f 687 728 729
f 687 688 728
f 686 687 729
f 686 729 730
f 685 730 731
f 685 686 730
f 684 685 731
f 684 731 732
f 683 732 733
f 683 684 732
f 682 683 733
f 682 733 734
f 681 734 735
f 681 735 736
f 681 682 734
f 680 681 736
f 680 736 737
f 679 680 737
f 679 737 738
f 678 679 738
f 678 738 739
f 677 678 739
f 677 739 740
f 676 677 740
f 676 740 741
f 675 676 741
f 675 741 742
f 775 776 777
f 775 777 778
f 774 778 779
f 774 775 778
f 773 779 780
f 773 774 779
f 772 780 781
f 772 773 780
f 771 772 781
f 771 781 782
f 770 782 783
f 770 771 782
f 769 770 783
f 768 783 784
f 768 769 783
f 767 784 785
f 767 768 784
f 766 785 786
f 766 767 785
f 765 786 787
f 765 766 786
f 764 787 788
f 764 765 787
f 763 788 789
f 763 764 788
f 762 789 790
f 762 763 789
f 761 790 791
f 761 762 790
f 760 791 792
f 760 761 791
f 759 792 793
f 759 760 792
f 758 793 794
f 758 759 793
f 757 794 795
f 757 758 794
f 756 757 795
f 756 795 796
f 755 796 797
f 755 756 796
f 754 755 797
f 754 797 798
f 753 798 799
f 753 754 798
f 752 753 799
f 752 799 800
f 751 800 801
f 751 752 800
f 750 751 801
f 750 801 802
f 749 802 803
f 749 803 804
f 749 750 802
f 748 749 804
f 748 804 805
f 747 748 805
f 747 805 806
f 746 747 806
f 746 806 807
f 745 746 807
f 745 807 808
f 744 745 808
f 744 808 809
f 743 744 809
f 743 809 810
f 843 844 845
f 843 845 846
f 842 846 847
f 842 843 846
f 841 847 848
f 841 842 847
f 840 848 849
f 840 841 848
f 839 840 849
f 839 849 850
f 838 850 851
f 838 839 850
f 837 838 851
f 836 851 852
f 836 837 851
f 835 852 853
f 835 836 852
f 834 853 854
f 834 835 853
f 833 854 855
f 833 834 854
f 832 855 856
f 832 833 855
f 831 856 857
f 831 832 856
f 830 857 858
f 830 831 857
f 829 858 859
f 829 830 858
f 828 859 860
f 828 829 859
f 827 860 861
f 827 828 860
f 826 861 862
f 826 827 861
f 825 862 863
f 825 826 862
f 824 825 863
f 824 863 864
f 823 864 865
f 823 824 864
f 822 823 865
f 822 865 866
f 821 866 867
f 821 822 866
f 820 821 867
f 820 867 868
f 819 868 869
f 819 820 868
f 818 819 869
f 818 869 870
f 817 870 871
f 817 871 872
f 817 818 870
f 816 817 872
f 816 872 873
f 815 816 873
f 815 873 874
f 814 815 874
f 814 874 875
f 813 814 875
f 813 875 876
f 812 813 876
f 812 876 877
f 811 812 877
f 811 877 878
f 911 912 913
f 911 913 914
f 910 914 915
f 910 911 914
f 909 915 916
f 909 910 915
f 908 916 917
f 908 909 916
f 907 908 917
f 907 917 918
f 906 918 919
f 906 907 918
f 905 906 919
f 904 919 920
f 904 905 919
f 903 920 921
f 903 904 920
f 902 921 922
f 902 903 921
f 901 922 923
f 901 902 922
f 900 923 924
f 900 901 923
f 899 924 925
f 899 900 924
f 898 925 926
f 898 899 925
f 897 926 927
f 897 898 926
f 896 927 928
f 896 897 927
f 895 928 929
f 895 896 928
f 894 929 930
f 894 895 929
f 893 930 931
f 893 894 930
f 892 893 931
f 892 931 932
f 891 932 933
f 891 892 932
f 890 891 933
f 890 933 934
f 889 934 935
f 889 890 934
f 888 889 935
f 888 935 936
f 887 936 937
f 887 888 936
f 886 887 937
f 886 937 938
f 885 938 939
f 885 939 940
f 885 886 938
f 884 885 940
f 884 940 941
f 883 884 941
f 883 941 942
f 882 883 942
f 882 942 943
f 881 882 943
f 881 943 944
f 880 881 944
f 880 944 945
f 879 880 945
f 879 945 946
f 949 811 878
f 949 878 947
f 950 947 948
f 950 949 947
f 912 948 913
f 912 950 948
f 743 810 951
f 953 951 952
f 953 743 951
f 954 952 845
f 954 953 952
f 844 954 845
f 957 675 742
f 957 742 955
f 958 955 956
f 958 957 955
f 776 956 777
f 776 958 956
f 961 607 674
f 961 674 959
f 962 959 960
f 962 961 959
f 708 960 709
f 708 962 960
f 965 539 606
f 965 606 963
f 966 963 964
f 966 965 963
f 640 964 641
f 640 966 964
f 969 471 538
f 969 538 967
f 970 967 968
f 970 969 967
f 572 968 573
f 572 970 968
f 973 403 470
f 973 470 971
f 974 971 972
f 974 973 971
f 504 972 505
f 504 974 972
f 977 335 402
f 977 402 975
f 978 975 976
f 978 977 975
f 436 976 437
f 436 978 976
f 981 267 334
f 981 334 979
f 982 979 980
f 982 981 979
f 368 980 369
f 368 982 980
f 985 199 266
f 985 266 983
f 986 983 984
f 986 985 983
f 300 984 301
f 300 986 984
f 605 963 606
f 605 964 963
f 642 641 964
f 642 964 605
f 604 642 605
f 643 642 604
f 603 643 604
f 673 959 674
f 960 959 673
f 574 573 968
f 644 643 603
f 602 644 603
f 645 644 602
f 601 645 602
f 537 574 968
f 537 967 538
f 537 968 967
f 599 601 600
f 599 645 601
f 710 960 673
f 710 673 672
f 710 709 960
f 647 646 645
f 647 645 599
f 536 574 537
f 536 575 574
f 598 647 599
f 648 647 598
f 597 648 598
f 649 648 597
f 667 669 668
f 579 578 577
f 596 649 597
f 650 649 596
f 711 672 671
f 711 710 672
f 535 575 536
f 535 576 575
f 595 650 596
f 712 711 671
f 712 671 670
f 534 577 576
f 534 576 535
f 713 670 669
f 713 712 670
f 713 669 667
f 533 577 534
f 531 577 533
f 531 533 532
f 531 579 577
f 715 667 666
f 715 714 713
f 715 713 667
f 530 579 531
f 530 580 579
f 716 666 665
f 716 715 666
f 529 580 530
f 529 581 580
f 717 665 664
f 717 716 665
f 116 651 650
f 116 652 651
f 116 653 652
f 116 650 595
f 116 593 592
f 116 594 593
f 116 595 594
f 528 581 529
f 528 582 581
f 107 653 116
f 107 654 653
f 107 655 654
f 116 592 591
f 116 591 590
f 718 664 663
f 718 717 664
f 107 656 655
f 116 590 589
f 107 657 656
f 116 589 588
f 527 582 528
f 527 583 582
f 719 663 662
f 719 718 663
f 107 658 657
f 101 658 107
f 101 659 658
f 101 660 659
f 101 661 660
f 126 116 588
f 126 586 585
f 126 587 586
f 126 588 587
f 526 583 527
f 526 584 583
f 720 662 661
f 720 719 662
f 525 584 526
f 525 126 585
f 525 585 584
f 721 661 101
f 721 720 661
f 524 126 525
f 722 721 101
f 955 742 741
f 972 506 505
f 523 126 524
f 723 722 101
f 522 126 523
f 724 723 101
f 521 126 522
f 956 955 741
f 735 737 736
f 511 510 509
f 725 724 101
f 469 506 972
f 469 971 470
f 469 972 971
f 778 956 741
f 778 741 740
f 778 777 956
f 468 506 469
f 468 507 506
f 779 778 740
f 779 740 739
f 467 508 507
f 467 507 468
f 780 779 739
f 780 739 738
f 466 508 467
f 466 509 508
f 781 780 738
f 781 737 735
f 781 738 737
f 465 509 466
f 463 465 464
f 463 511 509
f 463 509 465
f 783 781 735
f 783 735 734
f 783 782 781
f 462 512 511
f 462 511 463
f 784 783 734
f 784 734 733
f 461 512 462
f 461 513 512
f 785 784 733
f 785 733 732
f 460 513 461
f 460 514 513
f 786 732 731
f 786 785 732
f 459 515 514
f 459 514 460
f 787 786 731
f 787 731 730
f 458 515 459
f 458 516 515
f 788 730 729
f 788 787 730
f 457 517 516
f 457 516 458
f 789 788 729
f 94 790 789
f 94 791 790
f 94 792 791
f 94 725 101
f 94 789 729
f 94 726 725
f 94 727 726
f 94 728 727
f 94 729 728
f 124 455 454
f 124 456 455
f 124 457 456
f 124 126 521
f 124 517 457
f 124 518 517
f 124 519 518
f 124 520 519
f 124 521 520
f 83 792 94
f 123 124 454
f 123 454 453
f 83 793 792
f 123 453 452
f 83 794 793
f 123 452 451
f 803 805 804
f 443 442 441
f 83 795 794
f 83 796 795
f 123 450 449
f 123 451 450
f 74 797 796
f 74 796 83
f 74 798 797
f 74 799 798
f 115 447 446
f 115 448 447
f 115 449 448
f 115 123 449
f 951 810 809
f 976 438 437
f 952 951 809
f 401 438 976
f 401 975 402
f 401 976 975
f 846 809 808
f 846 845 952
f 846 952 809
f 400 439 438
f 400 438 401
f 847 808 807
f 847 846 808
f 399 440 439
f 399 439 400
f 393 445 444
f 853 801 800
f 852 802 801
f 852 801 853
f 394 393 444
f 394 444 443
f 392 446 445
f 392 445 393
f 854 800 799
f 854 799 74
f 854 853 800
f 851 803 802
f 851 802 852
f 395 443 441
f 395 394 443
f 848 807 806
f 848 847 807
f 391 115 446
f 391 446 392
f 398 441 440
f 398 440 399
f 855 854 74
f 849 803 851
f 849 805 803
f 849 806 805
f 849 848 806
f 397 396 395
f 397 395 441
f 397 441 398
f 850 849 851
f 390 115 391
f 856 855 74
f 389 115 390
f 857 856 74
f 388 115 389
f 858 857 74
f 387 115 388
f 859 858 74
f 386 115 387
f 860 859 74
f 860 74 75
f 385 115 386
f 861 860 75
f 384 115 385
f 384 100 115
f 862 861 75
f 862 75 66
f 383 100 384
f 863 862 66
f 382 100 383
f 864 863 66
f 381 100 382
f 865 864 66
f 873 872 871
f 373 375 374
f 924 866 865
f 322 380 379
f 321 380 322
f 321 100 381
f 321 381 380
f 925 924 865
f 925 865 66
f 923 867 866
f 923 866 924
f 323 322 379
f 323 379 378
f 320 100 321
f 926 925 66
f 922 867 923
f 922 868 867
f 324 323 378
f 324 378 377
f 319 100 320
f 927 926 66
f 318 100 319
f 921 868 922
f 921 869 868
f 325 324 377
f 325 377 376
f 928 927 66
f 317 100 318
f 920 870 869
f 920 869 921
f 326 325 376
f 326 376 375
f 919 870 920
f 919 871 870
f 327 375 373
f 327 326 375
f 980 370 369
f 947 878 877
f 929 928 66
f 329 327 373
f 329 328 327
f 917 874 873
f 917 919 918
f 917 871 919
f 917 873 871
f 948 947 877
f 330 373 372
f 330 329 373
f 916 875 874
f 916 874 917
f 331 330 372
f 331 372 371
f 915 875 916
f 915 876 875
f 332 331 371
f 332 371 370
f 914 877 876
f 914 913 948
f 914 948 877
f 914 876 915
f 333 332 370
f 333 979 334
f 333 980 979
f 333 370 980
f 67 930 929
f 67 931 930
f 67 932 931
f 67 929 66
f 67 933 932
f 91 314 313
f 91 315 314
f 91 316 315
f 91 317 316
f 91 100 317
f 941 940 939
f 250 90 91
f 250 91 251
f 305 307 306
f 180 179 67
f 180 67 82
f 178 67 179
f 249 90 250
f 252 251 91
f 177 933 67
f 177 67 178
f 253 91 313
f 253 252 91
f 253 313 312
f 181 180 82
f 176 934 933
f 176 933 177
f 248 90 249
f 254 253 312
f 254 312 311
f 182 181 82
f 247 90 248
f 183 182 82
f 175 934 176
f 175 935 934
f 255 254 311
f 255 311 310
f 246 90 247
f 184 183 82
f 174 935 175
f 174 936 935
f 256 310 309
f 256 255 310
f 245 90 246
f 245 82 90
f 185 184 82
f 244 82 245
f 173 936 174
f 173 937 936
f 186 185 82
f 257 256 309
f 257 309 308
f 243 82 244
f 187 186 82
f 172 937 173
f 172 938 937
f 258 308 307
f 258 257 308
f 242 82 243
f 242 187 82
f 188 187 242
f 171 938 172
f 171 939 938
f 259 258 307
f 259 307 305
f 241 188 242
f 189 188 241
f 240 189 241
f 261 260 259
f 261 259 305
f 190 189 240
f 169 171 170
f 169 939 171
f 169 941 939
f 169 942 941
f 239 190 240
f 191 190 239
f 262 305 304
f 262 261 305
f 168 942 169
f 168 943 942
f 193 192 191
f 263 262 304
f 263 304 303
f 237 193 191
f 237 239 238
f 237 191 239
f 167 944 943
f 167 943 168
f 194 193 237
f 236 194 237
f 264 263 303
f 264 303 302
f 166 944 167
f 166 945 944
f 989 946 945
f 984 302 301
f 265 264 302
f 265 302 984
f 990 945 166
f 990 989 945
f 983 265 984
f 195 194 236
f 266 265 983
f 165 990 166
f 235 195 236
f 196 195 235
f 234 196 235
f 197 196 234
f 988 234 233
f 988 197 234
f 987 198 197
f 987 197 988
f 991 879 946
f 991 946 989
f 992 989 990
f 992 991 989
f 164 990 165
f 164 992 990
f 993 131 198
f 993 198 987
f 994 987 988
f 994 993 987
f 232 988 233
f 232 994 988
f 843 953 954
f 843 954 844
f 744 743 953
f 744 953 843
f 842 744 843
f 745 744 842
f 841 745 842
f 775 958 776
f 957 958 775
f 812 811 949
f 746 745 841
f 840 746 841
f 747 746 840
f 839 747 840
f 911 812 949
f 911 949 950
f 911 950 912
f 837 747 839
f 837 839 838
f 676 775 774
f 676 675 957
f 676 957 775
f 749 747 837
f 749 748 747
f 910 812 911
f 910 813 812
f 836 749 837
f 750 749 836
f 835 750 836
f 751 750 835
f 769 771 770
f 817 816 815
f 834 751 835
f 752 751 834
f 677 774 773
f 677 676 774
f 909 814 813
f 909 813 910
f 833 752 834
f 678 773 772
f 678 677 773
f 908 815 814
f 908 814 909
f 679 772 771
f 679 678 772
f 679 771 769
f 907 815 908
f 905 907 906
f 905 817 815
f 905 815 907
f 681 769 768
f 681 680 679
f 681 679 769
f 904 818 817
f 904 817 905
f 682 681 768
f 682 768 767
f 903 818 904
f 903 819 818
f 683 682 767
f 683 767 766
f 21 753 752
f 21 754 753
f 21 755 754
f 21 752 833
f 21 831 830
f 21 832 831
f 21 833 832
f 902 820 819
f 902 819 903
f 30 755 21
f 30 756 755
f 30 757 756
f 21 829 828
f 21 830 829
f 684 683 766
f 684 766 765
f 30 758 757
f 21 828 827
f 21 827 826
f 30 759 758
f 901 820 902
f 901 821 820
f 685 684 765
f 685 765 764
f 30 760 759
f 4 824 823
f 4 825 824
f 4 826 825
f 4 21 826
f 31 761 760
f 31 760 30
f 31 762 761
f 31 763 762
f 900 821 901
f 900 822 821
f 686 685 764
f 686 764 763
f 899 4 823
f 899 822 900
f 899 823 822
f 687 763 31
f 687 686 763
f 898 4 899
f 688 687 31
f 962 708 707
f 991 880 879
f 897 4 898
f 689 688 31
f 896 4 897
f 690 689 31
f 895 4 896
f 961 962 707
f 701 703 702
f 885 884 883
f 691 690 31
f 163 991 992
f 163 992 164
f 163 880 991
f 608 961 707
f 608 707 706
f 608 607 961
f 162 881 880
f 162 880 163
f 609 608 706
f 609 706 705
f 161 882 881
f 161 881 162
f 610 609 705
f 610 705 704
f 160 882 161
f 160 883 882
f 611 610 704
f 611 704 703
f 611 703 701
f 159 883 160
f 157 159 158
f 157 883 159
f 157 885 883
f 613 701 700
f 613 612 611
f 613 611 701
f 156 886 885
f 156 885 157
f 614 700 699
f 614 613 700
f 155 887 886
f 155 886 156
f 615 699 698
f 615 614 699
f 154 888 887
f 154 887 155
f 616 698 697
f 616 615 698
f 153 889 888
f 153 888 154
f 617 697 696
f 617 616 697
f 152 890 889
f 152 889 153
f 618 617 696
f 618 696 695
f 151 891 890
f 151 890 152
f 619 618 695
f 36 692 691
f 36 693 692
f 36 694 693
f 36 695 694
f 36 619 695
f 36 691 31
f 36 620 619
f 36 621 620
f 36 622 621
f 3 149 148
f 3 150 149
f 3 151 150
f 3 892 891
f 3 893 892
f 3 894 893
f 3 895 894
f 3 891 151
f 3 4 895
f 45 622 36
f 5 148 147
f 5 3 148
f 45 623 622
f 5 147 146
f 45 624 623
f 5 146 145
f 633 635 634
f 137 136 135
f 45 625 624
f 45 626 625
f 5 144 143
f 5 145 144
f 62 627 626
f 62 628 627
f 62 629 628
f 62 626 45
f 14 141 140
f 14 142 141
f 14 143 142
f 14 5 143
f 966 640 639
f 993 132 131
f 965 966 639
f 231 132 993
f 231 993 994
f 231 994 232
f 540 965 639
f 540 639 638
f 540 539 965
f 230 132 231
f 230 133 132
f 541 638 637
f 541 540 638
f 229 133 230
f 229 134 133
f 223 139 138
f 547 631 630
f 546 631 547
f 546 632 631
f 224 138 137
f 224 223 138
f 222 140 139
f 222 139 223
f 548 629 62
f 548 630 629
f 548 547 630
f 545 632 546
f 545 633 632
f 225 137 135
f 225 224 137
f 542 637 636
f 542 541 637
f 221 140 222
f 221 14 140
f 228 134 229
f 228 135 134
f 549 548 62
f 543 633 545
f 543 635 633
f 543 636 635
f 543 542 636
f 227 135 228
f 227 225 135
f 227 226 225
f 544 543 545
f 220 14 221
f 550 549 62
f 219 14 220
f 551 550 62
f 218 14 219
f 552 551 62
f 217 14 218
f 553 552 62
f 216 14 217
f 554 553 62
f 554 62 63
f 215 14 216
f 555 554 63
f 214 22 14
f 214 14 215
f 556 555 63
f 556 63 64
f 213 22 214
f 557 556 64
f 212 22 213
f 558 557 64
f 211 22 212
f 559 558 64
f 567 566 565
f 203 205 204
f 482 560 559
f 288 210 209
f 287 210 288
f 287 211 210
f 287 22 211
f 483 482 559
f 483 559 64
f 481 561 560
f 481 560 482
f 289 209 208
f 289 288 209
f 286 22 287
f 484 483 64
f 480 562 561
f 480 561 481
f 290 289 208
f 290 208 207
f 285 22 286
f 485 484 64
f 284 22 285
f 479 563 562
f 479 562 480
f 291 290 207
f 291 207 206
f 486 485 64
f 283 22 284
f 478 564 563
f 478 563 479
f 292 206 205
f 292 291 206
f 477 565 564
f 477 564 478
f 293 205 203
f 293 292 205
f 970 572 571
f 985 200 199
f 487 486 64
f 295 294 293
f 295 293 203
f 475 567 565
f 475 568 567
f 475 477 476
f 475 565 477
f 969 970 571
f 296 203 202
f 296 295 203
f 474 569 568
f 474 568 475
f 297 296 202
f 297 202 201
f 473 569 474
f 473 570 569
f 298 297 201
f 298 201 200
f 472 969 571
f 472 571 570
f 472 570 473
f 472 471 969
f 299 985 986
f 299 986 300
f 299 200 985
f 299 298 200
f 54 488 487
f 54 489 488
f 54 490 489
f 54 491 490
f 54 487 64
f 33 280 279
f 33 281 280
f 33 282 281
f 33 283 282
f 33 22 283
f 499 498 497
f 352 37 33
f 352 33 353
f 271 273 272
f 418 54 47
f 418 417 54
f 416 54 417
f 351 37 352
f 354 353 33
f 415 491 54
f 415 54 416
f 355 354 33
f 355 279 278
f 355 33 279
f 419 418 47
f 414 491 415
f 414 492 491
f 350 37 351
f 356 278 277
f 356 355 278
f 420 419 47
f 349 37 350
f 421 420 47
f 413 492 414
f 413 493 492
f 357 277 276
f 357 356 277
f 348 37 349
f 422 421 47
f 412 494 493
f 412 493 413
f 358 276 275
f 358 357 276
f 347 47 37
f 347 37 348
f 423 422 47
f 346 47 347
f 411 495 494
f 411 494 412
f 424 423 47
f 359 358 275
f 359 275 274
f 345 47 346
f 425 424 47
f 410 495 411
f 410 496 495
f 360 274 273
f 360 359 274
f 344 425 47
f 344 47 345
f 426 425 344
f 409 497 496
f 409 496 410
f 361 360 273
f 361 273 271
f 343 426 344
f 427 426 343
f 342 427 343
f 363 362 361
f 363 361 271
f 428 427 342
f 407 500 499
f 407 497 409
f 407 409 408
f 407 499 497
f 341 428 342
f 429 428 341
f 364 271 270
f 364 363 271
f 406 501 500
f 406 500 407
f 431 430 429
f 365 270 269
f 365 364 270
f 339 431 429
f 339 429 341
f 339 341 340
f 405 502 501
f 405 501 406
f 432 431 339
f 338 432 339
f 366 269 268
f 366 365 269
f 404 502 405
f 404 503 502
f 974 504 503
f 981 268 267
f 367 366 268
f 367 268 981
f 973 503 404
f 973 974 503
f 982 367 981
f 433 432 338
f 368 367 982
f 403 973 404
f 337 433 338
f 434 433 337
f 336 434 337
f 435 434 336
f 978 436 435
f 977 435 336
f 977 978 435
f 977 336 335

