# https://github.com/mikedh/trimesh

o p00058.obj
v -52.90953527 4.61734427 9.52250000
v -52.48830466 4.54226665 9.52250000
v -52.08162223 4.40929570 9.52250000
v -51.69740358 4.22101956 9.52250000
v -51.34312709 3.98110282 9.52250000
v -51.02568836 3.69421517 9.52250000
v -50.75126596 3.36594055 9.52250000
v -50.52520121 3.00266847 9.52250000
v -50.35189422 2.61146960 9.52250000
v -50.23471820 2.19995817 9.52250000
v -50.17595385 1.77614379 9.52250000
v -50.17674495 1.34827553 9.52250000
v -50.23707610 0.92468136 9.52250000
v -50.35577303 0.51360604 9.52250000
v -50.53052544 0.12305071 9.52250000
v -50.75793196 -0.23938294 9.52250000
v -51.03356640 -0.56664053 9.52250000
v -51.35206383 -0.85235238 9.52250000
v -51.70722507 -1.09095742 9.52250000
v -52.09213731 -1.27781148 9.52250000
v -52.49930867 -1.40927767 9.52250000
v -52.92081403 -1.48279713 9.52250000
v -53.34844925 -1.49693890 9.52250000
v -53.77389091 -1.45142772 9.52250000
v -54.18885827 -1.34714942 9.52250000
v -54.58527446 -1.18613365 9.52250000
v -54.95542369 -0.97151441 9.52250000
v -55.29210144 -0.70746901 9.52250000
v -55.58875463 -0.39913680 9.52250000
v -55.83960927 -0.05251910 9.52250000
v -56.03978276 0.32563755 9.52250000
v -56.18537893 0.72797276 9.52250000
v -56.27356393 1.14665556 9.52250000
v -56.30262134 1.57353674 9.52250000
v -56.27198558 2.00030755 9.52250000
v -56.18225296 2.41866138 9.52250000
v -56.03517000 2.82045545 9.52250000
v -55.83359952 3.19786931 9.52250000
v -55.58146485 3.54355700 9.52250000
v -55.28367352 3.85079013 9.52250000
v -54.94602168 4.11358874 9.52250000
v -54.57508134 4.32683775 9.52250000
v -54.17807245 4.48638653 9.52250000
v -53.76272232 4.58912963 9.52250000
v -53.33711527 4.63306728 9.52250000
v -53.01237911 3.65595285 9.52250000
v -52.72394746 3.60454451 9.52250000
v -52.44547747 3.51349455 9.52250000
v -52.18238923 3.38457516 9.52250000
v -51.93980345 3.22029558 9.52250000
v -51.72244181 3.02385336 9.52250000
v -51.53453498 2.79907200 9.52250000
v -51.37974038 2.55032662 9.52250000
v -51.26107088 2.28245877 9.52250000
v -51.18083627 2.00068219 9.52250000
v -51.14059822 1.71048134 9.52250000
v -51.14113992 1.41750465 9.52250000
v -51.18245081 1.12745458 9.52250000
v -51.26372684 0.84597662 9.52250000
v -51.38338606 0.57854943 9.52250000
v -51.53909944 0.33037816 9.52250000
v -51.72783618 0.10629319 9.52250000
v -51.94592276 -0.08934392 9.52250000
v -52.18911435 -0.25272532 9.52250000
v -52.45267752 -0.38067098 9.52250000
v -52.73148230 -0.47069057 9.52250000
v -53.02010208 -0.52103198 9.52250000
v -53.31291920 -0.53071535 9.52250000
v -53.60423431 -0.49955222 9.52250000
v -53.88837729 -0.42814914 9.52250000
v -54.15981763 -0.31789589 9.52250000
v -54.41327203 -0.17093842 9.52250000
v -54.64380732 0.00986290 9.52250000
v -54.84693636 0.22098898 9.52250000
v -55.01870550 0.45833050 9.52250000
v -55.15577144 0.71726788 9.52250000
v -55.25546634 0.99276118 9.52250000
v -55.31584976 1.27944825 9.52250000
v -55.33574641 1.57174905 9.52250000
v -55.31476901 1.86397427 9.52250000
v -55.25332587 2.15043609 9.52250000
v -55.15261292 2.42555886 9.52250000
v -55.01459041 2.68398761 9.52250000
v -54.84194479 2.92069233 9.52250000
v -54.63803642 3.13106583 9.52250000
v -54.40683414 3.31101343 9.52250000
v -54.15283803 3.45703265 9.52250000
v -53.88099186 3.56628140 9.52250000
v -53.59658678 3.63663327 9.52250000
v -53.30515842 3.66671895 9.52250000
v -52.90953527 4.61734427 -9.52750000
v -52.48830466 4.54226665 -9.52750000
v -52.08162223 4.40929570 -9.52750000
v -51.69740358 4.22101956 -9.52750000
v -51.34312709 3.98110282 -9.52750000
v -51.02568836 3.69421517 -9.52750000
v -50.75126596 3.36594055 -9.52750000
v -50.52520121 3.00266847 -9.52750000
v -50.35189422 2.61146960 -9.52750000
v -50.23471820 2.19995817 -9.52750000
v -50.17595385 1.77614379 -9.52750000
v -50.17674495 1.34827553 -9.52750000
v -50.23707610 0.92468136 -9.52750000
v -50.35577303 0.51360604 -9.52750000
v -50.53052544 0.12305071 -9.52750000
v -50.75793196 -0.23938294 -9.52750000
v -51.03356640 -0.56664053 -9.52750000
v -51.35206383 -0.85235238 -9.52750000
v -51.70722507 -1.09095742 -9.52750000
v -52.09213731 -1.27781148 -9.52750000
v -52.49930867 -1.40927767 -9.52750000
v -52.92081403 -1.48279713 -9.52750000
v -53.34844925 -1.49693890 -9.52750000
v -53.77389091 -1.45142772 -9.52750000
v -54.18885827 -1.34714942 -9.52750000
v -54.58527446 -1.18613365 -9.52750000
v -54.95542369 -0.97151441 -9.52750000
v -55.29210144 -0.70746901 -9.52750000
v -55.58875463 -0.39913680 -9.52750000
v -55.83960927 -0.05251910 -9.52750000
v -56.03978276 0.32563755 -9.52750000
v -56.18537893 0.72797276 -9.52750000
v -56.27356393 1.14665556 -9.52750000
v -56.30262134 1.57353674 -9.52750000
v -56.27198558 2.00030755 -9.52750000
v -56.18225296 2.41866138 -9.52750000
v -56.03517000 2.82045545 -9.52750000
v -55.83359952 3.19786931 -9.52750000
v -55.58146485 3.54355700 -9.52750000
v -55.28367352 3.85079013 -9.52750000
v -54.94602168 4.11358874 -9.52750000
v -54.57508134 4.32683775 -9.52750000
v -54.17807245 4.48638653 -9.52750000
v -53.76272232 4.58912963 -9.52750000
v -53.33711527 4.63306728 -9.52750000
v -53.01237911 3.65595285 -9.52750000
v -52.72394746 3.60454451 -9.52750000
v -52.44547747 3.51349455 -9.52750000
v -52.18238923 3.38457516 -9.52750000
v -51.93980345 3.22029558 -9.52750000
v -51.72244181 3.02385336 -9.52750000
v -51.53453498 2.79907200 -9.52750000
v -51.37974038 2.55032662 -9.52750000
v -51.26107088 2.28245877 -9.52750000
v -51.18083627 2.00068219 -9.52750000
v -51.14059822 1.71048134 -9.52750000
v -51.14113992 1.41750465 -9.52750000
v -51.18245081 1.12745458 -9.52750000
v -51.26372684 0.84597662 -9.52750000
v -51.38338606 0.57854943 -9.52750000
v -51.53909944 0.33037816 -9.52750000
v -51.72783618 0.10629319 -9.52750000
v -51.94592276 -0.08934392 -9.52750000
v -52.18911435 -0.25272532 -9.52750000
v -52.45267752 -0.38067098 -9.52750000
v -52.73148230 -0.47069057 -9.52750000
v -53.02010208 -0.52103198 -9.52750000
v -53.31291920 -0.53071535 -9.52750000
v -53.60423431 -0.49955222 -9.52750000
v -53.88837729 -0.42814914 -9.52750000
v -54.15981763 -0.31789589 -9.52750000
v -54.41327203 -0.17093842 -9.52750000
v -54.64380732 0.00986290 -9.52750000
v -54.84693636 0.22098898 -9.52750000
v -55.01870550 0.45833050 -9.52750000
v -55.15577144 0.71726788 -9.52750000
v -55.25546634 0.99276118 -9.52750000
v -55.31584976 1.27944825 -9.52750000
v -55.33574641 1.57174905 -9.52750000
v -55.31476901 1.86397427 -9.52750000
v -55.25332587 2.15043609 -9.52750000
v -55.15261292 2.42555886 -9.52750000
v -55.01459041 2.68398761 -9.52750000
v -54.84194479 2.92069233 -9.52750000
v -54.63803642 3.13106583 -9.52750000
v -54.40683414 3.31101343 -9.52750000
v -54.15283803 3.45703265 -9.52750000
v -53.88099186 3.56628140 -9.52750000
v -53.59658678 3.63663327 -9.52750000
v -53.30515842 3.66671895 -9.52750000
v -52.90069367 4.69999612 -0.00250000
v -52.46804620 4.62288362 -0.00250000
v -52.05034120 4.48630868 -0.00250000
v -51.65570884 4.29292959 -0.00250000
v -51.29183018 4.04651023 -0.00250000
v -50.96578772 3.75184689 -0.00250000
v -50.68392748 3.41467485 -0.00250000
v -50.45173557 3.04155679 -0.00250000
v -50.27373133 2.63975501 -0.00250000
v -50.15337941 2.21709014 -0.00250000
v -50.09302234 1.78178887 -0.00250000
v -50.09383488 1.34232383 -0.00250000
v -50.15580122 0.90724873 -0.00250000
v -50.27771527 0.48503179 -0.00250000
v -50.45720410 0.08389099 -0.00250000
v -50.69077416 -0.28836591 -0.00250000
v -50.97387928 -0.62449336 -0.00250000
v -51.30100914 -0.91794903 -0.00250000
v -51.66579653 -1.16302113 -0.00250000
v -52.06114128 -1.35493961 -0.00250000
v -52.47934846 -1.48996901 -0.00250000
v -52.91227812 -1.56548111 -0.00250000
v -53.35150381 -1.58000617 -0.00250000
v -53.78847647 -1.53326148 -0.00250000
v -54.21469094 -1.42615686 -0.00250000
v -54.62185144 -1.26077698 -0.00250000
v -55.00203305 -1.04034078 -0.00250000
v -55.34783598 -0.76913880 -0.00250000
v -55.65252955 -0.45244967 -0.00250000
v -55.91018325 -0.09643739 -0.00250000
v -56.11578216 0.29196867 -0.00250000
v -56.26532451 0.70520862 -0.00250000
v -56.35589964 1.13523923 -0.00250000
v -56.38574461 1.57369042 -0.00250000
v -56.35427852 2.01202826 -0.00250000
v -56.26211381 2.44172099 -0.00250000
v -56.11104438 2.85440514 -0.00250000
v -55.90401061 3.24204827 -0.00250000
v -55.64504219 3.59710535 -0.00250000
v -55.33917963 3.91266560 -0.00250000
v -54.99237621 4.18258700 -0.00250000
v -54.61138205 4.40161583 -0.00250000
v -54.20361279 4.56548895 -0.00250000
v -53.77700517 4.67101676 -0.00250000
v -53.33986264 4.71614528 -0.00250000
v -52.90806167 4.63111958 -7.94000000
v -52.90658807 4.64489489 -6.35250000
v -52.90511447 4.65867020 -4.76500000
v -52.90364087 4.67244550 -3.17750000
v -52.90216727 4.68622081 -1.59000000
v -53.74666909 4.60593509 -7.94000000
v -54.54738397 4.35543094 -7.94000000
v -53.74896667 4.61959715 -6.35250000
v -55.25082097 3.89818587 -7.94000000
v -54.55328233 4.36796649 -6.35250000
v -55.80480937 3.26811165 -7.94000000
v -53.75126425 4.63325920 -4.76500000
v -55.25988265 3.90866521 -6.35250000
v -56.16826238 2.51193802 -7.94000000
v -54.55918069 4.38050204 -4.76500000
v -55.81636231 3.27575758 -6.35250000
v -56.31422437 1.68574691 -7.94000000
v -53.75356182 4.64692125 -3.17750000
v -55.26894433 3.91914454 -4.76500000
v -56.18144976 2.51618347 -6.35250000
v -56.23187000 0.85081313 -7.94000000
v -54.56507904 4.39303758 -3.17750000
v -55.82791525 3.28340350 -4.76500000
v -56.32806813 1.68627701 -6.35250000
v -55.92730711 0.06905990 -7.94000000
v -53.75585940 4.66058331 -1.59000000
v -55.27800601 3.92962388 -3.17750000
v -56.19463713 2.52042891 -4.76500000
v -56.24534341 0.84758857 -6.35250000
v -55.42312375 -0.60153371 -7.94000000
v -54.57097740 4.40557313 -1.59000000
v -55.83946819 3.29104943 -3.17750000
v -56.34191189 1.68680711 -4.76500000
v -55.93941092 0.06231984 -6.35250000
v -54.75671288 -1.11123285 -7.94000000
v -55.28706769 3.94010322 -1.59000000
v -56.20782450 2.52467436 -3.17750000
v -56.25881683 0.84436402 -4.76500000
v -55.43296027 -0.61128941 -6.35250000
v -53.97749915 -1.42223547 -7.94000000
v -55.85102113 3.29869535 -1.59000000
v -56.35575564 1.68733722 -3.17750000
v -55.95151473 0.05557977 -4.76500000
v -54.76355258 -1.12328064 -6.35250000
v -53.14327328 -1.51147591 -7.94000000
v -56.22101187 2.52891981 -1.59000000
v -56.27229024 0.84113946 -3.17750000
v -55.44279679 -0.62104510 -4.76500000
v -53.98083476 -1.43568181 -6.35250000
v -52.31590598 -1.37233563 -7.94000000
v -56.36959940 1.68786732 -1.59000000
v -55.96361854 0.04883971 -3.17750000
v -54.77039228 -1.13532842 -4.76500000
v -53.14285742 -1.52532357 -6.35250000
v -51.55675931 -1.01513402 -7.94000000
v -56.28576365 0.83791491 -1.59000000
v -55.45263330 -0.63080079 -3.17750000
v -53.98417037 -1.44912816 -4.76500000
v -52.31176949 -1.38555758 -6.35250000
v -50.92213570 -0.46636310 -7.94000000
v -55.97572235 0.04209965 -1.59000000
v -54.77723198 -1.14737621 -3.17750000
v -53.14244155 -1.53917123 -4.76500000
v -51.54920897 -1.02674965 -6.35250000
v -50.45910227 0.23327732 -7.94000000
v -55.46246982 -0.64055648 -1.59000000
v -53.98750599 -1.46257451 -3.17750000
v -52.30763299 -1.39877953 -4.76500000
v -50.91173148 -0.47551093 -6.35250000
v -50.20200010 1.03189809 -7.94000000
v -54.78407168 -1.15942399 -1.59000000
v -53.14202569 -1.55301889 -3.17750000
v -51.54165862 -1.03836529 -4.76500000
v -50.44661581 0.22727573 -6.35250000
v -50.16989729 1.87026917 -7.94000000
v -53.99084160 -1.47602086 -1.59000000
v -52.30349650 -1.41200148 -3.17750000
v -50.90132726 -0.48465877 -4.76500000
v -50.18835747 1.02948786 -6.35250000
v -50.36517474 2.68621241 -7.94000000
v -53.14160983 -1.56686655 -1.59000000
v -51.53410828 -1.04998092 -3.17750000
v -50.43412936 0.22127415 -4.76500000
v -50.15611029 1.87162906 -6.35250000
v -50.77334963 3.41921304 -7.94000000
v -52.29936000 -1.42522344 -1.59000000
v -50.89092305 -0.49380660 -3.17750000
v -50.17471484 1.02707764 -4.76500000
v -50.35226590 2.69124156 -6.35250000
v -51.36414949 4.01490775 -7.94000000
v -51.52655794 -1.06159655 -1.59000000
v -50.42164290 0.21527256 -3.17750000
v -50.14232329 1.87298895 -4.76500000
v -50.76227633 3.42753846 -6.35250000
v -52.09375739 4.42911659 -7.94000000
v -50.88051883 -0.50295444 -1.59000000
v -50.16107220 1.02466741 -3.17750000
v -50.33935705 2.69627071 -4.76500000
v -51.35573299 4.02591198 -6.35250000
v -50.40915644 0.20927098 -1.59000000
v -50.12853629 1.87434884 -3.17750000
v -50.75120303 3.43586388 -4.76500000
v -52.08862191 4.44198350 -6.35250000
v -50.14742957 1.02225719 -1.59000000
v -50.32644821 2.70129986 -3.17750000
v -51.34731649 4.03691621 -4.76500000
v -50.11474929 1.87570873 -1.59000000
v -50.74012973 3.44418930 -3.17750000
v -52.08348642 4.45485041 -4.76500000
v -50.31353936 2.70632901 -1.59000000
v -51.33889998 4.04792044 -3.17750000
v -50.72905643 3.45251472 -1.59000000
v -52.07835093 4.46771732 -3.17750000
v -51.33048348 4.05892468 -1.59000000
v -52.07321544 4.48058423 -1.59000000
v -52.90806167 4.63111958 7.93500000
v -52.90658807 4.64489489 6.34750000
v -52.90511447 4.65867020 4.76000000
v -52.90364087 4.67244550 3.17250000
v -52.90216727 4.68622081 1.58500000
v -52.09375739 4.42911659 7.93500000
v -51.36414949 4.01490775 7.93500000
v -52.08862191 4.44198350 6.34750000
v -50.77334963 3.41921304 7.93500000
v -51.35573299 4.02591198 6.34750000
v -50.36517474 2.68621241 7.93500000
v -52.08348642 4.45485041 4.76000000
v -50.76227633 3.42753846 6.34750000
v -50.16989729 1.87026917 7.93500000
v -51.34731649 4.03691621 4.76000000
v -50.35226590 2.69124156 6.34750000
v -50.20200010 1.03189809 7.93500000
v -52.07835093 4.46771732 3.17250000
v -50.75120303 3.43586388 4.76000000
v -50.15611029 1.87162906 6.34750000
v -50.45910227 0.23327732 7.93500000
v -51.33889998 4.04792044 3.17250000
v -50.33935705 2.69627071 4.76000000
v -50.18835747 1.02948786 6.34750000
v -50.92213570 -0.46636310 7.93500000
v -52.07321544 4.48058423 1.58500000
v -50.74012973 3.44418930 3.17250000
v -50.14232329 1.87298895 4.76000000
v -50.44661581 0.22727573 6.34750000
v -51.55675931 -1.01513402 7.93500000
v -51.33048348 4.05892468 1.58500000
v -50.32644821 2.70129986 3.17250000
v -50.17471484 1.02707764 4.76000000
v -50.91173148 -0.47551093 6.34750000
v -52.31590598 -1.37233563 7.93500000
v -50.72905643 3.45251472 1.58500000
v -50.12853629 1.87434884 3.17250000
v -50.43412936 0.22127415 4.76000000
v -51.54920897 -1.02674965 6.34750000
v -53.14327328 -1.51147591 7.93500000
v -50.31353936 2.70632901 1.58500000
v -50.16107220 1.02466741 3.17250000
v -50.90132726 -0.48465877 4.76000000
v -52.31176949 -1.38555758 6.34750000
v -53.97749915 -1.42223547 7.93500000
v -50.11474929 1.87570873 1.58500000
v -50.42164290 0.21527256 3.17250000
v -51.54165862 -1.03836529 4.76000000
v -53.14285742 -1.52532357 6.34750000
v -54.75671288 -1.11123285 7.93500000
v -50.14742957 1.02225719 1.58500000
v -50.89092305 -0.49380660 3.17250000
v -52.30763299 -1.39877953 4.76000000
v -53.98083476 -1.43568181 6.34750000
v -55.42312375 -0.60153371 7.93500000
v -50.40915644 0.20927098 1.58500000
v -51.53410828 -1.04998092 3.17250000
v -53.14244155 -1.53917123 4.76000000
v -54.76355258 -1.12328064 6.34750000
v -55.92730711 0.06905990 7.93500000
v -50.88051883 -0.50295444 1.58500000
v -52.30349650 -1.41200148 3.17250000
v -53.98417037 -1.44912816 4.76000000
v -55.43296027 -0.61128941 6.34750000
v -56.23187000 0.85081313 7.93500000
v -51.52655794 -1.06159655 1.58500000
v -53.14202569 -1.55301889 3.17250000
v -54.77039228 -1.13532842 4.76000000
v -55.93941092 0.06231984 6.34750000
v -56.31422437 1.68574691 7.93500000
v -52.29936000 -1.42522344 1.58500000
v -53.98750599 -1.46257451 3.17250000
v -55.44279679 -0.62104510 4.76000000
v -56.24534341 0.84758857 6.34750000
v -56.16826238 2.51193802 7.93500000
v -53.14160983 -1.56686655 1.58500000
v -54.77723198 -1.14737621 3.17250000
v -55.95151473 0.05557977 4.76000000
v -56.32806813 1.68627701 6.34750000
v -55.80480937 3.26811165 7.93500000
v -53.99084160 -1.47602086 1.58500000
v -55.45263330 -0.63080079 3.17250000
v -56.25881683 0.84436402 4.76000000
v -56.18144976 2.51618347 6.34750000
v -55.25082097 3.89818587 7.93500000
v -54.78407168 -1.15942399 1.58500000
v -55.96361854 0.04883971 3.17250000
v -56.34191189 1.68680711 4.76000000
v -55.81636231 3.27575758 6.34750000
v -54.54738397 4.35543094 7.93500000
v -55.46246982 -0.64055648 1.58500000
v -56.27229024 0.84113946 3.17250000
v -56.19463713 2.52042891 4.76000000
v -55.25988265 3.90866521 6.34750000
v -53.74666909 4.60593509 7.93500000
v -55.97572235 0.04209965 1.58500000
v -56.35575564 1.68733722 3.17250000
v -55.82791525 3.28340350 4.76000000
v -54.55328233 4.36796649 6.34750000
v -56.28576365 0.83791491 1.58500000
v -56.20782450 2.52467436 3.17250000
v -55.26894433 3.91914454 4.76000000
v -53.74896667 4.61959715 6.34750000
v -56.36959940 1.68786732 1.58500000
v -55.83946819 3.29104943 3.17250000
v -54.55918069 4.38050204 4.76000000
v -56.22101187 2.52891981 1.58500000
v -55.27800601 3.92962388 3.17250000
v -53.75126425 4.63325920 4.76000000
v -55.85102113 3.29869535 1.58500000
v -54.56507904 4.39303758 3.17250000
v -55.28706769 3.94010322 1.58500000
v -53.75356182 4.64692125 3.17250000
v -54.57097740 4.40557313 1.58500000
v -53.75585940 4.66058331 1.58500000
f 75 29 74
f 75 30 29
f 73 74 29
f 73 29 28
f 76 30 75
f 76 31 30
f 72 73 28
f 72 28 27
f 77 31 76
f 77 32 31
f 71 72 27
f 71 27 26
f 78 32 77
f 78 33 32
f 70 26 25
f 70 71 26
f 79 33 78
f 79 34 33
f 69 25 24
f 69 70 25
f 80 35 34
f 80 34 79
f 68 24 23
f 68 69 24
f 81 35 80
f 81 36 35
f 67 23 22
f 67 68 23
f 82 37 36
f 82 36 81
f 66 67 22
f 66 22 21
f 83 38 37
f 83 37 82
f 65 21 20
f 65 66 21
f 39 38 83
f 84 39 83
f 64 20 19
f 64 65 20
f 85 40 39
f 85 39 84
f 63 19 18
f 63 64 19
f 41 40 85
f 41 85 86
f 17 62 63
f 17 63 18
f 87 41 86
f 42 41 87
f 88 42 87
f 16 61 62
f 16 62 17
f 43 42 88
f 15 61 16
f 15 60 61
f 44 43 88
f 44 88 89
f 14 60 15
f 14 59 60
f 45 44 89
f 45 89 90
f 13 59 14
f 13 57 58
f 13 58 59
f 1 45 90
f 1 90 46
f 12 57 13
f 2 1 46
f 2 46 47
f 11 57 12
f 11 55 56
f 11 56 57
f 3 47 48
f 3 2 47
f 10 55 11
f 4 48 49
f 4 3 48
f 9 54 55
f 9 55 10
f 5 49 50
f 5 50 51
f 5 4 49
f 8 53 54
f 8 54 9
f 6 5 51
f 7 51 52
f 7 52 53
f 7 6 51
f 7 53 8
f 165 164 119
f 165 119 120
f 163 119 164
f 163 118 119
f 166 165 120
f 166 120 121
f 162 118 163
f 162 117 118
f 167 166 121
f 167 121 122
f 161 117 162
f 161 116 117
f 168 167 122
f 168 122 123
f 160 115 116
f 160 116 161
f 169 168 123
f 169 123 124
f 159 114 115
f 159 115 160
f 170 124 125
f 170 169 124
f 158 113 114
f 158 114 159
f 171 170 125
f 171 125 126
f 157 112 113
f 157 113 158
f 172 126 127
f 172 171 126
f 156 112 157
f 156 111 112
f 173 127 128
f 173 172 127
f 155 110 111
f 155 111 156
f 129 173 128
f 174 173 129
f 154 109 110
f 154 110 155
f 175 129 130
f 175 174 129
f 153 108 109
f 153 109 154
f 131 175 130
f 131 176 175
f 107 153 152
f 107 108 153
f 177 176 131
f 132 177 131
f 178 177 132
f 106 152 151
f 106 107 152
f 133 178 132
f 105 106 151
f 105 151 150
f 134 178 133
f 134 179 178
f 104 105 150
f 104 150 149
f 135 179 134
f 135 180 179
f 103 104 149
f 103 148 147
f 103 149 148
f 91 180 135
f 91 136 180
f 102 103 147
f 92 136 91
f 92 137 136
f 101 102 147
f 101 146 145
f 101 147 146
f 93 138 137
f 93 137 92
f 100 101 145
f 94 139 138
f 94 138 93
f 99 145 144
f 99 100 145
f 95 140 139
f 95 141 140
f 95 139 94
f 98 144 143
f 98 99 144
f 96 141 95
f 97 142 141
f 97 143 142
f 97 141 96
f 97 98 143
f 226 91 135
f 225 181 230
f 226 92 91
f 181 182 230
f 231 226 135
f 231 134 133
f 231 135 134
f 232 231 133
f 232 132 131
f 232 133 132
f 233 226 231
f 233 227 226
f 234 232 131
f 234 130 129
f 234 131 130
f 235 233 231
f 235 231 232
f 236 234 129
f 236 128 127
f 236 129 128
f 237 227 233
f 237 228 227
f 238 232 234
f 238 235 232
f 239 236 127
f 239 126 125
f 239 127 126
f 240 233 235
f 240 237 233
f 241 238 234
f 241 234 236
f 242 239 125
f 242 124 123
f 242 125 124
f 243 229 228
f 243 228 237
f 244 235 238
f 244 240 235
f 245 236 239
f 245 241 236
f 246 242 123
f 246 122 121
f 246 123 122
f 247 237 240
f 247 243 237
f 248 244 238
f 248 238 241
f 249 245 239
f 249 239 242
f 250 246 121
f 250 120 119
f 250 121 120
f 251 223 224
f 251 224 225
f 251 230 229
f 251 225 230
f 251 229 243
f 252 247 240
f 252 240 244
f 253 241 245
f 253 248 241
f 254 242 246
f 254 246 250
f 254 249 242
f 255 250 119
f 255 118 117
f 255 119 118
f 256 251 243
f 256 223 251
f 256 221 222
f 256 222 223
f 256 243 247
f 257 244 248
f 257 252 244
f 258 245 249
f 258 253 245
f 258 249 254
f 259 254 250
f 260 255 117
f 260 116 115
f 260 117 116
f 261 247 252
f 261 256 247
f 261 219 220
f 261 220 221
f 261 252 257
f 261 221 256
f 262 248 253
f 262 257 248
f 263 258 254
f 264 250 255
f 264 259 250
f 265 260 115
f 265 115 114
f 266 261 257
f 266 217 218
f 266 218 219
f 266 219 261
f 267 262 253
f 267 253 258
f 268 263 254
f 268 254 259
f 269 260 265
f 269 255 260
f 269 264 255
f 270 265 114
f 270 113 112
f 270 114 113
f 271 217 266
f 271 215 216
f 271 216 217
f 271 266 257
f 271 257 262
f 272 258 263
f 272 267 258
f 273 268 259
f 273 259 264
f 273 264 269
f 274 269 265
f 274 265 270
f 275 270 112
f 275 111 110
f 275 112 111
f 276 215 271
f 276 271 262
f 276 213 214
f 276 214 215
f 276 262 267
f 276 267 272
f 277 263 268
f 277 272 263
f 278 273 269
f 278 269 274
f 279 274 270
f 280 275 110
f 280 109 108
f 280 110 109
f 281 211 212
f 281 276 272
f 281 212 213
f 281 213 276
f 282 273 278
f 282 268 273
f 282 277 268
f 283 278 274
f 284 279 270
f 284 270 275
f 285 280 108
f 285 107 106
f 285 108 107
f 286 211 281
f 286 209 210
f 286 210 211
f 286 272 277
f 286 281 272
f 286 277 282
f 287 282 278
f 287 278 283
f 288 274 279
f 288 283 274
f 289 284 275
f 289 280 285
f 289 275 280
f 290 105 104
f 290 106 105
f 290 285 106
f 291 282 287
f 291 207 208
f 291 208 209
f 291 209 286
f 291 286 282
f 292 287 283
f 293 284 289
f 293 279 284
f 293 288 279
f 294 289 285
f 294 285 290
f 295 290 104
f 295 103 102
f 295 104 103
f 296 205 206
f 296 206 207
f 296 291 287
f 296 207 291
f 297 283 288
f 297 292 283
f 297 288 293
f 298 293 289
f 299 294 290
f 300 101 100
f 300 102 101
f 300 295 102
f 301 204 205
f 301 205 296
f 301 287 292
f 301 296 287
f 302 293 298
f 302 297 293
f 303 298 289
f 303 289 294
f 304 299 290
f 304 290 295
f 305 300 100
f 305 99 98
f 305 100 99
f 306 301 292
f 306 204 301
f 306 202 203
f 306 203 204
f 306 292 297
f 307 302 298
f 308 303 294
f 308 294 299
f 309 304 295
f 309 295 300
f 310 305 98
f 310 97 96
f 310 98 97
f 311 297 302
f 311 200 201
f 311 201 202
f 311 202 306
f 311 306 297
f 312 307 298
f 312 298 303
f 313 299 304
f 313 308 299
f 314 300 305
f 314 305 310
f 314 309 300
f 315 310 96
f 315 95 94
f 315 96 95
f 316 198 199
f 316 199 200
f 316 311 302
f 316 200 311
f 316 302 307
f 317 308 313
f 317 312 303
f 317 303 308
f 318 304 309
f 318 313 304
f 318 309 314
f 319 314 310
f 320 315 94
f 320 93 92
f 320 94 93
f 320 92 226
f 321 196 197
f 321 197 198
f 321 307 312
f 321 198 316
f 321 316 307
f 322 317 313
f 322 313 318
f 323 318 314
f 324 319 310
f 324 310 315
f 325 194 195
f 325 195 196
f 325 196 321
f 325 312 317
f 325 321 312
f 326 322 318
f 327 314 319
f 327 323 314
f 328 324 315
f 328 320 226
f 328 315 320
f 328 226 227
f 329 192 193
f 329 193 194
f 329 194 325
f 329 317 322
f 329 325 317
f 330 318 323
f 330 326 318
f 330 323 327
f 331 319 324
f 331 327 319
f 331 324 328
f 332 190 191
f 332 191 192
f 332 192 329
f 332 322 326
f 332 329 322
f 332 326 330
f 333 327 331
f 333 330 327
f 334 331 328
f 334 328 227
f 334 227 228
f 335 332 330
f 335 188 189
f 335 189 190
f 335 190 332
f 335 330 333
f 336 333 331
f 337 186 187
f 337 187 188
f 337 335 333
f 337 188 335
f 337 333 336
f 338 334 228
f 338 336 331
f 338 331 334
f 338 228 229
f 339 184 185
f 339 185 186
f 339 337 336
f 339 186 337
f 340 229 230
f 340 182 183
f 340 183 184
f 340 230 182
f 340 338 229
f 340 184 339
f 340 336 338
f 340 339 336
f 341 1 2
f 182 181 345
f 341 45 1
f 181 225 345
f 346 341 2
f 346 2 3
f 346 3 4
f 347 4 5
f 347 5 6
f 347 346 4
f 348 342 341
f 348 341 346
f 349 347 6
f 349 6 7
f 349 7 8
f 350 346 347
f 350 348 346
f 351 349 8
f 351 8 9
f 351 9 10
f 352 343 342
f 352 342 348
f 353 347 349
f 353 350 347
f 354 351 10
f 354 10 11
f 354 11 12
f 355 348 350
f 355 352 348
f 356 353 349
f 356 349 351
f 357 12 13
f 357 13 14
f 357 354 12
f 358 344 343
f 358 343 352
f 359 350 353
f 359 355 350
f 360 351 354
f 360 356 351
f 361 357 14
f 361 14 15
f 361 15 16
f 362 352 355
f 362 358 352
f 362 355 359
f 363 353 356
f 363 359 353
f 364 360 354
f 364 357 361
f 364 354 357
f 365 361 16
f 365 16 17
f 365 17 18
f 366 183 182
f 366 184 183
f 366 344 358
f 366 345 344
f 366 182 345
f 367 362 359
f 368 356 360
f 368 363 356
f 369 364 361
f 370 365 18
f 370 18 19
f 370 19 20
f 371 185 184
f 371 186 185
f 371 184 366
f 371 366 358
f 371 362 367
f 371 358 362
f 372 363 368
f 372 359 363
f 372 367 359
f 373 360 364
f 373 368 360
f 374 369 361
f 374 361 365
f 375 20 21
f 375 21 22
f 375 370 20
f 376 187 186
f 376 188 187
f 376 371 367
f 376 186 371
f 377 372 368
f 378 373 364
f 378 364 369
f 378 369 374
f 379 374 365
f 379 365 370
f 380 375 22
f 380 22 23
f 381 376 367
f 381 189 188
f 381 190 189
f 381 188 376
f 381 367 372
f 381 372 377
f 382 368 373
f 382 377 368
f 383 378 374
f 384 379 370
f 384 370 375
f 385 380 23
f 385 23 24
f 385 24 25
f 386 191 190
f 386 192 191
f 386 190 381
f 386 381 377
f 387 382 373
f 387 373 378
f 387 378 383
f 388 383 374
f 388 374 379
f 389 384 375
f 389 380 385
f 389 375 380
f 390 385 25
f 390 25 26
f 390 26 27
f 391 377 382
f 391 193 192
f 391 194 193
f 391 192 386
f 391 386 377
f 392 387 383
f 393 388 379
f 393 379 384
f 394 385 390
f 394 389 385
f 395 390 27
f 395 27 28
f 395 28 29
f 396 391 382
f 396 194 391
f 396 387 392
f 396 195 194
f 396 196 195
f 396 382 387
f 397 392 383
f 397 383 388
f 397 388 393
f 398 384 389
f 398 393 384
f 399 394 390
f 400 395 29
f 400 29 30
f 400 30 31
f 401 396 392
f 401 197 196
f 401 198 197
f 401 196 396
f 402 397 393
f 402 393 398
f 403 398 389
f 403 394 399
f 403 389 394
f 404 399 390
f 404 390 395
f 405 31 32
f 405 400 31
f 405 32 33
f 406 401 392
f 406 392 397
f 406 199 198
f 406 200 199
f 406 198 401
f 407 402 398
f 408 399 404
f 408 403 399
f 409 395 400
f 409 404 395
f 410 405 33
f 410 33 34
f 410 34 35
f 411 201 200
f 411 202 201
f 411 406 397
f 411 200 406
f 411 397 402
f 412 398 403
f 412 407 398
f 413 408 404
f 414 400 405
f 414 409 400
f 415 410 35
f 415 35 36
f 415 36 37
f 416 203 202
f 416 202 411
f 416 402 407
f 416 411 402
f 417 412 403
f 417 403 408
f 418 413 404
f 418 404 409
f 419 405 410
f 419 414 405
f 419 410 415
f 420 415 37
f 420 37 38
f 420 38 39
f 421 416 407
f 421 204 203
f 421 205 204
f 421 412 417
f 421 203 416
f 421 407 412
f 422 417 408
f 422 413 418
f 422 408 413
f 423 418 409
f 423 414 419
f 423 409 414
f 424 419 415
f 424 415 420
f 425 420 39
f 425 39 40
f 425 40 41
f 426 206 205
f 426 421 417
f 426 207 206
f 426 205 421
f 427 422 418
f 428 423 419
f 429 424 420
f 430 425 41
f 430 41 42
f 430 42 43
f 431 417 422
f 431 208 207
f 431 209 208
f 431 207 426
f 431 422 427
f 431 426 417
f 432 423 428
f 432 427 418
f 432 418 423
f 433 419 424
f 433 428 419
f 434 420 425
f 434 429 420
f 435 430 43
f 435 45 341
f 435 43 44
f 435 44 45
f 436 209 431
f 436 210 209
f 436 211 210
f 436 431 427
f 436 427 432
f 437 432 428
f 438 433 424
f 438 424 429
f 439 434 425
f 439 425 430
f 440 212 211
f 440 213 212
f 440 436 432
f 440 211 436
f 441 428 433
f 441 433 438
f 441 437 428
f 442 429 434
f 442 438 429
f 443 430 435
f 443 439 430
f 443 435 341
f 443 341 342
f 444 214 213
f 444 215 214
f 444 213 440
f 444 432 437
f 444 440 432
f 445 441 438
f 446 434 439
f 446 442 434
f 447 216 215
f 447 217 216
f 447 215 444
f 447 444 437
f 447 441 445
f 447 437 441
f 448 438 442
f 448 445 438
f 449 439 443
f 449 446 439
f 449 443 342
f 449 342 343
f 450 447 445
f 450 218 217
f 450 219 218
f 450 217 447
f 451 448 442
f 451 442 446
f 452 220 219
f 452 221 220
f 452 450 445
f 452 219 450
f 452 445 448
f 453 449 343
f 453 451 446
f 453 446 449
f 453 343 344
f 454 452 448
f 454 222 221
f 454 223 222
f 454 221 452
f 454 448 451
f 455 344 345
f 455 345 225
f 455 453 344
f 455 454 451
f 455 451 453
f 455 223 454
f 455 224 223
f 455 225 224
f 46 180 136
f 90 180 46
f 89 180 90
f 89 179 180
f 88 179 89
f 88 178 179
f 87 178 88
f 87 177 178
f 86 177 87
f 86 175 176
f 86 176 177
f 85 175 86
f 84 175 85
f 84 174 175
f 83 174 84
f 83 172 173
f 83 173 174
f 82 172 83
f 82 171 172
f 81 171 82
f 80 171 81
f 80 170 171
f 79 170 80
f 79 169 170
f 78 169 79
f 78 168 169
f 77 168 78
f 77 167 168
f 76 167 77
f 76 166 167
f 75 166 76
f 75 165 166
f 74 165 75
f 74 164 165
f 73 164 74
f 73 163 164
f 72 162 163
f 72 163 73
f 71 161 162
f 71 162 72
f 70 160 161
f 70 161 71
f 69 159 160
f 69 160 70
f 68 157 158
f 68 158 159
f 68 159 69
f 67 156 157
f 67 157 68
f 66 156 67
f 65 156 66
f 65 155 156
f 64 155 65
f 64 154 155
f 63 154 64
f 63 153 154
f 62 153 63
f 62 152 153
f 61 152 62
f 61 151 152
f 60 151 61
f 60 150 151
f 59 150 60
f 59 149 150
f 58 149 59
f 58 148 149
f 57 148 58
f 57 146 147
f 57 147 148
f 56 146 57
f 55 146 56
f 55 145 146
f 54 145 55
f 54 143 144
f 54 144 145
f 53 143 54
f 53 142 143
f 52 142 53
f 52 141 142
f 51 141 52
f 50 140 141
f 50 141 51
f 49 138 139
f 49 139 140
f 49 140 50
f 48 137 138
f 48 138 49
f 47 137 48
f 46 136 137
f 46 137 47

