# https://github.com/mikedh/trimesh
v -10.79976453 50.10785412 -16.15959467
v 14.60023547 50.10785412 -16.15959467
v 13.76432191 50.02752203 -18.58309186
v 14.47550218 50.06954351 16.02077228
v -10.92449782 50.06954351 16.02077228
v -25.39231459 0.20000000 -26.14107727
v -25.39231459 0.14823619 -26.13426244
v -25.39231459 0.10000000 -26.11428236
v -25.39231459 0.05857864 -26.08249863
v 24.64231459 0.20000000 -26.14107727
v 24.64231459 0.14823619 -26.13426244
v 24.64231459 0.10000000 -26.11428236
v 24.64231459 0.05857864 -26.08249863
v 25.55686484 0.21222350 -25.82948184
v 25.39364201 0.21191152 -25.93893704
v 25.21589236 0.21138971 -26.02675419
v 25.02808212 0.21066898 -26.09034932
v 24.83519783 0.20977054 -26.12839113
v 24.64231459 0.20872388 -26.14088692
v 24.64231459 0.20581694 -26.14099266
v 24.64231459 0.20290878 -26.14105612
v 24.73877018 0.15503364 -26.13278093
v 24.94092356 0.05285064 -26.06550986
v 26.14107727 0.20000000 -24.64231459
v 26.13426244 0.14823619 -24.64231459
v 26.11428236 0.10000000 -24.64231459
v 26.08249863 0.05857864 -24.64231459
v 26.14107727 0.20000000 25.39231459
v 26.13426244 0.14823619 25.39231459
v 26.11428236 0.10000000 25.39231459
v 26.08249863 0.05857864 25.39231459
v 26.14088692 0.20872388 25.39231459
v 26.14099266 0.20581694 25.39231459
v 26.14105612 0.20290878 25.39231459
v 26.13278093 0.15503364 25.48877018
v -95.00573117 0.21232571 20.49517648
v 20.49517648 0.21232571 95.00573117
v 20.61337909 0.21227852 94.87668460
v 20.72002548 0.21213697 94.73750631
v 20.81494739 0.17174051 94.58585035
v 18.13155962 49.05683603 21.11912155
v 20.12769239 48.64588856 -20.12769239
v 20.66743463 48.64573525 -19.51335599
v 21.13075774 48.64526729 -18.82234210
v 21.50245474 48.64448456 -18.06980631
v 21.42780702 48.92962501 -17.97787411
v -93.69959028 21.00494606 -16.15608051
v -16.15608051 21.00494606 93.69959028
v 23.25339433 -0.01141232 89.52531670
v -90.25953069 0.01115361 -22.99970158
v -88.56349189 17.17698311 -22.50003672
v -95.59088692 0.20872388 -19.08223579
v -95.59088692 0.20872388 19.08223579
v -94.66048772 19.30142404 18.23945890
v -94.75613531 19.32767897 -16.15618762
v -94.57053847 19.82141284 -18.13160375
v -19.08223579 0.20872388 95.59088692
v 19.08223579 0.20872388 95.59088692
v 18.23945890 19.30142404 94.66048772
v -16.15618762 19.32767897 94.75613531
v -17.87161971 19.94393259 94.57732527
v 25.10364677 23.96542908 24.35507444
v 26.14088692 0.20872388 -24.64231459
v 25.10364677 23.96542908 -23.60507444
v 23.60507444 23.96542908 -25.10364677
v -25.39231459 0.20872388 -26.14088692
v -24.35507444 23.96542908 -25.10364677
v -94.30000000 -1.00000000 -19.57679492
v -94.26356143 -1.00839007 19.56809260
v -90.37000000 -1.00000000 -21.84578148
v -24.41442085 -1.00000000 -24.38511929
v 24.85000000 -1.00000000 -24.85000000
v 24.85000000 -1.00000000 25.60000000
v -19.57679492 -1.00000000 94.30000000
v 19.57679492 -1.00000000 94.30000000
v 18.06980631 48.64448456 -21.50245474
v 18.82234210 48.64526729 -21.13075774
v -88.55391702 17.98302301 -22.41303538
v -88.54462027 18.76566686 -22.22583981
v -88.53566645 19.52221943 -21.93937242
v -88.52724626 20.23508864 -21.55981561
v 20.01109786 21.61791611 90.01386239
v 21.09690508 20.88875953 88.51953728
v 21.56220950 20.23120713 88.52729191
v 21.94151499 19.51748887 88.53572247
v 22.22729286 18.76093824 88.54467656
v 22.41353834 17.98046435 88.55394694
v -92.57085816 21.20588137 19.58031191
v -13.16761488 48.77505987 -23.29563833
v 12.23238512 48.77505987 -23.29563833
v 23.28818536 48.64999406 -12.17675699
v 23.29559103 48.77768243 13.16915659
v -20.69951542 19.23850137 92.41836901
v 17.33677815 22.64269230 90.52125687
v 16.84566668 20.87656082 93.88129908
v 20.06978174 17.25486054 93.84567854
v 21.96555288 17.21734128 90.55608219
v 20.29226789 19.57592074 92.89838112
v 22.70814185 0.21190268 91.29800149
v -94.58979544 0.21190268 -20.81389030
v -91.29800149 0.21190268 -22.70814185
v -90.42293833 22.61995536 -17.75755407
v -90.04216102 21.09609681 -20.56026014
v -92.62544914 19.06743245 -20.59959833
v 22.19071400 17.19251780 90.10226470
v 22.35570628 17.18775993 89.62314006
v 22.45948430 17.17990651 89.12711771
v 22.48999051 17.17422129 88.84608522
v 22.95068175 0.21134579 90.79944025
v 23.12302584 0.21056368 90.26753383
v 23.21003457 0.20973485 89.79948221
v 3.20536187 22.92349087 90.21364207
v 16.15614428 23.11011977 89.53811694
v 22.19583290 17.21244369 90.08833375
v 22.36338569 17.20397923 89.59467811
v 22.46536451 17.19209171 89.08350251
v -90.34784255 22.78189958 3.18123191
v -89.01957302 23.21465722 16.15615320
v -18.23486895 22.60915167 90.42378515
v -16.15614877 23.22431338 88.94175220
v -89.38596418 23.14817513 -16.15615253
v -89.34586069 17.19799457 -22.43016303
v -90.37393744 17.41579730 -22.05708940
v -89.75867179 17.18951730 -22.31650695
v -89.00469180 17.17757836 -22.47569098
v -89.32824739 0.20877677 -23.24081028
v -89.88139381 0.20988889 -23.19894338
v -90.42774447 0.21081793 -23.07970106
v -90.87574742 0.21144283 -22.91898683
v -19.79928580 17.25907971 94.21141051
v -19.61511214 17.25859227 94.38533124
v -19.47468421 17.25709488 94.49199725
v -19.29032434 17.25398133 94.60544847
v -19.07728376 17.24903678 94.70537082
v -18.86342752 17.24283586 94.77705393
v -18.65519904 17.23572977 94.82228997
v -18.50069326 17.22981532 94.84119387
v -20.49329159 0.21232569 95.00761355
v -20.31991530 0.21224099 95.16152200
v -19.92182266 0.21157248 95.40597495
v -19.70506280 0.21100076 95.49134123
v -19.48253995 0.21028932 95.55035775
v -19.28125373 0.20954651 95.58092832
v -16.15609353 20.87249013 93.91372321
v -16.15610654 20.71418778 94.10954603
v -16.15611955 20.53274576 94.28414984
v -16.15613257 20.33087082 94.43462577
v -16.15614558 20.11149152 94.55820314
v -16.15615859 19.87829858 94.65320618
v -16.15617160 19.63508594 94.71844826
v -16.15617961 19.48211938 94.74328638
v 1.00940345 20.90053101 93.87347295
v 0.77878530 20.84973651 93.94554588
v 0.53982609 20.80834749 93.99968516
v 0.29302829 20.78003473 94.03462471
v 0.04489929 20.76819244 94.04876817
v -0.20467285 20.77410216 94.04190289
v -0.45337854 20.79696354 94.01413584
v -1.17227799 20.94145935 93.80995076
v 16.15608933 20.87249013 93.91372321
v 16.15609970 20.71418778 94.10954603
v 16.15611145 20.53274576 94.28414984
v 16.15612440 20.33087082 94.43462577
v 16.15613837 20.11149152 94.55820314
v 16.15615312 19.87829859 94.65320618
v 16.15616841 19.63508595 94.71844826
v 16.15617798 19.48211938 94.74328638
v 19.92886855 17.25794783 94.05730232
v 19.76228736 17.25906271 94.24941831
v 19.57292818 17.25820493 94.41913119
v 19.36368101 17.25537427 94.56354568
v 19.13766149 17.25058696 94.67991770
v 18.89873288 17.24394271 94.76666797
v 18.65084429 17.23556737 94.82272958
v 18.49559469 17.22960903 94.84151056
v 19.33942868 0.20977054 95.57424110
v 19.59662081 0.21066898 95.52353176
v 19.84704495 0.21138971 95.43874875
v 20.08405207 0.21191152 95.32166681
v 20.30168706 0.21222350 95.17573108
v -94.01177102 17.25750203 -19.96280676
v -94.21141051 17.25907971 -19.79928580
v -94.38533124 17.25859227 -19.61511214
v -94.49199725 17.25709488 -19.47468421
v -94.60544847 17.25398133 -19.29032434
v -94.70537082 17.24903678 -19.07728376
v -94.77705393 17.24283586 -18.86342752
v -94.82228997 17.23572977 -18.65519904
v -94.84119387 17.22981532 -18.50069326
v -94.81760505 0.21222880 -20.66103080
v -95.00761355 0.21232569 -20.49329159
v -95.16152200 0.21224099 -20.31991530
v -95.40597495 0.21157248 -19.92182266
v -95.49134123 0.21100076 -19.70506280
v -95.55035775 0.21028932 -19.48253995
v -95.58092832 0.20954651 -19.28125373
v -93.91372321 20.87249013 -16.15609353
v -94.10954603 20.71418778 -16.15610654
v -94.28414984 20.53274576 -16.15611955
v -94.43462577 20.33087082 -16.15613257
v -94.55820314 20.11149152 -16.15614558
v -94.65320618 19.87829858 -16.15615859
v -94.71844826 19.63508594 -16.15617160
v -94.74328638 19.48211938 -16.15617961
v -94.04876817 20.76819244 0.04489929
v -94.04190289 20.77410216 -0.20467285
v -94.01413584 20.79696354 -0.45337854
v -93.70209578 21.03924919 1.21165080
v -94.28414984 20.53274576 16.15611145
v -94.43462577 20.33087082 16.15612440
v -94.55820314 20.11149152 16.15613837
v -94.65320618 19.87829859 16.15615312
v -94.71844826 19.63508595 16.15616841
v -94.74328638 19.48211938 16.15617798
v -94.24941831 17.25906271 19.76228736
v -94.41913119 17.25820493 19.57292818
v -94.56354568 17.25537427 19.36368101
v -94.67991770 17.25058696 19.13766149
v -94.76666797 17.24394271 18.89873288
v -94.82272958 17.23556737 18.65084429
v -94.84151056 17.22960903 18.49559469
v -95.57424110 0.20977054 19.33942868
v -95.52353176 0.21066898 19.59662081
v -95.43874875 0.21138971 19.84704495
v -95.32166681 0.21191152 20.08405207
v -95.17573108 0.21222350 20.30168706
v 26.12839113 0.20977054 -24.83519783
v 26.09034932 0.21066898 -25.02808212
v 26.02675419 0.21138971 -25.21589236
v 25.93893704 0.21191152 -25.39364201
v 25.82948184 0.21222350 -25.55686484
v 23.80044216 23.97338439 -25.09048555
v 23.99247516 23.98008710 -25.05196999
v 24.35353872 23.98930046 -24.90192703
v 24.51640631 23.99165384 -24.79296071
v 24.66371846 23.99244279 -24.66371846
v 24.79296071 23.99165384 -24.51640631
v 24.90192703 23.98930046 -24.35353872
v 25.05196999 23.98008710 -23.99247516
v 25.09048555 23.97338439 -23.80044216
v 24.12491158 24.49300906 -24.92956410
v 24.76158910 24.89112268 -24.21403171
v -90.29539273 22.82348307 -3.18486649
v -23.17895808 48.85712156 -13.53309030
v -23.16517502 48.86955600 13.55285539
v -21.34555757 48.86062368 -18.35750675
v -21.51158047 48.92192390 -17.42830811
v -19.10250374 48.90022741 -20.98661306
v -17.81169556 48.89378479 21.48129543
v 13.53133394 48.85900821 -23.17848138
v 13.55116137 48.87127238 23.16521115
v 19.32026440 48.91373981 -20.80029740
v 20.73669305 48.89547371 19.35967126
v 23.16306009 48.86173356 -11.85527963
v 23.21017825 48.77724045 -13.54882331
v -21.23736310 49.06710546 17.56903582
v -20.03004590 48.79798982 19.99587397
v 25.06213203 -0.91213203 25.60000000
v 25.01667107 -0.94944088 25.60000000
v 24.96480503 -0.97716386 25.60000000
v 24.90852710 -0.99423558 25.60000000
v 25.01667107 -0.94944088 -24.85000000
v 24.96480503 -0.97716386 -24.85000000
v 24.90852710 -0.99423558 -24.85000000
v 24.85000000 -0.97716386 -24.96480503
v 24.85000000 -0.99423558 -24.90852710
v 25.07028245 -0.90933773 -24.98768477
v 24.88683634 -0.99544233 -24.88683634
v 24.91067911 -0.95816270 -25.01653529
v -25.60000000 -0.91213203 -25.06213203
v -25.60000000 -0.94944088 -25.01667107
v -25.60000000 -0.97716386 -24.96480503
v -25.60000000 -0.99423558 -24.90852710
v -25.62198137 -0.99863446 -24.87314402
v -19.62748087 -0.99423558 94.32926355
v -19.67621899 -0.97716386 94.35740251
v -94.47031619 -0.89891415 19.79553303
v -94.35852710 -0.99423558 19.57679492
v -94.46667107 -0.94944088 19.57679492
v -94.51213203 -0.91213203 19.57679492
v -94.38592598 -0.98904801 19.58714451
v -94.35508234 -0.99500448 -19.57929494
v -94.41480503 -0.97716386 -19.57679492
v -94.46667107 -0.94944088 -19.57679492
v -94.51213203 -0.91213203 -19.57679492
v -94.32926355 -0.99423558 -19.62748087
v -94.35740251 -0.97716386 -19.67621899
v -94.40606602 -0.91213203 -19.76050665
v -94.41888949 -0.97252936 -19.65235074
v -94.34721361 -0.99544233 -19.59881099
v -94.52011195 -0.86550783 -19.72124895
v -90.43072828 -0.93834572 -22.02108893
v -90.40085361 -0.98536379 -21.93484818
v 19.71786627 -0.82561116 94.55390061
v 19.76050665 -0.91213203 94.40606602
v 19.72113630 -0.94944088 94.38333553
v 19.67621899 -0.97716386 94.35740251
v 19.62748087 -0.99423558 94.32926355
v 21.83873240 -0.99423558 90.49926355
v 21.88747052 -0.97716386 90.52740251
v 21.93238783 -0.94944088 90.55333553
v 21.97175818 -0.91213203 90.57606602
v 19.08223579 0.06169739 95.53555007
v 19.08223579 0.10507993 95.56711755
v 19.08223579 0.15529327 95.58601652
v -19.08223579 0.06169739 95.53555007
v -19.08223579 0.10507993 95.56711755
v -19.08223579 0.15529327 95.58601652
v -20.11158108 0.03519110 95.32802773
v -95.53555007 0.06169739 19.08223579
v -95.56711755 0.10507993 19.08223579
v -95.58601652 0.15529327 19.08223579
v -95.53555007 0.06169739 -19.08223579
v -95.56711755 0.10507993 -19.08223579
v -95.58601652 0.15529327 -19.08223579
v -94.56282403 0.06285142 -20.76701989
v -94.57851942 0.10695306 -20.79429504
v -94.58773531 0.15788256 -20.81031025
v -95.31876409 0.05459081 -20.13103822
v -91.27103007 0.06285142 -22.66127144
v -91.28672546 0.10695306 -22.68854659
v -91.29594136 0.15788256 -22.70456180
v -90.63643576 0.06595620 -22.98831905
v -89.18510134 0.01939156 -23.15817553
v 26.14099266 0.20581694 -24.64231459
v 26.14105612 0.20290878 -24.64231459
v 25.66908018 0.01099525 -25.67623114
v 26.12570939 0.13119288 -24.73831405
v 26.04665758 0.09224923 -25.13431204
v -25.39231459 0.20581694 -26.14099266
v -25.39231459 0.20290878 -26.14105612
v -25.48877018 0.15503364 -26.13278093
v -14.69305416 50.05945798 17.04781431
v -11.89000166 49.91459874 19.16264619
v 10.70694584 50.05945798 17.04781431
v 13.50999834 49.91459874 19.16264619
v -13.91764803 50.06538087 15.22169736
v 11.68347588 50.07525649 -18.24873824
v -13.71441401 50.07640090 -18.26728122
v -14.86189031 50.00540651 -16.68911063
v 21.88404040 -0.99407226 90.21406778
v 19.57679492 -0.99423558 94.35852710
v 19.57679492 -0.94944088 94.46667107
v 19.57679492 -0.91213203 94.51213203
v 19.58798957 -0.98802010 94.38881807
v 19.59881099 -0.99544233 94.34721361
v 19.64730567 -0.97368346 94.42041248
v -19.58321613 -0.99042334 94.37956154
v -19.57679492 -0.97716386 94.41480503
v -19.57679492 -0.94944088 94.46667107
v -19.68713902 -0.92809600 94.49664535
v -19.59881099 -0.99544233 94.34721361
v -11.86690970 48.85712156 -23.17895808
v -13.53643688 48.86340956 -23.16903737
v 13.51082020 48.62837088 -23.24373198
v 23.12268297 48.84686698 -13.63236626
v 23.17495630 48.86101550 13.52980345
v -13.53309030 48.85712156 23.17895808
v -11.84845456 48.87118505 23.16544977
f 69 75 74
f 73 75 69
f 69 68 70
f 53 55 52
f 102 248 103
f 89 250 90
f 353 250 89
f 252 250 3
f 246 248 102
f 55 53 214
f 125 78 89
f 89 51 125
f 125 51 126
f 354 103 248
f 89 80 354
f 354 353 89
f 3 250 354
f 250 353 354
f 239 242 255
f 67 51 89
f 126 51 67
f 355 90 250
f 250 252 76
f 241 355 76
f 76 355 250
f 114 86 98
f 75 73 299
f 73 341 299
f 84 98 85
f 98 86 85
f 338 2 3
f 46 252 3
f 3 2 46
f 91 64 255
f 94 251 113
f 336 334 251
f 244 246 102
f 247 246 244
f 243 245 244
f 215 36 138
f 215 138 130
f 89 78 79
f 79 80 89
f 81 80 103
f 103 354 81
f 81 354 80
f 333 244 245
f 249 334 333
f 249 333 256
f 256 333 245
f 118 209 88
f 88 256 118
f 118 256 245
f 255 64 240
f 240 239 255
f 242 239 238
f 327 329 267
f 267 329 27
f 239 240 228
f 69 70 71
f 31 258 267
f 267 27 31
f 235 236 14
f 235 234 241
f 241 252 235
f 235 252 236
f 90 355 65
f 66 330 126
f 126 67 66
f 269 327 267
f 43 44 242
f 252 46 43
f 43 46 44
f 77 252 241
f 241 76 77
f 77 76 252
f 97 114 98
f 99 302 109
f 300 299 341
f 110 111 107
f 242 44 45
f 44 46 45
f 255 242 45
f 45 46 255
f 356 46 2
f 2 254 356
f 255 46 356
f 356 254 255
f 95 94 160
f 358 334 249
f 249 119 358
f 119 120 358
f 41 336 251
f 251 94 41
f 127 125 126
f 126 324 127
f 127 324 323
f 102 243 121
f 121 244 102
f 243 244 121
f 309 138 36
f 88 215 93
f 215 130 93
f 221 214 53
f 53 312 222
f 222 221 53
f 220 221 222
f 214 221 54
f 54 221 220
f 88 209 54
f 54 215 88
f 244 333 340
f 247 244 340
f 257 256 88
f 249 256 257
f 88 119 257
f 257 119 249
f 117 245 243
f 117 118 245
f 243 208 117
f 209 118 117
f 117 208 209
f 237 236 242
f 242 238 237
f 231 327 14
f 14 236 231
f 236 237 231
f 26 27 329
f 227 228 240
f 64 63 227
f 227 240 64
f 227 326 24
f 329 228 227
f 69 71 72
f 72 73 69
f 263 269 267
f 267 258 259
f 341 260 259
f 261 341 73
f 261 260 341
f 232 65 355
f 323 324 50
f 242 236 42
f 42 43 242
f 236 252 42
f 252 43 42
f 58 175 167
f 166 167 59
f 167 175 59
f 98 95 59
f 160 94 112
f 112 94 113
f 113 251 112
f 112 120 119
f 112 358 120
f 163 59 95
f 151 167 166
f 82 95 98
f 94 95 82
f 82 98 84
f 84 83 82
f 114 97 105
f 97 99 105
f 109 114 105
f 105 99 109
f 301 300 341
f 341 259 301
f 49 111 110
f 109 302 49
f 49 110 109
f 258 31 49
f 302 301 49
f 49 259 258
f 49 301 259
f 49 32 62
f 28 34 49
f 110 107 115
f 86 114 115
f 115 87 86
f 115 107 87
f 108 49 62
f 325 227 63
f 326 227 325
f 251 334 359
f 334 358 359
f 359 112 251
f 358 112 359
f 282 68 69
f 319 316 291
f 291 316 288
f 288 316 292
f 323 50 292
f 292 50 324
f 292 324 270
f 314 319 313
f 314 195 319
f 197 208 47
f 47 208 243
f 102 197 47
f 47 243 102
f 209 208 205
f 198 199 209
f 209 205 198
f 138 309 139
f 61 144 119
f 61 119 88
f 88 93 61
f 311 222 312
f 225 226 217
f 79 124 123
f 122 79 78
f 122 124 79
f 78 125 122
f 125 127 122
f 128 127 323
f 128 122 127
f 124 122 128
f 1 333 337
f 337 5 1
f 333 5 337
f 339 246 247
f 247 340 339
f 248 246 339
f 339 354 248
f 3 354 339
f 339 338 3
f 1 2 339
f 2 338 339
f 339 333 1
f 339 340 333
f 229 228 329
f 229 238 239
f 239 228 229
f 230 237 238
f 230 231 237
f 238 229 230
f 230 229 329
f 329 327 230
f 327 231 230
f 30 49 31
f 328 227 24
f 328 26 329
f 329 227 328
f 264 72 268
f 268 263 264
f 269 263 268
f 262 263 267
f 267 259 262
f 15 16 234
f 15 235 14
f 234 235 15
f 14 327 15
f 327 269 23
f 23 15 327
f 16 15 23
f 17 16 23
f 233 355 241
f 233 232 355
f 241 234 233
f 234 16 233
f 233 16 17
f 17 232 233
f 19 65 18
f 65 232 18
f 18 232 17
f 17 23 18
f 270 324 9
f 9 269 270
f 96 97 98
f 96 99 97
f 303 344 294
f 119 144 48
f 48 112 119
f 162 163 95
f 59 163 164
f 357 83 84
f 357 82 83
f 84 85 357
f 357 254 2
f 336 41 253
f 82 357 253
f 253 41 94
f 94 82 253
f 109 110 106
f 110 115 106
f 106 114 109
f 106 115 114
f 87 107 116
f 116 108 87
f 49 108 116
f 116 107 111
f 111 49 116
f 32 49 33
f 33 49 34
f 317 316 319
f 278 282 69
f 281 282 278
f 313 319 285
f 319 291 285
f 293 273 70
f 196 315 52
f 196 314 315
f 195 314 196
f 201 200 56
f 56 200 199
f 199 198 56
f 56 198 197
f 56 197 102
f 102 103 56
f 319 195 194
f 192 191 319
f 207 208 197
f 207 205 208
f 197 198 207
f 307 309 306
f 307 142 309
f 309 142 141
f 131 93 130
f 131 61 93
f 131 130 138
f 138 139 131
f 151 61 137
f 277 226 225
f 225 224 277
f 36 226 277
f 277 310 280
f 280 279 277
f 277 309 36
f 277 279 281
f 281 276 277
f 216 217 226
f 216 36 215
f 216 226 36
f 215 54 216
f 54 217 216
f 220 222 223
f 223 311 310
f 222 311 223
f 310 277 223
f 223 277 224
f 218 217 54
f 225 217 218
f 218 224 225
f 54 211 212
f 212 211 201
f 210 54 209
f 210 211 54
f 104 56 103
f 103 80 104
f 80 79 104
f 79 123 104
f 28 49 35
f 274 72 71
f 274 71 70
f 70 273 274
f 273 293 272
f 265 272 269
f 22 23 12
f 22 18 23
f 126 330 331
f 331 6 126
f 12 23 13
f 13 23 269
f 269 9 13
f 8 324 126
f 8 9 324
f 98 169 168
f 168 96 98
f 168 169 38
f 177 304 303
f 303 294 177
f 177 294 178
f 345 342 346
f 152 144 160
f 160 112 159
f 112 48 159
f 159 152 160
f 159 48 144
f 144 152 159
f 166 59 165
f 59 164 165
f 92 85 86
f 92 357 85
f 86 87 92
f 87 108 92
f 92 108 62
f 92 62 64
f 64 91 92
f 254 357 92
f 255 254 92
f 92 91 255
f 336 253 4
f 4 253 357
f 4 357 2
f 335 336 4
f 99 96 40
f 302 99 40
f 302 40 295
f 295 40 38
f 319 191 190
f 190 317 319
f 318 317 190
f 190 100 318
f 190 191 182
f 289 285 291
f 289 291 288
f 288 292 289
f 292 293 289
f 52 55 189
f 189 196 52
f 183 104 182
f 56 104 183
f 182 191 183
f 191 192 183
f 183 192 319
f 319 194 193
f 206 198 205
f 205 207 206
f 206 207 198
f 275 276 281
f 281 278 275
f 275 278 69
f 143 308 57
f 57 137 143
f 143 307 308
f 142 307 143
f 309 141 140
f 144 61 145
f 61 146 145
f 147 146 61
f 60 137 57
f 151 137 60
f 60 58 167
f 57 58 60
f 167 151 60
f 135 141 142
f 351 277 276
f 309 277 351
f 306 309 351
f 351 343 344
f 303 306 351
f 351 344 303
f 219 223 224
f 224 218 219
f 220 223 219
f 219 54 220
f 219 218 54
f 214 54 213
f 54 212 213
f 182 104 181
f 181 104 123
f 123 100 181
f 181 190 182
f 100 190 181
f 101 100 123
f 49 30 29
f 29 35 49
f 28 35 29
f 266 274 273
f 266 268 72
f 72 274 266
f 269 268 266
f 266 265 269
f 270 269 271
f 269 272 271
f 271 292 270
f 271 293 292
f 271 272 293
f 18 22 10
f 175 58 176
f 176 58 305
f 305 304 176
f 304 177 176
f 174 59 175
f 175 176 174
f 174 176 177
f 178 172 173
f 173 177 178
f 173 174 177
f 173 172 59
f 59 174 173
f 38 169 37
f 37 180 294
f 37 295 38
f 294 295 37
f 178 294 179
f 294 180 179
f 179 172 178
f 170 37 169
f 180 37 170
f 170 169 98
f 98 59 170
f 39 168 38
f 38 40 39
f 96 168 39
f 39 40 96
f 285 289 284
f 286 70 68
f 286 293 70
f 195 196 188
f 196 189 188
f 188 189 56
f 204 203 56
f 204 189 55
f 56 189 204
f 55 214 204
f 214 213 204
f 204 213 203
f 201 56 202
f 56 203 202
f 202 212 201
f 185 56 184
f 56 183 184
f 319 185 184
f 184 183 319
f 69 74 352
f 352 275 69
f 352 346 342
f 161 95 160
f 161 162 95
f 136 135 142
f 142 143 136
f 136 143 137
f 136 137 61
f 61 135 136
f 134 140 141
f 141 135 134
f 134 135 61
f 343 351 350
f 129 101 123
f 129 123 124
f 124 128 129
f 129 128 323
f 25 328 24
f 26 328 25
f 18 10 21
f 11 22 12
f 11 10 22
f 6 7 332
f 126 6 332
f 332 7 8
f 332 8 126
f 171 179 180
f 180 170 171
f 172 179 171
f 59 172 171
f 171 170 59
f 298 346 75
f 75 299 298
f 279 284 283
f 281 279 283
f 283 284 289
f 283 282 281
f 283 289 282
f 287 289 293
f 293 286 287
f 287 286 289
f 68 282 290
f 290 286 68
f 282 289 290
f 289 286 290
f 186 193 194
f 186 56 185
f 186 185 319
f 319 193 186
f 348 351 276
f 276 275 348
f 275 352 348
f 348 342 345
f 348 352 342
f 144 145 158
f 148 165 164
f 148 149 165
f 148 147 61
f 61 149 148
f 150 151 166
f 150 61 151
f 150 149 61
f 309 140 133
f 140 134 133
f 133 134 61
f 347 297 296
f 347 298 297
f 344 343 347
f 347 294 344
f 296 295 347
f 347 295 294
f 345 346 347
f 346 298 347
f 320 321 323
f 323 292 320
f 320 292 316
f 322 129 323
f 323 321 322
f 101 129 322
f 322 321 317
f 322 317 318
f 19 18 20
f 18 21 20
f 187 186 194
f 187 194 195
f 195 188 187
f 187 188 56
f 56 186 187
f 349 350 351
f 351 348 349
f 343 350 349
f 349 347 343
f 349 348 345
f 345 347 349
f 160 144 153
f 145 161 156
f 154 161 160
f 154 158 161
f 160 153 154
f 144 158 154
f 154 153 144
f 309 133 132
f 132 139 309
f 132 131 139
f 61 131 132
f 132 133 61
f 157 158 145
f 145 156 157
f 157 156 161
f 161 158 155
f 155 157 161
f 158 157 155
f 64 62 32
f 32 63 64
f 334 336 333
f 333 336 335
f 65 67 89
f 89 90 65
f 67 65 66
f 66 65 19
f 34 28 24
f 24 326 34
f 261 72 264
f 73 72 261
f 264 263 261
f 261 263 260
f 315 312 53
f 315 53 52
f 312 315 311
f 315 314 311
f 313 310 311
f 311 314 313
f 30 31 27
f 27 26 30
f 260 263 262
f 262 259 260
f 63 32 33
f 33 325 63
f 33 34 326
f 326 325 33
f 285 310 313
f 280 310 285
f 308 58 57
f 305 58 308
f 307 306 303
f 303 304 307
f 305 308 307
f 307 304 305
f 199 200 210
f 209 199 210
f 210 200 201
f 201 211 210
f 8 13 9
f 12 13 8
f 1 5 4
f 4 2 1
f 4 333 335
f 4 5 333
f 295 296 301
f 295 301 302
f 162 146 147
f 163 162 147
f 272 265 266
f 273 272 266
f 301 296 297
f 300 301 297
f 280 285 284
f 284 279 280
f 203 213 202
f 202 213 212
f 75 346 352
f 352 74 75
f 161 146 162
f 161 145 146
f 24 28 25
f 28 29 25
f 25 30 26
f 25 29 30
f 21 10 6
f 6 331 21
f 12 8 11
f 8 7 11
f 6 10 11
f 11 7 6
f 300 297 298
f 299 300 298
f 163 147 148
f 148 164 163
f 165 149 150
f 166 165 150
f 317 321 320
f 316 317 320
f 100 101 322
f 318 100 322
f 20 66 19
f 330 66 20
f 20 21 331
f 20 331 330

