# https://github.com/mikedh/trimesh
v 25.40000000 -23.40000000 -593.89259779
v 25.40000000 -23.40000000 593.89259779
v 25.40000000 37.60000000 593.89259779
v 25.40000000 37.60000000 -593.89259779
v -23.93275511 25.32773753 593.89259779
v -24.17837463 25.24231727 593.89259779
v -24.41083464 25.12575008 593.89259779
v -24.62620508 24.98000668 593.89259779
v -24.82084482 24.80755106 593.89259779
v -24.99146320 24.61129884 593.89259779
v -25.13517568 24.39456793 593.89259779
v -25.24955260 24.16102246 593.89259779
v -25.33266026 23.91461084 593.89259779
v -25.38309361 23.65949902 593.89259779
v -25.40000000 23.40000000 593.89259779
v -25.40000000 -23.40000000 593.89259779
v -25.38288972 -23.66105238 593.89259779
v -25.33185165 -23.91763809 593.89259779
v -25.24775907 -24.16536686 593.89259779
v -25.13205081 -24.40000000 593.89259779
v -24.98670668 -24.61752286 593.89259779
v -24.81421356 -24.81421356 593.89259779
v -24.61752286 -24.98670668 593.89259779
v -24.40000000 -25.13205081 593.89259779
v -24.16536686 -25.24775907 593.89259779
v -23.91763809 -25.33185165 593.89259779
v -23.66105238 -25.38288972 593.89259779
v -23.40000000 -25.40000000 593.89259779
v 23.40000000 -25.40000000 593.89259779
v 23.66105238 -25.38288972 593.89259779
v 23.91763809 -25.33185165 593.89259779
v 24.16536686 -25.24775907 593.89259779
v 24.40000000 -25.13205081 593.89259779
v 24.61752286 -24.98670668 593.89259779
v 24.81421356 -24.81421356 593.89259779
v 24.98670668 -24.61752286 593.89259779
v 25.13205081 -24.40000000 593.89259779
v 25.24775907 -24.16536686 593.89259779
v 25.33185165 -23.91763809 593.89259779
v 25.38288972 -23.66105238 593.89259779
v 25.39587917 37.66406129 593.89259779
v 25.38358460 37.72706664 593.89259779
v 25.36331896 37.78797750 593.89259779
v 25.33541628 37.84578988 593.89259779
v 25.30033649 37.89955082 593.89259779
v 25.25865783 37.94837417 593.89259779
v 25.21106730 37.99145515 593.89259779
v 25.15834934 38.02808366 593.89259779
v 25.10137294 38.05765592 593.89259779
v 25.04107723 38.07968450 593.89259779
v 24.97845611 38.09380628 593.89259779
v 24.91454176 38.09978849 593.89259779
v 24.84840515 38.09344807 593.89259779
v 24.78369308 38.07839483 593.89259779
v 18.92425824 38.09978849 -593.89259779
v 18.79772277 38.07968450 -593.89259779
v 18.86034389 38.09380628 -593.89259779
v -25.40000000 23.40000000 -593.89259779
v -25.38288972 23.66105238 -593.89259779
v -25.33185165 23.91763809 -593.89259779
v -25.24775907 24.16536686 -593.89259779
v -25.13205081 24.40000000 -593.89259779
v -24.98670668 24.61752286 -593.89259779
v -24.81421356 24.81421356 -593.89259779
v -24.61752286 24.98670668 -593.89259779
v -24.40000000 25.13205081 -593.89259779
v -24.16536686 25.24775907 -593.89259779
v -23.91763809 25.33185165 -593.89259779
v -25.40000000 -23.40000000 -593.89259779
v -23.40000000 -25.40000000 -593.89259779
v -23.66105238 -25.38288972 -593.89259779
v -23.91763809 -25.33185165 -593.89259779
v -24.16536686 -25.24775907 -593.89259779
v -24.40000000 -25.13205081 -593.89259779
v -24.61752286 -24.98670668 -593.89259779
v -24.81421356 -24.81421356 -593.89259779
v -24.98670668 -24.61752286 -593.89259779
v -25.13205081 -24.40000000 -593.89259779
v -25.24775907 -24.16536686 -593.89259779
v -25.33185165 -23.91763809 -593.89259779
v -25.38288972 -23.66105238 -593.89259779
v 23.40000000 -25.40000000 -593.89259779
v 25.38288972 -23.66105238 -593.89259779
v 25.33185165 -23.91763809 -593.89259779
v 25.24775907 -24.16536686 -593.89259779
v 25.13205081 -24.40000000 -593.89259779
v 24.98670668 -24.61752286 -593.89259779
v 24.81421356 -24.81421356 -593.89259779
v 24.61752286 -24.98670668 -593.89259779
v 24.40000000 -25.13205081 -593.89259779
v 24.16536686 -25.24775907 -593.89259779
v 23.91763809 -25.33185165 -593.89259779
v 23.66105238 -25.38288972 -593.89259779
v 24.91454176 38.09978849 -593.89259779
v 24.97845611 38.09380628 -593.89259779
v 25.04107723 38.07968450 -593.89259779
v 25.10137294 38.05765592 -593.89259779
v 25.15834934 38.02808366 -593.89259779
v 25.21106730 37.99145515 -593.89259779
v 25.25865783 37.94837417 -593.89259779
v 25.30033649 37.89955082 -593.89259779
v 25.33541628 37.84578988 -593.89259779
v 25.36331896 37.78797750 -593.89259779
v 25.38358460 37.72706664 -593.89259779
v 25.39587917 37.66406129 -593.89259779
v 18.91880000 38.09959984 570.49259779
v 18.84969206 38.09199571 570.49259779
v 18.78230702 38.07487887 570.49259779
v 18.92425824 38.09978849 570.49260110
f 5 108 56
f 64 63 9
f 108 5 54
f 68 5 56
f 58 15 14
f 11 62 61
f 8 7 65
f 65 64 8
f 8 64 9
f 5 68 67
f 58 14 59
f 59 14 13
f 13 60 59
f 63 62 10
f 62 11 10
f 9 63 10
f 12 11 61
f 61 60 12
f 12 60 13
f 52 109 106
f 106 53 52
f 106 109 55
f 55 57 106
f 5 67 6
f 65 7 66
f 7 6 66
f 66 6 67
f 53 106 107
f 54 53 107
f 108 54 107
f 107 106 57
f 107 57 56
f 56 108 107
f 1 3 2
f 1 4 3
f 69 15 58
f 16 15 69
f 94 55 109
f 52 94 109
f 51 95 94
f 51 94 52
f 102 44 43
f 43 103 102
f 29 28 82
f 28 70 82
f 16 69 17
f 69 81 17
f 27 70 28
f 27 71 70
f 49 48 98
f 98 97 49
f 2 40 83
f 83 1 2
f 83 40 39
f 39 84 83
f 46 45 101
f 100 46 101
f 101 45 44
f 44 102 101
f 42 103 43
f 42 104 103
f 3 4 105
f 105 41 3
f 105 42 41
f 104 42 105
f 18 17 80
f 80 17 81
f 80 19 18
f 79 19 80
f 77 22 21
f 76 22 77
f 99 47 46
f 99 46 100
f 48 47 99
f 99 98 48
f 95 51 96
f 51 50 96
f 49 97 96
f 96 50 49
f 90 33 32
f 90 32 91
f 34 33 90
f 90 89 34
f 38 84 39
f 38 85 84
f 86 85 38
f 38 37 86
f 36 87 86
f 86 37 36
f 29 82 93
f 93 30 29
f 24 74 73
f 24 73 25
f 23 22 75
f 75 22 76
f 75 24 23
f 74 24 75
f 71 27 72
f 27 26 72
f 72 26 25
f 25 73 72
f 2 3 35
f 35 28 29
f 35 40 2
f 35 20 21
f 35 14 15
f 46 47 35
f 52 53 35
f 35 51 52
f 39 40 35
f 29 30 35
f 3 41 35
f 35 33 34
f 35 15 16
f 35 17 18
f 21 22 35
f 35 48 49
f 49 50 35
f 35 8 9
f 43 44 35
f 35 45 46
f 5 6 35
f 18 19 35
f 35 47 48
f 25 26 35
f 35 54 5
f 35 12 13
f 44 45 35
f 35 42 43
f 35 38 39
f 13 14 35
f 16 17 35
f 35 27 28
f 35 22 23
f 9 10 35
f 35 50 51
f 35 53 54
f 7 8 35
f 41 42 35
f 32 33 35
f 35 24 25
f 35 31 32
f 35 26 27
f 35 10 11
f 11 12 35
f 35 6 7
f 37 38 35
f 35 36 37
f 30 31 35
f 19 20 35
f 23 24 35
f 34 89 35
f 89 88 35
f 35 88 87
f 87 36 35
f 91 32 92
f 32 31 92
f 92 31 30
f 30 93 92
f 56 57 78
f 78 69 58
f 100 101 78
f 65 66 78
f 76 77 78
f 4 1 78
f 78 82 70
f 78 80 81
f 61 62 78
f 95 96 78
f 86 87 78
f 78 64 65
f 78 55 94
f 94 95 78
f 71 72 78
f 1 83 78
f 78 81 69
f 70 71 78
f 63 64 78
f 78 62 63
f 78 99 100
f 78 68 56
f 78 105 4
f 78 102 103
f 103 104 78
f 78 85 86
f 78 88 89
f 78 60 61
f 58 59 78
f 78 75 76
f 78 57 55
f 97 98 78
f 78 67 68
f 78 83 84
f 78 101 102
f 104 105 78
f 84 85 78
f 78 90 91
f 78 59 60
f 79 80 78
f 91 92 78
f 73 74 78
f 98 99 78
f 78 96 97
f 78 66 67
f 89 90 78
f 87 88 78
f 78 93 82
f 74 75 78
f 78 72 73
f 78 92 93
f 78 19 79
f 78 20 19
f 78 77 21
f 21 20 78

