# https://github.com/mikedh/trimesh
v 6.12837329 -0.25130647 -0.66066680
v -3.51132825 5.55966292 -5.90557614
v 1.90247796 -6.38355384 -9.44856122
v -4.94452724 -4.43206933 -10.65137489
v -6.01726790 -2.12514678 -11.01669906
v -0.01100924 6.60007217 -13.03516210
v -6.42379943 -1.20858564 -17.77696809
v -2.90464844 5.82887313 -19.11350340
v 0.22343834 6.53107272 -19.64417660
v -4.89954421 -4.59557492 -23.71154669
v -6.24378170 -1.13236170 -24.31383466
v -6.35869046 1.99985978 -24.84185457
v -4.46355520 -4.66124626 -30.23122122
v 2.39278621 -6.21529953 -35.61837237
v 4.26690172 -5.15905164 -40.79620554
v 4.92723959 -3.99836041 -40.63171678
v 6.16992710 0.12047776 -40.78775308
v -4.36457301 -5.10630528 -2.90268793
v -1.68915443 6.51530134 -5.19530575
v 3.23649036 5.85768877 -5.98137643
v 6.20314813 2.60696919 -6.70059781
v -4.65615350 -4.86291689 -9.55565092
v 6.57709303 -0.25056925 -13.67903924
v 2.32019361 -6.22446405 -14.90057883
v -0.28877578 -6.25709628 -15.38462987
v -3.66782478 -5.64125345 -15.90220978
v -1.52606175 6.40402979 -18.31178323
v 5.92159739 -2.30469887 -20.60466783
v 4.87881284 -4.54072013 -20.97797427
v 2.47363279 -6.17852247 -21.45430340
v -5.60940550 -3.86261044 -22.91216809
v -5.85623644 -2.63842310 -23.04665595
v -6.45605587 1.94701853 -23.81513644
v -2.75846805 5.87477124 -24.66340818
v 4.83416380 4.49579015 -25.97001078
v -1.87374006 -6.05878294 -28.73286523
v -4.19453178 -4.91715979 -29.11274932
v 2.14384210 6.06061466 -32.00985643
v 4.79110194 4.63759783 -32.52324984
v 2.32721726 -6.21523952 -34.58116815
v -5.81775446 3.39731978 -37.18370309
v -1.39372782 6.36397466 -38.00343277
v 6.35298514 0.07039513 -1.52910998
v 0.65492447 -6.23907469 -2.09915253
v 1.26297916 -5.92860313 -2.66004481
v -6.34268513 -1.68563695 -3.51515474
v -6.39431079 1.78184214 -4.07819986
v -5.68666465 2.26066433 -4.37217179
v -4.35184396 5.04827061 -4.70506553
v 3.74935550 5.12467722 -7.12131811
v 6.06100229 -1.70290437 -7.43383965
v -2.40418823 -5.90496783 -9.14198191
v -5.67011991 -3.30016276 -9.80541137
v -2.94948224 -5.27516795 -10.02209333
v -4.57826940 -3.92979589 -10.38292986
v -6.38405657 -0.26294907 -10.34265193
v -6.20331031 0.71583124 -11.44845298
v -4.70426524 4.42268164 -11.12736833
v -5.17172792 3.69072995 -12.02601120
v 2.32835130 6.26535277 -12.38034558
v 5.55494907 3.47265602 -13.05159863
v 6.02810921 0.10045761 -14.38421223
v 5.93193879 -2.19590201 -15.00957660
v -5.49772419 -2.92187972 -16.50243051
v -6.36673963 0.22377572 -16.98325679
v 2.02985582 5.77919537 -19.80010075
v 4.88851868 3.56797529 -20.31301575
v 6.41014869 1.69706857 -20.96564384
v 6.17942930 0.20258725 -21.06987112
v 6.04528749 -1.88625282 -21.51182122
v 2.49633735 -5.58572323 -21.58002523
v -5.32825689 -3.15414198 -23.84267131
v -5.79402990 2.38074201 -23.96187234
v 0.29314282 6.14370872 -25.29848565
v 6.25445013 -0.85649359 -26.93655752
v 5.21950557 -3.70670822 -27.42626510
v 1.60023430 -6.17601893 -28.15774373
v 1.93091508 -6.06264690 -29.10611309
v -2.15362451 -5.93853905 -29.76439311
v -4.32066599 -4.35931213 -29.35970193
v -5.08517542 -3.35038414 -29.64507253
v -5.90447042 -1.60045159 -29.96249597
v -6.43748572 -0.64379672 -30.99461192
v -4.43888344 4.54541584 -30.89475466
v -5.19347926 3.46936923 -31.58862940
v -2.38903768 5.87371699 -31.30621834
v -2.01248901 5.91176626 -32.30626474
v 4.90206531 3.78298174 -32.73329113
v 4.83535116 3.86431481 -33.51896615
v 6.57845574 -1.37895952 -34.55248142
v 3.75358724 -5.11827153 -34.31834537
v -5.92137193 -2.29478509 -36.22502098
v -6.08705838 -2.22542108 -37.30833562
v 3.78049000 5.10569992 -38.92263685
v 5.96119628 3.00996023 -39.38093296
v 6.28571715 0.72603542 -39.77690640
v 6.17958743 -2.34703390 -0.89056583
v 5.87545571 -2.34984960 -1.92783642
v 5.22835965 -3.25552118 -1.99822457
v 3.29648748 -5.57383535 -1.61531683
v 1.10043741 -6.29232076 -2.99640608
v -1.48359401 -5.82447781 -2.81833417
v -3.69880848 -4.70270127 -3.40495180
v -5.29589305 -2.89352978 -3.94702228
v -5.13928092 -3.44531266 -4.09605887
v -6.40641957 -0.86359608 -4.71956085
v -3.54885679 5.08434359 -4.90888833
v -3.51081834 4.98736752 -5.58736770
v -5.51320074 2.85108117 -5.21985129
v -5.01754512 4.11449740 -5.58183074
v -1.08831985 5.98307626 -6.03590882
v 0.27577420 5.99277391 -5.88268503
v 2.05212788 5.66281788 -6.20135734
v 2.80275934 5.64167551 -5.94484971
v 2.51573337 5.62724744 -6.82597779
v 5.95572331 1.87574173 -7.70979419
v 6.58759864 1.08676140 -7.94638571
v 5.39083803 -2.61892145 -8.05204999
v 4.50439983 -4.28236873 -7.97700826
v 3.97814923 -5.37123444 -8.05942818
v 2.53176726 -5.46737170 -8.56394992
v 3.87006904 -4.57474021 -8.61374538
v 0.67916228 -5.94167427 -9.11472577
v -1.06200873 -5.93929969 -9.26366562
v -5.24070704 -3.20748260 -9.95638520
v -5.88897210 1.70690848 -10.84022282
v -5.88658210 3.12294285 -10.86946000
v -4.58914162 3.91824551 -11.44975027
v -5.70284944 2.32587414 -11.71431109
v -2.52251127 5.86197167 -11.58961571
v -4.09819565 4.54456750 -12.11231196
v -0.90596351 6.08169037 -12.75943075
v 6.05262533 1.02640018 -14.36852030
v 6.03759240 -2.64464051 -14.06724722
v 3.90272688 -4.99575075 -14.61462363
v 4.71478990 -3.80631105 -14.60123703
v 2.34685372 -5.54948371 -15.48836095
v 4.88390634 -4.08026466 -15.37681377
v 0.95974398 -6.20291687 -16.09521105
v -1.96411483 -5.66956215 -16.04712555
v -2.01600415 -6.00409748 -15.63665256
v -3.83963371 -4.74548891 -16.17437933
v -5.96035167 0.86859666 -17.44957733
v -5.60870669 3.44178161 -17.49041865
v -4.48944894 3.99244316 -18.04643656
v -2.53829470 5.49157834 -18.89525412
v -0.87626734 6.07890583 -18.57026195
v -1.14577528 5.89050380 -19.01760880
v 1.43534284 5.83979468 -19.19615528
v 3.47007854 4.92858252 -19.47499485
v 3.50883017 5.00972518 -20.07165234
v 4.76143638 3.85214641 -19.66437593
v 5.41522481 3.73551429 -19.56765167
v 6.19421710 1.85759433 -19.87841513
v 5.63345923 2.15300909 -20.11649297
v 6.43784527 -0.57231932 -20.25987551
v 5.92387252 1.47532578 -20.76245219
v 3.89641958 -4.69650940 -21.29954556
v 5.09129210 -3.53718769 -21.80763735
v 3.05436235 -5.14782769 -21.91474212
v 3.95781788 -4.88146341 -22.10638756
v 1.97372468 -5.69902804 -22.26004579
v 0.94238155 -6.07961467 -21.81557772
v -0.03056148 -6.66828833 -21.84101054
v 0.15079495 -6.01390974 -22.48238566
v -0.18204471 -6.29075519 -22.85871832
v -3.47543245 -5.34530927 -22.47155747
v -3.50565254 -4.87383052 -22.87401379
v -6.21122570 0.19312263 -23.57336332
v -5.99449631 0.43144718 -24.21580435
v -6.05964064 1.63323138 -24.69659791
v -5.55791018 2.47796983 -24.21732027
v -4.64959497 3.90955850 -24.99969087
v -3.49426554 5.00249676 -24.66988019
v -4.73187287 4.36549413 -25.30940021
v -3.02832020 5.35391027 -25.49615903
v -1.25106782 5.97242884 -25.10307114
v -0.99930688 5.95858672 -25.58652400
v -1.07368646 6.17683971 -25.91027612
v 4.61840305 3.88520062 -26.32162509
v 3.65448556 5.16730320 -26.76401377
v 6.65686767 0.58459001 -26.66881026
v 5.61426209 2.42903006 -27.18900045
v 5.94192524 -0.93419501 -27.31729614
v 1.97589232 -5.61887686 -28.57051175
v -1.06972013 -5.91210075 -29.26355612
v -3.29759164 -5.01523664 -29.39923437
v -6.28869469 -1.92833700 -29.72460206
v -3.47230311 5.02018310 -31.89365975
v -1.53972246 5.83194315 -32.10340610
v 1.19151633 5.93139842 -32.23784302
v 3.46472762 5.04324637 -32.46543171
v 2.79861675 5.70712648 -33.14456950
v 4.55983174 3.93208587 -32.99597815
v 5.67053067 2.29084693 -33.09895697
v 6.15185239 0.10211281 -33.48341036
v 6.00849549 -0.12806598 -33.99131535
v 6.52073989 -1.49074375 -33.56256646
v 5.99565898 1.34971088 -33.98104057
v 6.11867811 -1.49432289 -34.53678318
v 3.34491381 -5.04249187 -35.13164017
v 0.06588588 -6.00952119 -35.32512184
v -1.35991643 -5.85540742 -35.57578788
v -3.39192562 -4.95757916 -36.25483338
v -3.82590743 -4.72616237 -35.91255005
v -6.07168871 -1.19837940 -36.52669883
v -6.06335940 0.14733855 -36.90867743
v -6.54983718 1.13550160 -36.77293542
v -6.09399550 -0.82185938 -37.37427499
v -3.65860571 4.90608380 -37.77863338
v -4.15394721 5.06059941 -37.51872039
v 0.15295616 6.03238924 -38.57996968
v 0.90961665 6.34461932 -39.40636232
v 6.02124331 -0.03880908 -40.22814851
v 6.31298505 -1.38329497 -40.07254065
v 5.88307568 -1.15280505 -40.47247517
v 5.88880192 -1.22007821 -1.41489126
v 5.53523524 -2.41204828 -1.28589952
v 4.50089013 -3.91821026 -1.77779699
v 3.54215539 -5.03010750 -2.44103818
v 3.01870640 -5.24438934 -1.88971445
v 0.76850708 -5.96840093 -2.40600298
v -1.02646577 -6.04913152 -3.25086164
v -4.99155390 -3.60606190 -3.29033680
v -5.95329684 -0.87915393 -4.31995225
v -5.83195305 -2.05649110 -3.56796187
v -3.00798477 5.21631205 -5.27544278
v -1.28250736 6.01150364 -5.37476116
v 1.02067172 6.05017091 -6.52959165
v 3.87218273 4.72559997 -6.33517022
v 3.89690655 4.57132042 -6.84703621
v 5.39499037 2.82528299 -6.84125949
v 4.92123872 3.68927612 -7.31214923
v 6.15233973 0.76916125 -7.01445950
v 5.74584001 1.83312255 -7.41816079
v 5.97655274 -0.72180441 -7.53610538
v 6.10675449 0.08647079 -7.91688536
v 5.95682804 -1.77546273 -8.32255866
v -0.74698286 -6.10627765 -9.75618177
v -3.40201258 -5.14704419 -9.47751309
v -5.37712323 -2.66564674 -10.53280573
v -5.91971260 -0.83917226 -10.78494112
v -5.96719381 0.76621897 -11.14449371
v -5.19066801 3.04273257 -11.57377869
v -2.90639268 5.26792752 -12.14118971
v -3.00520764 5.32284350 -11.66573534
v -0.72905620 5.98653309 -12.24624016
v 1.09178090 5.91069283 -12.54132753
v 0.47469606 6.12934564 -12.98261384
v 2.55878069 5.48182955 -12.68268549
v 4.31076923 4.24789300 -13.57792028
v 5.34618323 2.82179112 -13.42129092
v 6.12180503 0.57645974 -13.69931132
v 5.63883437 -2.15919603 -14.68330079
v 2.83940977 -5.42564441 -15.00437388
v 3.05084130 -5.35321801 -15.64222943
v -0.66703206 -5.99011486 -16.08405066
v -2.98893972 -5.26746460 -16.60880998
v -5.85375874 -1.42288287 -17.11613686
v -5.53001294 2.44371244 -17.62951570
v -4.39662712 4.18850138 -18.46849391
v 1.50741135 6.01332092 -18.93744583
v 5.64159925 -1.97937529 -21.11143187
v 4.25754679 -4.26317389 -21.69270821
v -1.46168870 -5.94685682 -22.96762436
v -2.00107817 -5.65977694 -22.56844429
v -3.22704967 -5.24800403 -23.30815009
v -5.32804490 -2.79289142 -23.35519899
v -4.69224931 -3.76626202 -23.44321229
v -5.07784538 -3.49612953 -23.00214568
v -5.82419224 -1.28386890 -23.81362384
v -5.58621669 2.20834489 -24.52161929
v -2.54914777 5.45101801 -24.92391859
v 1.07163055 5.96160435 -26.11193329
v 2.24307881 5.70945850 -25.68743305
v 3.09241911 5.13985769 -26.19805921
v 4.07734098 4.59975295 -26.74193197
v 5.53728225 2.61304945 -26.45141460
v 5.94540092 1.39608693 -26.73006055
v 6.03465077 -0.04023318 -27.45574825
v 4.57857554 -3.93360722 -28.18716250
v 5.21640534 -3.13751291 -27.56544608
v 3.64178180 -4.86792088 -27.94038505
v 0.72403168 -5.96077375 -28.90710311
v -0.02450520 -6.11903754 -28.60061759
v -2.56052558 -5.38893649 -29.42359139
v -5.85937348 -1.32160814 -30.47780972
v -6.13152175 0.58150599 -31.04264039
v -6.00111578 0.55118892 -30.52725709
v -6.27013389 0.78000663 -30.20476668
v -5.57278972 2.60389360 -30.63335990
v -4.77505778 3.62050615 -31.23638509
v -2.93105097 5.26997138 -31.54289864
v -0.88344094 5.96061014 -31.86734446
v 0.11596202 6.15680632 -32.61420277
v 2.48725949 5.52372035 -32.81379928
v 5.62015772 2.16348874 -33.55117637
v 5.76150802 -1.80380408 -34.30442342
v 4.01875929 -4.56560125 -34.51997819
v 4.70811940 -3.98135339 -34.96636830
v -0.02097275 -6.16976685 -35.88382246
v -1.62986445 -5.90202482 -36.09898105
v -4.02571895 -4.74243293 -36.61084838
v -5.45640442 -2.54517008 -36.81935196
v -5.92782549 1.00525603 -37.45498198
v -5.48998070 2.47541823 -37.39955139
v -4.64036630 3.79687627 -37.67416322
v -4.72585314 3.92118621 -38.23546842
v -1.83113219 5.75203871 -38.19263190
v 2.40588226 5.58677418 -38.93449841
v 5.48045954 2.49926711 -40.10780264
v 5.40133415 -3.29652590 -1.11811214
v -2.02039586 -6.02808908 -2.52205715
v -2.97201275 -5.27457278 -2.94654505
v -3.00088577 -5.39246556 -3.59498277
v -6.14485570 0.94369074 -4.02395473
v -6.02333395 0.73968309 -4.75591481
v -5.31722102 2.81086267 -4.92458130
v -4.84749642 3.79083952 -4.62321597
v 5.19015009 3.59395304 -6.49186205
v 4.69968231 -3.97023111 -8.73134861
v 1.56376070 -5.96296426 -9.37161911
v -0.03739338 -6.34273941 -8.75259771
v -5.84976600 -1.38908754 -10.46188792
v -2.59333077 5.76046035 -12.55491309
v 0.37504606 6.32448913 -12.10032453
v 4.42790532 4.24929257 -13.03088137
v 2.68763638 5.56737698 -13.40598128
v 5.52134059 2.44151466 -13.98822144
v 5.72107669 -2.19637794 -14.18917920
v 4.38947730 -4.11155422 -15.10840636
v 0.61675376 -5.93831185 -15.66377389
v -1.19139655 -6.16218515 -16.43734389
v -4.88003549 -3.42457087 -16.79063641
v -5.20726944 -3.47039341 -17.25118007
v -6.02914423 -1.04606761 -17.61272744
v -6.13395605 0.53438676 -17.93088163
v -5.66269874 2.43843268 -18.27630349
v -4.36293357 4.60068781 -17.78996056
v -5.07817558 3.82874855 -18.61332754
v -3.05376182 5.29846519 -18.21170648
v 0.76130488 5.97203075 -19.33818368
v 0.05089782 6.12961612 -19.44424670
v 1.96388940 6.23413050 -18.85944556
v 6.02709217 0.03704824 -20.56786476
v 5.05121513 -3.43911061 -21.00862366
v -0.52848514 -6.10533616 -22.13056371
v -4.58179277 4.03273560 -24.42334313
v 6.35975794 0.05522993 -27.76152043
v 4.15191548 -4.73944187 -28.62833074
v 3.06071501 -5.29495954 -28.71653195
v -4.39511663 -4.16341021 -29.99471331
v -5.46401325 -2.61668764 -30.40476601
v -5.67079062 1.96694446 -31.06109666
v -0.00549928 6.46102178 -31.64830972
v 5.57068176 -2.53564381 -33.97107704
v 5.41340008 -3.42453066 -33.93370999
v 1.97205626 -5.91902784 -34.69197434
v 1.90127444 -5.84265557 -35.54176752
v -2.44684181 -5.64150976 -35.50944614
v -5.07679139 -3.38617097 -36.17656356
v -6.24056723 0.89265602 -37.74950834
v -5.54665115 3.04597840 -37.15103708
v -5.58480336 2.49435096 -37.91361354
v -3.27309970 5.08829411 -38.41501232
v -1.72553034 5.96939413 -38.92626365
v 0.25950806 6.07004796 -39.09995597
v 1.51206378 6.16389641 -38.50907301
v 2.39074014 5.52693486 -39.34989023
v 3.73593805 5.02100094 -39.87523893
v 4.06036375 4.41172272 -39.57300181
v 4.72374141 3.86672812 -39.34252071
v 5.75382781 2.12362760 -39.69470353
v 5.95349723 1.16038184 -40.51539706
v 0.96880725 6.25099664 -5.63175565
v 1.83412031 -5.73344560 -35.04498258
v 5.62388248 -2.28142054 -27.95656337
v 6.02693520 -0.02114593 -0.21711044
v 5.77964011 -1.61189607 -0.00156696
v -3.78855064 -4.90876302 -0.00324337
v -6.70150199 -0.10131316 -0.01911697
v 5.44988045 3.90013182 -0.44354101
v -4.74576720 -4.22311211 -0.88216442
v 6.32438977 -0.00011957 -0.49542781
v 5.87689973 -1.83427576 -0.42173120
v 4.83775670 -3.96892087 -0.57503350
v 2.87587120 -5.62130931 -0.66353738
v -0.86103471 -6.38583063 -0.79002946
v -1.67837729 -5.79257542 -0.08073704
v -5.92102275 -1.59682409 -0.10465191
v -6.26121014 -1.24907563 -0.98905699
v -5.13181604 3.51817953 -0.98649716
v -2.81979699 5.46735824 -0.31878282
v -0.46643666 6.08185348 -1.08380172
v 0.77953766 5.97438862 -1.02488056
v 0.66100807 6.10034428 -0.45769488
v 2.11227662 6.28886161 -0.31522493
v 4.58953642 4.25306778 -0.47480875
v 5.54515859 2.67026378 -0.57983798
v 4.54007772 -3.94900623 -0.06622424
v 2.71738764 -5.33729907 -0.07148098
v 1.04928612 -5.94588183 -0.45846361
v 0.54959656 -6.05400598 -0.03509561
v -0.12947621 -6.03940107 -0.51789478
v -1.72584773 -5.81005501 -0.57446620
v -3.10095447 -5.26148309 -0.67695921
v -4.37654429 -4.10610882 -0.30268663
v -5.47314002 -2.77153858 -0.81065706
v -5.99191174 0.37480159 -0.65638097
v -6.14933253 0.06267844 -0.14491269
v -6.07273739 1.05597085 -0.94644710
v -5.87447135 1.27537435 -0.41748098
v -1.96762533 5.66596176 -0.84661872
v -0.35967813 6.41105249 -0.28335768
v 3.18656018 5.21696438 -1.19009786
v 5.24127296 2.92947845 -1.09248622
v -3.11945801 -5.63793185 -0.86090842
v -4.25801636 -4.35618421 -0.64776605
v -5.26166274 -2.93657872 -0.18931612
v -5.83241475 -1.50332883 -0.62171541
v -5.59982609 2.44778096 -0.26788283
v -4.95087135 3.42378945 -0.74530441
v -4.56065292 4.07378491 -0.32192752
v -3.33348152 5.62773846 -1.20644777
v -5.01594919 4.10608254 -0.12785473
v -3.33231483 5.01502593 -0.90190212
v -1.03947081 5.91130233 -0.62646595
v -0.44766590 6.47503345 -1.28959331
v 1.76133250 5.73392854 -0.94316814
v 2.62664774 5.52209926 -0.52311382
v 3.28493260 5.03349373 -0.74500291
v 4.68962890 3.91728355 -1.25229380
v 6.01947883 1.23769651 -0.61436846
v 6.01221594 0.08958208 -1.24294841
v 3.67120533 -4.82799545 -0.41386175
v -3.07526266 -5.16116885 -0.25035765
v 4.26906620 4.20683717 -0.83234867
v 5.81012602 1.50628696 -1.11940466
v 6.84864166 -0.11814489 -0.63019077
v -5.57495375 -3.98533236 -0.01033878
v -1.47931321 -6.78527605 -0.01159304
v 0.89926546 -6.96887679 -0.10834118
v 2.69412414 -6.51389833 -0.10165720
v 4.36168556 -5.52204727 -0.08085639
v 5.63310335 -4.22462693 -0.07339720
v 6.68648912 -2.13617641 0.00014200
v 7.03747269 -0.00185398 -0.01027098
v 6.90050773 -0.01016370 -0.36434407
v 6.25326981 -2.14570304 -0.58167022
v 6.69771192 -1.74505218 -0.36202824
v 5.97814872 -3.54808990 -0.39092983
v 4.46822488 -5.08746412 -0.59296607
v 2.80500453 -6.21623204 -0.60659558
v 1.20004595 -6.41344760 -0.77029837
v -1.46027726 -6.67846373 -0.71364512
v -6.83188573 0.85004034 -0.16849397
v 6.81228999 0.75332401 -1.41473299
v 0.91528405 -6.92682947 -0.49421135
v -0.85846065 -6.97024278 -0.33160310
v -2.72651403 -6.49016802 -0.39465412
v -3.58280341 -5.98310875 -0.08891807
v -3.59810698 -5.91157327 -0.70593652
v -5.00606567 -4.88750727 -0.58052533
v -5.19649773 -4.39814031 -0.83679636
v -5.19486868 -4.74676559 -0.28795892
v -6.53553440 -2.65101290 -0.43018101
v -6.14668245 -3.19969251 -0.73108458
v -6.58643299 -1.98360297 -0.08848208
v -6.63362518 -1.70300470 -0.88107288
v -6.98510291 -0.71080214 -0.45692457
v -6.67026619 0.08458156 -1.02827620
v -6.91727005 0.33788947 -0.86953760
v -6.91831058 1.38657446 -0.43349176
v -6.37922527 2.70675781 -0.90045432
v -5.83443312 2.96047495 -1.12204060
v -5.76209679 3.53739601 -0.13212105
v -5.24408227 4.41673851 -1.04955446
v -5.80217927 3.97178469 -0.47672945
v -4.04197455 5.62986906 -0.35122017
v -4.19786967 5.62284699 -0.86770433
v -3.01203408 6.23392206 -1.02168667
v -2.79653085 6.04073934 -0.20530332
v -1.91557572 6.66245241 -0.41033599
v -2.25434987 6.65356328 -0.73243621
v -0.94545326 6.94359722 -0.93160161
v -1.19388893 6.63256525 -1.22971620
v 0.09464875 6.77196916 -0.33208406
v 0.57826201 6.98103015 -0.61668707
v 1.29309250 6.80758228 -1.13452904
v 1.35357597 6.41347149 -1.33696940
v 1.98339473 6.72329758 -0.68983330
v 3.38171649 6.16158906 -0.77371139
v 3.56231985 5.94430387 -1.20054835
v 4.21022405 5.42000371 -0.48765488
v 4.17975443 5.10009786 -1.41752109
v 6.06179091 3.56175056 -1.05850224
v 4.93721881 4.97629517 -1.03477335
v 5.81777685 3.83895455 -0.70441007
v 5.25573779 4.22798517 -1.39471401
v 6.36046342 2.22589542 -0.50530519
v 6.36150854 2.70005114 -1.30857626
v 6.79806459 1.70973910 -0.82855989
v 6.06462431 2.11905353 -1.52507896
v 7.00766376 0.10090572 -1.17015707
v 6.23685855 -3.22362254 -40.81586382
v -4.45311166 -5.25907787 -29.29635063
v -4.78481290 -4.91729934 -30.13892466
v -5.36331126 -4.54288029 -29.70352661
v -6.47614131 -2.73304238 -30.04550495
v -5.95045474 -2.95456847 -30.58884886
v -5.72972772 -3.58925139 -29.51380826
v -5.82083397 -3.70574018 -30.31574917
v -6.70191561 -1.67106627 -29.96228903
v -6.66380731 -1.89354211 -30.59773348
v -6.97770758 -0.73946618 -30.44885270
v -6.84708058 1.61812781 -30.93845144
v -6.90813712 0.25854427 -30.94001392
v -6.78905401 1.40987818 -30.46177345
v -6.15682235 2.68834170 -31.49601771
v -6.84169750 0.08711872 -30.14362873
v -6.03430227 2.90329363 -30.52792867
v -5.69825084 4.01454096 -31.44303871
v -6.10340629 3.48064291 -30.96414091
v -4.73417915 5.19761328 -31.42798676
v -3.20274325 5.84131044 -32.21128274
v -4.94772788 4.82967212 -31.71402626
v -4.08217456 5.38393864 -31.05145670
v -3.31940502 6.17223257 -31.82993382
v -4.77105130 5.02939509 -31.06932693
v -1.72039609 6.46784028 -32.42721963
v -1.55309136 6.85693559 -32.07922966
v -2.64595158 6.44712971 -31.54765853
v -1.57090102 6.62979140 -31.50386876
v -0.63900632 6.89356137 -32.41306743
v 1.22901870 6.59075541 -32.89374017
v 1.06650883 6.95001703 -32.49543509
v 1.62458810 6.73565721 -32.11537781
v -0.43976528 6.95611597 -31.89016533
v 2.79160083 6.22845499 -33.05179017
v 3.24181701 6.23931699 -32.83660397
v 4.67606875 4.82606099 -33.50579110
v 4.75015782 5.15847476 -33.12176062
v 3.68997619 5.86456241 -32.45441484
v 5.07832962 4.65633975 -32.70721048
v 6.00125557 3.42091789 -33.64611006
v 5.99572887 2.94509779 -32.84439078
v 6.64915124 2.27708454 -33.63146737
v 5.67853506 4.13963769 -33.05062266
v 6.67945846 0.75471366 -34.21937882
v 6.14027859 2.30213754 -33.99328697
v 6.67426083 0.75481994 -33.22740016
v 6.68828754 1.96136280 -33.29883383
v 6.96825698 -0.17670684 -34.10843530
v 6.66498203 -2.23107834 -34.31313346
v 7.03014923 -0.02713389 -33.70640588
v 5.84997119 -3.32045482 -33.88749716
v 6.51133539 -2.48601883 -33.97731259
v 5.94366766 -3.51090320 -34.74722123
v 4.66692776 -4.83168167 -35.17899181
v 4.76752213 -5.13381912 -34.85177956
v 4.27675189 -5.27285729 -34.31287146
v 5.57253095 -4.28542037 -34.38677644
v 3.24833060 -6.22415768 -35.11965936
v 1.25067780 -6.81257773 -35.62419056
v 3.66959638 -5.92479271 -34.65517076
v 1.39143349 -6.88946595 -35.13424415
v -0.82949058 -6.87659905 -35.27017126
v -1.14172434 -6.93254514 -35.78654093
v 0.97532746 -6.69617155 -34.86771179
v -0.89866790 -6.68940404 -36.10354296
v -0.63376228 -6.40868591 -35.03495197
v -3.30673810 -6.19891208 -36.12763807
v -3.29243760 -5.82266503 -36.52381407
v -2.85387144 -6.35845643 -35.67638023
v -4.97524467 -4.40629400 -36.89113188
v -3.23458394 -5.89766079 -35.51275336
v -4.90149105 -4.97354069 -36.01954063
v -4.36419628 -4.89588509 -35.71222572
v -5.31102742 -4.60007269 -36.51815565
v -6.19972632 -3.05690538 -36.98224991
v -6.76450966 -0.30494815 -37.54100133
v -6.42453254 -2.80441989 -36.49396702
v -6.91092385 -1.26050532 -37.10199046
v -7.02227497 0.33988092 -37.17041119
v -6.27110037 -2.54274611 -36.23363302
v -6.92286233 -0.23404052 -36.75523102
v -6.77497778 1.44699162 -37.66613989
v -6.65556375 2.27374796 -37.32641393
v -5.69483655 3.46795431 -38.21239457
v -6.02143969 3.51095952 -37.91293067
v -5.72864561 3.97043530 -37.50899454
v -5.33676996 4.57595210 -37.96369122
v -4.51438391 4.89129423 -38.49465525
v -3.75037828 5.91814616 -38.38123355
v -2.30367135 6.61327276 -38.58761185
v -4.05829726 5.54730761 -37.68621133
v -2.16591430 6.41072190 -38.87906173
v -2.12548026 6.59254174 -38.10655435
v -0.21509855 6.74478380 -39.19071394
v -0.63191337 6.99825568 -38.75744817
v 1.75072614 6.53856417 -39.49094562
v 0.11361738 6.87677548 -38.37534471
v 1.36867806 6.89672161 -39.10087389
v 3.24874698 6.20397750 -39.44106799
v 2.30225831 6.48044571 -38.71460745
v 3.65108244 5.63619934 -39.85696050
v 4.94267753 4.13673435 -40.21784586
v 4.54102415 5.34766615 -39.62062740
v 4.42869988 5.39526110 -39.23429627
v 4.54490412 5.08397844 -39.07736629
v 5.59839563 4.05047702 -40.08941592
v 5.90931921 3.80288721 -39.65924040
v 6.80048207 1.69703029 -40.00977068
v 6.68155248 2.14766338 -40.23863597
v 6.18574534 2.54850514 -40.49443113
v 6.57062133 1.48127665 -39.69193399
v 6.75496488 0.53063912 -40.79797800
v 7.02438525 0.37177654 -40.24200559
v 6.90045847 -1.15843348 -40.77820949
v 6.83837175 -0.49389762 -40.07556357
v 6.74990482 -1.80818638 -40.44035780
v 5.91754628 -3.44077373 -40.54410969
v 6.58322218 -2.42870498 -1.53220900
v 6.77010180 -1.78229737 -1.07517633
v 6.67223482 -1.50319313 -1.70646178
v 5.61706213 -4.05280026 -2.02178074
v 5.34470778 -4.14339774 -1.26375001
v 5.63468333 -4.19611452 -1.57374292
v 3.86942794 -5.68121320 -1.64931599
v 4.38419322 -5.10761616 -2.44379104
v 4.08092864 -5.70561224 -2.19031433
v 2.21245216 -6.67286131 -2.48381864
v 2.41642080 -6.46429312 -1.97591421
v 0.52345692 -7.01439271 -2.46730290
v 0.37444390 -6.78638007 -2.16284862
v -0.30055507 -6.96416858 -2.96924343
v 1.52476043 -6.58554714 -2.94096065
v -1.32095311 -6.58528142 -3.38279472
v -1.52890579 -6.84679899 -2.75210144
v -1.71509923 -6.50749475 -2.46166699
v -3.58083606 -6.04468668 -3.10305367
v -2.53774565 -6.49373181 -3.31086204
v -3.26521549 -5.83262616 -3.72132998
v -4.29747976 -5.40873425 -3.72391240
v -5.53875538 -4.33165527 -3.76548798
v -5.66026307 -3.63622653 -4.21599767
v -5.32737332 -4.42665681 -3.26311626
v -6.66380553 -1.89717466 -4.36069655
v -6.49170161 -2.10810963 -3.58095090
v -6.51277749 -2.63500598 -3.78340091
v -6.99439335 -0.50179225 -4.39192701
v -6.92024395 -0.29883258 -3.94233083
v -6.72938281 1.10237403 -4.94623409
v -6.97264301 0.87484658 -4.32055254
v -6.23847485 3.00990977 -5.11761138
v -5.81616838 3.64500310 -4.49349267
v -6.47889211 2.71946052 -4.64424854
v -4.93960196 4.85655013 -5.45938228
v -5.26507687 4.65903175 -5.07847699
v -3.11583933 6.18634260 -5.80104232
v -3.49614146 6.09913519 -5.41868340
v -2.59738176 6.42920596 -5.24010339
v -4.46488939 5.35247717 -4.99267679
v -0.92050067 6.57903881 -6.34592174
v -1.37100953 6.89182453 -5.85004066
v 0.04620258 7.00595560 -6.12205323
v -0.31009401 6.96338579 -5.67194649
v 1.87614122 6.75407679 -6.07645888
v 1.60698866 6.45437807 -6.72537913
v 3.51892124 5.78216475 -6.99633370
v 3.67465240 5.99684620 -6.67303531
v 1.67652653 6.72104684 -6.55074842
v 1.05727168 6.68987273 -5.65812309
v 5.18206468 4.75119785 -6.82685760
v 3.97868603 5.72259144 -6.35211466
v 5.44372848 4.21051758 -6.51179588
v 5.43942822 4.29272738 -7.23759077
v 6.56343438 2.52791136 -7.35498090
v 5.84480238 3.25611510 -7.58202129
v 6.63159179 2.14419548 -7.03139262
v 6.96639157 0.83288215 -7.35452655
v 6.45766113 -2.01073810 -8.41329794
v 6.74951585 0.51078908 -7.06394664
v 6.95146941 -1.02171570 -7.64662671
v 6.96433396 0.04419309 -7.83815600
v 6.65754913 -2.06408044 -8.15781599
v 6.38450034 -2.94945482 -7.91644834
v 6.51027340 -1.62836500 -7.36242898
v 5.70230367 -3.54414549 -7.68666676
v 5.56567750 -4.12531959 -8.59432450
v 5.10536018 -4.83799728 -8.25655860
v 3.91230366 -5.18611386 -9.10947841
v 3.94289078 -5.69635559 -8.93629520
v 3.28990110 -6.21639388 -8.59648097
v 1.90005210 -6.66197430 -9.27834346
v 2.34255824 -6.35609995 -8.41550957
v 0.54984150 -7.01322143 -9.28746404
v 0.10189385 -6.74308428 -9.69548632
v -0.30112780 -6.76142409 -8.80864733
v 1.45219367 -6.81704866 -8.77906103
v -1.83139067 -6.80031637 -9.62766100
v -0.80807422 -6.92235135 -9.11717862
v -1.81435831 -6.42681709 -10.03890869
v -4.07631742 -5.72782158 -9.88680925
v -2.94501624 -6.21609993 -9.30410199
v -3.82613566 -5.77461811 -10.18941545
v -4.84040676 -5.01520233 -9.79911704
v -5.69104569 -4.12018477 -10.36355838
v -6.26041936 -2.57350734 -10.93253908
v -6.14874088 -3.18937868 -10.05457477
v -6.69823364 -2.11852359 -10.68947823
v -6.72490985 -0.19948134 -11.34452768
v -6.83208601 -0.91090608 -10.35036731
v -7.00438448 -0.19012990 -11.01326791
v -6.56596795 2.04252041 -11.60363707
v -6.67681862 1.06729897 -10.58515063
v -6.86242821 1.51145031 -10.98978925
v -6.13181352 3.44450197 -11.27875505
v -5.68106470 3.96326768 -11.84372645
v -4.83850108 4.95438015 -11.38094954
v -4.20514109 5.24387558 -12.31246148
v -4.31271649 5.55025507 -11.96771279
v -2.07855897 6.44056684 -12.65360071
v -2.50124790 6.56636087 -12.23465306
v -3.07226284 6.25613846 -11.80143256
v -2.31729774 6.39755347 -11.69888500
v -1.12411079 6.91505718 -12.50645738
v -0.91210179 6.91014183 -12.14091479
v 0.29644794 6.75691951 -12.10765419
v 0.53010507 6.90698956 -12.93504498
v 1.10511932 6.93831627 -12.53834768
v 2.28399543 6.44560381 -13.29881133
v 3.85878118 5.42439575 -13.68388954
v 3.89776400 5.77814539 -13.38356184
v 5.54570641 3.70882179 -14.06983540
v 3.16688636 6.28134304 -12.87027722
v 4.75568958 5.17794561 -13.29684919
v 5.42354822 4.31383956 -13.10939223
v 4.25076887 5.26740872 -12.77125111
v 5.54841727 4.21861772 -13.72521471
v 6.45528973 1.87738111 -14.36682082
v 6.44668632 2.88160264 -13.76943112
v 6.42089864 2.71044976 -13.50041998
v 6.99235859 0.58915752 -13.94174157
v 6.56896817 1.63142802 -13.44820383
v 6.85885452 1.20665336 -14.22250488
v 6.86918751 -0.55899828 -13.88867355
v 6.89705286 -0.64537778 -14.60067172
v 6.39050394 -2.11020063 -14.98643826
v 6.83078053 -1.64349682 -14.29151975
v 6.29300364 -2.82277003 -14.25109695
v 5.25151227 -4.26916187 -15.33212568
v 6.14559800 -3.41947238 -14.82912133
v 3.39854666 -5.78789178 -15.74799154
v 5.12656823 -4.58478791 -14.51431379
v 4.72518930 -5.20937122 -15.16976478
v 3.73442384 -5.82332639 -14.88321914
v 3.06967764 -6.25782631 -15.56720526
v 0.49596689 -6.99789032 -15.84003778
v 1.54174127 -6.71594456 -15.92193711
v 2.28120331 -6.64895387 -15.31859746
v 0.00935300 -6.66863129 -16.30852817
v -1.79617891 -6.58497753 -16.49111071
v -1.35945727 -6.89353596 -16.12239194
v -0.15664649 -6.88251778 -15.42386503
v -3.27903545 -5.73552801 -16.86682948
v -2.18504103 -6.53306139 -15.73300709
v -3.56844612 -6.05709349 -16.35644966
v -3.11784611 -6.19295566 -16.61065832
v -4.94147545 -4.85735177 -16.95833657
v -4.64295172 -5.14482768 -16.21721950
v -5.32014247 -4.59596781 -16.69667103
v -5.96081421 -3.13699003 -17.43842619
v -6.32147593 -3.02192546 -17.16473491
v -6.17010669 -2.78219790 -16.53684744
v -6.80261308 -1.73139985 -17.04396674
v -5.88835206 -3.72889557 -16.60786483
v -6.88068619 -0.31704771 -17.02403077
v -6.87476683 -0.67774720 -17.68549559
v -6.61625153 -0.80083603 -16.80375915
v -7.00082665 0.62517898 -17.67007519
v -6.53742492 1.56912406 -18.18337439
v -6.42888023 2.84025741 -18.01132799
v -5.59168827 3.81249674 -18.52400021
v -6.71650043 1.36141665 -17.22277750
v -6.17694300 3.13363509 -17.60199771
v -5.17762109 4.75381654 -18.35241352
v -4.06463144 5.41145104 -18.86660936
v -4.91839451 4.89449668 -17.95384847
v -3.56377935 6.05600633 -18.61891410
v -2.27933941 6.46956023 -19.13649105
v -3.21056549 5.99983957 -18.10803923
v -1.54413878 6.85176633 -18.84331575
v -3.10455608 6.24017180 -18.35556591
v -0.89629422 6.87268060 -18.62626407
v -0.26944732 6.92408814 -19.37009896
v 0.59983110 7.00478110 -19.16989093
v 1.31593946 6.80073198 -18.95308762
v 3.36561402 5.74511466 -20.15536186
v 1.66194644 6.67165460 -19.74698991
v 3.87399181 5.79411663 -19.93879781
v 3.13633949 6.29655423 -19.42480876
v 5.11286531 4.50626704 -20.41993311
v 4.73169876 5.19987232 -19.85159279
v 5.16121873 4.62029738 -19.63115269
v 3.51099441 5.77893343 -19.17707179
v 5.53098906 4.24147598 -20.28043381
v 6.14702829 3.41115146 -20.19184619
v 6.43115414 2.60933127 -20.00012971
v 6.91247980 1.27654661 -20.53235268
v 6.53175797 2.28188960 -20.70203755
v 6.88824839 0.51217263 -20.30033844
v 6.92584849 0.17469892 -21.02114246
v 6.95994031 -0.99235146 -20.86896409
v 6.76407917 -1.50061847 -20.62505250
v 6.67428213 -2.00940968 -21.26832810
v 6.41705860 -1.99923191 -21.53259418
v 5.67333510 -4.04967803 -21.61018644
v 5.14746566 -4.34760456 -21.94085196
v 6.16097852 -3.38511278 -21.10781064
v 5.97826073 -3.10078461 -20.74984801
v 4.92790057 -5.00957173 -21.45655994
v 4.00544360 -5.75909174 -21.88957263
v 3.57536991 -5.94016189 -21.48143550
v 3.50110548 -5.74584721 -22.28587773
v 1.56331590 -6.75304835 -21.80357732
v 2.18675740 -6.67260024 -22.14705737
v 0.03882094 -6.66514464 -22.86561763
v 1.30005920 -6.79726925 -22.50803689
v -2.74391614 -6.36214911 -22.45405607
v -1.18755075 -6.83201301 -22.85397894
v -0.36646065 -7.02548972 -22.27634142
v -2.26339864 -6.65565975 -22.70275559
v -2.41213504 -6.10416215 -23.28007377
v -3.29675816 -6.09263346 -23.20427635
v -3.98562387 -5.47220555 -22.54823869
v -4.55380915 -5.36189531 -22.95726383
v -5.09291846 -4.75958056 -23.45791978
v -5.84045463 -3.91318603 -23.38427361
v -6.38857594 -2.70630842 -23.90338531
v -6.67272917 -1.10257722 -24.32295809
v -7.01544270 -0.38874586 -24.07856965
v -6.68812244 -2.10678249 -23.50357648
v -6.76953145 1.88044110 -24.41921703
v -6.68149865 -1.14286674 -23.34628235
v -6.96254966 0.32936157 -23.80664300
v -6.39830857 2.80610532 -24.18793902
v -5.64690515 3.83448667 -25.03508469
v -5.80795645 3.95378381 -24.76029956
v -4.08455046 5.39650221 -25.42228126
v -4.06667876 5.73750715 -25.15257733
v -4.95984762 4.89748376 -24.57053966
v -4.17882479 5.29770017 -24.47395837
v -5.32438024 3.94259258 -24.13230451
v -3.09964521 6.20149656 -24.84295327
v -1.94307667 6.76047692 -25.48099814
v -2.08850406 6.38407872 -25.80323617
v -1.39056109 6.56248052 -24.92477242
v -0.49075363 7.02526340 -25.42648076
v -0.07955806 6.90385658 -25.96166441
v 0.53406363 6.65057482 -26.24015706
v 1.77859593 6.77362530 -26.08641900
v 1.17888998 6.78017284 -25.41861031
v 2.66312756 6.09226197 -25.53961672
v 3.85016182 5.80998510 -26.49403518
v 3.36272755 6.16895647 -26.02429223
v 4.69786526 5.16722069 -26.68299538
v 5.02071200 4.77553881 -26.15459423
v 3.11763249 5.97209802 -26.63380370
v 5.64006452 3.43085541 -27.23295452
v 5.65487741 4.15409743 -26.61863856
v 6.11873273 3.19043360 -26.42946441
v 6.60255123 2.41132641 -26.91702948
v 6.05798857 3.34265500 -27.08610409
v 6.79900257 1.32939412 -27.40541820
v 6.48623250 0.93967566 -27.65790687
v 7.01704660 0.25465782 -27.37240753
v 6.79712539 1.37069572 -26.76047336
v 6.84709056 -1.57420128 -27.63135649
v 6.67896703 -1.10016381 -27.90844369
v 6.91492675 -0.87590562 -27.16860019
v 6.36773117 -2.38955360 -27.18179939
v 6.02996709 -3.60583907 -27.97930245
v 5.82950586 -3.19267601 -28.33132162
v 4.59241933 -4.92081111 -28.61953151
v 6.27135670 -3.04114706 -27.50839041
v 4.97242595 -4.88470454 -27.84761833
v 4.48161664 -5.03910166 -27.66674483
v 4.55576472 -5.34901170 -28.32001795
v 3.11464320 -6.27861411 -28.26989450
v 2.84242872 -6.23814826 -28.88468448
v 1.89853388 -6.51606861 -28.16132163
v 0.48457980 -6.71480196 -29.32806426
v 1.15584062 -6.87403430 -28.98823340
v -1.12781635 -6.93475922 -29.22489003
v 1.08525000 -6.94187616 -28.62095017
v -0.62078737 -6.40428089 -29.55641053
v -1.89480223 -6.49051018 -29.68523435
v -1.11695132 -6.79074224 -28.68793610
v -3.27252513 -6.10566956 -29.75969854
v -3.37169063 -6.17060423 -29.32530539
v -2.61710328 -6.23074287 -28.87502358
f 18 314 224
f 109 317 653
f 319 47 48
f 107 49 319
f 107 19 49
f 51 688 234
f 119 689 51
f 321 238 682
f 323 699 120
f 125 53 240
f 57 5 712
f 129 57 712
f 327 60 250
f 253 23 61
f 735 133 329
f 139 754 762
f 7 336 335
f 337 7 782
f 260 144 65
f 262 27 147
f 153 150 152
f 155 154 152
f 68 69 157
f 163 164 71
f 347 164 163
f 167 164 347
f 171 11 12
f 179 857 861
f 278 35 180
f 876 349 183
f 77 888 283
f 36 77 285
f 352 79 13
f 525 85 519
f 89 193 541
f 300 200 90
f 360 576 571
f 205 578 360
f 92 578 361
f 362 209 93
f 363 208 207
f 308 364 589
f 308 589 593
f 368 42 212
f 374 615 617
f 97 218 312
f 219 218 99
f 99 98 630
f 219 99 220
f 220 99 630
f 220 630 637
f 223 101 638
f 315 223 638
f 103 224 314
f 315 638 643
f 226 46 18
f 105 643 646
f 317 316 225
f 317 106 653
f 318 48 317
f 109 653 110
f 228 19 107
f 2 664 111
f 112 375 228
f 229 111 664
f 229 664 669
f 115 229 669
f 230 114 113
f 231 230 113
f 115 231 113
f 233 50 679
f 234 21 320
f 116 233 679
f 234 232 235
f 116 679 117
f 238 117 682
f 238 237 117
f 51 689 688
f 118 119 51
f 118 238 321
f 119 120 689
f 321 682 692
f 239 3 703
f 54 239 703
f 240 53 22
f 4 54 703
f 125 240 55
f 56 126 127
f 129 243 57
f 131 59 721
f 245 131 325
f 249 132 6
f 60 326 250
f 248 250 326
f 328 249 6
f 60 327 61
f 251 329 252
f 62 253 329
f 133 62 329
f 133 735 741
f 330 136 134
f 24 135 255
f 138 754 256
f 332 255 137
f 24 255 25
f 137 256 139
f 333 139 762
f 141 142 26
f 333 762 766
f 142 64 26
f 335 766 773
f 259 334 335
f 65 780 64
f 259 65 64
f 336 7 337
f 337 143 259
f 260 65 143
f 338 337 782
f 338 145 260
f 339 341 27
f 262 344 27
f 66 9 799
f 152 154 153
f 157 345 155
f 70 68 817
f 264 346 263
f 159 264 263
f 161 159 819
f 71 30 29
f 161 819 825
f 160 71 264
f 160 161 162
f 347 163 162
f 265 166 834
f 267 168 266
f 267 834 10
f 167 32 31
f 269 267 72
f 72 267 10
f 72 10 841
f 72 268 269
f 271 72 11
f 169 73 33
f 854 33 73
f 171 12 175
f 173 172 272
f 173 171 175
f 273 34 174
f 175 857 176
f 74 864 858
f 274 179 861
f 274 861 869
f 277 181 870
f 279 278 180
f 183 279 180
f 75 882 182
f 884 377 349
f 350 884 885
f 350 885 78
f 897 78 893
f 186 285 284
f 187 37 36
f 286 79 352
f 188 37 80
f 81 352 353
f 13 510 353
f 287 353 83
f 288 83 519
f 291 521 290
f 85 288 519
f 85 293 292
f 295 87 530
f 295 530 535
f 39 38 192
f 88 546 39
f 198 551 546
f 357 198 196
f 200 199 549
f 356 357 196
f 200 549 90
f 299 356 298
f 300 299 298
f 357 91 556
f 300 90 559
f 300 201 299
f 201 376 299
f 300 559 14
f 300 14 201
f 301 359 14
f 203 360 571
f 301 14 570
f 360 578 576
f 575 303 573
f 204 303 205
f 305 209 362
f 305 207 209
f 363 41 208
f 306 363 207
f 305 362 364
f 364 362 589
f 365 308 593
f 367 369 310
f 369 371 310
f 370 606 607
f 371 370 607
f 374 607 615
f 17 374 617
f 215 96 214
f 216 17 16
f 216 16 215
f 217 434 43
f 1 217 218
f 217 457 98
f 99 217 98
f 99 218 217
f 219 312 218
f 221 100 219
f 45 221 220
f 221 222 44
f 45 222 221
f 222 102 44
f 223 222 45
f 223 45 101
f 223 102 222
f 314 313 102
f 315 102 223
f 315 314 102
f 103 314 315
f 224 103 104
f 105 104 103
f 226 224 104
f 104 106 225
f 104 105 106
f 225 226 104
f 48 316 317
f 318 317 109
f 48 318 319
f 319 108 107
f 109 108 318
f 108 109 110
f 107 108 227
f 228 111 112
f 229 112 111
f 229 113 112
f 115 113 229
f 231 115 50
f 230 320 20
f 232 230 231
f 232 320 230
f 233 232 231
f 232 233 235
f 234 235 236
f 237 235 116
f 237 236 235
f 236 51 234
f 238 118 236
f 118 51 236
f 122 119 118
f 321 122 118
f 119 122 121
f 322 122 692
f 120 121 123
f 121 322 123
f 123 124 323
f 239 124 123
f 54 124 239
f 240 124 54
f 240 54 55
f 125 55 241
f 5 241 55
f 241 242 324
f 241 5 242
f 126 56 242
f 126 242 243
f 243 244 126
f 129 244 243
f 126 128 58
f 126 244 128
f 129 59 244
f 131 128 244
f 128 246 58
f 246 247 130
f 245 325 132
f 247 246 245
f 247 245 132
f 248 326 247
f 249 248 247
f 249 328 248
f 328 250 248
f 251 250 328
f 327 251 252
f 252 61 327
f 251 735 329
f 252 253 61
f 252 329 253
f 134 23 253
f 254 253 62
f 330 253 254
f 330 134 253
f 254 62 63
f 330 254 136
f 255 135 136
f 255 136 331
f 255 331 137
f 256 331 138
f 256 137 331
f 332 25 255
f 332 137 139
f 25 332 257
f 25 257 140
f 140 141 25
f 258 257 333
f 258 140 257
f 140 142 141
f 140 258 142
f 335 142 258
f 64 334 259
f 259 335 336
f 143 65 259
f 337 259 336
f 337 338 143
f 338 260 143
f 261 145 338
f 341 339 145
f 341 145 261
f 146 341 261
f 146 147 341
f 146 148 147
f 147 148 342
f 343 342 148
f 149 147 342
f 149 262 147
f 343 66 342
f 262 149 150
f 66 149 342
f 262 150 344
f 66 150 149
f 66 151 150
f 67 152 150
f 151 67 150
f 152 67 155
f 157 69 345
f 345 263 28
f 69 70 263
f 346 264 158
f 159 161 264
f 158 264 71
f 264 161 160
f 163 71 162
f 165 347 162
f 347 165 266
f 265 165 166
f 265 266 165
f 266 167 347
f 267 266 265
f 266 168 167
f 168 270 167
f 269 270 168
f 267 269 168
f 270 269 268
f 268 271 32
f 72 271 268
f 169 271 170
f 171 170 11
f 169 170 172
f 169 172 73
f 170 171 272
f 170 272 172
f 272 171 173
f 348 73 172
f 348 172 173
f 174 348 173
f 174 173 273
f 176 273 173
f 178 177 273
f 74 178 274
f 275 74 274
f 275 274 276
f 276 181 277
f 276 35 275
f 276 277 180
f 183 180 277
f 279 183 280
f 280 183 349
f 279 184 75
f 279 280 184
f 280 377 184
f 282 184 377
f 281 282 377
f 282 283 76
f 282 281 283
f 351 283 281
f 351 281 350
f 351 185 283
f 285 77 185
f 285 185 284
f 284 185 78
f 897 284 78
f 186 284 897
f 285 286 36
f 285 186 286
f 286 186 79
f 286 187 36
f 80 37 187
f 80 187 352
f 81 80 352
f 82 81 353
f 289 290 82
f 288 289 287
f 288 354 289
f 291 289 354
f 354 288 85
f 292 354 85
f 190 293 189
f 293 190 294
f 293 294 86
f 191 355 294
f 295 193 296
f 191 296 192
f 191 192 38
f 89 194 296
f 88 194 195
f 89 297 194
f 297 195 194
f 195 297 196
f 199 197 297
f 199 200 197
f 197 298 196
f 356 196 298
f 298 200 300
f 376 91 299
f 359 376 201
f 203 571 202
f 302 202 301
f 360 203 204
f 360 204 205
f 302 204 203
f 302 303 204
f 303 304 205
f 303 93 304
f 206 361 304
f 304 93 209
f 207 305 306
f 364 306 305
f 307 363 306
f 308 307 306
f 308 306 364
f 309 210 365
f 310 212 367
f 310 368 212
f 367 213 369
f 371 94 310
f 371 369 370
f 372 311 373
f 371 607 311
f 373 311 374
f 374 17 214
f 214 17 216
f 214 216 215
f 97 1 218
f 434 217 1
f 43 457 217
f 220 221 219
f 221 44 100
f 101 220 637
f 101 45 220
f 313 640 44
f 44 102 313
f 314 18 313
f 315 105 103
f 315 643 105
f 224 226 18
f 105 646 106
f 317 225 106
f 48 47 316
f 319 318 108
f 110 2 108
f 107 227 228
f 111 227 108
f 111 228 227
f 108 2 111
f 228 375 19
f 114 375 113
f 230 20 114
f 50 233 231
f 232 234 320
f 116 235 233
f 237 116 117
f 238 236 237
f 119 121 120
f 692 122 321
f 121 122 322
f 692 3 322
f 323 120 123
f 322 239 123
f 322 3 239
f 323 124 52
f 240 22 52
f 4 55 54
f 55 4 5
f 125 324 56
f 125 56 53
f 125 241 324
f 5 243 242
f 5 57 243
f 126 58 127
f 59 131 244
f 58 246 130
f 246 128 245
f 131 245 128
f 131 721 325
f 326 130 247
f 132 249 247
f 132 325 6
f 327 250 251
f 328 733 251
f 251 733 735
f 133 741 62
f 63 62 741
f 63 741 749
f 63 138 254
f 136 135 134
f 331 136 254
f 138 331 254
f 256 754 139
f 139 257 332
f 139 333 257
f 333 766 258
f 258 766 335
f 64 142 334
f 334 142 335
f 335 773 7
f 339 144 260
f 339 260 145
f 340 261 338
f 8 261 340
f 8 146 261
f 341 147 27
f 343 148 146
f 343 146 8
f 343 8 9
f 343 9 66
f 66 799 151
f 150 153 344
f 151 799 67
f 67 799 68
f 157 155 67
f 67 68 157
f 154 155 345
f 154 345 156
f 156 345 28
f 69 263 345
f 70 69 68
f 263 346 28
f 70 159 263
f 346 29 28
f 346 158 29
f 158 71 29
f 71 164 30
f 162 161 825
f 162 825 828
f 166 165 162
f 166 162 828
f 265 834 267
f 270 32 167
f 270 268 32
f 72 841 11
f 169 845 32
f 11 170 271
f 348 854 73
f 174 854 348
f 174 34 854
f 175 176 173
f 273 177 34
f 178 273 176
f 176 857 179
f 176 179 178
f 74 34 177
f 74 858 34
f 179 274 178
f 74 275 864
f 275 35 864
f 274 869 181
f 274 181 276
f 35 276 180
f 277 870 183
f 278 279 182
f 278 182 35
f 183 870 876
f 279 75 182
f 349 377 280
f 350 377 884
f 350 281 377
f 283 888 76
f 77 283 185
f 351 350 78
f 351 78 185
f 897 79 186
f 352 187 286
f 81 188 80
f 13 353 352
f 82 188 81
f 82 353 287
f 353 510 83
f 82 290 188
f 82 287 289
f 83 288 287
f 290 289 291
f 291 354 292
f 84 521 291
f 291 292 84
f 84 292 293
f 84 293 86
f 189 293 85
f 189 85 525
f 87 190 189
f 87 189 525
f 87 525 530
f 355 86 294
f 190 295 191
f 190 191 294
f 295 190 87
f 355 191 38
f 295 296 191
f 295 535 193
f 192 194 88
f 192 88 39
f 194 192 296
f 89 296 193
f 89 541 550
f 195 546 88
f 297 89 199
f 199 89 550
f 196 546 195
f 196 198 546
f 196 297 197
f 199 550 549
f 197 200 298
f 357 356 299
f 91 357 299
f 358 91 376
f 358 40 91
f 359 201 14
f 358 376 202
f 571 40 358
f 571 358 202
f 301 202 376
f 302 203 202
f 301 570 573
f 301 573 302
f 302 573 303
f 361 578 205
f 361 205 304
f 303 575 93
f 92 361 206
f 206 208 92
f 207 206 304
f 207 304 209
f 207 208 206
f 211 363 307
f 211 307 210
f 365 210 307
f 365 307 308
f 309 211 210
f 309 42 211
f 365 366 309
f 366 365 593
f 366 212 309
f 366 367 212
f 367 366 213
f 368 310 94
f 213 606 370
f 213 370 369
f 94 371 372
f 372 95 94
f 372 373 95
f 372 371 311
f 373 96 95
f 374 311 607
f 214 96 373
f 312 219 100
f 240 52 124
f 324 242 56
f 271 169 32
f 376 359 301
f 212 42 309
f 214 373 374
f 226 225 316
f 226 316 46
f 319 49 47
f 113 375 112
f 74 177 178
f 162 71 160
f 282 75 184
f 282 76 75
f 400 386 435
f 408 383 391
f 397 414 396
f 399 500 382
f 433 1 500
f 385 384 449
f 449 386 385
f 386 400 379
f 386 379 385
f 401 435 387
f 403 401 402
f 402 387 454
f 454 388 404
f 404 402 454
f 403 402 404
f 417 405 388
f 417 406 405
f 406 418 436
f 383 406 417
f 409 391 411
f 475 424 392
f 428 424 486
f 427 414 393
f 428 490 395
f 490 495 415
f 397 396 430
f 495 432 415
f 398 430 431
f 397 430 398
f 438 416 503
f 399 416 438
f 434 438 43
f 433 500 399
f 378 384 385
f 385 379 378
f 435 401 400
f 402 401 387
f 389 403 404
f 405 406 436
f 436 380 389
f 383 418 406
f 407 380 436
f 418 383 408
f 419 407 418
f 407 419 380
f 420 419 408
f 410 390 420
f 409 420 391
f 390 410 381
f 409 410 420
f 409 412 410
f 411 471 475
f 411 475 392
f 412 411 392
f 422 421 412
f 422 412 392
f 421 425 381
f 421 423 425
f 422 423 421
f 426 423 422
f 426 422 392
f 426 392 424
f 393 423 426
f 425 423 393
f 425 393 482
f 426 424 428
f 413 393 426
f 413 426 428
f 413 427 393
f 414 482 393
f 394 427 413
f 394 413 428
f 427 396 414
f 395 427 394
f 395 396 427
f 428 395 394
f 396 395 429
f 415 395 490
f 429 395 415
f 429 430 396
f 431 429 415
f 430 429 431
f 437 431 415
f 415 432 437
f 431 437 398
f 397 398 382
f 399 382 398
f 433 438 1
f 435 386 387
f 405 404 388
f 389 404 405
f 436 389 405
f 436 418 407
f 418 408 419
f 419 420 390
f 420 408 391
f 411 391 471
f 409 411 412
f 410 421 381
f 410 412 421
f 437 432 416
f 437 416 399
f 437 399 398
f 503 432 495
f 503 416 432
f 503 43 438
f 433 399 438
f 434 1 438
f 450 448 447
f 449 384 448
f 450 447 446
f 451 450 446
f 451 446 445
f 449 450 451
f 452 386 449
f 452 449 451
f 445 452 451
f 444 452 445
f 452 387 386
f 453 387 452
f 453 454 387
f 454 453 458
f 455 454 458
f 455 388 454
f 455 417 388
f 462 417 455
f 462 455 460
f 464 417 462
f 464 383 417
f 464 391 383
f 469 391 464
f 469 471 391
f 456 473 381
f 439 500 1
f 448 450 449
f 458 453 443
f 459 442 441
f 459 455 458
f 460 455 459
f 460 441 461
f 462 460 461
f 463 462 461
f 463 461 465
f 465 461 440
f 464 462 463
f 440 466 465
f 465 467 463
f 464 463 467
f 466 467 465
f 468 466 440
f 467 469 464
f 469 467 466
f 470 466 468
f 469 466 470
f 470 468 381
f 471 469 472
f 470 381 473
f 472 469 470
f 476 456 381
f 474 472 473
f 473 456 476
f 471 472 474
f 476 381 425
f 475 471 474
f 478 473 476
f 474 473 478
f 477 474 478
f 475 474 477
f 478 476 479
f 476 425 482
f 477 424 475
f 479 480 478
f 477 478 480
f 482 479 476
f 482 483 479
f 424 477 480
f 424 480 481
f 479 484 480
f 481 480 484
f 483 484 479
f 486 424 481
f 485 486 481
f 485 481 484
f 487 483 482
f 487 482 414
f 483 485 484
f 488 483 487
f 488 485 483
f 487 414 397
f 485 489 486
f 489 485 488
f 428 486 489
f 490 428 489
f 488 487 397
f 489 488 491
f 491 488 397
f 489 491 492
f 492 491 397
f 493 489 492
f 492 397 494
f 490 489 493
f 495 490 493
f 494 397 382
f 494 497 492
f 493 492 497
f 497 499 493
f 499 495 493
f 498 494 382
f 498 497 494
f 498 496 497
f 496 499 497
f 498 382 500
f 496 501 499
f 502 496 498
f 502 498 500
f 499 503 495
f 503 499 501
f 501 496 502
f 457 501 502
f 502 500 439
f 503 501 457
f 457 502 504
f 504 502 439
f 457 43 503
f 444 453 452
f 444 443 453
f 443 442 458
f 442 459 458
f 459 441 460
f 470 473 472
f 447 448 384
f 447 384 378
f 506 508 901
f 510 13 507
f 510 507 512
f 508 506 511
f 512 507 508
f 37 511 506
f 512 508 509
f 510 512 514
f 509 508 511
f 511 37 188
f 514 512 509
f 509 511 513
f 83 510 514
f 188 513 511
f 514 509 515
f 513 515 509
f 83 514 517
f 517 514 515
f 520 515 513
f 517 515 516
f 519 83 517
f 188 520 513
f 520 516 515
f 518 516 520
f 516 519 517
f 520 188 290
f 521 518 520
f 521 520 290
f 518 523 516
f 523 518 521
f 522 519 516
f 522 516 523
f 522 526 519
f 523 521 529
f 522 523 524
f 525 519 526
f 529 524 523
f 526 522 524
f 527 529 521
f 527 521 84
f 528 526 524
f 528 525 526
f 529 528 524
f 532 528 529
f 532 529 527
f 532 527 533
f 533 527 84
f 531 525 528
f 533 84 86
f 531 530 525
f 532 531 528
f 534 530 531
f 538 531 532
f 538 532 533
f 533 86 355
f 535 530 534
f 534 531 536
f 538 536 531
f 536 535 534
f 538 533 537
f 355 537 533
f 537 536 538
f 536 539 535
f 38 537 355
f 535 541 193
f 537 540 536
f 540 539 536
f 541 535 539
f 38 543 537
f 543 540 537
f 540 541 539
f 39 543 38
f 543 542 540
f 542 541 540
f 39 544 543
f 544 542 543
f 544 548 542
f 545 542 548
f 545 541 542
f 550 541 545
f 548 544 546
f 545 548 547
f 39 546 544
f 552 547 548
f 552 548 546
f 550 545 549
f 547 549 545
f 552 546 551
f 552 555 547
f 553 549 547
f 553 547 555
f 555 552 551
f 553 90 549
f 555 551 198
f 553 555 554
f 554 90 553
f 557 554 555
f 557 555 198
f 554 558 90
f 557 198 556
f 559 90 558
f 556 198 357
f 557 562 554
f 558 554 562
f 439 1 97
f 562 557 556
f 560 559 558
f 560 558 562
f 562 556 561
f 565 560 562
f 565 562 561
f 563 559 560
f 561 556 91
f 565 563 560
f 563 14 559
f 40 561 91
f 565 561 40
f 563 564 14
f 566 565 40
f 566 563 565
f 564 563 566
f 566 40 569
f 570 14 564
f 564 566 568
f 567 566 569
f 568 570 564
f 567 568 566
f 569 40 571
f 571 567 569
f 574 568 567
f 572 573 570
f 572 570 568
f 574 567 576
f 574 572 568
f 571 576 567
f 577 572 574
f 577 574 576
f 579 572 577
f 579 575 573
f 579 573 572
f 578 577 576
f 93 575 580
f 580 575 579
f 585 577 578
f 582 579 577
f 582 577 585
f 580 579 582
f 585 578 92
f 583 580 582
f 93 580 581
f 583 581 580
f 585 92 208
f 586 583 582
f 586 582 585
f 586 584 583
f 581 362 93
f 587 583 584
f 587 581 583
f 208 586 585
f 581 589 362
f 588 584 586
f 589 581 587
f 588 586 208
f 587 584 588
f 590 587 588
f 588 208 41
f 590 589 587
f 591 588 41
f 590 588 592
f 591 592 588
f 592 589 590
f 592 593 589
f 591 41 596
f 596 592 591
f 211 41 363
f 211 596 41
f 594 593 592
f 596 594 592
f 597 593 594
f 597 366 593
f 595 597 594
f 598 594 596
f 598 595 594
f 599 366 597
f 599 213 366
f 42 598 596
f 42 596 211
f 598 600 595
f 600 597 595
f 600 599 597
f 602 600 598
f 42 602 598
f 603 599 600
f 601 213 599
f 601 606 213
f 603 601 599
f 602 603 600
f 602 42 368
f 605 603 602
f 604 601 603
f 605 602 368
f 604 606 601
f 605 604 603
f 605 368 94
f 609 604 605
f 609 605 610
f 609 608 604
f 608 606 604
f 610 605 94
f 607 606 611
f 608 611 606
f 611 608 612
f 615 607 611
f 609 612 608
f 95 610 94
f 612 609 610
f 15 622 16
f 612 610 95
f 504 625 457
f 611 612 614
f 614 615 611
f 614 617 615
f 613 614 612
f 613 612 95
f 616 95 96
f 613 95 616
f 618 613 616
f 618 614 613
f 618 617 614
f 620 618 616
f 617 618 619
f 618 621 619
f 621 618 620
f 621 505 619
f 621 622 505
f 620 616 96
f 215 620 96
f 215 621 620
f 215 622 621
f 622 215 16
f 622 15 505
f 504 439 624
f 624 625 504
f 625 624 623
f 625 98 457
f 625 630 98
f 97 624 439
f 623 626 625
f 630 625 626
f 626 623 628
f 628 623 624
f 628 624 97
f 628 97 627
f 627 97 312
f 631 630 626
f 631 626 628
f 629 628 627
f 629 631 628
f 627 312 100
f 629 627 100
f 631 637 630
f 629 632 631
f 632 637 631
f 633 632 629
f 634 632 633
f 635 629 100
f 635 633 629
f 634 633 635
f 636 632 634
f 636 637 632
f 635 100 44
f 636 638 637
f 638 101 637
f 639 634 635
f 640 635 44
f 636 634 639
f 642 638 636
f 642 636 639
f 639 635 640
f 642 639 641
f 642 643 638
f 641 639 640
f 641 640 18
f 642 644 643
f 644 642 641
f 18 640 313
f 646 643 644
f 644 641 645
f 647 641 18
f 647 645 641
f 645 646 644
f 650 645 647
f 648 645 650
f 648 646 645
f 650 647 649
f 106 646 648
f 46 647 18
f 46 649 647
f 648 650 651
f 652 650 649
f 652 651 650
f 106 648 653
f 651 653 648
f 46 652 649
f 652 654 651
f 653 651 654
f 47 46 316
f 47 652 46
f 654 652 47
f 653 654 657
f 655 653 657
f 657 654 47
f 110 653 655
f 657 47 656
f 110 655 658
f 655 657 659
f 656 659 657
f 658 655 659
f 2 110 658
f 656 47 49
f 663 659 656
f 663 656 49
f 2 658 660
f 658 659 661
f 663 661 659
f 660 658 661
f 663 49 662
f 662 661 663
f 19 662 49
f 664 2 660
f 660 661 665
f 662 665 661
f 665 664 660
f 667 662 19
f 667 665 662
f 666 664 665
f 669 664 672
f 666 672 664
f 667 666 665
f 667 19 673
f 672 666 668
f 673 19 375
f 668 666 667
f 668 667 673
f 669 672 670
f 672 668 671
f 669 50 115
f 668 673 20
f 670 50 669
f 671 670 672
f 20 375 114
f 20 673 375
f 675 668 20
f 675 671 668
f 670 679 50
f 671 677 670
f 675 20 676
f 675 674 671
f 679 670 677
f 677 671 674
f 676 674 675
f 677 674 678
f 676 20 320
f 676 678 674
f 676 320 21
f 678 679 677
f 680 678 676
f 680 676 21
f 678 117 679
f 680 21 683
f 680 681 678
f 685 678 681
f 685 117 678
f 683 21 234
f 681 680 683
f 685 681 684
f 685 682 117
f 683 234 688
f 684 681 683
f 684 683 688
f 686 682 685
f 686 685 684
f 687 684 688
f 686 684 687
f 687 688 689
f 690 686 687
f 690 682 686
f 691 687 689
f 692 682 690
f 690 687 691
f 692 690 693
f 691 689 120
f 693 690 691
f 694 691 120
f 3 692 693
f 693 691 694
f 3 693 695
f 694 120 696
f 695 693 694
f 700 694 696
f 698 3 695
f 695 694 697
f 700 697 694
f 700 696 699
f 696 120 699
f 697 698 695
f 702 697 700
f 702 700 699
f 703 3 698
f 702 701 697
f 701 698 697
f 701 703 698
f 702 699 705
f 705 701 702
f 701 706 703
f 705 699 323
f 706 701 704
f 705 323 52
f 4 703 706
f 705 704 701
f 707 705 22
f 707 704 705
f 22 705 52
f 706 704 708
f 708 4 706
f 707 708 704
f 707 22 710
f 709 5 4
f 710 708 707
f 708 709 4
f 53 710 22
f 711 709 708
f 710 711 708
f 713 711 710
f 712 5 709
f 711 712 709
f 713 710 53
f 714 712 711
f 713 714 711
f 713 53 56
f 714 715 712
f 717 714 713
f 717 713 716
f 715 714 717
f 716 713 56
f 716 56 127
f 715 129 712
f 718 716 127
f 718 717 716
f 715 59 129
f 715 717 718
f 719 715 718
f 721 59 715
f 721 715 719
f 720 718 127
f 719 718 722
f 720 722 718
f 722 721 719
f 58 720 127
f 725 722 720
f 723 325 721
f 725 720 726
f 722 723 721
f 725 724 722
f 724 723 722
f 726 720 58
f 723 6 325
f 726 58 130
f 727 723 724
f 728 725 726
f 728 724 725
f 6 723 730
f 727 730 723
f 728 727 724
f 728 726 729
f 730 727 731
f 726 130 326
f 728 731 727
f 729 726 326
f 732 6 730
f 731 728 729
f 729 326 60
f 730 731 736
f 731 729 60
f 732 328 6
f 732 730 736
f 732 733 328
f 736 731 60
f 734 732 736
f 734 733 732
f 734 736 737
f 736 60 739
f 738 737 736
f 738 736 739
f 740 735 733
f 740 733 734
f 740 734 737
f 740 737 742
f 738 742 737
f 61 739 60
f 61 738 739
f 743 742 738
f 742 741 735
f 742 735 740
f 743 738 745
f 746 741 742
f 745 738 61
f 746 742 744
f 744 742 743
f 744 743 745
f 746 748 741
f 745 61 23
f 749 741 748
f 744 745 747
f 748 746 744
f 23 747 745
f 748 744 750
f 747 750 744
f 750 747 751
f 753 748 750
f 753 749 748
f 749 138 63
f 134 747 23
f 134 751 747
f 751 753 750
f 752 138 749
f 753 752 749
f 755 753 751
f 752 754 138
f 756 752 753
f 134 755 751
f 755 756 753
f 756 754 752
f 757 756 755
f 758 754 756
f 755 134 135
f 758 756 761
f 757 761 756
f 24 755 135
f 24 757 755
f 758 760 754
f 761 757 24
f 762 754 760
f 760 758 761
f 760 761 759
f 761 24 765
f 765 759 761
f 759 762 760
f 765 24 25
f 764 762 759
f 764 763 762
f 765 764 759
f 766 762 763
f 767 25 141
f 767 765 25
f 767 764 765
f 769 763 764
f 766 763 769
f 769 764 768
f 767 768 764
f 26 767 141
f 771 768 767
f 771 767 26
f 766 769 770
f 770 769 768
f 773 766 770
f 770 768 772
f 771 772 768
f 777 772 771
f 774 770 772
f 774 773 770
f 777 771 775
f 775 26 64
f 775 771 26
f 777 774 772
f 775 64 780
f 776 774 777
f 776 777 775
f 7 773 779
f 779 773 774
f 779 774 776
f 776 775 778
f 782 7 779
f 780 778 775
f 779 776 781
f 778 781 776
f 781 782 779
f 785 781 778
f 780 785 778
f 785 783 781
f 783 782 781
f 785 780 65
f 786 783 785
f 784 338 782
f 784 340 338
f 785 65 144
f 783 784 782
f 786 787 783
f 787 784 783
f 144 786 785
f 784 8 340
f 789 787 786
f 788 8 784
f 787 788 784
f 144 789 786
f 789 790 787
f 790 788 787
f 792 789 144
f 792 144 339
f 794 790 789
f 794 789 792
f 791 8 788
f 790 791 788
f 791 790 793
f 792 339 27
f 794 793 790
f 795 793 794
f 795 794 792
f 9 8 791
f 9 791 796
f 796 791 793
f 27 795 792
f 796 793 797
f 800 9 796
f 795 797 793
f 798 797 795
f 800 799 9
f 800 796 797
f 344 795 27
f 344 798 795
f 800 797 802
f 798 802 797
f 802 798 806
f 801 799 800
f 801 800 802
f 344 806 798
f 801 802 804
f 801 803 799
f 802 806 805
f 805 804 802
f 807 803 801
f 807 801 804
f 806 344 153
f 803 68 799
f 807 804 808
f 805 808 804
f 153 805 806
f 809 808 805
f 68 803 811
f 811 803 807
f 811 807 808
f 153 809 805
f 811 808 810
f 154 809 153
f 809 810 808
f 68 811 813
f 813 811 810
f 812 810 809
f 154 812 809
f 817 68 813
f 813 810 814
f 812 814 810
f 156 812 154
f 815 814 812
f 816 813 814
f 816 817 813
f 156 815 812
f 816 814 820
f 815 820 814
f 817 159 70
f 820 815 821
f 819 159 817
f 821 156 28
f 821 815 156
f 818 817 816
f 818 816 820
f 818 819 817
f 820 821 29
f 818 820 822
f 821 28 29
f 822 820 29
f 823 819 818
f 823 818 822
f 823 825 819
f 824 822 29
f 824 823 822
f 30 824 29
f 827 825 823
f 827 829 825
f 824 827 823
f 826 827 824
f 828 825 829
f 30 826 824
f 829 827 832
f 826 832 827
f 164 826 30
f 831 828 829
f 831 829 832
f 832 826 164
f 828 834 166
f 831 832 833
f 834 828 831
f 832 164 830
f 834 831 835
f 835 831 833
f 830 833 832
f 835 833 837
f 836 164 167
f 836 830 164
f 10 834 835
f 830 837 833
f 838 835 837
f 837 830 836
f 838 10 835
f 838 837 839
f 31 836 167
f 837 836 31
f 840 838 839
f 840 10 838
f 31 839 837
f 841 10 840
f 840 839 843
f 843 839 31
f 843 31 845
f 845 31 32
f 840 843 842
f 842 841 840
f 841 12 11
f 846 842 843
f 846 843 845
f 842 12 841
f 844 12 842
f 846 845 33
f 846 844 842
f 33 845 169
f 847 844 846
f 847 846 33
f 844 848 12
f 849 848 844
f 847 849 844
f 175 12 848
f 847 33 854
f 852 847 854
f 852 849 847
f 850 175 848
f 849 850 848
f 851 850 849
f 852 851 849
f 852 854 853
f 850 857 175
f 853 854 34
f 855 852 853
f 855 851 852
f 851 857 850
f 855 856 851
f 856 857 851
f 858 855 853
f 858 853 34
f 859 856 855
f 859 855 858
f 861 857 860
f 856 860 857
f 860 856 859
f 859 858 863
f 862 860 859
f 862 861 860
f 863 862 859
f 863 858 864
f 862 869 861
f 863 866 862
f 866 863 864
f 865 869 862
f 865 862 866
f 869 870 181
f 865 867 869
f 865 866 867
f 866 864 868
f 870 869 867
f 868 867 866
f 35 868 864
f 870 867 874
f 868 871 867
f 874 867 871
f 35 872 868
f 874 871 873
f 872 871 868
f 872 873 871
f 870 874 875
f 876 870 875
f 875 874 873
f 878 873 872
f 182 872 35
f 182 878 872
f 875 873 877
f 878 877 873
f 876 875 880
f 880 349 876
f 877 880 875
f 881 878 182
f 881 877 878
f 881 879 877
f 880 884 349
f 879 880 877
f 881 182 882
f 879 884 880
f 886 879 881
f 886 881 882
f 883 884 879
f 886 883 879
f 882 75 76
f 883 885 884
f 887 886 882
f 887 883 886
f 888 882 76
f 887 882 888
f 889 885 883
f 887 889 883
f 891 78 885
f 889 891 885
f 890 889 887
f 890 887 888
f 891 889 890
f 890 888 892
f 891 890 896
f 893 78 891
f 894 891 896
f 892 888 77
f 896 890 892
f 894 893 891
f 894 896 895
f 896 892 899
f 895 893 894
f 897 893 898
f 899 892 77
f 899 895 896
f 895 898 893
f 899 77 36
f 898 79 897
f 900 898 895
f 900 895 901
f 898 13 79
f 899 901 895
f 902 899 36
f 901 899 902
f 507 898 900
f 507 13 898
f 901 902 506
f 507 900 901
f 37 902 36
f 37 506 902
f 507 901 508
f 380 440 461
f 419 440 380
f 390 468 440
f 390 440 419
f 389 461 441
f 389 380 461
f 381 468 390
f 403 389 441
f 403 441 442
f 403 442 443
f 401 403 443
f 444 401 443
f 400 401 444
f 445 400 444
f 446 379 400
f 446 400 445
f 447 378 379
f 447 379 446
f 619 17 617
f 619 16 17
f 505 16 619
f 15 16 505

