# https://github.com/mikedh/trimesh
v 25.40000000 -23.40000000 -593.89259779
v 25.40000000 -23.40000000 593.89259779
v 25.40000000 37.60000000 593.89259779
v 25.40000000 37.60000000 -593.89259779
v -25.40000000 23.40000000 -593.89259779
v -25.38309361 23.65949902 -593.89259779
v -25.33266026 23.91461084 -593.89259779
v -25.24955260 24.16102246 -593.89259779
v -25.13517568 24.39456793 -593.89259779
v -24.99146320 24.61129884 -593.89259779
v -24.82084482 24.80755106 -593.89259779
v -24.62620508 24.98000668 -593.89259779
v -24.41083464 25.12575008 -593.89259779
v -24.17837463 25.24231727 -593.89259779
v -23.93275511 25.32773753 -593.89259779
v -25.40000000 -23.40000000 -593.89259779
v -23.40000000 -25.40000000 -593.89259779
v -23.66105238 -25.38288972 -593.89259779
v -23.91763809 -25.33185165 -593.89259779
v -24.16536686 -25.24775907 -593.89259779
v -24.40000000 -25.13205081 -593.89259779
v -24.61752286 -24.98670668 -593.89259779
v -24.81421356 -24.81421356 -593.89259779
v -24.98670668 -24.61752286 -593.89259779
v -25.13205081 -24.40000000 -593.89259779
v -25.24775907 -24.16536686 -593.89259779
v -25.33185165 -23.91763809 -593.89259779
v -25.38288972 -23.66105238 -593.89259779
v 23.40000000 -25.40000000 -593.89259779
v 25.38288972 -23.66105238 -593.89259779
v 25.33185165 -23.91763809 -593.89259779
v 25.24775907 -24.16536686 -593.89259779
v 25.13205081 -24.40000000 -593.89259779
v 24.98670668 -24.61752286 -593.89259779
v 24.81421356 -24.81421356 -593.89259779
v 24.61752286 -24.98670668 -593.89259779
v 24.40000000 -25.13205081 -593.89259779
v 24.16536686 -25.24775907 -593.89259779
v 23.91763809 -25.33185165 -593.89259779
v 23.66105238 -25.38288972 -593.89259779
v 24.91454176 38.09978849 -593.89259779
v 24.97845611 38.09380628 -593.89259779
v 25.04107723 38.07968450 -593.89259779
v 25.10137294 38.05765592 -593.89259779
v 25.15834934 38.02808366 -593.89259779
v 25.21106730 37.99145515 -593.89259779
v 25.25865783 37.94837417 -593.89259779
v 25.30033649 37.89955082 -593.89259779
v 25.33541628 37.84578988 -593.89259779
v 25.36331896 37.78797750 -593.89259779
v 25.38358460 37.72706664 -593.89259779
v 25.39587917 37.66406129 -593.89259779
v 24.78369308 38.07839483 -593.89259779
v 24.84840515 38.09344807 -593.89259779
v -23.93275511 25.32773753 593.89259779
v -24.17837463 25.24231727 593.89259779
v -24.41083464 25.12575008 593.89259779
v -24.62620508 24.98000668 593.89259779
v -24.82084482 24.80755106 593.89259779
v -24.99146320 24.61129884 593.89259779
v -25.13517568 24.39456793 593.89259779
v -25.24955260 24.16102246 593.89259779
v -25.33266026 23.91461084 593.89259779
v -25.38309361 23.65949902 593.89259779
v -25.40000000 23.40000000 593.89259779
v -25.40000000 -23.40000000 593.89259779
v -25.38288972 -23.66105238 593.89259779
v -25.33185165 -23.91763809 593.89259779
v -25.24775907 -24.16536686 593.89259779
v -25.13205081 -24.40000000 593.89259779
v -24.98670668 -24.61752286 593.89259779
v -24.81421356 -24.81421356 593.89259779
v -24.61752286 -24.98670668 593.89259779
v -24.40000000 -25.13205081 593.89259779
v -24.16536686 -25.24775907 593.89259779
v -23.91763809 -25.33185165 593.89259779
v -23.66105238 -25.38288972 593.89259779
v -23.40000000 -25.40000000 593.89259779
v 23.40000000 -25.40000000 593.89259779
v 23.66105238 -25.38288972 593.89259779
v 23.91763809 -25.33185165 593.89259779
v 24.16536686 -25.24775907 593.89259779
v 24.40000000 -25.13205081 593.89259779
v 24.61752286 -24.98670668 593.89259779
v 24.81421356 -24.81421356 593.89259779
v 24.98670668 -24.61752286 593.89259779
v 25.13205081 -24.40000000 593.89259779
v 25.24775907 -24.16536686 593.89259779
v 25.33185165 -23.91763809 593.89259779
v 25.38288972 -23.66105238 593.89259779
v 25.39587917 37.66406129 593.89259779
v 25.38358460 37.72706664 593.89259779
v 25.36331896 37.78797750 593.89259779
v 25.33541628 37.84578988 593.89259779
v 25.30033649 37.89955082 593.89259779
v 25.25865783 37.94837417 593.89259779
v 25.21106730 37.99145515 593.89259779
v 25.15834934 38.02808366 593.89259779
v 25.10137294 38.05765592 593.89259779
v 25.04107723 38.07968450 593.89259779
v 24.97845611 38.09380628 593.89259779
v 24.91454176 38.09978849 593.89259779
v 24.84840515 38.09344807 593.89259779
v 24.78369308 38.07839483 593.89259779
v 18.91880000 38.09959984 570.49259779
v 18.84969206 38.09199571 570.49259779
v 18.78230702 38.07487887 570.49259779
v 18.92425824 38.09978849 570.49260110
v 18.78230702 38.07487887 -570.49259779
v 18.84969206 38.09199571 -570.49259779
v 18.91880000 38.09959984 -570.49259779
v 18.92425824 38.09978849 -570.49260110
v 25.60000000 7.07695447 56.25552042
v 25.60000000 7.12594394 56.27924847
v 25.60000000 8.75573294 56.38218923
v 25.60000000 34.53735509 42.18713115
v 25.60000000 7.10104876 28.54974526
v 25.60000000 7.58983001 28.47837246
f 2 1 113
f 117 1 118
f 113 1 117
f 116 118 4
f 116 3 115
f 115 2 114
f 114 2 113
f 53 15 109
f 107 55 104
f 103 102 105
f 3 116 91
f 103 105 106
f 106 104 103
f 107 104 106
f 108 105 102
f 41 54 111
f 111 112 41
f 110 54 53
f 110 53 109
f 110 111 54
f 52 116 4
f 52 91 116
f 4 118 1
f 115 3 2
f 113 117 114
f 118 116 114
f 114 117 118
f 114 116 115
f 55 107 109
f 109 15 55
f 5 16 65
f 16 66 65
f 79 78 17
f 17 29 79
f 102 101 42
f 41 102 42
f 100 99 43
f 43 99 44
f 43 101 100
f 43 42 101
f 108 102 41
f 41 112 108
f 111 108 112
f 105 108 111
f 109 107 110
f 107 106 110
f 105 111 110
f 110 106 105
f 99 98 45
f 44 99 45
f 96 95 48
f 48 47 96
f 50 49 94
f 94 93 50
f 49 48 94
f 94 48 95
f 38 37 82
f 82 37 83
f 39 82 81
f 38 82 39
f 79 29 80
f 29 40 80
f 40 39 80
f 80 39 81
f 14 55 15
f 14 56 55
f 57 56 14
f 14 13 57
f 22 73 72
f 22 72 23
f 18 17 78
f 78 77 18
f 50 93 92
f 92 51 50
f 92 52 51
f 91 52 92
f 61 60 9
f 9 60 10
f 62 61 9
f 9 8 62
f 71 24 23
f 23 72 71
f 28 66 16
f 28 67 66
f 57 13 58
f 13 12 58
f 11 60 59
f 10 60 11
f 59 58 11
f 11 58 12
f 75 74 21
f 21 20 75
f 21 74 73
f 73 22 21
f 19 76 75
f 75 20 19
f 77 76 19
f 19 18 77
f 96 47 97
f 47 46 97
f 97 45 98
f 97 46 45
f 5 65 64
f 64 6 5
f 69 68 27
f 27 26 69
f 27 68 67
f 67 28 27
f 2 90 30
f 1 2 30
f 30 90 89
f 89 31 30
f 32 88 87
f 87 33 32
f 89 88 32
f 32 31 89
f 26 25 70
f 69 26 70
f 24 71 70
f 70 25 24
f 86 33 87
f 86 34 33
f 35 34 86
f 86 85 35
f 36 16 5
f 36 52 4
f 4 1 36
f 17 18 36
f 47 48 36
f 29 17 36
f 41 42 36
f 36 54 41
f 36 43 44
f 36 46 47
f 15 53 36
f 36 37 38
f 26 27 36
f 36 49 50
f 23 24 36
f 36 40 29
f 36 32 33
f 36 28 16
f 53 54 36
f 36 9 10
f 38 39 36
f 36 14 15
f 36 22 23
f 42 43 36
f 44 45 36
f 36 48 49
f 50 51 36
f 51 52 36
f 5 6 36
f 36 19 20
f 1 30 36
f 36 39 40
f 36 7 8
f 13 14 36
f 36 12 13
f 10 11 36
f 20 21 36
f 45 46 36
f 33 34 36
f 8 9 36
f 36 25 26
f 36 11 12
f 36 21 22
f 18 19 36
f 24 25 36
f 36 27 28
f 36 30 31
f 31 32 36
f 36 34 35
f 6 7 36
f 83 37 36
f 36 84 83
f 85 84 36
f 35 85 36
f 63 102 103
f 59 60 63
f 3 91 63
f 55 56 63
f 100 101 63
f 63 2 3
f 63 68 69
f 63 78 79
f 63 58 59
f 93 94 63
f 103 104 63
f 69 70 63
f 63 101 102
f 63 99 100
f 63 95 96
f 63 65 66
f 63 92 93
f 87 88 63
f 63 104 55
f 63 82 83
f 72 73 63
f 63 98 99
f 63 77 78
f 75 76 63
f 96 97 63
f 63 90 2
f 66 67 63
f 63 56 57
f 79 80 63
f 63 74 75
f 63 94 95
f 63 61 62
f 63 71 72
f 81 82 63
f 63 80 81
f 73 74 63
f 63 76 77
f 91 92 63
f 63 60 61
f 83 84 63
f 67 68 63
f 89 90 63
f 63 88 89
f 63 64 65
f 57 58 63
f 63 97 98
f 63 86 87
f 63 84 85
f 63 70 71
f 85 86 63
f 62 8 63
f 8 7 63
f 6 64 63
f 63 7 6

