# https://github.com/mikedh/trimesh
v 40.38600000 6.35000000 -0.00000000
v 40.38600000 6.35000000 2.50000000
v 40.36470807 6.03872304 2.50000000
v 40.30122892 5.73324458 2.50000000
v 40.19674504 5.43925511 2.50000000
v 40.05320276 5.16223109 2.50000000
v 39.87327601 4.90733296 2.50000000
v 39.66031649 4.67930899 2.50000000
v 39.41829122 4.48240682 2.50000000
v 39.15170868 4.32029439 2.50000000
v 38.71859681 4.14219921 2.50000000
v 38.07222789 4.05933875 2.50000000
v 37.45524471 4.15177553 2.50000000
v 36.88608012 4.40724454 2.50000000
v 36.40694644 4.80679884 2.50000000
v 36.05337875 5.32080531 2.50000000
v 35.89877108 5.73324458 2.50000000
v 35.81278358 6.22138715 2.50000000
v 35.81400000 6.35000000 -0.00000000
v 40.36470807 6.03872304 -0.00000000
v 40.30122892 5.73324458 -0.00000000
v 40.19674504 5.43925511 -0.00000000
v 40.05320276 5.16223109 -0.00000000
v 39.87327601 4.90733296 -0.00000000
v 39.66031649 4.67930899 -0.00000000
v 39.41829122 4.48240682 -0.00000000
v 39.15170868 4.32029439 -0.00000000
v 38.86553479 4.19599153 -0.00000000
v 38.43942506 4.08445573 -0.00000000
v 37.94399784 4.06932919 -0.00000000
v 37.50872920 4.13678988 0.00000000
v 36.93353819 4.37838465 0.00000000
v 36.44485832 4.76620512 0.00000000
v 36.07893271 5.27148841 0.00000000
v 35.86290044 5.85675994 -0.00000000
v 65.78381494 6.19378281 -0.00000000
v 65.78747987 6.19353212 2.50000000
v 65.64910026 5.55673567 2.50000000
v 65.45320276 5.16223109 2.50000000
v 65.17299423 4.78753247 2.50000000
v 64.81829122 4.48240682 2.50000000
v 64.41200043 4.25036439 2.50000000
v 63.81220625 4.07853052 2.50000000
v 63.34399784 4.06932919 2.50000000
v 62.90872920 4.13678988 2.50000000
v 62.44829132 4.32029439 2.50000000
v 62.18170878 4.48240682 2.50000000
v 61.93968351 4.67930899 2.50000000
v 61.72672399 4.90733296 2.50000000
v 61.54679724 5.16223109 2.50000000
v 61.40325496 5.43925511 2.50000000
v 61.29877108 5.73324458 2.50000000
v 61.23529193 6.03872304 2.50000000
v 61.21400000 6.35000000 2.50000000
v 61.21400000 6.35000000 -0.00000000
v 65.66770089 5.60907282 -0.00000000
v 65.37316898 5.02777296 0.00000000
v 64.94465587 4.57427932 -0.00000000
v 64.55170868 4.32029439 -0.00000000
v 64.26553479 4.19599153 -0.00000000
v 63.96510045 4.11181378 -0.00000000
v 63.65600216 4.06932919 -0.00000000
v 63.21560183 4.07689246 -0.00000000
v 62.73446521 4.19599153 -0.00000000
v 62.44829132 4.32029439 -0.00000000
v 62.18170878 4.48240682 -0.00000000
v 61.93968351 4.67930899 -0.00000000
v 61.72672399 4.90733296 -0.00000000
v 61.54679724 5.16223109 -0.00000000
v 61.40325496 5.43925511 -0.00000000
v 61.29877108 5.73324458 -0.00000000
v 61.23529193 6.03872304 -0.00000000
v 37.94378281 4.06618506 -53.30000001
v 38.10000000 4.06400000 -50.80000001
v 37.78872304 4.08529193 -50.80000001
v 37.48324458 4.14877108 -50.80000001
v 37.18925511 4.25325496 -50.80000001
v 36.91223109 4.39679724 -50.80000001
v 36.65733296 4.57672399 -50.80000001
v 36.34063483 4.88284819 -50.80000001
v 35.99699502 5.43653604 -50.80000001
v 35.86181378 5.88489955 -50.80000001
v 35.81084852 6.35000000 -50.80000001
v 35.86181378 6.81510045 -50.80000001
v 36.00036439 7.26200043 -50.80000001
v 36.23240682 7.66829122 -50.80000001
v 36.42930899 7.91031649 -50.80000001
v 36.65733296 8.12327601 -50.80000001
v 37.04684145 8.38250377 -50.80000001
v 37.48324458 8.55122892 -50.80000001
v 37.78872304 8.61470807 -50.80000001
v 38.10000000 8.63600000 -50.80000001
v 37.35907282 4.18229911 -53.30000001
v 36.77777296 4.47683102 -53.30000001
v 36.30558154 4.92593447 -53.30000001
v 36.00036439 5.43799957 -53.30000001
v 35.82853052 6.03779375 -53.30000001
v 35.83216979 6.66170603 -53.30000001
v 35.94599153 7.11553479 -53.30000001
v 36.14410457 7.53940640 -53.30000001
v 36.51620512 8.00514168 -53.30000001
v 36.91223109 8.30320276 -53.30000001
v 37.35907282 8.51770089 -53.30000001
v 37.97138715 8.63721642 -53.30000001
v 63.34378281 4.06618506 -53.30000001
v 63.50000000 4.06400000 -50.80000001
v 63.00675994 4.11290044 -50.80000001
v 62.58925511 4.25325496 -50.80000001
v 62.31223109 4.39679724 -50.80000001
v 62.05733296 4.57672399 -50.80000001
v 61.82930899 4.78968351 -50.80000001
v 61.63240682 5.03170878 -50.80000001
v 61.47029439 5.29829132 -50.80000001
v 61.34599153 5.58446521 -50.80000001
v 61.26181378 5.88489955 -50.80000001
v 61.21932919 6.19399784 -50.80000001
v 61.21932919 6.50600216 -50.80000001
v 61.26181378 6.81510045 -50.80000001
v 61.34599153 7.11553479 -50.80000001
v 61.47029439 7.40170868 -50.80000001
v 61.63240682 7.66829122 -50.80000001
v 61.82930899 7.91031649 -50.80000001
v 62.05733296 8.12327601 -50.80000001
v 62.31223109 8.30320276 -50.80000001
v 62.58925511 8.44674504 -50.80000001
v 62.88324458 8.55122892 -50.80000001
v 63.18872304 8.61470807 -50.80000001
v 63.50000000 8.63600000 -50.80000001
v 63.50000000 8.63600000 -53.30000001
v 62.88324458 4.14877108 -53.30000001
v 62.58925511 4.25325496 -53.30000001
v 62.31223109 4.39679724 -53.30000001
v 62.05733296 4.57672399 -53.30000001
v 61.82930899 4.78968351 -53.30000001
v 61.63240682 5.03170878 -53.30000001
v 61.47029439 5.29829132 -53.30000001
v 61.34599153 5.58446521 -53.30000001
v 61.26181378 5.88489955 -53.30000001
v 61.21932919 6.19399784 -53.30000001
v 61.21932919 6.50600216 -53.30000001
v 61.26181378 6.81510045 -53.30000001
v 61.34599153 7.11553479 -53.30000001
v 61.47029439 7.40170868 -53.30000001
v 61.63240682 7.66829122 -53.30000001
v 61.82930899 7.91031649 -53.30000001
v 62.05733296 8.12327601 -53.30000001
v 62.31223109 8.30320276 -53.30000001
v 62.58925511 8.44674504 -53.30000001
v 62.88324458 8.55122892 -53.30000001
v 63.18872304 8.61470807 -53.30000001
v 79.51280000 78.36163117 -27.63310011
v 77.01280000 78.36163117 -27.63310011
v 77.01280000 79.77403078 -27.28451770
v 77.01280000 81.12673517 -26.74919240
v 77.01280000 82.39517737 -26.03684647
v 77.01280000 83.55632072 -25.16041708
v 77.01280000 84.58907725 -24.13582140
v 77.01280000 85.47469068 -22.98166751
v 77.01280000 86.19707704 -21.71891643
v 77.01280000 86.74311681 -20.37050147
v 77.01280000 87.10289315 -18.96091169
v 77.01280000 87.26987202 -17.51574720
v 77.01280000 87.24102086 -16.06125418
v 77.01280000 87.01686364 -14.62384822
v 77.01280000 86.60147138 -13.22963460
v 77.01280000 86.00238815 -11.90393417
v 77.01280000 85.23049415 -10.67082347
v 77.01280000 84.29980804 -9.55269749
v 77.01280000 83.22723235 -8.56986295
v 77.01280000 82.03224654 -7.74016948
v 77.01280000 80.73655320 -7.07868544
v 77.01280000 79.36368391 -6.59742432
v 77.01280000 77.93857188 -6.30512647
v 77.01280000 76.48709909 -6.20710042
v 79.51280000 76.29309481 -6.20396112
v 79.51280000 79.77403078 -27.28451770
v 79.51280000 81.12673517 -26.74919240
v 79.51280000 82.39517737 -26.03684647
v 79.51280000 83.55632072 -25.16041708
v 79.51280000 84.58907725 -24.13582140
v 79.51280000 85.47469068 -22.98166751
v 79.51280000 86.19707704 -21.71891643
v 79.51280000 86.74311681 -20.37050147
v 79.51280000 87.10289315 -18.96091169
v 79.51280000 87.26987202 -17.51574720
v 79.51280000 87.24102086 -16.06125418
v 79.51280000 87.01686364 -14.62384822
v 79.51280000 86.60147138 -13.22963460
v 79.51280000 86.00238815 -11.90393417
v 79.51280000 85.23049415 -10.67082347
v 79.51280000 84.29980804 -9.55269749
v 79.51280000 83.22723235 -8.56986295
v 79.51280000 82.03224654 -7.74016948
v 79.51280000 80.73655320 -7.07868544
v 79.51280000 79.36368391 -6.59742432
v 79.51280000 77.93857188 -6.30512647
v 66.83400000 50.73737921 -50.80000001
v 66.83400000 50.73737921 -53.30000001
v 61.50000000 45.40337921 -50.80000001
v 62.19622671 45.44901232 -50.80000001
v 62.88054079 45.58513085 -50.80000001
v 63.54123343 45.80940578 -50.80000001
v 64.16700000 46.11799970 -50.80000001
v 64.74713346 46.50563249 -50.80000001
v 65.27170757 46.96567164 -50.80000001
v 65.73174672 47.49024575 -50.80000001
v 66.11937950 48.07037921 -50.80000001
v 66.42797343 48.69614578 -50.80000001
v 66.65224836 49.35683842 -50.80000001
v 66.78836689 50.04115250 -50.80000001
v 61.50000000 45.40337921 -53.30000001
v 62.19622671 45.44901232 -53.30000001
v 62.88054079 45.58513085 -53.30000001
v 63.54123343 45.80940578 -53.30000001
v 64.16700000 46.11799970 -53.30000001
v 64.74713346 46.50563249 -53.30000001
v 65.27170757 46.96567164 -53.30000001
v 65.73174672 47.49024575 -53.30000001
v 66.11937950 48.07037921 -53.30000001
v 66.42797343 48.69614578 -53.30000001
v 66.65224836 49.35683842 -53.30000001
v 66.78836689 50.04115250 -53.30000001
v 56.16600000 34.07600039 -9.83597081
v 56.16600000 56.30100039 -48.33080001
v 56.16600000 54.13593688 -49.58080001
v 56.16600000 31.91093688 -11.08597081
v 56.16600000 53.43203144 -53.30000001
v 56.16600000 53.89308408 -53.26776006
v 56.16600000 54.34516287 -53.17166775
v 56.16600000 54.77946859 -53.01359340
v 56.16600000 55.18754797 -52.79661374
v 56.16600000 55.56145823 -52.52495204
v 56.16600000 55.89392161 -52.20389588
v 56.16600000 56.17846711 -51.83969426
v 56.16600000 56.40955635 -51.43943594
v 56.16600000 56.58269146 -51.01091150
v 56.16600000 56.69450256 -50.56246169
v 56.16600000 56.74281337 -50.10281506
v 56.16600000 56.72668357 -49.64091811
v 56.16600000 56.64642712 -49.18576115
v 56.16600000 56.50360611 -48.74620328
v 56.16600000 53.43203144 -50.80000001
v 56.16600000 53.54515133 -50.79208989
v 56.16600000 53.65606948 -50.76851351
v 56.16600000 53.76262698 -50.72972975
v 56.16600000 53.86274981 -50.67649350
v 56.16600000 53.95448920 -50.60984093
v 56.16600000 54.03605955 -50.53106936
v 56.16600000 54.10587317 -50.44171200
v 56.16600000 54.16257124 -50.34350807
v 56.16600000 54.20505017 -50.23836902
v 56.16600000 54.23248318 -50.12834124
v 56.16600000 54.24433630 -50.01556632
v 56.16600000 54.24037883 -49.90223927
v 56.16600000 54.22068780 -49.79056589
v 56.16600000 54.18564647 -49.68271977
v 56.16600000 50.73737921 -53.30000001
v 56.16600000 50.73737921 -50.80000001
v 56.21163311 50.04115250 -50.80000001
v 56.34775164 49.35683842 -50.80000001
v 56.57202657 48.69614578 -50.80000001
v 56.88062050 48.07037921 -50.80000001
v 57.26825328 47.49024575 -50.80000001
v 57.72829243 46.96567164 -50.80000001
v 58.25286654 46.50563249 -50.80000001
v 58.83300000 46.11799970 -50.80000001
v 59.45876657 45.80940578 -50.80000001
v 60.11945921 45.58513085 -50.80000001
v 60.80377329 45.44901232 -50.80000001
v 56.21163311 50.04115250 -53.30000001
v 56.34775164 49.35683842 -53.30000001
v 56.57202657 48.69614578 -53.30000001
v 56.88062050 48.07037921 -53.30000001
v 57.26825328 47.49024575 -53.30000001
v 57.72829243 46.96567164 -53.30000001
v 58.25286654 46.50563249 -53.30000001
v 58.83300000 46.11799970 -53.30000001
v 59.45876657 45.80940578 -53.30000001
v 60.11945921 45.58513085 -53.30000001
v 60.80377329 45.44901232 -53.30000001
v 66.83400000 53.43203144 -50.80000001
v 66.83400000 56.45899478 -48.62799519
v 66.83400000 56.64642712 -49.18576115
v 66.83400000 56.72668357 -49.64091811
v 66.83400000 56.74281337 -50.10281506
v 66.83400000 56.69450256 -50.56246169
v 66.83400000 56.58269146 -51.01091150
v 66.83400000 56.40955635 -51.43943594
v 66.83400000 56.17846711 -51.83969426
v 66.83400000 55.89392161 -52.20389588
v 66.83400000 55.56145823 -52.52495204
v 66.83400000 55.18754797 -52.79661374
v 66.83400000 54.77946859 -53.01359340
v 66.83400000 54.34516287 -53.17166775
v 66.83400000 53.77847451 -53.28384079
v 66.83400000 54.13593688 -49.58080001
v 66.83400000 54.18564647 -49.68271977
v 66.83400000 54.22068780 -49.79056589
v 66.83400000 54.24037883 -49.90223927
v 66.83400000 54.24433630 -50.01556632
v 66.83400000 54.23248318 -50.12834124
v 66.83400000 54.20505017 -50.23836902
v 66.83400000 54.16257124 -50.34350807
v 66.83400000 54.10587317 -50.44171200
v 66.83400000 54.03605955 -50.53106936
v 66.83400000 53.95448920 -50.60984093
v 66.83400000 53.86274981 -50.67649350
v 66.83400000 53.76262698 -50.72972975
v 66.83400000 53.65606948 -50.76851351
v 66.83400000 53.54515133 -50.79208989
v 66.83400000 34.07600039 -9.83597081
v 66.83400000 31.91093688 -11.08597081
v 77.01280000 75.85942567 -6.22536385
v 77.01280000 75.07790914 -6.29832487
v 79.51280000 75.06352357 -6.29833329
v 79.51280000 62.48286238 -8.50989492
v 77.01280000 62.48286238 -8.50989492
v 77.01280000 61.05273427 -8.86416138
v 77.01280000 59.68416572 -9.40986393
v 77.01280000 58.40265059 -10.13683717
v 77.01280000 57.23206106 -11.03153897
v 77.01280000 56.19420302 -12.07730272
v 77.01280000 55.30840978 -13.25464782
v 77.01280000 54.59118201 -14.54164256
v 77.01280000 54.05588030 -15.91431266
v 77.01280000 53.71247631 -17.34708789
v 77.01280000 53.56736700 -18.81327833
v 77.01280000 53.62325548 -20.28557165
v 77.01280000 53.87910067 -21.73654180
v 77.01280000 54.33013664 -23.13915996
v 77.01280000 54.96796146 -24.46729800
v 77.01280000 55.78069364 -25.69621522
v 77.01280000 56.75319354 -26.80301922
v 77.01280000 57.86734531 -27.76709233
v 77.01280000 59.10239441 -28.57047571
v 77.01280000 60.43533423 -29.19820383
v 77.01280000 61.84133460 -29.63858330
v 77.01280000 63.29420441 -29.88341071
v 77.01280000 64.76687944 -29.92812536
v 77.01280000 66.23192654 -29.77189431
v 79.51280000 66.23192654 -29.77189431
v 79.51280000 61.05273427 -8.86416138
v 79.51280000 59.68416572 -9.40986393
v 79.51280000 58.40265059 -10.13683717
v 79.51280000 57.23206106 -11.03153897
v 79.51280000 56.19420302 -12.07730272
v 79.51280000 55.30840978 -13.25464782
v 79.51280000 54.59118201 -14.54164256
v 79.51280000 54.05588030 -15.91431266
v 79.51280000 53.71247631 -17.34708789
v 79.51280000 53.56736700 -18.81327833
v 79.51280000 53.62325548 -20.28557165
v 79.51280000 53.87910067 -21.73654180
v 79.51280000 54.33013664 -23.13915996
v 79.51280000 54.96796146 -24.46729800
v 79.51280000 55.78069364 -25.69621522
v 79.51280000 56.75319354 -26.80301922
v 79.51280000 57.86734531 -27.76709233
v 79.51280000 59.10239441 -28.57047571
v 79.51280000 60.43533423 -29.19820383
v 79.51280000 61.84133460 -29.63858330
v 79.51280000 63.29420441 -29.88341071
v 79.51280000 64.76687944 -29.92812536
v 77.01280000 76.82260452 -1.69640000
v 77.01280000 30.31515759 -1.69640000
v 79.51280000 76.82260452 -1.69640000
v 79.51280000 30.31515759 -1.69640000
v 79.51280000 76.82260452 -35.31538916
v 79.51280000 79.11149707 -35.15882462
v 79.51280000 81.35775188 -34.69204750
v 79.51280000 83.51952548 -33.92375298
v 79.51280000 85.55654811 -32.86825293
v 79.51280000 87.43087390 -31.54520931
v 79.51280000 89.10758770 -29.97926794
v 79.51280000 90.55545550 -28.19959933
v 79.51280000 91.74750628 -26.23935533
v 79.51280000 92.66153438 -24.13505160
v 79.51280000 93.28051318 -21.92588733
v 79.51280000 93.59291228 -19.65301506
v 79.51280000 93.59291228 -17.35877410
v 79.51280000 93.28051318 -15.08590183
v 79.51280000 92.66153438 -12.87673755
v 79.51280000 91.74750628 -10.77243382
v 79.51280000 90.55545550 -8.81218983
v 79.51280000 89.10758770 -7.03252122
v 79.51280000 87.43087390 -5.46657984
v 79.51280000 85.55654811 -4.14353623
v 79.51280000 83.51952548 -3.08803618
v 79.51280000 81.35775188 -2.31974166
v 79.51280000 79.11149707 -1.85296454
v 77.01280000 76.82260452 -35.31538916
v 77.01280000 79.11149707 -35.15882462
v 77.01280000 81.35775188 -34.69204750
v 77.01280000 83.51952548 -33.92375298
v 77.01280000 85.55654811 -32.86825293
v 77.01280000 87.43087390 -31.54520931
v 77.01280000 89.10758770 -29.97926794
v 77.01280000 90.55545550 -28.19959933
v 77.01280000 91.74750628 -26.23935533
v 77.01280000 92.66153438 -24.13505160
v 77.01280000 93.28051318 -21.92588733
v 77.01280000 93.59291228 -19.65301506
v 77.01280000 93.59291228 -17.35877410
v 77.01280000 93.28051318 -15.08590183
v 77.01280000 92.66153438 -12.87673755
v 77.01280000 91.74750628 -10.77243382
v 77.01280000 90.55545550 -8.81218983
v 77.01280000 89.10758770 -7.03252122
v 77.01280000 87.43087390 -5.46657984
v 77.01280000 85.55654811 -4.14353623
v 77.01280000 83.51952548 -3.08803618
v 77.01280000 81.35775188 -2.31974166
v 77.01280000 79.11149707 -1.85296454
v 79.51280000 50.95887505 -35.31538916
v 77.01280000 50.95887505 -35.31538916
v 77.01280000 50.53736137 -35.34824965
v 77.01280000 50.12827596 -35.45503394
v 77.01280000 49.86739157 -35.56186265
v 79.51280000 49.86739157 -35.56186265
v 79.51280000 50.67739985 -35.33103345
v 79.51280000 50.23775910 -35.41619398
v 76.20000000 48.26441959 -39.41103374
v 76.32596111 48.03700344 -39.01252753
v 76.46183850 47.88590090 -38.73472530
v 76.58548955 47.79264559 -38.54889673
v 76.71296021 47.72575555 -38.39813195
v 76.81065759 47.68975081 -38.30213620
v 77.06808771 47.62686971 -38.07524888
v 77.34309354 47.59998847 -37.85328203
v 77.63190671 47.61381629 -37.63331001
v 77.92884737 47.67289843 -37.41270859
v 78.17190470 47.75735090 -37.23114280
v 78.39344383 47.86610097 -37.06076669
v 78.60817470 48.00558120 -36.88699125
v 78.81196464 48.17687884 -36.70918877
v 79.00002758 48.38044852 -36.52709675
v 79.16698279 48.61568891 -36.34106237
v 79.30742483 48.88191048 -36.15148375
v 79.41566485 49.17777281 -35.95913476
v 79.48597169 49.50007229 -35.76586503
v 79.50595214 49.68076472 -35.66355462
v 76.20000000 50.42948310 -38.16103374
v 76.31174174 49.89733350 -37.22389051
v 76.44823902 49.66947141 -36.76698484
v 76.57357725 49.54980200 -36.45551611
v 76.63300522 49.51553053 -36.32814117
v 76.69260183 49.49490781 -36.20973485
v 76.75122789 49.48838251 -36.10003811
v 76.80898084 49.49668491 -35.99641609
v 76.86324411 49.52068846 -35.90100279
v 76.90426544 49.55267457 -35.82826229
v 76.93470753 49.58754666 -35.77240740
v 76.97608818 49.66200205 -35.68908689
v 77.00312260 49.75584370 -35.61857362
v 77.01031822 49.80951051 -35.58842978
v 76.78490339 48.65416039 -37.41676441
v 76.87063180 48.62655155 -37.31415019
v 77.18885766 48.61059745 -36.94145567
v 77.38032016 48.59062051 -36.80298853
v 77.52887480 48.63300138 -36.65988860
v 77.64965088 48.71934094 -36.50844931
v 76.20000000 54.13593688 -49.58080001
v 76.20000000 53.43203144 -53.30000001
v 76.20000000 53.89308408 -53.26776006
v 76.20000000 54.34516287 -53.17166775
v 76.20000000 54.77946859 -53.01359340
v 76.20000000 55.18754797 -52.79661374
v 76.20000000 55.56145823 -52.52495204
v 76.20000000 55.89392161 -52.20389588
v 76.20000000 56.17846711 -51.83969426
v 76.20000000 56.40955635 -51.43943594
v 76.20000000 56.58269146 -51.01091150
v 76.20000000 56.69450256 -50.56246169
v 76.20000000 56.74281337 -50.10281506
v 76.20000000 56.72668357 -49.64091811
v 76.20000000 56.64642712 -49.18576115
v 76.20000000 56.46022768 -48.63890821
v 76.20000000 53.43203144 -50.80000001
v 76.20000000 53.54515133 -50.79208989
v 76.20000000 53.65606948 -50.76851351
v 76.20000000 53.76262698 -50.72972975
v 76.20000000 53.86274981 -50.67649350
v 76.20000000 53.95448920 -50.60984093
v 76.20000000 54.03605955 -50.53106936
v 76.20000000 54.10587317 -50.44171200
v 76.20000000 54.16257124 -50.34350807
v 76.20000000 54.20505017 -50.23836902
v 76.20000000 54.23248318 -50.12834124
v 76.20000000 54.24433630 -50.01556632
v 76.20000000 54.24037883 -49.90223927
v 76.20000000 54.22068780 -49.79056589
v 76.20000000 54.18564647 -49.68271977
v 76.20000000 3.17500000 -50.80000001
v 76.20000000 3.17500000 -53.30000001
v 73.02500000 0.00000000 -50.80000001
v 73.43942066 0.02716257 -50.80000001
v 73.84675047 0.10818550 -50.80000001
v 74.24001990 0.24168248 -50.80000001
v 74.61250000 0.42536934 -50.80000001
v 74.95781754 0.65610314 -50.80000001
v 75.27006403 0.92993597 -50.80000001
v 75.54389686 1.24218246 -50.80000001
v 75.77463066 1.58750000 -50.80000001
v 75.95831752 1.95998010 -50.80000001
v 76.09181450 2.35324953 -50.80000001
v 76.17283743 2.76057934 -50.80000001
v 73.02500000 0.00000000 -53.30000001
v 73.43942066 0.02716257 -53.30000001
v 73.84675047 0.10818550 -53.30000001
v 74.24001990 0.24168248 -53.30000001
v 74.61250000 0.42536934 -53.30000001
v 74.95781754 0.65610314 -53.30000001
v 75.27006403 0.92993597 -53.30000001
v 75.54389686 1.24218246 -53.30000001
v 75.77463066 1.58750000 -53.30000001
v 75.95831752 1.95998010 -53.30000001
v 76.09181450 2.35324953 -53.30000001
v 76.17283743 2.76057934 -53.30000001
v 28.57500000 0.00000000 -50.80000001
v 28.57500000 0.00000000 -53.30000001
v 25.40000000 3.17500000 -50.80000001
v 25.42716257 2.76057934 -50.80000001
v 25.50818550 2.35324953 -50.80000001
v 25.64168248 1.95998010 -50.80000001
v 25.82536934 1.58750000 -50.80000001
v 26.05610314 1.24218246 -50.80000001
v 26.32993597 0.92993597 -50.80000001
v 26.64218246 0.65610314 -50.80000001
v 26.98750000 0.42536934 -50.80000001
v 27.35998010 0.24168248 -50.80000001
v 27.75324953 0.10818550 -50.80000001
v 28.16057934 0.02716257 -50.80000001
v 25.40000000 3.17500000 -53.30000001
v 25.42716257 2.76057934 -53.30000001
v 25.50818550 2.35324953 -53.30000001
v 25.64168248 1.95998010 -53.30000001
v 25.82536934 1.58750000 -53.30000001
v 26.05610314 1.24218246 -53.30000001
v 26.32993597 0.92993597 -53.30000001
v 26.64218246 0.65610314 -53.30000001
v 26.98750000 0.42536934 -53.30000001
v 27.35998010 0.24168248 -53.30000001
v 27.75324953 0.10818550 -53.30000001
v 28.16057934 0.02716257 -53.30000001
v 25.40000000 53.43203144 -50.80000001
v 25.40000000 53.43203144 -53.30000001
v 25.40000000 56.30100039 -48.33080001
v 25.40000000 56.50360611 -48.74620328
v 25.40000000 56.64642712 -49.18576115
v 25.40000000 56.72668357 -49.64091811
v 25.40000000 56.74281337 -50.10281506
v 25.40000000 56.69450256 -50.56246169
v 25.40000000 56.58269146 -51.01091150
v 25.40000000 56.40955635 -51.43943594
v 25.40000000 56.17846711 -51.83969426
v 25.40000000 55.89392161 -52.20389588
v 25.40000000 55.56145823 -52.52495204
v 25.40000000 55.18754797 -52.79661374
v 25.40000000 54.77946859 -53.01359340
v 25.40000000 54.34516287 -53.17166775
v 25.40000000 53.89308408 -53.26776006
v 25.40000000 54.13593688 -49.58080001
v 25.40000000 54.18564647 -49.68271977
v 25.40000000 54.22068780 -49.79056589
v 25.40000000 54.24037883 -49.90223927
v 25.40000000 54.24433630 -50.01556632
v 25.40000000 54.23248318 -50.12834124
v 25.40000000 54.20505017 -50.23836902
v 25.40000000 54.16257124 -50.34350807
v 25.40000000 54.10587317 -50.44171200
v 25.40000000 54.03605955 -50.53106936
v 25.40000000 53.95448920 -50.60984093
v 25.40000000 53.86274981 -50.67649350
v 25.40000000 53.76262698 -50.72972975
v 25.40000000 53.65606948 -50.76851351
v 25.40000000 53.54515133 -50.79208989
v 25.40000000 25.74508380 -0.40640000
v 25.40000000 27.91014731 0.84360000
v 25.40000000 25.04117836 2.50000000
v 25.40000000 25.47358552 2.47165854
v 25.40000000 25.89859409 2.38711908
v 25.40000000 26.30893203 2.24782812
v 25.40000000 26.69757836 2.05616896
v 25.40000000 27.05788322 1.81542095
v 25.40000000 27.38368170 1.52970334
v 25.40000000 27.66939930 1.20390486
v 25.40000000 25.04117836 -0.00000000
v 25.40000000 25.14727004 -0.00695362
v 25.40000000 25.25154648 -0.02769549
v 25.40000000 25.35222345 -0.06187072
v 25.40000000 25.44757836 -0.10889455
v 25.40000000 25.53597964 -0.16796241
v 25.40000000 25.61591475 -0.23806361
v 25.40000000 25.68601595 -0.31799871
v 25.40000000 3.17500000 2.50000000
v 25.40000000 3.17500000 -0.00000000
v 28.57500000 -0.00000000 -0.00000000
v 28.16057934 0.02716257 -0.00000000
v 27.75324953 0.10818550 -0.00000000
v 27.35998010 0.24168248 -0.00000000
v 26.98750000 0.42536934 -0.00000000
v 26.64218246 0.65610314 -0.00000000
v 26.32993597 0.92993597 -0.00000000
v 26.05610314 1.24218246 -0.00000000
v 25.82536934 1.58750000 -0.00000000
v 25.64168248 1.95998010 -0.00000000
v 25.50818550 2.35324953 -0.00000000
v 25.42716257 2.76057934 -0.00000000
v 28.57500000 -0.00000000 2.50000000
v 28.16057934 0.02716257 2.50000000
v 27.75324953 0.10818550 2.50000000
v 27.35998010 0.24168248 2.50000000
v 26.98750000 0.42536934 2.50000000
v 26.64218246 0.65610314 2.50000000
v 26.32993597 0.92993597 2.50000000
v 26.05610314 1.24218246 2.50000000
v 25.82536934 1.58750000 2.50000000
v 25.64168248 1.95998010 2.50000000
v 25.50818550 2.35324953 2.50000000
v 25.42716257 2.76057934 2.50000000
v 73.02500000 0.00000000 2.50000000
v 73.02500000 0.00000000 -0.00000000
v 76.20000000 3.17500000 -0.00000000
v 76.17283743 2.76057934 -0.00000000
v 76.09181450 2.35324953 -0.00000000
v 75.95831752 1.95998010 -0.00000000
v 75.77463066 1.58750000 -0.00000000
v 75.54389686 1.24218246 -0.00000000
v 75.27006403 0.92993597 -0.00000000
v 74.95781754 0.65610314 -0.00000000
v 74.61250000 0.42536934 -0.00000000
v 74.24001990 0.24168248 -0.00000000
v 73.84675047 0.10818550 -0.00000000
v 73.43942066 0.02716257 -0.00000000
v 76.20000000 3.17500000 2.50000000
v 76.17283743 2.76057934 2.50000000
v 76.09181450 2.35324953 2.50000000
v 75.95831752 1.95998010 2.50000000
v 75.77463066 1.58750000 2.50000000
v 75.54389686 1.24218246 2.50000000
v 75.27006403 0.92993597 2.50000000
v 74.95781754 0.65610314 2.50000000
v 74.61250000 0.42536934 2.50000000
v 74.24001990 0.24168248 2.50000000
v 73.84675047 0.10818550 2.50000000
v 73.43942066 0.02716257 2.50000000
v 76.20000000 25.04117836 2.50000000
v 76.20000000 25.04117836 -0.00000000
v 76.20000000 27.91014731 0.84360000
v 76.20000000 27.66939930 1.20390486
v 76.20000000 27.38368170 1.52970334
v 76.20000000 27.05788322 1.81542095
v 76.20000000 26.69757836 2.05616896
v 76.20000000 26.30893203 2.24782812
v 76.20000000 25.89859409 2.38711908
v 76.20000000 25.47358552 2.47165854
v 76.20000000 25.74508380 -0.40640000
v 76.20000000 25.68601595 -0.31799871
v 76.20000000 25.61591475 -0.23806361
v 76.20000000 25.53597964 -0.16796241
v 76.20000000 25.44757836 -0.10889455
v 76.20000000 25.35222345 -0.06187072
v 76.20000000 25.25154648 -0.02769549
v 76.20000000 25.14727004 -0.00695362
v 76.20000000 28.08661130 0.53795541
v 76.20000000 25.92154779 -0.71204459
v 78.40344439 27.74803208 -2.19752338
v 78.03819222 27.39984048 -2.15918263
v 77.68042134 27.11241409 -2.07633489
v 77.42275008 26.92770063 -1.98705140
v 77.18702305 26.76955209 -1.88019232
v 76.97209954 26.63025228 -1.75714982
v 76.78090488 26.50526904 -1.62054054
v 76.61501021 26.39064551 -1.47264897
v 76.47528646 26.28307220 -1.31538586
v 76.36255633 26.17930868 -1.15062206
v 76.27711832 26.07696129 -0.97973955
v 76.23073156 25.99963659 -0.84718336
v 76.74061809 29.36474372 -1.26411449
v 76.60450049 29.12018944 -1.03668833
v 76.47737584 28.89999754 -0.77334081
v 76.36928204 28.69463274 -0.47952136
v 76.28572533 28.49504938 -0.16047107
v 76.22902100 28.29404281 0.17965053
v 77.45833097 28.42346574 -1.68904585
v 77.26500374 28.23092492 -1.60027570
v 77.00417302 27.98886680 -1.43638530
v 76.85868183 27.84212730 -1.32277497
v 76.70192188 27.71935434 -1.16773179
v 76.48541837 27.49371320 -0.89561307
v 63.81127696 8.61470807 -50.80000001
v 64.11675542 8.55122892 -50.80000001
v 64.41074489 8.44674504 -50.80000001
v 64.68776891 8.30320276 -50.80000001
v 65.04320116 8.04305356 -50.80000001
v 65.36759318 7.66829122 -50.80000001
v 65.52970561 7.40170868 -50.80000001
v 65.65400847 7.11553479 -50.80000001
v 65.76554427 6.68942506 -50.80000001
v 65.78067081 6.19399784 -50.80000001
v 65.73818622 5.88489955 -50.80000001
v 65.65400847 5.58446521 -50.80000001
v 65.52970561 5.29829132 -50.80000001
v 65.36759318 5.03170878 -50.80000001
v 65.17069101 4.78968351 -50.80000001
v 64.94266704 4.57672399 -50.80000001
v 64.68776891 4.39679724 -50.80000001
v 64.41074489 4.25325496 -50.80000001
v 64.11675542 4.14877108 -50.80000001
v 63.81127696 4.08529193 -50.80000001
v 63.81127696 8.61470807 -53.30000001
v 64.11675542 8.55122892 -53.30000001
v 64.41074489 8.44674504 -53.30000001
v 64.68776891 8.30320276 -53.30000001
v 64.94266704 8.12327601 -53.30000001
v 65.27572068 7.79465587 -53.30000001
v 65.60300498 7.26346396 -53.30000001
v 65.73818622 6.81510045 -53.30000001
v 65.79066125 6.32222789 -53.30000001
v 65.69822447 5.70524471 -53.30000001
v 65.44275546 5.13608012 -53.30000001
v 65.04320116 4.65694644 -53.30000001
v 64.52919469 4.30337875 -53.30000001
v 63.93885759 4.10159963 -53.30000001
v 38.41127696 8.61470807 -50.80000001
v 38.71675542 8.55122892 -50.80000001
v 39.01074489 8.44674504 -50.80000001
v 39.28776891 8.30320276 -50.80000001
v 39.54266704 8.12327601 -50.80000001
v 39.77069101 7.91031649 -50.80000001
v 39.96759318 7.66829122 -50.80000001
v 40.12970561 7.40170868 -50.80000001
v 40.25400847 7.11553479 -50.80000001
v 40.33818622 6.81510045 -50.80000001
v 40.38067081 6.50600216 -50.80000001
v 40.38067081 6.19399784 -50.80000001
v 40.33818622 5.88489955 -50.80000001
v 40.25400847 5.58446521 -50.80000001
v 40.12970561 5.29829132 -50.80000001
v 39.96759318 5.03170878 -50.80000001
v 39.77069101 4.78968351 -50.80000001
v 39.54266704 4.57672399 -50.80000001
v 39.28776891 4.39679724 -50.80000001
v 39.01074489 4.25325496 -50.80000001
v 38.71675542 4.14877108 -50.80000001
v 38.41127696 4.08529193 -50.80000001
v 38.41127696 8.61470807 -53.30000001
v 38.71675542 8.55122892 -53.30000001
v 39.01074489 8.44674504 -53.30000001
v 39.28776891 8.30320276 -53.30000001
v 39.54266704 8.12327601 -53.30000001
v 39.77069101 7.91031649 -53.30000001
v 39.96759318 7.66829122 -53.30000001
v 40.12970561 7.40170868 -53.30000001
v 40.25400847 7.11553479 -53.30000001
v 40.33818622 6.81510045 -53.30000001
v 40.38067081 6.50600216 -53.30000001
v 40.38067081 6.19399784 -53.30000001
v 40.33818622 5.88489955 -53.30000001
v 40.25400847 5.58446521 -53.30000001
v 40.12970561 5.29829132 -53.30000001
v 39.96759318 5.03170878 -53.30000001
v 39.77069101 4.78968351 -53.30000001
v 39.54266704 4.57672399 -53.30000001
v 39.28776891 4.39679724 -53.30000001
v 39.01074489 4.25325496 -53.30000001
v 38.53885759 4.10159963 -53.30000001
v 66.78431884 33.71284394 -9.20696538
v 66.63620081 33.35645240 -8.58967713
v 66.39240508 33.01346469 -7.99560498
v 66.05747310 32.69027000 -7.43581536
v 65.63764402 32.39288885 -6.92073609
v 65.14073847 32.12686088 -6.45996213
v 64.57601284 31.89714169 -6.06207683
v 63.95398691 31.70801052 -5.73449203
v 63.28624785 31.56299051 -5.48331002
v 62.58523437 31.46478313 -5.31320984
v 61.86400503 31.41521779 -5.22736014
v 61.13599497 31.41521779 -5.22736014
v 60.41476563 31.46478313 -5.31320984
v 59.71375215 31.56299051 -5.48331002
v 59.04601309 31.70801052 -5.73449203
v 58.42398716 31.89714169 -6.06207683
v 57.85926153 32.12686088 -6.45996213
v 57.36235598 32.39288885 -6.92073609
v 56.94252690 32.69027000 -7.43581536
v 56.60759492 33.01346469 -7.99560498
v 56.36379919 33.35645240 -8.58967713
v 56.21568116 33.71284394 -9.20696538
v 66.78431884 31.54778043 -10.45696538
v 66.63620081 31.19138890 -9.83967713
v 66.39240508 30.84840118 -9.24560498
v 66.05747310 30.52520649 -8.68581536
v 65.63764402 30.22782534 -8.17073609
v 65.14073847 29.96179737 -7.70996213
v 64.57601284 29.73207818 -7.31207683
v 63.95398691 29.54294701 -6.98449203
v 63.28624785 29.39792700 -6.73331002
v 62.58523437 29.29971962 -6.56320984
v 61.86400503 29.25015428 -6.47736014
v 61.13599497 29.25015428 -6.47736014
v 60.41476563 29.29971962 -6.56320984
v 59.71375215 29.39792700 -6.73331002
v 59.04601309 29.54294701 -6.98449203
v 58.42398716 29.73207818 -7.31207683
v 57.85926153 29.96179737 -7.70996213
v 57.36235598 30.22782534 -8.17073609
v 56.94252690 30.52520649 -8.68581536
v 56.60759492 30.84840118 -9.24560498
v 56.36379919 31.19138890 -9.83967713
v 56.21568116 31.54778043 -10.45696538
v 61.23529193 6.66127696 2.50000000
v 61.29877108 6.96675542 2.50000000
v 61.40325496 7.26074489 2.50000000
v 61.54679724 7.53776891 2.50000000
v 61.72672399 7.79266704 2.50000000
v 61.93968351 8.02069101 2.50000000
v 62.18170878 8.21759318 2.50000000
v 62.44829132 8.37970561 2.50000000
v 62.85524471 8.54822447 2.50000000
v 63.50000000 8.64282498 2.50000000
v 63.96510045 8.58818622 2.50000000
v 64.41200043 8.44963561 2.50000000
v 64.81829122 8.21759318 2.50000000
v 65.15514168 7.93379488 2.50000000
v 65.52106729 7.42851159 2.50000000
v 65.73709956 6.84324006 2.50000000
v 61.23529193 6.66127696 -0.00000000
v 61.29877108 6.96675542 -0.00000000
v 61.40325496 7.26074489 -0.00000000
v 61.54679724 7.53776891 -0.00000000
v 61.72672399 7.79266704 -0.00000000
v 61.93968351 8.02069101 -0.00000000
v 62.18170878 8.21759318 -0.00000000
v 62.44829132 8.37970561 -0.00000000
v 62.90872920 8.56321012 0.00000000
v 63.50000000 8.63915148 -0.00000000
v 64.11859681 8.55780079 0.00000000
v 64.71391988 8.29275546 -0.00000000
v 65.19305356 7.89320116 -0.00000000
v 65.54662125 7.37919469 -0.00000000
v 65.74840037 6.78885759 -0.00000000
v 35.85872822 6.81574166 2.50000000
v 36.06423459 7.40484860 2.50000000
v 36.44485832 7.93379488 2.50000000
v 36.78170878 8.21759318 2.50000000
v 37.18799957 8.44963561 2.50000000
v 37.78779375 8.62146948 2.50000000
v 38.25600216 8.63067081 2.50000000
v 38.71760572 8.55426352 2.50000000
v 39.15170868 8.37970561 2.50000000
v 39.41829122 8.21759318 2.50000000
v 39.66031649 8.02069101 2.50000000
v 39.87327601 7.79266704 2.50000000
v 40.05320276 7.53776891 2.50000000
v 40.19674504 7.26074489 2.50000000
v 40.30122892 6.96675542 2.50000000
v 40.36470807 6.66127696 2.50000000
v 35.83529193 6.66127696 -0.00000000
v 35.93229911 7.09092718 -0.00000000
v 36.21258309 7.64829028 0.00000000
v 36.53968351 8.02069101 -0.00000000
v 36.88608012 8.29275546 -0.00000000
v 37.33446521 8.50400847 -0.00000000
v 37.63489955 8.58818622 -0.00000000
v 37.94399784 8.63067081 -0.00000000
v 38.41220625 8.62146948 0.00000000
v 39.03807482 8.43995594 -0.00000000
v 39.41829122 8.21759318 -0.00000000
v 39.66031649 8.02069101 -0.00000000
v 39.87327601 7.79266704 -0.00000000
v 40.05320276 7.53776891 -0.00000000
v 40.19674504 7.26074489 -0.00000000
v 40.30122892 6.96675542 -0.00000000
v 40.36470807 6.66127696 -0.00000000
v 79.47993563 29.84257009 -1.80574732
v 79.38261900 29.37787286 -1.91053919
v 79.22276483 28.92881591 -2.00630113
v 79.00293646 28.50305106 -2.08861538
v 78.72802669 28.10732546 -2.15358646
v 76.99573552 30.06873044 -1.60028409
v 76.94551275 29.82828209 -1.50072816
v 76.89277477 29.66984753 -1.42870222
v 76.82334570 29.51248319 -1.34919216
v 78.25898313 30.15428448 -1.70755428
v 78.20205618 29.76298974 -1.73249657
v 78.14093007 29.53630378 -1.74418721
v 78.02398301 29.23605461 -1.75403610
v 77.86740683 28.94655427 -1.75424724
v 77.77807250 28.81234974 -1.74997752
f 18 35 19
f 17 35 18
f 16 34 35
f 16 35 17
f 15 33 34
f 15 34 16
f 14 32 33
f 14 33 15
f 13 31 32
f 13 32 14
f 12 30 31
f 12 31 13
f 12 29 30
f 11 29 12
f 11 27 28
f 11 28 29
f 10 27 11
f 10 26 27
f 9 26 10
f 8 26 9
f 8 25 26
f 7 25 8
f 7 24 25
f 6 23 24
f 6 24 7
f 5 23 6
f 5 21 22
f 5 22 23
f 4 21 5
f 3 20 21
f 3 21 4
f 2 1 20
f 2 20 3
f 53 55 54
f 53 72 55
f 52 71 72
f 52 72 53
f 51 70 71
f 51 71 52
f 50 69 70
f 50 70 51
f 49 68 69
f 49 69 50
f 48 67 68
f 48 68 49
f 47 66 67
f 47 67 48
f 46 64 65
f 46 65 66
f 46 66 47
f 45 64 46
f 45 63 64
f 44 63 45
f 43 63 44
f 43 62 63
f 43 60 61
f 43 61 62
f 42 60 43
f 42 59 60
f 41 59 42
f 41 58 59
f 40 58 41
f 40 57 58
f 39 57 40
f 38 56 57
f 38 57 39
f 37 36 56
f 37 56 38
f 91 103 104
f 91 104 92
f 90 103 91
f 89 102 103
f 89 103 90
f 88 101 102
f 88 102 89
f 87 101 88
f 86 100 101
f 86 101 87
f 85 99 100
f 85 100 86
f 84 98 99
f 84 99 85
f 83 97 98
f 83 98 84
f 82 97 83
f 81 97 82
f 81 96 97
f 81 95 96
f 80 95 81
f 80 94 95
f 79 94 80
f 78 94 79
f 77 93 94
f 77 94 78
f 76 93 77
f 75 73 93
f 75 93 76
f 74 73 75
f 128 150 129
f 127 149 150
f 127 150 128
f 126 148 149
f 126 149 127
f 125 147 148
f 125 148 126
f 124 147 125
f 123 145 146
f 123 146 147
f 123 147 124
f 122 145 123
f 121 143 144
f 121 144 145
f 121 145 122
f 120 142 143
f 120 143 121
f 119 142 120
f 118 140 141
f 118 141 142
f 118 142 119
f 117 139 140
f 117 140 118
f 116 139 117
f 115 139 116
f 115 138 139
f 114 138 115
f 114 137 138
f 113 137 114
f 113 135 136
f 113 136 137
f 112 135 113
f 111 135 112
f 111 133 134
f 111 134 135
f 110 133 111
f 110 132 133
f 109 132 110
f 108 131 132
f 108 132 109
f 107 130 131
f 107 131 108
f 107 105 130
f 106 105 107
f 174 196 175
f 173 195 196
f 173 196 174
f 172 194 195
f 172 195 173
f 171 193 194
f 171 194 172
f 170 192 193
f 170 193 171
f 169 191 192
f 169 192 170
f 168 190 191
f 168 191 169
f 167 190 168
f 166 188 189
f 166 189 190
f 166 190 167
f 165 187 188
f 165 188 166
f 164 186 187
f 164 187 165
f 163 185 186
f 163 186 164
f 162 184 185
f 162 185 163
f 161 184 162
f 160 184 161
f 160 182 183
f 160 183 184
f 159 182 160
f 159 181 182
f 158 181 159
f 157 181 158
f 157 179 180
f 157 180 181
f 156 179 157
f 156 178 179
f 155 178 156
f 154 176 177
f 154 177 178
f 154 178 155
f 153 151 176
f 153 176 154
f 152 151 153
f 200 211 199
f 200 212 211
f 201 213 212
f 201 212 200
f 202 214 213
f 202 213 201
f 203 215 214
f 203 214 202
f 204 216 215
f 204 215 203
f 205 217 216
f 205 216 204
f 206 218 217
f 206 217 205
f 207 219 218
f 207 218 206
f 208 220 219
f 208 219 207
f 209 221 220
f 209 220 208
f 210 222 221
f 210 221 209
f 197 198 222
f 197 222 210
f 225 224 223
f 225 223 226
f 243 227 228
f 243 228 229
f 243 242 227
f 244 229 230
f 244 243 229
f 245 230 231
f 245 244 230
f 246 231 232
f 246 245 231
f 247 246 232
f 233 248 247
f 233 247 232
f 234 249 248
f 234 248 233
f 235 250 249
f 235 249 234
f 236 251 250
f 236 250 235
f 237 252 251
f 237 251 236
f 238 253 252
f 238 252 237
f 239 254 253
f 239 253 238
f 240 255 254
f 240 254 239
f 241 256 255
f 241 255 240
f 224 225 256
f 224 256 241
f 258 257 227
f 258 227 242
f 258 270 257
f 259 270 258
f 260 271 270
f 260 270 259
f 261 272 271
f 261 271 260
f 262 273 272
f 262 272 261
f 263 274 273
f 263 273 262
f 264 275 274
f 264 274 263
f 265 276 275
f 265 275 264
f 266 277 276
f 266 276 265
f 267 278 277
f 267 277 266
f 268 279 278
f 268 278 267
f 269 280 279
f 269 279 268
f 199 211 280
f 199 280 269
f 295 198 197
f 281 295 197
f 310 294 295
f 310 295 281
f 309 293 294
f 309 294 310
f 308 292 293
f 308 293 309
f 307 291 292
f 307 292 308
f 306 291 307
f 290 306 305
f 290 291 306
f 289 305 304
f 289 290 305
f 288 304 303
f 288 289 304
f 287 303 302
f 287 288 303
f 286 302 301
f 286 287 302
f 285 300 299
f 285 301 300
f 285 286 301
f 284 299 298
f 284 285 299
f 283 298 297
f 283 284 298
f 282 283 297
f 282 297 296
f 311 282 296
f 312 311 296
f 313 175 315
f 313 315 314
f 174 175 313
f 317 314 315
f 317 315 316
f 339 341 340
f 339 363 341
f 338 362 363
f 338 363 339
f 337 361 362
f 337 362 338
f 336 360 361
f 336 361 337
f 335 359 360
f 335 360 336
f 334 358 359
f 334 359 335
f 333 357 358
f 333 358 334
f 332 356 357
f 332 357 333
f 331 355 356
f 331 356 332
f 330 354 355
f 330 355 331
f 329 353 354
f 329 354 330
f 328 353 329
f 328 352 353
f 327 352 328
f 327 351 352
f 326 351 327
f 326 349 350
f 326 350 351
f 325 349 326
f 325 348 349
f 324 348 325
f 323 348 324
f 323 346 347
f 323 347 348
f 322 346 323
f 321 346 322
f 321 345 346
f 320 345 321
f 320 344 345
f 319 343 344
f 319 344 320
f 318 342 343
f 318 343 319
f 317 316 342
f 317 342 318
f 365 366 364
f 365 367 366
f 413 364 366
f 413 366 390
f 412 390 389
f 412 413 390
f 411 389 388
f 411 412 389
f 410 388 387
f 410 411 388
f 409 387 386
f 409 410 387
f 408 386 385
f 408 409 386
f 407 385 384
f 407 408 385
f 406 384 383
f 406 407 384
f 405 383 382
f 405 406 383
f 404 382 381
f 404 405 382
f 403 381 380
f 403 404 381
f 402 403 380
f 402 380 379
f 401 402 379
f 401 379 378
f 400 377 376
f 400 378 377
f 400 401 378
f 399 400 376
f 398 376 375
f 398 399 376
f 397 375 374
f 397 398 375
f 396 374 373
f 396 397 374
f 395 373 372
f 395 396 373
f 394 372 371
f 394 395 372
f 393 371 370
f 393 394 371
f 392 370 369
f 392 393 370
f 391 369 368
f 391 392 369
f 415 391 368
f 415 368 414
f 418 421 419
f 417 421 418
f 416 420 421
f 416 421 417
f 415 414 420
f 415 420 416
f 442 423 422
f 443 424 423
f 443 423 442
f 418 441 455
f 418 419 441
f 456 425 424
f 456 426 425
f 456 427 426
f 456 428 427
f 456 429 428
f 456 443 444
f 456 424 443
f 457 444 445
f 457 429 456
f 457 456 444
f 458 430 429
f 458 429 457
f 458 457 445
f 458 431 430
f 458 445 446
f 459 432 431
f 459 446 447
f 459 431 458
f 459 458 446
f 460 433 432
f 460 447 448
f 460 459 447
f 460 432 459
f 461 455 441
f 461 434 433
f 461 435 434
f 461 436 435
f 461 437 436
f 461 438 437
f 461 439 438
f 461 440 439
f 461 441 440
f 461 448 449
f 461 449 450
f 461 450 451
f 461 451 452
f 461 452 453
f 461 453 454
f 461 454 455
f 461 460 448
f 461 433 460
f 442 462 477
f 422 462 442
f 484 469 470
f 483 468 469
f 483 469 484
f 485 470 471
f 485 484 470
f 482 467 468
f 482 468 483
f 486 471 472
f 486 485 471
f 481 466 467
f 481 467 482
f 487 472 473
f 487 486 472
f 480 465 466
f 480 466 481
f 488 473 474
f 488 487 473
f 479 464 465
f 479 465 480
f 489 474 475
f 489 488 474
f 478 463 464
f 478 464 479
f 490 475 476
f 490 489 475
f 491 490 476
f 492 476 477
f 492 491 476
f 462 492 477
f 463 493 494
f 478 493 463
f 495 507 508
f 496 508 509
f 496 495 508
f 497 509 510
f 497 496 509
f 498 510 511
f 498 497 510
f 499 511 512
f 499 498 511
f 500 512 513
f 500 499 512
f 501 513 514
f 501 500 513
f 502 514 515
f 502 501 514
f 503 515 516
f 503 502 515
f 504 516 517
f 504 503 516
f 505 517 518
f 505 504 517
f 506 518 494
f 506 505 518
f 493 506 494
f 507 519 520
f 495 519 507
f 522 521 533
f 522 533 534
f 523 534 535
f 523 522 534
f 524 535 536
f 524 523 535
f 525 536 537
f 525 524 536
f 526 537 538
f 526 525 537
f 527 538 539
f 527 526 538
f 528 539 540
f 528 527 539
f 529 540 541
f 529 528 540
f 530 541 542
f 530 529 541
f 531 542 543
f 531 530 542
f 532 543 544
f 532 531 543
f 519 544 520
f 519 532 544
f 521 545 546
f 521 546 533
f 576 560 561
f 576 561 546
f 576 546 545
f 575 559 560
f 575 560 576
f 574 558 559
f 574 559 575
f 573 557 558
f 573 558 574
f 572 557 573
f 556 572 571
f 556 557 572
f 555 571 570
f 555 556 571
f 554 570 569
f 554 555 570
f 553 569 568
f 553 554 569
f 552 568 567
f 552 553 568
f 551 567 566
f 551 552 567
f 550 566 565
f 550 551 566
f 549 565 564
f 549 550 565
f 548 564 563
f 548 549 564
f 547 563 562
f 547 548 563
f 562 577 578
f 562 578 547
f 579 588 587
f 580 589 588
f 580 588 579
f 581 590 589
f 581 589 580
f 582 591 590
f 582 590 581
f 583 591 582
f 584 592 591
f 584 591 583
f 586 594 593
f 586 577 594
f 586 578 577
f 585 593 592
f 585 592 584
f 585 586 593
f 579 596 595
f 579 587 596
f 620 595 596
f 620 596 608
f 619 608 607
f 619 620 608
f 618 607 606
f 618 619 607
f 617 606 605
f 617 618 606
f 616 605 604
f 616 617 605
f 615 604 603
f 615 616 604
f 614 603 602
f 614 615 603
f 613 602 601
f 613 614 602
f 612 601 600
f 612 613 601
f 611 600 599
f 611 612 600
f 610 599 598
f 610 611 599
f 609 598 597
f 609 610 598
f 597 622 621
f 609 597 621
f 646 621 622
f 646 622 634
f 645 634 633
f 645 646 634
f 644 633 632
f 644 645 633
f 643 632 631
f 643 644 632
f 642 631 630
f 642 643 631
f 641 629 628
f 641 630 629
f 641 642 630
f 640 641 628
f 639 627 626
f 639 628 627
f 639 640 628
f 638 639 626
f 637 626 625
f 637 638 626
f 636 625 624
f 636 637 625
f 635 624 623
f 635 636 624
f 635 648 647
f 635 623 648
f 657 649 650
f 658 657 650
f 651 659 658
f 651 658 650
f 652 660 659
f 652 659 651
f 653 661 660
f 653 660 652
f 654 662 661
f 654 661 653
f 655 663 662
f 655 662 654
f 656 664 663
f 656 663 655
f 647 648 664
f 647 664 656
f 657 665 649
f 666 665 657
f 685 668 667
f 685 667 679
f 685 679 680
f 686 669 668
f 686 668 685
f 686 685 680
f 687 670 669
f 687 680 681
f 687 669 686
f 687 686 680
f 688 671 670
f 688 687 681
f 688 670 687
f 689 672 671
f 689 681 682
f 689 671 688
f 689 688 681
f 689 673 672
f 690 665 666
f 690 674 673
f 690 675 674
f 690 676 675
f 690 677 676
f 690 678 677
f 690 666 678
f 690 682 683
f 690 683 684
f 690 684 665
f 690 673 689
f 690 689 682
f 106 724 105
f 710 724 106
f 709 723 724
f 709 724 710
f 708 723 709
f 707 722 723
f 707 723 708
f 706 722 707
f 705 721 722
f 705 722 706
f 704 721 705
f 703 720 721
f 703 721 704
f 702 720 703
f 701 719 720
f 701 720 702
f 700 719 701
f 699 719 700
f 699 718 719
f 699 717 718
f 698 717 699
f 697 717 698
f 696 717 697
f 696 716 717
f 695 716 696
f 695 715 716
f 695 714 715
f 694 714 695
f 694 713 714
f 693 712 713
f 693 713 694
f 692 712 693
f 691 129 711
f 691 711 712
f 691 712 692
f 128 129 691
f 74 767 73
f 746 767 74
f 745 766 767
f 745 767 746
f 744 765 766
f 744 766 745
f 743 764 765
f 743 765 744
f 742 763 764
f 742 764 743
f 741 762 763
f 741 763 742
f 740 761 762
f 740 762 741
f 739 760 761
f 739 761 740
f 738 759 760
f 738 760 739
f 737 758 759
f 737 759 738
f 736 757 758
f 736 758 737
f 735 757 736
f 735 756 757
f 734 756 735
f 734 755 756
f 733 755 734
f 733 754 755
f 732 754 733
f 731 754 732
f 731 752 753
f 731 753 754
f 730 752 731
f 730 751 752
f 729 751 730
f 729 750 751
f 728 750 729
f 728 749 750
f 727 748 749
f 727 749 728
f 726 748 727
f 725 104 747
f 725 747 748
f 725 748 726
f 92 104 725
f 790 311 312
f 790 768 311
f 791 769 768
f 791 768 790
f 792 770 769
f 792 769 791
f 793 771 770
f 793 770 792
f 794 772 771
f 794 771 793
f 795 773 772
f 795 772 794
f 796 774 773
f 796 773 795
f 797 775 774
f 797 774 796
f 798 776 775
f 798 775 797
f 799 777 776
f 799 776 798
f 800 778 777
f 800 777 799
f 801 778 800
f 801 779 778
f 802 779 801
f 802 780 779
f 803 780 802
f 803 781 780
f 804 781 803
f 804 782 781
f 805 782 804
f 805 783 782
f 806 784 783
f 806 783 805
f 807 784 806
f 807 785 784
f 808 786 785
f 808 785 807
f 809 787 786
f 809 786 808
f 810 788 787
f 810 787 809
f 811 789 788
f 811 788 810
f 226 789 811
f 226 223 789
f 37 842 36
f 827 842 37
f 827 841 842
f 826 841 827
f 826 840 841
f 825 840 826
f 825 839 840
f 824 839 825
f 823 838 839
f 823 839 824
f 822 838 823
f 821 837 838
f 821 838 822
f 821 836 837
f 820 836 821
f 820 835 836
f 819 835 820
f 818 835 819
f 818 833 834
f 818 834 835
f 817 833 818
f 817 832 833
f 816 832 817
f 816 831 832
f 815 831 816
f 814 830 831
f 814 831 815
f 813 829 830
f 813 830 814
f 812 828 829
f 812 829 813
f 54 55 828
f 54 828 812
f 2 875 1
f 858 874 875
f 858 875 2
f 857 873 874
f 857 874 858
f 856 872 873
f 856 873 857
f 855 871 872
f 855 872 856
f 854 870 871
f 854 871 855
f 853 869 870
f 853 870 854
f 852 868 869
f 852 869 853
f 851 868 852
f 850 867 868
f 850 868 851
f 849 867 850
f 848 867 849
f 848 866 867
f 848 864 865
f 848 865 866
f 847 864 848
f 847 863 864
f 846 863 847
f 845 863 846
f 845 862 863
f 845 861 862
f 844 861 845
f 844 860 861
f 843 860 844
f 843 859 860
f 18 19 859
f 18 859 843
f 152 341 151
f 152 340 341
f 885 876 367
f 885 367 365
f 885 365 881
f 886 877 876
f 886 876 885
f 886 885 881
f 887 878 877
f 887 881 882
f 887 877 886
f 887 886 881
f 888 879 878
f 888 882 883
f 888 887 882
f 888 878 887
f 889 880 879
f 889 883 884
f 889 879 888
f 889 888 883
f 890 667 880
f 890 884 679
f 890 679 667
f 890 880 889
f 890 889 884
f 684 443 442
f 684 442 665
f 683 443 684
f 682 444 443
f 682 443 683
f 681 445 444
f 681 444 682
f 680 446 445
f 680 447 446
f 680 445 681
f 679 448 447
f 679 449 448
f 679 447 680
f 884 450 449
f 884 449 679
f 883 451 450
f 883 452 451
f 883 450 884
f 882 453 452
f 882 452 883
f 881 454 453
f 881 455 454
f 881 453 882
f 365 418 455
f 365 455 881
f 322 365 321
f 320 321 365
f 323 365 322
f 319 320 365
f 324 365 323
f 318 319 365
f 325 365 324
f 317 318 365
f 326 365 325
f 327 365 326
f 328 365 327
f 364 317 365
f 314 317 364
f 313 314 364
f 174 313 364
f 173 364 413
f 173 174 364
f 418 365 328
f 418 328 329
f 418 329 330
f 417 418 330
f 417 330 331
f 416 417 331
f 172 173 413
f 172 413 412
f 416 331 332
f 415 332 333
f 415 416 332
f 415 333 334
f 335 415 334
f 171 412 411
f 171 172 412
f 336 415 335
f 170 411 410
f 170 171 411
f 337 415 336
f 169 170 410
f 409 169 410
f 338 415 337
f 168 169 409
f 339 415 338
f 408 167 168
f 408 168 409
f 407 167 408
f 407 166 167
f 406 165 166
f 406 166 407
f 405 164 165
f 405 165 406
f 404 163 164
f 404 164 405
f 403 162 163
f 403 163 404
f 391 339 340
f 391 340 152
f 391 415 339
f 402 161 162
f 402 162 403
f 392 391 152
f 401 161 402
f 401 160 161
f 393 392 152
f 393 152 153
f 400 160 401
f 400 159 160
f 394 153 154
f 394 393 153
f 399 159 400
f 399 158 159
f 395 394 154
f 395 154 155
f 398 158 399
f 398 157 158
f 396 395 155
f 396 155 156
f 397 157 398
f 397 396 156
f 397 156 157
f 580 579 647
f 580 647 656
f 581 656 655
f 581 580 656
f 582 655 654
f 582 581 655
f 583 654 653
f 583 582 654
f 584 653 652
f 584 583 653
f 585 652 651
f 585 584 652
f 586 651 650
f 586 585 651
f 578 650 649
f 578 586 650
f 637 636 635
f 640 638 637
f 640 639 638
f 640 637 635
f 643 642 641
f 644 641 640
f 644 640 635
f 644 643 641
f 646 645 644
f 825 635 647
f 824 825 647
f 621 644 635
f 621 646 644
f 826 635 825
f 823 824 647
f 827 635 826
f 822 823 647
f 821 822 647
f 37 635 827
f 37 621 635
f 820 821 647
f 38 621 37
f 819 820 647
f 39 621 38
f 40 621 39
f 41 621 40
f 42 621 41
f 43 621 42
f 44 621 43
f 45 621 44
f 854 817 853
f 854 816 817
f 852 853 817
f 852 817 818
f 852 818 819
f 855 816 854
f 855 815 816
f 851 647 579
f 851 852 819
f 851 819 647
f 856 815 855
f 856 814 815
f 850 851 579
f 857 813 814
f 857 814 856
f 858 54 812
f 858 812 813
f 858 813 857
f 849 850 579
f 2 54 858
f 848 849 579
f 3 54 2
f 3 52 53
f 3 53 54
f 4 52 3
f 847 848 579
f 5 50 51
f 5 51 52
f 5 52 4
f 6 50 5
f 846 847 579
f 7 49 50
f 7 50 6
f 845 846 579
f 8 47 48
f 8 48 49
f 8 49 7
f 9 46 47
f 9 47 8
f 10 46 9
f 595 844 845
f 595 845 579
f 595 18 843
f 595 843 844
f 609 18 595
f 609 11 12
f 609 12 13
f 609 13 14
f 609 14 15
f 609 15 16
f 609 16 17
f 609 17 18
f 611 610 609
f 618 620 619
f 617 620 618
f 613 612 611
f 613 611 609
f 616 595 620
f 616 620 617
f 615 614 613
f 615 609 595
f 615 613 609
f 615 595 616
f 609 621 11
f 11 621 10
f 10 621 45
f 10 45 46
f 228 546 561
f 228 227 546
f 229 561 560
f 229 228 561
f 230 560 559
f 230 229 560
f 231 559 558
f 231 230 559
f 232 558 557
f 232 231 558
f 233 557 556
f 233 232 557
f 234 556 555
f 234 233 556
f 235 555 554
f 235 234 555
f 236 554 553
f 236 235 554
f 237 553 552
f 237 236 553
f 238 552 551
f 238 237 552
f 239 551 550
f 239 238 551
f 240 550 549
f 240 239 550
f 241 549 548
f 241 240 549
f 224 548 547
f 224 241 548
f 464 463 295
f 464 295 294
f 465 294 293
f 465 464 294
f 466 293 292
f 466 465 293
f 467 292 291
f 467 466 292
f 468 291 290
f 468 467 291
f 469 290 289
f 469 468 290
f 470 289 288
f 470 469 289
f 471 288 287
f 471 470 288
f 472 287 286
f 472 471 287
f 473 286 285
f 473 472 286
f 474 285 284
f 474 473 285
f 475 284 283
f 475 474 284
f 476 283 282
f 476 475 283
f 477 476 282
f 785 578 784
f 783 784 578
f 786 578 785
f 782 783 578
f 787 578 786
f 781 782 578
f 788 578 787
f 780 781 578
f 789 578 788
f 223 578 789
f 649 775 776
f 649 776 777
f 649 777 778
f 649 778 779
f 649 779 780
f 649 780 578
f 665 771 772
f 665 772 773
f 665 773 774
f 665 774 775
f 665 775 649
f 770 771 665
f 769 770 665
f 768 769 665
f 311 768 665
f 547 578 223
f 224 547 223
f 442 311 665
f 477 282 442
f 311 442 282
f 257 546 227
f 270 546 257
f 271 546 270
f 272 546 271
f 273 546 272
f 274 546 273
f 463 198 295
f 463 217 218
f 463 218 219
f 463 219 220
f 463 220 221
f 463 221 222
f 463 222 198
f 537 536 535
f 538 537 535
f 539 538 535
f 539 534 533
f 539 535 534
f 541 540 539
f 542 541 539
f 544 539 533
f 544 543 542
f 544 542 539
f 101 533 546
f 100 533 101
f 520 544 533
f 102 101 546
f 103 102 546
f 99 533 100
f 98 533 99
f 104 103 546
f 104 546 274
f 97 533 98
f 747 274 275
f 747 104 274
f 97 520 533
f 748 275 276
f 748 747 275
f 96 520 97
f 749 276 277
f 749 748 276
f 750 277 278
f 750 749 277
f 95 520 96
f 94 520 95
f 93 520 94
f 73 520 93
f 767 520 73
f 145 752 751
f 146 145 751
f 144 753 752
f 144 754 753
f 144 752 145
f 147 751 750
f 147 750 278
f 147 146 751
f 143 754 144
f 148 147 278
f 148 278 279
f 142 754 143
f 142 755 754
f 142 756 755
f 149 148 279
f 149 279 280
f 141 756 142
f 150 149 280
f 150 280 211
f 140 757 756
f 140 756 141
f 129 211 212
f 129 150 211
f 139 758 757
f 139 759 758
f 139 757 140
f 711 212 213
f 711 129 212
f 138 759 139
f 712 213 214
f 712 711 213
f 137 760 759
f 137 759 138
f 713 214 215
f 713 712 214
f 136 761 760
f 136 760 137
f 714 215 216
f 714 713 215
f 135 762 761
f 135 763 762
f 135 761 136
f 715 714 216
f 134 763 135
f 133 764 763
f 133 763 134
f 132 765 764
f 132 766 765
f 132 764 133
f 131 766 132
f 130 520 767
f 130 767 766
f 130 766 131
f 507 721 720
f 507 722 721
f 507 723 722
f 507 724 723
f 507 105 724
f 507 130 105
f 507 520 130
f 494 507 720
f 494 715 216
f 494 216 217
f 494 716 715
f 494 717 716
f 494 718 717
f 494 719 718
f 494 720 719
f 494 217 463
f 509 508 507
f 516 518 517
f 516 494 518
f 512 511 510
f 514 516 515
f 514 494 516
f 513 510 509
f 513 507 494
f 513 509 507
f 513 512 510
f 513 494 514
f 678 666 422
f 677 422 423
f 677 678 422
f 676 423 424
f 676 677 423
f 675 424 425
f 675 676 424
f 674 425 426
f 674 675 425
f 673 426 427
f 673 674 426
f 672 427 428
f 672 673 427
f 671 428 429
f 671 672 428
f 670 429 430
f 670 671 429
f 669 430 431
f 669 670 430
f 668 431 432
f 668 669 431
f 667 432 433
f 667 433 434
f 667 668 432
f 880 434 435
f 880 667 434
f 879 880 435
f 879 435 436
f 879 436 437
f 878 879 437
f 878 437 438
f 877 878 438
f 877 438 439
f 876 877 439
f 876 439 440
f 876 440 441
f 367 441 419
f 367 876 441
f 346 345 367
f 344 367 345
f 347 346 367
f 343 367 344
f 348 347 367
f 342 367 343
f 349 348 367
f 316 367 342
f 350 349 367
f 351 350 367
f 352 351 367
f 366 367 316
f 315 366 316
f 175 366 315
f 196 390 366
f 196 366 175
f 419 353 352
f 419 354 353
f 419 352 367
f 421 354 419
f 421 355 354
f 195 390 196
f 195 389 390
f 420 356 355
f 420 355 421
f 414 356 420
f 414 357 356
f 414 358 357
f 359 358 414
f 194 388 389
f 194 389 195
f 360 359 414
f 193 387 388
f 193 388 194
f 361 360 414
f 192 387 193
f 386 387 192
f 362 361 414
f 191 386 192
f 363 362 414
f 385 191 190
f 385 386 191
f 384 190 189
f 384 385 190
f 383 189 188
f 383 384 189
f 382 188 187
f 382 383 188
f 381 187 186
f 381 382 187
f 380 186 185
f 380 381 186
f 368 151 341
f 368 363 414
f 368 341 363
f 379 380 185
f 379 185 184
f 369 151 368
f 378 379 184
f 378 184 183
f 370 151 369
f 370 176 151
f 377 378 183
f 377 183 182
f 371 177 176
f 371 176 370
f 376 377 182
f 376 182 181
f 372 177 371
f 372 178 177
f 375 376 181
f 375 181 180
f 373 179 178
f 373 178 372
f 374 180 179
f 374 375 180
f 374 179 373
f 587 664 648
f 588 663 664
f 588 664 587
f 589 662 663
f 589 663 588
f 590 661 662
f 590 662 589
f 591 660 661
f 591 661 590
f 592 659 660
f 592 660 591
f 593 658 659
f 593 659 592
f 594 658 593
f 577 657 658
f 577 658 594
f 627 625 626
f 628 625 627
f 629 623 624
f 629 624 625
f 629 625 628
f 631 629 630
f 632 629 631
f 633 629 632
f 840 648 623
f 839 648 840
f 622 633 634
f 622 623 629
f 622 629 633
f 841 840 623
f 838 648 839
f 842 841 623
f 837 648 838
f 36 842 623
f 36 623 622
f 836 648 837
f 56 36 622
f 835 648 836
f 57 56 622
f 58 57 622
f 59 58 622
f 60 59 622
f 61 60 622
f 62 61 622
f 63 62 622
f 587 648 835
f 871 870 833
f 871 832 831
f 871 833 832
f 869 833 870
f 869 834 833
f 869 835 834
f 872 871 831
f 868 835 869
f 868 587 835
f 873 872 831
f 873 831 830
f 874 830 829
f 874 873 830
f 867 587 868
f 875 829 828
f 875 874 829
f 1 828 55
f 1 875 828
f 1 55 72
f 866 587 867
f 20 1 72
f 20 72 71
f 865 587 866
f 21 20 71
f 864 587 865
f 22 71 70
f 22 21 71
f 863 587 864
f 23 70 69
f 23 22 70
f 24 69 68
f 24 23 69
f 862 587 863
f 25 67 66
f 25 68 67
f 25 24 68
f 861 587 862
f 26 66 65
f 26 25 66
f 27 26 65
f 596 19 35
f 596 859 19
f 596 860 859
f 596 861 860
f 596 587 861
f 597 30 29
f 597 31 30
f 597 32 31
f 597 33 32
f 597 596 35
f 597 34 33
f 597 35 34
f 607 608 596
f 599 597 598
f 599 596 597
f 599 607 596
f 604 605 606
f 604 606 607
f 603 599 600
f 603 600 601
f 603 601 602
f 603 607 599
f 603 604 607
f 597 29 622
f 29 28 622
f 28 27 622
f 27 63 622
f 27 64 63
f 27 65 64
f 243 545 242
f 243 576 545
f 244 575 576
f 244 576 243
f 245 574 575
f 245 575 244
f 246 573 574
f 246 574 245
f 247 572 573
f 247 573 246
f 248 571 572
f 248 572 247
f 249 570 571
f 249 571 248
f 250 569 570
f 250 570 249
f 251 568 569
f 251 569 250
f 252 567 568
f 252 568 251
f 253 566 567
f 253 567 252
f 254 565 566
f 254 566 253
f 255 564 565
f 255 565 254
f 256 563 564
f 256 564 255
f 225 562 563
f 225 563 256
f 478 310 281
f 479 309 310
f 479 310 478
f 480 308 309
f 480 309 479
f 481 307 308
f 481 308 480
f 482 306 307
f 482 307 481
f 483 305 306
f 483 306 482
f 484 304 305
f 484 305 483
f 485 303 304
f 485 304 484
f 486 302 303
f 486 303 485
f 487 301 302
f 487 302 486
f 488 300 301
f 488 301 487
f 489 299 300
f 489 300 488
f 490 298 299
f 490 299 489
f 491 297 298
f 491 298 490
f 492 296 297
f 492 297 491
f 462 296 492
f 807 806 577
f 805 577 806
f 808 807 577
f 804 577 805
f 809 808 577
f 803 577 804
f 810 809 577
f 802 577 803
f 811 810 577
f 226 811 577
f 657 798 797
f 657 799 798
f 657 800 799
f 657 801 800
f 657 802 801
f 657 577 802
f 666 794 793
f 666 795 794
f 666 796 795
f 666 797 796
f 666 657 797
f 792 666 793
f 791 666 792
f 790 666 791
f 312 666 790
f 562 226 577
f 225 226 562
f 422 666 312
f 462 422 296
f 312 296 422
f 258 242 545
f 259 258 545
f 260 259 545
f 261 260 545
f 262 261 545
f 263 262 545
f 478 281 197
f 478 206 205
f 478 207 206
f 478 208 207
f 478 209 208
f 478 210 209
f 478 197 210
f 526 521 522
f 526 522 523
f 526 523 524
f 526 524 525
f 527 521 526
f 529 521 527
f 529 527 528
f 531 529 530
f 88 545 521
f 88 521 87
f 86 87 521
f 519 529 531
f 519 521 529
f 519 531 532
f 89 545 88
f 85 86 521
f 90 545 89
f 84 85 521
f 91 545 90
f 83 84 521
f 92 545 91
f 92 263 545
f 725 264 263
f 725 263 92
f 82 83 521
f 82 521 519
f 726 265 264
f 726 264 725
f 81 82 519
f 727 265 726
f 727 266 265
f 728 267 266
f 728 266 727
f 80 81 519
f 79 80 519
f 78 79 519
f 77 78 519
f 76 77 519
f 75 76 519
f 74 75 519
f 746 74 519
f 745 746 519
f 122 729 730
f 123 729 122
f 121 122 730
f 121 730 731
f 124 729 123
f 124 728 729
f 124 267 728
f 120 121 731
f 120 731 732
f 125 268 267
f 125 267 124
f 119 732 733
f 119 120 732
f 126 269 268
f 126 268 125
f 118 119 733
f 118 733 734
f 127 199 269
f 127 269 126
f 117 734 735
f 117 735 736
f 117 118 734
f 128 200 199
f 128 199 127
f 116 117 736
f 691 201 200
f 691 200 128
f 115 736 737
f 115 116 736
f 115 737 738
f 692 202 201
f 692 201 691
f 114 115 738
f 693 202 692
f 693 203 202
f 113 738 739
f 113 114 738
f 694 204 203
f 694 203 693
f 112 739 740
f 112 113 739
f 695 204 694
f 111 740 741
f 111 112 740
f 110 111 741
f 110 741 742
f 109 110 742
f 109 742 743
f 108 109 743
f 108 743 744
f 108 744 745
f 107 108 745
f 495 710 106
f 495 745 519
f 495 106 107
f 495 107 745
f 495 701 702
f 495 702 703
f 495 703 704
f 495 704 705
f 495 705 706
f 495 706 707
f 495 707 708
f 495 708 709
f 495 709 710
f 493 205 204
f 493 204 695
f 493 701 495
f 493 695 696
f 493 696 697
f 493 697 698
f 493 698 699
f 493 699 700
f 493 700 701
f 493 478 205
f 506 495 496
f 506 493 495
f 497 506 496
f 499 497 498
f 503 504 505
f 500 497 499
f 502 503 505
f 501 505 506
f 501 506 497
f 501 497 500
f 501 502 505

