# https://github.com/mikedh/trimesh
v -69.10573117 50.07017648 -0.21232571
v -68.97668460 50.18837909 -0.21227852
v -68.83750631 50.29502548 -0.21213697
v -68.68979544 50.38889030 -0.21190268
v -68.61603768 50.26071547 -0.00681483
v -68.64009606 50.30252366 -0.02679492
v -68.66075545 50.33842516 -0.05857864
v -68.67660797 50.36597336 -0.10000000
v -68.68657327 50.38329088 -0.14823619
v -68.68997225 50.38919756 -0.20000000
v -68.68995260 50.38916341 -0.20396964
v -68.68989366 50.38906098 -0.20793772
v -65.39817830 52.28344911 -0.20000000
v -65.39815865 52.28341496 -0.20396964
v -65.39809970 52.28331253 -0.20793772
v -65.39800149 52.28314185 -0.21190268
v 65.39817830 52.28344911 -0.20000000
v 65.39815865 52.28341496 -0.20396964
v 65.39809970 52.28331253 -0.20793772
v 65.39800149 52.28314185 -0.21190268
v 68.68997225 50.38919756 -0.20000000
v 68.68995260 50.38916341 -0.20396964
v 68.68989366 50.38906098 -0.20793772
v 68.68979544 50.38889030 -0.21190268
v -20.49517648 -52.23073117 -0.21232571
v -20.72002548 -51.96250631 -0.21213697
v -20.72752366 -51.76509606 -0.02679492
v -46.40011182 28.94604961 5.38038867
v -46.05071184 33.29861291 5.42280594
v 46.14292395 30.93475110 5.40000000
v 46.20026984 30.94263311 5.39436257
v 45.92136647 32.28478980 5.39436257
v 45.50296200 33.39740694 5.40051036
v 44.87923275 34.82255268 5.37766215
v 44.33351237 35.54899671 5.39987396
v 42.37958755 37.63996741 5.38067597
v 41.41994831 38.46274640 5.27168509
v 33.31307593 41.17218570 5.32034133
v -64.20370313 52.60185193 -0.00523353
v 62.66349189 52.07503672 -17.17698311
v -62.66349189 52.07503672 -17.17698311
v -62.66358482 52.07544537 -17.16762362
v -63.40385276 52.81588692 -0.20872388
v 55.94291018 52.81499511 -0.24948848
v 63.40385276 52.81588692 -0.20872388
v -69.69088692 10.49276421 -0.20872388
v -69.69088692 48.65723579 -0.20872388
v -68.88724504 47.27404976 -18.73908493
v -68.85613531 13.41891949 -19.32767897
v 68.85613531 13.41891949 -19.32767897
v 68.88807408 47.25909338 -18.74627087
v 69.67508513 48.83010126 -0.10782028
v 69.69088692 48.65723579 -0.20872388
v 69.69088692 10.49276421 -0.20872388
v -16.15608051 -51.98113531 -19.32767897
v 17.68409338 -52.01307408 -18.74627087
v 19.39107699 -52.78785752 -0.11195883
v 19.08223579 -52.81588692 -0.20872388
v -19.08223579 -52.81588692 -0.20872388
v -16.15608051 -45.71681581 -23.25000000
v 16.15608051 -45.71681581 -23.25000000
v 62.59181581 13.41891949 -23.25000000
v 62.59181581 45.73108051 -23.25000000
v -62.59181581 45.73108051 -23.25000000
v -62.59181581 13.41891949 -23.25000000
v 46.27267726 29.41503551 5.39908915
v -44.78217533 24.38646924 5.40000000
v -7.74620134 -26.14200223 5.40000000
v 5.75869133 -27.99820700 5.40000000
v 6.81593028 -27.13807932 5.40000000
v 7.74620134 -26.14200223 5.40000000
v 3.95925232 -29.05931645 5.40160701
v 0.80317593 -29.83433671 5.39846998
v -3.40374871 -29.46770972 5.40250036
v -16.96715648 -45.71742882 -23.19794992
v -17.75804105 -45.71921880 -23.04466374
v -62.59421543 11.81806220 -23.04495109
v -62.59242785 12.60841068 -23.19802294
v 62.59242882 12.60784352 -23.19794992
v 62.59421880 11.81695895 -23.04466374
v 17.75693780 -45.71921543 -23.04495109
v 16.96658932 -45.71742785 -23.19802294
v -33.21829310 47.05146575 -23.11120718
v -33.37932810 47.34834266 -23.04060591
v -33.77931957 47.88757371 -22.87258528
v -34.01394468 48.12435053 -22.78173211
v -34.26971492 48.33692194 -22.69069197
v -34.54742223 48.52498004 -22.60233574
v -34.84299168 48.68474360 -22.52124434
v -35.15321685 48.81392064 -22.45145959
v -35.47899225 48.91171003 -22.39601253
v -35.81853010 48.97582524 -22.35842791
v -36.16094979 49.00343771 -22.34189795
v -36.37938387 49.00202780 -22.34275246
v -38.13165879 48.40833044 -22.65802263
v -38.93608503 47.62389176 -22.96133446
v -39.32066051 46.96826097 -23.12831327
v -62.59242882 46.54215648 -23.19794992
v -62.59421880 47.33304105 -23.04466374
v -62.59718528 48.10038311 -22.79142641
v -62.60127552 48.83014525 -22.44241463
v -62.60638240 49.50442183 -22.00735486
v -62.61249689 50.12219277 -21.48700699
v -62.61953728 50.67190508 -20.88875953
v -62.62729191 51.13720950 -20.23120713
v -62.63572247 51.51651499 -19.51748887
v -62.64467656 51.80229286 -18.76093824
v -62.65394694 51.98853834 -17.98046435
v 62.65391702 51.98803538 -17.98302301
v 62.64462027 51.80083981 -18.76566686
v 62.63566645 51.51437242 -19.52221943
v 62.62724626 51.13481561 -20.23508864
v 62.61950012 50.66938029 -20.89188208
v 62.61246867 50.11968914 -21.48940240
v 62.60636265 49.50213379 -22.00904426
v 62.60126222 48.82815079 -22.44352819
v 62.59717771 48.09877766 -22.79207181
v 62.59421543 47.33193780 -23.04495109
v 62.59242785 46.54158932 -23.19802294
v 39.28170690 47.05146575 -23.11120718
v 38.93340410 47.62747517 -22.96020610
v 37.95257777 48.52498004 -22.60233574
v 36.33905021 49.00343771 -22.34189795
v 36.12061613 49.00202780 -22.34275246
v 35.86182670 48.98122528 -22.35521609
v 35.60574584 48.94000595 -22.37953446
v 35.35613829 48.87916546 -22.41473076
v 34.87870667 48.70152170 -22.51239313
v 34.65262102 48.58624764 -22.57189906
v 34.36834121 48.40833044 -22.65802263
v 34.07212893 48.17643358 -22.76026308
v 33.80262595 47.91329151 -22.86326089
v 33.56391497 47.62389176 -22.96133446
v 33.35545421 47.30810609 -23.05102189
v 33.17933949 46.96826097 -23.12831327
v 67.94035371 49.61556275 -17.58616483
v 67.79959028 45.73108051 -21.00494606
v 67.65050925 12.81607292 -21.32768375
v 68.47557338 10.19035459 -18.56398077
v 65.51080641 9.14384582 -21.60619753
v -20.43115418 -48.63580641 -21.60619753
v -16.75885794 -50.77552127 -21.32770426
v -19.38464541 -51.60057338 -18.56398077
v 16.15608051 -50.92459028 -21.00494606
v 20.04056284 -51.06535065 -17.58617499
v -67.94567854 49.64478174 -17.25486054
v -65.17933452 52.36343622 -0.05959409
v -63.47620398 51.99530148 -17.21651925
v -62.94608522 52.06499051 -17.17422129
v -63.96576831 52.77619228 -0.20985980
v -67.56649757 48.94063430 -20.90729961
v 20.53445492 -48.26933540 -21.56377838
v 63.90772880 52.78399588 -0.20975052
v 64.40766482 52.68784160 -0.21062882
v 64.89146144 52.52888954 -0.21133541
v 65.14992801 52.41453059 -0.21164887
v 63.19897356 52.04023136 -17.15121663
v 63.72185286 51.93280247 -17.16904076
v 64.15384839 51.78656405 -17.18177115
v 64.40959910 51.67285092 -17.18838444
v 63.18350251 52.04036451 -17.19209171
v 63.93634365 51.87593095 -17.19917168
v 65.62002732 49.66031668 -21.62083609
v 69.67424110 10.23557132 -0.20977054
v 69.62353176 9.97837919 -0.21066898
v 69.53874875 9.72795505 -0.21138971
v 69.42166681 9.49094793 -0.21191152
v 69.27573108 9.27331294 -0.21222350
v 68.93094372 10.98236729 -17.23894643
v 68.88214603 10.73293376 -17.24676718
v 68.80241265 10.49155179 -17.25291602
v 68.69280838 10.26216968 -17.25728192
v 68.55466934 10.04871725 -17.25976645
v 68.82913901 13.41891949 -19.57801612
v 68.68267383 13.41891949 -20.05883841
v 68.56557527 13.41891949 -20.28173845
v 68.42107269 13.41891949 -20.48793653
v 68.25177127 13.41891949 -20.67432739
v 68.75162451 12.28703908 -19.90877637
v 68.82913901 45.73117198 -19.57801612
v 68.77092346 45.73115660 -19.82300012
v 68.68267383 45.73114171 -20.05883842
v 68.56557527 45.73112754 -20.28173845
v 68.42107269 45.73111433 -20.48793653
v 68.25177127 45.73110229 -20.67432739
v 68.06058049 45.73109158 -20.83820235
v 67.93333878 45.73108574 -20.92666279
v 68.93118576 48.16786348 -17.23340508
v 68.88234750 48.41725722 -17.24216152
v 68.80257504 48.65860073 -17.24921586
v 68.69293381 48.88794637 -17.25444227
v 68.55476046 49.10136502 -17.25772755
v 68.39062093 49.29556370 -17.25903996
v 68.20341106 49.46765040 -17.25837966
v 68.07802585 49.56128423 -17.25699337
v 68.45848370 48.18799235 -19.81825601
v 68.91760505 50.23603080 -0.21222880
v 69.10761355 50.06829159 -0.21232569
v 69.26152200 49.89491530 -0.21224099
v 69.39532637 49.70320301 -0.21198902
v 69.50597495 49.49682266 -0.21157248
v 69.59134123 49.28006280 -0.21100076
v 69.65035775 49.05753995 -0.21028932
v -19.33942868 -52.79924110 -0.20977054
v -19.59662081 -52.74853176 -0.21066898
v -19.84704495 -52.66374875 -0.21138971
v -20.08405207 -52.54666681 -0.21191152
v -20.30168706 -52.40073108 -0.21222350
v -18.59263271 -52.05594372 -17.23894643
v -18.84206624 -52.00714603 -17.24676718
v -19.08344821 -51.92741265 -17.25291602
v -19.31283032 -51.81780838 -17.25728192
v -19.52628275 -51.67966934 -17.25976645
v -19.72051158 -51.51556165 -17.26035022
v -19.89262379 -51.32838165 -17.25904428
v -16.15608051 -51.95413901 -19.57801612
v -16.15608051 -51.80767383 -20.05883841
v -16.15608051 -51.69057527 -20.28173845
v -16.15608051 -51.54607269 -20.48793653
v -16.15608051 -51.37677127 -20.67432739
v -17.28796092 -51.87662451 -19.90877637
v 16.15617198 -51.95413901 -19.57801612
v 16.15615660 -51.89592346 -19.82300012
v 16.15614171 -51.80767383 -20.05883842
v 16.15612754 -51.69057527 -20.28173845
v 16.15611433 -51.54607269 -20.48793653
v 16.15610229 -51.37677127 -20.67432739
v 16.15609158 -51.18558049 -20.83820235
v 16.15608574 -51.05833878 -20.92666279
v 18.59286348 -52.05618576 -17.23340508
v 18.84225722 -52.00734750 -17.24216152
v 19.08360073 -51.92757504 -17.24921586
v 19.31294637 -51.81793381 -17.25444227
v 19.52636502 -51.67976046 -17.25772755
v 19.72056370 -51.51562093 -17.25903996
v 19.89265040 -51.32841106 -17.25837966
v 18.61301647 -51.58348121 -19.81824186
v 20.66103080 -52.04260505 -0.21222880
v 20.49329159 -52.23261355 -0.21232569
v 20.31991530 -52.38652200 -0.21224099
v 20.12820301 -52.52032637 -0.21198902
v 19.92182266 -52.63097495 -0.21157248
v 19.70506280 -52.71634123 -0.21100076
v 19.48253995 -52.77535775 -0.21028932
v -68.51904761 10.00214677 -17.26006913
v -68.66342840 10.21142698 -17.25802357
v -68.77976405 10.43748242 -17.25408429
v -68.86647567 10.67644910 -17.24833648
v -68.92249699 10.92437722 -17.24089119
v -68.94125265 11.07965161 -17.23551531
v -69.10761355 9.08170841 -0.21232569
v -69.39532637 9.44679699 -0.21198902
v -69.50597495 9.65317734 -0.21157248
v -69.59134123 9.86993720 -0.21100076
v -69.65035775 10.09246005 -0.21028932
v -69.68092832 10.29374627 -0.20954651
v -66.37437550 9.50685316 -21.22051140
v -68.38414984 13.41891949 -20.53274576
v -68.53462577 13.41891949 -20.33087082
v -68.65820314 13.41891949 -20.11149152
v -68.75320618 13.41891949 -19.87829858
v -68.81844826 13.41891949 -19.63508594
v -68.84328638 13.41891949 -19.48211938
v -68.74026590 11.36117781 -19.37709781
v -68.38414984 45.73111145 -20.53274576
v -68.53462577 45.73112440 -20.33087082
v -68.65820314 45.73113837 -20.11149152
v -68.75320618 45.73115312 -19.87829859
v -68.81844826 45.73116841 -19.63508595
v -68.84328638 45.73117798 -19.48211938
v -68.15730232 49.50386855 -17.25794783
v -68.34941831 49.33728736 -17.25906271
v -68.51913119 49.14792818 -17.25820493
v -68.66354568 48.93868101 -17.25537427
v -68.77991770 48.71266149 -17.25058696
v -68.86666797 48.47373288 -17.24394271
v -68.92272958 48.22584429 -17.23556737
v -68.94151056 48.07059469 -17.22960903
v -69.67424110 48.91442868 -0.20977054
v -69.62353176 49.17162081 -0.21066898
v -69.53874875 49.42204495 -0.21138971
v -69.42166681 49.65905207 -0.21191152
v -69.27573108 49.87668706 -0.21222350
v -36.19094859 28.99646264 -26.47708019
v 36.32489007 29.55527065 -26.46946638
v -7.79110342 -26.17853277 5.39436257
v -6.92857539 -27.25869278 5.35052639
v -0.68921617 -29.91598372 5.37766215
v -1.78375179 -29.75062838 5.39271334
v 2.04347527 -29.67374288 5.39436257
v 3.36347005 -29.30389769 5.39436257
v 5.64919458 -28.12047394 5.39908915
v 6.85543989 -27.18038378 5.39436257
v 7.79110342 -26.17853277 5.39436257
v 9.59154501 -22.88258338 5.42248263
v 41.39950074 20.31668178 5.54978753
v 45.70750796 26.88056356 5.41262472
v 46.15323784 28.14165280 5.40711688
v -45.87399524 26.25028276 5.34249680
v -45.09113851 24.71065651 5.39507017
v -26.03318432 29.98302090 5.46089141
v 20.72752366 -51.76509606 -0.02679492
v 19.08223579 -52.81101652 -0.15529327
v 19.08223579 -52.79211755 -0.10507993
v 19.08223579 -52.76055007 -0.06169739
v 19.08223579 -52.71858577 -0.02826763
v 19.08223579 -52.66924458 -0.00719638
v 20.09254336 -52.47584457 -0.01320512
v 20.50787139 -52.20633810 -0.09853227
v -19.08223579 -52.81101652 -0.15529327
v -19.08223579 -52.79211755 -0.10507993
v -19.08223579 -52.76055007 -0.06169739
v -19.08223579 -52.71858577 -0.02826763
v -19.08223579 -52.66924458 -0.00719638
v -19.39947471 -52.76918258 -0.09374318
v -20.52044867 -52.19470675 -0.10406131
v -19.98204549 -52.50844248 0.00579093
v 69.54424458 10.49276421 -0.00719638
v 69.59358577 10.49276421 -0.02826763
v 69.63555007 10.49276421 -0.06169739
v 69.66711755 10.49276421 -0.10507993
v 69.68601652 10.49276421 -0.15529327
v 69.35082362 9.49290595 -0.01111024
v 69.61234392 9.97522012 -0.09160187
v 69.54424458 48.65723579 -0.00719638
v 69.59358577 48.65723579 -0.02826763
v 69.63555007 48.65723579 -0.06169739
v 69.68601652 48.65723579 -0.15529327
v 68.64009606 50.30252366 -0.02679492
v 68.66075545 50.33842516 -0.05857864
v 68.67660797 50.36597336 -0.10000000
v 68.68657327 50.38329088 -0.14823619
v 68.80382927 50.31261704 -0.15641440
v 69.31318183 49.77269829 -0.00982812
v 65.58786591 51.91747717 0.02125396
v 65.34830210 52.19677521 -0.02679492
v 65.36896150 52.23267672 -0.05857864
v 65.38481401 52.26022491 -0.10000000
v 65.39477932 52.27754243 -0.14823619
v 63.40385276 52.66924458 -0.00719638
v 63.40385276 52.71858577 -0.02826763
v 63.40385276 52.76055007 -0.06169739
v 63.40385276 52.79211755 -0.10507993
v 63.40385276 52.81101652 -0.15529327
v 65.27295219 52.34701542 -0.15615892
v 64.74087577 52.53414327 -0.02891170
v 63.77881377 52.75749288 -0.06285276
v -63.40385276 52.66924458 -0.00719638
v -63.40385276 52.71858577 -0.02826763
v -63.40385276 52.76055007 -0.06169739
v -63.40385276 52.79211755 -0.10507993
v -63.40385276 52.81101652 -0.15529327
v -65.32424372 52.15496702 -0.00681483
v -65.34830210 52.19677521 -0.02679492
v -65.39477932 52.27754243 -0.14823619
v -63.81227759 52.77435007 -0.08318117
v -69.54424458 48.65723579 -0.00719638
v -69.59358577 48.65723579 -0.02826763
v -69.63555007 48.65723579 -0.06169739
v -69.66711755 48.65723579 -0.10507993
v -69.68601652 48.65723579 -0.15529327
v -69.43109108 49.62686222 -0.00764950
v -69.54424458 10.49276421 -0.00719638
v -69.59358577 10.49276421 -0.02826763
v -69.63555007 10.49276421 -0.06169739
v -69.66711755 10.49276421 -0.10507993
v -69.68601652 10.49276421 -0.15529327
v -69.56550124 9.93152728 -0.03529038
v -69.13436228 9.15945910 -0.04338329
f 297 298 296
f 323 297 296
f 298 297 323
f 294 323 296
f 308 323 294
f 140 139 152
f 33 35 296
f 296 35 36
f 296 74 295
f 79 285 62
f 285 63 62
f 341 349 38
f 163 187 137
f 308 243 242
f 152 139 145
f 58 59 56
f 79 140 80
f 296 298 30
f 30 33 296
f 35 33 34
f 29 36 38
f 38 39 29
f 308 291 290
f 163 137 119
f 119 137 63
f 119 63 285
f 163 136 196
f 356 352 150
f 356 39 349
f 38 349 348
f 348 39 38
f 349 39 348
f 166 323 167
f 166 324 323
f 164 54 322
f 322 324 164
f 164 169 54
f 53 52 328
f 328 52 322
f 369 286 300
f 300 286 68
f 68 286 74
f 150 148 16
f 146 16 148
f 146 271 3
f 257 258 78
f 57 243 308
f 57 244 243
f 308 306 57
f 304 303 57
f 58 244 57
f 57 303 58
f 167 323 168
f 235 145 236
f 236 145 139
f 236 168 238
f 284 285 61
f 230 244 58
f 58 56 230
f 152 145 237
f 237 145 235
f 237 228 152
f 66 30 298
f 296 36 301
f 36 29 301
f 301 74 296
f 301 68 74
f 29 68 301
f 300 29 28
f 28 29 357
f 33 30 32
f 308 294 293
f 293 292 308
f 72 291 308
f 308 292 72
f 72 290 291
f 72 295 74
f 314 288 289
f 73 288 314
f 73 289 288
f 74 289 73
f 73 72 74
f 290 72 73
f 118 117 163
f 163 119 118
f 149 148 150
f 38 36 37
f 37 346 38
f 36 346 37
f 340 341 38
f 38 346 340
f 341 340 347
f 347 340 346
f 347 344 343
f 352 356 351
f 322 52 321
f 52 320 321
f 321 324 322
f 321 320 324
f 323 324 319
f 324 320 319
f 183 196 182
f 54 169 50
f 50 174 180
f 368 369 300
f 251 369 252
f 245 251 252
f 369 368 252
f 67 68 29
f 67 29 300
f 300 68 67
f 279 47 361
f 353 29 39
f 357 29 362
f 114 102 103
f 103 113 114
f 114 113 163
f 151 64 265
f 103 102 151
f 151 272 271
f 271 146 151
f 151 146 148
f 284 78 65
f 65 64 284
f 78 258 65
f 141 257 77
f 77 257 78
f 258 257 264
f 264 257 141
f 142 61 144
f 212 213 143
f 143 215 245
f 143 264 141
f 245 264 143
f 207 212 206
f 208 213 207
f 207 213 212
f 245 215 26
f 26 251 245
f 209 59 204
f 305 57 306
f 304 57 305
f 317 207 206
f 208 207 317
f 317 289 74
f 314 289 317
f 286 369 317
f 369 27 317
f 308 242 241
f 241 240 308
f 238 168 309
f 308 240 309
f 309 168 323
f 152 144 82
f 144 61 82
f 82 285 79
f 82 61 285
f 243 244 231
f 244 230 231
f 231 230 56
f 56 237 231
f 226 237 225
f 338 345 346
f 30 66 31
f 31 66 325
f 31 32 30
f 325 32 31
f 292 293 70
f 70 293 294
f 290 73 307
f 307 306 308
f 308 290 307
f 307 73 314
f 194 136 195
f 193 196 136
f 193 192 196
f 136 194 193
f 196 185 186
f 186 187 163
f 163 196 186
f 184 196 183
f 184 185 196
f 40 44 45
f 41 44 40
f 41 149 43
f 150 352 43
f 43 149 150
f 345 17 156
f 105 106 111
f 105 151 106
f 335 346 36
f 325 326 334
f 334 326 52
f 35 34 334
f 334 36 35
f 334 34 33
f 33 32 334
f 334 32 325
f 45 344 153
f 344 347 153
f 153 40 45
f 161 40 153
f 170 171 139
f 169 164 170
f 139 171 172
f 172 166 167
f 172 171 166
f 327 320 52
f 52 326 327
f 298 323 318
f 323 319 318
f 318 66 298
f 325 66 318
f 181 182 196
f 254 368 255
f 300 28 299
f 299 368 300
f 28 368 299
f 253 368 254
f 253 252 368
f 360 279 361
f 359 362 360
f 360 362 279
f 47 279 278
f 147 353 39
f 39 356 147
f 147 356 150
f 29 353 5
f 5 362 29
f 163 117 116
f 285 97 135
f 247 253 254
f 229 142 144
f 228 142 229
f 229 144 152
f 152 228 229
f 219 142 220
f 227 142 228
f 227 237 226
f 228 237 227
f 227 220 142
f 212 143 211
f 206 212 211
f 211 205 206
f 215 143 214
f 214 143 213
f 214 213 208
f 310 204 59
f 206 205 315
f 315 317 206
f 205 204 315
f 315 310 311
f 204 310 315
f 74 286 287
f 287 317 74
f 286 317 287
f 208 317 316
f 316 317 27
f 316 27 369
f 316 369 251
f 251 26 316
f 302 323 308
f 308 309 302
f 302 309 323
f 238 309 239
f 239 309 240
f 239 240 235
f 235 236 239
f 239 236 238
f 152 82 81
f 81 140 152
f 81 80 140
f 79 80 81
f 81 82 79
f 61 142 60
f 284 61 60
f 55 222 56
f 55 216 222
f 55 56 59
f 55 59 209
f 232 242 243
f 243 231 232
f 232 231 237
f 56 222 223
f 223 237 56
f 221 142 219
f 222 216 221
f 221 223 222
f 141 142 221
f 221 143 141
f 221 55 209
f 216 55 221
f 18 23 19
f 19 156 18
f 18 156 17
f 345 338 339
f 339 17 345
f 69 70 295
f 292 70 69
f 295 72 69
f 69 72 292
f 296 295 71
f 295 70 71
f 71 294 296
f 71 70 294
f 198 193 194
f 202 334 52
f 190 202 189
f 190 189 196
f 109 40 161
f 42 43 44
f 42 44 41
f 41 43 42
f 160 136 163
f 163 162 160
f 195 136 160
f 112 105 111
f 112 111 163
f 163 113 112
f 104 113 103
f 103 151 104
f 151 105 104
f 104 112 113
f 105 112 104
f 342 347 343
f 341 347 342
f 350 351 356
f 350 356 349
f 161 153 157
f 154 347 346
f 154 153 347
f 154 157 153
f 165 164 324
f 165 170 164
f 324 166 165
f 166 171 165
f 171 170 165
f 139 172 173
f 173 236 139
f 168 236 173
f 167 168 173
f 173 172 167
f 256 255 368
f 366 367 256
f 256 368 366
f 256 367 46
f 46 250 256
f 366 368 365
f 368 364 365
f 357 362 358
f 358 362 359
f 363 364 368
f 363 368 28
f 363 28 357
f 355 147 13
f 9 147 355
f 7 147 8
f 8 147 9
f 8 362 7
f 150 16 15
f 15 147 150
f 353 147 354
f 1 283 362
f 102 114 115
f 115 114 163
f 163 116 115
f 100 99 151
f 64 151 98
f 151 99 98
f 284 64 98
f 98 285 284
f 98 97 285
f 98 99 97
f 117 118 121
f 97 99 83
f 120 118 119
f 120 119 285
f 285 135 120
f 264 247 248
f 254 255 248
f 248 247 254
f 252 253 246
f 253 247 246
f 245 252 246
f 246 264 245
f 246 247 264
f 258 264 259
f 205 211 210
f 209 204 210
f 210 204 205
f 210 211 143
f 210 221 209
f 143 221 210
f 312 315 311
f 314 317 313
f 317 315 313
f 315 312 313
f 215 214 25
f 25 26 215
f 25 316 26
f 25 214 208
f 208 316 25
f 75 142 141
f 75 60 142
f 75 78 284
f 284 60 75
f 233 241 242
f 242 232 233
f 233 232 237
f 218 221 219
f 223 221 224
f 224 225 237
f 237 223 224
f 224 218 225
f 197 198 194
f 195 24 197
f 197 194 195
f 197 24 23
f 192 193 199
f 193 198 199
f 200 192 199
f 199 334 200
f 199 198 334
f 202 190 201
f 200 334 201
f 334 202 201
f 196 192 191
f 191 190 196
f 191 192 200
f 200 201 191
f 191 201 190
f 51 188 53
f 51 50 180
f 53 54 51
f 54 50 51
f 180 181 51
f 51 181 196
f 196 189 51
f 189 188 51
f 189 202 203
f 203 188 189
f 203 202 52
f 203 52 53
f 53 188 203
f 138 186 185
f 187 186 138
f 138 137 187
f 138 62 63
f 63 137 138
f 138 140 79
f 79 62 138
f 110 109 162
f 163 111 110
f 110 162 163
f 111 106 110
f 158 109 161
f 162 109 158
f 161 157 158
f 158 154 162
f 157 154 158
f 107 110 106
f 109 110 107
f 107 151 148
f 106 151 107
f 41 40 108
f 40 109 108
f 109 107 108
f 108 149 41
f 148 149 108
f 108 107 148
f 20 156 19
f 20 160 156
f 195 160 20
f 20 24 195
f 19 23 20
f 23 24 20
f 156 160 159
f 159 160 162
f 337 338 346
f 334 330 329
f 329 335 36
f 36 334 329
f 330 337 329
f 155 154 346
f 346 345 155
f 345 156 155
f 162 154 155
f 156 159 155
f 155 159 162
f 151 275 274
f 48 275 151
f 47 278 48
f 46 47 48
f 279 362 280
f 362 281 280
f 3 9 10
f 10 11 3
f 16 146 4
f 4 146 3
f 13 147 14
f 147 15 14
f 6 354 147
f 6 147 7
f 7 362 6
f 362 5 6
f 271 272 2
f 272 1 2
f 3 271 2
f 2 9 3
f 2 8 9
f 362 8 2
f 2 1 362
f 101 151 102
f 101 100 151
f 101 127 116
f 118 99 84
f 132 100 117
f 117 121 132
f 99 100 96
f 96 84 99
f 134 99 118
f 134 83 99
f 134 120 83
f 118 120 134
f 250 264 249
f 264 248 249
f 249 248 255
f 249 256 250
f 255 256 249
f 266 151 265
f 141 77 76
f 76 75 141
f 76 77 78
f 78 75 76
f 240 241 234
f 241 233 234
f 235 240 234
f 234 237 235
f 234 233 237
f 221 218 217
f 217 224 221
f 218 224 217
f 178 138 185
f 177 138 178
f 183 182 176
f 182 175 176
f 182 181 179
f 179 175 182
f 180 174 179
f 179 181 180
f 179 176 175
f 179 170 139
f 169 170 179
f 179 50 169
f 174 50 179
f 139 140 179
f 140 138 179
f 177 176 179
f 179 138 177
f 334 198 333
f 198 197 333
f 336 337 346
f 336 329 337
f 346 335 336
f 335 329 336
f 272 151 273
f 151 274 273
f 273 274 283
f 273 1 272
f 283 1 273
f 275 48 276
f 276 281 275
f 276 280 281
f 269 48 268
f 270 48 269
f 49 250 46
f 46 48 49
f 49 48 270
f 362 283 282
f 282 281 362
f 283 274 282
f 282 274 275
f 275 281 282
f 11 14 12
f 12 14 15
f 3 11 12
f 12 4 3
f 12 15 16
f 16 4 12
f 123 115 116
f 116 129 128
f 131 130 117
f 122 116 117
f 117 130 122
f 122 129 116
f 100 101 95
f 133 96 121
f 84 96 133
f 133 121 118
f 118 84 133
f 100 132 85
f 85 96 100
f 85 132 121
f 121 96 85
f 151 266 267
f 267 48 151
f 268 48 267
f 260 259 264
f 268 267 260
f 332 333 21
f 21 333 197
f 331 333 332
f 331 330 334
f 334 333 331
f 338 337 331
f 331 337 330
f 331 332 339
f 331 339 338
f 279 280 277
f 280 276 277
f 277 278 279
f 277 48 278
f 277 276 48
f 263 264 250
f 250 49 263
f 263 262 264
f 263 49 270
f 270 269 263
f 263 269 262
f 116 127 126
f 90 101 116
f 116 128 90
f 100 95 87
f 130 131 87
f 87 95 130
f 89 128 129
f 101 90 89
f 89 90 128
f 264 262 261
f 261 260 264
f 268 260 261
f 22 197 23
f 22 21 197
f 23 18 22
f 125 123 116
f 116 126 125
f 100 87 86
f 86 87 131
f 117 100 86
f 86 131 117
f 88 95 101
f 101 89 88
f 129 122 88
f 88 89 129
f 123 125 124
f 92 125 126
f 91 126 127
f 91 92 126
f 127 101 91
f 101 92 91
f 94 124 125
f 125 92 94
f 94 101 102
f 94 92 101
f 115 123 93
f 102 115 93
f 93 94 102
f 322 54 328
f 328 54 53
f 367 47 46
f 361 47 367
f 351 344 352
f 343 344 351
f 265 64 65
f 65 258 265
f 45 44 43
f 43 344 45
f 352 344 43
f 326 319 327
f 327 319 320
f 318 319 326
f 318 326 325
f 361 367 360
f 360 367 366
f 219 220 227
f 226 219 227
f 58 303 310
f 310 59 58
f 304 311 310
f 310 303 304
f 343 351 350
f 350 342 343
f 349 341 350
f 341 342 350
f 365 360 366
f 359 360 365
f 359 365 358
f 358 365 364
f 363 358 364
f 357 358 363
f 97 83 120
f 120 135 97
f 312 311 304
f 304 305 312
f 313 307 314
f 306 307 313
f 313 312 305
f 313 305 306
f 218 219 226
f 226 225 218
f 9 355 10
f 10 355 13
f 14 10 13
f 11 10 14
f 353 354 6
f 6 5 353
f 265 258 266
f 258 259 266
f 184 177 178
f 185 184 178
f 176 177 184
f 176 184 183
f 260 266 259
f 260 267 266
f 339 332 21
f 17 339 21
f 262 269 261
f 261 269 268
f 17 21 22
f 22 18 17
f 130 95 88
f 88 122 130
f 124 94 93
f 123 124 93

