# https://github.com/mikedh/trimesh
v 1.78034451 6.16039989 3.17487530
v 1.77670042 6.16034447 3.17499752
v 1.80453689 6.19737915 3.16489749
v 1.79210030 6.25462296 3.10400878
v 3.63730670 -6.16039989 -0.05000000
v 3.64467342 -6.16039989 -0.03420201
v 3.64579745 -6.19277126 -0.01835714
v 3.65070416 -6.16039989 -0.00000000
v 3.58420061 -6.25462296 -0.00000000
v 3.62201805 -6.23229885 0.00594107
v -1.84089721 6.16039989 3.15052374
v -1.81266343 6.16039989 3.16777857
v -1.78034451 6.16039989 3.17487530
v -1.79210030 6.25462296 3.10400878
v -1.81255737 6.22877369 3.14150683
v -1.84523016 6.18633859 3.14374056
v 1.77670042 -6.16034447 -3.17499752
v 1.78034451 -6.16039989 -3.17487530
v 1.80453689 -6.19737915 -3.16489749
v 1.79210030 -6.25462296 -3.10400878
v -3.63022137 6.17927470 -0.05915067
v -3.64467342 6.16039989 -0.03420201
v -3.64579745 6.19277126 -0.01835714
v -3.65070416 6.16039989 -0.00000000
v -3.58420061 6.25462296 -0.00000000
v -3.62201805 6.23229885 0.00594107
v -1.84089721 -6.16039989 -3.15052374
v -1.81266343 -6.16039989 -3.16777857
v -1.78034451 -6.16039989 -3.17487530
v -1.79210030 -6.25462296 -3.10400878
v -1.84766881 -6.19447201 -3.13625631
v -1.81183450 -6.22829775 -3.14213209
v -1.85028473 -6.16413042 -3.14204513
v 1.27964759 6.34999567 -1.40390760
v 1.61095984 6.34999495 -1.00659923
v 1.83073111 6.34999386 -0.51294679
v 1.46759315 6.34850791 1.17557199
v 1.11418386 6.34999394 1.53850536
v 0.64303854 6.34863864 1.76747930
v 0.14283576 6.34834942 1.87439533
v -0.00093294 6.33386124 -1.84059766
v 1.81530920 6.34517448 0.38826508
v 1.34637328 6.33338365 -1.25367889
v 1.16312383 6.33338365 -1.42533320
v 0.97375708 6.34517448 -1.58047285
v 0.74947976 6.34517448 -1.69834548
v 0.51124105 6.34517448 -1.78458115
v 0.00470165 6.33329345 1.83959625
v 0.25514951 6.33329345 1.82182194
v 0.50084443 6.33329346 1.77011054
v 0.73720955 6.33329345 1.68542533
v 0.95984186 6.33329345 1.56934383
v 1.09498054 6.34638732 1.51986126
v 1.16459414 6.33329346 1.42402843
v 1.34727537 6.33369746 1.25326197
v 1.50161634 6.33220588 1.05995657
v 1.64323994 6.34517448 0.86363174
v 1.74553255 6.34517448 0.63183335
v 1.88031788 6.34850791 -0.01427590
v 1.83520493 6.33338364 0.12827556
v 1.83557858 6.33338364 -0.12281292
v 1.81099792 6.33969707 -0.36931169
v 1.73395561 6.33271825 -0.61239122
v 1.72736888 6.34654722 -0.72553862
v 1.63544077 6.33369746 -0.84329708
v 1.51469454 6.34074762 -1.06165888
v 1.26529162 6.34638732 -1.38130291
v 0.12841589 6.34861549 -1.87737344
v 0.25399924 6.33271824 -1.82129333
v 0.00000000 -6.18157864 -1.72720000
v 0.23518704 -6.18157864 -1.71111277
v 0.68811836 -6.18157864 -1.58420736
v 0.89742540 -6.18157864 -1.47575320
v 1.09176506 -6.20194129 -1.34069329
v 1.26229988 -6.18157864 -1.17890579
v 1.41107040 -6.18157864 -0.99604225
v 1.62747306 -6.18157864 -0.57840407
v 1.72317350 -6.18157864 -0.11786830
v 1.72317350 -6.18157864 0.11786830
v 1.69107404 -6.18157864 0.35140923
v 1.62747306 -6.18157864 0.57840407
v 1.53355535 -6.18157864 0.79462433
v 1.41107040 -6.18157864 0.99604225
v 1.26229988 -6.18157864 1.17890579
v 1.09001510 -6.18157864 1.33980854
v 0.89742540 -6.18157864 1.47575320
v 0.68811836 -6.18157864 1.58420736
v 0.46599298 -6.18157864 1.66315074
v 0.23518704 -6.18157864 1.71111277
v 0.00000000 -6.18157864 1.72720000
v -0.00338091 -6.22649055 -1.73613791
v 0.00206814 -6.23834235 1.74451676
v 1.54470738 -6.22768203 0.79349049
v 1.26846809 -6.22766584 -1.18596671
v 1.10107259 -6.23760485 -1.35230284
v 0.69096283 -6.22766584 -1.59314114
v 0.46999293 -6.22204462 -1.66778724
v 0.23917527 -6.25228932 -1.74012929
v 0.00000000 -6.20746055 1.73060742
v 0.24009458 -6.22862480 1.72021672
v 0.46691229 -6.20746055 1.66643180
v 0.47146621 -6.23664593 1.67841446
v 0.69748468 -6.22768204 1.59036574
v 0.90555367 -6.22862480 1.48214827
v 1.09827831 -6.22649053 1.34460812
v 1.26479014 -6.20746055 1.18123153
v 1.27530878 -6.23917635 1.19105526
v 1.42032211 -6.22649054 0.99843446
v 1.63781412 -6.22862480 0.57823513
v 1.70051286 -6.22649052 0.34991750
v 1.73308550 -6.22862479 0.11491564
v 1.73193485 -6.22664951 -0.11592853
v 1.69703095 -6.22204461 -0.34999083
v 1.63594370 -6.22766584 -0.58242301
v 1.53967405 -6.22204460 -0.79486569
v 1.41814263 -6.22766585 -1.00219751
v 0.90145987 -6.22766585 -1.48421645
v 0.23146727 -6.22019030 -1.71859356
v -0.00000000 -6.34493865 -1.85524255
v 0.49370367 -6.33338365 -1.77219876
v 0.72972473 -6.33369745 -1.68917680
v 1.34891977 -6.34448150 -1.27377156
v 1.50138479 -6.33338365 -1.06314414
v 1.63216559 -6.33338365 -0.84880343
v 1.74553255 -6.34517448 -0.63183335
v 1.80082449 -6.33369746 -0.37795189
v 1.85205571 -6.34474697 0.12668408
v 1.80079076 -6.33328273 0.37420862
v 1.64377002 -6.34571284 0.86443135
v 1.50167875 -6.33288642 1.06121513
v 1.34453819 -6.33386125 1.25698754
v 1.17082121 -6.34493865 1.43913258
v 0.72858474 -6.33329345 1.68917161
v 0.50076288 -6.34549382 1.78724610
v 0.24970376 -6.33386124 1.82358126
v 1.86170119 -6.34842485 -0.25588494
v 0.62930723 -6.34842485 -1.77070066
v -0.00365811 -6.33369745 1.84005518
v 0.13326938 -6.34789846 1.87237535
v 0.95554787 -6.33386124 1.57312709
v 0.85239313 -6.34850791 1.67607431
v 1.44895400 -6.34834942 1.19761941
v 1.74919750 -6.34474697 0.62166494
v 1.83893742 -6.34885140 0.38213559
v 1.83498687 -6.33329345 -0.13022917
v 1.61424710 -6.34863863 -0.96523982
v 1.15887652 -6.33338365 -1.42878865
v 0.95236619 -6.33271825 -1.57309366
v 1.08540084 -6.34873513 -1.53766268
v 0.24206300 -6.34517448 -1.84051699
v 0.00000000 6.22300000 1.72720000
v 0.00000000 6.22300000 -1.72720000
v -0.23518704 6.22300000 -1.71111277
v -0.46599298 6.22300000 -1.66315074
v -0.68811836 6.22300000 -1.58420736
v -0.89742540 6.22300000 -1.47575320
v -1.09001510 6.22300000 -1.33980854
v -1.26229988 6.22300000 -1.17890579
v -1.41107040 6.22300000 -0.99604225
v -1.53355535 6.22300000 -0.79462433
v -1.62747306 6.22300000 -0.57840407
v -1.69107404 6.22300000 -0.35140923
v -1.72317350 6.22300000 -0.11786830
v -1.72317350 6.22300000 0.11786830
v -1.69107404 6.22300000 0.35140923
v -1.62747306 6.22300000 0.57840407
v -1.53355535 6.22300000 0.79462433
v -1.41107040 6.22300000 0.99604225
v -1.26229988 6.22300000 1.17890579
v -1.09001510 6.22300000 1.33980854
v -0.89742540 6.22300000 1.47575320
v -0.68811836 6.22300000 1.58420736
v -0.46599298 6.22300000 1.66315074
v -0.23518704 6.22300000 1.71111277
v -0.23518704 -6.18157864 1.71111277
v -0.46599298 -6.18157864 1.66315074
v -0.68811836 -6.18157864 1.58420736
v -0.89742540 -6.18157864 1.47575320
v -1.09001510 -6.18157864 1.33980854
v -1.26229988 -6.18157864 1.17890579
v -1.41107040 -6.18157864 0.99604225
v -1.53355535 -6.18157864 0.79462433
v -1.62747306 -6.18157864 0.57840407
v -1.69107404 -6.18157864 0.35140923
v -1.72317350 -6.18157864 -0.11786830
v -1.69107404 -6.18157864 -0.35140923
v -1.53355535 -6.18157864 -0.79462433
v -1.41107040 -6.18157864 -0.99604225
v -1.26229988 -6.18157864 -1.17890579
v -1.09001510 -6.18157864 -1.33980854
v -0.89742540 -6.18157864 -1.47575320
v -0.68811836 -6.18157864 -1.58420736
v -0.46599298 -6.18157864 -1.66315074
v -0.23518704 -6.18157864 -1.71111277
v -0.26347889 6.34517448 -1.83757344
v -0.95984186 6.33329345 -1.56934383
v -1.50560610 6.33329346 -1.05701786
v -1.80207600 6.33329346 -0.36967362
v -1.83562858 6.33329345 -0.12084779
v -1.15729990 6.33329346 1.42996274
v -0.95180750 6.33329345 1.57422963
v -0.72965220 6.34517448 1.70695781
v -0.49042545 6.34517448 1.79041341
v 1.79210030 6.25462296 -3.10400878
v 0.90310685 6.33855640 -3.09477983
v -0.01269227 6.35026026 -3.07597907
v 0.84152640 6.35016239 -2.93885400
v -0.00141507 6.34959917 3.07639624
v 1.55272219 6.34946153 2.65488260
v 1.93956096 6.34932880 2.38572995
v 2.81314703 6.35025444 1.14425601
v 3.01099605 6.34955624 0.64023734
v 0.89813085 6.33988327 3.08561295
v 1.38351884 6.31068992 3.09483379
v 1.95048384 6.30536905 2.80684093
v 2.16854264 6.33562474 2.41901845
v 2.86330781 6.34866599 1.19945031
v 3.26731168 6.32938066 0.51380351
v 3.58420061 6.25462296 -0.00000000
v 3.39589017 6.30604976 -0.30979374
v 3.17911089 6.33563232 -0.66865667
v 2.47033528 6.34866525 -1.88010100
v 2.06896368 6.32809837 -2.58638483
v 0.94357316 6.34909948 2.95686985
v 1.68392000 6.33225487 2.82044072
v 2.35752898 6.34767102 2.08085941
v 2.75634485 6.34837563 1.42822278
v 3.41664704 6.30494098 -0.01399357
v 3.06747807 6.34932523 0.21066268
v 3.26133287 6.33440474 0.11204460
v 3.07188423 6.34943076 -0.22476019
v 3.23666891 6.33469234 -0.35704630
v 2.98907031 6.34899012 -0.85646611
v 2.72987888 6.34822558 -1.47368426
v 2.35430783 6.34962796 -2.00167126
v 1.77178158 6.30595102 -2.91357068
v 1.54023716 6.34963357 -2.68621473
v 1.35673434 6.31778729 -3.08632559
v -0.49897602 -6.33338364 1.77072151
v -0.95820759 -6.33338364 1.57043623
v -1.16312383 -6.33338365 1.42533320
v -1.34642634 -6.33271825 1.25250196
v -1.50560610 -6.33329346 1.05701785
v -1.63551339 -6.33329346 0.84215940
v -1.83438100 -6.33271824 0.12911764
v -1.83557858 -6.33338364 -0.12281293
v -1.80191007 -6.33386125 -0.37539407
v -1.73306336 -6.33328273 -0.61593087
v -1.63441819 -6.33271825 -0.84279431
v -1.50454233 -6.33338365 -1.05867092
v -1.34453819 -6.33386125 -1.25698754
v -1.15968003 -6.33288642 -1.42701047
v -0.73544175 -6.33338364 -1.68628502
v -0.49897603 -6.33338365 -1.77072151
v -0.24970376 -6.33386124 -1.82358126
v -1.09827832 -6.22649053 -1.34460812
v -1.72888179 -6.22204460 0.11565196
v -1.69913712 -6.22649052 0.35653789
v -1.26496609 -6.22768204 1.18979361
v -1.09117391 -6.22768204 1.35095801
v -0.89705524 -6.22768205 1.48695661
v -0.68922460 -6.22664952 1.59311242
v -0.46632515 -6.22902718 1.67379320
v 0.91805307 -6.35012528 2.90279459
v 2.19998387 -6.34999799 2.12841242
v 2.95218487 -6.35023399 0.82372223
v 3.15682252 -6.34591833 -0.19096539
v 2.77777501 -6.34987132 -1.32768503
v 2.09059442 -6.34694527 -2.35584864
v 1.23730556 -6.35001163 -2.78546283
v -0.00088961 -6.34950468 -3.07575444
v 0.89813082 -6.33988329 -3.08561290
v 1.37793843 -6.31319318 -3.09051262
v 2.16854264 -6.33562474 -2.41901845
v 2.86330781 -6.34866599 -1.19945031
v 3.17745244 -6.33727557 0.66095033
v 2.47033528 -6.34866525 1.88010100
v 1.79210030 -6.25462296 3.10400878
v 0.89812687 -6.33988340 3.08561288
v 1.34609813 -6.31794426 3.08713482
v 1.48675661 -6.33979617 2.85625107
v 2.07443020 -6.32665228 2.58886934
v 3.37412148 -6.31311601 0.32414833
v 3.27974088 -6.32562727 -0.50009819
v 3.14644765 -6.33988340 -0.65383934
v 1.96414537 -6.31015745 -2.77709353
v 1.46522536 -6.33977936 -2.86767488
v 1.86195462 -6.16039989 3.12500000
v 2.94417472 -6.24876845 1.25053980
v 3.34955666 -6.22649948 0.54839768
v 3.63730670 -6.16039989 0.05000000
v 1.84811570 6.16893768 3.14416792
v 3.63730670 6.16039989 0.05000000
v 3.25002145 6.23673995 0.72079772
v 2.55501476 6.24876777 1.92458462
v 2.14966911 6.22649575 2.62666388
v 3.25002145 -6.23673995 -0.72079772
v 2.55501476 -6.24876777 -1.92458462
v 2.14966911 -6.22649575 -2.62666388
v 1.84782908 -6.16914836 -3.14438107
v 3.63730670 6.16039989 -0.05000000
v 1.86195462 6.16039989 -3.12500000
v 2.24915635 6.23673330 -2.45434693
v 2.94417472 6.24876845 -1.25053980
v 3.34955666 6.22649948 -0.54839768
v 1.00077452 -6.23674804 -3.17500000
v -0.38899082 -6.24876908 -3.17500000
v -1.19982287 -6.22650139 -3.17500000
v -1.77668628 -6.16034117 -3.17499790
v 1.77535208 6.16039989 -3.17500000
v -1.77535208 6.16039989 -3.17500000
v -1.00077452 6.23674804 -3.17500000
v 0.39719401 6.26709535 -3.17240101
v 1.37378199 6.24248023 -3.17065469
v -2.94417472 -6.24876845 -1.25053980
v -3.34955666 -6.22649948 -0.54839768
v -3.63730670 -6.16039989 -0.05000000
v -1.86195462 6.16039989 -3.12500000
v -2.55966280 6.27194894 -1.90977805
v -2.14966911 6.22649575 -2.62666388
v -3.63730670 -6.16039989 0.05000000
v -3.25002145 -6.23673995 0.72079772
v -2.55501476 -6.24876777 1.92458462
v -2.14966911 -6.22649575 2.62666388
v -1.86195462 -6.16039989 3.12500000
v -3.63730670 6.16039989 0.05000000
v -2.24915635 6.23673330 2.45434693
v -2.94417472 6.24876845 1.25053980
v -3.34955666 6.22649948 0.54839768
v -1.77535208 -6.16039989 3.17500000
v -1.00077452 -6.23674804 3.17500000
v 0.38899082 -6.24876908 3.17500000
v 1.19982287 -6.22650139 3.17500000
v 1.77535208 -6.16039989 3.17500000
v -1.77668628 6.16034117 3.17499790
v 1.00077452 6.23674804 3.17500000
v -0.38899082 6.24876908 3.17500000
v -1.19982287 6.22650139 3.17500000
v -0.91800365 -6.35011358 -2.90304090
v -2.19998249 -6.34999779 -2.12841760
v -2.95242954 -6.35022125 -0.82353970
v -2.77745216 -6.34988305 1.32789077
v -2.13730370 -6.34847433 2.24703397
v -1.38396083 -6.35000584 2.70544850
v -0.00393143 -6.34979886 3.07567663
v -0.89813082 -6.33988329 3.08561290
v -1.37793843 -6.31319318 3.09051262
v -1.79210030 -6.25462296 3.10400878
v -1.96620031 -6.30604383 2.78609202
v -2.16854264 -6.33562474 2.41901845
v -2.86330781 -6.34866599 1.19945031
v -3.58420061 -6.25462296 -0.00000000
v -3.17718215 -6.33628811 -0.66811274
v -2.47033528 -6.34866525 -1.88010100
v -2.07427488 -6.32657280 -2.58894913
v -0.89812687 -6.33988340 -3.08561288
v -1.34609813 -6.31794426 -3.08713482
v -1.48675668 -6.33979617 -2.85625103
v -3.37663863 -6.31220939 -0.32343459
v -3.22192324 -6.34032168 0.04303345
v -3.28146719 -6.32558157 0.49737920
v -3.01322027 -6.34791879 0.86275373
v -1.67843464 -6.33641909 2.79543254
v -0.26209738 -6.34822092 -1.85699689
v -1.31330477 -6.34999495 -1.37246647
v -0.51143252 -6.35000000 1.82532657
v -0.89813085 6.33988327 -3.08561295
v -1.79210030 6.25462296 -3.10400878
v -1.96620031 6.30604383 -2.78609202
v -2.16854264 6.33562474 -2.41901845
v -2.86330781 6.34866599 -1.19945031
v -3.26566413 6.32843773 -0.52068453
v -3.39589017 6.30604976 0.30979374
v -3.17911089 6.33563232 0.66865667
v -2.47033528 6.34866525 1.88010100
v -2.07598859 6.32697002 2.58085512
v -1.38404862 6.31058590 3.09484605
v -1.93956096 6.34932880 -2.38572995
v -2.99631036 6.35014962 -0.65772927
v -3.08456998 6.34947049 0.25201702
v -0.89356021 6.34972593 2.96804041
v -1.53796464 6.34930967 -2.68623945
v -1.41418324 6.31076643 -3.08929531
v -1.68392000 6.33225487 -2.82044072
v -2.36797128 6.34825981 -2.06212202
v -2.75634485 6.34837563 -1.42822278
v -3.21298734 6.33684172 -0.37568374
v -3.06747807 6.34932523 -0.21066268
v -3.41664704 6.30494098 0.01399357
v -3.26073762 6.33516000 0.08346031
v -2.77546360 6.34881340 1.39964439
v -1.77178158 6.30595102 2.91357068
v -2.08903202 6.34911107 2.32050197
v -1.50287063 6.33540916 2.88846953
v -0.89829976 6.34056359 3.08406933
v 0.23518704 6.22300000 1.71111277
v 0.46599298 6.22300000 1.66315074
v 0.68811836 6.22300000 1.58420736
v 0.89742540 6.22300000 1.47575320
v 1.09001510 6.22300000 1.33980854
v 1.26229988 6.22300000 1.17890579
v 1.41107040 6.22300000 0.99604225
v 1.53355535 6.22300000 0.79462433
v 1.62747306 6.22300000 0.57840407
v 1.69107404 6.22300000 0.35140923
v 1.72317350 6.22300000 0.11786830
v 1.72317350 6.22300000 -0.11786830
v 1.69107404 6.22300000 -0.35140923
v 1.62747306 6.22300000 -0.57840407
v 1.53355535 6.22300000 -0.79462433
v 1.41107040 6.22300000 -0.99604225
v 1.26229988 6.22300000 -1.17890579
v 1.09001510 6.22300000 -1.33980854
v 0.89742540 6.22300000 -1.47575320
v 0.68811836 6.22300000 -1.58420736
v 0.46599298 6.22300000 -1.66315074
v 0.23518704 6.22300000 -1.71111277
v -1.07267934 6.34850791 1.54439573
v -1.45889003 6.34999495 1.21658272
v -1.71896128 6.34850791 0.76221471
v -1.87862081 6.34999495 0.28145602
v -1.86474840 6.34850791 -0.24189366
v -1.75136302 6.34999394 -0.73561674
v -1.31330477 6.34999495 -1.37246647
v -0.63734705 6.34819770 -1.76753966
v -0.61662272 -6.34863864 -1.77686749
v -0.97375707 -6.34517448 -1.58047285
v -1.26210733 -6.34654722 -1.38466408
v -1.60740636 -6.34847085 -0.97748547
v -1.80951821 -6.34842485 -0.50700321
v -1.88176026 -6.34861549 0.00000000
v -1.80079076 -6.33328273 0.37420862
v -1.83809848 -6.34862323 0.38196125
v -1.73495415 -6.33329346 0.61161310
v -1.73033634 -6.34850791 0.73602668
v -1.46000765 -6.34873513 1.18780435
v -1.07210901 -6.34834942 1.54413153
v -0.75024134 -6.34571284 1.69892889
v -0.31870893 -6.34757065 1.85140919
v -0.25321532 -6.33338364 1.82217280
v -0.24009458 -6.22862480 -1.72021672
v -0.46942450 -6.22766585 -1.67187589
v -0.69270599 -6.22766584 -1.59238398
v -0.90308367 -6.22766585 -1.48322899
v -1.26479014 -6.20746055 -1.18123153
v -1.27577130 -6.23843977 -1.18961449
v -1.41923861 -6.22766585 -1.00064485
v -1.54227418 -6.22766583 -0.79807185
v -1.63242695 -6.22082975 -0.58016468
v -1.70129576 -6.22862479 -0.34983376
v -1.73254401 -6.22766583 -0.11755679
v -1.63068374 -6.20746055 0.57954514
v -1.64309740 -6.23834235 0.58615182
v -1.54155996 -6.22902716 0.80164561
v -1.41519434 -6.22768205 1.00646563
v -0.23384970 -6.22664953 1.71998607
v -0.50084443 6.33329346 -1.77011054
v -0.73720956 6.33329345 -1.68542533
v -1.06127276 6.34825831 -1.55323864
v -1.16121938 6.33288642 -1.42575812
v -1.34581175 6.33386125 -1.25562390
v -1.46969651 6.34802711 -1.16988281
v -1.63544077 6.33369746 -0.84329708
v -1.72526813 6.34638732 -0.72966464
v -1.73395560 6.33271825 -0.61239123
v -1.83498687 6.33329345 0.13022917
v -1.85322461 6.34638732 0.27298201
v -1.80016285 6.33329346 0.37888023
v -1.73180518 6.33329346 0.62047346
v -1.63118726 6.33329346 0.85050844
v -1.50018340 6.33329346 1.06470006
v -1.44159399 6.34638732 1.19614690
v -1.34123398 6.33329346 1.25905834
v -0.24171542 6.34571284 1.84141117
v -1.80955409 6.16039989 -3.16896926
v -1.83963084 6.16039989 -3.15160444
v -1.84246328 6.19041904 -3.14498738
v -1.80748360 6.19453198 -3.16434229
v -1.81226831 6.23066893 -3.13933520
v -1.80490082 -6.19661906 -3.16520648
v -1.91307153 6.26501536 -2.96225735
v -2.04589893 6.29031720 -2.74111824
v -2.06028510 6.26061781 -2.76405410
v -2.20300931 6.31850210 -2.44966104
v -2.12853301 6.29319801 -2.61268141
v -2.26924435 6.27312413 -2.40731681
v -2.48045784 6.28622312 -2.03933939
v -2.29194656 6.30923305 -2.33100959
v -2.44651786 6.33932977 -1.99390463
v -2.22372394 6.32853476 -2.38726668
v -2.92475767 6.33068739 -1.19854825
v -3.27345699 6.26824998 -0.67010490
v -3.41398269 6.29918052 -0.33145563
v -2.55246272 6.31767051 -1.87490516
v -3.14145951 6.30299036 -0.87162643
v -3.29481954 6.30417411 -0.58221194
v -3.47519286 6.27124372 -0.27911678
v -3.58022325 6.24424312 -0.08614541
v -3.22566247 6.30310930 -0.71337412
v -3.24380393 6.25403577 -0.72788769
v -3.22077084 6.32571134 -0.65863122
v 1.05053461 6.30055290 -3.15024178
v -1.17028030 6.27643474 -3.16700023
v -1.03812300 6.32103397 -3.12730149
v -1.19205397 6.29203426 -3.15114302
v -0.75159424 6.27933442 -3.16864687
v -0.60965454 6.33254675 -3.12987001
v -0.05590547 6.28560801 -3.16820825
v 0.31920491 6.33553422 -3.12567120
v 0.09735372 6.34149867 -3.11392375
v 0.30122233 6.28755008 -3.16784371
v 0.77054619 6.33413839 -3.11800391
v 0.42110089 6.31792990 -3.14763910
v 1.28610472 6.27971172 -3.15653093
v 1.58404541 6.25193852 -3.15384655
v 1.53885189 6.27698912 -3.13630305
v 1.80119762 6.18822040 -3.16888905
v -1.63923546 6.25657706 -3.14278539
v -1.39081573 6.28473113 -3.14421611
v -0.15328553 6.31898598 -3.14678985
v 0.01325173 6.32126505 -3.14516909
v 0.91801235 6.28301337 -3.16541313
v 1.78388573 6.23411809 -3.14297142
v -1.70824287 6.21092119 -3.16722188
v -0.07664373 6.34151056 -3.11389588
v 1.83963084 6.16039989 -3.15160444
v 1.80955409 6.16039989 -3.16896926
v 1.81266343 -6.16039989 -3.16777857
v 1.84089721 -6.16039989 -3.15052374
v 1.68009094 -6.20767790 -3.17003536
v 1.57927446 -6.26304358 -3.14536987
v 1.48437279 -6.28786752 -3.12723333
v 1.29108232 -6.25329908 -3.16938736
v 1.28800637 -6.30762027 -3.12438593
v 1.19205397 -6.29203426 -3.15114302
v 1.04554929 -6.32366705 -3.12114480
v 0.95030052 -6.30522640 -3.14966467
v 1.09613515 -6.26636715 -3.16909173
v 0.75159424 -6.27933442 -3.16864687
v 0.69956392 -6.33592339 -3.11731237
v 0.50142927 -6.31678203 -3.14759068
v 0.25071076 -6.34120843 -3.11432522
v 0.05590547 -6.28560801 -3.16820825
v -0.32152863 -6.34090002 -3.11462412
v -0.09735372 -6.34149867 -3.11392375
v -0.19471140 -6.31890291 -3.14684294
v -0.77054618 -6.33413839 -3.11800391
v -0.92208533 -6.27418436 -3.16884632
v -0.51596012 -6.28352723 -3.16842135
v -1.05053460 -6.30055290 -3.15024178
v -1.12558950 -6.26469862 -3.16912568
v -1.21737329 -6.31307288 -3.12339531
v -1.29268511 -6.28422614 -3.15179555
v -1.39155503 -6.24423322 -3.16954298
v -1.58404541 -6.25193852 -3.15384655
v -1.53885189 -6.27698912 -3.13630305
v -1.68063481 -6.20757764 -3.17003585
v 1.78679880 -6.23391910 -3.14237528
v 1.37585047 -6.27933615 -3.15063275
v 0.82500554 -6.32273216 -3.13472529
v -0.01295821 -6.32308080 -3.14218881
v -0.30122233 -6.28755008 -3.16784371
v -0.42110089 -6.31792990 -3.14763910
v -0.84657291 -6.30910419 -3.14909103
v 0.91328430 -6.28306172 -3.16522484
v -3.64255835 -6.19588460 -0.02258157
v -1.99396400 -6.29915289 -2.79100932
v -2.21621544 -6.26817462 -2.50127484
v -1.92673148 -6.21424569 -3.00272482
v -2.17658679 -6.29760632 -2.53119627
v -2.49301102 -6.28369442 -2.01879528
v -2.84068783 -6.28548803 -1.41625982
v -2.94995512 -6.33933130 -1.12192375
v -2.59826780 -6.34135893 -1.72796512
v -3.01590571 -6.28317965 -1.11318678
v -3.17921387 -6.32854116 -0.73230830
v -3.21935732 -6.27312566 -0.76167551
v -3.23792300 -6.32301066 -0.63564964
v -3.39329422 -6.29984433 -0.37381545
v -3.44634260 -6.24311361 -0.36988248
v -3.37347347 -6.25588586 -0.49562444
v -3.50756118 -6.27149782 -0.19703734
v -3.53474625 -6.24873550 -0.18565844
v -3.59125067 -6.20579495 -0.11988167
v -1.86468423 -6.24423126 -3.05754758
v -1.95422019 -6.26073386 -2.91815602
v -2.11489545 -6.28628121 -2.64358252
v -2.12665421 -6.31733619 -2.56164809
v -2.55065277 -6.31822904 -1.87642747
v -2.90804873 -6.31719969 -1.26061255
v -3.16461435 -6.30923740 -0.81950396
v -3.23309994 -6.30166471 -0.70332125
v -3.36126787 -6.28525353 -0.48666110
v -3.46116964 -6.26751157 -0.31100848
v -2.31406256 -6.29184163 -2.31630286
v -2.38518163 -6.32593500 -2.14277996
v -2.18305010 -6.32137871 -2.46915316
v -2.25276648 -6.25143226 -2.44533858
v -2.45254873 -6.33712317 -1.99442822
v -2.23269168 -6.29960629 -2.43881181
v -3.64918493 -6.16039989 0.01736482
v -3.64918493 -6.16039989 -0.01736482
v -3.64467342 6.16039989 0.03420201
v -3.64466458 6.18883301 0.02515844
v 1.82586449 6.23443247 -3.11935846
v 1.84275844 6.19335570 -3.14253682
v 1.81860361 6.21041477 -3.15104389
v 1.82207224 -6.23039461 -3.13024791
v 1.84654853 -6.19866296 -3.13413274
v 1.81397372 -6.17003722 -3.16673598
v -3.62350118 -6.22790316 -0.01868987
v -3.63918754 -6.20009398 0.02719441
v -3.61740164 -6.23286354 0.01768844
v -1.95067074 6.29123107 2.85716505
v -1.98276109 6.26340188 2.87218999
v -3.52188191 6.26503196 0.17571392
v -3.53474625 6.24873550 0.18565844
v -2.00868593 6.29649093 2.77833543
v -2.21002745 6.26693909 2.51311830
v -2.22631059 6.32798155 2.38390233
v -2.37756961 6.31329236 2.17866669
v -2.12665421 6.31733619 2.56164809
v -2.49301102 6.28369442 2.01879528
v -2.26917968 6.27329303 2.40761721
v -2.84068783 6.28548803 1.41625982
v -2.94995512 6.33933130 1.12192375
v -2.59826780 6.34135893 1.72796512
v -3.17921387 6.32854116 0.73230830
v -3.21935732 6.27312566 0.76167551
v -3.23792300 6.32301066 0.63564964
v -3.37347347 6.25588586 0.49562444
v -3.39329422 6.29984433 0.37381545
v -3.59125067 6.20579495 0.11988167
v -2.07949091 6.28356433 2.70192825
v -2.12947752 6.29191570 2.61366415
v -2.22688460 6.30293024 2.44284671
v -2.27714906 6.30719064 2.35463107
v -2.56094249 6.31905949 1.86069380
v -2.98374404 6.29390840 1.15865263
v -3.16461435 6.30923740 0.81950396
v -3.23309994 6.30166471 0.70332125
v -3.34112584 6.28950617 0.51729032
v 3.64251098 6.19612904 -0.02268324
v 1.96591922 6.29214487 -2.84118421
v 3.52753048 6.26042973 -0.17640618
v 2.03055411 6.30183428 -2.73356394
v 2.21002745 6.26693909 -2.51311830
v 2.22631059 6.32798155 -2.38390233
v 2.12665421 6.31733619 -2.56164809
v 2.42570930 6.33876823 -2.03056127
v 2.29116501 6.31109712 -2.32911180
v 2.49301102 6.28369442 -2.01879528
v 2.26917968 6.27329303 -2.40761721
v 2.84068783 6.28548803 -1.41625982
v 2.94995512 6.33933130 -1.12192375
v 2.59826780 6.34135893 -1.72796512
v 3.01590571 6.28317965 -1.11318678
v 3.17970058 6.32849111 -0.73175573
v 3.21935732 6.27312566 -0.76167551
v 3.28611280 6.31679456 -0.55362204
v 3.39329422 6.29984433 -0.37381545
v 3.38736515 6.28225969 -0.43680981
v 3.44634260 6.24311361 -0.36988248
v 3.37347347 6.25588586 -0.49562444
v 3.59125067 6.20579495 -0.11988167
v 2.04122091 6.27903396 -2.76766063
v 2.12947752 6.29191570 -2.61366415
v 2.22688460 6.30293024 -2.44284671
v 2.55244505 6.31906412 -1.87223514
v 2.91040681 6.31636088 -1.25792898
v 3.16461435 6.30923740 -0.81950396
v 3.30452962 6.29982217 -0.57003947
v 3.64918493 6.16039989 0.01736482
v 3.64918493 6.16039989 -0.01736482
v 3.64467342 -6.16039989 0.03420201
v 1.91307153 -6.26501536 -2.96225735
v 3.44963495 -6.29125667 -0.26087767
v 1.89510925 -6.21606076 -3.04958031
v 2.03903089 -6.25392929 -2.79847134
v 2.04589893 -6.29031720 -2.74111824
v 2.11591818 -6.25587726 -2.67377023
v 2.12243409 -6.31677962 -2.56917276
v 2.26924435 -6.27312413 -2.40731681
v 2.27367575 -6.33157882 -2.29966079
v 2.37698135 -6.31326166 -2.17970163
v 2.47192675 -6.28317810 -2.05538621
v 2.44651786 -6.33932977 -1.99390463
v 2.79552261 -6.34135971 -1.38630900
v 2.99476118 -6.28369489 -1.14973895
v 2.64678936 -6.28548730 -1.75210193
v 2.97129692 -6.33876980 -1.08557437
v 3.21956968 -6.27329835 -0.76149382
v 3.17761015 -6.32798729 -0.73620089
v 3.28172653 -6.31734884 -0.56100215
v 3.36857317 -6.25660310 -0.50409630
v 3.27050657 -6.26861775 -0.67337004
v 3.38254302 -6.30185640 -0.39184660
v 3.56374701 -6.21426471 -0.16733039
v 2.12347460 -6.29062047 -2.62453770
v 2.19979727 -6.30021805 -2.49040125
v 2.55184562 -6.31851652 -1.87437329
v 2.90701150 -6.32039642 -1.25601694
v 3.16257993 -6.31110127 -0.81977684
v 3.22952621 -6.30309938 -0.70649975
v 3.32995604 -6.29128185 -0.53475415
v 3.50227888 -6.26158485 -0.23645904
v 3.58022325 -6.24424312 -0.08614541
v 2.18015087 -6.26451036 -2.56212637
v -1.91307153 -6.26501536 2.96225735
v -3.44963495 -6.29125667 0.26087767
v -1.85289727 -6.20282911 3.12292578
v -2.03903089 -6.25392929 2.79847134
v -2.04589893 -6.29031720 2.74111824
v -2.11591818 -6.25587726 2.67377023
v -2.12243409 -6.31677962 2.56917276
v -2.15229838 -6.30077893 2.56468811
v -2.34960797 -6.28642994 2.26296962
v -2.44651786 -6.33932977 1.99390463
v -2.64678936 -6.28548730 1.75210193
v -2.92910086 -6.34074638 1.15484164
v -2.72589824 -6.31908422 1.57201315
v -3.16904555 -6.27661873 0.84857125
v -3.17761015 -6.32798729 0.73620089
v -3.36857317 -6.25660310 0.50409630
v -3.27050657 -6.26861775 0.67337004
v -3.38254302 -6.30185640 0.39184660
v -3.56374701 -6.21426471 0.16733039
v -2.27573771 -6.32091098 2.32861579
v -2.54759093 -6.31444325 1.88851307
v -3.17148513 -6.31016767 0.80352873
v -3.23598064 -6.30687590 0.69115847
v -3.37959533 -6.28358816 0.45007956
v -3.50423017 -6.26076031 0.23345776
v -3.58022325 -6.24424312 0.08614541
v -2.22131763 -6.27767990 2.48354502
v -3.21974120 -6.27308424 0.76102121
v -1.80955409 -6.16039989 3.16896926
v -1.83963084 -6.16039989 3.15160444
v -1.80490082 6.19661906 3.16520648
v 3.62421455 6.22783111 -0.01545461
v 3.63918754 6.20009398 0.02719441
v 3.61740164 6.23286354 0.01768844
v 3.64466458 -6.18883301 0.02515844
v -1.81396717 -6.23128079 3.13680262
v -1.84139345 -6.17981375 3.14811981
v -1.80649558 -6.19389449 3.16495126
v -1.81670611 -6.21145729 3.15038558
v 1.68009094 6.20767790 3.17003536
v 1.57927446 6.26304358 3.14536987
v 1.48437279 6.28786752 3.12723333
v 1.29108232 6.25329908 3.16938736
v 1.28800637 6.30762027 3.12438593
v 1.19205397 6.29203426 3.15114302
v 1.04554929 6.32366705 3.12114480
v 0.95030052 6.30522640 3.14966467
v 1.09613515 6.26636715 3.16909173
v 0.75159424 6.27933442 3.16864687
v 0.50142926 6.31678203 3.14759068
v 0.68322951 6.33743321 3.11639890
v 0.05590547 6.28560801 3.16820825
v -0.32152863 6.34090002 3.11462412
v -0.09735372 6.34149867 3.11392375
v -0.19471140 6.31890291 3.14684294
v -0.30122233 6.28755008 3.16784371
v -0.77054619 6.33413839 3.11800391
v -0.42110089 6.31792990 3.14763910
v -0.92208533 6.27418436 3.16884632
v -0.97463259 6.32699655 3.12026399
v -1.05053461 6.30055290 3.15024178
v -0.51596012 6.28352723 3.16842135
v -1.12558951 6.26469862 3.16912568
v -1.21737329 6.31307288 3.12339531
v -1.39155503 6.24423322 3.16954298
v -1.58404541 6.25193852 3.15384655
v -1.53885189 6.27698912 3.13630305
v -1.68063481 6.20757764 3.17003585
v 1.78679880 6.23391910 3.14237528
v 1.37585047 6.27933615 3.15063275
v 0.82500554 6.32273216 3.13472529
v 0.15328553 6.31898598 3.14678985
v -0.01325173 6.32126505 3.14516909
v -0.84657291 6.30910419 3.14909103
v -1.30524511 6.28314533 3.15188320
v 0.91328430 6.28306172 3.16522484
v 0.07664373 6.34151056 3.11389588
v -1.25244256 6.25626810 3.16931871
v 1.84667129 6.19901266 3.13378627
v 1.89941769 6.20578455 3.05022255
v 1.92222009 6.25951465 2.96168256
v 1.94906823 6.28352433 2.87961712
v 2.04343533 6.24309614 2.79978692
v 2.02033994 6.29982824 2.75184077
v 2.11591818 6.25587726 2.67377023
v 2.12243409 6.31677962 2.56917276
v 2.26924435 6.27312413 2.40731681
v 2.44651786 6.33932977 1.99390463
v 2.22348945 6.32848450 2.38796442
v 2.79552261 6.34135971 1.38630900
v 2.99476118 6.28369489 1.14973895
v 2.64678936 6.28548730 1.75210193
v 2.97129692 6.33876980 1.08557437
v 3.17761015 6.32798729 0.73620089
v 3.28172653 6.31734884 0.56100215
v 3.36857317 6.25660310 0.50409630
v 3.27050657 6.26861775 0.67337004
v 3.23434198 6.30473758 0.69676200
v 3.41398269 6.29918052 0.33145563
v 3.56374701 6.21426471 0.16733039
v 1.82261030 6.22927894 3.13145069
v 1.99986962 6.26749222 2.84205331
v 2.11958792 6.28886856 2.63672379
v 2.29194656 6.30923305 2.33100959
v 2.48045784 6.28622312 2.03933939
v 2.55175073 6.31856437 1.87436288
v 2.90701150 6.32039642 1.25601694
v 3.16257993 6.31110127 0.81977684
v 3.37959533 6.28358816 0.45007956
v 3.50423017 6.26076031 0.23345776
v 3.58022325 6.24424312 0.08614541
v 3.21956968 6.27329835 0.76149382
v 1.82586449 -6.23443247 3.11935846
v 1.99396400 -6.29915289 2.79100932
v 1.95422019 -6.26073386 2.91815602
v 2.12074235 -6.25658015 2.66540274
v 1.92673148 -6.21424569 3.00272482
v 2.23173820 -6.26208566 2.47920996
v 2.17658679 -6.29760632 2.53119627
v 2.22631059 -6.32798155 2.38390233
v 2.12665421 -6.31733619 2.56164809
v 2.29116501 -6.31109712 2.32911180
v 2.49301102 -6.28369442 2.01879528
v 2.27015385 -6.27361873 2.40575870
v 2.84068783 -6.28548803 1.41625982
v 2.94995512 -6.33933130 1.12192375
v 2.59826780 -6.34135893 1.72796512
v 3.01590571 -6.28317965 1.11318678
v 3.16461435 -6.30923740 0.81950396
v 3.17921387 -6.32854116 0.73230830
v 3.21935732 -6.27312566 0.76167551
v 3.28181747 -6.29745347 0.61689891
v 3.28611280 -6.31679456 0.55362204
v 3.23259903 -6.32295368 0.64358462
v 3.38736515 -6.28225969 0.43680981
v 3.39329422 -6.29984433 0.37381545
v 3.44634260 -6.24311361 0.36988248
v 3.50382225 -6.27252111 0.20194652
v 3.53474625 -6.24873550 0.18565844
v 3.59125067 -6.20579495 0.11988167
v 1.86468423 -6.24423126 3.05754758
v 2.11489545 -6.28628121 2.64358252
v 2.43545342 -6.33858850 2.01790160
v 2.55065277 -6.31822904 1.87642747
v 2.90804873 -6.31719969 1.26061255
v 3.23021990 -6.30282598 0.70503515
v 3.46116964 -6.26751157 0.31100848
v 1.80911044 -6.19460426 3.16465696
v -1.58325734 -6.25209258 3.15384275
v -1.50857878 -6.28355920 3.13069949
v -1.29108232 -6.25329908 3.16938736
v -1.28800637 -6.30762027 3.12438593
v -1.19205397 -6.29203426 3.15114302
v -1.04554929 -6.32366705 3.12114480
v -0.95030052 -6.30522640 3.14966467
v -1.09613515 -6.26636715 3.16909173
v -0.75159424 -6.27933442 3.16864687
v -0.50142926 -6.31678203 3.14759068
v -0.68322951 -6.33743321 3.11639890
v -0.05590547 -6.28560801 3.16820825
v 0.32152863 -6.34090002 3.11462412
v 0.19471140 -6.31890291 3.14684294
v 0.09735372 -6.34149867 3.11392375
v 0.30122233 -6.28755008 3.16784371
v 0.77054619 -6.33413839 3.11800391
v 0.92208533 -6.27418436 3.16884632
v 0.51596012 -6.28352723 3.16842135
v 0.97463259 -6.32699655 3.12026399
v 1.05053461 -6.30055290 3.15024178
v 1.12558951 -6.26469862 3.16912568
v 1.21737329 -6.31307288 3.12339531
v 1.29268511 -6.28422614 3.15179555
v 1.39155503 -6.24423322 3.16954298
v 1.58404541 -6.25193852 3.15384655
v 1.53885189 -6.27698912 3.13630305
v 1.68063481 -6.20757764 3.17003585
v -1.37585047 -6.27933615 3.15063275
v -0.82500554 -6.32273216 3.13472529
v -0.15328553 -6.31898598 3.14678985
v 0.01325173 -6.32126505 3.14516909
v 0.42110089 -6.31792990 3.14763910
v 0.84657291 -6.30910419 3.14909103
v 1.78388573 -6.23411809 3.14297142
v -0.91328430 -6.28306172 3.16522484
v -0.07664373 -6.34151056 3.11389588
v 1.84089721 6.16039989 3.15052374
v 1.81266343 6.16039989 3.16777857
v 1.81397372 6.17003722 3.16673598
v 1.80955409 -6.16039989 3.16896926
v 1.83963084 -6.16039989 3.15160444
v 1.84483689 -6.19299269 3.14077215
v 1.81860361 -6.21041477 3.15104389
f 1 3 2
f 7 5 6
f 16 11 12
f 739 12 13
f 739 16 12
f 739 15 16
f 18 19 17
f 23 21 22
f 33 27 28
f 480 28 29
f 480 33 28
f 480 31 33
f 480 32 31
f 49 48 40
f 50 49 40
f 50 40 39
f 51 50 39
f 53 39 38
f 52 51 39
f 52 39 53
f 54 52 53
f 37 53 38
f 55 54 53
f 55 53 37
f 56 55 37
f 57 56 37
f 60 42 59
f 61 60 59
f 62 59 36
f 62 61 59
f 64 62 36
f 63 62 64
f 64 36 35
f 65 63 64
f 66 64 35
f 66 65 64
f 67 35 34
f 67 66 35
f 43 66 67
f 44 43 67
f 45 67 34
f 45 44 67
f 69 68 41
f 69 47 68
f 91 71 70
f 100 90 89
f 100 99 90
f 100 92 99
f 101 89 88
f 101 100 89
f 102 100 101
f 103 88 87
f 103 101 88
f 103 102 101
f 104 87 86
f 104 103 87
f 105 86 85
f 105 104 86
f 106 85 84
f 106 105 85
f 107 105 106
f 108 84 83
f 108 106 84
f 108 107 106
f 93 83 82
f 93 108 83
f 109 82 81
f 109 93 82
f 110 81 80
f 110 109 81
f 111 80 79
f 111 110 80
f 112 78 113
f 112 79 78
f 112 111 79
f 114 113 77
f 115 114 77
f 116 115 76
f 94 76 75
f 94 116 76
f 74 94 75
f 95 94 74
f 117 74 73
f 117 95 74
f 96 117 73
f 96 73 72
f 97 96 72
f 118 97 71
f 118 71 91
f 118 98 97
f 118 91 98
f 139 138 135
f 134 139 135
f 141 134 133
f 141 133 140
f 132 141 140
f 142 132 131
f 142 131 130
f 129 142 130
f 144 143 128
f 127 144 128
f 136 127 145
f 126 136 145
f 125 136 126
f 146 125 124
f 146 124 123
f 122 146 123
f 149 122 147
f 149 147 148
f 121 149 148
f 137 149 121
f 137 121 120
f 150 137 120
f 153 70 152
f 153 194 70
f 154 193 194
f 154 194 153
f 155 192 193
f 155 193 154
f 156 191 192
f 156 192 155
f 157 190 191
f 157 191 156
f 158 189 190
f 158 190 157
f 159 188 189
f 159 189 158
f 160 187 188
f 160 188 159
f 161 186 449
f 161 449 187
f 161 187 160
f 162 185 186
f 162 186 161
f 163 185 162
f 164 185 163
f 164 184 257
f 164 257 185
f 165 184 164
f 165 183 184
f 166 183 165
f 166 182 183
f 167 182 166
f 167 181 182
f 168 181 167
f 168 180 181
f 169 180 168
f 169 179 180
f 170 179 169
f 170 178 179
f 171 178 170
f 171 177 178
f 172 176 177
f 172 177 171
f 173 175 176
f 173 176 172
f 174 90 175
f 174 175 173
f 151 90 174
f 195 152 41
f 195 153 152
f 457 154 153
f 457 153 195
f 458 155 154
f 458 154 457
f 196 156 155
f 196 155 458
f 460 157 156
f 460 156 196
f 158 157 460
f 461 158 460
f 197 159 158
f 197 158 461
f 463 160 159
f 463 159 197
f 465 161 160
f 465 160 463
f 198 162 161
f 198 161 465
f 199 163 162
f 199 162 198
f 466 164 163
f 466 163 199
f 468 164 466
f 468 165 164
f 469 165 468
f 469 166 165
f 470 166 469
f 470 167 166
f 471 167 470
f 471 168 167
f 473 168 471
f 473 169 168
f 200 169 473
f 200 170 169
f 201 170 200
f 201 171 170
f 202 171 201
f 202 172 171
f 203 172 202
f 203 173 172
f 474 173 203
f 474 174 173
f 48 174 474
f 48 151 174
f 226 210 216
f 206 207 205
f 224 208 213
f 225 213 214
f 224 213 225
f 215 214 4
f 225 214 215
f 209 224 225
f 225 210 209
f 225 215 216
f 210 225 216
f 227 216 217
f 227 226 216
f 227 211 226
f 227 217 211
f 218 211 217
f 212 211 218
f 218 229 212
f 230 218 219
f 228 230 219
f 229 218 230
f 230 231 229
f 228 219 220
f 232 230 228
f 232 228 220
f 231 230 232
f 232 220 221
f 233 232 221
f 233 231 232
f 234 235 233
f 234 233 221
f 234 222 235
f 234 221 222
f 235 222 223
f 237 235 223
f 236 204 238
f 236 223 204
f 223 236 238
f 238 237 223
f 237 238 205
f 207 237 205
f 440 92 138
f 440 456 92
f 239 263 456
f 239 456 440
f 438 262 263
f 438 263 239
f 240 261 262
f 240 262 438
f 241 260 261
f 241 261 240
f 242 259 260
f 242 260 241
f 243 455 259
f 243 259 242
f 244 454 455
f 244 455 243
f 434 453 454
f 434 454 244
f 432 258 453
f 432 453 434
f 257 258 432
f 245 257 432
f 451 257 245
f 246 451 245
f 450 451 246
f 247 450 246
f 248 450 247
f 248 449 450
f 448 449 248
f 249 448 248
f 447 448 249
f 250 447 249
f 446 447 250
f 251 446 250
f 252 446 251
f 252 256 446
f 444 256 252
f 427 444 252
f 443 444 427
f 253 443 427
f 442 443 253
f 254 442 253
f 441 442 254
f 255 441 254
f 119 91 441
f 119 441 255
f 279 345 264
f 277 282 265
f 266 277 265
f 276 277 266
f 274 275 268
f 274 268 269
f 281 279 264
f 280 279 281
f 281 264 265
f 280 282 278
f 282 281 265
f 282 280 281
f 267 276 266
f 283 276 267
f 284 283 267
f 284 9 283
f 285 267 268
f 285 275 284
f 285 284 267
f 285 268 275
f 286 274 269
f 287 269 270
f 287 286 269
f 286 273 20
f 273 286 287
f 273 287 272
f 272 287 270
f 272 270 271
f 294 289 290
f 294 290 291
f 294 291 293
f 295 826 289
f 295 289 294
f 296 826 295
f 292 288 826
f 292 826 296
f 303 298 299
f 303 299 300
f 303 300 302
f 304 297 298
f 304 298 303
f 305 297 304
f 301 5 297
f 301 297 305
f 312 307 308
f 312 308 309
f 312 309 311
f 313 306 307
f 313 307 312
f 314 306 313
f 310 17 306
f 310 306 314
f 500 315 316
f 500 316 317
f 500 317 21
f 319 598 315
f 319 315 500
f 320 598 319
f 318 33 598
f 318 598 320
f 327 323 324
f 327 324 325
f 327 325 16
f 328 322 323
f 328 323 327
f 329 322 328
f 326 321 322
f 326 322 329
f 336 332 333
f 336 333 334
f 336 334 2
f 337 331 332
f 337 332 336
f 338 331 337
f 335 330 331
f 335 331 338
f 356 271 339
f 354 355 340
f 341 354 340
f 353 354 341
f 350 351 342
f 350 342 343
f 358 356 339
f 357 356 358
f 358 339 340
f 357 355 30
f 355 358 340
f 355 357 358
f 360 353 341
f 359 353 360
f 360 341 362
f 361 359 360
f 361 352 359
f 362 351 361
f 362 361 360
f 362 342 351
f 363 343 344
f 363 350 343
f 363 349 350
f 363 347 348
f 363 348 349
f 347 363 346
f 346 363 344
f 346 344 345
f 98 91 119
f 150 98 119
f 97 98 150
f 120 97 150
f 96 97 120
f 121 96 120
f 117 96 121
f 148 117 121
f 95 117 148
f 147 95 148
f 94 95 147
f 122 94 147
f 116 94 122
f 123 116 122
f 115 116 123
f 124 115 123
f 114 115 124
f 125 114 124
f 113 114 125
f 126 113 125
f 112 113 126
f 145 112 126
f 111 112 145
f 127 111 145
f 128 111 127
f 128 110 111
f 109 110 128
f 143 109 128
f 129 109 143
f 129 93 109
f 130 93 129
f 130 108 93
f 107 108 130
f 131 107 130
f 132 107 131
f 132 105 107
f 104 105 132
f 140 104 132
f 133 103 104
f 133 104 140
f 134 102 103
f 134 103 133
f 100 102 134
f 135 100 134
f 138 92 100
f 138 100 135
f 365 341 340
f 429 341 365
f 427 365 340
f 426 340 339
f 426 427 340
f 430 341 429
f 364 426 339
f 431 341 430
f 119 339 271
f 119 364 339
f 431 362 341
f 150 119 271
f 433 362 431
f 137 150 271
f 137 271 270
f 435 342 362
f 435 362 433
f 149 137 270
f 436 342 435
f 149 270 269
f 436 343 342
f 269 122 149
f 343 436 437
f 146 122 269
f 268 146 269
f 344 437 438
f 344 343 437
f 268 125 146
f 345 344 438
f 345 438 366
f 267 125 268
f 267 136 125
f 345 366 439
f 345 439 139
f 266 136 267
f 266 144 127
f 266 127 136
f 264 345 139
f 264 139 134
f 266 129 143
f 266 143 144
f 264 134 141
f 265 264 141
f 266 142 129
f 265 141 132
f 265 142 266
f 265 132 142
f 385 378 370
f 208 381 395
f 384 367 383
f 382 206 367
f 382 367 384
f 383 368 369
f 384 378 382
f 384 383 369
f 384 369 370
f 378 384 370
f 386 370 371
f 386 385 370
f 386 379 385
f 386 371 379
f 372 379 371
f 387 388 379
f 387 379 372
f 387 372 25
f 389 387 25
f 390 380 388
f 390 388 387
f 390 387 389
f 389 25 373
f 390 389 373
f 390 373 374
f 380 390 374
f 391 380 374
f 391 375 393
f 391 374 375
f 393 375 376
f 392 376 14
f 392 14 377
f 394 376 392
f 394 392 377
f 393 376 394
f 394 377 395
f 381 394 395
f 381 393 394
f 49 151 48
f 49 396 151
f 50 397 396
f 50 396 49
f 51 398 397
f 51 397 50
f 52 399 398
f 52 398 51
f 54 400 399
f 54 399 52
f 55 401 400
f 55 400 54
f 56 402 401
f 56 401 55
f 403 402 56
f 57 403 56
f 404 403 57
f 58 404 57
f 405 404 58
f 42 405 58
f 406 405 42
f 60 406 42
f 407 406 60
f 61 407 60
f 408 407 61
f 62 408 61
f 409 408 62
f 63 409 62
f 410 409 63
f 65 410 63
f 411 410 65
f 66 411 65
f 412 411 66
f 43 412 66
f 413 412 43
f 44 413 43
f 414 413 44
f 45 414 44
f 415 414 45
f 46 415 45
f 416 415 46
f 47 416 46
f 417 416 47
f 69 417 47
f 152 417 69
f 41 152 69
f 424 378 385
f 462 385 379
f 462 424 385
f 459 378 424
f 459 382 378
f 423 462 379
f 425 382 459
f 425 206 382
f 422 423 379
f 195 206 425
f 422 379 388
f 68 206 195
f 68 207 206
f 421 388 380
f 421 422 388
f 47 207 68
f 420 380 391
f 420 421 380
f 46 237 207
f 46 207 47
f 45 237 46
f 419 391 393
f 419 420 391
f 34 237 45
f 235 237 34
f 418 419 393
f 381 418 393
f 235 34 35
f 381 202 418
f 381 203 202
f 233 235 35
f 233 35 36
f 381 474 203
f 231 233 36
f 231 36 59
f 208 474 381
f 208 40 474
f 229 231 59
f 208 39 40
f 212 229 59
f 212 59 42
f 224 39 208
f 211 212 42
f 211 42 58
f 211 58 57
f 209 39 224
f 209 38 39
f 211 57 37
f 210 38 209
f 210 37 38
f 226 211 37
f 226 37 210
f 151 89 90
f 396 88 89
f 396 89 151
f 397 87 88
f 397 88 396
f 398 86 87
f 398 87 397
f 399 85 86
f 399 86 398
f 400 84 85
f 400 85 399
f 401 83 84
f 401 84 400
f 402 82 83
f 402 83 401
f 403 81 82
f 403 82 402
f 404 80 81
f 404 81 403
f 405 79 80
f 405 80 404
f 406 78 79
f 406 79 405
f 407 78 406
f 408 78 407
f 408 77 113
f 408 113 78
f 409 77 408
f 410 77 409
f 410 76 115
f 410 115 77
f 411 76 410
f 412 76 411
f 412 75 76
f 413 75 412
f 413 73 74
f 413 74 75
f 414 73 413
f 415 72 73
f 415 73 414
f 416 72 415
f 416 71 97
f 416 97 72
f 417 71 416
f 152 70 71
f 152 71 417
f 364 119 255
f 426 364 255
f 426 255 254
f 426 254 253
f 427 426 253
f 428 365 427
f 428 427 252
f 428 252 251
f 429 428 251
f 429 251 250
f 429 365 428
f 429 250 249
f 248 429 249
f 430 429 248
f 430 248 247
f 431 247 246
f 431 430 247
f 431 246 245
f 432 431 245
f 433 431 432
f 435 432 434
f 435 433 432
f 435 434 244
f 436 435 244
f 436 244 243
f 436 243 242
f 241 436 242
f 437 436 241
f 240 437 241
f 438 437 240
f 439 438 239
f 439 366 438
f 440 439 239
f 439 440 138
f 439 138 139
f 441 91 70
f 441 70 194
f 442 194 193
f 442 441 194
f 443 193 192
f 443 442 193
f 444 192 191
f 444 443 192
f 256 191 190
f 256 444 191
f 445 190 189
f 445 256 190
f 446 256 445
f 447 189 188
f 447 445 189
f 447 446 445
f 448 188 187
f 448 447 188
f 449 448 187
f 450 449 186
f 451 186 185
f 451 450 186
f 257 451 185
f 258 257 184
f 452 183 182
f 452 184 183
f 452 258 184
f 453 258 452
f 454 452 182
f 454 453 452
f 455 182 181
f 455 454 182
f 259 181 180
f 259 455 181
f 260 180 179
f 260 259 180
f 261 179 178
f 261 260 179
f 262 177 176
f 262 261 178
f 262 178 177
f 263 262 176
f 456 175 90
f 456 176 175
f 456 263 176
f 456 90 99
f 456 99 92
f 195 41 68
f 457 195 425
f 458 457 425
f 196 458 425
f 196 425 459
f 460 196 459
f 462 459 424
f 461 460 459
f 461 459 462
f 197 461 462
f 464 462 423
f 463 197 462
f 463 462 464
f 465 463 464
f 422 464 423
f 198 464 422
f 198 465 464
f 199 198 422
f 467 422 421
f 466 422 467
f 466 199 422
f 468 466 467
f 420 467 421
f 469 467 420
f 469 468 467
f 470 469 420
f 472 420 419
f 471 470 420
f 471 420 472
f 473 471 472
f 418 472 419
f 200 472 418
f 200 473 472
f 201 200 418
f 202 201 418
f 474 40 48
f 27 318 476
f 27 33 318
f 28 476 475
f 28 27 476
f 29 475 311
f 29 28 475
f 309 29 311
f 477 475 476
f 477 476 318
f 478 311 475
f 478 475 477
f 479 478 477
f 309 480 29
f 481 369 368
f 493 25 372
f 483 477 318
f 483 318 320
f 483 369 481
f 482 369 483
f 484 370 369
f 484 369 482
f 486 320 319
f 486 485 320
f 487 488 486
f 487 486 319
f 489 371 370
f 489 488 487
f 489 490 488
f 489 370 490
f 491 371 489
f 491 489 494
f 501 372 371
f 492 500 21
f 21 497 492
f 479 481 368
f 479 477 483
f 479 483 481
f 485 482 483
f 485 483 320
f 485 484 482
f 484 485 486
f 494 487 319
f 494 489 487
f 495 319 500
f 497 493 372
f 497 496 492
f 497 372 496
f 498 26 25
f 498 23 26
f 498 21 23
f 498 497 21
f 498 493 497
f 498 25 493
f 490 484 486
f 490 486 488
f 490 370 484
f 491 319 495
f 491 494 319
f 491 501 371
f 495 501 491
f 499 501 495
f 500 499 495
f 501 496 372
f 501 492 496
f 499 500 492
f 499 492 501
f 514 502 238
f 503 312 311
f 504 383 367
f 504 519 383
f 504 505 519
f 503 504 312
f 503 505 504
f 506 504 367
f 506 367 507
f 506 312 504
f 507 367 206
f 508 313 312
f 508 312 506
f 508 506 507
f 509 206 205
f 509 510 206
f 511 313 508
f 511 508 509
f 512 509 205
f 512 513 509
f 205 238 502
f 522 314 313
f 522 313 513
f 522 205 502
f 514 314 522
f 514 522 502
f 314 514 238
f 516 314 238
f 516 515 314
f 516 238 204
f 517 314 515
f 517 310 314
f 517 515 516
f 518 368 383
f 519 518 383
f 519 503 518
f 519 505 503
f 520 508 507
f 521 509 508
f 521 206 510
f 521 510 509
f 513 511 509
f 513 313 511
f 522 512 205
f 522 513 512
f 523 517 516
f 523 516 204
f 524 311 478
f 524 478 479
f 524 479 368
f 524 368 518
f 524 518 503
f 524 503 311
f 525 508 520
f 525 520 507
f 525 521 508
f 525 206 521
f 525 507 206
f 18 310 527
f 18 17 310
f 528 527 526
f 528 18 527
f 529 526 302
f 529 528 526
f 300 529 302
f 530 17 19
f 532 20 273
f 532 531 20
f 533 306 17
f 533 17 530
f 533 530 531
f 533 534 535
f 536 273 272
f 536 272 537
f 536 537 306
f 536 534 273
f 536 535 534
f 538 536 306
f 538 306 533
f 538 533 535
f 538 535 536
f 539 540 541
f 542 272 271
f 542 540 272
f 542 541 540
f 543 307 306
f 543 306 539
f 543 539 541
f 543 541 542
f 544 271 356
f 544 545 271
f 544 546 545
f 562 307 543
f 562 543 546
f 562 546 544
f 547 563 544
f 547 544 356
f 548 307 549
f 548 549 563
f 548 308 307
f 548 356 550
f 551 308 548
f 551 548 550
f 552 551 550
f 552 356 357
f 552 550 356
f 552 308 551
f 552 553 308
f 552 357 553
f 554 309 308
f 554 308 553
f 554 553 357
f 556 357 30
f 556 554 357
f 556 555 554
f 557 480 309
f 557 554 555
f 557 555 556
f 557 309 554
f 558 530 19
f 558 20 531
f 558 531 530
f 559 532 273
f 559 531 532
f 559 533 531
f 559 273 534
f 559 534 533
f 560 272 540
f 560 540 539
f 561 542 271
f 561 543 542
f 561 271 545
f 561 546 543
f 561 545 546
f 563 549 307
f 563 562 544
f 563 307 562
f 564 547 356
f 564 356 548
f 564 548 563
f 564 563 547
f 32 557 556
f 32 556 30
f 32 480 557
f 565 537 272
f 565 306 537
f 565 560 539
f 565 539 306
f 565 272 560
f 567 30 355
f 568 598 33
f 568 33 569
f 568 569 586
f 571 315 598
f 572 315 571
f 572 571 590
f 573 354 353
f 573 574 354
f 573 590 574
f 575 573 591
f 576 573 353
f 576 591 573
f 577 316 315
f 577 592 316
f 577 315 575
f 577 575 591
f 578 353 359
f 579 578 359
f 579 593 578
f 580 581 593
f 580 593 579
f 580 317 316
f 580 316 581
f 582 359 352
f 584 317 580
f 584 580 583
f 584 566 317
f 584 611 566
f 584 352 611
f 584 582 352
f 584 583 582
f 585 33 31
f 585 31 32
f 585 32 30
f 585 569 33
f 585 30 567
f 586 569 585
f 586 585 567
f 587 586 567
f 587 568 586
f 587 567 355
f 587 355 588
f 587 570 568
f 587 588 570
f 596 355 354
f 589 354 574
f 589 571 599
f 589 590 571
f 589 599 354
f 589 574 590
f 590 315 572
f 590 575 315
f 590 573 575
f 592 353 578
f 593 316 592
f 593 592 578
f 593 581 316
f 594 579 359
f 594 583 580
f 594 582 583
f 594 359 582
f 594 580 579
f 595 571 598
f 596 571 595
f 576 577 591
f 576 353 592
f 576 592 577
f 597 588 355
f 597 596 595
f 597 570 588
f 597 568 570
f 597 355 596
f 599 571 596
f 599 596 354
f 600 597 595
f 600 598 568
f 600 568 597
f 600 595 598
f 321 326 603
f 601 604 24
f 601 603 604
f 601 321 603
f 602 23 22
f 602 24 23
f 602 601 24
f 317 22 21
f 317 602 22
f 604 26 23
f 604 23 24
f 604 603 326
f 605 523 204
f 517 526 527
f 517 527 310
f 607 517 523
f 606 302 526
f 606 517 607
f 606 526 517
f 607 523 605
f 606 607 605
f 608 20 558
f 19 608 558
f 609 608 19
f 610 19 18
f 610 18 528
f 610 528 529
f 300 19 610
f 300 610 529
f 300 609 19
f 612 321 601
f 566 601 602
f 566 602 317
f 612 566 611
f 612 601 566
f 613 611 352
f 613 612 611
f 614 15 14
f 614 14 376
f 618 15 614
f 615 16 15
f 615 15 618
f 616 373 25
f 617 373 616
f 618 614 376
f 619 327 16
f 619 16 615
f 620 376 375
f 620 375 621
f 620 622 376
f 623 328 327
f 623 621 375
f 623 624 621
f 623 327 624
f 625 623 638
f 625 328 623
f 626 375 374
f 626 627 375
f 626 638 627
f 626 625 638
f 639 626 640
f 628 626 374
f 628 640 626
f 629 329 328
f 629 641 329
f 629 328 639
f 629 639 640
f 630 374 373
f 631 617 329
f 631 642 617
f 632 642 630
f 632 630 373
f 632 617 642
f 632 373 617
f 633 604 326
f 633 326 329
f 633 329 617
f 633 617 616
f 634 615 618
f 634 618 376
f 634 619 615
f 635 634 376
f 635 619 634
f 635 376 622
f 636 327 619
f 636 635 622
f 636 619 635
f 636 622 620
f 637 620 621
f 637 621 624
f 638 375 627
f 638 623 375
f 639 328 625
f 639 625 626
f 641 374 630
f 642 641 630
f 642 631 329
f 642 329 641
f 26 633 616
f 26 616 25
f 26 604 633
f 624 636 620
f 624 620 637
f 624 327 636
f 628 641 629
f 628 629 640
f 628 374 641
f 644 605 204
f 644 204 223
f 666 302 606
f 666 606 605
f 666 605 644
f 645 220 219
f 646 644 223
f 646 666 644
f 647 303 302
f 647 302 666
f 648 223 222
f 648 649 223
f 650 651 648
f 650 648 222
f 652 304 303
f 652 651 650
f 652 653 651
f 652 303 653
f 652 650 222
f 654 304 652
f 654 652 669
f 655 222 221
f 655 656 222
f 655 669 656
f 657 655 671
f 658 671 655
f 658 655 221
f 659 305 304
f 659 221 672
f 659 672 305
f 659 304 657
f 659 657 671
f 660 221 220
f 660 672 221
f 661 662 660
f 661 660 220
f 663 664 662
f 663 305 664
f 663 661 220
f 663 301 305
f 663 662 661
f 663 220 645
f 665 643 301
f 665 301 663
f 665 663 645
f 666 646 223
f 667 666 223
f 667 647 666
f 667 223 649
f 668 303 647
f 668 667 649
f 668 647 667
f 668 649 648
f 669 222 656
f 669 652 222
f 670 304 654
f 670 654 669
f 670 669 655
f 670 657 304
f 670 655 657
f 672 660 662
f 672 662 664
f 672 664 305
f 740 665 645
f 740 645 219
f 740 643 665
f 653 648 651
f 653 668 648
f 653 303 668
f 658 221 659
f 658 659 671
f 6 5 301
f 6 301 674
f 7 6 674
f 8 674 673
f 8 7 674
f 743 8 673
f 675 673 293
f 675 743 673
f 291 675 293
f 676 286 20
f 677 9 284
f 678 20 608
f 678 608 609
f 678 609 300
f 678 676 20
f 679 300 299
f 679 678 300
f 679 286 676
f 679 676 678
f 680 286 679
f 681 679 299
f 681 680 679
f 682 274 286
f 682 286 680
f 683 299 298
f 684 683 685
f 684 274 683
f 686 683 298
f 686 685 683
f 687 275 274
f 687 686 298
f 687 274 684
f 687 684 685
f 687 685 686
f 688 275 687
f 688 687 701
f 689 298 297
f 689 690 298
f 689 701 690
f 691 689 703
f 692 689 297
f 692 703 689
f 693 284 275
f 693 275 691
f 693 691 703
f 694 284 693
f 695 696 297
f 695 297 5
f 695 704 696
f 697 695 706
f 697 284 695
f 697 677 284
f 697 706 677
f 698 706 695
f 698 695 5
f 699 681 299
f 699 680 681
f 699 682 680
f 700 274 682
f 700 683 274
f 701 298 690
f 701 687 298
f 702 688 701
f 702 275 688
f 702 701 689
f 702 691 275
f 702 689 691
f 704 297 696
f 704 694 693
f 705 694 704
f 705 704 695
f 705 284 694
f 705 695 284
f 707 10 9
f 707 7 10
f 707 5 7
f 707 698 5
f 707 706 698
f 707 677 706
f 707 9 677
f 708 699 299
f 708 682 699
f 708 683 700
f 708 700 682
f 708 299 683
f 692 693 703
f 692 704 693
f 692 297 704
f 709 349 348
f 710 352 361
f 712 325 324
f 712 711 325
f 712 349 709
f 712 709 711
f 713 349 712
f 714 713 712
f 714 712 324
f 715 350 349
f 715 716 350
f 715 349 713
f 717 324 323
f 718 351 350
f 719 323 322
f 720 351 718
f 720 721 730
f 720 718 721
f 722 730 721
f 722 719 322
f 722 721 719
f 723 361 351
f 723 731 361
f 723 351 720
f 723 720 730
f 724 322 321
f 724 361 731
f 724 725 322
f 724 731 725
f 726 710 361
f 726 733 710
f 727 733 724
f 727 724 321
f 744 709 348
f 744 711 709
f 716 713 714
f 716 714 324
f 716 715 713
f 728 718 350
f 729 717 323
f 729 718 717
f 729 323 719
f 729 721 718
f 729 719 721
f 731 322 725
f 732 361 724
f 732 724 733
f 732 726 361
f 732 733 726
f 734 321 612
f 734 612 613
f 734 613 352
f 734 733 727
f 734 710 733
f 734 727 321
f 734 352 710
f 735 350 716
f 735 716 324
f 735 324 717
f 735 728 350
f 717 718 728
f 717 728 735
f 736 723 730
f 736 730 722
f 736 322 731
f 736 731 723
f 736 722 322
f 330 335 13
f 737 13 12
f 737 330 13
f 738 12 11
f 738 737 12
f 325 11 16
f 325 738 11
f 335 739 13
f 741 293 673
f 643 673 674
f 643 674 301
f 741 643 740
f 741 673 643
f 742 740 219
f 742 741 740
f 743 10 7
f 743 7 8
f 743 675 291
f 745 737 738
f 745 738 325
f 745 325 711
f 746 330 737
f 746 737 745
f 747 744 746
f 747 745 711
f 747 746 745
f 744 747 711
f 748 2 3
f 750 4 214
f 750 749 4
f 751 336 2
f 751 2 748
f 751 748 749
f 751 752 753
f 754 214 213
f 754 213 755
f 754 755 336
f 754 752 214
f 754 753 752
f 756 754 336
f 756 336 751
f 756 751 753
f 756 753 754
f 757 759 758
f 759 213 208
f 760 337 336
f 760 336 757
f 760 757 758
f 761 208 395
f 761 762 208
f 761 763 762
f 764 337 760
f 764 760 763
f 764 763 761
f 765 766 761
f 765 761 395
f 767 395 768
f 767 768 769
f 767 338 337
f 767 337 770
f 767 770 766
f 771 767 769
f 771 338 767
f 772 768 395
f 772 769 768
f 772 771 769
f 772 338 771
f 772 395 377
f 773 335 338
f 775 377 14
f 775 773 377
f 775 774 773
f 776 739 335
f 776 773 774
f 776 335 773
f 776 774 775
f 777 748 3
f 777 4 749
f 777 749 748
f 778 750 214
f 778 749 750
f 778 751 749
f 778 214 752
f 778 752 751
f 779 213 759
f 779 759 757
f 780 758 759
f 780 760 758
f 781 208 762
f 781 763 760
f 781 762 763
f 766 337 764
f 766 764 761
f 766 770 337
f 782 765 395
f 782 767 766
f 782 395 767
f 782 766 765
f 783 772 377
f 783 377 773
f 15 776 775
f 15 775 14
f 15 739 776
f 784 755 213
f 784 336 755
f 784 779 757
f 784 213 779
f 784 757 336
f 785 759 208
f 785 760 780
f 785 208 781
f 785 781 760
f 785 780 759
f 786 338 772
f 786 773 338
f 786 772 783
f 786 783 773
f 807 219 218
f 788 787 292
f 790 215 4
f 790 4 789
f 791 292 296
f 791 788 292
f 791 789 788
f 792 791 811
f 793 811 791
f 793 791 296
f 794 216 215
f 794 215 792
f 794 792 811
f 795 296 295
f 795 216 794
f 795 794 296
f 813 795 295
f 813 812 795
f 796 217 216
f 796 797 812
f 796 216 797
f 796 812 813
f 798 217 796
f 798 796 814
f 799 295 294
f 799 800 295
f 799 814 800
f 801 799 816
f 820 799 294
f 820 816 799
f 802 218 217
f 802 217 801
f 802 801 816
f 803 218 802
f 804 805 294
f 804 806 805
f 804 803 806
f 804 218 803
f 804 294 293
f 808 818 804
f 808 804 293
f 809 789 4
f 809 787 788
f 809 788 789
f 810 215 790
f 810 790 789
f 810 789 791
f 810 792 215
f 810 791 792
f 811 793 296
f 811 296 794
f 814 796 813
f 814 295 800
f 814 813 295
f 815 798 814
f 815 814 799
f 815 217 798
f 815 801 217
f 815 799 801
f 806 294 805
f 806 803 802
f 817 804 818
f 817 818 807
f 817 807 218
f 817 218 804
f 819 293 741
f 819 741 742
f 819 742 219
f 819 808 293
f 819 818 808
f 819 219 807
f 819 807 818
f 797 795 812
f 797 216 795
f 820 294 806
f 820 802 816
f 820 806 802
f 822 278 282
f 824 826 288
f 824 288 825
f 824 825 823
f 826 824 827
f 828 282 277
f 828 827 829
f 828 829 282
f 828 826 827
f 851 828 277
f 851 830 828
f 831 289 826
f 831 826 832
f 831 832 830
f 831 830 851
f 833 289 831
f 833 831 853
f 834 277 276
f 834 835 277
f 834 853 835
f 836 834 837
f 838 834 276
f 838 837 834
f 839 290 289
f 839 840 290
f 839 289 836
f 839 836 837
f 841 840 842
f 841 276 283
f 841 843 290
f 841 290 840
f 841 842 276
f 844 841 283
f 844 843 841
f 845 291 290
f 845 843 844
f 845 290 843
f 846 283 9
f 848 743 291
f 848 845 847
f 848 291 845
f 848 847 846
f 849 821 278
f 849 899 821
f 849 288 899
f 849 825 288
f 849 278 822
f 823 825 849
f 823 849 822
f 850 824 823
f 850 823 822
f 850 822 282
f 850 827 824
f 850 829 827
f 850 282 829
f 852 277 835
f 852 831 851
f 852 853 831
f 852 851 277
f 852 835 853
f 853 289 833
f 853 836 289
f 853 834 836
f 854 842 840
f 854 840 839
f 854 276 842
f 855 844 283
f 855 845 844
f 855 847 845
f 855 846 847
f 855 283 846
f 10 848 846
f 10 846 9
f 10 743 848
f 832 828 830
f 832 826 828
f 838 276 854
f 838 839 837
f 838 854 839
f 858 744 348
f 857 330 746
f 857 746 744
f 857 744 858
f 858 348 347
f 859 331 330
f 859 330 857
f 859 860 861
f 862 347 346
f 862 346 863
f 862 863 331
f 862 860 347
f 862 861 860
f 864 331 859
f 864 862 331
f 864 859 861
f 864 861 862
f 865 867 866
f 867 346 345
f 868 332 331
f 868 331 865
f 868 865 866
f 869 345 279
f 869 870 871
f 869 871 345
f 872 332 868
f 872 868 870
f 872 870 869
f 873 869 279
f 873 889 869
f 874 875 889
f 874 279 876
f 874 876 877
f 874 333 332
f 874 332 875
f 878 874 877
f 878 333 874
f 879 876 279
f 879 877 876
f 879 279 280
f 879 878 877
f 879 333 878
f 879 880 333
f 879 280 880
f 881 334 333
f 881 333 880
f 881 880 280
f 883 280 278
f 883 882 881
f 883 881 280
f 884 856 334
f 884 881 882
f 884 882 883
f 884 334 881
f 885 858 347
f 885 857 858
f 885 859 857
f 885 347 860
f 885 860 859
f 886 346 867
f 886 867 865
f 887 866 867
f 887 868 866
f 888 870 868
f 888 871 870
f 888 345 871
f 889 332 872
f 889 872 869
f 889 875 332
f 890 873 279
f 890 874 889
f 890 889 873
f 890 279 874
f 891 884 883
f 891 883 278
f 891 856 884
f 892 863 346
f 892 331 863
f 892 886 865
f 892 865 331
f 892 346 886
f 893 888 868
f 893 868 887
f 893 887 867
f 893 345 888
f 893 867 345
f 809 4 777
f 3 809 777
f 787 809 3
f 896 3 1
f 896 895 894
f 896 1 895
f 292 3 896
f 292 787 3
f 292 896 894
f 821 891 278
f 856 897 334
f 856 898 897
f 900 856 891
f 899 288 898
f 899 898 856
f 899 856 900
f 900 891 821
f 899 900 821
f 288 292 894
f 898 894 895
f 898 288 894
f 897 895 1
f 897 898 895
f 334 1 2
f 334 897 1

