# https://github.com/mikedh/trimesh
v 0.00000000 1.20000000 -2.70000000
v 0.00000000 0.00000000 -2.70000000
v -0.36764995 0.00000000 -2.67485205
v -0.72845128 0.00000000 -2.59987668
v -1.07568294 0.00000000 -2.47647051
v -1.40287667 0.00000000 -2.30693239
v -1.70393745 0.00000000 -2.09442048
v -1.97325710 0.00000000 -1.84289349
v -2.20581871 0.00000000 -1.55703687
v -2.39729009 0.00000000 -1.24217560
v -2.54410449 0.00000000 -0.90417495
v -2.64352704 0.00000000 -0.54933124
v -2.69370568 0.00000000 -0.18425452
v -2.69370568 0.00000000 0.18425452
v -2.64352704 0.00000000 0.54933124
v -2.54410449 0.00000000 0.90417495
v -2.39729009 0.00000000 1.24217560
v -2.20581871 0.00000000 1.55703687
v -1.97325710 0.00000000 1.84289349
v -1.70393745 0.00000000 2.09442048
v -1.40287667 0.00000000 2.30693239
v -1.07568294 0.00000000 2.47647051
v -0.72845128 0.00000000 2.59987668
v -0.36764995 0.00000000 2.67485205
v 0.00000000 0.00000000 2.70000000
v 0.00000000 1.20000000 2.70000000
v -0.36764995 1.20000000 -2.67485205
v -0.72845128 1.20000000 -2.59987668
v -1.07568294 1.20000000 -2.47647051
v -1.40287667 1.20000000 -2.30693239
v -1.70393745 1.20000000 -2.09442048
v -1.97325710 1.20000000 -1.84289349
v -2.20581871 1.20000000 -1.55703687
v -2.39729009 1.20000000 -1.24217560
v -2.54410449 1.20000000 -0.90417495
v -2.64352704 1.20000000 -0.54933124
v -2.69370568 1.20000000 -0.18425452
v -2.69370568 1.20000000 0.18425452
v -2.64352704 1.20000000 0.54933124
v -2.54410449 1.20000000 0.90417495
v -2.39729009 1.20000000 1.24217560
v -2.20581871 1.20000000 1.55703687
v -1.97325710 1.20000000 1.84289349
v -1.70393745 1.20000000 2.09442048
v -1.40287667 1.20000000 2.30693239
v -1.07568294 1.20000000 2.47647051
v -0.72845128 1.20000000 2.59987668
v -0.36764995 1.20000000 2.67485205
v 0.00000000 1.20000000 7.37500000
v 1.00422904 1.20000000 7.30630885
v 1.98975119 1.20000000 7.10151499
v 2.93820804 1.20000000 6.76443335
v 3.83193163 1.20000000 6.30134311
v 4.65427359 1.20000000 5.72087077
v 5.38991524 1.20000000 5.03382943
v 6.02515296 1.20000000 4.25301738
v 6.54815349 1.20000000 3.39297965
v 6.94917430 1.20000000 2.46973714
v 7.22074515 1.20000000 1.50048810
v 7.35780717 1.20000000 0.50328780
v 7.35780717 1.20000000 -0.50328780
v 7.22074515 1.20000000 -1.50048810
v 6.94917430 1.20000000 -2.46973714
v 6.54815349 1.20000000 -3.39297965
v 6.02515296 1.20000000 -4.25301738
v 5.38991524 1.20000000 -5.03382943
v 4.65427359 1.20000000 -5.72087077
v 3.83193163 1.20000000 -6.30134311
v 2.93820804 1.20000000 -6.76443335
v 1.98975119 1.20000000 -7.10151499
v 1.00422904 1.20000000 -7.30630885
v 0.00000000 1.20000000 -7.37500000
v 0.00000000 0.00000000 7.37500000
v 1.00422904 0.00000000 7.30630885
v 1.98975119 0.00000000 7.10151499
v 2.93820804 0.00000000 6.76443335
v 3.83193163 0.00000000 6.30134311
v 4.65427359 0.00000000 5.72087077
v 5.38991524 0.00000000 5.03382943
v 6.02515296 0.00000000 4.25301738
v 6.54815349 0.00000000 3.39297965
v 6.94917430 0.00000000 2.46973714
v 7.22074515 0.00000000 1.50048810
v 7.35780717 0.00000000 0.50328780
v 7.35780717 0.00000000 -0.50328780
v 7.22074515 0.00000000 -1.50048810
v 6.94917430 0.00000000 -2.46973714
v 6.54815349 0.00000000 -3.39297965
v 6.02515296 0.00000000 -4.25301738
v 5.38991524 0.00000000 -5.03382943
v 4.65427359 0.00000000 -5.72087077
v 3.83193163 0.00000000 -6.30134311
v 2.93820804 0.00000000 -6.76443335
v 1.98975119 0.00000000 -7.10151499
v 1.00422904 0.00000000 -7.30630885
v 0.00000000 0.00000000 -7.37500000
v -1.00422904 1.20000000 -7.30630885
v -1.98975119 1.20000000 -7.10151499
v -2.93820804 1.20000000 -6.76443335
v -3.83193163 1.20000000 -6.30134311
v -4.65427359 1.20000000 -5.72087077
v -5.38991524 1.20000000 -5.03382943
v -6.02515296 1.20000000 -4.25301738
v -6.54815349 1.20000000 -3.39297965
v -6.94917430 1.20000000 -2.46973714
v -7.22074515 1.20000000 -1.50048810
v -7.35780717 1.20000000 -0.50328780
v -7.35780717 1.20000000 0.50328780
v -7.22074515 1.20000000 1.50048810
v -6.94917430 1.20000000 2.46973714
v -6.54815349 1.20000000 3.39297965
v -6.02515296 1.20000000 4.25301738
v -5.38991524 1.20000000 5.03382943
v -4.65427359 1.20000000 5.72087077
v -3.83193163 1.20000000 6.30134311
v -2.93820804 1.20000000 6.76443335
v -1.98975119 1.20000000 7.10151499
v -1.00422904 1.20000000 7.30630885
v 0.36764995 1.20000000 2.67485205
v 0.72845128 1.20000000 2.59987668
v 1.07568294 1.20000000 2.47647051
v 1.40287667 1.20000000 2.30693239
v 1.70393745 1.20000000 2.09442048
v 1.97325710 1.20000000 1.84289349
v 2.20581871 1.20000000 1.55703687
v 2.39729009 1.20000000 1.24217560
v 2.54410449 1.20000000 0.90417495
v 2.64352704 1.20000000 0.54933124
v 2.69370568 1.20000000 0.18425452
v 2.69370568 1.20000000 -0.18425452
v 2.64352704 1.20000000 -0.54933124
v 2.54410449 1.20000000 -0.90417495
v 2.39729009 1.20000000 -1.24217560
v 2.20581871 1.20000000 -1.55703687
v 1.97325710 1.20000000 -1.84289349
v 1.70393745 1.20000000 -2.09442048
v 1.40287667 1.20000000 -2.30693239
v 1.07568294 1.20000000 -2.47647051
v 0.72845128 1.20000000 -2.59987668
v 0.36764995 1.20000000 -2.67485205
v -1.00422904 0.00000000 -7.30630885
v -1.98975119 0.00000000 -7.10151499
v -2.93820804 0.00000000 -6.76443335
v -3.83193163 0.00000000 -6.30134311
v -4.65427359 0.00000000 -5.72087077
v -5.38991524 0.00000000 -5.03382943
v -6.02515296 0.00000000 -4.25301738
v -6.54815349 0.00000000 -3.39297965
v -6.94917430 0.00000000 -2.46973714
v -7.22074515 0.00000000 -1.50048810
v -7.35780717 0.00000000 -0.50328780
v -7.35780717 0.00000000 0.50328780
v -7.22074515 0.00000000 1.50048810
v -6.94917430 0.00000000 2.46973714
v -6.54815349 0.00000000 3.39297965
v -6.02515296 0.00000000 4.25301738
v -5.38991524 0.00000000 5.03382943
v -4.65427359 0.00000000 5.72087077
v -3.83193163 0.00000000 6.30134311
v -2.93820804 0.00000000 6.76443335
v -1.98975119 0.00000000 7.10151499
v -1.00422904 0.00000000 7.30630885
v 0.36764995 0.00000000 2.67485205
v 0.72845128 0.00000000 2.59987668
v 1.07568294 0.00000000 2.47647051
v 1.40287667 0.00000000 2.30693239
v 1.70393745 0.00000000 2.09442048
v 1.97325710 0.00000000 1.84289349
v 2.20581871 0.00000000 1.55703687
v 2.39729009 0.00000000 1.24217560
v 2.54410449 0.00000000 0.90417495
v 2.64352704 0.00000000 0.54933124
v 2.69370568 0.00000000 0.18425452
v 2.69370568 0.00000000 -0.18425452
v 2.64352704 0.00000000 -0.54933124
v 2.54410449 0.00000000 -0.90417495
v 2.39729009 0.00000000 -1.24217560
v 2.20581871 0.00000000 -1.55703687
v 1.97325710 0.00000000 -1.84289349
v 1.70393745 0.00000000 -2.09442048
v 1.40287667 0.00000000 -2.30693239
v 1.07568294 0.00000000 -2.47647051
v 0.72845128 0.00000000 -2.59987668
v 0.36764995 0.00000000 -2.67485205
f 24 26 25
f 24 48 26
f 23 47 48
f 23 48 24
f 22 46 47
f 22 47 23
f 21 45 46
f 21 46 22
f 20 44 45
f 20 45 21
f 19 43 44
f 19 44 20
f 18 42 43
f 18 43 19
f 17 41 42
f 17 42 18
f 16 40 41
f 16 41 17
f 15 39 40
f 15 40 16
f 14 37 38
f 14 38 39
f 14 39 15
f 13 36 37
f 13 37 14
f 12 36 13
f 11 36 12
f 11 34 35
f 11 35 36
f 10 34 11
f 9 34 10
f 9 33 34
f 8 33 9
f 8 32 33
f 7 32 8
f 7 30 31
f 7 31 32
f 6 30 7
f 5 29 30
f 5 30 6
f 4 28 29
f 4 29 5
f 3 27 28
f 3 28 4
f 2 1 27
f 2 27 3
f 95 72 71
f 95 96 72
f 94 71 70
f 94 95 71
f 93 70 69
f 93 94 70
f 92 69 68
f 92 93 69
f 91 68 67
f 91 92 68
f 90 67 66
f 90 91 67
f 89 66 65
f 89 90 66
f 88 65 64
f 88 89 65
f 87 64 63
f 87 88 64
f 86 63 62
f 86 87 63
f 85 62 61
f 85 86 62
f 84 85 61
f 84 61 60
f 83 84 60
f 83 60 59
f 82 59 58
f 82 83 59
f 81 82 58
f 81 58 57
f 80 57 56
f 80 81 57
f 79 80 56
f 79 56 55
f 78 54 53
f 78 55 54
f 78 79 55
f 77 78 53
f 76 53 52
f 76 77 53
f 75 52 51
f 75 76 52
f 74 50 49
f 74 51 50
f 74 75 51
f 73 74 49
f 32 101 102
f 31 101 32
f 33 102 103
f 33 32 102
f 30 100 101
f 30 101 31
f 34 33 103
f 34 103 104
f 29 99 100
f 29 100 30
f 35 104 105
f 35 34 104
f 28 98 99
f 28 99 29
f 36 105 106
f 36 106 107
f 36 35 105
f 27 97 98
f 27 98 28
f 37 36 107
f 1 97 27
f 1 72 97
f 38 107 108
f 38 37 107
f 140 72 1
f 140 71 72
f 39 108 109
f 39 38 108
f 139 70 71
f 139 71 140
f 40 109 110
f 40 39 109
f 138 69 70
f 138 70 139
f 41 110 111
f 41 40 110
f 137 68 69
f 137 69 138
f 42 111 112
f 42 41 111
f 136 67 68
f 136 68 137
f 43 112 113
f 43 42 112
f 66 67 136
f 66 136 135
f 134 66 135
f 114 44 43
f 114 43 113
f 65 134 133
f 65 66 134
f 115 44 114
f 115 45 44
f 115 46 45
f 64 65 133
f 116 46 115
f 63 64 133
f 63 133 132
f 117 46 116
f 117 47 46
f 62 63 132
f 62 131 130
f 62 132 131
f 118 47 117
f 118 48 47
f 61 62 130
f 49 48 118
f 49 26 48
f 49 119 26
f 60 61 130
f 60 129 128
f 60 130 129
f 50 119 49
f 59 60 128
f 59 128 127
f 51 119 50
f 51 120 119
f 58 59 127
f 52 120 51
f 52 121 120
f 52 122 121
f 57 58 127
f 57 127 126
f 53 122 52
f 56 57 126
f 56 126 125
f 54 122 53
f 54 123 122
f 55 56 125
f 55 124 123
f 55 125 124
f 55 123 54
f 8 146 145
f 7 8 145
f 9 146 8
f 9 147 146
f 6 7 145
f 6 145 144
f 10 148 147
f 10 147 9
f 5 144 143
f 5 6 144
f 11 148 10
f 11 149 148
f 4 5 143
f 4 143 142
f 12 149 11
f 12 150 149
f 12 151 150
f 3 142 141
f 3 4 142
f 13 151 12
f 2 141 96
f 2 3 141
f 14 151 13
f 14 152 151
f 184 96 95
f 184 2 96
f 15 153 152
f 15 152 14
f 183 95 94
f 183 184 95
f 16 154 153
f 16 153 15
f 182 94 93
f 182 183 94
f 17 154 16
f 17 155 154
f 181 93 92
f 181 182 93
f 18 156 155
f 18 155 17
f 180 92 91
f 180 181 92
f 19 157 156
f 19 156 18
f 90 179 180
f 90 180 91
f 178 179 90
f 158 157 19
f 158 19 20
f 89 177 178
f 89 178 90
f 159 158 20
f 159 20 21
f 159 21 22
f 88 177 89
f 160 159 22
f 87 176 177
f 87 177 88
f 161 22 23
f 161 160 22
f 86 176 87
f 86 174 175
f 86 175 176
f 162 161 23
f 162 23 24
f 85 174 86
f 73 162 24
f 73 24 25
f 84 174 85
f 84 172 173
f 84 173 174
f 74 73 25
f 74 25 163
f 83 171 172
f 83 172 84
f 75 74 163
f 75 163 164
f 82 171 83
f 76 75 164
f 76 164 165
f 76 165 166
f 81 171 82
f 81 170 171
f 77 76 166
f 80 169 170
f 80 170 81
f 78 77 166
f 78 166 167
f 79 167 168
f 79 168 169
f 79 169 80
f 79 78 167
f 162 73 49
f 162 49 118
f 161 118 117
f 161 162 118
f 160 117 116
f 160 161 117
f 159 116 115
f 159 160 116
f 158 115 114
f 158 159 115
f 157 114 113
f 157 158 114
f 156 113 112
f 156 157 113
f 155 112 111
f 155 156 112
f 154 111 110
f 154 155 111
f 153 110 109
f 153 154 110
f 152 108 107
f 152 109 108
f 152 153 109
f 151 107 106
f 151 152 107
f 150 151 106
f 149 150 106
f 149 105 104
f 149 106 105
f 148 149 104
f 147 104 103
f 147 148 104
f 146 103 102
f 146 147 103
f 145 101 100
f 145 102 101
f 145 146 102
f 144 145 100
f 143 100 99
f 143 144 100
f 142 99 98
f 142 143 99
f 141 98 97
f 141 142 98
f 96 97 72
f 96 141 97
f 184 1 2
f 184 140 1
f 183 139 140
f 183 140 184
f 182 138 139
f 182 139 183
f 181 137 138
f 181 138 182
f 180 136 137
f 180 137 181
f 179 135 136
f 179 136 180
f 178 134 135
f 178 135 179
f 177 133 134
f 177 134 178
f 176 132 133
f 176 133 177
f 175 131 132
f 175 132 176
f 174 130 131
f 174 131 175
f 173 130 174
f 173 129 130
f 172 129 173
f 172 128 129
f 171 128 172
f 171 127 128
f 170 127 171
f 170 126 127
f 169 126 170
f 169 125 126
f 168 125 169
f 168 124 125
f 167 124 168
f 167 122 123
f 167 123 124
f 166 122 167
f 165 121 122
f 165 122 166
f 164 121 165
f 164 120 121
f 163 26 119
f 163 119 120
f 163 120 164
f 25 26 163

