# https://github.com/mikedh/trimesh
v 2.05794949 0.00000000 2.21000000
v 2.03878164 0.28022409 2.21000000
v 1.98163514 0.55522813 2.21000000
v 1.88757453 0.81988932 2.21000000
v 1.75835198 1.06927752 2.21000000
v 1.59637465 1.29874711 2.21000000
v 1.40465989 1.50402350 2.21000000
v 1.18677897 1.68128277 2.21000000
v 0.94679061 1.82722293 2.21000000
v 0.68916533 1.93912538 2.21000000
v 0.41870220 2.01490560 2.21000000
v 0.14043944 2.05315193 2.21000000
v -0.14043944 2.05315193 2.21000000
v -0.41870220 2.01490560 2.21000000
v -0.68916533 1.93912538 2.21000000
v -0.94679061 1.82722293 2.21000000
v -1.18677897 1.68128277 2.21000000
v -1.40465989 1.50402350 2.21000000
v -1.59637465 1.29874711 2.21000000
v -1.75835198 1.06927752 2.21000000
v -1.88757453 0.81988932 2.21000000
v -1.98163514 0.55522813 2.21000000
v -2.03878164 0.28022409 2.21000000
v -2.05794949 0.00000000 2.21000000
v 2.07420923 0.00000000 2.20866925
v 2.09003622 0.00000000 2.20471241
v 2.10500923 0.00000000 2.19823481
v 0.00000000 2.10500923 2.19823481
v 0.27475884 2.08700058 2.19823481
v 0.54481648 2.03328278 2.19823481
v 0.80555216 1.94477494 2.19823481
v 1.05250461 1.82299147 2.19823481
v 1.28144842 1.67001610 2.19823481
v 1.48846630 1.48846630 2.19823481
v 1.67001610 1.28144842 2.19823481
v 1.82299147 1.05250461 2.19823481
v 1.94477494 0.80555216 2.19823481
v 2.03328278 0.54481648 2.19823481
v 2.08700058 0.27475884 2.19823481
v -2.10500923 0.00000000 2.19823481
v -2.08700058 0.27475884 2.19823481
v -2.03328278 0.54481648 2.19823481
v -1.94477494 0.80555216 2.19823481
v -1.82299147 1.05250461 2.19823481
v -1.67001610 1.28144842 2.19823481
v -1.48846630 1.48846630 2.19823481
v -1.28144842 1.67001610 2.19823481
v -1.05250461 1.82299147 2.19823481
v -0.80555216 1.94477494 2.19823481
v -0.54481648 2.03328278 2.19823481
v -0.27475884 2.08700058 2.19823481
v -2.07420923 0.00000000 2.20866925
v -2.09003622 0.00000000 2.20471241
v -2.05646409 0.27073863 2.20866925
v -2.07215568 0.27280447 2.20471241
v -2.00353227 0.53684485 2.20866925
v -2.01881997 0.54094118 2.20471241
v -1.93094169 0.79982224 2.20471241
v -1.81002447 1.04501811 2.20471241
v -1.65813722 1.27233344 2.20471241
v -1.47787879 1.47787879 2.20471241
v -1.27233344 1.65813722 2.20471241
v -1.19615565 1.69456650 2.20866925
v -1.20528276 1.70749667 2.20471241
v -1.04501811 1.81002447 2.20471241
v -0.95427115 1.84165972 2.20866925
v -0.96155259 1.85571227 2.20471241
v -0.79982224 1.93094169 2.20471241
v -0.69461038 1.95444631 2.20866925
v -0.69991052 1.96935946 2.20471241
v -0.54094118 2.01881997 2.20471241
v -0.42201034 2.03082526 2.20866925
v -0.42523044 2.04632121 2.20471241
v -0.27280447 2.07215568 2.20471241
v -0.14154904 2.06937377 2.20866925
v -0.14262912 2.08516387 2.20471241
v 0.00000000 2.09003622 2.20471241
v 0.14154904 2.06937377 2.20866925
v 0.14262912 2.08516387 2.20471241
v 0.27280447 2.07215568 2.20471241
v 0.42201034 2.03082526 2.20866925
v 0.42523044 2.04632121 2.20471241
v 0.54094118 2.01881997 2.20471241
v 0.69461038 1.95444631 2.20866925
v 0.69991052 1.96935946 2.20471241
v 0.79982224 1.93094169 2.20471241
v 0.95427115 1.84165972 2.20866925
v 0.96155259 1.85571227 2.20471241
v 1.04501811 1.81002447 2.20471241
v 1.19615565 1.69456650 2.20866925
v 1.20528276 1.70749667 2.20471241
v 1.27233344 1.65813722 2.20471241
v 1.41575803 1.51590671 2.20866925
v 1.42656079 1.52747364 2.20471241
v 1.60898752 1.30900844 2.20866925
v 1.62126470 1.31899666 2.20471241
v 1.77224462 1.07772583 2.20866925
v 1.78576751 1.08594928 2.20471241
v 1.90248815 0.82636722 2.20866925
v 1.91700485 0.83267271 2.20471241
v 1.99729193 0.55961495 2.20866925
v 2.01253201 0.56388503 2.20471241
v 2.05488994 0.28243812 2.20866925
v 2.07056951 0.28459323 2.20471241
v 3.94826776 0.00000000 0.35368436
v 3.91448978 0.51535236 0.35368436
v 3.81373380 1.02188689 0.35368436
v 3.64772377 1.51093666 0.35368436
v 3.41930018 1.97413388 0.35368436
v 3.13237141 2.40355312 0.35368436
v 2.79184690 2.79184690 0.35368436
v 2.40355312 3.13237141 0.35368436
v 1.97413388 3.41930018 0.35368436
v 1.51093666 3.64772377 0.35368436
v 1.02188689 3.81373380 0.35368436
v 0.51535236 3.91448978 0.35368436
v 0.00000000 3.94826776 0.35368436
v 3.95472739 0.00000000 0.33872895
v 3.95867304 0.00000000 0.32292316
v 3.96000000 0.00000000 0.30668646
v -3.96000000 0.00000000 0.30668646
v -3.92311635 0.53921993 0.30668646
v -3.81315246 1.06839521 0.30668646
v -3.63215675 1.57766832 0.30668646
v -3.38350084 2.05755244 0.30668646
v -3.07181671 2.49910826 0.30668646
v -2.70291045 2.89411042 0.30668646
v -2.28365408 3.23520078 0.30668646
v -1.82185755 3.51602546 0.30668646
v -1.32612326 3.73135325 0.30668646
v -0.80568581 3.87717299 0.30668646
v -0.27023996 3.95076833 0.30668646
v 0.27023996 3.95076833 0.30668646
v 0.80568581 3.87717299 0.30668646
v 1.32612326 3.73135325 0.30668646
v 1.82185755 3.51602546 0.30668646
v 2.28365408 3.23520078 0.30668646
v 2.70291045 2.89411042 0.30668646
v 3.07181671 2.49910826 0.30668646
v 3.38350084 2.05755244 0.30668646
v 3.63215675 1.57766832 0.30668646
v 3.81315246 1.06839521 0.30668646
v 3.92311635 0.53921993 0.30668646
v -3.94826776 0.00000000 0.35368436
v -3.95472739 0.00000000 0.33872895
v -3.95867304 0.00000000 0.32292316
v -0.51535236 3.91448978 0.35368436
v -1.02188689 3.81373380 0.35368436
v -1.51093666 3.64772377 0.35368436
v -1.97413388 3.41930018 0.35368436
v -2.40355312 3.13237141 0.35368436
v -2.79184690 2.79184690 0.35368436
v -3.13237141 2.40355312 0.35368436
v -3.41930018 1.97413388 0.35368436
v -3.64772377 1.51093666 0.35368436
v -3.81373380 1.02188689 0.35368436
v -3.91448978 0.51535236 0.35368436
v -3.92089415 0.51619551 0.33872895
v -3.92480605 0.51671052 0.32292316
v -3.81997332 1.02355877 0.33872895
v -3.82378453 1.02457998 0.32292316
v -3.65369169 1.51340865 0.33872895
v -3.65733700 1.51491859 0.32292316
v -3.42489439 1.97736370 0.33872895
v -3.42831142 1.97933652 0.32292316
v -3.13749619 2.40748550 0.33872895
v -3.14062648 2.40988746 0.32292316
v -2.79641456 2.79641456 0.33872895
v -2.79920455 2.79920455 0.32292316
v -2.40748550 3.13749619 0.33872895
v -2.40988746 3.14062648 0.32292316
v -2.28288885 3.23411669 0.32292316
v -1.97736370 3.42489439 0.33872895
v -1.97933652 3.42831142 0.32292316
v -1.82124706 3.51484728 0.32292316
v -1.51340865 3.65369169 0.33872895
v -1.51491859 3.65733700 0.32292316
v -1.32567889 3.73010291 0.32292316
v -1.02355877 3.81997332 0.33872895
v -1.02457998 3.82378453 0.32292316
v -0.80541583 3.87587379 0.32292316
v -0.51619551 3.92089415 0.33872895
v -0.51671052 3.92480605 0.32292316
v -0.27014940 3.94944446 0.32292316
v 0.00000000 3.95472739 0.33872895
v 0.00000000 3.95867304 0.32292316
v 0.27014940 3.94944446 0.32292316
v 0.51619551 3.92089415 0.33872895
v 0.51671052 3.92480605 0.32292316
v 0.80541583 3.87587379 0.32292316
v 1.02355877 3.81997332 0.33872895
v 1.02457998 3.82378453 0.32292316
v 1.32567889 3.73010291 0.32292316
v 1.51340865 3.65369169 0.33872895
v 1.51491859 3.65733700 0.32292316
v 1.82124706 3.51484728 0.32292316
v 1.97736370 3.42489439 0.33872895
v 1.97933652 3.42831142 0.32292316
v 2.28288885 3.23411669 0.32292316
v 2.40748550 3.13749619 0.33872895
v 2.40988746 3.14062648 0.32292316
v 2.70200473 2.89314063 0.32292316
v 2.79641456 2.79641456 0.33872895
v 2.79920455 2.79920455 0.32292316
v 3.07078738 2.49827083 0.32292316
v 3.38236706 2.05686298 0.32292316
v 3.63093965 1.57713965 0.32292316
v 3.81187471 1.06803721 0.32292316
v 3.91789285 0.53850198 0.33872895
v 3.92180175 0.53903924 0.32292316
v -3.86000000 0.00000000 -0.00000000
v -3.82404775 0.52560327 -0.00000000
v -3.71686073 1.04141554 -0.00000000
v -3.54043562 1.53782821 -0.00000000
v -3.29805890 2.00559405 -0.00000000
v -2.99424558 2.43599947 -0.00000000
v -2.63465513 2.82102682 -0.00000000
v -2.22598604 3.15350379 -0.00000000
v -1.77585105 3.42723694 -0.00000000
v -1.29263530 3.63712716 -0.00000000
v -0.78534021 3.77926458 -0.00000000
v -0.26341572 3.85100145 -0.00000000
v 0.26341572 3.85100145 -0.00000000
v 0.78534021 3.77926458 -0.00000000
v 1.29263530 3.63712716 -0.00000000
v 1.77585105 3.42723694 -0.00000000
v 2.22598604 3.15350379 -0.00000000
v 2.63465513 2.82102682 -0.00000000
v 2.99424558 2.43599947 -0.00000000
v 3.29805890 2.00559405 -0.00000000
v 3.54043562 1.53782821 -0.00000000
v 3.71686073 1.04141554 -0.00000000
v 3.82404775 0.52560327 -0.00000000
v 3.86000000 0.00000000 -0.00000000
v -3.91000000 0.00000000 0.01339746
v -3.94660254 0.00000000 0.05000000
v -3.96000000 0.00000000 0.10000000
v 3.96000000 0.00000000 0.10000000
v 3.92311635 0.53921993 0.10000000
v 3.81315246 1.06839521 0.10000000
v 3.63215675 1.57766832 0.10000000
v 3.38350084 2.05755244 0.10000000
v 3.07181671 2.49910826 0.10000000
v 2.70291045 2.89411042 0.10000000
v 2.28365408 3.23520078 0.10000000
v 1.82185755 3.51602546 0.10000000
v 1.32612326 3.73135325 0.10000000
v 0.80568581 3.87717299 0.10000000
v 0.27023996 3.95076833 0.10000000
v -0.27023996 3.95076833 0.10000000
v -0.80568581 3.87717299 0.10000000
v -1.32612326 3.73135325 0.10000000
v -1.82185755 3.51602546 0.10000000
v -2.28365408 3.23520078 0.10000000
v -2.70291045 2.89411042 0.10000000
v -3.07181671 2.49910826 0.10000000
v -3.38350084 2.05755244 0.10000000
v -3.63215675 1.57766832 0.10000000
v -3.81315246 1.06839521 0.10000000
v -3.92311635 0.53921993 0.10000000
v 3.91000000 0.00000000 0.01339746
v 3.94660254 0.00000000 0.05000000
v 3.87358205 0.53241160 0.01339746
v 3.90984367 0.53739564 0.05000000
v 3.76500659 1.05490538 0.01339746
v 3.80025181 1.06478062 0.05000000
v 3.58629619 1.55774826 0.01339746
v 3.61986845 1.57233075 0.05000000
v 3.34077987 2.03157324 0.01339746
v 3.37205379 2.05059134 0.05000000
v 3.03303115 2.46755386 0.01339746
v 3.06142415 2.49065328 0.05000000
v 2.66878279 2.85756862 0.01339746
v 2.69376597 2.88431907 0.05000000
v 2.25482006 3.19435228 0.01339746
v 2.27592802 3.22425546 0.05000000
v 1.79885430 3.47163120 0.01339746
v 1.81569385 3.50413006 0.05000000
v 1.30937928 3.68424021 0.01339746
v 1.32163673 3.71872935 0.05000000
v 0.79551301 3.82821878 0.01339746
v 0.80296002 3.86405575 0.05000000
v 0.26682784 3.90088489 0.01339746
v 0.26932568 3.93740210 0.05000000
v -0.26682784 3.90088489 0.01339746
v -0.26932568 3.93740210 0.05000000
v -0.79551301 3.82821878 0.01339746
v -0.80296002 3.86405575 0.05000000
v -1.30937928 3.68424021 0.01339746
v -1.32163673 3.71872935 0.05000000
v -1.79885430 3.47163120 0.01339746
v -1.81569385 3.50413006 0.05000000
v -2.25482006 3.19435228 0.01339746
v -2.27592802 3.22425546 0.05000000
v -2.66878279 2.85756862 0.01339746
v -2.69376597 2.88431907 0.05000000
v -3.03303115 2.46755386 0.01339746
v -3.06142415 2.49065328 0.05000000
v -3.34077987 2.03157324 0.01339746
v -3.37205379 2.05059134 0.05000000
v -3.58629619 1.55774826 0.01339746
v -3.61986845 1.57233075 0.05000000
v -3.76500659 1.05490538 0.01339746
v -3.80025181 1.06478062 0.05000000
v -3.87358205 0.53241160 0.01339746
v -3.90984367 0.53739564 0.05000000
v -1.66637864 0.00000000 -31.75000000
v -1.65085790 0.22690520 -31.75000000
v -1.60458480 0.44958358 -31.75000000
v -1.52842132 0.66388707 -31.75000000
v -1.42378625 0.86582360 -31.75000000
v -1.29262873 1.05163147 -31.75000000
v -1.13739198 1.21784944 -31.75000000
v -0.96096777 1.36138118 -31.75000000
v -0.76664255 1.47955297 -31.75000000
v -0.55803623 1.57016348 -31.75000000
v -0.33903476 1.63152481 -31.75000000
v -0.11371770 1.66249393 -31.75000000
v 0.11371770 1.66249393 -31.75000000
v 0.33903476 1.63152481 -31.75000000
v 0.55803623 1.57016348 -31.75000000
v 0.76664255 1.47955297 -31.75000000
v 0.96096777 1.36138118 -31.75000000
v 1.13739198 1.21784944 -31.75000000
v 1.29262873 1.05163147 -31.75000000
v 1.42378625 0.86582360 -31.75000000
v 1.52842132 0.66388707 -31.75000000
v 1.60458480 0.44958358 -31.75000000
v 1.65085790 0.22690520 -31.75000000
v 1.66637864 0.00000000 -31.75000000
v -1.69226055 0.00000000 -31.74659258
v -1.71637864 0.00000000 -31.73660254
v -1.73708932 0.00000000 -31.72071068
v 1.73708932 0.00000000 -31.72071068
v 1.72090998 0.23653363 -31.72071068
v 1.67267334 0.46866109 -31.72071068
v 1.59327796 0.69205828 -31.72071068
v 1.48420282 0.90256373 -31.72071068
v 1.34747980 1.09625613 -31.72071068
v 1.18565578 1.26952735 -31.72071068
v 1.00174523 1.41914968 -31.72071068
v 0.79917406 1.54233593 -31.72071068
v 0.58171580 1.63679139 -31.72071068
v 0.35342127 1.70075651 -31.72071068
v 0.11854317 1.73303977 -31.72071068
v -0.11854317 1.73303977 -31.72071068
v -0.35342127 1.70075651 -31.72071068
v -0.58171580 1.63679139 -31.72071068
v -0.79917406 1.54233593 -31.72071068
v -1.00174523 1.41914968 -31.72071068
v -1.18565578 1.26952735 -31.72071068
v -1.34747980 1.09625613 -31.72071068
v -1.48420282 0.90256373 -31.72071068
v -1.59327796 0.69205828 -31.72071068
v -1.67267334 0.46866109 -31.72071068
v -1.72090998 0.23653363 -31.72071068
v 1.69226055 0.00000000 -31.74659258
v 1.71637864 0.00000000 -31.73660254
v 1.67649874 0.23042945 -31.74659258
v 1.70039220 0.23371353 -31.73660254
v 1.62950694 0.45656643 -31.74659258
v 1.65273067 0.46307342 -31.73660254
v 1.55216050 0.67419845 -31.74659258
v 1.57428189 0.68380712 -31.73660254
v 1.44590025 0.87927142 -31.74659258
v 1.46650722 0.89180280 -31.73660254
v 1.31270561 1.06796523 -31.74659258
v 1.33141429 1.08318587 -31.73660254
v 1.15505776 1.23676487 -31.74659258
v 1.17151964 1.25439124 -31.73660254
v 0.97589336 1.38252592 -31.74659258
v 0.98980179 1.40222968 -31.73660254
v 0.77854991 1.50253313 -31.74659258
v 0.78964581 1.52394723 -31.73660254
v 0.56670356 1.59455098 -31.74659258
v 0.57478021 1.61727652 -31.73660254
v 0.34430058 1.65686538 -31.74659258
v 0.34920756 1.68047902 -31.73660254
v 0.11548394 1.68831550 -31.74659258
v 0.11712982 1.71237737 -31.73660254
v -0.11548394 1.68831550 -31.74659258
v -0.11712982 1.71237737 -31.73660254
v -0.34430058 1.65686538 -31.74659258
v -0.34920756 1.68047902 -31.73660254
v -0.56670356 1.59455098 -31.74659258
v -0.57478021 1.61727652 -31.73660254
v -0.77854991 1.50253313 -31.74659258
v -0.78964581 1.52394723 -31.73660254
v -0.97589336 1.38252592 -31.74659258
v -0.98980179 1.40222968 -31.73660254
v -1.15505776 1.23676487 -31.74659258
v -1.17151964 1.25439124 -31.73660254
v -1.31270561 1.06796523 -31.74659258
v -1.33141429 1.08318587 -31.73660254
v -1.44590025 0.87927142 -31.74659258
v -1.46650722 0.89180280 -31.73660254
v -1.55216050 0.67419845 -31.74659258
v -1.57428189 0.68380712 -31.73660254
v -1.62950694 0.45656643 -31.74659258
v -1.65273067 0.46307342 -31.73660254
v -1.67649874 0.23042945 -31.74659258
v -1.70039220 0.23371353 -31.73660254
v 2.08280000 0.00000000 -31.33357864
v 2.06340069 0.28360790 -31.33357864
v 2.00556413 0.56193271 -31.33357864
v 1.91036770 0.82978979 -31.33357864
v 1.77958474 1.08218945 -31.33357864
v 1.61565148 1.31442997 -31.33357864
v 1.42162169 1.52218515 -31.33357864
v 1.20110977 1.70158489 -31.33357864
v 0.95822346 1.84928733 -31.33357864
v 0.69748726 1.96254105 -31.33357864
v 0.42375818 2.03923634 -31.33357864
v 0.14213530 2.07794451 -31.33357864
v -0.14213530 2.07794451 -31.33357864
v -0.42375818 2.03923634 -31.33357864
v -0.69748726 1.96254105 -31.33357864
v -0.95822346 1.84928733 -31.33357864
v -1.20110977 1.70158489 -31.33357864
v -1.42162169 1.52218515 -31.33357864
v -1.61565148 1.31442997 -31.33357864
v -1.77958474 1.08218945 -31.33357864
v -1.91036770 0.82978979 -31.33357864
v -2.00556413 0.56193271 -31.33357864
v -2.06340069 0.28360790 -31.33357864
v -2.08280000 0.00000000 -31.33357864
v 2.07939258 0.00000000 -31.35946055
v 2.06940254 0.00000000 -31.38357864
v 2.05351068 0.00000000 -31.40428932
v -2.05351068 0.00000000 -31.40428932
v -2.03438417 0.27961967 -31.40428932
v -1.97736093 0.55403055 -31.40428932
v -1.88350320 0.81812089 -31.40428932
v -1.75455937 1.06697119 -31.40428932
v -1.59293142 1.29594583 -31.40428932
v -1.40163017 1.50077946 -31.40428932
v -1.18421920 1.67765640 -31.40428932
v -0.94474847 1.82328178 -31.40428932
v -0.68767886 1.93494287 -31.40428932
v -0.41779910 2.01055963 -31.40428932
v -0.14013652 2.04872347 -31.40428932
v 0.14013652 2.04872347 -31.40428932
v 0.41779910 2.01055963 -31.40428932
v 0.68767886 1.93494287 -31.40428932
v 0.94474847 1.82328178 -31.40428932
v 1.18421920 1.67765640 -31.40428932
v 1.40163017 1.50077946 -31.40428932
v 1.59293142 1.29594583 -31.40428932
v 1.75455937 1.06697119 -31.40428932
v 1.88350320 0.81812089 -31.40428932
v 1.97736093 0.55403055 -31.40428932
v 2.03438417 0.27961967 -31.40428932
v -2.07939258 0.00000000 -31.35946055
v -2.06940254 0.00000000 -31.38357864
v -2.06002501 0.28314392 -31.35946055
v -2.05012801 0.28178361 -31.38357864
v -2.00228306 0.56101340 -31.35946055
v -1.99266348 0.55831812 -31.38357864
v -1.90724238 0.82843227 -31.35946055
v -1.89807940 0.82445223 -31.38357864
v -1.77667337 1.08041901 -31.35946055
v -1.76813769 1.07522835 -31.38357864
v -1.61300830 1.31227959 -31.35946055
v -1.60525892 1.30597500 -31.38357864
v -1.41929594 1.51969488 -31.35946055
v -1.41247721 1.51239380 -31.38357864
v -1.19914478 1.69880114 -31.35946055
v -1.19338372 1.69063957 -31.38357864
v -0.95665583 1.84626194 -31.35946055
v -0.95205976 1.83739193 -31.38357864
v -0.69634618 1.95933037 -31.35946055
v -0.69300072 1.94991715 -31.38357864
v -0.42306492 2.03590019 -31.35946055
v -0.42103239 2.02611910 -31.38357864
v -0.14190277 2.07454504 -31.35946055
v -0.14122102 2.06457829 -31.38357864
v 0.14190277 2.07454504 -31.35946055
v 0.14122102 2.06457829 -31.38357864
v 0.42306492 2.03590019 -31.35946055
v 0.42103239 2.02611910 -31.38357864
v 0.69634618 1.95933037 -31.35946055
v 0.69300072 1.94991715 -31.38357864
v 0.95665583 1.84626194 -31.35946055
v 0.95205976 1.83739193 -31.38357864
v 1.19914478 1.69880114 -31.35946055
v 1.19338372 1.69063957 -31.38357864
v 1.41929594 1.51969488 -31.35946055
v 1.41247721 1.51239380 -31.38357864
v 1.61300830 1.31227959 -31.35946055
v 1.60525892 1.30597500 -31.38357864
v 1.77667337 1.08041901 -31.35946055
v 1.76813769 1.07522835 -31.38357864
v 1.90724238 0.82843227 -31.35946055
v 1.89807940 0.82445223 -31.38357864
v 2.00228306 0.56101340 -31.35946055
v 1.99266348 0.55831812 -31.38357864
v 2.06002501 0.28314392 -31.35946055
v 2.05012801 0.28178361 -31.38357864
v -1.20000000 -0.00000000 0.66300000
v -1.20636411 -0.10185970 0.66300000
v -1.22535745 -0.20213509 0.66300000
v -1.25668461 -0.29926649 0.66300000
v -1.29985832 -0.39174314 0.66300000
v -1.35420707 -0.47812667 0.66300000
v -1.41888552 -0.55707348 0.66300000
v -1.20000000 -0.00000000 1.93575862
v -1.20426944 -0.08229825 1.93994241
v -1.21703464 -0.16507816 1.95218084
v -1.24467633 -0.26652814 1.97787782
v -1.28529966 -0.36385008 2.01413740
v -1.33913136 -0.45659990 2.05972178
v -1.37718904 -0.50859009 2.09051115
v -1.41888552 -0.55707348 2.12300780
v 1.19188255 0.95025416 0.66300000
v 1.19188255 0.95025416 2.12300780
v 1.45059255 0.83750000 2.21000000
v 1.40096121 0.89749607 2.20355904
v 1.33516698 0.93843205 2.18515653
v 1.26413679 0.95543667 2.15779197
v 1.48241152 0.71875000 2.19410346
v 1.47427688 0.78012778 2.20594777
v 1.48241152 0.71875000 0.66300000
v 1.47645175 0.77162125 0.66300000
v 1.45887156 0.82183903 0.66300000
v 1.43055326 0.86688303 0.66300000
v 1.39291805 0.90449260 0.66300000
v 1.34785477 0.93278022 0.66300000
v 1.29762503 0.95032620 0.66300000
v 1.24474973 0.95624994 0.66300000
v 1.41888552 -0.55707348 0.66300000
v 1.41888552 -0.55707348 2.12300780
v 1.48241152 -0.71875000 2.19410346
v 1.46587168 -0.63203784 2.16457309
v 1.48241152 -0.71875000 0.66300000
v 1.47505216 -0.66008539 0.66300000
v 1.45343016 -0.60505644 0.66300000
v 1.41888552 0.55707348 2.12300780
v 1.46589901 0.63180264 2.16452762
v 1.67500000 0.00000000 2.21000000
v 1.66067014 0.21863137 2.21000000
v 1.61792576 0.43352190 2.21000000
v 1.54749822 0.64099475 2.21000000
v 1.20000000 -0.00000000 1.93575862
v 1.20426944 0.08229825 1.93994241
v 1.21703464 0.16507816 1.95218084
v 1.24467633 0.26652814 1.97787782
v 1.28529966 0.36385008 2.01413740
v 1.33913136 0.45659990 2.05972178
v 1.37718904 0.50859009 2.09051115
v 1.38851838 0.37205238 2.07287931
v -2.08280000 0.00000000 0.00000000
v 2.08280000 0.00000000 0.00000000
v 2.06340069 0.28360790 0.00000000
v 2.00556413 0.56193271 0.00000000
v 1.91036770 0.82978979 0.00000000
v 1.77958474 1.08218945 0.00000000
v 1.61565148 1.31442997 0.00000000
v 1.42162169 1.52218515 0.00000000
v 1.20110977 1.70158489 0.00000000
v 0.95822346 1.84928733 0.00000000
v 0.69748726 1.96254105 0.00000000
v 0.42375818 2.03923634 0.00000000
v 0.14213530 2.07794451 0.00000000
v -0.14213530 2.07794451 0.00000000
v -0.42375818 2.03923634 0.00000000
v -0.69748726 1.96254105 0.00000000
v -0.95822346 1.84928733 0.00000000
v -1.20110977 1.70158489 0.00000000
v -1.42162169 1.52218515 0.00000000
v -1.61565148 1.31442997 0.00000000
v -1.77958474 1.08218945 0.00000000
v -1.91036770 0.82978979 0.00000000
v -2.00556413 0.56193271 0.00000000
v -2.06340069 0.28360790 0.00000000
v -3.91448978 -0.51535236 0.35368436
v -3.81373380 -1.02188689 0.35368436
v -3.64772377 -1.51093666 0.35368436
v -3.41930018 -1.97413388 0.35368436
v -3.13237141 -2.40355312 0.35368436
v -2.79184690 -2.79184690 0.35368436
v -2.40355312 -3.13237141 0.35368436
v -1.97413388 -3.41930018 0.35368436
v -1.51093666 -3.64772377 0.35368436
v -1.02188689 -3.81373380 0.35368436
v -0.51535236 -3.91448978 0.35368436
v -0.00000000 -3.94826776 0.35368436
v -0.00000000 -3.67252499 0.80502781
v -0.00000000 -3.34543487 1.22066832
v -0.00000000 -2.97157060 1.59479462
v -0.00000000 -2.55615937 1.92217588
v -0.00000000 -2.10500923 2.19823481
v -0.27475884 -2.08700058 2.19823481
v -0.54481648 -2.03328278 2.19823481
v -0.80555216 -1.94477494 2.19823481
v -1.05250461 -1.82299147 2.19823481
v -1.28144842 -1.67001610 2.19823481
v -1.48846630 -1.48846630 2.19823481
v -1.67001610 -1.28144842 2.19823481
v -1.82299147 -1.05250461 2.19823481
v -1.94477494 -0.80555216 2.19823481
v -2.03328278 -0.54481648 2.19823481
v -2.08700058 -0.27475884 2.19823481
v 0.00000000 3.67252499 0.80502781
v 0.00000000 3.34543487 1.22066832
v 0.00000000 2.97157060 1.59479462
v 0.00000000 2.55615937 1.92217588
v -0.80193127 -3.68238494 0.66083777
v -0.80193127 -3.19076559 1.28197998
v -1.57787681 -3.28194093 0.84901946
v -0.80193127 -2.59575286 1.80492079
v -1.57787681 -2.76307229 1.39532102
v -2.30269293 -2.78054243 0.89235646
v -1.57787681 -2.15466921 1.83974849
v -2.30269293 -2.26202795 1.34806499
v -1.57787681 -1.47644636 2.16790064
v -2.95289272 -2.21801540 0.77514417
v -2.30269293 -1.67021486 1.70343070
v -2.95289272 -1.72962883 1.13190174
v -2.30269293 -1.02428022 1.94693833
v -3.50740714 -1.63748373 0.49308941
v -2.95289272 -1.18519547 1.39532102
v -2.30269293 -0.34515487 2.07069729
v -3.50740714 -1.20906979 0.75033891
v -2.95289272 -0.60235711 1.55686621
v -2.30269293 0.34515487 2.07069729
v -1.57787681 1.47644636 2.16790064
v -0.80193127 2.59575286 1.80492079
v -3.50740714 -0.74147722 0.92661427
v -2.95289272 -0.00000000 1.61130259
v -2.30269293 1.02428022 1.94693833
v -1.57787681 2.15466921 1.83974849
v -0.80193127 3.19076559 1.28197998
v -3.50740714 -0.24985787 1.01620347
v -2.95289272 0.60235711 1.55686621
v -2.30269293 1.67021486 1.70343070
v -1.57787681 2.76307229 1.39532102
v -0.80193127 3.68238494 0.66083777
v -3.50740714 0.24985787 1.01620347
v -2.95289272 1.18519547 1.39532102
v -2.30269293 2.26202795 1.34806499
v -1.57787681 3.28194093 0.84901946
v -3.50740714 0.74147722 0.92661427
v -2.95289272 1.72962883 1.13190174
v -2.30269293 2.78054243 0.89235646
v -3.50740714 1.20906979 0.75033891
v -2.95289272 2.21801540 0.77514417
v -3.50740714 1.63748373 0.49308941
v -2.03878164 -0.28022409 2.21000000
v -1.98163514 -0.55522813 2.21000000
v -1.88757453 -0.81988932 2.21000000
v -1.75835198 -1.06927752 2.21000000
v -1.59637465 -1.29874711 2.21000000
v -1.40465989 -1.50402350 2.21000000
v -1.18677897 -1.68128277 2.21000000
v -0.94679061 -1.82722293 2.21000000
v -0.68916533 -1.93912538 2.21000000
v -0.41870220 -2.01490560 2.21000000
v -0.14043944 -2.05315193 2.21000000
v 0.14043944 -2.05315193 2.21000000
v 0.41870220 -2.01490560 2.21000000
v 0.68916533 -1.93912538 2.21000000
v 0.94679061 -1.82722293 2.21000000
v 1.18677897 -1.68128277 2.21000000
v 1.40465989 -1.50402350 2.21000000
v 1.59637465 -1.29874711 2.21000000
v 1.75835198 -1.06927752 2.21000000
v 1.88757453 -0.81988932 2.21000000
v 1.98163514 -0.55522813 2.21000000
v 2.03878164 -0.28022409 2.21000000
v -1.45059255 -0.83750000 2.21000000
v -1.32886684 -1.01967539 2.21000000
v -1.18440386 -1.18440386 2.21000000
v -1.01967539 -1.32886684 2.21000000
v -0.83750000 -1.45059255 2.21000000
v -0.64099475 -1.54749822 2.21000000
v -0.43352190 -1.61792576 2.21000000
v -0.21863137 -1.66067014 2.21000000
v -0.00000000 -1.67500000 2.21000000
v 0.21863137 -1.66067014 2.21000000
v 0.43352190 -1.61792576 2.21000000
v 0.64099475 -1.54749822 2.21000000
v 0.83750000 -1.45059255 2.21000000
v 1.01967539 -1.32886684 2.21000000
v 1.18440386 -1.18440386 2.21000000
v 1.32886684 -1.01967539 2.21000000
v 1.45059255 -0.83750000 2.21000000
v 1.54749822 -0.64099475 2.21000000
v 1.61792576 -0.43352190 2.21000000
v 1.66067014 -0.21863137 2.21000000
v 1.32886684 1.01967539 2.21000000
v 1.18440386 1.18440386 2.21000000
v 1.01967539 1.32886684 2.21000000
v 0.83750000 1.45059255 2.21000000
v 0.64099475 1.54749822 2.21000000
v 0.43352190 1.61792576 2.21000000
v 0.21863137 1.66067014 2.21000000
v 0.00000000 1.67500000 2.21000000
v -0.21863137 1.66067014 2.21000000
v -0.43352190 1.61792576 2.21000000
v -0.64099475 1.54749822 2.21000000
v -0.83750000 1.45059255 2.21000000
v -1.01967539 1.32886684 2.21000000
v -1.18440386 1.18440386 2.21000000
v -1.32886684 1.01967539 2.21000000
v -1.45059255 0.83750000 2.21000000
v -1.54749822 0.64099475 2.21000000
v -1.61792576 0.43352190 2.21000000
v -1.66067014 0.21863137 2.21000000
v -1.67500000 0.00000000 2.21000000
v -1.66067014 -0.21863137 2.21000000
v -1.61792576 -0.43352190 2.21000000
v -1.54749822 -0.64099475 2.21000000
v 0.51535236 -3.91448978 0.35368436
v 1.02188689 -3.81373380 0.35368436
v 1.51093666 -3.64772377 0.35368436
v 1.97413388 -3.41930018 0.35368436
v 2.40355312 -3.13237141 0.35368436
v 2.79184690 -2.79184690 0.35368436
v 3.13237141 -2.40355312 0.35368436
v 3.41930018 -1.97413388 0.35368436
v 3.64772377 -1.51093666 0.35368436
v 3.81373380 -1.02188689 0.35368436
v 3.91448978 -0.51535236 0.35368436
v 2.08700058 -0.27475884 2.19823481
v 2.03328278 -0.54481648 2.19823481
v 1.94477494 -0.80555216 2.19823481
v 1.82299147 -1.05250461 2.19823481
v 1.67001610 -1.28144842 2.19823481
v 1.48846630 -1.48846630 2.19823481
v 1.28144842 -1.67001610 2.19823481
v 1.05250461 -1.82299147 2.19823481
v 0.80555216 -1.94477494 2.19823481
v 0.54481648 -2.03328278 2.19823481
v 0.27475884 -2.08700058 2.19823481
v 3.50740714 -1.63748373 0.49308941
v 2.95289272 -2.21801540 0.77514417
v 3.50740714 -1.20906979 0.75033891
v 2.30269293 -2.78054243 0.89235646
v 2.95289272 -1.72962883 1.13190174
v 3.50740714 -0.74147722 0.92661427
v 1.57787681 -3.28194093 0.84901946
v 2.30269293 -2.26202795 1.34806499
v 2.95289272 -1.18519547 1.39532102
v 3.50740714 -0.24985787 1.01620347
v 0.80193127 -3.68238494 0.66083777
v 1.57787681 -2.76307229 1.39532102
v 2.30269293 -1.67021486 1.70343070
v 2.95289272 -0.60235711 1.55686621
v 3.50740714 0.24985787 1.01620347
v 0.80193127 -3.19076559 1.28197998
v 1.57787681 -2.15466921 1.83974849
v 2.30269293 -1.02428022 1.94693833
v 2.95289272 -0.00000000 1.61130259
v 3.50740714 0.74147722 0.92661427
v 0.80193127 -2.59575286 1.80492079
v 1.57787681 -1.47644636 2.16790064
v 2.30269293 -0.34515487 2.07069729
v 2.95289272 0.60235711 1.55686621
v 3.50740714 1.20906979 0.75033891
v 2.30269293 0.34515487 2.07069729
v 2.95289272 1.18519547 1.39532102
v 3.50740714 1.63748373 0.49308941
v 2.30269293 1.02428022 1.94693833
v 2.95289272 1.72962883 1.13190174
v 2.30269293 1.67021486 1.70343070
v 2.95289272 2.21801540 0.77514417
v 1.57787681 1.47644636 2.16790064
v 2.30269293 2.26202795 1.34806499
v 1.57787681 2.15466921 1.83974849
v 2.30269293 2.78054243 0.89235646
v 1.57787681 2.76307229 1.39532102
v 0.80193127 2.59575286 1.80492079
v 1.57787681 3.28194093 0.84901946
v 0.80193127 3.19076559 1.28197998
v 0.80193127 3.68238494 0.66083777
v -3.92311635 -0.53921993 0.10000000
v -3.81315246 -1.06839521 0.10000000
v -3.63215675 -1.57766832 0.10000000
v -3.38350084 -2.05755244 0.10000000
v -3.07181671 -2.49910826 0.10000000
v -2.70291045 -2.89411042 0.10000000
v -2.28365408 -3.23520078 0.10000000
v -1.82185755 -3.51602546 0.10000000
v -1.32612326 -3.73135325 0.10000000
v -0.80568581 -3.87717299 0.10000000
v -0.27023996 -3.95076833 0.10000000
v 0.27023996 -3.95076833 0.10000000
v 0.80568581 -3.87717299 0.10000000
v 1.32612326 -3.73135325 0.10000000
v 1.82185755 -3.51602546 0.10000000
v 2.28365408 -3.23520078 0.10000000
v 2.70291045 -2.89411042 0.10000000
v 3.07181671 -2.49910826 0.10000000
v 3.38350084 -2.05755244 0.10000000
v 3.63215675 -1.57766832 0.10000000
v 3.81315246 -1.06839521 0.10000000
v 3.92311635 -0.53921993 0.10000000
v 3.92311635 -0.53921993 0.30668646
v 3.81315246 -1.06839521 0.30668646
v 3.63215675 -1.57766832 0.30668646
v 3.38350084 -2.05755244 0.30668646
v 3.07181671 -2.49910826 0.30668646
v 2.70291045 -2.89411042 0.30668646
v 2.28365408 -3.23520078 0.30668646
v 1.82185755 -3.51602546 0.30668646
v 1.32612326 -3.73135325 0.30668646
v 0.80568581 -3.87717299 0.30668646
v 0.27023996 -3.95076833 0.30668646
v -0.27023996 -3.95076833 0.30668646
v -0.80568581 -3.87717299 0.30668646
v -1.32612326 -3.73135325 0.30668646
v -1.82185755 -3.51602546 0.30668646
v -2.28365408 -3.23520078 0.30668646
v -2.70291045 -2.89411042 0.30668646
v -3.07181671 -2.49910826 0.30668646
v -3.38350084 -2.05755244 0.30668646
v -3.63215675 -1.57766832 0.30668646
v -3.81315246 -1.06839521 0.30668646
v -3.92311635 -0.53921993 0.30668646
v 3.82404775 -0.52560327 -0.00000000
v 3.71686073 -1.04141554 -0.00000000
v 3.54043562 -1.53782821 -0.00000000
v 3.29805890 -2.00559405 -0.00000000
v 2.99424558 -2.43599947 -0.00000000
v 2.63465513 -2.82102682 -0.00000000
v 2.22598604 -3.15350379 -0.00000000
v 1.77585105 -3.42723694 -0.00000000
v 1.29263530 -3.63712716 -0.00000000
v 0.78534021 -3.77926458 -0.00000000
v 0.26341572 -3.85100145 -0.00000000
v -0.26341572 -3.85100145 -0.00000000
v -0.78534021 -3.77926458 -0.00000000
v -1.29263530 -3.63712716 -0.00000000
v -1.77585105 -3.42723694 -0.00000000
v -2.22598604 -3.15350379 -0.00000000
v -2.63465513 -2.82102682 -0.00000000
v -2.99424558 -2.43599947 -0.00000000
v -3.29805890 -2.00559405 -0.00000000
v -3.54043562 -1.53782821 -0.00000000
v -3.71686073 -1.04141554 -0.00000000
v -3.82404775 -0.52560327 -0.00000000
v -2.06340069 -0.28360790 0.00000000
v -2.00556413 -0.56193271 0.00000000
v -1.91036770 -0.82978979 0.00000000
v -1.77958474 -1.08218945 0.00000000
v -1.61565148 -1.31442997 0.00000000
v -1.42162169 -1.52218515 0.00000000
v -1.20110977 -1.70158489 0.00000000
v -0.95822346 -1.84928733 0.00000000
v -0.69748726 -1.96254105 0.00000000
v -0.42375818 -2.03923634 0.00000000
v -0.14213530 -2.07794451 0.00000000
v 0.14213530 -2.07794451 0.00000000
v 0.42375818 -2.03923634 0.00000000
v 0.69748726 -1.96254105 0.00000000
v 0.95822346 -1.84928733 0.00000000
v 1.20110977 -1.70158489 0.00000000
v 1.42162169 -1.52218515 0.00000000
v 1.61565148 -1.31442997 0.00000000
v 1.77958474 -1.08218945 0.00000000
v 1.91036770 -0.82978979 0.00000000
v 2.00556413 -0.56193271 0.00000000
v 2.06340069 -0.28360790 0.00000000
v -2.06340069 -0.28360790 -31.33357864
v -2.00556413 -0.56193271 -31.33357864
v -1.91036770 -0.82978979 -31.33357864
v -1.77958474 -1.08218945 -31.33357864
v -1.61565148 -1.31442997 -31.33357864
v -1.42162169 -1.52218515 -31.33357864
v -1.20110977 -1.70158489 -31.33357864
v -0.95822346 -1.84928733 -31.33357864
v -0.69748726 -1.96254105 -31.33357864
v -0.42375818 -2.03923634 -31.33357864
v -0.14213530 -2.07794451 -31.33357864
v 0.14213530 -2.07794451 -31.33357864
v 0.42375818 -2.03923634 -31.33357864
v 0.69748726 -1.96254105 -31.33357864
v 0.95822346 -1.84928733 -31.33357864
v 1.20110977 -1.70158489 -31.33357864
v 1.42162169 -1.52218515 -31.33357864
v 1.61565148 -1.31442997 -31.33357864
v 1.77958474 -1.08218945 -31.33357864
v 1.91036770 -0.82978979 -31.33357864
v 2.00556413 -0.56193271 -31.33357864
v 2.06340069 -0.28360790 -31.33357864
v 1.65085790 -0.22690520 -31.75000000
v 1.60458480 -0.44958358 -31.75000000
v 1.52842132 -0.66388707 -31.75000000
v 1.42378625 -0.86582360 -31.75000000
v 1.29262873 -1.05163147 -31.75000000
v 1.13739198 -1.21784944 -31.75000000
v 0.96096777 -1.36138118 -31.75000000
v 0.76664255 -1.47955297 -31.75000000
v 0.55803623 -1.57016348 -31.75000000
v 0.33903476 -1.63152481 -31.75000000
v 0.11371770 -1.66249393 -31.75000000
v -0.11371770 -1.66249393 -31.75000000
v -0.33903476 -1.63152481 -31.75000000
v -0.55803623 -1.57016348 -31.75000000
v -0.76664255 -1.47955297 -31.75000000
v -0.96096777 -1.36138118 -31.75000000
v -1.13739198 -1.21784944 -31.75000000
v -1.29262873 -1.05163147 -31.75000000
v -1.42378625 -0.86582360 -31.75000000
v -1.52842132 -0.66388707 -31.75000000
v -1.60458480 -0.44958358 -31.75000000
v -1.65085790 -0.22690520 -31.75000000
v -1.72090998 -0.23653363 -31.72071068
v -1.67267334 -0.46866109 -31.72071068
v -1.59327796 -0.69205828 -31.72071068
v -1.48420282 -0.90256373 -31.72071068
v -1.34747980 -1.09625613 -31.72071068
v -1.18565578 -1.26952735 -31.72071068
v -1.00174523 -1.41914968 -31.72071068
v -0.79917406 -1.54233593 -31.72071068
v -0.58171580 -1.63679139 -31.72071068
v -0.35342127 -1.70075651 -31.72071068
v -0.11854317 -1.73303977 -31.72071068
v 0.11854317 -1.73303977 -31.72071068
v 0.35342127 -1.70075651 -31.72071068
v 0.58171580 -1.63679139 -31.72071068
v 0.79917406 -1.54233593 -31.72071068
v 1.00174523 -1.41914968 -31.72071068
v 1.18565578 -1.26952735 -31.72071068
v 1.34747980 -1.09625613 -31.72071068
v 1.48420282 -0.90256373 -31.72071068
v 1.59327796 -0.69205828 -31.72071068
v 1.67267334 -0.46866109 -31.72071068
v 1.72090998 -0.23653363 -31.72071068
v 2.03438417 -0.27961967 -31.40428932
v 1.97736093 -0.55403055 -31.40428932
v 1.88350320 -0.81812089 -31.40428932
v 1.75455937 -1.06697119 -31.40428932
v 1.59293142 -1.29594583 -31.40428932
v 1.40163017 -1.50077946 -31.40428932
v 1.18421920 -1.67765640 -31.40428932
v 0.94474847 -1.82328178 -31.40428932
v 0.68767886 -1.93494287 -31.40428932
v 0.41779910 -2.01055963 -31.40428932
v 0.14013652 -2.04872347 -31.40428932
v -0.14013652 -2.04872347 -31.40428932
v -0.41779910 -2.01055963 -31.40428932
v -0.68767886 -1.93494287 -31.40428932
v -0.94474847 -1.82328178 -31.40428932
v -1.18421920 -1.67765640 -31.40428932
v -1.40163017 -1.50077946 -31.40428932
v -1.59293142 -1.29594583 -31.40428932
v -1.75455937 -1.06697119 -31.40428932
v -1.88350320 -0.81812089 -31.40428932
v -1.97736093 -0.55403055 -31.40428932
v -2.03438417 -0.27961967 -31.40428932
v -1.40096121 -0.89749607 2.20355904
v -1.33516698 -0.93843205 2.18515653
v -1.26413679 -0.95543667 2.15779197
v -1.19188255 -0.95025416 2.12300780
v -1.07715419 -0.93236193 2.06538128
v -0.97065630 -0.93046336 2.01920227
v -0.86028186 -0.94328588 1.98004411
v -0.78723954 -0.96041535 1.96002418
v -0.72101592 -0.98217715 1.94652736
v -0.66166464 -1.00712728 1.93873490
v -0.55835838 -1.06502991 1.93726017
v -0.47953202 -1.12437349 1.94882426
v -0.40084479 -1.20067832 1.97381421
v -0.33285011 -1.28715839 2.01050155
v -0.28136500 -1.37361642 2.05238844
v -0.25110355 -1.43957474 2.08658578
v -0.22700297 -1.50732765 2.12300780
v -0.19529025 -1.57261588 2.15785749
v -0.14531944 -1.62535236 2.18507913
v -0.07668046 -1.66202570 2.20356330
v -1.01736407 -1.01736407 2.07361258
v -0.71938503 -1.24601142 2.07361258
v -0.37238109 -1.38974516 2.07361258
v 1.19188255 -0.95025416 2.12300780
v 1.26428019 -0.95543426 2.15785750
v 1.33493674 -0.93852650 2.18507914
v 1.40101625 -0.89742007 2.20356330
v 0.07677363 -1.66201593 2.20355899
v 0.14512231 -1.62550470 2.18515660
v 0.19536381 -1.57249300 2.15779201
v 0.22700297 -1.50732765 2.12300780
v 0.26887202 -1.39902388 2.06538129
v 0.32047675 -1.30584471 2.01920227
v 0.38676858 -1.21666891 1.98004412
v 0.43812428 -1.16197716 1.96002420
v 0.49008236 -1.11550671 1.94652737
v 0.54136544 -1.07658207 1.93873491
v 0.64316373 -1.01606752 1.93726016
v 0.73396997 -0.97747366 1.94882426
v 0.83939551 -0.94748093 1.97381421
v 0.94828677 -0.93183585 2.01050154
v 1.04890418 -0.93047744 2.05238843
v 1.12115650 -0.93724942 2.08658577
v 0.37238109 -1.38974516 2.07361258
v 0.71938503 -1.24601142 2.07361258
v 1.01736407 -1.01736407 2.07361258
v 1.47421464 -0.78014761 2.20592541
v 1.34596451 -0.46657256 2.06533056
v 1.29103643 -0.37519376 2.01911839
v 1.25005722 -0.28175807 1.98277919
v 1.22282017 -0.19123056 1.95763937
v 1.20584817 -0.09663699 1.94147449
v 1.38851838 -0.37205238 2.07287931
v 0.22700297 1.50732765 2.12300780
v 0.19529025 1.57261588 2.15785749
v 0.14531944 1.62535236 2.18507913
v 0.07668046 1.66202570 2.20356330
v 1.07715419 0.93236193 2.06538128
v 0.97065630 0.93046336 2.01920227
v 0.86028186 0.94328588 1.98004411
v 0.78723954 0.96041535 1.96002418
v 0.72101592 0.98217715 1.94652736
v 0.66166464 1.00712728 1.93873490
v 0.55835838 1.06502991 1.93726017
v 0.47953202 1.12437349 1.94882426
v 0.40084479 1.20067832 1.97381421
v 0.33285011 1.28715839 2.01050155
v 0.28136500 1.37361642 2.05238844
v 0.25110355 1.43957474 2.08658578
v 1.01736407 1.01736407 2.07361258
v 0.71938503 1.24601142 2.07361258
v 0.37238109 1.38974516 2.07361258
v -0.07677363 1.66201593 2.20355899
v -0.14512231 1.62550470 2.18515660
v -0.19536381 1.57249300 2.15779201
v -0.22700297 1.50732765 2.12300780
v -0.26887202 1.39902388 2.06538129
v -0.32047675 1.30584471 2.01920227
v -0.38676858 1.21666891 1.98004412
v -0.43812428 1.16197716 1.96002420
v -0.49008236 1.11550671 1.94652737
v -0.54136544 1.07658207 1.93873491
v -0.64316373 1.01606752 1.93726016
v -0.73396997 0.97747366 1.94882426
v -0.83939551 0.94748093 1.97381421
v -0.94828677 0.93183585 2.01050154
v -1.04890418 0.93047744 2.05238843
v -1.12115650 0.93724942 2.08658577
v -1.19188255 0.95025416 2.12300780
v -1.26428019 0.95543426 2.15785750
v -1.33493674 0.93852650 2.18507914
v -1.40101625 0.89742007 2.20356330
v -0.37238109 1.38974516 2.07361258
v -0.71938503 1.24601142 2.07361258
v -1.01736407 1.01736407 2.07361258
v -1.47773486 0.76451982 2.20355895
v -1.48028945 0.68707230 2.18515646
v -1.45950058 0.61705625 2.15779185
v -1.41888552 0.55707348 2.12300780
v -1.34596451 0.46657256 2.06533056
v -1.29103643 0.37519376 2.01911839
v -1.25005722 0.28175807 1.98277919
v -1.22282017 0.19123056 1.95763937
v -1.20584817 0.09663699 1.94147449
v -1.45957032 -0.61718149 2.15785740
v -1.48025609 -0.68682537 2.18507898
v -1.47769691 -0.76460549 2.20356335
v -1.38851838 0.37205238 2.07287931
v -1.43750000 0.00000000 2.07287931
v -1.38851838 -0.37205238 2.07287931
v -0.22700297 1.50732765 0.66300000
v -0.26689454 1.40339793 0.66300000
v -0.32052246 1.30584399 0.66300000
v -0.38689428 1.21647114 0.66300000
v -0.46478174 1.13693332 0.66300000
v -0.55274349 1.06870241 0.66300000
v -0.64915170 1.01304111 0.66300000
v -0.75222226 0.97097946 0.66300000
v -0.86004778 0.94329585 0.66300000
v -0.97063284 0.93050258 0.66300000
v -1.08193098 0.93283642 0.66300000
v -1.19188255 0.95025416 0.66300000
v -1.24637522 0.95624549 0.66300000
v -1.30078991 0.94958296 0.66300000
v -1.35222738 0.93062156 0.66300000
v -1.39794701 0.90037155 0.66300000
v -1.43551285 0.86044468 0.66300000
v -1.46292338 0.81296826 0.66300000
v -1.47871814 0.76047185 0.66300000
v -1.48205560 0.70575248 0.66300000
v -1.47275792 0.65172563 0.66300000
v -1.45132050 0.60126986 0.66300000
v -1.41888552 0.55707348 0.66300000
v -1.35420707 0.47812667 0.66300000
v -1.29985832 0.39174314 0.66300000
v -1.25668461 0.29926649 0.66300000
v -1.22535745 0.20213509 0.66300000
v -1.20636411 0.10185970 0.66300000
v -1.45132050 -0.60126986 0.66300000
v -1.47275792 -0.65172563 0.66300000
v -1.48205560 -0.70575248 0.66300000
v -1.47871814 -0.76047185 0.66300000
v -1.46292338 -0.81296826 0.66300000
v -1.43551285 -0.86044468 0.66300000
v -1.39794701 -0.90037155 0.66300000
v -1.35222738 -0.93062156 0.66300000
v -1.30078991 -0.94958296 0.66300000
v -1.24637522 -0.95624549 0.66300000
v -1.19188255 -0.95025416 0.66300000
v -1.08193098 -0.93283642 0.66300000
v -0.97063284 -0.93050258 0.66300000
v -0.86004778 -0.94329585 0.66300000
v -0.75222226 -0.97097946 0.66300000
v -0.64915170 -1.01304111 0.66300000
v -0.55274349 -1.06870241 0.66300000
v -0.46478174 -1.13693332 0.66300000
v -0.38689428 -1.21647114 0.66300000
v -0.32052246 -1.30584399 0.66300000
v -0.26689454 -1.40339793 0.66300000
v -0.22700297 -1.50732765 0.66300000
v -0.20494528 -1.55751535 0.66300000
v -0.17196801 -1.60130859 0.66300000
v -0.12982822 -1.63637404 0.66300000
v -0.08077113 -1.66084340 0.66300000
v -0.02741053 -1.67341294 0.66300000
v 0.02741053 -1.67341294 0.66300000
v 0.08077113 -1.66084340 0.66300000
v 0.12982822 -1.63637404 0.66300000
v 0.17196801 -1.60130859 0.66300000
v 0.20494528 -1.55751535 0.66300000
v 0.22700297 -1.50732765 0.66300000
v 0.26689454 -1.40339793 0.66300000
v 0.32052246 -1.30584399 0.66300000
v 0.38689428 -1.21647114 0.66300000
v 0.46478174 -1.13693332 0.66300000
v 0.55274349 -1.06870241 0.66300000
v 0.64915170 -1.01304111 0.66300000
v 0.75222226 -0.97097946 0.66300000
v 0.86004778 -0.94329585 0.66300000
v 0.97063284 -0.93050258 0.66300000
v 1.08193098 -0.93283642 0.66300000
v 1.19188255 -0.95025416 0.66300000
v 1.24474973 -0.95624994 0.66300000
v 1.29762503 -0.95032620 0.66300000
v 1.34785477 -0.93278022 0.66300000
v 1.39291805 -0.90449260 0.66300000
v 1.43055326 -0.86688303 0.66300000
v 1.45887156 -0.82183903 0.66300000
v 1.47645175 -0.77162125 0.66300000
v 1.34882553 -0.47056151 0.66300000
v 1.29115530 -0.37534141 0.66300000
v 1.24694205 -0.27317530 0.66300000
v 1.21700401 -0.16595386 0.66300000
v 1.20189518 -0.05566131 0.66300000
v 1.20189518 0.05566131 0.66300000
v 1.21700401 0.16595386 0.66300000
v 1.24694205 0.27317530 0.66300000
v 1.29115530 0.37534141 0.66300000
v 1.34882553 0.47056151 0.66300000
v 1.41888552 0.55707348 0.66300000
v 1.45343016 0.60505644 0.66300000
v 1.47505216 0.66008539 0.66300000
v 1.08193098 0.93283642 0.66300000
v 0.97063284 0.93050258 0.66300000
v 0.86004778 0.94329585 0.66300000
v 0.75222226 0.97097946 0.66300000
v 0.64915170 1.01304111 0.66300000
v 0.55274349 1.06870241 0.66300000
v 0.46478174 1.13693332 0.66300000
v 0.38689428 1.21647114 0.66300000
v 0.32052246 1.30584399 0.66300000
v 0.26689454 1.40339793 0.66300000
v 0.22700297 1.50732765 0.66300000
v 0.20494528 1.55751535 0.66300000
v 0.17196801 1.60130859 0.66300000
v 0.12982822 1.63637404 0.66300000
v 0.08077113 1.66084340 0.66300000
v 0.02741053 1.67341294 0.66300000
v -0.02741053 1.67341294 0.66300000
v -0.08077113 1.66084340 0.66300000
v -0.12982822 1.63637404 0.66300000
v -0.17196801 1.60130859 0.66300000
v -0.20494528 1.55751535 0.66300000
v 2.06002501 -0.28314392 -31.35946055
v 2.05012801 -0.28178361 -31.38357864
v 2.00228306 -0.56101340 -31.35946055
v 1.99266348 -0.55831812 -31.38357864
v 1.90724238 -0.82843227 -31.35946055
v 1.89807940 -0.82445223 -31.38357864
v 1.77667337 -1.08041901 -31.35946055
v 1.76813769 -1.07522835 -31.38357864
v 1.61300830 -1.31227959 -31.35946055
v 1.60525892 -1.30597500 -31.38357864
v 1.41929594 -1.51969488 -31.35946055
v 1.41247721 -1.51239380 -31.38357864
v 1.19914478 -1.69880114 -31.35946055
v 1.19338372 -1.69063957 -31.38357864
v 0.95665583 -1.84626194 -31.35946055
v 0.95205976 -1.83739193 -31.38357864
v 0.69634618 -1.95933037 -31.35946055
v 0.69300072 -1.94991715 -31.38357864
v 0.42306492 -2.03590019 -31.35946055
v 0.42103239 -2.02611910 -31.38357864
v 0.14190277 -2.07454504 -31.35946055
v 0.14122102 -2.06457829 -31.38357864
v -0.14190277 -2.07454504 -31.35946055
v -0.14122102 -2.06457829 -31.38357864
v -0.42306492 -2.03590019 -31.35946055
v -0.42103239 -2.02611910 -31.38357864
v -0.69634618 -1.95933037 -31.35946055
v -0.69300072 -1.94991715 -31.38357864
v -0.95665583 -1.84626194 -31.35946055
v -0.95205976 -1.83739193 -31.38357864
v -1.19914478 -1.69880114 -31.35946055
v -1.19338372 -1.69063957 -31.38357864
v -1.41929594 -1.51969488 -31.35946055
v -1.41247721 -1.51239380 -31.38357864
v -1.61300830 -1.31227959 -31.35946055
v -1.60525892 -1.30597500 -31.38357864
v -1.77667337 -1.08041901 -31.35946055
v -1.76813769 -1.07522835 -31.38357864
v -1.90724238 -0.82843227 -31.35946055
v -1.89807940 -0.82445223 -31.38357864
v -2.00228306 -0.56101340 -31.35946055
v -1.99266348 -0.55831812 -31.38357864
v -2.06002501 -0.28314392 -31.35946055
v -2.05012801 -0.28178361 -31.38357864
v -1.67649874 -0.23042945 -31.74659258
v -1.70039220 -0.23371353 -31.73660254
v -1.62950694 -0.45656643 -31.74659258
v -1.65273067 -0.46307342 -31.73660254
v -1.55216050 -0.67419845 -31.74659258
v -1.57428189 -0.68380712 -31.73660254
v -1.44590025 -0.87927142 -31.74659258
v -1.46650722 -0.89180280 -31.73660254
v -1.31270561 -1.06796523 -31.74659258
v -1.33141429 -1.08318587 -31.73660254
v -1.15505776 -1.23676487 -31.74659258
v -1.17151964 -1.25439124 -31.73660254
v -0.97589336 -1.38252592 -31.74659258
v -0.98980179 -1.40222968 -31.73660254
v -0.77854991 -1.50253313 -31.74659258
v -0.78964581 -1.52394723 -31.73660254
v -0.56670356 -1.59455098 -31.74659258
v -0.57478021 -1.61727652 -31.73660254
v -0.34430058 -1.65686538 -31.74659258
v -0.34920756 -1.68047902 -31.73660254
v -0.11548394 -1.68831550 -31.74659258
v -0.11712982 -1.71237737 -31.73660254
v 0.11548394 -1.68831550 -31.74659258
v 0.11712982 -1.71237737 -31.73660254
v 0.34430058 -1.65686538 -31.74659258
v 0.34920756 -1.68047902 -31.73660254
v 0.56670356 -1.59455098 -31.74659258
v 0.57478021 -1.61727652 -31.73660254
v 0.77854991 -1.50253313 -31.74659258
v 0.78964581 -1.52394723 -31.73660254
v 0.97589336 -1.38252592 -31.74659258
v 0.98980179 -1.40222968 -31.73660254
v 1.15505776 -1.23676487 -31.74659258
v 1.17151964 -1.25439124 -31.73660254
v 1.31270561 -1.06796523 -31.74659258
v 1.33141429 -1.08318587 -31.73660254
v 1.44590025 -0.87927142 -31.74659258
v 1.46650722 -0.89180280 -31.73660254
v 1.55216050 -0.67419845 -31.74659258
v 1.57428189 -0.68380712 -31.73660254
v 1.62950694 -0.45656643 -31.74659258
v 1.65273067 -0.46307342 -31.73660254
v 1.67649874 -0.23042945 -31.74659258
v 1.70039220 -0.23371353 -31.73660254
v -3.87358205 -0.53241160 0.01339746
v -3.90984367 -0.53739564 0.05000000
v -3.76500659 -1.05490538 0.01339746
v -3.80025181 -1.06478062 0.05000000
v -3.58629619 -1.55774826 0.01339746
v -3.61986845 -1.57233075 0.05000000
v -3.34077987 -2.03157324 0.01339746
v -3.37205379 -2.05059134 0.05000000
v -3.03303115 -2.46755386 0.01339746
v -3.06142415 -2.49065328 0.05000000
v -2.66878279 -2.85756862 0.01339746
v -2.69376597 -2.88431907 0.05000000
v -2.25482006 -3.19435228 0.01339746
v -2.27592802 -3.22425546 0.05000000
v -1.79885430 -3.47163120 0.01339746
v -1.81569385 -3.50413006 0.05000000
v -1.30937928 -3.68424021 0.01339746
v -1.32163673 -3.71872935 0.05000000
v -0.79551301 -3.82821878 0.01339746
v -0.80296002 -3.86405575 0.05000000
v -0.26682784 -3.90088489 0.01339746
v -0.26932568 -3.93740210 0.05000000
v 0.26682784 -3.90088489 0.01339746
v 0.26932568 -3.93740210 0.05000000
v 0.79551301 -3.82821878 0.01339746
v 0.80296002 -3.86405575 0.05000000
v 1.30937928 -3.68424021 0.01339746
v 1.32163673 -3.71872935 0.05000000
v 1.79885430 -3.47163120 0.01339746
v 1.81569385 -3.50413006 0.05000000
v 2.25482006 -3.19435228 0.01339746
v 2.27592802 -3.22425546 0.05000000
v 2.66878279 -2.85756862 0.01339746
v 2.69376597 -2.88431907 0.05000000
v 3.03303115 -2.46755386 0.01339746
v 3.06142415 -2.49065328 0.05000000
v 3.34077987 -2.03157324 0.01339746
v 3.37205379 -2.05059134 0.05000000
v 3.58629619 -1.55774826 0.01339746
v 3.61986845 -1.57233075 0.05000000
v 3.76500659 -1.05490538 0.01339746
v 3.80025181 -1.06478062 0.05000000
v 3.87358205 -0.53241160 0.01339746
v 3.90984367 -0.53739564 0.05000000
v 3.92089415 -0.51619551 0.33872895
v 3.92480605 -0.51671052 0.32292316
v 3.81997332 -1.02355877 0.33872895
v 3.82378453 -1.02457998 0.32292316
v 3.65369169 -1.51340865 0.33872895
v 3.65733700 -1.51491859 0.32292316
v 3.42489439 -1.97736370 0.33872895
v 3.42831142 -1.97933652 0.32292316
v 3.13749619 -2.40748550 0.33872895
v 3.14062648 -2.40988746 0.32292316
v 2.79641456 -2.79641456 0.33872895
v 2.79920455 -2.79920455 0.32292316
v 2.40748550 -3.13749619 0.33872895
v 2.40988746 -3.14062648 0.32292316
v 2.28288885 -3.23411669 0.32292316
v 1.97736370 -3.42489439 0.33872895
v 1.97933652 -3.42831142 0.32292316
v 1.82124706 -3.51484728 0.32292316
v 1.51340865 -3.65369169 0.33872895
v 1.51491859 -3.65733700 0.32292316
v 1.32567889 -3.73010291 0.32292316
v 1.02355877 -3.81997332 0.33872895
v 1.02457998 -3.82378453 0.32292316
v 0.80541583 -3.87587379 0.32292316
v 0.51619551 -3.92089415 0.33872895
v 0.51671052 -3.92480605 0.32292316
v 0.27014940 -3.94944446 0.32292316
v 0.00000000 -3.95472739 0.33872895
v 0.00000000 -3.95867304 0.32292316
v -0.27014940 -3.94944446 0.32292316
v -0.51619551 -3.92089415 0.33872895
v -0.51671052 -3.92480605 0.32292316
v -0.80541583 -3.87587379 0.32292316
v -1.02355877 -3.81997332 0.33872895
v -1.02457998 -3.82378453 0.32292316
v -1.32567889 -3.73010291 0.32292316
v -1.51340865 -3.65369169 0.33872895
v -1.51491859 -3.65733700 0.32292316
v -1.82124706 -3.51484728 0.32292316
v -1.97736370 -3.42489439 0.33872895
v -1.97933652 -3.42831142 0.32292316
v -2.28288885 -3.23411669 0.32292316
v -2.40748550 -3.13749619 0.33872895
v -2.40988746 -3.14062648 0.32292316
v -2.70200473 -2.89314063 0.32292316
v -3.07078738 -2.49827083 0.32292316
v -3.38236706 -2.05686298 0.32292316
v -3.63093965 -1.57713965 0.32292316
v -3.81187471 -1.06803721 0.32292316
v -3.91789285 -0.53850198 0.33872895
v -3.92180175 -0.53903924 0.32292316
v 2.05646409 -0.27073863 2.20866925
v 2.07215568 -0.27280447 2.20471241
v 2.00353227 -0.53684485 2.20866925
v 2.01881997 -0.54094118 2.20471241
v 1.93094169 -0.79982224 2.20471241
v 1.81002447 -1.04501811 2.20471241
v 1.65813722 -1.27233344 2.20471241
v 1.47787879 -1.47787879 2.20471241
v 1.41575803 -1.51590671 2.20866925
v 1.42656079 -1.52747364 2.20471241
v 1.27233344 -1.65813722 2.20471241
v 1.19615565 -1.69456650 2.20866925
v 1.20528276 -1.70749667 2.20471241
v 1.04501811 -1.81002447 2.20471241
v 0.95427115 -1.84165972 2.20866925
v 0.96155259 -1.85571227 2.20471241
v 0.79982224 -1.93094169 2.20471241
v 0.69461038 -1.95444631 2.20866925
v 0.69991052 -1.96935946 2.20471241
v 0.54094118 -2.01881997 2.20471241
v 0.42201034 -2.03082526 2.20866925
v 0.42523044 -2.04632121 2.20471241
v 0.27280447 -2.07215568 2.20471241
v 0.14154904 -2.06937377 2.20866925
v 0.14262912 -2.08516387 2.20471241
v 0.00000000 -2.09003622 2.20471241
v -0.14154904 -2.06937377 2.20866925
v -0.14262912 -2.08516387 2.20471241
v -0.27280447 -2.07215568 2.20471241
v -0.42201034 -2.03082526 2.20866925
v -0.42523044 -2.04632121 2.20471241
v -0.54094118 -2.01881997 2.20471241
v -0.69461038 -1.95444631 2.20866925
v -0.69991052 -1.96935946 2.20471241
v -0.79982224 -1.93094169 2.20471241
v -0.95427115 -1.84165972 2.20866925
v -0.96155259 -1.85571227 2.20471241
v -1.04501811 -1.81002447 2.20471241
v -1.19615565 -1.69456650 2.20866925
v -1.20528276 -1.70749667 2.20471241
v -1.27233344 -1.65813722 2.20471241
v -1.41575803 -1.51590671 2.20866925
v -1.42656079 -1.52747364 2.20471241
v -1.60898752 -1.30900844 2.20866925
v -1.62126470 -1.31899666 2.20471241
v -1.77224462 -1.07772583 2.20866925
v -1.78576751 -1.08594928 2.20471241
v -1.90248815 -0.82636722 2.20866925
v -1.91700485 -0.83267271 2.20471241
v -1.99729193 -0.55961495 2.20866925
v -2.01253201 -0.56388503 2.20471241
v -2.05488994 -0.28243812 2.20866925
v -2.07056951 -0.28459323 2.20471241
f 42 41 23
f 43 42 22
f 44 43 21
f 45 44 20
f 46 45 19
f 47 46 18
f 6 34 7
f 5 35 6
f 4 36 5
f 3 37 4
f 2 38 3
f 1 39 2
f 25 39 1
f 26 39 25
f 27 39 26
f 54 24 23
f 54 52 24
f 55 41 40
f 55 52 54
f 55 54 23
f 55 53 52
f 55 40 53
f 55 23 41
f 56 23 22
f 57 23 56
f 57 42 23
f 57 22 42
f 57 56 22
f 58 22 21
f 58 43 22
f 58 21 43
f 59 21 20
f 59 44 21
f 59 20 44
f 60 20 19
f 60 45 20
f 60 19 45
f 61 19 18
f 61 46 19
f 61 18 46
f 62 18 17
f 62 47 18
f 63 62 17
f 64 47 62
f 64 62 63
f 64 48 47
f 65 17 16
f 65 63 17
f 65 64 63
f 65 48 64
f 66 65 16
f 67 48 65
f 67 49 48
f 67 65 66
f 68 16 15
f 68 49 67
f 68 67 66
f 68 66 16
f 69 68 15
f 70 68 69
f 70 50 49
f 70 49 68
f 71 15 14
f 71 69 15
f 71 70 69
f 71 50 70
f 72 71 14
f 73 71 72
f 73 50 71
f 73 51 50
f 74 14 13
f 74 72 14
f 74 51 73
f 74 73 72
f 75 74 13
f 76 74 75
f 76 28 51
f 76 51 74
f 77 13 12
f 77 75 13
f 77 76 75
f 77 28 76
f 78 77 12
f 79 77 78
f 79 29 28
f 79 28 77
f 80 12 11
f 80 78 12
f 80 79 78
f 80 29 79
f 81 80 11
f 82 30 29
f 82 29 80
f 82 80 81
f 83 11 10
f 83 81 11
f 83 30 82
f 83 82 81
f 84 83 10
f 85 31 30
f 85 30 83
f 85 83 84
f 86 10 9
f 86 84 10
f 86 31 85
f 86 85 84
f 87 86 9
f 88 86 87
f 88 32 31
f 88 31 86
f 89 88 87
f 89 32 88
f 89 9 8
f 89 87 9
f 90 89 8
f 91 32 89
f 91 89 90
f 91 33 32
f 92 8 7
f 92 90 8
f 92 91 90
f 92 33 91
f 93 92 7
f 93 7 34
f 94 33 92
f 94 93 34
f 94 92 93
f 94 34 33
f 95 34 6
f 95 6 35
f 96 95 35
f 96 34 95
f 96 35 34
f 97 35 5
f 97 5 36
f 98 97 36
f 98 35 97
f 98 36 35
f 99 36 4
f 99 4 37
f 100 37 36
f 100 99 37
f 100 36 99
f 101 37 3
f 101 3 38
f 102 38 37
f 102 101 38
f 102 37 101
f 103 38 2
f 103 2 39
f 104 39 38
f 104 103 39
f 104 38 103
f 156 122 157
f 155 123 156
f 154 124 155
f 153 125 154
f 152 126 153
f 151 127 152
f 140 139 110
f 141 140 109
f 142 141 108
f 143 142 107
f 118 106 105
f 119 106 118
f 120 143 106
f 120 106 119
f 158 145 144
f 158 144 157
f 158 157 122
f 159 122 121
f 159 146 145
f 159 121 146
f 159 145 158
f 159 158 122
f 160 122 156
f 160 156 123
f 161 123 122
f 161 160 123
f 161 122 160
f 162 123 155
f 162 155 124
f 163 124 123
f 163 162 124
f 163 123 162
f 164 124 154
f 164 154 125
f 165 164 125
f 165 124 164
f 165 125 124
f 166 125 153
f 166 153 126
f 167 126 125
f 167 166 126
f 167 125 166
f 168 126 152
f 168 152 127
f 169 127 126
f 169 168 127
f 169 126 168
f 170 127 151
f 171 128 127
f 171 127 170
f 172 151 150
f 172 171 170
f 172 128 171
f 172 170 151
f 173 172 150
f 174 128 172
f 174 129 128
f 174 172 173
f 175 150 149
f 175 173 150
f 175 129 174
f 175 174 173
f 176 175 149
f 177 130 129
f 177 129 175
f 177 175 176
f 178 149 148
f 178 130 177
f 178 177 176
f 178 176 149
f 179 178 148
f 180 131 130
f 180 130 178
f 180 178 179
f 181 148 147
f 181 131 180
f 181 180 179
f 181 179 148
f 182 181 147
f 183 132 131
f 183 131 181
f 183 181 182
f 184 182 147
f 184 147 117
f 184 132 183
f 184 183 182
f 185 184 117
f 186 133 132
f 186 132 184
f 186 184 185
f 187 185 117
f 187 117 116
f 187 133 186
f 187 186 185
f 188 187 116
f 189 134 133
f 189 133 187
f 189 187 188
f 190 116 115
f 190 188 116
f 190 134 189
f 190 189 188
f 191 190 115
f 192 190 191
f 192 135 134
f 192 134 190
f 193 192 191
f 193 135 192
f 193 115 114
f 193 191 115
f 194 193 114
f 195 135 193
f 195 193 194
f 195 136 135
f 196 114 113
f 196 194 114
f 196 195 194
f 196 136 195
f 197 196 113
f 198 136 196
f 198 196 197
f 198 137 136
f 199 113 112
f 199 197 113
f 199 198 197
f 199 137 198
f 200 199 112
f 201 137 199
f 201 199 200
f 201 138 137
f 202 112 111
f 202 200 112
f 202 201 200
f 202 138 201
f 203 202 111
f 204 202 203
f 204 139 138
f 204 138 202
f 205 111 110
f 205 203 111
f 205 110 139
f 205 204 203
f 205 139 204
f 206 110 109
f 206 140 110
f 206 109 140
f 207 109 108
f 207 141 109
f 207 108 141
f 208 108 107
f 208 142 108
f 208 107 142
f 209 107 106
f 210 106 143
f 210 143 107
f 210 107 209
f 210 209 106
f 235 212 211
f 263 234 233
f 263 261 234
f 264 239 238
f 264 261 263
f 264 262 261
f 264 238 262
f 265 233 232
f 265 263 233
f 266 264 263
f 266 239 264
f 266 240 239
f 266 263 265
f 267 232 231
f 267 265 232
f 268 265 267
f 268 241 240
f 268 240 266
f 268 266 265
f 269 268 267
f 269 231 230
f 269 267 231
f 270 241 268
f 270 242 241
f 270 268 269
f 271 230 229
f 271 269 230
f 272 243 242
f 272 242 270
f 272 270 269
f 272 269 271
f 273 228 227
f 273 229 228
f 273 271 229
f 274 243 272
f 274 244 243
f 274 272 271
f 274 271 273
f 275 273 227
f 276 244 274
f 276 245 244
f 276 273 275
f 276 274 273
f 277 227 226
f 277 276 275
f 277 275 227
f 278 246 245
f 278 276 277
f 278 245 276
f 279 226 225
f 279 277 226
f 279 278 277
f 280 247 246
f 280 246 278
f 280 278 279
f 281 225 224
f 281 279 225
f 282 279 281
f 282 248 247
f 282 280 279
f 282 247 280
f 283 281 224
f 283 223 222
f 283 224 223
f 283 282 281
f 284 249 248
f 284 282 283
f 284 248 282
f 285 283 222
f 286 250 249
f 286 284 283
f 286 283 285
f 286 249 284
f 287 222 221
f 287 285 222
f 288 285 287
f 288 251 250
f 288 250 286
f 288 286 285
f 289 220 219
f 289 221 220
f 289 287 221
f 290 287 289
f 290 252 251
f 290 253 252
f 290 288 287
f 290 251 288
f 291 289 219
f 292 253 290
f 292 290 289
f 292 289 291
f 293 219 218
f 293 291 219
f 293 292 291
f 294 254 253
f 294 253 292
f 294 292 293
f 295 218 217
f 295 293 218
f 296 255 254
f 296 294 293
f 296 254 294
f 296 293 295
f 297 217 216
f 297 295 217
f 298 255 296
f 298 295 297
f 298 256 255
f 298 296 295
f 299 215 214
f 299 216 215
f 299 297 216
f 300 298 297
f 300 256 298
f 300 297 299
f 300 257 256
f 301 299 214
f 302 300 299
f 302 257 300
f 302 299 301
f 302 258 257
f 303 214 213
f 303 301 214
f 304 302 301
f 304 258 302
f 304 259 258
f 304 301 303
f 305 213 212
f 305 303 213
f 305 304 303
f 305 212 235
f 306 259 304
f 306 235 236
f 306 236 237
f 306 305 235
f 306 260 259
f 306 237 260
f 306 304 305
f 331 308 307
f 359 330 329
f 359 357 330
f 360 335 334
f 360 357 359
f 360 358 357
f 360 334 358
f 361 329 328
f 361 359 329
f 362 360 359
f 362 335 360
f 362 336 335
f 362 359 361
f 363 328 327
f 363 361 328
f 364 361 363
f 364 337 336
f 364 336 362
f 364 362 361
f 365 327 326
f 365 363 327
f 366 364 363
f 366 337 364
f 366 338 337
f 366 363 365
f 367 326 325
f 367 365 326
f 368 339 338
f 368 338 366
f 368 366 365
f 368 365 367
f 369 325 324
f 369 367 325
f 370 339 368
f 370 340 339
f 370 368 367
f 370 367 369
f 371 323 322
f 371 324 323
f 371 369 324
f 372 369 371
f 372 341 340
f 372 370 369
f 372 340 370
f 373 371 322
f 374 342 341
f 374 371 373
f 374 372 371
f 374 341 372
f 375 322 321
f 375 374 373
f 375 373 322
f 376 343 342
f 376 342 374
f 376 374 375
f 377 320 319
f 377 321 320
f 377 376 375
f 377 375 321
f 378 344 343
f 378 376 377
f 378 343 376
f 379 377 319
f 379 378 377
f 380 345 344
f 380 378 379
f 380 344 378
f 381 379 319
f 381 319 318
f 381 380 379
f 382 346 345
f 382 345 380
f 382 380 381
f 383 381 318
f 383 318 317
f 384 381 383
f 384 347 346
f 384 382 381
f 384 346 382
f 385 317 316
f 385 383 317
f 385 384 383
f 386 348 347
f 386 349 348
f 386 347 384
f 386 384 385
f 387 316 315
f 387 385 316
f 388 386 385
f 388 385 387
f 388 349 386
f 389 315 314
f 389 387 315
f 389 388 387
f 390 350 349
f 390 349 388
f 390 388 389
f 391 314 313
f 391 389 314
f 392 351 350
f 392 390 389
f 392 350 390
f 392 389 391
f 393 313 312
f 393 391 313
f 394 391 393
f 394 351 392
f 394 352 351
f 394 392 391
f 395 312 311
f 395 393 312
f 396 394 393
f 396 352 394
f 396 393 395
f 396 353 352
f 396 354 353
f 397 311 310
f 397 396 395
f 397 395 311
f 398 354 396
f 398 396 397
f 399 310 309
f 399 397 310
f 400 354 398
f 400 398 397
f 400 355 354
f 400 397 399
f 401 309 308
f 401 399 309
f 401 308 331
f 402 400 399
f 402 355 400
f 402 331 332
f 402 332 333
f 402 401 331
f 402 356 355
f 402 399 401
f 402 333 356
f 427 404 403
f 455 426 425
f 455 453 426
f 456 431 430
f 456 453 455
f 456 454 453
f 456 430 454
f 457 425 424
f 457 455 425
f 458 456 455
f 458 431 456
f 458 432 431
f 458 455 457
f 459 424 423
f 459 457 424
f 460 457 459
f 460 433 432
f 460 432 458
f 460 458 457
f 461 423 422
f 461 459 423
f 462 460 459
f 462 433 460
f 462 434 433
f 462 459 461
f 463 421 420
f 463 422 421
f 463 461 422
f 464 435 434
f 464 434 462
f 464 462 461
f 464 461 463
f 465 463 420
f 466 435 464
f 466 436 435
f 466 464 463
f 466 463 465
f 467 420 419
f 467 465 420
f 467 466 465
f 468 436 466
f 468 466 467
f 468 437 436
f 469 419 418
f 469 468 467
f 469 467 419
f 470 438 437
f 470 437 468
f 470 468 469
f 471 417 416
f 471 418 417
f 471 469 418
f 472 439 438
f 472 470 469
f 472 438 470
f 472 469 471
f 473 471 416
f 474 471 473
f 474 439 472
f 474 440 439
f 474 472 471
f 475 416 415
f 475 473 416
f 476 441 440
f 476 473 475
f 476 440 474
f 476 474 473
f 477 415 414
f 477 475 415
f 478 442 441
f 478 476 475
f 478 475 477
f 478 441 476
f 479 414 413
f 479 477 414
f 480 442 478
f 480 443 442
f 480 478 477
f 480 477 479
f 481 413 412
f 481 479 413
f 481 480 479
f 482 444 443
f 482 443 480
f 482 480 481
f 483 411 410
f 483 412 411
f 483 481 412
f 484 481 483
f 484 445 444
f 484 444 482
f 484 482 481
f 485 483 410
f 485 484 483
f 486 446 445
f 486 445 484
f 486 484 485
f 487 410 409
f 487 485 410
f 488 486 485
f 488 447 446
f 488 446 486
f 488 485 487
f 489 409 408
f 489 487 409
f 490 447 488
f 490 487 489
f 490 488 487
f 490 448 447
f 491 408 407
f 491 489 408
f 491 490 489
f 492 448 490
f 492 490 491
f 492 449 448
f 493 407 406
f 493 491 407
f 494 492 491
f 494 449 492
f 494 491 493
f 494 450 449
f 495 406 405
f 495 493 406
f 496 494 493
f 496 450 494
f 496 451 450
f 496 493 495
f 497 405 404
f 497 495 405
f 497 496 495
f 497 404 427
f 498 451 496
f 498 427 428
f 498 428 429
f 498 497 427
f 498 452 451
f 498 429 452
f 498 496 497
f 512 505 504
f 512 513 505
f 511 504 503
f 511 512 504
f 510 503 502
f 510 511 503
f 509 502 501
f 509 510 502
f 508 501 500
f 508 509 501
f 507 500 499
f 507 508 500
f 506 507 499
f 520 523 522
f 521 524 523
f 521 523 520
f 516 525 524
f 516 524 521
f 517 526 525
f 517 527 526
f 517 525 516
f 518 528 527
f 518 527 517
f 519 529 528
f 519 528 518
f 515 514 529
f 515 529 519
f 532 535 534
f 533 536 535
f 533 535 532
f 531 530 536
f 531 536 533
f 539 544 543
f 539 545 544
f 540 545 539
f 538 537 541
f 542 538 541
f 520 538 542
f 521 520 542
f 516 521 542
f 550 540 541
f 550 546 545
f 550 547 546
f 550 548 547
f 550 549 548
f 550 537 549
f 550 545 540
f 550 541 537
f 452 334 335
f 452 429 334
f 451 335 336
f 451 452 335
f 450 336 337
f 450 451 336
f 449 337 338
f 449 450 337
f 448 338 339
f 448 449 338
f 447 339 340
f 447 448 339
f 446 340 341
f 446 447 340
f 445 341 342
f 445 446 341
f 444 342 343
f 444 445 342
f 443 343 344
f 443 444 343
f 442 344 345
f 442 443 344
f 441 345 346
f 441 346 347
f 441 442 345
f 440 441 347
f 439 440 347
f 439 347 348
f 438 439 348
f 438 348 349
f 437 349 350
f 437 438 349
f 437 350 351
f 436 437 351
f 435 351 352
f 435 352 353
f 435 436 351
f 434 435 353
f 433 353 354
f 433 434 353
f 432 354 355
f 432 355 356
f 432 433 354
f 431 432 356
f 430 356 333
f 430 431 356
f 552 403 404
f 553 404 405
f 553 552 404
f 554 405 406
f 554 553 405
f 555 406 407
f 555 554 406
f 556 407 408
f 556 555 407
f 557 408 409
f 557 556 408
f 558 557 409
f 559 409 410
f 559 558 409
f 560 410 411
f 560 559 410
f 561 411 412
f 561 560 411
f 562 412 413
f 562 561 412
f 563 413 414
f 563 562 413
f 564 563 414
f 564 414 415
f 565 564 415
f 565 415 416
f 566 565 416
f 566 416 417
f 567 566 417
f 567 417 418
f 568 567 418
f 568 418 419
f 569 419 420
f 569 568 419
f 570 420 421
f 570 569 420
f 571 421 422
f 571 570 421
f 572 422 423
f 572 571 422
f 573 423 424
f 573 572 423
f 574 424 425
f 574 573 424
f 551 425 426
f 551 574 425
f 143 238 239
f 143 239 240
f 143 120 238
f 142 240 241
f 142 143 240
f 141 142 241
f 140 241 242
f 140 141 241
f 139 242 243
f 139 140 242
f 138 243 244
f 138 139 243
f 137 244 245
f 137 138 244
f 136 245 246
f 136 137 245
f 135 246 247
f 135 136 246
f 134 247 248
f 134 135 247
f 133 248 249
f 133 134 248
f 132 133 249
f 132 249 250
f 132 250 251
f 131 132 251
f 130 131 251
f 130 251 252
f 130 252 253
f 129 130 253
f 128 253 254
f 128 129 253
f 127 254 255
f 127 255 256
f 127 128 254
f 126 127 256
f 125 256 257
f 125 126 256
f 124 257 258
f 124 258 259
f 124 125 257
f 123 124 259
f 122 259 260
f 122 123 259
f 121 260 237
f 121 122 260
f 585 586 587
f 592 590 591
f 606 51 28
f 147 603 117
f 607 584 585
f 607 587 588
f 607 585 587
f 608 588 589
f 608 607 588
f 609 582 583
f 609 583 584
f 609 584 607
f 609 607 608
f 610 589 590
f 610 592 593
f 610 593 594
f 610 594 595
f 610 608 589
f 610 590 592
f 611 609 608
f 611 608 610
f 612 580 581
f 612 581 582
f 612 609 611
f 612 582 609
f 613 611 610
f 613 595 596
f 613 596 597
f 613 610 595
f 614 612 611
f 614 611 613
f 615 597 598
f 615 613 597
f 616 580 612
f 616 578 579
f 616 579 580
f 616 612 614
f 617 598 599
f 617 613 615
f 617 615 598
f 617 614 613
f 618 616 614
f 618 614 617
f 619 599 600
f 619 600 601
f 619 617 599
f 620 577 578
f 620 616 618
f 620 578 616
f 621 617 619
f 621 618 617
f 622 601 602
f 622 602 40
f 622 619 601
f 623 576 577
f 623 618 621
f 623 620 618
f 623 577 620
f 624 619 622
f 624 621 619
f 625 40 41
f 625 41 42
f 625 622 40
f 626 45 46
f 627 51 606
f 627 48 49
f 627 49 50
f 627 50 51
f 627 606 605
f 628 623 621
f 628 575 576
f 628 621 624
f 628 576 623
f 629 624 622
f 629 622 625
f 630 42 43
f 630 43 44
f 630 625 42
f 631 626 46
f 631 46 47
f 631 47 48
f 631 48 627
f 632 627 605
f 632 605 604
f 633 144 575
f 633 575 628
f 633 628 624
f 633 624 629
f 634 629 625
f 634 625 630
f 635 44 45
f 635 626 631
f 635 45 626
f 635 630 44
f 636 627 632
f 636 631 627
f 637 147 148
f 637 604 603
f 637 603 147
f 637 632 604
f 638 157 144
f 638 144 633
f 638 633 629
f 638 629 634
f 639 634 630
f 639 630 635
f 640 631 636
f 640 635 631
f 641 148 149
f 641 632 637
f 641 149 150
f 641 637 148
f 641 636 632
f 642 638 634
f 642 157 638
f 642 156 157
f 642 634 639
f 643 639 635
f 643 635 640
f 644 150 151
f 644 151 152
f 644 636 641
f 644 641 150
f 644 640 636
f 645 155 156
f 645 156 642
f 645 642 639
f 645 639 643
f 646 152 153
f 646 153 154
f 646 643 640
f 646 640 644
f 646 644 152
f 647 154 155
f 647 646 154
f 647 155 645
f 647 645 643
f 647 643 646
f 684 664 665
f 685 684 665
f 685 665 666
f 683 663 664
f 683 664 684
f 686 685 666
f 686 666 667
f 682 663 683
f 682 662 663
f 687 686 667
f 687 667 668
f 681 662 682
f 681 661 662
f 688 687 668
f 688 668 669
f 680 661 681
f 680 660 661
f 689 688 669
f 689 669 1
f 679 660 680
f 679 659 660
f 539 689 1
f 678 659 679
f 678 658 659
f 540 1 2
f 540 539 1
f 677 657 658
f 677 658 678
f 541 2 3
f 541 540 2
f 676 656 657
f 676 657 677
f 542 3 4
f 542 541 3
f 675 656 676
f 655 656 675
f 516 4 5
f 516 542 4
f 674 655 675
f 654 655 674
f 690 516 5
f 673 654 674
f 6 690 5
f 653 654 673
f 691 690 6
f 672 653 673
f 7 691 6
f 652 653 672
f 692 691 7
f 671 652 672
f 8 692 7
f 693 692 8
f 651 652 671
f 651 671 670
f 9 693 8
f 694 693 9
f 650 651 670
f 650 670 712
f 10 695 694
f 10 694 9
f 649 650 712
f 649 712 711
f 11 695 10
f 11 696 695
f 648 649 711
f 648 711 710
f 12 696 11
f 12 697 696
f 24 648 710
f 24 709 708
f 24 710 709
f 13 697 12
f 13 698 697
f 23 24 708
f 23 708 707
f 14 698 13
f 14 699 698
f 22 23 707
f 22 707 706
f 15 699 14
f 15 700 699
f 21 22 706
f 21 706 705
f 16 700 15
f 16 701 700
f 20 21 705
f 20 705 704
f 17 701 16
f 17 702 701
f 19 20 704
f 19 704 703
f 18 702 17
f 18 19 703
f 18 703 702
f 587 586 713
f 591 590 734
f 606 28 29
f 117 603 116
f 735 720 721
f 736 718 719
f 736 719 720
f 736 720 735
f 737 721 722
f 737 735 721
f 738 716 717
f 738 717 718
f 738 718 736
f 739 736 735
f 739 735 737
f 740 722 723
f 740 737 722
f 741 714 715
f 741 715 716
f 741 716 738
f 742 736 739
f 742 738 736
f 743 739 737
f 743 737 740
f 744 723 105
f 744 740 723
f 745 588 587
f 745 713 714
f 745 714 741
f 745 587 713
f 746 741 738
f 746 738 742
f 747 739 743
f 747 727 728
f 747 742 739
f 748 740 744
f 748 743 740
f 749 105 106
f 749 744 105
f 750 589 588
f 750 741 746
f 750 588 745
f 750 745 741
f 751 746 742
f 751 729 730
f 751 730 731
f 751 742 747
f 752 743 748
f 752 725 726
f 752 726 727
f 752 727 747
f 752 747 743
f 753 748 744
f 753 744 749
f 754 106 107
f 754 749 106
f 755 590 589
f 755 751 731
f 755 734 590
f 755 731 732
f 755 732 733
f 755 733 734
f 755 589 750
f 755 746 751
f 755 750 746
f 756 728 729
f 756 751 747
f 756 747 728
f 756 729 751
f 757 748 753
f 757 752 748
f 757 27 724
f 757 724 725
f 757 725 752
f 758 753 749
f 758 749 754
f 759 107 108
f 759 754 107
f 760 38 39
f 760 39 27
f 760 27 757
f 760 753 758
f 760 757 753
f 761 754 759
f 761 758 754
f 762 759 108
f 762 108 109
f 763 36 37
f 763 37 38
f 763 758 761
f 763 38 760
f 763 760 758
f 764 759 762
f 764 761 759
f 765 761 764
f 765 36 763
f 765 35 36
f 765 763 761
f 766 764 762
f 766 109 110
f 766 110 111
f 766 762 109
f 767 35 765
f 767 34 35
f 768 764 766
f 768 765 764
f 769 767 765
f 769 34 767
f 769 765 768
f 769 32 33
f 769 33 34
f 770 766 111
f 770 111 112
f 770 112 113
f 770 768 766
f 771 768 770
f 771 769 768
f 772 32 769
f 772 769 771
f 772 605 606
f 772 29 30
f 772 30 31
f 772 31 32
f 772 606 29
f 773 771 770
f 773 770 113
f 773 113 114
f 773 114 115
f 774 604 605
f 774 771 773
f 774 772 771
f 774 605 772
f 775 773 115
f 775 115 116
f 775 603 604
f 775 774 773
f 775 604 774
f 775 116 603
f 819 121 237
f 819 237 776
f 818 776 777
f 818 819 776
f 817 777 778
f 817 818 777
f 816 778 779
f 816 817 778
f 815 779 780
f 815 816 779
f 814 780 781
f 814 815 780
f 813 781 782
f 813 814 781
f 812 782 783
f 812 813 782
f 811 783 784
f 811 812 783
f 810 784 785
f 810 811 784
f 809 785 786
f 809 810 785
f 808 809 786
f 808 786 787
f 807 808 787
f 807 787 788
f 806 807 788
f 806 788 789
f 805 806 789
f 805 789 790
f 804 805 790
f 804 790 791
f 803 791 792
f 803 804 791
f 802 803 792
f 802 792 793
f 801 793 794
f 801 802 793
f 800 794 795
f 800 801 794
f 799 795 796
f 799 800 795
f 798 796 797
f 798 799 796
f 120 798 797
f 120 797 238
f 847 836 837
f 846 847 837
f 846 837 838
f 848 836 847
f 848 835 836
f 845 846 838
f 845 838 839
f 849 835 848
f 849 834 835
f 844 845 839
f 844 839 840
f 850 834 849
f 850 832 833
f 850 833 834
f 843 844 840
f 843 840 841
f 851 832 850
f 842 843 841
f 842 841 211
f 852 832 851
f 852 831 832
f 551 211 212
f 551 842 211
f 853 830 831
f 853 831 852
f 574 551 212
f 854 828 829
f 854 829 830
f 854 830 853
f 573 212 213
f 573 574 212
f 855 827 828
f 855 828 854
f 572 213 214
f 572 214 215
f 572 573 213
f 856 826 827
f 856 827 855
f 571 572 215
f 857 826 856
f 570 215 216
f 570 571 215
f 825 826 857
f 858 825 857
f 217 570 216
f 217 569 570
f 824 858 859
f 824 825 858
f 218 568 569
f 218 569 217
f 823 859 860
f 823 824 859
f 219 568 218
f 219 567 568
f 822 860 861
f 822 823 860
f 220 567 219
f 220 566 567
f 821 861 862
f 821 822 861
f 221 566 220
f 221 564 565
f 221 565 566
f 820 821 862
f 820 862 863
f 222 564 221
f 222 563 564
f 234 820 863
f 234 863 552
f 223 563 222
f 233 234 552
f 233 552 553
f 224 563 223
f 224 562 563
f 232 233 553
f 232 553 554
f 225 562 224
f 225 560 561
f 225 561 562
f 231 232 554
f 231 554 555
f 226 560 225
f 226 559 560
f 230 231 555
f 230 555 556
f 227 559 226
f 227 558 559
f 229 230 556
f 229 556 557
f 228 558 227
f 228 229 557
f 228 557 558
f 551 426 864
f 842 551 864
f 843 864 865
f 843 842 864
f 844 865 866
f 844 843 865
f 845 866 867
f 845 844 866
f 846 867 868
f 846 868 869
f 846 845 867
f 847 846 869
f 848 869 870
f 848 870 871
f 848 847 869
f 849 848 871
f 850 871 872
f 850 872 873
f 850 849 871
f 851 873 874
f 851 850 873
f 852 874 875
f 852 851 874
f 853 852 875
f 853 875 876
f 854 853 876
f 854 876 877
f 855 854 877
f 855 877 878
f 856 855 878
f 856 878 879
f 857 879 880
f 857 856 879
f 858 880 881
f 858 857 880
f 859 858 881
f 859 881 882
f 860 882 883
f 860 859 882
f 861 883 884
f 861 860 883
f 862 884 885
f 862 861 884
f 863 885 403
f 863 862 885
f 552 863 403
f 906 904 905
f 898 899 900
f 898 900 901
f 307 906 907
f 892 893 894
f 892 894 895
f 312 308 309
f 312 309 310
f 312 310 311
f 888 889 890
f 888 890 891
f 888 891 892
f 888 895 896
f 888 896 897
f 888 897 898
f 888 898 901
f 888 892 895
f 316 312 313
f 316 313 314
f 316 314 315
f 330 886 887
f 330 887 888
f 319 312 316
f 319 316 317
f 319 317 318
f 328 329 330
f 328 901 902
f 328 902 903
f 328 903 904
f 328 904 906
f 328 888 901
f 328 330 888
f 322 319 320
f 322 320 321
f 326 327 328
f 325 307 308
f 325 326 328
f 325 328 906
f 325 308 312
f 325 906 307
f 324 312 319
f 324 325 312
f 324 322 323
f 324 319 322
f 430 333 908
f 951 908 909
f 951 430 908
f 950 909 910
f 950 951 909
f 949 910 911
f 949 950 910
f 948 911 912
f 948 949 911
f 947 912 913
f 947 948 912
f 946 913 914
f 946 947 913
f 945 914 915
f 945 946 914
f 944 945 915
f 943 915 916
f 943 944 915
f 942 916 917
f 942 943 916
f 941 917 918
f 941 942 917
f 940 918 919
f 940 941 918
f 939 940 919
f 939 919 920
f 938 939 920
f 938 920 921
f 937 938 921
f 937 921 922
f 936 922 923
f 936 937 922
f 935 936 923
f 935 923 924
f 934 924 925
f 934 935 924
f 933 925 926
f 933 934 925
f 932 926 927
f 932 933 926
f 931 927 928
f 931 932 927
f 930 928 929
f 930 931 928
f 429 929 334
f 429 930 929
f 671 952 670
f 671 953 952
f 671 954 953
f 672 955 954
f 672 954 671
f 969 968 676
f 677 969 676
f 970 969 677
f 971 970 677
f 678 971 677
f 972 956 955
f 972 957 956
f 972 958 957
f 972 672 673
f 972 955 672
f 973 959 958
f 973 960 959
f 973 961 960
f 973 962 961
f 973 963 962
f 973 964 963
f 973 673 674
f 973 674 675
f 973 958 972
f 973 972 673
f 974 965 964
f 974 966 965
f 974 967 966
f 974 968 967
f 974 675 676
f 974 973 675
f 974 964 973
f 974 676 968
f 679 979 678
f 679 980 979
f 679 981 980
f 680 982 981
f 680 981 679
f 976 975 684
f 685 976 684
f 977 976 685
f 978 977 685
f 686 978 685
f 995 680 681
f 995 983 982
f 995 984 983
f 995 985 984
f 995 982 680
f 996 681 682
f 996 682 683
f 996 986 985
f 996 987 986
f 996 988 987
f 996 989 988
f 996 990 989
f 996 991 990
f 996 985 995
f 996 995 681
f 997 683 684
f 997 992 991
f 997 993 992
f 997 994 993
f 997 975 994
f 997 996 683
f 997 991 996
f 997 684 975
f 687 532 998
f 687 533 532
f 688 531 533
f 688 533 687
f 539 1003 1002
f 539 543 1003
f 539 1002 689
f 687 998 686
f 1004 688 689
f 1004 999 531
f 1004 1000 999
f 1004 1001 1000
f 1004 1002 1001
f 1004 689 1002
f 1004 531 688
f 690 517 516
f 690 518 517
f 690 519 518
f 691 515 519
f 691 519 690
f 1006 1005 695
f 696 1006 695
f 1007 1006 696
f 1008 1007 696
f 697 1008 696
f 1021 691 692
f 1021 1009 515
f 1021 1010 1009
f 1021 1011 1010
f 1021 515 691
f 1022 692 693
f 1022 693 694
f 1022 1012 1011
f 1022 1013 1012
f 1022 1014 1013
f 1022 1015 1014
f 1022 1016 1015
f 1022 1017 1016
f 1022 1011 1021
f 1022 1021 692
f 1023 694 695
f 1023 1018 1017
f 1023 1019 1018
f 1023 1020 1019
f 1023 1005 1020
f 1023 1022 694
f 1023 1017 1022
f 1023 695 1005
f 698 1024 697
f 698 1025 1024
f 698 1026 1025
f 699 1027 1026
f 699 1026 698
f 1041 1040 703
f 704 1041 703
f 1042 1041 704
f 1043 1042 704
f 705 1043 704
f 1044 1028 1027
f 1044 1029 1028
f 1044 1030 1029
f 1044 699 700
f 1044 1027 699
f 1045 1031 1030
f 1045 1032 1031
f 1045 1033 1032
f 1045 1034 1033
f 1045 1035 1034
f 1045 1036 1035
f 1045 700 701
f 1045 701 702
f 1045 1030 1044
f 1045 1044 700
f 1046 1037 1036
f 1046 1038 1037
f 1046 1039 1038
f 1046 1040 1039
f 1046 702 703
f 1046 1045 702
f 1046 1036 1045
f 1046 703 1040
f 706 1047 705
f 706 1048 1047
f 706 1049 1048
f 707 1050 1049
f 707 1049 706
f 1056 513 711
f 712 1056 711
f 1057 1056 712
f 1058 1057 712
f 670 1058 712
f 1059 1051 1050
f 1059 1052 1051
f 1059 1053 1052
f 1059 707 708
f 1059 1050 707
f 1060 1054 1053
f 1060 1055 1054
f 1060 506 1055
f 1060 507 506
f 1060 508 507
f 1060 509 508
f 1060 708 709
f 1060 709 710
f 1060 1053 1059
f 1060 1059 708
f 1061 510 509
f 1061 511 510
f 1061 512 511
f 1061 513 512
f 1061 710 711
f 1061 1060 710
f 1061 711 513
f 1061 509 1060
f 1100 1093 1094
f 1100 1094 1095
f 1100 1095 1096
f 1100 1096 1097
f 1100 1097 1098
f 1100 1098 1099
f 1091 1092 1093
f 1091 1093 1100
f 1090 1091 1100
f 505 1090 1100
f 504 1100 1101
f 504 505 1100
f 1116 1114 1115
f 503 1101 1102
f 503 504 1101
f 502 1102 1103
f 502 503 1102
f 501 1103 1104
f 501 502 1103
f 1121 1112 1113
f 1121 1113 1114
f 1121 1116 1117
f 1121 1117 1118
f 1121 1118 1119
f 1121 1119 1120
f 1121 1114 1116
f 500 1104 1105
f 500 501 1104
f 1122 1111 1112
f 1122 1112 1121
f 499 500 1105
f 499 1105 1106
f 1123 1111 1122
f 1123 1110 1111
f 1124 1110 1123
f 1124 1109 1110
f 1125 1109 1124
f 1125 1108 1109
f 1082 1083 1084
f 1080 1081 1082
f 1126 1108 1125
f 1126 1107 1108
f 1127 1106 1107
f 1127 499 1106
f 1127 1107 1126
f 1076 1077 1078
f 1128 499 1127
f 1075 1076 1078
f 1074 1075 1078
f 1074 1078 1079
f 1074 1079 1080
f 1073 1082 1084
f 1073 1084 1085
f 1073 1080 1082
f 1073 1074 1080
f 1072 1085 1086
f 1072 1073 1085
f 1071 1072 1086
f 1071 1086 1087
f 1070 1087 1088
f 1070 1071 1087
f 1069 1088 1089
f 1069 1070 1088
f 1135 1133 1134
f 1068 1089 499
f 1068 1069 1089
f 1136 1133 1135
f 1067 1068 499
f 535 1140 534
f 536 1140 535
f 536 1138 1139
f 536 1139 1140
f 530 1138 536
f 530 1136 1137
f 530 1137 1138
f 530 1133 1136
f 1141 1132 1133
f 1141 1133 530
f 1142 1132 1141
f 1142 1131 1132
f 1143 1131 1142
f 1143 1129 1130
f 1143 1130 1131
f 1144 1129 1143
f 1145 1129 1144
f 1145 499 1128
f 1145 1128 1129
f 1146 499 1145
f 1173 1174 1062
f 1171 1173 1062
f 1171 1172 1173
f 1161 1065 1066
f 1161 1066 1160
f 1159 1066 1067
f 1159 1160 1066
f 1159 1067 499
f 1162 1064 1065
f 1162 1065 1161
f 1158 1159 499
f 1158 499 1146
f 1163 1063 1064
f 1163 1064 1162
f 1169 1171 1062
f 1169 1170 1171
f 1157 1158 1146
f 1157 1146 1147
f 1164 1062 1063
f 1164 1063 1163
f 1167 1168 1169
f 1166 1164 1165
f 1166 1169 1062
f 1166 1062 1164
f 1166 1167 1169
f 1156 1157 1147
f 1156 1147 1148
f 1155 1156 1148
f 1155 1148 1149
f 1155 1149 1150
f 1154 1155 1150
f 514 1154 1150
f 514 1150 1151
f 528 529 514
f 524 1152 1153
f 524 1153 522
f 524 522 523
f 526 527 528
f 525 1151 1152
f 525 514 1151
f 525 528 514
f 525 1152 524
f 525 526 528
f 967 968 1111
f 967 1111 1110
f 966 1110 1109
f 966 967 1110
f 965 1109 1108
f 965 966 1109
f 964 1108 1107
f 964 965 1108
f 963 1107 1106
f 963 964 1107
f 962 1106 1105
f 962 963 1106
f 961 962 1105
f 960 1105 1104
f 960 961 1105
f 959 1104 1103
f 959 960 1104
f 958 1103 1102
f 958 959 1103
f 957 1102 1101
f 957 958 1102
f 956 1101 1100
f 956 957 1101
f 955 956 1100
f 968 1112 1111
f 969 1113 1112
f 969 1112 968
f 970 1114 1113
f 970 1113 969
f 971 1115 1114
f 971 1116 1115
f 971 1114 970
f 678 1117 1116
f 678 1116 971
f 979 1118 1117
f 979 1119 1118
f 979 1117 678
f 980 1120 1119
f 980 1119 979
f 981 1121 1120
f 981 1120 980
f 982 1122 1121
f 982 1121 981
f 994 975 1133
f 994 1133 1132
f 993 1132 1131
f 993 994 1132
f 992 1131 1130
f 992 993 1131
f 991 1130 1129
f 991 992 1130
f 990 1129 1128
f 990 991 1129
f 989 1128 1127
f 989 990 1128
f 988 989 1127
f 987 1127 1126
f 987 988 1127
f 986 1126 1125
f 986 987 1126
f 985 1125 1124
f 985 986 1125
f 984 1124 1123
f 984 985 1124
f 983 1123 1122
f 983 984 1123
f 982 983 1122
f 975 1134 1133
f 976 1135 1134
f 976 1134 975
f 977 1136 1135
f 977 1135 976
f 978 1137 1136
f 978 1138 1137
f 978 1136 977
f 686 1139 1138
f 686 1138 978
f 998 1140 1139
f 998 1139 686
f 532 534 1140
f 532 1140 998
f 549 537 1151
f 549 1151 1150
f 548 1150 1149
f 548 549 1150
f 547 1149 1148
f 547 548 1149
f 546 547 1148
f 545 1148 1147
f 545 546 1148
f 544 1147 1146
f 544 545 1147
f 543 1146 1145
f 543 544 1146
f 1003 1145 1144
f 1003 543 1145
f 1002 1144 1143
f 1002 1003 1144
f 1001 1143 1142
f 1001 1002 1143
f 1000 1142 1141
f 1000 1001 1142
f 999 1141 530
f 999 1000 1141
f 531 999 530
f 537 1152 1151
f 538 1153 1152
f 538 1152 537
f 520 522 1153
f 520 1153 538
f 1020 1005 1164
f 1020 1164 1163
f 1019 1163 1162
f 1019 1020 1163
f 1018 1162 1161
f 1018 1019 1162
f 1017 1161 1160
f 1017 1018 1161
f 1016 1160 1159
f 1016 1017 1160
f 1015 1159 1158
f 1015 1016 1159
f 1014 1015 1158
f 1013 1158 1157
f 1013 1014 1158
f 1012 1157 1156
f 1012 1013 1157
f 1011 1156 1155
f 1011 1012 1156
f 1010 1155 1154
f 1010 1011 1155
f 1009 1154 514
f 1009 1010 1154
f 515 1009 514
f 1005 1165 1164
f 1006 1166 1165
f 1006 1165 1005
f 1007 1167 1166
f 1007 1166 1006
f 1008 1168 1167
f 1008 1169 1168
f 1008 1167 1007
f 697 1170 1169
f 697 1169 1008
f 1024 1171 1170
f 1024 1172 1171
f 1024 1170 697
f 1025 1173 1172
f 1025 1172 1024
f 1026 1174 1173
f 1026 1173 1025
f 1027 1062 1174
f 1027 1174 1026
f 1039 1040 1073
f 1039 1073 1072
f 1038 1072 1071
f 1038 1039 1072
f 1037 1071 1070
f 1037 1038 1071
f 1036 1070 1069
f 1036 1037 1070
f 1035 1069 1068
f 1035 1036 1069
f 1034 1068 1067
f 1034 1035 1068
f 1033 1034 1067
f 1032 1067 1066
f 1032 1033 1067
f 1031 1066 1065
f 1031 1032 1066
f 1030 1065 1064
f 1030 1031 1065
f 1029 1064 1063
f 1029 1030 1064
f 1028 1063 1062
f 1028 1029 1063
f 1027 1028 1062
f 1040 1074 1073
f 1041 1075 1074
f 1041 1074 1040
f 1042 1076 1075
f 1042 1075 1041
f 1043 1077 1076
f 1043 1078 1077
f 1043 1076 1042
f 705 1079 1078
f 705 1078 1043
f 1047 1080 1079
f 1047 1081 1080
f 1047 1079 705
f 1048 1082 1081
f 1048 1081 1047
f 1049 1083 1082
f 1049 1082 1048
f 1050 1084 1083
f 1050 1083 1049
f 1055 506 499
f 1055 499 1089
f 1054 1089 1088
f 1054 1055 1089
f 1053 1088 1087
f 1053 1054 1088
f 1052 1087 1086
f 1052 1053 1087
f 1051 1085 1084
f 1051 1086 1085
f 1051 1052 1086
f 1050 1051 1084
f 513 1090 505
f 1056 1091 1090
f 1056 1090 513
f 1057 1092 1091
f 1057 1091 1056
f 1058 1093 1092
f 1058 1094 1093
f 1058 1092 1057
f 670 1095 1094
f 670 1094 1058
f 952 1096 1095
f 952 1097 1096
f 952 1095 670
f 953 1098 1097
f 953 1097 952
f 954 1099 1098
f 954 1098 953
f 955 1100 1099
f 955 1099 954
f 1175 427 403
f 1175 403 885
f 1176 428 427
f 1176 429 428
f 1176 930 429
f 1176 427 1175
f 1177 885 884
f 1177 1175 885
f 1178 1176 1175
f 1178 930 1176
f 1178 931 930
f 1178 1175 1177
f 1179 884 883
f 1179 1177 884
f 1180 932 931
f 1180 931 1178
f 1180 1178 1177
f 1180 1177 1179
f 1181 883 882
f 1181 1179 883
f 1182 1180 1179
f 1182 933 932
f 1182 1179 1181
f 1182 932 1180
f 1183 882 881
f 1183 1181 882
f 1184 934 933
f 1184 935 934
f 1184 933 1182
f 1184 1182 1181
f 1184 1181 1183
f 1185 881 880
f 1185 1183 881
f 1186 935 1184
f 1186 1184 1183
f 1186 1183 1185
f 1187 880 879
f 1187 1185 880
f 1187 1186 1185
f 1188 1186 1187
f 1188 936 935
f 1188 935 1186
f 1189 879 878
f 1189 1187 879
f 1190 937 936
f 1190 936 1188
f 1190 1188 1187
f 1190 1187 1189
f 1191 878 877
f 1191 1189 878
f 1192 938 937
f 1192 937 1190
f 1192 1189 1191
f 1192 1190 1189
f 1193 877 876
f 1193 1191 877
f 1194 1191 1193
f 1194 939 938
f 1194 938 1192
f 1194 1192 1191
f 1195 875 874
f 1195 876 875
f 1195 1193 876
f 1196 940 939
f 1196 1193 1195
f 1196 1194 1193
f 1196 939 1194
f 1197 1195 874
f 1198 1196 1195
f 1198 1195 1197
f 1198 941 940
f 1198 940 1196
f 1199 874 873
f 1199 1198 1197
f 1199 1197 874
f 1200 942 941
f 1200 941 1198
f 1200 1198 1199
f 1201 873 872
f 1201 1199 873
f 1201 1200 1199
f 1202 943 942
f 1202 942 1200
f 1202 1200 1201
f 1203 872 871
f 1203 1201 872
f 1204 1201 1203
f 1204 944 943
f 1204 1202 1201
f 1204 943 1202
f 1205 871 870
f 1205 1203 871
f 1206 1203 1205
f 1206 945 944
f 1206 1204 1203
f 1206 944 1204
f 1207 870 869
f 1207 1205 870
f 1208 946 945
f 1208 1206 1205
f 1208 945 1206
f 1208 1205 1207
f 1209 868 867
f 1209 869 868
f 1209 1207 869
f 1210 1207 1209
f 1210 947 946
f 1210 946 1208
f 1210 1208 1207
f 1211 1209 867
f 1211 1210 1209
f 1212 947 1210
f 1212 1210 1211
f 1212 948 947
f 1212 949 948
f 1213 1211 867
f 1213 867 866
f 1214 1211 1213
f 1214 1212 1211
f 1214 949 1212
f 1215 865 864
f 1215 866 865
f 1215 1213 866
f 1216 1214 1213
f 1216 949 1214
f 1216 1213 1215
f 1216 950 949
f 1217 864 426
f 1217 426 453
f 1217 1215 864
f 1218 1216 1215
f 1218 950 1216
f 1218 1217 453
f 1218 453 454
f 1218 454 430
f 1218 951 950
f 1218 430 951
f 1218 1215 1217
f 334 929 358
f 1219 331 307
f 1219 307 907
f 1220 332 331
f 1220 333 332
f 1220 908 333
f 1220 331 1219
f 1221 907 906
f 1221 1219 907
f 1222 1220 1219
f 1222 908 1220
f 1222 909 908
f 1222 1219 1221
f 1223 906 905
f 1223 1221 906
f 1224 910 909
f 1224 909 1222
f 1224 1222 1221
f 1224 1221 1223
f 1225 905 904
f 1225 1223 905
f 1226 1224 1223
f 1226 1223 1225
f 1226 911 910
f 1226 910 1224
f 1227 904 903
f 1227 1225 904
f 1228 1226 1225
f 1228 911 1226
f 1228 912 911
f 1228 1225 1227
f 1229 903 902
f 1229 1227 903
f 1230 913 912
f 1230 1228 1227
f 1230 912 1228
f 1230 1227 1229
f 1231 902 901
f 1231 1229 902
f 1232 914 913
f 1232 1229 1231
f 1232 1230 1229
f 1232 913 1230
f 1233 901 900
f 1233 1231 901
f 1234 1232 1231
f 1234 915 914
f 1234 914 1232
f 1234 1231 1233
f 1235 900 899
f 1235 1233 900
f 1236 916 915
f 1236 915 1234
f 1236 1234 1233
f 1236 1233 1235
f 1237 1235 899
f 1237 899 898
f 1238 916 1236
f 1238 917 916
f 1238 1235 1237
f 1238 1236 1235
f 1239 1237 898
f 1239 897 896
f 1239 898 897
f 1240 1237 1239
f 1240 918 917
f 1240 1238 1237
f 1240 917 1238
f 1241 896 895
f 1241 1239 896
f 1242 919 918
f 1242 1240 1239
f 1242 918 1240
f 1242 1239 1241
f 1243 1241 895
f 1244 919 1242
f 1244 920 919
f 1244 1242 1241
f 1244 1241 1243
f 1245 895 894
f 1245 1244 1243
f 1245 1243 895
f 1246 1244 1245
f 1246 921 920
f 1246 920 1244
f 1247 893 892
f 1247 894 893
f 1247 1245 894
f 1248 922 921
f 1248 1246 1245
f 1248 921 1246
f 1248 1245 1247
f 1249 1247 892
f 1250 1247 1249
f 1250 923 922
f 1250 922 1248
f 1250 1248 1247
f 1251 892 891
f 1251 1249 892
f 1252 924 923
f 1252 1250 1249
f 1252 923 1250
f 1252 1249 1251
f 1253 890 889
f 1253 891 890
f 1253 1251 891
f 1254 1251 1253
f 1254 924 1252
f 1254 925 924
f 1254 1252 1251
f 1255 1253 889
f 1256 1254 1253
f 1256 925 1254
f 1256 1253 1255
f 1256 926 925
f 1257 1256 1255
f 1257 889 888
f 1257 1255 889
f 1258 926 1256
f 1258 1256 1257
f 1258 927 926
f 1259 888 887
f 1259 1257 888
f 1259 1258 1257
f 1260 927 1258
f 1260 1258 1259
f 1260 928 927
f 1261 886 330
f 1261 887 886
f 1261 1259 887
f 1261 330 357
f 1261 357 358
f 1262 1260 1259
f 1262 928 1260
f 1262 1261 358
f 1262 929 928
f 1262 358 929
f 1262 1259 1261
f 238 797 262
f 1263 235 211
f 1263 211 841
f 1264 236 235
f 1264 237 236
f 1264 776 237
f 1264 235 1263
f 1265 841 840
f 1265 1263 841
f 1266 1264 1263
f 1266 776 1264
f 1266 777 776
f 1266 1263 1265
f 1267 840 839
f 1267 1265 840
f 1268 778 777
f 1268 1266 1265
f 1268 777 1266
f 1268 1265 1267
f 1269 839 838
f 1269 1267 839
f 1270 1268 1267
f 1270 1267 1269
f 1270 779 778
f 1270 780 779
f 1270 778 1268
f 1271 1270 1269
f 1271 838 837
f 1271 1269 838
f 1272 780 1270
f 1272 1270 1271
f 1273 837 836
f 1273 1271 837
f 1274 1271 1273
f 1274 780 1272
f 1274 781 780
f 1274 1272 1271
f 1275 836 835
f 1275 1273 836
f 1276 1273 1275
f 1276 782 781
f 1276 1274 1273
f 1276 781 1274
f 1277 1275 835
f 1277 834 833
f 1277 835 834
f 1278 1276 1275
f 1278 782 1276
f 1278 783 782
f 1278 1275 1277
f 1279 1277 833
f 1280 1278 1277
f 1280 784 783
f 1280 785 784
f 1280 1277 1279
f 1280 783 1278
f 1281 1280 1279
f 1281 832 831
f 1281 833 832
f 1281 1279 833
f 1282 785 1280
f 1282 1280 1281
f 1283 1281 831
f 1284 785 1282
f 1284 786 785
f 1284 1282 1281
f 1284 1281 1283
f 1285 831 830
f 1285 1283 831
f 1286 787 786
f 1286 1284 1283
f 1286 786 1284
f 1286 1283 1285
f 1287 1285 830
f 1287 829 828
f 1287 830 829
f 1287 1286 1285
f 1288 1286 1287
f 1288 788 787
f 1288 787 1286
f 1289 828 827
f 1289 1287 828
f 1290 789 788
f 1290 1288 1287
f 1290 788 1288
f 1290 1287 1289
f 1291 1289 827
f 1292 1289 1291
f 1292 790 789
f 1292 789 1290
f 1292 1290 1289
f 1293 827 826
f 1293 1291 827
f 1293 1292 1291
f 1294 791 790
f 1294 790 1292
f 1294 1292 1293
f 1295 826 825
f 1295 1293 826
f 1296 1294 1293
f 1296 792 791
f 1296 791 1294
f 1296 1293 1295
f 1297 824 823
f 1297 825 824
f 1297 1295 825
f 1298 792 1296
f 1298 1295 1297
f 1298 1296 1295
f 1298 793 792
f 1299 1297 823
f 1300 793 1298
f 1300 1297 1299
f 1300 794 793
f 1300 1298 1297
f 1301 823 822
f 1301 1300 1299
f 1301 1299 823
f 1302 794 1300
f 1302 1300 1301
f 1302 795 794
f 1303 821 820
f 1303 822 821
f 1303 1301 822
f 1304 1302 1301
f 1304 795 1302
f 1304 1301 1303
f 1304 796 795
f 1305 820 234
f 1305 1303 820
f 1305 234 261
f 1305 261 262
f 1306 1304 1303
f 1306 796 1304
f 1306 1305 262
f 1306 797 796
f 1306 262 797
f 1306 1303 1305
f 722 798 723
f 721 799 722
f 720 800 721
f 719 801 720
f 718 802 719
f 717 803 718
f 815 814 580
f 816 815 579
f 817 816 578
f 818 817 577
f 819 818 576
f 145 575 144
f 146 575 145
f 121 819 575
f 121 575 146
f 1307 118 105
f 1307 105 723
f 1307 723 798
f 1308 119 118
f 1308 120 119
f 1308 798 120
f 1308 118 1307
f 1308 1307 798
f 1309 798 722
f 1309 722 799
f 1310 799 798
f 1310 798 1309
f 1310 1309 799
f 1311 799 721
f 1311 721 800
f 1312 800 799
f 1312 799 1311
f 1312 1311 800
f 1313 800 720
f 1313 720 801
f 1314 800 1313
f 1314 1313 801
f 1314 801 800
f 1315 801 719
f 1315 719 802
f 1316 802 801
f 1316 1315 802
f 1316 801 1315
f 1317 802 718
f 1317 718 803
f 1318 803 802
f 1318 1317 803
f 1318 802 1317
f 1319 803 717
f 1320 803 1319
f 1320 804 803
f 1321 717 716
f 1321 1319 717
f 1321 1320 1319
f 1321 804 1320
f 1322 1321 716
f 1323 804 1321
f 1323 805 804
f 1323 1321 1322
f 1324 716 715
f 1324 1322 716
f 1324 805 1323
f 1324 1323 1322
f 1325 1324 715
f 1326 805 1324
f 1326 806 805
f 1326 1324 1325
f 1327 715 714
f 1327 1325 715
f 1327 806 1326
f 1327 1326 1325
f 1328 1327 714
f 1329 807 806
f 1329 806 1327
f 1329 1327 1328
f 1330 714 713
f 1330 807 1329
f 1330 1329 1328
f 1330 1328 714
f 1331 1330 713
f 1332 808 807
f 1332 807 1330
f 1332 1330 1331
f 1333 1331 713
f 1333 713 586
f 1333 808 1332
f 1333 1332 1331
f 1334 1333 586
f 1335 809 808
f 1335 808 1333
f 1335 1333 1334
f 1336 1334 586
f 1336 586 585
f 1336 809 1335
f 1336 1335 1334
f 1337 1336 585
f 1338 810 809
f 1338 809 1336
f 1338 1336 1337
f 1339 1337 585
f 1339 585 584
f 1339 810 1338
f 1339 1338 1337
f 1340 1339 584
f 1341 1339 1340
f 1341 811 810
f 1341 810 1339
f 1342 1341 1340
f 1342 811 1341
f 1342 1340 584
f 1342 584 583
f 1343 1342 583
f 1344 811 1342
f 1344 1342 1343
f 1344 812 811
f 1345 1343 583
f 1345 1344 1343
f 1345 812 1344
f 1345 583 582
f 1346 1345 582
f 1347 812 1345
f 1347 1345 1346
f 1347 813 812
f 1348 1346 582
f 1348 1347 1346
f 1348 582 581
f 1348 813 1347
f 1349 1348 581
f 1350 813 1348
f 1350 1348 1349
f 1350 814 813
f 1351 581 580
f 1351 1349 581
f 1351 1350 1349
f 1351 814 1350
f 1351 580 814
f 1352 580 579
f 1352 815 580
f 1352 579 815
f 1353 579 578
f 1353 816 579
f 1353 578 816
f 1354 578 577
f 1354 817 578
f 1354 577 817
f 1355 577 576
f 1355 818 577
f 1355 576 818
f 1356 576 575
f 1357 576 1356
f 1357 575 819
f 1357 1356 575
f 1357 819 576
f 725 724 669
f 726 725 668
f 727 726 667
f 728 727 666
f 729 728 665
f 652 597 653
f 651 598 652
f 650 599 651
f 649 600 650
f 648 601 649
f 24 602 648
f 52 602 24
f 53 602 52
f 40 602 53
f 1358 25 1
f 1358 1 669
f 1359 26 25
f 1359 27 26
f 1359 724 27
f 1359 1358 669
f 1359 25 1358
f 1359 669 724
f 1360 669 668
f 1361 1360 668
f 1361 669 1360
f 1361 725 669
f 1361 668 725
f 1362 668 667
f 1362 726 668
f 1362 667 726
f 1363 667 666
f 1363 727 667
f 1363 666 727
f 1364 666 665
f 1364 728 666
f 1364 665 728
f 1365 665 664
f 1365 729 665
f 1366 1365 664
f 1367 729 1365
f 1367 1365 1366
f 1367 730 729
f 1368 664 663
f 1368 1366 664
f 1368 1367 1366
f 1368 730 1367
f 1369 1368 663
f 1370 731 730
f 1370 730 1368
f 1370 1368 1369
f 1371 731 1370
f 1371 1370 1369
f 1371 663 662
f 1371 1369 663
f 1372 1371 662
f 1373 731 1371
f 1373 732 731
f 1373 1371 1372
f 1374 662 661
f 1374 732 1373
f 1374 1373 1372
f 1374 1372 662
f 1375 1374 661
f 1376 733 732
f 1376 732 1374
f 1376 1374 1375
f 1377 661 660
f 1377 1376 1375
f 1377 1375 661
f 1377 733 1376
f 1378 1377 660
f 1379 734 733
f 1379 733 1377
f 1379 1377 1378
f 1380 660 659
f 1380 734 1379
f 1380 1378 660
f 1380 1379 1378
f 1381 1380 659
f 1382 1380 1381
f 1382 591 734
f 1382 734 1380
f 1383 659 658
f 1383 1381 659
f 1383 1382 1381
f 1383 591 1382
f 1384 1383 658
f 1385 1383 1384
f 1385 592 591
f 1385 591 1383
f 1386 658 657
f 1386 1384 658
f 1386 1385 1384
f 1386 592 1385
f 1387 1386 657
f 1388 593 592
f 1388 592 1386
f 1388 1386 1387
f 1389 657 656
f 1389 1387 657
f 1389 593 1388
f 1389 1388 1387
f 1390 1389 656
f 1391 1389 1390
f 1391 594 593
f 1391 593 1389
f 1392 1391 1390
f 1392 594 1391
f 1392 656 655
f 1392 1390 656
f 1393 1392 655
f 1394 594 1392
f 1394 1392 1393
f 1394 595 594
f 1395 1393 655
f 1395 1394 1393
f 1395 655 654
f 1395 595 1394
f 1396 1395 654
f 1397 595 1395
f 1397 1395 1396
f 1397 596 595
f 1398 654 653
f 1398 1396 654
f 1398 1397 1396
f 1398 596 1397
f 1399 1398 653
f 1399 653 597
f 1400 596 1398
f 1400 1399 597
f 1400 1398 1399
f 1400 597 596
f 1401 597 652
f 1401 652 598
f 1402 597 1401
f 1402 1401 598
f 1402 598 597
f 1403 598 651
f 1403 651 599
f 1404 599 598
f 1404 1403 599
f 1404 598 1403
f 1405 599 650
f 1405 650 600
f 1406 600 599
f 1406 1405 600
f 1406 599 1405
f 1407 600 649
f 1407 649 601
f 1408 601 600
f 1408 1407 601
f 1408 600 1407
f 1409 601 648
f 1409 648 602
f 1410 602 601
f 1410 1409 602
f 1410 601 1409

