# https://github.com/mikedh/trimesh
v 25.40000000 37.60000000 593.89259779
v 25.40000000 37.60000000 -593.89259779
v 25.40000000 -23.40000000 -593.89259779
v 25.40000000 -23.40000000 593.89259779
v -25.40000000 23.40000000 -593.89259779
v -25.38309361 23.65949902 -593.89259779
v -25.33266026 23.91461084 -593.89259779
v -25.24955260 24.16102246 -593.89259779
v -25.13517568 24.39456793 -593.89259779
v -24.99146320 24.61129884 -593.89259779
v -24.82084482 24.80755106 -593.89259779
v -24.62620508 24.98000668 -593.89259779
v -24.41083464 25.12575008 -593.89259779
v -24.17837463 25.24231727 -593.89259779
v -23.93275511 25.32773753 -593.89259779
v -25.40000000 -23.40000000 -593.89259779
v -23.40000000 -25.40000000 -593.89259779
v -23.66105238 -25.38288972 -593.89259779
v -23.91763809 -25.33185165 -593.89259779
v -24.16536686 -25.24775907 -593.89259779
v -24.40000000 -25.13205081 -593.89259779
v -24.61752286 -24.98670668 -593.89259779
v -24.81421356 -24.81421356 -593.89259779
v -24.98670668 -24.61752286 -593.89259779
v -25.13205081 -24.40000000 -593.89259779
v -25.24775907 -24.16536686 -593.89259779
v -25.33185165 -23.91763809 -593.89259779
v -25.38288972 -23.66105238 -593.89259779
v 23.40000000 -25.40000000 -593.89259779
v 25.38288972 -23.66105238 -593.89259779
v 25.33185165 -23.91763809 -593.89259779
v 25.24775907 -24.16536686 -593.89259779
v 25.13205081 -24.40000000 -593.89259779
v 24.98670668 -24.61752286 -593.89259779
v 24.81421356 -24.81421356 -593.89259779
v 24.61752286 -24.98670668 -593.89259779
v 24.40000000 -25.13205081 -593.89259779
v 24.16536686 -25.24775907 -593.89259779
v 23.91763809 -25.33185165 -593.89259779
v 23.66105238 -25.38288972 -593.89259779
v 24.91454176 38.09978849 -593.89259779
v 24.97845611 38.09380628 -593.89259779
v 25.04107723 38.07968450 -593.89259779
v 25.10137294 38.05765592 -593.89259779
v 25.15834934 38.02808366 -593.89259779
v 25.21106730 37.99145515 -593.89259779
v 25.25865783 37.94837417 -593.89259779
v 25.30033649 37.89955082 -593.89259779
v 25.33541628 37.84578988 -593.89259779
v 25.36331896 37.78797750 -593.89259779
v 25.38358460 37.72706664 -593.89259779
v 25.39587917 37.66406129 -593.89259779
v 24.78369308 38.07839483 -593.89259779
v 24.84840515 38.09344807 -593.89259779
v -23.93275511 25.32773753 593.89259779
v -24.17837463 25.24231727 593.89259779
v -24.41083464 25.12575008 593.89259779
v -24.62620508 24.98000668 593.89259779
v -24.82084482 24.80755106 593.89259779
v -24.99146320 24.61129884 593.89259779
v -25.13517568 24.39456793 593.89259779
v -25.24955260 24.16102246 593.89259779
v -25.33266026 23.91461084 593.89259779
v -25.38309361 23.65949902 593.89259779
v -25.40000000 23.40000000 593.89259779
v -25.40000000 -23.40000000 593.89259779
v -25.38288972 -23.66105238 593.89259779
v -25.33185165 -23.91763809 593.89259779
v -25.24775907 -24.16536686 593.89259779
v -25.13205081 -24.40000000 593.89259779
v -24.98670668 -24.61752286 593.89259779
v -24.81421356 -24.81421356 593.89259779
v -24.61752286 -24.98670668 593.89259779
v -24.40000000 -25.13205081 593.89259779
v -24.16536686 -25.24775907 593.89259779
v -23.91763809 -25.33185165 593.89259779
v -23.66105238 -25.38288972 593.89259779
v -23.40000000 -25.40000000 593.89259779
v 23.40000000 -25.40000000 593.89259779
v 23.66105238 -25.38288972 593.89259779
v 23.91763809 -25.33185165 593.89259779
v 24.16536686 -25.24775907 593.89259779
v 24.40000000 -25.13205081 593.89259779
v 24.61752286 -24.98670668 593.89259779
v 24.81421356 -24.81421356 593.89259779
v 24.98670668 -24.61752286 593.89259779
v 25.13205081 -24.40000000 593.89259779
v 25.24775907 -24.16536686 593.89259779
v 25.33185165 -23.91763809 593.89259779
v 25.38288972 -23.66105238 593.89259779
v 25.39587917 37.66406129 593.89259779
v 25.38358460 37.72706664 593.89259779
v 25.36331896 37.78797750 593.89259779
v 25.33541628 37.84578988 593.89259779
v 25.30033649 37.89955082 593.89259779
v 25.25865783 37.94837417 593.89259779
v 25.21106730 37.99145515 593.89259779
v 25.15834934 38.02808366 593.89259779
v 25.10137294 38.05765592 593.89259779
v 25.04107723 38.07968450 593.89259779
v 24.97845611 38.09380628 593.89259779
v 24.91454176 38.09978849 593.89259779
v 24.84840515 38.09344807 593.89259779
v 24.78369308 38.07839483 593.89259779
v 18.91880000 38.09959984 570.49259779
v 18.84969206 38.09199571 570.49259779
v 18.78230702 38.07487887 570.49259779
v 18.92425824 38.09978849 570.49260110
v 18.78230702 38.07487887 -570.49259779
v 18.84969206 38.09199571 -570.49259779
v 18.91880000 38.09959984 -570.49259779
v 18.92425824 38.09978849 -570.49260110
f 104 103 106
f 106 103 105
f 53 15 109
f 55 104 107
f 107 104 106
f 110 53 109
f 102 105 103
f 108 105 102
f 111 112 41
f 53 110 54
f 110 111 54
f 54 111 41
f 78 29 79
f 17 29 78
f 1 3 2
f 4 3 1
f 65 5 16
f 16 66 65
f 40 80 79
f 79 29 40
f 107 15 55
f 109 15 107
f 52 1 2
f 91 1 52
f 61 60 9
f 9 60 10
f 62 61 9
f 9 8 62
f 6 5 65
f 65 64 6
f 87 86 33
f 33 86 34
f 33 88 87
f 32 88 33
f 89 88 31
f 31 88 32
f 76 20 19
f 75 20 76
f 21 20 74
f 74 20 75
f 70 69 25
f 25 69 26
f 71 25 24
f 70 25 71
f 22 74 73
f 21 74 22
f 81 80 39
f 80 40 39
f 47 46 96
f 96 46 97
f 50 49 93
f 93 49 94
f 43 101 100
f 42 101 43
f 98 46 45
f 97 46 98
f 109 107 110
f 110 107 106
f 62 8 7
f 7 63 62
f 64 63 7
f 7 6 64
f 11 60 59
f 10 60 11
f 12 11 58
f 58 11 59
f 13 12 58
f 58 57 13
f 30 3 4
f 4 90 30
f 30 90 89
f 89 31 30
f 66 16 67
f 16 28 67
f 27 69 68
f 26 69 27
f 68 67 27
f 27 67 28
f 38 82 81
f 81 39 38
f 91 52 92
f 52 51 92
f 92 51 50
f 50 93 92
f 102 112 108
f 41 112 102
f 102 42 41
f 102 101 42
f 44 43 99
f 99 43 100
f 99 45 44
f 99 98 45
f 108 112 111
f 111 105 108
f 111 110 106
f 106 105 111
f 55 15 56
f 15 14 56
f 56 14 13
f 13 57 56
f 17 78 18
f 78 77 18
f 18 76 19
f 18 77 76
f 23 71 24
f 23 72 71
f 23 22 73
f 73 72 23
f 4 1 95
f 95 86 87
f 103 104 95
f 62 63 95
f 95 64 65
f 79 80 95
f 95 58 59
f 95 96 97
f 59 60 95
f 65 66 95
f 95 82 83
f 95 69 70
f 95 1 91
f 95 61 62
f 83 84 95
f 97 98 95
f 95 90 4
f 81 82 95
f 95 80 81
f 95 78 79
f 95 104 55
f 75 76 95
f 95 72 73
f 95 60 61
f 95 84 85
f 85 86 95
f 89 90 95
f 87 88 95
f 95 74 75
f 70 71 95
f 91 92 95
f 95 63 64
f 95 99 100
f 95 88 89
f 68 69 95
f 66 67 95
f 73 74 95
f 95 77 78
f 55 56 95
f 95 93 94
f 100 101 95
f 101 102 95
f 57 58 95
f 95 67 68
f 76 77 95
f 71 72 95
f 95 92 93
f 95 102 103
f 98 99 95
f 95 56 57
f 94 49 95
f 49 48 95
f 47 96 95
f 95 48 47
f 83 82 37
f 82 38 37
f 37 84 83
f 37 36 84
f 50 51 35
f 35 14 15
f 35 40 29
f 35 20 21
f 2 3 35
f 5 6 35
f 35 54 41
f 35 52 2
f 41 42 35
f 47 48 35
f 35 16 5
f 35 29 17
f 35 46 47
f 35 38 39
f 35 9 10
f 15 53 35
f 35 7 8
f 35 33 34
f 35 31 32
f 3 30 35
f 35 25 26
f 21 22 35
f 35 39 40
f 44 45 35
f 8 9 35
f 35 43 44
f 35 12 13
f 32 33 35
f 10 11 35
f 35 28 16
f 19 20 35
f 24 25 35
f 17 18 35
f 26 27 35
f 35 51 52
f 45 46 35
f 35 49 50
f 42 43 35
f 6 7 35
f 13 14 35
f 35 11 12
f 35 30 31
f 35 27 28
f 35 23 24
f 35 48 49
f 53 54 35
f 35 18 19
f 22 23 35
f 35 37 38
f 36 37 35
f 35 86 85
f 34 86 35
f 85 84 35
f 84 36 35

