# https://github.com/mikedh/trimesh
v 23.18385208 12.65063178 13.62857630
v 13.66287240 12.60835368 -23.16360113
v 9.44390282 -12.70000000 15.72131151
v -18.14901011 13.84857851 -19.96363808
v 19.32572725 13.94076698 -19.01431564
v -18.26537991 -5.15543576 -20.39244693
v -20.68134573 -5.65818768 -17.01843170
v -11.77074953 12.64588462 23.16886572
v -13.65610954 12.63151321 23.15350246
v -20.55067209 13.85995641 -12.69590653
v -15.72132343 -12.70000000 14.86838199
v -15.13835932 -12.70000000 -14.33052668
v 9.44390282 -12.70000000 -15.72131151
v 15.72132343 -12.70000000 -14.86838199
v 14.81944388 -12.70000000 14.04143692
v -9.59530654 -12.70000000 15.31404237
v -15.63500000 13.70000000 20.78500000
v 20.78500000 13.70000000 15.63500000
v 16.37009735 13.68503562 -20.84070640
v -16.39706802 14.05524022 15.78377292
v -9.61528031 -12.72461545 -15.65442973
v -9.56837436 -9.84245229 -18.68319195
v 15.68355664 -12.65292388 15.51217518
v 15.99738928 -12.14640155 16.78682612
v 20.84964257 13.61508083 -16.76929219
v -19.10257829 12.87772914 20.58629982
v 16.73813820 12.56547251 21.88731589
v 16.73827463 -5.03950570 20.91766165
v -17.31973709 -4.12720140 20.92263514
v 17.39981027 -11.64167139 15.72684111
v 20.26028677 -6.16011175 18.09911098
v 14.85929455 -6.05284829 20.71374151
v 17.92222261 -10.62858369 -16.14901757
v -14.85929454 -6.05306985 20.71361360
v -9.43859664 -11.21279562 17.73828045
v 16.13757196 -6.27722157 -20.54758278
v -17.77113265 -6.30700199 20.06916610
v -17.35648075 -11.35531528 16.40184682
v -14.85929455 -6.05284829 -20.71374151
v -17.57311164 -11.27965227 -16.01527707
v -17.45336530 -11.69999484 -14.85929449
v -20.63649139 -5.64078722 17.35012788
v 20.08689023 -5.36304310 -19.15292763
v -17.30941217 -11.91572706 -14.86007509
v -17.13545279 -12.11428984 -14.86102861
v -16.93815308 -12.28723465 -14.86209011
v -16.79579187 -12.38685466 -14.86284153
v -16.60113866 -12.49607241 -14.86385327
v -16.38322863 -12.58729062 -14.86497337
v -16.18700736 -12.64500109 -14.86597656
v -15.99622088 -12.68098871 -14.86695464
v -15.86081300 -12.69511911 -14.86765424
v -17.31232386 -11.91154794 14.86003450
v -17.14558835 -12.10352849 14.86090932
v -16.95605205 -12.27304297 14.86190377
v -16.74660822 -12.41719787 14.86300266
v -16.52037587 -12.53325158 14.86418964
v -16.28122167 -12.61963042 14.86544442
v -16.03309800 -12.67527397 14.86674624
v -15.87770047 -12.69377739 14.86756155
v 17.30941217 -11.91572706 14.86007509
v 17.13545279 -12.11428984 14.86102861
v 16.79579187 -12.38685466 14.86284153
v 16.60113866 -12.49607241 14.86385327
v 16.38322863 -12.58729062 14.86497337
v 16.18700736 -12.64500109 14.86597656
v 15.99622088 -12.68098871 14.86695464
v 15.86081300 -12.69511911 14.86765424
v 16.98468620 -12.02144387 15.97985431
v 17.31232386 -11.91154794 -14.86003450
v 17.14558835 -12.10352849 -14.86090932
v 16.95605205 -12.27304297 -14.86190377
v 16.74660822 -12.41719787 -14.86300266
v 16.52037587 -12.53325158 -14.86418964
v 16.28122167 -12.61963042 -14.86544442
v 16.03309800 -12.67527397 -14.86674624
v 15.87770047 -12.69377739 -14.86756155
v -9.32052850 -11.91273924 17.31177538
v -9.30787848 -12.10481684 17.14486106
v -9.30220637 -12.22419549 17.01615127
v -9.30003014 -12.34137076 16.86396826
v -9.30260599 -12.43503249 16.71612917
v -9.30953666 -12.50897915 16.57406923
v -9.32130783 -12.57152746 16.42621596
v -9.33822769 -12.62192572 16.27462108
v -9.36062954 -12.65968263 16.12078526
v -9.41457391 -12.69626792 15.84314355
v 9.38763044 -12.68449712 15.97037426
v 9.34594646 -12.63751492 16.21733480
v 9.32546691 -12.58689274 16.38426350
v 9.31033758 -12.51497311 16.56138957
v 9.30258431 -12.43465826 16.71678159
v 9.30006675 -12.34925110 16.85254220
v 9.30128301 -12.25302682 16.98137128
v 9.30558625 -12.14708840 17.10185453
v 9.31233291 -12.03213940 17.21306111
v -9.38763044 -12.68449712 -15.97037426
v -9.34594646 -12.63751492 -16.21733480
v -9.32546691 -12.58689274 -16.38426350
v -9.31033758 -12.51497311 -16.56138957
v -9.30258431 -12.43465826 -16.71678159
v -9.30006675 -12.34925110 -16.85254220
v -9.30128301 -12.25302682 -16.98137128
v -9.30558625 -12.14708840 -17.10185453
v -9.31233291 -12.03213940 -17.21306111
v 9.32052850 -11.91273924 -17.31177538
v 9.30787848 -12.10481684 -17.14486106
v 9.30220637 -12.22419549 -17.01615127
v 9.30003014 -12.34137076 -16.86396826
v 9.30260599 -12.43503249 -16.71612917
v 9.30953666 -12.50897915 -16.57406923
v 9.32130783 -12.57152746 -16.42621596
v 9.33822769 -12.62192572 -16.27462108
v 9.36062954 -12.65968263 -16.12078526
v 9.41457391 -12.69626792 -15.84314355
v 13.49647852 12.50000000 -23.25000000
v 12.17701765 -1.73686988 -23.25250821
v -13.49647852 12.50000000 -23.25000000
v 23.25000000 12.50000000 13.49647852
v 23.03066046 -2.33428174 -12.01614416
v 23.25000000 12.50000000 -13.49647852
v 23.27437382 -1.74264356 -12.71151245
v -11.90352148 12.50000000 23.25000000
v -12.51235766 -1.61666983 23.27510072
v 13.49647852 12.50000000 23.25000000
v 12.99386926 -1.80609620 23.27505967
v -23.25000000 -1.39871351 -12.14612443
v -23.25000000 12.50000000 -13.49647852
v -23.24306196 -1.59139197 -13.24483364
v -23.25000000 -1.39871351 13.25387557
v -23.25000000 12.50000000 13.49647852
v -20.12305747 13.87322677 17.59907741
v 16.58489017 13.77459262 20.51489008
v 19.31599866 13.65704009 18.14418667
v -15.72813707 -12.64015976 15.61472696
v -16.00032373 -12.21565859 16.73078872
v -15.58899026 -9.77501879 18.40060066
v -15.55904017 -12.67409662 -15.22136581
v -15.58594752 -9.89901484 -18.27747930
v -15.99868408 -12.26500809 -16.66196242
v 15.75018031 -12.63110388 -15.67481770
v 16.00164866 -12.17774909 -16.76993846
v 15.56344091 -9.77399597 -18.37869567
v 15.68158150 -10.14014339 18.12989071
v -15.63500000 13.67320508 -20.88500000
v -15.63500000 13.69318517 -20.83676381
v -16.33738265 13.68939264 -20.84082317
v -20.08914040 13.84271056 -17.65904595
v 16.61256189 13.59636429 -20.89659387
v 15.63500000 13.67320508 -20.88500000
v 15.63500000 13.69318517 -20.83676381
v 20.88500000 13.67320508 -15.63500000
v 20.83676381 13.69318517 -15.63500000
v 20.77820116 13.69801306 -16.28709126
v 20.88500000 13.67320508 15.63500000
v 20.83676381 13.69318517 15.63500000
v 15.63500000 13.67320508 20.88500000
v 15.63500000 13.69318517 20.83676381
v 19.68607281 13.20900093 19.49258233
v 20.79981649 13.69520126 16.32908081
v -15.63500000 13.67320508 20.88500000
v -15.63500000 13.69318517 20.83676381
v -16.64962019 13.65842895 20.85673584
v -23.19211998 -1.83740469 -12.04829411
v -23.07063723 -2.12003768 13.41129238
v -23.22199484 -1.71762117 13.31089378
v -13.25227702 -1.79160400 -23.24121086
v -13.30849417 -2.50806412 23.00925720
v -13.59646329 12.49825476 -23.22320508
v -13.35386034 -1.40045875 -23.22320508
v -13.30563150 -1.39961691 -23.24318517
v -13.40859047 -2.31707551 -22.99993179
v -12.06916810 -2.46326103 -23.03598217
v 11.99185888 -2.26634611 -23.02354567
v 13.54823445 12.49909660 -23.24318517
v 13.59646329 12.49825476 -23.22320508
v 13.30563150 -1.39961691 -23.24318517
v 13.35386034 -1.40045875 -23.22320508
v 13.40869447 -2.00420539 -23.12203378
v -23.24318517 12.49909660 13.54823445
v -23.22320508 -1.40045875 13.35386034
v -22.56872202 -3.25346008 12.92562132
v -23.24318517 12.49909660 -13.54823445
v -23.24318517 -1.39961691 -13.30563150
v -23.22320508 -1.40045875 -13.35386034
v -23.03001589 -2.26506082 -13.36624588
v 13.59646329 12.49825476 23.22320508
v 13.30563150 -1.39961691 23.24318517
v 13.34574497 -2.46475950 22.92425347
v 13.33850053 -1.83539725 23.19982691
v 12.01526185 -2.31981704 23.04336999
v -13.54823445 12.49909660 23.24318517
v -13.59646329 12.49825476 23.22320508
v -13.30563150 -1.39961691 23.24318517
v -13.35386034 -1.40045875 23.22320508
v 23.24318517 12.49909660 13.54823445
v 23.22320508 12.49825476 13.59646329
v 23.24318517 -1.39961691 13.30563150
v 23.22320508 -1.40045875 13.35386034
v 23.27996110 -1.58247359 13.13207542
v 23.04708463 -2.27226700 13.39187560
v 23.22320508 12.49825476 -13.59646329
v 23.24318517 12.49909660 -13.54823445
v 23.22320508 -1.40045875 -13.35386034
v 23.24318517 -1.39961691 -13.30563150
v 23.06626454 -2.22308927 -13.39763264
v -23.15000000 12.67320508 -11.90352148
v -23.21408281 12.62478942 -11.85115865
v -23.24318517 12.55176381 -13.49647852
v -23.22320508 12.60000000 -13.49647852
v -23.15000000 12.67320508 -13.49647852
v -23.19140707 12.53109133 -13.66709656
v -23.24615706 12.52445550 -13.52688145
v -23.18788835 12.65006500 -13.58114928
v -20.96743563 12.64508063 -19.25230677
v -16.74639841 12.55046027 -21.88927464
v -13.54458135 12.70034596 -23.20396929
v 11.85413817 12.71106488 -23.19863577
v 19.82784851 12.68714167 -20.49744659
v 21.87185062 12.63961616 -16.65586375
v 23.21436732 12.58924949 -13.60349770
v 23.24615706 12.52997149 -13.52146090
v 23.22664364 12.60454936 -13.01280345
v 23.18585927 12.65817052 -11.82802821
v 23.23744220 12.56351530 11.83424122
v 23.21979977 12.56230644 13.60035301
v 23.24615706 12.52445550 13.52688145
v 21.88117913 12.63295509 16.66400865
v 20.18932214 12.67952424 20.30411127
v 13.60617513 12.65558165 23.19102164
v 13.56238760 12.58622777 23.22685005
v 11.88909264 12.53802084 23.24641444
v -11.87996351 12.60011494 23.23989967
v -13.51090736 12.53802084 23.24641444
v -23.24318517 12.55176381 13.49647852
v -23.22548952 12.60231606 13.54379395
v -23.24615706 12.52445550 13.52688145
v -23.21351398 12.53945837 13.62573351
v -23.19142136 12.64142136 11.90352148
v -23.24557310 12.55188838 11.87325386
v -17.42104378 12.69303466 -21.52620267
v -20.68537828 13.75983995 12.66937637
v -21.34254248 12.67194686 18.28361162
f 148 10 20
f 239 242 10
f 229 31 199
f 40 6 140
f 40 7 6
f 140 6 139
f 139 22 140
f 6 241 170
f 117 171 118
f 136 37 38
f 10 148 211
f 4 148 20
f 6 7 215
f 215 241 6
f 7 185 215
f 215 4 241
f 148 4 215
f 24 90 23
f 201 199 31
f 200 198 201
f 201 198 199
f 182 165 186
f 7 40 186
f 173 174 22
f 117 174 173
f 171 170 169
f 169 118 171
f 42 38 37
f 42 165 182
f 37 29 42
f 42 182 53
f 53 38 42
f 210 209 208
f 207 239 10
f 10 211 207
f 147 4 146
f 5 4 20
f 219 149 5
f 20 133 5
f 240 209 128
f 240 208 209
f 119 227 200
f 118 169 217
f 217 4 147
f 241 4 217
f 2 149 219
f 2 176 175
f 219 176 2
f 168 35 96
f 168 29 37
f 30 201 31
f 61 201 30
f 200 227 196
f 196 198 200
f 96 35 78
f 78 79 96
f 136 79 78
f 35 168 78
f 23 66 65
f 120 201 61
f 61 70 120
f 219 220 43
f 220 204 43
f 127 128 184
f 184 215 185
f 184 183 215
f 117 177 179
f 179 174 117
f 140 22 105
f 22 139 39
f 39 173 22
f 39 139 6
f 172 39 6
f 173 39 172
f 116 2 175
f 218 2 116
f 116 217 218
f 116 177 117
f 175 177 116
f 216 170 241
f 216 169 170
f 241 217 216
f 216 217 169
f 165 42 166
f 214 207 211
f 214 208 239
f 239 207 214
f 214 211 148
f 210 208 214
f 148 215 214
f 214 209 210
f 4 5 151
f 151 146 4
f 219 5 25
f 25 220 219
f 159 133 229
f 229 160 159
f 1 223 224
f 18 5 133
f 133 160 18
f 229 133 230
f 188 229 27
f 229 230 27
f 233 230 8
f 147 146 145
f 145 217 147
f 218 217 145
f 195 168 194
f 29 168 195
f 243 42 29
f 194 168 124
f 95 24 96
f 96 79 95
f 90 24 91
f 96 24 144
f 144 32 96
f 69 65 64
f 31 24 69
f 69 30 31
f 69 24 23
f 23 65 69
f 23 90 89
f 89 88 23
f 67 66 23
f 136 78 137
f 137 78 168
f 137 37 136
f 71 70 61
f 64 65 74
f 219 43 178
f 178 176 219
f 178 179 177
f 43 179 178
f 206 120 70
f 206 204 205
f 206 43 204
f 45 44 40
f 41 186 40
f 40 44 41
f 182 186 41
f 53 182 41
f 41 44 53
f 106 105 22
f 107 105 106
f 22 174 106
f 173 172 167
f 167 171 117
f 117 173 167
f 167 172 6
f 6 170 167
f 167 170 171
f 129 130 127
f 129 166 130
f 127 184 129
f 129 184 185
f 129 185 7
f 7 186 129
f 164 186 165
f 165 166 164
f 164 129 186
f 166 129 164
f 215 183 212
f 212 214 215
f 19 5 149
f 19 151 5
f 149 2 19
f 19 2 218
f 242 239 236
f 238 243 236
f 239 208 236
f 208 240 236
f 227 119 222
f 154 5 153
f 154 25 5
f 134 160 133
f 133 159 134
f 134 159 160
f 228 160 229
f 228 1 160
f 199 197 228
f 229 199 228
f 225 1 227
f 223 1 225
f 227 222 225
f 225 222 223
f 224 223 152
f 152 154 153
f 231 230 233
f 231 27 230
f 157 230 133
f 218 145 150
f 150 19 218
f 151 19 150
f 123 124 125
f 181 166 42
f 42 243 181
f 130 166 181
f 181 243 238
f 181 180 130
f 238 180 181
f 26 243 29
f 29 195 26
f 194 124 234
f 124 123 234
f 94 93 24
f 24 95 94
f 94 81 93
f 24 93 92
f 92 91 24
f 83 91 92
f 32 144 28
f 28 189 32
f 28 24 31
f 28 144 24
f 28 31 229
f 191 168 96
f 96 32 191
f 32 189 191
f 63 69 64
f 85 89 90
f 3 88 87
f 34 137 168
f 34 168 37
f 37 137 34
f 142 71 72
f 107 106 142
f 75 65 66
f 75 74 65
f 120 206 122
f 200 201 122
f 201 120 122
f 122 206 205
f 46 45 40
f 46 40 140
f 140 47 46
f 12 11 52
f 45 46 55
f 136 38 55
f 55 56 136
f 47 56 55
f 55 46 47
f 136 56 57
f 140 105 104
f 104 103 140
f 104 105 107
f 213 212 183
f 214 212 213
f 209 214 213
f 128 209 213
f 213 184 128
f 183 184 213
f 237 131 130
f 130 180 237
f 237 180 238
f 238 236 237
f 121 119 200
f 121 222 119
f 200 122 121
f 121 122 205
f 202 204 220
f 226 228 197
f 1 228 226
f 197 196 226
f 226 196 227
f 227 1 226
f 160 1 155
f 155 1 224
f 224 152 155
f 232 231 233
f 125 231 232
f 233 234 232
f 188 27 187
f 27 231 187
f 187 125 188
f 187 231 125
f 233 8 9
f 9 234 233
f 158 157 133
f 243 26 132
f 132 236 243
f 242 236 132
f 20 10 132
f 10 242 132
f 193 26 195
f 193 9 26
f 234 9 193
f 81 94 80
f 80 79 136
f 136 81 80
f 80 95 79
f 80 94 95
f 83 92 82
f 136 83 82
f 82 81 136
f 93 81 82
f 82 92 93
f 126 124 168
f 168 191 126
f 188 125 126
f 125 124 126
f 126 191 189
f 72 71 62
f 62 63 72
f 62 71 61
f 69 63 62
f 61 30 62
f 30 69 62
f 72 63 73
f 73 142 72
f 74 142 73
f 64 74 73
f 73 63 64
f 84 83 136
f 84 85 90
f 90 91 84
f 84 91 83
f 87 88 86
f 88 89 86
f 89 85 86
f 23 88 68
f 88 3 68
f 68 67 23
f 68 3 15
f 68 15 14
f 14 77 68
f 68 77 67
f 87 11 16
f 16 3 87
f 13 115 14
f 114 115 97
f 70 71 33
f 71 142 33
f 33 142 43
f 33 206 70
f 43 206 33
f 36 179 43
f 43 142 36
f 174 179 36
f 36 106 174
f 107 142 108
f 108 104 107
f 103 104 108
f 66 67 76
f 76 75 66
f 67 77 76
f 141 142 74
f 74 75 141
f 75 76 141
f 141 76 77
f 141 114 113
f 141 77 14
f 14 115 141
f 115 114 141
f 60 52 11
f 59 51 60
f 51 52 60
f 138 51 140
f 138 52 51
f 45 55 54
f 53 44 54
f 44 45 54
f 54 38 53
f 54 55 38
f 48 47 140
f 48 56 47
f 48 57 56
f 98 114 97
f 113 114 98
f 98 138 140
f 97 138 98
f 101 100 140
f 240 131 235
f 131 237 235
f 235 236 240
f 235 237 236
f 203 121 205
f 222 121 203
f 221 202 220
f 220 25 221
f 221 203 202
f 222 203 221
f 223 222 221
f 25 154 221
f 221 152 223
f 154 152 221
f 153 5 156
f 5 18 156
f 156 18 160
f 160 155 156
f 26 9 163
f 163 132 26
f 194 234 192
f 234 193 192
f 189 28 190
f 190 126 189
f 188 126 190
f 190 229 188
f 190 28 229
f 15 3 21
f 21 16 11
f 14 15 21
f 21 11 12
f 3 16 21
f 21 13 14
f 12 52 21
f 115 13 21
f 97 115 21
f 21 138 97
f 52 138 21
f 143 142 106
f 106 36 143
f 143 36 142
f 135 86 85
f 135 60 11
f 135 84 136
f 85 84 135
f 59 60 135
f 135 11 87
f 87 86 135
f 135 58 59
f 136 57 135
f 57 58 135
f 50 51 59
f 59 58 50
f 140 51 50
f 49 58 57
f 57 48 49
f 49 50 58
f 49 48 140
f 140 50 49
f 113 98 99
f 140 100 99
f 99 98 140
f 140 103 102
f 102 101 140
f 101 102 110
f 161 9 8
f 161 163 9
f 161 8 230
f 230 157 161
f 111 110 142
f 100 101 111
f 101 110 111
f 109 110 102
f 103 108 109
f 109 102 103
f 109 108 142
f 142 110 109
f 162 158 133
f 163 161 162
f 142 141 112
f 112 111 142
f 112 141 113
f 113 99 112
f 112 99 100
f 100 111 112
f 17 133 20
f 17 162 133
f 20 132 17
f 132 163 17
f 163 162 17
f 196 197 199
f 199 198 196
f 117 118 116
f 118 217 116
f 131 128 127
f 127 130 131
f 131 240 128
f 175 176 178
f 178 177 175
f 150 145 146
f 146 151 150
f 232 234 123
f 232 123 125
f 204 202 203
f 205 204 203
f 156 155 152
f 156 152 153
f 192 193 195
f 192 195 194
f 162 161 157
f 157 158 162

