# https://github.com/mikedh/trimesh
v 2.08365233 -0.00664404 2.20801773
v -0.94794987 1.83778519 2.20949328
v 0.00000000 2.10500923 2.19823481
v 1.63073865 1.30655190 2.20559722
v -2.01188040 0.53976333 2.20721691
v -1.05250461 1.82299147 2.19823481
v -0.52942125 2.02820711 2.20338517
v -2.08365233 0.00664404 2.20801773
v -2.06191234 0.27242865 2.20786798
v -1.92216402 0.79950073 2.20726955
v -1.80380097 1.04516780 2.20675384
v -1.65369664 1.26861729 2.20691861
v -1.46638338 1.47887743 2.20719515
v -1.26933870 1.66723752 2.20318143
v -1.09244499 1.77702387 2.20757669
v -0.74015998 1.95414074 2.20652415
v -0.31416295 2.06428778 2.20710615
v -0.10159340 2.08034693 2.20762686
v 0.24699152 2.07401979 2.20683087
v 0.50811473 2.02519427 2.20688023
v 0.79247549 1.94095974 2.20319906
v 0.82450125 1.90604148 2.20880316
v 1.03654342 1.82248871 2.20305866
v 1.22036296 1.70345374 2.20401469
v 1.22032093 1.68433059 2.20799213
v 1.43832313 1.51366240 2.20592130
v 1.78878346 1.07754930 2.20591185
v 1.91636554 0.82560752 2.20615436
v 2.01060011 0.55977062 2.20612976
v 2.06537796 0.28235599 2.20650306
v 3.94826776 0.00000000 0.35368436
v 3.91448978 0.51535236 0.35368436
v 3.13237141 2.40355312 0.35368436
v 2.79442187 2.79446267 0.34695127
v 2.40513753 3.13602151 0.34649474
v 1.03191326 3.82150180 0.33287177
v 3.95472739 0.00000000 0.33872895
v 3.95867304 0.00000000 0.32292316
v 3.96000000 0.00000000 0.30668646
v -3.96000000 0.00000000 0.30668646
v -3.92311635 0.53921993 0.30668646
v -3.82346530 1.02797486 0.32677543
v -3.65310528 1.52917466 0.32325449
v -3.38350084 2.05755244 0.30668646
v -3.07181671 2.49910826 0.30668646
v -2.70291045 2.89411042 0.30668646
v -2.28365408 3.23520078 0.30668646
v 0.26786848 3.95190346 0.31397019
v 1.32378200 3.73316989 0.31410095
v 1.81968550 3.51814790 0.31425691
v 2.28174948 3.23755611 0.31448979
v 2.70291045 2.89411042 0.30668646
v 3.07181671 2.49910826 0.30668646
v -3.94826776 0.00000000 0.35368436
v -3.95472739 0.00000000 0.33872895
v -3.95867304 0.00000000 0.32292316
v -0.51198832 3.92523801 0.33264977
v -1.03191326 3.82150180 0.33287177
v -1.51174599 3.65840521 0.33236222
v -3.91448978 0.51535236 0.35368436
v -3.92089415 0.51619551 0.33872895
v -3.92480605 0.51671052 0.32292316
v -3.42718061 1.97863730 0.33343085
v -3.14038460 2.40902814 0.33144824
v -2.80034161 2.79694286 0.33282559
v -2.38051699 3.16444446 0.32971118
v -1.98229160 3.42604879 0.33344271
v -1.82158553 3.51725135 0.31421614
v -1.32578613 3.73237186 0.31422818
v -0.80553241 3.87826164 0.31394545
v -0.27016249 3.95165818 0.31407165
v -0.00000000 3.95851902 0.33209901
v 0.51198832 3.92523801 0.33264977
v 0.80327948 3.87864920 0.31400819
v 1.51174599 3.65840521 0.33236222
v 1.98229160 3.42604879 0.33344271
v 2.40988746 3.14062648 0.32292316
v 2.70200473 2.89314063 0.32292316
v 2.79920455 2.79920455 0.32292316
v 3.07078738 2.49827083 0.32292316
v 3.38912101 2.04304977 0.33588047
v 3.63342531 1.56653712 0.33643519
v 3.81089513 1.06471805 0.33665037
v 3.92186676 0.54041018 0.32393512
v -3.86000000 0.00000000 -0.00000000
v -3.82404775 0.52560327 -0.00000000
v -3.71686073 1.04141554 -0.00000000
v -3.54043562 1.53782821 -0.00000000
v -3.29805890 2.00559405 -0.00000000
v -2.99424558 2.43599947 -0.00000000
v -2.63465513 2.82102682 -0.00000000
v -2.22598604 3.15350379 -0.00000000
v -1.77585105 3.42723694 -0.00000000
v -1.29263530 3.63712716 -0.00000000
v -0.78534021 3.77926458 -0.00000000
v -0.26341572 3.85100145 -0.00000000
v 0.26341572 3.85100145 -0.00000000
v 0.78534021 3.77926458 -0.00000000
v 1.29263530 3.63712716 -0.00000000
v 1.77585105 3.42723694 -0.00000000
v 2.22598604 3.15350379 -0.00000000
v 2.63465513 2.82102682 -0.00000000
v 2.99424558 2.43599947 -0.00000000
v 3.29805890 2.00559405 -0.00000000
v 3.54043562 1.53782821 -0.00000000
v 3.71686073 1.04141554 -0.00000000
v 3.82404775 0.52560327 -0.00000000
v 3.86000000 0.00000000 -0.00000000
v -3.91000000 0.00000000 0.01339746
v -3.94660254 0.00000000 0.05000000
v -3.96000000 0.00000000 0.10000000
v 3.96000000 0.00000000 0.10000000
v 3.92311635 0.53921993 0.10000000
v 3.81315246 1.06839521 0.10000000
v 3.63215675 1.57766832 0.10000000
v 3.38350084 2.05755244 0.10000000
v 3.07181671 2.49910826 0.10000000
v 2.70291045 2.89411042 0.10000000
v 2.28365408 3.23520078 0.10000000
v 1.82185755 3.51602546 0.10000000
v 1.32612326 3.73135325 0.10000000
v 0.80568581 3.87717299 0.10000000
v 0.27023996 3.95076833 0.10000000
v -0.27023996 3.95076833 0.10000000
v -0.80568581 3.87717299 0.10000000
v -1.32612326 3.73135325 0.10000000
v -1.82185755 3.51602546 0.10000000
v -2.28365408 3.23520078 0.10000000
v -2.70291045 2.89411042 0.10000000
v -3.07181671 2.49910826 0.10000000
v -3.38350084 2.05755244 0.10000000
v -3.63215675 1.57766832 0.10000000
v -3.81315246 1.06839521 0.10000000
v -3.92311635 0.53921993 0.10000000
v 3.91000000 0.00000000 0.01339746
v 3.94660254 0.00000000 0.05000000
v 3.87358205 0.53241160 0.01339746
v 3.90984367 0.53739564 0.05000000
v 3.76500659 1.05490538 0.01339746
v 3.80025181 1.06478062 0.05000000
v 3.58629619 1.55774826 0.01339746
v 3.61986845 1.57233075 0.05000000
v 3.34077987 2.03157324 0.01339746
v 3.37205379 2.05059134 0.05000000
v 3.03303115 2.46755386 0.01339746
v 3.06142415 2.49065328 0.05000000
v 2.66878279 2.85756862 0.01339746
v 2.69376597 2.88431907 0.05000000
v 2.25482006 3.19435228 0.01339746
v 2.27592802 3.22425546 0.05000000
v 1.79885430 3.47163120 0.01339746
v 1.81569385 3.50413006 0.05000000
v 1.30937928 3.68424021 0.01339746
v 1.32163673 3.71872935 0.05000000
v 0.79551301 3.82821878 0.01339746
v 0.80296002 3.86405575 0.05000000
v 0.26682784 3.90088489 0.01339746
v 0.26932568 3.93740210 0.05000000
v -0.26682784 3.90088489 0.01339746
v -0.26932568 3.93740210 0.05000000
v -0.79551301 3.82821878 0.01339746
v -0.80296002 3.86405575 0.05000000
v -1.30937928 3.68424021 0.01339746
v -1.32163673 3.71872935 0.05000000
v -1.79885430 3.47163120 0.01339746
v -1.81569385 3.50413006 0.05000000
v -2.25482006 3.19435228 0.01339746
v -2.27592802 3.22425546 0.05000000
v -2.66878279 2.85756862 0.01339746
v -2.69376597 2.88431907 0.05000000
v -3.03303115 2.46755386 0.01339746
v -3.06142415 2.49065328 0.05000000
v -3.34077987 2.03157324 0.01339746
v -3.37205379 2.05059134 0.05000000
v -3.58629619 1.55774826 0.01339746
v -3.61986845 1.57233075 0.05000000
v -3.76500659 1.05490538 0.01339746
v -3.80025181 1.06478062 0.05000000
v -3.87358205 0.53241160 0.01339746
v -3.90984367 0.53739564 0.05000000
v -1.56001348 0.63356129 -6.34913315
v -0.79731014 1.48361026 -6.34926525
v -0.56414982 1.58736546 -6.34862323
v 1.13083013 1.24396092 -6.34967255
v 1.35244968 0.97944252 -6.35000533
v 1.60975492 0.49246445 -6.34922975
v 1.66737528 0.11405159 -6.35001080
v -1.69386714 -0.11433589 -6.34641482
v -1.72205405 0.00000000 -6.33331491
v -0.12026656 1.71811758 -6.33338364
v -1.47412465 0.89218181 -6.33271826
v -1.58082164 0.68366292 -6.33338364
v -1.65918987 0.46204008 -6.33338365
v 1.72231952 0.00273770 -6.33338364
v 1.69089383 0.13475905 -6.34641719
v 1.70590497 0.23723468 -6.33338364
v 1.65771263 0.46731242 -6.33338365
v 1.55216050 0.67419845 -6.34659258
v 1.57864023 0.68868503 -6.33338364
v 1.47016076 0.89722871 -6.33338365
v 1.37559341 0.99104307 -6.34677835
v 1.33429497 1.08905876 -6.33338364
v 1.17357380 1.26060168 -6.33338364
v 0.97589336 1.38252592 -6.34659258
v 0.99099116 1.40866198 -6.33338365
v 0.78994825 1.53048155 -6.33338365
v 0.67756708 1.55015361 -6.34747700
v 0.57319729 1.62374636 -6.33369745
v 0.35416752 1.64683947 -6.34900900
v 0.34701378 1.68778355 -6.33271825
v 0.11480392 1.71849123 -6.33338364
v -0.01840808 1.69170887 -6.34786711
v -0.33073057 1.65176859 -6.34900481
v -0.35309668 1.68573864 -6.33338365
v -0.58009111 1.62129629 -6.33369745
v -0.79595736 1.52822895 -6.33271826
v -1.06671172 1.31567255 -6.34692287
v -0.99193668 1.40687190 -6.33386124
v -1.17586122 1.25903994 -6.33328272
v -1.29049837 1.08254203 -6.34878784
v -1.33905519 1.08334112 -6.33329345
v -1.44068816 0.87610187 -6.34850818
v -1.62950694 0.45656643 -6.34659258
v -1.67302241 0.18941469 -6.34913707
v -1.70640465 0.23084742 -6.33369745
v 2.08154335 -0.00000000 -5.95261321
v 2.06151787 0.28415573 -5.95394129
v 2.00473464 0.55969138 -5.95193725
v 1.77922475 1.07986533 -5.95343620
v 1.61578361 1.31204373 -5.95193725
v 1.42145472 1.52067842 -5.95198431
v 0.69519456 1.96186644 -5.95193726
v 0.42243935 2.03800893 -5.95293598
v -0.14307406 2.07640680 -5.95293599
v -0.42447880 2.03758513 -5.95293597
v -1.20170551 1.69930976 -5.95343624
v -1.42207750 1.51983914 -5.95193725
v -1.61516842 1.31269433 -5.95293596
v -1.77886984 1.08053575 -5.95293596
v -1.90943429 0.82824882 -5.95293598
v -2.00442957 0.56053322 -5.95293595
v -2.06208614 0.28237591 -5.95293599
v 2.06548323 -0.00206814 -5.99034235
v -0.94993928 1.83480464 -5.98960487
v 1.76586354 1.07142489 -5.99034233
v 1.89535345 0.82251326 -5.98960485
v 1.99032164 0.55579792 -5.98920033
v -2.08128484 -0.00179872 -5.95343621
v -2.06499996 0.00000000 -5.99117637
v -2.04679143 0.28202394 -5.98960488
v -1.98932526 0.55810189 -5.98960487
v -1.89480172 0.82378346 -5.98960485
v -1.76498161 1.07411950 -5.98960485
v -1.60228323 1.30444672 -5.98960485
v -1.41081955 1.51061888 -5.98823049
v -1.19084483 1.68704279 -5.99117638
v -0.95847187 1.84750293 -5.95293600
v -0.69797635 1.96080709 -5.95293596
v -0.69125229 1.94706523 -5.98960487
v -0.41968858 2.02305566 -5.98960487
v -0.14030687 2.06136041 -5.98960485
v 0.14099590 2.07654895 -5.95293599
v 0.14168849 2.06126591 -5.98960485
v 0.42104447 2.02277391 -5.98960487
v 0.69370916 1.94655058 -5.98920033
v 0.95592933 1.84876957 -5.95343624
v 0.95209289 1.83296056 -5.99034235
v 1.19941112 1.70098452 -5.95293601
v 1.19206206 1.68756650 -5.98960488
v 1.41074943 1.50952932 -5.98960487
v 1.60411501 1.30273046 -5.98920031
v 1.91012614 0.82664211 -5.95278364
v 2.04721865 0.27806825 -5.98971177
v -1.19952316 -0.04726919 0.66300014
v -1.23893677 -0.25466135 0.66300005
v -1.32566357 -0.43840830 0.66299959
v -1.20076143 0.04945627 1.93634820
v -1.20792280 -0.12135188 1.94358318
v -1.24467633 -0.26652814 1.97787782
v -1.35307542 -0.47837768 2.07136191
v -1.41888552 -0.55707348 2.12300780
v 1.23810485 0.95646084 0.66299971
v 1.45059255 0.83750000 2.21000000
v 1.40096121 0.89749607 2.20355904
v 1.33516698 0.93843205 2.18515653
v 1.25372039 0.95682898 2.15324285
v 1.48241152 0.71875000 2.19410346
v 1.47427688 0.78012778 2.20594777
v 1.47645175 0.77162125 0.66300000
v 1.45887156 0.82183903 0.66300000
v 1.41354961 0.88794222 0.66300037
v 1.32757072 0.94339441 0.66300110
v 1.44938334 -0.59705577 0.66299963
v 1.41888552 -0.55707348 2.12300780
v 1.48241152 -0.71875000 2.19410346
v 1.46587168 -0.63203784 2.16457309
v 1.48186700 -0.68857389 0.66299735
v 1.41888552 0.55707348 2.12300780
v 1.46589901 0.63180264 2.16452762
v 1.67500000 0.00000000 2.21000000
v 1.66067014 0.21863137 2.21000000
v 1.61415035 0.43896443 2.20991419
v 1.54749822 0.64099475 2.21000000
v 1.19976970 0.04181017 1.93564727
v 1.21703464 0.16507816 1.95218084
v 1.26203211 0.31553305 1.99363661
v 1.35188663 0.47677650 2.07040888
v -2.08280000 0.00000000 0.00000000
v 2.08280000 0.00000000 0.00000000
v 2.06340069 0.28360790 0.00000000
v 2.00556413 0.56193271 0.00000000
v 1.91036770 0.82978979 0.00000000
v 1.77958474 1.08218945 0.00000000
v 1.61565148 1.31442997 0.00000000
v 1.42162169 1.52218515 0.00000000
v 1.20110977 1.70158489 0.00000000
v 0.95822346 1.84928733 0.00000000
v 0.69748726 1.96254105 0.00000000
v 0.42375818 2.03923634 0.00000000
v 0.14213530 2.07794451 0.00000000
v -0.14213530 2.07794451 0.00000000
v -0.42375818 2.03923634 0.00000000
v -0.69748726 1.96254105 0.00000000
v -0.95822346 1.84928733 0.00000000
v -1.20110977 1.70158489 0.00000000
v -1.42162169 1.52218515 0.00000000
v -1.61565148 1.31442997 0.00000000
v -1.77958474 1.08218945 0.00000000
v -1.91036770 0.82978979 0.00000000
v -2.00556413 0.56193271 0.00000000
v -2.06340069 0.28360790 0.00000000
v -3.91448978 -0.51535236 0.35368436
v -3.81373380 -1.02188689 0.35368436
v -3.64772377 -1.51093666 0.35368436
v -3.41930018 -1.97413388 0.35368436
v -3.13237141 -2.40355312 0.35368436
v -2.79184690 -2.79184690 0.35368436
v -2.40513753 -3.13602151 0.34649474
v -1.03191326 -3.82150180 0.33287177
v -0.00000000 -3.67252499 0.80502781
v -0.00000000 -3.34543487 1.22066832
v -0.00000000 -2.97157060 1.59479462
v -0.00000000 -2.55615937 1.92217588
v -0.00000000 -2.10500923 2.19823481
v -1.05250461 -1.82299147 2.19823481
v -1.28144842 -1.67001610 2.19823481
v -1.67001610 -1.28144842 2.19823481
v 0.00000000 3.67252499 0.80502781
v 0.00000000 3.34543487 1.22066832
v 0.00000000 2.97157060 1.59479462
v 0.00000000 2.55615937 1.92217588
v -0.80193127 -3.68238494 0.66083777
v -0.80193127 -3.19076559 1.28197998
v -1.57787681 -3.28194093 0.84901946
v -0.80193127 -2.59575286 1.80492079
v -1.57787681 -2.76307229 1.39532102
v -2.30269293 -2.78054243 0.89235646
v -1.57787681 -2.15466921 1.83974849
v -2.30269293 -2.26202795 1.34806499
v -1.57787681 -1.47644636 2.16790064
v -2.95289272 -2.21801540 0.77514417
v -2.30269293 -1.67021486 1.70343070
v -2.95289272 -1.72962883 1.13190174
v -2.30269293 -1.02428022 1.94693833
v -3.50740714 -1.63748373 0.49308941
v -2.95289272 -1.18519547 1.39532102
v -2.30269293 -0.34515487 2.07069729
v -3.50740714 -1.20906979 0.75033891
v -2.95289272 -0.60235711 1.55686621
v -2.30269293 0.34515487 2.07069729
v -1.57787681 1.47644636 2.16790064
v -0.80193127 2.59575286 1.80492079
v -3.50740714 -0.74147722 0.92661427
v -2.95289272 -0.00000000 1.61130259
v -2.30269293 1.02428022 1.94693833
v -1.57787681 2.15466921 1.83974849
v -0.80193127 3.19076559 1.28197998
v -3.50740714 -0.24985787 1.01620347
v -2.95289272 0.60235711 1.55686621
v -2.30269293 1.67021486 1.70343070
v -1.57787681 2.76307229 1.39532102
v -0.80193127 3.68238494 0.66083777
v -3.50740714 0.24985787 1.01620347
v -2.95289272 1.18519547 1.39532102
v -2.30269293 2.26202795 1.34806499
v -1.57787681 3.28194093 0.84901946
v -3.50740714 0.74147722 0.92661427
v -2.95289272 1.72962883 1.13190174
v -2.30269293 2.78054243 0.89235646
v -3.50740714 1.20906979 0.75033891
v -2.95289272 2.21801540 0.77514417
v -3.50740714 1.63748373 0.49308941
v -1.98768029 -0.55704469 2.20975446
v -1.76374217 -1.07297913 2.20973517
v -1.40906122 -1.51087401 2.20964634
v -0.94794987 -1.83778519 2.20949328
v -0.68977156 -1.94948497 2.20948623
v 0.51866711 -2.00295717 2.20972976
v 1.18875009 -1.69193974 2.20950255
v 1.59637465 -1.29874711 2.21000000
v 1.75835198 -1.06927752 2.21000000
v 1.88757453 -0.81988932 2.21000000
v 1.98518715 -0.55188964 2.21002178
v -1.45059255 -0.83750000 2.21000000
v -1.32886684 -1.01967539 2.21000000
v -1.18440386 -1.18440386 2.21000000
v -0.93258672 -1.39564352 2.20999101
v -0.51756519 -1.59851603 2.20999526
v -0.21863137 -1.66067014 2.21000000
v -0.00000000 -1.67500000 2.21000000
v 0.21863137 -1.66067014 2.21000000
v 0.43352190 -1.61792576 2.21000000
v 0.74236933 -1.50546558 2.20999101
v 1.12557296 -1.24748256 2.20999526
v 1.32886684 -1.01967539 2.21000000
v 1.45059255 -0.83750000 2.21000000
v 1.54749822 -0.64099475 2.21000000
v 1.61792576 -0.43352190 2.21000000
v 1.66067014 -0.21863137 2.21000000
v 1.32886684 1.01967539 2.21000000
v 1.12556988 1.24748513 2.20999527
v 0.74236933 1.50546558 2.20999101
v 0.43352190 1.61792576 2.21000000
v 0.21863137 1.66067014 2.21000000
v 0.00000000 1.67500000 2.21000000
v -0.21863137 1.66067014 2.21000000
v -0.43352190 1.61792576 2.21000000
v -0.64099475 1.54749822 2.21000000
v -0.93258672 1.39564352 2.20999101
v -1.18440386 1.18440386 2.21000000
v -1.32886684 1.01967539 2.21000000
v -1.45059255 0.83750000 2.21000000
v -1.54749822 0.64099475 2.21000000
v -1.64313878 0.35102949 2.20999527
v -1.67500000 0.00000000 2.21000000
v -1.64313810 -0.35103339 2.20999526
v -1.54749822 -0.64099475 2.21000000
v 0.51447104 -3.91828768 0.34708532
v 1.02488883 -3.81666310 0.34716578
v 1.51174599 -3.65840521 0.33236222
v 1.97690050 -3.42178762 0.34733872
v 2.40200286 -3.14641525 0.33163750
v 3.42718061 -1.97863730 0.33343085
v 3.65709831 -1.51093423 0.33407098
v 3.82183929 -1.02040240 0.33774614
v 3.91448978 -0.51535236 0.35368436
v 2.08700058 -0.27475884 2.19823481
v 1.93981014 -0.80237144 2.20105898
v 1.28144842 -1.67001610 2.19823481
v 0.80555216 -1.94477494 2.19823481
v 0.52942125 -2.02820711 2.20338517
v 3.50740714 -1.63748373 0.49308941
v 2.95289272 -2.21801540 0.77514417
v 3.50740714 -1.20906979 0.75033891
v 2.30269293 -2.78054243 0.89235646
v 2.95289272 -1.72962883 1.13190174
v 3.50740714 -0.74147722 0.92661427
v 1.57787681 -3.28194093 0.84901946
v 2.30269293 -2.26202795 1.34806499
v 2.95289272 -1.18519547 1.39532102
v 3.50740714 -0.24985787 1.01620347
v 0.80193127 -3.68238494 0.66083777
v 1.57787681 -2.76307229 1.39532102
v 2.30269293 -1.67021486 1.70343070
v 2.95289272 -0.60235711 1.55686621
v 3.50740714 0.24985787 1.01620347
v 0.80193127 -3.19076559 1.28197998
v 1.57787681 -2.15466921 1.83974849
v 2.30269293 -1.02428022 1.94693833
v 2.95289272 -0.00000000 1.61130259
v 3.50740714 0.74147722 0.92661427
v 0.80193127 -2.59575286 1.80492079
v 1.57787681 -1.47644636 2.16790064
v 2.30269293 -0.34515487 2.07069729
v 2.95289272 0.60235711 1.55686621
v 3.50740714 1.20906979 0.75033891
v 2.30269293 0.34515487 2.07069729
v 2.95289272 1.18519547 1.39532102
v 3.50740714 1.63748373 0.49308941
v 2.30269293 1.02428022 1.94693833
v 2.95289272 1.72962883 1.13190174
v 2.30269293 1.67021486 1.70343070
v 2.95289272 2.21801540 0.77514417
v 1.57787681 1.47644636 2.16790064
v 2.30269293 2.26202795 1.34806499
v 1.57787681 2.15466921 1.83974849
v 2.30269293 2.78054243 0.89235646
v 1.57787681 2.76307229 1.39532102
v 0.80193127 2.59575286 1.80492079
v 1.57787681 3.28194093 0.84901946
v 0.80193127 3.19076559 1.28197998
v 0.80193127 3.68238494 0.66083777
v -3.92311635 -0.53921993 0.10000000
v -3.81315246 -1.06839521 0.10000000
v -3.63215675 -1.57766832 0.10000000
v -3.38350084 -2.05755244 0.10000000
v -3.07181671 -2.49910826 0.10000000
v -2.70291045 -2.89411042 0.10000000
v -2.28365408 -3.23520078 0.10000000
v -1.82185755 -3.51602546 0.10000000
v -1.32612326 -3.73135325 0.10000000
v -0.80568581 -3.87717299 0.10000000
v -0.27023996 -3.95076833 0.10000000
v 0.27023996 -3.95076833 0.10000000
v 0.80568581 -3.87717299 0.10000000
v 1.32612326 -3.73135325 0.10000000
v 1.82185755 -3.51602546 0.10000000
v 2.28365408 -3.23520078 0.10000000
v 2.70291045 -2.89411042 0.10000000
v 3.07181671 -2.49910826 0.10000000
v 3.38350084 -2.05755244 0.10000000
v 3.63215675 -1.57766832 0.10000000
v 3.81315246 -1.06839521 0.10000000
v 3.92311635 -0.53921993 0.10000000
v 3.92311635 -0.53921993 0.30668646
v 3.81315246 -1.06839521 0.30668646
v 3.63215675 -1.57766832 0.30668646
v 3.38350084 -2.05755244 0.30668646
v 3.07181671 -2.49910826 0.30668646
v 2.70291045 -2.89411042 0.30668646
v 2.28365408 -3.23520078 0.30668646
v 1.82185755 -3.51602546 0.30668646
v 1.32793572 -3.73170503 0.31416369
v -0.26786848 -3.95190346 0.31397019
v -0.80568581 -3.87717299 0.30668646
v -1.32378200 -3.73316989 0.31410095
v -1.81968550 -3.51814790 0.31425691
v -2.28174948 -3.23755611 0.31448979
v -2.70291045 -2.89411042 0.30668646
v -3.92172757 -0.53983190 0.32469145
v 3.82404775 -0.52560327 -0.00000000
v 3.71686073 -1.04141554 -0.00000000
v 3.54043562 -1.53782821 -0.00000000
v 3.29805890 -2.00559405 -0.00000000
v 2.99424558 -2.43599947 -0.00000000
v 2.63465513 -2.82102682 -0.00000000
v 2.22598604 -3.15350379 -0.00000000
v 1.77585105 -3.42723694 -0.00000000
v 1.29263530 -3.63712716 -0.00000000
v 0.78534021 -3.77926458 -0.00000000
v 0.26341572 -3.85100145 -0.00000000
v -0.26341572 -3.85100145 -0.00000000
v -0.78534021 -3.77926458 -0.00000000
v -1.29263530 -3.63712716 -0.00000000
v -1.77585105 -3.42723694 -0.00000000
v -2.22598604 -3.15350379 -0.00000000
v -2.63465513 -2.82102682 -0.00000000
v -2.99424558 -2.43599947 -0.00000000
v -3.29805890 -2.00559405 -0.00000000
v -3.54043562 -1.53782821 -0.00000000
v -3.71686073 -1.04141554 -0.00000000
v -3.82404775 -0.52560327 -0.00000000
v -2.06340069 -0.28360790 0.00000000
v -2.00556413 -0.56193271 0.00000000
v -1.91036770 -0.82978979 0.00000000
v -1.77958474 -1.08218945 0.00000000
v -1.61565148 -1.31442997 0.00000000
v -1.42162169 -1.52218515 0.00000000
v -1.20110977 -1.70158489 0.00000000
v -0.95822346 -1.84928733 0.00000000
v -0.69748726 -1.96254105 0.00000000
v -0.42375818 -2.03923634 0.00000000
v -0.14213530 -2.07794451 0.00000000
v 0.14213530 -2.07794451 0.00000000
v 0.42375818 -2.03923634 0.00000000
v 0.69748726 -1.96254105 0.00000000
v 0.95822346 -1.84928733 0.00000000
v 1.20110977 -1.70158489 0.00000000
v 1.42162169 -1.52218515 0.00000000
v 1.61565148 -1.31442997 0.00000000
v 1.77958474 -1.08218945 0.00000000
v 1.91036770 -0.82978979 0.00000000
v 2.00556413 -0.56193271 0.00000000
v 2.06340069 -0.28360790 0.00000000
v -2.00386759 -0.56253896 -5.95293596
v -1.90860440 -0.83015941 -5.95293598
v -1.77735557 -1.08293905 -5.95343620
v -1.61274556 -1.31566363 -5.95278362
v -1.41925003 -1.52247981 -5.95193725
v -1.20072994 -1.69966114 -5.95394131
v -0.96002254 -1.84669319 -5.95278366
v -0.69867474 -1.96051101 -5.95343620
v -0.42536660 -2.03746869 -5.95193727
v 0.42072547 -2.03835941 -5.95278364
v 0.69528499 -1.96171573 -5.95343620
v 0.95586026 -1.84893120 -5.95193730
v 1.19797878 -1.70198879 -5.95278366
v 1.41857484 -1.52301164 -5.95278361
v 1.61274556 -1.31566363 -5.95278362
v 1.77687387 -1.08380731 -5.95278362
v 1.90790238 -0.83176170 -5.95278364
v 2.00339027 -0.56422197 -5.95278362
v 2.06155881 -0.28617182 -5.95278364
v 1.61190327 -0.45163408 -6.35001133
v 1.33123117 -1.03095368 -6.34913315
v 1.06946344 -1.28246892 -6.35000333
v -0.00000000 -1.67130432 -6.35000648
v -0.73817133 -1.51383715 -6.34900885
v -1.20647815 -1.15447149 -6.35000666
v -1.52797221 -0.70844955 -6.34900885
v -1.63068319 -0.35953618 -6.35000666
v -1.70700140 -0.22987609 -6.33329345
v -1.47409808 -0.89091615 -6.33329346
v -0.99417874 -1.40843042 -6.33220588
v -0.34773585 -1.68685263 -6.33338365
v 1.47316374 -0.89156934 -6.33369746
v 1.58188000 -0.68314536 -6.33271824
v 1.65918987 -0.46204008 -6.33338365
v 1.72090998 -0.23653363 -6.32071068
v 2.04679143 -0.28202394 -5.98960488
v 0.94911581 -1.83561182 -5.98920033
v 0.14030687 -2.06136041 -5.98960485
v -1.19084104 -1.68903534 -5.98864595
v -1.40916217 -1.51147396 -5.98920033
v -1.60228322 -1.30444673 -5.98960485
v -1.76371440 -1.07495901 -5.99034233
v -1.89366316 -0.82611506 -5.98971175
v -1.98851479 -0.56056680 -5.98971176
v -1.40096121 -0.89749607 2.20355904
v -1.33516698 -0.93843205 2.18515653
v -1.26413679 -0.95543667 2.15779197
v -1.10158005 -0.93758628 2.07813562
v -0.97065630 -0.93046336 2.01920227
v -0.71982437 -0.98023381 1.94442812
v -0.52525419 -1.08614604 1.93901318
v -0.40084479 -1.20067832 1.97381421
v -0.26629032 -1.40171888 2.06650776
v -0.22700297 -1.50732765 2.12300780
v -0.19529025 -1.57261588 2.15785749
v -0.14531944 -1.62535236 2.18507913
v -0.07668046 -1.66202570 2.20356330
v -0.90385521 -0.93655930 1.99427614
v -0.71938503 -1.24601142 2.07361258
v -0.32886604 -1.29290713 2.01262021
v 1.25084716 -0.95706465 2.15206391
v 1.33493674 -0.93852650 2.18507914
v 1.40101625 -0.89742007 2.20356330
v 0.07677363 -1.66201593 2.20355899
v 0.14512231 -1.62550470 2.18515660
v 0.19536381 -1.57249300 2.15779201
v 0.26118298 -1.42279075 2.07813630
v 0.32047675 -1.30584471 2.01920227
v 0.48899516 -1.11350313 1.94442813
v 0.67800297 -0.99795649 1.93901317
v 0.83939551 -0.94748093 1.97381421
v 1.08077892 -0.93147362 2.06650773
v 0.35915653 -1.25104123 1.99427614
v 0.71938503 -1.24601142 2.07361258
v 0.95525733 -0.93125992 2.01262019
v 1.47421464 -0.78014761 2.20592541
v 1.34596451 -0.46657256 2.06533056
v 1.25005722 -0.28175807 1.98277919
v 1.21256299 -0.15045444 1.94822324
v 1.28793630 -0.36943607 2.01586698
v 0.22700297 1.50732765 2.12300780
v 0.19529025 1.57261588 2.15785749
v 0.14531944 1.62535236 2.18507913
v 0.07668046 1.66202570 2.20356330
v 1.07715419 0.93236193 2.06538128
v 0.86028186 0.94328588 1.98004411
v 0.71982437 0.98023381 1.94442812
v 0.52525419 1.08614604 1.93901318
v 0.40084479 1.20067832 1.97381421
v 0.26629032 1.40171888 2.06650776
v 0.96750032 0.93061358 2.01741548
v 0.71938503 1.24601142 2.07361258
v 0.32886604 1.29290713 2.01262021
v -0.07677363 1.66201593 2.20355899
v -0.14512231 1.62550470 2.18515660
v -0.19536381 1.57249300 2.15779201
v -0.26118298 1.42279075 2.07813630
v -0.32047675 1.30584471 2.01920227
v -0.48899516 1.11350313 1.94442813
v -0.67800297 0.99795649 1.93901317
v -0.83939551 0.94748093 1.97381421
v -1.08077892 0.93147362 2.06650773
v -1.19188255 0.95025416 2.12300780
v -1.26428019 0.95543426 2.15785750
v -1.33493674 0.93852650 2.18507914
v -1.40101625 0.89742007 2.20356330
v -0.35915653 1.25104123 1.99427614
v -0.71938503 1.24601142 2.07361258
v -0.95525733 0.93125992 2.01262019
v -1.47773486 0.76451982 2.20355895
v -1.48028945 0.68707230 2.18515646
v -1.45950058 0.61705625 2.15779185
v -1.41888552 0.55707348 2.12300780
v -1.34596451 0.46657256 2.06533056
v -1.23235999 0.23258614 1.96693510
v -1.45957032 -0.61718149 2.15785740
v -1.48025609 -0.68682537 2.18507898
v -1.47769691 -0.76460549 2.20356335
v -1.28925190 0.37148210 2.01703251
v -1.43750000 0.00000000 2.07287931
v -1.28668071 -0.36655264 2.01475804
v -0.26689454 1.40339793 0.66300000
v -0.32052246 1.30584399 0.66300000
v -0.42465180 1.17317859 0.66300050
v -0.55274349 1.06870241 0.66300000
v -0.70540997 0.98622972 0.66300029
v -0.86004778 0.94329585 0.66300000
v -1.02849188 0.92821802 0.66299978
v -1.23654639 0.95650824 0.66299987
v -1.30078991 0.94958296 0.66300000
v -1.37697670 0.91743808 0.66299676
v -1.45236978 0.83852908 0.66300176
v -1.48301260 0.73377674 0.66299809
v -1.47275792 0.65172563 0.66300000
v -1.44771643 0.59447575 0.66299932
v -1.32529692 0.43734688 0.66300027
v -1.23997212 0.25742791 0.66300017
v -1.20636411 0.10185970 0.66300000
v -1.44617359 -0.59183136 0.66299964
v -1.48136530 -0.68088797 0.66300177
v -1.47375202 -0.78692256 0.66299932
v -1.41837140 -0.88284555 0.66299915
v -1.33035425 -0.94245382 0.66300175
v -1.23921411 -0.95651954 0.66299984
v -1.08193098 -0.93283642 0.66300000
v -0.97063284 -0.93050258 0.66300000
v -0.86004778 -0.94329585 0.66300000
v -0.75222226 -0.97097946 0.66300000
v -0.64915170 -1.01304111 0.66300000
v -0.50139503 -1.10401779 0.66300029
v -0.38689428 -1.21647114 0.66300000
v -0.28961439 -1.35480921 0.66299978
v -0.21008725 -1.54913470 0.66299980
v -0.17196801 -1.60130859 0.66300000
v -0.10603631 -1.65121584 0.66299757
v -0.00000264 -1.67705366 0.66300211
v 0.10603699 -1.65121495 0.66299761
v 0.19878937 -1.57268041 0.66300011
v 0.26689454 -1.40339793 0.66300000
v 0.32052246 -1.30584399 0.66300000
v 0.42465180 -1.17317859 0.66300058
v 0.55274349 -1.06870241 0.66300000
v 0.64915170 -1.01304111 0.66300000
v 0.81138666 -0.95199270 0.66299992
v 1.02849188 -0.92821802 0.66299978
v 1.23542846 -0.95643631 0.66299981
v 1.32756572 -0.94339644 0.66300112
v 1.41354844 -0.88794282 0.66300052
v 1.45887156 -0.82183903 0.66300000
v 1.47645175 -0.77162125 0.66300000
v 1.34882553 -0.47056151 0.66300000
v 1.26298198 -0.31906947 0.66300013
v 1.21700401 -0.16595386 0.66300000
v 1.20189518 -0.05566131 0.66300000
v 1.20189518 0.05566131 0.66300000
v 1.21700401 0.16595386 0.66300000
v 1.24694205 0.27317530 0.66300000
v 1.31896994 0.42794237 0.66299946
v 1.44783556 0.59430452 0.66299953
v 1.48186224 0.68857507 0.66299793
v 1.08193098 0.93283642 0.66300000
v 0.90819830 0.93425382 0.66299945
v 0.69368832 0.99084611 0.66300093
v 0.55274349 1.06870241 0.66300000
v 0.41875650 1.17867784 0.66299990
v 0.28961439 1.35480921 0.66299978
v 0.21008725 1.54913470 0.66299976
v 0.15101624 1.62334408 0.66300118
v 0.08077113 1.66084340 0.66300000
v 0.00000264 1.67705366 0.66300176
v -0.10603699 1.65121495 0.66299809
v -0.19878937 1.57268041 0.66300014
v 1.98932526 -0.55810189 -5.98960487
v 1.89480172 -0.82378346 -5.98960485
v 1.76498161 -1.07411950 -5.98960485
v 1.60228322 -1.30444673 -5.98960485
v 1.40973733 -1.51047455 -5.98960487
v 1.19093068 -1.68836512 -5.98960488
v 0.68973950 -1.94691672 -5.99034235
v 0.41968858 -2.02305566 -5.98960487
v 0.13925026 -2.07666280 -5.95278365
v -0.14481894 -2.07628189 -5.95278365
v -0.14168849 -2.06126591 -5.98960485
v -0.42219264 -2.02288036 -5.98920033
v -0.69363695 -1.94553157 -5.99034235
v -0.95116886 -1.83416753 -5.98960487
v -2.06174692 -0.28533320 -5.95193729
v -2.04697599 -0.28316217 -5.98920034
v -1.62950694 -0.45656643 -6.34659258
v -1.65980084 -0.46017167 -6.33329346
v -1.58168133 -0.68189514 -6.33329345
v -1.44590025 -0.87927142 -6.34659258
v -1.33905519 -1.08334112 -6.33329345
v -1.23981042 -1.15400966 -6.34692287
v -1.17799233 -1.25596235 -6.33369745
v -0.97300731 -1.37843730 -6.34816415
v -0.78994825 -1.53048155 -6.33338365
v -0.43757500 -1.63400583 -6.34797719
v -0.57419005 -1.62379120 -6.33338364
v -0.11480392 -1.71849123 -6.33338364
v 0.01905427 -1.69614825 -6.34641719
v 0.12026656 -1.71811758 -6.33338364
v 0.35309668 -1.68573864 -6.33338365
v 0.45422243 -1.62767520 -6.34812972
v 0.58009114 -1.62129628 -6.33369745
v 0.73967941 -1.51317313 -6.34890375
v 0.79659225 -1.52713376 -6.33329346
v 0.99663759 -1.40561211 -6.33271825
v 1.07022887 -1.31790316 -6.34641482
v 1.17757542 -1.25686443 -6.33338364
v 1.33775044 -1.08481142 -6.33338364
v 1.51279494 -0.76542477 -6.34677835
v 1.62950694 -0.45656643 -6.34659258
v 1.68802374 -0.23839985 -6.34322203
v -3.87358205 -0.53241160 0.01339746
v -3.90984367 -0.53739564 0.05000000
v -3.76500659 -1.05490538 0.01339746
v -3.80025181 -1.06478062 0.05000000
v -3.58629619 -1.55774826 0.01339746
v -3.61986845 -1.57233075 0.05000000
v -3.34077987 -2.03157324 0.01339746
v -3.37205379 -2.05059134 0.05000000
v -3.03303115 -2.46755386 0.01339746
v -3.06142415 -2.49065328 0.05000000
v -2.66878279 -2.85756862 0.01339746
v -2.69376597 -2.88431907 0.05000000
v -2.25482006 -3.19435228 0.01339746
v -2.27592802 -3.22425546 0.05000000
v -1.79885430 -3.47163120 0.01339746
v -1.81569385 -3.50413006 0.05000000
v -1.30937928 -3.68424021 0.01339746
v -1.32163673 -3.71872935 0.05000000
v -0.79551301 -3.82821878 0.01339746
v -0.80296002 -3.86405575 0.05000000
v -0.26682784 -3.90088489 0.01339746
v -0.26932568 -3.93740210 0.05000000
v 0.26682784 -3.90088489 0.01339746
v 0.26932568 -3.93740210 0.05000000
v 0.79551301 -3.82821878 0.01339746
v 0.80296002 -3.86405575 0.05000000
v 1.30937928 -3.68424021 0.01339746
v 1.32163673 -3.71872935 0.05000000
v 1.79885430 -3.47163120 0.01339746
v 1.81569385 -3.50413006 0.05000000
v 2.25482006 -3.19435228 0.01339746
v 2.27592802 -3.22425546 0.05000000
v 2.66878279 -2.85756862 0.01339746
v 2.69376597 -2.88431907 0.05000000
v 3.03303115 -2.46755386 0.01339746
v 3.06142415 -2.49065328 0.05000000
v 3.34077987 -2.03157324 0.01339746
v 3.37205379 -2.05059134 0.05000000
v 3.58629619 -1.55774826 0.01339746
v 3.61986845 -1.57233075 0.05000000
v 3.76500659 -1.05490538 0.01339746
v 3.80025181 -1.06478062 0.05000000
v 3.87358205 -0.53241160 0.01339746
v 3.90984367 -0.53739564 0.05000000
v 3.92089415 -0.51619551 0.33872895
v 3.92480605 -0.51671052 0.32292316
v 3.14038460 -2.40902814 0.33144824
v 2.80034161 -2.79694286 0.33282559
v 2.28288885 -3.23411669 0.32292316
v 1.97933652 -3.42831142 0.32292316
v 1.82124706 -3.51484728 0.32292316
v 1.02457998 -3.82378453 0.32292316
v 0.80774158 -3.87772887 0.31404623
v 0.51671052 -3.92480605 0.32292316
v 0.27248879 -3.95158974 0.31398294
v 0.00000000 -3.95851902 0.33209901
v -0.51198832 -3.92523801 0.33264977
v -0.80541583 -3.87587379 0.32292316
v -1.51174599 -3.65840521 0.33236222
v -1.98229160 -3.42604879 0.33344271
v -2.40988746 -3.14062648 0.32292316
v -2.70200473 -2.89314063 0.32292316
v -3.07131383 -2.49847710 0.32060616
v -3.38273215 -2.05729594 0.32008314
v -3.63122973 -1.57789437 0.31923694
v -3.81226366 -1.06904380 0.31795319
v 2.05297718 -0.27436568 2.20911635
v 2.02917950 -0.54345628 2.20053599
v 1.81939376 -1.04921865 2.20073337
v 1.66715695 -1.27666130 2.20088131
v 1.47106358 -1.49084777 2.20357766
v 1.40770356 -1.51453771 2.20951388
v 1.29030469 -1.64969271 2.20422852
v 1.02606360 -1.82391959 2.20491520
v 0.89545006 -1.88045064 2.20763270
v 0.69461038 -1.95444631 2.20866925
v 0.60164973 -2.00326485 2.20452870
v 0.26413262 -2.07862816 2.20375629
v 0.08795995 -2.07833787 2.20799070
v -0.26365275 -2.07981003 2.20338446
v -0.19084090 -2.07141583 2.20798370
v -0.52942125 -2.02820711 2.20338517
v -0.46575128 -2.02735329 2.20797908
v -0.79231131 -1.93929054 2.20382135
v -1.06066947 -1.80602333 2.20424343
v -1.22032093 -1.68433059 2.20799213
v -1.48017692 -1.49425390 2.19933205
v -1.60864079 -1.31172028 2.20869515
v -1.81737083 -1.05819984 2.19939347
v -1.89337261 -0.82268256 2.20974441
v -1.94100932 -0.80995317 2.19929817
v -2.03073330 -0.54767685 2.19923464
v -2.04484283 -0.28100819 2.20976882
v -2.08524374 -0.27606160 2.19913335
f 14 13 15
f 15 6 14
f 15 16 6
f 16 15 2
f 7 16 17
f 18 3 17
f 19 3 18
f 21 20 22
f 23 21 22
f 24 23 22
f 24 22 25
f 26 24 25
f 42 41 60
f 64 44 63
f 65 45 64
f 66 46 65
f 81 53 33
f 37 32 31
f 38 32 37
f 39 84 32
f 39 32 38
f 61 55 54
f 61 54 60
f 61 60 41
f 62 41 40
f 62 56 55
f 62 40 56
f 62 55 61
f 62 61 41
f 63 44 43
f 64 45 44
f 65 46 45
f 66 47 46
f 67 47 66
f 67 68 47
f 68 67 59
f 59 69 68
f 69 59 58
f 58 70 69
f 70 58 57
f 57 71 70
f 71 57 72
f 72 48 71
f 48 72 73
f 73 74 48
f 74 73 36
f 36 49 74
f 49 36 75
f 75 50 49
f 50 75 76
f 76 51 50
f 51 76 35
f 77 51 35
f 77 52 51
f 78 35 34
f 78 77 35
f 78 52 77
f 79 78 34
f 79 53 52
f 79 52 78
f 80 34 33
f 80 33 53
f 80 79 34
f 80 53 79
f 84 83 32
f 109 86 85
f 137 108 107
f 137 135 108
f 138 113 112
f 138 135 137
f 138 136 135
f 138 112 136
f 139 107 106
f 139 137 107
f 140 138 137
f 140 113 138
f 140 114 113
f 140 137 139
f 141 106 105
f 141 139 106
f 142 139 141
f 142 115 114
f 142 114 140
f 142 140 139
f 143 142 141
f 143 105 104
f 143 141 105
f 144 115 142
f 144 116 115
f 144 142 143
f 145 104 103
f 145 143 104
f 146 117 116
f 146 116 144
f 146 144 143
f 146 143 145
f 147 102 101
f 147 103 102
f 147 145 103
f 148 117 146
f 148 118 117
f 148 146 145
f 148 145 147
f 149 147 101
f 150 118 148
f 150 119 118
f 150 147 149
f 150 148 147
f 151 101 100
f 151 150 149
f 151 149 101
f 152 120 119
f 152 150 151
f 152 119 150
f 153 100 99
f 153 151 100
f 153 152 151
f 154 121 120
f 154 120 152
f 154 152 153
f 155 99 98
f 155 153 99
f 156 153 155
f 156 122 121
f 156 154 153
f 156 121 154
f 157 155 98
f 157 97 96
f 157 98 97
f 157 156 155
f 158 123 122
f 158 156 157
f 158 122 156
f 159 157 96
f 160 124 123
f 160 158 157
f 160 157 159
f 160 123 158
f 161 96 95
f 161 159 96
f 162 159 161
f 162 125 124
f 162 124 160
f 162 160 159
f 163 94 93
f 163 95 94
f 163 161 95
f 164 161 163
f 164 126 125
f 164 127 126
f 164 162 161
f 164 125 162
f 165 163 93
f 166 127 164
f 166 164 163
f 166 163 165
f 167 93 92
f 167 165 93
f 167 166 165
f 168 128 127
f 168 127 166
f 168 166 167
f 169 92 91
f 169 167 92
f 170 129 128
f 170 168 167
f 170 128 168
f 170 167 169
f 171 91 90
f 171 169 91
f 172 129 170
f 172 169 171
f 172 130 129
f 172 170 169
f 173 89 88
f 173 90 89
f 173 171 90
f 174 172 171
f 174 130 172
f 174 171 173
f 174 131 130
f 175 173 88
f 176 174 173
f 176 131 174
f 176 173 175
f 176 132 131
f 177 88 87
f 177 175 88
f 178 176 175
f 178 132 176
f 178 133 132
f 178 175 177
f 179 87 86
f 179 177 87
f 179 178 177
f 179 86 109
f 180 133 178
f 180 109 110
f 180 110 111
f 180 179 109
f 180 134 133
f 180 111 134
f 180 178 179
f 196 194 195
f 186 195 187
f 197 195 186
f 197 196 195
f 199 186 198
f 199 197 186
f 201 186 185
f 201 198 186
f 200 199 198
f 200 198 201
f 202 200 201
f 184 201 185
f 203 202 201
f 203 201 184
f 204 184 207
f 205 184 204
f 205 203 184
f 206 205 204
f 206 204 207
f 208 206 207
f 209 208 207
f 210 208 209
f 211 210 209
f 211 209 212
f 190 211 212
f 214 190 212
f 214 212 213
f 215 214 213
f 215 213 183
f 182 215 183
f 216 215 182
f 218 216 182
f 218 182 217
f 217 182 220
f 219 218 217
f 220 219 217
f 221 219 220
f 222 221 220
f 191 221 222
f 192 191 222
f 192 222 181
f 193 192 181
f 193 181 223
f 224 223 181
f 225 193 223
f 225 188 189
f 225 224 188
f 225 223 224
f 250 248 242
f 250 249 248
f 251 242 241
f 251 250 242
f 252 241 240
f 252 251 241
f 253 252 240
f 253 240 239
f 254 253 239
f 254 239 238
f 255 254 238
f 255 238 237
f 236 255 237
f 256 255 236
f 244 256 236
f 244 236 257
f 259 244 257
f 259 257 258
f 260 259 258
f 260 258 235
f 261 260 235
f 261 235 234
f 263 261 234
f 263 234 262
f 264 263 262
f 264 262 233
f 265 264 233
f 265 233 232
f 266 265 232
f 267 265 266
f 269 266 268
f 269 267 266
f 270 268 231
f 270 269 268
f 271 231 230
f 271 270 231
f 229 271 230
f 245 271 229
f 246 229 272
f 246 245 229
f 247 246 272
f 247 272 228
f 227 247 228
f 273 226 243
f 273 227 226
f 273 247 227
f 280 713 276
f 280 281 713
f 695 276 275
f 695 280 276
f 279 695 275
f 278 275 274
f 278 279 275
f 277 278 274
f 287 289 754
f 288 290 289
f 288 289 287
f 283 291 290
f 283 290 288
f 284 292 291
f 284 291 283
f 285 292 284
f 286 282 292
f 286 292 285
f 296 293 297
f 296 297 295
f 294 293 296
f 300 305 304
f 301 305 300
f 299 298 302
f 303 299 302
f 287 299 303
f 288 287 303
f 283 288 303
f 302 306 305
f 302 307 306
f 302 298 307
f 302 305 301
f 273 194 196
f 273 243 194
f 247 196 197
f 247 273 196
f 246 197 199
f 246 247 197
f 245 199 200
f 245 246 199
f 271 200 202
f 271 245 200
f 270 202 203
f 270 271 202
f 269 203 205
f 269 270 203
f 267 205 206
f 267 269 205
f 265 206 208
f 265 267 206
f 264 208 210
f 264 265 208
f 263 210 211
f 263 264 210
f 261 211 190
f 261 263 211
f 260 261 190
f 260 190 214
f 259 260 214
f 259 214 215
f 244 259 215
f 244 215 216
f 256 244 216
f 256 216 218
f 256 218 219
f 255 256 219
f 254 219 221
f 254 255 219
f 253 221 191
f 253 254 221
f 252 191 192
f 252 253 191
f 251 192 193
f 251 252 192
f 250 193 225
f 250 251 193
f 249 225 189
f 249 250 225
f 310 226 227
f 310 227 228
f 310 309 226
f 311 228 272
f 311 310 228
f 312 272 229
f 312 311 272
f 313 229 230
f 313 312 229
f 314 230 231
f 314 313 230
f 315 314 231
f 316 231 268
f 316 315 231
f 317 268 266
f 317 316 268
f 318 266 232
f 318 317 266
f 319 232 233
f 319 318 232
f 320 233 262
f 320 319 233
f 321 320 262
f 321 262 234
f 322 321 234
f 322 234 235
f 323 322 235
f 323 235 258
f 324 323 258
f 324 258 257
f 325 324 257
f 325 257 236
f 326 236 237
f 326 325 236
f 327 237 238
f 327 326 237
f 328 238 239
f 328 327 238
f 329 239 240
f 329 328 239
f 330 240 241
f 330 329 240
f 331 241 242
f 331 330 241
f 308 242 248
f 308 331 242
f 84 112 113
f 84 113 114
f 84 39 112
f 83 114 115
f 83 84 114
f 82 83 115
f 81 115 116
f 81 82 115
f 53 116 117
f 53 81 116
f 52 117 118
f 52 53 117
f 51 118 119
f 51 52 118
f 50 119 120
f 50 51 119
f 49 120 121
f 49 50 120
f 74 121 122
f 74 49 121
f 48 122 123
f 48 74 122
f 71 48 123
f 71 123 124
f 71 124 125
f 70 71 125
f 69 70 125
f 69 125 126
f 69 126 127
f 68 69 127
f 47 127 128
f 47 68 127
f 46 128 129
f 46 129 130
f 46 47 128
f 45 46 130
f 44 130 131
f 44 45 130
f 43 131 132
f 43 132 133
f 43 44 131
f 42 43 133
f 41 133 134
f 41 42 133
f 40 134 111
f 40 41 134
f 865 864 340
f 888 343 344
f 351 17 3
f 57 348 72
f 352 339 865
f 352 340 341
f 352 865 340
f 353 341 342
f 353 352 341
f 354 868 867
f 354 867 339
f 354 339 352
f 354 352 353
f 355 342 343
f 355 888 890
f 355 890 892
f 355 892 345
f 355 353 342
f 355 343 888
f 356 354 353
f 356 353 355
f 357 337 338
f 357 338 868
f 357 354 356
f 357 868 354
f 358 356 355
f 358 345 346
f 358 346 895
f 358 355 345
f 359 357 356
f 359 356 358
f 360 895 347
f 360 358 895
f 361 337 357
f 361 335 336
f 361 336 337
f 361 357 359
f 362 347 897
f 362 358 360
f 362 360 347
f 362 359 358
f 363 361 359
f 363 359 362
f 364 897 899
f 364 899 900
f 364 362 897
f 365 334 335
f 365 361 363
f 365 335 361
f 366 362 364
f 366 363 362
f 367 900 902
f 367 902 8
f 367 364 900
f 368 333 334
f 368 363 366
f 368 365 363
f 368 334 365
f 369 364 367
f 369 366 364
f 370 8 9
f 370 9 5
f 370 367 8
f 371 12 13
f 372 17 351
f 372 6 16
f 372 16 7
f 372 7 17
f 372 351 350
f 373 368 366
f 373 332 333
f 373 366 369
f 373 333 368
f 374 369 367
f 374 367 370
f 375 5 10
f 375 10 11
f 375 370 5
f 376 371 13
f 376 13 14
f 376 14 6
f 376 6 372
f 377 372 350
f 377 350 349
f 378 54 332
f 378 332 373
f 378 373 369
f 378 369 374
f 379 374 370
f 379 370 375
f 380 11 12
f 380 371 376
f 380 12 371
f 380 375 11
f 381 372 377
f 381 376 372
f 382 57 58
f 382 349 348
f 382 348 57
f 382 377 349
f 383 60 54
f 383 54 378
f 383 378 374
f 383 374 379
f 384 379 375
f 384 375 380
f 385 376 381
f 385 380 376
f 386 58 59
f 386 377 382
f 386 59 67
f 386 382 58
f 386 381 377
f 387 383 379
f 387 60 383
f 387 42 60
f 387 379 384
f 388 384 380
f 388 380 385
f 389 67 66
f 389 66 65
f 389 381 386
f 389 386 67
f 389 385 381
f 390 43 42
f 390 42 387
f 390 387 384
f 390 384 388
f 391 65 64
f 391 64 63
f 391 388 385
f 391 385 389
f 391 389 65
f 392 63 43
f 392 391 63
f 392 43 390
f 392 390 388
f 392 388 391
f 414 880 400
f 415 414 400
f 415 400 401
f 414 399 880
f 416 415 401
f 416 401 402
f 413 399 414
f 413 883 399
f 417 416 402
f 417 402 403
f 413 398 883
f 418 417 403
f 418 403 875
f 412 398 413
f 419 418 875
f 419 875 1
f 411 398 412
f 411 887 398
f 300 419 1
f 410 887 411
f 410 889 887
f 301 1 30
f 301 300 1
f 409 891 889
f 409 889 410
f 302 30 29
f 302 301 30
f 408 397 891
f 408 891 409
f 303 29 28
f 303 302 29
f 396 397 408
f 283 28 27
f 283 303 28
f 407 396 408
f 894 396 407
f 420 283 27
f 4 420 27
f 395 894 407
f 421 420 4
f 406 395 407
f 26 421 4
f 896 395 406
f 405 896 406
f 25 421 26
f 422 421 25
f 394 896 405
f 394 405 404
f 22 422 25
f 898 394 404
f 898 404 437
f 22 423 422
f 393 898 437
f 393 437 436
f 20 423 22
f 20 424 423
f 901 393 436
f 19 424 20
f 19 425 424
f 8 901 436
f 8 435 434
f 8 436 435
f 18 425 19
f 18 426 425
f 9 8 434
f 17 426 18
f 17 427 426
f 5 9 434
f 5 434 433
f 16 427 17
f 16 428 427
f 10 5 433
f 10 433 432
f 2 428 16
f 2 429 428
f 11 10 432
f 11 432 431
f 15 429 2
f 12 11 431
f 12 431 430
f 13 429 15
f 13 12 430
f 13 430 429
f 340 864 438
f 344 343 886
f 351 3 19
f 72 348 73
f 452 443 444
f 453 856 855
f 453 855 443
f 453 443 452
f 454 444 445
f 454 452 444
f 455 441 442
f 455 442 856
f 455 856 453
f 456 453 452
f 456 452 454
f 457 445 446
f 457 454 445
f 458 439 440
f 458 440 441
f 458 441 455
f 459 453 456
f 459 455 453
f 460 456 454
f 460 454 457
f 461 446 31
f 461 457 446
f 462 341 340
f 462 438 439
f 462 439 458
f 462 340 438
f 463 458 455
f 463 455 459
f 464 456 460
f 464 877 878
f 464 459 456
f 465 457 461
f 465 460 457
f 466 31 32
f 466 461 31
f 467 342 341
f 467 458 463
f 467 341 462
f 467 462 458
f 468 463 459
f 468 879 449
f 468 449 882
f 468 459 464
f 469 460 465
f 469 876 448
f 469 448 877
f 469 877 464
f 469 464 460
f 470 465 461
f 470 461 466
f 471 32 83
f 471 466 32
f 472 343 342
f 472 468 882
f 472 886 343
f 472 882 450
f 472 450 451
f 472 451 886
f 472 342 467
f 472 463 468
f 472 467 463
f 473 878 879
f 473 468 464
f 473 464 878
f 473 879 468
f 474 465 470
f 474 469 465
f 474 1 447
f 474 447 876
f 474 876 469
f 475 470 466
f 475 466 471
f 476 83 82
f 476 471 83
f 477 29 30
f 477 30 1
f 477 1 474
f 477 470 475
f 477 474 470
f 478 471 476
f 478 475 471
f 479 476 82
f 479 82 81
f 480 27 28
f 480 28 29
f 480 475 478
f 480 29 477
f 480 477 475
f 481 476 479
f 481 478 476
f 482 478 481
f 482 27 480
f 482 4 27
f 482 480 478
f 483 481 479
f 483 81 33
f 483 33 34
f 483 479 81
f 484 4 482
f 484 26 4
f 485 481 483
f 485 482 481
f 486 484 482
f 486 26 484
f 486 482 485
f 486 23 24
f 486 24 26
f 487 483 34
f 487 34 35
f 487 35 76
f 487 485 483
f 488 485 487
f 488 486 485
f 489 23 486
f 489 486 488
f 489 350 351
f 489 19 20
f 489 20 21
f 489 21 23
f 489 351 19
f 490 488 487
f 490 487 76
f 490 76 75
f 490 75 36
f 491 349 350
f 491 488 490
f 491 489 488
f 491 350 489
f 492 490 36
f 492 36 73
f 492 348 349
f 492 491 490
f 492 349 491
f 492 73 348
f 530 40 111
f 530 111 493
f 874 493 494
f 874 530 493
f 873 494 495
f 873 874 494
f 872 495 496
f 872 873 495
f 871 496 497
f 871 872 496
f 529 497 498
f 529 871 497
f 528 498 499
f 528 529 498
f 527 499 500
f 527 528 499
f 526 500 501
f 526 527 500
f 525 501 502
f 525 526 501
f 524 502 503
f 524 525 502
f 863 524 503
f 863 503 504
f 861 863 504
f 861 504 505
f 523 861 505
f 523 505 506
f 522 523 506
f 522 506 507
f 521 522 507
f 521 507 508
f 520 508 509
f 520 521 508
f 519 520 509
f 519 509 510
f 518 510 511
f 518 519 510
f 517 511 512
f 517 518 511
f 516 512 513
f 516 517 512
f 515 513 514
f 515 516 513
f 39 515 514
f 39 514 112
f 558 547 548
f 557 558 548
f 557 548 549
f 559 547 558
f 559 546 547
f 556 557 549
f 556 549 550
f 560 546 559
f 560 545 546
f 555 556 550
f 555 550 551
f 561 545 560
f 561 543 544
f 561 544 545
f 554 555 551
f 554 551 552
f 562 543 561
f 553 554 552
f 553 552 85
f 563 543 562
f 563 542 543
f 308 85 86
f 308 553 85
f 564 541 542
f 564 542 563
f 331 308 86
f 565 539 540
f 565 540 541
f 565 541 564
f 330 86 87
f 330 331 86
f 566 538 539
f 566 539 565
f 329 87 88
f 329 88 89
f 329 330 87
f 567 537 538
f 567 538 566
f 328 329 89
f 568 537 567
f 327 89 90
f 327 328 89
f 536 537 568
f 569 536 568
f 91 327 90
f 91 326 327
f 535 569 570
f 535 536 569
f 92 325 326
f 92 326 91
f 534 570 571
f 534 535 570
f 93 325 92
f 93 324 325
f 533 571 572
f 533 534 571
f 94 324 93
f 94 323 324
f 532 572 573
f 532 533 572
f 95 323 94
f 95 321 322
f 95 322 323
f 531 532 573
f 531 573 574
f 96 321 95
f 96 320 321
f 108 531 574
f 108 574 309
f 97 320 96
f 107 108 309
f 107 309 310
f 98 320 97
f 98 319 320
f 106 107 310
f 106 310 311
f 99 319 98
f 99 317 318
f 99 318 319
f 105 106 311
f 105 311 312
f 100 317 99
f 100 316 317
f 104 105 312
f 104 312 313
f 101 316 100
f 101 315 316
f 103 104 313
f 103 313 314
f 102 315 101
f 102 103 314
f 102 314 315
f 553 308 248
f 553 248 781
f 554 781 575
f 554 553 781
f 555 575 576
f 555 554 575
f 556 576 577
f 556 555 576
f 557 577 578
f 557 556 577
f 558 578 579
f 558 557 578
f 559 579 580
f 559 580 581
f 559 558 579
f 560 581 582
f 560 559 581
f 561 582 583
f 561 560 582
f 562 583 776
f 562 561 583
f 563 776 775
f 563 562 776
f 564 563 775
f 564 775 584
f 565 564 584
f 565 584 585
f 566 565 585
f 566 585 586
f 567 566 586
f 567 586 587
f 568 587 588
f 568 567 587
f 569 588 589
f 569 568 588
f 570 569 589
f 570 589 590
f 571 590 591
f 571 570 590
f 572 591 592
f 572 571 591
f 573 592 593
f 573 572 592
f 574 593 226
f 574 573 593
f 309 574 226
f 596 800 798
f 596 798 597
f 182 181 222
f 182 222 220
f 594 595 596
f 186 187 594
f 209 213 212
f 184 209 207
f 185 186 594
f 184 224 181
f 184 182 183
f 184 213 209
f 184 597 792
f 184 185 594
f 184 792 598
f 184 598 790
f 184 790 599
f 184 599 600
f 184 600 601
f 184 181 182
f 184 601 224
f 184 183 213
f 184 596 597
f 184 594 596
f 249 189 602
f 782 602 784
f 782 249 602
f 618 784 785
f 618 782 784
f 617 785 603
f 617 618 785
f 616 603 787
f 616 617 603
f 615 787 789
f 615 616 787
f 614 789 604
f 614 615 789
f 613 614 604
f 780 604 791
f 780 613 604
f 779 791 793
f 779 780 791
f 778 793 605
f 778 779 793
f 777 605 794
f 777 778 605
f 612 794 796
f 612 777 794
f 774 612 796
f 774 796 797
f 773 774 797
f 773 797 799
f 611 773 799
f 611 799 801
f 772 801 802
f 772 611 801
f 771 772 802
f 771 802 804
f 770 804 805
f 770 771 804
f 769 805 606
f 769 770 805
f 768 606 607
f 768 769 606
f 767 607 608
f 767 768 607
f 610 608 609
f 610 767 608
f 243 609 194
f 243 610 609
f 405 619 404
f 405 620 619
f 405 621 620
f 406 622 621
f 406 621 405
f 629 628 408
f 409 629 408
f 630 629 409
f 631 630 409
f 410 631 409
f 632 623 622
f 632 406 407
f 632 622 406
f 633 624 632
f 633 625 624
f 633 626 625
f 633 407 408
f 633 632 407
f 634 628 627
f 634 633 408
f 634 626 633
f 634 408 628
f 411 638 410
f 411 639 638
f 411 640 639
f 412 641 640
f 412 640 411
f 415 635 414
f 636 635 415
f 637 636 415
f 416 637 415
f 647 412 413
f 647 642 641
f 647 641 412
f 648 413 414
f 648 643 647
f 648 644 643
f 648 645 644
f 648 647 413
f 649 635 646
f 649 648 414
f 649 645 648
f 649 414 635
f 417 295 650
f 417 296 295
f 418 294 296
f 418 296 417
f 300 304 653
f 300 653 419
f 417 650 416
f 654 418 419
f 654 651 294
f 654 653 652
f 654 419 653
f 654 294 418
f 420 284 283
f 420 285 284
f 420 286 285
f 421 286 420
f 656 655 423
f 424 656 423
f 657 656 424
f 658 657 424
f 425 658 424
f 665 659 286
f 665 286 421
f 666 421 422
f 666 661 660
f 666 662 661
f 666 663 662
f 666 660 665
f 666 665 421
f 667 422 423
f 667 655 664
f 667 666 422
f 667 663 666
f 667 423 655
f 426 668 425
f 426 669 668
f 426 670 669
f 427 671 670
f 427 670 426
f 678 677 430
f 431 678 430
f 679 678 431
f 680 679 431
f 432 680 431
f 681 672 671
f 681 427 428
f 681 671 427
f 682 673 681
f 682 674 673
f 682 675 674
f 682 428 429
f 682 681 428
f 683 677 676
f 683 429 430
f 683 682 429
f 683 675 682
f 683 430 677
f 433 684 432
f 433 685 684
f 433 686 685
f 434 687 686
f 434 686 433
f 690 281 436
f 437 690 436
f 691 690 437
f 692 691 437
f 404 692 437
f 693 688 687
f 693 687 434
f 694 277 689
f 694 278 277
f 694 279 278
f 694 434 435
f 694 435 436
f 694 689 693
f 694 693 434
f 695 281 280
f 695 694 436
f 695 436 281
f 695 279 694
f 718 715 716
f 718 716 717
f 714 715 718
f 713 714 718
f 276 718 719
f 276 713 718
f 276 719 720
f 275 720 721
f 275 276 720
f 275 721 722
f 732 727 728
f 732 728 729
f 732 730 731
f 732 729 730
f 274 722 723
f 274 275 722
f 274 723 724
f 733 727 732
f 733 726 727
f 734 726 733
f 735 726 734
f 735 725 726
f 735 724 725
f 736 274 724
f 736 724 735
f 737 274 736
f 704 705 706
f 703 704 706
f 703 706 707
f 703 708 709
f 703 709 710
f 703 707 708
f 702 703 710
f 702 710 711
f 701 702 711
f 700 711 712
f 700 701 711
f 700 712 274
f 699 700 274
f 293 744 297
f 293 742 743
f 293 743 744
f 293 741 742
f 293 740 741
f 745 739 740
f 745 740 293
f 746 739 745
f 746 738 739
f 747 738 746
f 748 738 747
f 748 274 737
f 748 737 738
f 749 274 748
f 758 698 699
f 758 759 698
f 758 699 274
f 760 697 698
f 760 698 759
f 757 758 274
f 757 274 749
f 760 696 697
f 764 765 766
f 757 749 750
f 761 766 696
f 761 696 760
f 762 763 764
f 762 764 766
f 762 766 761
f 756 757 750
f 756 750 751
f 756 751 752
f 755 756 752
f 282 755 752
f 282 752 753
f 290 753 754
f 290 754 289
f 291 282 753
f 291 292 282
f 291 753 290
f 627 628 727
f 627 727 726
f 634 726 725
f 634 627 726
f 626 725 724
f 626 634 725
f 625 626 724
f 625 724 723
f 624 625 723
f 624 723 722
f 624 722 721
f 632 721 720
f 632 624 721
f 623 720 719
f 623 632 720
f 622 719 718
f 622 623 719
f 629 728 727
f 629 727 628
f 630 729 728
f 630 728 629
f 631 730 729
f 631 729 630
f 410 730 631
f 638 731 730
f 638 730 410
f 639 732 731
f 639 731 638
f 640 732 639
f 641 732 640
f 646 635 740
f 646 740 739
f 649 739 738
f 649 646 739
f 645 649 738
f 644 738 737
f 644 645 738
f 644 737 736
f 643 644 736
f 643 736 735
f 647 735 734
f 647 643 735
f 642 734 733
f 642 647 734
f 641 733 732
f 641 642 733
f 635 741 740
f 636 741 635
f 637 742 741
f 637 741 636
f 416 743 742
f 416 742 637
f 650 744 743
f 650 743 416
f 295 297 744
f 295 744 650
f 307 298 753
f 307 753 752
f 306 752 751
f 306 307 752
f 305 751 750
f 305 306 751
f 304 750 749
f 304 305 750
f 304 749 748
f 653 748 747
f 653 304 748
f 653 747 746
f 652 653 746
f 654 746 745
f 654 652 746
f 651 745 293
f 651 654 745
f 294 651 293
f 299 754 753
f 299 753 298
f 287 754 299
f 664 655 761
f 664 761 760
f 667 760 759
f 667 664 760
f 663 667 759
f 662 759 758
f 662 663 759
f 662 758 757
f 661 662 757
f 661 757 756
f 660 661 756
f 665 756 755
f 665 660 756
f 659 755 282
f 659 665 755
f 286 659 282
f 656 762 761
f 656 761 655
f 657 762 656
f 658 763 762
f 658 764 763
f 658 762 657
f 425 764 658
f 668 765 764
f 668 764 425
f 669 766 765
f 669 765 668
f 670 766 669
f 671 766 670
f 676 677 703
f 676 703 702
f 683 702 701
f 683 676 702
f 675 701 700
f 675 683 701
f 674 675 700
f 674 700 699
f 673 674 699
f 673 699 698
f 681 698 697
f 681 673 698
f 672 697 696
f 672 681 697
f 671 696 766
f 671 672 696
f 678 704 703
f 678 703 677
f 679 705 704
f 679 704 678
f 680 706 705
f 680 705 679
f 432 706 680
f 684 707 706
f 684 706 432
f 685 708 707
f 685 707 684
f 686 709 708
f 686 708 685
f 687 709 686
f 277 274 712
f 689 712 711
f 689 277 712
f 693 711 710
f 693 689 711
f 688 710 709
f 688 693 710
f 687 688 709
f 690 714 713
f 690 713 281
f 691 714 690
f 692 715 714
f 692 714 691
f 404 716 715
f 404 715 692
f 619 717 716
f 619 716 404
f 620 717 619
f 621 718 717
f 621 717 620
f 622 718 621
f 610 243 226
f 610 226 593
f 767 610 593
f 767 593 592
f 768 767 592
f 768 592 591
f 769 768 591
f 769 591 590
f 770 769 590
f 770 590 589
f 771 770 589
f 771 589 588
f 772 588 587
f 772 771 588
f 611 587 586
f 611 772 587
f 585 611 586
f 773 611 585
f 774 773 585
f 774 585 584
f 612 584 775
f 612 774 584
f 777 612 775
f 777 775 776
f 778 776 583
f 778 777 776
f 582 778 583
f 779 778 582
f 780 779 582
f 780 582 581
f 613 780 581
f 613 581 580
f 614 613 580
f 614 580 579
f 578 614 579
f 615 614 578
f 577 615 578
f 616 615 577
f 617 616 577
f 617 577 576
f 618 617 576
f 618 576 575
f 782 618 575
f 782 781 248
f 782 248 249
f 782 575 781
f 188 224 601
f 602 189 188
f 783 188 601
f 784 602 188
f 784 188 783
f 600 783 601
f 785 784 783
f 785 783 600
f 603 785 600
f 603 600 786
f 788 600 599
f 788 786 600
f 787 603 786
f 787 786 788
f 789 787 788
f 790 788 599
f 790 789 788
f 604 789 790
f 791 790 598
f 791 604 790
f 793 791 598
f 793 598 792
f 605 793 792
f 795 792 597
f 794 605 792
f 794 792 795
f 796 794 795
f 798 795 597
f 797 795 798
f 797 796 795
f 799 797 798
f 800 799 798
f 801 799 800
f 803 800 596
f 803 801 800
f 802 801 803
f 804 802 803
f 595 803 596
f 805 803 595
f 805 804 803
f 606 805 595
f 606 595 806
f 806 595 594
f 607 606 806
f 807 806 594
f 608 607 806
f 608 806 807
f 808 594 187
f 808 187 195
f 808 195 194
f 808 807 594
f 808 608 807
f 808 609 608
f 808 194 609
f 112 514 136
f 809 109 85
f 809 85 552
f 810 110 109
f 810 111 110
f 810 493 111
f 810 109 809
f 811 552 551
f 811 809 552
f 812 810 809
f 812 493 810
f 812 494 493
f 812 809 811
f 813 551 550
f 813 811 551
f 814 495 494
f 814 812 811
f 814 494 812
f 814 811 813
f 815 550 549
f 815 813 550
f 816 814 813
f 816 813 815
f 816 496 495
f 816 497 496
f 816 495 814
f 817 816 815
f 817 549 548
f 817 815 549
f 818 497 816
f 818 816 817
f 819 548 547
f 819 817 548
f 820 817 819
f 820 497 818
f 820 498 497
f 820 818 817
f 821 547 546
f 821 819 547
f 822 819 821
f 822 499 498
f 822 820 819
f 822 498 820
f 823 821 546
f 823 545 544
f 823 546 545
f 824 822 821
f 824 499 822
f 824 500 499
f 824 821 823
f 825 823 544
f 826 824 823
f 826 501 500
f 826 502 501
f 826 823 825
f 826 500 824
f 827 826 825
f 827 543 542
f 827 544 543
f 827 825 544
f 828 502 826
f 828 826 827
f 829 827 542
f 830 502 828
f 830 503 502
f 830 828 827
f 830 827 829
f 831 542 541
f 831 829 542
f 832 504 503
f 832 830 829
f 832 503 830
f 832 829 831
f 833 831 541
f 833 540 539
f 833 541 540
f 833 832 831
f 834 832 833
f 834 505 504
f 834 504 832
f 835 539 538
f 835 833 539
f 836 506 505
f 836 834 833
f 836 505 834
f 836 833 835
f 837 835 538
f 838 835 837
f 838 507 506
f 838 506 836
f 838 836 835
f 839 538 537
f 839 837 538
f 839 838 837
f 840 508 507
f 840 507 838
f 840 838 839
f 841 537 536
f 841 839 537
f 842 840 839
f 842 509 508
f 842 508 840
f 842 839 841
f 843 535 534
f 843 536 535
f 843 841 536
f 844 509 842
f 844 841 843
f 844 842 841
f 844 510 509
f 845 843 534
f 846 510 844
f 846 843 845
f 846 511 510
f 846 844 843
f 847 534 533
f 847 846 845
f 847 845 534
f 848 511 846
f 848 846 847
f 848 512 511
f 849 532 531
f 849 533 532
f 849 847 533
f 850 848 847
f 850 512 848
f 850 847 849
f 850 513 512
f 851 531 108
f 851 849 531
f 851 108 135
f 851 135 136
f 852 850 849
f 852 513 850
f 852 851 136
f 852 514 513
f 852 136 514
f 852 849 851
f 445 515 446
f 444 516 445
f 443 517 444
f 855 518 443
f 856 519 855
f 442 520 856
f 871 529 337
f 872 871 336
f 873 872 335
f 874 873 334
f 530 874 333
f 55 332 54
f 56 332 55
f 40 530 332
f 40 332 56
f 853 37 31
f 853 31 446
f 853 446 515
f 854 38 37
f 854 39 38
f 854 515 39
f 854 37 853
f 854 853 515
f 445 516 515
f 444 517 516
f 443 518 517
f 855 519 518
f 856 520 519
f 442 521 520
f 857 442 441
f 857 521 442
f 858 521 857
f 858 522 521
f 858 857 441
f 859 441 440
f 859 522 858
f 859 858 441
f 440 522 859
f 440 523 522
f 523 440 439
f 860 861 523
f 860 523 439
f 861 439 438
f 861 860 439
f 862 863 861
f 862 861 438
f 863 438 864
f 863 862 438
f 864 524 863
f 524 864 865
f 865 525 524
f 866 865 339
f 866 525 865
f 339 526 525
f 339 525 866
f 526 339 867
f 867 527 526
f 527 867 868
f 868 528 527
f 528 868 338
f 869 528 338
f 869 529 528
f 870 338 337
f 870 869 338
f 870 529 869
f 870 337 529
f 871 337 336
f 872 336 335
f 873 335 334
f 874 334 333
f 530 333 332
f 876 447 875
f 448 876 403
f 877 448 402
f 878 877 401
f 879 878 400
f 896 895 395
f 394 347 896
f 898 897 394
f 393 899 898
f 901 900 393
f 8 902 901
f 875 447 1
f 876 875 403
f 448 403 402
f 877 402 401
f 878 401 400
f 879 400 880
f 881 879 880
f 881 449 879
f 881 880 399
f 881 882 449
f 882 881 399
f 882 399 883
f 883 450 882
f 884 883 398
f 885 451 450
f 885 450 883
f 885 883 884
f 885 884 398
f 451 885 398
f 886 398 887
f 886 451 398
f 887 344 886
f 888 887 889
f 888 344 887
f 890 888 889
f 890 889 891
f 892 891 397
f 892 890 891
f 892 397 396
f 893 892 396
f 893 345 892
f 893 396 894
f 893 346 345
f 894 346 893
f 895 346 894
f 895 894 395
f 896 347 895
f 897 347 394
f 899 897 898
f 900 899 393
f 902 900 901

