# https://github.com/mikedh/trimesh
v -5.45772515 27.84548920 -23.37600987
v -69.10109600 50.06554131 -0.31848856
v -68.97205046 50.18374495 -0.31841778
v -68.83287526 50.29039443 -0.31820546
v -68.68516951 50.38426437 -0.31785402
v -69.08372489 49.99352178 -0.08708858
v -68.66021776 50.34090370 -0.13332893
v -68.68255965 50.37972901 -0.24147290
v -68.68543472 50.38472525 -0.30000000
v -68.68540525 50.38467403 -0.30595447
v -68.68531683 50.38452038 -0.31190659
v -69.00587648 50.14916552 -0.20228074
v -65.39364077 52.27897680 -0.30000000
v -65.39361129 52.27892558 -0.30595447
v -65.39352288 52.27877193 -0.31190659
v -65.39337555 52.27851592 -0.31785402
v -20.49054131 -52.22609600 -0.31848856
v -20.60874495 -52.09705046 -0.31841778
v -20.51726775 -52.09972438 -0.09656876
v -20.57416552 -52.13087648 -0.20228074
v -19.99739408 -52.43998756 -0.01709569
v 65.39364077 52.27897680 -0.30000000
v 65.39361129 52.27892558 -0.30595447
v 65.39352288 52.27877193 -0.31190659
v 65.39337555 52.27851592 -0.31785402
v 68.68543472 50.38472525 -0.30000000
v 68.68540525 50.38467403 -0.30595447
v 68.68531683 50.38452038 -0.31190659
v 68.68516951 50.38426437 -0.31785402
v 69.03379825 9.06234057 -0.12788035
v -13.69658721 31.47451201 2.21448262
v 14.51787330 30.91486610 2.22133158
v 18.07741428 -21.17305241 1.96186569
v -15.69984044 -17.50955721 2.14698717
v 37.92593636 47.32544948 2.01286304
v 36.17980502 15.66102403 2.23176920
v -34.82306463 46.81465365 2.17098449
v -36.70381336 11.55402414 2.17245008
v 20.25288089 -52.35742614 -0.04122871
v -62.66358482 52.07544537 -17.16762362
v -63.39929622 52.81133038 -0.31308582
v -48.19724440 52.62401924 -4.60322412
v 63.39929622 52.81133038 -0.31308582
v 62.66358482 52.07544537 -17.16762362
v 62.66349189 52.07503672 -17.17698311
v -62.66349189 52.07503672 -17.17698311
v -69.68633038 10.49732075 -0.31308582
v -69.68633038 48.65267925 -0.31308582
v -68.88710336 47.27440787 -18.73945458
v -68.85613531 13.41881238 -19.32767897
v -68.88848181 11.89069612 -18.73669240
v 68.85613531 13.41891949 -19.32767897
v 68.88807408 47.25909338 -18.74627087
v 69.64967377 48.96196211 -0.16208922
v 69.68633038 48.65267925 -0.31308582
v 69.68633038 10.49732075 -0.31308582
v 19.07767925 -52.81133038 -0.31308582
v -19.07767925 -52.81133038 -0.31308582
v -17.69904976 -52.01224504 -18.73908493
v 16.15618762 -51.98113531 -19.32767897
v 17.68430388 -52.01348181 -18.73669240
v -62.59181581 13.41891949 -23.25000000
v -62.59181581 45.73108051 -23.25000000
v -16.15608051 -45.71681581 -23.25000000
v 16.15608051 -45.71681581 -23.25000000
v 62.59181581 13.41891949 -23.25000000
v 62.59181581 45.73108051 -23.25000000
v -68.50442945 49.24908982 0.99970483
v -68.50000000 49.15179492 1.00000000
v -68.50000000 9.99820508 1.00000000
v -19.57679492 -51.62500000 1.00000000
v 19.57679492 -51.62500000 1.00000000
v 68.50452334 9.90079820 0.99966412
v 68.50000000 9.99820508 1.00000000
v 68.50000000 49.15179492 1.00000000
v 68.45000000 49.23839746 1.00000000
v 64.31704011 51.65802552 0.99763630
v -16.96715648 -45.71742882 -23.19794992
v -17.75804105 -45.71921880 -23.04466374
v -18.52538311 -45.72218528 -22.79142641
v -62.59421543 11.81806220 -23.04495109
v -62.59242785 12.60841068 -23.19802294
v 62.59242882 12.60784352 -23.19794992
v 62.59421880 11.81695895 -23.04466374
v 18.52377766 -45.72217771 -22.79207181
v 17.75693780 -45.71921543 -23.04495109
v 16.96658932 -45.71742785 -23.19802294
v 62.65391702 51.98803538 -17.98302301
v 62.64462027 51.80083981 -18.76566686
v 62.63566645 51.51437242 -19.52221943
v 62.62724626 51.13481561 -20.23508864
v 62.61950012 50.66938029 -20.89188208
v 62.60636265 49.50213379 -22.00904426
v 62.60126222 48.82815079 -22.44352819
v 62.59717771 48.09877766 -22.79207181
v 62.59421543 47.33193780 -23.04495109
v 62.59242785 46.54158932 -23.19802294
v -62.59242882 46.54215648 -23.19794992
v -62.59421880 47.33304105 -23.04466374
v -62.59718528 48.10038311 -22.79142641
v -62.60127552 48.83014525 -22.44241463
v -62.60638240 49.50442183 -22.00735486
v -62.61249689 50.12219277 -21.48700699
v -62.61953728 50.67190508 -20.88875953
v -62.62729191 51.13720950 -20.23120713
v -62.63572247 51.51651499 -19.51748887
v -62.64467656 51.80229286 -18.76093824
v -62.65394694 51.98853834 -17.98046435
v 64.65667411 51.54160911 -17.19407678
v 67.94035065 49.61556284 -17.58617499
v 67.79959028 45.73108051 -21.00494606
v 67.65052127 12.81614206 -21.32770426
v 68.47557338 10.19035459 -18.56398077
v 65.51080641 9.14384582 -21.60619753
v -67.94567854 49.64478174 -17.25486054
v -64.65667411 51.54160911 -17.19407678
v 65.14433540 50.10945492 -21.56377838
v 64.16793377 51.78044344 -17.19236398
v 63.85867179 51.89150695 -17.18951730
v 63.50385019 51.98539589 -17.18473714
v 63.10469180 52.05069098 -17.17757836
v 63.90314984 52.77941693 -0.31462579
v 64.40306669 52.68324347 -0.31594323
v 64.88684788 52.52427599 -0.31700311
v 65.14530761 52.40991020 -0.31747330
v -64.20226470 51.76571400 -17.19251780
v -63.72314006 51.93070628 -17.18775993
v -63.31492428 52.02237126 -17.19883504
v -62.94608522 52.06499051 -17.17422129
v -64.94102351 52.50209893 -0.31710753
v -64.45986078 52.66806819 -0.31607903
v -63.96118698 52.77161094 -0.31478969
v -67.69810655 48.95118715 -20.72438811
v -63.04175219 45.73108051 -23.22431338
v -63.04175220 13.41885123 -23.22431338
v -19.37618715 -50.82310655 -20.72438811
v -16.15608051 -46.16675219 -23.22431338
v 16.15614877 -46.16675220 -23.22431338
v 20.94442681 -49.53458818 -19.14275667
v 19.96280676 -51.23677102 -17.25750203
v 19.79928580 -51.43641051 -17.25907971
v 19.61511214 -51.61033124 -17.25859227
v 19.47468421 -51.71699725 -17.25709488
v 19.29032434 -51.83044847 -17.25398133
v 19.07728376 -51.93037082 -17.24903678
v 18.86342752 -52.00205393 -17.24283586
v 18.65519904 -52.04728997 -17.23572977
v 18.50069326 -52.06619387 -17.22981532
v 20.65639774 -52.03797199 -0.31834320
v 20.48865642 -52.22797838 -0.31848854
v 20.31528198 -52.38188868 -0.31836148
v 20.12357519 -52.51569855 -0.31798353
v 19.91720393 -52.62635622 -0.31735871
v 19.70045656 -52.71173499 -0.31650114
v 19.47794923 -52.77076704 -0.31543398
v 19.27667923 -52.80135382 -0.31431976
v 16.15614558 -51.78320314 -20.11149152
v 16.15615859 -51.87820618 -19.87829858
v 16.15617160 -51.94344826 -19.63508594
v 16.15617961 -51.96828638 -19.48211938
v 18.56504590 -51.08047536 -20.83375123
v -16.15612440 -51.65962577 -20.33087082
v -16.15613837 -51.78320314 -20.11149152
v -16.15615312 -51.87820618 -19.87829859
v -16.15616841 -51.94344826 -19.63508595
v -16.15617798 -51.96828638 -19.48211938
v -19.92886855 -51.28230232 -17.25794783
v -19.76228736 -51.47441831 -17.25906271
v -19.57292818 -51.64413119 -17.25820493
v -19.36368101 -51.78854568 -17.25537427
v -19.13766149 -51.90491770 -17.25058696
v -18.89873288 -51.99166797 -17.24394271
v -18.65084429 -52.04772958 -17.23556737
v -18.49559469 -52.06651056 -17.22960903
v -19.33484929 -52.79466171 -0.31465581
v -19.59202181 -52.74393276 -0.31600347
v -19.84243021 -52.65913401 -0.31708456
v -20.07942595 -52.54204068 -0.31786729
v -20.29705412 -52.39609814 -0.31833525
v 69.66966171 10.24015071 -0.31465581
v 69.61893276 9.98297819 -0.31600347
v 69.53413401 9.73256979 -0.31708456
v 69.41704068 9.49557405 -0.31786729
v 69.27109814 9.27794588 -0.31833525
v 68.93094372 10.98236729 -17.23894643
v 68.88214603 10.73293376 -17.24676718
v 68.80241265 10.49155179 -17.25291602
v 68.69280838 10.26216968 -17.25728192
v 68.55466934 10.04871725 -17.25976645
v 68.82913901 13.41891949 -19.57801612
v 68.68267383 13.41891949 -20.05883841
v 68.56557527 13.41891949 -20.28173845
v 68.42107269 13.41891949 -20.48793653
v 68.25177127 13.41891949 -20.67432739
v 68.75162451 12.28703908 -19.90877637
v 68.82913901 45.73117198 -19.57801612
v 68.77092346 45.73115660 -19.82300012
v 68.68267383 45.73114171 -20.05883842
v 68.56557527 45.73112754 -20.28173845
v 68.42107269 45.73111433 -20.48793653
v 68.25177127 45.73110229 -20.67432739
v 68.06058049 45.73109158 -20.83820235
v 67.93333878 45.73108574 -20.92666279
v 68.93118576 48.16786348 -17.23340508
v 68.88234750 48.41725722 -17.24216152
v 68.80257504 48.65860073 -17.24921586
v 68.69293381 48.88794637 -17.25444227
v 68.55476046 49.10136502 -17.25772755
v 68.39062093 49.29556370 -17.25903996
v 68.20341106 49.46765040 -17.25837966
v 68.07802585 49.56128423 -17.25699337
v 68.45848121 48.18801647 -19.81824186
v 68.91297199 50.23139774 -0.31834320
v 69.10297838 50.06365642 -0.31848854
v 69.25688868 49.89028198 -0.31836148
v 69.39069855 49.69857519 -0.31798353
v 69.50135622 49.49220393 -0.31735871
v 69.58673499 49.27545656 -0.31650114
v 69.64576704 49.05294923 -0.31543398
v -68.48533124 9.95988786 -17.25859227
v -68.59199725 10.10031579 -17.25709488
v -68.70544847 10.28467566 -17.25398133
v -68.80537082 10.49771624 -17.24903678
v -68.87705393 10.71157248 -17.24283586
v -68.92228997 10.91980096 -17.23572977
v -68.94119387 11.07430674 -17.22981532
v -69.25688868 9.25971802 -0.31836148
v -69.39069855 9.45142481 -0.31798353
v -69.50135622 9.65779607 -0.31735871
v -69.58673499 9.87454344 -0.31650114
v -69.64576704 10.09705077 -0.31543398
v -69.67635382 10.29832077 -0.31431976
v -68.65820314 13.41885442 -20.11149152
v -68.75320618 13.41884141 -19.87829858
v -68.81844826 13.41882840 -19.63508594
v -68.84328638 13.41882039 -19.48211938
v -67.95547536 11.00995410 -20.83375123
v -68.53462577 45.73112440 -20.33087082
v -68.65820314 45.73113837 -20.11149152
v -68.75320618 45.73115312 -19.87829859
v -68.81844826 45.73116841 -19.63508595
v -68.84328638 45.73117798 -19.48211938
v -68.15730232 49.50386855 -17.25794783
v -68.34941831 49.33728736 -17.25906271
v -68.51913119 49.14792818 -17.25820493
v -68.66354568 48.93868101 -17.25537427
v -68.77991770 48.71266149 -17.25058696
v -68.86666797 48.47373288 -17.24394271
v -68.92272958 48.22584429 -17.23556737
v -68.94151056 48.07059469 -17.22960903
v -69.66966171 48.90984929 -0.31465581
v -69.61893276 49.16702181 -0.31600347
v -69.53413401 49.41743021 -0.31708456
v -69.41704068 49.65442595 -0.31786729
v -69.27109814 49.87205412 -0.31833525
v -15.26098837 -22.14257137 2.11426105
v 34.52511624 12.25222490 2.20958559
v 37.95495666 44.70820589 2.20155084
v 69.62103575 10.49732075 -0.11279066
v 69.65067633 10.49732075 -0.15761989
v 69.67184284 10.49732075 -0.20701829
v 69.68385603 10.49732075 -0.25940061
v 69.62103575 48.65267925 -0.11279066
v 69.65067633 48.65267925 -0.15761989
v 69.67184284 48.65267925 -0.20701829
v 69.68385603 48.65267925 -0.25940061
v 68.64160952 50.30856666 -0.08786797
v 68.66021776 50.34090370 -0.13332893
v 68.67404493 50.36493228 -0.18519497
v 68.68255965 50.37972901 -0.24147290
v 69.34899844 49.45751639 -0.01502944
v 68.79676015 50.30435069 -0.22561364
v 69.22496844 49.86489187 -0.08484990
v 65.34981557 52.20281821 -0.08786797
v 65.36842380 52.23515525 -0.13332893
v 65.38225097 52.25918383 -0.18519497
v 65.39076570 52.27398056 -0.24147290
v 63.39929622 52.74603575 -0.11279066
v 63.39929622 52.77567633 -0.15761989
v 63.39929622 52.79684284 -0.20701829
v 63.39929622 52.80885603 -0.25940061
v 65.26625658 52.33848077 -0.22523982
v 64.03713064 52.71485167 -0.10130595
v 64.78151261 52.45992254 -0.03698738
v 19.07767925 -52.80885603 -0.25940061
v 19.07767925 -52.79684284 -0.20701829
v 19.07767925 -52.77567633 -0.15761989
v 19.07767925 -52.74603575 -0.11279066
v 20.72935069 -51.92176015 -0.22561364
v 19.42449674 -52.72680910 -0.09635553
v -19.07767925 -52.80885603 -0.25940061
v -19.07767925 -52.79684284 -0.20701829
v -19.07767925 -52.77567633 -0.15761989
v -19.07767925 -52.74603575 -0.11279066
v -19.80045423 -52.67568261 -0.14540765
v -63.39929622 52.74603575 -0.11279066
v -63.39929622 52.77567633 -0.15761989
v -63.39929622 52.79684284 -0.20701829
v -63.39929622 52.80885603 -0.25940061
v -65.34981557 52.20281821 -0.08786797
v -65.38225097 52.25918383 -0.18519497
v -65.39076570 52.27398056 -0.24147290
v -63.93997335 52.74791044 -0.13870854
v -65.16661012 52.38936346 -0.22510634
v -64.84002540 52.49099400 -0.11956516
v -69.62103575 48.65267925 -0.11279066
v -69.65067633 48.65267925 -0.15761989
v -69.67184284 48.65267925 -0.20701829
v -69.68385603 48.65267925 -0.25940061
v -69.56296013 49.32504319 -0.13737536
v -69.62103575 10.49732075 -0.11279066
v -69.65067633 10.49732075 -0.15761989
v -69.67184284 10.49732075 -0.20701829
v -69.68385603 10.49732075 -0.25940061
v -69.44671551 9.51226249 -0.07410272
v 69.46533494 9.73075375 -0.03680802
v 56.90000000 51.72500000 0.97320508
v 64.28948822 51.76642136 0.94142136
v 64.28948822 51.67676381 0.99318517
v 64.41019890 51.73407703 0.94142136
v 64.38948822 51.69820508 0.97320508
v 64.36537013 51.65643131 0.99318517
v 64.34032207 51.74001397 0.96236834
v 68.52071068 49.36087195 0.94142136
v 68.50000000 49.32500000 0.97320508
v 68.47588190 49.28322623 0.99318517
v 68.64142136 49.15179492 0.94142136
v 68.60000000 49.15179492 0.97320508
v 68.55176381 49.15179492 0.99318517
v 68.66744078 49.29245360 0.86700554
v 68.57551238 49.25312705 0.98160890
v 68.67320508 9.99820508 0.90000000
v 68.62104001 9.87526950 0.94439500
v 68.60000000 9.99820508 0.97320508
v 68.55176381 9.99820508 0.99318517
v -68.64142136 9.99820508 0.94142136
v -68.60000000 9.99820508 0.97320508
v -68.66144824 9.85643594 0.88676374
v -68.54904708 9.91260770 0.99197485
v -68.64142136 49.15179492 0.94142136
v -68.55176381 49.15179492 0.99318517
v -68.61626451 49.27894043 0.94749855
v -68.50000000 49.32500000 0.97320508
v -64.41019890 51.73407703 0.94142136
v -64.38948822 51.69820508 0.97320508
v -64.28948822 51.72500000 0.97320508
v -64.28948822 51.67676381 0.99318517
v -64.37292823 51.79360468 0.91159842
v -64.33562747 51.65592531 0.99746600
v -56.90000000 51.76642136 0.94142136
v 19.78587195 -51.64571068 0.94142136
v 19.75000000 -51.62500000 0.97320508
v 19.70822623 -51.60088190 0.99318517
v 19.57679492 -51.76642136 0.94142136
v 19.57679492 -51.72500000 0.97320508
v 19.71869750 -51.77556954 0.91257710
v 19.64500283 -51.65678605 0.99613549
v -19.57679492 -51.76642136 0.94142136
v -19.57679492 -51.72500000 0.97320508
v -19.57679492 -51.67676381 0.99318517
v -19.78587195 -51.64571068 0.94142136
v -19.75000000 -51.62500000 0.97320508
v -19.70822623 -51.60088190 0.99318517
v -19.64991518 -51.65244898 0.99623329
v -19.70073748 -51.76151562 0.93210861
f 57 58 61
f 33 72 73
f 36 73 74
f 74 258 36
f 73 75 74
f 74 75 258
f 31 38 36
f 113 161 114
f 161 137 138
f 257 73 36
f 257 33 73
f 33 257 256
f 256 71 72
f 72 33 256
f 256 257 36
f 111 97 117
f 311 315 336
f 36 258 32
f 32 31 36
f 258 31 32
f 1 62 63
f 59 61 58
f 162 137 161
f 161 157 162
f 78 137 79
f 64 62 1
f 137 78 64
f 64 138 137
f 158 161 61
f 158 157 161
f 61 159 158
f 164 157 158
f 161 138 86
f 1 66 65
f 138 64 65
f 65 64 1
f 70 256 38
f 36 38 34
f 34 256 36
f 38 256 34
f 178 295 179
f 212 202 117
f 289 30 39
f 39 150 289
f 346 323 350
f 35 258 77
f 37 31 258
f 37 258 35
f 38 31 37
f 35 77 37
f 339 336 338
f 338 336 315
f 338 361 339
f 315 361 338
f 135 63 62
f 62 64 135
f 135 64 78
f 45 88 108
f 91 90 117
f 117 90 89
f 117 97 96
f 96 95 117
f 102 103 117
f 117 95 94
f 94 95 100
f 100 101 94
f 97 63 98
f 98 96 97
f 19 361 315
f 174 59 58
f 163 157 164
f 163 162 157
f 164 59 163
f 79 137 136
f 137 162 136
f 136 163 59
f 162 163 136
f 136 167 220
f 113 114 195
f 114 112 195
f 202 112 203
f 203 112 111
f 117 202 203
f 203 111 117
f 97 111 67
f 111 112 67
f 67 112 66
f 67 66 1
f 1 63 67
f 67 63 97
f 161 86 85
f 85 114 161
f 85 86 114
f 114 86 84
f 87 86 138
f 87 65 66
f 138 65 87
f 73 353 352
f 289 150 149
f 172 176 177
f 177 176 295
f 295 178 177
f 55 53 204
f 110 212 117
f 30 316 333
f 73 352 333
f 333 352 351
f 333 39 30
f 151 39 152
f 150 39 151
f 151 142 150
f 317 323 346
f 318 350 323
f 323 321 320
f 323 320 284
f 310 342 6
f 337 336 339
f 38 37 68
f 296 303 348
f 348 350 296
f 346 350 348
f 92 91 117
f 93 102 117
f 117 94 93
f 101 102 93
f 93 94 101
f 96 98 99
f 100 95 99
f 95 96 99
f 220 167 227
f 20 19 315
f 179 295 20
f 361 19 365
f 295 294 365
f 294 358 365
f 312 315 311
f 312 313 315
f 172 59 173
f 59 174 173
f 173 176 172
f 315 230 229
f 230 223 229
f 315 229 222
f 222 229 223
f 231 230 315
f 315 313 231
f 170 178 179
f 61 59 60
f 59 166 60
f 165 59 164
f 165 166 59
f 185 195 52
f 193 195 112
f 197 212 53
f 83 87 66
f 66 112 83
f 83 84 86
f 86 87 83
f 83 112 114
f 114 84 83
f 61 161 145
f 139 161 113
f 140 139 113
f 293 294 295
f 295 292 293
f 54 266 55
f 265 266 54
f 54 264 265
f 263 264 54
f 109 110 117
f 185 52 56
f 56 52 53
f 56 53 55
f 46 45 108
f 297 303 296
f 132 303 299
f 132 128 131
f 131 303 132
f 319 37 77
f 323 317 319
f 322 321 323
f 323 319 322
f 322 319 77
f 278 318 283
f 283 318 323
f 323 284 283
f 277 22 282
f 69 70 38
f 38 68 69
f 69 68 70
f 339 70 341
f 70 68 341
f 341 337 339
f 341 68 342
f 346 348 345
f 342 68 343
f 68 345 343
f 263 54 327
f 327 54 330
f 321 322 325
f 261 260 316
f 259 333 316
f 316 260 259
f 263 327 259
f 79 81 82
f 82 81 135
f 82 78 79
f 82 135 78
f 79 136 80
f 80 81 79
f 228 227 315
f 315 227 18
f 18 20 315
f 18 227 167
f 295 365 21
f 21 365 19
f 21 20 295
f 19 20 21
f 361 365 362
f 339 361 362
f 362 363 339
f 363 362 364
f 364 362 365
f 71 256 364
f 256 70 364
f 364 70 339
f 339 363 364
f 176 173 175
f 58 291 175
f 175 174 58
f 175 173 174
f 295 176 175
f 175 292 295
f 175 291 292
f 313 314 232
f 232 231 313
f 232 314 47
f 135 81 237
f 237 222 223
f 81 80 237
f 237 136 220
f 237 80 136
f 134 98 63
f 134 237 238
f 134 99 98
f 63 135 134
f 135 237 134
f 136 170 169
f 169 170 179
f 171 177 178
f 178 170 171
f 172 177 171
f 171 170 136
f 171 59 172
f 171 136 59
f 160 60 166
f 160 165 159
f 166 165 160
f 160 159 61
f 61 60 160
f 201 112 202
f 202 212 201
f 53 52 196
f 196 197 53
f 195 197 196
f 154 145 153
f 152 39 153
f 152 153 144
f 144 153 145
f 144 145 161
f 154 155 146
f 146 145 154
f 61 145 146
f 139 140 141
f 141 142 161
f 161 139 141
f 150 142 141
f 141 149 150
f 141 140 149
f 57 61 148
f 148 156 57
f 351 352 356
f 356 333 351
f 39 333 356
f 57 156 285
f 285 156 286
f 54 218 217
f 207 216 217
f 208 216 207
f 207 212 208
f 110 109 211
f 211 210 110
f 181 187 186
f 186 187 113
f 113 195 186
f 186 195 185
f 184 316 30
f 184 183 316
f 184 30 289
f 289 149 184
f 182 181 316
f 316 183 182
f 182 187 181
f 113 187 188
f 187 182 188
f 188 182 183
f 305 303 131
f 300 348 305
f 305 348 303
f 130 305 131
f 16 130 116
f 299 303 298
f 303 297 298
f 41 132 299
f 128 132 129
f 108 128 129
f 129 46 108
f 129 41 46
f 132 41 129
f 275 284 274
f 274 284 320
f 278 283 279
f 279 283 280
f 122 281 280
f 280 283 122
f 43 281 122
f 276 269 277
f 277 282 276
f 276 284 275
f 276 282 284
f 342 310 340
f 310 306 340
f 336 337 340
f 340 341 342
f 337 341 340
f 349 347 346
f 346 345 349
f 349 345 68
f 37 347 349
f 349 68 37
f 344 345 348
f 348 343 344
f 344 343 345
f 329 75 73
f 73 335 329
f 326 322 77
f 326 325 322
f 262 261 180
f 180 56 262
f 316 181 180
f 180 261 316
f 185 56 180
f 180 186 185
f 181 186 180
f 333 259 332
f 332 259 327
f 221 237 220
f 222 237 221
f 220 227 221
f 227 228 221
f 315 222 221
f 221 228 315
f 179 20 17
f 20 18 17
f 17 169 179
f 359 365 358
f 359 364 365
f 51 237 223
f 47 48 51
f 238 237 233
f 233 239 238
f 167 136 168
f 136 169 168
f 169 17 168
f 168 18 167
f 168 17 18
f 194 193 112
f 112 201 194
f 195 193 192
f 198 197 195
f 198 192 199
f 212 197 198
f 198 199 212
f 200 201 212
f 212 199 200
f 190 52 195
f 195 196 190
f 190 196 52
f 152 144 143
f 143 151 152
f 142 151 143
f 161 142 143
f 143 144 161
f 147 146 155
f 155 156 147
f 156 148 147
f 61 146 147
f 147 148 61
f 354 288 290
f 290 356 354
f 39 356 290
f 154 153 290
f 290 153 39
f 288 287 290
f 290 155 154
f 290 287 286
f 290 156 155
f 286 156 290
f 206 212 207
f 207 217 206
f 206 217 218
f 219 218 54
f 55 204 219
f 219 54 55
f 210 211 213
f 272 213 26
f 277 269 270
f 269 272 270
f 272 26 270
f 273 217 216
f 54 217 273
f 29 211 109
f 109 25 29
f 28 213 29
f 29 213 211
f 29 24 28
f 29 25 24
f 113 188 189
f 189 140 113
f 183 184 189
f 189 188 183
f 149 140 189
f 189 184 149
f 300 305 301
f 6 12 255
f 255 310 6
f 254 310 255
f 15 130 16
f 126 116 130
f 126 130 131
f 253 310 254
f 254 247 253
f 42 41 43
f 125 282 22
f 22 23 125
f 125 23 24
f 24 25 125
f 125 25 109
f 121 45 43
f 43 122 121
f 88 45 121
f 307 306 310
f 310 308 307
f 330 273 331
f 331 327 330
f 331 328 327
f 329 328 331
f 325 326 331
f 331 326 329
f 76 326 77
f 258 75 76
f 76 77 258
f 75 329 76
f 329 326 76
f 333 332 334
f 334 332 327
f 327 328 334
f 334 335 73
f 73 333 334
f 354 356 355
f 226 232 47
f 47 51 226
f 195 192 191
f 191 198 195
f 192 198 191
f 205 206 218
f 218 219 205
f 205 219 204
f 212 206 205
f 53 212 205
f 205 204 53
f 110 210 209
f 212 110 209
f 209 208 212
f 22 26 27
f 27 23 22
f 28 24 27
f 24 23 27
f 27 213 28
f 27 26 213
f 214 213 272
f 272 273 214
f 210 213 214
f 214 209 210
f 330 54 271
f 271 273 330
f 54 273 271
f 325 331 324
f 324 331 273
f 2 255 12
f 246 247 254
f 254 255 246
f 14 13 130
f 130 15 14
f 131 128 127
f 127 126 131
f 127 128 108
f 106 89 90
f 5 15 16
f 16 116 5
f 116 115 5
f 48 309 251
f 251 309 308
f 251 308 310
f 49 51 48
f 248 253 247
f 247 49 248
f 248 49 249
f 43 45 44
f 44 42 43
f 46 41 40
f 41 42 40
f 42 44 40
f 123 122 283
f 123 283 284
f 73 72 357
f 357 353 73
f 357 352 353
f 72 71 357
f 357 356 352
f 357 355 356
f 224 51 223
f 224 223 230
f 230 231 224
f 51 235 234
f 237 51 234
f 234 233 237
f 215 273 216
f 215 214 273
f 216 208 215
f 208 209 215
f 209 214 215
f 268 324 273
f 268 272 269
f 268 273 272
f 275 274 268
f 130 13 304
f 13 302 304
f 305 130 304
f 304 301 305
f 304 302 301
f 245 246 255
f 245 2 244
f 255 2 245
f 116 126 133
f 126 106 133
f 133 115 116
f 133 243 115
f 244 243 133
f 133 245 244
f 103 102 133
f 238 239 133
f 239 49 133
f 246 245 133
f 133 102 101
f 247 246 133
f 133 49 247
f 133 101 100
f 100 99 133
f 99 134 133
f 133 134 238
f 126 127 107
f 107 106 126
f 107 127 108
f 89 106 107
f 108 88 107
f 88 89 107
f 3 2 12
f 244 2 3
f 3 243 244
f 115 243 4
f 4 5 115
f 243 3 4
f 4 3 12
f 10 14 15
f 13 14 10
f 310 253 252
f 252 251 310
f 253 248 252
f 249 251 252
f 252 248 249
f 240 49 239
f 239 233 240
f 233 234 240
f 250 49 48
f 249 49 250
f 48 251 250
f 250 251 249
f 120 121 122
f 122 123 120
f 120 89 88
f 88 121 120
f 284 282 124
f 124 123 284
f 282 125 124
f 359 355 360
f 355 357 360
f 364 359 360
f 71 364 360
f 360 357 71
f 225 226 51
f 51 224 225
f 225 224 231
f 231 232 225
f 232 226 225
f 320 324 267
f 324 268 267
f 267 274 320
f 267 268 274
f 103 133 104
f 91 92 104
f 117 103 104
f 104 92 117
f 15 5 11
f 11 10 15
f 5 4 11
f 4 10 11
f 13 10 9
f 9 10 4
f 236 235 51
f 51 49 50
f 49 242 50
f 50 236 51
f 242 236 50
f 235 236 241
f 241 236 242
f 49 240 241
f 241 242 49
f 119 120 123
f 123 124 119
f 117 89 119
f 89 120 119
f 105 133 106
f 105 104 133
f 91 104 105
f 90 91 105
f 105 106 90
f 301 302 8
f 8 4 12
f 8 9 4
f 118 119 124
f 118 125 109
f 118 124 125
f 118 109 117
f 117 119 118
f 7 8 12
f 7 12 6
f 6 342 7
f 7 348 300
f 300 301 7
f 301 8 7
f 342 343 7
f 7 343 348
f 296 350 318
f 318 278 296
f 165 158 159
f 164 158 165
f 56 266 262
f 55 266 56
f 346 347 319
f 319 317 346
f 319 347 37
f 262 266 261
f 261 266 265
f 265 264 261
f 264 260 261
f 259 260 264
f 259 264 263
f 288 354 358
f 288 358 294
f 285 291 58
f 285 58 57
f 286 292 285
f 292 291 285
f 298 281 299
f 280 281 298
f 41 281 43
f 299 281 41
f 296 278 279
f 279 297 296
f 280 298 279
f 279 298 297
f 340 306 311
f 311 336 340
f 200 194 201
f 193 194 200
f 200 192 193
f 199 192 200
f 287 292 286
f 287 293 292
f 287 288 294
f 294 293 287
f 270 26 22
f 270 22 277
f 47 314 309
f 309 48 47
f 309 314 313
f 313 308 309
f 311 306 307
f 307 312 311
f 307 308 313
f 313 312 307
f 334 328 329
f 334 329 335
f 358 354 355
f 355 359 358
f 321 325 324
f 324 320 321
f 40 44 45
f 45 46 40
f 269 276 268
f 268 276 275
f 241 240 234
f 241 234 235
f 13 9 8
f 8 302 13

