# https://github.com/mikedh/trimesh

o p00078.obj
v 15.45000000 12.70000000 46.50000000
v 15.45000000 12.70000000 49.00000000
v 9.95000000 12.70000000 49.00000000
v 9.97561365 12.32554171 49.00000000
v 10.05197746 11.95805888 49.00000000
v 10.17766892 11.60439700 49.00000000
v 10.35034664 11.27114414 49.00000000
v 10.56679395 10.96450815 49.00000000
v 10.82297886 10.69020110 49.00000000
v 11.11412911 10.45333279 49.00000000
v 11.43482115 10.25831565 49.00000000
v 11.77908107 10.10878246 49.00000000
v 12.14049596 10.00751876 49.00000000
v 12.51233336 9.95641088 49.00000000
v 12.88766664 9.95641088 49.00000000
v 13.25950404 10.00751876 49.00000000
v 13.62091893 10.10878246 49.00000000
v 13.96517885 10.25831565 49.00000000
v 14.28587089 10.45333279 49.00000000
v 14.57702114 10.69020110 49.00000000
v 14.83320605 10.96450815 49.00000000
v 15.04965336 11.27114414 49.00000000
v 15.22233108 11.60439700 49.00000000
v 15.34802254 11.95805888 49.00000000
v 15.42438635 12.32554171 49.00000000
v 9.95000000 12.70000000 46.50000000
v 15.42438635 12.32554171 46.50000000
v 15.34802254 11.95805888 46.50000000
v 15.22233108 11.60439700 46.50000000
v 15.04965336 11.27114414 46.50000000
v 14.83320605 10.96450815 46.50000000
v 14.57702114 10.69020110 46.50000000
v 14.28587089 10.45333279 46.50000000
v 13.96517885 10.25831565 46.50000000
v 13.62091893 10.10878246 46.50000000
v 13.25950404 10.00751876 46.50000000
v 12.88766664 9.95641088 46.50000000
v 12.51233336 9.95641088 46.50000000
v 12.14049596 10.00751876 46.50000000
v 11.77908107 10.10878246 46.50000000
v 11.43482115 10.25831565 46.50000000
v 11.11412911 10.45333279 46.50000000
v 10.82297886 10.69020110 46.50000000
v 10.56679395 10.96450815 46.50000000
v 10.35034664 11.27114414 46.50000000
v 10.17766892 11.60439700 46.50000000
v 10.05197746 11.95805888 46.50000000
v 9.97561365 12.32554171 46.50000000
v -9.95000000 12.70000000 46.50000000
v -9.95000000 12.70000000 49.00000000
v -15.45000000 12.70000000 49.00000000
v -15.42438635 12.32554171 49.00000000
v -15.34802254 11.95805888 49.00000000
v -15.22233108 11.60439700 49.00000000
v -15.04965336 11.27114414 49.00000000
v -14.83320605 10.96450815 49.00000000
v -14.57702114 10.69020110 49.00000000
v -14.28587089 10.45333279 49.00000000
v -13.96517885 10.25831565 49.00000000
v -13.62091893 10.10878246 49.00000000
v -13.25950404 10.00751876 49.00000000
v -12.88766664 9.95641088 49.00000000
v -12.51233336 9.95641088 49.00000000
v -12.14049596 10.00751876 49.00000000
v -11.77908107 10.10878246 49.00000000
v -11.43482115 10.25831565 49.00000000
v -11.11412911 10.45333279 49.00000000
v -10.82297886 10.69020110 49.00000000
v -10.56679395 10.96450815 49.00000000
v -10.35034664 11.27114414 49.00000000
v -10.17766892 11.60439700 49.00000000
v -10.05197746 11.95805888 49.00000000
v -9.97561365 12.32554171 49.00000000
v -15.45000000 12.70000000 46.50000000
v -9.97561365 12.32554171 46.50000000
v -10.05197746 11.95805888 46.50000000
v -10.17766892 11.60439700 46.50000000
v -10.35034664 11.27114414 46.50000000
v -10.56679395 10.96450815 46.50000000
v -10.82297886 10.69020110 46.50000000
v -11.11412911 10.45333279 46.50000000
v -11.43482115 10.25831565 46.50000000
v -11.77908107 10.10878246 46.50000000
v -12.14049596 10.00751876 46.50000000
v -12.51233336 9.95641088 46.50000000
v -12.88766664 9.95641088 46.50000000
v -13.25950404 10.00751876 46.50000000
v -13.62091893 10.10878246 46.50000000
v -13.96517885 10.25831565 46.50000000
v -14.28587089 10.45333279 46.50000000
v -14.57702114 10.69020110 46.50000000
v -14.83320605 10.96450815 46.50000000
v -15.04965336 11.27114414 46.50000000
v -15.22233108 11.60439700 46.50000000
v -15.34802254 11.95805888 46.50000000
v -15.42438635 12.32554171 46.50000000
v -53.71802631 315.00000000 46.50000000
v -53.71802631 315.00000000 49.00000000
v -54.12756715 315.00000000 46.47191459
v -54.52943990 315.00000000 46.38818420
v -54.91612006 315.00000000 46.25037659
v -55.28036758 315.00000000 46.06107199
v -55.61536244 315.00000000 45.82381489
v -55.91483231 315.00000000 45.54304758
v -56.17317004 315.00000000 45.22402704
v -56.38553863 315.00000000 44.87272650
v -56.54796175 315.00000000 44.49572356
v -56.65739827 315.00000000 44.10007708
v -56.71179913 315.00000000 43.69319499
v -56.71014576 315.00000000 43.28269560
v -56.65246911 315.00000000 42.87626493
v -59.09783811 315.00000000 42.35648570
v -54.46885117 315.00000000 48.94851007
v -55.20561789 315.00000000 48.79500437
v -55.91453152 315.00000000 48.54235707
v -56.58231864 315.00000000 48.19529865
v -57.19647588 315.00000000 47.76032729
v -57.74550398 315.00000000 47.24558722
v -58.21912316 315.00000000 46.66071624
v -58.60846556 315.00000000 46.01666525
v -58.90624128 315.00000000 45.32549319
v -59.10687490 315.00000000 44.60014132
v -59.20660981 315.00000000 43.85419082
v -59.20357863 315.00000000 43.10160860
v 53.71802631 315.00000000 46.50000000
v 53.71802631 315.00000000 49.00000000
v -56.65246911 0.00000000 42.87626493
v -59.09783811 0.00000000 42.35648570
v -53.71802631 0.00000000 46.50000000
v -54.12756715 0.00000000 46.47191459
v -54.52943990 0.00000000 46.38818420
v -54.91612006 0.00000000 46.25037659
v -55.28036758 0.00000000 46.06107199
v -55.61536244 0.00000000 45.82381489
v -55.91483231 0.00000000 45.54304758
v -56.17317004 0.00000000 45.22402704
v -56.38553863 0.00000000 44.87272650
v -56.54796175 0.00000000 44.49572356
v -56.65739827 0.00000000 44.10007708
v -56.71179913 0.00000000 43.69319499
v -56.71014576 0.00000000 43.28269560
v -53.71802631 0.00000000 49.00000000
v -54.46885117 0.00000000 48.94851007
v -55.20561789 0.00000000 48.79500437
v -55.91453152 0.00000000 48.54235707
v -56.58231864 0.00000000 48.19529865
v -57.19647588 0.00000000 47.76032729
v -57.74550398 0.00000000 47.24558722
v -58.21912316 0.00000000 46.66071624
v -58.60846556 0.00000000 46.01666525
v -58.90624128 0.00000000 45.32549319
v -59.10687490 0.00000000 44.60014132
v -59.20660981 0.00000000 43.85419082
v -59.20357863 0.00000000 43.10160860
v -55.57050684 0.00000000 25.76169678
v -53.12513784 0.00000000 26.28147601
v 56.65246911 315.00000000 42.87626493
v 59.09783811 315.00000000 42.35648570
v 56.71014576 315.00000000 43.28269560
v 56.71179913 315.00000000 43.69319499
v 56.65739827 315.00000000 44.10007708
v 56.54796175 315.00000000 44.49572356
v 56.38553863 315.00000000 44.87272650
v 56.17317004 315.00000000 45.22402704
v 55.91483231 315.00000000 45.54304758
v 55.61536244 315.00000000 45.82381489
v 55.28036758 315.00000000 46.06107199
v 54.91612006 315.00000000 46.25037659
v 54.52943990 315.00000000 46.38818420
v 54.12756715 315.00000000 46.47191459
v 59.20357863 315.00000000 43.10160860
v 59.20660981 315.00000000 43.85419082
v 59.10687490 315.00000000 44.60014132
v 58.90624128 315.00000000 45.32549319
v 58.60846556 315.00000000 46.01666525
v 58.21912316 315.00000000 46.66071624
v 57.74550398 315.00000000 47.24558722
v 57.19647588 315.00000000 47.76032729
v 56.58231864 315.00000000 48.19529865
v 55.91453152 315.00000000 48.54235707
v 55.20561789 315.00000000 48.79500437
v 54.46885117 315.00000000 48.94851007
v 55.57050684 315.00000000 25.76169678
v 53.12513784 315.00000000 26.28147601
v 53.71802631 0.00000000 46.50000000
v 53.71802631 0.00000000 49.00000000
v 56.65246911 0.00000000 42.87626493
v 56.71014576 0.00000000 43.28269560
v 56.71179913 0.00000000 43.69319499
v 56.65739827 0.00000000 44.10007708
v 56.54796175 0.00000000 44.49572356
v 56.38553863 0.00000000 44.87272650
v 56.17317004 0.00000000 45.22402704
v 55.91483231 0.00000000 45.54304758
v 55.61536244 0.00000000 45.82381489
v 55.28036758 0.00000000 46.06107199
v 54.91612006 0.00000000 46.25037659
v 54.52943990 0.00000000 46.38818420
v 54.12756715 0.00000000 46.47191459
v 59.09783811 0.00000000 42.35648570
v 59.20357863 0.00000000 43.10160860
v 59.20660981 0.00000000 43.85419082
v 59.10687490 0.00000000 44.60014132
v 58.90624128 0.00000000 45.32549319
v 58.60846556 0.00000000 46.01666525
v 58.21912316 0.00000000 46.66071624
v 57.74550398 0.00000000 47.24558722
v 57.19647588 0.00000000 47.76032729
v 56.58231864 0.00000000 48.19529865
v 55.91453152 0.00000000 48.54235707
v 55.20561789 0.00000000 48.79500437
v 54.46885117 0.00000000 48.94851007
v -53.12513784 315.00000000 26.28147601
v -51.04602093 305.00000000 16.50000000
v -51.06380806 306.30526192 16.58368188
v -51.11686512 307.58819045 16.83329571
v -51.20428428 308.82683432 17.24457053
v -51.32456978 310.00000000 17.81046930
v -51.47566349 311.08761429 18.52130934
v -51.65498017 312.07106781 19.36492799
v -51.85945166 312.93353340 20.32689070
v -52.08557938 313.66025404 21.39073800
v -52.32949424 314.23879533 22.53826720
v -52.58702278 314.65925826 23.74984373
v -52.85375862 314.91444861 25.00473719
v -51.04602093 10.00000000 16.50000000
v -52.85375862 0.08555139 25.00473719
v -52.58702278 0.34074174 23.74984373
v -52.32949424 0.76120467 22.53826720
v -52.08557938 1.33974596 21.39073800
v -51.85945166 2.06646660 20.32689070
v -51.65498017 2.92893219 19.36492799
v -51.47566349 3.91238571 18.52130934
v -51.32456978 5.00000000 17.81046930
v -51.20428428 6.17316568 17.24457053
v -51.11686512 7.41180955 16.83329571
v -51.06380806 8.69473808 16.58368188
v -52.81327030 13.25000000 24.81425461
v -52.82246868 12.60320842 24.85752957
v -52.84989247 11.96846534 24.98654835
v -52.89503081 11.35759482 25.19890755
v -52.95704286 10.78197624 25.49065133
v -53.03477346 10.25233226 25.85634505
v -53.12677464 9.77852917 26.28917654
v -53.23133257 9.36939301 26.78108296
v -53.34649956 9.03254521 27.32290102
v -53.47013025 8.77426062 27.90453769
v -53.59992163 8.59935058 28.51515816
v -53.73345595 8.51107335 29.14338773
v -53.86824571 8.51107335 29.77752369
v -54.00178003 8.59935058 30.40575326
v -54.13157142 8.77426062 31.01637373
v -54.25520211 9.03254521 31.59801040
v -54.37036909 9.36939301 32.13982846
v -54.47492703 9.77852917 32.63173488
v -54.56692820 10.25233226 33.06456636
v -54.64465880 10.78197624 33.43026009
v -54.70667086 11.35759482 33.72200387
v -54.75180920 11.96846534 33.93436307
v -54.77923299 12.60320842 34.06338185
v -54.78843136 13.25000000 34.10665681
v -52.81327030 301.75000000 24.81425461
v -54.78843136 301.75000000 34.10665681
v -54.77923299 302.39679158 34.06338185
v -54.75180920 303.03153466 33.93436307
v -54.70667086 303.64240518 33.72200387
v -54.64465880 304.21802376 33.43026009
v -54.56692820 304.74766774 33.06456636
v -54.47492703 305.22147083 32.63173488
v -54.37036909 305.63060699 32.13982846
v -54.25520211 305.96745479 31.59801040
v -54.13157142 306.22573938 31.01637373
v -54.00178003 306.40064942 30.40575326
v -53.86824571 306.48892665 29.77752369
v -53.73345595 306.48892665 29.14338773
v -53.59992163 306.40064942 28.51515816
v -53.47013025 306.22573938 27.90453769
v -53.34649956 305.96745479 27.32290102
v -53.23133257 305.63060699 26.78108296
v -53.12677464 305.22147083 26.28917654
v -53.03477346 304.74766774 25.85634505
v -52.95704286 304.21802376 25.49065133
v -52.89503081 303.64240518 25.19890755
v -52.84989247 303.03153466 24.98654835
v -52.82246868 302.39679158 24.85752957
v -53.49138993 10.00000000 15.98022077
v -53.49138993 305.00000000 15.98022077
v -53.50917706 8.69473808 16.06390266
v -53.56223412 7.41180955 16.31351649
v -53.64965328 6.17316568 16.72479130
v -53.76993878 5.00000000 17.29069007
v -53.92103249 3.91238571 18.00153012
v -54.10034917 2.92893219 18.84514877
v -54.30482066 2.06646660 19.80711147
v -54.53094838 1.33974596 20.87095878
v -54.77486324 0.76120467 22.01848797
v -55.03239179 0.34074174 23.23006450
v -55.29912763 0.08555139 24.48495796
v -55.57050684 315.00000000 25.76169678
v -55.29912763 314.91444861 24.48495796
v -55.03239179 314.65925826 23.23006450
v -54.77486324 314.23879533 22.01848797
v -54.53094838 313.66025404 20.87095878
v -54.30482066 312.93353340 19.80711147
v -54.10034917 312.07106781 18.84514877
v -53.92103249 311.08761429 18.00153012
v -53.76993878 310.00000000 17.29069007
v -53.64965328 308.82683432 16.72479130
v -53.56223412 307.58819045 16.31351649
v -53.50917706 306.30526192 16.06390266
v -55.25863930 301.75000000 24.29447538
v -55.26783768 302.39679158 24.33775035
v -55.29526147 303.03153466 24.46676912
v -55.34039981 303.64240518 24.67912832
v -55.40241186 304.21802376 24.97087210
v -55.48014247 304.74766774 25.33656583
v -55.57214364 305.22147083 25.76939732
v -55.67670157 305.63060699 26.26130373
v -55.79186856 305.96745479 26.80312180
v -55.91549925 306.22573938 27.38475846
v -56.04529064 306.40064942 27.99537893
v -56.17882496 306.48892665 28.62360851
v -56.31361471 306.48892665 29.25774446
v -56.44714903 306.40064942 29.88597404
v -56.57694042 306.22573938 30.49659451
v -56.70057111 305.96745479 31.07823117
v -56.81573809 305.63060699 31.62004923
v -56.92029603 305.22147083 32.11195565
v -57.01229720 304.74766774 32.54478714
v -57.09002780 304.21802376 32.91048086
v -57.15203986 303.64240518 33.20222464
v -57.19717820 303.03153466 33.41458385
v -57.22460199 302.39679158 33.54360262
v -57.23380037 301.75000000 33.58687759
v -57.23380037 13.25000000 33.58687759
v -57.22460199 12.60320842 33.54360262
v -57.19717820 11.96846534 33.41458385
v -57.15203986 11.35759482 33.20222464
v -57.09002780 10.78197624 32.91048086
v -57.01229720 10.25233226 32.54478714
v -56.92029603 9.77852917 32.11195565
v -56.81573809 9.36939301 31.62004923
v -56.70057111 9.03254521 31.07823117
v -56.57694042 8.77426062 30.49659451
v -56.44714903 8.59935058 29.88597404
v -56.31361471 8.51107335 29.25774446
v -56.17882496 8.51107335 28.62360851
v -56.04529064 8.59935058 27.99537893
v -55.91549925 8.77426062 27.38475846
v -55.79186856 9.03254521 26.80312180
v -55.67670157 9.36939301 26.26130373
v -55.57214364 9.77852917 25.76939732
v -55.48014247 10.25233226 25.33656583
v -55.40241186 10.78197624 24.97087210
v -55.34039981 11.35759482 24.67912832
v -55.29526147 11.96846534 24.46676912
v -55.26783768 12.60320842 24.33775035
v -55.25863930 13.25000000 24.29447538
v 15.42438635 13.07445829 49.00000000
v 15.34802254 13.44194112 49.00000000
v 15.22233108 13.79560300 49.00000000
v 15.04965336 14.12885586 49.00000000
v 14.83320605 14.43549185 49.00000000
v 14.57702114 14.70979890 49.00000000
v 14.28587089 14.94666721 49.00000000
v 13.96517885 15.14168435 49.00000000
v 13.62091893 15.29121754 49.00000000
v 13.25950404 15.39248124 49.00000000
v 12.88766664 15.44358912 49.00000000
v 12.51233336 15.44358912 49.00000000
v 12.14049596 15.39248124 49.00000000
v 11.77908107 15.29121754 49.00000000
v 11.43482115 15.14168435 49.00000000
v 11.11412911 14.94666721 49.00000000
v 10.82297886 14.70979890 49.00000000
v 10.56679395 14.43549185 49.00000000
v 10.35034664 14.12885586 49.00000000
v 10.17766892 13.79560300 49.00000000
v 10.05197746 13.44194112 49.00000000
v 9.97561365 13.07445829 49.00000000
v -15.45000000 270.40560000 49.00000000
v -15.42438635 270.03114171 49.00000000
v -15.34802254 269.66365888 49.00000000
v -15.22233108 269.30999700 49.00000000
v -15.04965336 268.97674414 49.00000000
v -14.83320605 268.67010815 49.00000000
v -14.57702114 268.39580110 49.00000000
v -14.28587089 268.15893279 49.00000000
v -13.96517885 267.96391565 49.00000000
v -13.62091893 267.81438246 49.00000000
v -13.25950404 267.71311876 49.00000000
v -12.88766664 267.66201088 49.00000000
v -12.51233336 267.66201088 49.00000000
v -12.14049596 267.71311876 49.00000000
v -11.77908107 267.81438246 49.00000000
v -11.43482115 267.96391565 49.00000000
v -11.11412911 268.15893279 49.00000000
v -10.82297886 268.39580110 49.00000000
v -10.56679395 268.67010815 49.00000000
v -10.35034664 268.97674414 49.00000000
v -10.17766892 269.30999700 49.00000000
v -10.05197746 269.66365888 49.00000000
v -9.97561365 270.03114171 49.00000000
v -9.95000000 270.40560000 49.00000000
v -15.45000000 276.40560000 49.00000000
v -9.95000000 276.40560000 49.00000000
v -9.97561365 276.78005829 49.00000000
v -10.05197746 277.14754112 49.00000000
v -10.17766892 277.50120300 49.00000000
v -10.35034664 277.83445586 49.00000000
v -10.56679395 278.14109185 49.00000000
v -10.82297886 278.41539890 49.00000000
v -11.11412911 278.65226721 49.00000000
v -11.43482115 278.84728435 49.00000000
v -11.77908107 278.99681754 49.00000000
v -12.14049596 279.09808124 49.00000000
v -12.51233336 279.14918912 49.00000000
v -12.88766664 279.14918912 49.00000000
v -13.25950404 279.09808124 49.00000000
v -13.62091893 278.99681754 49.00000000
v -13.96517885 278.84728435 49.00000000
v -14.28587089 278.65226721 49.00000000
v -14.57702114 278.41539890 49.00000000
v -14.83320605 278.14109185 49.00000000
v -15.04965336 277.83445586 49.00000000
v -15.22233108 277.50120300 49.00000000
v -15.34802254 277.14754112 49.00000000
v -15.42438635 276.78005829 49.00000000
v 9.95000000 270.40560000 49.00000000
v 9.97561365 270.03114171 49.00000000
v 10.05197746 269.66365888 49.00000000
v 10.17766892 269.30999700 49.00000000
v 10.35034664 268.97674414 49.00000000
v 10.56679395 268.67010815 49.00000000
v 10.82297886 268.39580110 49.00000000
v 11.11412911 268.15893279 49.00000000
v 11.43482115 267.96391565 49.00000000
v 11.77908107 267.81438246 49.00000000
v 12.14049596 267.71311876 49.00000000
v 12.51233336 267.66201088 49.00000000
v 12.88766664 267.66201088 49.00000000
v 13.25950404 267.71311876 49.00000000
v 13.62091893 267.81438246 49.00000000
v 13.96517885 267.96391565 49.00000000
v 14.28587089 268.15893279 49.00000000
v 14.57702114 268.39580110 49.00000000
v 14.83320605 268.67010815 49.00000000
v 15.04965336 268.97674414 49.00000000
v 15.22233108 269.30999700 49.00000000
v 15.34802254 269.66365888 49.00000000
v 15.42438635 270.03114171 49.00000000
v 15.45000000 270.40560000 49.00000000
v 9.95000000 276.40560000 49.00000000
v 15.45000000 276.40560000 49.00000000
v 15.42438635 276.78005829 49.00000000
v 15.34802254 277.14754112 49.00000000
v 15.22233108 277.50120300 49.00000000
v 15.04965336 277.83445586 49.00000000
v 14.83320605 278.14109185 49.00000000
v 14.57702114 278.41539890 49.00000000
v 14.28587089 278.65226721 49.00000000
v 13.96517885 278.84728435 49.00000000
v 13.62091893 278.99681754 49.00000000
v 13.25950404 279.09808124 49.00000000
v 12.88766664 279.14918912 49.00000000
v 12.51233336 279.14918912 49.00000000
v 12.14049596 279.09808124 49.00000000
v 11.77908107 278.99681754 49.00000000
v 11.43482115 278.84728435 49.00000000
v 11.11412911 278.65226721 49.00000000
v 10.82297886 278.41539890 49.00000000
v 10.56679395 278.14109185 49.00000000
v 10.35034664 277.83445586 49.00000000
v 10.17766892 277.50120300 49.00000000
v 10.05197746 277.14754112 49.00000000
v 9.97561365 276.78005829 49.00000000
v -9.97561365 13.07445829 49.00000000
v -10.05197746 13.44194112 49.00000000
v -10.17766892 13.79560300 49.00000000
v -10.35034664 14.12885586 49.00000000
v -10.56679395 14.43549185 49.00000000
v -10.82297886 14.70979890 49.00000000
v -11.11412911 14.94666721 49.00000000
v -11.43482115 15.14168435 49.00000000
v -11.77908107 15.29121754 49.00000000
v -12.14049596 15.39248124 49.00000000
v -12.51233336 15.44358912 49.00000000
v -12.88766664 15.44358912 49.00000000
v -13.25950404 15.39248124 49.00000000
v -13.62091893 15.29121754 49.00000000
v -13.96517885 15.14168435 49.00000000
v -14.28587089 14.94666721 49.00000000
v -14.57702114 14.70979890 49.00000000
v -14.83320605 14.43549185 49.00000000
v -15.04965336 14.12885586 49.00000000
v -15.22233108 13.79560300 49.00000000
v -15.34802254 13.44194112 49.00000000
v -15.42438635 13.07445829 49.00000000
v 53.49138993 305.00000000 15.98022077
v 53.49138993 10.00000000 15.98022077
v 53.50917706 306.30526192 16.06390266
v 53.56223412 307.58819045 16.31351649
v 53.64965328 308.82683432 16.72479130
v 53.76993878 310.00000000 17.29069007
v 53.92103249 311.08761429 18.00153012
v 54.10034917 312.07106781 18.84514877
v 54.30482066 312.93353340 19.80711147
v 54.53094838 313.66025404 20.87095878
v 54.77486324 314.23879533 22.01848797
v 55.03239179 314.65925826 23.23006450
v 55.29912763 314.91444861 24.48495796
v 55.57050684 0.00000000 25.76169678
v 55.29912763 0.08555139 24.48495796
v 55.03239179 0.34074174 23.23006450
v 54.77486324 0.76120467 22.01848797
v 54.53094838 1.33974596 20.87095878
v 54.30482066 2.06646660 19.80711147
v 54.10034917 2.92893219 18.84514877
v 53.92103249 3.91238571 18.00153012
v 53.76993878 5.00000000 17.29069007
v 53.64965328 6.17316568 16.72479130
v 53.56223412 7.41180955 16.31351649
v 53.50917706 8.69473808 16.06390266
v 55.25863930 301.75000000 24.29447538
v 55.26783768 302.39679158 24.33775035
v 55.29526147 303.03153466 24.46676912
v 55.34039981 303.64240518 24.67912832
v 55.40241186 304.21802376 24.97087210
v 55.48014247 304.74766774 25.33656583
v 55.57214364 305.22147083 25.76939732
v 55.67670157 305.63060699 26.26130373
v 55.79186856 305.96745479 26.80312180
v 55.91549925 306.22573938 27.38475846
v 56.04529064 306.40064942 27.99537893
v 56.17882496 306.48892665 28.62360851
v 56.31361471 306.48892665 29.25774446
v 56.44714903 306.40064942 29.88597404
v 56.57694042 306.22573938 30.49659451
v 56.70057111 305.96745479 31.07823117
v 56.81573809 305.63060699 31.62004923
v 56.92029603 305.22147083 32.11195565
v 57.01229720 304.74766774 32.54478714
v 57.09002780 304.21802376 32.91048086
v 57.15203986 303.64240518 33.20222464
v 57.19717820 303.03153466 33.41458385
v 57.22460199 302.39679158 33.54360262
v 57.23380037 301.75000000 33.58687759
v 55.25863930 13.25000000 24.29447538
v 57.23380037 13.25000000 33.58687759
v 57.22460199 12.60320842 33.54360262
v 57.19717820 11.96846534 33.41458385
v 57.15203986 11.35759482 33.20222464
v 57.09002780 10.78197624 32.91048086
v 57.01229720 10.25233226 32.54478714
v 56.92029603 9.77852917 32.11195565
v 56.81573809 9.36939301 31.62004923
v 56.70057111 9.03254521 31.07823117
v 56.57694042 8.77426062 30.49659451
v 56.44714903 8.59935058 29.88597404
v 56.31361471 8.51107335 29.25774446
v 56.17882496 8.51107335 28.62360851
v 56.04529064 8.59935058 27.99537893
v 55.91549925 8.77426062 27.38475846
v 55.79186856 9.03254521 26.80312180
v 55.67670157 9.36939301 26.26130373
v 55.57214364 9.77852917 25.76939732
v 55.48014247 10.25233226 25.33656583
v 55.40241186 10.78197624 24.97087210
v 55.34039981 11.35759482 24.67912832
v 55.29526147 11.96846534 24.46676912
v 55.26783768 12.60320842 24.33775035
v 51.04602093 305.00000000 16.50000000
v 51.04602093 10.00000000 16.50000000
v 53.12513784 0.00000000 26.28147601
v 51.06380806 8.69473808 16.58368188
v 51.11686512 7.41180955 16.83329571
v 51.20428428 6.17316568 17.24457053
v 51.32456978 5.00000000 17.81046930
v 51.47566349 3.91238571 18.52130934
v 51.65498017 2.92893219 19.36492799
v 51.85945166 2.06646660 20.32689070
v 52.08557938 1.33974596 21.39073800
v 52.32949424 0.76120467 22.53826720
v 52.58702278 0.34074174 23.74984373
v 52.85375862 0.08555139 25.00473719
v 52.85375862 314.91444861 25.00473719
v 52.58702278 314.65925826 23.74984373
v 52.32949424 314.23879533 22.53826720
v 52.08557938 313.66025404 21.39073800
v 51.85945166 312.93353340 20.32689070
v 51.65498017 312.07106781 19.36492799
v 51.47566349 311.08761429 18.52130934
v 51.32456978 310.00000000 17.81046930
v 51.20428428 308.82683432 17.24457053
v 51.11686512 307.58819045 16.83329571
v 51.06380806 306.30526192 16.58368188
v 52.81327030 13.25000000 24.81425461
v 52.82246868 12.60320842 24.85752957
v 52.84989247 11.96846534 24.98654835
v 52.89503081 11.35759482 25.19890755
v 52.95704286 10.78197624 25.49065133
v 53.03477346 10.25233226 25.85634505
v 53.12677464 9.77852917 26.28917654
v 53.23133257 9.36939301 26.78108296
v 53.34649956 9.03254521 27.32290102
v 53.47013025 8.77426062 27.90453769
v 53.59992163 8.59935058 28.51515816
v 53.73345595 8.51107335 29.14338773
v 53.86824571 8.51107335 29.77752369
v 54.00178003 8.59935058 30.40575326
v 54.13157142 8.77426062 31.01637373
v 54.25520211 9.03254521 31.59801040
v 54.37036909 9.36939301 32.13982846
v 54.47492703 9.77852917 32.63173488
v 54.56692820 10.25233226 33.06456636
v 54.64465880 10.78197624 33.43026009
v 54.70667086 11.35759482 33.72200387
v 54.75180920 11.96846534 33.93436307
v 54.77923299 12.60320842 34.06338185
v 54.78843136 13.25000000 34.10665681
v 54.78843136 301.75000000 34.10665681
v 54.77923299 302.39679158 34.06338185
v 54.75180920 303.03153466 33.93436307
v 54.70667086 303.64240518 33.72200387
v 54.64465880 304.21802376 33.43026009
v 54.56692820 304.74766774 33.06456636
v 54.47492703 305.22147083 32.63173488
v 54.37036909 305.63060699 32.13982846
v 54.25520211 305.96745479 31.59801040
v 54.13157142 306.22573938 31.01637373
v 54.00178003 306.40064942 30.40575326
v 53.86824571 306.48892665 29.77752369
v 53.73345595 306.48892665 29.14338773
v 53.59992163 306.40064942 28.51515816
v 53.47013025 306.22573938 27.90453769
v 53.34649956 305.96745479 27.32290102
v 53.23133257 305.63060699 26.78108296
v 53.12677464 305.22147083 26.28917654
v 53.03477346 304.74766774 25.85634505
v 52.95704286 304.21802376 25.49065133
v 52.89503081 303.64240518 25.19890755
v 52.84989247 303.03153466 24.98654835
v 52.82246868 302.39679158 24.85752957
v 52.81327030 301.75000000 24.81425461
v 9.97561365 13.07445829 46.50000000
v 10.05197746 13.44194112 46.50000000
v 10.17766892 13.79560300 46.50000000
v 10.35034664 14.12885586 46.50000000
v 10.56679395 14.43549185 46.50000000
v 10.82297886 14.70979890 46.50000000
v 11.11412911 14.94666721 46.50000000
v 11.43482115 15.14168435 46.50000000
v 11.77908107 15.29121754 46.50000000
v 12.14049596 15.39248124 46.50000000
v 12.51233336 15.44358912 46.50000000
v 12.88766664 15.44358912 46.50000000
v 13.25950404 15.39248124 46.50000000
v 13.62091893 15.29121754 46.50000000
v 13.96517885 15.14168435 46.50000000
v 14.28587089 14.94666721 46.50000000
v 14.57702114 14.70979890 46.50000000
v 14.83320605 14.43549185 46.50000000
v 15.04965336 14.12885586 46.50000000
v 15.22233108 13.79560300 46.50000000
v 15.34802254 13.44194112 46.50000000
v 15.42438635 13.07445829 46.50000000
v -15.45000000 276.40560000 46.50000000
v -15.42438635 276.78005829 46.50000000
v -15.34802254 277.14754112 46.50000000
v -15.22233108 277.50120300 46.50000000
v -15.04965336 277.83445586 46.50000000
v -14.83320605 278.14109185 46.50000000
v -14.57702114 278.41539890 46.50000000
v -14.28587089 278.65226721 46.50000000
v -13.96517885 278.84728435 46.50000000
v -13.62091893 278.99681754 46.50000000
v -13.25950404 279.09808124 46.50000000
v -12.88766664 279.14918912 46.50000000
v -12.51233336 279.14918912 46.50000000
v -12.14049596 279.09808124 46.50000000
v -11.77908107 278.99681754 46.50000000
v -11.43482115 278.84728435 46.50000000
v -11.11412911 278.65226721 46.50000000
v -10.82297886 278.41539890 46.50000000
v -10.56679395 278.14109185 46.50000000
v -10.35034664 277.83445586 46.50000000
v -10.17766892 277.50120300 46.50000000
v -10.05197746 277.14754112 46.50000000
v -9.97561365 276.78005829 46.50000000
v -9.95000000 276.40560000 46.50000000
v -9.95000000 270.40560000 46.50000000
v -9.97561365 270.03114171 46.50000000
v -10.05197746 269.66365888 46.50000000
v -10.17766892 269.30999700 46.50000000
v -10.35034664 268.97674414 46.50000000
v -10.56679395 268.67010815 46.50000000
v -10.82297886 268.39580110 46.50000000
v -11.11412911 268.15893279 46.50000000
v -11.43482115 267.96391565 46.50000000
v -11.77908107 267.81438246 46.50000000
v -12.14049596 267.71311876 46.50000000
v -12.51233336 267.66201088 46.50000000
v -12.88766664 267.66201088 46.50000000
v -13.25950404 267.71311876 46.50000000
v -13.62091893 267.81438246 46.50000000
v -13.96517885 267.96391565 46.50000000
v -14.28587089 268.15893279 46.50000000
v -14.57702114 268.39580110 46.50000000
v -14.83320605 268.67010815 46.50000000
v -15.04965336 268.97674414 46.50000000
v -15.22233108 269.30999700 46.50000000
v -15.34802254 269.66365888 46.50000000
v -15.42438635 270.03114171 46.50000000
v -15.45000000 270.40560000 46.50000000
v 9.95000000 276.40560000 46.50000000
v 9.97561365 276.78005829 46.50000000
v 10.05197746 277.14754112 46.50000000
v 10.17766892 277.50120300 46.50000000
v 10.35034664 277.83445586 46.50000000
v 10.56679395 278.14109185 46.50000000
v 10.82297886 278.41539890 46.50000000
v 11.11412911 278.65226721 46.50000000
v 11.43482115 278.84728435 46.50000000
v 11.77908107 278.99681754 46.50000000
v 12.14049596 279.09808124 46.50000000
v 12.51233336 279.14918912 46.50000000
v 12.88766664 279.14918912 46.50000000
v 13.25950404 279.09808124 46.50000000
v 13.62091893 278.99681754 46.50000000
v 13.96517885 278.84728435 46.50000000
v 14.28587089 278.65226721 46.50000000
v 14.57702114 278.41539890 46.50000000
v 14.83320605 278.14109185 46.50000000
v 15.04965336 277.83445586 46.50000000
v 15.22233108 277.50120300 46.50000000
v 15.34802254 277.14754112 46.50000000
v 15.42438635 276.78005829 46.50000000
v 15.45000000 276.40560000 46.50000000
v 15.45000000 270.40560000 46.50000000
v 15.42438635 270.03114171 46.50000000
v 15.34802254 269.66365888 46.50000000
v 15.22233108 269.30999700 46.50000000
v 15.04965336 268.97674414 46.50000000
v 14.83320605 268.67010815 46.50000000
v 14.57702114 268.39580110 46.50000000
v 14.28587089 268.15893279 46.50000000
v 13.96517885 267.96391565 46.50000000
v 13.62091893 267.81438246 46.50000000
v 13.25950404 267.71311876 46.50000000
v 12.88766664 267.66201088 46.50000000
v 12.51233336 267.66201088 46.50000000
v 12.14049596 267.71311876 46.50000000
v 11.77908107 267.81438246 46.50000000
v 11.43482115 267.96391565 46.50000000
v 11.11412911 268.15893279 46.50000000
v 10.82297886 268.39580110 46.50000000
v 10.56679395 268.67010815 46.50000000
v 10.35034664 268.97674414 46.50000000
v 10.17766892 269.30999700 46.50000000
v 10.05197746 269.66365888 46.50000000
v 9.97561365 270.03114171 46.50000000
v 9.95000000 270.40560000 46.50000000
v -15.42438635 13.07445829 46.50000000
v -15.34802254 13.44194112 46.50000000
v -15.22233108 13.79560300 46.50000000
v -15.04965336 14.12885586 46.50000000
v -14.83320605 14.43549185 46.50000000
v -14.57702114 14.70979890 46.50000000
v -14.28587089 14.94666721 46.50000000
v -13.96517885 15.14168435 46.50000000
v -13.62091893 15.29121754 46.50000000
v -13.25950404 15.39248124 46.50000000
v -12.88766664 15.44358912 46.50000000
v -12.51233336 15.44358912 46.50000000
v -12.14049596 15.39248124 46.50000000
v -11.77908107 15.29121754 46.50000000
v -11.43482115 15.14168435 46.50000000
v -11.11412911 14.94666721 46.50000000
v -10.82297886 14.70979890 46.50000000
v -10.56679395 14.43549185 46.50000000
v -10.35034664 14.12885586 46.50000000
v -10.17766892 13.79560300 46.50000000
v -10.05197746 13.44194112 46.50000000
v -9.97561365 13.07445829 46.50000000
f 4 26 3
f 4 48 26
f 5 47 48
f 5 48 4
f 6 46 47
f 6 47 5
f 7 45 46
f 7 46 6
f 8 44 45
f 8 45 7
f 9 43 44
f 9 44 8
f 10 42 43
f 10 43 9
f 11 40 41
f 11 41 42
f 11 42 10
f 12 40 11
f 13 39 40
f 13 40 12
f 14 37 38
f 14 38 39
f 14 39 13
f 15 36 37
f 15 37 14
f 16 36 15
f 16 35 36
f 17 35 16
f 17 34 35
f 18 34 17
f 18 33 34
f 19 33 18
f 19 32 33
f 20 32 19
f 20 31 32
f 21 31 20
f 21 30 31
f 22 30 21
f 22 29 30
f 23 29 22
f 24 27 28
f 24 28 29
f 24 29 23
f 25 27 24
f 2 1 27
f 2 27 25
f 52 74 51
f 52 96 74
f 53 95 96
f 53 96 52
f 54 94 95
f 54 95 53
f 55 93 94
f 55 94 54
f 56 92 93
f 56 93 55
f 57 91 92
f 57 92 56
f 58 90 91
f 58 91 57
f 59 88 89
f 59 89 90
f 59 90 58
f 60 88 59
f 61 87 88
f 61 88 60
f 62 85 86
f 62 86 87
f 62 87 61
f 63 84 85
f 63 85 62
f 64 84 63
f 64 83 84
f 65 83 64
f 65 82 83
f 66 82 65
f 66 81 82
f 67 81 66
f 67 80 81
f 68 80 67
f 68 79 80
f 69 79 68
f 69 78 79
f 70 78 69
f 70 77 78
f 71 77 70
f 72 75 76
f 72 76 77
f 72 77 71
f 73 75 72
f 50 49 75
f 50 75 73
f 111 112 124
f 110 111 124
f 109 124 123
f 109 110 124
f 108 123 122
f 108 109 123
f 107 122 121
f 107 108 122
f 106 121 120
f 106 107 121
f 105 120 119
f 105 106 120
f 104 119 118
f 104 105 119
f 117 103 104
f 117 104 118
f 102 103 117
f 116 101 102
f 116 102 117
f 115 100 101
f 115 101 116
f 114 99 100
f 114 100 115
f 113 99 114
f 98 97 99
f 98 99 113
f 125 97 98
f 126 125 98
f 134 147 148
f 134 148 135
f 136 148 149
f 136 135 148
f 133 146 147
f 133 147 134
f 137 149 150
f 137 150 151
f 137 136 149
f 132 145 146
f 132 146 133
f 138 137 151
f 131 144 145
f 131 145 132
f 139 151 152
f 139 138 151
f 130 143 144
f 130 144 131
f 140 152 153
f 140 139 152
f 129 142 143
f 129 143 130
f 141 153 154
f 141 140 153
f 127 154 128
f 127 141 154
f 156 128 155
f 156 127 128
f 158 157 159
f 171 158 159
f 172 159 160
f 172 171 159
f 182 170 125
f 182 125 126
f 173 160 161
f 173 172 160
f 181 169 170
f 181 170 182
f 174 161 162
f 174 162 163
f 174 173 161
f 180 168 169
f 180 169 181
f 175 163 164
f 175 174 163
f 179 167 168
f 179 168 180
f 176 164 165
f 176 175 164
f 178 166 167
f 178 167 179
f 177 165 166
f 177 166 178
f 177 176 165
f 158 183 184
f 158 184 157
f 185 212 186
f 199 211 212
f 199 212 185
f 198 210 211
f 198 211 199
f 197 209 210
f 197 210 198
f 196 209 197
f 208 209 196
f 195 208 196
f 207 195 194
f 207 208 195
f 206 194 193
f 206 207 194
f 205 193 192
f 205 206 193
f 204 192 191
f 204 205 192
f 203 190 189
f 203 191 190
f 203 204 191
f 202 203 189
f 201 189 188
f 201 202 189
f 200 188 187
f 200 201 188
f 186 142 129
f 185 186 129
f 244 231 232
f 243 232 233
f 243 233 234
f 243 244 232
f 245 229 230
f 245 230 231
f 245 231 244
f 242 234 235
f 242 235 236
f 242 243 234
f 246 229 245
f 246 227 228
f 246 228 229
f 241 242 236
f 241 236 237
f 241 237 226
f 247 227 246
f 247 156 227
f 240 241 226
f 248 156 247
f 239 240 226
f 249 156 248
f 238 239 226
f 250 156 249
f 251 156 250
f 252 156 251
f 127 156 252
f 127 252 253
f 127 253 254
f 127 254 255
f 256 127 255
f 257 127 256
f 258 127 257
f 259 127 258
f 260 127 259
f 261 127 260
f 214 238 226
f 262 238 214
f 285 262 214
f 284 285 214
f 283 214 215
f 283 215 216
f 283 284 214
f 282 216 217
f 282 217 218
f 282 283 216
f 281 218 219
f 281 282 218
f 220 281 219
f 280 281 220
f 221 279 280
f 221 280 220
f 222 279 221
f 223 278 279
f 223 279 222
f 224 278 223
f 225 278 224
f 225 277 278
f 213 277 225
f 213 272 273
f 213 273 274
f 213 274 275
f 213 275 276
f 213 276 277
f 111 272 213
f 111 263 264
f 111 264 265
f 111 265 266
f 111 266 267
f 111 267 268
f 111 268 269
f 111 269 270
f 111 270 271
f 111 271 272
f 127 261 111
f 261 263 111
f 214 226 286
f 287 214 286
f 352 293 294
f 353 291 292
f 353 292 293
f 353 293 352
f 351 294 295
f 351 295 296
f 351 352 294
f 354 291 353
f 354 289 290
f 354 290 291
f 350 296 297
f 350 297 298
f 350 351 296
f 355 286 288
f 355 288 289
f 355 289 354
f 349 298 155
f 349 350 298
f 356 286 355
f 348 349 155
f 357 286 356
f 347 348 155
f 358 286 357
f 346 347 155
f 345 346 155
f 344 345 155
f 128 344 155
f 128 341 342
f 128 342 343
f 128 343 344
f 340 341 128
f 339 340 128
f 338 339 128
f 337 338 128
f 336 337 128
f 335 336 128
f 287 286 358
f 311 287 358
f 312 287 311
f 313 287 312
f 314 309 310
f 314 310 287
f 314 287 313
f 315 307 308
f 315 308 309
f 315 309 314
f 316 306 307
f 316 307 315
f 305 306 316
f 317 305 316
f 304 317 318
f 304 305 317
f 303 304 318
f 302 318 319
f 302 303 318
f 301 302 319
f 300 301 319
f 300 319 320
f 299 320 321
f 299 321 322
f 299 322 323
f 299 323 324
f 299 324 325
f 299 300 320
f 112 325 326
f 112 326 327
f 112 327 328
f 112 328 329
f 112 329 330
f 112 330 331
f 112 331 332
f 112 332 333
f 112 333 334
f 112 299 325
f 128 112 335
f 335 112 334
f 143 142 98
f 143 98 113
f 143 113 114
f 144 143 114
f 145 114 115
f 145 144 114
f 146 115 116
f 146 116 117
f 146 145 115
f 147 146 117
f 148 117 118
f 148 147 117
f 149 118 119
f 149 148 118
f 150 119 120
f 150 149 119
f 151 120 121
f 151 150 120
f 152 121 122
f 152 151 121
f 153 122 123
f 153 123 124
f 153 152 122
f 154 153 124
f 128 124 112
f 128 154 124
f 56 142 57
f 58 57 142
f 55 142 56
f 59 58 142
f 54 142 55
f 60 59 142
f 53 142 54
f 61 60 142
f 52 142 53
f 62 61 142
f 51 142 52
f 63 62 142
f 498 142 51
f 497 142 498
f 496 142 497
f 495 142 496
f 494 142 495
f 493 142 494
f 492 142 493
f 491 142 492
f 9 69 68
f 8 69 9
f 10 9 68
f 10 68 67
f 7 69 8
f 7 70 69
f 7 71 70
f 11 10 67
f 11 66 65
f 11 67 66
f 6 71 7
f 12 11 65
f 5 72 71
f 5 73 72
f 5 71 6
f 13 65 64
f 13 12 65
f 4 73 5
f 14 13 64
f 14 64 63
f 3 477 50
f 3 73 4
f 3 50 73
f 380 477 3
f 379 478 477
f 379 479 478
f 379 477 380
f 378 479 379
f 377 480 479
f 377 479 378
f 376 480 377
f 376 481 480
f 375 482 481
f 375 483 482
f 375 481 376
f 374 483 375
f 373 483 374
f 373 484 483
f 372 484 373
f 372 485 484
f 371 485 372
f 371 486 485
f 370 486 371
f 370 487 486
f 186 14 63
f 186 359 2
f 186 360 359
f 186 361 360
f 186 362 361
f 186 363 362
f 186 364 363
f 186 365 364
f 186 366 365
f 186 63 142
f 186 15 14
f 186 16 15
f 186 17 16
f 186 18 17
f 186 19 18
f 186 20 19
f 186 21 20
f 186 22 21
f 186 23 22
f 186 24 23
f 186 25 24
f 186 2 25
f 386 142 387
f 388 387 142
f 385 142 386
f 389 142 491
f 389 388 142
f 390 491 490
f 390 389 491
f 391 490 489
f 391 390 490
f 392 391 489
f 392 488 487
f 392 489 488
f 393 392 487
f 98 382 381
f 98 383 382
f 98 384 383
f 98 385 384
f 98 381 405
f 98 142 385
f 428 98 405
f 427 98 428
f 426 98 427
f 425 98 426
f 424 98 425
f 423 98 424
f 422 98 423
f 421 98 422
f 420 98 421
f 419 98 420
f 418 98 419
f 417 98 418
f 416 98 417
f 434 398 435
f 434 399 398
f 436 435 398
f 436 397 396
f 436 398 397
f 433 400 399
f 433 399 434
f 437 436 396
f 437 396 395
f 432 401 400
f 432 400 433
f 438 437 395
f 431 402 401
f 431 403 402
f 431 401 432
f 439 395 394
f 439 438 395
f 430 403 431
f 440 370 369
f 440 487 370
f 440 394 393
f 440 439 394
f 440 393 487
f 429 404 403
f 429 403 430
f 429 406 404
f 441 369 368
f 441 440 369
f 442 441 368
f 443 368 367
f 443 442 368
f 444 367 366
f 444 366 186
f 444 443 367
f 445 444 186
f 446 445 186
f 447 446 186
f 448 447 186
f 453 406 429
f 476 406 453
f 476 407 406
f 475 407 476
f 475 408 407
f 475 409 408
f 474 409 475
f 474 410 409
f 473 410 474
f 472 410 473
f 472 411 410
f 472 412 411
f 471 412 472
f 470 412 471
f 470 413 412
f 470 414 413
f 469 414 470
f 468 414 469
f 468 415 414
f 467 415 468
f 467 98 416
f 467 416 415
f 126 448 186
f 126 449 448
f 126 450 449
f 126 451 450
f 126 452 451
f 126 455 454
f 126 456 455
f 126 457 456
f 126 458 457
f 126 459 458
f 126 460 459
f 126 461 460
f 126 462 461
f 126 463 462
f 126 464 463
f 126 465 464
f 126 466 465
f 126 467 466
f 126 454 452
f 126 98 467
f 200 158 171
f 201 171 172
f 201 200 171
f 202 201 172
f 203 172 173
f 203 202 172
f 204 173 174
f 204 174 175
f 204 203 173
f 205 204 175
f 206 175 176
f 206 205 175
f 207 176 177
f 207 206 176
f 208 177 178
f 208 207 177
f 209 178 179
f 209 208 178
f 210 179 180
f 210 209 179
f 211 180 181
f 211 181 182
f 211 210 180
f 212 211 182
f 186 182 126
f 186 212 182
f 554 200 555
f 556 555 200
f 553 200 554
f 557 556 200
f 552 200 553
f 558 200 512
f 558 557 200
f 551 200 552
f 559 558 512
f 550 200 551
f 560 559 512
f 549 200 550
f 561 560 512
f 562 561 512
f 563 562 512
f 563 512 513
f 564 563 513
f 564 513 514
f 564 514 515
f 565 515 516
f 565 516 517
f 565 564 515
f 566 565 517
f 518 566 517
f 567 566 518
f 519 567 518
f 520 567 519
f 520 568 567
f 521 568 520
f 522 568 521
f 522 569 568
f 523 569 522
f 500 569 523
f 500 570 569
f 500 571 570
f 500 548 571
f 158 543 542
f 158 544 543
f 158 545 544
f 158 546 545
f 158 547 546
f 541 158 542
f 540 158 541
f 539 158 540
f 538 158 539
f 183 534 533
f 183 535 534
f 183 536 535
f 183 537 536
f 183 538 537
f 183 158 538
f 499 525 524
f 499 526 525
f 499 527 526
f 499 548 500
f 499 524 548
f 511 533 532
f 511 183 533
f 501 527 499
f 510 511 532
f 502 527 501
f 502 528 527
f 509 510 532
f 509 532 531
f 503 528 502
f 504 529 528
f 504 528 503
f 508 509 531
f 505 529 504
f 507 508 531
f 507 531 530
f 506 529 505
f 506 507 530
f 506 530 529
f 158 200 549
f 158 549 547
f 499 500 573
f 572 499 573
f 615 614 187
f 613 187 614
f 616 615 187
f 612 187 613
f 617 616 187
f 611 574 187
f 611 187 612
f 618 617 187
f 610 574 611
f 619 618 187
f 609 574 610
f 620 619 187
f 608 574 609
f 607 574 608
f 606 574 607
f 606 585 574
f 605 583 584
f 605 584 585
f 605 585 606
f 604 581 582
f 604 582 583
f 604 583 605
f 603 581 604
f 580 581 603
f 602 580 603
f 579 580 602
f 578 579 602
f 578 602 601
f 577 578 601
f 576 601 600
f 576 577 601
f 575 576 600
f 573 598 597
f 573 599 598
f 573 600 599
f 573 575 600
f 157 622 621
f 157 623 622
f 157 624 623
f 157 625 624
f 157 626 625
f 627 626 157
f 628 627 157
f 629 628 157
f 630 629 157
f 184 631 630
f 184 632 631
f 184 633 632
f 184 634 633
f 184 635 634
f 184 630 157
f 572 573 597
f 572 642 641
f 572 643 642
f 572 644 643
f 572 597 644
f 586 636 635
f 586 635 184
f 596 572 641
f 595 596 641
f 595 641 640
f 587 636 586
f 588 636 587
f 588 637 636
f 594 595 640
f 593 640 639
f 593 594 640
f 589 637 588
f 590 637 589
f 590 638 637
f 592 593 639
f 591 592 639
f 591 638 590
f 591 639 638
f 157 620 187
f 157 621 620
f 188 157 187
f 188 159 157
f 189 160 159
f 189 159 188
f 190 161 160
f 190 160 189
f 191 162 161
f 191 161 190
f 192 163 162
f 192 162 191
f 193 164 163
f 193 165 164
f 193 163 192
f 194 165 193
f 195 166 165
f 195 165 194
f 196 167 166
f 196 166 195
f 197 168 167
f 197 167 196
f 198 169 168
f 198 170 169
f 198 168 197
f 199 125 170
f 199 170 198
f 185 125 199
f 92 91 129
f 90 129 91
f 93 92 129
f 89 129 90
f 94 93 129
f 88 129 89
f 95 94 129
f 87 129 88
f 96 95 129
f 86 129 87
f 74 96 129
f 85 129 86
f 763 74 129
f 764 763 129
f 765 764 129
f 766 765 129
f 767 766 129
f 768 767 129
f 769 768 129
f 770 769 129
f 43 80 79
f 44 43 79
f 42 80 43
f 42 81 80
f 45 44 79
f 45 79 78
f 41 82 81
f 41 81 42
f 46 45 78
f 46 78 77
f 40 83 82
f 40 82 41
f 47 76 75
f 47 77 76
f 47 46 77
f 39 84 83
f 39 85 84
f 39 83 40
f 48 47 75
f 48 75 49
f 38 85 39
f 26 48 49
f 645 26 49
f 645 784 783
f 645 49 784
f 646 645 783
f 646 783 782
f 647 646 782
f 648 781 780
f 648 782 781
f 648 647 782
f 649 648 780
f 650 649 780
f 650 779 778
f 650 780 779
f 651 650 778
f 652 778 777
f 652 651 778
f 653 652 777
f 653 777 776
f 654 653 776
f 654 776 775
f 655 654 775
f 655 775 774
f 185 85 38
f 185 129 85
f 185 660 659
f 185 661 660
f 185 662 661
f 185 663 662
f 185 664 663
f 185 665 664
f 185 666 665
f 185 1 666
f 185 27 1
f 185 28 27
f 185 29 28
f 185 30 29
f 185 31 30
f 185 32 31
f 185 33 32
f 185 34 33
f 185 35 34
f 185 36 35
f 185 37 36
f 185 38 37
f 709 708 129
f 707 129 708
f 710 709 129
f 706 770 129
f 706 129 707
f 705 771 770
f 705 770 706
f 704 772 771
f 704 771 705
f 703 773 772
f 703 774 773
f 703 772 704
f 702 774 703
f 97 710 129
f 97 711 710
f 97 712 711
f 97 713 712
f 97 714 713
f 97 667 714
f 668 667 97
f 669 668 97
f 670 669 97
f 671 670 97
f 672 671 97
f 673 672 97
f 674 673 97
f 675 674 97
f 676 675 97
f 677 676 97
f 678 677 97
f 679 678 97
f 680 679 97
f 757 756 697
f 757 697 696
f 755 697 756
f 755 698 697
f 755 699 698
f 758 696 695
f 758 757 696
f 754 699 755
f 754 700 699
f 759 758 695
f 759 695 694
f 753 700 754
f 760 693 692
f 760 694 693
f 760 759 694
f 752 701 700
f 752 700 753
f 761 760 692
f 751 656 655
f 751 655 774
f 751 702 701
f 751 774 702
f 751 701 752
f 762 691 690
f 762 692 691
f 762 761 692
f 750 657 656
f 750 656 751
f 749 657 750
f 748 657 749
f 748 658 657
f 747 658 748
f 747 659 658
f 747 185 659
f 746 185 747
f 745 185 746
f 744 185 745
f 743 185 744
f 715 762 690
f 715 690 689
f 716 715 689
f 717 716 689
f 717 689 688
f 718 717 688
f 718 687 686
f 718 688 687
f 719 718 686
f 720 719 686
f 720 685 684
f 720 686 685
f 721 720 684
f 722 721 684
f 722 684 683
f 723 722 683
f 723 682 681
f 723 683 682
f 724 723 681
f 724 681 680
f 725 724 680
f 125 726 725
f 125 727 726
f 125 728 727
f 125 729 728
f 125 730 729
f 125 731 730
f 125 732 731
f 125 185 743
f 125 733 732
f 125 734 733
f 125 735 734
f 125 736 735
f 125 737 736
f 125 738 737
f 125 739 738
f 125 740 739
f 125 741 740
f 125 742 741
f 125 743 742
f 125 725 680
f 125 680 97
f 130 97 129
f 130 99 97
f 130 100 99
f 131 100 130
f 132 101 100
f 132 100 131
f 133 102 101
f 133 103 102
f 133 101 132
f 134 103 133
f 135 104 103
f 135 103 134
f 136 105 104
f 136 104 135
f 137 106 105
f 137 105 136
f 138 107 106
f 138 106 137
f 139 108 107
f 139 107 138
f 140 109 108
f 140 110 109
f 140 108 139
f 141 110 140
f 127 111 110
f 127 110 141
f 299 112 111
f 213 299 111
f 574 200 187
f 512 200 574
f 50 784 49
f 477 783 784
f 477 784 50
f 478 782 783
f 478 783 477
f 479 781 782
f 479 782 478
f 480 780 781
f 480 781 479
f 481 779 780
f 481 780 480
f 482 778 779
f 482 779 481
f 483 777 778
f 483 778 482
f 484 776 777
f 484 777 483
f 485 775 776
f 485 776 484
f 486 774 775
f 486 775 485
f 487 774 486
f 488 774 487
f 488 772 773
f 488 773 774
f 489 772 488
f 489 771 772
f 490 771 489
f 491 771 490
f 491 770 771
f 492 770 491
f 492 769 770
f 493 769 492
f 493 767 768
f 493 768 769
f 494 767 493
f 495 767 494
f 495 766 767
f 496 766 495
f 496 765 766
f 497 764 765
f 497 765 496
f 498 763 764
f 498 764 497
f 51 74 763
f 51 763 498
f 430 762 429
f 430 761 762
f 431 760 761
f 431 761 430
f 432 759 760
f 432 760 431
f 433 758 759
f 433 759 432
f 434 757 758
f 434 758 433
f 435 756 757
f 435 757 434
f 436 755 756
f 436 756 435
f 437 753 754
f 437 754 755
f 437 755 436
f 438 753 437
f 439 752 753
f 439 753 438
f 440 750 751
f 440 751 752
f 440 752 439
f 441 749 750
f 441 750 440
f 442 749 441
f 442 748 749
f 443 748 442
f 443 747 748
f 444 747 443
f 444 746 747
f 445 746 444
f 445 745 746
f 446 745 445
f 446 744 745
f 447 744 446
f 447 743 744
f 448 743 447
f 448 742 743
f 449 742 448
f 450 740 741
f 450 741 742
f 450 742 449
f 451 740 450
f 452 739 740
f 452 740 451
f 453 429 762
f 453 762 715
f 455 738 454
f 455 737 738
f 456 736 737
f 456 737 455
f 457 735 736
f 457 736 456
f 458 734 735
f 458 735 457
f 459 733 734
f 459 734 458
f 460 732 733
f 460 733 459
f 461 731 732
f 461 732 460
f 462 730 731
f 462 731 461
f 463 729 730
f 463 730 462
f 464 728 729
f 464 729 463
f 465 727 728
f 465 728 464
f 466 727 465
f 466 726 727
f 467 726 466
f 467 725 726
f 468 725 467
f 468 724 725
f 469 724 468
f 469 723 724
f 470 723 469
f 470 722 723
f 471 722 470
f 471 721 722
f 472 721 471
f 472 720 721
f 473 719 720
f 473 720 472
f 474 719 473
f 474 718 719
f 475 717 718
f 475 718 474
f 476 716 717
f 476 717 475
f 453 715 716
f 453 716 476
f 738 452 454
f 738 739 452
f 382 714 381
f 382 713 714
f 383 712 713
f 383 713 382
f 384 711 712
f 384 712 383
f 385 710 711
f 385 711 384
f 386 709 710
f 386 710 385
f 387 708 709
f 387 709 386
f 388 707 708
f 388 708 387
f 389 705 706
f 389 706 707
f 389 707 388
f 390 705 389
f 391 704 705
f 391 705 390
f 392 702 703
f 392 703 704
f 392 704 391
f 393 701 702
f 393 702 392
f 394 701 393
f 394 700 701
f 395 700 394
f 395 699 700
f 396 699 395
f 396 698 699
f 397 698 396
f 397 697 698
f 398 697 397
f 398 696 697
f 399 696 398
f 399 695 696
f 400 695 399
f 400 694 695
f 401 694 400
f 402 692 693
f 402 693 694
f 402 694 401
f 403 692 402
f 404 691 692
f 404 692 403
f 405 381 714
f 405 714 667
f 407 690 406
f 407 689 690
f 408 688 689
f 408 689 407
f 409 687 688
f 409 688 408
f 410 686 687
f 410 687 409
f 411 685 686
f 411 686 410
f 412 684 685
f 412 685 411
f 413 683 684
f 413 684 412
f 414 682 683
f 414 683 413
f 415 681 682
f 415 682 414
f 416 680 681
f 416 681 415
f 417 679 680
f 417 680 416
f 418 679 417
f 418 678 679
f 419 678 418
f 419 677 678
f 420 677 419
f 420 676 677
f 421 676 420
f 421 675 676
f 422 675 421
f 422 674 675
f 423 674 422
f 423 673 674
f 424 673 423
f 424 672 673
f 425 671 672
f 425 672 424
f 426 671 425
f 426 670 671
f 427 669 670
f 427 670 426
f 428 668 669
f 428 669 427
f 405 667 668
f 405 668 428
f 690 404 406
f 690 691 404
f 2 666 1
f 359 665 666
f 359 666 2
f 360 664 665
f 360 665 359
f 361 663 664
f 361 664 360
f 362 662 663
f 362 663 361
f 363 661 662
f 363 662 362
f 364 660 661
f 364 661 363
f 365 659 660
f 365 660 364
f 366 658 659
f 366 659 365
f 367 657 658
f 367 658 366
f 368 656 657
f 368 657 367
f 369 656 368
f 370 656 369
f 370 654 655
f 370 655 656
f 371 654 370
f 371 653 654
f 372 653 371
f 373 653 372
f 373 652 653
f 374 652 373
f 374 651 652
f 375 651 374
f 375 649 650
f 375 650 651
f 376 649 375
f 377 649 376
f 377 648 649
f 378 648 377
f 378 647 648
f 379 646 647
f 379 647 378
f 380 645 646
f 380 646 379
f 3 26 645
f 3 645 380
f 501 572 596
f 501 499 572
f 502 596 595
f 502 501 596
f 503 595 594
f 503 502 595
f 504 594 593
f 504 503 594
f 505 593 592
f 505 504 593
f 506 592 591
f 506 505 592
f 507 591 590
f 507 506 591
f 508 589 588
f 508 590 589
f 508 507 590
f 509 508 588
f 510 588 587
f 510 509 588
f 511 587 586
f 511 510 587
f 183 586 184
f 183 511 586
f 575 573 500
f 575 500 523
f 576 523 522
f 576 575 523
f 577 522 521
f 577 576 522
f 578 521 520
f 578 577 521
f 579 520 519
f 579 578 520
f 580 519 518
f 580 579 519
f 581 517 516
f 581 518 517
f 581 580 518
f 582 581 516
f 583 516 515
f 583 582 516
f 584 515 514
f 584 583 515
f 585 513 512
f 585 514 513
f 585 584 514
f 574 585 512
f 227 155 298
f 227 156 155
f 228 298 297
f 228 227 298
f 229 297 296
f 229 228 297
f 230 296 295
f 230 229 296
f 231 295 294
f 231 230 295
f 232 294 293
f 232 231 294
f 233 293 292
f 233 232 293
f 234 292 291
f 234 233 292
f 235 291 290
f 235 234 291
f 236 290 289
f 236 235 290
f 237 289 288
f 237 236 289
f 226 288 286
f 226 237 288
f 215 287 310
f 215 214 287
f 216 310 309
f 216 215 310
f 217 309 308
f 217 216 309
f 218 308 307
f 218 217 308
f 219 307 306
f 219 218 307
f 220 306 305
f 220 219 306
f 221 305 304
f 221 220 305
f 222 304 303
f 222 221 304
f 223 303 302
f 223 222 303
f 224 302 301
f 224 223 302
f 225 301 300
f 225 224 301
f 213 300 299
f 213 225 300
f 525 644 524
f 525 642 643
f 525 643 644
f 526 641 642
f 526 642 525
f 527 640 641
f 527 641 526
f 528 639 640
f 528 640 527
f 529 638 639
f 529 639 528
f 530 637 638
f 530 638 529
f 531 636 637
f 531 637 530
f 532 635 636
f 532 636 531
f 533 634 635
f 533 635 532
f 534 633 634
f 534 634 533
f 535 633 534
f 536 633 535
f 536 632 633
f 537 632 536
f 537 631 632
f 538 631 537
f 538 629 630
f 538 630 631
f 539 629 538
f 540 629 539
f 540 628 629
f 541 628 540
f 541 627 628
f 542 627 541
f 542 626 627
f 543 625 626
f 543 626 542
f 544 625 543
f 544 624 625
f 545 623 624
f 545 624 544
f 546 623 545
f 546 622 623
f 547 621 622
f 547 622 546
f 524 597 548
f 644 597 524
f 550 620 549
f 550 619 620
f 551 618 619
f 551 619 550
f 552 617 618
f 552 618 551
f 553 616 617
f 553 617 552
f 554 615 616
f 554 616 553
f 555 614 615
f 555 615 554
f 556 613 614
f 556 614 555
f 557 611 612
f 557 612 613
f 557 613 556
f 558 611 557
f 559 610 611
f 559 611 558
f 560 608 609
f 560 609 610
f 560 610 559
f 561 607 608
f 561 608 560
f 562 607 561
f 562 606 607
f 563 606 562
f 563 605 606
f 564 605 563
f 564 604 605
f 565 604 564
f 565 603 604
f 566 603 565
f 566 602 603
f 567 602 566
f 567 601 602
f 568 601 567
f 568 600 601
f 569 600 568
f 570 598 599
f 570 599 600
f 570 600 569
f 571 598 570
f 548 597 598
f 548 598 571
f 621 549 620
f 547 549 621
f 334 264 263
f 333 265 264
f 333 264 334
f 332 266 265
f 332 265 333
f 331 267 266
f 331 266 332
f 330 268 267
f 330 267 331
f 329 269 268
f 329 268 330
f 328 270 269
f 328 269 329
f 327 271 270
f 327 270 328
f 326 271 327
f 325 272 271
f 325 271 326
f 324 273 272
f 324 272 325
f 323 274 273
f 323 273 324
f 322 274 323
f 322 275 274
f 321 275 322
f 321 276 275
f 320 276 321
f 320 277 276
f 319 277 320
f 319 278 277
f 318 278 319
f 318 279 278
f 317 279 318
f 317 280 279
f 316 280 317
f 316 281 280
f 315 281 316
f 315 282 281
f 314 282 315
f 314 283 282
f 313 283 314
f 313 284 283
f 312 284 313
f 312 285 284
f 311 285 312
f 311 262 285
f 358 262 311
f 238 262 358
f 357 238 358
f 357 239 238
f 356 240 239
f 356 239 357
f 355 241 240
f 355 240 356
f 354 242 241
f 354 241 355
f 353 243 242
f 353 242 354
f 352 244 243
f 352 243 353
f 351 245 244
f 351 244 352
f 350 246 245
f 350 245 351
f 349 247 246
f 349 246 350
f 348 248 247
f 348 247 349
f 347 249 248
f 347 248 348
f 346 249 347
f 346 250 249
f 345 250 346
f 345 251 250
f 344 251 345
f 344 252 251
f 344 253 252
f 343 253 344
f 343 254 253
f 342 254 343
f 341 254 342
f 341 255 254
f 340 255 341
f 340 256 255
f 339 256 340
f 339 257 256
f 338 257 339
f 338 258 257
f 337 258 338
f 337 259 258
f 336 259 337
f 336 260 259
f 336 261 260
f 335 261 336
f 335 334 263
f 335 263 261

