# https://github.com/mikedh/trimesh
v 25.40000000 37.60000000 -593.89259779
v 24.91454176 38.09978849 -593.89259779
v 24.97845611 38.09380628 -593.89259779
v 25.04107723 38.07968450 -593.89259779
v 25.10137294 38.05765592 -593.89259779
v 25.15834934 38.02808366 -593.89259779
v 25.21106730 37.99145515 -593.89259779
v 25.25865783 37.94837417 -593.89259779
v 25.30033649 37.89955082 -593.89259779
v 25.33541628 37.84578988 -593.89259779
v 25.36331896 37.78797750 -593.89259779
v 25.38358460 37.72706664 -593.89259779
v 25.39587917 37.66406129 -593.89259779
v 24.78369308 38.07839483 -593.89259779
v 24.84840515 38.09344807 -593.89259779
v -25.40000000 23.40000000 -593.89259779
v -25.38309361 23.65949902 -593.89259779
v -25.33266026 23.91461084 -593.89259779
v -25.24955260 24.16102246 -593.89259779
v -25.13517568 24.39456793 -593.89259779
v -24.99146320 24.61129884 -593.89259779
v -24.82084482 24.80755106 -593.89259779
v -24.62620508 24.98000668 -593.89259779
v -24.41083464 25.12575008 -593.89259779
v -24.17837463 25.24231727 -593.89259779
v -23.93275511 25.32773753 -593.89259779
v -25.40000000 -23.40000000 -593.89259779
v -23.40000000 -25.40000000 -593.89259779
v -23.66105238 -25.38288972 -593.89259779
v -23.91763809 -25.33185165 -593.89259779
v -24.16536686 -25.24775907 -593.89259779
v -24.40000000 -25.13205081 -593.89259779
v -24.61752286 -24.98670668 -593.89259779
v -24.81421356 -24.81421356 -593.89259779
v -24.98670668 -24.61752286 -593.89259779
v -25.13205081 -24.40000000 -593.89259779
v -25.24775907 -24.16536686 -593.89259779
v -25.33185165 -23.91763809 -593.89259779
v -25.38288972 -23.66105238 -593.89259779
v 23.40000000 -25.40000000 -593.89259779
v 25.40000000 -23.40000000 -593.89259779
v 25.38288972 -23.66105238 -593.89259779
v 25.33185165 -23.91763809 -593.89259779
v 25.24775907 -24.16536686 -593.89259779
v 25.13205081 -24.40000000 -593.89259779
v 24.98670668 -24.61752286 -593.89259779
v 24.81421356 -24.81421356 -593.89259779
v 24.61752286 -24.98670668 -593.89259779
v 24.40000000 -25.13205081 -593.89259779
v 24.16536686 -25.24775907 -593.89259779
v 23.91763809 -25.33185165 -593.89259779
v 23.66105238 -25.38288972 -593.89259779
v 25.40000000 -23.40000000 593.89259779
v 25.40000000 37.60000000 593.89259779
v 25.39587917 37.66406129 593.89259779
v 25.38358460 37.72706664 593.89259779
v 25.36331896 37.78797750 593.89259779
v 25.33541628 37.84578988 593.89259779
v 25.30033649 37.89955082 593.89259779
v 25.25865783 37.94837417 593.89259779
v 25.21106730 37.99145515 593.89259779
v 25.15834934 38.02808366 593.89259779
v 25.10137294 38.05765592 593.89259779
v 25.04107723 38.07968450 593.89259779
v 24.97845611 38.09380628 593.89259779
v 24.91454176 38.09978849 593.89259779
v 18.92425824 38.09978849 593.89259779
v 18.86034389 38.09380628 593.89259779
v 18.79772277 38.07968450 593.89259779
v -23.91763809 25.33185165 593.89259779
v -24.16536686 25.24775907 593.89259779
v -24.40000000 25.13205081 593.89259779
v -24.61752286 24.98670668 593.89259779
v -24.81421356 24.81421356 593.89259779
v -24.98670668 24.61752286 593.89259779
v -25.13205081 24.40000000 593.89259779
v -25.24775907 24.16536686 593.89259779
v -25.33185165 23.91763809 593.89259779
v -25.38288972 23.66105238 593.89259779
v -25.40000000 23.40000000 593.89259779
v -25.40000000 -23.40000000 593.89259779
v -25.38288972 -23.66105238 593.89259779
v -25.33185165 -23.91763809 593.89259779
v -25.24775907 -24.16536686 593.89259779
v -25.13205081 -24.40000000 593.89259779
v -24.98670668 -24.61752286 593.89259779
v -24.81421356 -24.81421356 593.89259779
v -24.61752286 -24.98670668 593.89259779
v -24.40000000 -25.13205081 593.89259779
v -24.16536686 -25.24775907 593.89259779
v -23.91763809 -25.33185165 593.89259779
v -23.66105238 -25.38288972 593.89259779
v -23.40000000 -25.40000000 593.89259779
v 23.40000000 -25.40000000 593.89259779
v 23.66105238 -25.38288972 593.89259779
v 23.91763809 -25.33185165 593.89259779
v 24.16536686 -25.24775907 593.89259779
v 24.40000000 -25.13205081 593.89259779
v 24.61752286 -24.98670668 593.89259779
v 24.81421356 -24.81421356 593.89259779
v 24.98670668 -24.61752286 593.89259779
v 25.13205081 -24.40000000 593.89259779
v 25.24775907 -24.16536686 593.89259779
v 25.33185165 -23.91763809 593.89259779
v 25.38288972 -23.66105238 593.89259779
v 25.40075536 -9.70256179 -289.13785940
v 18.78230702 38.07487887 -570.49259779
v 18.84969206 38.09199571 -570.49259779
v 18.91880000 38.09959984 -570.49259779
v 18.92425824 38.09978849 -570.49260110
f 41 1 106
f 106 53 41
f 106 1 54
f 54 53 106
f 14 26 107
f 108 14 107
f 69 108 107
f 107 26 69
f 26 70 69
f 71 70 26
f 67 110 109
f 109 110 2
f 14 108 15
f 15 109 2
f 108 109 15
f 16 80 17
f 80 79 17
f 79 18 17
f 77 20 19
f 21 75 22
f 108 69 68
f 67 109 68
f 68 109 108
f 25 71 26
f 24 23 73
f 20 77 76
f 21 20 76
f 76 75 21
f 19 18 78
f 78 77 19
f 78 18 79
f 24 73 72
f 72 25 24
f 71 25 72
f 23 22 74
f 74 73 23
f 74 22 75
f 27 81 80
f 16 27 80
f 93 40 94
f 28 40 93
f 55 54 13
f 13 54 1
f 2 110 66
f 66 110 67
f 11 10 57
f 57 10 58
f 94 40 95
f 40 52 95
f 55 13 56
f 13 12 56
f 56 12 11
f 11 57 56
f 2 66 65
f 65 3 2
f 82 81 27
f 27 39 82
f 82 39 38
f 82 38 83
f 43 104 103
f 43 103 44
f 105 42 41
f 105 41 53
f 105 43 42
f 104 43 105
f 103 102 45
f 44 103 45
f 46 45 101
f 101 45 102
f 28 93 29
f 93 92 29
f 29 92 91
f 91 30 29
f 38 37 84
f 83 38 84
f 84 37 36
f 36 85 84
f 90 31 30
f 90 30 91
f 32 31 90
f 90 89 32
f 62 6 5
f 62 5 63
f 58 10 59
f 10 9 59
f 59 9 8
f 8 60 59
f 5 4 64
f 63 5 64
f 64 4 3
f 3 65 64
f 99 98 48
f 98 49 48
f 50 98 97
f 50 49 98
f 86 35 34
f 86 34 87
f 86 85 36
f 36 35 86
f 34 33 88
f 87 34 88
f 32 89 88
f 88 33 32
f 61 80 81
f 61 96 97
f 67 68 61
f 83 84 61
f 53 54 61
f 100 101 61
f 61 99 100
f 61 54 55
f 97 98 61
f 61 66 67
f 58 59 61
f 61 74 75
f 71 72 61
f 61 93 94
f 94 95 61
f 55 56 61
f 61 79 80
f 61 69 70
f 70 71 61
f 81 82 61
f 61 105 53
f 91 92 61
f 61 57 58
f 61 62 63
f 75 76 61
f 61 68 69
f 61 78 79
f 103 104 61
f 61 102 103
f 61 98 99
f 61 92 93
f 63 64 61
f 61 86 87
f 61 90 91
f 61 56 57
f 61 65 66
f 61 76 77
f 77 78 61
f 61 72 73
f 73 74 61
f 61 82 83
f 104 105 61
f 61 101 102
f 61 84 85
f 89 90 61
f 95 96 61
f 87 88 61
f 61 59 60
f 61 64 65
f 85 86 61
f 61 88 89
f 47 101 100
f 46 101 47
f 100 99 47
f 99 48 47
f 51 95 52
f 51 96 95
f 97 96 51
f 51 50 97
f 7 20 21
f 32 33 7
f 7 13 1
f 7 43 44
f 1 41 7
f 7 15 2
f 2 3 7
f 16 17 7
f 7 27 16
f 7 51 52
f 7 31 32
f 11 12 7
f 19 20 7
f 26 14 7
f 21 22 7
f 7 25 26
f 41 42 7
f 7 40 28
f 7 45 46
f 28 29 7
f 7 23 24
f 14 15 7
f 36 37 7
f 7 4 5
f 7 39 27
f 7 52 40
f 7 12 13
f 7 10 11
f 8 9 7
f 7 18 19
f 7 17 18
f 7 22 23
f 24 25 7
f 7 37 38
f 38 39 7
f 30 31 7
f 7 35 36
f 5 6 7
f 7 9 10
f 3 4 7
f 42 43 7
f 44 45 7
f 46 47 7
f 7 29 30
f 34 35 7
f 7 33 34
f 7 48 49
f 49 50 7
f 7 47 48
f 50 51 7
f 7 60 8
f 7 61 60
f 6 62 7
f 62 61 7

