# https://github.com/mikedh/trimesh
v 20.49054131 0.31848856 95.00109600
v 20.60874495 0.31841778 94.87205046
v 20.71539443 0.31820546 94.73287526
v 20.80926437 0.31785402 94.58516951
v 20.80780518 0.26360958 94.58432983
v 20.79789949 0.21055604 94.57862963
v 20.77987148 0.16042959 94.56825547
v 20.75431111 0.11487065 94.55354684
v 20.72205485 0.07537016 94.53498509
v 20.68415832 0.04322079 94.51317766
v 20.64186169 0.01947464 94.48883821
v 20.59654915 0.00490882 94.46276326
v 26.13633038 0.31308582 25.38775805
v 25.89014209 0.00481371 25.38775805
v 25.94195054 0.01910035 25.38775805
v 25.99037866 0.04240144 25.38775805
v 26.03387232 0.07396923 25.38775805
v 26.07103575 0.11279066 25.38775805
v 26.10067633 0.15761989 25.38775805
v 26.12184284 0.20701829 25.38775805
v 26.13385603 0.25940061 25.38775805
v 25.54725274 0.01833462 -25.71556881
v 25.55223190 0.31833525 -25.82484890
v 25.38901588 0.31786729 -25.93431091
v 25.21127762 0.31708456 -26.02213946
v 25.02348312 0.31600347 -26.08575032
v 24.83061844 0.31465581 -26.12381174
v 24.63775805 0.31308582 -26.13633038
v 24.63775805 0.00481371 -25.89014209
v 24.63775805 0.01910035 -25.94195054
v 24.63775805 0.04240144 -25.99037866
v 24.63775805 0.07396923 -26.03387232
v 24.63775805 0.11279066 -26.07103575
v 24.63775805 0.15761989 -26.10067633
v 24.63775805 0.20701829 -26.12184284
v 24.63775805 0.25940061 -26.13385603
v 25.00591014 0.13115059 -26.04795233
v 1.19714402 -2.32230969 41.67693480
v 1.31030249 -2.12904509 92.19827396
v -0.05428814 -1.86553600 92.85045691
v -1.47897136 -1.96335067 92.35407733
v 1.91538244 -2.15094091 89.58378706
v -90.57815613 -1.96723368 -2.50096647
v 25.00000000 0.00000000 -25.60000000
v -25.38775805 0.00000000 -25.83661591
v 25.83667975 0.00890865 -25.13237157
v -95.24567820 0.02875264 20.09361088
v 23.23633038 0.31308582 89.29929622
v -88.56349189 17.17698311 -22.50003672
v 16.15608051 23.25000000 88.49181581
v -16.15608051 23.25000000 88.49181581
v -88.49181581 23.25000000 16.15608051
v -88.49181581 23.25000000 -16.15608051
v -95.58633038 0.31308582 -19.07767925
v -95.58633038 0.31308582 19.07767925
v -94.78811944 18.73446395 17.69906494
v -94.75613531 19.32767897 16.15608051
v -94.78788378 18.74011953 -17.68380511
v -19.07767925 0.31308582 95.58633038
v 19.07767925 0.31308582 95.58633038
v 18.23945890 19.30142404 94.66048772
v -16.15608051 19.32767897 94.75613531
v 23.60507444 23.96542908 -25.10364677
v -25.38775805 0.31308582 -26.13633038
v -24.35507444 23.96542908 -25.10364677
v 25.10364677 23.96542908 24.35507444
v 26.13633038 0.31308582 -24.63775805
v 25.10364677 23.96542908 -23.60507444
v -24.35507444 25.40000000 -23.60507444
v -24.35507444 25.40000000 24.35507444
v 23.60507444 25.40000000 -23.60507444
v 23.60507444 25.40000000 24.35507444
v -39.83943103 -2.10365775 -2.15113038
v -40.88307199 -2.21966406 1.64677582
v -88.55391702 17.98302301 -22.41303538
v -88.54462027 18.76566686 -22.22583981
v -88.53566645 19.52221943 -21.93937242
v -88.52724626 20.23508864 -21.55981561
v -88.51950012 20.89188208 -21.09438029
v -88.50636265 22.00904426 -19.92713379
v -88.50126222 22.44352819 -19.25315079
v -88.49717771 22.79207181 -18.52377766
v -88.49421543 23.04495109 -17.75693780
v -88.49242785 23.19802294 -16.96658932
v 16.96715648 23.19794992 88.49242882
v 17.75804105 23.04466374 88.49421880
v 18.52538311 22.79142641 88.49718528
v 19.25514525 22.44241463 88.50127552
v 19.92942183 22.00735486 88.50638240
v 19.57328487 21.24053705 92.94661593
v 21.09690508 20.88875953 88.51953728
v 21.56220950 20.23120713 88.52729191
v 21.94151499 19.51748887 88.53572247
v 22.22729286 18.76093824 88.54467656
v 22.41353834 17.98046435 88.55394694
v -17.75693780 23.04495109 88.49421543
v -16.96658932 23.19802294 88.49242785
v -88.49242882 23.19794992 16.96715648
v -88.49421880 23.04466374 17.75804105
v -20.03090915 17.81073982 93.80890572
v -19.14526260 20.49734034 93.75782622
v 20.06978174 17.25486054 93.84567854
v 22.70351592 0.31785402 91.29337555
v 26.12381174 0.31465581 -24.83061844
v 26.08575032 0.31600347 -25.02348312
v 26.02213946 0.31708456 -25.21127762
v 25.93431091 0.31786729 -25.38901588
v 25.82484890 0.31833525 -25.55223190
v 23.80044216 23.97338439 -25.09048555
v 23.99247516 23.98008710 -25.05196999
v 24.35353872 23.98930046 -24.90192703
v 24.51640631 23.99165384 -24.79296071
v 24.66371846 23.99244279 -24.66371846
v 24.79296071 23.99165384 -24.51640631
v 24.90192703 23.98930046 -24.35353872
v 25.05196999 23.98008710 -23.99247516
v 25.09048555 23.97338439 -23.80044216
v 22.42030147 17.21651925 89.37620398
v 22.48999051 17.17422129 88.84608522
v 22.96333051 0.12372768 90.66297576
v 23.19661094 0.31478969 89.86118698
v -92.28552336 22.11470294 17.19743095
v -89.00469180 17.17757836 -22.47569098
v -19.79928580 17.25907971 94.21141051
v -19.61511214 17.25859227 94.38533124
v -19.47468421 17.25709488 94.49199725
v -19.29032434 17.25398133 94.60544847
v -19.07728376 17.24903678 94.70537082
v -18.86342752 17.24283586 94.77705393
v -18.65519904 17.23572977 94.82228997
v -18.50069326 17.22981532 94.84119387
v -20.48865642 0.31848854 95.00297838
v -20.31528198 0.31836148 95.15688868
v -20.12357519 0.31798353 95.29069855
v -19.91720393 0.31735871 95.40135622
v -19.70045656 0.31650114 95.48673499
v -19.47794923 0.31543398 95.54576704
v -19.27667923 0.31431976 95.57635382
v -17.49129512 21.72447208 93.02450812
v -17.28218880 19.92053744 94.64452174
v -16.15608051 19.63508594 94.71844826
v -16.15608051 19.48211938 94.74328638
v 16.15615312 19.87829859 94.65320618
v 16.15616841 19.63508595 94.71844826
v 16.15617798 19.48211938 94.74328638
v 19.92886855 17.25794783 94.05730232
v 19.76228736 17.25906271 94.24941831
v 19.57292818 17.25820493 94.41913119
v 19.36368101 17.25537427 94.56354568
v 19.13766149 17.25058696 94.67991770
v 18.89873288 17.24394271 94.76666797
v 18.65084429 17.23556737 94.82272958
v 18.49559469 17.22960903 94.84151056
v 19.33484929 0.31465581 95.56966171
v 19.59202181 0.31600347 95.51893276
v 19.84243021 0.31708456 95.43413401
v 20.07942595 0.31786729 95.31704068
v 20.29705412 0.31833525 95.17109814
v -93.17359038 20.94779400 -19.93693850
v -94.49199725 17.25709488 -19.47468421
v -94.60544847 17.25398133 -19.29032434
v -94.70537082 17.24903678 -19.07728376
v -94.77705393 17.24283586 -18.86342752
v -94.82228997 17.23572977 -18.65519904
v -94.84119387 17.22981532 -18.50069326
v -89.83275946 -0.05192138 -23.27127090
v -95.15688868 0.31836148 -20.31528198
v -95.29069855 0.31798353 -20.12357519
v -95.40135622 0.31735871 -19.91720393
v -95.48673499 0.31650114 -19.70045656
v -95.54576704 0.31543398 -19.47794923
v -95.57635382 0.31431976 -19.27667923
v -94.55820314 20.11149152 -16.15614558
v -94.65320618 19.87829858 -16.15615859
v -94.71844826 19.63508594 -16.15617160
v -94.74328638 19.48211938 -16.15617961
v -94.50846343 19.23813874 -18.73112843
v -94.06979014 20.00081032 19.20582190
v -94.65320618 19.87829858 16.15609442
v -94.71844826 19.63508594 16.15609641
v -94.74328638 19.48211938 16.15609149
v -94.76666797 17.24394271 18.89873288
v -94.82272958 17.23556737 18.65084429
v -94.84151056 17.22960903 18.49559469
v -95.56966171 0.31465581 19.33484929
v -95.51893276 0.31600347 19.59202181
v -95.43413401 0.31708456 19.84243021
v -24.35507444 24.17218313 -25.08017319
v -24.35507444 24.37369938 -25.02831331
v -24.35507444 24.74568225 -24.84395358
v -24.35507444 24.90899056 -24.71500148
v -24.35507444 25.05288219 -24.56469032
v -24.35507444 25.17458814 -24.39591264
v -24.35507444 25.27176635 -24.21191633
v -24.35507444 25.34254674 -24.01624215
v -24.35507444 25.38556725 -23.81265561
v 23.60507444 24.17218313 -25.08017319
v 23.60507444 24.56609992 -24.94906510
v 23.60507444 24.90899056 -24.71500148
v 23.60507444 25.05288219 -24.56469032
v 23.60507444 25.17458814 -24.39591264
v 23.60507444 25.27176635 -24.21191633
v 23.60507444 25.34254674 -24.01624215
v 23.60507444 25.38556725 -23.81265561
v 25.02831331 24.37369938 -23.60507444
v 24.94906510 24.56609992 -23.60507444
v 24.84395358 24.74568225 -23.60507444
v 24.39591264 25.17458814 -23.60507444
v 24.21191633 25.27176635 -23.60507444
v 24.01624215 25.34254674 -23.60507444
v 23.81265561 25.38556725 -23.60507444
v 24.05643041 24.85258128 -24.71832839
v 24.30660912 24.51134575 -24.86844000
v 24.61605573 25.05825486 -24.02670246
v 25.00800536 24.32248207 -24.05474193
v 25.08017319 24.17218313 24.35507444
v 25.02831331 24.37369938 24.35507444
v 24.94906510 24.56609992 24.35507444
v 24.84395358 24.74568225 24.35507444
v 24.71500148 24.90899056 24.35507444
v 24.56469032 25.05288219 24.35507444
v 24.39591264 25.17458814 24.35507444
v 24.21191633 25.27176635 24.35507444
v 24.01624215 25.34254674 24.35507444
v 23.81265561 25.38556725 24.35507444
v 24.37400455 25.13641289 24.97975690
v -2.04136073 -2.17405259 89.60161514
v -92.73604057 -2.17654031 0.20486736
v -25.38775805 0.00481371 -25.89014209
v -25.38775805 0.01910035 -25.94195054
v -25.38775805 0.07396923 -26.03387232
v -25.38775805 0.11279066 -26.07103575
v -25.38775805 0.15761989 -26.10067633
v -25.38775805 0.20701829 -26.12184284
v -25.38775805 0.25940061 -26.13385603
v 25.89014209 0.00481371 -24.63775805
v 25.94195054 0.01910035 -24.63775805
v 25.99037866 0.04240144 -24.63775805
v 26.03387232 0.07396923 -24.63775805
v 26.07103575 0.11279066 -24.63775805
v 26.10067633 0.15761989 -24.63775805
v 26.12184284 0.20701829 -24.63775805
v 26.13385603 0.25940061 -24.63775805
v 25.99756966 0.13364786 -25.20199341
v 25.31931200 -0.05089500 26.46114402
v -20.37343011 0.15313542 95.11539125
v -19.92416181 0.03939301 95.35591228
v -19.07767925 0.25940061 95.58385603
v -19.07767925 0.20701829 95.57184284
v -19.07767925 0.15761989 95.55067633
v -19.07767925 0.11279066 95.52103575
v -19.07767925 0.07396923 95.48387232
v -19.07767925 0.04240144 95.44037866
v -19.07767925 0.01910035 95.39195054
v 19.07767925 0.25940061 95.58385603
v 19.07767925 0.20701829 95.57184284
v 19.07767925 0.15761989 95.55067633
v 19.07767925 0.11279066 95.52103575
v 19.07767925 0.07396923 95.48387232
v 19.07767925 0.04240144 95.44037866
v 19.07767925 0.01910035 95.39195054
v 20.05609228 -0.01267033 95.16177163
v 22.70205673 0.26360958 91.29253587
v 22.69215105 0.21055604 91.28683568
v 22.67412303 0.16042959 91.27646152
v 22.64856266 0.11487065 91.26175289
v 22.61630640 0.07537016 91.24319114
v 22.57840987 0.04322079 91.22138371
v 22.53611325 0.01947464 91.19704426
v 22.90637520 0.01346781 90.39262419
v 23.21773600 0.21156333 89.53167483
v 23.09882892 0.04042205 89.13696304
v 23.23389325 0.24042970 89.24719004
v -95.58385603 0.25940061 -19.07767925
v -95.57184284 0.20701829 -19.07767925
v -95.55067633 0.15761989 -19.07767925
v -95.52103575 0.11279066 -19.07767925
v -95.48387232 0.07396923 -19.07767925
v -95.44037866 0.04240144 -19.07767925
v -95.39195054 0.01910035 -19.07767925
v -95.23720168 0.00377061 -20.01673068
v -95.58385603 0.25940061 19.07767925
v -95.57184284 0.20701829 19.07767925
v -95.55067633 0.15761989 19.07767925
v -95.52103575 0.11279066 19.07767925
v -95.48387232 0.07396923 19.07767925
v -95.44037866 0.04240144 19.07767925
v -95.39195054 0.01910035 19.07767925
f 53 159 122
f 122 159 173
f 52 53 122
f 177 173 159
f 245 270 42
f 14 270 245
f 38 245 42
f 66 119 13
f 227 38 42
f 228 38 227
f 228 286 278
f 47 132 124
f 272 270 14
f 100 178 124
f 122 173 179
f 179 178 122
f 159 53 84
f 84 83 159
f 84 53 69
f 82 81 159
f 159 83 82
f 82 194 81
f 123 166 159
f 159 166 160
f 160 177 159
f 79 78 159
f 190 78 79
f 196 84 69
f 83 84 196
f 173 177 174
f 174 179 173
f 58 165 54
f 58 174 177
f 54 55 58
f 163 177 162
f 14 245 236
f 245 38 236
f 119 66 216
f 68 216 66
f 186 47 187
f 228 47 288
f 219 207 214
f 228 166 43
f 166 229 43
f 43 73 228
f 229 73 43
f 49 65 166
f 166 123 49
f 76 123 159
f 166 65 64
f 81 194 193
f 80 192 79
f 159 81 80
f 80 79 159
f 81 193 80
f 80 193 192
f 190 79 191
f 79 192 191
f 191 199 190
f 83 196 195
f 195 82 83
f 194 82 195
f 175 58 176
f 174 58 175
f 56 58 55
f 178 179 56
f 74 38 228
f 228 73 74
f 74 73 38
f 15 272 14
f 15 16 272
f 18 272 17
f 272 16 17
f 46 236 38
f 237 236 46
f 46 238 237
f 39 227 42
f 42 270 39
f 227 39 41
f 41 39 40
f 247 47 228
f 247 41 40
f 228 227 247
f 227 41 247
f 228 278 279
f 162 177 161
f 177 160 161
f 163 171 164
f 165 58 164
f 164 58 177
f 177 163 164
f 186 185 284
f 47 186 284
f 54 165 172
f 165 164 172
f 172 164 171
f 287 47 286
f 287 288 47
f 287 286 228
f 228 288 287
f 115 107 114
f 128 129 140
f 128 127 135
f 101 140 139
f 101 128 140
f 127 128 101
f 101 100 124
f 178 100 101
f 101 139 122
f 122 178 101
f 98 52 122
f 122 99 98
f 70 52 51
f 139 50 51
f 220 219 214
f 94 216 217
f 214 210 209
f 77 78 190
f 159 78 77
f 77 76 159
f 189 77 190
f 76 77 189
f 123 76 75
f 65 49 75
f 75 49 123
f 214 212 201
f 203 210 214
f 180 56 179
f 176 58 57
f 58 56 57
f 44 29 22
f 73 29 44
f 22 46 44
f 38 73 44
f 44 46 38
f 45 73 229
f 229 29 45
f 45 29 73
f 106 107 115
f 116 105 106
f 217 216 205
f 216 68 205
f 270 120 268
f 271 19 20
f 20 21 271
f 121 120 271
f 18 19 271
f 271 272 18
f 270 272 271
f 271 120 270
f 132 47 246
f 47 247 246
f 137 247 249
f 140 129 130
f 130 131 140
f 129 137 130
f 90 50 139
f 59 60 62
f 62 131 59
f 60 255 154
f 263 120 103
f 228 279 280
f 281 279 278
f 278 277 281
f 281 280 279
f 281 276 171
f 281 277 276
f 228 280 281
f 281 166 228
f 183 185 186
f 286 47 285
f 47 284 285
f 171 276 275
f 275 172 171
f 108 114 107
f 213 112 111
f 213 212 214
f 199 212 198
f 190 199 198
f 212 213 198
f 198 213 197
f 198 189 190
f 197 189 198
f 125 101 124
f 124 132 125
f 52 98 97
f 97 51 52
f 139 51 97
f 214 222 221
f 221 220 214
f 93 90 94
f 217 218 93
f 93 94 217
f 119 216 95
f 216 94 95
f 208 222 214
f 214 209 208
f 72 50 85
f 85 225 72
f 50 90 85
f 65 75 188
f 188 189 197
f 76 189 188
f 188 75 76
f 166 232 231
f 200 212 199
f 200 201 212
f 214 201 202
f 202 203 214
f 176 57 181
f 56 180 181
f 181 57 56
f 215 106 115
f 116 106 215
f 115 114 215
f 215 213 214
f 114 213 215
f 244 106 105
f 107 106 244
f 240 239 244
f 244 241 240
f 244 46 22
f 244 239 238
f 238 46 244
f 242 241 244
f 22 108 244
f 244 108 107
f 244 104 242
f 105 104 244
f 11 10 262
f 262 12 11
f 270 268 269
f 269 12 262
f 269 11 12
f 269 39 270
f 262 39 269
f 269 268 10
f 10 11 269
f 264 120 263
f 264 265 120
f 264 7 265
f 48 21 13
f 13 119 48
f 119 121 48
f 121 271 48
f 134 247 135
f 134 246 247
f 135 127 134
f 254 247 40
f 40 253 254
f 254 253 247
f 251 247 252
f 247 253 252
f 252 253 40
f 135 247 136
f 247 137 136
f 136 137 129
f 129 128 136
f 136 128 135
f 249 248 138
f 138 137 249
f 138 248 59
f 59 131 138
f 131 130 138
f 138 130 137
f 94 90 118
f 119 95 118
f 118 95 94
f 118 103 120
f 118 121 119
f 118 120 121
f 139 140 143
f 143 90 139
f 61 90 143
f 262 157 156
f 249 247 250
f 250 247 251
f 256 154 255
f 256 257 154
f 5 4 3
f 5 264 263
f 8 7 262
f 168 161 160
f 182 186 187
f 182 183 186
f 187 47 182
f 124 178 182
f 182 47 124
f 178 56 182
f 56 183 182
f 55 185 184
f 185 183 184
f 184 56 55
f 184 183 56
f 54 172 274
f 172 275 274
f 283 284 185
f 114 108 113
f 112 213 113
f 113 213 114
f 23 108 22
f 112 113 23
f 23 113 108
f 109 63 197
f 197 213 109
f 127 101 126
f 101 125 126
f 126 134 127
f 96 98 99
f 96 97 98
f 96 99 122
f 122 139 96
f 139 97 96
f 226 221 222
f 222 223 226
f 220 221 91
f 219 220 91
f 87 223 224
f 230 229 166
f 166 231 230
f 22 29 30
f 211 204 71
f 67 104 68
f 117 105 116
f 117 104 105
f 68 104 117
f 116 215 117
f 117 205 68
f 117 215 205
f 205 215 206
f 214 207 206
f 206 215 214
f 273 271 21
f 21 48 273
f 273 48 271
f 259 260 262
f 259 252 40
f 40 260 259
f 148 90 61
f 148 147 90
f 147 148 1
f 262 7 1
f 102 118 90
f 103 118 102
f 4 103 102
f 3 4 102
f 262 156 155
f 154 257 155
f 261 39 262
f 262 260 261
f 40 39 261
f 261 260 40
f 6 5 3
f 7 264 6
f 264 5 6
f 262 10 9
f 9 8 262
f 120 265 266
f 169 168 281
f 162 161 169
f 161 168 169
f 166 281 167
f 281 168 167
f 167 160 166
f 167 168 160
f 282 185 55
f 282 283 185
f 110 213 111
f 110 109 213
f 246 134 133
f 134 126 133
f 133 126 125
f 132 246 133
f 133 125 132
f 219 91 92
f 92 218 219
f 92 93 218
f 90 93 92
f 92 91 90
f 221 226 89
f 89 91 221
f 90 91 89
f 86 224 225
f 225 85 86
f 87 224 86
f 86 90 87
f 86 85 90
f 166 64 235
f 235 234 166
f 27 28 63
f 63 109 27
f 31 30 230
f 31 230 231
f 22 30 31
f 233 232 166
f 166 234 233
f 242 104 243
f 104 67 243
f 258 259 262
f 262 155 258
f 258 155 257
f 145 62 60
f 150 156 157
f 147 1 2
f 2 6 3
f 2 1 7
f 7 6 2
f 158 157 262
f 262 1 158
f 158 1 148
f 90 147 146
f 146 102 90
f 3 102 146
f 146 2 3
f 147 2 146
f 267 268 120
f 120 266 267
f 170 281 171
f 170 169 281
f 170 171 163
f 170 163 162
f 162 169 170
f 88 89 226
f 88 223 87
f 88 226 223
f 87 90 88
f 90 89 88
f 36 27 35
f 28 27 36
f 24 23 22
f 111 112 24
f 112 23 24
f 109 110 26
f 26 27 109
f 32 31 231
f 62 145 142
f 142 141 140
f 140 131 142
f 131 62 142
f 144 143 140
f 140 141 144
f 61 143 144
f 144 145 61
f 141 142 144
f 144 142 145
f 149 150 157
f 157 158 149
f 149 158 148
f 149 148 61
f 61 150 149
f 151 155 156
f 156 150 151
f 151 150 61
f 25 26 110
f 25 110 111
f 111 24 25
f 22 31 37
f 31 32 37
f 37 32 33
f 26 25 37
f 33 34 37
f 37 24 22
f 37 25 24
f 37 34 35
f 35 27 37
f 27 26 37
f 154 155 152
f 155 151 152
f 152 151 61
f 60 154 153
f 154 152 153
f 153 145 60
f 61 145 153
f 153 152 61
f 52 70 69
f 69 53 52
f 69 70 71
f 70 72 71
f 15 236 237
f 14 236 15
f 238 15 237
f 16 15 238
f 255 60 59
f 59 248 255
f 51 72 70
f 51 50 72
f 174 175 180
f 179 174 180
f 18 17 239
f 239 240 18
f 16 238 239
f 239 17 16
f 20 19 241
f 242 20 241
f 18 240 241
f 241 19 18
f 285 277 278
f 285 278 286
f 285 284 276
f 276 277 285
f 223 208 209
f 222 208 223
f 197 63 188
f 188 63 65
f 199 191 200
f 200 191 192
f 192 193 200
f 193 201 200
f 69 71 204
f 204 196 69
f 204 195 196
f 204 203 195
f 202 201 193
f 202 193 194
f 195 203 202
f 194 195 202
f 181 180 175
f 181 175 176
f 256 255 248
f 256 248 249
f 249 250 256
f 256 250 257
f 5 103 4
f 263 103 5
f 276 284 283
f 283 275 276
f 224 223 209
f 224 209 210
f 65 63 28
f 28 64 65
f 229 230 30
f 30 29 229
f 203 204 211
f 210 203 211
f 211 71 72
f 72 225 211
f 211 224 210
f 225 224 211
f 67 68 66
f 67 66 13
f 219 218 206
f 207 219 206
f 206 218 217
f 217 205 206
f 7 8 266
f 265 7 266
f 54 274 282
f 282 55 54
f 275 283 282
f 282 274 275
f 243 20 242
f 243 21 20
f 243 67 13
f 13 21 243
f 257 250 258
f 258 250 251
f 251 252 258
f 252 259 258
f 267 9 10
f 10 268 267
f 267 266 8
f 8 9 267
f 234 235 36
f 35 234 36
f 64 28 36
f 36 235 64
f 232 33 32
f 32 231 232
f 34 234 35
f 34 233 234
f 34 33 232
f 232 233 34

