# https://github.com/mikedh/trimesh

o p00047.obj
v 50.81458683 12.94881152 -28.00000000
v 48.59211539 38.35177633 -28.00000000
v 50.98889831 10.95642213 -26.00000000
v 50.98740705 10.97346730 -26.26105238
v 50.98295879 11.02431115 -26.51763809
v 50.97562964 11.10808374 -26.76536686
v 50.96554500 11.22335169 -27.00000000
v 50.95287742 11.36814274 -27.21752286
v 50.93784366 11.53997947 -27.41421356
v 50.92070093 11.73592171 -27.58670668
v 50.90174257 11.95261683 -27.73205081
v 50.88129294 12.18635711 -27.84775907
v 50.85970196 12.43314320 -27.93185165
v 50.83733904 12.68875252 -27.98288972
v 50.98889831 10.95642213 -4.75000000
v 51.03247618 10.45832478 -4.25000000
v 51.02678813 10.52333953 -4.25427757
v 51.02119740 10.58724186 -4.26703709
v 51.01579965 10.64893838 -4.28806023
v 51.01068725 10.70737345 -4.31698730
v 51.00594766 10.76154723 -4.35332333
v 51.00166197 10.81053279 -4.39644661
v 50.99790353 10.85349198 -4.44561929
v 50.99473664 10.88968974 -4.50000000
v 50.99221548 10.91850673 -4.55865828
v 50.99038319 10.93944987 -4.62059048
v 50.98927113 10.95216084 -4.68473690
v 51.25036554 7.96783803 -4.25000000
v 51.42467702 5.97544864 -2.25000000
v 51.42318577 5.99249381 -2.51105238
v 51.41873750 6.04333766 -2.76763809
v 51.41140835 6.12711025 -3.01536686
v 51.40132371 6.24237820 -3.25000000
v 51.38865614 6.38716925 -3.46752286
v 51.37362237 6.55900598 -3.66421356
v 51.35647965 6.75494822 -3.83670668
v 51.33752128 6.97164334 -3.98205081
v 51.31707166 7.20538362 -4.09775907
v 51.29548067 7.45216971 -4.18185165
v 51.27311775 7.70777903 -4.23288972
v 51.42467702 5.97544864 8.25000000
v 51.25036554 7.96783803 10.25000000
v 51.27311775 7.70777903 10.23288972
v 51.29548067 7.45216971 10.18185165
v 51.31707166 7.20538362 10.09775907
v 51.33752128 6.97164334 9.98205081
v 51.35647965 6.75494822 9.83670668
v 51.37362237 6.55900598 9.66421356
v 51.38865614 6.38716925 9.46752286
v 51.40132371 6.24237820 9.25000000
v 51.41140835 6.12711025 9.01536686
v 51.41873750 6.04333766 8.76763809
v 51.42318577 5.99249381 8.51105238
v 51.03247618 10.45832478 10.25000000
v 50.98889831 10.95642213 10.75000000
v 50.98927113 10.95216084 10.68473690
v 50.99038319 10.93944987 10.62059048
v 50.99221548 10.91850673 10.55865828
v 50.99473664 10.88968974 10.50000000
v 50.99790353 10.85349198 10.44561929
v 51.00166197 10.81053279 10.39644661
v 51.00594766 10.76154723 10.35332333
v 51.01068725 10.70737345 10.31698730
v 51.01579965 10.64893838 10.28806023
v 51.02119740 10.58724186 10.26703709
v 51.02678813 10.52333953 10.25427757
v 50.98889831 10.95642213 26.00000000
v 50.81458683 12.94881152 28.00000000
v 50.83733904 12.68875252 27.98288972
v 50.85970196 12.43314320 27.93185165
v 50.88129294 12.18635711 27.84775907
v 50.90174257 11.95261683 27.73205081
v 50.92070093 11.73592171 27.58670668
v 50.93784366 11.53997947 27.41421356
v 50.95287742 11.36814274 27.21752286
v 50.96554500 11.22335169 27.00000000
v 50.97562964 11.10808374 26.76536686
v 50.98295879 11.02431115 26.51763809
v 50.98740705 10.97346730 26.26105238
v 48.59211539 38.35177633 28.00000000
v 48.41780390 40.34416572 26.00000000
v 48.41929516 40.32712055 26.26105238
v 48.42374342 40.27627670 26.51763809
v 48.43107257 40.19250411 26.76536686
v 48.44115721 40.07723616 27.00000000
v 48.45382479 39.93244511 27.21752286
v 48.46885855 39.76060838 27.41421356
v 48.48600128 39.56466614 27.58670668
v 48.50495964 39.34797102 27.73205081
v 48.52540927 39.11423074 27.84775907
v 48.54700025 38.86744465 27.93185165
v 48.56936317 38.61183533 27.98288972
v 48.41780390 40.34416572 23.50000000
v 48.37422603 40.84226307 23.00000000
v 48.37991408 40.77724832 23.00427757
v 48.38550481 40.71334599 23.01703709
v 48.39090256 40.65164947 23.03806023
v 48.39601496 40.59321440 23.06698730
v 48.40075456 40.53904062 23.10332333
v 48.40504024 40.49005506 23.14644661
v 48.40879868 40.44709588 23.19561929
v 48.41196557 40.41089811 23.25000000
v 48.41448673 40.38208113 23.30865828
v 48.41631902 40.36113798 23.37059048
v 48.41743109 40.34842701 23.43473690
v 47.15404563 54.78898884 23.00000000
v 46.97973414 56.78137824 21.00000000
v 46.98122540 56.76433307 21.26105238
v 46.98567366 56.71348922 21.51763809
v 46.99300282 56.62971663 21.76536686
v 47.00308746 56.51444868 22.00000000
v 47.01575503 56.36965763 22.21752286
v 47.03078880 56.19782090 22.41421356
v 47.04793152 56.00187866 22.58670668
v 47.06688989 55.78518354 22.73205081
v 47.08733951 55.55144326 22.84775907
v 47.10893050 55.30465717 22.93185165
v 47.13129342 55.04904785 22.98288972
v 46.97973414 56.78137824 -21.00000000
v 47.15404563 54.78898884 -23.00000000
v 47.13129342 55.04904785 -22.98288972
v 47.10893050 55.30465717 -22.93185165
v 47.08733951 55.55144326 -22.84775907
v 47.06688989 55.78518354 -22.73205081
v 47.04793152 56.00187866 -22.58670668
v 47.03078880 56.19782090 -22.41421356
v 47.01575503 56.36965763 -22.21752286
v 47.00308746 56.51444868 -22.00000000
v 46.99300282 56.62971663 -21.76536686
v 46.98567366 56.71348922 -21.51763809
v 46.98122540 56.76433307 -21.26105238
v 48.37422603 40.84226307 -23.00000000
v 48.41780390 40.34416572 -23.50000000
v 48.41743109 40.34842701 -23.43473690
v 48.41631902 40.36113798 -23.37059048
v 48.41448673 40.38208113 -23.30865828
v 48.41196557 40.41089811 -23.25000000
v 48.40879868 40.44709588 -23.19561929
v 48.40504024 40.49005506 -23.14644661
v 48.40075456 40.53904062 -23.10332333
v 48.39601496 40.59321440 -23.06698730
v 48.39090256 40.65164947 -23.03806023
v 48.38550481 40.71334599 -23.01703709
v 48.37991408 40.77724832 -23.00427757
v 48.41780390 40.34416572 -26.00000000
v 48.56936317 38.61183533 -27.98288972
v 48.54700025 38.86744465 -27.93185165
v 48.52540927 39.11423074 -27.84775907
v 48.50495964 39.34797102 -27.73205081
v 48.48600128 39.56466614 -27.58670668
v 48.46885855 39.76060838 -27.41421356
v 48.45382479 39.93244511 -27.21752286
v 48.44115721 40.07723616 -27.00000000
v 48.43107257 40.19250411 -26.76536686
v 48.42374342 40.27627670 -26.51763809
v 48.41929516 40.32712055 -26.26105238
v 47.46770864 51.20380426 14.43053595
v 47.47824908 51.08332650 14.43837693
v 47.48450289 51.01184510 14.45231645
v 47.49286070 50.91631488 14.48707112
v 47.49976924 50.83734994 14.53809393
v 47.50468542 50.78115767 14.59738837
v 47.50819404 50.74105404 14.66769547
v 47.51029746 50.71701183 14.74898792
v 47.51099807 50.70900381 14.84123838
v 47.51026927 50.71733397 14.93982864
v 47.50808289 50.74232444 15.02527474
v 47.50443892 50.78397522 15.09754937
v 47.49933736 50.84228633 15.15662519
v 47.49243616 50.92116734 15.20497156
v 47.48379096 51.01998245 15.24114895
v 47.47420864 51.12950888 15.26379276
v 47.46313581 51.25607192 15.27584257
v 47.46313581 51.25607192 15.86814018
v 47.48744793 50.97818316 15.84278483
v 47.50295326 50.80095637 15.80215934
v 47.51564224 50.65592074 15.74789218
v 47.52474473 50.55187871 15.69219737
v 47.53272254 50.46069193 15.62668262
v 47.54020842 50.37512796 15.54397534
v 47.54616378 50.30705792 15.45472827
v 47.55109040 50.25074641 15.35334393
v 47.55511132 50.20478699 15.23337094
v 47.55807464 50.17091614 15.08761354
v 47.55929267 50.15699401 14.97096223
v 47.55969868 50.15235330 14.84619362
v 47.55900440 50.16028890 14.69496147
v 47.55692205 50.18409031 14.55344548
v 47.55345232 50.22374946 14.42164566
v 47.54859593 50.27925830 14.29956201
v 47.54235357 50.35060876 14.18719453
v 47.53472596 50.43779276 14.08454321
v 47.52598890 50.53765786 13.99476582
v 47.51741237 50.63568802 13.92792247
v 47.50792024 50.74418349 13.87312974
v 47.49672811 50.87211017 13.82911396
v 47.48375037 51.02044645 13.80032321
v 47.46979181 51.17999344 13.79072629
v 47.45699030 51.32631547 13.80010295
v 47.44624097 51.44918084 13.82459467
v 47.43649575 51.56056920 13.86300043
v 47.43160418 51.61648014 13.88924807
v 47.42690886 51.67014788 13.91956268
v 47.41853269 51.76588796 13.98901227
v 47.41137651 51.84768343 14.06948293
v 47.40523809 51.91784591 14.16196175
v 47.40195949 51.95532041 14.22467140
v 47.39904002 51.98869019 14.29208056
v 47.39174904 52.07202639 14.17147790
v 47.38446790 52.15525027 14.07965689
v 47.37673682 52.24361684 14.00558908
v 47.36835189 52.33945712 13.94643656
v 47.35900754 52.44626354 13.90106686
v 47.34954135 52.55446252 13.87290849
v 47.34219383 52.63844507 13.86133439
v 47.33451234 52.72624486 13.85747636
v 47.32252279 52.86328604 13.86652855
v 47.31234769 52.97958807 13.89015475
v 47.30274336 53.08936598 13.92853940
v 47.29373797 53.19229810 13.98164899
v 47.28552790 53.28613960 14.04751773
v 47.27849244 53.36655524 14.12210858
v 47.27242812 53.43587082 14.20639265
v 47.26916987 53.47311275 14.26292715
v 47.26625020 53.50648477 14.32326946
v 47.26178019 53.55757722 14.44457643
v 47.25870217 53.59275908 14.57385697
v 47.25718035 53.61015359 14.69032563
v 47.25667266 53.61595647 14.81267284
v 47.25728649 53.60894040 14.95443173
v 47.25912750 53.58789756 15.08676594
v 47.26219499 53.55283602 15.20967547
v 47.26648825 53.50376384 15.32316031
v 47.27200657 53.44068910 15.42722047
v 47.27874926 53.36361985 15.52185595
v 47.28661198 53.27374853 15.60563091
v 47.29549089 53.17226217 15.67709872
v 47.30538598 53.05916077 15.73624320
v 47.31629725 52.93444434 15.78304814
v 47.32822471 52.79811288 15.81749735
v 47.34116835 52.65016638 15.83957464
v 47.34741788 52.57873392 15.26651505
v 47.33575325 52.71206119 15.24357831
v 47.32902694 52.78894336 15.22043309
v 47.32180067 52.87153997 15.18265959
v 47.31678191 52.92890471 15.14367233
v 47.31044431 53.00134377 15.06351186
v 47.30664117 53.04481389 14.96435839
v 47.30537327 53.05930596 14.84619362
v 47.30601156 53.05201027 14.76683682
v 47.30792644 53.03012319 14.69578734
v 47.31111789 52.99364472 14.63304519
v 47.31558592 52.94257487 14.57861036
v 47.32108165 52.87975840 14.53478285
v 47.32738953 52.80765899 14.50344365
v 47.33450242 52.72635828 14.48462009
v 47.34241317 52.63593797 14.47833950
v 47.35248643 52.52080017 14.48784658
v 47.36253388 52.40595728 14.52288373
v 47.37073930 52.31216889 14.58356560
v 47.37528870 52.26016893 14.64051449
v 47.37853533 52.22305980 14.70642655
v 47.38048156 52.20081429 14.78130177
v 47.38112978 52.19340517 14.86514015
v 47.38112978 52.19340517 15.11844065
v 47.42609591 51.67943991 15.11844065
v 47.42609591 51.67943991 14.87942292
v 47.42685430 51.67077145 14.76646329
v 47.42820255 51.65536085 14.70022747
v 47.43131556 51.61977901 14.61785314
v 47.43497042 51.57800377 14.56063551
v 47.44320466 51.48388603 14.48837144
v 47.45018221 51.40413229 14.45624460
v 47.45835020 51.31077171 14.43696411
v 50.01736226 22.06113000 -5.28381839
v 49.71115053 25.56114613 -5.28381839
v 49.71035324 25.57025915 -12.32888532
v 49.09633203 32.58855373 -12.32888532
v 49.09633203 32.58855373 -15.85141878
v 48.48350992 39.59314247 -15.85141878
v 48.17650090 43.10227163 -15.85141878
v 48.17650090 43.10227163 -12.32888532
v 47.56128375 50.13423578 -12.32888532
v 47.56128375 50.13423578 -5.28381839
v 47.25427473 53.64336494 -5.28381839
v 47.25427473 53.64336494 5.28381839
v 47.56128375 50.13423578 5.28381839
v 47.56128375 50.13423578 12.32892171
v 48.17650090 43.10227163 12.32892171
v 48.17650090 43.10227163 15.85145517
v 49.09633203 32.58855373 15.85145517
v 49.09633203 32.58855373 12.32892171
v 49.71035324 25.57025915 12.32892171
v 49.71115053 25.56114609 5.28381839
v 50.01736226 22.06113000 5.28381839
v 50.01736226 22.06113000 1.76128493
v 50.01736226 22.06113000 -1.76124853
v 49.71154917 25.55658958 -1.76124853
v 49.71154917 25.55658958 1.76128493
v 48.48350992 39.59314247 -12.32888532
v 47.86949188 46.61140079 -8.80635185
v 47.86949188 46.61140079 8.80635185
v 49.40454015 29.06571874 8.80635185
v 49.40454015 29.06571874 -8.80635185
v 48.17650090 43.10227163 -1.76124853
v 48.17650090 43.10227163 5.28381839
v 48.79052211 36.08397705 5.28381839
v 48.79052211 36.08397705 1.76128493
v 49.09753113 32.57484789 1.76128493
v 49.09753113 32.57484789 -5.28381839
v 48.48350992 39.59314247 -5.28381839
v 48.48350992 39.59314247 -1.76124853
v 48.09401804 38.30819845 -28.00000000
v 48.07126582 38.56825746 -27.98288972
v 48.04890290 38.82386678 -27.93185165
v 48.02731192 39.07065287 -27.84775907
v 48.00686229 39.30439315 -27.73205081
v 47.98790393 39.52108827 -27.58670668
v 47.97076120 39.71703051 -27.41421356
v 47.95572744 39.88886724 -27.21752286
v 47.94305986 40.03365829 -27.00000000
v 47.93297522 40.14892624 -26.76536686
v 47.92564607 40.23269883 -26.51763809
v 47.92119781 40.28354268 -26.26105238
v 47.91970655 40.30058785 -26.00000000
v 47.91970655 40.30058785 -23.50000000
v 47.87612868 40.79868520 -23.00000000
v 47.91933374 40.30484914 -23.43473690
v 47.91822167 40.31756011 -23.37059048
v 47.91638938 40.33850325 -23.30865828
v 47.91386822 40.36732024 -23.25000000
v 47.91070133 40.40351800 -23.19561929
v 47.90694289 40.44647719 -23.14644661
v 47.90265721 40.49546275 -23.10332333
v 47.89791762 40.54963653 -23.06698730
v 47.89280521 40.60807160 -23.03806023
v 47.88740746 40.66976812 -23.01703709
v 47.88181673 40.73367045 -23.00427757
v 46.65594828 54.74541097 -23.00000000
v 46.63319607 55.00546997 -22.98288972
v 46.61083315 55.26107929 -22.93185165
v 46.58924216 55.50786539 -22.84775907
v 46.56879254 55.74160567 -22.73205081
v 46.54983417 55.95830079 -22.58670668
v 46.53269145 56.15424303 -22.41421356
v 46.51765768 56.32607976 -22.21752286
v 46.50499011 56.47087080 -22.00000000
v 46.49490547 56.58613876 -21.76536686
v 46.48757632 56.66991135 -21.51763809
v 46.48312805 56.72075520 -21.26105238
v 46.48163680 56.73780037 -21.00000000
v 46.48163680 56.73780037 21.00000000
v 46.48312805 56.72075520 21.26105238
v 46.48757632 56.66991135 21.51763809
v 46.49490547 56.58613876 21.76536686
v 46.50499011 56.47087080 22.00000000
v 46.51765768 56.32607976 22.21752286
v 46.53269145 56.15424303 22.41421356
v 46.54983417 55.95830079 22.58670668
v 46.56879254 55.74160567 22.73205081
v 46.58924216 55.50786539 22.84775907
v 46.61083315 55.26107929 22.93185165
v 46.63319607 55.00546997 22.98288972
v 46.65594828 54.74541097 23.00000000
v 47.87612868 40.79868520 23.00000000
v 47.91970655 40.30058785 23.50000000
v 47.88181673 40.73367045 23.00427757
v 47.88740746 40.66976812 23.01703709
v 47.89280521 40.60807160 23.03806023
v 47.89791762 40.54963653 23.06698730
v 47.90265721 40.49546275 23.10332333
v 47.90694289 40.44647719 23.14644661
v 47.91070133 40.40351800 23.19561929
v 47.91386822 40.36732024 23.25000000
v 47.91638938 40.33850325 23.30865828
v 47.91822167 40.31756011 23.37059048
v 47.91933374 40.30484914 23.43473690
v 47.91970655 40.30058785 26.00000000
v 47.92119781 40.28354268 26.26105238
v 47.92564607 40.23269883 26.51763809
v 47.93297522 40.14892624 26.76536686
v 47.94305986 40.03365829 27.00000000
v 47.95572744 39.88886724 27.21752286
v 47.97076120 39.71703051 27.41421356
v 47.98790393 39.52108827 27.58670668
v 48.00686229 39.30439315 27.73205081
v 48.02731192 39.07065287 27.84775907
v 48.04890290 38.82386678 27.93185165
v 48.07126582 38.56825746 27.98288972
v 48.09401804 38.30819845 28.00000000
v 50.31648948 12.90523365 28.00000000
v 50.33924169 12.64517465 27.98288972
v 50.36160461 12.38956533 27.93185165
v 50.38319559 12.14277924 27.84775907
v 50.40364522 11.90903896 27.73205081
v 50.42260359 11.69234384 27.58670668
v 50.43974631 11.49640160 27.41421356
v 50.45478008 11.32456487 27.21752286
v 50.46744765 11.17977382 27.00000000
v 50.47753229 11.06450587 26.76536686
v 50.48486144 10.98073328 26.51763809
v 50.48930970 10.92988942 26.26105238
v 50.49080096 10.91284426 26.00000000
v 50.49080096 10.91284426 10.75000000
v 50.53437883 10.41474691 10.25000000
v 50.49117378 10.90858297 10.68473690
v 50.49228584 10.89587200 10.62059048
v 50.49411813 10.87492885 10.55865828
v 50.49663929 10.84611187 10.50000000
v 50.49980618 10.80991410 10.44561929
v 50.50356462 10.76695492 10.39644661
v 50.50785031 10.71796936 10.35332333
v 50.51258990 10.66379558 10.31698730
v 50.51770230 10.60536051 10.28806023
v 50.52310005 10.54366399 10.26703709
v 50.52869078 10.47976166 10.25427757
v 50.75226819 7.92426016 10.25000000
v 50.77502040 7.66420116 10.23288972
v 50.79738332 7.40859184 10.18185165
v 50.81897431 7.16180575 10.09775907
v 50.83942393 6.92806546 9.98205081
v 50.85838230 6.71137035 9.83670668
v 50.87552502 6.51542811 9.66421356
v 50.89055879 6.34359138 9.46752286
v 50.90322636 6.19880033 9.25000000
v 50.91331100 6.08353238 9.01536686
v 50.92064016 5.99975979 8.76763809
v 50.92508842 5.94891593 8.51105238
v 50.92657968 5.93187077 8.25000000
v 50.92657968 5.93187077 -2.25000000
v 50.92508842 5.94891593 -2.51105238
v 50.92064016 5.99975979 -2.76763809
v 50.91331100 6.08353238 -3.01536686
v 50.90322636 6.19880033 -3.25000000
v 50.89055879 6.34359138 -3.46752286
v 50.87552502 6.51542811 -3.66421356
v 50.85838230 6.71137035 -3.83670668
v 50.83942393 6.92806546 -3.98205081
v 50.81897431 7.16180575 -4.09775907
v 50.79738332 7.40859184 -4.18185165
v 50.77502040 7.66420116 -4.23288972
v 50.75226819 7.92426016 -4.25000000
v 50.53437883 10.41474691 -4.25000000
v 50.49080096 10.91284426 -4.75000000
v 50.52869078 10.47976166 -4.25427757
v 50.52310005 10.54366399 -4.26703709
v 50.51770230 10.60536051 -4.28806023
v 50.51258990 10.66379558 -4.31698730
v 50.50785031 10.71796936 -4.35332333
v 50.50356462 10.76695492 -4.39644661
v 50.49980618 10.80991410 -4.44561929
v 50.49663929 10.84611187 -4.50000000
v 50.49411813 10.87492885 -4.55865828
v 50.49228584 10.89587200 -4.62059048
v 50.49117378 10.90858297 -4.68473690
v 50.49080096 10.91284426 -26.00000000
v 50.48930970 10.92988942 -26.26105238
v 50.48486144 10.98073328 -26.51763809
v 50.47753229 11.06450587 -26.76536686
v 50.46744765 11.17977382 -27.00000000
v 50.45478008 11.32456487 -27.21752286
v 50.43974631 11.49640160 -27.41421356
v 50.42260359 11.69234384 -27.58670668
v 50.40364522 11.90903896 -27.73205081
v 50.38319559 12.14277924 -27.84775907
v 50.36160461 12.38956533 -27.93185165
v 50.33924169 12.64517465 -27.98288972
v 50.31648948 12.90523365 -28.00000000
v 49.14734087 32.57920568 -5.28381839
v 48.53331966 39.59750026 -5.28381839
v 49.14734087 32.57920568 1.76128493
v 48.84033185 36.08833484 1.76128493
v 48.84033185 36.08833484 5.28381839
v 48.22631064 43.10662942 5.28381839
v 48.22631064 43.10662942 -1.76124853
v 48.53331966 39.59750026 -1.76124853
v 47.61109349 50.13859357 -12.32888532
v 47.61109349 50.13859357 -5.28381839
v 48.53331966 39.59750026 -12.32888532
v 48.53331966 39.59750026 -15.85141878
v 49.14614176 32.59291152 -15.85141878
v 49.14614176 32.59291152 -12.32888532
v 49.76016298 25.57461694 -12.32888532
v 49.76135891 25.56094736 -1.76124853
v 50.06717200 22.06548778 -1.76124853
v 50.06717200 22.06548778 1.76128493
v 49.76135891 25.56094736 1.76128493
v 49.76016298 25.57461694 12.32892171
v 47.61109349 50.13859357 12.32892171
v 47.61109349 50.13859357 5.28381839
v 47.30408447 53.64772273 5.28381839
v 47.30408447 53.64772273 -5.28381839
v 47.91930161 46.61575858 -8.80635185
v 47.91930161 46.61575858 8.80635185
v 49.45434989 29.07007652 8.80635185
v 49.45434989 29.07007652 -8.80635185
v 49.14614176 32.59291152 15.85145517
v 49.14614176 32.59291152 12.32892171
v 48.22631064 43.10662942 15.85145517
v 48.22631064 43.10662942 12.32892171
v 49.76096027 25.56550387 5.28381839
v 50.06717200 22.06548778 5.28381839
v 49.76096026 25.56550392 -5.28381839
v 50.06717200 22.06548778 -5.28381839
v 48.22631064 43.10662942 -12.32888532
v 48.22631064 43.10662942 -15.85141878
v 47.43093951 52.19776295 15.11844065
v 47.47590565 51.68379770 15.11844065
v 47.43093951 52.19776295 14.86514015
v 47.42054903 52.31652668 14.58356560
v 47.42509844 52.26452672 14.64051449
v 47.42834507 52.22741759 14.70642655
v 47.43029130 52.20517208 14.78130177
v 47.39222291 52.64029575 14.47833950
v 47.40229616 52.52515795 14.48784658
v 47.41234361 52.41031507 14.52288373
v 47.36539566 52.94693265 14.57861036
v 47.37089138 52.88411619 14.53478285
v 47.37719927 52.81201677 14.50344365
v 47.38431216 52.73071607 14.48462009
v 47.35518301 53.06366375 14.84619362
v 47.35582130 53.05636805 14.76683682
v 47.35773617 53.03448097 14.69578734
v 47.36092762 52.99800251 14.63304519
v 47.39722761 52.58309171 15.26651505
v 47.38556299 52.71641898 15.24357831
v 47.37883667 52.79330114 15.22043309
v 47.37161040 52.87589776 15.18265959
v 47.36659164 52.93326250 15.14367233
v 47.36025404 53.00570156 15.06351186
v 47.35645090 53.04917168 14.96435839
v 47.39097808 52.65452417 15.83957464
v 47.32855899 53.36797764 15.52185595
v 47.33642172 53.27810631 15.60563091
v 47.34530062 53.17661995 15.67709872
v 47.35519571 53.06351856 15.73624320
v 47.36610698 52.93880213 15.78304814
v 47.37803444 52.80247067 15.81749735
v 47.30648240 53.62031426 14.81267284
v 47.30709623 53.61329818 14.95443173
v 47.30893724 53.59225535 15.08676594
v 47.31200472 53.55719381 15.20967547
v 47.31629798 53.50812163 15.32316031
v 47.32181631 53.44504689 15.42722047
v 47.31605993 53.51084256 14.32326946
v 47.31158992 53.56193501 14.44457643
v 47.30851191 53.59711687 14.57385697
v 47.30699009 53.61451138 14.69032563
v 47.34354770 53.19665589 13.98164899
v 47.33533764 53.29049739 14.04751773
v 47.32830218 53.37091303 14.12210858
v 47.32223785 53.44022860 14.20639265
v 47.31897961 53.47747053 14.26292715
v 47.38432208 52.73060264 13.85747636
v 47.37233253 52.86764383 13.86652855
v 47.36215742 52.98394586 13.89015475
v 47.35255310 53.09372377 13.92853940
v 47.44884975 51.99304798 14.29208056
v 47.44155878 52.07638418 14.17147790
v 47.43427763 52.15960805 14.07965689
v 47.42654656 52.24797463 14.00558908
v 47.41816162 52.34381491 13.94643656
v 47.40881727 52.45062132 13.90106686
v 47.39935109 52.55882031 13.87290849
v 47.39200357 52.64280286 13.86133439
v 47.47671859 51.67450567 13.91956268
v 47.46834242 51.77024575 13.98901227
v 47.46118624 51.85204122 14.06948293
v 47.45504782 51.92220370 14.16196175
v 47.45176923 51.95967819 14.22467140
v 47.51960155 51.18435123 13.79072629
v 47.50680003 51.33067325 13.80010295
v 47.49605070 51.45353863 13.82459467
v 47.48630549 51.56492698 13.86300043
v 47.48141391 51.62083793 13.88924807
v 47.58453569 50.44215055 14.08454321
v 47.57579863 50.54201565 13.99476582
v 47.56722210 50.64004581 13.92792247
v 47.55772998 50.74854128 13.87312974
v 47.54653785 50.87646796 13.82911396
v 47.53356010 51.02480424 13.80032321
v 47.60950841 50.15671109 14.84619362
v 47.60881414 50.16464668 14.69496147
v 47.60673178 50.18844809 14.55344548
v 47.60326206 50.22810725 14.42164566
v 47.59840566 50.28361609 14.29956201
v 47.59216331 50.35496654 14.18719453
v 47.51294555 51.26042970 15.86814018
v 47.53725766 50.98254095 15.84278483
v 47.55276300 50.80531416 15.80215934
v 47.56545197 50.66027852 15.74789218
v 47.57455447 50.55623650 15.69219737
v 47.58253228 50.46504972 15.62668262
v 47.59001815 50.37948575 15.54397534
v 47.59597351 50.31141571 15.45472827
v 47.60090013 50.25510420 15.35334393
v 47.60492106 50.20914477 15.23337094
v 47.60788437 50.17527392 15.08761354
v 47.60910240 50.16135180 14.97096223
v 47.51294555 51.26042970 15.27584257
v 47.54914709 50.84664411 15.15662519
v 47.54224590 50.92552513 15.20497156
v 47.53360070 51.02434024 15.24114895
v 47.52401838 51.13386666 15.26379276
v 47.56080780 50.71336160 14.84123838
v 47.56007901 50.72169175 14.93982864
v 47.55789263 50.74668223 15.02527474
v 47.55424865 50.78833301 15.09754937
v 47.54957897 50.84170772 14.53809393
v 47.55449516 50.78551546 14.59738837
v 47.55800377 50.74541183 14.66769547
v 47.56010719 50.72136962 14.74898792
v 47.51751837 51.20816205 14.43053595
v 47.52805881 51.08768429 14.43837693
v 47.53431262 51.01620288 14.45231645
v 47.54267043 50.92067266 14.48707112
v 47.47590565 51.68379770 14.87942292
v 47.47666404 51.67512924 14.76646329
v 47.47801229 51.65971864 14.70022747
v 47.48112530 51.62413680 14.61785314
v 47.48478016 51.58236156 14.56063551
v 47.49301439 51.48824381 14.48837144
v 47.49999194 51.40849008 14.45624460
v 47.50815993 51.31512949 14.43696411
f 123 124 125
f 122 123 125
f 122 125 126
f 122 126 127
f 122 127 128
f 131 128 129
f 131 129 130
f 131 122 128
f 120 122 131
f 120 121 122
f 120 131 119
f 153 151 152
f 148 151 153
f 148 149 150
f 148 150 151
f 154 148 153
f 146 148 154
f 146 147 148
f 146 154 155
f 146 155 156
f 145 146 156
f 2 146 145
f 133 2 145
f 283 120 119
f 285 283 119
f 281 132 120
f 281 120 283
f 284 283 285
f 280 138 139
f 280 139 140
f 280 140 141
f 280 141 142
f 280 142 143
f 280 143 144
f 280 144 132
f 280 132 281
f 282 281 283
f 279 133 134
f 279 134 135
f 279 135 136
f 279 136 137
f 279 137 138
f 279 2 133
f 279 138 280
f 286 285 119
f 1 2 279
f 13 14 1
f 12 13 1
f 221 286 222
f 223 222 286
f 224 223 286
f 220 286 221
f 225 224 286
f 10 11 12
f 219 286 220
f 226 225 286
f 218 286 219
f 227 226 286
f 217 286 218
f 8 9 10
f 250 252 251
f 250 253 252
f 250 254 253
f 249 255 254
f 249 254 250
f 7 10 12
f 7 12 1
f 7 8 10
f 288 215 214
f 288 216 215
f 288 217 216
f 288 286 217
f 288 287 286
f 277 1 279
f 277 279 278
f 246 248 247
f 204 211 210
f 204 212 211
f 204 210 205
f 206 210 209
f 206 205 210
f 203 212 204
f 207 206 209
f 202 212 203
f 202 213 212
f 208 207 209
f 201 214 213
f 201 213 202
f 245 255 249
f 245 249 248
f 245 256 255
f 245 248 246
f 200 214 201
f 200 288 214
f 244 257 256
f 244 256 245
f 199 288 200
f 262 261 260
f 243 257 244
f 243 258 257
f 263 262 260
f 263 260 259
f 198 288 199
f 264 258 243
f 264 263 259
f 264 259 258
f 242 264 243
f 197 288 198
f 4 5 6
f 4 6 7
f 265 264 242
f 196 288 197
f 272 271 270
f 269 272 270
f 273 272 269
f 268 273 269
f 274 273 268
f 195 288 196
f 241 265 242
f 3 4 7
f 3 1 277
f 3 7 1
f 194 288 195
f 193 288 194
f 192 288 193
f 191 288 192
f 163 162 161
f 173 274 268
f 173 267 266
f 173 268 267
f 173 157 274
f 190 288 191
f 164 161 160
f 164 163 161
f 165 164 160
f 165 160 159
f 172 158 157
f 172 157 173
f 107 228 227
f 107 229 228
f 107 230 229
f 107 227 286
f 107 231 230
f 107 232 231
f 107 233 232
f 107 234 233
f 107 235 234
f 107 236 235
f 107 237 236
f 107 238 237
f 107 239 238
f 107 240 239
f 107 286 119
f 189 288 190
f 171 165 159
f 171 158 172
f 171 159 158
f 170 165 171
f 170 166 165
f 169 166 170
f 169 167 166
f 169 168 167
f 188 288 189
f 174 173 266
f 174 266 265
f 174 265 241
f 109 107 108
f 110 107 109
f 111 107 110
f 112 107 111
f 113 107 112
f 116 113 114
f 116 114 115
f 106 116 117
f 106 117 118
f 106 240 107
f 106 241 240
f 106 174 241
f 106 175 174
f 106 107 113
f 106 176 175
f 106 177 176
f 106 113 116
f 289 288 188
f 289 188 187
f 275 277 276
f 290 179 178
f 290 180 179
f 290 181 180
f 290 182 181
f 290 183 182
f 290 184 183
f 290 185 184
f 290 186 185
f 290 187 186
f 290 289 187
f 94 177 106
f 94 178 177
f 94 290 178
f 95 290 94
f 96 290 95
f 97 290 96
f 98 290 97
f 291 102 103
f 291 103 104
f 291 104 105
f 291 105 93
f 291 98 99
f 291 290 98
f 291 99 100
f 291 100 101
f 291 101 102
f 15 277 275
f 15 3 277
f 27 15 275
f 26 27 275
f 26 275 297
f 25 26 297
f 24 25 297
f 23 24 297
f 22 297 296
f 22 23 297
f 21 22 296
f 20 21 296
f 19 20 296
f 293 292 291
f 293 295 294
f 85 83 84
f 87 83 85
f 87 85 86
f 88 83 87
f 89 83 88
f 39 40 28
f 37 38 39
f 92 90 91
f 80 291 93
f 80 81 82
f 80 82 83
f 80 83 89
f 80 89 90
f 80 90 92
f 80 93 81
f 33 34 35
f 33 35 36
f 33 36 37
f 32 37 39
f 32 39 28
f 32 33 37
f 29 16 17
f 29 28 16
f 29 30 31
f 29 31 32
f 29 32 28
f 62 295 61
f 60 61 295
f 63 295 62
f 63 296 295
f 59 60 295
f 58 59 295
f 64 296 63
f 64 19 296
f 57 58 295
f 65 19 64
f 65 18 19
f 56 57 295
f 66 29 17
f 66 17 18
f 66 18 65
f 55 295 293
f 55 56 295
f 41 29 66
f 41 54 42
f 41 66 54
f 43 41 42
f 43 53 41
f 52 53 43
f 50 51 52
f 46 44 45
f 47 43 44
f 47 44 46
f 48 43 47
f 48 52 43
f 48 49 50
f 48 50 52
f 68 291 80
f 68 293 291
f 67 55 293
f 67 293 68
f 79 67 68
f 76 77 78
f 72 70 71
f 75 78 79
f 75 76 78
f 74 68 69
f 74 79 68
f 74 69 70
f 74 72 73
f 74 70 72
f 74 75 79
f 298 275 276
f 297 275 298
f 295 299 294
f 295 296 299
f 291 289 290
f 291 292 289
f 300 281 282
f 300 280 281
f 301 283 284
f 282 283 301
f 300 282 301
f 279 280 300
f 286 284 285
f 287 284 286
f 278 279 300
f 302 287 288
f 302 301 284
f 302 284 287
f 304 277 278
f 304 278 300
f 276 277 304
f 289 302 288
f 298 276 304
f 299 297 298
f 292 302 289
f 296 297 299
f 303 294 299
f 303 299 298
f 303 302 292
f 293 294 303
f 293 303 292
f 303 298 304
f 304 300 301
f 305 311 301
f 312 311 305
f 302 305 301
f 304 301 311
f 306 305 302
f 310 304 311
f 307 306 302
f 309 308 307
f 309 304 310
f 303 309 307
f 303 304 309
f 303 307 302
f 253 221 222
f 253 222 223
f 252 225 226
f 252 253 223
f 252 223 224
f 252 224 225
f 254 220 221
f 254 221 253
f 254 219 220
f 251 226 227
f 251 252 226
f 255 219 254
f 255 217 218
f 255 218 219
f 250 227 228
f 250 228 229
f 250 251 227
f 256 216 217
f 256 217 255
f 249 229 230
f 249 250 229
f 257 213 214
f 257 214 215
f 257 215 216
f 257 216 256
f 248 230 231
f 248 231 232
f 248 249 230
f 258 213 257
f 258 211 212
f 258 212 213
f 247 232 233
f 247 233 234
f 247 248 232
f 259 209 210
f 259 210 211
f 259 211 258
f 235 247 234
f 246 247 235
f 260 209 259
f 208 209 260
f 236 245 246
f 236 246 235
f 261 208 260
f 262 208 261
f 237 245 236
f 238 244 245
f 238 245 237
f 239 243 244
f 239 244 238
f 271 206 207
f 271 207 208
f 270 271 208
f 272 206 271
f 272 204 205
f 272 205 206
f 240 242 243
f 240 243 239
f 269 262 263
f 269 270 208
f 269 208 262
f 273 204 272
f 273 203 204
f 273 201 202
f 273 202 203
f 268 263 264
f 268 269 263
f 274 201 273
f 274 199 200
f 274 200 201
f 241 242 240
f 267 264 265
f 267 268 264
f 157 198 199
f 157 199 274
f 158 196 197
f 158 197 198
f 158 198 157
f 266 267 265
f 159 195 196
f 159 196 158
f 160 193 194
f 160 194 195
f 160 195 159
f 161 192 193
f 161 193 160
f 191 161 162
f 191 192 161
f 190 191 162
f 189 190 162
f 189 162 163
f 188 163 164
f 188 189 163
f 187 164 165
f 187 188 164
f 174 172 173
f 186 187 165
f 185 186 165
f 185 165 166
f 175 172 174
f 175 171 172
f 184 185 166
f 184 166 167
f 176 171 175
f 176 170 171
f 183 184 167
f 177 170 176
f 182 183 167
f 182 167 168
f 178 170 177
f 178 169 170
f 181 182 168
f 179 169 178
f 180 168 169
f 180 181 168
f 180 169 179
f 324 325 145
f 324 156 155
f 324 145 156
f 323 155 154
f 323 324 155
f 322 154 153
f 322 323 154
f 321 153 152
f 321 322 153
f 320 152 151
f 320 321 152
f 319 151 150
f 319 320 151
f 318 150 149
f 318 319 150
f 317 149 148
f 317 318 149
f 316 148 147
f 316 317 148
f 315 147 146
f 315 316 147
f 314 146 2
f 314 315 146
f 313 314 2
f 133 145 325
f 133 325 326
f 328 133 326
f 328 134 133
f 329 135 134
f 329 134 328
f 330 136 135
f 330 135 329
f 331 137 136
f 331 136 330
f 332 138 137
f 332 137 331
f 333 139 138
f 333 138 332
f 334 140 139
f 334 139 333
f 335 141 140
f 335 140 334
f 336 142 141
f 336 141 335
f 337 143 142
f 337 144 143
f 337 142 336
f 338 144 337
f 327 132 144
f 327 144 338
f 339 132 327
f 120 132 339
f 351 119 131
f 350 351 131
f 349 131 130
f 349 350 131
f 348 130 129
f 348 349 130
f 347 129 128
f 347 348 129
f 346 128 127
f 346 347 128
f 345 127 126
f 345 346 127
f 344 126 125
f 344 345 126
f 343 125 124
f 343 344 125
f 342 124 123
f 342 343 124
f 341 123 122
f 341 342 123
f 340 122 121
f 340 341 122
f 339 121 120
f 339 340 121
f 107 119 351
f 107 351 352
f 364 106 118
f 363 364 118
f 362 118 117
f 362 363 118
f 361 117 116
f 361 362 117
f 360 116 115
f 360 361 116
f 359 115 114
f 359 360 115
f 358 114 113
f 358 359 114
f 357 113 112
f 357 358 113
f 356 112 111
f 356 357 112
f 355 111 110
f 355 356 111
f 354 110 109
f 354 355 110
f 353 108 107
f 353 109 108
f 353 354 109
f 352 353 107
f 364 94 106
f 364 365 94
f 365 95 94
f 367 96 95
f 367 95 365
f 368 97 96
f 368 96 367
f 369 98 97
f 369 97 368
f 370 99 98
f 370 98 369
f 371 100 99
f 371 99 370
f 372 101 100
f 372 100 371
f 373 102 101
f 373 101 372
f 374 103 102
f 374 102 373
f 375 104 103
f 375 103 374
f 376 105 104
f 376 104 375
f 377 93 105
f 377 105 376
f 366 93 377
f 81 93 366
f 81 366 378
f 389 390 80
f 389 80 92
f 388 92 91
f 388 389 92
f 387 91 90
f 387 388 91
f 386 90 89
f 386 387 90
f 385 89 88
f 385 386 89
f 384 88 87
f 384 385 88
f 383 87 86
f 383 384 87
f 382 86 85
f 382 383 86
f 381 85 84
f 381 382 85
f 380 84 83
f 380 381 84
f 379 82 81
f 379 83 82
f 379 380 83
f 378 379 81
f 390 68 80
f 390 391 68
f 403 67 79
f 402 79 78
f 402 403 79
f 401 78 77
f 401 402 78
f 400 401 77
f 399 77 76
f 399 400 77
f 398 75 74
f 398 76 75
f 398 399 76
f 397 74 73
f 397 398 74
f 396 397 73
f 395 72 71
f 395 73 72
f 395 396 73
f 394 395 71
f 393 70 69
f 393 71 70
f 393 394 71
f 392 69 68
f 392 393 69
f 391 392 68
f 67 404 55
f 403 404 67
f 406 55 404
f 406 56 55
f 407 57 56
f 407 56 406
f 408 58 57
f 408 57 407
f 409 59 58
f 409 58 408
f 410 60 59
f 410 59 409
f 411 61 60
f 411 60 410
f 412 62 61
f 412 61 411
f 413 63 62
f 413 62 412
f 414 64 63
f 414 63 413
f 415 65 64
f 415 64 414
f 416 66 65
f 416 65 415
f 405 54 66
f 405 66 416
f 54 417 42
f 54 405 417
f 429 41 53
f 428 429 53
f 427 53 52
f 427 428 53
f 426 52 51
f 426 427 52
f 425 51 50
f 425 426 51
f 424 50 49
f 424 425 50
f 423 49 48
f 423 424 49
f 422 48 47
f 422 423 48
f 421 47 46
f 421 422 47
f 420 46 45
f 420 421 46
f 419 45 44
f 419 420 45
f 418 44 43
f 418 419 44
f 417 43 42
f 417 418 43
f 429 29 41
f 429 430 29
f 442 28 40
f 441 442 40
f 440 40 39
f 440 441 40
f 439 39 38
f 439 440 39
f 438 38 37
f 438 439 38
f 437 37 36
f 437 438 37
f 436 36 35
f 436 437 36
f 435 35 34
f 435 436 35
f 434 34 33
f 434 435 34
f 433 32 31
f 433 33 32
f 433 434 33
f 432 433 31
f 431 31 30
f 431 432 31
f 430 30 29
f 430 431 30
f 16 28 442
f 16 442 443
f 445 16 443
f 445 17 16
f 446 18 17
f 446 17 445
f 447 19 18
f 447 18 446
f 448 20 19
f 448 19 447
f 449 21 20
f 449 20 448
f 450 22 21
f 450 21 449
f 451 23 22
f 451 22 450
f 452 24 23
f 452 23 451
f 453 25 24
f 453 24 452
f 454 26 25
f 454 25 453
f 455 27 26
f 455 26 454
f 444 15 27
f 444 27 455
f 15 456 3
f 444 456 15
f 467 468 1
f 467 1 14
f 466 13 12
f 466 14 13
f 466 467 14
f 465 466 12
f 464 11 10
f 464 12 11
f 464 465 12
f 463 464 10
f 462 10 9
f 462 463 10
f 461 8 7
f 461 9 8
f 461 462 9
f 460 461 7
f 459 7 6
f 459 460 7
f 458 6 5
f 458 459 6
f 457 5 4
f 457 458 5
f 456 4 3
f 456 457 4
f 2 1 468
f 2 468 313
f 306 312 305
f 310 311 312
f 308 310 312
f 308 312 306
f 307 308 306
f 309 310 308
f 342 344 343
f 341 345 344
f 341 346 345
f 341 347 346
f 341 344 342
f 350 348 347
f 350 349 348
f 350 347 341
f 339 341 340
f 339 350 341
f 351 350 339
f 315 317 316
f 315 318 317
f 315 319 318
f 314 320 319
f 314 321 320
f 314 319 315
f 313 321 314
f 313 322 321
f 325 322 313
f 325 323 322
f 325 324 323
f 326 325 313
f 327 351 339
f 328 326 313
f 329 328 313
f 468 329 313
f 468 330 329
f 468 331 330
f 466 468 467
f 465 468 466
f 463 465 464
f 461 463 462
f 460 465 463
f 460 463 461
f 460 468 465
f 457 459 458
f 457 460 459
f 456 468 460
f 456 460 457
f 352 351 327
f 354 353 352
f 355 354 352
f 356 355 352
f 357 356 352
f 358 357 352
f 361 359 358
f 361 360 359
f 364 362 361
f 364 363 362
f 364 358 352
f 364 361 358
f 365 364 352
f 365 327 338
f 365 352 327
f 367 365 338
f 368 338 337
f 368 367 338
f 444 331 468
f 444 332 331
f 444 333 332
f 444 334 333
f 444 335 334
f 444 336 335
f 444 468 456
f 455 336 444
f 455 368 337
f 455 337 336
f 454 369 368
f 454 368 455
f 453 369 454
f 382 381 380
f 384 382 380
f 384 383 382
f 385 384 380
f 386 385 380
f 386 379 378
f 386 380 379
f 440 442 441
f 389 388 387
f 389 386 378
f 389 387 386
f 390 378 366
f 390 377 376
f 390 366 377
f 390 389 378
f 435 437 436
f 435 438 437
f 435 439 438
f 435 440 439
f 435 442 440
f 433 435 434
f 433 442 435
f 430 445 443
f 430 443 442
f 430 432 431
f 430 433 432
f 430 442 433
f 412 411 450
f 412 449 448
f 412 450 449
f 410 450 411
f 410 451 450
f 413 412 448
f 413 448 447
f 409 452 451
f 409 451 410
f 414 413 447
f 408 453 452
f 408 452 409
f 408 369 453
f 415 414 447
f 415 446 445
f 415 447 446
f 407 370 369
f 407 369 408
f 416 415 445
f 416 445 430
f 406 371 370
f 406 370 407
f 404 371 406
f 404 372 371
f 404 373 372
f 404 374 373
f 404 375 374
f 429 416 430
f 429 417 405
f 429 405 416
f 428 417 429
f 419 417 428
f 419 418 417
f 425 427 426
f 422 419 428
f 422 420 419
f 422 421 420
f 422 428 427
f 423 427 425
f 423 422 427
f 423 425 424
f 391 376 375
f 391 375 404
f 391 390 376
f 403 391 404
f 402 391 403
f 399 401 400
f 395 394 393
f 398 401 399
f 398 402 401
f 397 391 402
f 397 402 398
f 397 395 393
f 397 392 391
f 397 393 392
f 397 396 395
f 474 476 475
f 469 470 476
f 472 469 476
f 472 476 474
f 473 472 474
f 471 469 472
f 493 477 478
f 481 480 479
f 490 492 491
f 490 478 492
f 482 481 479
f 494 490 489
f 494 493 478
f 494 478 490
f 496 483 482
f 496 482 479
f 487 485 484
f 486 485 487
f 495 487 484
f 488 495 494
f 488 494 489
f 477 493 479
f 483 496 484
f 487 495 488
f 495 484 496
f 496 479 493
f 497 500 499
f 497 498 500
f 475 470 493
f 476 470 475
f 494 475 493
f 496 493 470
f 474 475 494
f 469 496 470
f 473 474 494
f 471 472 473
f 471 496 469
f 495 471 473
f 495 496 471
f 495 473 494
f 502 487 501
f 502 486 487
f 484 504 503
f 485 504 484
f 479 506 505
f 479 480 506
f 517 550 551
f 517 551 552
f 524 545 546
f 524 517 552
f 524 552 553
f 524 553 545
f 518 549 550
f 518 550 517
f 518 557 549
f 523 546 547
f 523 524 546
f 519 557 518
f 519 555 556
f 519 556 557
f 522 547 548
f 522 548 539
f 522 523 547
f 520 554 555
f 520 555 519
f 521 539 540
f 521 522 539
f 514 563 564
f 514 564 565
f 514 565 554
f 514 554 520
f 531 540 541
f 531 541 542
f 531 521 540
f 515 563 514
f 515 561 562
f 515 562 563
f 530 542 543
f 530 543 544
f 530 531 542
f 516 559 560
f 516 560 561
f 516 561 515
f 533 530 544
f 529 530 533
f 510 559 516
f 558 559 510
f 534 528 529
f 534 529 533
f 511 558 510
f 512 558 511
f 535 528 534
f 536 527 528
f 536 528 535
f 537 526 527
f 537 527 536
f 621 569 570
f 621 570 558
f 620 621 558
f 622 569 621
f 622 567 568
f 622 568 569
f 538 525 526
f 538 526 537
f 619 512 513
f 619 620 558
f 619 558 512
f 623 567 622
f 623 566 567
f 623 574 575
f 623 575 566
f 618 513 509
f 618 619 513
f 624 574 623
f 624 572 573
f 624 573 574
f 532 525 538
f 617 509 507
f 617 618 509
f 613 571 572
f 613 572 624
f 614 580 581
f 614 581 571
f 614 571 613
f 508 617 507
f 615 579 580
f 615 580 614
f 616 577 578
f 616 578 579
f 616 579 615
f 609 576 577
f 609 577 616
f 587 609 610
f 587 576 609
f 586 587 610
f 585 586 610
f 585 610 611
f 584 611 612
f 584 585 611
f 583 612 605
f 583 584 612
f 588 604 600
f 582 583 605
f 599 582 605
f 599 605 606
f 589 604 588
f 589 603 604
f 598 599 606
f 598 606 607
f 590 603 589
f 590 602 603
f 597 598 607
f 591 602 590
f 596 597 607
f 596 607 608
f 592 602 591
f 592 601 602
f 595 596 608
f 593 601 592
f 594 608 601
f 594 595 608
f 594 601 593

