# https://github.com/mikedh/trimesh
v -51.00680104 14.46206770 26.80945079
v -53.12030722 17.84121754 28.66361691
v -53.19544960 17.94248124 29.01713402
v -53.27275894 17.99358912 29.38084588
v -53.35079512 17.99358912 29.74797723
v -53.42810446 17.94248124 30.11168909
v -53.50324684 17.84121754 30.46520620
v -53.57482251 17.69168435 30.80194322
v -53.64149813 17.49666721 31.11562736
v -53.70203167 17.25979890 31.40041528
v -50.04761313 17.49666721 28.63693083
v -49.98707959 17.25979890 28.35214290
v -49.93381575 16.98549185 28.10155625
v -52.74534526 83.62445829 26.89955958
v -52.76122219 83.99194112 26.97425466
v -52.78735491 84.34560300 27.09719946
v -52.82325663 84.67885586 27.26610376
v -52.86825856 84.98549185 27.47782118
v -52.92152239 85.25979890 27.72840783
v -52.98205593 85.49666721 28.01319575
v -53.04873156 85.69168435 28.32687989
v -53.36505422 86.08907865 29.81506103
v 49.74118170 83.88581810 27.19528425
v 52.74001988 83.25000000 26.87450565
v 53.64149813 81.00333279 31.11562736
v 53.57482251 80.80831565 30.80194322
v 53.50324684 80.65878246 30.46520620
v 53.42810446 80.55751876 30.11168909
v 53.35079512 80.50641088 29.74797723
v 53.27275894 80.50641088 29.38084588
v 53.19544960 80.55751876 29.01713402
v 53.12030722 80.65878246 28.66361691
v 53.04873156 80.80831565 28.32687989
v 52.82511228 81.67134229 27.27483393
v 52.74534526 82.87554171 26.89955958
v 50.36309349 80.20695788 30.12114922
v 52.85678032 83.78678191 32.83477145
v 53.47300220 318.01073965 37.28997515
v -34.95755934 340.02280000 -42.35619062
v -34.95755934 99.80911384 -42.35619062
v -34.92726885 340.02280000 -42.46252618
v -34.88282723 340.02280000 -42.56376702
v -34.82505684 340.02280000 -42.65803974
v -34.75502667 340.02280000 -42.74359989
v -34.67403258 340.02280000 -42.81886424
v -34.58357332 340.02280000 -42.88244007
v -34.48532277 340.02280000 -42.93315096
v -34.38109900 340.02280000 -42.97005853
v -34.27283058 340.02280000 -42.99247984
v -34.16252097 340.02280000 -43.00000000
v -34.16252097 99.80911384 -43.00000000
v -34.27283058 99.80911384 -42.99247984
v -34.38109900 99.80911384 -42.97005853
v -34.48532277 99.80911384 -42.93315096
v -34.58357332 99.80911384 -42.88244007
v -34.67403258 99.80911384 -42.81886424
v -34.75502667 99.80911384 -42.74359989
v -34.82505684 99.80911384 -42.65803974
v -34.88282723 99.80911384 -42.56376702
v -34.92726885 99.80911384 -42.46252618
v -34.16252097 97.80911384 -43.00000000
v -34.16252097 78.57280000 -43.00000000
v -34.27283058 78.57280000 -42.99247984
v -34.38109900 78.57280000 -42.97005853
v -34.48532277 78.57280000 -42.93315096
v -34.58357332 78.57280000 -42.88244007
v -34.67403258 78.57280000 -42.81886424
v -34.75502667 78.57280000 -42.74359989
v -34.82505684 78.57280000 -42.65803974
v -34.88282723 78.57280000 -42.56376702
v -34.92726885 78.57280000 -42.46252618
v -34.95755934 97.80911384 -42.35619062
v -34.92726885 97.80911384 -42.46252618
v -34.88282723 97.80911384 -42.56376702
v -34.82505684 97.80911384 -42.65803974
v -34.75502667 97.80911384 -42.74359989
v -34.67403258 97.80911384 -42.81886424
v -34.58357332 97.80911384 -42.88244007
v -34.48532277 97.80911384 -42.93315096
v -34.38109900 97.80911384 -42.97005853
v -34.27283058 97.80911384 -42.99247984
v 34.16252097 340.02280000 -43.00000000
v 34.16252097 99.80911384 -43.00000000
v 34.27283058 340.02280000 -42.99247984
v 34.38109900 340.02280000 -42.97005853
v 34.48532277 340.02280000 -42.93315096
v 34.58357332 340.02280000 -42.88244007
v 34.67403258 340.02280000 -42.81886424
v 34.75502667 340.02280000 -42.74359989
v 34.82505684 340.02280000 -42.65803974
v 34.88282723 340.02280000 -42.56376702
v 34.92726885 340.02280000 -42.46252618
v 34.95755934 340.02280000 -42.35619062
v 34.95755934 99.80911384 -42.35619062
v 34.92726885 99.80911384 -42.46252618
v 34.88282723 99.80911384 -42.56376702
v 34.82505684 99.80911384 -42.65803974
v 34.75502667 99.80911384 -42.74359989
v 34.67403258 99.80911384 -42.81886424
v 34.58357332 99.80911384 -42.88244007
v 34.48532277 99.80911384 -42.93315096
v 34.38109900 99.80911384 -42.97005853
v 34.27283058 99.80911384 -42.99247984
v 34.95755934 97.80911384 -42.35619062
v 34.95755934 78.57280000 -42.35619062
v 34.92726885 78.57280000 -42.46252618
v 34.88282723 78.57280000 -42.56376702
v 34.82505684 78.57280000 -42.65803974
v 34.75502667 78.57280000 -42.74359989
v 34.67403258 78.57280000 -42.81886424
v 34.58357332 78.57280000 -42.88244007
v 34.48532277 78.57280000 -42.93315096
v 34.38109900 78.57280000 -42.97005853
v 34.27283058 78.57280000 -42.99247984
v 34.16252097 78.57280000 -43.00000000
v 34.16252097 97.80911384 -43.00000000
v 34.27283058 97.80911384 -42.99247984
v 34.38109900 97.80911384 -42.97005853
v 34.48532277 97.80911384 -42.93315096
v 34.58357332 97.80911384 -42.88244007
v 34.67403258 97.80911384 -42.81886424
v 34.75502667 97.80911384 -42.74359989
v 34.82505684 97.80911384 -42.65803974
v 34.88282723 97.80911384 -42.56376702
v 34.92726885 97.80911384 -42.46252618
v 34.16252097 361.07280000 -43.00000000
v 34.16252097 342.02280000 -43.00000000
v 34.27283058 361.07280000 -42.99247984
v 34.38109900 361.07280000 -42.97005853
v 34.48532277 361.07280000 -42.93315096
v 34.58357332 361.07280000 -42.88244007
v 34.67403258 361.07280000 -42.81886424
v 34.75502667 361.07280000 -42.74359989
v 34.82505684 361.07280000 -42.65803974
v 34.88282723 361.07280000 -42.56376702
v 34.92726885 361.07280000 -42.46252618
v 34.95755934 342.02280000 -42.35619062
v 34.92726885 342.02280000 -42.46252618
v 34.88282723 342.02280000 -42.56376702
v 34.82505684 342.02280000 -42.65803974
v 34.75502667 342.02280000 -42.74359989
v 34.67403258 342.02280000 -42.81886424
v 34.58357332 342.02280000 -42.88244007
v 34.48532277 342.02280000 -42.93315096
v 34.38109900 342.02280000 -42.97005853
v 34.27283058 342.02280000 -42.99247984
v -34.95755934 361.07280000 -42.35619062
v -34.95755934 342.02280000 -42.35619062
v -34.92726885 361.07280000 -42.46252618
v -34.88282723 361.07280000 -42.56376702
v -34.82505684 361.07280000 -42.65803974
v -34.75502667 361.07280000 -42.74359989
v -34.67403258 361.07280000 -42.81886424
v -34.58357332 361.07280000 -42.88244007
v -34.48532277 361.07280000 -42.93315096
v -34.38109900 361.07280000 -42.97005853
v -34.27283058 361.07280000 -42.99247984
v -34.16252097 361.07280000 -43.00000000
v -34.16252097 342.02280000 -43.00000000
v -34.27283058 342.02280000 -42.99247984
v -34.38109900 342.02280000 -42.97005853
v -34.48532277 342.02280000 -42.93315096
v -34.58357332 342.02280000 -42.88244007
v -34.67403258 342.02280000 -42.81886424
v -34.75502667 342.02280000 -42.74359989
v -34.82505684 342.02280000 -42.65803974
v -34.88282723 342.02280000 -42.56376702
v -34.92726885 342.02280000 -42.46252618
v 34.16252097 361.07280000 -46.00000000
v -34.16252097 361.07280000 -46.00000000
v -34.16252097 78.57280000 -46.00000000
v 34.16252097 78.57280000 -46.00000000
v 37.89200214 78.57280000 -42.97992569
v 37.74991116 78.57280000 -43.47873994
v 37.54143797 78.57280000 -43.95365512
v 37.27044022 78.57280000 -44.39588325
v 36.94193255 78.57280000 -44.79724121
v 36.56199375 78.57280000 -45.15030212
v 36.13765435 78.57280000 -45.44853285
v 35.67676644 78.57280000 -45.68641484
v 35.18785846 78.57280000 -45.85954623
v 34.67997730 78.57280000 -45.96472337
v 34.67997730 361.07280000 -45.96472337
v 35.18785846 361.07280000 -45.85954623
v 35.67676644 361.07280000 -45.68641484
v 36.13765435 361.07280000 -45.44853285
v 36.56199375 361.07280000 -45.15030212
v 36.94193255 361.07280000 -44.79724121
v 37.27044022 361.07280000 -44.39588325
v 37.54143797 361.07280000 -43.95365512
v 37.74991116 361.07280000 -43.47873994
v 41.23346652 71.73507766 -12.83036873
v 44.16790932 71.73507766 -13.45410380
v 44.05799111 73.01706014 -13.97122831
v 43.91225732 74.21358044 -14.65685189
v 43.73351038 75.30162973 -15.49779014
v 43.52518755 76.26028504 -16.47787200
v 43.29129483 77.07111164 -17.57825070
v 43.03632995 77.71851750 -18.77776619
v 42.76519580 78.19005315 -20.05335204
v 42.48310626 78.47665106 -21.38047901
v 42.19548583 78.57280000 -22.73362672
v 40.40984627 77.62426186 -16.70519733
v 48.46709482 -2.74788849 12.62730252
v 46.00327641 2.91052234 9.60982249
v 54.27610311 4.33385746 38.88196913
v 56.14437209 312.07280000 42.89072355
v 53.20992929 312.07280000 43.51445863
v 53.20992929 61.57280148 43.51445863
v 45.10101308 361.07280000 -8.91982876
v 52.74534526 83.62445829 26.89955958
v 52.76122219 83.99194112 26.97425466
v 52.78735491 84.34560300 27.09719946
v 52.82325663 84.67885586 27.26610376
v 52.86825856 84.98549185 27.47782118
v 52.92152239 85.25979890 27.72840783
v 52.98205593 85.49666721 28.01319575
v 53.04873156 85.69168435 28.32687989
v 53.27214158 86.03699931 29.37794144
v 51.65221517 15.88167249 26.86712958
v 53.12030722 17.84121754 28.66361691
v 53.19544960 17.94248124 29.01713402
v 53.27275894 17.99358912 29.38084588
v 53.35079512 17.99358912 29.74797723
v 53.42810446 17.94248124 30.11168909
v 53.50324684 17.84121754 30.46520620
v 53.57482251 17.69168435 30.80194322
v 53.64149813 17.49666721 31.11562736
v 53.70203167 17.25979890 31.40041528
v 52.48223837 361.07280000 40.09094202
v 49.47971896 318.07280000 25.96519882
v 49.19854885 318.14462333 24.64239745
v 48.92450415 318.35590393 23.35311847
v 48.65939762 318.70035772 22.10589034
v 48.40504206 319.17170059 20.90924148
v 48.16325022 319.76364847 19.77170035
v 47.93583490 320.46991727 18.70179539
v 47.72460887 321.28422288 17.70805504
v 47.53138490 322.20028124 16.79900774
v 47.35797578 323.21180823 15.98318194
v 47.20619426 324.31251979 15.26910607
v 47.07785315 325.49613181 14.66530858
v 46.97476520 326.75636021 14.18031791
v 46.51850217 333.33923979 12.03376914
v 46.41541422 334.59946819 11.54877847
v 46.28707310 335.78308022 10.94498099
v 46.13529159 336.88379177 10.23090512
v 45.96188247 337.89531877 9.41507931
v 45.76865850 338.81137712 8.50603201
v 45.55743246 339.62568274 7.51229166
v 45.33001715 340.33195153 6.44238670
v 45.08822531 340.92389941 5.30484557
v 44.83386975 341.39524229 4.10819672
v 44.56876322 341.73969607 2.86096858
v 44.29471852 341.95097667 1.57168961
v 44.01354841 342.02280000 0.24888823
v 49.47971896 316.07280000 25.96519882
v 49.07849596 316.19972918 24.07759300
v 48.68944178 316.57156447 22.24723698
v 48.31879143 317.17414249 20.50346420
v 47.96920171 317.99361449 18.85877387
v 47.70503264 318.80490004 17.61595609
v 47.47645188 319.67084725 16.54056817
v 47.26566834 320.63896841 15.54890959
v 47.07434997 321.70288855 14.64882741
v 46.90414186 322.85667129 13.84806123
v 46.75646688 324.09864860 13.15330508
v 46.66066714 325.09456427 12.70260275
v 46.58028429 326.12385001 12.32443115
v 46.12402126 332.70672959 10.17788238
v 46.03730044 333.76652522 9.76989296
v 45.92894150 334.76723118 9.26010427
v 45.80121526 335.69293720 8.65919955
v 45.65521715 336.54422117 7.97233242
v 45.49239558 337.31637691 7.20631718
v 45.31430112 338.00318152 6.36844860
v 45.12251218 338.59859809 5.46615260
v 44.91871868 339.09733367 4.50737956
v 44.70463840 339.49428131 3.50021101
v 44.48165765 339.78432040 2.45116906
v 44.25000888 339.96226984 1.36134730
v 44.01354841 340.02280000 0.24888823
v 47.71073553 61.81129068 17.64278610
v 47.48775076 62.10134114 16.59372523
v 47.27366696 62.49830402 15.58654014
v 47.06987052 62.99705831 14.62775327
v 46.87807931 63.59249668 13.72544658
v 46.69998333 64.27932577 12.88757087
v 46.53716108 65.05150821 12.12155241
v 46.39116319 65.90282062 11.43468634
v 46.26343815 66.82855646 10.83378729
v 46.15508148 67.82929368 10.32400923
v 46.06836404 68.88912083 9.91603574
v 44.62206799 89.75772183 3.11174777
v 44.47015274 91.54832635 2.39704273
v 44.27377991 93.20595860 1.47318120
v 44.03771494 94.70664662 0.36258281
v 43.76552953 96.04264798 -0.91794884
v 43.52196640 96.99149023 -2.06382328
v 43.27888080 97.76064001 -3.20745112
v 43.02127038 98.41627218 -4.41941285
v 42.75092002 98.95279216 -5.69131129
v 42.46952094 99.36457090 -7.01518988
v 42.17785229 99.64564360 -8.38738300
v 41.95108462 99.76784090 -9.45424100
v 41.72260961 99.80911384 -10.52913141
v 50.67157929 85.69300278 31.57246080
v 50.41635232 85.99358912 30.37171230
v 50.33831614 85.99358912 30.00458096
v 50.26100680 85.94248124 29.64086910
v 50.18586442 85.84121754 29.28735198
v 47.89767827 59.64462774 18.52228254
v 47.62362823 59.85591680 17.23297847
v 47.35851690 60.20038411 15.98572771
v 47.10415714 60.67174509 14.78905915
v 46.86236183 61.26371517 13.65150164
v 46.63494383 61.97000980 12.58158406
v 46.42371600 62.78434440 11.58783528
v 46.23049123 63.70043440 10.67878417
v 46.05708236 64.71199525 9.86295960
v 45.90530227 65.81274237 9.14889044
v 45.77696383 66.99639119 8.54510555
v 45.67387991 68.25665716 8.06013381
v 44.22758385 89.12525816 1.25584584
v 44.12449993 90.38552412 0.77087410
v 43.99616149 91.56917295 0.16708922
v 43.84438140 92.66992007 -0.54697995
v 43.67097254 93.68148092 -1.36280452
v 43.47774776 94.59757092 -2.27185563
v 43.26651993 95.41190552 -3.26560441
v 43.03910193 96.11820015 -4.33552199
v 42.79730662 96.71017023 -5.47307949
v 42.54294687 97.18153121 -6.66974806
v 42.27783553 97.52599851 -7.91699881
v 42.00378549 97.73728758 -9.20630288
v 41.72260961 97.80911384 -10.52913141
v 50.77511631 14.76075453 32.05956420
v 50.04761313 17.49666721 28.63693083
v 49.98707959 17.25979890 28.35214290
v 49.93381575 16.98549185 28.10155625
v -37.89200214 78.57280000 -42.97992569
v -34.67997730 78.57280000 -45.96472337
v -35.18785846 78.57280000 -45.85954623
v -35.67676644 78.57280000 -45.68641484
v -36.13765435 78.57280000 -45.44853285
v -36.56199375 78.57280000 -45.15030212
v -36.94193255 78.57280000 -44.79724121
v -37.27044022 78.57280000 -44.39588325
v -37.54143797 78.57280000 -43.95365512
v -37.74991116 78.57280000 -43.47873994
v -37.89200214 361.07280000 -42.97992569
v -37.74991116 361.07280000 -43.47873994
v -37.54143797 361.07280000 -43.95365512
v -37.27044022 361.07280000 -44.39588325
v -36.94193255 361.07280000 -44.79724121
v -36.56199375 361.07280000 -45.15030212
v -36.13765435 361.07280000 -45.44853285
v -35.67676644 361.07280000 -45.68641484
v -35.18785846 361.07280000 -45.85954623
v -34.67997730 361.07280000 -45.96472337
v -54.12071594 343.26297979 84.21674027
v -52.48223837 361.07280000 40.09094202
v -55.41668117 361.07280000 39.46720695
v -56.14437209 6.07280000 42.89072355
v -53.88559926 -1.98967084 40.84355903
v -48.44218547 -2.74788849 12.63259716
v -44.19280928 48.79356668 -5.64138403
v -41.23346652 71.73507766 -12.83036873
v -42.19548583 78.57280000 -22.73362672
v -42.48310626 78.47665106 -21.38047901
v -42.76519580 78.19005315 -20.05335204
v -43.03632995 77.71851750 -18.77776619
v -43.29129483 77.07111164 -17.57825070
v -43.52518755 76.26028504 -16.47787200
v -43.73351038 75.30162973 -15.49779014
v -43.91225732 74.21358044 -14.65685189
v -44.05799111 73.01706014 -13.97122831
v -53.48471534 318.28949953 37.30233486
v -53.20992929 312.07280000 43.51445863
v -56.14437209 312.07280000 42.89072355
v -53.20992929 61.57280148 43.51445863
v -53.20992929 59.57280148 43.51445863
v -53.75529551 81.51450815 31.65100193
v -53.70203167 81.24020110 31.40041528
v -53.64149813 81.00333279 31.11562736
v -53.57482251 80.80831565 30.80194322
v -53.50324684 80.65878246 30.46520620
v -53.42810446 80.55751876 30.11168909
v -53.35079512 80.50641088 29.74797723
v -53.27275894 80.50641088 29.38084588
v -53.19544960 80.55751876 29.01713402
v -53.12030722 80.65878246 28.66361691
v -50.14796276 81.83283097 27.59812735
v -40.43095532 77.73561111 -16.69417901
v -45.72921856 66.99639786 8.32048170
v -45.85755693 65.81274809 8.92426626
v -46.00933698 64.71200005 9.63833525
v -46.18274584 63.70043833 10.45415979
v -46.37597064 62.78434750 11.36321100
v -46.58719851 61.97001215 12.35696000
v -46.81461658 61.26371686 13.42687790
v -47.05641198 60.67174620 14.56443583
v -47.31077185 60.20038475 15.76110491
v -47.57588330 59.85591710 17.00835625
v -47.84993348 59.64462781 18.29766097
v -52.32988673 14.60805753 32.38157011
v -46.21569292 66.82856127 10.60916363
v -46.34341793 65.90282466 11.21006254
v -46.48941581 65.05151152 11.89692859
v -46.65223808 64.27932839 12.66294713
v -46.83033410 63.59249866 13.50082302
v -47.02212537 62.99705973 14.40312999
v -47.22592188 62.49830495 15.36191721
v -47.44000577 62.10134168 16.36910273
v -47.66299065 61.81129092 17.41816410
v -41.67486803 99.80911384 -10.75373789
v -42.07609100 99.68218468 -8.86613221
v -51.77125798 84.51143519 32.86722425
v -46.58016043 326.12454452 12.32384844
v -46.73206685 324.33391250 13.03851197
v -46.92842951 322.67627362 13.96232566
v -47.16448682 321.17555324 15.07288798
v -47.43666560 319.83951541 16.35338844
v -47.67999964 318.89142840 17.49818511
v -47.92306368 318.12215153 18.64171153
v -48.18065443 317.46638244 19.85358071
v -48.45098951 316.92970991 21.12540725
v -48.73238165 316.51776181 22.44925321
v -49.02404564 316.23653735 23.82142439
v -49.24920771 316.11480722 24.88072862
v -46.12405630 332.70622406 10.17804721
v -44.01354841 340.02280000 0.24888823
v -44.25001871 339.96226483 1.36139353
v -44.48167670 339.78430092 2.45125868
v -44.70466561 339.49423874 3.50033906
v -44.91875304 339.09726015 4.50754119
v -45.12255251 338.59848657 5.46634231
v -45.31434606 338.00302573 6.36866002
v -45.49244360 337.31617141 7.20654309
v -45.65526655 336.54396145 7.97256486
v -45.80126421 335.69261972 8.65942985
v -45.92898801 334.76685315 9.26032306
v -46.03734235 333.76608371 9.77009015
v -46.51854376 333.33863977 12.03396478
v -46.97464789 326.75696023 14.17976600
v -44.01354841 342.02280000 0.24888823
v -44.29473024 341.95097073 1.57174474
v -44.56878578 341.73967294 2.86107468
v -44.83390206 341.39519170 4.10834875
v -45.08826614 340.92381206 5.30503763
v -45.33006504 340.33181908 6.44261202
v -45.55748580 339.62549783 7.51254260
v -45.76871547 338.81113336 8.50630007
v -45.96194109 337.89501073 9.41535510
v -46.13534968 336.88341500 10.23117840
v -46.28712830 335.78263122 10.94524066
v -46.41546398 334.59894446 11.54901255
v -49.47630622 318.07281005 25.94914314
v -47.07761413 325.49785269 14.66418408
v -47.20578862 324.31520702 15.26719767
v -47.35736373 323.21528984 15.98030248
v -47.53053181 322.20436778 16.79499423
v -47.72348521 321.28870746 17.70276863
v -47.93441630 320.47457550 18.69512138
v -48.16151743 319.76823851 19.76354820
v -48.40298096 319.17596313 20.89954479
v -48.65699925 318.70401597 22.09460687
v -48.92176465 318.35866366 23.34023015
v -49.19546952 318.14617281 24.62791034
v 54.12877670 341.23877510 84.28657232
v 55.46289409 361.07280000 39.72929345
v 45.56628367 68.25665716 8.08300410
v 44.11998762 89.12525816 1.27871613
v 48.07125792 59.57280148 19.86798135
v 47.79008203 59.64462774 18.54515282
v 47.51603199 59.85591680 17.25584875
v 47.25092066 60.20038411 16.00859800
v 46.99656091 60.67174509 14.81192943
v 46.75476559 61.26371517 13.67437193
v 45.79770604 65.81274237 9.17176072
v 45.66936760 66.99639119 8.56797584
v 53.10233305 59.57280148 43.53732891
v 53.10233305 6.07280000 43.53732891
v 51.02321614 -3.92720000 33.75585290
v 51.29459536 -3.84164861 35.03259172
v 51.56133120 -3.58645826 36.28748518
v 51.81885974 -3.16599533 37.49906172
v 52.06277460 -2.58745404 38.64659091
v 52.28890232 -1.86073340 39.71043822
v 52.49337381 -0.99826781 40.67240092
v 52.67269049 -0.01481429 41.51601957
v 52.82378420 1.07280000 42.22685961
v 52.94406970 2.24596568 42.79275839
v 53.03148886 3.48460955 43.20403320
v 53.08454592 4.76753808 43.45364703
v 47.86810366 -3.92720000 18.91221569
v 45.89568017 2.91052234 9.63269278
v 46.00559838 1.62853986 10.14981729
v 46.15133217 0.43201956 10.83544086
v 46.33007911 -0.65602973 11.67637912
v 46.53840194 -1.61468504 12.65646097
v 46.77229465 -2.42551164 13.75683967
v 47.02725954 -3.07291750 14.95635516
v 47.29839369 -3.54445315 16.23194101
v 47.58048323 -3.83105106 17.55906798
v 41.12587028 71.73507766 -12.80749844
v 39.15344680 78.57280000 -22.08702136
v 39.44106722 78.47665106 -20.73387365
v 39.72315677 78.19005315 -19.40674668
v 39.99429091 77.71851750 -18.13116083
v 40.24925580 77.07111164 -16.93164534
v 40.48314851 76.26028504 -15.83126664
v 40.69147134 75.30162973 -14.85118478
v 40.87021828 74.21358044 -14.01024653
v 41.01595207 73.01706014 -13.32462295
v 34.84996310 78.57280000 -42.33332034
v 34.84996310 97.80911384 -42.33332034
v 41.61501337 97.80911384 -10.50626112
v 44.01690369 90.38552412 0.79374439
v 50.52823190 13.48005827 31.40366657
v 50.23513120 18.02730167 30.02415610
v 50.00669252 17.69168435 28.97348525
v 49.94001690 17.49666721 28.65980111
v 49.87948335 17.25979890 28.37501319
v 49.82621952 16.98549185 28.12442653
v 49.78121759 16.67885586 27.91270911
v 49.73405861 16.17743884 27.65754535
v 44.12976909 89.12525816 1.27663701
v 45.57606515 68.25665716 8.08092498
v 48.08103939 59.57280148 19.86590223
v 47.79986351 59.64462774 18.54307371
v 47.52581347 59.85591680 17.25376963
v 47.26070214 60.20038411 16.00651888
v 47.00634238 60.67174509 14.80985031
v 46.64417124 61.59770100 13.12734564
v 46.31713038 62.77031070 11.59255662
v 46.03643881 64.19528274 10.27304771
v 45.95926760 64.71199525 9.88375077
v 45.80748751 65.81274237 9.16968161
v 45.67914907 66.99639119 8.56589672
v 53.11211453 59.57280148 43.53524980
v 53.11211453 6.07280000 43.53524980
v 51.03299762 -3.92720000 33.75377379
v 51.30437683 -3.84164861 35.03051261
v 51.57111267 -3.58645826 36.28540607
v 51.82864121 -3.16599533 37.49698260
v 52.07255607 -2.58745404 38.64451179
v 52.29868380 -1.86073340 39.70835910
v 52.50315528 -0.99826781 40.67032180
v 52.68247196 -0.01481429 41.51394045
v 52.83356568 1.07280000 42.22478050
v 52.95385118 2.24596568 42.79067927
v 53.07474986 4.11942366 43.35946288
v 47.87788513 -3.92720000 18.91013658
v 45.90546165 2.91052234 9.63061366
v 46.01537985 1.62853986 10.14773817
v 46.16111364 0.43201956 10.83336175
v 46.33986059 -0.65602973 11.67430000
v 46.54818342 -1.61468504 12.65438186
v 46.78207613 -2.42551164 13.75476056
v 47.03704102 -3.07291750 14.95427605
v 47.44757457 -3.72521664 16.88568455
v 41.13565176 71.73507766 -12.80957756
v 39.16322827 78.57280000 -22.08910048
v 39.45084870 78.47665106 -20.73595277
v 39.73293824 78.19005315 -19.40882580
v 40.00407238 77.71851750 -18.13323995
v 40.25903727 77.07111164 -16.93372446
v 40.49292999 76.26028504 -15.83334576
v 40.70125282 75.30162973 -14.85326390
v 40.87999976 74.21358044 -14.01232565
v 41.02573355 73.01706014 -13.32670207
v 34.82377197 78.57280000 -42.42526501
v 34.78534484 78.57280000 -42.51280445
v 34.73539278 78.57280000 -42.59431881
v 34.67484012 78.57280000 -42.66829971
v 34.60480734 78.57280000 -42.73337818
v 34.52659035 78.57280000 -42.78835000
v 34.44163650 78.57280000 -42.83219795
v 34.35151782 78.57280000 -42.86411065
v 34.25790187 78.57280000 -42.88349758
v 34.16252097 78.57280000 -42.89000000
v -34.16252097 78.57280000 -42.89000000
v -34.25790187 78.57280000 -42.88349758
v -34.35151782 78.57280000 -42.86411065
v -34.44163650 78.57280000 -42.83219795
v -34.52659035 78.57280000 -42.78835000
v -34.60480734 78.57280000 -42.73337818
v -34.67484012 78.57280000 -42.66829971
v -34.73539278 78.57280000 -42.59431881
v -34.78534484 78.57280000 -42.51280445
v -34.82377197 78.57280000 -42.42526501
v -34.84996310 78.57280000 -42.33332034
v -39.15344680 78.57280000 -22.08702136
v -39.16322827 78.57280000 -22.08910048
v -34.85974458 78.57280000 -42.33539945
v -34.16252097 78.57280000 -42.90000000
v -34.25925903 78.57280000 -42.89340506
v -34.35420701 78.57280000 -42.87374228
v -34.44560798 78.57280000 -42.84137550
v -34.53177062 78.57280000 -42.79690364
v -34.61110054 78.57280000 -42.74114964
v -34.68212980 78.57280000 -42.67514518
v -34.74354406 78.57280000 -42.60011162
v -34.79420688 78.57280000 -42.51743741
v -34.83318078 78.57280000 -42.42865239
v 34.16252097 78.57280000 -42.90000000
v 34.85974458 78.57280000 -42.33539945
v 34.83318078 78.57280000 -42.42865239
v 34.79420688 78.57280000 -42.51743741
v 34.74354406 78.57280000 -42.60011162
v 34.68212980 78.57280000 -42.67514518
v 34.61110054 78.57280000 -42.74114964
v 34.53177062 78.57280000 -42.79690364
v 34.44560798 78.57280000 -42.84137550
v 34.35420701 78.57280000 -42.87374228
v 34.25925903 78.57280000 -42.89340506
v 34.16252097 97.80911384 -42.90000000
v 34.25925903 97.80911384 -42.89340506
v 34.35420701 97.80911384 -42.87374228
v 34.44560798 97.80911384 -42.84137550
v 34.53177062 97.80911384 -42.79690364
v 34.61110054 97.80911384 -42.74114964
v 34.68212980 97.80911384 -42.67514518
v 34.74354406 97.80911384 -42.60011162
v 34.79420688 97.80911384 -42.51743741
v 34.83318078 97.80911384 -42.42865239
v 34.85974458 97.80911384 -42.33539945
v -34.16252097 97.80911384 -42.90000000
v -34.85974458 97.80911384 -42.33539945
v -34.83318078 97.80911384 -42.42865239
v -34.79420688 97.80911384 -42.51743741
v -34.74354406 97.80911384 -42.60011162
v -34.68212980 97.80911384 -42.67514518
v -34.61110054 97.80911384 -42.74114964
v -34.53177062 97.80911384 -42.79690364
v -34.44560798 97.80911384 -42.84137550
v -34.35420701 97.80911384 -42.87374228
v -34.25925903 97.80911384 -42.89340506
v -45.52831998 68.25666480 7.85630162
v -45.63140380 66.99639786 8.34127287
v -45.75974217 65.81274809 8.94505743
v -45.91152222 64.71200005 9.65912642
v -45.98869341 64.19528717 10.04842326
v -46.26938502 62.77031377 11.36793235
v -46.95859722 60.67174620 14.58522700
v -47.21295709 60.20038475 15.78189608
v -47.47806854 59.85591710 17.02914742
v -47.75211872 59.64462781 18.31845214
v -48.03329475 59.57280148 19.64128136
v -44.08202804 89.12525052 1.05203302
v -41.57705327 97.80911384 -10.73294672
v -41.99006950 97.65552888 -8.76580945
v -42.52235794 97.01330974 -6.26158926
v -43.00468400 95.78421233 -3.99242351
v -43.12096427 95.41190316 -3.46941652
v -43.33219214 94.59756782 -2.47566753
v -43.52541694 93.68147699 -1.56661632
v -43.77439383 92.12783905 -0.37122350
v -43.85060585 91.56916723 -0.03672279
v -43.97894422 90.38551745 0.56706177
v -41.13565176 71.73507766 -12.80957756
v -41.02573355 73.01706014 -13.32670207
v -40.87999976 74.21358044 -14.01232565
v -40.70125282 75.30162973 -14.85326390
v -40.49292999 76.26028504 -15.83334576
v -40.25903727 77.07111164 -16.93372446
v -40.00407238 77.71851750 -18.13323995
v -39.73293824 78.19005315 -19.40882580
v -39.45084870 78.47665106 -20.73595277
v -45.90546165 2.91052234 9.63061366
v -47.87788513 -3.92720000 18.91013658
v -47.59026471 -3.83105106 17.55698887
v -47.30817516 -3.54445315 16.22986190
v -47.03704102 -3.07291750 14.95427605
v -46.78207613 -2.42551164 13.75476056
v -46.54818342 -1.61468504 12.65438186
v -46.33986059 -0.65602973 11.67430000
v -46.16111364 0.43201956 10.83336175
v -46.01537985 1.62853986 10.14773817
v -51.03299762 -3.92720000 33.75377379
v -53.11211453 6.07280000 43.53524980
v -53.09432739 4.76753808 43.45156791
v -53.04127034 3.48460955 43.20195408
v -52.95385118 2.24596568 42.79067927
v -52.83356568 1.07280000 42.22478050
v -52.68247196 -0.01481429 41.51394045
v -52.50315528 -0.99826781 40.67032180
v -52.29868380 -1.86073340 39.70835910
v -52.07255607 -2.58745404 38.64451179
v -51.82864121 -3.16599533 37.49698260
v -51.57111267 -3.58645826 36.28540607
v -51.30437683 -3.84164861 35.03051261
v -53.11211453 59.57280148 43.53524980
v -50.01647399 17.69168435 28.97140614
v -49.94979837 17.49666721 28.65772199
v -49.88926483 17.25979890 28.37293407
v -49.83600099 16.98549185 28.12234742
v -49.79099907 16.67885586 27.91063000
v -48.02351328 59.57280148 19.64336048
v -53.10233305 59.57280148 43.53732891
v -53.10233305 6.07280000 43.53732891
v -51.02321614 -3.92720000 33.75585290
v -53.08454592 4.76753808 43.45364703
v -53.03148886 3.48460955 43.20403320
v -52.94406970 2.24596568 42.79275839
v -52.82378420 1.07280000 42.22685961
v -52.67269049 -0.01481429 41.51601957
v -52.49337381 -0.99826781 40.67240092
v -52.28890232 -1.86073340 39.71043822
v -52.06277460 -2.58745404 38.64659091
v -51.81885974 -3.16599533 37.49906172
v -51.56133120 -3.58645826 36.28748518
v -51.29459536 -3.84164861 35.03259172
v -47.86810366 -3.92720000 18.91221569
v -45.89568017 2.91052234 9.63269278
v -47.58048323 -3.83105106 17.55906798
v -47.29839369 -3.54445315 16.23194101
v -47.02725954 -3.07291750 14.95635516
v -46.77229465 -2.42551164 13.75683967
v -46.53840194 -1.61468504 12.65646097
v -46.33007911 -0.65602973 11.67637912
v -46.15133217 0.43201956 10.83544086
v -46.00559838 1.62853986 10.14981729
v -41.12587028 71.73507766 -12.80749844
v -41.56727179 97.80911384 -10.73086760
v -44.07224657 89.12525052 1.05411214
v -41.84844782 97.73728750 -9.40803838
v -43.32241067 94.59756782 -2.47358841
v -43.51563547 93.68147699 -1.56453720
v -43.68904433 92.66991527 -0.74871266
v -43.96916274 90.38551745 0.56914089
v -45.51853850 68.25666480 7.85838074
v -45.62162233 66.99639786 8.34335199
v -45.74996070 65.81274809 8.94713655
v -46.59642594 61.59770303 12.90272170
v -46.70702034 61.26371686 13.44974819
v -46.94881575 60.67174620 14.58730612
v -47.20317561 60.20038475 15.78397519
v -47.46828707 59.85591710 17.03122653
v -47.74233725 59.64462781 18.32053126
v -50.48750979 13.56626484 31.21150471
v -50.23513120 18.02730167 30.02415609
v -50.07826818 17.84121754 29.31022227
v -50.00669252 17.69168435 28.97348525
v -49.94001690 17.49666721 28.65980111
v -49.87948335 17.25979890 28.37501319
v -49.82621952 16.98549185 28.12442653
v -49.74805547 16.34896180 27.73531701
v -40.94995446 73.63467529 -13.63511731
v -40.69147134 75.30162973 -14.85118478
v -40.48314851 76.26028504 -15.83126664
v -40.24925580 77.07111164 -16.93164534
v -39.99429091 77.71851750 -18.13116083
v -39.72315677 78.19005315 -19.40674668
v -39.44106722 78.47665106 -20.73387365
v -34.84996310 97.80911384 -42.33332034
v -34.16252097 97.80911384 -42.89000000
v -34.82377197 97.80911384 -42.42526501
v -34.78534484 97.80911384 -42.51280445
v -34.73539278 97.80911384 -42.59431881
v -34.67484012 97.80911384 -42.66829971
v -34.60480734 97.80911384 -42.73337818
v -34.52659035 97.80911384 -42.78835000
v -34.44163650 97.80911384 -42.83219795
v -34.35151782 97.80911384 -42.86411065
v -34.25790187 97.80911384 -42.88349758
v 34.16252097 97.80911384 -42.89000000
v 34.25790187 97.80911384 -42.88349758
v 34.35151782 97.80911384 -42.86411065
v 34.44163650 97.80911384 -42.83219795
v 34.52659035 97.80911384 -42.78835000
v 34.60480734 97.80911384 -42.73337818
v 34.67484012 97.80911384 -42.66829971
v 34.73539278 97.80911384 -42.59431881
v 34.78534484 97.80911384 -42.51280445
v 34.82377197 97.80911384 -42.42526501
v 41.62479485 97.80911384 -10.50834024
v 43.96242956 90.98355979 0.51341508
v 43.20705842 95.70048067 -3.04032654
v 42.03781084 97.65552906 -8.54120412
v 41.90597073 97.73728758 -9.18551172
v 50.08804966 17.84121754 29.30814315
v 50.01647399 17.69168435 28.97140614
v 49.94979837 17.49666721 28.65772199
v 49.88926483 17.25979890 28.37293407
v 49.83600099 16.98549185 28.12234742
v -52.39000000 321.07280000 70.97450392
v -52.39000000 321.24390277 73.58502777
v -52.39000000 321.75428347 76.15088483
v -52.39000000 322.59520935 78.62817257
v -52.39000000 323.75229192 80.97450392
v -52.39000000 325.20573319 83.14973250
v -52.39000000 326.93066438 85.11663955
v -52.39000000 328.89757142 86.84157073
v -52.39000000 331.07280000 88.29501200
v -52.39000000 333.41913135 89.45209457
v -52.39000000 335.89641910 90.29302045
v -52.39000000 338.46227616 90.80340115
v -52.39000000 341.07280000 90.97450392
v -52.40000000 341.07280000 90.97450392
v -52.40000000 321.07280000 70.97450392
v -52.40000000 321.24390277 73.58502777
v -52.40000000 321.75428347 76.15088483
v -52.40000000 322.59520935 78.62817257
v -52.40000000 323.75229192 80.97450392
v -52.40000000 325.20573319 83.14973250
v -52.40000000 326.93066438 85.11663955
v -52.40000000 328.89757142 86.84157073
v -52.40000000 331.07280000 88.29501200
v -52.40000000 333.41913135 89.45209457
v -52.40000000 335.89641910 90.29302045
v -52.40000000 338.46227616 90.80340115
v -52.40000000 361.07280000 70.97450392
v -52.39000000 361.07280000 70.97450392
v -52.40000000 361.07280000 40.25993265
v -52.39826366 361.07280000 40.21021023
v -52.39306308 361.07280000 40.16073006
v -52.38442361 361.07280000 40.11173319
v -34.85974458 361.07280000 -42.33539945
v -34.83318078 361.07280000 -42.42865239
v -34.79420688 361.07280000 -42.51743741
v -34.74354406 361.07280000 -42.60011162
v -34.68212980 361.07280000 -42.67514518
v -34.61110054 361.07280000 -42.74114964
v -34.53177062 361.07280000 -42.79690364
v -34.44560798 361.07280000 -42.84137550
v -34.35420701 361.07280000 -42.87374228
v -34.25925903 361.07280000 -42.89340506
v -34.16252097 361.07280000 -42.90000000
v 34.16252097 361.07280000 -42.90000000
v 34.25925903 361.07280000 -42.89340506
v 34.35420701 361.07280000 -42.87374228
v 34.44560798 361.07280000 -42.84137550
v 34.53177062 361.07280000 -42.79690364
v 34.61110054 361.07280000 -42.74114964
v 34.68212980 361.07280000 -42.67514518
v 34.74354406 361.07280000 -42.60011162
v 34.79420688 361.07280000 -42.51743741
v 34.83318078 361.07280000 -42.42865239
v 34.85974458 361.07280000 -42.33539945
v 52.38442361 361.07280000 40.11173319
v 52.39306308 361.07280000 40.16073006
v 52.39826366 361.07280000 40.21021023
v 52.40000000 361.07280000 40.25993265
v 52.40000000 361.07280000 70.97450392
v 52.39000000 361.07280000 70.97450392
v 52.39000000 361.07280000 40.25993265
v 52.37464213 361.07280000 40.11381231
v 52.38316040 361.07280000 40.16212179
v 52.38828801 361.07280000 40.21090780
v 34.84996310 361.07280000 -42.33332034
v 34.16252097 361.07280000 -42.89000000
v 34.25790187 361.07280000 -42.88349758
v 34.35151782 361.07280000 -42.86411065
v 34.44163650 361.07280000 -42.83219795
v 34.52659035 361.07280000 -42.78835000
v 34.60480734 361.07280000 -42.73337818
v 34.67484012 361.07280000 -42.66829971
v 34.73539278 361.07280000 -42.59431881
v 34.78534484 361.07280000 -42.51280445
v 34.82377197 361.07280000 -42.42526501
v -34.16252097 361.07280000 -42.89000000
v -34.84996310 361.07280000 -42.33332034
v -34.82377197 361.07280000 -42.42526501
v -34.78534484 361.07280000 -42.51280445
v -34.73539278 361.07280000 -42.59431881
v -34.67484012 361.07280000 -42.66829971
v -34.60480734 361.07280000 -42.73337818
v -34.52659035 361.07280000 -42.78835000
v -34.44163650 361.07280000 -42.83219795
v -34.35151782 361.07280000 -42.86411065
v -34.25790187 361.07280000 -42.88349758
v -52.37464213 361.07280000 40.11381231
v -52.39000000 361.07280000 40.25993265
v -52.38828801 361.07280000 40.21090780
v -52.38316040 361.07280000 40.16212179
v -52.39000000 343.68332384 90.80340115
v -52.39000000 346.24918090 90.29302045
v -52.39000000 348.72646865 89.45209457
v -52.39000000 351.07280000 88.29501200
v -52.39000000 353.24802858 86.84157073
v -52.39000000 355.21493562 85.11663955
v -52.39000000 356.93986681 83.14973250
v -52.39000000 358.39330808 80.97450392
v -52.39000000 359.55039065 78.62817257
v -52.39000000 360.39131653 76.15088483
v -52.39000000 360.90169723 73.58502777
v -52.40000000 343.68332384 90.80340115
v -52.40000000 346.24918090 90.29302045
v -52.40000000 348.72646865 89.45209457
v -52.40000000 351.07280000 88.29501200
v -52.40000000 353.24802858 86.84157073
v -52.40000000 355.21493562 85.11663955
v -52.40000000 356.93986681 83.14973250
v -52.40000000 358.39330808 80.97450392
v -52.40000000 359.55039065 78.62817257
v -52.40000000 360.39131653 76.15088483
v -52.40000000 360.90169723 73.58502777
v -52.37464213 321.07280000 40.11381231
v -52.38316040 321.07280000 40.16212179
v -52.38828801 321.07280000 40.21090780
v -52.39000000 321.07280000 40.25993265
v -52.40000000 321.07280000 40.25993265
v -52.38442361 321.07280000 40.11173319
v -52.39306308 321.07280000 40.16073006
v -52.39826366 321.07280000 40.21021023
v -51.75624345 318.46438771 37.20447525
v -51.75090706 318.07281005 37.17936951
v -51.76068854 318.07281005 37.17729039
v -52.30301002 321.04713469 39.72871236
v -52.21594230 320.98088893 39.35650002
v -51.99577119 320.47974939 38.30617081
v -51.79863766 319.23914942 37.37386346
v -49.37849146 318.07281005 25.96993431
v -49.36870999 318.07281005 25.97201343
v -46.87683313 326.75696023 14.20055717
v -47.03553423 324.90033361 14.96467709
v -47.51323264 321.70464851 17.21935890
v -48.17485751 319.40907750 20.33060166
v -48.68702305 318.50791949 22.73820780
v -48.95486733 318.22858044 24.00754685
v -49.09765476 318.14617281 24.64870151
v -46.86705165 326.75696023 14.20263629
v -46.97001789 325.49785269 14.68705437
v -47.17376646 323.75697298 15.62423941
v -46.42072900 333.33863977 12.05475595
v -46.41094752 333.33863977 12.05683507
v -43.91573365 342.02280000 0.26967940
v -44.19691548 341.95097073 1.59253591
v -44.47097102 341.73967294 2.88186585
v -45.35908866 338.98694661 7.08417905
v -45.94969338 337.40014488 9.86494250
v -46.03753492 336.88341500 10.25196957
v -46.18931354 335.78263122 10.96603183
v -46.31764922 334.59894446 11.56980372
v -43.90595217 342.02280000 0.27175852
v -44.18713400 341.95097073 1.59461503
v -44.46118954 341.73967294 2.88394497
v -44.72630583 341.39519170 4.13121904
v -44.85965201 341.18211438 4.73232861
v -46.17953206 335.78263122 10.96811094
v -46.30786774 334.59894446 11.57188284
v 43.90595217 342.02280000 0.27175852
v 34.84996310 342.02280000 -42.33332034
v 34.82377197 342.02280000 -42.42526501
v 34.78534484 342.02280000 -42.51280445
v 34.73539278 342.02280000 -42.59431881
v 34.67484012 342.02280000 -42.66829971
v 34.60480734 342.02280000 -42.73337818
v 34.52659035 342.02280000 -42.78835000
v 34.44163650 342.02280000 -42.83219795
v 34.35151782 342.02280000 -42.86411065
v 34.25790187 342.02280000 -42.88349758
v 34.16252097 342.02280000 -42.89000000
v -34.16252097 342.02280000 -42.89000000
v -34.25790187 342.02280000 -42.88349758
v -34.35151782 342.02280000 -42.86411065
v -34.44163650 342.02280000 -42.83219795
v -34.52659035 342.02280000 -42.78835000
v -34.60480734 342.02280000 -42.73337818
v -34.67484012 342.02280000 -42.66829971
v -34.73539278 342.02280000 -42.59431881
v -34.78534484 342.02280000 -42.51280445
v -34.82377197 342.02280000 -42.42526501
v -34.84996310 342.02280000 -42.33332034
v -34.85974458 342.02280000 -42.33539945
v -34.16252097 342.02280000 -42.90000000
v -34.25925903 342.02280000 -42.89340506
v -34.35420701 342.02280000 -42.87374228
v -34.44560798 342.02280000 -42.84137550
v -34.53177062 342.02280000 -42.79690364
v -34.61110054 342.02280000 -42.74114964
v -34.68212980 342.02280000 -42.67514518
v -34.74354406 342.02280000 -42.60011162
v -34.79420688 342.02280000 -42.51743741
v -34.83318078 342.02280000 -42.42865239
v 34.16252097 342.02280000 -42.90000000
v 34.85974458 342.02280000 -42.33539945
v 34.83318078 342.02280000 -42.42865239
v 34.79420688 342.02280000 -42.51743741
v 34.74354406 342.02280000 -42.60011162
v 34.68212980 342.02280000 -42.67514518
v 34.61110054 342.02280000 -42.74114964
v 34.53177062 342.02280000 -42.79690364
v 34.44560798 342.02280000 -42.84137550
v 34.35420701 342.02280000 -42.87374228
v 34.25925903 342.02280000 -42.89340506
v 43.91573365 342.02280000 0.26967940
v 46.42068741 333.33923979 12.05456031
v 46.31759946 334.59946819 11.56956964
v 46.18925834 335.78308022 10.96577215
v 45.58416396 337.33170958 8.14256339
v 45.56392917 339.23517273 8.04520628
v 45.45961770 339.62568274 7.53308283
v 45.23220239 340.33195153 6.46317787
v 44.99041055 340.92389941 5.32563674
v 44.73605499 341.39524229 4.12898789
v 44.47094846 341.73969607 2.88175975
v 44.19690376 341.95097667 1.59248078
v 46.41090594 333.33923979 12.05663943
v 46.30781799 334.59946819 11.57164876
v 46.17947687 335.78308022 10.96785127
v 46.02769536 336.88379177 10.25377540
v 45.95052380 337.40048733 9.86447687
v 45.22242091 340.33195153 6.46525699
v 44.98062908 340.92389941 5.32771586
v 44.72627351 341.39524229 4.13106700
v 44.46116699 341.73969607 2.88383887
v 44.18712228 341.95097667 1.59455989
v 46.87695044 326.75636021 14.20110908
v 46.86716896 326.75636021 14.20318820
v 49.38190420 318.07280000 25.98598999
v 49.10073409 318.14462333 24.66318862
v 48.82668939 318.35590393 23.37390964
v 47.82236249 320.39806581 18.67297177
v 47.33777718 322.69511272 16.39317710
v 47.26016102 323.21180823 16.00397311
v 47.10837950 324.31251979 15.28989724
v 46.98003839 325.49613181 14.68609975
v 49.37212273 318.07280000 25.98806911
v 49.09095262 318.14462333 24.66526773
v 48.81690791 318.35590393 23.37598876
v 48.55180139 318.70035772 22.12876062
v 48.42868562 318.91341848 21.52549780
v 47.09859803 324.31251979 15.29197635
v 46.97025691 325.49613181 14.68817887
v 51.76068854 318.07280000 37.17729039
v 51.95771466 320.53313915 38.12936724
v 52.37953288 321.07280000 40.11277282
v 51.74789797 318.09456583 37.14772294
v 52.39000000 321.07280000 70.97450392
v 52.39000000 321.07280000 40.25993265
v 52.38828801 321.07280000 40.21090780
v 52.38316040 321.07280000 40.16212179
v 52.40000000 321.07280000 40.25993265
v 52.39826366 321.07280000 40.21021023
v 52.39306308 321.07280000 40.16073006
v 52.40000000 321.07280000 70.97450392
v 52.39500000 341.07280000 78.27450392
v 52.40000000 360.88651892 73.69783691
v 52.40000000 360.33114575 76.37043935
v 52.40000000 359.41702603 78.94252572
v 52.40000000 358.16118809 81.36618292
v 52.40000000 356.58702581 83.59626281
v 52.40000000 354.72386286 85.59122321
v 52.40000000 352.60640644 87.31390178
v 52.40000000 350.27410075 88.73220829
v 52.40000000 347.77039224 89.81972237
v 52.40000000 345.14192026 90.55618568
v 52.40000000 342.43764827 90.92787931
v 52.40000000 339.70795173 90.92787931
v 52.40000000 337.00367974 90.55618568
v 52.40000000 334.37520776 89.81972237
v 52.40000000 331.87149925 88.73220829
v 52.40000000 329.53919356 87.31390178
v 52.40000000 327.42173714 85.59122321
v 52.40000000 325.55857419 83.59626281
v 52.40000000 323.98441191 81.36618292
v 52.40000000 322.72857397 78.94252572
v 52.40000000 321.81445425 76.37043935
v 52.40000000 321.25908108 73.69783691
v 52.39000000 360.88651892 73.69783691
v 52.39000000 360.33114575 76.37043935
v 52.39000000 359.41702603 78.94252572
v 52.39000000 358.16118809 81.36618292
v 52.39000000 356.58702581 83.59626281
v 52.39000000 354.72386286 85.59122321
v 52.39000000 352.60640644 87.31390178
v 52.39000000 350.27410075 88.73220829
v 52.39000000 347.77039224 89.81972237
v 52.39000000 345.14192026 90.55618568
v 52.39000000 342.43764827 90.92787931
v 52.39000000 339.70795173 90.92787931
v 52.39000000 337.00367974 90.55618568
v 52.39000000 334.37520776 89.81972237
v 52.39000000 331.87149925 88.73220829
v 52.39000000 329.53919356 87.31390178
v 52.39000000 327.42173714 85.59122321
v 52.39000000 325.55857419 83.59626281
v 52.39000000 323.98441191 81.36618292
v 52.39000000 322.72857397 78.94252572
v 52.39000000 321.81445425 76.37043935
v 52.39000000 321.25908108 73.69783691
v -52.39500000 341.07280000 78.27450392
v 48.08103939 61.57280148 19.86590223
v 48.07125792 61.57280148 19.86798135
v 47.72201805 61.70317660 18.20432379
v 46.95191433 62.84493556 14.57718524
v 46.35874438 65.46893852 11.78238023
v 46.29334843 65.90282062 11.45547751
v 46.10729008 67.31592190 10.58014183
v 45.97054928 68.88912083 9.93682691
v 45.96076781 68.88912083 9.93890603
v 47.83479260 61.63333411 18.75549951
v 46.15584192 66.82855646 10.85665757
v 46.04748525 67.82929368 10.34687951
v 41.61501337 99.80911384 -10.50626112
v 44.51447175 89.75772183 3.13461806
v 44.36255650 91.54832635 2.41991302
v 44.16618367 93.20595860 1.49605149
v 43.93011870 94.70664662 0.38545310
v 43.65793329 96.04264798 -0.89507855
v 43.41437016 96.99149023 -2.04095299
v 43.17128456 97.76064001 -3.18458084
v 42.91367414 98.41627218 -4.39654257
v 42.64332378 98.95279216 -5.66844100
v 42.36192470 99.36457090 -6.99231960
v 42.07025605 99.64564360 -8.36451272
v 41.84348838 99.76784090 -9.43137071
v 53.10233305 61.57280148 43.53732891
v 34.85974458 99.80911384 -42.33539945
v 34.16252097 99.80911384 -42.90000000
v 34.66601235 99.80911384 -42.73986191
v 34.31581156 99.80911384 -42.88485374
v -34.16252097 99.80911384 -42.90000000
v -34.84016778 99.80911384 -42.41053673
v -34.29756968 99.80911384 -42.88348448
v -34.67337876 99.80911384 -42.70773099
v -53.11211453 61.57280148 43.53524980
v -48.03329475 61.57280148 19.64128136
v -45.92280420 68.88912727 9.71220394
v -46.00952155 67.82929930 10.12017702
v -44.47651226 89.75771298 2.90793535
v -41.57705327 99.80911384 -10.73294672
v -41.97827624 99.68218468 -8.84534104
v -42.36733039 99.31034960 -7.01498517
v -42.73798045 98.70777215 -5.27121374
v -43.08756980 97.88830135 -3.62652516
v -43.35174395 97.07699887 -2.38368350
v -43.58032403 96.21105123 -1.30829877
v -43.79110687 95.24293034 -0.31664346
v -43.98242456 94.17901121 0.58343547
v -44.15263198 93.02523066 1.38419843
v -44.30030623 91.78325765 2.07895117
v -44.39612019 90.78717612 2.52972042
v -41.56727179 99.80911384 -10.73086760
v -44.46673078 89.75771298 2.91001446
v -41.96849477 99.68218468 -8.84326192
v -42.35754892 99.31034960 -7.01290605
v -42.72819897 98.70777215 -5.26913463
v -43.07778832 97.88830135 -3.62444605
v -43.34196247 97.07699887 -2.38160438
v -43.57054256 96.21105123 -1.30621965
v -43.78132540 95.24293034 -0.31456434
v -43.97264308 94.17901121 0.58551458
v -44.14285050 93.02523066 1.38627754
v -44.29052476 91.78325765 2.08103029
v -44.38633872 90.78717612 2.53179954
v -45.91302272 68.88912727 9.71428306
v -48.02351328 61.57280148 19.64336048
v -46.05609391 67.31767730 10.35989589
v -46.69121514 63.34950507 13.35134177
v -47.67427319 61.70317677 17.97970189
v -47.78704784 61.63333418 18.53087806
v -53.10233305 61.57280148 43.53732891
v -34.84996310 99.80911384 -42.33332034
v -34.16252097 99.80911384 -42.89000000
v 34.16252097 99.80911384 -42.89000000
v 41.62479485 99.80911384 -10.50834024
v 44.52425323 89.75772183 3.13253894
v 44.37233798 91.54832635 2.41783390
v 44.17596515 93.20595860 1.49397237
v 43.93990017 94.70664662 0.38337398
v 43.66771477 96.04264798 -0.89715767
v 43.42415164 96.99149023 -2.04303211
v 43.18106604 97.76064001 -3.18665995
v 42.92345562 98.41627218 -4.39862168
v 42.65310526 98.95279216 -5.67052012
v 42.37170618 99.36457090 -6.99439872
v 42.08003753 99.64564360 -8.36659183
v 41.85326986 99.76784090 -9.43344983
v 53.11211453 61.57280148 43.53524980
v -34.84996310 340.02280000 -42.33332034
v -43.90595217 340.02280000 0.27175852
v -44.14242247 339.96226483 1.38426382
v -44.26358358 339.89241942 1.93366887
v -45.88457241 334.27772167 9.55295070
v -46.01646006 332.70622406 10.20091750
v -46.47256419 326.12454452 12.34671872
v -46.62447062 324.33391250 13.06138226
v -46.82083328 322.67627362 13.98519595
v -47.05689059 321.17555324 15.09575827
v -47.32906936 319.83951541 16.37625873
v -47.57240341 318.89142840 17.52105540
v -47.81546745 318.12215153 18.66458181
v -48.07305819 317.46638244 19.87645099
v -48.34339327 316.92970991 21.14827753
v -48.62478542 316.51776181 22.47212350
v -48.91644941 316.23653735 23.84429468
v -49.14161147 316.11480722 24.90359890
v -49.36844955 316.07281005 25.97078817
v -51.75551417 317.70884555 37.20104426
v -51.89914543 316.10305805 37.86303412
v -34.31838145 340.02280000 -42.87940305
v -34.16252097 340.02280000 -42.89000000
v 51.89914717 316.10304818 37.86304234
v 49.37212273 316.07280000 25.98806911
v 48.97089972 316.19972918 24.10046328
v 48.58184554 316.57156447 22.27010726
v 48.21119520 317.17414249 20.52633449
v 47.86160547 317.99361449 18.88164416
v 47.59743640 318.80490004 17.63882637
v 47.36885564 319.67084725 16.56343846
v 47.15807210 320.63896841 15.57177987
v 46.96675373 321.70288855 14.67169770
v 46.79654562 322.85667129 13.87093152
v 46.64887065 324.09864860 13.17617537
v 46.55307091 325.09456427 12.72547304
v 46.47268805 326.12385001 12.34730144
v 46.01642503 332.70672959 10.20075267
v 45.92970420 333.76652522 9.79276325
v 45.88313052 334.27813086 9.55303813
v 44.37406141 339.78432040 2.47403934
v 44.14241265 339.96226984 1.38421759
v 43.90595217 340.02280000 0.27175852
v 51.91951894 316.07280000 37.92452867
v 51.78303114 317.16957414 37.29720327
v 49.38190420 316.07280000 25.98598999
v 48.98068120 316.19972918 24.09838417
v 48.59162702 316.57156447 22.26802815
v 48.22097667 317.17414249 20.52425537
v 47.87138695 317.99361449 18.87956504
v 47.60721788 318.80490004 17.63674726
v 47.37863712 319.67084725 16.56135934
v 47.16785358 320.63896841 15.56970076
v 46.97653521 321.70288855 14.66961858
v 46.80632710 322.85667129 13.86885240
v 46.65865212 324.09864860 13.17409625
v 46.56285238 325.09456427 12.72339392
v 46.48246953 326.12385001 12.34522232
v 46.02620650 332.70672959 10.19867355
v 44.71040663 339.31524696 4.02756081
v 44.60682364 339.49428131 3.52100218
v 44.26926924 339.89636500 1.93293359
v 43.91573365 340.02280000 0.26967940
v 34.85974458 340.02280000 -42.33539945
v 34.16252097 340.02280000 -42.90000000
v 34.63489261 340.02280000 -42.78065308
v -34.16252097 340.02280000 -42.90000000
v -34.84805485 340.02280000 -42.37567724
v -34.65863784 340.02280000 -42.71822530
v -43.91573365 340.02280000 0.26967940
v -46.02624154 332.70622406 10.19883838
v -45.93952759 333.76608371 9.79088132
v -46.48234567 326.12454452 12.34463961
v -49.37823103 316.07281005 25.96870906
v -46.63425209 324.33391250 13.05930314
v -46.83061475 322.67627362 13.98311683
v -47.06667206 321.17555324 15.09367915
v -47.33885084 319.83951541 16.37417961
v -47.58218488 318.89142840 17.51897628
v -47.82524892 318.12215153 18.66250269
v -48.08283967 317.46638244 19.87437187
v -48.35317475 316.92970991 21.14619842
v -48.63456689 316.51776181 22.47004438
v -48.92623088 316.23653735 23.84221556
v -49.15139295 316.11480722 24.90151979
v -51.91951707 316.07281005 37.92451987
v -51.78303043 317.16958518 37.29719994
f 9 406 10
f 8 406 9
f 7 406 8
f 6 406 7
f 5 406 6
f 4 406 5
f 3 406 4
f 2 406 3
f 1 406 2
f 1 11 406
f 1 12 11
f 1 13 12
f 22 393 418
f 21 393 22
f 20 393 21
f 19 393 20
f 18 393 19
f 17 393 18
f 16 393 17
f 15 393 16
f 14 393 15
f 25 36 37
f 26 36 25
f 27 36 26
f 28 36 27
f 29 36 28
f 30 36 29
f 31 36 30
f 32 36 31
f 33 36 32
f 34 36 33
f 34 23 36
f 35 23 34
f 24 23 35
f 220 337 206
f 50 52 51
f 49 52 50
f 48 53 52
f 48 52 49
f 47 54 53
f 47 53 48
f 46 55 54
f 46 54 47
f 45 56 55
f 45 55 46
f 44 57 56
f 44 56 45
f 43 58 57
f 43 57 44
f 42 59 58
f 42 58 43
f 41 60 59
f 41 40 60
f 41 59 42
f 39 40 41
f 81 62 61
f 81 63 62
f 80 64 63
f 80 63 81
f 79 65 64
f 79 64 80
f 78 66 65
f 78 65 79
f 77 67 66
f 77 66 78
f 76 68 67
f 76 67 77
f 75 69 68
f 75 68 76
f 74 70 69
f 74 69 75
f 73 71 70
f 73 70 74
f 72 394 71
f 72 71 73
f 103 82 83
f 103 84 82
f 102 85 84
f 102 84 103
f 101 86 85
f 101 85 102
f 100 87 86
f 100 88 87
f 100 86 101
f 99 89 88
f 99 88 100
f 98 90 89
f 98 89 99
f 97 91 90
f 97 90 98
f 96 92 91
f 96 91 97
f 95 93 92
f 95 92 96
f 94 93 95
f 115 117 116
f 114 118 117
f 114 117 115
f 113 119 118
f 113 118 114
f 112 119 113
f 111 120 119
f 111 119 112
f 110 121 120
f 110 120 111
f 109 122 121
f 109 121 110
f 108 123 122
f 108 122 109
f 107 124 123
f 107 123 108
f 106 125 124
f 106 124 107
f 105 104 125
f 105 125 106
f 116 103 83
f 117 102 103
f 117 103 116
f 118 101 102
f 118 102 117
f 119 100 101
f 119 101 118
f 120 99 100
f 120 100 119
f 121 98 99
f 121 99 120
f 122 97 98
f 122 98 121
f 123 96 97
f 123 97 122
f 124 95 96
f 124 96 123
f 125 94 95
f 125 95 124
f 104 94 125
f 146 126 127
f 146 128 126
f 145 129 128
f 145 128 146
f 144 130 129
f 144 129 145
f 143 131 130
f 143 130 144
f 142 132 131
f 142 131 143
f 141 133 132
f 141 132 142
f 140 134 133
f 140 133 141
f 139 135 134
f 139 134 140
f 138 136 135
f 138 135 139
f 137 210 136
f 137 136 138
f 158 160 159
f 157 161 160
f 157 160 158
f 156 161 157
f 155 162 161
f 155 161 156
f 154 163 162
f 154 162 155
f 153 164 163
f 153 163 154
f 152 165 164
f 152 164 153
f 151 166 165
f 151 165 152
f 150 167 166
f 150 166 151
f 149 168 167
f 149 167 150
f 147 148 168
f 147 168 149
f 51 81 61
f 52 80 81
f 52 81 51
f 53 79 80
f 53 80 52
f 54 78 79
f 54 79 53
f 55 77 78
f 55 78 54
f 56 76 77
f 56 77 55
f 57 75 76
f 57 76 56
f 58 74 75
f 58 75 57
f 59 73 74
f 59 74 58
f 60 72 73
f 60 73 59
f 40 72 60
f 82 51 83
f 50 51 82
f 159 127 126
f 158 159 126
f 50 82 127
f 159 50 127
f 51 61 116
f 51 116 83
f 126 169 170
f 126 170 158
f 170 172 171
f 170 169 172
f 61 62 115
f 61 115 116
f 115 171 172
f 115 62 171
f 182 114 115
f 182 115 172
f 181 113 114
f 181 114 182
f 174 173 105
f 174 105 106
f 180 112 113
f 180 113 181
f 175 106 107
f 175 174 106
f 179 110 111
f 179 111 112
f 179 112 180
f 176 107 108
f 176 175 107
f 178 109 110
f 178 110 179
f 177 108 109
f 177 176 108
f 177 109 178
f 126 183 169
f 128 184 183
f 128 183 126
f 129 184 128
f 130 185 184
f 130 186 185
f 130 184 129
f 131 187 186
f 131 186 130
f 132 187 131
f 188 132 133
f 188 187 132
f 189 133 134
f 189 188 133
f 190 134 135
f 190 189 134
f 191 135 136
f 191 190 135
f 210 191 136
f 172 169 183
f 182 183 184
f 182 172 183
f 181 184 185
f 181 182 184
f 180 185 186
f 180 181 185
f 179 186 187
f 179 180 186
f 178 187 188
f 178 179 187
f 177 188 189
f 177 178 188
f 176 189 190
f 176 177 189
f 175 190 191
f 175 176 190
f 174 175 191
f 173 191 210
f 173 174 191
f 82 146 127
f 84 145 146
f 84 146 82
f 85 144 145
f 85 145 84
f 86 143 144
f 86 144 85
f 87 142 143
f 87 143 86
f 88 141 142
f 88 142 87
f 89 140 141
f 89 141 88
f 90 139 140
f 90 140 89
f 91 139 90
f 92 138 139
f 92 139 91
f 93 137 138
f 93 138 92
f 192 194 193
f 203 195 194
f 203 194 192
f 203 196 195
f 203 197 196
f 203 198 197
f 203 199 198
f 203 200 199
f 203 201 200
f 203 202 201
f 193 204 205
f 192 193 205
f 207 208 209
f 206 207 209
f 207 38 208
f 220 206 204
f 37 206 229
f 25 229 228
f 25 37 229
f 26 25 228
f 26 228 227
f 27 26 227
f 27 227 226
f 28 27 226
f 28 226 225
f 29 28 225
f 29 225 224
f 30 29 224
f 30 224 223
f 31 223 222
f 31 30 223
f 32 31 222
f 32 222 221
f 33 221 220
f 33 32 221
f 193 34 33
f 193 35 34
f 193 33 220
f 193 220 204
f 194 24 35
f 194 211 24
f 194 35 193
f 195 211 194
f 195 212 211
f 196 213 212
f 196 212 195
f 197 213 196
f 197 214 213
f 198 215 214
f 198 216 215
f 198 214 197
f 199 216 198
f 199 217 216
f 200 217 199
f 200 218 217
f 201 218 200
f 201 219 218
f 207 219 201
f 207 201 202
f 207 37 219
f 38 207 202
f 38 202 173
f 210 38 173
f 207 206 37
f 234 233 232
f 235 234 232
f 236 232 231
f 236 235 232
f 237 236 231
f 242 239 238
f 242 240 239
f 242 241 240
f 243 238 237
f 243 231 38
f 243 237 231
f 243 242 238
f 244 243 38
f 244 38 230
f 245 244 230
f 246 245 230
f 247 246 230
f 248 247 230
f 249 248 230
f 250 249 230
f 251 250 230
f 252 251 230
f 253 252 230
f 254 253 230
f 255 254 230
f 256 255 230
f 210 137 256
f 210 256 230
f 231 257 38
f 232 258 257
f 232 257 231
f 233 259 258
f 233 258 232
f 234 259 233
f 260 259 234
f 235 260 234
f 261 260 235
f 236 261 235
f 262 261 236
f 237 262 236
f 263 262 237
f 238 263 237
f 264 263 238
f 239 264 238
f 265 264 239
f 240 265 239
f 266 265 240
f 241 266 240
f 267 241 242
f 267 266 241
f 268 267 242
f 243 268 242
f 269 268 243
f 244 269 243
f 270 269 244
f 271 270 244
f 271 244 245
f 272 271 245
f 272 245 246
f 247 272 246
f 273 272 247
f 274 273 247
f 274 247 248
f 275 274 248
f 249 275 248
f 276 275 249
f 250 276 249
f 251 277 276
f 251 276 250
f 252 278 277
f 252 277 251
f 253 279 278
f 253 278 252
f 280 279 253
f 254 280 253
f 255 281 280
f 255 280 254
f 256 282 281
f 256 281 255
f 137 93 282
f 137 282 256
f 284 283 36
f 285 284 36
f 286 285 36
f 37 36 209
f 287 286 36
f 292 289 288
f 292 290 289
f 292 291 290
f 293 36 23
f 293 288 287
f 293 292 288
f 293 287 36
f 294 293 23
f 295 294 23
f 296 295 23
f 296 23 311
f 297 296 311
f 297 311 310
f 298 297 310
f 298 310 309
f 299 298 309
f 299 309 308
f 300 299 308
f 300 308 307
f 208 301 300
f 208 302 301
f 208 303 302
f 208 304 303
f 208 307 37
f 208 300 307
f 257 208 38
f 258 208 257
f 258 305 304
f 258 304 208
f 259 306 305
f 259 305 258
f 260 94 306
f 260 306 259
f 261 94 260
f 262 94 261
f 273 271 272
f 274 271 273
f 275 270 271
f 275 271 274
f 276 270 275
f 281 277 278
f 281 278 279
f 281 279 280
f 282 276 277
f 282 269 270
f 282 270 276
f 282 268 269
f 282 277 281
f 93 94 262
f 93 262 263
f 93 263 264
f 93 264 265
f 93 265 266
f 93 266 267
f 93 267 268
f 93 268 282
f 208 37 209
f 36 337 206
f 36 206 209
f 36 312 337
f 283 313 312
f 283 312 36
f 314 313 283
f 284 314 283
f 285 315 314
f 285 314 284
f 286 316 315
f 286 315 285
f 287 317 316
f 287 316 286
f 318 317 287
f 288 318 287
f 319 288 289
f 319 318 288
f 320 289 290
f 320 319 289
f 291 320 290
f 321 320 291
f 322 321 291
f 322 291 292
f 323 322 292
f 323 292 293
f 324 323 293
f 324 293 294
f 325 324 294
f 325 294 295
f 326 325 295
f 296 326 295
f 327 326 296
f 297 327 296
f 328 327 297
f 298 329 328
f 298 328 297
f 299 330 329
f 299 329 298
f 300 331 330
f 300 330 299
f 301 332 331
f 301 331 300
f 302 333 332
f 302 332 301
f 303 334 333
f 303 333 302
f 304 335 334
f 304 334 303
f 305 336 335
f 305 335 304
f 306 336 305
f 104 336 306
f 94 104 306
f 337 204 206
f 205 204 337
f 205 337 220
f 312 338 337
f 313 338 312
f 313 339 338
f 314 339 313
f 314 340 339
f 315 205 220
f 315 340 314
f 315 220 340
f 316 205 315
f 317 205 316
f 318 205 317
f 192 318 319
f 192 319 320
f 192 320 321
f 192 321 322
f 192 322 323
f 192 205 318
f 324 203 192
f 324 192 323
f 203 324 325
f 203 325 326
f 327 203 326
f 328 203 327
f 329 203 328
f 330 203 329
f 331 203 330
f 332 203 331
f 333 203 332
f 334 203 333
f 335 203 334
f 336 203 335
f 104 105 203
f 104 203 336
f 203 173 202
f 203 105 173
f 71 394 341
f 71 341 350
f 70 350 349
f 70 71 350
f 69 349 348
f 69 70 349
f 68 348 347
f 68 69 348
f 67 68 347
f 346 66 67
f 346 67 347
f 345 65 66
f 345 66 346
f 344 64 65
f 344 65 345
f 343 63 64
f 343 64 344
f 342 62 63
f 342 63 343
f 171 62 342
f 152 355 354
f 153 356 355
f 153 355 152
f 151 354 353
f 151 152 354
f 154 357 356
f 154 356 153
f 150 353 352
f 150 151 353
f 155 358 357
f 155 357 154
f 149 352 351
f 149 150 352
f 156 359 358
f 156 358 155
f 147 149 351
f 157 360 359
f 157 170 360
f 157 359 156
f 158 170 157
f 360 170 171
f 360 171 342
f 359 342 343
f 359 360 342
f 358 343 344
f 358 359 343
f 357 344 345
f 357 358 344
f 356 345 346
f 356 357 345
f 355 346 347
f 355 356 346
f 354 347 348
f 354 355 347
f 353 348 349
f 353 354 348
f 352 349 350
f 352 353 349
f 351 350 341
f 351 352 350
f 160 49 50
f 160 50 159
f 161 48 49
f 161 49 160
f 162 46 47
f 162 47 48
f 162 48 161
f 163 45 46
f 163 46 162
f 164 44 45
f 164 45 163
f 165 44 164
f 166 42 43
f 166 43 44
f 166 44 165
f 167 41 42
f 167 42 166
f 168 39 41
f 168 41 167
f 148 39 168
f 362 363 361
f 361 378 362
f 394 370 369
f 394 371 370
f 394 372 371
f 394 373 372
f 394 374 373
f 394 375 374
f 394 376 375
f 394 377 376
f 394 367 377
f 368 367 394
f 361 363 378
f 380 379 378
f 382 364 365
f 379 380 381
f 380 364 382
f 380 382 381
f 1 366 406
f 406 366 365
f 364 406 365
f 367 366 1
f 393 367 1
f 392 1 2
f 392 393 1
f 391 392 2
f 391 2 3
f 393 377 367
f 390 391 3
f 390 3 4
f 389 390 4
f 389 4 5
f 14 377 393
f 14 376 377
f 388 389 5
f 388 5 6
f 15 375 376
f 15 376 14
f 387 388 6
f 387 6 7
f 387 7 8
f 16 374 375
f 16 375 15
f 386 387 8
f 386 8 9
f 17 373 374
f 17 374 16
f 385 386 9
f 385 9 10
f 18 373 17
f 384 385 10
f 19 372 373
f 19 373 18
f 383 406 364
f 383 384 10
f 383 10 406
f 20 371 372
f 20 372 19
f 418 383 364
f 21 370 371
f 21 371 20
f 22 370 21
f 378 351 341
f 378 341 369
f 380 378 369
f 380 22 418
f 380 369 370
f 380 370 22
f 363 351 378
f 364 380 418
f 394 369 341
f 1 366 367
f 1 365 366
f 406 365 1
f 399 367 368
f 399 368 398
f 397 398 368
f 400 367 399
f 396 397 368
f 401 367 400
f 395 396 368
f 402 1 367
f 402 367 401
f 402 13 1
f 393 395 368
f 403 12 13
f 403 13 402
f 404 11 12
f 404 12 403
f 405 406 11
f 405 11 404
f 393 406 405
f 394 393 368
f 382 365 406
f 382 406 393
f 409 398 397
f 410 399 398
f 410 398 409
f 408 409 397
f 411 400 399
f 411 401 400
f 411 399 410
f 407 396 395
f 407 397 396
f 407 408 397
f 412 402 401
f 412 401 411
f 393 407 395
f 413 403 402
f 413 402 412
f 414 403 413
f 415 403 414
f 415 404 403
f 415 405 404
f 393 405 415
f 416 394 72
f 416 72 40
f 417 394 416
f 418 394 417
f 393 394 418
f 381 382 393
f 393 408 407
f 393 409 408
f 393 410 409
f 393 411 410
f 393 413 412
f 393 414 413
f 393 415 414
f 393 412 411
f 418 381 393
f 422 423 39
f 424 39 423
f 424 40 39
f 421 422 39
f 425 40 424
f 420 421 39
f 426 40 425
f 426 416 40
f 427 416 426
f 428 417 416
f 428 416 427
f 432 419 420
f 432 420 39
f 429 417 428
f 435 433 434
f 431 419 432
f 436 433 435
f 437 433 436
f 437 432 433
f 438 432 437
f 438 431 432
f 441 442 443
f 439 431 438
f 439 443 431
f 440 441 443
f 440 443 439
f 379 418 417
f 379 429 430
f 379 430 378
f 379 417 429
f 381 418 379
f 462 423 422
f 463 424 423
f 463 423 462
f 461 422 421
f 461 462 422
f 464 425 424
f 464 424 463
f 460 421 420
f 460 461 421
f 465 426 425
f 465 425 464
f 459 420 419
f 459 460 420
f 466 427 426
f 466 426 465
f 445 459 419
f 467 428 427
f 467 427 466
f 468 428 467
f 468 429 428
f 446 39 148
f 446 432 39
f 446 433 432
f 469 429 468
f 469 430 429
f 447 434 433
f 447 433 446
f 458 430 469
f 458 378 430
f 448 434 447
f 449 435 434
f 449 436 435
f 449 434 448
f 444 445 419
f 444 431 443
f 444 419 431
f 450 437 436
f 450 436 449
f 457 444 443
f 457 443 442
f 451 438 437
f 451 437 450
f 456 457 442
f 452 438 451
f 455 441 440
f 455 442 441
f 455 456 442
f 453 439 438
f 453 438 452
f 454 440 439
f 454 439 453
f 454 455 440
f 459 461 460
f 459 462 461
f 459 463 462
f 445 464 463
f 445 463 459
f 446 148 147
f 469 466 465
f 469 467 466
f 469 468 467
f 458 465 464
f 458 464 445
f 458 469 465
f 378 445 444
f 378 458 445
f 362 378 444
f 362 447 446
f 362 448 447
f 362 449 448
f 362 450 449
f 362 451 450
f 362 452 451
f 362 453 452
f 362 454 453
f 362 455 454
f 362 456 455
f 362 457 456
f 362 444 457
f 362 446 147
f 363 147 351
f 362 147 363
f 471 210 230
f 471 230 470
f 38 210 471
f 38 471 470
f 470 230 38
f 220 339 340
f 220 338 339
f 220 337 338
f 221 337 220
f 222 337 221
f 223 337 222
f 224 337 223
f 225 337 224
f 226 337 225
f 227 337 226
f 228 337 227
f 229 337 228
f 206 337 229
f 211 23 24
f 212 23 211
f 213 23 212
f 214 23 213
f 215 23 214
f 216 23 215
f 217 23 216
f 218 311 23
f 218 23 217
f 219 310 311
f 219 311 218
f 219 309 310
f 219 308 309
f 219 307 308
f 37 307 219
f 391 393 392
f 390 393 391
f 389 393 390
f 388 393 389
f 387 393 388
f 386 393 387
f 385 393 386
f 384 393 385
f 383 393 384
f 418 393 383
f 504 505 496
f 520 489 490
f 520 490 491
f 520 491 492
f 520 492 493
f 520 493 494
f 520 494 495
f 520 495 483
f 520 484 485
f 520 485 486
f 520 486 487
f 520 487 488
f 520 488 489
f 520 496 484
f 501 502 503
f 499 500 501
f 499 503 504
f 499 504 496
f 499 501 503
f 497 499 496
f 497 498 499
f 497 527 526
f 497 520 527
f 497 496 520
f 482 521 520
f 482 520 483
f 474 521 482
f 474 522 521
f 475 522 474
f 475 523 522
f 476 523 475
f 476 524 523
f 477 524 476
f 477 525 524
f 478 497 526
f 478 525 477
f 478 526 525
f 479 497 478
f 535 497 479
f 536 497 535
f 506 536 537
f 506 537 480
f 506 480 481
f 506 481 472
f 506 497 536
f 473 515 506
f 473 506 472
f 514 515 473
f 513 514 473
f 512 473 519
f 512 519 779
f 512 513 473
f 780 512 779
f 780 511 512
f 781 511 780
f 518 511 781
f 518 507 508
f 518 508 509
f 518 509 510
f 518 510 511
f 517 507 518
f 517 516 507
f 473 472 529
f 528 473 529
f 540 529 472
f 540 472 481
f 539 481 480
f 539 540 481
f 538 480 537
f 538 539 480
f 534 479 478
f 534 535 479
f 533 478 477
f 533 534 478
f 532 477 476
f 532 533 477
f 531 476 475
f 531 532 476
f 530 475 474
f 530 531 475
f 530 474 482
f 530 482 541
f 482 483 542
f 541 482 542
f 542 483 495
f 553 542 495
f 553 495 494
f 552 494 493
f 552 553 494
f 551 493 492
f 551 552 493
f 550 492 491
f 550 551 492
f 549 491 490
f 549 550 491
f 548 490 489
f 548 549 490
f 547 489 488
f 547 548 489
f 546 488 487
f 546 547 488
f 545 487 486
f 545 546 487
f 544 486 485
f 544 545 486
f 543 485 484
f 543 544 485
f 496 543 484
f 554 543 496
f 554 496 505
f 562 554 505
f 562 505 504
f 561 504 503
f 561 562 504
f 560 503 502
f 560 561 503
f 559 502 501
f 559 560 502
f 558 501 500
f 558 559 501
f 557 500 499
f 557 558 500
f 556 499 498
f 556 557 499
f 555 498 497
f 555 556 498
f 506 555 497
f 563 555 506
f 565 508 507
f 565 507 564
f 566 509 508
f 566 508 565
f 567 510 509
f 567 509 566
f 568 511 510
f 568 510 567
f 569 512 511
f 569 511 568
f 570 513 512
f 570 512 569
f 571 514 513
f 571 513 570
f 572 515 514
f 572 514 571
f 563 506 515
f 563 515 572
f 593 594 595
f 593 595 596
f 592 596 606
f 592 593 596
f 591 606 605
f 591 592 606
f 604 590 591
f 604 591 605
f 603 589 590
f 603 590 604
f 602 588 589
f 602 589 603
f 587 588 602
f 601 587 602
f 600 586 587
f 600 587 601
f 585 586 600
f 599 585 600
f 598 584 585
f 598 585 599
f 583 584 598
f 597 583 598
f 516 564 507
f 608 564 516
f 609 516 573
f 609 608 516
f 607 582 583
f 607 583 597
f 574 609 573
f 610 609 574
f 581 582 607
f 617 581 607
f 611 610 574
f 611 574 575
f 616 580 581
f 616 581 617
f 576 611 575
f 612 611 576
f 577 612 576
f 615 579 580
f 615 580 616
f 613 577 578
f 613 612 577
f 614 578 579
f 614 579 615
f 614 613 578
f 617 618 619
f 617 607 618
f 616 619 620
f 616 617 619
f 615 620 621
f 615 616 620
f 614 621 622
f 614 615 621
f 613 622 623
f 613 614 622
f 612 623 624
f 612 613 623
f 611 624 625
f 611 612 624
f 610 625 626
f 610 611 625
f 609 626 627
f 609 610 626
f 608 627 628
f 608 609 627
f 629 618 607
f 629 607 597
f 629 597 598
f 639 598 599
f 639 629 598
f 638 599 600
f 638 639 599
f 637 600 601
f 637 638 600
f 636 601 602
f 636 637 601
f 635 602 603
f 635 636 602
f 634 603 604
f 634 635 603
f 633 604 605
f 633 634 604
f 632 605 606
f 632 633 605
f 631 632 606
f 630 606 596
f 630 631 606
f 679 678 677
f 675 677 676
f 671 680 679
f 673 679 677
f 673 677 675
f 673 671 679
f 673 675 674
f 672 671 673
f 742 671 672
f 742 672 681
f 749 671 742
f 742 690 689
f 742 691 690
f 742 692 691
f 742 693 692
f 742 681 693
f 742 687 686
f 742 688 687
f 742 689 688
f 699 671 749
f 685 742 686
f 684 742 685
f 683 742 684
f 682 742 683
f 595 630 596
f 645 662 671
f 645 644 662
f 643 662 644
f 642 662 643
f 736 645 671
f 641 662 642
f 646 671 699
f 646 736 671
f 646 699 698
f 640 662 641
f 647 698 697
f 647 646 698
f 648 697 696
f 648 647 697
f 649 696 695
f 649 648 696
f 650 695 743
f 650 649 695
f 652 668 667
f 652 669 668
f 652 670 669
f 652 595 670
f 652 630 595
f 653 652 667
f 654 653 667
f 651 663 662
f 651 664 663
f 651 665 664
f 651 666 665
f 651 662 640
f 661 666 651
f 655 654 667
f 660 666 661
f 656 655 667
f 659 666 660
f 657 656 667
f 658 657 667
f 658 666 659
f 658 667 666
f 694 742 682
f 694 743 742
f 694 650 743
f 701 700 650
f 694 701 650
f 701 682 702
f 694 682 701
f 693 681 703
f 693 703 714
f 692 714 713
f 692 693 714
f 691 713 712
f 691 692 713
f 690 712 711
f 690 691 712
f 689 711 710
f 689 690 711
f 688 710 709
f 688 689 710
f 687 709 708
f 687 688 709
f 686 708 707
f 686 687 708
f 685 707 706
f 685 686 707
f 684 706 705
f 684 685 706
f 683 705 704
f 683 684 705
f 682 704 702
f 682 683 704
f 703 672 715
f 681 672 703
f 680 671 716
f 680 716 724
f 679 724 723
f 679 680 724
f 678 723 722
f 678 679 723
f 677 722 721
f 677 678 722
f 676 721 720
f 676 677 721
f 675 720 719
f 675 676 720
f 674 719 718
f 674 675 719
f 673 718 717
f 673 674 718
f 672 717 715
f 672 673 717
f 671 662 725
f 671 725 716
f 661 651 727
f 661 727 732
f 660 732 659
f 660 661 732
f 658 731 730
f 658 659 731
f 657 730 729
f 657 658 730
f 656 729 655
f 656 657 729
f 652 728 726
f 652 653 728
f 733 727 651
f 640 733 651
f 741 650 700
f 649 650 741
f 740 649 741
f 648 649 740
f 739 648 740
f 647 648 739
f 738 647 739
f 646 647 738
f 737 646 738
f 736 646 737
f 735 643 644
f 642 643 735
f 734 642 735
f 641 642 734
f 733 641 734
f 640 641 733
f 695 744 743
f 695 745 744
f 696 745 695
f 696 746 745
f 697 746 696
f 697 747 746
f 698 747 697
f 698 748 747
f 699 748 698
f 699 749 748
f 663 750 725
f 663 725 662
f 664 751 750
f 664 750 663
f 665 752 751
f 665 751 664
f 666 753 752
f 666 752 665
f 667 754 753
f 667 753 666
f 668 755 754
f 668 754 667
f 669 756 755
f 669 755 668
f 670 594 756
f 670 756 669
f 595 594 670
f 723 721 722
f 724 721 723
f 724 720 721
f 719 720 724
f 716 719 724
f 717 719 716
f 717 718 719
f 715 717 716
f 742 715 716
f 742 703 715
f 742 710 711
f 742 711 712
f 742 712 713
f 742 713 714
f 742 714 703
f 749 742 716
f 742 707 708
f 742 708 709
f 742 709 710
f 706 707 742
f 705 706 742
f 704 705 742
f 702 704 742
f 594 593 757
f 645 716 725
f 644 645 725
f 736 716 645
f 735 644 725
f 737 716 736
f 734 735 725
f 738 748 749
f 738 749 716
f 738 716 737
f 733 734 725
f 739 747 748
f 739 748 738
f 740 746 747
f 740 747 739
f 741 745 746
f 741 746 740
f 700 745 741
f 700 743 744
f 700 744 745
f 726 753 754
f 726 594 757
f 726 754 755
f 726 755 756
f 726 756 594
f 728 753 726
f 653 753 728
f 654 753 653
f 727 725 750
f 727 750 751
f 727 751 752
f 727 733 725
f 732 727 752
f 659 732 752
f 655 753 654
f 731 659 752
f 729 753 655
f 730 753 729
f 730 731 752
f 730 752 753
f 701 702 742
f 701 743 700
f 701 742 743
f 758 584 583
f 767 585 584
f 767 584 758
f 766 586 585
f 766 585 767
f 765 587 586
f 765 586 766
f 764 588 587
f 764 587 765
f 763 589 588
f 763 588 764
f 762 590 589
f 762 589 763
f 761 591 590
f 761 590 762
f 760 592 591
f 760 591 761
f 759 593 592
f 759 592 760
f 757 593 759
f 758 583 582
f 758 582 768
f 581 768 582
f 581 769 768
f 580 770 769
f 580 769 581
f 579 771 770
f 579 770 580
f 578 772 771
f 578 771 579
f 577 773 772
f 577 772 578
f 576 774 773
f 576 773 577
f 575 775 774
f 575 774 576
f 574 776 775
f 574 775 575
f 573 777 776
f 573 776 574
f 516 517 777
f 516 777 573
f 776 626 625
f 776 625 775
f 774 625 624
f 774 775 625
f 777 627 626
f 777 626 776
f 623 774 624
f 773 774 623
f 517 628 627
f 517 627 777
f 772 623 622
f 772 773 623
f 771 622 621
f 771 772 622
f 770 621 620
f 770 771 621
f 619 770 620
f 769 770 619
f 768 619 618
f 768 769 619
f 518 778 628
f 518 628 517
f 758 618 629
f 758 768 618
f 639 758 629
f 767 758 639
f 766 767 639
f 766 639 638
f 765 766 638
f 765 638 637
f 764 765 637
f 764 637 636
f 763 764 636
f 635 763 636
f 634 763 635
f 634 762 763
f 633 762 634
f 633 761 762
f 760 761 633
f 632 760 633
f 759 760 632
f 631 759 632
f 630 759 631
f 630 757 759
f 652 757 630
f 652 726 757
f 782 778 518
f 782 518 781
f 528 519 473
f 528 779 519
f 520 549 548
f 520 550 549
f 520 551 550
f 520 552 551
f 520 553 552
f 520 542 553
f 520 544 543
f 520 545 544
f 520 546 545
f 520 547 546
f 520 548 547
f 520 543 554
f 560 554 562
f 560 562 561
f 557 559 558
f 557 560 559
f 557 554 560
f 555 527 520
f 555 557 556
f 555 554 557
f 555 520 554
f 541 542 520
f 541 520 521
f 530 541 521
f 530 521 783
f 530 783 784
f 531 784 785
f 531 530 784
f 532 785 786
f 532 531 785
f 533 786 787
f 533 532 786
f 534 787 527
f 534 527 555
f 534 533 787
f 535 534 555
f 536 535 555
f 563 537 536
f 563 538 537
f 563 539 538
f 563 540 539
f 563 529 540
f 563 536 555
f 528 563 572
f 528 529 563
f 571 528 572
f 570 528 571
f 569 779 528
f 569 780 779
f 569 528 570
f 780 569 568
f 781 780 568
f 782 781 568
f 778 782 568
f 778 565 564
f 778 566 565
f 778 567 566
f 778 568 567
f 628 778 564
f 628 564 608
f 787 525 526
f 787 526 527
f 786 524 525
f 786 525 787
f 785 523 524
f 785 524 786
f 784 522 523
f 784 523 785
f 783 521 522
f 783 522 784
f 803 788 789
f 803 802 788
f 804 789 790
f 804 803 789
f 805 790 791
f 805 804 790
f 806 791 792
f 806 805 791
f 807 792 793
f 807 806 792
f 808 793 794
f 808 807 793
f 809 794 795
f 809 808 794
f 810 795 796
f 810 809 795
f 811 796 797
f 811 810 796
f 812 797 798
f 812 811 797
f 813 798 799
f 813 812 798
f 801 799 800
f 801 813 799
f 859 837 836
f 859 838 837
f 858 859 836
f 860 838 859
f 835 858 836
f 857 858 835
f 861 839 838
f 861 838 860
f 856 835 834
f 856 857 835
f 840 839 861
f 862 840 861
f 833 856 834
f 855 856 833
f 852 841 840
f 852 840 862
f 832 855 833
f 854 855 832
f 831 854 832
f 853 854 831
f 842 841 852
f 849 842 852
f 850 842 849
f 850 843 842
f 844 843 850
f 851 844 850
f 845 844 851
f 848 845 851
f 863 853 831
f 863 831 830
f 873 830 829
f 873 863 830
f 872 829 828
f 872 873 829
f 871 828 827
f 871 872 828
f 870 827 826
f 870 871 827
f 869 826 825
f 869 870 826
f 824 869 825
f 824 868 869
f 823 867 868
f 823 868 824
f 822 866 867
f 822 867 823
f 865 866 822
f 821 865 822
f 820 864 865
f 820 865 821
f 847 845 848
f 847 846 845
f 819 874 864
f 819 864 820
f 877 874 819
f 818 877 819
f 817 876 877
f 817 877 818
f 816 875 876
f 816 876 817
f 814 815 875
f 814 875 816
f 889 801 800
f 889 800 878
f 890 878 879
f 890 889 878
f 891 879 880
f 891 890 879
f 892 880 881
f 892 891 880
f 893 881 882
f 893 892 881
f 894 882 883
f 894 893 882
f 895 883 884
f 895 894 883
f 896 884 885
f 896 895 884
f 897 885 886
f 897 896 885
f 898 886 887
f 898 897 886
f 899 887 888
f 899 898 887
f 814 888 815
f 814 899 888
f 904 788 802
f 903 788 904
f 902 904 907
f 902 903 904
f 906 902 907
f 901 902 906
f 900 906 905
f 900 901 906
f 911 912 900
f 911 900 905
f 910 909 908
f 910 908 914
f 909 915 916
f 910 915 909
f 925 917 924
f 918 917 925
f 916 923 922
f 915 923 916
f 924 927 928
f 917 927 924
f 938 929 937
f 930 929 938
f 939 930 938
f 931 930 939
f 940 931 939
f 941 931 940
f 942 934 933
f 935 934 942
f 936 942 943
f 936 935 942
f 928 936 943
f 927 936 928
f 966 937 929
f 966 929 967
f 965 967 977
f 965 966 967
f 976 965 977
f 964 965 976
f 975 963 964
f 975 964 976
f 962 963 975
f 974 962 975
f 961 962 974
f 973 961 974
f 972 960 961
f 972 961 973
f 959 960 972
f 971 959 972
f 958 959 971
f 970 958 971
f 969 957 958
f 969 958 970
f 956 957 969
f 968 956 969
f 979 944 945
f 979 989 944
f 946 979 945
f 980 979 946
f 978 955 956
f 978 956 968
f 947 980 946
f 981 980 947
f 988 955 978
f 988 954 955
f 982 947 948
f 982 981 947
f 987 953 954
f 987 954 988
f 983 948 949
f 983 982 948
f 952 953 987
f 986 952 987
f 984 949 950
f 984 950 951
f 984 983 949
f 985 951 952
f 985 984 951
f 985 952 986
f 1002 990 1001
f 991 990 1002
f 1003 991 1002
f 992 991 1003
f 1004 992 1003
f 1005 992 1004
f 1006 995 994
f 996 995 1006
f 1007 996 1006
f 997 996 1007
f 1008 997 1007
f 998 997 1008
f 1009 998 1008
f 999 998 1009
f 1010 999 1009
f 1000 999 1010
f 944 1000 1010
f 989 1000 944
f 1001 1011 1012
f 990 1011 1001
f 1022 1013 1021
f 1014 1013 1022
f 1023 1014 1022
f 1015 1014 1023
f 1024 1015 1023
f 1025 1015 1024
f 1026 1018 1017
f 1019 1018 1026
f 1027 1019 1026
f 1020 1019 1027
f 1012 1020 1027
f 1011 1020 1012
f 1021 1028 1031
f 1013 1028 1021
f 1036 1032 1033
f 1036 1039 1032
f 1037 1033 1034
f 1037 1036 1033
f 1035 1037 1034
f 1038 1037 1035
f 1030 1038 1035
f 1041 846 847
f 1041 847 1063
f 1042 1063 1064
f 1042 1041 1063
f 1043 1064 1065
f 1043 1042 1064
f 1044 1065 1066
f 1044 1043 1065
f 1045 1066 1067
f 1045 1044 1066
f 1046 1067 1068
f 1046 1045 1067
f 1047 1068 1069
f 1047 1046 1068
f 1048 1069 1070
f 1048 1047 1069
f 1049 1070 1071
f 1049 1048 1070
f 1050 1071 1072
f 1050 1049 1071
f 1051 1072 1073
f 1051 1050 1072
f 1052 1051 1073
f 1052 1073 1074
f 1053 1052 1074
f 1053 1074 1075
f 1054 1053 1075
f 1054 1075 1076
f 1055 1054 1076
f 1055 1076 1077
f 1056 1055 1077
f 1056 1077 1078
f 1057 1056 1078
f 1057 1078 1079
f 1058 1057 1079
f 1058 1079 1080
f 1059 1058 1080
f 1059 1080 1081
f 1060 1059 1081
f 1060 1081 1082
f 1061 1060 1082
f 1061 1082 1083
f 1062 1061 1083
f 1062 1083 1084
f 1062 1084 1032
f 1039 1062 1032
f 1040 1077 1076
f 1040 1078 1077
f 1040 1076 1075
f 1040 1079 1078
f 1040 1075 1074
f 1040 1080 1079
f 1040 1074 1073
f 1040 1081 1080
f 1040 1082 1081
f 1040 1073 1072
f 1040 1083 1082
f 1040 1084 1083
f 1040 1072 1071
f 1040 1032 1084
f 1040 1071 1070
f 1069 1040 1070
f 1068 1040 1069
f 1067 1040 1068
f 1066 1040 1067
f 1065 1040 1066
f 1033 1032 1040
f 1064 1040 1065
f 1063 1040 1064
f 847 1040 1063
f 848 1040 847
f 848 1033 1040
f 1035 849 1030
f 1035 850 849
f 1034 851 850
f 1034 850 1035
f 1033 848 851
f 1033 851 1034
f 1021 1031 1029
f 1024 1023 1022
f 1025 1024 1022
f 1016 1022 1021
f 1016 1025 1022
f 1027 1017 1016
f 1027 1026 1017
f 1012 1021 1029
f 1012 1016 1021
f 1012 1027 1016
f 849 1029 1030
f 1001 1012 1029
f 1001 1029 849
f 1002 1001 849
f 1003 1002 849
f 1004 1003 849
f 1005 1004 849
f 993 1005 849
f 994 993 849
f 1006 994 849
f 1007 1006 849
f 1008 1007 849
f 1009 1008 849
f 1010 1009 849
f 944 1010 849
f 852 945 944
f 852 944 849
f 954 853 955
f 954 854 853
f 953 855 854
f 953 854 954
f 952 856 855
f 952 855 953
f 951 857 856
f 951 856 952
f 950 858 857
f 950 857 951
f 949 859 858
f 949 858 950
f 948 860 859
f 948 859 949
f 947 861 860
f 947 860 948
f 946 862 861
f 946 861 947
f 945 852 862
f 945 862 946
f 956 955 853
f 863 956 853
f 863 957 956
f 873 958 957
f 873 957 863
f 872 959 958
f 872 958 873
f 871 960 959
f 871 959 872
f 870 961 960
f 870 960 871
f 869 962 961
f 869 961 870
f 868 963 962
f 868 962 869
f 867 964 963
f 867 963 868
f 866 965 964
f 866 964 867
f 865 966 965
f 865 965 866
f 864 966 865
f 925 926 918
f 925 919 926
f 924 919 925
f 937 966 864
f 922 921 920
f 916 920 919
f 916 919 924
f 916 922 920
f 908 909 916
f 914 908 916
f 913 914 916
f 913 924 928
f 913 916 924
f 912 913 928
f 874 900 912
f 874 938 937
f 874 939 938
f 874 940 939
f 874 941 940
f 874 932 941
f 874 933 932
f 874 942 933
f 874 943 942
f 874 928 943
f 874 912 928
f 874 937 864
f 874 901 900
f 877 902 901
f 877 901 874
f 876 903 902
f 876 902 877
f 875 903 876
f 1085 789 788
f 1085 790 789
f 1085 791 790
f 1085 788 903
f 1085 792 791
f 1085 793 792
f 1085 903 875
f 1085 794 793
f 1085 795 794
f 796 795 1085
f 797 796 1085
f 798 797 1085
f 799 798 1085
f 800 799 1085
f 815 1085 875
f 888 1085 815
f 878 800 1085
f 879 878 1085
f 887 1085 888
f 886 1085 887
f 880 879 1085
f 881 880 1085
f 885 1085 886
f 882 881 1085
f 884 1085 885
f 883 882 1085
f 883 1085 884
f 1040 1054 1055
f 1040 1055 1056
f 1040 1053 1054
f 1040 1056 1057
f 1040 1052 1053
f 1040 1057 1058
f 1040 1051 1052
f 1040 1058 1059
f 1040 1059 1060
f 1040 1050 1051
f 1040 1060 1061
f 1040 1061 1062
f 1040 1049 1050
f 1040 1062 1039
f 1040 1048 1049
f 1047 1048 1040
f 1046 1047 1040
f 1045 1046 1040
f 1044 1045 1040
f 1043 1044 1040
f 1036 1040 1039
f 1042 1043 1040
f 1041 1042 1040
f 846 1041 1040
f 845 1040 1036
f 845 846 1040
f 1038 1030 842
f 1038 842 843
f 1037 843 844
f 1037 1038 843
f 1036 844 845
f 1036 1037 844
f 1013 1031 1028
f 1013 1029 1031
f 1025 1014 1015
f 1016 1014 1025
f 1016 1013 1014
f 1020 1016 1017
f 1020 1017 1018
f 1020 1018 1019
f 1011 1029 1013
f 1011 1013 1016
f 1011 1016 1020
f 842 1030 1029
f 990 1029 1011
f 990 842 1029
f 991 842 990
f 992 842 991
f 1005 842 992
f 993 842 1005
f 994 842 993
f 995 842 994
f 996 842 995
f 997 842 996
f 998 842 997
f 999 842 998
f 1000 842 999
f 989 842 1000
f 841 989 979
f 841 842 989
f 978 831 832
f 988 832 833
f 988 978 832
f 987 833 834
f 987 988 833
f 986 834 835
f 986 987 834
f 985 835 836
f 985 986 835
f 984 836 837
f 984 985 836
f 983 837 838
f 983 984 837
f 982 838 839
f 982 983 838
f 981 839 840
f 981 982 839
f 980 981 840
f 979 840 841
f 979 980 840
f 968 831 978
f 830 831 968
f 830 968 969
f 829 969 970
f 829 830 969
f 828 970 971
f 828 829 970
f 827 971 972
f 827 828 971
f 826 972 973
f 826 827 972
f 825 973 974
f 825 826 973
f 824 974 975
f 824 825 974
f 823 975 976
f 823 824 975
f 822 976 977
f 822 823 976
f 821 977 967
f 821 822 977
f 820 821 967
f 918 926 919
f 917 919 920
f 917 918 919
f 929 820 967
f 923 920 921
f 923 921 922
f 915 917 920
f 915 920 923
f 914 915 910
f 913 915 914
f 913 927 917
f 913 917 915
f 819 911 905
f 819 912 911
f 819 913 912
f 819 927 913
f 819 929 930
f 819 930 931
f 819 931 941
f 819 941 932
f 819 932 933
f 819 933 934
f 819 934 935
f 819 935 936
f 819 936 927
f 819 820 929
f 818 905 906
f 818 819 905
f 817 906 907
f 817 818 906
f 816 907 904
f 816 817 907
f 1085 802 803
f 1085 803 804
f 1085 804 805
f 1085 904 802
f 1085 805 806
f 1085 806 807
f 1085 816 904
f 1085 807 808
f 1085 808 809
f 810 1085 809
f 811 1085 810
f 812 1085 811
f 813 1085 812
f 801 1085 813
f 814 816 1085
f 889 1085 801
f 899 814 1085
f 890 1085 889
f 898 899 1085
f 897 898 1085
f 891 1085 890
f 896 897 1085
f 892 1085 891
f 895 896 1085
f 893 1085 892
f 894 895 1085
f 894 1085 893
f 1097 1093 1094
f 1092 1093 1097
f 1092 1097 1096
f 1091 1096 1090
f 1091 1092 1096
f 1086 1095 1087
f 1086 1088 1095
f 1087 474 482
f 1087 482 1111
f 1095 475 474
f 1095 474 1087
f 1088 476 475
f 1088 475 1095
f 477 476 1088
f 1089 477 1088
f 1089 478 477
f 1089 479 478
f 1089 535 479
f 536 535 1089
f 537 1089 1090
f 537 536 1089
f 1096 537 1090
f 480 537 1096
f 481 480 1096
f 481 1096 1097
f 472 481 1097
f 472 1097 1094
f 473 472 1094
f 473 1094 1099
f 519 473 1099
f 519 1099 1100
f 779 519 1100
f 1101 779 1100
f 780 779 1101
f 1102 780 1101
f 1103 780 1102
f 1104 780 1103
f 1105 780 1104
f 1106 780 1105
f 1107 780 1106
f 1108 780 1107
f 1109 781 780
f 1109 780 1108
f 1110 518 781
f 1110 781 1109
f 1098 518 1110
f 517 518 1098
f 1114 517 1098
f 474 541 482
f 530 541 474
f 475 530 474
f 531 530 475
f 476 531 475
f 532 531 476
f 477 532 476
f 533 532 477
f 478 533 477
f 534 533 478
f 479 534 478
f 535 534 479
f 480 538 537
f 539 538 480
f 540 480 481
f 540 539 480
f 472 540 481
f 529 540 472
f 473 529 472
f 528 529 473
f 519 528 473
f 779 528 519
f 518 782 781
f 778 782 518
f 630 726 652
f 757 726 630
f 631 757 630
f 759 757 631
f 760 631 632
f 760 759 631
f 633 761 760
f 633 760 632
f 762 761 633
f 634 762 633
f 635 763 762
f 635 762 634
f 764 763 635
f 636 764 635
f 765 764 636
f 637 765 636
f 766 765 637
f 638 766 637
f 767 766 638
f 639 767 638
f 758 767 639
f 629 758 639
f 628 518 517
f 628 778 518
f 777 628 517
f 627 628 777
f 618 768 758
f 618 758 629
f 626 627 777
f 626 777 776
f 619 769 768
f 619 768 618
f 775 626 776
f 625 626 775
f 770 769 619
f 620 770 619
f 624 775 774
f 624 625 775
f 621 771 770
f 621 770 620
f 623 624 774
f 623 774 773
f 622 772 771
f 622 773 772
f 622 771 621
f 622 623 773
f 619 618 1113
f 619 1113 1115
f 620 619 1115
f 621 1115 1114
f 621 620 1115
f 622 621 1114
f 623 622 1114
f 624 623 1114
f 625 624 1114
f 626 625 1114
f 627 1114 1112
f 627 626 1114
f 628 627 1112
f 1116 1113 618
f 1116 618 629
f 1118 1116 629
f 1118 629 639
f 1118 639 638
f 1119 638 637
f 1119 1118 638
f 1119 637 636
f 1119 636 635
f 1119 635 634
f 1119 634 633
f 1119 633 632
f 1117 632 631
f 1117 1119 632
f 1117 631 630
f 1153 643 644
f 1153 644 645
f 1153 645 736
f 1152 641 642
f 1152 642 643
f 1152 643 1153
f 1153 736 646
f 1123 640 641
f 1123 641 1152
f 1153 646 647
f 1122 640 1123
f 1153 647 648
f 1153 648 649
f 1154 1153 649
f 1154 649 650
f 1121 1154 650
f 1125 1117 630
f 1125 630 652
f 1125 652 653
f 651 640 1122
f 1126 653 654
f 1126 1125 653
f 1127 1126 654
f 1124 651 1122
f 1128 1127 654
f 1136 661 651
f 1136 651 1124
f 1135 660 661
f 1135 661 1136
f 1129 654 655
f 1129 1128 654
f 1134 659 660
f 1134 660 1135
f 1130 655 656
f 1130 1129 655
f 1133 658 659
f 1133 659 1134
f 1131 656 657
f 1131 1130 656
f 1132 657 658
f 1132 658 1133
f 1132 1131 657
f 1120 1121 650
f 1120 650 694
f 1136 1124 1138
f 1136 1138 1149
f 1135 1149 1148
f 1135 1136 1149
f 1134 1148 1147
f 1134 1135 1148
f 1133 1147 1146
f 1133 1134 1147
f 1132 1146 1145
f 1132 1133 1146
f 1131 1145 1144
f 1131 1132 1145
f 1130 1144 1143
f 1130 1131 1144
f 1129 1143 1142
f 1129 1130 1143
f 1128 1142 1141
f 1128 1129 1142
f 1127 1141 1140
f 1127 1128 1141
f 1126 1140 1139
f 1126 1127 1140
f 1125 1139 1137
f 1125 1126 1139
f 1150 1138 1124
f 1122 1150 1124
f 1155 1121 1151
f 1154 1121 1155
f 1150 1123 1152
f 1122 1123 1150
f 1120 1156 1151
f 1120 1151 1121
f 1156 694 701
f 1120 694 1156
f 701 650 700
f 694 650 701
f 641 640 733
f 641 733 734
f 642 734 735
f 642 641 734
f 643 735 644
f 643 642 735
f 646 737 738
f 646 736 737
f 647 738 739
f 647 646 738
f 648 739 740
f 648 647 739
f 649 740 741
f 649 648 740
f 650 741 700
f 650 649 741
f 640 651 727
f 640 727 733
f 728 652 726
f 653 652 728
f 729 656 655
f 657 656 729
f 658 729 730
f 658 657 729
f 731 658 730
f 659 658 731
f 732 660 659
f 661 660 732
f 651 732 727
f 651 661 732
f 1153 645 644
f 1153 736 645
f 1153 737 736
f 1153 735 734
f 1153 644 735
f 1153 738 737
f 1152 734 733
f 1152 1153 734
f 1153 739 738
f 1150 1152 733
f 1154 739 1153
f 1154 740 739
f 1154 741 740
f 1155 741 1154
f 1155 700 741
f 1151 700 1155
f 1137 726 757
f 1137 728 726
f 1137 757 1157
f 727 1150 733
f 1139 653 728
f 1139 728 1137
f 1140 654 653
f 1140 653 1139
f 1138 1150 727
f 1141 654 1140
f 1149 727 732
f 1149 1138 727
f 1148 732 659
f 1148 1149 732
f 1142 654 1141
f 1147 659 731
f 1147 1148 659
f 1143 655 654
f 1143 654 1142
f 1146 731 730
f 1146 1147 731
f 1144 729 655
f 1144 655 1143
f 1145 730 729
f 1145 1146 730
f 1145 729 1144
f 1156 700 1151
f 1156 701 700
f 1118 766 767
f 1118 767 758
f 1118 758 1158
f 1118 765 766
f 1119 764 765
f 1119 765 1118
f 1119 763 764
f 1119 762 763
f 1119 761 762
f 1119 760 761
f 1119 759 760
f 1157 757 759
f 1157 759 1119
f 758 768 1159
f 1158 758 1159
f 768 1114 1159
f 769 1114 768
f 770 1114 769
f 771 1114 770
f 772 1114 771
f 773 1114 772
f 774 1114 773
f 775 1114 774
f 776 1114 775
f 777 1114 776
f 517 1114 777
f 1159 1115 1113
f 1159 1114 1115
f 1098 1160 1112
f 1098 1112 1114
f 1158 1113 1116
f 1158 1159 1113
f 1118 1158 1116
f 1117 1157 1119
f 1125 1157 1117
f 1125 1137 1157
f 1172 1160 1098
f 1172 1098 1110
f 1171 1110 1109
f 1171 1172 1110
f 1170 1109 1108
f 1170 1171 1109
f 1169 1108 1107
f 1169 1170 1108
f 1168 1107 1106
f 1168 1169 1107
f 1167 1106 1105
f 1167 1168 1106
f 1166 1105 1104
f 1166 1167 1105
f 1165 1104 1103
f 1165 1166 1104
f 1164 1103 1102
f 1164 1165 1103
f 1163 1102 1101
f 1163 1164 1102
f 1162 1101 1100
f 1162 1163 1101
f 1161 1100 1099
f 1161 1162 1100
f 1173 1111 482
f 1173 482 541
f 1099 1094 1093
f 1161 1099 1093
f 1086 1173 541
f 1086 541 530
f 1088 530 531
f 1088 1086 530
f 1089 531 532
f 1089 1088 531
f 533 1089 532
f 1089 533 534
f 1089 534 535
f 1089 535 536
f 537 1090 1089
f 537 1089 536
f 538 1091 1090
f 538 1090 537
f 1092 1091 538
f 539 1092 538
f 540 1092 539
f 529 1092 540
f 529 1093 1092
f 528 1093 529
f 528 1161 1093
f 779 1161 528
f 779 1162 1161
f 780 1162 779
f 1163 1162 780
f 1164 1163 780
f 1165 1164 780
f 1166 1165 780
f 1167 1166 780
f 1168 1167 780
f 1169 1168 780
f 1170 780 781
f 1170 1169 780
f 1171 781 782
f 1171 1170 781
f 1172 782 778
f 1172 1171 782
f 1160 1172 778
f 628 1160 778
f 1112 1160 628
f 1087 1111 1173
f 1086 1087 1173
f 936 927 928
f 936 928 943
f 935 943 942
f 935 936 943
f 934 942 933
f 934 935 942
f 931 940 939
f 931 941 940
f 930 939 938
f 930 931 939
f 929 938 937
f 929 930 938
f 919 1184 1183
f 919 1185 1184
f 926 1183 1182
f 926 919 1183
f 919 1186 1185
f 918 1182 1181
f 918 926 1182
f 920 1187 1186
f 920 1186 919
f 1175 1174 966
f 925 1181 1180
f 925 918 1181
f 920 1188 1187
f 924 925 1180
f 920 1189 1188
f 921 1189 920
f 921 1190 1189
f 937 1176 1175
f 937 1175 966
f 922 1190 921
f 922 1191 1190
f 938 1177 1176
f 938 1176 937
f 916 1191 922
f 916 1192 1191
f 939 1177 938
f 940 932 1177
f 940 1177 939
f 928 924 1180
f 928 1179 1178
f 928 1180 1179
f 941 932 940
f 943 928 1178
f 943 1178 932
f 942 943 932
f 933 942 932
f 1260 1194 1192
f 1193 1192 916
f 1193 1260 1192
f 909 1193 916
f 956 1195 1196
f 957 1195 956
f 958 1242 1195
f 958 1195 957
f 959 1242 958
f 960 1242 959
f 961 1242 960
f 962 1242 961
f 963 1242 962
f 964 1241 1242
f 964 1242 963
f 965 1174 1241
f 965 1241 964
f 966 1174 965
f 1196 1239 955
f 956 1196 955
f 1239 954 955
f 1239 953 954
f 1239 952 953
f 1239 951 952
f 1239 950 951
f 1239 949 950
f 1239 948 949
f 1239 947 948
f 1239 946 947
f 1239 945 946
f 1198 1197 1218
f 1198 1218 1031
f 1021 1198 1031
f 1022 1199 1198
f 1022 1198 1021
f 1023 1200 1199
f 1023 1199 1022
f 1024 1200 1023
f 1201 1200 1024
f 1025 1201 1024
f 1202 1201 1025
f 1016 1202 1025
f 1203 1202 1016
f 1204 1203 1016
f 1205 1204 1016
f 1206 1205 1016
f 1017 1206 1016
f 1207 1206 1017
f 1026 1207 1017
f 1208 1026 1027
f 1208 1207 1026
f 1209 1208 1027
f 1012 1209 1027
f 1210 1209 1012
f 1001 1210 1012
f 1211 1210 1001
f 1212 1211 1001
f 1212 1001 1002
f 1213 1212 1002
f 1213 1002 1003
f 1004 1213 1003
f 993 1213 1004
f 993 1004 1005
f 1006 993 994
f 1007 993 1006
f 1008 1233 993
f 1008 993 1007
f 1214 1233 1008
f 1009 1214 1008
f 1010 1215 1214
f 1010 1214 1009
f 944 1216 1215
f 944 1215 1010
f 945 1239 1216
f 945 1216 944
f 990 1001 1012
f 990 1012 1011
f 1219 1197 1217
f 1219 1218 1197
f 1013 1028 1218
f 1013 1218 1219
f 1014 1219 1220
f 1014 1013 1219
f 1015 1220 1221
f 1015 1014 1220
f 1025 1015 1221
f 1222 1025 1221
f 1016 1025 1222
f 1223 1016 1222
f 1224 1016 1223
f 1225 1016 1224
f 1226 1016 1225
f 1017 1016 1226
f 1227 1017 1226
f 1018 1017 1227
f 1228 1018 1227
f 1019 1018 1228
f 1229 1019 1228
f 1229 1020 1019
f 1230 1020 1229
f 1011 1020 1230
f 1231 1011 1230
f 990 1011 1231
f 1232 990 1231
f 1213 991 990
f 1213 990 1232
f 993 992 991
f 993 991 1213
f 1005 992 993
f 995 994 993
f 996 995 993
f 997 993 1233
f 997 996 993
f 998 1233 1234
f 998 997 1233
f 1235 998 1234
f 999 998 1235
f 1000 999 1235
f 989 1235 1236
f 989 1000 1235
f 979 1236 1237
f 979 989 1236
f 1239 1238 978
f 1239 978 988
f 1239 988 987
f 1239 987 986
f 1239 986 985
f 1239 985 984
f 1239 984 983
f 1239 983 982
f 1239 982 981
f 1239 981 980
f 1237 980 979
f 1237 1239 980
f 1240 978 1238
f 968 978 1240
f 969 968 1240
f 969 1240 1195
f 970 969 1195
f 971 1195 1242
f 971 970 1195
f 972 971 1242
f 973 972 1242
f 974 973 1242
f 975 974 1242
f 976 975 1242
f 977 1242 1241
f 977 976 1242
f 967 977 1241
f 1020 1011 1012
f 1020 1012 1027
f 1019 1027 1026
f 1019 1020 1027
f 1018 1026 1017
f 1018 1019 1026
f 1015 1024 1023
f 1015 1025 1024
f 1014 1023 1022
f 1014 1015 1023
f 1013 1022 1021
f 1013 1014 1022
f 1021 1031 1028
f 1013 1021 1028
f 1028 1031 1218
f 1198 1217 1197
f 1219 1217 1198
f 1199 1219 1198
f 1220 1219 1199
f 1200 1220 1199
f 1221 1220 1200
f 1201 1221 1200
f 1222 1221 1201
f 1202 1222 1201
f 1223 1222 1202
f 1203 1223 1202
f 1224 1223 1203
f 1204 1224 1203
f 1225 1224 1204
f 1205 1225 1204
f 1226 1225 1205
f 1206 1226 1205
f 1227 1226 1206
f 1207 1227 1206
f 1228 1227 1207
f 1208 1228 1207
f 1229 1228 1208
f 1230 1208 1209
f 1230 1229 1208
f 1210 1230 1209
f 1231 1230 1210
f 1211 1231 1210
f 1232 1231 1211
f 1212 1232 1211
f 1213 1232 1212
f 1214 1234 1233
f 1235 1234 1214
f 1215 1235 1214
f 1236 1215 1216
f 1236 1235 1215
f 1010 989 944
f 1000 989 1010
f 999 1010 1009
f 999 1000 1010
f 998 1009 1008
f 998 999 1009
f 997 1008 1007
f 997 998 1008
f 1006 997 1007
f 996 997 1006
f 995 1006 994
f 995 996 1006
f 992 1004 1003
f 992 1005 1004
f 991 1003 1002
f 991 992 1003
f 990 1002 1001
f 990 991 1002
f 1174 1175 1243
f 1174 1243 1241
f 1240 1196 1195
f 1237 1216 1239
f 1237 1236 1216
f 1238 1239 1196
f 1238 1196 1240
f 1176 1243 1175
f 1177 1243 1176
f 1179 1245 1178
f 1244 1245 1179
f 1180 1244 1179
f 1246 1244 1180
f 1248 1246 1180
f 1248 1180 1181
f 1249 1181 1182
f 1249 1248 1181
f 1250 1182 1183
f 1250 1249 1182
f 1251 1183 1184
f 1251 1250 1183
f 1252 1184 1185
f 1252 1251 1184
f 1253 1185 1186
f 1253 1252 1185
f 1254 1186 1187
f 1254 1253 1186
f 1255 1187 1188
f 1255 1254 1187
f 1256 1188 1189
f 1256 1255 1188
f 1257 1189 1190
f 1257 1256 1189
f 1258 1190 1191
f 1258 1257 1190
f 1247 1191 1192
f 1247 1258 1191
f 1259 1247 1192
f 1259 1192 1194
f 910 1193 909
f 1260 1193 910
f 910 909 916
f 910 916 915
f 923 915 916
f 923 916 922
f 917 925 924
f 917 918 925
f 917 924 928
f 917 928 927
f 919 1250 1251
f 919 1251 1252
f 919 1249 1250
f 920 1252 1253
f 920 919 1252
f 926 1248 1249
f 926 1249 919
f 920 1253 1254
f 918 1246 1248
f 918 1248 926
f 920 1254 1255
f 917 1246 918
f 921 1255 1256
f 921 920 1255
f 922 921 1256
f 922 1256 1257
f 929 967 1241
f 929 1241 1243
f 929 1243 1177
f 923 922 1257
f 923 1257 1258
f 930 929 1177
f 930 1177 932
f 915 923 1258
f 915 1258 1247
f 931 930 932
f 941 931 932
f 927 1245 1244
f 927 1244 1246
f 927 1246 917
f 936 1245 927
f 936 1178 1245
f 935 1178 936
f 934 932 1178
f 934 1178 935
f 933 932 934
f 1194 1247 1259
f 1260 1247 1194
f 1260 915 1247
f 910 915 1260
f 966 929 937
f 966 967 929
f 965 977 967
f 965 967 966
f 964 976 977
f 964 977 965
f 975 964 963
f 975 976 964
f 974 963 962
f 974 975 963
f 961 974 962
f 973 974 961
f 960 973 961
f 972 973 960
f 971 960 959
f 971 972 960
f 958 971 959
f 970 971 958
f 957 970 958
f 969 970 957
f 968 957 956
f 968 969 957
f 945 944 989
f 979 945 989
f 946 945 979
f 980 946 979
f 978 956 955
f 978 968 956
f 981 947 946
f 981 946 980
f 988 955 954
f 988 978 955
f 982 948 947
f 982 947 981
f 953 988 954
f 987 988 953
f 983 949 948
f 983 948 982
f 950 949 983
f 986 953 952
f 986 987 953
f 984 950 983
f 985 951 950
f 985 952 951
f 985 986 952
f 985 950 984

