# https://github.com/mikedh/trimesh

o p00057.obj
v -50.80000000 1.00000000 1422.40000000
v -50.80000000 0.00000000 1422.40000000
v -914.40000000 1.00000000 1422.40000000
v -914.40000000 0.00000000 1422.40000000
v -914.40000000 0.00000000 1473.20000000
v -914.40000000 1.00000000 1473.20000000
v 0.00000000 0.00000000 1473.20000000
v 0.00000000 1.00000000 1473.20000000
v -0.00000000 0.00000000 -1473.20000000
v -0.00000000 1.00000000 -1473.20000000
v -914.40000000 0.00000000 -1473.20000000
v -914.40000000 1.00000000 -1473.20000000
v -914.40000000 0.00000000 -1422.40000000
v -914.40000000 1.00000000 -1422.40000000
v -50.80000000 1.00000000 -1422.40000000
v -50.80000000 0.00000000 -1422.40000000
f 1 4 3
f 1 2 4
f 5 3 4
f 6 3 5
f 8 5 7
f 8 6 5
f 10 7 9
f 10 8 7
f 11 10 9
f 12 10 11
f 13 12 11
f 14 12 13
f 14 16 15
f 14 13 16
f 15 2 1
f 15 16 2
f 6 8 1
f 3 6 1
f 15 1 8
f 10 15 8
f 12 14 15
f 12 15 10
f 5 2 7
f 4 2 5
f 16 7 2
f 9 7 16
f 11 16 13
f 11 9 16

