# https://github.com/mikedh/trimesh
v 1.78034451 76.01039989 3.17487530
v 1.77784938 76.01039994 3.17497227
v 1.77535208 76.01039989 3.17500000
v 1.77935268 76.04647998 3.16825252
v 1.82601612 76.09718058 3.10477941
v 3.63730670 -76.01039989 -0.05000000
v 3.64467342 -76.01039989 -0.03420201
v 3.64579745 -76.04277126 -0.01835714
v 3.65070416 -76.01039989 0.00000000
v 3.58420061 -76.10462296 -0.00000000
v 3.61872718 -76.08534700 0.00407127
v -1.86195462 76.01039989 3.12500000
v -1.84089721 76.01039989 3.15052374
v -1.81266343 76.01039989 3.16777857
v -1.78034451 76.01039989 3.17487530
v -1.79210030 76.10462296 3.10400878
v -1.81183450 76.07829775 3.14213209
v -1.84567871 76.03916974 3.14240969
v 1.77535208 -76.01039989 -3.17500000
v 1.77784938 -76.01039994 -3.17497227
v 1.78034451 -76.01039989 -3.17487530
v 1.78567471 -76.05080968 -3.16596968
v 1.79210030 -76.10462296 -3.10400878
v 1.81348980 -76.08138516 -3.13773924
v -3.63730670 76.01039989 -0.05000000
v -3.64467342 76.01039989 -0.03420201
v -3.64579745 76.04277126 -0.01835714
v -3.65070416 76.01039989 -0.00000000
v -3.58420061 76.10462296 -0.00000000
v -3.62201805 76.08229885 0.00594107
v -1.86195462 -76.01039989 -3.12500000
v -1.84089721 -76.01039989 -3.15052374
v -1.81266343 -76.01039989 -3.16777857
v -1.78034451 -76.01039989 -3.17487530
v -1.79210030 -76.10462296 -3.10400878
v -1.81183450 -76.07829775 -3.14213209
v -1.84567871 -76.03916974 -3.14240969
v -0.00419371 76.19594166 -1.85768251
v 0.39353998 76.19812762 -1.83581010
v 1.59916255 76.19850791 -0.98918060
v 1.72362732 76.19842485 0.74867700
v 1.46759315 76.19850791 1.17557199
v 1.09600529 76.19850791 1.52793048
v 0.64313179 76.19850791 1.76696934
v 0.14283576 76.19834942 1.87439533
v 1.77599724 76.18283647 0.49311279
v 1.82062317 76.19571284 -0.36681428
v 1.16407428 76.18369746 -1.42504300
v 0.74947976 76.19517448 -1.69834548
v 0.11818683 76.18298100 1.83953613
v 0.61010509 76.18298101 1.73943470
v 0.95918870 76.18369745 1.57027815
v 1.16333666 76.18271825 1.42417445
v 1.42994970 76.18368415 1.16537199
v 1.63216559 76.18338365 0.84880343
v 1.84597038 76.19474972 0.22357179
v 1.85898725 76.19553069 -0.05890317
v 1.75155376 76.19448150 -0.61166816
v 1.57259708 76.18283647 -0.96138694
v 1.32429335 76.19552292 -1.30410082
v 0.97375708 76.19517448 -1.58047285
v 0.37458635 76.18152180 -1.80260845
v 0.00000000 -76.03157864 -1.72720000
v 0.23518704 -76.03157864 -1.71111277
v 0.46599298 -76.03157864 -1.66315074
v 0.68811836 -76.03157864 -1.58420736
v 0.89742540 -76.03157864 -1.47575320
v 1.09001510 -76.03157864 -1.33980854
v 1.41107040 -76.03157864 -0.99604225
v 1.53355535 -76.03157864 -0.79462433
v 1.62747306 -76.03157864 -0.57840407
v 1.69107404 -76.03157864 -0.35140923
v 1.72317350 -76.03157864 -0.11786830
v 1.72317350 -76.03157864 0.11786830
v 1.69107404 -76.03157864 0.35140923
v 1.62747306 -76.03157864 0.57840407
v 1.53355535 -76.03157864 0.79462433
v 1.41107040 -76.03157864 0.99604225
v 1.26229988 -76.03157864 1.17890579
v 1.09001510 -76.03157864 1.33980854
v 0.89742540 -76.03157864 1.47575320
v 0.68811836 -76.03157864 1.58420736
v 0.46599298 -76.03157864 1.66315074
v 0.23518704 -76.03157864 1.71111277
v 0.00255145 -76.07902719 -1.73753743
v 0.90145987 -76.07766585 -1.48421645
v 0.69096283 -76.07766584 -1.59314114
v 0.47075473 -76.07664953 -1.67075664
v 0.00260071 -76.07204462 1.73274375
v 0.24254451 -76.07768205 1.71956978
v 0.47443349 -76.07768205 1.67052714
v 0.69748468 -76.07768204 1.59036574
v 0.90555367 -76.07862480 1.48214827
v 1.09827832 -76.07649053 1.34460812
v 1.27185210 -76.07862479 1.18287073
v 1.41664253 -76.07664953 1.00307612
v 1.54232630 -76.07783048 0.79916908
v 1.63781412 -76.07862480 0.57823513
v 1.70039968 -76.07766583 0.35237657
v 1.73254401 -76.07766583 0.11755679
v 1.73241431 -76.07766583 -0.11945285
v 1.70001791 -76.07664951 -0.35068054
v 1.63806805 -76.07902718 -0.57946173
v 1.54139984 -76.07766583 -0.79975925
v 1.41814262 -76.07766585 -1.00219751
v 1.26812657 -76.07204461 -1.18078900
v 1.09851810 -76.07902717 -1.34621721
v 0.24254450 -76.07768205 -1.71956979
v -0.01080862 -76.19517448 -1.85633523
v 0.49071195 -76.19448150 -1.78921220
v 0.73041966 -76.18338364 -1.68846642
v 0.90755426 -76.19553068 -1.62346803
v 1.16312642 -76.19517448 -1.44680137
v 1.74553255 -76.19517448 -0.63183335
v 1.80064489 -76.18338365 -0.37697450
v 1.80175889 -76.18338365 0.37161361
v 1.72131560 -76.19105044 0.68728771
v 1.63196095 -76.18220588 0.84561400
v 1.51644132 -76.19142181 1.06081608
v 1.34453819 -76.18386125 1.25698754
v 0.72858474 -76.18329345 1.68917161
v 0.54993714 -76.19549438 1.77551786
v 0.24206299 -76.19517448 1.84051699
v 1.63489086 -76.19999495 0.96724635
v 1.83522463 -76.19999495 0.49028993
v 0.96511201 -76.19541957 1.58705910
v 1.21318375 -76.19476661 1.40611674
v 1.87019504 -76.19800944 0.20802687
v 1.84548071 -76.18805387 0.08101993
v 1.84693067 -76.19467326 -0.20024023
v 1.64323994 -76.19517448 -0.86363174
v 1.34228165 -76.18369746 -1.25860893
v 1.47945406 -76.19583951 -1.12787662
v 0.24171542 -76.19571284 -1.84141117
v 0.00000000 -61.20000000 1.72720000
v -0.23518704 -61.20000000 1.71111277
v -0.46599298 -61.20000000 1.66315074
v -0.68811836 -61.20000000 1.58420736
v -0.89742540 -61.20000000 1.47575320
v -1.09001510 -61.20000000 1.33980854
v -1.26229988 -61.20000000 1.17890579
v -1.41107040 -61.20000000 0.99604225
v -1.53355535 -61.20000000 0.79462433
v -1.62747306 -61.20000000 0.57840407
v -1.69107404 -61.20000000 0.35140923
v -1.72317350 -61.20000000 0.11786830
v -1.72317350 -61.20000000 -0.11786830
v -1.69107404 -61.20000000 -0.35140923
v -1.62747306 -61.20000000 -0.57840407
v -1.53355535 -61.20000000 -0.79462433
v -1.41107040 -61.20000000 -0.99604225
v -1.26229988 -61.20000000 -1.17890579
v -1.09001510 -61.20000000 -1.33980854
v -0.89742540 -61.20000000 -1.47575320
v -0.68811836 -61.20000000 -1.58420736
v -0.46599298 -61.20000000 -1.66315074
v -0.23518704 -61.20000000 -1.71111277
v 0.00000000 -61.20000000 -1.72720000
v 0.00038535 -60.28206200 -0.00051448
v -0.29802153 -60.89387722 1.11223150
v -0.21927253 -60.42960467 0.16924223
v -0.24826406 -60.42556425 -0.10434108
v -0.09753115 -60.33478061 0.00165132
v -0.29802153 -60.89387721 -1.11223149
v -0.17321929 -60.43383873 -0.22638694
v -0.23518704 -76.03157864 1.71111277
v -0.46599298 -76.03157864 1.66315074
v -0.68811836 -76.03157864 1.58420736
v -0.89742540 -76.03157864 1.47575320
v -1.09001510 -76.03157864 1.33980854
v -1.26229988 -76.03157864 1.17890579
v -1.53355535 -76.03157864 0.79462433
v -1.62747306 -76.03157864 0.57840407
v -1.69107404 -76.03157864 0.35140923
v -1.72317350 -76.03157864 0.11786830
v -1.72317350 -76.03157864 -0.11786830
v -1.69107404 -76.03157864 -0.35140923
v -1.62747306 -76.03157864 -0.57840407
v -1.53355535 -76.03157864 -0.79462433
v -1.41107040 -76.03157864 -0.99604225
v -1.26229988 -76.03157864 -1.17890579
v -1.09001510 -76.03157864 -1.33980854
v -0.89742540 -76.03157864 -1.47575320
v -0.68811836 -76.03157864 -1.58420736
v -0.46599298 -76.03157864 -1.66315074
v -0.23518704 -76.03157864 -1.71111277
v 0.00000000 61.20000000 1.72720000
v -0.23518704 61.20000000 1.71111277
v -0.46599298 61.20000000 1.66315074
v -0.68811836 61.20000000 1.58420736
v -0.89742540 61.20000000 1.47575320
v -1.09001510 61.20000000 1.33980854
v -1.26229988 61.20000000 1.17890579
v -1.41107040 61.20000000 0.99604225
v -1.53355535 61.20000000 0.79462433
v -1.62747306 61.20000000 0.57840407
v -1.69107404 61.20000000 0.35140923
v -1.72317350 61.20000000 0.11786830
v -1.72317350 61.20000000 -0.11786830
v -1.69107404 61.20000000 -0.35140923
v -1.62747306 61.20000000 -0.57840407
v -1.53355535 61.20000000 -0.79462433
v -1.41107040 61.20000000 -0.99604225
v -1.26229988 61.20000000 -1.17890579
v -1.09001510 61.20000000 -1.33980854
v -0.68811836 61.20000000 -1.58420736
v -0.46599298 61.20000000 -1.66315074
v -0.23518704 61.20000000 -1.71111277
v 0.00000000 61.20000000 -1.72720000
v -0.29802154 60.89387725 -1.11223157
v -0.99719953 60.89387725 -0.57573343
v -0.87841649 61.19817747 -1.48723950
v -0.81420985 60.89387713 -0.81420986
v -1.11223175 60.89387735 -0.29802158
v 0.00075412 60.28178386 0.00005884
v -1.11223165 60.89387730 0.29802157
v -0.99719961 60.89387730 0.57573348
v -0.81420989 60.89387716 0.81420989
v -0.57573333 60.89387716 0.99719938
v -0.29802150 60.89387716 1.11223139
v 0.00000000 76.07300000 -1.72720000
v 0.00000000 76.07300000 1.72720000
v -0.23518704 76.07300000 -1.71111277
v -0.46599298 76.07300000 -1.66315074
v -0.68811836 76.07300000 -1.58420736
v -0.89742540 76.07300000 -1.47575320
v -1.09001510 76.07300000 -1.33980854
v -1.26229988 76.07300000 -1.17890579
v -1.41107040 76.07300000 -0.99604225
v -1.53355535 76.07300000 -0.79462433
v -1.62747306 76.07300000 -0.57840407
v -1.69107404 76.07300000 -0.35140923
v -1.72317350 76.07300000 -0.11786830
v -1.72317350 76.07300000 0.11786830
v -1.69107404 76.07300000 0.35140923
v -1.62747306 76.07300000 0.57840407
v -1.53355535 76.07300000 0.79462433
v -1.41107040 76.07300000 0.99604225
v -1.26229988 76.07300000 1.17890579
v -1.09001510 76.07300000 1.33980854
v -0.89742540 76.07300000 1.47575320
v -0.68811836 76.07300000 1.58420736
v -0.46599298 76.07300000 1.66315074
v -0.23518704 76.07300000 1.71111277
v -0.26347889 76.19517448 -1.83757344
v -1.83551595 76.18369745 0.12921939
v -0.95528689 76.19517448 1.59170482
v -0.72858474 76.18329345 1.68917161
v -0.49178982 76.18329346 1.77264752
v 1.79210030 76.10462296 -3.10400878
v 1.38404862 76.16058590 -3.09484605
v 0.90067939 76.18841933 -3.09495387
v 0.88129630 76.19988044 -2.96798657
v 1.55318899 76.19934449 2.65656238
v 1.93956096 76.19932880 2.38572995
v 2.99610134 76.20016078 0.65779069
v -0.00000000 76.19934077 3.07782565
v 0.89813085 76.18988327 3.08561295
v 1.96620031 76.15604383 2.78609202
v 2.16854264 76.18562474 2.41901845
v 2.86330781 76.19866599 1.19945031
v 3.26346289 76.17981297 0.51968888
v 3.58420061 76.10462296 0.00000000
v 3.39586339 76.15298366 -0.35310433
v 3.17911089 76.18563232 -0.66865667
v 2.47033528 76.19866525 -1.88010100
v 0.87068730 76.19984831 2.96829324
v 1.41515035 76.16095304 3.08754038
v 1.68392000 76.18225487 2.82044072
v 2.36797128 76.19825981 2.06212202
v 2.75634485 76.19837563 1.42822278
v 3.07007818 76.19915547 0.21057314
v 3.26185986 76.18438112 0.11070456
v 3.41664704 76.15494098 -0.01399357
v 3.06839154 76.19964464 -0.22793951
v 3.23940138 76.18459075 -0.34390259
v 2.98549677 76.19912339 -0.86554591
v 2.72987888 76.19822558 -1.47368426
v 1.77178158 76.15595102 -2.91357068
v 2.08903202 76.19911107 -2.32050197
v 1.50287063 76.18540916 -2.88846953
v -0.95984187 -76.18329345 1.56934382
v -1.16459414 -76.18329346 1.42402843
v -1.34727536 -76.18369746 1.25326198
v -1.50443465 -76.18271825 1.05749772
v -1.65318527 -76.19517448 0.84443813
v -1.85091755 -76.19493865 0.12660622
v -1.63441819 -76.18271825 -0.84279431
v -1.50454233 -76.18338365 -1.05867092
v -1.34637329 -76.18338365 -1.25367889
v -0.95857621 -76.18271825 -1.56931726
v -0.73544175 -76.18338364 -1.68628502
v -0.49897603 -76.18338365 -1.77072151
v -0.25321532 -76.18338364 -1.82217280
v -0.23739851 -76.07766585 -1.72022391
v -0.90308367 -76.07766585 -1.48322899
v -1.28370557 -76.10228932 -1.19889731
v -1.70039968 -76.07766583 -0.35237658
v -1.75239454 -76.10228932 -0.11986707
v -1.71975075 -76.10228932 0.35736831
v -1.27354397 -76.08834234 1.19223687
v -0.89973392 -76.07664952 1.48442468
v -0.68989658 -76.07902717 1.59470546
v -0.46261391 -76.07768205 1.67383883
v -0.23917527 -76.10228932 1.74012929
v 0.91805307 -76.20012528 2.90279459
v 2.19998387 -76.19999799 2.12841242
v 2.95191029 -76.20024829 0.82392707
v 3.15371804 -76.19627701 -0.18713007
v 2.77745216 -76.19988305 -1.32789077
v 2.13730370 -76.19847433 -2.24703397
v 1.23731562 -76.20001046 -2.78548156
v -0.00086339 -76.19948236 -3.07584289
v 1.37363464 -76.15948276 -3.10773844
v 2.16854264 -76.18562474 -2.41901845
v 2.86330781 -76.19866599 -1.19945031
v 3.41441048 -76.14942848 0.32622581
v 3.19229766 -76.18501823 0.66571762
v 2.47033528 -76.19866525 1.88010100
v 1.79210030 -76.10462296 3.10400878
v 0.90162961 -76.18818433 3.09527813
v 1.34609813 -76.16794426 3.08713482
v 1.48675661 -76.18979617 2.85625107
v 2.07424200 -76.17656997 2.58900268
v 3.32799986 -76.17301102 0.18867142
v 3.28293512 -76.17515617 -0.49437840
v 3.14644765 -76.18988340 -0.65383934
v 1.67843464 -76.18641909 -2.79543254
v 1.86195462 -76.01039989 3.12500000
v 2.24915635 -76.08673330 2.45434693
v 2.94417472 -76.09876845 1.25053980
v 3.34886982 -76.08690036 0.54658145
v 3.63730670 -76.01039989 0.05000000
v 1.86195462 76.01039989 3.12500000
v 3.63730670 76.01039989 0.05000000
v 2.55501476 76.09876777 1.92458462
v 2.14966911 76.07649575 2.62666388
v 3.24043872 -76.10634592 -0.73066149
v 2.55501476 -76.09876777 -1.92458462
v 2.14966911 -76.07649575 -2.62666388
v 1.86195462 -76.01039989 -3.12500000
v 3.63730670 76.01039989 -0.05000000
v 1.86195462 76.01039989 -3.12500000
v 2.24915635 76.08673330 -2.45434693
v 2.94417472 76.09876845 -1.25053980
v 3.34955666 76.07649948 -0.54839768
v 1.00077452 -76.08674804 -3.17500000
v -0.38899082 -76.09876908 -3.17500000
v -1.77667773 -76.01034038 -3.17499827
v 1.77535208 76.01039989 -3.17500000
v -1.77535208 76.01039989 -3.17500000
v -1.00077452 76.08674804 -3.17500000
v 0.38899082 76.09876908 -3.17500000
v -2.94417472 -76.09876845 -1.25053980
v -3.34955666 -76.07649948 -0.54839768
v -3.63730670 -76.01039989 -0.05000000
v -1.86195462 76.01039989 -3.12500000
v -3.22997533 76.11911306 -0.74501731
v -2.55501476 76.09876777 -1.92458462
v -2.14966911 76.07649575 -2.62666388
v -3.63730670 -76.01039989 0.05000000
v -3.25002145 -76.08673995 0.72079772
v -2.55501476 -76.09876777 1.92458462
v -2.14966911 -76.07649575 2.62666388
v -1.86195462 -76.01039989 3.12500000
v -3.63730670 76.01039989 0.05000000
v -2.94417472 76.09876845 1.25053980
v -3.34955666 76.07649948 0.54839768
v -1.77535208 -76.01039989 3.17500000
v -1.00077452 -76.08674804 3.17500000
v 0.38899082 -76.09876908 3.17500000
v 1.77535208 -76.01039989 3.17500000
v -1.77667773 76.01034038 3.17499827
v 1.00077452 76.08674804 3.17500000
v -0.38899082 76.09876908 3.17500000
v -1.09786516 76.11894311 3.16826209
v -0.91800365 -76.20011358 -2.90304090
v -2.19998387 -76.19999799 -2.12841242
v -2.95218487 -76.20023399 -0.82372223
v -3.15682252 -76.19591833 0.19096539
v -2.12863619 -76.19986706 2.22626507
v -1.44083721 -76.19743516 2.80009060
v -0.00078269 -76.19950988 3.07559012
v -0.89813082 -76.18988329 3.08561290
v -2.16854264 -76.18562474 2.41901845
v -3.58420061 -76.10462296 -0.00000000
v -3.17745244 -76.18727557 -0.66095033
v -2.47033528 -76.19866525 -1.88010100
v -2.07443020 -76.17665228 -2.58886934
v -0.89812687 -76.18988340 -3.08561288
v -1.46053979 -76.18994293 -2.86661972
v -1.34794789 -76.16845806 -3.08598258
v -3.37663863 -76.16220939 -0.32343459
v -2.89278427 -76.19923803 1.13973685
v -2.12018701 -76.18914822 2.44034988
v -1.96953391 -76.16247215 2.76007753
v -0.26367798 -76.19856403 -1.85798140
v -1.06226380 -76.19826690 -1.54970795
v -1.31329946 -76.19999394 -1.37246092
v -0.51143252 -76.20000000 1.82532657
v -0.89813085 76.18988327 -3.08561295
v -1.82903964 76.09816248 -3.09873916
v -1.96620031 76.15604383 -2.78609202
v -2.16854264 76.18562474 -2.41901845
v -2.85638396 76.19915009 -1.20903896
v -3.26490944 76.17868495 -0.52175970
v -3.39586339 76.15298366 0.35310433
v -3.17911089 76.18563232 0.66865667
v -2.47033528 76.19866525 1.88010100
v -1.38404862 76.16058590 3.09484605
v -0.89916443 76.19379272 3.07176503
v -1.93956096 76.19932880 -2.38572995
v -3.11380472 76.19473599 -0.56602659
v -0.82476106 76.20014227 2.92457376
v -0.01269227 76.20026026 -3.07597907
v -1.53796464 76.19930967 -2.68623945
v -1.41515035 76.16095304 -3.08754038
v -1.68392000 76.18225487 -2.82044072
v -2.35752898 76.19767102 -2.08085941
v -2.75634485 76.19837563 -1.42822278
v -3.41664704 76.15494098 0.01399357
v -3.18456412 76.19497490 -0.25077180
v -3.07526367 76.19939896 0.22707973
v -3.26073762 76.18516000 0.08346031
v -2.97070981 76.19930647 0.89940809
v -2.72987888 76.19822558 1.47368426
v -2.31922302 76.19944761 2.04521230
v -1.77178158 76.15595102 2.91357068
v -1.57192738 76.19937860 2.67694774
v -1.50287063 76.18540916 2.88846953
v 0.23518704 76.07300000 1.71111277
v 0.46599298 76.07300000 1.66315074
v 0.68811836 76.07300000 1.58420736
v 0.89742540 76.07300000 1.47575320
v 1.09001510 76.07300000 1.33980854
v 1.26229988 76.07300000 1.17890579
v 1.41107040 76.07300000 0.99604225
v 1.53355535 76.07300000 0.79462433
v 1.62747306 76.07300000 0.57840407
v 1.69107404 76.07300000 0.35140923
v 1.72317350 76.07300000 0.11786830
v 1.72317350 76.07300000 -0.11786830
v 1.69107404 76.07300000 -0.35140923
v 1.62747306 76.07300000 -0.57840407
v 1.53355535 76.07300000 -0.79462433
v 1.41107040 76.07300000 -0.99604225
v 1.26229988 76.07300000 -1.17890579
v 1.09001510 76.07300000 -1.33980854
v 0.89742540 76.07300000 -1.47575320
v 0.68811836 76.07300000 -1.58420736
v 0.46599298 76.07300000 -1.66315074
v 0.23518704 76.07300000 -1.71111277
v -0.65778585 76.19999495 1.78206380
v -1.27964390 76.19999495 1.40390354
v -0.63734705 76.19819770 -1.76753966
v 0.23518704 61.20000000 -1.71111277
v 0.46599298 61.20000000 -1.66315074
v 0.68811836 61.20000000 -1.58420736
v 0.89742540 61.20000000 -1.47575320
v 1.09001510 61.20000000 -1.33980854
v 1.26229988 61.20000000 -1.17890579
v 1.41107040 61.20000000 -0.99604225
v 1.53355535 61.20000000 -0.79462433
v 1.62747306 61.20000000 -0.57840407
v 1.69107404 61.20000000 -0.35140923
v 1.72317350 61.20000000 -0.11786830
v 1.72317350 61.20000000 0.11786830
v 1.69107404 61.20000000 0.35140923
v 1.62747306 61.20000000 0.57840407
v 1.53355535 61.20000000 0.79462433
v 1.41107040 61.20000000 0.99604225
v 1.26229988 61.20000000 1.17890579
v 1.09001510 61.20000000 1.33980854
v 0.89742540 61.20000000 1.47575320
v 0.68811836 61.20000000 1.58420736
v 0.46599298 61.20000000 1.66315074
v 0.23518704 61.20000000 1.71111277
v 0.29802154 60.89387725 1.11223157
v 0.99719953 60.89387725 0.57573343
v 0.57573349 60.89387730 0.99719961
v 0.81420985 60.89387713 0.81420986
v 1.11223175 60.89387735 0.29802158
v 1.15146666 60.89387716 0.00000000
v 0.81420992 60.89387719 -0.81420993
v 1.11223165 60.89387730 -0.29802157
v 0.99719961 60.89387730 -0.57573348
v 0.57573347 60.89387730 -0.99719960
v 0.29802154 60.89387725 -1.11223156
v 0.23518704 -61.20000000 -1.71111277
v 0.46599298 -61.20000000 -1.66315074
v 0.68811836 -61.20000000 -1.58420736
v 0.89742540 -61.20000000 -1.47575320
v 1.09001510 -61.20000000 -1.33980854
v 1.26229988 -61.20000000 -1.17890579
v 1.41107040 -61.20000000 -0.99604225
v 1.53355535 -61.20000000 -0.79462433
v 1.62747306 -61.20000000 -0.57840407
v 1.69107404 -61.20000000 -0.35140923
v 1.72317350 -61.20000000 -0.11786830
v 1.72317350 -61.20000000 0.11786830
v 1.69107404 -61.20000000 0.35140923
v 1.62747306 -61.20000000 0.57840407
v 1.53355535 -61.20000000 0.79462433
v 1.41107040 -61.20000000 0.99604225
v 1.26229988 -61.20000000 1.17890579
v 1.09001510 -61.20000000 1.33980854
v 0.89742540 -61.20000000 1.47575320
v 0.68811836 -61.20000000 1.58420736
v 0.46599298 -61.20000000 1.66315074
v 0.23518704 -61.20000000 1.71111277
v 0.57573348 -60.89387731 -0.99719962
v 0.81420984 -60.89387713 -0.81420986
v 0.29802153 -60.89387722 -1.11223150
v 0.99719953 -60.89387725 -0.57573343
v 1.11223174 -60.89387735 -0.29802158
v 1.15146667 -60.89387716 -0.00000000
v 0.05963493 -60.31993928 0.04051013
v 0.99719938 -60.89387716 0.57573333
v 0.29802153 -60.89387721 1.11223149
v 0.81420989 -60.89387716 0.81420989
v 0.57573348 -60.89387730 0.99719960
v -0.61622856 -76.19850791 -1.77653075
v -1.20198927 -76.18928587 -1.40518391
v -1.53785385 -76.19856403 -1.07546571
v -1.71896128 -76.19850791 -0.76221471
v -1.73503713 -76.18369746 -0.61275007
v -1.80175889 -76.18338365 -0.37161361
v -1.86086060 -76.19850791 -0.27017952
v -1.83557858 -76.18338364 -0.12281293
v -1.81862010 -76.19541957 0.37791360
v -1.73306336 -76.18328273 0.61593086
v -1.76896794 -76.19862323 0.62869136
v -1.46777844 -76.19863864 1.17605616
v -1.09600529 -76.19850791 1.52793048
v -0.74947976 -76.19517448 1.69834548
v -0.50496553 -76.19074761 1.77944625
v -0.25399923 -76.18271824 1.82129333
v -0.09049857 -76.19557626 1.85929249
v -0.46942450 -76.07766585 -1.67187589
v -0.69270599 -76.07766584 -1.59238398
v -1.09663863 -76.07766584 -1.34644422
v -1.26874400 -76.06882280 -1.18154190
v -1.41923861 -76.07766585 -1.00064485
v -1.54227418 -76.07766583 -0.79807185
v -1.63658014 -76.07766584 -0.58063224
v -1.72983589 -76.06882277 -0.11584634
v -1.73138358 -76.07548098 0.11842988
v -1.69807414 -76.07140162 0.35494377
v -1.63476270 -76.07649053 0.58458289
v -1.53906019 -76.07768203 0.80438907
v -1.41409970 -76.07204462 1.00136391
v -1.26479014 -76.05746055 1.18123153
v -1.09117391 -76.07768204 1.35095801
v -0.23608747 -76.07026608 1.71766399
v -0.50084443 76.18329346 -1.77011054
v -0.73720955 76.18329345 -1.68542533
v -0.95626301 76.18288642 -1.57059787
v -1.06127276 76.19825831 -1.55323864
v -1.16230268 76.18386125 -1.42718363
v -1.34765223 76.18329346 -1.25218607
v -1.44097667 76.19825831 -1.20931236
v -1.50560610 76.18329346 -1.05701786
v -1.63551339 76.18329346 -0.84215940
v -1.71373354 76.19806321 -0.77418831
v -1.73495415 76.18329346 -0.61161310
v -1.80207601 76.18329346 -0.36967360
v -1.85953773 76.19825831 -0.28455158
v -1.83562858 76.18329345 -0.12084780
v -1.86735212 76.19825831 0.22769765
v -1.79971397 76.18271826 0.37769656
v -1.73180518 76.18329346 0.62047346
v -1.73667354 76.19825831 0.72305956
v -1.63118726 76.18329346 0.85050845
v -1.50018341 76.18329346 1.06470006
v -1.47719384 76.19825831 1.16479549
v -1.34123398 76.18329346 1.25905834
v -1.16049782 76.19072733 1.44037410
v -0.60596744 76.19654722 1.77285448
v -0.24171542 76.19571284 1.84141117
v -1.80955409 76.01039989 -3.16896926
v -1.83963084 76.01039989 -3.15160444
v -1.84246328 76.04041904 -3.14498738
v -1.80649558 76.04389449 -3.16495126
v -1.81447099 76.07903868 -3.13943405
v -2.04589893 76.14031720 -2.74111824
v -2.06028510 76.11061781 -2.76405410
v -2.20300931 76.16850210 -2.44966104
v -2.12853301 76.14319801 -2.61268141
v -2.27367575 76.18157882 -2.29966079
v -2.72589824 76.16908422 -1.57201315
v -2.27256416 76.12603526 -2.40209586
v -2.79552261 76.19135971 -1.38630900
v -2.99476118 76.13369489 -1.14973895
v -2.94122830 76.18118414 -1.16579238
v -3.16257993 76.16110127 -0.81977684
v -3.17761015 76.17798729 -0.73620089
v -3.27745966 76.11849028 -0.66280940
v -3.22952621 76.15309938 -0.70649975
v -3.41398269 76.14918052 -0.33145563
v -3.51583776 76.10337180 -0.22378818
v -3.30419074 76.15330957 -0.56240607
v -3.37959533 76.13358816 -0.45007956
v -3.58022325 76.09424312 -0.08614541
v -2.24867474 76.16553789 -2.38620789
v 1.80982210 76.04338063 -3.16425740
v -1.50857878 76.13355920 -3.13069949
v -1.29108232 76.10329908 -3.16938736
v -1.25937971 76.15346737 -3.13528728
v -1.04554929 76.17366705 -3.12114480
v -1.09613515 76.11636715 -3.16909173
v -0.75159424 76.12933442 -3.16864687
v -0.21921509 76.16942705 -3.14919043
v -0.79153228 76.18417969 -3.12146506
v -0.05590547 76.13560801 -3.16820825
v 0.31920491 76.18553422 -3.12567120
v 0.09735372 76.19149867 -3.11392375
v 0.77054619 76.18413839 -3.11800391
v 0.92208533 76.12418436 -3.16884632
v 0.42295197 76.16260049 -3.15263416
v 1.05053461 76.15055290 -3.15024178
v 1.19672525 76.08921039 -3.17299822
v 1.22935362 76.15968944 -3.12953261
v 1.39155503 76.09423322 -3.16954298
v 1.55372920 76.12210703 -3.14084121
v 1.68063481 76.05757764 -3.17003585
v -1.39639263 76.12608891 -3.15254972
v 0.30122233 76.13755008 -3.16784371
v 0.84657291 76.15910419 -3.14909103
v -0.91885052 76.13906747 -3.16225710
v -0.02964209 76.18147082 -3.13049866
v 1.83963084 76.01039989 -3.15160444
v 1.80955409 76.01039989 -3.16896926
v 1.81266343 -76.01039989 -3.16777857
v 1.84089721 -76.01039989 -3.15052374
v 1.68009094 -76.05767790 -3.17003536
v 1.57397238 -76.11161016 -3.14753551
v 1.29108232 -76.10329908 -3.16938736
v 1.25937971 -76.15346737 -3.13528728
v 1.04279801 -76.17127769 -3.12632575
v 1.09613515 -76.11636715 -3.16909173
v 0.25071076 -76.19120843 -3.11432522
v 0.87009928 -76.18823032 -3.10142860
v 0.05590547 -76.13560801 -3.16820825
v -0.26405157 -76.19374970 -3.11266314
v -0.64314354 -76.16447885 -3.14813239
v -0.32013206 -76.15144465 -3.15974590
v -0.51596012 -76.13352723 -3.16842135
v -0.92208533 -76.12418436 -3.16884632
v -1.01565675 -76.16622664 -3.13779619
v -1.19672525 -76.08921038 -3.17299822
v -1.21737329 -76.16307288 -3.12339531
v -1.29268511 -76.13422614 -3.15179555
v -1.39155503 -76.09423322 -3.16954298
v -1.55233909 -76.12277367 -3.13990638
v -1.80196732 -76.04193605 -3.16755494
v 1.37585047 -76.12933615 -3.15063275
v 0.85082206 -76.14355531 -3.16057703
v -0.01295821 -76.17308080 -3.14218881
v 0.71079830 -76.16454210 -3.14945525
v -1.99396400 -76.14915289 -2.79100932
v -2.23317834 -76.11675233 -2.47245078
v -2.22631059 -76.17798155 -2.38390233
v -2.43545342 -76.18858850 -2.01790160
v -2.29116501 -76.16109712 -2.32911180
v -2.49301102 -76.13369442 -2.01879528
v -2.26917968 -76.12329303 -2.40761721
v -2.94995512 -76.18933130 -1.12192375
v -2.54296895 -76.17676792 -1.87036435
v -3.01590571 -76.13317965 -1.11318678
v -3.16461435 -76.15923740 -0.81950396
v -3.17921387 -76.17854116 -0.73230830
v -3.21935732 -76.12312566 -0.76167551
v -3.23792300 -76.17301066 -0.63564964
v -3.39329422 -76.14984433 -0.37381545
v -3.36126787 -76.13525353 -0.48666110
v -3.41082273 -76.10048954 -0.43274581
v -3.51219832 -76.11736449 -0.19969101
v -3.64297162 -76.03929512 -0.02906050
v -1.86468423 -76.09423126 -3.05754758
v -1.95164979 -76.10334498 -2.93304344
v -2.12826949 -76.14554130 -2.61002043
v -2.22688460 -76.15293024 -2.44284671
v -2.91492423 -76.16330936 -1.25543203
v -3.23309994 -76.15166471 -0.70332125
v -3.46116964 -76.11751157 -0.31100848
v -3.64918493 -76.01039989 0.01736482
v -3.64918493 -76.01039989 -0.01736482
v -3.64467342 76.01039989 0.03420201
v 1.81010129 76.08111573 -3.13848692
v 1.84483689 76.04299269 -3.14077215
v 1.83242335 -76.04359142 -3.15367351
v -3.63918754 -76.05009398 0.02719441
v -3.62708544 -76.07791104 -0.00455165
v -1.99294893 76.15040125 2.78803218
v -1.95432209 76.10291586 2.93044627
v -2.22631059 76.17798155 2.38390233
v -2.11170316 76.17575708 2.55841068
v -2.29116501 76.16109712 2.32911180
v -2.49301102 76.13369442 2.01879528
v -2.26917968 76.12329303 2.40761721
v -2.88643151 76.16155117 1.30874255
v -2.94995512 76.18933130 1.12192375
v -2.54296895 76.17676792 1.87036435
v -3.00671641 76.13569225 1.12939778
v -3.23023625 76.16923926 0.66296047
v -3.31765734 76.14728835 0.55176560
v -3.41082273 76.10048954 0.43274581
v -3.51219832 76.11736449 0.19969101
v -3.64404326 76.03595776 0.02985641
v -1.86468423 76.09423126 3.05754758
v -2.13616333 76.13452589 2.61493212
v -2.24007548 76.10765104 2.46314710
v -2.22218548 76.15485459 2.44891459
v -2.43545342 76.18858850 2.01790160
v -3.11112819 76.16341251 0.90956670
v -3.46116964 76.11751157 0.31100848
v -3.18036776 76.17776343 0.73154758
v -3.27034676 76.11864853 0.67363474
v 2.00445790 76.15047271 -2.77632475
v 2.12074235 76.10658015 -2.66540274
v 1.95350633 76.10382266 -2.93013177
v 2.22631059 76.17798155 -2.38390233
v 2.08944197 76.17530147 -2.58301761
v 2.31932665 76.12661523 -2.32032701
v 2.28154981 76.16016410 -2.34494186
v 2.72428033 76.16908422 -1.57481542
v 2.46457167 76.19074468 -1.95943115
v 2.84068783 76.13548803 -1.41625982
v 2.94995512 76.18933130 -1.12192375
v 3.05138946 76.15113271 -1.03642086
v 3.12831740 76.18158416 -0.81937455
v 3.21935732 76.12312566 -0.76167551
v 3.23792300 76.17301066 -0.63564964
v 3.36126787 76.13525353 -0.48666110
v 3.41082273 76.10048954 -0.43274581
v 3.51219832 76.11736449 -0.19969101
v 3.64297162 76.03929512 -0.02906050
v 1.86468423 76.09423126 -3.05754758
v 2.12838413 76.14182966 -2.61554383
v 2.22928965 76.14556683 -2.45081810
v 2.89977367 76.16823548 -1.27172942
v 3.23167338 76.15180059 -0.70586592
v 3.46116964 76.11751157 -0.31100848
v 2.26885579 76.12307873 -2.40800254
v 3.64918493 76.01039989 0.01736482
v 3.64918493 76.01039989 -0.01736482
v 3.64467342 -76.01039989 0.03420201
v 1.92485430 -76.08551118 -2.98788715
v 1.91385137 -76.11933928 -2.95426939
v 2.00947893 -76.15309678 -2.76072258
v 2.26924435 -76.12312413 -2.40731681
v 2.44651786 -76.18932977 -1.99390463
v 2.89119385 -76.17676917 -1.26721990
v 2.99476118 -76.13369489 -1.14973895
v 2.96520633 -76.18858993 -1.10034132
v 3.26948456 -76.17189816 -0.57517370
v 3.27745966 -76.11849028 -0.66280940
v 3.41398269 -76.14918052 -0.33145563
v 3.51583776 -76.10337180 -0.22378818
v 2.10528509 -76.12911300 -2.67180993
v 2.21814489 -76.15660397 -2.45271958
v 2.29194656 -76.15923305 -2.33100959
v 2.48045784 -76.13622312 -2.03933939
v 2.55674313 -76.16319687 -1.87593027
v 3.19609415 -76.15960345 -0.75844565
v 3.34676589 -76.13630182 -0.50992031
v 3.58022325 -76.09424312 -0.08614541
v 2.22372394 -76.17853476 -2.38726668
v -3.41398269 -76.14918052 0.33145563
v -1.84585087 -76.03719644 3.14283336
v -1.92898074 -76.11733916 2.94191245
v -2.02033994 -76.14982824 2.75184077
v -2.10916937 -76.13506412 2.65715209
v -2.20300931 -76.16850210 2.44966104
v -2.26924435 -76.12312413 2.40731681
v -2.27824326 -76.15843661 2.35195956
v -2.62031931 -76.19144017 1.68953554
v -3.19800914 -76.14489093 0.78124072
v -3.17761015 -76.17798729 0.73620089
v -2.97129692 -76.18876980 1.08557437
v -3.28233276 -76.17476952 0.51528830
v -3.33348736 -76.13384403 0.54596729
v -3.56374701 -76.06426471 0.16733039
v -1.82240310 -76.09259982 3.11281893
v -2.01939962 -76.10685429 2.82833841
v -2.55846293 -76.16240067 1.87468325
v -2.89215147 -76.17052008 1.28230877
v -3.37959533 -76.13358816 0.45007956
v -3.50423017 -76.11076031 0.23345776
v -3.58022325 -76.09424312 0.08614541
v -2.22409856 -76.17908922 2.38590088
v -2.62069705 -76.13919908 1.79794613
v -2.72534466 -76.16908522 1.57297001
v -2.61277982 -76.17575329 1.75350825
v -2.82632735 -76.14337850 1.43555663
v -2.79524404 -76.19136120 1.38678699
v -1.80955409 -76.01039989 3.16896926
v -1.83963084 -76.01039989 3.15160444
v 3.63918754 76.05009398 0.02719441
v 3.62708544 76.07791104 -0.00455165
v 3.64487735 -76.03760149 0.02493491
v -1.81083114 -76.07682097 3.14311137
v -1.80706656 -76.04481307 3.16442522
v 1.55832276 76.12105239 3.14104038
v 1.29108232 76.10329908 3.16938736
v 1.25937971 76.15346737 3.13528728
v 1.04554929 76.17366705 3.12114480
v 1.09613515 76.11636715 3.16909173
v 0.75159424 76.12933442 3.16864687
v 0.68565628 76.17844738 3.13150583
v 0.05590547 76.13560801 3.16820825
v -0.09735372 76.19149867 3.11392375
v -0.48833408 76.13398365 3.16844043
v -0.77054619 76.18413839 3.11800391
v -1.09594618 76.17092998 3.12177860
v -1.29268511 76.13422614 3.15179555
v -1.39155503 76.09423322 3.16954298
v -1.55233909 76.12277367 3.13990638
v -1.80196732 76.04193605 3.16755494
v 1.78704989 76.08384850 3.14240723
v 1.37585047 76.12933615 3.15063275
v 0.82500554 76.17273216 3.13472529
v 0.18658533 76.18492002 3.12895705
v -0.02234345 76.16940196 3.14680096
v -0.93866950 76.16289633 3.14415319
v 3.41398269 76.14918052 0.33145563
v 1.84409291 76.04658098 3.14004733
v 2.06198465 76.10995596 2.76101448
v 2.04589893 76.14031720 2.74111824
v 2.20300931 76.16850210 2.44966104
v 2.12853301 76.14319801 2.61268141
v 2.26924435 76.12312413 2.40731681
v 2.29194656 76.15923305 2.33100959
v 2.44651786 76.18932977 1.99390463
v 2.22372394 76.17853476 2.38726668
v 2.90936404 76.17592219 1.23808489
v 2.99476118 76.13369489 1.14973895
v 2.97129692 76.18876980 1.08557437
v 3.16257993 76.16110127 0.81977684
v 3.17761015 76.17798729 0.73620089
v 3.36857317 76.10660310 0.50409630
v 3.25345278 76.10844297 0.70760493
v 3.51583776 76.10337180 0.22378818
v 1.81986136 76.07989032 3.13303604
v 2.48045784 76.13622312 2.03933939
v 2.55674313 76.16319687 1.87593027
v 3.23598064 76.15687590 0.69115847
v 3.37959533 76.13358816 0.45007956
v 3.58022325 76.09424312 0.08614541
v 3.21956968 76.12329835 0.76149382
v 1.99396400 -76.14915289 2.79100932
v 2.21585304 -76.11798497 2.50199416
v 1.95164979 -76.10334498 2.93304344
v 2.49301102 -76.13369442 2.01879528
v 2.30112463 -76.14291264 2.33749386
v 2.91492423 -76.16330936 1.25543203
v 2.94995512 -76.18933130 1.12192375
v 2.54296895 -76.17676792 1.87036435
v 3.01590571 -76.13317965 1.11318678
v 3.16461435 -76.15923740 0.81950396
v 3.19727619 -76.17132880 0.72018025
v 3.21935732 -76.12312566 0.76167551
v 3.29268383 -76.16232263 0.55847414
v 3.38736515 -76.13225969 0.43680981
v 3.52954824 -76.10398564 0.18950092
v 3.59125067 -76.05579495 0.11988167
v 1.84694736 -76.08908106 3.09097741
v 2.13631880 -76.14972073 2.59041393
v 2.21716801 -76.15965768 2.44772279
v 2.43543867 -76.18859753 2.01790817
v -1.48575723 -76.08422176 3.16970447
v -1.04554929 -76.17366705 3.12114480
v -1.35511562 -76.16151543 3.10533345
v -1.13891401 -76.13319749 3.16091473
v -0.75159424 -76.12933442 3.16864687
v -0.21921509 -76.16942705 3.14919043
v -0.79153228 -76.18417969 3.12146506
v -0.05590547 -76.13560801 3.16820825
v 0.25950361 -76.19341751 3.11204957
v 0.32046209 -76.14931149 3.16133141
v 0.77054619 -76.18413839 3.11800391
v 0.92208533 -76.12418436 3.16884632
v 0.42295197 -76.16260049 3.15263416
v 1.05053461 -76.15055290 3.15024178
v 1.19672525 -76.08921039 3.17299822
v 1.21737329 -76.16307288 3.12339531
v 1.29268511 -76.13422614 3.15179555
v 1.39155503 -76.09423322 3.16954298
v 1.55233909 -76.12277367 3.13990638
v 1.80119762 -76.03822040 3.16888905
v -1.40564366 -76.12843096 3.14889600
v 0.84657291 -76.15910419 3.14909103
v 1.78388573 -76.08411809 3.14297142
v -0.91885052 -76.13906747 3.16225710
v -0.03074313 -76.18042424 3.12998269
v 1.84089721 76.01039989 3.15052374
v 1.81266343 76.01039989 3.16777857
v 1.81648473 76.03882609 3.16244116
v 1.80955409 -76.01039989 3.16896926
v 1.83963084 -76.01039989 3.15160444
v 1.84483689 -76.04299269 3.14077215
v 1.81860361 -76.06041477 3.15104389
f 2 4 3
f 1 4 2
f 8 6 7
f 18 12 13
f 18 13 14
f 819 14 15
f 819 18 14
f 819 17 18
f 20 22 19
f 21 22 20
f 27 25 26
f 37 31 32
f 37 32 33
f 655 33 34
f 655 37 33
f 655 36 37
f 51 45 44
f 51 50 45
f 52 51 44
f 52 44 43
f 53 52 43
f 54 53 43
f 54 43 42
f 55 42 41
f 55 54 42
f 46 55 41
f 56 46 41
f 59 58 40
f 60 59 40
f 61 48 60
f 62 49 39
f 62 39 38
f 90 89 84
f 91 84 83
f 91 90 84
f 92 83 82
f 92 91 83
f 93 82 81
f 93 92 82
f 94 81 80
f 94 93 81
f 95 80 79
f 95 94 80
f 96 78 77
f 96 79 78
f 96 95 79
f 97 96 77
f 98 77 76
f 98 97 77
f 99 76 75
f 99 98 76
f 100 75 74
f 100 99 75
f 101 74 73
f 101 100 74
f 102 72 71
f 102 73 72
f 102 101 73
f 103 102 71
f 104 71 70
f 104 103 71
f 105 70 69
f 105 104 70
f 106 105 69
f 107 106 68
f 86 68 67
f 86 107 68
f 87 86 67
f 87 67 66
f 88 65 64
f 88 66 65
f 88 87 66
f 108 64 63
f 108 63 85
f 108 88 64
f 126 122 121
f 119 124 127
f 119 127 120
f 117 119 118
f 117 124 119
f 117 125 124
f 128 117 116
f 128 125 117
f 128 116 129
f 130 128 129
f 114 130 115
f 113 133 132
f 110 112 111
f 160 135 136
f 160 136 137
f 160 137 138
f 160 159 135
f 159 138 139
f 159 139 140
f 159 160 138
f 163 159 161
f 161 140 141
f 161 141 142
f 161 159 140
f 161 142 143
f 161 143 144
f 162 159 163
f 163 144 145
f 163 145 146
f 163 161 144
f 163 146 147
f 165 159 162
f 162 147 148
f 162 148 149
f 162 163 147
f 162 149 150
f 162 150 151
f 164 159 165
f 165 151 152
f 165 152 153
f 165 162 151
f 165 153 154
f 165 154 155
f 164 155 156
f 164 156 157
f 164 157 158
f 164 158 159
f 164 165 155
f 166 135 89
f 166 136 135
f 166 137 136
f 167 138 137
f 167 137 166
f 168 139 138
f 168 138 167
f 169 140 139
f 169 139 168
f 170 141 140
f 170 140 169
f 171 142 141
f 171 141 170
f 551 142 171
f 172 143 142
f 172 142 551
f 173 144 143
f 173 143 172
f 174 145 144
f 174 144 173
f 175 146 145
f 175 145 174
f 176 146 175
f 176 147 146
f 177 147 176
f 177 148 147
f 178 148 177
f 178 149 148
f 179 149 178
f 179 150 149
f 180 150 179
f 180 151 150
f 181 151 180
f 181 152 151
f 182 152 181
f 182 153 152
f 183 153 182
f 183 154 153
f 184 154 183
f 184 155 154
f 185 155 184
f 185 156 155
f 186 156 185
f 186 157 156
f 63 157 186
f 63 158 157
f 210 215 209
f 210 207 206
f 210 208 207
f 210 209 208
f 211 215 213
f 212 215 210
f 212 210 206
f 214 215 211
f 213 204 203
f 213 205 204
f 213 212 205
f 213 215 212
f 211 202 201
f 211 203 202
f 211 213 203
f 214 200 199
f 214 201 200
f 214 211 201
f 217 215 216
f 215 199 198
f 215 214 199
f 216 197 196
f 216 198 197
f 216 215 198
f 217 195 194
f 217 196 195
f 217 216 196
f 218 193 192
f 218 194 193
f 218 217 194
f 218 215 217
f 219 191 190
f 219 192 191
f 219 215 218
f 219 218 192
f 220 188 187
f 220 189 188
f 220 190 189
f 220 215 219
f 220 219 190
f 220 187 215
f 187 244 222
f 188 243 244
f 188 244 187
f 189 242 243
f 189 243 188
f 190 241 242
f 190 242 189
f 191 240 241
f 191 241 190
f 192 239 240
f 192 240 191
f 193 238 239
f 193 239 192
f 194 237 238
f 194 238 193
f 195 236 237
f 195 237 194
f 196 235 236
f 196 236 195
f 197 234 235
f 197 235 196
f 198 233 234
f 198 234 197
f 199 233 198
f 199 232 233
f 200 232 199
f 200 231 232
f 201 231 200
f 201 230 231
f 202 230 201
f 202 229 230
f 203 229 202
f 204 229 203
f 204 227 228
f 204 228 229
f 205 227 204
f 205 226 227
f 212 226 205
f 206 224 225
f 206 225 226
f 206 226 212
f 207 223 224
f 207 224 206
f 208 223 207
f 209 221 223
f 209 223 208
f 245 221 38
f 245 223 221
f 555 224 223
f 555 223 245
f 556 225 224
f 556 224 555
f 557 226 225
f 557 225 556
f 227 226 557
f 559 227 557
f 560 228 227
f 560 227 559
f 562 229 228
f 562 228 560
f 563 230 229
f 563 229 562
f 565 231 230
f 565 230 563
f 566 232 231
f 566 231 565
f 568 233 232
f 568 232 566
f 246 234 233
f 246 233 568
f 570 234 246
f 570 235 234
f 571 235 570
f 571 236 235
f 573 236 571
f 573 237 236
f 574 237 573
f 574 238 237
f 576 238 574
f 576 239 238
f 577 239 576
f 577 240 239
f 247 240 577
f 247 241 240
f 248 241 247
f 248 242 241
f 249 242 248
f 249 243 242
f 579 243 249
f 579 244 243
f 50 244 579
f 50 222 244
f 258 267 257
f 270 255 260
f 415 253 252
f 269 258 268
f 267 258 269
f 268 5 259
f 254 267 269
f 269 268 259
f 269 255 254
f 269 259 260
f 255 269 260
f 271 260 261
f 271 270 260
f 271 261 256
f 271 256 270
f 262 256 261
f 262 272 256
f 273 262 263
f 274 273 263
f 272 262 273
f 273 275 272
f 274 263 264
f 276 274 264
f 276 273 274
f 275 273 276
f 276 264 265
f 277 275 276
f 277 276 265
f 278 280 277
f 278 277 265
f 278 266 280
f 278 265 266
f 280 266 723
f 279 250 251
f 279 723 250
f 281 279 251
f 281 723 279
f 280 723 281
f 281 251 252
f 253 280 281
f 253 281 252
f 537 89 538
f 537 305 89
f 536 304 305
f 536 305 537
f 535 303 304
f 535 304 536
f 282 302 303
f 282 303 535
f 283 553 302
f 283 302 282
f 284 301 553
f 284 553 283
f 285 551 301
f 285 301 284
f 286 550 551
f 286 551 285
f 531 549 550
f 531 550 286
f 300 549 531
f 530 300 531
f 287 547 300
f 287 300 530
f 299 547 287
f 529 299 287
f 298 299 529
f 527 298 529
f 545 298 527
f 526 545 527
f 544 545 526
f 288 544 526
f 543 544 288
f 289 543 288
f 297 543 289
f 290 297 289
f 541 297 290
f 523 541 290
f 296 541 523
f 291 296 523
f 540 296 291
f 292 540 291
f 539 540 292
f 293 539 292
f 295 539 293
f 294 295 293
f 85 295 294
f 109 85 294
f 321 383 306
f 319 324 307
f 308 319 307
f 318 319 308
f 315 316 310
f 315 310 311
f 323 321 306
f 322 321 323
f 323 306 307
f 322 324 320
f 324 323 307
f 324 322 323
f 325 317 318
f 309 318 308
f 325 10 317
f 325 318 309
f 326 325 309
f 326 10 325
f 327 309 310
f 327 316 326
f 327 326 309
f 327 310 316
f 328 311 312
f 328 315 311
f 328 750 315
f 328 314 23
f 328 23 750
f 314 328 642
f 642 328 312
f 642 312 313
f 331 332 333
f 329 330 331
f 329 331 333
f 336 335 842
f 334 336 337
f 334 333 335
f 334 329 333
f 334 335 336
f 339 340 341
f 6 338 339
f 6 339 341
f 345 343 344
f 342 345 346
f 342 341 343
f 342 6 341
f 342 343 345
f 348 650 349
f 19 347 348
f 19 348 349
f 351 19 349
f 353 351 352
f 350 353 621
f 350 351 353
f 350 19 351
f 354 355 356
f 31 661 354
f 31 354 356
f 359 25 358
f 357 359 360
f 357 356 25
f 357 31 356
f 357 25 359
f 363 364 365
f 361 362 363
f 361 363 365
f 367 12 712
f 366 367 368
f 366 365 12
f 366 361 365
f 366 12 367
f 371 885 372
f 369 370 371
f 369 371 372
f 3 369 372
f 375 3 374
f 373 375 376
f 373 3 375
f 373 369 3
f 390 313 377
f 388 389 378
f 379 388 378
f 387 388 379
f 385 394 381
f 391 390 377
f 392 390 391
f 391 377 378
f 392 389 35
f 389 392 391
f 389 391 378
f 380 387 379
f 393 387 380
f 781 393 380
f 781 386 393
f 394 781 380
f 395 385 381
f 396 385 395
f 382 395 381
f 396 873 784
f 396 395 382
f 873 396 382
f 873 382 384
f 384 382 383
f 108 85 109
f 134 108 109
f 88 108 134
f 110 88 134
f 87 88 110
f 111 87 110
f 86 87 111
f 112 86 111
f 107 86 112
f 113 107 112
f 106 107 113
f 132 106 113
f 105 106 132
f 133 105 132
f 104 105 133
f 131 104 133
f 103 104 131
f 114 103 131
f 102 103 114
f 115 102 114
f 101 102 115
f 130 101 115
f 100 101 130
f 129 100 130
f 99 100 129
f 116 99 129
f 98 99 116
f 117 98 116
f 118 98 117
f 118 97 98
f 96 97 118
f 119 96 118
f 95 96 119
f 120 95 119
f 127 95 120
f 127 94 95
f 93 94 127
f 126 93 127
f 121 92 93
f 121 93 126
f 122 91 92
f 122 92 121
f 123 90 91
f 123 91 122
f 538 89 90
f 538 90 123
f 524 378 399
f 524 379 378
f 398 399 378
f 525 379 524
f 522 398 378
f 522 378 377
f 528 379 525
f 397 522 377
f 109 377 313
f 109 397 377
f 287 380 379
f 287 379 528
f 134 109 313
f 134 313 312
f 530 380 287
f 110 134 312
f 532 394 380
f 532 380 530
f 112 110 312
f 286 394 532
f 533 381 394
f 533 394 286
f 113 312 311
f 113 112 312
f 133 113 311
f 381 533 534
f 310 133 311
f 310 131 133
f 382 381 534
f 382 534 535
f 310 114 131
f 382 535 400
f 382 400 538
f 309 114 310
f 309 130 114
f 383 382 538
f 309 128 130
f 383 538 123
f 308 128 309
f 306 383 123
f 306 123 122
f 308 125 128
f 308 124 125
f 307 306 122
f 307 122 126
f 307 126 127
f 307 124 308
f 307 127 124
f 419 412 404
f 257 414 411
f 267 414 257
f 418 401 417
f 416 415 401
f 416 401 418
f 417 402 403
f 418 412 416
f 418 417 403
f 418 403 404
f 412 418 404
f 420 404 405
f 420 405 419
f 420 419 404
f 413 405 406
f 422 406 29
f 422 413 406
f 421 422 29
f 424 423 422
f 424 422 421
f 421 29 407
f 424 421 407
f 424 407 408
f 425 424 408
f 425 423 424
f 426 425 408
f 426 409 427
f 426 408 409
f 426 427 425
f 427 409 697
f 429 427 697
f 428 697 16
f 428 16 410
f 430 697 428
f 430 428 410
f 429 697 430
f 430 410 411
f 429 430 411
f 50 431 222
f 51 432 431
f 51 431 50
f 51 433 432
f 52 434 433
f 52 433 51
f 53 435 434
f 53 434 52
f 54 436 435
f 54 435 53
f 437 436 54
f 438 437 54
f 55 438 54
f 439 438 55
f 46 439 55
f 440 439 46
f 441 440 46
f 56 441 46
f 442 441 56
f 57 442 56
f 443 442 57
f 47 443 57
f 444 443 47
f 58 444 47
f 445 444 58
f 59 445 58
f 446 445 59
f 447 446 59
f 60 447 59
f 448 447 60
f 48 448 60
f 449 448 48
f 61 449 48
f 450 449 61
f 49 450 61
f 451 450 49
f 62 451 49
f 452 451 62
f 38 452 62
f 38 221 452
f 561 419 405
f 561 412 419
f 564 561 405
f 558 412 561
f 558 416 412
f 567 564 405
f 455 415 416
f 455 416 558
f 567 405 413
f 245 415 455
f 569 413 422
f 569 567 413
f 38 415 245
f 38 253 415
f 569 422 423
f 572 569 423
f 572 423 425
f 39 253 38
f 49 253 39
f 575 572 425
f 61 253 49
f 575 425 427
f 60 253 61
f 454 575 427
f 280 253 60
f 429 454 427
f 247 454 429
f 280 60 40
f 429 453 247
f 277 280 40
f 411 453 429
f 277 40 58
f 277 58 47
f 414 453 411
f 414 579 453
f 275 277 47
f 275 47 57
f 414 45 579
f 272 275 57
f 267 45 414
f 267 44 45
f 256 272 57
f 256 57 56
f 256 56 41
f 267 43 44
f 254 43 267
f 270 256 41
f 270 41 42
f 255 43 254
f 255 42 43
f 270 42 255
f 456 221 209
f 456 452 221
f 457 451 452
f 457 452 456
f 458 450 451
f 458 451 457
f 459 449 450
f 459 450 458
f 460 448 449
f 460 449 459
f 461 447 448
f 461 448 460
f 462 446 447
f 462 447 461
f 463 445 446
f 463 446 462
f 464 444 445
f 464 445 463
f 465 443 444
f 465 444 464
f 466 442 443
f 466 443 465
f 467 442 466
f 467 441 442
f 468 441 467
f 468 440 441
f 469 440 468
f 469 439 440
f 470 439 469
f 470 438 439
f 471 438 470
f 471 437 438
f 472 437 471
f 472 436 437
f 473 436 472
f 473 435 436
f 474 434 435
f 474 435 473
f 475 434 474
f 475 433 434
f 476 432 433
f 476 433 475
f 477 431 432
f 477 432 476
f 187 222 431
f 187 431 477
f 478 215 187
f 480 215 478
f 481 215 480
f 478 476 475
f 478 477 476
f 478 187 477
f 479 215 481
f 480 474 473
f 480 475 474
f 480 478 475
f 482 215 479
f 481 472 471
f 481 473 472
f 481 480 473
f 483 215 482
f 479 470 469
f 479 471 470
f 479 481 471
f 485 215 483
f 482 468 467
f 482 469 468
f 482 479 469
f 486 215 485
f 483 467 466
f 483 482 467
f 484 215 486
f 485 465 464
f 485 466 465
f 485 483 466
f 487 215 484
f 486 463 462
f 486 464 463
f 486 485 464
f 488 209 215
f 488 215 487
f 484 461 460
f 484 462 461
f 484 486 462
f 487 459 458
f 487 460 459
f 487 484 460
f 488 456 209
f 488 487 458
f 488 457 456
f 488 458 457
f 64 158 63
f 64 489 158
f 65 490 489
f 65 489 64
f 66 491 490
f 66 490 65
f 67 492 491
f 67 491 66
f 68 493 492
f 68 494 493
f 68 492 67
f 106 494 68
f 69 495 494
f 69 496 495
f 69 494 106
f 70 497 496
f 70 496 69
f 71 498 497
f 71 497 70
f 72 499 498
f 72 498 71
f 73 500 499
f 73 499 72
f 74 500 73
f 74 501 500
f 75 501 74
f 75 502 501
f 76 502 75
f 76 503 502
f 77 503 76
f 77 504 503
f 78 504 77
f 78 505 504
f 79 505 78
f 79 506 505
f 80 506 79
f 80 507 506
f 81 507 80
f 81 508 507
f 82 508 81
f 82 509 508
f 83 509 82
f 83 510 509
f 84 510 83
f 84 135 510
f 89 135 84
f 511 159 513
f 512 159 511
f 513 158 489
f 513 489 490
f 513 490 491
f 513 159 158
f 514 159 512
f 511 491 492
f 511 492 493
f 511 513 491
f 515 159 514
f 512 493 494
f 512 494 495
f 512 511 493
f 514 495 496
f 514 496 497
f 514 512 495
f 515 497 498
f 515 498 499
f 515 514 497
f 516 499 500
f 516 159 515
f 516 515 499
f 517 500 501
f 517 501 502
f 517 159 516
f 517 516 500
f 521 159 517
f 518 502 503
f 518 503 504
f 518 517 502
f 519 159 521
f 520 517 518
f 520 504 505
f 520 505 506
f 520 518 504
f 520 521 517
f 521 506 507
f 521 507 508
f 521 520 506
f 519 508 509
f 519 509 510
f 519 510 135
f 519 135 159
f 519 521 508
f 397 109 294
f 522 397 294
f 522 294 293
f 522 293 292
f 398 522 292
f 398 292 291
f 523 398 291
f 523 399 398
f 524 290 289
f 524 523 290
f 524 399 523
f 525 524 289
f 525 289 288
f 526 525 288
f 528 525 526
f 528 526 527
f 528 527 529
f 287 528 529
f 532 530 531
f 286 532 531
f 533 286 285
f 284 533 285
f 534 284 283
f 534 533 284
f 534 283 282
f 535 534 282
f 536 400 535
f 538 400 536
f 538 536 537
f 295 85 63
f 295 63 186
f 539 186 185
f 539 295 186
f 540 185 184
f 540 539 185
f 296 184 183
f 296 540 184
f 541 183 182
f 541 296 183
f 542 182 181
f 542 541 182
f 542 297 541
f 543 181 180
f 543 542 181
f 543 297 542
f 544 543 180
f 544 180 179
f 545 179 178
f 545 544 179
f 298 178 177
f 298 545 178
f 546 177 176
f 546 298 177
f 546 299 298
f 547 546 176
f 547 175 174
f 547 176 175
f 547 299 546
f 548 547 174
f 548 300 547
f 549 174 173
f 549 548 174
f 549 300 548
f 550 173 172
f 550 549 173
f 551 550 172
f 552 551 171
f 301 551 552
f 553 171 170
f 553 552 171
f 553 301 552
f 302 169 168
f 302 170 169
f 302 553 170
f 303 302 168
f 304 168 167
f 304 303 168
f 554 166 89
f 554 167 166
f 554 304 167
f 554 305 304
f 554 89 305
f 555 245 455
f 556 555 455
f 557 556 455
f 557 455 558
f 559 557 558
f 560 559 558
f 560 558 561
f 562 560 561
f 563 561 564
f 563 562 561
f 565 563 564
f 566 565 564
f 566 564 567
f 568 566 567
f 246 568 567
f 246 567 569
f 570 246 569
f 571 569 572
f 571 570 569
f 573 571 572
f 574 573 572
f 574 572 575
f 576 574 575
f 577 575 454
f 577 576 575
f 247 577 454
f 578 247 453
f 248 247 578
f 578 453 579
f 249 248 578
f 579 45 50
f 579 249 578
f 32 357 581
f 32 31 357
f 33 581 580
f 33 32 581
f 34 580 351
f 34 33 580
f 349 34 351
f 582 580 581
f 582 581 357
f 583 351 580
f 583 580 582
f 584 583 582
f 349 655 34
f 599 29 406
f 586 582 357
f 586 357 360
f 586 403 402
f 585 403 586
f 587 404 403
f 587 403 585
f 591 360 359
f 591 588 360
f 589 604 590
f 591 590 604
f 592 405 404
f 592 589 590
f 592 404 589
f 593 359 358
f 593 591 359
f 593 590 591
f 594 593 595
f 358 595 593
f 596 406 405
f 596 405 594
f 596 594 595
f 601 406 596
f 597 358 25
f 600 597 25
f 584 582 586
f 584 586 402
f 588 585 586
f 588 586 360
f 588 587 585
f 587 588 591
f 594 405 592
f 594 592 590
f 594 590 593
f 598 358 597
f 598 601 596
f 601 598 597
f 602 597 600
f 602 600 599
f 602 599 406
f 602 601 597
f 602 406 601
f 603 30 29
f 603 27 30
f 603 25 27
f 603 600 25
f 603 599 600
f 603 29 599
f 604 587 591
f 604 404 587
f 604 589 404
f 358 598 596
f 358 596 595
f 606 584 402
f 626 351 583
f 626 583 584
f 626 584 606
f 606 402 417
f 607 352 351
f 607 351 626
f 609 417 401
f 609 401 629
f 609 629 352
f 609 608 417
f 610 352 607
f 610 609 352
f 610 607 608
f 610 608 609
f 611 613 612
f 613 401 415
f 614 353 352
f 614 352 611
f 614 611 612
f 615 415 252
f 615 616 415
f 627 614 615
f 627 353 614
f 617 615 252
f 617 619 615
f 618 621 353
f 618 252 620
f 618 353 619
f 621 618 620
f 622 252 251
f 622 621 620
f 622 620 252
f 623 350 621
f 623 621 622
f 623 622 251
f 624 251 250
f 624 623 251
f 625 605 350
f 625 689 605
f 625 250 689
f 625 623 624
f 625 624 250
f 625 350 623
f 626 606 417
f 626 417 608
f 626 608 607
f 630 615 614
f 630 415 616
f 630 616 615
f 619 627 615
f 619 353 627
f 628 252 618
f 628 619 617
f 628 617 252
f 628 618 619
f 629 613 611
f 629 401 613
f 629 611 352
f 630 614 612
f 630 612 613
f 630 613 415
f 20 19 350
f 21 350 632
f 21 20 350
f 633 632 631
f 633 21 632
f 634 631 343
f 634 633 631
f 341 634 343
f 635 24 23
f 635 22 24
f 635 19 22
f 635 23 636
f 314 636 23
f 637 347 19
f 637 19 635
f 637 635 636
f 639 314 642
f 639 638 314
f 640 639 347
f 640 347 637
f 640 637 638
f 640 638 639
f 641 642 313
f 641 659 642
f 643 348 347
f 643 347 659
f 643 659 641
f 644 313 390
f 644 390 645
f 646 348 643
f 647 644 645
f 648 650 348
f 648 645 390
f 648 390 649
f 648 348 647
f 648 647 645
f 650 648 649
f 651 650 649
f 651 390 392
f 651 649 390
f 651 652 650
f 651 392 652
f 653 349 650
f 653 650 652
f 653 652 392
f 654 392 35
f 654 653 392
f 655 653 654
f 655 349 653
f 656 636 314
f 656 637 636
f 656 314 638
f 656 638 637
f 657 639 642
f 657 347 639
f 657 659 347
f 658 641 313
f 658 643 641
f 658 313 644
f 658 646 643
f 658 644 646
f 646 644 647
f 646 647 348
f 36 655 654
f 36 654 35
f 642 659 657
f 660 35 389
f 661 31 680
f 662 389 388
f 662 681 389
f 663 664 662
f 663 662 388
f 665 354 661
f 665 664 663
f 665 666 664
f 665 661 666
f 683 354 665
f 667 388 387
f 667 668 388
f 667 683 668
f 669 667 670
f 671 670 667
f 671 667 387
f 672 355 354
f 672 684 355
f 672 354 669
f 672 669 670
f 673 387 393
f 674 673 393
f 674 675 673
f 676 675 674
f 676 356 355
f 677 393 386
f 678 356 676
f 678 676 677
f 679 31 37
f 679 37 36
f 679 36 35
f 679 680 31
f 679 35 660
f 680 679 660
f 681 660 389
f 681 680 660
f 681 661 680
f 682 661 681
f 682 681 662
f 668 665 663
f 668 663 388
f 668 683 665
f 683 669 354
f 683 667 669
f 684 387 673
f 675 676 355
f 675 355 684
f 675 684 673
f 685 674 393
f 685 676 674
f 685 677 676
f 685 393 677
f 693 678 677
f 693 677 386
f 666 662 664
f 666 682 662
f 666 661 682
f 671 672 670
f 671 684 672
f 671 387 684
f 361 366 688
f 686 709 28
f 686 688 709
f 686 361 688
f 687 27 26
f 687 28 27
f 687 686 28
f 356 26 25
f 356 687 26
f 709 30 27
f 709 27 28
f 709 688 366
f 605 631 632
f 605 632 350
f 690 343 631
f 690 631 605
f 690 605 689
f 691 24 22
f 691 22 21
f 691 21 633
f 691 633 634
f 691 634 341
f 692 361 686
f 678 686 687
f 678 687 356
f 692 678 693
f 692 686 678
f 694 16 697
f 695 712 12
f 696 697 409
f 714 696 409
f 714 698 696
f 699 367 712
f 699 700 698
f 699 712 700
f 699 698 714
f 701 367 699
f 702 409 408
f 702 703 409
f 702 701 703
f 704 368 367
f 705 408 407
f 407 706 705
f 707 706 407
f 707 366 368
f 708 407 29
f 709 366 707
f 709 707 708
f 710 17 16
f 710 18 17
f 710 12 18
f 710 695 12
f 710 16 694
f 695 710 694
f 711 694 697
f 711 712 695
f 711 695 694
f 711 697 713
f 711 713 712
f 713 697 696
f 703 699 714
f 703 701 699
f 703 714 409
f 701 702 367
f 715 702 408
f 706 707 368
f 716 708 707
f 716 407 708
f 716 707 407
f 30 709 708
f 30 708 29
f 700 696 698
f 700 712 713
f 700 713 696
f 704 367 702
f 704 702 715
f 717 715 408
f 718 706 368
f 718 368 704
f 718 704 715
f 718 705 706
f 705 715 717
f 705 718 715
f 705 717 408
f 719 250 723
f 720 344 343
f 720 343 721
f 720 719 723
f 720 721 719
f 740 344 720
f 740 720 739
f 722 723 266
f 724 725 726
f 727 722 266
f 727 725 722
f 727 726 725
f 728 345 344
f 728 344 724
f 728 724 726
f 729 266 265
f 729 727 266
f 729 726 727
f 730 345 729
f 731 730 729
f 731 729 265
f 732 346 345
f 732 730 731
f 732 742 346
f 732 345 730
f 732 731 265
f 733 265 264
f 264 734 733
f 735 734 264
f 735 342 346
f 736 264 263
f 737 342 735
f 737 735 736
f 738 343 690
f 738 690 689
f 738 689 250
f 738 721 343
f 738 250 719
f 721 738 719
f 739 720 723
f 740 739 723
f 740 723 722
f 741 345 728
f 741 728 726
f 741 729 345
f 741 726 729
f 742 265 733
f 742 732 265
f 734 742 733
f 734 735 346
f 734 346 742
f 743 735 264
f 743 736 735
f 743 264 736
f 800 737 736
f 800 736 263
f 744 724 344
f 744 722 725
f 744 740 722
f 744 344 740
f 744 725 724
f 7 6 342
f 7 342 746
f 8 7 746
f 9 746 745
f 9 8 746
f 801 9 745
f 747 745 335
f 747 801 745
f 333 747 335
f 758 10 326
f 748 691 341
f 748 341 340
f 749 750 23
f 749 748 760
f 750 749 760
f 760 748 340
f 761 315 750
f 751 340 339
f 751 761 340
f 763 751 339
f 763 762 751
f 752 316 315
f 752 768 762
f 752 315 768
f 752 762 763
f 753 316 752
f 753 752 764
f 754 339 338
f 754 764 339
f 755 754 765
f 338 765 754
f 756 755 765
f 756 326 316
f 756 316 755
f 757 338 6
f 759 757 6
f 24 691 748
f 24 749 23
f 24 748 749
f 760 340 761
f 760 761 750
f 764 752 763
f 764 763 339
f 753 764 754
f 755 316 753
f 755 753 754
f 765 338 757
f 766 756 765
f 766 326 756
f 766 765 757
f 766 757 759
f 766 759 758
f 766 758 326
f 767 11 10
f 767 8 11
f 767 6 8
f 767 759 6
f 767 10 758
f 767 758 759
f 768 761 751
f 768 315 761
f 768 751 762
f 769 386 781
f 771 396 784
f 785 365 364
f 785 770 365
f 785 771 770
f 772 785 773
f 773 785 364
f 774 385 396
f 774 396 772
f 774 772 773
f 775 364 363
f 775 773 364
f 786 775 363
f 786 776 775
f 777 394 385
f 777 385 791
f 795 363 362
f 778 795 362
f 779 781 394
f 779 362 782
f 779 394 780
f 779 780 778
f 781 779 782
f 782 362 361
f 783 782 361
f 783 789 782
f 784 770 771
f 785 772 396
f 785 396 771
f 774 773 775
f 786 791 776
f 786 777 791
f 787 780 394
f 787 778 780
f 787 795 778
f 788 769 781
f 788 789 769
f 788 781 782
f 788 782 789
f 790 361 692
f 790 692 693
f 790 693 386
f 790 783 361
f 790 789 783
f 790 386 769
f 790 769 789
f 791 774 775
f 791 385 774
f 791 775 776
f 792 786 363
f 792 795 793
f 792 363 795
f 792 793 777
f 794 786 792
f 794 792 777
f 794 777 786
f 796 793 795
f 796 787 394
f 796 795 787
f 796 394 777
f 796 777 793
f 778 362 779
f 369 373 15
f 797 15 14
f 797 369 15
f 798 14 13
f 798 797 14
f 365 13 12
f 365 798 13
f 373 819 15
f 799 335 745
f 737 745 746
f 737 746 342
f 799 737 800
f 799 745 737
f 801 11 8
f 801 8 9
f 801 747 333
f 770 797 798
f 770 798 365
f 803 369 797
f 803 797 770
f 802 803 770
f 784 802 770
f 804 5 268
f 805 374 3
f 805 3 4
f 805 4 804
f 807 268 258
f 807 258 374
f 807 806 268
f 808 374 805
f 808 805 806
f 808 807 374
f 808 806 807
f 823 258 257
f 823 810 258
f 811 375 374
f 811 374 809
f 811 809 810
f 812 825 824
f 813 375 811
f 813 811 824
f 813 376 375
f 813 824 825
f 814 257 411
f 814 825 812
f 814 812 257
f 815 411 410
f 815 410 816
f 817 373 376
f 817 376 816
f 817 816 410
f 818 817 410
f 818 410 16
f 819 817 818
f 819 373 817
f 820 5 804
f 820 804 4
f 821 804 268
f 821 805 804
f 821 268 806
f 821 806 805
f 822 809 374
f 822 258 810
f 822 374 258
f 822 810 809
f 823 257 811
f 823 811 810
f 824 811 257
f 824 257 812
f 376 815 816
f 17 819 818
f 17 818 16
f 825 814 411
f 825 411 815
f 376 813 825
f 376 825 815
f 826 263 262
f 828 334 337
f 828 827 334
f 828 259 5
f 828 5 827
f 829 259 828
f 830 260 259
f 830 259 829
f 832 337 336
f 832 831 337
f 845 832 336
f 845 833 832
f 834 261 260
f 834 835 833
f 834 260 835
f 834 833 845
f 836 834 846
f 836 261 834
f 837 336 842
f 837 846 336
f 838 837 839
f 850 837 842
f 850 839 837
f 840 262 261
f 840 847 262
f 840 261 838
f 840 838 839
f 841 847 842
f 841 842 335
f 841 262 847
f 843 841 335
f 844 827 5
f 831 829 828
f 831 828 337
f 831 830 829
f 830 831 832
f 846 834 845
f 846 845 336
f 836 846 837
f 836 838 261
f 836 837 838
f 848 841 843
f 848 843 826
f 848 826 262
f 848 262 841
f 849 335 799
f 849 799 800
f 849 800 263
f 849 843 335
f 849 826 843
f 849 263 826
f 835 830 832
f 835 832 833
f 835 260 830
f 850 847 840
f 850 840 839
f 850 842 847
f 851 320 324
f 852 330 329
f 852 329 853
f 870 324 319
f 854 331 330
f 854 330 855
f 854 855 870
f 856 331 854
f 857 319 318
f 857 858 319
f 857 856 858
f 859 857 860
f 861 857 318
f 861 860 857
f 862 332 331
f 862 863 332
f 862 331 859
f 862 859 860
f 863 318 317
f 332 863 864
f 332 864 865
f 317 864 863
f 317 10 865
f 317 865 864
f 866 10 11
f 866 11 801
f 866 801 333
f 866 333 332
f 866 332 865
f 866 865 10
f 867 329 901
f 867 853 329
f 867 320 851
f 853 867 851
f 868 852 853
f 868 853 851
f 868 851 324
f 868 869 852
f 869 324 870
f 869 868 324
f 869 870 855
f 869 855 330
f 869 330 852
f 858 854 870
f 858 856 854
f 858 870 319
f 856 859 331
f 856 857 859
f 861 318 863
f 861 863 862
f 861 862 860
f 871 369 803
f 871 803 802
f 871 802 784
f 871 370 369
f 872 873 384
f 872 384 894
f 872 894 370
f 872 874 873
f 874 370 871
f 874 872 370
f 875 877 876
f 877 384 383
f 878 371 370
f 878 370 875
f 878 875 876
f 879 383 321
f 880 371 878
f 881 879 321
f 881 883 879
f 882 885 371
f 882 371 883
f 882 321 884
f 885 882 884
f 886 321 322
f 886 885 884
f 886 887 885
f 886 322 887
f 886 884 321
f 888 372 885
f 888 885 887
f 888 887 322
f 889 322 320
f 889 888 322
f 890 888 889
f 890 372 888
f 891 784 873
f 891 871 784
f 891 873 874
f 891 874 871
f 895 880 878
f 895 383 879
f 895 879 880
f 883 880 879
f 883 371 880
f 892 882 883
f 892 881 321
f 892 321 882
f 892 883 881
f 893 890 889
f 893 889 320
f 894 877 875
f 894 875 370
f 894 384 877
f 895 878 876
f 895 876 877
f 895 877 383
f 844 5 820
f 844 820 4
f 898 844 4
f 827 844 898
f 898 4 1
f 898 897 896
f 898 1 897
f 827 896 334
f 827 898 896
f 867 893 320
f 890 899 372
f 890 900 899
f 902 890 893
f 901 329 900
f 901 900 890
f 901 890 902
f 902 893 867
f 901 902 867
f 329 334 896
f 900 896 897
f 900 329 896
f 899 897 1
f 899 900 897
f 372 1 2
f 372 2 3
f 372 899 1

