# https://github.com/mikedh/trimesh
v 40.38600000 6.35000000 -0.00000000
v 40.38600000 6.35000000 2.50000000
v 40.36470807 6.03872304 2.50000000
v 40.30122892 5.73324458 2.50000000
v 40.19674504 5.43925511 2.50000000
v 40.05320276 5.16223109 2.50000000
v 39.87327601 4.90733296 2.50000000
v 39.66031649 4.67930899 2.50000000
v 39.41829122 4.48240682 2.50000000
v 39.15170868 4.32029439 2.50000000
v 38.86553479 4.19599153 2.50000000
v 38.56510045 4.11181378 2.50000000
v 38.25600216 4.06932919 2.50000000
v 37.94399784 4.06932919 2.50000000
v 37.63489955 4.11181378 2.50000000
v 37.33446521 4.19599153 2.50000000
v 37.04829132 4.32029439 2.50000000
v 36.78170878 4.48240682 2.50000000
v 36.53968351 4.67930899 2.50000000
v 36.32672399 4.90733296 2.50000000
v 36.14679724 5.16223109 2.50000000
v 36.00325496 5.43925511 2.50000000
v 35.89877108 5.73324458 2.50000000
v 35.83529193 6.03872304 2.50000000
v 35.81400000 6.35000000 2.50000000
v 35.81400000 6.35000000 -0.00000000
v 40.36470807 6.03872304 -0.00000000
v 40.30122892 5.73324458 -0.00000000
v 40.19674504 5.43925511 -0.00000000
v 40.05320276 5.16223109 -0.00000000
v 39.87327601 4.90733296 -0.00000000
v 39.66031649 4.67930899 -0.00000000
v 39.41829122 4.48240682 -0.00000000
v 39.15170868 4.32029439 -0.00000000
v 38.86553479 4.19599153 -0.00000000
v 38.56510045 4.11181378 -0.00000000
v 38.25600216 4.06932919 -0.00000000
v 37.94399784 4.06932919 -0.00000000
v 37.63489955 4.11181378 -0.00000000
v 37.33446521 4.19599153 -0.00000000
v 37.04829132 4.32029439 -0.00000000
v 36.78170878 4.48240682 -0.00000000
v 36.53968351 4.67930899 -0.00000000
v 36.32672399 4.90733296 -0.00000000
v 36.14679724 5.16223109 -0.00000000
v 36.00325496 5.43925511 -0.00000000
v 35.89877108 5.73324458 -0.00000000
v 35.83529193 6.03872304 -0.00000000
v 65.78600000 6.35000000 -0.00000000
v 65.78600000 6.35000000 2.50000000
v 65.76470807 6.03872304 2.50000000
v 65.70122892 5.73324458 2.50000000
v 65.59674504 5.43925511 2.50000000
v 65.45320276 5.16223109 2.50000000
v 65.27327601 4.90733296 2.50000000
v 65.06031649 4.67930899 2.50000000
v 64.81829122 4.48240682 2.50000000
v 64.55170868 4.32029439 2.50000000
v 64.26553479 4.19599153 2.50000000
v 63.96510045 4.11181378 2.50000000
v 63.65600216 4.06932919 2.50000000
v 63.34399784 4.06932919 2.50000000
v 63.03489955 4.11181378 2.50000000
v 62.73446521 4.19599153 2.50000000
v 62.44829132 4.32029439 2.50000000
v 62.18170878 4.48240682 2.50000000
v 61.93968351 4.67930899 2.50000000
v 61.72672399 4.90733296 2.50000000
v 61.54679724 5.16223109 2.50000000
v 61.40325496 5.43925511 2.50000000
v 61.29877108 5.73324458 2.50000000
v 61.23529193 6.03872304 2.50000000
v 61.21400000 6.35000000 2.50000000
v 61.21400000 6.35000000 -0.00000000
v 65.76470807 6.03872304 -0.00000000
v 65.70122892 5.73324458 -0.00000000
v 65.59674504 5.43925511 -0.00000000
v 65.45320276 5.16223109 -0.00000000
v 65.27327601 4.90733296 -0.00000000
v 65.06031649 4.67930899 -0.00000000
v 64.81829122 4.48240682 -0.00000000
v 64.55170868 4.32029439 -0.00000000
v 64.26553479 4.19599153 -0.00000000
v 63.96510045 4.11181378 -0.00000000
v 63.65600216 4.06932919 -0.00000000
v 63.34399784 4.06932919 -0.00000000
v 63.03489955 4.11181378 -0.00000000
v 62.73446521 4.19599153 -0.00000000
v 62.44829132 4.32029439 -0.00000000
v 62.18170878 4.48240682 -0.00000000
v 61.93968351 4.67930899 -0.00000000
v 61.72672399 4.90733296 -0.00000000
v 61.54679724 5.16223109 -0.00000000
v 61.40325496 5.43925511 -0.00000000
v 61.29877108 5.73324458 -0.00000000
v 61.23529193 6.03872304 -0.00000000
v 38.10000000 4.06400000 -53.30000001
v 38.10000000 4.06400000 -50.80000001
v 37.78872304 4.08529193 -50.80000001
v 37.48324458 4.14877108 -50.80000001
v 37.18925511 4.25325496 -50.80000001
v 36.91223109 4.39679724 -50.80000001
v 36.65733296 4.57672399 -50.80000001
v 36.42930899 4.78968351 -50.80000001
v 36.23240682 5.03170878 -50.80000001
v 36.07029439 5.29829132 -50.80000001
v 35.94599153 5.58446521 -50.80000001
v 35.86181378 5.88489955 -50.80000001
v 35.81932919 6.19399784 -50.80000001
v 35.81932919 6.50600216 -50.80000001
v 35.86181378 6.81510045 -50.80000001
v 35.94599153 7.11553479 -50.80000001
v 36.07029439 7.40170868 -50.80000001
v 36.23240682 7.66829122 -50.80000001
v 36.42930899 7.91031649 -50.80000001
v 36.65733296 8.12327601 -50.80000001
v 36.91223109 8.30320276 -50.80000001
v 37.18925511 8.44674504 -50.80000001
v 37.48324458 8.55122892 -50.80000001
v 37.78872304 8.61470807 -50.80000001
v 38.10000000 8.63600000 -50.80000001
v 38.10000000 8.63600000 -53.30000001
v 37.78872304 4.08529193 -53.30000001
v 37.48324458 4.14877108 -53.30000001
v 37.18925511 4.25325496 -53.30000001
v 36.91223109 4.39679724 -53.30000001
v 36.65733296 4.57672399 -53.30000001
v 36.42930899 4.78968351 -53.30000001
v 36.23240682 5.03170878 -53.30000001
v 36.07029439 5.29829132 -53.30000001
v 35.94599153 5.58446521 -53.30000001
v 35.86181378 5.88489955 -53.30000001
v 35.81932919 6.19399784 -53.30000001
v 35.81932919 6.50600216 -53.30000001
v 35.86181378 6.81510045 -53.30000001
v 35.94599153 7.11553479 -53.30000001
v 36.07029439 7.40170868 -53.30000001
v 36.23240682 7.66829122 -53.30000001
v 36.42930899 7.91031649 -53.30000001
v 36.65733296 8.12327601 -53.30000001
v 36.91223109 8.30320276 -53.30000001
v 37.18925511 8.44674504 -53.30000001
v 37.48324458 8.55122892 -53.30000001
v 37.78872304 8.61470807 -53.30000001
v 63.50000000 4.06400000 -53.30000001
v 63.50000000 4.06400000 -50.80000001
v 63.18872304 4.08529193 -50.80000001
v 62.88324458 4.14877108 -50.80000001
v 62.58925511 4.25325496 -50.80000001
v 62.31223109 4.39679724 -50.80000001
v 62.05733296 4.57672399 -50.80000001
v 61.82930899 4.78968351 -50.80000001
v 61.63240682 5.03170878 -50.80000001
v 61.47029439 5.29829132 -50.80000001
v 61.34599153 5.58446521 -50.80000001
v 61.26181378 5.88489955 -50.80000001
v 61.21932919 6.19399784 -50.80000001
v 61.21932919 6.50600216 -50.80000001
v 61.26181378 6.81510045 -50.80000001
v 61.34599153 7.11553479 -50.80000001
v 61.47029439 7.40170868 -50.80000001
v 61.63240682 7.66829122 -50.80000001
v 61.82930899 7.91031649 -50.80000001
v 62.05733296 8.12327601 -50.80000001
v 62.31223109 8.30320276 -50.80000001
v 62.58925511 8.44674504 -50.80000001
v 62.88324458 8.55122892 -50.80000001
v 63.18872304 8.61470807 -50.80000001
v 63.50000000 8.63600000 -50.80000001
v 63.50000000 8.63600000 -53.30000001
v 63.18872304 4.08529193 -53.30000001
v 62.88324458 4.14877108 -53.30000001
v 62.58925511 4.25325496 -53.30000001
v 62.31223109 4.39679724 -53.30000001
v 62.05733296 4.57672399 -53.30000001
v 61.82930899 4.78968351 -53.30000001
v 61.63240682 5.03170878 -53.30000001
v 61.47029439 5.29829132 -53.30000001
v 61.34599153 5.58446521 -53.30000001
v 61.26181378 5.88489955 -53.30000001
v 61.21932919 6.19399784 -53.30000001
v 61.21932919 6.50600216 -53.30000001
v 61.26181378 6.81510045 -53.30000001
v 61.34599153 7.11553479 -53.30000001
v 61.47029439 7.40170868 -53.30000001
v 61.63240682 7.66829122 -53.30000001
v 61.82930899 7.91031649 -53.30000001
v 62.05733296 8.12327601 -53.30000001
v 62.31223109 8.30320276 -53.30000001
v 62.58925511 8.44674504 -53.30000001
v 62.88324458 8.55122892 -53.30000001
v 63.18872304 8.61470807 -53.30000001
v 79.51280000 78.36163117 -27.63310011
v 77.01280000 78.36163117 -27.63310011
v 77.01280000 79.77403078 -27.28451770
v 77.01280000 81.12673517 -26.74919240
v 77.01280000 82.39517737 -26.03684647
v 77.01280000 83.55632072 -25.16041708
v 77.01280000 84.58907725 -24.13582140
v 77.01280000 85.47469068 -22.98166751
v 77.01280000 86.19707704 -21.71891643
v 77.01280000 86.74311681 -20.37050147
v 77.01280000 87.10289315 -18.96091169
v 77.01280000 87.26987202 -17.51574720
v 77.01280000 87.24102086 -16.06125418
v 77.01280000 87.01686364 -14.62384822
v 77.01280000 86.60147138 -13.22963460
v 77.01280000 86.00238815 -11.90393417
v 77.01280000 85.23049415 -10.67082347
v 77.01280000 84.29980804 -9.55269749
v 77.01280000 83.22723235 -8.56986295
v 77.01280000 82.03224654 -7.74016948
v 77.01280000 80.73655320 -7.07868544
v 77.01280000 79.36368391 -6.59742432
v 77.01280000 77.93857188 -6.30512647
v 77.01280000 76.48709909 -6.20710042
v 79.51280000 76.48709909 -6.20710042
v 79.51280000 79.77403078 -27.28451770
v 79.51280000 81.12673517 -26.74919240
v 79.51280000 82.39517737 -26.03684647
v 79.51280000 83.55632072 -25.16041708
v 79.51280000 84.58907725 -24.13582140
v 79.51280000 85.47469068 -22.98166751
v 79.51280000 86.19707704 -21.71891643
v 79.51280000 86.74311681 -20.37050147
v 79.51280000 87.10289315 -18.96091169
v 79.51280000 87.26987202 -17.51574720
v 79.51280000 87.24102086 -16.06125418
v 79.51280000 87.01686364 -14.62384822
v 79.51280000 86.60147138 -13.22963460
v 79.51280000 86.00238815 -11.90393417
v 79.51280000 85.23049415 -10.67082347
v 79.51280000 84.29980804 -9.55269749
v 79.51280000 83.22723235 -8.56986295
v 79.51280000 82.03224654 -7.74016948
v 79.51280000 80.73655320 -7.07868544
v 79.51280000 79.36368391 -6.59742432
v 79.51280000 77.93857188 -6.30512647
v 66.83400000 50.73737921 -50.80000001
v 66.83400000 50.73737921 -53.30000001
v 61.50000000 45.40337921 -50.80000001
v 62.19622671 45.44901232 -50.80000001
v 62.88054079 45.58513085 -50.80000001
v 63.54123343 45.80940578 -50.80000001
v 64.16700000 46.11799970 -50.80000001
v 64.74713346 46.50563249 -50.80000001
v 65.27170757 46.96567164 -50.80000001
v 65.73174672 47.49024575 -50.80000001
v 66.11937950 48.07037921 -50.80000001
v 66.42797343 48.69614578 -50.80000001
v 66.65224836 49.35683842 -50.80000001
v 66.78836689 50.04115250 -50.80000001
v 61.50000000 45.40337921 -53.30000001
v 62.19622671 45.44901232 -53.30000001
v 62.88054079 45.58513085 -53.30000001
v 63.54123343 45.80940578 -53.30000001
v 64.16700000 46.11799970 -53.30000001
v 64.74713346 46.50563249 -53.30000001
v 65.27170757 46.96567164 -53.30000001
v 65.73174672 47.49024575 -53.30000001
v 66.11937950 48.07037921 -53.30000001
v 66.42797343 48.69614578 -53.30000001
v 66.65224836 49.35683842 -53.30000001
v 66.78836689 50.04115250 -53.30000001
v 56.16600000 34.07600039 -9.83597081
v 56.16600000 56.30100039 -48.33080001
v 56.16600000 54.13593688 -49.58080001
v 56.16600000 31.91093688 -11.08597081
v 56.16600000 53.43203144 -53.30000001
v 56.16600000 53.89308408 -53.26776006
v 56.16600000 54.34516287 -53.17166775
v 56.16600000 54.77946859 -53.01359340
v 56.16600000 55.18754797 -52.79661374
v 56.16600000 55.56145823 -52.52495204
v 56.16600000 55.89392161 -52.20389588
v 56.16600000 56.17846711 -51.83969426
v 56.16600000 56.40955635 -51.43943594
v 56.16600000 56.58269146 -51.01091150
v 56.16600000 56.69450256 -50.56246169
v 56.16600000 56.74281337 -50.10281506
v 56.16600000 56.72668357 -49.64091811
v 56.16600000 56.64642712 -49.18576115
v 56.16600000 56.50360611 -48.74620328
v 56.16600000 53.43203144 -50.80000001
v 56.16600000 53.54515133 -50.79208989
v 56.16600000 53.65606948 -50.76851351
v 56.16600000 53.76262698 -50.72972975
v 56.16600000 53.86274981 -50.67649350
v 56.16600000 53.95448920 -50.60984093
v 56.16600000 54.03605955 -50.53106936
v 56.16600000 54.10587317 -50.44171200
v 56.16600000 54.16257124 -50.34350807
v 56.16600000 54.20505017 -50.23836902
v 56.16600000 54.23248318 -50.12834124
v 56.16600000 54.24433630 -50.01556632
v 56.16600000 54.24037883 -49.90223927
v 56.16600000 54.22068780 -49.79056589
v 56.16600000 54.18564647 -49.68271977
v 56.16600000 50.73737921 -53.30000001
v 56.16600000 50.73737921 -50.80000001
v 56.21163311 50.04115250 -50.80000001
v 56.34775164 49.35683842 -50.80000001
v 56.57202657 48.69614578 -50.80000001
v 56.88062050 48.07037921 -50.80000001
v 57.26825328 47.49024575 -50.80000001
v 57.72829243 46.96567164 -50.80000001
v 58.25286654 46.50563249 -50.80000001
v 58.83300000 46.11799970 -50.80000001
v 59.45876657 45.80940578 -50.80000001
v 60.11945921 45.58513085 -50.80000001
v 60.80377329 45.44901232 -50.80000001
v 56.21163311 50.04115250 -53.30000001
v 56.34775164 49.35683842 -53.30000001
v 56.57202657 48.69614578 -53.30000001
v 56.88062050 48.07037921 -53.30000001
v 57.26825328 47.49024575 -53.30000001
v 57.72829243 46.96567164 -53.30000001
v 58.25286654 46.50563249 -53.30000001
v 58.83300000 46.11799970 -53.30000001
v 59.45876657 45.80940578 -53.30000001
v 60.11945921 45.58513085 -53.30000001
v 60.80377329 45.44901232 -53.30000001
v 66.83400000 53.43203144 -53.30000001
v 66.83400000 53.43203144 -50.80000001
v 66.83400000 56.30100039 -48.33080001
v 66.83400000 56.50360611 -48.74620328
v 66.83400000 56.64642712 -49.18576115
v 66.83400000 56.72668357 -49.64091811
v 66.83400000 56.74281337 -50.10281506
v 66.83400000 56.69450256 -50.56246169
v 66.83400000 56.58269146 -51.01091150
v 66.83400000 56.40955635 -51.43943594
v 66.83400000 56.17846711 -51.83969426
v 66.83400000 55.89392161 -52.20389588
v 66.83400000 55.56145823 -52.52495204
v 66.83400000 55.18754797 -52.79661374
v 66.83400000 54.77946859 -53.01359340
v 66.83400000 54.34516287 -53.17166775
v 66.83400000 53.89308408 -53.26776006
v 66.83400000 54.13593688 -49.58080001
v 66.83400000 54.18564647 -49.68271977
v 66.83400000 54.22068780 -49.79056589
v 66.83400000 54.24037883 -49.90223927
v 66.83400000 54.24433630 -50.01556632
v 66.83400000 54.23248318 -50.12834124
v 66.83400000 54.20505017 -50.23836902
v 66.83400000 54.16257124 -50.34350807
v 66.83400000 54.10587317 -50.44171200
v 66.83400000 54.03605955 -50.53106936
v 66.83400000 53.95448920 -50.60984093
v 66.83400000 53.86274981 -50.67649350
v 66.83400000 53.76262698 -50.72972975
v 66.83400000 53.65606948 -50.76851351
v 66.83400000 53.54515133 -50.79208989
v 66.83400000 34.07600039 -9.83597081
v 66.83400000 31.91093688 -11.08597081
v 77.01280000 75.85942567 -6.22536385
v 77.01280000 75.23387609 -6.28009235
v 77.01280000 74.61256702 -6.37110073
v 79.51280000 74.61256702 -6.37110073
v 79.51280000 75.85942567 -6.22536385
v 79.51280000 75.23387609 -6.28009235
v 79.51280000 62.48286238 -8.50989492
v 77.01280000 62.48286238 -8.50989492
v 77.01280000 61.05273427 -8.86416138
v 77.01280000 59.68416572 -9.40986393
v 77.01280000 58.40265059 -10.13683717
v 77.01280000 57.23206106 -11.03153897
v 77.01280000 56.19420302 -12.07730272
v 77.01280000 55.30840978 -13.25464782
v 77.01280000 54.59118201 -14.54164256
v 77.01280000 54.05588030 -15.91431266
v 77.01280000 53.71247631 -17.34708789
v 77.01280000 53.56736700 -18.81327833
v 77.01280000 53.62325548 -20.28557165
v 77.01280000 53.87910067 -21.73654180
v 77.01280000 54.33013664 -23.13915996
v 77.01280000 54.96796146 -24.46729800
v 77.01280000 55.78069364 -25.69621522
v 77.01280000 56.75319354 -26.80301922
v 77.01280000 57.86734531 -27.76709233
v 77.01280000 59.10239441 -28.57047571
v 77.01280000 60.43533423 -29.19820383
v 77.01280000 61.84133460 -29.63858330
v 77.01280000 63.29420441 -29.88341071
v 77.01280000 64.76687944 -29.92812536
v 77.01280000 66.23192654 -29.77189431
v 79.51280000 66.23192654 -29.77189431
v 79.51280000 61.05273427 -8.86416138
v 79.51280000 59.68416572 -9.40986393
v 79.51280000 58.40265059 -10.13683717
v 79.51280000 57.23206106 -11.03153897
v 79.51280000 56.19420302 -12.07730272
v 79.51280000 55.30840978 -13.25464782
v 79.51280000 54.59118201 -14.54164256
v 79.51280000 54.05588030 -15.91431266
v 79.51280000 53.71247631 -17.34708789
v 79.51280000 53.56736700 -18.81327833
v 79.51280000 53.62325548 -20.28557165
v 79.51280000 53.87910067 -21.73654180
v 79.51280000 54.33013664 -23.13915996
v 79.51280000 54.96796146 -24.46729800
v 79.51280000 55.78069364 -25.69621522
v 79.51280000 56.75319354 -26.80301922
v 79.51280000 57.86734531 -27.76709233
v 79.51280000 59.10239441 -28.57047571
v 79.51280000 60.43533423 -29.19820383
v 79.51280000 61.84133460 -29.63858330
v 79.51280000 63.29420441 -29.88341071
v 79.51280000 64.76687944 -29.92812536
v 77.01280000 76.82260452 -1.69640000
v 77.01280000 30.31515759 -1.69640000
v 79.51280000 76.82260452 -1.69640000
v 79.51280000 30.31515759 -1.69640000
v 79.51280000 76.82260452 -35.31538916
v 79.51280000 79.11149707 -35.15882462
v 79.51280000 81.35775188 -34.69204750
v 79.51280000 83.51952548 -33.92375298
v 79.51280000 85.55654811 -32.86825293
v 79.51280000 87.43087390 -31.54520931
v 79.51280000 89.10758770 -29.97926794
v 79.51280000 90.55545550 -28.19959933
v 79.51280000 91.74750628 -26.23935533
v 79.51280000 92.66153438 -24.13505160
v 79.51280000 93.28051318 -21.92588733
v 79.51280000 93.59291228 -19.65301506
v 79.51280000 93.59291228 -17.35877410
v 79.51280000 93.28051318 -15.08590183
v 79.51280000 92.66153438 -12.87673755
v 79.51280000 91.74750628 -10.77243382
v 79.51280000 90.55545550 -8.81218983
v 79.51280000 89.10758770 -7.03252122
v 79.51280000 87.43087390 -5.46657984
v 79.51280000 85.55654811 -4.14353623
v 79.51280000 83.51952548 -3.08803618
v 79.51280000 81.35775188 -2.31974166
v 79.51280000 79.11149707 -1.85296454
v 77.01280000 76.82260452 -35.31538916
v 77.01280000 79.11149707 -35.15882462
v 77.01280000 81.35775188 -34.69204750
v 77.01280000 83.51952548 -33.92375298
v 77.01280000 85.55654811 -32.86825293
v 77.01280000 87.43087390 -31.54520931
v 77.01280000 89.10758770 -29.97926794
v 77.01280000 90.55545550 -28.19959933
v 77.01280000 91.74750628 -26.23935533
v 77.01280000 92.66153438 -24.13505160
v 77.01280000 93.28051318 -21.92588733
v 77.01280000 93.59291228 -19.65301506
v 77.01280000 93.59291228 -17.35877410
v 77.01280000 93.28051318 -15.08590183
v 77.01280000 92.66153438 -12.87673755
v 77.01280000 91.74750628 -10.77243382
v 77.01280000 90.55545550 -8.81218983
v 77.01280000 89.10758770 -7.03252122
v 77.01280000 87.43087390 -5.46657984
v 77.01280000 85.55654811 -4.14353623
v 77.01280000 83.51952548 -3.08803618
v 77.01280000 81.35775188 -2.31974166
v 77.01280000 79.11149707 -1.85296454
v 79.51280000 50.95887505 -35.31538916
v 77.01280000 50.95887505 -35.31538916
v 77.01280000 50.67739985 -35.33103345
v 77.01280000 50.39939195 -35.37777364
v 77.01280000 50.12827596 -35.45503394
v 77.01280000 49.86739157 -35.56186265
v 79.51280000 49.86739157 -35.56186265
v 79.51280000 50.67739985 -35.33103345
v 79.51280000 50.39939195 -35.37777364
v 79.51280000 50.12827596 -35.45503394
v 76.20000000 48.26441959 -39.41103374
v 76.32596111 48.03700344 -39.01252753
v 76.46183850 47.88590090 -38.73472530
v 76.58548955 47.79264559 -38.54889673
v 76.71296021 47.72575555 -38.39813195
v 76.81065759 47.68975081 -38.30213620
v 77.06808771 47.62686971 -38.07524888
v 77.34309354 47.59998847 -37.85328203
v 77.63190671 47.61381629 -37.63331001
v 77.92884737 47.67289843 -37.41270859
v 78.17190470 47.75735090 -37.23114280
v 78.39344383 47.86610097 -37.06076669
v 78.60817470 48.00558120 -36.88699125
v 78.81196464 48.17687884 -36.70918877
v 79.00002758 48.38044852 -36.52709675
v 79.16698279 48.61568891 -36.34106237
v 79.30742483 48.88191048 -36.15148375
v 79.41566485 49.17777281 -35.95913476
v 79.48597169 49.50007229 -35.76586503
v 79.50595214 49.68076472 -35.66355462
v 76.20000000 50.42948310 -38.16103374
v 76.31174174 49.89733350 -37.22389051
v 76.44823902 49.66947141 -36.76698484
v 76.57357725 49.54980200 -36.45551611
v 76.63300522 49.51553053 -36.32814117
v 76.69260183 49.49490781 -36.20973485
v 76.75122789 49.48838251 -36.10003811
v 76.80898084 49.49668491 -35.99641609
v 76.86324411 49.52068846 -35.90100279
v 76.90426544 49.55267457 -35.82826229
v 76.93470753 49.58754666 -35.77240740
v 76.97608818 49.66200205 -35.68908689
v 77.00312260 49.75584370 -35.61857362
v 77.01031822 49.80951051 -35.58842978
v 76.78490339 48.65416039 -37.41676441
v 76.87063180 48.62655155 -37.31415019
v 77.11980354 48.58880684 -37.04007165
v 77.21215128 48.59030567 -36.94473375
v 77.28771437 48.59780053 -36.86830832
v 77.36344418 48.61112680 -36.79272831
v 77.43902018 48.63046144 -36.71789154
v 77.50826665 48.65373001 -36.64944530
v 77.58241492 48.68493559 -36.57585335
v 77.64965088 48.71934094 -36.50844931
v 76.20000000 54.13593688 -49.58080001
v 76.20000000 56.30100039 -48.33080001
v 76.20000000 53.43203144 -53.30000001
v 76.20000000 53.89308408 -53.26776006
v 76.20000000 54.34516287 -53.17166775
v 76.20000000 54.77946859 -53.01359340
v 76.20000000 55.18754797 -52.79661374
v 76.20000000 55.56145823 -52.52495204
v 76.20000000 55.89392161 -52.20389588
v 76.20000000 56.17846711 -51.83969426
v 76.20000000 56.40955635 -51.43943594
v 76.20000000 56.58269146 -51.01091150
v 76.20000000 56.69450256 -50.56246169
v 76.20000000 56.74281337 -50.10281506
v 76.20000000 56.72668357 -49.64091811
v 76.20000000 56.64642712 -49.18576115
v 76.20000000 56.50360611 -48.74620328
v 76.20000000 53.43203144 -50.80000001
v 76.20000000 53.54515133 -50.79208989
v 76.20000000 53.65606948 -50.76851351
v 76.20000000 53.76262698 -50.72972975
v 76.20000000 53.86274981 -50.67649350
v 76.20000000 53.95448920 -50.60984093
v 76.20000000 54.03605955 -50.53106936
v 76.20000000 54.10587317 -50.44171200
v 76.20000000 54.16257124 -50.34350807
v 76.20000000 54.20505017 -50.23836902
v 76.20000000 54.23248318 -50.12834124
v 76.20000000 54.24433630 -50.01556632
v 76.20000000 54.24037883 -49.90223927
v 76.20000000 54.22068780 -49.79056589
v 76.20000000 54.18564647 -49.68271977
v 76.20000000 3.17500000 -50.80000001
v 76.20000000 3.17500000 -53.30000001
v 73.02500000 0.00000000 -50.80000001
v 73.43942066 0.02716257 -50.80000001
v 73.84675047 0.10818550 -50.80000001
v 74.24001990 0.24168248 -50.80000001
v 74.61250000 0.42536934 -50.80000001
v 74.95781754 0.65610314 -50.80000001
v 75.27006403 0.92993597 -50.80000001
v 75.54389686 1.24218246 -50.80000001
v 75.77463066 1.58750000 -50.80000001
v 75.95831752 1.95998010 -50.80000001
v 76.09181450 2.35324953 -50.80000001
v 76.17283743 2.76057934 -50.80000001
v 73.02500000 0.00000000 -53.30000001
v 73.43942066 0.02716257 -53.30000001
v 73.84675047 0.10818550 -53.30000001
v 74.24001990 0.24168248 -53.30000001
v 74.61250000 0.42536934 -53.30000001
v 74.95781754 0.65610314 -53.30000001
v 75.27006403 0.92993597 -53.30000001
v 75.54389686 1.24218246 -53.30000001
v 75.77463066 1.58750000 -53.30000001
v 75.95831752 1.95998010 -53.30000001
v 76.09181450 2.35324953 -53.30000001
v 76.17283743 2.76057934 -53.30000001
v 28.57500000 0.00000000 -50.80000001
v 28.57500000 0.00000000 -53.30000001
v 25.40000000 3.17500000 -50.80000001
v 25.42716257 2.76057934 -50.80000001
v 25.50818550 2.35324953 -50.80000001
v 25.64168248 1.95998010 -50.80000001
v 25.82536934 1.58750000 -50.80000001
v 26.05610314 1.24218246 -50.80000001
v 26.32993597 0.92993597 -50.80000001
v 26.64218246 0.65610314 -50.80000001
v 26.98750000 0.42536934 -50.80000001
v 27.35998010 0.24168248 -50.80000001
v 27.75324953 0.10818550 -50.80000001
v 28.16057934 0.02716257 -50.80000001
v 25.40000000 3.17500000 -53.30000001
v 25.42716257 2.76057934 -53.30000001
v 25.50818550 2.35324953 -53.30000001
v 25.64168248 1.95998010 -53.30000001
v 25.82536934 1.58750000 -53.30000001
v 26.05610314 1.24218246 -53.30000001
v 26.32993597 0.92993597 -53.30000001
v 26.64218246 0.65610314 -53.30000001
v 26.98750000 0.42536934 -53.30000001
v 27.35998010 0.24168248 -53.30000001
v 27.75324953 0.10818550 -53.30000001
v 28.16057934 0.02716257 -53.30000001
v 25.40000000 53.43203144 -50.80000001
v 25.40000000 53.43203144 -53.30000001
v 25.40000000 56.30100039 -48.33080001
v 25.40000000 56.50360611 -48.74620328
v 25.40000000 56.64642712 -49.18576115
v 25.40000000 56.72668357 -49.64091811
v 25.40000000 56.74281337 -50.10281506
v 25.40000000 56.69450256 -50.56246169
v 25.40000000 56.58269146 -51.01091150
v 25.40000000 56.40955635 -51.43943594
v 25.40000000 56.17846711 -51.83969426
v 25.40000000 55.89392161 -52.20389588
v 25.40000000 55.56145823 -52.52495204
v 25.40000000 55.18754797 -52.79661374
v 25.40000000 54.77946859 -53.01359340
v 25.40000000 54.34516287 -53.17166775
v 25.40000000 53.89308408 -53.26776006
v 25.40000000 54.13593688 -49.58080001
v 25.40000000 54.18564647 -49.68271977
v 25.40000000 54.22068780 -49.79056589
v 25.40000000 54.24037883 -49.90223927
v 25.40000000 54.24433630 -50.01556632
v 25.40000000 54.23248318 -50.12834124
v 25.40000000 54.20505017 -50.23836902
v 25.40000000 54.16257124 -50.34350807
v 25.40000000 54.10587317 -50.44171200
v 25.40000000 54.03605955 -50.53106936
v 25.40000000 53.95448920 -50.60984093
v 25.40000000 53.86274981 -50.67649350
v 25.40000000 53.76262698 -50.72972975
v 25.40000000 53.65606948 -50.76851351
v 25.40000000 53.54515133 -50.79208989
v 25.40000000 25.74508380 -0.40640000
v 25.40000000 27.91014731 0.84360000
v 25.40000000 25.04117836 2.50000000
v 25.40000000 25.47358552 2.47165854
v 25.40000000 25.89859409 2.38711908
v 25.40000000 26.30893203 2.24782812
v 25.40000000 26.69757836 2.05616896
v 25.40000000 27.05788322 1.81542095
v 25.40000000 27.38368170 1.52970334
v 25.40000000 27.66939930 1.20390486
v 25.40000000 25.04117836 -0.00000000
v 25.40000000 25.14727004 -0.00695362
v 25.40000000 25.25154648 -0.02769549
v 25.40000000 25.35222345 -0.06187072
v 25.40000000 25.44757836 -0.10889455
v 25.40000000 25.53597964 -0.16796241
v 25.40000000 25.61591475 -0.23806361
v 25.40000000 25.68601595 -0.31799871
v 25.40000000 3.17500000 2.50000000
v 25.40000000 3.17500000 -0.00000000
v 28.57500000 -0.00000000 -0.00000000
v 28.16057934 0.02716257 -0.00000000
v 27.75324953 0.10818550 -0.00000000
v 27.35998010 0.24168248 -0.00000000
v 26.98750000 0.42536934 -0.00000000
v 26.64218246 0.65610314 -0.00000000
v 26.32993597 0.92993597 -0.00000000
v 26.05610314 1.24218246 -0.00000000
v 25.82536934 1.58750000 -0.00000000
v 25.64168248 1.95998010 -0.00000000
v 25.50818550 2.35324953 -0.00000000
v 25.42716257 2.76057934 -0.00000000
v 28.57500000 -0.00000000 2.50000000
v 28.16057934 0.02716257 2.50000000
v 27.75324953 0.10818550 2.50000000
v 27.35998010 0.24168248 2.50000000
v 26.98750000 0.42536934 2.50000000
v 26.64218246 0.65610314 2.50000000
v 26.32993597 0.92993597 2.50000000
v 26.05610314 1.24218246 2.50000000
v 25.82536934 1.58750000 2.50000000
v 25.64168248 1.95998010 2.50000000
v 25.50818550 2.35324953 2.50000000
v 25.42716257 2.76057934 2.50000000
v 73.02500000 0.00000000 2.50000000
v 73.02500000 0.00000000 -0.00000000
v 76.20000000 3.17500000 -0.00000000
v 76.17283743 2.76057934 -0.00000000
v 76.09181450 2.35324953 -0.00000000
v 75.95831752 1.95998010 -0.00000000
v 75.77463066 1.58750000 -0.00000000
v 75.54389686 1.24218246 -0.00000000
v 75.27006403 0.92993597 -0.00000000
v 74.95781754 0.65610314 -0.00000000
v 74.61250000 0.42536934 -0.00000000
v 74.24001990 0.24168248 -0.00000000
v 73.84675047 0.10818550 -0.00000000
v 73.43942066 0.02716257 -0.00000000
v 76.20000000 3.17500000 2.50000000
v 76.17283743 2.76057934 2.50000000
v 76.09181450 2.35324953 2.50000000
v 75.95831752 1.95998010 2.50000000
v 75.77463066 1.58750000 2.50000000
v 75.54389686 1.24218246 2.50000000
v 75.27006403 0.92993597 2.50000000
v 74.95781754 0.65610314 2.50000000
v 74.61250000 0.42536934 2.50000000
v 74.24001990 0.24168248 2.50000000
v 73.84675047 0.10818550 2.50000000
v 73.43942066 0.02716257 2.50000000
v 76.20000000 25.04117836 2.50000000
v 76.20000000 25.04117836 -0.00000000
v 76.20000000 27.91014731 0.84360000
v 76.20000000 27.66939930 1.20390486
v 76.20000000 27.38368170 1.52970334
v 76.20000000 27.05788322 1.81542095
v 76.20000000 26.69757836 2.05616896
v 76.20000000 26.30893203 2.24782812
v 76.20000000 25.89859409 2.38711908
v 76.20000000 25.47358552 2.47165854
v 76.20000000 25.74508380 -0.40640000
v 76.20000000 25.68601595 -0.31799871
v 76.20000000 25.61591475 -0.23806361
v 76.20000000 25.53597964 -0.16796241
v 76.20000000 25.44757836 -0.10889455
v 76.20000000 25.35222345 -0.06187072
v 76.20000000 25.25154648 -0.02769549
v 76.20000000 25.14727004 -0.00695362
v 76.20000000 28.08661130 0.53795541
v 76.20000000 25.92154779 -0.71204459
v 78.40344439 27.74803208 -2.19752338
v 78.03819222 27.39984048 -2.15918263
v 77.68042134 27.11241409 -2.07633489
v 77.42275008 26.92770063 -1.98705140
v 77.18702305 26.76955209 -1.88019232
v 76.97209954 26.63025228 -1.75714982
v 76.78090488 26.50526904 -1.62054054
v 76.61501021 26.39064551 -1.47264897
v 76.47528646 26.28307220 -1.31538586
v 76.36255633 26.17930868 -1.15062206
v 76.27711832 26.07696129 -0.97973955
v 76.23073156 25.99963659 -0.84718336
v 76.74061809 29.36474372 -1.26411449
v 76.60450049 29.12018944 -1.03668833
v 76.47737584 28.89999754 -0.77334081
v 76.36928204 28.69463274 -0.47952136
v 76.28572533 28.49504938 -0.16047107
v 76.22902100 28.29404281 0.17965053
v 77.45833097 28.42346574 -1.68904585
v 77.28531902 28.23964770 -1.61003251
v 77.17383309 28.13012593 -1.54879108
v 77.01034361 27.97806211 -1.44238820
v 76.93245580 27.90787554 -1.38374151
v 76.85868183 27.84212730 -1.32277497
v 76.71853440 27.71718525 -1.18978811
v 76.65486717 27.65925076 -1.12029184
v 76.48541837 27.49371320 -0.89561307
v 63.81127696 8.61470807 -50.80000001
v 64.11675542 8.55122892 -50.80000001
v 64.41074489 8.44674504 -50.80000001
v 64.68776891 8.30320276 -50.80000001
v 64.94266704 8.12327601 -50.80000001
v 65.17069101 7.91031649 -50.80000001
v 65.36759318 7.66829122 -50.80000001
v 65.52970561 7.40170868 -50.80000001
v 65.65400847 7.11553479 -50.80000001
v 65.73818622 6.81510045 -50.80000001
v 65.78067081 6.50600216 -50.80000001
v 65.78067081 6.19399784 -50.80000001
v 65.73818622 5.88489955 -50.80000001
v 65.65400847 5.58446521 -50.80000001
v 65.52970561 5.29829132 -50.80000001
v 65.36759318 5.03170878 -50.80000001
v 65.17069101 4.78968351 -50.80000001
v 64.94266704 4.57672399 -50.80000001
v 64.68776891 4.39679724 -50.80000001
v 64.41074489 4.25325496 -50.80000001
v 64.11675542 4.14877108 -50.80000001
v 63.81127696 4.08529193 -50.80000001
v 63.81127696 8.61470807 -53.30000001
v 64.11675542 8.55122892 -53.30000001
v 64.41074489 8.44674504 -53.30000001
v 64.68776891 8.30320276 -53.30000001
v 64.94266704 8.12327601 -53.30000001
v 65.17069101 7.91031649 -53.30000001
v 65.36759318 7.66829122 -53.30000001
v 65.52970561 7.40170868 -53.30000001
v 65.65400847 7.11553479 -53.30000001
v 65.73818622 6.81510045 -53.30000001
v 65.78067081 6.50600216 -53.30000001
v 65.78067081 6.19399784 -53.30000001
v 65.73818622 5.88489955 -53.30000001
v 65.65400847 5.58446521 -53.30000001
v 65.52970561 5.29829132 -53.30000001
v 65.36759318 5.03170878 -53.30000001
v 65.17069101 4.78968351 -53.30000001
v 64.94266704 4.57672399 -53.30000001
v 64.68776891 4.39679724 -53.30000001
v 64.41074489 4.25325496 -53.30000001
v 64.11675542 4.14877108 -53.30000001
v 63.81127696 4.08529193 -53.30000001
v 38.41127696 8.61470807 -50.80000001
v 38.71675542 8.55122892 -50.80000001
v 39.01074489 8.44674504 -50.80000001
v 39.28776891 8.30320276 -50.80000001
v 39.54266704 8.12327601 -50.80000001
v 39.77069101 7.91031649 -50.80000001
v 39.96759318 7.66829122 -50.80000001
v 40.12970561 7.40170868 -50.80000001
v 40.25400847 7.11553479 -50.80000001
v 40.33818622 6.81510045 -50.80000001
v 40.38067081 6.50600216 -50.80000001
v 40.38067081 6.19399784 -50.80000001
v 40.33818622 5.88489955 -50.80000001
v 40.25400847 5.58446521 -50.80000001
v 40.12970561 5.29829132 -50.80000001
v 39.96759318 5.03170878 -50.80000001
v 39.77069101 4.78968351 -50.80000001
v 39.54266704 4.57672399 -50.80000001
v 39.28776891 4.39679724 -50.80000001
v 39.01074489 4.25325496 -50.80000001
v 38.71675542 4.14877108 -50.80000001
v 38.41127696 4.08529193 -50.80000001
v 38.41127696 8.61470807 -53.30000001
v 38.71675542 8.55122892 -53.30000001
v 39.01074489 8.44674504 -53.30000001
v 39.28776891 8.30320276 -53.30000001
v 39.54266704 8.12327601 -53.30000001
v 39.77069101 7.91031649 -53.30000001
v 39.96759318 7.66829122 -53.30000001
v 40.12970561 7.40170868 -53.30000001
v 40.25400847 7.11553479 -53.30000001
v 40.33818622 6.81510045 -53.30000001
v 40.38067081 6.50600216 -53.30000001
v 40.38067081 6.19399784 -53.30000001
v 40.33818622 5.88489955 -53.30000001
v 40.25400847 5.58446521 -53.30000001
v 40.12970561 5.29829132 -53.30000001
v 39.96759318 5.03170878 -53.30000001
v 39.77069101 4.78968351 -53.30000001
v 39.54266704 4.57672399 -53.30000001
v 39.28776891 4.39679724 -53.30000001
v 39.01074489 4.25325496 -53.30000001
v 38.71675542 4.14877108 -53.30000001
v 38.41127696 4.08529193 -53.30000001
v 66.78431884 33.71284394 -9.20696538
v 66.63620081 33.35645240 -8.58967713
v 66.39240508 33.01346469 -7.99560498
v 66.05747310 32.69027000 -7.43581536
v 65.63764402 32.39288885 -6.92073609
v 65.14073847 32.12686088 -6.45996213
v 64.57601284 31.89714169 -6.06207683
v 63.95398691 31.70801052 -5.73449203
v 63.28624785 31.56299051 -5.48331002
v 62.58523437 31.46478313 -5.31320984
v 61.86400503 31.41521779 -5.22736014
v 61.13599497 31.41521779 -5.22736014
v 60.41476563 31.46478313 -5.31320984
v 59.71375215 31.56299051 -5.48331002
v 59.04601309 31.70801052 -5.73449203
v 58.42398716 31.89714169 -6.06207683
v 57.85926153 32.12686088 -6.45996213
v 57.36235598 32.39288885 -6.92073609
v 56.94252690 32.69027000 -7.43581536
v 56.60759492 33.01346469 -7.99560498
v 56.36379919 33.35645240 -8.58967713
v 56.21568116 33.71284394 -9.20696538
v 66.78431884 31.54778043 -10.45696538
v 66.63620081 31.19138890 -9.83967713
v 66.39240508 30.84840118 -9.24560498
v 66.05747310 30.52520649 -8.68581536
v 65.63764402 30.22782534 -8.17073609
v 65.14073847 29.96179737 -7.70996213
v 64.57601284 29.73207818 -7.31207683
v 63.95398691 29.54294701 -6.98449203
v 63.28624785 29.39792700 -6.73331002
v 62.58523437 29.29971962 -6.56320984
v 61.86400503 29.25015428 -6.47736014
v 61.13599497 29.25015428 -6.47736014
v 60.41476563 29.29971962 -6.56320984
v 59.71375215 29.39792700 -6.73331002
v 59.04601309 29.54294701 -6.98449203
v 58.42398716 29.73207818 -7.31207683
v 57.85926153 29.96179737 -7.70996213
v 57.36235598 30.22782534 -8.17073609
v 56.94252690 30.52520649 -8.68581536
v 56.60759492 30.84840118 -9.24560498
v 56.36379919 31.19138890 -9.83967713
v 56.21568116 31.54778043 -10.45696538
v 61.23529193 6.66127696 2.50000000
v 61.29877108 6.96675542 2.50000000
v 61.40325496 7.26074489 2.50000000
v 61.54679724 7.53776891 2.50000000
v 61.72672399 7.79266704 2.50000000
v 61.93968351 8.02069101 2.50000000
v 62.18170878 8.21759318 2.50000000
v 62.44829132 8.37970561 2.50000000
v 62.73446521 8.50400847 2.50000000
v 63.03489955 8.58818622 2.50000000
v 63.34399784 8.63067081 2.50000000
v 63.65600216 8.63067081 2.50000000
v 63.96510045 8.58818622 2.50000000
v 64.26553479 8.50400847 2.50000000
v 64.55170868 8.37970561 2.50000000
v 64.81829122 8.21759318 2.50000000
v 65.06031649 8.02069101 2.50000000
v 65.27327601 7.79266704 2.50000000
v 65.45320276 7.53776891 2.50000000
v 65.59674504 7.26074489 2.50000000
v 65.70122892 6.96675542 2.50000000
v 65.76470807 6.66127696 2.50000000
v 61.23529193 6.66127696 -0.00000000
v 61.29877108 6.96675542 -0.00000000
v 61.40325496 7.26074489 -0.00000000
v 61.54679724 7.53776891 -0.00000000
v 61.72672399 7.79266704 -0.00000000
v 61.93968351 8.02069101 -0.00000000
v 62.18170878 8.21759318 -0.00000000
v 62.44829132 8.37970561 -0.00000000
v 62.73446521 8.50400847 -0.00000000
v 63.03489955 8.58818622 -0.00000000
v 63.34399784 8.63067081 -0.00000000
v 63.65600216 8.63067081 -0.00000000
v 63.96510045 8.58818622 -0.00000000
v 64.26553479 8.50400847 -0.00000000
v 64.55170868 8.37970561 -0.00000000
v 64.81829122 8.21759318 -0.00000000
v 65.06031649 8.02069101 -0.00000000
v 65.27327601 7.79266704 -0.00000000
v 65.45320276 7.53776891 -0.00000000
v 65.59674504 7.26074489 -0.00000000
v 65.70122892 6.96675542 -0.00000000
v 65.76470807 6.66127696 -0.00000000
v 35.83529193 6.66127696 2.50000000
v 35.89877108 6.96675542 2.50000000
v 36.00325496 7.26074489 2.50000000
v 36.14679724 7.53776891 2.50000000
v 36.32672399 7.79266704 2.50000000
v 36.53968351 8.02069101 2.50000000
v 36.78170878 8.21759318 2.50000000
v 37.04829132 8.37970561 2.50000000
v 37.33446521 8.50400847 2.50000000
v 37.63489955 8.58818622 2.50000000
v 37.94399784 8.63067081 2.50000000
v 38.25600216 8.63067081 2.50000000
v 38.56510045 8.58818622 2.50000000
v 38.86553479 8.50400847 2.50000000
v 39.15170868 8.37970561 2.50000000
v 39.41829122 8.21759318 2.50000000
v 39.66031649 8.02069101 2.50000000
v 39.87327601 7.79266704 2.50000000
v 40.05320276 7.53776891 2.50000000
v 40.19674504 7.26074489 2.50000000
v 40.30122892 6.96675542 2.50000000
v 40.36470807 6.66127696 2.50000000
v 35.83529193 6.66127696 -0.00000000
v 35.89877108 6.96675542 -0.00000000
v 36.00325496 7.26074489 -0.00000000
v 36.14679724 7.53776891 -0.00000000
v 36.32672399 7.79266704 -0.00000000
v 36.53968351 8.02069101 -0.00000000
v 36.78170878 8.21759318 -0.00000000
v 37.04829132 8.37970561 -0.00000000
v 37.33446521 8.50400847 -0.00000000
v 37.63489955 8.58818622 -0.00000000
v 37.94399784 8.63067081 -0.00000000
v 38.25600216 8.63067081 -0.00000000
v 38.56510045 8.58818622 -0.00000000
v 38.86553479 8.50400847 -0.00000000
v 39.15170868 8.37970561 -0.00000000
v 39.41829122 8.21759318 -0.00000000
v 39.66031649 8.02069101 -0.00000000
v 39.87327601 7.79266704 -0.00000000
v 40.05320276 7.53776891 -0.00000000
v 40.19674504 7.26074489 -0.00000000
v 40.30122892 6.96675542 -0.00000000
v 40.36470807 6.66127696 -0.00000000
v 79.47993563 29.84257009 -1.80574732
v 79.38261900 29.37787286 -1.91053919
v 79.22276483 28.92881591 -2.00630113
v 79.00293646 28.50305106 -2.08861538
v 78.72802669 28.10732546 -2.15358646
v 76.99573552 30.06873044 -1.60028409
v 76.94551275 29.82828209 -1.50072816
v 76.89277477 29.66984753 -1.42870222
v 76.82334570 29.51248319 -1.34919216
v 78.25765702 30.15434866 -1.70749147
v 78.23195858 29.92117700 -1.72291874
v 78.20205618 29.76298974 -1.73249657
v 78.14091203 29.53630950 -1.74418398
v 78.08715047 29.38438137 -1.75014733
v 78.02398463 29.23605287 -1.75403576
v 77.95178545 29.09185965 -1.75553513
v 77.86740683 28.94655427 -1.75424724
v 77.77807250 28.81234974 -1.74997752
f 24 26 25
f 24 48 26
f 23 47 48
f 23 48 24
f 22 46 47
f 22 47 23
f 21 45 46
f 21 46 22
f 20 43 44
f 20 44 45
f 20 45 21
f 19 43 20
f 18 42 43
f 18 43 19
f 17 41 42
f 17 42 18
f 16 40 41
f 16 41 17
f 15 39 40
f 15 40 16
f 14 38 39
f 14 39 15
f 13 38 14
f 13 37 38
f 12 37 13
f 12 36 37
f 11 36 12
f 11 34 35
f 11 35 36
f 10 34 11
f 10 33 34
f 9 33 10
f 8 33 9
f 8 32 33
f 7 32 8
f 7 31 32
f 6 30 31
f 6 31 7
f 5 30 6
f 5 28 29
f 5 29 30
f 4 28 5
f 3 27 28
f 3 28 4
f 2 1 27
f 2 27 3
f 72 74 73
f 72 96 74
f 71 95 96
f 71 96 72
f 70 94 95
f 70 95 71
f 69 93 94
f 69 94 70
f 68 92 93
f 68 93 69
f 67 91 92
f 67 92 68
f 66 90 91
f 66 91 67
f 65 88 89
f 65 89 90
f 65 90 66
f 64 88 65
f 63 86 87
f 63 87 88
f 63 88 64
f 62 86 63
f 61 86 62
f 61 85 86
f 60 85 61
f 60 83 84
f 60 84 85
f 59 83 60
f 58 83 59
f 58 82 83
f 57 82 58
f 57 80 81
f 57 81 82
f 56 80 57
f 56 79 80
f 55 79 56
f 54 79 55
f 54 78 79
f 53 77 78
f 53 78 54
f 52 76 77
f 52 77 53
f 51 75 76
f 51 76 52
f 50 49 75
f 50 75 51
f 121 144 122
f 120 143 144
f 120 144 121
f 119 142 143
f 119 143 120
f 118 141 142
f 118 142 119
f 117 141 118
f 116 139 140
f 116 140 141
f 116 141 117
f 115 139 116
f 114 137 138
f 114 138 139
f 114 139 115
f 113 136 137
f 113 137 114
f 112 136 113
f 111 134 135
f 111 135 136
f 111 136 112
f 110 133 134
f 110 134 111
f 109 133 110
f 108 133 109
f 108 132 133
f 107 132 108
f 107 131 132
f 106 131 107
f 106 129 130
f 106 130 131
f 105 129 106
f 104 129 105
f 104 127 128
f 104 128 129
f 103 127 104
f 103 126 127
f 102 126 103
f 101 125 126
f 101 126 102
f 100 124 125
f 100 125 101
f 99 123 124
f 99 124 100
f 98 97 123
f 98 123 99
f 169 192 170
f 168 191 192
f 168 192 169
f 167 190 191
f 167 191 168
f 166 189 190
f 166 190 167
f 165 189 166
f 164 187 188
f 164 188 189
f 164 189 165
f 163 187 164
f 162 185 186
f 162 186 187
f 162 187 163
f 161 184 185
f 161 185 162
f 160 184 161
f 159 182 183
f 159 183 184
f 159 184 160
f 158 181 182
f 158 182 159
f 157 181 158
f 156 181 157
f 156 180 181
f 155 180 156
f 155 179 180
f 154 179 155
f 154 177 178
f 154 178 179
f 153 177 154
f 152 177 153
f 152 175 176
f 152 176 177
f 151 175 152
f 151 174 175
f 150 174 151
f 149 173 174
f 149 174 150
f 148 172 173
f 148 173 149
f 147 171 172
f 147 172 148
f 146 145 171
f 146 171 147
f 216 238 217
f 215 237 238
f 215 238 216
f 214 236 237
f 214 237 215
f 213 235 236
f 213 236 214
f 212 234 235
f 212 235 213
f 211 233 234
f 211 234 212
f 210 232 233
f 210 233 211
f 209 232 210
f 208 230 231
f 208 231 232
f 208 232 209
f 207 229 230
f 207 230 208
f 206 228 229
f 206 229 207
f 205 227 228
f 205 228 206
f 204 226 227
f 204 227 205
f 203 226 204
f 202 226 203
f 202 224 225
f 202 225 226
f 201 224 202
f 201 223 224
f 200 223 201
f 199 223 200
f 199 221 222
f 199 222 223
f 198 221 199
f 198 220 221
f 197 220 198
f 196 218 219
f 196 219 220
f 196 220 197
f 195 193 218
f 195 218 196
f 194 193 195
f 242 253 241
f 242 254 253
f 243 255 254
f 243 254 242
f 244 256 255
f 244 255 243
f 245 257 256
f 245 256 244
f 246 258 257
f 246 257 245
f 247 259 258
f 247 258 246
f 248 260 259
f 248 259 247
f 249 261 260
f 249 260 248
f 250 262 261
f 250 261 249
f 251 263 262
f 251 262 250
f 252 264 263
f 252 263 251
f 239 240 264
f 239 264 252
f 267 266 265
f 267 265 268
f 285 269 270
f 285 270 271
f 285 284 269
f 286 271 272
f 286 285 271
f 287 272 273
f 287 286 272
f 288 273 274
f 288 287 273
f 289 288 274
f 275 290 289
f 275 289 274
f 276 291 290
f 276 290 275
f 277 292 291
f 277 291 276
f 278 293 292
f 278 292 277
f 279 294 293
f 279 293 278
f 280 295 294
f 280 294 279
f 281 296 295
f 281 295 280
f 282 297 296
f 282 296 281
f 283 298 297
f 283 297 282
f 266 267 298
f 266 298 283
f 300 299 269
f 300 269 284
f 300 312 299
f 301 312 300
f 302 313 312
f 302 312 301
f 303 314 313
f 303 313 302
f 304 315 314
f 304 314 303
f 305 316 315
f 305 315 304
f 306 317 316
f 306 316 305
f 307 318 317
f 307 317 306
f 308 319 318
f 308 318 307
f 309 320 319
f 309 319 308
f 310 321 320
f 310 320 309
f 311 322 321
f 311 321 310
f 241 253 322
f 241 322 311
f 323 240 239
f 324 323 239
f 354 338 339
f 354 339 323
f 354 323 324
f 353 337 338
f 353 338 354
f 352 336 337
f 352 337 353
f 351 335 336
f 351 336 352
f 350 335 351
f 334 350 349
f 334 335 350
f 333 349 348
f 333 334 349
f 332 348 347
f 332 333 348
f 331 347 346
f 331 332 347
f 330 346 345
f 330 331 346
f 329 344 343
f 329 345 344
f 329 330 345
f 328 343 342
f 328 329 343
f 327 342 341
f 327 328 342
f 326 327 341
f 325 341 340
f 325 326 341
f 355 325 340
f 356 355 340
f 358 360 359
f 358 362 360
f 357 361 362
f 357 362 358
f 216 217 361
f 216 361 357
f 364 359 360
f 364 360 363
f 386 388 387
f 386 410 388
f 385 409 410
f 385 410 386
f 384 408 409
f 384 409 385
f 383 407 408
f 383 408 384
f 382 406 407
f 382 407 383
f 381 405 406
f 381 406 382
f 380 404 405
f 380 405 381
f 379 403 404
f 379 404 380
f 378 402 403
f 378 403 379
f 377 401 402
f 377 402 378
f 376 400 401
f 376 401 377
f 375 400 376
f 375 399 400
f 374 399 375
f 374 398 399
f 373 398 374
f 373 396 397
f 373 397 398
f 372 396 373
f 372 395 396
f 371 395 372
f 370 395 371
f 370 393 394
f 370 394 395
f 369 393 370
f 368 393 369
f 368 392 393
f 367 392 368
f 367 391 392
f 366 390 391
f 366 391 367
f 365 389 390
f 365 390 366
f 364 363 389
f 364 389 365
f 412 413 411
f 412 414 413
f 460 411 413
f 460 413 437
f 459 437 436
f 459 460 437
f 458 436 435
f 458 459 436
f 457 435 434
f 457 458 435
f 456 434 433
f 456 457 434
f 455 433 432
f 455 456 433
f 454 432 431
f 454 455 432
f 453 431 430
f 453 454 431
f 452 430 429
f 452 453 430
f 451 429 428
f 451 452 429
f 450 428 427
f 450 451 428
f 449 450 427
f 449 427 426
f 448 449 426
f 448 426 425
f 447 424 423
f 447 425 424
f 447 448 425
f 446 447 423
f 445 423 422
f 445 446 423
f 444 422 421
f 444 445 422
f 443 421 420
f 443 444 421
f 442 420 419
f 442 443 420
f 441 419 418
f 441 442 419
f 440 418 417
f 440 441 418
f 439 417 416
f 439 440 417
f 438 416 415
f 438 439 416
f 462 438 415
f 462 415 461
f 466 470 467
f 465 469 470
f 465 470 466
f 464 468 469
f 464 469 465
f 463 468 464
f 462 461 468
f 462 468 463
f 491 472 471
f 492 473 472
f 492 472 491
f 466 490 504
f 466 467 490
f 505 474 473
f 505 475 474
f 505 476 475
f 505 477 476
f 505 478 477
f 505 492 493
f 505 473 492
f 506 493 494
f 506 478 505
f 506 505 493
f 507 479 478
f 507 478 506
f 507 506 494
f 508 479 507
f 508 480 479
f 508 494 495
f 508 507 494
f 509 508 495
f 509 480 508
f 510 481 480
f 510 495 496
f 510 480 509
f 510 509 495
f 511 510 496
f 511 481 510
f 512 482 481
f 512 496 497
f 512 511 496
f 512 481 511
f 513 512 497
f 513 482 512
f 514 504 490
f 514 483 482
f 514 484 483
f 514 485 484
f 514 486 485
f 514 487 486
f 514 488 487
f 514 489 488
f 514 490 489
f 514 497 498
f 514 498 499
f 514 499 500
f 514 500 501
f 514 501 502
f 514 502 503
f 514 503 504
f 514 513 497
f 514 482 513
f 491 515 516
f 471 515 491
f 538 523 524
f 537 522 523
f 537 523 538
f 539 524 525
f 539 538 524
f 536 521 522
f 536 522 537
f 540 525 526
f 540 539 525
f 535 520 521
f 535 521 536
f 541 526 527
f 541 540 526
f 534 519 520
f 534 520 535
f 542 527 528
f 542 541 527
f 533 518 519
f 533 519 534
f 543 528 529
f 543 542 528
f 532 517 518
f 532 518 533
f 544 529 530
f 544 543 529
f 545 544 530
f 546 530 531
f 546 531 516
f 546 545 530
f 515 546 516
f 517 547 548
f 532 547 517
f 549 561 562
f 550 562 563
f 550 549 562
f 551 563 564
f 551 550 563
f 552 564 565
f 552 551 564
f 553 565 566
f 553 552 565
f 554 566 567
f 554 553 566
f 555 567 568
f 555 554 567
f 556 568 569
f 556 555 568
f 557 569 570
f 557 556 569
f 558 570 571
f 558 557 570
f 559 571 572
f 559 558 571
f 560 572 548
f 560 559 572
f 547 560 548
f 561 573 574
f 549 573 561
f 576 575 587
f 576 587 588
f 577 588 589
f 577 576 588
f 578 589 590
f 578 577 589
f 579 590 591
f 579 578 590
f 580 591 592
f 580 579 591
f 581 592 593
f 581 580 592
f 582 593 594
f 582 581 593
f 583 594 595
f 583 582 594
f 584 595 596
f 584 583 595
f 585 596 597
f 585 584 596
f 586 597 598
f 586 585 597
f 573 598 574
f 573 586 598
f 575 599 600
f 575 600 587
f 630 614 615
f 630 615 600
f 630 600 599
f 629 613 614
f 629 614 630
f 628 612 613
f 628 613 629
f 627 611 612
f 627 612 628
f 626 611 627
f 610 626 625
f 610 611 626
f 609 625 624
f 609 610 625
f 608 624 623
f 608 609 624
f 607 623 622
f 607 608 623
f 606 622 621
f 606 607 622
f 605 621 620
f 605 606 621
f 604 620 619
f 604 605 620
f 603 619 618
f 603 604 619
f 602 618 617
f 602 603 618
f 601 617 616
f 601 602 617
f 616 631 632
f 616 632 601
f 633 642 641
f 634 643 642
f 634 642 633
f 635 644 643
f 635 643 634
f 636 645 644
f 636 644 635
f 637 645 636
f 638 646 645
f 638 645 637
f 640 648 647
f 640 631 648
f 640 632 631
f 639 647 646
f 639 646 638
f 639 640 647
f 633 650 649
f 633 641 650
f 674 649 650
f 674 650 662
f 673 662 661
f 673 674 662
f 672 661 660
f 672 673 661
f 671 660 659
f 671 672 660
f 670 659 658
f 670 671 659
f 669 658 657
f 669 670 658
f 668 657 656
f 668 669 657
f 667 656 655
f 667 668 656
f 666 655 654
f 666 667 655
f 665 654 653
f 665 666 654
f 664 653 652
f 664 665 653
f 663 652 651
f 663 664 652
f 651 676 675
f 663 651 675
f 700 675 676
f 700 676 688
f 699 688 687
f 699 700 688
f 698 687 686
f 698 699 687
f 697 686 685
f 697 698 686
f 696 685 684
f 696 697 685
f 695 683 682
f 695 684 683
f 695 696 684
f 694 695 682
f 693 681 680
f 693 682 681
f 693 694 682
f 692 693 680
f 691 680 679
f 691 692 680
f 690 679 678
f 690 691 679
f 689 678 677
f 689 690 678
f 689 702 701
f 689 677 702
f 711 703 704
f 712 711 704
f 705 713 712
f 705 712 704
f 706 714 713
f 706 713 705
f 707 715 714
f 707 714 706
f 708 716 715
f 708 715 707
f 709 717 716
f 709 716 708
f 710 718 717
f 710 717 709
f 701 702 718
f 701 718 710
f 711 719 703
f 720 719 711
f 739 722 721
f 739 721 733
f 739 733 734
f 740 723 722
f 740 722 739
f 740 739 734
f 741 723 740
f 741 740 734
f 742 724 723
f 742 734 735
f 742 723 741
f 742 741 734
f 743 742 735
f 743 724 742
f 744 725 724
f 744 743 735
f 744 724 743
f 745 726 725
f 745 735 736
f 745 725 744
f 745 744 735
f 746 727 726
f 746 745 736
f 746 726 745
f 747 719 720
f 747 728 727
f 747 729 728
f 747 730 729
f 747 731 730
f 747 732 731
f 747 720 732
f 747 736 737
f 747 737 738
f 747 738 719
f 747 727 746
f 747 746 736
f 146 791 145
f 769 790 791
f 769 791 146
f 768 789 790
f 768 790 769
f 767 788 789
f 767 789 768
f 766 787 788
f 766 788 767
f 765 786 787
f 765 787 766
f 764 785 786
f 764 786 765
f 763 784 785
f 763 785 764
f 762 783 784
f 762 784 763
f 761 782 783
f 761 783 762
f 760 781 782
f 760 782 761
f 759 780 781
f 759 781 760
f 758 780 759
f 758 779 780
f 757 779 758
f 757 778 779
f 756 778 757
f 756 777 778
f 755 777 756
f 754 777 755
f 754 775 776
f 754 776 777
f 753 775 754
f 753 774 775
f 752 774 753
f 752 773 774
f 751 773 752
f 751 772 773
f 750 771 772
f 750 772 751
f 749 771 750
f 748 170 770
f 748 770 771
f 748 771 749
f 169 170 748
f 98 835 97
f 813 834 835
f 813 835 98
f 812 833 834
f 812 834 813
f 811 832 833
f 811 833 812
f 810 831 832
f 810 832 811
f 809 830 831
f 809 831 810
f 808 829 830
f 808 830 809
f 807 828 829
f 807 829 808
f 806 827 828
f 806 828 807
f 805 826 827
f 805 827 806
f 804 825 826
f 804 826 805
f 803 824 825
f 803 825 804
f 802 824 803
f 802 823 824
f 801 823 802
f 801 822 823
f 800 822 801
f 800 821 822
f 799 821 800
f 798 821 799
f 798 819 820
f 798 820 821
f 797 819 798
f 797 818 819
f 796 818 797
f 796 817 818
f 795 817 796
f 795 816 817
f 794 815 816
f 794 816 795
f 793 815 794
f 792 122 814
f 792 814 815
f 792 815 793
f 121 122 792
f 858 355 356
f 858 836 355
f 859 837 836
f 859 836 858
f 860 838 837
f 860 837 859
f 861 839 838
f 861 838 860
f 862 840 839
f 862 839 861
f 863 841 840
f 863 840 862
f 864 842 841
f 864 841 863
f 865 843 842
f 865 842 864
f 866 844 843
f 866 843 865
f 867 845 844
f 867 844 866
f 868 846 845
f 868 845 867
f 869 846 868
f 869 847 846
f 870 847 869
f 870 848 847
f 871 848 870
f 871 849 848
f 872 849 871
f 872 850 849
f 873 850 872
f 873 851 850
f 874 852 851
f 874 851 873
f 875 852 874
f 875 853 852
f 876 854 853
f 876 853 875
f 877 855 854
f 877 854 876
f 878 856 855
f 878 855 877
f 879 857 856
f 879 856 878
f 268 857 879
f 268 265 857
f 50 923 49
f 901 922 923
f 901 923 50
f 900 921 922
f 900 922 901
f 899 920 921
f 899 921 900
f 898 919 920
f 898 920 899
f 897 918 919
f 897 919 898
f 896 917 918
f 896 918 897
f 895 916 917
f 895 917 896
f 894 915 916
f 894 916 895
f 893 915 894
f 892 914 915
f 892 915 893
f 891 913 914
f 891 914 892
f 890 913 891
f 890 911 912
f 890 912 913
f 889 911 890
f 888 911 889
f 888 909 910
f 888 910 911
f 887 909 888
f 886 909 887
f 886 907 908
f 886 908 909
f 885 907 886
f 885 906 907
f 884 906 885
f 884 905 906
f 883 905 884
f 882 904 905
f 882 905 883
f 881 903 904
f 881 904 882
f 880 902 903
f 880 903 881
f 73 74 902
f 73 902 880
f 2 967 1
f 945 966 967
f 945 967 2
f 944 965 966
f 944 966 945
f 943 964 965
f 943 965 944
f 942 963 964
f 942 964 943
f 941 962 963
f 941 963 942
f 940 961 962
f 940 962 941
f 939 960 961
f 939 961 940
f 938 959 960
f 938 960 939
f 937 958 959
f 937 959 938
f 936 958 937
f 935 957 958
f 935 958 936
f 934 957 935
f 934 956 957
f 933 956 934
f 933 954 955
f 933 955 956
f 932 954 933
f 931 954 932
f 931 953 954
f 930 953 931
f 930 952 953
f 929 952 930
f 929 951 952
f 928 951 929
f 928 950 951
f 927 949 950
f 927 950 928
f 926 949 927
f 926 947 948
f 926 948 949
f 925 947 926
f 924 946 947
f 924 947 925
f 25 26 946
f 25 946 924
f 194 388 193
f 194 387 388
f 977 968 414
f 977 414 412
f 977 412 973
f 978 968 977
f 978 977 973
f 979 969 968
f 979 968 978
f 979 978 973
f 980 970 969
f 980 973 974
f 980 969 979
f 980 979 973
f 981 980 974
f 981 970 980
f 982 971 970
f 982 974 975
f 982 981 974
f 982 970 981
f 983 982 975
f 983 971 982
f 984 972 971
f 984 975 976
f 984 971 983
f 984 983 975
f 985 721 972
f 985 976 733
f 985 733 721
f 985 972 984
f 985 984 976
f 738 492 491
f 738 491 719
f 737 492 738
f 736 493 492
f 736 492 737
f 735 494 493
f 735 493 736
f 734 495 494
f 734 496 495
f 734 494 735
f 733 497 496
f 733 498 497
f 733 496 734
f 976 499 498
f 976 498 733
f 975 500 499
f 975 501 500
f 975 499 976
f 974 502 501
f 974 501 975
f 973 503 502
f 973 504 503
f 973 502 974
f 412 466 504
f 412 504 973
f 369 412 368
f 367 368 412
f 370 412 369
f 366 367 412
f 371 412 370
f 365 366 412
f 372 412 371
f 364 365 412
f 373 412 372
f 374 412 373
f 375 412 374
f 411 364 412
f 359 364 411
f 358 359 411
f 357 358 411
f 216 357 411
f 215 411 460
f 215 216 411
f 466 412 375
f 466 375 376
f 466 376 377
f 465 466 377
f 465 377 378
f 464 465 378
f 214 215 460
f 214 460 459
f 463 378 379
f 463 464 378
f 462 379 380
f 462 463 379
f 462 380 381
f 382 462 381
f 213 459 458
f 213 214 459
f 383 462 382
f 212 458 457
f 212 213 458
f 384 462 383
f 211 212 457
f 456 211 457
f 385 462 384
f 210 211 456
f 386 462 385
f 455 209 210
f 455 210 456
f 454 209 455
f 454 208 209
f 453 207 208
f 453 208 454
f 452 206 207
f 452 207 453
f 451 205 206
f 451 206 452
f 450 204 205
f 450 205 451
f 438 386 387
f 438 387 194
f 438 462 386
f 449 203 204
f 449 204 450
f 439 438 194
f 448 203 449
f 448 202 203
f 440 439 194
f 440 194 195
f 447 202 448
f 447 201 202
f 441 195 196
f 441 440 195
f 446 201 447
f 446 200 201
f 442 441 196
f 442 196 197
f 445 200 446
f 445 199 200
f 443 442 197
f 443 197 198
f 444 199 445
f 444 443 198
f 444 198 199
f 634 633 701
f 634 701 710
f 635 710 709
f 635 634 710
f 636 709 708
f 636 635 709
f 637 708 707
f 637 636 708
f 638 707 706
f 638 637 707
f 639 706 705
f 639 638 706
f 640 705 704
f 640 639 705
f 632 704 703
f 632 640 704
f 691 690 689
f 694 692 691
f 694 693 692
f 694 691 689
f 697 696 695
f 698 695 694
f 698 694 689
f 698 697 695
f 700 699 698
f 897 689 701
f 897 701 896
f 895 896 701
f 675 698 689
f 675 700 698
f 898 689 897
f 894 895 701
f 899 689 898
f 893 894 701
f 900 689 899
f 892 893 701
f 901 689 900
f 891 892 701
f 50 689 901
f 890 891 701
f 51 675 689
f 51 689 50
f 889 890 701
f 52 675 51
f 888 889 701
f 53 675 52
f 887 888 701
f 54 675 53
f 55 675 54
f 56 675 55
f 57 675 56
f 58 675 57
f 59 675 58
f 60 675 59
f 61 675 60
f 62 675 61
f 63 675 62
f 941 885 940
f 941 884 885
f 939 940 885
f 939 885 886
f 939 886 887
f 942 884 941
f 942 883 884
f 938 701 633
f 938 939 887
f 938 887 701
f 943 883 942
f 943 882 883
f 937 938 633
f 944 881 882
f 944 882 943
f 936 937 633
f 945 73 880
f 945 880 881
f 945 881 944
f 935 936 633
f 2 73 945
f 934 935 633
f 3 73 2
f 3 71 72
f 3 72 73
f 933 934 633
f 4 71 3
f 932 933 633
f 5 69 70
f 5 70 71
f 5 71 4
f 931 932 633
f 6 69 5
f 930 931 633
f 7 68 69
f 7 69 6
f 929 930 633
f 8 66 67
f 8 67 68
f 8 68 7
f 928 929 633
f 9 65 66
f 9 66 8
f 10 65 9
f 649 926 927
f 649 927 928
f 649 928 633
f 649 24 25
f 649 25 924
f 649 924 925
f 649 925 926
f 663 24 649
f 663 12 13
f 663 13 14
f 663 14 15
f 663 15 16
f 663 16 17
f 663 17 18
f 663 18 19
f 663 19 20
f 663 20 21
f 663 21 22
f 663 22 23
f 663 23 24
f 665 664 663
f 672 674 673
f 671 674 672
f 667 666 665
f 667 665 663
f 670 649 674
f 670 674 671
f 669 668 667
f 669 663 649
f 669 667 663
f 669 649 670
f 663 675 12
f 12 675 11
f 11 675 10
f 10 675 63
f 10 63 64
f 10 64 65
f 270 600 615
f 270 269 600
f 271 615 614
f 271 270 615
f 272 614 613
f 272 271 614
f 273 613 612
f 273 272 613
f 274 612 611
f 274 273 612
f 275 611 610
f 275 274 611
f 276 610 609
f 276 275 610
f 277 609 608
f 277 276 609
f 278 608 607
f 278 277 608
f 279 607 606
f 279 278 607
f 280 606 605
f 280 279 606
f 281 605 604
f 281 280 605
f 282 604 603
f 282 281 604
f 283 603 602
f 283 282 603
f 266 602 601
f 266 283 602
f 518 517 323
f 518 339 338
f 518 323 339
f 519 338 337
f 519 518 338
f 520 337 336
f 520 519 337
f 521 336 335
f 521 520 336
f 522 335 334
f 522 521 335
f 523 334 333
f 523 522 334
f 524 333 332
f 524 523 333
f 525 332 331
f 525 524 332
f 526 331 330
f 526 525 331
f 527 330 329
f 527 526 330
f 528 329 328
f 528 527 329
f 529 328 327
f 529 528 328
f 530 327 326
f 530 529 327
f 531 530 326
f 516 326 325
f 516 531 326
f 853 632 852
f 851 852 632
f 854 632 853
f 850 851 632
f 855 632 854
f 849 850 632
f 856 632 855
f 848 849 632
f 857 632 856
f 265 632 857
f 703 843 844
f 703 844 845
f 703 845 846
f 703 846 847
f 703 847 848
f 703 848 632
f 719 839 840
f 719 840 841
f 719 841 842
f 719 842 843
f 719 843 703
f 838 839 719
f 837 838 719
f 836 837 719
f 355 836 719
f 601 632 265
f 266 601 265
f 491 355 719
f 516 325 491
f 355 491 325
f 299 600 269
f 312 600 299
f 313 600 312
f 314 600 313
f 315 600 314
f 316 600 315
f 517 240 323
f 517 259 260
f 517 260 261
f 517 261 262
f 517 262 263
f 517 263 264
f 517 264 240
f 591 590 589
f 592 591 589
f 593 592 589
f 593 588 587
f 593 589 588
f 595 594 593
f 596 595 593
f 598 593 587
f 598 597 596
f 598 596 593
f 140 587 600
f 140 139 587
f 138 587 139
f 574 598 587
f 141 140 600
f 137 587 138
f 142 141 600
f 136 587 137
f 143 142 600
f 135 587 136
f 144 143 600
f 134 587 135
f 122 144 600
f 122 600 316
f 133 587 134
f 814 316 317
f 814 122 316
f 132 574 587
f 132 587 133
f 815 317 318
f 815 814 317
f 131 574 132
f 816 318 319
f 816 815 318
f 130 574 131
f 817 319 320
f 817 816 319
f 129 574 130
f 128 574 129
f 127 574 128
f 126 574 127
f 125 574 126
f 124 574 125
f 123 574 124
f 97 574 123
f 835 574 97
f 834 574 835
f 187 819 818
f 188 187 818
f 186 820 819
f 186 821 820
f 186 819 187
f 189 818 817
f 189 817 320
f 189 188 818
f 185 821 186
f 190 189 320
f 190 320 321
f 184 821 185
f 184 822 821
f 184 823 822
f 191 190 321
f 191 321 322
f 183 823 184
f 192 191 322
f 192 322 253
f 182 824 823
f 182 823 183
f 170 253 254
f 170 192 253
f 181 825 824
f 181 826 825
f 181 824 182
f 770 254 255
f 770 170 254
f 180 826 181
f 771 255 256
f 771 770 255
f 179 827 826
f 179 826 180
f 772 256 257
f 772 771 256
f 178 828 827
f 178 827 179
f 773 257 258
f 773 772 257
f 177 829 828
f 177 830 829
f 177 828 178
f 774 773 258
f 176 830 177
f 175 831 830
f 175 830 176
f 174 832 831
f 174 833 832
f 174 831 175
f 173 833 174
f 172 574 834
f 172 834 833
f 172 833 173
f 561 783 782
f 561 784 783
f 561 785 784
f 561 786 785
f 561 787 786
f 561 788 787
f 561 789 788
f 561 790 789
f 561 791 790
f 561 145 791
f 561 171 145
f 561 172 171
f 561 574 172
f 548 561 782
f 548 774 258
f 548 258 259
f 548 775 774
f 548 776 775
f 548 777 776
f 548 778 777
f 548 779 778
f 548 780 779
f 548 781 780
f 548 782 781
f 548 259 517
f 563 562 561
f 570 572 571
f 570 548 572
f 566 565 564
f 568 570 569
f 568 548 570
f 567 564 563
f 567 561 548
f 567 563 561
f 567 566 564
f 567 548 568
f 732 720 471
f 731 471 472
f 731 732 471
f 730 472 473
f 730 731 472
f 729 473 474
f 729 730 473
f 728 474 475
f 728 729 474
f 727 475 476
f 727 728 475
f 726 476 477
f 726 727 476
f 725 477 478
f 725 726 477
f 724 478 479
f 724 725 478
f 723 479 480
f 723 724 479
f 722 480 481
f 722 723 480
f 721 481 482
f 721 482 483
f 721 722 481
f 972 483 484
f 972 721 483
f 971 972 484
f 971 484 485
f 971 485 486
f 970 971 486
f 970 486 487
f 969 970 487
f 969 487 488
f 968 969 488
f 968 488 489
f 968 489 490
f 414 490 467
f 414 968 490
f 393 392 414
f 391 414 392
f 394 393 414
f 390 414 391
f 395 394 414
f 389 414 390
f 396 395 414
f 363 414 389
f 397 396 414
f 398 397 414
f 399 398 414
f 413 414 363
f 360 413 363
f 362 413 360
f 361 413 362
f 217 413 361
f 238 437 413
f 238 413 217
f 467 400 399
f 467 401 400
f 467 399 414
f 470 401 467
f 470 402 401
f 469 402 470
f 237 437 238
f 237 436 437
f 468 403 402
f 468 402 469
f 461 403 468
f 461 404 403
f 461 405 404
f 406 405 461
f 236 435 436
f 236 436 237
f 407 406 461
f 235 434 435
f 235 435 236
f 408 407 461
f 234 434 235
f 433 434 234
f 409 408 461
f 233 433 234
f 410 409 461
f 432 233 232
f 432 433 233
f 431 232 231
f 431 432 232
f 430 231 230
f 430 431 231
f 429 230 229
f 429 430 230
f 428 229 228
f 428 429 229
f 427 228 227
f 427 428 228
f 415 193 388
f 415 410 461
f 415 388 410
f 426 427 227
f 426 227 226
f 416 193 415
f 425 426 226
f 425 226 225
f 417 193 416
f 417 218 193
f 424 425 225
f 424 225 224
f 418 219 218
f 418 218 417
f 423 424 224
f 423 224 223
f 419 219 418
f 419 220 219
f 422 423 223
f 422 223 222
f 420 221 220
f 420 220 419
f 421 222 221
f 421 422 222
f 421 221 420
f 641 718 702
f 642 717 718
f 642 718 641
f 643 716 717
f 643 717 642
f 644 715 716
f 644 716 643
f 645 714 715
f 645 715 644
f 646 713 714
f 646 714 645
f 647 712 713
f 647 713 646
f 648 712 647
f 631 711 712
f 631 712 648
f 681 679 680
f 682 679 681
f 683 677 678
f 683 678 679
f 683 679 682
f 685 683 684
f 686 683 685
f 687 683 686
f 919 702 677
f 919 918 702
f 917 702 918
f 676 687 688
f 676 677 683
f 676 683 687
f 920 919 677
f 916 702 917
f 921 920 677
f 915 702 916
f 922 921 677
f 914 702 915
f 923 922 677
f 913 702 914
f 49 923 677
f 912 702 913
f 75 677 676
f 75 49 677
f 911 702 912
f 76 75 676
f 910 702 911
f 77 76 676
f 909 702 910
f 78 77 676
f 79 78 676
f 80 79 676
f 81 80 676
f 82 81 676
f 83 82 676
f 84 83 676
f 85 84 676
f 86 85 676
f 87 86 676
f 641 702 909
f 963 962 907
f 963 906 905
f 963 907 906
f 961 907 962
f 961 908 907
f 961 909 908
f 964 963 905
f 960 909 961
f 960 641 909
f 965 964 905
f 965 905 904
f 959 641 960
f 966 904 903
f 966 965 904
f 958 641 959
f 967 903 902
f 967 966 903
f 957 641 958
f 1 902 74
f 1 967 902
f 1 74 96
f 956 641 957
f 27 1 96
f 27 96 95
f 955 641 956
f 28 27 95
f 954 641 955
f 29 95 94
f 29 28 95
f 953 641 954
f 30 94 93
f 30 29 94
f 952 641 953
f 31 93 92
f 31 30 93
f 951 641 952
f 32 91 90
f 32 92 91
f 32 31 92
f 950 641 951
f 33 90 89
f 33 32 90
f 34 33 89
f 650 26 48
f 650 946 26
f 650 947 946
f 650 948 947
f 650 949 948
f 650 950 949
f 650 641 950
f 651 37 36
f 651 38 37
f 651 39 38
f 651 40 39
f 651 41 40
f 651 42 41
f 651 43 42
f 651 650 48
f 651 44 43
f 651 45 44
f 651 46 45
f 651 47 46
f 651 48 47
f 661 662 650
f 653 651 652
f 653 650 651
f 653 661 650
f 658 659 660
f 658 660 661
f 657 653 654
f 657 654 655
f 657 655 656
f 657 661 653
f 657 658 661
f 651 36 676
f 36 35 676
f 35 34 676
f 34 87 676
f 34 88 87
f 34 89 88
f 285 599 284
f 285 630 599
f 286 629 630
f 286 630 285
f 287 628 629
f 287 629 286
f 288 627 628
f 288 628 287
f 289 626 627
f 289 627 288
f 290 625 626
f 290 626 289
f 291 624 625
f 291 625 290
f 292 623 624
f 292 624 291
f 293 622 623
f 293 623 292
f 294 621 622
f 294 622 293
f 295 620 621
f 295 621 294
f 296 619 620
f 296 620 295
f 297 618 619
f 297 619 296
f 298 617 618
f 298 618 297
f 267 616 617
f 267 617 298
f 532 354 324
f 533 353 354
f 533 354 532
f 534 352 353
f 534 353 533
f 535 351 352
f 535 352 534
f 536 350 351
f 536 351 535
f 537 349 350
f 537 350 536
f 538 348 349
f 538 349 537
f 539 347 348
f 539 348 538
f 540 346 347
f 540 347 539
f 541 345 346
f 541 346 540
f 542 344 345
f 542 345 541
f 543 343 344
f 543 344 542
f 544 342 343
f 544 343 543
f 545 341 342
f 545 342 544
f 546 340 341
f 546 341 545
f 515 340 546
f 875 874 631
f 873 631 874
f 876 875 631
f 872 631 873
f 877 876 631
f 871 631 872
f 878 877 631
f 870 631 871
f 879 878 631
f 268 879 631
f 711 866 865
f 711 867 866
f 711 868 867
f 711 869 868
f 711 870 869
f 711 631 870
f 720 862 861
f 720 863 862
f 720 864 863
f 720 865 864
f 720 711 865
f 860 720 861
f 859 720 860
f 858 720 859
f 356 720 858
f 616 268 631
f 267 268 616
f 471 720 356
f 515 471 340
f 356 340 471
f 300 284 599
f 301 300 599
f 302 301 599
f 303 302 599
f 304 303 599
f 305 304 599
f 532 324 239
f 532 248 247
f 532 249 248
f 532 250 249
f 532 251 250
f 532 252 251
f 532 239 252
f 580 575 576
f 580 576 577
f 580 577 578
f 580 578 579
f 581 575 580
f 583 575 581
f 583 581 582
f 585 583 584
f 116 599 575
f 116 575 115
f 114 115 575
f 573 583 585
f 573 575 583
f 573 585 586
f 117 599 116
f 113 114 575
f 118 599 117
f 112 113 575
f 119 599 118
f 111 112 575
f 120 599 119
f 110 111 575
f 121 599 120
f 121 305 599
f 109 110 575
f 792 306 305
f 792 305 121
f 108 109 575
f 108 575 573
f 793 307 306
f 793 306 792
f 107 108 573
f 794 307 793
f 794 308 307
f 106 107 573
f 795 309 308
f 795 308 794
f 105 106 573
f 104 105 573
f 103 104 573
f 102 103 573
f 101 102 573
f 100 101 573
f 99 100 573
f 98 99 573
f 813 98 573
f 812 813 573
f 163 796 797
f 164 796 163
f 162 163 797
f 162 797 798
f 165 796 164
f 165 795 796
f 165 309 795
f 161 162 798
f 161 798 799
f 166 310 309
f 166 309 165
f 160 799 800
f 160 161 799
f 167 311 310
f 167 310 166
f 159 160 800
f 159 800 801
f 168 241 311
f 168 311 167
f 158 801 802
f 158 802 803
f 158 159 801
f 169 242 241
f 169 241 168
f 157 158 803
f 748 243 242
f 748 242 169
f 156 803 804
f 156 157 803
f 156 804 805
f 749 244 243
f 749 243 748
f 155 156 805
f 750 244 749
f 750 245 244
f 154 805 806
f 154 155 805
f 751 246 245
f 751 245 750
f 153 806 807
f 153 154 806
f 752 246 751
f 152 807 808
f 152 153 807
f 151 152 808
f 151 808 809
f 150 151 809
f 150 809 810
f 149 150 810
f 149 810 811
f 149 811 812
f 148 149 812
f 549 769 146
f 549 812 573
f 549 146 147
f 549 147 148
f 549 148 812
f 549 760 761
f 549 761 762
f 549 762 763
f 549 763 764
f 549 764 765
f 549 765 766
f 549 766 767
f 549 767 768
f 549 768 769
f 547 247 246
f 547 246 752
f 547 760 549
f 547 752 753
f 547 753 754
f 547 754 755
f 547 755 756
f 547 756 757
f 547 757 758
f 547 758 759
f 547 759 760
f 547 532 247
f 560 549 550
f 560 547 549
f 551 560 550
f 553 551 552
f 557 558 559
f 554 551 553
f 556 557 559
f 555 559 560
f 555 560 551
f 555 551 554
f 555 556 559

