# https://github.com/mikedh/trimesh
v 23.41880000 -50.80000000 -2.67500000
v 25.40000000 -50.80000000 -2.67500000
v 25.40000000 -50.80000000 2.67500000
v 25.40000000 -51.16424579 2.65008491
v 25.40000000 -51.52170636 2.57580374
v 25.40000000 -51.86572292 2.45354023
v 25.40000000 -52.18988707 2.28557191
v 25.40000000 -52.48816025 2.07502770
v 25.40000000 -52.75498620 1.82582966
v 25.40000000 -52.98539446 1.54261986
v 25.40000000 -53.17509296 1.23067398
v 25.40000000 -53.32054797 0.89580296
v 25.40000000 -53.41904993 0.54424483
v 25.40000000 -53.46876396 0.18254846
v 25.40000000 -53.46876396 -0.18254846
v 25.40000000 -53.41904993 -0.54424483
v 25.40000000 -53.32054797 -0.89580296
v 25.40000000 -53.17509296 -1.23067398
v 25.40000000 -52.98539446 -1.54261986
v 25.40000000 -52.75498620 -1.82582966
v 25.40000000 -52.48816025 -2.07502770
v 25.40000000 -52.18988707 -2.28557191
v 25.40000000 -51.86572292 -2.45354023
v 25.40000000 -51.52170636 -2.57580374
v 25.40000000 -51.16424579 -2.65008491
v 23.41880000 -50.80000000 2.67500000
v 23.41880000 -51.16424579 -2.65008491
v 23.41880000 -51.52170636 -2.57580374
v 23.41880000 -51.86572292 -2.45354023
v 23.41880000 -52.18988707 -2.28557191
v 23.41880000 -52.48816025 -2.07502770
v 23.41880000 -52.75498620 -1.82582966
v 23.41880000 -52.98539446 -1.54261986
v 23.41880000 -53.17509296 -1.23067398
v 23.41880000 -53.32054797 -0.89580296
v 23.41880000 -53.41904993 -0.54424483
v 23.41880000 -53.46876396 -0.18254846
v 23.41880000 -53.46876396 0.18254846
v 23.41880000 -53.41904993 0.54424483
v 23.41880000 -53.32054797 0.89580296
v 23.41880000 -53.17509296 1.23067398
v 23.41880000 -52.98539446 1.54261986
v 23.41880000 -52.75498620 1.82582966
v 23.41880000 -52.48816025 2.07502770
v 23.41880000 -52.18988707 2.28557191
v 23.41880000 -51.86572292 2.45354023
v 23.41880000 -51.52170636 2.57580374
v 23.41880000 -51.16424579 2.65008491
v 23.41880000 50.80000000 -2.67500000
v 25.40000000 50.80000000 -2.67500000
v 25.40000000 50.80000000 2.67500000
v 25.40000000 50.43575421 2.65008491
v 25.40000000 50.07829364 2.57580374
v 25.40000000 49.73427708 2.45354023
v 25.40000000 49.41011293 2.28557191
v 25.40000000 49.11183975 2.07502770
v 25.40000000 48.84501380 1.82582966
v 25.40000000 48.61460554 1.54261986
v 25.40000000 48.42490704 1.23067398
v 25.40000000 48.27945203 0.89580296
v 25.40000000 48.18095007 0.54424483
v 25.40000000 48.13123604 0.18254846
v 25.40000000 48.13123604 -0.18254846
v 25.40000000 48.18095007 -0.54424483
v 25.40000000 48.27945203 -0.89580296
v 25.40000000 48.42490704 -1.23067398
v 25.40000000 48.61460554 -1.54261986
v 25.40000000 48.84501380 -1.82582966
v 25.40000000 49.11183975 -2.07502770
v 25.40000000 49.41011293 -2.28557191
v 25.40000000 49.73427708 -2.45354023
v 25.40000000 50.07829364 -2.57580374
v 25.40000000 50.43575421 -2.65008491
v 23.41880000 50.80000000 2.67500000
v 23.41880000 50.43575421 -2.65008491
v 23.41880000 50.07829364 -2.57580374
v 23.41880000 49.73427708 -2.45354023
v 23.41880000 49.41011293 -2.28557191
v 23.41880000 49.11183975 -2.07502770
v 23.41880000 48.84501380 -1.82582966
v 23.41880000 48.61460554 -1.54261986
v 23.41880000 48.42490704 -1.23067398
v 23.41880000 48.27945203 -0.89580296
v 23.41880000 48.18095007 -0.54424483
v 23.41880000 48.13123604 -0.18254846
v 23.41880000 48.13123604 0.18254846
v 23.41880000 48.18095007 0.54424483
v 23.41880000 48.27945203 0.89580296
v 23.41880000 48.42490704 1.23067398
v 23.41880000 48.61460554 1.54261986
v 23.41880000 48.84501380 1.82582966
v 23.41880000 49.11183975 2.07502770
v 23.41880000 49.41011293 2.28557191
v 23.41880000 49.73427708 2.45354023
v 23.41880000 50.07829364 2.57580374
v 23.41880000 50.43575421 2.65008491
v -25.40000000 -50.80000000 -2.67500000
v -23.41880000 -50.80000000 -2.67500000
v -23.41880000 -50.80000000 2.67500000
v -23.41880000 -51.16424579 2.65008491
v -23.41880000 -51.52170636 2.57580374
v -23.41880000 -51.86572292 2.45354023
v -23.41880000 -52.18988707 2.28557191
v -23.41880000 -52.48816025 2.07502770
v -23.41880000 -52.75498620 1.82582966
v -23.41880000 -52.98539446 1.54261986
v -23.41880000 -53.17509296 1.23067398
v -23.41880000 -53.32054797 0.89580296
v -23.41880000 -53.41904993 0.54424483
v -23.41880000 -53.46876396 0.18254846
v -23.41880000 -53.46876396 -0.18254846
v -23.41880000 -53.41904993 -0.54424483
v -23.41880000 -53.32054797 -0.89580296
v -23.41880000 -53.17509296 -1.23067398
v -23.41880000 -52.98539446 -1.54261986
v -23.41880000 -52.75498620 -1.82582966
v -23.41880000 -52.48816025 -2.07502770
v -23.41880000 -52.18988707 -2.28557191
v -23.41880000 -51.86572292 -2.45354023
v -23.41880000 -51.52170636 -2.57580374
v -23.41880000 -51.16424579 -2.65008491
v -25.40000000 -50.80000000 2.67500000
v -25.40000000 -51.16424579 2.65008491
v -25.40000000 -51.52170636 2.57580374
v -25.40000000 -51.86572292 2.45354023
v -25.40000000 -52.18988707 2.28557191
v -25.40000000 -52.48816025 2.07502770
v -25.40000000 -52.75498620 1.82582966
v -25.40000000 -52.98539446 1.54261986
v -25.40000000 -53.17509296 1.23067398
v -25.40000000 -53.32054797 0.89580296
v -25.40000000 -53.41904993 0.54424483
v -25.40000000 -53.46876396 0.18254846
v -25.40000000 -53.46876396 -0.18254846
v -25.40000000 -53.41904993 -0.54424483
v -25.40000000 -53.32054797 -0.89580296
v -25.40000000 -53.17509296 -1.23067398
v -25.40000000 -52.98539446 -1.54261986
v -25.40000000 -52.75498620 -1.82582966
v -25.40000000 -52.48816025 -2.07502770
v -25.40000000 -52.18988707 -2.28557191
v -25.40000000 -51.86572292 -2.45354023
v -25.40000000 -51.52170636 -2.57580374
v -25.40000000 -51.16424579 -2.65008491
v -25.40000000 50.80000000 -2.67500000
v -23.41880000 50.80000000 -2.67500000
v -23.41880000 50.80000000 2.67500000
v -23.41880000 50.43575421 2.65008491
v -23.41880000 50.07829364 2.57580374
v -23.41880000 49.73427708 2.45354023
v -23.41880000 49.41011293 2.28557191
v -23.41880000 49.11183975 2.07502770
v -23.41880000 48.84501380 1.82582966
v -23.41880000 48.61460554 1.54261986
v -23.41880000 48.42490704 1.23067398
v -23.41880000 48.27945203 0.89580296
v -23.41880000 48.18095007 0.54424483
v -23.41880000 48.13123604 0.18254846
v -23.41880000 48.13123604 -0.18254846
v -23.41880000 48.18095007 -0.54424483
v -23.41880000 48.27945203 -0.89580296
v -23.41880000 48.42490704 -1.23067398
v -23.41880000 48.61460554 -1.54261986
v -23.41880000 48.84501380 -1.82582966
v -23.41880000 49.11183975 -2.07502770
v -23.41880000 49.41011293 -2.28557191
v -23.41880000 49.73427708 -2.45354023
v -23.41880000 50.07829364 -2.57580374
v -23.41880000 50.43575421 -2.65008491
v -25.40000000 50.80000000 2.67500000
v -25.40000000 50.43575421 2.65008491
v -25.40000000 50.07829364 2.57580374
v -25.40000000 49.73427708 2.45354023
v -25.40000000 49.41011293 2.28557191
v -25.40000000 49.11183975 2.07502770
v -25.40000000 48.84501380 1.82582966
v -25.40000000 48.61460554 1.54261986
v -25.40000000 48.42490704 1.23067398
v -25.40000000 48.27945203 0.89580296
v -25.40000000 48.18095007 0.54424483
v -25.40000000 48.13123604 0.18254846
v -25.40000000 48.13123604 -0.18254846
v -25.40000000 48.18095007 -0.54424483
v -25.40000000 48.27945203 -0.89580296
v -25.40000000 48.42490704 -1.23067398
v -25.40000000 48.61460554 -1.54261986
v -25.40000000 48.84501380 -1.82582966
v -25.40000000 49.11183975 -2.07502770
v -25.40000000 49.41011293 -2.28557191
v -25.40000000 49.73427708 -2.45354023
v -25.40000000 50.07829364 -2.57580374
v -25.40000000 50.43575421 -2.65008491
v 25.40000000 -71.70000000 9.52500000
v 23.41880000 -71.70000000 9.52500000
v 23.41880000 -72.99698733 9.43628364
v 23.41880000 -74.26981425 9.17178716
v 23.41880000 -75.49477038 8.73643765
v 23.41880000 -76.64903712 8.13834483
v 23.41880000 -77.71111267 7.38865004
v 23.41880000 -78.66121256 6.50131869
v 23.41880000 -79.48163823 5.49288007
v 23.41880000 -80.15710671 4.38211948
v 23.41880000 -80.67503528 3.18972831
v 23.41880000 -81.02577594 1.93791852
v 23.41880000 -81.20279503 0.65000899
v 23.41880000 -81.20279503 -0.65000899
v 23.41880000 -81.02577594 -1.93791852
v 23.41880000 -80.67503528 -3.18972831
v 23.41880000 -80.15710671 -4.38211948
v 23.41880000 -79.48163823 -5.49288007
v 23.41880000 -78.66121256 -6.50131869
v 23.41880000 -77.71111267 -7.38865004
v 23.41880000 -76.64903712 -8.13834483
v 23.41880000 -75.49477038 -8.73643765
v 23.41880000 -74.26981425 -9.17178716
v 23.41880000 -72.99698733 -9.43628364
v 23.41880000 -71.70000000 -9.52500000
v 25.40000000 -71.70000000 -9.52500000
v 25.40000000 -72.99698733 9.43628364
v 25.40000000 -74.26981425 9.17178716
v 25.40000000 -75.49477038 8.73643765
v 25.40000000 -76.64903712 8.13834483
v 25.40000000 -77.71111267 7.38865004
v 25.40000000 -78.66121256 6.50131869
v 25.40000000 -79.48163823 5.49288007
v 25.40000000 -80.15710671 4.38211948
v 25.40000000 -80.67503528 3.18972831
v 25.40000000 -81.02577594 1.93791852
v 25.40000000 -81.20279503 0.65000899
v 25.40000000 -81.20279503 -0.65000899
v 25.40000000 -81.02577594 -1.93791852
v 25.40000000 -80.67503528 -3.18972831
v 25.40000000 -80.15710671 -4.38211948
v 25.40000000 -79.48163823 -5.49288007
v 25.40000000 -78.66121256 -6.50131869
v 25.40000000 -77.71111267 -7.38865004
v 25.40000000 -76.64903712 -8.13834483
v 25.40000000 -75.49477038 -8.73643765
v 25.40000000 -74.26981425 -9.17178716
v 25.40000000 -72.99698733 -9.43628364
v 25.40000000 71.70000000 9.52500000
v 23.41880000 71.70000000 9.52500000
v 23.41880000 70.40301267 9.43628364
v 23.41880000 69.13018575 9.17178716
v 23.41880000 67.90522962 8.73643765
v 23.41880000 66.75096288 8.13834483
v 23.41880000 65.68888733 7.38865004
v 23.41880000 64.73878744 6.50131869
v 23.41880000 63.91836177 5.49288007
v 23.41880000 63.24289329 4.38211948
v 23.41880000 62.72496472 3.18972831
v 23.41880000 62.37422406 1.93791852
v 23.41880000 62.19720497 0.65000899
v 23.41880000 62.19720497 -0.65000899
v 23.41880000 62.37422406 -1.93791852
v 23.41880000 62.72496472 -3.18972831
v 23.41880000 63.24289329 -4.38211948
v 23.41880000 63.91836177 -5.49288007
v 23.41880000 64.73878744 -6.50131869
v 23.41880000 65.68888733 -7.38865004
v 23.41880000 66.75096288 -8.13834483
v 23.41880000 67.90522962 -8.73643765
v 23.41880000 69.13018575 -9.17178716
v 23.41880000 70.40301267 -9.43628364
v 23.41880000 71.70000000 -9.52500000
v 25.40000000 71.70000000 -9.52500000
v 25.40000000 70.40301267 9.43628364
v 25.40000000 69.13018575 9.17178716
v 25.40000000 67.90522962 8.73643765
v 25.40000000 66.75096288 8.13834483
v 25.40000000 65.68888733 7.38865004
v 25.40000000 64.73878744 6.50131869
v 25.40000000 63.91836177 5.49288007
v 25.40000000 63.24289329 4.38211948
v 25.40000000 62.72496472 3.18972831
v 25.40000000 62.37422406 1.93791852
v 25.40000000 62.19720497 0.65000899
v 25.40000000 62.19720497 -0.65000899
v 25.40000000 62.37422406 -1.93791852
v 25.40000000 62.72496472 -3.18972831
v 25.40000000 63.24289329 -4.38211948
v 25.40000000 63.91836177 -5.49288007
v 25.40000000 64.73878744 -6.50131869
v 25.40000000 65.68888733 -7.38865004
v 25.40000000 66.75096288 -8.13834483
v 25.40000000 67.90522962 -8.73643765
v 25.40000000 69.13018575 -9.17178716
v 25.40000000 70.40301267 -9.43628364
v -13.55000000 95.70000000 23.41880000
v 22.41880000 95.70000000 23.41880000
v -13.55000000 95.70000000 25.40000000
v 23.40000000 95.70000000 25.40000000
v 23.66105238 95.70000000 25.38288972
v 23.91763809 95.70000000 25.33185165
v 24.16536686 95.70000000 25.24775907
v 24.40000000 95.70000000 25.13205081
v 24.61752286 95.70000000 24.98670668
v 24.81421356 95.70000000 24.81421356
v 24.98670668 95.70000000 24.61752286
v 25.13205081 95.70000000 24.40000000
v 25.24775907 95.70000000 24.16536686
v 25.33185165 95.70000000 23.91763809
v 25.38288972 95.70000000 23.66105238
v 25.40000000 95.70000000 23.40000000
v 25.40000000 95.70000000 -23.40000000
v 25.38288972 95.70000000 -23.66105238
v 25.33185165 95.70000000 -23.91763809
v 25.24775907 95.70000000 -24.16536686
v 25.13205081 95.70000000 -24.40000000
v 24.98670668 95.70000000 -24.61752286
v 24.81421356 95.70000000 -24.81421356
v 24.61752286 95.70000000 -24.98670668
v 24.40000000 95.70000000 -25.13205081
v 24.16536686 95.70000000 -25.24775907
v 23.91763809 95.70000000 -25.33185165
v 23.66105238 95.70000000 -25.38288972
v 23.40000000 95.70000000 -25.40000000
v -13.55000000 95.70000000 -25.40000000
v -13.55000000 95.70000000 -23.41880000
v 22.41880000 95.70000000 -23.41880000
v 22.54932619 95.70000000 -23.41024486
v 22.67761905 95.70000000 -23.38472583
v 22.80148343 95.70000000 -23.34267953
v 22.91880000 95.70000000 -23.28482540
v 23.02756143 95.70000000 -23.21215334
v 23.12590678 95.70000000 -23.12590678
v 23.21215334 95.70000000 -23.02756143
v 23.28482540 95.70000000 -22.91880000
v 23.34267953 95.70000000 -22.80148343
v 23.38472583 95.70000000 -22.67761905
v 23.41024486 95.70000000 -22.54932619
v 23.41880000 95.70000000 -22.41880000
v 23.41880000 95.70000000 22.41880000
v 23.41024486 95.70000000 22.54932619
v 23.38472583 95.70000000 22.67761905
v 23.34267953 95.70000000 22.80148343
v 23.28482540 95.70000000 22.91880000
v 23.21215334 95.70000000 23.02756143
v 23.12590678 95.70000000 23.12590678
v 23.02756143 95.70000000 23.21215334
v 22.91880000 95.70000000 23.28482540
v 22.80148343 95.70000000 23.34267953
v 22.67761905 95.70000000 23.38472583
v 22.54932619 95.70000000 23.41024486
v -22.91880000 -79.70000000 -25.40000000
v -22.91880000 79.70000000 -25.40000000
v -20.92000000 -79.70000000 -25.40000000
v -20.92000000 79.70000000 -25.40000000
v -17.43880000 79.70000000 -25.40000000
v -14.55000000 79.70000000 -25.40000000
v -17.43880000 -79.70000000 -25.40000000
v -14.55000000 -79.70000000 -25.40000000
v -14.55000000 -94.70000000 -25.40000000
v -13.55000000 -95.70000000 -25.40000000
v -13.68052619 -95.69144486 -25.40000000
v -13.80881905 -95.66592583 -25.40000000
v -13.93268343 -95.62387953 -25.40000000
v -14.05000000 -95.56602540 -25.40000000
v -14.15876143 -95.49335334 -25.40000000
v -14.25710678 -95.40710678 -25.40000000
v -14.34335334 -95.30876143 -25.40000000
v -14.41602540 -95.20000000 -25.40000000
v -14.47387953 -95.08268343 -25.40000000
v -14.51592583 -94.95881905 -25.40000000
v -14.54144486 -94.83052619 -25.40000000
v 23.40000000 -95.70000000 -25.40000000
v -14.55000000 94.70000000 -25.40000000
v -14.54144486 94.83052619 -25.40000000
v -14.51592583 94.95881905 -25.40000000
v -14.47387953 95.08268343 -25.40000000
v -14.41602540 95.20000000 -25.40000000
v -14.34335334 95.30876143 -25.40000000
v -14.25710678 95.40710678 -25.40000000
v -14.15876143 95.49335334 -25.40000000
v -14.05000000 95.56602540 -25.40000000
v -13.93268343 95.62387953 -25.40000000
v -13.80881905 95.66592583 -25.40000000
v -13.68052619 95.69144486 -25.40000000
v -22.91880000 79.70000000 25.40000000
v -22.91880000 -79.70000000 25.40000000
v -20.92000000 79.70000000 25.40000000
v -20.92000000 -79.70000000 25.40000000
v 25.40000000 -95.70000000 23.40000000
v 25.38288972 -95.70000000 23.66105238
v 25.33185165 -95.70000000 23.91763809
v 25.24775907 -95.70000000 24.16536686
v 25.13205081 -95.70000000 24.40000000
v 24.98670668 -95.70000000 24.61752286
v 24.81421356 -95.70000000 24.81421356
v 24.61752286 -95.70000000 24.98670668
v 24.40000000 -95.70000000 25.13205081
v 24.16536686 -95.70000000 25.24775907
v 23.91763809 -95.70000000 25.33185165
v 23.66105238 -95.70000000 25.38288972
v 23.40000000 -95.70000000 25.40000000
v 25.40000000 -95.70000000 -23.40000000
v 23.66105238 -95.70000000 -25.38288972
v 23.91763809 -95.70000000 -25.33185165
v 24.16536686 -95.70000000 -25.24775907
v 24.40000000 -95.70000000 -25.13205081
v 24.61752286 -95.70000000 -24.98670668
v 24.81421356 -95.70000000 -24.81421356
v 24.98670668 -95.70000000 -24.61752286
v 25.13205081 -95.70000000 -24.40000000
v 25.24775907 -95.70000000 -24.16536686
v 25.33185165 -95.70000000 -23.91763809
v 25.38288972 -95.70000000 -23.66105238
v -13.55000000 -95.70000000 -23.41880000
v 22.41880000 -95.70000000 -23.41880000
v 23.41880000 -95.70000000 -22.41880000
v 23.41024486 -95.70000000 -22.54932619
v 23.38472583 -95.70000000 -22.67761905
v 23.34267953 -95.70000000 -22.80148343
v 23.28482540 -95.70000000 -22.91880000
v 23.21215334 -95.70000000 -23.02756143
v 23.12590678 -95.70000000 -23.12590678
v 23.02756143 -95.70000000 -23.21215334
v 22.91880000 -95.70000000 -23.28482540
v 22.80148343 -95.70000000 -23.34267953
v 22.67761905 -95.70000000 -23.38472583
v 22.54932619 -95.70000000 -23.41024486
v 23.41880000 -95.70000000 22.41880000
v 22.41880000 -95.70000000 23.41880000
v 22.54932619 -95.70000000 23.41024486
v 22.67761905 -95.70000000 23.38472583
v 22.80148343 -95.70000000 23.34267953
v 22.91880000 -95.70000000 23.28482540
v 23.02756143 -95.70000000 23.21215334
v 23.12590678 -95.70000000 23.12590678
v 23.21215334 -95.70000000 23.02756143
v 23.28482540 -95.70000000 22.91880000
v 23.34267953 -95.70000000 22.80148343
v 23.38472583 -95.70000000 22.67761905
v 23.41024486 -95.70000000 22.54932619
v -13.55000000 -95.70000000 23.41880000
v -13.55000000 -95.70000000 25.40000000
v 25.40000000 -50.43575421 -2.65008491
v 25.40000000 -50.07829364 -2.57580374
v 25.40000000 -49.73427708 -2.45354023
v 25.40000000 -49.41011293 -2.28557191
v 25.40000000 -49.11183975 -2.07502770
v 25.40000000 -48.84501380 -1.82582966
v 25.40000000 -48.61460554 -1.54261986
v 25.40000000 -48.42490704 -1.23067398
v 25.40000000 -48.27945203 -0.89580296
v 25.40000000 -48.18095007 -0.54424483
v 25.40000000 -48.13123604 -0.18254846
v 25.40000000 -48.13123604 0.18254846
v 25.40000000 -48.18095007 0.54424483
v 25.40000000 -48.27945203 0.89580296
v 25.40000000 -48.42490704 1.23067398
v 25.40000000 -48.61460554 1.54261986
v 25.40000000 -48.84501380 1.82582966
v 25.40000000 -49.11183975 2.07502770
v 25.40000000 -49.41011293 2.28557191
v 25.40000000 -49.73427708 2.45354023
v 25.40000000 -50.07829364 2.57580374
v 25.40000000 -50.43575421 2.65008491
v 25.40000000 51.16424579 -2.65008491
v 25.40000000 51.52170636 -2.57580374
v 25.40000000 51.86572292 -2.45354023
v 25.40000000 52.18988707 -2.28557191
v 25.40000000 52.48816025 -2.07502770
v 25.40000000 52.75498620 -1.82582966
v 25.40000000 52.98539446 -1.54261986
v 25.40000000 53.17509296 -1.23067398
v 25.40000000 53.32054797 -0.89580296
v 25.40000000 53.41904993 -0.54424483
v 25.40000000 53.46876396 -0.18254846
v 25.40000000 53.46876396 0.18254846
v 25.40000000 53.41904993 0.54424483
v 25.40000000 53.32054797 0.89580296
v 25.40000000 53.17509296 1.23067398
v 25.40000000 52.98539446 1.54261986
v 25.40000000 52.75498620 1.82582966
v 25.40000000 52.48816025 2.07502770
v 25.40000000 52.18988707 2.28557191
v 25.40000000 51.86572292 2.45354023
v 25.40000000 51.52170636 2.57580374
v 25.40000000 51.16424579 2.65008491
v 25.40000000 -70.40301267 -9.43628364
v 25.40000000 -69.13018575 -9.17178716
v 25.40000000 -67.90522962 -8.73643765
v 25.40000000 -66.75096288 -8.13834483
v 25.40000000 -65.68888733 -7.38865004
v 25.40000000 -64.73878744 -6.50131869
v 25.40000000 -63.91836177 -5.49288007
v 25.40000000 -63.24289329 -4.38211948
v 25.40000000 -62.72496472 -3.18972831
v 25.40000000 -62.37422406 -1.93791852
v 25.40000000 -62.19720497 -0.65000899
v 25.40000000 -62.19720497 0.65000899
v 25.40000000 -62.37422406 1.93791852
v 25.40000000 -62.72496472 3.18972831
v 25.40000000 -63.24289329 4.38211948
v 25.40000000 -63.91836177 5.49288007
v 25.40000000 -64.73878744 6.50131869
v 25.40000000 -65.68888733 7.38865004
v 25.40000000 -66.75096288 8.13834483
v 25.40000000 -67.90522962 8.73643765
v 25.40000000 -69.13018575 9.17178716
v 25.40000000 -70.40301267 9.43628364
v 25.40000000 72.99698733 -9.43628364
v 25.40000000 74.26981425 -9.17178716
v 25.40000000 75.49477038 -8.73643765
v 25.40000000 76.64903712 -8.13834483
v 25.40000000 77.71111267 -7.38865004
v 25.40000000 78.66121256 -6.50131869
v 25.40000000 79.48163823 -5.49288007
v 25.40000000 80.15710671 -4.38211948
v 25.40000000 80.67503528 -3.18972831
v 25.40000000 81.02577594 -1.93791852
v 25.40000000 81.20279503 -0.65000899
v 25.40000000 81.20279503 0.65000899
v 25.40000000 81.02577594 1.93791852
v 25.40000000 80.67503528 3.18972831
v 25.40000000 80.15710671 4.38211948
v 25.40000000 79.48163823 5.49288007
v 25.40000000 78.66121256 6.50131869
v 25.40000000 77.71111267 7.38865004
v 25.40000000 76.64903712 8.13834483
v 25.40000000 75.49477038 8.73643765
v 25.40000000 74.26981425 9.17178716
v 25.40000000 72.99698733 9.43628364
v -25.40000000 79.70000000 38.10000000
v -25.40000000 -79.70000000 38.10000000
v -25.40000000 -79.70000000 -37.60000000
v -25.40000000 79.70000000 -37.60000000
v -25.40000000 -50.43575421 -2.65008491
v -25.40000000 -50.07829364 -2.57580374
v -25.40000000 -49.73427708 -2.45354023
v -25.40000000 -49.41011293 -2.28557191
v -25.40000000 -49.11183975 -2.07502770
v -25.40000000 -48.84501380 -1.82582966
v -25.40000000 -48.61460554 -1.54261986
v -25.40000000 -48.42490704 -1.23067398
v -25.40000000 -48.27945203 -0.89580296
v -25.40000000 -48.18095007 -0.54424483
v -25.40000000 -48.13123604 -0.18254846
v -25.40000000 -48.13123604 0.18254846
v -25.40000000 -48.18095007 0.54424483
v -25.40000000 -48.27945203 0.89580296
v -25.40000000 -48.42490704 1.23067398
v -25.40000000 -48.61460554 1.54261986
v -25.40000000 -48.84501380 1.82582966
v -25.40000000 -49.11183975 2.07502770
v -25.40000000 -49.41011293 2.28557191
v -25.40000000 -49.73427708 2.45354023
v -25.40000000 -50.07829364 2.57580374
v -25.40000000 -50.43575421 2.65008491
v -25.40000000 51.16424579 -2.65008491
v -25.40000000 51.52170636 -2.57580374
v -25.40000000 51.86572292 -2.45354023
v -25.40000000 52.18988707 -2.28557191
v -25.40000000 52.48816025 -2.07502770
v -25.40000000 52.75498620 -1.82582966
v -25.40000000 52.98539446 -1.54261986
v -25.40000000 53.17509296 -1.23067398
v -25.40000000 53.32054797 -0.89580296
v -25.40000000 53.41904993 -0.54424483
v -25.40000000 53.46876396 -0.18254846
v -25.40000000 53.46876396 0.18254846
v -25.40000000 53.41904993 0.54424483
v -25.40000000 53.32054797 0.89580296
v -25.40000000 53.17509296 1.23067398
v -25.40000000 52.98539446 1.54261986
v -25.40000000 52.75498620 1.82582966
v -25.40000000 52.48816025 2.07502770
v -25.40000000 52.18988707 2.28557191
v -25.40000000 51.86572292 2.45354023
v -25.40000000 51.52170636 2.57580374
v -25.40000000 51.16424579 2.65008491
v -14.55000000 -94.70000000 25.40000000
v -14.54144486 -94.83052619 25.40000000
v -14.51592583 -94.95881905 25.40000000
v -14.47387953 -95.08268343 25.40000000
v -14.41602540 -95.20000000 25.40000000
v -14.34335334 -95.30876143 25.40000000
v -14.25710678 -95.40710678 25.40000000
v -14.15876143 -95.49335334 25.40000000
v -14.05000000 -95.56602540 25.40000000
v -13.93268343 -95.62387953 25.40000000
v -13.80881905 -95.66592583 25.40000000
v -13.68052619 -95.69144486 25.40000000
v -14.55000000 -79.70000000 25.40000000
v -17.43880000 -79.70000000 25.40000000
v -17.43880000 79.70000000 25.40000000
v -14.55000000 79.70000000 25.40000000
v -14.55000000 94.70000000 25.40000000
v -13.68052619 95.69144486 25.40000000
v -13.80881905 95.66592583 25.40000000
v -13.93268343 95.62387953 25.40000000
v -14.05000000 95.56602540 25.40000000
v -14.15876143 95.49335334 25.40000000
v -14.25710678 95.40710678 25.40000000
v -14.34335334 95.30876143 25.40000000
v -14.41602540 95.20000000 25.40000000
v -14.47387953 95.08268343 25.40000000
v -14.51592583 94.95881905 25.40000000
v -14.54144486 94.83052619 25.40000000
v 23.41880000 -50.43575421 2.65008491
v 23.41880000 -50.07829364 2.57580374
v 23.41880000 -49.73427708 2.45354023
v 23.41880000 -49.41011293 2.28557191
v 23.41880000 -49.11183975 2.07502770
v 23.41880000 -48.84501380 1.82582966
v 23.41880000 -48.61460554 1.54261986
v 23.41880000 -48.42490704 1.23067398
v 23.41880000 -48.27945203 0.89580296
v 23.41880000 -48.18095007 0.54424483
v 23.41880000 -48.13123604 0.18254846
v 23.41880000 -48.13123604 -0.18254846
v 23.41880000 -48.18095007 -0.54424483
v 23.41880000 -48.27945203 -0.89580296
v 23.41880000 -48.42490704 -1.23067398
v 23.41880000 -48.61460554 -1.54261986
v 23.41880000 -48.84501380 -1.82582966
v 23.41880000 -49.11183975 -2.07502770
v 23.41880000 -49.41011293 -2.28557191
v 23.41880000 -49.73427708 -2.45354023
v 23.41880000 -50.07829364 -2.57580374
v 23.41880000 -50.43575421 -2.65008491
v 23.41880000 51.16424579 2.65008491
v 23.41880000 51.52170636 2.57580374
v 23.41880000 51.86572292 2.45354023
v 23.41880000 52.18988707 2.28557191
v 23.41880000 52.48816025 2.07502770
v 23.41880000 52.75498620 1.82582966
v 23.41880000 52.98539446 1.54261986
v 23.41880000 53.17509296 1.23067398
v 23.41880000 53.32054797 0.89580296
v 23.41880000 53.41904993 0.54424483
v 23.41880000 53.46876396 0.18254846
v 23.41880000 53.46876396 -0.18254846
v 23.41880000 53.41904993 -0.54424483
v 23.41880000 53.32054797 -0.89580296
v 23.41880000 53.17509296 -1.23067398
v 23.41880000 52.98539446 -1.54261986
v 23.41880000 52.75498620 -1.82582966
v 23.41880000 52.48816025 -2.07502770
v 23.41880000 52.18988707 -2.28557191
v 23.41880000 51.86572292 -2.45354023
v 23.41880000 51.52170636 -2.57580374
v 23.41880000 51.16424579 -2.65008491
v 23.41880000 -70.40301267 -9.43628364
v 23.41880000 -69.13018575 -9.17178716
v 23.41880000 -67.90522962 -8.73643765
v 23.41880000 -66.75096288 -8.13834483
v 23.41880000 -65.68888733 -7.38865004
v 23.41880000 -64.73878744 -6.50131869
v 23.41880000 -63.91836177 -5.49288007
v 23.41880000 -63.24289329 -4.38211948
v 23.41880000 -62.72496472 -3.18972831
v 23.41880000 -62.37422406 -1.93791852
v 23.41880000 -62.19720497 -0.65000899
v 23.41880000 -62.19720497 0.65000899
v 23.41880000 -62.37422406 1.93791852
v 23.41880000 -62.72496472 3.18972831
v 23.41880000 -63.24289329 4.38211948
v 23.41880000 -63.91836177 5.49288007
v 23.41880000 -64.73878744 6.50131869
v 23.41880000 -65.68888733 7.38865004
v 23.41880000 -66.75096288 8.13834483
v 23.41880000 -67.90522962 8.73643765
v 23.41880000 -69.13018575 9.17178716
v 23.41880000 -70.40301267 9.43628364
v 23.41880000 72.99698733 -9.43628364
v 23.41880000 74.26981425 -9.17178716
v 23.41880000 75.49477038 -8.73643765
v 23.41880000 76.64903712 -8.13834483
v 23.41880000 77.71111267 -7.38865004
v 23.41880000 78.66121256 -6.50131869
v 23.41880000 79.48163823 -5.49288007
v 23.41880000 80.15710671 -4.38211948
v 23.41880000 80.67503528 -3.18972831
v 23.41880000 81.02577594 -1.93791852
v 23.41880000 81.20279503 -0.65000899
v 23.41880000 81.20279503 0.65000899
v 23.41880000 81.02577594 1.93791852
v 23.41880000 80.67503528 3.18972831
v 23.41880000 80.15710671 4.38211948
v 23.41880000 79.48163823 5.49288007
v 23.41880000 78.66121256 6.50131869
v 23.41880000 77.71111267 7.38865004
v 23.41880000 76.64903712 8.13834483
v 23.41880000 75.49477038 8.73643765
v 23.41880000 74.26981425 9.17178716
v 23.41880000 72.99698733 9.43628364
v -13.68052619 95.69144486 -23.41880000
v -13.80881905 95.66592583 -23.41880000
v -13.93268343 95.62387953 -23.41880000
v -14.05000000 95.56602540 -23.41880000
v -14.15876143 95.49335334 -23.41880000
v -14.25710678 95.40710678 -23.41880000
v -14.34335334 95.30876143 -23.41880000
v -14.41602540 95.20000000 -23.41880000
v -14.47387953 95.08268343 -23.41880000
v -14.51592583 94.95881905 -23.41880000
v -14.54144486 94.83052619 -23.41880000
v -14.55000000 94.70000000 -23.41880000
v -14.55000000 79.70000000 -23.41880000
v -22.41880000 79.70000000 -23.41880000
v -22.41880000 -79.70000000 -23.41880000
v -14.55000000 -79.70000000 -23.41880000
v -14.55000000 -94.70000000 -23.41880000
v -14.54144486 -94.83052619 -23.41880000
v -14.51592583 -94.95881905 -23.41880000
v -14.47387953 -95.08268343 -23.41880000
v -14.41602540 -95.20000000 -23.41880000
v -14.34335334 -95.30876143 -23.41880000
v -14.25710678 -95.40710678 -23.41880000
v -14.15876143 -95.49335334 -23.41880000
v -14.05000000 -95.56602540 -23.41880000
v -13.93268343 -95.62387953 -23.41880000
v -13.80881905 -95.66592583 -23.41880000
v -13.68052619 -95.69144486 -23.41880000
v -23.41880000 -79.70000000 -22.41880000
v -23.41880000 -79.70000000 22.41880000
v -23.41880000 79.70000000 -22.41880000
v -23.41880000 79.70000000 22.41880000
v -23.41880000 -50.43575421 -2.65008491
v -23.41880000 -50.07829364 -2.57580374
v -23.41880000 -49.73427708 -2.45354023
v -23.41880000 -49.41011293 -2.28557191
v -23.41880000 -49.11183975 -2.07502770
v -23.41880000 -48.84501380 -1.82582966
v -23.41880000 -48.61460554 -1.54261986
v -23.41880000 -48.42490704 -1.23067398
v -23.41880000 -48.27945203 -0.89580296
v -23.41880000 -48.18095007 -0.54424483
v -23.41880000 -48.13123604 -0.18254846
v -23.41880000 -48.13123604 0.18254846
v -23.41880000 -48.18095007 0.54424483
v -23.41880000 -48.27945203 0.89580296
v -23.41880000 -48.42490704 1.23067398
v -23.41880000 -48.61460554 1.54261986
v -23.41880000 -48.84501380 1.82582966
v -23.41880000 -49.11183975 2.07502770
v -23.41880000 -49.41011293 2.28557191
v -23.41880000 -49.73427708 2.45354023
v -23.41880000 -50.07829364 2.57580374
v -23.41880000 -50.43575421 2.65008491
v -23.41880000 51.16424579 -2.65008491
v -23.41880000 51.52170636 -2.57580374
v -23.41880000 51.86572292 -2.45354023
v -23.41880000 52.18988707 -2.28557191
v -23.41880000 52.48816025 -2.07502770
v -23.41880000 52.75498620 -1.82582966
v -23.41880000 52.98539446 -1.54261986
v -23.41880000 53.17509296 -1.23067398
v -23.41880000 53.32054797 -0.89580296
v -23.41880000 53.41904993 -0.54424483
v -23.41880000 53.46876396 -0.18254846
v -23.41880000 53.46876396 0.18254846
v -23.41880000 53.41904993 0.54424483
v -23.41880000 53.32054797 0.89580296
v -23.41880000 53.17509296 1.23067398
v -23.41880000 52.98539446 1.54261986
v -23.41880000 52.75498620 1.82582966
v -23.41880000 52.48816025 2.07502770
v -23.41880000 52.18988707 2.28557191
v -23.41880000 51.86572292 2.45354023
v -23.41880000 51.52170636 2.57580374
v -23.41880000 51.16424579 2.65008491
v -14.55000000 79.70000000 23.41880000
v -14.55000000 94.70000000 23.41880000
v -14.54144486 94.83052619 23.41880000
v -14.51592583 94.95881905 23.41880000
v -14.47387953 95.08268343 23.41880000
v -14.41602540 95.20000000 23.41880000
v -14.34335334 95.30876143 23.41880000
v -14.25710678 95.40710678 23.41880000
v -14.15876143 95.49335334 23.41880000
v -14.05000000 95.56602540 23.41880000
v -13.93268343 95.62387953 23.41880000
v -13.80881905 95.66592583 23.41880000
v -13.68052619 95.69144486 23.41880000
v -13.68052619 -95.69144486 23.41880000
v -13.80881905 -95.66592583 23.41880000
v -13.93268343 -95.62387953 23.41880000
v -14.05000000 -95.56602540 23.41880000
v -14.15876143 -95.49335334 23.41880000
v -14.25710678 -95.40710678 23.41880000
v -14.34335334 -95.30876143 23.41880000
v -14.41602540 -95.20000000 23.41880000
v -14.47387953 -95.08268343 23.41880000
v -14.51592583 -94.95881905 23.41880000
v -14.54144486 -94.83052619 23.41880000
v -14.55000000 -94.70000000 23.41880000
v -14.55000000 -79.70000000 23.41880000
v -22.41880000 -79.70000000 23.41880000
v -22.41880000 79.70000000 23.41880000
v -23.41880000 -79.70000000 25.90000000
v -23.41880000 -79.70000000 36.15716560
v -23.41880000 79.70000000 25.90000000
v -23.41880000 79.70000000 36.15716560
v -24.92908353 -79.70000000 38.10000000
v -24.92908353 79.70000000 38.10000000
v -18.43880000 79.70000000 37.60000000
v -18.43880000 79.70000000 26.40000000
v -18.43880000 -79.70000000 37.60000000
v -18.43880000 -79.70000000 26.40000000
v -20.42000000 -79.70000000 36.15716560
v -20.42000000 79.70000000 36.15716560
v -20.42000000 -79.70000000 25.90000000
v -20.42000000 79.70000000 25.90000000
v -20.42000000 79.70000000 -36.15716560
v -20.42000000 79.70000000 -25.90000000
v -20.42000000 -79.70000000 -36.15716560
v -20.42000000 -79.70000000 -25.90000000
v -18.43880000 79.70000000 -26.40000000
v -18.43880000 -79.70000000 -26.40000000
v -18.43880000 79.70000000 -37.60000000
v -18.43880000 -79.70000000 -37.60000000
v -23.41880000 -79.70000000 -36.15716560
v -23.41880000 79.70000000 -36.15716560
v -23.41880000 -79.70000000 -25.90000000
v -23.41880000 79.70000000 -25.90000000
v -19.31929250 -79.70000000 37.88678822
v -20.32957602 -79.70000000 36.44395382
v -19.31929250 79.70000000 37.88678822
v -20.32957602 79.70000000 36.44395382
v -23.50922398 -79.70000000 36.44395382
v -23.50922398 79.70000000 36.44395382
v -24.51950750 -79.70000000 37.88678822
v -24.51950750 79.70000000 37.88678822
v -23.50922398 79.70000000 -36.44395382
v -24.51950750 79.70000000 -37.88678822
v -23.50922398 -79.70000000 -36.44395382
v -24.51950750 -79.70000000 -37.88678822
v -20.32957602 -79.70000000 -36.44395382
v -20.32957602 79.70000000 -36.44395382
v -19.31929250 -79.70000000 -37.88678822
v -19.31929250 79.70000000 -37.88678822
v -17.56932619 -79.70000000 25.40855514
v -17.69761905 -79.70000000 25.43407417
v -17.82148343 -79.70000000 25.47612047
v -17.93880000 -79.70000000 25.53397460
v -18.04756143 -79.70000000 25.60664666
v -18.14590678 -79.70000000 25.69289322
v -18.23215334 -79.70000000 25.79123857
v -18.30482540 -79.70000000 25.90000000
v -18.36267953 -79.70000000 26.01731657
v -18.40472583 -79.70000000 26.14118095
v -18.43024486 -79.70000000 26.26947381
v -23.41024486 -79.70000000 22.54932619
v -23.38472583 -79.70000000 22.67761905
v -23.34267953 -79.70000000 22.80148343
v -23.28482540 -79.70000000 22.91880000
v -23.21215334 -79.70000000 23.02756143
v -23.12590678 -79.70000000 23.12590678
v -23.02756143 -79.70000000 23.21215334
v -22.91880000 -79.70000000 23.28482540
v -22.80148343 -79.70000000 23.34267953
v -22.67761905 -79.70000000 23.38472583
v -22.54932619 -79.70000000 23.41024486
v -22.54932619 -79.70000000 -23.41024486
v -22.67761905 -79.70000000 -23.38472583
v -22.80148343 -79.70000000 -23.34267953
v -22.91880000 -79.70000000 -23.28482540
v -23.02756143 -79.70000000 -23.21215334
v -23.12590678 -79.70000000 -23.12590678
v -23.21215334 -79.70000000 -23.02756143
v -23.28482540 -79.70000000 -22.91880000
v -23.34267953 -79.70000000 -22.80148343
v -23.38472583 -79.70000000 -22.67761905
v -23.41024486 -79.70000000 -22.54932619
v -18.43024486 -79.70000000 -26.26947381
v -18.40472583 -79.70000000 -26.14118095
v -18.36267953 -79.70000000 -26.01731657
v -18.30482540 -79.70000000 -25.90000000
v -18.23215334 -79.70000000 -25.79123857
v -18.14590678 -79.70000000 -25.69289322
v -18.04756143 -79.70000000 -25.60664666
v -17.93880000 -79.70000000 -25.53397460
v -17.82148343 -79.70000000 -25.47612047
v -17.69761905 -79.70000000 -25.43407417
v -17.56932619 -79.70000000 -25.40855514
v -18.92425824 -79.70000000 -38.09978849
v -18.86034389 -79.70000000 -38.09380628
v -18.79772277 -79.70000000 -38.07968450
v -18.73742706 -79.70000000 -38.05765592
v -18.68045066 -79.70000000 -38.02808366
v -18.62773270 -79.70000000 -37.99145515
v -18.58014217 -79.70000000 -37.94837417
v -18.53846351 -79.70000000 -37.89955082
v -18.50338372 -79.70000000 -37.84578988
v -18.47548104 -79.70000000 -37.78797750
v -18.45521540 -79.70000000 -37.72706664
v -18.44292083 -79.70000000 -37.66406129
v -19.27765243 -79.70000000 -37.93856038
v -19.22951571 -79.70000000 -37.98435459
v -19.17573230 -79.70000000 -38.02336224
v -19.11725184 -79.70000000 -38.05489457
v -19.05510692 -79.70000000 -38.07839483
v -18.99039485 -79.70000000 -38.09344807
v -20.41627308 -79.70000000 -36.21810027
v -20.40514786 -79.70000000 -36.27812654
v -20.38679021 -79.70000000 -36.33634957
v -20.36147380 -79.70000000 -36.39190138
v -20.85473690 -79.70000000 -25.40427757
v -20.79059048 -79.70000000 -25.41703709
v -20.72865828 -79.70000000 -25.43806023
v -20.67000000 -79.70000000 -25.46698730
v -20.61561929 -79.70000000 -25.50332333
v -20.56644661 -79.70000000 -25.54644661
v -20.52332333 -79.70000000 -25.59561929
v -20.48698730 -79.70000000 -25.65000000
v -20.45806023 -79.70000000 -25.70865828
v -20.43703709 -79.70000000 -25.77059048
v -20.42427757 -79.70000000 -25.83473690
v -23.41452243 -79.70000000 -25.83473690
v -23.40176291 -79.70000000 -25.77059048
v -23.38073977 -79.70000000 -25.70865828
v -23.35181270 -79.70000000 -25.65000000
v -23.31547667 -79.70000000 -25.59561929
v -23.27235339 -79.70000000 -25.54644661
v -23.22318071 -79.70000000 -25.50332333
v -23.16880000 -79.70000000 -25.46698730
v -23.11014172 -79.70000000 -25.43806023
v -23.04820952 -79.70000000 -25.41703709
v -22.98406310 -79.70000000 -25.40427757
v -23.47732620 -79.70000000 -36.39190138
v -23.45200979 -79.70000000 -36.33634957
v -23.43365214 -79.70000000 -36.27812654
v -23.42252692 -79.70000000 -36.21810027
v -24.91454176 -79.70000000 -38.09978849
v -24.84840515 -79.70000000 -38.09344807
v -24.78369308 -79.70000000 -38.07839483
v -24.72154816 -79.70000000 -38.05489457
v -24.66306770 -79.70000000 -38.02336224
v -24.60928429 -79.70000000 -37.98435459
v -24.56114757 -79.70000000 -37.93856038
v -25.39587917 -79.70000000 -37.66406129
v -25.38358460 -79.70000000 -37.72706664
v -25.36331896 -79.70000000 -37.78797750
v -25.33541628 -79.70000000 -37.84578988
v -25.30033649 -79.70000000 -37.89955082
v -25.25865783 -79.70000000 -37.94837417
v -25.21106730 -79.70000000 -37.99145515
v -25.15834934 -79.70000000 -38.02808366
v -25.10137294 -79.70000000 -38.05765592
v -25.04107723 -79.70000000 -38.07968450
v -24.97845611 -79.70000000 -38.09380628
v -24.56255759 -79.70000000 37.94008637
v -24.61248957 -79.70000000 37.98699905
v -24.66836592 -79.70000000 38.02664544
v -24.72913751 -79.70000000 38.05828113
v -24.79366329 -79.70000000 38.08131212
v -24.86073172 -79.70000000 38.09530600
v -23.42252692 -79.70000000 36.21810027
v -23.43365214 -79.70000000 36.27812654
v -23.45200979 -79.70000000 36.33634957
v -23.47732620 -79.70000000 36.39190138
v -22.98406310 -79.70000000 25.40427757
v -23.04820952 -79.70000000 25.41703709
v -23.11014172 -79.70000000 25.43806023
v -23.16880000 -79.70000000 25.46698730
v -23.22318071 -79.70000000 25.50332333
v -23.27235339 -79.70000000 25.54644661
v -23.31547667 -79.70000000 25.59561929
v -23.35181270 -79.70000000 25.65000000
v -23.38073977 -79.70000000 25.70865828
v -23.40176291 -79.70000000 25.77059048
v -23.41452243 -79.70000000 25.83473690
v -20.42427757 -79.70000000 25.83473690
v -20.43703709 -79.70000000 25.77059048
v -20.45806023 -79.70000000 25.70865828
v -20.48698730 -79.70000000 25.65000000
v -20.52332333 -79.70000000 25.59561929
v -20.56644661 -79.70000000 25.54644661
v -20.61561929 -79.70000000 25.50332333
v -20.67000000 -79.70000000 25.46698730
v -20.72865828 -79.70000000 25.43806023
v -20.79059048 -79.70000000 25.41703709
v -20.85473690 -79.70000000 25.40427757
v -20.36147380 -79.70000000 36.39190138
v -20.38679021 -79.70000000 36.33634957
v -20.40514786 -79.70000000 36.27812654
v -20.41627308 -79.70000000 36.21810027
v -18.92425824 -79.70000000 38.09978849
v -18.99039485 -79.70000000 38.09344807
v -19.05510692 -79.70000000 38.07839483
v -19.11725184 -79.70000000 38.05489457
v -19.17573230 -79.70000000 38.02336224
v -19.22951571 -79.70000000 37.98435459
v -19.27765243 -79.70000000 37.93856038
v -18.44292083 -79.70000000 37.66406129
v -18.45521540 -79.70000000 37.72706664
v -18.47548104 -79.70000000 37.78797750
v -18.50338372 -79.70000000 37.84578988
v -18.53846351 -79.70000000 37.89955082
v -18.58014217 -79.70000000 37.94837417
v -18.62773270 -79.70000000 37.99145515
v -18.68045066 -79.70000000 38.02808366
v -18.73742706 -79.70000000 38.05765592
v -18.79772277 -79.70000000 38.07968450
v -18.86034389 -79.70000000 38.09380628
v -20.41627308 79.70000000 36.21810027
v -20.40514786 79.70000000 36.27812654
v -20.38679021 79.70000000 36.33634957
v -20.36147380 79.70000000 36.39190138
v -20.85473690 79.70000000 25.40427757
v -20.79059048 79.70000000 25.41703709
v -20.72865828 79.70000000 25.43806023
v -20.67000000 79.70000000 25.46698730
v -20.61561929 79.70000000 25.50332333
v -20.56644661 79.70000000 25.54644661
v -20.52332333 79.70000000 25.59561929
v -20.48698730 79.70000000 25.65000000
v -20.45806023 79.70000000 25.70865828
v -20.43703709 79.70000000 25.77059048
v -20.42427757 79.70000000 25.83473690
v -23.41452243 79.70000000 25.83473690
v -23.40176291 79.70000000 25.77059048
v -23.38073977 79.70000000 25.70865828
v -23.35181270 79.70000000 25.65000000
v -23.31547667 79.70000000 25.59561929
v -23.27235339 79.70000000 25.54644661
v -23.22318071 79.70000000 25.50332333
v -23.16880000 79.70000000 25.46698730
v -23.11014172 79.70000000 25.43806023
v -23.04820952 79.70000000 25.41703709
v -22.98406310 79.70000000 25.40427757
v -23.47732620 79.70000000 36.39190138
v -23.45200979 79.70000000 36.33634957
v -23.43365214 79.70000000 36.27812654
v -23.42252692 79.70000000 36.21810027
v -24.86073172 79.70000000 38.09530600
v -24.79366329 79.70000000 38.08131212
v -24.72913751 79.70000000 38.05828113
v -24.66836592 79.70000000 38.02664544
v -24.61248957 79.70000000 37.98699905
v -24.56255759 79.70000000 37.94008637
v -24.91454176 79.70000000 -38.09978849
v -24.97845611 79.70000000 -38.09380628
v -25.04107723 79.70000000 -38.07968450
v -25.10137294 79.70000000 -38.05765592
v -25.15834934 79.70000000 -38.02808366
v -25.21106730 79.70000000 -37.99145515
v -25.25865783 79.70000000 -37.94837417
v -25.30033649 79.70000000 -37.89955082
v -25.33541628 79.70000000 -37.84578988
v -25.36331896 79.70000000 -37.78797750
v -25.38358460 79.70000000 -37.72706664
v -25.39587917 79.70000000 -37.66406129
v -24.56114757 79.70000000 -37.93856038
v -24.60928429 79.70000000 -37.98435459
v -24.66306770 79.70000000 -38.02336224
v -24.72154816 79.70000000 -38.05489457
v -24.78369308 79.70000000 -38.07839483
v -24.84840515 79.70000000 -38.09344807
v -23.42252692 79.70000000 -36.21810027
v -23.43365214 79.70000000 -36.27812654
v -23.45200979 79.70000000 -36.33634957
v -23.47732620 79.70000000 -36.39190138
v -22.98406310 79.70000000 -25.40427757
v -23.04820952 79.70000000 -25.41703709
v -23.11014172 79.70000000 -25.43806023
v -23.16880000 79.70000000 -25.46698730
v -23.22318071 79.70000000 -25.50332333
v -23.27235339 79.70000000 -25.54644661
v -23.31547667 79.70000000 -25.59561929
v -23.35181270 79.70000000 -25.65000000
v -23.38073977 79.70000000 -25.70865828
v -23.40176291 79.70000000 -25.77059048
v -23.41452243 79.70000000 -25.83473690
v -20.42427757 79.70000000 -25.83473690
v -20.43703709 79.70000000 -25.77059048
v -20.45806023 79.70000000 -25.70865828
v -20.48698730 79.70000000 -25.65000000
v -20.52332333 79.70000000 -25.59561929
v -20.56644661 79.70000000 -25.54644661
v -20.61561929 79.70000000 -25.50332333
v -20.67000000 79.70000000 -25.46698730
v -20.72865828 79.70000000 -25.43806023
v -20.79059048 79.70000000 -25.41703709
v -20.85473690 79.70000000 -25.40427757
v -20.36147380 79.70000000 -36.39190138
v -20.38679021 79.70000000 -36.33634957
v -20.40514786 79.70000000 -36.27812654
v -20.41627308 79.70000000 -36.21810027
v -18.92425824 79.70000000 -38.09978849
v -18.99039485 79.70000000 -38.09344807
v -19.05510692 79.70000000 -38.07839483
v -19.11725184 79.70000000 -38.05489457
v -19.17573230 79.70000000 -38.02336224
v -19.22951571 79.70000000 -37.98435459
v -19.27765243 79.70000000 -37.93856038
v -18.44292083 79.70000000 -37.66406129
v -18.45521540 79.70000000 -37.72706664
v -18.47548104 79.70000000 -37.78797750
v -18.50338372 79.70000000 -37.84578988
v -18.53846351 79.70000000 -37.89955082
v -18.58014217 79.70000000 -37.94837417
v -18.62773270 79.70000000 -37.99145515
v -18.68045066 79.70000000 -38.02808366
v -18.73742706 79.70000000 -38.05765592
v -18.79772277 79.70000000 -38.07968450
v -18.86034389 79.70000000 -38.09380628
v -17.56932619 79.70000000 -25.40855514
v -17.69761905 79.70000000 -25.43407417
v -17.82148343 79.70000000 -25.47612047
v -17.93880000 79.70000000 -25.53397460
v -18.04756143 79.70000000 -25.60664666
v -18.14590678 79.70000000 -25.69289322
v -18.23215334 79.70000000 -25.79123857
v -18.30482540 79.70000000 -25.90000000
v -18.36267953 79.70000000 -26.01731657
v -18.40472583 79.70000000 -26.14118095
v -18.43024486 79.70000000 -26.26947381
v -23.41024486 79.70000000 -22.54932619
v -23.38472583 79.70000000 -22.67761905
v -23.34267953 79.70000000 -22.80148343
v -23.28482540 79.70000000 -22.91880000
v -23.21215334 79.70000000 -23.02756143
v -23.12590678 79.70000000 -23.12590678
v -23.02756143 79.70000000 -23.21215334
v -22.91880000 79.70000000 -23.28482540
v -22.80148343 79.70000000 -23.34267953
v -22.67761905 79.70000000 -23.38472583
v -22.54932619 79.70000000 -23.41024486
v -22.54932619 79.70000000 23.41024486
v -22.67761905 79.70000000 23.38472583
v -22.80148343 79.70000000 23.34267953
v -22.91880000 79.70000000 23.28482540
v -23.02756143 79.70000000 23.21215334
v -23.12590678 79.70000000 23.12590678
v -23.21215334 79.70000000 23.02756143
v -23.28482540 79.70000000 22.91880000
v -23.34267953 79.70000000 22.80148343
v -23.38472583 79.70000000 22.67761905
v -23.41024486 79.70000000 22.54932619
v -18.43024486 79.70000000 26.26947381
v -18.40472583 79.70000000 26.14118095
v -18.36267953 79.70000000 26.01731657
v -18.30482540 79.70000000 25.90000000
v -18.23215334 79.70000000 25.79123857
v -18.14590678 79.70000000 25.69289322
v -18.04756143 79.70000000 25.60664666
v -17.93880000 79.70000000 25.53397460
v -17.82148343 79.70000000 25.47612047
v -17.69761905 79.70000000 25.43407417
v -17.56932619 79.70000000 25.40855514
v -18.92425824 79.70000000 38.09978849
v -18.86034389 79.70000000 38.09380628
v -18.79772277 79.70000000 38.07968450
v -18.73742706 79.70000000 38.05765592
v -18.68045066 79.70000000 38.02808366
v -18.62773270 79.70000000 37.99145515
v -18.58014217 79.70000000 37.94837417
v -18.53846351 79.70000000 37.89955082
v -18.50338372 79.70000000 37.84578988
v -18.47548104 79.70000000 37.78797750
v -18.45521540 79.70000000 37.72706664
v -18.44292083 79.70000000 37.66406129
v -19.27765243 79.70000000 37.93856038
v -19.22951571 79.70000000 37.98435459
v -19.17573230 79.70000000 38.02336224
v -19.11725184 79.70000000 38.05489457
v -19.05510692 79.70000000 38.07839483
v -18.99039485 79.70000000 38.09344807
f 3 48 26
f 4 47 48
f 4 48 3
f 5 46 47
f 5 47 4
f 6 45 46
f 6 46 5
f 7 44 45
f 7 45 6
f 8 43 44
f 8 44 7
f 9 42 43
f 9 43 8
f 10 41 42
f 10 42 9
f 11 40 41
f 11 41 10
f 12 39 40
f 12 40 11
f 13 38 39
f 13 39 12
f 14 37 38
f 14 38 13
f 15 37 14
f 15 36 37
f 16 36 15
f 17 36 16
f 17 34 35
f 17 35 36
f 18 34 17
f 18 33 34
f 19 33 18
f 19 32 33
f 20 32 19
f 20 31 32
f 21 31 20
f 21 30 31
f 22 30 21
f 22 29 30
f 23 29 22
f 24 27 28
f 24 28 29
f 24 29 23
f 25 1 27
f 25 27 24
f 2 1 25
f 51 96 74
f 52 95 96
f 52 96 51
f 53 94 95
f 53 95 52
f 54 93 94
f 54 94 53
f 55 92 93
f 55 93 54
f 56 91 92
f 56 92 55
f 57 90 91
f 57 91 56
f 58 89 90
f 58 90 57
f 59 88 89
f 59 89 58
f 60 87 88
f 60 88 59
f 61 86 87
f 61 87 60
f 62 85 86
f 62 86 61
f 63 85 62
f 63 84 85
f 64 84 63
f 65 84 64
f 65 82 83
f 65 83 84
f 66 82 65
f 66 81 82
f 67 81 66
f 67 80 81
f 68 80 67
f 68 79 80
f 69 79 68
f 69 78 79
f 70 78 69
f 70 77 78
f 71 77 70
f 72 75 76
f 72 76 77
f 72 77 71
f 73 49 75
f 73 75 72
f 50 49 73
f 100 122 99
f 100 123 122
f 101 124 123
f 101 123 100
f 102 125 124
f 102 124 101
f 103 126 125
f 103 125 102
f 104 127 126
f 104 126 103
f 105 128 127
f 105 127 104
f 106 129 128
f 106 128 105
f 107 130 129
f 107 129 106
f 108 131 130
f 108 132 131
f 108 130 107
f 109 132 108
f 110 133 132
f 110 132 109
f 111 133 110
f 111 134 133
f 112 134 111
f 112 135 134
f 113 135 112
f 113 136 135
f 113 137 136
f 114 137 113
f 114 138 137
f 115 138 114
f 116 138 115
f 116 139 138
f 117 139 116
f 117 140 139
f 117 141 140
f 118 141 117
f 119 141 118
f 119 142 141
f 120 142 119
f 120 143 142
f 121 143 120
f 121 144 143
f 98 144 121
f 98 97 144
f 148 170 147
f 148 171 170
f 149 172 171
f 149 171 148
f 150 173 172
f 150 172 149
f 151 174 173
f 151 173 150
f 152 175 174
f 152 174 151
f 153 176 175
f 153 175 152
f 154 177 176
f 154 176 153
f 155 178 177
f 155 177 154
f 156 179 178
f 156 180 179
f 156 178 155
f 157 180 156
f 158 181 180
f 158 180 157
f 159 181 158
f 159 182 181
f 160 182 159
f 160 183 182
f 161 183 160
f 161 184 183
f 161 185 184
f 162 185 161
f 162 186 185
f 163 186 162
f 164 186 163
f 164 187 186
f 165 187 164
f 165 188 187
f 165 189 188
f 166 189 165
f 167 189 166
f 167 190 189
f 168 190 167
f 168 191 190
f 169 191 168
f 169 192 191
f 146 192 169
f 146 145 192
f 217 240 218
f 216 239 240
f 216 240 217
f 215 238 239
f 215 239 216
f 214 237 238
f 214 238 215
f 213 236 237
f 213 237 214
f 212 235 236
f 212 236 213
f 211 234 235
f 211 235 212
f 210 233 234
f 210 234 211
f 209 232 233
f 209 233 210
f 208 231 232
f 208 232 209
f 207 230 231
f 207 231 208
f 206 229 230
f 206 230 207
f 205 229 206
f 205 228 229
f 204 228 205
f 204 227 228
f 203 227 204
f 202 227 203
f 202 225 226
f 202 226 227
f 201 225 202
f 200 225 201
f 200 223 224
f 200 224 225
f 199 223 200
f 199 222 223
f 198 222 199
f 197 220 221
f 197 221 222
f 197 222 198
f 196 220 197
f 195 219 220
f 195 220 196
f 194 193 219
f 194 219 195
f 264 266 265
f 264 288 266
f 263 287 288
f 263 288 264
f 262 286 287
f 262 287 263
f 261 285 286
f 261 286 262
f 260 284 285
f 260 285 261
f 259 283 284
f 259 284 260
f 258 282 283
f 258 283 259
f 257 281 282
f 257 282 258
f 256 279 280
f 256 280 281
f 256 281 257
f 255 279 256
f 254 278 279
f 254 279 255
f 253 278 254
f 253 277 278
f 252 277 253
f 252 276 277
f 251 276 252
f 251 275 276
f 250 275 251
f 250 273 274
f 250 274 275
f 249 273 250
f 248 273 249
f 248 271 272
f 248 272 273
f 247 271 248
f 247 270 271
f 246 270 247
f 246 269 270
f 245 269 246
f 244 268 269
f 244 269 245
f 243 267 268
f 243 268 244
f 242 241 267
f 242 267 243
f 320 317 318
f 320 318 319
f 321 317 320
f 322 317 321
f 323 317 322
f 324 315 316
f 324 316 317
f 324 317 323
f 325 312 313
f 325 313 314
f 325 314 315
f 325 315 324
f 326 312 325
f 311 312 326
f 310 326 327
f 310 311 326
f 309 310 327
f 308 309 327
f 307 308 327
f 307 327 328
f 306 307 328
f 305 306 328
f 305 328 329
f 305 329 330
f 305 330 331
f 305 331 332
f 290 289 291
f 333 305 332
f 292 290 291
f 292 341 342
f 292 342 343
f 292 343 344
f 292 344 290
f 304 333 334
f 304 334 335
f 304 335 336
f 304 336 337
f 304 305 333
f 303 304 337
f 293 341 292
f 302 337 338
f 302 303 337
f 294 341 293
f 294 340 341
f 295 340 294
f 301 302 338
f 300 301 338
f 296 340 295
f 299 338 339
f 299 300 338
f 297 340 296
f 297 339 340
f 298 299 339
f 298 339 297
f 348 345 346
f 348 347 345
f 357 358 359
f 357 359 360
f 357 360 361
f 357 361 362
f 364 362 363
f 364 357 362
f 353 364 365
f 353 357 364
f 354 355 356
f 354 356 357
f 354 357 353
f 352 354 353
f 366 354 352
f 350 351 349
f 350 352 351
f 371 367 368
f 371 368 369
f 371 369 370
f 372 367 371
f 373 367 372
f 374 367 373
f 378 374 375
f 378 375 376
f 378 376 377
f 318 350 367
f 318 367 374
f 318 374 378
f 317 366 352
f 317 352 350
f 317 350 318
f 379 382 381
f 379 380 382
f 409 354 366
f 409 408 354
f 421 409 366
f 420 421 366
f 419 420 366
f 418 366 397
f 418 397 398
f 418 419 366
f 417 398 399
f 417 399 400
f 417 400 401
f 417 418 398
f 416 401 402
f 416 417 401
f 403 415 416
f 403 416 402
f 404 415 403
f 405 415 404
f 406 415 405
f 406 414 415
f 407 414 406
f 396 414 407
f 396 410 411
f 396 411 412
f 396 412 413
f 396 413 414
f 423 436 435
f 422 410 396
f 395 436 423
f 395 423 424
f 395 424 425
f 395 425 426
f 395 426 427
f 383 431 432
f 383 432 433
f 383 433 434
f 383 434 422
f 383 422 396
f 384 431 383
f 394 395 427
f 385 431 384
f 385 430 431
f 393 394 427
f 393 427 428
f 392 393 428
f 386 430 385
f 387 430 386
f 391 392 428
f 388 429 430
f 388 430 387
f 390 428 429
f 390 391 428
f 389 429 388
f 389 390 429
f 236 235 396
f 234 396 235
f 237 236 396
f 233 396 234
f 238 237 396
f 232 396 233
f 239 238 396
f 231 396 232
f 240 239 396
f 230 396 231
f 218 240 396
f 229 396 230
f 481 218 396
f 482 481 396
f 483 482 396
f 383 396 229
f 383 226 225
f 383 227 226
f 383 228 227
f 383 229 228
f 224 383 225
f 223 383 224
f 222 383 223
f 221 383 222
f 220 383 221
f 219 383 220
f 193 383 219
f 502 383 193
f 501 383 502
f 500 383 501
f 20 489 488
f 21 20 488
f 19 489 20
f 22 488 487
f 22 21 488
f 18 490 489
f 18 489 19
f 23 487 486
f 23 22 487
f 17 490 18
f 24 23 486
f 16 491 490
f 16 490 17
f 25 486 485
f 25 24 486
f 15 491 16
f 2 485 484
f 2 25 485
f 14 491 15
f 14 492 491
f 437 2 484
f 437 484 483
f 13 493 492
f 13 492 14
f 438 483 396
f 438 437 483
f 12 493 13
f 11 494 493
f 11 493 12
f 10 494 11
f 9 495 494
f 9 494 10
f 8 495 9
f 7 496 495
f 7 495 8
f 6 496 7
f 6 497 496
f 5 497 6
f 4 498 497
f 4 497 5
f 3 499 498
f 3 498 4
f 458 500 499
f 458 499 3
f 457 500 458
f 457 383 500
f 68 442 441
f 68 443 442
f 69 441 440
f 69 68 441
f 67 444 443
f 67 443 68
f 70 440 439
f 70 69 440
f 66 445 444
f 66 444 67
f 71 70 439
f 65 445 66
f 72 71 439
f 72 439 438
f 64 446 445
f 64 445 65
f 63 447 446
f 63 448 447
f 63 446 64
f 62 448 63
f 61 449 448
f 61 448 62
f 60 449 61
f 60 450 449
f 60 451 450
f 59 451 60
f 58 452 451
f 58 451 59
f 57 452 58
f 57 453 452
f 56 453 57
f 56 454 453
f 56 455 454
f 55 455 56
f 55 456 455
f 54 456 55
f 53 456 54
f 53 457 456
f 283 460 459
f 283 461 460
f 284 283 459
f 284 459 50
f 282 461 283
f 282 462 461
f 285 284 50
f 285 50 73
f 281 463 462
f 281 464 463
f 281 462 282
f 286 285 73
f 286 73 72
f 280 464 281
f 280 465 464
f 280 466 465
f 279 466 280
f 279 467 466
f 279 468 467
f 278 468 279
f 278 469 468
f 278 470 469
f 277 470 278
f 277 471 470
f 276 471 277
f 276 472 471
f 276 473 472
f 275 473 276
f 275 474 473
f 275 475 474
f 274 475 275
f 274 476 475
f 274 477 476
f 273 477 274
f 273 478 477
f 272 478 273
f 272 479 478
f 272 480 479
f 305 503 266
f 305 504 503
f 305 505 504
f 305 506 505
f 305 507 506
f 305 508 507
f 305 286 72
f 305 287 286
f 305 288 287
f 305 266 288
f 271 480 272
f 271 51 480
f 509 508 305
f 270 51 271
f 270 52 51
f 510 509 305
f 269 52 270
f 269 53 52
f 511 510 305
f 512 511 305
f 513 512 305
f 304 53 269
f 304 514 513
f 304 515 514
f 304 516 515
f 304 517 516
f 304 518 517
f 304 519 518
f 304 520 519
f 304 521 520
f 304 522 521
f 304 523 522
f 304 524 523
f 304 241 524
f 304 267 241
f 304 268 267
f 304 269 268
f 304 513 305
f 305 438 396
f 305 72 438
f 383 457 304
f 457 53 304
f 127 128 526
f 129 526 128
f 126 127 526
f 130 526 129
f 125 126 526
f 131 526 130
f 124 125 526
f 132 526 131
f 123 124 526
f 133 526 132
f 122 123 526
f 550 122 526
f 549 550 526
f 548 549 526
f 547 548 526
f 527 133 134
f 527 134 135
f 527 135 136
f 527 136 137
f 527 526 133
f 527 137 138
f 527 138 139
f 527 139 140
f 527 140 141
f 527 141 142
f 527 142 143
f 527 143 144
f 527 144 97
f 527 97 529
f 527 529 530
f 527 530 531
f 527 531 532
f 175 545 546
f 175 176 545
f 177 543 544
f 177 544 545
f 177 545 176
f 174 526 525
f 174 547 526
f 174 546 547
f 174 175 546
f 178 543 177
f 173 174 525
f 179 543 178
f 179 541 542
f 179 542 543
f 172 173 525
f 180 541 179
f 171 172 525
f 181 541 180
f 181 539 540
f 181 540 541
f 170 171 525
f 182 539 181
f 572 170 525
f 183 538 539
f 183 539 182
f 571 572 525
f 184 538 183
f 184 536 537
f 184 537 538
f 570 571 525
f 185 536 184
f 569 570 525
f 186 536 185
f 186 534 535
f 186 535 536
f 568 569 525
f 187 533 534
f 187 534 186
f 567 568 525
f 188 532 533
f 188 533 187
f 566 567 525
f 189 527 532
f 189 532 188
f 565 566 525
f 564 565 525
f 563 564 525
f 562 563 525
f 528 527 189
f 528 562 525
f 528 189 190
f 528 190 191
f 528 191 192
f 528 192 145
f 528 145 551
f 528 551 552
f 528 552 553
f 528 553 554
f 528 554 555
f 528 555 556
f 528 556 557
f 528 557 558
f 528 558 559
f 528 559 560
f 528 560 561
f 528 561 562
f 582 583 584
f 582 584 436
f 579 580 581
f 579 581 582
f 578 582 436
f 578 579 582
f 577 578 436
f 576 577 436
f 573 574 575
f 573 575 576
f 573 576 436
f 585 436 395
f 585 573 436
f 292 585 395
f 588 585 292
f 587 586 585
f 587 585 588
f 291 588 292
f 589 588 291
f 599 600 589
f 598 291 590
f 598 590 591
f 598 591 592
f 598 589 291
f 598 599 589
f 595 592 593
f 595 593 594
f 595 596 597
f 595 597 598
f 595 598 592
f 212 410 211
f 210 211 410
f 213 410 212
f 209 210 410
f 214 410 213
f 208 209 410
f 215 410 214
f 207 208 410
f 216 410 215
f 206 207 410
f 217 410 216
f 645 410 217
f 646 410 645
f 647 410 646
f 422 201 202
f 422 206 410
f 422 202 203
f 422 203 204
f 422 204 205
f 422 205 206
f 200 201 422
f 199 200 422
f 198 199 422
f 197 198 422
f 196 197 422
f 195 196 422
f 194 195 422
f 666 194 422
f 665 666 422
f 664 665 422
f 32 652 653
f 31 652 32
f 33 32 653
f 30 651 652
f 30 652 31
f 34 653 654
f 34 33 653
f 29 650 651
f 29 651 30
f 35 34 654
f 28 650 29
f 36 654 655
f 36 35 654
f 27 649 650
f 27 650 28
f 37 36 655
f 1 648 649
f 1 649 27
f 38 37 655
f 38 655 656
f 622 647 648
f 622 648 1
f 39 656 657
f 39 38 656
f 621 647 622
f 40 39 657
f 41 657 658
f 41 40 657
f 42 41 658
f 43 658 659
f 43 42 658
f 44 43 659
f 45 44 659
f 45 659 660
f 46 45 660
f 46 660 661
f 47 46 661
f 48 661 662
f 48 47 661
f 26 48 662
f 26 662 663
f 601 663 664
f 601 26 663
f 602 601 664
f 80 617 616
f 79 617 80
f 79 618 617
f 81 616 615
f 81 80 616
f 78 618 79
f 78 619 618
f 78 620 619
f 82 81 615
f 77 621 620
f 77 620 78
f 83 615 614
f 83 82 615
f 76 621 77
f 84 614 613
f 84 83 614
f 85 84 613
f 85 612 611
f 85 613 612
f 86 85 611
f 87 611 610
f 87 86 611
f 88 610 609
f 88 87 610
f 89 609 608
f 89 88 609
f 90 608 607
f 90 89 608
f 91 607 606
f 91 90 607
f 92 91 606
f 92 606 605
f 93 92 605
f 93 605 604
f 94 93 604
f 94 604 603
f 95 94 603
f 95 603 602
f 259 643 642
f 259 644 643
f 260 644 259
f 260 49 644
f 258 259 642
f 258 642 641
f 261 49 260
f 261 75 49
f 257 258 641
f 257 640 639
f 257 641 640
f 262 75 261
f 262 76 75
f 256 257 639
f 256 638 637
f 256 639 638
f 255 256 637
f 255 636 635
f 255 637 636
f 254 635 634
f 254 255 635
f 253 254 634
f 253 633 632
f 253 634 633
f 252 253 632
f 252 631 630
f 252 632 631
f 251 252 630
f 251 629 628
f 251 630 629
f 250 251 628
f 250 627 626
f 250 628 627
f 249 250 626
f 249 626 625
f 248 249 625
f 248 624 623
f 248 625 624
f 247 623 74
f 247 248 623
f 332 262 263
f 332 263 264
f 332 264 265
f 332 265 667
f 332 667 668
f 332 668 669
f 332 669 670
f 332 670 671
f 332 671 672
f 673 332 672
f 246 247 74
f 246 74 96
f 674 332 673
f 245 246 96
f 245 96 95
f 675 332 674
f 676 332 675
f 677 332 676
f 333 332 677
f 333 242 243
f 333 243 244
f 333 244 245
f 333 677 678
f 333 678 679
f 333 679 680
f 333 680 681
f 333 681 682
f 333 682 683
f 333 683 684
f 333 684 685
f 333 685 686
f 333 686 687
f 333 687 688
f 333 688 242
f 332 410 647
f 332 647 621
f 332 621 262
f 262 621 76
f 422 333 245
f 422 245 95
f 422 95 664
f 664 95 602
f 713 711 712
f 714 711 713
f 707 708 709
f 705 706 707
f 408 709 710
f 408 710 711
f 408 714 715
f 408 715 716
f 408 711 714
f 408 705 707
f 408 707 709
f 704 705 408
f 409 704 408
f 701 702 703
f 701 703 704
f 698 699 700
f 696 697 698
f 695 696 698
f 693 694 695
f 693 698 700
f 693 695 698
f 690 691 692
f 689 692 693
f 689 693 700
f 689 690 692
f 319 700 701
f 319 689 700
f 320 704 409
f 320 701 704
f 320 319 701
f 104 718 105
f 106 105 718
f 103 718 104
f 107 106 718
f 102 718 103
f 108 107 718
f 101 718 102
f 109 108 718
f 100 718 101
f 110 718 717
f 110 109 718
f 99 718 100
f 111 110 717
f 742 718 99
f 112 111 717
f 741 718 742
f 113 112 717
f 740 718 741
f 114 113 717
f 115 114 717
f 116 115 717
f 117 116 717
f 118 117 717
f 119 118 717
f 120 119 717
f 121 120 717
f 98 121 717
f 721 98 717
f 722 721 717
f 723 722 717
f 152 738 737
f 152 737 153
f 154 737 736
f 154 153 737
f 151 739 738
f 151 740 739
f 151 738 152
f 155 736 735
f 155 154 736
f 150 740 151
f 150 718 740
f 156 734 733
f 156 735 734
f 156 155 735
f 157 156 733
f 158 157 733
f 158 732 731
f 158 733 732
f 159 158 731
f 160 731 730
f 160 159 731
f 161 729 728
f 161 730 729
f 161 160 730
f 162 728 727
f 162 161 728
f 163 162 727
f 164 726 725
f 164 727 726
f 164 163 727
f 165 725 724
f 165 164 725
f 166 165 724
f 167 724 723
f 167 166 724
f 167 723 717
f 720 754 753
f 720 755 754
f 720 756 755
f 720 757 756
f 720 758 757
f 720 759 758
f 720 760 759
f 720 761 760
f 720 762 761
f 720 763 762
f 720 764 763
f 720 147 764
f 720 148 147
f 720 149 148
f 720 150 149
f 720 718 150
f 719 167 717
f 719 743 146
f 719 744 743
f 719 745 744
f 719 720 753
f 719 746 745
f 719 747 746
f 719 748 747
f 719 749 748
f 719 750 749
f 719 751 750
f 719 752 751
f 719 753 752
f 719 168 167
f 719 169 168
f 719 146 169
f 780 435 778
f 780 778 779
f 782 780 781
f 782 435 780
f 783 435 782
f 785 783 784
f 786 435 783
f 786 783 785
f 788 786 787
f 789 435 786
f 789 786 788
f 790 423 435
f 790 435 789
f 290 423 790
f 765 790 791
f 765 290 790
f 792 765 791
f 289 290 765
f 766 289 765
f 768 766 767
f 776 777 289
f 770 768 769
f 774 775 776
f 774 289 766
f 774 776 289
f 774 766 768
f 771 768 770
f 772 773 774
f 772 774 768
f 772 768 771
f 795 794 793
f 795 796 794
f 798 526 797
f 798 525 526
f 800 799 801
f 800 801 802
f 806 803 804
f 806 805 803
f 808 807 809
f 808 809 810
f 813 812 814
f 811 812 813
f 818 815 816
f 818 817 815
f 821 820 819
f 822 820 821
f 825 823 824
f 825 824 826
f 828 829 830
f 827 829 828
f 831 832 834
f 833 831 834
f 688 241 242
f 688 524 241
f 687 523 524
f 687 524 688
f 686 522 523
f 686 523 687
f 685 521 522
f 685 522 686
f 684 520 521
f 684 521 685
f 683 519 520
f 683 520 684
f 682 517 518
f 682 518 519
f 682 519 683
f 681 516 517
f 681 517 682
f 680 515 516
f 680 516 681
f 679 515 680
f 678 514 515
f 678 515 679
f 677 514 678
f 677 513 514
f 676 513 677
f 676 512 513
f 675 512 676
f 675 511 512
f 674 511 675
f 674 509 510
f 674 510 511
f 673 509 674
f 672 509 673
f 672 508 509
f 671 508 672
f 671 507 508
f 670 505 506
f 670 506 507
f 670 507 671
f 669 505 670
f 668 504 505
f 668 505 669
f 667 503 504
f 667 504 668
f 265 266 503
f 265 503 667
f 666 193 194
f 666 502 193
f 665 501 502
f 665 502 666
f 664 500 501
f 664 501 665
f 663 499 500
f 663 500 664
f 662 498 499
f 662 499 663
f 661 497 498
f 661 498 662
f 660 496 497
f 660 497 661
f 659 495 496
f 659 496 660
f 658 494 495
f 658 495 659
f 657 493 494
f 657 494 658
f 656 492 493
f 656 493 657
f 655 492 656
f 655 491 492
f 654 491 655
f 654 490 491
f 653 490 654
f 653 489 490
f 652 489 653
f 652 488 489
f 651 488 652
f 651 487 488
f 650 487 651
f 650 485 486
f 650 486 487
f 649 485 650
f 648 485 649
f 648 483 484
f 648 484 485
f 647 483 648
f 646 482 483
f 646 483 647
f 645 481 482
f 645 482 646
f 217 218 481
f 217 481 645
f 743 145 146
f 743 551 145
f 744 552 551
f 744 551 743
f 745 553 552
f 745 552 744
f 746 554 553
f 746 553 745
f 747 555 554
f 747 554 746
f 748 556 555
f 748 555 747
f 749 557 556
f 749 558 557
f 749 556 748
f 750 558 749
f 751 559 558
f 751 558 750
f 752 560 559
f 752 561 560
f 752 559 751
f 753 561 752
f 754 561 753
f 754 562 561
f 754 563 562
f 755 563 754
f 756 563 755
f 756 564 563
f 757 564 756
f 757 565 564
f 758 565 757
f 758 566 565
f 759 566 758
f 759 567 566
f 760 567 759
f 760 568 567
f 761 568 760
f 761 569 568
f 761 570 569
f 762 570 761
f 763 570 762
f 763 571 570
f 764 571 763
f 764 572 571
f 147 572 764
f 147 170 572
f 721 97 98
f 721 529 97
f 722 530 529
f 722 529 721
f 723 531 530
f 723 530 722
f 724 532 531
f 724 531 723
f 725 533 532
f 725 532 724
f 726 534 533
f 726 533 725
f 727 535 534
f 727 536 535
f 727 534 726
f 728 536 727
f 729 537 536
f 729 536 728
f 730 538 537
f 730 539 538
f 730 537 729
f 731 539 730
f 732 539 731
f 732 540 539
f 732 541 540
f 733 541 732
f 734 541 733
f 734 542 541
f 735 542 734
f 735 543 542
f 736 543 735
f 736 544 543
f 737 544 736
f 737 545 544
f 738 545 737
f 738 546 545
f 739 546 738
f 739 547 546
f 739 548 547
f 740 548 739
f 741 548 740
f 741 549 548
f 742 549 741
f 742 550 549
f 99 550 742
f 99 122 550
f 459 49 50
f 459 644 49
f 460 643 644
f 460 644 459
f 461 642 643
f 461 643 460
f 462 641 642
f 462 642 461
f 463 640 641
f 463 641 462
f 464 639 640
f 464 640 463
f 465 638 639
f 465 639 464
f 466 637 638
f 466 638 465
f 467 636 637
f 467 637 466
f 468 635 636
f 468 636 467
f 469 634 635
f 469 635 468
f 470 634 469
f 470 633 634
f 471 633 470
f 471 632 633
f 472 632 471
f 472 631 632
f 473 631 472
f 473 630 631
f 474 630 473
f 474 628 629
f 474 629 630
f 475 628 474
f 476 628 475
f 476 626 627
f 476 627 628
f 477 626 476
f 477 625 626
f 478 625 477
f 479 623 624
f 479 624 625
f 479 625 478
f 480 623 479
f 51 74 623
f 51 623 480
f 437 1 2
f 437 622 1
f 438 621 622
f 438 622 437
f 439 620 621
f 439 621 438
f 440 619 620
f 440 620 439
f 441 618 619
f 441 619 440
f 442 617 618
f 442 618 441
f 443 616 617
f 443 617 442
f 444 615 616
f 444 616 443
f 445 614 615
f 445 615 444
f 446 613 614
f 446 614 445
f 447 612 613
f 447 613 446
f 448 612 447
f 448 611 612
f 449 611 448
f 449 610 611
f 450 610 449
f 450 609 610
f 451 609 450
f 451 608 609
f 452 608 451
f 452 606 607
f 452 607 608
f 453 606 452
f 454 606 453
f 454 604 605
f 454 605 606
f 455 604 454
f 455 603 604
f 456 603 455
f 457 601 602
f 457 602 603
f 457 603 456
f 458 601 457
f 3 26 601
f 3 601 458
f 352 705 704
f 352 353 705
f 790 573 585
f 790 789 573
f 928 943 944
f 928 944 927
f 929 942 943
f 929 943 928
f 930 941 942
f 930 942 929
f 931 940 941
f 931 941 930
f 932 939 940
f 932 940 931
f 933 938 939
f 933 939 932
f 830 527 934
f 830 934 935
f 830 935 936
f 830 936 937
f 830 937 938
f 830 938 933
f 829 527 830
f 925 923 924
f 926 829 923
f 926 923 925
f 815 527 829
f 815 829 926
f 880 896 879
f 881 895 896
f 881 896 880
f 882 894 895
f 882 895 881
f 899 900 831
f 883 893 894
f 883 894 882
f 898 899 831
f 884 893 883
f 884 892 893
f 809 897 898
f 809 898 831
f 885 891 892
f 885 892 884
f 886 891 885
f 886 833 891
f 887 833 886
f 888 833 887
f 889 833 888
f 890 833 889
f 814 833 890
f 814 831 833
f 814 809 831
f 817 527 815
f 862 917 918
f 863 916 917
f 863 917 862
f 861 918 919
f 861 919 920
f 861 862 918
f 864 916 863
f 864 915 916
f 860 920 921
f 860 861 920
f 865 915 864
f 865 914 915
f 859 921 922
f 859 860 921
f 866 914 865
f 866 913 914
f 858 922 345
f 858 859 922
f 867 913 866
f 867 912 913
f 857 858 345
f 703 857 345
f 703 347 901
f 703 901 902
f 703 902 903
f 703 345 347
f 717 527 817
f 717 912 867
f 717 817 912
f 812 809 814
f 812 810 809
f 868 810 812
f 869 810 868
f 869 911 810
f 870 911 869
f 870 910 911
f 871 909 910
f 871 910 870
f 872 907 908
f 872 908 909
f 872 909 871
f 873 907 872
f 873 906 907
f 874 905 906
f 874 906 873
f 875 904 905
f 875 905 874
f 876 904 875
f 876 703 903
f 876 903 904
f 877 703 876
f 878 703 877
f 704 703 878
f 704 351 352
f 704 878 351
f 718 527 717
f 960 850 851
f 961 849 850
f 961 850 960
f 959 960 851
f 959 851 852
f 958 959 852
f 962 848 849
f 962 849 961
f 963 847 848
f 963 848 962
f 957 958 852
f 957 852 853
f 964 846 847
f 964 847 963
f 956 853 854
f 956 957 853
f 965 718 846
f 965 846 964
f 955 956 854
f 955 854 855
f 380 855 856
f 380 856 791
f 380 955 855
f 793 718 965
f 382 380 791
f 976 382 791
f 975 976 791
f 974 975 791
f 840 970 971
f 841 970 840
f 841 968 969
f 841 969 970
f 839 971 972
f 839 840 971
f 838 972 973
f 838 839 972
f 842 967 968
f 842 968 841
f 843 967 842
f 843 966 967
f 837 973 974
f 837 974 791
f 837 838 973
f 844 966 843
f 844 805 966
f 836 837 791
f 845 805 844
f 835 836 791
f 802 805 845
f 790 586 835
f 790 835 791
f 585 586 790
f 526 527 718
f 526 718 793
f 794 526 793
f 952 794 951
f 954 794 952
f 954 952 953
f 823 794 954
f 823 526 794
f 947 948 949
f 947 949 950
f 825 526 823
f 825 797 526
f 945 946 947
f 945 797 825
f 945 950 797
f 945 947 950
f 803 805 802
f 977 978 979
f 820 977 979
f 820 979 980
f 820 980 803
f 801 803 802
f 801 820 803
f 801 819 820
f 988 819 801
f 998 981 982
f 989 819 988
f 997 998 982
f 997 982 983
f 990 819 989
f 996 983 984
f 996 997 983
f 991 819 990
f 995 996 984
f 995 984 985
f 992 987 819
f 992 819 991
f 994 985 986
f 994 995 985
f 993 987 992
f 993 986 987
f 993 994 986
f 700 367 350
f 700 350 701
f 589 766 765
f 589 765 588
f 1031 798 1029
f 1031 1029 1030
f 826 798 1031
f 826 1031 1032
f 826 1032 1033
f 826 1033 1034
f 826 525 798
f 824 525 826
f 1027 1025 1026
f 1028 1025 1027
f 796 525 824
f 796 1025 1028
f 796 824 1025
f 1146 1162 1145
f 1147 1162 1146
f 1147 1161 1162
f 1148 1161 1147
f 1148 1160 1161
f 1149 1160 1148
f 1149 1159 1160
f 1000 1001 1002
f 1000 1002 822
f 1150 1159 1149
f 1150 1158 1159
f 804 999 1000
f 804 1000 822
f 1151 1158 1150
f 1151 1157 1158
f 1152 1157 1151
f 1152 821 1157
f 1153 821 1152
f 1154 821 1153
f 1155 821 1154
f 1156 821 1155
f 799 822 821
f 799 804 822
f 799 821 1156
f 795 525 796
f 1128 1019 1020
f 1129 1018 1019
f 1129 1019 1128
f 1127 1020 1021
f 1127 1021 1022
f 1127 1128 1020
f 1126 1127 1022
f 1126 1022 1023
f 1130 1018 1129
f 1130 1017 1018
f 1125 1126 1023
f 1125 1023 1024
f 1131 1016 1017
f 1131 1017 1130
f 1132 1015 1016
f 1132 1016 1131
f 1124 1125 1024
f 1124 1024 379
f 1133 1015 1132
f 1133 1014 1015
f 1123 1124 379
f 792 381 1003
f 792 1003 1004
f 792 1004 1005
f 792 379 381
f 792 1123 379
f 720 525 795
f 720 795 1014
f 720 1014 1133
f 800 806 804
f 800 804 799
f 1134 806 800
f 1135 1013 806
f 1135 806 1134
f 1136 1012 1013
f 1136 1013 1135
f 1137 1011 1012
f 1137 1012 1136
f 1138 1009 1010
f 1138 1010 1011
f 1138 1011 1137
f 1139 1008 1009
f 1139 1009 1138
f 1140 1007 1008
f 1140 1008 1139
f 1141 1006 1007
f 1141 1007 1140
f 1142 1005 1006
f 1142 792 1005
f 1142 1006 1141
f 1143 792 1142
f 1144 792 1143
f 765 587 588
f 765 1144 587
f 765 792 1144
f 1062 1116 1117
f 1063 1115 1116
f 1063 1116 1062
f 1061 1117 1118
f 1061 1062 1117
f 1064 1115 1063
f 1064 1114 1115
f 1060 1061 1118
f 1065 1114 1064
f 1065 1113 1114
f 1059 1060 1118
f 1059 1118 1119
f 1066 1113 1065
f 1066 1112 1113
f 1058 1059 1119
f 1058 1119 1120
f 1067 1112 1066
f 1067 719 1112
f 1057 1058 1120
f 1057 1120 1121
f 346 1057 1121
f 346 1121 1122
f 346 1122 702
f 818 719 1067
f 348 346 702
f 1078 348 702
f 1077 1078 702
f 1076 1077 702
f 1106 1072 1073
f 1107 1072 1106
f 1107 1070 1071
f 1107 1071 1072
f 1105 1106 1073
f 1105 1073 1074
f 1108 1070 1107
f 1108 1069 1070
f 1104 1105 1074
f 1104 1074 1075
f 1109 1069 1108
f 1109 1068 1069
f 1103 1076 702
f 1103 1104 1075
f 1103 1075 1076
f 1110 1068 1109
f 1110 808 1068
f 1102 1103 702
f 1111 808 1110
f 1101 1102 702
f 811 808 1111
f 701 349 1101
f 701 1101 702
f 350 349 701
f 528 719 818
f 528 720 719
f 528 525 720
f 816 528 818
f 1056 816 1053
f 1056 1053 1054
f 1056 1054 1055
f 827 528 816
f 827 816 1056
f 1052 1035 1036
f 1052 1036 1037
f 1051 1052 1037
f 1051 1037 1038
f 1050 1051 1038
f 1050 1038 1039
f 1049 1050 1039
f 1049 1039 1040
f 828 528 827
f 828 1042 1043
f 828 1043 1044
f 828 1044 1045
f 828 1045 1046
f 828 1046 528
f 1048 1049 1040
f 1048 1040 1041
f 1047 1042 828
f 1047 1048 1041
f 1047 1041 1042
f 807 808 811
f 1080 1081 1082
f 1080 1082 807
f 1079 1080 807
f 832 1079 807
f 813 834 832
f 813 807 811
f 813 832 807
f 1090 834 813
f 1100 1083 1084
f 1091 834 1090
f 1099 1084 1085
f 1099 1100 1084
f 1092 834 1091
f 1098 1085 1086
f 1098 1099 1085
f 1093 834 1092
f 1097 1086 1087
f 1097 1098 1086
f 1094 1089 834
f 1094 834 1093
f 1096 1087 1088
f 1096 1097 1087
f 1095 1088 1089
f 1095 1089 1094
f 1095 1096 1088
f 383 304 303
f 384 383 303
f 385 303 302
f 385 384 303
f 386 302 301
f 386 385 302
f 387 301 300
f 387 386 301
f 388 300 299
f 388 387 300
f 389 299 298
f 389 388 299
f 390 298 297
f 390 389 298
f 391 297 296
f 391 390 297
f 392 296 295
f 392 391 296
f 393 295 294
f 393 392 295
f 394 294 293
f 394 393 294
f 395 293 292
f 395 394 293
f 366 317 316
f 397 316 315
f 397 366 316
f 398 315 314
f 398 397 315
f 399 314 313
f 399 398 314
f 400 313 312
f 400 399 313
f 401 312 311
f 401 400 312
f 402 311 310
f 402 401 311
f 403 402 310
f 404 309 308
f 404 310 309
f 404 403 310
f 405 404 308
f 406 308 307
f 406 405 308
f 407 307 306
f 407 406 307
f 396 306 305
f 396 407 306
f 811 868 812
f 1111 869 868
f 1111 868 811
f 1110 870 869
f 1110 869 1111
f 1109 871 870
f 1109 870 1110
f 1108 872 871
f 1108 871 1109
f 1107 873 872
f 1107 872 1108
f 1106 874 873
f 1106 873 1107
f 1105 875 874
f 1105 874 1106
f 1104 876 875
f 1104 875 1105
f 1103 877 876
f 1103 876 1104
f 1102 877 1103
f 1101 878 877
f 1101 351 878
f 1101 877 1102
f 349 351 1101
f 802 1134 800
f 845 1135 1134
f 845 1134 802
f 844 1136 1135
f 844 1135 845
f 843 1137 1136
f 843 1136 844
f 842 1138 1137
f 842 1137 843
f 841 1139 1138
f 841 1138 842
f 840 1140 1139
f 840 1139 841
f 839 1141 1140
f 839 1140 840
f 838 1142 1141
f 838 1141 839
f 837 1143 1142
f 837 1142 838
f 836 1144 1143
f 836 1143 837
f 835 587 1144
f 835 1144 836
f 586 587 835
f 702 857 703
f 1122 858 857
f 1122 857 702
f 1121 859 858
f 1121 858 1122
f 1120 860 859
f 1120 859 1121
f 1119 861 860
f 1119 860 1120
f 1118 862 861
f 1118 861 1119
f 1117 863 862
f 1117 862 1118
f 1116 864 863
f 1116 863 1117
f 1115 865 864
f 1115 864 1116
f 1114 866 865
f 1114 865 1115
f 1113 866 1114
f 1112 867 866
f 1112 717 867
f 1112 866 1113
f 719 717 1112
f 720 846 718
f 1133 847 846
f 1133 846 720
f 1132 848 847
f 1132 847 1133
f 1131 849 848
f 1131 848 1132
f 1130 850 849
f 1130 849 1131
f 1129 851 850
f 1129 850 1130
f 1128 852 851
f 1128 851 1129
f 1127 853 852
f 1127 852 1128
f 1126 854 853
f 1126 853 1127
f 1125 855 854
f 1125 854 1126
f 1124 855 1125
f 1123 856 855
f 1123 791 856
f 1123 855 1124
f 792 791 1123
f 332 411 410
f 331 412 411
f 331 411 332
f 330 413 412
f 330 412 331
f 329 414 413
f 329 413 330
f 328 415 414
f 328 414 329
f 327 416 415
f 327 415 328
f 326 417 416
f 326 416 327
f 325 418 417
f 325 417 326
f 324 419 418
f 324 418 325
f 323 420 419
f 323 419 324
f 322 420 323
f 321 421 420
f 321 409 421
f 321 420 322
f 320 409 321
f 290 424 423
f 344 425 424
f 344 424 290
f 343 426 425
f 343 425 344
f 342 427 426
f 342 426 343
f 341 428 427
f 341 427 342
f 340 429 428
f 340 428 341
f 339 430 429
f 339 429 340
f 338 431 430
f 338 430 339
f 337 432 431
f 337 431 338
f 336 433 432
f 336 432 337
f 335 434 433
f 335 433 336
f 334 434 335
f 333 422 434
f 333 434 334
f 1013 805 806
f 1013 966 805
f 1012 967 966
f 1012 966 1013
f 1011 968 967
f 1011 967 1012
f 1010 969 968
f 1010 968 1011
f 1009 970 969
f 1009 971 970
f 1009 969 1010
f 1008 971 1009
f 1007 972 971
f 1007 973 972
f 1007 971 1008
f 1006 974 973
f 1006 973 1007
f 1005 975 974
f 1005 974 1006
f 1004 976 975
f 1004 975 1005
f 1003 976 1004
f 381 382 976
f 381 976 1003
f 793 1014 795
f 965 1015 1014
f 965 1014 793
f 964 1016 1015
f 964 1015 965
f 963 1017 1016
f 963 1016 964
f 962 1018 1017
f 962 1017 963
f 961 1019 1018
f 961 1018 962
f 960 1020 1019
f 960 1019 961
f 959 1021 1020
f 959 1020 960
f 958 1022 1021
f 958 1021 959
f 957 1023 1022
f 957 1022 958
f 956 1024 1023
f 956 1023 957
f 955 379 1024
f 955 1024 956
f 380 379 955
f 982 981 1145
f 982 1145 1162
f 983 1162 1161
f 983 982 1162
f 984 1161 1160
f 984 983 1161
f 985 1160 1159
f 985 984 1160
f 986 1159 1158
f 986 985 1159
f 987 1158 1157
f 987 986 1158
f 819 1157 821
f 819 987 1157
f 988 1156 1155
f 988 799 1156
f 988 801 799
f 989 1155 1154
f 989 988 1155
f 990 1154 1153
f 990 989 1154
f 991 1153 1152
f 991 990 1153
f 992 991 1152
f 993 1152 1151
f 993 992 1152
f 994 1151 1150
f 994 993 1151
f 995 1150 1149
f 995 994 1150
f 996 1149 1148
f 996 995 1149
f 997 1148 1147
f 997 996 1148
f 998 1147 1146
f 998 997 1147
f 981 1146 1145
f 981 998 1146
f 977 820 822
f 977 822 1002
f 978 1002 1001
f 978 977 1002
f 979 1001 1000
f 979 978 1001
f 980 1000 999
f 980 979 1000
f 803 999 804
f 803 980 999
f 825 826 1034
f 945 1034 1033
f 945 825 1034
f 946 1033 1032
f 946 945 1033
f 947 1032 1031
f 947 946 1032
f 948 1031 1030
f 948 947 1031
f 949 1030 1029
f 949 948 1030
f 950 1029 798
f 950 949 1029
f 797 950 798
f 1025 824 823
f 1025 823 954
f 1026 954 953
f 1026 1025 954
f 1027 953 952
f 1027 1026 953
f 1028 952 951
f 1028 1027 952
f 796 951 794
f 796 1028 951
f 891 833 834
f 891 834 1089
f 892 1089 1088
f 892 891 1089
f 893 1088 1087
f 893 892 1088
f 894 1087 1086
f 894 893 1087
f 895 1086 1085
f 895 894 1086
f 896 1085 1084
f 896 895 1085
f 879 1084 1083
f 879 896 1084
f 813 814 890
f 1090 890 889
f 1090 813 890
f 1091 889 888
f 1091 1090 889
f 1092 888 887
f 1092 1091 888
f 1093 887 886
f 1093 1092 887
f 1094 886 885
f 1094 1093 886
f 1095 885 884
f 1095 1094 885
f 1096 884 883
f 1096 1095 884
f 1097 883 882
f 1097 1096 883
f 1098 882 881
f 1098 1097 882
f 1099 881 880
f 1099 1098 881
f 1100 880 879
f 1100 1099 880
f 1083 1100 879
f 832 831 900
f 1079 900 899
f 1079 832 900
f 1080 899 898
f 1080 1079 899
f 1081 898 897
f 1081 1080 898
f 1082 897 809
f 1082 1081 897
f 807 1082 809
f 911 808 810
f 911 1068 808
f 910 1069 1068
f 910 1068 911
f 909 1070 1069
f 909 1069 910
f 908 1071 1070
f 908 1070 909
f 907 1072 1071
f 907 1071 908
f 906 1073 1072
f 906 1072 907
f 905 1074 1073
f 905 1075 1074
f 905 1073 906
f 904 1076 1075
f 904 1075 905
f 903 1076 904
f 902 1077 1076
f 902 1078 1077
f 902 1076 903
f 901 1078 902
f 347 348 1078
f 347 1078 901
f 818 912 817
f 1067 913 912
f 1067 912 818
f 1066 914 913
f 1066 913 1067
f 1065 915 914
f 1065 914 1066
f 1064 916 915
f 1064 915 1065
f 1063 917 916
f 1063 916 1064
f 1062 918 917
f 1062 917 1063
f 1061 919 918
f 1061 918 1062
f 1060 920 919
f 1060 919 1061
f 1059 921 920
f 1059 920 1060
f 1058 921 1059
f 1057 922 921
f 1057 345 922
f 1057 921 1058
f 346 345 1057
f 829 827 1056
f 923 1056 1055
f 923 829 1056
f 924 1055 1054
f 924 923 1055
f 925 1054 1053
f 925 924 1054
f 926 1053 816
f 926 925 1053
f 815 926 816
f 1035 927 944
f 1036 944 943
f 1036 1035 944
f 1037 943 942
f 1037 1036 943
f 1038 942 941
f 1038 1037 942
f 1039 941 940
f 1039 1038 941
f 1040 1039 940
f 1041 940 939
f 1041 1040 940
f 1042 939 938
f 1042 1041 939
f 1043 938 937
f 1043 1042 938
f 1044 937 936
f 1044 1043 937
f 1045 936 935
f 1045 1044 936
f 1046 935 934
f 1046 1045 935
f 528 934 527
f 528 1046 934
f 928 1035 1052
f 928 927 1035
f 929 1052 1051
f 929 928 1052
f 930 1051 1050
f 930 929 1051
f 931 1050 1049
f 931 930 1050
f 932 1049 1048
f 932 931 1049
f 933 1048 1047
f 933 932 1048
f 830 1047 828
f 830 933 1047
f 767 589 600
f 767 766 589
f 768 600 599
f 768 767 600
f 769 599 598
f 769 768 599
f 770 598 597
f 770 769 598
f 771 597 596
f 771 770 597
f 772 596 595
f 772 771 596
f 773 595 594
f 773 772 595
f 774 594 593
f 774 773 594
f 775 593 592
f 775 774 593
f 776 592 591
f 776 775 592
f 777 591 590
f 777 776 591
f 289 590 291
f 289 777 590
f 368 700 699
f 368 367 700
f 369 699 698
f 369 368 699
f 370 698 697
f 370 369 698
f 371 697 696
f 371 370 697
f 372 696 695
f 372 371 696
f 373 695 694
f 373 372 695
f 374 694 693
f 374 373 694
f 375 693 692
f 375 374 693
f 376 692 691
f 376 375 692
f 377 691 690
f 377 376 691
f 378 690 689
f 378 377 690
f 318 689 319
f 318 378 689
f 574 789 788
f 574 573 789
f 575 788 787
f 575 574 788
f 576 787 786
f 576 575 787
f 577 786 785
f 577 576 786
f 578 785 784
f 578 577 785
f 579 784 783
f 579 578 784
f 580 783 782
f 580 579 783
f 581 782 781
f 581 580 782
f 582 781 780
f 582 581 781
f 583 780 779
f 583 582 780
f 584 779 778
f 584 583 779
f 436 778 435
f 436 584 778
f 706 353 365
f 706 705 353
f 707 365 364
f 707 706 365
f 708 364 363
f 708 707 364
f 709 363 362
f 709 708 363
f 710 362 361
f 710 709 362
f 711 361 360
f 711 710 361
f 712 360 359
f 712 711 360
f 713 359 358
f 713 712 359
f 714 358 357
f 714 713 358
f 715 357 356
f 715 714 357
f 716 356 355
f 716 715 356
f 408 355 354
f 408 716 355

