# https://github.com/mikedh/trimesh
v 9.33190835 36.06762557 -5.41539126
v 6.02920046 36.33722623 -7.96149180
v 15.12296861 18.85000000 20.90093360
v -17.34209076 18.75000000 20.72772852
v -16.61285343 18.78367501 20.83933664
v -15.88230548 18.85869587 20.90569950
v 12.09242958 18.95000000 -20.91075463
v 25.68542885 18.95000000 2.63301074
v 25.67952703 18.89823619 2.63641816
v 10.56173473 18.99624861 -23.56038132
v 12.09240319 18.95000000 -20.91080032
v -11.66128755 -18.69036015 -6.47001375
v -14.90274733 -14.72340549 -8.81523250
v -15.11348918 -14.73162572 -8.39409119
v -0.00000000 -14.59814643 -26.08040594
v -0.11681366 -14.59809671 -26.07971036
v -0.24186781 -14.59814643 -26.07701117
v -0.24022462 -14.73607731 -26.01848605
v -0.16016143 -14.73607731 -26.02035917
v -0.08008422 -14.73607731 -26.02148310
v -0.00000000 -18.69142136 -22.06651371
v -0.06939799 -18.69142136 -22.06599065
v -0.13878022 -18.69142136 -22.06442159
v -14.90668202 -14.59814643 -8.87918125
v 15.15766415 -14.59839635 -8.43838293
v 15.10397486 -14.73501610 -8.41779251
v 11.66128755 -18.69036015 -6.47001375
v 11.64954602 -18.69142136 -6.49292183
v 0.24062232 -14.64143184 -26.07336229
v -20.22073600 18.86113288 20.10777855
v 0.23625552 -14.59814643 17.34915594
v -15.16259303 -14.62500628 -8.42326778
v -6.43230525 0.44336982 -23.61007060
v 11.35746464 -18.74374280 -6.83783908
v -18.88286705 -18.75000000 11.13497507
v -19.08460481 -18.75000000 10.78555503
v 0.20173776 -18.75000000 -21.92053010
v -22.70428804 -14.59814643 12.82904192
v -22.46242022 -14.59814643 13.24796926
v 22.46242022 -14.59814643 13.24796926
v 22.70428804 -14.59814643 12.82904192
v -9.89040127 20.53842733 -24.58817408
v -16.40430183 20.52731856 20.85365446
v 15.12296861 20.55349048 20.89976996
v 25.66121602 20.55349048 2.64699002
v 25.68540247 18.95349048 2.63302597
v 27.21982614 20.53846926 7.04715868
v 26.95713004 18.95349048 5.78066217
v 26.43131834 18.95349048 4.16238014
v 12.09240320 18.95349048 -20.91073940
v -5.05009876 19.07550406 -28.79695673
v -1.46118468 36.11693156 9.09591791
v 19.21015066 -18.69142136 10.85065678
v 22.65278220 -14.73607731 12.80120241
v 22.57530752 -14.73607731 12.94138658
v 22.41255758 -14.73607731 13.21728365
v 19.07500946 -18.69142136 11.09309575
v 19.14440746 -18.69142136 10.97289490
v 14.85597780 -14.73607731 -8.84990716
v -0.27729162 -14.67601119 17.33422929
v 0.23625552 -14.73607731 17.29060776
v -19.00201976 -18.69142136 11.21115009
v -22.41255758 -14.73607731 13.21728365
v -22.49522330 -14.73607731 13.08009652
v -22.65278220 -14.73607731 12.80120241
v -19.21015066 -18.69142136 10.85065678
v -19.14440746 -18.69142136 10.97289490
v -19.07500946 -18.69142136 11.09309575
v -11.44780826 -18.69142136 -6.84234188
v 0.08008422 -14.73607731 -26.02148310
v 0.16016143 -14.73607731 -26.02035917
v 0.24022462 -14.73607731 -26.01848605
v 0.20813091 -18.69142136 -22.06180688
v 0.13878022 -18.69142136 -22.06442159
v 0.06939799 -18.69142136 -22.06599065
v -19.24070598 -18.67157874 10.75638254
v -22.10558799 -15.38492224 12.40828708
v -20.38399403 -17.36238203 11.43342729
v -22.72821647 -14.66706110 12.71253374
v -23.70169274 0.52926149 6.37684291
v -23.34188827 0.44543200 5.38548311
v 11.60457303 -19.08330326 3.54375443
v 19.11034620 -18.74326025 10.74096963
v 19.24070598 -18.67157874 10.75638254
v 22.10558799 -15.38492224 12.40828708
v 20.38399403 -17.36238203 11.43342729
v 20.38938252 -17.33113340 11.36067976
v 22.72829921 -14.59850537 12.73020795
v 23.34188827 0.44543200 5.38548311
v -18.93565352 -18.67157874 11.28474890
v -21.79868583 -15.38492224 12.93985723
v -20.09363550 -17.36238203 11.93634301
v -21.17002150 -16.01284077 12.64664242
v -20.03332854 -17.33113340 11.97738335
v -22.38883308 -14.59850537 13.31818053
v -16.33490932 0.44543200 17.52192666
v -17.51862252 0.39799148 17.25441377
v -18.37220322 0.52908207 17.09165327
v 18.83311918 -18.72349524 11.22114092
v 19.18337286 -18.73109438 10.78326506
v 18.96478352 -18.78157832 11.10057012
v 19.19653128 -18.70355416 10.70303006
v 22.71269251 -14.66819580 12.78525631
v 22.71457470 -14.68057714 12.70698526
v 18.84422892 -18.64713686 11.31154613
v 22.50590185 -14.66872782 13.16030686
v 20.03332859 -17.33113334 11.97738338
v 22.05084089 -14.98982404 13.16849212
v 22.33669740 -14.66588413 13.33129180
v 22.38883308 -14.59850537 13.31818053
v 22.42000009 -14.68018694 13.28100657
v -0.25330188 -18.68686511 13.33025747
v 0.10746119 -18.75974136 13.29289787
v -0.28781964 -14.73152106 17.28560151
v 16.33212565 0.39799148 17.50173559
v 0.28781964 -14.73152106 17.28560151
v 0.33356636 -14.66187902 17.32555556
v 15.15583303 -14.67334419 -8.39530193
v 14.92757114 -14.67240807 -8.85279565
v 11.41769067 -18.68686511 -6.88449460
v 11.62475708 -18.73368599 -6.36543081
v -22.41033714 -14.67856963 13.29129675
v -22.33381669 -14.64959815 13.33459344
v -22.64355602 -14.67019588 12.92043380
v -19.18850119 -18.72737360 10.80098804
v -19.18973368 -18.71881414 10.71663167
v -19.12271743 -18.74619950 10.77826228
v -18.88842941 -18.74619950 11.17337841
v -18.92227992 -18.73573017 11.21799232
v 0.30505246 -18.67157874 -22.04113144
v 0.30690216 -15.38492224 -25.34814431
v 0.35605398 -17.33113340 -23.33806311
v -0.30505246 -18.67157874 -22.04113144
v -0.30690216 -15.38492224 -25.34814431
v -0.29035853 -17.36238203 -23.36977030
v 0.30542521 -14.68460327 -26.04986314
v 0.03371432 -14.69959427 -26.05145577
v -11.63148200 -18.72854664 -6.36304694
v -14.87753528 -14.64173148 -8.91445569
v -15.14517747 -14.68791270 -8.41819708
v -27.34191068 19.30585640 6.07701113
v 6.36295279 0.55408480 -23.69147676
v 7.00697895 0.44543200 -22.90740977
v 0.33946613 -14.59850537 -26.04838848
v 0.37690932 -14.67139298 -26.00521365
v -0.36423302 -14.66545049 -26.03976095
v 9.27829095 -18.84448705 -7.53414481
v 0.30821051 -18.72043642 -21.98409824
v 0.22710977 -18.74619950 -21.94989022
v 0.27439332 -18.68811637 -22.04912985
v -0.16701661 -18.74638068 -21.99484061
v -0.25322054 -18.74326025 -21.92053010
v -0.29444516 -18.71868758 -21.99510937
v -5.71484442 -18.78470551 -10.42250407
v -11.41605287 -18.73188035 -6.81118174
v 10.53170229 20.60456800 -23.54298115
v 10.51405091 20.65200852 -23.53279012
v -10.51405091 20.65200852 -23.53279012
v -10.53170229 20.60456800 -23.54298115
v 9.56690779 20.65200852 -24.93698755
v 9.54181124 20.69265009 -24.91737997
v 9.09683266 20.46163337 -25.72439870
v 8.38281841 20.72378392 -26.14316258
v 5.23970373 19.52765612 -29.05969142
v 0.12311396 20.65134539 -29.64270400
v -0.84688407 20.65200852 -29.57350640
v -0.84466246 20.69265009 -29.54173601
v -2.51754700 20.69265009 -29.30662742
v -4.14143035 20.69265009 -28.84098636
v -6.21810918 20.63547656 -27.92708666
v -5.66536736 20.72378392 -28.11750633
v -7.13605402 20.65200852 -27.28443574
v -7.11733425 20.69265009 -27.25867019
v -8.43355569 20.65200852 -26.19570257
v -8.41143223 20.69265009 -26.17279305
v -9.56690779 20.65200852 -24.93698755
v -9.54181124 20.69265009 -24.91737997
v -25.63701952 20.65200852 2.66095988
v -25.65467090 20.60456800 2.65076885
v 25.65467090 20.60456800 2.65076885
v 25.63701952 20.65200852 2.66095988
v -15.12296861 20.69265009 20.83998227
v -15.12296861 20.65200852 20.87183025
v -15.12296861 20.60456800 20.89221230
v -26.37951860 20.65200852 4.18330859
v -26.34998967 20.69265009 4.19523905
v -26.87201979 20.69265009 5.80188254
v -27.12440243 20.72378392 7.46984848
v -27.41383657 19.54316665 11.96694927
v -21.92272342 20.66026553 18.86899143
v -20.06098747 20.65200852 19.82222194
v -20.04803373 20.69265009 19.79312736
v -24.42862181 20.91729309 16.58919900
v -18.46936605 20.65200852 20.40152476
v -18.46058756 20.69265009 20.37091052
v -16.81261081 20.65200852 20.75367895
v -16.80817843 20.69265009 20.72214092
v 15.12296861 20.60456800 20.89221230
v 15.12296861 20.65200852 20.87183025
v 15.12296861 20.69265009 20.83998227
v 16.81544745 20.60456800 20.77386265
v 16.81261081 20.65200852 20.75367895
v 16.80817843 20.69265009 20.72214092
v 18.46936605 20.65200852 20.40152476
v 18.46058756 20.69265009 20.37091052
v 20.04803373 20.69265009 19.79312736
v 21.51779110 20.72378392 18.96510523
v 26.15110763 20.60953851 14.68147721
v 27.29408157 20.57735829 9.99625127
v 27.22432457 20.69265009 9.15383866
v 27.16536798 20.69265009 7.46554282
v 26.78409313 20.54512436 5.18700646
v 26.87201979 20.69265009 5.80188254
v 26.39841652 20.60456800 4.17567334
v 26.37951860 20.65200852 4.18330859
v 26.34998967 20.69265009 4.19523905
v 10.56174060 18.99741215 -23.56036439
v 10.56174060 18.99857566 -23.56034409
v -9.34146934 18.89827352 -25.41100258
v -0.72830977 18.93463260 -29.71951795
v 10.47421300 18.92778616 -23.68419187
v 10.33685952 18.85602916 -23.88125170
v 8.52578561 18.89181193 -26.14513502
v 12.09240906 18.95116355 -20.91078340
v 12.09240906 18.95232705 -20.91076309
v 25.68542592 18.95116355 2.63301243
v 25.68541713 18.95232705 2.63301751
v 17.10333735 18.98923914 20.88497335
v 21.41564524 19.65338238 19.60277328
v 24.34355679 18.74380815 16.77398508
v 26.66679739 18.80857864 12.48206734
v 27.10776738 18.85000000 10.84449338
v 27.30520669 18.89823619 9.15666313
v 27.24585605 18.89823619 7.45708319
v 26.95054719 18.89823619 5.78230345
v 26.42502798 18.89823619 4.16492161
v 5.83574232 36.23508901 8.47117022
v 9.77432259 36.26379834 2.72904421
v -2.57893510 36.37919471 -9.68597953
v -9.23110444 36.26859220 -3.98132842
f 165 239 2
f 2 239 238
f 239 237 238
f 238 1 2
f 240 237 239
f 111 230 229
f 2 1 163
f 219 146 33
f 18 17 137
f 146 17 18
f 32 141 179
f 32 81 141
f 237 240 52
f 193 52 240
f 123 60 96
f 31 60 117
f 107 101 111
f 107 105 101
f 107 117 105
f 101 105 99
f 111 101 56
f 228 117 115
f 31 117 228
f 164 165 2
f 2 163 164
f 220 165 164
f 162 163 1
f 162 164 163
f 175 240 239
f 8 236 9
f 160 1 157
f 1 181 157
f 156 162 160
f 160 157 156
f 49 236 8
f 219 33 139
f 139 146 13
f 139 33 146
f 10 11 119
f 189 141 79
f 81 32 79
f 179 141 185
f 141 187 185
f 188 141 189
f 188 187 141
f 240 187 188
f 189 193 188
f 188 193 240
f 189 124 39
f 39 193 189
f 117 107 108
f 101 100 53
f 89 236 235
f 235 104 89
f 85 104 54
f 54 53 85
f 208 229 230
f 208 238 237
f 231 232 208
f 109 228 115
f 115 117 109
f 229 228 109
f 117 108 109
f 109 107 111
f 109 108 107
f 229 206 204
f 204 228 229
f 31 228 3
f 161 1 160
f 160 162 161
f 161 162 1
f 143 119 145
f 145 142 143
f 239 168 169
f 166 165 220
f 220 168 166
f 219 179 159
f 239 170 173
f 173 175 239
f 240 175 177
f 162 156 218
f 45 218 156
f 50 218 45
f 61 117 60
f 82 35 36
f 137 17 16
f 16 17 220
f 220 15 16
f 219 139 24
f 24 139 32
f 24 179 219
f 24 32 179
f 13 146 133
f 222 162 10
f 8 9 25
f 25 119 8
f 25 9 236
f 25 236 89
f 89 104 25
f 28 100 121
f 27 102 28
f 102 100 28
f 26 102 27
f 27 28 26
f 141 81 80
f 80 79 141
f 81 79 80
f 38 124 189
f 189 79 38
f 38 79 124
f 124 79 65
f 140 79 32
f 140 139 13
f 32 139 140
f 179 185 178
f 178 185 240
f 240 158 178
f 186 187 240
f 240 185 186
f 186 185 187
f 52 183 199
f 52 195 197
f 197 195 194
f 52 193 190
f 96 60 4
f 60 5 4
f 30 190 122
f 122 39 124
f 124 63 122
f 193 39 122
f 122 190 193
f 98 30 123
f 98 4 30
f 84 100 102
f 84 87 104
f 102 26 84
f 83 100 101
f 121 100 83
f 104 235 234
f 236 49 48
f 48 235 236
f 48 234 235
f 103 54 104
f 231 208 103
f 103 232 231
f 101 53 58
f 53 54 58
f 207 206 229
f 229 208 207
f 237 206 207
f 207 208 237
f 238 208 209
f 209 232 233
f 209 208 232
f 111 229 110
f 110 109 111
f 229 109 110
f 228 204 201
f 201 199 198
f 164 162 223
f 223 145 164
f 142 145 223
f 162 222 223
f 143 142 223
f 223 119 143
f 223 222 119
f 220 164 29
f 29 15 220
f 137 16 29
f 29 16 15
f 171 170 239
f 239 169 171
f 171 169 170
f 51 168 220
f 51 169 168
f 220 17 51
f 51 17 146
f 170 169 51
f 51 146 219
f 165 166 167
f 239 165 167
f 167 166 168
f 167 168 239
f 176 158 240
f 240 177 176
f 176 177 175
f 10 162 217
f 162 218 217
f 224 217 218
f 224 11 10
f 10 217 224
f 180 45 156
f 46 45 49
f 50 45 46
f 105 117 116
f 116 61 105
f 117 61 116
f 113 35 82
f 82 101 113
f 101 99 113
f 113 99 105
f 105 61 113
f 112 113 114
f 114 61 60
f 114 113 61
f 90 114 60
f 112 114 90
f 90 113 112
f 127 155 36
f 127 36 35
f 154 151 82
f 154 155 151
f 82 36 154
f 36 155 154
f 20 22 19
f 19 18 137
f 137 20 19
f 23 22 151
f 18 19 23
f 23 19 22
f 146 18 134
f 153 23 151
f 133 23 153
f 155 69 153
f 13 133 153
f 153 69 13
f 10 119 221
f 221 222 10
f 119 222 221
f 118 25 104
f 104 87 118
f 119 25 118
f 118 26 119
f 87 84 118
f 118 84 26
f 82 151 37
f 37 147 82
f 120 148 59
f 59 148 119
f 59 28 120
f 119 26 59
f 59 26 28
f 119 148 130
f 52 199 200
f 31 3 6
f 6 60 31
f 6 5 60
f 182 183 52
f 52 197 182
f 182 197 183
f 43 184 183
f 5 6 43
f 43 6 184
f 43 4 5
f 194 30 43
f 30 4 43
f 124 65 64
f 64 63 124
f 191 30 194
f 191 190 30
f 194 195 191
f 123 30 95
f 95 122 123
f 30 122 95
f 97 123 96
f 97 98 123
f 96 4 97
f 4 98 97
f 86 104 85
f 86 84 104
f 100 84 86
f 85 53 86
f 86 53 100
f 54 103 106
f 111 56 106
f 233 232 88
f 232 103 88
f 88 103 104
f 88 234 233
f 104 234 88
f 57 56 101
f 101 58 57
f 55 58 54
f 55 106 56
f 54 106 55
f 56 57 55
f 55 57 58
f 234 48 47
f 233 234 47
f 47 209 233
f 237 52 203
f 52 200 203
f 203 200 199
f 70 20 137
f 164 145 144
f 172 173 170
f 170 51 172
f 172 51 219
f 42 159 158
f 158 176 42
f 219 159 42
f 42 176 219
f 219 176 174
f 174 176 175
f 174 172 219
f 175 173 174
f 173 172 174
f 225 218 50
f 225 224 218
f 11 224 7
f 8 119 7
f 7 119 11
f 227 46 49
f 224 225 227
f 50 46 227
f 227 225 50
f 60 123 93
f 62 90 92
f 113 90 129
f 129 90 62
f 138 127 126
f 155 127 138
f 18 23 135
f 135 23 133
f 135 134 18
f 135 133 146
f 146 134 135
f 151 155 152
f 152 153 151
f 155 153 152
f 34 148 120
f 147 37 34
f 120 28 34
f 34 28 121
f 82 147 34
f 34 101 82
f 34 83 101
f 121 83 34
f 132 145 119
f 119 130 132
f 132 130 145
f 145 130 131
f 77 65 79
f 79 78 77
f 76 78 79
f 76 140 126
f 79 140 76
f 198 184 44
f 184 6 44
f 44 6 3
f 44 3 228
f 44 201 198
f 228 201 44
f 183 197 196
f 196 43 183
f 196 197 194
f 194 43 196
f 52 190 192
f 190 191 192
f 192 195 52
f 192 191 195
f 111 106 40
f 40 106 208
f 40 230 111
f 40 208 230
f 41 103 208
f 208 106 41
f 41 106 103
f 212 48 49
f 212 47 48
f 1 238 211
f 237 203 205
f 205 203 204
f 205 206 237
f 205 204 206
f 202 201 204
f 204 203 202
f 199 201 202
f 202 203 199
f 136 144 145
f 136 29 164
f 164 144 136
f 145 131 136
f 136 131 72
f 136 72 137
f 137 29 136
f 226 49 8
f 226 227 49
f 224 227 226
f 8 7 226
f 226 7 224
f 94 90 60
f 60 93 94
f 94 93 90
f 90 93 91
f 91 92 90
f 123 122 91
f 91 93 123
f 91 122 63
f 91 63 62
f 62 92 91
f 35 113 128
f 113 129 128
f 128 127 35
f 128 129 127
f 13 69 12
f 12 138 126
f 12 69 155
f 155 138 12
f 148 34 149
f 149 34 37
f 149 37 151
f 151 73 149
f 149 73 148
f 150 130 148
f 148 73 150
f 150 131 130
f 72 131 150
f 150 73 72
f 67 64 65
f 65 66 67
f 49 45 214
f 214 212 49
f 45 180 214
f 214 180 181
f 47 212 213
f 1 211 213
f 213 211 47
f 209 47 210
f 47 211 210
f 238 209 210
f 210 211 238
f 14 140 13
f 13 12 14
f 126 140 14
f 14 12 126
f 71 75 70
f 137 72 71
f 71 70 137
f 72 73 74
f 74 71 72
f 75 71 74
f 74 73 151
f 151 75 74
f 151 22 21
f 21 75 151
f 20 70 21
f 21 22 20
f 70 75 21
f 64 67 68
f 62 63 68
f 63 64 68
f 68 129 62
f 125 67 66
f 127 129 125
f 129 68 125
f 125 68 67
f 126 127 125
f 125 76 126
f 78 76 125
f 125 77 78
f 65 77 125
f 125 66 65
f 212 214 215
f 215 213 212
f 215 181 1
f 215 214 181
f 1 213 216
f 216 215 1
f 213 215 216
f 158 159 178
f 178 159 179
f 184 199 183
f 198 199 184
f 180 156 157
f 180 157 181

