# https://github.com/mikedh/trimesh
v -0.00609195 -1.61763911 -6.45164053
v -0.84799561 -1.37708988 -6.45154648
v -1.40128498 -0.82043607 -6.45172431
v -1.62545681 0.01958958 -6.45173118
v -1.41706585 0.77918524 -6.45167807
v -0.25362074 -1.75688305 -5.91123413
v -0.93555742 1.32513458 -6.44099926
v -1.46010108 0.79350171 -6.33104850
v -1.67681654 0.06997843 -6.23161802
v -1.23960120 -1.20845695 -6.05492488
v -1.60090597 -0.59878505 -6.14454549
v -0.83712510 -1.52723389 -5.99191903
v -0.41715299 -1.55029146 -6.45043712
v 0.35547674 2.39778211 -2.32059282
v 1.18923886 2.11484032 -2.41808832
v 1.89258234 1.51755271 -2.50960219
v 2.32933529 0.67909764 -2.60934330
v 2.41346194 -0.24479550 -2.70599793
v 2.14660849 -1.13075752 -2.80474739
v 1.56311791 -1.85506851 -2.90081893
v 0.93605658 -2.22956497 -2.98103390
v 0.22273579 -2.41101574 -3.05477809
v 0.47459793 -2.37045519 -3.22749255
v 1.20496929 -2.10578121 -3.14381570
v 1.90538017 -1.50144915 -3.04893966
v 2.32857181 -0.68133049 -2.95044566
v 2.41075782 0.27219779 -2.85512414
v 2.15359649 1.11731004 -2.75735106
v 1.57953415 1.84119660 -2.66227200
v 0.76234949 2.30306858 -2.56611066
v 0.08764998 2.41454539 -2.49268488
v 0.34997268 2.39826504 2.44119772
v 1.20466686 2.10597466 2.34589537
v 1.90732826 1.49899343 2.25044435
v 2.33018909 0.67574916 2.15140426
v 2.41288903 -0.25044049 2.05560621
v 2.22160020 -0.95481745 1.97517339
v 1.79478115 -1.63190893 1.89421886
v 1.05342723 -2.18564256 1.79842070
v 0.34544074 -2.39196670 1.71927511
v -0.33853375 -2.40016229 1.64884293
v 0.63583346 -2.34086892 1.55165074
v 1.46605406 -1.93280449 1.65121846
v 2.08405785 -1.24210596 1.74627748
v 2.35320531 -0.55611529 1.82834834
v 2.41408665 0.23851405 1.90663742
v 2.14865371 1.12689544 2.00538354
v 1.56678624 1.85196511 2.10152559
v 0.76633234 2.30155434 2.19910467
v 0.18940710 2.40906196 0.87119095
v 0.93163867 2.24026867 0.79054650
v 1.69196097 1.73818580 0.69366604
v 2.22190808 0.97466446 0.59856664
v 2.42482310 0.06719718 0.50026192
v 2.31780893 -0.68869120 0.42123180
v 1.98519881 -1.39441703 0.33751657
v 1.44700557 -1.93703974 0.25963427
v 0.90808924 -2.24098122 0.19359053
v 0.34940476 -2.39139774 0.13341324
v -0.35084259 -2.39845935 0.06161760
v 0.47433030 -2.37051874 -0.05284945
v 1.06133325 -2.17260161 0.01385946
v 1.70312770 -1.72731771 0.09542281
v 2.22586242 -0.96555285 0.19216059
v 2.40681403 -0.23012338 0.27082275
v 2.36455892 0.54298776 0.35083182
v 1.98685877 1.39207038 0.45092411
v 1.31946827 2.03588092 0.54572427
v 0.36924575 2.40440489 0.65725486
v -0.08825595 2.41452584 -0.68707221
v 0.63447856 2.34123582 -0.76248391
v 1.46470621 1.93382940 -0.86202884
v 1.98753406 1.37688959 -0.93992232
v 2.27248776 0.82608616 -1.00639440
v 2.42505541 0.05823504 -1.08846503
v 2.31953207 -0.68281539 -1.16412901
v 1.98858103 -1.38962139 -1.24899626
v 1.32296335 -2.03360891 -1.34359659
v 0.62258931 -2.33606894 -1.42576596
v 0.10668060 -2.41392340 -1.48230330
v 0.47431696 -2.37052142 -1.64035181
v 1.06132428 -2.17260600 -1.57364242
v 1.70311297 -1.72733221 -1.49208010
v 2.22585676 -0.96556608 -1.39534244
v 2.40681236 -0.23014113 -1.31667685
v 2.38725544 0.38346909 -1.25313473
v 2.21087226 0.97914092 -1.18664902
v 1.79110980 1.63593139 -1.10459895
v 1.04859885 2.18795767 -1.00855095
v 0.21961109 2.41254093 -0.91617006
v -2.09052898 -1.23166541 3.00975000
v -2.40099357 -0.34773989 2.91156595
v -2.38022915 0.42526076 2.83097213
v -2.19229200 1.02011726 2.76486408
v -1.76385225 1.66542432 2.68294331
v -1.14735726 2.12841376 2.60358622
v -0.47049728 2.37719288 2.52582237
v -0.06123034 2.42103424 2.28382740
v -0.76161454 2.29494395 2.36004248
v -1.45377109 1.94216559 2.44304363
v -2.07728586 1.25357884 2.53830739
v -2.35086486 0.56560567 2.62083171
v -2.41681329 -0.06932035 2.68351222
v -2.27941912 -0.83152816 2.76420313
v -1.79671998 -1.63016912 2.86332477
v -1.19156485 -2.10408527 2.94269073
v -0.53324972 -2.36347434 3.02156636
v -0.09606984 -2.42004762 3.07095446
v -0.77461007 -2.29073795 3.07343188
v -1.34070006 -2.01238809 3.07340670
v -1.20179545 -2.10762325 1.55268948
v -1.90493789 -1.50202386 1.45722980
v -2.32942065 -0.67842945 1.35817685
v -2.41629458 0.08434776 1.27869946
v -2.27317490 0.84818592 1.19720066
v -1.88765452 1.51081018 1.11552517
v -1.33072146 2.02847891 1.03674414
v -0.49432904 2.37330957 0.94142284
v -0.47433695 2.37051740 0.74090172
v -1.06133773 2.17259941 0.80761039
v -1.70313508 1.72731045 0.88917426
v -2.14793958 1.11036207 0.96834362
v -2.35320854 0.55610123 1.03459881
v -2.41408775 -0.23850286 1.11288612
v -2.14865804 -1.12688723 1.21163198
v -1.56679435 -1.85195822 1.30777414
v -0.76634039 -2.30155170 1.40535318
v -0.08761051 -2.41454666 1.47606560
v -1.20814358 -2.10396628 -0.03609000
v -1.91040263 -1.49508055 -0.13162786
v -2.32624968 -0.68909200 -0.22976586
v -2.41400724 0.23931627 -0.32404497
v -2.21079896 0.97930504 -0.40566978
v -1.79118429 1.63584809 -0.48770192
v -1.18979776 2.10496089 -0.56640719
v -0.62056217 2.33660335 -0.63235039
v -0.63580394 2.34087694 -0.82960467
v -1.46603281 1.93282070 -0.73003563
v -2.08404519 1.24212731 -0.63497751
v -2.35321501 0.55607307 -0.55290023
v -2.41408996 -0.23848050 -0.47461649
v -2.14866668 -1.12687082 -0.37587115
v -1.56681054 -1.85194448 -0.27972876
v -0.76635654 -2.30154640 -0.18214982
v -0.08762631 -2.41454615 -0.11143459
v -0.63063406 -2.34227526 -1.55558322
v -1.46222276 -1.93571857 -1.65529710
v -2.08124286 -1.24682256 -1.75008594
v -2.39691495 -0.37419947 -1.84986659
v -2.38627374 0.38952019 -1.92769969
v -2.20913100 0.98303489 -1.99396247
v -1.79891344 1.62728631 -2.07561246
v -1.05544036 2.18467339 -2.16997067
v -0.34639988 2.39183076 -2.24930847
v -0.63578423 2.34088229 -2.41710828
v -1.46601865 1.93283150 -2.31753835
v -1.98821119 1.37591050 -2.23963441
v -2.32317355 0.69973497 -2.15465074
v -2.41650358 -0.07803151 -2.07801503
v -2.27560177 -0.84168960 -1.99702003
v -1.79111705 -1.63592346 -1.89835034
v -1.04860663 -2.18795395 -1.80230259
v -0.21961344 -2.41254078 -1.70992048
v 0.11195295 1.71464759 -6.07854483
v 0.36476055 1.93288302 -5.24522183
v -0.07950074 -2.00006240 -5.11417901
v -0.90475276 -1.73729274 -5.25216018
v -1.23066954 -1.49975824 -5.31194780
v -1.53752887 -1.14708686 -5.38615937
v -1.75651683 -0.71152109 -5.46506189
v -1.85705616 -0.23569688 -5.54482902
v -0.49114381 1.68691413 -5.97199248
v -0.14706629 -2.16135760 -4.53784534
v -0.13712719 1.96831893 -5.18715583
v -1.26439906 1.57686252 -5.05607392
v -2.07017995 0.04167803 -4.86839063
v -1.84650690 -1.00656066 -4.75312696
v -1.53629825 -1.45790978 -4.69821654
v -1.16778760 -1.78610998 -4.64873623
v -0.67611375 -2.04093207 -4.59281784
v -0.56248752 1.90949055 -5.14239016
v -0.90150084 1.52211073 -5.89351205
v -1.31058916 1.23166680 -5.81326560
v -1.62337741 0.82599001 -5.72856632
v -1.80685834 0.37761604 -5.64597075
v -1.74379806 1.05374552 -4.98208005
v -1.97368549 0.57214406 -4.92299843
v -2.02566658 -0.50030269 -4.81194421
v -0.51283930 -1.90803250 -5.18200988
v 0.29119737 -2.24004190 4.52119263
v -0.09938038 -3.14938125 6.42024467
v 0.64363569 4.68037848 3.73261685
v 1.27567676 4.55492182 3.78439184
v 1.88251892 4.33316651 3.73261683
v 2.98109597 3.67322643 3.79142189
v 3.45300590 3.22443170 3.73261684
v 4.45472265 1.58940970 3.77950326
v 4.71928241 0.32848010 3.79142188
v 4.72313055 -0.31943571 3.83401281
v 4.45582285 -1.57447953 3.73707983
v 4.19643783 -2.18027513 3.77954620
v 2.98159880 -3.67334087 3.78859465
v 2.44660335 -4.03959959 3.72747096
v 1.27603274 -4.55422053 3.78634008
v 0.00843770 -4.72362332 3.72628744
v -0.01079479 -4.52761285 3.34897453
v 0.01292951 -4.26309850 3.15679887
v 1.80128222 -3.61065337 3.07884177
v -0.00584284 4.72977198 3.77950327
v 0.00778039 4.62345726 3.48661074
v -0.00211113 4.45038969 3.28146487
v 0.61870877 4.52410531 3.40070057
v 0.35391262 4.29406566 3.17316248
v 1.24656276 4.45695451 3.49310734
v 1.18313463 4.24756670 3.24387880
v 1.80005291 4.16140723 3.35493173
v 0.54464967 4.00350759 3.07757010
v 2.44848782 4.04154686 3.74084804
v 1.37531966 3.93890318 3.11578155
v 2.39347662 3.92670424 3.45094380
v 2.31054727 3.80359621 3.28146487
v 1.98303952 3.79388133 3.16126100
v 2.91563263 3.56652503 3.44917744
v 2.71058083 3.27793418 3.14204703
v 3.35352560 3.14004447 3.44416830
v 3.24713594 3.03261329 3.27530405
v 3.85990447 2.72421494 3.73261684
v 3.70020058 2.62030847 3.35493176
v 2.39734715 3.25509574 3.07977169
v 4.19195839 2.18098109 3.74084805
v 3.31519356 2.68387986 3.15407149
v 4.03547598 2.07853253 3.35995821
v 4.38179305 1.55239801 3.53858225
v 3.78563739 1.96771577 3.15870041
v 4.23196989 1.50880256 3.31714757
v 4.62493086 0.96912755 3.74084808
v 3.56250024 1.91405292 3.07876266
v 4.50345171 0.93094552 3.45094385
v 4.31993213 0.91294026 3.24940336
v 4.62119353 0.30800605 3.49821095
v 4.08509687 1.22029539 3.15263878
v 4.35506878 0.31326212 3.20799576
v 4.66210414 -0.32646898 3.58572961
v 4.51827220 -0.30762461 3.35976328
v 4.63203325 -0.95657991 3.77950328
v 4.52517047 -0.94828782 3.48661074
v 4.35931667 -0.64402887 3.23610698
v 4.14018378 -0.57645449 3.11800475
v 4.02970995 0.28224681 3.07741148
v 4.29581939 -1.54785219 3.40077370
v 4.11011254 -2.12728398 3.49310736
v 3.84179479 -1.55393950 3.10831724
v 4.03233174 -1.77188102 3.23295884
v 3.86686044 -2.73191330 3.84017129
v 3.82816818 -2.69147664 3.60048776
v 3.69929199 -2.61747130 3.36275623
v 3.44574760 -3.22971459 3.72747097
v 3.34769107 -3.11181881 3.40754892
v 3.64522690 -2.12566185 3.13110640
v 3.39069273 -2.77155989 3.21774175
v 2.90151467 -2.82528719 3.07847893
v 2.92712562 -3.58135813 3.48773658
v 3.47758368 -2.02465522 3.07711318
v 2.38894204 -3.92654606 3.44761429
v 2.56102848 -3.62815072 3.26477348
v 1.88313232 -4.33540543 3.74529803
v 2.45138627 -3.49061957 3.15407150
v 1.81314753 -4.19527773 3.40533409
v 1.24396771 -4.43977884 3.45713402
v 0.64982563 -4.68492303 3.77950326
v 1.47829530 -4.09220153 3.19742910
v 0.63004838 -4.58394250 3.49385946
v 0.60647892 -4.33054394 3.21153704
v 0.95806621 -4.00773293 3.09795485
v -0.01248242 4.72992078 4.74999424
v 0.70629672 4.67641795 4.72899209
v 1.27981918 4.55428563 4.70407755
v 2.37803987 4.09229867 4.69657082
v 3.86239337 -2.72637495 4.71080677
v 2.46219825 -4.03918925 4.69852422
v 0.62870334 -4.68860544 4.70875554
v 0.04658886 -4.73028205 4.72334725
v 0.10722737 3.15012526 6.41988949
v 0.15176509 4.37242935 5.64942371
v 1.70069972 2.45702100 6.44590633
v 3.07800674 0.62862753 6.43323192
v 0.63158557 -2.78377216 6.45137808
v 0.39501133 3.64585389 6.24909833
v 0.81319809 3.80660946 6.11595540
v 0.62741414 3.07751974 6.42941150
v 0.49559253 3.38373685 6.35418412
v 0.42194263 4.08647991 5.95032371
v 0.72087765 4.22718505 5.75365730
v 1.30202858 3.51564348 6.20761386
v 1.80034932 3.00300606 6.32904947
v 1.37676689 3.97096243 5.85878526
v 0.13784788 4.62912468 5.16433622
v 0.74426772 4.55445361 5.20674542
v 0.92523417 4.35325631 5.53681499
v 1.15743665 4.49439544 5.13195971
v 1.60608118 4.21250510 5.43127401
v 2.10954507 3.24537930 6.13183000
v 1.79652689 4.36725654 4.83032341
v 2.15689996 3.88593027 5.53408511
v 2.22787526 3.52070049 5.90018254
v 2.24047615 4.03650344 5.19425769
v 2.62664066 3.50396014 5.64138952
v 2.84956405 2.82060404 6.02913715
v 2.76103877 2.41739489 6.24821379
v 3.03092572 3.03092572 5.75286760
v 2.56913168 2.26010772 6.35926009
v 2.60976532 1.63430279 6.43574252
v 2.78924960 3.69926734 5.14907204
v 3.41579058 2.25002855 5.96287767
v 2.93096233 3.71621196 4.68648738
v 3.18846765 3.20496222 5.41078129
v 3.49322884 2.63019075 5.64930654
v 3.26857796 2.11121203 6.11864030
v 3.39663064 3.28339988 4.80439746
v 3.69386719 2.78356961 5.17204247
v 3.29439437 0.95538415 6.34744454
v 3.82620399 2.10590639 5.65754354
v 3.43300941 1.28355156 6.25754188
v 3.82478628 2.78622548 4.70383552
v 4.04467812 2.24354485 5.17204246
v 3.72702523 1.11640889 6.11942911
v 3.97470102 1.28054383 5.88985751
v 4.17129713 2.23382146 4.70412811
v 4.21545731 1.60738392 5.42839870
v 4.42374728 1.65095921 4.82696575
v 4.26324380 1.00108155 5.64139896
v 4.19610819 0.29945054 5.85014010
v 3.50883182 -0.09430462 6.32535615
v 3.97430570 -0.07868036 6.06384952
v 4.51175242 1.03519069 5.15833552
v 4.61915806 1.02340581 4.70137161
v 4.50354065 0.30805078 5.41833612
v 3.07974955 -0.62792055 6.43138156
v 4.09885807 -0.83303120 5.87371668
v 3.45739222 -1.18333466 6.26296581
v 4.36936551 -0.30794438 5.63706931
v 4.70825529 0.30363389 4.84715730
v 3.13833872 -1.33667842 6.35362808
v 3.74648020 -1.04328380 6.11736770
v 4.61483357 -0.31022535 5.17203960
v 4.41377773 -0.89703435 5.44018596
v 4.11592484 -1.44947954 5.65992175
v 4.71797642 -0.32593334 4.70890148
v 2.74736274 -2.23514538 6.31138567
v 4.61987717 -0.95909775 4.84564032
v 3.76105411 -1.66661936 5.94173828
v 3.34987530 -1.98187821 6.11710416
v 4.35945251 -1.54934967 5.17230979
v 2.07569013 -2.21873663 6.44340205
v 3.89392206 -2.00358751 5.64138823
v 4.45499353 -1.58273599 4.71019888
v 3.16532038 -2.57517918 5.97268391
v 3.57062775 -2.52411919 5.64930515
v 4.10517582 -2.12713066 5.17121644
v 2.67517315 -2.84313197 6.11068346
v 3.13263792 -2.92567958 5.75286760
v 4.19992564 -2.17622605 4.70492431
v 2.03728121 -2.86373664 6.32129382
v 2.64236375 -3.27555530 5.84600666
v 3.78858088 -2.66015098 5.16276286
v 1.01745739 -3.36191099 6.32272249
v 3.34652713 -3.12543816 5.29933455
v 1.77212120 -3.33497541 6.19199984
v 0.62719390 -3.08572340 6.42399219
v 2.17806615 -3.59030963 5.85713569
v 2.85434499 -3.48940241 5.43127240
v 3.45704224 -3.22865206 4.70492434
v 1.57819384 -3.68580460 6.02913596
v 2.30923775 -3.79737969 5.53408511
v 2.97561214 -3.65751865 4.85849906
v 0.91491983 -3.87932542 6.05315896
v 1.70769697 -3.93151274 5.75286760
v 2.40208513 -3.95258209 5.17204138
v 1.79715549 -4.14256709 5.41946219
v 0.26940939 -4.10055104 5.94400580
v 0.97609281 -4.35070342 5.52562359
v 1.89126185 -4.32033022 4.84661654
v 0.90409954 -4.19094498 5.76228198
v 0.96278111 -4.48038414 5.28526175
v -0.02048403 -4.29585484 5.74818021
v 1.16780039 -4.51770940 5.04033206
v 1.22994021 -4.56740629 4.72499841
v 0.33151394 -4.65797443 5.04295923
v -3.96875188 0.26665469 3.07445881
v -3.05983223 2.52857695 3.07480349
v 0.66548452 -2.20457642 3.07331502
v 1.28555479 -1.70769799 3.07337413
v 1.72426596 -0.95736512 3.07326796
v 1.75411998 -0.08080536 3.07337724
v 1.48791066 0.54469158 3.07337344
v 0.93477549 1.02262423 3.07346420
v 0.60314691 1.24658362 3.07339990
v 0.20715134 1.36687719 3.06906326
v -0.30216419 1.44264223 3.07340631
v -0.85429502 1.39640822 3.07346736
v -1.52203081 1.00950934 3.07345328
v -1.96674179 0.37164256 3.07343175
v -2.12019008 -0.35323071 3.07341743
v -2.02083296 -1.09676973 3.07344491
v -1.72008832 -1.69240146 3.07348366
v 1.86293705 -0.63161333 6.45160000
v 0.99225970 -0.99225970 6.45160000
v 0.63161333 -1.86293705 6.45160000
v -0.63161333 -1.86293705 6.45160000
v -0.99225970 -0.99225970 6.45160000
v -1.86293705 -0.63161333 6.45160000
v -3.07759881 -0.62835291 6.43016926
v -1.83358864 -2.36284385 6.44730109
v -1.86293705 0.63161333 6.45160000
v -0.99225970 0.99225970 6.45160000
v -0.63161333 1.86293705 6.45160000
v 0.63161333 1.86293705 6.45160000
v 0.99225970 0.99225970 6.45160000
v 1.86293705 0.63161333 6.45160000
v -0.62839066 -4.68801751 4.75052399
v -1.27981918 -4.55428563 4.70407755
v -3.40562426 -3.28574009 4.70359319
v -3.82478628 -2.78622548 4.70383552
v -4.61378710 -1.03637157 4.71597486
v -4.63099780 0.95874982 4.71175607
v -3.86463951 2.72252443 4.71910851
v -3.46065348 3.22511201 4.69852424
v 0.11213860 -3.41198004 6.35340210
v -0.89780777 -3.29781304 6.35367265
v 0.00279826 -3.66727873 6.25275140
v -0.13617151 -3.89351199 6.11642725
v -1.08220743 -3.49757564 6.25220683
v -0.62816718 -3.06148748 6.43318741
v -0.55727711 -4.06630475 5.94899405
v 0.04743746 -4.50869168 5.44198479
v -1.23547829 -3.78720804 6.05734593
v -0.84745920 -4.27961037 5.67043623
v -0.48253862 -4.60027220 5.17990493
v -1.94519538 -2.93858244 6.31856325
v -1.14218968 -4.48532931 5.17216315
v -1.46032735 -4.13958258 5.63007822
v -2.04180454 -3.66951199 5.85713700
v -1.68844981 -4.30552711 5.17193925
v -2.09572850 -3.26532948 6.12463050
v -2.57255502 -1.67894625 6.43605522
v -2.67852128 -2.29010383 6.31856325
v -1.81831912 -4.36900486 4.70106750
v -2.19319508 -3.94721662 5.41946349
v -2.53880475 -3.33705983 5.86451787
v -2.83232172 -2.82278824 6.03894475
v -2.35942029 -4.09171903 4.82312849
v -2.72017131 -3.60434346 5.41946347
v -3.08785139 -3.10518142 5.64138952
v -3.20472096 -1.45202345 6.32135220
v -2.89994823 -3.72782278 4.82379429
v -3.37059352 -2.52000498 5.84600804
v -3.23693838 -2.16148469 6.11730755
v -3.28197882 -3.26446811 5.15832322
v -3.54869218 -2.67571584 5.53408511
v -3.67489478 -2.01907061 5.86451789
v -3.73436605 -1.42992667 6.03894472
v -3.42854851 -0.83200824 6.31318991
v -3.69386718 -2.78356961 5.17204247
v -3.94710460 -2.20419463 5.41078130
v -4.16276400 -2.23235098 4.80648351
v -4.08253194 -1.58426981 5.64138951
v -3.89662964 -0.89783553 6.03895301
v -4.32460697 -1.65103349 5.15832323
v -4.24814589 -0.99781316 5.65993305
v -3.78259803 -0.00464639 6.19217583
v -4.43856993 -1.63901640 4.70446294
v -4.50537298 -1.03334802 5.18151547
v -3.41195532 0.24177511 6.35499829
v -4.19610819 -0.29945054 5.85014010
v -4.18964159 0.28499993 5.85713426
v -4.51167520 -0.29591405 5.40635745
v -3.07993482 0.62822612 6.43171239
v -4.70988613 -0.33212166 4.82383536
v -4.11429125 0.84072173 5.85713824
v -3.34231008 1.11727371 6.32180235
v -3.74355674 1.01881663 6.12470501
v -4.49885944 0.28887663 5.43127094
v -4.35535993 0.88516176 5.53408511
v -2.90028745 1.98414497 6.32661152
v -4.52921769 0.90875209 5.18482125
v -3.54728296 1.84579963 6.03894367
v -3.94482742 1.42127138 5.86451698
v -4.70651162 0.33406370 4.84606820
v -4.25420510 1.51406597 5.41946075
v -2.30167777 2.65547905 6.32460598
v -3.88107158 2.01440900 5.64930515
v -4.44599717 1.58218418 4.83484622
v -3.03739617 2.45238154 6.11068347
v -3.43330330 2.41799994 5.85713570
v -4.11551766 2.11949583 5.16276288
v -2.02718340 2.24696141 6.44435691
v -2.77096454 3.14193170 5.87294549
v -3.63093917 2.56299673 5.53408511
v -3.19784666 2.96912996 5.65992142
v -3.77793264 2.66835963 5.17204139
v -4.19446796 2.18498342 4.69838807
v -2.23498223 3.18525991 6.11837279
v -1.70279996 3.23168166 6.25607211
v -2.85434499 3.48940241 5.43127240
v -3.36933618 3.16455390 5.18150317
v -0.62767576 3.08124282 6.42840183
v -2.17806615 3.59030963 5.85713569
v -0.85918029 3.30994996 6.35707775
v -2.30923775 3.79737969 5.53408511
v -2.97561212 3.65751866 4.85849906
v -1.22577132 3.69699827 6.11838119
v -1.68155983 3.83666815 5.86635495
v -2.41007876 3.94093636 5.18481857
v -0.65419230 3.61302779 6.24896744
v -1.79440248 4.13112888 5.44018563
v -1.06713081 4.07058385 5.85169775
v -0.21414720 3.97360894 6.06145518
v -2.46508758 4.03551784 4.71356777
v -1.13268781 4.38242855 5.40467669
v -1.89366219 4.32140150 4.84676007
v -0.46189459 4.26025105 5.75684360
v -0.50213543 4.47062478 5.45417754
v -1.21967908 4.55868967 4.84422347
v -0.64184837 4.68826504 4.68902746
v -0.47387538 4.61632603 5.13347397
v -1.88402349 -4.33879241 3.78439186
v -2.45501780 -4.03647087 3.73261682
v -3.45662726 -3.22899241 3.78439182
v -3.85990447 -2.72421494 3.73261684
v -4.45689168 -1.58454427 3.78439181
v -4.62786107 -0.96168059 3.74529805
v -4.71758240 -0.32269148 3.77468561
v -4.71339069 0.32273490 3.73261688
v -4.20243907 2.15852291 3.73266719
v -3.86208853 2.73269770 3.78859458
v -3.45094292 3.22295568 3.72117056
v -2.98159880 3.67334087 3.78859465
v -1.26629349 4.55073502 3.72628744
v -0.64363569 -4.68037848 3.73261685
v -0.61870877 -4.52410531 3.40070057
v -0.59079207 -4.32229059 3.21405897
v -1.27495226 -4.54914347 3.73261683
v -1.23908117 -4.42600111 3.44761427
v -1.18313463 -4.24756670 3.24387880
v -1.85256633 -4.26673540 3.54351437
v -0.43498323 -4.03356192 3.08054454
v -1.78585718 -4.12271373 3.31714758
v -1.47605604 -3.94151428 3.12691742
v -2.36989514 -3.90306627 3.40070055
v -2.26388644 -3.72908157 3.21405896
v -2.97600639 -3.67050128 3.74084807
v -2.87329455 -3.51419155 3.35995822
v -2.47320578 -3.41767202 3.13096409
v -2.31758234 -3.29882391 3.07726981
v -3.36010165 -3.14465236 3.44353613
v -3.43886431 -2.76372321 3.23944228
v -3.75436523 -2.65132985 3.44761431
v -4.19490033 -2.17325119 3.73261683
v -4.05285497 -2.10349609 3.40070054
v -3.26006004 -2.51904298 3.09445214
v -3.57937694 -2.30243731 3.14991747
v -4.36006588 -1.55183369 3.49310737
v -4.05931184 -1.71476020 3.23610699
v -4.44661097 -0.91269650 3.35995823
v -4.61006299 -0.31533695 3.48130425
v -4.07360626 -1.08662516 3.13036299
v -3.86592072 -1.06195659 3.07598732
v -4.38804435 -0.30015045 3.23583755
v -4.55578077 0.30853055 3.40070059
v -4.28726931 0.53806058 3.17971182
v -4.62814033 0.95368276 3.74084808
v -4.44941141 0.92459832 3.36732905
v -4.16092370 0.00000000 3.11235393
v -4.45724798 1.58354173 3.78439181
v -4.34526239 1.52869057 3.45151405
v -3.86889643 1.36419385 3.09098410
v -4.07577934 2.12419256 3.44767453
v -3.95240650 2.04559427 3.28146488
v -3.77493531 2.63225889 3.44360289
v -3.99637990 1.64412146 3.18124099
v -3.35575571 2.83369653 3.22659210
v -3.35498706 3.13333918 3.43968096
v -2.93607029 3.60784202 3.54351435
v -3.25279856 2.60672526 3.11428173
v -2.83888611 3.48235265 3.31714758
v -2.44027548 4.04533940 3.73266718
v -2.61374302 3.22293213 3.10193798
v -2.39443054 3.92658407 3.45270166
v -2.29680834 3.77694041 3.25285378
v -1.87898718 4.34052812 3.77950331
v -1.82159285 4.22011580 3.43676295
v -1.47605868 4.12305620 3.21774177
v -1.23172974 4.39610097 3.40161501
v -1.93996334 3.69364380 3.11578155
v -0.64322220 4.67978905 3.73564011
v -0.60712134 4.49852950 3.35995823
v -0.58636887 4.22600608 3.15870042
v -1.06210851 3.92163840 3.08080915
v 2.25297767 -0.29006613 4.52103089
v 2.23904561 0.29123173 4.52120000
v 3.14490219 -0.00111204 6.42089220
v 1.79523094 -0.29123173 4.52120000
v 0.73174290 -0.73174290 4.52120000
v 0.29123173 -1.79523094 4.52120000
v -0.28948739 -2.25192056 4.52106553
v -0.29123173 -1.79523094 4.52120000
v -0.73174290 -0.73174290 4.52120000
v -1.79523094 -0.29123173 4.52120000
v -2.23904561 -0.29123173 4.52120000
v -2.25297767 0.29006613 4.52103089
v -3.14456743 0.00000675 6.42017957
v -1.79523094 0.29123173 4.52120000
v -0.73174290 0.73174290 4.52120000
v -0.29123173 1.79523094 4.52120000
v -0.29123173 2.23904561 4.52120000
v 0.29006613 2.25297767 4.52103089
v 0.00000000 2.82324059 5.73763074
v 0.29123173 1.79523094 4.52120000
v 0.73174290 0.73174290 4.52120000
v 1.79523094 0.29123173 4.52120000
v 2.08986506 0.57895254 -4.54313743
v 2.13195545 -0.12674149 -4.64457783
v 2.00970671 -0.65821926 -4.72078732
v 1.75269524 -1.14374883 -4.80069351
v 1.39819376 -1.52234868 -4.87617044
v 0.34092930 -2.14978513 -4.48981141
v 0.88216588 -2.01543145 -4.43174927
v 1.48851480 -1.64920428 -4.36350920
v 1.86127077 -1.22691027 -4.31006026
v 2.11153187 -0.76637107 -4.25853935
v 2.26751090 -0.12372121 -4.19455519
v 2.18341078 0.70415730 -4.11727965
v 0.59821684 -1.93750365 -5.01641417
v 1.07364610 -1.74172919 -4.93640611
v -2.40970348 0.15499709 -3.69008376
v -2.33329600 0.57064731 -3.73374659
v -2.10235202 1.10624266 -3.82161223
v -1.60825876 1.71549390 -3.92461957
v -1.00162652 2.09019302 -4.01624967
v -0.55213329 2.22940804 -4.07796318
v 0.07915278 2.28218608 -4.15988018
v 0.67530227 2.14515090 -4.24241739
v -2.02420202 1.33212195 -3.62870717
v 0.76446576 2.22703069 -3.92118443
v 0.04456906 2.36469506 -3.84698575
v -0.62722572 2.30698493 -3.78535406
v -1.24312898 2.05257733 -3.72597230
v -1.63964434 1.77371943 -3.68089433
v -0.61025966 -2.34737675 -3.14007540
v -1.25737588 -2.06435233 -3.21971038
v -1.72034679 -1.69806218 -3.27833899
v -2.06889075 -1.25024451 -3.33715644
v -2.29968449 -0.74066374 -3.39662194
v -2.40621596 -0.22827185 -3.45033315
v -2.39317266 0.34130097 -3.50982441
v -2.24461350 0.91151713 -3.57936870
v -2.36619520 -0.50172659 -3.62120827
v -2.15037133 -1.10497700 -3.55300283
v -1.78627417 -1.62926780 -3.48776078
v -1.33099788 -2.01833607 -3.42490808
v -0.76089326 -2.29622957 -3.35605176
v -0.12827174 -2.41356265 -3.28929632
v 0.00000000 -0.00000000 -6.45160000
v 0.00000000 1.38188850 -6.45160000
v 1.31182728 1.31182728 -2.16080629
v 1.28054085 1.64560091 -2.26313961
v 1.14811859 1.96529652 -2.69627330
v 0.97114371 0.98310514 -3.27513204
v 0.91462900 1.03589075 -3.45998336
v 0.85221150 1.63259251 -3.66414178
v 0.51704529 1.29001841 -4.75754770
v 0.45928329 1.30333215 -4.94935203
v 0.05759009 1.38068795 -6.26323131
v 1.61317022 -0.00170953 -6.45187252
v 1.52843269 -0.50856050 -6.45151963
v 1.30000071 -0.96071551 -6.45162647
v 0.72277784 -1.45270714 -6.45173375
v 1.85729585 0.28775335 -5.51040120
v 0.46704683 -1.73089376 -5.82591179
v 0.91900781 -1.55807072 -5.76710800
v 1.28937225 -1.29060553 -5.71317504
v 1.87067293 -0.10283981 -5.55435955
v 1.53492177 -1.00740427 -5.67182217
v 1.74920900 -0.60834217 -5.61472924
v 1.05586325 0.90243037 -3.49425792
v 0.98406242 0.97017369 -3.27830484
v 2.04320260 1.11584884 -2.80182290
v 1.52178463 1.03776679 -3.05721778
v 1.69689498 1.26123069 -2.34003249
v 1.59861192 1.55699482 -2.79398451
v -0.42234370 1.45423755 -6.45156446
v 0.68571974 1.20345215 -3.40824069
v 0.32127699 1.34730363 -3.33424434
v -0.03635549 1.38447997 -3.27066574
v -0.51269771 1.29257640 -3.18071377
v -0.90091866 1.05188174 -3.09671021
v -1.20658243 0.69084894 -3.01227207
v -1.38058960 0.16272256 -2.90911610
v -1.35183168 -0.30113058 -2.82660559
v -1.22166916 -0.65249614 -2.75563296
v -0.93001647 -1.03312640 -2.66735664
v -0.54417655 -1.27358847 -2.58552039
v -0.18136914 -1.37293512 -2.51527894
v 0.18683248 -1.37219412 -2.45017682
v 0.64857288 -1.22963858 -2.36085603
v 1.07826819 -0.87708416 -2.26004397
v 1.33800255 -0.37704047 -2.15518619
v 1.37830261 0.17910939 -2.05474684
v 1.16451727 0.76748934 -1.94067505
v 0.77036596 1.15082862 -1.84024357
v 0.42488098 1.31825955 -1.76696524
v 0.06013236 1.38357901 -1.69963678
v -0.40098735 1.33126142 -1.61601767
v -0.90401281 1.05626549 -1.50754211
v -1.19555846 0.69938137 -1.42687653
v -1.33971189 0.35165578 -1.35627823
v -1.38591888 -0.10852934 -1.27328028
v -1.26561622 -0.56282834 -1.18636941
v -1.06912806 -0.88043652 -1.11731323
v -0.79698458 -1.13276674 -1.05140337
v -0.46319322 -1.30537002 -0.98119016
v -0.08657365 -1.38240944 -0.90953830
v 0.37032458 -1.34024474 -0.82855476
v 0.94341674 -1.03094448 -0.70796377
v 1.26324591 -0.56816249 -0.60559099
v 1.38589534 -0.10978347 -0.51866658
v 1.33978600 0.35151416 -0.43482231
v 1.19563610 0.69930656 -0.36419480
v 0.96803314 0.99050677 -0.29744207
v 0.66707105 1.21391143 -0.22953564
v 0.31577157 1.34861889 -0.15896846
v -0.06149641 1.38366540 -0.09006089
v -0.51911761 1.28998782 -0.00560998
v -0.91049735 1.04363378 0.08006506
v -1.15570751 0.76334744 0.14645047
v -1.31848341 0.42435117 0.21690152
v -1.38369867 0.05885051 0.28481288
v -1.34645009 -0.32488569 0.35495332
v -1.16679490 -0.75603603 0.44087326
v -0.77482055 -1.15433880 0.54095886
v -0.35020299 -1.33999981 0.62803317
v 0.01578241 -1.38479306 0.69458769
v 0.39046831 -1.32878992 0.76248412
v 0.73263037 -1.17530451 0.83346484
v 1.08727291 -0.86607592 0.91754948
v 1.34182560 -0.36360318 1.02247505
v 1.38177277 0.09156115 1.10491928
v 1.30647712 0.45940862 1.17382239
v 1.07291723 0.88362805 1.26551013
v 0.72978652 1.17689933 1.34411333
v 0.28776834 1.35988712 1.43356278
v -0.24979274 1.36555589 1.53083346
v -0.68774501 1.20246396 1.61924910
v -0.97508477 0.98342716 1.68341740
v -1.20295504 0.68648517 1.75101544
v -1.36769852 0.24937754 1.83839729
v -1.35545155 -0.30936871 1.93838502
v -1.12318098 -0.81923810 2.04312638
v -0.78513249 -1.14096940 2.12631551
v -0.44954531 -1.31008425 2.19659008
v 0.01015685 -1.39006800 2.28050260
v 0.47115517 -1.30251765 2.36698243
v 0.80354296 -1.12811021 2.43708730
v 1.14382902 -0.79070589 2.52434667
v 1.36177438 -0.28077388 2.62589625
v 1.36234863 0.27787987 2.72586079
v 1.18820257 0.71180098 2.81362251
v 0.95837499 0.99983972 2.88002547
v 0.65645390 1.21957354 2.94790340
v 0.25796162 1.36288999 3.02840930
v 0.18339883 1.37247521 -4.89632430
v -0.18773554 1.37300528 -4.83075930
v -0.64430729 1.23197682 -4.74127128
v -1.07307762 0.88599789 -4.64297979
v -1.30599750 0.46383940 -4.55321679
v -1.38375403 0.07491061 -4.48099876
v -1.31655948 -0.46334048 -4.38243620
v -1.02049554 -0.93938570 -4.27874662
v -0.63450607 -1.23669170 -4.18955643
v -0.04693583 -1.39411734 -4.07734575
v 0.62614161 -1.24705916 -3.95191029
v 1.09027885 -0.86169042 -3.84354584
v 1.33931323 -0.37258994 -3.74159110
v 1.38298502 0.10669789 -3.65444983
v 1.29449176 0.49465141 -3.58352274
v -0.08117861 1.39334915 -4.65139259
v -0.66249455 1.22151435 -4.53882748
v -1.00317916 0.95365245 -4.46103701
v -1.28452600 0.54447625 -4.37060189
v -1.38757949 -0.14084475 -4.24444654
v -1.15358007 -0.78417379 -4.11738849
v -0.65138997 -1.23370280 -3.99516655
v 0.01886963 -1.39451790 -3.86861647
v 0.53005868 -1.27942611 -3.77242854
v 0.97048725 -1.00188685 -3.67766228
v 1.32967507 -0.42292246 -3.55235731
v 1.37012237 0.26245666 -3.43034820
v 1.15013837 0.77342989 -3.32476758
v 0.67790093 1.21407189 -3.20786577
v 0.25654418 1.36128440 -3.12383291
v -0.23079043 1.37104047 -3.03677058
v -0.75635380 1.16665305 -2.93114880
v -1.10039535 0.84103043 -2.84681691
v -1.28669426 0.51269218 -2.77648506
v -1.37648151 0.15309597 -2.70921915
v -1.35295551 -0.32019104 -2.62325487
v -1.11338625 -0.83245426 -2.51758728
v -0.69375641 -1.20485763 -2.41669246
v -0.24099603 -1.36376915 -2.32626430
v 0.13473119 -1.37829047 -2.26045677
v 0.50072011 -1.29125693 -2.19075858
v 0.90308390 -1.05665214 -2.10449262
v 1.20194260 -0.68790241 -2.01919171
v 1.34308752 -0.33738135 -1.94771648
v 1.38397584 0.12835154 -1.86484292
v 1.21253748 0.68412885 -1.75555414
v 0.82675779 1.11763346 -1.65284671
v 0.31675510 1.35382065 -1.54675004
v -0.25122667 1.36738862 -1.44599910
v -0.77384963 1.15507607 -1.34038583
v -1.10873799 0.83007759 -1.25721998
v -1.32739217 0.41431787 -1.16873081
v -1.38359222 -0.06121990 -1.08311198
v -1.28933075 -0.52076033 -0.99678593
v -0.97462850 -0.99132864 -0.89322477
v -0.58882314 -1.25378215 -0.80804873
v -0.22738532 -1.36630001 -0.73651800
v 0.14895879 -1.37700454 -0.67055860
v 0.51419176 -1.28619663 -0.60077115
v 0.91842743 -1.04370141 -0.51372457
v 1.25586239 -0.59717578 -0.41210322
v 1.37750009 -0.14548141 -0.32668400
v 1.36419592 0.23963901 -0.25706962
v 1.24871173 0.59948959 -0.18638372
v 1.04010525 0.91458367 -0.11704087
v 0.75933084 1.15842538 -0.05054177
v 0.33290070 1.35006519 0.03822264
v -0.23461163 1.37043593 0.13889058
v -0.75965334 1.16456173 0.24451269
v -1.15866891 0.76859002 0.34521089
v -1.36846353 0.24576288 0.44972459
v -1.36520024 -0.23351538 0.53561741
v -1.25134684 -0.59380106 0.60628122
v -0.98656028 -0.97937627 0.69162108
v -0.52023742 -1.28947653 0.79446129
v 0.03080481 -1.38979414 0.89467410
v 0.58642733 -1.26067807 1.00153812
v 1.04035884 -0.92191620 1.10426245
v 1.31983221 -0.43704225 1.20856998
v 1.38415358 0.04333732 1.29514436
v 1.29852759 0.49667876 1.37999323
v 0.99188050 0.97368458 1.48399406
v 0.52714502 1.28637944 1.58681887
v 0.04706852 1.38512767 1.67565993
v -0.34178802 1.34214809 1.74625873
v -0.77689728 1.15293494 1.83514554
v -1.11024969 0.82798106 1.91814949
v -1.29273282 0.49737489 1.98855546
v -1.38968895 0.04136287 2.07187033
v -1.31608634 -0.43165690 2.16068699
v -1.15008589 -0.77177582 2.23156782
v -0.83025820 -1.11516030 2.31533387
v -0.40888614 -1.32341064 2.40306006
v 0.05187848 -1.38933268 2.48481516
v 0.61298504 -1.24804097 2.59421454
v 1.12502652 -0.82924421 2.71345493
v 1.39179937 -0.12651216 2.85310308
v 1.25864518 0.60804447 2.98868829
v -0.28864136 1.35465117 -6.39969081
v -0.73177169 1.18227297 -6.31047443
v -1.14341717 0.79105547 -6.20807468
v -1.33629311 0.36449624 -6.12145600
v -1.38496631 -0.00959412 -6.05246884
v -1.33175597 -0.38078996 -5.98542669
v -1.07908202 -0.88822292 -5.88003538
v -0.62681585 -1.23522996 -5.77654063
v -0.27252373 -1.35802060 -5.70713667
v 0.10624115 -1.38097265 -5.63836141
v 0.47485429 -1.30124171 -5.56993736
v 0.80968839 -1.12378725 -5.49914052
v 1.08011973 -0.86702022 -5.43292665
v 1.27453687 -0.54245579 -5.36284827
v 1.38730566 -0.08584610 -5.27478559
v 1.33194701 0.38479862 -5.19077505
v -0.21029764 1.36895126 -6.21566982
v -0.57191392 1.26151394 -6.14524823
v -0.96250524 1.00306267 -6.05966871
v -1.28030824 0.54255580 -5.95731902
v -1.38274530 0.07876807 -5.86997493
v -1.33731287 -0.38088514 -5.78658905
v -1.07507804 -0.88150826 -5.68146789
v -0.64610446 -1.23141019 -5.58349847
v -0.18340763 -1.37284801 -5.49171677
v 0.27363581 -1.36329304 -5.40999074
v 0.71542492 -1.18609103 -5.32174280
v 1.01024846 -0.94742944 -5.25282034
v 1.22478873 -0.64698448 -5.18571178
v 1.35411675 -0.29145796 -5.11482001
v 1.38266117 0.07209667 -5.04954025
v 1.31255688 0.44830072 -4.98288160
f 5 8 7
f 8 5 4
f 9 8 4
f 11 9 4
f 11 4 3
f 11 3 10
f 10 3 2
f 12 10 2
f 13 1 6
f 13 6 12
f 13 12 2
f 30 31 14
f 15 30 14
f 29 30 15
f 16 29 15
f 28 29 16
f 17 28 16
f 27 28 17
f 18 27 17
f 26 27 18
f 19 26 18
f 25 26 19
f 20 25 19
f 24 25 20
f 21 24 20
f 23 24 21
f 22 23 21
f 662 23 22
f 49 98 32
f 33 49 32
f 48 49 33
f 34 48 33
f 47 48 34
f 35 47 34
f 46 47 35
f 36 46 35
f 45 46 36
f 37 45 36
f 44 45 37
f 38 44 37
f 43 44 38
f 39 43 38
f 42 43 39
f 40 42 39
f 128 40 41
f 128 42 40
f 51 69 50
f 68 69 51
f 52 68 51
f 67 68 52
f 53 67 52
f 66 67 53
f 54 66 53
f 65 66 54
f 55 65 54
f 64 65 55
f 56 64 55
f 63 64 56
f 57 63 56
f 62 63 57
f 58 62 57
f 61 62 58
f 59 61 58
f 145 59 60
f 145 61 59
f 90 70 71
f 89 90 71
f 72 89 71
f 88 89 72
f 73 88 72
f 87 88 73
f 74 87 73
f 86 87 74
f 75 86 74
f 85 86 75
f 76 85 75
f 84 85 76
f 77 84 76
f 83 84 77
f 78 83 77
f 82 83 78
f 79 82 78
f 81 82 79
f 81 79 80
f 163 81 80
f 109 107 108
f 106 107 109
f 110 106 109
f 105 106 110
f 405 105 110
f 91 105 405
f 104 105 91
f 92 104 91
f 103 104 92
f 93 103 92
f 102 103 93
f 94 102 93
f 101 102 94
f 95 101 94
f 100 101 95
f 96 100 95
f 99 100 96
f 97 99 96
f 98 99 97
f 98 97 32
f 127 128 41
f 111 127 41
f 126 127 111
f 112 126 111
f 125 126 112
f 113 125 112
f 124 125 113
f 114 124 113
f 123 124 114
f 115 123 114
f 122 123 115
f 116 122 115
f 121 122 116
f 117 121 116
f 120 121 117
f 118 120 117
f 119 120 118
f 69 118 50
f 69 119 118
f 144 145 60
f 129 144 60
f 143 144 129
f 130 143 129
f 142 143 130
f 131 142 130
f 141 142 131
f 132 141 131
f 140 141 132
f 133 140 132
f 139 140 133
f 134 139 133
f 138 139 134
f 135 138 134
f 137 138 135
f 136 137 135
f 137 136 70
f 90 137 70
f 163 80 146
f 162 163 146
f 147 162 146
f 161 162 147
f 148 161 147
f 160 161 148
f 149 160 148
f 159 160 149
f 150 159 149
f 158 159 150
f 151 158 150
f 157 158 151
f 152 157 151
f 156 157 152
f 153 156 152
f 155 156 153
f 154 155 153
f 31 154 14
f 31 155 154
f 174 165 164
f 181 174 164
f 181 164 172
f 182 175 181
f 182 181 172
f 183 186 175
f 183 175 182
f 184 186 183
f 187 184 185
f 187 186 184
f 176 185 171
f 176 187 185
f 188 171 170
f 188 176 171
f 177 170 169
f 177 188 170
f 178 169 168
f 178 177 169
f 167 180 179
f 167 178 168
f 167 179 178
f 189 180 167
f 189 166 173
f 189 173 180
f 191 190 605
f 369 190 191
f 192 210 209
f 212 210 192
f 212 211 210
f 213 211 212
f 214 192 193
f 214 212 192
f 215 212 214
f 215 213 212
f 194 214 193
f 219 213 215
f 216 214 194
f 219 217 213
f 216 215 214
f 222 215 216
f 219 215 222
f 220 216 194
f 220 194 218
f 221 216 220
f 222 216 221
f 223 220 218
f 223 218 195
f 229 219 222
f 229 217 219
f 223 221 220
f 224 221 223
f 196 223 195
f 224 222 221
f 225 223 196
f 224 229 222
f 226 223 225
f 226 224 223
f 231 224 226
f 228 225 196
f 228 196 227
f 228 226 225
f 231 226 228
f 232 228 227
f 232 227 230
f 237 224 231
f 237 229 224
f 234 231 228
f 234 228 232
f 233 230 197
f 233 232 230
f 237 231 234
f 235 232 233
f 241 232 235
f 241 234 232
f 236 233 197
f 238 233 236
f 237 234 241
f 238 235 233
f 239 235 238
f 239 241 235
f 240 238 236
f 240 236 198
f 249 237 241
f 242 239 238
f 242 238 240
f 243 198 199
f 243 240 198
f 242 241 239
f 249 241 242
f 244 240 243
f 244 242 240
f 247 242 244
f 245 243 199
f 246 243 245
f 248 242 247
f 248 249 242
f 246 244 243
f 247 244 246
f 200 246 245
f 250 246 200
f 250 247 246
f 253 247 250
f 253 248 247
f 251 250 200
f 251 200 201
f 252 248 253
f 263 248 252
f 263 249 248
f 253 250 251
f 255 201 254
f 255 251 201
f 259 252 253
f 256 251 255
f 256 253 251
f 260 253 256
f 257 255 254
f 260 259 253
f 258 255 257
f 258 256 255
f 263 252 259
f 260 256 258
f 262 257 202
f 261 259 260
f 262 258 257
f 263 259 261
f 265 260 258
f 265 258 262
f 267 260 265
f 203 262 202
f 267 261 260
f 264 262 203
f 265 262 264
f 268 264 203
f 268 203 266
f 208 261 267
f 268 265 264
f 271 265 268
f 271 267 265
f 269 266 204
f 269 268 266
f 208 267 271
f 271 268 269
f 270 269 204
f 272 269 270
f 272 270 205
f 274 208 271
f 272 205 206
f 273 272 206
f 273 269 272
f 273 271 269
f 273 206 207
f 273 274 271
f 274 207 546
f 274 273 207
f 274 546 208
f 192 275 276
f 192 209 275
f 193 276 277
f 193 192 276
f 194 277 303
f 194 193 277
f 218 303 278
f 218 194 303
f 195 278 315
f 195 218 278
f 196 315 319
f 196 195 315
f 227 319 324
f 227 196 319
f 230 324 328
f 230 227 324
f 197 328 330
f 197 230 328
f 236 330 336
f 236 197 330
f 198 336 342
f 198 236 336
f 199 198 342
f 199 342 348
f 245 199 348
f 245 348 350
f 200 245 350
f 200 350 356
f 200 356 362
f 201 200 362
f 254 201 362
f 254 362 279
f 254 279 372
f 257 254 372
f 202 257 372
f 202 372 375
f 202 375 280
f 203 202 280
f 266 280 382
f 266 382 387
f 266 203 280
f 204 266 387
f 270 387 281
f 270 204 387
f 205 281 282
f 205 270 281
f 291 283 290
f 289 517 288
f 292 517 289
f 294 288 291
f 295 291 290
f 293 284 292
f 289 288 294
f 294 291 295
f 299 284 293
f 296 292 289
f 295 290 285
f 298 297 284
f 298 284 299
f 296 293 292
f 296 289 294
f 299 293 296
f 302 294 295
f 311 295 285
f 276 297 298
f 276 275 297
f 300 298 299
f 301 299 296
f 305 296 294
f 305 294 302
f 276 298 300
f 301 300 299
f 311 285 312
f 277 276 300
f 312 285 286
f 303 300 301
f 304 296 305
f 304 301 296
f 309 295 311
f 309 302 295
f 303 277 300
f 306 303 301
f 306 301 304
f 307 304 305
f 308 305 302
f 308 302 309
f 307 306 304
f 278 303 306
f 313 306 307
f 310 307 305
f 310 305 308
f 318 308 309
f 313 278 306
f 316 307 310
f 314 308 318
f 323 309 311
f 315 278 313
f 316 313 307
f 317 310 308
f 317 308 314
f 318 309 323
f 321 311 312
f 321 323 311
f 319 313 316
f 317 316 310
f 319 315 313
f 320 316 317
f 322 317 314
f 326 318 323
f 321 312 286
f 320 319 316
f 327 314 318
f 327 318 326
f 327 322 314
f 324 319 320
f 325 320 317
f 325 317 322
f 333 321 286
f 333 286 601
f 329 322 327
f 333 323 321
f 328 324 320
f 328 320 325
f 329 325 322
f 331 329 327
f 334 326 323
f 334 323 333
f 330 325 329
f 332 326 334
f 332 327 326
f 330 328 325
f 335 329 331
f 333 601 338
f 332 331 327
f 335 330 329
f 340 334 333
f 337 331 332
f 336 330 335
f 344 334 340
f 343 340 333
f 343 333 338
f 341 332 334
f 337 335 331
f 339 334 344
f 341 337 332
f 342 335 337
f 339 341 334
f 345 337 341
f 345 342 337
f 342 336 335
f 354 343 338
f 346 341 339
f 351 339 344
f 349 340 343
f 349 343 354
f 346 345 341
f 352 344 340
f 352 351 344
f 347 346 339
f 347 339 351
f 348 342 345
f 349 352 340
f 350 345 346
f 350 348 345
f 355 347 351
f 353 346 347
f 353 350 346
f 357 351 352
f 355 353 347
f 363 349 354
f 360 352 349
f 360 357 352
f 358 355 351
f 358 351 357
f 359 353 355
f 356 350 353
f 360 349 363
f 361 358 357
f 365 359 355
f 365 355 358
f 362 356 353
f 362 353 359
f 369 354 287
f 364 357 360
f 364 361 357
f 367 358 361
f 365 362 359
f 366 354 369
f 366 363 354
f 368 360 363
f 367 365 358
f 279 362 365
f 368 363 366
f 370 360 368
f 370 364 360
f 371 367 361
f 371 361 364
f 372 279 365
f 372 365 367
f 373 370 368
f 374 371 364
f 374 364 370
f 375 367 371
f 375 372 367
f 428 366 369
f 376 373 368
f 376 368 366
f 377 370 373
f 378 375 371
f 378 371 374
f 430 366 428
f 428 369 191
f 379 370 377
f 379 374 370
f 376 366 430
f 383 373 376
f 383 377 373
f 379 378 374
f 280 375 378
f 431 376 430
f 381 377 383
f 381 379 377
f 382 378 379
f 383 376 380
f 380 376 431
f 384 379 381
f 382 280 378
f 385 383 380
f 386 379 384
f 386 382 379
f 435 383 385
f 435 381 383
f 387 382 386
f 388 386 384
f 435 384 381
f 281 387 386
f 281 386 388
f 388 384 435
f 282 281 388
f 110 554 405
f 405 554 567
f 404 405 567
f 109 546 554
f 109 554 110
f 403 404 567
f 108 546 109
f 403 567 389
f 391 208 546
f 391 546 108
f 402 403 389
f 402 389 390
f 391 261 208
f 401 402 390
f 392 261 391
f 261 392 393
f 390 400 401
f 598 400 390
f 263 261 393
f 249 263 393
f 249 393 394
f 598 399 400
f 217 399 598
f 217 398 399
f 249 394 395
f 217 397 398
f 237 249 395
f 229 397 217
f 229 396 397
f 237 396 229
f 237 395 396
f 354 338 406
f 354 406 407
f 354 407 408
f 354 408 287
f 413 411 412
f 410 411 413
f 409 413 433
f 409 410 413
f 414 496 477
f 416 506 496
f 415 496 414
f 415 416 496
f 285 290 417
f 418 285 417
f 419 286 285
f 419 285 418
f 429 428 191
f 429 191 433
f 430 428 429
f 432 430 429
f 434 380 431
f 436 430 432
f 436 431 430
f 385 380 434
f 434 431 436
f 437 385 434
f 437 435 385
f 439 433 413
f 439 429 433
f 438 435 437
f 437 434 436
f 438 388 435
f 439 432 429
f 440 438 437
f 420 388 438
f 420 282 388
f 441 437 436
f 444 436 432
f 444 432 439
f 440 437 441
f 442 436 444
f 420 438 440
f 443 440 441
f 442 441 436
f 446 439 413
f 446 413 445
f 421 420 440
f 448 443 441
f 448 441 442
f 449 442 444
f 447 421 440
f 447 440 443
f 450 449 444
f 450 439 446
f 450 444 439
f 451 443 448
f 452 448 442
f 452 442 449
f 451 447 443
f 453 449 450
f 457 450 446
f 454 446 445
f 445 413 412
f 455 448 452
f 455 451 448
f 453 452 449
f 456 450 457
f 458 452 453
f 456 453 450
f 457 446 454
f 412 454 445
f 458 455 452
f 459 453 456
f 460 456 457
f 422 455 458
f 463 458 453
f 463 453 459
f 461 457 454
f 461 460 457
f 462 454 412
f 464 459 456
f 464 456 460
f 423 422 458
f 423 458 463
f 464 463 459
f 466 460 461
f 467 461 454
f 467 454 462
f 473 462 412
f 473 412 611
f 465 463 464
f 466 464 460
f 470 462 473
f 465 423 463
f 468 464 466
f 469 466 461
f 469 461 467
f 473 611 477
f 470 467 462
f 468 465 464
f 474 467 470
f 471 465 468
f 472 468 466
f 472 466 469
f 474 469 467
f 480 470 473
f 475 474 470
f 476 469 474
f 476 472 469
f 424 471 468
f 424 468 472
f 481 470 480
f 480 473 477
f 479 470 481
f 479 475 470
f 482 474 475
f 482 476 474
f 478 472 476
f 478 424 472
f 483 482 475
f 483 475 479
f 487 479 481
f 488 476 482
f 488 478 476
f 484 480 477
f 484 477 496
f 485 482 483
f 485 488 482
f 486 481 480
f 486 480 484
f 486 487 481
f 489 483 479
f 489 479 487
f 493 486 484
f 425 488 485
f 491 487 486
f 489 485 483
f 494 486 493
f 491 489 487
f 492 425 485
f 492 485 489
f 490 484 496
f 493 484 490
f 494 491 486
f 495 489 491
f 497 494 493
f 498 491 494
f 495 492 489
f 502 493 490
f 499 494 497
f 499 498 494
f 500 495 491
f 500 491 498
f 501 492 495
f 503 502 490
f 497 493 502
f 508 496 506
f 508 490 496
f 508 503 490
f 505 498 499
f 505 500 498
f 426 495 500
f 426 501 495
f 507 497 502
f 504 499 497
f 504 505 499
f 511 502 503
f 427 500 505
f 427 426 500
f 514 511 503
f 514 503 508
f 512 507 502
f 512 502 511
f 509 504 497
f 509 497 507
f 510 505 504
f 513 510 504
f 513 504 509
f 510 427 505
f 508 506 283
f 508 283 291
f 516 512 511
f 515 507 512
f 515 509 507
f 517 511 514
f 514 508 291
f 514 291 288
f 514 288 517
f 516 515 512
f 515 513 509
f 518 510 513
f 517 516 511
f 519 515 516
f 520 518 513
f 520 513 515
f 521 516 517
f 517 292 284
f 519 520 515
f 522 516 521
f 522 519 516
f 521 517 284
f 523 520 519
f 522 284 297
f 522 521 284
f 525 523 519
f 525 519 522
f 525 522 297
f 524 523 525
f 275 525 297
f 275 524 525
f 539 205 282
f 539 282 420
f 542 420 421
f 542 539 420
f 526 421 447
f 526 542 421
f 527 447 451
f 527 526 447
f 551 451 455
f 551 527 451
f 528 455 422
f 528 551 455
f 529 422 423
f 529 528 422
f 558 423 465
f 558 529 423
f 530 465 471
f 530 558 465
f 531 471 424
f 531 424 478
f 531 530 471
f 532 531 478
f 533 532 478
f 533 478 488
f 571 533 488
f 571 488 425
f 574 571 425
f 574 425 492
f 534 574 492
f 534 492 501
f 535 534 501
f 535 501 426
f 535 426 427
f 536 535 427
f 537 427 510
f 537 510 518
f 537 536 427
f 586 537 518
f 586 518 520
f 590 520 523
f 590 586 520
f 538 523 524
f 538 590 523
f 595 538 524
f 209 524 275
f 209 595 524
f 540 206 205
f 540 205 539
f 541 206 540
f 541 207 206
f 546 207 541
f 543 540 539
f 543 539 542
f 544 540 543
f 544 541 540
f 545 542 526
f 548 541 544
f 548 546 541
f 545 543 542
f 547 543 545
f 547 544 543
f 548 544 547
f 527 545 526
f 549 545 527
f 549 547 545
f 554 546 548
f 550 547 549
f 550 548 547
f 553 548 550
f 552 549 527
f 552 527 551
f 554 548 553
f 552 550 549
f 553 550 552
f 555 552 551
f 555 551 528
f 556 552 555
f 556 553 552
f 529 555 528
f 560 554 553
f 560 553 556
f 557 555 529
f 556 555 557
f 561 560 556
f 559 557 529
f 559 529 558
f 560 567 554
f 559 556 557
f 563 556 559
f 563 561 556
f 562 558 530
f 562 559 558
f 563 559 562
f 531 562 530
f 566 561 563
f 564 562 531
f 566 560 561
f 567 560 566
f 564 563 562
f 566 563 564
f 565 531 532
f 565 564 531
f 568 564 565
f 568 566 564
f 533 565 532
f 573 566 568
f 569 565 533
f 573 567 566
f 389 567 573
f 569 568 565
f 570 568 569
f 573 568 570
f 572 533 571
f 572 569 533
f 572 570 569
f 575 572 571
f 575 571 574
f 576 573 570
f 576 389 573
f 580 570 572
f 580 572 575
f 534 575 574
f 576 570 580
f 577 575 534
f 578 575 577
f 578 580 575
f 579 534 535
f 579 577 534
f 576 390 389
f 579 578 577
f 581 578 579
f 581 580 578
f 536 579 535
f 584 576 580
f 584 580 581
f 582 579 536
f 390 576 584
f 581 579 582
f 583 536 537
f 583 582 536
f 585 582 583
f 585 581 582
f 587 581 585
f 586 583 537
f 587 584 581
f 588 583 586
f 588 585 583
f 587 390 584
f 589 585 588
f 589 587 585
f 591 586 590
f 594 587 589
f 591 588 586
f 591 589 588
f 587 598 390
f 592 589 591
f 592 594 589
f 538 591 590
f 593 591 538
f 598 587 594
f 592 591 593
f 595 209 210
f 598 594 592
f 596 538 595
f 596 595 210
f 596 593 538
f 596 210 211
f 596 592 593
f 596 211 213
f 597 592 596
f 597 596 213
f 597 598 592
f 597 213 217
f 598 597 217
f 601 599 338
f 601 600 599
f 601 286 600
f 406 599 602
f 338 599 406
f 407 406 602
f 407 602 603
f 407 603 604
f 408 407 604
f 287 190 369
f 408 604 190
f 408 190 287
f 191 605 433
f 605 409 433
f 606 409 605
f 410 409 606
f 410 606 607
f 410 607 608
f 411 410 608
f 411 608 609
f 411 609 412
f 611 610 477
f 611 609 610
f 611 412 609
f 610 414 477
f 612 414 610
f 415 414 612
f 415 612 613
f 415 613 614
f 416 415 614
f 615 506 416
f 615 416 614
f 617 616 290
f 617 615 616
f 617 506 615
f 617 283 506
f 617 290 283
f 417 616 618
f 290 616 417
f 418 417 618
f 418 618 619
f 418 619 620
f 419 418 620
f 600 286 419
f 600 419 620
f 608 610 609
f 604 605 190
f 604 606 605
f 612 610 608
f 613 608 607
f 613 612 608
f 603 607 606
f 603 606 604
f 619 607 603
f 619 613 607
f 618 614 613
f 618 613 619
f 620 603 602
f 620 619 603
f 616 615 614
f 599 620 602
f 616 614 618
f 600 620 599
f 626 166 633
f 626 173 166
f 631 622 621
f 632 631 621
f 633 627 626
f 634 628 627
f 634 625 628
f 634 627 633
f 625 629 628
f 625 624 629
f 624 630 629
f 624 623 630
f 623 622 631
f 623 631 630
f 644 642 641
f 645 644 641
f 646 641 640
f 646 645 641
f 646 640 639
f 647 646 639
f 647 639 638
f 648 647 638
f 643 648 638
f 643 638 637
f 656 643 637
f 636 656 637
f 649 662 22
f 661 662 649
f 650 661 649
f 660 661 650
f 660 650 651
f 659 660 651
f 659 651 652
f 658 659 652
f 658 652 653
f 657 658 653
f 654 657 653
f 635 657 654
f 655 635 654
f 636 635 655
f 656 636 655
f 673 663 664
f 672 673 164
f 672 663 673
f 671 663 672
f 165 672 164
f 669 663 671
f 668 663 669
f 670 671 642
f 670 669 671
f 644 670 642
f 666 668 667
f 666 665 668
f 663 668 665
f 679 6 1
f 679 1 677
f 680 679 677
f 681 677 676
f 681 680 677
f 683 681 676
f 684 676 675
f 684 683 676
f 682 675 674
f 682 674 678
f 682 684 675
f 688 665 689
f 688 686 665
f 687 688 689
f 663 686 685
f 663 685 900
f 884 663 900
f 621 685 632
f 621 900 685
f 674 884 678
f 674 663 884
f 665 686 663
f 689 690 687
f 666 667 690
f 666 690 689
f 663 677 1
f 663 1 13
f 663 13 2
f 663 2 3
f 663 3 4
f 663 4 5
f 663 5 7
f 676 677 663
f 675 676 663
f 691 663 7
f 664 663 691
f 674 675 663
f 692 669 670
f 693 692 670
f 693 644 645
f 693 670 644
f 694 693 645
f 694 645 646
f 695 694 646
f 695 646 647
f 696 647 648
f 696 695 647
f 697 696 648
f 697 648 643
f 697 643 656
f 698 697 656
f 698 656 655
f 698 655 654
f 699 654 653
f 699 698 654
f 700 653 652
f 700 699 653
f 701 652 651
f 701 700 652
f 701 651 650
f 702 650 649
f 702 701 650
f 703 702 649
f 703 649 22
f 704 703 22
f 705 22 21
f 705 704 22
f 705 21 20
f 706 705 20
f 706 20 19
f 707 706 19
f 707 19 18
f 708 707 18
f 708 18 17
f 689 17 16
f 709 17 689
f 709 708 17
f 666 689 16
f 666 16 15
f 709 689 665
f 710 709 665
f 710 665 666
f 711 666 15
f 711 710 666
f 711 15 14
f 712 711 14
f 712 14 154
f 713 712 154
f 713 154 153
f 714 713 153
f 714 153 152
f 715 714 152
f 715 152 151
f 716 715 151
f 716 151 150
f 717 716 150
f 717 150 149
f 718 717 149
f 718 149 148
f 719 718 148
f 719 148 147
f 720 719 147
f 721 147 146
f 721 720 147
f 722 721 146
f 722 146 80
f 723 80 79
f 723 722 80
f 723 79 78
f 724 723 78
f 724 78 77
f 725 724 77
f 725 77 76
f 726 725 76
f 726 76 75
f 727 726 75
f 727 75 74
f 728 727 74
f 728 74 73
f 729 728 73
f 729 73 72
f 730 729 72
f 730 72 71
f 731 730 71
f 732 71 70
f 732 731 71
f 732 70 136
f 733 732 136
f 733 136 135
f 734 135 134
f 734 733 135
f 735 734 134
f 735 134 133
f 736 735 133
f 736 133 132
f 737 736 132
f 738 737 132
f 738 132 131
f 739 131 130
f 739 738 131
f 740 130 129
f 740 739 130
f 741 129 60
f 741 740 129
f 742 741 60
f 742 60 59
f 743 59 58
f 743 742 59
f 744 58 57
f 744 743 58
f 745 57 56
f 745 744 57
f 746 56 55
f 746 745 56
f 746 55 54
f 747 746 54
f 748 747 54
f 748 54 53
f 749 748 53
f 749 53 52
f 750 749 52
f 750 52 51
f 751 750 51
f 751 51 50
f 752 751 50
f 752 50 118
f 753 118 117
f 753 752 118
f 754 117 116
f 754 753 117
f 755 116 115
f 755 754 116
f 756 755 115
f 756 115 114
f 757 756 114
f 757 114 113
f 758 757 113
f 758 113 112
f 759 758 112
f 759 112 111
f 760 759 111
f 760 111 41
f 761 760 41
f 761 41 40
f 762 40 39
f 762 761 40
f 763 762 39
f 763 39 38
f 764 763 38
f 764 38 37
f 765 37 36
f 765 764 37
f 766 765 36
f 766 36 35
f 767 766 35
f 767 35 34
f 768 767 34
f 768 34 33
f 769 768 33
f 770 769 33
f 770 33 32
f 398 770 32
f 399 32 97
f 399 398 32
f 400 399 97
f 400 97 96
f 400 96 95
f 401 400 95
f 401 95 94
f 402 401 94
f 402 94 93
f 402 93 92
f 403 402 92
f 404 403 92
f 404 92 91
f 405 404 91
f 771 672 165
f 771 165 174
f 772 771 174
f 772 174 181
f 773 772 181
f 773 181 175
f 774 773 175
f 774 175 186
f 775 186 187
f 775 774 186
f 776 187 176
f 776 775 187
f 777 176 188
f 777 776 176
f 777 188 177
f 778 777 177
f 778 177 178
f 778 178 179
f 779 778 179
f 779 179 180
f 780 779 180
f 780 180 173
f 780 173 626
f 781 626 627
f 781 780 626
f 781 627 628
f 782 781 628
f 782 628 629
f 783 629 630
f 783 782 629
f 783 630 631
f 784 783 631
f 784 631 632
f 785 784 632
f 685 785 632
f 641 671 786
f 641 642 671
f 640 641 786
f 640 786 787
f 639 640 787
f 638 639 787
f 638 787 788
f 638 788 789
f 637 638 789
f 636 637 789
f 635 789 790
f 635 636 789
f 657 635 790
f 658 790 791
f 658 657 790
f 659 658 791
f 659 791 792
f 660 659 792
f 661 660 792
f 661 792 793
f 662 661 793
f 23 662 793
f 23 793 794
f 24 23 794
f 24 794 795
f 25 24 795
f 25 795 796
f 26 25 796
f 27 796 797
f 27 26 796
f 688 797 798
f 688 798 686
f 27 797 688
f 28 27 688
f 687 28 688
f 28 687 690
f 29 28 690
f 667 799 800
f 29 690 667
f 30 29 667
f 30 667 800
f 31 30 800
f 31 800 801
f 155 31 801
f 155 801 802
f 156 155 802
f 156 802 803
f 157 156 803
f 157 803 804
f 158 157 804
f 158 804 805
f 159 158 805
f 159 805 806
f 160 159 806
f 160 806 807
f 161 160 807
f 161 807 808
f 162 161 808
f 162 808 809
f 163 162 809
f 163 809 810
f 81 163 810
f 81 810 811
f 82 81 811
f 82 811 812
f 83 82 812
f 83 812 813
f 84 83 813
f 84 813 814
f 85 84 814
f 85 814 815
f 86 85 815
f 87 815 816
f 87 86 815
f 88 87 816
f 88 816 817
f 89 88 817
f 89 817 818
f 90 89 818
f 90 818 819
f 137 90 819
f 137 819 820
f 138 137 820
f 138 820 821
f 139 138 821
f 139 821 822
f 140 139 822
f 141 822 823
f 141 140 822
f 141 823 824
f 142 141 824
f 142 824 825
f 143 142 825
f 143 825 826
f 144 143 826
f 144 826 827
f 145 144 827
f 145 827 828
f 61 145 828
f 61 828 829
f 62 61 829
f 62 829 830
f 63 62 830
f 63 830 831
f 64 63 831
f 64 831 832
f 65 64 832
f 66 65 832
f 66 832 833
f 66 833 834
f 67 66 834
f 67 834 835
f 68 67 835
f 68 835 836
f 68 836 837
f 69 68 837
f 69 837 838
f 119 69 838
f 120 838 839
f 120 119 838
f 121 120 839
f 121 839 840
f 122 121 840
f 122 840 841
f 123 122 841
f 124 123 841
f 124 841 842
f 125 842 843
f 125 124 842
f 125 843 844
f 126 125 844
f 126 844 845
f 127 126 845
f 127 845 846
f 128 127 846
f 42 128 846
f 42 846 847
f 43 42 847
f 43 847 848
f 44 43 848
f 44 848 849
f 45 44 849
f 46 849 850
f 46 45 849
f 46 850 851
f 47 46 851
f 47 851 852
f 48 47 852
f 48 852 853
f 49 48 853
f 49 853 854
f 98 49 854
f 98 854 855
f 99 98 855
f 99 855 856
f 100 99 856
f 100 856 857
f 101 100 857
f 101 857 858
f 102 101 858
f 102 858 859
f 103 102 859
f 104 103 859
f 104 859 860
f 104 860 861
f 105 104 861
f 105 861 862
f 106 105 862
f 106 862 863
f 107 106 863
f 107 863 864
f 108 107 864
f 391 108 864
f 391 864 865
f 392 391 865
f 392 865 866
f 393 392 866
f 393 866 867
f 394 393 867
f 395 394 867
f 395 867 868
f 396 395 868
f 668 799 667
f 671 672 771
f 786 671 771
f 786 771 772
f 786 772 773
f 787 786 773
f 787 773 774
f 788 787 774
f 789 788 774
f 789 774 775
f 789 775 776
f 790 789 776
f 790 776 777
f 791 790 777
f 791 777 778
f 792 791 778
f 792 778 779
f 792 779 780
f 793 792 780
f 793 780 781
f 794 793 781
f 795 794 781
f 795 781 782
f 796 782 783
f 796 795 782
f 796 783 784
f 797 796 784
f 797 784 785
f 798 797 785
f 798 785 685
f 686 798 685
f 799 669 692
f 799 668 669
f 799 692 693
f 800 799 693
f 800 693 694
f 801 800 694
f 801 694 695
f 802 801 695
f 802 695 696
f 803 696 697
f 803 802 696
f 804 803 697
f 804 697 698
f 805 804 698
f 806 698 699
f 806 805 698
f 806 699 700
f 807 806 700
f 807 700 701
f 808 807 701
f 808 701 702
f 809 702 703
f 809 808 702
f 810 703 704
f 810 809 703
f 811 810 704
f 811 704 705
f 812 811 705
f 812 705 706
f 813 812 706
f 813 706 707
f 814 813 707
f 815 814 707
f 815 707 708
f 816 708 709
f 816 815 708
f 817 709 710
f 817 816 709
f 817 710 711
f 818 817 711
f 818 711 712
f 819 712 713
f 819 818 712
f 820 819 713
f 820 713 714
f 821 820 714
f 821 714 715
f 822 821 715
f 822 715 716
f 822 716 717
f 823 822 717
f 824 823 717
f 824 717 718
f 824 718 719
f 825 824 719
f 825 719 720
f 826 825 720
f 826 720 721
f 827 826 721
f 827 721 722
f 828 827 722
f 828 722 723
f 829 828 723
f 829 723 724
f 830 829 724
f 831 830 724
f 831 724 725
f 831 725 726
f 832 831 726
f 833 832 726
f 833 726 727
f 834 833 727
f 834 727 728
f 835 834 728
f 835 728 729
f 836 835 729
f 836 729 730
f 837 730 731
f 837 836 730
f 837 731 732
f 838 837 732
f 838 732 733
f 839 838 733
f 839 733 734
f 840 734 735
f 840 839 734
f 840 735 736
f 841 840 736
f 841 736 737
f 842 737 738
f 842 841 737
f 843 738 739
f 843 842 738
f 844 843 739
f 844 739 740
f 845 844 740
f 845 740 741
f 846 741 742
f 846 845 741
f 846 742 743
f 847 846 743
f 847 743 744
f 848 744 745
f 848 847 744
f 849 745 746
f 849 848 745
f 850 849 746
f 850 746 747
f 851 850 747
f 851 747 748
f 851 748 749
f 852 851 749
f 852 749 750
f 853 852 750
f 853 750 751
f 854 853 751
f 854 751 752
f 855 854 752
f 855 752 753
f 856 855 753
f 856 753 754
f 857 754 755
f 857 856 754
f 858 755 756
f 858 857 755
f 859 858 756
f 859 756 757
f 860 859 757
f 860 757 758
f 861 860 758
f 862 861 758
f 862 758 759
f 862 759 760
f 863 862 760
f 863 760 761
f 864 863 761
f 864 761 762
f 865 864 762
f 865 762 763
f 866 865 763
f 866 763 764
f 866 764 765
f 867 866 765
f 867 765 766
f 868 867 766
f 868 766 767
f 868 767 768
f 396 868 768
f 396 768 769
f 397 396 769
f 770 397 769
f 398 397 770
f 885 664 869
f 885 673 664
f 886 869 870
f 886 885 869
f 887 886 870
f 887 870 871
f 888 887 871
f 888 871 872
f 889 872 873
f 889 888 872
f 890 873 874
f 890 889 873
f 890 874 875
f 891 890 875
f 892 875 876
f 892 891 875
f 892 876 877
f 893 892 877
f 893 877 878
f 894 893 878
f 894 878 879
f 895 879 880
f 895 894 879
f 896 880 881
f 896 895 880
f 897 881 882
f 897 896 881
f 898 897 882
f 898 882 883
f 899 898 883
f 899 883 884
f 900 899 884
f 164 673 885
f 172 164 885
f 172 885 886
f 182 886 887
f 182 172 886
f 183 182 887
f 183 887 888
f 184 183 888
f 185 888 889
f 185 184 888
f 171 889 890
f 171 185 889
f 170 171 890
f 170 890 891
f 169 170 891
f 168 891 892
f 168 169 891
f 167 168 892
f 189 892 893
f 189 167 892
f 166 189 893
f 166 893 894
f 633 166 894
f 633 894 895
f 634 633 895
f 625 634 895
f 625 895 896
f 624 625 896
f 624 896 897
f 623 624 897
f 623 897 898
f 622 623 898
f 622 898 899
f 621 622 899
f 621 899 900
f 869 664 691
f 870 869 691
f 870 691 7
f 871 870 7
f 871 7 8
f 872 871 8
f 872 8 9
f 873 872 9
f 873 9 11
f 874 873 11
f 875 874 11
f 875 11 10
f 876 875 10
f 876 10 12
f 876 12 6
f 877 876 6
f 878 877 6
f 878 6 679
f 879 878 679
f 879 679 680
f 880 879 680
f 880 680 681
f 881 880 681
f 881 681 683
f 882 881 683
f 882 683 684
f 883 882 684
f 883 684 682
f 883 682 678
f 884 883 678

