# https://github.com/mikedh/trimesh

o p00083.obj
v 0.00000000 105.00000000 5.85000000
v 0.79657490 105.00000000 5.79551278
v 1.57831111 105.00000000 5.63306613
v 2.33064638 105.00000000 5.36568611
v 3.03956611 105.00000000 4.99835352
v 3.69186447 105.00000000 4.53791105
v 4.27539039 105.00000000 3.99293589
v 4.77927387 105.00000000 3.37357988
v 5.19412853 105.00000000 2.69138047
v 5.51222639 105.00000000 1.95904573
v 5.72764191 105.00000000 1.19021768
v 5.83636230 105.00000000 0.39921812
v 5.83636230 105.00000000 -0.39921812
v 5.72764191 105.00000000 -1.19021768
v 5.51222639 105.00000000 -1.95904573
v 5.19412853 105.00000000 -2.69138047
v 4.77927387 105.00000000 -3.37357988
v 4.27539039 105.00000000 -3.99293589
v 3.69186447 105.00000000 -4.53791105
v 3.03956611 105.00000000 -4.99835352
v 2.33064638 105.00000000 -5.36568611
v 1.57831111 105.00000000 -5.63306613
v 0.79657490 105.00000000 -5.79551278
v 0.00000000 105.00000000 -5.85000000
v 0.00000000 104.50000000 6.35000000
v 0.00000000 104.50000000 -6.35000000
v 0.86465822 104.50000000 -6.29085576
v 1.71320950 104.50000000 -6.11452477
v 2.52984692 104.50000000 -5.82429176
v 3.29935808 104.50000000 -5.42556322
v 4.00740845 104.50000000 -4.92576670
v 4.64080837 104.50000000 -4.33421246
v 5.18775882 104.50000000 -3.66192005
v 5.63807114 104.50000000 -2.92141299
v 5.98335686 104.50000000 -2.12648554
v 6.21718396 104.50000000 -1.29194568
v 6.33519668 104.50000000 -0.43333932
v 6.33519668 104.50000000 0.43333932
v 6.21718396 104.50000000 1.29194568
v 5.98335686 104.50000000 2.12648554
v 5.63807114 104.50000000 2.92141299
v 5.18775882 104.50000000 3.66192005
v 4.64080837 104.50000000 4.33421246
v 4.00740845 104.50000000 4.92576670
v 3.29935808 104.50000000 5.42556322
v 2.52984692 104.50000000 5.82429176
v 1.71320950 104.50000000 6.11452477
v 0.86465822 104.50000000 6.29085576
v 0.00000000 0.00000000 -5.85000000
v 0.79657490 0.00000000 -5.79551278
v 1.57831111 0.00000000 -5.63306613
v 2.33064638 0.00000000 -5.36568611
v 3.03956611 0.00000000 -4.99835352
v 3.69186447 0.00000000 -4.53791105
v 4.27539039 0.00000000 -3.99293589
v 4.77927387 0.00000000 -3.37357988
v 5.19412853 0.00000000 -2.69138047
v 5.51222639 0.00000000 -1.95904573
v 5.72764191 0.00000000 -1.19021768
v 5.83636230 0.00000000 -0.39921812
v 5.83636230 0.00000000 0.39921812
v 5.72764191 0.00000000 1.19021768
v 5.51222639 0.00000000 1.95904573
v 5.19412853 0.00000000 2.69138047
v 4.77927387 0.00000000 3.37357988
v 4.27539039 0.00000000 3.99293589
v 3.69186447 0.00000000 4.53791105
v 3.03956611 0.00000000 4.99835352
v 2.33064638 0.00000000 5.36568611
v 1.57831111 0.00000000 5.63306613
v 0.79657490 0.00000000 5.79551278
v 0.00000000 0.00000000 5.85000000
v 0.00000000 0.50000000 -6.35000000
v 0.00000000 0.50000000 6.35000000
v 0.86465822 0.50000000 6.29085576
v 1.71320950 0.50000000 6.11452477
v 2.52984692 0.50000000 5.82429176
v 3.29935808 0.50000000 5.42556322
v 4.00740845 0.50000000 4.92576670
v 4.64080837 0.50000000 4.33421246
v 5.18775882 0.50000000 3.66192005
v 5.63807114 0.50000000 2.92141299
v 5.98335686 0.50000000 2.12648554
v 6.21718396 0.50000000 1.29194568
v 6.33519668 0.50000000 0.43333932
v 6.33519668 0.50000000 -0.43333932
v 6.21718396 0.50000000 -1.29194568
v 5.98335686 0.50000000 -2.12648554
v 5.63807114 0.50000000 -2.92141299
v 5.18775882 0.50000000 -3.66192005
v 4.64080837 0.50000000 -4.33421246
v 4.00740845 0.50000000 -4.92576670
v 3.29935808 0.50000000 -5.42556322
v 2.52984692 0.50000000 -5.82429176
v 1.71320950 0.50000000 -6.11452477
v 0.86465822 0.50000000 -6.29085576
v 0.00000000 105.00000000 -1.72720000
v 0.00000000 90.00000000 -1.72720000
v 0.00000000 90.00000000 1.72720000
v -0.23518704 90.00000000 1.71111277
v -0.46599298 90.00000000 1.66315074
v -0.68811836 90.00000000 1.58420736
v -0.89742540 90.00000000 1.47575320
v -1.09001510 90.00000000 1.33980854
v -1.26229988 90.00000000 1.17890579
v -1.41107040 90.00000000 0.99604225
v -1.53355535 90.00000000 0.79462433
v -1.62747306 90.00000000 0.57840407
v -1.69107404 90.00000000 0.35140923
v -1.72317350 90.00000000 0.11786830
v -1.72317350 90.00000000 -0.11786830
v -1.69107404 90.00000000 -0.35140923
v -1.62747306 90.00000000 -0.57840407
v -1.53355535 90.00000000 -0.79462433
v -1.41107040 90.00000000 -0.99604225
v -1.26229988 90.00000000 -1.17890579
v -1.09001510 90.00000000 -1.33980854
v -0.89742540 90.00000000 -1.47575320
v -0.68811836 90.00000000 -1.58420736
v -0.46599298 90.00000000 -1.66315074
v -0.23518704 90.00000000 -1.71111277
v 0.00000000 105.00000000 1.72720000
v -0.23518704 105.00000000 1.71111277
v -0.46599298 105.00000000 1.66315074
v -0.68811836 105.00000000 1.58420736
v -0.89742540 105.00000000 1.47575320
v -1.09001510 105.00000000 1.33980854
v -1.26229988 105.00000000 1.17890579
v -1.41107040 105.00000000 0.99604225
v -1.53355535 105.00000000 0.79462433
v -1.62747306 105.00000000 0.57840407
v -1.69107404 105.00000000 0.35140923
v -1.72317350 105.00000000 0.11786830
v -1.72317350 105.00000000 -0.11786830
v -1.69107404 105.00000000 -0.35140923
v -1.62747306 105.00000000 -0.57840407
v -1.53355535 105.00000000 -0.79462433
v -1.41107040 105.00000000 -0.99604225
v -1.26229988 105.00000000 -1.17890579
v -1.09001510 105.00000000 -1.33980854
v -0.89742540 105.00000000 -1.47575320
v -0.68811836 105.00000000 -1.58420736
v -0.46599298 105.00000000 -1.66315074
v -0.23518704 105.00000000 -1.71111277
v 0.00000000 89.08163147 0.00000000
v -0.14901075 89.38775431 -0.55611570
v -0.28786667 89.38775431 -0.49859969
v -0.40710494 89.38775431 -0.40710494
v -0.29802150 89.69387716 -1.11223139
v -0.49859969 89.38775431 -0.28786667
v -0.57573333 89.69387716 -0.99719938
v -0.55611570 89.38775431 -0.14901075
v -0.81420989 89.69387716 -0.81420989
v -0.57573333 89.38775431 -0.00000000
v -0.99719938 89.69387716 -0.57573333
v -0.55611570 89.38775431 0.14901075
v -1.11223139 89.69387716 -0.29802150
v -0.49859969 89.38775431 0.28786667
v -1.15146667 89.69387716 -0.00000000
v -0.40710494 89.38775431 0.40710494
v -1.11223139 89.69387716 0.29802150
v -0.28786667 89.38775431 0.49859969
v -0.99719938 89.69387716 0.57573333
v -0.14901075 89.38775431 0.55611570
v -0.81420989 89.69387716 0.81420989
v -0.57573333 89.69387716 0.99719938
v -0.29802150 89.69387716 1.11223139
v 0.00000000 15.00000000 -1.72720000
v 0.00000000 0.00000000 -1.72720000
v 0.00000000 0.00000000 1.72720000
v -0.23518704 0.00000000 1.71111277
v -0.46599298 0.00000000 1.66315074
v -0.68811836 0.00000000 1.58420736
v -0.89742540 0.00000000 1.47575320
v -1.09001510 0.00000000 1.33980854
v -1.26229988 0.00000000 1.17890579
v -1.41107040 0.00000000 0.99604225
v -1.53355535 0.00000000 0.79462433
v -1.62747306 0.00000000 0.57840407
v -1.69107404 0.00000000 0.35140923
v -1.72317350 0.00000000 0.11786830
v -1.72317350 0.00000000 -0.11786830
v -1.69107404 0.00000000 -0.35140923
v -1.62747306 0.00000000 -0.57840407
v -1.53355535 0.00000000 -0.79462433
v -1.41107040 0.00000000 -0.99604225
v -1.26229988 0.00000000 -1.17890579
v -1.09001510 0.00000000 -1.33980854
v -0.89742540 0.00000000 -1.47575320
v -0.68811836 0.00000000 -1.58420736
v -0.46599298 0.00000000 -1.66315074
v -0.23518704 0.00000000 -1.71111277
v 0.00000000 15.00000000 1.72720000
v -0.23518704 15.00000000 1.71111277
v -0.46599298 15.00000000 1.66315074
v -0.68811836 15.00000000 1.58420736
v -0.89742540 15.00000000 1.47575320
v -1.09001510 15.00000000 1.33980854
v -1.26229988 15.00000000 1.17890579
v -1.41107040 15.00000000 0.99604225
v -1.53355535 15.00000000 0.79462433
v -1.62747306 15.00000000 0.57840407
v -1.69107404 15.00000000 0.35140923
v -1.72317350 15.00000000 0.11786830
v -1.72317350 15.00000000 -0.11786830
v -1.69107404 15.00000000 -0.35140923
v -1.62747306 15.00000000 -0.57840407
v -1.53355535 15.00000000 -0.79462433
v -1.41107040 15.00000000 -0.99604225
v -1.26229988 15.00000000 -1.17890579
v -1.09001510 15.00000000 -1.33980854
v -0.89742540 15.00000000 -1.47575320
v -0.68811836 15.00000000 -1.58420736
v -0.46599298 15.00000000 -1.66315074
v -0.23518704 15.00000000 -1.71111277
v 0.00000000 15.91836853 0.00000000
v -0.28786667 15.61224569 0.49859969
v -0.14901075 15.61224569 0.55611570
v -0.40710494 15.61224569 0.40710494
v -0.29802150 15.30612284 1.11223139
v -0.49859969 15.61224569 0.28786667
v -0.57573333 15.30612284 0.99719938
v -0.55611570 15.61224569 0.14901075
v -0.81420989 15.30612284 0.81420989
v -0.57573333 15.61224569 0.00000000
v -0.99719938 15.30612284 0.57573333
v -0.55611570 15.61224569 -0.14901075
v -1.11223139 15.30612284 0.29802150
v -0.49859969 15.61224569 -0.28786667
v -1.15146667 15.30612284 0.00000000
v -0.40710494 15.61224569 -0.40710494
v -1.11223139 15.30612284 -0.29802150
v -0.28786667 15.61224569 -0.49859969
v -0.99719938 15.30612284 -0.57573333
v -0.14901075 15.61224569 -0.55611570
v -0.81420989 15.30612284 -0.81420989
v -0.57573333 15.30612284 -0.99719938
v -0.29802150 15.30612284 -1.11223139
v -0.86465822 104.50000000 6.29085576
v -1.71320950 104.50000000 6.11452477
v -2.52984692 104.50000000 5.82429176
v -3.29935808 104.50000000 5.42556322
v -4.00740845 104.50000000 4.92576670
v -4.64080837 104.50000000 4.33421246
v -5.18775882 104.50000000 3.66192005
v -5.63807114 104.50000000 2.92141299
v -5.98335686 104.50000000 2.12648554
v -6.21718396 104.50000000 1.29194568
v -6.33519668 104.50000000 0.43333932
v -6.33519668 104.50000000 -0.43333932
v -6.21718396 104.50000000 -1.29194568
v -5.98335686 104.50000000 -2.12648554
v -5.63807114 104.50000000 -2.92141299
v -5.18775882 104.50000000 -3.66192005
v -4.64080837 104.50000000 -4.33421246
v -4.00740845 104.50000000 -4.92576670
v -3.29935808 104.50000000 -5.42556322
v -2.52984692 104.50000000 -5.82429176
v -1.71320950 104.50000000 -6.11452477
v -0.86465822 104.50000000 -6.29085576
v -0.86465822 0.50000000 -6.29085576
v -1.71320950 0.50000000 -6.11452477
v -2.52984692 0.50000000 -5.82429176
v -3.29935808 0.50000000 -5.42556322
v -4.00740845 0.50000000 -4.92576670
v -4.64080837 0.50000000 -4.33421246
v -5.18775882 0.50000000 -3.66192005
v -5.63807114 0.50000000 -2.92141299
v -5.98335686 0.50000000 -2.12648554
v -6.21718396 0.50000000 -1.29194568
v -6.33519668 0.50000000 -0.43333932
v -6.33519668 0.50000000 0.43333932
v -6.21718396 0.50000000 1.29194568
v -5.98335686 0.50000000 2.12648554
v -5.63807114 0.50000000 2.92141299
v -5.18775882 0.50000000 3.66192005
v -4.64080837 0.50000000 4.33421246
v -4.00740845 0.50000000 4.92576670
v -3.29935808 0.50000000 5.42556322
v -2.52984692 0.50000000 5.82429176
v -1.71320950 0.50000000 6.11452477
v -0.86465822 0.50000000 6.29085576
v -0.79657490 105.00000000 -5.79551278
v -1.57831111 105.00000000 -5.63306613
v -2.33064638 105.00000000 -5.36568611
v -3.03956611 105.00000000 -4.99835352
v -3.69186447 105.00000000 -4.53791105
v -4.27539039 105.00000000 -3.99293589
v -4.77927387 105.00000000 -3.37357988
v -5.19412853 105.00000000 -2.69138047
v -5.51222639 105.00000000 -1.95904573
v -5.72764191 105.00000000 -1.19021768
v -5.83636230 105.00000000 -0.39921812
v -5.83636230 105.00000000 0.39921812
v -5.72764191 105.00000000 1.19021768
v -5.51222639 105.00000000 1.95904573
v -5.19412853 105.00000000 2.69138047
v -4.77927387 105.00000000 3.37357988
v -4.27539039 105.00000000 3.99293589
v -3.69186447 105.00000000 4.53791105
v -3.03956611 105.00000000 4.99835352
v -2.33064638 105.00000000 5.36568611
v -1.57831111 105.00000000 5.63306613
v -0.79657490 105.00000000 5.79551278
v 0.23518704 105.00000000 -1.71111277
v 0.46599298 105.00000000 -1.66315074
v 0.68811836 105.00000000 -1.58420736
v 0.89742540 105.00000000 -1.47575320
v 1.09001510 105.00000000 -1.33980854
v 1.26229988 105.00000000 -1.17890579
v 1.41107040 105.00000000 -0.99604225
v 1.53355535 105.00000000 -0.79462433
v 1.62747306 105.00000000 -0.57840407
v 1.69107404 105.00000000 -0.35140923
v 1.72317350 105.00000000 -0.11786830
v 1.72317350 105.00000000 0.11786830
v 1.69107404 105.00000000 0.35140923
v 1.62747306 105.00000000 0.57840407
v 1.53355535 105.00000000 0.79462433
v 1.41107040 105.00000000 0.99604225
v 1.26229988 105.00000000 1.17890579
v 1.09001510 105.00000000 1.33980854
v 0.89742540 105.00000000 1.47575320
v 0.68811836 105.00000000 1.58420736
v 0.46599298 105.00000000 1.66315074
v 0.23518704 105.00000000 1.71111277
v -0.79657490 0.00000000 5.79551278
v -1.57831111 0.00000000 5.63306613
v -2.33064638 0.00000000 5.36568611
v -3.03956611 0.00000000 4.99835352
v -3.69186447 0.00000000 4.53791105
v -4.27539039 0.00000000 3.99293589
v -4.77927387 0.00000000 3.37357988
v -5.19412853 0.00000000 2.69138047
v -5.51222639 0.00000000 1.95904573
v -5.72764191 0.00000000 1.19021768
v -5.83636230 0.00000000 0.39921812
v -5.83636230 0.00000000 -0.39921812
v -5.72764191 0.00000000 -1.19021768
v -5.51222639 0.00000000 -1.95904573
v -5.19412853 0.00000000 -2.69138047
v -4.77927387 0.00000000 -3.37357988
v -4.27539039 0.00000000 -3.99293589
v -3.69186447 0.00000000 -4.53791105
v -3.03956611 0.00000000 -4.99835352
v -2.33064638 0.00000000 -5.36568611
v -1.57831111 0.00000000 -5.63306613
v -0.79657490 0.00000000 -5.79551278
v 0.23518704 0.00000000 -1.71111277
v 0.46599298 0.00000000 -1.66315074
v 0.68811836 0.00000000 -1.58420736
v 0.89742540 0.00000000 -1.47575320
v 1.09001510 0.00000000 -1.33980854
v 1.26229988 0.00000000 -1.17890579
v 1.41107040 0.00000000 -0.99604225
v 1.53355535 0.00000000 -0.79462433
v 1.62747306 0.00000000 -0.57840407
v 1.69107404 0.00000000 -0.35140923
v 1.72317350 0.00000000 -0.11786830
v 1.72317350 0.00000000 0.11786830
v 1.69107404 0.00000000 0.35140923
v 1.62747306 0.00000000 0.57840407
v 1.53355535 0.00000000 0.79462433
v 1.41107040 0.00000000 0.99604225
v 1.26229988 0.00000000 1.17890579
v 1.09001510 0.00000000 1.33980854
v 0.89742540 0.00000000 1.47575320
v 0.68811836 0.00000000 1.58420736
v 0.46599298 0.00000000 1.66315074
v 0.23518704 0.00000000 1.71111277
v 0.23518704 15.00000000 -1.71111277
v 0.46599298 15.00000000 -1.66315074
v 0.68811836 15.00000000 -1.58420736
v 0.89742540 15.00000000 -1.47575320
v 1.09001510 15.00000000 -1.33980854
v 1.26229988 15.00000000 -1.17890579
v 1.41107040 15.00000000 -0.99604225
v 1.53355535 15.00000000 -0.79462433
v 1.62747306 15.00000000 -0.57840407
v 1.69107404 15.00000000 -0.35140923
v 1.72317350 15.00000000 -0.11786830
v 1.72317350 15.00000000 0.11786830
v 1.69107404 15.00000000 0.35140923
v 1.62747306 15.00000000 0.57840407
v 1.53355535 15.00000000 0.79462433
v 1.41107040 15.00000000 0.99604225
v 1.26229988 15.00000000 1.17890579
v 1.09001510 15.00000000 1.33980854
v 0.89742540 15.00000000 1.47575320
v 0.68811836 15.00000000 1.58420736
v 0.46599298 15.00000000 1.66315074
v 0.23518704 15.00000000 1.71111277
v 0.28786667 15.61224569 -0.49859969
v 0.14901075 15.61224569 -0.55611570
v 0.40710494 15.61224569 -0.40710494
v 0.29802150 15.30612284 -1.11223139
v 0.49859969 15.61224569 -0.28786667
v 0.57573333 15.30612284 -0.99719938
v 0.55611570 15.61224569 -0.14901075
v 0.81420989 15.30612284 -0.81420989
v 0.57573333 15.61224569 -0.00000000
v 0.99719938 15.30612284 -0.57573333
v 0.55611570 15.61224569 0.14901075
v 1.11223139 15.30612284 -0.29802150
v 0.49859969 15.61224569 0.28786667
v 1.15146667 15.30612284 -0.00000000
v 0.40710494 15.61224569 0.40710494
v 1.11223139 15.30612284 0.29802150
v 0.28786667 15.61224569 0.49859969
v 0.99719938 15.30612284 0.57573333
v 0.14901075 15.61224569 0.55611570
v 0.81420989 15.30612284 0.81420989
v 0.57573333 15.30612284 0.99719938
v 0.29802150 15.30612284 1.11223139
v 0.23518704 90.00000000 -1.71111277
v 0.46599298 90.00000000 -1.66315074
v 0.68811836 90.00000000 -1.58420736
v 0.89742540 90.00000000 -1.47575320
v 1.09001510 90.00000000 -1.33980854
v 1.26229988 90.00000000 -1.17890579
v 1.41107040 90.00000000 -0.99604225
v 1.53355535 90.00000000 -0.79462433
v 1.62747306 90.00000000 -0.57840407
v 1.69107404 90.00000000 -0.35140923
v 1.72317350 90.00000000 -0.11786830
v 1.72317350 90.00000000 0.11786830
v 1.69107404 90.00000000 0.35140923
v 1.62747306 90.00000000 0.57840407
v 1.53355535 90.00000000 0.79462433
v 1.41107040 90.00000000 0.99604225
v 1.26229988 90.00000000 1.17890579
v 1.09001510 90.00000000 1.33980854
v 0.89742540 90.00000000 1.47575320
v 0.68811836 90.00000000 1.58420736
v 0.46599298 90.00000000 1.66315074
v 0.23518704 90.00000000 1.71111277
v 0.14901075 89.38775431 0.55611570
v 0.28786667 89.38775431 0.49859969
v 0.40710494 89.38775431 0.40710494
v 0.29802150 89.69387716 1.11223139
v 0.49859969 89.38775431 0.28786667
v 0.57573333 89.69387716 0.99719938
v 0.55611570 89.38775431 0.14901075
v 0.81420989 89.69387716 0.81420989
v 0.57573333 89.38775431 0.00000000
v 0.99719938 89.69387716 0.57573333
v 0.55611570 89.38775431 -0.14901075
v 1.11223139 89.69387716 0.29802150
v 0.49859969 89.38775431 -0.28786667
v 1.15146667 89.69387716 0.00000000
v 0.40710494 89.38775431 -0.40710494
v 1.11223139 89.69387716 -0.29802150
v 0.28786667 89.38775431 -0.49859969
v 0.99719938 89.69387716 -0.57573333
v 0.14901075 89.38775431 -0.55611570
v 0.81420989 89.69387716 -0.81420989
v 0.57573333 89.69387716 -0.99719938
v 0.29802150 89.69387716 -1.11223139
f 27 24 23
f 27 26 24
f 28 23 22
f 28 27 23
f 29 22 21
f 29 28 22
f 30 21 20
f 30 29 21
f 31 20 19
f 31 30 20
f 32 19 18
f 32 31 19
f 33 18 17
f 33 32 18
f 34 17 16
f 34 33 17
f 35 16 15
f 35 34 16
f 36 15 14
f 36 35 15
f 37 14 13
f 37 36 14
f 12 37 13
f 38 37 12
f 11 38 12
f 39 38 11
f 10 39 11
f 40 39 10
f 9 40 10
f 41 40 9
f 8 41 9
f 42 41 8
f 7 42 8
f 43 42 7
f 6 43 7
f 44 43 6
f 5 44 6
f 45 44 5
f 4 45 5
f 46 45 4
f 3 46 4
f 47 46 3
f 2 47 3
f 48 47 2
f 1 48 2
f 25 48 1
f 71 74 72
f 75 74 71
f 70 75 71
f 76 75 70
f 69 76 70
f 77 76 69
f 68 77 69
f 78 77 68
f 67 78 68
f 79 78 67
f 66 79 67
f 80 79 66
f 65 80 66
f 81 80 65
f 64 81 65
f 82 81 64
f 63 82 64
f 83 82 63
f 62 83 63
f 84 83 62
f 61 84 62
f 85 84 61
f 60 85 61
f 86 85 60
f 59 86 60
f 87 86 59
f 58 87 59
f 88 87 58
f 57 88 58
f 89 88 57
f 90 57 56
f 90 89 57
f 91 56 55
f 91 90 56
f 92 55 54
f 92 91 55
f 53 92 54
f 93 92 53
f 94 53 52
f 94 93 53
f 95 52 51
f 95 94 52
f 96 51 50
f 96 95 51
f 73 50 49
f 73 96 50
f 99 123 122
f 100 123 99
f 101 124 123
f 101 123 100
f 102 125 124
f 102 124 101
f 103 126 125
f 103 125 102
f 104 127 126
f 104 128 127
f 104 126 103
f 105 128 104
f 106 129 128
f 106 128 105
f 107 130 129
f 107 131 130
f 107 129 106
f 108 131 107
f 109 132 131
f 109 131 108
f 110 133 132
f 110 132 109
f 111 133 110
f 111 134 133
f 111 135 134
f 112 135 111
f 112 136 135
f 113 136 112
f 114 136 113
f 114 137 136
f 115 137 114
f 115 138 137
f 116 138 115
f 116 139 138
f 117 139 116
f 117 140 139
f 118 140 117
f 118 141 140
f 118 142 141
f 119 142 118
f 120 142 119
f 120 143 142
f 120 144 143
f 121 144 120
f 98 144 121
f 98 97 144
f 146 145 98
f 147 145 146
f 148 145 147
f 149 120 119
f 149 121 120
f 149 98 121
f 149 146 98
f 150 145 148
f 151 118 117
f 151 119 118
f 151 147 146
f 151 146 149
f 151 149 119
f 152 145 150
f 153 116 115
f 153 117 116
f 153 151 117
f 153 148 147
f 153 147 151
f 154 145 145
f 154 145 152
f 155 114 113
f 155 115 114
f 155 148 153
f 155 150 148
f 155 153 115
f 155 152 150
f 156 145 154
f 157 112 111
f 157 113 112
f 157 152 155
f 157 155 113
f 158 145 156
f 159 111 110
f 159 154 152
f 159 157 111
f 159 152 157
f 160 145 158
f 161 109 108
f 161 110 109
f 161 159 110
f 161 156 154
f 161 158 156
f 161 154 159
f 162 145 160
f 163 107 106
f 163 108 107
f 163 161 108
f 163 158 161
f 164 99 145
f 164 145 162
f 165 158 163
f 165 105 104
f 165 106 105
f 165 163 106
f 165 160 158
f 166 103 102
f 166 104 103
f 166 164 162
f 166 160 165
f 166 165 104
f 166 162 160
f 167 100 99
f 167 101 100
f 167 102 101
f 167 164 166
f 167 99 164
f 167 166 102
f 170 194 193
f 171 194 170
f 172 195 194
f 172 194 171
f 173 196 195
f 173 195 172
f 174 197 196
f 174 196 173
f 175 198 197
f 175 199 198
f 175 197 174
f 176 199 175
f 177 200 199
f 177 199 176
f 178 201 200
f 178 202 201
f 178 200 177
f 179 202 178
f 180 203 202
f 180 202 179
f 181 204 203
f 181 203 180
f 182 204 181
f 182 205 204
f 182 206 205
f 183 206 182
f 183 207 206
f 184 207 183
f 185 207 184
f 185 208 207
f 186 208 185
f 186 209 208
f 187 209 186
f 187 210 209
f 188 210 187
f 188 211 210
f 189 211 188
f 189 212 211
f 189 213 212
f 190 213 189
f 191 213 190
f 191 214 213
f 191 215 214
f 192 215 191
f 169 215 192
f 169 168 215
f 217 216 218
f 219 216 217
f 220 193 194
f 220 194 195
f 220 195 196
f 220 216 193
f 220 218 216
f 221 216 219
f 222 196 197
f 222 197 198
f 222 217 218
f 222 220 196
f 222 218 220
f 223 216 221
f 224 198 199
f 224 199 200
f 224 222 198
f 224 217 222
f 224 219 217
f 225 216 216
f 225 216 223
f 226 200 201
f 226 201 202
f 226 219 224
f 226 224 200
f 226 221 219
f 227 216 225
f 228 202 203
f 228 203 204
f 228 226 202
f 228 223 221
f 228 221 226
f 229 216 227
f 230 204 205
f 230 225 223
f 230 223 228
f 230 228 204
f 231 216 229
f 232 205 206
f 232 206 207
f 232 225 230
f 232 227 225
f 232 230 205
f 233 216 231
f 234 207 208
f 234 208 209
f 234 232 207
f 234 229 227
f 234 227 232
f 235 216 233
f 236 229 234
f 236 209 210
f 236 210 211
f 236 234 209
f 236 231 229
f 237 231 236
f 237 211 212
f 237 212 213
f 237 236 211
f 237 233 231
f 238 216 235
f 238 235 233
f 238 233 237
f 238 213 214
f 238 214 215
f 238 215 168
f 238 168 216
f 238 237 213
f 73 26 27
f 96 27 28
f 96 73 27
f 95 28 29
f 95 96 28
f 94 29 30
f 94 95 29
f 93 30 31
f 93 94 30
f 92 31 32
f 92 93 31
f 91 32 33
f 91 92 32
f 90 33 34
f 90 91 33
f 89 90 34
f 88 34 35
f 88 89 34
f 87 35 36
f 87 88 35
f 86 36 37
f 86 87 36
f 85 86 37
f 85 37 38
f 84 85 38
f 84 38 39
f 83 84 39
f 83 39 40
f 82 83 40
f 82 40 41
f 81 82 41
f 81 41 42
f 80 42 43
f 80 81 42
f 79 43 44
f 79 80 43
f 78 44 45
f 78 79 44
f 77 45 46
f 77 78 45
f 76 46 47
f 76 77 46
f 75 47 48
f 75 76 47
f 74 48 25
f 74 75 48
f 282 74 25
f 282 25 239
f 281 239 240
f 281 282 239
f 280 240 241
f 280 281 240
f 279 241 242
f 279 280 241
f 278 242 243
f 278 279 242
f 277 243 244
f 277 278 243
f 276 244 245
f 276 277 244
f 275 245 246
f 275 276 245
f 274 246 247
f 274 275 246
f 273 247 248
f 273 274 247
f 272 248 249
f 272 273 248
f 271 272 249
f 271 249 250
f 270 271 250
f 270 250 251
f 269 270 251
f 269 251 252
f 268 269 252
f 268 252 253
f 267 268 253
f 267 253 254
f 266 254 255
f 266 267 254
f 265 266 255
f 265 255 256
f 264 256 257
f 264 257 258
f 264 265 256
f 263 264 258
f 262 258 259
f 262 259 260
f 262 263 258
f 261 262 260
f 261 260 26
f 73 261 26
f 139 287 288
f 140 286 287
f 140 287 139
f 138 288 289
f 138 139 288
f 141 285 286
f 141 286 140
f 137 138 289
f 137 289 290
f 142 284 285
f 142 285 141
f 136 290 291
f 136 137 290
f 143 283 284
f 143 284 142
f 135 291 292
f 135 136 291
f 144 24 283
f 144 283 143
f 134 292 293
f 134 135 292
f 97 24 144
f 133 293 294
f 133 134 293
f 305 24 97
f 305 23 24
f 132 133 294
f 132 294 295
f 306 22 23
f 306 23 305
f 131 295 296
f 131 132 295
f 307 21 22
f 307 22 306
f 130 296 297
f 130 131 296
f 308 20 21
f 308 21 307
f 129 130 297
f 129 297 298
f 309 19 20
f 309 20 308
f 128 298 299
f 128 129 298
f 127 128 299
f 18 309 310
f 18 19 309
f 311 18 310
f 300 126 127
f 300 127 299
f 17 18 311
f 301 126 300
f 16 311 312
f 16 312 313
f 16 17 311
f 302 124 125
f 302 125 126
f 302 126 301
f 15 16 313
f 303 124 302
f 303 123 124
f 14 15 313
f 14 313 314
f 14 314 315
f 304 123 303
f 13 14 315
f 1 326 122
f 1 122 123
f 1 123 304
f 12 13 315
f 12 315 316
f 12 316 317
f 2 326 1
f 2 325 326
f 11 12 317
f 3 325 2
f 3 324 325
f 10 11 317
f 10 317 318
f 4 324 3
f 9 10 318
f 9 318 319
f 9 319 320
f 5 324 4
f 5 323 324
f 8 320 321
f 8 9 320
f 6 323 5
f 6 322 323
f 7 322 6
f 7 321 322
f 7 8 321
f 187 343 344
f 188 344 345
f 188 187 344
f 186 343 187
f 186 342 343
f 189 188 345
f 189 345 346
f 185 341 342
f 185 342 186
f 190 189 346
f 184 341 185
f 184 340 341
f 191 190 346
f 191 346 347
f 191 347 348
f 183 339 340
f 183 340 184
f 192 348 49
f 192 191 348
f 182 339 183
f 182 338 339
f 169 49 50
f 169 192 49
f 181 337 338
f 181 338 182
f 349 169 50
f 180 336 337
f 180 337 181
f 350 50 51
f 350 349 50
f 179 336 180
f 179 335 336
f 351 51 52
f 351 350 51
f 178 334 335
f 178 335 179
f 352 52 53
f 352 351 52
f 177 334 178
f 177 333 334
f 353 53 54
f 353 352 53
f 176 332 333
f 176 333 177
f 354 353 54
f 55 354 54
f 331 176 175
f 331 332 176
f 56 355 354
f 56 356 355
f 56 354 55
f 330 175 174
f 330 331 175
f 57 356 56
f 329 330 174
f 329 174 173
f 58 356 57
f 58 357 356
f 58 358 357
f 328 173 172
f 328 329 173
f 59 358 58
f 327 328 172
f 327 172 171
f 60 358 59
f 60 359 358
f 72 327 171
f 72 171 170
f 61 359 60
f 61 360 359
f 71 72 170
f 71 170 370
f 62 360 61
f 62 361 360
f 62 362 361
f 70 71 370
f 70 370 369
f 63 362 62
f 69 70 369
f 69 369 368
f 64 363 362
f 64 362 63
f 64 364 363
f 68 69 368
f 68 368 367
f 65 364 64
f 65 365 364
f 67 68 367
f 67 367 366
f 66 365 65
f 66 67 366
f 66 366 365
f 393 216 394
f 395 216 393
f 396 168 371
f 396 371 372
f 396 372 373
f 396 216 168
f 396 394 216
f 397 216 395
f 398 373 374
f 398 374 375
f 398 393 394
f 398 396 373
f 398 394 396
f 399 216 397
f 400 375 376
f 400 376 377
f 400 398 375
f 400 393 398
f 400 395 393
f 401 216 216
f 401 216 399
f 402 377 378
f 402 378 379
f 402 395 400
f 402 400 377
f 402 397 395
f 403 216 401
f 404 379 380
f 404 380 381
f 404 402 379
f 404 399 397
f 404 397 402
f 405 216 403
f 406 381 382
f 406 401 399
f 406 399 404
f 406 404 381
f 407 216 405
f 408 382 383
f 408 383 384
f 408 401 406
f 408 403 401
f 408 406 382
f 409 216 407
f 410 384 385
f 410 385 386
f 410 408 384
f 410 405 403
f 410 403 408
f 411 216 409
f 412 405 410
f 412 386 387
f 412 387 388
f 412 410 386
f 412 407 405
f 413 407 412
f 413 388 389
f 413 389 390
f 413 412 388
f 413 409 407
f 414 216 411
f 414 411 409
f 414 409 413
f 414 390 391
f 414 391 392
f 414 392 193
f 414 193 216
f 414 413 390
f 349 168 169
f 349 371 168
f 350 372 371
f 350 373 372
f 350 371 349
f 351 373 350
f 352 374 373
f 352 375 374
f 352 373 351
f 353 375 352
f 354 376 375
f 354 375 353
f 355 377 376
f 355 376 354
f 356 378 377
f 356 377 355
f 357 379 378
f 357 380 379
f 357 378 356
f 358 380 357
f 359 381 380
f 359 380 358
f 360 381 359
f 360 382 381
f 360 383 382
f 361 383 360
f 362 383 361
f 362 384 383
f 362 385 384
f 363 385 362
f 364 385 363
f 364 386 385
f 365 386 364
f 365 387 386
f 366 387 365
f 366 388 387
f 366 389 388
f 367 389 366
f 368 389 367
f 368 390 389
f 369 390 368
f 369 391 390
f 370 391 369
f 370 392 391
f 170 392 370
f 170 193 392
f 437 145 99
f 438 145 437
f 439 145 438
f 440 435 434
f 440 436 435
f 440 99 436
f 440 437 99
f 441 145 439
f 442 433 432
f 442 434 433
f 442 438 437
f 442 437 440
f 442 440 434
f 443 145 441
f 444 431 430
f 444 432 431
f 444 442 432
f 444 439 438
f 444 438 442
f 445 145 145
f 445 145 443
f 446 429 428
f 446 430 429
f 446 439 444
f 446 441 439
f 446 444 430
f 447 145 445
f 448 427 426
f 448 428 427
f 448 441 446
f 448 443 441
f 448 446 428
f 449 145 447
f 450 426 425
f 450 448 426
f 450 445 443
f 450 443 448
f 451 145 449
f 452 424 423
f 452 425 424
f 452 450 425
f 452 447 445
f 452 449 447
f 452 445 450
f 453 145 451
f 454 422 421
f 454 423 422
f 454 452 423
f 454 449 452
f 455 98 145
f 455 145 453
f 456 449 454
f 456 420 419
f 456 421 420
f 456 454 421
f 456 451 449
f 456 453 451
f 457 418 417
f 457 419 418
f 457 456 419
f 457 453 456
f 458 415 98
f 458 457 417
f 458 416 415
f 458 417 416
f 458 455 453
f 458 453 457
f 458 98 455
f 415 97 98
f 415 305 97
f 416 306 305
f 416 307 306
f 416 305 415
f 417 307 416
f 418 308 307
f 418 309 308
f 418 307 417
f 419 309 418
f 420 310 309
f 420 309 419
f 421 311 310
f 421 310 420
f 422 312 311
f 422 311 421
f 423 313 312
f 423 314 313
f 423 312 422
f 424 314 423
f 425 315 314
f 425 314 424
f 426 315 425
f 426 316 315
f 426 317 316
f 427 317 426
f 428 317 427
f 428 318 317
f 428 319 318
f 429 319 428
f 430 319 429
f 430 320 319
f 431 320 430
f 431 321 320
f 432 321 431
f 432 322 321
f 432 323 322
f 433 323 432
f 434 323 433
f 434 324 323
f 435 324 434
f 435 325 324
f 436 325 435
f 436 326 325
f 99 326 436
f 99 122 326
f 261 73 49
f 261 49 348
f 262 348 347
f 262 261 348
f 263 347 346
f 263 262 347
f 264 346 345
f 264 263 346
f 265 345 344
f 265 264 345
f 266 344 343
f 266 265 344
f 267 343 342
f 267 266 343
f 268 342 341
f 268 267 342
f 269 341 340
f 269 268 341
f 339 269 340
f 270 269 339
f 338 270 339
f 271 270 338
f 272 338 337
f 272 271 338
f 336 272 337
f 273 272 336
f 335 273 336
f 274 273 335
f 334 274 335
f 275 274 334
f 333 275 334
f 276 275 333
f 332 276 333
f 277 276 332
f 331 277 332
f 278 277 331
f 330 278 331
f 279 278 330
f 280 330 329
f 280 279 330
f 328 280 329
f 281 280 328
f 327 281 328
f 282 281 327
f 74 327 72
f 74 282 327
f 304 25 1
f 239 25 304
f 303 239 304
f 240 239 303
f 302 240 303
f 241 240 302
f 301 241 302
f 242 241 301
f 300 242 301
f 243 242 300
f 299 243 300
f 244 243 299
f 298 244 299
f 245 244 298
f 297 245 298
f 246 245 297
f 296 246 297
f 247 246 296
f 295 247 296
f 248 247 295
f 294 248 295
f 249 248 294
f 293 249 294
f 250 249 293
f 251 250 293
f 251 293 292
f 291 251 292
f 252 251 291
f 253 291 290
f 253 252 291
f 254 290 289
f 254 253 290
f 255 289 288
f 255 254 289
f 256 288 287
f 256 255 288
f 257 287 286
f 257 256 287
f 258 286 285
f 258 257 286
f 259 285 284
f 259 258 285
f 260 284 283
f 260 259 284
f 24 260 283
f 26 260 24

