# https://github.com/mikedh/trimesh
v 25.40011570 -7.45360144 -289.65485848
v 25.40000000 -23.40000000 -593.89259779
v 25.40000000 -23.40000000 593.89259779
v 25.40000000 37.60000000 593.89259779
v 25.40000000 37.60000000 -593.89259779
v 25.40016546 -9.70282155 -12.68784045
v -23.93275511 25.32773753 593.89259779
v -24.17837463 25.24231727 593.89259779
v -24.41083464 25.12575008 593.89259779
v -24.62620508 24.98000668 593.89259779
v -24.82084482 24.80755106 593.89259779
v -24.99146320 24.61129884 593.89259779
v -25.13517568 24.39456793 593.89259779
v -25.24955260 24.16102246 593.89259779
v -25.33266026 23.91461084 593.89259779
v -25.38309361 23.65949902 593.89259779
v -25.40000000 23.40000000 593.89259779
v -25.40000000 -23.40000000 593.89259779
v -25.38288972 -23.66105238 593.89259779
v -25.33185165 -23.91763809 593.89259779
v -25.24775907 -24.16536686 593.89259779
v -25.13205081 -24.40000000 593.89259779
v -24.98670668 -24.61752286 593.89259779
v -24.81421356 -24.81421356 593.89259779
v -24.61752286 -24.98670668 593.89259779
v -24.40000000 -25.13205081 593.89259779
v -24.16536686 -25.24775907 593.89259779
v -23.91763809 -25.33185165 593.89259779
v -23.66105238 -25.38288972 593.89259779
v -23.40000000 -25.40000000 593.89259779
v 23.40000000 -25.40000000 593.89259779
v 23.66105238 -25.38288972 593.89259779
v 23.91763809 -25.33185165 593.89259779
v 24.16536686 -25.24775907 593.89259779
v 24.40000000 -25.13205081 593.89259779
v 24.61752286 -24.98670668 593.89259779
v 24.81421356 -24.81421356 593.89259779
v 24.98670668 -24.61752286 593.89259779
v 25.13205081 -24.40000000 593.89259779
v 25.24775907 -24.16536686 593.89259779
v 25.33185165 -23.91763809 593.89259779
v 25.38288972 -23.66105238 593.89259779
v 25.39587917 37.66406129 593.89259779
v 25.38358460 37.72706664 593.89259779
v 25.36331896 37.78797750 593.89259779
v 25.33541628 37.84578988 593.89259779
v 25.30033649 37.89955082 593.89259779
v 25.25865783 37.94837417 593.89259779
v 25.21106730 37.99145515 593.89259779
v 25.15834934 38.02808366 593.89259779
v 25.10137294 38.05765592 593.89259779
v 25.04107723 38.07968450 593.89259779
v 24.97845611 38.09380628 593.89259779
v 24.91454176 38.09978849 593.89259779
v 24.84840515 38.09344807 593.89259779
v 24.78369308 38.07839483 593.89259779
v 18.92425824 38.09978849 -593.89259779
v 18.79772277 38.07968450 -593.89259779
v 18.86034389 38.09380628 -593.89259779
v -25.40000000 23.40000000 -593.89259779
v -25.38288972 23.66105238 -593.89259779
v -25.33185165 23.91763809 -593.89259779
v -25.24775907 24.16536686 -593.89259779
v -25.13205081 24.40000000 -593.89259779
v -24.98670668 24.61752286 -593.89259779
v -24.81421356 24.81421356 -593.89259779
v -24.61752286 24.98670668 -593.89259779
v -24.40000000 25.13205081 -593.89259779
v -24.16536686 25.24775907 -593.89259779
v -23.91763809 25.33185165 -593.89259779
v -25.40000000 -23.40000000 -593.89259779
v -23.40000000 -25.40000000 -593.89259779
v -23.66105238 -25.38288972 -593.89259779
v -23.91763809 -25.33185165 -593.89259779
v -24.16536686 -25.24775907 -593.89259779
v -24.40000000 -25.13205081 -593.89259779
v -24.61752286 -24.98670668 -593.89259779
v -24.81421356 -24.81421356 -593.89259779
v -24.98670668 -24.61752286 -593.89259779
v -25.13205081 -24.40000000 -593.89259779
v -25.24775907 -24.16536686 -593.89259779
v -25.33185165 -23.91763809 -593.89259779
v -25.38288972 -23.66105238 -593.89259779
v 23.40000000 -25.40000000 -593.89259779
v 25.38288972 -23.66105238 -593.89259779
v 25.33185165 -23.91763809 -593.89259779
v 25.24775907 -24.16536686 -593.89259779
v 25.13205081 -24.40000000 -593.89259779
v 24.98670668 -24.61752286 -593.89259779
v 24.81421356 -24.81421356 -593.89259779
v 24.61752286 -24.98670668 -593.89259779
v 24.40000000 -25.13205081 -593.89259779
v 24.16536686 -25.24775907 -593.89259779
v 23.91763809 -25.33185165 -593.89259779
v 23.66105238 -25.38288972 -593.89259779
v 24.91454176 38.09978849 -593.89259779
v 24.97845611 38.09380628 -593.89259779
v 25.04107723 38.07968450 -593.89259779
v 25.10137294 38.05765592 -593.89259779
v 25.15834934 38.02808366 -593.89259779
v 25.21106730 37.99145515 -593.89259779
v 25.25865783 37.94837417 -593.89259779
v 25.30033649 37.89955082 -593.89259779
v 25.33541628 37.84578988 -593.89259779
v 25.36331896 37.78797750 -593.89259779
v 25.38358460 37.72706664 -593.89259779
v 25.39587917 37.66406129 -593.89259779
v 18.91880000 38.09959984 570.49259779
v 18.84969206 38.09199571 570.49259779
v 18.78230702 38.07487887 570.49259779
v 18.92425824 38.09978849 570.49260110
f 4 3 6
f 5 4 6
f 6 3 2
f 7 110 58
f 1 2 5
f 1 5 6
f 6 2 1
f 11 66 65
f 110 7 56
f 68 67 9
f 70 7 58
f 14 63 62
f 68 9 8
f 10 9 67
f 10 67 66
f 10 66 11
f 60 17 16
f 16 61 60
f 64 63 13
f 63 14 13
f 54 111 108
f 108 55 54
f 108 111 57
f 57 59 108
f 68 8 69
f 69 8 7
f 7 70 69
f 62 61 15
f 61 16 15
f 15 14 62
f 12 65 64
f 64 13 12
f 11 65 12
f 55 108 109
f 56 55 109
f 110 56 109
f 109 108 59
f 109 59 58
f 58 110 109
f 60 71 17
f 17 71 18
f 30 84 31
f 72 84 30
f 96 57 111
f 54 96 111
f 53 97 96
f 53 96 54
f 51 50 100
f 100 99 51
f 3 42 85
f 85 2 3
f 36 35 91
f 91 35 92
f 47 103 102
f 102 48 47
f 104 46 45
f 45 105 104
f 104 47 46
f 103 47 104
f 107 43 4
f 4 5 107
f 31 84 32
f 84 95 32
f 93 35 34
f 92 35 93
f 101 49 48
f 101 48 102
f 50 49 101
f 101 100 50
f 97 53 98
f 53 52 98
f 51 99 98
f 98 52 51
f 86 85 41
f 41 85 42
f 87 40 39
f 87 39 88
f 87 41 40
f 86 41 87
f 37 91 90
f 36 91 37
f 39 38 89
f 88 39 89
f 38 37 89
f 89 37 90
f 18 71 19
f 71 83 19
f 80 22 21
f 80 21 81
f 23 22 80
f 80 79 23
f 24 79 78
f 23 79 24
f 25 24 77
f 77 24 78
f 44 105 45
f 44 106 105
f 43 107 44
f 107 106 44
f 94 32 95
f 94 33 32
f 94 93 34
f 34 33 94
f 72 30 73
f 30 29 73
f 81 21 20
f 20 82 81
f 20 19 83
f 83 82 20
f 3 4 26
f 26 42 3
f 26 35 36
f 31 32 26
f 26 41 42
f 26 10 11
f 48 49 26
f 7 8 26
f 26 22 23
f 26 53 54
f 4 43 26
f 26 30 31
f 26 50 51
f 51 52 26
f 45 46 26
f 26 17 18
f 26 16 17
f 34 35 26
f 26 49 50
f 26 29 30
f 26 56 7
f 54 55 26
f 23 24 26
f 11 12 26
f 14 15 26
f 26 33 34
f 26 47 48
f 26 52 53
f 26 55 56
f 26 8 9
f 9 10 26
f 39 40 26
f 26 38 39
f 46 47 26
f 36 37 26
f 21 22 26
f 18 19 26
f 27 28 26
f 26 13 14
f 40 41 26
f 26 37 38
f 26 15 16
f 26 44 45
f 32 33 26
f 26 20 21
f 26 24 25
f 26 12 13
f 43 44 26
f 19 20 26
f 26 28 29
f 26 76 75
f 26 75 27
f 25 77 26
f 77 76 26
f 58 59 74
f 74 71 60
f 74 80 81
f 60 61 74
f 74 83 71
f 74 63 64
f 78 79 74
f 102 103 74
f 5 2 74
f 2 85 74
f 92 93 74
f 74 67 68
f 64 65 74
f 74 57 96
f 96 97 74
f 97 98 74
f 74 104 105
f 74 107 5
f 74 84 72
f 66 67 74
f 74 65 66
f 62 63 74
f 74 101 102
f 74 70 58
f 68 69 74
f 74 87 88
f 74 91 92
f 74 61 62
f 105 106 74
f 74 95 84
f 74 59 57
f 99 100 74
f 74 85 86
f 90 91 74
f 103 104 74
f 88 89 74
f 74 77 78
f 81 82 74
f 74 94 95
f 100 101 74
f 74 98 99
f 74 69 70
f 86 87 74
f 74 89 90
f 74 106 107
f 79 80 74
f 72 73 74
f 74 82 83
f 93 94 74
f 75 76 74
f 74 76 77
f 74 28 27
f 27 75 74
f 74 73 29
f 29 28 74

