# https://github.com/mikedh/trimesh
v -44.33494986 80.94315939 -25.21338015
v 39.78495765 0.00000000 -71.26266087
v 42.94094482 0.01180814 -70.32577812
v -40.33057766 0.00004715 -71.21313564
v -71.26266087 0.00000000 -39.78495765
v -70.83963053 -0.01849458 -41.50299764
v -71.26266087 0.00000000 39.78495765
v -71.18958616 0.00005768 40.39062057
v 1.94366832 -0.00738993 73.03599493
v 40.31367059 0.00014287 71.20836428
v 71.26266087 0.00000000 39.78495765
v 71.17565100 0.00004554 40.42257082
v 71.06682256 0.00041295 -40.99600336
v -61.75981780 -0.08116434 54.08441888
v 55.60588694 0.01098911 -60.54757367
v 66.66278282 8.50288233 -46.43486142
v 58.31881649 0.01784717 58.31881659
v 40.19432353 8.49152764 70.43337200
v -44.59253579 8.26309146 -68.05796123
v -25.58850071 81.05377626 -44.23634521
v -44.14995435 81.55260731 25.48582507
v -24.90636435 82.53265000 42.39221753
v -42.39221753 82.53265000 -24.90636435
v 24.90636435 82.53265000 -42.39221753
v 34.80611712 82.66404399 -29.38608303
v 30.07909710 82.53265000 -38.89312290
v 42.39221753 82.53265000 24.90636435
v 24.90636435 82.53265000 42.39221753
v 38.89312290 82.53265000 30.07909710
v -33.25587822 82.66165439 -25.38582747
v -48.31743188 8.25749658 65.57764577
v -57.38859335 8.17431149 57.38859335
v -64.38471263 8.17431149 49.41163905
v -70.41149554 8.28670346 40.30157638
v -70.54750128 8.17431149 39.59373669
v -39.59373669 8.17431149 -70.54750128
v 39.98186722 8.28945649 -70.49956073
v -41.10016968 -0.06494148 71.30149386
v 70.54750128 8.17431149 -39.59373669
v -35.66570266 81.12311724 36.35375383
v 25.53155635 81.52614110 44.16438786
v -40.78963789 83.00105310 27.58582932
v -24.90636435 82.24861683 -43.41957231
v -24.90636435 82.37117061 -43.17951796
v -24.90636435 82.46033432 -42.92516515
v -24.90636435 82.51448862 -42.66113328
v -26.47106751 82.58092930 -41.39557306
v -25.17633601 82.46033432 -42.85172648
v -25.30518178 82.37117061 -43.07103019
v -25.42678448 82.24861683 -43.27800573
v -25.53893563 82.09489872 -43.46889413
v -25.63959842 81.91280802 -43.64022859
v -25.09221694 81.81321772 -44.06736301
v -42.85172648 82.46033432 -25.17633601
v -43.07103019 82.37117061 -25.30518178
v -43.27800573 82.24861683 -25.42678448
v -43.46889413 82.09489872 -25.53893563
v -42.96181898 81.03933540 -27.79693423
v -39.31470354 82.46033432 -30.40513842
v -39.51590571 82.37117061 -30.56074381
v -39.70579729 82.24861683 -30.70760183
v -39.88092957 82.09489872 -30.84304534
v -40.03812193 81.91280802 -30.96461450
v -40.17451952 81.70565175 -31.07010144
v -40.28764519 81.47719215 -31.15759037
v -35.32326334 82.37117061 -35.32326334
v -35.49300740 82.24861683 -35.49300740
v -35.64955813 82.09489872 -35.64955813
v -35.79007236 81.91280802 -35.79007236
v -35.91199815 81.70565175 -35.91199815
v -38.34345069 81.29512148 -33.80877477
v -33.80318752 81.03433265 -38.49214750
v -32.80858950 82.49736354 -37.26803627
v -30.56074381 82.37117061 -39.51590571
v -30.70760183 82.24861683 -39.70579729
v -30.84304534 82.09489872 -39.88092957
v -30.96461450 81.91280802 -40.03812193
v -31.07010144 81.70565175 -40.17451952
v -28.71359671 81.50114809 -42.16129731
v 24.90636435 81.23157836 -44.26611698
v 24.90636435 81.47719215 -44.15512425
v 24.90636435 81.91280802 -43.83968560
v 24.90636435 82.09489872 -43.64096848
v 24.90636435 82.24861683 -43.41957231
v 24.90636435 82.37117061 -43.17951796
v 24.90636435 82.46033432 -42.92516515
v 24.90636435 82.51448862 -42.66113328
v -42.66113328 82.51448862 -24.90636435
v -42.92516515 82.46033432 -24.90636435
v -43.17951796 82.37117061 -24.90636435
v -43.41957231 82.24861683 -24.90636435
v -43.64096848 82.09489872 -24.90636435
v -43.83968560 81.91280802 -24.90636435
v -44.01211471 81.70565175 -24.90636435
v -44.15512425 81.47719215 -24.90636435
v -44.26611698 81.23157836 -24.90636435
v -43.94275698 81.74691457 -25.67071273
v -42.64927991 82.51494202 -25.29150188
v 25.79938803 81.47719215 -43.91220069
v 25.63959842 81.91280802 -43.64022859
v 25.53893563 82.09489872 -43.46889413
v 25.42678448 82.24861683 -43.27800573
v 25.30518178 82.37117061 -43.07103019
v 25.17633601 82.46033432 -42.85172648
v 25.04258717 82.51448862 -42.62407745
v 25.38104169 81.76091297 -43.98326826
v -42.92516515 82.46033432 24.90636435
v -43.17951796 82.37117061 24.90636435
v -43.41957231 82.24861683 24.90636435
v -43.64096848 82.09489872 24.90636435
v -43.83968560 81.91280802 24.90636435
v -44.26611698 81.23157836 24.90636435
v 42.52802996 81.56575479 -28.20634677
v 43.27800573 82.24861683 -25.42678448
v 43.07103019 82.37117061 -25.30518178
v 42.85172648 82.46033432 -25.17633601
v 42.57566339 82.53021474 -25.15069797
v 30.24361167 82.51448862 -39.10584488
v 30.40513842 82.46033432 -39.31470354
v 30.56074381 82.37117061 -39.51590571
v 30.70760183 82.24861683 -39.70579729
v 30.84304534 82.09489872 -39.88092957
v 30.96461450 81.91280802 -40.03812193
v 31.07010144 81.70565175 -40.17451952
v 31.15759037 81.47719215 -40.28764519
v 34.95671002 82.51448862 -34.95671002
v 35.14340875 82.46033432 -35.14340875
v 35.32326334 82.37117061 -35.32326334
v 35.49300740 82.24861683 -35.49300740
v 35.64955813 82.09489872 -35.64955813
v 35.79007236 81.91280802 -35.79007236
v 35.91199815 81.70565175 -35.91199815
v 36.01312117 81.47719215 -36.01312117
v 39.31470354 82.46033432 -30.40513842
v 39.51590571 82.37117061 -30.56074381
v 39.70579729 82.24861683 -30.70760183
v 39.88092957 82.09489872 -30.84304534
v 40.03812193 81.91280802 -30.96461450
v 40.17451952 81.70565175 -31.07010144
v 44.26611698 81.23157836 -24.90636435
v 43.83968560 81.91280802 -24.90636435
v 43.64096848 82.09489872 -24.90636435
v 43.41957231 82.24861683 -24.90636435
v 43.17951796 82.37117061 -24.90636435
v 42.92516515 82.46033432 -24.90636435
v 42.66113328 82.51448862 -24.90636435
v 44.13238412 81.57116005 -25.53881248
v -25.64783977 82.47988654 43.26626537
v 44.26611698 81.23157836 24.90636435
v 44.15512425 81.47719215 24.90636435
v 44.01211471 81.70565175 24.90636435
v 43.83968560 81.91280802 24.90636435
v 43.64096848 82.09489872 24.90636435
v 43.41957231 82.24861683 24.90636435
v 43.17951796 82.37117061 24.90636435
v 42.92516515 82.46033432 24.90636435
v 42.66113328 82.51448862 24.90636435
v -24.90636435 81.91280802 43.83968560
v -24.90636435 81.70565175 44.01211471
v -24.90636435 81.47719215 44.15512425
v -24.90636435 81.23157836 44.26611698
v 44.00789893 81.23157836 25.85561286
v 43.91220069 81.47719215 25.79938803
v 43.46889413 82.09489872 25.53893563
v 43.27800573 82.24861683 25.42678448
v 43.07103019 82.37117061 25.30518178
v 42.85172648 82.46033432 25.17633601
v 42.62407745 82.51448862 25.04258717
v 42.76097797 82.49084223 25.07811682
v 43.94484824 81.80710762 25.43300711
v 24.90636435 82.51448862 42.66113328
v 24.90636435 82.46033432 42.92516515
v 24.90636435 82.37117061 43.17951796
v 24.90636435 82.24861683 43.41957231
v 24.90636435 82.09489872 43.64096848
v 24.90636435 81.91280802 43.83968560
v 26.72835436 81.60236044 43.36571139
v 25.42678448 82.24861683 43.27800573
v 25.30518178 82.37117061 43.07103019
v 25.17633601 82.46033432 42.85172648
v 25.04258717 82.51448862 42.62407745
v 39.10584488 82.51448862 30.24361167
v 39.31470354 82.46033432 30.40513842
v 39.51590571 82.37117061 30.56074381
v 39.70579729 82.24861683 30.70760183
v 39.88092957 82.09489872 30.84304534
v 40.03812193 81.91280802 30.96461450
v 40.17451952 81.70565175 31.07010144
v 40.28764519 81.47719215 31.15759037
v 40.37544440 81.23157836 31.22549238
v 34.95671002 82.51448862 34.95671002
v 35.14340875 82.46033432 35.14340875
v 35.32326334 82.37117061 35.32326334
v 35.49300740 82.24861683 35.49300740
v 35.64955813 82.09489872 35.64955813
v 35.79007236 81.91280802 35.79007236
v 35.91199815 81.70565175 35.91199815
v 36.01312117 81.47719215 36.01312117
v 30.24361167 82.51448862 39.10584488
v 30.40513842 82.46033432 39.31470354
v 30.56074381 82.37117061 39.51590571
v 30.70760183 82.24861683 39.70579729
v 30.84304534 82.09489872 39.88092957
v 31.07010144 81.70565175 40.17451952
v 31.15759037 81.47719215 40.28764519
v 31.22549238 81.23157836 40.37544440
v 40.39026907 8.44255079 -70.34198332
v -70.40133168 8.68184613 40.10659305
v 70.50597146 8.44062107 -39.59373669
v 70.42901133 8.69892836 -39.59373669
v 70.08170443 8.94454215 -40.47541425
v 70.40339011 8.62459041 -40.17803759
v 40.53092473 8.69892836 -70.17781880
v 49.33950004 8.69892836 -64.29071353
v 49.38635488 8.44062107 -64.35176666
v 57.30480831 8.69892836 -57.30480831
v 57.35922734 8.44062107 -57.35922734
v 64.29071353 8.69892836 -49.33950004
v 70.50597146 8.44062107 39.59373669
v 70.42901133 8.69892836 39.59373669
v 39.59373669 8.69892836 -70.42901133
v 39.59373669 8.44062107 -70.50597146
v 40.03344687 8.94127145 -70.28551553
v 70.32158707 8.34907715 40.47783023
v 70.17781880 8.69892836 40.53092473
v 70.48834288 8.41342191 39.95832547
v 70.08617509 9.31616090 40.06682342
v -39.59373669 8.94454215 -70.31801861
v -39.59373669 8.44062107 -70.50597146
v 40.47541425 8.94454215 70.08170443
v 64.29071353 8.69892836 49.33950004
v 64.35176666 8.44062107 49.38635488
v 57.30480831 8.69892836 57.30480831
v 57.35922734 8.44062107 57.35922734
v 49.33950004 8.69892836 64.29071353
v 44.97295046 8.59139049 67.65526220
v -40.53092473 8.69892836 -70.17781880
v -40.17023701 8.50458087 -70.43113576
v 39.59373669 8.69892836 70.42901133
v -64.29071353 8.69892836 -49.33950004
v -57.30480831 8.69892836 -57.30480831
v -57.22281483 -0.01616821 -59.39421724
v -49.33950004 8.69892836 -64.29071353
v -49.38635488 8.44062107 -64.35176666
v -39.59373669 8.44062107 70.50597146
v -39.59373669 8.94454215 70.31801861
v -70.42901133 8.69892836 -39.59373669
v -70.50597146 8.44062107 -39.59373669
v -70.30614948 8.29937235 -41.10480112
v -70.36377879 8.66903821 -40.21906992
v -40.14121046 8.74238115 70.35885791
v -45.65327099 8.50579059 67.23185197
v -70.42901133 8.69892836 39.59373669
v -70.50597146 8.44062107 39.59373669
v -70.24446257 8.44062107 40.56941458
v -70.17781880 8.69892836 40.53092473
v -57.30480831 8.69892836 57.30480831
v -64.29071353 8.69892836 49.33950004
v -64.35176666 8.44062107 49.38635488
v 0.86652043 -0.67668611 -63.95616502
v -63.71735216 -0.60465822 -0.97900446
v 7.78918392 -2.24049188 19.11921453
f 262 8 261
f 14 262 38
f 14 8 262
f 17 10 262
f 38 262 9
f 262 10 9
f 6 261 5
f 262 261 6
f 2 260 4
f 1 96 97
f 2 4 36
f 36 4 238
f 53 221 229
f 229 36 238
f 5 261 7
f 7 261 8
f 40 258 257
f 21 258 40
f 42 21 40
f 97 96 95
f 96 21 95
f 251 252 38
f 10 17 236
f 249 6 5
f 112 21 96
f 112 253 21
f 2 36 222
f 222 229 221
f 36 229 222
f 228 238 53
f 53 229 228
f 228 229 238
f 80 221 53
f 11 262 13
f 262 6 242
f 242 260 262
f 242 4 260
f 5 7 35
f 35 8 34
f 35 7 8
f 256 258 21
f 34 8 255
f 38 252 31
f 31 40 257
f 31 14 38
f 257 32 31
f 31 32 14
f 97 95 94
f 94 95 21
f 107 108 42
f 109 21 42
f 42 108 109
f 12 262 11
f 12 17 262
f 9 239 245
f 38 9 245
f 245 251 38
f 14 32 33
f 8 14 33
f 33 255 8
f 250 1 97
f 97 249 250
f 96 1 250
f 66 60 59
f 30 23 42
f 42 47 30
f 30 47 23
f 11 13 39
f 39 13 212
f 37 222 221
f 2 222 37
f 53 238 20
f 20 79 53
f 237 20 238
f 53 79 52
f 244 242 241
f 6 249 240
f 240 242 6
f 241 242 240
f 208 256 21
f 21 253 208
f 34 255 208
f 208 255 256
f 208 35 34
f 40 31 148
f 148 31 252
f 42 40 148
f 148 251 160
f 252 251 148
f 17 12 232
f 232 234 17
f 231 234 232
f 160 251 161
f 161 41 160
f 161 245 239
f 239 41 161
f 259 32 257
f 259 33 32
f 257 258 259
f 255 33 259
f 258 256 259
f 256 255 259
f 235 236 17
f 17 234 235
f 236 41 230
f 236 235 206
f 28 29 42
f 96 250 247
f 55 91 90
f 23 47 98
f 60 55 98
f 98 59 60
f 42 23 98
f 66 59 73
f 73 98 47
f 59 98 73
f 25 47 42
f 81 80 53
f 53 106 81
f 81 106 80
f 209 39 212
f 212 210 209
f 147 210 212
f 2 37 3
f 3 260 2
f 262 260 3
f 71 72 241
f 241 240 71
f 240 65 71
f 241 72 243
f 243 244 241
f 243 72 79
f 224 232 12
f 251 245 246
f 246 161 251
f 245 161 246
f 10 236 18
f 236 230 18
f 18 9 10
f 18 239 9
f 18 41 239
f 18 230 41
f 233 235 234
f 233 206 235
f 233 198 206
f 233 234 231
f 176 158 41
f 148 158 176
f 22 28 42
f 42 148 22
f 148 28 22
f 5 35 248
f 248 249 5
f 248 250 249
f 248 247 250
f 93 94 21
f 21 111 93
f 97 94 93
f 97 91 56
f 56 91 55
f 56 55 60
f 60 61 56
f 55 90 54
f 54 98 55
f 89 107 42
f 98 54 89
f 89 54 90
f 62 63 97
f 47 25 24
f 24 46 47
f 42 29 27
f 27 25 42
f 106 99 213
f 99 214 213
f 100 106 101
f 140 147 149
f 210 147 140
f 25 27 117
f 212 13 16
f 15 16 13
f 15 13 262
f 262 3 15
f 72 71 70
f 79 72 78
f 78 77 79
f 72 70 78
f 79 77 76
f 58 240 249
f 58 65 240
f 58 249 97
f 97 65 58
f 63 71 64
f 64 71 65
f 97 63 64
f 64 65 97
f 244 243 19
f 19 243 79
f 238 4 19
f 19 237 238
f 4 242 19
f 242 244 19
f 79 20 19
f 20 237 19
f 160 41 159
f 41 158 159
f 159 148 160
f 159 158 148
f 226 224 12
f 226 12 11
f 220 149 226
f 149 170 226
f 231 232 225
f 232 224 225
f 224 226 225
f 190 233 231
f 189 198 190
f 198 233 190
f 177 41 236
f 236 206 177
f 254 248 35
f 254 208 253
f 35 208 254
f 21 109 110
f 110 111 21
f 42 98 88
f 88 89 42
f 98 89 88
f 57 56 61
f 61 62 57
f 97 56 57
f 57 62 97
f 68 62 61
f 63 62 68
f 68 76 77
f 106 213 223
f 223 37 221
f 221 80 223
f 80 106 223
f 215 213 214
f 215 15 3
f 53 84 83
f 83 101 106
f 102 101 83
f 83 84 102
f 187 170 186
f 211 147 212
f 212 16 211
f 149 147 150
f 150 170 149
f 11 39 219
f 219 226 11
f 39 209 219
f 220 226 219
f 227 226 170
f 170 225 227
f 227 225 226
f 231 225 162
f 162 190 231
f 162 225 170
f 189 190 162
f 206 198 205
f 198 204 205
f 205 177 206
f 204 177 205
f 200 199 180
f 92 91 97
f 97 93 92
f 67 68 61
f 67 60 66
f 67 61 60
f 66 73 67
f 69 71 63
f 63 68 69
f 69 70 71
f 69 68 77
f 77 78 69
f 69 78 70
f 16 15 218
f 147 211 113
f 113 211 16
f 16 218 113
f 37 223 207
f 207 223 213
f 207 3 37
f 207 215 3
f 213 215 207
f 15 215 217
f 216 218 217
f 217 218 15
f 217 214 216
f 217 215 214
f 82 106 53
f 53 83 82
f 82 83 106
f 184 167 183
f 184 194 185
f 184 193 194
f 182 27 29
f 141 170 147
f 104 85 86
f 147 170 151
f 151 150 147
f 170 150 151
f 51 52 79
f 79 76 51
f 53 52 51
f 51 50 53
f 74 73 47
f 53 50 43
f 43 84 53
f 163 170 189
f 189 162 163
f 163 162 170
f 191 182 29
f 29 28 191
f 28 199 191
f 197 204 198
f 197 196 204
f 200 180 201
f 201 180 179
f 194 193 201
f 201 202 194
f 194 202 195
f 195 186 185
f 185 194 195
f 195 187 186
f 195 196 187
f 203 177 204
f 203 195 202
f 204 196 203
f 196 195 203
f 181 199 28
f 181 180 199
f 148 176 175
f 175 174 148
f 175 176 41
f 179 180 173
f 173 174 179
f 148 174 173
f 121 101 102
f 121 122 101
f 130 122 121
f 100 101 123
f 101 122 123
f 123 106 100
f 123 122 130
f 27 182 168
f 183 167 169
f 169 182 183
f 169 168 182
f 169 167 156
f 146 145 117
f 156 167 155
f 170 154 165
f 165 184 185
f 142 141 147
f 50 74 49
f 44 43 49
f 49 43 50
f 75 74 50
f 75 51 76
f 50 51 75
f 76 68 75
f 68 67 75
f 75 67 73
f 73 74 75
f 192 199 200
f 192 191 199
f 200 201 192
f 192 201 193
f 192 184 183
f 193 184 192
f 183 182 192
f 182 191 192
f 187 196 188
f 196 197 188
f 189 170 188
f 170 187 188
f 188 198 189
f 188 197 198
f 171 28 148
f 171 181 28
f 180 181 171
f 179 174 178
f 174 175 178
f 178 175 41
f 41 177 178
f 177 203 178
f 178 203 202
f 178 201 179
f 202 201 178
f 139 113 218
f 120 121 102
f 106 123 124
f 157 169 156
f 157 146 117
f 168 169 157
f 157 117 27
f 27 168 157
f 186 170 164
f 170 165 164
f 185 186 164
f 164 165 185
f 154 155 166
f 166 165 154
f 166 155 167
f 167 184 166
f 184 165 166
f 153 154 170
f 46 24 87
f 24 105 87
f 87 104 86
f 87 105 104
f 25 117 126
f 117 134 126
f 45 44 48
f 44 49 48
f 48 46 45
f 47 46 48
f 48 74 47
f 48 49 74
f 172 173 180
f 180 171 172
f 148 173 172
f 172 171 148
f 113 139 138
f 103 120 102
f 104 120 103
f 85 104 103
f 84 85 103
f 102 84 103
f 119 120 104
f 125 99 106
f 106 124 125
f 125 214 99
f 216 214 125
f 136 135 114
f 147 113 114
f 143 142 114
f 114 142 147
f 170 141 152
f 152 153 170
f 26 24 25
f 25 126 26
f 113 138 137
f 137 114 113
f 136 114 137
f 130 136 137
f 137 138 130
f 104 105 118
f 118 119 104
f 118 105 24
f 24 26 118
f 118 26 126
f 131 124 123
f 131 132 124
f 131 123 130
f 130 138 131
f 131 138 139
f 139 132 131
f 216 125 133
f 133 132 139
f 133 125 124
f 124 132 133
f 133 218 216
f 133 139 218
f 115 114 135
f 115 144 143
f 143 114 115
f 130 121 129
f 129 136 130
f 121 120 129
f 120 128 129
f 129 135 136
f 129 128 135
f 120 119 127
f 127 128 120
f 127 118 126
f 119 118 127
f 127 126 134
f 134 135 127
f 135 128 127
f 116 135 134
f 116 115 135
f 116 134 117
f 117 145 116
f 145 144 116
f 144 115 116
f 253 112 247
f 247 112 96
f 90 91 109
f 90 109 108
f 89 90 108
f 108 107 89
f 220 210 140
f 140 149 220
f 253 247 254
f 247 248 254
f 219 210 220
f 219 209 210
f 109 91 92
f 92 110 109
f 92 93 111
f 111 110 92
f 86 85 44
f 44 45 86
f 43 44 85
f 43 85 84
f 145 146 157
f 156 145 157
f 144 155 154
f 144 154 143
f 144 145 156
f 156 155 144
f 143 154 153
f 153 142 143
f 86 45 87
f 45 46 87
f 142 153 152
f 141 142 152

