# https://github.com/mikedh/trimesh
v 25.40089915 -7.89144919 13.61011485
v 25.40000000 37.60000000 593.89259779
v 25.40000000 37.60000000 -593.89259779
v 25.40000000 -23.40000000 -593.89259779
v 25.40000000 -23.40000000 593.89259779
v -25.40000000 23.40000000 -593.89259779
v -25.38309361 23.65949902 -593.89259779
v -25.33266026 23.91461084 -593.89259779
v -25.24955260 24.16102246 -593.89259779
v -25.13517568 24.39456793 -593.89259779
v -24.99146320 24.61129884 -593.89259779
v -24.82084482 24.80755106 -593.89259779
v -24.62620508 24.98000668 -593.89259779
v -24.41083464 25.12575008 -593.89259779
v -24.17837463 25.24231727 -593.89259779
v -23.93275511 25.32773753 -593.89259779
v -25.40000000 -23.40000000 -593.89259779
v -23.40000000 -25.40000000 -593.89259779
v -23.66105238 -25.38288972 -593.89259779
v -23.91763809 -25.33185165 -593.89259779
v -24.16536686 -25.24775907 -593.89259779
v -24.40000000 -25.13205081 -593.89259779
v -24.61752286 -24.98670668 -593.89259779
v -24.81421356 -24.81421356 -593.89259779
v -24.98670668 -24.61752286 -593.89259779
v -25.13205081 -24.40000000 -593.89259779
v -25.24775907 -24.16536686 -593.89259779
v -25.33185165 -23.91763809 -593.89259779
v -25.38288972 -23.66105238 -593.89259779
v 23.40000000 -25.40000000 -593.89259779
v 25.38288972 -23.66105238 -593.89259779
v 25.33185165 -23.91763809 -593.89259779
v 25.24775907 -24.16536686 -593.89259779
v 25.13205081 -24.40000000 -593.89259779
v 24.98670668 -24.61752286 -593.89259779
v 24.81421356 -24.81421356 -593.89259779
v 24.61752286 -24.98670668 -593.89259779
v 24.40000000 -25.13205081 -593.89259779
v 24.16536686 -25.24775907 -593.89259779
v 23.91763809 -25.33185165 -593.89259779
v 23.66105238 -25.38288972 -593.89259779
v 24.91454176 38.09978849 -593.89259779
v 24.97845611 38.09380628 -593.89259779
v 25.04107723 38.07968450 -593.89259779
v 25.10137294 38.05765592 -593.89259779
v 25.15834934 38.02808366 -593.89259779
v 25.21106730 37.99145515 -593.89259779
v 25.25865783 37.94837417 -593.89259779
v 25.30033649 37.89955082 -593.89259779
v 25.33541628 37.84578988 -593.89259779
v 25.36331896 37.78797750 -593.89259779
v 25.38358460 37.72706664 -593.89259779
v 25.39587917 37.66406129 -593.89259779
v 24.78369308 38.07839483 -593.89259779
v 24.84840515 38.09344807 -593.89259779
v 18.92425824 38.09978849 593.89259779
v 18.86034389 38.09380628 593.89259779
v 18.79772277 38.07968450 593.89259779
v -23.91763809 25.33185165 593.89259779
v -24.16536686 25.24775907 593.89259779
v -24.40000000 25.13205081 593.89259779
v -24.61752286 24.98670668 593.89259779
v -24.81421356 24.81421356 593.89259779
v -24.98670668 24.61752286 593.89259779
v -25.13205081 24.40000000 593.89259779
v -25.24775907 24.16536686 593.89259779
v -25.33185165 23.91763809 593.89259779
v -25.38288972 23.66105238 593.89259779
v -25.40000000 23.40000000 593.89259779
v -25.40000000 -23.40000000 593.89259779
v -25.38288972 -23.66105238 593.89259779
v -25.33185165 -23.91763809 593.89259779
v -25.24775907 -24.16536686 593.89259779
v -25.13205081 -24.40000000 593.89259779
v -24.98670668 -24.61752286 593.89259779
v -24.81421356 -24.81421356 593.89259779
v -24.61752286 -24.98670668 593.89259779
v -24.40000000 -25.13205081 593.89259779
v -24.16536686 -25.24775907 593.89259779
v -23.91763809 -25.33185165 593.89259779
v -23.66105238 -25.38288972 593.89259779
v -23.40000000 -25.40000000 593.89259779
v 23.40000000 -25.40000000 593.89259779
v 23.66105238 -25.38288972 593.89259779
v 23.91763809 -25.33185165 593.89259779
v 24.16536686 -25.24775907 593.89259779
v 24.40000000 -25.13205081 593.89259779
v 24.61752286 -24.98670668 593.89259779
v 24.81421356 -24.81421356 593.89259779
v 24.98670668 -24.61752286 593.89259779
v 25.13205081 -24.40000000 593.89259779
v 25.24775907 -24.16536686 593.89259779
v 25.33185165 -23.91763809 593.89259779
v 25.38288972 -23.66105238 593.89259779
v 25.39587917 37.66406129 593.89259779
v 25.38358460 37.72706664 593.89259779
v 25.36331896 37.78797750 593.89259779
v 25.33541628 37.84578988 593.89259779
v 25.30033649 37.89955082 593.89259779
v 25.25865783 37.94837417 593.89259779
v 25.21106730 37.99145515 593.89259779
v 25.15834934 38.02808366 593.89259779
v 25.10137294 38.05765592 593.89259779
v 25.04107723 38.07968450 593.89259779
v 24.97845611 38.09380628 593.89259779
v 24.91454176 38.09978849 593.89259779
v 18.78230702 38.07487887 -570.49259779
v 18.84969206 38.09199571 -570.49259779
v 18.91880000 38.09959984 -570.49259779
v 18.92425824 38.09978849 -570.49260110
f 1 2 5
f 1 5 4
f 1 4 3
f 3 2 1
f 58 16 59
f 107 16 58
f 16 107 54
f 63 13 12
f 12 64 63
f 11 64 12
f 14 13 62
f 62 61 14
f 62 13 63
f 14 61 15
f 65 64 11
f 7 6 69
f 66 65 10
f 10 65 11
f 60 15 61
f 16 15 60
f 60 59 16
f 109 110 42
f 42 55 109
f 109 57 56
f 56 110 109
f 108 55 54
f 108 54 107
f 108 109 55
f 57 109 108
f 58 57 108
f 108 107 58
f 68 7 69
f 8 7 68
f 68 67 8
f 66 10 9
f 9 67 66
f 8 67 9
f 91 90 34
f 34 90 35
f 70 69 6
f 6 17 70
f 110 56 106
f 110 106 42
f 88 38 37
f 87 38 88
f 36 90 89
f 35 90 36
f 89 88 36
f 36 88 37
f 41 84 83
f 41 83 30
f 39 38 86
f 86 38 87
f 82 18 30
f 30 83 82
f 92 34 33
f 91 34 92
f 81 19 18
f 18 82 81
f 93 92 32
f 32 92 33
f 94 31 4
f 94 4 5
f 94 32 31
f 93 32 94
f 42 106 105
f 105 43 42
f 44 43 105
f 104 44 105
f 98 51 50
f 98 97 51
f 3 53 95
f 2 3 95
f 99 98 49
f 49 98 50
f 84 41 85
f 41 40 85
f 39 86 85
f 85 40 39
f 21 20 80
f 80 79 21
f 80 20 19
f 19 81 80
f 103 45 44
f 103 44 104
f 46 45 103
f 103 102 46
f 47 46 101
f 46 102 101
f 70 17 29
f 29 71 70
f 72 71 29
f 29 28 72
f 74 73 27
f 27 26 74
f 27 73 72
f 72 28 27
f 52 51 96
f 51 97 96
f 96 53 52
f 96 95 53
f 100 49 48
f 99 49 100
f 100 48 47
f 47 101 100
f 21 79 22
f 79 78 22
f 22 78 77
f 77 23 22
f 76 5 2
f 63 64 76
f 76 57 58
f 76 62 63
f 84 85 76
f 76 90 91
f 91 92 76
f 59 60 76
f 76 86 87
f 87 88 76
f 106 56 76
f 79 80 76
f 76 69 70
f 58 59 76
f 76 68 69
f 83 84 76
f 89 90 76
f 76 98 99
f 76 65 66
f 76 101 102
f 56 57 76
f 76 94 5
f 76 88 89
f 2 95 76
f 76 82 83
f 76 92 93
f 76 105 106
f 61 62 76
f 76 78 79
f 70 71 76
f 76 73 74
f 76 81 82
f 93 94 76
f 76 103 104
f 104 105 76
f 64 65 76
f 66 67 76
f 76 60 61
f 76 71 72
f 72 73 76
f 97 98 76
f 74 75 76
f 76 85 86
f 76 80 81
f 102 103 76
f 76 96 97
f 67 68 76
f 77 78 76
f 99 100 76
f 95 96 76
f 76 100 101
f 25 75 74
f 74 26 25
f 52 53 24
f 24 38 39
f 6 7 24
f 24 34 35
f 24 15 16
f 24 3 4
f 24 41 30
f 24 46 47
f 42 43 24
f 24 55 42
f 35 36 24
f 39 40 24
f 11 12 24
f 24 10 11
f 24 53 3
f 24 51 52
f 30 18 24
f 33 34 24
f 4 31 24
f 17 6 24
f 24 13 14
f 16 54 24
f 26 27 24
f 50 51 24
f 37 38 24
f 24 36 37
f 47 48 24
f 18 19 24
f 24 20 21
f 24 32 33
f 24 43 44
f 44 45 24
f 24 12 13
f 14 15 24
f 54 55 24
f 8 9 24
f 24 40 41
f 19 20 24
f 31 32 24
f 24 45 46
f 24 7 8
f 24 49 50
f 21 22 24
f 24 29 17
f 48 49 24
f 24 9 10
f 28 29 24
f 24 27 28
f 24 22 23
f 24 25 26
f 24 23 77
f 77 76 24
f 24 76 75
f 75 25 24

