# https://github.com/mikedh/trimesh
v 2.08365233 -0.00664404 2.20801773
v -0.94794987 1.83778519 2.20949328
v 0.00000000 2.10500923 2.19823481
v 1.63073865 1.30655190 2.20559722
v -2.01188040 0.53976333 2.20721691
v -1.05250461 1.82299147 2.19823481
v -0.52942125 2.02820711 2.20338517
v -2.08365233 0.00664404 2.20801773
v -2.06191234 0.27242865 2.20786798
v -1.92216402 0.79950073 2.20726955
v -1.80380097 1.04516780 2.20675384
v -1.65369664 1.26861729 2.20691861
v -1.46638338 1.47887743 2.20719515
v -1.26933870 1.66723752 2.20318143
v -1.09244499 1.77702387 2.20757669
v -0.74015998 1.95414074 2.20652415
v -0.31416295 2.06428778 2.20710615
v -0.10159340 2.08034693 2.20762686
v 0.24699152 2.07401979 2.20683087
v 0.50811473 2.02519427 2.20688023
v 0.79247549 1.94095974 2.20319906
v 0.82450125 1.90604148 2.20880316
v 1.03654342 1.82248871 2.20305866
v 1.22036296 1.70345374 2.20401469
v 1.22032093 1.68433059 2.20799213
v 1.43832313 1.51366240 2.20592130
v 1.78878346 1.07754930 2.20591185
v 1.91636554 0.82560752 2.20615436
v 2.01060011 0.55977062 2.20612976
v 2.06537796 0.28235599 2.20650306
v 3.94826776 0.00000000 0.35368436
v 3.91448978 0.51535236 0.35368436
v 3.13237141 2.40355312 0.35368436
v 2.77772605 2.82034797 0.33404260
v 2.40513753 3.13602151 0.34649474
v 1.03191326 3.82150180 0.33287177
v 3.95472739 0.00000000 0.33872895
v 3.95867304 0.00000000 0.32292316
v 3.96000000 0.00000000 0.30668646
v -3.96000000 0.00000000 0.30668646
v -3.92311635 0.53921993 0.30668646
v -3.82346530 1.02797486 0.32677543
v -3.65310528 1.52917466 0.32325449
v -3.38350084 2.05755244 0.30668646
v -3.07181671 2.49910826 0.30668646
v -2.70291045 2.89411042 0.30668646
v -2.28365408 3.23520078 0.30668646
v 0.26786848 3.95190346 0.31397019
v 1.32378200 3.73316989 0.31410095
v 1.81968550 3.51814790 0.31425691
v 2.28174948 3.23755611 0.31448979
v 2.70291045 2.89411042 0.30668646
v 3.07181671 2.49910826 0.30668646
v -3.94826776 0.00000000 0.35368436
v -3.95472739 0.00000000 0.33872895
v -3.95867304 0.00000000 0.32292316
v -0.51198832 3.92523801 0.33264977
v -1.03191326 3.82150180 0.33287177
v -1.51174599 3.65840521 0.33236222
v -3.91448978 0.51535236 0.35368436
v -3.92089415 0.51619551 0.33872895
v -3.92480605 0.51671052 0.32292316
v -3.42718061 1.97863730 0.33343085
v -3.14038460 2.40902814 0.33144824
v -2.80034161 2.79694286 0.33282559
v -2.38051699 3.16444446 0.32971118
v -1.98229160 3.42604879 0.33344271
v -1.82158553 3.51725135 0.31421614
v -1.32578613 3.73237186 0.31422818
v -0.80553241 3.87826164 0.31394545
v -0.27016249 3.95165818 0.31407165
v -0.00000000 3.95851902 0.33209901
v 0.51198832 3.92523801 0.33264977
v 0.80327948 3.87864920 0.31400819
v 1.51174599 3.65840521 0.33236222
v 1.98229160 3.42604879 0.33344271
v 2.40988746 3.14062648 0.32292316
v 2.79920455 2.79920455 0.32292316
v 3.07078738 2.49827083 0.32292316
v 3.38912101 2.04304977 0.33588047
v 3.63342531 1.56653712 0.33643519
v 3.81089513 1.06471805 0.33665037
v 3.92186676 0.54041018 0.32393512
v -3.86199039 0.21716427 -0.00001703
v -3.64788371 1.29645817 -0.00002900
v -2.85872100 2.60569516 -0.00002384
v -2.01153487 3.30782813 -0.00002417
v -0.52716192 3.83538783 -0.00002071
v 0.99836725 3.73702996 -0.00001703
v 2.01153487 3.30782813 -0.00002417
v 3.13283072 2.26879257 -0.00001986
v 3.62876978 1.33943194 -0.00001986
v 3.86240857 0.26419599 -0.00002417
v -3.91000000 0.00000000 0.01339746
v -3.95430393 -0.00867239 0.06372492
v 3.96000000 0.00000000 0.10000000
v 3.81315246 1.06839521 0.10000000
v 3.38350084 2.05755244 0.10000000
v 2.69467010 2.89359269 0.06155512
v 2.28365408 3.23520078 0.10000000
v 1.32612326 3.73135325 0.10000000
v 0.27023996 3.95076833 0.10000000
v -0.80568581 3.87717299 0.10000000
v -1.82185755 3.51602546 0.10000000
v -2.69584704 2.89078747 0.05974362
v -3.06591327 2.49848673 0.06334114
v -3.38131739 2.04958979 0.06155511
v -3.62435425 1.57743455 0.05974362
v -3.80819114 1.06700511 0.06200810
v -3.92311635 0.53921993 0.10000000
v 3.91000000 0.00000000 0.01339746
v 3.94660254 0.00000000 0.05000000
v 3.87358205 0.53241160 0.01339746
v 3.91632827 0.53536561 0.05974362
v 3.76500659 1.05490538 0.01339746
v 3.80025181 1.06478062 0.05000000
v 3.58629619 1.55774826 0.01339746
v 3.62743092 1.57561560 0.06200810
v 3.34077987 2.03157324 0.01339746
v 3.37205379 2.05059134 0.05000000
v 3.03303115 2.46755386 0.01339746
v 3.06358262 2.49971741 0.06155511
v 2.64723564 2.86092472 0.00583850
v 2.25482006 3.19435228 0.01339746
v 2.27592802 3.22425546 0.05000000
v 1.79885430 3.47163120 0.01339746
v 1.80847981 3.51617933 0.06184813
v 1.30937928 3.68424021 0.01339746
v 1.32163673 3.71872935 0.05000000
v 0.79551301 3.82821878 0.01339746
v 0.79606278 3.87284484 0.06048894
v 0.26623493 3.89221696 0.00743822
v 0.26932568 3.93740210 0.05000000
v -0.26682784 3.90088489 0.01339746
v -0.26685786 3.94373305 0.05974362
v -0.79551301 3.82821878 0.01339746
v -0.80296002 3.86405575 0.05000000
v -1.32227220 3.66665284 0.00583850
v -1.32096849 3.72549134 0.05974361
v -1.79885430 3.47163120 0.01339746
v -1.81569385 3.50413006 0.05000000
v -2.25482006 3.19435228 0.01339746
v -2.28745435 3.22554606 0.06372493
v -2.66878279 2.85756862 0.01339746
v -3.03303115 2.46755386 0.01339746
v -3.33954763 2.00713100 0.00491428
v -3.58629619 1.55774826 0.01339746
v -3.76500659 1.05490538 0.01339746
v -3.87358205 0.53241160 0.01339746
v -3.90984367 0.53739564 0.05000000
v -1.59127509 0.56660336 -12.69885612
v -0.59177154 1.57873351 -12.69877816
v -0.22757843 1.65575605 -12.70000405
v 0.53408103 1.58877190 -12.70001577
v 1.11979383 1.25597737 -12.69942273
v 1.35242778 0.97942666 -12.70000888
v 1.58197833 0.58524191 -12.69928526
v 1.66739581 0.11405299 -12.70000810
v -1.70452919 0.00000000 -12.69541957
v -1.58082164 0.68366292 -12.68338364
v -1.65918987 0.46204008 -12.68338365
v 1.70935677 0.04754438 -12.69294698
v 1.70590497 0.23723468 -12.68338364
v 1.65771263 0.46731242 -12.68338365
v 1.57864023 0.68868503 -12.68338364
v 1.43608237 0.92758049 -12.69322667
v 1.33429497 1.08905876 -12.68338364
v 1.17357380 1.26060168 -12.68338364
v 0.80345074 1.50822372 -12.69342227
v 0.99099116 1.40866198 -12.68338365
v 0.52762949 1.62658175 -12.69294698
v 0.34773585 1.68685263 -12.68338365
v 0.11480392 1.71849123 -12.68338364
v -0.12026656 1.71811758 -12.68338364
v -0.11034407 1.69300064 -12.69784760
v -0.35392163 1.68518450 -12.68369746
v -0.58044996 1.62237782 -12.68271824
v -0.82493366 1.49668114 -12.69343105
v -0.98943524 1.40986336 -12.68329346
v -1.14555108 1.23273074 -12.69935084
v -1.17219596 1.26200373 -12.68329345
v -1.33607316 1.08825523 -12.68288641
v -1.39317650 0.96242307 -12.69741865
v -1.47300567 0.89255045 -12.68338365
v -1.66894393 0.22939107 -12.69862323
v -1.70640465 0.23084742 -12.68369745
v 2.08280000 0.00000000 -12.28357864
v 2.06340069 0.28360790 -12.28357864
v 2.00556413 0.56193271 -12.28357864
v 1.90868357 0.82905828 -12.30445811
v 1.77958474 1.08218945 -12.28357864
v 1.61565148 1.31442997 -12.28357864
v 1.42162169 1.52218515 -12.28357864
v 1.20110977 1.70158489 -12.28357864
v 0.95822346 1.84928733 -12.28357864
v 0.69748726 1.96254105 -12.28357864
v 0.42375818 2.03923634 -12.28357864
v 0.14213530 2.07794451 -12.28357864
v -0.14213530 2.07794451 -12.28357864
v -0.42375818 2.03923634 -12.28357864
v -0.69748726 1.96254105 -12.28357864
v -0.95822346 1.84928733 -12.28357864
v -1.20110977 1.70158489 -12.28357864
v -1.42162169 1.52218515 -12.28357864
v -1.61565148 1.31442997 -12.28357864
v -1.77958474 1.08218945 -12.28357864
v -1.91036770 0.82978979 -12.28357864
v -2.00556413 0.56193271 -12.28357864
v -2.06340069 0.28360790 -12.28357864
v -2.08280000 0.00000000 -12.28357864
v 2.07939258 0.00000000 -12.30946055
v 2.06548323 -0.00206814 -12.34034235
v -2.05351068 0.00000000 -12.35428932
v -0.41779910 2.01055963 -12.35428932
v 0.14281147 2.06152770 -12.33920032
v 1.40163017 1.50077946 -12.35428932
v 1.76656264 1.07216979 -12.33920031
v 1.89530852 0.82099386 -12.34034233
v 1.98969889 0.55676839 -12.33960486
v 2.03438417 0.27961967 -12.35428932
v -2.07563430 -0.00000001 -12.32203904
v -2.05428954 0.28139643 -12.32966584
v -2.00228306 0.56101340 -12.30946055
v -1.98932526 0.55810189 -12.33960487
v -1.90219107 0.82520218 -12.32966585
v -1.77210895 1.07653116 -12.32966586
v -1.61300830 1.31227959 -12.30946055
v -1.60383197 1.30332877 -12.33864592
v -1.41929594 1.51969488 -12.30946055
v -1.41256511 1.50767570 -12.33971176
v -1.19914478 1.69880114 -12.30946055
v -1.19315759 1.68720671 -12.33920034
v -0.95665583 1.84626194 -12.30946055
v -0.95003429 1.83348294 -12.34117636
v -0.69634618 1.95933037 -12.30946055
v -0.69125229 1.94706523 -12.33960487
v -0.42695876 2.03151914 -12.32219029
v -0.14190277 2.07454504 -12.30946055
v -0.14030687 2.06136041 -12.33960485
v 0.14190277 2.07454504 -12.30946055
v 0.42306492 2.03590019 -12.30946055
v 0.42225987 2.02186100 -12.34034235
v 0.69634618 1.95933037 -12.30946055
v 0.69255719 1.94660147 -12.33960487
v 0.95665583 1.84626194 -12.30946055
v 0.95230317 1.83396026 -12.33920033
v 1.19914478 1.69880114 -12.30946055
v 1.19281314 1.68624495 -12.34034236
v 1.41347124 1.52034958 -12.32219030
v 1.61300830 1.31227959 -12.30946055
v 1.60352386 1.30189731 -12.34034233
v 1.77667337 1.08041901 -12.30946055
v 2.00228306 0.56101340 -12.30946055
v 2.05684948 0.28270745 -12.32226605
v -1.19952316 -0.04726919 0.66300014
v -1.23893677 -0.25466135 0.66300005
v -1.32566357 -0.43840830 0.66299959
v -1.20076143 0.04945627 1.93634820
v -1.20792280 -0.12135188 1.94358318
v -1.24467633 -0.26652814 1.97787782
v -1.35307542 -0.47837768 2.07136191
v -1.41888552 -0.55707348 2.12300780
v 1.23810485 0.95646084 0.66299971
v 1.45059255 0.83750000 2.21000000
v 1.40096121 0.89749607 2.20355904
v 1.33516698 0.93843205 2.18515653
v 1.25372039 0.95682898 2.15324285
v 1.48241152 0.71875000 2.19410346
v 1.47427688 0.78012778 2.20594777
v 1.47645175 0.77162125 0.66300000
v 1.45887156 0.82183903 0.66300000
v 1.41354961 0.88794222 0.66300037
v 1.32757072 0.94339441 0.66300110
v 1.44938334 -0.59705577 0.66299963
v 1.41888552 -0.55707348 2.12300780
v 1.48241152 -0.71875000 2.19410346
v 1.46587168 -0.63203784 2.16457309
v 1.48186700 -0.68857389 0.66299735
v 1.41888552 0.55707348 2.12300780
v 1.46589901 0.63180264 2.16452762
v 1.67500000 0.00000000 2.21000000
v 1.66067014 0.21863137 2.21000000
v 1.61415035 0.43896443 2.20991419
v 1.54749822 0.64099475 2.21000000
v 1.19976970 0.04181017 1.93564727
v 1.21703464 0.16507816 1.95218084
v 1.26203211 0.31553305 1.99363661
v 1.35188663 0.47677650 2.07040888
v -2.08280000 0.00000000 0.00000000
v 2.08280000 0.00000000 0.00000000
v 2.06340069 0.28360790 0.00000000
v 2.00556413 0.56193271 0.00000000
v 1.91036770 0.82978979 0.00000000
v 1.77958474 1.08218945 0.00000000
v 1.61565148 1.31442997 0.00000000
v 1.42162169 1.52218515 0.00000000
v 1.20110977 1.70158489 0.00000000
v 0.95822346 1.84928733 0.00000000
v 0.69748726 1.96254105 0.00000000
v 0.42375818 2.03923634 0.00000000
v 0.14213530 2.07794451 0.00000000
v -0.14213530 2.07794451 0.00000000
v -0.42375818 2.03923634 0.00000000
v -0.69748726 1.96254105 0.00000000
v -0.95822346 1.84928733 0.00000000
v -1.20110977 1.70158489 0.00000000
v -1.42162169 1.52218515 0.00000000
v -1.61565148 1.31442997 0.00000000
v -1.77958474 1.08218945 0.00000000
v -1.91036770 0.82978979 0.00000000
v -2.00556413 0.56193271 0.00000000
v -2.06340069 0.28360790 0.00000000
v -3.91448978 -0.51535236 0.35368436
v -3.81373380 -1.02188689 0.35368436
v -3.64772377 -1.51093666 0.35368436
v -3.41930018 -1.97413388 0.35368436
v -3.13237141 -2.40355312 0.35368436
v -2.79184690 -2.79184690 0.35368436
v -2.40513753 -3.13602151 0.34649474
v -1.03191326 -3.82150180 0.33287177
v -0.00000000 -3.67252499 0.80502781
v -0.00000000 -3.34543487 1.22066832
v -0.00000000 -2.97157060 1.59479462
v -0.00000000 -2.55615937 1.92217588
v -0.00000000 -2.10500923 2.19823481
v -1.05250461 -1.82299147 2.19823481
v -1.28144842 -1.67001610 2.19823481
v -1.67001610 -1.28144842 2.19823481
v 0.00000000 3.67252499 0.80502781
v 0.00000000 3.34543487 1.22066832
v 0.00000000 2.97157060 1.59479462
v 0.00000000 2.55615937 1.92217588
v -0.80193127 -3.68238494 0.66083777
v -0.80193127 -3.19076559 1.28197998
v -1.57787681 -3.28194093 0.84901946
v -0.80193127 -2.59575286 1.80492079
v -1.57787681 -2.76307229 1.39532102
v -2.30269293 -2.78054243 0.89235646
v -1.57787681 -2.15466921 1.83974849
v -2.30269293 -2.26202795 1.34806499
v -1.57787681 -1.47644636 2.16790064
v -2.95289272 -2.21801540 0.77514417
v -2.30269293 -1.67021486 1.70343070
v -2.95289272 -1.72962883 1.13190174
v -2.30269293 -1.02428022 1.94693833
v -3.50740714 -1.63748373 0.49308941
v -2.95289272 -1.18519547 1.39532102
v -2.30269293 -0.34515487 2.07069729
v -3.50740714 -1.20906979 0.75033891
v -2.95289272 -0.60235711 1.55686621
v -2.30269293 0.34515487 2.07069729
v -1.57787681 1.47644636 2.16790064
v -0.80193127 2.59575286 1.80492079
v -3.50740714 -0.74147722 0.92661427
v -2.95289272 -0.00000000 1.61130259
v -2.30269293 1.02428022 1.94693833
v -1.57787681 2.15466921 1.83974849
v -0.80193127 3.19076559 1.28197998
v -3.50740714 -0.24985787 1.01620347
v -2.95289272 0.60235711 1.55686621
v -2.30269293 1.67021486 1.70343070
v -1.57787681 2.76307229 1.39532102
v -0.80193127 3.68238494 0.66083777
v -3.50740714 0.24985787 1.01620347
v -2.95289272 1.18519547 1.39532102
v -2.30269293 2.26202795 1.34806499
v -1.57787681 3.28194093 0.84901946
v -3.50740714 0.74147722 0.92661427
v -2.95289272 1.72962883 1.13190174
v -2.30269293 2.78054243 0.89235646
v -3.50740714 1.20906979 0.75033891
v -2.95289272 2.21801540 0.77514417
v -3.50740714 1.63748373 0.49308941
v -1.98768029 -0.55704469 2.20975446
v -1.76374217 -1.07297913 2.20973517
v -1.40906122 -1.51087401 2.20964634
v -0.94794987 -1.83778519 2.20949328
v -0.68977156 -1.94948497 2.20948623
v 0.51866711 -2.00295717 2.20972976
v 1.18875009 -1.69193974 2.20950255
v 1.59637465 -1.29874711 2.21000000
v 1.75835198 -1.06927752 2.21000000
v 1.88757453 -0.81988932 2.21000000
v 1.98518715 -0.55188964 2.21002178
v -1.45059255 -0.83750000 2.21000000
v -1.32886684 -1.01967539 2.21000000
v -1.18440386 -1.18440386 2.21000000
v -0.93258672 -1.39564352 2.20999101
v -0.51756519 -1.59851603 2.20999526
v -0.21863137 -1.66067014 2.21000000
v -0.00000000 -1.67500000 2.21000000
v 0.21863137 -1.66067014 2.21000000
v 0.43352190 -1.61792576 2.21000000
v 0.74236933 -1.50546558 2.20999101
v 1.12557296 -1.24748256 2.20999526
v 1.32886684 -1.01967539 2.21000000
v 1.45059255 -0.83750000 2.21000000
v 1.54749822 -0.64099475 2.21000000
v 1.61792576 -0.43352190 2.21000000
v 1.66067014 -0.21863137 2.21000000
v 1.32886684 1.01967539 2.21000000
v 1.12556988 1.24748513 2.20999527
v 0.74236933 1.50546558 2.20999101
v 0.43352190 1.61792576 2.21000000
v 0.21863137 1.66067014 2.21000000
v 0.00000000 1.67500000 2.21000000
v -0.21863137 1.66067014 2.21000000
v -0.43352190 1.61792576 2.21000000
v -0.64099475 1.54749822 2.21000000
v -0.93258672 1.39564352 2.20999101
v -1.18440386 1.18440386 2.21000000
v -1.32886684 1.01967539 2.21000000
v -1.45059255 0.83750000 2.21000000
v -1.54749822 0.64099475 2.21000000
v -1.64313878 0.35102949 2.20999527
v -1.67500000 0.00000000 2.21000000
v -1.64313810 -0.35103339 2.20999526
v -1.54749822 -0.64099475 2.21000000
v 0.51447104 -3.91828768 0.34708532
v 1.02488883 -3.81666310 0.34716578
v 1.51174599 -3.65840521 0.33236222
v 1.97690050 -3.42178762 0.34733872
v 2.40200286 -3.14641525 0.33163750
v 3.42718061 -1.97863730 0.33343085
v 3.65709831 -1.51093423 0.33407098
v 3.82183929 -1.02040240 0.33774614
v 3.91448978 -0.51535236 0.35368436
v 2.08700058 -0.27475884 2.19823481
v 1.93981014 -0.80237144 2.20105898
v 1.28144842 -1.67001610 2.19823481
v 0.80555216 -1.94477494 2.19823481
v 0.52942125 -2.02820711 2.20338517
v 3.50740714 -1.63748373 0.49308941
v 2.95289272 -2.21801540 0.77514417
v 3.50740714 -1.20906979 0.75033891
v 2.30269293 -2.78054243 0.89235646
v 2.95289272 -1.72962883 1.13190174
v 3.50740714 -0.74147722 0.92661427
v 1.57787681 -3.28194093 0.84901946
v 2.30269293 -2.26202795 1.34806499
v 2.95289272 -1.18519547 1.39532102
v 3.50740714 -0.24985787 1.01620347
v 0.80193127 -3.68238494 0.66083777
v 1.57787681 -2.76307229 1.39532102
v 2.30269293 -1.67021486 1.70343070
v 2.95289272 -0.60235711 1.55686621
v 3.50740714 0.24985787 1.01620347
v 0.80193127 -3.19076559 1.28197998
v 1.57787681 -2.15466921 1.83974849
v 2.30269293 -1.02428022 1.94693833
v 2.95289272 -0.00000000 1.61130259
v 3.50740714 0.74147722 0.92661427
v 0.80193127 -2.59575286 1.80492079
v 1.57787681 -1.47644636 2.16790064
v 2.30269293 -0.34515487 2.07069729
v 2.95289272 0.60235711 1.55686621
v 3.50740714 1.20906979 0.75033891
v 2.30269293 0.34515487 2.07069729
v 2.95289272 1.18519547 1.39532102
v 3.50740714 1.63748373 0.49308941
v 2.30269293 1.02428022 1.94693833
v 2.95289272 1.72962883 1.13190174
v 2.30269293 1.67021486 1.70343070
v 2.95289272 2.21801540 0.77514417
v 1.57787681 1.47644636 2.16790064
v 2.30269293 2.26202795 1.34806499
v 1.57787681 2.15466921 1.83974849
v 2.30269293 2.78054243 0.89235646
v 1.57787681 2.76307229 1.39532102
v 0.80193127 2.59575286 1.80492079
v 1.57787681 3.28194093 0.84901946
v 0.80193127 3.19076559 1.28197998
v 0.80193127 3.68238494 0.66083777
v -3.92311635 -0.53921993 0.10000000
v -3.81315246 -1.06839521 0.10000000
v -3.63215675 -1.57766832 0.10000000
v -3.38350084 -2.05755244 0.10000000
v -3.07181671 -2.49910826 0.10000000
v -2.70291045 -2.89411042 0.10000000
v -2.28365408 -3.23520078 0.10000000
v -1.82185755 -3.51602546 0.10000000
v -1.32612326 -3.73135325 0.10000000
v -0.80568581 -3.87717299 0.10000000
v -0.27023996 -3.95076833 0.10000000
v 0.27023996 -3.95076833 0.10000000
v 0.80568581 -3.87717299 0.10000000
v 1.32612326 -3.73135325 0.10000000
v 1.82185755 -3.51602546 0.10000000
v 2.28365408 -3.23520078 0.10000000
v 2.70291045 -2.89411042 0.10000000
v 3.07181671 -2.49910826 0.10000000
v 3.38350084 -2.05755244 0.10000000
v 3.63215675 -1.57766832 0.10000000
v 3.81315246 -1.06839521 0.10000000
v 3.92311635 -0.53921993 0.10000000
v 3.92311635 -0.53921993 0.30668646
v 3.81315246 -1.06839521 0.30668646
v 3.63215675 -1.57766832 0.30668646
v 3.38350084 -2.05755244 0.30668646
v 3.07181671 -2.49910826 0.30668646
v 2.70291045 -2.89411042 0.30668646
v 2.28365408 -3.23520078 0.30668646
v 1.82185755 -3.51602546 0.30668646
v 1.32793572 -3.73170503 0.31416369
v -0.26786848 -3.95190346 0.31397019
v -0.80568581 -3.87717299 0.30668646
v -1.32378200 -3.73316989 0.31410095
v -1.81968550 -3.51814790 0.31425691
v -2.28174948 -3.23755611 0.31448979
v -2.70291045 -2.89411042 0.30668646
v -3.92172757 -0.53983190 0.32469145
v 3.82404775 -0.52560327 -0.00000000
v 3.71686073 -1.04141554 -0.00000000
v 3.54043562 -1.53782821 -0.00000000
v 3.29805890 -2.00559405 -0.00000000
v 2.99424558 -2.43599947 -0.00000000
v 2.63465513 -2.82102682 -0.00000000
v 2.22598604 -3.15350379 -0.00000000
v 1.77585105 -3.42723694 -0.00000000
v 1.29263530 -3.63712716 -0.00000000
v 0.78534021 -3.77926458 -0.00000000
v 0.26341572 -3.85100145 -0.00000000
v -0.26341572 -3.85100145 -0.00000000
v -0.78534021 -3.77926458 -0.00000000
v -1.29263530 -3.63712716 -0.00000000
v -1.77585105 -3.42723694 -0.00000000
v -2.22598604 -3.15350379 -0.00000000
v -2.63465513 -2.82102682 -0.00000000
v -2.99424558 -2.43599947 -0.00000000
v -3.29805890 -2.00559405 -0.00000000
v -3.54043562 -1.53782821 -0.00000000
v -3.71686073 -1.04141554 -0.00000000
v -3.82404775 -0.52560327 -0.00000000
v -2.06340069 -0.28360790 0.00000000
v -2.00556413 -0.56193271 0.00000000
v -1.91036770 -0.82978979 0.00000000
v -1.77958474 -1.08218945 0.00000000
v -1.61565148 -1.31442997 0.00000000
v -1.42162169 -1.52218515 0.00000000
v -1.20110977 -1.70158489 0.00000000
v -0.95822346 -1.84928733 0.00000000
v -0.69748726 -1.96254105 0.00000000
v -0.42375818 -2.03923634 0.00000000
v -0.14213530 -2.07794451 0.00000000
v 0.14213530 -2.07794451 0.00000000
v 0.42375818 -2.03923634 0.00000000
v 0.69748726 -1.96254105 0.00000000
v 0.95822346 -1.84928733 0.00000000
v 1.20110977 -1.70158489 0.00000000
v 1.42162169 -1.52218515 0.00000000
v 1.61565148 -1.31442997 0.00000000
v 1.77958474 -1.08218945 0.00000000
v 1.91036770 -0.82978979 0.00000000
v 2.00556413 -0.56193271 0.00000000
v 2.06340069 -0.28360790 0.00000000
v -2.06340069 -0.28360790 -12.28357864
v -2.00556413 -0.56193271 -12.28357864
v -1.91036770 -0.82978979 -12.28357864
v -1.77958474 -1.08218945 -12.28357864
v -1.61565148 -1.31442997 -12.28357864
v -1.42162169 -1.52218515 -12.28357864
v -1.20110977 -1.70158489 -12.28357864
v -0.95743285 -1.84776154 -12.30311996
v -0.69748726 -1.96254105 -12.28357864
v -0.42375818 -2.03923634 -12.28357864
v -0.14213530 -2.07794451 -12.28357864
v 0.14213530 -2.07794451 -12.28357864
v 0.42375818 -2.03923634 -12.28357864
v 0.69748726 -1.96254105 -12.28357864
v 0.95822346 -1.84928733 -12.28357864
v 1.20110977 -1.70158489 -12.28357864
v 1.41981542 -1.52142190 -12.30394126
v 1.61565148 -1.31442997 -12.28357864
v 1.77958474 -1.08218945 -12.28357864
v 1.91036770 -0.82978979 -12.28357864
v 2.00556413 -0.56193271 -12.28357864
v 2.06151787 -0.28415571 -12.30394129
v 1.60598436 -0.47988885 -12.70001419
v 1.35244968 -0.97944252 -12.70000533
v 0.98840971 -1.36126601 -12.69933618
v 0.68378844 -1.52342617 -12.70000666
v -0.07456333 -1.68210650 -12.69913315
v -1.28023734 -1.09363352 -12.69913315
v -1.47321131 -0.78615672 -12.70000666
v -1.66244825 -0.26993636 -12.69900885
v -1.70700140 -0.22987609 -12.68329345
v 0.58009114 -1.62129628 -12.68369745
v 1.47300567 -0.89255045 -12.68338365
v 1.58084465 -0.68266942 -12.68369745
v 1.66016789 -0.46138323 -12.68271825
v 1.72090998 -0.23653363 -12.67071068
v 2.04679143 -0.28202394 -12.33960488
v 1.75455937 -1.06697119 -12.35428932
v 1.40973732 -1.51047456 -12.33960487
v 0.69032658 -1.94775275 -12.33920033
v 0.41779910 -2.01055963 -12.35428932
v -0.69255719 -1.94660147 -12.33960487
v -1.40163017 -1.50077946 -12.35428932
v -1.76498161 -1.07411950 -12.33960485
v -1.89480172 -0.82378346 -12.33960485
v -1.98833154 -0.55925215 -12.34034234
v -2.04632415 -0.28457627 -12.33971177
v -1.40096121 -0.89749607 2.20355904
v -1.33516698 -0.93843205 2.18515653
v -1.26413679 -0.95543667 2.15779197
v -1.10158005 -0.93758628 2.07813562
v -0.97065630 -0.93046336 2.01920227
v -0.71982437 -0.98023381 1.94442812
v -0.52525419 -1.08614604 1.93901318
v -0.40084479 -1.20067832 1.97381421
v -0.26629032 -1.40171888 2.06650776
v -0.22700297 -1.50732765 2.12300780
v -0.19529025 -1.57261588 2.15785749
v -0.14531944 -1.62535236 2.18507913
v -0.07668046 -1.66202570 2.20356330
v -0.90385521 -0.93655930 1.99427614
v -0.71938503 -1.24601142 2.07361258
v -0.32886604 -1.29290713 2.01262021
v 1.25084716 -0.95706465 2.15206391
v 1.33493674 -0.93852650 2.18507914
v 1.40101625 -0.89742007 2.20356330
v 0.07677363 -1.66201593 2.20355899
v 0.14512231 -1.62550470 2.18515660
v 0.19536381 -1.57249300 2.15779201
v 0.26118298 -1.42279075 2.07813630
v 0.32047675 -1.30584471 2.01920227
v 0.48899516 -1.11350313 1.94442813
v 0.67800297 -0.99795649 1.93901317
v 0.83939551 -0.94748093 1.97381421
v 1.08077892 -0.93147362 2.06650773
v 0.35915653 -1.25104123 1.99427614
v 0.71938503 -1.24601142 2.07361258
v 0.95525733 -0.93125992 2.01262019
v 1.47421464 -0.78014761 2.20592541
v 1.34596451 -0.46657256 2.06533056
v 1.25005722 -0.28175807 1.98277919
v 1.21256299 -0.15045444 1.94822324
v 1.28793630 -0.36943607 2.01586698
v 0.22700297 1.50732765 2.12300780
v 0.19529025 1.57261588 2.15785749
v 0.14531944 1.62535236 2.18507913
v 0.07668046 1.66202570 2.20356330
v 1.07715419 0.93236193 2.06538128
v 0.86028186 0.94328588 1.98004411
v 0.71982437 0.98023381 1.94442812
v 0.52525419 1.08614604 1.93901318
v 0.40084479 1.20067832 1.97381421
v 0.26629032 1.40171888 2.06650776
v 0.96750032 0.93061358 2.01741548
v 0.71938503 1.24601142 2.07361258
v 0.32886604 1.29290713 2.01262021
v -0.07677363 1.66201593 2.20355899
v -0.14512231 1.62550470 2.18515660
v -0.19536381 1.57249300 2.15779201
v -0.26118298 1.42279075 2.07813630
v -0.32047675 1.30584471 2.01920227
v -0.48899516 1.11350313 1.94442813
v -0.67800297 0.99795649 1.93901317
v -0.83939551 0.94748093 1.97381421
v -1.08077892 0.93147362 2.06650773
v -1.19188255 0.95025416 2.12300780
v -1.26428019 0.95543426 2.15785750
v -1.33493674 0.93852650 2.18507914
v -1.40101625 0.89742007 2.20356330
v -0.35915653 1.25104123 1.99427614
v -0.71938503 1.24601142 2.07361258
v -0.95525733 0.93125992 2.01262019
v -1.47773486 0.76451982 2.20355895
v -1.48028945 0.68707230 2.18515646
v -1.45950058 0.61705625 2.15779185
v -1.41888552 0.55707348 2.12300780
v -1.34596451 0.46657256 2.06533056
v -1.23235999 0.23258614 1.96693510
v -1.45957032 -0.61718149 2.15785740
v -1.48025609 -0.68682537 2.18507898
v -1.47769691 -0.76460549 2.20356335
v -1.28925190 0.37148210 2.01703251
v -1.43750000 0.00000000 2.07287931
v -1.28668071 -0.36655264 2.01475804
v -0.26689454 1.40339793 0.66300000
v -0.32052246 1.30584399 0.66300000
v -0.42465180 1.17317859 0.66300050
v -0.55274349 1.06870241 0.66300000
v -0.70540997 0.98622972 0.66300029
v -0.86004778 0.94329585 0.66300000
v -1.02849188 0.92821802 0.66299978
v -1.23654639 0.95650824 0.66299987
v -1.30078991 0.94958296 0.66300000
v -1.37697670 0.91743808 0.66299676
v -1.45236978 0.83852908 0.66300176
v -1.48301260 0.73377674 0.66299809
v -1.47275792 0.65172563 0.66300000
v -1.44771643 0.59447575 0.66299932
v -1.32529692 0.43734688 0.66300027
v -1.23997212 0.25742791 0.66300017
v -1.20636411 0.10185970 0.66300000
v -1.44617359 -0.59183136 0.66299964
v -1.48136530 -0.68088797 0.66300177
v -1.47375202 -0.78692256 0.66299932
v -1.41837140 -0.88284555 0.66299915
v -1.33035425 -0.94245382 0.66300175
v -1.23921411 -0.95651954 0.66299984
v -1.08193098 -0.93283642 0.66300000
v -0.97063284 -0.93050258 0.66300000
v -0.86004778 -0.94329585 0.66300000
v -0.75222226 -0.97097946 0.66300000
v -0.64915170 -1.01304111 0.66300000
v -0.50139503 -1.10401779 0.66300029
v -0.38689428 -1.21647114 0.66300000
v -0.28961439 -1.35480921 0.66299978
v -0.21008725 -1.54913470 0.66299980
v -0.17196801 -1.60130859 0.66300000
v -0.10603631 -1.65121584 0.66299757
v -0.00000264 -1.67705366 0.66300211
v 0.10603699 -1.65121495 0.66299761
v 0.19878937 -1.57268041 0.66300011
v 0.26689454 -1.40339793 0.66300000
v 0.32052246 -1.30584399 0.66300000
v 0.42465180 -1.17317859 0.66300058
v 0.55274349 -1.06870241 0.66300000
v 0.64915170 -1.01304111 0.66300000
v 0.81138666 -0.95199270 0.66299992
v 1.02849188 -0.92821802 0.66299978
v 1.23542846 -0.95643631 0.66299981
v 1.32756572 -0.94339644 0.66300112
v 1.41354844 -0.88794282 0.66300052
v 1.45887156 -0.82183903 0.66300000
v 1.47645175 -0.77162125 0.66300000
v 1.34882553 -0.47056151 0.66300000
v 1.26298198 -0.31906947 0.66300013
v 1.21700401 -0.16595386 0.66300000
v 1.20189518 -0.05566131 0.66300000
v 1.20189518 0.05566131 0.66300000
v 1.21700401 0.16595386 0.66300000
v 1.24694205 0.27317530 0.66300000
v 1.31896994 0.42794237 0.66299946
v 1.44783556 0.59430452 0.66299953
v 1.48186224 0.68857507 0.66299793
v 1.08193098 0.93283642 0.66300000
v 0.90819830 0.93425382 0.66299945
v 0.69368832 0.99084611 0.66300093
v 0.55274349 1.06870241 0.66300000
v 0.41875650 1.17867784 0.66299990
v 0.28961439 1.35480921 0.66299978
v 0.21008725 1.54913470 0.66299976
v 0.15101624 1.62334408 0.66300118
v 0.08077113 1.66084340 0.66300000
v 0.00000264 1.67705366 0.66300176
v -0.10603699 1.65121495 0.66299809
v -0.19878937 1.57268041 0.66300014
v 2.00228306 -0.56101340 -12.30946055
v 1.98932526 -0.55810189 -12.33960487
v 1.90724238 -0.82843227 -12.30946055
v 1.89480172 -0.82378346 -12.33960485
v 1.77612929 -1.07458294 -12.32219031
v 1.61300830 -1.31227959 -12.30946055
v 1.60228323 -1.30444672 -12.33960485
v 1.19914478 -1.69880114 -12.30946055
v 1.19093069 -1.68836512 -12.33960488
v 0.95665583 -1.84626194 -12.30946055
v 0.94993928 -1.83480464 -12.33960487
v 0.69634618 -1.95933037 -12.30946055
v 0.42485411 -2.03236066 -12.32082281
v 0.14190277 -2.07454504 -12.30946055
v 0.14030687 -2.06136041 -12.33960485
v -0.14190277 -2.07454504 -12.30946055
v -0.14168849 -2.06126591 -12.33960485
v -0.42306492 -2.03590019 -12.30946055
v -0.42104447 -2.02277391 -12.33960487
v -0.69634618 -1.95933037 -12.30946055
v -0.95094243 -1.83523560 -12.33823049
v -1.19914478 -1.69880114 -12.30946055
v -1.18943393 -1.68863026 -12.34034236
v -1.41347124 -1.52034958 -12.32219030
v -1.61300830 -1.31227959 -12.30946055
v -1.60228322 -1.30444673 -12.33960485
v -1.77667337 -1.08041901 -12.30946055
v -1.90724238 -0.82843227 -12.30946055
v -2.00228306 -0.56101340 -12.30946055
v -2.06002501 -0.28314392 -12.30946055
v -1.59196290 -0.58316185 -12.69677835
v -1.65980084 -0.46017167 -12.68329346
v -1.58168133 -0.68189514 -12.68329345
v -1.44590025 -0.87927142 -12.69659258
v -1.47409808 -0.89091615 -12.68329346
v -1.33905519 -1.08334112 -12.68329345
v -1.05720246 -1.32542317 -12.69677835
v -1.17906823 -1.25558548 -12.68329345
v -0.99711745 -1.40444067 -12.68329346
v -0.79406891 -1.48490145 -12.69883674
v -0.79257218 -1.52959487 -12.68328273
v -0.56502762 -1.58983534 -12.69816415
v -0.57360150 -1.62481176 -12.68271824
v -0.33485391 -1.65184153 -12.69856403
v -0.34773585 -1.68685263 -12.68338365
v -0.11480392 -1.71849123 -12.68338364
v 0.24964095 -1.67305897 -12.69797719
v 0.12026656 -1.71811758 -12.68338364
v 0.35309668 -1.68573864 -12.68338365
v 0.69044181 -1.54845526 -12.69677835
v 0.79595734 -1.52822896 -12.68271826
v 0.99600026 -1.40466751 -12.68369745
v 1.17875235 -1.25681137 -12.68271824
v 1.23971511 -1.15989871 -12.69641482
v 1.33775044 -1.08481142 -12.68338364
v 1.44590025 -0.87927142 -12.69659258
v 1.60459510 -0.55005137 -12.69641719
v 1.68694379 -0.24039193 -12.69366381
v -3.87358205 -0.53241160 0.01339746
v -3.90984367 -0.53739564 0.05000000
v -3.76500659 -1.05490538 0.01339746
v -3.80025181 -1.06478062 0.05000000
v -3.58629619 -1.55774826 0.01339746
v -3.61986845 -1.57233075 0.05000000
v -3.34077987 -2.03157324 0.01339746
v -3.37205379 -2.05059134 0.05000000
v -3.03303115 -2.46755386 0.01339746
v -3.06142415 -2.49065328 0.05000000
v -2.66878279 -2.85756862 0.01339746
v -2.69376597 -2.88431907 0.05000000
v -2.25482006 -3.19435228 0.01339746
v -2.27592802 -3.22425546 0.05000000
v -1.79885430 -3.47163120 0.01339746
v -1.81569385 -3.50413006 0.05000000
v -1.30937928 -3.68424021 0.01339746
v -1.32163673 -3.71872935 0.05000000
v -0.79551301 -3.82821878 0.01339746
v -0.80296002 -3.86405575 0.05000000
v -0.26682784 -3.90088489 0.01339746
v -0.26932568 -3.93740210 0.05000000
v 0.26682784 -3.90088489 0.01339746
v 0.26932568 -3.93740210 0.05000000
v 0.79551301 -3.82821878 0.01339746
v 0.80296002 -3.86405575 0.05000000
v 1.30937928 -3.68424021 0.01339746
v 1.32163673 -3.71872935 0.05000000
v 1.79885430 -3.47163120 0.01339746
v 1.81569385 -3.50413006 0.05000000
v 2.25482006 -3.19435228 0.01339746
v 2.27592802 -3.22425546 0.05000000
v 2.66878279 -2.85756862 0.01339746
v 2.69376597 -2.88431907 0.05000000
v 3.03303115 -2.46755386 0.01339746
v 3.06142415 -2.49065328 0.05000000
v 3.34077987 -2.03157324 0.01339746
v 3.37205379 -2.05059134 0.05000000
v 3.58629619 -1.55774826 0.01339746
v 3.61986845 -1.57233075 0.05000000
v 3.76500659 -1.05490538 0.01339746
v 3.80025181 -1.06478062 0.05000000
v 3.87358205 -0.53241160 0.01339746
v 3.90984367 -0.53739564 0.05000000
v 3.92089415 -0.51619551 0.33872895
v 3.92480605 -0.51671052 0.32292316
v 3.14038460 -2.40902814 0.33144824
v 2.80034161 -2.79694286 0.33282559
v 2.28288885 -3.23411669 0.32292316
v 1.97933652 -3.42831142 0.32292316
v 1.82124706 -3.51484728 0.32292316
v 1.02457998 -3.82378453 0.32292316
v 0.80774158 -3.87772887 0.31404623
v 0.51671052 -3.92480605 0.32292316
v 0.27248879 -3.95158974 0.31398294
v 0.00000000 -3.95851902 0.33209901
v -0.51198832 -3.92523801 0.33264977
v -0.80541583 -3.87587379 0.32292316
v -1.51174599 -3.65840521 0.33236222
v -1.98229160 -3.42604879 0.33344271
v -2.40988746 -3.14062648 0.32292316
v -2.70200473 -2.89314063 0.32292316
v -3.07131383 -2.49847710 0.32060616
v -3.38273215 -2.05729594 0.32008314
v -3.63122973 -1.57789437 0.31923694
v -3.81226366 -1.06904380 0.31795319
v 2.05297718 -0.27436568 2.20911635
v 2.02917950 -0.54345628 2.20053599
v 1.81939376 -1.04921865 2.20073337
v 1.66715695 -1.27666130 2.20088131
v 1.47106358 -1.49084777 2.20357766
v 1.40770356 -1.51453771 2.20951388
v 1.29030469 -1.64969271 2.20422852
v 1.02606360 -1.82391959 2.20491520
v 0.89545006 -1.88045064 2.20763270
v 0.69461038 -1.95444631 2.20866925
v 0.60164973 -2.00326485 2.20452870
v 0.26413262 -2.07862816 2.20375629
v 0.08795995 -2.07833787 2.20799070
v -0.26365275 -2.07981003 2.20338446
v -0.19084090 -2.07141583 2.20798370
v -0.52942125 -2.02820711 2.20338517
v -0.46575128 -2.02735329 2.20797908
v -0.79231131 -1.93929054 2.20382135
v -1.06066947 -1.80602333 2.20424343
v -1.22032093 -1.68433059 2.20799213
v -1.48017692 -1.49425390 2.19933205
v -1.60864079 -1.31172028 2.20869515
v -1.81737083 -1.05819984 2.19939347
v -1.89337261 -0.82268256 2.20974441
v -1.94100932 -0.80995317 2.19929817
v -2.03073330 -0.54767685 2.19923464
v -2.04484283 -0.28100819 2.20976882
v -2.08524374 -0.27606160 2.19913335
f 14 13 15
f 15 6 14
f 15 16 6
f 16 15 2
f 7 16 17
f 18 3 17
f 19 3 18
f 21 20 22
f 23 21 22
f 24 23 22
f 24 22 25
f 26 24 25
f 42 41 60
f 64 44 63
f 65 45 64
f 66 46 65
f 80 53 33
f 37 32 31
f 38 32 37
f 39 83 32
f 39 32 38
f 61 55 54
f 61 54 60
f 61 60 41
f 62 41 40
f 62 56 55
f 62 40 56
f 62 55 61
f 62 61 41
f 63 44 43
f 64 45 44
f 65 46 45
f 66 47 46
f 67 47 66
f 67 68 47
f 68 67 59
f 59 69 68
f 69 59 58
f 58 70 69
f 70 58 57
f 57 71 70
f 71 57 72
f 72 48 71
f 48 72 73
f 73 74 48
f 74 73 36
f 36 49 74
f 49 36 75
f 75 50 49
f 50 75 76
f 76 51 50
f 51 76 35
f 77 51 35
f 77 52 51
f 34 77 35
f 34 52 77
f 78 53 52
f 78 52 34
f 79 34 33
f 79 33 53
f 79 78 34
f 79 53 78
f 83 82 32
f 113 111 93
f 114 111 113
f 114 112 111
f 114 96 112
f 115 93 92
f 115 113 93
f 116 114 113
f 116 97 114
f 116 113 115
f 117 115 92
f 118 115 117
f 118 97 116
f 118 116 115
f 119 118 117
f 119 92 91
f 119 117 92
f 120 98 118
f 120 118 119
f 121 119 91
f 122 98 120
f 122 120 119
f 122 119 121
f 123 121 91
f 99 122 121
f 99 121 123
f 124 123 90
f 125 100 99
f 125 123 124
f 125 99 123
f 126 125 124
f 126 124 90
f 127 125 126
f 127 100 125
f 128 90 89
f 128 126 90
f 128 127 126
f 129 101 127
f 129 127 128
f 130 128 89
f 131 128 130
f 131 129 128
f 131 101 129
f 132 130 89
f 132 131 130
f 133 102 131
f 133 131 132
f 134 132 88
f 135 133 132
f 135 132 134
f 135 102 133
f 136 134 88
f 137 134 136
f 137 103 135
f 137 135 134
f 138 136 88
f 139 136 138
f 139 137 136
f 139 103 137
f 140 138 87
f 141 104 139
f 141 139 138
f 141 138 140
f 142 140 87
f 142 141 140
f 143 104 141
f 143 141 142
f 144 87 86
f 144 142 87
f 105 143 142
f 105 142 144
f 145 144 86
f 106 144 145
f 106 105 144
f 146 145 86
f 107 106 145
f 107 145 146
f 147 146 85
f 108 107 146
f 108 146 147
f 148 147 85
f 109 108 147
f 109 147 148
f 149 85 84
f 149 148 85
f 149 109 148
f 149 84 94
f 150 94 95
f 150 149 94
f 150 110 109
f 150 95 110
f 150 109 149
f 157 162 158
f 164 162 157
f 164 163 162
f 165 164 157
f 166 157 156
f 166 165 157
f 155 166 156
f 168 167 166
f 168 166 155
f 170 168 155
f 170 155 169
f 169 155 154
f 171 169 154
f 175 171 154
f 173 172 171
f 173 171 175
f 174 173 175
f 176 174 175
f 152 175 153
f 152 176 175
f 177 176 152
f 178 177 152
f 178 152 180
f 181 179 178
f 181 178 180
f 182 180 183
f 182 181 180
f 184 182 183
f 160 183 151
f 160 184 183
f 161 160 151
f 186 161 151
f 186 185 159
f 186 151 185
f 222 210 209
f 222 221 210
f 222 213 221
f 223 209 208
f 223 222 209
f 224 222 223
f 225 208 207
f 225 223 208
f 225 224 223
f 226 207 206
f 226 225 207
f 227 206 205
f 227 226 206
f 228 226 227
f 229 205 204
f 229 227 205
f 230 228 227
f 230 227 229
f 231 204 203
f 231 229 204
f 232 229 231
f 232 230 229
f 233 203 202
f 233 231 203
f 233 232 231
f 234 232 233
f 235 202 201
f 235 233 202
f 236 234 233
f 236 233 235
f 237 201 200
f 237 235 201
f 237 214 236
f 237 236 235
f 238 200 199
f 238 237 200
f 239 237 238
f 239 214 237
f 240 199 198
f 240 238 199
f 215 239 238
f 215 238 240
f 241 198 197
f 241 240 198
f 241 215 240
f 242 215 241
f 243 197 196
f 243 241 197
f 244 242 241
f 244 241 243
f 245 195 194
f 245 196 195
f 245 243 196
f 246 244 243
f 246 243 245
f 247 245 194
f 247 246 245
f 248 246 247
f 249 194 193
f 249 247 194
f 249 216 248
f 249 248 247
f 250 193 192
f 250 249 193
f 251 249 250
f 251 216 249
f 252 192 191
f 252 250 192
f 217 251 250
f 217 250 252
f 190 217 252
f 190 252 191
f 218 217 190
f 253 190 189
f 219 218 190
f 219 190 253
f 254 188 187
f 254 189 188
f 254 253 189
f 254 187 211
f 254 219 253
f 254 211 212
f 254 220 219
f 254 212 220
f 261 697 257
f 261 262 697
f 679 257 256
f 679 261 257
f 260 679 256
f 259 256 255
f 259 260 256
f 258 259 255
f 268 270 738
f 269 271 270
f 269 270 268
f 264 272 271
f 264 271 269
f 265 273 272
f 265 272 264
f 266 273 265
f 267 263 273
f 267 273 266
f 277 274 278
f 277 278 276
f 275 274 277
f 281 286 285
f 282 286 281
f 280 279 283
f 284 280 283
f 268 280 284
f 269 268 284
f 264 269 284
f 283 287 286
f 283 288 287
f 283 279 288
f 283 286 282
f 220 162 163
f 220 212 162
f 219 163 164
f 219 220 163
f 218 164 165
f 218 219 164
f 217 165 166
f 217 218 165
f 251 166 167
f 251 217 166
f 216 167 168
f 216 251 167
f 248 168 170
f 248 216 168
f 246 170 169
f 246 248 170
f 244 169 171
f 244 246 169
f 242 171 172
f 242 244 171
f 215 172 173
f 215 242 172
f 239 173 174
f 239 215 173
f 214 239 174
f 214 174 176
f 236 214 176
f 236 176 177
f 234 236 177
f 234 177 178
f 234 178 179
f 232 234 179
f 232 179 181
f 230 181 182
f 230 232 181
f 228 230 182
f 226 182 184
f 226 228 182
f 225 184 160
f 225 226 184
f 224 160 161
f 224 225 160
f 222 161 186
f 222 224 161
f 213 186 159
f 213 222 186
f 290 187 188
f 291 290 188
f 292 188 189
f 292 291 188
f 293 189 190
f 293 190 191
f 293 292 189
f 294 191 192
f 294 293 191
f 295 294 192
f 296 192 193
f 296 295 192
f 297 193 194
f 297 296 193
f 298 194 195
f 298 297 194
f 299 195 196
f 299 298 195
f 300 196 197
f 300 299 196
f 301 197 198
f 301 300 197
f 302 301 198
f 302 198 199
f 303 302 199
f 303 199 200
f 304 303 200
f 304 200 201
f 305 304 201
f 305 201 202
f 306 305 202
f 306 202 203
f 307 203 204
f 307 306 203
f 308 204 205
f 308 307 204
f 309 205 206
f 309 308 205
f 310 206 207
f 310 309 206
f 311 207 208
f 311 310 207
f 312 208 209
f 312 311 208
f 289 209 210
f 289 312 209
f 83 96 114
f 83 114 97
f 83 39 96
f 82 97 118
f 82 83 97
f 81 82 118
f 80 118 98
f 80 81 118
f 53 98 122
f 53 80 98
f 52 122 99
f 52 53 122
f 51 99 100
f 51 52 99
f 50 100 127
f 50 51 100
f 49 127 101
f 49 50 127
f 74 101 131
f 74 49 101
f 48 131 102
f 48 74 131
f 71 48 102
f 71 102 135
f 71 135 103
f 70 71 103
f 69 70 103
f 69 103 139
f 69 139 104
f 68 69 104
f 47 104 143
f 47 68 104
f 46 143 105
f 46 105 106
f 46 47 143
f 45 46 106
f 44 106 107
f 44 45 106
f 43 107 108
f 43 108 109
f 43 44 107
f 42 43 109
f 41 109 110
f 41 42 109
f 40 110 95
f 40 41 110
f 865 864 321
f 888 324 325
f 332 17 3
f 57 329 72
f 333 320 865
f 333 321 322
f 333 865 321
f 334 322 323
f 334 333 322
f 335 868 867
f 335 867 320
f 335 320 333
f 335 333 334
f 336 323 324
f 336 888 890
f 336 890 892
f 336 892 326
f 336 334 323
f 336 324 888
f 337 335 334
f 337 334 336
f 338 318 319
f 338 319 868
f 338 335 337
f 338 868 335
f 339 337 336
f 339 326 327
f 339 327 895
f 339 336 326
f 340 338 337
f 340 337 339
f 341 895 328
f 341 339 895
f 342 318 338
f 342 316 317
f 342 317 318
f 342 338 340
f 343 328 897
f 343 339 341
f 343 341 328
f 343 340 339
f 344 342 340
f 344 340 343
f 345 897 899
f 345 899 900
f 345 343 897
f 346 315 316
f 346 342 344
f 346 316 342
f 347 343 345
f 347 344 343
f 348 900 902
f 348 902 8
f 348 345 900
f 349 314 315
f 349 344 347
f 349 346 344
f 349 315 346
f 350 345 348
f 350 347 345
f 351 8 9
f 351 9 5
f 351 348 8
f 352 12 13
f 353 17 332
f 353 6 16
f 353 16 7
f 353 7 17
f 353 332 331
f 354 349 347
f 354 313 314
f 354 347 350
f 354 314 349
f 355 350 348
f 355 348 351
f 356 5 10
f 356 10 11
f 356 351 5
f 357 352 13
f 357 13 14
f 357 14 6
f 357 6 353
f 358 353 331
f 358 331 330
f 359 54 313
f 359 313 354
f 359 354 350
f 359 350 355
f 360 355 351
f 360 351 356
f 361 11 12
f 361 352 357
f 361 12 352
f 361 356 11
f 362 353 358
f 362 357 353
f 363 57 58
f 363 330 329
f 363 329 57
f 363 358 330
f 364 60 54
f 364 54 359
f 364 359 355
f 364 355 360
f 365 360 356
f 365 356 361
f 366 357 362
f 366 361 357
f 367 58 59
f 367 358 363
f 367 59 67
f 367 363 58
f 367 362 358
f 368 364 360
f 368 60 364
f 368 42 60
f 368 360 365
f 369 365 361
f 369 361 366
f 370 67 66
f 370 66 65
f 370 362 367
f 370 367 67
f 370 366 362
f 371 43 42
f 371 42 368
f 371 368 365
f 371 365 369
f 372 65 64
f 372 64 63
f 372 369 366
f 372 366 370
f 372 370 65
f 373 63 43
f 373 372 63
f 373 43 371
f 373 371 369
f 373 369 372
f 395 880 381
f 396 395 381
f 396 381 382
f 395 380 880
f 397 396 382
f 397 382 383
f 394 380 395
f 394 883 380
f 398 397 383
f 398 383 384
f 394 379 883
f 399 398 384
f 399 384 875
f 393 379 394
f 400 399 875
f 400 875 1
f 392 379 393
f 392 887 379
f 281 400 1
f 391 887 392
f 391 889 887
f 282 1 30
f 282 281 1
f 390 891 889
f 390 889 391
f 283 30 29
f 283 282 30
f 389 378 891
f 389 891 390
f 284 29 28
f 284 283 29
f 377 378 389
f 264 28 27
f 264 284 28
f 388 377 389
f 894 377 388
f 401 264 27
f 4 401 27
f 376 894 388
f 402 401 4
f 387 376 388
f 26 402 4
f 896 376 387
f 386 896 387
f 25 402 26
f 403 402 25
f 375 896 386
f 375 386 385
f 22 403 25
f 898 375 385
f 898 385 418
f 22 404 403
f 374 898 418
f 374 418 417
f 20 404 22
f 20 405 404
f 901 374 417
f 19 405 20
f 19 406 405
f 8 901 417
f 8 416 415
f 8 417 416
f 18 406 19
f 18 407 406
f 9 8 415
f 17 407 18
f 17 408 407
f 5 9 415
f 5 415 414
f 16 408 17
f 16 409 408
f 10 5 414
f 10 414 413
f 2 409 16
f 2 410 409
f 11 10 413
f 11 413 412
f 15 410 2
f 12 11 412
f 12 412 411
f 13 410 15
f 13 12 411
f 13 411 410
f 321 864 419
f 325 324 886
f 332 3 19
f 72 329 73
f 433 424 425
f 434 856 855
f 434 855 424
f 434 424 433
f 435 425 426
f 435 433 425
f 436 422 423
f 436 423 856
f 436 856 434
f 437 434 433
f 437 433 435
f 438 426 427
f 438 435 426
f 439 420 421
f 439 421 422
f 439 422 436
f 440 434 437
f 440 436 434
f 441 437 435
f 441 435 438
f 442 427 31
f 442 438 427
f 443 322 321
f 443 419 420
f 443 420 439
f 443 321 419
f 444 439 436
f 444 436 440
f 445 437 441
f 445 877 878
f 445 440 437
f 446 438 442
f 446 441 438
f 447 31 32
f 447 442 31
f 448 323 322
f 448 439 444
f 448 322 443
f 448 443 439
f 449 444 440
f 449 879 430
f 449 430 882
f 449 440 445
f 450 441 446
f 450 876 429
f 450 429 877
f 450 877 445
f 450 445 441
f 451 446 442
f 451 442 447
f 452 32 82
f 452 447 32
f 453 324 323
f 453 449 882
f 453 886 324
f 453 882 431
f 453 431 432
f 453 432 886
f 453 323 448
f 453 444 449
f 453 448 444
f 454 878 879
f 454 449 445
f 454 445 878
f 454 879 449
f 455 446 451
f 455 450 446
f 455 1 428
f 455 428 876
f 455 876 450
f 456 451 447
f 456 447 452
f 457 82 81
f 457 452 82
f 458 29 30
f 458 30 1
f 458 1 455
f 458 451 456
f 458 455 451
f 459 452 457
f 459 456 452
f 460 457 81
f 460 81 80
f 461 27 28
f 461 28 29
f 461 456 459
f 461 29 458
f 461 458 456
f 462 457 460
f 462 459 457
f 463 459 462
f 463 27 461
f 463 4 27
f 463 461 459
f 464 462 460
f 464 80 33
f 464 33 34
f 464 460 80
f 465 4 463
f 465 26 4
f 466 462 464
f 466 463 462
f 467 465 463
f 467 26 465
f 467 463 466
f 467 23 24
f 467 24 26
f 468 464 34
f 468 34 35
f 468 35 76
f 468 466 464
f 469 466 468
f 469 467 466
f 470 23 467
f 470 467 469
f 470 331 332
f 470 19 20
f 470 20 21
f 470 21 23
f 470 332 19
f 471 469 468
f 471 468 76
f 471 76 75
f 471 75 36
f 472 330 331
f 472 469 471
f 472 470 469
f 472 331 470
f 473 471 36
f 473 36 73
f 473 329 330
f 473 472 471
f 473 330 472
f 473 73 329
f 511 40 95
f 511 95 474
f 874 474 475
f 874 511 474
f 873 475 476
f 873 874 475
f 872 476 477
f 872 873 476
f 871 477 478
f 871 872 477
f 510 478 479
f 510 871 478
f 509 479 480
f 509 510 479
f 508 480 481
f 508 509 480
f 507 481 482
f 507 508 481
f 506 482 483
f 506 507 482
f 505 483 484
f 505 506 483
f 863 505 484
f 863 484 485
f 861 863 485
f 861 485 486
f 504 861 486
f 504 486 487
f 503 504 487
f 503 487 488
f 502 503 488
f 502 488 489
f 501 489 490
f 501 502 489
f 500 501 490
f 500 490 491
f 499 491 492
f 499 500 491
f 498 492 493
f 498 499 492
f 497 493 494
f 497 498 493
f 496 494 495
f 496 497 494
f 39 496 495
f 39 495 96
f 539 528 529
f 538 539 529
f 538 529 530
f 540 528 539
f 540 527 528
f 537 538 530
f 537 530 531
f 541 527 540
f 541 526 527
f 536 537 531
f 536 531 532
f 542 526 541
f 542 524 525
f 542 525 526
f 535 536 532
f 535 532 533
f 543 524 542
f 534 535 533
f 534 533 84
f 544 524 543
f 544 523 524
f 289 534 84
f 545 522 523
f 545 523 544
f 312 289 84
f 546 520 521
f 546 521 522
f 546 522 545
f 311 84 85
f 311 312 84
f 547 519 520
f 547 520 546
f 310 85 146
f 310 311 85
f 548 518 519
f 548 519 547
f 309 310 146
f 549 518 548
f 308 146 86
f 308 309 146
f 517 518 549
f 550 517 549
f 86 307 308
f 516 550 551
f 516 517 550
f 87 306 307
f 87 307 86
f 515 551 552
f 515 516 551
f 87 305 306
f 514 552 553
f 514 515 552
f 138 305 87
f 138 304 305
f 513 553 554
f 513 514 553
f 88 304 138
f 88 302 303
f 88 303 304
f 512 513 554
f 512 554 555
f 88 301 302
f 93 512 555
f 93 555 290
f 132 301 88
f 93 290 291
f 89 301 132
f 89 300 301
f 92 93 291
f 92 291 292
f 89 298 299
f 89 299 300
f 92 292 293
f 90 298 89
f 90 297 298
f 91 92 293
f 91 293 294
f 90 296 297
f 91 294 295
f 123 296 90
f 123 91 295
f 123 295 296
f 534 289 210
f 534 210 556
f 535 556 557
f 535 534 556
f 536 557 558
f 536 535 557
f 537 558 559
f 537 536 558
f 538 559 560
f 538 537 559
f 539 560 561
f 539 538 560
f 540 561 562
f 540 539 561
f 541 562 563
f 541 563 564
f 541 540 562
f 542 564 565
f 542 541 564
f 543 565 566
f 543 542 565
f 544 566 567
f 544 543 566
f 545 544 567
f 545 567 568
f 546 545 568
f 546 568 569
f 547 546 569
f 547 569 570
f 548 547 570
f 548 570 571
f 549 548 571
f 550 571 572
f 550 572 573
f 550 549 571
f 551 550 573
f 551 573 574
f 552 574 575
f 552 551 574
f 553 575 576
f 553 552 575
f 554 553 576
f 555 576 577
f 555 577 187
f 555 554 576
f 290 555 187
f 581 797 582
f 580 582 794
f 580 581 582
f 180 185 151
f 180 151 183
f 153 180 152
f 578 579 580
f 154 153 175
f 157 158 578
f 157 794 792
f 157 792 790
f 157 583 584
f 157 584 585
f 157 585 159
f 157 790 583
f 157 578 580
f 157 580 794
f 155 159 185
f 155 180 153
f 155 153 154
f 155 156 157
f 155 157 159
f 155 185 180
f 213 159 586
f 602 586 782
f 602 213 586
f 601 782 783
f 601 602 782
f 600 783 785
f 600 601 783
f 599 785 786
f 599 600 785
f 776 786 788
f 776 599 786
f 598 788 789
f 598 776 788
f 773 789 791
f 773 598 789
f 771 773 791
f 597 791 793
f 597 771 791
f 769 793 795
f 769 597 793
f 767 795 796
f 767 769 795
f 765 796 798
f 765 767 796
f 596 765 798
f 596 798 799
f 595 596 799
f 595 799 587
f 761 595 587
f 761 587 801
f 759 801 802
f 759 761 801
f 594 759 802
f 594 802 803
f 757 803 805
f 757 594 803
f 593 805 588
f 593 757 805
f 754 588 589
f 754 593 588
f 752 589 590
f 752 754 589
f 592 590 591
f 592 752 590
f 212 591 162
f 212 592 591
f 386 603 385
f 386 604 603
f 386 605 604
f 387 606 605
f 387 605 386
f 613 612 389
f 390 613 389
f 614 613 390
f 615 614 390
f 391 615 390
f 616 607 606
f 616 387 388
f 616 606 387
f 617 608 616
f 617 609 608
f 617 610 609
f 617 388 389
f 617 616 388
f 618 612 611
f 618 617 389
f 618 610 617
f 618 389 612
f 392 622 391
f 392 623 622
f 392 624 623
f 393 625 624
f 393 624 392
f 396 619 395
f 620 619 396
f 621 620 396
f 397 621 396
f 631 393 394
f 631 626 625
f 631 625 393
f 632 394 395
f 632 627 631
f 632 628 627
f 632 629 628
f 632 631 394
f 633 619 630
f 633 632 395
f 633 629 632
f 633 395 619
f 398 276 634
f 398 277 276
f 399 275 277
f 399 277 398
f 281 285 637
f 281 637 400
f 398 634 397
f 638 399 400
f 638 635 275
f 638 637 636
f 638 400 637
f 638 275 399
f 401 265 264
f 401 266 265
f 401 267 266
f 402 267 401
f 640 639 404
f 405 640 404
f 641 640 405
f 642 641 405
f 406 642 405
f 649 643 267
f 649 267 402
f 650 402 403
f 650 645 644
f 650 646 645
f 650 647 646
f 650 644 649
f 650 649 402
f 651 403 404
f 651 639 648
f 651 650 403
f 651 647 650
f 651 404 639
f 407 652 406
f 407 653 652
f 407 654 653
f 408 655 654
f 408 654 407
f 662 661 411
f 412 662 411
f 663 662 412
f 664 663 412
f 413 664 412
f 665 656 655
f 665 408 409
f 665 655 408
f 666 657 665
f 666 658 657
f 666 659 658
f 666 409 410
f 666 665 409
f 667 661 660
f 667 410 411
f 667 666 410
f 667 659 666
f 667 411 661
f 414 668 413
f 414 669 668
f 414 670 669
f 415 671 670
f 415 670 414
f 674 262 417
f 418 674 417
f 675 674 418
f 676 675 418
f 385 676 418
f 677 672 671
f 677 671 415
f 678 258 673
f 678 259 258
f 678 260 259
f 678 415 416
f 678 416 417
f 678 673 677
f 678 677 415
f 679 262 261
f 679 678 417
f 679 417 262
f 679 260 678
f 702 699 700
f 702 700 701
f 698 699 702
f 697 698 702
f 257 702 703
f 257 697 702
f 257 703 704
f 256 704 705
f 256 257 704
f 256 705 706
f 716 711 712
f 716 712 713
f 716 714 715
f 716 713 714
f 255 706 707
f 255 256 706
f 255 707 708
f 717 711 716
f 717 710 711
f 718 710 717
f 719 710 718
f 719 709 710
f 719 708 709
f 720 255 708
f 720 708 719
f 721 255 720
f 688 689 690
f 687 688 690
f 687 690 691
f 687 692 693
f 687 693 694
f 687 691 692
f 686 687 694
f 686 694 695
f 685 686 695
f 684 695 696
f 684 685 695
f 684 696 255
f 683 684 255
f 274 728 278
f 274 726 727
f 274 727 728
f 274 725 726
f 274 724 725
f 729 723 724
f 729 724 274
f 730 723 729
f 730 722 723
f 731 722 730
f 732 722 731
f 732 255 721
f 732 721 722
f 733 255 732
f 742 682 683
f 742 743 682
f 742 683 255
f 744 681 682
f 744 682 743
f 741 742 255
f 741 255 733
f 744 680 681
f 748 749 750
f 741 733 734
f 745 750 680
f 745 680 744
f 746 747 748
f 746 748 750
f 746 750 745
f 740 741 734
f 740 734 735
f 740 735 736
f 739 740 736
f 263 739 736
f 263 736 737
f 271 737 738
f 271 738 270
f 272 263 737
f 272 273 263
f 272 737 271
f 611 612 711
f 611 711 710
f 618 710 709
f 618 611 710
f 610 709 708
f 610 618 709
f 609 610 708
f 609 708 707
f 608 609 707
f 608 707 706
f 608 706 705
f 616 705 704
f 616 608 705
f 607 704 703
f 607 616 704
f 606 703 702
f 606 607 703
f 613 712 711
f 613 711 612
f 614 713 712
f 614 712 613
f 615 714 713
f 615 713 614
f 391 714 615
f 622 715 714
f 622 714 391
f 623 716 715
f 623 715 622
f 624 716 623
f 625 716 624
f 630 619 724
f 630 724 723
f 633 723 722
f 633 630 723
f 629 633 722
f 628 722 721
f 628 629 722
f 628 721 720
f 627 628 720
f 627 720 719
f 631 719 718
f 631 627 719
f 626 718 717
f 626 631 718
f 625 717 716
f 625 626 717
f 619 725 724
f 620 725 619
f 621 726 725
f 621 725 620
f 397 727 726
f 397 726 621
f 634 728 727
f 634 727 397
f 276 278 728
f 276 728 634
f 288 279 737
f 288 737 736
f 287 736 735
f 287 288 736
f 286 735 734
f 286 287 735
f 285 734 733
f 285 286 734
f 285 733 732
f 637 732 731
f 637 285 732
f 637 731 730
f 636 637 730
f 638 730 729
f 638 636 730
f 635 729 274
f 635 638 729
f 275 635 274
f 280 738 737
f 280 737 279
f 268 738 280
f 648 639 745
f 648 745 744
f 651 744 743
f 651 648 744
f 647 651 743
f 646 743 742
f 646 647 743
f 646 742 741
f 645 646 741
f 645 741 740
f 644 645 740
f 649 740 739
f 649 644 740
f 643 739 263
f 643 649 739
f 267 643 263
f 640 746 745
f 640 745 639
f 641 746 640
f 642 747 746
f 642 748 747
f 642 746 641
f 406 748 642
f 652 749 748
f 652 748 406
f 653 750 749
f 653 749 652
f 654 750 653
f 655 750 654
f 660 661 687
f 660 687 686
f 667 686 685
f 667 660 686
f 659 685 684
f 659 667 685
f 658 659 684
f 658 684 683
f 657 658 683
f 657 683 682
f 665 682 681
f 665 657 682
f 656 681 680
f 656 665 681
f 655 680 750
f 655 656 680
f 662 688 687
f 662 687 661
f 663 689 688
f 663 688 662
f 664 690 689
f 664 689 663
f 413 690 664
f 668 691 690
f 668 690 413
f 669 692 691
f 669 691 668
f 670 693 692
f 670 692 669
f 671 693 670
f 258 255 696
f 673 696 695
f 673 258 696
f 677 695 694
f 677 673 695
f 672 694 693
f 672 677 694
f 671 672 693
f 674 698 697
f 674 697 262
f 675 698 674
f 676 699 698
f 676 698 675
f 385 700 699
f 385 699 676
f 603 701 700
f 603 700 385
f 604 701 603
f 605 702 701
f 605 701 604
f 606 702 605
f 577 211 187
f 592 212 211
f 592 211 577
f 751 577 576
f 752 592 577
f 752 577 751
f 753 576 575
f 753 751 576
f 754 752 751
f 754 751 753
f 755 575 574
f 755 753 575
f 755 754 753
f 755 593 754
f 756 574 573
f 756 755 574
f 757 593 755
f 757 755 756
f 572 756 573
f 594 757 756
f 594 756 572
f 758 572 571
f 759 594 572
f 759 572 758
f 760 571 570
f 760 758 571
f 761 759 758
f 761 758 760
f 762 570 569
f 762 760 570
f 595 761 760
f 595 760 762
f 763 569 568
f 763 595 762
f 763 762 569
f 763 596 595
f 764 568 567
f 764 763 568
f 765 596 763
f 765 763 764
f 766 764 567
f 766 567 566
f 767 764 766
f 767 765 764
f 768 566 565
f 768 766 566
f 769 767 766
f 769 766 768
f 770 565 564
f 770 768 565
f 597 769 768
f 597 768 770
f 563 770 564
f 771 597 770
f 771 770 563
f 772 563 562
f 772 771 563
f 773 771 772
f 774 562 561
f 774 772 562
f 774 598 773
f 774 773 772
f 775 561 560
f 775 774 561
f 776 774 775
f 776 598 774
f 777 559 558
f 777 560 559
f 777 776 775
f 777 775 560
f 599 776 777
f 778 599 777
f 778 777 558
f 600 599 778
f 779 558 557
f 779 778 558
f 779 600 778
f 601 600 779
f 780 556 210
f 780 557 556
f 780 779 557
f 780 210 221
f 602 601 779
f 602 780 221
f 602 221 213
f 602 779 780
f 586 159 585
f 782 586 585
f 782 585 781
f 781 585 584
f 783 782 781
f 784 781 584
f 785 783 781
f 785 781 784
f 583 784 584
f 786 785 784
f 786 784 583
f 788 583 787
f 788 786 583
f 787 583 790
f 789 788 787
f 791 789 787
f 791 787 790
f 792 791 790
f 793 791 792
f 795 793 792
f 795 792 794
f 796 794 582
f 796 795 794
f 798 796 582
f 798 582 797
f 799 798 797
f 800 797 581
f 587 799 797
f 587 797 800
f 801 587 800
f 580 800 581
f 802 800 580
f 802 801 800
f 804 580 579
f 804 802 580
f 803 802 804
f 805 803 804
f 806 579 578
f 806 804 579
f 588 805 804
f 588 804 806
f 807 806 578
f 589 806 807
f 589 588 806
f 590 589 807
f 808 578 158
f 808 807 578
f 808 158 162
f 808 590 807
f 808 591 590
f 808 162 591
f 96 495 112
f 809 94 84
f 809 84 533
f 810 95 94
f 810 474 95
f 810 94 809
f 811 533 532
f 811 809 533
f 812 810 809
f 812 474 810
f 812 475 474
f 812 809 811
f 813 532 531
f 813 811 532
f 814 476 475
f 814 812 811
f 814 475 812
f 814 811 813
f 815 531 530
f 815 813 531
f 816 814 813
f 816 813 815
f 816 477 476
f 816 478 477
f 816 476 814
f 817 816 815
f 817 530 529
f 817 815 530
f 818 478 816
f 818 816 817
f 819 529 528
f 819 817 529
f 820 817 819
f 820 478 818
f 820 479 478
f 820 818 817
f 821 528 527
f 821 819 528
f 822 819 821
f 822 480 479
f 822 820 819
f 822 479 820
f 823 821 527
f 823 526 525
f 823 527 526
f 824 822 821
f 824 480 822
f 824 481 480
f 824 821 823
f 825 823 525
f 826 824 823
f 826 482 481
f 826 483 482
f 826 823 825
f 826 481 824
f 827 826 825
f 827 524 523
f 827 525 524
f 827 825 525
f 828 483 826
f 828 826 827
f 829 827 523
f 830 483 828
f 830 484 483
f 830 828 827
f 830 827 829
f 831 523 522
f 831 829 523
f 832 485 484
f 832 830 829
f 832 484 830
f 832 829 831
f 833 831 522
f 833 521 520
f 833 522 521
f 833 832 831
f 834 832 833
f 834 486 485
f 834 485 832
f 835 520 519
f 835 833 520
f 836 487 486
f 836 834 833
f 836 486 834
f 836 833 835
f 837 835 519
f 838 835 837
f 838 488 487
f 838 487 836
f 838 836 835
f 839 519 518
f 839 837 519
f 839 838 837
f 840 489 488
f 840 488 838
f 840 838 839
f 841 518 517
f 841 839 518
f 842 840 839
f 842 490 489
f 842 489 840
f 842 839 841
f 843 516 515
f 843 517 516
f 843 841 517
f 844 490 842
f 844 841 843
f 844 842 841
f 844 491 490
f 845 843 515
f 846 491 844
f 846 843 845
f 846 492 491
f 846 844 843
f 847 515 514
f 847 846 845
f 847 845 515
f 848 492 846
f 848 846 847
f 848 493 492
f 849 513 512
f 849 514 513
f 849 847 514
f 850 848 847
f 850 493 848
f 850 847 849
f 850 494 493
f 851 512 93
f 851 849 512
f 851 93 111
f 851 111 112
f 852 850 849
f 852 494 850
f 852 851 112
f 852 495 494
f 852 112 495
f 852 849 851
f 426 496 427
f 425 497 426
f 424 498 425
f 855 499 424
f 856 500 855
f 423 501 856
f 871 510 318
f 872 871 317
f 873 872 316
f 874 873 315
f 511 874 314
f 55 313 54
f 56 313 55
f 40 511 313
f 40 313 56
f 853 37 31
f 853 31 427
f 853 427 496
f 854 38 37
f 854 39 38
f 854 496 39
f 854 37 853
f 854 853 496
f 426 497 496
f 425 498 497
f 424 499 498
f 855 500 499
f 856 501 500
f 423 502 501
f 857 423 422
f 857 502 423
f 858 502 857
f 858 503 502
f 858 857 422
f 859 422 421
f 859 503 858
f 859 858 422
f 421 503 859
f 421 504 503
f 504 421 420
f 860 861 504
f 860 504 420
f 861 420 419
f 861 860 420
f 862 863 861
f 862 861 419
f 863 419 864
f 863 862 419
f 864 505 863
f 505 864 865
f 865 506 505
f 866 865 320
f 866 506 865
f 320 507 506
f 320 506 866
f 507 320 867
f 867 508 507
f 508 867 868
f 868 509 508
f 509 868 319
f 869 509 319
f 869 510 509
f 870 319 318
f 870 869 319
f 870 510 869
f 870 318 510
f 871 318 317
f 872 317 316
f 873 316 315
f 874 315 314
f 511 314 313
f 876 428 875
f 429 876 384
f 877 429 383
f 878 877 382
f 879 878 381
f 896 895 376
f 375 328 896
f 898 897 375
f 374 899 898
f 901 900 374
f 8 902 901
f 875 428 1
f 876 875 384
f 429 384 383
f 877 383 382
f 878 382 381
f 879 381 880
f 881 879 880
f 881 430 879
f 881 880 380
f 881 882 430
f 882 881 380
f 882 380 883
f 883 431 882
f 884 883 379
f 885 432 431
f 885 431 883
f 885 883 884
f 885 884 379
f 432 885 379
f 886 379 887
f 886 432 379
f 887 325 886
f 888 887 889
f 888 325 887
f 890 888 889
f 890 889 891
f 892 891 378
f 892 890 891
f 892 378 377
f 893 892 377
f 893 326 892
f 893 377 894
f 893 327 326
f 894 327 893
f 895 327 894
f 895 894 376
f 896 328 895
f 897 328 375
f 899 897 898
f 900 899 374
f 902 900 901

