# https://github.com/mikedh/trimesh
v 50.81458683 12.94881152 -28.00000000
v 48.59211539 38.35177633 -28.00000000
v 50.98889831 10.95642213 -26.00000000
v 50.98740705 10.97346730 -26.26105238
v 50.98295879 11.02431115 -26.51763809
v 50.97562964 11.10808374 -26.76536686
v 50.96554500 11.22335169 -27.00000000
v 50.95287742 11.36814274 -27.21752286
v 50.93784366 11.53997947 -27.41421356
v 50.92070093 11.73592171 -27.58670668
v 50.90174257 11.95261683 -27.73205081
v 50.88129294 12.18635711 -27.84775907
v 50.85970196 12.43314320 -27.93185165
v 50.83733904 12.68875252 -27.98288972
v 50.98889831 10.95642213 -4.75000000
v 51.03247618 10.45832478 -4.25000000
v 51.02678813 10.52333953 -4.25427757
v 51.02119740 10.58724186 -4.26703709
v 51.01579965 10.64893838 -4.28806023
v 51.01068725 10.70737345 -4.31698730
v 51.00594766 10.76154723 -4.35332333
v 51.00166197 10.81053279 -4.39644661
v 50.99790353 10.85349198 -4.44561929
v 50.99473664 10.88968974 -4.50000000
v 50.99221548 10.91850673 -4.55865828
v 50.99038319 10.93944987 -4.62059048
v 50.98927113 10.95216084 -4.68473690
v 51.25036554 7.96783803 -4.25000000
v 51.42467702 5.97544864 -2.25000000
v 51.42318577 5.99249381 -2.51105238
v 51.41873750 6.04333766 -2.76763809
v 51.41140835 6.12711025 -3.01536686
v 51.40132371 6.24237820 -3.25000000
v 51.38865614 6.38716925 -3.46752286
v 51.37362237 6.55900598 -3.66421356
v 51.35647965 6.75494822 -3.83670668
v 51.33752128 6.97164334 -3.98205081
v 51.31707166 7.20538362 -4.09775907
v 51.29548067 7.45216971 -4.18185165
v 51.27311775 7.70777903 -4.23288972
v 51.42467702 5.97544864 8.25000000
v 51.25036554 7.96783803 10.25000000
v 51.27311775 7.70777903 10.23288972
v 51.29548067 7.45216971 10.18185165
v 51.31707166 7.20538362 10.09775907
v 51.33752128 6.97164334 9.98205081
v 51.35647965 6.75494822 9.83670668
v 51.37362237 6.55900598 9.66421356
v 51.38865614 6.38716925 9.46752286
v 51.40132371 6.24237820 9.25000000
v 51.41140835 6.12711025 9.01536686
v 51.41873750 6.04333766 8.76763809
v 51.42318577 5.99249381 8.51105238
v 51.03247618 10.45832478 10.25000000
v 50.98889831 10.95642213 10.75000000
v 50.98927113 10.95216084 10.68473690
v 50.99038319 10.93944987 10.62059048
v 50.99221548 10.91850673 10.55865828
v 50.99473664 10.88968974 10.50000000
v 50.99790353 10.85349198 10.44561929
v 51.00166197 10.81053279 10.39644661
v 51.00594766 10.76154723 10.35332333
v 51.01068725 10.70737345 10.31698730
v 51.01579965 10.64893838 10.28806023
v 51.02119740 10.58724186 10.26703709
v 51.02678813 10.52333953 10.25427757
v 50.98889831 10.95642213 26.00000000
v 50.81458683 12.94881152 28.00000000
v 50.83733904 12.68875252 27.98288972
v 50.85970196 12.43314320 27.93185165
v 50.88129294 12.18635711 27.84775907
v 50.90174257 11.95261683 27.73205081
v 50.92070093 11.73592171 27.58670668
v 50.93784366 11.53997947 27.41421356
v 50.95287742 11.36814274 27.21752286
v 50.96554500 11.22335169 27.00000000
v 50.97562964 11.10808374 26.76536686
v 50.98295879 11.02431115 26.51763809
v 50.98740705 10.97346730 26.26105238
v 48.59211539 38.35177633 28.00000000
v 48.41780390 40.34416572 26.00000000
v 48.41929516 40.32712055 26.26105238
v 48.42374342 40.27627670 26.51763809
v 48.43107257 40.19250411 26.76536686
v 48.44115721 40.07723616 27.00000000
v 48.45382479 39.93244511 27.21752286
v 48.46885855 39.76060838 27.41421356
v 48.48600128 39.56466614 27.58670668
v 48.50495964 39.34797102 27.73205081
v 48.52540927 39.11423074 27.84775907
v 48.54700025 38.86744465 27.93185165
v 48.56936317 38.61183533 27.98288972
v 48.41780390 40.34416572 23.50000000
v 48.37422603 40.84226307 23.00000000
v 48.37991408 40.77724832 23.00427757
v 48.38550481 40.71334599 23.01703709
v 48.39090256 40.65164947 23.03806023
v 48.39601496 40.59321440 23.06698730
v 48.40075456 40.53904062 23.10332333
v 48.40504024 40.49005506 23.14644661
v 48.40879868 40.44709588 23.19561929
v 48.41196557 40.41089811 23.25000000
v 48.41448673 40.38208113 23.30865828
v 48.41631902 40.36113798 23.37059048
v 48.41743109 40.34842701 23.43473690
v 47.15404563 54.78898884 23.00000000
v 46.97973414 56.78137824 21.00000000
v 46.98122540 56.76433307 21.26105238
v 46.98567366 56.71348922 21.51763809
v 46.99300282 56.62971663 21.76536686
v 47.00308746 56.51444868 22.00000000
v 47.01575503 56.36965763 22.21752286
v 47.03078880 56.19782090 22.41421356
v 47.04793152 56.00187866 22.58670668
v 47.06688989 55.78518354 22.73205081
v 47.08733951 55.55144326 22.84775907
v 47.10893050 55.30465717 22.93185165
v 47.13129342 55.04904785 22.98288972
v 46.97973414 56.78137824 -21.00000000
v 47.15404563 54.78898884 -23.00000000
v 47.13129342 55.04904785 -22.98288972
v 47.10893050 55.30465717 -22.93185165
v 47.08733951 55.55144326 -22.84775907
v 47.06688989 55.78518354 -22.73205081
v 47.04793152 56.00187866 -22.58670668
v 47.03078880 56.19782090 -22.41421356
v 47.01575503 56.36965763 -22.21752286
v 47.00308746 56.51444868 -22.00000000
v 46.99300282 56.62971663 -21.76536686
v 46.98567366 56.71348922 -21.51763809
v 46.98122540 56.76433307 -21.26105238
v 48.37422603 40.84226307 -23.00000000
v 48.41780390 40.34416572 -23.50000000
v 48.41743109 40.34842701 -23.43473690
v 48.41631902 40.36113798 -23.37059048
v 48.41448673 40.38208113 -23.30865828
v 48.41196557 40.41089811 -23.25000000
v 48.40879868 40.44709588 -23.19561929
v 48.40504024 40.49005506 -23.14644661
v 48.40075456 40.53904062 -23.10332333
v 48.39601496 40.59321440 -23.06698730
v 48.39090256 40.65164947 -23.03806023
v 48.38550481 40.71334599 -23.01703709
v 48.37991408 40.77724832 -23.00427757
v 48.41780390 40.34416572 -26.00000000
v 48.56936317 38.61183533 -27.98288972
v 48.54700025 38.86744465 -27.93185165
v 48.52540927 39.11423074 -27.84775907
v 48.50495964 39.34797102 -27.73205081
v 48.48600128 39.56466614 -27.58670668
v 48.46885855 39.76060838 -27.41421356
v 48.45382479 39.93244511 -27.21752286
v 48.44115721 40.07723616 -27.00000000
v 48.43107257 40.19250411 -26.76536686
v 48.42374342 40.27627670 -26.51763809
v 48.41929516 40.32712055 -26.26105238
v 47.54188088 50.35601162 14.02943976
v 47.47735321 51.09356628 14.02943976
v 47.47735321 51.09356628 13.76681174
v 47.43365731 51.59301275 13.70938919
v 47.43365731 51.59301275 14.02943976
v 47.25427546 53.64335665 14.02943976
v 47.25427546 53.64335665 14.66458566
v 47.43365731 51.59301275 15.86812740
v 47.47735321 51.09356628 15.86812740
v 47.47735321 51.09356628 14.61211836
v 47.54188088 50.35601162 14.61211836
v 50.01736226 22.06113000 -5.28380019
v 49.71035324 25.57025915 -5.28380019
v 49.71035324 25.57025915 -12.32890351
v 48.78932301 36.09768289 -12.32890351
v 48.78932301 36.09768289 -15.85143698
v 48.48231399 39.60681205 -15.85143698
v 48.17530497 43.11594121 -15.85143698
v 48.17530497 43.11594121 -12.32890351
v 47.56128375 50.13423578 -12.32890351
v 47.56128375 50.13423578 -5.28380019
v 47.25427473 53.64336494 -5.28380019
v 47.25427473 53.64336494 1.76126673
v 47.25427473 53.64336494 5.28380019
v 47.56128375 50.13423578 5.28380019
v 47.56128375 50.13423578 12.32890351
v 48.17530497 43.11594121 12.32890351
v 48.17530497 43.11594121 15.85143698
v 48.48231399 39.60681205 15.85143698
v 49.09633365 32.58853521 15.85145431
v 49.09633203 32.58855373 12.32890351
v 49.71035324 25.57025915 12.32890351
v 49.71035324 25.57025915 5.28380019
v 50.01736226 22.06113000 5.28380019
v 50.01736226 22.06113000 1.76126673
v 49.71035324 25.57025915 1.76126673
v 48.48231399 39.60681205 -12.32890351
v 48.48231399 39.60681205 12.32890351
v 47.56128375 50.13423578 1.76126673
v 47.32835526 52.79662066 14.61211836
v 47.43365731 51.59301275 15.30935058
v 47.43365731 51.59301275 14.61211836
v 47.86829277 46.62510662 -8.80633365
v 47.86829277 46.62510662 8.76091628
v 49.40334422 29.07938831 8.76091628
v 49.40334422 29.07938831 -8.80633365
v 48.78932301 36.09768289 -5.28380019
v 48.17530497 43.11594121 -5.28380019
v 48.17530497 43.11594121 -1.76126673
v 48.78932301 36.09768289 -1.76126673
v 48.78941016 36.09668669 5.28383659
v 49.09633203 32.58855373 5.28383659
v 49.09633203 32.58855373 -1.76126673
v 48.78941016 36.09668669 -1.76126673
v 48.48231399 39.60681205 5.28383659
v 48.48231399 39.60681205 1.76126673
v 48.17530497 43.11594121 1.76126673
v 48.17530497 43.11594121 5.28383659
v 48.09401804 38.30819845 -28.00000000
v 48.07126582 38.56825746 -27.98288972
v 48.04890290 38.82386678 -27.93185165
v 48.02731192 39.07065287 -27.84775907
v 48.00686229 39.30439315 -27.73205081
v 47.98790393 39.52108827 -27.58670668
v 47.97076120 39.71703051 -27.41421356
v 47.95572744 39.88886724 -27.21752286
v 47.94305986 40.03365829 -27.00000000
v 47.93297522 40.14892624 -26.76536686
v 47.92564607 40.23269883 -26.51763809
v 47.92119781 40.28354268 -26.26105238
v 47.91970655 40.30058785 -26.00000000
v 47.91970655 40.30058785 -23.50000000
v 47.87612868 40.79868520 -23.00000000
v 47.91933374 40.30484914 -23.43473690
v 47.91822167 40.31756011 -23.37059048
v 47.91638938 40.33850325 -23.30865828
v 47.91386822 40.36732024 -23.25000000
v 47.91070133 40.40351800 -23.19561929
v 47.90694289 40.44647719 -23.14644661
v 47.90265721 40.49546275 -23.10332333
v 47.89791762 40.54963653 -23.06698730
v 47.89280521 40.60807160 -23.03806023
v 47.88740746 40.66976812 -23.01703709
v 47.88181673 40.73367045 -23.00427757
v 46.65594828 54.74541097 -23.00000000
v 46.63319607 55.00546997 -22.98288972
v 46.61083315 55.26107929 -22.93185165
v 46.58924216 55.50786539 -22.84775907
v 46.56879254 55.74160567 -22.73205081
v 46.54983417 55.95830079 -22.58670668
v 46.53269145 56.15424303 -22.41421356
v 46.51765768 56.32607976 -22.21752286
v 46.50499011 56.47087080 -22.00000000
v 46.49490547 56.58613876 -21.76536686
v 46.48757632 56.66991135 -21.51763809
v 46.48312805 56.72075520 -21.26105238
v 46.48163680 56.73780037 -21.00000000
v 46.48163680 56.73780037 21.00000000
v 46.48312805 56.72075520 21.26105238
v 46.48757632 56.66991135 21.51763809
v 46.49490547 56.58613876 21.76536686
v 46.50499011 56.47087080 22.00000000
v 46.51765768 56.32607976 22.21752286
v 46.53269145 56.15424303 22.41421356
v 46.54983417 55.95830079 22.58670668
v 46.56879254 55.74160567 22.73205081
v 46.58924216 55.50786539 22.84775907
v 46.61083315 55.26107929 22.93185165
v 46.63319607 55.00546997 22.98288972
v 46.65594828 54.74541097 23.00000000
v 47.87612868 40.79868520 23.00000000
v 47.91970655 40.30058785 23.50000000
v 47.88181673 40.73367045 23.00427757
v 47.88740746 40.66976812 23.01703709
v 47.89280521 40.60807160 23.03806023
v 47.89791762 40.54963653 23.06698730
v 47.90265721 40.49546275 23.10332333
v 47.90694289 40.44647719 23.14644661
v 47.91070133 40.40351800 23.19561929
v 47.91386822 40.36732024 23.25000000
v 47.91638938 40.33850325 23.30865828
v 47.91822167 40.31756011 23.37059048
v 47.91933374 40.30484914 23.43473690
v 47.91970655 40.30058785 26.00000000
v 47.92119781 40.28354268 26.26105238
v 47.92564607 40.23269883 26.51763809
v 47.93297522 40.14892624 26.76536686
v 47.94305986 40.03365829 27.00000000
v 47.95572744 39.88886724 27.21752286
v 47.97076120 39.71703051 27.41421356
v 47.98790393 39.52108827 27.58670668
v 48.00686229 39.30439315 27.73205081
v 48.02731192 39.07065287 27.84775907
v 48.04890290 38.82386678 27.93185165
v 48.07126582 38.56825746 27.98288972
v 48.09401804 38.30819845 28.00000000
v 50.31648948 12.90523365 28.00000000
v 50.33924169 12.64517465 27.98288972
v 50.36160461 12.38956533 27.93185165
v 50.38319559 12.14277924 27.84775907
v 50.40364522 11.90903896 27.73205081
v 50.42260359 11.69234384 27.58670668
v 50.43974631 11.49640160 27.41421356
v 50.45478008 11.32456487 27.21752286
v 50.46744765 11.17977382 27.00000000
v 50.47753229 11.06450587 26.76536686
v 50.48486144 10.98073328 26.51763809
v 50.48930970 10.92988942 26.26105238
v 50.49080096 10.91284426 26.00000000
v 50.49080096 10.91284426 10.75000000
v 50.53437883 10.41474691 10.25000000
v 50.49117378 10.90858297 10.68473690
v 50.49228584 10.89587200 10.62059048
v 50.49411813 10.87492885 10.55865828
v 50.49663929 10.84611187 10.50000000
v 50.49980618 10.80991410 10.44561929
v 50.50356462 10.76695492 10.39644661
v 50.50785031 10.71796936 10.35332333
v 50.51258990 10.66379558 10.31698730
v 50.51770230 10.60536051 10.28806023
v 50.52310005 10.54366399 10.26703709
v 50.52869078 10.47976166 10.25427757
v 50.75226819 7.92426016 10.25000000
v 50.77502040 7.66420116 10.23288972
v 50.79738332 7.40859184 10.18185165
v 50.81897431 7.16180575 10.09775907
v 50.83942393 6.92806546 9.98205081
v 50.85838230 6.71137035 9.83670668
v 50.87552502 6.51542811 9.66421356
v 50.89055879 6.34359138 9.46752286
v 50.90322636 6.19880033 9.25000000
v 50.91331100 6.08353238 9.01536686
v 50.92064016 5.99975979 8.76763809
v 50.92508842 5.94891593 8.51105238
v 50.92657968 5.93187077 8.25000000
v 50.92657968 5.93187077 -2.25000000
v 50.92508842 5.94891593 -2.51105238
v 50.92064016 5.99975979 -2.76763809
v 50.91331100 6.08353238 -3.01536686
v 50.90322636 6.19880033 -3.25000000
v 50.89055879 6.34359138 -3.46752286
v 50.87552502 6.51542811 -3.66421356
v 50.85838230 6.71137035 -3.83670668
v 50.83942393 6.92806546 -3.98205081
v 50.81897431 7.16180575 -4.09775907
v 50.79738332 7.40859184 -4.18185165
v 50.77502040 7.66420116 -4.23288972
v 50.75226819 7.92426016 -4.25000000
v 50.53437883 10.41474691 -4.25000000
v 50.49080096 10.91284426 -4.75000000
v 50.52869078 10.47976166 -4.25427757
v 50.52310005 10.54366399 -4.26703709
v 50.51770230 10.60536051 -4.28806023
v 50.51258990 10.66379558 -4.31698730
v 50.50785031 10.71796936 -4.35332333
v 50.50356462 10.76695492 -4.39644661
v 50.49980618 10.80991410 -4.44561929
v 50.49663929 10.84611187 -4.50000000
v 50.49411813 10.87492885 -4.55865828
v 50.49228584 10.89587200 -4.62059048
v 50.49117378 10.90858297 -4.68473690
v 50.49080096 10.91284426 -26.00000000
v 50.48930970 10.92988942 -26.26105238
v 50.48486144 10.98073328 -26.51763809
v 50.47753229 11.06450587 -26.76536686
v 50.46744765 11.17977382 -27.00000000
v 50.45478008 11.32456487 -27.21752286
v 50.43974631 11.49640160 -27.41421356
v 50.42260359 11.69234384 -27.58670668
v 50.40364522 11.90903896 -27.73205081
v 50.38319559 12.14277924 -27.84775907
v 50.36160461 12.38956533 -27.93185165
v 50.33924169 12.64517465 -27.98288972
v 50.31648948 12.90523365 -28.00000000
v 48.22511470 43.12029899 -5.28380019
v 48.22511470 43.12029899 -1.76126673
v 48.83913274 36.10204068 -5.28380019
v 48.83913274 36.10204068 -1.76126673
v 48.53212372 39.61116984 1.76126673
v 48.22511470 43.12029899 1.76126673
v 48.53212372 39.61116984 5.28383659
v 48.22511470 43.12029899 5.28383659
v 49.14614176 32.59291152 5.28383659
v 49.14614176 32.59291152 -1.76126673
v 48.83921990 36.10104448 5.28383659
v 48.83921990 36.10104448 -1.76126673
v 48.53212372 39.61116984 -12.32890351
v 47.61109349 50.13859357 -12.32890351
v 48.53212372 39.61116984 -15.85143698
v 48.83913274 36.10204068 -15.85143698
v 48.83913274 36.10204068 -12.32890351
v 49.76016298 25.57461694 -12.32890351
v 49.76016298 25.57461694 1.76126673
v 50.06717200 22.06548778 1.76126673
v 50.06717200 22.06548778 5.28380019
v 49.76016298 25.57461694 5.28380019
v 49.76016298 25.57461694 12.32890351
v 49.14614176 32.59291152 12.32890351
v 49.14614338 32.59289300 15.85145431
v 48.53212372 39.61116984 15.85143698
v 48.53212372 39.61116984 12.32890351
v 47.61109349 50.13859357 12.32890351
v 47.61109349 50.13859357 5.28380019
v 47.30408447 53.64772273 5.28380019
v 47.30408447 53.64772273 1.76126673
v 47.61109349 50.13859357 1.76126673
v 47.91810251 46.62946441 -8.80633365
v 47.91810251 46.62946441 8.76091628
v 49.45315396 29.08374610 8.76091628
v 49.45315396 29.08374610 -8.80633365
v 47.52716295 51.09792407 15.86812740
v 47.52716295 51.09792407 14.61211836
v 47.48346704 51.59737054 15.86812740
v 47.30408519 53.64771443 14.66458566
v 47.30408519 53.64771443 14.02943976
v 47.48346704 51.59737054 14.02943976
v 47.48346704 51.59737054 13.70938919
v 47.52716295 51.09792407 13.76681174
v 47.52716295 51.09792407 14.02943976
v 47.59169062 50.36036941 14.02943976
v 47.59169062 50.36036941 14.61211836
v 47.37816499 52.80097845 14.61211836
v 47.48346704 51.59737054 15.30935058
v 47.48346704 51.59737054 14.61211836
v 47.30408447 53.64772273 -5.28380019
v 47.61109349 50.13859357 -5.28380019
v 48.22511470 43.12029899 12.32890351
v 48.22511470 43.12029899 15.85143698
v 49.76016298 25.57461694 -5.28380019
v 50.06717200 22.06548778 -5.28380019
v 48.22511470 43.12029899 -12.32890351
v 48.22511470 43.12029899 -15.85143698
f 123 124 125
f 122 123 125
f 122 125 126
f 122 126 127
f 122 127 128
f 131 122 128
f 131 128 129
f 131 129 130
f 120 121 122
f 120 122 131
f 119 120 131
f 153 151 152
f 148 151 153
f 148 149 150
f 148 150 151
f 2 146 147
f 2 147 148
f 145 148 153
f 145 2 148
f 145 153 154
f 145 154 155
f 145 155 156
f 133 2 145
f 134 2 133
f 176 120 119
f 178 176 119
f 174 132 120
f 174 120 176
f 173 140 141
f 173 141 142
f 173 142 143
f 173 143 144
f 173 144 132
f 173 132 174
f 177 176 178
f 175 174 176
f 172 134 135
f 172 135 136
f 172 136 137
f 172 137 138
f 172 138 139
f 172 139 140
f 172 2 134
f 172 140 173
f 179 178 119
f 13 14 1
f 12 13 1
f 10 11 12
f 8 9 10
f 7 12 1
f 7 10 12
f 7 8 10
f 182 162 160
f 182 181 180
f 182 180 162
f 170 1 2
f 170 2 172
f 170 172 171
f 161 160 162
f 159 182 160
f 4 5 6
f 4 6 7
f 3 7 1
f 3 1 170
f 3 4 7
f 157 182 159
f 157 159 158
f 107 163 162
f 107 180 179
f 107 179 119
f 107 162 180
f 164 163 107
f 165 167 166
f 109 107 108
f 110 107 109
f 111 107 110
f 112 107 111
f 113 107 112
f 116 113 114
f 116 114 115
f 106 116 117
f 106 117 118
f 106 164 107
f 106 107 113
f 106 113 116
f 106 165 164
f 183 182 157
f 168 170 169
f 184 183 157
f 184 167 165
f 184 157 167
f 94 165 106
f 94 184 165
f 94 185 184
f 95 185 94
f 96 185 95
f 97 185 96
f 98 185 97
f 99 185 98
f 100 185 99
f 101 185 100
f 186 102 103
f 186 103 104
f 186 185 101
f 186 104 105
f 186 105 93
f 186 101 102
f 15 3 170
f 15 170 168
f 27 15 168
f 26 27 168
f 25 26 168
f 25 168 191
f 24 25 191
f 23 24 191
f 22 23 191
f 21 22 191
f 20 21 191
f 19 20 191
f 188 187 186
f 188 190 189
f 85 83 84
f 87 83 85
f 87 85 86
f 88 83 87
f 89 83 88
f 39 40 28
f 37 38 39
f 92 90 91
f 80 186 93
f 80 83 89
f 80 90 92
f 80 81 82
f 80 82 83
f 80 89 90
f 80 93 81
f 33 34 35
f 33 35 36
f 33 36 37
f 32 39 28
f 32 37 39
f 32 33 37
f 29 16 17
f 29 28 16
f 29 30 31
f 29 31 32
f 29 32 28
f 62 190 61
f 60 61 190
f 63 190 62
f 63 191 190
f 59 60 190
f 58 59 190
f 64 19 191
f 64 191 63
f 57 58 190
f 65 18 19
f 65 19 64
f 56 57 190
f 66 18 65
f 66 17 18
f 66 29 17
f 55 56 190
f 55 190 188
f 41 29 66
f 41 54 42
f 41 66 54
f 43 41 42
f 43 53 41
f 52 53 43
f 50 51 52
f 46 44 45
f 47 44 46
f 47 43 44
f 48 52 43
f 48 43 47
f 48 50 52
f 48 49 50
f 68 186 80
f 68 188 186
f 67 55 188
f 67 188 68
f 79 67 68
f 76 77 78
f 72 70 71
f 75 76 78
f 75 78 79
f 74 79 68
f 74 75 79
f 74 70 72
f 74 68 69
f 74 69 70
f 74 72 73
f 192 168 169
f 191 168 192
f 193 174 175
f 193 173 174
f 185 194 183
f 185 183 184
f 195 178 179
f 195 177 178
f 196 162 163
f 159 160 161
f 158 159 161
f 198 161 196
f 166 158 161
f 166 161 198
f 157 158 166
f 197 166 198
f 167 157 166
f 164 197 196
f 164 196 163
f 165 166 197
f 165 197 164
f 162 196 161
f 177 199 176
f 175 176 199
f 193 175 199
f 195 199 177
f 171 173 193
f 171 172 173
f 181 179 180
f 181 195 179
f 200 195 181
f 200 199 195
f 182 200 181
f 202 170 171
f 169 170 202
f 183 200 182
f 194 200 183
f 192 169 202
f 201 200 194
f 201 192 202
f 189 192 201
f 187 194 185
f 187 201 194
f 190 191 192
f 190 192 189
f 186 187 185
f 188 189 201
f 188 201 187
f 202 193 199
f 202 171 193
f 205 204 199
f 203 199 204
f 200 205 199
f 200 213 205
f 212 205 213
f 206 205 212
f 202 199 203
f 214 213 200
f 210 203 206
f 209 203 210
f 209 202 203
f 211 214 200
f 207 212 211
f 207 210 206
f 207 206 212
f 201 208 207
f 201 209 208
f 201 202 209
f 201 211 200
f 201 207 211
f 214 212 213
f 211 212 214
f 203 204 205
f 206 203 205
f 197 198 196
f 226 227 145
f 226 156 155
f 226 145 156
f 225 155 154
f 225 226 155
f 224 154 153
f 224 225 154
f 223 153 152
f 223 224 153
f 222 152 151
f 222 223 152
f 221 151 150
f 221 222 151
f 220 150 149
f 220 221 150
f 219 149 148
f 219 220 149
f 218 148 147
f 218 219 148
f 217 147 146
f 217 218 147
f 216 146 2
f 216 217 146
f 215 216 2
f 133 145 227
f 133 227 228
f 230 133 228
f 230 134 133
f 231 135 134
f 231 134 230
f 232 136 135
f 232 135 231
f 233 137 136
f 233 136 232
f 234 138 137
f 234 137 233
f 235 139 138
f 235 138 234
f 236 140 139
f 236 139 235
f 237 141 140
f 237 140 236
f 238 142 141
f 238 141 237
f 239 143 142
f 239 144 143
f 239 142 238
f 240 144 239
f 229 132 144
f 229 144 240
f 241 132 229
f 120 132 241
f 253 119 131
f 252 253 131
f 251 131 130
f 251 252 131
f 250 130 129
f 250 251 130
f 249 129 128
f 249 250 129
f 248 128 127
f 248 249 128
f 247 127 126
f 247 248 127
f 246 126 125
f 246 247 126
f 245 125 124
f 245 246 125
f 244 124 123
f 244 245 124
f 243 123 122
f 243 244 123
f 242 122 121
f 242 243 122
f 241 121 120
f 241 242 121
f 107 119 253
f 107 253 254
f 266 106 118
f 265 266 118
f 264 118 117
f 264 265 118
f 263 117 116
f 263 264 117
f 262 116 115
f 262 263 116
f 261 115 114
f 261 262 115
f 260 114 113
f 260 261 114
f 259 113 112
f 259 260 113
f 258 112 111
f 258 259 112
f 257 111 110
f 257 258 111
f 256 110 109
f 256 257 110
f 255 108 107
f 255 109 108
f 255 256 109
f 254 255 107
f 266 94 106
f 266 267 94
f 267 95 94
f 269 96 95
f 269 95 267
f 270 97 96
f 270 96 269
f 271 98 97
f 271 97 270
f 272 99 98
f 272 98 271
f 273 100 99
f 273 99 272
f 274 101 100
f 274 100 273
f 275 102 101
f 275 101 274
f 276 103 102
f 276 102 275
f 277 104 103
f 277 103 276
f 278 105 104
f 278 104 277
f 279 93 105
f 279 105 278
f 268 93 279
f 81 93 268
f 81 268 280
f 291 292 80
f 291 80 92
f 290 92 91
f 290 291 92
f 289 91 90
f 289 290 91
f 288 90 89
f 288 289 90
f 287 89 88
f 287 288 89
f 286 88 87
f 286 287 88
f 285 87 86
f 285 286 87
f 284 86 85
f 284 285 86
f 283 85 84
f 283 284 85
f 282 84 83
f 282 283 84
f 281 82 81
f 281 83 82
f 281 282 83
f 280 281 81
f 292 68 80
f 292 293 68
f 305 67 79
f 304 79 78
f 304 305 79
f 303 78 77
f 303 304 78
f 302 303 77
f 301 77 76
f 301 302 77
f 300 75 74
f 300 76 75
f 300 301 76
f 299 74 73
f 299 300 74
f 298 299 73
f 297 72 71
f 297 73 72
f 297 298 73
f 296 297 71
f 295 70 69
f 295 71 70
f 295 296 71
f 294 69 68
f 294 295 69
f 293 294 68
f 67 306 55
f 305 306 67
f 308 55 306
f 308 56 55
f 309 57 56
f 309 56 308
f 310 58 57
f 310 57 309
f 311 59 58
f 311 58 310
f 312 60 59
f 312 59 311
f 313 61 60
f 313 60 312
f 314 62 61
f 314 61 313
f 315 63 62
f 315 62 314
f 316 64 63
f 316 63 315
f 317 65 64
f 317 64 316
f 318 66 65
f 318 65 317
f 307 54 66
f 307 66 318
f 54 319 42
f 54 307 319
f 331 41 53
f 330 331 53
f 329 53 52
f 329 330 53
f 328 52 51
f 328 329 52
f 327 51 50
f 327 328 51
f 326 50 49
f 326 327 50
f 325 49 48
f 325 326 49
f 324 48 47
f 324 325 48
f 323 47 46
f 323 324 47
f 322 46 45
f 322 323 46
f 321 45 44
f 321 322 45
f 320 44 43
f 320 321 44
f 319 43 42
f 319 320 43
f 331 29 41
f 331 332 29
f 344 28 40
f 343 344 40
f 342 40 39
f 342 343 40
f 341 39 38
f 341 342 39
f 340 38 37
f 340 341 38
f 339 37 36
f 339 340 37
f 338 36 35
f 338 339 36
f 337 35 34
f 337 338 35
f 336 34 33
f 336 337 34
f 335 32 31
f 335 33 32
f 335 336 33
f 334 335 31
f 333 31 30
f 333 334 31
f 332 30 29
f 332 333 30
f 16 28 344
f 16 344 345
f 347 16 345
f 347 17 16
f 348 18 17
f 348 17 347
f 349 19 18
f 349 18 348
f 350 20 19
f 350 19 349
f 351 21 20
f 351 20 350
f 352 22 21
f 352 21 351
f 353 23 22
f 353 22 352
f 354 24 23
f 354 23 353
f 355 25 24
f 355 24 354
f 356 26 25
f 356 25 355
f 357 27 26
f 357 26 356
f 346 15 27
f 346 27 357
f 15 358 3
f 346 358 15
f 369 370 1
f 369 1 14
f 368 13 12
f 368 14 13
f 368 369 14
f 367 368 12
f 366 11 10
f 366 12 11
f 366 367 12
f 365 366 10
f 364 10 9
f 364 365 10
f 363 8 7
f 363 9 8
f 363 364 9
f 362 363 7
f 361 7 6
f 361 362 7
f 360 6 5
f 360 361 6
f 359 5 4
f 359 360 5
f 358 4 3
f 358 359 4
f 2 1 370
f 2 370 215
f 208 210 207
f 208 209 210
f 244 246 245
f 243 247 246
f 243 248 247
f 243 249 248
f 243 246 244
f 252 250 249
f 252 251 250
f 252 249 243
f 241 243 242
f 241 252 243
f 253 252 241
f 217 219 218
f 217 220 219
f 217 221 220
f 216 222 221
f 216 223 222
f 216 221 217
f 215 223 216
f 215 224 223
f 227 224 215
f 227 225 224
f 227 226 225
f 228 227 215
f 229 253 241
f 230 228 215
f 231 230 215
f 370 231 215
f 370 232 231
f 370 233 232
f 368 370 369
f 367 370 368
f 365 367 366
f 363 365 364
f 362 367 365
f 362 365 363
f 362 370 367
f 359 361 360
f 359 362 361
f 358 370 362
f 358 362 359
f 254 253 229
f 256 255 254
f 257 256 254
f 258 257 254
f 259 258 254
f 260 259 254
f 263 261 260
f 263 262 261
f 266 264 263
f 266 265 264
f 266 260 254
f 266 263 260
f 267 266 254
f 267 229 240
f 267 254 229
f 269 267 240
f 270 240 239
f 270 269 240
f 346 233 370
f 346 234 233
f 346 235 234
f 346 236 235
f 346 237 236
f 346 238 237
f 346 370 358
f 357 238 346
f 357 270 239
f 357 239 238
f 356 271 270
f 356 270 357
f 355 271 356
f 284 283 282
f 286 284 282
f 286 285 284
f 287 286 282
f 288 287 282
f 288 281 280
f 288 282 281
f 342 344 343
f 291 290 289
f 291 288 280
f 291 289 288
f 292 280 268
f 292 279 278
f 292 268 279
f 292 291 280
f 337 339 338
f 337 340 339
f 337 341 340
f 337 342 341
f 337 344 342
f 335 337 336
f 335 344 337
f 332 347 345
f 332 345 344
f 332 334 333
f 332 335 334
f 332 344 335
f 314 313 352
f 314 351 350
f 314 352 351
f 312 352 313
f 312 353 352
f 315 314 350
f 315 350 349
f 311 354 353
f 311 353 312
f 316 315 349
f 310 355 354
f 310 354 311
f 310 271 355
f 317 316 349
f 317 348 347
f 317 349 348
f 309 272 271
f 309 271 310
f 318 317 347
f 318 347 332
f 308 273 272
f 308 272 309
f 306 273 308
f 306 274 273
f 306 275 274
f 306 276 275
f 306 277 276
f 331 318 332
f 331 319 307
f 331 307 318
f 330 319 331
f 321 319 330
f 321 320 319
f 327 329 328
f 324 321 330
f 324 322 321
f 324 323 322
f 324 330 329
f 325 329 327
f 325 324 329
f 325 327 326
f 293 278 277
f 293 277 306
f 293 292 278
f 305 293 306
f 304 293 305
f 301 303 302
f 297 296 295
f 300 303 301
f 300 304 303
f 299 293 304
f 299 304 300
f 299 297 295
f 299 294 293
f 299 295 294
f 299 298 297
f 373 371 372
f 374 373 372
f 378 375 376
f 377 375 378
f 379 382 381
f 379 380 382
f 383 384 403
f 387 385 383
f 387 386 385
f 399 401 400
f 399 402 401
f 404 402 399
f 404 403 402
f 398 404 399
f 406 388 387
f 397 404 398
f 405 404 397
f 405 389 406
f 392 389 405
f 394 397 396
f 394 405 397
f 391 390 389
f 391 389 392
f 395 394 396
f 393 392 405
f 393 405 394
f 388 406 389
f 402 403 384
f 406 383 403
f 406 387 383
f 418 411 410
f 414 413 412
f 415 414 412
f 420 412 418
f 408 415 412
f 408 412 420
f 416 415 408
f 419 408 420
f 417 416 408
f 409 419 418
f 409 418 410
f 407 408 419
f 407 419 409
f 411 418 412
f 402 421 401
f 402 422 421
f 396 397 423
f 396 423 424
f 389 426 425
f 390 426 389
f 383 428 427
f 383 385 428
f 372 371 403
f 373 403 371
f 404 372 403
f 404 376 372
f 375 372 376
f 374 372 375
f 406 403 373
f 378 376 404
f 382 373 374
f 380 406 373
f 380 373 382
f 377 378 404
f 381 375 377
f 381 382 374
f 381 374 375
f 405 379 381
f 405 380 379
f 405 406 380
f 405 377 404
f 405 381 377

