# https://github.com/mikedh/trimesh
v -25.40000000 23.40000000 -593.89259779
v -25.38309361 23.65949902 -593.89259779
v -25.33266026 23.91461084 -593.89259779
v -25.24955260 24.16102246 -593.89259779
v -25.13517568 24.39456793 -593.89259779
v -24.99146320 24.61129884 -593.89259779
v -24.82084482 24.80755106 -593.89259779
v -24.62620508 24.98000668 -593.89259779
v -24.41083464 25.12575008 -593.89259779
v -24.17837463 25.24231727 -593.89259779
v -23.93275511 25.32773753 -593.89259779
v -25.40000000 -39.20000000 -593.89259779
v -23.40000000 -41.20000000 -593.89259779
v -23.66105238 -41.18288972 -593.89259779
v -23.91763809 -41.13185165 -593.89259779
v -24.16536686 -41.04775907 -593.89259779
v -24.40000000 -40.93205081 -593.89259779
v -24.61752286 -40.78670668 -593.89259779
v -24.81421356 -40.61421356 -593.89259779
v -24.98670668 -40.41752286 -593.89259779
v -25.13205081 -40.20000000 -593.89259779
v -25.24775907 -39.96536686 -593.89259779
v -25.33185165 -39.71763809 -593.89259779
v -25.38288972 -39.46105238 -593.89259779
v -2.00000000 -41.20000000 -593.89259779
v -1.00000000 -40.93205081 -593.89259779
v -1.23463314 -41.04775907 -593.89259779
v -1.48236191 -41.13185165 -593.89259779
v -1.73894762 -41.18288972 -593.89259779
v 25.40000000 -23.40000000 -593.89259779
v 25.38288972 -23.66105238 -593.89259779
v 25.33185165 -23.91763809 -593.89259779
v 25.24775907 -24.16536686 -593.89259779
v 25.13205081 -24.40000000 -593.89259779
v 24.98670668 -24.61752286 -593.89259779
v 24.81421356 -24.81421356 -593.89259779
v 24.61752286 -24.98670668 -593.89259779
v 24.40000000 -25.13205081 -593.89259779
v 25.40000000 37.60000000 -593.89259779
v 24.91454176 38.09978849 -593.89259779
v 24.97845611 38.09380628 -593.89259779
v 25.04107723 38.07968450 -593.89259779
v 25.10137294 38.05765592 -593.89259779
v 25.15834934 38.02808366 -593.89259779
v 25.21106730 37.99145515 -593.89259779
v 25.25865783 37.94837417 -593.89259779
v 25.30033649 37.89955082 -593.89259779
v 25.33541628 37.84578988 -593.89259779
v 25.36331896 37.78797750 -593.89259779
v 25.38358460 37.72706664 -593.89259779
v 25.39587917 37.66406129 -593.89259779
v 24.78369308 38.07839483 -593.89259779
v 24.84840515 38.09344807 -593.89259779
v 18.92425824 38.09978849 593.89259779
v 18.86034389 38.09380628 593.89259779
v 18.79772277 38.07968450 593.89259779
v -23.91763809 25.33185165 593.89259779
v -24.16536686 25.24775907 593.89259779
v -24.40000000 25.13205081 593.89259779
v -24.61752286 24.98670668 593.89259779
v -24.81421356 24.81421356 593.89259779
v -24.98670668 24.61752286 593.89259779
v -25.13205081 24.40000000 593.89259779
v -25.24775907 24.16536686 593.89259779
v -25.33185165 23.91763809 593.89259779
v -25.38288972 23.66105238 593.89259779
v -25.40000000 23.40000000 593.89259779
v -25.40000000 -39.20000000 593.89259779
v -25.38288972 -39.46105238 593.89259779
v -25.33185165 -39.71763809 593.89259779
v -25.24775907 -39.96536686 593.89259779
v -25.13205081 -40.20000000 593.89259779
v -24.98670668 -40.41752286 593.89259779
v -24.81421356 -40.61421356 593.89259779
v -24.61752286 -40.78670668 593.89259779
v -24.40000000 -40.93205081 593.89259779
v -24.16536686 -41.04775907 593.89259779
v -23.91763809 -41.13185165 593.89259779
v -23.66105238 -41.18288972 593.89259779
v -23.40000000 -41.20000000 593.89259779
v -2.00000000 -41.20000000 593.89259779
v -1.73894762 -41.18288972 593.89259779
v -1.48236191 -41.13185165 593.89259779
v -1.23463314 -41.04775907 593.89259779
v -1.00000000 -40.93205081 593.89259779
v 24.40000000 -25.13205081 593.89259779
v 24.61752286 -24.98670668 593.89259779
v 24.81421356 -24.81421356 593.89259779
v 24.98670668 -24.61752286 593.89259779
v 25.13205081 -24.40000000 593.89259779
v 25.24775907 -24.16536686 593.89259779
v 25.33185165 -23.91763809 593.89259779
v 25.38288972 -23.66105238 593.89259779
v 25.40000000 -23.40000000 593.89259779
v 25.40000000 37.60000000 593.89259779
v 25.39587917 37.66406129 593.89259779
v 25.38358460 37.72706664 593.89259779
v 25.36331896 37.78797750 593.89259779
v 25.33541628 37.84578988 593.89259779
v 25.30033649 37.89955082 593.89259779
v 25.25865783 37.94837417 593.89259779
v 25.21106730 37.99145515 593.89259779
v 25.15834934 38.02808366 593.89259779
v 25.10137294 38.05765592 593.89259779
v 25.04107723 38.07968450 593.89259779
v 24.97845611 38.09380628 593.89259779
v 24.91454176 38.09978849 593.89259779
v 18.78230702 38.07487887 -568.49259779
v 18.84969206 38.09199571 -568.49259779
v 18.91880000 38.09959984 -568.49259779
v 18.92425824 38.09978849 -568.49260110
f 109 52 108
f 55 109 56
f 56 109 108
f 108 52 11
f 57 56 11
f 11 56 108
f 110 109 55
f 55 54 110
f 110 54 111
f 110 111 40
f 52 109 53
f 53 110 40
f 109 110 53
f 1 67 2
f 5 4 64
f 3 2 66
f 66 2 67
f 57 11 58
f 5 64 63
f 63 6 5
f 63 62 6
f 65 4 3
f 65 64 4
f 3 66 65
f 59 9 60
f 59 58 10
f 10 9 59
f 10 58 11
f 8 60 9
f 60 8 61
f 7 61 8
f 62 61 7
f 6 62 7
f 54 107 40
f 40 111 54
f 39 95 30
f 30 95 94
f 67 1 12
f 12 68 67
f 85 84 26
f 26 84 27
f 86 85 26
f 26 38 86
f 24 68 12
f 69 68 24
f 14 80 79
f 13 80 14
f 25 29 81
f 81 29 82
f 13 25 81
f 81 80 13
f 29 28 83
f 82 29 83
f 83 28 27
f 27 84 83
f 74 73 20
f 19 74 20
f 19 18 75
f 75 74 19
f 90 89 35
f 34 90 35
f 35 89 88
f 88 36 35
f 104 103 43
f 43 103 44
f 43 105 104
f 42 105 43
f 40 107 41
f 107 106 41
f 106 105 41
f 41 105 42
f 51 95 39
f 96 95 51
f 97 51 50
f 96 51 97
f 69 24 70
f 24 23 70
f 70 23 22
f 22 71 70
f 76 17 16
f 16 77 76
f 18 17 76
f 76 75 18
f 78 14 79
f 78 15 14
f 16 15 78
f 78 77 16
f 34 33 91
f 91 90 34
f 91 33 32
f 32 92 91
f 93 30 94
f 93 31 30
f 32 31 93
f 93 92 32
f 86 38 87
f 38 37 87
f 87 36 88
f 87 37 36
f 46 45 102
f 101 46 102
f 102 45 44
f 44 103 102
f 100 47 46
f 100 46 101
f 48 47 100
f 100 99 48
f 72 20 73
f 72 21 20
f 72 71 22
f 22 21 72
f 48 99 98
f 98 49 48
f 98 97 50
f 50 49 98
f 61 68 69
f 86 87 61
f 61 76 77
f 94 95 61
f 61 54 55
f 61 106 107
f 57 58 61
f 61 98 99
f 55 56 61
f 61 95 96
f 82 83 61
f 61 67 68
f 61 81 82
f 107 54 61
f 61 85 86
f 61 89 90
f 61 78 79
f 61 66 67
f 79 80 61
f 61 56 57
f 61 84 85
f 61 93 94
f 64 65 61
f 61 73 74
f 96 97 61
f 80 81 61
f 74 75 61
f 104 105 61
f 90 91 61
f 61 83 84
f 88 89 61
f 61 103 104
f 101 102 61
f 62 63 61
f 61 100 101
f 69 70 61
f 61 58 59
f 61 63 64
f 61 65 66
f 61 105 106
f 61 72 73
f 61 70 71
f 75 76 61
f 77 78 61
f 59 60 61
f 61 91 92
f 92 93 61
f 61 87 88
f 61 102 103
f 99 100 61
f 71 72 61
f 97 98 61
f 7 4 5
f 7 18 19
f 7 25 13
f 1 2 7
f 48 49 7
f 7 15 16
f 5 6 7
f 12 1 7
f 7 53 40
f 7 26 27
f 7 24 12
f 7 43 44
f 39 30 7
f 7 29 25
f 27 28 7
f 30 31 7
f 22 23 7
f 13 14 7
f 7 11 52
f 3 4 7
f 52 53 7
f 7 33 34
f 7 28 29
f 38 26 7
f 7 37 38
f 40 41 7
f 7 2 3
f 46 47 7
f 16 17 7
f 19 20 7
f 34 35 7
f 7 45 46
f 7 10 11
f 7 23 24
f 7 51 39
f 7 17 18
f 14 15 7
f 7 21 22
f 32 33 7
f 7 31 32
f 7 35 36
f 36 37 7
f 44 45 7
f 42 43 7
f 7 41 42
f 7 47 48
f 50 51 7
f 20 21 7
f 9 10 7
f 7 49 50
f 7 8 9

