# https://github.com/mikedh/trimesh
v 2.46786176 0.37966006 -4.36549476
v 2.46293044 0.37970047 -4.36564567
v 2.49357696 0.34586828 -4.35664150
v 2.47968603 0.28556434 -4.29494219
v 2.50054057 0.31088724 -4.32988829
v 5.01212202 0.37966006 -0.05000000
v 5.01948875 0.37966006 -0.03420201
v 5.02165394 0.36531825 -0.02467417
v 5.02551948 0.37966006 -0.00000000
v 4.95937206 0.28556434 -0.00000000
v 5.01889780 0.34209957 -0.01821609
v -2.52833249 0.37966006 -4.34112476
v -2.50013895 0.37966006 -4.35837625
v -2.46786176 0.37966006 -4.36549476
v -2.47968603 0.28556434 -4.29494219
v -2.49897555 0.30980430 -4.33030784
v -2.49637083 0.34157169 -4.35427420
v -2.53454478 0.35383726 -4.33279739
v -5.01212202 4.58127744 -0.05000000
v -5.01948875 4.58127744 -0.03420201
v -5.02165394 4.59561925 -0.02467417
v -5.02551948 4.58127744 -0.00000000
v -4.95937206 4.67537316 -0.00000000
v -5.01889780 4.61883793 -0.01821609
v 2.46429368 4.58118837 4.36562031
v 2.46786176 4.58127744 4.36549476
v 2.47968603 4.67537316 4.29494219
v -2.52833249 4.58127744 4.34112476
v -2.50013895 4.58127744 4.35837625
v -2.46786176 4.58127744 4.36549476
v -2.47968603 4.67537316 4.29494219
v -2.49897555 4.65113320 4.33030784
v -2.49637083 4.61936581 4.35427420
v -2.53454478 4.60710024 4.33279739
v 0.12280438 5.95311377 -2.18391956
v 0.83999047 5.95308510 -2.02855613
v 1.47350603 5.95311377 -1.61659071
v 1.85501536 5.95311377 -1.15909601
v 2.09894674 5.95311377 -0.61563636
v 2.18720880 5.95311377 -0.02651785
v 2.11325560 5.95311377 0.56456738
v 1.88257186 5.95311377 1.11378127
v 1.41467474 5.95308510 1.67908288
v 0.14940078 5.95311133 2.18416203
v 0.14821246 5.94018298 -2.13446177
v -0.00867238 5.88940008 -2.08849607
v 2.04381068 5.88757515 0.42470874
v 1.84913346 5.89127685 -0.97160121
v 1.69961084 5.89127685 -1.21434198
v 1.51842772 5.89127687 -1.43446183
v 1.31171438 5.89263606 -1.62584761
v 1.07773918 5.88940007 -1.78895761
v 0.82122790 5.89127686 -1.92064787
v 0.55537980 5.89263606 -2.01383424
v -0.00000001 5.89159573 2.08972811
v 0.14605973 5.94088617 2.13531736
v 0.28749812 5.88978388 2.06788434
v 0.55809352 5.89156989 2.01287384
v 0.73432936 5.93931978 2.00681096
v 0.82698169 5.89156989 1.91813210
v 0.90945218 5.94972741 1.96697975
v 1.08046476 5.89156988 1.78765919
v 1.45424136 5.93896245 1.56307384
v 1.31382081 5.89156989 1.62388557
v 1.52762443 5.89445227 1.42670160
v 1.74243339 5.93972754 1.22994379
v 1.70540182 5.88757515 1.20380407
v 1.85200908 5.89156989 0.96601855
v 1.95883274 5.93965153 0.85084111
v 1.96955386 5.89445226 0.69997960
v 2.11937147 5.94018298 0.29352774
v 2.08354650 5.89156988 0.14820069
v 2.08432023 5.89156989 -0.13688920
v 2.11451561 5.93841263 -0.29063348
v 2.04703999 5.89263606 -0.41665617
v 1.96906913 5.89159574 -0.69980735
v 1.96311369 5.94088617 -0.85270060
v 1.74243339 5.93972754 -1.22994379
v 1.46018893 5.93896245 -1.55751920
v 1.10816865 5.93972754 -1.82230571
v 0.71878447 5.93896245 -2.01031506
v 0.27880911 5.89156990 -2.07011955
v 0.57182029 0.06372492 -2.00870919
v 0.84009213 0.06048894 -1.91264746
v 1.09255890 0.06372493 -1.77994554
v 1.32749661 0.06184815 -1.61277904
v 1.53473894 0.06184813 -1.41699678
v 1.71157194 0.06048894 -1.19770470
v 1.85833465 0.06372493 -0.95314393
v 1.96739594 0.06200809 -0.69921269
v 2.04304882 0.06372493 -0.43340807
v 2.08354268 0.06048894 -0.15107935
v 2.04601954 0.06152927 0.42516774
v 1.70583868 0.05974362 1.20765493
v 1.52360475 0.06334112 1.42738550
v 1.32261577 0.06155512 1.61673035
v 1.09015211 0.06155512 1.78176819
v 0.83738097 0.06155511 1.91361506
v 0.56901101 0.06155511 2.00981491
v 0.28172792 0.05974361 2.07097693
v -0.00000001 0.06200810 2.08795239
v 0.00854117 0.06048894 -2.08899548
v 0.14975355 0.01416255 -2.12969286
v 0.40691407 0.00010261 -2.16927136
v 0.17571643 0.00001123 2.18030027
v 1.28298455 0.00001123 1.77159144
v 2.01669738 0.00001123 0.84706387
v 2.17043953 0.00001348 0.27155301
v 1.99756022 0.00394729 -0.80656119
v 1.69823022 0.00001640 -1.38161270
v 0.14163448 0.01416255 2.13024822
v 0.57542255 0.01339746 2.05370999
v 0.80245236 0.00513310 1.99248629
v 1.21122716 0.01347208 1.76084708
v 1.55872694 0.01339746 1.45574934
v 1.72089483 0.00513310 1.28547752
v 1.85722527 0.06155511 0.95595177
v 1.94980387 0.01347208 0.87516769
v 1.96613943 0.06334113 0.70220834
v 2.08819054 0.01339746 0.43393098
v 2.08476391 0.06184815 0.13062514
v 2.13494759 0.01416255 0.00406902
v 2.11470785 0.00517764 -0.37454938
v 1.89368159 0.01339746 -0.98122671
v 1.65663976 0.01347347 -1.34777632
v 1.34598437 0.01339746 -1.65443704
v 1.17152249 0.00467505 -1.80096943
v 0.69684657 0.01380522 -2.02013235
v 0.29004145 0.06155510 -2.06857570
v -4.17936417 4.96813261 -0.00821514
v -4.16275903 4.95229083 -0.57056250
v -1.92313790 4.96734205 -3.71178045
v -1.41308822 4.95150127 -3.95821835
v -0.27601421 4.95444043 -4.19095382
v 0.85130010 4.95189497 -4.11540792
v 1.40920034 4.96722192 -3.93499757
v 2.85881467 4.96716155 -3.04916413
v 3.25794009 4.95206209 -2.65432972
v 3.57528893 4.97028921 -2.16268285
v 3.85066924 4.95282753 -1.68102571
v 4.02654299 4.96869683 -1.11886487
v 4.16298518 4.95189876 -0.57405424
v 4.17936417 4.96813261 0.00821515
v -2.85340293 4.96631481 -3.05571684
v -3.24729675 4.96834622 -2.63084441
v -3.57046594 4.97106641 -2.16879489
v -3.83321738 4.96825923 -1.66685665
v -4.02342798 4.96951745 -1.12631486
v 4.13204281 4.99391050 -0.56348056
v 3.82679022 4.99391050 -1.65739698
v 3.23772210 4.99391050 -2.62839185
v 2.41094782 4.96752455 -3.41500899
v 1.91752035 4.99468620 -3.70274385
v 1.93699755 4.95183926 -3.72959669
v 0.84938529 4.99277023 -4.08347659
v 0.27899537 4.97159059 -4.16802728
v -0.28018640 4.99391048 -4.16086334
v -0.84248469 4.96825361 -4.09351270
v -1.39238382 4.99391048 -3.93097385
v -2.40974314 4.96914740 -3.41336563
v -4.13080126 4.99460294 -0.57137687
v -0.03078598 0.00046565 -4.13277102
v 4.10347222 0.00057996 0.56631079
v 3.79630794 0.00063353 1.65854980
v 3.35462480 0.00407775 2.48077332
v -0.56259290 0.00166659 4.11050697
v 0.00960349 0.01448470 -4.20767772
v 3.02274309 0.00671984 -2.88905160
v 2.61446525 0.00671250 -3.25931982
v 2.15300742 0.00549849 -3.57383405
v 1.11816369 0.00661241 -4.02526965
v 4.11348895 0.00840751 0.81820450
v -0.00960480 0.01448470 4.20767772
v 0.54475849 0.00330081 4.12474961
v 1.08054021 0.00399899 4.02259229
v 1.59933955 0.00375429 3.84205813
v 2.08980858 0.00328810 3.59525173
v 2.54334668 0.00360847 3.29331669
v 2.94592316 0.00417461 2.94657395
v 3.77770403 0.00962930 1.84231145
v 4.13115743 0.00299846 -0.56298884
v 4.19055404 0.00862198 -0.00000000
v 4.05781109 0.00893743 -1.04592412
v 3.88006869 0.00508614 -1.54765817
v 3.64700482 0.00578361 -2.04997825
v 3.35823443 0.00396823 -2.47594132
v 1.65238232 0.00488045 -3.82886410
v 0.56456651 0.00536589 -4.13244260
v -4.14209011 4.96758201 0.55834172
v 3.23215067 4.99391050 2.63524006
v 3.82918253 4.96908444 1.67356353
v 4.02221215 4.96875636 1.13419020
v 4.14544135 5.16004688 0.00000000
v 4.08321666 5.36129890 -0.00581603
v 3.94300450 5.59129004 0.00830703
v 3.73794408 5.77944161 -0.00000000
v 2.55810630 5.95105604 2.04056132
v -4.14544135 5.16004688 0.00000000
v -4.08150706 5.36593976 0.00000001
v -3.98515965 5.53150142 0.00000000
v -3.84434668 5.69476146 0.00000000
v -3.62098370 5.84881081 0.00000000
v -4.09333068 5.22675044 0.56213376
v -4.01764759 5.41540744 0.55221295
v -3.90936190 5.58731386 0.53559260
v -3.97866130 5.22675050 1.11427309
v -3.76528654 5.72969945 0.51752672
v -3.87524252 5.47600872 1.08457711
v -3.59846163 5.84371431 0.48783602
v -3.78987700 5.22675044 1.64565571
v -3.75510364 5.63692274 1.05213070
v -3.43235412 5.91792406 0.24878463
v -3.60975057 5.77290362 1.00726753
v -3.25724476 5.95114213 0.35520845
v -3.69146508 5.47600869 1.60215411
v -3.43713382 5.87064628 0.96303973
v -3.53049446 5.22675047 2.14638281
v -3.53516132 5.68690000 1.53274247
v -3.43892263 5.47600866 2.08988600
v -3.33340434 5.84371429 1.44059911
v -3.20534548 5.22675048 2.60712689
v -3.33199274 5.63692274 2.02622967
v -3.20299359 5.93472829 1.08875747
v -3.20413370 5.77290362 1.94381438
v -3.12231955 5.47600868 2.53868723
v -3.00268912 5.89800107 1.81084530
v -2.82948403 5.16004688 3.02963763
v -2.99053899 5.68689999 2.42967936
v -2.59849255 5.95114213 1.99590905
v -2.78276180 5.36129893 2.98813132
v -2.86231572 5.80809611 2.32866656
v -2.72814518 5.89800106 2.20284511
v -2.38308817 5.22675048 3.37523941
v -2.69453012 5.58731393 2.88261633
v -2.59417040 5.72969945 2.77767826
v -2.33868090 5.41540744 3.31315603
v -2.49347936 5.83984487 2.64860144
v -2.27691691 5.58731389 3.22267267
v -1.90129692 5.22675048 3.66829938
v -2.16444986 5.77290361 3.05941889
v -1.85681594 5.48036353 3.56755472
v -2.05846074 5.87064628 2.91617451
v -2.17099891 5.93472829 2.59447960
v -1.38408809 5.22675046 3.89302588
v -1.76864950 5.69476147 3.41333859
v -1.35807747 5.41540744 3.82126378
v -1.69760503 5.80809611 3.27622899
v -1.60754587 5.89647938 3.12212719
v -0.84109633 5.22675045 4.04523267
v -1.31882320 5.59635371 3.71081284
v -1.27277237 5.72969945 3.58123821
v -1.35768759 5.94389065 3.02481975
v -0.81988361 5.47600869 3.93974657
v -1.22969987 5.84614943 3.41249132
v -0.28808216 5.21974243 4.12307540
v -0.79342060 5.63692274 3.81814956
v -0.76638207 5.77290362 3.66845276
v -0.26881971 5.47179313 4.01805925
v -0.84093404 5.90456956 3.38929202
v 0.28289492 5.16004688 4.13577737
v -0.26550472 5.68690000 3.84397872
v 0.27259945 5.34829195 4.07973072
v -0.25180932 5.80809611 3.68132195
v -0.25218563 5.89800107 3.49738547
v 0.84016205 5.22675045 4.04542682
v 0.26979045 5.57758631 3.94419681
v 0.25936801 5.72969945 3.79182606
v -0.58807922 5.95090601 3.21778611
v 0.81759282 5.47600870 3.94022260
v 0.24113108 5.84371430 3.62336390
v 1.38822379 5.16004688 3.90608739
v 0.78143394 5.68690000 3.77306587
v 0.44963214 5.91695103 3.41744701
v 0.41679737 5.94419361 3.28783429
v 1.36775125 5.35506672 3.85080787
v 0.73226650 5.84371430 3.55678169
v 1.90044963 5.22675050 3.66873840
v 1.31977337 5.58731387 3.71862450
v 1.25125746 5.77290361 3.53259705
v 1.85033358 5.47600871 3.57352456
v 2.38230855 5.22675049 3.37578972
v 1.77041723 5.68690002 3.42232199
v 1.16423693 5.95100981 3.05704059
v 1.69760503 5.80809611 3.27622899
v 2.31969433 5.47600871 3.28828683
v 1.41067550 5.87236708 3.28364988
v 2.21993361 5.68689999 3.14937453
v 1.35497479 5.91695103 3.16940949
v 2.81978960 5.22675044 3.01995646
v 2.08866881 5.84371430 2.97058459
v 2.74584362 5.47600865 2.94179455
v 2.62659376 5.68155663 2.82586412
v 2.10514397 5.93371585 2.65282455
v 3.20474326 5.22675047 2.60786712
v 3.14583507 5.41540744 2.55932666
v 2.48803473 5.84154089 2.65175821
v 3.52999864 5.22675047 2.14719816
v 3.06124523 5.59238757 2.48211089
v 2.89655940 5.77591002 2.37204436
v 3.43770695 5.47600867 2.09188508
v 3.78949684 5.22675045 1.64653093
v 3.33199274 5.63692274 2.02622967
v 3.69053294 5.47600869 1.60430012
v 3.19999394 5.77290362 1.95062192
v 2.86760665 5.89361050 2.04823594
v 3.97840383 5.22675050 1.11519200
v 3.53496877 5.68155668 1.54547669
v 3.12667288 5.90516829 1.55545556
v 3.87461126 5.47600872 1.08683009
v 3.38444001 5.80809611 1.47006975
v 3.75510364 5.63692274 1.05213070
v 4.09380416 5.21974235 0.56877917
v 3.60760098 5.77290362 1.01493954
v 3.11244623 5.94366733 1.14580710
v 3.99272149 5.46539145 0.54878694
v 3.82600694 5.67824507 0.52587256
v 3.36588763 5.89982571 0.96752921
v 3.60120726 5.84154090 0.50343268
v 3.40961272 5.91617994 0.46864048
v 3.24593857 5.95105604 0.41434425
v 3.26325431 4.95201019 2.64793911
v -2.41695340 4.96836816 3.40947137
v -2.86870486 4.95085322 3.07321540
v -3.24728524 4.96835326 2.63085241
v -3.59057163 4.95409328 2.18033877
v -4.13958673 4.88371324 1.42770268
v -3.30854124 4.88392877 2.86712486
v -0.83337705 4.88371245 4.29883859
v 0.82870109 4.88392985 4.29884322
v 3.30622015 4.88371324 2.87113593
v 4.13727359 4.88392877 1.43171833
v 4.95937206 4.67537316 -0.00000000
v -3.02117745 0.00767364 2.89547504
v -2.61577734 0.00581370 3.25388913
v -1.65099207 0.00559648 3.83247306
v 4.13958673 0.07722426 1.42770268
v 3.30854124 0.07700873 2.86712486
v 2.47968603 0.28556434 4.29494219
v 0.83335257 0.07722346 4.29883863
v -0.82876020 0.07700981 4.29884318
v -2.47968603 0.28556434 4.29494219
v -3.30622015 0.07722426 2.87113593
v -4.13727359 0.07700873 1.43171833
v -4.95937206 0.28556434 -0.00000000
v -0.28360790 0.10000000 2.06340069
v -0.55511871 0.06372492 2.01338876
v -0.82978979 0.10000000 1.91036770
v -1.07773919 0.06372493 1.78895760
v -1.31442997 0.10000000 1.61565148
v -1.70321986 0.06155512 1.20920286
v -1.84928733 0.10000000 0.95822346
v -1.96629888 0.06155511 0.70483914
v -2.03923634 0.10000000 0.42375818
v -2.08354650 0.06155512 0.14820069
v -2.07794451 0.10000000 -0.14213530
v -2.04574556 0.05974362 -0.42806675
v -1.96254105 0.10000000 -0.69748726
v -1.51842772 0.06184813 -1.43446183
v -1.30895913 0.06184815 -1.62786040
v -1.07510712 0.06184815 -1.79093500
v -0.82879554 0.06334113 -1.91621991
v -0.56110187 0.05974361 -2.01332579
v -0.27258995 0.06184813 -2.07098967
v -0.29626476 5.89127687 -2.06773564
v -0.56193271 5.85312500 -2.00556413
v -1.08218945 5.85312500 -1.77958474
v -1.52218515 5.85312500 -1.42162169
v -1.85705569 5.89338138 -0.95898914
v -1.96254105 5.85312500 -0.69748726
v -2.07794451 5.85312500 -0.14213530
v -2.03923634 5.85312500 0.42375818
v -1.84928733 5.85312500 0.95822346
v -1.52218515 5.85312500 1.42162169
v -1.09015211 5.89156988 1.78176819
v -0.83738097 5.89156989 1.91361506
v -0.56901101 5.89156989 2.00981491
v -0.28360790 5.85312500 2.06340069
v -0.06934092 5.95329650 -3.25474646
v -0.44470874 5.95311546 2.14005612
v -0.98271352 5.95311377 1.95419029
v -1.47350603 5.95311377 1.61659071
v -1.85501536 5.95311377 1.15909601
v -2.09894674 5.95311377 0.61563636
v -2.18926571 5.95311133 -0.00000000
v -2.02071411 5.95304433 -0.87771999
v -1.51226642 5.95311377 -1.58039103
v -1.02980313 5.95311377 -1.92979042
v -0.47096397 5.95311377 -2.13606612
v -1.11362245 0.00036523 3.97353825
v -4.10462889 0.00072418 -0.56670593
v -3.53245020 0.00062664 -2.16423316
v -3.00362798 0.00327476 -2.88604577
v -0.47096216 0.00001348 -2.13605791
v -1.02980313 0.00001123 -1.92979042
v -1.51226642 0.00001123 -1.58039103
v -1.88257186 0.00001123 -1.11378127
v -2.11326140 0.00000963 -0.56456892
v -2.18720040 0.00001348 0.02651775
v -2.09895250 0.00000963 0.61563805
v -1.85500823 0.00001348 1.15909155
v -1.47351007 0.00000963 1.61659515
v -0.98271352 0.00001123 1.95419029
v -0.41903754 0.00001123 2.14685655
v -2.98035552 0.01771286 -2.98035552
v -3.87793029 0.00455425 -1.54783739
v -4.11348895 0.00840751 -0.81820450
v -4.13958673 0.07722426 -1.42770268
v -3.30854124 0.07700873 -2.86712486
v -0.83337705 0.07722505 -4.29883859
v 0.82870109 0.07700765 -4.29884322
v 3.30622015 0.07722426 -2.87113593
v 4.13727359 0.07700873 -1.43171833
v 4.13958673 4.88371324 -1.42770268
v 3.30854124 4.88392877 -2.86712486
v 2.47968603 4.67537316 -4.29494219
v 0.83335257 4.88371404 -4.29883863
v -0.82876020 4.88392769 -4.29884318
v -2.47968603 4.67537316 -4.29494219
v -3.30622015 4.88371324 -2.87113593
v -4.13727359 4.88392877 -1.43171833
v 4.09333068 5.22675044 -0.56213376
v 4.01764759 5.41540744 -0.55221295
v 3.90936190 5.58731386 -0.53559260
v 3.97866130 5.22675050 -1.11427309
v 3.87524252 5.47600872 -1.08457711
v 3.71328544 5.77290359 -0.50635819
v 3.53625406 5.87064628 -0.48604693
v 3.75510364 5.63692274 -1.05213070
v 3.48401115 5.90581144 -0.11902696
v 3.78987700 5.22675044 -1.64565570
v 3.25413839 5.94389065 -0.63516415
v 3.69677558 5.46959396 -1.59805857
v 3.60975057 5.77290362 -1.00726753
v 3.37859236 5.89982571 -0.92218545
v 3.53049446 5.22675047 -2.14638282
v 3.53504838 5.68357780 -1.54297049
v 3.44014377 5.48036348 -2.08341623
v 3.33340434 5.84371429 -1.44059911
v 3.20534549 5.22675049 -2.60712689
v 3.06955410 5.91695103 -1.56810421
v 3.28386312 5.69124737 -2.00528587
v 3.12231955 5.47600868 -2.53868723
v 3.10619528 5.84371429 -1.88107980
v 2.82048699 5.22675045 -3.01930514
v 2.99053899 5.68689999 -2.42967935
v 2.96796805 5.95090601 -1.37519097
v 2.74755355 5.47600865 -2.94019760
v 2.82112368 5.84371430 -2.28651949
v 2.37900694 5.22195844 -3.38010281
v 2.63184366 5.68689996 -2.81426089
v 2.32160584 5.47600872 -3.28693754
v 2.49347937 5.83984487 -2.64860143
v 1.89474445 5.23339261 -3.66898351
v 2.24888929 5.63692274 -3.18595030
v 2.51882799 5.91526471 -2.36393207
v 2.45037788 5.94389065 -2.23349464
v 2.15559881 5.77944160 -3.05378779
v 1.85911505 5.46959399 -3.57262255
v 1.86697132 5.90606276 -2.94569891
v 1.76842686 5.68357781 -3.42782603
v 1.38979170 5.21974237 -3.89245696
v 1.82136242 5.95090601 -2.71709837
v 1.34782788 5.47621120 -3.79242421
v 1.68643028 5.83984488 -3.22311676
v 0.84341497 5.16004688 -4.05873567
v 0.83759723 5.35971903 -3.99799512
v 1.28181797 5.69124736 -3.62792932
v 1.22969987 5.84614943 -3.41249132
v 0.80269360 5.58655899 -3.86277375
v 0.28172360 5.23824343 -4.11865317
v 0.75600117 5.77012809 -3.67513803
v 0.26825924 5.48171470 -4.01111092
v 0.84973370 5.90331423 -3.39025179
v -0.27602642 5.21974244 -4.12390003
v 0.26550473 5.68690000 -3.84397872
v 0.89837155 5.94366493 -3.19564691
v 0.25180932 5.80809611 -3.68132195
v -0.28080976 5.47179314 -4.01723910
v 0.26248239 5.89982571 -3.49233665
v -0.83434100 5.23161347 -4.04555003
v -0.26038989 5.68689999 -3.84432859
v -0.82509958 5.41540744 -3.97059718
v -0.24113108 5.84371430 -3.62336390
v -1.38318894 5.22675046 -3.89334544
v -0.79409470 5.59129005 -3.86222307
v -0.44963214 5.91695103 -3.41744701
v -0.77327249 5.72969945 -3.72119151
v 0.00539436 5.94419007 -3.31167463
v -1.34650462 5.47600871 -3.79219428
v -0.73226650 5.84371430 -3.55678169
v -1.90664541 5.22195844 -3.66735222
v -1.30593527 5.63692274 -3.67454969
v -1.25125746 5.77290361 -3.53259705
v -1.85033358 5.47600871 -3.57352456
v -1.19535297 5.87064628 -3.36340091
v -1.77041723 5.68690002 -3.42232199
v -2.38593054 5.23339260 -3.37028663
v -0.85575367 5.94389065 -3.20320711
v -2.33868090 5.41540744 -3.31315603
v -1.66472028 5.84371430 -3.22732344
v -2.27410546 5.58731389 -3.22465721
v -1.35497479 5.91695103 -3.16940949
v -2.82538162 5.22195839 -3.01695008
v -2.74376294 5.46959391 -2.94816993
v -2.15794073 5.77290361 -3.06401355
v -2.01153456 5.89800107 -2.87211271
v -3.21260586 5.22671285 -2.59800235
v -2.63769647 5.68357776 -2.81422859
v -1.68823497 5.94389065 -2.85354390
v -3.14583507 5.41540744 -2.55932666
v -3.05977755 5.58731391 -2.49153185
v -2.46415870 5.84614942 -2.66180030
v -3.53112833 5.23339259 -2.14070765
v -3.43252435 5.48036349 -2.09594583
v -2.90457940 5.77290361 -2.36818616
v -2.61922168 5.90331423 -2.31420231
v -3.33199274 5.63692274 -2.02622967
v -3.79342815 5.22195840 -1.64154559
v -2.33421942 5.95083416 -2.29873884
v -3.69053294 5.47600869 -1.60430012
v -3.19999394 5.77290362 -1.95062192
v -2.98003511 5.89982571 -1.83975623
v -3.97768630 5.22643012 -1.11449543
v -3.53311879 5.68690001 -1.53744484
v -3.87932486 5.47179318 -1.08069542
v -3.32061833 5.84614943 -1.45970982
v -4.09136748 5.23161346 -0.56860532
v -3.70955987 5.68689998 -1.04203204
v -2.93790516 5.94419007 -1.52837535
v -4.01764759 5.41540744 -0.55221295
v -3.49881671 5.83984488 -0.99539457
v -3.91168275 5.58350889 -0.54406954
v -3.26260482 5.91648242 -1.11516883
v -3.71982933 5.76825250 -0.49999038
v -3.48019279 5.89647937 -0.46919092
v -3.17015276 5.95090601 -0.80629774
v 5.01212202 4.58127744 0.05000000
v 4.19361893 4.78969162 1.46768894
v 3.45022520 4.79996219 2.75528466
v 3.08429039 4.76219273 3.38533905
v 2.53401352 4.59216975 4.33559366
v 2.54936228 0.37966006 4.31562500
v 3.36786538 0.17124588 2.89793606
v 4.11125911 0.16097531 1.61034034
v 4.59529219 0.22730281 0.76637147
v 0.82733479 4.81688566 4.36284078
v -0.71594924 4.81599806 4.36350432
v -2.46442311 4.58118960 4.36561853
v 2.46275974 0.37966006 4.36562500
v -2.46275974 0.37966006 4.36562500
v -0.80465635 0.15542308 4.36437362
v 0.66098597 0.16097390 4.36562500
v -3.36786538 4.78969162 2.89793606
v -4.11125911 4.79996219 1.61034034
v -5.01212202 4.58127744 0.05000000
v -2.54936228 0.37966006 4.31562500
v -5.01212202 0.37966006 0.05000000
v -4.19361893 0.17124588 1.46768894
v -3.45022520 0.16097531 2.75528466
v -4.19361893 4.78969162 -1.46768894
v -3.45022520 4.79996219 -2.75528466
v -2.54936228 4.58127744 -4.31562500
v -5.01212202 0.37966006 -0.05000000
v -3.36786538 0.17124588 -2.89793606
v -4.11125911 0.16097531 -1.61034034
v -4.56302308 0.24267208 -0.82786220
v -2.46275974 4.58127744 -4.36562500
v -0.82577448 4.78969012 -4.36562500
v 0.66098597 4.79996360 -4.36562500
v 2.46275974 4.58127744 -4.36562500
v -2.46442311 0.37974790 -4.36561853
v 0.82570860 0.17124438 -4.36562500
v -0.66105859 0.16097672 -4.36562500
v -1.56456985 0.24267316 -4.36562500
v 2.54936228 4.58127744 -4.31562500
v 3.36786538 4.78969162 -2.89793606
v 4.11125911 4.79996219 -1.61034034
v 4.56302308 4.71826542 -0.82786220
v 5.01212202 4.58127744 -0.05000000
v 2.53523219 0.37577410 -4.33567028
v 4.19361893 0.17124588 -1.46768894
v 3.45022520 0.16097531 -2.75528466
v -0.54456364 0.00288580 -4.12312246
v -1.08054035 0.00399895 -4.02259194
v -1.59933955 0.00375429 -3.84205813
v -2.08980858 0.00328810 -3.59525173
v -2.54334668 0.00360847 -3.29331669
v -3.52264722 0.00898253 -2.28722293
v -4.19345044 0.00887098 0.22416098
v -4.08739508 0.00267415 0.83992279
v -3.84267414 0.00311763 1.62177949
v -3.64082752 0.01060867 2.08965182
v -3.35830857 0.00439636 2.47847547
v -2.15300742 0.00549849 3.57383405
v -1.09640619 0.01618974 4.06561826
v -0.55252674 0.01641787 4.17516105
v -4.02654299 4.96869683 1.11886487
v -3.83540223 4.96912070 1.65917247
v -3.56546509 4.99391049 2.16304111
v -2.84892484 4.99332147 3.04563056
v -1.92992498 4.96819291 3.70705793
v -1.40920028 4.96722184 3.93499763
v -0.85847048 4.96823010 4.09020406
v -0.28582449 4.97092296 4.16841360
v 0.27207386 4.97060772 4.16951198
v 0.84248500 4.96825395 4.09351246
v 1.39341026 4.96722650 3.94058338
v 1.91538083 4.96818972 3.71459671
v 2.40368753 4.96837498 3.41882917
v 2.84649828 4.96713542 3.06068719
v 3.56740116 4.97034329 2.17557608
v 4.13084069 4.99391050 0.57222662
v 4.16403881 4.95193025 0.56666033
v -0.29041623 0.01339746 -2.11293499
v -0.69124069 0.01347208 -2.02233527
v -1.21122716 0.01347208 -1.76084708
v -1.70583868 0.05974362 -1.20765493
v -1.64138248 0.01347208 -1.36876484
v -1.85220934 0.06334114 -0.96339054
v -1.89368159 0.01339746 -0.98122671
v -1.97516495 0.05000000 -0.70197379
v -2.00965409 0.01339746 -0.71423124
v -2.08819054 0.01339746 -0.43393098
v -2.09131074 0.05000000 -0.14304957
v -2.12782795 0.01339746 -0.14554742
v -2.12782795 0.01339746 0.14554742
v -2.05235358 0.05000000 0.42648398
v -2.08819054 0.01339746 0.43393098
v -2.00965409 0.01339746 0.71423124
v -1.86118274 0.05000000 0.96438716
v -1.89368159 0.01339746 0.98122671
v -1.74243339 0.01339746 1.22994379
v -1.52270288 0.06155510 1.42986204
v -1.55872694 0.01339746 1.45574934
v -1.32288495 0.05000000 1.62604404
v -1.34598437 0.01339746 1.65443704
v -1.10816865 0.01339746 1.82230571
v -0.83512735 0.05000000 1.92265600
v -0.84970984 0.01339746 1.95622826
v -0.57542255 0.01339746 2.05370999
v -0.28543218 0.05000000 2.07667336
v -0.29041623 0.01339746 2.11293499
v -0.29041623 5.93972754 -2.11293499
v -0.57542255 5.93972754 -2.05370999
v -0.56554731 5.90312500 -2.01846477
v -0.84970984 5.93972754 -1.95622826
v -0.83533258 5.89338138 -1.91586417
v -1.10816865 5.93972754 -1.82230571
v -1.08915056 5.90312500 -1.79103179
v -1.34598437 5.93972754 -1.65443704
v -1.32749660 5.89127685 -1.61277905
v -1.55872694 5.93972754 -1.45574934
v -1.53197649 5.90312500 -1.43076616
v -1.74243339 5.93972754 -1.22994379
v -1.70751698 5.88978386 -1.20132699
v -1.95657696 5.93896245 -0.85429758
v -1.97516495 5.90312500 -0.70197379
v -2.08819054 5.93972754 -0.43393098
v -2.04381068 5.88757515 -0.42470874
v -2.09131074 5.90312500 -0.14304957
v -2.13563955 5.93965153 0.00000000
v -2.08470842 5.89263606 0.13403683
v -2.08819054 5.93972754 0.43393098
v -2.05235358 5.90312500 0.42648398
v -1.97009572 5.89156989 0.69415585
v -1.95883274 5.93965153 0.85084111
v -1.86118274 5.90312500 0.96438716
v -1.74243339 5.93972754 1.22994379
v -1.71123961 5.88940008 1.19730950
v -1.55872694 5.93972754 1.45574934
v -1.53197649 5.90312500 1.43076616
v -1.34598437 5.93972754 1.65443704
v -1.32261578 5.89156989 1.61673034
v -1.10816865 5.93972754 1.82230571
v -0.84970984 5.93972754 1.95622826
v -0.57542255 5.93972754 2.05370999
v -0.29041623 5.93972754 2.11293499
v -0.28543218 5.90312500 2.07667336
v -2.49696176 0.37966006 4.35959426
v -2.52703850 0.37966006 4.34222944
v -2.49468215 0.34573280 4.35512767
v -2.50185785 0.31142226 4.33025748
v 1.65533309 4.74682354 4.35745367
v -2.02345489 4.71418778 4.34643737
v -1.20165600 4.81664601 4.34704340
v -2.08820840 4.68830978 4.35562178
v 1.62889317 4.78205056 4.33845088
v 0.45724394 4.88978045 4.32561515
v 0.86776494 4.83191927 4.35520140
v 0.08350890 4.87586358 4.34745666
v -0.37553079 4.89258534 4.32561993
v -1.58031951 4.74022884 4.36363517
v -2.25242146 4.70076419 4.32314860
v 2.47147587 4.62206238 4.35683010
v -0.51891973 4.85109709 4.35541658
v -0.71602663 4.86490176 4.33886326
v 2.49951336 4.65113774 4.33046943
v 0.93272926 4.85586297 4.33329273
v -2.94745219 4.74707272 3.60977092
v -3.51825104 4.88979257 2.55739010
v -3.72411445 4.87588613 2.24453532
v -3.54917094 4.83922999 2.57501086
v -4.24242971 4.81172925 1.37416023
v -4.26626198 4.85082177 1.27418710
v -4.46090116 4.81536989 0.92259407
v -4.48683877 4.76231616 0.95461339
v -4.75290682 4.70407427 0.48479265
v -4.81372847 4.71398584 0.33015527
v -3.33796358 4.83180884 2.92885692
v -4.00672851 4.86506187 1.76140603
v -4.57110662 4.77105086 0.77614454
v -5.01868786 4.61536340 0.02392898
v -3.25427803 4.85808907 3.02366701
v -4.12745937 4.85064326 1.55167788
v -5.02400026 0.37966006 0.01736482
v -5.02400026 0.37966006 -0.01736482
v -5.01948875 4.58127744 0.03420201
v -4.59987940 0.21386475 0.74768300
v -4.57189869 0.17910497 0.75819415
v -4.00461028 0.12170749 1.78616677
v -3.89221054 0.07314999 1.93292468
v -3.63123201 0.11647577 2.43289394
v -3.55785922 0.06835608 2.48884075
v -3.31127254 0.14920830 2.98697179
v -3.02944050 0.14556762 3.40195671
v -3.31850109 0.11401273 2.94560234
v -3.07013877 0.19862139 3.40840978
v -2.79629600 0.25686335 3.87374205
v -2.69278717 0.24695167 4.00373343
v -4.21734058 0.12428764 1.39996762
v -2.95771423 0.18988669 3.57062220
v -2.52936085 0.34562408 4.33491688
v -5.00175021 0.31149136 -0.00089615
v 2.47005017 0.33913152 4.35675286
v -1.65536203 0.21411764 4.35745366
v 1.69840379 0.19835729 4.34606761
v -1.24519133 0.13252237 4.33307159
v -0.45712817 0.12171163 4.36117993
v -0.27188707 0.07166378 4.33468659
v 0.48751468 0.11563095 4.35944287
v 0.37541529 0.06835062 4.32561660
v 0.93109207 0.14924929 4.36112861
v 1.41437845 0.14789908 4.33073150
v 1.41660692 0.19866287 4.36302526
v 1.85512763 0.24636648 4.35961593
v -1.03539668 0.14770692 4.35754197
v -0.77604390 0.09723086 4.33756199
v 0.71595509 0.09603775 4.33885923
v 2.52703850 0.37966006 4.34222944
v 2.49696176 0.37966006 4.35959426
v 2.50013895 4.58127744 4.35837625
v 2.52833249 4.58127744 4.34112476
v 2.52239157 4.62339060 4.33697765
v 2.50144743 4.59083122 4.35734189
v -5.01451746 0.33996429 0.02646499
v 2.53075992 0.34366602 4.33159313
v 2.50361526 0.33928770 4.35008600
v 4.59987940 4.74707275 0.74768300
v 4.57189869 4.78183253 0.75819415
v 3.88487118 4.88908325 1.94209029
v 4.20544628 4.83180887 1.42633279
v 4.00461028 4.83923001 1.78616677
v 3.55785922 4.89258142 2.48884075
v 3.38035770 4.83951214 2.85518882
v 3.23660931 4.85082173 3.05759790
v 3.02944050 4.81536988 3.40195671
v 2.78752092 4.69838746 3.89007385
v 2.70074022 4.71724994 3.98927907
v 3.53132244 4.84531270 2.60245496
v 3.02239928 4.77114806 3.47531544
v 5.00175021 4.64944614 -0.00089615
v 4.21873716 4.85578606 1.35947410
v 3.41296236 4.87446773 2.75152762
v -2.52951013 4.60971684 -4.33632794
v -4.59987940 4.74707275 -0.74768300
v -4.57189869 4.78183253 -0.75819415
v -3.88487118 4.88908325 -1.94209029
v -4.00461028 4.83923001 -1.78616677
v -3.55785922 4.89258142 -2.48884075
v -3.16480496 4.78476025 -3.24351919
v -4.20544628 4.83180887 -1.42633279
v -3.53132244 4.84531270 -2.60245496
v -4.99756535 4.65318867 -0.00108906
v -4.21873716 4.85578606 -1.35947410
v -3.40889336 4.87131651 -2.76536998
v -3.36035277 4.82654121 -2.89679013
v -3.24357448 4.84812028 -3.05102015
v -2.81128120 4.75016857 -3.79694056
v -2.58730942 4.68113264 -4.18205539
v -2.57696208 4.63674718 -4.25270866
v -2.49696176 4.58127744 -4.35959426
v -2.52703850 4.58127744 -4.34222944
v -2.94745219 0.21386478 -3.60977092
v -3.62433503 0.07185423 -2.39335211
v -3.33796358 0.12912866 -2.92885692
v -3.54917094 0.12170751 -2.57501086
v -3.93432892 0.06835608 -1.83677608
v -4.25476379 0.10526781 -1.28071239
v -4.66601477 0.19754012 -0.56601108
v -4.87698374 0.26680084 -0.21620081
v -4.01945330 0.11562476 -1.75698747
v -4.50727364 0.17786540 -0.89566105
v -4.64566285 0.22356205 -0.66735443
v -5.01706340 0.34302908 -0.02354556
v -3.25427803 0.10284843 -3.02366701
v -4.08937399 0.08646976 -1.57994829
v -4.16910210 0.12619736 -1.49305334
v 5.01624201 0.35103923 0.03375924
v 2.94745219 0.21386478 3.60977092
v 4.77582568 0.24672932 0.42090179
v 2.94256482 0.17910496 3.58028321
v 3.51825104 0.07114493 2.55739010
v 3.72411445 0.08505137 2.24453532
v 3.54917094 0.12170751 2.57501086
v 4.46090116 0.14556761 0.92259407
v 3.33796358 0.12912866 2.92885692
v 4.00672851 0.09587563 1.76140603
v 4.31299790 0.12506069 1.21191462
v 4.51495491 0.19089494 0.89433416
v 2.50332854 0.31021478 4.32750254
v 3.28670770 0.10515145 2.97379651
v 4.15909182 0.11988619 1.50153120
v 5.02400026 4.58127744 0.01736482
v 5.02400026 4.58127744 -0.01736482
v 5.02165394 0.36531825 0.02467417
v 5.01948875 0.37966006 0.03420201
v 5.01451746 4.62097321 0.02646499
v -2.49385175 4.61470568 -4.35562468
v -2.50276624 4.65044018 -4.32861280
v 2.53476502 4.62077429 -4.32347269
v 2.94745219 4.74707272 -3.60977092
v 2.94256482 4.78183254 -3.58028321
v 3.62433503 4.88908327 -2.39335211
v 3.33796358 4.83180884 -2.92885692
v 3.54917094 4.83922999 -2.57501086
v 3.93432892 4.89258142 -1.83677608
v 4.16284491 4.83951218 -1.49988116
v 4.24313858 4.85751502 -1.30387930
v 4.50727364 4.78307210 -0.89566105
v 4.66601477 4.76339738 -0.56601108
v 4.87698374 4.69413666 -0.21620081
v 4.01945330 4.84531274 -1.75698747
v 4.64566285 4.73737545 -0.66735443
v 5.01706340 4.61790842 -0.02354556
v 2.49928976 4.65102845 -4.33139766
v 3.28670770 4.85578605 -2.97379651
v 4.08937399 4.87446774 -1.57994829
v -1.65536247 4.74681983 -4.35745366
v -2.06953666 4.72324740 -4.33196790
v -1.24519168 4.82841512 -4.33307160
v -0.27717167 4.88802484 -4.33607800
v -0.45712842 4.83922587 -4.36117993
v 0.56054618 4.84699376 -4.35624793
v 0.99229311 4.85746776 -4.32659848
v 1.11287481 4.80485755 -4.35911832
v 1.84294871 4.76335468 -4.32388856
v -0.86782599 4.83191538 -4.35520125
v 1.61344512 4.77100622 -4.34676314
v 1.73503120 4.73068636 -4.36085453
v 2.49420353 4.61644111 -4.35578323
v -0.93278605 4.85585911 -4.33329242
v 1.65533265 0.21411392 -4.35745367
v 1.62889308 0.17888696 -4.33845089
v 0.04158164 0.06240062 -4.32572583
v -0.86527006 0.13324358 -4.35579232
v -1.11721772 0.12274427 -4.33743003
v -1.43149988 0.14560610 -4.32454566
v -2.00879150 0.26116225 -4.35695949
v -2.12100561 0.24696816 -4.33388746
v 1.03534225 0.14770266 -4.35754203
v -1.52360690 0.18997844 -4.35360496
v 2.39082218 0.29872225 -4.33990211
v 0.83608756 0.10874441 -4.34279903
v -0.57254037 0.08110511 -4.33154146
v 0.70189013 0.11757250 -4.35653513
v -0.53297860 0.11123571 -4.35715421
v 0.77367331 0.09096087 -4.33148438
v 2.53488847 0.34148405 -4.32383248
v 4.59987940 0.21386475 -0.74768300
v 4.57189869 0.17910497 -0.75819415
v 3.88487118 0.07185425 -1.94209029
v 4.00461028 0.12170749 -1.78616677
v 3.53514402 0.11224341 -2.59309225
v 3.55785922 0.06835608 -2.48884075
v 3.02944050 0.14556762 -3.40195671
v 3.19639856 0.12838491 -3.14860103
v 3.07124647 0.19863003 -3.40679176
v 2.78963402 0.25799932 -3.88509582
v 2.86141174 0.21528146 -3.73887980
v 2.61776844 0.26016224 -4.11218924
v 4.20544628 0.12912863 -1.42633279
v 3.37469231 0.11752849 -2.85757857
v 4.99625379 0.30718718 -0.00425459
v 4.21873716 0.10515144 -1.35947410
v 2.49696176 4.58127744 -4.35959426
v 2.52703850 4.58127744 -4.34222944
v 2.52902189 4.59595656 -4.33906784
v 2.50551184 4.64358570 -4.33112263
v 2.52833249 0.37966006 -4.34112476
v 2.50013895 0.37966006 -4.35837625
f 1 3 2
f 8 6 7
f 8 9 11
f 8 11 6
f 17 16 18
f 18 12 13
f 17 13 14
f 17 18 13
f 21 19 20
f 21 22 24
f 21 24 19
f 26 694 25
f 33 32 34
f 34 28 29
f 33 29 30
f 33 34 29
f 57 55 56
f 59 44 61
f 59 56 44
f 58 57 56
f 58 56 59
f 60 58 59
f 62 60 59
f 62 59 61
f 63 61 43
f 64 62 61
f 64 61 63
f 65 64 63
f 66 43 42
f 66 63 43
f 66 65 63
f 67 65 66
f 69 66 42
f 68 67 66
f 68 66 69
f 69 42 41
f 70 68 69
f 71 70 69
f 71 69 41
f 47 70 71
f 71 41 40
f 72 47 71
f 74 71 40
f 73 72 71
f 73 71 74
f 74 40 39
f 75 73 74
f 77 74 39
f 77 75 74
f 76 75 77
f 77 39 38
f 48 76 77
f 78 77 38
f 49 77 78
f 49 48 77
f 79 38 37
f 79 78 38
f 50 49 78
f 50 78 79
f 51 50 79
f 80 37 36
f 80 51 79
f 80 79 37
f 52 51 80
f 81 80 36
f 53 52 80
f 53 80 81
f 54 53 81
f 45 36 35
f 45 81 36
f 45 54 81
f 82 45 46
f 82 54 45
f 111 101 100
f 112 111 100
f 112 105 111
f 112 113 105
f 112 100 99
f 113 99 98
f 113 112 99
f 114 113 98
f 114 106 113
f 114 98 97
f 114 97 96
f 115 106 114
f 115 116 106
f 115 114 96
f 115 96 95
f 116 95 94
f 116 115 95
f 118 107 116
f 118 116 94
f 118 94 117
f 118 117 119
f 120 108 107
f 120 119 93
f 120 107 118
f 120 118 119
f 121 120 93
f 122 108 120
f 122 120 121
f 92 122 121
f 122 123 108
f 123 122 92
f 123 92 91
f 90 123 91
f 109 123 90
f 124 110 109
f 124 109 90
f 124 90 89
f 88 124 89
f 125 110 124
f 125 124 88
f 125 88 87
f 126 87 86
f 126 127 110
f 126 110 125
f 126 125 87
f 127 86 85
f 127 126 86
f 84 127 85
f 128 127 84
f 128 104 127
f 128 84 83
f 129 128 83
f 103 104 128
f 103 129 102
f 103 128 129
f 142 149 143
f 141 149 142
f 140 150 141
f 139 150 140
f 138 151 139
f 137 151 138
f 154 153 152
f 136 153 154
f 135 155 136
f 156 155 135
f 134 157 156
f 158 157 134
f 133 159 158
f 132 159 133
f 131 130 161
f 131 161 148
f 167 188 162
f 174 173 166
f 180 165 164
f 172 164 163
f 172 180 164
f 182 172 163
f 182 163 181
f 183 181 184
f 193 612 143
f 203 130 189
f 203 198 130
f 203 199 198
f 204 199 203
f 205 200 199
f 205 199 204
f 206 189 597
f 206 203 189
f 205 201 200
f 207 201 205
f 208 204 203
f 208 203 206
f 209 202 201
f 209 201 207
f 208 205 204
f 210 597 598
f 210 206 597
f 211 205 208
f 212 202 209
f 213 207 205
f 213 205 211
f 215 208 206
f 215 206 210
f 213 209 207
f 216 209 213
f 217 598 599
f 217 210 598
f 218 211 208
f 218 208 215
f 223 209 216
f 223 212 209
f 218 213 211
f 223 214 212
f 219 210 217
f 219 215 210
f 220 213 218
f 220 216 213
f 221 599 324
f 221 217 599
f 222 215 219
f 222 218 215
f 223 216 220
f 224 218 222
f 225 217 221
f 225 219 217
f 224 220 218
f 226 220 224
f 227 324 600
f 227 221 324
f 228 222 219
f 228 219 225
f 226 223 220
f 230 221 227
f 228 224 222
f 229 214 223
f 229 223 226
f 230 225 221
f 231 224 228
f 234 225 230
f 232 226 224
f 232 224 231
f 233 600 322
f 233 227 600
f 234 228 225
f 233 230 227
f 235 228 234
f 229 226 232
f 236 230 233
f 237 228 235
f 237 231 228
f 238 230 236
f 238 234 230
f 237 232 231
f 239 322 601
f 239 233 322
f 243 232 237
f 240 234 238
f 240 235 234
f 243 229 232
f 241 233 239
f 241 236 233
f 240 237 235
f 241 238 236
f 242 243 237
f 242 237 240
f 244 601 602
f 244 239 601
f 245 238 241
f 245 240 238
f 246 241 239
f 246 239 244
f 247 240 245
f 250 241 246
f 248 242 240
f 248 240 247
f 249 602 603
f 249 244 602
f 250 245 241
f 248 243 242
f 251 245 250
f 252 268 229
f 252 229 243
f 252 243 248
f 253 246 244
f 253 244 249
f 254 248 247
f 254 247 245
f 254 245 251
f 253 250 246
f 255 603 604
f 255 249 603
f 256 250 253
f 259 248 254
f 257 250 256
f 257 251 250
f 252 248 259
f 258 249 255
f 258 253 249
f 257 254 251
f 259 254 257
f 260 604 605
f 260 255 604
f 261 253 258
f 261 256 253
f 262 258 255
f 262 255 260
f 261 257 256
f 268 252 259
f 263 257 261
f 266 258 262
f 264 259 257
f 264 257 263
f 265 605 606
f 265 260 605
f 266 261 258
f 265 262 260
f 267 261 266
f 268 259 264
f 269 266 262
f 269 262 265
f 270 261 267
f 270 263 261
f 270 264 263
f 271 606 607
f 271 265 606
f 272 267 266
f 272 266 269
f 273 264 270
f 275 265 271
f 274 264 273
f 274 283 268
f 274 268 264
f 275 269 265
f 276 270 267
f 276 267 272
f 278 269 275
f 277 607 608
f 277 271 607
f 278 272 269
f 273 270 276
f 277 275 271
f 279 272 278
f 280 275 277
f 279 276 272
f 280 278 275
f 286 276 279
f 281 277 608
f 281 608 609
f 282 278 280
f 288 273 276
f 288 276 286
f 282 279 278
f 283 274 273
f 283 273 288
f 285 280 277
f 285 277 281
f 284 279 282
f 286 279 284
f 289 609 610
f 289 281 609
f 287 282 280
f 287 280 285
f 291 285 281
f 291 281 289
f 290 284 282
f 290 282 287
f 290 286 284
f 294 610 190
f 294 289 610
f 292 287 285
f 292 285 291
f 293 286 290
f 293 288 286
f 293 283 288
f 293 197 283
f 295 289 294
f 295 291 289
f 296 287 292
f 296 290 287
f 298 291 295
f 297 190 611
f 297 294 190
f 298 292 291
f 293 290 296
f 299 296 292
f 299 292 298
f 300 294 297
f 300 295 294
f 300 298 295
f 305 296 299
f 301 611 191
f 301 297 611
f 302 298 300
f 305 293 296
f 304 299 298
f 304 298 302
f 197 293 305
f 303 300 297
f 303 297 301
f 305 299 304
f 306 191 192
f 306 301 191
f 307 302 300
f 307 300 303
f 308 197 305
f 307 304 302
f 309 301 306
f 309 303 301
f 310 304 307
f 308 305 304
f 308 304 310
f 312 192 612
f 312 612 193
f 312 306 192
f 311 303 309
f 311 307 303
f 312 193 194
f 313 310 307
f 313 307 311
f 314 197 308
f 314 320 197
f 315 194 195
f 315 306 312
f 315 309 306
f 315 312 194
f 317 308 310
f 317 310 313
f 316 315 195
f 316 309 315
f 316 311 309
f 317 314 308
f 316 195 196
f 316 313 311
f 318 316 196
f 318 313 316
f 318 196 429
f 318 317 313
f 319 317 318
f 319 318 429
f 320 314 317
f 320 317 319
f 320 319 429
f 332 143 613
f 331 613 192
f 331 332 613
f 191 331 192
f 611 331 191
f 330 611 321
f 330 331 611
f 610 330 321
f 27 610 609
f 27 609 608
f 27 330 610
f 607 27 608
f 329 607 606
f 329 27 607
f 605 329 606
f 604 329 605
f 328 604 603
f 328 329 604
f 602 328 603
f 31 602 601
f 31 601 322
f 31 328 602
f 323 31 322
f 327 323 324
f 327 31 323
f 325 327 324
f 326 325 598
f 326 327 325
f 597 326 598
f 189 326 597
f 23 326 189
f 23 189 130
f 590 344 589
f 343 344 590
f 591 343 590
f 592 343 591
f 342 592 593
f 342 343 592
f 333 342 593
f 341 333 334
f 341 334 594
f 341 594 335
f 341 342 333
f 595 341 335
f 340 341 595
f 596 340 595
f 173 340 596
f 339 173 174
f 339 340 173
f 175 339 174
f 338 175 176
f 338 176 177
f 338 177 178
f 338 339 175
f 179 338 178
f 337 338 179
f 165 337 179
f 180 337 165
f 336 337 180
f 172 336 180
f 10 336 172
f 10 172 182
f 101 377 55
f 345 376 377
f 345 377 101
f 346 375 376
f 346 376 345
f 347 374 375
f 347 375 346
f 348 673 374
f 348 374 347
f 349 373 673
f 349 673 348
f 633 669 373
f 633 373 349
f 350 372 669
f 350 669 633
f 351 665 372
f 351 372 350
f 352 371 665
f 352 665 351
f 353 662 371
f 353 371 352
f 354 370 662
f 354 662 353
f 355 370 354
f 355 659 370
f 356 659 355
f 357 659 356
f 357 369 659
f 619 369 357
f 619 655 368
f 619 368 369
f 617 655 619
f 358 655 617
f 358 367 655
f 359 367 358
f 359 651 367
f 360 366 651
f 360 651 359
f 361 366 360
f 361 365 647
f 361 647 366
f 362 365 361
f 363 365 362
f 363 364 365
f 102 46 364
f 102 364 363
f 385 386 519
f 385 519 536
f 387 519 386
f 387 378 519
f 388 378 387
f 384 385 536
f 384 536 214
f 35 378 388
f 383 384 214
f 36 378 35
f 36 462 378
f 382 214 229
f 382 383 214
f 37 462 36
f 381 382 229
f 38 462 37
f 229 380 381
f 446 462 38
f 268 380 229
f 446 38 39
f 268 379 380
f 446 39 40
f 268 44 379
f 320 446 40
f 283 44 268
f 320 40 41
f 283 61 44
f 320 41 42
f 283 43 61
f 197 320 42
f 197 43 283
f 197 42 43
f 395 392 587
f 395 587 586
f 396 392 395
f 396 391 392
f 394 395 586
f 394 586 585
f 394 585 584
f 397 391 396
f 397 405 391
f 393 394 584
f 393 584 583
f 397 390 405
f 398 390 397
f 398 590 390
f 104 393 583
f 104 583 162
f 104 162 188
f 399 590 398
f 104 188 171
f 104 171 187
f 399 591 590
f 400 591 399
f 127 187 170
f 127 104 187
f 400 593 591
f 127 170 169
f 401 333 593
f 401 593 400
f 168 127 169
f 168 110 127
f 334 333 401
f 186 109 110
f 186 110 168
f 594 401 402
f 594 334 401
f 185 109 186
f 335 594 402
f 184 109 185
f 389 335 402
f 389 402 403
f 181 109 184
f 181 123 109
f 166 389 403
f 166 403 105
f 163 123 181
f 163 108 123
f 174 166 105
f 163 107 108
f 175 174 105
f 175 105 113
f 164 107 163
f 176 175 113
f 164 116 107
f 177 176 113
f 177 113 106
f 165 116 164
f 178 177 106
f 179 116 165
f 179 178 106
f 179 106 116
f 129 46 102
f 129 82 46
f 83 54 82
f 83 82 129
f 84 53 54
f 84 54 83
f 85 52 53
f 85 53 84
f 86 51 52
f 86 52 85
f 87 50 51
f 87 51 86
f 88 49 50
f 88 50 87
f 89 48 49
f 89 49 88
f 90 75 76
f 90 76 48
f 90 48 89
f 91 73 75
f 91 75 90
f 92 72 73
f 92 73 91
f 121 72 92
f 121 47 72
f 93 47 121
f 119 47 93
f 119 68 70
f 119 70 47
f 117 68 119
f 117 67 68
f 94 67 117
f 95 67 94
f 95 64 65
f 95 65 67
f 96 64 95
f 96 62 64
f 97 62 96
f 97 60 62
f 98 58 60
f 98 60 97
f 99 57 58
f 99 58 98
f 100 57 99
f 101 55 57
f 101 57 100
f 10 182 181
f 183 10 181
f 412 10 183
f 184 412 183
f 185 412 184
f 411 185 186
f 411 412 185
f 168 411 186
f 4 168 169
f 4 169 170
f 4 170 187
f 4 411 168
f 171 4 187
f 410 4 171
f 188 410 171
f 167 410 188
f 409 167 583
f 409 410 167
f 584 409 583
f 15 584 585
f 15 585 586
f 15 586 587
f 15 409 584
f 404 15 587
f 408 15 404
f 588 408 404
f 407 588 405
f 407 408 588
f 406 407 405
f 344 407 406
f 344 406 589
f 23 130 131
f 420 131 148
f 420 23 131
f 147 420 148
f 146 420 147
f 419 146 145
f 419 420 146
f 144 419 145
f 418 144 160
f 418 160 132
f 418 419 144
f 133 418 132
f 417 133 158
f 417 418 133
f 134 417 158
f 156 417 134
f 416 156 135
f 416 417 156
f 136 416 135
f 415 136 154
f 415 154 152
f 415 416 136
f 137 415 152
f 414 137 138
f 414 415 137
f 139 414 138
f 413 139 140
f 413 414 139
f 141 413 140
f 142 413 141
f 332 413 142
f 332 142 143
f 198 161 130
f 421 193 143
f 421 143 149
f 421 194 193
f 422 194 421
f 423 195 194
f 423 194 422
f 424 149 141
f 424 421 149
f 426 196 195
f 426 195 423
f 425 422 421
f 425 421 424
f 425 423 422
f 427 429 196
f 427 196 426
f 430 424 141
f 430 141 150
f 428 423 425
f 433 426 423
f 433 423 428
f 431 320 429
f 431 446 320
f 432 424 430
f 432 425 424
f 434 426 433
f 434 427 426
f 435 150 139
f 435 430 150
f 436 428 425
f 436 425 432
f 434 431 429
f 434 429 427
f 436 433 428
f 437 432 430
f 437 430 435
f 438 433 436
f 437 436 432
f 438 434 433
f 439 139 151
f 439 435 139
f 441 436 437
f 440 434 438
f 446 431 434
f 446 434 440
f 442 437 435
f 442 435 439
f 443 438 436
f 443 436 441
f 444 439 151
f 444 151 137
f 445 441 437
f 445 437 442
f 440 438 443
f 447 442 439
f 447 439 444
f 448 443 441
f 448 441 445
f 449 137 152
f 449 152 153
f 449 444 137
f 450 442 447
f 450 445 442
f 455 440 443
f 455 443 448
f 456 462 446
f 456 446 440
f 456 440 455
f 451 444 449
f 451 447 444
f 452 448 445
f 452 445 450
f 453 449 153
f 454 447 451
f 454 450 447
f 455 448 452
f 457 450 454
f 458 449 453
f 458 451 449
f 457 452 450
f 459 455 452
f 459 452 457
f 461 153 136
f 461 453 153
f 460 454 451
f 460 451 458
f 460 457 454
f 462 455 459
f 462 456 455
f 463 458 453
f 463 453 461
f 464 457 460
f 463 460 458
f 464 459 457
f 465 136 155
f 465 155 156
f 465 461 136
f 467 460 463
f 466 461 465
f 466 463 461
f 468 460 467
f 468 464 460
f 469 463 466
f 468 459 464
f 470 465 156
f 469 467 463
f 473 459 468
f 470 466 465
f 471 467 469
f 476 459 473
f 476 378 462
f 476 462 459
f 472 466 470
f 471 468 467
f 472 469 466
f 473 468 471
f 474 156 157
f 474 470 156
f 475 469 472
f 475 471 469
f 478 472 470
f 478 470 474
f 477 471 475
f 479 473 471
f 479 471 477
f 480 157 158
f 480 474 157
f 481 472 478
f 481 475 472
f 479 476 473
f 480 478 474
f 488 476 479
f 488 378 476
f 482 478 480
f 483 477 475
f 483 475 481
f 485 478 482
f 483 479 477
f 484 158 159
f 484 480 158
f 485 481 478
f 486 479 483
f 487 481 485
f 488 479 486
f 489 480 484
f 489 482 480
f 490 481 487
f 490 483 481
f 489 485 482
f 491 159 132
f 491 132 160
f 491 484 159
f 492 485 489
f 486 483 490
f 493 487 485
f 493 485 492
f 498 378 488
f 498 488 486
f 494 489 484
f 494 484 491
f 493 490 487
f 495 490 493
f 497 491 160
f 496 492 489
f 496 489 494
f 502 486 490
f 502 490 495
f 496 493 492
f 498 486 502
f 499 494 491
f 499 491 497
f 500 493 496
f 501 494 499
f 500 495 493
f 503 160 144
f 503 144 145
f 503 497 160
f 501 496 494
f 502 495 500
f 505 496 501
f 509 519 378
f 509 498 502
f 509 378 498
f 504 499 497
f 504 497 503
f 505 500 496
f 504 501 499
f 506 500 505
f 507 145 146
f 507 503 145
f 508 501 504
f 506 502 500
f 508 505 501
f 509 502 506
f 510 504 503
f 510 503 507
f 512 505 508
f 511 508 504
f 511 504 510
f 512 506 505
f 513 507 146
f 516 506 512
f 515 508 511
f 519 509 506
f 519 506 516
f 514 507 513
f 514 510 507
f 515 512 508
f 514 511 510
f 516 512 515
f 518 146 147
f 518 147 148
f 518 513 146
f 517 511 514
f 521 515 511
f 521 511 517
f 520 514 513
f 520 513 518
f 522 516 515
f 522 515 521
f 523 518 148
f 524 517 514
f 524 514 520
f 522 519 516
f 524 521 517
f 529 519 522
f 529 536 519
f 525 518 523
f 525 520 518
f 526 521 524
f 526 522 521
f 527 148 161
f 527 161 198
f 527 523 148
f 528 520 525
f 528 524 520
f 533 522 526
f 527 525 523
f 527 198 199
f 529 522 533
f 530 525 527
f 530 527 199
f 531 524 528
f 531 526 524
f 532 525 530
f 532 199 200
f 532 530 199
f 532 528 525
f 532 200 201
f 533 526 531
f 534 528 532
f 534 532 201
f 536 529 533
f 534 201 202
f 534 531 528
f 535 531 534
f 535 533 531
f 535 534 202
f 535 202 212
f 535 212 214
f 536 535 214
f 536 533 535
f 537 545 808
f 538 544 545
f 538 545 537
f 539 543 544
f 539 544 538
f 540 542 543
f 540 543 539
f 541 542 540
f 25 744 549
f 546 552 744
f 546 744 25
f 547 551 552
f 547 552 546
f 692 550 551
f 692 551 547
f 548 550 692
f 34 727 556
f 553 559 727
f 553 727 34
f 554 558 559
f 554 559 553
f 706 557 558
f 706 558 554
f 555 557 706
f 19 566 563
f 560 565 566
f 560 566 19
f 561 564 565
f 561 565 560
f 780 18 564
f 780 564 561
f 562 18 780
f 567 574 571
f 568 573 574
f 568 574 567
f 569 572 573
f 569 573 568
f 859 2 572
f 859 572 569
f 570 2 859
f 575 887 580
f 576 582 887
f 576 887 575
f 577 581 582
f 577 582 576
f 578 6 581
f 578 581 577
f 579 6 578
f 166 595 389
f 173 596 166
f 583 167 162
f 392 404 587
f 392 588 404
f 588 392 391
f 405 588 391
f 406 405 390
f 589 406 390
f 589 390 590
f 592 591 593
f 595 335 389
f 596 595 166
f 325 599 598
f 324 599 325
f 323 600 324
f 322 600 323
f 321 190 610
f 611 190 321
f 613 143 612
f 613 612 192
f 105 403 111
f 614 103 102
f 614 104 103
f 614 393 104
f 614 102 363
f 615 614 363
f 615 393 614
f 615 363 362
f 615 394 393
f 615 362 361
f 616 615 361
f 616 361 360
f 616 394 615
f 616 395 394
f 616 360 359
f 618 616 359
f 618 395 616
f 618 359 358
f 618 358 617
f 618 396 395
f 620 618 617
f 620 617 619
f 620 396 618
f 621 619 357
f 622 620 619
f 622 396 620
f 622 397 396
f 622 619 621
f 356 621 357
f 623 622 621
f 623 621 356
f 623 397 622
f 624 356 355
f 625 356 624
f 625 398 397
f 625 623 356
f 625 397 623
f 354 624 355
f 626 625 624
f 626 398 625
f 626 624 354
f 627 354 353
f 628 399 398
f 628 354 627
f 628 626 354
f 628 398 626
f 352 627 353
f 629 627 352
f 629 399 628
f 629 628 627
f 630 352 351
f 631 400 399
f 631 629 352
f 631 399 629
f 631 352 630
f 350 630 351
f 632 400 631
f 632 631 630
f 632 630 350
f 634 400 632
f 634 401 400
f 634 632 350
f 634 350 633
f 635 633 349
f 636 401 634
f 636 633 635
f 636 634 633
f 348 635 349
f 637 636 635
f 637 401 636
f 637 635 348
f 637 402 401
f 638 637 348
f 638 348 347
f 639 402 637
f 639 637 638
f 346 638 347
f 640 639 638
f 640 402 639
f 640 638 346
f 640 403 402
f 641 346 345
f 641 640 346
f 641 345 101
f 642 403 640
f 642 641 101
f 642 101 111
f 642 640 641
f 642 111 403
f 643 45 35
f 643 35 388
f 364 46 45
f 364 45 643
f 644 643 388
f 645 364 643
f 645 365 364
f 645 643 644
f 646 388 387
f 646 644 388
f 647 365 645
f 647 645 644
f 647 644 646
f 648 646 387
f 649 647 646
f 649 646 648
f 649 366 647
f 650 387 386
f 650 648 387
f 651 649 648
f 651 366 649
f 651 648 650
f 652 650 386
f 653 367 651
f 653 651 650
f 653 650 652
f 654 386 385
f 654 652 386
f 655 652 654
f 655 653 652
f 655 367 653
f 656 654 385
f 368 655 654
f 368 654 656
f 657 368 656
f 657 369 368
f 658 385 384
f 658 656 385
f 658 657 656
f 659 657 658
f 659 369 657
f 661 658 384
f 660 370 659
f 660 659 658
f 660 658 661
f 662 660 661
f 662 370 660
f 663 384 383
f 663 661 384
f 663 662 661
f 664 662 663
f 664 371 662
f 666 663 383
f 665 663 666
f 665 664 663
f 665 371 664
f 666 383 382
f 667 372 665
f 667 665 666
f 668 666 382
f 668 667 666
f 669 372 667
f 669 667 668
f 670 382 381
f 670 668 382
f 671 373 669
f 671 669 668
f 671 668 670
f 672 670 381
f 673 670 672
f 673 373 671
f 673 671 670
f 674 381 380
f 674 672 381
f 374 673 672
f 374 672 674
f 675 674 380
f 375 674 675
f 375 374 674
f 676 380 379
f 676 675 380
f 376 375 675
f 376 675 676
f 677 379 44
f 677 676 379
f 677 44 56
f 678 376 676
f 678 677 56
f 678 56 55
f 678 377 376
f 678 676 677
f 678 55 377
f 550 548 30
f 679 30 29
f 679 550 30
f 680 29 28
f 680 679 29
f 556 28 34
f 556 680 28
f 548 33 30
f 732 679 680
f 732 680 556
f 681 550 679
f 681 679 732
f 682 681 732
f 683 546 25
f 684 685 328
f 686 548 692
f 687 27 329
f 688 689 329
f 546 690 547
f 546 688 690
f 546 689 688
f 691 329 328
f 691 688 329
f 691 690 688
f 692 547 685
f 692 685 684
f 692 684 686
f 693 328 31
f 693 684 328
f 693 686 684
f 694 683 25
f 694 687 683
f 689 546 683
f 689 683 687
f 695 547 690
f 695 690 691
f 696 328 685
f 696 685 547
f 686 33 548
f 697 27 687
f 697 687 694
f 698 687 329
f 698 689 687
f 696 691 328
f 696 547 695
f 696 695 691
f 32 693 31
f 32 33 686
f 32 686 693
f 689 698 329
f 699 34 32
f 699 32 31
f 699 553 34
f 707 555 706
f 713 31 327
f 713 699 31
f 700 327 326
f 700 326 701
f 700 709 327
f 702 554 553
f 702 553 709
f 702 700 701
f 702 709 700
f 710 554 702
f 710 702 701
f 703 706 554
f 703 554 714
f 705 326 23
f 705 704 326
f 706 703 704
f 706 704 705
f 708 705 23
f 709 553 699
f 709 699 713
f 710 701 326
f 710 326 714
f 704 714 326
f 704 703 714
f 711 705 708
f 711 707 706
f 711 708 707
f 711 706 705
f 712 555 707
f 712 707 708
f 714 554 710
f 783 708 23
f 783 712 708
f 709 713 327
f 557 555 717
f 715 712 22
f 715 717 712
f 715 557 717
f 716 21 20
f 716 22 21
f 716 715 22
f 563 20 19
f 563 716 20
f 718 558 557
f 728 556 727
f 719 344 343
f 720 559 558
f 720 343 721
f 720 558 343
f 722 559 720
f 722 720 721
f 723 343 342
f 723 726 559
f 723 559 722
f 723 342 726
f 723 721 343
f 723 722 721
f 724 727 559
f 724 559 726
f 725 342 341
f 725 726 342
f 727 724 726
f 727 726 725
f 729 725 341
f 755 718 557
f 755 719 718
f 730 558 718
f 730 718 719
f 731 725 729
f 731 728 727
f 731 729 728
f 731 727 725
f 732 556 728
f 732 728 729
f 733 344 719
f 733 719 755
f 730 719 343
f 682 729 341
f 682 732 729
f 730 343 558
f 735 550 681
f 735 681 682
f 735 682 341
f 735 551 550
f 736 820 734
f 736 338 820
f 745 734 549
f 745 549 744
f 745 736 734
f 737 341 340
f 737 735 341
f 738 552 551
f 740 552 738
f 740 738 739
f 741 340 339
f 741 739 340
f 741 740 739
f 742 744 552
f 742 552 748
f 743 339 338
f 743 338 736
f 744 742 743
f 746 340 551
f 746 551 735
f 746 737 340
f 746 735 737
f 747 340 739
f 747 739 738
f 748 339 743
f 748 743 742
f 736 745 744
f 736 744 743
f 551 747 738
f 748 552 740
f 748 741 339
f 748 740 741
f 747 551 340
f 542 541 752
f 749 752 751
f 749 542 752
f 750 751 26
f 750 749 751
f 549 26 25
f 549 750 26
f 753 697 694
f 754 694 26
f 754 26 751
f 754 751 752
f 754 753 694
f 541 753 754
f 541 754 752
f 712 783 24
f 712 24 22
f 712 717 555
f 755 557 715
f 804 715 716
f 804 716 563
f 755 804 733
f 755 715 804
f 757 749 750
f 757 750 549
f 757 549 734
f 757 734 820
f 756 542 749
f 756 749 757
f 756 757 820
f 758 538 537
f 767 541 540
f 759 332 331
f 760 761 331
f 762 539 538
f 762 538 761
f 762 761 760
f 769 539 762
f 769 762 760
f 763 331 330
f 763 769 760
f 763 760 331
f 764 540 539
f 766 330 27
f 766 765 330
f 540 764 765
f 540 765 766
f 767 766 768
f 768 766 27
f 827 758 537
f 827 759 758
f 761 538 758
f 761 758 759
f 765 764 330
f 770 540 766
f 770 767 540
f 770 766 767
f 753 541 767
f 753 767 768
f 771 332 759
f 771 759 827
f 772 759 331
f 772 761 759
f 773 764 539
f 773 763 330
f 773 330 764
f 773 539 769
f 773 769 763
f 697 768 27
f 697 753 768
f 761 772 331
f 775 560 19
f 776 23 420
f 777 781 420
f 778 561 560
f 778 560 781
f 778 781 777
f 782 561 778
f 782 778 777
f 779 420 419
f 779 782 777
f 779 777 420
f 24 775 19
f 24 776 775
f 781 775 776
f 781 560 775
f 783 23 776
f 783 776 24
f 784 776 420
f 784 781 776
f 785 779 419
f 785 561 782
f 785 782 779
f 786 561 785
f 786 785 419
f 786 780 561
f 786 787 780
f 786 419 787
f 781 784 420
f 788 419 418
f 788 787 419
f 788 780 787
f 790 780 788
f 790 562 780
f 789 788 418
f 789 790 788
f 790 789 418
f 790 774 562
f 790 829 774
f 790 418 829
f 12 18 562
f 12 562 792
f 13 792 791
f 13 12 792
f 14 791 567
f 14 13 791
f 571 14 567
f 793 564 18
f 793 16 15
f 793 18 16
f 803 563 566
f 805 15 408
f 805 793 15
f 794 795 408
f 796 565 564
f 796 564 795
f 796 795 794
f 801 565 796
f 801 796 794
f 797 408 407
f 797 801 794
f 797 794 408
f 807 566 565
f 798 802 807
f 802 566 807
f 799 407 344
f 799 798 407
f 800 799 344
f 800 803 799
f 795 564 793
f 795 793 805
f 807 407 798
f 802 798 799
f 803 566 802
f 803 802 799
f 804 563 803
f 804 803 800
f 806 797 407
f 806 801 797
f 806 565 801
f 807 806 407
f 807 565 806
f 733 800 344
f 733 804 800
f 795 805 408
f 809 543 542
f 810 893 808
f 810 10 893
f 545 810 808
f 811 338 337
f 812 337 336
f 812 336 813
f 812 816 337
f 814 544 543
f 814 543 816
f 814 812 813
f 814 816 812
f 817 544 814
f 817 814 813
f 819 545 544
f 815 336 10
f 815 10 810
f 756 809 542
f 756 811 809
f 816 543 809
f 816 809 811
f 817 813 336
f 817 336 822
f 818 336 815
f 819 810 545
f 819 815 810
f 820 338 811
f 820 811 756
f 821 811 337
f 821 816 811
f 822 544 817
f 822 819 544
f 822 336 818
f 822 818 819
f 819 818 815
f 816 821 337
f 7 579 824
f 7 6 579
f 8 7 824
f 9 824 823
f 9 8 824
f 825 9 823
f 826 823 537
f 826 825 823
f 808 826 537
f 827 537 823
f 844 823 824
f 844 824 579
f 827 844 771
f 827 823 844
f 774 791 792
f 774 792 562
f 828 567 791
f 828 791 774
f 829 828 774
f 571 17 14
f 808 893 11
f 825 11 9
f 825 826 808
f 825 808 11
f 831 576 575
f 843 579 578
f 832 415 414
f 833 834 414
f 835 577 576
f 835 576 834
f 835 834 833
f 842 577 835
f 842 835 833
f 836 414 413
f 836 842 833
f 836 833 414
f 837 578 577
f 838 839 837
f 839 578 837
f 840 413 332
f 840 838 413
f 841 840 332
f 841 843 840
f 830 831 575
f 830 832 831
f 834 576 831
f 834 831 832
f 838 837 413
f 839 838 840
f 843 578 839
f 843 839 840
f 844 579 843
f 844 843 841
f 845 415 832
f 845 832 830
f 846 832 414
f 846 834 832
f 847 837 577
f 847 836 413
f 847 413 837
f 847 577 842
f 847 842 836
f 771 841 332
f 771 844 841
f 834 846 414
f 848 568 567
f 849 567 828
f 849 828 829
f 849 829 418
f 849 848 567
f 850 418 417
f 850 849 418
f 850 848 849
f 851 417 416
f 851 857 417
f 852 569 568
f 852 568 857
f 852 857 851
f 853 851 416
f 853 569 852
f 853 852 851
f 855 859 569
f 855 569 853
f 856 416 415
f 856 854 416
f 845 856 415
f 845 859 856
f 857 568 848
f 857 848 850
f 854 853 416
f 854 855 853
f 858 859 855
f 858 854 856
f 858 855 854
f 859 858 856
f 860 570 859
f 860 859 845
f 861 850 417
f 861 857 850
f 857 861 417
f 862 572 2
f 868 571 574
f 863 4 410
f 864 410 409
f 865 574 573
f 866 865 409
f 867 409 15
f 867 866 409
f 871 574 865
f 871 865 866
f 871 866 867
f 869 867 15
f 872 862 2
f 872 863 862
f 870 572 862
f 870 862 863
f 875 573 572
f 876 573 875
f 876 875 864
f 871 868 574
f 871 867 869
f 871 869 868
f 868 17 571
f 872 5 4
f 872 3 5
f 872 2 3
f 872 4 863
f 873 863 410
f 873 572 870
f 873 870 863
f 877 410 864
f 877 864 875
f 874 409 865
f 874 864 409
f 874 876 864
f 16 869 15
f 16 17 868
f 16 868 869
f 876 865 573
f 876 874 865
f 877 875 572
f 877 873 410
f 877 572 873
f 879 581 6
f 888 580 887
f 880 10 412
f 881 891 412
f 882 582 581
f 882 581 891
f 882 891 881
f 883 582 882
f 883 882 881
f 884 412 411
f 884 883 881
f 884 881 412
f 885 411 4
f 885 886 411
f 887 582 886
f 887 886 885
f 890 878 580
f 890 5 878
f 890 4 5
f 890 885 4
f 890 580 888
f 890 888 889
f 890 889 885
f 11 879 6
f 11 880 879
f 891 581 879
f 891 879 880
f 883 892 582
f 883 884 411
f 883 411 892
f 892 886 582
f 892 411 886
f 889 888 887
f 889 887 885
f 893 10 880
f 893 880 11
f 894 880 412
f 894 891 880
f 891 894 412
f 860 895 570
f 860 896 895
f 897 575 896
f 897 896 860
f 898 860 845
f 830 860 898
f 830 898 845
f 830 897 860
f 830 575 897
f 878 5 3
f 3 900 899
f 3 1 900
f 580 878 3
f 580 3 899
f 1 570 895
f 1 2 570
f 900 895 896
f 900 1 895
f 899 896 575
f 899 900 896
f 580 899 575

