# https://github.com/mikedh/trimesh
v 23.41880000 -50.80000000 -2.67500000
v 25.40000000 -50.80000000 -2.67500000
v 25.40000000 -50.80000000 2.67500000
v 25.40000000 -51.16424579 2.65008491
v 25.40000000 -51.72825116 2.51480453
v 25.40000000 -52.68460762 1.94079723
v 25.40000000 -53.27149033 1.03808844
v 25.40000000 -53.50025775 -0.00000000
v 25.40000000 -53.26086541 -1.06890469
v 25.40000000 -52.73472476 -1.87017846
v 25.40000000 -51.82947034 -2.48614525
v 25.40000000 -51.16424579 -2.65008491
v 23.41880000 -50.80000000 2.67500000
v 23.41880000 -51.16424579 -2.65008491
v 23.41880000 -51.91429627 -2.44930015
v 23.41880000 -52.79784892 -1.80258898
v 23.41880000 -53.41865242 -0.67904294
v 23.41880000 -53.39024723 0.78042237
v 23.41880000 -52.85874965 1.71681156
v 23.41880000 -51.99762073 2.42572554
v 23.41880000 -51.16424579 2.65008491
v 23.41880000 50.80000000 -2.67500000
v 25.40000000 50.80000000 -2.67500000
v 25.40000000 50.80000000 2.67500000
v 25.40000000 50.43575421 2.65008491
v 25.40000000 50.07829364 2.57580374
v 25.40000000 49.73427708 2.45354023
v 25.40000000 49.41011293 2.28557191
v 25.40000000 49.11183975 2.07502770
v 25.40000000 48.84501380 1.82582966
v 25.40000000 48.61460554 1.54261986
v 25.40000000 48.42490704 1.23067398
v 25.40000000 48.27945203 0.89580296
v 25.40000000 48.18095007 0.54424483
v 25.40000000 48.13123604 0.18254846
v 25.40000000 48.13123604 -0.18254846
v 25.40000000 48.18095007 -0.54424483
v 25.40000000 48.27945203 -0.89580296
v 25.40000000 48.42490704 -1.23067398
v 25.40000000 48.61460554 -1.54261986
v 25.40000000 48.84501380 -1.82582966
v 25.40000000 49.11183975 -2.07502770
v 25.40000000 49.41011293 -2.28557191
v 25.40000000 49.73427708 -2.45354023
v 25.40000000 50.07829364 -2.57580374
v 25.40000000 50.43575421 -2.65008491
v 23.41880000 50.80000000 2.67500000
v 23.41880000 50.43575421 -2.65008491
v 23.41880000 50.07829364 -2.57580374
v 23.41880000 49.73427708 -2.45354023
v 23.41880000 49.41011293 -2.28557191
v 23.41880000 49.11183975 -2.07502770
v 23.41880000 48.84501380 -1.82582966
v 23.41880000 48.61460554 -1.54261986
v 23.41880000 48.42490704 -1.23067398
v 23.41880000 48.27945203 -0.89580296
v 23.41880000 48.18095007 -0.54424483
v 23.41880000 48.13123604 -0.18254846
v 23.41880000 48.13123604 0.18254846
v 23.41880000 48.18095007 0.54424483
v 23.41880000 48.27945203 0.89580296
v 23.41880000 48.42490704 1.23067398
v 23.41880000 48.61460554 1.54261986
v 23.41880000 48.84501380 1.82582966
v 23.41880000 49.11183975 2.07502770
v 23.41880000 49.41011293 2.28557191
v 23.41880000 49.73427708 2.45354023
v 23.41880000 50.07829364 2.57580374
v 23.41880000 50.43575421 2.65008491
v -25.40000000 -51.12054076 -2.67170002
v -23.41880000 -51.12054076 2.67170002
v -23.41880000 -52.31676889 2.24005624
v -23.41880000 -53.07334686 1.42048798
v -23.41880000 -53.42478108 0.59266484
v -23.41880000 -53.45991368 -0.33279313
v -23.41880000 -53.21009598 -1.19673086
v -23.41880000 -52.40278244 -2.17934125
v -23.41880000 -51.03709768 -2.69485148
v -25.40000000 -51.03709768 2.69485148
v -25.40000000 -52.06203788 2.36498467
v -25.40000000 -52.79784892 1.80258898
v -25.40000000 -53.41865242 0.67904294
v -25.40000000 -53.43113119 -0.54675535
v -25.40000000 -52.93132617 -1.66609980
v -25.40000000 -52.03434825 -2.38218392
v -25.40000000 50.47945924 -2.67170002
v -23.41880000 50.84624122 2.69046263
v -23.41880000 49.93299201 2.53657036
v -23.41880000 49.41011293 2.28557191
v -23.41880000 49.11183975 2.07502770
v -23.41880000 48.84501380 1.82582966
v -23.41880000 48.61460554 1.54261986
v -23.41880000 48.42490704 1.23067398
v -23.41880000 48.27945203 0.89580296
v -23.41880000 48.18095007 0.54424483
v -23.41880000 48.13123604 0.18254846
v -23.41880000 48.13123604 -0.18254846
v -23.41880000 48.18095007 -0.54424483
v -23.41880000 48.27945203 -0.89580296
v -23.41880000 48.42490704 -1.23067398
v -23.41880000 48.61460554 -1.54261986
v -23.41880000 48.84501380 -1.82582966
v -23.41880000 49.11183975 -2.07502770
v -23.41880000 49.41011293 -2.28557191
v -23.41880000 49.73427708 -2.45354023
v -23.41880000 50.56290232 -2.69485148
v -25.40000000 50.02959543 2.57821725
v -25.40000000 49.41011293 2.28557191
v -25.40000000 49.11183975 2.07502770
v -25.40000000 48.84501380 1.82582966
v -25.40000000 48.61460554 1.54261986
v -25.40000000 48.42490704 1.23067398
v -25.40000000 48.27945203 0.89580296
v -25.40000000 48.18095007 0.54424483
v -25.40000000 48.13123604 0.18254846
v -25.40000000 48.13123604 -0.18254846
v -25.40000000 48.18095007 -0.54424483
v -25.40000000 48.27945203 -0.89580296
v -25.40000000 48.42490704 -1.23067398
v -25.40000000 48.61460554 -1.54261986
v -25.40000000 48.84501380 -1.82582966
v -25.40000000 49.11183975 -2.07502770
v -25.40000000 49.56565175 -2.38218392
v 25.40000000 -72.23588705 9.53006841
v 23.41880000 -73.64059010 9.33863246
v 23.41880000 -75.49477038 8.73643765
v 23.41880000 -77.20045254 7.79236600
v 23.41880000 -78.66121256 6.50131869
v 23.41880000 -79.91506401 4.86025741
v 23.41880000 -80.88443140 2.57335695
v 23.41880000 -81.24442184 0.11571714
v 23.41880000 -80.92170891 -2.46362812
v 23.41880000 -79.91506401 -4.86025741
v 23.41880000 -78.29914539 -6.89642362
v 23.41880000 -76.19379831 -8.42111367
v 23.41880000 -74.26981425 -9.17178716
v 23.41880000 -72.35194966 -9.53116612
v 25.40000000 -74.78719658 9.03208702
v 25.40000000 -76.64903712 8.13834483
v 25.40000000 -78.21028143 6.97080927
v 25.40000000 -79.79481447 5.05799935
v 25.40000000 -80.89917003 2.57748652
v 25.40000000 -81.20279503 0.65000899
v 25.40000000 -81.13976777 -1.41427130
v 25.40000000 -80.40814973 -3.90864517
v 25.40000000 -79.03068808 -6.11313266
v 25.40000000 -77.10954283 -7.86423709
v 25.40000000 -74.78719658 -9.03208702
v 25.40000000 -72.35090513 -9.51589558
v 25.40000000 71.70000000 9.52500000
v 23.41880000 70.93321820 9.51427477
v 23.41880000 69.13018575 9.17178716
v 23.41880000 67.90522962 8.73643765
v 23.41880000 66.75096288 8.13834483
v 23.41880000 65.68888733 7.38865004
v 23.41880000 64.73878744 6.50131869
v 23.41880000 63.91836177 5.49288007
v 23.41880000 62.93747927 3.80609990
v 23.41880000 62.22871860 1.18499261
v 23.41880000 62.25070750 -1.29877538
v 23.41880000 62.72496472 -3.18972831
v 23.41880000 63.60518553 -5.05799935
v 23.41880000 64.73878744 -6.50131869
v 23.41880000 65.68888733 -7.38865004
v 23.41880000 66.75096288 -8.13834483
v 23.41880000 67.90522962 -8.73643765
v 23.41880000 69.13018575 -9.17178716
v 23.41880000 71.16411295 -9.53006841
v 25.40000000 69.87142684 9.36833491
v 25.40000000 67.90522962 8.73643765
v 25.40000000 66.75096288 8.13834483
v 25.40000000 65.68888733 7.38865004
v 25.40000000 64.73878744 6.50131869
v 25.40000000 63.91836177 5.49288007
v 25.40000000 62.95151832 3.80000189
v 25.40000000 62.26023223 1.41427130
v 25.40000000 62.23554384 -1.30085957
v 25.40000000 62.95151832 -3.80000189
v 25.40000000 63.91836177 -5.49288007
v 25.40000000 64.73878744 -6.50131869
v 25.40000000 65.68888733 -7.38865004
v 25.40000000 66.75096288 -8.13834483
v 25.40000000 67.90522962 -8.73643765
v 25.40000000 69.64483321 -9.32124821
v 22.41880000 95.70000000 23.41880000
v -13.87859782 95.66825658 25.40000000
v 23.40000000 95.70000000 25.40000000
v 23.66105238 95.70000000 25.38288972
v 23.91763809 95.70000000 25.33185165
v 24.16536686 95.70000000 25.24775907
v 24.40000000 95.70000000 25.13205081
v 24.61752286 95.70000000 24.98670668
v 24.81421356 95.70000000 24.81421356
v 24.98670668 95.70000000 24.61752286
v 25.13205081 95.70000000 24.40000000
v 25.24775907 95.70000000 24.16536686
v 25.33185165 95.70000000 23.91763809
v 25.38288972 95.70000000 23.66105238
v 25.40000000 95.70000000 23.40000000
v 25.40000000 95.70000000 -23.40000000
v 25.38288972 95.70000000 -23.66105238
v 25.33185165 95.70000000 -23.91763809
v 25.24775907 95.70000000 -24.16536686
v 25.13205081 95.70000000 -24.40000000
v 24.98670668 95.70000000 -24.61752286
v 24.81421356 95.70000000 -24.81421356
v 24.61752286 95.70000000 -24.98670668
v 24.40000000 95.70000000 -25.13205081
v 24.16536686 95.70000000 -25.24775907
v 23.91763809 95.70000000 -25.33185165
v 23.66105238 95.70000000 -25.38288972
v 23.40000000 95.70000000 -25.40000000
v -13.76584766 95.68423930 -23.41880000
v 22.41880000 95.70000000 -23.41880000
v 22.54932619 95.70000000 -23.41024486
v 22.67761905 95.70000000 -23.38472583
v 22.80148343 95.70000000 -23.34267953
v 22.91880000 95.70000000 -23.28482540
v 23.02756143 95.70000000 -23.21215334
v 23.12590678 95.70000000 -23.12590678
v 23.21215334 95.70000000 -23.02756143
v 23.28482540 95.70000000 -22.91880000
v 23.34267953 95.70000000 -22.80148343
v 23.38472583 95.70000000 -22.67761905
v 23.41024486 95.70000000 -22.54932619
v 23.41880000 95.70000000 -22.41880000
v 23.41880000 95.70000000 22.41880000
v 23.41024486 95.70000000 22.54932619
v 23.38472583 95.70000000 22.67761905
v 23.34267953 95.70000000 22.80148343
v 23.28482540 95.70000000 22.91880000
v 23.21215334 95.70000000 23.02756143
v 23.12590678 95.70000000 23.12590678
v 23.02756143 95.70000000 23.21215334
v 22.91880000 95.70000000 23.28482540
v 22.80148343 95.70000000 23.34267953
v 22.67761905 95.70000000 23.38472583
v 22.54932619 95.70000000 23.41024486
v -22.91880000 -79.70000000 -25.40000000
v -22.91880000 79.70000000 -25.40000000
v -20.92000000 -79.70000000 -25.40000000
v -20.92000000 79.70000000 -25.40000000
v -17.43880000 79.70000000 -25.40000000
v -14.55000000 79.70000000 -25.40000000
v -17.43880000 -79.70000000 -25.40000000
v -14.55000000 -79.70000000 -25.40000000
v -13.94219861 -95.65412219 -25.40000000
v -14.50769272 -95.06071829 -25.40000000
v 23.40000000 -95.70000000 -25.40000000
v -14.49645056 95.10473603 -25.40000000
v -14.01369930 95.59771101 -25.40000000
v -13.64519304 95.69687812 -25.40000000
v -22.91880000 79.70000000 25.40000000
v -22.91880000 -79.70000000 25.40000000
v -20.92000000 79.70000000 25.40000000
v -20.92000000 -79.70000000 25.40000000
v 25.40000000 -95.70000000 23.40000000
v 25.38288972 -95.70000000 23.66105238
v 25.33185165 -95.70000000 23.91763809
v 25.24775907 -95.70000000 24.16536686
v 25.13205081 -95.70000000 24.40000000
v 24.98670668 -95.70000000 24.61752286
v 24.81421356 -95.70000000 24.81421356
v 24.61752286 -95.70000000 24.98670668
v 24.40000000 -95.70000000 25.13205081
v 24.16536686 -95.70000000 25.24775907
v 23.91763809 -95.70000000 25.33185165
v 23.66105238 -95.70000000 25.38288972
v 23.40000000 -95.70000000 25.40000000
v 25.40000000 -95.70000000 -23.40000000
v 23.66105238 -95.70000000 -25.38288972
v 23.91763809 -95.70000000 -25.33185165
v 24.16536686 -95.70000000 -25.24775907
v 24.40000000 -95.70000000 -25.13205081
v 24.61752286 -95.70000000 -24.98670668
v 24.81421356 -95.70000000 -24.81421356
v 24.98670668 -95.70000000 -24.61752286
v 25.13205081 -95.70000000 -24.40000000
v 25.24775907 -95.70000000 -24.16536686
v 25.33185165 -95.70000000 -23.91763809
v 25.38288972 -95.70000000 -23.66105238
v 22.41880000 -95.70000000 -23.41880000
v 23.41880000 -95.70000000 -22.41880000
v 23.41024486 -95.70000000 -22.54932619
v 23.38472583 -95.70000000 -22.67761905
v 23.34267953 -95.70000000 -22.80148343
v 23.28482540 -95.70000000 -22.91880000
v 23.21215334 -95.70000000 -23.02756143
v 23.12590678 -95.70000000 -23.12590678
v 23.02756143 -95.70000000 -23.21215334
v 22.91880000 -95.70000000 -23.28482540
v 22.80148343 -95.70000000 -23.34267953
v 22.67761905 -95.70000000 -23.38472583
v 22.54932619 -95.70000000 -23.41024486
v 23.41880000 -95.70000000 22.41880000
v 22.41880000 -95.70000000 23.41880000
v 22.54932619 -95.70000000 23.41024486
v 22.67761905 -95.70000000 23.38472583
v 22.80148343 -95.70000000 23.34267953
v 22.91880000 -95.70000000 23.28482540
v 23.02756143 -95.70000000 23.21215334
v 23.12590678 -95.70000000 23.12590678
v 23.21215334 -95.70000000 23.02756143
v 23.28482540 -95.70000000 22.91880000
v 23.34267953 -95.70000000 22.80148343
v 23.38472583 -95.70000000 22.67761905
v 23.41024486 -95.70000000 22.54932619
v -13.89092248 -95.66207535 23.41880000
v 25.40000000 -50.43575421 -2.65008491
v 25.40000000 -50.07829364 -2.57580374
v 25.40000000 -49.73427708 -2.45354023
v 25.40000000 -49.41011293 -2.28557191
v 25.40000000 -49.11183975 -2.07502770
v 25.40000000 -48.84501380 -1.82582966
v 25.40000000 -48.61460554 -1.54261986
v 25.40000000 -48.42490704 -1.23067398
v 25.40000000 -48.27945203 -0.89580296
v 25.40000000 -48.18095007 -0.54424483
v 25.40000000 -48.13123604 -0.18254846
v 25.40000000 -48.13123604 0.18254846
v 25.40000000 -48.18095007 0.54424483
v 25.40000000 -48.27945203 0.89580296
v 25.40000000 -48.42490704 1.23067398
v 25.40000000 -48.61460554 1.54261986
v 25.40000000 -48.84501380 1.82582966
v 25.40000000 -49.11183975 2.07502770
v 25.40000000 -49.41011293 2.28557191
v 25.40000000 -49.73427708 2.45354023
v 25.40000000 -50.07829364 2.57580374
v 25.40000000 -50.43575421 2.65008491
v 25.40000000 51.16424579 -2.65008491
v 25.40000000 51.99762073 -2.42572554
v 25.40000000 53.08363844 -1.45032247
v 25.40000000 53.45106340 -0.39718373
v 25.40000000 53.45991368 0.33279313
v 25.40000000 53.13834213 1.36036609
v 25.40000000 52.23743056 2.27475730
v 25.40000000 51.52170636 2.57580374
v 25.40000000 51.16424579 2.65008491
v 25.40000000 -69.87142684 -9.36833491
v 25.40000000 -67.90522962 -8.73643765
v 25.40000000 -66.75096288 -8.13834483
v 25.40000000 -65.68888733 -7.38865004
v 25.40000000 -64.73878744 -6.50131869
v 25.40000000 -63.91836177 -5.49288007
v 25.40000000 -62.99185027 -3.90864517
v 25.40000000 -62.37422406 -1.93791852
v 25.40000000 -62.19720497 -0.65000899
v 25.40000000 -62.19720497 0.65000899
v 25.40000000 -62.47829109 2.46362812
v 25.40000000 -63.24289329 4.38211948
v 25.40000000 -63.91836177 5.49288007
v 25.40000000 -64.73878744 6.50131869
v 25.40000000 -65.68888733 7.38865004
v 25.40000000 -66.75096288 8.13834483
v 25.40000000 -67.90522962 8.73643765
v 25.40000000 -69.64483321 9.32124821
v 25.40000000 72.23588705 -9.53006841
v 25.40000000 74.89925144 -9.00183072
v 25.40000000 77.20045254 -7.79236600
v 25.40000000 79.11070924 -6.02905918
v 25.40000000 80.44848168 -3.80000189
v 25.40000000 81.13976777 -1.41427130
v 25.40000000 81.16445616 1.30085957
v 25.40000000 80.67503528 3.18972831
v 25.40000000 79.84956436 4.95585985
v 25.40000000 78.29914539 6.89642362
v 25.40000000 76.19379831 8.42111367
v 25.40000000 73.75516679 9.32124821
v -25.40000000 79.70000000 38.10000000
v -25.40000000 -79.70000000 38.10000000
v -25.40000000 -79.70000000 -37.60000000
v -25.40000000 79.70000000 -37.60000000
v -25.40000000 -50.02959543 -2.57821725
v -25.40000000 -49.41011293 -2.28557191
v -25.40000000 -49.11183975 -2.07502770
v -25.40000000 -48.84501380 -1.82582966
v -25.40000000 -48.61460554 -1.54261986
v -25.40000000 -48.42490704 -1.23067398
v -25.40000000 -48.27945203 -0.89580296
v -25.40000000 -48.18095007 -0.54424483
v -25.40000000 -48.13123604 -0.18254846
v -25.40000000 -48.13123604 0.18254846
v -25.40000000 -48.18095007 0.54424483
v -25.40000000 -48.27945203 0.89580296
v -25.40000000 -48.42490704 1.23067398
v -25.40000000 -48.61460554 1.54261986
v -25.40000000 -48.84501380 1.82582966
v -25.40000000 -49.11183975 2.07502770
v -25.40000000 -49.77052966 2.48614525
v -25.40000000 51.37717276 -2.61777838
v -25.40000000 52.23743056 -2.27475730
v -25.40000000 53.02469337 -1.51375916
v -25.40000000 53.44359719 -0.50211675
v -25.40000000 53.45106340 0.39718373
v -25.40000000 53.08363844 1.45032247
v -25.40000000 51.99762073 2.42572554
v -25.40000000 50.95049851 2.67642341
v -14.51825658 -95.02859782 25.40000000
v -14.17512513 -95.48749337 25.40000000
v -13.77170490 -95.68579076 25.40000000
v -14.55000000 -79.70000000 25.40000000
v -17.43880000 -79.70000000 25.40000000
v -17.43880000 79.70000000 25.40000000
v -14.55000000 79.70000000 25.40000000
v -14.33749337 95.32512513 25.40000000
v -14.53579076 94.92170490 25.40000000
v 23.41880000 -50.43575421 2.65008491
v 23.41880000 -50.07829364 2.57580374
v 23.41880000 -49.73427708 2.45354023
v 23.41880000 -49.41011293 2.28557191
v 23.41880000 -49.11183975 2.07502770
v 23.41880000 -48.84501380 1.82582966
v 23.41880000 -48.61460554 1.54261986
v 23.41880000 -48.42490704 1.23067398
v 23.41880000 -48.27945203 0.89580296
v 23.41880000 -48.18095007 0.54424483
v 23.41880000 -48.13123604 0.18254846
v 23.41880000 -48.13123604 -0.18254846
v 23.41880000 -48.18095007 -0.54424483
v 23.41880000 -48.27945203 -0.89580296
v 23.41880000 -48.42490704 -1.23067398
v 23.41880000 -48.61460554 -1.54261986
v 23.41880000 -48.84501380 -1.82582966
v 23.41880000 -49.11183975 -2.07502770
v 23.41880000 -49.41011293 -2.28557191
v 23.41880000 -49.73427708 -2.45354023
v 23.41880000 -50.07829364 -2.57580374
v 23.41880000 -50.43575421 -2.65008491
v 23.41880000 51.16424579 2.65008491
v 23.41880000 51.72825116 2.51480453
v 23.41880000 52.53378834 2.05783997
v 23.41880000 53.18604890 1.23635084
v 23.41880000 53.45106340 0.39718373
v 23.41880000 53.44359719 -0.50211675
v 23.41880000 52.93132617 -1.66609980
v 23.41880000 51.91429627 -2.44930015
v 23.41880000 51.16424579 -2.65008491
v 23.41880000 -69.64483321 -9.32124821
v 23.41880000 -67.90522962 -8.73643765
v 23.41880000 -66.75096288 -8.13834483
v 23.41880000 -65.68888733 -7.38865004
v 23.41880000 -64.73878744 -6.50131869
v 23.41880000 -63.91836177 -5.49288007
v 23.41880000 -62.89964660 -3.69637103
v 23.41880000 -62.37422406 -1.93791852
v 23.41880000 -62.19720497 -0.65000899
v 23.41880000 -62.19720497 0.65000899
v 23.41880000 -62.37422406 1.93791852
v 23.41880000 -62.99185027 3.90864517
v 23.41880000 -63.91836177 5.49288007
v 23.41880000 -64.73878744 6.50131869
v 23.41880000 -65.68888733 7.38865004
v 23.41880000 -66.75096288 8.13834483
v 23.41880000 -67.90522962 8.73643765
v 23.41880000 -69.13018575 9.17178716
v 23.41880000 -71.16411295 9.53006841
v 23.41880000 72.99698733 -9.43628364
v 23.41880000 74.89412570 -8.98740825
v 23.41880000 77.20927934 -7.80487073
v 23.41880000 79.09883603 -6.01939960
v 23.41880000 80.46252073 -3.80609990
v 23.41880000 81.17128140 -1.18499261
v 23.41880000 81.14929250 1.29877538
v 23.41880000 80.50035340 3.69637103
v 23.41880000 79.11070924 6.02905918
v 23.41880000 77.10954283 7.86423709
v 23.41880000 74.78719658 9.03208702
v 23.41880000 72.99698733 9.43628364
v -14.30632785 95.39108139 -23.41880000
v -14.54247618 94.85916173 -23.41880000
v -14.55000000 79.70000000 -23.41880000
v -22.41880000 79.70000000 -23.41880000
v -22.41880000 -79.70000000 -23.41880000
v -14.55000000 -79.70000000 -23.41880000
v -14.53771790 -94.90441203 -23.41880000
v -14.28302081 -95.40460981 -23.41880000
v -13.78298045 -95.68201956 -23.41880000
v -23.41880000 -79.70000000 -22.41880000
v -23.41880000 -79.70000000 22.41880000
v -23.41880000 79.70000000 -22.41880000
v -23.41880000 79.70000000 22.41880000
v -23.41880000 -49.93299201 -2.53657036
v -23.41880000 -49.41011293 -2.28557191
v -23.41880000 -49.11183975 -2.07502770
v -23.41880000 -48.84501380 -1.82582966
v -23.41880000 -48.61460554 -1.54261986
v -23.41880000 -48.42490704 -1.23067398
v -23.41880000 -48.27945203 -0.89580296
v -23.41880000 -48.18095007 -0.54424483
v -23.41880000 -48.13123604 -0.18254846
v -23.41880000 -48.13123604 0.18254846
v -23.41880000 -48.18095007 0.54424483
v -23.41880000 -48.27945203 0.89580296
v -23.41880000 -48.42490704 1.23067398
v -23.41880000 -48.61460554 1.54261986
v -23.41880000 -48.84501380 1.82582966
v -23.41880000 -49.11183975 2.07502770
v -23.41880000 -49.41011293 2.28557191
v -23.41880000 -49.73427708 2.45354023
v -23.41880000 -50.22282724 2.61777838
v -23.41880000 51.66700799 -2.53657036
v -23.41880000 52.31921540 -2.20859155
v -23.41880000 52.88122278 -1.69320037
v -23.41880000 53.35060301 -0.85740986
v -23.41880000 53.47510741 0.36768500
v -23.41880000 53.10711773 1.36495415
v -23.41880000 52.65330331 1.93679087
v -23.41880000 51.91429627 2.44930015
v -14.55000000 79.70000000 23.41880000
v -14.53423930 94.91584766 23.41880000
v -14.32194142 95.35192680 23.41880000
v -13.84663722 95.67133236 23.41880000
v -14.33749337 -95.32512513 23.41880000
v -14.53201956 -94.93298045 23.41880000
v -14.55000000 -79.70000000 23.41880000
v -22.41880000 -79.70000000 23.41880000
v -22.41880000 79.70000000 23.41880000
v -23.41880000 -79.70000000 25.90000000
v -23.41880000 -79.70000000 36.15716560
v -23.41880000 79.70000000 25.90000000
v -23.41880000 79.70000000 36.15716560
v -24.92908353 -79.70000000 38.10000000
v -24.92908353 79.70000000 38.10000000
v -18.43880000 79.70000000 37.60000000
v -18.43880000 79.70000000 26.40000000
v -18.43880000 -79.70000000 37.60000000
v -18.43880000 -79.70000000 26.40000000
v -20.42000000 -79.70000000 36.15716560
v -20.42000000 79.70000000 36.15716560
v -20.42000000 -79.70000000 25.90000000
v -20.42000000 79.70000000 25.90000000
v -20.42000000 79.70000000 -36.15716560
v -20.42000000 79.70000000 -25.90000000
v -20.42000000 -79.70000000 -36.15716560
v -20.42000000 -79.70000000 -25.90000000
v -18.43880000 79.70000000 -26.40000000
v -18.43880000 -79.70000000 -26.40000000
v -18.43880000 79.70000000 -37.60000000
v -18.43880000 -79.70000000 -37.60000000
v -23.41880000 -79.70000000 -36.15716560
v -23.41880000 79.70000000 -36.15716560
v -23.41880000 -79.70000000 -25.90000000
v -23.41880000 79.70000000 -25.90000000
v -19.31929250 -79.70000000 37.88678822
v -20.32957602 -79.70000000 36.44395382
v -19.31929250 79.70000000 37.88678822
v -20.32957602 79.70000000 36.44395382
v -23.50922398 -79.70000000 36.44395382
v -23.50922398 79.70000000 36.44395382
v -24.51950750 -79.70000000 37.88678822
v -24.51950750 79.70000000 37.88678822
v -23.50922398 79.70000000 -36.44395382
v -24.51950750 79.70000000 -37.88678822
v -23.50922398 -79.70000000 -36.44395382
v -24.51950750 -79.70000000 -37.88678822
v -20.32957602 -79.70000000 -36.44395382
v -20.32957602 79.70000000 -36.44395382
v -19.31929250 -79.70000000 -37.88678822
v -19.31929250 79.70000000 -37.88678822
v -17.56932619 -79.70000000 25.40855514
v -17.69761905 -79.70000000 25.43407417
v -17.82148343 -79.70000000 25.47612047
v -17.93880000 -79.70000000 25.53397460
v -18.04756143 -79.70000000 25.60664666
v -18.14590678 -79.70000000 25.69289322
v -18.23215334 -79.70000000 25.79123857
v -18.30482540 -79.70000000 25.90000000
v -18.36267953 -79.70000000 26.01731657
v -18.40472583 -79.70000000 26.14118095
v -18.43024486 -79.70000000 26.26947381
v -23.41024486 -79.70000000 22.54932619
v -23.38472583 -79.70000000 22.67761905
v -23.34267953 -79.70000000 22.80148343
v -23.28482540 -79.70000000 22.91880000
v -23.21215334 -79.70000000 23.02756143
v -23.12590678 -79.70000000 23.12590678
v -23.02756143 -79.70000000 23.21215334
v -22.91880000 -79.70000000 23.28482540
v -22.80148343 -79.70000000 23.34267953
v -22.67761905 -79.70000000 23.38472583
v -22.54932619 -79.70000000 23.41024486
v -22.54932619 -79.70000000 -23.41024486
v -22.67761905 -79.70000000 -23.38472583
v -22.80148343 -79.70000000 -23.34267953
v -22.91880000 -79.70000000 -23.28482540
v -23.02756143 -79.70000000 -23.21215334
v -23.12590678 -79.70000000 -23.12590678
v -23.21215334 -79.70000000 -23.02756143
v -23.28482540 -79.70000000 -22.91880000
v -23.34267953 -79.70000000 -22.80148343
v -23.38472583 -79.70000000 -22.67761905
v -23.41024486 -79.70000000 -22.54932619
v -18.43024486 -79.70000000 -26.26947381
v -18.40472583 -79.70000000 -26.14118095
v -18.36267953 -79.70000000 -26.01731657
v -18.30482540 -79.70000000 -25.90000000
v -18.23215334 -79.70000000 -25.79123857
v -18.14590678 -79.70000000 -25.69289322
v -18.04756143 -79.70000000 -25.60664666
v -17.93880000 -79.70000000 -25.53397460
v -17.82148343 -79.70000000 -25.47612047
v -17.69761905 -79.70000000 -25.43407417
v -17.56932619 -79.70000000 -25.40855514
v -18.92425824 -79.70000000 -38.09978849
v -18.86034389 -79.70000000 -38.09380628
v -18.79772277 -79.70000000 -38.07968450
v -18.73742706 -79.70000000 -38.05765592
v -18.68045066 -79.70000000 -38.02808366
v -18.62773270 -79.70000000 -37.99145515
v -18.58014217 -79.70000000 -37.94837417
v -18.53846351 -79.70000000 -37.89955082
v -18.50338372 -79.70000000 -37.84578988
v -18.47548104 -79.70000000 -37.78797750
v -18.45521540 -79.70000000 -37.72706664
v -18.44292083 -79.70000000 -37.66406129
v -19.27765243 -79.70000000 -37.93856038
v -19.22951571 -79.70000000 -37.98435459
v -19.17573230 -79.70000000 -38.02336224
v -19.11725184 -79.70000000 -38.05489457
v -19.05510692 -79.70000000 -38.07839483
v -18.99039485 -79.70000000 -38.09344807
v -20.41627308 -79.70000000 -36.21810027
v -20.40514786 -79.70000000 -36.27812654
v -20.38679021 -79.70000000 -36.33634957
v -20.36147380 -79.70000000 -36.39190138
v -20.85473690 -79.70000000 -25.40427757
v -20.79059048 -79.70000000 -25.41703709
v -20.72865828 -79.70000000 -25.43806023
v -20.67000000 -79.70000000 -25.46698730
v -20.61561929 -79.70000000 -25.50332333
v -20.56644661 -79.70000000 -25.54644661
v -20.52332333 -79.70000000 -25.59561929
v -20.48698730 -79.70000000 -25.65000000
v -20.45806023 -79.70000000 -25.70865828
v -20.43703709 -79.70000000 -25.77059048
v -20.42427757 -79.70000000 -25.83473690
v -23.41452243 -79.70000000 -25.83473690
v -23.40176291 -79.70000000 -25.77059048
v -23.38073977 -79.70000000 -25.70865828
v -23.35181270 -79.70000000 -25.65000000
v -23.31547667 -79.70000000 -25.59561929
v -23.27235339 -79.70000000 -25.54644661
v -23.22318071 -79.70000000 -25.50332333
v -23.16880000 -79.70000000 -25.46698730
v -23.11014172 -79.70000000 -25.43806023
v -23.04820952 -79.70000000 -25.41703709
v -22.98406310 -79.70000000 -25.40427757
v -23.47732620 -79.70000000 -36.39190138
v -23.45200979 -79.70000000 -36.33634957
v -23.43365214 -79.70000000 -36.27812654
v -23.42252692 -79.70000000 -36.21810027
v -24.91454176 -79.70000000 -38.09978849
v -24.84840515 -79.70000000 -38.09344807
v -24.78369308 -79.70000000 -38.07839483
v -24.72154816 -79.70000000 -38.05489457
v -24.66306770 -79.70000000 -38.02336224
v -24.60928429 -79.70000000 -37.98435459
v -24.56114757 -79.70000000 -37.93856038
v -25.39587917 -79.70000000 -37.66406129
v -25.38358460 -79.70000000 -37.72706664
v -25.36331896 -79.70000000 -37.78797750
v -25.33541628 -79.70000000 -37.84578988
v -25.30033649 -79.70000000 -37.89955082
v -25.25865783 -79.70000000 -37.94837417
v -25.21106730 -79.70000000 -37.99145515
v -25.15834934 -79.70000000 -38.02808366
v -25.10137294 -79.70000000 -38.05765592
v -25.04107723 -79.70000000 -38.07968450
v -24.97845611 -79.70000000 -38.09380628
v -24.56255759 -79.70000000 37.94008637
v -24.61248957 -79.70000000 37.98699905
v -24.66836592 -79.70000000 38.02664544
v -24.72913751 -79.70000000 38.05828113
v -24.79366329 -79.70000000 38.08131212
v -24.86073172 -79.70000000 38.09530600
v -23.42252692 -79.70000000 36.21810027
v -23.43365214 -79.70000000 36.27812654
v -23.45200979 -79.70000000 36.33634957
v -23.47732620 -79.70000000 36.39190138
v -22.98406310 -79.70000000 25.40427757
v -23.04820952 -79.70000000 25.41703709
v -23.11014172 -79.70000000 25.43806023
v -23.16880000 -79.70000000 25.46698730
v -23.22318071 -79.70000000 25.50332333
v -23.27235339 -79.70000000 25.54644661
v -23.31547667 -79.70000000 25.59561929
v -23.35181270 -79.70000000 25.65000000
v -23.38073977 -79.70000000 25.70865828
v -23.40176291 -79.70000000 25.77059048
v -23.41452243 -79.70000000 25.83473690
v -20.42427757 -79.70000000 25.83473690
v -20.43703709 -79.70000000 25.77059048
v -20.45806023 -79.70000000 25.70865828
v -20.48698730 -79.70000000 25.65000000
v -20.52332333 -79.70000000 25.59561929
v -20.56644661 -79.70000000 25.54644661
v -20.61561929 -79.70000000 25.50332333
v -20.67000000 -79.70000000 25.46698730
v -20.72865828 -79.70000000 25.43806023
v -20.79059048 -79.70000000 25.41703709
v -20.85473690 -79.70000000 25.40427757
v -20.36147380 -79.70000000 36.39190138
v -20.38679021 -79.70000000 36.33634957
v -20.40514786 -79.70000000 36.27812654
v -20.41627308 -79.70000000 36.21810027
v -18.92425824 -79.70000000 38.09978849
v -18.99039485 -79.70000000 38.09344807
v -19.05510692 -79.70000000 38.07839483
v -19.11725184 -79.70000000 38.05489457
v -19.17573230 -79.70000000 38.02336224
v -19.22951571 -79.70000000 37.98435459
v -19.27765243 -79.70000000 37.93856038
v -18.44292083 -79.70000000 37.66406129
v -18.45521540 -79.70000000 37.72706664
v -18.47548104 -79.70000000 37.78797750
v -18.50338372 -79.70000000 37.84578988
v -18.53846351 -79.70000000 37.89955082
v -18.58014217 -79.70000000 37.94837417
v -18.62773270 -79.70000000 37.99145515
v -18.68045066 -79.70000000 38.02808366
v -18.73742706 -79.70000000 38.05765592
v -18.79772277 -79.70000000 38.07968450
v -18.86034389 -79.70000000 38.09380628
v -20.41627308 79.70000000 36.21810027
v -20.40514786 79.70000000 36.27812654
v -20.38679021 79.70000000 36.33634957
v -20.36147380 79.70000000 36.39190138
v -20.85473690 79.70000000 25.40427757
v -20.79059048 79.70000000 25.41703709
v -20.72865828 79.70000000 25.43806023
v -20.67000000 79.70000000 25.46698730
v -20.61561929 79.70000000 25.50332333
v -20.56644661 79.70000000 25.54644661
v -20.52332333 79.70000000 25.59561929
v -20.48698730 79.70000000 25.65000000
v -20.45806023 79.70000000 25.70865828
v -20.43703709 79.70000000 25.77059048
v -20.42427757 79.70000000 25.83473690
v -23.41452243 79.70000000 25.83473690
v -23.40176291 79.70000000 25.77059048
v -23.38073977 79.70000000 25.70865828
v -23.35181270 79.70000000 25.65000000
v -23.31547667 79.70000000 25.59561929
v -23.27235339 79.70000000 25.54644661
v -23.22318071 79.70000000 25.50332333
v -23.16880000 79.70000000 25.46698730
v -23.11014172 79.70000000 25.43806023
v -23.04820952 79.70000000 25.41703709
v -22.98406310 79.70000000 25.40427757
v -23.47732620 79.70000000 36.39190138
v -23.45200979 79.70000000 36.33634957
v -23.43365214 79.70000000 36.27812654
v -23.42252692 79.70000000 36.21810027
v -24.86073172 79.70000000 38.09530600
v -24.79366329 79.70000000 38.08131212
v -24.72913751 79.70000000 38.05828113
v -24.66836592 79.70000000 38.02664544
v -24.61248957 79.70000000 37.98699905
v -24.56255759 79.70000000 37.94008637
v -24.91454176 79.70000000 -38.09978849
v -24.97845611 79.70000000 -38.09380628
v -25.04107723 79.70000000 -38.07968450
v -25.10137294 79.70000000 -38.05765592
v -25.15834934 79.70000000 -38.02808366
v -25.21106730 79.70000000 -37.99145515
v -25.25865783 79.70000000 -37.94837417
v -25.30033649 79.70000000 -37.89955082
v -25.33541628 79.70000000 -37.84578988
v -25.36331896 79.70000000 -37.78797750
v -25.38358460 79.70000000 -37.72706664
v -25.39587917 79.70000000 -37.66406129
v -24.56114757 79.70000000 -37.93856038
v -24.60928429 79.70000000 -37.98435459
v -24.66306770 79.70000000 -38.02336224
v -24.72154816 79.70000000 -38.05489457
v -24.78369308 79.70000000 -38.07839483
v -24.84840515 79.70000000 -38.09344807
v -23.42252692 79.70000000 -36.21810027
v -23.43365214 79.70000000 -36.27812654
v -23.45200979 79.70000000 -36.33634957
v -23.47732620 79.70000000 -36.39190138
v -22.98406310 79.70000000 -25.40427757
v -23.04820952 79.70000000 -25.41703709
v -23.11014172 79.70000000 -25.43806023
v -23.16880000 79.70000000 -25.46698730
v -23.22318071 79.70000000 -25.50332333
v -23.27235339 79.70000000 -25.54644661
v -23.31547667 79.70000000 -25.59561929
v -23.35181270 79.70000000 -25.65000000
v -23.38073977 79.70000000 -25.70865828
v -23.40176291 79.70000000 -25.77059048
v -23.41452243 79.70000000 -25.83473690
v -20.42427757 79.70000000 -25.83473690
v -20.43703709 79.70000000 -25.77059048
v -20.45806023 79.70000000 -25.70865828
v -20.48698730 79.70000000 -25.65000000
v -20.52332333 79.70000000 -25.59561929
v -20.56644661 79.70000000 -25.54644661
v -20.61561929 79.70000000 -25.50332333
v -20.67000000 79.70000000 -25.46698730
v -20.72865828 79.70000000 -25.43806023
v -20.79059048 79.70000000 -25.41703709
v -20.85473690 79.70000000 -25.40427757
v -20.36147380 79.70000000 -36.39190138
v -20.38679021 79.70000000 -36.33634957
v -20.40514786 79.70000000 -36.27812654
v -20.41627308 79.70000000 -36.21810027
v -18.92425824 79.70000000 -38.09978849
v -18.99039485 79.70000000 -38.09344807
v -19.05510692 79.70000000 -38.07839483
v -19.11725184 79.70000000 -38.05489457
v -19.17573230 79.70000000 -38.02336224
v -19.22951571 79.70000000 -37.98435459
v -19.27765243 79.70000000 -37.93856038
v -18.44292083 79.70000000 -37.66406129
v -18.45521540 79.70000000 -37.72706664
v -18.47548104 79.70000000 -37.78797750
v -18.50338372 79.70000000 -37.84578988
v -18.53846351 79.70000000 -37.89955082
v -18.58014217 79.70000000 -37.94837417
v -18.62773270 79.70000000 -37.99145515
v -18.68045066 79.70000000 -38.02808366
v -18.73742706 79.70000000 -38.05765592
v -18.79772277 79.70000000 -38.07968450
v -18.86034389 79.70000000 -38.09380628
v -17.56932619 79.70000000 -25.40855514
v -17.69761905 79.70000000 -25.43407417
v -17.82148343 79.70000000 -25.47612047
v -17.93880000 79.70000000 -25.53397460
v -18.04756143 79.70000000 -25.60664666
v -18.14590678 79.70000000 -25.69289322
v -18.23215334 79.70000000 -25.79123857
v -18.30482540 79.70000000 -25.90000000
v -18.36267953 79.70000000 -26.01731657
v -18.40472583 79.70000000 -26.14118095
v -18.43024486 79.70000000 -26.26947381
v -23.41024486 79.70000000 -22.54932619
v -23.38472583 79.70000000 -22.67761905
v -23.34267953 79.70000000 -22.80148343
v -23.28482540 79.70000000 -22.91880000
v -23.21215334 79.70000000 -23.02756143
v -23.12590678 79.70000000 -23.12590678
v -23.02756143 79.70000000 -23.21215334
v -22.91880000 79.70000000 -23.28482540
v -22.80148343 79.70000000 -23.34267953
v -22.67761905 79.70000000 -23.38472583
v -22.54932619 79.70000000 -23.41024486
v -22.54932619 79.70000000 23.41024486
v -22.67761905 79.70000000 23.38472583
v -22.80148343 79.70000000 23.34267953
v -22.91880000 79.70000000 23.28482540
v -23.02756143 79.70000000 23.21215334
v -23.12590678 79.70000000 23.12590678
v -23.21215334 79.70000000 23.02756143
v -23.28482540 79.70000000 22.91880000
v -23.34267953 79.70000000 22.80148343
v -23.38472583 79.70000000 22.67761905
v -23.41024486 79.70000000 22.54932619
v -18.43024486 79.70000000 26.26947381
v -18.40472583 79.70000000 26.14118095
v -18.36267953 79.70000000 26.01731657
v -18.30482540 79.70000000 25.90000000
v -18.23215334 79.70000000 25.79123857
v -18.14590678 79.70000000 25.69289322
v -18.04756143 79.70000000 25.60664666
v -17.93880000 79.70000000 25.53397460
v -17.82148343 79.70000000 25.47612047
v -17.69761905 79.70000000 25.43407417
v -17.56932619 79.70000000 25.40855514
v -18.92425824 79.70000000 38.09978849
v -18.86034389 79.70000000 38.09380628
v -18.79772277 79.70000000 38.07968450
v -18.73742706 79.70000000 38.05765592
v -18.68045066 79.70000000 38.02808366
v -18.62773270 79.70000000 37.99145515
v -18.58014217 79.70000000 37.94837417
v -18.53846351 79.70000000 37.89955082
v -18.50338372 79.70000000 37.84578988
v -18.47548104 79.70000000 37.78797750
v -18.45521540 79.70000000 37.72706664
v -18.44292083 79.70000000 37.66406129
v -19.27765243 79.70000000 37.93856038
v -19.22951571 79.70000000 37.98435459
v -19.17573230 79.70000000 38.02336224
v -19.11725184 79.70000000 38.05489457
v -19.05510692 79.70000000 38.07839483
v -18.99039485 79.70000000 38.09344807
f 3 21 13
f 4 20 21
f 4 21 3
f 5 20 4
f 6 20 5
f 6 19 20
f 6 18 19
f 7 18 6
f 8 18 7
f 8 17 18
f 9 17 8
f 9 16 17
f 10 16 9
f 10 15 16
f 11 15 10
f 11 14 15
f 12 1 14
f 12 14 11
f 2 1 12
f 24 69 47
f 25 68 69
f 25 69 24
f 26 67 68
f 26 68 25
f 27 66 67
f 27 67 26
f 28 65 66
f 28 66 27
f 29 64 65
f 29 65 28
f 30 63 64
f 30 64 29
f 31 62 63
f 31 63 30
f 32 61 62
f 32 62 31
f 33 60 61
f 33 61 32
f 34 59 60
f 34 60 33
f 35 58 59
f 35 59 34
f 36 58 35
f 36 57 58
f 37 57 36
f 38 57 37
f 38 55 56
f 38 56 57
f 39 55 38
f 39 54 55
f 40 54 39
f 40 53 54
f 41 53 40
f 41 52 53
f 42 52 41
f 42 51 52
f 43 51 42
f 43 50 51
f 44 50 43
f 45 48 49
f 45 49 50
f 45 50 44
f 46 22 48
f 46 48 45
f 23 22 46
f 72 80 79
f 72 79 71
f 72 81 80
f 73 81 72
f 73 82 81
f 74 82 73
f 75 82 74
f 75 83 82
f 76 83 75
f 76 84 83
f 77 84 76
f 77 85 84
f 78 85 77
f 78 70 85
f 87 107 398
f 88 107 87
f 89 108 107
f 89 107 88
f 90 109 108
f 90 108 89
f 91 110 109
f 91 109 90
f 92 111 110
f 92 110 91
f 93 112 111
f 93 111 92
f 94 113 112
f 94 114 113
f 94 112 93
f 95 114 94
f 96 115 114
f 96 114 95
f 97 115 96
f 97 116 115
f 98 116 97
f 98 117 116
f 99 117 98
f 99 118 117
f 99 119 118
f 100 119 99
f 100 120 119
f 101 120 100
f 102 120 101
f 102 121 120
f 103 121 102
f 103 122 121
f 103 123 122
f 104 123 103
f 105 123 104
f 106 123 105
f 106 86 123
f 137 148 149
f 136 148 137
f 135 147 148
f 135 148 136
f 134 146 147
f 134 147 135
f 133 145 146
f 133 146 134
f 132 144 145
f 132 145 133
f 131 143 144
f 131 144 132
f 131 142 143
f 130 142 131
f 129 142 130
f 129 141 142
f 128 141 129
f 128 140 141
f 127 140 128
f 127 139 140
f 126 138 139
f 126 139 127
f 125 138 126
f 125 124 138
f 457 124 125
f 168 184 358
f 167 184 168
f 166 183 184
f 166 184 167
f 165 182 183
f 165 183 166
f 164 181 182
f 164 182 165
f 163 180 181
f 163 181 164
f 162 179 180
f 162 180 163
f 162 178 179
f 161 177 178
f 161 178 162
f 160 177 161
f 159 177 160
f 159 176 177
f 158 176 159
f 158 175 176
f 158 174 175
f 157 174 158
f 156 174 157
f 156 172 173
f 156 173 174
f 155 172 156
f 155 171 172
f 154 171 155
f 154 170 171
f 153 170 154
f 152 169 170
f 152 170 153
f 151 169 152
f 151 150 169
f 214 212 252
f 214 252 213
f 215 212 214
f 216 212 215
f 217 212 216
f 218 210 211
f 218 211 212
f 218 212 217
f 219 207 208
f 219 208 209
f 219 209 210
f 219 210 218
f 220 207 219
f 206 207 220
f 205 220 221
f 205 206 220
f 204 205 221
f 203 204 221
f 202 203 221
f 202 221 222
f 201 202 222
f 200 201 222
f 200 222 223
f 200 223 224
f 200 224 225
f 200 225 226
f 185 513 186
f 227 200 226
f 187 185 186
f 187 235 236
f 187 236 237
f 187 237 238
f 187 238 185
f 199 227 228
f 199 228 229
f 199 229 230
f 199 230 231
f 199 200 227
f 198 199 231
f 188 235 187
f 197 231 232
f 197 198 231
f 189 235 188
f 189 234 235
f 190 234 189
f 196 197 232
f 195 196 232
f 191 234 190
f 194 232 233
f 194 195 232
f 192 234 191
f 192 233 234
f 193 194 233
f 193 233 192
f 242 239 240
f 242 241 239
f 246 247 248
f 249 247 246
f 244 245 243
f 244 246 245
f 252 244 250
f 252 250 251
f 212 249 246
f 212 246 244
f 212 244 252
f 253 256 255
f 253 254 256
f 282 247 249
f 282 478 247
f 294 282 249
f 293 294 249
f 292 293 249
f 291 249 271
f 291 271 272
f 291 292 249
f 290 272 273
f 290 273 274
f 290 274 275
f 290 291 272
f 289 275 276
f 289 290 275
f 277 288 289
f 277 289 276
f 278 288 277
f 279 288 278
f 280 288 279
f 280 287 288
f 281 287 280
f 270 287 281
f 270 283 284
f 270 284 285
f 270 285 286
f 270 286 287
f 296 401 308
f 295 283 270
f 269 401 296
f 269 296 297
f 269 297 298
f 269 298 299
f 269 299 300
f 257 304 305
f 257 305 306
f 257 306 307
f 257 307 295
f 257 295 270
f 258 304 257
f 268 269 300
f 259 304 258
f 259 303 304
f 267 268 300
f 267 300 301
f 266 267 301
f 260 303 259
f 261 303 260
f 265 266 301
f 262 302 303
f 262 303 261
f 264 301 302
f 264 265 301
f 263 302 262
f 263 264 302
f 147 146 270
f 145 270 146
f 148 147 270
f 144 270 145
f 149 148 270
f 143 270 144
f 340 149 270
f 341 340 270
f 257 270 143
f 257 142 141
f 257 143 142
f 140 257 141
f 139 257 140
f 138 257 139
f 124 257 138
f 357 257 124
f 356 257 357
f 11 346 345
f 11 10 346
f 9 347 346
f 9 346 10
f 11 345 344
f 8 348 347
f 8 347 9
f 12 344 343
f 12 11 344
f 2 343 342
f 2 12 343
f 8 349 348
f 309 2 342
f 309 342 341
f 8 350 349
f 310 341 270
f 310 309 341
f 7 350 8
f 6 350 7
f 6 351 350
f 6 352 351
f 5 352 6
f 5 353 352
f 4 354 353
f 4 353 5
f 3 355 354
f 3 354 4
f 330 356 355
f 330 355 3
f 329 356 330
f 329 257 356
f 41 314 313
f 41 315 314
f 42 313 312
f 42 41 313
f 40 316 315
f 40 315 41
f 43 312 311
f 43 42 312
f 39 317 316
f 39 316 40
f 44 43 311
f 38 317 39
f 45 44 311
f 45 311 310
f 37 318 317
f 37 317 38
f 36 319 318
f 36 320 319
f 36 318 37
f 35 320 36
f 34 321 320
f 34 320 35
f 33 321 34
f 33 322 321
f 33 323 322
f 32 323 33
f 31 324 323
f 31 323 32
f 30 324 31
f 30 325 324
f 29 325 30
f 29 326 325
f 29 327 326
f 28 327 29
f 28 328 327
f 27 328 28
f 26 328 27
f 26 329 328
f 180 332 331
f 181 180 331
f 181 331 23
f 179 332 180
f 182 181 23
f 182 23 46
f 178 333 332
f 178 332 179
f 183 182 46
f 183 46 45
f 177 333 178
f 177 334 333
f 177 335 334
f 176 335 177
f 176 336 335
f 175 336 176
f 175 337 336
f 174 337 175
f 173 337 174
f 173 338 337
f 173 339 338
f 200 359 358
f 200 360 359
f 200 361 360
f 200 183 45
f 200 184 183
f 200 358 184
f 172 339 173
f 172 24 339
f 171 24 172
f 171 25 24
f 362 361 200
f 170 25 171
f 170 26 25
f 363 362 200
f 199 26 170
f 199 364 363
f 199 365 364
f 199 366 365
f 199 367 366
f 199 368 367
f 199 369 368
f 199 150 369
f 199 169 150
f 199 170 169
f 199 363 200
f 200 310 270
f 200 45 310
f 257 329 199
f 329 26 199
f 80 81 371
f 82 371 81
f 79 80 371
f 390 79 371
f 372 82 83
f 372 83 84
f 372 371 82
f 372 84 85
f 372 85 70
f 372 70 374
f 372 374 375
f 109 388 389
f 109 110 388
f 111 386 387
f 111 387 388
f 111 388 110
f 108 371 370
f 108 390 371
f 108 389 390
f 108 109 389
f 112 386 111
f 107 108 370
f 113 386 112
f 113 384 385
f 113 385 386
f 114 384 113
f 115 384 114
f 115 382 383
f 115 383 384
f 398 107 370
f 116 382 115
f 117 381 382
f 117 382 116
f 397 398 370
f 118 381 117
f 118 379 380
f 118 380 381
f 119 379 118
f 120 379 119
f 120 377 378
f 120 378 379
f 121 376 377
f 121 377 120
f 396 397 370
f 122 375 376
f 122 376 121
f 123 372 375
f 123 375 122
f 395 396 370
f 373 372 123
f 373 395 370
f 373 123 86
f 373 86 391
f 373 391 392
f 373 392 393
f 373 393 394
f 373 394 395
f 399 400 401
f 402 401 269
f 402 399 401
f 187 402 269
f 405 402 187
f 404 403 402
f 404 402 405
f 186 405 187
f 407 405 186
f 406 407 186
f 133 134 283
f 135 283 134
f 132 133 283
f 136 283 135
f 137 283 136
f 131 132 283
f 439 283 137
f 440 283 439
f 295 131 283
f 295 129 130
f 295 130 131
f 128 129 295
f 127 128 295
f 126 127 295
f 125 126 295
f 457 125 295
f 456 457 295
f 455 456 295
f 15 444 445
f 15 445 16
f 17 445 446
f 17 16 445
f 15 443 444
f 17 446 447
f 14 442 443
f 14 443 15
f 1 441 442
f 1 442 14
f 18 17 447
f 18 447 448
f 429 440 441
f 429 441 1
f 18 448 449
f 428 440 429
f 18 449 450
f 19 18 450
f 20 19 450
f 20 450 451
f 20 451 452
f 21 452 453
f 21 20 452
f 13 21 453
f 13 453 454
f 408 454 455
f 408 13 454
f 409 408 455
f 53 424 423
f 52 424 53
f 52 425 424
f 54 423 422
f 54 53 423
f 51 425 52
f 51 426 425
f 51 427 426
f 55 54 422
f 50 428 427
f 50 427 51
f 56 422 421
f 56 55 422
f 49 428 50
f 57 421 420
f 57 56 421
f 58 57 420
f 58 419 418
f 58 420 419
f 59 58 418
f 60 418 417
f 60 59 418
f 61 417 416
f 61 60 417
f 62 416 415
f 62 61 416
f 63 415 414
f 63 62 415
f 64 414 413
f 64 63 414
f 65 64 413
f 65 413 412
f 66 65 412
f 66 412 411
f 67 66 411
f 67 411 410
f 68 67 410
f 68 410 409
f 163 438 437
f 164 438 163
f 164 22 438
f 162 163 437
f 165 22 164
f 165 48 22
f 162 437 436
f 166 48 165
f 166 49 48
f 161 162 436
f 160 161 436
f 160 436 435
f 159 160 435
f 159 435 434
f 159 434 433
f 158 159 433
f 158 433 432
f 157 158 432
f 157 432 431
f 156 157 431
f 156 431 430
f 155 430 47
f 155 156 430
f 226 166 167
f 226 167 168
f 226 168 458
f 226 458 459
f 226 459 460
f 226 460 461
f 154 155 47
f 154 47 69
f 462 226 461
f 153 154 69
f 153 69 68
f 463 226 462
f 227 226 463
f 227 151 152
f 227 152 153
f 227 463 464
f 227 464 465
f 227 465 466
f 227 466 467
f 227 467 468
f 227 468 469
f 227 469 151
f 226 283 440
f 226 440 428
f 226 428 166
f 166 428 49
f 295 227 153
f 295 153 68
f 295 68 455
f 455 68 409
f 478 476 477
f 475 476 478
f 282 475 478
f 472 473 474
f 472 474 475
f 213 470 471
f 213 471 472
f 214 475 282
f 214 472 475
f 214 213 472
f 73 72 480
f 74 73 480
f 71 480 72
f 74 480 479
f 75 74 479
f 501 480 71
f 76 75 479
f 500 480 501
f 77 76 479
f 78 77 479
f 483 78 479
f 90 498 497
f 90 497 91
f 92 497 496
f 92 91 497
f 89 499 498
f 89 500 499
f 89 498 90
f 93 496 495
f 93 92 496
f 88 500 89
f 88 480 500
f 94 494 493
f 94 495 494
f 94 93 495
f 95 94 493
f 96 95 493
f 96 492 491
f 96 493 492
f 97 96 491
f 98 491 490
f 98 97 491
f 99 489 488
f 99 490 489
f 99 98 490
f 100 488 487
f 100 99 488
f 101 100 487
f 102 486 485
f 102 487 486
f 102 101 487
f 103 485 484
f 103 102 485
f 104 103 484
f 105 484 483
f 105 104 484
f 105 483 479
f 482 507 506
f 482 508 507
f 482 509 508
f 482 87 509
f 482 88 87
f 482 480 88
f 481 105 479
f 481 502 106
f 481 482 506
f 481 503 502
f 481 504 503
f 481 505 504
f 481 506 505
f 481 106 105
f 515 308 514
f 516 296 308
f 516 308 515
f 185 296 516
f 510 516 517
f 510 185 516
f 518 510 517
f 513 185 510
f 511 513 510
f 512 513 511
f 521 520 519
f 521 522 520
f 524 371 523
f 524 370 371
f 526 525 527
f 526 527 528
f 532 529 530
f 532 531 529
f 534 533 535
f 534 535 536
f 539 538 540
f 537 538 539
f 544 541 542
f 544 543 541
f 547 546 545
f 548 546 547
f 551 549 550
f 551 550 552
f 554 555 556
f 553 555 554
f 557 558 560
f 559 557 560
f 469 150 151
f 469 369 150
f 468 369 469
f 468 368 369
f 467 368 468
f 467 367 368
f 466 367 467
f 466 366 367
f 465 365 366
f 465 366 466
f 465 364 365
f 464 364 465
f 463 364 464
f 463 363 364
f 462 363 463
f 462 362 363
f 462 361 362
f 461 361 462
f 460 361 461
f 460 360 361
f 460 359 360
f 459 359 460
f 458 358 359
f 458 359 459
f 168 358 458
f 457 357 124
f 456 357 457
f 455 356 357
f 455 357 456
f 454 355 356
f 454 356 455
f 453 354 355
f 453 355 454
f 452 353 354
f 452 354 453
f 451 352 353
f 451 353 452
f 450 351 352
f 450 352 451
f 450 350 351
f 449 350 450
f 448 349 350
f 448 350 449
f 447 349 448
f 447 348 349
f 446 348 447
f 446 347 348
f 445 347 446
f 445 346 347
f 444 346 445
f 444 345 346
f 443 345 444
f 443 343 344
f 443 344 345
f 442 343 443
f 441 343 442
f 441 341 342
f 441 342 343
f 440 341 441
f 439 340 341
f 439 341 440
f 137 149 340
f 137 340 439
f 106 391 86
f 502 391 106
f 502 392 391
f 503 392 502
f 504 393 392
f 504 392 503
f 505 393 504
f 505 394 393
f 506 394 505
f 506 395 394
f 506 396 395
f 507 396 506
f 508 396 507
f 508 397 396
f 509 397 508
f 87 397 509
f 87 398 397
f 78 374 70
f 483 374 78
f 484 375 374
f 484 374 483
f 485 376 375
f 485 375 484
f 486 377 376
f 486 376 485
f 487 378 377
f 487 379 378
f 487 377 486
f 488 379 487
f 489 380 379
f 489 379 488
f 490 381 380
f 490 382 381
f 490 380 489
f 491 382 490
f 492 382 491
f 492 383 382
f 492 384 383
f 493 384 492
f 494 384 493
f 494 385 384
f 495 385 494
f 495 386 385
f 496 386 495
f 496 387 386
f 497 387 496
f 497 388 387
f 498 388 497
f 498 389 388
f 499 389 498
f 499 390 389
f 500 390 499
f 501 390 500
f 501 79 390
f 71 79 501
f 331 22 23
f 331 438 22
f 332 437 438
f 332 438 331
f 332 436 437
f 333 436 332
f 333 435 436
f 334 435 333
f 335 435 334
f 335 434 435
f 336 434 335
f 336 433 434
f 336 432 433
f 337 432 336
f 337 431 432
f 338 430 431
f 338 431 337
f 339 430 338
f 24 47 430
f 24 430 339
f 309 1 2
f 309 429 1
f 310 428 429
f 310 429 309
f 311 427 428
f 311 428 310
f 312 426 427
f 312 427 311
f 313 425 426
f 313 426 312
f 314 424 425
f 314 425 313
f 315 423 424
f 315 424 314
f 316 422 423
f 316 423 315
f 317 421 422
f 317 422 316
f 318 420 421
f 318 421 317
f 319 419 420
f 319 420 318
f 320 419 319
f 320 418 419
f 321 418 320
f 321 417 418
f 322 417 321
f 322 416 417
f 323 416 322
f 323 415 416
f 324 415 323
f 324 413 414
f 324 414 415
f 325 413 324
f 326 413 325
f 326 411 412
f 326 412 413
f 327 411 326
f 327 410 411
f 328 410 327
f 329 408 409
f 329 409 410
f 329 410 328
f 330 408 329
f 3 13 408
f 3 408 330
f 246 476 475
f 246 248 476
f 516 399 402
f 516 515 399
f 654 669 670
f 654 670 653
f 655 668 669
f 655 669 654
f 656 667 668
f 656 668 655
f 657 666 667
f 657 667 656
f 658 665 666
f 658 666 657
f 659 664 665
f 659 665 658
f 556 372 660
f 556 660 661
f 556 661 662
f 556 662 663
f 556 663 664
f 556 664 659
f 555 372 556
f 651 649 650
f 652 555 649
f 652 649 651
f 541 372 555
f 541 555 652
f 606 622 605
f 607 621 622
f 607 622 606
f 608 620 621
f 608 621 607
f 625 626 557
f 609 619 620
f 609 620 608
f 624 625 557
f 610 619 609
f 610 618 619
f 535 623 624
f 535 624 557
f 611 617 618
f 611 618 610
f 612 617 611
f 612 559 617
f 613 559 612
f 614 559 613
f 615 559 614
f 616 559 615
f 540 559 616
f 540 557 559
f 540 535 557
f 543 372 541
f 588 643 644
f 589 642 643
f 589 643 588
f 587 644 645
f 587 645 646
f 587 588 644
f 590 642 589
f 590 641 642
f 586 646 647
f 586 587 646
f 591 641 590
f 591 640 641
f 585 647 648
f 585 586 647
f 592 640 591
f 592 639 640
f 584 648 239
f 584 585 648
f 593 639 592
f 593 638 639
f 583 584 239
f 474 583 239
f 474 241 627
f 474 627 628
f 474 628 629
f 474 239 241
f 479 372 543
f 479 638 593
f 479 543 638
f 538 535 540
f 538 536 535
f 594 536 538
f 595 536 594
f 595 637 536
f 596 637 595
f 596 636 637
f 597 635 636
f 597 636 596
f 598 633 634
f 598 634 635
f 598 635 597
f 599 633 598
f 599 632 633
f 600 631 632
f 600 632 599
f 601 630 631
f 601 631 600
f 602 630 601
f 602 474 629
f 602 629 630
f 603 474 602
f 604 474 603
f 475 474 604
f 475 245 246
f 475 604 245
f 480 372 479
f 686 576 577
f 687 575 576
f 687 576 686
f 685 686 577
f 685 577 578
f 684 685 578
f 688 574 575
f 688 575 687
f 689 573 574
f 689 574 688
f 683 684 578
f 683 578 579
f 690 572 573
f 690 573 689
f 682 579 580
f 682 683 579
f 691 480 572
f 691 572 690
f 681 682 580
f 681 580 581
f 254 581 582
f 254 582 517
f 254 681 581
f 519 480 691
f 256 254 517
f 702 256 517
f 701 702 517
f 700 701 517
f 566 696 697
f 567 696 566
f 567 694 695
f 567 695 696
f 565 697 698
f 565 566 697
f 564 698 699
f 564 565 698
f 568 693 694
f 568 694 567
f 569 693 568
f 569 692 693
f 563 699 700
f 563 700 517
f 563 564 699
f 570 692 569
f 570 531 692
f 562 563 517
f 571 531 570
f 561 562 517
f 528 531 571
f 516 403 561
f 516 561 517
f 402 403 516
f 371 372 480
f 371 480 519
f 520 371 519
f 678 520 677
f 680 520 678
f 680 678 679
f 549 520 680
f 549 371 520
f 673 674 675
f 673 675 676
f 551 371 549
f 551 523 371
f 671 672 673
f 671 523 551
f 671 676 523
f 671 673 676
f 529 531 528
f 703 704 705
f 546 703 705
f 546 705 706
f 546 706 529
f 527 529 528
f 527 546 529
f 527 545 546
f 714 545 527
f 724 707 708
f 715 545 714
f 723 724 708
f 723 708 709
f 716 545 715
f 722 709 710
f 722 723 709
f 717 545 716
f 721 722 710
f 721 710 711
f 718 713 545
f 718 545 717
f 720 711 712
f 720 721 711
f 719 713 718
f 719 712 713
f 719 720 712
f 471 250 244
f 471 244 472
f 407 511 510
f 407 510 405
f 757 524 755
f 757 755 756
f 552 524 757
f 552 757 758
f 552 758 759
f 552 759 760
f 552 370 524
f 550 370 552
f 753 751 752
f 754 751 753
f 522 370 550
f 522 751 754
f 522 550 751
f 872 888 871
f 873 888 872
f 873 887 888
f 874 887 873
f 874 886 887
f 875 886 874
f 875 885 886
f 726 727 728
f 726 728 548
f 876 885 875
f 876 884 885
f 530 725 726
f 530 726 548
f 877 884 876
f 877 883 884
f 878 883 877
f 878 547 883
f 879 547 878
f 880 547 879
f 881 547 880
f 882 547 881
f 525 548 547
f 525 530 548
f 525 547 882
f 521 370 522
f 854 745 746
f 855 744 745
f 855 745 854
f 853 746 747
f 853 747 748
f 853 854 746
f 852 853 748
f 852 748 749
f 856 744 855
f 856 743 744
f 851 852 749
f 851 749 750
f 857 742 743
f 857 743 856
f 858 741 742
f 858 742 857
f 850 851 750
f 850 750 253
f 859 741 858
f 859 740 741
f 849 850 253
f 518 255 729
f 518 729 730
f 518 730 731
f 518 253 255
f 518 849 253
f 482 370 521
f 482 521 740
f 482 740 859
f 526 532 530
f 526 530 525
f 860 532 526
f 861 739 532
f 861 532 860
f 862 738 739
f 862 739 861
f 863 737 738
f 863 738 862
f 864 735 736
f 864 736 737
f 864 737 863
f 865 734 735
f 865 735 864
f 866 733 734
f 866 734 865
f 867 732 733
f 867 733 866
f 868 731 732
f 868 518 731
f 868 732 867
f 869 518 868
f 870 518 869
f 510 404 405
f 510 870 404
f 510 518 870
f 788 842 843
f 789 841 842
f 789 842 788
f 787 843 844
f 787 788 843
f 790 841 789
f 790 840 841
f 786 787 844
f 791 840 790
f 791 839 840
f 785 786 844
f 785 844 845
f 792 839 791
f 792 838 839
f 784 785 845
f 784 845 846
f 793 838 792
f 793 481 838
f 783 784 846
f 783 846 847
f 240 783 847
f 240 847 848
f 240 848 473
f 544 481 793
f 242 240 473
f 804 242 473
f 803 804 473
f 802 803 473
f 832 798 799
f 833 798 832
f 833 796 797
f 833 797 798
f 831 832 799
f 831 799 800
f 834 796 833
f 834 795 796
f 830 831 800
f 830 800 801
f 835 795 834
f 835 794 795
f 829 802 473
f 829 830 801
f 829 801 802
f 836 794 835
f 836 534 794
f 828 829 473
f 837 534 836
f 827 828 473
f 537 534 837
f 472 243 827
f 472 827 473
f 244 243 472
f 373 481 544
f 373 482 481
f 373 370 482
f 542 373 544
f 782 542 779
f 782 779 780
f 782 780 781
f 553 373 542
f 553 542 782
f 778 761 762
f 778 762 763
f 777 778 763
f 777 763 764
f 776 777 764
f 776 764 765
f 775 776 765
f 775 765 766
f 554 373 553
f 554 768 769
f 554 769 770
f 554 770 771
f 554 771 772
f 554 772 373
f 774 775 766
f 774 766 767
f 773 768 554
f 773 774 767
f 773 767 768
f 533 534 537
f 806 807 808
f 806 808 533
f 805 806 533
f 558 805 533
f 539 560 558
f 539 533 537
f 539 558 533
f 816 560 539
f 826 809 810
f 817 560 816
f 825 810 811
f 825 826 810
f 818 560 817
f 824 811 812
f 824 825 811
f 819 560 818
f 823 812 813
f 823 824 812
f 820 815 560
f 820 560 819
f 822 813 814
f 822 823 813
f 821 814 815
f 821 815 820
f 821 822 814
f 257 199 198
f 258 257 198
f 259 198 197
f 259 258 198
f 260 197 196
f 260 259 197
f 261 196 195
f 261 260 196
f 262 195 194
f 262 261 195
f 263 194 193
f 263 262 194
f 264 193 192
f 264 263 193
f 265 192 191
f 265 264 192
f 266 191 190
f 266 265 191
f 267 190 189
f 267 266 190
f 268 189 188
f 268 267 189
f 269 188 187
f 269 268 188
f 249 212 211
f 271 211 210
f 271 249 211
f 272 210 209
f 272 271 210
f 273 209 208
f 273 272 209
f 274 208 207
f 274 273 208
f 275 207 206
f 275 274 207
f 276 206 205
f 276 275 206
f 277 276 205
f 278 204 203
f 278 205 204
f 278 277 205
f 279 278 203
f 280 203 202
f 280 279 203
f 281 202 201
f 281 280 202
f 270 201 200
f 270 281 201
f 537 594 538
f 837 595 594
f 837 594 537
f 836 596 595
f 836 595 837
f 835 597 596
f 835 596 836
f 834 598 597
f 834 597 835
f 833 599 598
f 833 598 834
f 832 600 599
f 832 599 833
f 831 601 600
f 831 600 832
f 830 602 601
f 830 601 831
f 829 603 602
f 829 602 830
f 828 603 829
f 827 604 603
f 827 245 604
f 827 603 828
f 243 245 827
f 528 860 526
f 571 861 860
f 571 860 528
f 570 862 861
f 570 861 571
f 569 863 862
f 569 862 570
f 568 864 863
f 568 863 569
f 567 865 864
f 567 864 568
f 566 866 865
f 566 865 567
f 565 867 866
f 565 866 566
f 564 868 867
f 564 867 565
f 563 869 868
f 563 868 564
f 562 870 869
f 562 869 563
f 561 404 870
f 561 870 562
f 403 404 561
f 473 583 474
f 848 584 583
f 848 583 473
f 847 585 584
f 847 584 848
f 846 586 585
f 846 585 847
f 845 587 586
f 845 586 846
f 844 588 587
f 844 587 845
f 843 589 588
f 843 588 844
f 842 590 589
f 842 589 843
f 841 591 590
f 841 590 842
f 840 592 591
f 840 591 841
f 839 592 840
f 838 593 592
f 838 479 593
f 838 592 839
f 481 479 838
f 482 572 480
f 859 573 572
f 859 572 482
f 858 574 573
f 858 573 859
f 857 575 574
f 857 574 858
f 856 576 575
f 856 575 857
f 855 577 576
f 855 576 856
f 854 578 577
f 854 577 855
f 853 579 578
f 853 578 854
f 852 580 579
f 852 579 853
f 851 581 580
f 851 580 852
f 850 581 851
f 849 582 581
f 849 517 582
f 849 581 850
f 518 517 849
f 226 284 283
f 225 285 284
f 225 284 226
f 224 286 285
f 224 285 225
f 223 287 286
f 223 286 224
f 222 288 287
f 222 287 223
f 221 289 288
f 221 288 222
f 220 290 289
f 220 289 221
f 219 291 290
f 219 290 220
f 218 292 291
f 218 291 219
f 217 293 292
f 217 292 218
f 216 293 217
f 215 294 293
f 215 282 294
f 215 293 216
f 214 282 215
f 185 297 296
f 238 298 297
f 238 297 185
f 237 299 298
f 237 298 238
f 236 300 299
f 236 299 237
f 235 301 300
f 235 300 236
f 234 302 301
f 234 301 235
f 233 303 302
f 233 302 234
f 232 304 303
f 232 303 233
f 231 305 304
f 231 304 232
f 230 306 305
f 230 305 231
f 229 307 306
f 229 306 230
f 228 307 229
f 227 295 307
f 227 307 228
f 739 531 532
f 739 692 531
f 738 693 692
f 738 692 739
f 737 694 693
f 737 693 738
f 736 695 694
f 736 694 737
f 735 696 695
f 735 697 696
f 735 695 736
f 734 697 735
f 733 698 697
f 733 699 698
f 733 697 734
f 732 700 699
f 732 699 733
f 731 701 700
f 731 700 732
f 730 702 701
f 730 701 731
f 729 702 730
f 255 256 702
f 255 702 729
f 519 740 521
f 691 741 740
f 691 740 519
f 690 742 741
f 690 741 691
f 689 743 742
f 689 742 690
f 688 744 743
f 688 743 689
f 687 745 744
f 687 744 688
f 686 746 745
f 686 745 687
f 685 747 746
f 685 746 686
f 684 748 747
f 684 747 685
f 683 749 748
f 683 748 684
f 682 750 749
f 682 749 683
f 681 253 750
f 681 750 682
f 254 253 681
f 708 707 871
f 708 871 888
f 709 888 887
f 709 708 888
f 710 887 886
f 710 709 887
f 711 886 885
f 711 710 886
f 712 885 884
f 712 711 885
f 713 884 883
f 713 712 884
f 545 883 547
f 545 713 883
f 714 882 881
f 714 525 882
f 714 527 525
f 715 881 880
f 715 714 881
f 716 880 879
f 716 715 880
f 717 879 878
f 717 716 879
f 718 717 878
f 719 878 877
f 719 718 878
f 720 877 876
f 720 719 877
f 721 876 875
f 721 720 876
f 722 875 874
f 722 721 875
f 723 874 873
f 723 722 874
f 724 873 872
f 724 723 873
f 707 872 871
f 707 724 872
f 703 546 548
f 703 548 728
f 704 728 727
f 704 703 728
f 705 727 726
f 705 704 727
f 706 726 725
f 706 705 726
f 529 725 530
f 529 706 725
f 551 552 760
f 671 760 759
f 671 551 760
f 672 759 758
f 672 671 759
f 673 758 757
f 673 672 758
f 674 757 756
f 674 673 757
f 675 756 755
f 675 674 756
f 676 755 524
f 676 675 755
f 523 676 524
f 751 550 549
f 751 549 680
f 752 680 679
f 752 751 680
f 753 679 678
f 753 752 679
f 754 678 677
f 754 753 678
f 522 677 520
f 522 754 677
f 617 559 560
f 617 560 815
f 618 815 814
f 618 617 815
f 619 814 813
f 619 618 814
f 620 813 812
f 620 619 813
f 621 812 811
f 621 620 812
f 622 811 810
f 622 621 811
f 605 810 809
f 605 622 810
f 539 540 616
f 816 616 615
f 816 539 616
f 817 615 614
f 817 816 615
f 818 614 613
f 818 817 614
f 819 613 612
f 819 818 613
f 820 612 611
f 820 819 612
f 821 611 610
f 821 820 611
f 822 610 609
f 822 821 610
f 823 609 608
f 823 822 609
f 824 608 607
f 824 823 608
f 825 607 606
f 825 824 607
f 826 606 605
f 826 825 606
f 809 826 605
f 558 557 626
f 805 626 625
f 805 558 626
f 806 625 624
f 806 805 625
f 807 624 623
f 807 806 624
f 808 623 535
f 808 807 623
f 533 808 535
f 637 534 536
f 637 794 534
f 636 795 794
f 636 794 637
f 635 796 795
f 635 795 636
f 634 797 796
f 634 796 635
f 633 798 797
f 633 797 634
f 632 799 798
f 632 798 633
f 631 800 799
f 631 801 800
f 631 799 632
f 630 802 801
f 630 801 631
f 629 802 630
f 628 803 802
f 628 804 803
f 628 802 629
f 627 804 628
f 241 242 804
f 241 804 627
f 544 638 543
f 793 639 638
f 793 638 544
f 792 640 639
f 792 639 793
f 791 641 640
f 791 640 792
f 790 642 641
f 790 641 791
f 789 643 642
f 789 642 790
f 788 644 643
f 788 643 789
f 787 645 644
f 787 644 788
f 786 646 645
f 786 645 787
f 785 647 646
f 785 646 786
f 784 647 785
f 783 648 647
f 783 239 648
f 783 647 784
f 240 239 783
f 555 553 782
f 649 782 781
f 649 555 782
f 650 781 780
f 650 649 781
f 651 780 779
f 651 650 780
f 652 779 542
f 652 651 779
f 541 652 542
f 761 653 670
f 762 670 669
f 762 761 670
f 763 669 668
f 763 762 669
f 764 668 667
f 764 763 668
f 765 667 666
f 765 764 667
f 766 765 666
f 767 666 665
f 767 766 666
f 768 665 664
f 768 767 665
f 769 664 663
f 769 768 664
f 770 663 662
f 770 769 663
f 771 662 661
f 771 770 662
f 772 661 660
f 772 771 661
f 373 660 372
f 373 772 660
f 654 761 778
f 654 653 761
f 655 778 777
f 655 654 778
f 656 777 776
f 656 655 777
f 657 776 775
f 657 656 776
f 658 775 774
f 658 657 775
f 659 774 773
f 659 658 774
f 556 773 554
f 556 659 773
f 512 407 406
f 512 511 407
f 512 406 186
f 513 512 186
f 250 471 470
f 251 250 470
f 251 470 213
f 252 251 213
f 399 515 514
f 400 399 514
f 400 514 308
f 401 400 308
f 477 476 248
f 477 248 247
f 478 477 247

