# https://github.com/mikedh/trimesh
v 10.41400000 6.35000000 2.50000000
v 10.43529193 6.03872304 2.50000000
v 10.49877108 5.73324458 2.50000000
v 10.60325496 5.43925511 2.50000000
v 10.74679724 5.16223109 2.50000000
v 10.92672399 4.90733296 2.50000000
v 11.13968351 4.67930899 2.50000000
v 11.38170878 4.48240682 2.50000000
v 11.64829132 4.32029439 2.50000000
v 11.93446521 4.19599153 2.50000000
v 12.36057494 4.08445573 2.50000000
v 12.98439817 4.07689246 2.50000000
v 13.58712903 4.23791517 2.50000000
v 14.01829122 4.48240682 2.50000000
v 14.37567896 4.78502511 2.50000000
v 14.73250377 5.29684145 2.50000000
v 14.90122892 5.73324458 2.50000000
v 14.98342595 6.16597241 2.50000000
v 10.41400000 6.35000000 -0.00000000
v 10.43529193 6.03872304 -0.00000000
v 10.49877108 5.73324458 -0.00000000
v 10.60325496 5.43925511 -0.00000000
v 10.74679724 5.16223109 -0.00000000
v 10.92672399 4.90733296 -0.00000000
v 11.13968351 4.67930899 -0.00000000
v 11.38170878 4.48240682 -0.00000000
v 11.64829132 4.32029439 -0.00000000
v 11.93446521 4.19599153 -0.00000000
v 12.23489955 4.11181378 -0.00000000
v 12.67222789 4.05933875 -0.00000000
v 13.29127080 4.13678988 0.00000000
v 13.89131509 4.39096586 -0.00000000
v 14.26031649 4.67930899 -0.00000000
v 14.47327601 4.90733296 -0.00000000
v 14.65320276 5.16223109 -0.00000000
v 14.86770089 5.60907282 -0.00000000
v 14.96470807 6.03872304 -0.00000000
v -10.41400000 6.35000000 -0.00000000
v -10.41400000 6.35000000 2.50000000
v -14.98721642 6.22138715 2.50000000
v -14.90122892 5.73324458 2.50000000
v -14.74662125 5.32080531 2.50000000
v -14.39305356 4.80679884 2.50000000
v -14.01829122 4.48240682 2.50000000
v -13.63807482 4.26004406 2.50000000
v -13.03942506 4.08445573 2.50000000
v -12.54399784 4.06932919 2.50000000
v -12.23489955 4.11181378 2.50000000
v -11.93446521 4.19599153 2.50000000
v -11.64829132 4.32029439 2.50000000
v -11.38170878 4.48240682 2.50000000
v -11.13968351 4.67930899 2.50000000
v -10.92672399 4.90733296 2.50000000
v -10.74679724 5.16223109 2.50000000
v -10.60325496 5.43925511 2.50000000
v -10.49877108 5.73324458 2.50000000
v -10.43529193 6.03872304 2.50000000
v -14.98600000 6.35000000 -0.00000000
v -14.93709956 5.85675994 -0.00000000
v -14.72106729 5.27148841 0.00000000
v -14.35514168 4.76620512 0.00000000
v -13.88940640 4.39410457 -0.00000000
v -13.34475529 4.15177553 -0.00000000
v -12.72777211 4.05933875 -0.00000000
v -12.23489955 4.11181378 -0.00000000
v -11.93446521 4.19599153 -0.00000000
v -11.64829132 4.32029439 -0.00000000
v -11.38170878 4.48240682 -0.00000000
v -11.13968351 4.67930899 -0.00000000
v -10.92672399 4.90733296 -0.00000000
v -10.74679724 5.16223109 -0.00000000
v -10.60325496 5.43925511 -0.00000000
v -10.49877108 5.73324458 -0.00000000
v -10.43529193 6.03872304 -0.00000000
v 12.70000000 8.63600000 -50.80000001
v 12.38872304 8.61470807 -50.80000001
v 12.08324458 8.55122892 -50.80000001
v 11.78925511 8.44674504 -50.80000001
v 11.51223109 8.30320276 -50.80000001
v 11.25733296 8.12327601 -50.80000001
v 11.02930899 7.91031649 -50.80000001
v 10.83240682 7.66829122 -50.80000001
v 10.67029439 7.40170868 -50.80000001
v 10.54599153 7.11553479 -50.80000001
v 10.46181378 6.81510045 -50.80000001
v 10.41932919 6.50600216 -50.80000001
v 10.41932919 6.19399784 -50.80000001
v 10.46181378 5.88489955 -50.80000001
v 10.54599153 5.58446521 -50.80000001
v 10.67029439 5.29829132 -50.80000001
v 10.83240682 5.03170878 -50.80000001
v 11.02930899 4.78968351 -50.80000001
v 11.25733296 4.57672399 -50.80000001
v 11.51223109 4.39679724 -50.80000001
v 11.78925511 4.25325496 -50.80000001
v 12.08324458 4.14877108 -50.80000001
v 12.54378281 4.06618506 -50.80000001
v 12.85621719 8.63381494 -53.30000001
v 12.38872304 8.61470807 -53.30000001
v 12.08324458 8.55122892 -53.30000001
v 11.78925511 8.44674504 -53.30000001
v 11.51223109 8.30320276 -53.30000001
v 11.25733296 8.12327601 -53.30000001
v 11.02930899 7.91031649 -53.30000001
v 10.83240682 7.66829122 -53.30000001
v 10.67029439 7.40170868 -53.30000001
v 10.54599153 7.11553479 -53.30000001
v 10.46181378 6.81510045 -53.30000001
v 10.41932919 6.50600216 -53.30000001
v 10.41932919 6.19399784 -53.30000001
v 10.46181378 5.88489955 -53.30000001
v 10.54599153 5.58446521 -53.30000001
v 10.67029439 5.29829132 -53.30000001
v 10.83240682 5.03170878 -53.30000001
v 11.02930899 4.78968351 -53.30000001
v 11.25733296 4.57672399 -53.30000001
v 11.51223109 4.39679724 -53.30000001
v 11.78925511 4.25325496 -53.30000001
v 12.23425834 4.10872822 -53.30000001
v -12.85646788 4.06252013 -53.30000001
v -12.70000000 4.06400000 -50.80000001
v -12.70000000 8.63600000 -50.80000001
v -13.01127696 8.61470807 -50.80000001
v -13.31675542 8.55122892 -50.80000001
v -13.61074489 8.44674504 -50.80000001
v -13.88776891 8.30320276 -50.80000001
v -14.14266704 8.12327601 -50.80000001
v -14.37069101 7.91031649 -50.80000001
v -14.56759318 7.66829122 -50.80000001
v -14.79963561 7.26200043 -50.80000001
v -14.96554427 6.68942506 -50.80000001
v -14.97146948 6.03779375 -50.80000001
v -14.85400847 5.58446521 -50.80000001
v -14.65589543 5.16059360 -50.80000001
v -14.28379488 4.69485832 -50.80000001
v -13.88776891 4.39679724 -50.80000001
v -13.46782035 4.18956063 -50.80000001
v -13.01127696 4.08529193 -50.80000001
v -12.70000000 8.63600000 -53.30000001
v -13.01127696 8.61470807 -53.30000001
v -13.31675542 8.55122892 -53.30000001
v -13.61074489 8.44674504 -53.30000001
v -13.88776891 8.30320276 -53.30000001
v -14.26497489 8.02567896 -53.30000001
v -14.65589543 7.53940640 -53.30000001
v -14.89822447 6.99475529 -53.30000001
v -14.99066125 6.37777211 -53.30000001
v -14.93818622 5.88489955 -53.30000001
v -14.81208483 5.46287097 -53.30000001
v -14.49441846 4.92593447 -53.30000001
v -14.02222704 4.47683102 -53.30000001
v -13.61074489 4.25325496 -53.30000001
v -13.31675542 4.14877108 -53.30000001
v -5.36600000 50.73737921 -50.80000001
v -5.36600000 50.73737921 -53.30000001
v -5.41163311 50.04115250 -50.80000001
v -5.54775164 49.35683842 -50.80000001
v -5.77202657 48.69614578 -50.80000001
v -6.08062050 48.07037921 -50.80000001
v -6.46825328 47.49024575 -50.80000001
v -6.92829243 46.96567164 -50.80000001
v -7.45286654 46.50563249 -50.80000001
v -8.03300000 46.11799970 -50.80000001
v -8.65876657 45.80940578 -50.80000001
v -9.31945921 45.58513085 -50.80000001
v -10.00377329 45.44901232 -50.80000001
v -10.70000000 45.40337921 -50.80000001
v -10.70000000 45.40337921 -53.30000001
v -5.41163311 50.04115250 -53.30000001
v -5.54775164 49.35683842 -53.30000001
v -5.77202657 48.69614578 -53.30000001
v -6.08062050 48.07037921 -53.30000001
v -6.46825328 47.49024575 -53.30000001
v -6.92829243 46.96567164 -53.30000001
v -7.45286654 46.50563249 -53.30000001
v -8.03300000 46.11799970 -53.30000001
v -8.65876657 45.80940578 -53.30000001
v -9.31945921 45.58513085 -53.30000001
v -10.00377329 45.44901232 -53.30000001
v -28.71280000 65.78097000 -29.84466175
v -26.21280000 65.76658443 -29.84467017
v -26.21280000 64.35739446 -29.93589462
v -26.21280000 64.98506789 -29.91763119
v -28.71280000 64.55139875 -29.93903392
v -26.21280000 78.36163117 -27.63310011
v -26.21280000 79.79175928 -27.27883366
v -26.21280000 81.16032783 -26.73313111
v -26.21280000 82.44184297 -26.00615786
v -26.21280000 83.61243249 -25.11145607
v -26.21280000 84.65029054 -24.06569232
v -26.21280000 85.53608377 -22.88834722
v -26.21280000 86.25331154 -21.60135248
v -26.21280000 86.78861325 -20.22868237
v -26.21280000 87.13201724 -18.79590715
v -26.21280000 87.27712655 -17.32971670
v -26.21280000 87.22123807 -15.85742339
v -26.21280000 86.96539288 -14.40645323
v -26.21280000 86.51435691 -13.00383508
v -26.21280000 85.87653209 -11.67569704
v -26.21280000 85.06379991 -10.44677982
v -26.21280000 84.09130001 -9.33997582
v -26.21280000 82.97714825 -8.37590271
v -26.21280000 81.74209914 -7.57251933
v -26.21280000 80.40915933 -6.94479121
v -26.21280000 79.00315895 -6.50441173
v -26.21280000 77.55028914 -6.25958433
v -26.21280000 76.07761411 -6.21486968
v -26.21280000 74.61256702 -6.37110073
v -28.71280000 78.36163117 -27.63310011
v -28.71280000 79.79175928 -27.27883366
v -28.71280000 81.16032783 -26.73313111
v -28.71280000 82.44184297 -26.00615786
v -28.71280000 83.61243249 -25.11145607
v -28.71280000 84.65029054 -24.06569232
v -28.71280000 85.53608377 -22.88834722
v -28.71280000 86.25331154 -21.60135248
v -28.71280000 86.78861325 -20.22868237
v -28.71280000 87.13201724 -18.79590715
v -28.71280000 87.27712655 -17.32971670
v -28.71280000 87.22123807 -15.85742339
v -28.71280000 86.96539288 -14.40645323
v -28.71280000 86.51435691 -13.00383508
v -28.71280000 85.87653209 -11.67569704
v -28.71280000 85.06379991 -10.44677982
v -28.71280000 84.09130001 -9.33997582
v -28.71280000 82.97714825 -8.37590271
v -28.71280000 81.74209914 -7.57251933
v -28.71280000 80.40915933 -6.94479121
v -28.71280000 79.00315895 -6.50441173
v -28.71280000 77.55028914 -6.25958433
v -28.71280000 76.07761411 -6.21486968
v -28.71280000 74.61256702 -6.37110073
v -26.21280000 62.48286238 -8.50989492
v -26.21280000 61.07046277 -8.85847734
v -26.21280000 59.71775838 -9.39380264
v -26.21280000 58.44931618 -10.10614857
v -26.21280000 57.28817283 -10.98257796
v -26.21280000 56.25541630 -12.00717364
v -26.21280000 55.36980288 -13.16132753
v -26.21280000 54.64741651 -14.42407861
v -26.21280000 54.10137674 -15.77249357
v -26.21280000 53.74160040 -17.18208335
v -26.21280000 53.57462153 -18.62724784
v -26.21280000 53.60347269 -20.08174086
v -26.21280000 53.82762991 -21.51914682
v -26.21280000 54.24302218 -22.91336044
v -26.21280000 54.84210540 -24.23906087
v -26.21280000 55.61399940 -25.47217157
v -26.21280000 56.54468552 -26.59029755
v -26.21280000 57.61726121 -27.57313209
v -26.21280000 58.81224702 -28.40282556
v -26.21280000 60.10794035 -29.06430959
v -26.21280000 61.48080964 -29.54557072
v -26.21280000 62.90592167 -29.83786857
v -28.71280000 62.48286238 -8.50989492
v -28.71280000 61.07046277 -8.85847734
v -28.71280000 59.71775838 -9.39380264
v -28.71280000 58.44931618 -10.10614857
v -28.71280000 57.28817283 -10.98257796
v -28.71280000 56.25541630 -12.00717364
v -28.71280000 55.36980288 -13.16132753
v -28.71280000 54.64741651 -14.42407861
v -28.71280000 54.10137674 -15.77249357
v -28.71280000 53.74160040 -17.18208335
v -28.71280000 53.57462153 -18.62724784
v -28.71280000 53.60347269 -20.08174086
v -28.71280000 53.82762991 -21.51914682
v -28.71280000 54.24302218 -22.91336044
v -28.71280000 54.84210540 -24.23906087
v -28.71280000 55.61399940 -25.47217157
v -28.71280000 56.54468552 -26.59029755
v -28.71280000 57.61726121 -27.57313209
v -28.71280000 58.81224702 -28.40282556
v -28.71280000 60.10794035 -29.06430959
v -28.71280000 61.48080964 -29.54557072
v -28.71280000 62.90592167 -29.83786857
v -16.03400000 31.91093688 -11.08597081
v -16.03400000 34.07600039 -9.83597081
v -16.03400000 54.13593688 -49.58080001
v -16.03400000 56.30100039 -48.33080001
v -16.03400000 54.18564647 -49.68271977
v -16.03400000 54.22068780 -49.79056589
v -16.03400000 54.24037883 -49.90223927
v -16.03400000 54.24433630 -50.01556632
v -16.03400000 54.23248318 -50.12834124
v -16.03400000 54.20505017 -50.23836902
v -16.03400000 54.16257124 -50.34350807
v -16.03400000 54.10587317 -50.44171200
v -16.03400000 54.03605955 -50.53106936
v -16.03400000 53.95448920 -50.60984093
v -16.03400000 53.86274981 -50.67649350
v -16.03400000 53.76262698 -50.72972975
v -16.03400000 53.65606948 -50.76851351
v -16.03400000 53.54515133 -50.79208989
v -16.03400000 53.43203144 -50.80000001
v -16.03400000 53.77847451 -53.28384079
v -16.03400000 56.50360611 -48.74620328
v -16.03400000 56.64642712 -49.18576115
v -16.03400000 56.72668357 -49.64091811
v -16.03400000 56.74281337 -50.10281506
v -16.03400000 56.69450256 -50.56246169
v -16.03400000 56.58269146 -51.01091150
v -16.03400000 56.40955635 -51.43943594
v -16.03400000 56.17846711 -51.83969426
v -16.03400000 55.89392161 -52.20389588
v -16.03400000 55.56145823 -52.52495204
v -16.03400000 55.18754797 -52.79661374
v -16.03400000 54.77946859 -53.01359340
v -16.03400000 54.34516287 -53.17166775
v -16.03400000 50.73737921 -50.80000001
v -16.03400000 50.73737921 -53.30000001
v -11.39622671 45.44901232 -50.80000001
v -12.08054079 45.58513085 -50.80000001
v -12.74123343 45.80940578 -50.80000001
v -13.36700000 46.11799970 -50.80000001
v -13.94713346 46.50563249 -50.80000001
v -14.47170757 46.96567164 -50.80000001
v -14.93174672 47.49024575 -50.80000001
v -15.31937950 48.07037921 -50.80000001
v -15.62797343 48.69614578 -50.80000001
v -15.85224836 49.35683842 -50.80000001
v -15.98836689 50.04115250 -50.80000001
v -11.39622671 45.44901232 -53.30000001
v -12.08054079 45.58513085 -53.30000001
v -12.74123343 45.80940578 -53.30000001
v -13.36700000 46.11799970 -53.30000001
v -13.94713346 46.50563249 -53.30000001
v -14.47170757 46.96567164 -53.30000001
v -14.93174672 47.49024575 -53.30000001
v -15.31937950 48.07037921 -53.30000001
v -15.62797343 48.69614578 -53.30000001
v -15.85224836 49.35683842 -53.30000001
v -15.98836689 50.04115250 -53.30000001
v -5.36600000 53.43203144 -50.80000001
v -5.36600000 53.43203144 -53.30000001
v -5.36600000 53.54515133 -50.79208989
v -5.36600000 53.65606948 -50.76851351
v -5.36600000 53.76262698 -50.72972975
v -5.36600000 53.86274981 -50.67649350
v -5.36600000 53.95448920 -50.60984093
v -5.36600000 54.03605955 -50.53106936
v -5.36600000 54.10587317 -50.44171200
v -5.36600000 54.16257124 -50.34350807
v -5.36600000 54.20505017 -50.23836902
v -5.36600000 54.23248318 -50.12834124
v -5.36600000 54.24433630 -50.01556632
v -5.36600000 54.24037883 -49.90223927
v -5.36600000 54.22068780 -49.79056589
v -5.36600000 54.18564647 -49.68271977
v -5.36600000 54.13593688 -49.58080001
v -5.36600000 56.30100039 -48.33080001
v -5.36600000 53.89308408 -53.26776006
v -5.36600000 54.34516287 -53.17166775
v -5.36600000 54.77946859 -53.01359340
v -5.36600000 55.18754797 -52.79661374
v -5.36600000 55.56145823 -52.52495204
v -5.36600000 55.89392161 -52.20389588
v -5.36600000 56.17846711 -51.83969426
v -5.36600000 56.40955635 -51.43943594
v -5.36600000 56.58269146 -51.01091150
v -5.36600000 56.69450256 -50.56246169
v -5.36600000 56.74281337 -50.10281506
v -5.36600000 56.72668357 -49.64091811
v -5.36600000 56.64642712 -49.18576115
v -5.36600000 56.50360611 -48.74620328
v -5.36600000 31.91093688 -11.08597081
v -5.36600000 34.07600039 -9.83597081
v 25.40000000 54.13593688 -49.58080001
v 25.40000000 56.30100039 -48.33080001
v 25.40000000 54.18564647 -49.68271977
v 25.40000000 54.22068780 -49.79056589
v 25.40000000 54.24037883 -49.90223927
v 25.40000000 54.24433630 -50.01556632
v 25.40000000 54.23248318 -50.12834124
v 25.40000000 54.20505017 -50.23836902
v 25.40000000 54.16257124 -50.34350807
v 25.40000000 54.10587317 -50.44171200
v 25.40000000 54.03605955 -50.53106936
v 25.40000000 53.95448920 -50.60984093
v 25.40000000 53.86274981 -50.67649350
v 25.40000000 53.76262698 -50.72972975
v 25.40000000 53.65606948 -50.76851351
v 25.40000000 53.54515133 -50.79208989
v 25.40000000 53.43203144 -50.80000001
v 25.40000000 53.43203144 -53.30000001
v 25.40000000 56.50360611 -48.74620328
v 25.40000000 56.64642712 -49.18576115
v 25.40000000 56.72668357 -49.64091811
v 25.40000000 56.74281337 -50.10281506
v 25.40000000 56.69450256 -50.56246169
v 25.40000000 56.58269146 -51.01091150
v 25.40000000 56.40955635 -51.43943594
v 25.40000000 56.17846711 -51.83969426
v 25.40000000 55.89392161 -52.20389588
v 25.40000000 55.56145823 -52.52495204
v 25.40000000 55.18754797 -52.79661374
v 25.40000000 54.77946859 -53.01359340
v 25.40000000 54.34516287 -53.17166775
v 25.40000000 53.89308408 -53.26776006
v 25.40000000 3.17500000 -53.30000001
v 25.40000000 3.17500000 -50.80000001
v 25.37283743 2.76057934 -50.80000001
v 25.29181450 2.35324953 -50.80000001
v 25.15831752 1.95998010 -50.80000001
v 24.97463066 1.58750000 -50.80000001
v 24.74389686 1.24218246 -50.80000001
v 24.47006403 0.92993597 -50.80000001
v 24.15781754 0.65610314 -50.80000001
v 23.81250000 0.42536934 -50.80000001
v 23.44001990 0.24168248 -50.80000001
v 23.04675047 0.10818550 -50.80000001
v 22.63942066 0.02716257 -50.80000001
v 22.22500000 0.00000000 -50.80000001
v 22.22500000 0.00000000 -53.30000001
v 25.37283743 2.76057934 -53.30000001
v 25.29181450 2.35324953 -53.30000001
v 25.15831752 1.95998010 -53.30000001
v 24.97463066 1.58750000 -53.30000001
v 24.74389686 1.24218246 -53.30000001
v 24.47006403 0.92993597 -53.30000001
v 24.15781754 0.65610314 -53.30000001
v 23.81250000 0.42536934 -53.30000001
v 23.44001990 0.24168248 -53.30000001
v 23.04675047 0.10818550 -53.30000001
v 22.63942066 0.02716257 -53.30000001
v -22.22500000 0.00000000 -53.30000001
v -22.22500000 0.00000000 -50.80000001
v -22.63942066 0.02716257 -50.80000001
v -23.04675047 0.10818550 -50.80000001
v -23.44001990 0.24168248 -50.80000001
v -23.81250000 0.42536934 -50.80000001
v -24.15781754 0.65610314 -50.80000001
v -24.47006403 0.92993597 -50.80000001
v -24.74389686 1.24218246 -50.80000001
v -24.97463066 1.58750000 -50.80000001
v -25.15831752 1.95998010 -50.80000001
v -25.29181450 2.35324953 -50.80000001
v -25.37283743 2.76057934 -50.80000001
v -25.40000000 3.17500000 -50.80000001
v -25.40000000 3.17500000 -53.30000001
v -22.63942066 0.02716257 -53.30000001
v -23.04675047 0.10818550 -53.30000001
v -23.44001990 0.24168248 -53.30000001
v -23.81250000 0.42536934 -53.30000001
v -24.15781754 0.65610314 -53.30000001
v -24.47006403 0.92993597 -53.30000001
v -24.74389686 1.24218246 -53.30000001
v -24.97463066 1.58750000 -53.30000001
v -25.15831752 1.95998010 -53.30000001
v -25.29181450 2.35324953 -53.30000001
v -25.37283743 2.76057934 -53.30000001
v -25.40000000 53.43203144 -53.30000001
v -25.40000000 53.43203144 -50.80000001
v -25.40000000 53.54515133 -50.79208989
v -25.40000000 53.65606948 -50.76851351
v -25.40000000 53.76262698 -50.72972975
v -25.40000000 53.86274981 -50.67649350
v -25.40000000 53.95448920 -50.60984093
v -25.40000000 54.03605955 -50.53106936
v -25.40000000 54.10587317 -50.44171200
v -25.40000000 54.16257124 -50.34350807
v -25.40000000 54.20505017 -50.23836902
v -25.40000000 54.23248318 -50.12834124
v -25.40000000 54.24433630 -50.01556632
v -25.40000000 54.24037883 -49.90223927
v -25.40000000 54.22068780 -49.79056589
v -25.40000000 54.18564647 -49.68271977
v -25.40000000 54.13593688 -49.58080001
v -25.40000000 56.47092594 -48.65960957
v -25.40000000 53.89308408 -53.26776006
v -25.40000000 54.34516287 -53.17166775
v -25.40000000 54.77946859 -53.01359340
v -25.40000000 55.18754797 -52.79661374
v -25.40000000 55.56145823 -52.52495204
v -25.40000000 55.89392161 -52.20389588
v -25.40000000 56.17846711 -51.83969426
v -25.40000000 56.40955635 -51.43943594
v -25.40000000 56.58269146 -51.01091150
v -25.40000000 56.69450256 -50.56246169
v -25.40000000 56.74281337 -50.10281506
v -25.40000000 56.72668357 -49.64091811
v -25.40000000 56.64642712 -49.18576115
v -25.40000000 50.42948310 -38.16103374
v -25.40000000 48.26441959 -39.41103374
v -25.51174174 49.89733350 -37.22389051
v -25.64823902 49.66947141 -36.76698484
v -25.76097172 49.55919915 -36.48452024
v -25.85748449 49.50586180 -36.27940485
v -25.91666664 49.49076680 -36.16456849
v -25.98212077 49.49088216 -36.04429523
v -26.03799717 49.50729315 -35.94532516
v -26.08529030 49.53609890 -35.86211659
v -26.12068453 49.57002018 -35.79845344
v -26.14676170 49.60509401 -35.74938979
v -26.18192940 49.67706602 -35.67581071
v -26.20470265 49.76497112 -35.61302882
v -26.21280000 49.86739157 -35.56186265
v -28.71280000 49.86739157 -35.56186265
v -25.52596015 48.03700577 -39.01253156
v -25.66183840 47.88590113 -38.73472570
v -25.78548955 47.79264559 -38.54889673
v -25.91296021 47.72575555 -38.39813195
v -26.01065759 47.68975081 -38.30213620
v -26.26808771 47.62686971 -38.07524888
v -26.54309354 47.59998847 -37.85328203
v -26.83190671 47.61381629 -37.63331001
v -27.12884737 47.67289843 -37.41270859
v -27.37190470 47.75735090 -37.23114280
v -27.59344383 47.86610097 -37.06076669
v -27.80817470 48.00558120 -36.88699125
v -28.01196464 48.17687884 -36.70918877
v -28.20002758 48.38044852 -36.52709675
v -28.36698279 48.61568891 -36.34106237
v -28.50742483 48.88190474 -36.15148682
v -28.61566485 49.17762054 -35.95921619
v -28.68597169 49.49980655 -35.76600712
v -28.70595214 49.68055958 -35.66366431
v -25.72662728 48.78973752 -37.76886428
v -25.98490322 48.65416033 -37.41676476
v -26.07063164 48.62655147 -37.31415054
v -26.36099289 48.62659656 -36.95268631
v -26.53472753 48.58546255 -36.84375507
v -26.66938063 48.63996777 -36.68791635
v -26.73832117 48.66554242 -36.61970598
v -26.88841307 48.74204315 -36.46914199
v -26.21280000 50.77093599 -35.32061464
v -26.21280000 50.28588119 -35.40248056
v -28.71280000 50.73335565 -35.32374822
v -28.71280000 50.23775910 -35.41619398
v -26.21280000 76.82260452 -35.31538916
v -28.71280000 76.82260452 -35.31538916
v -28.71280000 79.11149707 -35.15882462
v -28.71280000 81.35775188 -34.69204750
v -28.71280000 83.51952548 -33.92375298
v -28.71280000 85.55654811 -32.86825293
v -28.71280000 87.43087390 -31.54520931
v -28.71280000 89.10758770 -29.97926794
v -28.71280000 90.55545550 -28.19959933
v -28.71280000 91.74750628 -26.23935533
v -28.71280000 92.66153438 -24.13505160
v -28.71280000 93.28051318 -21.92588733
v -28.71280000 93.59291228 -19.65301506
v -28.71280000 93.59291228 -17.35877410
v -28.71280000 93.28051318 -15.08590183
v -28.71280000 92.66153438 -12.87673755
v -28.71280000 91.74750628 -10.77243382
v -28.71280000 90.55545550 -8.81218983
v -28.71280000 89.10758770 -7.03252122
v -28.71280000 87.43087390 -5.46657984
v -28.71280000 85.55654811 -4.14353623
v -28.71280000 83.51952548 -3.08803618
v -28.71280000 81.35775188 -2.31974166
v -28.71280000 79.11149707 -1.85296454
v -28.71280000 76.82260452 -1.69640000
v -26.21280000 76.82260452 -1.69640000
v -26.21280000 79.11149707 -35.15882462
v -26.21280000 81.35775188 -34.69204750
v -26.21280000 83.51952548 -33.92375298
v -26.21280000 85.55654811 -32.86825293
v -26.21280000 87.43087390 -31.54520931
v -26.21280000 89.10758770 -29.97926794
v -26.21280000 90.55545550 -28.19959933
v -26.21280000 91.74750628 -26.23935533
v -26.21280000 92.66153438 -24.13505160
v -26.21280000 93.28051318 -21.92588733
v -26.21280000 93.59291228 -19.65301506
v -26.21280000 93.59291228 -17.35877410
v -26.21280000 93.28051318 -15.08590183
v -26.21280000 92.66153438 -12.87673755
v -26.21280000 91.74750628 -10.77243382
v -26.21280000 90.55545550 -8.81218983
v -26.21280000 89.10758770 -7.03252122
v -26.21280000 87.43087390 -5.46657984
v -26.21280000 85.55654811 -4.14353623
v -26.21280000 83.51952548 -3.08803618
v -26.21280000 81.35775188 -2.31974166
v -26.21280000 79.11149707 -1.85296454
v -28.71280000 30.31515759 -1.69640000
v -26.21280000 30.31515759 -1.69640000
v -26.19573552 30.06873660 -1.60028647
v -26.14551275 29.82828213 -1.50072817
v -26.09277321 29.66984502 -1.42870067
v -26.02334213 29.51247748 -1.34918861
v -25.94061809 29.36474372 -1.26411449
v -27.60344439 27.74803208 -2.19752338
v -28.67993563 29.84252399 -1.80575803
v -28.58261900 29.37784981 -1.91054454
v -28.42276483 28.92881591 -2.00630113
v -28.20295337 28.50306755 -2.08861381
v -27.92806050 28.10735843 -2.15358333
v -27.45898482 30.15426882 -1.70755543
v -27.40205759 29.76298171 -1.73249737
v -27.34093028 29.53629582 -1.74418799
v -27.22398347 29.23605438 -1.75403621
v -27.06741336 28.94655909 -1.75424829
v -26.97808393 28.81236064 -1.74997911
v -25.80450755 29.12020294 -1.03669913
v -25.67737584 28.89999754 -0.77334081
v -25.56928204 28.69463274 -0.47952136
v -25.48590202 28.49468014 -0.16068425
v -25.42917925 28.29367059 0.17943554
v -25.40000000 28.08661130 0.53795541
v -25.40000000 25.92154779 -0.71204459
v -27.23801370 27.39965287 -2.15917571
v -26.88040366 27.11239551 -2.07633420
v -26.62275008 26.92770063 -1.98705140
v -26.38702305 26.76955209 -1.88019232
v -26.17209954 26.63025228 -1.75714982
v -25.98090488 26.50526904 -1.62054054
v -25.81501021 26.39064551 -1.47264897
v -25.67528646 26.28307220 -1.31538586
v -25.56255626 26.17930844 -1.15062165
v -25.47711798 26.07696012 -0.97973753
v -25.43073118 25.99963529 -0.84718111
v -26.47093397 28.25459486 -1.60069232
v -26.20416933 27.98885799 -1.43638340
v -26.05868183 27.84212728 -1.32277498
v -25.90192720 27.71934578 -1.16773955
v -25.68545509 27.49352988 -0.89573208
v -25.40000000 25.74508380 -0.40640000
v -25.40000000 27.91014731 0.84360000
v -25.40000000 25.68601595 -0.31799871
v -25.40000000 25.61591475 -0.23806361
v -25.40000000 25.53597964 -0.16796241
v -25.40000000 25.44757836 -0.10889455
v -25.40000000 25.35222345 -0.06187072
v -25.40000000 25.25154648 -0.02769549
v -25.40000000 25.14727004 -0.00695362
v -25.40000000 25.04117836 0.00000000
v -25.40000000 25.04117836 2.50000000
v -25.40000000 27.66939930 1.20390486
v -25.40000000 27.38368170 1.52970334
v -25.40000000 27.05788322 1.81542095
v -25.40000000 26.69757836 2.05616896
v -25.40000000 26.30893203 2.24782812
v -25.40000000 25.89859409 2.38711908
v -25.40000000 25.47358552 2.47165854
v -25.40000000 3.17500000 -0.00000000
v -25.40000000 3.17500000 2.50000000
v -25.37283743 2.76057934 -0.00000000
v -25.29181450 2.35324953 -0.00000000
v -25.15831752 1.95998010 -0.00000000
v -24.97463066 1.58750000 -0.00000000
v -24.74389686 1.24218246 -0.00000000
v -24.47006403 0.92993597 -0.00000000
v -24.15781754 0.65610314 -0.00000000
v -23.81250000 0.42536934 -0.00000000
v -23.44001990 0.24168248 -0.00000000
v -23.04675047 0.10818550 -0.00000000
v -22.63942066 0.02716257 -0.00000000
v -22.22500000 -0.00000000 -0.00000000
v -22.22500000 -0.00000000 2.50000000
v -25.37283743 2.76057934 2.50000000
v -25.29181450 2.35324953 2.50000000
v -25.15831752 1.95998010 2.50000000
v -24.97463066 1.58750000 2.50000000
v -24.74389686 1.24218246 2.50000000
v -24.47006403 0.92993597 2.50000000
v -24.15781754 0.65610314 2.50000000
v -23.81250000 0.42536934 2.50000000
v -23.44001990 0.24168248 2.50000000
v -23.04675047 0.10818550 2.50000000
v -22.63942066 0.02716257 2.50000000
v 22.22500000 -0.00000000 -0.00000000
v 22.22500000 -0.00000000 2.50000000
v 22.63942066 0.02716257 -0.00000000
v 23.04675047 0.10818550 -0.00000000
v 23.44001990 0.24168248 -0.00000000
v 23.81250000 0.42536934 -0.00000000
v 24.15781754 0.65610314 -0.00000000
v 24.47006403 0.92993597 -0.00000000
v 24.74389686 1.24218246 -0.00000000
v 24.97463066 1.58750000 -0.00000000
v 25.15831752 1.95998010 -0.00000000
v 25.29181450 2.35324953 -0.00000000
v 25.37283743 2.76057934 -0.00000000
v 25.40000000 3.17500000 -0.00000000
v 25.40000000 3.17500000 2.50000000
v 22.63942066 0.02716257 2.50000000
v 23.04675047 0.10818550 2.50000000
v 23.44001990 0.24168248 2.50000000
v 23.81250000 0.42536934 2.50000000
v 24.15781754 0.65610314 2.50000000
v 24.47006403 0.92993597 2.50000000
v 24.74389686 1.24218246 2.50000000
v 24.97463066 1.58750000 2.50000000
v 25.15831752 1.95998010 2.50000000
v 25.29181450 2.35324953 2.50000000
v 25.37283743 2.76057934 2.50000000
v 25.40000000 25.04117836 -0.00000000
v 25.40000000 25.04117836 2.50000000
v 25.40000000 25.14727004 -0.00695362
v 25.40000000 25.25154648 -0.02769549
v 25.40000000 25.35222345 -0.06187072
v 25.40000000 25.44757836 -0.10889455
v 25.40000000 25.53597964 -0.16796241
v 25.40000000 25.61591475 -0.23806361
v 25.40000000 25.68601595 -0.31799871
v 25.40000000 25.74508380 -0.40640000
v 25.40000000 27.91014731 0.84360000
v 25.40000000 25.47358552 2.47165854
v 25.40000000 25.89859409 2.38711908
v 25.40000000 26.30893203 2.24782812
v 25.40000000 26.69757836 2.05616896
v 25.40000000 27.05788322 1.81542095
v 25.40000000 27.38368170 1.52970334
v 25.40000000 27.66939930 1.20390486
v -12.38872304 4.08529193 -50.80000001
v -12.08324458 4.14877108 -50.80000001
v -11.78925511 4.25325496 -50.80000001
v -11.51223109 4.39679724 -50.80000001
v -11.25733296 4.57672399 -50.80000001
v -11.02930899 4.78968351 -50.80000001
v -10.83240682 5.03170878 -50.80000001
v -10.67029439 5.29829132 -50.80000001
v -10.54599153 5.58446521 -50.80000001
v -10.46181378 5.88489955 -50.80000001
v -10.41932919 6.19399784 -50.80000001
v -10.41932919 6.50600216 -50.80000001
v -10.46181378 6.81510045 -50.80000001
v -10.54599153 7.11553479 -50.80000001
v -10.67029439 7.40170868 -50.80000001
v -10.83240682 7.66829122 -50.80000001
v -11.02930899 7.91031649 -50.80000001
v -11.25733296 8.12327601 -50.80000001
v -11.51223109 8.30320276 -50.80000001
v -11.78925511 8.44674504 -50.80000001
v -12.08324458 8.55122892 -50.80000001
v -12.38872304 8.61470807 -50.80000001
v -12.38872304 4.08529193 -53.30000001
v -12.08324458 4.14877108 -53.30000001
v -11.78925511 4.25325496 -53.30000001
v -11.51223109 4.39679724 -53.30000001
v -11.25733296 4.57672399 -53.30000001
v -11.02930899 4.78968351 -53.30000001
v -10.83240682 5.03170878 -53.30000001
v -10.67029439 5.29829132 -53.30000001
v -10.54599153 5.58446521 -53.30000001
v -10.46181378 5.88489955 -53.30000001
v -10.41932919 6.19399784 -53.30000001
v -10.41932919 6.50600216 -53.30000001
v -10.46181378 6.81510045 -53.30000001
v -10.54599153 7.11553479 -53.30000001
v -10.67029439 7.40170868 -53.30000001
v -10.83240682 7.66829122 -53.30000001
v -11.02930899 7.91031649 -53.30000001
v -11.25733296 8.12327601 -53.30000001
v -11.51223109 8.30320276 -53.30000001
v -11.78925511 8.44674504 -53.30000001
v -12.08324458 8.55122892 -53.30000001
v -12.38872304 8.61470807 -53.30000001
v 13.01127696 4.08529193 -50.80000001
v 13.31675542 4.14877108 -50.80000001
v 13.61074489 4.25325496 -50.80000001
v 13.88776891 4.39679724 -50.80000001
v 14.14266704 4.57672399 -50.80000001
v 14.37069101 4.78968351 -50.80000001
v 14.56759318 5.03170878 -50.80000001
v 14.72970561 5.29829132 -50.80000001
v 14.85400847 5.58446521 -50.80000001
v 14.93818622 5.88489955 -50.80000001
v 14.98067081 6.19399784 -50.80000001
v 14.97310754 6.63439817 -50.80000001
v 14.85400847 7.11553479 -50.80000001
v 14.67161535 7.51646181 -50.80000001
v 14.37069101 7.91031649 -50.80000001
v 14.04366824 8.20538564 -50.80000001
v 13.61074489 8.44674504 -50.80000001
v 13.19324006 8.58709956 -50.80000001
v 12.85646788 4.06252013 -53.30000001
v 13.49326433 4.20089974 -53.30000001
v 14.04366824 4.49461436 -53.30000001
v 14.49441846 4.92593447 -53.30000001
v 14.81208483 5.46287097 -53.30000001
v 14.97310754 6.06560183 -53.30000001
v 14.98067081 6.50600216 -53.30000001
v 14.89822447 6.99475529 -53.30000001
v 14.72970561 7.40170868 -53.30000001
v 14.45936517 7.81715181 -53.30000001
v 14.14266704 8.12327601 -53.30000001
v 13.72919469 8.39662125 -53.30000001
v 13.31675542 8.55122892 -53.30000001
v -15.98431884 33.71284394 -9.20696538
v -15.83620081 33.35645240 -8.58967713
v -15.59240508 33.01346469 -7.99560498
v -15.25747310 32.69027000 -7.43581536
v -14.83764402 32.39288885 -6.92073609
v -14.34073847 32.12686088 -6.45996213
v -13.77601284 31.89714169 -6.06207683
v -13.15398691 31.70801052 -5.73449203
v -12.48624785 31.56299051 -5.48331002
v -11.78523437 31.46478313 -5.31320984
v -11.06400503 31.41521779 -5.22736014
v -10.33599497 31.41521779 -5.22736014
v -9.61476563 31.46478313 -5.31320984
v -8.91375215 31.56299051 -5.48331002
v -8.24601309 31.70801052 -5.73449203
v -7.62398716 31.89714169 -6.06207683
v -7.05926153 32.12686088 -6.45996213
v -6.56235598 32.39288885 -6.92073609
v -6.14252690 32.69027000 -7.43581536
v -5.80759492 33.01346469 -7.99560498
v -5.56379919 33.35645240 -8.58967713
v -5.41568116 33.71284394 -9.20696538
v -15.98431884 31.54778043 -10.45696538
v -15.83620081 31.19138890 -9.83967713
v -15.59240508 30.84840118 -9.24560498
v -15.25747310 30.52520649 -8.68581536
v -14.83764402 30.22782534 -8.17073609
v -14.34073847 29.96179737 -7.70996213
v -13.77601284 29.73207818 -7.31207683
v -13.15398691 29.54294701 -6.98449203
v -12.48624785 29.39792700 -6.73331002
v -11.78523437 29.29971962 -6.56320984
v -11.06400503 29.25015428 -6.47736014
v -10.33599497 29.25015428 -6.47736014
v -9.61476563 29.29971962 -6.56320984
v -8.91375215 29.39792700 -6.73331002
v -8.24601309 29.54294701 -6.98449203
v -7.62398716 29.73207818 -7.31207683
v -7.05926153 29.96179737 -7.70996213
v -6.56235598 30.22782534 -8.17073609
v -6.14252690 30.52520649 -8.68581536
v -5.80759492 30.84840118 -9.24560498
v -5.56379919 31.19138890 -9.83967713
v -5.41568116 31.54778043 -10.45696538
v -10.43529193 6.66127696 2.50000000
v -10.49877108 6.96675542 2.50000000
v -10.60325496 7.26074489 2.50000000
v -10.74679724 7.53776891 2.50000000
v -10.92672399 7.79266704 2.50000000
v -11.13968351 8.02069101 2.50000000
v -11.38170878 8.21759318 2.50000000
v -11.64829132 8.37970561 2.50000000
v -12.05524471 8.54822447 2.50000000
v -12.67222789 8.64066125 2.50000000
v -13.16510045 8.58818622 2.50000000
v -13.58712903 8.46208483 2.50000000
v -14.01829122 8.21759318 2.50000000
v -14.35514168 7.93379488 2.50000000
v -14.65320276 7.53776891 2.50000000
v -14.84910026 7.14326433 2.50000000
v -14.96470807 6.66127696 2.50000000
v -10.43529193 6.66127696 -0.00000000
v -10.49877108 6.96675542 -0.00000000
v -10.60325496 7.26074489 -0.00000000
v -10.74679724 7.53776891 -0.00000000
v -10.92672399 7.79266704 -0.00000000
v -11.13968351 8.02069101 -0.00000000
v -11.38170878 8.21759318 -0.00000000
v -11.78653604 8.45300498 -0.00000000
v -12.38829397 8.61783021 -0.00000000
v -13.01220625 8.62146948 -0.00000000
v -13.46553479 8.50400847 -0.00000000
v -13.91391988 8.29275546 0.00000000
v -14.26031649 8.02069101 -0.00000000
v -14.58741691 7.64829028 0.00000000
v -14.79674504 7.26074489 -0.00000000
v -14.94840037 6.78885759 0.00000000
v 14.94840037 6.78885759 2.50000000
v 14.74662125 7.37919469 2.50000000
v 14.37567896 7.91497489 2.50000000
v 13.88940640 8.30589543 2.50000000
v 13.34475529 8.54822447 2.50000000
v 12.72777211 8.64066125 2.50000000
v 12.23489955 8.58818622 2.50000000
v 11.81287097 8.46208483 2.50000000
v 11.38170878 8.21759318 2.50000000
v 11.13968351 8.02069101 2.50000000
v 10.92672399 7.79266704 2.50000000
v 10.74679724 7.53776891 2.50000000
v 10.60325496 7.26074489 2.50000000
v 10.49877108 6.96675542 2.50000000
v 10.43529193 6.66127696 2.50000000
v 14.98342595 6.53402759 -0.00000000
v 14.84910026 7.14326433 -0.00000000
v 14.55538564 7.69366824 -0.00000000
v 14.14465587 8.12572068 -0.00000000
v 13.61346396 8.45300498 -0.00000000
v 13.01170603 8.61783021 0.00000000
v 12.38779375 8.62146948 -0.00000000
v 11.93446521 8.50400847 -0.00000000
v 11.64829132 8.37970561 -0.00000000
v 11.38170878 8.21759318 -0.00000000
v 11.13968351 8.02069101 -0.00000000
v 10.92672399 7.79266704 -0.00000000
v 10.74679724 7.53776891 -0.00000000
v 10.60325496 7.26074489 -0.00000000
v 10.49877108 6.96675542 -0.00000000
v 10.43529193 6.66127696 -0.00000000
f 2 19 1
f 2 20 19
f 3 21 20
f 3 20 2
f 4 22 21
f 4 21 3
f 5 23 22
f 5 22 4
f 6 24 23
f 6 25 24
f 6 23 5
f 7 25 6
f 8 26 25
f 8 25 7
f 9 27 26
f 9 28 27
f 9 26 8
f 10 28 9
f 11 29 28
f 11 30 29
f 11 28 10
f 12 30 11
f 12 31 30
f 13 31 12
f 13 32 31
f 14 32 13
f 15 32 14
f 15 33 32
f 15 34 33
f 15 35 34
f 16 35 15
f 16 36 35
f 17 36 16
f 18 36 17
f 18 37 36
f 18 875 37
f 40 59 58
f 41 59 40
f 42 60 59
f 42 59 41
f 43 61 60
f 43 60 42
f 44 62 61
f 44 61 43
f 45 63 62
f 45 62 44
f 46 64 63
f 46 63 45
f 47 64 46
f 47 65 64
f 48 65 47
f 49 65 48
f 49 66 65
f 49 67 66
f 50 67 49
f 51 67 50
f 51 68 67
f 52 68 51
f 52 69 68
f 53 69 52
f 53 70 69
f 53 71 70
f 54 71 53
f 55 71 54
f 55 72 71
f 56 72 55
f 56 73 72
f 57 73 56
f 57 74 73
f 39 74 57
f 39 38 74
f 75 99 98
f 76 99 75
f 77 100 99
f 77 101 100
f 77 99 76
f 78 102 101
f 78 101 77
f 79 103 102
f 79 102 78
f 80 104 103
f 80 103 79
f 81 104 80
f 82 105 104
f 82 106 105
f 82 104 81
f 83 107 106
f 83 106 82
f 84 107 83
f 85 108 107
f 85 109 108
f 85 107 84
f 86 109 85
f 87 109 86
f 87 110 109
f 87 111 110
f 88 111 87
f 88 112 111
f 89 112 88
f 89 113 112
f 90 113 89
f 90 114 113
f 91 114 90
f 92 114 91
f 92 115 114
f 92 116 115
f 93 116 92
f 94 116 93
f 94 117 116
f 95 117 94
f 95 118 117
f 96 118 95
f 96 119 118
f 97 119 96
f 97 770 119
f 122 140 139
f 123 140 122
f 124 141 140
f 124 142 141
f 124 140 123
f 125 143 142
f 125 142 124
f 126 144 143
f 126 143 125
f 127 144 126
f 128 144 127
f 129 145 144
f 129 144 128
f 130 146 145
f 130 145 129
f 131 147 146
f 131 146 130
f 132 147 131
f 132 148 147
f 132 149 148
f 133 149 132
f 134 149 133
f 134 150 149
f 135 150 134
f 135 151 150
f 136 151 135
f 137 151 136
f 137 152 151
f 137 153 152
f 137 120 153
f 138 120 137
f 121 120 138
f 166 168 167
f 166 178 179
f 166 179 168
f 165 177 178
f 165 178 166
f 164 176 177
f 164 177 165
f 163 175 176
f 163 176 164
f 162 174 175
f 162 175 163
f 161 173 174
f 161 174 162
f 160 172 173
f 160 173 161
f 159 171 172
f 159 172 160
f 158 170 171
f 158 171 159
f 157 169 170
f 157 170 158
f 156 155 169
f 156 169 157
f 154 155 156
f 183 180 184
f 183 184 182
f 181 180 183
f 185 210 209
f 186 210 185
f 187 211 210
f 187 210 186
f 188 212 211
f 188 211 187
f 189 213 212
f 189 212 188
f 190 214 213
f 190 213 189
f 191 215 214
f 191 216 215
f 191 214 190
f 192 216 191
f 193 217 216
f 193 218 217
f 193 216 192
f 194 219 218
f 194 218 193
f 195 220 219
f 195 219 194
f 196 220 195
f 197 220 196
f 197 221 220
f 198 221 197
f 198 222 221
f 198 223 222
f 199 223 198
f 200 223 199
f 200 224 223
f 201 224 200
f 201 225 224
f 201 226 225
f 202 226 201
f 203 226 202
f 203 227 226
f 204 227 203
f 204 228 227
f 204 229 228
f 205 229 204
f 205 230 229
f 206 230 205
f 206 231 230
f 207 231 206
f 207 232 231
f 208 232 207
f 185 180 181
f 185 209 180
f 233 256 255
f 234 256 233
f 235 257 256
f 235 256 234
f 236 258 257
f 236 257 235
f 237 259 258
f 237 258 236
f 238 260 259
f 238 259 237
f 239 261 260
f 239 260 238
f 240 262 261
f 240 261 239
f 241 263 262
f 241 262 240
f 242 264 263
f 242 263 241
f 243 265 264
f 243 266 265
f 243 264 242
f 244 266 243
f 245 267 266
f 245 266 244
f 246 267 245
f 246 268 267
f 246 269 268
f 247 269 246
f 248 269 247
f 248 270 269
f 248 271 270
f 249 271 248
f 250 271 249
f 250 272 271
f 251 272 250
f 251 273 272
f 252 273 251
f 252 274 273
f 252 275 274
f 253 275 252
f 254 275 253
f 254 276 275
f 182 276 254
f 182 184 276
f 277 279 280
f 277 280 278
f 280 279 281
f 297 281 282
f 297 280 281
f 298 282 283
f 298 297 282
f 299 283 284
f 299 298 283
f 296 294 295
f 300 284 285
f 300 299 284
f 301 285 286
f 301 300 285
f 309 292 293
f 309 293 294
f 309 294 296
f 302 286 287
f 302 301 286
f 308 292 309
f 303 287 288
f 303 302 287
f 307 291 292
f 307 292 308
f 304 288 289
f 304 303 288
f 306 290 291
f 306 291 307
f 305 289 290
f 305 290 306
f 305 304 289
f 296 310 311
f 295 310 296
f 322 311 310
f 322 333 311
f 321 332 333
f 321 333 322
f 320 331 332
f 320 332 321
f 319 330 331
f 319 331 320
f 318 329 330
f 318 330 319
f 317 328 329
f 317 329 318
f 316 327 328
f 316 328 317
f 315 326 327
f 315 327 316
f 314 325 326
f 314 326 315
f 313 324 325
f 313 325 314
f 312 168 323
f 312 323 324
f 312 324 313
f 167 168 312
f 154 334 335
f 154 335 155
f 341 358 357
f 340 357 356
f 340 341 357
f 342 359 358
f 342 358 341
f 339 356 355
f 339 340 356
f 343 360 359
f 343 359 342
f 338 355 354
f 338 339 355
f 344 361 360
f 344 360 343
f 337 354 353
f 337 338 354
f 345 362 361
f 345 361 344
f 336 353 352
f 336 337 353
f 346 363 362
f 346 362 345
f 334 352 335
f 334 336 352
f 347 364 363
f 347 363 346
f 348 365 364
f 348 364 347
f 349 351 365
f 349 365 348
f 350 351 349
f 350 366 367
f 350 367 351
f 386 369 368
f 386 368 370
f 387 370 371
f 387 386 370
f 388 371 372
f 388 387 371
f 385 383 384
f 389 372 373
f 389 388 372
f 399 383 385
f 390 373 374
f 390 389 373
f 398 381 382
f 398 382 383
f 398 383 399
f 391 374 375
f 391 390 374
f 397 381 398
f 392 375 376
f 392 391 375
f 396 380 381
f 396 381 397
f 393 376 377
f 393 392 376
f 395 379 380
f 395 380 396
f 394 377 378
f 394 378 379
f 394 393 377
f 394 379 395
f 401 400 385
f 401 385 384
f 412 413 414
f 412 414 425
f 411 425 424
f 411 412 425
f 410 424 423
f 410 411 424
f 409 423 422
f 409 410 423
f 408 422 421
f 408 409 422
f 407 421 420
f 407 408 421
f 406 420 419
f 406 407 420
f 405 419 418
f 405 406 419
f 404 418 417
f 404 405 418
f 403 417 416
f 403 404 417
f 402 416 415
f 402 403 416
f 401 415 400
f 401 402 415
f 426 414 413
f 427 426 413
f 439 440 451
f 438 451 450
f 438 439 451
f 437 450 449
f 437 438 450
f 436 449 448
f 436 437 449
f 435 448 447
f 435 436 448
f 434 447 446
f 434 435 447
f 433 446 445
f 433 434 446
f 432 445 444
f 432 433 445
f 431 444 443
f 431 432 444
f 430 443 442
f 430 431 443
f 429 442 441
f 429 430 442
f 428 429 441
f 427 441 426
f 427 428 441
f 452 440 439
f 453 452 439
f 454 452 453
f 454 470 452
f 455 471 470
f 455 470 454
f 456 472 471
f 456 473 472
f 456 471 455
f 457 474 473
f 457 473 456
f 458 474 457
f 475 458 459
f 475 474 458
f 476 459 460
f 476 475 459
f 477 460 461
f 477 476 460
f 478 461 462
f 478 477 461
f 479 462 463
f 479 478 462
f 480 463 464
f 480 479 463
f 481 464 465
f 481 480 464
f 482 465 466
f 482 481 465
f 469 466 467
f 469 482 466
f 469 467 468
f 483 469 468
f 484 483 468
f 483 484 499
f 518 485 483
f 518 486 485
f 518 499 500
f 518 500 501
f 518 501 502
f 518 502 503
f 518 483 499
f 519 518 503
f 519 503 504
f 519 504 505
f 519 486 518
f 520 487 486
f 520 486 519
f 520 519 505
f 521 505 506
f 521 520 505
f 521 487 520
f 521 488 487
f 521 506 507
f 522 507 508
f 522 488 521
f 522 521 507
f 523 489 488
f 523 508 509
f 523 488 522
f 523 522 508
f 524 523 509
f 524 490 489
f 524 489 523
f 525 524 509
f 525 491 490
f 525 492 491
f 525 493 492
f 525 494 493
f 525 495 494
f 525 496 495
f 525 497 496
f 525 498 497
f 525 509 510
f 525 510 511
f 525 511 512
f 525 512 513
f 525 513 514
f 525 514 515
f 525 515 516
f 525 516 517
f 525 517 498
f 525 490 524
f 527 529 528
f 527 528 526
f 497 498 529
f 497 529 527
f 526 531 530
f 526 528 531
f 530 531 532
f 556 532 533
f 556 530 532
f 557 533 534
f 557 556 533
f 558 534 535
f 558 557 534
f 559 535 536
f 559 558 535
f 560 536 537
f 560 559 536
f 561 537 538
f 561 560 537
f 562 538 539
f 562 561 538
f 563 539 540
f 563 562 539
f 564 540 541
f 564 563 540
f 565 541 542
f 565 564 541
f 566 542 543
f 566 565 542
f 567 566 543
f 567 543 544
f 568 567 544
f 568 544 545
f 569 568 545
f 569 545 546
f 570 569 546
f 570 546 547
f 571 547 548
f 571 570 547
f 572 548 549
f 572 571 548
f 573 572 549
f 574 549 550
f 574 550 551
f 574 573 549
f 575 574 551
f 576 551 552
f 576 575 551
f 577 552 553
f 577 576 552
f 555 553 554
f 555 577 553
f 579 555 554
f 579 554 578
f 591 580 579
f 591 578 586
f 591 579 578
f 592 586 587
f 592 580 591
f 592 591 586
f 593 581 580
f 593 587 588
f 593 580 592
f 593 592 587
f 594 582 581
f 594 588 589
f 594 593 588
f 594 581 593
f 595 583 582
f 595 589 590
f 595 582 594
f 595 594 589
f 596 584 583
f 596 585 584
f 596 590 585
f 596 583 595
f 596 595 590
f 615 597 584
f 615 585 604
f 615 604 605
f 615 584 585
f 616 598 597
f 616 605 606
f 616 615 605
f 616 597 615
f 617 606 607
f 617 598 616
f 617 616 606
f 618 599 598
f 618 607 608
f 618 598 617
f 618 617 607
f 618 608 609
f 619 600 599
f 619 601 600
f 619 602 601
f 619 603 602
f 619 609 610
f 619 610 611
f 619 611 612
f 619 612 613
f 619 613 614
f 619 614 603
f 619 618 609
f 619 599 618
f 603 620 621
f 603 621 602
f 630 628 629
f 637 627 628
f 637 628 630
f 636 626 627
f 636 627 637
f 635 625 626
f 635 626 636
f 634 624 625
f 634 625 635
f 633 623 624
f 633 624 634
f 631 621 620
f 631 620 622
f 632 622 623
f 632 623 633
f 632 631 622
f 638 630 629
f 639 630 638
f 639 638 640
f 653 640 641
f 653 639 640
f 654 641 642
f 654 653 641
f 655 642 643
f 655 654 642
f 656 643 644
f 656 655 643
f 657 644 645
f 657 656 644
f 658 645 646
f 658 657 645
f 659 646 647
f 659 658 646
f 660 659 647
f 661 647 648
f 661 660 647
f 662 648 649
f 662 649 650
f 662 661 648
f 663 662 650
f 652 650 651
f 652 663 650
f 665 652 651
f 665 651 664
f 679 665 664
f 679 664 666
f 680 666 667
f 680 667 668
f 680 679 666
f 681 668 669
f 681 680 668
f 682 669 670
f 682 681 669
f 683 670 671
f 683 682 670
f 684 671 672
f 684 683 671
f 685 672 673
f 685 684 672
f 686 673 674
f 686 685 673
f 687 674 675
f 687 686 674
f 688 675 676
f 688 687 675
f 689 676 677
f 689 688 676
f 678 689 677
f 691 678 677
f 691 677 690
f 692 691 690
f 692 701 691
f 693 702 701
f 693 701 692
f 694 703 702
f 694 702 693
f 695 704 703
f 695 703 694
f 696 705 704
f 696 704 695
f 706 705 696
f 697 706 696
f 707 697 698
f 707 698 699
f 707 706 697
f 700 707 699
f 708 120 121
f 708 730 120
f 709 731 730
f 709 730 708
f 710 732 731
f 710 731 709
f 711 733 732
f 711 732 710
f 712 734 733
f 712 733 711
f 713 735 734
f 713 734 712
f 714 736 735
f 714 735 713
f 715 737 736
f 715 736 714
f 716 738 737
f 716 737 715
f 717 739 738
f 717 738 716
f 718 740 739
f 718 739 717
f 719 740 718
f 719 741 740
f 720 741 719
f 720 742 741
f 721 742 720
f 721 743 742
f 722 743 721
f 722 744 743
f 723 744 722
f 723 745 744
f 724 745 723
f 724 746 745
f 725 746 724
f 725 747 746
f 726 747 725
f 726 748 747
f 727 748 726
f 727 749 748
f 728 749 727
f 728 750 749
f 729 750 728
f 729 751 750
f 122 751 729
f 122 139 751
f 752 770 97
f 753 771 770
f 753 770 752
f 754 771 753
f 755 772 771
f 755 771 754
f 756 772 755
f 757 773 772
f 757 772 756
f 758 773 757
f 759 774 773
f 759 773 758
f 760 774 759
f 761 775 774
f 761 774 760
f 762 775 761
f 763 775 762
f 763 776 775
f 763 777 776
f 764 777 763
f 765 777 764
f 765 778 777
f 765 779 778
f 766 779 765
f 767 779 766
f 767 780 779
f 767 781 780
f 768 781 767
f 769 781 768
f 769 782 781
f 769 98 782
f 75 98 769
f 366 804 367
f 826 803 804
f 826 804 366
f 825 802 803
f 825 803 826
f 824 801 802
f 824 802 825
f 823 800 801
f 823 801 824
f 822 799 800
f 822 800 823
f 821 799 822
f 820 797 798
f 820 798 799
f 820 799 821
f 819 796 797
f 819 797 820
f 818 796 819
f 817 794 795
f 817 795 796
f 817 796 818
f 816 794 817
f 815 794 816
f 815 792 793
f 815 793 794
f 814 792 815
f 814 791 792
f 813 791 814
f 812 789 790
f 812 790 791
f 812 791 813
f 811 788 789
f 811 789 812
f 810 787 788
f 810 788 811
f 809 786 787
f 809 787 810
f 808 785 786
f 808 786 809
f 807 785 808
f 806 783 784
f 806 784 785
f 806 785 807
f 805 278 783
f 805 783 806
f 277 278 805
f 233 232 208
f 233 255 232
f 827 38 39
f 827 844 38
f 828 845 844
f 828 844 827
f 829 846 845
f 829 845 828
f 830 847 846
f 830 846 829
f 831 848 847
f 831 847 830
f 832 849 848
f 832 850 849
f 832 848 831
f 833 851 850
f 833 850 832
f 834 851 833
f 835 851 834
f 835 852 851
f 836 853 852
f 836 852 835
f 837 853 836
f 838 853 837
f 838 854 853
f 838 855 854
f 839 855 838
f 840 855 839
f 840 856 855
f 840 857 856
f 841 857 840
f 842 857 841
f 842 858 857
f 842 859 858
f 843 859 842
f 40 859 843
f 40 58 859
f 860 875 18
f 860 876 875
f 861 876 860
f 861 877 876
f 862 877 861
f 862 878 877
f 863 879 878
f 863 878 862
f 864 879 863
f 864 880 879
f 865 881 880
f 865 880 864
f 866 881 865
f 867 881 866
f 867 882 881
f 867 883 882
f 868 883 867
f 868 884 883
f 869 884 868
f 869 885 884
f 870 885 869
f 870 886 885
f 871 886 870
f 871 887 886
f 872 887 871
f 872 888 887
f 873 888 872
f 873 889 888
f 874 889 873
f 874 890 889
f 1 890 874
f 1 19 890
f 368 700 699
f 368 369 700
f 707 700 621
f 707 621 631
f 707 631 632
f 706 707 632
f 705 632 633
f 705 633 634
f 705 706 632
f 704 705 634
f 703 634 635
f 703 635 636
f 703 704 634
f 702 636 637
f 702 703 636
f 701 702 637
f 691 637 630
f 691 701 637
f 657 658 659
f 655 656 657
f 663 659 660
f 663 660 661
f 663 661 662
f 663 657 659
f 639 653 654
f 639 654 655
f 652 655 657
f 652 657 663
f 652 639 655
f 44 43 652
f 42 652 43
f 45 44 652
f 41 652 42
f 46 45 652
f 40 639 652
f 40 652 41
f 47 46 652
f 843 639 40
f 48 47 652
f 842 639 843
f 841 639 842
f 840 639 841
f 630 835 834
f 630 836 835
f 630 837 836
f 630 838 837
f 630 839 838
f 630 840 839
f 630 639 840
f 7 52 51
f 6 53 52
f 6 52 7
f 8 7 51
f 5 53 6
f 5 54 53
f 9 8 51
f 9 50 49
f 9 51 50
f 4 54 5
f 4 55 54
f 10 49 48
f 10 9 49
f 3 56 55
f 3 55 4
f 11 10 48
f 11 48 652
f 2 56 3
f 2 57 56
f 1 827 39
f 1 57 2
f 1 39 57
f 874 827 1
f 874 828 827
f 873 828 874
f 872 829 828
f 872 830 829
f 872 828 873
f 871 830 872
f 870 830 871
f 870 831 830
f 869 832 831
f 869 831 870
f 868 833 832
f 868 834 833
f 868 832 869
f 867 834 868
f 665 12 11
f 665 13 12
f 665 14 13
f 665 15 14
f 665 16 15
f 665 17 16
f 665 18 17
f 665 11 652
f 682 680 681
f 683 665 679
f 683 679 680
f 683 680 682
f 684 665 683
f 687 684 685
f 687 685 686
f 687 665 684
f 678 18 665
f 678 687 688
f 678 688 689
f 678 665 687
f 678 860 18
f 678 861 860
f 678 862 861
f 691 630 834
f 691 862 678
f 691 863 862
f 691 864 863
f 691 865 864
f 691 866 865
f 691 867 866
f 691 834 867
f 579 496 497
f 580 495 496
f 580 496 579
f 581 493 494
f 581 494 495
f 581 495 580
f 582 491 492
f 582 492 493
f 582 493 581
f 583 490 491
f 583 491 582
f 584 488 489
f 584 489 490
f 584 490 583
f 597 487 488
f 597 488 584
f 598 486 487
f 598 487 597
f 599 485 486
f 599 486 598
f 600 485 599
f 601 483 485
f 601 485 600
f 602 483 601
f 250 249 526
f 248 527 526
f 248 526 249
f 251 250 526
f 247 497 527
f 247 527 248
f 252 251 526
f 246 497 247
f 253 252 526
f 245 497 246
f 254 253 526
f 244 497 245
f 244 579 497
f 182 254 526
f 243 579 244
f 242 579 243
f 241 579 242
f 240 579 241
f 530 182 526
f 530 183 182
f 530 181 183
f 239 579 240
f 238 579 239
f 237 579 238
f 236 579 237
f 235 579 236
f 185 530 556
f 185 556 557
f 185 181 530
f 234 579 235
f 186 557 558
f 186 185 557
f 187 186 558
f 187 558 559
f 188 559 560
f 188 187 559
f 189 188 560
f 561 189 560
f 190 189 561
f 562 190 561
f 191 190 562
f 563 192 191
f 563 191 562
f 564 193 192
f 564 192 563
f 565 193 564
f 566 194 193
f 566 193 565
f 555 233 208
f 555 207 206
f 555 208 207
f 567 194 566
f 567 195 194
f 577 555 206
f 577 206 205
f 568 196 195
f 568 195 567
f 576 577 205
f 576 205 204
f 569 196 568
f 569 197 196
f 575 576 204
f 575 204 203
f 570 198 197
f 570 197 569
f 574 575 203
f 574 203 202
f 571 199 198
f 571 198 570
f 573 574 202
f 573 202 201
f 572 199 571
f 572 573 201
f 572 200 199
f 572 201 200
f 555 579 233
f 233 579 234
f 351 369 386
f 365 386 387
f 365 351 386
f 364 387 388
f 364 365 387
f 363 388 389
f 363 364 388
f 362 389 390
f 362 363 389
f 361 390 391
f 361 362 390
f 360 391 392
f 360 361 391
f 359 392 393
f 359 360 392
f 358 393 394
f 358 359 393
f 357 394 395
f 357 358 394
f 356 395 396
f 356 357 395
f 355 396 397
f 355 356 396
f 354 397 398
f 354 355 397
f 353 398 399
f 353 354 398
f 352 353 399
f 335 399 385
f 335 352 399
f 469 280 297
f 469 297 298
f 482 298 299
f 482 469 298
f 481 299 300
f 481 482 299
f 480 300 301
f 480 481 300
f 479 301 302
f 479 480 301
f 478 302 303
f 478 479 302
f 477 303 304
f 477 478 303
f 476 304 305
f 476 477 304
f 475 305 306
f 475 476 305
f 474 306 307
f 474 475 306
f 473 474 307
f 472 307 308
f 472 308 309
f 472 473 307
f 471 472 309
f 470 309 296
f 470 471 309
f 452 470 296
f 311 452 296
f 333 452 311
f 332 452 333
f 331 452 332
f 330 452 331
f 329 452 330
f 328 452 329
f 440 328 327
f 440 452 328
f 385 155 335
f 385 169 155
f 385 170 169
f 385 171 170
f 385 172 171
f 385 173 172
f 449 450 451
f 447 449 451
f 447 448 449
f 447 451 440
f 445 447 440
f 445 446 447
f 444 445 440
f 441 442 443
f 144 440 327
f 145 440 144
f 426 444 440
f 426 441 443
f 426 443 444
f 143 327 326
f 143 144 327
f 142 326 325
f 142 143 326
f 146 440 145
f 141 142 325
f 141 325 324
f 140 324 323
f 140 141 324
f 147 440 146
f 139 323 168
f 139 140 323
f 751 168 179
f 751 139 168
f 148 426 440
f 148 440 147
f 750 179 178
f 750 751 179
f 149 426 148
f 749 178 177
f 749 750 178
f 748 749 177
f 150 426 149
f 151 426 150
f 152 426 151
f 153 426 152
f 120 426 153
f 730 426 120
f 731 426 730
f 104 745 746
f 103 104 746
f 103 746 747
f 105 745 104
f 102 177 176
f 102 103 747
f 102 748 177
f 102 747 748
f 106 745 105
f 106 744 745
f 101 102 176
f 101 176 175
f 107 744 106
f 107 742 743
f 107 743 744
f 100 175 174
f 100 101 175
f 108 742 107
f 99 174 173
f 99 100 174
f 109 742 108
f 109 740 741
f 109 741 742
f 98 99 173
f 98 173 385
f 110 740 109
f 111 740 110
f 111 739 740
f 782 98 385
f 112 739 111
f 112 737 738
f 112 738 739
f 781 782 385
f 113 737 112
f 114 737 113
f 114 736 737
f 780 781 385
f 115 736 114
f 115 735 736
f 116 735 115
f 116 733 734
f 116 734 735
f 117 733 116
f 118 733 117
f 118 731 732
f 118 732 733
f 119 731 118
f 414 426 731
f 414 119 770
f 414 770 771
f 414 771 772
f 414 772 773
f 414 773 774
f 414 774 775
f 414 731 119
f 400 775 776
f 400 776 777
f 400 777 778
f 400 778 779
f 400 779 780
f 400 780 385
f 400 414 775
f 416 400 415
f 418 416 417
f 418 400 416
f 422 423 424
f 422 424 425
f 422 425 414
f 419 400 418
f 421 422 414
f 420 414 400
f 420 421 414
f 420 400 419
f 787 602 788
f 789 788 602
f 786 602 787
f 790 602 621
f 790 789 602
f 785 602 786
f 791 790 621
f 784 602 785
f 792 791 621
f 783 602 784
f 793 792 621
f 278 602 783
f 794 793 621
f 795 794 621
f 483 602 278
f 700 796 795
f 700 797 796
f 700 798 797
f 700 799 798
f 700 800 799
f 700 801 800
f 700 802 801
f 700 803 802
f 700 804 803
f 700 367 804
f 700 795 621
f 280 469 483
f 369 351 367
f 369 367 700
f 280 483 278
f 698 620 699
f 698 622 620
f 697 623 622
f 697 622 698
f 696 624 623
f 696 623 697
f 695 625 624
f 695 624 696
f 694 626 625
f 694 625 695
f 693 627 626
f 693 626 694
f 692 628 627
f 692 629 628
f 692 627 693
f 690 629 692
f 643 645 644
f 648 646 645
f 648 647 646
f 641 643 642
f 640 643 641
f 640 645 643
f 651 640 638
f 651 649 648
f 651 650 649
f 651 648 645
f 651 645 640
f 62 651 61
f 60 61 651
f 63 651 62
f 59 60 651
f 59 651 638
f 64 651 63
f 58 59 638
f 859 58 638
f 65 651 64
f 858 859 638
f 857 858 638
f 629 851 852
f 629 852 853
f 629 853 854
f 629 854 855
f 629 855 856
f 629 856 857
f 629 857 638
f 25 68 69
f 24 25 69
f 24 69 70
f 24 70 71
f 26 68 25
f 23 24 71
f 27 68 26
f 27 66 67
f 27 67 68
f 22 23 71
f 22 71 72
f 22 72 73
f 28 66 27
f 21 22 73
f 29 66 28
f 29 65 66
f 29 651 65
f 20 73 74
f 20 21 73
f 19 20 74
f 19 74 38
f 890 38 844
f 890 844 845
f 890 19 38
f 889 890 845
f 888 845 846
f 888 846 847
f 888 889 845
f 887 888 847
f 886 847 848
f 886 848 849
f 886 887 847
f 885 886 849
f 884 849 850
f 884 885 849
f 883 850 851
f 883 884 850
f 664 651 29
f 664 29 30
f 664 30 31
f 664 31 32
f 664 32 33
f 664 33 34
f 664 34 35
f 664 35 36
f 664 36 37
f 667 666 664
f 668 667 664
f 671 670 669
f 672 669 668
f 672 668 664
f 672 671 669
f 674 673 672
f 676 675 674
f 676 674 672
f 677 876 877
f 677 664 37
f 677 672 664
f 677 676 672
f 677 37 875
f 677 875 876
f 690 877 878
f 690 878 879
f 690 879 880
f 690 851 629
f 690 880 881
f 690 881 882
f 690 882 883
f 690 677 877
f 690 883 851
f 578 498 517
f 586 516 515
f 586 517 516
f 586 578 517
f 587 515 514
f 587 586 515
f 588 514 513
f 588 587 514
f 589 512 511
f 589 513 512
f 589 588 513
f 590 511 510
f 590 589 511
f 585 509 508
f 585 510 509
f 585 590 510
f 604 508 507
f 604 585 508
f 605 507 506
f 605 604 507
f 606 506 505
f 606 605 506
f 607 505 504
f 607 606 505
f 608 504 503
f 608 607 504
f 609 608 503
f 609 503 502
f 610 609 502
f 610 502 501
f 611 610 501
f 611 501 500
f 612 611 500
f 612 500 499
f 613 612 499
f 613 499 484
f 614 613 484
f 603 614 484
f 272 528 271
f 270 528 529
f 270 271 528
f 273 528 272
f 269 529 498
f 269 270 529
f 274 528 273
f 268 269 498
f 275 528 274
f 267 268 498
f 276 528 275
f 266 498 578
f 266 267 498
f 184 528 276
f 265 266 578
f 264 265 578
f 263 264 578
f 262 263 578
f 531 528 184
f 531 184 180
f 261 262 578
f 260 261 578
f 259 260 578
f 258 259 578
f 257 258 578
f 209 532 531
f 209 533 532
f 209 531 180
f 256 257 578
f 210 534 533
f 210 533 209
f 211 535 534
f 211 534 210
f 212 536 535
f 212 535 211
f 213 536 212
f 537 536 213
f 214 537 213
f 538 537 214
f 215 538 214
f 539 215 216
f 539 538 215
f 540 216 217
f 540 539 216
f 541 540 217
f 542 217 218
f 542 541 217
f 554 232 255
f 554 230 231
f 554 231 232
f 543 542 218
f 543 218 219
f 553 230 554
f 553 229 230
f 544 543 219
f 544 219 220
f 552 229 553
f 552 228 229
f 545 544 220
f 545 220 221
f 551 228 552
f 551 227 228
f 546 545 221
f 546 221 222
f 550 227 551
f 550 226 227
f 547 222 223
f 547 546 222
f 549 226 550
f 549 225 226
f 548 547 223
f 548 225 549
f 548 223 224
f 548 224 225
f 554 255 578
f 255 256 578
f 349 368 350
f 349 370 368
f 348 371 370
f 348 370 349
f 347 372 371
f 347 371 348
f 346 373 372
f 346 372 347
f 345 374 373
f 345 373 346
f 344 375 374
f 344 374 345
f 343 376 375
f 343 375 344
f 342 377 376
f 342 376 343
f 341 378 377
f 341 377 342
f 340 379 378
f 340 378 341
f 339 380 379
f 339 379 340
f 338 381 380
f 338 380 339
f 337 382 381
f 337 381 338
f 336 383 382
f 336 382 337
f 334 384 383
f 334 383 336
f 467 279 468
f 467 281 279
f 466 282 281
f 466 281 467
f 465 283 282
f 465 282 466
f 464 284 283
f 464 283 465
f 463 285 284
f 463 284 464
f 462 286 285
f 462 285 463
f 461 287 286
f 461 286 462
f 460 288 287
f 460 287 461
f 459 289 288
f 459 288 460
f 458 290 289
f 458 289 459
f 457 291 290
f 457 290 458
f 456 292 291
f 456 291 457
f 455 293 292
f 455 292 456
f 454 294 293
f 454 293 455
f 453 295 294
f 453 294 454
f 310 295 453
f 322 310 453
f 321 322 453
f 320 321 453
f 319 320 453
f 318 319 453
f 317 318 453
f 439 316 317
f 439 317 453
f 384 334 154
f 384 154 156
f 384 156 157
f 384 157 158
f 384 158 159
f 384 159 160
f 437 439 438
f 436 439 437
f 434 439 436
f 434 436 435
f 433 439 434
f 430 439 433
f 430 432 431
f 430 433 432
f 127 316 439
f 127 439 128
f 129 128 439
f 427 439 430
f 427 429 428
f 427 430 429
f 126 315 316
f 126 316 127
f 130 129 439
f 125 315 126
f 125 314 315
f 124 313 314
f 124 314 125
f 131 130 439
f 123 312 313
f 123 313 124
f 122 167 312
f 122 312 123
f 132 131 439
f 729 166 167
f 729 167 122
f 132 439 427
f 728 165 166
f 728 166 729
f 133 132 427
f 727 164 165
f 727 165 728
f 134 133 427
f 726 164 727
f 135 134 427
f 136 135 427
f 137 136 427
f 138 137 427
f 121 138 427
f 708 121 427
f 709 708 427
f 80 724 81
f 80 725 724
f 80 726 725
f 82 81 724
f 82 724 723
f 79 163 164
f 79 726 80
f 79 164 726
f 83 82 723
f 83 723 722
f 78 163 79
f 78 162 163
f 84 83 722
f 84 721 720
f 84 722 721
f 77 162 78
f 77 161 162
f 85 84 720
f 85 720 719
f 76 161 77
f 76 160 161
f 86 85 719
f 75 384 160
f 75 160 76
f 87 719 718
f 87 86 719
f 769 384 75
f 88 87 718
f 88 718 717
f 89 88 717
f 89 716 715
f 89 717 716
f 768 384 769
f 90 89 715
f 767 384 768
f 91 90 715
f 91 715 714
f 92 714 713
f 92 91 714
f 93 713 712
f 93 92 713
f 94 712 711
f 94 93 712
f 95 710 709
f 95 711 710
f 95 94 711
f 96 95 709
f 413 752 97
f 413 753 752
f 413 754 753
f 413 755 754
f 413 756 755
f 413 757 756
f 413 709 427
f 413 758 757
f 413 759 758
f 413 760 759
f 413 761 760
f 413 97 96
f 413 96 709
f 401 762 761
f 401 763 762
f 401 764 763
f 401 765 764
f 401 766 765
f 401 767 766
f 401 384 767
f 401 761 413
f 402 401 413
f 411 413 412
f 409 411 410
f 409 413 411
f 406 403 402
f 406 404 403
f 406 405 404
f 406 402 413
f 406 413 409
f 407 409 408
f 407 406 409
f 809 810 603
f 811 603 810
f 808 809 603
f 812 620 603
f 812 603 811
f 807 808 603
f 813 620 812
f 806 807 603
f 814 620 813
f 805 806 603
f 815 620 814
f 277 805 603
f 816 620 815
f 817 620 816
f 484 277 603
f 699 817 818
f 699 818 819
f 699 819 820
f 699 820 821
f 699 821 822
f 699 822 823
f 699 823 824
f 699 824 825
f 699 825 826
f 699 826 366
f 699 620 817
f 279 484 468
f 368 366 350
f 368 699 366
f 279 277 484

