# https://github.com/mikedh/trimesh
v -120.60596286 3.75000000 -2.36331946
v -122.53652535 3.75000000 0.83727107
v -120.55691039 1.75000000 -2.40875419
v -122.48972390 1.75000000 0.17030177
v -119.52363491 1.75000000 2.58446722
v -91.38028326 3.75000000 -2.05111288
v -92.07555132 3.75000000 1.61198053
v -90.85692652 1.75000000 -2.25286573
v -92.48972390 1.75000000 0.17030177
v -90.49232013 1.75000000 2.36917461
v 0.42356602 3.75000000 117.36265749
v -2.38009184 3.75000000 119.61935598
v -0.59272711 3.75000000 122.56028692
v -1.83672154 1.75000000 118.12041267
v -1.74568929 1.75000000 121.70441743
v 1.13226040 1.75000000 122.18516339
v 1.51450416 1.75000000 92.04622599
v -2.53519126 3.75000000 90.34845402
v -1.83672154 1.75000000 88.12041267
v -1.74568929 1.75000000 91.70441743
v 120.00000000 3.75000000 -2.57224535
v 117.46347465 3.75000000 0.83727107
v 119.14307348 1.75000000 -2.25286573
v 117.51027610 1.75000000 0.17030177
v 119.50767987 1.75000000 2.36917461
v 89.39403714 3.75000000 -2.36331946
v 87.46347465 3.75000000 0.83727107
v 89.14307348 1.75000000 -2.25286573
v 87.51027610 1.75000000 0.17030177
v 89.50767987 1.75000000 2.36917461
v -0.60596286 3.75000000 -122.36331946
v -2.38009184 3.75000000 -120.38064402
v -0.59272711 3.75000000 -117.43971308
v -1.83672154 1.75000000 -121.87958733
v -1.74568929 1.75000000 -118.29558257
v 1.94148723 1.75000000 -118.18677751
v -62.53519126 3.75000000 0.34845402
v -62.48972390 1.75000000 0.17030177
v -60.49232013 1.75000000 2.36917461
v -0.60596286 3.75000000 57.63668054
v -2.53652535 3.75000000 60.83727107
v -2.49600304 1.75000000 60.95128994
v 0.69294155 1.75000000 62.28123309
v 57.46347465 3.75000000 0.83727107
v 59.44308961 1.75000000 -2.40875419
v 57.51027610 1.75000000 0.17030177
v 59.50767987 1.75000000 2.36917461
v -2.38009184 3.75000000 -90.38064402
v -0.59272711 3.75000000 -87.43971308
v -1.83672154 1.75000000 -91.87958733
v -1.15598109 1.75000000 -87.63989359
v -0.60596286 3.75000000 -2.36331946
v -2.53652535 3.75000000 0.83727107
v -2.48972390 1.75000000 0.17030177
v -0.00000000 1.75000000 2.52018757
v -0.60596286 3.75000000 -62.36331946
v -2.53519126 3.75000000 -59.65154598
v -0.55691039 1.75000000 -62.40875419
v -2.48972390 1.75000000 -59.82969823
v 0.47636509 1.75000000 -57.41553278
v 0.00000000 -1.00000000 -10.40685425
v 2.80773567 -1.00000000 -10.02093986
v 5.40723444 -1.00000000 -8.89181821
v 6.56764026 -1.00000000 -8.07271434
v 7.60570336 -1.00000000 -7.10323108
v 8.50208660 -1.00000000 -6.00142806
v 9.24009206 -1.00000000 -4.78782979
v 9.80597208 -1.00000000 -3.48504331
v 10.18918540 -1.00000000 -2.11733707
v 7.75675411 -0.39256101 -0.88916008
v 10.38259347 -1.00000000 0.71018885
v 10.18918540 -1.00000000 2.11733707
v 9.80597208 -1.00000000 3.48504331
v 9.24009206 -1.00000000 4.78782979
v 8.50208660 -1.00000000 6.00142806
v 7.60570336 -1.00000000 7.10323108
v 6.56764026 -1.00000000 8.07271434
v 5.40723444 -1.00000000 8.89181821
v 4.14610207 -1.00000000 9.54528433
v 2.80773567 -1.00000000 10.02093986
v 0.00000000 -1.00000000 10.40685425
v 2.19987676 -0.63075009 7.79370812
v 4.86764529 1.66078003 1.99337444
v 1.61086579 1.58067670 -5.14559950
v 1.73810467 -0.86819159 -9.03086653
v 5.15746051 -0.66887399 -6.56910534
v 5.73532150 -0.57464519 5.91601927
v -2.70057194 1.70582054 4.39079785
v -2.44294694 1.68662197 -4.61031067
v -5.02794999 1.63767843 -1.56427168
v -4.87141122 1.65904779 1.80234266
v 1.94978526 1.69037552 4.86806570
v -94.46054655 1.71906838 2.91347097
v -92.29881923 1.73986562 -4.61945222
v -95.02248120 1.57176968 -2.03208871
v -81.08633178 -0.78408921 0.32377939
v -88.03299190 0.13611950 7.05254518
v -91.86486016 -0.70521491 -8.41378342
v -87.51057946 0.96351643 -5.66102983
v -86.14865536 -0.92326612 -8.86682919
v -85.67109869 -0.89921784 8.84227954
v -63.59877196 1.69963166 -3.68165079
v -65.19489567 1.64289679 1.21406869
v -60.00000000 -1.00000000 -10.40685425
v -58.58293353 -1.00000000 -10.30992425
v -57.19226433 -1.00000000 -10.02093986
v -55.85389793 -1.00000000 -9.54528433
v -54.59276556 -1.00000000 -8.89181821
v -53.43235974 -1.00000000 -8.07271434
v -53.48940189 -0.82768616 -6.74594667
v -51.49791340 -1.00000000 -6.00142806
v -50.75990794 -1.00000000 -4.78782979
v -50.19402792 -1.00000000 -3.48504331
v -49.81081460 -1.00000000 -2.11733707
v -49.61740653 -1.00000000 -0.71018885
v -49.61740653 -1.00000000 0.71018885
v -49.81081460 -1.00000000 2.11733707
v -50.19402792 -1.00000000 3.48504331
v -53.72509026 -0.52440731 4.94934970
v -51.49791340 -1.00000000 6.00142806
v -52.39429664 -1.00000000 7.10323108
v -53.43235974 -1.00000000 8.07271434
v -54.59276556 -1.00000000 8.89181821
v -55.85389793 -1.00000000 9.54528433
v -57.19226433 -1.00000000 10.02093986
v -58.58293353 -1.00000000 10.30992425
v -60.00000000 -1.00000000 10.40685425
v -59.82631511 -0.47784295 8.16145357
v -57.05014864 1.70631487 4.28318304
v -56.64297049 1.66765180 -4.01753105
v -60.30965589 1.64742271 -5.27402622
v -59.99258064 -0.57764007 -8.19079965
v -52.43401905 -0.36434571 -3.33664540
v -120.38738383 1.47873546 -5.50547576
v -123.92829361 1.71128254 -3.45641747
v -125.15736030 1.69425184 -0.01460528
v -124.06950322 1.67730628 3.33477544
v -121.17578378 -0.99953809 -10.71975912
v -111.27956871 -0.78723089 -1.59139604
v -115.63640852 -0.75335412 7.57736721
v -117.22353531 -0.52034253 -7.61716921
v -4.18339735 1.67079424 -123.36854022
v -3.64996868 1.69680059 -116.25528562
v -0.24697523 1.63744634 -114.71909208
v 2.70092518 -0.90600882 -110.95239576
v 5.09357427 -0.11816850 -114.70870856
v 2.50508742 -0.81626372 -128.43366665
v 0.81071557 1.67629257 -125.21138223
v 9.60853175 -0.93130129 -122.35816382
v 6.49933913 -0.29701456 -124.15388443
v 4.87544991 1.70412493 -121.98876828
v 7.90944174 -0.74437255 -117.59799253
v -4.63449229 1.71668173 -92.62478836
v -0.74115626 1.66805358 -84.76805770
v -0.12113931 1.62523101 -95.35765342
v -4.87409789 1.54396370 -87.45003528
v 6.72515062 -0.76546817 -94.68472398
v 1.82956456 0.05681668 -83.16955218
v 0.65842417 0.29705554 -96.93216945
v 8.76048379 -0.78379802 -89.74082539
v 4.82315153 -0.92890864 -81.36867581
v 5.86627733 0.14301949 -86.10746464
v -4.70532099 -0.42569385 -53.89872368
v -5.24178373 1.64969227 -59.44905958
v -2.72916589 1.66723711 -55.38329395
v 7.93609436 -0.80976466 -64.09267503
v 10.38259347 -1.00000000 -60.71018885
v 10.38259347 -1.00000000 -59.28981115
v 10.18918540 -1.00000000 -57.88266293
v 9.80597208 -1.00000000 -56.51495669
v 9.24009206 -1.00000000 -55.21217021
v 8.50208660 -1.00000000 -53.99857194
v 7.60570336 -1.00000000 -52.89676892
v 6.56764026 -1.00000000 -51.92728566
v 4.41020891 -0.57965794 -53.28176777
v 4.14610207 -1.00000000 -50.45471567
v 3.26129199 -0.96516976 -50.84074114
v 1.41706647 -1.00000000 -49.69007575
v -0.11348877 -0.68069547 -51.70378462
v 4.58369853 1.61155758 -57.24688568
v 4.86157412 1.71772528 -62.10362664
v 1.94870319 1.37702795 -65.23656268
v 2.44059200 -0.84966008 -68.42080160
v 7.85942246 -0.69246982 -56.94463747
v 121.35856248 1.53657492 -5.25214760
v 114.98708506 1.68140936 1.99861483
v 115.64147481 1.72681162 -2.85364485
v 118.06321989 1.71233149 -4.76989812
v 118.13780594 1.61839383 4.94246875
v 129.06315731 -0.86874511 -2.95485219
v 129.16151218 -0.99552908 5.85104381
v 121.97286856 0.01472855 6.87576915
v 121.21971504 -0.66181267 -8.21954607
v 126.21069270 0.03848262 -3.80114719
v 126.47996088 0.13847595 3.02208074
v 126.32169490 -0.77379613 6.74493808
v 88.67883892 1.68307365 -5.01929774
v 85.52596222 1.49427292 3.31347653
v 85.59255498 1.65262621 -2.91038377
v 84.94148177 1.72010573 0.45208258
v 89.25933537 1.67073365 5.12662902
v 97.74500511 -0.78988829 4.05517915
v 92.56794758 1.66238334 -4.64166665
v 92.53646640 -0.78285045 -8.50242485
v 98.13001674 -0.76012578 -2.80782532
v 92.79692866 0.22642162 6.31699982
v 90.73282318 -0.81247149 8.77652143
v 55.15350558 1.66152885 1.90224782
v 55.16626658 1.66496169 -2.36648537
v 62.75123826 1.69899262 4.48913606
v 58.63910881 1.64978927 -5.05877096
v 57.78166931 1.65101139 4.88054306
v 60.00000000 -1.00000000 -10.40685425
v 61.41706647 -1.00000000 -10.30992425
v 63.17711003 -0.79019843 -8.11658685
v 75.00000000 -1.25248456 -0.00000000
v 67.23076893 -0.72045822 5.10716735
v 61.41706647 -1.00000000 10.30992425
v 60.00000000 -1.00000000 10.40685425
v 67.57730311 -0.57792459 -3.35292138
v -4.76430002 1.52052253 57.34049262
v -1.72732266 1.67006485 55.01543414
v -5.06022774 1.71483923 60.92130030
v -1.93532071 1.67023447 64.90916158
v 1.41706647 -1.00000000 49.69007575
v 2.80773567 -1.00000000 49.97906014
v 4.14610207 -1.00000000 50.45471567
v 5.40723444 -1.00000000 51.10818179
v 6.56764026 -1.00000000 51.92728566
v 7.60570336 -1.00000000 52.89676892
v 8.50208660 -1.00000000 53.99857194
v 9.24009206 -1.00000000 55.21217021
v 9.80597208 -1.00000000 56.51495669
v 10.18918540 -1.00000000 57.88266293
v 10.38259347 -1.00000000 59.28981115
v 10.38259347 -1.00000000 60.71018885
v 8.89015103 -0.85897659 62.81627965
v -0.84747059 -0.63110835 51.72752672
v 6.98272028 -0.93454969 52.81321968
v 5.79017658 -0.05942530 55.43459753
v -3.50172760 1.72650751 93.80549743
v -1.11621599 1.64674439 84.88781780
v -4.16477638 1.67748689 86.80263735
v -6.33668341 0.78003725 90.27376384
v 7.17640169 -0.93477215 83.75413973
v 9.58384866 -0.92883778 90.84658427
v 2.78176036 1.66101515 85.47681619
v 4.85764128 0.24939158 85.16642468
v 7.15046788 0.03408439 89.96337754
v 5.45596495 0.13060727 94.31517164
v 4.28320319 -0.93074398 98.79126127
v -5.11187479 1.43885139 117.82596004
v -2.14504682 1.68769080 115.27181273
v -4.96122323 1.71793924 121.20034392
v -2.92954080 1.65899144 124.38548752
v 8.21059656 -0.65414408 119.74486025
v 4.45177480 -0.75693365 112.23429439
v 6.35953129 0.01468792 123.19422618
v 4.35683596 -0.87789821 128.53265092
v 2.70552640 0.17214256 126.54772866
v -93.16229298 1.94902772 -7.46548976
v -95.66449391 3.33119909 -3.01563477
v -93.33866966 1.24448893 8.40772346
v -98.06030759 1.53988238 -2.83068422
v -97.54044542 1.02309184 -7.36301610
v -89.44072140 1.15044506 -9.53340327
v -87.04932240 3.30738651 -5.89442322
v -88.34056853 3.59032317 5.87086783
v -60.00000000 1.00000000 -10.40685425
v -61.56797544 2.85919164 -6.82329263
v -67.43743993 1.88632040 -3.35574468
v -65.77620920 3.65405958 0.33622703
v -60.00000000 1.00000000 10.40685425
v -61.41706647 1.00000000 10.30992425
v -61.41706647 1.00000000 -10.30992425
v -59.64027392 1.43967408 8.57548774
v -64.37029091 1.22887233 7.82312441
v -69.42616530 1.15500294 1.61095035
v -65.41625327 1.06493587 -8.61755422
v -54.14298709 3.62945092 0.61829527
v -53.90753278 3.19430242 -2.33397927
v -56.97554691 3.65222309 -4.99929587
v -121.47626432 1.24688798 -8.79834090
v -122.12579615 3.67801043 -5.38451498
v -127.00355298 1.18864477 -5.65095869
v -128.41789322 1.58798336 0.61621990
v -126.38633375 1.60118738 5.46603954
v -122.65458924 3.31328036 5.83603057
v -129.42005599 1.02666739 4.68336816
v -119.20519515 3.11384930 -6.59714864
v -114.30641975 3.67591089 0.81933386
v -5.90228159 1.19219322 -113.24879246
v -1.69609989 1.18678661 -111.23454147
v -8.54080492 1.57224739 -119.34400872
v -10.00161269 1.04079942 -122.56429928
v -6.14218499 1.60503315 -125.69634582
v -4.27916404 1.08770715 -128.45118524
v 0.69770223 3.28912145 -126.33672731
v -1.32401580 3.63129341 -114.26599654
v 2.68633755 3.69156027 -114.77462187
v 5.29816770 3.16458189 -116.02460449
v 6.47813025 3.26799312 -120.83140836
v 3.84374296 3.64927158 -124.55875500
v -7.15493705 1.72479379 -85.61660442
v -1.96436481 1.17300786 -81.23559332
v -10.38259347 1.00000000 -89.28981115
v -8.99606965 1.02018309 -84.72680216
v -8.01723513 1.16549372 -94.59345562
v 0.90750349 1.05993938 -99.84545219
v 5.91709214 2.94242185 -86.38837533
v 3.93818186 3.68947327 -85.57245461
v 4.45078199 3.66135920 -93.87910750
v 1.40895896 3.43806035 -96.09859702
v -8.19850653 1.42029060 -57.45679679
v -5.39602789 1.39440329 -53.19332835
v -0.82282034 1.26161614 -51.28309035
v -1.41706647 1.00000000 -49.69007575
v -4.14610207 1.00000000 -50.45471567
v -5.40723444 1.00000000 -51.10818179
v -6.56764026 1.00000000 -51.92728566
v -7.60570336 1.00000000 -52.89676892
v -8.50208660 1.00000000 -53.99857194
v -9.24009206 1.00000000 -55.21217021
v -9.80597208 1.00000000 -56.51495669
v -10.18918540 1.00000000 -57.88266293
v -10.38259347 1.00000000 -59.28981115
v -10.38259347 1.00000000 -60.71018885
v -1.80382080 1.11663328 -50.79368278
v -4.52081728 1.21115362 -67.70764584
v 0.88693834 3.58243599 -54.02517192
v 5.54189849 3.62208750 -57.36449224
v 3.64483540 3.61281415 -64.99999060
v 111.92490777 1.11157860 4.86377654
v 117.22378151 1.14612139 8.79248277
v 114.60077973 1.11538382 -7.59424989
v 123.67742537 1.69420756 7.41259794
v 120.29914089 3.52108587 -6.15590354
v 85.65845788 1.20581042 -7.94847936
v 81.21032240 1.28858369 -1.49999024
v 88.58293353 1.00000000 -10.30992425
v 87.45879280 1.19937698 8.60222977
v 83.53375905 1.70574844 5.29061582
v 81.46664335 1.05956454 4.71567392
v 91.59019506 3.61016667 -5.74232453
v 95.21654252 3.46860852 -3.39202238
v 95.91294402 3.62825418 0.00154522
v 94.26464559 3.62084032 4.32160849
v 60.00000000 1.00000000 -10.40685425
v 53.81699857 1.37578344 -5.99608881
v 60.00000000 1.00000000 10.40685425
v 58.58293353 1.00000000 10.30992425
v 57.19226433 1.00000000 10.02093986
v 55.85389793 1.00000000 9.54528433
v 54.59276556 1.00000000 8.89181821
v 53.43235974 1.00000000 8.07271434
v 52.39429664 1.00000000 7.10323108
v 50.75990794 1.00000000 4.78782979
v 49.81081460 1.00000000 2.11733707
v 49.61740653 1.00000000 0.71018885
v 49.61740653 1.00000000 -0.71018885
v 50.19402792 1.00000000 -3.48504331
v 50.75990794 1.00000000 -4.78782979
v 51.49791340 1.00000000 -6.00142806
v 52.39429664 1.00000000 -7.10323108
v 53.43235974 1.00000000 -8.07271434
v 54.59276556 1.00000000 -8.89181821
v 55.85389793 1.00000000 -9.54528433
v 57.19226433 1.00000000 -10.02093986
v 58.58293353 1.00000000 -10.30992425
v 58.25870200 1.36544301 8.47129671
v 54.21268443 1.33046032 6.47821862
v 51.37299451 1.21692329 2.71646797
v 62.17683220 3.63549822 -5.56510505
v 66.43285149 3.28189045 -0.89274404
v 65.11047165 3.66974706 2.80279955
v 62.01116153 3.60826335 5.65762107
v -4.97020019 1.37802873 52.88486036
v -8.67864273 1.39020326 58.34218371
v 2.35369916 1.89491594 67.80691012
v -10.38259347 1.00000000 60.71018885
v -10.38259347 1.00000000 59.28981115
v -10.18918540 1.00000000 57.88266293
v -9.80597208 1.00000000 56.51495669
v -9.24009206 1.00000000 55.21217021
v -8.50208660 1.00000000 53.99857194
v -7.60570336 1.00000000 52.89676892
v -6.56764026 1.00000000 51.92728566
v -5.40723444 1.00000000 51.10818179
v -2.80773567 1.00000000 49.97906014
v -1.41706647 1.00000000 49.69007575
v -3.05130537 1.21616884 68.37093804
v -7.38838111 1.29725157 64.85223074
v -0.08834937 1.30980291 51.26291748
v 0.76093536 3.65604851 54.03444240
v 0.69135221 3.67841690 65.75002143
v 5.88769394 3.66150712 59.33121673
v -7.17697597 1.36001107 84.67904952
v -8.52913137 1.15779058 93.94705581
v -10.38259347 1.00000000 89.28981115
v -2.46470188 1.17901599 98.69946473
v 2.48561948 3.58864299 95.61628310
v 6.48168805 3.17903588 89.10364459
v 5.46649622 3.62496326 92.35032947
v 4.45102270 3.66053763 86.11920792
v 1.40464731 3.33117953 83.74008952
v -1.52628696 1.19387082 128.95340246
v -7.19715042 1.15873524 126.67862820
v -8.48253559 1.25523701 117.28685065
v -4.74003986 1.13706729 112.01773787
v 1.47875013 3.69091848 114.32428257
v 5.91160285 3.61499936 119.25173821
v 2.63939213 1.99889513 127.45987594
v -0.43780468 3.67622050 125.90777290
v 6.05157975 2.72505224 123.78282757
v 0.00000000 1.00000000 -10.40685425
v -0.92361318 1.68185794 8.18704750
v 0.00000000 1.00000000 10.40685425
v -1.41706647 1.00000000 10.30992425
v -4.14610207 1.00000000 9.54528433
v -5.40723444 1.00000000 8.89181821
v -6.56764026 1.00000000 8.07271434
v -8.50208660 1.00000000 6.00142806
v -9.24009206 1.00000000 4.78782979
v -9.80597208 1.00000000 3.48504331
v -10.38259347 1.00000000 0.71018885
v -10.38259347 1.00000000 -0.71018885
v -10.18918540 1.00000000 -2.11733707
v -9.80597208 1.00000000 -3.48504331
v -9.24009206 1.00000000 -4.78782979
v -8.50208660 1.00000000 -6.00142806
v -7.60570336 1.00000000 -7.10323108
v -6.56764026 1.00000000 -8.07271434
v -5.40723444 1.00000000 -8.89181821
v -2.80773567 1.00000000 -10.02093986
v -3.08521475 1.08548870 9.04564225
v -6.65373241 1.09046273 6.94631332
v -4.80686035 1.24106961 -7.73029675
v -1.02348962 1.27555771 -8.64764895
v 0.35271440 3.63950841 -5.74996266
v 3.86714747 3.38353315 -4.94813636
v 5.62159628 3.30067108 3.49453691
v 1.34783807 3.63355146 5.70895753
v 5.69970262 3.64657357 -1.30976193
v 7.44297718 1.76205330 -56.75395207
v 1.19535651 1.20648422 -68.87849083
v -84.66339277 3.30369748 3.52945084
v -83.97263030 3.61376350 -0.64028897
v -56.15798874 3.35549210 4.95927943
v 6.48168805 3.17903588 -90.89635541
v 3.60468928 1.57336512 -97.66818927
v 7.56953608 1.49684044 -116.11965779
v 8.16296980 1.67784163 -121.43614689
v 4.83829283 1.60325567 -126.77122076
v -0.47405706 1.61112626 -128.40822571
v 7.34259179 1.39455004 64.66059009
v 5.69906875 3.37622404 62.87168920
v 8.68535369 1.44256360 59.19474575
v 4.32383128 1.41906652 52.60449274
v 9.11975077 1.18252871 119.33680793
v 5.20773134 2.28100008 114.31953159
v 0.50633495 1.21373444 111.12074280
v 58.80487756 1.30422654 -8.92159270
v 98.59393100 1.20904482 2.68615380
v 94.97755287 1.16783802 -7.52132540
v 91.18891196 1.22383395 -8.77224697
v 125.00677300 3.58951992 3.31572278
v 125.95023380 3.65064913 0.23981272
v 125.06421131 3.31180621 -4.10135425
v 119.95950656 1.18039455 -9.03087920
v 4.83519057 1.50350734 83.02767179
v 0.15357446 1.51611804 81.52955273
v -115.27843941 3.24070673 4.48817597
v -112.02227439 1.58556126 2.57680020
v -115.54383988 3.56456022 -4.17081487
v 150.00000000 1.00000000 140.00000000
v 150.00000000 -1.00000000 140.00000000
v 150.00000000 1.00000000 -140.00000000
v 150.00000000 -1.00000000 -140.00000000
v -140.00000000 -1.00000000 -150.00000000
v -140.00000000 1.00000000 -150.00000000
v 140.00000000 -1.00000000 -150.00000000
v 140.00000000 1.00000000 -150.00000000
v -150.00000000 1.00000000 -140.00000000
v -150.00000000 -1.00000000 -140.00000000
v -150.00000000 1.00000000 140.00000000
v -150.00000000 -1.00000000 140.00000000
v -140.00000000 1.00000000 150.00000000
v -140.00000000 -1.00000000 150.00000000
v 140.00000000 1.00000000 150.00000000
v 140.00000000 -1.00000000 150.00000000
v 2.80773567 1.00000000 -10.02093986
v 5.40723444 1.00000000 -8.89181821
v 6.56764026 1.00000000 -8.07271434
v 8.50208660 1.00000000 -6.00142806
v 9.24009206 1.00000000 -4.78782979
v 9.80597208 1.00000000 -3.48504331
v 10.18918540 1.00000000 -2.11733707
v 10.38259347 1.00000000 0.71018885
v 10.18918540 1.00000000 2.11733707
v 9.80597208 1.00000000 3.48504331
v 8.50208660 1.00000000 6.00142806
v 7.60570336 1.00000000 7.10323108
v 6.56764026 1.00000000 8.07271434
v 5.40723444 1.00000000 8.89181821
v 4.14610207 1.00000000 9.54528433
v 2.80773567 1.00000000 10.02093986
v 1.41706647 1.00000000 49.69007575
v 2.80773567 1.00000000 49.97906014
v 4.14610207 1.00000000 50.45471567
v 5.40723444 1.00000000 51.10818179
v 6.56764026 1.00000000 51.92728566
v 7.60570336 1.00000000 52.89676892
v 8.50208660 1.00000000 53.99857194
v 9.24009206 1.00000000 55.21217021
v 9.80597208 1.00000000 56.51495669
v 10.18918540 1.00000000 57.88266293
v 10.38259347 1.00000000 59.28981115
v 10.38259347 1.00000000 60.71018885
v 61.41706647 1.00000000 -10.30992425
v 65.72616991 1.19958709 7.16969708
v 61.41706647 1.00000000 10.30992425
v 10.38259347 1.00000000 -60.71018885
v 10.38259347 1.00000000 -59.28981115
v 10.18918540 1.00000000 -57.88266293
v 9.80597208 1.00000000 -56.51495669
v 9.24009206 1.00000000 -55.21217021
v 8.50208660 1.00000000 -53.99857194
v 7.60570336 1.00000000 -52.89676892
v 6.56764026 1.00000000 -51.92728566
v 4.14610207 1.00000000 -50.45471567
v 1.41706647 1.00000000 -49.69007575
v 10.10053314 1.01995366 -89.16325117
v 10.38259347 1.00000000 -89.28981115
v 4.25112405 1.13674124 -81.73212159
v -58.58293353 1.00000000 -10.30992425
v -57.19226433 1.00000000 -10.02093986
v -55.85389793 1.00000000 -9.54528433
v -54.59276556 1.00000000 -8.89181821
v -53.43235974 1.00000000 -8.07271434
v -51.49791340 1.00000000 -6.00142806
v -50.75990794 1.00000000 -4.78782979
v -50.19402792 1.00000000 -3.48504331
v -49.81081460 1.00000000 -2.11733707
v -49.61740653 1.00000000 -0.71018885
v -49.61740653 1.00000000 0.71018885
v -49.81081460 1.00000000 2.11733707
v -50.19402792 1.00000000 3.48504331
v -51.49791340 1.00000000 6.00142806
v -52.39429664 1.00000000 7.10323108
v -53.43235974 1.00000000 8.07271434
v -54.59276556 1.00000000 8.89181821
v -55.85389793 1.00000000 9.54528433
v -57.19226433 1.00000000 10.02093986
v -58.58293353 1.00000000 10.30992425
v -88.58293353 1.00000000 -10.30992425
v -88.58293353 1.00000000 10.30992425
v -1.41706647 -1.00000000 10.30992425
v -1.95017731 -0.46347817 7.51277597
v -4.14610207 -1.00000000 9.54528433
v -5.40723444 -1.00000000 8.89181821
v -6.56764026 -1.00000000 8.07271434
v -7.60570336 -1.00000000 7.10323108
v -8.50208660 -1.00000000 6.00142806
v -9.24009206 -1.00000000 4.78782979
v -9.80597208 -1.00000000 3.48504331
v -10.18918540 -1.00000000 2.11733707
v -10.38259347 -1.00000000 0.71018885
v -10.38259347 -1.00000000 -0.71018885
v -10.18918540 -1.00000000 -2.11733707
v -9.80597208 -1.00000000 -3.48504331
v -9.24009206 -1.00000000 -4.78782979
v -8.50208660 -1.00000000 -6.00142806
v -7.60570336 -1.00000000 -7.10323108
v -6.56764026 -1.00000000 -8.07271434
v -5.40723444 -1.00000000 -8.89181821
v -4.14610207 -1.00000000 -9.54528433
v -2.80773567 -1.00000000 -10.02093986
v -96.41475194 -0.90113938 7.21550911
v -98.69679502 -0.76459263 0.32549937
v -61.41706647 -1.00000000 10.30992425
v -69.11933057 -0.86964917 3.76651182
v -66.94767277 -0.89667079 -6.42356044
v -128.57946378 -0.99525061 6.67177890
v -128.05307725 -0.80139663 -3.35437271
v -4.70680711 -0.90054278 -128.17174034
v -5.22247459 -0.92544984 -81.83747653
v -7.76598579 -0.65420024 -87.39376177
v -7.51571108 -0.92892412 -96.17786695
v -1.41706647 -1.00000000 -49.69007575
v -2.77387940 -0.88600331 -51.19205628
v -4.14610207 -1.00000000 -50.45471567
v -5.40723444 -1.00000000 -51.10818179
v -6.56764026 -1.00000000 -51.92728566
v -7.60570336 -1.00000000 -52.89676892
v -8.50208660 -1.00000000 -53.99857194
v -9.24009206 -1.00000000 -55.21217021
v -9.80597208 -1.00000000 -56.51495669
v -10.18918540 -1.00000000 -57.88266293
v -10.38259347 -1.00000000 -59.28981115
v -8.26151352 -0.78013364 -62.92384089
v -4.46559365 -0.83360153 -68.00568581
v 120.47087073 -1.00041210 10.66838840
v 115.45882470 -0.70759700 7.54114668
v 114.21585376 -0.80227248 -6.51518242
v 58.58293353 -1.00000000 10.30992425
v 57.19226433 -1.00000000 10.02093986
v 55.85389793 -1.00000000 9.54528433
v 54.59276556 -1.00000000 8.89181821
v 53.43235974 -1.00000000 8.07271434
v 52.39429664 -1.00000000 7.10323108
v 50.75990794 -1.00000000 4.78782979
v 51.61912403 -0.86899859 3.56565663
v 49.81081460 -1.00000000 2.11733707
v 49.61740653 -1.00000000 0.71018885
v 49.61740653 -1.00000000 -0.71018885
v 51.59622667 -0.61172832 -1.44136042
v 50.19402792 -1.00000000 -3.48504331
v 50.75990794 -1.00000000 -4.78782979
v 51.49791340 -1.00000000 -6.00142806
v 52.39429664 -1.00000000 -7.10323108
v 53.43235974 -1.00000000 -8.07271434
v 54.59276556 -1.00000000 -8.89181821
v 55.85389793 -1.00000000 -9.54528433
v 57.19226433 -1.00000000 -10.02093986
v 58.58293353 -1.00000000 -10.30992425
v -0.68227545 -0.95067329 70.15242169
v -9.73855517 -0.97024014 62.99194418
v -10.38259347 -1.00000000 60.71018885
v -10.38259347 -1.00000000 59.28981115
v -10.18918540 -1.00000000 57.88266293
v -9.80597208 -1.00000000 56.51495669
v -9.24009206 -1.00000000 55.21217021
v -8.50208660 -1.00000000 53.99857194
v -7.60570336 -1.00000000 52.89676892
v -6.56764026 -1.00000000 51.92728566
v -5.40723444 -1.00000000 51.10818179
v -4.35890101 -0.95911907 51.24474776
v -2.80773567 -1.00000000 49.97906014
v -1.41706647 -1.00000000 49.69007575
v -9.09224209 -0.92808218 93.22877895
v -7.51571108 -0.92892412 83.82213305
v -5.09286849 -0.72909251 127.20954590
v -6.46900375 -0.99143063 111.12044299
v -59.66019046 3.75000000 2.47229798
v -57.45406607 3.75000000 -0.65162486
v -60.60596286 3.75000000 -2.36331946
v -88.95853917 3.75000000 2.11925095
v -87.51615779 3.75000000 0.00000000
v -88.91673988 3.75000000 -2.09059710
v 1.42090222 3.75000000 2.11229745
v 2.14052513 3.75000000 -1.23709261
v -119.24297117 3.75000000 2.28836938
v -117.45406607 3.75000000 -0.65162486
v 0.33980954 3.75000000 -57.52770202
v 2.54593393 3.75000000 -60.65162486
v 2.37713874 3.75000000 -89.45074482
v 0.42356602 3.75000000 -92.63734251
v 2.62690841 3.75000000 -120.48408253
v 61.42090222 3.75000000 2.11229745
v 62.14052513 3.75000000 -1.23709261
v 59.39403714 3.75000000 -2.36331946
v 90.75702883 3.75000000 2.28836938
v 92.54593393 3.75000000 -0.65162486
v 120.75702883 3.75000000 2.28836938
v 122.48384221 3.75000000 0.00000000
v 0.92212418 3.75000000 62.25879545
v 2.45559981 3.75000000 59.18920446
v 0.33980954 3.75000000 92.47229798
v 2.54593393 3.75000000 89.34837514
v -0.60596286 3.75000000 87.63668054
v 2.37713874 3.75000000 120.54925518
v -3.15165015 3.64009475 4.94534080
v -6.18702689 3.14356959 2.44515311
v -8.66592279 1.36266411 1.26910364
v -6.00947164 3.22531975 -2.34431678
v -7.42852050 1.45058675 -4.24777393
v -4.08236206 3.66959604 -4.24052096
v -3.27663621 2.98601725 84.00268831
v 115.88030145 3.34703916 5.00590932
v 110.61176805 1.11901239 -1.47226440
v 113.72564849 3.17580798 -2.02638040
v 51.51192312 1.35376866 -1.78960089
v -7.19044633 1.80355987 124.39310063
v -3.90911317 3.13299402 114.57592214
v -3.22708848 3.65049562 55.04455458
v -2.52915475 3.60118479 -125.43584836
v -6.39459879 3.20992144 -91.56467277
v -2.95097103 3.68737922 -95.13354596
v -1.83857631 1.56808887 -98.19131207
v -98.72218653 1.17388341 2.56372134
v -1.21527770 3.62268062 -65.81118126
v 2.52231123 1.35238742 -8.27310624
v 5.17608631 1.23902266 -7.41622125
v 6.59888123 1.07412095 -6.96025768
v 8.19331546 1.28086955 -3.60708667
v 8.83865309 1.24353849 0.18644579
v 8.06707827 1.26935807 3.88394045
v 4.49569000 1.28246048 7.77373373
v 0.01331258 1.07013939 9.62452107
v -5.73617761 3.70567675 119.05733687
v -5.38387835 3.30839652 123.68438005
v 6.52662596 1.13489362 113.35692142
v 6.76895980 1.07735977 127.13613321
v -4.94561669 3.69267022 86.92981276
v -6.30853079 3.29037193 92.14166556
v -2.59326951 3.64417066 95.29847532
v -3.65736565 1.03958568 80.02258729
v 7.61996692 1.02296932 83.00766713
v 8.45437753 1.42718658 87.53892053
v 10.10202371 1.01852854 91.37344607
v 8.02032853 1.40473644 93.41116772
v 4.45348555 1.13473651 98.22286040
v -5.97379642 3.61596155 58.79645859
v -3.09722841 3.48576384 65.43503168
v 5.82257948 2.53416670 55.56175384
v 4.80488482 1.09834417 68.52783825
v 57.85666991 3.35385799 -5.96651559
v 54.66227649 3.64738424 -2.57908812
v 53.84704487 3.21145275 2.22492018
v 57.14389068 3.63034459 5.16774135
v 66.04240365 1.25164894 -6.63064552
v 69.01038839 1.22552838 0.55795965
v 62.68408579 1.69740721 7.77905953
v 87.87764895 3.29541881 -5.99000090
v 84.68519799 3.64019880 -2.76510753
v 84.13313701 3.38508641 2.35889520
v 86.91575006 3.63802390 4.99868517
v 90.39155518 3.32440768 6.33071559
v 98.67939529 1.12760220 -3.51666312
v 93.76856634 1.21527453 8.27573936
v 116.26368565 3.58821254 -4.70642772
v 114.17054566 3.59621210 0.96901795
v 120.29552255 3.61380730 5.92896319
v 124.97160408 1.40473644 -7.15855348
v 128.04057863 1.02573369 -6.53444953
v 129.38941041 1.19083517 -1.21023025
v 125.66673403 1.16048681 7.57201182
v -4.22305791 3.67452847 -64.12050484
v -8.00071174 1.49550807 -63.06702940
v -6.43989850 3.24441912 -59.29430829
v -4.02175866 3.61456222 -55.43996598
v 6.51560423 1.19654690 -66.16630295
v 7.89219528 1.85845500 -61.63846629
v 9.17049800 1.22026542 -59.16223526
v 2.86237305 1.04407546 -50.64402615
v 4.29980515 1.37498821 -52.36227249
v -5.70507944 3.52650950 -87.95740539
v -3.78947897 3.64764829 -85.50767098
v -0.03683026 3.15290781 -83.37201512
v 7.82777287 1.09787843 -95.02101592
v 8.39374023 1.59048007 -87.31909682
v -6.09242892 3.09534072 -122.87436273
v -5.70799383 3.66088512 -118.83645240
v -4.99352321 3.04723142 -115.43677574
v 3.54303423 1.07821799 -129.23277547
v 9.72662234 1.08350686 -121.82201237
v 6.38038726 1.03869296 -112.38534199
v 3.41874471 1.53484507 -112.26584387
v -125.59741510 3.59347674 -2.25472741
v -125.31719916 3.65986518 2.05930714
v -119.01269832 3.61575455 5.78166676
v -116.06993285 1.12432782 -8.41657913
v -112.17845940 1.53517660 -3.56486522
v -110.23645467 1.02802186 -3.01374448
v -113.20564910 1.11526071 6.53978127
v -120.75079140 1.16513332 9.08968862
v -64.02822624 3.68612148 -3.77837296
v -65.15838725 3.26894444 4.03989018
v -59.62997454 3.65391121 5.83264256
v -57.87662994 1.48927669 -8.29528800
v -51.10980025 1.28554755 -1.28507724
v -53.26585574 1.20605640 -6.11589334
v -53.08200016 1.40963326 5.36910217
v -90.15211141 3.70862603 -5.53264293
v -95.37893700 3.71528679 0.02720932
v -94.02383967 3.62132677 4.51627494
v -84.11791494 1.16202686 -6.93303917
v -80.58092939 1.15482590 -0.96956702
v -84.48742640 1.12506418 7.88280319
v -8.62883952 -0.79490270 120.44729866
v -7.04802506 -0.57496394 115.68089009
v -2.51533180 -0.58438162 112.19958999
v 4.99231730 1.66384302 121.86694095
v 4.52222913 1.69014621 117.45021158
v 0.59321244 1.67494063 125.21127707
v 1.77782022 1.52890809 114.83864450
v 2.30845806 1.75000000 118.80385345
v 0.84328315 0.16970440 97.00637390
v -4.78070007 -0.93082655 98.37325258
v -4.98056849 0.06144855 95.08889526
v -4.42554057 -0.09547644 84.10620460
v 0.68363047 -0.78992962 81.42876334
v 3.82865698 1.68955316 93.50027464
v 5.42154948 1.63370772 90.05231527
v 0.41070100 1.57372188 95.39858745
v 2.01578019 1.75000000 88.50827416
v 1.68078181 -0.08787829 67.23224642
v -5.58729004 -0.06038840 64.81161792
v -7.48137064 -0.49232507 56.87721651
v 2.41645963 1.66944092 64.67325009
v 1.69709576 1.69028914 55.13802061
v 5.15993058 1.48813434 61.84113838
v 4.88090076 1.65889667 57.80047124
v 2.48972390 1.75000000 60.17030177
v -0.00000000 1.75000000 57.40004901
v 60.02773432 -0.52591624 8.17814562
v 53.91874476 -0.66140944 5.71824311
v 57.18280071 -0.57383024 -7.93490828
v 65.39101648 1.66592864 0.14311594
v 62.81799130 1.65092594 -4.54885527
v 61.77735480 1.75000000 1.58908852
v 62.24506613 1.75000000 -1.03533762
v 85.71074402 -0.81064364 7.86431722
v 81.85627918 -0.56415579 1.27489617
v 83.49281287 -0.73495583 -5.97731152
v 94.46919451 1.72715188 2.78308292
v 94.97075542 1.69682603 -1.27140090
v 92.21575449 1.75000000 1.14811144
v 91.65163299 1.75000000 -1.76846710
v 111.44578706 -0.74592688 -0.46392856
v 121.88443109 1.66662420 5.01058469
v 125.27310572 1.69344141 0.87249660
v 123.93218976 1.71071581 -3.29477952
v 122.21575449 1.75000000 1.14811144
v 121.65163299 1.75000000 -1.76846710
v -8.35505433 -0.70942742 -57.60097879
v -4.72537939 1.13194412 -63.47900757
v -1.90586082 1.72720520 -64.80935751
v 0.97522768 1.68396567 -54.85278077
v 2.37467426 1.75000000 -60.84395944
v -2.86960227 0.07598632 -83.51712055
v -6.14699848 0.08660020 -93.73243413
v 1.56484450 -0.92375334 -99.55504510
v 4.01231365 1.67275517 -86.49781060
v 5.10710705 1.66694558 -90.82135607
v 3.57360219 1.65354316 -93.74327499
v 2.25733745 1.75000000 -89.01949998
v 1.65163299 1.75000000 -91.76846710
v -0.75637268 -0.18018919 -112.46885111
v -7.80240223 -0.94050937 -113.96875997
v -6.41359578 -0.23937308 -116.01222712
v -5.34905637 1.49222584 -119.35719821
v -8.74068667 -0.85372305 -121.17123221
v -4.61165001 -0.34464310 -126.43268333
v 2.98629796 1.69506740 -115.80382525
v 4.88329788 1.55004710 -117.76680743
v 1.65163299 1.75000000 -121.76846710
v -121.50295407 -0.81018670 8.52895174
v -125.58598662 -0.58677803 5.97584951
v -128.14372082 -0.56415579 1.27489617
v -124.09617969 -0.55554762 -7.13234399
v -116.69263332 1.68593802 4.08060403
v -120.42733625 1.45650042 5.51794207
v -114.74580185 1.68150577 0.21825158
v -116.22341762 1.71609326 -3.60267254
v -117.62532574 1.75000000 -0.84395944
v -66.90804711 -0.08106044 3.09163265
v -65.91750439 0.09047256 -4.19375119
v -61.86520511 1.67970367 5.00986270
v -54.70714607 1.69542325 -0.11230359
v -57.48321287 1.75000000 0.70517068
v -60.00000000 1.75000000 -2.59995099
v -91.32878449 1.30676811 5.52011276
v -96.47632280 -0.83796090 -6.06681491
v -87.50503460 1.70420438 4.62142736
v -84.64213957 1.65504639 0.66630894
v -85.94756197 1.71661282 -3.20066490
v -87.97606104 1.75000000 1.36240264
v -88.11751775 1.75000000 -1.60265608
v 2.48972390 1.75000000 0.17030177
v 0.00000000 1.75000000 -2.59995099
v 4.31524710 1.71436759 -2.69028618
v -6.39671604 -0.58315222 5.18308745
v -8.23765089 -0.57122876 0.12438579
v -5.90788803 -0.57614273 -5.82183173
v -0.74393618 -0.67091235 -8.36850763
f 2 4 3
f 2 3 1
f 2 5 4
f 652 5 2
f 6 9 8
f 7 9 6
f 7 10 9
f 12 14 11
f 12 15 14
f 13 15 12
f 13 16 15
f 18 19 670
f 18 20 19
f 668 20 18
f 668 17 20
f 22 24 23
f 22 23 21
f 22 25 24
f 664 25 22
f 27 29 28
f 27 28 26
f 27 30 29
f 662 30 27
f 32 34 31
f 32 35 34
f 33 35 32
f 33 36 35
f 37 38 862
f 37 862 646
f 37 39 38
f 644 39 37
f 41 42 805
f 41 805 40
f 666 42 41
f 666 43 42
f 44 46 45
f 44 45 661
f 44 47 46
f 659 47 44
f 48 50 657
f 48 51 50
f 49 51 48
f 53 54 871
f 53 871 52
f 53 55 54
f 650 55 53
f 57 59 58
f 57 58 56
f 57 60 59
f 654 60 57
f 85 62 86
f 86 84 876
f 86 876 85
f 86 63 64
f 86 64 65
f 86 65 66
f 86 872 84
f 70 66 67
f 70 86 66
f 70 872 86
f 70 67 68
f 70 68 69
f 70 71 72
f 70 72 73
f 70 73 74
f 87 74 75
f 87 70 74
f 87 83 70
f 87 75 76
f 87 76 77
f 87 77 78
f 87 92 83
f 82 78 79
f 82 79 80
f 82 87 78
f 82 92 87
f 92 558 88
f 558 92 82
f 93 95 94
f 99 98 100
f 99 100 96
f 96 867 99
f 96 866 867
f 97 96 101
f 97 866 96
f 97 863 865
f 103 858 102
f 105 132 104
f 128 126 127
f 110 105 106
f 110 132 105
f 110 106 107
f 110 107 108
f 132 130 131
f 110 108 109
f 133 130 132
f 133 132 110
f 110 111 112
f 110 112 113
f 133 113 114
f 133 110 113
f 133 860 130
f 133 114 115
f 133 115 116
f 133 116 117
f 133 117 118
f 119 133 118
f 119 860 133
f 119 120 121
f 128 121 122
f 128 119 121
f 128 122 123
f 128 123 124
f 119 128 129
f 128 124 125
f 128 125 126
f 852 853 137
f 139 855 141
f 139 854 855
f 852 854 139
f 852 139 140
f 140 853 852
f 140 848 853
f 143 842 142
f 150 147 149
f 148 147 150
f 152 151 150
f 152 150 149
f 146 152 145
f 839 146 145
f 831 154 158
f 156 154 831
f 156 153 154
f 159 833 157
f 835 157 160
f 162 835 160
f 162 160 161
f 158 162 161
f 164 827 828
f 166 182 183
f 166 181 182
f 184 167 168
f 184 166 167
f 184 168 169
f 184 169 170
f 184 170 171
f 184 181 166
f 184 180 181
f 184 171 172
f 184 172 173
f 175 173 174
f 175 184 173
f 184 175 180
f 177 175 176
f 179 177 178
f 175 177 179
f 189 186 821
f 193 185 188
f 194 193 190
f 195 194 190
f 196 190 191
f 195 190 196
f 196 191 602
f 192 195 196
f 603 196 602
f 192 196 603
f 201 198 200
f 204 205 203
f 205 816 817
f 202 816 205
f 206 816 202
f 206 202 207
f 207 201 206
f 214 215 213
f 806 218 219
f 808 810 211
f 215 810 808
f 220 810 215
f 220 215 216
f 220 809 810
f 217 220 216
f 217 809 220
f 217 210 809
f 217 806 210
f 806 217 218
f 223 221 222
f 224 798 223
f 239 225 226
f 239 238 225
f 239 226 227
f 240 238 239
f 239 227 228
f 239 228 229
f 239 229 230
f 239 230 231
f 239 231 232
f 239 232 233
f 237 233 234
f 237 239 233
f 237 234 235
f 237 240 239
f 237 235 236
f 803 240 237
f 802 803 237
f 797 237 626
f 797 802 237
f 241 244 243
f 247 242 792
f 247 792 248
f 248 792 245
f 248 245 246
f 249 248 246
f 250 249 246
f 250 246 251
f 788 250 251
f 254 252 253
f 257 784 786
f 256 784 257
f 258 256 259
f 260 258 259
f 690 263 776
f 264 265 690
f 264 690 262
f 261 265 264
f 266 265 261
f 447 268 446
f 774 447 267
f 274 273 277
f 279 269 275
f 278 277 768
f 278 768 272
f 271 278 272
f 271 279 278
f 270 279 271
f 770 279 270
f 280 769 448
f 280 448 773
f 282 280 281
f 270 282 770
f 287 289 766
f 287 766 288
f 286 289 287
f 286 285 289
f 285 286 759
f 283 285 284
f 291 761 472
f 291 472 473
f 474 291 763
f 284 474 290
f 295 292 294
f 296 295 294
f 296 297 295
f 454 297 296
f 454 755 297
f 301 300 758
f 300 301 302
f 303 300 302
f 304 307 305
f 308 306 307
f 304 747 687
f 304 308 307
f 308 304 687
f 309 308 689
f 689 308 688
f 449 311 310
f 312 311 449
f 328 317 316
f 315 318 328
f 315 328 316
f 315 319 318
f 315 320 319
f 315 321 320
f 314 322 321
f 314 321 315
f 314 323 322
f 314 324 323
f 314 325 324
f 739 325 314
f 739 326 325
f 739 327 326
f 739 329 327
f 329 739 738
f 331 330 746
f 332 331 743
f 333 334 679
f 333 679 680
f 680 681 731
f 335 680 731
f 469 731 337
f 469 335 731
f 466 733 336
f 468 337 467
f 342 343 341
f 339 343 342
f 338 339 725
f 465 340 338
f 345 344 346
f 351 350 370
f 462 348 369
f 370 352 351
f 370 353 352
f 371 354 353
f 371 353 370
f 371 355 354
f 371 356 355
f 372 357 371
f 372 371 719
f 682 358 372
f 682 359 358
f 682 360 359
f 682 372 719
f 682 362 361
f 349 363 362
f 349 362 682
f 349 682 718
f 349 364 363
f 349 365 364
f 349 366 365
f 462 366 349
f 462 367 366
f 462 368 367
f 462 369 368
f 373 374 721
f 373 375 374
f 378 380 392
f 378 381 380
f 378 382 381
f 378 383 382
f 378 384 383
f 377 384 378
f 377 385 384
f 377 386 385
f 377 387 386
f 377 388 387
f 393 390 389
f 393 389 377
f 456 395 379
f 396 395 456
f 396 456 457
f 394 396 715
f 394 715 458
f 398 400 706
f 397 399 398
f 397 398 705
f 471 707 397
f 471 397 678
f 404 403 402
f 683 406 413
f 683 407 406
f 683 408 407
f 409 408 684
f 409 684 461
f 414 413 412
f 411 413 414
f 410 411 460
f 418 417 699
f 435 418 699
f 416 435 699
f 436 420 419
f 436 419 435
f 673 436 435
f 673 416 672
f 673 435 416
f 436 421 420
f 674 423 422
f 674 422 436
f 674 436 673
f 674 424 423
f 676 425 674
f 676 426 425
f 676 427 426
f 676 428 427
f 676 674 675
f 676 429 428
f 437 430 429
f 437 429 676
f 437 431 430
f 437 432 431
f 437 676 677
f 437 433 432
f 437 677 438
f 438 434 437
f 443 442 441
f 439 443 440
f 439 440 692
f 445 691 332
f 742 445 332
f 444 743 331
f 316 746 330
f 447 777 267
f 276 448 769
f 450 689 313
f 312 450 313
f 534 311 749
f 305 534 749
f 303 454 298
f 452 303 302
f 451 452 302
f 451 302 301
f 293 300 299
f 293 758 300
f 458 393 394
f 455 457 456
f 455 456 379
f 460 461 410
f 459 460 411
f 406 412 413
f 722 374 375
f 520 722 375
f 520 375 376
f 723 520 376
f 370 723 376
f 464 465 344
f 345 464 344
f 463 345 346
f 463 346 347
f 730 463 347
f 730 347 728
f 341 730 728
f 468 469 337
f 470 471 405
f 404 470 405
f 400 712 401
f 766 472 761
f 692 438 439
f 443 693 440
f 441 696 443
f 476 478 477
f 475 476 477
f 482 479 480
f 482 481 479
f 484 486 485
f 483 484 485
f 488 490 489
f 487 488 489
f 407 487 406
f 766 289 485
f 408 487 407
f 398 408 409
f 400 398 409
f 263 765 766
f 263 690 765
f 398 487 408
f 263 766 485
f 400 409 461
f 263 485 487
f 690 764 765
f 399 487 398
f 399 263 487
f 556 263 399
f 712 400 461
f 397 556 399
f 712 461 702
f 265 764 690
f 712 702 459
f 265 762 764
f 710 712 459
f 266 762 265
f 391 392 707
f 392 397 707
f 277 779 556
f 278 779 277
f 392 556 397
f 274 556 392
f 274 277 556
f 380 274 392
f 273 274 380
f 278 778 779
f 381 273 380
f 554 273 381
f 716 391 707
f 382 554 381
f 553 554 382
f 279 778 278
f 383 553 382
f 552 553 383
f 384 552 383
f 551 552 384
f 279 777 778
f 385 551 384
f 550 551 385
f 716 707 708
f 386 550 385
f 549 550 386
f 275 555 279
f 436 549 386
f 421 386 387
f 421 436 386
f 422 549 436
f 422 548 549
f 420 421 387
f 420 387 388
f 423 547 773
f 423 773 548
f 423 548 422
f 419 420 388
f 419 388 377
f 419 377 389
f 424 547 423
f 424 546 547
f 435 419 389
f 674 546 424
f 418 435 389
f 418 389 390
f 425 545 546
f 425 546 674
f 417 390 393
f 417 393 507
f 417 418 390
f 483 762 266
f 483 485 289
f 483 289 285
f 483 285 283
f 483 283 762
f 489 710 459
f 489 459 703
f 489 703 406
f 426 544 545
f 426 545 425
f 699 417 507
f 427 543 544
f 427 544 426
f 506 699 507
f 506 507 508
f 428 543 427
f 428 542 543
f 505 508 509
f 505 506 508
f 429 542 428
f 429 541 542
f 504 505 509
f 504 509 510
f 430 540 541
f 430 541 429
f 503 510 511
f 503 504 510
f 431 772 540
f 431 540 430
f 502 511 512
f 502 503 511
f 480 483 266
f 321 539 772
f 321 772 431
f 356 502 512
f 356 501 502
f 320 431 432
f 320 321 431
f 355 356 512
f 355 512 513
f 322 538 539
f 322 539 321
f 371 501 356
f 354 355 513
f 354 513 514
f 319 432 433
f 319 320 432
f 357 501 371
f 357 500 697
f 357 697 501
f 323 537 538
f 323 538 322
f 318 433 437
f 318 437 434
f 318 319 433
f 353 354 514
f 353 514 515
f 324 536 537
f 324 537 323
f 372 500 357
f 352 515 516
f 352 353 515
f 328 318 434
f 325 536 324
f 325 535 536
f 358 500 372
f 358 499 500
f 351 352 516
f 351 516 517
f 317 328 434
f 317 434 438
f 317 438 415
f 359 498 499
f 359 499 358
f 326 269 535
f 326 535 325
f 316 317 415
f 350 351 517
f 350 517 518
f 360 498 359
f 360 497 696
f 360 696 498
f 327 269 326
f 327 275 269
f 531 415 692
f 531 692 491
f 531 316 415
f 521 350 518
f 521 518 716
f 329 555 275
f 329 275 327
f 682 497 360
f 745 531 491
f 361 497 682
f 361 496 497
f 530 745 491
f 530 491 693
f 530 693 492
f 362 496 361
f 362 495 496
f 746 530 492
f 363 495 362
f 363 494 495
f 529 492 493
f 529 746 492
f 364 694 494
f 364 494 363
f 528 694 364
f 528 493 694
f 528 529 493
f 365 528 364
f 527 528 365
f 366 527 365
f 526 527 366
f 367 526 366
f 525 526 367
f 368 525 367
f 524 525 368
f 369 524 368
f 523 524 369
f 348 523 369
f 522 523 348
f 519 522 348
f 742 522 519
f 343 520 341
f 343 722 520
f 305 307 329
f 307 555 329
f 305 329 445
f 341 708 710
f 341 520 521
f 341 716 708
f 341 521 716
f 306 480 266
f 306 555 307
f 306 266 555
f 339 722 343
f 730 489 475
f 730 710 489
f 730 341 710
f 308 480 306
f 534 305 445
f 534 445 742
f 338 722 339
f 338 721 722
f 338 462 721
f 532 534 742
f 340 519 462
f 340 462 338
f 340 532 742
f 340 742 519
f 533 532 340
f 465 533 340
f 333 463 730
f 293 292 308
f 293 308 309
f 334 333 730
f 295 308 292
f 295 480 308
f 334 730 475
f 333 729 463
f 680 729 333
f 757 293 309
f 737 334 475
f 757 309 750
f 335 729 680
f 335 464 729
f 297 480 295
f 756 757 750
f 756 750 532
f 469 464 335
f 755 480 297
f 477 464 469
f 477 469 735
f 477 465 464
f 482 465 477
f 482 532 533
f 482 756 532
f 482 755 756
f 482 533 465
f 489 406 487
f 480 755 482
f 477 736 475
f 736 737 475
f 477 735 736
f 780 642 488
f 848 486 583
f 584 583 486
f 259 488 642
f 578 140 139
f 789 643 640
f 640 643 780
f 578 848 140
f 579 578 139
f 640 780 488
f 578 486 848
f 578 488 486
f 251 257 643
f 251 643 789
f 640 488 578
f 101 640 578
f 641 640 101
f 864 579 139
f 864 139 141
f 246 257 251
f 246 256 257
f 864 141 138
f 98 864 138
f 626 641 627
f 581 101 96
f 627 641 101
f 580 627 101
f 580 101 581
f 628 627 580
f 127 628 580
f 626 792 641
f 629 628 127
f 126 629 127
f 630 629 126
f 125 630 126
f 631 630 125
f 124 631 125
f 632 631 124
f 626 245 792
f 123 632 124
f 582 581 96
f 633 632 123
f 122 633 123
f 634 633 122
f 582 96 100
f 121 634 122
f 237 245 626
f 562 634 121
f 561 635 634
f 561 634 562
f 563 121 120
f 563 562 121
f 560 636 635
f 560 635 561
f 564 119 118
f 564 120 119
f 564 563 120
f 559 637 636
f 559 638 637
f 559 636 560
f 565 118 117
f 565 564 118
f 558 638 559
f 566 565 117
f 557 639 638
f 557 638 558
f 567 117 116
f 567 566 117
f 81 238 639
f 81 225 238
f 81 639 557
f 484 98 138
f 484 584 486
f 484 138 584
f 484 100 98
f 490 256 246
f 490 259 256
f 568 116 115
f 568 567 116
f 82 225 81
f 569 115 114
f 569 568 115
f 80 226 225
f 80 225 82
f 570 114 113
f 570 569 114
f 79 227 226
f 79 226 80
f 571 113 112
f 571 570 113
f 78 228 227
f 78 227 79
f 572 112 111
f 572 571 112
f 77 228 78
f 77 229 228
f 573 111 110
f 573 572 111
f 76 229 77
f 76 230 229
f 479 100 484
f 594 110 109
f 594 573 110
f 610 230 76
f 610 76 75
f 593 574 573
f 593 573 594
f 609 230 610
f 609 231 230
f 595 109 108
f 595 594 109
f 807 610 75
f 608 231 609
f 608 232 231
f 592 575 574
f 592 574 593
f 611 74 73
f 611 75 74
f 611 807 75
f 596 108 107
f 596 595 108
f 591 576 575
f 591 577 576
f 591 575 592
f 607 232 608
f 607 233 232
f 597 107 106
f 597 596 107
f 612 611 73
f 606 233 607
f 606 234 233
f 590 577 591
f 598 106 105
f 598 597 106
f 613 73 72
f 613 612 73
f 605 235 234
f 605 234 606
f 589 876 577
f 589 61 876
f 589 577 590
f 614 613 72
f 614 72 71
f 599 105 104
f 599 598 105
f 179 61 589
f 219 236 235
f 219 235 605
f 615 70 69
f 615 71 70
f 615 614 71
f 600 599 104
f 600 104 100
f 178 85 61
f 178 62 85
f 178 61 179
f 218 237 236
f 218 236 219
f 601 600 100
f 616 615 69
f 177 62 178
f 617 616 69
f 617 69 68
f 176 86 62
f 176 63 86
f 176 62 177
f 618 68 67
f 618 617 68
f 175 63 176
f 619 67 66
f 619 618 67
f 174 64 63
f 174 63 175
f 620 66 65
f 620 619 66
f 173 65 64
f 173 64 174
f 173 620 65
f 621 620 173
f 172 621 173
f 622 621 172
f 171 622 172
f 623 622 171
f 170 623 171
f 624 623 170
f 169 624 170
f 625 624 169
f 168 625 169
f 213 625 168
f 167 213 168
f 214 213 167
f 166 214 167
f 216 813 217
f 586 601 100
f 586 183 601
f 813 246 245
f 813 218 217
f 813 245 237
f 813 237 218
f 587 100 479
f 587 586 100
f 161 183 586
f 207 476 490
f 207 490 246
f 207 246 813
f 588 587 479
f 815 216 215
f 161 166 183
f 204 215 214
f 204 815 215
f 204 166 161
f 204 214 166
f 160 204 161
f 603 207 202
f 820 603 202
f 843 840 588
f 602 207 603
f 843 588 479
f 602 476 207
f 145 588 840
f 145 833 588
f 820 202 205
f 585 843 479
f 191 476 602
f 604 820 205
f 152 833 145
f 152 157 833
f 604 205 204
f 193 604 204
f 147 585 479
f 481 152 149
f 481 157 152
f 481 160 157
f 481 204 160
f 481 149 147
f 478 193 204
f 478 190 193
f 478 204 481
f 479 481 147
f 478 476 191
f 478 191 190
f 490 488 259
f 478 481 482
f 478 482 477
f 490 476 475
f 490 475 489
f 485 488 487
f 486 488 485
f 480 484 483
f 479 484 480
f 37 646 767
f 646 282 767
f 37 767 272
f 645 282 646
f 644 37 272
f 280 282 645
f 769 644 272
f 769 280 645
f 769 645 644
f 6 774 775
f 7 6 775
f 7 775 776
f 649 774 6
f 447 774 649
f 447 649 648
f 268 7 776
f 268 647 7
f 268 447 648
f 268 648 647
f 53 52 677
f 52 439 677
f 53 677 672
f 651 439 52
f 443 439 651
f 672 650 53
f 442 650 672
f 443 651 650
f 442 443 650
f 2 1 284
f 2 284 759
f 2 759 760
f 653 284 1
f 653 474 284
f 291 474 653
f 761 2 760
f 761 652 2
f 291 652 761
f 291 653 652
f 57 56 691
f 57 691 738
f 56 332 691
f 57 738 741
f 655 332 56
f 741 654 57
f 330 654 741
f 331 332 655
f 331 654 330
f 331 655 654
f 48 657 688
f 657 312 688
f 48 688 748
f 49 48 748
f 312 657 656
f 311 49 748
f 311 312 656
f 311 656 49
f 32 686 753
f 32 31 686
f 31 303 686
f 658 303 31
f 33 753 299
f 33 32 753
f 300 33 299
f 300 303 658
f 300 658 33
f 44 661 718
f 661 373 718
f 660 373 661
f 44 718 720
f 375 373 660
f 720 659 44
f 376 659 720
f 375 660 659
f 376 375 659
f 27 26 725
f 26 344 725
f 663 344 26
f 27 725 727
f 346 344 663
f 727 662 27
f 347 662 727
f 347 346 663
f 347 663 662
f 22 21 731
f 22 731 732
f 21 337 731
f 21 467 337
f 22 732 733
f 467 21 665
f 733 664 22
f 466 664 733
f 466 467 665
f 466 665 664
f 41 40 685
f 41 685 713
f 40 394 685
f 667 394 40
f 41 713 395
f 396 394 667
f 395 666 41
f 395 667 666
f 395 396 667
f 18 670 704
f 670 404 704
f 18 704 706
f 669 404 670
f 668 18 706
f 401 668 706
f 403 404 669
f 403 668 401
f 403 669 668
f 12 11 700
f 11 410 700
f 13 12 700
f 410 11 671
f 413 13 700
f 411 410 671
f 413 411 671
f 413 671 13
f 288 766 761
f 286 287 760
f 286 760 759
f 398 706 705
f 397 705 704
f 679 334 733
f 681 680 732
f 342 341 727
f 339 342 726
f 465 338 344
f 371 370 720
f 462 349 717
f 462 717 373
f 408 683 700
f 684 408 700
f 379 395 714
f 391 379 714
f 392 391 714
f 378 392 713
f 685 378 713
f 377 378 685
f 394 377 685
f 393 377 394
f 292 293 299
f 292 299 754
f 294 292 754
f 294 754 753
f 296 294 752
f 296 752 686
f 454 296 686
f 298 454 686
f 304 305 748
f 261 264 262
f 315 316 741
f 314 315 741
f 314 741 740
f 739 314 740
f 691 329 738
f 445 329 691
f 677 439 438
f 675 677 676
f 673 675 674
f 677 675 673
f 672 677 673
f 672 416 442
f 692 415 438
f 693 491 692
f 694 493 492
f 694 492 693
f 693 692 440
f 695 494 694
f 695 694 693
f 695 495 494
f 695 693 443
f 695 496 495
f 695 497 496
f 695 443 696
f 696 497 695
f 697 499 498
f 697 498 696
f 697 696 441
f 697 500 499
f 698 501 697
f 698 502 501
f 698 503 502
f 698 504 503
f 698 697 441
f 698 505 504
f 698 441 442
f 698 506 505
f 698 699 506
f 416 698 442
f 416 699 698
f 684 410 461
f 700 410 684
f 701 700 683
f 413 701 683
f 413 700 701
f 460 702 461
f 459 702 460
f 414 459 411
f 703 459 414
f 412 703 414
f 412 406 703
f 678 405 471
f 704 404 405
f 704 405 678
f 704 678 397
f 706 704 705
f 706 400 401
f 708 707 471
f 470 708 471
f 709 708 470
f 709 470 404
f 709 404 402
f 709 710 708
f 711 710 709
f 711 402 403
f 711 709 402
f 712 710 711
f 712 403 401
f 712 711 403
f 714 713 392
f 714 395 713
f 393 508 507
f 458 509 508
f 458 508 393
f 458 510 509
f 458 511 510
f 458 512 511
f 457 513 512
f 457 514 513
f 457 512 458
f 457 515 514
f 715 457 458
f 457 516 515
f 457 517 516
f 457 518 517
f 457 715 396
f 455 518 457
f 455 716 518
f 379 716 455
f 716 379 391
f 718 373 717
f 718 717 349
f 719 718 682
f 720 718 719
f 720 719 371
f 720 370 376
f 519 348 462
f 370 350 521
f 721 462 373
f 722 721 374
f 520 370 521
f 723 370 520
f 724 344 338
f 725 724 338
f 725 344 724
f 726 725 339
f 727 725 726
f 727 726 342
f 728 727 341
f 727 728 347
f 729 464 345
f 729 345 463
f 732 731 681
f 679 732 680
f 679 733 732
f 734 735 469
f 734 469 468
f 736 735 734
f 736 734 468
f 736 468 467
f 737 467 466
f 737 736 467
f 737 466 336
f 336 334 737
f 336 733 334
f 740 738 739
f 741 738 740
f 330 741 316
f 743 742 332
f 743 744 742
f 742 523 522
f 744 523 742
f 744 524 523
f 744 525 524
f 444 744 743
f 744 526 525
f 746 526 744
f 746 527 526
f 746 528 527
f 444 746 744
f 746 529 528
f 746 444 331
f 745 530 746
f 316 531 745
f 316 745 746
f 688 313 689
f 313 688 312
f 687 688 308
f 747 688 687
f 748 747 304
f 747 748 688
f 749 748 305
f 748 749 311
f 450 309 689
f 450 750 309
f 750 450 312
f 750 312 449
f 751 532 750
f 751 750 449
f 751 449 310
f 751 534 532
f 534 310 311
f 534 751 310
f 686 303 298
f 753 686 752
f 752 294 753
f 299 753 754
f 453 755 454
f 453 454 303
f 756 755 453
f 756 453 303
f 452 756 303
f 452 451 756
f 451 757 756
f 758 757 451
f 758 451 301
f 758 293 757
f 284 290 283
f 759 284 285
f 288 760 287
f 761 760 288
f 762 283 290
f 762 290 474
f 763 762 474
f 763 764 762
f 473 764 763
f 473 763 291
f 473 765 764
f 765 473 472
f 472 766 765
f 767 282 270
f 767 270 271
f 272 767 271
f 769 272 768
f 769 768 277
f 769 277 276
f 535 269 279
f 277 273 554
f 770 535 279
f 770 536 535
f 770 537 536
f 772 538 537
f 772 539 538
f 772 537 770
f 772 770 282
f 772 282 281
f 771 541 540
f 771 540 772
f 771 542 541
f 771 772 281
f 771 543 542
f 771 544 543
f 771 281 280
f 771 545 544
f 771 546 545
f 773 771 280
f 773 547 546
f 773 546 771
f 773 549 548
f 773 550 549
f 773 551 550
f 773 552 551
f 276 552 773
f 276 553 552
f 276 773 448
f 276 554 553
f 276 277 554
f 774 267 261
f 262 774 261
f 775 774 262
f 775 262 690
f 776 775 690
f 268 776 263
f 777 555 266
f 777 279 555
f 266 261 267
f 777 266 267
f 778 777 447
f 779 447 446
f 779 778 447
f 779 446 268
f 779 263 556
f 779 268 263
f 642 260 259
f 642 785 260
f 642 255 785
f 642 254 255
f 780 254 642
f 780 252 254
f 781 780 643
f 781 252 780
f 782 781 643
f 781 253 252
f 782 253 781
f 782 643 257
f 782 257 786
f 782 786 253
f 783 260 785
f 786 784 253
f 256 783 784
f 258 783 256
f 260 783 258
f 14 254 253
f 14 253 784
f 15 254 14
f 787 14 784
f 255 254 15
f 255 15 16
f 783 787 784
f 785 255 16
f 783 16 787
f 783 785 16
f 788 251 789
f 790 788 789
f 788 241 795
f 790 241 788
f 790 789 640
f 790 244 241
f 244 790 640
f 244 640 641
f 791 243 244
f 791 244 641
f 791 242 243
f 791 641 792
f 792 242 791
f 795 241 793
f 248 794 247
f 249 794 248
f 250 794 249
f 250 793 794
f 788 793 250
f 788 795 793
f 19 243 242
f 19 241 243
f 19 242 247
f 20 241 19
f 796 19 247
f 794 796 247
f 241 20 17
f 794 17 796
f 793 241 17
f 793 17 794
f 798 797 626
f 798 224 797
f 798 626 627
f 627 628 629
f 799 798 627
f 627 629 630
f 799 223 798
f 799 627 630
f 799 630 631
f 799 631 632
f 799 221 223
f 799 632 633
f 799 633 634
f 637 634 635
f 637 799 634
f 637 635 636
f 238 799 637
f 799 222 221
f 238 222 799
f 238 638 639
f 238 637 638
f 803 802 800
f 238 801 222
f 240 801 238
f 240 803 801
f 797 800 802
f 797 224 800
f 42 222 805
f 42 223 222
f 805 222 801
f 803 805 801
f 803 804 805
f 224 223 42
f 224 42 43
f 800 224 43
f 800 804 803
f 800 43 804
f 605 806 219
f 215 625 213
f 806 605 606
f 806 606 607
f 807 607 608
f 807 806 607
f 807 608 609
f 807 609 610
f 807 212 806
f 612 807 611
f 807 208 212
f 616 612 613
f 616 208 807
f 616 807 612
f 616 613 614
f 616 614 615
f 616 209 208
f 616 617 618
f 616 618 619
f 616 619 620
f 808 620 621
f 808 616 620
f 808 209 616
f 808 621 622
f 808 622 623
f 808 623 624
f 808 211 209
f 808 625 215
f 808 624 625
f 212 210 806
f 46 209 45
f 45 209 211
f 46 208 209
f 45 211 810
f 46 212 208
f 812 45 810
f 812 810 809
f 47 212 46
f 210 212 47
f 210 812 809
f 210 811 812
f 210 47 811
f 207 198 201
f 813 198 207
f 814 813 216
f 814 198 813
f 815 814 216
f 814 200 198
f 814 199 200
f 815 199 814
f 815 197 199
f 204 197 815
f 204 203 197
f 816 206 201
f 817 203 205
f 29 197 28
f 29 199 197
f 29 200 199
f 28 197 203
f 819 28 203
f 200 29 30
f 817 819 203
f 201 200 30
f 817 818 819
f 816 201 30
f 816 30 818
f 816 818 817
f 603 821 192
f 603 189 821
f 603 186 189
f 603 820 186
f 820 187 186
f 604 187 820
f 604 188 187
f 193 188 604
f 823 188 185
f 194 185 193
f 194 823 185
f 194 822 823
f 195 822 194
f 195 821 822
f 192 821 195
f 24 188 23
f 24 187 188
f 23 188 823
f 825 23 823
f 24 186 187
f 186 24 25
f 822 825 823
f 822 824 825
f 821 186 25
f 821 25 824
f 821 824 822
f 590 179 589
f 163 179 590
f 163 591 592
f 163 590 591
f 163 592 593
f 163 165 179
f 163 593 594
f 163 594 595
f 163 595 596
f 826 596 597
f 826 163 596
f 826 597 598
f 164 165 163
f 164 163 826
f 826 598 599
f 600 826 599
f 164 826 600
f 827 164 600
f 827 600 601
f 828 827 601
f 828 183 182
f 828 601 183
f 180 829 181
f 828 182 181
f 175 829 180
f 179 829 175
f 165 829 179
f 59 828 58
f 59 164 828
f 58 828 181
f 59 165 164
f 830 58 181
f 165 59 60
f 829 165 60
f 181 60 830
f 829 60 181
f 831 158 161
f 831 161 586
f 587 156 831
f 587 831 586
f 587 153 156
f 832 153 587
f 832 587 588
f 159 832 588
f 832 155 153
f 159 588 833
f 159 155 832
f 159 836 155
f 157 836 159
f 157 835 836
f 162 834 835
f 158 834 162
f 154 834 158
f 50 153 155
f 51 153 50
f 838 50 155
f 838 155 836
f 51 154 153
f 835 838 836
f 835 837 838
f 834 154 51
f 834 837 835
f 834 51 837
f 839 145 840
f 841 839 840
f 839 143 144
f 841 143 839
f 843 841 840
f 842 143 841
f 842 841 843
f 844 843 585
f 142 842 843
f 844 142 843
f 844 148 142
f 844 585 147
f 844 147 148
f 151 846 845
f 150 151 148
f 846 151 152
f 146 846 152
f 845 846 146
f 144 845 146
f 839 144 146
f 34 142 148
f 34 143 142
f 35 143 34
f 847 34 148
f 847 148 151
f 144 143 35
f 151 36 847
f 845 144 35
f 845 35 36
f 845 36 151
f 849 848 583
f 849 853 848
f 849 137 853
f 850 849 583
f 850 137 849
f 850 583 584
f 850 136 137
f 850 135 136
f 584 135 850
f 851 584 138
f 851 135 584
f 851 134 135
f 851 138 141
f 141 134 851
f 855 135 134
f 141 855 134
f 4 136 135
f 4 135 3
f 3 135 855
f 856 3 855
f 4 137 136
f 5 137 4
f 852 137 5
f 854 856 855
f 854 5 856
f 852 5 854
f 580 128 127
f 132 100 104
f 128 580 581
f 857 128 581
f 857 859 128
f 857 103 859
f 858 103 857
f 858 857 581
f 858 581 582
f 858 582 132
f 132 582 100
f 132 102 858
f 132 131 102
f 119 129 860
f 859 129 128
f 38 102 862
f 862 102 131
f 38 103 102
f 862 131 130
f 38 859 103
f 862 130 860
f 859 38 39
f 860 861 862
f 129 859 39
f 129 39 861
f 129 861 860
f 97 101 578
f 863 97 578
f 579 93 863
f 579 863 578
f 579 95 93
f 864 95 579
f 98 95 864
f 98 94 95
f 98 99 94
f 865 863 93
f 867 94 99
f 97 865 866
f 9 94 8
f 9 93 94
f 8 94 867
f 869 8 867
f 10 93 9
f 865 93 10
f 866 869 867
f 866 868 869
f 865 868 866
f 865 10 868
f 54 89 871
f 54 90 89
f 54 91 90
f 871 89 872
f 54 88 91
f 55 88 54
f 872 870 871
f 92 88 55
f 83 870 872
f 92 870 83
f 92 55 870
f 872 70 83
f 84 872 89
f 557 82 81
f 85 876 61
f 558 82 557
f 873 559 560
f 873 558 559
f 873 560 561
f 873 561 562
f 873 562 563
f 873 88 558
f 873 563 564
f 873 564 565
f 873 91 88
f 874 565 566
f 874 873 565
f 874 91 873
f 874 566 567
f 874 567 568
f 874 568 569
f 874 90 91
f 875 569 570
f 875 874 569
f 875 570 571
f 875 571 572
f 875 90 874
f 875 572 573
f 875 89 90
f 875 573 574
f 875 574 575
f 876 575 576
f 876 875 575
f 876 576 577
f 876 89 875
f 876 84 89
f 655 60 654
f 655 830 60
f 655 58 830
f 56 58 655
f 650 870 55
f 651 870 650
f 651 871 870
f 52 871 651
f 49 837 51
f 656 837 49
f 656 838 837
f 657 838 656
f 657 50 838
f 659 811 47
f 659 812 811
f 660 812 659
f 660 45 812
f 661 45 660
f 666 804 43
f 667 804 666
f 667 805 804
f 40 805 667
f 644 861 39
f 645 861 644
f 645 862 861
f 646 862 645
f 658 36 33
f 658 847 36
f 31 847 658
f 31 34 847
f 662 818 30
f 663 818 662
f 663 819 818
f 26 819 663
f 26 28 819
f 664 824 25
f 665 824 664
f 665 825 824
f 21 825 665
f 21 23 825
f 669 17 668
f 669 796 17
f 670 796 669
f 670 19 796
f 671 16 13
f 671 787 16
f 11 787 671
f 11 14 787
f 647 10 7
f 647 868 10
f 648 868 647
f 648 869 868
f 649 869 648
f 649 8 869
f 6 8 649
f 653 5 652
f 653 856 5
f 653 3 856
f 1 3 653

