# https://github.com/mikedh/trimesh
v 0.00000000 -9.45857864 1.50000000
v 0.20424997 -9.45857864 1.48602892
v 0.40469516 -9.45857864 1.44437593
v 0.59760163 -9.45857864 1.37581695
v 0.77937593 -9.45857864 1.28162911
v 0.94663192 -9.45857864 1.16356694
v 1.09625395 -9.45857864 1.02382971
v 1.22545484 -9.45857864 0.86502048
v 1.33182783 -9.45857864 0.69009756
v 1.41339138 -9.45857864 0.50231942
v 1.46862613 -9.45857864 0.30518402
v 1.49650315 -9.45857864 0.10236362
v 1.49650315 -9.45857864 -0.10236362
v 1.46862613 -9.45857864 -0.30518402
v 1.41339138 -9.45857864 -0.50231942
v 1.33182783 -9.45857864 -0.69009756
v 1.22545484 -9.45857864 -0.86502048
v 1.09625395 -9.45857864 -1.02382971
v 0.94663192 -9.45857864 -1.16356694
v 0.77937593 -9.45857864 -1.28162911
v 0.59760163 -9.45857864 -1.37581695
v 0.40469516 -9.45857864 -1.44437593
v 0.20424997 -9.45857864 -1.48602892
v 0.00000000 -9.50804752 1.48881025
v -0.00000000 -9.50093725 -1.49395063
v 1.21867009 -9.50501325 0.85819965
v 0.39045663 -9.50960573 1.43703659
v 0.19838862 -9.50424695 1.47748881
v 0.19838863 -9.50424695 -1.47748881
v 0.39912573 -9.50349462 -1.43665323
v 0.58952029 -9.50502657 -1.36896302
v 0.77200908 -9.50351114 -1.27563975
v 0.93998816 -9.50397849 -1.15771340
v 1.07109461 -9.51075622 -1.03266029
v 1.21432278 -9.50503985 -0.86428047
v 1.32247855 -9.50358139 -0.68863737
v 1.40430415 -9.50398974 -0.50179442
v 1.45898785 -9.50499467 -0.30265427
v 1.48709120 -9.50502100 0.10117233
v 1.45110015 -9.50806426 0.33851958
v 1.40482968 -9.50501568 0.49812181
v 1.07460372 -9.50891882 1.03117516
v 0.93998816 -9.50397849 1.15771340
v 0.75951582 -9.51095846 1.27915142
v 0.59644585 -9.50501460 1.36597638
v 0.88879630 -9.99554785 -0.45011543
v 0.78906426 -9.98405266 -0.63956708
v 0.27380916 -9.99624831 -0.95656701
v 0.05365415 -9.98391189 -1.01509433
v 0.06686589 -9.99833582 -0.97754513
v 0.40731772 -9.99177826 -0.91737033
v 0.64880082 -9.99924730 -0.75228659
v 0.94654706 -9.99192024 -0.33351416
v 1.00152320 -9.99522684 0.00622206
v 0.86642150 -9.98298104 0.53351932
v 0.96362083 -9.99166364 0.28891758
v 0.74765021 -9.99772835 0.65381838
v 0.58117782 -9.98938328 0.82426305
v 0.34580456 -9.99585420 0.93739461
v 0.05365414 -9.98391189 1.01509433
v 0.11565728 -9.99929561 0.97257786
v 1.30948938 -9.50852835 0.71015860
v 1.48840962 -9.50927710 -0.06313006
v 0.96895140 -9.99657220 -0.24645037
v 1.08253175 -9.75000000 -0.62500000
v 0.50332814 -9.99581416 -0.86443268
v 0.32352381 -9.75000000 -1.20740728
v 0.00000000 0.00000000 -1.50000000
v 0.20424997 0.00000000 -1.48602892
v 0.40469516 0.00000000 -1.44437593
v 0.59760163 0.00000000 -1.37581695
v 0.77937593 0.00000000 -1.28162911
v 0.94663192 0.00000000 -1.16356694
v 1.09625395 0.00000000 -1.02382971
v 1.22545484 0.00000000 -0.86502048
v 1.33182783 0.00000000 -0.69009756
v 1.41339138 0.00000000 -0.50231942
v 1.46862613 0.00000000 -0.30518402
v 1.49650315 0.00000000 -0.10236362
v 1.49650315 0.00000000 0.10236362
v 1.46862613 0.00000000 0.30518402
v 1.41339138 0.00000000 0.50231942
v 1.33182783 0.00000000 0.69009756
v 1.22545484 0.00000000 0.86502048
v 1.09625395 0.00000000 1.02382971
v 0.94663192 0.00000000 1.16356694
v 0.77937593 0.00000000 1.28162911
v 0.59760163 0.00000000 1.37581695
v 0.40469516 0.00000000 1.44437593
v 0.20424997 0.00000000 1.48602892
v 0.00000000 0.00000000 1.50000000
v -0.00000000 1.33603310 -2.99405307
v 0.40184340 1.31964732 -2.96838655
v 1.18514858 1.32500853 -2.75079886
v 2.18511881 1.32920295 -2.04839724
v 2.44368312 1.31964725 -1.73239997
v 2.66076401 1.31882973 -1.37799714
v 2.82678277 1.20000000 -1.00463884
v 2.99300631 1.20000000 0.20472724
v 2.81974268 1.31815739 1.01200722
v 2.66365566 1.20000000 1.38019511
v 2.45090968 1.20000000 1.73004097
v 2.19250789 1.20000000 2.04765943
v 1.54864067 1.31815742 2.56453103
v 1.19520327 1.20000000 2.75163390
v 0.41032177 1.33270302 2.96595154
v 0.00000000 1.53646476 -2.95570357
v -0.00709479 1.78395367 -2.86386412
v 0.01031891 2.06402837 -2.67546411
v 0.00000000 2.23135934 -2.49138986
v 0.15898269 2.40207004 -2.19436594
v 0.31344613 2.45631566 -2.02223203
v 0.08192879 2.50008326 -1.74209899
v 0.15605005 2.50008326 1.73702896
v 1.64583014 2.50002087 -0.49587642
v -0.00000000 1.32375312 2.99594145
v 0.00000000 1.53646476 2.95570357
v -0.00821662 1.78205807 2.86588842
v 0.00000000 1.99138986 2.73135934
v 0.00000000 2.11923882 2.61923882
v 0.39878258 1.61888074 2.90635573
v 0.80731020 1.31851249 2.88505937
v 0.79743928 1.53646476 2.84609807
v 0.38478421 1.85000000 2.79951306
v 0.78269214 1.69748846 2.79346483
v 0.36264515 2.05920631 2.65460827
v 1.18065187 1.59848839 2.69401548
v 0.74939977 1.92397897 2.68028027
v 0.16918993 2.24466202 2.47346923
v 1.53573614 1.53646476 2.52541049
v 1.12581496 1.85000000 2.59188599
v 0.70666218 2.11923882 2.52211034
v 0.47146957 2.32775379 2.30440004
v 1.88707661 1.32404086 2.32652576
v 1.50733558 1.69748846 2.47870777
v 1.08817654 1.99138986 2.50523366
v 0.67216894 2.23135934 2.39900236
v 0.09713999 2.38427015 2.24301698
v 1.85448971 1.62701511 2.26861535
v 1.44474096 1.92397896 2.37870258
v 1.01639720 2.17972965 2.34813770
v 0.27720113 2.45899199 2.01678797
v -0.03231104 2.48896550 1.87996017
v 1.36091445 2.11923882 2.23792847
v 2.16259515 1.59446270 1.99598032
v 1.75518449 1.92397898 2.15982169
v 1.29448618 2.23135934 2.12869184
v 0.79781256 2.37580152 2.11887907
v 2.41472083 1.53646476 1.70449609
v 2.06522040 1.85000000 1.92878121
v 1.61222641 2.17972965 1.98684170
v 2.37006511 1.69748846 1.67297464
v 0.62661138 2.48878085 1.76797365
v 2.60810395 1.60059647 1.36042867
v 2.28106377 1.91885397 1.60114379
v 1.95659917 2.05920633 1.83034865
v 1.35051265 2.32775380 1.92578780
v 0.92783471 2.45614226 1.81628098
v 1.82079731 2.23135934 1.70050598
v 1.25419189 2.40358039 1.80374173
v 2.13983925 2.11923882 1.51046348
v 2.93206900 1.32404085 0.61380101
v 2.76879983 1.61021887 0.97617403
v 2.46969161 1.93089896 1.27127061
v 1.15964843 2.49627409 1.41104486
v 2.89388234 1.53646476 0.60135566
v 2.40213983 2.11503626 1.06652763
v 1.82000330 2.32775380 1.49001042
v 1.38345482 2.45614226 1.49860156
v 2.80812759 1.77636180 0.58460038
v 2.62845919 1.91885392 0.92634540
v 2.12704184 2.23441331 1.30066356
v 1.70104872 2.40207003 1.39533174
v 2.93515319 1.59848835 0.19113898
v 2.15451268 2.32775379 0.94372573
v 2.98901770 1.32441829 -0.19882116
v 2.67423047 1.99138986 0.55571148
v 1.65432368 2.48896550 0.89359241
v 2.81924536 1.85000000 0.19284167
v 2.56445505 2.11923882 0.53289989
v 1.73647045 2.45614226 1.06977767
v 2.93342642 1.31851250 -0.60854477
v 2.92283819 1.62701504 -0.20679643
v 2.67286701 2.05920636 0.18503595
v 2.40150024 2.22838701 0.69436810
v 2.01442521 2.40207004 0.88465158
v 2.77668969 1.92397892 -0.18840625
v 2.87236648 1.61888065 -0.59618969
v 2.48558185 2.23135934 0.17001846
v 2.78504398 1.53646476 -0.98980487
v 2.76672815 1.85000000 -0.57493272
v 2.32923164 2.32775380 0.32744930
v 1.96069996 2.45614226 0.56161331
v 2.73353982 1.69748846 -0.97150029
v 2.55292913 2.17972962 -0.17136793
v 2.17840101 2.40207003 0.30836088
v 1.79378705 2.49681840 0.28979968
v 2.60012673 1.63299163 -1.34727708
v 2.63015802 1.91103873 -0.93475837
v 2.62160377 2.06402838 -0.53423618
v 2.34452161 2.32583302 -0.16036967
v 2.36329935 2.28774217 -0.50117472
v 2.04214538 2.45519244 0.01983855
v 2.39462878 1.61299203 -1.69869034
v 2.46969161 1.93089896 -1.27127062
v 2.41170184 2.18008715 -0.85711903
v 2.18081477 2.40207003 -0.29079960
v 2.30862050 1.85000000 -1.62960230
v 2.32558343 2.11923882 -1.20502020
v 1.89544723 2.48285199 -0.35610327
v 1.88335670 1.32500854 -2.32904253
v 2.13677183 1.62701513 -2.00498224
v 2.19014712 2.05920626 -1.54327975
v 2.08186299 2.38154900 -0.85835766
v 1.86530889 1.53646476 -2.29277263
v 2.03500861 1.92397898 -1.89848420
v 2.14068957 2.29135234 -1.10921594
v 1.54867710 1.32500851 -2.56380007
v 2.03539051 2.23135934 -1.43673551
v 1.52987281 1.62487175 -2.50111605
v 1.81500135 1.78205808 -2.21791660
v 1.87536448 2.45614226 -0.80172435
v 1.88243512 2.17326383 -1.74241604
v 1.46825749 1.85000000 -2.41444657
v 1.68452095 2.07014672 -2.07055441
v 1.80701115 2.32706163 -1.50688433
v 0.79954297 1.32500853 -2.88655549
v 1.17642994 1.61021892 -2.68982913
v 1.57228610 2.23135934 -1.93259924
v 1.71223564 2.40207003 -1.38158117
v 1.48617056 2.49692359 -1.06736016
v 1.10909447 1.92423946 -2.55339155
v 1.40331765 2.05199607 -2.28876736
v 0.79834794 1.62487174 -2.82112262
v 0.76240063 1.85000000 -2.72104347
v 1.04350760 2.11923882 -2.40239544
v 1.34213461 2.33062766 -1.92392510
v 1.50633499 2.45671636 -1.38362257
v 0.40008124 1.60434708 -2.91080710
v 0.73691193 1.99138986 -2.63007313
v 1.15247697 2.23441330 -2.21084362
v 1.28734121 2.39988799 -1.78944457
v 0.68352908 2.17572087 -2.47098894
v 0.79449654 2.32775380 -2.21389212
v 0.38677379 1.91885393 -2.75994919
v 0.95481785 2.47985151 -1.70514975
v 0.35665297 2.11923882 -2.59484308
v 0.75033491 2.40358039 -2.06481937
v 0.32148105 2.28014632 -2.40763920
v 0.50801269 2.48897906 -1.81312104
v 1.78426590 0.00072259 -1.63718828
v 0.00565223 0.03396166 -2.56222453
v 0.10513662 0.10301581 -2.70517307
v -0.00490754 0.22400196 -2.84235428
v 0.00351867 0.36459650 -2.93572517
v 0.00000000 0.55585929 -2.99576685
v 2.82541059 0.58539859 1.00118878
v 2.99075420 0.58539857 0.20177533
v 2.82402379 0.58700152 -1.00530636
v 1.89520603 0.58749571 -2.32247808
v 0.81219882 0.54344580 -2.88210782
v 0.41093191 0.58539855 -2.96925225
v -0.00000000 0.06928051 2.64480026
v 0.00000001 0.19552800 2.81965107
v -0.00000000 0.36874701 2.93740041
v -0.00000000 0.54870764 2.99423323
v 0.27211259 0.00110977 2.40134185
v 0.17269654 0.02383829 2.52473373
v 0.36334809 0.06565065 2.61265695
v 0.75628864 0.00901897 2.35095987
v 0.38006256 0.16013516 2.75322795
v 0.39448432 0.28801049 2.86450142
v 0.74629517 0.13120742 2.64439536
v 0.40431534 0.44055960 2.93911412
v 0.40674689 0.59013837 2.97031714
v 0.78831782 0.32302383 2.80745237
v 0.94453853 0.05947962 2.45419897
v 0.80834900 0.54720823 2.88351775
v 1.12348756 0.18759803 2.57786305
v 1.51324228 0.04647805 2.11189711
v 1.40641200 0.10992685 2.32174685
v 1.17784612 0.39974084 2.70889354
v 1.29873356 0.01973486 2.16226295
v 1.19568094 0.58700143 2.74883580
v 1.48103475 0.22400198 2.42601280
v 1.73804035 0.13120742 2.12814452
v 1.56542300 0.00269214 1.85857249
v 1.53573653 0.39974085 2.52327941
v 1.95115389 0.03983890 1.70124787
v 1.55884408 0.58700144 2.56042113
v 1.84154608 0.32302383 2.26096036
v 2.08234038 0.00126675 1.21530708
v 1.89022344 0.54720822 2.32274796
v 2.05749895 0.18759806 1.91684649
v 2.15742804 0.06565064 1.51772932
v 2.15955991 0.39974088 2.01537261
v 2.23590131 0.02214821 1.15855067
v 2.19183125 0.58700145 2.04490268
v 2.29934585 0.18759804 1.61883012
v 2.44200534 0.13120741 1.25952100
v 2.41387219 0.39974088 1.70254128
v 2.44986397 0.58700147 1.72740202
v 2.58985595 0.32302384 1.34010445
v 2.39025144 0.04647805 1.01818940
v 2.55594743 0.10825688 0.90571920
v 2.65911961 0.54720825 1.37738363
v 2.70365204 0.25190382 0.95835736
v 2.59938092 0.06038552 0.40223319
v 2.79272059 0.43649249 0.99616951
v 2.40884729 0.00901982 0.57494220
v 2.75392970 0.18759805 0.56874738
v 2.86988627 0.35802312 0.59999239
v 2.74671280 0.13545934 0.17636341
v 2.93264520 0.54344576 0.60481772
v 2.88184527 0.28455052 0.20087055
v 2.55377207 0.03090051 -0.06523493
v 2.70578007 0.10805665 -0.18508043
v 2.95731431 0.43350423 0.20228583
v 2.40323013 0.00129705 -0.26750258
v 2.83539319 0.22400195 -0.19886521
v 2.47989773 0.02320318 -0.54005648
v 2.94951077 0.40396282 -0.19566024
v 2.65240117 0.10832283 -0.56383998
v 2.99053190 0.59017640 -0.20761243
v 2.77800246 0.21733175 -0.57317490
v 2.49012125 0.06695554 -0.87945757
v 2.86941180 0.35518177 -0.59627064
v 2.23869141 0.00104570 -0.90914087
v 2.93081536 0.54344576 -0.61362339
v 2.61994536 0.16336806 -0.93720024
v 2.72432757 0.28801050 -0.96903334
v 2.26695936 0.06787594 -1.36840788
v 2.79537951 0.44055968 -0.99383915
v 2.46698392 0.16013518 -1.28011801
v 2.56667363 0.28455052 -1.32573286
v 2.63167158 0.43756407 -1.36790964
v 2.29536440 0.18759804 -1.62447056
v 2.05711134 0.02563434 -1.49645968
v 2.66168664 0.58364849 -1.37769023
v 1.74322862 0.05918465 -1.96791114
v 2.41259471 0.39974090 -1.70435106
v 2.00457523 0.13120742 -1.87921832
v 2.45152374 0.58749575 -1.72503383
v 2.13267320 0.31802376 -1.98358423
v 1.73277497 0.13432033 -2.12986656
v 2.19145539 0.54344577 -2.04052338
v 1.80842063 0.25190379 -2.22661130
v 1.17893234 0.04647805 -2.31519549
v 1.43107590 0.12797201 -2.33966264
v 1.87204361 0.44055964 -2.30158978
v 1.32233942 0.01973486 -2.14790791
v 1.50017380 0.28190469 -2.46693074
v 1.07803178 0.10825687 -2.48818045
v 0.97842770 0.00510540 -2.23923586
v 1.53780739 0.43756409 -2.53614285
v 1.56130992 0.58749572 -2.55891024
v 1.14996725 0.25546998 -2.63133275
v 0.23452054 0.00122671 -2.40367290
v 1.17902560 0.44489050 -2.72368125
v 0.75315756 0.15751679 -2.67173888
v 0.62569820 0.04003019 -2.51176211
v 1.19832956 0.58749572 -2.74767476
v 0.77315112 0.25430507 -2.75941250
v 0.35386229 0.04947830 -2.57453939
v 0.79069619 0.35518182 -2.82203162
v 0.39008187 0.19074050 -2.78851862
v 0.40210848 0.40018428 -2.92555646
v 0.65713798 2.49965369 1.23548229
v 0.43267113 2.50005216 1.33338110
v 0.50887668 2.41918263 1.20102521
v 0.27259853 2.26688679 1.08938644
v 0.02877545 2.20191926 1.04745240
v 0.00000000 1.00000000 -0.30000000
v 0.05852710 1.00000000 -0.29423558
v 0.11480503 1.00000000 -0.27716386
v 0.16667107 1.00000000 -0.24944088
v 0.21213203 1.00000000 -0.21213203
v 0.24944088 1.00000000 -0.16667107
v 0.27716386 1.00000000 -0.11480503
v 0.29423558 1.00000000 -0.05852710
v 0.30000000 1.00000000 0.00000000
v 0.29423558 1.00000000 0.05852710
v 0.27716386 1.00000000 0.11480503
v 0.24944088 1.00000000 0.16667107
v 0.21213203 1.00000000 0.21213203
v 0.16667107 1.00000000 0.24944088
v 0.11480503 1.00000000 0.27716386
v 0.05852710 1.00000000 0.29423558
v 0.00000000 1.00000000 0.30000000
v 0.00000000 2.50000000 -0.30000000
v 0.05852710 2.50000000 -0.29423558
v 0.11480503 2.50000000 -0.27716386
v 0.16667107 2.50000000 -0.24944088
v 0.21213203 2.50000000 -0.21213203
v 0.24944088 2.50000000 -0.16667107
v 0.27716386 2.50000000 -0.11480503
v 0.29423558 2.50000000 -0.05852710
v 0.30000000 2.50000000 0.00000000
v 0.29423558 2.50000000 0.05852710
v 0.27716386 2.50000000 0.11480503
v 0.24944088 2.50000000 0.16667107
v 0.21213203 2.50000000 0.21213203
v 0.16667107 2.50000000 0.24944088
v 0.11480503 2.50000000 0.27716386
v 0.05852710 2.50000000 0.29423558
v 0.00000000 2.50000000 0.30000000
v 0.78512712 0.99999901 1.09416000
v 0.77978336 2.46995121 1.12307278
v 0.64531220 0.99999619 1.23423619
v 0.74138311 0.99999230 1.18126949
v -0.57146948 0.99999547 1.23466213
v -0.58733508 2.47161521 1.23634595
v 0.05711790 1.00000039 -1.05049985
v -0.15402895 1.00000002 -1.06141164
v -0.36322501 1.00000043 -1.12261798
v -0.58703192 2.47200908 -1.23688433
v -0.35869582 2.31042413 -1.12036798
v -0.17077635 2.22925185 -1.06448053
v -0.70000000 2.50000000 -1.21243557
v -0.57703298 1.00000191 -1.23642835
v -0.70165241 1.00000953 -1.21531808
v -0.78221489 1.00000199 -1.11804451
v -0.77776870 2.47195006 -1.12664324
v 0.57668966 1.00000232 -1.23638889
v 0.31480393 1.00000018 -1.10098624
v 0.58662783 2.47189067 -1.23688476
v 0.06320603 2.20602704 -1.04947532
v 0.34042857 2.29800977 -1.11087004
v 0.69248294 2.49895855 -1.21860409
v 0.77765880 2.47200809 -1.12682397
v 0.78213376 1.00000237 -1.11823290
v 0.70167014 1.00000680 -1.21530785
v -1.36468759 2.47200810 -0.11006029
v -1.35948496 1.00000276 -0.11823127
v -1.40332253 1.00000794 -0.00001024
v -1.35936238 1.00000199 0.11839572
v -1.36458602 2.47195006 0.11024584
v -1.13171547 2.29808755 -0.26133623
v -0.92021775 2.19785129 -0.49518243
v -0.79387197 2.28877938 -0.83272613
v -0.79226896 1.00000110 -0.86034632
v -0.85529140 0.99999965 -0.63016325
v -0.97715928 0.99999992 -0.42034129
v -1.14386046 1.00000002 -0.25412705
v -0.70000000 2.50000000 1.21243557
v -0.77751370 2.47229510 1.12736061
v -0.78177366 1.00000322 1.12011723
v -0.69865002 1.00000988 1.21701764
v -0.79218157 2.29808748 0.84942609
v -0.88894957 2.19785129 0.54934052
v -1.11809803 2.28877942 0.27115017
v -1.14121631 1.00000129 0.25595183
v -0.97338311 0.99999970 0.42562240
v -0.85260590 0.99999991 0.63607406
v -0.79201072 1.00000002 0.86354863
v 0.55363011 0.99999709 1.22695903
v -0.35101422 1.00000110 1.11747906
v -0.11948805 0.99999969 1.05600872
v 0.11936666 0.99999979 1.05587938
v 0.34953700 1.00000038 1.11657924
v -0.18480245 2.23400597 1.06762353
v -0.37954384 2.32426503 1.12936848
v 1.40000000 2.50000000 -0.00000000
v 1.36468759 2.47200810 0.11006029
v 1.35948496 1.00000207 0.11823127
v 1.40332253 1.00000794 0.00001024
v 1.35936238 1.00000256 -0.11839572
v 1.36458602 2.47195006 -0.11024584
v 1.13171547 2.29808755 0.26133623
v 0.92021775 2.19785129 0.49518243
v 0.80296050 2.27329718 0.79663523
v 0.79226896 1.00000129 0.86034632
v 0.85529140 0.99999965 0.63016325
v 0.97715928 0.99999992 0.42034129
v 1.14386046 1.00000003 0.25412705
v 0.79218157 2.29808748 -0.84942609
v 0.88894957 2.19785129 -0.54934052
v 1.11809803 2.28877942 -0.27115017
v 1.14121631 1.00000110 -0.25595183
v 0.97338311 0.99999970 -0.42562240
v 0.85260590 0.99999991 -0.63607406
v 0.79201072 1.00000002 -0.86354863
v -0.05852710 2.50000000 0.29423558
v -0.11480503 2.50000000 0.27716386
v -0.16667107 2.50000000 0.24944088
v -0.21213203 2.50000000 0.21213203
v -0.24944088 2.50000000 0.16667107
v -0.27716386 2.50000000 0.11480503
v -0.29423558 2.50000000 0.05852710
v -0.30000000 2.50000000 0.00000000
v -0.29423558 2.50000000 -0.05852710
v -0.27716386 2.50000000 -0.11480503
v -0.24944088 2.50000000 -0.16667107
v -0.21213203 2.50000000 -0.21213203
v -0.16667107 2.50000000 -0.24944088
v -0.11480503 2.50000000 -0.27716386
v -0.05852710 2.50000000 -0.29423558
v -0.05852710 1.00000000 0.29423558
v -0.11480503 1.00000000 0.27716386
v -0.16667107 1.00000000 0.24944088
v -0.21213203 1.00000000 0.21213203
v -0.24944088 1.00000000 0.16667107
v -0.27716386 1.00000000 0.11480503
v -0.29423558 1.00000000 0.05852710
v -0.30000000 1.00000000 0.00000000
v -0.29423558 1.00000000 -0.05852710
v -0.27716386 1.00000000 -0.11480503
v -0.24944088 1.00000000 -0.16667107
v -0.21213203 1.00000000 -0.21213203
v -0.16667107 1.00000000 -0.24944088
v -0.11480503 1.00000000 -0.27716386
v -0.05852710 1.00000000 -0.29423558
v 0.91728355 2.50006234 -1.06094108
v 1.19642430 2.49963851 -0.72762302
v 1.36262045 2.50007279 -0.35815385
v 1.37744371 2.50006234 0.26392035
v 0.99148055 2.50007279 1.00098701
v 1.22835214 2.49963851 0.67232237
v 0.00152911 2.49992416 1.40847875
v -0.43392077 2.50004543 1.33228753
v -0.91728355 2.50006234 1.06094108
v -1.19642430 2.49963851 0.72762302
v -1.33399615 2.49998688 0.43765042
v -1.40158357 2.49895855 0.00959423
v -1.37744371 2.50006234 -0.26392035
v -1.22835214 2.49963851 -0.67232237
v -0.99148055 2.50007279 -1.00098701
v -0.46016012 2.50006234 -1.32486142
v -0.03614441 2.49954492 -1.39943048
v 0.30302288 2.49981347 -1.36734433
v -1.09363453 0.00048091 2.14782146
v -2.11709743 0.00124599 1.15587941
v -2.41118673 0.00204535 -0.33140995
v -0.20424997 0.00000000 1.48602892
v -0.40469516 0.00000000 1.44437593
v -0.59760163 0.00000000 1.37581695
v -0.77937593 0.00000000 1.28162911
v -0.94663192 0.00000000 1.16356694
v -1.09625395 0.00000000 1.02382971
v -1.22545484 0.00000000 0.86502048
v -1.33182783 0.00000000 0.69009756
v -1.41339138 0.00000000 0.50231942
v -1.46862613 0.00000000 0.30518402
v -1.49650315 0.00000000 0.10236362
v -1.49650315 0.00000000 -0.10236362
v -1.46862613 0.00000000 -0.30518402
v -1.41339138 0.00000000 -0.50231942
v -1.33182783 0.00000000 -0.69009756
v -1.22545484 0.00000000 -0.86502048
v -1.09625395 0.00000000 -1.02382971
v -0.94663192 0.00000000 -1.16356694
v -0.77937593 0.00000000 -1.28162911
v -0.59760163 0.00000000 -1.37581695
v -0.40469516 0.00000000 -1.44437593
v -0.20424997 0.00000000 -1.48602892
v -0.81109878 1.32599710 2.88333787
v -1.19520327 1.20000000 2.75163390
v -2.19115462 1.32599712 2.04214591
v -2.44881825 1.32599708 1.72476309
v -2.66086505 1.32599711 1.37525116
v -2.82334494 1.32599706 1.00012094
v -2.93323127 1.32599710 0.60636033
v -2.93132224 1.32920293 -0.61483770
v -2.81974268 1.31815739 -1.01200722
v -2.66365566 1.20000000 -1.38019511
v -2.45090968 1.20000000 -1.73004097
v -1.89311262 1.31972334 -2.32219522
v -1.55362900 1.32599709 -2.56081148
v -1.19046128 1.32599710 -2.74851241
v -0.80511754 1.32599710 -2.88501374
v -0.81024455 0.58700144 -2.88604486
v -1.89041073 0.58364848 -2.32571566
v -2.65911961 0.54720825 -1.37738363
v -2.82506386 0.58700151 -1.00237987
v -2.99037323 0.58539857 0.20734499
v -2.65874290 0.54720825 1.37811064
v -1.88621625 0.54344579 2.32559684
v -0.80756049 0.54720823 2.88373868
v -0.40540124 0.58539855 2.97001242
v -1.56297895 2.50002087 0.71536498
v -0.96374736 2.50002087 1.42332052
v -0.85715847 0.00233534 -2.28454564
v -0.38632645 0.18759806 -2.78538225
v -0.43989506 0.03983890 -2.55102690
v -0.40005204 0.36181916 -2.90676682
v -0.73000926 0.08369828 -2.57502083
v -0.40818104 0.54720824 -2.96673069
v -0.77619381 0.25190381 -2.76146814
v -1.11184139 0.03983890 -2.33774562
v -1.10878082 0.16013516 -2.54859113
v -0.80075885 0.44055961 -2.85668479
v -1.15268899 0.28801052 -2.65184737
v -1.37415235 0.06565065 -2.25160021
v -1.67034573 0.00209572 -1.77827325
v -1.18228574 0.44055961 -2.72104083
v -1.46404232 0.18759804 -2.40087117
v -1.19568094 0.58700143 -2.74883580
v -1.78354918 0.04826419 -1.89435836
v -1.53573653 0.39974085 -2.52327941
v -1.77311694 0.19038059 -2.17945350
v -1.98897633 0.00960557 -1.48276506
v -1.55884408 0.58700144 -2.56042113
v -1.82540401 0.28801051 -2.24251791
v -1.79327530 0.09812261 -2.01855930
v -2.06018226 0.18415986 -1.90959020
v -1.87257141 0.44055964 -2.30116039
v -2.15955991 0.39974088 -2.01537261
v -2.19134103 0.08369828 -1.53677269
v -2.18773041 0.58749573 -2.04927938
v -2.34232824 0.25546993 -1.66127510
v -2.42683315 0.44489059 -1.70851455
v -2.49836029 0.18759806 -1.29065806
v -2.31929824 0.02091051 -0.98525887
v -2.44844096 0.59013837 -1.73013405
v -2.38908953 0.05872198 -1.09304075
v -2.60544310 0.36181915 -1.34944476
v -2.56083688 0.11106169 -0.90271942
v -2.64739457 0.19038059 -0.94088426
v -2.72483692 0.28801051 -0.96760017
v -2.75245211 0.18415985 -0.56115327
v -2.79560736 0.44055968 -0.99319806
v -2.57229733 0.04817225 -0.41739212
v -2.89232515 0.39974086 -0.59990077
v -2.73573988 0.12797203 -0.19423418
v -2.51981476 0.02091051 0.02032040
v -2.93524176 0.58700147 -0.60836419
v -2.88052885 0.28190468 -0.19703358
v -2.66968670 0.08369829 0.19083696
v -2.95929518 0.43756413 -0.19860580
v -2.38277423 0.01094653 0.69428208
v -2.83358886 0.22045133 0.18453350
v -2.99074168 0.58700148 -0.20301581
v -2.94378583 0.39430975 0.20718842
v -2.61883547 0.08369829 0.55258179
v -2.80574108 0.24741981 0.57664884
v -2.90512929 0.44048487 0.60369280
v -2.51920029 0.08369829 0.90403306
v -2.67530530 0.22039687 0.95197202
v -2.93440804 0.59017638 0.61288941
v -2.78295755 0.39974086 0.99023885
v -2.34012668 0.06565065 1.21729424
v -2.49518398 0.18759805 1.29678806
v -2.82402379 0.58700152 1.00530636
v -2.60496350 0.36181914 1.35037034
v -1.66883324 0.00568777 1.78377999
v -2.24179140 0.13120743 1.58875887
v -2.04915215 0.02438382 1.50186949
v -2.38136108 0.32302381 1.68295962
v -1.95047120 0.08369828 1.83284148
v -2.44632649 0.54720819 1.72730699
v -2.09476709 0.25190379 1.95962595
v -1.55473406 0.05888421 2.11942404
v -2.16800706 0.44055964 2.02524275
v -1.77686653 0.18370586 2.17356137
v -1.42975763 0.02193498 2.07854032
v -2.18971139 0.58700145 2.04717250
v -1.84953593 0.35518180 2.27338507
v -1.42323311 0.13120741 2.35035971
v -1.50174639 0.28801051 2.47098040
v -1.54352949 0.43649244 2.53163160
v -1.07247985 0.10644584 2.48794999
v -1.13375269 0.21733174 2.60008305
v -0.90178031 0.02971793 2.38818429
v -1.55509478 0.58539852 2.56261666
v -0.55845326 0.06407409 2.58080908
v -1.16471999 0.35897097 2.69176634
v -1.19270786 0.54720822 2.74691658
v -0.75315756 0.15751679 2.67173888
v -0.77844441 0.31889027 2.80812184
v -0.39891973 0.01449799 2.47464975
v -0.37850815 0.15995641 2.75385136
v -0.39367581 0.28840960 2.86420426
v -0.40362853 0.43350416 2.93661563
v -0.40477597 1.32599713 -2.96777273
v -0.39878258 1.61888074 -2.90635573
v -0.38478421 1.85000000 -2.79951306
v -0.78494879 1.61021887 -2.82896158
v -0.75898441 1.91885392 -2.68157718
v -0.36264515 2.05920631 -2.65460827
v -1.16108894 1.62487178 -2.69220443
v -0.50124738 2.23441331 -2.44229066
v -1.12581496 1.85000000 -2.59188599
v -0.70666218 2.11923882 -2.52211034
v -0.17305692 2.33062767 -2.33941539
v -1.52366323 1.61888066 -2.50686691
v -1.08817654 1.99138986 -2.50523366
v -1.44474095 1.92397896 -2.37870259
v -1.01639720 2.17972965 -2.34813770
v -0.78086064 2.32775380 -2.21873831
v -2.19581127 1.31815748 -2.03801870
v -1.84702524 1.61021892 -2.28203108
v -0.43894569 2.40207004 -2.15588592
v -2.16013447 1.53646476 -2.01742476
v -0.39850218 2.45670449 -1.99846650
v -2.09556975 1.77636173 -1.95855197
v -1.76449232 1.91885393 -2.15719269
v -1.32297904 2.17326384 -2.19756729
v -2.40850866 1.59978946 -1.68742757
v -1.65297004 2.11923882 -2.03177312
v -1.00431948 2.40207003 -1.95751368
v -0.38375097 2.48907053 -1.84671110
v -1.95538229 2.05199609 -1.83962944
v -1.36778104 2.32383168 -1.92295829
v -0.92783472 2.45614226 -1.81628098
v -2.61130778 1.58613205 -1.36115392
v -2.26587562 1.92928338 -1.61054227
v -1.70919064 2.23918996 -1.80736544
v -1.57803094 2.38018785 -1.61048534
v -2.78504398 1.53646476 -0.98980487
v -2.13983925 2.11923882 -1.51046348
v -2.73353982 1.69748846 -0.97150029
v -2.47784022 1.91885395 -1.27562584
v -1.14464783 2.49777328 -1.41215341
v -2.86719801 1.63299154 -0.59581060
v -2.66267203 1.85000000 -0.94631387
v -2.32558343 2.11923882 -1.20502020
v -2.02065290 2.32383168 -1.21883363
v -1.37937401 2.45519244 -1.50601416
v -2.98805316 1.32599705 -0.20750148
v -2.57365317 1.99138986 -0.91467656
v -2.12922229 2.23354049 -1.29480878
v -2.72109349 1.93089890 -0.55781363
v -2.40275025 2.18398752 -0.86683794
v -2.98847705 1.32599706 0.20130438
v -2.92670140 1.61888065 -0.20087384
v -1.87520275 2.40207003 -1.15070937
v -1.51723769 2.48896550 -1.11053322
v -2.56445505 2.11923882 -0.53289989
v -1.73255013 2.45670448 -1.07281982
v -2.92679426 1.61888064 0.19951623
v -2.78042084 1.91614802 -0.19891536
v -2.89388234 1.53646476 0.60135566
v -2.30084761 2.32583302 -0.47812163
v -2.77405917 1.92928329 0.18065098
v -2.47368229 2.22838702 -0.36089661
v -2.15714818 2.38161694 -0.64299982
v -2.76443195 1.61888066 0.98175728
v -2.80855180 1.77636179 0.58255900
v -2.62817557 2.11503626 -0.02121603
v -1.96069996 2.45614226 -0.56161331
v -2.19522808 2.40355174 0.01105326
v -1.83406521 2.48896550 -0.41412445
v -2.62432551 1.53646476 1.35981588
v -2.62688643 2.05909733 0.52694204
v -2.34753273 2.33068323 0.01540303
v -2.62289108 1.92397897 0.93056152
v -2.47997933 2.22834986 0.33105724
v -2.39704436 1.61888073 1.69118584
v -2.54723056 1.77636172 1.31869438
v -2.46800638 2.11923882 0.87712968
v -2.04214538 2.45519244 -0.01983855
v -2.34753930 2.23135934 0.83431567
v -2.16013447 1.53646476 2.01742476
v -2.30862050 1.85000000 1.62960230
v -2.37989120 2.05920628 1.23068054
v -2.25527492 2.33062766 0.64540544
v -1.89267392 1.32599712 2.32148744
v -2.12018684 1.69748846 1.98011629
v -2.23143835 1.99138986 1.57512119
v -2.21206823 2.23135934 1.14620137
v -2.12090534 2.40207004 0.58504522
v -1.86530889 1.53646476 2.29277263
v -2.06522040 1.85000000 1.92878121
v -2.13983925 2.11923882 1.51046348
v -2.08653026 2.32583302 1.08115284
v -1.96661285 2.45670449 0.53395337
v -1.55893629 1.32599708 2.55758405
v -1.83081351 1.69748846 2.25037211
v -1.99617564 1.99138986 1.86429790
v -2.03539051 2.23135934 1.43673551
v -1.81052881 2.49728627 0.26139675
v -1.53573614 1.53646476 2.52541049
v -1.78334915 1.85000000 2.19203058
v -1.91423393 2.11923882 1.78776969
v -1.91987925 2.32583302 1.35519876
v -1.19077238 1.36968405 2.74143297
v -1.50733558 1.69748846 2.47870777
v -1.72372795 1.99138986 2.11874628
v -1.82079731 2.23135934 1.70050598
v -1.88441308 2.40207004 1.13556360
v -1.17755553 1.53646476 2.71100472
v -1.46825749 1.85000000 2.41444657
v -1.65297004 2.11923882 2.03177312
v -1.71746452 2.32583302 1.60399989
v -1.74872915 2.45614226 1.04961908
v -1.15577885 1.69748846 2.66086979
v -1.41917048 1.99138986 2.33372642
v -1.57228610 2.23135934 1.93259924
v -1.61242540 2.48890287 0.95395515
v -0.79743928 1.53646476 2.84609807
v -1.12581496 1.85000000 2.59188599
v -1.36091445 2.11923882 2.23792847
v -1.48305667 2.32583302 1.82292153
v -0.41391916 1.31964732 2.96672678
v -0.78269214 1.69748846 2.79346483
v -1.08817654 1.99138986 2.50523366
v -1.29448618 2.23135934 2.12869184
v -1.50075811 2.39987327 1.61719972
v -1.29525830 2.48890287 1.35360704
v -0.40246825 1.53646476 2.92817399
v -0.76240063 1.85000000 2.72104347
v -1.04350760 2.11923882 2.40239544
v -1.22102228 2.32583302 2.00788560
v -1.40069767 2.45614225 1.48249787
v -0.39502536 1.69748846 2.87402292
v -0.73691193 1.99138986 2.63007313
v -0.99257243 2.23135934 2.28513093
v -0.38478421 1.85000000 2.79951306
v -0.70666218 2.11923882 2.52211034
v -0.93624256 2.32583302 2.15544656
v -0.94151997 2.45433682 1.81705104
v -0.37192005 1.99138986 2.70591931
v -0.67216894 2.23135934 2.39900236
v -0.99656071 2.39988799 1.96627211
v -0.77861422 2.48896550 1.71144796
v -0.35665297 2.11923882 2.59484308
v -0.63402241 2.32583302 2.26285563
v -0.33924421 2.23135934 2.46818492
v -0.31999163 2.32583302 2.32811197
v -0.43894569 2.40207003 2.15588592
v -0.40340131 2.45614226 1.99925518
v -0.20424997 -9.45857864 -1.48602892
v -0.40469516 -9.45857864 -1.44437593
v -0.59760163 -9.45857864 -1.37581695
v -0.77937593 -9.45857864 -1.28162911
v -0.94663192 -9.45857864 -1.16356694
v -1.09625395 -9.45857864 -1.02382971
v -1.22545484 -9.45857864 -0.86502048
v -1.33182783 -9.45857864 -0.69009756
v -1.41339138 -9.45857864 -0.50231942
v -1.46862613 -9.45857864 -0.30518402
v -1.49466210 -9.47894130 -0.10303865
v -1.49650315 -9.45857864 0.10236362
v -1.46703548 -9.47894128 0.30403729
v -1.41339138 -9.45857864 0.50231942
v -1.33182783 -9.45857864 0.69009756
v -1.09625395 -9.45857864 1.02382971
v -0.94663192 -9.45857864 1.16356694
v -0.59760163 -9.45857864 1.37581695
v -0.40469516 -9.45857864 1.44437593
v -0.46416395 -9.98330801 -0.90485698
v -0.97827188 -9.98281637 -0.28084946
v -1.00608667 -9.98428352 0.13656417
v -0.93211020 -9.98417500 0.40300544
v -0.78906426 -9.98405266 0.63956708
v -0.58759188 -9.98391872 0.82877380
v -0.34263176 -9.98377536 0.95667390
v -0.13631358 -9.98326040 1.00541895
v -1.27740704 -9.53648647 0.71690340
v -0.59331256 -9.50397560 -1.36815958
v -0.39912575 -9.50349462 -1.43665322
v -0.19838861 -9.50424695 -1.47748881
v -0.32352381 -9.75000000 -1.20740728
v -0.62500000 -9.75000000 -1.08253175
v -0.88388348 -9.75000000 -0.88388348
v -1.08253175 -9.75000000 -0.62500000
v -1.20740728 -9.75000000 -0.32352381
v -1.01737692 -9.98201997 -0.02689716
v -1.20740728 -9.75000000 0.32352381
v -0.88388348 -9.75000000 0.88388348
v -0.62500000 -9.75000000 1.08253175
v -0.32352381 -9.75000000 1.20740728
v -0.09909332 -9.99942982 0.97025141
v -0.26560428 -9.99659258 0.94795408
v -0.39594448 -9.99882000 0.89337498
v -0.51150990 -9.99659258 0.84114220
v -0.66017049 -9.99824355 0.72559153
v -0.80427463 -9.99659258 0.56771903
v -0.91912677 -9.99843973 0.35231125
v -0.98216554 -9.99659258 0.06718196
v -0.97613555 -9.99910114 -0.01269031
v -0.94796337 -9.99824354 -0.25233629
v -0.87408797 -9.99659258 -0.45291588
v -0.86642150 -9.98298104 -0.53351932
v -0.80431002 -9.99884459 -0.55336010
v -0.71947917 -9.99659258 -0.67194664
v -0.69073602 -9.98314522 -0.74676144
v -0.56649075 -9.99950799 -0.79471174
v -0.46442523 -9.99661646 -0.87030550
v -0.26033818 -9.99890845 -0.94119128
v -0.20529794 -9.98247866 -0.99687787
v -0.13405069 -9.99659258 -0.97529123
v -0.20265672 -9.49844347 1.48075826
v -0.39912573 -9.50349462 1.43665323
v -0.58952029 -9.50502657 1.36896302
v -0.77678968 -9.49785041 1.27704154
v -0.93654647 -9.50503263 1.15950780
v -1.08759870 -9.50354009 1.01997527
v -1.21969957 -9.49934559 0.86340976
v -1.32353330 -9.49719029 0.69109737
v -1.40229081 -9.50504851 0.50509668
v -1.45255334 -9.51383407 0.30250130
v -1.48652199 -9.50505905 0.10850897
v -1.47954156 -9.51502889 -0.10236950
v -1.46060658 -9.50365568 -0.29949507
v -1.40482968 -9.50501568 -0.49812181
v -1.32560874 -9.50359814 -0.68257028
v -1.21867009 -9.50501325 -0.85819965
v -1.09376368 -9.48446055 -1.02150397
v -1.08543485 -9.51373776 -1.01163030
v -0.93884947 -9.50639081 -1.15636572
v -0.77779728 -9.50351966 -1.27211274
f 29 25 23
f 30 23 22
f 30 29 23
f 31 22 21
f 31 30 22
f 32 21 20
f 32 31 21
f 33 19 18
f 33 20 19
f 33 32 20
f 34 33 18
f 35 18 17
f 35 34 18
f 36 17 16
f 36 35 17
f 37 15 14
f 37 16 15
f 37 36 16
f 38 37 14
f 63 14 13
f 63 38 14
f 39 13 12
f 39 63 13
f 40 12 11
f 40 39 12
f 41 11 10
f 41 40 11
f 62 10 9
f 62 41 10
f 26 9 8
f 26 62 9
f 42 8 7
f 42 26 8
f 43 6 5
f 43 7 6
f 43 42 7
f 44 43 5
f 45 5 4
f 45 44 5
f 27 3 2
f 27 4 3
f 27 45 4
f 28 2 1
f 28 1 24
f 28 27 2
f 48 50 49
f 51 66 48
f 46 52 47
f 53 64 46
f 56 57 54
f 57 56 55
f 58 59 57
f 61 59 60
f 27 60 59
f 27 28 24
f 27 24 60
f 44 59 58
f 44 27 59
f 44 45 27
f 42 44 58
f 42 58 57
f 42 57 55
f 42 43 44
f 62 55 56
f 62 26 42
f 62 42 55
f 40 62 56
f 40 56 54
f 40 41 62
f 63 39 40
f 63 40 54
f 64 37 38
f 64 38 63
f 64 63 54
f 65 53 46
f 65 46 47
f 65 35 36
f 65 36 37
f 65 37 64
f 65 64 53
f 34 47 52
f 34 65 47
f 34 35 65
f 66 31 32
f 66 32 33
f 66 33 34
f 66 34 52
f 67 66 51
f 67 51 48
f 67 48 49
f 67 49 25
f 67 25 29
f 67 29 30
f 67 30 31
f 67 31 66
f 90 1 2
f 90 91 1
f 89 2 3
f 89 90 2
f 88 3 4
f 88 89 3
f 87 4 5
f 87 88 4
f 86 5 6
f 86 87 5
f 85 6 7
f 85 86 6
f 84 7 8
f 84 85 7
f 83 8 9
f 83 84 8
f 82 9 10
f 82 83 9
f 81 10 11
f 81 82 10
f 80 11 12
f 80 81 11
f 79 80 12
f 79 12 13
f 78 79 13
f 78 13 14
f 77 78 14
f 77 14 15
f 76 77 15
f 76 15 16
f 75 76 16
f 75 16 17
f 74 17 18
f 74 75 17
f 73 18 19
f 73 74 18
f 72 19 20
f 72 73 19
f 71 20 21
f 71 72 20
f 70 21 22
f 70 71 21
f 69 22 23
f 69 70 22
f 68 23 25
f 68 69 23
f 121 116 106
f 121 117 116
f 121 118 117
f 123 121 106
f 123 106 122
f 124 118 121
f 125 121 123
f 126 119 118
f 126 118 124
f 127 123 122
f 127 122 105
f 128 124 121
f 128 121 125
f 126 120 119
f 104 127 105
f 127 125 123
f 128 126 124
f 129 120 126
f 130 127 104
f 131 125 127
f 131 128 125
f 132 126 128
f 133 138 129
f 134 130 104
f 135 127 130
f 136 128 131
f 137 129 126
f 137 126 132
f 139 130 134
f 140 131 127
f 140 127 135
f 141 128 136
f 141 132 128
f 133 129 137
f 139 135 130
f 140 136 131
f 141 137 132
f 148 138 133
f 145 103 102
f 145 134 103
f 145 139 134
f 146 135 139
f 146 140 135
f 144 136 140
f 144 141 136
f 148 133 137
f 148 137 141
f 142 138 148
f 147 141 144
f 153 114 143
f 153 143 142
f 149 145 102
f 150 146 139
f 150 139 145
f 151 144 140
f 151 140 146
f 157 141 147
f 157 148 141
f 158 142 148
f 152 145 149
f 156 146 150
f 151 147 144
f 160 158 148
f 160 148 157
f 153 142 158
f 154 149 102
f 154 102 101
f 155 145 152
f 155 150 145
f 156 151 146
f 157 147 151
f 100 154 101
f 154 155 152
f 154 152 149
f 155 156 150
f 159 151 156
f 165 153 158
f 165 114 153
f 163 154 100
f 164 155 154
f 161 156 155
f 168 151 159
f 168 157 151
f 169 158 160
f 162 163 100
f 172 156 161
f 172 159 156
f 173 160 157
f 173 157 168
f 165 158 169
f 166 163 162
f 171 164 154
f 171 154 163
f 167 155 164
f 167 161 155
f 168 159 172
f 169 160 173
f 170 163 166
f 170 171 163
f 172 161 167
f 174 166 162
f 174 162 99
f 167 164 171
f 175 168 172
f 181 169 173
f 176 174 99
f 174 170 166
f 177 171 170
f 185 172 167
f 186 168 175
f 186 173 168
f 178 169 181
f 178 165 169
f 183 174 176
f 179 170 174
f 180 171 177
f 180 185 167
f 180 167 171
f 175 172 185
f 181 173 186
f 184 170 179
f 184 177 170
f 178 197 165
f 188 176 182
f 188 183 176
f 187 179 174
f 187 174 183
f 184 180 177
f 192 175 185
f 193 181 186
f 187 184 179
f 189 185 180
f 189 180 184
f 189 192 185
f 196 175 192
f 196 186 175
f 178 181 193
f 190 188 182
f 190 182 98
f 191 183 188
f 191 187 183
f 195 184 187
f 193 186 196
f 97 190 98
f 194 188 190
f 200 187 191
f 195 189 184
f 197 178 193
f 198 190 97
f 199 188 194
f 199 191 188
f 200 195 187
f 201 189 195
f 201 192 189
f 203 193 196
f 198 199 194
f 198 194 190
f 199 200 191
f 202 195 200
f 207 196 192
f 207 192 201
f 197 193 203
f 204 97 96
f 204 198 97
f 205 199 198
f 206 200 199
f 202 201 195
f 203 196 207
f 95 204 96
f 205 206 199
f 206 202 200
f 207 201 202
f 210 197 203
f 210 115 197
f 212 204 95
f 208 205 198
f 208 198 204
f 209 206 205
f 214 202 206
f 210 203 207
f 213 205 208
f 213 209 205
f 217 206 209
f 214 207 202
f 215 95 211
f 215 212 95
f 216 204 212
f 216 208 204
f 217 214 206
f 222 207 214
f 222 210 207
f 221 212 215
f 216 213 208
f 219 209 213
f 219 217 209
f 220 215 211
f 220 211 218
f 221 216 212
f 223 213 216
f 226 217 219
f 220 221 215
f 225 216 221
f 223 219 213
f 230 217 226
f 230 214 217
f 231 115 210
f 231 210 222
f 228 218 94
f 228 220 218
f 224 221 220
f 225 223 216
f 226 219 223
f 238 222 214
f 238 214 230
f 233 225 221
f 233 221 224
f 229 223 225
f 229 226 223
f 231 222 238
f 234 228 94
f 234 94 227
f 232 220 228
f 232 224 220
f 237 226 229
f 234 232 228
f 232 233 224
f 241 225 233
f 241 229 225
f 242 226 237
f 242 230 226
f 239 234 227
f 239 92 107
f 239 93 92
f 239 227 93
f 235 232 234
f 236 241 233
f 236 233 232
f 237 229 241
f 238 230 242
f 239 107 108
f 240 232 235
f 246 231 238
f 245 235 234
f 245 108 109
f 245 234 239
f 245 239 108
f 243 236 232
f 243 232 240
f 244 237 241
f 246 238 242
f 245 240 235
f 245 243 240
f 243 241 236
f 248 246 242
f 248 242 237
f 248 237 244
f 247 243 245
f 247 245 109
f 244 241 243
f 249 243 247
f 249 109 110
f 249 247 109
f 250 113 231
f 250 231 246
f 249 244 243
f 249 110 684
f 249 684 111
f 112 250 246
f 112 246 248
f 111 244 249
f 111 248 244
f 112 248 111
f 250 112 701
f 250 701 113
f 269 263 268
f 271 263 269
f 271 264 263
f 270 268 267
f 272 264 271
f 277 269 268
f 277 268 270
f 272 265 264
f 273 269 277
f 274 265 272
f 273 271 269
f 274 266 265
f 275 266 274
f 276 271 273
f 276 272 271
f 277 270 283
f 276 274 272
f 279 273 277
f 287 270 267
f 278 274 276
f 283 270 287
f 278 275 274
f 279 276 273
f 280 277 283
f 282 276 279
f 281 277 280
f 281 279 277
f 282 278 276
f 285 279 281
f 284 278 282
f 288 282 279
f 288 279 285
f 286 281 280
f 286 285 281
f 289 283 287
f 289 280 283
f 290 284 282
f 290 282 288
f 291 285 286
f 291 288 285
f 289 286 280
f 294 286 289
f 293 288 291
f 289 287 292
f 293 290 288
f 294 291 286
f 296 291 294
f 299 294 289
f 299 289 295
f 296 293 291
f 297 289 292
f 298 293 296
f 304 295 289
f 304 289 297
f 301 296 294
f 301 294 299
f 300 295 304
f 300 299 295
f 310 297 292
f 302 298 296
f 302 296 301
f 303 299 300
f 304 297 310
f 303 301 299
f 305 300 304
f 310 292 319
f 306 301 303
f 307 300 305
f 306 302 301
f 307 303 300
f 308 304 310
f 308 305 304
f 309 303 307
f 311 305 308
f 309 306 303
f 311 307 305
f 257 306 309
f 308 310 316
f 312 307 311
f 312 309 307
f 313 311 308
f 314 257 309
f 314 309 312
f 321 310 319
f 321 316 310
f 315 311 313
f 315 312 311
f 317 308 316
f 317 313 308
f 318 314 312
f 318 312 315
f 320 313 317
f 258 314 318
f 320 315 313
f 321 317 316
f 322 318 315
f 322 315 320
f 323 317 321
f 322 258 318
f 325 317 323
f 325 320 317
f 321 319 328
f 324 258 322
f 326 323 321
f 327 320 325
f 327 322 320
f 330 323 326
f 329 322 327
f 330 325 323
f 338 321 328
f 329 324 322
f 331 327 325
f 331 325 330
f 332 321 338
f 332 326 321
f 333 327 331
f 333 329 327
f 334 330 326
f 334 326 332
f 338 328 251
f 259 329 333
f 335 330 334
f 335 331 330
f 336 331 335
f 336 333 331
f 337 334 332
f 339 333 336
f 339 259 333
f 337 335 334
f 341 336 335
f 341 335 337
f 342 332 338
f 342 338 340
f 342 337 332
f 351 338 251
f 343 339 336
f 343 336 341
f 344 337 342
f 340 338 351
f 344 341 337
f 345 342 340
f 346 341 344
f 347 342 345
f 351 251 354
f 346 343 341
f 347 344 342
f 348 340 351
f 349 340 348
f 350 346 344
f 350 344 347
f 349 345 340
f 354 251 358
f 349 347 345
f 260 346 350
f 352 347 349
f 353 349 348
f 355 347 352
f 355 350 347
f 357 352 349
f 357 349 353
f 361 348 351
f 361 351 354
f 356 260 350
f 356 350 355
f 357 355 352
f 361 353 348
f 359 355 357
f 360 353 361
f 358 361 354
f 360 357 353
f 361 358 252
f 362 355 359
f 362 356 355
f 363 357 360
f 364 361 252
f 365 357 363
f 253 361 364
f 253 364 252
f 365 359 357
f 366 361 253
f 366 360 361
f 261 359 365
f 366 253 254
f 366 363 360
f 261 362 359
f 366 254 255
f 366 365 363
f 367 365 366
f 367 366 255
f 367 261 365
f 367 255 256
f 262 261 367
f 262 367 256
f 256 92 93
f 262 93 227
f 262 256 93
f 261 227 94
f 261 262 227
f 362 94 218
f 362 261 94
f 356 218 211
f 356 362 218
f 260 211 95
f 260 356 211
f 346 95 96
f 346 260 95
f 343 96 97
f 343 346 96
f 339 343 97
f 259 97 98
f 259 339 97
f 329 98 182
f 329 259 98
f 324 182 176
f 324 329 182
f 258 324 176
f 258 176 99
f 314 258 99
f 314 99 162
f 257 314 162
f 257 162 100
f 306 257 100
f 306 100 101
f 302 306 101
f 302 101 102
f 298 102 103
f 298 302 102
f 293 103 134
f 293 298 103
f 290 134 104
f 290 293 134
f 284 104 105
f 284 290 104
f 278 105 122
f 278 284 105
f 275 122 106
f 275 106 116
f 275 278 122
f 266 275 116
f 368 370 369
f 369 370 371
f 369 371 372
f 369 372 519
f 405 389 388
f 405 406 389
f 404 388 387
f 404 405 388
f 403 387 386
f 403 404 387
f 402 385 384
f 402 386 385
f 402 403 386
f 401 402 384
f 400 384 383
f 400 401 384
f 399 383 382
f 399 400 383
f 398 382 381
f 398 399 382
f 397 380 379
f 397 381 380
f 397 398 381
f 396 397 379
f 395 378 377
f 395 379 378
f 395 396 379
f 394 395 377
f 393 377 376
f 393 394 377
f 392 375 374
f 392 376 375
f 392 393 376
f 391 374 373
f 391 392 374
f 390 391 373
f 368 410 409
f 408 407 410
f 408 410 368
f 417 420 415
f 417 416 420
f 418 415 414
f 418 417 415
f 427 414 413
f 427 418 414
f 421 420 416
f 419 421 416
f 423 422 421
f 423 421 419
f 427 413 425
f 428 427 425
f 428 425 424
f 426 428 424
f 432 431 430
f 429 432 430
f 426 424 432
f 426 432 429
f 435 434 433
f 524 435 433
f 437 436 435
f 437 435 524
f 438 433 434
f 438 434 444
f 438 444 443
f 439 438 443
f 439 443 442
f 440 442 441
f 440 439 442
f 440 441 422
f 423 440 422
f 448 447 446
f 445 448 446
f 412 411 448
f 412 448 445
f 449 446 447
f 449 447 455
f 449 455 454
f 450 449 454
f 450 454 453
f 451 453 452
f 451 450 453
f 451 452 436
f 437 451 436
f 368 409 456
f 368 456 370
f 370 456 460
f 371 370 460
f 371 460 459
f 372 371 459
f 372 459 458
f 461 372 458
f 461 458 457
f 462 461 457
f 462 457 411
f 412 462 411
f 466 465 464
f 463 466 464
f 468 467 466
f 468 466 463
f 469 464 465
f 469 465 475
f 469 475 474
f 470 469 474
f 470 474 473
f 471 473 472
f 471 470 473
f 408 472 407
f 408 471 472
f 476 430 431
f 476 431 482
f 476 482 481
f 477 476 481
f 477 481 480
f 478 480 479
f 478 477 480
f 478 479 467
f 468 478 467
f 483 485 484
f 402 483 406
f 402 486 485
f 402 487 486
f 402 488 487
f 402 489 488
f 402 490 489
f 402 491 490
f 402 492 491
f 402 493 492
f 402 494 493
f 402 495 494
f 402 496 495
f 402 497 496
f 402 390 497
f 402 391 390
f 402 392 391
f 402 393 392
f 402 394 393
f 402 395 394
f 402 396 395
f 402 397 396
f 402 398 397
f 402 399 398
f 402 400 399
f 402 401 400
f 402 404 403
f 402 405 404
f 402 406 405
f 402 485 483
f 497 390 373
f 497 373 512
f 496 512 511
f 496 497 512
f 495 511 510
f 495 496 511
f 494 510 509
f 494 495 510
f 493 509 508
f 493 494 509
f 492 508 507
f 492 493 508
f 491 506 505
f 491 507 506
f 491 492 507
f 490 505 504
f 490 491 505
f 489 490 504
f 488 504 503
f 488 489 504
f 487 503 502
f 487 488 503
f 486 502 501
f 486 487 502
f 485 501 500
f 485 486 501
f 484 499 498
f 484 500 499
f 484 485 500
f 483 498 389
f 483 484 498
f 406 483 389
f 420 421 422
f 415 422 441
f 415 420 422
f 414 415 441
f 436 444 434
f 436 434 435
f 452 444 436
f 510 441 442
f 510 442 509
f 510 414 441
f 508 442 443
f 508 509 442
f 511 414 510
f 507 508 443
f 512 414 511
f 512 413 414
f 506 507 443
f 373 413 512
f 505 443 444
f 505 452 453
f 505 444 452
f 505 506 443
f 431 424 425
f 431 432 424
f 374 413 373
f 504 505 453
f 375 413 374
f 375 425 413
f 503 504 453
f 482 431 425
f 376 425 375
f 502 453 454
f 502 503 453
f 482 425 376
f 501 502 454
f 500 454 455
f 500 501 454
f 481 376 377
f 481 482 376
f 481 377 378
f 480 378 379
f 480 379 380
f 480 481 378
f 480 380 381
f 411 447 448
f 411 455 447
f 457 455 411
f 457 500 455
f 479 480 381
f 458 498 499
f 458 499 500
f 458 500 457
f 458 389 498
f 459 389 458
f 459 388 389
f 459 386 387
f 459 387 388
f 474 381 382
f 475 479 381
f 475 381 474
f 460 386 459
f 474 382 383
f 474 383 384
f 473 474 384
f 473 384 385
f 465 479 475
f 465 467 479
f 465 466 467
f 473 385 386
f 472 386 460
f 472 473 386
f 407 460 456
f 407 472 460
f 410 407 456
f 410 456 409
f 515 468 463
f 429 430 513
f 478 468 515
f 514 477 478
f 514 478 515
f 476 514 513
f 476 477 514
f 476 513 430
f 517 408 368
f 463 464 516
f 471 408 517
f 518 470 471
f 518 471 517
f 469 518 516
f 469 470 518
f 469 516 464
f 520 412 445
f 519 372 461
f 520 461 462
f 520 462 412
f 520 519 461
f 523 437 524
f 445 446 521
f 451 437 523
f 522 450 451
f 522 451 523
f 449 522 521
f 449 450 522
f 449 521 446
f 527 423 419
f 524 433 525
f 440 423 527
f 526 439 440
f 526 440 527
f 438 526 525
f 438 439 526
f 438 525 433
f 530 426 429
f 419 416 528
f 530 428 426
f 529 427 428
f 529 418 427
f 529 428 530
f 417 529 528
f 417 418 529
f 417 528 416
f 551 550 594
f 549 594 550
f 552 551 594
f 552 594 582
f 548 594 549
f 553 552 582
f 547 594 548
f 547 533 594
f 554 553 582
f 546 533 547
f 555 554 582
f 555 582 358
f 545 533 546
f 68 555 358
f 544 533 545
f 69 68 358
f 543 533 544
f 543 532 533
f 70 69 358
f 542 532 543
f 71 70 358
f 541 532 542
f 72 358 251
f 72 71 358
f 540 532 541
f 73 72 251
f 539 531 532
f 539 532 540
f 251 74 73
f 531 539 538
f 251 75 74
f 76 75 251
f 531 538 537
f 531 537 536
f 251 77 76
f 531 536 535
f 328 77 251
f 328 78 77
f 328 79 78
f 531 535 534
f 328 80 79
f 267 531 534
f 267 534 91
f 319 80 328
f 267 90 89
f 267 91 90
f 319 81 80
f 267 89 88
f 292 81 319
f 292 82 81
f 292 83 82
f 287 267 88
f 287 88 87
f 292 84 83
f 292 85 84
f 287 87 86
f 292 287 86
f 292 86 85
f 579 266 116
f 579 116 794
f 578 794 556
f 578 579 794
f 667 556 557
f 667 578 556
f 664 557 767
f 664 667 557
f 577 767 757
f 577 664 767
f 656 757 558
f 656 577 757
f 650 558 559
f 650 656 558
f 576 559 560
f 576 650 559
f 643 560 561
f 643 576 560
f 639 561 562
f 639 643 561
f 575 562 724
f 575 639 562
f 632 575 724
f 632 724 719
f 626 632 719
f 626 719 563
f 574 626 563
f 574 563 564
f 573 574 564
f 573 564 565
f 614 573 565
f 614 565 566
f 614 566 690
f 609 690 567
f 609 614 690
f 572 609 567
f 602 567 568
f 602 572 567
f 597 568 569
f 597 602 568
f 571 569 570
f 571 597 569
f 587 570 674
f 587 571 570
f 256 674 92
f 256 587 674
f 419 713 527
f 526 527 713
f 528 713 419
f 528 113 713
f 526 713 771
f 525 526 771
f 529 113 528
f 524 525 771
f 530 113 529
f 524 771 580
f 523 524 580
f 429 113 530
f 429 231 113
f 522 523 580
f 513 231 429
f 581 522 580
f 521 522 581
f 514 231 513
f 581 445 521
f 115 231 514
f 515 115 514
f 581 520 445
f 114 520 581
f 114 519 520
f 115 515 463
f 197 115 463
f 197 463 516
f 114 369 519
f 197 516 518
f 114 368 369
f 165 368 114
f 165 517 368
f 165 197 518
f 165 518 517
f 584 252 358
f 584 358 582
f 584 253 252
f 583 253 584
f 583 254 253
f 585 255 254
f 585 254 583
f 586 583 584
f 587 256 255
f 587 255 585
f 588 583 586
f 589 584 582
f 589 586 584
f 588 585 583
f 591 585 588
f 590 586 589
f 591 587 585
f 590 588 586
f 571 587 591
f 592 588 590
f 595 591 588
f 595 588 592
f 596 589 593
f 596 590 589
f 594 589 582
f 597 571 591
f 597 591 595
f 596 592 590
f 598 589 594
f 598 593 589
f 599 592 596
f 604 593 598
f 599 595 592
f 604 596 593
f 600 596 604
f 602 597 595
f 602 595 599
f 603 596 600
f 598 594 601
f 603 599 596
f 606 599 603
f 605 600 604
f 572 599 606
f 572 602 599
f 605 603 600
f 608 598 601
f 607 603 605
f 608 605 604
f 608 604 598
f 607 606 603
f 610 605 608
f 609 572 606
f 609 606 607
f 615 601 613
f 615 608 601
f 610 607 605
f 611 607 610
f 612 608 615
f 533 601 594
f 612 610 608
f 613 601 533
f 614 607 611
f 614 609 607
f 616 610 612
f 616 611 610
f 617 612 615
f 573 611 616
f 618 612 617
f 622 613 533
f 573 614 611
f 619 612 618
f 622 615 613
f 619 616 612
f 622 617 615
f 621 616 619
f 620 617 622
f 621 573 616
f 620 618 617
f 625 622 533
f 574 573 621
f 620 619 618
f 623 619 620
f 624 620 622
f 623 621 619
f 626 574 621
f 626 621 623
f 627 620 624
f 628 622 625
f 627 623 620
f 628 624 622
f 629 623 627
f 630 533 532
f 630 625 533
f 631 627 624
f 631 624 628
f 632 626 623
f 632 623 629
f 634 628 625
f 634 625 630
f 633 629 627
f 633 627 631
f 635 631 628
f 635 628 634
f 575 629 633
f 575 632 629
f 635 633 631
f 637 634 630
f 636 633 635
f 636 575 633
f 638 635 634
f 638 634 637
f 647 630 532
f 639 575 636
f 641 637 630
f 641 630 647
f 640 636 635
f 640 635 638
f 642 637 641
f 642 638 637
f 643 636 640
f 643 639 636
f 644 640 638
f 644 638 642
f 646 641 647
f 646 642 641
f 645 532 531
f 645 647 532
f 576 640 644
f 576 643 640
f 648 642 646
f 648 644 642
f 649 646 647
f 650 576 644
f 650 644 648
f 651 646 649
f 655 647 645
f 651 648 646
f 652 649 647
f 652 647 655
f 653 648 651
f 654 649 652
f 653 650 648
f 654 651 649
f 655 645 531
f 656 650 653
f 657 651 654
f 657 653 651
f 658 654 652
f 577 653 657
f 663 655 531
f 577 656 653
f 659 657 654
f 659 654 658
f 663 652 655
f 661 658 652
f 661 652 663
f 660 577 657
f 660 657 659
f 662 658 661
f 663 531 670
f 664 577 660
f 662 659 658
f 665 661 663
f 666 659 662
f 666 660 659
f 668 661 665
f 670 531 267
f 667 664 660
f 667 660 666
f 668 662 661
f 670 267 268
f 669 662 668
f 669 666 662
f 670 268 263
f 670 665 663
f 665 670 263
f 671 263 264
f 671 668 665
f 671 665 263
f 578 667 666
f 578 666 669
f 671 669 668
f 672 671 264
f 672 669 671
f 672 264 265
f 673 669 672
f 673 672 265
f 673 578 669
f 673 265 266
f 579 578 673
f 579 673 266
f 675 107 92
f 675 92 674
f 675 108 107
f 677 674 570
f 677 675 674
f 676 108 675
f 679 108 676
f 679 109 108
f 680 570 569
f 680 677 570
f 678 675 677
f 678 676 675
f 680 678 677
f 678 679 676
f 681 109 679
f 681 110 109
f 685 569 568
f 685 680 569
f 682 678 680
f 683 679 678
f 684 110 681
f 686 678 682
f 681 679 683
f 692 111 684
f 691 568 567
f 691 685 568
f 687 680 685
f 687 682 680
f 688 683 678
f 688 678 686
f 689 684 681
f 694 112 111
f 694 701 112
f 694 111 692
f 687 686 682
f 688 681 683
f 692 684 689
f 693 567 690
f 693 691 567
f 696 685 691
f 696 687 685
f 697 686 687
f 697 688 686
f 689 681 688
f 695 691 693
f 695 696 691
f 700 692 689
f 698 690 566
f 698 693 690
f 699 697 687
f 699 687 696
f 703 689 688
f 703 688 697
f 704 694 692
f 704 692 700
f 698 695 693
f 702 696 695
f 707 703 697
f 707 697 699
f 700 689 703
f 701 713 113
f 701 694 704
f 705 698 566
f 705 566 565
f 706 695 698
f 702 699 696
f 564 705 565
f 706 702 695
f 707 699 702
f 708 700 703
f 713 701 704
f 709 705 564
f 712 698 705
f 712 706 698
f 710 707 702
f 710 702 706
f 708 703 707
f 718 700 708
f 718 704 700
f 563 709 564
f 711 705 709
f 711 712 705
f 721 707 710
f 713 704 718
f 714 709 563
f 715 712 711
f 716 706 712
f 716 710 706
f 717 708 707
f 717 707 721
f 714 711 709
f 714 715 711
f 720 712 715
f 721 710 716
f 726 708 717
f 727 713 718
f 725 563 719
f 725 714 563
f 722 715 714
f 723 716 712
f 723 712 720
f 729 718 708
f 729 708 726
f 729 727 718
f 722 720 715
f 723 717 721
f 723 721 716
f 730 719 724
f 730 725 719
f 731 714 725
f 731 722 714
f 728 720 722
f 728 723 720
f 736 717 723
f 735 723 728
f 736 726 717
f 732 730 724
f 732 724 562
f 734 725 730
f 734 731 725
f 739 728 722
f 739 722 731
f 733 736 723
f 733 723 735
f 740 726 736
f 740 729 726
f 738 730 732
f 734 739 731
f 735 728 739
f 742 713 727
f 742 771 713
f 742 727 729
f 742 729 740
f 737 562 561
f 737 732 562
f 738 734 730
f 745 736 733
f 745 733 735
f 737 738 732
f 744 734 738
f 747 735 739
f 747 745 735
f 741 736 745
f 743 561 560
f 743 737 561
f 746 738 737
f 744 739 734
f 744 747 739
f 751 736 741
f 751 740 736
f 749 737 743
f 746 744 738
f 742 740 751
f 748 743 560
f 748 560 559
f 749 746 737
f 750 744 746
f 750 747 744
f 756 745 747
f 748 749 743
f 755 746 749
f 752 747 750
f 752 756 747
f 761 741 745
f 761 745 756
f 771 742 751
f 753 748 559
f 753 559 558
f 754 749 748
f 755 750 746
f 766 751 741
f 766 771 751
f 766 741 761
f 758 748 753
f 759 755 749
f 759 749 754
f 760 750 755
f 760 752 750
f 762 558 757
f 762 753 558
f 763 754 748
f 763 748 758
f 764 755 759
f 765 752 760
f 765 756 752
f 768 758 753
f 768 753 762
f 769 754 763
f 769 759 754
f 770 755 764
f 770 760 755
f 780 756 765
f 780 761 756
f 772 762 757
f 772 757 767
f 773 758 768
f 773 763 758
f 774 759 769
f 774 764 759
f 775 765 760
f 775 760 770
f 785 761 780
f 785 766 761
f 776 767 557
f 777 762 772
f 777 768 762
f 778 769 763
f 778 763 773
f 779 770 764
f 779 775 770
f 779 764 774
f 780 765 775
f 789 771 766
f 789 580 771
f 789 766 785
f 781 767 776
f 781 772 767
f 782 773 768
f 782 768 777
f 783 774 769
f 783 769 778
f 784 775 779
f 556 776 557
f 786 777 772
f 786 772 781
f 787 783 778
f 787 778 773
f 787 773 782
f 788 779 774
f 788 774 783
f 798 780 775
f 798 775 784
f 790 776 556
f 790 781 776
f 791 787 782
f 791 777 786
f 791 782 777
f 792 783 787
f 793 784 779
f 793 779 788
f 804 785 780
f 804 780 798
f 795 781 790
f 795 786 781
f 796 787 791
f 797 783 792
f 797 788 783
f 798 784 793
f 799 789 785
f 799 785 804
f 799 580 789
f 799 581 580
f 800 795 790
f 800 116 117
f 800 117 118
f 800 794 116
f 800 556 794
f 800 790 556
f 801 791 786
f 801 786 795
f 801 796 791
f 802 797 792
f 802 792 787
f 802 787 796
f 803 798 793
f 803 793 788
f 803 788 797
f 805 800 118
f 805 801 795
f 805 795 800
f 806 796 801
f 807 797 802
f 807 803 797
f 814 798 803
f 808 805 118
f 808 801 805
f 809 807 802
f 809 802 796
f 809 796 806
f 810 803 807
f 811 798 814
f 811 804 798
f 812 118 119
f 812 809 806
f 812 808 118
f 812 806 801
f 812 801 808
f 813 807 809
f 814 803 810
f 815 799 804
f 815 804 811
f 815 581 799
f 816 119 120
f 816 812 119
f 816 809 812
f 817 807 813
f 817 810 807
f 817 814 810
f 818 809 816
f 818 120 129
f 818 813 809
f 818 816 120
f 820 814 817
f 820 811 814
f 819 817 813
f 819 818 129
f 819 129 138
f 819 813 818
f 821 815 811
f 821 811 820
f 820 817 819
f 820 819 138
f 815 114 581
f 821 820 138
f 821 138 142
f 143 815 821
f 143 114 815
f 143 821 142
f 68 25 822
f 555 822 823
f 555 68 822
f 554 823 824
f 554 555 823
f 553 824 825
f 553 554 824
f 552 825 826
f 552 553 825
f 551 826 827
f 551 552 826
f 550 827 828
f 550 551 827
f 549 828 829
f 549 550 828
f 548 829 830
f 548 549 829
f 547 830 831
f 547 548 830
f 546 547 831
f 545 831 832
f 545 832 833
f 545 546 831
f 544 545 833
f 543 544 833
f 543 833 834
f 543 834 835
f 542 543 835
f 542 835 836
f 541 542 836
f 540 541 836
f 540 836 889
f 540 889 837
f 539 540 837
f 538 837 838
f 538 539 837
f 537 838 886
f 537 886 839
f 537 538 838
f 536 537 839
f 535 839 840
f 535 536 839
f 534 840 883
f 534 883 1
f 534 535 840
f 91 534 1
f 52 46 64
f 52 50 48
f 52 64 54
f 52 57 59
f 52 880 50
f 52 61 863
f 52 863 865
f 52 865 867
f 52 867 869
f 52 869 871
f 52 871 872
f 52 875 878
f 52 878 880
f 52 872 875
f 52 48 66
f 52 54 57
f 52 59 61
f 853 25 49
f 853 49 881
f 853 881 841
f 853 850 851
f 853 851 852
f 853 852 25
f 854 841 877
f 854 901 902
f 854 902 850
f 854 853 841
f 854 850 853
f 855 877 874
f 855 901 854
f 855 898 900
f 855 900 901
f 855 854 877
f 856 874 842
f 856 855 874
f 856 898 855
f 856 896 897
f 856 897 898
f 857 896 856
f 857 856 842
f 857 842 858
f 857 894 895
f 857 895 896
f 858 893 894
f 858 894 857
f 859 843 844
f 859 891 892
f 859 892 893
f 859 858 843
f 859 893 858
f 849 844 845
f 849 891 859
f 849 859 844
f 860 845 846
f 860 887 888
f 860 888 889
f 860 849 845
f 860 889 849
f 861 846 847
f 861 885 886
f 861 886 887
f 861 887 860
f 861 860 846
f 862 861 847
f 862 847 848
f 862 848 60
f 862 60 24
f 862 24 883
f 862 883 884
f 862 884 885
f 862 885 861
f 863 61 60
f 863 60 848
f 864 863 848
f 864 848 847
f 865 863 864
f 865 864 847
f 866 865 847
f 866 847 846
f 867 866 846
f 867 865 866
f 867 846 845
f 868 867 845
f 868 869 867
f 869 845 844
f 869 868 845
f 869 844 843
f 870 869 843
f 870 871 869
f 871 870 843
f 871 843 858
f 872 858 842
f 872 871 858
f 873 875 872
f 873 872 842
f 873 842 874
f 875 873 874
f 876 874 877
f 876 878 875
f 876 875 874
f 878 876 877
f 879 878 877
f 879 877 841
f 880 878 879
f 880 879 841
f 880 841 881
f 882 880 881
f 882 881 49
f 882 49 50
f 882 50 880
f 883 24 1
f 884 883 840
f 885 840 839
f 885 884 840
f 886 885 839
f 887 886 838
f 888 838 837
f 888 887 838
f 889 888 837
f 890 889 836
f 890 849 889
f 891 836 835
f 891 890 836
f 891 849 890
f 834 891 835
f 892 891 834
f 893 834 833
f 893 892 834
f 832 893 833
f 894 893 832
f 895 832 831
f 895 894 832
f 896 831 830
f 896 895 831
f 897 830 829
f 897 896 830
f 898 829 828
f 898 897 829
f 899 827 826
f 899 828 827
f 899 898 828
f 900 898 899
f 901 899 826
f 901 900 899
f 902 826 825
f 902 901 826
f 850 824 823
f 850 825 824
f 850 902 825
f 851 823 822
f 851 850 823
f 852 822 25
f 852 851 822

