# https://github.com/mikedh/trimesh
v 25.40146522 -9.70295644 -288.87380657
v 25.40000000 37.60000000 -593.89259779
v 24.91454176 38.09978849 -593.89259779
v 24.97845611 38.09380628 -593.89259779
v 25.04107723 38.07968450 -593.89259779
v 25.10137294 38.05765592 -593.89259779
v 25.15834934 38.02808366 -593.89259779
v 25.21106730 37.99145515 -593.89259779
v 25.25865783 37.94837417 -593.89259779
v 25.30033649 37.89955082 -593.89259779
v 25.33541628 37.84578988 -593.89259779
v 25.36331896 37.78797750 -593.89259779
v 25.38358460 37.72706664 -593.89259779
v 25.39587917 37.66406129 -593.89259779
v 24.78369308 38.07839483 -593.89259779
v 24.84840515 38.09344807 -593.89259779
v -25.40000000 23.40000000 -593.89259779
v -25.38309361 23.65949902 -593.89259779
v -25.33266026 23.91461084 -593.89259779
v -25.24955260 24.16102246 -593.89259779
v -25.13517568 24.39456793 -593.89259779
v -24.99146320 24.61129884 -593.89259779
v -24.82084482 24.80755106 -593.89259779
v -24.62620508 24.98000668 -593.89259779
v -24.41083464 25.12575008 -593.89259779
v -24.17837463 25.24231727 -593.89259779
v -23.93275511 25.32773753 -593.89259779
v -25.40000000 -23.40000000 -593.89259779
v -23.40000000 -25.40000000 -593.89259779
v -23.66105238 -25.38288972 -593.89259779
v -23.91763809 -25.33185165 -593.89259779
v -24.16536686 -25.24775907 -593.89259779
v -24.40000000 -25.13205081 -593.89259779
v -24.61752286 -24.98670668 -593.89259779
v -24.81421356 -24.81421356 -593.89259779
v -24.98670668 -24.61752286 -593.89259779
v -25.13205081 -24.40000000 -593.89259779
v -25.24775907 -24.16536686 -593.89259779
v -25.33185165 -23.91763809 -593.89259779
v -25.38288972 -23.66105238 -593.89259779
v 23.40000000 -25.40000000 -593.89259779
v 25.40000000 -23.40000000 -593.89259779
v 25.38288972 -23.66105238 -593.89259779
v 25.33185165 -23.91763809 -593.89259779
v 25.24775907 -24.16536686 -593.89259779
v 25.13205081 -24.40000000 -593.89259779
v 24.98670668 -24.61752286 -593.89259779
v 24.81421356 -24.81421356 -593.89259779
v 24.61752286 -24.98670668 -593.89259779
v 24.40000000 -25.13205081 -593.89259779
v 24.16536686 -25.24775907 -593.89259779
v 23.91763809 -25.33185165 -593.89259779
v 23.66105238 -25.38288972 -593.89259779
v 25.40000000 -23.40000000 593.89259779
v 25.40000000 37.60000000 593.89259779
v 25.39587917 37.66406129 593.89259779
v 25.38358460 37.72706664 593.89259779
v 25.36331896 37.78797750 593.89259779
v 25.33541628 37.84578988 593.89259779
v 25.30033649 37.89955082 593.89259779
v 25.25865783 37.94837417 593.89259779
v 25.21106730 37.99145515 593.89259779
v 25.15834934 38.02808366 593.89259779
v 25.10137294 38.05765592 593.89259779
v 25.04107723 38.07968450 593.89259779
v 24.97845611 38.09380628 593.89259779
v 24.91454176 38.09978849 593.89259779
v 24.84840515 38.09344807 593.89259779
v 24.78369308 38.07839483 593.89259779
v -23.93275511 25.32773753 593.89259779
v -24.17837463 25.24231727 593.89259779
v -24.41083464 25.12575008 593.89259779
v -24.62620508 24.98000668 593.89259779
v -24.82084482 24.80755106 593.89259779
v -24.99146320 24.61129884 593.89259779
v -25.13517568 24.39456793 593.89259779
v -25.24955260 24.16102246 593.89259779
v -25.33266026 23.91461084 593.89259779
v -25.38309361 23.65949902 593.89259779
v -25.40000000 23.40000000 593.89259779
v -25.40000000 -23.40000000 593.89259779
v -25.38288972 -23.66105238 593.89259779
v -25.33185165 -23.91763809 593.89259779
v -25.24775907 -24.16536686 593.89259779
v -25.13205081 -24.40000000 593.89259779
v -24.98670668 -24.61752286 593.89259779
v -24.81421356 -24.81421356 593.89259779
v -24.61752286 -24.98670668 593.89259779
v -24.40000000 -25.13205081 593.89259779
v -24.16536686 -25.24775907 593.89259779
v -23.91763809 -25.33185165 593.89259779
v -23.66105238 -25.38288972 593.89259779
v -23.40000000 -25.40000000 593.89259779
v 23.40000000 -25.40000000 593.89259779
v 23.66105238 -25.38288972 593.89259779
v 23.91763809 -25.33185165 593.89259779
v 24.16536686 -25.24775907 593.89259779
v 24.40000000 -25.13205081 593.89259779
v 24.61752286 -24.98670668 593.89259779
v 24.81421356 -24.81421356 593.89259779
v 24.98670668 -24.61752286 593.89259779
v 25.13205081 -24.40000000 593.89259779
v 25.24775907 -24.16536686 593.89259779
v 25.33185165 -23.91763809 593.89259779
v 25.38288972 -23.66105238 593.89259779
v 18.91880000 38.09959984 570.49259779
v 18.84969206 38.09199571 570.49259779
v 18.78230702 38.07487887 570.49259779
v 18.92425824 38.09978849 570.49260110
v 18.78230702 38.07487887 -570.49259779
v 18.84969206 38.09199571 -570.49259779
v 18.91880000 38.09959984 -570.49259779
v 18.92425824 38.09978849 -570.49260110
f 55 54 1
f 2 55 1
f 15 27 110
f 111 15 110
f 42 2 1
f 1 54 42
f 112 113 3
f 15 111 16
f 16 112 3
f 111 112 16
f 69 108 70
f 108 69 107
f 109 106 67
f 68 107 69
f 106 107 68
f 67 106 68
f 29 41 93
f 93 41 94
f 38 85 84
f 37 85 38
f 83 40 39
f 82 40 83
f 39 38 83
f 83 38 84
f 86 85 36
f 36 85 37
f 87 36 35
f 86 36 87
f 66 4 3
f 3 67 66
f 18 80 79
f 17 80 18
f 81 80 17
f 17 28 81
f 28 40 81
f 81 40 82
f 29 93 30
f 93 92 30
f 30 92 91
f 91 31 30
f 90 32 31
f 90 31 91
f 33 32 90
f 90 89 33
f 48 101 100
f 47 101 48
f 49 48 99
f 99 48 100
f 27 70 108
f 110 27 108
f 14 56 55
f 55 2 14
f 33 89 34
f 89 88 34
f 34 87 35
f 34 88 87
f 46 102 101
f 46 101 47
f 103 102 46
f 46 45 103
f 54 105 43
f 43 42 54
f 94 41 53
f 53 95 94
f 4 66 5
f 66 65 5
f 76 21 20
f 20 77 76
f 22 21 76
f 76 75 22
f 19 78 77
f 19 77 20
f 19 18 79
f 79 78 19
f 71 26 25
f 71 25 72
f 71 70 27
f 27 26 71
f 103 45 44
f 44 104 103
f 105 104 44
f 44 43 105
f 51 50 98
f 98 97 51
f 49 99 98
f 98 50 49
f 64 63 6
f 6 63 7
f 6 65 64
f 6 5 65
f 60 10 9
f 60 9 61
f 11 59 58
f 11 58 12
f 11 60 59
f 10 60 11
f 63 62 8
f 7 63 8
f 8 62 61
f 61 9 8
f 25 24 73
f 72 25 73
f 110 108 107
f 107 111 110
f 107 112 111
f 107 106 112
f 109 67 3
f 3 113 109
f 112 106 109
f 113 112 109
f 57 13 12
f 12 58 57
f 56 14 57
f 14 13 57
f 96 52 51
f 51 97 96
f 95 53 96
f 53 52 96
f 23 16 3
f 23 32 33
f 4 5 23
f 23 40 28
f 23 6 7
f 23 28 17
f 17 18 23
f 33 34 23
f 23 36 37
f 23 41 29
f 3 4 23
f 27 15 23
f 23 26 27
f 2 42 23
f 37 38 23
f 23 14 2
f 42 43 23
f 29 30 23
f 39 40 23
f 47 48 23
f 15 16 23
f 23 38 39
f 31 32 23
f 35 36 23
f 23 46 47
f 23 53 41
f 23 50 51
f 7 8 23
f 23 21 22
f 23 30 31
f 23 48 49
f 23 11 12
f 20 21 23
f 25 26 23
f 23 19 20
f 23 34 35
f 45 46 23
f 12 13 23
f 23 44 45
f 49 50 23
f 51 52 23
f 9 10 23
f 23 24 25
f 18 19 23
f 23 13 14
f 43 44 23
f 23 52 53
f 5 6 23
f 10 11 23
f 23 8 9
f 54 55 74
f 74 105 54
f 74 85 86
f 82 83 74
f 55 56 74
f 74 81 82
f 74 60 61
f 100 101 74
f 74 93 94
f 64 65 74
f 74 102 103
f 97 98 74
f 91 92 74
f 86 87 74
f 79 80 74
f 74 66 67
f 74 96 97
f 84 85 74
f 74 83 84
f 74 92 93
f 74 90 91
f 74 88 89
f 94 95 74
f 74 99 100
f 103 104 74
f 80 81 74
f 74 76 77
f 58 59 74
f 72 73 74
f 89 90 74
f 87 88 74
f 101 102 74
f 74 78 79
f 74 57 58
f 74 71 72
f 74 65 66
f 74 63 64
f 61 62 74
f 77 78 74
f 74 104 105
f 74 62 63
f 75 76 74
f 74 69 70
f 70 71 74
f 74 98 99
f 59 60 74
f 67 68 74
f 56 57 74
f 95 96 74
f 74 68 69
f 22 75 74
f 74 23 22
f 74 73 24
f 24 23 74

