# https://github.com/mikedh/trimesh
v 25.40009172 -6.35544098 -291.07363148
v 25.40000000 -23.40000000 -593.89259779
v 25.40000000 -23.40000000 593.89259779
v 25.40000000 37.60000000 593.89259779
v 25.40000000 37.60000000 -593.89259779
v -25.40000000 23.40000000 -593.89259779
v -25.38309361 23.65949902 -593.89259779
v -25.33266026 23.91461084 -593.89259779
v -25.24955260 24.16102246 -593.89259779
v -25.13517568 24.39456793 -593.89259779
v -24.99146320 24.61129884 -593.89259779
v -24.82084482 24.80755106 -593.89259779
v -24.62620508 24.98000668 -593.89259779
v -24.41083464 25.12575008 -593.89259779
v -24.17837463 25.24231727 -593.89259779
v -23.93275511 25.32773753 -593.89259779
v -25.40000000 -23.40000000 -593.89259779
v -23.40000000 -25.40000000 -593.89259779
v -23.66105238 -25.38288972 -593.89259779
v -23.91763809 -25.33185165 -593.89259779
v -24.16536686 -25.24775907 -593.89259779
v -24.40000000 -25.13205081 -593.89259779
v -24.61752286 -24.98670668 -593.89259779
v -24.81421356 -24.81421356 -593.89259779
v -24.98670668 -24.61752286 -593.89259779
v -25.13205081 -24.40000000 -593.89259779
v -25.24775907 -24.16536686 -593.89259779
v -25.33185165 -23.91763809 -593.89259779
v -25.38288972 -23.66105238 -593.89259779
v 23.40000000 -25.40000000 -593.89259779
v 25.38288972 -23.66105238 -593.89259779
v 25.33185165 -23.91763809 -593.89259779
v 25.24775907 -24.16536686 -593.89259779
v 25.13205081 -24.40000000 -593.89259779
v 24.98670668 -24.61752286 -593.89259779
v 24.81421356 -24.81421356 -593.89259779
v 24.61752286 -24.98670668 -593.89259779
v 24.40000000 -25.13205081 -593.89259779
v 24.16536686 -25.24775907 -593.89259779
v 23.91763809 -25.33185165 -593.89259779
v 23.66105238 -25.38288972 -593.89259779
v 24.91454176 38.09978849 -593.89259779
v 24.97845611 38.09380628 -593.89259779
v 25.04107723 38.07968450 -593.89259779
v 25.10137294 38.05765592 -593.89259779
v 25.15834934 38.02808366 -593.89259779
v 25.21106730 37.99145515 -593.89259779
v 25.25865783 37.94837417 -593.89259779
v 25.30033649 37.89955082 -593.89259779
v 25.33541628 37.84578988 -593.89259779
v 25.36331896 37.78797750 -593.89259779
v 25.38358460 37.72706664 -593.89259779
v 25.39587917 37.66406129 -593.89259779
v 24.78369308 38.07839483 -593.89259779
v 24.84840515 38.09344807 -593.89259779
v -23.93275511 25.32773753 593.89259779
v -24.17837463 25.24231727 593.89259779
v -24.41083464 25.12575008 593.89259779
v -24.62620508 24.98000668 593.89259779
v -24.82084482 24.80755106 593.89259779
v -24.99146320 24.61129884 593.89259779
v -25.13517568 24.39456793 593.89259779
v -25.24955260 24.16102246 593.89259779
v -25.33266026 23.91461084 593.89259779
v -25.38309361 23.65949902 593.89259779
v -25.40000000 23.40000000 593.89259779
v -25.40000000 -23.40000000 593.89259779
v -25.38288972 -23.66105238 593.89259779
v -25.33185165 -23.91763809 593.89259779
v -25.24775907 -24.16536686 593.89259779
v -25.13205081 -24.40000000 593.89259779
v -24.98670668 -24.61752286 593.89259779
v -24.81421356 -24.81421356 593.89259779
v -24.61752286 -24.98670668 593.89259779
v -24.40000000 -25.13205081 593.89259779
v -24.16536686 -25.24775907 593.89259779
v -23.91763809 -25.33185165 593.89259779
v -23.66105238 -25.38288972 593.89259779
v -23.40000000 -25.40000000 593.89259779
v 23.40000000 -25.40000000 593.89259779
v 23.66105238 -25.38288972 593.89259779
v 23.91763809 -25.33185165 593.89259779
v 24.16536686 -25.24775907 593.89259779
v 24.40000000 -25.13205081 593.89259779
v 24.61752286 -24.98670668 593.89259779
v 24.81421356 -24.81421356 593.89259779
v 24.98670668 -24.61752286 593.89259779
v 25.13205081 -24.40000000 593.89259779
v 25.24775907 -24.16536686 593.89259779
v 25.33185165 -23.91763809 593.89259779
v 25.38288972 -23.66105238 593.89259779
v 25.39587917 37.66406129 593.89259779
v 25.38358460 37.72706664 593.89259779
v 25.36331896 37.78797750 593.89259779
v 25.33541628 37.84578988 593.89259779
v 25.30033649 37.89955082 593.89259779
v 25.25865783 37.94837417 593.89259779
v 25.21106730 37.99145515 593.89259779
v 25.15834934 38.02808366 593.89259779
v 25.10137294 38.05765592 593.89259779
v 25.04107723 38.07968450 593.89259779
v 24.97845611 38.09380628 593.89259779
v 24.91454176 38.09978849 593.89259779
v 24.84840515 38.09344807 593.89259779
v 24.78369308 38.07839483 593.89259779
v 18.91880000 38.09959984 570.49259779
v 18.84969206 38.09199571 570.49259779
v 18.78230702 38.07487887 570.49259779
v 18.92425824 38.09978849 570.49260110
v 18.78230702 38.07487887 -570.49259779
v 18.84969206 38.09199571 -570.49259779
v 18.91880000 38.09959984 -570.49259779
v 18.92425824 38.09978849 -570.49260110
f 4 3 1
f 5 4 1
f 1 3 2
f 54 16 110
f 111 54 110
f 112 113 42
f 54 111 55
f 55 112 42
f 111 112 55
f 105 108 56
f 108 105 107
f 109 106 103
f 104 107 105
f 106 107 104
f 103 106 104
f 2 5 1
f 18 30 79
f 79 30 80
f 27 71 70
f 26 71 27
f 69 29 28
f 68 29 69
f 28 27 69
f 69 27 70
f 72 71 25
f 25 71 26
f 73 25 24
f 72 25 73
f 7 66 65
f 6 66 7
f 67 66 6
f 6 17 67
f 17 29 67
f 67 29 68
f 18 79 19
f 79 78 19
f 19 78 77
f 77 20 19
f 76 21 20
f 76 20 77
f 22 21 76
f 76 75 22
f 37 36 85
f 85 36 86
f 16 56 108
f 110 16 108
f 5 53 92
f 4 5 92
f 100 99 45
f 45 99 46
f 45 101 100
f 44 101 45
f 103 102 43
f 42 103 43
f 102 101 43
f 43 101 44
f 32 90 89
f 32 89 33
f 91 31 2
f 91 2 3
f 91 32 31
f 90 32 91
f 89 88 34
f 33 89 34
f 87 36 35
f 86 36 87
f 35 34 87
f 87 34 88
f 22 75 23
f 75 74 23
f 23 73 24
f 23 74 73
f 80 30 81
f 30 41 81
f 62 10 9
f 9 63 62
f 11 10 62
f 62 61 11
f 8 64 63
f 8 63 9
f 8 7 65
f 65 64 8
f 57 15 14
f 57 14 58
f 57 56 16
f 16 15 57
f 96 49 48
f 96 48 97
f 50 95 94
f 50 94 51
f 50 96 95
f 49 96 50
f 99 98 47
f 46 99 47
f 47 98 97
f 97 48 47
f 39 38 84
f 84 83 39
f 37 85 84
f 84 38 37
f 14 13 59
f 58 14 59
f 110 108 107
f 107 111 110
f 107 112 111
f 107 106 112
f 109 103 42
f 42 113 109
f 112 106 109
f 113 112 109
f 93 52 51
f 51 94 93
f 93 92 53
f 53 52 93
f 82 40 39
f 39 83 82
f 82 81 41
f 41 40 82
f 3 4 104
f 104 91 3
f 104 71 72
f 68 69 104
f 104 64 65
f 104 67 68
f 83 84 104
f 72 73 104
f 104 79 80
f 104 57 58
f 104 102 103
f 4 92 104
f 77 78 104
f 97 98 104
f 65 66 104
f 86 87 104
f 104 60 61
f 100 101 104
f 70 71 104
f 104 69 70
f 104 78 79
f 104 76 77
f 104 74 75
f 104 85 86
f 66 67 104
f 104 62 63
f 94 95 104
f 104 99 100
f 89 90 104
f 104 88 89
f 75 76 104
f 73 74 104
f 104 96 97
f 80 81 104
f 63 64 104
f 58 59 104
f 104 98 99
f 104 101 102
f 90 91 104
f 104 87 88
f 104 93 94
f 61 62 104
f 104 105 56
f 56 57 104
f 95 96 104
f 104 84 85
f 104 82 83
f 92 93 104
f 81 82 104
f 59 60 104
f 12 55 42
f 12 21 22
f 2 31 12
f 12 29 17
f 35 36 12
f 12 45 46
f 12 17 6
f 6 7 12
f 5 2 12
f 12 32 33
f 12 30 18
f 12 25 26
f 16 54 12
f 12 38 39
f 12 15 16
f 26 27 12
f 12 34 35
f 18 19 12
f 28 29 12
f 12 41 30
f 54 55 12
f 12 53 5
f 42 43 12
f 12 27 28
f 20 21 12
f 24 25 12
f 22 23 12
f 39 40 12
f 12 10 11
f 12 8 9
f 12 50 51
f 51 52 12
f 12 19 20
f 46 47 12
f 12 36 37
f 9 10 12
f 14 15 12
f 48 49 12
f 44 45 12
f 12 43 44
f 31 32 12
f 33 34 12
f 12 23 24
f 37 38 12
f 12 13 14
f 7 8 12
f 12 52 53
f 49 50 12
f 12 47 48
f 12 40 41
f 11 61 12
f 61 60 12
f 12 59 13
f 12 60 59

