# https://github.com/mikedh/trimesh
v 315.40000000 18.43125000 2.00000000
v 315.40000000 21.43125000 2.00000000
v 315.40000000 21.43125000 -2.00000000
v 315.12766670 21.43125000 -1.98137189
v 314.86040646 21.43125000 -1.92583457
v 314.60319782 21.43125000 -1.83442260
v 314.36083210 21.43125000 -1.70883881
v 314.13782411 21.43125000 -1.55142258
v 313.93832807 21.43125000 -1.36510629
v 313.76606021 21.43125000 -1.15336064
v 313.62422956 21.43125000 -0.92013008
v 313.51547816 21.43125000 -0.66975922
v 313.44183182 21.43125000 -0.40691203
v 313.40466246 21.43125000 -0.13648483
v 313.40466246 21.43125000 0.13648483
v 313.44183182 21.43125000 0.40691203
v 313.51547816 21.43125000 0.66975922
v 313.62422956 21.43125000 0.92013008
v 313.76606021 21.43125000 1.15336064
v 313.93832807 21.43125000 1.36510629
v 314.13782411 21.43125000 1.55142258
v 314.36083210 21.43125000 1.70883881
v 314.60319782 21.43125000 1.83442260
v 314.86040646 21.43125000 1.92583457
v 315.12766670 21.43125000 1.98137189
v 315.40000000 18.43125000 -2.00000000
v 315.12766670 18.43125000 -1.98137189
v 314.86040646 18.43125000 -1.92583457
v 314.60319782 18.43125000 -1.83442260
v 314.36083210 18.43125000 -1.70883881
v 314.13782411 18.43125000 -1.55142258
v 313.93832807 18.43125000 -1.36510629
v 313.76606021 18.43125000 -1.15336064
v 313.62422956 18.43125000 -0.92013008
v 313.51547816 18.43125000 -0.66975922
v 313.44183182 18.43125000 -0.40691203
v 313.40466246 18.43125000 -0.13648483
v 313.40466246 18.43125000 0.13648483
v 313.44183182 18.43125000 0.40691203
v 313.51547816 18.43125000 0.66975922
v 313.62422956 18.43125000 0.92013008
v 313.76606021 18.43125000 1.15336064
v 313.93832807 18.43125000 1.36510629
v 314.13782411 18.43125000 1.55142258
v 314.36083210 18.43125000 1.70883881
v 314.60319782 18.43125000 1.83442260
v 314.86040646 18.43125000 1.92583457
v 315.12766670 18.43125000 1.98137189
v -315.40000000 18.43125000 2.00000000
v -315.40000000 21.43125000 2.00000000
v -315.67233330 21.43125000 1.98137189
v -315.93959354 21.43125000 1.92583457
v -316.19680218 21.43125000 1.83442260
v -316.43916790 21.43125000 1.70883881
v -316.66217589 21.43125000 1.55142258
v -316.86167193 21.43125000 1.36510629
v -317.03393979 21.43125000 1.15336064
v -317.17577044 21.43125000 0.92013008
v -317.28452184 21.43125000 0.66975922
v -317.35816818 21.43125000 0.40691203
v -317.39533754 21.43125000 0.13648483
v -317.39533754 21.43125000 -0.13648483
v -317.35816818 21.43125000 -0.40691203
v -317.28452184 21.43125000 -0.66975922
v -317.17577044 21.43125000 -0.92013008
v -317.03393979 21.43125000 -1.15336064
v -316.86167193 21.43125000 -1.36510629
v -316.66217589 21.43125000 -1.55142258
v -316.43916790 21.43125000 -1.70883881
v -316.19680218 21.43125000 -1.83442260
v -315.93959354 21.43125000 -1.92583457
v -315.67233330 21.43125000 -1.98137189
v -315.40000000 21.43125000 -2.00000000
v -315.40000000 18.43125000 -2.00000000
v -315.67233330 18.43125000 1.98137189
v -315.93959354 18.43125000 1.92583457
v -316.19680218 18.43125000 1.83442260
v -316.43916790 18.43125000 1.70883881
v -316.66217589 18.43125000 1.55142258
v -316.86167193 18.43125000 1.36510629
v -317.03393979 18.43125000 1.15336064
v -317.17577044 18.43125000 0.92013008
v -317.28452184 18.43125000 0.66975922
v -317.35816818 18.43125000 0.40691203
v -317.39533754 18.43125000 0.13648483
v -317.39533754 18.43125000 -0.13648483
v -317.35816818 18.43125000 -0.40691203
v -317.28452184 18.43125000 -0.66975922
v -317.17577044 18.43125000 -0.92013008
v -317.03393979 18.43125000 -1.15336064
v -316.86167193 18.43125000 -1.36510629
v -316.66217589 18.43125000 -1.55142258
v -316.43916790 18.43125000 -1.70883881
v -316.19680218 18.43125000 -1.83442260
v -315.93959354 18.43125000 -1.92583457
v -315.67233330 18.43125000 -1.98137189
v 328.10000000 13.58125000 -23.52341503
v 328.10000000 15.08125000 -26.12149124
v -328.10000000 15.08125000 -26.12149124
v -328.10000000 13.58125000 -23.52341503
v -328.10000000 13.58125000 23.52341503
v -328.10000000 15.08125000 26.12149124
v 328.10000000 15.08125000 26.12149124
v 328.10000000 13.58125000 23.52341503
v 315.67233330 21.43125000 1.98137189
v 315.93959354 21.43125000 1.92583457
v 316.19680218 21.43125000 1.83442260
v 316.43916790 21.43125000 1.70883881
v 316.66217589 21.43125000 1.55142258
v 316.86167193 21.43125000 1.36510629
v 317.03393979 21.43125000 1.15336064
v 317.17577044 21.43125000 0.92013008
v 317.28452184 21.43125000 0.66975922
v 317.35816818 21.43125000 0.40691203
v 317.39533754 21.43125000 0.13648483
v 317.39533754 21.43125000 -0.13648483
v 317.35816818 21.43125000 -0.40691203
v 317.28452184 21.43125000 -0.66975922
v 317.17577044 21.43125000 -0.92013008
v 317.03393979 21.43125000 -1.15336064
v 316.86167193 21.43125000 -1.36510629
v 316.66217589 21.43125000 -1.55142258
v 316.43916790 21.43125000 -1.70883881
v 316.19680218 21.43125000 -1.83442260
v 315.93959354 21.43125000 -1.92583457
v 315.67233330 21.43125000 -1.98137189
v 315.67233330 18.43125000 1.98137189
v 315.93959354 18.43125000 1.92583457
v 316.19680218 18.43125000 1.83442260
v 316.43916790 18.43125000 1.70883881
v 316.66217589 18.43125000 1.55142258
v 316.86167193 18.43125000 1.36510629
v 317.03393979 18.43125000 1.15336064
v 317.17577044 18.43125000 0.92013008
v 317.28452184 18.43125000 0.66975922
v 317.35816818 18.43125000 0.40691203
v 317.39533754 18.43125000 0.13648483
v 317.39533754 18.43125000 -0.13648483
v 317.35816818 18.43125000 -0.40691203
v 317.28452184 18.43125000 -0.66975922
v 317.17577044 18.43125000 -0.92013008
v 317.03393979 18.43125000 -1.15336064
v 316.86167193 18.43125000 -1.36510629
v 316.66217589 18.43125000 -1.55142258
v 316.43916790 18.43125000 -1.70883881
v 316.19680218 18.43125000 -1.83442260
v 315.93959354 18.43125000 -1.92583457
v 315.67233330 18.43125000 -1.98137189
v -315.12766670 21.43125000 -1.98137189
v -314.86040646 21.43125000 -1.92583457
v -314.60319782 21.43125000 -1.83442260
v -314.36083210 21.43125000 -1.70883881
v -314.13782411 21.43125000 -1.55142258
v -313.93832807 21.43125000 -1.36510629
v -313.76606021 21.43125000 -1.15336064
v -313.62422956 21.43125000 -0.92013008
v -313.51547816 21.43125000 -0.66975922
v -313.44183182 21.43125000 -0.40691203
v -313.40466246 21.43125000 -0.13648483
v -313.40466246 21.43125000 0.13648483
v -313.44183182 21.43125000 0.40691203
v -313.51547816 21.43125000 0.66975922
v -313.62422956 21.43125000 0.92013008
v -313.76606021 21.43125000 1.15336064
v -313.93832807 21.43125000 1.36510629
v -314.13782411 21.43125000 1.55142258
v -314.36083210 21.43125000 1.70883881
v -314.60319782 21.43125000 1.83442260
v -314.86040646 21.43125000 1.92583457
v -315.12766670 21.43125000 1.98137189
v -315.12766670 18.43125000 -1.98137189
v -314.86040646 18.43125000 -1.92583457
v -314.60319782 18.43125000 -1.83442260
v -314.36083210 18.43125000 -1.70883881
v -314.13782411 18.43125000 -1.55142258
v -313.93832807 18.43125000 -1.36510629
v -313.76606021 18.43125000 -1.15336064
v -313.62422956 18.43125000 -0.92013008
v -313.51547816 18.43125000 -0.66975922
v -313.44183182 18.43125000 -0.40691203
v -313.40466246 18.43125000 -0.13648483
v -313.40466246 18.43125000 0.13648483
v -313.44183182 18.43125000 0.40691203
v -313.51547816 18.43125000 0.66975922
v -313.62422956 18.43125000 0.92013008
v -313.76606021 18.43125000 1.15336064
v -313.93832807 18.43125000 1.36510629
v -314.13782411 18.43125000 1.55142258
v -314.36083210 18.43125000 1.70883881
v -314.60319782 18.43125000 1.83442260
v -314.86040646 18.43125000 1.92583457
v -315.12766670 18.43125000 1.98137189
v -328.10000000 21.43125000 15.12296861
v -328.10000000 21.32259974 16.78065125
v -328.10000000 20.99850799 18.40997049
v -328.10000000 20.46452006 19.98304820
v -328.10000000 19.72977263 21.47296861
v -328.10000000 18.80683742 22.85423876
v -328.10000000 17.71150612 24.10322473
v -328.10000000 16.46252015 25.19855604
v 328.10000000 16.46252015 25.19855604
v 328.10000000 17.71150612 24.10322473
v 328.10000000 18.80683742 22.85423876
v 328.10000000 19.72977263 21.47296861
v 328.10000000 20.46452006 19.98304820
v 328.10000000 20.99850799 18.40997049
v 328.10000000 21.32259974 16.78065125
v 328.10000000 21.43125000 15.12296861
v 328.10000000 21.43125000 -15.12296861
v -328.10000000 21.43125000 -15.12296861
v 328.10000000 21.32259974 -16.78065125
v 328.10000000 20.99850799 -18.40997049
v 328.10000000 20.46452006 -19.98304820
v 328.10000000 19.72977263 -21.47296861
v 328.10000000 18.80683742 -22.85423876
v 328.10000000 17.71150612 -24.10322473
v 328.10000000 16.46252015 -25.19855604
v -328.10000000 16.46252015 -25.19855604
v -328.10000000 17.71150612 -24.10322473
v -328.10000000 18.80683742 -22.85423876
v -328.10000000 19.72977263 -21.47296861
v -328.10000000 20.46452006 -19.98304820
v -328.10000000 20.99850799 -18.40997049
v -328.10000000 21.32259974 -16.78065125
v -328.10000000 14.63623586 -22.81849601
v -328.10000000 15.59018578 -21.98190439
v -328.10000000 16.42677740 -21.02795447
v -328.10000000 17.13169642 -19.97296861
v -328.10000000 17.69288147 -18.83499791
v -328.10000000 18.10073052 -17.63351335
v -328.10000000 18.34826516 -16.38907268
v -328.10000000 18.43125000 -15.12296861
v 328.10000000 18.43125000 -15.12296861
v 328.10000000 18.34826516 -16.38907268
v 328.10000000 18.10073052 -17.63351335
v 328.10000000 17.69288147 -18.83499791
v 328.10000000 17.13169642 -19.97296861
v 328.10000000 16.42677740 -21.02795447
v 328.10000000 15.59018578 -21.98190439
v 328.10000000 14.63623586 -22.81849601
v -328.10000000 18.43125000 15.12296861
v 328.10000000 18.43125000 15.12296861
v 328.10000000 14.63623586 22.81849601
v 328.10000000 15.59018578 21.98190439
v 328.10000000 16.42677740 21.02795447
v 328.10000000 17.13169642 19.97296861
v 328.10000000 17.69288147 18.83499791
v 328.10000000 18.10073052 17.63351335
v 328.10000000 18.34826516 16.38907268
v -328.10000000 18.34826516 16.38907268
v -328.10000000 18.10073052 17.63351335
v -328.10000000 17.69288147 18.83499791
v -328.10000000 17.13169642 19.97296861
v -328.10000000 16.42677740 21.02795447
v -328.10000000 15.59018578 21.98190439
v -328.10000000 14.63623586 22.81849601
v -317.40000000 -27.16250000 0.00000000
v -317.40000000 -30.16250000 0.00000000
v -328.10000000 -30.16250000 0.00000000
v -328.10000000 -27.16250000 0.00000000
v -313.40000000 -30.16250000 0.00000000
v -313.40000000 -27.16250000 0.00000000
v 313.40000000 -27.16250000 0.00000000
v 313.40000000 -30.16250000 0.00000000
v 328.10000000 -27.16250000 0.00000000
v 328.10000000 -30.16250000 0.00000000
v 317.40000000 -30.16250000 0.00000000
v 317.40000000 -27.16250000 0.00000000
v 328.10000000 13.59132959 -26.85623868
v 328.10000000 12.01825187 -27.39022661
v 328.10000000 10.38893264 -27.71431835
v 328.10000000 8.73125000 -27.82296861
v 328.10000000 7.07356736 -27.71431835
v 328.10000000 5.44424813 -27.39022661
v 328.10000000 3.87117041 -26.85623868
v 328.10000000 2.38125000 -26.12149124
v -328.10000000 2.38125000 -26.12149124
v -328.10000000 3.87117041 -26.85623868
v -328.10000000 5.44424813 -27.39022661
v -328.10000000 7.07356736 -27.71431835
v -328.10000000 8.73125000 -27.82296861
v -328.10000000 10.38893264 -27.71431835
v -328.10000000 12.01825187 -27.39022661
v -328.10000000 13.59132959 -26.85623868
v 328.10000000 3.88125000 -23.52341503
v 328.10000000 -22.31250000 -8.40044642
v 328.10000000 12.44327929 -24.08460008
v 328.10000000 11.24179474 -24.49244913
v 328.10000000 9.99735406 -24.73998377
v 328.10000000 8.73125000 -24.82296861
v 328.10000000 7.46514594 -24.73998377
v 328.10000000 6.22070526 -24.49244913
v 328.10000000 5.01922071 -24.08460008
v 328.10000000 -23.81250000 -10.99852263
v 328.10000000 -25.19377015 -10.07558742
v 328.10000000 -26.44275612 -8.98025612
v 328.10000000 -27.53808742 -7.73127015
v 328.10000000 -28.46102263 -6.35000000
v 328.10000000 -29.19577006 -4.86007959
v 328.10000000 -29.72975799 -3.28700187
v 328.10000000 -30.05384974 -1.65768264
v 328.10000000 -23.36748586 -7.69552740
v 328.10000000 -24.32143578 -6.85893578
v 328.10000000 -25.15802740 -5.90498586
v 328.10000000 -25.86294642 -4.85000000
v 328.10000000 -26.42413147 -3.71202929
v 328.10000000 -26.83198052 -2.51054474
v 328.10000000 -27.07951516 -1.26610406
v -328.10000000 -23.81250000 -10.99852263
v -328.10000000 3.88125000 -23.52341503
v -328.10000000 5.01922071 -24.08460008
v -328.10000000 6.22070526 -24.49244913
v -328.10000000 7.46514594 -24.73998377
v -328.10000000 8.73125000 -24.82296861
v -328.10000000 9.99735406 -24.73998377
v -328.10000000 11.24179474 -24.49244913
v -328.10000000 12.44327929 -24.08460008
v -328.10000000 -22.31250000 -8.40044642
v -328.10000000 -27.07951516 -1.26610406
v -328.10000000 -26.83198052 -2.51054474
v -328.10000000 -26.42413147 -3.71202929
v -328.10000000 -25.86294642 -4.85000000
v -328.10000000 -25.15802740 -5.90498586
v -328.10000000 -24.32143578 -6.85893578
v -328.10000000 -23.36748586 -7.69552740
v -328.10000000 -30.05384974 -1.65768264
v -328.10000000 -29.72975799 -3.28700187
v -328.10000000 -29.19577006 -4.86007959
v -328.10000000 -28.46102263 -6.35000000
v -328.10000000 -27.53808742 -7.73127015
v -328.10000000 -26.44275612 -8.98025612
v -328.10000000 -25.19377015 -10.07558742
v -313.41731774 -30.15974420 -0.26104644
v -313.46847363 -30.15185775 -0.51805305
v -313.55227168 -30.13941208 -0.76544109
v -313.66797484 -30.12306404 -1.00000325
v -313.81339941 -30.10398974 -1.21769178
v -313.98488493 -30.08361527 -1.41331147
v -314.18180612 -30.06306004 -1.58613622
v -314.39866690 -30.04394047 -1.73130182
v -314.63242049 -30.02749814 -1.84684100
v -314.88091497 -30.01477546 -1.93143392
v -315.13694284 -30.00679093 -1.98263359
v -315.39873442 -30.00403107 -1.99999960
v -315.66024263 -30.00673066 -1.98301506
v -315.91647278 -30.01466913 -1.93212362
v -316.16517810 -30.02735167 -1.84783724
v -316.39895419 -30.04375154 -1.73267548
v -316.61630908 -30.06287730 -1.58758884
v -316.81325882 -30.08340728 -1.41516767
v -316.98526155 -30.10381599 -1.21907483
v -317.13077138 -30.12288422 -1.00181248
v -317.24664855 -30.13925474 -0.76804241
v -317.33085711 -30.15175653 -0.52085972
v -317.38246760 -30.15971107 -0.26331428
v -313.41734661 -27.15893475 -0.26248742
v -313.46858079 -27.14858862 -0.51932056
v -313.55275517 -27.13215943 -0.76660715
v -313.66861558 -27.11066855 -1.00119858
v -313.81373907 -27.08568646 -1.21814089
v -313.98641735 -27.05876052 -1.41484419
v -314.18251361 -27.03183903 -1.58675858
v -314.39912924 -27.00670760 -1.73150103
v -314.63432817 -26.98490796 -1.84763272
v -314.88115965 -26.96824500 -1.93154825
v -315.13815455 -26.95769914 -1.98274238
v -315.40045024 -26.95407522 -1.99999995
v -315.66173142 -26.95778456 -1.98258457
v -315.91896414 -26.96835187 -1.93127416
v -316.16648434 -26.98497333 -1.84729579
v -316.40116611 -27.00673732 -1.73134286
v -316.61846075 -27.03196228 -1.58601032
v -316.81387673 -27.05880384 -1.41455031
v -316.98652476 -27.08575860 -1.21769051
v -317.13145303 -27.11070606 -1.00107230
v -317.24703680 -27.13211969 -0.76710826
v -317.33151592 -27.14855771 -0.51898885
v -317.38275387 -27.15890445 -0.26228398
v 313.41734661 -27.15893475 -0.26248742
v 313.46858079 -27.14858862 -0.51932056
v 313.55275517 -27.13215943 -0.76660715
v 313.66861558 -27.11066855 -1.00119858
v 313.81373907 -27.08568646 -1.21814089
v 313.98641735 -27.05876052 -1.41484419
v 314.18251361 -27.03183903 -1.58675858
v 314.39912924 -27.00670760 -1.73150103
v 314.63432817 -26.98490796 -1.84763272
v 314.88115965 -26.96824500 -1.93154825
v 315.13815455 -26.95769914 -1.98274238
v 315.40045024 -26.95407522 -1.99999995
v 315.66173142 -26.95778456 -1.98258457
v 315.91896414 -26.96835187 -1.93127416
v 316.16648434 -26.98497333 -1.84729579
v 316.40116611 -27.00673732 -1.73134286
v 316.61846075 -27.03196228 -1.58601032
v 316.81387673 -27.05880384 -1.41455031
v 316.98652476 -27.08575860 -1.21769051
v 317.13145303 -27.11070606 -1.00107230
v 317.24703680 -27.13211969 -0.76710826
v 317.33151592 -27.14855771 -0.51898885
v 317.38275387 -27.15890445 -0.26228398
v 313.41718424 -30.15980248 -0.26175799
v 313.46826274 -30.15192694 -0.51793135
v 313.55275508 -30.13934163 -0.76660694
v 313.66816688 -30.12303678 -1.00041386
v 313.81339695 -30.10399359 -1.21758962
v 313.98609864 -30.08347924 -1.41452570
v 314.18243798 -30.06303082 -1.58642977
v 314.39987875 -30.04388395 -1.73175463
v 314.63378890 -30.02741462 -1.84740915
v 314.88109722 -30.01483486 -1.93129847
v 315.13810664 -30.00684000 -1.98257086
v 315.39924641 -30.00403103 -1.99999986
v 315.66144706 -30.00676590 -1.98279223
v 315.91816645 -30.01473056 -1.93172903
v 316.16533083 -30.02736097 -1.84777399
v 316.40063444 -30.04389064 -1.73165064
v 316.61741957 -30.06298072 -1.58679739
v 316.81417295 -30.08350967 -1.41425418
v 316.98651222 -30.10397784 -1.21780725
v 317.13138266 -30.12297722 -1.00108311
v 317.24758501 -30.13939119 -0.76578694
v 317.33154122 -30.15189657 -0.51886590
v 317.38270230 -30.15978473 -0.26213636
v 328.10000000 2.38125000 26.12149124
v 328.10000000 3.87117041 26.85623868
v 328.10000000 5.44424813 27.39022661
v 328.10000000 7.07356736 27.71431835
v 328.10000000 8.73125000 27.82296861
v -328.10000000 8.73125000 27.82296861
v -328.10000000 7.07356736 27.71431835
v -328.10000000 5.44424813 27.39022661
v -328.10000000 3.87117041 26.85623868
v -328.10000000 2.38125000 26.12149124
v -328.10000000 12.44327929 24.08460008
v -328.10000000 11.24179474 24.49244913
v -328.10000000 9.99735406 24.73998377
v -328.10000000 8.73125000 24.82296861
v 328.10000000 8.73125000 24.82296861
v 328.10000000 9.99735406 24.73998377
v 328.10000000 11.24179474 24.49244913
v 328.10000000 12.44327929 24.08460008
v -315.40000000 -26.95407521 2.00000000
v -315.13789769 -26.95769321 1.98277042
v -314.88146539 -26.96823901 1.93157413
v -314.63268801 -26.98503998 1.84695217
v -314.39894428 -27.00671763 1.73146247
v -314.18188799 -27.03192515 1.58620459
v -313.98520078 -27.05893980 1.41362767
v -313.81347060 -27.08574608 1.21743388
v -313.66822673 -27.11075234 1.00009130
v -313.55258473 -27.13219199 0.76619633
v -313.46866904 -27.14852406 0.51877117
v -313.41738066 -27.15887959 0.26150618
v -315.40000000 -30.00403101 2.00000000
v -315.13786514 -30.00678026 1.98270139
v -314.88122828 -30.01475556 1.93156655
v -314.63414498 -30.02739291 1.84755679
v -314.39893012 -30.04392526 1.73139916
v -314.18223171 -30.06301444 1.58652948
v -313.98555845 -30.08353977 1.41398553
v -313.81329739 -30.10400174 1.21755915
v -313.66849163 -30.12299441 1.00086561
v -313.55234269 -30.13940173 0.76561248
v -313.46842629 -30.15190151 0.51874487
v -313.41728939 -30.15978603 0.26207375
v 317.38286632 -27.15897828 0.26137264
v 317.33175100 -27.14865583 0.51784487
v 317.24728694 -27.13216747 0.76650569
v 317.13206011 -27.11081452 1.00002113
v 316.98683861 -27.08580971 1.21730459
v 316.81473244 -27.05892996 1.41369449
v 316.61893782 -27.03207074 1.58537154
v 316.40192209 -27.00685873 1.73071241
v 316.16826978 -26.98511721 1.84655397
v 315.92028503 -26.96833290 1.93111035
v 315.66259122 -26.95770692 1.98270552
v 315.40000000 -26.95407521 2.00000000
v 315.40000000 -30.00403101 2.00000000
v 317.38266850 -30.15974199 0.26114956
v 317.33147232 -30.15184946 0.51825385
v 317.24760892 -30.13939468 0.76572925
v 317.13181493 -30.12303529 1.00036690
v 316.98628387 -30.10394998 1.21810438
v 316.81467394 -30.08356582 1.41375304
v 316.61761427 -30.06300403 1.58658113
v 316.40061389 -30.04388325 1.73171763
v 316.16670926 -30.02744501 1.84720245
v 315.91807652 -30.01473376 1.93170500
v 315.66191571 -30.00676717 1.98278396
v 328.10000000 -22.31250000 8.40044642
v -328.10000000 -22.31250000 8.40044642
v -328.10000000 -23.36748586 7.69552740
v -328.10000000 -24.32143578 6.85893578
v -328.10000000 -25.15802740 5.90498586
v -328.10000000 -25.86294642 4.85000000
v -328.10000000 -26.42413147 3.71202929
v -328.10000000 -26.83198052 2.51054474
v -328.10000000 -27.07951516 1.26610406
v -317.38286632 -27.15897828 0.26137264
v -317.33175100 -27.14865583 0.51784487
v -317.24728694 -27.13216747 0.76650569
v -317.13206011 -27.11081452 1.00002113
v -316.98683861 -27.08580971 1.21730459
v -316.81473244 -27.05892996 1.41369449
v -316.61893782 -27.03207074 1.58537154
v -316.40192209 -27.00685873 1.73071241
v -316.16826978 -26.98511721 1.84655397
v -315.92028503 -26.96833290 1.93111035
v -315.66259122 -26.95770692 1.98270552
v 315.13789769 -26.95769321 1.98277042
v 314.88146539 -26.96823901 1.93157413
v 314.63268801 -26.98503998 1.84695217
v 314.39894428 -27.00671763 1.73146247
v 314.18188799 -27.03192515 1.58620459
v 313.98520078 -27.05893980 1.41362767
v 313.81347060 -27.08574608 1.21743388
v 313.66822673 -27.11075234 1.00009130
v 313.55258473 -27.13219199 0.76619633
v 313.46866904 -27.14852406 0.51877117
v 313.41738066 -27.15887959 0.26150618
v 328.10000000 -27.07951516 1.26610406
v 328.10000000 -26.83198052 2.51054474
v 328.10000000 -26.42413147 3.71202929
v 328.10000000 -25.86294642 4.85000000
v 328.10000000 -25.15802740 5.90498586
v 328.10000000 -24.32143578 6.85893578
v 328.10000000 -23.36748586 7.69552740
v 328.10000000 -30.05384974 1.65768264
v 328.10000000 -29.72975799 3.28700187
v 328.10000000 -29.19577006 4.86007959
v 328.10000000 -28.46102263 6.35000000
v 328.10000000 -27.53808742 7.73127015
v 328.10000000 -26.44275612 8.98025612
v 328.10000000 -25.19377015 10.07558742
v 328.10000000 -23.81250000 10.99852263
v -328.10000000 -23.81250000 10.99852263
v -328.10000000 -25.19377015 10.07558742
v -328.10000000 -26.44275612 8.98025612
v -328.10000000 -27.53808742 7.73127015
v -328.10000000 -28.46102263 6.35000000
v -328.10000000 -29.19577006 4.86007959
v -328.10000000 -29.72975799 3.28700187
v -328.10000000 -30.05384974 1.65768264
v -317.38280757 -30.15980120 0.26182018
v -317.33170457 -30.15192197 0.51805302
v -317.24717248 -30.13933108 0.76678148
v -317.13170790 -30.12301965 1.00063063
v -316.98641151 -30.10396956 1.21783920
v -316.81363571 -30.08344949 1.41479118
v -316.61721530 -30.06299739 1.58669553
v -316.39968827 -30.04384960 1.73200437
v -316.16569075 -30.02738290 1.84762487
v -315.91829877 -30.01480994 1.93146083
v -315.66121153 -30.00682582 1.98266098
v 315.13862176 -30.00675427 1.98286566
v 314.88251806 -30.01471070 1.93185341
v 314.63395317 -30.02740461 1.84747727
v 314.40032554 -30.04380875 1.73225998
v 314.18310977 -30.06293339 1.58714365
v 313.98630024 -30.08345666 1.41472718
v 313.81442285 -30.10385558 1.21866439
v 313.66902096 -30.12291262 1.00145372
v 313.55323175 -30.13927218 0.76775454
v 313.46908849 -30.15176486 0.52065842
v 313.41751849 -30.15971330 0.26321041
v -328.10000000 3.88125000 23.52341503
v 328.10000000 3.88125000 23.52341503
v -328.10000000 7.46514594 24.73998377
v -328.10000000 6.22070526 24.49244913
v -328.10000000 5.01922071 24.08460008
v 328.10000000 5.01922071 24.08460008
v 328.10000000 6.22070526 24.49244913
v 328.10000000 7.46514594 24.73998377
v 328.10000000 10.38893264 27.71431835
v 328.10000000 12.01825187 27.39022661
v 328.10000000 13.59132959 26.85623868
v -328.10000000 13.59132959 26.85623868
v -328.10000000 12.01825187 27.39022661
v -328.10000000 10.38893264 27.71431835
f 4 26 3
f 4 27 26
f 5 28 27
f 5 27 4
f 6 29 28
f 6 30 29
f 6 28 5
f 7 30 6
f 8 31 30
f 8 30 7
f 9 32 31
f 9 31 8
f 10 33 32
f 10 32 9
f 11 34 33
f 11 33 10
f 12 35 34
f 12 34 11
f 13 36 35
f 13 35 12
f 14 37 36
f 14 36 13
f 15 37 14
f 15 38 37
f 15 39 38
f 16 39 15
f 17 39 16
f 17 40 39
f 18 40 17
f 18 41 40
f 19 41 18
f 19 42 41
f 20 42 19
f 20 43 42
f 21 43 20
f 21 44 43
f 22 44 21
f 22 45 44
f 22 46 45
f 23 46 22
f 23 47 46
f 24 47 23
f 24 48 47
f 25 48 24
f 25 1 48
f 2 1 25
f 72 74 73
f 72 96 74
f 71 95 96
f 71 96 72
f 70 94 95
f 70 95 71
f 69 93 94
f 69 94 70
f 68 92 93
f 68 93 69
f 67 90 91
f 67 91 92
f 67 92 68
f 66 90 67
f 65 89 90
f 65 90 66
f 64 88 89
f 64 89 65
f 63 87 88
f 63 88 64
f 62 85 86
f 62 86 87
f 62 87 63
f 61 85 62
f 60 85 61
f 60 83 84
f 60 84 85
f 59 83 60
f 58 83 59
f 58 82 83
f 57 82 58
f 57 81 82
f 56 81 57
f 56 80 81
f 55 80 56
f 55 79 80
f 54 78 79
f 54 79 55
f 53 78 54
f 53 77 78
f 52 76 77
f 52 77 53
f 51 49 75
f 51 75 76
f 51 76 52
f 50 49 51
f 98 100 99
f 97 100 98
f 103 102 101
f 103 101 104
f 105 1 2
f 105 127 1
f 106 128 127
f 106 127 105
f 107 129 128
f 107 130 129
f 107 128 106
f 108 130 107
f 109 131 130
f 109 132 131
f 109 130 108
f 110 132 109
f 111 133 132
f 111 134 133
f 111 132 110
f 112 134 111
f 113 135 134
f 113 134 112
f 114 136 135
f 114 135 113
f 115 137 136
f 115 136 114
f 116 137 115
f 116 138 137
f 116 139 138
f 117 139 116
f 118 139 117
f 118 140 139
f 118 141 140
f 119 141 118
f 119 142 141
f 120 142 119
f 121 142 120
f 121 143 142
f 122 143 121
f 122 144 143
f 123 144 122
f 123 145 144
f 123 146 145
f 124 146 123
f 125 146 124
f 125 147 146
f 125 148 147
f 126 148 125
f 3 148 126
f 3 26 148
f 170 49 50
f 170 192 49
f 169 191 192
f 169 192 170
f 168 190 191
f 168 191 169
f 167 188 189
f 167 189 190
f 167 190 168
f 166 188 167
f 165 187 188
f 165 188 166
f 164 186 187
f 164 187 165
f 163 185 186
f 163 186 164
f 162 184 185
f 162 185 163
f 161 183 184
f 161 184 162
f 160 182 183
f 160 183 161
f 159 182 160
f 159 180 181
f 159 181 182
f 158 180 159
f 157 180 158
f 157 178 179
f 157 179 180
f 156 178 157
f 155 178 156
f 155 177 178
f 154 177 155
f 154 176 177
f 153 176 154
f 153 175 176
f 152 174 175
f 152 175 153
f 151 174 152
f 151 173 174
f 150 172 173
f 150 173 151
f 149 74 171
f 149 171 172
f 149 172 150
f 73 74 149
f 102 103 201
f 200 201 202
f 200 102 201
f 199 202 203
f 199 200 202
f 198 203 204
f 198 199 203
f 197 204 205
f 197 198 204
f 196 205 206
f 196 197 205
f 195 196 206
f 194 206 207
f 194 207 208
f 194 195 206
f 193 194 208
f 55 56 193
f 57 193 56
f 54 55 193
f 58 193 57
f 53 54 193
f 59 193 58
f 52 53 193
f 60 193 59
f 51 52 193
f 61 193 60
f 50 51 193
f 62 193 61
f 170 50 193
f 169 170 193
f 168 169 193
f 167 168 193
f 166 167 193
f 210 193 62
f 210 73 149
f 210 62 63
f 210 63 64
f 210 64 65
f 210 65 66
f 210 66 67
f 210 67 68
f 210 68 69
f 210 69 70
f 210 70 71
f 210 71 72
f 210 72 73
f 150 210 149
f 151 210 150
f 152 210 151
f 153 210 152
f 20 165 166
f 21 166 193
f 21 20 166
f 19 164 165
f 19 165 20
f 18 164 19
f 18 163 164
f 17 163 18
f 17 162 163
f 208 22 21
f 208 23 22
f 208 24 23
f 208 21 193
f 16 162 17
f 16 161 162
f 25 24 208
f 15 161 16
f 15 160 161
f 2 25 208
f 14 160 15
f 14 158 159
f 14 159 160
f 105 2 208
f 13 158 14
f 106 105 208
f 12 157 158
f 12 158 13
f 107 106 208
f 11 157 12
f 11 156 157
f 108 107 208
f 10 156 11
f 10 154 155
f 10 155 156
f 109 108 208
f 9 154 10
f 110 109 208
f 8 154 9
f 8 153 154
f 111 110 208
f 112 111 208
f 113 112 208
f 114 113 208
f 115 114 208
f 209 4 3
f 209 5 4
f 209 6 5
f 209 7 6
f 209 8 7
f 209 116 115
f 209 117 116
f 209 118 117
f 209 119 118
f 209 120 119
f 209 121 120
f 209 122 121
f 209 123 122
f 209 153 8
f 209 124 123
f 209 125 124
f 209 126 125
f 209 3 126
f 209 115 208
f 209 210 153
f 224 209 211
f 224 210 209
f 223 211 212
f 223 224 211
f 222 212 213
f 222 213 214
f 222 223 212
f 221 222 214
f 220 214 215
f 220 215 216
f 220 221 214
f 219 220 216
f 218 216 217
f 218 219 216
f 99 217 98
f 99 218 217
f 232 234 233
f 231 235 234
f 231 234 232
f 230 236 235
f 230 235 231
f 229 237 236
f 229 236 230
f 228 238 237
f 228 237 229
f 227 239 238
f 227 238 228
f 226 240 239
f 226 239 227
f 225 240 226
f 100 97 240
f 100 240 225
f 79 241 80
f 81 80 241
f 78 241 79
f 82 81 241
f 77 241 78
f 83 82 241
f 76 241 77
f 84 83 241
f 75 241 76
f 85 84 241
f 49 241 75
f 86 85 241
f 192 241 49
f 191 241 192
f 190 241 191
f 189 241 190
f 188 241 189
f 232 86 241
f 232 87 86
f 232 88 87
f 232 89 88
f 232 90 89
f 232 91 90
f 232 92 91
f 232 93 92
f 232 94 93
f 232 95 94
f 232 96 95
f 232 74 96
f 232 171 74
f 172 171 232
f 173 172 232
f 174 173 232
f 175 174 232
f 44 188 187
f 44 187 43
f 42 187 186
f 42 43 187
f 41 42 186
f 41 185 184
f 41 186 185
f 40 41 184
f 242 241 188
f 242 44 45
f 242 45 46
f 242 46 47
f 242 188 44
f 39 40 184
f 39 184 183
f 48 242 47
f 38 39 183
f 38 183 182
f 1 242 48
f 37 38 182
f 37 181 180
f 37 182 181
f 127 242 1
f 36 37 180
f 36 180 179
f 128 242 127
f 35 36 179
f 129 242 128
f 34 35 179
f 34 178 177
f 34 179 178
f 130 242 129
f 33 34 177
f 131 242 130
f 32 33 177
f 32 177 176
f 132 242 131
f 31 32 176
f 31 176 175
f 133 242 132
f 134 242 133
f 135 242 134
f 136 242 135
f 137 242 136
f 138 242 137
f 233 138 139
f 233 139 140
f 233 140 141
f 233 141 142
f 233 142 143
f 233 143 144
f 233 144 145
f 233 145 146
f 233 146 147
f 233 147 148
f 233 148 26
f 233 26 27
f 233 27 28
f 233 28 29
f 233 29 30
f 233 30 31
f 233 31 175
f 233 242 138
f 233 175 232
f 101 243 104
f 256 244 243
f 256 243 101
f 255 245 244
f 255 244 256
f 254 245 255
f 253 246 245
f 253 245 254
f 252 247 246
f 252 246 253
f 251 248 247
f 251 249 248
f 251 247 252
f 250 249 251
f 241 242 249
f 241 249 250
f 200 101 102
f 256 101 200
f 255 256 200
f 199 255 200
f 198 254 255
f 198 255 199
f 197 253 254
f 197 254 198
f 196 252 253
f 196 253 197
f 195 251 252
f 195 252 196
f 194 250 251
f 194 251 195
f 193 241 250
f 193 250 194
f 210 232 241
f 210 241 193
f 224 231 232
f 224 232 210
f 223 230 231
f 223 231 224
f 222 229 230
f 222 230 223
f 221 228 229
f 221 229 222
f 220 227 228
f 220 228 221
f 218 100 225
f 218 99 100
f 219 218 225
f 219 225 226
f 219 226 227
f 219 227 220
f 217 97 98
f 240 97 217
f 239 217 216
f 239 240 217
f 215 238 239
f 215 239 216
f 214 237 238
f 214 238 215
f 213 235 236
f 213 236 237
f 213 237 214
f 212 235 213
f 211 234 235
f 211 235 212
f 209 233 234
f 209 234 211
f 242 233 209
f 208 242 209
f 207 249 242
f 207 242 208
f 206 248 249
f 206 249 207
f 205 246 247
f 205 247 248
f 205 248 206
f 103 104 243
f 204 246 205
f 203 246 204
f 203 245 246
f 201 103 243
f 202 201 243
f 202 243 244
f 202 244 245
f 202 245 203
f 257 259 258
f 257 260 259
f 263 262 261
f 263 261 264
f 265 267 266
f 265 268 267
f 97 98 99
f 97 99 100
f 99 98 269
f 284 269 270
f 284 99 269
f 283 270 271
f 283 284 270
f 282 271 272
f 282 283 271
f 281 272 273
f 281 282 272
f 280 273 274
f 280 281 273
f 279 274 275
f 279 280 274
f 278 275 276
f 278 279 275
f 277 278 276
f 302 296 295
f 302 303 296
f 304 297 296
f 304 296 303
f 286 295 294
f 286 302 295
f 305 298 297
f 305 299 298
f 305 297 304
f 306 299 305
f 307 300 299
f 307 299 306
f 308 301 300
f 308 300 307
f 265 266 301
f 265 301 308
f 285 294 276
f 285 286 294
f 293 276 275
f 293 285 276
f 292 275 274
f 292 293 275
f 291 273 272
f 291 274 273
f 291 292 274
f 290 272 271
f 290 291 272
f 289 271 270
f 289 290 271
f 288 289 270
f 287 288 270
f 287 270 269
f 97 269 98
f 97 287 269
f 294 277 276
f 294 309 277
f 260 326 259
f 319 326 260
f 320 327 326
f 320 326 319
f 321 328 327
f 321 327 320
f 322 329 328
f 322 328 321
f 330 329 322
f 323 330 322
f 331 330 323
f 324 331 323
f 325 331 324
f 332 331 325
f 309 325 318
f 309 332 325
f 277 318 310
f 277 309 318
f 278 310 311
f 278 277 310
f 279 311 312
f 279 312 313
f 279 278 311
f 280 279 313
f 281 313 314
f 281 314 315
f 281 280 313
f 282 281 315
f 283 315 316
f 283 282 315
f 284 283 316
f 284 316 317
f 284 317 100
f 99 284 100
f 262 333 261
f 356 334 333
f 356 333 262
f 357 335 334
f 357 334 356
f 358 336 335
f 358 335 357
f 359 337 336
f 359 336 358
f 360 338 337
f 360 337 359
f 361 339 338
f 361 338 360
f 362 340 339
f 362 339 361
f 363 341 340
f 363 340 362
f 364 342 341
f 364 341 363
f 365 343 342
f 365 342 364
f 366 344 343
f 366 343 365
f 367 344 366
f 367 345 344
f 368 345 367
f 369 345 368
f 369 346 345
f 370 347 346
f 370 346 369
f 371 348 347
f 371 347 370
f 372 349 348
f 372 348 371
f 373 350 349
f 373 349 372
f 374 351 350
f 374 350 373
f 375 352 351
f 375 351 374
f 376 353 352
f 376 352 375
f 377 354 353
f 377 353 376
f 378 355 354
f 378 354 377
f 257 258 355
f 257 355 378
f 268 424 267
f 401 423 424
f 401 424 268
f 400 422 423
f 400 423 401
f 399 421 422
f 399 422 400
f 398 420 421
f 398 421 399
f 397 419 420
f 397 420 398
f 396 418 419
f 396 419 397
f 395 417 418
f 395 418 396
f 394 416 417
f 394 417 395
f 393 415 416
f 393 416 394
f 392 414 415
f 392 415 393
f 391 413 414
f 391 414 392
f 390 413 391
f 389 413 390
f 389 412 413
f 388 412 389
f 388 411 412
f 387 411 388
f 387 410 411
f 386 410 387
f 386 409 410
f 385 409 386
f 385 408 409
f 384 408 385
f 384 407 408
f 383 406 407
f 383 407 384
f 382 406 383
f 382 405 406
f 381 404 405
f 381 405 382
f 380 403 404
f 380 404 381
f 379 402 403
f 379 403 380
f 263 264 402
f 263 402 379
f 309 294 295
f 332 295 296
f 332 309 295
f 331 296 297
f 331 332 296
f 330 297 298
f 330 331 297
f 329 298 299
f 329 330 298
f 301 414 413
f 301 415 414
f 301 416 415
f 301 417 416
f 301 413 300
f 328 299 300
f 328 329 299
f 419 418 301
f 420 419 301
f 421 420 301
f 422 421 301
f 266 423 422
f 266 424 423
f 266 422 301
f 267 424 266
f 327 328 300
f 344 327 300
f 344 300 413
f 343 412 411
f 343 413 412
f 343 344 413
f 342 411 410
f 342 343 411
f 341 342 410
f 341 410 409
f 340 409 408
f 340 341 409
f 339 408 407
f 339 340 408
f 326 344 345
f 326 327 344
f 326 345 346
f 326 346 347
f 326 347 348
f 338 407 406
f 338 339 407
f 350 326 349
f 337 406 405
f 337 338 406
f 351 326 350
f 336 405 404
f 336 337 405
f 352 326 351
f 335 404 403
f 335 336 404
f 353 326 352
f 334 403 402
f 334 335 403
f 333 402 264
f 333 334 402
f 261 333 264
f 259 353 354
f 259 354 355
f 259 355 258
f 259 326 353
f 418 417 301
f 348 349 326
f 325 286 318
f 325 302 286
f 325 303 302
f 324 304 303
f 324 303 325
f 323 305 304
f 323 304 324
f 322 306 305
f 322 305 323
f 391 307 390
f 392 307 391
f 393 307 392
f 308 393 394
f 308 394 395
f 308 395 396
f 308 307 393
f 321 307 306
f 321 306 322
f 398 308 397
f 399 308 398
f 400 308 399
f 265 400 401
f 265 308 400
f 268 265 401
f 320 307 321
f 367 389 390
f 367 307 320
f 367 390 307
f 366 389 367
f 366 388 389
f 368 367 320
f 365 388 366
f 365 387 388
f 369 368 320
f 364 387 365
f 370 369 320
f 363 386 387
f 363 387 364
f 362 384 385
f 362 385 386
f 362 386 363
f 361 384 362
f 360 382 383
f 360 383 384
f 360 384 361
f 319 371 370
f 319 372 371
f 319 373 372
f 319 370 320
f 359 381 382
f 359 382 360
f 375 374 319
f 358 381 359
f 376 375 319
f 357 380 381
f 357 381 358
f 377 376 319
f 356 263 379
f 356 379 380
f 356 380 357
f 262 263 356
f 260 378 377
f 260 257 378
f 260 377 319
f 397 308 396
f 373 319 374
f 286 310 318
f 286 285 310
f 100 287 97
f 317 288 287
f 317 287 100
f 316 289 288
f 316 288 317
f 315 290 289
f 315 289 316
f 314 291 290
f 314 290 315
f 313 292 291
f 313 291 314
f 312 293 292
f 312 292 313
f 311 285 293
f 311 293 312
f 310 285 311
f 433 425 426
f 433 426 427
f 433 434 425
f 432 427 428
f 432 433 427
f 431 432 428
f 430 428 429
f 430 431 428
f 437 439 438
f 437 440 439
f 437 441 440
f 436 442 441
f 436 441 437
f 435 104 442
f 435 442 436
f 101 104 435
f 444 455 443
f 444 456 455
f 445 457 456
f 445 456 444
f 446 458 457
f 446 457 445
f 447 459 458
f 447 458 446
f 448 460 459
f 448 459 447
f 449 461 460
f 449 460 448
f 450 462 461
f 450 461 449
f 451 463 462
f 451 462 450
f 452 464 463
f 452 463 451
f 453 465 464
f 453 464 452
f 454 466 465
f 454 465 453
f 262 261 466
f 262 466 454
f 477 479 478
f 477 490 479
f 476 489 490
f 476 490 477
f 475 488 489
f 475 489 476
f 474 487 488
f 474 488 475
f 473 486 487
f 473 487 474
f 472 485 486
f 472 486 473
f 471 484 485
f 471 485 472
f 470 483 484
f 470 484 471
f 469 482 483
f 469 483 470
f 468 481 482
f 468 482 469
f 467 480 481
f 467 481 468
f 268 267 480
f 268 480 467
f 467 265 268
f 468 265 467
f 522 468 469
f 522 469 470
f 522 470 471
f 522 265 468
f 473 522 472
f 474 522 473
f 475 522 474
f 523 522 475
f 523 475 476
f 523 476 477
f 523 477 478
f 454 263 262
f 454 520 521
f 454 521 263
f 500 257 260
f 453 520 454
f 501 500 260
f 452 520 453
f 452 519 520
f 451 518 519
f 451 519 452
f 450 516 517
f 450 517 518
f 450 518 451
f 499 502 501
f 499 503 502
f 499 504 503
f 499 501 260
f 449 516 450
f 448 515 516
f 448 516 449
f 506 505 499
f 447 514 515
f 447 515 448
f 507 506 499
f 446 514 447
f 446 512 513
f 446 513 514
f 508 507 499
f 445 512 446
f 444 478 511
f 444 511 512
f 444 512 445
f 443 478 444
f 498 509 508
f 498 510 509
f 498 523 478
f 498 443 510
f 498 524 523
f 498 508 499
f 498 478 443
f 497 524 498
f 496 525 524
f 496 526 525
f 496 524 497
f 495 526 496
f 494 527 526
f 494 528 527
f 494 526 495
f 493 528 494
f 492 528 493
f 492 491 528
f 504 499 505
f 472 522 471
f 480 267 266
f 481 480 266
f 482 481 266
f 529 483 482
f 529 484 483
f 529 485 484
f 529 486 485
f 529 482 266
f 488 487 529
f 489 488 529
f 490 489 529
f 479 490 529
f 530 479 529
f 466 261 264
f 466 264 566
f 545 259 258
f 465 466 566
f 465 566 565
f 546 259 545
f 464 465 565
f 464 565 564
f 547 259 546
f 463 464 564
f 463 564 563
f 462 463 563
f 462 563 562
f 461 562 561
f 461 462 562
f 460 561 560
f 460 461 561
f 544 547 548
f 544 548 549
f 544 549 550
f 544 550 551
f 544 259 547
f 459 460 560
f 459 560 559
f 458 559 558
f 458 459 559
f 553 544 552
f 457 458 558
f 457 558 557
f 554 544 553
f 456 457 557
f 456 557 556
f 555 544 554
f 455 556 479
f 455 456 556
f 455 544 555
f 543 530 531
f 543 479 530
f 543 455 479
f 543 544 455
f 542 543 531
f 541 531 532
f 541 542 531
f 540 532 533
f 540 541 532
f 539 533 534
f 539 540 533
f 538 539 534
f 538 534 535
f 537 538 535
f 537 535 536
f 551 552 544
f 487 486 529
f 263 566 264
f 521 565 566
f 521 566 263
f 520 564 565
f 520 565 521
f 519 563 564
f 519 564 520
f 518 562 563
f 518 563 519
f 517 561 562
f 517 562 518
f 516 560 561
f 516 561 517
f 515 559 560
f 515 560 516
f 514 558 559
f 514 559 515
f 513 557 558
f 513 558 514
f 512 556 557
f 512 557 513
f 511 479 556
f 511 556 512
f 478 479 511
f 257 545 258
f 500 546 545
f 500 545 257
f 501 547 546
f 501 546 500
f 502 548 547
f 502 547 501
f 503 549 548
f 503 548 502
f 504 550 549
f 504 549 503
f 505 551 550
f 505 550 504
f 506 552 551
f 506 551 505
f 507 553 552
f 507 552 506
f 508 554 553
f 508 553 507
f 509 555 554
f 509 554 508
f 510 455 555
f 510 555 509
f 443 455 510
f 568 492 567
f 568 491 492
f 571 568 567
f 571 572 568
f 571 573 572
f 570 574 573
f 570 573 571
f 569 574 570
f 438 439 574
f 438 574 569
f 522 266 265
f 522 529 266
f 522 530 529
f 523 531 530
f 523 530 522
f 524 531 523
f 532 531 524
f 525 532 524
f 526 533 532
f 526 532 525
f 527 534 533
f 527 533 526
f 535 527 528
f 535 534 527
f 536 528 491
f 536 535 528
f 425 491 568
f 425 536 491
f 426 568 572
f 426 425 568
f 427 572 573
f 427 426 572
f 428 573 574
f 428 574 439
f 428 427 573
f 429 439 440
f 429 428 439
f 575 429 440
f 576 440 441
f 576 441 442
f 576 575 440
f 577 576 442
f 103 442 104
f 103 577 442
f 425 537 536
f 425 434 537
f 494 539 538
f 495 540 539
f 495 539 494
f 493 494 538
f 496 541 540
f 496 540 495
f 492 538 537
f 492 493 538
f 497 542 541
f 497 541 496
f 498 543 542
f 498 542 497
f 499 544 543
f 499 543 498
f 260 259 544
f 260 544 499
f 567 537 434
f 567 492 537
f 571 433 432
f 571 434 433
f 571 567 434
f 570 571 432
f 569 432 431
f 569 570 432
f 438 431 430
f 438 569 431
f 437 430 580
f 437 438 430
f 436 580 579
f 436 437 580
f 435 436 579
f 435 579 578
f 101 578 102
f 101 435 578
f 430 429 575
f 580 575 576
f 580 430 575
f 579 576 577
f 579 580 576
f 578 577 103
f 578 579 577
f 102 578 103
f 265 266 267
f 265 267 268
f 263 264 261
f 263 261 262
f 257 258 259
f 257 259 260
f 103 104 101
f 103 101 102

