# https://github.com/mikedh/trimesh
v 1.78034451 37.91039989 3.17487530
v 1.77833416 37.94116606 3.17084234
v 1.77535208 37.91039989 3.17500000
v 3.63730670 -37.91039989 -0.05000000
v 3.64467342 -37.91039989 -0.03420201
v 3.64498101 -37.93708427 -0.02517075
v 3.65070416 -37.91039989 0.00000000
v 3.63051187 -37.97393047 -0.00215072
v -1.86195462 37.91039989 3.12500000
v -1.84089721 37.91039989 3.15052374
v -1.81266343 37.91039989 3.16777857
v -1.78034451 37.91039989 3.17487530
v -1.79210030 38.00462296 3.10400878
v -1.81183450 37.97829775 3.14213209
v -1.84567871 37.93916974 3.14240969
v 1.77535208 -37.91039989 -3.17500000
v 1.77833416 -37.94116606 -3.17084234
v 1.78034451 -37.91039989 -3.17487530
v -3.63730670 37.91039989 -0.05000000
v -3.64467342 37.91039989 -0.03420201
v -3.64624990 37.94238108 -0.01569947
v -3.65070416 37.91039989 -0.00000000
v -3.58461046 38.00655556 -0.01249130
v -3.61862004 37.98582841 0.00215308
v -1.86195462 -37.91039989 -3.12500000
v -1.84089721 -37.91039989 -3.15052374
v -1.81266343 -37.91039989 -3.16777857
v -1.78034451 -37.91039989 -3.17487530
v -1.79210030 -38.00462296 -3.10400878
v -1.81183450 -37.97829775 -3.14213209
v -1.84567871 -37.93916974 -3.14240969
v 0.61622856 38.09850791 -1.77653075
v 1.77526090 38.09516435 0.55228478
v 1.46759315 38.09850791 1.17557199
v 1.09600529 38.09850791 1.52793048
v 0.64313179 38.09850791 1.76696934
v 0.12974419 38.09999263 1.89679247
v 0.96395425 38.09493865 -1.58515523
v 0.61316160 38.08283646 -1.73820576
v 0.14889223 38.09678637 1.86822939
v 0.11818683 38.08298100 1.83953613
v 0.61010509 38.08298101 1.73943470
v 0.95984186 38.08329345 1.56934383
v 1.16459414 38.08329346 1.42402843
v 1.42994970 38.08368415 1.16537199
v 1.64323994 38.09517448 0.86363174
v 1.80064489 38.08338365 0.37697448
v 1.85127007 38.09517448 0.13746422
v 1.84866189 38.09422331 -0.16880043
v 1.80207600 38.08329346 -0.36967362
v 1.74495769 38.09074762 -0.61363001
v 1.75262738 38.09905403 -0.70839854
v 1.63468462 38.08338365 -0.84394191
v 1.48026679 38.09495159 -1.12431554
v 1.34642634 38.08271825 -1.25250196
v 1.18002943 38.09645453 -1.43697884
v 0.06228798 38.09560647 -1.85934018
v 0.25321533 38.08338364 -1.82217280
v 0.00000000 -37.93157864 -1.72720000
v 0.23518704 -37.93157864 -1.71111277
v 0.46599298 -37.93157864 -1.66315074
v 0.68811836 -37.93157864 -1.58420736
v 0.89742540 -37.93157864 -1.47575320
v 1.09001510 -37.93157864 -1.33980854
v 1.26229988 -37.93157864 -1.17890579
v 1.41107040 -37.93157864 -0.99604225
v 1.53355535 -37.93157864 -0.79462433
v 1.62747306 -37.93157864 -0.57840407
v 1.69107404 -37.93157864 -0.35140923
v 1.72317350 -37.93157864 -0.11786830
v 1.72317350 -37.93157864 0.11786830
v 1.69673067 -37.97303644 0.35258469
v 1.62747306 -37.93157864 0.57840407
v 1.53355535 -37.93157864 0.79462433
v 1.41107040 -37.93157864 0.99604225
v 1.26229988 -37.93157864 1.17890579
v 1.09001510 -37.93157864 1.33980854
v 0.89742540 -37.93157864 1.47575320
v 0.68811836 -37.93157864 1.58420736
v 0.46599298 -37.93157864 1.66315074
v 0.23518704 -37.93157864 1.71111277
v -0.00095025 -37.97766586 -1.73652742
v 0.90754303 -37.97768205 1.48057885
v 0.69096283 -37.97766584 -1.59314114
v 0.47075473 -37.97664953 -1.67075664
v 0.00260071 -37.97204462 1.73274375
v 0.24254451 -37.97768205 1.71956978
v 0.47443349 -37.97768205 1.67052714
v 0.69748468 -37.97768204 1.59036574
v 1.09893847 -37.97862480 1.34503724
v 1.27113966 -37.97649053 1.18253549
v 1.42107356 -37.97862481 0.99866957
v 1.54304662 -37.97649052 0.79573449
v 1.63836684 -37.97768204 0.57576224
v 1.73158911 -37.97664951 0.12098299
v 1.73366094 -37.97902717 -0.11602824
v 1.70001301 -37.97766583 -0.35423731
v 1.63643286 -37.97664952 -0.57890003
v 1.54390763 -37.97902716 -0.79711481
v 1.41956413 -37.97664953 -0.99893715
v 1.27159634 -37.97902717 -1.18409693
v 1.09516439 -37.97766584 -1.34764361
v 0.90145987 -37.97766585 -1.48421645
v 0.23912233 -37.97902718 -1.72100649
v -0.00879148 -38.09072733 -1.84969064
v 0.62447090 -38.08298101 -1.73432909
v 1.06847919 -38.08376957 -1.50321230
v 1.31891323 -38.09112762 -1.30028546
v 1.51033688 -38.09517448 -1.07934230
v 1.63216559 -38.08338365 -0.84880343
v 1.72855120 -38.09553069 -0.68659588
v 1.81530920 -38.09517448 -0.38826510
v 1.83520493 -38.08338364 -0.12827554
v 1.85647673 -38.09434311 0.05978575
v 1.73180518 -38.08329346 0.62047346
v 1.67405209 -38.09512276 0.80550188
v 1.51749772 -38.09541957 1.07116686
v 1.34318994 -38.08288642 1.25580948
v 1.22034206 -38.09527212 1.40336492
v 0.95528689 -38.09517448 1.59170482
v 0.72858474 -38.08329345 1.68917161
v 0.54889478 -38.09518580 1.77526994
v 0.24206299 -38.09517448 1.84051699
v 0.10664763 -38.09999495 -1.89659166
v 1.87862081 -38.09999495 0.28145602
v 1.27964759 -38.09999567 -1.40390760
v 0.32452362 -38.09432622 -1.82923736
v -0.01127471 -38.09571284 1.85717375
v 1.82148108 -38.09081441 0.33376180
v 0.87777165 -38.09834942 -1.66231070
v 0.00000000 -23.10000000 1.72720000
v -0.23518704 -23.10000000 1.71111277
v -0.46599298 -23.10000000 1.66315074
v -0.68811836 -23.10000000 1.58420736
v -0.89742540 -23.10000000 1.47575320
v -1.09001510 -23.10000000 1.33980854
v -1.26229988 -23.10000000 1.17890579
v -1.41107040 -23.10000000 0.99604225
v -1.53355535 -23.10000000 0.79462433
v -1.62747306 -23.10000000 0.57840407
v -1.69107404 -23.10000000 0.35140923
v -1.72317350 -23.10000000 0.11786830
v -1.72317350 -23.10000000 -0.11786830
v -1.69107404 -23.10000000 -0.35140923
v -1.62747306 -23.10000000 -0.57840407
v -1.53355535 -23.10000000 -0.79462433
v -1.41107040 -23.10000000 -0.99604225
v -1.26229988 -23.10000000 -1.17890579
v -1.09001510 -23.10000000 -1.33980854
v -0.89742540 -23.10000000 -1.47575320
v -0.68811836 -23.10000000 -1.58420736
v -0.46599298 -23.10000000 -1.66315074
v -0.23518704 -23.10000000 -1.71111277
v 0.00000000 -23.10000000 -1.72720000
v 0.00068418 -22.18215582 -0.00034439
v -0.29802153 -22.79387722 1.11223150
v -0.21927253 -22.32960467 0.16924223
v -1.11223174 -22.79387735 0.29802158
v -0.24826406 -22.32556425 -0.10434108
v -0.29802153 -22.79387721 -1.11223149
v -0.17321929 -22.33383873 -0.22638694
v -0.23518704 -37.93157864 1.71111277
v -0.46599298 -37.93157864 1.66315074
v -0.68811836 -37.93157864 1.58420736
v -0.89742540 -37.93157864 1.47575320
v -1.09001510 -37.93157864 1.33980854
v -1.26364179 -37.95245812 1.18015906
v -1.41107040 -37.93157864 0.99604225
v -1.53355535 -37.93157864 0.79462433
v -1.62747306 -37.93157864 0.57840407
v -1.69107404 -37.93157864 0.35140923
v -1.72317350 -37.93157864 0.11786830
v -1.72317350 -37.93157864 -0.11786830
v -1.69107404 -37.93157864 -0.35140923
v -1.62747306 -37.93157864 -0.57840407
v -1.53355535 -37.93157864 -0.79462433
v -1.41107040 -37.93157864 -0.99604225
v -1.26229988 -37.93157864 -1.17890579
v -1.09001510 -37.93157864 -1.33980854
v -0.89742540 -37.93157864 -1.47575320
v -0.68811836 -37.93157864 -1.58420736
v -0.46599298 -37.93157864 -1.66315074
v -0.23518704 -37.93157864 -1.71111277
v 0.00000000 23.10000000 1.72720000
v -0.23518704 23.10000000 1.71111277
v -0.46599298 23.10000000 1.66315074
v -0.68811836 23.10000000 1.58420736
v -0.89742540 23.10000000 1.47575320
v -1.09001510 23.10000000 1.33980854
v -1.26229988 23.10000000 1.17890579
v -1.41107040 23.10000000 0.99604225
v -1.53355535 23.10000000 0.79462433
v -1.62747306 23.10000000 0.57840407
v -1.69107404 23.10000000 0.35140923
v -1.72317350 23.10000000 0.11786830
v -1.72317350 23.10000000 -0.11786830
v -1.69107404 23.10000000 -0.35140923
v -1.62747306 23.10000000 -0.57840407
v -1.53355535 23.10000000 -0.79462433
v -1.41107040 23.10000000 -0.99604225
v -1.09001510 23.10000000 -1.33980854
v -0.89742540 23.10000000 -1.47575320
v -0.68811836 23.10000000 -1.58420736
v -0.46599298 23.10000000 -1.66315074
v -0.23518704 23.10000000 -1.71111277
v 0.00000000 23.10000000 -1.72720000
v 0.00135559 22.18195473 0.00031512
v -0.18758046 22.45097202 -0.46950298
v -1.23172150 23.09912132 -1.21153636
v -1.11223174 22.79387735 -0.29802158
v -0.24826407 22.32556426 0.10434109
v -0.22983620 22.38298250 0.29902852
v -0.29802150 22.79387716 1.11223139
v 0.00000000 37.97300000 -1.72720000
v 0.00000000 37.97300000 1.72720000
v -0.23518704 37.97300000 -1.71111277
v -0.46599298 37.97300000 -1.66315074
v -0.68811836 37.97300000 -1.58420736
v -0.89742540 37.97300000 -1.47575320
v -1.09001510 37.97300000 -1.33980854
v -1.26229988 37.97300000 -1.17890579
v -1.41107040 37.97300000 -0.99604225
v -1.53355535 37.97300000 -0.79462433
v -1.62747306 37.97300000 -0.57840407
v -1.69107404 37.97300000 -0.35140923
v -1.72317350 37.97300000 -0.11786830
v -1.72317350 37.97300000 0.11786830
v -1.69107404 37.97300000 0.35140923
v -1.62747306 37.97300000 0.57840407
v -1.53355535 37.97300000 0.79462433
v -1.41107040 37.97300000 0.99604225
v -1.26229988 37.97300000 1.17890579
v -1.09001510 37.97300000 1.33980854
v -0.89742540 37.97300000 1.47575320
v -0.68811836 37.97300000 1.58420736
v -0.46599298 37.97300000 1.66315074
v -0.23518704 37.97300000 1.71111277
v -0.36756953 38.08298101 -1.80630948
v -1.58378016 38.08476791 -0.94592582
v -1.77290139 38.08298101 -0.50466028
v -0.85283096 38.08222689 1.63319947
v -0.49370367 38.08338365 1.77219876
v 1.79210030 38.00462296 -3.10400878
v 1.38404862 38.06058590 -3.09484605
v 0.90222097 38.09470938 -3.05965754
v -0.00471931 38.10024986 -3.07595307
v 0.84152640 38.10016239 -2.93885400
v -0.00623778 38.09897238 3.08863356
v 1.55318899 38.09934449 2.65656238
v 1.93956096 38.09932880 2.38572995
v 3.00954558 38.09964375 0.64099853
v 2.89793685 38.09892275 -1.19300831
v 0.89813085 38.08988327 3.08561295
v 1.38570869 38.05582611 3.11175522
v 1.95048384 38.05536905 2.80684093
v 2.16854264 38.08562474 2.41901845
v 2.85674084 38.09907712 1.20868237
v 3.25809216 38.08029769 0.53033169
v 3.58420061 38.00462296 -0.00000000
v 3.39589017 38.05604976 -0.30979374
v 3.17911089 38.08563232 -0.66865667
v 2.47033528 38.09866525 -1.88010100
v 0.94280694 38.09918058 2.95570240
v 1.68392000 38.08225487 2.82044072
v 2.35752898 38.09767102 2.08085941
v 2.75634485 38.09837563 1.42822278
v 3.41664704 38.05494098 -0.01399357
v 3.06747807 38.09932523 0.21066268
v 3.26133287 38.08440474 0.11204460
v 3.07188423 38.09943076 -0.22476019
v 3.23666891 38.08469234 -0.35704630
v 2.16532945 38.09789442 -2.24740014
v 1.77178158 38.05595102 -2.91357068
v 1.43801132 38.09954667 -2.74105617
v 1.50287063 38.08540916 -2.88846953
v -0.49963288 -38.08271825 1.76974349
v -0.95984187 -38.08329345 1.56934382
v -1.16459414 -38.08329346 1.42402843
v -1.34765223 -38.08329346 1.25218607
v -1.80191007 -38.08386125 -0.37539407
v -1.73180518 -38.08329346 -0.62047346
v -1.16312384 -38.08338365 -1.42533319
v -0.95820758 -38.08338364 -1.57043623
v -0.74849944 -38.09448150 -1.69759451
v -0.49568897 -38.08386124 -1.77259501
v -0.24940137 -38.08288641 -1.82181655
v -0.23975350 -37.97649054 -1.71950706
v -0.90308367 -37.97766585 -1.48322899
v -1.54304662 -37.97649052 -0.79573449
v -1.70129576 -37.97862479 -0.34983376
v -1.64341265 -37.98760487 0.58333414
v -1.27354398 -37.98834234 1.19223686
v -0.89705525 -37.97768205 1.48695661
v -0.68622612 -37.97768204 1.59525602
v -0.46587635 -37.97664953 1.67212349
v 0.91800366 -38.10011358 2.90304089
v 2.19998387 -38.09999799 2.12841242
v 2.47066855 -38.09929336 1.87620533
v 3.01240981 -38.09860345 0.74045711
v 3.03912886 -38.10000093 -0.20829492
v 2.77745216 -38.09988305 -1.32789077
v 2.13730370 -38.09847433 -2.24703397
v 1.23730556 -38.10001163 -2.78546283
v -0.00160790 -38.09950596 -3.07582890
v 0.89813082 -38.08988329 -3.08561290
v 1.37724881 -38.05924722 -3.10703441
v 2.00190197 -38.05243015 -2.76792668
v 2.16854264 -38.08562474 -2.41901845
v 2.86330781 -38.09866599 -1.19945031
v 3.17911089 -38.08563232 0.66865667
v 1.79210030 -38.00462296 3.10400878
v 0.90162961 -38.08818433 3.09527813
v 1.34692071 -38.06793616 3.08700737
v 1.48675661 -38.08979617 2.85625107
v 2.07471807 -38.07671246 2.58853851
v 3.37663863 -38.06220939 0.32343459
v 3.22047848 -38.09002735 0.04444453
v 3.15560177 -38.08972854 -0.63322708
v 1.67843464 -38.08641909 -2.79543254
v 1.86195462 -37.91039989 3.12500000
v 2.24915635 -37.98673330 2.45434693
v 2.94417472 -37.99876845 1.25053980
v 3.34955666 -37.97649948 0.54839768
v 3.63730670 -37.91039989 0.05000000
v 1.86195462 37.91039989 3.12500000
v 3.63730670 37.91039989 0.05000000
v 3.25002145 37.98673995 0.72079772
v 2.55501476 37.99876777 1.92458462
v 2.14966911 37.97649575 2.62666388
v 3.25002145 -37.98673995 -0.72079772
v 2.55501476 -37.99876777 -1.92458462
v 2.14966911 -37.97649575 -2.62666388
v 1.86195462 -37.91039989 -3.12500000
v 3.63730670 37.91039989 -0.05000000
v 1.86195462 37.91039989 -3.12500000
v 2.94417472 37.99876845 -1.25053980
v 3.34955666 37.97649948 -0.54839768
v 1.00077452 -37.98674804 -3.17500000
v -0.38899082 -37.99876908 -3.17500000
v -1.77667773 -37.91034038 -3.17499827
v 1.77535208 37.91039989 -3.17500000
v -1.77535208 37.91039989 -3.17500000
v 0.38899082 37.99876908 -3.17500000
v 1.19982287 37.97650139 -3.17500000
v -2.94417472 -37.99876845 -1.25053980
v -3.36507550 -37.99501070 -0.51510201
v -3.63730670 -37.91039989 -0.05000000
v -1.86195462 37.91039989 -3.12500000
v -3.22997533 38.01911306 -0.74501731
v -2.55501476 37.99876777 -1.92458462
v -2.14966911 37.97649575 -2.62666388
v -3.63730670 -37.91039989 0.05000000
v -3.22997533 -38.01911306 0.74501731
v -2.55501476 -37.99876777 1.92458462
v -2.14966911 -37.97649575 2.62666388
v -1.86195462 -37.91039989 3.12500000
v -3.63730670 37.91039989 0.05000000
v -2.94417472 37.99876845 1.25053980
v -3.34955666 37.97649948 0.54839768
v -1.77535208 -37.91039989 3.17500000
v -1.00077452 -37.98674804 3.17500000
v 0.38899082 -37.99876908 3.17500000
v 1.20138847 -37.98908763 3.17317623
v 1.77535208 -37.91039989 3.17500000
v -1.77667773 37.91034038 3.17499827
v 1.00077452 37.98674804 3.17500000
v -0.38899082 37.99876908 3.17500000
v -1.26320892 -38.10017329 -2.80171330
v -2.21529113 -38.10000000 -2.06893748
v -2.95218487 -38.10023399 -0.82372223
v -3.15682252 -38.09591833 0.19096539
v -2.77745216 -38.09988305 1.32789077
v -2.13730370 -38.09847433 2.24703397
v -1.38396893 -38.10000501 2.70546144
v -0.00397379 -38.09978358 3.07574078
v -0.89813082 -38.08988329 3.08561290
v -1.37793843 -38.06319318 3.09051262
v -1.81942718 -37.99196195 3.11713156
v -2.16854264 -38.08562474 2.41901845
v -2.86330781 -38.09866599 1.19945031
v -3.58420061 -38.00462296 -0.00000000
v -3.17745244 -38.08727557 -0.66095033
v -2.47033528 -38.09866525 -1.88010100
v -2.07409342 -38.07496741 -2.58993305
v -0.90162961 -38.08818433 -3.09527813
v -1.37954550 -38.06234677 -3.09275960
v -1.48675668 -38.08979617 -2.85625103
v -1.65901524 -38.07488883 -2.87349868
v -2.00882796 -38.08988340 -2.50843556
v -2.07406611 -38.07488883 -2.58989884
v -3.37663863 -38.06220939 -0.32343459
v -3.14644765 -38.08988340 0.65383934
v -1.67843464 -38.08641909 2.79543254
v -1.80673901 -38.09850791 -0.52105018
v -0.63016319 -38.09861549 1.77310914
v -0.89813085 38.08988327 -3.08561295
v -1.82903964 37.99816248 -3.09873916
v -1.96620031 38.05604383 -2.78609202
v -2.16854264 38.08562474 -2.41901845
v -2.86330781 38.09866599 -1.19945031
v -3.25809216 38.08029769 -0.53033169
v -3.39589017 38.05604976 0.30979374
v -3.17911089 38.08563232 0.66865667
v -2.47033528 38.09866525 1.88010100
v -2.09057771 38.07498635 2.58205401
v -1.38404862 38.06058590 3.09484605
v -1.93956096 38.09932880 -2.38572995
v -2.99775581 38.10001737 -0.65401209
v -2.65920180 38.09931706 1.59556745
v -0.82494587 38.10010961 2.92498400
v -1.53796464 38.09930967 -2.68623945
v -1.41515035 38.06095304 -3.08754038
v -1.68392000 38.08225487 -2.82044072
v -2.37000353 38.09837679 -2.05844889
v -2.75634485 38.09837563 -1.42822278
v -3.18456412 38.09497490 -0.25077180
v -3.41664704 38.05494098 0.01399357
v -3.07188423 38.09943076 0.22476019
v -3.26073762 38.08516000 0.08346031
v -2.98907031 38.09899012 0.85646611
v -2.14644422 38.09775385 2.27147269
v -1.77178158 38.05595102 2.91357068
v -1.50813745 38.08587103 2.88266152
v -1.37189675 38.09970104 2.76101865
v -0.89970584 38.08927398 3.09351488
v 0.23518704 37.97300000 1.71111277
v 0.46599298 37.97300000 1.66315074
v 0.68811836 37.97300000 1.58420736
v 0.89742540 37.97300000 1.47575320
v 1.09001510 37.97300000 1.33980854
v 1.26229988 37.97300000 1.17890579
v 1.41107040 37.97300000 0.99604225
v 1.53355535 37.97300000 0.79462433
v 1.62747306 37.97300000 0.57840407
v 1.69107404 37.97300000 0.35140923
v 1.72317350 37.97300000 0.11786830
v 1.72317350 37.97300000 -0.11786830
v 1.69107404 37.97300000 -0.35140923
v 1.62747306 37.97300000 -0.57840407
v 1.53355535 37.97300000 -0.79462433
v 1.41107040 37.97300000 -0.99604225
v 1.26229988 37.97300000 -1.17890579
v 1.09001510 37.97300000 -1.33980854
v 0.89742540 37.97300000 -1.47575320
v 0.68811836 37.97300000 -1.58420736
v 0.46599298 37.97300000 -1.66315074
v 0.23518704 37.97300000 -1.71111277
v -0.44829520 38.09897530 1.82680218
v -0.85342254 38.09999495 1.69708679
v -1.83073111 38.09999386 0.51294679
v -1.88489238 38.09999495 -0.23582696
v -1.31329946 38.09999394 -1.37246092
v 0.23518704 23.10000000 -1.71111277
v 0.46599298 23.10000000 -1.66315074
v 0.68811836 23.10000000 -1.58420736
v 0.89742540 23.10000000 -1.47575320
v 1.09001510 23.10000000 -1.33980854
v 1.26229988 23.10000000 -1.17890579
v 1.41107040 23.10000000 -0.99604225
v 1.53355535 23.10000000 -0.79462433
v 1.62747306 23.10000000 -0.57840407
v 1.69107404 23.10000000 -0.35140923
v 1.72317350 23.10000000 -0.11786830
v 1.72317350 23.10000000 0.11786830
v 1.69107404 23.10000000 0.35140923
v 1.62747306 23.10000000 0.57840407
v 1.53355535 23.10000000 0.79462433
v 1.41107040 23.10000000 0.99604225
v 1.26229988 23.10000000 1.17890579
v 1.09001510 23.10000000 1.33980854
v 0.89742540 23.10000000 1.47575320
v 0.68811836 23.10000000 1.58420736
v 0.46599298 23.10000000 1.66315074
v 0.23518704 23.10000000 1.71111277
v 0.29802154 22.79387725 1.11223157
v 0.99719956 22.79387727 0.57573344
v 0.57573348 22.79387731 0.99719962
v 0.81420984 22.79387713 0.81420986
v 1.11223176 22.79387736 0.29802159
v 1.15146666 22.79387715 0.00000000
v 0.81420984 22.79387713 -0.81420986
v 1.11223165 22.79387730 -0.29802157
v 0.99719956 22.79387727 -0.57573344
v 0.57573348 22.79387730 -0.99719960
v 0.29802154 22.79387725 -1.11223157
v 0.23518704 -23.10000000 -1.71111277
v 0.46599298 -23.10000000 -1.66315074
v 0.68811836 -23.10000000 -1.58420736
v 0.89742540 -23.10000000 -1.47575320
v 1.09001510 -23.10000000 -1.33980854
v 1.26229988 -23.10000000 -1.17890579
v 1.41107040 -23.10000000 -0.99604225
v 1.53355535 -23.10000000 -0.79462433
v 1.62747306 -23.10000000 -0.57840407
v 1.69107404 -23.10000000 -0.35140923
v 1.72317350 -23.10000000 -0.11786830
v 1.72317350 -23.10000000 0.11786830
v 1.69107404 -23.10000000 0.35140923
v 1.66347536 -23.09989313 0.47669884
v 1.53355535 -23.10000000 0.79462433
v 1.41107040 -23.10000000 0.99604225
v 1.26229988 -23.10000000 1.17890579
v 1.09001510 -23.10000000 1.33980854
v 0.89742540 -23.10000000 1.47575320
v 0.68811836 -23.10000000 1.58420736
v 0.46599298 -23.10000000 1.66315074
v 0.23518704 -23.10000000 1.71111277
v 0.57573348 -22.79387731 -0.99719962
v 0.81420984 -22.79387713 -0.81420986
v 0.29802153 -22.79387722 -1.11223150
v 0.99719953 -22.79387725 -0.57573343
v 1.11223174 -22.79387735 -0.29802158
v 0.99719959 -22.79387729 0.57573347
v 1.15146666 -22.79387715 -0.00000000
v 0.81420989 -22.79387716 0.81420989
v 0.57573333 -22.79387716 0.99719938
v 0.29802150 -22.79387716 1.11223139
v -0.36858465 -38.09850791 -1.84389384
v -0.98331659 -38.09879619 -1.59929687
v -1.27238258 -38.09834942 -1.38376389
v -1.34637328 -38.08338365 -1.25367889
v -1.50454234 -38.08338365 -1.05867092
v -1.59916255 -38.09850791 -0.98918060
v -1.63219415 -38.08288642 -0.84685235
v -1.83557858 -38.08338364 -0.12281293
v -1.88031788 -38.09850791 -0.01427590
v -1.83520493 -38.08338364 0.12827554
v -1.81530920 -38.09517448 0.38826509
v -1.73254223 -38.08338365 0.61865111
v -1.73033634 -38.09850791 0.73602668
v -1.63310712 -38.08288642 0.84509039
v -1.50560610 -38.08329346 1.05701786
v -1.46759315 -38.09850791 1.17557199
v -1.09605309 -38.09863863 1.52844668
v -0.73720955 -38.08329345 1.68542533
v -0.25417819 -38.08369745 1.82241869
v -0.25546003 -38.09828194 1.85860967
v -0.47209447 -37.97862481 -1.67150165
v -0.69270599 -37.97766584 -1.59238398
v -1.09663863 -37.97766584 -1.34644422
v -1.26479014 -37.95746055 -1.18123153
v -1.27401046 -37.98760486 -1.19079015
v -1.41923860 -37.97766585 -1.00064486
v -1.63068374 -37.95746055 -0.57954514
v -1.64438945 -37.98771177 -0.58093028
v -1.72657297 -37.95746055 -0.11810083
v -1.74030877 -37.98834236 -0.12111334
v -1.73241431 -37.97766583 0.11945285
v -1.70001301 -37.97766583 0.35423731
v -1.63068374 -37.95746055 0.57954514
v -1.53993574 -37.97649052 0.80173820
v -1.41519434 -37.97768205 1.00646562
v -1.09117391 -37.97768204 1.35095801
v -0.23739851 -37.97766585 1.72022391
v -0.39073073 38.09819770 -1.83786212
v -0.84127548 38.08298101 -1.64015757
v -0.83988871 38.09825831 -1.68328165
v -1.25330433 38.08222689 -1.35051451
v -1.24612863 38.09744796 -1.40355592
v -1.58988740 38.09671066 -0.98548246
v -1.80347146 38.09825831 -0.53510826
v -1.84331310 38.08298100 -0.00762305
v -1.87835911 38.09802711 0.02001647
v -1.77701474 38.08298101 0.48997954
v -1.79886066 38.09678637 0.52588047
v -1.57892332 38.08298101 0.95124260
v -1.59916255 38.09850791 0.98918060
v -1.26373036 38.08298101 1.34195638
v -1.27298357 38.09850791 1.38394797
v -0.86376023 38.09622765 1.66014972
v -0.24422127 38.09142181 1.83447023
v -1.80955409 37.91039989 -3.16896926
v -1.83963084 37.91039989 -3.15160444
v -1.84246328 37.94041904 -3.14498738
v -1.80649558 37.94389449 -3.16495126
v -1.81447099 37.97903868 -3.13943405
v -3.43431979 38.02861016 -0.35072645
v -2.04589893 38.04031720 -2.74111824
v -2.06028510 38.01061781 -2.76405410
v -2.20300931 38.06850210 -2.44966104
v -2.12853301 38.04319801 -2.61268141
v -2.26924435 38.02312413 -2.40731681
v -2.48045784 38.03622312 -2.03933939
v -2.29194656 38.05923305 -2.33100959
v -2.44651786 38.08932977 -1.99390463
v -2.22372394 38.07853476 -2.38726668
v -2.90936404 38.07592219 -1.23808489
v -2.99476118 38.03369489 -1.14973895
v -2.97129692 38.08876980 -1.08557437
v -3.16257993 38.06110127 -0.81977684
v -3.17761015 38.07798729 -0.73620089
v -3.28136632 38.01694986 -0.65750518
v -3.38254302 38.05185640 -0.39184660
v -2.55674313 38.06319687 -1.87593027
v -3.22952621 38.05309938 -0.70649975
v -3.30419074 38.05330957 -0.56240607
v -1.50857878 38.03355920 -3.13069949
v -1.29108232 38.00329908 -3.16938736
v -1.25937971 38.05346737 -3.13528728
v -1.04554929 38.07366705 -3.12114480
v -1.00560239 37.99743096 -3.17320532
v -0.47504374 38.08966063 -3.11550209
v 0.32152863 38.09090002 -3.11462412
v 0.05879571 38.08664415 -3.12367833
v 0.54838669 38.06171080 -3.15333214
v 1.05053461 38.05055290 -3.15024178
v 0.88287144 38.08170360 -3.11806687
v 1.12558951 38.01469862 -3.16912568
v 1.22935362 38.05968944 -3.12953261
v 1.39155503 37.99423322 -3.16954298
v 1.55233909 38.02277367 -3.13990638
v 1.80119762 37.93822040 -3.16888905
v -1.39639263 38.02608891 -3.15254972
v -0.03438587 38.05193145 -3.16177701
v 0.35789119 38.05319815 -3.15808747
v -0.52232002 38.02445012 -3.17137972
v -0.68343008 38.05364188 -3.15734145
v -0.32842323 38.06786458 -3.14834380
v -0.91497313 38.04104536 -3.16154175
v -0.80746219 38.08287288 -3.11957563
v -0.12937227 38.09324924 -3.10947507
v 0.14608139 38.06064641 -3.15366384
v 1.83963084 37.91039989 -3.15160444
v 1.80955409 37.91039989 -3.16896926
v 1.81266343 -37.91039989 -3.16777857
v 1.84089721 -37.91039989 -3.15052374
v 1.57927446 -38.01304358 -3.14536987
v 1.29108232 -38.00329908 -3.16938736
v 0.21921509 -38.06942705 -3.14919043
v 0.79153228 -38.08417969 -3.12146506
v 0.05590547 -38.03560801 -3.16820825
v -0.31920491 -38.08553422 -3.12567120
v -0.00462187 -38.07624223 -3.13872149
v -0.30122233 -38.03755008 -3.16784371
v -0.77054618 -38.08413839 -3.11800391
v -0.92208533 -38.02418436 -3.16884632
v -0.42295197 -38.06260049 -3.15263416
v -1.05053460 -38.05055290 -3.15024178
v -1.19672525 -37.98921038 -3.17299822
v -1.22935362 -38.05968944 -3.12953261
v -1.39155503 -37.99423322 -3.16954298
v -1.55233909 -38.02277367 -3.13990638
v -1.80196732 -37.94193605 -3.16755494
v 1.78715536 -37.99213616 -3.13454876
v 1.33226950 -38.04439790 -3.13818563
v -0.84657291 -38.05910419 -3.14909103
v 0.99721177 -38.07975039 -3.11230918
v 1.09591385 -38.06096650 -3.13709263
v 1.06235803 -38.03042752 -3.16461612
v 0.90602328 -38.03168091 -3.16665517
v 0.07664373 -38.09151056 -3.11389588
v -3.64251098 -37.94612904 -0.02268324
v -1.99396400 -38.04915289 -2.79100932
v -2.11857772 -38.01399113 -2.66410047
v -1.95164979 -38.00334498 -2.93304344
v -2.15665638 -38.06089288 -2.54098168
v -2.23945811 -38.01246845 -2.46291276
v -2.49301102 -38.03369442 -2.01879528
v -2.89639740 -38.06414798 -1.28726909
v -2.94995512 -38.08933130 -1.12192375
v -3.17921387 -38.07854116 -0.73230830
v -3.21935732 -38.02312566 -0.76167551
v -3.23792300 -38.07301066 -0.63564964
v -3.39329422 -38.04984433 -0.37381545
v -3.36126787 -38.03525353 -0.48666110
v -3.50382225 -38.02252111 -0.20194652
v -3.55792612 -37.97911526 -0.16664604
v -1.86468423 -37.99423126 -3.05754758
v -3.00627545 -38.03622443 -1.12859643
v -3.16461435 -38.05923740 -0.81950396
v -3.23309994 -38.05166471 -0.70332125
v -3.45906060 -38.00687491 -0.33477121
v -2.25305013 -38.03953534 -2.42097024
v -2.38121090 -38.07446273 -2.15160244
v -2.42106998 -38.08951525 -2.03391261
v -2.18305010 -38.07137871 -2.46915316
v -3.64918493 -37.91039989 0.01736482
v -3.64918493 -37.91039989 -0.01736482
v -3.64467342 37.91039989 0.03420201
v -3.64487735 37.93760149 0.02493491
v 1.80940580 37.97885411 -3.14221514
v 1.84483689 37.94299269 -3.14077215
v 1.81860361 37.96041477 -3.15104389
v 1.82083915 -37.97799278 -3.13388589
v 1.83266381 -37.94248609 -3.15386886
v -3.63993315 -37.95084729 0.02251785
v -3.62617745 -37.97926098 -0.00296375
v -2.00445790 38.05047271 2.77632475
v -2.12074235 38.00658015 2.66540274
v -1.95350633 38.00382266 2.93013177
v -2.24228269 38.00067861 2.46224409
v -2.22631059 38.07798155 2.38390233
v -2.37756961 38.06329236 2.17866669
v -2.49301102 38.03369442 2.01879528
v -2.91492423 38.06330936 1.25543203
v -2.94995512 38.08933130 1.12192375
v -2.59826780 38.09135893 1.72796512
v -3.01590571 38.03317965 1.11318678
v -3.16461435 38.05923740 0.81950396
v -3.17970058 38.07849111 0.73175573
v -3.21935732 38.02312566 0.76167551
v -3.30554680 38.05439137 0.56068078
v -3.38736515 38.03225969 0.43680981
v -3.41082273 38.00048954 0.43274581
v -3.50756118 38.02149782 0.19703734
v -3.58896994 37.96250611 0.12075117
v -1.86468423 37.99423126 3.05754758
v -2.22424587 38.05326425 2.44976507
v -2.48014213 38.08118390 1.96441548
v -3.42375167 38.03552723 0.34707333
v 3.64255835 37.94588460 -0.02258157
v 1.99396400 38.04915289 -2.79100932
v 2.23317834 38.01675233 -2.47245078
v 2.22631059 38.07798155 -2.38390233
v 2.09697213 38.07577025 -2.57154606
v 2.42570930 38.08876823 -2.03056127
v 2.29116501 38.06109712 -2.32911180
v 2.49301102 38.03369442 -2.01879528
v 2.26917968 38.02329303 -2.40761721
v 2.92191527 38.06013396 -1.24697196
v 2.94995512 38.08933130 -1.12192375
v 3.01590571 38.03317965 -1.11318678
v 3.16461435 38.05923740 -0.81950396
v 3.17970058 38.07849111 -0.73175573
v 3.21935732 38.02312566 -0.76167551
v 3.30554680 38.05439137 -0.56068078
v 3.38736515 38.03225969 -0.43680981
v 3.41082273 38.00048954 -0.43274581
v 3.50756118 38.02149782 -0.19703734
v 3.58896994 37.96250611 -0.12075117
v 1.86468423 37.99423126 -3.05754758
v 1.95164979 38.00334498 -2.93304344
v 2.07949091 38.03356433 -2.70192825
v 2.12947752 38.04191570 -2.61366415
v 2.22688460 38.05293024 -2.44284671
v 2.56514643 38.07680207 -1.83568748
v 3.42375167 38.03552723 -0.34707333
v 3.64918493 37.91039989 0.01736482
v 3.64918493 37.91039989 -0.01736482
v 3.64467342 -37.91039989 0.03420201
v 1.98817878 -38.01548969 -2.86254153
v 3.48337817 -38.01626556 -0.26810361
v 3.58101372 -38.00788022 -0.02154796
v 1.94366393 -38.03014385 -2.89519953
v 2.05458973 -38.01063363 -2.76909078
v 2.16193075 -38.07173443 -2.50047919
v 2.12987382 -38.03977235 -2.61805236
v 2.26924435 -38.02312413 -2.40731681
v 2.44651786 -38.08932977 -1.99390463
v 2.22469673 -38.07835820 -2.38631795
v 2.64678936 -38.03548730 -1.75210193
v 2.92910086 -38.09074638 -1.15484164
v 2.72589824 -38.06908422 -1.57201315
v 3.17148513 -38.06016767 -0.80352873
v 3.16904555 -38.02661873 -0.84857125
v 3.17761015 -38.07798729 -0.73620089
v 3.28770400 -38.07417615 -0.50474552
v 3.24066638 -38.04817828 -0.69668871
v 3.38254302 -38.05185640 -0.39184660
v 2.29194656 -38.05923305 -2.33100959
v 2.51336480 -38.05182788 -1.96421958
v 3.36605226 -38.01456524 -0.50249443
v 3.21974120 -38.02308424 -0.76102121
v -3.41499508 -38.04889737 0.33053711
v -1.84585087 -37.93719644 3.14283336
v -1.92222009 -38.00951465 2.96168256
v -1.95988419 -38.04852511 2.82592459
v -2.01830647 -38.00483732 2.83293588
v -2.26924435 -38.02312413 2.40731681
v -2.29194656 -38.05923305 2.33100959
v -2.44651786 -38.08932977 1.99390463
v -2.22348945 -38.07848450 2.38796442
v -2.90936404 -38.07592219 1.23808489
v -2.99476118 -38.03369489 1.14973895
v -2.97129692 -38.08876980 1.08557437
v -3.17761015 -38.07798729 0.73620089
v -3.28242282 -38.07462779 0.51964340
v -3.27745966 -38.01849028 0.66280940
v -3.22952621 -38.05309938 0.70649975
v -3.56374701 -37.96426471 0.16733039
v -2.48045784 -38.03622312 2.03933939
v -2.55674313 -38.06319687 1.87593027
v -3.16257993 -38.06110127 0.81977684
v -3.34676589 -38.03630182 0.50992031
v -3.50550922 -38.01039697 0.23160442
v -1.80955409 -37.91039989 3.16896926
v -1.83963084 -37.91039989 3.15160444
v 3.63918754 37.95009398 0.02719441
v 3.62532237 37.97968921 -0.00511145
v 3.61293018 -37.98398644 0.02941626
v -1.80059941 -37.93921277 3.16864440
v -1.80906868 -37.97713229 3.14420637
v 1.57927446 38.01304358 3.14536987
v 1.29108232 38.00329908 3.16938736
v 1.25937971 38.05346737 3.13528728
v 1.09613515 38.01636715 3.16909173
v 0.68565628 38.07844738 3.13150583
v 0.05590547 38.03560801 3.16820825
v -0.31920491 38.08553422 3.12567120
v -0.30122233 38.03755008 3.16784371
v -0.77054619 38.08413839 3.11800391
v -0.92208533 38.02418436 3.16884632
v -1.05053461 38.05055290 3.15024178
v -0.42295197 38.06260049 3.15263416
v -1.19672525 37.98921039 3.17299822
v -1.22935362 38.05968944 3.12953261
v -1.39155503 37.99423322 3.16954298
v -1.55233909 38.02277367 3.13990638
v -1.80196732 37.94193605 3.16755494
v 1.78978632 37.99141944 3.13471730
v 1.37585047 38.02933615 3.15063275
v 0.82500554 38.07273216 3.13472529
v 0.13102266 38.08163883 3.13221127
v 0.00667237 38.07649552 3.13767530
v -0.84657291 38.05910419 3.14909103
v 0.90394207 38.03144522 3.16669444
v 1.03467990 38.07247153 3.12593940
v 3.41398269 38.04918052 0.33145563
v 1.84732152 37.93976095 3.13924398
v 1.92222009 38.00951465 2.96168256
v 1.94906823 38.03352433 2.87961712
v 2.04343533 37.99309614 2.79978692
v 2.10916937 38.03506412 2.65715209
v 2.20300931 38.06850210 2.44966104
v 2.27367575 38.08157882 2.29966079
v 2.72589824 38.06908422 1.57201315
v 2.27256416 38.02603526 2.40209586
v 2.79552261 38.09135971 1.38630900
v 2.99476118 38.03369489 1.14973895
v 3.07548874 38.06329467 0.96983519
v 2.94122830 38.08118414 1.16579238
v 3.17761015 38.07798729 0.73620089
v 3.28172653 38.06734884 0.56100215
v 3.25262360 38.03684377 0.69214037
v 3.51583776 38.00337180 0.22378818
v 1.82261030 37.97927894 3.13145069
v 2.01240637 38.03550586 2.79160238
v 3.32995604 38.04128185 0.53475415
v 3.37959533 38.03358816 0.45007956
v 3.58022325 37.99424312 0.08614541
v 2.24867474 38.06553789 2.38620789
v 2.00445790 -38.05047271 2.77632475
v 2.12074235 -38.00658015 2.66540274
v 1.95350633 -38.00382266 2.93013177
v 2.22928965 -38.04556683 2.45081810
v 2.22631059 -38.07798155 2.38390233
v 2.12665421 -38.06733619 2.56164809
v 2.42570930 -38.08876823 2.03056127
v 2.27955962 -38.05878554 2.34952435
v 2.66678568 -38.03554892 1.71744206
v 2.26953657 -38.02351854 2.40713044
v 2.77326734 -38.09144083 1.42462125
v 3.21935732 -38.02312566 0.76167551
v 3.23792300 -38.07301066 0.63564964
v 3.39329422 -38.04984433 0.37381545
v 3.36126787 -38.03525353 0.48666110
v 3.41082273 -38.00048954 0.43274581
v 3.51219832 -38.01736449 0.19969101
v 3.64404326 -37.93595776 0.02985641
v 1.84694736 -37.98908106 3.09097741
v 2.12838413 -38.04182966 2.61554383
v 2.89955470 -38.06251138 1.28401987
v 3.17590686 -38.05844050 0.79716060
v 3.23309994 -38.05166471 0.70332125
v 3.46116964 -38.01751157 0.31100848
v 2.59854246 -38.09136047 1.72748470
v 2.72483223 -38.06908539 1.57385724
v 2.59129456 -38.07219488 1.80251441
v 2.84973307 -38.04984936 1.38897018
v 2.91152445 -38.02595649 1.29971205
v 3.17821919 -38.07909521 0.73331463
v -1.57927446 -38.01304358 3.14536987
v -1.29108232 -38.00329908 3.16938736
v -1.25937971 -38.05346737 3.13528728
v -1.09613515 -38.01636715 3.16909173
v -0.21921509 -38.06942705 3.14919043
v -0.79153228 -38.08417969 3.12146506
v -0.05590547 -38.03560801 3.16820825
v 0.31920491 -38.08553422 3.12567120
v 0.09735372 -38.09149867 3.11392375
v 0.30122233 -38.03755008 3.16784371
v 0.77054619 -38.08413839 3.11800391
v 0.93405052 -38.03008896 3.16727514
v 0.42295197 -38.06260049 3.15263416
v 1.23669849 -38.05997971 3.12894903
v 1.39155503 -37.99423322 3.16954298
v 1.55233909 -38.02277367 3.13990638
v 1.80119762 -37.93822040 3.16888905
v -1.37755173 -38.03840800 3.14141423
v 0.84657291 -38.05910419 3.14909103
v 1.78388573 -37.98411809 3.14297142
v -0.90394207 -38.03144522 3.16669444
v -0.02964209 -38.08147082 3.13049866
v 1.25244256 -38.00626810 3.16931871
v -1.03467990 -38.07247153 3.12593940
v 1.84089721 37.91039989 3.15052374
v 1.81266343 37.91039989 3.16777857
v 1.81605031 37.93999084 3.16241321
v 1.80955409 -37.91039989 3.16896926
v 1.83963084 -37.91039989 3.15160444
v 1.84483689 -37.94299269 3.14077215
v 1.81860361 -37.96041477 3.15104389
f 6 4 5
f 6 7 8
f 15 9 10
f 15 10 11
f 809 11 12
f 809 15 11
f 809 14 15
f 21 19 20
f 31 25 26
f 31 26 27
f 643 27 28
f 643 31 27
f 643 30 31
f 36 40 37
f 42 41 40
f 42 40 36
f 43 42 36
f 43 36 35
f 44 43 35
f 45 44 35
f 45 35 34
f 46 45 34
f 48 47 33
f 51 49 52
f 51 50 49
f 53 51 52
f 54 53 52
f 56 55 54
f 39 38 32
f 58 39 32
f 58 32 57
f 82 60 59
f 87 86 81
f 88 81 80
f 88 87 81
f 89 80 79
f 89 88 80
f 83 79 78
f 83 89 79
f 90 78 77
f 90 83 78
f 91 77 76
f 91 90 77
f 92 76 75
f 92 91 76
f 93 75 74
f 93 92 75
f 94 74 73
f 94 93 74
f 72 94 73
f 95 71 70
f 95 72 71
f 96 95 70
f 97 70 69
f 97 96 70
f 98 68 67
f 98 69 68
f 98 97 69
f 99 98 67
f 100 66 65
f 100 67 66
f 100 99 67
f 101 100 65
f 102 65 64
f 102 101 65
f 103 64 63
f 103 102 64
f 84 103 63
f 84 63 62
f 85 61 60
f 85 62 61
f 85 84 62
f 104 85 60
f 104 60 82
f 120 122 121
f 117 119 118
f 129 116 115
f 129 125 116
f 129 114 125
f 112 114 113
f 109 111 110
f 108 126 109
f 130 126 108
f 130 108 107
f 106 130 107
f 127 130 106
f 127 105 124
f 156 131 132
f 156 132 133
f 156 133 134
f 156 155 131
f 155 134 135
f 155 135 136
f 155 156 134
f 158 155 157
f 157 136 137
f 157 137 138
f 157 155 136
f 157 138 139
f 157 139 140
f 158 140 141
f 158 141 142
f 158 157 140
f 155 142 143
f 155 158 142
f 161 155 159
f 159 143 144
f 159 144 145
f 159 155 143
f 159 145 146
f 159 146 147
f 160 155 161
f 161 147 148
f 161 148 149
f 161 159 147
f 161 149 150
f 161 150 151
f 160 151 152
f 160 152 153
f 160 153 154
f 160 154 155
f 160 161 151
f 162 131 86
f 162 132 131
f 163 133 132
f 163 132 162
f 164 134 133
f 164 133 163
f 165 135 134
f 165 134 164
f 166 136 135
f 166 137 136
f 166 135 165
f 167 137 166
f 168 138 137
f 168 137 167
f 169 139 138
f 169 138 168
f 170 140 139
f 170 139 169
f 171 141 140
f 171 140 170
f 172 142 141
f 172 141 171
f 173 142 172
f 173 143 142
f 174 143 173
f 174 144 143
f 175 144 174
f 175 145 144
f 176 145 175
f 176 146 145
f 177 146 176
f 177 147 146
f 178 147 177
f 178 148 147
f 179 148 178
f 179 149 148
f 180 149 179
f 180 150 149
f 181 150 180
f 181 151 150
f 182 151 181
f 182 152 151
f 183 152 182
f 183 153 152
f 59 153 183
f 59 154 153
f 208 207 206
f 208 204 203
f 208 205 204
f 208 206 205
f 208 202 201
f 208 203 202
f 209 208 201
f 209 207 208
f 207 199 198
f 207 200 199
f 207 209 200
f 210 197 196
f 210 198 197
f 210 207 198
f 207 196 195
f 207 210 196
f 211 194 193
f 211 195 194
f 211 207 195
f 211 192 191
f 211 193 192
f 212 190 189
f 212 191 190
f 212 211 191
f 212 207 211
f 212 188 187
f 212 189 188
f 213 185 184
f 213 186 185
f 213 187 186
f 213 207 212
f 213 212 187
f 213 184 207
f 184 237 215
f 185 236 237
f 185 237 184
f 186 235 236
f 186 236 185
f 187 234 235
f 187 235 186
f 188 233 234
f 188 234 187
f 189 232 233
f 189 233 188
f 190 231 232
f 190 232 189
f 191 230 231
f 191 231 190
f 192 229 230
f 192 230 191
f 193 228 229
f 193 229 192
f 194 227 228
f 194 228 193
f 195 226 227
f 195 227 194
f 196 226 195
f 196 225 226
f 197 225 196
f 197 224 225
f 198 224 197
f 198 223 224
f 199 223 198
f 199 222 223
f 200 222 199
f 200 221 222
f 209 221 200
f 201 221 209
f 201 219 220
f 201 220 221
f 202 219 201
f 202 218 219
f 203 218 202
f 203 217 218
f 204 216 217
f 204 217 203
f 205 214 216
f 205 216 204
f 206 214 205
f 238 214 57
f 238 216 214
f 238 217 216
f 556 218 217
f 556 217 238
f 556 219 218
f 558 220 219
f 558 219 556
f 558 221 220
f 239 222 221
f 239 221 558
f 239 223 222
f 240 224 223
f 240 223 239
f 240 225 224
f 562 226 225
f 562 225 240
f 562 227 226
f 564 227 562
f 564 228 227
f 564 229 228
f 566 229 564
f 566 230 229
f 566 231 230
f 568 231 566
f 568 232 231
f 568 233 232
f 241 233 568
f 241 234 233
f 241 235 234
f 242 235 241
f 242 236 235
f 571 236 242
f 571 237 236
f 41 237 571
f 41 215 237
f 265 250 256
f 246 247 245
f 263 248 253
f 264 253 254
f 263 253 264
f 255 254 810
f 264 254 255
f 249 263 264
f 264 250 249
f 264 255 256
f 250 264 256
f 266 256 257
f 266 265 256
f 266 257 265
f 251 257 258
f 258 268 251
f 269 258 259
f 267 269 259
f 268 258 269
f 269 270 268
f 267 259 260
f 271 269 267
f 271 267 260
f 270 269 271
f 271 260 261
f 252 271 261
f 252 270 271
f 252 261 262
f 272 252 262
f 272 274 252
f 272 262 715
f 273 243 244
f 273 715 243
f 275 273 244
f 275 715 273
f 274 715 275
f 274 272 715
f 275 244 245
f 274 275 245
f 536 86 128
f 536 554 86
f 276 295 554
f 276 554 536
f 535 294 295
f 535 295 276
f 277 293 294
f 277 294 535
f 278 553 293
f 278 293 277
f 279 292 553
f 279 553 278
f 532 552 292
f 532 292 279
f 531 551 552
f 531 552 532
f 291 551 531
f 529 291 531
f 549 291 529
f 528 549 529
f 548 549 528
f 527 548 528
f 547 548 527
f 525 547 527
f 290 547 525
f 280 290 525
f 281 290 280
f 281 545 290
f 524 545 281
f 524 289 545
f 543 289 524
f 522 543 524
f 542 543 522
f 521 542 522
f 540 542 521
f 282 540 521
f 288 540 282
f 283 288 282
f 539 288 283
f 284 539 283
f 538 539 284
f 285 538 284
f 286 287 538
f 286 538 285
f 82 287 286
f 105 82 286
f 312 375 296
f 298 315 297
f 310 298 299
f 308 309 301
f 308 301 302
f 314 312 296
f 313 312 314
f 314 296 297
f 313 315 311
f 315 314 297
f 315 313 314
f 317 299 300
f 317 310 299
f 316 310 317
f 757 316 317
f 757 743 316
f 318 317 300
f 318 757 317
f 318 300 301
f 318 309 757
f 318 301 309
f 319 302 303
f 319 308 302
f 319 307 308
f 319 306 644
f 319 644 307
f 306 319 305
f 305 319 303
f 305 303 304
f 322 323 324
f 320 321 322
f 320 322 324
f 326 320 324
f 328 326 327
f 325 328 329
f 325 326 328
f 325 320 326
f 331 332 333
f 4 330 331
f 4 331 333
f 335 4 333
f 336 335 713
f 334 336 337
f 334 335 336
f 334 4 335
f 339 639 340
f 16 338 339
f 16 339 340
f 342 16 340
f 343 342 601
f 341 343 344
f 341 342 343
f 341 16 342
f 345 346 347
f 25 657 345
f 25 345 347
f 350 19 349
f 348 350 351
f 348 347 19
f 348 25 347
f 348 19 350
f 354 355 356
f 352 353 354
f 352 354 356
f 9 352 356
f 358 9 691
f 357 358 359
f 357 9 358
f 357 352 9
f 362 363 364
f 360 361 362
f 360 362 364
f 3 360 364
f 367 3 366
f 365 367 805
f 365 3 367
f 365 360 3
f 385 304 368
f 383 384 369
f 370 383 369
f 382 383 370
f 379 380 372
f 379 372 373
f 387 385 368
f 386 385 387
f 388 384 29
f 388 29 386
f 388 386 387
f 389 368 369
f 389 387 368
f 390 388 387
f 390 389 369
f 390 387 389
f 390 369 384
f 390 384 388
f 371 382 370
f 391 382 371
f 777 391 371
f 777 381 391
f 392 371 372
f 392 380 777
f 392 777 371
f 392 372 380
f 393 373 374
f 393 379 373
f 393 767 379
f 393 377 378
f 393 378 767
f 377 393 376
f 376 393 374
f 376 374 375
f 104 82 105
f 127 104 105
f 85 104 127
f 106 85 127
f 84 85 106
f 103 84 106
f 107 103 106
f 102 103 107
f 101 102 107
f 108 101 107
f 100 101 108
f 109 100 108
f 99 100 109
f 110 99 109
f 98 99 110
f 111 98 110
f 97 98 111
f 112 97 111
f 96 97 112
f 113 96 112
f 95 96 113
f 114 95 113
f 72 95 114
f 129 72 114
f 115 72 129
f 115 94 72
f 116 94 115
f 116 93 94
f 92 93 116
f 117 92 116
f 118 92 117
f 118 91 92
f 90 91 118
f 119 90 118
f 120 90 119
f 120 83 90
f 121 89 83
f 121 83 120
f 122 88 89
f 122 89 121
f 123 87 88
f 123 88 122
f 128 86 87
f 128 87 123
f 520 369 368
f 523 370 369
f 523 369 520
f 519 520 368
f 284 519 368
f 394 370 523
f 518 284 368
f 526 370 394
f 124 368 304
f 124 518 368
f 526 371 370
f 528 371 526
f 127 304 303
f 127 124 304
f 530 372 371
f 530 371 528
f 130 127 303
f 533 372 530
f 126 303 302
f 126 130 303
f 533 373 372
f 534 373 533
f 301 109 126
f 301 126 302
f 374 373 534
f 301 111 109
f 374 534 395
f 375 374 395
f 300 111 301
f 300 112 111
f 375 395 537
f 375 537 128
f 300 114 112
f 300 125 114
f 296 375 128
f 296 128 123
f 299 125 300
f 296 123 122
f 299 116 125
f 298 116 299
f 297 296 122
f 297 122 120
f 298 117 116
f 297 120 119
f 297 117 298
f 297 119 117
f 414 407 399
f 248 410 425
f 413 396 412
f 411 246 396
f 411 396 413
f 412 397 398
f 413 407 411
f 413 412 398
f 413 398 399
f 407 413 399
f 415 399 400
f 415 408 414
f 415 414 399
f 415 400 408
f 401 408 400
f 401 416 408
f 416 401 23
f 417 416 23
f 419 418 416
f 419 416 417
f 417 23 402
f 419 417 402
f 419 402 403
f 420 418 419
f 420 419 403
f 409 420 403
f 409 403 404
f 421 409 404
f 421 404 405
f 421 424 409
f 422 405 13
f 422 13 406
f 423 405 422
f 423 421 405
f 423 422 406
f 424 421 423
f 423 406 425
f 424 423 425
f 425 410 424
f 41 426 215
f 42 427 426
f 42 426 41
f 42 428 427
f 43 429 428
f 43 428 42
f 44 430 429
f 44 429 43
f 45 431 430
f 45 430 44
f 45 432 431
f 433 432 45
f 46 433 45
f 434 433 46
f 33 434 46
f 435 434 33
f 47 435 33
f 436 435 47
f 48 436 47
f 437 436 48
f 49 437 48
f 438 437 49
f 50 438 49
f 439 438 50
f 51 439 50
f 440 439 51
f 53 440 51
f 441 440 53
f 54 441 53
f 442 441 54
f 55 442 54
f 443 442 55
f 56 443 55
f 38 443 56
f 38 444 443
f 445 444 38
f 39 445 38
f 446 445 39
f 447 446 39
f 58 447 39
f 214 447 58
f 57 214 58
f 452 407 414
f 560 452 414
f 559 407 452
f 559 411 407
f 561 560 414
f 561 414 408
f 557 411 559
f 557 246 411
f 451 561 408
f 555 246 557
f 451 408 416
f 57 247 246
f 57 246 555
f 563 416 418
f 563 451 416
f 450 563 418
f 450 418 420
f 32 247 57
f 32 245 247
f 567 420 409
f 567 450 420
f 38 274 245
f 38 245 32
f 56 274 38
f 569 567 409
f 252 274 56
f 424 569 409
f 449 569 424
f 252 56 54
f 424 448 449
f 252 54 52
f 410 448 424
f 270 252 52
f 270 52 49
f 248 37 448
f 248 448 410
f 268 270 49
f 268 49 48
f 248 36 37
f 251 268 48
f 251 48 33
f 263 36 248
f 257 251 33
f 263 35 36
f 257 33 46
f 249 35 263
f 257 46 34
f 250 35 249
f 250 34 35
f 265 257 34
f 265 34 250
f 453 214 206
f 453 447 214
f 454 446 447
f 454 447 453
f 455 445 446
f 455 446 454
f 456 444 445
f 456 445 455
f 457 443 444
f 457 444 456
f 458 442 443
f 458 443 457
f 459 441 442
f 459 442 458
f 460 440 441
f 460 441 459
f 461 439 440
f 461 440 460
f 462 438 439
f 462 439 461
f 463 437 438
f 463 438 462
f 464 437 463
f 464 436 437
f 465 436 464
f 465 435 436
f 466 435 465
f 466 434 435
f 467 434 466
f 467 433 434
f 468 433 467
f 468 432 433
f 469 432 468
f 469 431 432
f 470 431 469
f 470 430 431
f 471 429 430
f 471 430 470
f 472 429 471
f 472 428 429
f 473 427 428
f 473 428 472
f 474 426 427
f 474 427 473
f 184 215 426
f 184 426 474
f 475 207 184
f 477 207 475
f 478 207 477
f 475 473 472
f 475 474 473
f 475 184 474
f 476 207 478
f 477 471 470
f 477 472 471
f 477 475 472
f 479 207 476
f 478 469 468
f 478 470 469
f 478 477 470
f 480 207 479
f 476 467 466
f 476 468 467
f 476 478 468
f 482 207 480
f 479 465 464
f 479 466 465
f 479 476 466
f 483 207 482
f 480 464 463
f 480 479 464
f 481 207 483
f 482 462 461
f 482 463 462
f 482 480 463
f 484 207 481
f 483 460 459
f 483 461 460
f 483 482 461
f 485 206 207
f 485 207 484
f 481 458 457
f 481 459 458
f 481 483 459
f 484 456 455
f 484 457 456
f 484 481 457
f 485 453 206
f 485 454 453
f 485 455 454
f 485 484 455
f 60 154 59
f 60 486 154
f 61 487 486
f 61 486 60
f 62 488 487
f 62 487 61
f 63 489 488
f 63 488 62
f 64 490 489
f 64 489 63
f 65 491 490
f 65 490 64
f 66 492 491
f 66 493 492
f 66 491 65
f 67 494 493
f 67 493 66
f 68 495 494
f 68 494 67
f 69 496 495
f 69 495 68
f 70 497 496
f 70 496 69
f 71 497 70
f 71 498 497
f 72 498 71
f 73 498 72
f 73 499 498
f 73 500 499
f 74 500 73
f 74 501 500
f 75 501 74
f 75 502 501
f 76 502 75
f 76 503 502
f 77 503 76
f 77 504 503
f 78 504 77
f 78 505 504
f 79 505 78
f 79 506 505
f 80 506 79
f 80 507 506
f 81 507 80
f 81 131 507
f 86 131 81
f 508 155 510
f 509 155 508
f 510 154 486
f 510 486 487
f 510 487 488
f 510 155 154
f 511 155 509
f 508 488 489
f 508 489 490
f 508 510 488
f 512 155 511
f 509 490 491
f 509 491 492
f 509 508 490
f 514 155 512
f 511 492 493
f 511 493 494
f 511 509 492
f 499 155 514
f 512 494 495
f 512 495 496
f 512 511 494
f 513 155 499
f 514 496 497
f 514 512 496
f 499 497 498
f 499 514 497
f 513 499 500
f 513 500 501
f 515 501 502
f 515 502 503
f 515 513 501
f 515 155 513
f 516 155 515
f 516 503 504
f 516 504 505
f 516 515 503
f 517 155 516
f 517 505 506
f 517 506 507
f 517 507 131
f 517 131 155
f 517 516 505
f 518 124 105
f 518 105 286
f 518 286 285
f 284 518 285
f 519 284 283
f 520 519 283
f 520 283 282
f 520 282 521
f 523 521 522
f 523 520 521
f 523 522 524
f 394 523 524
f 394 524 281
f 394 281 280
f 526 394 280
f 526 280 525
f 526 525 527
f 528 526 527
f 530 528 529
f 530 529 531
f 533 531 532
f 533 530 531
f 533 532 279
f 534 279 278
f 534 533 279
f 534 278 277
f 395 534 277
f 395 277 535
f 395 535 276
f 536 395 276
f 537 536 128
f 537 395 536
f 287 82 59
f 287 59 183
f 538 183 182
f 538 287 183
f 539 182 181
f 539 538 182
f 288 181 180
f 288 539 181
f 540 180 179
f 540 288 180
f 541 179 178
f 541 540 179
f 542 540 541
f 543 178 177
f 543 541 178
f 543 542 541
f 289 177 176
f 289 543 177
f 544 176 175
f 544 289 176
f 545 289 544
f 290 175 174
f 290 544 175
f 290 545 544
f 546 174 173
f 546 290 174
f 547 290 546
f 548 546 173
f 548 173 172
f 548 547 546
f 549 172 171
f 549 548 172
f 550 171 170
f 550 549 171
f 291 549 550
f 551 170 169
f 551 550 170
f 551 291 550
f 552 169 168
f 552 551 169
f 167 552 168
f 292 552 167
f 553 167 166
f 553 292 167
f 293 166 165
f 293 553 166
f 294 165 164
f 294 293 165
f 295 163 162
f 295 164 163
f 295 294 164
f 554 162 86
f 554 295 162
f 238 57 555
f 556 238 555
f 556 555 557
f 558 556 557
f 558 557 559
f 560 558 559
f 560 559 452
f 560 239 558
f 240 239 560
f 240 560 561
f 563 561 451
f 562 240 561
f 562 561 563
f 565 563 450
f 564 563 565
f 564 562 563
f 567 565 450
f 566 564 565
f 566 565 567
f 568 567 569
f 568 566 567
f 570 569 449
f 241 568 569
f 241 569 570
f 448 241 570
f 448 570 449
f 242 241 448
f 571 448 37
f 571 242 448
f 571 37 40
f 571 40 41
f 26 348 573
f 26 25 348
f 27 573 572
f 27 26 573
f 28 572 342
f 28 27 572
f 340 28 342
f 574 572 573
f 574 573 348
f 575 342 572
f 575 572 574
f 576 575 574
f 340 643 28
f 577 21 24
f 577 19 21
f 23 577 24
f 579 574 348
f 579 348 351
f 579 398 397
f 578 398 579
f 580 399 398
f 580 398 578
f 582 351 350
f 582 581 351
f 583 584 582
f 583 582 350
f 585 400 399
f 585 584 583
f 585 586 584
f 585 399 586
f 587 400 585
f 587 585 594
f 588 350 349
f 588 594 350
f 589 588 590
f 349 590 588
f 591 401 400
f 591 400 589
f 591 589 590
f 596 401 591
f 592 349 19
f 592 19 577
f 593 23 401
f 593 577 23
f 576 574 579
f 576 579 397
f 581 578 579
f 581 579 351
f 581 580 578
f 580 581 582
f 594 583 350
f 594 585 583
f 587 594 588
f 587 589 400
f 587 588 589
f 595 349 592
f 595 596 591
f 596 595 592
f 577 593 401
f 577 596 592
f 577 401 596
f 586 580 582
f 586 582 584
f 586 399 580
f 349 591 590
f 349 595 591
f 597 576 397
f 613 342 575
f 613 575 576
f 613 576 597
f 597 397 412
f 598 601 342
f 598 342 613
f 600 412 396
f 600 396 619
f 600 619 601
f 600 599 412
f 601 598 599
f 601 599 600
f 602 396 246
f 603 246 245
f 603 604 246
f 603 622 604
f 615 622 603
f 605 344 343
f 607 605 603
f 607 606 605
f 607 603 245
f 608 344 605
f 608 605 606
f 609 245 244
f 609 607 245
f 609 344 608
f 609 606 607
f 609 608 606
f 610 341 344
f 610 344 609
f 610 609 244
f 611 610 244
f 611 244 243
f 612 610 611
f 612 341 610
f 613 597 412
f 613 412 599
f 613 599 598
f 615 603 605
f 615 605 343
f 681 612 611
f 681 611 243
f 616 343 601
f 616 617 602
f 616 601 617
f 604 614 246
f 614 615 343
f 614 343 616
f 614 622 615
f 619 620 617
f 619 396 620
f 619 617 601
f 620 396 602
f 620 602 617
f 618 614 616
f 618 616 602
f 621 246 614
f 621 602 246
f 621 618 602
f 621 614 618
f 622 614 604
f 17 16 341
f 18 341 624
f 18 17 341
f 625 624 623
f 625 18 624
f 626 623 335
f 626 625 623
f 333 626 335
f 306 627 644
f 628 338 16
f 628 16 17
f 628 17 627
f 650 630 629
f 630 305 304
f 631 339 338
f 631 338 650
f 631 650 629
f 632 304 385
f 632 633 304
f 634 339 631
f 634 631 632
f 635 632 385
f 635 637 632
f 636 639 339
f 636 339 637
f 636 385 638
f 639 636 638
f 640 385 386
f 640 638 385
f 640 639 638
f 641 340 639
f 641 639 640
f 641 640 386
f 642 641 386
f 642 386 29
f 643 641 642
f 643 340 641
f 644 627 17
f 645 627 306
f 645 628 627
f 633 632 631
f 637 634 632
f 637 339 634
f 646 385 636
f 646 635 385
f 646 637 635
f 646 636 637
f 30 643 642
f 30 642 29
f 647 306 305
f 647 648 306
f 649 648 647
f 649 647 338
f 650 305 630
f 650 647 305
f 650 338 647
f 651 630 304
f 651 631 629
f 651 304 633
f 651 633 631
f 651 629 630
f 645 306 648
f 645 648 649
f 645 649 628
f 649 338 628
f 653 29 384
f 654 657 25
f 654 25 655
f 656 654 384
f 657 654 656
f 658 345 657
f 659 345 658
f 660 383 382
f 660 659 383
f 669 660 670
f 661 660 382
f 661 670 660
f 662 346 345
f 662 671 346
f 662 345 669
f 662 669 670
f 663 382 391
f 664 663 391
f 664 665 663
f 672 665 664
f 672 347 346
f 672 346 665
f 666 391 381
f 667 347 672
f 667 652 347
f 668 25 31
f 668 31 30
f 668 30 29
f 668 655 25
f 668 29 653
f 655 668 653
f 654 653 384
f 654 655 653
f 675 383 659
f 675 659 658
f 669 659 660
f 669 345 659
f 671 382 663
f 665 346 671
f 665 671 663
f 672 391 666
f 672 666 667
f 672 664 391
f 687 667 666
f 687 666 381
f 687 652 667
f 673 658 657
f 674 658 673
f 675 384 383
f 675 658 674
f 675 674 384
f 661 662 670
f 661 382 671
f 661 671 662
f 676 674 673
f 676 656 384
f 676 657 656
f 676 384 674
f 673 657 676
f 352 357 679
f 677 680 22
f 677 679 680
f 677 352 679
f 678 21 20
f 678 22 21
f 678 677 22
f 347 20 19
f 347 678 20
f 680 24 21
f 680 21 22
f 680 679 357
f 612 623 624
f 612 624 341
f 683 612 681
f 682 335 623
f 682 612 683
f 682 623 612
f 682 683 681
f 685 644 17
f 685 684 644
f 685 17 18
f 685 18 625
f 685 625 626
f 685 626 333
f 686 352 677
f 652 677 678
f 652 678 347
f 686 652 687
f 686 677 652
f 688 13 405
f 689 691 9
f 689 9 690
f 689 690 688
f 689 688 405
f 405 708 689
f 691 689 708
f 692 405 404
f 692 693 691
f 709 692 404
f 709 693 692
f 694 358 691
f 694 691 693
f 694 693 709
f 695 358 694
f 696 404 403
f 696 697 404
f 696 695 697
f 698 696 699
f 700 696 403
f 700 699 696
f 701 359 358
f 701 403 702
f 701 702 359
f 701 358 698
f 701 698 699
f 702 403 402
f 710 703 702
f 710 702 402
f 704 357 359
f 704 703 710
f 705 402 23
f 706 23 24
f 706 24 680
f 706 680 357
f 706 705 23
f 706 357 704
f 707 14 13
f 707 15 14
f 707 9 15
f 707 690 9
f 707 13 688
f 690 707 688
f 708 692 691
f 708 405 692
f 709 404 697
f 709 695 694
f 709 697 695
f 695 698 358
f 695 696 698
f 702 703 704
f 702 704 359
f 710 706 704
f 710 705 706
f 710 402 705
f 700 403 701
f 700 701 699
f 712 243 715
f 713 335 732
f 714 715 262
f 716 717 714
f 716 714 262
f 718 336 713
f 718 717 716
f 718 719 717
f 718 713 719
f 718 716 262
f 720 336 718
f 720 718 736
f 721 262 261
f 721 736 262
f 722 721 723
f 724 723 721
f 724 721 261
f 725 337 336
f 725 261 726
f 725 726 337
f 725 336 722
f 725 722 723
f 726 261 260
f 737 727 726
f 737 726 260
f 728 334 337
f 728 727 737
f 729 260 259
f 730 711 334
f 730 789 711
f 730 259 789
f 730 334 728
f 730 729 259
f 731 335 682
f 731 682 681
f 731 681 243
f 731 732 335
f 731 243 712
f 732 731 712
f 733 732 712
f 733 713 732
f 733 712 715
f 734 713 733
f 734 733 715
f 735 734 715
f 735 713 734
f 735 715 714
f 736 718 262
f 720 736 721
f 720 722 336
f 720 721 722
f 726 727 728
f 726 728 337
f 737 730 728
f 737 729 730
f 737 260 729
f 719 714 717
f 719 735 714
f 719 713 735
f 724 725 723
f 724 261 725
f 5 4 334
f 5 334 739
f 6 5 739
f 7 739 738
f 7 6 739
f 859 7 738
f 740 738 326
f 740 859 738
f 324 740 326
f 741 684 685
f 741 685 333
f 744 644 684
f 744 684 741
f 742 6 8
f 742 4 6
f 743 742 8
f 744 307 644
f 745 333 332
f 745 741 333
f 747 745 332
f 746 308 307
f 746 307 745
f 748 332 331
f 748 747 332
f 748 746 747
f 761 748 331
f 761 760 748
f 749 309 308
f 749 750 760
f 749 308 750
f 749 760 761
f 751 331 330
f 752 309 749
f 752 753 754
f 752 749 753
f 755 754 753
f 755 751 330
f 755 753 751
f 756 757 309
f 756 309 752
f 756 752 754
f 762 330 4
f 762 758 330
f 762 757 758
f 762 4 742
f 759 743 757
f 759 742 743
f 741 307 744
f 741 745 307
f 747 746 745
f 761 331 751
f 761 753 749
f 761 751 753
f 758 757 756
f 762 742 759
f 762 759 757
f 750 748 760
f 750 308 746
f 750 746 748
f 763 330 758
f 763 754 755
f 763 758 756
f 763 756 754
f 763 755 330
f 379 767 355
f 764 381 777
f 767 378 766
f 768 356 355
f 768 765 356
f 768 355 767
f 768 766 765
f 769 355 354
f 769 379 355
f 781 769 354
f 781 770 769
f 771 380 379
f 771 379 772
f 771 772 770
f 771 770 781
f 773 380 771
f 773 771 782
f 774 354 353
f 774 782 354
f 775 774 783
f 353 783 774
f 776 777 380
f 776 380 775
f 776 775 783
f 778 353 352
f 780 352 686
f 780 686 687
f 780 687 381
f 780 785 778
f 780 778 352
f 378 765 766
f 768 767 766
f 782 781 354
f 782 771 781
f 773 782 774
f 773 775 380
f 773 774 775
f 779 353 778
f 779 777 776
f 784 779 778
f 784 777 779
f 784 764 777
f 784 778 785
f 784 785 764
f 785 780 381
f 785 381 764
f 772 379 769
f 772 769 770
f 353 776 783
f 353 779 776
f 360 365 12
f 786 12 11
f 786 360 12
f 787 11 10
f 787 786 11
f 356 10 9
f 356 787 10
f 365 809 12
f 788 326 738
f 711 738 739
f 711 739 334
f 788 711 789
f 788 738 711
f 790 743 8
f 859 790 8
f 859 8 7
f 859 740 324
f 765 786 787
f 765 787 356
f 791 360 786
f 791 786 765
f 792 791 765
f 378 792 765
f 254 793 810
f 794 366 3
f 794 3 2
f 794 2 793
f 817 254 253
f 817 795 254
f 796 366 794
f 796 794 795
f 796 817 366
f 796 795 817
f 813 253 248
f 813 797 253
f 798 367 366
f 798 366 816
f 798 816 797
f 799 248 425
f 800 798 799
f 800 367 798
f 801 799 425
f 801 804 799
f 802 425 803
f 802 805 367
f 802 367 804
f 805 802 803
f 806 803 425
f 806 805 803
f 806 425 406
f 807 365 805
f 807 805 806
f 807 806 406
f 808 406 13
f 808 807 406
f 809 807 808
f 809 365 807
f 810 793 2
f 811 793 254
f 811 794 793
f 811 254 795
f 811 795 794
f 812 253 797
f 812 797 816
f 813 798 797
f 814 813 248
f 814 798 813
f 814 799 798
f 814 248 799
f 804 367 800
f 804 800 799
f 815 801 425
f 815 804 801
f 815 425 802
f 815 802 804
f 14 809 808
f 14 808 13
f 816 253 812
f 817 816 366
f 817 253 816
f 818 259 258
f 821 255 810
f 821 810 820
f 822 325 329
f 822 819 325
f 822 820 819
f 837 822 823
f 823 822 329
f 824 256 255
f 824 255 837
f 824 837 823
f 827 329 328
f 827 823 329
f 825 841 826
f 827 826 841
f 828 257 256
f 828 825 826
f 828 256 825
f 829 328 327
f 829 827 328
f 829 327 830
f 829 826 827
f 831 829 830
f 832 831 830
f 832 258 257
f 832 830 327
f 832 257 831
f 833 258 832
f 834 327 326
f 835 834 326
f 836 820 810
f 836 819 820
f 837 255 821
f 837 821 820
f 837 820 822
f 824 823 827
f 831 257 828
f 831 828 826
f 831 826 829
f 834 832 327
f 834 833 832
f 838 833 834
f 838 258 833
f 839 834 835
f 839 835 818
f 839 818 258
f 839 258 838
f 839 838 834
f 840 326 788
f 840 788 789
f 840 789 259
f 840 835 326
f 840 818 835
f 840 259 818
f 841 824 827
f 841 256 824
f 841 825 256
f 842 311 315
f 843 321 320
f 843 320 844
f 843 844 842
f 843 842 315
f 845 321 843
f 845 843 861
f 846 315 298
f 846 847 315
f 848 846 298
f 848 849 846
f 850 322 321
f 850 321 851
f 852 298 310
f 871 852 310
f 853 323 322
f 853 864 323
f 853 322 862
f 853 862 863
f 854 310 316
f 855 856 854
f 855 854 316
f 857 324 323
f 857 856 855
f 858 316 743
f 859 324 857
f 859 857 858
f 860 320 901
f 860 844 320
f 860 311 842
f 844 860 842
f 861 843 315
f 861 315 847
f 845 861 847
f 845 847 846
f 868 851 849
f 868 849 848
f 868 848 298
f 868 850 851
f 862 871 863
f 862 852 871
f 864 310 854
f 856 857 323
f 856 323 864
f 856 864 854
f 865 855 316
f 865 858 857
f 865 857 855
f 865 316 858
f 790 859 858
f 790 858 743
f 851 845 846
f 851 846 849
f 851 321 845
f 866 868 298
f 866 298 852
f 866 852 867
f 866 867 850
f 868 866 850
f 869 852 862
f 869 867 852
f 869 850 867
f 869 322 850
f 870 862 322
f 870 322 869
f 870 869 862
f 871 853 863
f 871 310 864
f 871 864 853
f 889 378 377
f 889 872 378
f 873 361 360
f 873 360 791
f 873 791 872
f 895 377 376
f 895 874 377
f 875 361 873
f 875 873 874
f 875 895 361
f 875 874 895
f 892 877 876
f 877 376 375
f 878 362 361
f 878 361 892
f 878 892 876
f 879 375 312
f 879 880 375
f 881 362 878
f 881 878 879
f 882 884 879
f 882 879 312
f 883 363 362
f 883 362 884
f 885 363 883
f 885 312 313
f 885 883 312
f 886 364 363
f 887 313 311
f 887 886 313
f 888 364 886
f 888 886 887
f 792 378 872
f 792 872 791
f 889 873 872
f 889 377 874
f 889 874 873
f 893 375 880
f 893 879 878
f 893 880 879
f 884 881 879
f 884 362 881
f 890 883 884
f 890 312 883
f 890 884 882
f 890 882 312
f 885 313 886
f 891 888 887
f 891 887 311
f 892 376 877
f 893 878 876
f 893 876 877
f 893 877 375
f 894 363 885
f 894 886 363
f 894 885 886
f 895 376 892
f 895 892 361
f 898 810 2
f 898 836 810
f 819 836 898
f 898 2 1
f 898 897 896
f 898 1 897
f 819 896 325
f 819 898 896
f 860 891 311
f 888 899 364
f 888 900 899
f 902 888 891
f 901 320 900
f 901 900 888
f 901 888 902
f 902 891 860
f 901 902 860
f 320 325 896
f 900 896 897
f 900 320 896
f 899 897 1
f 899 900 897
f 364 1 2
f 364 2 3
f 364 899 1

