# https://github.com/mikedh/trimesh
v 0.00000000 -1.50000000 2.22500000
v 0.00000000 0.00000000 2.22500000
v 0.00000000 0.00000000 -2.22500000
v -0.30297079 0.00000000 -2.20427623
v -0.60029782 0.00000000 -2.14249096
v -0.88644242 0.00000000 -2.04079515
v -1.15607429 0.00000000 -1.90108318
v -1.40417068 0.00000000 -1.72595762
v -1.62611002 0.00000000 -1.51868074
v -1.81775801 0.00000000 -1.28311372
v -1.97554461 0.00000000 -1.02364471
v -2.09653055 0.00000000 -0.74510714
v -2.17846210 0.00000000 -0.45268963
v -2.21981301 0.00000000 -0.15183937
v -2.21981301 0.00000000 0.15183937
v -2.17846210 0.00000000 0.45268963
v -2.09653055 0.00000000 0.74510714
v -1.97554461 0.00000000 1.02364471
v -1.81775801 0.00000000 1.28311372
v -1.62611002 0.00000000 1.51868074
v -1.40417068 0.00000000 1.72595762
v -1.15607429 0.00000000 1.90108318
v -0.88644242 0.00000000 2.04079515
v -0.60029782 0.00000000 2.14249096
v -0.30297079 0.00000000 2.20427623
v 0.00000000 -1.50000000 -2.22500000
v -0.30297079 -1.50000000 -2.20427623
v -0.60029782 -1.50000000 -2.14249096
v -0.88644242 -1.50000000 -2.04079515
v -1.15607429 -1.50000000 -1.90108318
v -1.40417068 -1.50000000 -1.72595762
v -1.62611002 -1.50000000 -1.51868074
v -1.81775801 -1.50000000 -1.28311372
v -1.97554461 -1.50000000 -1.02364471
v -2.09653055 -1.50000000 -0.74510714
v -2.17846210 -1.50000000 -0.45268963
v -2.21981301 -1.50000000 -0.15183937
v -2.21981301 -1.50000000 0.15183937
v -2.17846210 -1.50000000 0.45268963
v -2.09653055 -1.50000000 0.74510714
v -1.97554461 -1.50000000 1.02364471
v -1.81775801 -1.50000000 1.28311372
v -1.62611002 -1.50000000 1.51868074
v -1.40417068 -1.50000000 1.72595762
v -1.15607429 -1.50000000 1.90108318
v -0.88644242 -1.50000000 2.04079515
v -0.60029782 -1.50000000 2.14249096
v -0.30297079 -1.50000000 2.20427623
v 0.00000000 -1.50000000 15.00000000
v 2.04249974 -1.50000000 14.86028919
v 4.04695157 -1.50000000 14.44375931
v 5.97601635 -1.50000000 13.75816952
v 7.79375925 -1.50000000 12.81629107
v 9.46631916 -1.50000000 11.63566936
v 10.96253946 -1.50000000 10.23829715
v 12.25454840 -1.50000000 8.65020483
v 13.31827828 -1.50000000 6.90097557
v 14.13391383 -1.50000000 5.02319418
v 14.68626132 -1.50000000 3.05184020
v 14.96503154 -1.50000000 1.02363620
v 14.96503154 -1.50000000 -1.02363620
v 14.68626132 -1.50000000 -3.05184020
v 14.13391383 -1.50000000 -5.02319418
v 13.31827828 -1.50000000 -6.90097557
v 12.25454840 -1.50000000 -8.65020483
v 10.96253946 -1.50000000 -10.23829715
v 9.46631916 -1.50000000 -11.63566936
v 7.79375925 -1.50000000 -12.81629107
v 5.97601635 -1.50000000 -13.75816952
v 4.04695157 -1.50000000 -14.44375931
v 2.04249974 -1.50000000 -14.86028919
v 0.00000000 -1.50000000 -15.00000000
v 0.00000000 0.00000000 -15.00000000
v 0.00000000 0.00000000 15.00000000
v 2.04249974 0.00000000 14.86028919
v 4.04695157 0.00000000 14.44375931
v 5.97601635 0.00000000 13.75816952
v 7.79375925 0.00000000 12.81629107
v 9.46631916 0.00000000 11.63566936
v 10.96253946 0.00000000 10.23829715
v 12.25454840 0.00000000 8.65020483
v 13.31827828 0.00000000 6.90097557
v 14.13391383 0.00000000 5.02319418
v 14.68626132 0.00000000 3.05184020
v 14.96503154 0.00000000 1.02363620
v 14.96503154 0.00000000 -1.02363620
v 14.68626132 0.00000000 -3.05184020
v 14.13391383 0.00000000 -5.02319418
v 13.31827828 0.00000000 -6.90097557
v 12.25454840 0.00000000 -8.65020483
v 10.96253946 0.00000000 -10.23829715
v 9.46631916 0.00000000 -11.63566936
v 7.79375925 0.00000000 -12.81629107
v 5.97601635 0.00000000 -13.75816952
v 4.04695157 0.00000000 -14.44375931
v 2.04249974 0.00000000 -14.86028919
v -2.04249974 -1.50000000 -14.86028919
v -4.04695157 -1.50000000 -14.44375931
v -5.97601635 -1.50000000 -13.75816952
v -7.79375925 -1.50000000 -12.81629107
v -9.46631916 -1.50000000 -11.63566936
v -10.96253946 -1.50000000 -10.23829715
v -12.25454840 -1.50000000 -8.65020483
v -13.31827828 -1.50000000 -6.90097557
v -14.13391383 -1.50000000 -5.02319418
v -14.68626132 -1.50000000 -3.05184020
v -14.96503154 -1.50000000 -1.02363620
v -14.96503154 -1.50000000 1.02363620
v -14.68626132 -1.50000000 3.05184020
v -14.13391383 -1.50000000 5.02319418
v -13.31827828 -1.50000000 6.90097557
v -12.25454840 -1.50000000 8.65020483
v -10.96253946 -1.50000000 10.23829715
v -9.46631916 -1.50000000 11.63566936
v -7.79375925 -1.50000000 12.81629107
v -5.97601635 -1.50000000 13.75816952
v -4.04695157 -1.50000000 14.44375931
v -2.04249974 -1.50000000 14.86028919
v -2.04249974 0.00000000 -14.86028919
v -4.04695157 0.00000000 -14.44375931
v -5.97601635 0.00000000 -13.75816952
v -7.79375925 0.00000000 -12.81629107
v -9.46631916 0.00000000 -11.63566936
v -10.96253946 0.00000000 -10.23829715
v -12.25454840 0.00000000 -8.65020483
v -13.31827828 0.00000000 -6.90097557
v -14.13391383 0.00000000 -5.02319418
v -14.68626132 0.00000000 -3.05184020
v -14.96503154 0.00000000 -1.02363620
v -14.96503154 0.00000000 1.02363620
v -14.68626132 0.00000000 3.05184020
v -14.13391383 0.00000000 5.02319418
v -13.31827828 0.00000000 6.90097557
v -12.25454840 0.00000000 8.65020483
v -10.96253946 0.00000000 10.23829715
v -9.46631916 0.00000000 11.63566936
v -7.79375925 0.00000000 12.81629107
v -5.97601635 0.00000000 13.75816952
v -4.04695157 0.00000000 14.44375931
v -2.04249974 0.00000000 14.86028919
v 0.30297079 -1.50000000 2.20427623
v 0.60029782 -1.50000000 2.14249096
v 0.88644242 -1.50000000 2.04079515
v 1.15607429 -1.50000000 1.90108318
v 1.40417068 -1.50000000 1.72595762
v 1.62611002 -1.50000000 1.51868074
v 1.81775801 -1.50000000 1.28311372
v 1.97554461 -1.50000000 1.02364471
v 2.09653055 -1.50000000 0.74510714
v 2.17846210 -1.50000000 0.45268963
v 2.21981301 -1.50000000 0.15183937
v 2.21981301 -1.50000000 -0.15183937
v 2.17846210 -1.50000000 -0.45268963
v 2.09653055 -1.50000000 -0.74510714
v 1.97554461 -1.50000000 -1.02364471
v 1.81775801 -1.50000000 -1.28311372
v 1.62611002 -1.50000000 -1.51868074
v 1.40417068 -1.50000000 -1.72595762
v 1.15607429 -1.50000000 -1.90108318
v 0.88644242 -1.50000000 -2.04079515
v 0.60029782 -1.50000000 -2.14249096
v 0.30297079 -1.50000000 -2.20427623
v 0.30297079 0.00000000 2.20427623
v 0.60029782 0.00000000 2.14249096
v 0.88644242 0.00000000 2.04079515
v 1.15607429 0.00000000 1.90108318
v 1.40417068 0.00000000 1.72595762
v 1.62611002 0.00000000 1.51868074
v 1.81775801 0.00000000 1.28311372
v 1.97554461 0.00000000 1.02364471
v 2.09653055 0.00000000 0.74510714
v 2.17846210 0.00000000 0.45268963
v 2.21981301 0.00000000 0.15183937
v 2.21981301 0.00000000 -0.15183937
v 2.17846210 0.00000000 -0.45268963
v 2.09653055 0.00000000 -0.74510714
v 1.97554461 0.00000000 -1.02364471
v 1.81775801 0.00000000 -1.28311372
v 1.62611002 0.00000000 -1.51868074
v 1.40417068 0.00000000 -1.72595762
v 1.15607429 0.00000000 -1.90108318
v 0.88644242 0.00000000 -2.04079515
v 0.60029782 0.00000000 -2.14249096
v 0.30297079 0.00000000 -2.20427623
f 4 26 3
f 4 27 26
f 5 28 27
f 5 27 4
f 6 29 28
f 6 28 5
f 7 30 29
f 7 29 6
f 8 31 30
f 8 32 31
f 8 30 7
f 9 32 8
f 10 33 32
f 10 34 33
f 10 32 9
f 11 34 10
f 12 35 34
f 12 34 11
f 13 36 35
f 13 35 12
f 14 37 36
f 14 36 13
f 15 37 14
f 15 38 37
f 15 39 38
f 16 39 15
f 17 39 16
f 17 40 39
f 17 41 40
f 18 41 17
f 18 42 41
f 19 42 18
f 20 42 19
f 20 43 42
f 21 43 20
f 21 44 43
f 22 44 21
f 22 45 44
f 22 46 45
f 23 46 22
f 24 46 23
f 24 47 46
f 24 48 47
f 25 48 24
f 2 48 25
f 2 1 48
f 75 49 50
f 75 74 49
f 76 50 51
f 76 75 50
f 77 51 52
f 77 76 51
f 78 52 53
f 78 77 52
f 79 53 54
f 79 78 53
f 80 54 55
f 80 79 54
f 81 55 56
f 81 80 55
f 82 56 57
f 82 57 58
f 82 81 56
f 83 58 59
f 83 82 58
f 84 83 59
f 85 59 60
f 85 60 61
f 85 84 59
f 86 85 61
f 87 86 61
f 87 61 62
f 87 62 63
f 88 87 63
f 89 88 63
f 89 63 64
f 90 89 64
f 90 64 65
f 90 65 66
f 91 90 66
f 92 91 66
f 92 66 67
f 93 67 68
f 93 68 69
f 93 92 67
f 94 93 69
f 95 69 70
f 95 70 71
f 95 94 69
f 96 95 71
f 96 71 72
f 73 96 72
f 119 73 72
f 119 72 97
f 120 97 98
f 120 119 97
f 121 98 99
f 121 120 98
f 122 99 100
f 122 121 99
f 123 100 101
f 123 101 102
f 123 122 100
f 124 123 102
f 125 102 103
f 125 103 104
f 125 124 102
f 126 125 104
f 127 104 105
f 127 126 104
f 128 105 106
f 128 127 105
f 129 106 107
f 129 128 106
f 130 129 107
f 130 107 108
f 130 108 109
f 131 130 109
f 132 131 109
f 132 109 110
f 132 110 111
f 133 132 111
f 133 111 112
f 134 133 112
f 135 112 113
f 135 134 112
f 136 113 114
f 136 135 113
f 137 114 115
f 137 115 116
f 137 136 114
f 138 137 116
f 139 116 117
f 139 117 118
f 139 138 116
f 140 139 118
f 74 118 49
f 74 140 118
f 31 102 101
f 31 32 102
f 33 103 102
f 33 102 32
f 30 101 100
f 30 31 101
f 34 103 33
f 34 104 103
f 29 99 98
f 29 100 99
f 29 30 100
f 35 105 104
f 35 104 34
f 28 98 97
f 28 29 98
f 36 105 35
f 36 106 105
f 27 28 97
f 37 107 106
f 37 108 107
f 37 106 36
f 26 97 72
f 26 27 97
f 38 109 108
f 38 108 37
f 162 26 72
f 162 72 71
f 39 109 38
f 161 71 70
f 161 162 71
f 40 110 109
f 40 109 39
f 160 70 69
f 160 161 70
f 41 110 40
f 41 111 110
f 159 68 67
f 159 69 68
f 159 160 69
f 42 112 111
f 42 111 41
f 158 159 67
f 43 113 112
f 43 112 42
f 44 113 43
f 66 158 67
f 66 156 157
f 66 157 158
f 114 113 44
f 65 155 156
f 65 156 66
f 115 44 45
f 115 114 44
f 64 155 65
f 116 115 45
f 116 45 46
f 63 155 64
f 63 153 154
f 63 154 155
f 117 116 46
f 117 46 47
f 62 153 63
f 118 117 47
f 118 47 48
f 61 152 153
f 61 153 62
f 49 48 1
f 49 1 141
f 49 118 48
f 60 152 61
f 60 151 152
f 50 49 141
f 59 151 60
f 59 150 151
f 51 50 141
f 51 141 142
f 58 150 59
f 58 149 150
f 52 51 142
f 52 142 143
f 52 143 144
f 57 149 58
f 57 147 148
f 57 148 149
f 53 52 144
f 53 144 145
f 56 147 57
f 54 53 145
f 55 147 56
f 55 54 145
f 55 145 146
f 55 146 147
f 8 124 9
f 8 123 124
f 10 9 124
f 10 124 125
f 7 122 123
f 7 123 8
f 11 125 126
f 11 10 125
f 6 122 7
f 6 120 121
f 6 121 122
f 12 126 127
f 12 11 126
f 5 120 6
f 5 119 120
f 13 12 127
f 13 127 128
f 4 119 5
f 14 13 128
f 14 128 129
f 14 129 130
f 3 119 4
f 3 73 119
f 15 130 131
f 15 14 130
f 184 96 73
f 184 73 3
f 16 15 131
f 183 95 96
f 183 96 184
f 17 16 131
f 17 131 132
f 182 94 95
f 182 95 183
f 18 132 133
f 18 17 132
f 181 92 93
f 181 93 94
f 181 94 182
f 19 133 134
f 19 18 133
f 180 92 181
f 20 134 135
f 20 19 134
f 21 20 135
f 91 179 178
f 91 180 179
f 91 92 180
f 136 21 135
f 90 178 177
f 90 91 178
f 137 22 21
f 137 21 136
f 89 90 177
f 138 22 137
f 138 23 22
f 88 89 177
f 88 176 175
f 88 177 176
f 139 23 138
f 139 24 23
f 87 88 175
f 140 24 139
f 140 25 24
f 86 87 175
f 86 175 174
f 74 163 2
f 74 25 140
f 74 2 25
f 85 86 174
f 85 174 173
f 75 163 74
f 84 173 172
f 84 85 173
f 76 163 75
f 76 164 163
f 83 172 171
f 83 84 172
f 77 164 76
f 77 165 164
f 77 166 165
f 82 83 171
f 82 170 169
f 82 171 170
f 78 167 166
f 78 166 77
f 81 82 169
f 79 167 78
f 80 168 167
f 80 169 168
f 80 167 79
f 80 81 169
f 163 1 2
f 163 141 1
f 164 142 141
f 164 141 163
f 165 143 142
f 165 142 164
f 166 144 143
f 166 143 165
f 167 145 144
f 167 144 166
f 168 146 145
f 168 145 167
f 169 147 146
f 169 146 168
f 170 148 147
f 170 149 148
f 170 147 169
f 171 150 149
f 171 149 170
f 172 150 171
f 173 151 150
f 173 152 151
f 173 150 172
f 174 152 173
f 175 152 174
f 175 153 152
f 175 154 153
f 176 154 175
f 177 154 176
f 177 155 154
f 178 155 177
f 178 156 155
f 178 157 156
f 179 157 178
f 180 157 179
f 180 158 157
f 181 158 180
f 181 159 158
f 181 160 159
f 182 160 181
f 183 160 182
f 183 161 160
f 183 162 161
f 184 162 183
f 184 26 162
f 3 26 184

