# https://github.com/mikedh/trimesh
v -611.49352884 0.00000000 -0.00000000
v -312.46427884 0.00000000 299.02925000
v -328.19740472 0.00000000 -283.29612412
v -1511.92602616 0.00000000 -1467.02474556
v -1498.49099732 0.00000000 -1480.45977440
v -314.76237588 0.00000000 -296.73115296
v -296.73115296 0.00000000 -314.76237588
v -1511.92602616 0.00000000 -1529.95724908
v -1498.49099732 0.00000000 -1543.39227792
v -283.29612412 0.00000000 -328.19740472
v -0.00000000 0.00000000 -611.49352884
v 299.02925000 0.00000000 -312.46427884
v 1500.83414307 0.00000000 -1514.26917191
v 1514.26917191 0.00000000 -1500.83414307
v 312.46427884 0.00000000 -299.02925000
v 611.49352884 0.00000000 -0.00000000
v 328.19740472 0.00000000 283.29612412
v 1511.92602616 0.00000000 1467.02474556
v 1498.49099732 0.00000000 1480.45977440
v 314.76237588 0.00000000 296.73115296
v 296.73115296 0.00000000 314.76237588
v 1511.92602616 0.00000000 1529.95724908
v 1498.49099732 0.00000000 1543.39227792
v 283.29612412 0.00000000 328.19740472
v -0.00000000 0.00000000 611.49352884
v -299.02925000 0.00000000 312.46427884
v -1500.83414307 0.00000000 1514.26917191
v -1514.26917191 0.00000000 1500.83414307
v -0.00000000 0.00000000 584.62347116
v 584.62347116 0.00000000 0.00000000
v -0.00000000 0.00000000 -584.62347116
v -584.62347116 0.00000000 -0.00000000
v -584.62347116 0.10000000 -0.00000000
v -0.00000000 0.10000000 -584.62347116
v -0.00000000 0.10000000 -611.49352884
v -283.29612412 0.10000000 -328.19740472
v -296.73115296 0.10000000 -314.76237588
v -314.76237588 0.10000000 -296.73115296
v -611.49352884 0.10000000 -0.00000000
v -328.19740472 0.10000000 -283.29612412
v -1498.49099732 0.10000000 -1543.39227792
v -1511.92602616 0.10000000 -1529.95724908
v -1498.49099732 0.10000000 -1480.45977440
v -1511.92602616 0.10000000 -1467.02474556
v 1511.92602616 0.10000000 1529.95724908
v 1498.49099732 0.10000000 1543.39227792
v 1511.92602616 0.10000000 1467.02474556
v 1498.49099732 0.10000000 1480.45977440
v 283.29612412 0.10000000 328.19740472
v 314.76237588 0.10000000 296.73115296
v 296.73115296 0.10000000 314.76237588
v 328.19740472 0.10000000 283.29612412
v -1500.83414307 0.10000000 1514.26917191
v -1514.26917191 0.10000000 1500.83414307
v -0.00000000 0.10000000 611.49352884
v 611.49352884 0.10000000 -0.00000000
v 1500.83414307 0.10000000 -1514.26917191
v 1514.26917191 0.10000000 -1500.83414307
v -312.46427884 0.10000000 299.02925000
v -299.02925000 0.10000000 312.46427884
v 312.46427884 0.10000000 -299.02925000
v 299.02925000 0.10000000 -312.46427884
v -0.00000000 0.10000000 584.62347116
v 584.62347116 0.10000000 0.00000000
f 20 17 18
f 20 18 19
f 30 16 17
f 29 24 25
f 26 29 25
f 15 16 30
f 28 26 27
f 12 13 14
f 12 14 15
f 2 26 28
f 11 12 31
f 10 11 31
f 1 32 2
f 1 3 32
f 4 5 6
f 4 6 3
f 7 8 9
f 7 9 10
f 21 22 23
f 21 23 24
f 29 30 17
f 29 17 20
f 29 20 21
f 29 21 24
f 30 31 12
f 30 12 15
f 31 32 6
f 6 32 3
f 31 6 7
f 31 7 10
f 32 29 2
f 2 29 26
f 31 33 32
f 34 33 31
f 35 11 10
f 35 10 36
f 7 6 38
f 37 7 38
f 3 1 39
f 40 3 39
f 10 9 41
f 36 10 41
f 37 42 8
f 37 8 7
f 8 41 9
f 42 41 8
f 6 5 43
f 38 6 43
f 3 44 4
f 40 44 3
f 44 5 4
f 44 43 5
f 45 23 22
f 45 46 23
f 47 19 18
f 47 48 19
f 49 23 46
f 49 24 23
f 20 19 48
f 50 20 48
f 51 45 22
f 51 22 21
f 17 47 18
f 52 47 17
f 27 54 28
f 53 54 27
f 55 25 24
f 55 24 49
f 21 20 50
f 51 21 50
f 17 16 56
f 52 17 56
f 57 14 13
f 57 58 14
f 59 28 54
f 59 2 28
f 60 53 27
f 60 27 26
f 15 14 58
f 61 15 58
f 62 57 13
f 62 13 12
f 29 64 30
f 63 64 29
f 30 34 31
f 64 34 30
f 56 16 15
f 56 15 61
f 62 11 35
f 62 12 11
f 39 1 2
f 39 2 59
f 60 25 55
f 60 26 25
f 32 63 29
f 33 63 32
f 50 47 52
f 50 48 47
f 64 52 56
f 63 55 49
f 60 55 63
f 61 64 56
f 54 53 60
f 59 54 60
f 62 58 57
f 62 61 58
f 39 59 33
f 39 33 40
f 35 34 62
f 36 34 35
f 44 38 43
f 44 40 38
f 37 41 42
f 37 36 41
f 51 46 45
f 51 49 46
f 34 37 33
f 37 38 33
f 38 40 33
f 34 36 37
f 33 59 63
f 59 60 63
f 63 52 64
f 63 50 52
f 63 51 50
f 63 49 51
f 64 62 34
f 64 61 62

