# https://github.com/mikedh/trimesh
v 25.40063224 -7.38371508 13.48412973
v 25.40000000 -23.40000000 -593.89259779
v 25.40000000 -23.40000000 593.89259779
v 25.40000000 37.60000000 593.89259779
v 25.40000000 37.60000000 -593.89259779
v -23.93275511 25.32773753 593.89259779
v -24.17837463 25.24231727 593.89259779
v -24.41083464 25.12575008 593.89259779
v -24.62620508 24.98000668 593.89259779
v -24.82084482 24.80755106 593.89259779
v -24.99146320 24.61129884 593.89259779
v -25.13517568 24.39456793 593.89259779
v -25.24955260 24.16102246 593.89259779
v -25.33266026 23.91461084 593.89259779
v -25.38309361 23.65949902 593.89259779
v -25.40000000 23.40000000 593.89259779
v -25.40000000 -23.40000000 593.89259779
v -25.38288972 -23.66105238 593.89259779
v -25.33185165 -23.91763809 593.89259779
v -25.24775907 -24.16536686 593.89259779
v -25.13205081 -24.40000000 593.89259779
v -24.98670668 -24.61752286 593.89259779
v -24.81421356 -24.81421356 593.89259779
v -24.61752286 -24.98670668 593.89259779
v -24.40000000 -25.13205081 593.89259779
v -24.16536686 -25.24775907 593.89259779
v -23.91763809 -25.33185165 593.89259779
v -23.66105238 -25.38288972 593.89259779
v -23.40000000 -25.40000000 593.89259779
v 23.40000000 -25.40000000 593.89259779
v 23.66105238 -25.38288972 593.89259779
v 23.91763809 -25.33185165 593.89259779
v 24.16536686 -25.24775907 593.89259779
v 24.40000000 -25.13205081 593.89259779
v 24.61752286 -24.98670668 593.89259779
v 24.81421356 -24.81421356 593.89259779
v 24.98670668 -24.61752286 593.89259779
v 25.13205081 -24.40000000 593.89259779
v 25.24775907 -24.16536686 593.89259779
v 25.33185165 -23.91763809 593.89259779
v 25.38288972 -23.66105238 593.89259779
v 25.39587917 37.66406129 593.89259779
v 25.38358460 37.72706664 593.89259779
v 25.36331896 37.78797750 593.89259779
v 25.33541628 37.84578988 593.89259779
v 25.30033649 37.89955082 593.89259779
v 25.25865783 37.94837417 593.89259779
v 25.21106730 37.99145515 593.89259779
v 25.15834934 38.02808366 593.89259779
v 25.10137294 38.05765592 593.89259779
v 25.04107723 38.07968450 593.89259779
v 24.97845611 38.09380628 593.89259779
v 24.91454176 38.09978849 593.89259779
v 24.84840515 38.09344807 593.89259779
v 24.78369308 38.07839483 593.89259779
v 18.92425824 38.09978849 -593.89259779
v 18.79772277 38.07968450 -593.89259779
v 18.86034389 38.09380628 -593.89259779
v -25.40000000 23.40000000 -593.89259779
v -25.38288972 23.66105238 -593.89259779
v -25.33185165 23.91763809 -593.89259779
v -25.24775907 24.16536686 -593.89259779
v -25.13205081 24.40000000 -593.89259779
v -24.98670668 24.61752286 -593.89259779
v -24.81421356 24.81421356 -593.89259779
v -24.61752286 24.98670668 -593.89259779
v -24.40000000 25.13205081 -593.89259779
v -24.16536686 25.24775907 -593.89259779
v -23.91763809 25.33185165 -593.89259779
v -25.40000000 -23.40000000 -593.89259779
v -23.40000000 -25.40000000 -593.89259779
v -23.66105238 -25.38288972 -593.89259779
v -23.91763809 -25.33185165 -593.89259779
v -24.16536686 -25.24775907 -593.89259779
v -24.40000000 -25.13205081 -593.89259779
v -24.61752286 -24.98670668 -593.89259779
v -24.81421356 -24.81421356 -593.89259779
v -24.98670668 -24.61752286 -593.89259779
v -25.13205081 -24.40000000 -593.89259779
v -25.24775907 -24.16536686 -593.89259779
v -25.33185165 -23.91763809 -593.89259779
v -25.38288972 -23.66105238 -593.89259779
v 23.40000000 -25.40000000 -593.89259779
v 25.38288972 -23.66105238 -593.89259779
v 25.33185165 -23.91763809 -593.89259779
v 25.24775907 -24.16536686 -593.89259779
v 25.13205081 -24.40000000 -593.89259779
v 24.98670668 -24.61752286 -593.89259779
v 24.81421356 -24.81421356 -593.89259779
v 24.61752286 -24.98670668 -593.89259779
v 24.40000000 -25.13205081 -593.89259779
v 24.16536686 -25.24775907 -593.89259779
v 23.91763809 -25.33185165 -593.89259779
v 23.66105238 -25.38288972 -593.89259779
v 24.91454176 38.09978849 -593.89259779
v 24.97845611 38.09380628 -593.89259779
v 25.04107723 38.07968450 -593.89259779
v 25.10137294 38.05765592 -593.89259779
v 25.15834934 38.02808366 -593.89259779
v 25.21106730 37.99145515 -593.89259779
v 25.25865783 37.94837417 -593.89259779
v 25.30033649 37.89955082 -593.89259779
v 25.33541628 37.84578988 -593.89259779
v 25.36331896 37.78797750 -593.89259779
v 25.38358460 37.72706664 -593.89259779
v 25.39587917 37.66406129 -593.89259779
v 18.91880000 38.09959984 570.49259779
v 18.84969206 38.09199571 570.49259779
v 18.78230702 38.07487887 570.49259779
v 18.92425824 38.09978849 570.49260110
f 4 3 1
f 5 4 1
f 2 5 1
f 1 3 2
f 6 109 57
f 10 65 64
f 109 6 55
f 67 66 8
f 69 6 57
f 13 62 61
f 67 8 7
f 9 8 66
f 9 66 65
f 9 65 10
f 59 16 15
f 15 60 59
f 63 62 12
f 62 13 12
f 53 110 107
f 107 54 53
f 107 110 56
f 56 58 107
f 67 7 68
f 68 7 6
f 6 69 68
f 61 60 14
f 60 15 14
f 14 13 61
f 11 64 63
f 63 12 11
f 10 64 11
f 54 107 108
f 55 54 108
f 109 55 108
f 108 107 58
f 108 58 57
f 57 109 108
f 59 70 16
f 16 70 17
f 29 83 30
f 71 83 29
f 95 56 110
f 53 95 110
f 52 96 95
f 52 95 53
f 50 49 99
f 99 98 50
f 3 41 84
f 84 2 3
f 35 34 90
f 90 34 91
f 106 42 4
f 4 5 106
f 43 106 105
f 42 106 43
f 104 45 44
f 103 45 104
f 44 43 104
f 104 43 105
f 30 83 31
f 83 94 31
f 92 34 33
f 91 34 92
f 100 48 47
f 100 47 101
f 49 48 100
f 100 99 49
f 96 52 97
f 52 51 97
f 50 98 97
f 97 51 50
f 85 84 40
f 40 84 41
f 86 39 38
f 86 38 87
f 86 40 39
f 85 40 86
f 36 90 89
f 35 90 36
f 38 37 88
f 87 38 88
f 37 36 88
f 88 36 89
f 47 46 102
f 101 47 102
f 102 46 45
f 102 45 103
f 17 70 18
f 70 82 18
f 79 21 20
f 79 20 80
f 22 21 79
f 79 78 22
f 23 78 77
f 22 78 23
f 24 23 76
f 76 23 77
f 93 31 94
f 93 32 31
f 93 92 33
f 33 32 93
f 71 29 72
f 29 28 72
f 80 20 19
f 19 81 80
f 19 18 82
f 82 81 19
f 57 58 75
f 75 70 59
f 75 79 80
f 59 60 75
f 75 82 70
f 75 62 63
f 77 78 75
f 75 90 91
f 5 2 75
f 87 88 75
f 91 92 75
f 75 66 67
f 63 64 75
f 75 56 95
f 95 96 75
f 96 97 75
f 2 84 75
f 103 104 75
f 75 83 71
f 65 66 75
f 75 64 65
f 61 62 75
f 75 100 101
f 75 69 57
f 67 68 75
f 75 86 87
f 75 106 5
f 75 60 61
f 101 102 75
f 75 94 83
f 75 58 56
f 98 99 75
f 75 84 85
f 89 90 75
f 105 106 75
f 75 104 105
f 75 76 77
f 80 81 75
f 75 93 94
f 99 100 75
f 75 97 98
f 75 68 69
f 85 86 75
f 75 88 89
f 75 102 103
f 78 79 75
f 75 73 74
f 75 81 82
f 92 93 75
f 71 72 75
f 72 73 75
f 26 25 75
f 75 74 26
f 24 76 75
f 75 25 24
f 3 4 27
f 27 41 3
f 27 34 35
f 30 31 27
f 4 42 27
f 27 52 53
f 47 48 27
f 6 7 27
f 27 21 22
f 27 9 10
f 27 40 41
f 27 29 30
f 27 49 50
f 50 51 27
f 27 46 47
f 27 16 17
f 27 15 16
f 33 34 27
f 27 48 49
f 27 28 29
f 27 55 6
f 53 54 27
f 22 23 27
f 44 45 27
f 13 14 27
f 27 32 33
f 27 43 44
f 27 51 52
f 27 54 55
f 27 7 8
f 8 9 27
f 38 39 27
f 27 37 38
f 45 46 27
f 42 43 27
f 35 36 27
f 20 21 27
f 17 18 27
f 10 11 27
f 27 12 13
f 39 40 27
f 27 36 37
f 27 14 15
f 27 25 26
f 31 32 27
f 27 19 20
f 27 23 24
f 27 11 12
f 24 25 27
f 18 19 27
f 74 73 27
f 26 74 27
f 27 72 28
f 27 73 72

