# https://github.com/mikedh/trimesh
v 309.02921742 16.00000000 -274.02126320
v 309.02921742 0.00000000 -274.02126320
v 308.04603097 16.00000000 -276.24217813
v 308.33414058 16.00000000 -275.94150518
v 308.57783908 16.00000000 -275.60383315
v 308.77243093 16.00000000 -275.23566827
v 308.91416673 16.00000000 -274.84410432
v 309.00031553 16.00000000 -274.43668593
v 273.02126320 16.00000000 -309.02921742
v -10.00000000 16.00000000 -309.02921743
v -274.02126320 16.00000000 -309.02921742
v -276.24217813 16.00000000 -308.04603097
v -275.94150518 16.00000000 -308.33414058
v -275.60383315 16.00000000 -308.57783908
v -275.23566827 16.00000000 -308.77243093
v -274.84410432 16.00000000 -308.91416673
v -274.43668593 16.00000000 -309.00031553
v -303.31493172 8.00000000 -297.60064599
v -309.02921743 16.00000000 -273.02126320
v -309.44539201 5.33333333 -46.00904819
v -309.02921743 16.00000000 -25.00000000
v -309.50504737 6.66666667 129.42632728
v -309.02921742 16.00000000 274.02126320
v -308.04603097 16.00000000 276.24217813
v -308.33414058 16.00000000 275.94150518
v -308.57783908 16.00000000 275.60383315
v -308.77243093 16.00000000 275.23566827
v -308.91416673 16.00000000 274.84410432
v -309.00031553 16.00000000 274.43668593
v -297.60064599 8.00000000 303.31493171
v -273.02126320 16.00000000 309.02921742
v 10.00000000 16.00000000 309.02921743
v 274.02126320 16.00000000 309.02921742
v 276.24217813 16.00000000 308.04603097
v 275.94150518 16.00000000 308.33414058
v 275.60383315 16.00000000 308.57783908
v 275.23566827 16.00000000 308.77243093
v 274.84410432 16.00000000 308.91416673
v 274.43668593 16.00000000 309.00031553
v 308.91416673 16.00000000 272.19842208
v 309.02921743 16.00000000 243.01594740
v 309.02921743 16.00000000 25.00000000
v 309.00031553 0.00000000 -274.43668593
v 308.91416673 0.00000000 -274.84410432
v 308.77243093 0.00000000 -275.23566827
v 308.57783908 0.00000000 -275.60383315
v 308.33414058 0.00000000 -275.94150518
v 308.04603097 0.00000000 -276.24217813
v 297.60064599 8.00000000 -303.31493171
v 273.02126320 0.00000000 -309.02921742
v -10.00000000 0.00000000 -309.02921743
v -274.02126320 0.00000000 -309.02921742
v -274.43668593 0.00000000 -309.00031553
v -274.84410432 0.00000000 -308.91416673
v -275.23566827 0.00000000 -308.77243093
v -275.60383315 0.00000000 -308.57783908
v -275.94150518 0.00000000 -308.33414058
v -276.24217813 0.00000000 -308.04603097
v -309.02921743 0.00000000 -273.02126320
v -309.02921743 0.00000000 -87.00531580
v -309.02921742 0.00000000 274.02126320
v -309.00031553 0.00000000 274.43668593
v -308.91416673 0.00000000 274.84410432
v -308.77243093 0.00000000 275.23566827
v -308.57783908 0.00000000 275.60383315
v -308.33414058 0.00000000 275.94150518
v -308.04603097 0.00000000 276.24217813
v -273.02126320 0.00000000 309.02921742
v 10.00000000 0.00000000 309.02921743
v 274.02126320 0.00000000 309.02921742
v 274.43668593 0.00000000 309.00031553
v 274.84410432 0.00000000 308.91416673
v 275.23566827 0.00000000 308.77243093
v 275.60383315 0.00000000 308.57783908
v 275.94150518 0.00000000 308.33414058
v 276.24217813 0.00000000 308.04603097
v 308.91416673 0.00000000 272.19842208
v 306.55387749 8.44444444 278.29118591
v 309.02921743 0.00000000 243.01594740
v 309.02921743 0.00000000 25.00000000
f 19 20 22
f 22 20 61
f 20 19 59
f 22 61 23
f 77 78 76
f 40 78 77
f 60 61 20
f 20 59 60
f 21 19 22
f 22 23 21
f 50 9 49
f 18 58 59
f 18 59 19
f 3 49 9
f 50 49 48
f 31 24 30
f 30 68 31
f 24 25 30
f 30 25 26
f 26 27 30
f 34 76 78
f 78 40 34
f 12 18 19
f 57 18 56
f 58 18 57
f 56 18 55
f 6 49 5
f 5 49 4
f 49 3 4
f 68 30 67
f 15 55 18
f 45 46 49
f 49 6 45
f 47 48 49
f 49 46 47
f 64 30 27
f 18 12 13
f 66 67 30
f 14 15 18
f 18 13 14
f 30 64 65
f 65 66 30
f 77 79 40
f 40 79 41
f 79 80 42
f 41 79 42
f 10 9 51
f 51 9 50
f 51 11 10
f 52 11 51
f 1 42 2
f 2 42 80
f 33 32 69
f 69 70 33
f 69 32 31
f 31 68 69
f 39 70 71
f 33 70 39
f 17 11 53
f 53 11 52
f 45 6 7
f 45 7 44
f 7 8 43
f 44 7 43
f 1 2 43
f 43 8 1
f 38 72 73
f 38 73 37
f 38 39 71
f 71 72 38
f 35 75 76
f 76 34 35
f 16 53 54
f 17 53 16
f 54 55 16
f 55 15 16
f 62 29 23
f 62 23 61
f 37 73 36
f 73 74 36
f 36 74 75
f 75 35 36
f 14 32 33
f 14 9 10
f 19 21 14
f 10 11 14
f 14 6 5
f 23 29 14
f 41 42 14
f 14 38 37
f 14 40 41
f 14 12 19
f 14 24 31
f 26 25 14
f 14 21 23
f 14 27 26
f 14 42 1
f 31 32 14
f 14 25 24
f 33 39 14
f 14 11 17
f 28 27 14
f 14 29 28
f 5 4 14
f 14 3 9
f 14 13 12
f 14 34 40
f 1 8 14
f 7 6 14
f 14 4 3
f 14 8 7
f 17 16 14
f 39 38 14
f 14 35 34
f 37 36 14
f 14 16 15
f 14 36 35
f 61 60 63
f 63 51 50
f 71 70 63
f 76 75 63
f 63 2 80
f 44 43 63
f 63 79 77
f 70 69 63
f 63 80 79
f 50 48 63
f 77 76 63
f 59 58 63
f 63 60 59
f 63 53 52
f 48 47 63
f 63 57 56
f 52 51 63
f 56 55 63
f 63 69 68
f 63 72 71
f 58 57 63
f 54 53 63
f 63 55 54
f 63 45 44
f 68 67 63
f 73 72 63
f 67 66 63
f 46 45 63
f 63 47 46
f 63 43 2
f 63 74 73
f 75 74 63
f 63 62 61
f 63 65 64
f 66 65 63
f 63 27 28
f 63 64 27
f 28 29 63
f 29 62 63

