# https://github.com/mikedh/trimesh

o p00055.obj
v -598.02925000 -0.10000000 267.77925000
v -598.02925000 0.00000000 267.77925000
v -598.02925000 -0.10000000 911.52925000
v -598.02925000 0.00000000 911.52925000
v -617.02925000 0.00000000 911.52925000
v -617.02925000 -0.10000000 911.52925000
v -617.02925000 0.00000000 286.77925000
v -617.02925000 -0.10000000 286.77925000
v -911.52925000 0.00000000 286.77925000
v -911.52925000 -0.10000000 286.77925000
v -911.52925000 0.00000000 267.77925000
v -911.52925000 -0.10000000 267.77925000
f 4 1 2
f 4 3 1
f 4 5 6
f 4 6 3
f 5 7 8
f 5 8 6
f 7 9 10
f 7 10 8
f 9 11 12
f 9 12 10
f 2 12 11
f 2 1 12
f 12 1 8
f 10 12 8
f 3 8 1
f 6 8 3
f 11 7 2
f 9 7 11
f 4 2 7
f 5 4 7

