# https://github.com/mikedh/trimesh
v 25.40000000 72.19000000 9.52500000
v 23.41880000 72.19000000 9.52500000
v 23.41880000 70.89301267 9.43628364
v 23.41880000 69.62018575 9.17178716
v 23.41880000 68.39522962 8.73643765
v 23.41880000 67.24096288 8.13834483
v 23.41880000 66.17888733 7.38865004
v 23.41880000 65.22878744 6.50131869
v 23.41880000 64.40836177 5.49288007
v 23.41880000 63.73289329 4.38211948
v 23.41880000 63.21496472 3.18972831
v 23.41880000 62.86422406 1.93791852
v 23.41880000 62.68720497 0.65000899
v 23.41880000 62.68720497 -0.65000899
v 23.41880000 62.86422406 -1.93791852
v 23.41880000 63.21496472 -3.18972831
v 23.41880000 63.73289329 -4.38211948
v 23.41880000 64.40836177 -5.49288007
v 23.41880000 65.22878744 -6.50131869
v 23.41880000 66.17888733 -7.38865004
v 23.41880000 67.24096288 -8.13834483
v 23.41880000 68.39522962 -8.73643765
v 23.41880000 69.62018575 -9.17178716
v 23.41880000 70.89301267 -9.43628364
v 23.41880000 72.19000000 -9.52500000
v 25.40000000 72.19000000 -9.52500000
v 25.40000000 70.89301267 9.43628364
v 25.40000000 69.62018575 9.17178716
v 25.40000000 68.39522962 8.73643765
v 25.40000000 67.24096288 8.13834483
v 25.40000000 66.17888733 7.38865004
v 25.40000000 65.22878744 6.50131869
v 25.40000000 64.40836177 5.49288007
v 25.40000000 63.73289329 4.38211948
v 25.40000000 63.21496472 3.18972831
v 25.40000000 62.86422406 1.93791852
v 25.40000000 62.68720497 0.65000899
v 25.40000000 62.68720497 -0.65000899
v 25.40000000 62.86422406 -1.93791852
v 25.40000000 63.21496472 -3.18972831
v 25.40000000 63.73289329 -4.38211948
v 25.40000000 64.40836177 -5.49288007
v 25.40000000 65.22878744 -6.50131869
v 25.40000000 66.17888733 -7.38865004
v 25.40000000 67.24096288 -8.13834483
v 25.40000000 68.39522962 -8.73643765
v 25.40000000 69.62018575 -9.17178716
v 25.40000000 70.89301267 -9.43628364
v -9.52500000 -72.19000000 25.40000000
v -9.52500000 -72.19000000 23.41880000
v -9.43628364 -73.48698733 23.41880000
v -9.17178716 -74.75981425 23.41880000
v -8.73643765 -75.98477038 23.41880000
v -8.13834483 -77.13903712 23.41880000
v -7.38865004 -78.20111267 23.41880000
v -6.50131869 -79.15121256 23.41880000
v -5.49288007 -79.97163823 23.41880000
v -4.38211948 -80.64710671 23.41880000
v -3.18972831 -81.16503528 23.41880000
v -1.93791852 -81.51577594 23.41880000
v -0.65000899 -81.69279503 23.41880000
v 0.65000899 -81.69279503 23.41880000
v 1.93791852 -81.51577594 23.41880000
v 3.18972831 -81.16503528 23.41880000
v 4.38211948 -80.64710671 23.41880000
v 5.49288007 -79.97163823 23.41880000
v 6.50131869 -79.15121256 23.41880000
v 7.38865004 -78.20111267 23.41880000
v 8.13834483 -77.13903712 23.41880000
v 8.73643765 -75.98477038 23.41880000
v 9.17178716 -74.75981425 23.41880000
v 9.43628364 -73.48698733 23.41880000
v 9.52500000 -72.19000000 23.41880000
v 9.52500000 -72.19000000 25.40000000
v -9.43628364 -73.48698733 25.40000000
v -9.17178716 -74.75981425 25.40000000
v -8.73643765 -75.98477038 25.40000000
v -8.13834483 -77.13903712 25.40000000
v -7.38865004 -78.20111267 25.40000000
v -6.50131869 -79.15121256 25.40000000
v -5.49288007 -79.97163823 25.40000000
v -4.38211948 -80.64710671 25.40000000
v -3.18972831 -81.16503528 25.40000000
v -1.93791852 -81.51577594 25.40000000
v -0.65000899 -81.69279503 25.40000000
v 0.65000899 -81.69279503 25.40000000
v 1.93791852 -81.51577594 25.40000000
v 3.18972831 -81.16503528 25.40000000
v 4.38211948 -80.64710671 25.40000000
v 5.49288007 -79.97163823 25.40000000
v 6.50131869 -79.15121256 25.40000000
v 7.38865004 -78.20111267 25.40000000
v 8.13834483 -77.13903712 25.40000000
v 8.73643765 -75.98477038 25.40000000
v 9.17178716 -74.75981425 25.40000000
v 9.43628364 -73.48698733 25.40000000
v -14.55000000 -79.70000000 -25.40000000
v -14.55000000 -95.70000000 -25.40000000
v 23.40000000 -95.70000000 -25.40000000
v 23.40000000 95.70000000 -25.40000000
v -14.55000000 95.70000000 -25.40000000
v -14.55000000 79.70000000 -25.40000000
v -17.93880000 79.70000000 -25.40000000
v -17.93880000 -79.70000000 -25.40000000
v -25.40000000 -79.70000000 -20.92000000
v -25.40000000 79.70000000 -20.92000000
v -25.40000000 -79.70000000 -22.91880000
v -25.40000000 79.70000000 -22.91880000
v -23.40000000 95.70000000 25.40000000
v 23.40000000 95.70000000 25.40000000
v 23.66105238 95.70000000 25.38288972
v 23.91763809 95.70000000 25.33185165
v 24.16536686 95.70000000 25.24775907
v 24.40000000 95.70000000 25.13205081
v 24.61752286 95.70000000 24.98670668
v 24.81421356 95.70000000 24.81421356
v 24.98670668 95.70000000 24.61752286
v 25.13205081 95.70000000 24.40000000
v 25.24775907 95.70000000 24.16536686
v 25.33185165 95.70000000 23.91763809
v 25.38288972 95.70000000 23.66105238
v 25.40000000 95.70000000 23.40000000
v 25.40000000 95.70000000 -23.40000000
v 25.38288972 95.70000000 -23.66105238
v 25.33185165 95.70000000 -23.91763809
v 25.24775907 95.70000000 -24.16536686
v 25.13205081 95.70000000 -24.40000000
v 24.98670668 95.70000000 -24.61752286
v 24.81421356 95.70000000 -24.81421356
v 24.61752286 95.70000000 -24.98670668
v 24.40000000 95.70000000 -25.13205081
v 24.16536686 95.70000000 -25.24775907
v 23.91763809 95.70000000 -25.33185165
v 23.66105238 95.70000000 -25.38288972
v -14.55000000 95.70000000 -23.41880000
v 22.41880000 95.70000000 -23.41880000
v 22.54932619 95.70000000 -23.41024486
v 22.67761905 95.70000000 -23.38472583
v 22.80148343 95.70000000 -23.34267953
v 22.91880000 95.70000000 -23.28482540
v 23.02756143 95.70000000 -23.21215334
v 23.12590678 95.70000000 -23.12590678
v 23.21215334 95.70000000 -23.02756143
v 23.28482540 95.70000000 -22.91880000
v 23.34267953 95.70000000 -22.80148343
v 23.38472583 95.70000000 -22.67761905
v 23.41024486 95.70000000 -22.54932619
v 23.41880000 95.70000000 -22.41880000
v 23.41880000 95.70000000 22.41880000
v 23.41024486 95.70000000 22.54932619
v 23.38472583 95.70000000 22.67761905
v 23.34267953 95.70000000 22.80148343
v 23.28482540 95.70000000 22.91880000
v 23.21215334 95.70000000 23.02756143
v 23.12590678 95.70000000 23.12590678
v 23.02756143 95.70000000 23.21215334
v 22.91880000 95.70000000 23.28482540
v 22.80148343 95.70000000 23.34267953
v 22.67761905 95.70000000 23.38472583
v 22.54932619 95.70000000 23.41024486
v 22.41880000 95.70000000 23.41880000
v -22.41880000 95.70000000 23.41880000
v -22.54932619 95.70000000 23.41024486
v -22.67761905 95.70000000 23.38472583
v -22.80148343 95.70000000 23.34267953
v -22.91880000 95.70000000 23.28482540
v -23.02756143 95.70000000 23.21215334
v -23.12590678 95.70000000 23.12590678
v -23.21215334 95.70000000 23.02756143
v -23.28482540 95.70000000 22.91880000
v -23.34267953 95.70000000 22.80148343
v -23.38472583 95.70000000 22.67761905
v -23.41024486 95.70000000 22.54932619
v -23.41880000 95.70000000 22.41880000
v -23.41880000 95.70000000 -14.55000000
v -25.40000000 95.70000000 -14.55000000
v -25.40000000 95.70000000 23.40000000
v -25.38288972 95.70000000 23.66105238
v -25.33185165 95.70000000 23.91763809
v -25.24775907 95.70000000 24.16536686
v -25.13205081 95.70000000 24.40000000
v -24.98670668 95.70000000 24.61752286
v -24.81421356 95.70000000 24.81421356
v -24.61752286 95.70000000 24.98670668
v -24.40000000 95.70000000 25.13205081
v -24.16536686 95.70000000 25.24775907
v -23.91763809 95.70000000 25.33185165
v -23.66105238 95.70000000 25.38288972
v 23.66105238 -95.70000000 -25.38288972
v 23.91763809 -95.70000000 -25.33185165
v 24.16536686 -95.70000000 -25.24775907
v 24.40000000 -95.70000000 -25.13205081
v 24.61752286 -95.70000000 -24.98670668
v 24.81421356 -95.70000000 -24.81421356
v 24.98670668 -95.70000000 -24.61752286
v 25.13205081 -95.70000000 -24.40000000
v 25.24775907 -95.70000000 -24.16536686
v 25.33185165 -95.70000000 -23.91763809
v 25.38288972 -95.70000000 -23.66105238
v 25.40000000 -95.70000000 -23.40000000
v -14.55000000 -95.70000000 -23.41880000
v 22.41880000 -95.70000000 -23.41880000
v 23.41880000 -95.70000000 -22.41880000
v 23.41024486 -95.70000000 -22.54932619
v 23.38472583 -95.70000000 -22.67761905
v 23.34267953 -95.70000000 -22.80148343
v 23.28482540 -95.70000000 -22.91880000
v 23.21215334 -95.70000000 -23.02756143
v 23.12590678 -95.70000000 -23.12590678
v 23.02756143 -95.70000000 -23.21215334
v 22.91880000 -95.70000000 -23.28482540
v 22.80148343 -95.70000000 -23.34267953
v 22.67761905 -95.70000000 -23.38472583
v 22.54932619 -95.70000000 -23.41024486
v 23.41880000 -95.70000000 22.41880000
v 22.41880000 -95.70000000 23.41880000
v 22.54932619 -95.70000000 23.41024486
v 22.67761905 -95.70000000 23.38472583
v 22.80148343 -95.70000000 23.34267953
v 22.91880000 -95.70000000 23.28482540
v 23.02756143 -95.70000000 23.21215334
v 23.12590678 -95.70000000 23.12590678
v 23.21215334 -95.70000000 23.02756143
v 23.28482540 -95.70000000 22.91880000
v 23.34267953 -95.70000000 22.80148343
v 23.38472583 -95.70000000 22.67761905
v 23.41024486 -95.70000000 22.54932619
v -22.41880000 -95.70000000 23.41880000
v -23.41880000 -95.70000000 22.41880000
v -23.41024486 -95.70000000 22.54932619
v -23.38472583 -95.70000000 22.67761905
v -23.34267953 -95.70000000 22.80148343
v -23.28482540 -95.70000000 22.91880000
v -23.21215334 -95.70000000 23.02756143
v -23.12590678 -95.70000000 23.12590678
v -23.02756143 -95.70000000 23.21215334
v -22.91880000 -95.70000000 23.28482540
v -22.80148343 -95.70000000 23.34267953
v -22.67761905 -95.70000000 23.38472583
v -22.54932619 -95.70000000 23.41024486
v -23.41880000 -95.70000000 -14.55000000
v -25.40000000 -95.70000000 -14.55000000
v -25.40000000 -95.70000000 23.40000000
v -23.40000000 -95.70000000 25.40000000
v -23.66105238 -95.70000000 25.38288972
v -23.91763809 -95.70000000 25.33185165
v -24.16536686 -95.70000000 25.24775907
v -24.40000000 -95.70000000 25.13205081
v -24.61752286 -95.70000000 24.98670668
v -24.81421356 -95.70000000 24.81421356
v -24.98670668 -95.70000000 24.61752286
v -25.13205081 -95.70000000 24.40000000
v -25.24775907 -95.70000000 24.16536686
v -25.33185165 -95.70000000 23.91763809
v -25.38288972 -95.70000000 23.66105238
v 23.40000000 -95.70000000 25.40000000
v 25.40000000 -95.70000000 23.40000000
v 25.38288972 -95.70000000 23.66105238
v 25.33185165 -95.70000000 23.91763809
v 25.24775907 -95.70000000 24.16536686
v 25.13205081 -95.70000000 24.40000000
v 24.98670668 -95.70000000 24.61752286
v 24.81421356 -95.70000000 24.81421356
v 24.61752286 -95.70000000 24.98670668
v 24.40000000 -95.70000000 25.13205081
v 24.16536686 -95.70000000 25.24775907
v 23.91763809 -95.70000000 25.33185165
v 23.66105238 -95.70000000 25.38288972
v 25.40000000 73.48698733 -9.43628364
v 25.40000000 74.75981425 -9.17178716
v 25.40000000 75.98477038 -8.73643765
v 25.40000000 77.13903712 -8.13834483
v 25.40000000 78.20111267 -7.38865004
v 25.40000000 79.15121256 -6.50131869
v 25.40000000 79.97163823 -5.49288007
v 25.40000000 80.64710671 -4.38211948
v 25.40000000 81.16503528 -3.18972831
v 25.40000000 81.51577594 -1.93791852
v 25.40000000 81.69279503 -0.65000899
v 25.40000000 81.69279503 0.65000899
v 25.40000000 81.51577594 1.93791852
v 25.40000000 81.16503528 3.18972831
v 25.40000000 80.64710671 4.38211948
v 25.40000000 79.97163823 5.49288007
v 25.40000000 79.15121256 6.50131869
v 25.40000000 78.20111267 7.38865004
v 25.40000000 77.13903712 8.13834483
v 25.40000000 75.98477038 8.73643765
v 25.40000000 74.75981425 9.17178716
v 25.40000000 73.48698733 9.43628364
v -22.91880000 -79.70000000 -25.40000000
v -22.91880000 79.70000000 -25.40000000
v -20.92000000 -79.70000000 -25.40000000
v -20.92000000 79.70000000 -25.40000000
v -25.40000000 -83.20000000 -14.55000000
v -25.40000000 -79.70176694 -17.93880000
v -25.40000000 -79.75145755 -17.45204102
v -25.40000000 -79.86854350 -16.97696803
v -25.40000000 -80.05073658 -16.52286545
v -25.40000000 -80.29447615 -16.09860789
v -25.40000000 -80.59499879 -15.71248665
v -25.40000000 -80.94643132 -15.37204776
v -25.40000000 -81.34190567 -15.08394446
v -25.40000000 -81.77369301 -14.85380721
v -25.40000000 -82.23335487 -14.68613359
v -25.40000000 -82.71190801 -14.58420049
v -25.40000000 79.70176694 -17.93880000
v -25.40000000 83.20000000 -14.55000000
v -25.40000000 82.71190801 -14.58420049
v -25.40000000 82.23335487 -14.68613359
v -25.40000000 81.77369301 -14.85380721
v -25.40000000 81.34190567 -15.08394446
v -25.40000000 80.94643132 -15.37204776
v -25.40000000 80.59499879 -15.71248665
v -25.40000000 80.29447615 -16.09860789
v -25.40000000 80.05073658 -16.52286545
v -25.40000000 79.86854350 -16.97696803
v -25.40000000 79.75145755 -17.45204102
v 9.43628364 -70.89301267 25.40000000
v 9.17178716 -69.62018575 25.40000000
v 8.73643765 -68.39522962 25.40000000
v 8.13834483 -67.24096288 25.40000000
v 7.38865004 -66.17888733 25.40000000
v 6.50131869 -65.22878744 25.40000000
v 5.49288007 -64.40836177 25.40000000
v 4.38211948 -63.73289329 25.40000000
v 3.18972831 -63.21496472 25.40000000
v 1.93791852 -62.86422406 25.40000000
v 0.65000899 -62.68720497 25.40000000
v -0.65000899 -62.68720497 25.40000000
v -1.93791852 -62.86422406 25.40000000
v -3.18972831 -63.21496472 25.40000000
v -4.38211948 -63.73289329 25.40000000
v -5.49288007 -64.40836177 25.40000000
v -6.50131869 -65.22878744 25.40000000
v -7.38865004 -66.17888733 25.40000000
v -8.13834483 -67.24096288 25.40000000
v -8.73643765 -68.39522962 25.40000000
v -9.17178716 -69.62018575 25.40000000
v -9.43628364 -70.89301267 25.40000000
v 23.41880000 73.48698733 -9.43628364
v 23.41880000 74.75981425 -9.17178716
v 23.41880000 75.98477038 -8.73643765
v 23.41880000 77.13903712 -8.13834483
v 23.41880000 78.20111267 -7.38865004
v 23.41880000 79.15121256 -6.50131869
v 23.41880000 79.97163823 -5.49288007
v 23.41880000 80.64710671 -4.38211948
v 23.41880000 81.16503528 -3.18972831
v 23.41880000 81.51577594 -1.93791852
v 23.41880000 81.69279503 -0.65000899
v 23.41880000 81.69279503 0.65000899
v 23.41880000 81.51577594 1.93791852
v 23.41880000 81.16503528 3.18972831
v 23.41880000 80.64710671 4.38211948
v 23.41880000 79.97163823 5.49288007
v 23.41880000 79.15121256 6.50131869
v 23.41880000 78.20111267 7.38865004
v 23.41880000 77.13903712 8.13834483
v 23.41880000 75.98477038 8.73643765
v 23.41880000 74.75981425 9.17178716
v 23.41880000 73.48698733 9.43628364
v -22.41880000 79.70000000 -23.41880000
v -14.55000000 79.70000000 -23.41880000
v -22.41880000 -79.70000000 -23.41880000
v -14.55000000 -79.70000000 -23.41880000
v -23.41880000 -79.70000000 -22.41880000
v -23.41880000 -79.70000000 -18.05000000
v -23.41880000 79.70000000 -22.41880000
v -23.41880000 79.70000000 -18.05000000
v -23.41880000 79.72994299 -17.59315833
v -23.41880000 79.81925961 -17.14413334
v -23.41880000 79.96642164 -16.71060799
v -23.41880000 80.16891109 -16.30000000
v -23.41880000 80.42326331 -15.91933500
v -23.41880000 80.72512627 -15.57512627
v -23.41880000 81.06933500 -15.27326331
v -23.41880000 81.45000000 -15.01891109
v -23.41880000 81.86060799 -14.81642164
v -23.41880000 82.29413334 -14.66925961
v -23.41880000 82.74315833 -14.57994299
v -23.41880000 83.20000000 -14.55000000
v -23.41880000 -83.20000000 -14.55000000
v -23.41880000 -82.74315833 -14.57994299
v -23.41880000 -82.29413334 -14.66925961
v -23.41880000 -81.86060799 -14.81642164
v -23.41880000 -81.45000000 -15.01891109
v -23.41880000 -81.06933500 -15.27326331
v -23.41880000 -80.72512627 -15.57512627
v -23.41880000 -80.42326331 -15.91933500
v -23.41880000 -80.16891109 -16.30000000
v -23.41880000 -79.96642164 -16.71060799
v -23.41880000 -79.81925961 -17.14413334
v -23.41880000 -79.72994299 -17.59315833
v 9.43628364 -70.89301267 23.41880000
v 9.17178716 -69.62018575 23.41880000
v 8.73643765 -68.39522962 23.41880000
v 8.13834483 -67.24096288 23.41880000
v 7.38865004 -66.17888733 23.41880000
v 6.50131869 -65.22878744 23.41880000
v 5.49288007 -64.40836177 23.41880000
v 4.38211948 -63.73289329 23.41880000
v 3.18972831 -63.21496472 23.41880000
v 1.93791852 -62.86422406 23.41880000
v 0.65000899 -62.68720497 23.41880000
v -0.65000899 -62.68720497 23.41880000
v -1.93791852 -62.86422406 23.41880000
v -3.18972831 -63.21496472 23.41880000
v -4.38211948 -63.73289329 23.41880000
v -5.49288007 -64.40836177 23.41880000
v -6.50131869 -65.22878744 23.41880000
v -7.38865004 -66.17888733 23.41880000
v -8.13834483 -67.24096288 23.41880000
v -8.73643765 -68.39522962 23.41880000
v -9.17178716 -69.62018575 23.41880000
v -9.43628364 -70.89301267 23.41880000
v -23.41880000 79.70000000 -25.90000000
v -23.41880000 79.70000000 -29.80716560
v -23.41880000 -79.70000000 -25.90000000
v -23.41880000 -79.70000000 -29.80716560
v -25.90000000 -79.70000000 -23.41880000
v -29.80716560 -79.70000000 -23.41880000
v -25.90000000 79.70000000 -23.41880000
v -29.80716560 79.70000000 -23.41880000
v -31.25000000 -79.70000000 -25.40000000
v -31.25000000 79.70000000 -25.40000000
v -25.90000000 -79.70000000 -25.40000000
v -25.90000000 79.70000000 -25.40000000
v -25.40000000 -79.70000000 -25.90000000
v -25.40000000 79.70000000 -25.90000000
v -25.40000000 -79.70000000 -31.25000000
v -25.40000000 79.70000000 -31.25000000
v -31.25000000 79.70000000 -18.43880000
v -25.90000000 79.70000000 -18.43880000
v -31.25000000 -79.70000000 -18.43880000
v -25.90000000 -79.70000000 -18.43880000
v -29.80716560 -79.70000000 -20.42000000
v -29.80716560 79.70000000 -20.42000000
v -25.90000000 -79.70000000 -20.42000000
v -25.90000000 79.70000000 -20.42000000
v -20.42000000 -79.70000000 -25.90000000
v -20.42000000 -79.70000000 -29.80716560
v -20.42000000 79.70000000 -25.90000000
v -20.42000000 79.70000000 -29.80716560
v -18.43880000 -79.70000000 -31.25000000
v -18.43880000 79.70000000 -31.25000000
v -18.43880000 -79.70000000 -25.90000000
v -18.43880000 79.70000000 -25.90000000
v -22.54932619 -79.70000000 -23.41024486
v -22.67761905 -79.70000000 -23.38472583
v -22.80148343 -79.70000000 -23.34267953
v -22.91880000 -79.70000000 -23.28482540
v -23.02756143 -79.70000000 -23.21215334
v -23.12590678 -79.70000000 -23.12590678
v -23.21215334 -79.70000000 -23.02756143
v -23.28482540 -79.70000000 -22.91880000
v -23.34267953 -79.70000000 -22.80148343
v -23.38472583 -79.70000000 -22.67761905
v -23.41024486 -79.70000000 -22.54932619
v -18.43452243 -79.70000000 -25.83473690
v -18.42176291 -79.70000000 -25.77059048
v -18.40073977 -79.70000000 -25.70865828
v -18.37181270 -79.70000000 -25.65000000
v -18.33547667 -79.70000000 -25.59561929
v -18.29235339 -79.70000000 -25.54644661
v -18.24318071 -79.70000000 -25.50332333
v -18.18880000 -79.70000000 -25.46698730
v -18.13014172 -79.70000000 -25.43806023
v -18.06820952 -79.70000000 -25.41703709
v -18.00406310 -79.70000000 -25.40427757
v -18.92425824 -79.70000000 -31.74978849
v -18.86034389 -79.70000000 -31.74380628
v -18.79772277 -79.70000000 -31.72968450
v -18.73742706 -79.70000000 -31.70765592
v -18.68045066 -79.70000000 -31.67808366
v -18.62773270 -79.70000000 -31.64145515
v -18.58014217 -79.70000000 -31.59837417
v -18.53846351 -79.70000000 -31.54955082
v -18.50338372 -79.70000000 -31.49578988
v -18.47548104 -79.70000000 -31.43797750
v -18.45521540 -79.70000000 -31.37706664
v -18.44292083 -79.70000000 -31.31406129
v -19.31929250 -79.70000000 -31.53678822
v -19.27765243 -79.70000000 -31.58856038
v -19.22951571 -79.70000000 -31.63435459
v -19.17573230 -79.70000000 -31.67336224
v -19.11725184 -79.70000000 -31.70489457
v -19.05510692 -79.70000000 -31.72839483
v -18.99039485 -79.70000000 -31.74344807
v -20.32957602 -79.70000000 -30.09395382
v -20.41627308 -79.70000000 -29.86810027
v -20.40514786 -79.70000000 -29.92812654
v -20.38679021 -79.70000000 -29.98634957
v -20.36147380 -79.70000000 -30.04190138
v -20.85473690 -79.70000000 -25.40427757
v -20.79059048 -79.70000000 -25.41703709
v -20.72865828 -79.70000000 -25.43806023
v -20.67000000 -79.70000000 -25.46698730
v -20.61561929 -79.70000000 -25.50332333
v -20.56644661 -79.70000000 -25.54644661
v -20.52332333 -79.70000000 -25.59561929
v -20.48698730 -79.70000000 -25.65000000
v -20.45806023 -79.70000000 -25.70865828
v -20.43703709 -79.70000000 -25.77059048
v -20.42427757 -79.70000000 -25.83473690
v -23.41452243 -79.70000000 -25.83473690
v -23.40176291 -79.70000000 -25.77059048
v -23.38073977 -79.70000000 -25.70865828
v -23.35181270 -79.70000000 -25.65000000
v -23.31547667 -79.70000000 -25.59561929
v -23.27235339 -79.70000000 -25.54644661
v -23.22318071 -79.70000000 -25.50332333
v -23.16880000 -79.70000000 -25.46698730
v -23.11014172 -79.70000000 -25.43806023
v -23.04820952 -79.70000000 -25.41703709
v -22.98406310 -79.70000000 -25.40427757
v -23.50922398 -79.70000000 -30.09395382
v -23.47732620 -79.70000000 -30.04190138
v -23.45200979 -79.70000000 -29.98634957
v -23.43365214 -79.70000000 -29.92812654
v -23.42252692 -79.70000000 -29.86810027
v -24.51950750 -79.70000000 -31.53678822
v -24.91454176 -79.70000000 -31.74978849
v -24.84840515 -79.70000000 -31.74344807
v -24.78369308 -79.70000000 -31.72839483
v -24.72154816 -79.70000000 -31.70489457
v -24.66306770 -79.70000000 -31.67336224
v -24.60928429 -79.70000000 -31.63435459
v -24.56114757 -79.70000000 -31.58856038
v -25.39587917 -79.70000000 -31.31406129
v -25.38358460 -79.70000000 -31.37706664
v -25.36331896 -79.70000000 -31.43797750
v -25.33541628 -79.70000000 -31.49578988
v -25.30033649 -79.70000000 -31.54955082
v -25.25865783 -79.70000000 -31.59837417
v -25.21106730 -79.70000000 -31.64145515
v -25.15834934 -79.70000000 -31.67808366
v -25.10137294 -79.70000000 -31.70765592
v -25.04107723 -79.70000000 -31.72968450
v -24.97845611 -79.70000000 -31.74380628
v -25.83473690 -79.70000000 -25.40427757
v -25.77059048 -79.70000000 -25.41703709
v -25.70865828 -79.70000000 -25.43806023
v -25.65000000 -79.70000000 -25.46698730
v -25.59561929 -79.70000000 -25.50332333
v -25.54644661 -79.70000000 -25.54644661
v -25.50332333 -79.70000000 -25.59561929
v -25.46698730 -79.70000000 -25.65000000
v -25.43806023 -79.70000000 -25.70865828
v -25.41703709 -79.70000000 -25.77059048
v -25.40427757 -79.70000000 -25.83473690
v -31.74978849 -79.70000000 -24.91454176
v -31.74380628 -79.70000000 -24.97845611
v -31.72968450 -79.70000000 -25.04107723
v -31.70765592 -79.70000000 -25.10137294
v -31.67808366 -79.70000000 -25.15834934
v -31.64145515 -79.70000000 -25.21106730
v -31.59837417 -79.70000000 -25.25865783
v -31.54955082 -79.70000000 -25.30033649
v -31.49578988 -79.70000000 -25.33541628
v -31.43797750 -79.70000000 -25.36331896
v -31.37706664 -79.70000000 -25.38358460
v -31.31406129 -79.70000000 -25.39587917
v -31.53678822 -79.70000000 -24.51950750
v -31.58856038 -79.70000000 -24.56114757
v -31.63435459 -79.70000000 -24.60928429
v -31.67336224 -79.70000000 -24.66306770
v -31.70489457 -79.70000000 -24.72154816
v -31.72839483 -79.70000000 -24.78369308
v -31.74344807 -79.70000000 -24.84840515
v -30.09395382 -79.70000000 -23.50922398
v -29.86810027 -79.70000000 -23.42252692
v -29.92812654 -79.70000000 -23.43365214
v -29.98634957 -79.70000000 -23.45200979
v -30.04190138 -79.70000000 -23.47732620
v -25.40427757 -79.70000000 -22.98406310
v -25.41703709 -79.70000000 -23.04820952
v -25.43806023 -79.70000000 -23.11014172
v -25.46698730 -79.70000000 -23.16880000
v -25.50332333 -79.70000000 -23.22318071
v -25.54644661 -79.70000000 -23.27235339
v -25.59561929 -79.70000000 -23.31547667
v -25.65000000 -79.70000000 -23.35181270
v -25.70865828 -79.70000000 -23.38073977
v -25.77059048 -79.70000000 -23.40176291
v -25.83473690 -79.70000000 -23.41452243
v -25.83473690 -79.70000000 -20.42427757
v -25.77059048 -79.70000000 -20.43703709
v -25.70865828 -79.70000000 -20.45806023
v -25.65000000 -79.70000000 -20.48698730
v -25.59561929 -79.70000000 -20.52332333
v -25.54644661 -79.70000000 -20.56644661
v -25.50332333 -79.70000000 -20.61561929
v -25.46698730 -79.70000000 -20.67000000
v -25.43806023 -79.70000000 -20.72865828
v -25.41703709 -79.70000000 -20.79059048
v -25.40427757 -79.70000000 -20.85473690
v -30.09395382 -79.70000000 -20.32957602
v -30.04190138 -79.70000000 -20.36147380
v -29.98634957 -79.70000000 -20.38679021
v -29.92812654 -79.70000000 -20.40514786
v -29.86810027 -79.70000000 -20.41627308
v -31.53678822 -79.70000000 -19.31929250
v -31.74978849 -79.70000000 -18.92425824
v -31.74344807 -79.70000000 -18.99039485
v -31.72839483 -79.70000000 -19.05510692
v -31.70489457 -79.70000000 -19.11725184
v -31.67336224 -79.70000000 -19.17573230
v -31.63435459 -79.70000000 -19.22951571
v -31.58856038 -79.70000000 -19.27765243
v -31.31406129 -79.70000000 -18.44292083
v -31.37706664 -79.70000000 -18.45521540
v -31.43797750 -79.70000000 -18.47548104
v -31.49578988 -79.70000000 -18.50338372
v -31.54955082 -79.70000000 -18.53846351
v -31.59837417 -79.70000000 -18.58014217
v -31.64145515 -79.70000000 -18.62773270
v -31.67808366 -79.70000000 -18.68045066
v -31.70765592 -79.70000000 -18.73742706
v -31.72968450 -79.70000000 -18.79772277
v -31.74380628 -79.70000000 -18.86034389
v -25.41252225 -79.70000000 -18.05000000
v -25.43186295 -79.70000000 -18.11443515
v -25.45967872 -79.70000000 -18.17569064
v -25.49546599 -79.70000000 -18.23265750
v -25.53857685 -79.70000000 -18.28430443
v -25.58823085 -79.70000000 -18.32969641
v -25.64352906 -79.70000000 -18.36801167
v -25.70347038 -79.70000000 -18.39855657
v -25.76696962 -79.70000000 -18.42077813
v -25.83287722 -79.70000000 -18.43427405
v -31.74978849 79.70000000 -18.92425824
v -31.74380628 79.70000000 -18.86034389
v -31.72968450 79.70000000 -18.79772277
v -31.70765592 79.70000000 -18.73742706
v -31.67808366 79.70000000 -18.68045066
v -31.64145515 79.70000000 -18.62773270
v -31.59837417 79.70000000 -18.58014217
v -31.54955082 79.70000000 -18.53846351
v -31.49578988 79.70000000 -18.50338372
v -31.43797750 79.70000000 -18.47548104
v -31.37706664 79.70000000 -18.45521540
v -31.31406129 79.70000000 -18.44292083
v -31.53678822 79.70000000 -19.31929250
v -31.58856038 79.70000000 -19.27765243
v -31.63435459 79.70000000 -19.22951571
v -31.67336224 79.70000000 -19.17573230
v -31.70489457 79.70000000 -19.11725184
v -31.72839483 79.70000000 -19.05510692
v -31.74344807 79.70000000 -18.99039485
v -30.09395382 79.70000000 -20.32957602
v -29.86810027 79.70000000 -20.41627308
v -29.92812654 79.70000000 -20.40514786
v -29.98634957 79.70000000 -20.38679021
v -30.04190138 79.70000000 -20.36147380
v -25.40427757 79.70000000 -20.85473690
v -25.41703709 79.70000000 -20.79059048
v -25.43806023 79.70000000 -20.72865828
v -25.46698730 79.70000000 -20.67000000
v -25.50332333 79.70000000 -20.61561929
v -25.54644661 79.70000000 -20.56644661
v -25.59561929 79.70000000 -20.52332333
v -25.65000000 79.70000000 -20.48698730
v -25.70865828 79.70000000 -20.45806023
v -25.77059048 79.70000000 -20.43703709
v -25.83473690 79.70000000 -20.42427757
v -25.83473690 79.70000000 -23.41452243
v -25.77059048 79.70000000 -23.40176291
v -25.70865828 79.70000000 -23.38073977
v -25.65000000 79.70000000 -23.35181270
v -25.59561929 79.70000000 -23.31547667
v -25.54644661 79.70000000 -23.27235339
v -25.50332333 79.70000000 -23.22318071
v -25.46698730 79.70000000 -23.16880000
v -25.43806023 79.70000000 -23.11014172
v -25.41703709 79.70000000 -23.04820952
v -25.40427757 79.70000000 -22.98406310
v -30.09395382 79.70000000 -23.50922398
v -30.04190138 79.70000000 -23.47732620
v -29.98634957 79.70000000 -23.45200979
v -29.92812654 79.70000000 -23.43365214
v -29.86810027 79.70000000 -23.42252692
v -31.53678822 79.70000000 -24.51950750
v -31.74978849 79.70000000 -24.91454176
v -31.74344807 79.70000000 -24.84840515
v -31.72839483 79.70000000 -24.78369308
v -31.70489457 79.70000000 -24.72154816
v -31.67336224 79.70000000 -24.66306770
v -31.63435459 79.70000000 -24.60928429
v -31.58856038 79.70000000 -24.56114757
v -31.31406129 79.70000000 -25.39587917
v -31.37706664 79.70000000 -25.38358460
v -31.43797750 79.70000000 -25.36331896
v -31.49578988 79.70000000 -25.33541628
v -31.54955082 79.70000000 -25.30033649
v -31.59837417 79.70000000 -25.25865783
v -31.64145515 79.70000000 -25.21106730
v -31.67808366 79.70000000 -25.15834934
v -31.70765592 79.70000000 -25.10137294
v -31.72968450 79.70000000 -25.04107723
v -31.74380628 79.70000000 -24.97845611
v -25.40427757 79.70000000 -25.83473690
v -25.41703709 79.70000000 -25.77059048
v -25.43806023 79.70000000 -25.70865828
v -25.46698730 79.70000000 -25.65000000
v -25.50332333 79.70000000 -25.59561929
v -25.54644661 79.70000000 -25.54644661
v -25.59561929 79.70000000 -25.50332333
v -25.65000000 79.70000000 -25.46698730
v -25.70865828 79.70000000 -25.43806023
v -25.77059048 79.70000000 -25.41703709
v -25.83473690 79.70000000 -25.40427757
v -24.91454176 79.70000000 -31.74978849
v -24.97845611 79.70000000 -31.74380628
v -25.04107723 79.70000000 -31.72968450
v -25.10137294 79.70000000 -31.70765592
v -25.15834934 79.70000000 -31.67808366
v -25.21106730 79.70000000 -31.64145515
v -25.25865783 79.70000000 -31.59837417
v -25.30033649 79.70000000 -31.54955082
v -25.33541628 79.70000000 -31.49578988
v -25.36331896 79.70000000 -31.43797750
v -25.38358460 79.70000000 -31.37706664
v -25.39587917 79.70000000 -31.31406129
v -24.51950750 79.70000000 -31.53678822
v -24.56114757 79.70000000 -31.58856038
v -24.60928429 79.70000000 -31.63435459
v -24.66306770 79.70000000 -31.67336224
v -24.72154816 79.70000000 -31.70489457
v -24.78369308 79.70000000 -31.72839483
v -24.84840515 79.70000000 -31.74344807
v -23.50922398 79.70000000 -30.09395382
v -23.42252692 79.70000000 -29.86810027
v -23.43365214 79.70000000 -29.92812654
v -23.45200979 79.70000000 -29.98634957
v -23.47732620 79.70000000 -30.04190138
v -22.98406310 79.70000000 -25.40427757
v -23.04820952 79.70000000 -25.41703709
v -23.11014172 79.70000000 -25.43806023
v -23.16880000 79.70000000 -25.46698730
v -23.22318071 79.70000000 -25.50332333
v -23.27235339 79.70000000 -25.54644661
v -23.31547667 79.70000000 -25.59561929
v -23.35181270 79.70000000 -25.65000000
v -23.38073977 79.70000000 -25.70865828
v -23.40176291 79.70000000 -25.77059048
v -23.41452243 79.70000000 -25.83473690
v -20.42427757 79.70000000 -25.83473690
v -20.43703709 79.70000000 -25.77059048
v -20.45806023 79.70000000 -25.70865828
v -20.48698730 79.70000000 -25.65000000
v -20.52332333 79.70000000 -25.59561929
v -20.56644661 79.70000000 -25.54644661
v -20.61561929 79.70000000 -25.50332333
v -20.67000000 79.70000000 -25.46698730
v -20.72865828 79.70000000 -25.43806023
v -20.79059048 79.70000000 -25.41703709
v -20.85473690 79.70000000 -25.40427757
v -20.32957602 79.70000000 -30.09395382
v -20.36147380 79.70000000 -30.04190138
v -20.38679021 79.70000000 -29.98634957
v -20.40514786 79.70000000 -29.92812654
v -20.41627308 79.70000000 -29.86810027
v -19.31929250 79.70000000 -31.53678822
v -18.92425824 79.70000000 -31.74978849
v -18.99039485 79.70000000 -31.74344807
v -19.05510692 79.70000000 -31.72839483
v -19.11725184 79.70000000 -31.70489457
v -19.17573230 79.70000000 -31.67336224
v -19.22951571 79.70000000 -31.63435459
v -19.27765243 79.70000000 -31.58856038
v -18.44292083 79.70000000 -31.31406129
v -18.45521540 79.70000000 -31.37706664
v -18.47548104 79.70000000 -31.43797750
v -18.50338372 79.70000000 -31.49578988
v -18.53846351 79.70000000 -31.54955082
v -18.58014217 79.70000000 -31.59837417
v -18.62773270 79.70000000 -31.64145515
v -18.68045066 79.70000000 -31.67808366
v -18.73742706 79.70000000 -31.70765592
v -18.79772277 79.70000000 -31.72968450
v -18.86034389 79.70000000 -31.74380628
v -18.00406310 79.70000000 -25.40427757
v -18.06820952 79.70000000 -25.41703709
v -18.13014172 79.70000000 -25.43806023
v -18.18880000 79.70000000 -25.46698730
v -18.24318071 79.70000000 -25.50332333
v -18.29235339 79.70000000 -25.54644661
v -18.33547667 79.70000000 -25.59561929
v -18.37181270 79.70000000 -25.65000000
v -18.40073977 79.70000000 -25.70865828
v -18.42176291 79.70000000 -25.77059048
v -18.43452243 79.70000000 -25.83473690
v -23.41024486 79.70000000 -22.54932619
v -23.38472583 79.70000000 -22.67761905
v -23.34267953 79.70000000 -22.80148343
v -23.28482540 79.70000000 -22.91880000
v -23.21215334 79.70000000 -23.02756143
v -23.12590678 79.70000000 -23.12590678
v -23.02756143 79.70000000 -23.21215334
v -22.91880000 79.70000000 -23.28482540
v -22.80148343 79.70000000 -23.34267953
v -22.67761905 79.70000000 -23.38472583
v -22.54932619 79.70000000 -23.41024486
v -25.41252225 79.70000000 -18.05000000
v -25.83287722 79.70000000 -18.43427405
v -25.76696962 79.70000000 -18.42077813
v -25.70347038 79.70000000 -18.39855657
v -25.64352906 79.70000000 -18.36801167
v -25.58823085 79.70000000 -18.32969641
v -25.53857685 79.70000000 -18.28430443
v -25.49546599 79.70000000 -18.23265750
v -25.45967872 79.70000000 -18.17569064
v -25.43186295 79.70000000 -18.11443515
f 24 26 25
f 24 48 26
f 23 47 48
f 23 48 24
f 22 46 47
f 22 47 23
f 21 45 46
f 21 46 22
f 20 44 45
f 20 45 21
f 19 43 44
f 19 44 20
f 18 42 43
f 18 43 19
f 17 41 42
f 17 42 18
f 16 40 41
f 16 41 17
f 15 38 39
f 15 39 40
f 15 40 16
f 14 38 15
f 13 38 14
f 13 37 38
f 12 37 13
f 12 36 37
f 11 36 12
f 11 35 36
f 10 35 11
f 10 34 35
f 9 34 10
f 9 33 34
f 8 33 9
f 8 31 32
f 8 32 33
f 7 31 8
f 6 31 7
f 6 30 31
f 5 28 29
f 5 29 30
f 5 30 6
f 4 28 5
f 3 1 27
f 3 27 28
f 3 28 4
f 2 1 3
f 72 74 73
f 72 96 74
f 71 95 96
f 71 96 72
f 70 94 95
f 70 95 71
f 69 93 94
f 69 94 70
f 68 92 93
f 68 93 69
f 67 91 92
f 67 92 68
f 66 90 91
f 66 91 67
f 65 89 90
f 65 90 66
f 64 88 89
f 64 89 65
f 63 86 87
f 63 87 88
f 63 88 64
f 62 86 63
f 61 86 62
f 61 85 86
f 60 85 61
f 60 84 85
f 59 84 60
f 59 83 84
f 58 83 59
f 58 82 83
f 57 82 58
f 57 81 82
f 56 81 57
f 56 79 80
f 56 80 81
f 55 79 56
f 54 79 55
f 54 78 79
f 53 76 77
f 53 77 78
f 53 78 54
f 52 76 53
f 51 49 75
f 51 75 76
f 51 76 52
f 50 49 51
f 99 98 97
f 103 97 104
f 102 97 103
f 100 102 101
f 100 99 97
f 100 97 102
f 106 107 105
f 108 107 106
f 174 175 176
f 174 176 177
f 136 100 101
f 136 101 135
f 173 174 177
f 137 100 136
f 172 173 177
f 138 100 137
f 171 172 177
f 139 100 138
f 170 171 177
f 170 177 178
f 170 178 179
f 140 100 139
f 140 133 134
f 140 134 100
f 169 170 179
f 169 179 180
f 169 180 181
f 169 181 182
f 141 130 131
f 141 131 132
f 141 132 133
f 141 133 140
f 168 169 182
f 168 182 183
f 142 130 141
f 129 130 142
f 184 168 183
f 184 167 168
f 128 142 143
f 128 129 142
f 185 167 184
f 127 128 143
f 186 167 185
f 126 127 143
f 187 166 167
f 187 167 186
f 125 143 144
f 125 126 143
f 188 166 187
f 124 125 144
f 109 162 163
f 109 163 164
f 109 164 165
f 109 165 166
f 109 166 188
f 123 144 145
f 123 145 146
f 123 146 147
f 123 147 148
f 123 124 144
f 149 123 148
f 110 157 158
f 110 158 159
f 110 159 160
f 110 160 161
f 110 161 162
f 110 162 109
f 122 123 149
f 122 149 150
f 122 150 151
f 122 151 152
f 122 152 153
f 111 157 110
f 121 122 153
f 112 156 157
f 112 157 111
f 120 121 153
f 120 153 154
f 113 156 112
f 119 120 154
f 114 156 113
f 118 119 154
f 115 156 114
f 115 155 156
f 117 118 154
f 117 154 155
f 116 155 115
f 116 117 155
f 229 242 241
f 229 243 242
f 202 98 99
f 202 201 98
f 230 243 229
f 214 202 99
f 231 243 230
f 213 214 99
f 232 243 231
f 212 213 99
f 233 243 232
f 233 254 255
f 233 255 243
f 211 99 189
f 211 189 190
f 211 212 99
f 234 254 233
f 234 251 252
f 234 252 253
f 234 253 254
f 210 190 191
f 210 191 192
f 210 192 193
f 210 211 190
f 235 251 234
f 250 251 235
f 209 210 193
f 194 209 193
f 249 250 235
f 249 235 236
f 195 208 209
f 195 209 194
f 248 249 236
f 196 208 195
f 247 248 236
f 197 208 196
f 246 236 237
f 246 247 236
f 198 207 208
f 198 208 197
f 245 246 237
f 199 207 198
f 244 237 238
f 244 238 239
f 244 239 240
f 244 240 228
f 244 245 237
f 200 203 204
f 200 204 205
f 200 205 206
f 200 206 207
f 200 207 199
f 215 203 200
f 256 216 217
f 256 217 218
f 256 218 219
f 256 219 220
f 256 228 216
f 256 244 228
f 257 224 225
f 257 225 226
f 257 226 227
f 257 227 215
f 257 215 200
f 268 256 220
f 258 224 257
f 267 268 220
f 267 220 221
f 259 224 258
f 259 223 224
f 266 267 221
f 260 223 259
f 265 266 221
f 261 223 260
f 264 221 222
f 264 265 221
f 262 222 223
f 262 223 261
f 263 264 222
f 263 222 262
f 44 43 200
f 42 200 43
f 45 44 200
f 41 200 42
f 46 45 200
f 40 200 41
f 39 200 40
f 38 200 39
f 37 257 200
f 37 200 38
f 36 257 37
f 35 257 36
f 34 257 35
f 33 257 34
f 32 257 33
f 123 269 26
f 123 270 269
f 123 271 270
f 123 272 271
f 123 273 272
f 123 47 46
f 123 48 47
f 123 26 48
f 274 273 123
f 31 257 32
f 275 274 123
f 30 257 31
f 276 275 123
f 29 257 30
f 277 276 123
f 278 277 123
f 279 278 123
f 122 280 279
f 122 281 280
f 122 282 281
f 122 283 282
f 122 284 283
f 122 285 284
f 122 286 285
f 122 279 123
f 122 287 286
f 122 288 287
f 122 289 288
f 122 290 289
f 122 1 290
f 122 27 1
f 122 28 27
f 122 29 28
f 123 46 200
f 257 29 122
f 292 293 291
f 294 293 292
f 295 242 243
f 306 295 243
f 305 306 243
f 304 305 243
f 303 304 243
f 302 303 243
f 301 302 243
f 300 301 243
f 177 300 243
f 313 314 177
f 315 300 177
f 315 177 314
f 312 313 177
f 316 299 300
f 316 300 315
f 311 312 177
f 317 298 299
f 317 299 316
f 310 311 177
f 318 297 298
f 318 298 317
f 309 310 177
f 307 296 297
f 307 297 318
f 308 309 177
f 176 308 177
f 92 91 256
f 90 256 91
f 93 92 256
f 89 256 90
f 94 93 256
f 88 256 89
f 95 94 256
f 87 256 88
f 96 95 256
f 86 256 87
f 74 96 256
f 85 256 86
f 319 74 256
f 320 319 256
f 321 320 256
f 244 81 80
f 244 82 81
f 244 83 82
f 244 84 83
f 244 85 84
f 244 256 85
f 79 244 80
f 78 244 79
f 77 244 78
f 76 244 77
f 75 244 76
f 49 244 75
f 340 244 49
f 339 244 340
f 338 244 339
f 110 322 321
f 110 323 322
f 110 324 323
f 110 325 324
f 110 326 325
f 110 327 326
f 110 328 327
f 110 329 328
f 109 330 329
f 109 331 330
f 109 332 331
f 109 333 332
f 109 334 333
f 109 335 334
f 109 336 335
f 109 337 336
f 109 338 337
f 109 329 110
f 244 338 109
f 110 321 256
f 20 203 19
f 18 19 203
f 21 203 20
f 17 18 203
f 22 203 21
f 16 17 203
f 15 16 203
f 14 15 203
f 13 203 215
f 13 14 203
f 12 13 215
f 11 12 215
f 10 11 215
f 9 10 215
f 8 9 215
f 148 22 23
f 148 23 24
f 148 24 25
f 148 25 341
f 148 341 342
f 148 342 343
f 148 343 344
f 148 344 345
f 148 345 346
f 7 8 215
f 347 148 346
f 6 7 215
f 348 148 347
f 5 6 215
f 349 148 348
f 350 148 349
f 351 148 350
f 352 148 351
f 149 2 3
f 149 3 4
f 149 4 5
f 149 148 352
f 149 352 353
f 149 353 354
f 149 354 355
f 149 355 356
f 149 356 357
f 149 357 358
f 149 358 359
f 149 359 360
f 149 360 361
f 149 361 362
f 149 362 2
f 148 203 22
f 215 149 5
f 202 366 201
f 363 365 366
f 364 363 366
f 136 135 364
f 136 366 202
f 136 364 366
f 383 229 241
f 384 229 383
f 385 229 384
f 386 229 385
f 387 229 386
f 388 229 387
f 389 229 388
f 390 229 389
f 174 229 390
f 375 174 390
f 375 376 174
f 377 174 376
f 378 174 377
f 374 390 391
f 374 375 390
f 373 391 392
f 373 392 393
f 373 374 391
f 379 174 378
f 380 174 379
f 372 373 393
f 381 174 380
f 371 393 394
f 371 372 393
f 382 174 381
f 370 394 368
f 370 371 394
f 369 368 367
f 369 370 368
f 175 174 382
f 68 216 67
f 66 67 216
f 69 216 68
f 65 66 216
f 70 216 69
f 64 65 216
f 71 216 70
f 63 64 216
f 72 216 71
f 62 63 216
f 73 216 72
f 395 216 73
f 396 216 395
f 397 216 396
f 228 57 58
f 228 58 59
f 228 59 60
f 228 60 61
f 228 61 62
f 228 62 216
f 56 57 228
f 55 56 228
f 54 55 228
f 53 54 228
f 52 53 228
f 51 52 228
f 50 51 228
f 416 50 228
f 415 416 228
f 414 415 228
f 161 397 398
f 161 398 399
f 161 399 400
f 161 400 401
f 161 401 402
f 161 402 403
f 161 403 404
f 161 404 405
f 162 161 405
f 162 405 406
f 162 406 407
f 162 407 408
f 162 408 409
f 162 409 410
f 162 410 411
f 162 411 412
f 162 412 413
f 162 413 414
f 228 162 414
f 161 216 397
f 418 417 419
f 418 419 420
f 424 422 421
f 423 424 421
f 426 427 425
f 428 427 426
f 432 429 430
f 432 431 429
f 433 435 436
f 434 433 436
f 438 439 437
f 440 439 438
f 443 442 441
f 443 444 442
f 448 445 446
f 448 447 445
f 416 49 50
f 416 340 49
f 415 339 340
f 415 340 416
f 414 338 339
f 414 339 415
f 413 337 338
f 413 338 414
f 412 336 337
f 412 337 413
f 411 334 335
f 411 335 336
f 411 336 412
f 410 334 411
f 409 333 334
f 409 334 410
f 408 332 333
f 408 333 409
f 407 330 331
f 407 331 332
f 407 332 408
f 406 330 407
f 405 330 406
f 405 328 329
f 405 329 330
f 404 328 405
f 403 328 404
f 403 327 328
f 402 327 403
f 402 326 327
f 401 326 402
f 401 324 325
f 401 325 326
f 400 324 401
f 399 324 400
f 399 322 323
f 399 323 324
f 398 322 399
f 397 321 322
f 397 322 398
f 396 320 321
f 396 321 397
f 395 74 319
f 395 319 320
f 395 320 396
f 73 74 395
f 362 1 2
f 362 290 1
f 361 289 290
f 361 290 362
f 360 288 289
f 360 289 361
f 359 287 288
f 359 288 360
f 358 286 287
f 358 287 359
f 357 285 286
f 357 286 358
f 356 284 285
f 356 285 357
f 355 283 284
f 355 284 356
f 354 282 283
f 354 283 355
f 353 281 282
f 353 282 354
f 352 280 281
f 352 281 353
f 351 280 352
f 351 279 280
f 350 279 351
f 350 278 279
f 349 278 350
f 349 277 278
f 348 277 349
f 348 276 277
f 347 276 348
f 347 275 276
f 346 275 347
f 346 274 275
f 345 274 346
f 345 273 274
f 344 272 273
f 344 273 345
f 343 272 344
f 343 271 272
f 342 270 271
f 342 271 343
f 341 26 269
f 341 269 270
f 341 270 342
f 25 26 341
f 366 97 98
f 366 98 201
f 383 241 242
f 383 242 295
f 524 539 540
f 524 540 523
f 570 552 553
f 570 553 554
f 525 538 539
f 525 539 524
f 569 554 555
f 569 570 554
f 526 537 538
f 526 538 525
f 568 555 556
f 568 569 555
f 527 536 537
f 527 537 526
f 567 556 557
f 567 568 556
f 528 536 527
f 528 535 536
f 566 557 558
f 566 567 557
f 529 535 528
f 529 534 535
f 565 558 559
f 565 566 558
f 564 559 560
f 564 560 561
f 564 561 562
f 564 562 563
f 564 563 425
f 564 565 559
f 522 534 529
f 522 431 530
f 522 530 531
f 522 531 532
f 522 532 533
f 522 533 534
f 517 431 522
f 571 564 425
f 519 517 518
f 574 575 571
f 520 517 519
f 420 517 520
f 420 431 517
f 420 520 521
f 422 574 571
f 422 572 573
f 422 573 574
f 422 571 425
f 427 422 425
f 429 431 420
f 621 604 605
f 472 489 471
f 620 621 605
f 620 605 606
f 473 488 489
f 473 489 472
f 619 620 606
f 619 606 607
f 474 487 488
f 474 488 473
f 600 598 599
f 618 619 607
f 618 607 608
f 475 486 487
f 475 487 474
f 601 598 600
f 492 493 494
f 617 618 608
f 617 608 609
f 476 485 486
f 476 486 475
f 437 598 601
f 437 601 602
f 442 491 492
f 442 494 490
f 442 492 494
f 616 617 609
f 616 609 610
f 477 484 485
f 477 485 476
f 615 616 610
f 615 610 603
f 478 484 477
f 478 483 484
f 614 615 603
f 479 483 478
f 613 614 603
f 480 483 479
f 612 613 603
f 481 483 480
f 611 612 603
f 482 483 481
f 435 598 437
f 435 611 603
f 435 603 598
f 445 483 482
f 445 490 483
f 445 442 490
f 421 427 541
f 421 422 427
f 419 551 429
f 419 429 420
f 586 421 541
f 506 550 551
f 506 551 419
f 585 541 542
f 585 542 543
f 585 586 541
f 507 550 506
f 584 585 543
f 508 550 507
f 508 549 550
f 583 543 544
f 583 584 543
f 509 548 549
f 509 549 508
f 582 544 545
f 582 545 546
f 582 583 544
f 510 548 509
f 510 546 547
f 510 547 548
f 581 582 546
f 511 581 546
f 511 546 510
f 512 580 581
f 512 581 511
f 454 580 512
f 453 512 513
f 453 454 512
f 453 513 514
f 455 578 579
f 455 579 580
f 455 580 454
f 452 453 514
f 452 514 515
f 456 577 578
f 456 578 455
f 457 577 456
f 457 576 577
f 451 452 515
f 451 515 516
f 450 451 516
f 450 516 291
f 458 576 457
f 458 107 576
f 449 450 291
f 459 107 458
f 367 105 107
f 367 107 459
f 367 596 597
f 367 597 105
f 365 293 495
f 365 495 496
f 365 496 497
f 365 449 291
f 365 291 293
f 436 435 437
f 436 439 587
f 436 437 439
f 447 442 445
f 447 441 442
f 460 441 447
f 460 505 441
f 631 587 588
f 631 436 587
f 461 504 505
f 461 505 460
f 630 588 589
f 630 631 588
f 462 503 504
f 462 504 461
f 629 630 589
f 629 589 590
f 463 501 502
f 463 502 503
f 463 503 462
f 628 590 591
f 628 629 590
f 464 501 463
f 627 591 592
f 627 628 591
f 465 501 464
f 465 499 500
f 465 500 501
f 626 627 592
f 466 499 465
f 467 498 499
f 467 499 466
f 468 365 497
f 468 497 498
f 468 498 467
f 469 365 468
f 470 365 469
f 368 592 593
f 368 593 594
f 368 594 595
f 368 595 596
f 368 596 367
f 368 626 592
f 368 622 623
f 368 623 624
f 368 624 625
f 368 625 626
f 366 104 97
f 366 470 104
f 366 365 470
f 101 102 364
f 135 101 364
f 382 176 175
f 382 308 176
f 650 632 633
f 650 633 634
f 649 634 635
f 649 650 634
f 648 635 636
f 648 649 635
f 647 636 637
f 647 648 636
f 646 637 638
f 646 647 637
f 645 638 639
f 645 646 638
f 644 639 640
f 644 640 641
f 644 641 642
f 644 642 643
f 644 643 433
f 644 645 639
f 651 644 433
f 438 652 653
f 438 653 654
f 438 654 655
f 438 655 651
f 438 651 433
f 434 438 433
f 701 684 685
f 700 685 686
f 700 701 685
f 699 686 687
f 699 700 686
f 698 699 687
f 698 687 688
f 682 678 679
f 682 679 680
f 682 680 681
f 697 688 689
f 697 698 688
f 424 678 682
f 696 697 689
f 696 689 690
f 695 696 690
f 695 690 683
f 694 695 683
f 693 694 683
f 692 693 683
f 691 692 683
f 426 678 424
f 426 691 683
f 426 683 678
f 440 438 434
f 666 440 434
f 666 434 806
f 370 811 812
f 370 812 813
f 370 813 814
f 370 814 805
f 665 666 806
f 665 806 807
f 664 807 808
f 664 665 807
f 663 808 809
f 663 664 808
f 662 809 810
f 662 663 809
f 661 810 811
f 661 811 370
f 661 662 810
f 660 661 370
f 659 660 370
f 658 659 370
f 657 658 370
f 369 106 656
f 369 656 657
f 369 108 106
f 369 657 370
f 794 108 369
f 795 677 108
f 795 108 794
f 796 676 677
f 796 677 795
f 428 426 424
f 428 423 667
f 428 424 423
f 712 667 668
f 712 428 667
f 797 675 676
f 797 676 796
f 711 712 668
f 710 668 669
f 710 669 670
f 710 711 668
f 798 673 674
f 798 674 675
f 798 675 797
f 709 710 670
f 708 670 671
f 708 709 670
f 799 673 798
f 707 708 671
f 707 671 672
f 742 707 672
f 742 672 673
f 743 707 742
f 743 706 707
f 741 742 673
f 741 673 799
f 741 799 800
f 744 706 743
f 744 704 705
f 744 705 706
f 740 741 800
f 739 740 800
f 739 800 801
f 745 704 744
f 746 704 745
f 746 703 704
f 738 739 801
f 738 801 802
f 747 703 746
f 747 702 703
f 737 738 802
f 737 802 803
f 417 702 747
f 417 430 702
f 292 737 803
f 292 803 804
f 292 804 363
f 294 292 363
f 758 294 363
f 757 758 363
f 756 757 363
f 418 430 417
f 418 432 430
f 734 418 733
f 735 418 734
f 736 418 735
f 732 432 418
f 732 418 736
f 731 713 714
f 731 714 715
f 730 731 715
f 730 715 716
f 729 730 716
f 729 716 717
f 728 729 717
f 728 717 718
f 725 721 722
f 725 722 723
f 725 723 724
f 725 724 432
f 725 432 732
f 725 720 721
f 727 718 719
f 727 728 718
f 726 720 725
f 726 727 719
f 726 719 720
f 789 752 753
f 789 753 788
f 787 753 754
f 787 754 755
f 787 788 753
f 790 751 752
f 790 752 789
f 786 787 755
f 785 755 756
f 785 756 363
f 785 786 755
f 791 750 751
f 791 751 790
f 792 749 750
f 792 750 791
f 784 785 363
f 793 748 749
f 793 749 792
f 783 784 363
f 448 443 748
f 448 748 793
f 364 783 363
f 364 103 783
f 444 443 448
f 761 762 763
f 761 763 444
f 759 760 761
f 759 761 444
f 102 103 364
f 446 764 759
f 446 444 448
f 446 759 444
f 772 764 446
f 782 765 766
f 773 764 772
f 781 766 767
f 781 782 766
f 774 764 773
f 780 781 767
f 780 767 768
f 775 764 774
f 779 780 768
f 779 768 769
f 776 764 775
f 776 771 764
f 778 779 769
f 778 769 770
f 777 771 776
f 777 778 770
f 777 770 771
f 258 122 121
f 258 257 122
f 259 121 120
f 259 258 121
f 260 120 119
f 260 259 120
f 261 119 118
f 261 260 119
f 262 118 117
f 262 261 118
f 263 117 116
f 263 262 117
f 264 116 115
f 264 263 116
f 265 115 114
f 265 264 115
f 266 114 113
f 266 265 114
f 267 113 112
f 267 266 113
f 268 112 111
f 268 267 112
f 256 111 110
f 256 268 111
f 244 109 188
f 245 188 187
f 245 244 188
f 246 187 186
f 246 245 187
f 247 186 185
f 247 246 186
f 248 185 184
f 248 247 185
f 249 184 183
f 249 248 184
f 250 183 182
f 250 249 183
f 251 182 181
f 251 250 182
f 252 181 180
f 252 251 181
f 253 180 179
f 253 252 180
f 254 179 178
f 254 253 179
f 255 178 177
f 255 254 178
f 243 255 177
f 189 100 134
f 189 99 100
f 190 134 133
f 190 189 134
f 191 133 132
f 191 190 133
f 192 132 131
f 192 191 132
f 193 131 130
f 193 192 131
f 194 130 129
f 194 193 130
f 195 129 128
f 195 194 129
f 196 128 127
f 196 195 128
f 197 127 126
f 197 196 127
f 198 126 125
f 198 197 126
f 199 125 124
f 199 198 125
f 200 124 123
f 200 199 124
f 363 449 365
f 804 450 449
f 804 449 363
f 803 451 450
f 803 450 804
f 802 452 451
f 802 451 803
f 801 453 452
f 801 452 802
f 800 454 453
f 800 453 801
f 799 455 454
f 799 454 800
f 798 456 455
f 798 455 799
f 797 457 456
f 797 456 798
f 796 458 457
f 796 457 797
f 795 459 458
f 795 458 796
f 794 367 459
f 794 459 795
f 369 367 794
f 173 229 174
f 173 230 229
f 172 231 230
f 172 232 231
f 172 230 173
f 171 233 232
f 171 232 172
f 170 234 233
f 170 233 171
f 169 235 234
f 169 234 170
f 168 236 235
f 168 235 169
f 167 237 236
f 167 236 168
f 166 237 167
f 165 238 237
f 165 239 238
f 165 237 166
f 164 240 239
f 164 239 165
f 163 228 240
f 163 240 164
f 162 228 163
f 148 204 203
f 147 205 204
f 147 204 148
f 146 206 205
f 146 205 147
f 145 207 206
f 145 206 146
f 144 208 207
f 144 207 145
f 143 209 208
f 143 208 144
f 142 210 209
f 142 209 143
f 141 211 210
f 141 210 142
f 140 212 211
f 140 211 141
f 139 212 140
f 138 213 212
f 138 212 139
f 137 214 213
f 137 213 138
f 136 202 214
f 136 214 137
f 161 217 216
f 160 218 217
f 160 217 161
f 159 219 218
f 159 218 160
f 158 220 219
f 158 219 159
f 157 221 220
f 157 220 158
f 156 222 221
f 156 221 157
f 155 223 222
f 155 222 156
f 154 224 223
f 154 223 155
f 153 225 224
f 153 224 154
f 152 225 153
f 151 226 225
f 151 227 226
f 151 225 152
f 150 227 151
f 149 215 227
f 149 227 150
f 571 678 683
f 564 571 683
f 644 598 603
f 651 598 644
f 522 725 732
f 517 522 732
f 490 759 764
f 483 490 764
f 448 460 447
f 793 461 460
f 793 460 448
f 792 462 461
f 792 461 793
f 791 463 462
f 791 462 792
f 790 464 463
f 790 463 791
f 789 465 464
f 789 464 790
f 788 466 465
f 788 465 789
f 787 467 466
f 787 466 788
f 786 468 467
f 786 467 787
f 785 469 468
f 785 468 786
f 784 470 469
f 784 469 785
f 783 470 784
f 103 104 470
f 103 470 783
f 483 764 771
f 484 771 770
f 484 483 771
f 485 770 769
f 485 484 770
f 486 769 768
f 486 485 769
f 487 768 767
f 487 486 768
f 488 767 766
f 488 487 767
f 489 766 765
f 489 488 766
f 471 489 765
f 446 445 482
f 772 482 481
f 772 446 482
f 773 481 480
f 773 772 481
f 774 480 479
f 774 773 480
f 775 479 478
f 775 774 479
f 776 478 477
f 776 775 478
f 777 477 476
f 777 776 477
f 778 476 475
f 778 777 476
f 779 475 474
f 779 778 475
f 780 474 473
f 780 779 474
f 781 473 472
f 781 780 473
f 782 472 471
f 782 781 472
f 765 782 471
f 505 443 441
f 505 748 443
f 504 749 748
f 504 748 505
f 503 750 749
f 503 749 504
f 502 751 750
f 502 750 503
f 501 752 751
f 501 751 502
f 500 753 752
f 500 752 501
f 499 754 753
f 499 753 500
f 498 755 754
f 498 754 499
f 497 756 755
f 497 755 498
f 496 757 756
f 496 756 497
f 495 758 757
f 495 757 496
f 293 294 758
f 293 758 495
f 417 506 419
f 747 507 506
f 747 506 417
f 746 508 507
f 746 507 747
f 745 509 508
f 745 508 746
f 744 510 509
f 744 509 745
f 743 511 510
f 743 510 744
f 742 512 511
f 742 511 743
f 741 513 512
f 741 512 742
f 740 514 513
f 740 513 741
f 739 515 514
f 739 514 740
f 738 516 515
f 738 515 739
f 737 291 516
f 737 516 738
f 292 291 737
f 760 759 490
f 760 490 494
f 761 494 493
f 761 760 494
f 762 493 492
f 762 761 493
f 763 492 491
f 763 762 492
f 444 491 442
f 444 763 491
f 517 732 736
f 518 736 735
f 518 517 736
f 519 735 734
f 519 518 735
f 520 734 733
f 520 519 734
f 521 733 418
f 521 520 733
f 420 521 418
f 714 713 523
f 714 523 540
f 715 540 539
f 715 714 540
f 716 539 538
f 716 715 539
f 717 538 537
f 717 716 538
f 718 537 536
f 718 717 537
f 719 536 535
f 719 718 536
f 720 535 534
f 720 719 535
f 721 534 533
f 721 720 534
f 722 533 532
f 722 721 533
f 723 532 531
f 723 722 532
f 724 531 530
f 724 723 531
f 432 530 431
f 432 724 530
f 725 522 529
f 726 529 528
f 726 725 529
f 727 528 527
f 727 726 528
f 728 527 526
f 728 727 527
f 729 526 525
f 729 728 526
f 730 525 524
f 730 729 525
f 731 524 523
f 731 730 524
f 713 731 523
f 428 541 427
f 712 542 541
f 712 541 428
f 711 543 542
f 711 542 712
f 710 544 543
f 710 543 711
f 709 545 544
f 709 544 710
f 708 546 545
f 708 545 709
f 707 546 708
f 706 547 546
f 706 548 547
f 706 546 707
f 705 549 548
f 705 548 706
f 704 549 705
f 703 550 549
f 703 549 704
f 702 551 550
f 702 550 703
f 430 429 551
f 430 551 702
f 421 667 423
f 586 668 667
f 586 667 421
f 585 669 668
f 585 668 586
f 584 670 669
f 584 669 585
f 583 671 670
f 583 670 584
f 582 671 583
f 581 672 671
f 581 671 582
f 580 673 672
f 580 672 581
f 579 674 673
f 579 673 580
f 578 675 674
f 578 674 579
f 577 676 675
f 577 675 578
f 576 677 676
f 576 108 677
f 576 676 577
f 107 108 576
f 440 587 439
f 666 588 587
f 666 587 440
f 665 589 588
f 665 588 666
f 664 590 589
f 664 589 665
f 663 591 590
f 663 590 664
f 662 592 591
f 662 591 663
f 661 592 662
f 660 593 592
f 660 592 661
f 659 594 593
f 659 593 660
f 658 595 594
f 658 594 659
f 657 596 595
f 657 595 658
f 656 597 596
f 656 596 657
f 106 105 597
f 106 597 656
f 599 598 651
f 599 651 655
f 600 655 654
f 600 599 655
f 601 654 653
f 601 600 654
f 602 653 652
f 602 601 653
f 437 652 438
f 437 602 652
f 678 571 575
f 679 575 574
f 679 678 575
f 680 574 573
f 680 679 574
f 681 573 572
f 681 680 573
f 682 572 422
f 682 681 572
f 424 682 422
f 691 426 425
f 691 425 563
f 692 563 562
f 692 691 563
f 693 562 561
f 693 692 562
f 694 561 560
f 694 693 561
f 695 560 559
f 695 694 560
f 696 559 558
f 696 695 559
f 697 558 557
f 697 696 558
f 698 557 556
f 698 697 557
f 699 556 555
f 699 698 556
f 700 555 554
f 700 699 555
f 701 554 553
f 701 700 554
f 684 553 552
f 684 701 553
f 565 564 683
f 565 683 690
f 566 690 689
f 566 565 690
f 567 689 688
f 567 566 689
f 568 688 687
f 568 567 688
f 569 687 686
f 569 568 687
f 570 686 685
f 570 569 686
f 552 685 684
f 552 570 685
f 605 604 632
f 605 632 650
f 606 650 649
f 606 605 650
f 607 649 648
f 607 606 649
f 608 648 647
f 608 607 648
f 609 647 646
f 609 608 647
f 610 646 645
f 610 609 646
f 603 645 644
f 603 610 645
f 435 433 643
f 611 643 642
f 611 435 643
f 612 642 641
f 612 611 642
f 613 641 640
f 613 612 641
f 614 640 639
f 614 613 640
f 615 639 638
f 615 614 639
f 616 638 637
f 616 615 638
f 617 637 636
f 617 616 637
f 618 636 635
f 618 617 636
f 619 635 634
f 619 618 635
f 620 634 633
f 620 619 634
f 621 633 632
f 621 620 633
f 604 621 632
f 436 806 434
f 631 807 806
f 631 806 436
f 630 808 807
f 630 807 631
f 629 809 808
f 629 808 630
f 628 810 809
f 628 809 629
f 627 811 810
f 627 810 628
f 626 812 811
f 626 811 627
f 625 813 812
f 625 812 626
f 624 814 813
f 624 813 625
f 623 805 814
f 623 814 624
f 622 307 805
f 622 805 623
f 296 307 622
f 381 308 382
f 381 309 308
f 380 310 309
f 380 309 381
f 379 311 310
f 379 310 380
f 378 312 311
f 378 311 379
f 377 313 312
f 377 312 378
f 376 314 313
f 376 313 377
f 375 315 314
f 375 314 376
f 374 316 315
f 374 315 375
f 373 317 316
f 373 316 374
f 372 318 317
f 372 317 373
f 371 307 318
f 371 318 372
f 370 805 307
f 370 307 371
f 368 296 622
f 394 297 296
f 394 296 368
f 393 298 297
f 393 297 394
f 392 299 298
f 392 298 393
f 391 300 299
f 391 299 392
f 390 301 300
f 390 300 391
f 389 302 301
f 389 301 390
f 388 303 302
f 388 302 389
f 387 304 303
f 387 303 388
f 386 305 304
f 386 304 387
f 385 306 305
f 385 305 386
f 384 295 306
f 384 306 385
f 383 295 384

