# https://github.com/mikedh/trimesh
v 50.81458683 12.94881152 -28.00000000
v 48.59211539 38.35177633 -28.00000000
v 50.98889831 10.95642213 -26.00000000
v 50.98740705 10.97346730 -26.26105238
v 50.98295879 11.02431115 -26.51763809
v 50.97562964 11.10808374 -26.76536686
v 50.96554500 11.22335169 -27.00000000
v 50.95287742 11.36814274 -27.21752286
v 50.93784366 11.53997947 -27.41421356
v 50.92070093 11.73592171 -27.58670668
v 50.90174257 11.95261683 -27.73205081
v 50.88129294 12.18635711 -27.84775907
v 50.85970196 12.43314320 -27.93185165
v 50.83733904 12.68875252 -27.98288972
v 50.98889831 10.95642213 -4.75000000
v 51.03247618 10.45832478 -4.25000000
v 51.02678813 10.52333953 -4.25427757
v 51.02119740 10.58724186 -4.26703709
v 51.01579965 10.64893838 -4.28806023
v 51.01068725 10.70737345 -4.31698730
v 51.00594766 10.76154723 -4.35332333
v 51.00166197 10.81053279 -4.39644661
v 50.99790353 10.85349198 -4.44561929
v 50.99473664 10.88968974 -4.50000000
v 50.99221548 10.91850673 -4.55865828
v 50.99038319 10.93944987 -4.62059048
v 50.98927113 10.95216084 -4.68473690
v 51.25036554 7.96783803 -4.25000000
v 51.42467702 5.97544864 -2.25000000
v 51.42318577 5.99249381 -2.51105238
v 51.41873750 6.04333766 -2.76763809
v 51.41140835 6.12711025 -3.01536686
v 51.40132371 6.24237820 -3.25000000
v 51.38865614 6.38716925 -3.46752286
v 51.37362237 6.55900598 -3.66421356
v 51.35647965 6.75494822 -3.83670668
v 51.33752128 6.97164334 -3.98205081
v 51.31707166 7.20538362 -4.09775907
v 51.29548067 7.45216971 -4.18185165
v 51.27311775 7.70777903 -4.23288972
v 51.42467702 5.97544864 8.25000000
v 51.25036554 7.96783803 10.25000000
v 51.27311775 7.70777903 10.23288972
v 51.29548067 7.45216971 10.18185165
v 51.31707166 7.20538362 10.09775907
v 51.33752128 6.97164334 9.98205081
v 51.35647965 6.75494822 9.83670668
v 51.37362237 6.55900598 9.66421356
v 51.38865614 6.38716925 9.46752286
v 51.40132371 6.24237820 9.25000000
v 51.41140835 6.12711025 9.01536686
v 51.41873750 6.04333766 8.76763809
v 51.42318577 5.99249381 8.51105238
v 51.03247618 10.45832478 10.25000000
v 50.98889831 10.95642213 10.75000000
v 50.98927113 10.95216084 10.68473690
v 50.99038319 10.93944987 10.62059048
v 50.99221548 10.91850673 10.55865828
v 50.99473664 10.88968974 10.50000000
v 50.99790353 10.85349198 10.44561929
v 51.00166197 10.81053279 10.39644661
v 51.00594766 10.76154723 10.35332333
v 51.01068725 10.70737345 10.31698730
v 51.01579965 10.64893838 10.28806023
v 51.02119740 10.58724186 10.26703709
v 51.02678813 10.52333953 10.25427757
v 50.98889831 10.95642213 26.00000000
v 50.81458683 12.94881152 28.00000000
v 50.83733904 12.68875252 27.98288972
v 50.85970196 12.43314320 27.93185165
v 50.88129294 12.18635711 27.84775907
v 50.90174257 11.95261683 27.73205081
v 50.92070093 11.73592171 27.58670668
v 50.93784366 11.53997947 27.41421356
v 50.95287742 11.36814274 27.21752286
v 50.96554500 11.22335169 27.00000000
v 50.97562964 11.10808374 26.76536686
v 50.98295879 11.02431115 26.51763809
v 50.98740705 10.97346730 26.26105238
v 48.59211539 38.35177633 28.00000000
v 48.41780390 40.34416572 26.00000000
v 48.41929516 40.32712055 26.26105238
v 48.42374342 40.27627670 26.51763809
v 48.43107257 40.19250411 26.76536686
v 48.44115721 40.07723616 27.00000000
v 48.45382479 39.93244511 27.21752286
v 48.46885855 39.76060838 27.41421356
v 48.48600128 39.56466614 27.58670668
v 48.50495964 39.34797102 27.73205081
v 48.52540927 39.11423074 27.84775907
v 48.54700025 38.86744465 27.93185165
v 48.56936317 38.61183533 27.98288972
v 48.41780390 40.34416572 23.50000000
v 48.37422603 40.84226307 23.00000000
v 48.37991408 40.77724832 23.00427757
v 48.38550481 40.71334599 23.01703709
v 48.39090256 40.65164947 23.03806023
v 48.39601496 40.59321440 23.06698730
v 48.40075456 40.53904062 23.10332333
v 48.40504024 40.49005506 23.14644661
v 48.40879868 40.44709588 23.19561929
v 48.41196557 40.41089811 23.25000000
v 48.41448673 40.38208113 23.30865828
v 48.41631902 40.36113798 23.37059048
v 48.41743109 40.34842701 23.43473690
v 47.15404563 54.78898884 23.00000000
v 46.97973414 56.78137824 21.00000000
v 46.98122540 56.76433307 21.26105238
v 46.98567366 56.71348922 21.51763809
v 46.99300282 56.62971663 21.76536686
v 47.00308746 56.51444868 22.00000000
v 47.01575503 56.36965763 22.21752286
v 47.03078880 56.19782090 22.41421356
v 47.04793152 56.00187866 22.58670668
v 47.06688989 55.78518354 22.73205081
v 47.08733951 55.55144326 22.84775907
v 47.10893050 55.30465717 22.93185165
v 47.13129342 55.04904785 22.98288972
v 46.97973414 56.78137824 -21.00000000
v 47.15404563 54.78898884 -23.00000000
v 47.13129342 55.04904785 -22.98288972
v 47.10893050 55.30465717 -22.93185165
v 47.08733951 55.55144326 -22.84775907
v 47.06688989 55.78518354 -22.73205081
v 47.04793152 56.00187866 -22.58670668
v 47.03078880 56.19782090 -22.41421356
v 47.01575503 56.36965763 -22.21752286
v 47.00308746 56.51444868 -22.00000000
v 46.99300282 56.62971663 -21.76536686
v 46.98567366 56.71348922 -21.51763809
v 46.98122540 56.76433307 -21.26105238
v 48.37422603 40.84226307 -23.00000000
v 48.41780390 40.34416572 -23.50000000
v 48.41743109 40.34842701 -23.43473690
v 48.41631902 40.36113798 -23.37059048
v 48.41448673 40.38208113 -23.30865828
v 48.41196557 40.41089811 -23.25000000
v 48.40879868 40.44709588 -23.19561929
v 48.40504024 40.49005506 -23.14644661
v 48.40075456 40.53904062 -23.10332333
v 48.39601496 40.59321440 -23.06698730
v 48.39090256 40.65164947 -23.03806023
v 48.38550481 40.71334599 -23.01703709
v 48.37991408 40.77724832 -23.00427757
v 48.41780390 40.34416572 -26.00000000
v 48.56936317 38.61183533 -27.98288972
v 48.54700025 38.86744465 -27.93185165
v 48.52540927 39.11423074 -27.84775907
v 48.50495964 39.34797102 -27.73205081
v 48.48600128 39.56466614 -27.58670668
v 48.46885855 39.76060838 -27.41421356
v 48.45382479 39.93244511 -27.21752286
v 48.44115721 40.07723616 -27.00000000
v 48.43107257 40.19250411 -26.76536686
v 48.42374342 40.27627670 -26.51763809
v 48.41929516 40.32712055 -26.26105238
v 47.54980712 50.26541435 13.89562465
v 47.49986168 50.83629328 13.82887458
v 47.49986168 50.83629328 14.98461277
v 47.42942781 51.64135607 14.28072137
v 47.41307420 51.82827870 14.15188428
v 47.37896389 52.21816142 13.96016991
v 47.36852434 52.33748594 13.92315032
v 47.35751236 52.46335344 13.90208303
v 47.33723827 52.69508734 13.89562944
v 47.31764680 52.91901890 13.90536225
v 47.30733629 53.03686862 13.92873997
v 47.29885916 53.13376265 13.96515860
v 47.29141400 53.21886114 14.01473925
v 47.28219525 53.32423198 14.10151561
v 47.26742974 53.49300251 14.27000364
v 47.26150186 53.56075851 14.36492960
v 47.25799839 53.60080334 14.45205646
v 47.25570402 53.62702811 14.54927243
v 47.25449580 53.64083810 14.67631307
v 47.25467257 53.63881762 15.02658537
v 47.25593603 53.62437629 15.13810451
v 47.25862989 53.59358532 15.24516017
v 47.26118688 53.56435881 15.30968383
v 47.26673440 53.50095036 15.40630892
v 47.28489984 53.29331837 15.62567432
v 47.29272841 53.20383738 15.69591932
v 47.29750155 53.14928015 15.73016118
v 47.30217874 53.09581969 15.75765763
v 47.31223154 52.98091558 15.80061796
v 47.32455473 52.84006096 15.83577690
v 47.34128620 52.64881935 15.86810393
v 47.34794220 52.57274088 15.27580632
v 47.32987485 52.77925169 15.23149470
v 47.32463273 52.83916933 15.20937632
v 47.31975655 52.89490441 15.17977166
v 47.31079275 52.99736111 15.10013335
v 47.30561767 53.05651246 15.02180161
v 47.30382611 53.07699008 14.90032898
v 47.30411515 53.07368634 14.78550952
v 47.30569917 53.05558099 14.72164817
v 47.31217553 52.98155580 14.63824260
v 47.31895461 52.90407055 14.58363602
v 47.32575651 52.82632446 14.54971376
v 47.33298438 52.74370961 14.53479408
v 47.35799538 52.45783249 14.53508111
v 47.36789384 52.34469261 14.55430267
v 47.37721919 52.23810340 14.59100050
v 47.39745430 52.00681505 14.71085006
v 47.41406377 51.81696791 14.84160199
v 47.45032940 51.40244981 15.20101172
v 47.50735604 50.75063240 15.82496414
v 47.54980712 50.26541435 15.82496414
v 49.09633097 32.58856585 15.85144665
v 49.09633097 32.58856585 12.32888563
v 49.71035218 25.57027128 12.32888563
v 49.71035218 25.57027128 5.28381870
v 50.01736232 22.06112926 5.28381870
v 50.01736232 22.06112926 -1.76124822
v 50.01736232 22.06112926 -5.28381555
v 49.71035218 25.57027128 -5.28385448
v 49.71035218 25.57027128 -12.32892140
v 49.09633097 32.58856585 -12.32892140
v 49.09633097 32.58856585 -15.85145487
v 48.48231293 39.60682417 -15.85145487
v 48.17530391 43.11595333 -15.85145487
v 48.17530391 43.11595333 -12.32889714
v 47.56128269 50.13424791 -12.32892140
v 47.56128269 50.13424791 -5.28385448
v 47.25427367 53.64337706 -5.28385448
v 47.25427367 53.64337706 1.76128524
v 47.25427367 53.64337706 5.28381870
v 47.56128269 50.13424791 5.28381870
v 47.56128269 50.13424791 12.32888563
v 48.17530391 43.11595333 12.32888563
v 48.17530391 43.11595333 15.85144665
v 48.48231293 39.60682417 15.85144665
v 48.78932322 36.09768051 15.85144665
v 48.78932195 36.09769501 12.32888563
v 48.48231293 39.60682417 12.32888563
v 49.71035218 25.57027128 -1.76124822
v 48.48231293 39.60682417 -12.32888501
v 47.56128269 50.13424791 1.76128524
v 47.86829171 46.62511875 -8.80635154
v 47.86829171 46.62511875 8.80635216
v 49.40334316 29.07940044 8.80635216
v 49.40334316 29.07940044 -8.80635154
v 48.78932195 36.09769501 -5.28381808
v 48.17530391 43.11595333 -5.28381808
v 48.17530391 43.11595333 -1.76124822
v 48.78932195 36.09769501 -1.76124822
v 48.48231293 39.60682417 1.76128524
v 48.48231293 39.60682417 5.28381870
v 48.78932195 36.09769501 5.28381870
v 48.78932195 36.09769501 1.76128524
v 48.09401804 38.30819845 -28.00000000
v 48.07126582 38.56825746 -27.98288972
v 48.04890290 38.82386678 -27.93185165
v 48.02731192 39.07065287 -27.84775907
v 48.00686229 39.30439315 -27.73205081
v 47.98790393 39.52108827 -27.58670668
v 47.97076120 39.71703051 -27.41421356
v 47.95572744 39.88886724 -27.21752286
v 47.94305986 40.03365829 -27.00000000
v 47.93297522 40.14892624 -26.76536686
v 47.92564607 40.23269883 -26.51763809
v 47.92119781 40.28354268 -26.26105238
v 47.91970655 40.30058785 -26.00000000
v 47.91970655 40.30058785 -23.50000000
v 47.87612868 40.79868520 -23.00000000
v 47.91933374 40.30484914 -23.43473690
v 47.91822167 40.31756011 -23.37059048
v 47.91638938 40.33850325 -23.30865828
v 47.91386822 40.36732024 -23.25000000
v 47.91070133 40.40351800 -23.19561929
v 47.90694289 40.44647719 -23.14644661
v 47.90265721 40.49546275 -23.10332333
v 47.89791762 40.54963653 -23.06698730
v 47.89280521 40.60807160 -23.03806023
v 47.88740746 40.66976812 -23.01703709
v 47.88181673 40.73367045 -23.00427757
v 46.65594828 54.74541097 -23.00000000
v 46.63319607 55.00546997 -22.98288972
v 46.61083315 55.26107929 -22.93185165
v 46.58924216 55.50786539 -22.84775907
v 46.56879254 55.74160567 -22.73205081
v 46.54983417 55.95830079 -22.58670668
v 46.53269145 56.15424303 -22.41421356
v 46.51765768 56.32607976 -22.21752286
v 46.50499011 56.47087080 -22.00000000
v 46.49490547 56.58613876 -21.76536686
v 46.48757632 56.66991135 -21.51763809
v 46.48312805 56.72075520 -21.26105238
v 46.48163680 56.73780037 -21.00000000
v 46.48163680 56.73780037 21.00000000
v 46.48312805 56.72075520 21.26105238
v 46.48757632 56.66991135 21.51763809
v 46.49490547 56.58613876 21.76536686
v 46.50499011 56.47087080 22.00000000
v 46.51765768 56.32607976 22.21752286
v 46.53269145 56.15424303 22.41421356
v 46.54983417 55.95830079 22.58670668
v 46.56879254 55.74160567 22.73205081
v 46.58924216 55.50786539 22.84775907
v 46.61083315 55.26107929 22.93185165
v 46.63319607 55.00546997 22.98288972
v 46.65594828 54.74541097 23.00000000
v 47.87612868 40.79868520 23.00000000
v 47.91970655 40.30058785 23.50000000
v 47.88181673 40.73367045 23.00427757
v 47.88740746 40.66976812 23.01703709
v 47.89280521 40.60807160 23.03806023
v 47.89791762 40.54963653 23.06698730
v 47.90265721 40.49546275 23.10332333
v 47.90694289 40.44647719 23.14644661
v 47.91070133 40.40351800 23.19561929
v 47.91386822 40.36732024 23.25000000
v 47.91638938 40.33850325 23.30865828
v 47.91822167 40.31756011 23.37059048
v 47.91933374 40.30484914 23.43473690
v 47.91970655 40.30058785 26.00000000
v 47.92119781 40.28354268 26.26105238
v 47.92564607 40.23269883 26.51763809
v 47.93297522 40.14892624 26.76536686
v 47.94305986 40.03365829 27.00000000
v 47.95572744 39.88886724 27.21752286
v 47.97076120 39.71703051 27.41421356
v 47.98790393 39.52108827 27.58670668
v 48.00686229 39.30439315 27.73205081
v 48.02731192 39.07065287 27.84775907
v 48.04890290 38.82386678 27.93185165
v 48.07126582 38.56825746 27.98288972
v 48.09401804 38.30819845 28.00000000
v 50.31648948 12.90523365 28.00000000
v 50.33924169 12.64517465 27.98288972
v 50.36160461 12.38956533 27.93185165
v 50.38319559 12.14277924 27.84775907
v 50.40364522 11.90903896 27.73205081
v 50.42260359 11.69234384 27.58670668
v 50.43974631 11.49640160 27.41421356
v 50.45478008 11.32456487 27.21752286
v 50.46744765 11.17977382 27.00000000
v 50.47753229 11.06450587 26.76536686
v 50.48486144 10.98073328 26.51763809
v 50.48930970 10.92988942 26.26105238
v 50.49080096 10.91284426 26.00000000
v 50.49080096 10.91284426 10.75000000
v 50.53437883 10.41474691 10.25000000
v 50.49117378 10.90858297 10.68473690
v 50.49228584 10.89587200 10.62059048
v 50.49411813 10.87492885 10.55865828
v 50.49663929 10.84611187 10.50000000
v 50.49980618 10.80991410 10.44561929
v 50.50356462 10.76695492 10.39644661
v 50.50785031 10.71796936 10.35332333
v 50.51258990 10.66379558 10.31698730
v 50.51770230 10.60536051 10.28806023
v 50.52310005 10.54366399 10.26703709
v 50.52869078 10.47976166 10.25427757
v 50.75226819 7.92426016 10.25000000
v 50.77502040 7.66420116 10.23288972
v 50.79738332 7.40859184 10.18185165
v 50.81897431 7.16180575 10.09775907
v 50.83942393 6.92806546 9.98205081
v 50.85838230 6.71137035 9.83670668
v 50.87552502 6.51542811 9.66421356
v 50.89055879 6.34359138 9.46752286
v 50.90322636 6.19880033 9.25000000
v 50.91331100 6.08353238 9.01536686
v 50.92064016 5.99975979 8.76763809
v 50.92508842 5.94891593 8.51105238
v 50.92657968 5.93187077 8.25000000
v 50.92657968 5.93187077 -2.25000000
v 50.92508842 5.94891593 -2.51105238
v 50.92064016 5.99975979 -2.76763809
v 50.91331100 6.08353238 -3.01536686
v 50.90322636 6.19880033 -3.25000000
v 50.89055879 6.34359138 -3.46752286
v 50.87552502 6.51542811 -3.66421356
v 50.85838230 6.71137035 -3.83670668
v 50.83942393 6.92806546 -3.98205081
v 50.81897431 7.16180575 -4.09775907
v 50.79738332 7.40859184 -4.18185165
v 50.77502040 7.66420116 -4.23288972
v 50.75226819 7.92426016 -4.25000000
v 50.53437883 10.41474691 -4.25000000
v 50.49080096 10.91284426 -4.75000000
v 50.52869078 10.47976166 -4.25427757
v 50.52310005 10.54366399 -4.26703709
v 50.51770230 10.60536051 -4.28806023
v 50.51258990 10.66379558 -4.31698730
v 50.50785031 10.71796936 -4.35332333
v 50.50356462 10.76695492 -4.39644661
v 50.49980618 10.80991410 -4.44561929
v 50.49663929 10.84611187 -4.50000000
v 50.49411813 10.87492885 -4.55865828
v 50.49228584 10.89587200 -4.62059048
v 50.49117378 10.90858297 -4.68473690
v 50.49080096 10.91284426 -26.00000000
v 50.48930970 10.92988942 -26.26105238
v 50.48486144 10.98073328 -26.51763809
v 50.47753229 11.06450587 -26.76536686
v 50.46744765 11.17977382 -27.00000000
v 50.45478008 11.32456487 -27.21752286
v 50.43974631 11.49640160 -27.41421356
v 50.42260359 11.69234384 -27.58670668
v 50.40364522 11.90903896 -27.73205081
v 50.38319559 12.14277924 -27.84775907
v 50.36160461 12.38956533 -27.93185165
v 50.33924169 12.64517465 -27.98288972
v 50.31648948 12.90523365 -28.00000000
v 48.53212266 39.61118196 5.28381870
v 48.83913168 36.10205280 5.28381870
v 48.53212266 39.61118196 1.76128524
v 48.83913168 36.10205280 1.76128524
v 48.22511364 43.12031112 -5.28381808
v 48.22511364 43.12031112 -1.76124822
v 48.83913168 36.10205280 -5.28381808
v 48.83913168 36.10205280 -1.76124822
v 49.76016191 25.57462906 -5.28385448
v 49.76016191 25.57462906 -12.32892140
v 50.06717206 22.06548705 -5.28381555
v 50.06717206 22.06548705 -1.76124822
v 49.76016191 25.57462906 -1.76124822
v 49.76016191 25.57462906 12.32888563
v 48.83913168 36.10205280 12.32888563
v 48.83913295 36.10203830 15.85144665
v 48.53212266 39.61118196 15.85144665
v 48.53212266 39.61118196 12.32888563
v 47.61109243 50.13860569 12.32888563
v 47.61109243 50.13860569 1.76128524
v 47.30408341 53.64773485 1.76128524
v 47.30408341 53.64773485 -5.28385448
v 47.61109243 50.13860569 -5.28385448
v 47.61109243 50.13860569 -12.32892140
v 48.53212266 39.61118196 -12.32888501
v 48.53212266 39.61118196 -15.85145487
v 49.14614070 32.59292364 -15.85145487
v 49.14614070 32.59292364 -12.32892140
v 47.91810145 46.62947653 -8.80635154
v 47.91810145 46.62947653 8.80635216
v 49.45315289 29.08375822 8.80635216
v 49.45315289 29.08375822 -8.80635154
v 47.39775194 52.57709866 15.27580632
v 47.37968458 52.78360947 15.23149470
v 47.37444247 52.84352711 15.20937632
v 47.36956628 52.89926220 15.17977166
v 47.36060248 53.00171889 15.10013335
v 47.35542741 53.06087024 15.02180161
v 47.35363585 53.08134787 14.90032898
v 47.35392489 53.07804413 14.78550952
v 47.35550890 53.05993878 14.72164817
v 47.36198527 52.98591359 14.63824260
v 47.36876435 52.90842833 14.58363602
v 47.37556625 52.83068224 14.54971376
v 47.38279411 52.74806740 14.53479408
v 47.40780512 52.46219028 14.53508111
v 47.41770358 52.34905040 14.55430267
v 47.42702892 52.24246118 14.59100050
v 47.44726403 52.01117284 14.71085006
v 47.46387350 51.82132570 14.84160199
v 47.50013914 51.40680760 15.20101172
v 47.55716577 50.75499019 15.82496414
v 47.39109593 52.65317714 15.86810393
v 47.54967142 50.84065107 14.98461277
v 47.47923755 51.64571386 14.28072137
v 47.46288394 51.83263649 14.15188428
v 47.42877362 52.22251920 13.96016991
v 47.41833408 52.34184372 13.92315032
v 47.40732210 52.46771123 13.90208303
v 47.38704801 52.69944513 13.89562944
v 47.36745654 52.92337669 13.90536225
v 47.35714602 53.04122641 13.92873997
v 47.34866889 53.13812044 13.96515860
v 47.34122374 53.22321893 14.01473925
v 47.33200499 53.32858976 14.10151561
v 47.31723948 53.49736029 14.27000364
v 47.31131160 53.56511630 14.36492960
v 47.30780813 53.60516113 14.45205646
v 47.30551376 53.63138590 14.54927243
v 47.30430554 53.64519589 14.67631307
v 47.30448231 53.64317540 15.02658537
v 47.30574576 53.62873408 15.13810451
v 47.30843962 53.59794311 15.24516017
v 47.31099661 53.56871660 15.30968383
v 47.31654413 53.50530815 15.40630892
v 47.33470958 53.29767616 15.62567432
v 47.34253815 53.20819517 15.69591932
v 47.34731129 53.15363794 15.73016118
v 47.35198847 53.10017748 15.75765763
v 47.36204128 52.98527336 15.80061796
v 47.37436446 52.84441875 15.83577690
v 47.54967142 50.84065107 13.82887458
v 47.59961685 50.26977214 13.89562465
v 47.59961685 50.26977214 15.82496414
v 48.22511364 43.12031112 15.85144665
v 48.22511364 43.12031112 12.32888563
v 49.14614070 32.59292364 12.32888563
v 49.14614070 32.59292364 15.85144665
v 50.06717206 22.06548705 5.28381870
v 49.76016191 25.57462906 5.28381870
v 48.22511364 43.12031112 -12.32889714
v 48.22511364 43.12031112 -15.85145487
v 47.61109243 50.13860569 5.28381870
v 47.30408341 53.64773485 5.28381870
f 123 124 125
f 122 125 126
f 122 126 127
f 122 127 128
f 122 123 125
f 131 128 129
f 131 129 130
f 131 122 128
f 120 121 122
f 120 122 131
f 119 120 131
f 153 151 152
f 148 149 150
f 148 150 151
f 148 151 153
f 2 146 147
f 2 147 148
f 145 153 154
f 145 154 155
f 145 155 156
f 145 148 153
f 145 2 148
f 133 2 145
f 223 120 119
f 225 223 119
f 221 132 120
f 221 120 223
f 224 223 225
f 220 132 221
f 220 138 139
f 220 139 140
f 220 140 141
f 220 141 142
f 220 142 143
f 220 143 144
f 220 144 132
f 222 221 223
f 226 225 119
f 219 133 134
f 219 134 135
f 219 135 136
f 219 136 137
f 219 137 138
f 219 2 133
f 219 138 220
f 1 2 219
f 13 14 1
f 12 13 1
f 170 227 171
f 169 227 170
f 172 171 227
f 168 227 169
f 10 11 12
f 173 172 227
f 167 227 168
f 174 173 227
f 166 227 167
f 8 9 10
f 195 197 196
f 194 197 195
f 194 198 197
f 7 10 12
f 7 8 10
f 7 12 1
f 192 194 193
f 217 219 218
f 217 1 219
f 229 228 227
f 229 227 166
f 229 163 162
f 229 164 163
f 229 165 164
f 229 166 165
f 191 198 194
f 191 194 192
f 191 199 198
f 191 200 199
f 190 200 191
f 189 200 190
f 189 201 200
f 188 203 202
f 188 201 189
f 188 202 201
f 204 203 188
f 4 5 6
f 4 6 7
f 158 161 160
f 158 162 161
f 158 229 162
f 205 204 188
f 3 4 7
f 3 1 217
f 3 7 1
f 157 229 158
f 206 205 188
f 206 188 187
f 159 158 160
f 107 227 226
f 107 226 119
f 107 174 227
f 107 175 174
f 107 176 175
f 107 177 176
f 107 178 177
f 107 179 178
f 107 180 179
f 107 181 180
f 107 182 181
f 107 183 182
f 107 184 183
f 107 185 184
f 107 186 185
f 107 187 186
f 109 107 108
f 207 206 187
f 110 107 109
f 111 107 110
f 112 107 111
f 113 107 112
f 116 113 114
f 116 114 115
f 106 208 207
f 106 116 117
f 106 117 118
f 106 187 107
f 106 207 187
f 106 107 113
f 106 113 116
f 230 229 157
f 215 217 216
f 231 157 208
f 231 230 157
f 94 232 231
f 94 208 106
f 94 231 208
f 95 232 94
f 96 232 95
f 97 232 96
f 98 232 97
f 99 232 98
f 99 233 232
f 100 233 99
f 101 233 100
f 102 233 101
f 103 233 102
f 104 233 103
f 209 104 105
f 209 105 93
f 209 233 104
f 15 217 215
f 15 3 217
f 27 15 215
f 26 215 214
f 26 27 215
f 25 26 214
f 24 25 214
f 23 24 214
f 22 23 214
f 21 214 213
f 21 22 214
f 20 21 213
f 211 210 209
f 211 213 212
f 85 83 84
f 87 83 85
f 87 85 86
f 88 83 87
f 89 83 88
f 39 40 28
f 37 38 39
f 92 90 91
f 80 90 92
f 80 209 93
f 80 81 82
f 80 82 83
f 80 89 90
f 80 83 89
f 80 93 81
f 33 34 35
f 33 35 36
f 33 36 37
f 32 39 28
f 32 33 37
f 32 37 39
f 29 32 28
f 29 16 17
f 29 28 16
f 29 30 31
f 29 31 32
f 62 213 61
f 60 61 213
f 63 19 20
f 63 20 213
f 63 213 62
f 59 60 213
f 58 59 213
f 64 19 63
f 57 58 213
f 65 18 19
f 65 19 64
f 56 57 213
f 66 29 17
f 66 17 18
f 66 18 65
f 55 56 213
f 55 213 211
f 41 29 66
f 41 54 42
f 41 66 54
f 43 41 42
f 43 53 41
f 52 53 43
f 50 51 52
f 46 44 45
f 47 43 44
f 47 44 46
f 48 49 50
f 48 43 47
f 48 52 43
f 48 50 52
f 68 211 209
f 68 209 80
f 67 55 211
f 67 211 68
f 79 67 68
f 76 77 78
f 72 70 71
f 75 78 79
f 75 76 78
f 74 68 69
f 74 69 70
f 74 72 73
f 74 79 68
f 74 75 79
f 74 70 72
f 233 210 234
f 209 210 233
f 231 235 230
f 232 235 231
f 213 214 236
f 213 236 212
f 222 220 221
f 237 220 222
f 228 226 227
f 228 238 226
f 239 223 224
f 222 223 239
f 237 222 239
f 238 225 226
f 238 224 225
f 238 239 224
f 218 220 237
f 218 219 220
f 240 228 229
f 240 238 228
f 242 217 218
f 242 218 237
f 216 217 242
f 230 240 229
f 235 240 230
f 236 215 216
f 236 216 242
f 232 234 235
f 214 215 236
f 241 234 210
f 212 236 241
f 233 234 232
f 211 241 210
f 211 212 241
f 239 238 240
f 240 234 241
f 240 235 234
f 241 236 242
f 242 237 239
f 245 244 239
f 243 239 244
f 240 245 239
f 242 239 243
f 246 242 243
f 246 245 247
f 248 245 240
f 248 247 245
f 250 246 247
f 241 250 249
f 241 242 246
f 241 246 250
f 241 249 240
f 249 248 240
f 250 247 248
f 249 250 248
f 197 170 171
f 196 171 172
f 196 172 173
f 196 173 174
f 196 174 175
f 196 197 171
f 198 168 169
f 198 169 170
f 198 170 197
f 195 196 175
f 199 166 167
f 199 167 168
f 199 168 198
f 200 165 166
f 200 166 199
f 194 175 176
f 194 195 175
f 193 176 177
f 193 177 178
f 193 178 179
f 193 179 180
f 193 194 176
f 201 162 163
f 201 163 164
f 201 164 165
f 201 165 200
f 192 193 180
f 202 162 201
f 181 191 192
f 181 192 180
f 203 162 202
f 203 161 162
f 182 191 181
f 183 190 191
f 183 191 182
f 184 190 183
f 204 160 161
f 204 161 203
f 185 189 190
f 185 190 184
f 186 188 189
f 186 189 185
f 205 160 204
f 187 188 186
f 206 160 205
f 159 160 206
f 159 157 158
f 207 159 206
f 208 157 159
f 208 159 207
f 262 263 145
f 262 156 155
f 262 145 156
f 261 155 154
f 261 262 155
f 260 154 153
f 260 261 154
f 259 153 152
f 259 260 153
f 258 152 151
f 258 259 152
f 257 151 150
f 257 258 151
f 256 150 149
f 256 257 150
f 255 149 148
f 255 256 149
f 254 148 147
f 254 255 148
f 253 147 146
f 253 254 147
f 252 146 2
f 252 253 146
f 251 252 2
f 133 145 263
f 133 263 264
f 266 133 264
f 266 134 133
f 267 135 134
f 267 134 266
f 268 136 135
f 268 135 267
f 269 137 136
f 269 136 268
f 270 138 137
f 270 137 269
f 271 139 138
f 271 138 270
f 272 140 139
f 272 139 271
f 273 141 140
f 273 140 272
f 274 142 141
f 274 141 273
f 275 143 142
f 275 144 143
f 275 142 274
f 276 144 275
f 265 132 144
f 265 144 276
f 277 132 265
f 120 132 277
f 289 119 131
f 288 289 131
f 287 131 130
f 287 288 131
f 286 130 129
f 286 287 130
f 285 129 128
f 285 286 129
f 284 128 127
f 284 285 128
f 283 127 126
f 283 284 127
f 282 126 125
f 282 283 126
f 281 125 124
f 281 282 125
f 280 124 123
f 280 281 124
f 279 123 122
f 279 280 123
f 278 122 121
f 278 279 122
f 277 121 120
f 277 278 121
f 107 119 289
f 107 289 290
f 302 106 118
f 301 302 118
f 300 118 117
f 300 301 118
f 299 117 116
f 299 300 117
f 298 116 115
f 298 299 116
f 297 115 114
f 297 298 115
f 296 114 113
f 296 297 114
f 295 113 112
f 295 296 113
f 294 112 111
f 294 295 112
f 293 111 110
f 293 294 111
f 292 110 109
f 292 293 110
f 291 108 107
f 291 109 108
f 291 292 109
f 290 291 107
f 302 94 106
f 302 303 94
f 303 95 94
f 305 96 95
f 305 95 303
f 306 97 96
f 306 96 305
f 307 98 97
f 307 97 306
f 308 99 98
f 308 98 307
f 309 100 99
f 309 99 308
f 310 101 100
f 310 100 309
f 311 102 101
f 311 101 310
f 312 103 102
f 312 102 311
f 313 104 103
f 313 103 312
f 314 105 104
f 314 104 313
f 315 93 105
f 315 105 314
f 304 93 315
f 81 93 304
f 81 304 316
f 327 328 80
f 327 80 92
f 326 92 91
f 326 327 92
f 325 91 90
f 325 326 91
f 324 90 89
f 324 325 90
f 323 89 88
f 323 324 89
f 322 88 87
f 322 323 88
f 321 87 86
f 321 322 87
f 320 86 85
f 320 321 86
f 319 85 84
f 319 320 85
f 318 84 83
f 318 319 84
f 317 82 81
f 317 83 82
f 317 318 83
f 316 317 81
f 328 68 80
f 328 329 68
f 341 67 79
f 340 79 78
f 340 341 79
f 339 78 77
f 339 340 78
f 338 339 77
f 337 77 76
f 337 338 77
f 336 75 74
f 336 76 75
f 336 337 76
f 335 74 73
f 335 336 74
f 334 335 73
f 333 72 71
f 333 73 72
f 333 334 73
f 332 333 71
f 331 70 69
f 331 71 70
f 331 332 71
f 330 69 68
f 330 331 69
f 329 330 68
f 67 342 55
f 341 342 67
f 344 55 342
f 344 56 55
f 345 57 56
f 345 56 344
f 346 58 57
f 346 57 345
f 347 59 58
f 347 58 346
f 348 60 59
f 348 59 347
f 349 61 60
f 349 60 348
f 350 62 61
f 350 61 349
f 351 63 62
f 351 62 350
f 352 64 63
f 352 63 351
f 353 65 64
f 353 64 352
f 354 66 65
f 354 65 353
f 343 54 66
f 343 66 354
f 54 355 42
f 54 343 355
f 367 41 53
f 366 367 53
f 365 53 52
f 365 366 53
f 364 52 51
f 364 365 52
f 363 51 50
f 363 364 51
f 362 50 49
f 362 363 50
f 361 49 48
f 361 362 49
f 360 48 47
f 360 361 48
f 359 47 46
f 359 360 47
f 358 46 45
f 358 359 46
f 357 45 44
f 357 358 45
f 356 44 43
f 356 357 44
f 355 43 42
f 355 356 43
f 367 29 41
f 367 368 29
f 380 28 40
f 379 380 40
f 378 40 39
f 378 379 40
f 377 39 38
f 377 378 39
f 376 38 37
f 376 377 38
f 375 37 36
f 375 376 37
f 374 36 35
f 374 375 36
f 373 35 34
f 373 374 35
f 372 34 33
f 372 373 34
f 371 32 31
f 371 33 32
f 371 372 33
f 370 371 31
f 369 31 30
f 369 370 31
f 368 30 29
f 368 369 30
f 16 28 380
f 16 380 381
f 383 16 381
f 383 17 16
f 384 18 17
f 384 17 383
f 385 19 18
f 385 18 384
f 386 20 19
f 386 19 385
f 387 21 20
f 387 20 386
f 388 22 21
f 388 21 387
f 389 23 22
f 389 22 388
f 390 24 23
f 390 23 389
f 391 25 24
f 391 24 390
f 392 26 25
f 392 25 391
f 393 27 26
f 393 26 392
f 382 15 27
f 382 27 393
f 15 394 3
f 382 394 15
f 405 406 1
f 405 1 14
f 404 13 12
f 404 14 13
f 404 405 14
f 403 404 12
f 402 11 10
f 402 12 11
f 402 403 12
f 401 402 10
f 400 10 9
f 400 401 10
f 399 8 7
f 399 9 8
f 399 400 9
f 398 399 7
f 397 7 6
f 397 398 7
f 396 6 5
f 396 397 6
f 395 5 4
f 395 396 5
f 394 4 3
f 394 395 4
f 2 1 406
f 2 406 251
f 243 244 245
f 246 243 245
f 280 282 281
f 279 283 282
f 279 284 283
f 279 285 284
f 279 282 280
f 288 286 285
f 288 287 286
f 288 285 279
f 277 279 278
f 277 288 279
f 289 288 277
f 253 255 254
f 253 256 255
f 253 257 256
f 252 258 257
f 252 259 258
f 252 257 253
f 251 259 252
f 251 260 259
f 263 260 251
f 263 261 260
f 263 262 261
f 264 263 251
f 265 289 277
f 266 264 251
f 267 266 251
f 406 267 251
f 406 268 267
f 406 269 268
f 404 406 405
f 403 406 404
f 401 403 402
f 399 401 400
f 398 403 401
f 398 401 399
f 398 406 403
f 395 397 396
f 395 398 397
f 394 406 398
f 394 398 395
f 290 289 265
f 292 291 290
f 293 292 290
f 294 293 290
f 295 294 290
f 296 295 290
f 299 297 296
f 299 298 297
f 302 300 299
f 302 301 300
f 302 296 290
f 302 299 296
f 303 302 290
f 303 265 276
f 303 290 265
f 305 303 276
f 306 276 275
f 306 305 276
f 382 269 406
f 382 270 269
f 382 271 270
f 382 272 271
f 382 273 272
f 382 274 273
f 382 406 394
f 393 274 382
f 393 306 275
f 393 275 274
f 392 307 306
f 392 306 393
f 391 307 392
f 320 319 318
f 322 320 318
f 322 321 320
f 323 322 318
f 324 323 318
f 324 317 316
f 324 318 317
f 378 380 379
f 327 326 325
f 327 324 316
f 327 325 324
f 328 316 304
f 328 315 314
f 328 304 315
f 328 327 316
f 373 375 374
f 373 376 375
f 373 377 376
f 373 378 377
f 373 380 378
f 371 373 372
f 371 380 373
f 368 383 381
f 368 381 380
f 368 370 369
f 368 371 370
f 368 380 371
f 350 349 388
f 350 387 386
f 350 388 387
f 348 388 349
f 348 389 388
f 351 350 386
f 351 386 385
f 347 390 389
f 347 389 348
f 352 351 385
f 346 391 390
f 346 390 347
f 346 307 391
f 353 352 385
f 353 384 383
f 353 385 384
f 345 308 307
f 345 307 346
f 354 353 383
f 354 383 368
f 344 309 308
f 344 308 345
f 342 309 344
f 342 310 309
f 342 311 310
f 342 312 311
f 342 313 312
f 367 354 368
f 367 355 343
f 367 343 354
f 366 355 367
f 357 355 366
f 357 356 355
f 363 365 364
f 360 357 366
f 360 358 357
f 360 359 358
f 360 366 365
f 361 365 363
f 361 360 365
f 361 363 362
f 329 314 313
f 329 313 342
f 329 328 314
f 341 329 342
f 340 329 341
f 337 339 338
f 333 332 331
f 336 339 337
f 336 340 339
f 335 329 340
f 335 340 336
f 335 333 331
f 335 330 329
f 335 331 330
f 335 334 333
f 410 409 407
f 408 410 407
f 413 411 412
f 414 413 412
f 435 430 429
f 431 430 435
f 426 428 427
f 426 429 428
f 426 435 429
f 434 432 431
f 434 433 432
f 436 426 425
f 438 416 434
f 438 434 431
f 415 416 438
f 419 417 415
f 419 415 438
f 423 421 424
f 418 417 419
f 422 421 423
f 419 437 420
f 420 437 421
f 424 436 425
f 435 426 436
f 436 421 437
f 436 424 421
f 437 419 438
f 438 431 435
f 448 471 472
f 447 472 473
f 447 473 474
f 447 474 475
f 447 475 476
f 447 448 472
f 449 469 470
f 449 470 471
f 449 471 448
f 446 447 476
f 450 467 468
f 450 468 469
f 450 469 449
f 451 466 467
f 451 467 450
f 445 476 477
f 445 446 476
f 444 477 478
f 444 478 479
f 444 479 480
f 444 480 481
f 444 445 477
f 452 463 464
f 452 464 465
f 452 465 466
f 452 466 451
f 443 444 481
f 453 463 452
f 482 442 443
f 482 443 481
f 454 463 453
f 454 462 463
f 483 442 482
f 484 441 442
f 484 442 483
f 485 441 484
f 455 461 462
f 455 462 454
f 486 440 441
f 486 441 485
f 487 439 440
f 487 440 486
f 456 461 455
f 459 439 487
f 457 461 456
f 460 461 457
f 460 489 488
f 458 460 457
f 490 489 460
f 490 460 458
f 423 492 491
f 423 424 492
f 422 493 421
f 494 493 422
f 495 418 419
f 495 419 496
f 497 432 498
f 431 432 497
f 412 411 435
f 413 435 411
f 436 412 435
f 438 435 413
f 414 438 413
f 414 412 409
f 407 412 436
f 407 409 412
f 410 414 409
f 437 410 408
f 437 438 414
f 437 414 410
f 437 408 436
f 408 407 436
f 499 427 500
f 499 426 427

