# https://github.com/mikedh/trimesh
v -22.71809928 -5.00000000 -4.84817610
v -28.03087592 0.60750775 -13.73805600
v -17.64728733 5.50000000 -22.36964607
v -17.64728733 -5.00000000 -22.36964607
v -17.64728733 -5.00000000 -19.36964607
v -17.85153731 -5.00000000 -19.38361715
v -18.05198249 -5.00000000 -19.42527014
v -18.24488897 -5.00000000 -19.49382912
v -18.42666326 -5.00000000 -19.58801696
v -18.59391925 -5.00000000 -19.70607914
v -18.74354128 -5.00000000 -19.84581636
v -18.87274217 -5.00000000 -20.00462559
v -18.97911516 -5.00000000 -20.17954852
v -19.06067872 -5.00000000 -20.36732665
v -19.11591346 -5.00000000 -20.56446205
v -19.14379049 -5.00000000 -20.76728245
v -19.14379049 -5.00000000 -20.97200969
v -19.11591346 -5.00000000 -21.17483009
v -19.06067872 -5.00000000 -21.37196549
v -18.97911516 -5.00000000 -21.55974363
v -18.87274217 -5.00000000 -21.73466655
v -18.74354128 -5.00000000 -21.89347579
v -18.59391925 -5.00000000 -22.03321301
v -18.42666326 -5.00000000 -22.15127518
v -18.24488897 -5.00000000 -22.24546302
v -18.05198249 -5.00000000 -22.31402200
v -17.85153731 -5.00000000 -22.35567499
v -17.64728733 5.50000000 -19.36964607
v -17.85153731 5.50000000 -22.35567499
v -18.05198249 5.50000000 -22.31402200
v -18.24488897 5.50000000 -22.24546302
v -18.42666326 5.50000000 -22.15127518
v -18.59391925 5.50000000 -22.03321301
v -18.74354128 5.50000000 -21.89347579
v -18.87274217 5.50000000 -21.73466655
v -18.97911516 5.50000000 -21.55974363
v -19.06067872 5.50000000 -21.37196549
v -19.11591346 5.50000000 -21.17483009
v -19.14379049 5.50000000 -20.97200969
v -19.14379049 5.50000000 -20.76728245
v -19.11591346 5.50000000 -20.56446205
v -19.06067872 5.50000000 -20.36732665
v -18.97911516 5.50000000 -20.17954852
v -18.87274217 5.50000000 -20.00462559
v -18.74354128 5.50000000 -19.84581636
v -18.59391925 5.50000000 -19.70607914
v -18.42666326 5.50000000 -19.58801696
v -18.24488897 5.50000000 -19.49382912
v -18.05198249 5.50000000 -19.42527014
v -17.85153731 5.50000000 -19.38361715
v -19.66335771 -4.99947855 -19.25311754
v -18.85962507 -4.99968810 -23.23812443
v -20.29591222 -5.00034246 -21.17454191
v -18.38674752 -4.99905907 -18.37430671
v 26.89728733 5.50000000 -6.34817610
v 26.69638996 5.50000000 -6.33466197
v 26.49911252 5.50000000 -6.29436309
v 26.30900973 5.50000000 -6.22800561
v 26.12950702 5.50000000 -6.13678519
v 25.96383882 5.50000000 -6.02234554
v 25.81499028 5.50000000 -5.88674872
v 25.68564347 5.50000000 -5.73243803
v 25.57812908 5.50000000 -5.56219396
v 25.49438439 5.50000000 -5.37908412
v 25.43591838 5.50000000 -5.18640793
v 25.40378454 5.50000000 -4.98763720
v 25.39856188 5.50000000 -4.78635355
v 25.42034452 5.50000000 -4.58618386
v 25.46873995 5.50000000 -4.39073497
v 25.54287615 5.50000000 -4.20352864
v 25.64141727 5.50000000 -4.02793810
v 26.89728733 -5.00000000 -6.34817610
v 26.89728733 -5.00000000 -3.34817610
v 26.69303736 -5.00000000 -3.36214718
v 26.49259218 -5.00000000 -3.40380017
v 26.29968570 -5.00000000 -3.47235915
v 26.11791141 -5.00000000 -3.56654699
v 25.95065542 -5.00000000 -3.68460917
v 25.80103339 -5.00000000 -3.82434639
v 25.67183249 -5.00000000 -3.98315562
v 25.56545950 -5.00000000 -4.15807855
v 25.48389595 -5.00000000 -4.34585668
v 25.42866120 -5.00000000 -4.54299208
v 25.40078418 -5.00000000 -4.74581248
v 25.40078418 -5.00000000 -4.95053972
v 25.42866120 -5.00000000 -5.15336012
v 25.48389595 -5.00000000 -5.35049552
v 25.56545950 -5.00000000 -5.53827366
v 25.67183249 -5.00000000 -5.71319658
v 25.80103339 -5.00000000 -5.87200582
v 25.95065542 -5.00000000 -6.01174304
v 26.11791141 -5.00000000 -6.12980521
v 26.29968570 -5.00000000 -6.22399305
v 26.49259218 -5.00000000 -6.29255203
v 26.69303736 -5.00000000 -6.33420502
v 26.89728733 5.57633466 -3.34817610
v 25.76251816 5.50360280 -3.86713779
v 25.84710910 5.50888020 -3.77712397
v 25.93912016 5.51592019 -3.69412439
v 26.06004234 5.52611927 -3.60364732
v 26.16561032 5.53519322 -3.53873322
v 26.27596760 5.54432448 -3.48294671
v 26.38820079 5.55288686 -3.43726358
v 26.50373880 5.56065742 -3.40072746
v 26.62136774 5.56721142 -3.37374535
v 26.74056894 5.57228602 -3.35634206
v 26.81859248 5.57468906 -3.35022165
v 25.23783672 -4.99971814 -2.75550099
v 24.24938665 -5.00033186 -5.15148763
v 25.67041823 -4.99939696 -7.20677999
v -10.58814566 5.57719028 25.04005658
v -10.66495016 5.57465945 25.21978953
v -10.70017861 5.56986224 25.33440897
v -10.72619614 5.56289654 25.45180522
v -10.74508509 5.55221033 25.59718834
v -10.74999726 5.54237101 25.71737631
v -10.74522114 5.53226999 25.83718870
v -10.72462320 5.51976624 25.99244651
v -10.69781597 5.51150809 26.11003714
v -10.65777214 5.50464264 26.23579315
v -10.61751843 5.50121365 26.33424694
v -10.57004408 5.50000000 26.43020103
v -9.33241191 5.50000000 24.22008779
v -9.52220998 5.50325953 24.24267026
v -9.70644348 5.51189329 24.28895501
v -9.82924960 5.52002373 24.33422156
v -9.95853768 5.53013431 24.39576148
v -10.07076894 5.53979598 24.46229905
v -10.19929218 5.55127458 24.55652513
v -10.33143239 5.56270127 24.67837475
v -10.41765256 5.56928820 24.77622607
v -10.49723473 5.57415009 24.88448875
v -10.54491054 5.57619170 24.96070469
v -9.25943365 5.49999998 24.21748249
v -9.25000000 -5.00000000 24.21782217
v -9.25000000 -5.00000000 27.21782217
v -9.45424997 -5.00000000 27.20385109
v -9.65469516 -5.00000000 27.16219810
v -9.84760163 -5.00000000 27.09363913
v -10.02937593 -5.00000000 26.99945128
v -10.19663192 -5.00000000 26.88138911
v -10.34625395 -5.00000000 26.74165189
v -10.47545484 -5.00000000 26.58284266
v -10.58182783 -5.00000000 26.40791973
v -10.66339138 -5.00000000 26.22014159
v -10.71862613 -5.00000000 26.02300619
v -10.74650315 -5.00000000 25.82018579
v -10.74650315 -5.00000000 25.61545855
v -10.71862613 -5.00000000 25.41263815
v -10.66339138 -5.00000000 25.21550276
v -10.58182783 -5.00000000 25.02772462
v -10.47545484 -5.00000000 24.85280169
v -10.34625395 -5.00000000 24.69399246
v -10.19663192 -5.00000000 24.55425524
v -10.02937593 -5.00000000 24.43619307
v -9.84760163 -5.00000000 24.34200522
v -9.65469516 -5.00000000 24.27344624
v -9.45424997 -5.00000000 24.23179325
v -9.25000000 5.50000000 27.21782217
v -10.46260415 5.50000000 26.60076678
v -10.33326405 5.50000000 26.75538615
v -10.18435971 5.50000000 26.89126665
v -10.01858042 5.50000000 27.00595421
v -9.83892021 5.50000000 27.09737753
v -9.64862385 5.50000000 27.16388546
v -9.45112816 5.50000000 27.20427684
v -9.96453933 -4.99982676 28.23943629
v -11.71090783 -5.00056326 26.78871304
v -11.42002723 -5.00030308 24.14773730
v 7.13502270 65.14850975 -14.47074858
v 8.18238995 49.51350299 -17.50454511
v 7.46528472 56.74209504 -16.15393463
v 9.10376839 41.89180217 -18.84755937
v 4.72147349 53.71155985 -17.82529769
v -9.33861780 41.80445564 -18.18483870
v -9.18190719 41.77157610 -17.81444226
v -9.06893028 41.74061752 -17.42829386
v -9.00118881 41.71199143 -17.03152636
v -11.11516894 9.26015365 -18.60427247
v -11.13898295 9.28738530 -19.02564678
v -11.21344305 9.31757781 -19.44086851
v -11.33746203 9.35029034 -19.84387491
v -11.50922907 9.38504523 -20.22878161
v -9.88951140 37.30946802 -18.89147810
v 7.59258677 66.11616348 -13.86888104
v 1.40297023 0.21858631 -38.95482448
v 12.60047374 8.27358386 -35.61504887
v -20.53930852 7.61627428 -29.87641828
v -8.09110920 5.55454706 -38.73289740
v -9.63385752 10.83657926 -32.74531374
v 5.70730668 82.15821260 -16.51221389
v -13.28057766 9.85943326 -17.82667460
v -13.07791518 9.89158978 -18.57382062
v -13.09144357 9.88060410 -18.37881328
v -13.13024062 9.87148495 -18.18712814
v -13.19364538 9.86438771 -18.00203079
v -10.97525969 41.81751447 -16.62941379
v -10.98878808 41.80652879 -16.43440646
v -11.02758513 41.79740965 -16.24272132
v -11.09098989 41.79031240 -16.05762397
v -10.77379813 47.63073967 -18.40154987
v -23.31233047 1.49180295 -32.46264301
v -31.64349277 2.17142522 -0.95534430
v -1.54818852 5.69004655 -33.03024149
v -20.02144861 -0.71066596 -32.33297133
v 37.98138371 -0.73388505 -0.98639490
v 26.55396610 0.81061861 -17.84687585
v 27.83567559 5.25222638 -3.47794251
v -17.47343294 5.46015903 -21.82669138
v 23.69183862 5.50000000 -3.87201366
v -10.24026366 2.01211320 31.57689224
v 23.74783520 0.81305092 -32.13915915
v 39.70724588 0.81305092 -4.49664899
v 20.96054921 0.26394611 -32.19428481
v 40.46222038 0.17520411 -2.70576852
v -39.70724588 0.81305092 -4.49664899
v -39.71768638 0.20000000 -4.49996721
v -23.75592911 0.20000000 -32.14654178
v 23.50349999 1.55636468 -32.32298340
v -23.63194170 1.29559851 -32.07224800
v -36.38482302 7.00000000 -3.39673413
v -15.25075346 7.00000000 33.20854812
v 15.67972703 7.16875640 33.06362725
v -17.52836965 65.84006967 -0.72157353
v -17.48107414 66.11754638 -0.79380501
v -17.44991839 66.40117630 -0.83786678
v -17.58235327 65.56983090 -0.63750521
v -9.38908583 65.84006967 -14.81922663
v -9.45584426 66.69118452 -14.67388511
v -9.45057312 66.40117630 -14.69313923
v -9.42799237 66.11754638 -14.74215178
v -8.91136951 80.41325192 -15.04097907
v -17.19239765 80.53490481 -0.79049549
v 9.38908583 65.84006967 -14.81922663
v 9.42799237 66.11754638 -14.74215178
v 9.45057312 66.40117630 -14.69313923
v 9.34327235 65.56983090 -14.90801199
v 17.58235327 65.56983090 -0.63750521
v 17.52836965 65.84006967 -0.72157353
v 17.48107414 66.11754638 -0.79380501
v 29.46378384 8.56726753 -2.04296005
v 16.54158691 7.99522531 31.17599965
v -15.00941428 8.00570669 -18.55458867
v -23.64900143 8.00000000 -3.85872118
v -12.19890802 8.63537383 25.94740717
v -10.35104340 8.00000000 26.25519867
v -10.67992288 8.00000000 26.69498992
v -11.06630570 8.00000000 27.08978285
v -8.48275015 8.00000000 22.40999660
v 8.51959915 8.00058950 22.43942640
v 10.71728785 8.00000000 26.73799682
v 10.41235195 8.00000000 26.34690465
v 10.23633223 8.00000000 26.06792426
v -10.56749223 48.78122095 18.31940877
v -8.88387496 66.52516595 15.38532495
v -18.02453752 68.01207205 3.71395326
v 17.76601975 66.52516587 0.00099896
v 12.26641201 65.54103662 13.83687546
v 9.51992049 41.88659221 18.47186677
v -9.51992049 41.88659221 18.47186677
v -11.88801805 9.96066751 24.91552884
v -11.23714564 41.88659221 -17.48042637
v -13.65866405 8.55700500 -19.23410201
v 8.05308177 66.11754638 15.53595679
v 7.99934528 66.40117630 15.53100601
v 8.23908093 65.56983090 15.54551720
v -8.48593093 65.58680172 15.53648834
v -8.13928381 65.84006967 15.54080017
v -8.01269623 80.69498042 15.26322407
v -8.05308177 66.11754638 15.53595679
v 7.91160965 80.53490481 15.28430086
v 1.84258177 39.34438753 17.03448710
v -8.65804532 64.76863909 15.61072189
v -8.33675241 65.43042423 15.55282319
v 8.33675241 65.43042423 15.55282319
v 8.59466957 65.26380820 15.56760550
v 8.65804532 64.76863909 15.61072189
v 8.79806424 9.85943326 20.41465493
v 8.79746815 9.82568851 20.41760721
v -8.79746815 9.82568851 20.41760721
v -8.79806424 9.85943326 20.41465493
v 22.07864189 9.85943326 -2.58798033
v 17.84830439 64.76863909 -0.30727375
v 17.63751619 65.43042423 -0.55657223
v 9.23567190 65.43860198 -15.10022646
v 9.19025907 64.76863909 -15.30344814
v 13.81467355 40.64862178 -9.83905426
v 13.28057766 9.85943326 -17.82667460
v 13.28343245 9.82568851 -17.82763451
v -18.43688196 42.69784310 -2.01400545
v -9.19025907 64.76863909 -15.30344814
v -9.30076378 65.43042423 -14.99625097
v -17.63751619 65.43042423 -0.55657223
v -18.10607507 63.67868074 -0.12584172
v -22.07864189 9.85943326 -2.58798033
v -22.08090060 9.82568851 -2.58997270
v -8.42159078 65.66637010 -15.85026570
v 17.61103100 65.50026419 -0.59267463
v 9.31878559 65.50026025 -14.95526541
v -8.29224422 65.50026419 15.54793755
v 8.29224697 65.50026025 15.54793776
v -9.31878679 65.50026419 -14.95526292
v -17.61103256 65.50026025 -0.59267235
v -17.69958274 65.43668936 -0.43764807
v -17.78701325 66.50486051 0.03392866
v -9.26378060 65.51157622 -15.04067727
v 8.47592803 65.59749255 -15.85600968
v 17.72341915 65.36364482 -0.41571174
v 8.90639987 65.70033211 15.47324455
v -8.59464851 65.26382539 15.56760387
v 18.17105794 65.27695234 1.22785600
v 20.93064398 48.53900963 -0.31231735
v 10.40779671 49.15531149 18.21521930
v -10.14888350 65.27695207 15.12266981
v -12.99082005 14.52532985 25.18023358
v -12.27721732 17.42092706 24.40994850
v -10.48431604 45.79775845 18.79918800
v -9.95561047 42.80420336 18.96831001
v 20.38412435 41.85511253 -1.00918996
v 20.20214951 41.84068467 -1.05292601
v 20.02699248 41.82743771 -1.11911044
v 19.86139628 41.81557911 -1.20670677
v 19.70795420 41.80529457 -1.31434322
v 19.56906921 41.79674515 -1.44033415
v 19.44691631 41.79006474 -1.58270650
v 23.11935781 9.92918784 -1.85793962
v 22.93738297 9.91475998 -1.90167567
v 22.76222593 9.90151302 -1.96786010
v 22.59662973 9.88965442 -2.05545643
v 22.44318765 9.87936987 -2.16309288
v 22.30430267 9.87082045 -2.28908381
v 22.18214976 9.86414005 -2.43145616
v 19.89502086 42.71990436 -1.11243950
v 18.85117066 53.24797926 -0.74754208
v 17.83806664 64.94046323 -0.29435397
v 9.17395093 64.94046723 -15.30104182
v 11.09412219 41.79006474 -16.05017029
v 11.03190057 41.79674515 -16.22714399
v 10.99223172 41.80529457 -16.41041738
v 10.97573686 41.81557911 -16.59712034
v 10.98267431 41.82743771 -16.78432903
v 11.01293543 41.84068467 -16.96911169
v 10.99710762 46.67208262 -18.19174335
v 13.19677768 9.86414005 -17.99457712
v 13.13455606 9.87082045 -18.17155082
v 13.09488721 9.87936987 -18.35482421
v 13.07839235 9.88965442 -18.54152717
v 13.08532980 9.90151302 -18.72873586
v 13.11559092 9.91475998 -18.91351851
v 16.25193389 8.54025304 -23.36062841
v 10.89094407 43.40203218 -16.46342642
v 10.07297661 53.24796905 -15.95182220
v -19.44691631 41.79006474 -1.58270650
v -19.56906921 41.79674515 -1.44033415
v -19.70795420 41.80529457 -1.31434322
v -19.86139628 41.81557911 -1.20670677
v -20.87580897 48.97099845 -0.28727947
v -22.18214976 9.86414005 -2.43145616
v -22.30430267 9.87082045 -2.28908381
v -22.44318765 9.87936987 -2.16309288
v -29.35547610 8.61228139 -1.85137625
v -13.24679809 9.94511474 -19.27003882
v -13.17318365 9.93021979 -19.10507881
v -13.12003266 9.91620014 -18.93236178
v -13.08812119 9.90326049 -18.75440961
v -11.14414260 41.87103944 -17.32563200
v -11.07052816 41.85614448 -17.16067198
v -11.01737717 41.84212483 -16.98795495
v -10.98546570 41.82918518 -16.81000278
v -10.79716673 44.40676407 -16.46865387
v -10.07297576 53.24797926 -15.95182165
v -9.17395133 64.94046323 -15.30104188
v 8.66411545 64.94046723 15.59539547
v 8.35279411 41.79006474 17.63287680
v 8.53716864 41.79674515 17.66747814
v 8.71572248 41.80529457 17.72476060
v 8.88565942 41.81557911 17.80382712
v 9.04431817 41.82743771 17.90343947
v 9.18921408 41.84068467 18.02203770
v 9.31807804 41.85511253 18.15776450
v 9.42889197 41.87049534 18.30849436
v 8.98537207 9.86414005 20.42603328
v 9.16974660 9.87082045 20.46063463
v 9.34830044 9.87936987 20.51791709
v 9.51823738 9.88965442 20.59698360
v 9.67689613 9.90151302 20.69659595
v 9.82179205 9.91475998 20.81519418
v 9.95065600 9.92918784 20.95092099
v 10.06146993 9.94457065 21.10165084
v 8.81227347 43.40203217 17.66354745
v 8.77819496 53.24796905 16.69936473
v -9.42889197 41.87049534 18.30849436
v -9.31807804 41.85511253 18.15776450
v -9.18921408 41.84068467 18.02203770
v -9.04431817 41.82743771 17.90343947
v -8.88565942 41.81557911 17.80382712
v -8.71572248 41.80529457 17.72476060
v -8.53716864 41.79674515 17.66747814
v -8.35279411 41.79006474 17.63287680
v -10.06146993 9.94457065 21.10165084
v -9.95065600 9.92918784 20.95092099
v -9.82179205 9.91475998 20.81519418
v -9.67689613 9.90151302 20.69659595
v -9.51823738 9.88965442 20.59698360
v -9.34830044 9.87936987 20.51791709
v -9.16974660 9.87082045 20.46063463
v -8.98537207 9.86414005 20.42603328
v -8.86384180 44.40454844 17.58523634
v -8.77819490 53.24797926 16.69936372
v -8.66411530 64.94046323 15.59539585
v 7.91160965 80.79274158 15.26306507
v -7.91160965 80.79274158 15.26306507
v 8.93523959 82.22704470 14.58285026
v 17.65496326 82.05562833 4.48261118
v -8.94035374 80.94917075 15.04098029
v -17.34883525 81.59899782 0.16547628
v -14.05035119 82.38356728 10.83691217
v -17.17400692 80.79274158 -0.77987759
v -17.12694645 81.04567999 -0.75270722
v -17.05200370 81.28948771 -0.70943900
v -16.95043267 81.52008518 -0.65079694
v -16.82393291 81.73361388 -0.57776227
v -16.67462110 81.92650090 -0.49155706
v -16.50499564 82.09551872 -0.39362375
v -16.31789480 82.23783923 -0.28560103
v -16.11644929 82.35108101 -0.16929641
v -6.41625289 82.24160949 -16.02706629
v -9.26239726 80.79274158 -14.48318748
v -9.21533680 81.04567999 -14.45601711
v -9.14039405 81.28948771 -14.41274889
v -9.03882302 81.52008518 -14.35410683
v -8.91232326 81.73361388 -14.28107216
v -8.76301145 81.92650090 -14.19486695
v -8.59338598 82.09551872 -14.09693364
v -8.40628514 82.23783923 -13.98891092
v -8.20483964 82.35108101 -13.87260630
v -9.90740302 8.51054048 21.55105611
v -9.26030763 9.84127566 20.47121445
v -9.61050481 9.31362646 20.73802590
v -8.79223042 9.59823577 20.45076576
v -8.78246380 9.36764818 20.51259544
v -8.76791053 9.13918326 20.60472805
v -8.74851606 8.91868834 20.72750884
v -8.72446342 8.71219771 20.87977921
v -8.69618272 8.52544533 21.05881619
v -8.66433073 8.36336618 21.26046203
v -8.62974125 8.22967208 21.47943813
v -8.59335405 8.12657592 21.70979506
v -8.55613463 8.05470593 21.94542049
v -8.51899838 8.01320856 22.18051943
v -8.66648533 8.02709470 22.11920293
v -34.81724148 8.09503467 -0.07514391
v 8.79223042 9.59823577 20.45076576
v 8.78246380 9.36764818 20.51259544
v 8.76791053 9.13918326 20.60472805
v 8.74851606 8.91868834 20.72750884
v 8.72446342 8.71219771 20.87977921
v 8.69618272 8.52544533 21.05881619
v 8.66433073 8.36336618 21.26046203
v 8.62974125 8.22967208 21.47943813
v 8.59335405 8.12657592 21.70979506
v 8.55613463 8.05470593 21.94542049
v 8.51899838 8.01320856 22.18051943
v -22.23528365 9.80890496 -2.36893359
v -22.86144263 8.92467840 -2.09647926
v 10.16211636 9.04090518 21.62322320
v 9.47843424 9.71027288 20.56467648
v 9.05674694 8.24717163 21.32167103
v -23.46839249 8.01320856 -3.71259070
v -23.28335895 8.05470593 -3.56288029
v -22.91660970 8.22967208 -3.26614392
v -22.74426558 8.36336618 -3.12670049
v -22.58556116 8.52544533 -2.99829294
v -22.44465093 8.71219771 -2.88428265
v -22.32480724 8.91868834 -2.78731726
v -22.22817320 9.13918326 -2.70913077
v -22.15566065 9.36764818 -2.65046096
v -22.10699789 9.59823577 -2.61108798
v -23.48903431 8.02709470 -3.55420501
v -23.23431455 8.15545901 -3.13535497
v -14.94939410 8.01320856 -18.46792873
v -14.72722432 8.05470593 -18.38254019
v -14.50455701 8.12657592 -18.29696044
v -14.28686846 8.22967208 -18.21329421
v -14.07993485 8.36336618 -18.13376153
v -13.88937843 8.52544533 -18.06052325
v -13.72018751 8.71219771 -17.99549656
v -13.57629118 8.91868834 -17.94019157
v -13.46026267 9.13918326 -17.89559728
v -13.37319685 9.36764818 -17.86213448
v -13.31476746 9.59823577 -17.83967778
v -13.05460657 9.72196672 -18.48298806
v 30.65605361 8.35858340 5.04491702
v 14.29052458 8.75926025 26.90786851
v 23.01649683 8.61918672 -2.40837038
v 22.54332952 9.74354986 -2.05105368
v 22.10699789 9.59823577 -2.61108798
v 22.15566065 9.36764818 -2.65046096
v 22.22817320 9.13918326 -2.70913077
v 22.32480724 8.91868834 -2.78731726
v 22.44465093 8.71219771 -2.88428265
v 22.58556116 8.52544533 -2.99829294
v 22.74426558 8.36336618 -3.12670049
v 23.09791105 8.12657592 -3.41283462
v 23.28335895 8.05470593 -3.56288029
v 23.06657950 8.31844613 -2.85133830
v 23.45457410 8.05824964 -3.31919819
v 13.37319685 9.36764818 -17.86213448
v 13.46026267 9.13918326 -17.89559728
v 13.40998455 8.87741861 -18.50559601
v 13.72018751 8.71219771 -17.99549656
v 13.88937843 8.52544533 -18.06052325
v 14.07993485 8.36336618 -18.13376153
v 14.28686846 8.22967208 -18.21329421
v 14.72722432 8.05470593 -18.38254019
v 14.94939410 8.01320856 -18.46792873
v 13.71233080 8.54983541 -18.90503207
v 13.05508216 9.71636494 -18.50949747
v 14.46161780 8.09765071 -18.59235146
v 38.80310704 7.15218009 5.79655033
v 15.25075346 7.21752286 33.06320399
v 15.25075346 7.41421356 32.89071087
v 15.25075346 7.58670668 32.69402017
v 15.25075346 7.73205081 32.47649731
v 15.25075346 7.84775907 32.24186417
v 15.25075346 7.93185165 31.99413540
v 15.25075346 7.98288972 31.73754969
v 18.50231272 7.59164080 31.60319054
v -19.86014756 7.98288972 -29.07631477
v -20.08235730 7.93185165 -29.20460762
v -20.29689671 7.84775907 -29.32847201
v -20.50009496 7.73205081 -29.44578858
v -20.68847528 7.58670668 -29.55455001
v -20.85881443 7.41421356 -29.65289536
v -21.00819785 7.21752286 -29.73914192
v -15.25075346 7.21752286 33.06320399
v -15.25075346 7.41421356 32.89071087
v -15.25075346 7.58670668 32.69402017
v -15.25075346 7.73205081 32.47649731
v -15.25075346 7.84775907 32.24186417
v -15.25075346 7.93185165 31.99413540
v -15.25075346 7.98288972 31.73754969
v -35.11090102 7.98288972 -2.66123492
v -35.33311076 7.93185165 -2.78952777
v -35.54765017 7.84775907 -2.91339216
v -35.93922875 7.58670668 -3.13947016
v -36.10956789 7.41421356 -3.23781551
v -36.25895132 7.21752286 -3.32406207
v -35.79317700 7.77474476 -2.78126627
v -17.49770450 8.58738688 26.47787765
v -37.25843598 7.01981093 -1.65681613
v -22.95492844 0.26858022 -33.17697814
v 23.73900494 0.93909113 -32.13406100
v 23.71647015 1.06283689 -32.12105053
v 23.68059117 1.18230947 -32.10033579
v 39.69841562 0.93909113 -4.49155084
v 39.67588083 1.06283689 -4.47854037
v 39.64000185 1.18230947 -4.45782563
v -23.68059117 1.18230947 -32.10033579
v -23.71647015 1.06283689 -32.12105053
v -23.73900494 0.93909113 -32.13406100
v -39.64000185 1.18230947 -4.45782563
v -39.67588083 1.06283689 -4.47854037
v -39.69841562 0.93909113 -4.49155084
v -16.26262286 6.76122915 33.66716458
v -23.49876206 0.20000000 -31.99895020
v -15.46061065 80.50000000 0.20935221
v -15.51557274 80.49999555 0.33656038
v -15.70409240 66.65627971 0.14778891
v -15.59356831 75.88577091 0.31648589
v -7.63795158 68.37599410 -13.74369731
v 1.37938815 80.20759545 -15.48688871
v 16.77308149 80.52538405 7.70349441
v -15.53401648 80.50130786 0.95685478
v -14.85016532 80.48796631 4.55549185
v -8.84774919 80.50266810 13.41163009
v 8.20601355 66.09846368 13.51278249
v -8.13928381 65.80516486 13.54110478
v -7.99933616 66.36625589 13.53131089
v -8.05306324 66.08267144 13.53626088
v -14.86866421 66.99712062 5.76628265
v -15.80541970 66.09846358 0.35022496
v -15.79658264 65.80516486 0.27827416
v -15.74928314 66.08266150 0.20603648
v -15.85056627 65.53492609 0.36234248
v -7.65729882 65.80516486 -13.81937894
v -7.71879090 66.36625589 -13.69328378
v -7.69621417 66.08267144 -13.74228779
v 7.65729882 65.80516486 -13.81937894
v 7.69620875 66.08266150 -13.74229753
v 7.61148534 65.53492609 -13.90816429
v 15.79658264 65.80516486 0.27827416
v 15.71812706 66.36625589 0.16197288
v 15.74927741 66.08267144 0.20602691
v 8.13928381 65.80516486 13.54110478
v 8.05307440 66.08266150 13.53626105
v 8.23908093 65.53492609 13.54582181
v 9.37765784 47.26869262 15.41524751
v 11.07922338 41.80445564 17.17989961
v 0.53755924 41.55557693 15.11209648
v 8.59477066 41.62179177 15.65470648
v 9.01757002 41.63698293 15.73258910
v 9.42749730 41.65639047 15.86158037
v 9.81835989 41.67972121 16.03973167
v 10.18425319 41.70662271 16.26435174
v 10.51964980 41.73668856 16.53204734
v 10.81948301 41.76946458 16.83877449
v -9.46735749 60.77911491 13.99414876
v -11.07922338 41.80445564 17.17989961
v -10.81948301 41.76946458 16.83877449
v -10.51964980 41.73668856 16.53204734
v -10.18425319 41.70662271 16.26435174
v -9.81835989 41.67972121 16.03973167
v -9.42749730 41.65639047 15.86158037
v -9.01757002 41.63698293 15.73258910
v -8.59477066 41.62179177 15.65470648
v 11.41574425 37.30946802 18.01030715
v 11.75591781 9.38377567 20.06900033
v 11.49735197 9.34788244 19.71729734
v 11.19666942 9.31421744 19.40060145
v 10.85857895 9.28330787 19.12387226
v 10.48837520 9.25563780 18.89144344
v 10.09185568 9.23164053 18.70695491
v 9.67523005 9.21169189 18.57329583
v 9.24502282 9.19610427 18.49255936
v 8.80797120 9.18512178 18.46600986
v -8.80797120 9.18512178 18.46600986
v -9.24502282 9.19610427 18.49255936
v -9.67523005 9.21169189 18.57329583
v -10.09185568 9.23164053 18.70695491
v -10.48837520 9.25563780 18.89144344
v -10.85857895 9.28330787 19.12387226
v -11.19666942 9.31421744 19.40060145
v -11.49735197 9.34788244 19.71729734
v -11.75591781 9.38377567 20.06900033
v -11.41574425 37.30946802 18.01030715
v -11.46394701 37.35051858 18.08932176
v -11.53165549 37.34927584 18.16299503
v -11.58286548 37.36112974 18.20231019
v -11.63897625 37.37192380 18.23461699
v -11.64593793 38.79950239 17.98942756
v -11.82672167 37.39619680 18.28457848
v -11.89217717 37.40111966 18.28462204
v -11.95720259 37.40429347 18.27623863
v -12.29068099 32.82142073 19.21059001
v -12.25435457 32.81974883 19.21557373
v -12.41163533 28.22022980 20.13047626
v -12.21909349 32.81760834 19.21789317
v -11.93594179 32.78078432 19.14099753
v -11.90718790 32.77459963 19.12129351
v -11.87898440 32.76787938 19.09878536
v -12.22083298 28.18504627 20.02868883
v -13.09059891 19.05230041 21.98572115
v -12.07127773 32.80307440 19.20056419
v -11.14206077 41.80598690 17.25860009
v -11.21596594 41.84288385 17.31434237
v -11.27230895 41.85410599 17.34594440
v -11.67686705 41.43339295 17.46794679
v -11.51476383 40.37685958 17.67566478
v -11.27734386 41.10655815 17.45670251
v -12.00397267 37.61424271 18.22467856
v -11.49207104 38.85956523 17.91626855
v -11.46319778 38.85360132 17.89807217
v -11.43470625 38.84712044 17.87714241
v -10.05888176 49.93295066 15.49965673
v -12.35407397 50.36306079 14.82172399
v -10.99310448 46.82204324 16.43210668
v -11.38515261 44.36293785 16.89991347
v -11.43554953 42.12686341 17.35387317
v -11.07281657 44.33024482 16.87691686
v -11.04295033 44.32494656 16.86337650
v -11.01312192 44.31917151 16.84732867
v -10.84197718 49.75170221 15.85820072
v -8.97929483 65.32030632 13.33152952
v -19.25057570 49.51350309 1.66611498
v -17.72236012 56.74209504 1.61184110
v -15.93641751 65.42947343 0.55966664
v -17.53307065 56.67564945 1.16757814
v -19.28509021 49.30869128 1.55506532
v -19.26914354 49.30648911 1.49096211
v -19.24507433 49.30250176 1.42953621
v -19.21330315 49.29679889 1.37186094
v -17.68391243 56.72312728 1.36379478
v -16.77708320 61.11834989 1.08707148
v -20.87434940 41.89180217 1.53968499
v -20.41784118 41.80445564 1.00493910
v -20.90538928 41.62546421 1.30473704
v -20.24090633 44.34744202 1.23879452
v -19.80399452 46.83540860 1.46810075
v -19.79294282 46.83370474 1.43192353
v -20.38308870 42.95835232 1.08217623
v -19.17163792 49.24235855 1.29783788
v -21.30525565 37.30946802 0.88117095
v -21.80628823 37.40429347 1.21712189
v -21.78103577 37.40111966 1.15661652
v -21.74827029 37.39619680 1.09995217
v -21.37583278 38.87560123 1.08469589
v -21.61112967 37.37192380 0.96234062
v -21.55509578 37.36112974 0.92990066
v -21.49544285 37.34927584 0.90520909
v -21.39916536 37.34607299 0.88335797
v -21.72676719 37.87832559 1.27340371
v -21.32325245 38.60727848 0.99387618
v -17.24696605 49.28349058 -0.07824991
v -17.85475883 41.62179177 -0.38406351
v -18.13360684 41.63698293 -0.05684983
v -18.45028019 41.65639047 0.23366197
v -18.79999504 41.67972121 0.48308325
v -19.17746838 41.70662271 0.68764611
v -19.57699787 41.73668856 0.84426029
v -19.99254799 41.76946458 0.95055990
v -18.53051552 44.60594586 0.53864469
v -7.57530395 65.25611274 -14.00005627
v -8.81528798 44.17476813 -16.25184536
v -9.45246233 41.61104647 -14.88607307
v -9.01114948 41.66044508 -16.17439668
v -9.10167593 41.63916708 -15.72713135
v -9.24962035 41.62260684 -15.29523753
v -23.25822302 9.38377567 0.14642331
v -22.82435637 9.34788244 0.09835022
v -22.39974842 9.31421744 -0.00370057
v -21.99104867 9.28330787 -0.15813091
v -21.60465753 9.25563780 -0.36252235
v -21.24662602 9.23164053 -0.61367406
v -20.92256105 9.21169189 -0.90765290
v -20.63753760 9.19610427 -1.23985506
v -20.39601925 9.18512178 -1.60507812
v -11.58804805 9.18512178 -16.86093175
v -11.38520606 9.19668214 -17.27009620
v -11.23726164 9.21324239 -17.70199002
v -11.14673519 9.23452039 -18.14925535
v -12.94680616 6.87001303 -21.09829058
v -9.93383869 37.35051858 -18.97273023
v -9.96378736 37.34927584 -19.06820412
v -9.97223030 37.36112974 -19.13221085
v -9.97215341 37.37192380 -19.19695761
v -9.75633233 38.79950226 -19.08039188
v -9.92154862 37.39619680 -19.38453064
v -9.88885860 37.40111966 -19.44123856
v -9.84908564 37.40429347 -19.49336051
v -8.09508322 42.32037520 -19.37792018
v -10.51399772 32.81974883 -20.22036923
v -10.53363695 32.81760834 -20.19099196
v -10.60861922 32.78078432 -19.90732757
v -10.60593198 32.77459963 -19.87257396
v -10.60054110 32.76787938 -19.83689495
v -11.12844486 28.23850816 -21.00850991
v -11.22768617 28.22022980 -20.81402963
v -12.49489358 19.05230041 -22.32965178
v -11.23493684 28.18504627 -20.59789623
v -10.59253749 32.80307440 -20.05431526
v -9.55062788 40.57554692 -18.76908037
v -9.55019281 40.37685958 -18.80991038
v -9.64543238 38.89919007 -19.24186128
v -9.66807301 38.89748089 -19.21399871
v -9.76990818 38.85956523 -18.91055974
v -9.76858629 38.85360132 -18.87645658
v -9.76470635 38.84712044 -18.84131730
v -7.32844313 63.20840478 -14.57437507
v -7.46959401 65.78984987 -14.02175416
v -8.39607874 49.54357679 -17.29493756
v 7.75538299 56.67564945 -15.76787367
v 8.29581903 49.30869128 -17.47891070
v 8.34336070 49.30648911 -17.43304887
v 8.38452249 49.30250176 -17.38149137
v 8.41858515 49.29679889 -17.32513909
v 7.66087529 56.72312728 -15.99661480
v 7.45025875 61.05864465 -15.08466452
v 9.33861780 41.80445564 -18.18483870
v 9.32275934 41.62546328 -18.75696687
v 9.04762564 44.34744202 -18.14853633
v 9.25435230 42.95835191 -18.19336078
v 8.63058472 46.83540860 -17.88481272
v 8.65638926 46.83370474 -17.85715306
v 8.46185837 49.24235860 -17.25204443
v 9.88951140 37.30946802 -18.89147810
v 9.84908564 37.40429347 -19.49336051
v 9.88885860 37.40111966 -19.44123856
v 9.92154862 37.39619680 -19.38453064
v 9.97215341 37.37192380 -19.19695761
v 9.97223030 37.36112974 -19.13221085
v 9.76058365 37.87832543 -19.45263421
v 9.87945343 37.97012414 -18.95698271
v 9.77639125 38.77410464 -19.02115952
v 11.50230521 9.38377567 -20.21542364
v 11.32700440 9.34788244 -19.81564755
v 11.20307900 9.31421744 -19.39690088
v 11.13246972 9.28330787 -18.96574135
v 11.11628233 9.25563780 -18.52892108
v 11.15477033 9.23164053 -18.09328085
v 11.24733100 9.21169189 -17.66564293
v 11.39251478 9.19610427 -17.25270430
v 11.58804805 9.18512178 -16.86093175
v 9.25998817 41.62179177 -15.27064297
v 9.11603682 41.63698293 -15.67573927
v 9.02278289 41.65639047 -16.09524234
v 8.98163515 41.67972121 -16.52281492
v 8.99321519 41.70662271 -16.95199785
v 9.05734807 41.73668856 -17.37630763
v 9.17306497 41.76946458 -17.78933439
v 8.79877776 44.60594599 -16.31721959
v 15.91205636 65.25611274 0.43962247
v 15.79029032 44.94150684 -1.32329625
v 20.41784118 41.80445564 1.00493910
v 19.99254799 41.76946458 0.95055990
v 19.57699787 41.73668856 0.84426029
v 19.17746838 41.70662271 0.68764611
v 18.79999504 41.67972121 0.48308325
v 18.45028019 41.65639047 0.23366197
v 18.13360684 41.63698293 -0.05684983
v 17.85475883 41.62179177 -0.38406351
v 20.39601925 9.18512178 -1.60507812
v 20.63753760 9.19610427 -1.23985506
v 20.92256105 9.21169189 -0.90765290
v 21.24662602 9.23164053 -0.61367406
v 21.60465753 9.25563780 -0.36252235
v 21.99104867 9.28330787 -0.15813091
v 22.39974842 9.31421744 -0.00370057
v 22.82435637 9.34788244 0.09835022
v 23.25822302 9.38377567 0.14642331
v 21.30525565 37.30946802 0.88117095
v 21.39778572 37.35051861 0.88340846
v 21.49544285 37.34927584 0.90520909
v 21.55509578 37.36112974 0.92990066
v 21.61112967 37.37192380 0.96234062
v 21.40227026 38.79950219 1.09096429
v 21.74827029 37.39619680 1.09995217
v 21.78103577 37.40111966 1.15661652
v 21.80628823 37.40429347 1.21712189
v 21.82481348 37.43051342 1.31300913
v 21.83330535 37.40292941 1.41103394
v 22.78219946 32.82142073 1.03874696
v 22.76835229 32.81974883 1.00479550
v 22.75273044 32.81760834 0.97309878
v 22.54456101 32.78078432 0.76633004
v 22.51311988 32.77459963 0.75128045
v 22.47952551 32.76787938 0.73810958
v 23.75812571 28.23850816 0.86673900
v 25.58549249 19.05230041 0.34393063
v 23.63932150 28.22022980 0.68355336
v 23.45576982 28.18504627 0.56920740
v 22.66381522 32.80307440 0.85375108
v 20.51741647 41.80598688 1.02000763
v 20.60264331 41.84288385 1.05614025
v 20.65818297 41.85410599 1.08913371
v 20.88735634 41.80950604 1.38908260
v 20.75661976 41.10655817 1.03811500
v 21.06495664 40.37685958 1.13424560
v 21.48665688 38.89919007 1.26774117
v 21.47384750 38.89748089 1.23420253
v 21.26197922 38.85956523 0.99429119
v 21.23178407 38.85360132 0.97838440
v 21.19941260 38.84712044 0.96417489
v 18.93149064 50.18585869 1.33050015
v 19.01302614 50.36306234 3.28807996
v 19.72717407 46.82204324 1.30425441
v 20.32833069 44.36293785 1.40987465
v 20.78271643 41.95651323 1.22323089
v 20.15224703 44.33024482 1.15088201
v 20.12558761 44.32494656 1.13178727
v 20.09677558 44.31917151 1.11397902
v 16.13183972 64.42781316 0.70029780
v 15.94998089 65.03065421 0.99721053
v 19.23348387 49.46178449 1.46280473
v 15.89498568 65.63271486 0.49038740
v 13.23627505 66.70967631 9.13942421
v 11.54269423 43.80867100 16.96013261
v 9.02947330 64.82679816 13.46503332
v 11.63417183 41.44421831 17.47893043
v 11.53687555 38.79564396 17.94935406
v 10.81670142 47.78911304 16.22945509
v 12.13864391 37.40292941 18.20268011
v 12.04940080 37.42493949 18.24560968
v 11.95720259 37.40429347 18.27623863
v 11.89217717 37.40111966 18.28462204
v 11.82672167 37.39619680 18.28457848
v 11.62729058 38.87560123 17.96966627
v 11.63897625 37.37192380 18.23461699
v 11.58286548 37.36112974 18.20231019
v 11.53165549 37.34927584 18.16299503
v 11.46459311 37.34607296 18.09054181
v 11.87969487 38.12832653 18.13574855
v 9.31764646 9.11215695 18.50048741
v 8.80267052 8.73012241 18.52852903
v -8.80737512 9.15137703 18.46896214
v -10.32356063 5.55768873 21.69714691
v -9.16040983 9.02009876 18.49125546
v -18.05045838 52.47164936 4.89106240
v -24.54282326 6.40005052 -0.85557059
v -22.52367886 32.56083191 0.73047414
v -22.55726436 32.56755604 0.74363814
v -23.72737771 27.80616534 0.66818918
v -22.58869768 32.57374369 0.75867981
v -22.79685417 32.61056466 0.96534444
v -22.81248262 32.61270181 0.99702726
v -22.82633860 32.61436964 1.03096472
v -25.48813698 18.61696388 0.21714072
v -22.70793132 32.59603822 0.84605483
v -32.10603751 3.48404257 18.54415301
v -20.39827796 9.15137703 -1.60707048
v -20.76086507 9.17051195 -1.07732241
v -21.93195796 8.28914794 -0.27839473
v -11.26068131 9.17688562 -17.52611463
v -20.46754581 8.61546395 -1.65470518
v -20.58552966 8.13043167 -1.73584129
v -20.73836712 7.70238547 -1.84094582
v -20.93480805 7.29240930 -1.97603596
v -21.17230677 6.91005072 -2.13936105
v -21.44645329 6.56402359 -2.32788841
v -21.75123434 6.26156385 -2.53748278
v -22.07946619 6.00793268 -2.76320398
v -22.42333538 5.80613699 -2.99967881
v -22.76514948 5.66034231 -3.23474037
v -11.65095400 8.69647154 -16.89051421
v -11.76292946 8.23529637 -16.94388575
v -11.92978446 7.77836652 -17.02341485
v -12.15214425 7.33737668 -17.12939954
v -12.42791060 6.92439543 -17.26083971
v -12.75215209 6.55089065 -17.41538489
v -13.11733892 6.22673236 -17.58944609
v -13.51391140 5.95934417 -17.77846682
v -13.93109490 5.75315184 -17.97731151
v -14.35781982 5.60941185 -18.18070398
v -14.78359126 5.52641712 -18.38364199
v -13.84175031 9.17739125 -24.03169378
v 12.50099922 7.65893198 -21.28200449
v 10.63462266 32.56755604 -19.90698304
v 10.63731286 32.57374369 -19.94172594
v 11.28502005 27.80616534 -20.88260646
v 10.56241428 32.61056466 -20.22532706
v 10.54279037 32.61270181 -20.25470311
v 10.52032766 32.61436964 -20.28367146
v 12.55601911 18.61696388 -22.18194448
v 12.94400171 15.92041999 -22.83066060
v 10.62126069 32.59603822 -20.08867280
v 11.59090284 9.15137703 -16.86189166
v 11.31342108 9.17051195 -17.44077540
v 11.20707588 8.28914796 -18.85443537
v 20.39827796 9.15137703 -1.60707048
v 11.66678962 8.61546395 -16.89806204
v 11.79604749 8.13043167 -16.95967099
v 11.96348941 7.70238547 -17.03947985
v 12.17870137 7.29240930 -17.14205762
v 12.43889440 6.91005072 -17.26607499
v 12.73923714 6.56402359 -17.40922916
v 13.07314172 6.26156385 -17.56838011
v 13.43273794 6.00793268 -17.73977663
v 13.80946574 5.80613699 -17.91933867
v 14.18394208 5.66034231 -18.09782759
v 20.64083867 9.12990231 -1.24525345
v 21.06206158 9.12276608 -0.77283305
v 20.45309139 8.69647154 -1.64476504
v 20.55530022 8.23529637 -1.71505286
v 20.70760195 7.77836652 -1.81978898
v 20.91056728 7.33737668 -1.95936586
v 21.16228098 6.92439543 -2.13246643
v 21.45824178 6.55089065 -2.33599521
v 21.79157662 6.22673236 -2.56522569
v 22.15355961 5.95934417 -2.81415717
v 22.53435591 5.75315184 -3.07602633
v 22.92386142 5.60941185 -3.34388472
v 23.31249661 5.52641712 -3.61114459
v 23.38618874 5.55173597 -3.29017329
v 25.02993393 5.81512881 -1.27236874
v 11.89444859 32.56083191 19.14084101
v 11.92264170 32.56755604 19.16334490
v 12.44235766 27.80616534 20.21441728
v 11.95138483 32.57374369 19.18304613
v 12.23443990 32.61056466 19.25998262
v 12.26969225 32.61270181 19.25767584
v 12.30601094 32.61436964 19.25270674
v 12.93211787 18.61696388 21.96480376
v 12.48051057 6.72756255 21.91168342
v 12.08667063 32.59603822 19.24261798
v 25.76562014 2.32095261 28.32316519
v -22.51809207 5.54782104 -4.67157496
v -22.50877109 5.54236661 -4.75981950
v 13.57422430 5.80411114 -19.51333365
v 15.30472196 5.54782301 -17.16547319
v 15.43573503 5.53773775 -17.07568332
v 15.57703051 5.52676774 -17.00339418
v 15.72666964 5.51617615 -16.94936141
v 15.88123352 5.50737184 -16.91488738
v 15.97840536 5.50337570 -16.90345412
v -9.04575003 -5.00000000 24.23179325
v -8.84530484 -5.00000000 24.27344624
v -8.65239837 -5.00000000 24.34200522
v -8.47062407 -5.00000000 24.43619307
v -8.30336808 -5.00000000 24.55425524
v -8.15374605 -5.00000000 24.69399246
v -8.02454516 -5.00000000 24.85280169
v -7.91817217 -5.00000000 25.02772462
v -7.83660862 -5.00000000 25.21550276
v -7.78137387 -5.00000000 25.41263815
v -7.75349685 -5.00000000 25.61545855
v -7.75349685 -5.00000000 25.82018579
v -7.78137387 -5.00000000 26.02300619
v -7.83660862 -5.00000000 26.22014159
v -7.91817217 -5.00000000 26.40791973
v -8.02454516 -5.00000000 26.58284266
v -8.15374605 -5.00000000 26.74165189
v -8.30336808 -5.00000000 26.88138911
v -7.87264562 -5.00150999 27.91883515
v -8.65239837 -5.00000000 27.09363913
v -8.84530484 -5.00000000 27.16219810
v -9.04575003 -5.00000000 27.20385109
v -9.04575003 5.50000000 27.20385109
v -8.84530484 5.50000000 27.16219810
v -8.65239837 5.50000000 27.09363913
v -8.47062407 5.50000000 26.99945128
v -8.30336808 5.50000000 26.88138911
v -8.15374605 5.50000000 26.74165189
v -8.02454516 5.50000000 26.58284266
v -7.91817217 5.50000000 26.40791973
v -7.83660862 5.50000000 26.22014159
v -7.78137387 5.50000000 26.02300619
v -7.75349685 5.50000000 25.82018579
v -7.75349685 5.50000000 25.61545855
v -7.78137387 5.50000000 25.41263815
v -7.83660862 5.50000000 25.21550276
v -7.91817217 5.50000000 25.02772462
v -8.02454516 5.50000000 24.85280169
v -8.15374605 5.50000000 24.69399246
v -8.30336808 5.50000000 24.55425524
v -8.47062407 5.50000000 24.43619307
v -8.65239837 5.50000000 24.34200522
v -8.84530484 5.50000000 24.27344624
v -9.04575003 5.50000000 24.23179325
v -7.39450009 -5.00006623 23.85028381
v -6.58492888 -5.00054235 25.97717166
v -9.30053959 -5.00061531 23.06968483
v -10.44240162 5.50802355 25.80029432
v -9.90489224 5.49995471 25.42593205
v 10.44421121 -4.00986617 25.21394003
v 16.01157060 -5.00000000 -17.09468089
v 15.85636332 -5.00000000 -17.12625144
v 15.71894033 -5.00000000 -17.17210769
v 15.58667818 -5.00000000 -17.23413835
v 15.46237259 -5.00000000 -17.31131001
v 16.26886595 -5.02262016 -17.39791225
v 27.10153731 -5.00000000 -6.33420502
v 27.30198249 -5.00000000 -6.29255203
v 27.49488897 -5.00000000 -6.22399305
v 27.67666326 -5.00000000 -6.12980521
v 27.84391925 -5.00000000 -6.01174304
v 27.99354128 -5.00000000 -5.87200582
v 28.12274217 -5.00000000 -5.71319658
v 28.22911516 -5.00000000 -5.53827366
v 28.31067872 -5.00000000 -5.35049552
v 28.36591346 -5.00000000 -5.15336012
v 28.39379049 -5.00000000 -4.95053972
v 28.39379049 -5.00000000 -4.74581248
v 28.36591346 -5.00000000 -4.54299208
v 28.31067872 -5.00000000 -4.34585668
v 28.22911516 -5.00000000 -4.15807855
v 28.12274217 -5.00000000 -3.98315562
v 27.99354128 -5.00000000 -3.82434639
v 27.84391925 -5.00000000 -3.68460917
v 27.67666326 -5.00000000 -3.56654699
v 27.49488897 -5.00000000 -3.47235915
v 27.30198249 -5.00000000 -3.40380017
v 27.10153731 -5.00000000 -3.36214718
v 28.17424756 5.50000000 -4.06117383
v 28.26714684 5.50000000 -4.23704197
v 28.33596102 5.50000000 -4.42365517
v 28.37948020 5.50000000 -4.61773237
v 28.39693921 5.50000000 -4.81586127
v 28.38803109 5.50000000 -5.01455834
v 28.35291246 5.50000000 -5.21033004
v 28.29220079 5.50000000 -5.39973430
v 28.20696352 5.50000000 -5.57944096
v 28.09869929 5.50000000 -5.74629040
v 27.96931164 5.50000000 -5.89734905
v 27.82107548 5.50000000 -6.02996096
v 27.65659712 5.50000000 -6.14179453
v 27.47876845 5.50000000 -6.23088349
v 27.29071608 5.50000000 -6.29566145
v 27.09574637 5.50000000 -6.33498948
v 26.97939794 5.57719028 -3.35042517
v 27.17345349 5.57465945 -3.37377699
v 27.29033107 5.56986224 -3.40057799
v 27.40500796 5.56289654 -3.43674426
v 27.54035791 5.55221033 -3.49307752
v 27.64689984 5.54237101 -3.54891744
v 27.74827234 5.53226999 -3.61295987
v 27.87243059 5.51976624 -3.70842712
v 27.96086345 5.51150809 -3.79043817
v 28.04974942 5.50464264 -3.88799515
v 28.11488606 5.50121365 -3.97208278
v 27.89373222 -4.99954869 -7.24006426
v 29.35956802 -5.00047049 -5.88583020
v 29.07445404 -5.00032982 -3.28476294
v 27.33768770 -4.99999607 -2.29181170
v 27.51526663 5.50357108 -3.90662968
v -22.72811235 -5.00000000 -4.69029200
v -23.19720452 -5.02209792 -4.51000444
v -17.44303736 -5.00000000 -22.35567499
v -17.24259218 -5.00000000 -22.31402200
v -17.04968570 -5.00000000 -22.24546302
v -16.86791141 -5.00000000 -22.15127518
v -16.70065542 -5.00000000 -22.03321301
v -16.55103339 -5.00000000 -21.89347579
v -16.42183249 -5.00000000 -21.73466655
v -16.31545950 -5.00000000 -21.55974363
v -16.23389595 -5.00000000 -21.37196549
v -16.17866120 -5.00000000 -21.17483009
v -16.15078418 -5.00000000 -20.97200969
v -16.15078418 -5.00000000 -20.76728245
v -16.17866120 -5.00000000 -20.56446205
v -16.23389595 -5.00000000 -20.36732665
v -16.31545950 -5.00000000 -20.17954852
v -16.42183249 -5.00000000 -20.00462559
v -16.55103339 -5.00000000 -19.84581636
v -16.70065542 -5.00000000 -19.70607914
v -16.86791141 -5.00000000 -19.58801696
v -17.04968570 -5.00000000 -19.49382912
v -17.24259218 -5.00000000 -19.42527014
v -17.44303736 -5.00000000 -19.38361715
v -17.60892316 5.49999101 -22.36925639
v -16.39125228 5.57719028 -21.68963141
v -16.50850333 5.57465945 -21.84601253
v -16.59015246 5.56986224 -21.93383099
v -16.67881182 5.56289654 -22.01506096
v -16.79527283 5.55221033 -22.10411082
v -16.89690258 5.54237101 -22.16845887
v -17.00305120 5.53226999 -22.22422883
v -17.14780739 5.51976624 -22.28401940
v -17.26304747 5.51150809 -22.31959897
v -17.39197729 5.50464264 -22.34779799
v -17.49736762 5.50121365 -22.36216416
v -16.30900535 5.50000000 -20.19214969
v -16.23366331 5.50325953 -20.36781088
v -16.18163033 5.51189329 -20.55050414
v -16.15942925 5.52002373 -20.67949064
v -16.14808035 5.53013431 -20.82222735
v -16.14958794 5.53979598 -20.95269126
v -16.16692850 5.55127458 -21.11110869
v -16.20638327 5.56270127 -21.28647028
v -16.24801490 5.56928820 -21.41006480
v -16.30198205 5.57415009 -21.53311632
v -16.34414909 5.57619170 -21.61251275
v -17.44128424 5.50000000 -19.38385917
v -17.23918507 5.50000000 -19.42622910
v -17.04481977 5.50000000 -19.49595293
v -16.86187170 5.50000000 -19.59170934
v -16.69380788 5.50000000 -19.71168366
v -16.54381326 5.50000000 -19.85360229
v -16.41473034 5.50000000 -20.01477576
v -16.67934253 -4.99956974 -23.27280813
v -15.18497319 -5.00046759 -21.90619685
v -15.33328501 -5.00006223 -19.63032275
v -16.59462061 -4.99977603 -18.50076096
v -17.43504914 5.49963247 -21.75238334
v -16.85905346 5.51616444 -21.65326658
v 16.00280611 2.49392417 -24.27804041
v -40.02029446 0.51948787 -2.02103358
f 6 28 5
f 6 50 28
f 7 49 50
f 7 50 6
f 8 48 49
f 8 49 7
f 9 47 48
f 9 48 8
f 10 46 47
f 10 47 9
f 11 45 46
f 11 46 10
f 12 44 45
f 12 45 11
f 13 43 44
f 13 44 12
f 14 42 43
f 14 43 13
f 15 41 42
f 15 42 14
f 16 40 41
f 16 41 15
f 17 40 16
f 17 39 40
f 18 39 17
f 18 38 39
f 19 38 18
f 19 37 38
f 20 37 19
f 20 36 37
f 21 36 20
f 21 35 36
f 22 35 21
f 22 34 35
f 23 34 22
f 23 33 34
f 24 32 33
f 24 33 23
f 25 32 24
f 25 31 32
f 26 30 31
f 26 31 25
f 27 3 29
f 27 29 30
f 27 30 26
f 4 3 27
f 209 52 53
f 209 53 51
f 209 51 54
f 73 107 96
f 74 105 106
f 74 106 107
f 74 107 73
f 75 103 104
f 75 104 105
f 75 105 74
f 76 101 102
f 76 102 103
f 76 103 75
f 77 100 101
f 77 101 76
f 78 98 99
f 78 99 100
f 78 100 77
f 79 97 98
f 79 98 78
f 80 71 97
f 80 97 79
f 81 70 71
f 81 71 80
f 82 69 70
f 82 70 81
f 83 69 82
f 83 68 69
f 84 68 83
f 84 67 68
f 85 67 84
f 85 66 67
f 86 65 66
f 86 66 85
f 87 64 65
f 87 65 86
f 88 63 64
f 88 64 87
f 89 62 63
f 89 63 88
f 90 61 62
f 90 62 89
f 91 60 61
f 91 61 90
f 92 59 60
f 92 60 91
f 93 58 59
f 93 59 92
f 94 57 58
f 94 58 93
f 95 56 57
f 95 57 94
f 72 55 56
f 72 56 95
f 208 110 109
f 108 964 109
f 964 208 109
f 964 108 1093
f 136 166 159
f 137 165 166
f 137 166 136
f 138 164 165
f 138 165 137
f 139 163 164
f 139 164 138
f 140 162 163
f 140 163 139
f 141 161 162
f 141 162 140
f 142 160 161
f 142 161 141
f 143 122 160
f 143 160 142
f 144 121 122
f 144 122 143
f 145 121 144
f 145 119 120
f 145 120 121
f 146 118 119
f 146 119 145
f 147 118 146
f 147 116 117
f 147 117 118
f 148 114 115
f 148 115 116
f 148 116 147
f 149 114 148
f 149 113 114
f 150 111 112
f 150 112 113
f 150 113 149
f 151 133 111
f 151 111 150
f 152 131 132
f 152 132 133
f 152 133 151
f 153 130 131
f 153 131 152
f 154 128 129
f 154 129 130
f 154 130 153
f 155 127 128
f 155 128 154
f 156 125 126
f 156 126 127
f 156 127 155
f 157 124 125
f 157 125 156
f 158 123 124
f 158 124 157
f 135 134 123
f 135 123 158
f 886 1031 169
f 211 169 168
f 211 886 169
f 211 168 167
f 174 171 172
f 174 170 572
f 174 172 170
f 174 173 171
f 174 782 173
f 174 572 204
f 204 782 174
f 183 732 184
f 183 184 175
f 182 175 176
f 182 183 175
f 181 176 177
f 181 182 176
f 180 177 178
f 180 181 177
f 179 178 714
f 179 180 178
f 170 185 572
f 194 197 193
f 194 198 197
f 195 199 198
f 195 198 194
f 196 200 199
f 196 199 195
f 192 290 200
f 192 200 196
f 191 297 427
f 191 201 297
f 191 190 201
f 202 188 189
f 186 205 189
f 1156 205 2
f 214 206 207
f 520 206 215
f 520 975 206
f 899 1156 203
f 2 203 1156
f 207 204 214
f 214 204 186
f 208 964 210
f 207 208 210
f 215 214 212
f 213 215 212
f 218 217 216
f 552 218 216
f 214 219 212
f 217 1156 216
f 219 186 187
f 975 520 528
f 975 528 223
f 221 202 220
f 551 221 220
f 223 222 565
f 975 223 565
f 228 227 224
f 228 306 227
f 231 224 225
f 231 228 224
f 230 225 226
f 230 231 225
f 229 226 305
f 229 305 233
f 229 230 226
f 232 229 233
f 238 237 234
f 239 234 235
f 239 238 234
f 240 235 236
f 240 239 235
f 257 240 236
f 191 236 307
f 191 257 236
f 361 452 899
f 251 248 494
f 251 247 248
f 242 494 248
f 242 248 550
f 252 247 251
f 252 246 247
f 253 246 252
f 253 245 246
f 250 245 253
f 250 249 245
f 520 494 242
f 243 361 244
f 190 361 243
f 189 452 190
f 187 189 190
f 520 241 493
f 187 350 241
f 256 254 314
f 899 256 357
f 256 550 254
f 550 256 899
f 417 255 415
f 417 256 314
f 417 314 255
f 417 416 305
f 417 305 256
f 493 311 258
f 258 313 494
f 258 494 493
f 414 258 311
f 414 311 257
f 414 413 258
f 414 417 413
f 191 417 414
f 260 261 437
f 266 268 267
f 309 268 266
f 264 270 268
f 264 268 309
f 265 269 255
f 265 255 270
f 265 270 264
f 258 269 265
f 271 269 258
f 279 281 280
f 278 281 279
f 272 281 278
f 274 310 273
f 277 273 272
f 275 274 273
f 275 273 277
f 276 275 277
f 289 282 496
f 288 282 289
f 287 282 288
f 284 308 283
f 286 283 287
f 286 284 283
f 285 284 286
f 296 192 492
f 295 192 296
f 290 192 295
f 292 306 291
f 294 291 290
f 293 292 291
f 293 291 294
f 304 293 294
f 299 298 284
f 299 284 285
f 237 238 298
f 237 298 299
f 301 300 274
f 301 274 275
f 266 267 300
f 266 300 301
f 303 302 292
f 303 292 293
f 227 306 302
f 227 302 303
f 304 303 293
f 304 227 303
f 304 224 227
f 304 225 224
f 304 226 225
f 304 305 226
f 256 305 304
f 305 416 233
f 297 229 232
f 297 232 427
f 297 306 229
f 230 229 306
f 231 230 306
f 228 231 306
f 292 302 306
f 285 237 299
f 285 234 237
f 285 235 234
f 285 236 235
f 285 307 236
f 257 191 414
f 239 240 257
f 238 239 257
f 238 257 308
f 298 238 308
f 284 298 308
f 308 257 311
f 309 301 275
f 309 266 301
f 276 309 275
f 309 265 264
f 309 258 265
f 258 413 271
f 255 269 415
f 268 270 255
f 267 268 255
f 274 300 267
f 310 267 255
f 310 255 314
f 310 274 267
f 357 256 294
f 361 899 357
f 297 201 291
f 190 263 262
f 201 190 262
f 343 191 307
f 343 307 286
f 350 190 191
f 343 350 191
f 312 311 493
f 312 283 311
f 312 493 241
f 258 309 277
f 313 258 277
f 313 259 466
f 494 313 466
f 254 273 314
f 315 254 550
f 318 261 260
f 318 316 261
f 317 254 315
f 317 260 254
f 316 317 315
f 316 318 317
f 245 316 315
f 245 261 316
f 318 260 317
f 315 550 245
f 326 319 312
f 326 312 241
f 327 320 319
f 327 319 326
f 328 321 320
f 328 320 327
f 329 322 321
f 329 321 328
f 330 323 322
f 330 322 329
f 331 324 323
f 331 323 330
f 332 325 324
f 332 324 331
f 282 287 325
f 282 325 332
f 333 321 322
f 333 322 323
f 333 323 324
f 333 324 325
f 333 325 287
f 333 312 319
f 333 319 320
f 333 320 321
f 334 283 312
f 334 283 283
f 334 287 283
f 334 312 333
f 334 333 287
f 335 311 283
f 335 283 283
f 335 283 308
f 335 308 311
f 336 307 285
f 336 285 286
f 336 286 286
f 336 286 307
f 288 337 287
f 344 338 337
f 344 337 288
f 345 339 338
f 345 338 344
f 346 340 339
f 346 339 345
f 347 341 340
f 347 340 346
f 348 342 341
f 348 341 347
f 349 343 342
f 349 342 348
f 350 343 349
f 351 340 341
f 351 341 342
f 351 342 343
f 351 287 337
f 351 337 338
f 351 338 339
f 351 339 340
f 352 287 351
f 352 351 343
f 352 286 287
f 352 286 286
f 352 343 286
f 256 304 294
f 295 353 290
f 358 354 353
f 358 353 295
f 359 355 354
f 359 354 358
f 360 356 355
f 360 355 359
f 465 357 356
f 465 356 360
f 361 357 465
f 290 353 354
f 290 354 355
f 290 355 356
f 290 356 357
f 290 357 294
f 362 262 263
f 362 366 262
f 363 367 366
f 363 366 362
f 364 368 367
f 364 367 363
f 365 369 368
f 365 368 364
f 193 197 369
f 193 369 365
f 370 201 262
f 370 197 198
f 370 198 199
f 370 199 200
f 370 200 290
f 370 262 366
f 370 366 367
f 370 367 368
f 370 368 369
f 370 369 197
f 371 291 201
f 371 291 291
f 371 290 291
f 371 201 370
f 371 370 290
f 372 297 291
f 372 291 291
f 372 291 306
f 372 306 297
f 373 309 276
f 373 276 277
f 373 277 277
f 373 277 309
f 278 374 272
f 382 375 374
f 382 374 278
f 383 376 375
f 383 375 382
f 384 377 376
f 384 376 383
f 385 378 377
f 385 377 384
f 386 379 378
f 386 378 385
f 387 380 379
f 387 379 386
f 388 381 380
f 388 380 387
f 389 259 381
f 389 381 388
f 466 259 389
f 390 259 313
f 390 377 378
f 390 378 379
f 390 379 380
f 390 380 381
f 390 381 259
f 390 272 374
f 390 374 375
f 390 375 376
f 390 376 377
f 391 272 390
f 391 390 313
f 391 277 272
f 391 277 277
f 391 313 277
f 400 392 260
f 400 260 437
f 401 393 392
f 401 392 400
f 402 394 393
f 402 393 401
f 403 395 394
f 403 394 402
f 404 396 395
f 404 395 403
f 405 397 396
f 405 396 404
f 406 398 397
f 406 397 405
f 407 399 398
f 407 398 406
f 281 272 399
f 281 399 407
f 408 254 260
f 408 260 392
f 408 392 393
f 408 393 394
f 408 394 395
f 408 395 396
f 408 396 397
f 408 397 398
f 408 398 399
f 408 399 272
f 409 273 254
f 409 273 273
f 409 272 273
f 409 254 408
f 409 408 272
f 410 314 273
f 410 273 273
f 410 273 310
f 410 310 314
f 271 413 411
f 413 417 415
f 411 415 412
f 411 413 415
f 271 412 269
f 271 411 412
f 415 269 412
f 426 416 417
f 426 417 427
f 425 416 426
f 420 416 421
f 419 416 420
f 418 416 419
f 233 416 418
f 416 422 421
f 416 423 422
f 416 424 423
f 416 425 424
f 417 191 427
f 426 427 436
f 425 436 435
f 425 426 436
f 424 435 434
f 424 425 435
f 423 434 433
f 423 424 434
f 422 433 432
f 422 423 433
f 421 432 431
f 421 422 432
f 420 431 430
f 420 421 431
f 419 430 429
f 419 420 430
f 418 429 428
f 418 419 429
f 233 428 232
f 233 418 428
f 427 435 436
f 427 430 431
f 427 429 430
f 232 428 429
f 232 429 427
f 427 431 432
f 427 432 433
f 427 433 434
f 427 434 435
f 245 247 246
f 245 248 247
f 550 248 245
f 245 437 261
f 245 249 437
f 439 400 437
f 401 400 439
f 402 401 439
f 403 402 439
f 405 404 438
f 406 405 438
f 407 406 438
f 281 438 280
f 281 407 438
f 439 438 404
f 439 404 403
f 440 280 438
f 439 441 440
f 439 440 438
f 439 442 441
f 439 443 442
f 439 444 443
f 437 445 444
f 437 446 445
f 437 444 439
f 437 447 446
f 437 448 447
f 437 449 448
f 451 450 449
f 451 249 450
f 451 249 249
f 451 437 249
f 451 449 437
f 452 361 190
f 463 249 250
f 463 449 450
f 463 450 249
f 462 448 449
f 462 449 463
f 461 447 448
f 461 448 462
f 460 446 447
f 460 447 461
f 459 445 446
f 459 446 460
f 458 444 445
f 458 445 459
f 457 443 444
f 457 444 458
f 456 442 443
f 456 443 457
f 455 441 442
f 455 442 456
f 454 440 441
f 454 441 455
f 453 280 440
f 453 440 454
f 279 280 453
f 359 465 360
f 464 465 359
f 358 464 359
f 295 464 358
f 296 464 295
f 467 279 453
f 468 462 463
f 468 463 250
f 468 460 461
f 468 461 462
f 468 459 460
f 468 457 458
f 468 458 459
f 468 456 457
f 468 454 455
f 468 455 456
f 467 453 454
f 467 468 466
f 467 454 468
f 466 389 388
f 467 388 387
f 467 466 388
f 467 387 386
f 384 467 385
f 383 467 384
f 382 467 383
f 278 467 382
f 279 467 278
f 467 386 385
f 464 296 478
f 479 244 244
f 479 469 244
f 479 470 469
f 479 244 361
f 480 361 465
f 480 479 361
f 480 470 479
f 480 472 471
f 465 473 472
f 465 474 473
f 465 472 480
f 465 475 474
f 465 476 475
f 465 477 476
f 465 478 477
f 465 464 478
f 494 468 250
f 494 466 468
f 244 481 243
f 469 482 481
f 469 481 244
f 470 483 482
f 470 482 469
f 480 483 470
f 471 484 483
f 471 483 480
f 472 485 484
f 472 484 471
f 473 486 485
f 473 485 472
f 474 487 486
f 474 486 473
f 475 488 487
f 475 487 474
f 476 489 488
f 476 488 475
f 477 490 489
f 477 489 476
f 478 491 490
f 478 490 477
f 296 492 491
f 296 491 478
f 494 253 252
f 494 250 253
f 494 252 251
f 363 263 492
f 363 362 263
f 364 363 492
f 365 364 492
f 194 193 492
f 195 194 492
f 196 195 492
f 192 196 492
f 492 193 365
f 492 490 491
f 263 488 489
f 263 489 490
f 263 490 492
f 263 487 488
f 263 485 486
f 263 486 487
f 263 484 485
f 263 482 483
f 263 483 484
f 243 481 482
f 243 482 263
f 494 520 493
f 190 243 263
f 241 507 495
f 326 241 496
f 327 326 496
f 328 327 496
f 330 329 496
f 331 330 496
f 332 331 496
f 282 332 496
f 496 329 328
f 496 498 497
f 495 499 498
f 495 500 499
f 495 498 496
f 495 496 241
f 495 501 500
f 506 502 501
f 506 503 502
f 506 501 495
f 506 495 507
f 507 504 506
f 507 505 504
f 350 187 190
f 350 507 241
f 516 505 507
f 516 507 350
f 515 504 505
f 515 505 516
f 519 504 515
f 514 503 506
f 514 506 504
f 514 504 519
f 513 502 503
f 513 503 514
f 512 501 502
f 512 502 513
f 511 500 501
f 511 501 512
f 510 500 511
f 509 498 499
f 509 499 500
f 509 500 510
f 508 497 498
f 508 498 509
f 518 497 508
f 289 496 497
f 289 497 518
f 519 515 516
f 519 516 350
f 519 350 517
f 519 513 514
f 517 511 512
f 517 512 513
f 517 513 519
f 517 510 511
f 510 517 350
f 510 508 509
f 518 508 510
f 518 510 350
f 518 350 349
f 518 349 348
f 346 518 347
f 345 518 346
f 344 518 345
f 288 518 344
f 289 518 288
f 518 348 347
f 520 219 187
f 241 520 187
f 528 520 242
f 526 242 527
f 528 526 525
f 528 242 526
f 528 524 523
f 528 525 524
f 528 523 522
f 223 522 521
f 223 528 522
f 188 535 534
f 188 202 535
f 188 533 532
f 188 534 533
f 188 532 531
f 188 530 529
f 188 531 530
f 188 529 189
f 242 550 542
f 527 542 541
f 527 242 542
f 526 541 540
f 526 527 541
f 525 540 539
f 525 526 540
f 524 539 538
f 524 525 539
f 523 538 537
f 523 524 538
f 522 537 536
f 522 523 537
f 521 536 222
f 521 522 536
f 223 521 222
f 535 202 221
f 535 221 548
f 534 548 547
f 534 535 548
f 533 547 546
f 533 534 547
f 532 549 545
f 532 546 549
f 532 533 546
f 531 545 544
f 531 532 545
f 530 544 543
f 530 531 544
f 529 543 452
f 529 530 543
f 189 529 452
f 565 541 542
f 565 542 550
f 565 222 536
f 565 540 541
f 565 538 539
f 565 539 540
f 565 537 538
f 565 536 537
f 548 221 551
f 452 543 544
f 551 546 547
f 551 547 548
f 549 546 551
f 549 544 545
f 549 452 544
f 551 899 452
f 551 452 549
f 186 219 214
f 189 187 186
f 552 202 189
f 553 212 219
f 219 554 553
f 219 555 554
f 213 212 553
f 556 553 554
f 556 213 553
f 557 554 555
f 557 556 554
f 558 555 219
f 558 557 555
f 520 558 219
f 220 202 559
f 202 560 559
f 202 561 560
f 202 552 561
f 556 215 213
f 215 556 557
f 215 557 558
f 215 558 520
f 561 552 216
f 561 216 564
f 560 564 563
f 560 561 564
f 559 563 562
f 559 560 563
f 220 562 551
f 220 559 562
f 564 216 1156
f 1156 562 563
f 1156 563 564
f 1156 551 562
f 551 1156 899
f 899 211 565
f 565 550 899
f 211 975 565
f 566 217 218
f 566 1156 217
f 552 566 218
f 205 566 552
f 189 205 552
f 214 215 206
f 1156 566 205
f 570 567 568
f 570 568 574
f 570 569 567
f 570 582 569
f 570 574 582
f 571 760 572
f 572 185 573
f 567 575 574
f 567 576 575
f 567 574 568
f 572 573 576
f 572 576 567
f 573 577 576
f 578 674 580
f 674 579 580
f 581 575 576
f 581 576 674
f 575 582 574
f 575 581 582
f 582 583 584
f 586 583 585
f 586 585 760
f 588 584 583
f 588 583 586
f 587 582 584
f 587 569 582
f 587 584 588
f 571 567 569
f 571 569 587
f 572 567 571
f 587 760 571
f 586 760 588
f 760 587 588
f 185 589 590
f 592 589 591
f 592 591 865
f 594 590 589
f 594 589 592
f 593 185 590
f 593 573 185
f 593 590 594
f 593 863 573
f 592 865 594
f 863 593 594
f 863 594 865
f 866 573 863
f 573 868 577
f 573 866 868
f 577 595 596
f 597 674 578
f 595 578 580
f 595 597 578
f 596 580 579
f 596 595 580
f 577 596 579
f 576 579 674
f 576 577 579
f 871 607 606
f 871 599 607
f 598 601 600
f 598 602 601
f 598 603 602
f 598 604 603
f 598 605 604
f 598 606 605
f 598 871 606
f 597 868 608
f 597 608 674
f 665 610 609
f 665 611 610
f 665 612 611
f 665 613 612
f 665 614 613
f 665 615 614
f 665 616 615
f 665 600 616
f 626 600 601
f 625 601 602
f 625 626 601
f 624 602 603
f 624 625 602
f 623 603 604
f 623 624 603
f 622 604 605
f 622 623 604
f 621 605 606
f 621 622 605
f 620 606 607
f 620 621 606
f 619 607 599
f 619 620 607
f 618 599 617
f 618 619 599
f 973 618 617
f 635 886 636
f 635 636 609
f 634 609 610
f 634 635 609
f 633 610 611
f 633 634 610
f 632 611 612
f 632 633 611
f 631 612 613
f 631 632 612
f 630 613 614
f 630 631 613
f 629 614 615
f 629 630 614
f 628 615 616
f 628 629 615
f 627 616 600
f 627 628 616
f 645 661 644
f 646 644 643
f 646 645 644
f 646 647 645
f 648 643 642
f 648 646 643
f 648 647 646
f 649 640 639
f 650 639 638
f 650 649 639
f 651 637 636
f 651 638 637
f 651 650 638
f 652 636 886
f 652 650 651
f 652 651 636
f 652 653 647
f 652 647 649
f 652 649 650
f 899 647 653
f 899 661 645
f 899 645 647
f 211 899 653
f 886 653 652
f 654 641 640
f 654 642 641
f 654 648 642
f 654 647 648
f 654 640 649
f 654 649 647
f 886 211 653
f 660 657 656
f 660 669 657
f 660 655 609
f 660 656 655
f 661 642 643
f 661 643 644
f 661 658 659
f 662 639 640
f 663 638 639
f 663 662 659
f 663 639 662
f 664 609 636
f 664 636 637
f 664 637 638
f 664 663 659
f 664 659 660
f 664 638 663
f 664 660 609
f 669 660 659
f 669 659 658
f 641 642 661
f 641 661 659
f 641 659 662
f 641 662 640
f 668 658 666
f 668 669 658
f 668 666 673
f 668 673 667
f 669 668 667
f 670 657 669
f 671 656 657
f 671 670 667
f 671 657 670
f 672 665 609
f 672 609 655
f 672 655 656
f 672 671 667
f 672 667 665
f 672 656 671
f 665 667 673
f 669 667 670
f 608 666 674
f 673 608 665
f 673 666 608
f 582 585 583
f 582 677 585
f 692 712 678
f 682 692 678
f 675 679 676
f 683 679 680
f 683 680 681
f 683 681 682
f 683 682 678
f 683 676 679
f 684 581 676
f 684 677 581
f 684 676 683
f 684 683 678
f 689 675 685
f 689 679 675
f 689 680 679
f 689 687 688
f 689 685 687
f 690 681 680
f 690 680 689
f 690 689 688
f 691 712 692
f 691 686 712
f 687 691 688
f 692 682 681
f 692 690 688
f 692 681 690
f 692 688 691
f 702 694 695
f 702 695 696
f 703 698 699
f 703 699 700
f 703 700 701
f 703 701 693
f 687 685 702
f 687 702 697
f 703 686 691
f 703 693 686
f 697 702 696
f 697 698 703
f 703 691 687
f 703 687 697
f 712 759 704
f 712 711 710
f 712 686 711
f 712 705 759
f 712 706 705
f 712 707 706
f 712 708 707
f 712 709 708
f 712 710 709
f 704 678 712
f 704 677 684
f 704 684 678
f 585 677 713
f 585 713 760
f 761 759 714
f 714 176 175
f 714 177 176
f 714 178 177
f 714 175 761
f 714 759 715
f 714 717 716
f 714 718 717
f 714 715 718
f 727 759 705
f 726 705 706
f 726 727 705
f 725 706 707
f 725 726 706
f 724 707 708
f 724 725 707
f 723 708 709
f 723 724 708
f 722 709 710
f 722 723 709
f 721 710 711
f 721 722 710
f 720 711 686
f 720 721 711
f 719 686 693
f 719 720 686
f 889 719 693
f 179 714 716
f 731 716 717
f 731 179 716
f 730 717 718
f 730 731 717
f 729 718 715
f 729 730 718
f 728 729 715
f 742 740 739
f 742 741 740
f 743 739 738
f 743 742 739
f 744 736 735
f 745 735 734
f 745 744 735
f 746 733 184
f 746 734 733
f 746 745 734
f 747 204 741
f 747 742 743
f 747 743 748
f 747 741 742
f 747 748 749
f 750 184 732
f 750 748 744
f 750 745 746
f 750 746 184
f 750 749 748
f 750 744 745
f 204 747 749
f 732 749 750
f 732 925 749
f 751 737 736
f 751 738 737
f 751 748 743
f 751 736 744
f 751 744 748
f 751 743 738
f 204 749 925
f 754 740 741
f 754 752 753
f 754 741 752
f 755 738 739
f 755 739 740
f 755 754 753
f 755 740 754
f 756 735 736
f 757 734 735
f 757 735 756
f 757 756 753
f 758 175 184
f 758 184 733
f 758 733 734
f 758 753 752
f 758 752 175
f 758 757 753
f 758 734 757
f 737 756 736
f 737 738 755
f 737 755 753
f 737 753 756
f 761 752 741
f 761 175 752
f 759 760 713
f 185 591 589
f 185 170 591
f 775 801 762
f 766 775 762
f 171 763 172
f 767 763 764
f 767 764 765
f 767 765 766
f 767 766 762
f 767 172 763
f 768 170 172
f 768 172 767
f 768 767 762
f 773 171 173
f 773 763 171
f 773 764 763
f 773 173 770
f 773 770 771
f 774 765 764
f 774 773 771
f 774 764 773
f 772 801 775
f 772 769 801
f 770 772 771
f 775 766 765
f 775 765 774
f 775 771 772
f 775 774 771
f 782 777 778
f 782 778 779
f 784 780 781
f 783 784 781
f 770 173 782
f 770 782 784
f 784 769 772
f 784 776 769
f 784 783 776
f 784 782 779
f 784 772 770
f 793 803 794
f 792 794 795
f 792 793 794
f 791 795 796
f 791 792 795
f 790 796 797
f 790 791 796
f 789 797 798
f 789 790 797
f 788 798 799
f 788 789 798
f 787 799 800
f 787 788 799
f 786 800 769
f 786 787 800
f 785 769 776
f 785 786 769
f 926 785 776
f 801 800 799
f 801 769 800
f 801 794 803
f 801 795 794
f 801 796 795
f 801 797 796
f 801 798 797
f 801 799 798
f 803 762 801
f 803 170 768
f 803 768 762
f 591 170 802
f 591 802 865
f 803 854 862
f 803 805 804
f 803 806 805
f 803 807 806
f 803 808 807
f 803 809 808
f 803 810 809
f 803 811 810
f 820 964 821
f 820 821 804
f 819 804 805
f 819 820 804
f 818 805 806
f 818 819 805
f 817 806 807
f 817 818 806
f 816 807 808
f 816 817 807
f 815 808 809
f 815 816 808
f 814 809 810
f 814 815 809
f 813 810 811
f 813 814 810
f 812 811 803
f 812 813 811
f 832 830 829
f 832 831 830
f 833 829 828
f 833 832 829
f 834 828 827
f 834 833 828
f 835 825 824
f 836 824 823
f 836 835 824
f 837 822 821
f 837 823 822
f 837 836 823
f 838 975 831
f 838 840 839
f 838 831 832
f 838 834 840
f 838 833 834
f 838 832 833
f 841 821 964
f 841 837 821
f 841 839 840
f 841 840 835
f 841 836 837
f 841 835 836
f 975 838 839
f 964 839 841
f 842 826 825
f 842 827 826
f 842 834 827
f 842 840 834
f 842 835 840
f 842 825 835
f 208 975 839
f 208 839 964
f 847 845 844
f 847 858 845
f 847 843 804
f 847 844 843
f 849 831 846
f 849 829 830
f 849 830 831
f 849 846 848
f 850 827 828
f 850 828 829
f 850 829 849
f 850 849 848
f 851 824 825
f 852 823 824
f 852 851 848
f 852 824 851
f 853 804 821
f 853 821 822
f 853 822 823
f 853 847 804
f 853 823 852
f 853 852 848
f 853 848 847
f 858 847 848
f 858 848 846
f 826 848 851
f 826 851 825
f 826 850 848
f 826 827 850
f 857 846 855
f 857 858 846
f 857 855 864
f 857 864 856
f 858 857 856
f 859 845 858
f 860 844 845
f 860 859 856
f 860 845 859
f 861 803 804
f 861 804 843
f 861 843 844
f 861 854 803
f 861 844 860
f 861 860 856
f 861 856 854
f 864 854 856
f 858 856 859
f 863 862 854
f 854 855 863
f 864 855 854
f 862 865 802
f 862 863 865
f 577 597 595
f 577 868 597
f 871 866 867
f 868 866 871
f 868 871 598
f 867 869 871
f 870 871 869
f 882 872 873
f 882 873 874
f 882 874 875
f 882 875 876
f 870 878 879
f 870 879 880
f 870 880 881
f 870 881 617
f 869 867 872
f 869 882 877
f 869 872 882
f 870 599 871
f 870 617 599
f 877 882 876
f 877 878 870
f 870 869 877
f 973 619 618
f 973 620 619
f 973 621 620
f 623 622 973
f 624 623 973
f 883 624 973
f 625 624 883
f 626 625 883
f 973 622 621
f 883 973 884
f 626 883 885
f 626 885 627
f 600 626 627
f 598 665 608
f 598 600 665
f 868 598 608
f 886 887 973
f 634 886 635
f 633 886 634
f 632 886 633
f 630 886 631
f 629 887 886
f 629 886 630
f 628 887 629
f 627 885 887
f 627 887 628
f 886 632 631
f 677 582 581
f 666 581 674
f 888 675 676
f 888 676 581
f 666 658 661
f 888 685 675
f 888 702 685
f 899 581 666
f 888 581 899
f 899 666 661
f 899 702 888
f 890 701 700
f 890 693 701
f 891 700 699
f 891 890 700
f 891 892 890
f 893 699 698
f 893 892 891
f 893 891 699
f 894 696 695
f 895 695 694
f 895 894 695
f 895 892 894
f 896 694 702
f 896 892 895
f 896 895 694
f 897 889 693
f 897 693 890
f 897 890 892
f 899 896 702
f 899 892 896
f 889 897 899
f 898 697 696
f 898 698 697
f 898 696 894
f 898 894 892
f 898 893 698
f 898 892 893
f 899 897 892
f 203 889 899
f 902 720 719
f 902 719 889
f 902 721 720
f 902 722 721
f 724 723 902
f 725 724 902
f 901 725 902
f 726 725 901
f 727 726 901
f 900 727 901
f 902 723 722
f 900 903 728
f 727 900 728
f 715 727 728
f 759 727 715
f 677 704 759
f 677 759 713
f 889 913 912
f 901 904 900
f 889 911 910
f 889 912 911
f 889 908 907
f 889 909 908
f 889 910 909
f 902 907 906
f 902 889 907
f 902 905 904
f 902 906 905
f 902 904 901
f 182 732 183
f 181 732 182
f 180 732 181
f 731 903 732
f 731 732 179
f 730 903 731
f 729 903 730
f 728 903 729
f 732 180 179
f 209 923 924
f 732 921 922
f 732 922 923
f 732 923 209
f 732 920 921
f 732 919 920
f 732 918 919
f 732 917 918
f 732 916 917
f 732 915 916
f 732 903 914
f 732 914 915
f 759 572 760
f 741 759 761
f 741 572 759
f 741 204 572
f 927 783 781
f 927 776 783
f 928 781 780
f 928 929 927
f 928 927 781
f 930 779 778
f 931 778 777
f 931 930 778
f 931 929 930
f 932 777 782
f 932 931 777
f 932 929 931
f 933 926 776
f 933 927 929
f 933 776 927
f 204 929 932
f 204 932 782
f 934 926 933
f 935 784 779
f 935 780 784
f 935 929 928
f 935 779 930
f 935 930 929
f 935 928 780
f 934 933 929
f 934 929 204
f 1155 934 204
f 1155 926 934
f 938 786 785
f 938 785 926
f 938 787 786
f 938 788 787
f 790 789 938
f 791 790 938
f 937 791 938
f 792 791 937
f 793 792 937
f 936 793 937
f 938 789 788
f 793 936 939
f 793 939 812
f 803 793 812
f 170 803 862
f 170 862 802
f 978 949 948
f 937 940 936
f 978 947 946
f 978 948 947
f 978 944 943
f 978 945 944
f 978 946 945
f 938 943 942
f 938 978 943
f 938 926 978
f 938 941 940
f 938 942 941
f 938 940 937
f 819 964 820
f 818 964 819
f 817 964 818
f 815 951 964
f 815 964 816
f 814 951 815
f 813 950 951
f 813 951 814
f 812 939 950
f 812 950 813
f 964 817 816
f 950 952 951
f 939 952 950
f 963 961 962
f 963 962 210
f 963 210 210
f 963 210 964
f 964 959 960
f 964 960 961
f 964 961 963
f 964 958 959
f 964 957 958
f 964 956 957
f 964 955 956
f 964 954 955
f 964 953 954
f 964 951 952
f 964 952 953
f 855 866 863
f 855 846 831
f 866 872 867
f 975 855 831
f 975 866 855
f 975 872 866
f 965 881 880
f 965 617 881
f 966 880 879
f 966 967 965
f 966 965 880
f 968 879 878
f 968 967 966
f 968 966 879
f 969 876 875
f 970 875 874
f 970 969 875
f 970 967 969
f 971 873 872
f 971 874 873
f 971 967 970
f 971 970 874
f 972 973 617
f 972 617 965
f 972 965 967
f 975 971 872
f 975 967 971
f 973 972 975
f 974 877 876
f 974 878 877
f 974 876 969
f 974 969 967
f 974 967 968
f 974 968 878
f 975 972 967
f 973 211 886
f 884 973 887
f 884 887 885
f 883 884 885
f 2 209 924
f 977 2 924
f 976 924 923
f 976 977 924
f 889 976 923
f 913 923 922
f 913 889 923
f 912 922 921
f 912 913 922
f 911 921 920
f 911 912 921
f 910 920 919
f 910 911 920
f 909 919 918
f 909 910 919
f 908 909 918
f 907 918 917
f 907 908 918
f 906 917 916
f 906 907 917
f 905 906 916
f 905 916 915
f 904 905 915
f 904 915 914
f 900 904 914
f 900 914 903
f 204 732 209
f 732 204 925
f 1155 978 926
f 984 207 210
f 983 210 962
f 983 984 210
f 982 983 962
f 981 982 962
f 980 981 962
f 979 962 961
f 979 980 962
f 978 979 961
f 949 961 960
f 949 978 961
f 948 960 959
f 948 949 960
f 947 959 958
f 947 948 959
f 946 958 957
f 946 947 958
f 945 957 956
f 945 946 957
f 944 945 956
f 943 956 955
f 943 944 956
f 942 955 954
f 942 943 955
f 941 954 953
f 941 942 954
f 940 941 953
f 940 953 952
f 936 940 952
f 936 952 939
f 1034 975 211
f 975 1034 973
f 135 1028 134
f 985 1027 1028
f 985 1028 135
f 986 1026 1027
f 986 1027 985
f 987 1025 1026
f 987 1026 986
f 988 1024 1025
f 988 1025 987
f 989 1023 1024
f 989 1024 988
f 990 1022 1023
f 990 1023 989
f 991 1021 1022
f 991 1022 990
f 992 1020 1021
f 992 1021 991
f 993 1019 1020
f 993 1020 992
f 994 1018 1019
f 994 1019 993
f 995 1018 994
f 996 1018 995
f 996 1017 1018
f 997 1017 996
f 997 1016 1017
f 998 1016 997
f 998 1015 1016
f 999 1015 998
f 999 1014 1015
f 1000 1014 999
f 1000 1013 1014
f 1001 1013 1000
f 1001 1011 1012
f 1001 1012 1013
f 1002 1011 1001
f 1002 1010 1011
f 1003 1010 1002
f 1004 1009 1010
f 1004 1010 1003
f 1005 1008 1009
f 1005 1009 1004
f 1006 159 1007
f 1006 1007 1008
f 1006 1008 1005
f 136 159 1006
f 1003 211 167
f 211 1003 1030
f 886 1030 1029
f 886 1029 1031
f 1030 886 211
f 141 168 142
f 143 142 168
f 140 168 141
f 140 167 168
f 144 143 168
f 139 167 140
f 145 144 168
f 138 167 139
f 146 145 168
f 137 167 138
f 147 146 168
f 136 167 137
f 148 168 169
f 148 147 168
f 1006 167 136
f 149 148 169
f 1005 1003 167
f 1005 167 1006
f 150 149 169
f 1004 1003 1005
f 151 150 169
f 152 151 169
f 153 152 169
f 1003 1002 1001
f 154 153 169
f 1003 1001 1000
f 999 1003 1000
f 169 155 154
f 169 156 155
f 1030 1003 999
f 1031 156 169
f 1030 998 997
f 1030 999 998
f 1031 157 156
f 1031 158 157
f 1030 997 996
f 1031 135 158
f 1030 995 994
f 1030 996 995
f 1031 985 135
f 1031 986 985
f 1031 987 986
f 1030 994 993
f 1029 987 1031
f 1029 1030 993
f 1029 992 991
f 1029 993 992
f 1029 988 987
f 1029 991 990
f 1029 989 988
f 1029 990 989
f 112 111 1032
f 121 1032 122
f 120 1032 121
f 119 1032 120
f 118 117 1032
f 118 1032 119
f 1032 113 112
f 1032 114 113
f 1032 115 114
f 1032 116 115
f 1032 117 116
f 133 1032 111
f 132 1032 133
f 131 1032 132
f 130 1032 131
f 129 1032 130
f 124 123 1033
f 128 1032 129
f 125 124 1033
f 127 1033 1032
f 127 1032 128
f 126 125 1033
f 126 1033 127
f 1032 160 122
f 1032 161 160
f 1032 162 161
f 1032 163 162
f 1032 164 163
f 1033 1007 159
f 1033 1008 1007
f 1033 165 164
f 1033 166 165
f 1033 159 166
f 1033 164 1032
f 1009 1008 1033
f 1010 1009 1033
f 1011 1010 1033
f 1012 1011 1033
f 1013 1012 1033
f 1014 1013 1033
f 1015 1014 1033
f 1016 1015 1033
f 1017 1016 1033
f 134 1033 123
f 1018 1017 1033
f 1028 1033 134
f 1019 1018 1033
f 1027 1033 1028
f 1020 1019 1033
f 1026 1033 1027
f 1021 1020 1033
f 1025 1033 1026
f 1022 1021 1033
f 1024 1033 1025
f 1023 1022 1033
f 1023 1033 1024
f 1034 211 973
f 975 208 206
f 208 207 206
f 186 209 205
f 186 204 209
f 209 2 205
f 204 207 1155
f 1040 1035 1036
f 1040 1036 1037
f 1038 1040 1037
f 1039 1040 1038
f 1155 1040 1039
f 72 1078 55
f 1041 1077 1078
f 1041 1078 72
f 1042 1076 1077
f 1042 1077 1041
f 1043 1075 1076
f 1043 1076 1042
f 1044 1074 1075
f 1044 1075 1043
f 1045 1073 1074
f 1045 1074 1044
f 1046 1072 1073
f 1046 1073 1045
f 1047 1071 1072
f 1047 1072 1046
f 1048 1070 1071
f 1048 1071 1047
f 1049 1069 1070
f 1049 1070 1048
f 1050 1068 1069
f 1050 1069 1049
f 1051 1067 1068
f 1051 1068 1050
f 1052 1067 1051
f 1052 1066 1067
f 1053 1066 1052
f 1053 1065 1066
f 1054 1065 1053
f 1054 1064 1065
f 1055 1064 1054
f 1055 1063 1064
f 1056 1063 1055
f 1056 1088 1089
f 1056 1089 1063
f 1057 1088 1056
f 1057 1087 1088
f 1058 1087 1057
f 1058 1085 1086
f 1058 1086 1087
f 1059 1085 1058
f 1059 1083 1084
f 1059 1084 1085
f 1060 1083 1059
f 1060 1082 1083
f 1061 1080 1081
f 1061 1081 1082
f 1061 1082 1060
f 1062 1079 1080
f 1062 1080 1061
f 73 96 1079
f 73 1079 1062
f 208 964 1093
f 208 1093 1092
f 1091 208 1092
f 1090 110 208
f 1090 208 1091
f 1054 1053 1092
f 1052 1092 1053
f 1055 1054 1092
f 1051 1092 1052
f 1051 1091 1092
f 1056 1055 1092
f 1050 1091 1051
f 1057 1056 1092
f 1049 1091 1050
f 1058 1057 1092
f 1048 1091 1049
f 1059 1058 1092
f 1059 1092 1093
f 1047 1091 1048
f 1060 1059 1093
f 1046 1091 1047
f 1061 1060 1093
f 1045 1091 1046
f 1062 1061 1093
f 1044 1090 1091
f 1044 1091 1045
f 73 1062 1093
f 1043 1090 1044
f 74 1093 108
f 74 73 1093
f 1042 1090 1043
f 108 75 74
f 1090 1042 1041
f 108 76 75
f 110 1041 72
f 110 72 95
f 110 1090 1041
f 108 77 76
f 108 78 77
f 110 94 93
f 110 95 94
f 108 79 78
f 110 93 92
f 108 80 79
f 108 81 80
f 110 91 90
f 110 92 91
f 109 81 108
f 109 82 81
f 110 90 89
f 109 83 82
f 109 84 83
f 109 110 89
f 109 89 88
f 109 85 84
f 109 87 86
f 109 88 87
f 109 86 85
f 1080 1079 1094
f 1089 1094 1063
f 1088 1094 1089
f 1087 1094 1088
f 1086 1085 1094
f 1086 1094 1087
f 1094 1081 1080
f 1094 1082 1081
f 1094 1083 1082
f 1094 1084 1083
f 1094 1085 1084
f 96 1094 1079
f 107 1094 96
f 106 1094 107
f 105 1094 106
f 104 1094 105
f 103 1094 104
f 97 71 1094
f 102 1094 103
f 98 97 1094
f 101 1094 102
f 99 98 1094
f 100 1094 101
f 100 99 1094
f 1094 65 64
f 1094 66 65
f 1094 67 66
f 1094 68 67
f 1094 69 68
f 1094 70 69
f 1094 71 70
f 63 1094 64
f 62 1094 63
f 61 1094 62
f 60 1094 61
f 59 1094 60
f 1064 1063 1094
f 58 1094 59
f 1065 1064 1094
f 57 1094 58
f 1066 1065 1094
f 56 1094 57
f 1067 1066 1094
f 55 1094 56
f 1068 1067 1094
f 1078 1094 55
f 1069 1068 1094
f 1077 1094 1078
f 1070 1069 1094
f 1076 1094 1077
f 1071 1070 1094
f 1075 1094 1076
f 1072 1071 1094
f 1074 1094 1075
f 1073 1072 1094
f 1073 1094 1074
f 1 1096 2
f 1095 1096 1
f 4 1119 3
f 4 1130 1119
f 1097 1129 1130
f 1097 1130 4
f 1098 1127 1128
f 1098 1128 1129
f 1098 1129 1097
f 1099 1126 1127
f 1099 1127 1098
f 1100 1124 1125
f 1100 1125 1126
f 1100 1126 1099
f 1101 1122 1123
f 1101 1123 1124
f 1101 1124 1100
f 1102 1121 1122
f 1102 1122 1101
f 1103 1120 1121
f 1103 1141 1120
f 1103 1121 1102
f 1104 1141 1103
f 1104 1139 1140
f 1104 1140 1141
f 1105 1139 1104
f 1105 1138 1139
f 1106 1138 1105
f 1106 1137 1138
f 1107 1137 1106
f 1107 1135 1136
f 1107 1136 1137
f 1108 1135 1107
f 1108 1134 1135
f 1109 1134 1108
f 1109 1133 1134
f 1110 1131 1132
f 1110 1132 1133
f 1110 1133 1109
f 1111 1131 1110
f 1111 1148 1131
f 1112 1148 1111
f 1112 1147 1148
f 1113 1147 1112
f 1113 1146 1147
f 1114 1146 1113
f 1114 1145 1146
f 1115 1144 1145
f 1115 1145 1114
f 1116 1143 1144
f 1116 1144 1115
f 1117 1142 1143
f 1117 1143 1116
f 1118 28 1142
f 1118 1142 1117
f 5 28 1118
f 1152 209 54
f 209 1152 1151
f 1150 209 1151
f 1149 52 209
f 209 1150 1149
f 27 26 52
f 25 52 26
f 4 27 52
f 24 52 25
f 1097 52 1149
f 1097 4 52
f 23 52 24
f 1098 1097 1149
f 22 52 23
f 1099 1098 1149
f 21 52 22
f 21 53 52
f 1100 1149 1150
f 1100 1099 1149
f 20 53 21
f 1101 1100 1150
f 19 53 20
f 1102 1101 1150
f 18 53 19
f 1103 1102 1150
f 17 53 18
f 1104 1103 1150
f 16 53 17
f 1105 1104 1150
f 15 53 16
f 1150 1106 1105
f 53 15 14
f 1150 1107 1106
f 51 14 13
f 51 53 14
f 1151 1108 1107
f 1151 1107 1150
f 51 13 12
f 1151 1109 1108
f 51 12 11
f 1151 1110 1109
f 51 11 10
f 1151 1111 1110
f 54 51 10
f 54 10 9
f 1151 1112 1111
f 54 8 7
f 54 9 8
f 1151 1113 1112
f 1152 1113 1151
f 1152 1114 1113
f 54 7 6
f 1152 1115 1114
f 54 5 1118
f 54 6 5
f 1152 1116 1115
f 54 1118 1117
f 1152 1117 1116
f 1152 54 1117
f 1121 1120 1154
f 1130 1153 1119
f 1129 1153 1130
f 1128 1153 1129
f 1127 1126 1153
f 1127 1153 1128
f 1154 1122 1121
f 1154 1123 1122
f 1154 1124 1123
f 1154 1125 1124
f 1154 1126 1125
f 1154 1153 1126
f 1141 1154 1120
f 1140 1154 1141
f 1139 1154 1140
f 1138 1154 1139
f 1137 1154 1138
f 1132 1131 1153
f 1136 1154 1137
f 1133 1132 1153
f 1135 1153 1154
f 1135 1154 1136
f 1134 1133 1153
f 1134 1153 1135
f 1153 1142 28
f 1153 1143 1142
f 1153 1144 1143
f 1153 1145 1144
f 1153 1146 1145
f 1153 1147 1146
f 1153 1148 1147
f 1153 1131 1148
f 1153 41 40
f 1153 42 41
f 1153 43 42
f 1153 44 43
f 1153 45 44
f 1153 46 45
f 1153 47 46
f 1153 48 47
f 1153 49 48
f 1153 50 49
f 1153 28 50
f 1153 33 32
f 1153 34 33
f 1153 35 34
f 1153 36 35
f 1153 37 36
f 1153 38 37
f 1153 39 38
f 1153 40 39
f 1153 30 29
f 1153 31 30
f 1153 32 31
f 3 1153 29
f 1119 1153 3
f 1040 207 984
f 1035 984 983
f 1035 1040 984
f 1036 983 982
f 1036 1035 983
f 1037 982 981
f 1037 1036 982
f 1038 981 980
f 1038 1037 981
f 1039 980 979
f 1039 1038 980
f 1155 979 978
f 1155 1039 979
f 1 2 977
f 1095 977 976
f 1095 1 977
f 1096 976 889
f 1096 1095 976
f 203 1096 889
f 2 1096 203
f 207 1040 1155

