# https://github.com/mikedh/trimesh

o p00039.obj
v 50.81458683 12.94881152 -28.00000000
v 48.59211539 38.35177633 -28.00000000
v 50.98889831 10.95642213 -26.00000000
v 50.98740705 10.97346730 -26.26105238
v 50.98295879 11.02431115 -26.51763809
v 50.97562964 11.10808374 -26.76536686
v 50.96554500 11.22335169 -27.00000000
v 50.95287742 11.36814274 -27.21752286
v 50.93784366 11.53997947 -27.41421356
v 50.92070093 11.73592171 -27.58670668
v 50.90174257 11.95261683 -27.73205081
v 50.88129294 12.18635711 -27.84775907
v 50.85970196 12.43314320 -27.93185165
v 50.83733904 12.68875252 -27.98288972
v 50.98889831 10.95642213 -4.75000000
v 51.03247618 10.45832478 -4.25000000
v 51.02678813 10.52333953 -4.25427757
v 51.02119740 10.58724186 -4.26703709
v 51.01579965 10.64893838 -4.28806023
v 51.01068725 10.70737345 -4.31698730
v 51.00594766 10.76154723 -4.35332333
v 51.00166197 10.81053279 -4.39644661
v 50.99790353 10.85349198 -4.44561929
v 50.99473664 10.88968974 -4.50000000
v 50.99221548 10.91850673 -4.55865828
v 50.99038319 10.93944987 -4.62059048
v 50.98927113 10.95216084 -4.68473690
v 51.25036554 7.96783803 -4.25000000
v 51.42467702 5.97544864 -2.25000000
v 51.42318577 5.99249381 -2.51105238
v 51.41873750 6.04333766 -2.76763809
v 51.41140835 6.12711025 -3.01536686
v 51.40132371 6.24237820 -3.25000000
v 51.38865614 6.38716925 -3.46752286
v 51.37362237 6.55900598 -3.66421356
v 51.35647965 6.75494822 -3.83670668
v 51.33752128 6.97164334 -3.98205081
v 51.31707166 7.20538362 -4.09775907
v 51.29548067 7.45216971 -4.18185165
v 51.27311775 7.70777903 -4.23288972
v 51.42467702 5.97544864 8.25000000
v 51.25036554 7.96783803 10.25000000
v 51.27311775 7.70777903 10.23288972
v 51.29548067 7.45216971 10.18185165
v 51.31707166 7.20538362 10.09775907
v 51.33752128 6.97164334 9.98205081
v 51.35647965 6.75494822 9.83670668
v 51.37362237 6.55900598 9.66421356
v 51.38865614 6.38716925 9.46752286
v 51.40132371 6.24237820 9.25000000
v 51.41140835 6.12711025 9.01536686
v 51.41873750 6.04333766 8.76763809
v 51.42318577 5.99249381 8.51105238
v 51.03247618 10.45832478 10.25000000
v 50.98889831 10.95642213 10.75000000
v 50.98927113 10.95216084 10.68473690
v 50.99038319 10.93944987 10.62059048
v 50.99221548 10.91850673 10.55865828
v 50.99473664 10.88968974 10.50000000
v 50.99790353 10.85349198 10.44561929
v 51.00166197 10.81053279 10.39644661
v 51.00594766 10.76154723 10.35332333
v 51.01068725 10.70737345 10.31698730
v 51.01579965 10.64893838 10.28806023
v 51.02119740 10.58724186 10.26703709
v 51.02678813 10.52333953 10.25427757
v 50.98889831 10.95642213 26.00000000
v 50.81458683 12.94881152 28.00000000
v 50.83733904 12.68875252 27.98288972
v 50.85970196 12.43314320 27.93185165
v 50.88129294 12.18635711 27.84775907
v 50.90174257 11.95261683 27.73205081
v 50.92070093 11.73592171 27.58670668
v 50.93784366 11.53997947 27.41421356
v 50.95287742 11.36814274 27.21752286
v 50.96554500 11.22335169 27.00000000
v 50.97562964 11.10808374 26.76536686
v 50.98295879 11.02431115 26.51763809
v 50.98740705 10.97346730 26.26105238
v 48.59211539 38.35177633 28.00000000
v 48.41780390 40.34416572 26.00000000
v 48.41929516 40.32712055 26.26105238
v 48.42374342 40.27627670 26.51763809
v 48.43107257 40.19250411 26.76536686
v 48.44115721 40.07723616 27.00000000
v 48.45382479 39.93244511 27.21752286
v 48.46885855 39.76060838 27.41421356
v 48.48600128 39.56466614 27.58670668
v 48.50495964 39.34797102 27.73205081
v 48.52540927 39.11423074 27.84775907
v 48.54700025 38.86744465 27.93185165
v 48.56936317 38.61183533 27.98288972
v 48.41780390 40.34416572 23.50000000
v 48.37422603 40.84226307 23.00000000
v 48.37991408 40.77724832 23.00427757
v 48.38550481 40.71334599 23.01703709
v 48.39090256 40.65164947 23.03806023
v 48.39601496 40.59321440 23.06698730
v 48.40075456 40.53904062 23.10332333
v 48.40504024 40.49005506 23.14644661
v 48.40879868 40.44709588 23.19561929
v 48.41196557 40.41089811 23.25000000
v 48.41448673 40.38208113 23.30865828
v 48.41631902 40.36113798 23.37059048
v 48.41743109 40.34842701 23.43473690
v 47.15404563 54.78898884 23.00000000
v 46.97973414 56.78137824 21.00000000
v 46.98122540 56.76433307 21.26105238
v 46.98567366 56.71348922 21.51763809
v 46.99300282 56.62971663 21.76536686
v 47.00308746 56.51444868 22.00000000
v 47.01575503 56.36965763 22.21752286
v 47.03078880 56.19782090 22.41421356
v 47.04793152 56.00187866 22.58670668
v 47.06688989 55.78518354 22.73205081
v 47.08733951 55.55144326 22.84775907
v 47.10893050 55.30465717 22.93185165
v 47.13129342 55.04904785 22.98288972
v 46.97973414 56.78137824 -21.00000000
v 47.15404563 54.78898884 -23.00000000
v 47.13129342 55.04904785 -22.98288972
v 47.10893050 55.30465717 -22.93185165
v 47.08733951 55.55144326 -22.84775907
v 47.06688989 55.78518354 -22.73205081
v 47.04793152 56.00187866 -22.58670668
v 47.03078880 56.19782090 -22.41421356
v 47.01575503 56.36965763 -22.21752286
v 47.00308746 56.51444868 -22.00000000
v 46.99300282 56.62971663 -21.76536686
v 46.98567366 56.71348922 -21.51763809
v 46.98122540 56.76433307 -21.26105238
v 48.37422603 40.84226307 -23.00000000
v 48.41780390 40.34416572 -23.50000000
v 48.41743109 40.34842701 -23.43473690
v 48.41631902 40.36113798 -23.37059048
v 48.41448673 40.38208113 -23.30865828
v 48.41196557 40.41089811 -23.25000000
v 48.40879868 40.44709588 -23.19561929
v 48.40504024 40.49005506 -23.14644661
v 48.40075456 40.53904062 -23.10332333
v 48.39601496 40.59321440 -23.06698730
v 48.39090256 40.65164947 -23.03806023
v 48.38550481 40.71334599 -23.01703709
v 48.37991408 40.77724832 -23.00427757
v 48.41780390 40.34416572 -26.00000000
v 48.56936317 38.61183533 -27.98288972
v 48.54700025 38.86744465 -27.93185165
v 48.52540927 39.11423074 -27.84775907
v 48.50495964 39.34797102 -27.73205081
v 48.48600128 39.56466614 -27.58670668
v 48.46885855 39.76060838 -27.41421356
v 48.45382479 39.93244511 -27.21752286
v 48.44115721 40.07723616 -27.00000000
v 48.43107257 40.19250411 -26.76536686
v 48.42374342 40.27627670 -26.51763809
v 48.41929516 40.32712055 -26.26105238
v 47.54815811 50.28426254 14.32557408
v 47.26055269 53.57160757 14.32557408
v 47.26055269 53.57160757 14.87968714
v 47.31631578 52.93423257 15.86811291
v 47.35795391 52.45830655 15.56263659
v 47.32381013 52.84857169 14.96071998
v 47.54815811 50.28426254 14.96071998
v 50.01736120 22.06114212 -5.28382319
v 49.71035218 25.57027128 -5.28382319
v 49.71035218 25.57027128 -12.32890832
v 49.09633255 32.58854772 -12.32890832
v 49.09633255 32.58854772 -15.85144178
v 48.48231293 39.60682417 -15.85144178
v 48.17530391 43.11595333 -15.85144178
v 48.17530391 43.11595333 -12.32890832
v 47.56128269 50.13424791 -12.32890832
v 47.56128269 50.13424791 -5.28382319
v 47.25427367 53.64337706 -5.28382319
v 47.25427367 53.64337706 -1.76127153
v 47.25427367 53.64337706 5.28379539
v 47.56128269 50.13424791 5.28379539
v 47.56128269 50.13424791 12.32889871
v 48.17530391 43.11595333 12.32889871
v 48.17530391 43.11595333 15.85144665
v 48.48231384 39.60681369 15.85144665
v 48.78932195 36.09769501 15.85144665
v 49.09633255 32.58854772 15.85144665
v 49.09633255 32.58854772 12.32889871
v 49.71035218 25.57027128 12.32889871
v 49.71035218 25.57027128 5.28379539
v 50.01736120 22.06114212 5.28379539
v 50.01736120 22.06114212 1.76126193
v 49.71035218 25.57027128 1.76126193
v 48.78932195 36.09769501 12.32889871
v 48.48231293 39.60682417 12.32889871
v 48.48231293 39.60682417 -12.32890832
v 47.56128269 50.13424791 -1.76127153
v 47.86829171 46.62511875 8.80636525
v 49.40334316 29.07940044 8.80636525
v 47.86829171 46.62511875 -8.80633846
v 49.40334316 29.07940044 -8.80633846
v 48.78932195 36.09769501 -1.76127153
v 48.17530391 43.11595333 -1.76127153
v 48.17530391 43.11595333 5.28383179
v 49.09633097 32.58856585 5.28383179
v 49.09633097 32.58856585 -5.28380499
v 48.78932195 36.09769501 -5.28380499
v 48.09401804 38.30819845 -28.00000000
v 48.07126582 38.56825746 -27.98288972
v 48.04890290 38.82386678 -27.93185165
v 48.02731192 39.07065287 -27.84775907
v 48.00686229 39.30439315 -27.73205081
v 47.98790393 39.52108827 -27.58670668
v 47.97076120 39.71703051 -27.41421356
v 47.95572744 39.88886724 -27.21752286
v 47.94305986 40.03365829 -27.00000000
v 47.93297522 40.14892624 -26.76536686
v 47.92564607 40.23269883 -26.51763809
v 47.92119781 40.28354268 -26.26105238
v 47.91970655 40.30058785 -26.00000000
v 47.91970655 40.30058785 -23.50000000
v 47.87612868 40.79868520 -23.00000000
v 47.91933374 40.30484914 -23.43473690
v 47.91822167 40.31756011 -23.37059048
v 47.91638938 40.33850325 -23.30865828
v 47.91386822 40.36732024 -23.25000000
v 47.91070133 40.40351800 -23.19561929
v 47.90694289 40.44647719 -23.14644661
v 47.90265721 40.49546275 -23.10332333
v 47.89791762 40.54963653 -23.06698730
v 47.89280521 40.60807160 -23.03806023
v 47.88740746 40.66976812 -23.01703709
v 47.88181673 40.73367045 -23.00427757
v 46.65594828 54.74541097 -23.00000000
v 46.63319607 55.00546997 -22.98288972
v 46.61083315 55.26107929 -22.93185165
v 46.58924216 55.50786539 -22.84775907
v 46.56879254 55.74160567 -22.73205081
v 46.54983417 55.95830079 -22.58670668
v 46.53269145 56.15424303 -22.41421356
v 46.51765768 56.32607976 -22.21752286
v 46.50499011 56.47087080 -22.00000000
v 46.49490547 56.58613876 -21.76536686
v 46.48757632 56.66991135 -21.51763809
v 46.48312805 56.72075520 -21.26105238
v 46.48163680 56.73780037 -21.00000000
v 46.48163680 56.73780037 21.00000000
v 46.48312805 56.72075520 21.26105238
v 46.48757632 56.66991135 21.51763809
v 46.49490547 56.58613876 21.76536686
v 46.50499011 56.47087080 22.00000000
v 46.51765768 56.32607976 22.21752286
v 46.53269145 56.15424303 22.41421356
v 46.54983417 55.95830079 22.58670668
v 46.56879254 55.74160567 22.73205081
v 46.58924216 55.50786539 22.84775907
v 46.61083315 55.26107929 22.93185165
v 46.63319607 55.00546997 22.98288972
v 46.65594828 54.74541097 23.00000000
v 47.87612868 40.79868520 23.00000000
v 47.91970655 40.30058785 23.50000000
v 47.88181673 40.73367045 23.00427757
v 47.88740746 40.66976812 23.01703709
v 47.89280521 40.60807160 23.03806023
v 47.89791762 40.54963653 23.06698730
v 47.90265721 40.49546275 23.10332333
v 47.90694289 40.44647719 23.14644661
v 47.91070133 40.40351800 23.19561929
v 47.91386822 40.36732024 23.25000000
v 47.91638938 40.33850325 23.30865828
v 47.91822167 40.31756011 23.37059048
v 47.91933374 40.30484914 23.43473690
v 47.91970655 40.30058785 26.00000000
v 47.92119781 40.28354268 26.26105238
v 47.92564607 40.23269883 26.51763809
v 47.93297522 40.14892624 26.76536686
v 47.94305986 40.03365829 27.00000000
v 47.95572744 39.88886724 27.21752286
v 47.97076120 39.71703051 27.41421356
v 47.98790393 39.52108827 27.58670668
v 48.00686229 39.30439315 27.73205081
v 48.02731192 39.07065287 27.84775907
v 48.04890290 38.82386678 27.93185165
v 48.07126582 38.56825746 27.98288972
v 48.09401804 38.30819845 28.00000000
v 50.31648948 12.90523365 28.00000000
v 50.33924169 12.64517465 27.98288972
v 50.36160461 12.38956533 27.93185165
v 50.38319559 12.14277924 27.84775907
v 50.40364522 11.90903896 27.73205081
v 50.42260359 11.69234384 27.58670668
v 50.43974631 11.49640160 27.41421356
v 50.45478008 11.32456487 27.21752286
v 50.46744765 11.17977382 27.00000000
v 50.47753229 11.06450587 26.76536686
v 50.48486144 10.98073328 26.51763809
v 50.48930970 10.92988942 26.26105238
v 50.49080096 10.91284426 26.00000000
v 50.49080096 10.91284426 10.75000000
v 50.53437883 10.41474691 10.25000000
v 50.49117378 10.90858297 10.68473690
v 50.49228584 10.89587200 10.62059048
v 50.49411813 10.87492885 10.55865828
v 50.49663929 10.84611187 10.50000000
v 50.49980618 10.80991410 10.44561929
v 50.50356462 10.76695492 10.39644661
v 50.50785031 10.71796936 10.35332333
v 50.51258990 10.66379558 10.31698730
v 50.51770230 10.60536051 10.28806023
v 50.52310005 10.54366399 10.26703709
v 50.52869078 10.47976166 10.25427757
v 50.75226819 7.92426016 10.25000000
v 50.77502040 7.66420116 10.23288972
v 50.79738332 7.40859184 10.18185165
v 50.81897431 7.16180575 10.09775907
v 50.83942393 6.92806546 9.98205081
v 50.85838230 6.71137035 9.83670668
v 50.87552502 6.51542811 9.66421356
v 50.89055879 6.34359138 9.46752286
v 50.90322636 6.19880033 9.25000000
v 50.91331100 6.08353238 9.01536686
v 50.92064016 5.99975979 8.76763809
v 50.92508842 5.94891593 8.51105238
v 50.92657968 5.93187077 8.25000000
v 50.92657968 5.93187077 -2.25000000
v 50.92508842 5.94891593 -2.51105238
v 50.92064016 5.99975979 -2.76763809
v 50.91331100 6.08353238 -3.01536686
v 50.90322636 6.19880033 -3.25000000
v 50.89055879 6.34359138 -3.46752286
v 50.87552502 6.51542811 -3.66421356
v 50.85838230 6.71137035 -3.83670668
v 50.83942393 6.92806546 -3.98205081
v 50.81897431 7.16180575 -4.09775907
v 50.79738332 7.40859184 -4.18185165
v 50.77502040 7.66420116 -4.23288972
v 50.75226819 7.92426016 -4.25000000
v 50.53437883 10.41474691 -4.25000000
v 50.49080096 10.91284426 -4.75000000
v 50.52869078 10.47976166 -4.25427757
v 50.52310005 10.54366399 -4.26703709
v 50.51770230 10.60536051 -4.28806023
v 50.51258990 10.66379558 -4.31698730
v 50.50785031 10.71796936 -4.35332333
v 50.50356462 10.76695492 -4.39644661
v 50.49980618 10.80991410 -4.44561929
v 50.49663929 10.84611187 -4.50000000
v 50.49411813 10.87492885 -4.55865828
v 50.49228584 10.89587200 -4.62059048
v 50.49117378 10.90858297 -4.68473690
v 50.49080096 10.91284426 -26.00000000
v 50.48930970 10.92988942 -26.26105238
v 50.48486144 10.98073328 -26.51763809
v 50.47753229 11.06450587 -26.76536686
v 50.46744765 11.17977382 -27.00000000
v 50.45478008 11.32456487 -27.21752286
v 50.43974631 11.49640160 -27.41421356
v 50.42260359 11.69234384 -27.58670668
v 50.40364522 11.90903896 -27.73205081
v 50.38319559 12.14277924 -27.84775907
v 50.36160461 12.38956533 -27.93185165
v 50.33924169 12.64517465 -27.98288972
v 50.31648948 12.90523365 -28.00000000
v 49.14614070 32.59292364 5.28383179
v 49.14614070 32.59292364 -5.28380499
v 48.22511364 43.12031112 5.28383179
v 48.22511364 43.12031112 -1.76127153
v 48.83913168 36.10205280 -1.76127153
v 48.83913168 36.10205280 -5.28380499
v 47.30408341 53.64773485 5.28379539
v 47.61109243 50.13860569 5.28379539
v 47.30408341 53.64773485 -1.76127153
v 47.61109243 50.13860569 -1.76127153
v 47.61109243 50.13860569 -12.32890832
v 48.22511364 43.12031112 -12.32890832
v 48.22511364 43.12031112 -15.85144178
v 48.53212266 39.61118196 -15.85144178
v 48.53212266 39.61118196 -12.32890832
v 49.76016191 25.57462906 -12.32890832
v 49.76016191 25.57462906 1.76126193
v 50.06717094 22.06549991 1.76126193
v 50.06717094 22.06549991 5.28379539
v 49.76016191 25.57462906 5.28379539
v 49.76016191 25.57462906 12.32889871
v 48.83913168 36.10205280 12.32889871
v 48.83913168 36.10205280 15.85144665
v 48.53212358 39.61117148 15.85144665
v 48.53212266 39.61118196 12.32889871
v 47.61109243 50.13860569 12.32889871
v 47.91810145 46.62947653 -8.80633846
v 47.91810145 46.62947653 8.80636525
v 49.45315289 29.08375822 8.80636525
v 49.45315289 29.08375822 -8.80633846
v 49.14614229 32.59290551 12.32889871
v 49.14614229 32.59290551 15.85144665
v 49.76016191 25.57462906 -5.28382319
v 50.06717094 22.06549991 -5.28382319
v 49.14614229 32.59290551 -15.85144178
v 49.14614229 32.59290551 -12.32890832
v 47.30408341 53.64773485 -5.28382319
v 47.61109243 50.13860569 -5.28382319
v 47.40776364 52.46266434 15.56263659
v 47.37361987 52.85292948 14.96071998
v 47.36612551 52.93859036 15.86811291
v 47.31036243 53.57596535 14.87968714
v 47.31036243 53.57596535 14.32557408
v 47.59796785 50.28862033 14.32557408
v 47.59796785 50.28862033 14.96071998
v 48.22511364 43.12031112 15.85144665
v 48.22511364 43.12031112 12.32889871
f 123 124 125
f 122 123 125
f 122 125 126
f 122 126 127
f 122 127 128
f 131 128 129
f 131 129 130
f 131 122 128
f 120 122 131
f 120 121 122
f 120 131 119
f 148 149 150
f 148 150 151
f 148 151 152
f 156 154 155
f 145 148 152
f 145 154 156
f 145 152 153
f 145 153 154
f 2 148 145
f 2 146 147
f 2 147 148
f 133 2 145
f 172 120 119
f 174 172 119
f 170 132 120
f 170 120 172
f 173 172 174
f 175 174 119
f 171 170 172
f 169 138 139
f 169 139 140
f 169 140 141
f 169 141 142
f 169 142 143
f 169 143 144
f 169 144 132
f 169 132 170
f 168 133 134
f 168 134 135
f 168 135 136
f 168 136 137
f 168 137 138
f 168 2 133
f 168 138 169
f 1 2 168
f 13 14 1
f 12 13 1
f 10 11 12
f 8 9 10
f 7 10 12
f 7 12 1
f 7 8 10
f 178 177 176
f 178 176 158
f 166 168 167
f 166 1 168
f 4 5 6
f 4 6 7
f 3 1 166
f 3 7 1
f 3 4 7
f 107 175 119
f 107 159 158
f 107 160 159
f 107 176 175
f 107 158 176
f 163 161 160
f 109 107 108
f 110 107 109
f 111 107 110
f 112 107 111
f 113 107 112
f 116 113 114
f 116 114 115
f 106 116 117
f 106 117 118
f 106 160 107
f 106 163 160
f 106 107 113
f 106 113 116
f 179 178 157
f 164 166 165
f 180 157 163
f 180 179 157
f 94 163 106
f 94 180 163
f 94 181 180
f 95 181 94
f 96 181 95
f 97 181 96
f 98 181 97
f 99 182 181
f 99 181 98
f 100 182 99
f 101 182 100
f 102 182 101
f 103 182 102
f 104 182 103
f 183 104 105
f 183 105 93
f 183 182 104
f 15 3 166
f 15 166 164
f 27 15 164
f 26 27 164
f 25 26 164
f 25 164 188
f 24 25 188
f 23 24 188
f 22 23 188
f 21 22 188
f 20 21 188
f 19 20 188
f 185 184 183
f 185 187 186
f 85 83 84
f 87 83 85
f 87 85 86
f 88 83 87
f 89 83 88
f 39 40 28
f 37 38 39
f 92 90 91
f 80 183 93
f 80 83 89
f 80 90 92
f 80 81 82
f 80 82 83
f 80 89 90
f 80 93 81
f 33 34 35
f 33 35 36
f 33 36 37
f 32 37 39
f 32 39 28
f 32 33 37
f 29 16 17
f 29 28 16
f 29 30 31
f 29 31 32
f 29 32 28
f 62 187 61
f 60 61 187
f 63 187 62
f 63 188 187
f 59 60 187
f 58 59 187
f 64 19 188
f 64 188 63
f 57 58 187
f 65 18 19
f 65 19 64
f 56 57 187
f 66 18 65
f 66 17 18
f 66 29 17
f 55 187 185
f 55 56 187
f 41 29 66
f 41 54 42
f 41 66 54
f 43 41 42
f 43 53 41
f 52 53 43
f 50 51 52
f 46 44 45
f 47 44 46
f 47 43 44
f 48 52 43
f 48 43 47
f 48 50 52
f 48 49 50
f 68 183 80
f 68 185 183
f 67 55 185
f 67 185 68
f 79 67 68
f 76 77 78
f 72 70 71
f 75 76 78
f 75 78 79
f 74 79 68
f 74 75 79
f 74 70 72
f 74 68 69
f 74 69 70
f 74 72 73
f 157 178 158
f 162 161 163
f 189 164 165
f 188 164 189
f 183 184 190
f 183 190 182
f 180 191 179
f 181 191 180
f 167 169 192
f 167 168 169
f 193 174 175
f 193 173 174
f 203 196 199
f 194 199 196
f 198 203 199
f 197 203 202
f 197 196 203
f 200 199 194
f 195 201 200
f 195 202 201
f 195 197 202
f 195 200 194
f 196 172 173
f 171 172 196
f 193 196 173
f 192 170 171
f 192 169 170
f 192 171 196
f 176 193 175
f 177 193 176
f 194 193 177
f 178 194 177
f 197 167 192
f 197 166 167
f 197 192 196
f 165 166 197
f 179 194 178
f 191 194 179
f 189 165 197
f 181 190 191
f 182 190 181
f 195 190 184
f 195 186 189
f 187 188 189
f 187 189 186
f 185 195 184
f 185 186 195
f 196 193 194
f 194 190 195
f 194 191 190
f 195 189 197
f 162 158 159
f 160 162 159
f 161 162 160
f 157 158 162
f 163 157 162
f 215 216 145
f 215 156 155
f 215 145 156
f 214 155 154
f 214 215 155
f 213 154 153
f 213 214 154
f 212 153 152
f 212 213 153
f 211 152 151
f 211 212 152
f 210 151 150
f 210 211 151
f 209 150 149
f 209 210 150
f 208 149 148
f 208 209 149
f 207 148 147
f 207 208 148
f 206 147 146
f 206 207 147
f 205 146 2
f 205 206 146
f 204 205 2
f 133 145 216
f 133 216 217
f 219 133 217
f 219 134 133
f 220 135 134
f 220 134 219
f 221 136 135
f 221 135 220
f 222 137 136
f 222 136 221
f 223 138 137
f 223 137 222
f 224 139 138
f 224 138 223
f 225 140 139
f 225 139 224
f 226 141 140
f 226 140 225
f 227 142 141
f 227 141 226
f 228 143 142
f 228 144 143
f 228 142 227
f 229 144 228
f 218 132 144
f 218 144 229
f 230 132 218
f 120 132 230
f 242 119 131
f 241 242 131
f 240 131 130
f 240 241 131
f 239 130 129
f 239 240 130
f 238 129 128
f 238 239 129
f 237 128 127
f 237 238 128
f 236 127 126
f 236 237 127
f 235 126 125
f 235 236 126
f 234 125 124
f 234 235 125
f 233 124 123
f 233 234 124
f 232 123 122
f 232 233 123
f 231 122 121
f 231 232 122
f 230 121 120
f 230 231 121
f 107 119 242
f 107 242 243
f 255 106 118
f 254 255 118
f 253 118 117
f 253 254 118
f 252 117 116
f 252 253 117
f 251 116 115
f 251 252 116
f 250 115 114
f 250 251 115
f 249 114 113
f 249 250 114
f 248 113 112
f 248 249 113
f 247 112 111
f 247 248 112
f 246 111 110
f 246 247 111
f 245 110 109
f 245 246 110
f 244 108 107
f 244 109 108
f 244 245 109
f 243 244 107
f 255 94 106
f 255 256 94
f 256 95 94
f 258 96 95
f 258 95 256
f 259 97 96
f 259 96 258
f 260 98 97
f 260 97 259
f 261 99 98
f 261 98 260
f 262 100 99
f 262 99 261
f 263 101 100
f 263 100 262
f 264 102 101
f 264 101 263
f 265 103 102
f 265 102 264
f 266 104 103
f 266 103 265
f 267 105 104
f 267 104 266
f 268 93 105
f 268 105 267
f 257 93 268
f 81 93 257
f 81 257 269
f 280 281 80
f 280 80 92
f 279 92 91
f 279 280 92
f 278 91 90
f 278 279 91
f 277 90 89
f 277 278 90
f 276 89 88
f 276 277 89
f 275 88 87
f 275 276 88
f 274 87 86
f 274 275 87
f 273 86 85
f 273 274 86
f 272 85 84
f 272 273 85
f 271 84 83
f 271 272 84
f 270 82 81
f 270 83 82
f 270 271 83
f 269 270 81
f 281 68 80
f 281 282 68
f 294 67 79
f 293 79 78
f 293 294 79
f 292 78 77
f 292 293 78
f 291 292 77
f 290 77 76
f 290 291 77
f 289 75 74
f 289 76 75
f 289 290 76
f 288 74 73
f 288 289 74
f 287 288 73
f 286 72 71
f 286 73 72
f 286 287 73
f 285 286 71
f 284 70 69
f 284 71 70
f 284 285 71
f 283 69 68
f 283 284 69
f 282 283 68
f 67 295 55
f 294 295 67
f 297 55 295
f 297 56 55
f 298 57 56
f 298 56 297
f 299 58 57
f 299 57 298
f 300 59 58
f 300 58 299
f 301 60 59
f 301 59 300
f 302 61 60
f 302 60 301
f 303 62 61
f 303 61 302
f 304 63 62
f 304 62 303
f 305 64 63
f 305 63 304
f 306 65 64
f 306 64 305
f 307 66 65
f 307 65 306
f 296 54 66
f 296 66 307
f 54 308 42
f 54 296 308
f 320 41 53
f 319 320 53
f 318 53 52
f 318 319 53
f 317 52 51
f 317 318 52
f 316 51 50
f 316 317 51
f 315 50 49
f 315 316 50
f 314 49 48
f 314 315 49
f 313 48 47
f 313 314 48
f 312 47 46
f 312 313 47
f 311 46 45
f 311 312 46
f 310 45 44
f 310 311 45
f 309 44 43
f 309 310 44
f 308 43 42
f 308 309 43
f 320 29 41
f 320 321 29
f 333 28 40
f 332 333 40
f 331 40 39
f 331 332 40
f 330 39 38
f 330 331 39
f 329 38 37
f 329 330 38
f 328 37 36
f 328 329 37
f 327 36 35
f 327 328 36
f 326 35 34
f 326 327 35
f 325 34 33
f 325 326 34
f 324 32 31
f 324 33 32
f 324 325 33
f 323 324 31
f 322 31 30
f 322 323 31
f 321 30 29
f 321 322 30
f 16 28 333
f 16 333 334
f 336 16 334
f 336 17 16
f 337 18 17
f 337 17 336
f 338 19 18
f 338 18 337
f 339 20 19
f 339 19 338
f 340 21 20
f 340 20 339
f 341 22 21
f 341 21 340
f 342 23 22
f 342 22 341
f 343 24 23
f 343 23 342
f 344 25 24
f 344 24 343
f 345 26 25
f 345 25 344
f 346 27 26
f 346 26 345
f 335 15 27
f 335 27 346
f 15 347 3
f 335 347 15
f 358 359 1
f 358 1 14
f 357 13 12
f 357 14 13
f 357 358 14
f 356 357 12
f 355 11 10
f 355 12 11
f 355 356 12
f 354 355 10
f 353 10 9
f 353 354 10
f 352 8 7
f 352 9 8
f 352 353 9
f 351 352 7
f 350 7 6
f 350 351 7
f 349 6 5
f 349 350 6
f 348 5 4
f 348 349 5
f 347 4 3
f 347 348 4
f 2 1 359
f 2 359 204
f 202 203 198
f 200 198 199
f 201 198 200
f 201 202 198
f 233 235 234
f 232 236 235
f 232 237 236
f 232 238 237
f 232 235 233
f 241 239 238
f 241 240 239
f 241 238 232
f 230 232 231
f 230 241 232
f 242 241 230
f 206 208 207
f 206 209 208
f 206 210 209
f 205 211 210
f 205 212 211
f 205 210 206
f 204 212 205
f 204 213 212
f 216 213 204
f 216 214 213
f 216 215 214
f 217 216 204
f 218 242 230
f 219 217 204
f 220 219 204
f 359 220 204
f 359 221 220
f 359 222 221
f 357 359 358
f 356 359 357
f 354 356 355
f 352 354 353
f 351 356 354
f 351 354 352
f 351 359 356
f 348 350 349
f 348 351 350
f 347 359 351
f 347 351 348
f 243 242 218
f 245 244 243
f 246 245 243
f 247 246 243
f 248 247 243
f 249 248 243
f 252 250 249
f 252 251 250
f 255 253 252
f 255 254 253
f 255 249 243
f 255 252 249
f 256 255 243
f 256 218 229
f 256 243 218
f 258 256 229
f 259 229 228
f 259 258 229
f 335 222 359
f 335 223 222
f 335 224 223
f 335 225 224
f 335 226 225
f 335 227 226
f 335 359 347
f 346 227 335
f 346 259 228
f 346 228 227
f 345 260 259
f 345 259 346
f 344 260 345
f 273 272 271
f 275 273 271
f 275 274 273
f 276 275 271
f 277 276 271
f 277 270 269
f 277 271 270
f 331 333 332
f 280 279 278
f 280 277 269
f 280 278 277
f 281 269 257
f 281 268 267
f 281 257 268
f 281 280 269
f 326 328 327
f 326 329 328
f 326 330 329
f 326 331 330
f 326 333 331
f 324 326 325
f 324 333 326
f 321 336 334
f 321 334 333
f 321 323 322
f 321 324 323
f 321 333 324
f 303 302 341
f 303 340 339
f 303 341 340
f 301 341 302
f 301 342 341
f 304 303 339
f 304 339 338
f 300 343 342
f 300 342 301
f 305 304 338
f 299 344 343
f 299 343 300
f 299 260 344
f 306 305 338
f 306 337 336
f 306 338 337
f 298 261 260
f 298 260 299
f 307 306 336
f 307 336 321
f 297 262 261
f 297 261 298
f 295 262 297
f 295 263 262
f 295 264 263
f 295 265 264
f 295 266 265
f 320 307 321
f 320 308 296
f 320 296 307
f 319 308 320
f 310 308 319
f 310 309 308
f 316 318 317
f 313 310 319
f 313 311 310
f 313 312 311
f 313 319 318
f 314 318 316
f 314 313 318
f 314 316 315
f 282 267 266
f 282 266 295
f 282 281 267
f 294 282 295
f 293 282 294
f 290 292 291
f 286 285 284
f 289 292 290
f 289 293 292
f 288 282 293
f 288 293 289
f 288 286 284
f 288 283 282
f 288 284 283
f 288 287 286
f 361 365 364
f 362 364 363
f 360 364 362
f 360 361 364
f 371 370 386
f 373 372 371
f 374 373 371
f 374 371 386
f 366 369 368
f 367 369 366
f 387 369 367
f 385 387 367
f 389 374 386
f 384 387 385
f 383 381 384
f 382 381 383
f 388 379 376
f 378 377 376
f 378 376 379
f 380 379 388
f 369 386 370
f 374 389 375
f 375 389 376
f 380 388 381
f 386 369 387
f 387 381 388
f 387 384 381
f 388 376 389
f 391 390 381
f 391 381 382
f 376 393 392
f 377 393 376
f 365 386 363
f 387 363 386
f 364 365 363
f 389 365 361
f 389 386 365
f 362 363 387
f 388 360 362
f 388 361 360
f 388 389 361
f 388 362 387
f 395 373 374
f 395 394 373
f 369 396 368
f 369 397 396
f 399 402 401
f 400 399 401
f 398 399 400
f 403 402 399
f 404 403 399
f 405 384 406
f 383 384 405

