# https://github.com/mikedh/trimesh
v -2.00000000 -41.20000000 -593.89259779
v -2.00000000 -41.20000000 593.89259779
v -23.40000000 -41.20000000 -593.89259779
v -23.40000000 -41.20000000 593.89259779
v -25.40000000 23.40000000 -593.89259779
v -25.38309361 23.65949902 -593.89259779
v -25.33266026 23.91461084 -593.89259779
v -25.24955260 24.16102246 -593.89259779
v -25.13517568 24.39456793 -593.89259779
v -24.99146320 24.61129884 -593.89259779
v -24.82084482 24.80755106 -593.89259779
v -24.62620508 24.98000668 -593.89259779
v -24.41083464 25.12575008 -593.89259779
v -24.17837463 25.24231727 -593.89259779
v -23.93275511 25.32773753 -593.89259779
v -25.40000000 -39.20000000 -593.89259779
v -23.66105238 -41.18288972 -593.89259779
v -23.91763809 -41.13185165 -593.89259779
v -24.16536686 -41.04775907 -593.89259779
v -24.40000000 -40.93205081 -593.89259779
v -24.61752286 -40.78670668 -593.89259779
v -24.81421356 -40.61421356 -593.89259779
v -24.98670668 -40.41752286 -593.89259779
v -25.13205081 -40.20000000 -593.89259779
v -25.24775907 -39.96536686 -593.89259779
v -25.33185165 -39.71763809 -593.89259779
v -25.38288972 -39.46105238 -593.89259779
v -1.00000000 -40.93205081 -593.89259779
v -1.23463314 -41.04775907 -593.89259779
v -1.48236191 -41.13185165 -593.89259779
v -1.73894762 -41.18288972 -593.89259779
v 25.40000000 -23.40000000 -593.89259779
v 25.38288972 -23.66105238 -593.89259779
v 25.33185165 -23.91763809 -593.89259779
v 25.24775907 -24.16536686 -593.89259779
v 25.13205081 -24.40000000 -593.89259779
v 24.98670668 -24.61752286 -593.89259779
v 24.81421356 -24.81421356 -593.89259779
v 24.61752286 -24.98670668 -593.89259779
v 24.40000000 -25.13205081 -593.89259779
v 25.40000000 37.60000000 -593.89259779
v 24.91454176 38.09978849 -593.89259779
v 24.97845611 38.09380628 -593.89259779
v 25.04107723 38.07968450 -593.89259779
v 25.10137294 38.05765592 -593.89259779
v 25.15834934 38.02808366 -593.89259779
v 25.21106730 37.99145515 -593.89259779
v 25.25865783 37.94837417 -593.89259779
v 25.30033649 37.89955082 -593.89259779
v 25.33541628 37.84578988 -593.89259779
v 25.36331896 37.78797750 -593.89259779
v 25.38358460 37.72706664 -593.89259779
v 25.39587917 37.66406129 -593.89259779
v 24.78369308 38.07839483 -593.89259779
v 24.84840515 38.09344807 -593.89259779
v -23.93275511 25.32773753 593.89259779
v -24.17837463 25.24231727 593.89259779
v -24.41083464 25.12575008 593.89259779
v -24.62620508 24.98000668 593.89259779
v -24.82084482 24.80755106 593.89259779
v -24.99146320 24.61129884 593.89259779
v -25.13517568 24.39456793 593.89259779
v -25.24955260 24.16102246 593.89259779
v -25.33266026 23.91461084 593.89259779
v -25.38309361 23.65949902 593.89259779
v -25.40000000 23.40000000 593.89259779
v -25.40000000 -39.20000000 593.89259779
v -25.38288972 -39.46105238 593.89259779
v -25.33185165 -39.71763809 593.89259779
v -25.24775907 -39.96536686 593.89259779
v -25.13205081 -40.20000000 593.89259779
v -24.98670668 -40.41752286 593.89259779
v -24.81421356 -40.61421356 593.89259779
v -24.61752286 -40.78670668 593.89259779
v -24.40000000 -40.93205081 593.89259779
v -24.16536686 -41.04775907 593.89259779
v -23.91763809 -41.13185165 593.89259779
v -23.66105238 -41.18288972 593.89259779
v -1.73894762 -41.18288972 593.89259779
v -1.48236191 -41.13185165 593.89259779
v -1.23463314 -41.04775907 593.89259779
v -1.00000000 -40.93205081 593.89259779
v 24.40000000 -25.13205081 593.89259779
v 24.61752286 -24.98670668 593.89259779
v 24.81421356 -24.81421356 593.89259779
v 24.98670668 -24.61752286 593.89259779
v 25.13205081 -24.40000000 593.89259779
v 25.24775907 -24.16536686 593.89259779
v 25.33185165 -23.91763809 593.89259779
v 25.38288972 -23.66105238 593.89259779
v 25.40000000 -23.40000000 593.89259779
v 25.40000000 37.60000000 593.89259779
v 25.39587917 37.66406129 593.89259779
v 25.38358460 37.72706664 593.89259779
v 25.36331896 37.78797750 593.89259779
v 25.33541628 37.84578988 593.89259779
v 25.30033649 37.89955082 593.89259779
v 25.25865783 37.94837417 593.89259779
v 25.21106730 37.99145515 593.89259779
v 25.15834934 38.02808366 593.89259779
v 25.10137294 38.05765592 593.89259779
v 25.04107723 38.07968450 593.89259779
v 24.97845611 38.09380628 593.89259779
v 24.91454176 38.09978849 593.89259779
v 24.84840515 38.09344807 593.89259779
v 24.78369308 38.07839483 593.89259779
v 18.91880000 38.09959984 568.49259779
v 18.84969206 38.09199571 568.49259779
v 18.78230702 38.07487887 568.49259779
v 18.92425824 38.09978849 568.49260110
v 18.78230702 38.07487887 -568.49259779
v 18.84969206 38.09199571 -568.49259779
v 18.91880000 38.09959984 -568.49259779
v 18.92425824 38.09978849 -568.49260110
f 54 15 111
f 113 114 42
f 109 56 106
f 55 113 42
f 112 55 54
f 112 54 111
f 113 55 112
f 104 110 107
f 107 105 104
f 105 107 108
f 106 105 108
f 109 106 108
f 111 15 56
f 109 111 56
f 3 2 4
f 1 2 3
f 92 91 32
f 32 41 92
f 82 28 40
f 40 83 82
f 103 43 42
f 42 104 103
f 110 104 42
f 42 114 110
f 89 88 35
f 34 89 35
f 29 82 81
f 28 82 29
f 30 29 80
f 80 29 81
f 31 2 1
f 31 79 2
f 31 80 79
f 30 80 31
f 39 84 83
f 39 83 40
f 45 44 102
f 101 45 102
f 102 44 43
f 43 103 102
f 47 99 98
f 47 98 48
f 100 46 45
f 100 45 101
f 100 47 46
f 99 47 100
f 33 90 89
f 33 89 34
f 33 32 91
f 91 90 33
f 98 97 49
f 48 98 49
f 49 97 96
f 96 50 49
f 78 3 4
f 17 3 78
f 68 16 27
f 67 16 68
f 87 86 36
f 36 86 37
f 36 88 87
f 36 35 88
f 107 110 114
f 114 113 107
f 66 6 5
f 65 6 66
f 5 16 66
f 66 16 67
f 92 41 53
f 53 93 92
f 94 93 53
f 52 94 53
f 51 95 94
f 51 94 52
f 51 50 96
f 96 95 51
f 84 39 85
f 39 38 85
f 37 86 85
f 85 38 37
f 108 111 109
f 108 112 111
f 108 107 113
f 113 112 108
f 9 63 62
f 8 63 9
f 10 9 61
f 61 9 62
f 17 78 18
f 78 77 18
f 18 77 76
f 76 19 18
f 21 74 73
f 73 22 21
f 26 68 27
f 26 69 68
f 70 69 26
f 26 25 70
f 73 72 23
f 23 22 73
f 14 56 15
f 14 57 56
f 58 13 12
f 58 12 59
f 58 14 13
f 57 14 58
f 64 6 65
f 64 7 6
f 8 7 64
f 64 63 8
f 96 97 60
f 81 82 60
f 60 100 101
f 60 86 87
f 60 91 92
f 4 2 60
f 60 78 4
f 60 90 91
f 101 102 60
f 60 58 59
f 87 88 60
f 60 80 81
f 104 105 60
f 60 95 96
f 60 88 89
f 2 79 60
f 83 84 60
f 60 82 83
f 60 103 104
f 60 106 56
f 84 85 60
f 60 97 98
f 98 99 60
f 89 90 60
f 92 93 60
f 76 77 60
f 60 69 70
f 79 80 60
f 60 72 73
f 60 102 103
f 60 105 106
f 67 68 60
f 99 100 60
f 60 93 94
f 94 95 60
f 60 66 67
f 73 74 60
f 56 57 60
f 65 66 60
f 60 77 78
f 60 64 65
f 68 69 60
f 60 75 76
f 60 85 86
f 70 71 60
f 62 63 60
f 60 61 62
f 74 75 60
f 60 71 72
f 57 58 60
f 63 64 60
f 12 11 60
f 59 12 60
f 60 11 10
f 10 61 60
f 20 19 76
f 76 75 20
f 20 75 74
f 74 21 20
f 22 23 24
f 24 44 45
f 28 29 24
f 37 38 24
f 8 9 24
f 24 16 5
f 1 3 24
f 42 43 24
f 24 33 34
f 45 46 24
f 24 47 48
f 24 31 1
f 40 28 24
f 24 55 42
f 24 39 40
f 27 16 24
f 24 3 17
f 41 32 24
f 24 11 12
f 34 35 24
f 15 54 24
f 43 44 24
f 24 53 41
f 48 49 24
f 24 21 22
f 24 29 30
f 30 31 24
f 24 36 37
f 54 55 24
f 24 7 8
f 46 47 24
f 32 33 24
f 24 49 50
f 17 18 24
f 24 26 27
f 35 36 24
f 24 38 39
f 24 51 52
f 12 13 24
f 5 6 24
f 52 53 24
f 50 51 24
f 10 11 24
f 6 7 24
f 24 9 10
f 24 18 19
f 24 14 15
f 25 26 24
f 19 20 24
f 13 14 24
f 24 20 21
f 70 25 24
f 24 71 70
f 72 71 24
f 24 23 72

