# https://github.com/mikedh/trimesh
v -1.92461625 -6.93859411 16.78681360
v -3.69568126 -6.17961835 16.78637293
v -5.18870799 -4.99538720 16.78437311
v -7.10178248 -0.91192236 16.80447300
v -6.97414497 -1.84521738 16.72154351
v 1.92848316 -6.93806138 16.78112908
v 7.04402300 -1.62773518 16.73284604
v -6.32764911 -3.45360693 16.76236899
v 0.01679665 -7.19734948 16.79079131
v 3.56051138 -6.27365255 16.72582159
v 4.17685413 -5.82172109 16.79877980
v 5.06850731 -5.13160484 16.72447638
v 5.60069256 -4.47540015 16.79298442
v 6.23288791 -3.62783332 16.72733809
v 6.76998869 -2.41142035 16.78715796
v 8.49150562 2.24395304 -13.56478794
v 7.19744472 5.04495973 -13.55272338
v 4.53633912 7.53009953 -13.56892947
v -5.57013890 6.78754066 -13.57874156
v -7.17348750 5.07320761 -13.56260298
v -8.01106149 3.46883888 -13.63903022
v -8.63659283 1.14528648 -13.66606834
v -8.77256601 -0.00000000 -13.55728370
v -8.49036565 2.24556500 -13.56568661
v -4.28866805 7.68446729 -13.48391597
v -4.60550348 7.30233689 -13.69103973
v -2.87790218 8.23282818 -13.65526638
v -1.17920488 8.70052455 -13.57623469
v 1.51199029 8.57668949 -13.67397395
v 3.17997348 8.13128005 -13.64255083
v 6.14843819 6.26761924 -13.57274270
v 6.55810834 5.55906401 -13.70191392
v 8.08295085 3.26274833 -13.67062946
v 8.76904607 0.53794920 -13.57193106
v 7.19256482 4.00944740 -13.68212211
v -1.67256460 8.10188053 -13.69209081
v 8.02531841 -0.00506420 -13.55250069
v -8.04113733 1.90437966 -13.68126916
v -8.03101075 0.43660145 -13.54491776
v -7.58436869 2.69201719 -13.55119900
v -6.96469599 4.73311945 -13.72857619
v -6.91495529 4.06779631 -13.54865842
v -4.38474515 6.89640147 -13.67127261
v -5.88398312 5.49778572 -13.56267626
v -4.08966158 6.89920508 -13.45528751
v -2.14135179 7.74734911 -13.53819953
v 1.30370899 8.09320958 -13.68488068
v -0.00117160 8.03420451 -13.53520826
v 2.14590125 7.74329267 -13.52827375
v 4.52446952 6.97363146 -13.69086410
v 4.12171214 6.89690248 -13.53505799
v 5.80536308 5.55175642 -13.52245081
v 7.08402534 3.79289858 -13.52051937
v 8.23638016 0.56338382 -13.69493398
v 7.85403361 1.75538743 -13.56641125
v 11.24467209 0.00000000 2.30523572
v 1.68258153 11.13422823 2.24440812
v -0.01283108 11.27804067 2.44841422
v -7.16535920 8.70216271 2.27783812
v -9.95417323 5.28274080 2.30503171
v -10.86298630 3.00002410 2.97522797
v -11.13993861 1.53114932 2.30523572
v -11.24467209 -0.00000000 2.30523572
v 11.23981283 0.00000000 2.24597301
v 11.22336065 0.00000000 2.18883277
v 11.19596189 0.00000000 2.13605977
v -11.04146345 -0.21378913 1.99456799
v -6.29404032 9.03658834 1.99760423
v -3.24681336 10.52079708 1.99828332
v -11.23981283 0.00000000 2.24597301
v -11.22336065 0.00000000 2.18883277
v -11.19596189 0.00000000 2.13605977
v -11.15869292 0.00000000 2.08972722
v -11.11301786 0.00000000 2.05165531
v -11.13512460 1.53048765 2.24597301
v -11.11882566 1.52824741 2.18883277
v -11.09168210 1.52451661 2.13605977
v -11.05476025 1.51944182 2.08972722
v -11.00951061 1.51322240 2.05165531
v -10.82301008 3.03246521 2.24597301
v -10.80716799 3.02802646 2.18883277
v -10.78078525 3.02063437 2.13605977
v -10.74489831 3.01057932 2.08972722
v -10.70091701 2.99825634 2.05165531
v -10.65056916 2.98414953 2.02333971
v -10.88448146 1.85725885 2.00940667
v -10.30928335 4.47795368 2.24597301
v -10.29419323 4.47139911 2.18883277
v -10.26906278 4.46048342 2.13605977
v -10.23487925 4.44563542 2.08972722
v -10.19298557 4.42743843 2.05165531
v -10.14502754 4.40660731 2.02333971
v -9.60351418 5.84002635 2.24597301
v -9.58945712 5.83147806 2.18883277
v -9.56604709 5.81724210 2.13605977
v -9.53420376 5.79787774 2.08972722
v -9.49517810 5.77414572 2.05165531
v -9.45050326 5.74697834 2.02333971
v -9.85086398 4.95375345 2.00568105
v -8.71884971 7.09331037 2.24597301
v -8.70608757 7.08292760 2.18883277
v -8.68483405 7.06563657 2.13605977
v -8.65592409 7.04211657 2.08972722
v -8.62049343 7.01329159 2.05165531
v -8.57993397 6.98029403 2.02333971
v -7.66054009 8.20243560 2.18883277
v -7.64183898 8.18241160 2.13605977
v -7.61640092 8.15517410 2.08972722
v -7.58522527 8.12179312 2.05165531
v -7.54953676 8.08358006 2.02333971
v -8.13343608 7.43815361 2.00422729
v -5.82730612 9.68457988 2.44851121
v -6.47229123 9.16914775 2.18883277
v -6.45649091 9.14676379 2.13605977
v -6.43499863 9.11631616 2.08972722
v -6.40865872 9.07900101 2.05165531
v -6.37850596 9.03628428 2.02333971
v -5.16347584 9.96505602 2.18883277
v -5.15087063 9.94072907 2.13605977
v -5.13372448 9.90763850 2.08972722
v -5.11271098 9.86708429 2.05165531
v -5.08865566 9.82065962 2.02333971
v -3.10326685 10.83141471 2.23514818
v -3.74929938 10.54951737 2.13605977
v -3.73681876 10.51440028 2.08972722
v -3.72152311 10.47136245 2.05165531
v -3.70401333 10.42209466 2.02333971
v -1.67562398 11.14023263 2.25552380
v -2.27030317 10.92529867 2.08972722
v -2.26101031 10.88057895 2.05165531
v -2.25037225 10.82938579 2.02333971
v -2.23880691 10.77373033 2.00589280
v -0.76149613 11.13267943 2.08972722
v -0.75837916 11.08711085 2.05165531
v -0.75481098 11.03494595 2.02333971
v -0.75093178 10.97823406 2.00589280
v -0.20443093 11.23033884 2.16385095
v 0.76403946 11.16986152 2.13605977
v 0.76149613 11.13267943 2.08972722
v 0.75837916 11.08711085 2.05165531
v 0.75481098 11.03494595 2.02333971
v 2.95360314 10.80085117 2.11827509
v 2.27030317 10.92529867 2.08972722
v 2.26101031 10.88057895 2.05165531
v 1.85580798 10.85744675 2.00252046
v 4.29789656 10.41752368 2.34421272
v 3.19908919 10.77848505 2.18358823
v 5.17104491 9.97966367 2.24597301
v 5.16347584 9.96505602 2.18883277
v 5.10561085 9.85338162 2.00798534
v 6.48177888 9.18258868 2.24597301
v 6.76209292 8.91646619 2.10506856
v 7.64183898 8.18241160 2.13605977
v 8.15095173 7.51756878 2.01649991
v 8.05702051 7.86718960 2.24170140
v 9.17971286 6.49559161 2.17899879
v 9.05539219 6.55643045 2.07965143
v 10.50330197 4.04940469 2.22565075
v 9.86381697 5.26232108 2.07965146
v 9.56999369 5.62192133 2.01235840
v 10.90333623 2.62001423 2.13873612
v 11.13512460 1.53048765 2.24597301
v 11.11882566 1.52824741 2.18883277
v 11.05476025 1.51944182 2.08972722
v 10.83675992 2.26725378 2.00858527
v 9.45553263 0.59149630 10.52599450
v 11.09634383 -0.48906703 10.12861193
v -8.05110999 4.72168651 17.18901080
v -4.80243920 8.00910307 17.25357105
v -3.16365903 8.72942555 17.41117239
v 0.05310966 9.33226611 17.23334242
v 4.77465758 8.02451232 17.25469367
v 7.21372674 5.87831180 17.28724137
v 8.23243658 4.41402710 17.22968451
v 9.09800018 1.96809816 17.38281225
v 9.26542377 -0.00000000 17.53407707
v 8.42550694 -0.51889292 18.52456488
v 8.67294616 1.66519681 18.20634137
v 8.00157947 1.27463325 18.70197285
v 7.96562724 4.20559057 17.98912017
v 7.15764752 3.86638946 18.70862557
v 6.56434917 5.76600874 18.31752541
v 5.75050883 6.93159856 17.99504412
v 4.41288116 6.87616321 18.67124768
v 2.51427410 8.98172077 17.28743324
v 3.56439874 8.14691077 18.14208290
v 2.53134729 7.94371676 18.59921231
v 4.31346494 6.53526592 18.81554813
v 1.24385800 8.81333010 18.13050505
v 0.05357258 8.46097953 18.52106859
v -1.44838836 9.13176543 17.59631288
v -1.10092975 7.67800218 18.80843497
v -2.36253905 8.34795753 18.35277742
v -4.08156765 7.87706799 18.14349760
v -3.54928793 7.28841065 18.72523121
v -5.68173099 6.91274249 18.05539642
v -7.23094397 5.82437282 17.41137595
v -5.24382997 6.61069977 18.52863375
v -8.79656265 3.12900337 17.20384038
v -6.96705127 5.10981900 18.38484691
v -8.03407980 3.93285324 18.08261308
v -8.18048125 1.93245478 18.57613622
v -6.50388312 4.24029921 18.81139748
v -9.31558661 0.61023498 17.23279004
v -8.78947645 2.02819397 17.96966464
v -4.15718698 -6.85799676 -13.45079998
v -1.89654561 -7.79918211 -13.54772957
v -8.05525952 -3.48626391 -13.53169805
v -6.38337962 -6.05597021 -13.54250500
v -4.57584174 -7.52304055 -13.51822991
v 7.20507959 -5.03820031 -13.54607433
v 8.03130258 -3.48983587 -13.58780997
v 8.50402459 -2.25312743 -13.50352447
v 8.66336093 -0.98407041 -13.65642021
v 8.98112219 -2.14701535 1.99851628
v -0.30447502 -9.23747003 1.99976744
v -4.39138292 -8.11326321 1.99978427
v -9.21266092 -0.25441116 2.00037462
v -8.90043381 -2.49217432 1.99891095
v -2.35106416 -8.67413568 -5.55331958
v -7.88916828 -4.77887359 1.99965806
v -6.30045268 -6.75197162 1.99989970
v 2.44454761 -8.86379291 1.99804831
v 0.01994607 -8.79040389 -13.56641897
v 4.69798590 -7.94202705 1.99939603
v 6.61752906 -6.43217324 1.99943535
v 8.01316442 -4.51131358 1.99774195
v 2.62120570 -8.95604194 17.24889800
v 0.69661190 -9.25892268 17.41101271
v -2.59912767 -8.96490958 17.23453933
v -4.80962568 -8.00739757 17.22411765
v -6.76529084 -6.44124722 17.21936567
v -8.80352834 -3.08730688 17.26129874
v -9.21605677 -1.27285589 17.29212907
v -9.18231188 -2.16841263 10.12777496
v -9.52676865 -1.08250147 4.22787066
v -8.61764231 -4.24233100 4.15161059
v -6.78889274 -6.76345622 4.16373832
v -5.33802000 -7.99902361 4.12213028
v -4.27421141 -8.58713293 4.21230857
v -2.52747565 -9.23906489 4.17058695
v -1.16389511 -9.50099598 4.20977963
v 0.67561483 -9.44029116 10.52600361
v 0.99736346 -9.42053018 10.24087770
v 2.32880107 -9.27938665 4.13893321
v 4.78276510 -8.29818762 4.18638602
v 6.34451305 -7.22537649 4.12451909
v 8.10089760 -5.14428872 4.18330812
v 9.18086555 -2.15480302 11.52784250
v 2.34745170 -9.14444635 10.76419954
v 4.75066279 -8.04600923 17.19420379
v 6.67742029 -6.66819449 10.42246302
v -2.37448196 -9.13861309 10.79378022
v -9.07530851 -2.43172159 13.71861968
v -8.04292084 -4.71235340 17.14253979
v -8.48217691 -7.45301996 3.57318292
v 8.16327103 -7.76903896 2.30626184
v 9.60766603 -5.84255114 2.30523572
v 10.31374032 -4.47988962 2.30523572
v 10.82768915 -3.03377622 2.30523572
v 11.13993861 -1.53114932 2.30523572
v 11.14579952 -1.20534995 3.79308159
v 10.87258015 -2.77140295 3.70523572
v 8.94291239 -6.89348256 3.52396534
v 4.01915877 -10.55931823 2.99542030
v 2.13491435 -11.06337791 2.97140554
v 0.79950896 -11.17691738 4.03228760
v 0.66114339 -11.07178125 10.12504681
v -6.29447392 -9.34727121 3.62107318
v -10.67428302 -3.72237059 2.58550535
v -11.10510180 -0.50681519 10.06059430
v -7.61221136 8.26609004 3.75158595
v -3.53068121 10.67856283 3.60685324
v -0.77387841 11.18861538 3.90676771
v 0.58934689 11.08983001 10.07981560
v 0.67813591 11.18941432 4.29476428
v 0.62876257 11.19771010 4.17419367
v 4.18671118 10.44656450 3.73767849
v 10.01294954 5.25545469 2.56813374
v 11.18941432 0.67813591 4.29476428
v 11.18884650 0.78486489 3.89108730
v 11.09271921 0.57856062 10.06759218
v 9.48940443 1.25305510 4.40858240
v 8.57608876 4.33724291 4.13953752
v 7.22089420 6.33502216 4.14974805
v 2.33103210 9.26543056 4.20699309
v -0.82534194 9.45212925 10.40466622
v -2.33169135 9.27726303 4.14373853
v -5.22976365 8.04316265 4.19259378
v -6.76267007 6.78118246 4.19946643
v -9.30673344 2.47151826 4.05950216
v -9.53586760 1.08967881 4.17159704
v -9.07530851 2.43172159 13.71861968
v -9.15072375 2.27638328 10.51310611
v -6.53649039 6.66131855 17.20853646
v -2.34745170 9.14444635 10.76419954
v 2.34315941 9.14635480 10.73704046
v 6.52990983 6.65269532 17.15111620
v 9.17627253 2.15890851 11.68966427
v 2.38459541 -10.71258253 4.00976779
v -6.40259615 -7.39381986 4.01795962
v -7.64026295 -5.85554693 4.06126981
v -10.93827990 -1.19220684 4.00133059
v -9.93587019 -4.69461809 3.99703994
v 1.14789724 9.63493416 4.04476111
v 10.95451050 1.13987696 4.01283389
v -5.26572207 8.16492684 4.03722105
v -8.98114332 2.14699246 1.99894009
v -8.16182243 4.31563932 1.94303696
v 2.44453793 8.86377333 1.99726795
v 4.67238684 7.95360185 1.99936043
v 6.61039152 6.44091514 1.99944423
v 8.47968224 3.69201357 2.00004664
v 9.21265872 0.25441185 2.00032113
v -0.92954004 -8.45545714 -13.71780929
v 3.99319425 -7.12207335 -13.67626904
v 5.91278389 -5.64938497 -13.67831214
v 7.76059003 -3.01816667 -13.69240138
v 8.78908736 2.35502886 -1.85196327
v 7.78627954 4.48743648 -5.55199036
v 0.18673057 8.79892129 -13.49461579
v -2.44454357 8.86378475 1.99772314
v -6.56349258 6.44011412 1.99773865
v -0.00000000 9.22791460 1.99944844
v -4.69798322 7.94202417 1.99927526
v -7.78627954 4.48743648 -5.55199036
v 6.27657069 3.52234979 16.81145041
v 7.17520438 0.09984356 16.80457645
v -4.55317751 5.58887201 16.74295348
v 7.03278504 1.65007799 16.72117710
v -7.62221823 2.04236722 -9.11669758
v 5.17393669 5.03475060 16.72342100
v -5.39926680 5.37742782 0.57367458
v 0.95966632 10.99279411 4.17298758
v 0.87405037 9.84795707 10.06060460
v -0.85724543 10.80030360 10.06896850
v -0.95994474 10.89000936 4.29476428
v -11.11892663 -0.90081346 4.25041193
v -10.52702097 0.92938846 4.48882049
v -10.95293810 0.72401314 10.27461285
v 10.89000936 0.95994474 4.29476428
v 9.61428115 0.86216587 10.09203329
v 11.02169358 -0.94736206 4.20056028
v 9.86038596 -0.88070089 10.04749419
v 9.64082131 -0.60700549 10.33473757
v 0.95994474 -10.89000936 4.29476428
v 0.86278512 -9.60525573 10.09989497
v 0.84414609 -10.84770774 10.13161918
v -0.85983171 -10.79536877 10.03023572
v -0.85983171 -9.69063051 10.03023572
v -0.67979949 -9.58316121 10.33667546
v -8.98114443 -0.43580752 18.00663909
v -7.81980050 0.47564911 18.80390445
v -8.27959918 -1.19135367 18.58979740
v -8.48841632 -3.04837273 17.97154304
v -7.66256274 -3.93161807 18.39895128
v -6.90572747 -3.90824439 18.76176827
v -7.35610078 -5.08656204 18.09480187
v -5.66770339 -6.21220812 18.55753130
v -5.73348582 -6.94793558 17.98027373
v -4.17422815 -7.97395574 17.98076604
v -3.89112545 -6.88257338 18.79595891
v -2.47968271 -7.87256795 18.62957975
v -2.40169712 -8.72109545 17.93198447
v -0.32571530 -9.31900063 17.22675360
v -0.83891335 -8.33513391 18.58790821
v -0.10575692 -8.86775127 18.16079181
v 2.29422552 -8.70974070 17.98931696
v -0.33133145 -7.69027233 18.81546786
v 2.54635521 -7.74647766 18.70398889
v 4.08156765 -7.87706799 18.14349760
v 5.70508886 -7.06497287 17.87167231
v 6.88988886 -6.26410044 17.37576612
v 5.34991300 -6.54835267 18.52135025
v 6.77306223 -5.20271224 18.47497607
v 7.94618205 -4.20562605 18.03192384
v 8.22460132 -4.44481590 17.14696033
v 5.78423438 -5.16268947 18.81266162
v 7.92165464 -2.68391553 18.58048076
v 9.15239271 -1.82406511 17.23047651
v 8.84114849 -1.88400030 17.93889960
v 7.72095933 -0.39373959 18.81969783
v -11.06430872 -2.11679583 3.52684516
v -11.09331295 -1.28846618 3.86938208
v -11.05622707 -1.28415873 3.91397513
v -11.01129130 -1.27893953 3.95052639
v -10.96019446 -1.27300473 3.97766215
v -1.26657738 -10.90485692 3.99436257
v -1.27300473 -10.96019446 3.97766215
v -1.27893953 -11.01129130 3.95052639
v -1.28415873 -11.05622707 3.91397513
v -1.28846618 -11.09331295 3.86938208
v -1.26409586 -11.14686032 3.74640393
v -2.71161173 -10.63801131 3.99436257
v -2.72537202 -10.69199472 3.97766215
v -2.73807780 -10.74184120 3.95052639
v -2.74925157 -10.78567737 3.91397513
v -2.75847338 -10.82185575 3.86938208
v -2.76539665 -10.84901666 3.81842316
v -4.12890945 -10.23222900 3.97766215
v -4.14815858 -10.27993204 3.95052639
v -4.16508672 -10.32188322 3.91397513
v -4.17905767 -10.35650590 3.86938208
v -4.18954635 -10.38249886 3.81842316
v -3.36164025 -10.77867407 3.43740540
v -5.04676157 -9.77043232 3.99928628
v -5.48391777 -9.63383974 3.95052639
v -5.50629699 -9.67315430 3.91397513
v -5.52476675 -9.70560095 3.86938208
v -5.53863292 -9.72996025 3.81842316
v -7.64802243 -7.96284709 3.99747627
v -6.72142289 -8.81514020 3.95052639
v -6.74885221 -8.85111373 3.91397513
v -6.77148988 -8.88080301 3.86938208
v -7.83850184 -7.83850184 3.95052639
v -7.87048984 -7.87048984 3.91397513
v -7.54616327 -8.30439207 3.80883907
v -8.27750198 -7.29634505 3.98497847
v -8.81514020 -6.72142289 3.95052639
v -8.85111373 -6.74885221 3.91397513
v -8.88080301 -6.77148988 3.86938208
v -9.58913484 -5.45847018 3.97766215
v -9.63383974 -5.48391777 3.95052639
v -9.67315430 -5.50629699 3.91397513
v -9.70560095 -5.52476675 3.86938208
v -9.72996025 -5.53863292 3.81842316
v -9.49661990 -6.01724842 3.66746539
v -10.23222900 -4.12890945 3.97766215
v -10.27993204 -4.14815858 3.95052639
v -10.32188322 -4.16508672 3.91397513
v -10.35650590 -4.17905767 3.86938208
v -10.38249886 -4.18954635 3.81842316
v -10.39888521 -4.19615857 3.76301355
v -10.69199472 -2.72537202 3.97766215
v -10.74184120 -2.73807780 3.95052639
v -10.78567737 -2.74925157 3.91397513
v -10.82185575 -2.75847338 3.86938208
v -10.84901666 -2.76539665 3.81842316
v -11.02788852 -1.05111683 4.03641862
v -11.16246969 -1.00785402 3.84278294
v -1.15588459 -10.86836248 4.01132972
v -0.96505129 -11.10527655 4.02523417
v -0.95311117 -11.01512757 4.17162907
v -0.75665180 -11.18710302 4.02885593
v -0.84471368 -11.06442558 6.20855290
v -0.71544174 -11.10091342 8.11983689
v -0.81626309 -10.96255697 10.11109612
v -0.87342939 -10.93403210 8.11983697
v -3.33291392 -9.16917951 4.02001879
v -9.01909548 -3.83188379 4.01247666
v -9.27004608 -2.46181274 4.13478486
v -9.71422653 -0.97857233 4.18358197
v -9.62629401 -1.13876125 4.04302561
v -11.02898453 -0.75647544 10.13404485
v -10.89586717 -0.80667735 10.20780360
v -9.59482125 -0.88104271 10.10374288
v -10.93250171 -0.59582054 10.30536899
v -0.69718829 -10.89072547 10.30218125
v -1.00180381 -9.66455846 4.15269525
v -1.17633915 -9.65901342 4.02364006
v -9.50142577 -1.01827442 6.99142662
v -11.07867419 0.54018073 10.16435490
v -0.08557029 -11.13973533 9.97825913
v -0.64309514 -11.06149867 10.17465254
v -0.87859228 -9.54614318 10.12489261
v -1.00160713 -9.55128287 6.20484456
v -1.02274731 -9.42898811 9.75392621
v -1.05186867 -9.56663931 4.20072673
v -9.58585151 -0.67938593 10.33882602
v -9.46601311 -0.91104247 10.18355231
v -11.06779827 0.68532544 10.03170475
v -10.90653845 0.83843861 10.03170475
v -11.04246019 0.72883042 10.04875968
v -11.05860894 0.67309859 10.14265136
v -10.96093412 0.80966830 10.04148153
v -10.85627005 0.84913959 10.09850416
v 0.74353837 -10.94264404 10.26603769
v -0.78963612 -9.45250932 10.43030505
v -9.65415200 0.71171354 10.32318917
v -9.47210515 0.51538963 10.47008894
v -9.43924732 -0.69179588 10.51931670
v -11.17974990 0.76905428 4.15685901
v -11.06442558 0.84471368 6.20855290
v -11.10091342 0.71544174 8.11983689
v -11.08688834 0.74296227 8.12008551
v -10.96227875 0.86093099 8.12008551
v -10.93403210 0.87342939 8.11983697
v -11.03319537 0.81104325 8.12038661
v 0.84471368 -11.06442558 6.20855290
v 0.86093099 -10.96227875 8.12008551
v 0.74351333 -11.03833719 10.04381592
v 0.71544174 -11.10091342 8.11983689
v 0.69048281 -9.58898753 10.34196720
v -9.42383479 0.96295692 10.30261547
v -9.49902384 0.90186777 10.21647048
v -9.60651300 0.85837713 10.13453208
v -10.86836248 1.15588459 4.01132972
v -10.88911739 2.64798333 3.80670380
v -11.09331295 1.28846618 3.86938208
v -11.05622707 1.28415873 3.91397513
v -11.01129130 1.27893953 3.95052639
v -10.96019446 1.27300473 3.97766215
v -10.90485692 1.26657738 3.99436257
v -11.16332273 0.95376720 3.88822134
v -11.03415423 0.97547008 4.07967279
v 1.09015985 -11.02127249 4.00111876
v 1.28846618 -11.09331295 3.86938208
v 1.29169999 -11.12115516 3.81842316
v 1.18371384 -11.14258538 3.80795675
v 0.94215100 -11.02787698 4.21639833
v 0.94274428 -9.48140031 10.01578847
v -9.69660362 0.97848937 4.20283931
v -9.45306676 1.05678559 8.11714322
v -9.55128287 1.00160713 6.20484456
v -9.61739162 0.91139828 8.11714322
v -1.29169999 11.12115516 3.81842316
v -1.28846618 11.09331295 3.86938208
v -2.40572687 10.86437342 3.88944835
v -1.27300473 10.96019446 3.97766215
v -10.63801131 2.71161173 3.99436257
v -10.69199472 2.72537202 3.97766215
v -10.74184120 2.73807780 3.95052639
v -10.78567737 2.74925157 3.91397513
v -10.82185575 2.75847338 3.86938208
v -10.84901666 2.76539665 3.81842316
v -10.23512918 3.91651780 3.99891622
v -10.23222900 4.12890945 3.97766215
v -10.27993204 4.14815858 3.95052639
v -10.32188322 4.16508672 3.91397513
v -10.35650590 4.17905767 3.86938208
v -10.38249886 4.18954635 3.81842316
v -10.39888521 4.19615857 3.76301355
v -9.54071972 5.43091060 3.99436257
v -9.58913484 5.45847018 3.97766215
v -9.63383974 5.48391777 3.95052639
v -9.67315430 5.50629699 3.91397513
v -9.70560095 5.52476675 3.86938208
v -10.05412668 5.03172166 3.72293261
v -8.72993366 6.65645408 3.99436257
v -8.77423439 6.69023277 3.97766215
v -8.81514020 6.72142289 3.95052639
v -8.85111373 6.74885221 3.91397513
v -8.88080301 6.77148988 3.86938208
v -9.11186615 6.64593128 3.57756089
v -7.76273543 7.76273543 3.99436257
v -7.80212803 7.80212803 3.97766215
v -7.83850184 7.83850184 3.95052639
v -7.87048984 7.87048984 3.91397513
v -7.89688981 7.89688981 3.86938208
v -6.65645408 8.72993366 3.99436257
v -6.69023277 8.77423439 3.97766215
v -6.72142289 8.81514020 3.95052639
v -6.74885221 8.85111373 3.91397513
v -6.77148988 8.88080301 3.86938208
v -6.78848510 8.90309223 3.81842316
v -5.43091060 9.54071972 3.99436257
v -5.45847018 9.58913484 3.97766215
v -5.48391777 9.63383974 3.95052639
v -5.50629699 9.67315430 3.91397513
v -5.52476675 9.70560095 3.86938208
v -6.34419990 9.25449775 3.80096506
v -4.88877781 10.10727113 3.76747479
v -4.10806277 10.18056693 3.99436257
v -4.12890945 10.23222900 3.97766215
v -4.14815858 10.27993204 3.95052639
v -4.16508672 10.32188322 3.91397513
v -4.17905767 10.35650590 3.86938208
v -4.18954635 10.38249886 3.81842316
v -1.14590116 10.94339018 4.00914660
v -2.72537202 10.69199472 3.97766215
v -2.73807780 10.74184120 3.95052639
v -2.75847338 10.82185575 3.86938208
v -2.76539665 10.84901666 3.81842316
v -2.76976118 10.86613930 3.76301355
v 10.96019446 -1.27300473 3.97766215
v 11.01129130 -1.27893953 3.95052639
v 11.05622707 -1.28415873 3.91397513
v 11.09331295 -1.28846618 3.86938208
v 10.88911739 -2.64798333 3.80670380
v 10.96219713 -1.11229597 4.01100802
v 10.69199472 -2.72537202 3.97766215
v 10.74184120 -2.73807780 3.95052639
v 10.78567737 -2.74925157 3.91397513
v 10.82185575 -2.75847338 3.86938208
v 10.84901666 -2.76539665 3.81842316
v 9.76907138 -5.10397067 3.99900886
v 10.27993204 -4.14815858 3.95052639
v 10.32188322 -4.16508672 3.91397513
v 10.35650590 -4.17905767 3.86938208
v 10.38249886 -4.18954635 3.81842316
v 10.39888521 -4.19615857 3.76301355
v 9.16139998 -6.16450802 3.98505943
v 9.63383974 -5.48391777 3.95052639
v 9.67315430 -5.50629699 3.91397513
v 9.70560095 -5.52476675 3.86938208
v 10.05412668 -5.03172166 3.72293261
v 8.81514020 -6.72142289 3.95052639
v 8.85111373 -6.74885221 3.91397513
v 8.88080301 -6.77148988 3.86938208
v 8.90309223 -6.78848510 3.81842316
v 7.18463452 -8.34605209 3.99521777
v 7.83850184 -7.83850184 3.95052639
v 7.87048984 -7.87048984 3.91397513
v 7.89688981 -7.89688981 3.86938208
v 7.91670958 -7.91670958 3.81842316
v 6.72142289 -8.81514020 3.95052639
v 6.74885221 -8.85111373 3.91397513
v 6.77148988 -8.88080301 3.86938208
v 6.78848510 -8.90309223 3.81842316
v 7.49515689 -8.37005900 3.76739292
v 5.50629699 -9.67315430 3.91397513
v 5.52476675 -9.70560095 3.86938208
v 5.53863292 -9.72996025 3.81842316
v 6.12663448 -9.46046121 3.48586594
v 4.78272946 -9.97635054 3.97878359
v 4.16508672 -10.32188322 3.91397513
v 4.17905767 -10.35650590 3.86938208
v 4.18954635 -10.38249886 3.81842316
v 4.19615857 -10.39888521 3.76301355
v 2.74925157 -10.78567737 3.91397513
v 2.75847338 -10.82185575 3.86938208
v 2.76539665 -10.84901666 3.81842316
v 2.76976118 -10.86613930 3.76301355
v 1.00160713 -9.55128287 6.20484456
v 1.05678559 -9.45306676 8.11714322
v 1.11021926 -9.52393984 4.18504271
v -9.69482186 1.12864254 4.02619306
v -1.23004530 11.14435387 3.78170180
v -0.90111971 11.13564178 4.00609544
v 11.15889678 -0.85738771 4.04717278
v 1.09371277 -9.68514567 4.03870886
v 0.98981744 -9.62995131 4.23734045
v -8.40018994 5.09638193 4.01978825
v -8.67972283 4.14475475 4.12037158
v -8.04661225 5.23852867 4.17495722
v -6.87429547 6.83954340 4.03473411
v -3.69616207 8.89981531 4.04552009
v -0.97565167 10.95963243 4.15348531
v -0.81625026 11.09670736 6.25581422
v -0.87342939 10.93403210 8.11983689
v 11.07988828 -0.86055031 5.89756201
v 9.65474910 -1.14081814 4.03147648
v 8.93151860 -4.00393164 4.02286114
v 9.10585515 -3.06958080 4.14027106
v 7.72196738 -5.85168052 4.02876030
v 5.47192484 -8.08984284 4.01686068
v 3.65488256 -8.91284933 4.04957945
v -1.06486164 9.63778259 4.07047938
v -0.81240950 10.96071772 10.12971710
v -0.65729728 10.94574948 10.29518544
v -0.59580035 11.09291938 10.10469484
v 10.93087003 -0.58163118 10.30926409
v 10.88824495 -0.81445604 10.20091843
v 11.03221293 -0.74945128 10.11302916
v 9.52185138 -1.09210532 4.22982293
v -0.86995301 9.59655793 10.00394152
v -1.00160713 9.55128287 6.20484456
v -1.05678559 9.45306676 8.11714322
v -1.12937854 9.51829851 4.18406725
v -0.85873716 9.57045347 10.16534548
v -0.98032150 9.64274291 4.28120077
v -0.65170139 9.64564352 10.32739502
v 9.41581477 -1.02765422 10.03905998
v 9.55128287 -1.00160713 6.20484456
v 9.61739162 -0.91139828 8.11714322
v 9.65882674 -0.98699349 4.19576462
v 0.68532544 11.06779827 10.03170475
v 0.83843861 10.90653845 10.03170475
v 0.82800003 10.88382509 10.15806373
v 0.81152351 10.95712972 10.04971970
v 0.71085869 10.96718933 10.27001687
v 0.73417087 11.03898111 10.04275782
v 0.62893415 11.06945403 10.15504386
v 10.90653845 0.83843861 10.03170475
v 10.96093412 0.80966830 10.04148153
v 11.04246019 0.72883042 10.04875968
v 11.06779827 0.68532544 10.03170475
v 11.07511009 0.62342261 10.13427946
v 10.95426244 0.72138290 10.27503567
v 10.82151646 0.85470687 10.07868957
v 10.87334165 0.83042658 10.15668005
v 9.45556417 -0.62050732 10.47908922
v 9.47274918 -0.89484194 10.21931002
v 0.65741724 9.58654389 10.34829266
v 0.84471368 11.06442558 6.20855290
v 0.71544174 11.10091342 8.11983689
v 0.74296227 11.08688834 8.12008551
v 0.86093099 10.96227875 8.12008551
v 0.87342939 10.93403210 8.11983697
v 0.81104325 11.03319537 8.12038661
v 11.03777468 2.37025829 3.33341665
v 11.09331295 1.28846618 3.86938208
v 11.12608114 1.03051059 3.92591436
v 1.26657738 10.90485692 3.99436257
v 1.27300473 10.96019446 3.97766215
v 1.27893953 11.01129130 3.95052639
v 1.28415873 11.05622707 3.91397513
v 1.28846618 11.09331295 3.86938208
v 2.71161173 10.63801131 3.99436257
v 2.72537202 10.69199472 3.97766215
v 2.73807780 10.74184120 3.95052639
v 2.74925157 10.78567737 3.91397513
v 2.75847338 10.82185575 3.86938208
v 2.76539665 10.84901666 3.81842316
v 4.12890945 10.23222900 3.97766215
v 4.14815858 10.27993204 3.95052639
v 4.16508672 10.32188322 3.91397513
v 4.17905767 10.35650590 3.86938208
v 4.18954635 10.38249886 3.81842316
v 4.88270921 9.85440433 3.99523200
v 5.45847018 9.58913484 3.97766215
v 5.48391777 9.63383974 3.95052639
v 5.50629699 9.67315430 3.91397513
v 5.52476675 9.70560095 3.86938208
v 5.53863292 9.72996025 3.81842316
v 7.06350163 8.43741764 3.99466616
v 6.72142289 8.81514020 3.95052639
v 6.74885221 8.85111373 3.91397513
v 6.77148988 8.88080301 3.86938208
v 6.74577311 9.06012765 3.32355609
v 7.80212803 7.80212803 3.97766215
v 7.83850184 7.83850184 3.95052639
v 7.87048984 7.87048984 3.91397513
v 7.89688981 7.89688981 3.86938208
v 7.37694844 8.43775373 3.82537813
v 9.23889839 6.02224354 3.98956523
v 8.81514020 6.72142289 3.95052639
v 8.85111373 6.74885221 3.91397513
v 8.88080301 6.77148988 3.86938208
v 8.90309223 6.78848510 3.81842316
v 8.52305184 7.38200590 3.56293647
v 9.63383974 5.48391777 3.95052639
v 9.67315430 5.50629699 3.91397513
v 9.70560095 5.52476675 3.86938208
v 9.72996025 5.53863292 3.81842316
v 10.55249619 3.21508931 3.99235088
v 10.57752618 3.28270614 3.97913105
v 10.32188322 4.16508672 3.91397513
v 10.35650590 4.17905767 3.86938208
v 10.11899577 4.88687965 3.76915962
v 10.82185575 2.75847338 3.86938208
v 10.84901666 2.76539665 3.81842316
v 10.68527156 3.51652612 3.73527603
v 11.06442558 0.84471368 6.20855290
v 10.93403210 0.87342939 8.11983689
v 10.96227875 0.86093099 8.12008551
v 11.08688834 0.74296227 8.12008551
v 11.10091342 0.71544174 8.11983689
v 10.98710163 0.96984263 4.14811673
v 11.03319537 0.81104325 8.12038661
v 9.60253794 0.64993150 10.34058600
v 0.85968431 9.60071636 10.13740372
v 0.96526609 9.42286350 10.30255393
v 0.49689157 9.45560577 10.53456101
v 0.91414005 9.49650258 10.17008374
v 1.09627754 11.02217985 4.00823668
v 0.79834611 11.16785297 4.11421754
v 1.26409586 11.14686032 3.74640393
v 11.14170378 1.16111656 3.82031235
v 11.15264549 0.82051899 4.22747720
v 9.46711748 0.90009886 10.22589329
v 0.98871747 9.70275595 4.14988610
v 1.05678559 9.45306676 8.11714322
v 1.00160713 9.55128287 6.20484456
v 0.91139828 9.61739162 8.11714322
v 9.55128287 1.00160713 6.20484456
v 9.53582946 1.08901447 4.16642822
v 1.13229019 9.51375592 4.20036188
v 1.03355389 9.58595878 4.22092411
v 9.65802771 0.98653583 4.19049081
v 3.29359549 9.19316233 4.02676724
v 6.72087712 7.21404184 4.01838806
v 4.33865057 8.56972665 4.14591993
v 5.82765408 7.60356308 4.16519929
v 8.69178583 4.51176195 4.01745815
v 9.67979508 1.10553132 4.04053885
v 11.13512460 -1.53048765 2.24597301
v 11.11882566 -1.52824741 2.18883277
v 11.09168210 -1.52451661 2.13605977
v 11.10584453 -0.75966056 2.03866971
v 10.82301008 -3.03246521 2.24597301
v 10.80716799 -3.02802646 2.18883277
v 10.78078525 -3.02063437 2.13605977
v 10.99051556 -1.72039020 2.01359139
v 10.30928335 -4.47795368 2.24597301
v 10.29419323 -4.47139911 2.18883277
v 10.26906278 -4.46048342 2.13605977
v 9.60351418 -5.84002635 2.24597301
v 9.58945712 -5.83147806 2.18883277
v 9.56604709 -5.81724210 2.13605977
v 9.98154117 -5.06679179 2.10460733
v 9.83550910 -5.07996195 2.00783971
v 8.71884971 -7.09331037 2.24597301
v 8.70608757 -7.08292760 2.18883277
v 8.68483405 -7.06563657 2.13605977
v 8.65592409 -7.04211657 2.08972722
v 7.67176957 -8.21445944 2.24597301
v 7.66054009 -8.20243560 2.18883277
v 7.64183898 -8.18241160 2.13605977
v 7.94670777 -7.74150457 2.01854880
v 6.48177888 -9.18258868 2.24597301
v 6.47229123 -9.16914775 2.18883277
v 6.45649091 -9.14676379 2.13605977
v 5.16347584 -9.96505602 2.18883277
v 5.15087063 -9.94072907 2.13605977
v 4.56482078 -10.30088513 2.28397600
v 3.74929938 -10.54951737 2.13605977
v 4.54520297 -10.22959788 2.10460730
v 5.55582128 -9.59466469 2.00435674
v 2.28680750 -11.00472189 2.24597301
v 3.11970921 -10.81470499 2.21879013
v 2.27030317 -10.92529867 2.08972722
v 2.98024804 -10.71694660 2.04268171
v 0.00838567 -11.27821057 2.33222271
v 0.76590922 -11.19719640 2.18883277
v 1.52595566 -11.10215224 2.12850676
v 0.76149613 -11.13267943 2.08972722
v -0.76590922 -11.19719640 2.18883277
v -0.76403946 -11.16986152 2.13605977
v -0.76149613 -11.13267943 2.08972722
v -2.71477111 -10.89923599 2.15964671
v -2.27788577 -10.96178813 2.13605977
v -2.27030317 -10.92529867 2.08972722
v -2.26101031 -10.88057895 2.05165531
v -1.22817358 -11.02696342 2.02825867
v 0.13601817 -11.06062229 1.99858240
v -4.28494810 -10.41111582 2.25386333
v -3.75847466 -10.57533415 2.18883277
v -3.73681876 -10.51440028 2.08972722
v -3.70777824 -10.44674638 2.03365338
v -5.16347584 -9.96505602 2.18883277
v -5.15087063 -9.94072907 2.13605977
v -5.12213585 -9.88527348 2.06514434
v -5.83969275 -9.63176899 2.31976276
v -6.45649091 -9.14676379 2.13605977
v -6.43499863 -9.11631616 2.08972722
v -5.62340772 -9.51042184 1.99872264
v -7.09095059 -8.71594914 2.18184578
v -7.64183898 -8.18241160 2.13605977
v -7.61640092 -8.15517410 2.08972722
v -8.26741702 -7.65649102 2.25838725
v -8.68483405 -7.06563657 2.13605977
v -8.65592409 -7.04211657 2.08972722
v -8.38025079 -7.26983072 2.00664448
v -9.90334570 -5.37649151 2.34208246
v -9.56604709 -5.81724210 2.13605977
v -9.53420376 -5.79787774 2.08972722
v -9.10699854 -6.35780001 2.03426022
v -9.92025343 -5.29379129 2.18197371
v -10.26906278 -4.46048342 2.13605977
v -10.23487925 -4.44563542 2.08972722
v -10.30457866 -4.00740803 2.00956997
v -10.82301008 -3.03246521 2.24597301
v -10.80716799 -3.02802646 2.18883277
v -10.74489831 -3.01057932 2.08972722
v -10.70091701 -2.99825634 2.05165531
v -11.13512460 -1.53048765 2.24597301
v -11.11882566 -1.52824741 2.18883277
v -10.97213569 -2.28003596 2.12850680
v -11.05476025 -1.51944182 2.08972722
v -11.00951061 -1.51322240 2.05165531
v 7.85379487 -1.75757408 -13.56719327
v 7.36277124 -3.21071258 -13.56037438
v 6.90898967 -4.06822704 -13.50732124
v 5.80956004 -5.54174542 -13.50639364
v 4.14902420 -6.88245803 -13.53469737
v 2.16864877 -7.91656292 -13.68625404
v 2.13652361 -7.73780487 -13.50759004
v 0.01541150 -8.04049768 -13.56049146
v -0.40261753 -8.17571791 -13.68493148
v -3.20756842 -7.38053761 -13.55021414
v -4.51807333 -6.77421696 -13.66026960
v -5.82780110 -5.53702600 -13.53670017
v -7.06278802 -3.82381454 -13.51670627
v -6.92523268 -4.54908790 -13.68631779
v -7.77034280 -2.06073284 -13.60237901
v -7.98887754 -1.09408432 -13.62286116
v 8.01110468 -3.29377184 -13.69048767
v 6.58272553 -5.53843599 -13.69491710
v 6.14620388 -6.27137010 -13.56863797
v 4.60665493 -7.50769650 -13.48624866
v 4.80907230 -7.15356502 -13.68825339
v 3.49401346 -8.06086916 -13.56331164
v 1.86607227 -8.51502374 -13.65915187
v -2.35012391 -8.47362923 -13.54543987
v -3.60627054 -7.87856950 -13.67444402
v -5.58788591 -6.55691274 -13.70194201
v -7.58827365 -4.46725864 -13.42912288
v -7.49609627 -4.29219558 -13.68953700
v -8.57179418 -1.97314976 -13.55804795
v -8.47405209 -1.28114790 -13.70229937
v 6.23314787 3.62881877 16.72401223
v 3.67012772 6.19838756 16.77503192
v 1.95737610 6.94725643 16.73565262
v 0.01645235 7.21888066 16.72588099
v -1.90828717 6.95616604 16.74648019
v 0.76495594 7.15103726 16.81459806
v -3.58899545 6.23359369 16.80260856
v -6.32747924 3.43388032 16.79354835
v -5.61163927 4.46187969 16.79328558
v -6.97414497 1.84521738 16.72154351
v -7.19839039 0.34887783 16.75813824
f 8 5 4
f 11 10 6
f 13 12 11
f 15 14 13
f 328 7 15
f 21 22 24
f 41 21 20
f 19 41 20
f 26 41 19
f 26 19 25
f 27 26 25
f 29 27 28
f 29 28 321
f 32 30 18
f 31 32 18
f 32 31 17
f 33 32 17
f 33 16 34
f 33 34 214
f 40 39 38
f 42 38 41
f 42 40 38
f 44 42 41
f 44 41 43
f 45 44 43
f 46 43 36
f 46 45 43
f 48 46 36
f 48 36 47
f 49 48 47
f 49 47 50
f 51 49 50
f 52 51 50
f 52 50 35
f 53 52 35
f 55 53 35
f 54 55 35
f 55 54 37
f 75 63 62
f 75 70 63
f 76 70 75
f 76 71 70
f 77 71 76
f 77 72 71
f 78 73 72
f 78 72 77
f 79 74 73
f 79 73 78
f 86 74 79
f 86 67 74
f 80 62 61
f 80 75 62
f 81 76 75
f 81 75 80
f 82 77 76
f 82 76 81
f 83 78 77
f 83 77 82
f 84 78 83
f 84 79 78
f 85 86 79
f 85 79 84
f 87 61 60
f 87 80 61
f 88 81 80
f 88 80 87
f 88 82 81
f 89 82 88
f 90 83 82
f 90 82 89
f 91 84 83
f 91 83 90
f 92 85 84
f 92 84 91
f 99 309 67
f 99 85 92
f 99 67 86
f 99 86 85
f 93 87 60
f 94 88 87
f 94 87 93
f 95 89 88
f 95 88 94
f 96 90 89
f 96 89 95
f 97 91 90
f 97 90 96
f 98 92 91
f 98 91 97
f 99 92 98
f 100 60 544
f 100 93 60
f 101 93 100
f 101 94 93
f 102 94 101
f 102 95 94
f 103 95 102
f 103 97 96
f 103 96 95
f 104 97 103
f 105 98 97
f 105 97 104
f 111 309 99
f 111 99 98
f 111 98 105
f 111 68 309
f 59 100 544
f 106 100 59
f 106 101 100
f 107 101 106
f 107 102 101
f 108 102 107
f 108 103 102
f 109 104 103
f 109 103 108
f 110 105 104
f 110 104 109
f 111 105 110
f 112 106 59
f 113 106 112
f 114 106 113
f 114 107 106
f 115 108 107
f 115 107 114
f 116 109 108
f 116 108 115
f 117 110 109
f 117 109 116
f 68 111 110
f 68 110 117
f 118 113 112
f 119 114 113
f 119 115 114
f 119 113 118
f 120 116 115
f 120 115 119
f 121 116 120
f 122 117 116
f 122 116 121
f 68 117 122
f 123 118 112
f 124 119 118
f 124 118 123
f 125 119 124
f 125 120 119
f 126 121 120
f 126 120 125
f 127 122 121
f 127 121 126
f 69 122 127
f 69 68 122
f 129 124 123
f 129 125 124
f 130 125 129
f 130 126 125
f 131 127 126
f 131 126 130
f 132 69 127
f 132 127 131
f 128 123 58
f 137 129 123
f 137 123 128
f 133 129 137
f 134 129 133
f 134 130 129
f 135 131 130
f 135 130 134
f 135 132 131
f 136 69 132
f 136 145 69
f 136 132 135
f 57 128 58
f 137 128 57
f 139 134 133
f 139 133 137
f 139 137 138
f 140 134 139
f 141 135 134
f 141 136 135
f 141 134 140
f 145 136 141
f 57 138 137
f 142 138 57
f 143 139 138
f 143 138 142
f 144 140 139
f 144 139 143
f 145 140 144
f 145 141 140
f 146 147 57
f 147 142 57
f 142 144 143
f 150 144 142
f 150 145 144
f 148 146 720
f 149 146 148
f 149 147 146
f 150 147 149
f 150 142 147
f 151 148 720
f 151 149 148
f 152 149 151
f 152 150 149
f 155 720 731
f 155 151 720
f 155 152 151
f 153 152 155
f 154 150 152
f 157 153 155
f 157 155 156
f 154 152 153
f 154 153 157
f 279 155 731
f 279 156 155
f 159 157 156
f 160 154 157
f 158 279 691
f 158 156 279
f 158 159 156
f 160 157 159
f 161 159 158
f 165 160 159
f 165 159 161
f 162 691 56
f 162 56 64
f 162 158 691
f 162 161 158
f 163 64 65
f 163 65 66
f 163 161 162
f 163 162 64
f 161 163 66
f 164 66 780
f 164 161 66
f 165 780 784
f 165 161 164
f 165 164 780
f 178 176 175
f 178 177 176
f 179 177 178
f 180 175 174
f 180 178 175
f 181 178 180
f 181 179 178
f 181 382 179
f 181 188 382
f 173 180 174
f 182 180 173
f 182 181 180
f 183 173 298
f 183 182 173
f 172 183 298
f 188 181 182
f 184 182 183
f 186 183 172
f 184 188 182
f 186 184 183
f 186 172 185
f 187 184 186
f 189 186 185
f 188 184 187
f 189 187 186
f 189 185 171
f 190 187 189
f 191 189 171
f 192 187 190
f 190 189 191
f 192 188 187
f 193 190 191
f 192 190 193
f 193 191 170
f 195 192 193
f 194 170 169
f 194 193 170
f 194 195 193
f 196 194 169
f 198 194 196
f 198 195 194
f 196 169 295
f 195 203 192
f 197 196 295
f 200 196 197
f 200 198 196
f 201 197 168
f 203 198 200
f 203 195 198
f 201 200 197
f 201 168 199
f 205 201 199
f 202 200 201
f 202 203 200
f 202 201 205
f 204 205 199
f 205 204 352
f 202 205 352
f 202 352 354
f 353 202 354
f 353 203 202
f 14 15 7
f 12 13 14
f 10 11 12
f 862 7 328
f 862 328 37
f 862 14 7
f 865 12 14
f 10 12 865
f 864 14 862
f 5 902 4
f 868 9 6
f 868 6 10
f 865 14 864
f 869 9 868
f 866 10 865
f 866 868 10
f 864 862 863
f 1 9 869
f 206 2 1
f 3 2 206
f 207 1 869
f 874 8 3
f 206 1 207
f 876 39 902
f 876 902 5
f 876 5 8
f 876 8 874
f 873 3 206
f 874 3 873
f 206 207 871
f 876 877 39
f 888 890 208
f 890 218 23
f 221 890 888
f 219 218 890
f 209 221 888
f 220 885 224
f 220 210 885
f 221 219 890
f 217 209 210
f 222 221 209
f 220 217 210
f 223 224 884
f 223 884 883
f 217 222 209
f 881 223 883
f 220 216 217
f 216 220 224
f 227 880 211
f 227 211 212
f 223 216 224
f 213 214 34
f 213 227 212
f 225 223 881
f 226 881 880
f 226 225 881
f 213 34 314
f 227 226 880
f 215 213 314
f 215 227 213
f 249 176 380
f 249 380 377
f 249 682 166
f 249 166 176
f 249 683 682
f 249 663 683
f 252 373 251
f 252 377 373
f 249 644 655
f 249 655 663
f 248 249 377
f 248 644 249
f 250 228 229
f 250 251 228
f 252 247 248
f 252 248 377
f 365 250 229
f 365 478 243
f 365 243 250
f 250 243 244
f 246 251 250
f 246 247 252
f 246 252 251
f 253 365 230
f 253 478 365
f 250 244 245
f 250 245 647
f 250 647 246
f 231 253 230
f 253 467 478
f 241 242 467
f 241 467 253
f 240 253 231
f 240 241 253
f 254 233 234
f 254 234 204
f 254 204 480
f 254 480 481
f 254 255 233
f 238 239 240
f 238 240 231
f 238 231 232
f 235 481 470
f 235 254 481
f 235 255 254
f 255 238 232
f 255 237 302
f 255 302 238
f 235 236 451
f 235 451 237
f 235 237 255
f 56 167 630
f 261 56 630
f 261 630 262
f 261 262 263
f 260 261 263
f 260 263 596
f 259 596 264
f 259 260 596
f 258 259 264
f 257 258 264
f 257 264 614
f 444 267 463
f 814 266 267
f 444 814 267
f 814 444 393
f 405 814 393
f 834 827 405
f 834 405 269
f 845 256 427
f 845 427 270
f 63 383 440
f 63 338 271
f 63 440 338
f 63 271 462
f 63 482 504
f 63 462 482
f 62 504 61
f 62 63 504
f 60 538 544
f 60 61 538
f 59 544 272
f 59 272 112
f 123 112 273
f 123 273 628
f 58 628 274
f 58 123 628
f 277 58 274
f 58 277 758
f 57 58 758
f 57 758 278
f 146 57 278
f 146 278 720
f 280 282 167
f 56 281 280
f 56 691 281
f 56 280 167
f 277 274 651
f 277 651 275
f 277 275 276
f 293 480 204
f 293 204 199
f 168 293 199
f 294 480 293
f 294 494 480
f 295 168 197
f 168 294 293
f 294 634 291
f 294 291 292
f 635 634 294
f 635 294 168
f 296 170 191
f 296 191 171
f 296 169 170
f 290 635 168
f 290 168 295
f 171 754 287
f 171 287 296
f 289 295 169
f 289 290 295
f 297 171 185
f 297 754 171
f 296 289 169
f 296 287 288
f 296 288 637
f 296 637 289
f 172 297 185
f 297 753 754
f 297 773 286
f 297 286 753
f 174 298 173
f 773 297 172
f 299 174 175
f 299 175 176
f 299 176 166
f 298 774 773
f 298 773 172
f 298 285 774
f 299 166 761
f 284 298 174
f 284 285 298
f 299 284 174
f 299 761 283
f 299 283 284
f 645 601 586
f 645 646 601
f 646 300 601
f 647 506 300
f 647 300 646
f 643 645 586
f 631 506 647
f 642 643 580
f 406 441 460
f 449 406 460
f 301 406 449
f 302 411 301
f 450 411 302
f 304 411 450
f 303 304 450
f 453 303 450
f 775 776 306
f 569 637 648
f 526 627 291
f 526 497 627
f 526 291 633
f 307 637 569
f 226 792 800
f 226 800 809
f 225 226 809
f 227 792 226
f 223 225 809
f 215 792 227
f 223 809 826
f 215 784 792
f 216 223 826
f 314 784 215
f 314 165 784
f 216 826 837
f 313 165 314
f 217 216 837
f 160 165 313
f 222 217 837
f 312 160 313
f 844 222 837
f 154 160 312
f 844 221 222
f 150 312 311
f 150 154 312
f 852 221 844
f 852 219 221
f 150 311 310
f 67 219 852
f 218 219 67
f 145 150 310
f 324 145 310
f 67 308 218
f 69 145 324
f 69 324 322
f 67 309 308
f 69 322 325
f 68 69 325
f 68 325 323
f 68 323 309
f 369 353 362
f 203 353 369
f 192 203 369
f 192 369 378
f 382 192 378
f 188 192 382
f 316 317 879
f 882 316 879
f 318 879 317
f 318 878 879
f 867 316 882
f 867 882 884
f 318 214 878
f 870 867 884
f 870 884 315
f 54 214 318
f 54 33 214
f 35 33 54
f 315 886 887
f 35 32 33
f 32 35 50
f 889 875 887
f 30 32 50
f 29 30 50
f 29 50 47
f 22 38 891
f 29 47 36
f 27 29 36
f 21 38 22
f 41 38 21
f 26 27 36
f 26 36 43
f 26 43 41
f 320 33 17
f 320 16 33
f 16 314 34
f 31 320 17
f 319 313 314
f 319 314 16
f 310 30 29
f 310 29 321
f 310 18 30
f 320 319 16
f 320 312 313
f 320 313 319
f 312 320 31
f 322 28 27
f 322 321 28
f 311 312 31
f 311 18 310
f 311 31 18
f 25 322 27
f 323 19 20
f 323 25 19
f 324 310 321
f 326 20 21
f 326 323 20
f 322 324 321
f 24 22 23
f 24 326 21
f 325 322 25
f 323 325 25
f 24 23 218
f 326 309 323
f 308 24 218
f 308 309 326
f 308 326 24
f 4 2 3
f 4 3 8
f 9 1 2
f 11 6 9
f 898 899 900
f 898 2 4
f 898 4 899
f 898 9 2
f 15 13 11
f 327 15 11
f 327 328 15
f 327 898 897
f 327 897 893
f 327 9 898
f 327 11 9
f 333 329 900
f 333 900 899
f 898 329 333
f 894 897 895
f 331 899 901
f 331 902 39
f 331 901 902
f 42 899 331
f 333 899 42
f 45 898 333
f 330 327 892
f 896 898 45
f 331 39 40
f 48 895 896
f 42 331 40
f 894 895 48
f 46 896 45
f 333 44 45
f 333 42 44
f 51 893 894
f 48 896 46
f 52 893 51
f 52 332 893
f 49 51 894
f 49 894 48
f 892 332 52
f 55 328 330
f 55 330 892
f 55 37 328
f 53 892 52
f 55 892 53
f 334 335 762
f 336 661 656
f 336 337 661
f 671 650 662
f 671 662 684
f 452 456 338
f 496 339 476
f 469 340 457
f 479 340 469
f 680 341 770
f 680 770 342
f 343 344 666
f 652 751 345
f 679 751 652
f 632 347 348
f 632 348 346
f 350 459 349
f 351 458 477
f 493 351 477
f 234 352 204
f 355 234 233
f 355 352 234
f 355 354 352
f 356 354 355
f 358 233 255
f 358 355 233
f 357 354 356
f 357 353 354
f 356 355 358
f 232 358 255
f 357 362 353
f 359 357 356
f 359 356 358
f 360 358 232
f 359 358 360
f 231 360 232
f 362 357 359
f 361 360 231
f 361 359 360
f 362 359 361
f 230 361 231
f 364 361 230
f 363 361 364
f 363 362 361
f 366 363 364
f 365 364 230
f 367 364 365
f 367 366 364
f 369 362 363
f 229 367 365
f 366 369 363
f 368 229 228
f 368 367 229
f 370 366 367
f 370 367 368
f 370 369 366
f 371 368 228
f 371 228 251
f 371 370 368
f 372 371 251
f 374 371 372
f 373 372 251
f 370 378 369
f 374 370 371
f 378 370 374
f 375 372 373
f 375 374 372
f 376 373 377
f 376 375 373
f 378 374 375
f 379 375 376
f 381 376 377
f 381 377 380
f 379 378 375
f 379 376 381
f 381 380 176
f 382 378 379
f 381 176 177
f 177 379 381
f 177 382 379
f 382 177 179
f 394 388 441
f 394 441 406
f 395 388 394
f 395 389 388
f 396 390 389
f 396 389 395
f 397 391 390
f 397 390 396
f 398 392 391
f 398 391 397
f 399 393 392
f 399 392 398
f 400 395 394
f 400 394 406
f 401 395 400
f 401 396 395
f 402 397 396
f 402 396 401
f 403 398 397
f 403 397 402
f 404 399 398
f 404 398 403
f 405 393 399
f 405 399 404
f 407 401 400
f 407 400 406
f 408 401 407
f 408 402 401
f 409 402 408
f 409 403 402
f 410 403 409
f 410 404 403
f 269 404 410
f 269 405 404
f 411 406 301
f 412 407 406
f 412 406 411
f 413 408 407
f 413 407 412
f 414 410 409
f 414 408 413
f 414 409 408
f 417 410 414
f 269 410 417
f 415 412 411
f 415 411 418
f 416 412 415
f 416 413 412
f 417 414 413
f 417 413 416
f 256 269 417
f 419 415 418
f 420 415 419
f 420 416 415
f 421 417 416
f 421 416 420
f 256 417 421
f 422 419 418
f 422 418 411
f 422 411 304
f 423 419 422
f 424 420 419
f 424 419 423
f 425 420 424
f 425 421 420
f 426 421 425
f 426 256 421
f 427 256 426
f 428 422 304
f 429 423 422
f 429 422 428
f 430 425 424
f 430 423 429
f 430 424 423
f 431 425 430
f 432 425 431
f 432 426 425
f 433 427 426
f 433 270 427
f 433 426 432
f 434 428 304
f 434 303 387
f 434 304 303
f 435 428 434
f 435 387 386
f 435 429 428
f 435 434 387
f 436 386 385
f 436 430 429
f 436 435 386
f 436 429 435
f 437 385 384
f 437 430 436
f 437 431 430
f 437 432 431
f 437 436 385
f 438 440 383
f 438 384 440
f 438 437 384
f 438 433 432
f 438 432 437
f 383 270 433
f 383 433 438
f 303 386 387
f 439 384 385
f 439 385 386
f 439 386 303
f 439 440 384
f 440 439 338
f 442 390 391
f 442 441 388
f 442 388 389
f 442 389 390
f 393 391 392
f 393 442 391
f 442 443 441
f 442 393 444
f 453 439 303
f 452 338 439
f 452 439 453
f 454 338 456
f 454 456 455
f 454 271 338
f 442 444 445
f 446 463 464
f 446 445 444
f 446 444 463
f 447 446 464
f 447 445 446
f 448 447 349
f 448 349 459
f 448 443 445
f 448 459 443
f 448 445 447
f 443 442 445
f 441 459 460
f 443 459 441
f 241 449 460
f 241 460 242
f 240 449 241
f 239 449 240
f 301 449 239
f 238 301 239
f 302 301 238
f 237 450 302
f 451 453 450
f 451 450 237
f 451 236 453
f 452 453 236
f 457 454 455
f 458 447 464
f 468 460 459
f 242 460 468
f 456 452 461
f 461 235 470
f 461 236 235
f 470 456 461
f 452 236 461
f 469 457 455
f 456 469 455
f 457 340 462
f 454 462 271
f 457 462 454
f 464 463 268
f 464 268 477
f 477 458 464
f 458 351 465
f 447 458 465
f 447 465 350
f 349 447 350
f 459 350 466
f 467 242 466
f 468 466 242
f 465 466 350
f 468 459 466
f 465 467 466
f 470 481 469
f 470 469 456
f 473 471 474
f 474 462 340
f 340 473 474
f 476 472 475
f 476 475 340
f 491 477 268
f 478 467 465
f 351 478 465
f 479 469 480
f 481 480 469
f 476 340 479
f 476 479 496
f 484 462 474
f 484 474 471
f 484 482 462
f 484 483 482
f 485 471 473
f 485 484 471
f 485 483 484
f 486 475 472
f 487 472 476
f 487 476 339
f 487 486 472
f 487 483 486
f 487 339 505
f 487 505 483
f 505 482 483
f 488 473 340
f 488 340 475
f 488 475 486
f 488 486 483
f 488 483 485
f 488 485 473
f 490 348 477
f 490 346 348
f 490 510 346
f 490 489 510
f 492 491 268
f 492 268 463
f 492 463 267
f 492 489 491
f 492 267 489
f 510 489 267
f 491 490 477
f 491 489 490
f 493 477 348
f 347 493 348
f 493 478 351
f 493 243 478
f 479 495 496
f 480 495 479
f 480 494 495
f 505 501 500
f 505 502 501
f 505 503 502
f 505 497 503
f 504 499 498
f 504 500 499
f 504 505 500
f 504 482 505
f 267 266 509
f 509 508 507
f 506 507 300
f 506 509 507
f 267 509 506
f 510 267 506
f 347 511 244
f 347 244 493
f 244 243 493
f 513 294 292
f 513 495 494
f 513 494 294
f 513 292 514
f 515 339 496
f 515 496 495
f 515 514 512
f 515 512 339
f 292 512 514
f 495 513 514
f 495 514 515
f 505 512 627
f 505 627 497
f 339 512 505
f 520 503 497
f 520 497 526
f 521 502 503
f 521 503 520
f 522 501 502
f 522 502 521
f 523 500 501
f 523 501 522
f 524 499 500
f 524 500 523
f 525 498 499
f 525 499 524
f 498 61 504
f 527 521 520
f 527 520 526
f 528 522 521
f 528 521 527
f 529 523 522
f 529 522 528
f 530 524 523
f 530 523 529
f 531 525 524
f 531 524 530
f 532 538 61
f 532 498 525
f 532 61 498
f 532 525 531
f 533 526 633
f 533 527 526
f 534 527 533
f 535 527 534
f 535 528 527
f 536 528 535
f 536 529 528
f 537 530 529
f 537 529 536
f 538 531 530
f 538 530 537
f 538 532 531
f 539 533 633
f 540 534 533
f 540 533 539
f 541 535 534
f 541 536 535
f 541 534 540
f 542 536 541
f 543 536 542
f 543 537 536
f 544 538 537
f 544 537 543
f 545 633 636
f 545 539 633
f 546 540 539
f 546 539 545
f 547 541 540
f 547 540 546
f 548 541 547
f 548 542 541
f 549 543 542
f 549 542 548
f 272 544 543
f 272 543 549
f 550 636 307
f 550 545 636
f 551 546 545
f 551 545 550
f 552 546 551
f 552 547 546
f 553 548 547
f 553 547 552
f 554 549 548
f 554 548 553
f 555 272 549
f 555 549 554
f 561 112 272
f 561 272 555
f 556 307 569
f 556 550 307
f 557 551 550
f 557 550 556
f 558 552 551
f 558 551 557
f 559 553 552
f 559 552 558
f 560 553 559
f 560 554 553
f 561 554 560
f 561 555 554
f 562 112 561
f 563 556 569
f 564 556 563
f 564 557 556
f 565 558 557
f 565 557 564
f 566 558 565
f 566 559 558
f 567 559 566
f 567 560 559
f 568 561 560
f 568 562 561
f 568 560 567
f 562 273 112
f 570 564 563
f 570 563 569
f 570 569 519
f 570 565 564
f 571 566 565
f 571 629 518
f 571 519 629
f 571 570 519
f 571 565 570
f 518 566 571
f 572 518 517
f 572 567 566
f 572 566 518
f 573 567 572
f 573 517 516
f 573 568 567
f 573 572 517
f 574 516 628
f 574 573 516
f 574 562 568
f 574 273 562
f 574 628 273
f 574 568 573
f 581 575 580
f 582 576 575
f 582 575 581
f 583 577 576
f 583 576 582
f 584 578 577
f 584 577 583
f 585 579 578
f 585 578 584
f 579 263 262
f 586 580 643
f 586 581 580
f 587 581 586
f 587 582 581
f 588 583 582
f 588 582 587
f 589 584 583
f 589 583 588
f 590 584 589
f 590 585 584
f 591 596 263
f 591 585 590
f 591 263 579
f 591 579 585
f 593 586 592
f 593 587 586
f 594 587 593
f 594 588 587
f 595 588 594
f 595 589 588
f 596 589 595
f 596 590 589
f 596 591 590
f 597 594 593
f 597 593 592
f 598 594 597
f 599 594 598
f 599 595 594
f 600 595 599
f 600 596 595
f 264 596 600
f 601 592 586
f 602 597 592
f 602 592 601
f 603 598 597
f 603 597 602
f 604 598 603
f 604 599 598
f 605 600 599
f 605 599 604
f 610 264 600
f 610 600 605
f 606 602 601
f 607 603 602
f 607 602 606
f 608 604 603
f 608 603 607
f 609 605 604
f 609 604 608
f 610 614 264
f 610 605 609
f 615 601 300
f 615 606 601
f 611 608 607
f 611 606 615
f 611 607 606
f 612 608 611
f 613 608 612
f 613 609 608
f 614 609 613
f 614 610 609
f 616 611 615
f 616 612 611
f 617 612 616
f 618 612 617
f 618 613 612
f 619 613 618
f 619 265 614
f 619 614 613
f 620 615 300
f 620 616 615
f 620 617 616
f 621 300 507
f 621 620 300
f 621 617 620
f 622 507 508
f 622 618 617
f 622 621 507
f 622 617 621
f 623 619 618
f 623 618 622
f 623 508 509
f 623 509 266
f 623 266 265
f 623 622 508
f 623 265 619
f 631 510 506
f 632 346 510
f 632 510 631
f 347 632 624
f 625 245 244
f 625 244 511
f 625 626 245
f 625 624 626
f 511 347 624
f 511 624 625
f 632 626 624
f 627 512 292
f 569 629 519
f 628 516 517
f 629 517 518
f 629 628 517
f 638 629 569
f 629 274 628
f 580 576 577
f 630 580 577
f 580 575 576
f 262 577 578
f 262 578 579
f 262 630 577
f 580 630 343
f 632 631 626
f 291 627 292
f 634 633 291
f 635 633 634
f 636 633 635
f 290 636 635
f 289 307 636
f 289 636 290
f 637 307 289
f 288 648 637
f 288 659 648
f 648 638 569
f 661 337 638
f 661 638 648
f 640 337 336
f 640 336 649
f 640 638 337
f 640 639 638
f 649 639 640
f 639 651 274
f 639 274 629
f 639 649 651
f 629 638 639
f 641 167 654
f 641 630 167
f 641 653 344
f 641 344 343
f 641 654 653
f 343 630 641
f 343 666 642
f 343 642 580
f 644 643 642
f 644 642 655
f 248 643 644
f 645 643 248
f 247 646 645
f 247 645 248
f 246 646 247
f 647 646 246
f 245 631 647
f 245 626 631
f 651 649 650
f 652 653 654
f 167 652 654
f 666 655 642
f 656 661 657
f 658 288 287
f 658 657 659
f 658 659 288
f 660 658 287
f 660 656 657
f 660 657 658
f 661 659 657
f 661 648 659
f 660 650 649
f 660 662 650
f 660 649 336
f 656 660 336
f 651 673 275
f 671 673 650
f 650 673 651
f 678 167 282
f 679 167 678
f 679 652 167
f 653 652 345
f 653 345 683
f 653 683 344
f 663 655 664
f 665 344 683
f 665 666 344
f 665 664 666
f 683 664 665
f 683 663 664
f 655 666 664
f 660 287 662
f 670 669 668
f 671 669 670
f 673 672 667
f 673 671 672
f 676 678 677
f 676 679 678
f 681 675 674
f 681 679 675
f 682 683 345
f 684 287 754
f 662 287 684
f 669 684 335
f 669 671 684
f 686 275 673
f 686 673 667
f 686 276 275
f 686 685 757
f 686 757 276
f 687 667 672
f 687 685 686
f 687 686 667
f 688 670 668
f 689 668 669
f 689 669 335
f 689 335 334
f 689 685 688
f 689 688 668
f 689 334 685
f 334 757 685
f 690 672 671
f 690 671 670
f 690 688 685
f 690 670 688
f 690 685 687
f 690 687 672
f 699 694 305
f 700 694 699
f 700 695 694
f 701 696 695
f 701 695 700
f 702 697 696
f 702 696 701
f 703 698 697
f 703 697 702
f 704 758 698
f 704 698 703
f 710 305 771
f 710 699 305
f 705 700 699
f 705 699 710
f 706 700 705
f 706 701 700
f 707 702 701
f 707 701 706
f 708 703 702
f 708 702 707
f 709 704 703
f 709 703 708
f 278 758 704
f 278 704 709
f 711 705 710
f 712 705 711
f 712 706 705
f 712 707 706
f 713 707 712
f 714 707 713
f 714 708 707
f 715 708 714
f 715 709 708
f 278 709 715
f 716 771 772
f 716 710 771
f 716 711 710
f 717 712 711
f 717 711 716
f 718 713 712
f 718 712 717
f 719 715 714
f 719 713 718
f 719 714 713
f 725 715 719
f 720 278 715
f 720 715 725
f 722 716 721
f 722 717 716
f 723 718 717
f 723 717 722
f 724 718 723
f 724 719 718
f 725 719 724
f 731 720 725
f 726 772 775
f 726 716 772
f 726 721 716
f 727 722 721
f 727 721 726
f 728 723 722
f 728 722 727
f 729 724 723
f 729 723 728
f 730 725 724
f 730 731 725
f 730 724 729
f 726 775 306
f 732 727 726
f 733 728 727
f 733 729 728
f 733 727 732
f 734 729 733
f 735 729 734
f 735 730 729
f 740 730 735
f 740 279 731
f 740 731 730
f 736 726 306
f 737 726 736
f 737 732 726
f 738 732 737
f 738 734 733
f 738 733 732
f 739 735 734
f 739 734 738
f 743 740 735
f 743 735 739
f 740 691 279
f 737 306 693
f 737 736 306
f 741 693 692
f 741 737 693
f 741 739 738
f 741 738 737
f 742 759 691
f 742 692 759
f 742 739 741
f 742 743 739
f 742 741 692
f 743 691 740
f 743 742 691
f 760 280 281
f 745 680 681
f 745 681 674
f 745 341 680
f 745 744 749
f 745 749 341
f 746 674 675
f 746 745 674
f 746 744 745
f 747 676 677
f 748 677 678
f 748 678 282
f 748 282 280
f 748 760 744
f 748 744 747
f 748 747 677
f 748 280 760
f 749 744 760
f 750 675 679
f 750 679 676
f 750 676 747
f 750 747 744
f 750 746 675
f 750 744 746
f 751 679 681
f 761 751 681
f 342 681 680
f 342 761 681
f 751 166 682
f 345 751 682
f 753 755 684
f 684 752 335
f 684 755 752
f 684 754 753
f 277 276 757
f 756 757 334
f 756 696 697
f 756 305 694
f 756 694 695
f 756 695 696
f 758 697 698
f 758 756 697
f 757 758 277
f 758 757 756
f 759 281 691
f 693 759 692
f 749 693 306
f 693 281 759
f 693 760 281
f 760 693 749
f 761 166 751
f 763 753 286
f 763 755 753
f 763 286 768
f 763 768 764
f 765 762 335
f 765 335 752
f 765 752 755
f 765 764 762
f 769 762 764
f 769 764 768
f 755 764 765
f 755 763 764
f 756 762 305
f 334 762 756
f 770 749 306
f 770 306 776
f 770 341 749
f 342 770 766
f 283 766 767
f 761 342 766
f 761 766 283
f 770 767 766
f 769 768 305
f 762 769 305
f 767 770 776
f 286 771 305
f 286 305 768
f 773 771 286
f 773 772 771
f 774 772 773
f 285 772 774
f 284 775 772
f 284 772 285
f 776 775 284
f 283 767 776
f 283 776 284
f 777 64 56
f 777 56 261
f 778 65 64
f 778 64 777
f 779 66 65
f 779 65 778
f 780 66 779
f 781 261 260
f 781 777 261
f 782 778 777
f 782 777 781
f 783 778 782
f 783 779 778
f 784 779 783
f 784 780 779
f 785 781 260
f 785 260 259
f 786 781 785
f 786 782 781
f 787 783 782
f 787 782 786
f 791 784 783
f 791 783 787
f 792 784 791
f 788 259 258
f 788 785 259
f 789 786 785
f 789 785 788
f 790 786 789
f 790 787 786
f 791 787 790
f 793 788 258
f 793 258 257
f 794 788 793
f 794 789 788
f 795 789 794
f 795 790 789
f 796 790 795
f 796 791 790
f 796 792 791
f 800 792 796
f 797 793 257
f 798 794 793
f 798 793 797
f 799 796 795
f 799 795 794
f 799 794 798
f 800 796 799
f 801 257 614
f 801 797 257
f 802 798 797
f 802 797 801
f 803 798 802
f 803 799 798
f 803 800 799
f 809 800 803
f 806 614 265
f 806 801 614
f 804 802 801
f 804 801 806
f 805 803 802
f 805 802 804
f 808 809 803
f 808 803 805
f 811 804 806
f 807 804 811
f 807 805 804
f 808 805 807
f 813 809 808
f 810 811 806
f 810 265 266
f 810 806 265
f 816 807 811
f 812 813 808
f 812 807 816
f 812 808 807
f 826 809 813
f 814 810 266
f 815 810 814
f 815 811 810
f 815 816 811
f 817 812 816
f 826 813 812
f 826 812 817
f 818 815 814
f 819 815 818
f 819 816 815
f 819 817 816
f 820 817 819
f 825 817 820
f 825 826 817
f 821 814 405
f 821 818 814
f 822 819 818
f 822 820 819
f 822 818 821
f 823 820 822
f 824 825 820
f 824 820 823
f 827 821 405
f 828 821 827
f 829 823 822
f 829 824 823
f 829 822 821
f 830 824 829
f 830 825 824
f 830 826 825
f 837 826 830
f 831 828 827
f 832 829 821
f 832 821 828
f 832 828 831
f 833 829 832
f 833 830 829
f 837 830 833
f 834 831 827
f 838 831 834
f 835 832 831
f 835 831 838
f 836 833 832
f 836 832 835
f 837 833 836
f 841 269 256
f 841 834 269
f 841 838 834
f 839 835 838
f 839 836 835
f 840 836 839
f 844 837 836
f 844 836 840
f 841 839 838
f 842 839 841
f 843 840 839
f 843 844 840
f 843 839 842
f 848 844 843
f 845 841 256
f 849 841 845
f 849 842 841
f 846 842 849
f 847 842 846
f 847 843 842
f 848 843 847
f 849 845 270
f 850 846 849
f 851 847 846
f 851 846 850
f 852 848 847
f 852 847 851
f 852 844 848
f 854 849 270
f 854 270 853
f 854 850 849
f 859 850 854
f 855 851 850
f 855 852 851
f 855 850 859
f 856 852 855
f 857 383 63
f 857 270 383
f 857 853 270
f 857 63 70
f 858 853 857
f 858 857 70
f 858 70 71
f 858 71 72
f 858 854 853
f 859 854 858
f 859 858 72
f 860 72 73
f 860 855 859
f 860 856 855
f 860 859 72
f 861 73 74
f 861 856 860
f 861 860 73
f 67 852 856
f 67 861 74
f 67 856 861
f 862 37 54
f 862 54 318
f 863 862 318
f 864 863 318
f 865 318 317
f 865 864 318
f 866 317 316
f 866 865 317
f 868 316 867
f 868 866 316
f 869 867 870
f 869 868 867
f 207 870 315
f 207 869 870
f 871 207 315
f 872 315 887
f 871 315 872
f 206 871 872
f 875 872 887
f 873 872 875
f 873 206 872
f 874 873 875
f 876 889 891
f 876 875 889
f 876 874 875
f 877 891 38
f 877 876 891
f 877 38 39
f 878 214 213
f 212 878 213
f 878 212 211
f 879 878 211
f 880 879 211
f 882 880 881
f 882 879 880
f 883 882 881
f 884 882 883
f 315 884 224
f 885 315 224
f 886 315 885
f 886 885 210
f 887 886 210
f 887 210 209
f 889 209 888
f 889 887 209
f 208 889 888
f 890 889 208
f 891 889 890
f 891 890 23
f 891 23 22
f 327 330 328
f 327 332 892
f 893 332 327
f 897 894 893
f 896 895 897
f 896 897 898
f 900 329 898
f 902 901 899
f 902 899 4

