# https://github.com/mikedh/trimesh
v 25.40000000 -23.40000000 -593.89259779
v 25.40000000 -23.40000000 593.89259779
v 25.40000000 37.60000000 593.89259779
v 25.40000000 37.60000000 -593.89259779
v -25.40000000 23.40000000 -593.89259779
v -25.38309361 23.65949902 -593.89259779
v -25.33266026 23.91461084 -593.89259779
v -25.24955260 24.16102246 -593.89259779
v -25.13517568 24.39456793 -593.89259779
v -24.99146320 24.61129884 -593.89259779
v -24.82084482 24.80755106 -593.89259779
v -24.62620508 24.98000668 -593.89259779
v -24.41083464 25.12575008 -593.89259779
v -24.17837463 25.24231727 -593.89259779
v -23.93275511 25.32773753 -593.89259779
v -25.40000000 -23.40000000 -593.89259779
v -23.40000000 -25.40000000 -593.89259779
v -23.66105238 -25.38288972 -593.89259779
v -23.91763809 -25.33185165 -593.89259779
v -24.16536686 -25.24775907 -593.89259779
v -24.40000000 -25.13205081 -593.89259779
v -24.61752286 -24.98670668 -593.89259779
v -24.81421356 -24.81421356 -593.89259779
v -24.98670668 -24.61752286 -593.89259779
v -25.13205081 -24.40000000 -593.89259779
v -25.24775907 -24.16536686 -593.89259779
v -25.33185165 -23.91763809 -593.89259779
v -25.38288972 -23.66105238 -593.89259779
v 23.40000000 -25.40000000 -593.89259779
v 25.38288972 -23.66105238 -593.89259779
v 25.33185165 -23.91763809 -593.89259779
v 25.24775907 -24.16536686 -593.89259779
v 25.13205081 -24.40000000 -593.89259779
v 24.98670668 -24.61752286 -593.89259779
v 24.81421356 -24.81421356 -593.89259779
v 24.61752286 -24.98670668 -593.89259779
v 24.40000000 -25.13205081 -593.89259779
v 24.16536686 -25.24775907 -593.89259779
v 23.91763809 -25.33185165 -593.89259779
v 23.66105238 -25.38288972 -593.89259779
v 24.91454176 38.09978849 -593.89259779
v 24.97845611 38.09380628 -593.89259779
v 25.04107723 38.07968450 -593.89259779
v 25.10137294 38.05765592 -593.89259779
v 25.15834934 38.02808366 -593.89259779
v 25.21106730 37.99145515 -593.89259779
v 25.25865783 37.94837417 -593.89259779
v 25.30033649 37.89955082 -593.89259779
v 25.33541628 37.84578988 -593.89259779
v 25.36331896 37.78797750 -593.89259779
v 25.38358460 37.72706664 -593.89259779
v 25.39587917 37.66406129 -593.89259779
v 24.78369308 38.07839483 -593.89259779
v 24.84840515 38.09344807 -593.89259779
v 18.92425824 38.09978849 593.89259779
v 18.86034389 38.09380628 593.89259779
v 18.79772277 38.07968450 593.89259779
v -23.91763809 25.33185165 593.89259779
v -24.16536686 25.24775907 593.89259779
v -24.40000000 25.13205081 593.89259779
v -24.61752286 24.98670668 593.89259779
v -24.81421356 24.81421356 593.89259779
v -24.98670668 24.61752286 593.89259779
v -25.13205081 24.40000000 593.89259779
v -25.24775907 24.16536686 593.89259779
v -25.33185165 23.91763809 593.89259779
v -25.38288972 23.66105238 593.89259779
v -25.40000000 23.40000000 593.89259779
v -25.40000000 -23.40000000 593.89259779
v -25.38288972 -23.66105238 593.89259779
v -25.33185165 -23.91763809 593.89259779
v -25.24775907 -24.16536686 593.89259779
v -25.13205081 -24.40000000 593.89259779
v -24.98670668 -24.61752286 593.89259779
v -24.81421356 -24.81421356 593.89259779
v -24.61752286 -24.98670668 593.89259779
v -24.40000000 -25.13205081 593.89259779
v -24.16536686 -25.24775907 593.89259779
v -23.91763809 -25.33185165 593.89259779
v -23.66105238 -25.38288972 593.89259779
v -23.40000000 -25.40000000 593.89259779
v 23.40000000 -25.40000000 593.89259779
v 23.66105238 -25.38288972 593.89259779
v 23.91763809 -25.33185165 593.89259779
v 24.16536686 -25.24775907 593.89259779
v 24.40000000 -25.13205081 593.89259779
v 24.61752286 -24.98670668 593.89259779
v 24.81421356 -24.81421356 593.89259779
v 24.98670668 -24.61752286 593.89259779
v 25.13205081 -24.40000000 593.89259779
v 25.24775907 -24.16536686 593.89259779
v 25.33185165 -23.91763809 593.89259779
v 25.38288972 -23.66105238 593.89259779
v 25.39587917 37.66406129 593.89259779
v 25.38358460 37.72706664 593.89259779
v 25.36331896 37.78797750 593.89259779
v 25.33541628 37.84578988 593.89259779
v 25.30033649 37.89955082 593.89259779
v 25.25865783 37.94837417 593.89259779
v 25.21106730 37.99145515 593.89259779
v 25.15834934 38.02808366 593.89259779
v 25.10137294 38.05765592 593.89259779
v 25.04107723 38.07968450 593.89259779
v 24.97845611 38.09380628 593.89259779
v 24.91454176 38.09978849 593.89259779
v 18.78230702 38.07487887 -570.49259779
v 18.84969206 38.09199571 -570.49259779
v 18.91880000 38.09959984 -570.49259779
v 18.92425824 38.09978849 -570.49260110
f 53 15 106
f 107 53 106
f 57 107 106
f 106 15 57
f 15 58 57
f 59 58 15
f 55 109 108
f 108 109 41
f 53 107 54
f 54 108 41
f 107 108 54
f 5 68 6
f 68 67 6
f 67 7 6
f 65 9 8
f 10 63 11
f 107 57 56
f 55 108 56
f 56 108 107
f 14 59 15
f 13 12 61
f 9 65 64
f 10 9 64
f 64 63 10
f 8 7 66
f 66 65 8
f 66 7 67
f 13 61 60
f 60 14 13
f 59 14 60
f 12 11 62
f 62 61 12
f 62 11 63
f 1 3 2
f 4 3 1
f 94 3 52
f 52 3 4
f 41 109 105
f 105 109 55
f 16 69 68
f 5 16 68
f 81 29 82
f 17 29 81
f 50 49 96
f 96 49 97
f 94 52 95
f 52 51 95
f 95 51 50
f 50 96 95
f 41 105 104
f 104 42 41
f 82 29 83
f 29 40 83
f 101 45 44
f 101 44 102
f 97 49 98
f 49 48 98
f 98 48 47
f 47 99 98
f 44 43 103
f 102 44 103
f 103 43 42
f 42 104 103
f 70 69 16
f 16 28 70
f 70 28 27
f 70 27 71
f 31 92 91
f 31 91 32
f 93 1 2
f 93 30 1
f 93 31 30
f 92 31 93
f 91 90 33
f 32 91 33
f 34 33 89
f 89 33 90
f 17 81 18
f 81 80 18
f 18 80 79
f 79 19 18
f 27 26 72
f 71 27 72
f 72 26 25
f 25 73 72
f 78 20 19
f 78 19 79
f 21 20 78
f 78 77 21
f 87 86 36
f 86 37 36
f 38 86 85
f 38 37 86
f 74 24 23
f 74 23 75
f 74 73 25
f 25 24 74
f 23 22 76
f 75 23 76
f 21 77 76
f 76 22 21
f 97 98 100
f 100 68 69
f 2 3 100
f 85 86 100
f 71 72 100
f 100 3 94
f 55 56 100
f 100 105 55
f 100 87 88
f 88 89 100
f 94 95 100
f 82 83 100
f 102 103 100
f 100 62 63
f 59 60 100
f 100 81 82
f 100 96 97
f 100 101 102
f 100 67 68
f 100 57 58
f 58 59 100
f 69 70 100
f 100 93 2
f 79 80 100
f 100 95 96
f 100 104 105
f 63 64 100
f 100 56 57
f 100 66 67
f 91 92 100
f 100 90 91
f 100 86 87
f 100 80 81
f 100 84 85
f 100 74 75
f 100 78 79
f 75 76 100
f 100 98 99
f 100 103 104
f 100 64 65
f 65 66 100
f 100 60 61
f 61 62 100
f 100 70 71
f 92 93 100
f 100 89 90
f 100 72 73
f 77 78 100
f 83 84 100
f 73 74 100
f 100 76 77
f 100 99 47
f 47 46 100
f 45 101 100
f 100 46 45
f 35 89 88
f 34 89 35
f 88 87 35
f 87 36 35
f 39 9 10
f 21 22 39
f 39 52 4
f 4 1 39
f 39 31 32
f 39 54 41
f 50 51 39
f 39 43 44
f 5 6 39
f 39 16 5
f 41 42 39
f 39 20 21
f 39 46 47
f 39 33 34
f 8 9 39
f 15 53 39
f 10 11 39
f 39 14 15
f 1 30 39
f 39 29 17
f 39 51 52
f 39 49 50
f 47 48 39
f 39 12 13
f 53 54 39
f 25 26 39
f 17 18 39
f 39 28 16
f 39 40 29
f 44 45 39
f 39 48 49
f 42 43 39
f 39 7 8
f 39 6 7
f 39 11 12
f 13 14 39
f 39 26 27
f 27 28 39
f 19 20 39
f 39 24 25
f 30 31 39
f 32 33 39
f 34 35 39
f 39 18 19
f 23 24 39
f 39 22 23
f 45 46 39
f 39 36 37
f 37 38 39
f 39 35 36
f 39 83 40
f 39 84 83
f 85 84 39
f 39 38 85

