# https://github.com/mikedh/trimesh
v -0.00000000 140.20000000 53.69762979
v -0.06526310 140.20000000 53.70190736
v -0.12940952 140.20000000 53.71466688
v -0.19134172 140.20000000 53.73569003
v -0.25000000 140.20000000 53.76461709
v -0.00000000 0.00000000 53.69762979
v -0.25000000 0.00000000 53.76461709
v -0.19134172 0.00000000 53.73569003
v -0.12940952 0.00000000 53.71466688
v -0.06526310 0.00000000 53.70190736
v -40.28389115 23.20457898 -71.19918767
v -40.51837295 23.09698804 -71.12276897
v -40.15423913 22.38605973 -71.22814801
v -41.71486044 24.29647395 -70.46313439
v -40.77725422 24.41038615 -70.99797603
v -40.83818137 2.14555239 -70.99100625
v -39.91173897 1.96925455 -71.26113596
v -40.18088027 -0.00006158 -71.25757420
v -40.35207206 140.19876939 -71.22951864
v -40.46327160 52.60745453 -71.14355068
v -40.59864996 53.28830313 -71.09227506
v -40.46327169 52.09688578 -71.14355062
v -40.12973041 52.67468085 -71.23251927
v -39.78495765 15.30600232 -71.26266087
v -40.12971777 3.15491851 -71.23252172
v -40.46325898 3.73396649 -71.14355551
v -39.78495765 42.91501392 -71.26266087
v -40.19745461 67.34249521 -71.21924356
v -39.78495765 65.63098011 -71.26266087
v -40.19743174 61.12833158 -71.21922597
v -39.99242058 61.54306462 -71.25171466
v -40.32502058 126.95246673 -71.22461681
v -40.10527820 68.79664894 -71.23675100
v -40.44555444 68.39567569 -71.14996852
v -48.21504539 111.26853482 -66.25925550
v -40.12973016 92.09459795 -71.23251923
v -39.78495765 84.89412597 -71.26266087
v -40.03861077 122.19850554 -71.24640250
v -40.28940460 122.43236447 -71.19770130
v -40.53353205 122.66426498 -71.11669512
v -39.78495765 113.94782741 -71.26266087
v -40.50522017 98.16023884 -71.12792261
v -40.39455261 95.37768029 -71.18000479
v -40.07514785 98.01070004 -71.24137435
v -40.64377772 98.22281352 -71.06806233
v -40.77725422 122.88359683 -70.99797603
v -40.02557487 59.49664892 -71.24991027
v -0.04789612 1.76199429 -71.26266087
v -18.35570797 1.86102120 -71.26266087
v -36.37516421 19.72021698 -71.26266087
v -0.00010000 0.00000000 -71.26266087
v -0.00010000 1.76197590 -71.26266087
v -0.00010000 2.01735995 -71.26266087
v -0.00010000 6.95005474 -71.26266087
v -17.63340186 10.54892362 -71.26266087
v -39.78495765 22.24119844 -71.26266087
v -38.87785974 40.72782606 -71.26266087
v -0.00010000 79.65846738 -71.26266087
v -0.00010000 84.59081308 -71.26266087
v -0.04931322 84.59079966 -71.26266087
v -39.78495765 53.25192178 -71.26266087
v -17.93781105 2.01634063 -71.26266087
v -0.04791851 2.01761340 -71.26266087
v 0.00010000 1.76197582 -71.26266087
v 0.00010000 0.00000000 -71.26266087
v 39.78495765 22.27622086 -71.26266087
v 39.78495765 15.32551523 -71.26266087
v 35.84317231 20.37110094 -71.26266087
v 0.04373050 1.76195903 -71.26266087
v 17.91883114 2.01588497 -71.26266087
v 0.04375228 2.01712752 -71.26266087
v 18.28518553 1.97741812 -71.26266087
v 39.78495765 42.90908597 -71.26266087
v 0.00010000 84.59081314 -71.26266087
v 0.00010000 79.65846743 -71.26266087
v 0.04868754 79.14323495 -71.26266087
v 0.04417346 6.95003904 -71.26266087
v 0.00010000 6.95005467 -71.26266087
v 0.00010000 2.01735889 -71.26266087
v -0.00010000 7.98125903 -71.26266087
v -0.00010000 19.27081670 -71.26266087
v -4.92589380 19.33505739 -71.26266087
v -29.43524405 19.37098496 -71.26266087
v -0.00010000 73.69520711 -71.26266087
v -0.00010000 78.62797590 -71.26266087
v -0.04941569 79.14320817 -71.26266087
v 0.04426150 7.98124354 -71.26266087
v 1.18957430 74.79947795 -71.26266087
v 0.00010000 78.62797595 -71.26266087
v 0.00010000 73.69520717 -71.26266087
v 0.04699840 73.69522135 -71.26266087
v 9.77485171 19.26996595 -71.26266087
v 0.04517557 19.27080512 -71.26266087
v 0.00010000 19.27081665 -71.26266087
v 0.00010000 7.98125896 -71.26266087
v -0.00010000 24.52354055 -71.26266087
v -0.00010000 19.52827796 -71.26266087
v 0.00010000 24.52353135 -71.26266087
v 0.00010000 19.52827791 -71.26266087
v 0.04519616 19.52826647 -71.26266087
v 10.10660087 21.30269814 -71.26266087
v 0.04553755 24.52352697 -71.26266087
v -0.00010000 24.77938864 -71.26266087
v -0.00010000 26.89624817 -71.26266087
v -1.80535792 27.10588263 -71.26266087
v -0.00010000 58.52391580 -71.26266087
v -0.00010000 60.45766627 -71.26266087
v -2.13092313 57.94869570 -71.26266087
v 0.00010000 24.77937971 -71.26266087
v 0.04555470 24.77937546 -71.26266087
v 9.23494310 24.77688740 -71.26266087
v 10.85167770 57.21342975 -71.26266087
v 0.28219678 59.97494930 -71.26266087
v 0.00010000 60.45766633 -71.26266087
v 0.00010000 58.52392145 -71.26266087
v 0.06359516 58.00865239 -71.26266087
v 0.04569660 26.89623549 -71.26266087
v 0.00010000 26.89623958 -71.26266087
v 0.00010000 27.91479089 -71.26266087
v 0.04576488 27.91478746 -71.26266087
v 19.87588115 34.44310046 -71.26266087
v 0.00010000 57.49191272 -71.26266087
v -0.00010000 60.71495359 -71.26266087
v -0.00010000 73.43775204 -71.26266087
v -1.48453236 73.99946209 -71.26266087
v 0.04696006 60.71496640 -71.26266087
v 0.04700005 73.43776633 -71.26266087
v 0.00010000 73.43775210 -71.26266087
v 0.00010000 60.71495365 -71.26266087
v -0.04909644 92.91571672 -71.26266087
v -28.86636612 135.52728520 -71.26266087
v -4.87876591 138.30927625 -71.26266087
v -0.00010000 138.43783892 -71.26266087
v -0.00010000 140.20000000 -71.26266087
v -26.72658547 68.59762534 -71.26266087
v -2.25176780 83.43852791 -71.26266087
v -0.04930776 84.84842265 -71.26266087
v -0.00010000 84.84843608 -71.26266087
v -0.00010000 92.91573145 -71.26266087
v -0.00010000 93.17352250 -71.26266087
v -0.00010000 102.29892915 -71.26266087
v -0.04872575 102.29891043 -71.26266087
v -5.54701744 101.66420085 -71.26266087
v -5.15070445 93.57761345 -71.26266087
v -0.04908723 93.17350767 -71.26266087
v 0.00010000 92.91573151 -71.26266087
v 0.00010000 84.84843613 -71.26266087
v 0.00010000 140.20000000 -71.26266087
v 0.00010000 138.43783908 -71.26266087
v 0.04547422 138.43787494 -71.26266087
v 23.02323112 138.43939698 -71.26266087
v 3.93159046 93.48318737 -71.26266087
v 0.00010000 102.29892923 -71.26266087
v 0.00010000 93.17352256 -71.26266087
v -0.00010000 102.55672086 -71.26266087
v -0.00010000 134.20174395 -71.26266087
v -4.58472402 111.37746055 -71.26266087
v -0.04871231 102.55670201 -71.26266087
v 4.55769154 115.61582509 -71.26266087
v 13.25031634 120.49070796 -71.26266087
v 5.06376170 133.97716001 -71.26266087
v 0.04583207 134.20177914 -71.26266087
v 0.00010000 134.20174410 -71.26266087
v 0.00010000 102.55672094 -71.26266087
v -0.00010000 134.45954505 -71.26266087
v -0.00010000 138.18003782 -71.26266087
v -4.25333493 136.17619333 -71.26266087
v 0.04581029 134.45958029 -71.26266087
v 9.44238437 138.18076992 -71.26266087
v 0.04549600 138.18007379 -71.26266087
v 0.00010000 138.18003798 -71.26266087
v 0.00010000 134.45954520 -71.26266087
v 5.50974858 -0.00063926 71.30819586
v 40.41863101 -0.00009780 71.17232718
v 39.78494694 53.67938134 71.26266086
v 40.12973100 52.59235179 71.23251917
v 40.46327225 52.01457333 71.14355041
v 40.78214666 51.45063264 70.99549422
v 41.31996020 59.40014527 70.85356065
v 41.77490631 22.63355899 70.43125827
v 39.99045950 21.36123757 71.26089381
v 40.46688675 23.09384955 71.14234742
v 39.78495765 22.34077807 71.26266087
v 40.23207564 23.20465263 71.21185258
v 40.77725422 24.52831684 70.99797603
v 41.75908585 98.53083217 70.49204479
v 39.80622309 97.93505284 71.26254812
v 39.78495765 122.00778730 71.26266087
v 40.02237645 122.22833446 71.24843030
v 43.88134499 117.50398985 69.54597682
v 40.13805803 123.98803641 71.24702255
v 40.77725422 90.85851644 70.99797603
v 40.23991998 97.92727173 71.21628230
v 39.78495765 92.58946393 71.26266087
v 40.46327180 91.43531400 71.14355049
v 40.12973029 92.01266620 71.23251921
v 40.60282524 68.11260338 71.09282897
v 40.05581940 68.79669008 71.24417062
v 40.39777317 68.39571562 71.16608476
v 40.48618302 68.32673252 71.13519238
v 40.19746613 67.30978085 71.21923510
v -39.78495765 69.27955374 71.26266087
v -40.12973082 92.05878378 71.23251944
v -40.46327147 91.47979914 71.14355094
v -41.02127266 90.70097919 70.91930148
v -40.50959668 68.30878952 71.12621971
v -40.14578701 68.66612394 71.22972322
v -39.86159931 67.32975289 71.26177776
v -48.38588054 78.76706145 66.16203985
v -40.46327214 51.99125849 71.14355045
v -40.12973089 52.56905139 71.23251919
v -39.78495765 21.79408205 71.26266087
v -40.12354909 22.45045847 71.23368777
v -40.12973714 3.22368476 71.23251773
v -40.86244854 60.78357869 71.04368616
v -40.53652849 23.18136941 71.11748816
v -40.21544813 23.19787585 71.21560674
v -39.78495765 22.36627957 71.26266087
v -40.77725422 122.91158370 70.99797603
v -40.50813236 122.67094083 71.12679080
v -40.27171064 122.44482855 71.20225300
v -40.02951104 122.21674425 71.24755650
v -39.78495765 97.93033083 71.26266087
v -40.05897181 98.00699191 71.24373553
v -40.30864200 98.10177415 71.19253432
v -40.54932416 98.19785679 71.11012787
v -39.97523992 95.05328884 71.26150630
v -40.30504001 127.78524402 71.22751122
v -39.78495765 0.00000000 71.26266087
v -40.32732268 0.07245555 71.19895392
v 52.43952762 0.39934238 62.94137768
v 65.22623684 4.07599293 49.67612713
v 62.68405288 44.76109655 52.71825875
v 52.86734254 46.74578278 62.57750748
v 46.09844086 5.80180043 67.93966011
v 70.31628293 22.15026090 41.96889325
v 71.10159640 52.87075552 40.58814412
v 71.05955105 0.07729493 40.69863044
v 59.47700387 140.18560096 56.80545327
v 70.99797603 122.89222064 40.77725422
v 52.09271513 82.94239349 63.33006897
v 60.50576746 115.20142890 55.47393997
v 70.78439382 98.03765343 41.24057289
v 64.53401341 79.36856535 50.63412451
v 40.51108995 140.17136049 71.24619149
v 70.45084387 140.13542365 42.10415510
v 70.99797603 24.44682517 40.77725422
v 71.25171754 136.25911376 39.99231804
v 71.26266087 136.18565480 39.78495765
v 71.26266087 140.20000000 39.78495765
v 71.11769483 122.67100808 40.53106154
v 71.19815743 122.43729681 40.28766330
v 71.24651947 122.20162312 40.03770702
v 71.26266087 121.96449615 39.78495765
v 71.25703095 97.96576971 39.93465808
v 71.24018339 98.00701040 40.08344179
v 71.18814298 98.09868074 40.32453789
v 71.10695492 98.19165794 40.55694177
v 71.21676617 97.70029836 40.24870951
v 71.23251944 92.09973107 40.12973080
v 71.26267995 129.40951228 39.77944815
v 71.26266087 69.32035685 39.78495765
v 71.25864643 68.46405302 40.00529237
v 71.25359206 129.59194413 39.97484442
v 71.08607886 59.40892545 40.75406037
v 71.26266087 135.88906742 39.78495765
v 71.14355438 3.75884644 40.46326029
v 71.23252115 3.18295628 40.12971743
v 71.26266087 0.00000000 39.78495765
v 71.26266087 21.71695977 39.78495765
v 71.23092003 22.40325950 40.13922548
v 71.13632788 23.07112344 40.48315580
v 71.26266087 22.28916839 39.78495765
v 71.20843469 23.18056993 40.24666677
v 71.14355060 52.02633166 40.46327173
v 71.23251926 52.60412693 40.12973046
v 71.25728560 65.71020764 -39.94402188
v 71.26266087 61.31959709 -39.78495765
v 71.25171465 61.20333611 -39.99242078
v 71.26266087 140.20000000 -39.78495765
v 70.99797603 51.87792709 -40.77725422
v 71.26266087 53.61055467 -39.78495765
v 71.23251924 53.03319698 -40.12973072
v 71.14355056 52.45528491 -40.46327192
v 70.47636645 22.38390754 -41.70024381
v 71.15204733 23.07862550 -40.43960945
v 71.23490472 22.45383057 -40.11641432
v 71.26266087 21.81068206 -39.78495765
v 71.23251800 3.27551500 -40.12973919
v 71.14354808 3.85460795 -40.46327939
v 71.26266087 122.03029338 -39.78495765
v 71.24940097 122.24339517 -40.01418787
v 71.20956106 122.45492385 -40.24176615
v 71.14307512 122.66449846 -40.46485077
v 71.19162852 123.95200317 -40.48824215
v 69.92915510 74.25635629 -43.24240376
v 71.15362921 98.16039043 -40.43504470
v 71.21399466 98.08667906 -40.22246209
v 71.25044499 98.01179698 -40.00488962
v 71.24299233 140.15333180 -40.66338343
v 70.67144141 60.15271106 -41.54307171
v 71.21191588 67.41587072 -40.23260449
v 67.98215135 5.77910312 -46.00267968
v 71.26050011 -0.00013367 -40.19264959
v 70.99797603 24.58153635 -40.77725422
v 71.21877069 23.18723481 -40.20089247
v 71.26266087 22.38304678 -39.78495765
v 71.23251923 52.52253641 -40.12973066
v 71.14355053 51.94476139 -40.46327193
v 70.80304436 49.46552832 -41.14303341
v 71.26119509 1.79232817 -39.95235820
v 71.26265892 61.19783761 39.78829212
v 71.26266087 114.72764517 18.14040736
v 71.26266087 79.85829709 -26.16241653
v 71.25501997 96.07169594 -40.21160884
v 71.26230323 69.37067426 -39.91602979
v 71.26266087 118.31281775 -29.58228718
v 71.26258388 97.63730867 -39.82624115
v 71.26266087 133.59604916 35.97957392
v 71.26265766 97.17690901 39.81430249
v 71.22864168 125.97311748 40.30063635
v 71.26266087 96.88689901 28.79849633
v 71.26266087 53.18136806 39.78495765
v 71.26237474 1.70030337 39.93611059
v 71.26266087 34.48573947 7.43617206
v 71.26266087 53.09975617 -39.78495765
v 71.26266087 23.18755086 -34.05512835
v 71.26266087 26.44021156 35.38131904
v 71.26266087 89.09457196 -17.78258868
v 44.00713789 61.10408382 -69.10325703
v 53.49517592 46.62207456 -62.05041060
v 59.08870996 140.18762972 -56.94638887
v 40.99833560 49.96230830 -70.88423399
v 40.77725422 98.27621536 -70.99797603
v 40.46415783 96.73092203 -71.16607891
v 40.90553551 123.99646506 -70.97520201
v 70.92029917 98.58884292 -40.95413672
v 61.56208870 47.52167945 -54.01573310
v 55.49177454 115.20143425 -60.48941450
v 66.27069879 116.08552615 -48.19304591
v 49.18988923 84.33803598 -65.70045056
v 48.23621632 4.26090701 -66.38102886
v 40.94138266 0.08805879 -70.96993343
v 40.77725422 24.42886622 -70.99797603
v 41.07020453 24.99499611 -70.83847689
v 62.94210159 0.39684453 -52.43915372
v 40.49474814 59.20763874 -71.13490536
v 41.16435566 140.18005524 -71.08962480
v 39.91875388 54.35002311 -71.26201357
v 40.55345486 122.67089848 -71.10849192
v 40.30330130 122.42968660 -71.19400514
v 40.04576252 122.18653744 -71.24546597
v 40.10813357 98.00693418 -71.23628380
v 40.34056680 98.09548005 -71.18357000
v 39.78495765 113.93359336 -71.26266087
v 40.12973167 92.14113793 -71.23251928
v 40.46327229 91.56217132 -71.14355064
v 39.78495765 84.93373675 -71.26266087
v 40.46519412 65.62157051 -71.14503262
v 40.19530271 68.66604648 -71.21995548
v 40.14615471 68.75097429 -71.22965548
v 39.98139380 68.35424499 -71.26163314
v 39.93540096 0.00030701 -71.26174986
v 40.46327831 3.71953356 -71.14354780
v 40.12973630 3.14369101 -71.23251786
v 40.14325960 22.39786936 -71.23018693
v 40.49766112 23.08727525 -71.13083593
v 40.12973052 52.64822701 -71.23251926
v 40.46327176 52.07038122 -71.14355060
v 40.26189302 23.19673175 -71.20474422
v 39.86120128 97.54473518 -71.26229457
v 39.91136138 123.22669597 -71.26134342
v 8.69066721 134.20027279 -71.26266087
v 9.70823367 138.18078857 -71.26266087
v 3.66592256 102.25629356 -71.26266087
v 5.34262249 84.88492772 -71.26266087
v 19.57996577 9.59156113 -71.26266087
v -5.62470218 115.73682869 -71.26266087
v -39.78495765 61.36120338 -71.26266087
v -39.82827644 97.74403717 -71.26256612
v -39.78526363 124.43390959 -71.26265686
v -39.87491779 66.90407400 -71.26220117
v -26.62339395 115.97340691 -71.26266087
v -14.16325074 29.08394835 -71.26266087
v -63.22164990 140.16171120 -52.18236175
v -71.10371692 140.19787218 -40.63599148
v -49.44357255 140.13864173 -65.44620730
v -42.94702003 60.61539082 -69.81361299
v -62.25422387 46.68976445 -53.26381330
v -69.70512062 50.80638854 -43.02642468
v -41.04040974 98.20793385 -70.86567631
v -52.80344014 46.73305383 -62.61161149
v -60.06737739 115.20907258 -55.98443134
v -67.84903004 121.92866894 -45.95299900
v -56.89996632 77.01698051 -59.08299738
v -65.09408536 4.06652269 -49.84922065
v -71.08219201 4.10007537 -40.64400471
v -48.30224055 6.41603602 -66.35079028
v -50.64811062 0.22639877 -64.18838073
v -70.71571089 0.03929010 -41.28986218
v -40.98997523 50.73563772 -70.88562655
v -70.73770126 25.28832592 -41.27264024
v -71.26109323 59.93939823 -40.31747243
v -71.14355067 52.46579746 -40.46327165
v -71.13556508 122.67113485 -40.48519108
v -71.20619672 122.45255040 -40.25580362
v -71.24697484 98.00711280 -40.03452972
v -71.19678196 98.10501921 -40.29275199
v -71.12315876 96.87258401 -40.57305643
v -71.26266087 92.59630828 -39.78495765
v -71.26048938 122.62758445 -39.94235890
v -70.23233712 74.05342441 -42.67883297
v -71.24187656 68.75101974 -40.07204371
v -71.21783354 127.66644775 -40.32805527
v -71.26236070 67.34886482 -39.84009020
v -71.23252115 3.26367420 -40.12971742
v -71.41913629 -0.00035415 5.14583426
v -71.26266087 21.84028927 -39.78495765
v -71.23575703 22.47332381 -40.11132186
v -71.15540824 23.08814732 -40.42986783
v -71.26266087 22.41248683 -39.78495765
v -71.22082826 23.19759515 -40.19113362
v -71.14355060 51.95021768 -40.46327173
v -71.23251926 52.52801267 -40.12973046
v -41.26524694 140.14973571 70.88725609
v -57.66338932 140.19189383 58.54225977
v -71.23450159 123.23178678 40.27832110
v -68.33299185 133.13075504 45.15599235
v -70.99797603 122.90280319 40.77725422
v -63.40298651 83.12912752 52.01667367
v -40.58562807 97.91079133 71.12088890
v -61.71258635 116.00058703 54.17404618
v -47.32005857 115.94451282 66.94340030
v -70.01077779 0.26240904 43.37392009
v -51.68568145 0.31396998 63.50701238
v -45.77610948 6.76284005 68.11874447
v -62.74785645 46.78288267 52.67380948
v -66.34229804 6.43577978 48.33842172
v -53.34008513 44.77099548 62.17115694
v -70.99546846 51.49444050 40.78222888
v -70.39344832 22.83525406 41.83733561
v -70.99797603 24.47313560 40.77725422
v -71.25171464 61.52907591 39.99242078
v -71.26266087 61.64533069 39.78495765
v -71.26266087 61.34721163 39.78495765
v -70.95801356 59.88475602 41.04247745
v -71.56909006 140.20009208 -5.35904739
v -71.26266087 53.72115862 39.78495769
v -71.23251921 53.14379564 40.12973089
v -71.14355050 52.56588235 40.46327208
v -71.07340199 98.22791545 40.63250812
v -71.13680613 98.16032607 40.48187631
v -71.24476908 98.01093176 40.05106916
v -71.26215920 97.93506609 39.82973290
v -71.19087458 97.83284269 40.32872960
v -70.30509166 97.89888662 42.03038351
v -71.26266087 121.98540482 39.78495765
v -71.24742628 122.21338278 40.03055224
v -71.20174328 122.43985718 40.27372454
v -71.12566914 122.66436087 40.51100515
v -71.26058989 97.92423530 39.97518191
v -71.26266087 92.63016131 39.78495765
v -71.14355025 91.47601560 40.46327245
v -71.23251909 92.05336590 40.12973097
v -71.24066944 68.79671189 40.08021580
v -71.15827527 68.39573797 40.42142584
v -71.13049652 67.17008240 40.49855142
v -71.21923463 67.32588250 40.19746833
v -71.25172046 67.46334440 39.99245753
v -71.19985782 23.17687183 40.31163628
v -71.26266087 21.72173508 39.78495765
v -71.20609080 23.20466563 40.25639760
v -71.26266087 22.29411766 39.78495765
v -71.23251920 52.63310997 40.12973081
v -71.14355047 52.05533367 40.46327208
v -71.26266087 130.09298032 -17.07548822
v -71.26266087 63.29104884 37.09100627
v -71.26266087 12.88664172 8.05337874
v -71.26266087 26.94082637 33.44618641
v -71.26266087 97.92336688 39.78495765
v -71.26266087 67.60031254 39.78495765
v -71.26202352 97.56168680 -39.96158964
v -71.26188845 1.81533188 39.94764374
v -71.26214210 0.00034827 -39.94595658
v -71.26266087 25.39402818 -35.14314189
v -71.26266087 53.62123304 -39.78495775
v -71.25126590 140.19623995 40.29655764
v -71.26266087 121.83046285 17.72182431
v 12.23510636 132.24731078 71.26266087
v -13.05926924 122.74284283 71.26266087
v -12.76100267 73.23994183 71.26266087
v -39.78495765 53.14628942 71.26266087
v 17.64457662 59.37339360 71.26266087
v -39.93919993 1.71863990 71.26192227
v 39.93910593 1.80294397 71.26225519
v -27.68545461 22.06985049 71.26266087
v 18.43113213 22.43133247 71.26266087
v 30.54211600 100.61979821 71.26266087
v 39.89792050 65.62435661 71.26203027
v 39.84297541 97.65172510 71.26254359
v 39.78495765 97.92948031 71.26266087
v -39.87578019 97.55318437 71.26250642
v -30.56615050 111.10687620 71.26266087
v -39.92951274 123.54506229 71.26214721
v 68.26266087 0.00000000 -1.00000000
v 68.26266087 0.00000000 -3.32500000
v 68.26266087 140.20000000 -1.00000000
v 1.00000000 0.00000000 68.26266087
v 3.32500000 0.00000000 68.26266087
v 1.00000000 140.20000000 68.26266087
v -68.26266087 0.00000000 1.00000000
v -68.26266087 0.00000000 3.32500000
v -68.26266087 140.20000000 1.00000000
v 68.10606943 140.20000000 40.70160535
v 68.26266087 140.20000000 5.32500000
v 68.26266087 0.00000000 3.99166667
v 68.26266087 0.00000000 -5.32500000
v 68.10606943 -0.00000000 -40.70160535
v 68.26266087 140.20000000 -4.65833333
v -40.89764664 140.20000000 67.95783125
v -5.32500000 140.20000000 68.26266087
v -4.32500000 0.00000000 68.26266087
v 40.70160535 -0.00000000 68.10606943
v 4.32500000 140.20000000 68.26266087
v -67.72682999 140.20000000 -42.17418055
v -68.26266087 0.00000000 -4.32500000
v -67.95783125 -0.00000000 40.89764664
v -68.26266087 140.20000000 4.32500000
v -1.00000000 0.00000000 -68.26266087
v -3.32500000 0.00000000 -68.26266087
v -1.00000000 140.20000000 -68.26266087
v -3.32500000 140.20000000 -68.26266087
v 41.29817378 140.20000000 -68.88603735
v -38.84669389 0.00000000 -69.12425502
v -37.52101350 140.20000000 -70.13728731
v 56.55033214 140.20000000 -5.07500000
v 53.76461709 140.20000000 -0.25000000
v 53.73569003 140.20000000 -0.19134172
v 53.71466688 140.20000000 -0.12940952
v 53.70190736 140.20000000 -0.06526310
v 53.69762979 140.20000000 -0.00000000
v 53.70190736 140.20000000 0.06526310
v 53.71466688 140.20000000 0.12940952
v 53.73569003 140.20000000 0.19134172
v 53.76461709 140.20000000 0.25000000
v 56.55033214 140.20000000 5.07500000
v 56.58666817 140.20000000 5.12938071
v 56.62979145 140.20000000 5.17855339
v 56.67896413 140.20000000 5.22167667
v 56.73334484 140.20000000 5.25801270
v 56.79200313 140.20000000 5.28693977
v 56.85393532 140.20000000 5.30796291
v 56.91808175 140.20000000 5.32072243
v 56.98334484 140.20000000 5.32500000
v 42.73839402 140.20000000 67.25829518
v 5.32500000 140.20000000 56.98334484
v 5.32072243 140.20000000 56.91808175
v 5.30796291 140.20000000 56.85393532
v 5.28693977 140.20000000 56.79200313
v 5.25801270 140.20000000 56.73334484
v 5.22167667 140.20000000 56.67896413
v 5.17855339 140.20000000 56.62979145
v 5.12938071 140.20000000 56.58666817
v 5.07500000 140.20000000 56.55033214
v 0.25000000 140.20000000 53.76461709
v 0.19134172 140.20000000 53.73569003
v 0.12940952 140.20000000 53.71466688
v 0.06526310 140.20000000 53.70190736
v -5.07500000 140.20000000 56.55033214
v -5.12938071 140.20000000 56.58666817
v -5.17855339 140.20000000 56.62979145
v -5.22167667 140.20000000 56.67896413
v -5.25801270 140.20000000 56.73334484
v -5.28693977 140.20000000 56.79200313
v -5.30796291 140.20000000 56.85393532
v -5.32072243 140.20000000 56.91808175
v -4.53708525 140.20000000 58.47211455
v -67.72682999 140.20000000 42.17418055
v -56.98334484 140.20000000 5.32500000
v -56.91808175 140.20000000 5.32072243
v -56.85393532 140.20000000 5.30796291
v -56.79200313 140.20000000 5.28693977
v -56.73334484 140.20000000 5.25801270
v -56.67896413 140.20000000 5.22167667
v -56.62979145 140.20000000 5.17855339
v -56.58666817 140.20000000 5.12938071
v -56.55033214 140.20000000 5.07500000
v -53.76461709 140.20000000 0.25000000
v -53.73569003 140.20000000 0.19134172
v -53.71466688 140.20000000 0.12940952
v -53.70190736 140.20000000 0.06526310
v -53.69762979 140.20000000 0.00000000
v -53.70190736 140.20000000 -0.06526310
v -53.71466688 140.20000000 -0.12940952
v -53.73569003 140.20000000 -0.19134172
v -53.76461709 140.20000000 -0.25000000
v -56.55033214 140.20000000 -5.07500000
v -56.58666817 140.20000000 -5.12938071
v -56.62979145 140.20000000 -5.17855339
v -56.67896413 140.20000000 -5.22167667
v -56.73334484 140.20000000 -5.25801270
v -56.79200313 140.20000000 -5.28693977
v -56.85393532 140.20000000 -5.30796291
v -56.91808175 140.20000000 -5.32072243
v -56.98334484 140.20000000 -5.32500000
v -5.69559048 140.20000000 -68.24562378
v -5.63365828 140.20000000 -68.22460063
v -5.57500000 140.20000000 -68.19567357
v -5.52061929 140.20000000 -68.15933754
v -5.47144661 140.20000000 -68.11621426
v -5.42832333 140.20000000 -68.06704158
v -5.39198730 140.20000000 -68.01266087
v -5.36306023 140.20000000 -67.95400258
v -5.34203709 140.20000000 -67.89207039
v -5.32927757 140.20000000 -67.82792396
v -5.32500000 140.20000000 -67.76266087
v -5.32500000 140.20000000 -56.98334484
v -5.32072243 140.20000000 -56.91808175
v -5.30796291 140.20000000 -56.85393532
v -5.28693977 140.20000000 -56.79200313
v -5.25801270 140.20000000 -56.73334484
v -5.22167667 140.20000000 -56.67896413
v -5.17855339 140.20000000 -56.62979145
v -5.12938071 140.20000000 -56.58666817
v -5.07500000 140.20000000 -56.55033214
v -0.25000000 140.20000000 -53.76461709
v -0.19134172 140.20000000 -53.73569003
v -0.12940952 140.20000000 -53.71466688
v -0.06526310 140.20000000 -53.70190736
v 0.00000000 140.20000000 -53.69762979
v 0.06526310 140.20000000 -53.70190736
v 0.12940952 140.20000000 -53.71466688
v 0.19134172 140.20000000 -53.73569003
v 0.25000000 140.20000000 -53.76461709
v 5.07500000 140.20000000 -56.55033214
v 5.12938071 140.20000000 -56.58666817
v 5.17855339 140.20000000 -56.62979145
v 5.22167667 140.20000000 -56.67896413
v 5.25801270 140.20000000 -56.73334484
v 5.28693977 140.20000000 -56.79200313
v 5.30796291 140.20000000 -56.85393532
v 5.32072243 140.20000000 -56.91808175
v 5.32500000 140.20000000 -56.98334484
v 4.16406757 140.20000000 -58.28682945
v 5.32927757 140.20000000 -67.82792396
v 5.34203709 140.20000000 -67.89207039
v 5.36306023 140.20000000 -67.95400258
v 5.39198730 140.20000000 -68.01266087
v 5.42832333 140.20000000 -68.06704158
v 5.47144661 140.20000000 -68.11621426
v 5.52061929 140.20000000 -68.15933754
v 5.57500000 140.20000000 -68.19567357
v 5.63365828 140.20000000 -68.22460063
v 5.69559048 140.20000000 -68.24562378
v 5.75973690 140.20000000 -68.25838330
v 68.05789498 140.20000000 -40.44386735
v 56.98334484 140.20000000 -5.32500000
v 56.91808175 140.20000000 -5.32072243
v 56.85393532 140.20000000 -5.30796291
v 56.79200313 140.20000000 -5.28693977
v 56.73334484 140.20000000 -5.25801270
v 56.67896413 140.20000000 -5.22167667
v 56.62979145 140.20000000 -5.17855339
v 56.58666817 140.20000000 -5.12938071
v 68.26266087 140.20000000 3.32500000
v 68.26266087 140.20000000 1.00000000
v 57.84937025 140.20000000 3.32500000
v 55.92968060 140.20000000 -0.00000000
v 57.84937025 140.20000000 -3.32500000
v 63.96617421 140.20000000 -1.00000000
v 63.96617421 140.20000000 1.00000000
v -3.32500000 140.20000000 68.26266087
v -1.24777738 140.20015384 71.45421774
v 0.00000000 140.20000000 55.92968060
v 3.32500000 140.20000000 57.84937025
v 1.00000000 140.20000000 63.96617421
v -1.00000000 140.20000000 63.96617421
v -68.26266087 140.20000000 -3.32500000
v -68.26266087 140.20000000 -1.00000000
v -57.84937025 140.20000000 -3.32500000
v -55.92968060 140.20000000 0.00000000
v -57.84937025 140.20000000 3.32500000
v -63.96617421 140.20000000 1.00000000
v -63.96617421 140.20000000 -1.00000000
v 3.32500000 140.20000000 -68.26266087
v 1.00000000 140.20000000 -68.26266087
v 0.00000000 140.20000000 -55.92968060
v -3.32500000 140.20000000 -57.84937025
v -1.00000000 140.20000000 -63.96617421
v 1.00000000 140.20000000 -63.96617421
v 57.84937025 0.00000000 3.32500000
v 55.92968060 0.00000000 -0.00000000
v 63.96617421 0.00000000 -1.00000000
v 63.96617421 0.00000000 1.00000000
v 68.26266087 0.00000000 1.00000000
v -3.32500000 0.00000000 57.84937025
v 0.00000000 0.00000000 55.92968060
v 1.00000000 0.00000000 63.96617421
v -1.00000000 0.00000000 63.96617421
v -1.00000000 0.00000000 68.26266087
v -57.84937025 0.00000000 -3.32500000
v -55.92968060 0.00000000 0.00000000
v -63.96617421 0.00000000 1.00000000
v -63.96617421 0.00000000 -1.00000000
v -68.26266087 0.00000000 -1.00000000
v 3.32500000 0.00000000 -57.84937025
v 3.32500000 0.00000000 -68.26266087
v 0.00000000 0.00000000 -55.92968060
v -1.00000000 0.00000000 -63.96617421
v 1.00000000 0.00000000 -63.96617421
v 1.00000000 0.00000000 -68.26266087
v 56.98334484 0.00000000 5.32500000
v 56.91808175 0.00000000 5.32072243
v 56.85393532 0.00000000 5.30796291
v 56.79200313 0.00000000 5.28693977
v 56.73334484 0.00000000 5.25801270
v 56.67896413 0.00000000 5.22167667
v 56.62979145 0.00000000 5.17855339
v 56.58666817 0.00000000 5.12938071
v 56.55033214 0.00000000 5.07500000
v 67.25829518 -0.00000000 42.73839402
v 4.53708525 0.00000000 58.47211455
v 5.07500000 0.00000000 56.55033214
v 5.12938071 0.00000000 56.58666817
v 5.17855339 0.00000000 56.62979145
v 5.22167667 0.00000000 56.67896413
v 5.25801270 0.00000000 56.73334484
v 5.28693977 0.00000000 56.79200313
v 5.30796291 0.00000000 56.85393532
v 5.32072243 0.00000000 56.91808175
v 0.25000000 0.00000000 53.76461709
v 0.06526310 0.00000000 53.70190736
v 0.12940952 0.00000000 53.71466688
v 0.19134172 0.00000000 53.73569003
v -5.07500000 0.00000000 56.55033214
v -5.32500000 0.00000000 56.98334484
v -5.32072243 0.00000000 56.91808175
v -5.30796291 0.00000000 56.85393532
v -5.28693977 0.00000000 56.79200313
v -5.25801270 0.00000000 56.73334484
v -5.22167667 0.00000000 56.67896413
v -5.17855339 0.00000000 56.62979145
v -5.12938071 0.00000000 56.58666817
v -42.17418055 0.00000000 67.72682999
v -56.98334484 0.00000000 5.32500000
v -56.29730457 0.00000000 3.35317723
v -56.58666817 0.00000000 5.12938071
v -56.62979145 0.00000000 5.17855339
v -56.67896413 0.00000000 5.22167667
v -56.73334484 0.00000000 5.25801270
v -56.79200313 0.00000000 5.28693977
v -56.85393532 0.00000000 5.30796291
v -56.91808175 0.00000000 5.32072243
v -53.76461709 0.00000000 0.25000000
v -53.76461709 0.00000000 -0.25000000
v -53.73569003 0.00000000 -0.19134172
v -53.71466688 0.00000000 -0.12940952
v -53.70190736 0.00000000 -0.06526310
v -53.69762979 0.00000000 0.00000000
v -53.70190736 0.00000000 0.06526310
v -53.71466688 0.00000000 0.12940952
v -53.73569003 0.00000000 0.19134172
v -56.55033214 0.00000000 -5.07500000
v -56.98334484 0.00000000 -5.32500000
v -56.91808175 0.00000000 -5.32072243
v -56.85393532 0.00000000 -5.30796291
v -56.79200313 0.00000000 -5.28693977
v -56.73334484 0.00000000 -5.25801270
v -56.67896413 0.00000000 -5.22167667
v -56.62979145 0.00000000 -5.17855339
v -56.58666817 0.00000000 -5.12938071
v -5.32927757 0.00000000 -67.82792396
v -5.34203709 0.00000000 -67.89207039
v -5.36306023 0.00000000 -67.95400258
v -5.39198730 0.00000000 -68.01266087
v -5.42832333 0.00000000 -68.06704158
v -5.47144661 0.00000000 -68.11621426
v -5.52061929 0.00000000 -68.15933754
v -5.57500000 0.00000000 -68.19567357
v -5.63365828 0.00000000 -68.22460063
v -5.69559048 0.00000000 -68.24562378
v -5.75973690 0.00000000 -68.25838330
v -4.67741670 0.00000000 -58.56096958
v -5.07500000 0.00000000 -56.55033214
v -5.12938071 0.00000000 -56.58666817
v -5.17855339 0.00000000 -56.62979145
v -5.22167667 0.00000000 -56.67896413
v -5.25801270 0.00000000 -56.73334484
v -5.28693977 0.00000000 -56.79200313
v -5.30796291 0.00000000 -56.85393532
v -5.32072243 0.00000000 -56.91808175
v -0.25000000 0.00000000 -53.76461709
v 0.25000000 0.00000000 -53.76461709
v 0.19134172 0.00000000 -53.73569003
v 0.12940952 0.00000000 -53.71466688
v 0.06526310 0.00000000 -53.70190736
v 0.00000000 0.00000000 -53.69762979
v -0.06526310 0.00000000 -53.70190736
v -0.12940952 0.00000000 -53.71466688
v -0.19134172 0.00000000 -53.73569003
v 5.07500000 0.00000000 -56.55033214
v 5.32500000 0.00000000 -56.98334484
v 5.32072243 0.00000000 -56.91808175
v 5.30796291 0.00000000 -56.85393532
v 5.28693977 0.00000000 -56.79200313
v 5.25801270 0.00000000 -56.73334484
v 5.22167667 0.00000000 -56.67896413
v 5.17855339 0.00000000 -56.62979145
v 5.12938071 0.00000000 -56.58666817
v 5.32500000 0.00000000 -67.76266087
v 5.75973690 0.00000000 -68.25838330
v 5.69559048 0.00000000 -68.24562378
v 5.63365828 0.00000000 -68.22460063
v 5.57500000 0.00000000 -68.19567357
v 5.52061929 0.00000000 -68.15933754
v 5.47144661 0.00000000 -68.11621426
v 5.42832333 0.00000000 -68.06704158
v 5.39198730 0.00000000 -68.01266087
v 5.36306023 0.00000000 -67.95400258
v 5.34203709 0.00000000 -67.89207039
v 5.32927757 0.00000000 -67.82792396
v 41.10116036 0.00000000 -68.57924133
v 58.67655501 0.00000000 -4.84656215
v 56.55033214 0.00000000 -5.07500000
v 56.58666817 0.00000000 -5.12938071
v 56.62979145 0.00000000 -5.17855339
v 56.67896413 0.00000000 -5.22167667
v 56.73334484 0.00000000 -5.25801270
v 56.79200313 0.00000000 -5.28693977
v 56.85393532 0.00000000 -5.30796291
v 56.91808175 0.00000000 -5.32072243
v 53.76461709 0.00000000 -0.25000000
v 53.76461709 0.00000000 0.25000000
v 53.73569003 0.00000000 0.19134172
v 53.71466688 0.00000000 0.12940952
v 53.70190736 0.00000000 0.06526310
v 53.69762979 0.00000000 -0.00000000
v 53.70190736 0.00000000 -0.06526310
v 53.71466688 0.00000000 -0.12940952
v 53.73569003 0.00000000 -0.19134172
v -0.04607311 138.43780259 -71.31266087
v -0.01159897 138.30892930 -71.31266087
v -9.36042365 136.46665788 -71.31266087
v -9.44479624 138.18073031 -71.31266087
v -23.02704708 138.43939686 -71.31266087
v -22.64452227 137.73558621 -71.31266087
v -9.71145871 138.18074992 -71.31266087
v 26.25177548 76.05399301 -71.31266087
v 39.78495765 53.56953514 -71.31266087
v 39.78495765 53.74154346 -71.31266087
v 39.20855294 20.87775894 -71.31266087
v 39.78495765 21.70406898 -71.31266087
v 39.78495765 22.27622086 -71.31266087
v 39.78495765 22.08550357 -71.31266087
v 40.27386177 23.19673175 -71.25329058
v 40.13838231 52.90614619 -71.28176278
v -40.29641203 23.20457898 -71.24759456
v -39.78495765 53.76276442 -71.31266087
v -40.13838273 52.93003341 -71.28176271
v -39.78495677 53.59248350 -71.31266087
v -26.28200448 76.02730569 -71.31266087
v -39.89029428 21.86960239 -71.30722165
v -39.11416684 20.94600819 -71.31266087
v -39.78495677 22.05106412 -71.31266087
v -39.78495765 2.57641601 -71.31266087
v -39.90094810 2.05250714 -71.30619034
v -39.85702381 1.75929665 -71.31007404
v -39.78495765 1.93116582 -71.31266087
v -39.47362498 1.82377167 -71.31266087
v -39.57193534 2.21631637 -71.31266087
v -39.78495765 2.40442079 -71.31266087
v -39.99762718 61.54306441 -71.30143981
v -39.78495588 61.36120379 -71.31266087
v -39.78495765 136.18016923 -71.31266087
v -40.10314732 136.20240994 -71.28751151
v -39.78495765 61.55994895 -71.31266087
v -39.22778096 135.72301995 -71.31266087
v -39.78495677 136.08128512 -71.31266087
v -38.94484596 61.98672784 -71.31266087
v -40.02593513 67.80894832 -71.29209037
v -39.87830812 129.51372092 -71.30838569
v -40.11842442 128.39877865 -71.28509050
v -39.78495765 68.76535249 -71.31266087
v -39.44034635 67.96851995 -71.31266087
v -39.78495765 69.33962400 -71.31266087
v -38.64115397 127.98395515 -71.31266087
v -39.78495765 129.02042376 -71.31266087
v -39.78495765 93.18634239 -71.31266087
v -40.13838220 92.35207249 -71.28176271
v -39.93407378 97.68875131 -71.30721452
v -39.78495765 97.91707826 -71.31266087
v -40.04979193 122.56007907 -71.29540177
v -39.78495765 97.82838892 -71.31266087
v -39.78495677 93.01468725 -71.31266087
v -37.85835088 95.91845866 -71.31266087
v -39.78495765 121.96320198 -71.31266087
v -38.65543557 121.26970621 -71.31266087
v -39.78495677 122.20061399 -71.31266087
v -39.43632650 97.69536640 -71.31266087
v -71.31266087 138.44002911 -22.95247078
v -71.31266087 138.43995528 23.00420333
v -71.31266087 136.46356440 -9.28560328
v -71.31266087 138.18198633 -9.63759450
v -71.31266087 138.21826614 -22.79968621
v -71.31266087 137.75771406 12.68668267
v -71.31266087 138.18198316 -9.37093941
v -61.03946249 28.81999191 54.64312463
v -61.15376409 35.10683943 54.51517392
v -61.32958257 35.09794650 54.31730251
v -61.21574021 28.81294780 54.44557100
v -61.20869944 24.58611925 54.45348624
v -61.03783288 37.89896182 54.64494494
v -22.97644551 138.43985596 71.31266087
v 22.98011105 138.43990708 71.31266087
v 12.66260656 137.75763451 71.31266087
v -9.39496522 138.18184322 71.31266087
v -9.20992989 135.67948674 71.31266087
v -9.66161967 138.18184571 71.31266087
v -22.82366269 138.21809345 71.31266087
v 54.29921226 35.09786115 61.34559966
v 54.42750736 28.81286770 61.23180132
v 54.43542173 24.58604227 61.22476550
v 54.62694538 37.89887162 61.05394245
v 54.62511836 28.81991087 61.05557709
v 54.49714122 35.10675301 61.16983447
v 71.31266087 138.42274844 23.00739017
v 71.31266087 138.42286097 -22.94926939
v 71.31266087 138.09767786 -22.82875330
v 71.31266087 138.16479843 -9.63404927
v 71.31266087 136.44633028 9.34057114
v 71.31266087 138.16475060 9.69255434
v 71.31266087 138.20098587 22.85460776
v 71.31266087 136.45072958 -9.28290258
v 71.31266087 138.16479504 -9.36739250
v 71.31266087 138.16474847 9.42589962
v 40.04295573 1.88820100 -71.29609285
v 39.78495765 1.93118703 -71.31266087
v 39.78495765 1.75932041 -71.31266087
v 39.78495588 2.56840771 -71.31266087
v 39.78495588 2.39066369 -71.31266087
v 39.97837218 2.36946243 -71.29595848
v 39.56550508 2.06675298 -71.31266087
v 39.78495588 122.30000680 -71.31266087
v 40.05230752 122.18653777 -71.29503431
v 39.78495588 122.18067433 -71.31266087
v 39.84328248 97.65834390 -71.31099278
v 37.89778444 95.90918150 -71.31266087
v 40.13838368 92.40028072 -71.28176269
v 39.78495588 93.23743643 -71.31266087
v 39.78495588 93.06480766 -71.31266087
v 39.78495765 97.82491349 -71.31266087
v 39.43627522 97.81993704 -71.31266087
v 38.79058285 121.18656479 -71.31266087
v 40.03371426 97.98464618 -71.29575406
v 39.78495588 136.17258766 -71.31266087
v 39.78495588 136.07371617 -71.31266087
v 39.17933553 135.83708486 -71.31266087
v 39.89129012 135.93275325 -71.30704994
v 40.10314943 61.33795061 -71.28751256
v 39.78495588 61.65976561 -71.31266087
v 39.78495588 61.56061306 -71.31266087
v 38.93161636 61.99099278 -71.31266087
v 39.78495765 128.15640461 -71.31266087
v 39.78495588 129.01022951 -71.31266087
v 38.40910934 127.45147612 -71.31266087
v 39.78495588 69.36210972 -71.31266087
v 39.34144879 68.03932836 -71.31266087
v 40.04399916 68.11502266 -71.29306794
v 39.78495588 68.78087170 -71.31266087
v 39.99199831 129.58349177 -71.30213896
v 22.92110077 138.16770086 -71.31266087
v 23.02323112 138.43939698 -71.31266087
v 0.04547422 138.43787494 -71.31266087
v 9.44238437 138.18076992 -71.31266087
v 9.25710314 135.67839800 -71.31266087
v 9.70823367 138.18078857 -71.31266087
v 0.02279800 138.30895643 -71.31266087
f 8 5 4
f 8 7 5
f 9 4 3
f 9 8 4
f 10 3 2
f 10 9 3
f 6 2 1
f 6 10 2
f 12 14 15
f 11 12 15
f 13 12 11
f 56 13 11
f 22 21 20
f 22 401 21
f 23 20 47
f 23 22 20
f 61 23 47
f 16 14 12
f 26 12 13
f 26 16 12
f 25 26 13
f 24 13 56
f 24 25 13
f 17 25 24
f 15 401 22
f 11 22 23
f 11 15 22
f 27 23 61
f 27 11 23
f 56 11 27
f 25 16 26
f 18 16 25
f 17 18 25
f 30 388 28
f 30 21 388
f 31 28 382
f 31 30 28
f 31 382 29
f 28 34 33
f 28 388 34
f 382 28 33
f 388 35 43
f 34 43 36
f 34 388 43
f 37 36 380
f 33 34 36
f 33 36 37
f 382 33 37
f 45 391 46
f 45 46 40
f 42 40 39
f 42 45 40
f 43 42 39
f 41 38 381
f 44 39 38
f 44 38 41
f 44 43 39
f 380 44 41
f 380 36 43
f 40 46 32
f 39 40 32
f 38 39 32
f 381 38 32
f 391 45 42
f 43 391 42
f 380 43 44
f 20 21 30
f 47 20 30
f 47 30 31
f 379 47 31
f 379 31 29
f 50 17 24
f 56 50 24
f 49 18 55
f 51 18 49
f 48 51 49
f 52 51 48
f 63 62 55
f 27 57 56
f 54 63 55
f 54 53 63
f 61 57 27
f 60 86 136
f 60 58 86
f 59 58 60
f 69 65 64
f 72 65 69
f 363 65 72
f 68 67 363
f 66 67 68
f 77 79 78
f 77 71 79
f 377 70 71
f 377 71 77
f 377 72 70
f 73 66 121
f 349 73 121
f 74 76 75
f 376 76 74
f 81 80 55
f 81 55 82
f 86 84 125
f 85 84 86
f 53 48 63
f 53 52 48
f 93 95 94
f 93 87 95
f 92 87 93
f 92 377 87
f 89 91 90
f 76 91 89
f 88 91 76
f 71 64 79
f 71 69 64
f 80 54 55
f 82 55 105
f 96 97 82
f 96 82 105
f 87 77 78
f 87 78 95
f 102 99 98
f 102 100 99
f 101 100 102
f 97 81 82
f 104 103 105
f 107 106 108
f 100 94 99
f 100 93 94
f 117 110 109
f 117 109 118
f 121 111 110
f 121 110 117
f 114 116 115
f 113 116 114
f 103 96 105
f 135 105 384
f 108 105 135
f 110 102 98
f 110 98 109
f 122 120 119
f 116 120 122
f 112 120 116
f 112 121 120
f 120 117 118
f 120 118 119
f 125 123 108
f 124 123 125
f 115 116 122
f 128 126 129
f 127 112 126
f 127 126 128
f 88 112 127
f 123 107 108
f 129 113 114
f 126 113 129
f 84 124 125
f 90 127 128
f 91 127 90
f 135 61 47
f 135 47 379
f 130 136 135
f 130 137 136
f 130 138 137
f 139 138 130
f 134 133 132
f 131 134 132
f 134 131 19
f 145 144 143
f 142 140 145
f 142 145 143
f 141 140 142
f 146 376 147
f 152 376 146
f 148 150 149
f 348 160 151
f 348 151 148
f 150 148 151
f 153 152 154
f 375 152 153
f 58 85 86
f 145 139 130
f 140 139 145
f 75 76 89
f 154 152 146
f 137 59 60
f 138 59 137
f 157 155 158
f 157 158 143
f 378 155 157
f 156 378 167
f 155 378 156
f 147 376 74
f 160 375 164
f 159 160 164
f 162 159 163
f 160 159 162
f 161 160 162
f 163 159 164
f 158 141 142
f 155 141 158
f 166 165 167
f 164 375 153
f 171 168 172
f 170 168 171
f 373 168 170
f 169 373 170
f 165 156 167
f 172 162 163
f 168 162 172
f 173 174 495
f 177 178 179
f 176 177 179
f 175 176 179
f 235 180 182
f 179 201 499
f 175 179 499
f 185 178 177
f 184 177 176
f 184 185 177
f 183 176 175
f 183 184 176
f 500 193 187
f 500 187 501
f 191 190 245
f 189 190 191
f 188 189 191
f 195 192 186
f 195 186 193
f 196 195 193
f 194 193 500
f 194 196 193
f 193 190 189
f 193 186 190
f 187 189 188
f 187 193 189
f 501 187 188
f 200 197 192
f 200 192 195
f 199 195 196
f 199 200 195
f 198 196 194
f 198 199 196
f 499 198 194
f 197 200 199
f 201 199 198
f 201 197 199
f 499 201 198
f 201 179 197
f 181 235 182
f 495 235 181
f 182 180 185
f 184 182 185
f 181 182 184
f 183 181 184
f 174 235 495
f 202 227 203
f 208 202 203
f 207 203 204
f 207 208 203
f 206 204 205
f 206 207 204
f 215 206 205
f 215 492 208
f 211 492 215
f 210 211 215
f 209 210 215
f 214 494 212
f 214 212 213
f 216 214 213
f 425 228 673
f 218 492 211
f 217 211 210
f 217 218 211
f 216 210 209
f 216 217 210
f 221 504 228
f 221 222 504
f 220 221 228
f 219 220 228
f 502 223 224
f 431 224 225
f 431 502 224
f 431 225 226
f 223 504 222
f 224 222 221
f 224 223 222
f 225 221 220
f 225 224 221
f 226 220 219
f 226 225 220
f 431 226 219
f 205 203 227
f 204 203 205
f 215 208 207
f 206 215 207
f 436 214 216
f 436 494 214
f 230 229 494
f 213 212 218
f 213 218 217
f 216 213 217
f 230 494 436
f 233 265 244
f 233 236 265
f 232 238 236
f 232 236 233
f 234 233 244
f 180 234 179
f 235 234 180
f 231 238 232
f 174 231 235
f 180 179 178
f 178 185 180
f 246 240 321
f 246 243 240
f 242 246 239
f 190 239 245
f 190 242 239
f 244 265 243
f 234 244 241
f 179 186 192
f 179 241 186
f 179 234 241
f 197 179 192
f 244 246 242
f 244 243 246
f 241 244 242
f 241 242 190
f 241 190 186
f 235 232 233
f 235 233 234
f 231 232 235
f 248 249 250
f 248 250 246
f 253 254 321
f 252 253 321
f 251 252 321
f 240 251 321
f 259 255 256
f 259 320 255
f 259 256 257
f 243 259 257
f 243 257 258
f 255 320 254
f 255 254 253
f 256 253 252
f 256 255 253
f 257 252 251
f 257 256 252
f 258 251 240
f 258 257 251
f 243 258 240
f 260 320 259
f 243 260 259
f 262 320 260
f 263 262 260
f 263 260 243
f 265 263 243
f 321 261 264
f 264 261 266
f 264 266 248
f 321 264 248
f 265 312 263
f 238 268 267
f 238 324 268
f 238 269 324
f 268 324 270
f 268 270 271
f 267 271 272
f 267 268 271
f 238 272 236
f 238 267 272
f 271 273 274
f 271 270 273
f 272 271 274
f 247 272 274
f 236 272 247
f 265 323 312
f 276 323 265
f 237 276 265
f 275 276 237
f 248 266 249
f 321 248 246
f 279 302 277
f 279 301 302
f 278 279 277
f 284 281 301
f 283 301 279
f 283 284 301
f 282 279 278
f 282 283 279
f 303 285 286
f 290 286 287
f 290 303 286
f 289 287 288
f 289 290 287
f 311 289 288
f 293 294 295
f 292 293 295
f 291 292 295
f 315 297 298
f 315 337 297
f 315 298 299
f 318 315 299
f 302 301 296
f 316 296 315
f 316 302 296
f 277 302 316
f 289 303 290
f 311 303 289
f 286 285 305
f 306 286 305
f 287 286 306
f 307 287 306
f 288 287 307
f 304 303 311
f 309 310 281
f 309 281 284
f 308 284 283
f 308 309 284
f 326 283 282
f 326 308 283
f 305 310 309
f 306 309 308
f 306 305 309
f 307 308 326
f 307 306 308
f 288 327 311
f 269 304 324
f 314 282 278
f 250 319 313
f 250 249 319
f 250 300 280
f 250 313 300
f 282 314 326
f 314 329 326
f 314 278 277
f 326 327 307
f 313 325 329
f 323 273 328
f 317 291 295
f 317 315 318
f 317 316 315
f 317 318 291
f 317 295 300
f 329 314 316
f 316 314 277
f 329 316 317
f 307 327 288
f 270 324 328
f 273 270 328
f 266 319 249
f 321 254 313
f 254 320 313
f 320 262 322
f 320 322 313
f 322 262 263
f 313 263 312
f 313 322 263
f 319 321 313
f 261 321 319
f 266 261 319
f 329 325 326
f 325 304 327
f 328 324 325
f 328 325 323
f 313 323 325
f 327 304 311
f 325 324 304
f 326 325 327
f 323 313 312
f 317 313 329
f 300 313 317
f 342 330 331
f 342 345 330
f 301 338 296
f 303 338 301
f 281 310 301
f 285 303 301
f 331 330 341
f 331 341 338
f 348 341 336
f 334 336 341
f 335 334 341
f 296 338 340
f 337 296 340
f 295 340 300
f 337 340 295
f 315 296 337
f 339 348 332
f 300 339 332
f 340 339 300
f 285 301 310
f 310 305 285
f 303 342 331
f 303 331 338
f 346 342 303
f 346 343 342
f 304 346 303
f 341 348 339
f 338 341 339
f 340 338 339
f 345 333 330
f 344 333 345
f 347 362 359
f 349 362 347
f 333 347 330
f 351 372 336
f 351 352 372
f 350 351 336
f 335 371 353
f 335 353 354
f 352 355 372
f 353 352 351
f 353 355 352
f 353 371 355
f 354 351 350
f 354 353 351
f 335 354 350
f 334 350 336
f 334 335 350
f 356 371 335
f 357 356 335
f 341 357 335
f 336 372 348
f 356 358 371
f 361 362 358
f 361 358 356
f 360 356 357
f 360 361 356
f 359 357 341
f 359 360 357
f 330 359 341
f 362 361 360
f 359 362 360
f 347 359 330
f 343 365 364
f 343 363 365
f 343 364 342
f 366 67 66
f 365 363 67
f 365 67 366
f 364 366 367
f 364 365 366
f 342 367 345
f 342 364 367
f 368 73 349
f 370 66 73
f 370 368 369
f 370 73 368
f 344 369 333
f 344 370 369
f 347 368 349
f 369 368 347
f 333 369 347
f 149 170 171
f 150 170 149
f 355 371 160
f 372 355 160
f 160 358 362
f 371 358 160
f 348 372 160
f 161 162 168
f 374 373 169
f 151 160 374
f 151 374 150
f 374 169 150
f 170 150 169
f 373 161 168
f 376 152 375
f 362 376 375
f 373 160 161
f 160 362 375
f 160 373 374
f 92 93 100
f 101 377 92
f 101 92 100
f 111 102 110
f 111 101 102
f 121 101 111
f 112 113 126
f 88 127 91
f 121 377 101
f 363 377 121
f 68 363 121
f 121 117 120
f 112 116 113
f 377 77 87
f 121 66 68
f 376 88 76
f 376 112 88
f 349 121 112
f 112 376 362
f 349 112 362
f 130 135 144
f 145 130 144
f 158 142 143
f 132 383 131
f 167 383 132
f 157 143 378
f 132 166 167
f 133 166 132
f 136 125 135
f 137 60 136
f 383 135 382
f 18 17 83
f 62 49 55
f 48 49 62
f 63 48 62
f 383 380 41
f 381 383 41
f 383 382 37
f 383 37 380
f 135 379 29
f 382 135 29
f 131 32 19
f 131 381 32
f 131 383 381
f 384 105 55
f 56 384 83
f 384 56 135
f 125 108 135
f 143 144 135
f 378 143 135
f 383 378 135
f 167 378 383
f 384 18 83
f 55 18 384
f 83 17 50
f 83 50 56
f 135 56 57
f 61 135 57
f 86 125 136
f 396 397 402
f 402 390 389
f 388 398 392
f 14 398 388
f 16 398 14
f 46 387 32
f 389 412 395
f 392 395 35
f 388 392 35
f 412 409 394
f 35 387 46
f 391 35 46
f 43 35 391
f 393 385 387
f 393 394 385
f 32 387 19
f 35 393 387
f 394 386 385
f 414 386 394
f 389 403 412
f 390 403 389
f 392 389 395
f 396 402 389
f 398 396 389
f 398 389 392
f 399 396 398
f 396 400 397
f 399 400 396
f 18 399 16
f 412 394 393
f 395 412 393
f 395 393 35
f 16 399 398
f 14 388 401
f 401 15 14
f 401 388 21
f 414 447 386
f 390 404 403
f 406 411 414
f 405 406 414
f 394 405 414
f 482 407 408
f 409 482 408
f 407 411 406
f 407 482 411
f 408 406 405
f 408 407 406
f 409 405 394
f 409 408 405
f 409 410 482
f 413 415 410
f 413 410 409
f 412 413 409
f 415 413 412
f 412 403 415
f 397 484 416
f 416 484 418
f 416 418 419
f 416 419 420
f 397 416 420
f 402 397 420
f 419 418 421
f 419 421 422
f 420 419 422
f 402 420 422
f 424 486 403
f 404 424 403
f 423 424 404
f 390 423 404
f 400 484 397
f 432 433 425
f 432 425 426
f 428 432 426
f 427 428 487
f 425 219 228
f 429 428 427
f 436 209 439
f 441 437 446
f 438 437 441
f 434 438 441
f 428 426 487
f 433 219 425
f 431 219 433
f 205 431 433
f 209 205 433
f 432 428 429
f 456 432 429
f 215 205 209
f 437 439 430
f 446 430 456
f 446 437 430
f 430 432 456
f 438 436 439
f 438 439 437
f 435 436 438
f 434 435 438
f 209 433 432
f 439 209 432
f 430 439 432
f 435 230 436
f 441 446 440
f 440 442 441
f 446 468 443
f 445 443 444
f 445 446 443
f 450 440 446
f 449 450 446
f 448 446 445
f 448 449 446
f 456 451 452
f 455 456 452
f 461 453 454
f 461 454 480
f 461 455 453
f 460 429 427
f 459 460 427
f 458 459 427
f 457 458 427
f 463 456 455
f 464 455 461
f 464 463 455
f 462 464 461
f 451 456 429
f 451 429 460
f 452 460 459
f 452 451 460
f 455 452 459
f 453 459 458
f 453 455 459
f 454 458 457
f 454 453 458
f 480 454 457
f 467 446 456
f 467 456 463
f 466 463 464
f 466 467 463
f 465 464 462
f 465 466 464
f 481 465 462
f 468 466 465
f 468 467 466
f 469 468 465
f 481 469 465
f 468 446 467
f 443 468 469
f 444 469 481
f 444 443 469
f 483 434 470
f 417 434 483
f 434 441 470
f 483 470 471
f 470 441 442
f 472 470 442
f 473 470 472
f 471 470 473
f 475 440 450
f 474 450 449
f 474 475 450
f 448 474 449
f 478 417 483
f 417 478 484
f 485 484 478
f 418 484 485
f 477 448 445
f 476 487 447
f 447 414 476
f 486 448 477
f 477 445 444
f 486 477 481
f 448 479 473
f 486 421 485
f 488 457 427
f 488 486 480
f 488 480 457
f 480 462 461
f 486 462 480
f 481 462 486
f 488 427 487
f 481 477 444
f 471 479 483
f 473 479 471
f 421 418 485
f 410 415 476
f 482 410 476
f 476 415 403
f 476 411 482
f 414 411 476
f 486 479 448
f 485 478 486
f 478 483 479
f 486 478 479
f 488 476 403
f 403 486 488
f 229 495 494
f 229 173 495
f 212 494 496
f 228 504 490
f 673 228 490
f 492 491 208
f 673 489 245
f 673 490 489
f 493 175 499
f 496 494 495
f 493 181 183
f 175 493 183
f 492 218 496
f 491 492 496
f 497 496 495
f 491 496 497
f 491 497 493
f 489 188 191
f 489 501 188
f 498 194 500
f 498 499 194
f 493 499 498
f 489 493 498
f 489 498 501
f 245 489 191
f 493 497 495
f 181 493 495
f 218 212 496
f 498 500 501
f 502 227 490
f 503 223 502
f 503 502 490
f 504 223 503
f 202 208 491
f 227 202 491
f 490 227 491
f 504 503 490
f 490 491 493
f 490 493 489
f 70 69 71
f 70 72 69
f 377 363 72
f 507 506 505
f 507 519 506
f 510 509 508
f 510 524 509
f 513 512 511
f 513 528 512
f 514 515 516
f 514 516 721
f 519 518 517
f 519 656 518
f 521 522 744
f 520 521 744
f 524 523 173
f 524 555 523
f 525 447 526
f 525 526 400
f 578 527 417
f 528 578 417
f 531 530 529
f 531 532 530
f 525 387 385
f 535 387 525
f 525 385 386
f 525 386 447
f 535 19 387
f 532 606 607
f 532 607 608
f 532 608 609
f 532 609 610
f 532 610 611
f 532 611 612
f 532 612 613
f 532 613 614
f 532 614 615
f 532 615 616
f 134 19 535
f 134 535 606
f 134 606 532
f 531 148 134
f 531 134 532
f 679 678 447
f 686 148 531
f 513 679 447
f 684 679 513
f 685 148 686
f 690 686 531
f 690 531 689
f 683 684 513
f 649 650 685
f 651 685 650
f 648 649 685
f 652 685 651
f 653 685 652
f 647 648 685
f 654 148 685
f 654 685 653
f 646 647 685
f 645 646 685
f 655 148 654
f 644 645 685
f 533 148 655
f 621 618 619
f 621 619 620
f 601 602 603
f 601 603 604
f 601 604 605
f 600 601 605
f 623 621 622
f 623 618 621
f 599 600 605
f 625 618 623
f 625 617 618
f 625 623 624
f 597 599 605
f 597 598 599
f 688 616 617
f 688 617 625
f 680 597 605
f 626 688 625
f 626 687 688
f 596 597 680
f 596 680 681
f 592 593 594
f 592 594 595
f 631 627 628
f 631 628 629
f 631 629 630
f 590 591 592
f 590 595 596
f 590 592 595
f 634 687 626
f 634 644 687
f 634 627 631
f 634 626 627
f 634 631 632
f 634 632 633
f 588 590 596
f 588 589 590
f 588 681 682
f 588 596 681
f 640 641 642
f 635 643 644
f 635 644 634
f 583 581 582
f 587 588 682
f 587 682 579
f 636 643 635
f 636 642 643
f 638 639 640
f 586 579 580
f 586 580 581
f 586 583 584
f 586 581 583
f 586 587 579
f 637 640 642
f 637 642 636
f 637 638 640
f 585 586 584
f 447 528 513
f 348 148 533
f 578 528 447
f 578 447 487
f 426 578 487
f 332 348 533
f 520 578 426
f 656 332 533
f 425 520 426
f 300 332 656
f 673 520 425
f 280 300 656
f 536 662 663
f 536 663 664
f 569 570 571
f 569 571 572
f 569 572 573
f 660 661 662
f 660 662 536
f 575 573 574
f 658 660 536
f 658 659 660
f 576 573 575
f 657 658 536
f 577 573 576
f 577 569 573
f 539 537 538
f 2 3 4
f 542 539 540
f 542 540 541
f 542 537 539
f 568 2 4
f 568 1 2
f 567 568 4
f 545 537 542
f 545 542 543
f 545 543 544
f 565 4 5
f 565 567 4
f 565 566 567
f 669 657 536
f 668 669 536
f 668 537 545
f 668 536 537
f 674 5 569
f 674 569 577
f 674 565 5
f 675 565 674
f 546 667 668
f 546 668 545
f 564 565 675
f 548 546 547
f 562 563 564
f 561 562 564
f 559 561 564
f 559 560 561
f 553 549 550
f 553 550 551
f 553 551 552
f 557 559 564
f 557 558 559
f 554 667 546
f 554 548 549
f 554 546 548
f 554 549 553
f 556 564 675
f 556 557 564
f 519 280 656
f 521 520 673
f 672 521 673
f 507 670 671
f 666 507 671
f 510 676 677
f 510 677 673
f 245 555 524
f 250 515 514
f 246 250 514
f 239 555 245
f 239 246 514
f 239 514 555
f 673 245 524
f 673 524 510
f 250 280 665
f 665 280 666
f 666 280 507
f 507 280 519
f 250 665 515
f 665 667 554
f 665 554 515
f 669 519 657
f 672 577 521
f 675 524 556
f 678 680 605
f 678 605 447
f 682 528 579
f 688 532 616
f 400 417 484
f 534 399 18
f 526 417 400
f 530 783 772
f 530 772 773
f 530 773 774
f 530 774 775
f 530 775 776
f 530 776 777
f 530 777 778
f 530 778 779
f 530 779 780
f 530 780 781
f 51 534 18
f 51 530 781
f 51 781 782
f 51 782 534
f 529 530 51
f 529 51 65
f 705 417 526
f 711 529 65
f 511 417 705
f 704 511 705
f 707 711 65
f 710 529 711
f 710 709 529
f 703 511 704
f 815 816 707
f 817 707 816
f 818 707 817
f 814 815 707
f 813 814 707
f 819 707 818
f 812 813 707
f 812 707 65
f 820 707 819
f 811 812 65
f 821 707 820
f 810 707 821
f 822 811 65
f 766 764 765
f 788 789 790
f 788 790 791
f 769 766 767
f 769 767 768
f 786 788 791
f 786 787 788
f 770 764 766
f 770 766 769
f 784 785 786
f 784 786 791
f 784 791 783
f 763 764 770
f 763 770 771
f 701 764 763
f 792 784 783
f 792 783 708
f 755 701 763
f 755 702 701
f 759 756 757
f 759 757 758
f 796 797 798
f 796 798 799
f 796 799 800
f 761 755 756
f 761 756 759
f 761 759 760
f 793 794 795
f 793 795 796
f 793 800 792
f 793 792 708
f 793 796 800
f 793 708 706
f 754 702 755
f 754 755 761
f 754 761 762
f 754 746 702
f 802 706 810
f 805 803 804
f 801 706 802
f 801 793 706
f 750 751 752
f 809 802 803
f 809 801 802
f 807 805 806
f 807 803 805
f 807 809 803
f 747 752 753
f 747 753 745
f 747 745 746
f 808 809 807
f 748 749 750
f 748 750 752
f 748 752 747
f 417 511 512
f 363 822 65
f 527 434 417
f 822 363 343
f 435 434 527
f 435 527 744
f 346 822 343
f 518 822 346
f 230 435 744
f 304 518 346
f 229 230 744
f 824 825 826
f 824 826 827
f 740 741 742
f 829 827 828
f 829 824 827
f 738 739 740
f 738 742 743
f 738 743 735
f 738 740 742
f 831 824 829
f 831 829 830
f 823 824 831
f 736 738 735
f 736 737 738
f 839 840 832
f 10 8 9
f 6 8 10
f 836 839 832
f 836 837 838
f 836 838 839
f 732 8 6
f 733 8 732
f 833 836 832
f 833 834 835
f 833 835 836
f 731 733 734
f 731 7 8
f 731 8 733
f 696 736 735
f 692 824 823
f 692 832 824
f 692 833 832
f 697 696 735
f 697 735 7
f 697 7 731
f 722 697 731
f 720 692 691
f 720 833 692
f 723 722 731
f 718 719 720
f 725 723 724
f 717 718 720
f 726 723 725
f 716 717 720
f 728 726 727
f 728 723 726
f 713 714 715
f 730 728 729
f 730 723 728
f 712 713 715
f 712 720 691
f 712 716 720
f 712 715 716
f 722 723 730
f 517 518 304
f 522 229 744
f 505 694 693
f 695 694 505
f 508 699 698
f 508 700 699
f 269 721 516
f 174 173 523
f 238 721 269
f 231 174 523
f 231 523 721
f 231 721 238
f 229 509 173
f 229 508 509
f 229 700 508
f 229 522 700
f 269 517 304
f 269 506 517
f 269 505 506
f 269 695 505
f 269 516 695
f 516 712 691
f 823 517 506
f 522 736 696
f 722 173 509
f 526 764 701
f 746 417 512
f 746 745 417
f 707 810 706
f 337 295 294
f 297 294 293
f 297 337 294
f 298 293 292
f 298 297 293
f 299 292 291
f 299 298 292
f 318 299 291
f 366 66 370
f 367 366 370
f 344 367 370
f 345 367 344
f 64 51 52
f 64 65 51
f 79 52 53
f 79 64 52
f 78 53 54
f 78 79 53
f 95 54 80
f 95 78 54
f 94 80 81
f 94 95 80
f 99 81 97
f 99 94 81
f 98 97 96
f 98 99 97
f 109 96 103
f 109 98 96
f 118 103 104
f 118 109 103
f 119 118 104
f 119 104 105
f 122 119 105
f 122 105 108
f 106 122 108
f 115 122 106
f 107 115 106
f 114 115 107
f 123 114 107
f 129 114 123
f 124 129 123
f 128 129 124
f 84 128 124
f 90 128 84
f 85 90 84
f 89 90 85
f 58 89 85
f 75 89 58
f 59 75 58
f 74 75 59
f 138 74 59
f 147 74 138
f 139 147 138
f 146 147 139
f 140 146 139
f 154 146 140
f 141 154 140
f 153 154 141
f 155 153 141
f 164 153 155
f 156 164 155
f 163 164 156
f 165 163 156
f 172 163 165
f 166 172 165
f 171 172 166
f 133 171 166
f 149 171 133
f 134 149 133
f 148 149 134
f 421 486 424
f 422 424 423
f 422 421 424
f 402 423 390
f 402 422 423
f 476 488 487
f 442 440 475
f 472 475 474
f 472 442 475
f 473 474 448
f 473 472 474
f 216 209 436
f 227 502 431
f 205 227 431
f 236 237 265
f 247 237 236
f 273 323 276
f 274 276 275
f 274 273 276
f 247 275 237
f 247 274 275
f 518 656 533
f 518 533 822
f 685 686 711
f 685 711 707
f 399 525 400
f 399 535 525
f 534 535 399
f 678 679 705
f 678 705 526
f 744 578 520
f 527 578 744
f 672 673 700
f 672 700 522
f 721 555 514
f 523 555 721
f 665 666 695
f 665 695 516
f 643 810 644
f 643 802 810
f 644 685 707
f 644 707 706
f 687 644 706
f 687 706 708
f 688 687 708
f 688 708 783
f 532 688 783
f 532 783 530
f 616 783 617
f 625 792 626
f 625 784 792
f 634 801 635
f 634 793 801
f 690 710 711
f 686 690 711
f 689 709 710
f 690 689 710
f 689 529 709
f 531 529 689
f 793 634 633
f 794 633 632
f 794 793 633
f 795 632 631
f 795 794 632
f 796 631 630
f 796 795 631
f 797 630 629
f 797 796 630
f 798 629 628
f 798 797 629
f 799 628 627
f 799 798 628
f 800 627 626
f 800 799 627
f 792 800 626
f 802 643 642
f 803 642 641
f 803 802 642
f 804 641 640
f 804 803 641
f 805 640 639
f 805 804 640
f 806 639 638
f 806 805 639
f 807 638 637
f 807 806 638
f 808 637 636
f 808 807 637
f 809 636 635
f 809 808 636
f 801 809 635
f 784 625 624
f 785 624 623
f 785 784 624
f 786 623 622
f 786 785 623
f 787 622 621
f 787 786 622
f 788 621 620
f 788 787 621
f 789 620 619
f 789 788 620
f 790 619 618
f 790 789 619
f 791 618 617
f 791 790 618
f 783 791 617
f 782 606 535
f 782 535 534
f 781 607 606
f 781 606 782
f 780 608 607
f 780 607 781
f 779 609 608
f 779 608 780
f 778 610 609
f 778 609 779
f 777 611 610
f 777 610 778
f 776 612 611
f 776 611 777
f 775 613 612
f 775 612 776
f 774 614 613
f 774 613 775
f 773 615 614
f 773 614 774
f 772 616 615
f 772 615 773
f 783 616 772
f 810 645 644
f 821 646 645
f 821 645 810
f 820 647 646
f 820 646 821
f 819 648 647
f 819 647 820
f 818 649 648
f 818 648 819
f 817 650 649
f 817 649 818
f 816 651 650
f 816 650 817
f 815 652 651
f 815 651 816
f 814 653 652
f 814 652 815
f 813 654 653
f 813 653 814
f 812 655 654
f 812 654 813
f 811 533 655
f 811 655 812
f 822 533 811
f 605 526 447
f 605 764 526
f 680 678 526
f 680 526 701
f 681 680 701
f 681 701 702
f 682 681 702
f 682 702 746
f 528 682 746
f 528 746 512
f 528 745 579
f 528 417 745
f 587 754 588
f 587 746 754
f 596 763 597
f 596 755 763
f 577 522 521
f 577 736 522
f 577 672 522
f 577 522 696
f 674 577 696
f 674 696 697
f 675 674 697
f 675 697 722
f 524 675 722
f 524 722 509
f 524 722 556
f 524 173 722
f 564 731 565
f 564 723 731
f 5 735 569
f 5 7 735
f 515 712 516
f 554 712 515
f 667 665 516
f 667 516 691
f 668 667 691
f 668 691 692
f 669 668 692
f 669 692 823
f 669 823 506
f 519 669 506
f 519 823 657
f 519 517 823
f 536 832 537
f 536 824 832
f 545 720 546
f 545 833 720
f 684 704 705
f 679 684 705
f 683 703 704
f 684 683 704
f 683 511 703
f 513 511 683
f 677 699 700
f 673 677 700
f 676 698 699
f 677 676 699
f 676 508 698
f 510 508 676
f 671 694 695
f 666 671 695
f 670 693 694
f 671 670 694
f 670 505 693
f 507 505 670
f 755 596 595
f 756 595 594
f 756 755 595
f 757 594 593
f 757 756 594
f 758 593 592
f 758 757 593
f 759 592 591
f 759 758 592
f 760 591 590
f 760 759 591
f 761 590 589
f 761 760 590
f 762 761 589
f 754 589 588
f 754 762 589
f 764 605 604
f 765 604 603
f 765 764 604
f 766 603 602
f 766 765 603
f 767 602 601
f 767 766 602
f 768 601 600
f 768 767 601
f 769 600 599
f 769 768 600
f 770 599 598
f 770 769 599
f 771 598 597
f 771 770 598
f 763 771 597
f 747 587 586
f 747 746 587
f 748 586 585
f 748 747 586
f 749 585 584
f 749 748 585
f 750 584 583
f 750 749 584
f 751 582 581
f 751 583 582
f 751 750 583
f 752 581 580
f 752 751 581
f 753 752 580
f 745 580 579
f 745 753 580
f 6 1 568
f 732 568 567
f 732 6 568
f 733 567 566
f 733 732 567
f 734 566 565
f 734 733 566
f 731 734 565
f 736 577 576
f 737 576 575
f 737 736 576
f 738 575 574
f 738 737 575
f 739 574 573
f 739 738 574
f 740 573 572
f 740 739 573
f 741 572 571
f 741 740 572
f 742 571 570
f 742 741 571
f 743 742 570
f 735 570 569
f 735 743 570
f 723 564 563
f 724 563 562
f 724 723 563
f 725 562 561
f 725 724 562
f 726 561 560
f 726 725 561
f 727 560 559
f 727 726 560
f 728 559 558
f 728 727 559
f 729 558 557
f 729 728 558
f 730 557 556
f 730 729 557
f 722 730 556
f 833 545 544
f 834 544 543
f 834 833 544
f 835 543 542
f 835 834 543
f 836 542 541
f 836 835 542
f 837 541 540
f 837 836 541
f 838 540 539
f 838 837 540
f 839 539 538
f 839 838 539
f 840 538 537
f 840 839 538
f 832 840 537
f 712 554 553
f 713 553 552
f 713 712 553
f 714 552 551
f 714 713 552
f 715 551 550
f 715 714 551
f 716 550 549
f 716 715 550
f 717 716 549
f 718 549 548
f 718 717 549
f 719 548 547
f 719 718 548
f 720 547 546
f 720 719 547
f 824 536 664
f 825 664 663
f 825 824 664
f 826 663 662
f 826 825 663
f 827 662 661
f 827 826 662
f 828 661 660
f 828 827 661
f 829 660 659
f 829 828 660
f 830 659 658
f 830 829 659
f 831 658 657
f 831 830 658
f 823 831 657
f 847 846 845
f 844 843 847
f 844 841 842
f 841 847 845
f 841 844 847
f 848 850 849
f 848 849 856
f 854 852 851
f 853 854 851
f 855 854 853
f 855 852 854
f 856 849 850
f 864 862 857
f 860 859 858
f 861 860 858
f 861 859 860
f 864 863 862
f 857 863 864
f 871 866 865
f 867 866 868
f 869 867 868
f 869 868 866
f 870 866 871
f 865 870 871
f 873 872 876
f 878 875 874
f 879 876 872
f 879 873 876
f 877 878 874
f 877 875 878
f 883 880 885
f 887 882 881
f 883 884 880
f 885 884 883
f 886 887 881
f 886 882 887
f 894 889 888
f 893 890 891
f 896 892 898
f 895 894 888
f 895 889 894
f 899 890 893
f 899 893 891
f 897 898 892
f 897 896 898
f 903 902 906
f 900 904 903
f 900 903 901
f 903 906 901
f 906 905 901
f 909 908 912
f 910 907 908
f 910 908 909
f 911 907 910
f 918 917 916
f 913 919 918
f 913 918 914
f 918 916 914
f 916 915 914
f 920 925 923
f 921 925 920
f 921 924 925
f 922 924 921
f 929 928 927
f 934 933 929
f 931 930 935
f 926 932 931
f 926 929 927
f 926 934 929
f 926 935 934
f 926 931 935
f 936 938 937
f 941 940 939
f 937 938 942
f 936 937 942
f 940 941 942
f 939 940 942
f 947 950 949
f 947 948 950
f 951 952 946
f 954 952 951
f 945 953 944
f 943 953 945
f 948 949 950
f 946 954 951
f 944 943 945
f 961 962 959
f 960 962 961
f 956 957 958
f 955 957 956
f 959 960 961
f 958 955 956
f 969 967 968
f 966 967 969
f 964 965 963
f 970 965 964
f 968 966 969
f 970 964 963
f 976 975 974
f 972 971 976
f 972 976 973
f 976 974 973
f 977 973 974

