# https://github.com/mikedh/trimesh
v 25.40000000 37.60000000 -593.89259779
v 24.91454176 38.09978849 -593.89259779
v 24.97845611 38.09380628 -593.89259779
v 25.04107723 38.07968450 -593.89259779
v 25.10137294 38.05765592 -593.89259779
v 25.15834934 38.02808366 -593.89259779
v 25.21106730 37.99145515 -593.89259779
v 25.25865783 37.94837417 -593.89259779
v 25.30033649 37.89955082 -593.89259779
v 25.33541628 37.84578988 -593.89259779
v 25.36331896 37.78797750 -593.89259779
v 25.38358460 37.72706664 -593.89259779
v 25.39587917 37.66406129 -593.89259779
v 24.78369308 38.07839483 -593.89259779
v 24.84840515 38.09344807 -593.89259779
v -25.40000000 23.40000000 -593.89259779
v -25.38309361 23.65949902 -593.89259779
v -25.33266026 23.91461084 -593.89259779
v -25.24955260 24.16102246 -593.89259779
v -25.13517568 24.39456793 -593.89259779
v -24.99146320 24.61129884 -593.89259779
v -24.82084482 24.80755106 -593.89259779
v -24.62620508 24.98000668 -593.89259779
v -24.41083464 25.12575008 -593.89259779
v -24.17837463 25.24231727 -593.89259779
v -23.93275511 25.32773753 -593.89259779
v -25.40000000 -23.40000000 -593.89259779
v -23.40000000 -25.40000000 -593.89259779
v -23.66105238 -25.38288972 -593.89259779
v -23.91763809 -25.33185165 -593.89259779
v -24.16536686 -25.24775907 -593.89259779
v -24.40000000 -25.13205081 -593.89259779
v -24.61752286 -24.98670668 -593.89259779
v -24.81421356 -24.81421356 -593.89259779
v -24.98670668 -24.61752286 -593.89259779
v -25.13205081 -24.40000000 -593.89259779
v -25.24775907 -24.16536686 -593.89259779
v -25.33185165 -23.91763809 -593.89259779
v -25.38288972 -23.66105238 -593.89259779
v 23.40000000 -25.40000000 -593.89259779
v 25.40000000 -23.40000000 -593.89259779
v 25.38288972 -23.66105238 -593.89259779
v 25.33185165 -23.91763809 -593.89259779
v 25.24775907 -24.16536686 -593.89259779
v 25.13205081 -24.40000000 -593.89259779
v 24.98670668 -24.61752286 -593.89259779
v 24.81421356 -24.81421356 -593.89259779
v 24.61752286 -24.98670668 -593.89259779
v 24.40000000 -25.13205081 -593.89259779
v 24.16536686 -25.24775907 -593.89259779
v 23.91763809 -25.33185165 -593.89259779
v 23.66105238 -25.38288972 -593.89259779
v 25.40000000 37.60000000 593.89259779
v 25.39587917 37.66406129 593.89259779
v 25.38358460 37.72706664 593.89259779
v 25.36331896 37.78797750 593.89259779
v 25.33541628 37.84578988 593.89259779
v 25.30033649 37.89955082 593.89259779
v 25.25865783 37.94837417 593.89259779
v 25.21106730 37.99145515 593.89259779
v 25.15834934 38.02808366 593.89259779
v 25.10137294 38.05765592 593.89259779
v 25.04107723 38.07968450 593.89259779
v 24.97845611 38.09380628 593.89259779
v 24.91454176 38.09978849 593.89259779
v 18.92425824 38.09978849 593.89259779
v 18.86034389 38.09380628 593.89259779
v 18.79772277 38.07968450 593.89259779
v -23.91763809 25.33185165 593.89259779
v -24.16536686 25.24775907 593.89259779
v -24.40000000 25.13205081 593.89259779
v -24.61752286 24.98670668 593.89259779
v -24.81421356 24.81421356 593.89259779
v -24.98670668 24.61752286 593.89259779
v -25.13205081 24.40000000 593.89259779
v -25.24775907 24.16536686 593.89259779
v -25.33185165 23.91763809 593.89259779
v -25.38288972 23.66105238 593.89259779
v -25.40000000 23.40000000 593.89259779
v -25.40000000 -23.40000000 593.89259779
v -25.38288972 -23.66105238 593.89259779
v -25.33185165 -23.91763809 593.89259779
v -25.24775907 -24.16536686 593.89259779
v -25.13205081 -24.40000000 593.89259779
v -24.98670668 -24.61752286 593.89259779
v -24.81421356 -24.81421356 593.89259779
v -24.61752286 -24.98670668 593.89259779
v -24.40000000 -25.13205081 593.89259779
v -24.16536686 -25.24775907 593.89259779
v -23.91763809 -25.33185165 593.89259779
v -23.66105238 -25.38288972 593.89259779
v -23.40000000 -25.40000000 593.89259779
v 23.40000000 -25.40000000 593.89259779
v 23.66105238 -25.38288972 593.89259779
v 23.91763809 -25.33185165 593.89259779
v 24.16536686 -25.24775907 593.89259779
v 24.40000000 -25.13205081 593.89259779
v 24.61752286 -24.98670668 593.89259779
v 24.81421356 -24.81421356 593.89259779
v 24.98670668 -24.61752286 593.89259779
v 25.13205081 -24.40000000 593.89259779
v 25.24775907 -24.16536686 593.89259779
v 25.33185165 -23.91763809 593.89259779
v 25.38288972 -23.66105238 593.89259779
v 25.40000000 -23.40000000 593.89259779
v 18.78230702 38.07487887 -570.49259779
v 18.84969206 38.09199571 -570.49259779
v 18.91880000 38.09959984 -570.49259779
v 18.92425824 38.09978849 -570.49260110
f 26 106 14
f 26 69 68
f 68 106 26
f 75 74 21
f 17 16 79
f 76 75 20
f 20 75 21
f 73 23 22
f 22 74 73
f 21 74 22
f 24 23 72
f 72 71 24
f 72 23 73
f 24 71 25
f 107 68 67
f 106 68 107
f 107 14 106
f 78 17 79
f 18 17 78
f 78 77 18
f 76 20 19
f 19 77 76
f 18 77 19
f 70 25 71
f 26 25 70
f 70 69 26
f 108 107 67
f 67 66 108
f 108 66 109
f 108 109 2
f 14 107 15
f 15 108 2
f 107 108 15
f 16 80 79
f 27 80 16
f 105 41 53
f 53 41 1
f 92 40 93
f 28 40 92
f 45 101 100
f 45 100 46
f 102 101 45
f 45 44 102
f 42 41 105
f 105 104 42
f 54 53 1
f 1 13 54
f 66 65 2
f 2 109 66
f 52 94 93
f 93 40 52
f 52 95 94
f 51 95 52
f 102 44 43
f 43 103 102
f 104 103 43
f 43 42 104
f 59 58 9
f 8 59 9
f 11 10 57
f 56 11 57
f 10 9 57
f 57 9 58
f 61 6 5
f 61 5 62
f 96 95 50
f 50 95 51
f 50 97 96
f 50 49 97
f 98 97 48
f 97 49 48
f 38 83 82
f 38 37 83
f 35 86 85
f 34 86 35
f 31 30 90
f 89 31 90
f 28 92 29
f 92 91 29
f 91 90 29
f 29 90 30
f 88 32 31
f 88 31 89
f 87 86 33
f 33 86 34
f 33 88 87
f 32 88 33
f 56 55 12
f 12 11 56
f 12 54 13
f 12 55 54
f 62 5 4
f 4 63 62
f 69 70 64
f 105 53 64
f 64 86 87
f 73 74 64
f 64 83 84
f 102 103 64
f 93 94 64
f 79 80 64
f 64 75 76
f 64 101 102
f 64 72 73
f 64 97 98
f 64 55 56
f 89 90 64
f 67 68 64
f 98 99 64
f 64 104 105
f 96 97 64
f 64 66 67
f 64 92 93
f 80 81 64
f 84 85 64
f 64 68 69
f 74 75 64
f 76 77 64
f 64 99 100
f 100 101 64
f 64 78 79
f 56 57 64
f 64 61 62
f 64 91 92
f 64 81 82
f 82 83 64
f 64 95 96
f 71 72 64
f 77 78 64
f 64 103 104
f 53 54 64
f 64 58 59
f 65 66 64
f 94 95 64
f 62 63 64
f 64 70 71
f 54 55 64
f 64 57 58
f 64 88 89
f 59 60 64
f 85 86 64
f 64 90 91
f 87 88 64
f 64 60 61
f 2 65 64
f 64 3 2
f 64 4 3
f 63 4 64
f 100 99 47
f 46 100 47
f 47 99 98
f 98 48 47
f 39 80 27
f 39 81 80
f 82 81 39
f 39 38 82
f 84 83 36
f 83 37 36
f 36 85 84
f 36 35 85
f 7 13 1
f 1 41 7
f 7 4 5
f 18 19 7
f 27 16 7
f 7 36 37
f 7 50 51
f 16 17 7
f 7 43 44
f 21 22 7
f 28 29 7
f 7 45 46
f 7 20 21
f 7 40 28
f 7 52 40
f 7 23 24
f 26 14 7
f 7 17 18
f 7 25 26
f 7 10 11
f 7 33 34
f 41 42 7
f 2 3 7
f 34 35 7
f 7 22 23
f 24 25 7
f 7 19 20
f 44 45 7
f 7 15 2
f 5 6 7
f 11 12 7
f 51 52 7
f 8 9 7
f 37 38 7
f 7 30 31
f 31 32 7
f 14 15 7
f 42 43 7
f 7 9 10
f 49 50 7
f 7 48 49
f 46 47 7
f 7 39 27
f 7 29 30
f 32 33 7
f 7 12 13
f 3 4 7
f 7 47 48
f 38 39 7
f 35 36 7
f 7 59 8
f 7 60 59
f 6 61 7
f 61 60 7

