# https://github.com/mikedh/trimesh
v 2.08365233 -0.00664404 2.20801773
v -0.94794987 1.83778519 2.20949328
v 0.00000000 2.10500923 2.19823481
v 1.63073865 1.30655190 2.20559722
v -2.01188040 0.53976333 2.20721691
v -1.05250461 1.82299147 2.19823481
v -0.52942125 2.02820711 2.20338517
v -2.08365233 0.00664404 2.20801773
v -2.06191234 0.27242865 2.20786798
v -1.92216402 0.79950073 2.20726955
v -1.80380097 1.04516780 2.20675384
v -1.65369664 1.26861729 2.20691861
v -1.46638338 1.47887743 2.20719515
v -1.26933870 1.66723752 2.20318143
v -1.09244499 1.77702387 2.20757669
v -0.74015998 1.95414074 2.20652415
v -0.31416295 2.06428778 2.20710615
v -0.10159340 2.08034693 2.20762686
v 0.24699152 2.07401979 2.20683087
v 0.50811473 2.02519427 2.20688023
v 0.79247549 1.94095974 2.20319906
v 0.82450125 1.90604148 2.20880316
v 1.03654342 1.82248871 2.20305866
v 1.22036296 1.70345374 2.20401469
v 1.22032093 1.68433059 2.20799213
v 1.43832313 1.51366240 2.20592130
v 1.78878346 1.07754930 2.20591185
v 1.91636554 0.82560752 2.20615436
v 2.01060011 0.55977062 2.20612976
v 2.06537796 0.28235599 2.20650306
v 3.94826776 0.00000000 0.35368436
v 3.91448978 0.51535236 0.35368436
v 3.13237141 2.40355312 0.35368436
v 2.77772605 2.82034797 0.33404260
v 2.40513753 3.13602151 0.34649474
v 1.03191326 3.82150180 0.33287177
v 3.95472739 0.00000000 0.33872895
v 3.95867304 0.00000000 0.32292316
v 3.96000000 0.00000000 0.30668646
v -3.96000000 0.00000000 0.30668646
v -3.92311635 0.53921993 0.30668646
v -3.82346530 1.02797486 0.32677543
v -3.65310528 1.52917466 0.32325449
v -3.38350084 2.05755244 0.30668646
v -3.07181671 2.49910826 0.30668646
v -2.70291045 2.89411042 0.30668646
v -2.28365408 3.23520078 0.30668646
v 0.26786848 3.95190346 0.31397019
v 1.32378200 3.73316989 0.31410095
v 1.81968550 3.51814790 0.31425691
v 2.28174948 3.23755611 0.31448979
v 2.70291045 2.89411042 0.30668646
v 3.07181671 2.49910826 0.30668646
v -3.94826776 0.00000000 0.35368436
v -3.95472739 0.00000000 0.33872895
v -3.95867304 0.00000000 0.32292316
v -0.51198832 3.92523801 0.33264977
v -1.03191326 3.82150180 0.33287177
v -1.51174599 3.65840521 0.33236222
v -3.91448978 0.51535236 0.35368436
v -3.92089415 0.51619551 0.33872895
v -3.92480605 0.51671052 0.32292316
v -3.42718061 1.97863730 0.33343085
v -3.14038460 2.40902814 0.33144824
v -2.80034161 2.79694286 0.33282559
v -2.38051699 3.16444446 0.32971118
v -1.98229160 3.42604879 0.33344271
v -1.82158553 3.51725135 0.31421614
v -1.32578613 3.73237186 0.31422818
v -0.80553241 3.87826164 0.31394545
v -0.27016249 3.95165818 0.31407165
v -0.00000000 3.95851902 0.33209901
v 0.51198832 3.92523801 0.33264977
v 0.80327948 3.87864920 0.31400819
v 1.51174599 3.65840521 0.33236222
v 1.98229160 3.42604879 0.33344271
v 2.40988746 3.14062648 0.32292316
v 2.79920455 2.79920455 0.32292316
v 3.07078738 2.49827083 0.32292316
v 3.38912101 2.04304977 0.33588047
v 3.63342531 1.56653712 0.33643519
v 3.81089513 1.06471805 0.33665037
v 3.92186676 0.54041018 0.32393512
v -3.86199039 0.21716427 -0.00001703
v -3.64788371 1.29645817 -0.00002900
v -2.85872100 2.60569516 -0.00002384
v -2.01153487 3.30782813 -0.00002417
v -0.52716192 3.83538783 -0.00002071
v 0.99836725 3.73702996 -0.00001703
v 2.01153487 3.30782813 -0.00002417
v 3.13283072 2.26879257 -0.00001986
v 3.62876978 1.33943194 -0.00001986
v 3.86240857 0.26419599 -0.00002417
v -3.91000000 0.00000000 0.01339746
v -3.95430393 -0.00867239 0.06372492
v 3.96000000 0.00000000 0.10000000
v 3.81315246 1.06839521 0.10000000
v 3.38350084 2.05755244 0.10000000
v 2.69467010 2.89359269 0.06155512
v 2.28365408 3.23520078 0.10000000
v 1.32612326 3.73135325 0.10000000
v 0.27023996 3.95076833 0.10000000
v -0.80568581 3.87717299 0.10000000
v -1.82185755 3.51602546 0.10000000
v -2.69584704 2.89078747 0.05974362
v -3.06591327 2.49848673 0.06334114
v -3.38131739 2.04958979 0.06155511
v -3.62435425 1.57743455 0.05974362
v -3.80819114 1.06700511 0.06200810
v -3.92311635 0.53921993 0.10000000
v 3.91000000 0.00000000 0.01339746
v 3.94660254 0.00000000 0.05000000
v 3.87358205 0.53241160 0.01339746
v 3.91632827 0.53536561 0.05974362
v 3.76500659 1.05490538 0.01339746
v 3.80025181 1.06478062 0.05000000
v 3.58629619 1.55774826 0.01339746
v 3.62743092 1.57561560 0.06200810
v 3.34077987 2.03157324 0.01339746
v 3.37205379 2.05059134 0.05000000
v 3.03303115 2.46755386 0.01339746
v 3.06358262 2.49971741 0.06155511
v 2.64723564 2.86092472 0.00583850
v 2.25482006 3.19435228 0.01339746
v 2.27592802 3.22425546 0.05000000
v 1.79885430 3.47163120 0.01339746
v 1.80847981 3.51617933 0.06184813
v 1.30937928 3.68424021 0.01339746
v 1.32163673 3.71872935 0.05000000
v 0.79551301 3.82821878 0.01339746
v 0.79606278 3.87284484 0.06048894
v 0.26623493 3.89221696 0.00743822
v 0.26932568 3.93740210 0.05000000
v -0.26682784 3.90088489 0.01339746
v -0.26685786 3.94373305 0.05974362
v -0.79551301 3.82821878 0.01339746
v -0.80296002 3.86405575 0.05000000
v -1.32227220 3.66665284 0.00583850
v -1.32096849 3.72549134 0.05974361
v -1.79885430 3.47163120 0.01339746
v -1.81569385 3.50413006 0.05000000
v -2.25482006 3.19435228 0.01339746
v -2.28745435 3.22554606 0.06372493
v -2.66878279 2.85756862 0.01339746
v -3.03303115 2.46755386 0.01339746
v -3.33954763 2.00713100 0.00491428
v -3.58629619 1.55774826 0.01339746
v -3.76500659 1.05490538 0.01339746
v -3.87358205 0.53241160 0.01339746
v -3.90984367 0.53739564 0.05000000
v -0.60176276 1.57255318 -63.49913315
v 1.12118014 1.25358468 -63.49958324
v 1.35244147 0.97943658 -63.50000666
v 1.58595486 0.58451479 -63.49826593
v 1.66740812 0.11405384 -63.50000648
v -1.71261795 0.00000000 -63.49012794
v 0.78994825 1.53048155 -63.48338365
v -0.35440072 1.67523652 -63.49074762
v -0.57934932 1.62195759 -63.48338364
v -1.65731637 0.46532714 -63.48386124
v 1.70935677 0.04754438 -63.49294698
v 1.70590497 0.23723468 -63.48338364
v 1.65771263 0.46731242 -63.48338365
v 1.57864023 0.68868503 -63.48338364
v 1.43608237 0.92758049 -63.49322667
v 1.33429497 1.08905876 -63.48338364
v 1.17264537 1.26095606 -63.48369745
v 0.94764186 1.42292412 -63.49322667
v 0.45444823 1.62570039 -63.49915178
v 0.57419005 1.62379120 -63.48338364
v 0.34773585 1.68685263 -63.48338365
v 0.11480392 1.71849123 -63.48338364
v -0.04754172 1.68782684 -63.49903580
v -0.12026656 1.71811758 -63.48338364
v -0.82741639 1.49603484 -63.49322667
v -0.99193668 1.40687190 -63.48386124
v -1.14450776 1.23476050 -63.49914957
v -1.17544483 1.26004778 -63.48288641
v -1.32399691 1.06984445 -63.49691436
v -1.48082212 0.85667074 -63.49291551
v -1.58082164 0.68366292 -63.48338364
v -1.61976122 0.46465756 -63.49876744
v -1.67153976 0.19367529 -63.49925162
v -1.70669375 0.23457966 -63.48328272
v 2.08100931 -0.00079911 -63.10394128
v 2.06340069 0.28360790 -63.08357864
v 2.00556413 0.56193271 -63.08357864
v 1.91036770 0.82978979 -63.08357864
v 1.77958474 1.08218945 -63.08357864
v 1.61422716 1.31327121 -63.10445809
v 1.42162169 1.52218515 -63.08357864
v 1.20110977 1.70158489 -63.08357864
v 0.95822346 1.84928733 -63.08357864
v 0.69748726 1.96254105 -63.08357864
v 0.42375818 2.03923634 -63.08357864
v 0.14213530 2.07794451 -63.08357864
v -0.14213530 2.07794451 -63.08357864
v -0.42375818 2.03923634 -63.08357864
v -0.69748726 1.96254105 -63.08357864
v -0.95822346 1.84928733 -63.08357864
v -1.20110977 1.70158489 -63.08357864
v -1.42162169 1.52218515 -63.08357864
v -1.61565148 1.31442997 -63.08357864
v -1.77958474 1.08218945 -63.08357864
v -1.91036770 0.82978979 -63.08357864
v -2.00556413 0.56193271 -63.08357864
v -2.06340069 0.28360790 -63.08357864
v 2.06612977 -0.00069242 -63.13960487
v -2.05351068 0.00000000 -63.15428932
v -1.76636369 1.07280108 -63.13864592
v -1.18421920 1.67765640 -63.15428932
v 0.42219264 2.02288036 -63.13920033
v 1.60352386 1.30189731 -63.14034233
v 1.76656264 1.07216979 -63.13920031
v 1.89530852 0.82099386 -63.14034233
v 1.99032164 0.55579792 -63.13920033
v 2.03438417 0.27961967 -63.15428932
v -2.07922693 -0.00000001 -63.11461202
v -2.06002501 0.28314392 -63.10946055
v -2.04753384 0.28026405 -63.13864595
v -2.00228306 0.56101340 -63.10946055
v -1.98941487 0.55598654 -63.14043977
v -1.90724238 0.82843227 -63.10946055
v -1.89480172 0.82378346 -63.13960485
v -1.77667337 1.08041901 -63.10946055
v -1.61300830 1.31227959 -63.10946055
v -1.60320818 1.30254219 -63.14043975
v -1.41929594 1.51969488 -63.10946055
v -1.41142387 1.50957791 -63.13864594
v -1.19907453 1.69521789 -63.12131738
v -0.95665583 1.84626194 -63.10946055
v -0.94842036 1.83486351 -63.14034235
v -0.69634618 1.95933037 -63.10946055
v -0.69125229 1.94706523 -63.13960487
v -0.42306492 2.03590019 -63.10946055
v -0.41968858 2.02305566 -63.13960487
v -0.14190277 2.07454504 -63.10946055
v -0.14030687 2.06136041 -63.13960485
v 0.14190277 2.07454504 -63.10946055
v 0.14168849 2.06126591 -63.13960485
v 0.42306492 2.03590019 -63.10946055
v 0.69634618 1.95933037 -63.10946055
v 0.69363695 1.94553157 -63.14034235
v 0.95665583 1.84626194 -63.10946055
v 0.95230317 1.83396026 -63.13920033
v 1.19914478 1.69880114 -63.10946055
v 1.19281314 1.68624495 -63.14034236
v 1.41929594 1.51969488 -63.10946055
v 1.41178576 1.50902370 -63.13920033
v 1.77667337 1.08041901 -63.10946055
v 1.90724238 0.82843227 -63.10946055
v 2.00228306 0.56101340 -63.10946055
v 2.05684948 0.28270745 -63.12226605
v -1.19952316 -0.04726919 0.66300014
v -1.23893677 -0.25466135 0.66300005
v -1.32566357 -0.43840830 0.66299959
v -1.20076143 0.04945627 1.93634820
v -1.20792280 -0.12135188 1.94358318
v -1.24467633 -0.26652814 1.97787782
v -1.35307542 -0.47837768 2.07136191
v -1.41888552 -0.55707348 2.12300780
v 1.23810485 0.95646084 0.66299971
v 1.45059255 0.83750000 2.21000000
v 1.40096121 0.89749607 2.20355904
v 1.33516698 0.93843205 2.18515653
v 1.25372039 0.95682898 2.15324285
v 1.48241152 0.71875000 2.19410346
v 1.47427688 0.78012778 2.20594777
v 1.47645175 0.77162125 0.66300000
v 1.45887156 0.82183903 0.66300000
v 1.41354961 0.88794222 0.66300037
v 1.32757072 0.94339441 0.66300110
v 1.44938334 -0.59705577 0.66299963
v 1.41888552 -0.55707348 2.12300780
v 1.48241152 -0.71875000 2.19410346
v 1.46587168 -0.63203784 2.16457309
v 1.48186700 -0.68857389 0.66299735
v 1.41888552 0.55707348 2.12300780
v 1.46589901 0.63180264 2.16452762
v 1.67500000 0.00000000 2.21000000
v 1.66067014 0.21863137 2.21000000
v 1.61415035 0.43896443 2.20991419
v 1.54749822 0.64099475 2.21000000
v 1.19976970 0.04181017 1.93564727
v 1.21703464 0.16507816 1.95218084
v 1.26203211 0.31553305 1.99363661
v 1.35188663 0.47677650 2.07040888
v -2.08280000 0.00000000 0.00000000
v 2.08280000 0.00000000 0.00000000
v 2.06340069 0.28360790 0.00000000
v 2.00556413 0.56193271 0.00000000
v 1.91036770 0.82978979 0.00000000
v 1.77958474 1.08218945 0.00000000
v 1.61565148 1.31442997 0.00000000
v 1.42162169 1.52218515 0.00000000
v 1.20110977 1.70158489 0.00000000
v 0.95822346 1.84928733 0.00000000
v 0.69748726 1.96254105 0.00000000
v 0.42375818 2.03923634 0.00000000
v 0.14213530 2.07794451 0.00000000
v -0.14213530 2.07794451 0.00000000
v -0.42375818 2.03923634 0.00000000
v -0.69748726 1.96254105 0.00000000
v -0.95822346 1.84928733 0.00000000
v -1.20110977 1.70158489 0.00000000
v -1.42162169 1.52218515 0.00000000
v -1.61565148 1.31442997 0.00000000
v -1.77958474 1.08218945 0.00000000
v -1.91036770 0.82978979 0.00000000
v -2.00556413 0.56193271 0.00000000
v -2.06340069 0.28360790 0.00000000
v -3.91448978 -0.51535236 0.35368436
v -3.81373380 -1.02188689 0.35368436
v -3.64772377 -1.51093666 0.35368436
v -3.41930018 -1.97413388 0.35368436
v -3.13237141 -2.40355312 0.35368436
v -2.79184690 -2.79184690 0.35368436
v -2.40513753 -3.13602151 0.34649474
v -1.03191326 -3.82150180 0.33287177
v -0.00000000 -3.67252499 0.80502781
v -0.00000000 -3.34543487 1.22066832
v -0.00000000 -2.97157060 1.59479462
v -0.00000000 -2.55615937 1.92217588
v -0.00000000 -2.10500923 2.19823481
v -1.05250461 -1.82299147 2.19823481
v -1.28144842 -1.67001610 2.19823481
v -1.67001610 -1.28144842 2.19823481
v 0.00000000 3.67252499 0.80502781
v 0.00000000 3.34543487 1.22066832
v 0.00000000 2.97157060 1.59479462
v 0.00000000 2.55615937 1.92217588
v -0.80193127 -3.68238494 0.66083777
v -0.80193127 -3.19076559 1.28197998
v -1.57787681 -3.28194093 0.84901946
v -0.80193127 -2.59575286 1.80492079
v -1.57787681 -2.76307229 1.39532102
v -2.30269293 -2.78054243 0.89235646
v -1.57787681 -2.15466921 1.83974849
v -2.30269293 -2.26202795 1.34806499
v -1.57787681 -1.47644636 2.16790064
v -2.95289272 -2.21801540 0.77514417
v -2.30269293 -1.67021486 1.70343070
v -2.95289272 -1.72962883 1.13190174
v -2.30269293 -1.02428022 1.94693833
v -3.50740714 -1.63748373 0.49308941
v -2.95289272 -1.18519547 1.39532102
v -2.30269293 -0.34515487 2.07069729
v -3.50740714 -1.20906979 0.75033891
v -2.95289272 -0.60235711 1.55686621
v -2.30269293 0.34515487 2.07069729
v -1.57787681 1.47644636 2.16790064
v -0.80193127 2.59575286 1.80492079
v -3.50740714 -0.74147722 0.92661427
v -2.95289272 -0.00000000 1.61130259
v -2.30269293 1.02428022 1.94693833
v -1.57787681 2.15466921 1.83974849
v -0.80193127 3.19076559 1.28197998
v -3.50740714 -0.24985787 1.01620347
v -2.95289272 0.60235711 1.55686621
v -2.30269293 1.67021486 1.70343070
v -1.57787681 2.76307229 1.39532102
v -0.80193127 3.68238494 0.66083777
v -3.50740714 0.24985787 1.01620347
v -2.95289272 1.18519547 1.39532102
v -2.30269293 2.26202795 1.34806499
v -1.57787681 3.28194093 0.84901946
v -3.50740714 0.74147722 0.92661427
v -2.95289272 1.72962883 1.13190174
v -2.30269293 2.78054243 0.89235646
v -3.50740714 1.20906979 0.75033891
v -2.95289272 2.21801540 0.77514417
v -3.50740714 1.63748373 0.49308941
v -1.98768029 -0.55704469 2.20975446
v -1.76374217 -1.07297913 2.20973517
v -1.40906122 -1.51087401 2.20964634
v -0.94794987 -1.83778519 2.20949328
v -0.68977156 -1.94948497 2.20948623
v 0.51866711 -2.00295717 2.20972976
v 1.18875009 -1.69193974 2.20950255
v 1.59637465 -1.29874711 2.21000000
v 1.75835198 -1.06927752 2.21000000
v 1.88757453 -0.81988932 2.21000000
v 1.98518715 -0.55188964 2.21002178
v -1.45059255 -0.83750000 2.21000000
v -1.32886684 -1.01967539 2.21000000
v -1.18440386 -1.18440386 2.21000000
v -0.93258672 -1.39564352 2.20999101
v -0.51756519 -1.59851603 2.20999526
v -0.21863137 -1.66067014 2.21000000
v -0.00000000 -1.67500000 2.21000000
v 0.21863137 -1.66067014 2.21000000
v 0.43352190 -1.61792576 2.21000000
v 0.74236933 -1.50546558 2.20999101
v 1.12557296 -1.24748256 2.20999526
v 1.32886684 -1.01967539 2.21000000
v 1.45059255 -0.83750000 2.21000000
v 1.54749822 -0.64099475 2.21000000
v 1.61792576 -0.43352190 2.21000000
v 1.66067014 -0.21863137 2.21000000
v 1.32886684 1.01967539 2.21000000
v 1.12556988 1.24748513 2.20999527
v 0.74236933 1.50546558 2.20999101
v 0.43352190 1.61792576 2.21000000
v 0.21863137 1.66067014 2.21000000
v 0.00000000 1.67500000 2.21000000
v -0.21863137 1.66067014 2.21000000
v -0.43352190 1.61792576 2.21000000
v -0.64099475 1.54749822 2.21000000
v -0.93258672 1.39564352 2.20999101
v -1.18440386 1.18440386 2.21000000
v -1.32886684 1.01967539 2.21000000
v -1.45059255 0.83750000 2.21000000
v -1.54749822 0.64099475 2.21000000
v -1.64313878 0.35102949 2.20999527
v -1.67500000 0.00000000 2.21000000
v -1.64313810 -0.35103339 2.20999526
v -1.54749822 -0.64099475 2.21000000
v 0.51447104 -3.91828768 0.34708532
v 1.02488883 -3.81666310 0.34716578
v 1.51174599 -3.65840521 0.33236222
v 1.97690050 -3.42178762 0.34733872
v 2.40200286 -3.14641525 0.33163750
v 3.42718061 -1.97863730 0.33343085
v 3.65709831 -1.51093423 0.33407098
v 3.82183929 -1.02040240 0.33774614
v 3.91448978 -0.51535236 0.35368436
v 2.08700058 -0.27475884 2.19823481
v 1.93981014 -0.80237144 2.20105898
v 1.28144842 -1.67001610 2.19823481
v 0.80555216 -1.94477494 2.19823481
v 0.52942125 -2.02820711 2.20338517
v 3.50740714 -1.63748373 0.49308941
v 2.95289272 -2.21801540 0.77514417
v 3.50740714 -1.20906979 0.75033891
v 2.30269293 -2.78054243 0.89235646
v 2.95289272 -1.72962883 1.13190174
v 3.50740714 -0.74147722 0.92661427
v 1.57787681 -3.28194093 0.84901946
v 2.30269293 -2.26202795 1.34806499
v 2.95289272 -1.18519547 1.39532102
v 3.50740714 -0.24985787 1.01620347
v 0.80193127 -3.68238494 0.66083777
v 1.57787681 -2.76307229 1.39532102
v 2.30269293 -1.67021486 1.70343070
v 2.95289272 -0.60235711 1.55686621
v 3.50740714 0.24985787 1.01620347
v 0.80193127 -3.19076559 1.28197998
v 1.57787681 -2.15466921 1.83974849
v 2.30269293 -1.02428022 1.94693833
v 2.95289272 -0.00000000 1.61130259
v 3.50740714 0.74147722 0.92661427
v 0.80193127 -2.59575286 1.80492079
v 1.57787681 -1.47644636 2.16790064
v 2.30269293 -0.34515487 2.07069729
v 2.95289272 0.60235711 1.55686621
v 3.50740714 1.20906979 0.75033891
v 2.30269293 0.34515487 2.07069729
v 2.95289272 1.18519547 1.39532102
v 3.50740714 1.63748373 0.49308941
v 2.30269293 1.02428022 1.94693833
v 2.95289272 1.72962883 1.13190174
v 2.30269293 1.67021486 1.70343070
v 2.95289272 2.21801540 0.77514417
v 1.57787681 1.47644636 2.16790064
v 2.30269293 2.26202795 1.34806499
v 1.57787681 2.15466921 1.83974849
v 2.30269293 2.78054243 0.89235646
v 1.57787681 2.76307229 1.39532102
v 0.80193127 2.59575286 1.80492079
v 1.57787681 3.28194093 0.84901946
v 0.80193127 3.19076559 1.28197998
v 0.80193127 3.68238494 0.66083777
v -3.92311635 -0.53921993 0.10000000
v -3.81315246 -1.06839521 0.10000000
v -3.63215675 -1.57766832 0.10000000
v -3.38350084 -2.05755244 0.10000000
v -3.07181671 -2.49910826 0.10000000
v -2.70291045 -2.89411042 0.10000000
v -2.28365408 -3.23520078 0.10000000
v -1.82185755 -3.51602546 0.10000000
v -1.32612326 -3.73135325 0.10000000
v -0.80568581 -3.87717299 0.10000000
v -0.27023996 -3.95076833 0.10000000
v 0.27023996 -3.95076833 0.10000000
v 0.80568581 -3.87717299 0.10000000
v 1.32612326 -3.73135325 0.10000000
v 1.82185755 -3.51602546 0.10000000
v 2.28365408 -3.23520078 0.10000000
v 2.70291045 -2.89411042 0.10000000
v 3.07181671 -2.49910826 0.10000000
v 3.38350084 -2.05755244 0.10000000
v 3.63215675 -1.57766832 0.10000000
v 3.81315246 -1.06839521 0.10000000
v 3.92311635 -0.53921993 0.10000000
v 3.92311635 -0.53921993 0.30668646
v 3.81315246 -1.06839521 0.30668646
v 3.63215675 -1.57766832 0.30668646
v 3.38350084 -2.05755244 0.30668646
v 3.07181671 -2.49910826 0.30668646
v 2.70291045 -2.89411042 0.30668646
v 2.28365408 -3.23520078 0.30668646
v 1.82185755 -3.51602546 0.30668646
v 1.32793572 -3.73170503 0.31416369
v -0.26786848 -3.95190346 0.31397019
v -0.80568581 -3.87717299 0.30668646
v -1.32378200 -3.73316989 0.31410095
v -1.81968550 -3.51814790 0.31425691
v -2.28174948 -3.23755611 0.31448979
v -2.70291045 -2.89411042 0.30668646
v -3.92172757 -0.53983190 0.32469145
v 3.82404775 -0.52560327 -0.00000000
v 3.71686073 -1.04141554 -0.00000000
v 3.54043562 -1.53782821 -0.00000000
v 3.29805890 -2.00559405 -0.00000000
v 2.99424558 -2.43599947 -0.00000000
v 2.63465513 -2.82102682 -0.00000000
v 2.22598604 -3.15350379 -0.00000000
v 1.77585105 -3.42723694 -0.00000000
v 1.29263530 -3.63712716 -0.00000000
v 0.78534021 -3.77926458 -0.00000000
v 0.26341572 -3.85100145 -0.00000000
v -0.26341572 -3.85100145 -0.00000000
v -0.78534021 -3.77926458 -0.00000000
v -1.29263530 -3.63712716 -0.00000000
v -1.77585105 -3.42723694 -0.00000000
v -2.22598604 -3.15350379 -0.00000000
v -2.63465513 -2.82102682 -0.00000000
v -2.99424558 -2.43599947 -0.00000000
v -3.29805890 -2.00559405 -0.00000000
v -3.54043562 -1.53782821 -0.00000000
v -3.71686073 -1.04141554 -0.00000000
v -3.82404775 -0.52560327 -0.00000000
v -2.06340069 -0.28360790 0.00000000
v -2.00556413 -0.56193271 0.00000000
v -1.91036770 -0.82978979 0.00000000
v -1.77958474 -1.08218945 0.00000000
v -1.61565148 -1.31442997 0.00000000
v -1.42162169 -1.52218515 0.00000000
v -1.20110977 -1.70158489 0.00000000
v -0.95822346 -1.84928733 0.00000000
v -0.69748726 -1.96254105 0.00000000
v -0.42375818 -2.03923634 0.00000000
v -0.14213530 -2.07794451 0.00000000
v 0.14213530 -2.07794451 0.00000000
v 0.42375818 -2.03923634 0.00000000
v 0.69748726 -1.96254105 0.00000000
v 0.95822346 -1.84928733 0.00000000
v 1.20110977 -1.70158489 0.00000000
v 1.42162169 -1.52218515 0.00000000
v 1.61565148 -1.31442997 0.00000000
v 1.77958474 -1.08218945 0.00000000
v 1.91036770 -0.82978979 0.00000000
v 2.00556413 -0.56193271 0.00000000
v 2.06340069 -0.28360790 0.00000000
v -2.06340069 -0.28360790 -63.08357864
v -2.00556413 -0.56193271 -63.08357864
v -1.91036770 -0.82978979 -63.08357864
v -1.77958474 -1.08218945 -63.08357864
v -1.61565148 -1.31442997 -63.08357864
v -1.42162169 -1.52218515 -63.08357864
v -1.20005089 -1.70008483 -63.10445813
v -0.95822346 -1.84928733 -63.08357864
v -0.69748726 -1.96254105 -63.08357864
v -0.42375818 -2.03923634 -63.08357864
v -0.14213530 -2.07794451 -63.08357864
v 0.14213530 -2.07794451 -63.08357864
v 0.42375818 -2.03923634 -63.08357864
v 0.69691177 -1.96092181 -63.10311992
v 0.95822346 -1.84928733 -63.08357864
v 1.20110977 -1.70158489 -63.08357864
v 1.41981542 -1.52142190 -63.10394126
v 1.61565148 -1.31442997 -63.08357864
v 1.77958474 -1.08218945 -63.08357864
v 1.91036770 -0.82978979 -63.08357864
v 2.00556413 -0.56193271 -63.08357864
v 2.06340069 -0.28360790 -63.08357864
v 1.61184778 -0.45161854 -63.50001888
v 1.32829277 -1.03181751 -63.49961543
v 0.86837644 -1.42798432 -63.50000810
v 0.34057669 -1.63894499 -63.50001416
v -0.11505100 -1.68198613 -63.49828194
v -0.93770388 -1.39848253 -63.49913315
v -1.20647815 -1.15447149 -63.50000666
v -1.52782147 -0.70767473 -63.49913315
v -1.63068319 -0.35953618 -63.50000666
v -1.70700140 -0.22987609 -63.48329345
v -0.34773585 -1.68685263 -63.48338365
v 1.17875235 -1.25681137 -63.48271824
v 1.33775044 -1.08481142 -63.48338364
v 1.47300567 -0.89255045 -63.48338365
v 1.58082164 -0.68366292 -63.48338364
v 1.65918987 -0.46204008 -63.48338365
v 2.04679143 -0.28202394 -63.13960488
v 1.76498161 -1.07411950 -63.13960485
v 1.18421920 -1.67765640 -63.15428932
v -0.95094243 -1.83523560 -63.13823049
v -1.19084483 -1.68704278 -63.14117638
v -1.41081956 -1.51061887 -63.13823050
v -1.60091350 -1.30510587 -63.14034233
v -1.76353617 -1.07627434 -63.13971174
v -1.89467234 -0.82492928 -63.13920031
v -1.98833154 -0.55925215 -63.14034234
v -2.04632415 -0.28457627 -63.13971177
v -1.40096121 -0.89749607 2.20355904
v -1.33516698 -0.93843205 2.18515653
v -1.26413679 -0.95543667 2.15779197
v -1.10158005 -0.93758628 2.07813562
v -0.97065630 -0.93046336 2.01920227
v -0.71982437 -0.98023381 1.94442812
v -0.52525419 -1.08614604 1.93901318
v -0.40084479 -1.20067832 1.97381421
v -0.26629032 -1.40171888 2.06650776
v -0.22700297 -1.50732765 2.12300780
v -0.19529025 -1.57261588 2.15785749
v -0.14531944 -1.62535236 2.18507913
v -0.07668046 -1.66202570 2.20356330
v -0.90385521 -0.93655930 1.99427614
v -0.71938503 -1.24601142 2.07361258
v -0.32886604 -1.29290713 2.01262021
v 1.25084716 -0.95706465 2.15206391
v 1.33493674 -0.93852650 2.18507914
v 1.40101625 -0.89742007 2.20356330
v 0.07677363 -1.66201593 2.20355899
v 0.14512231 -1.62550470 2.18515660
v 0.19536381 -1.57249300 2.15779201
v 0.26118298 -1.42279075 2.07813630
v 0.32047675 -1.30584471 2.01920227
v 0.48899516 -1.11350313 1.94442813
v 0.67800297 -0.99795649 1.93901317
v 0.83939551 -0.94748093 1.97381421
v 1.08077892 -0.93147362 2.06650773
v 0.35915653 -1.25104123 1.99427614
v 0.71938503 -1.24601142 2.07361258
v 0.95525733 -0.93125992 2.01262019
v 1.47421464 -0.78014761 2.20592541
v 1.34596451 -0.46657256 2.06533056
v 1.25005722 -0.28175807 1.98277919
v 1.21256299 -0.15045444 1.94822324
v 1.28793630 -0.36943607 2.01586698
v 0.22700297 1.50732765 2.12300780
v 0.19529025 1.57261588 2.15785749
v 0.14531944 1.62535236 2.18507913
v 0.07668046 1.66202570 2.20356330
v 1.07715419 0.93236193 2.06538128
v 0.86028186 0.94328588 1.98004411
v 0.71982437 0.98023381 1.94442812
v 0.52525419 1.08614604 1.93901318
v 0.40084479 1.20067832 1.97381421
v 0.26629032 1.40171888 2.06650776
v 0.96750032 0.93061358 2.01741548
v 0.71938503 1.24601142 2.07361258
v 0.32886604 1.29290713 2.01262021
v -0.07677363 1.66201593 2.20355899
v -0.14512231 1.62550470 2.18515660
v -0.19536381 1.57249300 2.15779201
v -0.26118298 1.42279075 2.07813630
v -0.32047675 1.30584471 2.01920227
v -0.48899516 1.11350313 1.94442813
v -0.67800297 0.99795649 1.93901317
v -0.83939551 0.94748093 1.97381421
v -1.08077892 0.93147362 2.06650773
v -1.19188255 0.95025416 2.12300780
v -1.26428019 0.95543426 2.15785750
v -1.33493674 0.93852650 2.18507914
v -1.40101625 0.89742007 2.20356330
v -0.35915653 1.25104123 1.99427614
v -0.71938503 1.24601142 2.07361258
v -0.95525733 0.93125992 2.01262019
v -1.47773486 0.76451982 2.20355895
v -1.48028945 0.68707230 2.18515646
v -1.45950058 0.61705625 2.15779185
v -1.41888552 0.55707348 2.12300780
v -1.34596451 0.46657256 2.06533056
v -1.23235999 0.23258614 1.96693510
v -1.45957032 -0.61718149 2.15785740
v -1.48025609 -0.68682537 2.18507898
v -1.47769691 -0.76460549 2.20356335
v -1.28925190 0.37148210 2.01703251
v -1.43750000 0.00000000 2.07287931
v -1.28668071 -0.36655264 2.01475804
v -0.26689454 1.40339793 0.66300000
v -0.32052246 1.30584399 0.66300000
v -0.42465180 1.17317859 0.66300050
v -0.55274349 1.06870241 0.66300000
v -0.70540997 0.98622972 0.66300029
v -0.86004778 0.94329585 0.66300000
v -1.02849188 0.92821802 0.66299978
v -1.23654639 0.95650824 0.66299987
v -1.30078991 0.94958296 0.66300000
v -1.37697670 0.91743808 0.66299676
v -1.45236978 0.83852908 0.66300176
v -1.48301260 0.73377674 0.66299809
v -1.47275792 0.65172563 0.66300000
v -1.44771643 0.59447575 0.66299932
v -1.32529692 0.43734688 0.66300027
v -1.23997212 0.25742791 0.66300017
v -1.20636411 0.10185970 0.66300000
v -1.44617359 -0.59183136 0.66299964
v -1.48136530 -0.68088797 0.66300177
v -1.47375202 -0.78692256 0.66299932
v -1.41837140 -0.88284555 0.66299915
v -1.33035425 -0.94245382 0.66300175
v -1.23921411 -0.95651954 0.66299984
v -1.08193098 -0.93283642 0.66300000
v -0.97063284 -0.93050258 0.66300000
v -0.86004778 -0.94329585 0.66300000
v -0.75222226 -0.97097946 0.66300000
v -0.64915170 -1.01304111 0.66300000
v -0.50139503 -1.10401779 0.66300029
v -0.38689428 -1.21647114 0.66300000
v -0.28961439 -1.35480921 0.66299978
v -0.21008725 -1.54913470 0.66299980
v -0.17196801 -1.60130859 0.66300000
v -0.10603631 -1.65121584 0.66299757
v -0.00000264 -1.67705366 0.66300211
v 0.10603699 -1.65121495 0.66299761
v 0.19878937 -1.57268041 0.66300011
v 0.26689454 -1.40339793 0.66300000
v 0.32052246 -1.30584399 0.66300000
v 0.42465180 -1.17317859 0.66300058
v 0.55274349 -1.06870241 0.66300000
v 0.64915170 -1.01304111 0.66300000
v 0.81138666 -0.95199270 0.66299992
v 1.02849188 -0.92821802 0.66299978
v 1.23542846 -0.95643631 0.66299981
v 1.32756572 -0.94339644 0.66300112
v 1.41354844 -0.88794282 0.66300052
v 1.45887156 -0.82183903 0.66300000
v 1.47645175 -0.77162125 0.66300000
v 1.34882553 -0.47056151 0.66300000
v 1.26298198 -0.31906947 0.66300013
v 1.21700401 -0.16595386 0.66300000
v 1.20189518 -0.05566131 0.66300000
v 1.20189518 0.05566131 0.66300000
v 1.21700401 0.16595386 0.66300000
v 1.24694205 0.27317530 0.66300000
v 1.31896994 0.42794237 0.66299946
v 1.44783556 0.59430452 0.66299953
v 1.48186224 0.68857507 0.66299793
v 1.08193098 0.93283642 0.66300000
v 0.90819830 0.93425382 0.66299945
v 0.69368832 0.99084611 0.66300093
v 0.55274349 1.06870241 0.66300000
v 0.41875650 1.17867784 0.66299990
v 0.28961439 1.35480921 0.66299978
v 0.21008725 1.54913470 0.66299976
v 0.15101624 1.62334408 0.66300118
v 0.08077113 1.66084340 0.66300000
v 0.00000264 1.67705366 0.66300176
v -0.10603699 1.65121495 0.66299809
v -0.19878937 1.57268041 0.66300014
v 2.06002501 -0.28314392 -63.10946055
v 2.00228306 -0.56101340 -63.10946055
v 1.98932526 -0.55810189 -63.13960487
v 1.90724238 -0.82843227 -63.10946055
v 1.89480172 -0.82378346 -63.13960485
v 1.77667337 -1.08041901 -63.10946055
v 1.61300830 -1.31227959 -63.10946055
v 1.60228323 -1.30444672 -63.13960485
v 1.40973732 -1.51047456 -63.13960487
v 1.20097083 -1.69323150 -63.12219027
v 0.95665583 -1.84626194 -63.10946055
v 0.94993928 -1.83480464 -63.13960487
v 0.69032658 -1.94775275 -63.13920033
v 0.42306492 -2.03590019 -63.10946055
v 0.41821011 -2.02270255 -63.14034235
v 0.14190277 -2.07454504 -63.10946055
v 0.14030686 -2.06136041 -63.13960485
v -0.14190277 -2.07454504 -63.10946055
v -0.14168849 -2.06126591 -63.13960485
v -0.42306492 -2.03590019 -63.10946055
v -0.42104447 -2.02277391 -63.13960487
v -0.69634618 -1.95933037 -63.10946055
v -0.69255719 -1.94660147 -63.13960487
v -0.95665583 -1.84626194 -63.10946055
v -1.41929594 -1.51969488 -63.10946055
v -1.61300830 -1.31227959 -63.10946055
v -1.77667337 -1.08041901 -63.10946055
v -1.90724238 -0.82843227 -63.10946055
v -2.00228306 -0.56101340 -63.10946055
v -2.06002501 -0.28314392 -63.10946055
v -1.65654245 -0.36095806 -63.49677835
v -1.65980084 -0.46017167 -63.48329346
v -1.58168133 -0.68189514 -63.48329345
v -1.37559341 -0.99104307 -63.49677835
v -1.47409808 -0.89091615 -63.48329346
v -1.33905519 -1.08334112 -63.48329345
v -1.15505776 -1.23676487 -63.49659258
v -1.17689512 -1.25869329 -63.48288641
v -0.99346103 -1.40579589 -63.48386124
v -0.66040364 -1.56150268 -63.49677835
v -0.79366128 -1.52954001 -63.48288642
v -0.57419005 -1.62379120 -63.48338364
v -0.34984766 -1.64724541 -63.49905156
v -0.11386008 -1.71818021 -63.48369745
v 0.11548394 -1.68831550 -63.49659258
v 0.12121301 -1.71881917 -63.48271824
v 0.45682539 -1.63043139 -63.49715007
v 0.35309668 -1.68573864 -63.48338365
v 0.58009114 -1.62129628 -63.48369745
v 0.79595734 -1.52822896 -63.48271826
v 0.86501105 -1.45912228 -63.49641719
v 0.99600026 -1.40466751 -63.48369745
v 1.15164185 -1.23310733 -63.49816415
v 1.51306064 -0.76406737 -63.49692627
v 1.62950694 -0.45656643 -63.49659258
v 1.67649874 -0.23042945 -63.49659258
v 1.70640465 -0.23084741 -63.48369745
v -3.87358205 -0.53241160 0.01339746
v -3.90984367 -0.53739564 0.05000000
v -3.76500659 -1.05490538 0.01339746
v -3.80025181 -1.06478062 0.05000000
v -3.58629619 -1.55774826 0.01339746
v -3.61986845 -1.57233075 0.05000000
v -3.34077987 -2.03157324 0.01339746
v -3.37205379 -2.05059134 0.05000000
v -3.03303115 -2.46755386 0.01339746
v -3.06142415 -2.49065328 0.05000000
v -2.66878279 -2.85756862 0.01339746
v -2.69376597 -2.88431907 0.05000000
v -2.25482006 -3.19435228 0.01339746
v -2.27592802 -3.22425546 0.05000000
v -1.79885430 -3.47163120 0.01339746
v -1.81569385 -3.50413006 0.05000000
v -1.30937928 -3.68424021 0.01339746
v -1.32163673 -3.71872935 0.05000000
v -0.79551301 -3.82821878 0.01339746
v -0.80296002 -3.86405575 0.05000000
v -0.26682784 -3.90088489 0.01339746
v -0.26932568 -3.93740210 0.05000000
v 0.26682784 -3.90088489 0.01339746
v 0.26932568 -3.93740210 0.05000000
v 0.79551301 -3.82821878 0.01339746
v 0.80296002 -3.86405575 0.05000000
v 1.30937928 -3.68424021 0.01339746
v 1.32163673 -3.71872935 0.05000000
v 1.79885430 -3.47163120 0.01339746
v 1.81569385 -3.50413006 0.05000000
v 2.25482006 -3.19435228 0.01339746
v 2.27592802 -3.22425546 0.05000000
v 2.66878279 -2.85756862 0.01339746
v 2.69376597 -2.88431907 0.05000000
v 3.03303115 -2.46755386 0.01339746
v 3.06142415 -2.49065328 0.05000000
v 3.34077987 -2.03157324 0.01339746
v 3.37205379 -2.05059134 0.05000000
v 3.58629619 -1.55774826 0.01339746
v 3.61986845 -1.57233075 0.05000000
v 3.76500659 -1.05490538 0.01339746
v 3.80025181 -1.06478062 0.05000000
v 3.87358205 -0.53241160 0.01339746
v 3.90984367 -0.53739564 0.05000000
v 3.92089415 -0.51619551 0.33872895
v 3.92480605 -0.51671052 0.32292316
v 3.14038460 -2.40902814 0.33144824
v 2.80034161 -2.79694286 0.33282559
v 2.28288885 -3.23411669 0.32292316
v 1.97933652 -3.42831142 0.32292316
v 1.82124706 -3.51484728 0.32292316
v 1.02457998 -3.82378453 0.32292316
v 0.80774158 -3.87772887 0.31404623
v 0.51671052 -3.92480605 0.32292316
v 0.27248879 -3.95158974 0.31398294
v 0.00000000 -3.95851902 0.33209901
v -0.51198832 -3.92523801 0.33264977
v -0.80541583 -3.87587379 0.32292316
v -1.51174599 -3.65840521 0.33236222
v -1.98229160 -3.42604879 0.33344271
v -2.40988746 -3.14062648 0.32292316
v -2.70200473 -2.89314063 0.32292316
v -3.07131383 -2.49847710 0.32060616
v -3.38273215 -2.05729594 0.32008314
v -3.63122973 -1.57789437 0.31923694
v -3.81226366 -1.06904380 0.31795319
v 2.05297718 -0.27436568 2.20911635
v 2.02917950 -0.54345628 2.20053599
v 1.81939376 -1.04921865 2.20073337
v 1.66715695 -1.27666130 2.20088131
v 1.47106358 -1.49084777 2.20357766
v 1.40770356 -1.51453771 2.20951388
v 1.29030469 -1.64969271 2.20422852
v 1.02606360 -1.82391959 2.20491520
v 0.89545006 -1.88045064 2.20763270
v 0.69461038 -1.95444631 2.20866925
v 0.60164973 -2.00326485 2.20452870
v 0.26413262 -2.07862816 2.20375629
v 0.08795995 -2.07833787 2.20799070
v -0.26365275 -2.07981003 2.20338446
v -0.19084090 -2.07141583 2.20798370
v -0.52942125 -2.02820711 2.20338517
v -0.46575128 -2.02735329 2.20797908
v -0.79231131 -1.93929054 2.20382135
v -1.06066947 -1.80602333 2.20424343
v -1.22032093 -1.68433059 2.20799213
v -1.48017692 -1.49425390 2.19933205
v -1.60864079 -1.31172028 2.20869515
v -1.81737083 -1.05819984 2.19939347
v -1.89337261 -0.82268256 2.20974441
v -1.94100932 -0.80995317 2.19929817
v -2.03073330 -0.54767685 2.19923464
v -2.04484283 -0.28100819 2.20976882
v -2.08524374 -0.27606160 2.19913335
f 14 13 15
f 15 6 14
f 15 16 6
f 16 15 2
f 7 16 17
f 18 3 17
f 19 3 18
f 21 20 22
f 23 21 22
f 24 23 22
f 24 22 25
f 26 24 25
f 42 41 60
f 64 44 63
f 65 45 64
f 66 46 65
f 80 53 33
f 37 32 31
f 38 32 37
f 39 83 32
f 39 32 38
f 61 55 54
f 61 54 60
f 61 60 41
f 62 41 40
f 62 56 55
f 62 40 56
f 62 55 61
f 62 61 41
f 63 44 43
f 64 45 44
f 65 46 45
f 66 47 46
f 67 47 66
f 67 68 47
f 68 67 59
f 59 69 68
f 69 59 58
f 58 70 69
f 70 58 57
f 57 71 70
f 71 57 72
f 72 48 71
f 48 72 73
f 73 74 48
f 74 73 36
f 36 49 74
f 49 36 75
f 75 50 49
f 50 75 76
f 76 51 50
f 51 76 35
f 77 51 35
f 77 52 51
f 34 77 35
f 34 52 77
f 78 53 52
f 78 52 34
f 79 34 33
f 79 33 53
f 79 78 34
f 79 53 78
f 83 82 32
f 113 111 93
f 114 111 113
f 114 112 111
f 114 96 112
f 115 93 92
f 115 113 93
f 116 114 113
f 116 97 114
f 116 113 115
f 117 115 92
f 118 115 117
f 118 97 116
f 118 116 115
f 119 118 117
f 119 92 91
f 119 117 92
f 120 98 118
f 120 118 119
f 121 119 91
f 122 98 120
f 122 120 119
f 122 119 121
f 123 121 91
f 99 122 121
f 99 121 123
f 124 123 90
f 125 100 99
f 125 123 124
f 125 99 123
f 126 125 124
f 126 124 90
f 127 125 126
f 127 100 125
f 128 90 89
f 128 126 90
f 128 127 126
f 129 101 127
f 129 127 128
f 130 128 89
f 131 128 130
f 131 129 128
f 131 101 129
f 132 130 89
f 132 131 130
f 133 102 131
f 133 131 132
f 134 132 88
f 135 133 132
f 135 132 134
f 135 102 133
f 136 134 88
f 137 134 136
f 137 103 135
f 137 135 134
f 138 136 88
f 139 136 138
f 139 137 136
f 139 103 137
f 140 138 87
f 141 104 139
f 141 139 138
f 141 138 140
f 142 140 87
f 142 141 140
f 143 104 141
f 143 141 142
f 144 87 86
f 144 142 87
f 105 143 142
f 105 142 144
f 145 144 86
f 106 144 145
f 106 105 144
f 146 145 86
f 107 106 145
f 107 145 146
f 147 146 85
f 108 107 146
f 108 146 147
f 148 147 85
f 109 108 147
f 109 147 148
f 149 85 84
f 149 148 85
f 149 109 148
f 149 84 94
f 150 94 95
f 150 149 94
f 150 110 109
f 150 95 110
f 150 109 149
f 154 161 155
f 163 161 154
f 163 162 161
f 164 163 154
f 165 154 153
f 165 164 154
f 152 165 153
f 167 166 165
f 167 165 152
f 168 167 152
f 168 152 169
f 170 157 168
f 170 168 169
f 171 170 169
f 172 169 173
f 172 171 169
f 174 172 173
f 158 174 173
f 151 158 173
f 159 158 151
f 175 159 151
f 175 151 177
f 178 176 175
f 178 175 177
f 179 178 177
f 180 179 182
f 160 181 180
f 160 180 182
f 184 160 182
f 184 183 156
f 184 182 183
f 219 218 207
f 220 218 219
f 220 209 218
f 221 207 206
f 221 219 207
f 222 220 219
f 222 219 221
f 223 206 205
f 223 221 206
f 224 221 223
f 224 222 221
f 225 204 203
f 225 205 204
f 225 223 205
f 210 224 223
f 210 223 225
f 226 225 203
f 227 210 225
f 227 225 226
f 228 203 202
f 228 226 203
f 229 227 226
f 229 226 228
f 230 201 200
f 230 202 201
f 230 228 202
f 230 211 229
f 230 229 228
f 231 230 200
f 232 211 230
f 232 230 231
f 233 200 199
f 233 231 200
f 234 232 231
f 234 231 233
f 235 199 198
f 235 233 199
f 236 233 235
f 236 234 233
f 237 197 196
f 237 198 197
f 237 235 198
f 238 236 235
f 238 235 237
f 239 237 196
f 240 238 237
f 240 237 239
f 241 195 194
f 241 196 195
f 241 239 196
f 212 240 239
f 212 239 241
f 242 241 194
f 242 212 241
f 243 212 242
f 244 193 192
f 244 194 193
f 244 242 194
f 245 242 244
f 245 243 242
f 246 244 192
f 246 245 244
f 247 245 246
f 248 192 191
f 248 246 192
f 249 247 246
f 249 246 248
f 190 248 191
f 190 249 248
f 213 249 190
f 250 189 188
f 250 190 189
f 214 213 190
f 214 190 250
f 251 214 250
f 251 250 188
f 215 214 251
f 252 188 187
f 252 251 188
f 216 215 251
f 216 251 252
f 253 186 185
f 253 187 186
f 253 252 187
f 253 216 252
f 253 185 208
f 253 217 216
f 253 208 217
f 260 698 256
f 260 261 698
f 680 256 255
f 680 260 256
f 259 680 255
f 258 255 254
f 258 259 255
f 257 258 254
f 267 269 739
f 268 270 269
f 268 269 267
f 263 271 270
f 263 270 268
f 264 272 271
f 264 271 263
f 265 272 264
f 266 262 272
f 266 272 265
f 276 273 277
f 276 277 275
f 274 273 276
f 280 285 284
f 281 285 280
f 279 278 282
f 283 279 282
f 267 279 283
f 268 267 283
f 263 268 283
f 282 286 285
f 282 287 286
f 282 278 287
f 282 285 281
f 217 161 162
f 217 208 161
f 216 162 163
f 216 217 162
f 215 163 164
f 215 216 163
f 214 164 165
f 214 215 164
f 213 165 166
f 213 214 165
f 249 166 167
f 249 213 166
f 247 167 168
f 247 249 167
f 245 168 157
f 245 247 168
f 243 157 170
f 243 245 157
f 212 170 171
f 212 243 170
f 240 171 172
f 240 212 171
f 238 172 174
f 238 240 172
f 236 238 174
f 236 174 158
f 234 236 158
f 234 158 159
f 232 234 159
f 232 159 175
f 211 232 175
f 211 175 176
f 211 176 178
f 229 211 178
f 227 178 179
f 227 179 180
f 227 229 178
f 210 227 180
f 224 180 181
f 224 210 180
f 222 181 160
f 222 160 184
f 222 224 181
f 220 222 184
f 209 184 156
f 209 220 184
f 289 185 186
f 290 186 187
f 290 289 186
f 291 187 188
f 291 290 187
f 292 291 188
f 293 188 189
f 293 292 188
f 294 189 190
f 294 190 191
f 294 293 189
f 295 294 191
f 296 191 192
f 296 295 191
f 297 192 193
f 297 296 192
f 298 193 194
f 298 297 193
f 299 194 195
f 299 298 194
f 300 195 196
f 300 299 195
f 301 300 196
f 301 196 197
f 302 301 197
f 302 197 198
f 303 302 198
f 303 198 199
f 304 303 199
f 304 199 200
f 305 304 200
f 305 200 201
f 306 201 202
f 306 305 201
f 307 202 203
f 307 306 202
f 308 203 204
f 308 307 203
f 309 204 205
f 309 308 204
f 310 205 206
f 310 309 205
f 311 206 207
f 311 310 206
f 288 207 218
f 288 311 207
f 83 96 114
f 83 114 97
f 83 39 96
f 82 97 118
f 82 83 97
f 81 82 118
f 80 118 98
f 80 81 118
f 53 98 122
f 53 80 98
f 52 122 99
f 52 53 122
f 51 99 100
f 51 52 99
f 50 100 127
f 50 51 100
f 49 127 101
f 49 50 127
f 74 101 131
f 74 49 101
f 48 131 102
f 48 74 131
f 71 48 102
f 71 102 135
f 71 135 103
f 70 71 103
f 69 70 103
f 69 103 139
f 69 139 104
f 68 69 104
f 47 104 143
f 47 68 104
f 46 143 105
f 46 105 106
f 46 47 143
f 45 46 106
f 44 106 107
f 44 45 106
f 43 107 108
f 43 108 109
f 43 44 107
f 42 43 109
f 41 109 110
f 41 42 109
f 40 110 95
f 40 41 110
f 865 864 320
f 888 323 324
f 331 17 3
f 57 328 72
f 332 319 865
f 332 320 321
f 332 865 320
f 333 321 322
f 333 332 321
f 334 868 867
f 334 867 319
f 334 319 332
f 334 332 333
f 335 322 323
f 335 888 890
f 335 890 892
f 335 892 325
f 335 333 322
f 335 323 888
f 336 334 333
f 336 333 335
f 337 317 318
f 337 318 868
f 337 334 336
f 337 868 334
f 338 336 335
f 338 325 326
f 338 326 895
f 338 335 325
f 339 337 336
f 339 336 338
f 340 895 327
f 340 338 895
f 341 317 337
f 341 315 316
f 341 316 317
f 341 337 339
f 342 327 897
f 342 338 340
f 342 340 327
f 342 339 338
f 343 341 339
f 343 339 342
f 344 897 899
f 344 899 900
f 344 342 897
f 345 314 315
f 345 341 343
f 345 315 341
f 346 342 344
f 346 343 342
f 347 900 902
f 347 902 8
f 347 344 900
f 348 313 314
f 348 343 346
f 348 345 343
f 348 314 345
f 349 344 347
f 349 346 344
f 350 8 9
f 350 9 5
f 350 347 8
f 351 12 13
f 352 17 331
f 352 6 16
f 352 16 7
f 352 7 17
f 352 331 330
f 353 348 346
f 353 312 313
f 353 346 349
f 353 313 348
f 354 349 347
f 354 347 350
f 355 5 10
f 355 10 11
f 355 350 5
f 356 351 13
f 356 13 14
f 356 14 6
f 356 6 352
f 357 352 330
f 357 330 329
f 358 54 312
f 358 312 353
f 358 353 349
f 358 349 354
f 359 354 350
f 359 350 355
f 360 11 12
f 360 351 356
f 360 12 351
f 360 355 11
f 361 352 357
f 361 356 352
f 362 57 58
f 362 329 328
f 362 328 57
f 362 357 329
f 363 60 54
f 363 54 358
f 363 358 354
f 363 354 359
f 364 359 355
f 364 355 360
f 365 356 361
f 365 360 356
f 366 58 59
f 366 357 362
f 366 59 67
f 366 362 58
f 366 361 357
f 367 363 359
f 367 60 363
f 367 42 60
f 367 359 364
f 368 364 360
f 368 360 365
f 369 67 66
f 369 66 65
f 369 361 366
f 369 366 67
f 369 365 361
f 370 43 42
f 370 42 367
f 370 367 364
f 370 364 368
f 371 65 64
f 371 64 63
f 371 368 365
f 371 365 369
f 371 369 65
f 372 63 43
f 372 371 63
f 372 43 370
f 372 370 368
f 372 368 371
f 394 880 380
f 395 394 380
f 395 380 381
f 394 379 880
f 396 395 381
f 396 381 382
f 393 379 394
f 393 883 379
f 397 396 382
f 397 382 383
f 393 378 883
f 398 397 383
f 398 383 875
f 392 378 393
f 399 398 875
f 399 875 1
f 391 378 392
f 391 887 378
f 280 399 1
f 390 887 391
f 390 889 887
f 281 1 30
f 281 280 1
f 389 891 889
f 389 889 390
f 282 30 29
f 282 281 30
f 388 377 891
f 388 891 389
f 283 29 28
f 283 282 29
f 376 377 388
f 263 28 27
f 263 283 28
f 387 376 388
f 894 376 387
f 400 263 27
f 4 400 27
f 375 894 387
f 401 400 4
f 386 375 387
f 26 401 4
f 896 375 386
f 385 896 386
f 25 401 26
f 402 401 25
f 374 896 385
f 374 385 384
f 22 402 25
f 898 374 384
f 898 384 417
f 22 403 402
f 373 898 417
f 373 417 416
f 20 403 22
f 20 404 403
f 901 373 416
f 19 404 20
f 19 405 404
f 8 901 416
f 8 415 414
f 8 416 415
f 18 405 19
f 18 406 405
f 9 8 414
f 17 406 18
f 17 407 406
f 5 9 414
f 5 414 413
f 16 407 17
f 16 408 407
f 10 5 413
f 10 413 412
f 2 408 16
f 2 409 408
f 11 10 412
f 11 412 411
f 15 409 2
f 12 11 411
f 12 411 410
f 13 409 15
f 13 12 410
f 13 410 409
f 320 864 418
f 324 323 886
f 331 3 19
f 72 328 73
f 432 423 424
f 433 856 855
f 433 855 423
f 433 423 432
f 434 424 425
f 434 432 424
f 435 421 422
f 435 422 856
f 435 856 433
f 436 433 432
f 436 432 434
f 437 425 426
f 437 434 425
f 438 419 420
f 438 420 421
f 438 421 435
f 439 433 436
f 439 435 433
f 440 436 434
f 440 434 437
f 441 426 31
f 441 437 426
f 442 321 320
f 442 418 419
f 442 419 438
f 442 320 418
f 443 438 435
f 443 435 439
f 444 436 440
f 444 877 878
f 444 439 436
f 445 437 441
f 445 440 437
f 446 31 32
f 446 441 31
f 447 322 321
f 447 438 443
f 447 321 442
f 447 442 438
f 448 443 439
f 448 879 429
f 448 429 882
f 448 439 444
f 449 440 445
f 449 876 428
f 449 428 877
f 449 877 444
f 449 444 440
f 450 445 441
f 450 441 446
f 451 32 82
f 451 446 32
f 452 323 322
f 452 448 882
f 452 886 323
f 452 882 430
f 452 430 431
f 452 431 886
f 452 322 447
f 452 443 448
f 452 447 443
f 453 878 879
f 453 448 444
f 453 444 878
f 453 879 448
f 454 445 450
f 454 449 445
f 454 1 427
f 454 427 876
f 454 876 449
f 455 450 446
f 455 446 451
f 456 82 81
f 456 451 82
f 457 29 30
f 457 30 1
f 457 1 454
f 457 450 455
f 457 454 450
f 458 451 456
f 458 455 451
f 459 456 81
f 459 81 80
f 460 27 28
f 460 28 29
f 460 455 458
f 460 29 457
f 460 457 455
f 461 456 459
f 461 458 456
f 462 458 461
f 462 27 460
f 462 4 27
f 462 460 458
f 463 461 459
f 463 80 33
f 463 33 34
f 463 459 80
f 464 4 462
f 464 26 4
f 465 461 463
f 465 462 461
f 466 464 462
f 466 26 464
f 466 462 465
f 466 23 24
f 466 24 26
f 467 463 34
f 467 34 35
f 467 35 76
f 467 465 463
f 468 465 467
f 468 466 465
f 469 23 466
f 469 466 468
f 469 330 331
f 469 19 20
f 469 20 21
f 469 21 23
f 469 331 19
f 470 468 467
f 470 467 76
f 470 76 75
f 470 75 36
f 471 329 330
f 471 468 470
f 471 469 468
f 471 330 469
f 472 470 36
f 472 36 73
f 472 328 329
f 472 471 470
f 472 329 471
f 472 73 328
f 510 40 95
f 510 95 473
f 874 473 474
f 874 510 473
f 873 474 475
f 873 874 474
f 872 475 476
f 872 873 475
f 871 476 477
f 871 872 476
f 509 477 478
f 509 871 477
f 508 478 479
f 508 509 478
f 507 479 480
f 507 508 479
f 506 480 481
f 506 507 480
f 505 481 482
f 505 506 481
f 504 482 483
f 504 505 482
f 863 504 483
f 863 483 484
f 861 863 484
f 861 484 485
f 503 861 485
f 503 485 486
f 502 503 486
f 502 486 487
f 501 502 487
f 501 487 488
f 500 488 489
f 500 501 488
f 499 500 489
f 499 489 490
f 498 490 491
f 498 499 490
f 497 491 492
f 497 498 491
f 496 492 493
f 496 497 492
f 495 493 494
f 495 496 493
f 39 495 494
f 39 494 96
f 538 527 528
f 537 538 528
f 537 528 529
f 539 527 538
f 539 526 527
f 536 537 529
f 536 529 530
f 540 526 539
f 540 525 526
f 535 536 530
f 535 530 531
f 541 525 540
f 541 523 524
f 541 524 525
f 534 535 531
f 534 531 532
f 542 523 541
f 533 534 532
f 533 532 84
f 543 523 542
f 543 522 523
f 288 533 84
f 544 521 522
f 544 522 543
f 311 288 84
f 545 519 520
f 545 520 521
f 545 521 544
f 310 84 85
f 310 311 84
f 546 518 519
f 546 519 545
f 309 85 146
f 309 310 85
f 547 517 518
f 547 518 546
f 308 309 146
f 548 517 547
f 307 146 86
f 307 308 146
f 516 517 548
f 549 516 548
f 86 306 307
f 515 549 550
f 515 516 549
f 87 305 306
f 87 306 86
f 514 550 551
f 514 515 550
f 87 304 305
f 513 551 552
f 513 514 551
f 138 304 87
f 138 303 304
f 512 552 553
f 512 513 552
f 88 303 138
f 88 301 302
f 88 302 303
f 511 512 553
f 511 553 554
f 88 300 301
f 93 511 554
f 93 554 289
f 132 300 88
f 93 289 290
f 89 300 132
f 89 299 300
f 92 93 290
f 92 290 291
f 89 297 298
f 89 298 299
f 92 291 292
f 90 297 89
f 90 296 297
f 91 92 292
f 91 292 293
f 90 295 296
f 91 293 294
f 123 295 90
f 123 91 294
f 123 294 295
f 288 218 555
f 533 555 556
f 533 288 555
f 534 533 556
f 535 556 557
f 535 534 556
f 536 557 558
f 536 535 557
f 537 558 559
f 537 536 558
f 538 559 560
f 538 537 559
f 539 560 561
f 539 561 562
f 539 538 560
f 540 562 563
f 540 539 562
f 541 563 564
f 541 540 563
f 542 564 565
f 542 541 564
f 543 565 566
f 543 542 565
f 544 543 566
f 544 566 567
f 545 544 567
f 546 545 567
f 546 567 568
f 546 568 569
f 547 546 569
f 547 569 570
f 548 547 570
f 549 570 571
f 549 571 572
f 549 548 570
f 550 572 573
f 550 549 572
f 551 573 574
f 551 550 573
f 552 574 575
f 552 551 574
f 553 575 576
f 553 552 575
f 554 553 576
f 289 576 185
f 289 554 576
f 580 581 794
f 179 183 182
f 177 183 179
f 578 804 579
f 578 582 583
f 578 583 584
f 578 794 582
f 578 580 794
f 578 579 580
f 155 577 578
f 169 177 151
f 169 151 173
f 152 177 169
f 152 155 578
f 152 154 155
f 152 153 154
f 152 584 585
f 152 585 183
f 152 183 177
f 152 578 584
f 209 156 586
f 603 586 783
f 603 209 586
f 602 783 784
f 602 603 783
f 601 784 786
f 601 602 784
f 600 786 787
f 600 601 786
f 599 787 789
f 599 600 787
f 598 599 789
f 597 789 790
f 597 790 792
f 597 598 789
f 596 597 792
f 774 792 793
f 774 596 792
f 772 793 587
f 772 774 793
f 770 587 795
f 770 772 587
f 768 795 797
f 768 770 795
f 766 768 797
f 766 797 799
f 764 766 799
f 764 799 800
f 763 764 800
f 763 800 801
f 595 801 803
f 595 763 801
f 760 595 803
f 760 803 588
f 759 588 589
f 759 760 588
f 594 589 590
f 594 759 589
f 756 590 591
f 756 594 590
f 754 591 592
f 754 756 591
f 593 592 808
f 593 754 592
f 208 808 161
f 208 593 808
f 385 604 384
f 385 605 604
f 385 606 605
f 386 607 606
f 386 606 385
f 614 613 388
f 389 614 388
f 615 614 389
f 616 615 389
f 390 616 389
f 617 608 607
f 617 386 387
f 617 607 386
f 618 609 617
f 618 610 609
f 618 611 610
f 618 387 388
f 618 617 387
f 619 613 612
f 619 618 388
f 619 611 618
f 619 388 613
f 391 623 390
f 391 624 623
f 391 625 624
f 392 626 625
f 392 625 391
f 395 620 394
f 621 620 395
f 622 621 395
f 396 622 395
f 632 392 393
f 632 627 626
f 632 626 392
f 633 393 394
f 633 628 632
f 633 629 628
f 633 630 629
f 633 632 393
f 634 620 631
f 634 633 394
f 634 630 633
f 634 394 620
f 397 275 635
f 397 276 275
f 398 274 276
f 398 276 397
f 280 284 638
f 280 638 399
f 397 635 396
f 639 398 399
f 639 636 274
f 639 638 637
f 639 399 638
f 639 274 398
f 400 264 263
f 400 265 264
f 400 266 265
f 401 266 400
f 641 640 403
f 404 641 403
f 642 641 404
f 643 642 404
f 405 643 404
f 650 644 266
f 650 266 401
f 651 401 402
f 651 646 645
f 651 647 646
f 651 648 647
f 651 645 650
f 651 650 401
f 652 402 403
f 652 640 649
f 652 651 402
f 652 648 651
f 652 403 640
f 406 653 405
f 406 654 653
f 406 655 654
f 407 656 655
f 407 655 406
f 663 662 410
f 411 663 410
f 664 663 411
f 665 664 411
f 412 665 411
f 666 657 656
f 666 407 408
f 666 656 407
f 667 658 666
f 667 659 658
f 667 660 659
f 667 408 409
f 667 666 408
f 668 662 661
f 668 409 410
f 668 667 409
f 668 660 667
f 668 410 662
f 413 669 412
f 413 670 669
f 413 671 670
f 414 672 671
f 414 671 413
f 675 261 416
f 417 675 416
f 676 675 417
f 677 676 417
f 384 677 417
f 678 673 672
f 678 672 414
f 679 257 674
f 679 258 257
f 679 259 258
f 679 414 415
f 679 415 416
f 679 674 678
f 679 678 414
f 680 261 260
f 680 679 416
f 680 416 261
f 680 259 679
f 703 700 701
f 703 701 702
f 699 700 703
f 698 699 703
f 256 703 704
f 256 698 703
f 256 704 705
f 255 705 706
f 255 256 705
f 255 706 707
f 717 712 713
f 717 713 714
f 717 715 716
f 717 714 715
f 254 707 708
f 254 255 707
f 254 708 709
f 718 712 717
f 718 711 712
f 719 711 718
f 720 711 719
f 720 710 711
f 720 709 710
f 721 254 709
f 721 709 720
f 722 254 721
f 689 690 691
f 688 689 691
f 688 691 692
f 688 693 694
f 688 694 695
f 688 692 693
f 687 688 695
f 687 695 696
f 686 687 696
f 685 696 697
f 685 686 696
f 685 697 254
f 684 685 254
f 273 729 277
f 273 727 728
f 273 728 729
f 273 726 727
f 273 725 726
f 730 724 725
f 730 725 273
f 731 724 730
f 731 723 724
f 732 723 731
f 733 723 732
f 733 254 722
f 733 722 723
f 734 254 733
f 743 683 684
f 743 744 683
f 743 684 254
f 745 682 683
f 745 683 744
f 742 743 254
f 742 254 734
f 745 681 682
f 749 750 751
f 742 734 735
f 746 751 681
f 746 681 745
f 747 748 749
f 747 749 751
f 747 751 746
f 741 742 735
f 741 735 736
f 741 736 737
f 740 741 737
f 262 740 737
f 262 737 738
f 270 738 739
f 270 739 269
f 271 262 738
f 271 272 262
f 271 738 270
f 612 613 712
f 612 712 711
f 619 711 710
f 619 612 711
f 611 710 709
f 611 619 710
f 610 611 709
f 610 709 708
f 609 610 708
f 609 708 707
f 609 707 706
f 617 706 705
f 617 609 706
f 608 705 704
f 608 617 705
f 607 704 703
f 607 608 704
f 614 713 712
f 614 712 613
f 615 714 713
f 615 713 614
f 616 715 714
f 616 714 615
f 390 715 616
f 623 716 715
f 623 715 390
f 624 717 716
f 624 716 623
f 625 717 624
f 626 717 625
f 631 620 725
f 631 725 724
f 634 724 723
f 634 631 724
f 630 634 723
f 629 723 722
f 629 630 723
f 629 722 721
f 628 629 721
f 628 721 720
f 632 720 719
f 632 628 720
f 627 719 718
f 627 632 719
f 626 718 717
f 626 627 718
f 620 726 725
f 621 726 620
f 622 727 726
f 622 726 621
f 396 728 727
f 396 727 622
f 635 729 728
f 635 728 396
f 275 277 729
f 275 729 635
f 287 278 738
f 287 738 737
f 286 737 736
f 286 287 737
f 285 736 735
f 285 286 736
f 284 735 734
f 284 285 735
f 284 734 733
f 638 733 732
f 638 284 733
f 638 732 731
f 637 638 731
f 639 731 730
f 639 637 731
f 636 730 273
f 636 639 730
f 274 636 273
f 279 739 738
f 279 738 278
f 267 739 279
f 649 640 746
f 649 746 745
f 652 745 744
f 652 649 745
f 648 652 744
f 647 744 743
f 647 648 744
f 647 743 742
f 646 647 742
f 646 742 741
f 645 646 741
f 650 741 740
f 650 645 741
f 644 740 262
f 644 650 740
f 266 644 262
f 641 747 746
f 641 746 640
f 642 747 641
f 643 748 747
f 643 749 748
f 643 747 642
f 405 749 643
f 653 750 749
f 653 749 405
f 654 751 750
f 654 750 653
f 655 751 654
f 656 751 655
f 661 662 688
f 661 688 687
f 668 687 686
f 668 661 687
f 660 686 685
f 660 668 686
f 659 660 685
f 659 685 684
f 658 659 684
f 658 684 683
f 666 683 682
f 666 658 683
f 657 682 681
f 657 666 682
f 656 681 751
f 656 657 681
f 663 689 688
f 663 688 662
f 664 690 689
f 664 689 663
f 665 691 690
f 665 690 664
f 412 691 665
f 669 692 691
f 669 691 412
f 670 693 692
f 670 692 669
f 671 694 693
f 671 693 670
f 672 694 671
f 257 254 697
f 674 697 696
f 674 257 697
f 678 696 695
f 678 674 696
f 673 695 694
f 673 678 695
f 672 673 694
f 675 699 698
f 675 698 261
f 676 699 675
f 677 700 699
f 677 699 676
f 384 701 700
f 384 700 677
f 604 702 701
f 604 701 384
f 605 702 604
f 606 703 702
f 606 702 605
f 607 703 606
f 752 185 576
f 593 208 185
f 593 185 752
f 753 576 575
f 753 752 576
f 754 593 752
f 754 752 753
f 755 575 574
f 755 753 575
f 756 754 753
f 756 753 755
f 757 574 573
f 757 755 574
f 594 756 755
f 594 755 757
f 758 573 572
f 758 757 573
f 759 594 757
f 759 757 758
f 571 758 572
f 760 759 758
f 760 758 571
f 761 571 570
f 761 595 760
f 761 760 571
f 762 570 569
f 762 761 570
f 763 761 762
f 763 595 761
f 568 762 569
f 764 763 762
f 764 762 568
f 765 568 567
f 765 764 568
f 766 764 765
f 767 567 566
f 767 765 567
f 768 766 765
f 768 765 767
f 769 767 566
f 769 566 565
f 770 767 769
f 770 768 767
f 771 565 564
f 771 769 565
f 772 770 769
f 772 769 771
f 773 771 564
f 773 564 563
f 774 771 773
f 774 772 771
f 775 563 562
f 775 773 563
f 596 774 773
f 596 773 775
f 561 775 562
f 561 596 775
f 597 596 561
f 776 561 560
f 598 561 776
f 598 597 561
f 777 560 559
f 777 776 560
f 777 598 776
f 599 598 777
f 778 558 557
f 778 559 558
f 778 777 559
f 600 777 778
f 600 599 777
f 779 778 557
f 601 600 778
f 601 778 779
f 780 557 556
f 780 779 557
f 780 601 779
f 602 601 780
f 781 555 218
f 781 556 555
f 781 780 556
f 603 602 780
f 603 781 218
f 603 218 209
f 603 780 781
f 782 156 183
f 782 183 585
f 586 156 782
f 783 586 782
f 584 782 585
f 784 783 782
f 784 782 584
f 786 784 584
f 786 584 785
f 785 584 583
f 787 786 785
f 788 785 583
f 789 787 785
f 789 785 788
f 582 788 583
f 790 789 788
f 790 788 582
f 792 790 582
f 792 582 791
f 791 582 794
f 793 792 791
f 587 791 794
f 587 793 791
f 795 794 581
f 795 587 794
f 796 581 580
f 796 795 581
f 797 795 796
f 798 796 580
f 799 797 796
f 799 796 798
f 798 580 579
f 800 799 798
f 802 798 579
f 802 800 798
f 801 800 802
f 803 801 802
f 804 802 579
f 804 803 802
f 588 803 804
f 589 804 578
f 589 588 804
f 590 589 578
f 590 578 805
f 805 578 577
f 591 590 805
f 806 805 577
f 592 591 805
f 592 805 806
f 807 577 155
f 807 806 577
f 807 155 161
f 808 592 806
f 808 807 161
f 808 806 807
f 96 494 112
f 809 94 84
f 809 84 532
f 810 95 94
f 810 473 95
f 810 94 809
f 811 532 531
f 811 809 532
f 812 810 809
f 812 473 810
f 812 474 473
f 812 809 811
f 813 531 530
f 813 811 531
f 814 475 474
f 814 812 811
f 814 474 812
f 814 811 813
f 815 530 529
f 815 813 530
f 816 814 813
f 816 813 815
f 816 476 475
f 816 477 476
f 816 475 814
f 817 816 815
f 817 529 528
f 817 815 529
f 818 477 816
f 818 816 817
f 819 528 527
f 819 817 528
f 820 817 819
f 820 477 818
f 820 478 477
f 820 818 817
f 821 527 526
f 821 819 527
f 822 819 821
f 822 479 478
f 822 820 819
f 822 478 820
f 823 821 526
f 823 525 524
f 823 526 525
f 824 822 821
f 824 479 822
f 824 480 479
f 824 821 823
f 825 823 524
f 826 824 823
f 826 481 480
f 826 482 481
f 826 823 825
f 826 480 824
f 827 826 825
f 827 523 522
f 827 524 523
f 827 825 524
f 828 482 826
f 828 826 827
f 829 827 522
f 830 482 828
f 830 483 482
f 830 828 827
f 830 827 829
f 831 522 521
f 831 829 522
f 832 484 483
f 832 830 829
f 832 483 830
f 832 829 831
f 833 831 521
f 833 520 519
f 833 521 520
f 833 832 831
f 834 832 833
f 834 485 484
f 834 484 832
f 835 519 518
f 835 833 519
f 836 486 485
f 836 834 833
f 836 485 834
f 836 833 835
f 837 835 518
f 838 835 837
f 838 487 486
f 838 486 836
f 838 836 835
f 839 518 517
f 839 837 518
f 839 838 837
f 840 488 487
f 840 487 838
f 840 838 839
f 841 517 516
f 841 839 517
f 842 840 839
f 842 489 488
f 842 488 840
f 842 839 841
f 843 515 514
f 843 516 515
f 843 841 516
f 844 489 842
f 844 841 843
f 844 842 841
f 844 490 489
f 845 843 514
f 846 490 844
f 846 843 845
f 846 491 490
f 846 844 843
f 847 514 513
f 847 846 845
f 847 845 514
f 848 491 846
f 848 846 847
f 848 492 491
f 849 512 511
f 849 513 512
f 849 847 513
f 850 848 847
f 850 492 848
f 850 847 849
f 850 493 492
f 851 511 93
f 851 849 511
f 851 93 111
f 851 111 112
f 852 850 849
f 852 493 850
f 852 851 112
f 852 494 493
f 852 112 494
f 852 849 851
f 425 495 426
f 424 496 425
f 423 497 424
f 855 498 423
f 856 499 855
f 422 500 856
f 871 509 317
f 872 871 316
f 873 872 315
f 874 873 314
f 510 874 313
f 55 312 54
f 56 312 55
f 40 510 312
f 40 312 56
f 853 37 31
f 853 31 426
f 853 426 495
f 854 38 37
f 854 39 38
f 854 495 39
f 854 37 853
f 854 853 495
f 425 496 495
f 424 497 496
f 423 498 497
f 855 499 498
f 856 500 499
f 422 501 500
f 857 422 421
f 857 501 422
f 858 501 857
f 858 502 501
f 858 857 421
f 859 421 420
f 859 502 858
f 859 858 421
f 420 502 859
f 420 503 502
f 503 420 419
f 860 861 503
f 860 503 419
f 861 419 418
f 861 860 419
f 862 863 861
f 862 861 418
f 863 418 864
f 863 862 418
f 864 504 863
f 504 864 865
f 865 505 504
f 866 865 319
f 866 505 865
f 319 506 505
f 319 505 866
f 506 319 867
f 867 507 506
f 507 867 868
f 868 508 507
f 508 868 318
f 869 508 318
f 869 509 508
f 870 318 317
f 870 869 318
f 870 509 869
f 870 317 509
f 871 317 316
f 872 316 315
f 873 315 314
f 874 314 313
f 510 313 312
f 876 427 875
f 428 876 383
f 877 428 382
f 878 877 381
f 879 878 380
f 896 895 375
f 374 327 896
f 898 897 374
f 373 899 898
f 901 900 373
f 8 902 901
f 875 427 1
f 876 875 383
f 428 383 382
f 877 382 381
f 878 381 380
f 879 380 880
f 881 879 880
f 881 429 879
f 881 880 379
f 881 882 429
f 882 881 379
f 882 379 883
f 883 430 882
f 884 883 378
f 885 431 430
f 885 430 883
f 885 883 884
f 885 884 378
f 431 885 378
f 886 378 887
f 886 431 378
f 887 324 886
f 888 887 889
f 888 324 887
f 890 888 889
f 890 889 891
f 892 891 377
f 892 890 891
f 892 377 376
f 893 892 376
f 893 325 892
f 893 376 894
f 893 326 325
f 894 326 893
f 895 326 894
f 895 894 375
f 896 327 895
f 897 327 374
f 899 897 898
f 900 899 373
f 902 900 901

