# https://github.com/mikedh/trimesh
v 2.08365233 -0.00664404 2.20801773
v -0.94794987 1.83778519 2.20949328
v 0.00000000 2.10500923 2.19823481
v 1.63073865 1.30655190 2.20559722
v -2.01188040 0.53976333 2.20721691
v -1.05250461 1.82299147 2.19823481
v -0.52942125 2.02820711 2.20338517
v -2.08365233 0.00664404 2.20801773
v -2.06191234 0.27242865 2.20786798
v -1.92216402 0.79950073 2.20726955
v -1.80380097 1.04516780 2.20675384
v -1.65369664 1.26861729 2.20691861
v -1.46638338 1.47887743 2.20719515
v -1.26933870 1.66723752 2.20318143
v -1.09244499 1.77702387 2.20757669
v -0.74015998 1.95414074 2.20652415
v -0.31416295 2.06428778 2.20710615
v -0.10159340 2.08034693 2.20762686
v 0.24699152 2.07401979 2.20683087
v 0.50811473 2.02519427 2.20688023
v 0.79247549 1.94095974 2.20319906
v 0.82450125 1.90604148 2.20880316
v 1.03654342 1.82248871 2.20305866
v 1.22036296 1.70345374 2.20401469
v 1.22032093 1.68433059 2.20799213
v 1.43832313 1.51366240 2.20592130
v 1.78878346 1.07754930 2.20591185
v 1.91636554 0.82560752 2.20615436
v 2.01060011 0.55977062 2.20612976
v 2.06537796 0.28235599 2.20650306
v 3.94826776 0.00000000 0.35368436
v 3.91448978 0.51535236 0.35368436
v 3.13237141 2.40355312 0.35368436
v 2.77772605 2.82034797 0.33404260
v 2.40513753 3.13602151 0.34649474
v 1.03191326 3.82150180 0.33287177
v 3.95472739 0.00000000 0.33872895
v 3.95867304 0.00000000 0.32292316
v 3.96000000 0.00000000 0.30668646
v -3.96000000 0.00000000 0.30668646
v -3.92311635 0.53921993 0.30668646
v -3.82346530 1.02797486 0.32677543
v -3.65310528 1.52917466 0.32325449
v -3.38350084 2.05755244 0.30668646
v -3.07181671 2.49910826 0.30668646
v -2.70291045 2.89411042 0.30668646
v -2.28365408 3.23520078 0.30668646
v 0.26786848 3.95190346 0.31397019
v 1.32378200 3.73316989 0.31410095
v 1.81968550 3.51814790 0.31425691
v 2.28174948 3.23755611 0.31448979
v 2.70291045 2.89411042 0.30668646
v 3.07181671 2.49910826 0.30668646
v -3.94826776 0.00000000 0.35368436
v -3.95472739 0.00000000 0.33872895
v -3.95867304 0.00000000 0.32292316
v -0.51198832 3.92523801 0.33264977
v -1.03191326 3.82150180 0.33287177
v -1.51174599 3.65840521 0.33236222
v -3.91448978 0.51535236 0.35368436
v -3.92089415 0.51619551 0.33872895
v -3.92480605 0.51671052 0.32292316
v -3.42718061 1.97863730 0.33343085
v -3.14038460 2.40902814 0.33144824
v -2.80034161 2.79694286 0.33282559
v -2.38051699 3.16444446 0.32971118
v -1.98229160 3.42604879 0.33344271
v -1.82158553 3.51725135 0.31421614
v -1.32578613 3.73237186 0.31422818
v -0.80553241 3.87826164 0.31394545
v -0.27016249 3.95165818 0.31407165
v -0.00000000 3.95851902 0.33209901
v 0.51198832 3.92523801 0.33264977
v 0.80327948 3.87864920 0.31400819
v 1.51174599 3.65840521 0.33236222
v 1.98229160 3.42604879 0.33344271
v 2.40988746 3.14062648 0.32292316
v 2.79920455 2.79920455 0.32292316
v 3.07078738 2.49827083 0.32292316
v 3.38912101 2.04304977 0.33588047
v 3.63342531 1.56653712 0.33643519
v 3.81089513 1.06471805 0.33665037
v 3.92186676 0.54041018 0.32393512
v -3.86199039 0.21716427 -0.00001703
v -3.64788371 1.29645817 -0.00002900
v -2.85872100 2.60569516 -0.00002384
v -2.01153487 3.30782813 -0.00002417
v -0.52716192 3.83538783 -0.00002071
v 0.99836725 3.73702996 -0.00001703
v 2.01153487 3.30782813 -0.00002417
v 3.13283072 2.26879257 -0.00001986
v 3.62876978 1.33943194 -0.00001986
v 3.86240857 0.26419599 -0.00002417
v -3.91000000 0.00000000 0.01339746
v -3.95430393 -0.00867239 0.06372492
v 3.96000000 0.00000000 0.10000000
v 3.81315246 1.06839521 0.10000000
v 3.38350084 2.05755244 0.10000000
v 2.69467010 2.89359269 0.06155512
v 2.28365408 3.23520078 0.10000000
v 1.32612326 3.73135325 0.10000000
v 0.27023996 3.95076833 0.10000000
v -0.80568581 3.87717299 0.10000000
v -1.82185755 3.51602546 0.10000000
v -2.69584704 2.89078747 0.05974362
v -3.06591327 2.49848673 0.06334114
v -3.38131739 2.04958979 0.06155511
v -3.62435425 1.57743455 0.05974362
v -3.80819114 1.06700511 0.06200810
v -3.92311635 0.53921993 0.10000000
v 3.91000000 0.00000000 0.01339746
v 3.94660254 0.00000000 0.05000000
v 3.87358205 0.53241160 0.01339746
v 3.91632827 0.53536561 0.05974362
v 3.76500659 1.05490538 0.01339746
v 3.80025181 1.06478062 0.05000000
v 3.58629619 1.55774826 0.01339746
v 3.62743092 1.57561560 0.06200810
v 3.34077987 2.03157324 0.01339746
v 3.37205379 2.05059134 0.05000000
v 3.03303115 2.46755386 0.01339746
v 3.06358262 2.49971741 0.06155511
v 2.64723564 2.86092472 0.00583850
v 2.25482006 3.19435228 0.01339746
v 2.27592802 3.22425546 0.05000000
v 1.79885430 3.47163120 0.01339746
v 1.80847981 3.51617933 0.06184813
v 1.30937928 3.68424021 0.01339746
v 1.32163673 3.71872935 0.05000000
v 0.79551301 3.82821878 0.01339746
v 0.79606278 3.87284484 0.06048894
v 0.26623493 3.89221696 0.00743822
v 0.26932568 3.93740210 0.05000000
v -0.26682784 3.90088489 0.01339746
v -0.26685786 3.94373305 0.05974362
v -0.79551301 3.82821878 0.01339746
v -0.80296002 3.86405575 0.05000000
v -1.32227220 3.66665284 0.00583850
v -1.32096849 3.72549134 0.05974361
v -1.79885430 3.47163120 0.01339746
v -1.81569385 3.50413006 0.05000000
v -2.25482006 3.19435228 0.01339746
v -2.28745435 3.22554606 0.06372493
v -2.66878279 2.85756862 0.01339746
v -3.03303115 2.46755386 0.01339746
v -3.33954763 2.00713100 0.00491428
v -3.58629619 1.55774826 0.01339746
v -3.76500659 1.05490538 0.01339746
v -3.87358205 0.53241160 0.01339746
v -3.90984367 0.53739564 0.05000000
v -1.49184735 0.75021283 -15.87500533
v -0.02032042 1.68898079 -15.87359895
v 0.45091475 1.60933574 -15.87500540
v 1.28188983 1.08002838 -15.87500546
v 1.58465572 0.58475234 -15.87359895
v 1.66737528 0.11405159 -15.87501080
v -1.68487162 0.01242651 -15.87388707
v -1.72205405 0.00000000 -15.85831491
v 0.78994825 1.53048155 -15.85838365
v -0.79323200 1.51749803 -15.86574762
v -1.47299218 0.89574639 -15.85720589
v -1.58082164 0.68366292 -15.85838364
v -1.65720488 0.46432703 -15.85917744
v 1.70935677 0.04754438 -15.86794698
v 1.70590497 0.23723468 -15.85838364
v 1.65771263 0.46731242 -15.85838365
v 1.57864023 0.68868503 -15.85838364
v 1.43608237 0.92758049 -15.86822667
v 1.33429497 1.08905876 -15.85838364
v 1.16424186 1.25561068 -15.86574762
v 0.99099116 1.40866198 -15.85838365
v 0.86217586 1.45473813 -15.87303205
v 0.52762949 1.62658175 -15.86794698
v 0.34773585 1.68685263 -15.85838365
v 0.11480392 1.71849123 -15.85838364
v -0.12026656 1.71811758 -15.85838364
v -0.35309668 1.68573864 -15.85838365
v -0.50041546 1.61169139 -15.87428789
v -0.57934934 1.62195759 -15.85838364
v -0.98792135 1.38741761 -15.87132762
v -1.30267491 1.10316557 -15.86958278
v -1.17264537 1.26095606 -15.85869745
v -1.50668005 0.78241536 -15.87141482
v -1.65349934 0.34514715 -15.87327220
v -1.70727700 0.23365828 -15.85788641
v 2.08096386 0.00000000 -15.47945811
v 2.06340069 0.28360790 -15.45857864
v 2.00556413 0.56193271 -15.45857864
v 1.91036770 0.82978979 -15.45857864
v 1.77958474 1.08218945 -15.45857864
v 1.61565148 1.31442997 -15.45857864
v 1.42098347 1.52033101 -15.47894126
v 1.20110977 1.70158489 -15.45857864
v 0.95822346 1.84928733 -15.45857864
v 0.69748726 1.96254105 -15.45857864
v 0.42375818 2.03923634 -15.45857864
v 0.14213530 2.07794451 -15.45857864
v -0.14213530 2.07794451 -15.45857864
v -0.42375818 2.03923634 -15.45857864
v -0.69748726 1.96254105 -15.45857864
v -0.95822346 1.84928733 -15.45857864
v -1.20110977 1.70158489 -15.45857864
v -1.42162169 1.52218515 -15.45857864
v -1.61565148 1.31442997 -15.45857864
v -1.77958474 1.08218945 -15.45857864
v -1.91036770 0.82978979 -15.45857864
v -2.00556413 0.56193271 -15.45857864
v -2.06340069 0.28360790 -15.45857864
v -2.08280000 0.00000000 -15.45857864
v 2.06548323 -0.00206813 -15.51534235
v -2.05351068 0.00000000 -15.52928932
v -1.41256511 1.50767570 -15.51471176
v 0.42219264 2.02288036 -15.51420033
v 1.18421920 1.67765640 -15.52928932
v 1.60411501 1.30273046 -15.51420031
v 1.76586354 1.07142489 -15.51534233
v 1.89535345 0.82251326 -15.51460485
v 1.98969889 0.55676839 -15.51460486
v 2.03438417 0.27961967 -15.52928932
v -2.07563430 -0.00000001 -15.49703904
v -2.06002501 0.28314392 -15.48446055
v -2.04753384 0.28026405 -15.51364595
v -2.00228306 0.56101340 -15.48446055
v -1.98941487 0.55598654 -15.51543977
v -1.90724238 0.82843227 -15.48446055
v -1.89480172 0.82378346 -15.51460485
v -1.77667337 1.08041901 -15.48446055
v -1.76636369 1.07280108 -15.51364592
v -1.61300830 1.31227959 -15.48446055
v -1.60470357 1.30128888 -15.51471174
v -1.41929594 1.51969488 -15.48446055
v -1.19914478 1.69880114 -15.48446055
v -1.19233517 1.68678077 -15.51543979
v -0.95665583 1.84626194 -15.48446055
v -0.94993928 1.83480464 -15.51460487
v -0.69634618 1.95933037 -15.48446055
v -0.69125229 1.94706523 -15.51460487
v -0.42306492 2.03590019 -15.48446055
v -0.41867788 2.02361073 -15.51420033
v -0.14190277 2.07454504 -15.48446055
v -0.13771287 2.06142219 -15.51471175
v 0.14190277 2.07454504 -15.48446055
v 0.14301687 2.06052700 -15.51534233
v 0.42306492 2.03590019 -15.48446055
v 0.69634618 1.95933037 -15.48446055
v 0.69363695 1.94553157 -15.51534235
v 0.95665583 1.84626194 -15.48446055
v 0.95116886 1.83416753 -15.51460487
v 1.19507900 1.69657248 -15.49840163
v 1.41074943 1.50952932 -15.51460487
v 1.61300830 1.31227959 -15.48446055
v 1.77667337 1.08041901 -15.48446055
v 1.90724238 0.82843227 -15.48446055
v 2.00228306 0.56101340 -15.48446055
v 2.05681117 0.28473008 -15.49631738
v -1.19952316 -0.04726919 0.66300014
v -1.23893677 -0.25466135 0.66300005
v -1.32566357 -0.43840830 0.66299959
v -1.20076143 0.04945627 1.93634820
v -1.20792280 -0.12135188 1.94358318
v -1.24467633 -0.26652814 1.97787782
v -1.35307542 -0.47837768 2.07136191
v -1.41888552 -0.55707348 2.12300780
v 1.23810485 0.95646084 0.66299971
v 1.45059255 0.83750000 2.21000000
v 1.40096121 0.89749607 2.20355904
v 1.33516698 0.93843205 2.18515653
v 1.25372039 0.95682898 2.15324285
v 1.48241152 0.71875000 2.19410346
v 1.47427688 0.78012778 2.20594777
v 1.47645175 0.77162125 0.66300000
v 1.45887156 0.82183903 0.66300000
v 1.41354961 0.88794222 0.66300037
v 1.32757072 0.94339441 0.66300110
v 1.44938334 -0.59705577 0.66299963
v 1.41888552 -0.55707348 2.12300780
v 1.48241152 -0.71875000 2.19410346
v 1.46587168 -0.63203784 2.16457309
v 1.48186700 -0.68857389 0.66299735
v 1.41888552 0.55707348 2.12300780
v 1.46589901 0.63180264 2.16452762
v 1.67500000 0.00000000 2.21000000
v 1.66067014 0.21863137 2.21000000
v 1.61415035 0.43896443 2.20991419
v 1.54749822 0.64099475 2.21000000
v 1.19976970 0.04181017 1.93564727
v 1.21703464 0.16507816 1.95218084
v 1.26203211 0.31553305 1.99363661
v 1.35188663 0.47677650 2.07040888
v -2.08280000 0.00000000 0.00000000
v 2.08280000 0.00000000 0.00000000
v 2.06340069 0.28360790 0.00000000
v 2.00556413 0.56193271 0.00000000
v 1.91036770 0.82978979 0.00000000
v 1.77958474 1.08218945 0.00000000
v 1.61565148 1.31442997 0.00000000
v 1.42162169 1.52218515 0.00000000
v 1.20110977 1.70158489 0.00000000
v 0.95822346 1.84928733 0.00000000
v 0.69748726 1.96254105 0.00000000
v 0.42375818 2.03923634 0.00000000
v 0.14213530 2.07794451 0.00000000
v -0.14213530 2.07794451 0.00000000
v -0.42375818 2.03923634 0.00000000
v -0.69748726 1.96254105 0.00000000
v -0.95822346 1.84928733 0.00000000
v -1.20110977 1.70158489 0.00000000
v -1.42162169 1.52218515 0.00000000
v -1.61565148 1.31442997 0.00000000
v -1.77958474 1.08218945 0.00000000
v -1.91036770 0.82978979 0.00000000
v -2.00556413 0.56193271 0.00000000
v -2.06340069 0.28360790 0.00000000
v -3.91448978 -0.51535236 0.35368436
v -3.81373380 -1.02188689 0.35368436
v -3.64772377 -1.51093666 0.35368436
v -3.41930018 -1.97413388 0.35368436
v -3.13237141 -2.40355312 0.35368436
v -2.79184690 -2.79184690 0.35368436
v -2.40513753 -3.13602151 0.34649474
v -1.03191326 -3.82150180 0.33287177
v -0.00000000 -3.67252499 0.80502781
v -0.00000000 -3.34543487 1.22066832
v -0.00000000 -2.97157060 1.59479462
v -0.00000000 -2.55615937 1.92217588
v -0.00000000 -2.10500923 2.19823481
v -1.05250461 -1.82299147 2.19823481
v -1.28144842 -1.67001610 2.19823481
v -1.67001610 -1.28144842 2.19823481
v 0.00000000 3.67252499 0.80502781
v 0.00000000 3.34543487 1.22066832
v 0.00000000 2.97157060 1.59479462
v 0.00000000 2.55615937 1.92217588
v -0.80193127 -3.68238494 0.66083777
v -0.80193127 -3.19076559 1.28197998
v -1.57787681 -3.28194093 0.84901946
v -0.80193127 -2.59575286 1.80492079
v -1.57787681 -2.76307229 1.39532102
v -2.30269293 -2.78054243 0.89235646
v -1.57787681 -2.15466921 1.83974849
v -2.30269293 -2.26202795 1.34806499
v -1.57787681 -1.47644636 2.16790064
v -2.95289272 -2.21801540 0.77514417
v -2.30269293 -1.67021486 1.70343070
v -2.95289272 -1.72962883 1.13190174
v -2.30269293 -1.02428022 1.94693833
v -3.50740714 -1.63748373 0.49308941
v -2.95289272 -1.18519547 1.39532102
v -2.30269293 -0.34515487 2.07069729
v -3.50740714 -1.20906979 0.75033891
v -2.95289272 -0.60235711 1.55686621
v -2.30269293 0.34515487 2.07069729
v -1.57787681 1.47644636 2.16790064
v -0.80193127 2.59575286 1.80492079
v -3.50740714 -0.74147722 0.92661427
v -2.95289272 -0.00000000 1.61130259
v -2.30269293 1.02428022 1.94693833
v -1.57787681 2.15466921 1.83974849
v -0.80193127 3.19076559 1.28197998
v -3.50740714 -0.24985787 1.01620347
v -2.95289272 0.60235711 1.55686621
v -2.30269293 1.67021486 1.70343070
v -1.57787681 2.76307229 1.39532102
v -0.80193127 3.68238494 0.66083777
v -3.50740714 0.24985787 1.01620347
v -2.95289272 1.18519547 1.39532102
v -2.30269293 2.26202795 1.34806499
v -1.57787681 3.28194093 0.84901946
v -3.50740714 0.74147722 0.92661427
v -2.95289272 1.72962883 1.13190174
v -2.30269293 2.78054243 0.89235646
v -3.50740714 1.20906979 0.75033891
v -2.95289272 2.21801540 0.77514417
v -3.50740714 1.63748373 0.49308941
v -1.98768029 -0.55704469 2.20975446
v -1.76374217 -1.07297913 2.20973517
v -1.40906122 -1.51087401 2.20964634
v -0.94794987 -1.83778519 2.20949328
v -0.68977156 -1.94948497 2.20948623
v 0.51866711 -2.00295717 2.20972976
v 1.18875009 -1.69193974 2.20950255
v 1.59637465 -1.29874711 2.21000000
v 1.75835198 -1.06927752 2.21000000
v 1.88757453 -0.81988932 2.21000000
v 1.98518715 -0.55188964 2.21002178
v -1.45059255 -0.83750000 2.21000000
v -1.32886684 -1.01967539 2.21000000
v -1.18440386 -1.18440386 2.21000000
v -0.93258672 -1.39564352 2.20999101
v -0.51756519 -1.59851603 2.20999526
v -0.21863137 -1.66067014 2.21000000
v -0.00000000 -1.67500000 2.21000000
v 0.21863137 -1.66067014 2.21000000
v 0.43352190 -1.61792576 2.21000000
v 0.74236933 -1.50546558 2.20999101
v 1.12557296 -1.24748256 2.20999526
v 1.32886684 -1.01967539 2.21000000
v 1.45059255 -0.83750000 2.21000000
v 1.54749822 -0.64099475 2.21000000
v 1.61792576 -0.43352190 2.21000000
v 1.66067014 -0.21863137 2.21000000
v 1.32886684 1.01967539 2.21000000
v 1.12556988 1.24748513 2.20999527
v 0.74236933 1.50546558 2.20999101
v 0.43352190 1.61792576 2.21000000
v 0.21863137 1.66067014 2.21000000
v 0.00000000 1.67500000 2.21000000
v -0.21863137 1.66067014 2.21000000
v -0.43352190 1.61792576 2.21000000
v -0.64099475 1.54749822 2.21000000
v -0.93258672 1.39564352 2.20999101
v -1.18440386 1.18440386 2.21000000
v -1.32886684 1.01967539 2.21000000
v -1.45059255 0.83750000 2.21000000
v -1.54749822 0.64099475 2.21000000
v -1.64313878 0.35102949 2.20999527
v -1.67500000 0.00000000 2.21000000
v -1.64313810 -0.35103339 2.20999526
v -1.54749822 -0.64099475 2.21000000
v 0.51447104 -3.91828768 0.34708532
v 1.02488883 -3.81666310 0.34716578
v 1.51174599 -3.65840521 0.33236222
v 1.97690050 -3.42178762 0.34733872
v 2.40200286 -3.14641525 0.33163750
v 3.42718061 -1.97863730 0.33343085
v 3.65709831 -1.51093423 0.33407098
v 3.82183929 -1.02040240 0.33774614
v 3.91448978 -0.51535236 0.35368436
v 2.08700058 -0.27475884 2.19823481
v 1.93981014 -0.80237144 2.20105898
v 1.28144842 -1.67001610 2.19823481
v 0.80555216 -1.94477494 2.19823481
v 0.52942125 -2.02820711 2.20338517
v 3.50740714 -1.63748373 0.49308941
v 2.95289272 -2.21801540 0.77514417
v 3.50740714 -1.20906979 0.75033891
v 2.30269293 -2.78054243 0.89235646
v 2.95289272 -1.72962883 1.13190174
v 3.50740714 -0.74147722 0.92661427
v 1.57787681 -3.28194093 0.84901946
v 2.30269293 -2.26202795 1.34806499
v 2.95289272 -1.18519547 1.39532102
v 3.50740714 -0.24985787 1.01620347
v 0.80193127 -3.68238494 0.66083777
v 1.57787681 -2.76307229 1.39532102
v 2.30269293 -1.67021486 1.70343070
v 2.95289272 -0.60235711 1.55686621
v 3.50740714 0.24985787 1.01620347
v 0.80193127 -3.19076559 1.28197998
v 1.57787681 -2.15466921 1.83974849
v 2.30269293 -1.02428022 1.94693833
v 2.95289272 -0.00000000 1.61130259
v 3.50740714 0.74147722 0.92661427
v 0.80193127 -2.59575286 1.80492079
v 1.57787681 -1.47644636 2.16790064
v 2.30269293 -0.34515487 2.07069729
v 2.95289272 0.60235711 1.55686621
v 3.50740714 1.20906979 0.75033891
v 2.30269293 0.34515487 2.07069729
v 2.95289272 1.18519547 1.39532102
v 3.50740714 1.63748373 0.49308941
v 2.30269293 1.02428022 1.94693833
v 2.95289272 1.72962883 1.13190174
v 2.30269293 1.67021486 1.70343070
v 2.95289272 2.21801540 0.77514417
v 1.57787681 1.47644636 2.16790064
v 2.30269293 2.26202795 1.34806499
v 1.57787681 2.15466921 1.83974849
v 2.30269293 2.78054243 0.89235646
v 1.57787681 2.76307229 1.39532102
v 0.80193127 2.59575286 1.80492079
v 1.57787681 3.28194093 0.84901946
v 0.80193127 3.19076559 1.28197998
v 0.80193127 3.68238494 0.66083777
v -3.92311635 -0.53921993 0.10000000
v -3.81315246 -1.06839521 0.10000000
v -3.63215675 -1.57766832 0.10000000
v -3.38350084 -2.05755244 0.10000000
v -3.07181671 -2.49910826 0.10000000
v -2.70291045 -2.89411042 0.10000000
v -2.28365408 -3.23520078 0.10000000
v -1.82185755 -3.51602546 0.10000000
v -1.32612326 -3.73135325 0.10000000
v -0.80568581 -3.87717299 0.10000000
v -0.27023996 -3.95076833 0.10000000
v 0.27023996 -3.95076833 0.10000000
v 0.80568581 -3.87717299 0.10000000
v 1.32612326 -3.73135325 0.10000000
v 1.82185755 -3.51602546 0.10000000
v 2.28365408 -3.23520078 0.10000000
v 2.70291045 -2.89411042 0.10000000
v 3.07181671 -2.49910826 0.10000000
v 3.38350084 -2.05755244 0.10000000
v 3.63215675 -1.57766832 0.10000000
v 3.81315246 -1.06839521 0.10000000
v 3.92311635 -0.53921993 0.10000000
v 3.92311635 -0.53921993 0.30668646
v 3.81315246 -1.06839521 0.30668646
v 3.63215675 -1.57766832 0.30668646
v 3.38350084 -2.05755244 0.30668646
v 3.07181671 -2.49910826 0.30668646
v 2.70291045 -2.89411042 0.30668646
v 2.28365408 -3.23520078 0.30668646
v 1.82185755 -3.51602546 0.30668646
v 1.32793572 -3.73170503 0.31416369
v -0.26786848 -3.95190346 0.31397019
v -0.80568581 -3.87717299 0.30668646
v -1.32378200 -3.73316989 0.31410095
v -1.81968550 -3.51814790 0.31425691
v -2.28174948 -3.23755611 0.31448979
v -2.70291045 -2.89411042 0.30668646
v -3.92172757 -0.53983190 0.32469145
v 3.82404775 -0.52560327 -0.00000000
v 3.71686073 -1.04141554 -0.00000000
v 3.54043562 -1.53782821 -0.00000000
v 3.29805890 -2.00559405 -0.00000000
v 2.99424558 -2.43599947 -0.00000000
v 2.63465513 -2.82102682 -0.00000000
v 2.22598604 -3.15350379 -0.00000000
v 1.77585105 -3.42723694 -0.00000000
v 1.29263530 -3.63712716 -0.00000000
v 0.78534021 -3.77926458 -0.00000000
v 0.26341572 -3.85100145 -0.00000000
v -0.26341572 -3.85100145 -0.00000000
v -0.78534021 -3.77926458 -0.00000000
v -1.29263530 -3.63712716 -0.00000000
v -1.77585105 -3.42723694 -0.00000000
v -2.22598604 -3.15350379 -0.00000000
v -2.63465513 -2.82102682 -0.00000000
v -2.99424558 -2.43599947 -0.00000000
v -3.29805890 -2.00559405 -0.00000000
v -3.54043562 -1.53782821 -0.00000000
v -3.71686073 -1.04141554 -0.00000000
v -3.82404775 -0.52560327 -0.00000000
v -2.06340069 -0.28360790 0.00000000
v -2.00556413 -0.56193271 0.00000000
v -1.91036770 -0.82978979 0.00000000
v -1.77958474 -1.08218945 0.00000000
v -1.61565148 -1.31442997 0.00000000
v -1.42162169 -1.52218515 0.00000000
v -1.20110977 -1.70158489 0.00000000
v -0.95822346 -1.84928733 0.00000000
v -0.69748726 -1.96254105 0.00000000
v -0.42375818 -2.03923634 0.00000000
v -0.14213530 -2.07794451 0.00000000
v 0.14213530 -2.07794451 0.00000000
v 0.42375818 -2.03923634 0.00000000
v 0.69748726 -1.96254105 0.00000000
v 0.95822346 -1.84928733 0.00000000
v 1.20110977 -1.70158489 0.00000000
v 1.42162169 -1.52218515 0.00000000
v 1.61565148 -1.31442997 0.00000000
v 1.77958474 -1.08218945 0.00000000
v 1.91036770 -0.82978979 0.00000000
v 2.00556413 -0.56193271 0.00000000
v 2.06340069 -0.28360790 0.00000000
v -2.06340069 -0.28360790 -15.45857864
v -2.00556413 -0.56193271 -15.45857864
v -1.91036770 -0.82978979 -15.45857864
v -1.77958474 -1.08218945 -15.45857864
v -1.61476673 -1.31268001 -15.47894126
v -1.42162169 -1.52218515 -15.45857864
v -1.20005089 -1.70008483 -15.47945813
v -0.95822346 -1.84928733 -15.45857864
v -0.69748726 -1.96254105 -15.45857864
v -0.42375818 -2.03923634 -15.45857864
v -0.14213530 -2.07794451 -15.45857864
v 0.14201803 -2.07623006 -15.47811995
v 0.42375818 -2.03923634 -15.45857864
v 0.69748726 -1.96254105 -15.45857864
v 0.95669013 -1.84806503 -15.47894131
v 1.20110977 -1.70158489 -15.45857864
v 1.42162169 -1.52218515 -15.45857864
v 1.61431845 -1.31334547 -15.47811992
v 1.77958474 -1.08218945 -15.45857864
v 1.91036770 -0.82978979 -15.45857864
v 2.00556413 -0.56193271 -15.45857864
v 2.06340069 -0.28360790 -15.45857864
v 1.61190327 -0.45163408 -15.87501133
v 1.36540533 -0.96380829 -15.87500648
v -0.07480205 -1.68204832 -15.87413707
v -0.43099350 -1.61326952 -15.87500666
v -0.94920887 -1.39266906 -15.87395187
v -1.20647815 -1.15447149 -15.87500666
v -1.52797221 -0.70844955 -15.87400885
v -1.63068319 -0.35953618 -15.87500666
v -1.70700140 -0.22987609 -15.85829345
v -1.17799233 -1.25596234 -15.85869745
v -0.99663758 -1.40561212 -15.85771825
v -0.35342127 -1.70075651 -15.84571068
v 1.33775044 -1.08481142 -15.85838364
v 1.47316374 -0.89156934 -15.85869746
v 1.58188000 -0.68314536 -15.85771824
v 1.65918987 -0.46204008 -15.85838365
v 2.04679143 -0.28202394 -15.51460488
v 1.75455937 -1.06697119 -15.52928932
v 0.94993928 -1.83480464 -15.51460487
v 0.13922999 -2.06177268 -15.51420032
v -0.69255719 -1.94660147 -15.51460487
v -0.95094244 -1.83523560 -15.51323049
v -1.18943392 -1.68863027 -15.51534236
v -1.76353617 -1.07627434 -15.51471174
v -1.89366317 -0.82611505 -15.51471175
v -1.98851479 -0.56056680 -15.51471176
v -2.04632415 -0.28457627 -15.51471177
v -1.40096121 -0.89749607 2.20355904
v -1.33516698 -0.93843205 2.18515653
v -1.26413679 -0.95543667 2.15779197
v -1.10158005 -0.93758628 2.07813562
v -0.97065630 -0.93046336 2.01920227
v -0.71982437 -0.98023381 1.94442812
v -0.52525419 -1.08614604 1.93901318
v -0.40084479 -1.20067832 1.97381421
v -0.26629032 -1.40171888 2.06650776
v -0.22700297 -1.50732765 2.12300780
v -0.19529025 -1.57261588 2.15785749
v -0.14531944 -1.62535236 2.18507913
v -0.07668046 -1.66202570 2.20356330
v -0.90385521 -0.93655930 1.99427614
v -0.71938503 -1.24601142 2.07361258
v -0.32886604 -1.29290713 2.01262021
v 1.25084716 -0.95706465 2.15206391
v 1.33493674 -0.93852650 2.18507914
v 1.40101625 -0.89742007 2.20356330
v 0.07677363 -1.66201593 2.20355899
v 0.14512231 -1.62550470 2.18515660
v 0.19536381 -1.57249300 2.15779201
v 0.26118298 -1.42279075 2.07813630
v 0.32047675 -1.30584471 2.01920227
v 0.48899516 -1.11350313 1.94442813
v 0.67800297 -0.99795649 1.93901317
v 0.83939551 -0.94748093 1.97381421
v 1.08077892 -0.93147362 2.06650773
v 0.35915653 -1.25104123 1.99427614
v 0.71938503 -1.24601142 2.07361258
v 0.95525733 -0.93125992 2.01262019
v 1.47421464 -0.78014761 2.20592541
v 1.34596451 -0.46657256 2.06533056
v 1.25005722 -0.28175807 1.98277919
v 1.21256299 -0.15045444 1.94822324
v 1.28793630 -0.36943607 2.01586698
v 0.22700297 1.50732765 2.12300780
v 0.19529025 1.57261588 2.15785749
v 0.14531944 1.62535236 2.18507913
v 0.07668046 1.66202570 2.20356330
v 1.07715419 0.93236193 2.06538128
v 0.86028186 0.94328588 1.98004411
v 0.71982437 0.98023381 1.94442812
v 0.52525419 1.08614604 1.93901318
v 0.40084479 1.20067832 1.97381421
v 0.26629032 1.40171888 2.06650776
v 0.96750032 0.93061358 2.01741548
v 0.71938503 1.24601142 2.07361258
v 0.32886604 1.29290713 2.01262021
v -0.07677363 1.66201593 2.20355899
v -0.14512231 1.62550470 2.18515660
v -0.19536381 1.57249300 2.15779201
v -0.26118298 1.42279075 2.07813630
v -0.32047675 1.30584471 2.01920227
v -0.48899516 1.11350313 1.94442813
v -0.67800297 0.99795649 1.93901317
v -0.83939551 0.94748093 1.97381421
v -1.08077892 0.93147362 2.06650773
v -1.19188255 0.95025416 2.12300780
v -1.26428019 0.95543426 2.15785750
v -1.33493674 0.93852650 2.18507914
v -1.40101625 0.89742007 2.20356330
v -0.35915653 1.25104123 1.99427614
v -0.71938503 1.24601142 2.07361258
v -0.95525733 0.93125992 2.01262019
v -1.47773486 0.76451982 2.20355895
v -1.48028945 0.68707230 2.18515646
v -1.45950058 0.61705625 2.15779185
v -1.41888552 0.55707348 2.12300780
v -1.34596451 0.46657256 2.06533056
v -1.23235999 0.23258614 1.96693510
v -1.45957032 -0.61718149 2.15785740
v -1.48025609 -0.68682537 2.18507898
v -1.47769691 -0.76460549 2.20356335
v -1.28925190 0.37148210 2.01703251
v -1.43750000 0.00000000 2.07287931
v -1.28668071 -0.36655264 2.01475804
v -0.26689454 1.40339793 0.66300000
v -0.32052246 1.30584399 0.66300000
v -0.42465180 1.17317859 0.66300050
v -0.55274349 1.06870241 0.66300000
v -0.70540997 0.98622972 0.66300029
v -0.86004778 0.94329585 0.66300000
v -1.02849188 0.92821802 0.66299978
v -1.23654639 0.95650824 0.66299987
v -1.30078991 0.94958296 0.66300000
v -1.37697670 0.91743808 0.66299676
v -1.45236978 0.83852908 0.66300176
v -1.48301260 0.73377674 0.66299809
v -1.47275792 0.65172563 0.66300000
v -1.44771643 0.59447575 0.66299932
v -1.32529692 0.43734688 0.66300027
v -1.23997212 0.25742791 0.66300017
v -1.20636411 0.10185970 0.66300000
v -1.44617359 -0.59183136 0.66299964
v -1.48136530 -0.68088797 0.66300177
v -1.47375202 -0.78692256 0.66299932
v -1.41837140 -0.88284555 0.66299915
v -1.33035425 -0.94245382 0.66300175
v -1.23921411 -0.95651954 0.66299984
v -1.08193098 -0.93283642 0.66300000
v -0.97063284 -0.93050258 0.66300000
v -0.86004778 -0.94329585 0.66300000
v -0.75222226 -0.97097946 0.66300000
v -0.64915170 -1.01304111 0.66300000
v -0.50139503 -1.10401779 0.66300029
v -0.38689428 -1.21647114 0.66300000
v -0.28961439 -1.35480921 0.66299978
v -0.21008725 -1.54913470 0.66299980
v -0.17196801 -1.60130859 0.66300000
v -0.10603631 -1.65121584 0.66299757
v -0.00000264 -1.67705366 0.66300211
v 0.10603699 -1.65121495 0.66299761
v 0.19878937 -1.57268041 0.66300011
v 0.26689454 -1.40339793 0.66300000
v 0.32052246 -1.30584399 0.66300000
v 0.42465180 -1.17317859 0.66300058
v 0.55274349 -1.06870241 0.66300000
v 0.64915170 -1.01304111 0.66300000
v 0.81138666 -0.95199270 0.66299992
v 1.02849188 -0.92821802 0.66299978
v 1.23542846 -0.95643631 0.66299981
v 1.32756572 -0.94339644 0.66300112
v 1.41354844 -0.88794282 0.66300052
v 1.45887156 -0.82183903 0.66300000
v 1.47645175 -0.77162125 0.66300000
v 1.34882553 -0.47056151 0.66300000
v 1.26298198 -0.31906947 0.66300013
v 1.21700401 -0.16595386 0.66300000
v 1.20189518 -0.05566131 0.66300000
v 1.20189518 0.05566131 0.66300000
v 1.21700401 0.16595386 0.66300000
v 1.24694205 0.27317530 0.66300000
v 1.31896994 0.42794237 0.66299946
v 1.44783556 0.59430452 0.66299953
v 1.48186224 0.68857507 0.66299793
v 1.08193098 0.93283642 0.66300000
v 0.90819830 0.93425382 0.66299945
v 0.69368832 0.99084611 0.66300093
v 0.55274349 1.06870241 0.66300000
v 0.41875650 1.17867784 0.66299990
v 0.28961439 1.35480921 0.66299978
v 0.21008725 1.54913470 0.66299976
v 0.15101624 1.62334408 0.66300118
v 0.08077113 1.66084340 0.66300000
v 0.00000264 1.67705366 0.66300176
v -0.10603699 1.65121495 0.66299809
v -0.19878937 1.57268041 0.66300014
v 2.06002501 -0.28314392 -15.48446055
v 2.00228306 -0.56101340 -15.48446055
v 1.98932526 -0.55810189 -15.51460487
v 1.90724238 -0.82843227 -15.48446055
v 1.89480172 -0.82378346 -15.51460485
v 1.77612929 -1.07458294 -15.49719031
v 1.60184951 -1.30551513 -15.51420031
v 1.41929594 -1.51969488 -15.48446055
v 1.40829060 -1.51094105 -15.51534235
v 1.19914478 -1.69880114 -15.48446055
v 1.19093068 -1.68836512 -15.51460488
v 0.69634618 -1.95933037 -15.48446055
v 0.69125229 -1.94706523 -15.51460487
v 0.42306492 -2.03590019 -15.48446055
v 0.41968858 -2.02305566 -15.51460487
v -0.14190277 -2.07454504 -15.48446055
v -0.14301687 -2.06052700 -15.51534233
v -0.42306492 -2.03590019 -15.48446055
v -0.42104447 -2.02277391 -15.51460487
v -0.69634618 -1.95933037 -15.48446055
v -0.95665583 -1.84626194 -15.48446055
v -1.41929594 -1.51969488 -15.48446055
v -1.40776412 -1.51215951 -15.51471177
v -1.60055783 -1.30638468 -15.51471174
v -1.77667337 -1.08041901 -15.48446055
v -1.90724238 -0.82843227 -15.48446055
v -2.00228306 -0.56101340 -15.48446055
v -2.06002501 -0.28314392 -15.48446055
v -1.65654245 -0.36095806 -15.87177835
v -1.65980084 -0.46017167 -15.85829346
v -1.58168133 -0.68189514 -15.85829345
v -1.37559341 -0.99104307 -15.87177835
v -1.47409808 -0.89091615 -15.85829346
v -1.33905519 -1.08334112 -15.85829345
v -1.15505776 -1.23676487 -15.87159258
v -0.67740951 -1.55241248 -15.87192287
v -0.79366128 -1.52954001 -15.85788642
v -0.57319729 -1.62374636 -15.85869745
v -0.35628499 -1.66713870 -15.86819930
v -0.11386008 -1.71818021 -15.85869745
v 0.11548394 -1.68831550 -15.87159258
v 0.12121301 -1.71881917 -15.85771824
v 0.35309668 -1.68573864 -15.85838365
v 0.47433692 -1.62355500 -15.87305905
v 0.57934934 -1.62195759 -15.85838364
v 0.74002733 -1.51290415 -15.87391218
v 0.79545457 -1.52720638 -15.85869746
v 0.97589336 -1.38252592 -15.87159258
v 0.99663759 -1.40561211 -15.85771825
v 1.13360939 -1.24505998 -15.87426960
v 1.17757542 -1.25686443 -15.85838364
v 1.38433080 -0.97716735 -15.87163440
v 1.59919207 -0.56835298 -15.87163539
v 1.67649874 -0.23042945 -15.87159258
v 1.70640465 -0.23084741 -15.85869745
v -3.87358205 -0.53241160 0.01339746
v -3.90984367 -0.53739564 0.05000000
v -3.76500659 -1.05490538 0.01339746
v -3.80025181 -1.06478062 0.05000000
v -3.58629619 -1.55774826 0.01339746
v -3.61986845 -1.57233075 0.05000000
v -3.34077987 -2.03157324 0.01339746
v -3.37205379 -2.05059134 0.05000000
v -3.03303115 -2.46755386 0.01339746
v -3.06142415 -2.49065328 0.05000000
v -2.66878279 -2.85756862 0.01339746
v -2.69376597 -2.88431907 0.05000000
v -2.25482006 -3.19435228 0.01339746
v -2.27592802 -3.22425546 0.05000000
v -1.79885430 -3.47163120 0.01339746
v -1.81569385 -3.50413006 0.05000000
v -1.30937928 -3.68424021 0.01339746
v -1.32163673 -3.71872935 0.05000000
v -0.79551301 -3.82821878 0.01339746
v -0.80296002 -3.86405575 0.05000000
v -0.26682784 -3.90088489 0.01339746
v -0.26932568 -3.93740210 0.05000000
v 0.26682784 -3.90088489 0.01339746
v 0.26932568 -3.93740210 0.05000000
v 0.79551301 -3.82821878 0.01339746
v 0.80296002 -3.86405575 0.05000000
v 1.30937928 -3.68424021 0.01339746
v 1.32163673 -3.71872935 0.05000000
v 1.79885430 -3.47163120 0.01339746
v 1.81569385 -3.50413006 0.05000000
v 2.25482006 -3.19435228 0.01339746
v 2.27592802 -3.22425546 0.05000000
v 2.66878279 -2.85756862 0.01339746
v 2.69376597 -2.88431907 0.05000000
v 3.03303115 -2.46755386 0.01339746
v 3.06142415 -2.49065328 0.05000000
v 3.34077987 -2.03157324 0.01339746
v 3.37205379 -2.05059134 0.05000000
v 3.58629619 -1.55774826 0.01339746
v 3.61986845 -1.57233075 0.05000000
v 3.76500659 -1.05490538 0.01339746
v 3.80025181 -1.06478062 0.05000000
v 3.87358205 -0.53241160 0.01339746
v 3.90984367 -0.53739564 0.05000000
v 3.92089415 -0.51619551 0.33872895
v 3.92480605 -0.51671052 0.32292316
v 3.14038460 -2.40902814 0.33144824
v 2.80034161 -2.79694286 0.33282559
v 2.28288885 -3.23411669 0.32292316
v 1.97933652 -3.42831142 0.32292316
v 1.82124706 -3.51484728 0.32292316
v 1.02457998 -3.82378453 0.32292316
v 0.80774158 -3.87772887 0.31404623
v 0.51671052 -3.92480605 0.32292316
v 0.27248879 -3.95158974 0.31398294
v 0.00000000 -3.95851902 0.33209901
v -0.51198832 -3.92523801 0.33264977
v -0.80541583 -3.87587379 0.32292316
v -1.51174599 -3.65840521 0.33236222
v -1.98229160 -3.42604879 0.33344271
v -2.40988746 -3.14062648 0.32292316
v -2.70200473 -2.89314063 0.32292316
v -3.07131383 -2.49847710 0.32060616
v -3.38273215 -2.05729594 0.32008314
v -3.63122973 -1.57789437 0.31923694
v -3.81226366 -1.06904380 0.31795319
v 2.05297718 -0.27436568 2.20911635
v 2.02917950 -0.54345628 2.20053599
v 1.81939376 -1.04921865 2.20073337
v 1.66715695 -1.27666130 2.20088131
v 1.47106358 -1.49084777 2.20357766
v 1.40770356 -1.51453771 2.20951388
v 1.29030469 -1.64969271 2.20422852
v 1.02606360 -1.82391959 2.20491520
v 0.89545006 -1.88045064 2.20763270
v 0.69461038 -1.95444631 2.20866925
v 0.60164973 -2.00326485 2.20452870
v 0.26413262 -2.07862816 2.20375629
v 0.08795995 -2.07833787 2.20799070
v -0.26365275 -2.07981003 2.20338446
v -0.19084090 -2.07141583 2.20798370
v -0.52942125 -2.02820711 2.20338517
v -0.46575128 -2.02735329 2.20797908
v -0.79231131 -1.93929054 2.20382135
v -1.06066947 -1.80602333 2.20424343
v -1.22032093 -1.68433059 2.20799213
v -1.48017692 -1.49425390 2.19933205
v -1.60864079 -1.31172028 2.20869515
v -1.81737083 -1.05819984 2.19939347
v -1.89337261 -0.82268256 2.20974441
v -1.94100932 -0.80995317 2.19929817
v -2.03073330 -0.54767685 2.19923464
v -2.04484283 -0.28100819 2.20976882
v -2.08524374 -0.27606160 2.19913335
f 14 13 15
f 15 6 14
f 15 16 6
f 16 15 2
f 7 16 17
f 18 3 17
f 19 3 18
f 21 20 22
f 23 21 22
f 24 23 22
f 24 22 25
f 26 24 25
f 42 41 60
f 64 44 63
f 65 45 64
f 66 46 65
f 80 53 33
f 37 32 31
f 38 32 37
f 39 83 32
f 39 32 38
f 61 55 54
f 61 54 60
f 61 60 41
f 62 41 40
f 62 56 55
f 62 40 56
f 62 55 61
f 62 61 41
f 63 44 43
f 64 45 44
f 65 46 45
f 66 47 46
f 67 47 66
f 67 68 47
f 68 67 59
f 59 69 68
f 69 59 58
f 58 70 69
f 70 58 57
f 57 71 70
f 71 57 72
f 72 48 71
f 48 72 73
f 73 74 48
f 74 73 36
f 36 49 74
f 49 36 75
f 75 50 49
f 50 75 76
f 76 51 50
f 51 76 35
f 77 51 35
f 77 52 51
f 34 77 35
f 34 52 77
f 78 53 52
f 78 52 34
f 79 34 33
f 79 33 53
f 79 78 34
f 79 53 78
f 83 82 32
f 113 111 93
f 114 111 113
f 114 112 111
f 114 96 112
f 115 93 92
f 115 113 93
f 116 114 113
f 116 97 114
f 116 113 115
f 117 115 92
f 118 115 117
f 118 97 116
f 118 116 115
f 119 118 117
f 119 92 91
f 119 117 92
f 120 98 118
f 120 118 119
f 121 119 91
f 122 98 120
f 122 120 119
f 122 119 121
f 123 121 91
f 99 122 121
f 99 121 123
f 124 123 90
f 125 100 99
f 125 123 124
f 125 99 123
f 126 125 124
f 126 124 90
f 127 125 126
f 127 100 125
f 128 90 89
f 128 126 90
f 128 127 126
f 129 101 127
f 129 127 128
f 130 128 89
f 131 128 130
f 131 129 128
f 131 101 129
f 132 130 89
f 132 131 130
f 133 102 131
f 133 131 132
f 134 132 88
f 135 133 132
f 135 132 134
f 135 102 133
f 136 134 88
f 137 134 136
f 137 103 135
f 137 135 134
f 138 136 88
f 139 136 138
f 139 137 136
f 139 103 137
f 140 138 87
f 141 104 139
f 141 139 138
f 141 138 140
f 142 140 87
f 142 141 140
f 143 104 141
f 143 141 142
f 144 87 86
f 144 142 87
f 105 143 142
f 105 142 144
f 145 144 86
f 106 144 145
f 106 105 144
f 146 145 86
f 107 106 145
f 107 145 146
f 147 146 85
f 108 107 146
f 108 146 147
f 148 147 85
f 109 108 147
f 109 147 148
f 149 85 84
f 149 148 85
f 149 109 148
f 149 84 94
f 150 94 95
f 150 149 94
f 150 110 109
f 150 95 110
f 150 109 149
f 155 164 156
f 166 164 155
f 166 165 164
f 167 166 155
f 168 155 154
f 168 167 155
f 170 168 154
f 170 169 168
f 172 170 154
f 171 170 172
f 159 171 172
f 173 172 153
f 173 159 172
f 152 173 153
f 175 174 173
f 175 173 152
f 176 175 152
f 177 176 152
f 177 152 178
f 179 177 178
f 160 179 178
f 180 160 178
f 182 180 181
f 183 181 151
f 161 181 183
f 162 161 183
f 184 183 151
f 163 162 183
f 163 183 184
f 185 157 158
f 185 184 157
f 185 163 184
f 221 209 208
f 221 220 209
f 222 220 221
f 222 211 220
f 223 208 207
f 223 221 208
f 224 221 223
f 224 222 221
f 225 207 206
f 225 223 207
f 226 223 225
f 226 224 223
f 227 206 205
f 227 225 206
f 228 226 225
f 228 225 227
f 229 205 204
f 229 227 205
f 230 228 227
f 230 227 229
f 231 204 203
f 231 229 204
f 212 230 229
f 212 229 231
f 232 203 202
f 232 231 203
f 233 212 231
f 233 231 232
f 234 201 200
f 234 202 201
f 234 232 202
f 235 232 234
f 235 233 232
f 236 200 199
f 236 234 200
f 237 235 234
f 237 234 236
f 238 236 199
f 239 237 236
f 239 236 238
f 240 199 198
f 240 239 238
f 240 238 199
f 241 239 240
f 242 197 196
f 242 198 197
f 242 240 198
f 242 241 240
f 243 241 242
f 244 242 196
f 213 243 242
f 213 242 244
f 245 196 195
f 245 244 196
f 245 213 244
f 246 213 245
f 247 194 193
f 247 195 194
f 247 245 195
f 248 245 247
f 248 246 245
f 249 247 193
f 249 214 248
f 249 248 247
f 192 249 193
f 250 214 249
f 250 249 192
f 251 192 191
f 215 192 251
f 215 250 192
f 252 191 190
f 252 215 251
f 252 251 191
f 216 215 252
f 253 252 190
f 253 190 189
f 217 216 252
f 217 252 253
f 254 189 188
f 254 253 189
f 218 217 253
f 218 253 254
f 255 187 186
f 255 188 187
f 255 254 188
f 255 218 254
f 255 186 210
f 255 219 218
f 255 210 219
f 262 700 258
f 262 263 700
f 682 258 257
f 682 262 258
f 261 682 257
f 260 257 256
f 260 261 257
f 259 260 256
f 269 271 741
f 270 272 271
f 270 271 269
f 265 273 272
f 265 272 270
f 266 274 273
f 266 273 265
f 267 274 266
f 268 264 274
f 268 274 267
f 278 275 279
f 278 279 277
f 276 275 278
f 282 287 286
f 283 287 282
f 281 280 284
f 285 281 284
f 269 281 285
f 270 269 285
f 265 270 285
f 284 288 287
f 284 289 288
f 284 280 289
f 284 287 283
f 219 164 165
f 219 210 164
f 218 165 166
f 218 219 165
f 217 166 167
f 217 218 166
f 216 167 168
f 216 217 167
f 215 168 169
f 215 216 168
f 250 169 170
f 250 215 169
f 214 170 171
f 214 250 170
f 248 171 159
f 248 214 171
f 246 159 173
f 246 248 159
f 213 173 174
f 213 246 173
f 243 174 175
f 243 213 174
f 241 175 176
f 241 243 175
f 239 241 176
f 239 176 177
f 237 239 177
f 237 177 179
f 235 237 179
f 235 179 160
f 233 235 160
f 233 160 180
f 233 180 182
f 212 182 181
f 212 233 182
f 230 181 161
f 230 212 181
f 228 230 161
f 226 161 162
f 226 228 161
f 224 162 163
f 224 163 185
f 224 226 162
f 222 224 185
f 211 185 158
f 211 222 185
f 291 186 187
f 292 187 188
f 292 291 187
f 293 188 189
f 293 292 188
f 294 189 190
f 294 293 189
f 295 190 191
f 295 294 190
f 296 295 191
f 297 191 192
f 297 192 193
f 297 296 191
f 298 297 193
f 299 193 194
f 299 298 193
f 300 194 195
f 300 299 194
f 301 195 196
f 301 300 195
f 302 196 197
f 302 301 196
f 303 302 197
f 303 197 198
f 304 303 198
f 304 198 199
f 305 304 199
f 305 199 200
f 306 305 200
f 306 200 201
f 307 306 201
f 307 201 202
f 308 202 203
f 308 307 202
f 309 203 204
f 309 308 203
f 310 204 205
f 310 309 204
f 311 205 206
f 311 310 205
f 312 206 207
f 312 311 206
f 313 207 208
f 313 312 207
f 290 208 209
f 290 313 208
f 83 96 114
f 83 114 97
f 83 39 96
f 82 97 118
f 82 83 97
f 81 82 118
f 80 118 98
f 80 81 118
f 53 98 122
f 53 80 98
f 52 122 99
f 52 53 122
f 51 99 100
f 51 52 99
f 50 100 127
f 50 51 100
f 49 127 101
f 49 50 127
f 74 101 131
f 74 49 101
f 48 131 102
f 48 74 131
f 71 48 102
f 71 102 135
f 71 135 103
f 70 71 103
f 69 70 103
f 69 103 139
f 69 139 104
f 68 69 104
f 47 104 143
f 47 68 104
f 46 143 105
f 46 105 106
f 46 47 143
f 45 46 106
f 44 106 107
f 44 45 106
f 43 107 108
f 43 108 109
f 43 44 107
f 42 43 109
f 41 109 110
f 41 42 109
f 40 110 95
f 40 41 110
f 865 864 322
f 888 325 326
f 333 17 3
f 57 330 72
f 334 321 865
f 334 322 323
f 334 865 322
f 335 323 324
f 335 334 323
f 336 868 867
f 336 867 321
f 336 321 334
f 336 334 335
f 337 324 325
f 337 888 890
f 337 890 892
f 337 892 327
f 337 335 324
f 337 325 888
f 338 336 335
f 338 335 337
f 339 319 320
f 339 320 868
f 339 336 338
f 339 868 336
f 340 338 337
f 340 327 328
f 340 328 895
f 340 337 327
f 341 339 338
f 341 338 340
f 342 895 329
f 342 340 895
f 343 319 339
f 343 317 318
f 343 318 319
f 343 339 341
f 344 329 897
f 344 340 342
f 344 342 329
f 344 341 340
f 345 343 341
f 345 341 344
f 346 897 899
f 346 899 900
f 346 344 897
f 347 316 317
f 347 343 345
f 347 317 343
f 348 344 346
f 348 345 344
f 349 900 902
f 349 902 8
f 349 346 900
f 350 315 316
f 350 345 348
f 350 347 345
f 350 316 347
f 351 346 349
f 351 348 346
f 352 8 9
f 352 9 5
f 352 349 8
f 353 12 13
f 354 17 333
f 354 6 16
f 354 16 7
f 354 7 17
f 354 333 332
f 355 350 348
f 355 314 315
f 355 348 351
f 355 315 350
f 356 351 349
f 356 349 352
f 357 5 10
f 357 10 11
f 357 352 5
f 358 353 13
f 358 13 14
f 358 14 6
f 358 6 354
f 359 354 332
f 359 332 331
f 360 54 314
f 360 314 355
f 360 355 351
f 360 351 356
f 361 356 352
f 361 352 357
f 362 11 12
f 362 353 358
f 362 12 353
f 362 357 11
f 363 354 359
f 363 358 354
f 364 57 58
f 364 331 330
f 364 330 57
f 364 359 331
f 365 60 54
f 365 54 360
f 365 360 356
f 365 356 361
f 366 361 357
f 366 357 362
f 367 358 363
f 367 362 358
f 368 58 59
f 368 359 364
f 368 59 67
f 368 364 58
f 368 363 359
f 369 365 361
f 369 60 365
f 369 42 60
f 369 361 366
f 370 366 362
f 370 362 367
f 371 67 66
f 371 66 65
f 371 363 368
f 371 368 67
f 371 367 363
f 372 43 42
f 372 42 369
f 372 369 366
f 372 366 370
f 373 65 64
f 373 64 63
f 373 370 367
f 373 367 371
f 373 371 65
f 374 63 43
f 374 373 63
f 374 43 372
f 374 372 370
f 374 370 373
f 396 880 382
f 397 396 382
f 397 382 383
f 396 381 880
f 398 397 383
f 398 383 384
f 395 381 396
f 395 883 381
f 399 398 384
f 399 384 385
f 395 380 883
f 400 399 385
f 400 385 875
f 394 380 395
f 401 400 875
f 401 875 1
f 393 380 394
f 393 887 380
f 282 401 1
f 392 887 393
f 392 889 887
f 283 1 30
f 283 282 1
f 391 891 889
f 391 889 392
f 284 30 29
f 284 283 30
f 390 379 891
f 390 891 391
f 285 29 28
f 285 284 29
f 378 379 390
f 265 28 27
f 265 285 28
f 389 378 390
f 894 378 389
f 402 265 27
f 4 402 27
f 377 894 389
f 403 402 4
f 388 377 389
f 26 403 4
f 896 377 388
f 387 896 388
f 25 403 26
f 404 403 25
f 376 896 387
f 376 387 386
f 22 404 25
f 898 376 386
f 898 386 419
f 22 405 404
f 375 898 419
f 375 419 418
f 20 405 22
f 20 406 405
f 901 375 418
f 19 406 20
f 19 407 406
f 8 901 418
f 8 417 416
f 8 418 417
f 18 407 19
f 18 408 407
f 9 8 416
f 17 408 18
f 17 409 408
f 5 9 416
f 5 416 415
f 16 409 17
f 16 410 409
f 10 5 415
f 10 415 414
f 2 410 16
f 2 411 410
f 11 10 414
f 11 414 413
f 15 411 2
f 12 11 413
f 12 413 412
f 13 411 15
f 13 12 412
f 13 412 411
f 322 864 420
f 326 325 886
f 333 3 19
f 72 330 73
f 434 425 426
f 435 856 855
f 435 855 425
f 435 425 434
f 436 426 427
f 436 434 426
f 437 423 424
f 437 424 856
f 437 856 435
f 438 435 434
f 438 434 436
f 439 427 428
f 439 436 427
f 440 421 422
f 440 422 423
f 440 423 437
f 441 435 438
f 441 437 435
f 442 438 436
f 442 436 439
f 443 428 31
f 443 439 428
f 444 323 322
f 444 420 421
f 444 421 440
f 444 322 420
f 445 440 437
f 445 437 441
f 446 438 442
f 446 877 878
f 446 441 438
f 447 439 443
f 447 442 439
f 448 31 32
f 448 443 31
f 449 324 323
f 449 440 445
f 449 323 444
f 449 444 440
f 450 445 441
f 450 879 431
f 450 431 882
f 450 441 446
f 451 442 447
f 451 876 430
f 451 430 877
f 451 877 446
f 451 446 442
f 452 447 443
f 452 443 448
f 453 32 82
f 453 448 32
f 454 325 324
f 454 450 882
f 454 886 325
f 454 882 432
f 454 432 433
f 454 433 886
f 454 324 449
f 454 445 450
f 454 449 445
f 455 878 879
f 455 450 446
f 455 446 878
f 455 879 450
f 456 447 452
f 456 451 447
f 456 1 429
f 456 429 876
f 456 876 451
f 457 452 448
f 457 448 453
f 458 82 81
f 458 453 82
f 459 29 30
f 459 30 1
f 459 1 456
f 459 452 457
f 459 456 452
f 460 453 458
f 460 457 453
f 461 458 81
f 461 81 80
f 462 27 28
f 462 28 29
f 462 457 460
f 462 29 459
f 462 459 457
f 463 458 461
f 463 460 458
f 464 460 463
f 464 27 462
f 464 4 27
f 464 462 460
f 465 463 461
f 465 80 33
f 465 33 34
f 465 461 80
f 466 4 464
f 466 26 4
f 467 463 465
f 467 464 463
f 468 466 464
f 468 26 466
f 468 464 467
f 468 23 24
f 468 24 26
f 469 465 34
f 469 34 35
f 469 35 76
f 469 467 465
f 470 467 469
f 470 468 467
f 471 23 468
f 471 468 470
f 471 332 333
f 471 19 20
f 471 20 21
f 471 21 23
f 471 333 19
f 472 470 469
f 472 469 76
f 472 76 75
f 472 75 36
f 473 331 332
f 473 470 472
f 473 471 470
f 473 332 471
f 474 472 36
f 474 36 73
f 474 330 331
f 474 473 472
f 474 331 473
f 474 73 330
f 512 40 95
f 512 95 475
f 874 475 476
f 874 512 475
f 873 476 477
f 873 874 476
f 872 477 478
f 872 873 477
f 871 478 479
f 871 872 478
f 511 479 480
f 511 871 479
f 510 480 481
f 510 511 480
f 509 481 482
f 509 510 481
f 508 482 483
f 508 509 482
f 507 483 484
f 507 508 483
f 506 484 485
f 506 507 484
f 863 506 485
f 863 485 486
f 861 863 486
f 861 486 487
f 505 861 487
f 505 487 488
f 504 505 488
f 504 488 489
f 503 504 489
f 503 489 490
f 502 490 491
f 502 503 490
f 501 502 491
f 501 491 492
f 500 492 493
f 500 501 492
f 499 493 494
f 499 500 493
f 498 494 495
f 498 499 494
f 497 495 496
f 497 498 495
f 39 497 496
f 39 496 96
f 540 529 530
f 539 540 530
f 539 530 531
f 541 529 540
f 541 528 529
f 538 539 531
f 538 531 532
f 542 528 541
f 542 527 528
f 537 538 532
f 537 532 533
f 543 527 542
f 543 525 526
f 543 526 527
f 536 537 533
f 536 533 534
f 544 525 543
f 535 536 534
f 535 534 84
f 545 525 544
f 545 524 525
f 290 535 84
f 546 523 524
f 546 524 545
f 313 290 84
f 547 521 522
f 547 522 523
f 547 523 546
f 312 84 85
f 312 313 84
f 548 520 521
f 548 521 547
f 311 85 146
f 311 312 85
f 549 519 520
f 549 520 548
f 310 311 146
f 550 519 549
f 309 146 86
f 309 310 146
f 518 519 550
f 551 518 550
f 86 308 309
f 517 551 552
f 517 518 551
f 87 307 308
f 87 308 86
f 516 552 553
f 516 517 552
f 87 306 307
f 515 553 554
f 515 516 553
f 138 306 87
f 138 305 306
f 514 554 555
f 514 515 554
f 88 305 138
f 88 303 304
f 88 304 305
f 513 514 555
f 513 555 556
f 88 302 303
f 93 513 556
f 93 556 291
f 132 302 88
f 93 291 292
f 89 302 132
f 89 301 302
f 92 93 292
f 92 292 293
f 89 299 300
f 89 300 301
f 92 293 294
f 90 299 89
f 90 298 299
f 91 92 294
f 91 294 295
f 90 297 298
f 91 295 296
f 123 297 90
f 123 91 296
f 123 296 297
f 535 290 209
f 535 209 557
f 536 557 558
f 536 535 557
f 537 558 559
f 537 536 558
f 538 559 560
f 538 537 559
f 539 560 561
f 539 561 562
f 539 538 560
f 540 539 562
f 541 562 563
f 541 563 564
f 541 540 562
f 542 564 565
f 542 541 564
f 543 565 566
f 543 542 565
f 544 566 567
f 544 543 566
f 545 544 567
f 546 545 567
f 546 567 568
f 546 568 569
f 547 546 569
f 547 569 570
f 548 547 570
f 549 548 570
f 549 570 571
f 549 571 572
f 550 572 573
f 550 549 572
f 551 550 573
f 552 573 574
f 552 574 575
f 552 551 573
f 553 552 575
f 553 575 576
f 554 576 577
f 554 553 576
f 555 577 578
f 555 554 577
f 556 555 578
f 291 578 186
f 291 556 578
f 803 799 797
f 803 797 581
f 180 151 181
f 178 184 151
f 178 151 180
f 579 580 803
f 155 156 579
f 154 155 579
f 154 157 184
f 154 153 172
f 154 152 153
f 154 581 582
f 154 582 583
f 154 583 584
f 154 584 585
f 154 585 586
f 154 184 178
f 154 586 157
f 154 178 152
f 154 803 581
f 154 579 803
f 211 158 587
f 605 587 783
f 605 211 587
f 604 783 784
f 604 605 783
f 603 784 786
f 603 604 784
f 602 786 787
f 602 603 786
f 777 787 588
f 777 602 787
f 776 588 589
f 776 777 588
f 601 589 790
f 601 776 589
f 600 601 790
f 599 790 791
f 599 600 790
f 772 791 590
f 772 599 791
f 770 590 793
f 770 772 590
f 598 793 795
f 598 770 793
f 768 598 795
f 768 795 796
f 766 768 796
f 766 796 798
f 597 766 798
f 597 798 800
f 764 800 802
f 764 597 800
f 762 764 802
f 762 802 804
f 760 804 591
f 760 762 804
f 596 591 592
f 596 760 591
f 758 592 593
f 758 596 592
f 756 593 594
f 756 758 593
f 595 594 808
f 595 756 594
f 210 808 164
f 210 595 808
f 387 606 386
f 387 607 606
f 387 608 607
f 388 609 608
f 388 608 387
f 616 615 390
f 391 616 390
f 617 616 391
f 618 617 391
f 392 618 391
f 619 610 609
f 619 388 389
f 619 609 388
f 620 611 619
f 620 612 611
f 620 613 612
f 620 389 390
f 620 619 389
f 621 615 614
f 621 620 390
f 621 613 620
f 621 390 615
f 393 625 392
f 393 626 625
f 393 627 626
f 394 628 627
f 394 627 393
f 397 622 396
f 623 622 397
f 624 623 397
f 398 624 397
f 634 394 395
f 634 629 628
f 634 628 394
f 635 395 396
f 635 630 634
f 635 631 630
f 635 632 631
f 635 634 395
f 636 622 633
f 636 635 396
f 636 632 635
f 636 396 622
f 399 277 637
f 399 278 277
f 400 276 278
f 400 278 399
f 282 286 640
f 282 640 401
f 399 637 398
f 641 400 401
f 641 638 276
f 641 640 639
f 641 401 640
f 641 276 400
f 402 266 265
f 402 267 266
f 402 268 267
f 403 268 402
f 643 642 405
f 406 643 405
f 644 643 406
f 645 644 406
f 407 645 406
f 652 646 268
f 652 268 403
f 653 403 404
f 653 648 647
f 653 649 648
f 653 650 649
f 653 647 652
f 653 652 403
f 654 404 405
f 654 642 651
f 654 653 404
f 654 650 653
f 654 405 642
f 408 655 407
f 408 656 655
f 408 657 656
f 409 658 657
f 409 657 408
f 665 664 412
f 413 665 412
f 666 665 413
f 667 666 413
f 414 667 413
f 668 659 658
f 668 409 410
f 668 658 409
f 669 660 668
f 669 661 660
f 669 662 661
f 669 410 411
f 669 668 410
f 670 664 663
f 670 411 412
f 670 669 411
f 670 662 669
f 670 412 664
f 415 671 414
f 415 672 671
f 415 673 672
f 416 674 673
f 416 673 415
f 677 263 418
f 419 677 418
f 678 677 419
f 679 678 419
f 386 679 419
f 680 675 674
f 680 674 416
f 681 259 676
f 681 260 259
f 681 261 260
f 681 416 417
f 681 417 418
f 681 676 680
f 681 680 416
f 682 263 262
f 682 681 418
f 682 418 263
f 682 261 681
f 705 702 703
f 705 703 704
f 701 702 705
f 700 701 705
f 258 705 706
f 258 700 705
f 258 706 707
f 257 707 708
f 257 258 707
f 257 708 709
f 719 714 715
f 719 715 716
f 719 717 718
f 719 716 717
f 256 709 710
f 256 257 709
f 256 710 711
f 720 714 719
f 720 713 714
f 721 713 720
f 722 713 721
f 722 712 713
f 722 711 712
f 723 256 711
f 723 711 722
f 724 256 723
f 691 692 693
f 690 691 693
f 690 693 694
f 690 695 696
f 690 696 697
f 690 694 695
f 689 690 697
f 689 697 698
f 688 689 698
f 687 698 699
f 687 688 698
f 687 699 256
f 686 687 256
f 275 731 279
f 275 729 730
f 275 730 731
f 275 728 729
f 275 727 728
f 732 726 727
f 732 727 275
f 733 726 732
f 733 725 726
f 734 725 733
f 735 725 734
f 735 256 724
f 735 724 725
f 736 256 735
f 745 685 686
f 745 746 685
f 745 686 256
f 747 684 685
f 747 685 746
f 744 745 256
f 744 256 736
f 747 683 684
f 751 752 753
f 744 736 737
f 748 753 683
f 748 683 747
f 749 750 751
f 749 751 753
f 749 753 748
f 743 744 737
f 743 737 738
f 743 738 739
f 742 743 739
f 264 742 739
f 264 739 740
f 272 740 741
f 272 741 271
f 273 264 740
f 273 274 264
f 273 740 272
f 614 615 714
f 614 714 713
f 621 713 712
f 621 614 713
f 613 712 711
f 613 621 712
f 612 613 711
f 612 711 710
f 611 612 710
f 611 710 709
f 611 709 708
f 619 708 707
f 619 611 708
f 610 707 706
f 610 619 707
f 609 706 705
f 609 610 706
f 616 715 714
f 616 714 615
f 617 716 715
f 617 715 616
f 618 717 716
f 618 716 617
f 392 717 618
f 625 718 717
f 625 717 392
f 626 719 718
f 626 718 625
f 627 719 626
f 628 719 627
f 633 622 727
f 633 727 726
f 636 726 725
f 636 633 726
f 632 636 725
f 631 725 724
f 631 632 725
f 631 724 723
f 630 631 723
f 630 723 722
f 634 722 721
f 634 630 722
f 629 721 720
f 629 634 721
f 628 720 719
f 628 629 720
f 622 728 727
f 623 728 622
f 624 729 728
f 624 728 623
f 398 730 729
f 398 729 624
f 637 731 730
f 637 730 398
f 277 279 731
f 277 731 637
f 289 280 740
f 289 740 739
f 288 739 738
f 288 289 739
f 287 738 737
f 287 288 738
f 286 737 736
f 286 287 737
f 286 736 735
f 640 735 734
f 640 286 735
f 640 734 733
f 639 640 733
f 641 733 732
f 641 639 733
f 638 732 275
f 638 641 732
f 276 638 275
f 281 741 740
f 281 740 280
f 269 741 281
f 651 642 748
f 651 748 747
f 654 747 746
f 654 651 747
f 650 654 746
f 649 746 745
f 649 650 746
f 649 745 744
f 648 649 744
f 648 744 743
f 647 648 743
f 652 743 742
f 652 647 743
f 646 742 264
f 646 652 742
f 268 646 264
f 643 749 748
f 643 748 642
f 644 749 643
f 645 750 749
f 645 751 750
f 645 749 644
f 407 751 645
f 655 752 751
f 655 751 407
f 656 753 752
f 656 752 655
f 657 753 656
f 658 753 657
f 663 664 690
f 663 690 689
f 670 689 688
f 670 663 689
f 662 688 687
f 662 670 688
f 661 662 687
f 661 687 686
f 660 661 686
f 660 686 685
f 668 685 684
f 668 660 685
f 659 684 683
f 659 668 684
f 658 683 753
f 658 659 683
f 665 691 690
f 665 690 664
f 666 692 691
f 666 691 665
f 667 693 692
f 667 692 666
f 414 693 667
f 671 694 693
f 671 693 414
f 672 695 694
f 672 694 671
f 673 696 695
f 673 695 672
f 674 696 673
f 259 256 699
f 676 699 698
f 676 259 699
f 680 698 697
f 680 676 698
f 675 697 696
f 675 680 697
f 674 675 696
f 677 701 700
f 677 700 263
f 678 701 677
f 679 702 701
f 679 701 678
f 386 703 702
f 386 702 679
f 606 704 703
f 606 703 386
f 607 704 606
f 608 705 704
f 608 704 607
f 609 705 608
f 754 186 578
f 595 210 186
f 595 186 754
f 755 578 577
f 755 754 578
f 756 595 754
f 756 754 755
f 757 577 576
f 757 755 577
f 758 756 755
f 758 755 757
f 759 576 575
f 759 757 576
f 759 758 757
f 759 596 758
f 574 759 575
f 760 596 759
f 760 759 574
f 761 574 573
f 761 760 574
f 762 760 761
f 763 573 572
f 763 761 573
f 764 761 763
f 764 762 761
f 571 763 572
f 597 764 763
f 597 763 571
f 765 571 570
f 766 571 765
f 766 597 571
f 767 570 569
f 767 765 570
f 768 765 767
f 768 766 765
f 568 767 569
f 598 768 767
f 598 767 568
f 769 568 567
f 769 598 568
f 770 598 769
f 771 566 565
f 771 567 566
f 771 769 567
f 772 770 769
f 772 769 771
f 773 771 565
f 599 771 773
f 599 772 771
f 774 565 564
f 774 773 565
f 600 773 774
f 600 599 773
f 563 774 564
f 563 600 774
f 601 600 563
f 775 563 562
f 776 601 563
f 776 563 775
f 561 775 562
f 777 775 561
f 777 776 775
f 778 560 559
f 778 561 560
f 602 777 561
f 602 561 778
f 779 778 559
f 603 602 778
f 603 778 779
f 780 559 558
f 780 779 559
f 604 603 779
f 604 779 780
f 781 557 209
f 781 558 557
f 781 780 558
f 781 209 220
f 605 781 220
f 605 220 211
f 605 604 780
f 605 780 781
f 782 157 586
f 587 158 157
f 587 157 782
f 783 587 782
f 585 782 586
f 784 783 782
f 784 782 585
f 786 784 585
f 786 585 785
f 785 585 584
f 787 786 785
f 788 785 584
f 588 787 785
f 588 785 788
f 583 588 788
f 583 788 584
f 589 588 583
f 790 589 583
f 790 583 789
f 789 583 582
f 791 790 789
f 792 789 582
f 792 791 789
f 792 590 791
f 581 792 582
f 793 792 581
f 793 590 792
f 794 793 581
f 795 793 794
f 797 794 581
f 796 794 797
f 796 795 794
f 798 796 797
f 800 798 797
f 800 797 799
f 801 799 803
f 801 800 799
f 802 800 801
f 804 802 801
f 804 801 803
f 805 803 580
f 591 803 805
f 591 804 803
f 592 591 805
f 806 592 805
f 806 580 579
f 806 805 580
f 593 592 806
f 594 593 806
f 807 579 156
f 807 806 579
f 807 156 164
f 808 594 806
f 808 807 164
f 808 806 807
f 96 496 112
f 809 94 84
f 809 84 534
f 810 95 94
f 810 475 95
f 810 94 809
f 811 534 533
f 811 809 534
f 812 810 809
f 812 475 810
f 812 476 475
f 812 809 811
f 813 533 532
f 813 811 533
f 814 477 476
f 814 812 811
f 814 476 812
f 814 811 813
f 815 532 531
f 815 813 532
f 816 814 813
f 816 813 815
f 816 478 477
f 816 479 478
f 816 477 814
f 817 816 815
f 817 531 530
f 817 815 531
f 818 479 816
f 818 816 817
f 819 530 529
f 819 817 530
f 820 817 819
f 820 479 818
f 820 480 479
f 820 818 817
f 821 529 528
f 821 819 529
f 822 819 821
f 822 481 480
f 822 820 819
f 822 480 820
f 823 821 528
f 823 527 526
f 823 528 527
f 824 822 821
f 824 481 822
f 824 482 481
f 824 821 823
f 825 823 526
f 826 824 823
f 826 483 482
f 826 484 483
f 826 823 825
f 826 482 824
f 827 826 825
f 827 525 524
f 827 526 525
f 827 825 526
f 828 484 826
f 828 826 827
f 829 827 524
f 830 484 828
f 830 485 484
f 830 828 827
f 830 827 829
f 831 524 523
f 831 829 524
f 832 486 485
f 832 830 829
f 832 485 830
f 832 829 831
f 833 831 523
f 833 522 521
f 833 523 522
f 833 832 831
f 834 832 833
f 834 487 486
f 834 486 832
f 835 521 520
f 835 833 521
f 836 488 487
f 836 834 833
f 836 487 834
f 836 833 835
f 837 835 520
f 838 835 837
f 838 489 488
f 838 488 836
f 838 836 835
f 839 520 519
f 839 837 520
f 839 838 837
f 840 490 489
f 840 489 838
f 840 838 839
f 841 519 518
f 841 839 519
f 842 840 839
f 842 491 490
f 842 490 840
f 842 839 841
f 843 517 516
f 843 518 517
f 843 841 518
f 844 491 842
f 844 841 843
f 844 842 841
f 844 492 491
f 845 843 516
f 846 492 844
f 846 843 845
f 846 493 492
f 846 844 843
f 847 516 515
f 847 846 845
f 847 845 516
f 848 493 846
f 848 846 847
f 848 494 493
f 849 514 513
f 849 515 514
f 849 847 515
f 850 848 847
f 850 494 848
f 850 847 849
f 850 495 494
f 851 513 93
f 851 849 513
f 851 93 111
f 851 111 112
f 852 850 849
f 852 495 850
f 852 851 112
f 852 496 495
f 852 112 496
f 852 849 851
f 427 497 428
f 426 498 427
f 425 499 426
f 855 500 425
f 856 501 855
f 424 502 856
f 871 511 319
f 872 871 318
f 873 872 317
f 874 873 316
f 512 874 315
f 55 314 54
f 56 314 55
f 40 512 314
f 40 314 56
f 853 37 31
f 853 31 428
f 853 428 497
f 854 38 37
f 854 39 38
f 854 497 39
f 854 37 853
f 854 853 497
f 427 498 497
f 426 499 498
f 425 500 499
f 855 501 500
f 856 502 501
f 424 503 502
f 857 424 423
f 857 503 424
f 858 503 857
f 858 504 503
f 858 857 423
f 859 423 422
f 859 504 858
f 859 858 423
f 422 504 859
f 422 505 504
f 505 422 421
f 860 861 505
f 860 505 421
f 861 421 420
f 861 860 421
f 862 863 861
f 862 861 420
f 863 420 864
f 863 862 420
f 864 506 863
f 506 864 865
f 865 507 506
f 866 865 321
f 866 507 865
f 321 508 507
f 321 507 866
f 508 321 867
f 867 509 508
f 509 867 868
f 868 510 509
f 510 868 320
f 869 510 320
f 869 511 510
f 870 320 319
f 870 869 320
f 870 511 869
f 870 319 511
f 871 319 318
f 872 318 317
f 873 317 316
f 874 316 315
f 512 315 314
f 876 429 875
f 430 876 385
f 877 430 384
f 878 877 383
f 879 878 382
f 896 895 377
f 376 329 896
f 898 897 376
f 375 899 898
f 901 900 375
f 8 902 901
f 875 429 1
f 876 875 385
f 430 385 384
f 877 384 383
f 878 383 382
f 879 382 880
f 881 879 880
f 881 431 879
f 881 880 381
f 881 882 431
f 882 881 381
f 882 381 883
f 883 432 882
f 884 883 380
f 885 433 432
f 885 432 883
f 885 883 884
f 885 884 380
f 433 885 380
f 886 380 887
f 886 433 380
f 887 326 886
f 888 887 889
f 888 326 887
f 890 888 889
f 890 889 891
f 892 891 379
f 892 890 891
f 892 379 378
f 893 892 378
f 893 327 892
f 893 378 894
f 893 328 327
f 894 328 893
f 895 328 894
f 895 894 377
f 896 329 895
f 897 329 376
f 899 897 898
f 900 899 375
f 902 900 901

