# https://github.com/mikedh/trimesh
v 25.40000000 -23.40000000 -593.89259779
v 25.40000000 -23.40000000 593.89259779
v 25.40000000 37.60000000 593.89259779
v 25.40000000 37.60000000 -593.89259779
v -23.93275511 25.32773753 593.89259779
v -24.17837463 25.24231727 593.89259779
v -24.41083464 25.12575008 593.89259779
v -24.62620508 24.98000668 593.89259779
v -24.82084482 24.80755106 593.89259779
v -24.99146320 24.61129884 593.89259779
v -25.13517568 24.39456793 593.89259779
v -25.24955260 24.16102246 593.89259779
v -25.33266026 23.91461084 593.89259779
v -25.38309361 23.65949902 593.89259779
v -25.40000000 23.40000000 593.89259779
v -25.40000000 -23.40000000 593.89259779
v -25.38288972 -23.66105238 593.89259779
v -25.33185165 -23.91763809 593.89259779
v -25.24775907 -24.16536686 593.89259779
v -25.13205081 -24.40000000 593.89259779
v -24.98670668 -24.61752286 593.89259779
v -24.81421356 -24.81421356 593.89259779
v -24.61752286 -24.98670668 593.89259779
v -24.40000000 -25.13205081 593.89259779
v -24.16536686 -25.24775907 593.89259779
v -23.91763809 -25.33185165 593.89259779
v -23.66105238 -25.38288972 593.89259779
v -23.40000000 -25.40000000 593.89259779
v 23.40000000 -25.40000000 593.89259779
v 23.66105238 -25.38288972 593.89259779
v 23.91763809 -25.33185165 593.89259779
v 24.16536686 -25.24775907 593.89259779
v 24.40000000 -25.13205081 593.89259779
v 24.61752286 -24.98670668 593.89259779
v 24.81421356 -24.81421356 593.89259779
v 24.98670668 -24.61752286 593.89259779
v 25.13205081 -24.40000000 593.89259779
v 25.24775907 -24.16536686 593.89259779
v 25.33185165 -23.91763809 593.89259779
v 25.38288972 -23.66105238 593.89259779
v 25.39587917 37.66406129 593.89259779
v 25.38358460 37.72706664 593.89259779
v 25.36331896 37.78797750 593.89259779
v 25.33541628 37.84578988 593.89259779
v 25.30033649 37.89955082 593.89259779
v 25.25865783 37.94837417 593.89259779
v 25.21106730 37.99145515 593.89259779
v 25.15834934 38.02808366 593.89259779
v 25.10137294 38.05765592 593.89259779
v 25.04107723 38.07968450 593.89259779
v 24.97845611 38.09380628 593.89259779
v 24.91454176 38.09978849 593.89259779
v 24.84840515 38.09344807 593.89259779
v 24.78369308 38.07839483 593.89259779
v 18.92425824 38.09978849 -593.89259779
v 18.79772277 38.07968450 -593.89259779
v 18.86034389 38.09380628 -593.89259779
v -25.40000000 23.40000000 -593.89259779
v -25.38288972 23.66105238 -593.89259779
v -25.33185165 23.91763809 -593.89259779
v -25.24775907 24.16536686 -593.89259779
v -25.13205081 24.40000000 -593.89259779
v -24.98670668 24.61752286 -593.89259779
v -24.81421356 24.81421356 -593.89259779
v -24.61752286 24.98670668 -593.89259779
v -24.40000000 25.13205081 -593.89259779
v -24.16536686 25.24775907 -593.89259779
v -23.91763809 25.33185165 -593.89259779
v -25.40000000 -23.40000000 -593.89259779
v -23.40000000 -25.40000000 -593.89259779
v -23.66105238 -25.38288972 -593.89259779
v -23.91763809 -25.33185165 -593.89259779
v -24.16536686 -25.24775907 -593.89259779
v -24.40000000 -25.13205081 -593.89259779
v -24.61752286 -24.98670668 -593.89259779
v -24.81421356 -24.81421356 -593.89259779
v -24.98670668 -24.61752286 -593.89259779
v -25.13205081 -24.40000000 -593.89259779
v -25.24775907 -24.16536686 -593.89259779
v -25.33185165 -23.91763809 -593.89259779
v -25.38288972 -23.66105238 -593.89259779
v 23.40000000 -25.40000000 -593.89259779
v 25.38288972 -23.66105238 -593.89259779
v 25.33185165 -23.91763809 -593.89259779
v 25.24775907 -24.16536686 -593.89259779
v 25.13205081 -24.40000000 -593.89259779
v 24.98670668 -24.61752286 -593.89259779
v 24.81421356 -24.81421356 -593.89259779
v 24.61752286 -24.98670668 -593.89259779
v 24.40000000 -25.13205081 -593.89259779
v 24.16536686 -25.24775907 -593.89259779
v 23.91763809 -25.33185165 -593.89259779
v 23.66105238 -25.38288972 -593.89259779
v 24.91454176 38.09978849 -593.89259779
v 24.97845611 38.09380628 -593.89259779
v 25.04107723 38.07968450 -593.89259779
v 25.10137294 38.05765592 -593.89259779
v 25.15834934 38.02808366 -593.89259779
v 25.21106730 37.99145515 -593.89259779
v 25.25865783 37.94837417 -593.89259779
v 25.30033649 37.89955082 -593.89259779
v 25.33541628 37.84578988 -593.89259779
v 25.36331896 37.78797750 -593.89259779
v 25.38358460 37.72706664 -593.89259779
v 25.39587917 37.66406129 -593.89259779
v 18.91880000 38.09959984 570.49259779
v 18.84969206 38.09199571 570.49259779
v 18.78230702 38.07487887 570.49259779
v 18.92425824 38.09978849 570.49260110
v 25.60000000 7.07695447 56.25552042
v 25.60000000 7.12594394 56.27924847
v 25.60000000 8.75573294 56.38218923
v 25.60000000 34.53735509 42.18713115
v 25.60000000 7.10104876 28.54974526
v 25.60000000 7.58983001 28.47837246
f 111 2 110
f 112 113 3
f 112 3 2
f 2 111 112
f 108 5 54
f 66 65 7
f 3 113 41
f 113 105 41
f 110 2 1
f 108 54 107
f 56 5 108
f 56 68 5
f 108 107 56
f 5 68 67
f 8 7 65
f 110 1 114
f 106 109 55
f 52 109 106
f 57 56 107
f 57 106 55
f 107 106 57
f 5 67 6
f 6 67 66
f 66 7 6
f 14 58 15
f 63 62 10
f 10 62 11
f 60 12 61
f 12 11 61
f 61 11 62
f 4 105 113
f 52 106 53
f 53 106 107
f 53 107 54
f 13 12 60
f 58 14 59
f 14 13 59
f 59 13 60
f 9 63 10
f 1 4 115
f 115 114 1
f 115 4 113
f 63 9 64
f 64 9 8
f 64 8 65
f 109 94 55
f 52 94 109
f 29 28 82
f 82 28 70
f 58 69 16
f 16 15 58
f 51 94 52
f 51 95 94
f 46 45 101
f 100 46 101
f 101 45 44
f 44 102 101
f 103 44 43
f 103 102 44
f 49 48 98
f 98 97 49
f 104 42 41
f 104 41 105
f 43 42 104
f 104 103 43
f 115 112 111
f 115 111 110
f 113 112 115
f 110 114 115
f 99 47 46
f 99 46 100
f 48 47 99
f 99 98 48
f 95 51 96
f 51 50 96
f 49 97 96
f 96 50 49
f 86 37 36
f 86 36 87
f 38 37 86
f 86 85 38
f 40 83 1
f 40 1 2
f 88 36 35
f 87 36 88
f 35 34 88
f 88 34 89
f 29 82 30
f 82 93 30
f 18 80 79
f 18 79 19
f 16 69 81
f 81 17 16
f 81 18 17
f 80 18 81
f 70 28 27
f 27 71 70
f 27 72 71
f 26 72 27
f 73 72 25
f 25 72 26
f 74 25 24
f 73 25 74
f 79 78 20
f 19 79 20
f 20 78 77
f 77 21 20
f 75 74 23
f 23 74 24
f 38 85 39
f 85 84 39
f 83 40 39
f 39 84 83
f 91 90 33
f 32 91 33
f 89 34 33
f 33 90 89
f 69 58 92
f 76 77 92
f 60 61 92
f 92 65 66
f 105 4 92
f 66 67 92
f 92 82 70
f 55 94 92
f 1 83 92
f 92 57 55
f 92 75 76
f 92 93 82
f 94 95 92
f 68 56 92
f 92 67 68
f 95 96 92
f 92 104 105
f 92 59 60
f 100 101 92
f 92 99 100
f 56 57 92
f 62 63 92
f 92 61 62
f 92 78 79
f 70 71 92
f 92 86 87
f 92 101 102
f 102 103 92
f 92 4 1
f 97 98 92
f 58 59 92
f 92 64 65
f 92 81 69
f 73 74 92
f 92 84 85
f 92 90 91
f 103 104 92
f 98 99 92
f 92 96 97
f 63 64 92
f 87 88 92
f 79 80 92
f 92 72 73
f 85 86 92
f 92 88 89
f 77 78 92
f 80 81 92
f 71 72 92
f 92 74 75
f 83 84 92
f 89 90 92
f 32 31 92
f 92 91 32
f 92 30 93
f 92 31 30
f 46 47 22
f 22 15 16
f 2 3 22
f 10 11 22
f 3 41 22
f 22 42 43
f 49 50 22
f 22 14 15
f 12 13 22
f 22 34 35
f 22 54 5
f 22 51 52
f 22 28 29
f 22 18 19
f 22 48 49
f 43 44 22
f 22 45 46
f 5 6 22
f 7 8 22
f 22 9 10
f 22 40 2
f 22 47 48
f 44 45 22
f 41 42 22
f 35 36 22
f 22 6 7
f 52 53 22
f 22 11 12
f 16 17 22
f 22 37 38
f 22 50 51
f 22 53 54
f 22 13 14
f 8 9 22
f 22 31 32
f 29 30 22
f 36 37 22
f 22 27 28
f 22 23 24
f 38 39 22
f 24 25 22
f 19 20 22
f 17 18 22
f 26 27 22
f 22 25 26
f 30 31 22
f 22 20 21
f 32 33 22
f 22 39 40
f 22 33 34
f 22 77 76
f 22 21 77
f 76 75 22
f 75 23 22

