# https://github.com/mikedh/trimesh
v 0.00000000 64.00000000 53.69762979
v -0.06526310 64.00000000 53.70190736
v -0.12940952 64.00000000 53.71466688
v -0.19134172 64.00000000 53.73569003
v -0.25000000 64.00000000 53.76461709
v 0.00000000 0.00000000 53.69762979
v -0.25000000 0.00000000 53.76461709
v -0.19134172 0.00000000 53.73569003
v -0.12940952 0.00000000 53.71466688
v -0.06526310 0.00000000 53.70190736
v -40.01798936 22.86067432 -71.26182145
v -39.78495765 15.54955509 -71.26266087
v -40.81013544 20.75430114 -70.99956698
v -40.46327167 14.39445930 -71.14355063
v -40.12973041 14.97228431 -71.23251928
v 39.78495765 15.03094308 -71.26266087
v -39.92544216 64.00000135 -71.26156679
v -40.46865805 54.10775202 -71.15898769
v -40.56265017 64.00269872 -71.12036831
v -39.78554902 28.48657097 -71.26263773
v -39.96912849 30.56626948 -71.25413590
v -40.09341533 27.93295933 -71.24318231
v -42.11214430 26.35003337 -70.26503613
v -40.49020586 28.96654861 -71.13377381
v -40.57396315 29.97962688 -71.09977503
v -40.31242153 30.16529400 -71.19158201
v -39.78495765 54.21290520 -71.26266087
v -40.77725422 52.48214092 -70.99797603
v -40.46327108 53.05887712 -71.14355073
v -40.12972951 53.63616848 -71.23251933
v -39.78495765 46.43572601 -71.26266087
v -40.51623074 22.69915132 -71.12412697
v -40.04395533 0.00000000 -71.24576212
v -40.29848962 0.00000000 -71.19535258
v -40.54431276 0.00000000 -71.11228747
v -43.30263785 0.11884077 -69.50034175
v -0.32099926 22.00458281 -71.26266087
v -0.00010000 20.55376119 -71.26266087
v -0.00010000 22.48803857 -71.26266087
v -0.00010000 35.72590324 -71.26266087
v -0.00010000 40.65876326 -71.26266087
v -6.89424243 32.41841009 -71.26266087
v -37.48933422 3.00037540 -71.26266087
v -0.00010000 41.68928298 -71.26266087
v -0.00010000 46.62179005 -71.26266087
v -39.78502820 -0.00000000 -71.26266087
v -0.00010000 0.00000000 -71.26266087
v -0.00010000 19.52149464 -71.26266087
v 0.00010000 19.52149450 -71.26266087
v 0.00010000 0.00000000 -71.26266087
v 39.96170276 20.85901410 -71.25947874
v 16.84324952 46.71153950 -71.26266087
v 16.89591639 14.94871939 -71.26266087
v 0.00010000 46.62178992 -71.26266087
v 0.00010000 41.68928285 -71.26266087
v 0.31055517 41.17391113 -71.26266087
v 0.30962370 35.87320856 -71.26266087
v 0.00010000 40.65876313 -71.26266087
v 0.00010000 35.72590311 -71.26266087
v 39.78502820 -0.00000000 -71.26266087
v 2.42482319 25.21261390 -71.26266087
v 0.00010000 22.48803843 -71.26266087
v 0.00010000 20.55376106 -71.26266087
v -0.06079620 35.59721337 -71.26266087
v -0.06074808 22.74537480 -71.26266087
v -0.00010000 22.74533316 -71.26266087
v -0.00010000 35.46844217 -71.26266087
v 0.00010000 35.46844203 -71.26266087
v 0.00010000 22.74533303 -71.26266087
v -0.00010000 46.87941979 -71.26266087
v -0.00010000 54.94698519 -71.26266087
v -4.28929677 56.32954907 -71.26266087
v -23.34120327 60.52259478 -71.26266087
v -0.00010000 55.20478471 -71.26266087
v -0.00010000 64.00000000 -71.26266087
v -1.28665522 44.53202232 -71.26266087
v 4.91349817 45.42111585 -71.26266087
v 40.20486251 55.69117266 -71.25204472
v 39.78495765 64.00000000 -71.26266087
v 40.40835865 63.99928288 -71.23941810
v 0.00010000 64.00000000 -71.26266087
v 0.00010000 55.20478458 -71.26266087
v 4.73889193 55.95593449 -71.26266087
v 0.00010000 54.94698506 -71.26266087
v 0.00010000 46.87941965 -71.26266087
v -15.68661447 10.96312663 -71.26266087
v 42.60171878 21.55406112 -69.95128485
v 40.46327163 14.39139751 -71.14355069
v 40.12973022 14.45365523 -71.23251932
v 40.46327148 13.87581329 -71.14355070
v 39.88294630 29.82354897 -71.26082719
v 40.44609154 28.80819483 -71.15265095
v 40.24178138 23.28765828 -71.24706168
v 40.46327104 53.59902974 -71.14355109
v 40.77725422 53.02065784 -70.99797603
v 41.06178841 27.80384719 -70.84327342
v 40.69968682 30.07829060 -71.04027076
v 40.30567182 30.52055622 -71.19342230
v 40.80505772 0.00166504 -70.99599505
v 40.29848962 0.00000000 -71.19535258
v 40.04395533 0.00000000 -71.24576212
v -71.21321020 30.07141845 -40.22902758
v -71.15572079 23.40042603 -40.43700812
v -71.23812835 22.99674452 -40.09536011
v -71.16574061 22.82313069 -40.39794397
v -71.09180841 22.70748374 -40.59190213
v -70.99797603 52.86700745 -40.77725422
v -70.44323706 21.93995588 -41.78743225
v -71.08004256 30.07833266 -40.61824337
v -71.20440970 30.43566865 -40.26324784
v -71.26266087 31.24548144 -39.78495765
v -71.23251913 54.02431421 -40.12973250
v -71.14355034 53.44538440 -40.46327310
v -71.23570673 55.35154392 -40.25259141
v -71.26266087 64.00000000 -39.78495765
v -71.10040532 63.99618456 -40.65462920
v -71.14355030 14.23802406 -40.46327269
v -71.23251911 14.81604827 -40.12973159
v -71.26266087 15.39351763 -39.78495765
v -71.26266087 14.87761411 -39.78495765
v -71.26266087 0.00000000 -39.78495765
v -71.23251905 14.30033118 -40.12973174
v -71.14355018 13.72249318 -40.46327293
v -70.99797603 13.14520880 -40.77725422
v -69.47423540 0.13082010 -43.36753990
v -71.11229419 0.00000000 -40.54429646
v -71.19536167 0.00000000 -40.29845554
v -71.24576900 0.00000000 -40.04390287
v -43.88928240 8.19411632 -69.11749382
v -49.81000153 0.00047896 -64.98340653
v -64.97447206 0.00074238 -49.82305709
v -70.52619431 12.03688446 -41.63988924
v -56.69469935 0.04356380 -59.14625478
v -50.75015855 9.12338994 -64.25386142
v -64.13132140 9.26983112 -50.90529483
v -62.44664957 8.13430204 -52.97346395
v -61.46025149 0.25326820 -54.09671614
v -59.98015194 9.02167593 -55.74007361
v -54.57131396 8.78437783 -61.04540426
v -68.69809809 27.67565984 -44.55542049
v -47.02620933 23.15704959 -67.03670032
v -56.20028155 43.19719003 -59.56071671
v -49.76891552 64.00000000 -65.01193821
v -57.89428755 64.00000000 -57.89428755
v -65.01193821 64.00000000 -49.76891552
v -43.90354615 63.71877734 -69.12927217
v -68.81183044 63.72218158 -44.39635850
v -63.40750628 43.35024394 -51.81955224
v -66.31494410 42.73123016 -48.02472746
v -51.46547098 43.72715877 -63.71179108
v -46.70217791 40.15076873 -67.25207104
v -66.00326787 24.12423068 -48.48560176
v -50.51183253 24.01076770 -64.45189622
v -60.86005400 37.12081660 -54.80718503
v 40.04717664 22.72466074 71.26083218
v 40.10161970 27.42689904 71.24083962
v 39.78495765 54.11066068 71.26266087
v 39.79960140 28.68066729 71.26262751
v 39.90863194 30.56620875 71.25882260
v 40.25164786 30.16523319 71.20724134
v 40.47418801 28.85970041 71.14046261
v 40.66175596 29.87743499 71.05935608
v 42.42482745 26.71376542 70.06435121
v 40.77725422 52.37988776 70.99797603
v 40.46327108 52.95662663 71.14355074
v 40.12972950 53.53392066 71.23251933
v 40.35081840 54.06689613 71.21320326
v 40.40214110 64.00055803 71.23291460
v 39.78495765 64.00000000 71.26266087
v 40.57486831 22.16737846 71.13103063
v 40.46327179 14.80280666 71.14355061
v 41.10811404 0.00107613 70.86295983
v 43.26697029 0.11908264 69.52228166
v 41.11597776 13.26948461 70.87545690
v 40.12973038 14.86999561 71.23251928
v 39.78495765 15.44726273 71.26266087
v 39.78495765 0.00000000 71.26266087
v 40.04390287 0.00000000 71.24576900
v 40.29845554 0.00000000 71.19536167
v 44.47850590 0.26687068 -68.75337778
v 41.63949550 12.25762236 -70.53739768
v 69.10739799 7.96768626 -43.90820194
v 71.08335795 14.41884824 -40.62421594
v 70.32213203 0.09587924 -41.95353268
v 65.01193821 0.00000000 -49.76891552
v 57.97167346 0.01642600 -57.86633854
v 60.22466355 8.86831599 -55.48884237
v 64.30528462 9.12911822 -50.68415161
v 62.92991022 0.25581250 -52.40061911
v 50.34121432 0.01206997 -64.59705472
v 53.75582117 8.51220731 -61.77197662
v 50.96734647 9.18817849 -64.08249706
v 48.80987083 22.65408623 -65.76013689
v 70.99797603 52.32882014 -40.77725422
v 70.07921856 26.71012113 -42.40020863
v 45.92721338 26.83373728 -67.81012107
v 53.12966982 27.16157393 -62.30485359
v 67.63354191 23.07993859 -46.18168882
v 65.01193821 64.00000000 -49.76891552
v 58.00187697 63.99949914 -57.79695380
v 49.76891552 64.00000000 -65.01193821
v 61.16454138 33.73053223 -54.44760478
v 68.71905249 63.72804781 -44.52812619
v 44.46545008 63.72236380 -68.76716985
v 51.88943313 43.34662771 -63.35026857
v 48.10662135 42.75676223 -66.25568585
v 63.98428844 43.76373273 -51.11534651
v 67.30406774 40.14529123 -46.62718061
v 71.21332743 54.06868907 -40.35011976
v 64.50798721 24.01062571 -50.44017970
v 56.00463642 39.53167011 -59.74572155
v 71.12984864 28.78068298 -40.49980030
v 71.26266087 54.05959470 -39.78495765
v 71.26046133 30.56621041 -39.87861606
v 71.23804646 27.92035299 -40.11368245
v 71.19156433 30.09625297 -40.31248591
v 71.06315063 29.86330276 -40.65396562
v 71.14354973 52.90556139 -40.46327383
v 71.23251883 53.48285596 -40.12973239
v 71.26266087 64.00000000 -39.78495765
v 71.23305504 64.00065141 -40.40077532
v 71.14355064 14.24103907 -40.46327165
v 71.23251928 14.81885970 -40.12973038
v 71.26266087 15.39612610 -39.78495765
v 71.26266087 0.00000000 -39.78495765
v 71.24576900 0.00000000 -40.04390287
v 71.19536167 0.00000000 -40.29845554
v 71.11229419 0.00000000 -40.54429646
v 71.08790154 22.82426163 40.61399489
v 71.23297843 23.19116372 40.13659688
v 70.88583030 22.47479601 40.98112867
v 71.16574081 22.85719011 40.39794334
v 71.09180860 22.74154348 40.59190172
v 70.99797603 52.96942405 40.77725422
v 69.81193220 27.11540000 42.83428095
v 71.05386704 30.07829236 40.67288626
v 71.15810220 28.47690869 40.43113969
v 71.20139007 30.52055702 40.27529759
v 71.26266087 31.34769941 39.78495765
v 71.23251915 54.12673085 40.12973242
v 71.14355037 53.54780100 40.46327302
v 71.25642611 55.67179442 40.19601456
v 71.26266087 64.00000000 39.78495765
v 71.09854020 63.99595843 40.65982339
v 70.99797603 13.76279757 40.77725422
v 71.14355069 14.34026804 40.46327164
v 71.23251931 14.91829286 40.12973048
v 71.26266087 15.49576353 39.78495765
v 71.26266087 14.97982616 39.78495765
v 71.26266087 0.00000000 39.78495765
v 71.23251931 14.40254179 40.12973026
v 71.14355069 13.82470328 40.46327152
v 70.99797603 13.24741932 40.77725422
v 71.11229419 0.00000000 40.54429646
v 71.19536167 0.00000000 40.29845554
v 71.24576900 0.00000000 40.04390287
v 69.04446348 21.22561433 44.01597494
v 60.82025610 37.08997941 54.85127356
v 49.80598458 0.00041290 64.98620349
v 69.45301482 0.13075461 43.40233957
v 69.34034418 8.33366192 43.53611649
v 56.66939945 0.04489458 59.17188208
v 54.85121343 8.80436392 60.79767366
v 50.70354173 9.12526988 64.29051006
v 63.40019016 9.08301858 51.83771735
v 64.23807670 0.02522656 50.81851295
v 59.97752938 9.01807166 55.74484243
v 46.98462057 23.20384126 67.06578202
v 49.76891552 64.00000000 65.01193821
v 57.67580215 63.99931611 58.12614232
v 65.01193821 64.00000000 49.76891552
v 54.46918864 33.69944619 61.14527427
v 44.55197548 63.72802824 68.70359259
v 68.78204576 63.72225917 44.44245370
v 63.36935709 43.34778270 51.86614553
v 66.27548037 42.74812195 48.07928822
v 51.13812183 43.76195096 63.96606767
v 46.65218441 40.14708708 67.28674601
v 65.96941357 24.09336448 48.53169404
v 50.46407255 24.01066691 64.48929775
v 71.26266087 63.74967253 -17.99851541
v 71.26266087 63.74967149 -17.73341641
v 71.26266087 59.55802530 -19.89936309
v 71.26266087 29.23533885 -39.78495765
v 71.26154398 24.23138914 39.94777000
v 71.26266087 51.75781697 23.31338506
v 71.26266087 55.22281429 39.78495751
v 71.26266087 63.74975503 -29.51469752
v 71.26266087 63.74975265 -29.24876296
v 71.26266087 58.30324492 -36.90930651
v 71.26266087 60.64000939 -28.91573867
v 71.26266087 63.74970971 -24.43026529
v 71.26266087 63.74970021 -23.36518289
v 71.26266087 63.74964149 5.29975959
v 71.26266087 63.74964559 9.86300550
v 71.26266087 54.61664414 7.74981740
v 71.26266087 56.16850433 -10.22572370
v 71.26266087 63.74965013 -10.36429488
v 71.26266087 63.74964979 -10.09939276
v 71.26266087 63.74964382 -5.53626575
v 71.26266087 63.74964347 -5.27145264
v 71.26266087 56.17651272 -5.24188864
v 71.26266087 46.58564763 -8.32290767
v 71.26266087 56.17672053 4.99550246
v 71.26266087 63.74964125 5.03494550
v 71.26266087 38.08525570 26.08671523
v 71.26023297 22.59128140 -40.23479527
v 71.26266087 0.25018819 -32.83253802
v 71.26266087 1.16735613 -19.30389992
v 71.26266087 0.25032218 -19.72000073
v 71.26266087 3.14017808 -33.59596310
v 71.26266087 16.57150867 11.01539456
v -39.78495765 14.92870484 71.26266087
v -39.78495765 0.00000000 71.26266087
v -40.12973020 14.35142038 71.23251932
v -40.46327146 13.77358183 71.14355071
v -40.77725422 13.19629787 70.99797603
v -40.77725422 0.00000000 70.99797603
v -40.54429646 0.00000000 71.11229419
v -40.29845554 0.00000000 71.19536167
v -40.04390287 0.00000000 71.24576900
v -39.78495765 15.44462545 71.26266087
v -40.09535953 23.01375942 71.23812844
v -40.39794333 22.84014535 71.16574082
v -40.59190172 22.72449875 71.09180860
v -40.46327160 14.28912995 71.14355070
v -40.12973044 14.86715476 71.23251931
v -42.06645880 21.80265724 70.28156644
v -40.42559137 23.37629802 71.15953205
v -40.77725422 52.91819447 70.99797603
v -40.98282360 27.78665215 70.88994813
v -40.64574393 30.07829529 71.06712442
v -40.29363942 30.43563157 71.19663987
v -40.00443047 28.88703572 71.25517045
v -39.78495765 31.29657559 71.26266087
v -40.12973033 54.07549935 71.23251951
v -40.46327103 53.49656979 71.14355109
v -40.19542114 55.65539659 71.25659013
v -39.78495765 64.00000000 71.26266087
v -40.49347172 64.00338749 71.15589268
v -71.26266087 54.16176181 39.78495765
v -71.26266087 63.06366456 26.91477701
v -71.26266087 58.46277012 30.75274948
v -71.26266087 63.74978610 -29.83111795
v -71.26266087 63.74978372 -29.56562028
v -71.26266087 55.12046962 -39.78495754
v -71.26266087 60.41574390 -28.70675251
v -71.26038936 23.77011368 -39.98431761
v -71.26266087 63.74969918 -18.02414010
v -71.26266087 63.74970029 -18.28903339
v -71.26266087 58.47615950 -19.02273810
v -71.26266087 63.74973055 -23.65501676
v -71.26266087 63.74974013 -24.72008570
v -71.26266087 64.00000000 39.78495765
v -71.26262186 28.24361290 39.79643142
v -71.26266087 63.74970682 23.42580755
v -71.26266087 60.31675961 20.78765017
v -71.26266087 63.74968234 18.05914178
v -71.26266087 63.74968147 17.79404285
v -71.26266087 40.12680006 -27.71735779
v -71.26266087 56.17674520 -4.93487423
v -71.26266087 63.74966589 -4.97431505
v -71.26266087 63.74966631 -5.23912911
v -71.26266087 56.18189137 -9.66370207
v -71.26266087 63.74967366 -9.80237472
v -71.26266087 63.74967409 -10.06727103
v -71.26266087 56.16851939 10.28635060
v -71.26263400 22.78177978 39.87542489
v -71.26266087 63.74966472 10.42492311
v -71.26266087 63.74966455 10.16002104
v -71.26266087 52.74444009 7.20327131
v -71.26266087 63.74966153 5.59689486
v -71.26266087 63.74966136 5.33208180
v -71.26266087 56.17653079 5.30251606
v -71.26266087 15.49839262 39.78495765
v -71.26266087 38.08529117 -26.02609067
v -71.26266087 0.00000000 39.78495765
v -71.26266087 4.46774071 30.74201205
v -71.26266087 48.45670671 -11.45199624
v -71.26266087 0.25020899 32.89314092
v -71.26266087 0.25034455 19.51241133
v -71.26266087 0.25034351 19.78060578
v -71.26266087 1.65187548 18.54079234
v -71.26266087 13.30582969 -0.18560111
v -70.99797603 13.76603727 40.77725422
v -69.51132200 0.11896028 43.28479382
v -71.14355063 14.34330418 40.46327168
v -71.23251928 14.92112552 40.12973042
v -71.24576900 0.00000000 40.04390287
v -71.19536167 0.00000000 40.29845554
v -71.11229419 0.00000000 40.54429646
v -70.46216753 12.63739639 41.77371430
v -71.12412704 22.68190677 40.51623055
v -71.21922589 22.80404060 40.19743332
v -71.23251926 15.43190668 40.12973067
v -71.14355059 14.85394873 40.46327185
v -71.23812888 23.16050917 40.09536165
v -71.16574183 22.98545784 40.39794347
v -71.13132460 28.79536553 40.49584498
v -71.21924361 29.00153624 40.19745437
v -71.25172053 29.13887994 39.99245689
v -71.25671747 30.56621833 39.93879644
v -71.19965614 30.16524309 40.28207646
v -71.17401258 30.09625996 40.37268320
v -71.10656894 29.97093962 40.55801430
v -71.02025332 29.53919667 40.73824074
v -70.99797603 52.43098787 40.77725422
v -71.14355073 53.00772710 40.46327110
v -71.23251933 53.58502147 40.12972953
v -71.25255010 54.01746797 40.26162589
v -70.94886224 63.98246004 40.90354156
v -71.25626721 64.00000661 40.08365760
v -57.89428755 0.00000000 57.89428755
v -50.32172242 0.01201896 64.61147522
v -44.56878407 0.26289309 68.69114917
v -41.64867206 12.09922084 70.52135700
v -60.35868390 8.86280927 55.32477426
v -61.51003051 0.25049400 54.03714655
v -64.66332937 0.01230950 50.25006483
v -61.52851032 8.78990078 54.01684316
v -64.27217574 9.12439563 50.72686881
v -55.60142833 9.04660220 60.11913701
v -54.23723302 0.25052403 61.33367441
v -54.26560386 7.82269207 61.30857444
v -70.72482128 21.76818563 41.28229097
v -51.26334251 9.35869120 63.85089551
v -48.53850205 19.89215679 65.95930763
v -69.12243477 27.65433279 43.89920612
v -44.57828051 27.66989864 68.68329225
v -53.08350090 27.16168820 62.34419402
v -67.05123437 23.18061907 47.00543147
v -42.61624656 60.27749660 69.91124390
v -65.01193821 64.00000000 49.76891552
v -58.11973525 63.99932354 57.68202808
v -49.76891552 64.00000000 65.01193821
v -61.12599428 33.66880775 54.49077186
v -68.68811389 63.72803904 44.57583519
v -44.41941206 63.72218625 68.79693983
v -51.84285464 43.34897902 63.38843409
v -46.83035195 39.75072123 67.16170108
v -48.98494619 44.70497119 65.58454801
v -63.94784158 43.76018500 51.16088719
v -67.26941836 40.14889895 46.67717692
v -48.53312062 25.49465998 65.96807103
v -64.47060452 24.01072525 50.48795199
v -55.78513332 43.18861442 59.94790134
v -39.99245450 23.60192798 71.26082665
v -27.27796164 45.15021898 71.26266087
v -39.78495742 55.17161308 71.26266087
v 29.54500143 63.74974459 71.26266087
v 29.27906693 63.74974231 71.26266087
v 36.93961262 58.30323296 71.26266087
v 28.36560359 58.37518014 71.26266087
v 24.46057029 63.74970099 71.26266087
v 23.39548812 63.74969185 71.26266087
v 18.02882166 63.74966549 71.26266087
v 17.76372269 63.74966451 71.26266087
v 19.92967044 59.55801809 71.26266087
v -4.60189089 55.95173723 71.26266087
v 10.25603292 56.16849946 71.26266087
v 10.39460223 63.74964479 71.26266087
v 10.12970014 63.74964450 71.26266087
v 8.84754272 55.62870241 71.26266087
v 5.56657363 63.74963944 71.26266087
v 5.28697935 59.96307391 71.26266087
v -26.05640399 38.08525630 71.26266087
v 25.09772403 16.00351822 71.26266087
v 12.88021319 41.63728853 71.26266087
v -12.91251293 50.58136984 71.26266087
v 32.86283929 0.25019716 71.26266087
v 18.99630073 0.95109499 71.26266087
v 19.75030480 0.25032864 71.26266087
v -3.79636827 6.95561411 71.26266087
v 68.26266087 0.00000000 -1.00000000
v 68.26266087 0.00000000 -3.32500000
v 68.26266087 64.00000000 -1.00000000
v 68.26266087 64.00000000 -3.32500000
v 1.00000000 0.00000000 68.26266087
v 3.32500000 0.00000000 68.26266087
v 1.00000000 64.00000000 68.26266087
v 3.32500000 64.00000000 68.26266087
v -68.26266087 0.00000000 1.00000000
v -68.26266087 0.00000000 3.32500000
v -68.26266087 64.00000000 1.00000000
v -68.26266087 64.00000000 3.32500000
v 68.26266087 64.00000000 39.51527392
v 68.26266087 64.00000000 5.32500000
v 68.26266087 0.00000000 5.32500000
v 68.26266087 0.00000000 39.51527392
v 68.26266087 0.00000000 -5.32500000
v 68.26266087 0.00000000 -39.51527392
v 68.26266087 64.00000000 -5.32500000
v 68.26266087 64.00000000 -39.51527392
v -39.51527392 64.00000000 68.26266087
v -5.32500000 64.00000000 68.26266087
v -5.32500000 0.00000000 68.26266087
v -39.51527392 0.00000000 68.26266087
v 5.32500000 0.00000000 68.26266087
v 39.51527392 0.00000000 68.26266087
v 5.32500000 64.00000000 68.26266087
v 39.51527392 64.00000000 68.26266087
v -68.26266087 64.00000000 -39.51527392
v -68.26266087 64.00000000 -5.32500000
v -68.26266087 0.00000000 -5.32500000
v -68.26266087 0.00000000 -39.51527392
v -68.26266087 0.00000000 5.32500000
v -68.26266087 0.00000000 39.51527392
v -68.26266087 64.00000000 5.32500000
v -68.26266087 64.00000000 39.51527392
v -1.00000000 0.00000000 -68.26266087
v -3.32500000 0.00000000 -68.26266087
v -1.00000000 64.00000000 -68.26266087
v -3.32500000 64.00000000 -68.26266087
v 39.51527392 64.00000000 -68.26266087
v 5.82500000 64.00000000 -68.26266087
v 5.82500000 0.00000000 -68.26266087
v 39.51527392 0.00000000 -68.26266087
v -5.82500000 0.00000000 -68.26266087
v -39.51527392 0.00000000 -68.26266087
v -5.82500000 64.00000000 -68.26266087
v -39.51527392 64.00000000 -68.26266087
v 56.55033214 64.00000000 -5.07500000
v 53.76461709 64.00000000 -0.25000000
v 53.73569003 64.00000000 -0.19134172
v 53.71466688 64.00000000 -0.12940952
v 53.70190736 64.00000000 -0.06526310
v 53.69762979 64.00000000 -0.00000000
v 53.70190736 64.00000000 0.06526310
v 53.71466688 64.00000000 0.12940952
v 53.73569003 64.00000000 0.19134172
v 53.76461709 64.00000000 0.25000000
v 56.55033214 64.00000000 5.07500000
v 56.58666817 64.00000000 5.12938071
v 56.62979145 64.00000000 5.17855339
v 56.67896413 64.00000000 5.22167667
v 56.73334484 64.00000000 5.25801270
v 56.79200313 64.00000000 5.28693977
v 56.85393532 64.00000000 5.30796291
v 56.91808175 64.00000000 5.32072243
v 56.98334484 64.00000000 5.32500000
v 48.05164239 64.00000000 62.54828060
v 55.77296721 64.00000000 55.77296721
v 62.54828060 64.00000000 48.05164239
v 5.32500000 64.00000000 56.98334484
v 5.32072243 64.00000000 56.91808175
v 5.30796291 64.00000000 56.85393532
v 5.28693977 64.00000000 56.79200313
v 5.25801270 64.00000000 56.73334484
v 5.22167667 64.00000000 56.67896413
v 5.17855339 64.00000000 56.62979145
v 5.12938071 64.00000000 56.58666817
v 5.07500000 64.00000000 56.55033214
v 0.25000000 64.00000000 53.76461709
v 0.19134172 64.00000000 53.73569003
v 0.12940952 64.00000000 53.71466688
v 0.06526310 64.00000000 53.70190736
v -5.07500000 64.00000000 56.55033214
v -5.12938071 64.00000000 56.58666817
v -5.17855339 64.00000000 56.62979145
v -5.22167667 64.00000000 56.67896413
v -5.25801270 64.00000000 56.73334484
v -5.28693977 64.00000000 56.79200313
v -5.30796291 64.00000000 56.85393532
v -5.32072243 64.00000000 56.91808175
v -5.32500000 64.00000000 56.98334484
v -62.54828060 64.00000000 48.05164239
v -55.77296721 64.00000000 55.77296721
v -48.05164239 64.00000000 62.54828060
v -56.98334484 64.00000000 5.32500000
v -56.91808175 64.00000000 5.32072243
v -56.85393532 64.00000000 5.30796291
v -56.79200313 64.00000000 5.28693977
v -56.73334484 64.00000000 5.25801270
v -56.67896413 64.00000000 5.22167667
v -56.62979145 64.00000000 5.17855339
v -56.58666817 64.00000000 5.12938071
v -56.55033214 64.00000000 5.07500000
v -53.76461709 64.00000000 0.25000000
v -53.73569003 64.00000000 0.19134172
v -53.71466688 64.00000000 0.12940952
v -53.70190736 64.00000000 0.06526310
v -53.69762979 64.00000000 0.00000000
v -53.70190736 64.00000000 -0.06526310
v -53.71466688 64.00000000 -0.12940952
v -53.73569003 64.00000000 -0.19134172
v -53.76461709 64.00000000 -0.25000000
v -56.55033214 64.00000000 -5.07500000
v -56.58666817 64.00000000 -5.12938071
v -56.62979145 64.00000000 -5.17855339
v -56.67896413 64.00000000 -5.22167667
v -56.73334484 64.00000000 -5.25801270
v -56.79200313 64.00000000 -5.28693977
v -56.85393532 64.00000000 -5.30796291
v -56.91808175 64.00000000 -5.32072243
v -56.98334484 64.00000000 -5.32500000
v -48.05164239 64.00000000 -62.54828060
v -55.77296721 64.00000000 -55.77296721
v -62.54828060 64.00000000 -48.05164239
v -5.75973690 64.00000000 -68.25838330
v -5.69559048 64.00000000 -68.24562378
v -5.63365828 64.00000000 -68.22460063
v -5.57500000 64.00000000 -68.19567357
v -5.52061929 64.00000000 -68.15933754
v -5.47144661 64.00000000 -68.11621426
v -5.42832333 64.00000000 -68.06704158
v -5.39198730 64.00000000 -68.01266087
v -5.36306023 64.00000000 -67.95400258
v -5.34203709 64.00000000 -67.89207039
v -5.32927757 64.00000000 -67.82792396
v -5.32500000 64.00000000 -67.76266087
v -5.32500000 64.00000000 -56.98334484
v -5.32072243 64.00000000 -56.91808175
v -5.30796291 64.00000000 -56.85393532
v -5.28693977 64.00000000 -56.79200313
v -5.25801270 64.00000000 -56.73334484
v -5.22167667 64.00000000 -56.67896413
v -5.17855339 64.00000000 -56.62979145
v -5.12938071 64.00000000 -56.58666817
v -5.07500000 64.00000000 -56.55033214
v -0.25000000 64.00000000 -53.76461709
v -0.19134172 64.00000000 -53.73569003
v -0.12940952 64.00000000 -53.71466688
v -0.06526310 64.00000000 -53.70190736
v -0.00000000 64.00000000 -53.69762979
v 0.06526310 64.00000000 -53.70190736
v 0.12940952 64.00000000 -53.71466688
v 0.19134172 64.00000000 -53.73569003
v 0.25000000 64.00000000 -53.76461709
v 5.07500000 64.00000000 -56.55033214
v 5.12938071 64.00000000 -56.58666817
v 5.17855339 64.00000000 -56.62979145
v 5.22167667 64.00000000 -56.67896413
v 5.25801270 64.00000000 -56.73334484
v 5.28693977 64.00000000 -56.79200313
v 5.30796291 64.00000000 -56.85393532
v 5.32072243 64.00000000 -56.91808175
v 5.32500000 64.00000000 -56.98334484
v 5.32500000 64.00000000 -67.76266087
v 5.32927757 64.00000000 -67.82792396
v 5.34203709 64.00000000 -67.89207039
v 5.36306023 64.00000000 -67.95400258
v 5.39198730 64.00000000 -68.01266087
v 5.42832333 64.00000000 -68.06704158
v 5.47144661 64.00000000 -68.11621426
v 5.52061929 64.00000000 -68.15933754
v 5.57500000 64.00000000 -68.19567357
v 5.63365828 64.00000000 -68.22460063
v 5.69559048 64.00000000 -68.24562378
v 5.75973690 64.00000000 -68.25838330
v 62.54828060 64.00000000 -48.05164239
v 55.77296721 64.00000000 -55.77296721
v 48.05164239 64.00000000 -62.54828060
v 56.98334484 64.00000000 -5.32500000
v 56.91808175 64.00000000 -5.32072243
v 56.85393532 64.00000000 -5.30796291
v 56.79200313 64.00000000 -5.28693977
v 56.73334484 64.00000000 -5.25801270
v 56.67896413 64.00000000 -5.22167667
v 56.62979145 64.00000000 -5.17855339
v 56.58666817 64.00000000 -5.12938071
v 68.26266087 64.00000000 3.32500000
v 68.26266087 64.00000000 1.00000000
v 57.84937025 64.00000000 3.32500000
v 55.92968060 64.00000000 -0.00000000
v 57.84937025 64.00000000 -3.32500000
v 63.96617421 64.00000000 -1.00000000
v 63.96617421 64.00000000 1.00000000
v -3.32500000 64.00000000 68.26266087
v -1.00000000 64.00000000 68.26266087
v -3.32500000 64.00000000 57.84937025
v 0.00000000 64.00000000 55.92968060
v 3.32500000 64.00000000 57.84937025
v 1.00000000 64.00000000 63.96617421
v -1.00000000 64.00000000 63.96617421
v -68.26266087 64.00000000 -3.32500000
v -68.26266087 64.00000000 -1.00000000
v -57.84937025 64.00000000 -3.32500000
v -55.92968060 64.00000000 0.00000000
v -57.84937025 64.00000000 3.32500000
v -63.96617421 64.00000000 1.00000000
v -63.96617421 64.00000000 -1.00000000
v 3.32500000 64.00000000 -68.26266087
v 1.00000000 64.00000000 -68.26266087
v 3.32500000 64.00000000 -57.84937025
v 0.00000000 64.00000000 -55.92968060
v -3.32500000 64.00000000 -57.84937025
v -1.00000000 64.00000000 -63.96617421
v 1.00000000 64.00000000 -63.96617421
v 57.84937025 0.00000000 3.32500000
v 68.26266087 0.00000000 3.32500000
v 55.92968060 0.00000000 -0.00000000
v 57.84937025 0.00000000 -3.32500000
v 63.96617421 0.00000000 -1.00000000
v 63.96617421 0.00000000 1.00000000
v 68.26266087 0.00000000 1.00000000
v -3.32500000 0.00000000 57.84937025
v -3.32500000 0.00000000 68.26266087
v 0.00000000 0.00000000 55.92968060
v 3.32500000 0.00000000 57.84937025
v 1.00000000 0.00000000 63.96617421
v -1.00000000 0.00000000 63.96617421
v -1.00000000 0.00000000 68.26266087
v -57.84937025 0.00000000 -3.32500000
v -68.26266087 0.00000000 -3.32500000
v -55.92968060 0.00000000 0.00000000
v -57.84937025 0.00000000 3.32500000
v -63.96617421 0.00000000 1.00000000
v -63.96617421 0.00000000 -1.00000000
v -68.26266087 0.00000000 -1.00000000
v 3.32500000 0.00000000 -57.84937025
v 3.32500000 0.00000000 -68.26266087
v 0.00000000 0.00000000 -55.92968060
v -3.32500000 0.00000000 -57.84937025
v -1.00000000 0.00000000 -63.96617421
v 1.00000000 0.00000000 -63.96617421
v 1.00000000 0.00000000 -68.26266087
v 56.98334484 0.00000000 5.32500000
v 56.91808175 0.00000000 5.32072243
v 56.85393532 0.00000000 5.30796291
v 56.79200313 0.00000000 5.28693977
v 56.73334484 0.00000000 5.25801270
v 56.67896413 0.00000000 5.22167667
v 56.62979145 0.00000000 5.17855339
v 56.58666817 0.00000000 5.12938071
v 56.55033214 0.00000000 5.07500000
v 48.05164239 0.00000000 62.54828060
v 55.77296721 0.00000000 55.77296721
v 62.54828060 0.00000000 48.05164239
v 5.32500000 0.00000000 56.98334484
v 5.07500000 0.00000000 56.55033214
v 5.12938071 0.00000000 56.58666817
v 5.17855339 0.00000000 56.62979145
v 5.22167667 0.00000000 56.67896413
v 5.25801270 0.00000000 56.73334484
v 5.28693977 0.00000000 56.79200313
v 5.30796291 0.00000000 56.85393532
v 5.32072243 0.00000000 56.91808175
v 0.25000000 0.00000000 53.76461709
v 0.06526310 0.00000000 53.70190736
v 0.12940952 0.00000000 53.71466688
v 0.19134172 0.00000000 53.73569003
v -5.07500000 0.00000000 56.55033214
v -5.32500000 0.00000000 56.98334484
v -5.32072243 0.00000000 56.91808175
v -5.30796291 0.00000000 56.85393532
v -5.28693977 0.00000000 56.79200313
v -5.25801270 0.00000000 56.73334484
v -5.22167667 0.00000000 56.67896413
v -5.17855339 0.00000000 56.62979145
v -5.12938071 0.00000000 56.58666817
v -62.54828060 0.00000000 48.05164239
v -55.77296721 0.00000000 55.77296721
v -48.05164239 0.00000000 62.54828060
v -56.98334484 0.00000000 5.32500000
v -56.55033214 0.00000000 5.07500000
v -56.58666817 0.00000000 5.12938071
v -56.62979145 0.00000000 5.17855339
v -56.67896413 0.00000000 5.22167667
v -56.73334484 0.00000000 5.25801270
v -56.79200313 0.00000000 5.28693977
v -56.85393532 0.00000000 5.30796291
v -56.91808175 0.00000000 5.32072243
v -53.76461709 0.00000000 0.25000000
v -53.76461709 0.00000000 -0.25000000
v -53.73569003 0.00000000 -0.19134172
v -53.71466688 0.00000000 -0.12940952
v -53.70190736 0.00000000 -0.06526310
v -53.69762979 0.00000000 0.00000000
v -53.70190736 0.00000000 0.06526310
v -53.71466688 0.00000000 0.12940952
v -53.73569003 0.00000000 0.19134172
v -56.55033214 0.00000000 -5.07500000
v -56.98334484 0.00000000 -5.32500000
v -56.91808175 0.00000000 -5.32072243
v -56.85393532 0.00000000 -5.30796291
v -56.79200313 0.00000000 -5.28693977
v -56.73334484 0.00000000 -5.25801270
v -56.67896413 0.00000000 -5.22167667
v -56.62979145 0.00000000 -5.17855339
v -56.58666817 0.00000000 -5.12938071
v -48.05164239 0.00000000 -62.54828060
v -55.77296721 0.00000000 -55.77296721
v -62.54828060 0.00000000 -48.05164239
v -5.32500000 0.00000000 -67.76266087
v -5.32927757 0.00000000 -67.82792396
v -5.34203709 0.00000000 -67.89207039
v -5.36306023 0.00000000 -67.95400258
v -5.39198730 0.00000000 -68.01266087
v -5.42832333 0.00000000 -68.06704158
v -5.47144661 0.00000000 -68.11621426
v -5.52061929 0.00000000 -68.15933754
v -5.57500000 0.00000000 -68.19567357
v -5.63365828 0.00000000 -68.22460063
v -5.69559048 0.00000000 -68.24562378
v -5.75973690 0.00000000 -68.25838330
v -5.32500000 0.00000000 -56.98334484
v -5.07500000 0.00000000 -56.55033214
v -5.12938071 0.00000000 -56.58666817
v -5.17855339 0.00000000 -56.62979145
v -5.22167667 0.00000000 -56.67896413
v -5.25801270 0.00000000 -56.73334484
v -5.28693977 0.00000000 -56.79200313
v -5.30796291 0.00000000 -56.85393532
v -5.32072243 0.00000000 -56.91808175
v -0.25000000 0.00000000 -53.76461709
v 0.25000000 0.00000000 -53.76461709
v 0.19134172 0.00000000 -53.73569003
v 0.12940952 0.00000000 -53.71466688
v 0.06526310 0.00000000 -53.70190736
v -0.00000000 0.00000000 -53.69762979
v -0.06526310 0.00000000 -53.70190736
v -0.12940952 0.00000000 -53.71466688
v -0.19134172 0.00000000 -53.73569003
v 5.07500000 0.00000000 -56.55033214
v 5.32500000 0.00000000 -56.98334484
v 5.32072243 0.00000000 -56.91808175
v 5.30796291 0.00000000 -56.85393532
v 5.28693977 0.00000000 -56.79200313
v 5.25801270 0.00000000 -56.73334484
v 5.22167667 0.00000000 -56.67896413
v 5.17855339 0.00000000 -56.62979145
v 5.12938071 0.00000000 -56.58666817
v 5.32500000 0.00000000 -67.76266087
v 5.75973690 0.00000000 -68.25838330
v 5.69559048 0.00000000 -68.24562378
v 5.63365828 0.00000000 -68.22460063
v 5.57500000 0.00000000 -68.19567357
v 5.52061929 0.00000000 -68.15933754
v 5.47144661 0.00000000 -68.11621426
v 5.42832333 0.00000000 -68.06704158
v 5.39198730 0.00000000 -68.01266087
v 5.36306023 0.00000000 -67.95400258
v 5.34203709 0.00000000 -67.89207039
v 5.32927757 0.00000000 -67.82792396
v 62.54828060 0.00000000 -48.05164239
v 55.77296721 0.00000000 -55.77296721
v 48.05164239 0.00000000 -62.54828060
v 56.98334484 0.00000000 -5.32500000
v 56.55033214 0.00000000 -5.07500000
v 56.58666817 0.00000000 -5.12938071
v 56.62979145 0.00000000 -5.17855339
v 56.67896413 0.00000000 -5.22167667
v 56.73334484 0.00000000 -5.25801270
v 56.79200313 0.00000000 -5.28693977
v 56.85393532 0.00000000 -5.30796291
v 56.91808175 0.00000000 -5.32072243
v 53.76461709 0.00000000 -0.25000000
v 53.76461709 0.00000000 0.25000000
v 53.73569003 0.00000000 0.19134172
v 53.71466688 0.00000000 0.12940952
v 53.70190736 0.00000000 0.06526310
v 53.69762979 0.00000000 -0.00000000
v 53.70190736 0.00000000 -0.06526310
v 53.71466688 0.00000000 -0.12940952
v 53.73569003 0.00000000 -0.19134172
v 64.61163993 44.20498474 50.36886970
v 70.03029337 60.09009496 42.51405721
v 69.90333397 60.19534601 42.72248765
v 64.48642534 44.34908145 50.52908070
v 42.45816189 60.31870375 70.06419584
v 42.27361917 60.09814955 70.17569503
v 50.06726632 44.16166142 64.84563126
v 46.50926484 39.48799877 67.44312667
v 67.21989056 39.86746333 46.83066994
v 67.23805986 39.49095714 46.80523856
v 68.64891737 35.94070583 44.71032537
v 50.22359977 44.16180621 64.72461770
v 39.78495588 23.51840462 -71.31266087
v 39.78495588 23.41925408 -71.31266087
v 39.78495588 23.22095300 -71.31266087
v 39.78495765 23.41925408 -71.31266087
v 39.08998981 23.76056420 -71.31266087
v 40.12908395 23.25648255 -71.28130569
v 39.78495765 15.54689975 -71.31266087
v 39.78495765 15.37491419 -71.31266087
v 40.13838211 14.71154055 -71.28176282
v 26.11707402 38.08526147 -71.31266087
v 26.24223882 38.39744236 -71.31266087
v 23.71867281 39.92555958 -71.31266087
v 39.78495588 31.39888238 -71.31266087
v 39.78495588 30.77869134 -71.31266087
v 39.78495588 29.53830924 -71.31266087
v 39.78495765 30.77869134 -71.31266087
v 24.39593220 57.77789549 -71.31266087
v 24.07214322 55.83858820 -71.31266087
v 39.49984340 29.80890795 -71.31266087
v 40.07463467 30.10114710 -71.29190587
v 39.78495765 55.10144752 -71.31266087
v 40.13838263 54.43699494 -71.28176292
v 50.39281891 44.20500100 -64.59296287
v 42.53996035 60.09012066 -70.01456151
v 42.74834489 60.19537189 -69.88752434
v 50.55298258 44.34909785 -64.46768960
v 70.07991298 60.31871709 -42.43221473
v 70.19134291 60.09816275 -42.24763225
v 64.86418305 44.16167287 -50.04322939
v 67.46033752 39.48800544 -46.48429748
v 46.85554868 39.86747485 -67.20255126
v 46.83012544 39.49096819 -67.22072896
v 44.73578101 35.94071217 -68.63233165
v 64.74322727 44.16181770 -50.19960789
v 39.78495588 59.54399267 -71.31266087
v 39.78495588 59.45691929 -71.31266087
v 40.02925957 59.47638268 -71.29781790
v 36.59181316 58.55109389 -71.31266087
v 38.05578463 57.67873534 -71.31266087
v 39.78495765 55.27400704 -71.31266087
v 37.24082736 58.40522676 -71.31266087
v 37.25973547 58.61311677 -71.31266087
v -39.78495765 15.54955509 -71.31266087
v -39.96167046 15.77178265 -71.29721176
v -39.78495677 15.89017572 -71.31266087
v -26.44029791 38.05797566 -71.31266087
v -39.99766438 29.15919830 -71.30144583
v -39.30523510 29.73814244 -71.31266087
v -39.78495765 30.88136641 -71.31266087
v -39.78495765 30.35296731 -71.31266087
v -40.10315173 23.17775297 -71.28751301
v -39.78495765 23.05415938 -71.31266087
v -38.80969115 23.75634800 -71.31266087
v -39.78495765 23.25290948 -71.31266087
v -39.78495765 59.62781952 -71.31266087
v -40.07147705 59.56968086 -71.29223965
v -40.13838149 53.89362775 -71.28176279
v -39.78495765 54.72784016 -71.31266087
v -39.78495765 54.55619541 -71.31266087
v -37.72291782 57.68803151 -71.31266087
v -39.78495765 59.54008990 -71.31266087
v -36.93227976 58.61563666 -71.31266087
v -64.64895976 44.20504136 -50.32096037
v -70.06177154 60.09014655 -42.46216220
v -69.93496823 60.19539786 -42.67068396
v -64.52386305 44.34913835 -50.48126531
v -42.51003166 60.31879327 -70.03273705
v -42.32556899 60.09823894 -70.14437440
v -50.11532485 44.16173395 -64.80849686
v -46.55918680 39.48806849 -67.40867285
v -67.25452596 39.86751309 -46.78091560
v -67.27267785 39.49100658 -46.75546883
v -68.68203642 35.94075148 -44.65943263
v -50.27156787 44.16187861 -64.68736797
v -50.34492093 44.20498760 64.63030239
v -42.48811344 60.09009356 70.04603677
v -42.69658954 60.19534460 69.91915540
v -50.50517891 44.34908434 64.50514672
v -70.04846156 60.31871464 42.48411566
v -70.16003011 60.09816049 42.29961259
v -64.82707216 44.16166851 50.09129431
v -67.42590981 39.48800712 46.53422113
v -46.80579883 39.86746570 67.23721087
v -46.78035976 39.49095952 67.25537146
v -44.68488446 35.94070834 68.66548005
v -64.70600088 44.16181325 50.24758263
f 7 5 4
f 8 7 4
f 9 4 3
f 9 8 4
f 10 3 2
f 10 9 3
f 6 2 1
f 6 10 2
f 15 13 11
f 15 14 13
f 12 15 11
f 17 18 19
f 24 23 25
f 22 24 26
f 22 26 21
f 22 21 20
f 29 28 18
f 30 29 18
f 27 18 17
f 27 30 18
f 25 28 29
f 25 23 28
f 24 25 29
f 26 29 30
f 26 24 29
f 31 30 27
f 21 26 30
f 21 30 31
f 20 21 31
f 32 23 24
f 32 13 23
f 11 24 22
f 11 32 24
f 11 22 20
f 13 32 11
f 35 36 13
f 35 13 14
f 34 14 15
f 34 35 14
f 33 15 12
f 33 34 15
f 46 33 12
f 12 43 46
f 48 47 86
f 39 38 37
f 41 64 76
f 41 40 64
f 45 44 76
f 43 12 11
f 46 86 47
f 53 50 49
f 53 63 62
f 56 59 58
f 56 57 59
f 77 55 54
f 77 56 55
f 51 16 52
f 50 53 60
f 52 16 60
f 64 65 42
f 67 66 65
f 67 65 64
f 38 86 37
f 38 48 86
f 57 69 68
f 57 61 69
f 53 49 63
f 40 67 64
f 57 68 59
f 66 37 65
f 66 39 37
f 61 62 69
f 61 53 62
f 44 41 76
f 73 31 27
f 73 27 17
f 71 70 76
f 71 76 72
f 75 74 72
f 75 73 17
f 75 72 73
f 20 31 73
f 11 73 76
f 56 58 55
f 83 85 84
f 83 77 85
f 81 83 82
f 52 77 83
f 78 91 79
f 93 52 91
f 79 52 81
f 52 83 81
f 70 45 76
f 77 54 85
f 74 71 72
f 11 86 43
f 76 42 11
f 76 73 72
f 86 46 43
f 42 37 86
f 65 37 42
f 64 42 76
f 42 86 11
f 11 20 73
f 83 84 82
f 80 78 79
f 60 53 52
f 77 61 57
f 77 57 56
f 53 61 77
f 77 52 53
f 52 93 51
f 91 52 79
f 88 51 93
f 181 93 87
f 181 88 93
f 89 16 51
f 88 89 51
f 90 89 88
f 181 90 88
f 99 90 181
f 93 91 92
f 93 92 96
f 98 78 94
f 98 91 78
f 92 98 94
f 97 94 95
f 97 92 94
f 96 97 95
f 95 94 78
f 92 91 98
f 96 92 97
f 101 16 89
f 101 60 16
f 100 89 90
f 100 101 89
f 99 100 90
f 103 348 102
f 105 348 103
f 105 104 348
f 106 105 103
f 108 106 103
f 111 346 112
f 102 111 112
f 110 112 113
f 110 102 112
f 109 113 107
f 109 110 113
f 108 109 107
f 112 346 114
f 113 112 114
f 107 113 114
f 114 115 116
f 348 111 102
f 109 102 110
f 103 102 109
f 108 103 109
f 119 348 104
f 118 104 105
f 118 119 104
f 117 105 106
f 117 118 105
f 132 106 108
f 132 117 106
f 128 121 120
f 128 120 122
f 127 122 123
f 127 128 122
f 126 123 124
f 126 127 123
f 125 126 124
f 118 120 119
f 122 120 118
f 117 122 118
f 123 122 117
f 132 123 117
f 124 123 132
f 152 132 108
f 125 124 132
f 135 132 152
f 135 125 132
f 131 125 135
f 139 138 142
f 137 131 136
f 133 137 138
f 134 139 153
f 133 139 134
f 130 133 134
f 129 134 153
f 129 153 141
f 36 134 129
f 36 130 134
f 13 129 141
f 133 131 137
f 138 139 133
f 138 135 154
f 36 129 13
f 152 108 140
f 13 141 23
f 140 107 149
f 140 108 107
f 135 152 154
f 23 151 28
f 145 147 116
f 148 116 147
f 148 145 144
f 148 147 145
f 154 148 144
f 142 154 144
f 150 142 144
f 19 146 143
f 150 144 143
f 150 143 146
f 18 146 19
f 148 149 116
f 114 149 107
f 18 150 146
f 151 18 28
f 152 140 149
f 152 148 154
f 152 149 148
f 138 154 142
f 153 139 142
f 153 142 150
f 153 150 151
f 141 153 151
f 141 151 23
f 149 114 116
f 138 136 135
f 131 135 136
f 137 136 138
f 151 150 18
f 170 163 161
f 155 161 156
f 155 170 161
f 158 155 156
f 162 163 164
f 162 164 165
f 161 162 165
f 160 165 166
f 160 161 165
f 159 166 157
f 159 160 166
f 158 159 157
f 165 164 167
f 166 165 167
f 157 166 167
f 161 163 162
f 156 161 160
f 156 160 159
f 158 156 159
f 171 174 170
f 179 174 175
f 179 172 174
f 178 175 176
f 178 179 175
f 177 178 176
f 175 171 170
f 175 174 171
f 176 170 155
f 176 175 170
f 193 181 87
f 192 181 193
f 192 180 181
f 190 180 192
f 187 191 211
f 188 202 210
f 185 189 188
f 182 210 198
f 182 188 210
f 182 185 188
f 184 185 182
f 184 182 183
f 183 182 198
f 185 186 189
f 190 99 180
f 191 187 186
f 187 188 189
f 188 187 202
f 191 192 211
f 211 192 197
f 181 180 99
f 93 96 196
f 87 93 196
f 193 87 196
f 307 198 195
f 198 307 183
f 196 95 206
f 196 96 95
f 192 193 197
f 195 208 194
f 201 204 80
f 205 80 204
f 205 201 200
f 205 204 201
f 211 205 200
f 221 203 199
f 207 202 200
f 207 200 199
f 207 199 203
f 207 203 221
f 205 206 80
f 78 206 95
f 209 207 221
f 208 209 194
f 193 205 211
f 193 206 205
f 193 196 206
f 197 193 211
f 187 211 200
f 202 187 200
f 210 202 207
f 210 207 208
f 198 210 208
f 198 208 195
f 206 78 80
f 190 192 191
f 186 190 191
f 189 186 187
f 208 207 209
f 307 195 212
f 307 212 215
f 307 215 284
f 217 195 194
f 217 194 218
f 212 217 218
f 216 218 219
f 216 212 218
f 215 216 219
f 214 219 213
f 214 215 219
f 284 214 213
f 218 194 209
f 219 218 209
f 213 219 209
f 212 195 217
f 215 212 216
f 284 215 214
f 228 184 183
f 228 183 222
f 227 222 223
f 227 228 222
f 226 223 224
f 226 227 223
f 225 226 224
f 223 183 307
f 223 222 183
f 224 223 307
f 230 285 237
f 229 230 237
f 229 237 235
f 232 230 229
f 233 232 229
f 231 233 229
f 239 287 240
f 238 240 241
f 238 239 240
f 237 238 241
f 236 241 234
f 236 237 241
f 235 236 234
f 240 287 242
f 241 240 242
f 234 241 242
f 242 243 244
f 285 239 238
f 237 285 238
f 235 237 236
f 248 285 230
f 247 230 232
f 247 248 230
f 246 232 233
f 246 247 232
f 245 233 231
f 245 246 233
f 256 250 249
f 256 249 251
f 255 251 252
f 255 256 251
f 254 252 253
f 254 255 252
f 260 254 253
f 247 249 248
f 251 249 247
f 246 251 247
f 252 251 246
f 245 252 246
f 253 252 245
f 245 231 257
f 279 245 257
f 261 245 279
f 260 253 261
f 265 261 279
f 265 260 261
f 266 260 265
f 263 267 270
f 263 270 272
f 262 266 267
f 264 272 280
f 262 263 264
f 174 268 170
f 259 262 264
f 174 280 268
f 174 264 280
f 173 264 174
f 173 259 264
f 267 263 262
f 264 263 272
f 267 265 258
f 231 229 235
f 279 231 235
f 257 231 279
f 170 268 163
f 235 234 276
f 265 279 258
f 163 278 164
f 271 274 244
f 275 244 274
f 275 271 270
f 275 274 271
f 258 275 270
f 168 273 269
f 277 272 270
f 277 270 269
f 277 269 273
f 277 273 168
f 275 276 244
f 242 276 234
f 167 277 168
f 278 167 164
f 279 235 276
f 279 275 258
f 279 276 275
f 267 258 270
f 280 272 277
f 280 277 278
f 268 280 278
f 268 278 163
f 276 242 244
f 266 265 267
f 278 277 167
f 173 174 172
f 284 213 290
f 220 290 221
f 291 284 290
f 288 291 290
f 288 290 220
f 292 291 289
f 281 283 293
f 297 303 283
f 302 296 303
f 298 283 282
f 298 297 283
f 300 303 299
f 304 302 301
f 304 296 302
f 305 304 301
f 295 296 294
f 286 285 248
f 243 288 220
f 243 289 288
f 243 292 289
f 243 293 292
f 243 281 293
f 243 282 281
f 243 298 282
f 243 299 298
f 243 300 299
f 243 301 300
f 243 305 301
f 243 294 305
f 243 295 294
f 243 296 295
f 243 286 296
f 243 242 286
f 308 225 311
f 224 307 311
f 224 311 225
f 310 308 311
f 309 310 311
f 249 250 312
f 306 249 312
f 225 308 250
f 308 310 250
f 310 309 250
f 309 312 250
f 291 283 284
f 293 291 292
f 293 283 291
f 290 213 209
f 221 290 209
f 289 291 288
f 239 285 286
f 287 239 286
f 242 287 286
f 303 284 283
f 282 283 281
f 284 303 307
f 306 248 249
f 286 312 296
f 286 306 312
f 286 248 306
f 299 303 297
f 299 297 298
f 300 302 303
f 301 302 300
f 294 296 304
f 294 304 305
f 307 309 311
f 296 312 303
f 303 312 307
f 321 314 313
f 321 313 315
f 320 315 316
f 320 321 315
f 319 316 317
f 319 320 316
f 318 319 317
f 322 447 323
f 327 323 324
f 327 322 323
f 326 324 325
f 326 327 324
f 416 325 328
f 416 326 325
f 447 334 329
f 328 329 331
f 324 447 329
f 324 323 447
f 325 324 329
f 328 325 329
f 335 449 336
f 334 335 336
f 333 336 337
f 333 334 336
f 332 337 330
f 332 333 337
f 331 332 330
f 336 449 338
f 337 336 338
f 330 337 338
f 338 339 340
f 329 334 333
f 329 333 332
f 331 329 332
f 344 347 345
f 343 341 410
f 342 343 410
f 355 343 342
f 342 410 412
f 342 412 354
f 357 355 342
f 368 355 357
f 358 357 356
f 367 368 357
f 369 367 357
f 369 357 359
f 372 371 370
f 361 374 373
f 361 379 371
f 361 371 374
f 362 361 373
f 363 364 379
f 365 364 363
f 349 379 366
f 352 351 350
f 345 347 353
f 115 347 344
f 115 114 347
f 347 346 111
f 115 344 354
f 344 345 354
f 345 353 354
f 353 352 354
f 352 350 354
f 350 349 354
f 349 366 354
f 366 365 354
f 365 363 354
f 363 362 354
f 362 373 354
f 373 372 354
f 372 370 354
f 370 369 354
f 369 359 354
f 359 358 354
f 358 356 354
f 356 342 354
f 355 341 343
f 360 348 119
f 360 351 347
f 376 119 120
f 360 119 376
f 351 360 379
f 349 351 379
f 350 351 349
f 111 348 360
f 347 111 360
f 347 351 352
f 353 347 352
f 380 377 378
f 375 368 378
f 375 378 377
f 382 380 378
f 383 382 378
f 120 121 384
f 376 120 379
f 360 376 379
f 377 380 121
f 380 382 121
f 382 381 121
f 381 383 121
f 383 384 121
f 379 120 384
f 114 346 347
f 371 368 367
f 370 367 369
f 370 371 367
f 372 374 371
f 373 374 372
f 363 379 361
f 363 361 362
f 366 364 365
f 366 379 364
f 379 384 371
f 383 381 382
f 368 384 383
f 378 368 383
f 371 384 368
f 359 357 358
f 356 357 342
f 391 386 385
f 391 385 387
f 390 387 388
f 390 391 387
f 389 388 375
f 389 390 388
f 377 389 375
f 396 392 425
f 396 425 393
f 396 393 394
f 395 394 368
f 395 396 394
f 393 425 406
f 393 406 399
f 398 399 400
f 398 393 399
f 397 400 401
f 397 398 400
f 355 397 401
f 394 398 397
f 394 393 398
f 368 394 397
f 368 397 355
f 405 407 408
f 405 406 407
f 404 405 408
f 403 408 409
f 403 404 408
f 402 409 341
f 402 403 409
f 355 402 341
f 408 407 410
f 409 408 410
f 341 409 410
f 399 405 404
f 399 406 405
f 400 404 403
f 400 399 404
f 401 403 402
f 401 400 403
f 355 401 402
f 410 411 412
f 427 416 328
f 318 317 416
f 415 318 416
f 426 416 427
f 426 415 416
f 414 415 426
f 417 422 434
f 417 434 436
f 413 423 424
f 421 436 445
f 418 413 417
f 419 420 421
f 392 431 425
f 392 421 445
f 392 445 431
f 386 421 392
f 386 419 421
f 419 413 418
f 413 414 423
f 414 318 415
f 422 417 424
f 424 417 413
f 421 417 436
f 422 426 430
f 386 392 385
f 328 331 429
f 444 328 429
f 427 328 444
f 425 431 428
f 425 428 406
f 429 330 440
f 429 331 330
f 427 444 430
f 426 427 430
f 428 443 407
f 406 428 407
f 432 340 438
f 435 438 340
f 439 432 438
f 439 435 434
f 439 438 435
f 446 439 434
f 411 437 433
f 442 436 434
f 442 434 433
f 442 433 437
f 442 437 411
f 440 330 441
f 439 441 432
f 338 441 330
f 440 441 439
f 410 442 411
f 443 410 407
f 444 429 440
f 444 439 446
f 444 440 439
f 430 444 446
f 422 430 446
f 422 446 434
f 445 436 442
f 445 442 443
f 431 445 443
f 431 443 428
f 338 340 432
f 441 338 432
f 424 426 422
f 421 420 417
f 414 426 424
f 423 414 424
f 419 417 420
f 419 418 417
f 453 157 452
f 169 452 168
f 450 453 452
f 450 452 169
f 454 453 451
f 456 458 455
f 460 463 468
f 460 468 458
f 461 460 458
f 461 458 457
f 464 463 462
f 334 447 448
f 448 447 322
f 339 450 169
f 339 451 450
f 339 454 451
f 339 455 454
f 339 456 455
f 339 457 456
f 339 461 457
f 339 462 461
f 339 464 462
f 339 465 464
f 339 459 465
f 339 469 459
f 339 338 469
f 158 157 453
f 468 158 458
f 457 458 456
f 452 157 167
f 168 452 167
f 451 453 450
f 458 158 453
f 455 453 454
f 455 458 453
f 470 177 467
f 176 155 467
f 176 467 177
f 472 470 467
f 471 472 467
f 313 314 473
f 466 313 469
f 177 470 314
f 470 472 314
f 472 471 314
f 471 473 314
f 469 313 473
f 158 468 155
f 466 322 313
f 448 466 469
f 448 322 466
f 468 467 155
f 335 334 448
f 449 335 448
f 338 448 469
f 338 449 448
f 463 459 468
f 465 459 463
f 462 460 461
f 462 463 460
f 464 465 463
f 467 473 471
f 468 473 467
f 468 459 473
f 469 473 459
f 476 475 474
f 476 477 475
f 480 479 478
f 480 481 479
f 484 483 482
f 484 485 483
f 486 487 488
f 486 488 489
f 492 491 490
f 492 493 491
f 495 496 497
f 494 495 497
f 500 499 498
f 500 501 499
f 502 503 504
f 502 504 505
f 508 507 506
f 508 509 507
f 512 511 510
f 512 513 511
f 515 516 517
f 514 515 517
f 521 519 518
f 520 521 518
f 598 144 145
f 598 597 144
f 596 143 144
f 596 144 597
f 502 145 116
f 502 116 115
f 502 598 145
f 521 17 19
f 521 19 143
f 521 143 596
f 520 17 521
f 503 502 115
f 513 600 601
f 513 601 602
f 513 602 603
f 513 603 604
f 513 604 605
f 513 605 606
f 513 606 607
f 513 607 608
f 513 608 609
f 513 609 610
f 675 503 115
f 75 17 520
f 75 520 599
f 75 599 600
f 75 600 513
f 512 81 75
f 512 75 513
f 676 675 115
f 683 81 512
f 484 676 115
f 681 676 484
f 682 81 683
f 688 683 512
f 688 512 687
f 680 681 484
f 643 644 682
f 645 682 644
f 642 643 682
f 646 682 645
f 647 682 646
f 641 642 682
f 648 81 682
f 648 682 647
f 640 641 682
f 639 640 682
f 649 81 648
f 638 639 682
f 515 81 649
f 615 612 613
f 615 613 614
f 590 591 592
f 590 592 593
f 617 615 616
f 617 612 615
f 588 589 590
f 619 612 617
f 619 611 612
f 619 617 618
f 587 590 593
f 587 593 594
f 587 594 595
f 587 588 590
f 686 611 619
f 686 610 611
f 677 587 595
f 620 686 619
f 620 685 686
f 586 587 677
f 586 677 678
f 623 621 622
f 624 621 623
f 582 583 584
f 582 584 585
f 625 621 624
f 626 621 625
f 580 581 582
f 580 585 586
f 580 582 585
f 628 685 620
f 628 684 685
f 628 621 626
f 628 620 621
f 628 626 627
f 578 579 580
f 578 586 678
f 578 580 586
f 637 638 684
f 634 635 636
f 629 637 684
f 629 684 628
f 629 636 637
f 573 571 572
f 577 679 569
f 577 678 679
f 577 578 678
f 632 634 636
f 632 633 634
f 576 569 570
f 576 570 571
f 576 573 574
f 576 571 573
f 576 577 569
f 631 629 630
f 631 636 629
f 631 632 636
f 575 576 574
f 354 484 115
f 354 485 484
f 354 508 485
f 79 81 515
f 509 508 354
f 509 354 412
f 509 412 411
f 514 79 515
f 433 509 411
f 201 80 514
f 566 509 433
f 652 201 514
f 434 567 566
f 434 566 433
f 200 201 652
f 651 200 652
f 568 567 434
f 650 200 651
f 435 568 434
f 199 200 650
f 494 568 435
f 493 199 650
f 340 494 435
f 221 199 493
f 339 494 340
f 220 221 493
f 522 658 659
f 522 659 660
f 557 558 559
f 557 559 560
f 557 560 561
f 656 657 658
f 656 658 522
f 654 656 522
f 654 655 656
f 564 561 562
f 564 562 563
f 564 557 561
f 653 654 522
f 565 557 564
f 525 523 524
f 1 2 3
f 1 3 4
f 528 526 527
f 556 4 5
f 556 1 4
f 529 523 525
f 529 526 528
f 529 525 526
f 555 556 5
f 531 523 529
f 531 529 530
f 553 555 5
f 553 554 555
f 665 653 522
f 670 557 565
f 664 665 522
f 664 523 531
f 664 522 523
f 671 5 557
f 671 557 670
f 671 553 5
f 532 663 664
f 532 664 531
f 552 671 672
f 552 553 671
f 534 532 533
f 550 551 552
f 549 550 552
f 547 549 552
f 547 548 549
f 539 534 535
f 539 535 536
f 539 536 537
f 539 537 538
f 545 546 547
f 545 547 552
f 540 663 532
f 540 532 534
f 540 534 539
f 544 552 672
f 544 545 552
f 492 220 493
f 495 494 339
f 668 495 339
f 476 666 667
f 662 476 667
f 480 673 674
f 480 674 669
f 169 500 481
f 169 501 500
f 243 487 486
f 168 501 169
f 244 243 486
f 269 501 168
f 269 541 501
f 271 244 486
f 271 486 543
f 270 541 269
f 270 271 543
f 270 542 541
f 270 543 542
f 514 80 79
f 339 169 481
f 339 481 480
f 339 480 669
f 339 669 668
f 243 220 661
f 661 220 662
f 662 220 476
f 476 220 477
f 477 220 492
f 243 661 487
f 661 663 540
f 661 540 487
f 665 477 653
f 653 477 492
f 668 670 565
f 668 565 495
f 672 481 500
f 672 500 544
f 675 677 595
f 675 595 503
f 679 485 569
f 569 485 508
f 682 684 638
f 686 513 610
f 783 131 133
f 783 133 782
f 781 133 130
f 781 782 133
f 505 125 131
f 505 126 125
f 505 127 126
f 505 128 127
f 505 121 128
f 505 131 783
f 519 33 46
f 519 34 33
f 519 35 34
f 519 36 35
f 519 130 36
f 519 781 130
f 518 519 46
f 504 121 505
f 511 784 785
f 511 785 786
f 511 786 787
f 511 787 788
f 511 788 789
f 511 789 790
f 511 790 791
f 511 791 792
f 511 792 793
f 511 793 794
f 704 121 504
f 47 518 46
f 47 511 794
f 47 794 795
f 47 795 518
f 510 511 47
f 510 47 50
f 709 121 704
f 716 510 50
f 482 121 709
f 708 482 709
f 711 716 50
f 715 510 716
f 715 714 510
f 707 482 708
f 828 829 711
f 830 711 829
f 831 711 830
f 827 828 711
f 826 827 711
f 832 711 831
f 825 826 711
f 825 711 50
f 833 711 832
f 824 825 50
f 834 711 833
f 823 711 834
f 516 824 50
f 776 774 775
f 801 802 803
f 801 803 804
f 799 801 804
f 799 800 801
f 779 773 774
f 779 776 777
f 779 777 778
f 779 774 776
f 780 773 779
f 797 799 804
f 797 798 799
f 797 804 796
f 772 773 780
f 713 797 796
f 713 796 784
f 703 773 772
f 805 797 713
f 805 713 712
f 764 703 772
f 764 705 703
f 811 812 813
f 810 811 813
f 768 765 766
f 768 766 767
f 809 810 813
f 808 809 813
f 770 764 765
f 770 765 768
f 770 768 769
f 806 807 808
f 806 813 805
f 806 805 712
f 806 808 813
f 806 712 710
f 763 705 764
f 763 764 770
f 763 770 771
f 815 710 823
f 818 816 817
f 814 815 816
f 814 710 815
f 814 806 710
f 759 760 761
f 755 754 706
f 755 705 763
f 755 706 705
f 820 818 819
f 820 816 818
f 756 761 762
f 756 762 754
f 756 754 755
f 821 822 814
f 821 816 820
f 821 814 816
f 757 758 759
f 757 761 756
f 757 759 761
f 377 121 482
f 377 483 506
f 377 482 483
f 60 516 50
f 507 377 506
f 507 389 377
f 507 390 389
f 507 391 390
f 507 386 391
f 517 100 99
f 517 101 100
f 517 60 101
f 517 516 60
f 419 386 507
f 190 517 99
f 751 419 507
f 837 517 190
f 413 419 751
f 413 751 752
f 186 836 837
f 186 837 190
f 753 413 752
f 835 836 186
f 414 413 753
f 185 835 186
f 497 414 753
f 491 835 185
f 318 414 497
f 184 491 185
f 228 491 184
f 319 318 497
f 227 491 228
f 320 319 497
f 226 491 227
f 321 320 497
f 314 321 497
f 225 491 226
f 840 841 842
f 839 840 842
f 742 747 748
f 742 748 749
f 742 749 750
f 844 842 843
f 844 839 842
f 845 839 844
f 744 745 746
f 744 746 747
f 744 747 742
f 838 839 845
f 838 845 846
f 743 744 742
f 854 855 847
f 10 8 9
f 851 852 853
f 739 10 6
f 739 8 10
f 850 854 847
f 850 851 853
f 850 853 854
f 740 8 739
f 848 850 847
f 848 849 850
f 738 740 741
f 738 7 8
f 738 8 740
f 692 839 838
f 696 743 742
f 691 847 839
f 691 848 847
f 691 839 692
f 698 696 742
f 698 742 7
f 698 7 738
f 725 691 689
f 725 848 691
f 730 698 738
f 730 699 698
f 732 730 731
f 733 730 732
f 721 722 723
f 721 723 724
f 721 724 725
f 735 733 734
f 735 730 733
f 718 719 720
f 737 735 736
f 737 730 735
f 717 718 720
f 717 725 689
f 717 721 725
f 717 720 721
f 729 699 730
f 729 730 737
f 490 491 225
f 496 314 497
f 697 314 496
f 474 694 693
f 695 694 474
f 478 701 700
f 478 702 701
f 177 498 499
f 177 479 498
f 250 489 488
f 178 177 499
f 256 489 250
f 179 178 499
f 255 489 256
f 172 179 499
f 254 489 255
f 173 172 499
f 260 489 254
f 259 499 726
f 259 173 499
f 266 728 489
f 266 489 260
f 262 726 727
f 262 727 728
f 262 259 726
f 262 728 266
f 314 479 177
f 314 478 479
f 314 702 478
f 314 697 702
f 250 490 225
f 250 475 490
f 250 474 475
f 250 695 474
f 250 690 695
f 250 488 690
f 690 717 689
f 690 488 717
f 692 838 475
f 838 490 475
f 697 743 696
f 697 496 743
f 699 498 479
f 699 729 498
f 704 773 703
f 704 504 773
f 706 506 483
f 706 754 506
f 711 823 710
f 713 784 511
f 49 47 48
f 49 50 47
f 63 48 38
f 63 49 48
f 62 38 39
f 62 63 38
f 69 39 66
f 69 62 39
f 68 66 67
f 68 69 66
f 59 67 40
f 59 68 67
f 58 40 41
f 58 59 40
f 55 41 44
f 55 58 41
f 54 44 45
f 54 55 44
f 85 45 70
f 85 54 45
f 84 70 71
f 84 85 70
f 82 71 74
f 82 84 71
f 81 74 75
f 81 82 74
f 387 385 392
f 387 392 396
f 388 396 395
f 388 387 396
f 375 395 368
f 375 388 395
f 443 442 410
f 327 313 322
f 315 313 327
f 326 315 327
f 316 315 326
f 416 316 326
f 317 316 416
f 261 253 245
f 312 309 307
f 517 652 514
f 837 652 517
f 836 651 652
f 836 652 837
f 835 493 650
f 835 650 651
f 835 651 836
f 491 493 835
f 682 683 716
f 682 716 711
f 783 502 505
f 783 598 502
f 782 597 598
f 782 598 783
f 781 521 596
f 781 596 597
f 781 597 782
f 519 521 781
f 675 676 709
f 675 709 704
f 497 568 494
f 753 567 568
f 753 568 497
f 752 567 753
f 751 509 566
f 751 566 567
f 751 567 752
f 507 509 751
f 668 669 702
f 668 702 697
f 489 543 486
f 728 543 489
f 727 542 543
f 727 543 728
f 726 501 541
f 726 541 542
f 726 542 727
f 499 501 726
f 661 662 695
f 661 695 690
f 637 823 638
f 637 815 823
f 682 711 710
f 684 682 710
f 684 710 712
f 685 684 712
f 685 712 713
f 686 685 713
f 686 713 511
f 513 686 511
f 610 796 611
f 610 784 796
f 619 805 620
f 619 797 805
f 628 814 629
f 628 806 814
f 688 715 716
f 683 688 716
f 687 714 715
f 688 687 715
f 687 510 714
f 512 510 687
f 806 628 627
f 807 627 626
f 807 806 627
f 808 626 625
f 808 807 626
f 809 625 624
f 809 808 625
f 810 624 623
f 810 809 624
f 811 623 622
f 811 810 623
f 812 622 621
f 812 811 622
f 813 621 620
f 813 812 621
f 805 813 620
f 815 637 636
f 816 636 635
f 816 815 636
f 817 635 634
f 817 816 635
f 818 634 633
f 818 817 634
f 819 633 632
f 819 818 633
f 820 632 631
f 820 819 632
f 821 631 630
f 821 820 631
f 822 630 629
f 822 821 630
f 814 822 629
f 797 619 618
f 798 618 617
f 798 797 618
f 799 617 616
f 799 798 617
f 800 616 615
f 800 799 616
f 801 615 614
f 801 800 615
f 802 614 613
f 802 801 614
f 803 613 612
f 803 802 613
f 804 612 611
f 804 803 612
f 796 804 611
f 518 599 520
f 795 600 599
f 795 599 518
f 794 601 600
f 794 600 795
f 793 602 601
f 793 601 794
f 792 603 602
f 792 602 793
f 791 604 603
f 791 603 792
f 790 605 604
f 790 604 791
f 789 606 605
f 789 605 790
f 788 607 606
f 788 606 789
f 787 608 607
f 787 607 788
f 786 609 608
f 786 608 787
f 785 610 609
f 785 609 786
f 784 610 785
f 823 639 638
f 834 640 639
f 834 639 823
f 833 641 640
f 833 640 834
f 832 642 641
f 832 641 833
f 831 643 642
f 831 642 832
f 830 644 643
f 830 643 831
f 829 645 644
f 829 644 830
f 828 646 645
f 828 645 829
f 827 647 646
f 827 646 828
f 826 647 827
f 825 648 647
f 825 649 648
f 825 647 826
f 824 515 649
f 824 649 825
f 516 515 824
f 503 773 504
f 595 773 503
f 677 675 704
f 677 704 703
f 677 703 705
f 678 677 705
f 678 705 706
f 679 678 706
f 485 679 706
f 485 706 483
f 508 754 569
f 508 506 754
f 577 763 578
f 577 755 763
f 586 772 587
f 586 764 772
f 495 743 496
f 565 743 495
f 668 697 696
f 670 668 696
f 670 696 698
f 671 670 698
f 671 698 699
f 672 671 699
f 672 699 479
f 481 672 479
f 544 498 729
f 500 498 544
f 552 738 553
f 552 730 738
f 5 742 557
f 5 7 742
f 540 488 487
f 540 717 488
f 663 661 690
f 663 690 689
f 663 689 691
f 664 663 691
f 664 691 692
f 665 664 692
f 477 665 692
f 477 692 475
f 492 838 653
f 492 490 838
f 522 847 523
f 522 839 847
f 531 725 532
f 531 848 725
f 681 708 709
f 676 681 709
f 680 707 708
f 681 680 708
f 680 482 707
f 484 482 680
f 674 701 702
f 669 674 702
f 673 700 701
f 674 673 701
f 673 478 700
f 480 478 673
f 667 694 695
f 662 667 695
f 666 693 694
f 667 666 694
f 666 474 693
f 476 474 666
f 765 586 585
f 765 764 586
f 766 585 584
f 766 765 585
f 767 584 583
f 767 766 584
f 768 583 582
f 768 767 583
f 769 582 581
f 769 768 582
f 770 581 580
f 770 769 581
f 771 580 579
f 771 770 580
f 763 579 578
f 763 771 579
f 773 595 594
f 774 773 594
f 775 594 593
f 775 774 594
f 776 593 592
f 776 775 593
f 777 592 591
f 777 776 592
f 778 591 590
f 778 777 591
f 779 590 589
f 779 778 590
f 780 589 588
f 780 779 589
f 772 588 587
f 772 780 588
f 756 577 576
f 756 755 577
f 757 576 575
f 757 756 576
f 758 575 574
f 758 757 575
f 759 574 573
f 759 758 574
f 760 573 572
f 760 759 573
f 761 572 571
f 761 760 572
f 762 571 570
f 762 761 571
f 754 570 569
f 754 762 570
f 6 1 556
f 739 556 555
f 739 6 556
f 740 555 554
f 740 739 555
f 741 554 553
f 741 740 554
f 738 741 553
f 743 565 564
f 744 564 563
f 744 743 564
f 745 563 562
f 745 744 563
f 746 562 561
f 746 745 562
f 747 561 560
f 747 746 561
f 748 560 559
f 748 747 560
f 749 559 558
f 749 748 559
f 750 558 557
f 750 749 558
f 742 750 557
f 730 552 551
f 731 551 550
f 731 730 551
f 732 550 549
f 732 731 550
f 733 549 548
f 733 732 549
f 734 548 547
f 734 733 548
f 735 547 546
f 735 734 547
f 736 546 545
f 736 735 546
f 737 545 544
f 737 736 545
f 729 737 544
f 848 531 530
f 849 530 529
f 849 848 530
f 850 529 528
f 850 849 529
f 851 528 527
f 851 850 528
f 852 527 526
f 852 851 527
f 853 526 525
f 853 852 526
f 854 525 524
f 854 853 525
f 855 524 523
f 855 854 524
f 847 855 523
f 717 540 539
f 718 539 538
f 718 717 539
f 719 538 537
f 719 718 538
f 720 537 536
f 720 719 537
f 721 536 535
f 721 720 536
f 722 535 534
f 722 721 535
f 723 534 533
f 723 722 534
f 724 723 533
f 725 533 532
f 725 724 533
f 840 522 660
f 840 839 522
f 841 660 659
f 841 840 660
f 842 659 658
f 842 841 659
f 843 658 657
f 843 842 658
f 844 657 656
f 844 843 657
f 845 656 655
f 845 844 656
f 846 655 654
f 846 845 655
f 838 654 653
f 838 846 654
f 865 866 864
f 859 856 858
f 860 862 867
f 864 856 865
f 865 856 859
f 856 857 858
f 861 862 860
f 862 863 867
f 871 869 868
f 870 869 871
f 871 872 870
f 868 872 871
f 873 868 869
f 873 869 870
f 876 875 874
f 877 874 875
f 877 875 876
f 878 877 879
f 878 874 877
f 883 881 880
f 882 881 883
f 883 886 882
f 880 886 883
f 885 886 880
f 884 885 880
f 887 880 881
f 882 887 881
f 889 888 907
f 899 900 898
f 893 890 892
f 894 896 901
f 898 890 899
f 899 890 893
f 890 891 892
f 895 896 894
f 896 897 901
f 904 903 902
f 906 907 888
f 906 888 889
f 909 908 905
f 902 909 905
f 909 903 904
f 909 902 903
f 910 911 912
f 913 912 911
f 913 910 912
f 917 914 916
f 917 915 914
f 916 915 917
f 919 918 921
f 920 921 918
f 920 919 921
f 928 923 922
f 926 924 925
f 927 926 925
f 927 924 926
f 923 928 929
f 928 922 929
f 939 940 938
f 933 930 932
f 934 936 941
f 938 930 939
f 939 930 933
f 930 931 932
f 935 936 934
f 936 937 941
f 951 952 950
f 945 942 944
f 946 948 953
f 950 942 951
f 951 942 945
f 942 943 944
f 947 948 946
f 948 949 953

