# https://github.com/mikedh/trimesh
v 21.10287142 11.52848030 -0.00854064
v 21.84091603 -7.44410644 -0.25373022
v -15.47500000 -8.48987182 11.00000000
v -15.85255202 -8.61507998 10.97868880
v 18.53141109 7.82866939 10.96377222
v -20.25567215 -5.00653283 11.04807170
v 20.08843301 -9.62767212 0.54469209
v -20.21392385 10.32667569 0.03816365
v -9.39241506 13.69501670 0.23411659
v -15.85925694 11.31403274 -0.00000000
v 10.91393406 -13.48930885 -0.10294329
v -10.57943918 -13.05008392 -0.38937332
v -20.07956587 -10.18429010 0.14413050
v 11.22559827 13.14311782 -0.15261297
v -21.30983383 0.89245927 -0.08306713
v -15.47500000 -8.68274682 10.92978084
v -16.07965825 -8.69899065 10.89371720
v -18.41026058 -7.86146474 10.95683033
v 19.40484395 -6.76554036 11.27180634
v 5.15833333 -8.57801432 10.98675931
v -5.15833333 -8.66198098 10.94572024
v -10.31666667 -8.57801432 10.98675931
v -10.31666667 -8.72924424 10.88083375
v 16.40541391 -13.31002384 0.33745963
v -10.31666667 -8.66198098 10.94572024
v 15.98622626 8.72160959 10.87164277
v 15.47500000 8.68274682 10.92978084
v 15.47500000 8.63990465 10.95978866
v 5.15833333 8.57801432 10.98675931
v -5.15833333 8.66198098 10.94572024
v 5.15833333 8.72924424 10.88083375
v -10.31666667 8.72924424 10.88083375
v 5.15833333 8.66198098 10.94572024
v -19.29053593 7.49398588 11.08519776
v 15.80714887 8.62003209 10.96822956
v 20.24692681 4.09737639 11.20239828
f 12 14 2
f 9 14 10
f 10 12 15
f 14 12 10
f 2 14 1
f 8 10 15
f 15 34 8
f 8 34 9
f 9 10 8
f 2 19 7
f 7 24 2
f 19 24 7
f 15 12 13
f 19 34 6
f 6 34 15
f 15 13 6
f 6 13 18
f 20 24 19
f 36 19 2
f 2 1 36
f 36 34 19
f 26 1 14
f 26 14 9
f 19 6 3
f 3 6 18
f 9 34 32
f 34 30 32
f 5 36 1
f 1 26 5
f 22 20 19
f 19 3 22
f 4 3 18
f 4 22 3
f 20 22 4
f 31 26 9
f 9 32 31
f 34 36 35
f 36 5 35
f 35 5 26
f 11 12 2
f 2 24 11
f 24 20 23
f 23 11 24
f 29 30 34
f 34 35 29
f 27 32 30
f 27 31 32
f 26 31 27
f 27 35 26
f 20 4 21
f 21 23 20
f 11 23 17
f 12 11 17
f 17 13 12
f 18 13 17
f 17 4 18
f 35 27 28
f 30 29 28
f 28 29 35
f 23 21 16
f 4 17 16
f 16 17 23
f 33 27 30
f 30 28 33
f 33 28 27
f 25 21 4
f 4 16 25
f 25 16 21

