# https://github.com/mikedh/trimesh
v -23.93275511 25.32773753 593.89259779
v -24.17837463 25.24231727 593.89259779
v -24.41083464 25.12575008 593.89259779
v -24.62620508 24.98000668 593.89259779
v -24.82084482 24.80755106 593.89259779
v -24.99146320 24.61129884 593.89259779
v -25.13517568 24.39456793 593.89259779
v -25.24955260 24.16102246 593.89259779
v -25.33266026 23.91461084 593.89259779
v -25.38309361 23.65949902 593.89259779
v -25.40000000 23.40000000 593.89259779
v -25.40000000 -39.20000000 593.89259779
v -25.38288972 -39.46105238 593.89259779
v -25.33185165 -39.71763809 593.89259779
v -25.24775907 -39.96536686 593.89259779
v -25.13205081 -40.20000000 593.89259779
v -24.98670668 -40.41752286 593.89259779
v -24.81421356 -40.61421356 593.89259779
v -24.61752286 -40.78670668 593.89259779
v -24.40000000 -40.93205081 593.89259779
v -24.16536686 -41.04775907 593.89259779
v -23.91763809 -41.13185165 593.89259779
v -23.66105238 -41.18288972 593.89259779
v -23.40000000 -41.20000000 593.89259779
v -2.00000000 -41.20000000 593.89259779
v -1.73894762 -41.18288972 593.89259779
v -1.48236191 -41.13185165 593.89259779
v -1.23463314 -41.04775907 593.89259779
v -1.00000000 -40.93205081 593.89259779
v 24.40000000 -25.13205081 593.89259779
v 24.61752286 -24.98670668 593.89259779
v 24.81421356 -24.81421356 593.89259779
v 24.98670668 -24.61752286 593.89259779
v 25.13205081 -24.40000000 593.89259779
v 25.24775907 -24.16536686 593.89259779
v 25.33185165 -23.91763809 593.89259779
v 25.38288972 -23.66105238 593.89259779
v 25.40000000 -23.40000000 593.89259779
v 25.40000000 37.60000000 593.89259779
v 25.39587917 37.66406129 593.89259779
v 25.38358460 37.72706664 593.89259779
v 25.36331896 37.78797750 593.89259779
v 25.33541628 37.84578988 593.89259779
v 25.30033649 37.89955082 593.89259779
v 25.25865783 37.94837417 593.89259779
v 25.21106730 37.99145515 593.89259779
v 25.15834934 38.02808366 593.89259779
v 25.10137294 38.05765592 593.89259779
v 25.04107723 38.07968450 593.89259779
v 24.97845611 38.09380628 593.89259779
v 24.91454176 38.09978849 593.89259779
v 24.84840515 38.09344807 593.89259779
v 24.78369308 38.07839483 593.89259779
v 18.92425824 38.09978849 -593.89259779
v 18.79772277 38.07968450 -593.89259779
v 18.86034389 38.09380628 -593.89259779
v -25.40000000 23.40000000 -593.89259779
v -25.38288972 23.66105238 -593.89259779
v -25.33185165 23.91763809 -593.89259779
v -25.24775907 24.16536686 -593.89259779
v -25.13205081 24.40000000 -593.89259779
v -24.98670668 24.61752286 -593.89259779
v -24.81421356 24.81421356 -593.89259779
v -24.61752286 24.98670668 -593.89259779
v -24.40000000 25.13205081 -593.89259779
v -24.16536686 25.24775907 -593.89259779
v -23.91763809 25.33185165 -593.89259779
v -25.40000000 -39.20000000 -593.89259779
v -23.40000000 -41.20000000 -593.89259779
v -23.66105238 -41.18288972 -593.89259779
v -23.91763809 -41.13185165 -593.89259779
v -24.16536686 -41.04775907 -593.89259779
v -24.40000000 -40.93205081 -593.89259779
v -24.61752286 -40.78670668 -593.89259779
v -24.81421356 -40.61421356 -593.89259779
v -24.98670668 -40.41752286 -593.89259779
v -25.13205081 -40.20000000 -593.89259779
v -25.24775907 -39.96536686 -593.89259779
v -25.33185165 -39.71763809 -593.89259779
v -25.38288972 -39.46105238 -593.89259779
v -2.00000000 -41.20000000 -593.89259779
v -1.00000000 -40.93205081 -593.89259779
v -1.23463314 -41.04775907 -593.89259779
v -1.48236191 -41.13185165 -593.89259779
v -1.73894762 -41.18288972 -593.89259779
v 25.40000000 -23.40000000 -593.89259779
v 25.38288972 -23.66105238 -593.89259779
v 25.33185165 -23.91763809 -593.89259779
v 25.24775907 -24.16536686 -593.89259779
v 25.13205081 -24.40000000 -593.89259779
v 24.98670668 -24.61752286 -593.89259779
v 24.81421356 -24.81421356 -593.89259779
v 24.61752286 -24.98670668 -593.89259779
v 24.40000000 -25.13205081 -593.89259779
v 25.40000000 37.60000000 -593.89259779
v 24.91454176 38.09978849 -593.89259779
v 24.97845611 38.09380628 -593.89259779
v 25.04107723 38.07968450 -593.89259779
v 25.10137294 38.05765592 -593.89259779
v 25.15834934 38.02808366 -593.89259779
v 25.21106730 37.99145515 -593.89259779
v 25.25865783 37.94837417 -593.89259779
v 25.30033649 37.89955082 -593.89259779
v 25.33541628 37.84578988 -593.89259779
v 25.36331896 37.78797750 -593.89259779
v 25.38358460 37.72706664 -593.89259779
v 25.39587917 37.66406129 -593.89259779
v 18.91880000 38.09959984 568.49259779
v 18.84969206 38.09199571 568.49259779
v 18.78230702 38.07487887 568.49259779
v 18.92425824 38.09978849 568.49260110
f 1 110 55
f 110 1 53
f 67 1 55
f 55 110 109
f 110 53 109
f 64 4 3
f 52 109 53
f 55 109 56
f 59 9 8
f 6 61 7
f 10 57 11
f 1 67 66
f 111 54 108
f 54 56 108
f 108 56 109
f 109 52 108
f 51 111 108
f 108 52 51
f 59 8 60
f 60 8 7
f 7 61 60
f 61 6 62
f 57 10 58
f 58 10 9
f 58 9 59
f 64 3 65
f 1 66 2
f 66 65 2
f 2 65 3
f 5 62 6
f 62 5 63
f 63 5 4
f 63 4 64
f 86 39 38
f 95 39 86
f 51 96 54
f 54 111 51
f 51 50 97
f 97 96 51
f 81 25 24
f 24 69 81
f 81 26 25
f 85 26 81
f 83 82 29
f 28 83 29
f 30 29 94
f 94 29 82
f 102 101 46
f 45 102 46
f 48 47 100
f 99 48 100
f 47 46 100
f 100 46 101
f 89 35 34
f 34 90 89
f 36 35 89
f 89 88 36
f 87 86 38
f 38 37 87
f 87 37 36
f 36 88 87
f 44 103 102
f 44 102 45
f 104 103 44
f 44 43 104
f 12 11 68
f 11 57 68
f 99 98 49
f 49 48 99
f 49 97 50
f 49 98 97
f 40 39 95
f 95 107 40
f 40 107 106
f 40 106 41
f 106 105 42
f 41 106 42
f 104 43 42
f 42 105 104
f 80 13 12
f 12 68 80
f 84 83 28
f 28 27 84
f 84 26 85
f 84 27 26
f 93 31 30
f 30 94 93
f 32 31 93
f 93 92 32
f 34 33 91
f 91 90 34
f 91 33 32
f 32 92 91
f 51 52 5
f 18 19 5
f 34 35 5
f 15 16 5
f 5 17 18
f 5 50 51
f 5 37 38
f 24 25 5
f 5 47 48
f 7 8 5
f 38 39 5
f 45 46 5
f 5 11 12
f 30 31 5
f 5 10 11
f 41 42 5
f 5 27 28
f 5 35 36
f 48 49 5
f 5 23 24
f 12 13 5
f 5 33 34
f 5 53 1
f 28 29 5
f 36 37 5
f 39 40 5
f 5 44 45
f 21 22 5
f 5 20 21
f 5 14 15
f 5 6 7
f 32 33 5
f 5 31 32
f 25 26 5
f 5 29 30
f 5 3 4
f 5 52 53
f 5 46 47
f 43 44 5
f 5 22 23
f 19 20 5
f 13 14 5
f 5 16 17
f 5 8 9
f 1 2 5
f 9 10 5
f 26 27 5
f 5 49 50
f 5 40 41
f 5 42 43
f 5 2 3
f 79 14 13
f 13 80 79
f 15 14 79
f 79 78 15
f 77 16 15
f 15 78 77
f 17 16 76
f 16 77 76
f 18 17 76
f 76 75 18
f 74 19 18
f 18 75 74
f 73 20 19
f 19 74 73
f 21 20 72
f 20 73 72
f 72 22 21
f 72 71 22
f 59 60 70
f 70 98 99
f 70 68 57
f 70 103 104
f 70 67 55
f 70 81 69
f 99 100 70
f 104 105 70
f 55 56 70
f 95 86 70
f 86 87 70
f 70 80 68
f 70 82 83
f 70 93 94
f 70 54 96
f 96 97 70
f 102 103 70
f 70 101 102
f 70 89 90
f 70 107 95
f 90 91 70
f 70 79 80
f 85 81 70
f 70 94 82
f 70 56 54
f 97 98 70
f 70 100 101
f 88 89 70
f 70 87 88
f 106 107 70
f 70 105 106
f 70 58 59
f 83 84 70
f 70 66 67
f 70 60 61
f 61 62 70
f 57 58 70
f 64 65 70
f 70 84 85
f 92 93 70
f 70 91 92
f 70 65 66
f 70 63 64
f 62 63 70
f 78 79 70
f 70 77 78
f 70 76 77
f 75 76 70
f 70 74 75
f 70 73 74
f 70 72 73
f 71 72 70
f 24 23 70
f 70 69 24
f 23 22 70
f 22 71 70

