# https://github.com/mikedh/trimesh
v -16.83670818 84.61331660 -0.02269789
v 4.20361806 81.00000000 -24.86155624
v 4.25617808 81.00599364 -24.84747282
v 4.30621790 81.02368719 -24.83406470
v 5.01272514 83.89412512 -25.40924297
v 7.59770345 79.77178894 -27.11213021
v 7.59496312 79.82368879 -27.10235144
v 7.58933825 79.87229125 -27.08227930
v 7.57055950 79.95114944 -27.01526802
v 7.55824593 79.97787646 -26.97132747
v 7.54469082 79.99440654 -26.92295657
v 7.53050074 80.00000000 -26.87231978
v 0.00000000 80.00000000 -27.90752608
v 0.00000000 79.99440654 -27.96011355
v 0.00000000 79.97787646 -28.01034786
v 0.00000000 79.95114944 -28.05598113
v 0.00000000 79.91542146 -28.09497138
v 0.00000000 79.87229125 -28.12557390
v 4.70394867 79.99929641 -27.54650300
v 5.05528178 80.00000000 -27.44584009
v 2.54294293 79.99440654 -27.84423443
v 2.54751168 79.97787646 -27.89426055
v 2.55166198 79.95114944 -27.93970469
v 2.55520810 79.91542146 -27.97853335
v 2.55799137 79.87229125 -28.00900904
v 2.55988724 79.82368879 -28.02976803
v 5.07390733 79.97787646 -27.54696084
v 5.08217352 79.95114944 -27.59183918
v 5.08923638 79.91542146 -27.63018440
v 5.09477984 79.87229125 -27.66028065
v 5.09855586 79.82368879 -27.68078118
v 5.82227358 79.92545554 -18.66745985
v -6.10966637 77.25105638 -18.83076140
v -0.57575679 79.99108364 -19.60967578
v 5.78220911 79.98489165 -19.63987317
v -2.66461036 82.64993155 -17.29504611
v -12.25721500 82.58192976 -13.01506775
v -3.88752120 82.55436898 17.46299529
v -14.44405162 82.63577311 10.25955952
v -17.64496424 82.68554997 -1.65835733
v 27.85607215 2.90372357 29.84448160
v 8.12448471 2.96290150 40.02033410
v 39.38638051 2.97438175 10.82431872
v 40.02366185 2.81859660 -5.79362228
v 8.25192382 2.90838421 -40.00967013
v -34.03903072 11.66382627 2.00366452
v -17.87594449 77.07390151 2.38990454
v 7.13870341 74.30237447 16.42285515
v 13.25260803 74.43418897 14.91972527
v 7.91032674 84.67882700 -22.37816539
v 12.07476826 74.56669242 16.31676503
v 23.41657374 3.48199017 -33.00545993
v 36.21602280 11.41821629 3.31310921
v 15.14534413 83.96700179 1.36262345
v 5.76696474 83.84847552 -13.87519614
v 5.77395672 83.74963010 13.29298161
v -14.21452484 83.68162990 -1.71630517
v -9.35949000 83.76272861 11.50435867
v -9.08950632 83.70802381 -11.17250417
v -27.39026874 85.00001305 5.75782637
v -28.36109149 84.80221515 6.94442185
v -19.51052927 84.82238229 2.96832286
v -7.65165953 84.81575523 -28.27548916
v 8.69620938 85.00001186 -26.49165286
v 8.24504959 85.00009332 -27.82180686
v 25.24669280 84.92219714 14.06899088
v 18.94180073 84.81001255 21.07097686
v 20.55850591 84.81083998 20.79646721
v 8.81371167 84.70523413 -14.55438789
v 13.66900919 84.64531785 -13.56969522
v -0.07534910 85.00513621 -19.45724084
v -1.58941140 85.03149238 -17.42349584
v 15.09221744 84.82407856 -8.26912143
v -7.57708314 84.80980877 -17.71837626
v -15.89742833 84.70514735 -10.89360550
v 7.70412476 85.00000000 -26.36765729
v 7.72596404 85.00000000 -26.48424728
v 7.73000673 85.00000000 -26.56174527
v 7.72174941 85.00000000 -26.67147199
v 7.69573596 85.00000000 -26.78455993
v 7.65403744 85.00000000 -26.88837148
v 7.60201362 85.00000000 -26.97757856
v 7.52659333 85.00000000 -27.07050452
v 7.44496102 85.00000000 -27.14507570
v -6.64692712 84.99884888 -19.37604061
v -12.47708469 84.98715193 11.74378936
v 0.02766843 84.82299919 17.37646831
v -16.57137341 84.85819749 9.47762906
v -26.68712343 85.00000000 6.51186088
v -26.79901296 85.00000000 6.55124251
v -26.86814954 85.00000000 6.58649044
v -26.95904701 85.00000000 6.64850484
v -27.04397731 85.00000000 6.72757713
v -27.11303148 85.00000000 6.81559488
v -27.16427517 85.00000000 6.90525236
v -27.20704127 85.00000000 7.01703123
v -25.09373846 84.92591692 14.89806015
v 18.98299867 85.00000000 19.85579640
v 19.07304892 85.00000000 19.93300477
v 19.13814281 85.00000000 19.97525483
v 19.23729759 85.00000000 20.02296715
v 19.34824135 85.00000000 20.05698281
v 19.45899405 85.00000000 20.07277660
v 19.56226155 85.00000000 20.07232620
v 19.68044794 85.00000000 20.05347329
v 19.78584463 85.00000000 20.02006323
v 16.71828568 85.08621320 8.48066422
v -12.91607216 84.84091505 15.39409437
v 12.27457106 84.83707053 15.41441289
v -7.14695834 74.36610775 18.36566048
v 19.90819206 84.83873529 3.55003476
v -8.94370521 84.70000000 -26.06279628
v -14.69183391 30.23593779 -29.10460473
v -7.09675157 84.70391349 -19.18456633
v -0.26170837 84.94456407 -29.24460510
v -11.55478134 48.58372043 -30.52831762
v 7.15558975 84.70391288 -19.55821197
v 20.66090792 48.58372043 25.27089299
v 27.74567852 12.01122993 23.53452008
v 27.85814929 84.83956483 6.25462487
v 18.50044634 28.85485890 27.89664816
v -32.21568927 48.58372043 5.25742463
v -33.76391584 11.73894976 14.41154269
v -19.80127714 53.51191544 25.29854552
v 20.02939743 84.70000000 21.29208077
v 19.77364115 84.70000000 21.34384529
v 18.75068143 13.24355627 30.07961202
v 19.30045553 48.63732138 25.71290824
v 20.04591632 48.62393126 25.60898020
v 19.65344870 35.60331697 27.20962506
v -19.66984836 84.85726778 21.21060230
v -35.62952225 12.54295461 1.60120504
v -29.59211389 66.68970623 4.47398289
v -31.91825950 48.63732138 3.85823067
v -33.42293662 35.09726562 3.33850089
v -29.38681018 75.72856972 6.06998137
v -31.06433439 57.66954290 4.51480168
v -29.70265918 66.68501610 4.55946839
v -31.22575449 57.66504700 4.86698812
v -32.78621959 41.33110756 3.55314602
v -28.56413778 80.02283153 5.62944857
v -29.56890760 71.22124115 5.20522315
v -29.61080897 71.21650259 5.26456523
v -8.61624865 84.86205161 -26.82666383
v -10.92139683 66.69043415 -27.86447275
v -14.37426984 33.69913615 -29.78704593
v -12.61764935 48.63877795 -29.57106386
v -13.29856466 40.91303615 -30.25449565
v -16.10567145 17.06358196 -30.89187580
v -11.44213803 57.67247047 -29.42185332
v -8.53997514 80.22651938 -28.55273852
v -9.45115650 79.89718557 -27.48837081
v -10.29085322 71.22403658 -28.17665332
v -11.25700730 62.19199127 -28.67730278
v -9.12662614 78.88980794 -28.26643039
v 15.74669769 19.41323235 -30.89943787
v 12.61780398 48.63732139 -29.57113891
v 9.43664702 75.72856972 -28.48471484
v 10.97563526 65.99030075 -28.10549441
v 11.39794189 57.66504700 -29.47579070
v 13.33447087 40.27400126 -30.33208376
v 9.66682795 75.98165231 -28.14260799
v 28.43694973 84.66000497 6.45706050
v 19.86328860 74.43885651 1.95836228
v -11.60453050 74.31999043 16.23819654
v -8.18519672 74.85960915 -18.27121323
v 8.26997353 74.94882820 -18.10156453
v 7.03803734 84.83736326 -18.46568224
v 13.71808194 81.00000000 14.05191543
v 15.88476867 80.86685297 12.77657447
v -19.02835671 81.00000000 4.85424974
v -23.90881868 80.90184227 11.46025185
v -18.90590603 80.87185730 7.47948790
v -25.85951420 80.90425131 9.37828153
v 5.31027477 81.00000000 -18.90616517
v 2.97448428 80.87181158 -20.11279258
v 25.12287742 82.75000000 7.99818335
v 23.78055585 82.75000000 11.38486145
v 18.64753655 82.75000000 8.42131137
v 19.10118342 82.72649829 6.50312110
v 19.42562883 82.75000000 6.42604461
v 20.07097171 82.75000000 6.64452930
v 18.33306177 80.77977403 9.39295636
v 17.54960257 81.76745241 8.94194357
v -15.19563812 82.73149527 13.29672325
v -19.48806867 82.75000000 17.75795839
v -21.74985716 82.75000000 14.90213476
v -16.61683786 82.75000000 11.93858468
v -15.27793154 82.75000000 13.61006658
v -2.03069869 82.75000000 -20.35989606
v -3.53672900 82.71007281 -19.87092944
v -4.14769703 82.75000000 -20.03611025
v -4.28115469 82.75000000 -20.70423603
v -5.63480875 82.75000000 -25.75614174
v -2.03069869 82.75000000 -26.28699621
v 19.68094179 79.77178894 20.13586930
v 21.60157561 79.77178894 18.06002860
v 23.30428577 79.77178894 15.80199250
v 24.77189475 79.77178894 13.38454080
v 19.24043223 12.28917955 28.10562258
v 33.32564999 12.38654371 7.68414613
v 25.65163270 63.04528659 14.80997705
v 26.52326567 80.08109365 8.94693368
v -27.27864523 79.77178894 6.97626091
v -26.44123137 79.77178894 9.67749894
v -25.33706982 79.77178894 12.28110724
v -23.97729973 79.77178894 14.76081976
v -33.96039926 12.28917955 2.60989180
v -33.00509715 11.46775785 9.18339033
v -20.37848323 11.33867597 27.82977875
v -25.65163270 63.04528659 14.80997705
v -11.78056062 12.03744400 -32.22087407
v 1.36580249 79.32102488 -28.25425323
v -5.53173064 79.36032108 -27.62436427
v 6.27469214 12.38943998 -33.80436147
v -19.08111952 14.63037395 29.46523004
v -35.48864820 2.90575082 -19.94746676
v -13.77662530 2.92658688 38.46662383
v -3.33421375 13.50633323 35.76013481
v -33.44259351 13.36895188 -13.12500422
v 30.81232103 12.69435244 -18.16386692
v 17.45508440 13.50171783 -30.74234369
v 18.52822767 74.78984094 -7.56051047
v -17.18166338 74.78765288 -9.86222094
v -18.70025487 14.19603800 -29.68644632
v 34.32725856 17.66330619 0.50453440
v 10.92058954 74.59564288 16.38470776
v 3.05887292 73.74479108 19.93094198
v 13.87559266 55.75481577 20.72358669
v 16.69876008 29.16069250 26.90242839
v -14.42859587 44.73605926 23.32351714
v -13.44594590 59.60903299 19.82125551
v -11.45653181 72.41812177 16.82025159
v -15.45608649 43.99187964 23.51636694
v -16.90428703 28.20270331 27.14628385
v -19.83254194 75.27538327 2.05237146
v -31.87758755 28.69746632 1.15395396
v -14.78444704 29.84788154 -27.85232899
v 7.43886072 11.73762887 -35.72689977
v -10.70462539 12.21051865 -34.48475641
v 14.79052275 29.82400476 -27.79348756
v 12.45980015 44.91160642 -25.34905102
v 10.44273793 59.60903250 -21.55515859
v 10.69628543 74.28564307 -16.50355832
v 8.06513809 74.60894596 -19.12429891
v 14.71595841 30.00899516 -28.41945018
v -40.84340763 3.29240901 -0.00272657
v -23.36895825 3.61925120 -33.38639903
v 34.81658466 2.97241165 -21.36707961
v -11.50632254 73.56123258 14.49679737
v -13.02237351 77.23752648 14.44481990
v -6.90420786 74.33406672 -16.89635261
v -6.75330058 71.04827345 -19.09230796
v 20.53165410 79.96398894 4.93093012
v 20.42471436 80.06629049 4.97766969
v 17.60869404 77.14882991 1.69429762
v 19.10382991 73.32893242 3.54929397
v -5.99551630 79.96398894 -20.24639910
v -5.90156348 80.06630503 -20.17715418
v -7.01917735 77.24230554 -16.68959481
v -20.53600812 79.77178894 4.91468827
v -14.53613780 79.96398894 15.31546898
v -11.54887581 77.25239745 14.19013140
v 12.82906692 77.22186301 13.99994310
v 5.93717762 77.15732975 -17.59763695
v 13.27028010 82.63784472 11.62163173
v 17.67648651 82.60267657 1.27900244
v 14.52424896 79.77178894 15.32736059
v 6.01175916 79.77178894 -20.24204886
v 32.10003424 30.08341524 3.51273879
v 27.08140576 79.96398894 6.68593079
v 19.33075721 79.77178894 20.13386885
v 19.16309421 12.68502698 28.09725181
v 16.53131279 28.49466890 25.21406734
v 16.15907376 35.55458562 23.56107933
v -2.08758517 74.05722755 18.20424003
v -19.09213815 30.08341524 26.04307572
v -19.33088879 79.96398894 20.11021996
v -17.55526040 25.78489187 25.94346418
v -32.10003424 30.08341524 3.51273879
v -27.10182050 79.77178894 6.67399240
v -33.91448095 12.68502698 2.54710049
v -30.07620850 29.30618233 2.03301875
v -19.32405217 77.31580991 4.23496026
v -15.65951767 74.21855434 -9.05706128
v -13.59171295 28.51708088 -26.85089670
v -13.00789609 30.08341524 -29.55581451
v -9.79957963 51.33287933 -23.04483651
v -7.75051697 79.96398894 -26.79615075
v -14.75138674 12.68502698 -30.64435230
v -13.60535164 26.05220580 -28.08895641
v -15.23106613 11.65368537 -30.50640424
v 13.00789609 30.08341524 -29.55581451
v 7.77106329 79.77178894 -26.80786124
v 13.38766342 28.08040947 -27.69632022
v 30.30357558 28.43835969 2.12268481
v 33.91448095 12.68502698 2.54710049
v 33.70662339 12.62680972 1.65176039
v 19.55684162 62.81206880 22.25150758
v 19.52901669 62.81327948 22.26004278
v 19.37076823 45.84173058 24.28184968
v 19.22514045 37.96463088 25.17974715
v 19.33169900 29.06887016 26.22241897
v 19.42554229 71.29724361 21.23322126
v 19.45499300 71.29799416 21.23970651
v 19.48340249 71.29828836 21.24256101
v 19.27925946 33.51893682 25.71854684
v 19.56537185 75.53846829 20.71792714
v 19.59382697 75.53728492 20.70872139
v 18.26789347 28.35087812 25.72221332
v 19.46596674 77.65973943 20.46330161
v 19.49476256 77.66005633 20.46613453
v 19.59864160 78.71805004 20.31857129
v 19.20109897 29.62049232 26.16230698
v -3.45844713 15.33273024 33.24660453
v 6.92599767 12.83863234 33.54412123
v -27.19859371 79.77885419 6.72568526
v -27.26418567 79.78033922 6.81390438
v -27.28101150 79.77885419 6.86657223
v -28.94890905 62.81206867 5.64961633
v -29.04227088 62.81327948 5.78260317
v -29.04879165 62.81206880 5.81096787
v -30.71408278 45.84173058 4.63465254
v -31.41887089 37.96463087 4.05958642
v -32.37513047 29.06887016 3.63053295
v -29.00635805 62.81440371 5.70803083
v -31.91254463 33.51893682 3.83705503
v -32.26050082 29.58029118 3.54507712
v -32.01307458 31.80284126 3.66040790
v -21.51292834 29.66494947 -20.24844484
v 7.77468257 79.77885419 -26.91751573
v 7.73107855 79.78033922 -27.01842960
v 7.69387976 79.77885419 -27.05933511
v 9.58174326 62.81206867 -27.89529881
v 9.51325419 62.81327948 -28.04264595
v 9.49195003 62.81206880 -28.06247545
v 11.34331456 45.84173058 -28.91650221
v 12.19373047 37.96463088 -29.23933363
v 13.04343147 29.06887016 -29.85295192
v 9.55987932 62.81440371 -27.97425836
v 12.63328517 33.51893682 -29.55560189
v 12.83653105 31.80284127 -29.55433987
v 12.95463554 30.43788434 -29.71111379
v 13.04618673 29.74383921 -29.69365534
v 25.98656238 11.96379825 -22.65447788
v 17.10776895 74.49840211 -6.16927520
v 25.62159345 33.46653248 -14.80039664
v 26.63787266 11.37180965 21.82029670
v 18.77637472 11.66943725 28.46435427
v -29.65893092 11.56660657 17.06656047
v -32.28313799 13.66071083 -9.00429085
v -24.49786421 11.71783586 -24.09742963
v 15.47211689 11.69980395 -30.34752346
v 33.50571057 11.60714754 -7.05902397
v -8.79573737 2.86820077 -39.55176045
v -37.27750562 3.02101859 16.45135772
v -27.48552873 2.89070728 29.74566695
v 6.08413803 82.62790490 -16.52290099
v 14.30375441 82.70198109 -10.25991725
v 5.72592400 82.72305054 16.58137761
v -0.82808916 89.03004773 -20.36998261
v -6.41494749 89.01712408 -26.56749951
v -5.05610202 88.99001660 -19.42764954
v 0.13125756 81.24127513 -19.38748024
v 0.13125756 81.24127513 -28.07428587
v -3.04491903 84.97513429 -20.03458309
v -1.59421053 84.99991978 -26.53077636
v -14.39469742 85.00848242 -8.67135552
v -9.36270879 85.23878946 -14.47083357
v 7.40084253 81.24127567 -27.00973118
v 7.47609319 81.24127554 -26.92799004
v 7.52604419 81.24127499 -26.85052964
v 7.55782471 81.24127464 -26.78064497
v 7.58836142 81.24127460 -26.66944150
v 7.59764574 81.24127479 -26.57998686
v 7.59404186 81.24127502 -26.49006824
v 7.57733969 81.24127513 -26.40162925
v 5.48573482 81.24127513 -18.59565358
v 2.11121944 83.86456075 -17.35559762
v 5.77119662 80.00000000 -20.30650740
v -0.75432568 80.00000000 -19.66142732
v -0.75432568 80.00000000 -27.68964830
v -5.85470477 85.00015925 -25.89346562
v -0.52894050 88.98904682 -27.45247573
v -14.36382344 89.00231097 14.19578386
v -16.85567919 81.24127513 9.58006774
v -24.37867354 81.24127513 13.92347055
v -19.82621037 88.99413958 19.06122316
v -15.90300751 84.96973974 12.43137464
v -22.17922104 84.99991978 14.64601500
v -19.49840900 84.99997269 18.01299865
v 17.72678186 89.00658423 9.48640107
v 26.26796686 89.00104634 7.54860304
v 19.35908157 88.97602954 5.36727906
v 16.72442162 81.24127513 9.80741251
v 24.24741598 81.24127513 14.15081532
v 23.77343157 84.99991978 11.88476136
v 25.34416409 85.00067063 7.87474031
v -2.98659288 85.14680885 19.16049032
v 17.98747457 85.46227418 -4.39336601
v 13.28597755 84.75128684 10.15816512
v 8.24594702 84.19882734 15.75474652
v 19.69069208 81.24127567 19.91418323
v 19.58227685 81.24127554 19.93848164
v 19.49021868 81.24127499 19.94301028
v 19.41380652 81.24127464 19.93559068
v 19.30223314 81.24127460 19.90643451
v 19.22012098 81.24127479 19.86974765
v 19.14405111 81.24127502 19.82166728
v 19.07581178 81.24127513 19.76298329
v 13.36144099 81.24127513 14.04861250
v -27.05837004 81.24127554 6.98950840
v -27.01626287 81.24127499 6.90751936
v -26.97163123 81.24127464 6.84505429
v -26.89059456 81.24127460 6.76300699
v -26.81776672 81.24127479 6.71023921
v -26.73809297 81.24127502 6.66840095
v -26.65315148 81.24127513 6.63864596
v -18.84717581 81.24127513 4.54704108
v -18.89617470 84.66747035 -3.87438323
v -23.78735141 80.00238910 14.68441790
v -27.06744656 80.00020358 6.96095577
v -27.03736196 80.00000000 6.91455495
v -20.47154958 80.00000000 5.15525082
v -20.12793742 79.93485307 4.87133486
v -16.65013269 80.00000000 10.48397886
v -23.68286630 80.00001439 14.55162235
v 24.55278403 80.00000000 13.26615274
v 23.09815624 80.00000000 15.66222176
v 19.55146703 80.00082062 19.95921528
v 19.50686122 80.00000000 19.95776484
v 14.70035296 80.00000000 15.15125658
v 14.23253598 79.92696014 14.97187224
v 13.26266856 79.92259415 14.37378816
v 17.19989538 79.95809373 9.32296183
v 17.40445837 80.00000000 9.17744845
v 24.44350773 80.00001439 13.23415266
v -17.18473900 89.01667462 10.59611333
v -23.46325301 89.00282111 14.18003645
v 18.72403787 84.96279646 7.26437103
v 24.01131750 88.99139275 13.22979981
v -5.24693340 81.76745241 -20.44545640
v -6.71902526 81.50551919 -26.58137614
v -6.80874682 81.40418094 -26.24972396
v -19.60636330 81.68930988 19.14827842
v 20.32975134 81.76745241 5.67875058
v 26.13730120 81.40418094 7.22831427
v 24.78504195 80.08259454 13.09516149
v 20.34005143 81.28354404 5.64031012
v 27.07298318 80.06720000 6.71736426
v -23.79944941 80.04269409 15.12900855
v -14.53528032 80.06951173 15.19882932
v -19.35389968 80.06720000 20.08720907
v -5.28537387 81.28354404 -20.43515631
v -7.71908350 80.06720000 -26.80457332
v -5.13717710 81.35635605 -19.89346876
v 27.26061640 79.97106131 6.87861479
v 27.24380427 79.97254789 6.82592056
v 27.17821037 79.97106131 6.73765155
v 32.37056492 29.11672142 3.63366335
v 28.93422621 62.95601609 5.65872827
v 31.41423298 38.01245256 4.06267745
v 30.70467230 45.93734523 4.64081221
v 29.02758863 62.95722885 5.79176796
v 29.03410339 62.95601622 5.82014371
v 32.23637906 29.76660423 3.54998034
v 31.90794587 33.56677736 3.84016558
v 28.99168257 62.95835482 5.71716667
v 32.01078121 31.82676362 3.66196127
v 32.20446673 30.47377271 3.63885190
v -19.58736335 79.97106131 20.16907893
v -19.53332275 79.97254789 20.18086631
v -19.42408259 79.97106131 20.16819484
v -19.33212723 29.11672142 26.21689988
v -19.36771554 62.95601609 22.22841080
v -19.37139742 45.93734523 24.27062012
v -19.22549839 38.01245256 25.17418509
v -19.52961250 62.95722885 22.24274518
v -19.55744400 62.95601622 22.23419926
v -19.19256273 29.76660421 26.14253303
v -19.27965390 33.56677736 25.71300892
v -19.44705286 62.95835482 22.24895027
v -19.17674212 31.82676362 25.89116910
v -19.25357157 30.47377271 26.07046035
v -7.67325305 79.97106131 -27.04769372
v -7.71048152 79.97254789 -27.00678688
v -7.75412778 79.97106131 -26.90584639
v -13.03843769 29.11672142 -29.85056323
v -9.56651067 62.95601609 -27.88713907
v -11.33327488 45.93734523 -28.91143233
v -12.18873461 38.01245256 -29.23686259
v -9.49797613 62.95722885 -28.03451314
v -9.47665939 62.95601622 -28.05434297
v -13.04381637 29.76660412 -29.69251344
v -12.62829197 33.56677736 -29.55317453
v -9.54462972 62.95835482 -27.96611694
v -12.83403911 31.82676362 -29.55313044
v -12.95089516 30.47377271 -29.70931229
v 24.19185716 81.27392584 12.71486444
v 26.33478173 81.34824381 7.36763920
v 26.25551948 81.30636740 7.24463511
v 26.15752705 81.34159500 7.22431677
v 20.33374635 81.34174582 5.66384028
v -19.51267733 80.06065639 20.16374546
v -1.07213278 81.29768916 -27.28037779
v -6.77491496 81.36515029 -26.46484546
v -6.85521887 81.30627306 -26.37228929
v -7.70699446 80.06129554 -26.97871541
v -6.82230925 81.34162343 -26.26522711
v -5.26184361 81.34174582 -20.44146103
v 17.35390632 80.02633244 8.83104710
v 19.33880411 77.24775461 4.06393620
v 14.53142996 79.82368879 15.32017958
v 14.54616987 79.87229125 15.30543967
v 14.56780912 79.91542146 15.28380042
v 14.59537939 79.95114944 15.25623015
v 14.62764699 79.97787646 15.22396256
v 14.66316800 79.99440654 15.18844154
v 17.44665705 80.02018511 9.08872059
v 17.48203114 80.07669765 9.01418246
v 17.50450507 80.15436683 8.96872386
v 19.33793822 79.82368879 20.12668784
v 19.35267813 79.87229125 20.11194793
v 19.37431738 79.91542146 20.09030868
v 19.40188765 79.95114944 20.06273841
v 19.43415525 79.97787646 20.03047081
v 19.46967626 79.99440654 19.99494980
v 24.38461287 80.00613008 13.14390819
v 24.43430474 80.05338168 13.05783936
v 24.45404850 80.09218597 13.02364215
v 19.67384329 79.82368879 20.12860672
v 19.63788213 79.91542146 20.09181431
v 19.61062864 79.95114944 20.06393086
v 19.57873180 79.97787646 20.03129672
v 19.55806971 79.84978801 20.19620306
v 19.46705411 79.92817978 20.16878544
v 24.64600964 80.00722910 13.22613199
v 24.74462049 79.87229125 13.36980419
v 24.71769667 79.91542146 13.35525695
v 24.68339341 79.95114944 13.33672250
v 24.64324568 79.97787646 13.31503021
v 24.59905000 79.99440654 13.29115078
v 23.14168118 79.99440654 15.69173483
v 23.18325849 79.97787646 15.71992725
v 23.22102767 79.95114944 15.74553749
v 23.25329865 79.91542146 15.76741955
v 23.27862736 79.87229125 15.78459425
v 23.29588041 79.82368879 15.79629306
v 21.45085161 79.99440654 17.93401558
v 21.48939111 79.97787646 17.96623658
v 21.52440071 79.95114944 17.99550641
v 21.55431383 79.91542146 18.02051532
v 21.57779192 79.87229125 18.04014421
v 21.59378439 79.82368879 18.05351474
v 24.84284605 79.84604484 13.22759908
v 27.07990785 79.99985397 6.69152104
v 27.07708043 80.03450154 6.70207314
v 27.25439184 80.03654101 6.91978944
v 27.21826489 80.04925780 6.80871589
v 27.15124503 80.04186965 6.73319903
v 20.53015620 79.99985397 4.93652037
v 20.52732877 80.03450154 4.94707247
v 18.89207473 81.95047685 4.99433697
v -19.07552201 79.92461248 4.29222318
v -16.35486399 79.96003593 10.57876621
v -18.41120373 79.99758010 6.84307073
v -20.53337969 79.82368879 4.92449771
v -20.52798451 79.87229125 4.94463280
v -20.52006399 79.91542146 4.97419256
v -20.50997257 79.95114944 5.01185426
v -20.49816181 79.97787646 5.05593261
v -20.48516022 79.99440654 5.10445522
v -16.59439144 80.02018511 10.56488792
v -16.54752657 80.07669765 10.63279184
v -16.51939524 80.15436683 10.67498414
v -27.09919207 79.82368879 6.68380183
v -27.09379689 79.87229125 6.70393693
v -27.08587638 79.91542146 6.73349669
v -27.07578496 79.95114944 6.77115838
v -27.06397420 79.97787646 6.81523674
v -27.05097260 79.99440654 6.86375935
v -23.57526483 80.00613008 14.54574012
v -23.52557297 80.05338168 14.63180895
v -23.50582920 80.09218597 14.66600615
v -27.26880641 79.82368879 6.97374472
v -27.24861099 79.87229125 6.96857993
v -27.21896267 79.91542146 6.96099764
v -27.13697773 79.97787646 6.94003075
v -27.25437113 79.82986701 6.80276288
v -27.26647840 79.86509512 6.92646377
v -27.14468077 79.93068584 6.74693979
v -27.18198581 79.95690208 6.86678607
v -23.77717107 80.00722911 14.73100448
v -23.95090032 79.87229125 14.74456785
v -23.92484013 79.91542146 14.72852477
v -23.89163719 79.95114944 14.70808449
v -23.85277726 79.97787646 14.68416168
v -23.80999922 79.99440654 14.65782682
v -25.16028158 79.99440654 12.19541638
v -25.20548559 79.97787646 12.21732717
v -25.24654930 79.95114944 12.23723112
v -25.28163520 79.91542146 12.25423758
v -25.30917328 79.87229125 12.26758553
v -25.32793128 79.82368879 12.27667771
v -26.25673890 79.99440654 9.60997464
v -26.30391285 79.97787646 9.62724032
v -26.34676607 79.95114944 9.64292461
v -26.38338097 79.91542146 9.65632568
v -26.41211913 79.87229125 9.66684385
v -26.43169458 79.82368879 9.67400847
v -23.87685985 79.84604493 14.90073622
v -21.01104512 82.36733243 17.41522456
v -19.33498114 79.99985397 20.10612761
v -19.34270581 80.03450154 20.09840294
v -19.40773122 80.04919668 20.14404147
v -14.54023015 79.99985397 15.31137663
v -14.54795482 80.03450154 15.30365195
v 6.00194973 79.82368879 -20.24467729
v 5.98181463 79.87229125 -20.25007247
v 5.95225487 79.91542146 -20.25799299
v 5.91459318 79.95114944 -20.26808441
v 5.87051483 79.97787646 -20.27989517
v 5.82199221 79.99440654 -20.29289676
v -0.85226560 80.02018511 -19.65360851
v -0.93450457 80.07669765 -19.64697430
v -0.98510983 80.15436683 -19.64370800
v -0.89220706 79.95405509 -19.51668067
v 7.76125386 79.82368879 -26.81048967
v 7.74111876 79.87229125 -26.81588486
v 7.71155900 79.91542146 -26.82380537
v 7.67389731 79.95114944 -26.83389679
v 7.62981895 79.97787646 -26.84570755
v 7.58129634 79.99440654 -26.85870915
v -0.80934804 80.00613008 -27.68964830
v -0.90873177 80.05338168 -27.68964830
v -0.94821930 80.09218597 -27.68964830
v -1.03632630 80.09120503 -28.01215359
v 7.64787643 79.89877196 -27.05293377
v 7.72207556 79.92477787 -26.94672044
v 7.76437720 79.85005656 -26.85851859
v -0.85618117 79.98608586 -28.01475015
v -0.40159750 79.83545659 -28.14223090
v -0.97918468 79.84825387 -28.12952346
v -7.63214357 80.01544696 -27.07113705
v -3.01508021 82.52167092 -26.95510342
v -7.74492672 79.99985397 -26.79764865
v -7.73437462 80.03450154 -26.80047608
v -7.73954859 80.05635290 -26.88380985
v -5.98992605 79.99985397 -20.24789700
v -5.97937395 80.03450154 -20.25072443
v -5.07648021 82.07736620 -18.87820984
v 26.12012804 81.88680360 7.23994550
v 26.09796330 81.99934086 7.25703612
v 26.06349856 82.10787928 7.28358530
v 26.01833651 82.20899236 7.31833732
v 25.95532259 82.31464880 7.36675337
v 25.87313405 82.41907173 7.42977279
v 25.78019136 82.50950728 7.50086110
v 25.67993469 82.58488541 7.57733015
v 25.57420423 82.64533607 7.65773537
v 25.46336937 82.69192808 7.74175829
v 25.30024728 82.73459074 7.86492011
v 25.21164164 82.74615620 7.93157761
v 25.32039023 82.52716692 9.77000919
v 26.25796509 81.79308742 7.29906022
v 20.32700323 81.89637079 5.68900669
v 20.31997102 82.02284000 5.71525125
v 20.30877238 82.14474386 5.75704514
v 20.29359469 82.26004259 5.81368902
v 20.27469193 82.36680694 5.88423509
v 20.25238038 82.46325045 5.96750293
v 20.22703337 82.54775936 6.06209925
v 20.19907504 82.61891961 6.16644118
v 20.16897319 82.67554050 6.27878282
v 20.13723151 82.71667461 6.39724437
v 20.10438113 82.74163366 6.51984367
v 26.22315946 82.25462881 7.47647964
v 24.04943555 82.59471952 12.14223433
v 19.37557521 82.70261981 6.04053627
v 19.40277320 82.74798024 6.34779369
v 19.71674263 81.73121711 5.50202749
v 23.81420229 82.73574110 11.59874637
v 23.84666996 82.69263980 11.80848598
v 23.88971623 82.58014138 12.09196935
v 23.90845381 82.50388237 12.21735251
v 23.92425510 82.42094767 12.32406234
v 23.93832344 82.32608319 12.41982427
v 23.95037184 82.21953593 12.50240957
v 23.95921650 82.11410105 12.56337652
v 23.96569911 82.00453462 12.60824154
v 23.96963677 81.89975203 12.63558604
v 23.97104858 81.83406014 12.64541331
v 24.10622398 81.77059945 12.69438108
v 24.21874708 82.09822658 12.61459155
v 18.47734995 82.73790364 8.50340259
v 18.31041926 82.70150430 8.58342899
v 18.14980372 82.64063665 8.65998579
v 18.01317765 82.56479868 8.72475938
v 17.89857248 82.47938987 8.77882321
v 17.79489271 82.37810392 8.82751768
v 17.71370725 82.27417183 8.86551225
v 17.65231887 82.17089257 8.89416208
v 17.60391469 82.05939518 8.91670555
v 17.57277249 81.95352289 8.93118619
v 17.55640399 81.86144852 8.93878762
v 18.53943771 82.74582514 8.43999186
v 18.16344394 82.50146960 7.56364028
v 17.51395403 82.27816076 8.73745368
v -15.69854081 82.74163366 14.15098295
v -15.60879190 82.71667461 14.24073186
v -15.52207202 82.67554050 14.32745174
v -15.43983223 82.61891961 14.40969152
v -15.36344864 82.54775936 14.48607512
v -15.29419933 82.46325045 14.55532443
v -15.23324304 82.36680694 14.61628072
v -15.18159973 82.26004259 14.66792403
v -13.57396299 80.90368148 14.05288733
v -13.94803805 82.25731582 13.79114161
v -15.19872715 82.74797969 13.62939981
v -14.69720475 82.56348421 14.02478839
v -19.46216976 82.73558114 17.97146910
v -19.43631265 82.69208438 18.18049641
v -19.41896282 82.64554629 18.31851054
v -19.40065804 82.57876139 18.46228723
v -19.38462726 82.50199701 18.58671921
v -19.37088204 82.41868467 18.69234076
v -19.35848645 82.32368137 18.78678130
v -19.34774848 82.21724478 18.86799026
v -16.57896621 82.74582514 11.83562810
v -16.30233054 82.47345832 11.08737535
v -16.52191085 82.73333979 11.74193512
v -16.52574803 82.10446128 10.80633036
v -16.53101304 82.21436834 10.86638354
v -16.53763367 82.31823172 10.94270836
v -16.54614147 82.42150439 11.04215499
v -16.56560819 82.58639054 11.27590500
v -16.57602441 82.64711942 11.40475274
v -16.58669750 82.69384909 11.53971395
v -16.60053236 82.73328314 11.71947174
v -16.60875720 82.74581042 11.82897117
v -16.31489844 82.01930930 10.71573439
v -19.51232146 82.56717379 18.60872525
v -22.28041446 82.67659502 14.98268725
v -23.09460184 81.38139700 14.57151959
v -22.86568943 82.10107517 14.46525498
v -22.81102810 82.20586857 14.48706277
v -22.73643092 82.31219433 14.51675840
v -22.63919818 82.41709028 14.55534936
v -22.52948672 82.50773210 14.59873534
v -22.39480780 82.59229373 14.65176221
v -22.23829414 82.66307089 14.71306504
v -22.10577810 82.70487494 14.76469632
v -21.86269958 82.74555232 14.85875302
v -22.93965612 82.27522500 14.69438611
v -1.86229214 82.73574110 -26.42307734
v -1.69688614 82.69263980 -26.55606497
v -1.47290548 82.58014138 -26.73508582
v -1.37368927 82.50388237 -26.81400462
v -1.28917648 82.42094767 -26.88104385
v -1.21327839 82.32608319 -26.94110835
v -1.14778162 82.21953593 -26.99283523
v -1.09940503 82.11410105 -27.03097840
v -1.06379208 82.00453462 -27.05902502
v -1.04207989 81.89975203 -27.07610738
v -1.95914070 82.74518175 -26.39051093
v -1.56736187 82.61004532 -26.83609622
v -1.19295149 82.15851593 -27.26387180
v -1.87451231 82.73790364 -20.25355574
v -1.72174208 82.70150430 -20.14900273
v -1.57513417 82.64063665 -20.04818399
v -1.45072556 82.56479868 -19.96224914
v -1.34660232 82.47938987 -19.89003007
v -1.25259179 82.37810392 -19.82458798
v -1.17909480 82.27417183 -19.77327660
v -1.12358913 82.17089257 -19.73443762
v -1.07986382 82.05939518 -19.70379010
v -1.05175212 81.95352289 -19.68406049
v -1.09540289 81.88471551 -19.47848210
v -6.66174445 82.22900716 -26.40468912
v -4.68648304 82.71810467 -26.21084032
v -1.90998517 82.73791395 -20.21477764
v -6.79008729 81.88680360 -26.24066718
v -6.76420402 81.99934086 -26.23001726
v -6.72397939 82.10787928 -26.21344452
v -6.67130222 82.20899236 -26.19170905
v -6.59786573 82.31464880 -26.16134541
v -6.50219504 82.41907173 -26.12167776
v -6.39415942 82.50950728 -26.07673118
v -6.27780694 82.58488541 -26.02814089
v -6.15530875 82.64533607 -25.97677823
v -6.02712534 82.69192808 -25.92280389
v -5.83890302 82.73459074 -25.84311692
v -5.73687312 82.74615620 -25.79971093
v -6.09868516 82.67137037 -26.09613784
v -1.31454525 82.40554141 -19.64079770
v -5.23667730 81.89637079 -20.44820452
v -5.21043274 82.02284000 -20.45523673
v -5.16863885 82.14474386 -20.46643537
v -5.11199497 82.26004259 -20.48161305
v -5.04144889 82.36680694 -20.50051581
v -4.95818105 82.46325045 -20.52282737
v -4.86358474 82.54775936 -20.54817437
v -4.75924280 82.61891961 -20.57613271
v -4.64690117 82.67554050 -20.60623456
v -4.52843961 82.71667461 -20.63797624
v -4.40584032 82.74163366 -20.67082662
v -4.30112014 82.73526140 -19.87708948
v 4.06077725 83.97479828 -21.20080021
v 4.15166153 80.92772773 -25.10675197
v 4.80697548 80.87201206 -26.92077984
v 3.51057603 81.00599364 -22.06484807
v 3.56061584 81.02368719 -22.05143994
v 3.47447511 81.00611616 -22.01030016
v 3.57832574 81.12260815 -21.85383447
v 2.12903213 83.94711245 -21.38716673
v 2.71696700 81.07526465 -22.00614664
v 2.10826279 83.97526344 -25.81918777
v 2.73818597 81.08510577 -25.23866258
v -23.44609557 84.00787438 11.05592849
v -24.63026364 83.99529961 8.29255778
v -24.08582788 80.96530994 9.70604339
v 21.34432079 83.99041825 14.79315696
v 19.53845564 84.00648019 17.15038644
v 17.19320678 80.99473650 13.58125946
v -19.58646624 84.08959890 7.86936110
v 16.57698627 84.06174242 12.90818685
v -20.31158811 80.99304211 8.15816424
v 20.43717293 80.96589209 15.97511089
v -28.25539135 84.68695351 6.18236708
v 8.05246585 84.70174683 -28.21040652
v 8.86895979 84.70149767 -27.27857045
v -18.97576153 81.01065486 4.76460440
v -18.94191468 81.03037470 4.70711176
v -18.89762399 81.07723025 4.63212145
v -18.86290794 81.14822165 4.57353499
v -16.88752010 81.14404826 9.57141016
v -16.93145630 81.09238172 9.55942991
v -17.01109355 81.03974580 9.53761557
v -17.10059232 81.00959712 9.51294597
v -16.99000803 81.07839853 9.46175681
v -18.80631451 81.06581060 4.98470062
v -26.60256951 81.00599364 6.82742028
v -26.61597764 81.02368719 6.77738046
v -26.62806758 81.05223224 6.73226023
v -26.63825963 81.09026009 6.69422305
v -26.65110965 81.18710331 6.64626616
v -24.36989650 81.14346376 13.89104502
v -24.35778747 81.09171641 13.84640015
v -24.33584259 81.03929412 13.76575451
v -27.02184909 81.02599747 7.08854276
v -26.85854249 81.13597188 6.75128757
v 13.61414921 81.01065486 14.05118934
v 13.54743570 81.03037470 14.05062343
v 13.46034684 81.07723025 14.04976173
v 13.39225145 81.14822165 14.04898997
v 16.73284439 81.14404826 9.83931633
v 16.74443730 81.09238172 9.88335633
v 16.76536415 81.03974580 9.96323138
v 16.78874904 81.00959712 10.05307438
v 16.68912583 81.07839854 9.98290006
v 13.71895026 81.06591997 13.79438677
v 19.21400415 81.00599364 19.62479086
v 19.17737247 81.02368719 19.66142255
v 19.14434218 81.05223224 19.69445287
v 19.11649703 81.09026009 19.72229803
v 19.08139016 81.18710331 19.75740491
v 24.21494612 81.14346376 14.15942695
v 24.17022801 81.09171641 14.17126265
v 24.08941440 81.03929412 14.19258065
v 21.85769501 80.90164168 14.97893413
v 19.67671211 81.02449850 19.84647700
v 19.28828029 81.11052182 19.87579273
v 20.98047701 80.88778611 17.63457996
v 5.36161231 81.01065486 -18.81579374
v 5.39447898 81.03037470 -18.75773519
v 5.43727715 81.07723025 -18.68188317
v 5.47065648 81.14822165 -18.62252496
v 0.15467570 81.14404826 -19.41072649
v 0.18701900 81.09238172 -19.44278623
v 0.24572940 81.03974580 -19.50084695
v 0.31184328 81.00959712 -19.56602035
v 0.30088215 81.07839853 -19.44465697
v 5.08627982 81.06581060 -18.77909644
v 7.38856535 81.00599364 -26.45221113
v 7.43860517 81.02368719 -26.43880302
v 7.48372541 81.05223224 -26.42671310
v 7.52176260 81.09026009 -26.41652107
v 7.56971948 81.18710331 -26.40367107
v 0.15495038 81.14346376 -28.05047197
v 0.18755945 81.09171641 -28.01766280
v 0.24642819 81.03929412 -27.95833516
v 2.01838861 80.89446660 -26.35694904
v 7.34887905 81.02402901 -26.96289485
v 7.56880132 81.11052187 -26.64203710
f 3 809 2
f 4 809 3
f 5 809 4
f 11 12 20
f 21 13 14
f 21 19 13
f 22 14 15
f 22 21 14
f 23 15 16
f 23 22 15
f 24 16 17
f 24 23 16
f 25 17 18
f 25 24 17
f 26 18 642
f 26 642 213
f 26 25 18
f 19 11 20
f 27 10 11
f 27 21 22
f 27 11 19
f 27 19 21
f 28 9 10
f 28 22 23
f 28 27 22
f 28 10 27
f 29 8 638
f 29 638 9
f 29 9 28
f 29 28 23
f 29 23 24
f 30 7 8
f 30 24 25
f 30 29 24
f 30 8 29
f 31 6 7
f 31 213 6
f 31 26 213
f 31 25 26
f 31 30 25
f 31 7 30
f 35 627 34
f 35 32 627
f 218 315 316
f 218 210 315
f 357 210 218
f 357 350 210
f 356 350 357
f 356 209 350
f 356 46 209
f 356 351 46
f 217 351 356
f 217 352 351
f 355 292 352
f 355 352 217
f 355 212 292
f 45 212 355
f 45 215 212
f 250 263 276
f 38 263 39
f 38 276 263
f 263 47 39
f 47 40 39
f 37 40 47
f 37 47 285
f 37 285 260
f 260 36 37
f 260 33 36
f 45 239 222
f 52 45 222
f 249 221 226
f 44 249 226
f 44 226 53
f 43 44 53
f 43 53 119
f 41 43 119
f 41 119 127
f 42 41 127
f 42 127 219
f 96 61 97
f 95 61 96
f 94 61 95
f 93 61 94
f 60 61 93
f 92 60 93
f 60 92 91
f 60 91 90
f 60 90 89
f 86 88 108
f 399 86 108
f 62 60 89
f 420 62 88
f 1 88 86
f 87 399 109
f 401 87 402
f 98 109 67
f 99 98 67
f 100 99 67
f 101 100 67
f 102 101 67
f 103 102 67
f 104 103 67
f 105 67 68
f 105 104 67
f 106 105 68
f 66 106 68
f 107 401 109
f 72 85 74
f 107 54 401
f 71 85 72
f 111 400 107
f 107 73 54
f 168 71 70
f 70 73 400
f 115 63 144
f 64 76 168
f 64 77 76
f 64 78 77
f 64 79 78
f 65 80 79
f 65 79 64
f 65 81 80
f 65 115 84
f 65 82 81
f 65 83 82
f 65 84 83
f 228 227 109
f 399 228 109
f 399 108 165
f 399 165 110
f 399 110 228
f 420 224 236
f 420 236 62
f 224 420 75
f 75 74 166
f 75 166 224
f 244 168 70
f 70 223 244
f 223 70 111
f 111 164 223
f 112 113 114
f 240 63 115
f 240 116 63
f 239 240 115
f 119 66 68
f 119 163 66
f 119 68 118
f 119 53 163
f 97 61 122
f 124 123 216
f 124 131 97
f 123 124 97
f 97 122 123
f 118 68 125
f 128 67 109
f 128 126 67
f 129 125 126
f 129 118 125
f 129 126 128
f 121 128 109
f 130 119 118
f 127 119 130
f 130 129 128
f 130 118 129
f 121 127 130
f 121 130 128
f 131 124 108
f 133 62 237
f 237 134 133
f 135 123 122
f 136 122 61
f 137 133 134
f 137 138 133
f 139 137 134
f 139 122 136
f 139 134 140
f 139 140 122
f 139 138 137
f 140 135 122
f 132 135 237
f 141 62 133
f 142 133 138
f 142 141 133
f 142 136 141
f 143 142 138
f 143 139 136
f 143 136 142
f 143 138 139
f 140 134 237
f 132 123 135
f 829 141 136
f 829 136 61
f 829 62 141
f 140 237 135
f 145 113 112
f 146 145 147
f 146 113 145
f 148 116 240
f 149 148 240
f 225 149 240
f 150 116 147
f 148 147 116
f 146 149 113
f 146 148 149
f 151 144 63
f 151 63 116
f 151 150 155
f 151 116 150
f 152 112 144
f 152 145 112
f 153 145 152
f 153 152 155
f 153 155 150
f 154 153 150
f 154 150 147
f 154 147 145
f 154 145 153
f 148 146 147
f 155 144 151
f 152 144 155
f 159 50 246
f 246 157 159
f 161 239 115
f 156 239 161
f 222 239 156
f 158 115 830
f 160 159 157
f 160 161 115
f 160 157 161
f 160 115 158
f 246 156 161
f 831 50 159
f 162 831 159
f 162 159 160
f 162 160 158
f 161 157 246
f 831 158 830
f 162 158 831
f 120 163 53
f 120 53 226
f 111 120 164
f 109 227 51
f 108 124 165
f 74 114 166
f 167 245 50
f 168 244 167
f 117 167 50
f 117 168 167
f 170 169 871
f 873 170 871
f 173 850 174
f 171 850 173
f 893 810 176
f 893 176 175
f 707 708 511
f 563 511 512
f 563 707 511
f 182 180 181
f 664 178 179
f 664 179 180
f 664 180 182
f 177 664 182
f 184 693 499
f 184 499 183
f 730 741 565
f 717 284 251
f 717 565 284
f 717 730 565
f 718 730 717
f 185 186 612
f 188 612 187
f 188 185 612
f 627 265 33
f 795 778 627
f 651 627 33
f 651 795 627
f 191 192 193
f 780 193 194
f 780 190 191
f 780 191 193
f 195 190 780
f 555 448 203
f 202 196 197
f 202 197 198
f 202 198 199
f 202 199 555
f 202 555 203
f 348 196 202
f 348 202 203
f 348 203 201
f 348 200 196
f 451 612 210
f 211 204 205
f 211 205 206
f 211 206 207
f 211 207 611
f 211 611 451
f 350 204 211
f 350 211 451
f 451 210 350
f 209 208 204
f 209 204 350
f 643 637 214
f 213 643 214
f 214 212 215
f 215 213 214
f 215 6 213
f 58 38 39
f 57 58 39
f 57 39 40
f 58 360 38
f 56 360 58
f 57 40 37
f 59 57 37
f 56 266 360
f 54 266 56
f 267 266 54
f 36 59 37
f 36 55 59
f 358 55 36
f 359 267 54
f 359 54 55
f 359 55 358
f 218 42 219
f 218 219 216
f 357 218 216
f 357 216 123
f 356 357 123
f 247 123 132
f 247 356 123
f 247 132 220
f 217 247 220
f 248 217 225
f 248 225 240
f 355 248 240
f 45 355 240
f 45 240 239
f 110 219 228
f 230 219 127
f 219 230 228
f 235 216 219
f 235 219 110
f 220 236 224
f 166 220 224
f 220 132 237
f 220 237 236
f 225 220 166
f 225 166 238
f 221 244 223
f 222 241 244
f 222 244 221
f 226 221 223
f 225 217 220
f 221 249 52
f 221 52 222
f 226 223 164
f 226 164 120
f 230 127 121
f 51 121 109
f 51 229 121
f 227 228 229
f 230 229 228
f 230 121 229
f 51 227 229
f 231 235 110
f 231 232 234
f 231 110 233
f 231 233 232
f 234 124 235
f 234 232 124
f 165 124 232
f 165 232 233
f 234 235 231
f 233 110 165
f 235 124 216
f 236 237 62
f 238 114 113
f 238 166 114
f 225 238 149
f 238 113 149
f 222 156 241
f 241 156 246
f 242 246 50
f 242 241 246
f 242 243 241
f 244 241 243
f 245 243 242
f 245 242 50
f 167 243 245
f 167 244 243
f 355 217 248
f 356 247 217
f 249 45 52
f 512 254 255
f 512 255 563
f 257 512 256
f 257 254 512
f 33 258 259
f 33 259 651
f 252 33 260
f 253 33 252
f 253 258 33
f 425 284 564
f 261 284 425
f 251 262 452
f 251 452 717
f 251 263 250
f 250 262 251
f 33 358 36
f 264 266 267
f 265 358 33
f 358 265 359
f 346 267 359
f 346 256 267
f 264 267 256
f 360 266 264
f 360 264 48
f 360 48 276
f 360 276 38
f 433 264 434
f 268 49 264
f 268 264 433
f 35 265 32
f 269 265 35
f 257 270 271
f 254 257 271
f 272 310 49
f 272 49 268
f 349 310 273
f 310 349 274
f 275 274 48
f 264 275 48
f 49 310 275
f 49 275 264
f 275 310 274
f 279 277 250
f 250 277 278
f 262 250 278
f 281 280 284
f 281 284 261
f 46 280 282
f 46 283 280
f 284 280 283
f 47 284 283
f 288 287 253
f 286 288 252
f 291 288 286
f 291 287 288
f 253 252 288
f 253 287 289
f 258 253 289
f 292 290 287
f 292 287 291
f 294 293 265
f 294 265 269
f 265 293 295
f 296 270 257
f 257 256 296
f 298 270 296
f 298 297 270
f 200 349 273
f 299 196 200
f 299 301 300
f 302 310 272
f 303 301 299
f 303 299 200
f 303 200 273
f 304 301 302
f 304 300 301
f 304 302 272
f 305 300 304
f 306 299 300
f 306 300 305
f 307 302 301
f 307 301 303
f 314 273 310
f 314 303 273
f 308 305 304
f 308 306 305
f 309 196 299
f 309 299 306
f 309 306 308
f 310 302 307
f 311 304 272
f 311 308 304
f 312 309 308
f 312 308 311
f 314 307 303
f 314 310 307
f 313 196 309
f 313 309 312
f 313 312 311
f 536 311 272
f 536 535 311
f 535 196 313
f 535 313 311
f 316 274 349
f 210 279 315
f 315 276 48
f 315 48 274
f 276 279 250
f 315 274 316
f 315 279 276
f 208 46 282
f 320 281 591
f 320 591 317
f 320 280 281
f 321 318 319
f 322 204 208
f 322 319 590
f 322 590 204
f 322 323 321
f 322 321 319
f 324 280 320
f 324 320 323
f 325 323 322
f 325 322 208
f 325 208 282
f 326 317 589
f 326 589 318
f 326 323 320
f 326 321 323
f 326 318 321
f 326 320 317
f 327 323 325
f 327 324 323
f 328 282 280
f 328 325 282
f 329 280 324
f 329 328 280
f 329 327 325
f 329 324 327
f 329 325 328
f 351 283 46
f 292 291 352
f 330 260 285
f 330 252 260
f 351 47 283
f 330 286 252
f 351 285 47
f 330 351 352
f 330 285 351
f 330 352 291
f 330 291 286
f 215 353 295
f 334 294 640
f 334 640 331
f 334 293 294
f 335 332 333
f 336 6 215
f 336 333 638
f 336 638 6
f 336 337 335
f 336 335 333
f 338 293 334
f 338 334 337
f 339 336 215
f 339 337 336
f 339 215 295
f 340 331 639
f 340 639 332
f 340 335 337
f 340 337 334
f 340 332 335
f 340 334 331
f 341 338 337
f 341 337 339
f 344 295 293
f 344 339 295
f 342 293 338
f 342 338 341
f 343 341 339
f 343 339 344
f 343 342 341
f 344 293 342
f 344 342 343
f 345 295 353
f 347 359 265
f 346 359 347
f 347 265 295
f 347 256 346
f 347 296 256
f 347 295 345
f 347 345 354
f 347 354 298
f 347 298 296
f 348 349 200
f 209 46 208
f 45 353 215
f 45 345 353
f 249 345 45
f 44 345 249
f 44 354 345
f 44 298 354
f 43 201 298
f 43 298 44
f 43 348 201
f 41 348 43
f 41 349 348
f 41 316 349
f 42 316 41
f 218 316 42
f 512 264 256
f 263 251 284
f 47 263 284
f 363 71 361
f 363 85 71
f 71 115 384
f 71 364 365
f 71 365 115
f 361 71 384
f 144 362 384
f 115 144 384
f 362 144 85
f 363 362 85
f 366 363 361
f 361 384 367
f 366 361 367
f 384 383 367
f 362 383 384
f 383 363 366
f 362 363 383
f 367 383 366
f 75 368 369
f 74 75 369
f 72 74 369
f 115 365 810
f 76 376 377
f 77 376 76
f 78 375 376
f 78 376 77
f 79 374 375
f 79 375 78
f 80 373 374
f 80 374 79
f 81 372 373
f 81 373 80
f 82 371 372
f 82 372 81
f 83 370 371
f 83 371 82
f 84 893 370
f 84 370 83
f 115 810 893
f 115 893 84
f 378 76 377
f 168 76 378
f 69 379 72
f 71 72 379
f 379 70 71
f 70 379 69
f 70 69 73
f 364 71 168
f 176 364 168
f 378 176 168
f 382 34 381
f 13 34 382
f 13 382 641
f 19 35 34
f 19 380 35
f 19 34 13
f 20 380 19
f 12 380 20
f 385 88 438
f 385 108 88
f 387 88 386
f 97 88 387
f 439 438 88
f 439 88 97
f 131 388 439
f 97 131 439
f 388 131 108
f 385 388 108
f 389 385 438
f 438 439 390
f 438 390 389
f 439 391 390
f 388 391 439
f 391 385 389
f 388 385 391
f 389 390 391
f 394 107 392
f 394 111 107
f 396 107 395
f 66 107 396
f 441 392 107
f 441 107 66
f 120 393 441
f 66 120 441
f 393 120 111
f 394 393 111
f 392 441 397
f 392 397 440
f 441 398 397
f 393 398 441
f 398 393 440
f 398 440 397
f 399 87 86
f 400 73 107
f 109 402 87
f 401 402 109
f 66 396 873
f 98 409 410
f 99 409 98
f 100 408 409
f 100 409 99
f 101 407 408
f 101 408 100
f 102 406 407
f 102 407 101
f 103 405 406
f 103 406 102
f 104 404 405
f 104 405 103
f 105 403 404
f 105 404 104
f 106 871 403
f 106 403 105
f 66 873 871
f 66 871 106
f 411 98 410
f 109 98 411
f 97 387 174
f 89 417 418
f 90 417 89
f 91 416 417
f 91 417 90
f 92 415 416
f 92 416 91
f 93 414 415
f 93 415 92
f 94 413 414
f 94 414 93
f 95 412 413
f 95 413 94
f 96 850 412
f 96 412 95
f 97 174 850
f 97 850 96
f 419 89 418
f 62 89 419
f 75 1 368
f 420 88 1
f 420 1 75
f 386 88 62
f 173 386 62
f 419 173 62
f 395 107 109
f 170 395 109
f 411 170 109
f 425 564 566
f 424 425 566
f 427 566 426
f 421 566 427
f 422 424 566
f 422 566 421
f 423 424 422
f 433 434 435
f 432 433 435
f 437 435 436
f 429 437 428
f 429 435 437
f 430 432 435
f 430 435 429
f 431 432 430
f 392 440 394
f 394 440 393
f 651 456 442
f 443 442 456
f 443 456 444
f 203 677 500
f 203 664 677
f 665 446 681
f 665 681 447
f 203 500 558
f 448 499 664
f 501 255 450
f 501 449 255
f 681 255 449
f 563 255 681
f 451 744 612
f 445 452 453
f 507 259 455
f 507 454 259
f 456 259 454
f 651 259 456
f 297 298 201
f 460 297 201
f 461 271 270
f 461 459 560
f 461 560 271
f 461 270 462
f 461 462 463
f 464 457 458
f 465 203 558
f 465 558 457
f 465 201 203
f 465 460 201
f 465 457 464
f 465 463 460
f 465 464 463
f 466 270 297
f 466 297 460
f 467 460 463
f 467 463 462
f 468 458 559
f 468 559 459
f 468 459 461
f 468 464 458
f 468 463 464
f 468 461 463
f 469 462 270
f 469 467 462
f 470 466 460
f 470 460 467
f 470 467 469
f 466 469 270
f 466 470 469
f 474 279 210
f 475 278 277
f 475 473 615
f 475 615 278
f 475 477 476
f 475 277 477
f 478 471 472
f 479 612 445
f 479 445 471
f 479 210 612
f 479 478 476
f 479 471 478
f 479 476 474
f 479 474 210
f 480 277 279
f 480 279 474
f 481 476 477
f 481 474 476
f 482 472 504
f 482 504 473
f 482 473 475
f 482 476 478
f 482 478 472
f 482 475 476
f 483 477 277
f 483 481 477
f 484 480 474
f 484 474 481
f 484 481 483
f 480 483 277
f 480 484 483
f 290 292 212
f 488 290 212
f 489 289 287
f 489 487 648
f 489 648 289
f 489 491 490
f 489 287 491
f 492 485 486
f 493 214 644
f 493 644 485
f 493 212 214
f 493 492 490
f 493 490 488
f 493 488 212
f 493 485 492
f 494 287 290
f 494 290 488
f 495 490 491
f 495 488 490
f 496 486 508
f 496 508 487
f 496 487 489
f 496 489 490
f 496 490 492
f 496 492 486
f 497 491 287
f 497 495 491
f 498 494 488
f 498 488 495
f 498 495 497
f 494 497 287
f 494 498 497
f 499 693 694
f 500 677 665
f 500 665 447
f 664 499 694
f 560 501 450
f 560 500 501
f 559 558 500
f 559 500 560
f 500 447 502
f 500 502 501
f 447 681 503
f 502 503 449
f 502 447 503
f 501 502 449
f 681 449 503
f 504 445 453
f 615 504 453
f 445 717 452
f 645 637 505
f 645 505 767
f 507 455 506
f 508 443 506
f 648 508 506
f 648 506 455
f 509 443 444
f 507 443 509
f 506 443 507
f 444 456 510
f 509 510 454
f 509 444 510
f 507 509 454
f 456 454 510
f 32 265 627
f 511 184 183
f 511 708 184
f 434 512 435
f 434 264 512
f 433 513 268
f 433 514 513
f 433 515 514
f 433 516 515
f 433 517 516
f 433 518 517
f 433 432 518
f 511 183 521
f 511 435 512
f 435 519 436
f 511 521 520
f 511 520 519
f 511 519 435
f 268 522 272
f 513 523 522
f 513 522 268
f 514 524 523
f 514 523 513
f 515 525 524
f 515 524 514
f 516 526 525
f 516 525 515
f 517 527 526
f 517 526 516
f 518 431 527
f 518 527 517
f 432 431 518
f 528 436 519
f 528 437 436
f 537 528 519
f 529 519 520
f 529 537 519
f 530 529 520
f 521 530 520
f 448 530 521
f 183 448 521
f 536 526 527
f 536 524 525
f 536 525 526
f 536 431 430
f 536 527 431
f 536 522 523
f 536 523 524
f 536 430 534
f 536 272 522
f 536 533 532
f 536 534 533
f 535 536 532
f 535 531 196
f 448 183 499
f 537 428 437
f 537 437 528
f 448 529 530
f 448 537 529
f 196 531 197
f 543 428 542
f 543 429 428
f 544 542 541
f 544 543 542
f 545 541 540
f 545 544 541
f 546 540 539
f 546 545 540
f 547 539 538
f 547 546 539
f 548 199 198
f 548 555 199
f 548 538 555
f 548 547 538
f 549 430 429
f 549 534 430
f 549 429 543
f 550 533 534
f 550 549 543
f 550 534 549
f 550 543 544
f 551 550 544
f 551 533 550
f 551 544 545
f 552 532 533
f 552 545 546
f 552 533 551
f 552 551 545
f 553 531 535
f 553 535 532
f 553 532 552
f 553 546 547
f 553 552 546
f 554 198 197
f 554 547 548
f 554 553 547
f 554 548 198
f 554 197 531
f 554 531 553
f 555 538 539
f 537 540 541
f 537 541 542
f 537 542 428
f 448 539 540
f 448 555 539
f 448 540 537
f 664 203 448
f 558 458 457
f 559 458 558
f 560 459 559
f 560 556 271
f 560 557 556
f 560 450 557
f 562 450 255
f 562 557 450
f 561 556 557
f 561 557 562
f 254 271 556
f 254 556 561
f 254 561 255
f 255 561 562
f 565 564 284
f 565 426 566
f 566 564 565
f 425 567 261
f 425 568 567
f 425 569 568
f 425 570 569
f 425 571 570
f 425 572 571
f 425 424 572
f 565 741 575
f 565 573 426
f 565 575 574
f 565 574 573
f 261 576 281
f 567 577 576
f 567 576 261
f 568 578 577
f 568 577 567
f 569 579 578
f 569 578 568
f 570 580 579
f 570 579 569
f 571 581 580
f 571 580 570
f 572 423 581
f 572 581 571
f 424 423 572
f 582 426 573
f 582 427 426
f 593 582 573
f 583 573 574
f 583 593 573
f 584 583 574
f 575 584 574
f 451 584 575
f 741 451 575
f 589 319 318
f 589 590 319
f 591 589 317
f 591 281 576
f 592 589 591
f 591 576 577
f 592 590 589
f 591 577 578
f 590 586 585
f 590 587 586
f 590 585 204
f 592 587 590
f 591 578 579
f 592 422 588
f 591 579 580
f 591 580 581
f 591 423 422
f 591 581 423
f 591 422 592
f 451 741 744
f 593 421 427
f 593 427 582
f 451 583 584
f 451 593 583
f 204 585 205
f 599 421 598
f 600 598 597
f 600 599 598
f 601 597 596
f 601 600 597
f 602 596 595
f 602 601 596
f 603 595 594
f 603 602 595
f 604 207 206
f 604 611 207
f 604 594 611
f 604 603 594
f 605 422 421
f 605 588 422
f 605 421 599
f 606 605 599
f 606 588 605
f 606 599 600
f 607 587 592
f 607 592 588
f 607 606 600
f 607 588 606
f 607 600 601
f 608 607 601
f 608 587 607
f 608 601 602
f 609 586 587
f 609 587 608
f 609 602 603
f 609 608 602
f 610 206 205
f 610 585 586
f 610 609 603
f 610 603 604
f 610 604 206
f 610 205 585
f 610 586 609
f 611 594 595
f 593 596 597
f 593 597 598
f 593 598 421
f 451 595 596
f 451 611 595
f 451 596 593
f 504 472 471
f 504 471 445
f 615 473 504
f 615 613 278
f 615 614 613
f 615 453 614
f 617 453 452
f 617 614 453
f 616 613 614
f 616 614 617
f 262 278 613
f 262 613 616
f 262 616 452
f 452 616 617
f 35 618 269
f 35 619 618
f 35 620 619
f 35 621 620
f 35 622 621
f 35 623 622
f 35 380 623
f 627 778 626
f 627 381 34
f 627 624 381
f 627 626 625
f 627 625 624
f 269 628 294
f 618 629 628
f 618 628 269
f 619 630 629
f 619 629 618
f 620 631 630
f 620 630 619
f 621 632 631
f 621 631 620
f 622 633 632
f 622 632 621
f 623 12 633
f 623 633 622
f 380 12 623
f 634 381 624
f 634 382 381
f 641 634 624
f 635 624 625
f 635 641 624
f 636 635 625
f 626 636 625
f 637 636 626
f 637 626 778
f 505 637 778
f 638 7 6
f 638 8 7
f 638 10 9
f 638 333 332
f 639 11 10
f 639 10 638
f 639 12 11
f 639 633 12
f 639 638 332
f 639 632 633
f 639 631 632
f 639 630 631
f 640 629 630
f 640 630 639
f 639 331 640
f 640 628 629
f 640 294 628
f 634 641 382
f 637 635 636
f 637 641 635
f 14 13 641
f 641 15 14
f 641 16 15
f 641 17 16
f 641 18 17
f 642 643 213
f 642 18 641
f 641 643 642
f 637 643 641
f 443 214 645
f 443 644 214
f 645 214 637
f 644 486 485
f 508 486 644
f 508 644 443
f 648 487 508
f 648 646 289
f 648 647 646
f 648 455 647
f 650 455 259
f 650 647 455
f 649 646 647
f 649 647 650
f 258 289 646
f 258 646 649
f 258 649 259
f 259 649 650
f 662 661 664
f 664 663 662
f 177 177 663
f 177 663 664
f 677 659 658
f 677 660 659
f 664 660 677
f 664 661 660
f 665 653 652
f 677 653 665
f 677 654 653
f 677 655 654
f 677 656 655
f 677 657 656
f 677 658 657
f 652 446 665
f 652 666 446
f 653 667 666
f 653 666 652
f 654 668 667
f 654 667 653
f 655 669 668
f 655 668 654
f 656 670 669
f 656 669 655
f 657 671 670
f 657 670 656
f 658 672 671
f 658 671 657
f 659 673 672
f 659 672 658
f 660 674 673
f 660 673 659
f 661 675 674
f 661 674 660
f 662 676 675
f 662 675 661
f 663 182 676
f 663 676 662
f 177 182 663
f 678 178 664
f 694 678 664
f 681 446 666
f 181 675 676
f 181 676 182
f 563 669 670
f 563 670 671
f 563 671 672
f 563 672 673
f 681 666 667
f 681 667 668
f 681 668 669
f 681 669 563
f 679 181 680
f 679 673 674
f 679 674 675
f 679 563 673
f 679 675 181
f 682 678 683
f 178 678 682
f 178 178 682
f 693 692 691
f 678 685 684
f 693 691 690
f 694 693 690
f 694 690 689
f 694 689 688
f 694 688 687
f 694 687 686
f 678 694 686
f 678 686 685
f 680 180 679
f 680 181 180
f 181 181 680
f 563 679 180
f 184 692 693
f 705 691 692
f 705 692 184
f 704 690 691
f 704 691 705
f 703 689 690
f 703 690 704
f 702 688 689
f 702 689 703
f 701 687 688
f 701 688 702
f 700 686 687
f 700 687 701
f 699 685 686
f 699 686 700
f 698 684 685
f 698 685 699
f 697 683 678
f 697 678 684
f 697 684 698
f 696 682 683
f 696 683 697
f 695 178 682
f 695 682 696
f 179 178 695
f 180 707 563
f 707 179 706
f 707 180 179
f 705 184 708
f 707 695 696
f 707 696 708
f 706 179 695
f 706 695 707
f 179 179 706
f 708 699 700
f 708 698 699
f 708 697 698
f 708 696 697
f 708 704 705
f 708 703 704
f 708 702 703
f 708 701 702
f 708 700 701
f 189 709 185
f 189 710 709
f 720 713 712
f 720 714 713
f 720 715 714
f 720 716 715
f 720 717 716
f 718 717 720
f 720 711 710
f 720 712 711
f 720 189 719
f 720 710 189
f 720 185 718
f 719 185 720
f 719 189 185
f 189 189 719
f 728 716 717
f 727 715 716
f 727 716 728
f 726 714 715
f 726 715 727
f 725 713 714
f 725 714 726
f 724 712 713
f 724 713 725
f 723 711 712
f 723 712 724
f 722 710 711
f 722 711 723
f 721 709 710
f 721 710 722
f 186 185 709
f 186 709 721
f 730 718 185
f 731 188 729
f 731 185 188
f 731 730 185
f 742 721 722
f 186 186 721
f 186 721 742
f 742 724 725
f 742 723 724
f 742 722 723
f 445 728 717
f 742 728 445
f 742 727 728
f 742 726 727
f 742 725 726
f 730 739 738
f 731 740 739
f 731 739 730
f 729 188 740
f 729 740 731
f 188 188 729
f 730 737 736
f 730 738 737
f 741 733 732
f 741 734 733
f 741 735 734
f 741 730 735
f 612 186 742
f 612 742 445
f 743 187 612
f 754 743 612
f 754 612 744
f 741 745 744
f 732 746 745
f 732 745 741
f 733 747 746
f 733 746 732
f 734 748 747
f 734 747 733
f 735 749 748
f 735 748 734
f 730 749 735
f 736 750 749
f 736 749 730
f 737 751 750
f 737 750 736
f 738 752 751
f 738 751 737
f 739 743 752
f 739 753 743
f 739 752 738
f 740 187 753
f 740 753 739
f 188 187 740
f 753 187 743
f 187 187 753
f 754 749 750
f 743 754 750
f 743 750 751
f 743 751 752
f 754 744 745
f 754 745 746
f 754 746 747
f 754 747 748
f 754 748 749
f 755 765 645
f 755 645 756
f 195 195 765
f 195 765 755
f 766 758 757
f 766 756 645
f 767 505 764
f 767 764 763
f 767 763 762
f 767 762 761
f 767 761 760
f 767 760 759
f 767 759 758
f 767 758 766
f 778 764 505
f 777 763 764
f 777 764 778
f 776 762 763
f 776 763 777
f 775 761 762
f 775 762 776
f 774 760 761
f 774 761 775
f 773 759 760
f 773 760 774
f 772 758 759
f 772 759 773
f 771 757 758
f 771 758 772
f 770 756 766
f 770 766 757
f 770 757 771
f 769 755 756
f 769 756 770
f 768 195 755
f 768 755 769
f 190 195 768
f 780 194 794
f 645 780 794
f 645 794 779
f 443 645 779
f 645 195 780
f 645 765 195
f 767 766 645
f 795 768 769
f 781 190 768
f 781 768 795
f 190 190 781
f 795 771 772
f 795 770 771
f 795 769 770
f 778 776 777
f 795 775 776
f 795 776 778
f 795 774 775
f 795 773 774
f 795 772 773
f 794 792 791
f 794 793 792
f 194 793 794
f 194 194 793
f 779 782 443
f 794 789 788
f 794 790 789
f 794 791 790
f 779 783 782
f 779 784 783
f 779 785 784
f 779 786 785
f 779 787 786
f 779 788 787
f 779 794 788
f 191 651 192
f 191 795 651
f 191 190 781
f 191 781 795
f 782 442 443
f 782 796 442
f 783 797 796
f 783 796 782
f 784 798 797
f 784 797 783
f 785 799 798
f 785 798 784
f 786 800 799
f 786 799 785
f 787 801 800
f 787 800 786
f 788 802 801
f 788 801 787
f 789 803 802
f 789 802 788
f 790 804 803
f 790 803 789
f 791 805 804
f 791 804 790
f 792 806 805
f 792 805 791
f 793 193 806
f 793 806 792
f 194 193 793
f 807 192 651
f 192 192 807
f 651 442 796
f 807 804 805
f 192 805 806
f 192 806 193
f 192 807 805
f 651 799 800
f 651 800 801
f 651 801 802
f 651 802 803
f 651 803 804
f 651 804 807
f 651 796 797
f 651 797 798
f 651 798 799
f 815 176 808
f 5 808 176
f 5 176 810
f 892 817 5
f 810 892 5
f 176 815 817
f 176 817 892
f 817 818 809
f 817 809 5
f 2 809 813
f 816 813 809
f 814 813 816
f 816 808 814
f 815 808 816
f 813 812 811
f 814 812 813
f 5 814 808
f 4 812 814
f 4 814 5
f 3 811 812
f 3 812 4
f 2 813 811
f 2 811 3
f 816 818 817
f 816 817 815
f 818 816 809
f 820 825 173
f 820 173 174
f 172 819 820
f 174 172 820
f 173 819 172
f 825 819 173
f 825 821 827
f 825 820 821
f 819 821 820
f 825 827 821
f 819 825 821
f 823 826 170
f 823 170 873
f 870 822 823
f 873 870 823
f 170 822 870
f 826 822 170
f 826 828 824
f 826 823 828
f 822 828 823
f 826 824 828
f 822 826 828
f 114 144 112
f 117 50 831
f 163 120 66
f 125 67 126
f 125 68 67
f 829 61 60
f 62 829 60
f 114 74 85
f 85 144 114
f 830 115 65
f 831 830 65
f 831 65 64
f 117 831 64
f 168 117 64
f 111 70 400
f 840 839 838
f 840 173 839
f 840 838 837
f 840 386 173
f 840 836 386
f 840 837 836
f 841 832 171
f 841 171 173
f 841 833 832
f 841 834 833
f 841 173 419
f 841 835 834
f 841 419 835
f 846 419 418
f 846 835 419
f 851 835 846
f 845 834 835
f 845 835 851
f 844 833 834
f 844 834 845
f 843 832 833
f 843 833 844
f 842 171 832
f 842 832 843
f 850 171 842
f 836 387 386
f 836 847 387
f 837 848 847
f 837 847 836
f 838 849 848
f 838 848 837
f 839 172 849
f 839 849 838
f 173 172 839
f 846 418 417
f 851 417 416
f 851 846 417
f 850 842 843
f 850 843 844
f 850 413 412
f 851 414 413
f 851 413 850
f 851 415 414
f 851 416 415
f 851 844 845
f 851 850 844
f 848 387 847
f 849 387 848
f 172 387 849
f 174 387 172
f 860 859 858
f 860 170 859
f 860 858 857
f 860 395 170
f 860 856 395
f 860 857 856
f 861 852 169
f 861 169 170
f 861 853 852
f 861 854 853
f 861 170 411
f 861 855 854
f 861 411 855
f 866 411 410
f 866 855 411
f 872 855 866
f 865 854 855
f 865 855 872
f 864 853 854
f 864 854 865
f 863 852 853
f 863 853 864
f 862 169 852
f 862 852 863
f 871 169 862
f 856 396 395
f 856 867 396
f 857 868 867
f 857 867 856
f 858 869 868
f 858 868 857
f 859 870 869
f 859 869 858
f 170 870 859
f 866 410 409
f 872 409 408
f 872 866 409
f 871 862 863
f 871 863 864
f 871 404 403
f 871 405 404
f 872 406 405
f 872 405 871
f 872 407 406
f 872 408 407
f 872 864 865
f 872 871 864
f 868 396 867
f 869 396 868
f 870 396 869
f 873 396 870
f 882 881 880
f 882 176 881
f 882 880 879
f 882 364 176
f 882 878 364
f 882 879 878
f 883 874 175
f 883 175 176
f 883 875 874
f 883 876 875
f 883 176 378
f 883 877 876
f 883 378 877
f 888 378 377
f 888 877 378
f 894 877 888
f 887 876 877
f 887 877 894
f 886 875 876
f 886 876 887
f 885 874 875
f 885 875 886
f 884 175 874
f 884 874 885
f 893 175 884
f 878 365 364
f 878 889 365
f 879 890 889
f 879 889 878
f 880 891 890
f 880 890 879
f 881 892 891
f 881 891 880
f 176 892 881
f 888 377 376
f 894 376 375
f 894 888 376
f 893 884 885
f 893 885 886
f 893 371 370
f 893 372 371
f 894 373 372
f 894 372 893
f 894 374 373
f 894 375 374
f 894 886 887
f 894 893 886
f 890 365 889
f 891 365 890
f 892 365 891
f 810 365 892
f 59 369 368
f 57 59 368
f 55 369 59
f 57 368 1
f 55 72 369
f 58 1 86
f 58 57 1
f 55 69 72
f 73 69 55
f 73 55 54
f 87 58 86
f 87 56 58
f 401 56 87
f 401 54 56

