# https://github.com/mikedh/trimesh
v 50.81458683 12.94881152 -28.00000000
v 48.59211539 38.35177633 -28.00000000
v 50.98889831 10.95642213 -26.00000000
v 50.98740705 10.97346730 -26.26105238
v 50.98295879 11.02431115 -26.51763809
v 50.97562964 11.10808374 -26.76536686
v 50.96554500 11.22335169 -27.00000000
v 50.95287742 11.36814274 -27.21752286
v 50.93784366 11.53997947 -27.41421356
v 50.92070093 11.73592171 -27.58670668
v 50.90174257 11.95261683 -27.73205081
v 50.88129294 12.18635711 -27.84775907
v 50.85970196 12.43314320 -27.93185165
v 50.83733904 12.68875252 -27.98288972
v 50.98889831 10.95642213 -4.75000000
v 51.03247618 10.45832478 -4.25000000
v 51.02678813 10.52333953 -4.25427757
v 51.02119740 10.58724186 -4.26703709
v 51.01579965 10.64893838 -4.28806023
v 51.01068725 10.70737345 -4.31698730
v 51.00594766 10.76154723 -4.35332333
v 51.00166197 10.81053279 -4.39644661
v 50.99790353 10.85349198 -4.44561929
v 50.99473664 10.88968974 -4.50000000
v 50.99221548 10.91850673 -4.55865828
v 50.99038319 10.93944987 -4.62059048
v 50.98927113 10.95216084 -4.68473690
v 51.25036554 7.96783803 -4.25000000
v 51.42467702 5.97544864 -2.25000000
v 51.42318577 5.99249381 -2.51105238
v 51.41873750 6.04333766 -2.76763809
v 51.41140835 6.12711025 -3.01536686
v 51.40132371 6.24237820 -3.25000000
v 51.38865614 6.38716925 -3.46752286
v 51.37362237 6.55900598 -3.66421356
v 51.35647965 6.75494822 -3.83670668
v 51.33752128 6.97164334 -3.98205081
v 51.31707166 7.20538362 -4.09775907
v 51.29548067 7.45216971 -4.18185165
v 51.27311775 7.70777903 -4.23288972
v 51.42467702 5.97544864 8.25000000
v 51.25036554 7.96783803 10.25000000
v 51.27311775 7.70777903 10.23288972
v 51.29548067 7.45216971 10.18185165
v 51.31707166 7.20538362 10.09775907
v 51.33752128 6.97164334 9.98205081
v 51.35647965 6.75494822 9.83670668
v 51.37362237 6.55900598 9.66421356
v 51.38865614 6.38716925 9.46752286
v 51.40132371 6.24237820 9.25000000
v 51.41140835 6.12711025 9.01536686
v 51.41873750 6.04333766 8.76763809
v 51.42318577 5.99249381 8.51105238
v 51.03247618 10.45832478 10.25000000
v 50.98889831 10.95642213 10.75000000
v 50.98927113 10.95216084 10.68473690
v 50.99038319 10.93944987 10.62059048
v 50.99221548 10.91850673 10.55865828
v 50.99473664 10.88968974 10.50000000
v 50.99790353 10.85349198 10.44561929
v 51.00166197 10.81053279 10.39644661
v 51.00594766 10.76154723 10.35332333
v 51.01068725 10.70737345 10.31698730
v 51.01579965 10.64893838 10.28806023
v 51.02119740 10.58724186 10.26703709
v 51.02678813 10.52333953 10.25427757
v 50.98889831 10.95642213 26.00000000
v 50.81458683 12.94881152 28.00000000
v 50.83733904 12.68875252 27.98288972
v 50.85970196 12.43314320 27.93185165
v 50.88129294 12.18635711 27.84775907
v 50.90174257 11.95261683 27.73205081
v 50.92070093 11.73592171 27.58670668
v 50.93784366 11.53997947 27.41421356
v 50.95287742 11.36814274 27.21752286
v 50.96554500 11.22335169 27.00000000
v 50.97562964 11.10808374 26.76536686
v 50.98295879 11.02431115 26.51763809
v 50.98740705 10.97346730 26.26105238
v 48.59211539 38.35177633 28.00000000
v 48.41780390 40.34416572 26.00000000
v 48.41929516 40.32712055 26.26105238
v 48.42374342 40.27627670 26.51763809
v 48.43107257 40.19250411 26.76536686
v 48.44115721 40.07723616 27.00000000
v 48.45382479 39.93244511 27.21752286
v 48.46885855 39.76060838 27.41421356
v 48.48600128 39.56466614 27.58670668
v 48.50495964 39.34797102 27.73205081
v 48.52540927 39.11423074 27.84775907
v 48.54700025 38.86744465 27.93185165
v 48.56936317 38.61183533 27.98288972
v 48.41780390 40.34416572 23.50000000
v 48.37422603 40.84226307 23.00000000
v 48.37991408 40.77724832 23.00427757
v 48.38550481 40.71334599 23.01703709
v 48.39090256 40.65164947 23.03806023
v 48.39601496 40.59321440 23.06698730
v 48.40075456 40.53904062 23.10332333
v 48.40504024 40.49005506 23.14644661
v 48.40879868 40.44709588 23.19561929
v 48.41196557 40.41089811 23.25000000
v 48.41448673 40.38208113 23.30865828
v 48.41631902 40.36113798 23.37059048
v 48.41743109 40.34842701 23.43473690
v 47.15404563 54.78898884 23.00000000
v 46.97973414 56.78137824 21.00000000
v 46.98122540 56.76433307 21.26105238
v 46.98567366 56.71348922 21.51763809
v 46.99300282 56.62971663 21.76536686
v 47.00308746 56.51444868 22.00000000
v 47.01575503 56.36965763 22.21752286
v 47.03078880 56.19782090 22.41421356
v 47.04793152 56.00187866 22.58670668
v 47.06688989 55.78518354 22.73205081
v 47.08733951 55.55144326 22.84775907
v 47.10893050 55.30465717 22.93185165
v 47.13129342 55.04904785 22.98288972
v 46.97973414 56.78137824 -21.00000000
v 47.15404563 54.78898884 -23.00000000
v 47.13129342 55.04904785 -22.98288972
v 47.10893050 55.30465717 -22.93185165
v 47.08733951 55.55144326 -22.84775907
v 47.06688989 55.78518354 -22.73205081
v 47.04793152 56.00187866 -22.58670668
v 47.03078880 56.19782090 -22.41421356
v 47.01575503 56.36965763 -22.21752286
v 47.00308746 56.51444868 -22.00000000
v 46.99300282 56.62971663 -21.76536686
v 46.98567366 56.71348922 -21.51763809
v 46.98122540 56.76433307 -21.26105238
v 48.37422603 40.84226307 -23.00000000
v 48.41780390 40.34416572 -23.50000000
v 48.41743109 40.34842701 -23.43473690
v 48.41631902 40.36113798 -23.37059048
v 48.41448673 40.38208113 -23.30865828
v 48.41196557 40.41089811 -23.25000000
v 48.40879868 40.44709588 -23.19561929
v 48.40504024 40.49005506 -23.14644661
v 48.40075456 40.53904062 -23.10332333
v 48.39601496 40.59321440 -23.06698730
v 48.39090256 40.65164947 -23.03806023
v 48.38550481 40.71334599 -23.01703709
v 48.37991408 40.77724832 -23.00427757
v 48.41780390 40.34416572 -26.00000000
v 48.56936317 38.61183533 -27.98288972
v 48.54700025 38.86744465 -27.93185165
v 48.52540927 39.11423074 -27.84775907
v 48.50495964 39.34797102 -27.73205081
v 48.48600128 39.56466614 -27.58670668
v 48.46885855 39.76060838 -27.41421356
v 48.45382479 39.93244511 -27.21752286
v 48.44115721 40.07723616 -27.00000000
v 48.43107257 40.19250411 -26.76536686
v 48.42374342 40.27627670 -26.51763809
v 48.41929516 40.32712055 -26.26105238
v 47.29133970 53.21971041 15.60782987
v 47.30336918 53.08221284 15.68012523
v 47.31723402 52.92373698 15.74066660
v 47.33293474 52.74427698 15.78946579
v 47.35672572 52.47234478 15.83628616
v 47.38739443 52.12179988 15.86406686
v 47.43206585 51.61120314 15.86030620
v 47.47103194 51.16581869 15.80960148
v 47.49472302 50.89502842 15.74294328
v 47.51142825 50.70408679 15.66826684
v 47.52293965 50.57251088 15.59499718
v 47.53184708 50.47069851 15.51852243
v 47.53872271 50.39210974 15.44088276
v 47.54342106 50.33840733 15.37315259
v 47.54742008 50.29269828 15.30046138
v 47.55159916 50.24493120 15.19831806
v 47.55468532 50.20965627 15.08506402
v 47.55666371 50.18704316 14.95462198
v 47.55725463 50.18028889 14.77935742
v 47.55588547 50.19593847 14.61397449
v 47.55329053 50.22559880 14.48748941
v 47.54982494 50.26521062 14.38246615
v 47.54513210 50.31885003 14.28295270
v 47.53908775 50.38793731 14.18944900
v 47.53225953 50.46598419 14.10980331
v 47.52655268 50.53121382 14.05669532
v 47.52026051 50.60313360 14.00815997
v 47.50822957 50.74064784 13.93586461
v 47.49436139 50.89916191 13.87532324
v 47.47865699 51.07866406 13.82652405
v 47.45486322 51.35062805 13.77970368
v 47.42419849 51.70112751 13.75192298
v 47.37952322 52.21176820 13.75568364
v 47.34054646 52.65727458 13.80638836
v 47.31685247 52.92809814 13.87304656
v 47.30307035 53.08562853 13.93238751
v 47.29111106 53.22232379 14.00320472
v 47.28184164 53.32827373 14.07742910
v 47.27464462 53.41053603 14.15306431
v 47.26969076 53.46715895 14.21927037
v 47.26545113 53.51561815 14.29029945
v 47.26189347 53.55628239 14.36651689
v 47.25842014 53.59598270 14.46848183
v 47.25575425 53.62645405 14.59361504
v 47.25436780 53.64230117 14.74479411
v 47.25477672 53.63762717 14.92225241
v 47.25672844 53.61531897 15.06174865
v 47.25974254 53.58086765 15.17750037
v 47.26387188 53.53366908 15.28236341
v 47.26890327 53.47615996 15.37429311
v 47.27513548 53.40492558 15.45972513
v 47.28266012 53.31891844 15.53829531
v 47.25427367 53.64337706 -5.28382830
v 47.25427367 53.64337706 -1.76125844
v 47.25427367 53.64337706 1.76127502
v 47.25427367 53.64337706 5.28380848
v 47.56128269 50.13424791 5.28380848
v 47.56128269 50.13424791 12.32891180
v 48.17530391 43.11595333 12.32891180
v 48.17530391 43.11595333 15.85144526
v 48.78932195 36.09769501 15.85144526
v 49.09633097 32.58856585 15.85144526
v 49.09633097 32.58856585 12.32891180
v 49.71035218 25.57027128 12.32891180
v 49.71035218 25.57027128 5.28380848
v 50.01736120 22.06114212 5.28380848
v 50.01736120 22.06114212 -5.28382830
v 49.71035218 25.57027128 -5.28382830
v 49.71035218 25.57027128 -12.32889523
v 49.09633097 32.58856585 -12.32889523
v 49.09633097 32.58856585 -15.85142869
v 48.48231293 39.60682417 -15.85142869
v 48.17530391 43.11595333 -15.85142869
v 48.17530391 43.11595333 -12.32889523
v 47.56128269 50.13424791 -12.32889523
v 47.56128269 50.13424791 -5.28382830
v 47.56128269 50.13424791 -1.76125844
v 47.56128269 50.13424791 1.76127502
v 48.48231293 39.60682417 -12.32889523
v 48.78932195 36.09769501 12.32891180
v 47.34461314 52.61079225 14.43780892
v 47.33157117 52.75986261 14.46995864
v 47.32130113 52.87724973 14.51214840
v 47.31379737 52.96301816 14.56431343
v 47.30747444 53.03528948 14.65403004
v 47.30526644 53.06052709 14.72850319
v 47.30467401 53.06729854 14.78838129
v 47.30500230 53.06354617 14.85979230
v 47.30852169 53.02331941 14.97350467
v 47.31169959 52.98699583 15.02124225
v 47.31582297 52.93986543 15.06290796
v 47.32089181 52.88192823 15.09850724
v 47.32690614 52.81318422 15.12804549
v 47.33867402 52.67867668 15.16421018
v 47.35391440 52.50447839 15.19123548
v 47.40825575 51.88335383 15.21865761
v 47.46129605 51.27710050 15.18770485
v 47.47546321 51.11516907 15.15926739
v 47.48251057 51.03461738 15.13765786
v 47.48857873 50.96525800 15.11251381
v 47.49777744 50.86011623 15.05167641
v 47.50410037 50.78784491 14.96195980
v 47.50630837 50.76260731 14.88748665
v 47.50690080 50.75583585 14.82760855
v 47.50657251 50.75958823 14.75619753
v 47.50305312 50.79981498 14.64248517
v 47.49987522 50.83613857 14.59474759
v 47.49575184 50.88326896 14.55308188
v 47.49068299 50.94120616 14.51748260
v 47.48466867 51.00995017 14.48794434
v 47.47329057 51.14000254 14.45266799
v 47.45862441 51.30763742 14.42602586
v 47.38935600 52.09937904 14.39925217
v 47.86829171 46.62511875 8.80634194
v 49.40334316 29.07940044 8.80634194
v 47.86829171 46.62511875 -8.80636177
v 49.40334316 29.07940044 -8.80636177
v 48.78932195 36.09769501 5.28380848
v 49.09633097 32.58856585 5.28380848
v 49.09633097 32.58856585 1.76127502
v 48.78932195 36.09769501 1.76127502
v 48.17530391 43.11595333 1.76127502
v 48.17530391 43.11595333 5.28380848
v 48.48231293 39.60682417 5.28380848
v 48.48231293 39.60682417 1.76127502
v 49.09633097 32.58856585 -1.76125844
v 49.09633097 32.58856585 -5.28382830
v 48.78932195 36.09769501 -5.28382830
v 48.78932195 36.09769501 -1.76125844
v 48.09401804 38.30819845 -28.00000000
v 48.07126582 38.56825746 -27.98288972
v 48.04890290 38.82386678 -27.93185165
v 48.02731192 39.07065287 -27.84775907
v 48.00686229 39.30439315 -27.73205081
v 47.98790393 39.52108827 -27.58670668
v 47.97076120 39.71703051 -27.41421356
v 47.95572744 39.88886724 -27.21752286
v 47.94305986 40.03365829 -27.00000000
v 47.93297522 40.14892624 -26.76536686
v 47.92564607 40.23269883 -26.51763809
v 47.92119781 40.28354268 -26.26105238
v 47.91970655 40.30058785 -26.00000000
v 47.91970655 40.30058785 -23.50000000
v 47.87612868 40.79868520 -23.00000000
v 47.91933374 40.30484914 -23.43473690
v 47.91822167 40.31756011 -23.37059048
v 47.91638938 40.33850325 -23.30865828
v 47.91386822 40.36732024 -23.25000000
v 47.91070133 40.40351800 -23.19561929
v 47.90694289 40.44647719 -23.14644661
v 47.90265721 40.49546275 -23.10332333
v 47.89791762 40.54963653 -23.06698730
v 47.89280521 40.60807160 -23.03806023
v 47.88740746 40.66976812 -23.01703709
v 47.88181673 40.73367045 -23.00427757
v 46.65594828 54.74541097 -23.00000000
v 46.63319607 55.00546997 -22.98288972
v 46.61083315 55.26107929 -22.93185165
v 46.58924216 55.50786539 -22.84775907
v 46.56879254 55.74160567 -22.73205081
v 46.54983417 55.95830079 -22.58670668
v 46.53269145 56.15424303 -22.41421356
v 46.51765768 56.32607976 -22.21752286
v 46.50499011 56.47087080 -22.00000000
v 46.49490547 56.58613876 -21.76536686
v 46.48757632 56.66991135 -21.51763809
v 46.48312805 56.72075520 -21.26105238
v 46.48163680 56.73780037 -21.00000000
v 46.48163680 56.73780037 21.00000000
v 46.48312805 56.72075520 21.26105238
v 46.48757632 56.66991135 21.51763809
v 46.49490547 56.58613876 21.76536686
v 46.50499011 56.47087080 22.00000000
v 46.51765768 56.32607976 22.21752286
v 46.53269145 56.15424303 22.41421356
v 46.54983417 55.95830079 22.58670668
v 46.56879254 55.74160567 22.73205081
v 46.58924216 55.50786539 22.84775907
v 46.61083315 55.26107929 22.93185165
v 46.63319607 55.00546997 22.98288972
v 46.65594828 54.74541097 23.00000000
v 47.87612868 40.79868520 23.00000000
v 47.91970655 40.30058785 23.50000000
v 47.88181673 40.73367045 23.00427757
v 47.88740746 40.66976812 23.01703709
v 47.89280521 40.60807160 23.03806023
v 47.89791762 40.54963653 23.06698730
v 47.90265721 40.49546275 23.10332333
v 47.90694289 40.44647719 23.14644661
v 47.91070133 40.40351800 23.19561929
v 47.91386822 40.36732024 23.25000000
v 47.91638938 40.33850325 23.30865828
v 47.91822167 40.31756011 23.37059048
v 47.91933374 40.30484914 23.43473690
v 47.91970655 40.30058785 26.00000000
v 47.92119781 40.28354268 26.26105238
v 47.92564607 40.23269883 26.51763809
v 47.93297522 40.14892624 26.76536686
v 47.94305986 40.03365829 27.00000000
v 47.95572744 39.88886724 27.21752286
v 47.97076120 39.71703051 27.41421356
v 47.98790393 39.52108827 27.58670668
v 48.00686229 39.30439315 27.73205081
v 48.02731192 39.07065287 27.84775907
v 48.04890290 38.82386678 27.93185165
v 48.07126582 38.56825746 27.98288972
v 48.09401804 38.30819845 28.00000000
v 50.31648948 12.90523365 28.00000000
v 50.33924169 12.64517465 27.98288972
v 50.36160461 12.38956533 27.93185165
v 50.38319559 12.14277924 27.84775907
v 50.40364522 11.90903896 27.73205081
v 50.42260359 11.69234384 27.58670668
v 50.43974631 11.49640160 27.41421356
v 50.45478008 11.32456487 27.21752286
v 50.46744765 11.17977382 27.00000000
v 50.47753229 11.06450587 26.76536686
v 50.48486144 10.98073328 26.51763809
v 50.48930970 10.92988942 26.26105238
v 50.49080096 10.91284426 26.00000000
v 50.49080096 10.91284426 10.75000000
v 50.53437883 10.41474691 10.25000000
v 50.49117378 10.90858297 10.68473690
v 50.49228584 10.89587200 10.62059048
v 50.49411813 10.87492885 10.55865828
v 50.49663929 10.84611187 10.50000000
v 50.49980618 10.80991410 10.44561929
v 50.50356462 10.76695492 10.39644661
v 50.50785031 10.71796936 10.35332333
v 50.51258990 10.66379558 10.31698730
v 50.51770230 10.60536051 10.28806023
v 50.52310005 10.54366399 10.26703709
v 50.52869078 10.47976166 10.25427757
v 50.75226819 7.92426016 10.25000000
v 50.77502040 7.66420116 10.23288972
v 50.79738332 7.40859184 10.18185165
v 50.81897431 7.16180575 10.09775907
v 50.83942393 6.92806546 9.98205081
v 50.85838230 6.71137035 9.83670668
v 50.87552502 6.51542811 9.66421356
v 50.89055879 6.34359138 9.46752286
v 50.90322636 6.19880033 9.25000000
v 50.91331100 6.08353238 9.01536686
v 50.92064016 5.99975979 8.76763809
v 50.92508842 5.94891593 8.51105238
v 50.92657968 5.93187077 8.25000000
v 50.92657968 5.93187077 -2.25000000
v 50.92508842 5.94891593 -2.51105238
v 50.92064016 5.99975979 -2.76763809
v 50.91331100 6.08353238 -3.01536686
v 50.90322636 6.19880033 -3.25000000
v 50.89055879 6.34359138 -3.46752286
v 50.87552502 6.51542811 -3.66421356
v 50.85838230 6.71137035 -3.83670668
v 50.83942393 6.92806546 -3.98205081
v 50.81897431 7.16180575 -4.09775907
v 50.79738332 7.40859184 -4.18185165
v 50.77502040 7.66420116 -4.23288972
v 50.75226819 7.92426016 -4.25000000
v 50.53437883 10.41474691 -4.25000000
v 50.49080096 10.91284426 -4.75000000
v 50.52869078 10.47976166 -4.25427757
v 50.52310005 10.54366399 -4.26703709
v 50.51770230 10.60536051 -4.28806023
v 50.51258990 10.66379558 -4.31698730
v 50.50785031 10.71796936 -4.35332333
v 50.50356462 10.76695492 -4.39644661
v 50.49980618 10.80991410 -4.44561929
v 50.49663929 10.84611187 -4.50000000
v 50.49411813 10.87492885 -4.55865828
v 50.49228584 10.89587200 -4.62059048
v 50.49117378 10.90858297 -4.68473690
v 50.49080096 10.91284426 -26.00000000
v 50.48930970 10.92988942 -26.26105238
v 50.48486144 10.98073328 -26.51763809
v 50.47753229 11.06450587 -26.76536686
v 50.46744765 11.17977382 -27.00000000
v 50.45478008 11.32456487 -27.21752286
v 50.43974631 11.49640160 -27.41421356
v 50.42260359 11.69234384 -27.58670668
v 50.40364522 11.90903896 -27.73205081
v 50.38319559 12.14277924 -27.84775907
v 50.36160461 12.38956533 -27.93185165
v 50.33924169 12.64517465 -27.98288972
v 50.31648948 12.90523365 -28.00000000
v 49.14614070 32.59292364 5.28380848
v 49.14614070 32.59292364 1.76127502
v 48.83913168 36.10205280 5.28380848
v 48.83913168 36.10205280 1.76127502
v 49.14614070 32.59292364 -5.28382830
v 48.83913168 36.10205280 -5.28382830
v 49.14614070 32.59292364 -1.76125844
v 48.83913168 36.10205280 -1.76125844
v 48.22511364 43.12031112 5.28380848
v 48.53212266 39.61118196 5.28380848
v 48.22511364 43.12031112 1.76127502
v 48.53212266 39.61118196 1.76127502
v 48.53212266 39.61118196 -12.32889523
v 48.53212266 39.61118196 -15.85142869
v 49.76016191 25.57462906 -12.32889523
v 49.76016191 25.57462906 -5.28382830
v 50.06717094 22.06549991 -5.28382830
v 50.06717094 22.06549991 5.28380848
v 49.76016191 25.57462906 5.28380848
v 49.76016191 25.57462906 12.32891180
v 48.83913168 36.10205280 12.32891180
v 48.83913168 36.10205280 15.85144526
v 48.22511364 43.12031112 15.85144526
v 48.22511364 43.12031112 12.32891180
v 47.61109243 50.13860569 12.32891180
v 47.61109243 50.13860569 1.76127502
v 47.30408341 53.64773485 1.76127502
v 47.30408341 53.64773485 -1.76125844
v 47.61109243 50.13860569 -1.76125844
v 47.61109243 50.13860569 -12.32889523
v 48.22511364 43.12031112 -12.32889523
v 48.22511364 43.12031112 -15.85142869
v 47.91810145 46.62947653 -8.80636177
v 47.91810145 46.62947653 8.80634194
v 49.45315289 29.08375822 8.80634194
v 49.45315289 29.08375822 -8.80636177
v 47.61109243 50.13860569 5.28380848
v 47.30408341 53.64773485 5.28380848
v 47.30408341 53.64773485 -5.28382830
v 47.61109243 50.13860569 -5.28382830
v 49.14614070 32.59292364 -15.85142869
v 49.14614070 32.59292364 -12.32889523
v 49.14614070 32.59292364 12.32891180
v 49.14614070 32.59292364 15.85144526
v 47.34114944 53.22406820 15.60782987
v 47.35317892 53.08657062 15.68012523
v 47.36704376 52.92809477 15.74066660
v 47.38274447 52.74863476 15.78946579
v 47.40653546 52.47670257 15.83628616
v 47.43720416 52.12615767 15.86406686
v 47.48187559 51.61556093 15.86030620
v 47.52084168 51.17017648 15.80960148
v 47.54453276 50.89938621 15.74294328
v 47.56123799 50.70844458 15.66826684
v 47.57274939 50.57686867 15.59499718
v 47.58165681 50.47505630 15.51852243
v 47.58853244 50.39646753 15.44088276
v 47.59323079 50.34276512 15.37315259
v 47.59722982 50.29705607 15.30046138
v 47.60140889 50.24928899 15.19831806
v 47.60449505 50.21401406 15.08506402
v 47.60647344 50.19140095 14.95462198
v 47.60706436 50.18464668 14.77935742
v 47.60569520 50.20029625 14.61397449
v 47.60310026 50.22995659 14.48748941
v 47.59963468 50.26956840 14.38246615
v 47.59494184 50.32320781 14.28295270
v 47.58889748 50.39229509 14.18944900
v 47.58206926 50.47034198 14.10980331
v 47.57636241 50.53557160 14.05669532
v 47.57007025 50.60749139 14.00815997
v 47.34092080 53.22668158 14.00320472
v 47.33165138 53.33263152 14.07742910
v 47.32445436 53.41489382 14.15306431
v 47.31950050 53.47151674 14.21927037
v 47.31526087 53.51997594 14.29029945
v 47.31170321 53.56064017 14.36651689
v 47.30822988 53.60034048 14.46848183
v 47.30556398 53.63081184 14.59361504
v 47.30417754 53.64665895 14.74479411
v 47.30458646 53.64198496 14.92225241
v 47.30653817 53.61967676 15.06174865
v 47.30955227 53.58522544 15.17750037
v 47.31368161 53.53802686 15.28236341
v 47.31871301 53.48051775 15.37429311
v 47.32494521 53.40928336 15.45972513
v 47.33246986 53.32327623 15.53829531
v 47.55803931 50.74500563 13.93586461
v 47.54417112 50.90351970 13.87532324
v 47.52846672 51.08302185 13.82652405
v 47.50467296 51.35498584 13.77970368
v 47.47400823 51.70548529 13.75192298
v 47.42933295 52.21612599 13.75568364
v 47.39035620 52.66163237 13.80638836
v 47.36666221 52.93245593 13.87304656
v 47.35288008 53.08998632 13.93238751
v 47.39442287 52.61515004 14.43780892
v 47.38138091 52.76422039 14.46995864
v 47.37111086 52.88160752 14.51214840
v 47.36360710 52.96737595 14.56431343
v 47.35728418 53.03964727 14.65403004
v 47.35507617 53.06488487 14.72850319
v 47.35448375 53.07165633 14.78838129
v 47.35481204 53.06790395 14.85979230
v 47.35833142 53.02767720 14.97350467
v 47.36150933 52.99135361 15.02124225
v 47.36563270 52.94422322 15.06290796
v 47.37070155 52.88628602 15.09850724
v 47.37671587 52.81754201 15.12804549
v 47.38848376 52.68303447 15.16421018
v 47.40372413 52.50883618 15.19123548
v 47.45806549 51.88771161 15.21865761
v 47.51110578 51.28145828 15.18770485
v 47.52527295 51.11952686 15.15926739
v 47.53232031 51.03897516 15.13765786
v 47.53838847 50.96961579 15.11251381
v 47.54758718 50.86447402 15.05167641
v 47.55391010 50.79220270 14.96195980
v 47.55611810 50.76696509 14.88748665
v 47.55671053 50.76019364 14.82760855
v 47.55638224 50.76394601 14.75619753
v 47.55286286 50.80417276 14.64248517
v 47.54968495 50.84049635 14.59474759
v 47.54556158 50.88762675 14.55308188
v 47.54049273 50.94556395 14.51748260
v 47.53447841 51.01430796 14.48794434
v 47.52310030 51.14436033 14.45266799
v 47.50843415 51.31199521 14.42602586
v 47.43916573 52.10373683 14.39925217
f 123 124 125
f 122 125 126
f 122 126 127
f 122 127 128
f 122 123 125
f 131 128 129
f 131 129 130
f 131 122 128
f 120 121 122
f 120 122 131
f 119 120 131
f 148 149 150
f 148 150 151
f 148 151 152
f 156 154 155
f 145 152 153
f 145 153 154
f 145 148 152
f 145 154 156
f 2 146 147
f 2 147 148
f 2 148 145
f 133 2 145
f 231 120 119
f 209 231 119
f 229 132 120
f 229 120 231
f 232 231 209
f 210 209 119
f 230 229 231
f 228 132 229
f 228 138 139
f 228 139 140
f 228 140 141
f 228 141 142
f 228 142 143
f 228 143 144
f 228 144 132
f 227 138 228
f 227 133 134
f 227 134 135
f 227 135 136
f 227 136 137
f 227 137 138
f 227 2 133
f 1 2 227
f 13 14 1
f 12 13 1
f 194 212 195
f 196 195 212
f 197 196 212
f 193 212 194
f 198 197 212
f 10 11 12
f 192 212 193
f 199 198 212
f 191 212 192
f 190 212 191
f 8 9 10
f 7 10 12
f 7 12 1
f 7 8 10
f 214 213 212
f 214 212 190
f 214 189 188
f 214 190 189
f 225 227 226
f 225 1 227
f 187 214 188
f 186 214 187
f 4 5 6
f 4 6 7
f 185 214 186
f 184 214 185
f 3 4 7
f 3 1 225
f 3 7 1
f 183 214 184
f 182 214 183
f 181 214 182
f 180 214 181
f 179 214 180
f 178 214 179
f 107 203 202
f 107 204 203
f 107 205 204
f 107 206 205
f 107 207 206
f 107 208 207
f 107 157 208
f 107 211 210
f 107 212 211
f 107 210 119
f 107 158 157
f 107 159 158
f 107 160 159
f 107 199 212
f 107 200 199
f 107 201 200
f 107 202 201
f 177 214 178
f 109 107 108
f 110 107 109
f 111 107 110
f 112 107 111
f 113 107 112
f 116 113 114
f 116 114 115
f 106 116 117
f 106 117 118
f 106 160 107
f 106 161 160
f 106 162 161
f 106 163 162
f 106 164 163
f 106 165 164
f 106 166 165
f 106 113 116
f 106 107 113
f 215 214 177
f 215 177 176
f 223 225 224
f 216 168 167
f 216 169 168
f 216 170 169
f 216 171 170
f 216 172 171
f 216 173 172
f 216 174 173
f 216 175 174
f 216 176 175
f 216 215 176
f 94 167 166
f 94 166 106
f 94 216 167
f 95 216 94
f 96 217 216
f 96 216 95
f 97 217 96
f 98 217 97
f 99 217 98
f 100 217 99
f 101 217 100
f 102 217 101
f 103 217 102
f 104 217 103
f 218 104 105
f 218 105 93
f 218 217 104
f 15 3 225
f 15 225 223
f 27 15 223
f 26 27 223
f 25 26 223
f 24 25 223
f 23 223 222
f 23 24 223
f 22 23 222
f 21 22 222
f 20 21 222
f 220 219 218
f 220 222 221
f 85 83 84
f 87 83 85
f 87 85 86
f 88 83 87
f 89 83 88
f 39 40 28
f 37 38 39
f 92 90 91
f 80 218 93
f 80 81 82
f 80 82 83
f 80 89 90
f 80 83 89
f 80 93 81
f 80 90 92
f 33 34 35
f 33 35 36
f 33 36 37
f 32 33 37
f 32 39 28
f 32 37 39
f 29 32 28
f 29 16 17
f 29 28 16
f 29 30 31
f 29 31 32
f 62 222 61
f 60 61 222
f 63 19 20
f 63 222 62
f 63 20 222
f 59 60 222
f 58 59 222
f 64 19 63
f 57 58 222
f 65 18 19
f 65 19 64
f 56 57 222
f 66 29 17
f 66 17 18
f 66 18 65
f 55 222 220
f 55 56 222
f 41 29 66
f 41 54 42
f 41 66 54
f 43 41 42
f 43 53 41
f 52 53 43
f 50 51 52
f 46 44 45
f 47 43 44
f 47 44 46
f 48 49 50
f 48 43 47
f 48 52 43
f 48 50 52
f 68 220 218
f 68 218 80
f 67 55 220
f 67 220 68
f 79 67 68
f 76 77 78
f 72 70 71
f 75 78 79
f 75 76 78
f 74 68 69
f 74 69 70
f 74 72 73
f 74 79 68
f 74 75 79
f 74 70 72
f 233 209 210
f 233 232 209
f 213 211 212
f 213 234 211
f 226 228 235
f 226 227 228
f 218 219 236
f 218 236 217
f 240 193 194
f 240 194 195
f 240 195 196
f 241 240 196
f 241 196 197
f 241 197 198
f 241 198 199
f 239 193 240
f 239 192 193
f 242 241 199
f 242 199 200
f 242 200 201
f 238 192 239
f 238 191 192
f 243 201 202
f 243 242 201
f 244 243 202
f 244 202 203
f 237 191 238
f 237 189 190
f 237 190 191
f 245 244 203
f 245 203 204
f 245 204 205
f 245 205 206
f 246 245 206
f 207 246 206
f 247 246 207
f 208 247 207
f 269 189 237
f 269 188 189
f 157 247 208
f 157 248 247
f 158 248 157
f 158 249 248
f 159 250 249
f 159 249 158
f 160 251 250
f 160 250 159
f 268 186 187
f 268 187 188
f 268 188 269
f 267 185 186
f 267 186 268
f 161 251 160
f 266 184 185
f 266 185 267
f 265 183 184
f 265 184 266
f 264 181 182
f 264 182 183
f 264 183 265
f 162 252 251
f 162 251 161
f 263 181 264
f 180 181 263
f 179 263 262
f 179 180 263
f 178 179 262
f 163 253 252
f 163 252 162
f 177 178 262
f 177 262 261
f 176 177 261
f 175 176 261
f 175 261 260
f 164 253 163
f 164 254 253
f 174 175 260
f 174 260 259
f 165 255 254
f 165 254 164
f 173 174 259
f 173 259 258
f 172 173 258
f 166 255 165
f 166 256 255
f 171 172 258
f 167 256 166
f 167 257 256
f 170 171 258
f 170 258 257
f 168 257 167
f 169 170 257
f 169 257 168
f 242 240 241
f 243 239 240
f 243 240 242
f 246 244 245
f 247 243 244
f 247 239 243
f 247 244 246
f 248 239 247
f 249 238 239
f 249 239 248
f 250 237 238
f 250 238 249
f 251 269 237
f 251 237 250
f 252 268 269
f 252 269 251
f 253 267 268
f 253 268 252
f 261 262 263
f 261 263 264
f 254 267 253
f 260 261 264
f 255 266 267
f 255 267 254
f 256 264 265
f 256 265 266
f 256 266 255
f 256 260 264
f 257 258 259
f 257 259 260
f 257 260 256
f 278 284 272
f 270 278 272
f 273 284 283
f 273 272 284
f 285 284 278
f 281 285 278
f 279 278 270
f 282 273 283
f 277 282 285
f 277 285 281
f 280 279 270
f 274 281 280
f 274 277 281
f 276 282 277
f 271 275 274
f 271 276 275
f 271 273 282
f 271 282 276
f 271 280 270
f 271 274 280
f 282 283 284
f 282 284 285
f 275 277 274
f 275 276 277
f 272 231 232
f 230 231 272
f 228 229 230
f 233 272 232
f 235 228 230
f 235 230 272
f 234 210 211
f 234 233 210
f 270 234 213
f 270 233 234
f 273 226 235
f 214 270 213
f 225 226 273
f 224 225 273
f 215 270 214
f 236 270 215
f 271 270 236
f 271 224 273
f 217 215 216
f 217 236 215
f 221 224 271
f 219 271 236
f 222 223 224
f 222 224 221
f 220 221 271
f 220 271 219
f 272 233 270
f 273 235 272
f 297 298 145
f 297 156 155
f 297 145 156
f 296 155 154
f 296 297 155
f 295 154 153
f 295 296 154
f 294 153 152
f 294 295 153
f 293 152 151
f 293 294 152
f 292 151 150
f 292 293 151
f 291 150 149
f 291 292 150
f 290 149 148
f 290 291 149
f 289 148 147
f 289 290 148
f 288 147 146
f 288 289 147
f 287 146 2
f 287 288 146
f 286 287 2
f 133 145 298
f 133 298 299
f 301 133 299
f 301 134 133
f 302 135 134
f 302 134 301
f 303 136 135
f 303 135 302
f 304 137 136
f 304 136 303
f 305 138 137
f 305 137 304
f 306 139 138
f 306 138 305
f 307 140 139
f 307 139 306
f 308 141 140
f 308 140 307
f 309 142 141
f 309 141 308
f 310 143 142
f 310 144 143
f 310 142 309
f 311 144 310
f 300 132 144
f 300 144 311
f 312 132 300
f 120 132 312
f 324 119 131
f 323 324 131
f 322 131 130
f 322 323 131
f 321 130 129
f 321 322 130
f 320 129 128
f 320 321 129
f 319 128 127
f 319 320 128
f 318 127 126
f 318 319 127
f 317 126 125
f 317 318 126
f 316 125 124
f 316 317 125
f 315 124 123
f 315 316 124
f 314 123 122
f 314 315 123
f 313 122 121
f 313 314 122
f 312 121 120
f 312 313 121
f 107 119 324
f 107 324 325
f 337 106 118
f 336 337 118
f 335 118 117
f 335 336 118
f 334 117 116
f 334 335 117
f 333 116 115
f 333 334 116
f 332 115 114
f 332 333 115
f 331 114 113
f 331 332 114
f 330 113 112
f 330 331 113
f 329 112 111
f 329 330 112
f 328 111 110
f 328 329 111
f 327 110 109
f 327 328 110
f 326 108 107
f 326 109 108
f 326 327 109
f 325 326 107
f 337 94 106
f 337 338 94
f 338 95 94
f 340 96 95
f 340 95 338
f 341 97 96
f 341 96 340
f 342 98 97
f 342 97 341
f 343 99 98
f 343 98 342
f 344 100 99
f 344 99 343
f 345 101 100
f 345 100 344
f 346 102 101
f 346 101 345
f 347 103 102
f 347 102 346
f 348 104 103
f 348 103 347
f 349 105 104
f 349 104 348
f 350 93 105
f 350 105 349
f 339 93 350
f 81 93 339
f 81 339 351
f 362 363 80
f 362 80 92
f 361 92 91
f 361 362 92
f 360 91 90
f 360 361 91
f 359 90 89
f 359 360 90
f 358 89 88
f 358 359 89
f 357 88 87
f 357 358 88
f 356 87 86
f 356 357 87
f 355 86 85
f 355 356 86
f 354 85 84
f 354 355 85
f 353 84 83
f 353 354 84
f 352 82 81
f 352 83 82
f 352 353 83
f 351 352 81
f 363 68 80
f 363 364 68
f 376 67 79
f 375 79 78
f 375 376 79
f 374 78 77
f 374 375 78
f 373 374 77
f 372 77 76
f 372 373 77
f 371 75 74
f 371 76 75
f 371 372 76
f 370 74 73
f 370 371 74
f 369 370 73
f 368 72 71
f 368 73 72
f 368 369 73
f 367 368 71
f 366 70 69
f 366 71 70
f 366 367 71
f 365 69 68
f 365 366 69
f 364 365 68
f 67 377 55
f 376 377 67
f 379 55 377
f 379 56 55
f 380 57 56
f 380 56 379
f 381 58 57
f 381 57 380
f 382 59 58
f 382 58 381
f 383 60 59
f 383 59 382
f 384 61 60
f 384 60 383
f 385 62 61
f 385 61 384
f 386 63 62
f 386 62 385
f 387 64 63
f 387 63 386
f 388 65 64
f 388 64 387
f 389 66 65
f 389 65 388
f 378 54 66
f 378 66 389
f 54 390 42
f 54 378 390
f 402 41 53
f 401 402 53
f 400 53 52
f 400 401 53
f 399 52 51
f 399 400 52
f 398 51 50
f 398 399 51
f 397 50 49
f 397 398 50
f 396 49 48
f 396 397 49
f 395 48 47
f 395 396 48
f 394 47 46
f 394 395 47
f 393 46 45
f 393 394 46
f 392 45 44
f 392 393 45
f 391 44 43
f 391 392 44
f 390 43 42
f 390 391 43
f 402 29 41
f 402 403 29
f 415 28 40
f 414 415 40
f 413 40 39
f 413 414 40
f 412 39 38
f 412 413 39
f 411 38 37
f 411 412 38
f 410 37 36
f 410 411 37
f 409 36 35
f 409 410 36
f 408 35 34
f 408 409 35
f 407 34 33
f 407 408 34
f 406 32 31
f 406 33 32
f 406 407 33
f 405 406 31
f 404 31 30
f 404 405 31
f 403 30 29
f 403 404 30
f 16 28 415
f 16 415 416
f 418 16 416
f 418 17 16
f 419 18 17
f 419 17 418
f 420 19 18
f 420 18 419
f 421 20 19
f 421 19 420
f 422 21 20
f 422 20 421
f 423 22 21
f 423 21 422
f 424 23 22
f 424 22 423
f 425 24 23
f 425 23 424
f 426 25 24
f 426 24 425
f 427 26 25
f 427 25 426
f 428 27 26
f 428 26 427
f 417 15 27
f 417 27 428
f 15 429 3
f 417 429 15
f 440 441 1
f 440 1 14
f 439 13 12
f 439 14 13
f 439 440 14
f 438 439 12
f 437 11 10
f 437 12 11
f 437 438 12
f 436 437 10
f 435 10 9
f 435 436 10
f 434 8 7
f 434 9 8
f 434 435 9
f 433 434 7
f 432 7 6
f 432 433 7
f 431 6 5
f 431 432 6
f 430 5 4
f 430 431 5
f 429 4 3
f 429 430 4
f 2 1 441
f 2 441 286
f 279 281 278
f 280 281 279
f 315 317 316
f 314 318 317
f 314 319 318
f 314 320 319
f 314 317 315
f 323 321 320
f 323 322 321
f 323 320 314
f 312 314 313
f 312 323 314
f 324 323 312
f 288 290 289
f 288 291 290
f 288 292 291
f 287 293 292
f 287 294 293
f 287 292 288
f 286 294 287
f 286 295 294
f 298 295 286
f 298 296 295
f 298 297 296
f 299 298 286
f 300 324 312
f 301 299 286
f 302 301 286
f 441 302 286
f 441 303 302
f 441 304 303
f 439 441 440
f 438 441 439
f 436 438 437
f 434 436 435
f 433 438 436
f 433 436 434
f 433 441 438
f 430 432 431
f 430 433 432
f 429 441 433
f 429 433 430
f 325 324 300
f 327 326 325
f 328 327 325
f 329 328 325
f 330 329 325
f 331 330 325
f 334 332 331
f 334 333 332
f 337 335 334
f 337 336 335
f 337 331 325
f 337 334 331
f 338 337 325
f 338 300 311
f 338 325 300
f 340 338 311
f 341 311 310
f 341 340 311
f 417 304 441
f 417 305 304
f 417 306 305
f 417 307 306
f 417 308 307
f 417 309 308
f 417 441 429
f 428 309 417
f 428 341 310
f 428 310 309
f 427 342 341
f 427 341 428
f 426 342 427
f 355 354 353
f 357 355 353
f 357 356 355
f 358 357 353
f 359 358 353
f 359 352 351
f 359 353 352
f 413 415 414
f 362 361 360
f 362 359 351
f 362 360 359
f 363 351 339
f 363 350 349
f 363 339 350
f 363 362 351
f 408 410 409
f 408 411 410
f 408 412 411
f 408 413 412
f 408 415 413
f 406 408 407
f 406 415 408
f 403 418 416
f 403 416 415
f 403 405 404
f 403 406 405
f 403 415 406
f 385 384 423
f 385 422 421
f 385 423 422
f 383 423 384
f 383 424 423
f 386 385 421
f 386 421 420
f 382 425 424
f 382 424 383
f 387 386 420
f 381 426 425
f 381 425 382
f 381 342 426
f 388 387 420
f 388 419 418
f 388 420 419
f 380 343 342
f 380 342 381
f 389 388 418
f 389 418 403
f 379 344 343
f 379 343 380
f 377 344 379
f 377 345 344
f 377 346 345
f 377 347 346
f 377 348 347
f 402 389 403
f 402 390 378
f 402 378 389
f 401 390 402
f 392 390 401
f 392 391 390
f 398 400 399
f 395 392 401
f 395 393 392
f 395 394 393
f 395 401 400
f 396 400 398
f 396 395 400
f 396 398 397
f 364 349 348
f 364 348 377
f 364 363 349
f 376 364 377
f 375 364 376
f 372 374 373
f 368 367 366
f 371 374 372
f 371 375 374
f 370 364 375
f 370 375 371
f 370 368 366
f 370 365 364
f 370 366 365
f 370 369 368
f 443 445 444
f 442 443 444
f 449 446 447
f 448 446 449
f 451 452 450
f 451 453 452
f 472 471 474
f 455 473 472
f 454 455 472
f 454 472 474
f 467 469 468
f 467 470 469
f 475 470 467
f 457 456 477
f 465 475 466
f 462 475 465
f 476 457 477
f 476 475 462
f 463 465 464
f 463 462 465
f 460 457 476
f 459 458 457
f 459 457 460
f 461 476 462
f 461 460 476
f 454 477 456
f 454 474 477
f 466 475 467
f 470 474 471
f 470 475 474
f 479 467 468
f 478 467 479
f 470 480 469
f 470 481 480
f 483 455 454
f 483 482 455
f 485 484 462
f 485 462 463
f 452 447 474
f 475 452 474
f 477 447 446
f 477 474 447
f 449 447 452
f 453 449 452
f 450 452 475
f 448 477 446
f 445 448 449
f 445 449 453
f 451 450 475
f 444 453 451
f 444 445 453
f 443 448 445
f 476 442 444
f 476 443 442
f 476 477 448
f 476 448 443
f 476 451 475
f 476 444 451
f 541 513 514
f 541 514 515
f 541 515 516
f 542 541 516
f 542 516 517
f 542 517 518
f 542 518 519
f 540 513 541
f 540 537 513
f 543 542 519
f 543 519 520
f 543 520 521
f 539 537 540
f 539 536 537
f 544 521 522
f 544 543 521
f 545 544 522
f 545 522 523
f 538 536 539
f 538 534 535
f 538 535 536
f 546 545 523
f 546 523 524
f 546 524 525
f 546 525 526
f 547 546 526
f 527 547 526
f 548 547 527
f 528 548 527
f 570 534 538
f 570 533 534
f 486 548 528
f 486 549 548
f 487 549 486
f 487 550 549
f 488 551 550
f 488 550 487
f 489 552 551
f 489 551 488
f 569 531 532
f 569 532 533
f 569 533 570
f 568 530 531
f 568 531 569
f 490 552 489
f 567 529 530
f 567 530 568
f 566 512 529
f 566 529 567
f 565 510 511
f 565 511 512
f 565 512 566
f 491 553 552
f 491 552 490
f 564 510 565
f 509 510 564
f 508 564 563
f 508 509 564
f 507 508 563
f 492 554 553
f 492 553 491
f 506 507 563
f 506 563 562
f 505 506 562
f 504 505 562
f 504 562 561
f 493 554 492
f 493 555 554
f 503 504 561
f 503 561 560
f 494 556 555
f 494 555 493
f 502 503 560
f 502 560 559
f 501 502 559
f 495 556 494
f 495 557 556
f 500 501 559
f 496 557 495
f 496 558 557
f 499 500 559
f 499 559 558
f 497 558 496
f 498 499 558
f 498 558 497

